<svg width="54" height="41" viewBox="0 0 54 41" fill="none" xmlns="http://www.w3.org/2000/svg">
<path d="M45.0805 3.47957C45.0659 3.45124 45.0417 3.42905 45.0122 3.41696C41.6027 1.85265 38.0047 0.737167 34.3082 0.0984392C34.2747 0.0921958 34.24 0.0966999 34.2091 0.111311C34.1782 0.125922 34.1527 0.149896 34.1363 0.179824C33.6463 1.06905 33.2016 1.98244 32.8037 2.91649C28.8191 2.31164 24.7661 2.31164 20.7815 2.91649C20.381 1.98006 19.9291 1.06645 19.4279 0.179824C19.4107 0.150546 19.3851 0.127125 19.3544 0.112608C19.3237 0.0980922 19.2894 0.0931547 19.2559 0.0984392C15.559 0.735826 11.9608 1.85139 8.55173 3.41705C8.52255 3.42942 8.49792 3.45055 8.48126 3.47751C1.66382 13.6585 -0.203729 23.5891 0.712428 33.3967C0.715006 33.4208 0.722391 33.444 0.734144 33.4651C0.745897 33.4863 0.761779 33.5048 0.780845 33.5197C4.75057 36.459 9.19076 38.7025 13.9119 40.1547C13.9452 40.1646 13.9807 40.1642 14.0137 40.1534C14.0467 40.1426 14.0755 40.1219 14.0964 40.0942C15.1104 38.7145 16.0089 37.2535 16.7827 35.7261C16.7934 35.7051 16.7995 35.6822 16.8006 35.6587C16.8017 35.6352 16.7978 35.6118 16.7892 35.5899C16.7806 35.568 16.7674 35.5482 16.7506 35.5318C16.7338 35.5154 16.7137 35.5027 16.6916 35.4946C15.2748 34.9525 13.9031 34.299 12.5895 33.5403C12.5656 33.5262 12.5456 33.5065 12.5311 33.4829C12.5167 33.4593 12.5083 33.4325 12.5066 33.4049C12.505 33.3773 12.5102 33.3496 12.5217 33.3245C12.5333 33.2993 12.5509 33.2774 12.5729 33.2607C12.8486 33.0542 13.1244 32.8394 13.3876 32.6224C13.411 32.6031 13.4393 32.5908 13.4693 32.5867C13.4993 32.5827 13.5299 32.5871 13.5575 32.5995C22.1636 36.5272 31.4809 36.5272 39.9851 32.5995C40.0128 32.5863 40.0437 32.5813 40.0742 32.585C40.1046 32.5887 40.1334 32.6009 40.1572 32.6203C40.4205 32.8373 40.6962 33.0542 40.9739 33.2607C40.9961 33.2773 41.0138 33.299 41.0255 33.3241C41.0373 33.3491 41.0427 33.3767 41.0413 33.4043C41.0398 33.432 41.0316 33.4588 41.0173 33.4825C41.0031 33.5062 40.9832 33.5261 40.9594 33.5403C39.6488 34.3054 38.2759 34.9585 36.8553 35.4926C36.8333 35.501 36.8132 35.5139 36.7965 35.5306C36.7798 35.5473 36.7668 35.5673 36.7584 35.5893C36.7499 35.6114 36.7462 35.635 36.7475 35.6585C36.7488 35.6821 36.7551 35.7051 36.7659 35.7261C37.5527 37.245 38.4498 38.7042 39.4501 40.0918C39.4704 40.1203 39.4992 40.1416 39.5323 40.1529C39.5654 40.1641 39.6012 40.1646 39.6346 40.1544C44.3643 38.7072 48.8122 36.4634 52.7869 33.5197C52.8063 33.5056 52.8224 33.4875 52.8342 33.4666C52.846 33.4458 52.8532 33.4226 52.8553 33.3988C53.9522 22.0601 51.0191 12.2109 45.0805 3.47957ZM18.068 27.4249C15.4769 27.4249 13.342 25.0471 13.342 22.1269C13.342 19.2067 15.4355 16.8288 18.068 16.8288C20.721 16.8288 22.8353 19.2274 22.7939 22.1267C22.7939 25.0471 20.7003 27.4249 18.068 27.4249ZM35.5415 27.4249C32.9506 27.4249 30.8156 25.0471 30.8156 22.1269C30.8156 19.2067 32.9091 16.8288 35.5415 16.8288C38.1948 16.8288 40.309 19.2274 40.2676 22.1267C40.2676 25.0471 38.1948 27.4249 35.5415 27.4249Z" fill="black"/>
</svg>
