<svg width="58" height="48" viewBox="0 0 58 48" fill="none" xmlns="http://www.w3.org/2000/svg">
<path d="M51.6119 12.4708C51.6482 12.9792 51.6482 13.4877 51.6482 13.9962C51.6482 29.504 39.8449 47.3727 18.2717 47.3727C11.6254 47.3727 5.45135 45.4477 0.257812 42.1066C1.20212 42.2155 2.10999 42.2518 3.09063 42.2518C8.57461 42.2518 13.6229 40.3996 17.6543 37.2399C12.4971 37.1309 8.17518 33.7533 6.6861 29.1046C7.41253 29.2135 8.13884 29.2861 8.9016 29.2861C9.9548 29.2861 11.0081 29.1408 11.9886 28.8867C6.61355 27.797 2.58209 23.0757 2.58209 17.3737V17.2285C4.14372 18.1002 5.95979 18.6449 7.88452 18.7175C4.72481 16.611 2.65475 13.0155 2.65475 8.94784C2.65475 6.76878 3.23574 4.77127 4.25272 3.02798C10.0274 10.1464 18.7075 14.795 28.4407 15.3036C28.2591 14.4319 28.1501 13.5241 28.1501 12.6161C28.1501 6.15135 33.38 0.885254 39.881 0.885254C43.2585 0.885254 46.3093 2.30166 48.4521 4.58972C51.1032 4.08129 53.6455 3.10064 55.8974 1.7569C55.0256 4.48083 53.1734 6.76889 50.7401 8.22152C53.1009 7.96742 55.3889 7.31354 57.4953 6.40568C55.8976 8.72995 53.9 10.8 51.6119 12.4708Z" fill="black"/>
</svg>
