<svg width="1109" height="305" viewBox="0 0 1109 305" fill="none" xmlns="http://www.w3.org/2000/svg">
<path d="M7.9071 184.946V119.649H29.9704C35.093 119.649 39.2804 120.573 42.5325 122.422C45.8059 124.25 48.229 126.727 49.8019 129.851C51.3749 132.976 52.1613 136.462 52.1613 140.309C52.1613 144.156 51.3749 147.653 49.8019 150.799C48.2503 153.945 45.8484 156.453 42.5963 158.323C39.3442 160.172 35.1781 161.097 30.098 161.097H14.2838V154.083H29.8429C33.3501 154.083 36.1665 153.477 38.292 152.265C40.4176 151.054 41.9586 149.417 42.9151 147.355C43.8929 145.272 44.3818 142.924 44.3818 140.309C44.3818 137.695 43.8929 135.357 42.9151 133.295C41.9586 131.233 40.407 129.618 38.2601 128.448C36.1133 127.258 33.2651 126.663 29.7154 126.663H15.8142V184.946H7.9071ZM83.2477 185.966C78.8265 185.966 74.9474 184.914 71.6102 182.81C68.2943 180.705 65.7012 177.762 63.8307 173.978C61.9814 170.195 61.0568 165.773 61.0568 160.715C61.0568 155.613 61.9814 151.16 63.8307 147.355C65.7012 143.551 68.2943 140.596 71.6102 138.492C74.9474 136.387 78.8265 135.335 83.2477 135.335C87.6688 135.335 91.5374 136.387 94.8533 138.492C98.1904 140.596 100.784 143.551 102.633 147.355C104.503 151.16 105.439 155.613 105.439 160.715C105.439 165.773 104.503 170.195 102.633 173.978C100.784 177.762 98.1904 180.705 94.8533 182.81C91.5374 184.914 87.6688 185.966 83.2477 185.966ZM83.2477 179.207C86.6061 179.207 89.3693 178.346 91.5374 176.624C93.7054 174.903 95.3102 172.639 96.3518 169.833C97.3933 167.027 97.9141 163.988 97.9141 160.715C97.9141 157.441 97.3933 154.391 96.3518 151.564C95.3102 148.737 93.7054 146.452 91.5374 144.709C89.3693 142.966 86.6061 142.095 83.2477 142.095C79.8893 142.095 77.1261 142.966 74.958 144.709C72.7899 146.452 71.1851 148.737 70.1436 151.564C69.1021 154.391 68.5813 157.441 68.5813 160.715C68.5813 163.988 69.1021 167.027 70.1436 169.833C71.1851 172.639 72.7899 174.903 74.958 176.624C77.1261 178.346 79.8893 179.207 83.2477 179.207ZM126.354 184.946L111.433 135.973H119.34L129.925 173.468H130.435L140.893 135.973H148.928L159.258 173.34H159.768L170.353 135.973H178.26L163.339 184.946H155.942L145.229 147.323H144.464L133.751 184.946H126.354ZM207.075 185.966C202.356 185.966 198.286 184.925 194.864 182.842C191.463 180.737 188.838 177.804 186.988 174.042C185.16 170.258 184.246 165.858 184.246 160.842C184.246 155.826 185.16 151.405 186.988 147.579C188.838 143.731 191.41 140.734 194.704 138.587C198.02 136.419 201.889 135.335 206.31 135.335C208.86 135.335 211.379 135.76 213.866 136.611C216.353 137.461 218.617 138.842 220.657 140.755C222.698 142.647 224.324 145.155 225.536 148.28C226.747 151.405 227.353 155.252 227.353 159.822V163.01H189.603V156.506H219.701C219.701 153.743 219.148 151.277 218.043 149.109C216.959 146.941 215.407 145.23 213.388 143.976C211.39 142.722 209.031 142.095 206.31 142.095C203.313 142.095 200.72 142.839 198.53 144.326C196.362 145.793 194.694 147.706 193.525 150.065C192.355 152.425 191.771 154.954 191.771 157.654V161.99C191.771 165.688 192.409 168.824 193.684 171.395C194.981 173.946 196.777 175.891 199.072 177.23C201.368 178.548 204.035 179.207 207.075 179.207C209.052 179.207 210.837 178.931 212.431 178.378C214.047 177.804 215.439 176.954 216.608 175.827C217.777 174.679 218.681 173.255 219.318 171.555L226.588 173.595C225.822 176.061 224.537 178.229 222.73 180.1C220.923 181.949 218.691 183.394 216.034 184.436C213.377 185.456 210.391 185.966 207.075 185.966ZM238.799 184.946V135.973H246.068V143.37H246.579C247.471 140.947 249.087 138.981 251.425 137.471C253.763 135.962 256.399 135.208 259.332 135.208C259.885 135.208 260.575 135.218 261.404 135.24C262.233 135.261 262.86 135.293 263.286 135.335V142.987C263.03 142.924 262.446 142.828 261.532 142.7C260.639 142.552 259.693 142.477 258.694 142.477C256.314 142.477 254.188 142.977 252.318 143.976C250.468 144.953 249.002 146.314 247.918 148.057C246.855 149.778 246.324 151.745 246.324 153.955V184.946H238.799ZM291.247 185.966C286.529 185.966 282.458 184.925 279.036 182.842C275.635 180.737 273.01 177.804 271.161 174.042C269.333 170.258 268.419 165.858 268.419 160.842C268.419 155.826 269.333 151.405 271.161 147.579C273.01 143.731 275.582 140.734 278.877 138.587C282.192 136.419 286.061 135.335 290.482 135.335C293.033 135.335 295.552 135.76 298.038 136.611C300.525 137.461 302.789 138.842 304.83 140.755C306.87 142.647 308.496 145.155 309.708 148.28C310.919 151.405 311.525 155.252 311.525 159.822V163.01H273.775V156.506H303.873C303.873 153.743 303.321 151.277 302.215 149.109C301.131 146.941 299.58 145.23 297.56 143.976C295.562 142.722 293.203 142.095 290.482 142.095C287.485 142.095 284.892 142.839 282.703 144.326C280.534 145.793 278.866 147.706 277.697 150.065C276.528 152.425 275.943 154.954 275.943 157.654V161.99C275.943 165.688 276.581 168.824 277.856 171.395C279.153 173.946 280.949 175.891 283.245 177.23C285.54 178.548 288.208 179.207 291.247 179.207C293.224 179.207 295.01 178.931 296.604 178.378C298.219 177.804 299.611 176.954 300.78 175.827C301.95 174.679 302.853 173.255 303.491 171.555L310.76 173.595C309.995 176.061 308.709 178.229 306.902 180.1C305.095 181.949 302.864 183.394 300.207 184.436C297.55 185.456 294.563 185.966 291.247 185.966ZM341.464 185.966C337.383 185.966 333.78 184.935 330.655 182.873C327.531 180.79 325.086 177.857 323.322 174.074C321.558 170.269 320.676 165.773 320.676 160.587C320.676 155.443 321.558 150.979 323.322 147.196C325.086 143.412 327.541 140.49 330.687 138.428C333.833 136.366 337.468 135.335 341.591 135.335C344.78 135.335 347.298 135.867 349.148 136.929C351.018 137.971 352.442 139.161 353.42 140.5C354.419 141.818 355.195 142.902 355.748 143.753H356.385V119.649H363.91V184.946H356.64V177.421H355.748C355.195 178.314 354.408 179.441 353.388 180.801C352.368 182.14 350.912 183.341 349.02 184.404C347.128 185.445 344.61 185.966 341.464 185.966ZM342.484 179.207C345.502 179.207 348.053 178.42 350.136 176.848C352.219 175.253 353.803 173.053 354.887 170.248C355.971 167.421 356.513 164.158 356.513 160.459C356.513 156.803 355.981 153.604 354.919 150.863C353.856 148.099 352.283 145.952 350.2 144.422C348.117 142.87 345.545 142.095 342.484 142.095C339.296 142.095 336.639 142.913 334.513 144.55C332.409 146.165 330.825 148.365 329.763 151.149C328.721 153.913 328.2 157.016 328.2 160.459C328.2 163.945 328.732 167.112 329.794 169.961C330.878 172.788 332.473 175.041 334.577 176.72C336.702 178.378 339.338 179.207 342.484 179.207ZM405.007 184.946V119.649H412.532V143.753H413.17C413.722 142.902 414.487 141.818 415.465 140.5C416.464 139.161 417.888 137.971 419.738 136.929C421.608 135.867 424.138 135.335 427.326 135.335C431.449 135.335 435.084 136.366 438.23 138.428C441.376 140.49 443.831 143.412 445.595 147.196C447.359 150.979 448.241 155.443 448.241 160.587C448.241 165.773 447.359 170.269 445.595 174.074C443.831 177.857 441.386 180.79 438.262 182.873C435.137 184.935 431.534 185.966 427.453 185.966C424.308 185.966 421.789 185.445 419.897 184.404C418.005 183.341 416.549 182.14 415.529 180.801C414.509 179.441 413.722 178.314 413.17 177.421H412.277V184.946H405.007ZM412.404 160.459C412.404 164.158 412.946 167.421 414.03 170.248C415.114 173.053 416.698 175.253 418.781 176.848C420.864 178.42 423.415 179.207 426.433 179.207C429.579 179.207 432.204 178.378 434.308 176.72C436.434 175.041 438.028 172.788 439.091 169.961C440.175 167.112 440.717 163.945 440.717 160.459C440.717 157.016 440.186 153.913 439.123 151.149C438.081 148.365 436.498 146.165 434.372 144.55C432.268 142.913 429.621 142.095 426.433 142.095C423.372 142.095 420.8 142.87 418.717 144.422C416.634 145.952 415.061 148.099 413.999 150.863C412.936 153.604 412.404 156.803 412.404 160.459ZM462.844 203.311C461.569 203.311 460.431 203.205 459.432 202.992C458.433 202.801 457.743 202.609 457.36 202.418L459.273 195.786C461.101 196.254 462.716 196.424 464.119 196.296C465.522 196.169 466.766 195.542 467.85 194.415C468.955 193.31 469.965 191.514 470.879 189.027L472.282 185.201L454.172 135.973H462.334L475.852 174.998H476.363L489.881 135.973H498.043L477.255 192.088C476.32 194.617 475.162 196.711 473.78 198.369C472.398 200.048 470.794 201.292 468.966 202.099C467.159 202.907 465.118 203.311 462.844 203.311Z" fill="black"/>
<g clip-path="url(#clip0_1492_4427)">
<path d="M585.845 153.234C582.11 146.591 578.621 140.35 573.634 133.943C570.81 130.315 568.136 126.344 567.774 121.761C567.39 116.908 573.529 114.557 574.551 119.916C575.537 125.087 575.099 130.329 577.361 135.26C578.441 137.613 580.478 139.217 582.997 138.101C587.347 136.171 583.201 130.33 581.96 127.813C579.93 123.7 579.654 119.387 579.183 114.947C578.844 111.754 577.585 108.591 575.305 106.288C572.564 103.519 569.05 102.825 565.369 104.107C559.594 106.119 548.517 117.3 563.222 135.059C566.143 138.586 569.834 141.384 573.275 144.406C579.049 149.477 583.817 155.174 586.192 162.228C588.645 169.511 589.141 178.17 584.283 184.124C578.175 191.613 571.365 189.148 567.71 185.619C562.689 180.773 564.451 176.659 563.319 170.606C562.705 167.324 561.074 164.269 559.015 161.642C557.553 159.778 555.109 158.081 552.966 159.09C550.899 160.062 550.579 163.011 551.52 165.092C552.462 167.174 554.256 168.725 555.61 170.563C556.644 171.966 558.771 175.485 558.3 180.375C557.879 184.749 558.672 189.462 560.804 193.356C567.39 205.393 583.339 204.46 589.402 185.559C594.352 170.13 588.809 158.507 585.845 153.236V153.234Z" fill="black"/>
<path d="M662.762 118.674C661.462 117.506 660.838 115.705 660.856 113.957C660.874 112.21 661.478 110.51 662.318 108.976C663.361 107.071 664.826 105.331 666.761 104.344C668.695 103.356 671.143 103.227 672.997 104.36C674.851 105.492 675.858 108.005 674.972 109.988C674.102 111.936 672.302 112.1 670.878 113.361C669.611 114.484 669.935 114.955 669.585 116.457C668.83 119.689 665.382 121.028 662.763 118.674H662.762Z" fill="black"/>
<path d="M678.726 121.573C676.176 120.467 673.368 122.543 671.72 124.783C668.144 129.642 666.261 135.37 666.274 141.412C666.29 149.331 669.535 156.683 672.317 163.943C674.924 170.746 674.86 178.092 671.885 184.819C670.382 188.215 667.323 190.618 665.921 194.046C664.907 196.526 665.408 199.972 667.873 201.023C670.43 202.114 673.262 200.046 674.859 197.77C681.724 187.986 677.482 169.907 675.638 164.633C667.128 140.283 678.393 134.111 680.635 128.562C681.639 126.077 681.184 122.639 678.726 121.573V121.573Z" fill="black"/>
<path d="M629.741 122.342C625.597 104.333 613.158 102.374 607.541 104.131C593.838 108.418 592.521 122.912 594.945 132.424C598.657 146.994 610.773 145.996 614.937 143.396C618.273 141.313 619.297 137.507 620.917 138.691C623.143 140.318 618.484 145.465 617.688 146.319C608.746 155.909 599.702 161.898 597.035 180.186C596.248 185.584 597.558 192.156 600.186 196.946C600.995 198.419 603.583 202.73 607.193 200.971C611.393 198.925 609.503 193.945 608.758 192.393C608.012 190.841 603.956 184.589 603.481 179.375C601.512 157.784 619.661 153.93 626.098 145.395C632.704 136.637 630.848 127.157 629.74 122.342H629.741ZM610.886 120.31C610.637 120.717 610.446 121.08 610.305 121.427C609.917 122.384 609.915 123.215 610.138 124.484C610.737 127.878 608.427 131.028 604.714 129.833C602.988 129.277 601.635 127.836 600.913 126.173C600.19 124.51 600.043 122.645 600.189 120.837C600.369 118.592 601.02 116.324 602.434 114.571C603.849 112.817 606.112 111.658 608.346 111.946C610.58 112.234 612.598 114.186 612.598 116.438C612.598 117.965 611.639 119.078 610.885 120.309L610.886 120.31Z" fill="black"/>
<path d="M718.06 159.605C711.624 151.072 693.821 147.218 695.791 125.626C696.266 120.413 699.974 114.159 700.72 112.607C701.465 111.056 703.356 106.077 699.156 104.029C695.545 102.27 692.957 106.581 692.149 108.055C689.52 112.844 688.21 119.416 688.998 124.814C691.665 143.104 700.71 149.091 709.651 158.681C710.448 159.536 715.106 164.683 712.88 166.31C711.26 167.494 710.236 163.687 706.9 161.605C702.735 159.005 690.619 158.007 686.907 172.576C684.483 182.089 685.801 196.583 699.504 200.87C705.119 202.626 717.56 200.667 721.704 182.659C722.812 177.844 724.668 168.364 718.061 159.605H718.06ZM704.559 188.561C704.559 190.814 702.542 192.766 700.307 193.054C698.073 193.342 695.81 192.183 694.396 190.429C692.982 188.676 692.331 186.407 692.15 184.162C692.005 182.355 692.151 180.49 692.874 178.827C693.597 177.164 694.95 175.723 696.675 175.167C700.387 173.971 702.698 177.121 702.1 180.515C701.875 181.784 701.878 182.615 702.266 183.573C702.407 183.919 702.598 184.283 702.848 184.69C703.602 185.92 704.562 187.034 704.561 188.56L704.559 188.561Z" fill="black"/>
<path d="M652.57 134.351C652.254 132.277 652.091 129.654 652.11 127.533C652.144 123.925 650.62 121.183 647.746 121.106C643.698 120.998 642.936 124.402 642.839 125.831C642.634 128.849 643.439 131.313 644.741 134.043C647.096 138.984 651.884 145.691 653.898 150.822C656.389 157.164 656.871 163.309 655.683 169.898C654.067 178.854 648.627 190.201 637.886 189.877C636.247 189.827 634.451 189.18 633.184 188.179C631.073 186.513 629.475 183.562 628.967 180.913C627.87 175.202 630.5 169.537 631.559 164.034C632.295 160.216 631.174 153.795 625.895 154.165C622.46 154.406 620.56 158.293 620.027 161.695C619.057 167.884 619.19 174.169 619.978 180.377C620.743 186.418 623.363 192.448 627.381 196.726C632.081 201.73 640.182 202.626 646.201 199.351C652.226 196.074 657.005 189.051 659.204 180.791C661.17 173.407 661.022 164.795 658.883 157.414C657.8 153.671 656.679 149.939 655.625 146.188C654.46 142.049 653.217 138.613 652.568 134.351H652.57Z" fill="black"/>
</g>
<path d="M773.373 180.482V138.396H780.515V180.482H773.373ZM755.901 163.01V155.868H797.987V163.01H755.901Z" fill="black"/>
<path d="M915.996 147.29L936.038 127.359L928.435 119.797L912.196 135.948L895.955 119.797L888.352 127.359L908.394 147.29C909.444 148.334 910.819 148.856 912.195 148.856C913.571 148.856 914.947 148.335 915.996 147.29V147.29ZM945.009 168.583L928.77 152.433L945.009 136.281L937.406 128.72L917.365 148.652C915.266 150.74 915.266 154.125 917.365 156.213L937.406 176.145L945.009 168.584V168.583ZM912.167 168.944L928.407 185.095L936.01 177.533L915.969 157.601C913.869 155.513 910.466 155.513 908.366 157.601L888.325 177.533L895.928 185.095L912.167 168.944V168.944ZM906.997 156.24C908.006 155.237 908.572 153.878 908.572 152.46C908.572 151.042 908.006 149.682 906.997 148.679L886.956 128.747L879.353 136.308L895.593 152.459L879.353 168.611L886.956 176.172L906.998 156.24L906.997 156.24ZM879.082 182.472H862.228L861.014 174.85H850.026L848.696 182.472H831.843L846.351 122.42H866.295L879.083 182.472H879.082ZM859.099 161.976L858.043 154.975C858.014 154.95 857.965 154.599 857.886 153.923C857.834 153.355 857.56 151.098 857.065 147.158C857.012 146.717 856.948 146.115 856.869 145.349C856.791 144.584 856.687 143.617 856.557 142.45L856.045 136.774C855.996 137.319 855.923 137.928 855.832 138.602C855.741 139.276 855.643 140.014 855.539 140.819C855.356 142.426 855.226 143.542 855.148 144.164C855.067 144.784 855.018 145.162 854.992 145.292L853.858 152.562L852.215 161.976H859.098L859.099 161.976ZM979.813 182.472V168.044H965.814V158.864H978.365V145.292H965.814V136.542H979.813V122.421H949.506V182.472H979.813ZM1011.89 168.044H999.647V122.421H983.339V182.472H1011.89V168.044V168.044ZM1061.96 182.472H1045.11L1043.89 174.85H1032.91L1031.58 182.472H1014.72L1029.23 122.42H1049.18L1061.96 182.472H1061.96ZM1041.98 161.976L1040.92 154.975C1040.9 154.95 1040.84 154.599 1040.77 153.923C1040.72 153.355 1040.44 151.098 1039.94 147.158C1039.89 146.717 1039.83 146.114 1039.75 145.349C1039.67 144.584 1039.57 143.617 1039.44 142.449L1038.93 136.773C1038.88 137.318 1038.8 137.927 1038.71 138.602C1038.62 139.276 1038.52 140.014 1038.42 140.819C1038.24 142.425 1038.11 143.541 1038.03 144.163C1037.95 144.783 1037.9 145.161 1037.87 145.291L1036.74 152.561L1035.09 161.975H1041.98L1041.98 161.976ZM1108.42 182.472H1090.78L1082.73 161.082C1082.65 160.718 1082.51 160.239 1082.32 159.642C1082.12 159.046 1081.88 158.334 1081.59 157.503L1081.71 161.471V182.472H1065.48V122.42H1082.18C1089.53 122.42 1095.03 123.861 1098.69 126.739C1103.32 130.421 1105.64 135.659 1105.64 142.449C1105.64 149.711 1102.53 154.729 1096.3 157.503L1108.42 182.472H1108.42ZM1089.45 142.644C1089.45 138.161 1087.1 135.918 1082.38 135.918H1081.79V150.228H1082.89C1084.76 150.228 1086.33 149.517 1087.58 148.089C1088.83 146.665 1089.45 144.85 1089.45 142.644Z" fill="black"/>
<defs>
<clipPath id="clip0_1492_4427">
<rect width="171.897" height="97.9459" fill="white" transform="translate(550.973 103.473)"/>
</clipPath>
</defs>
</svg>
