<svg width="256" height="256" viewBox="0 0 256 256" fill="none" xmlns="http://www.w3.org/2000/svg">
<circle cx="128" cy="128" r="127" fill="url(#paint0_linear_741_46)"/>
<path d="M77.4393 136.96L82.5171 98.707L38.413 68.0952L78.6966 81.7327L88.2235 67.128L122.994 45.5596L199.644 87.7776L203.61 152.193L169.516 199.634L142.532 203.744L156.508 178.21V153.595L146.352 134.396L136.051 127.578L120.189 143.923V161.236L107.809 172.842L92.0923 174.729L85.1285 178.694L73.7156 175.067L68.9763 157.948L77.536 145.906V136.96H77.4393Z" fill="white"/>
<path d="M147.899 67.8049C139.485 66.0639 130.297 66.5475 130.297 66.5475C130.297 66.5475 127.298 80.5235 108.535 84.1505C108.728 84.1505 133.295 92.5651 147.899 67.8049ZM155.54 194.411C165.696 186.48 173.337 175.55 176.819 163.17C176.964 162.687 178.415 161.913 179.333 161.284C180.929 160.317 182.525 159.543 182.815 158.286C183.444 154.659 183.782 150.839 183.782 147.018C183.782 145.567 182.332 144.165 180.929 142.714C179.817 141.747 178.705 140.635 178.705 139.861C177.109 125.401 170.435 111.909 159.844 102.092L158.732 103.204C169.033 112.876 175.706 126.03 177.157 140.006C177.302 141.263 178.608 142.521 179.865 143.826C180.978 144.794 182.235 146.196 182.235 146.825C182.235 150.452 181.896 154.127 181.268 157.754C181.123 158.383 179.672 159.011 178.56 159.64C176.964 160.414 175.561 161.236 175.223 162.493C171.402 175.986 162.698 187.737 151.091 195.33C153.171 190.88 159.651 176.469 163.133 169.167L162.504 145.664L142.338 126.127L130.925 127.723L118.4 148.034C118.4 148.034 124.252 155.481 116.03 164.234C107.954 172.794 101.571 174.728 101.571 174.728L95.7193 171.537C97.4603 169.312 100.942 165.975 103.65 163.751C108.244 159.93 112.839 159.64 112.839 155.481C112.984 146.921 103.795 149.291 103.795 149.291L100.459 152.483L99.0078 164.234L92.044 172.939L91.2702 172.794L79.8573 170.279C79.8573 170.279 86.8211 166.652 87.9334 162.493C89.0457 158.528 85.7088 145.374 85.5637 144.552C85.7088 144.697 88.9006 147.405 90.303 151.854C92.8177 144.89 96.1545 138.217 97.1217 137.588C98.0889 136.959 110.904 130.141 110.904 130.141L106.6 141.408L109.792 139.667L117.433 120.952C117.433 120.952 124.88 117.325 130.442 117.325C140.452 117.18 155.202 104.945 148.528 83.0382C150.414 83.812 183.444 100.351 189.15 132.704C193.454 157.609 179.333 180.918 155.54 194.411Z" fill="#94A6C3"/>
<path d="M117.771 71.2866C121.398 66.9826 119.996 60.6475 119.996 60.6475L109.357 76.3644C109.212 76.3644 113.177 76.5095 117.771 71.2866ZM82.0819 157.125L83.3392 150.79C83.3392 150.79 78.1164 159.978 77.6328 161.284C77.1492 162.735 77.9713 165.25 80.0024 165.105C82.0819 164.959 84.5966 161.913 84.5966 159.688C84.5966 156.835 82.0819 157.125 82.0819 157.125Z" fill="#1B314F"/>
<path d="M176.335 56.1988C176.335 56.1988 184.266 56.5373 192.536 57.4561C173.965 42.8515 156.362 38.5958 142.096 38.5958C122.414 38.5958 109.115 46.6719 108.293 47.1555L114.483 37.3385C114.483 37.3385 89.7227 34.9688 81.0179 61.1315C78.7934 55.5701 76.7139 47.494 76.7139 47.494C76.7139 47.494 63.8502 58.7618 69.8952 77.4771C55.0971 72.0608 33.9639 64.6134 33.1901 64.4683C32.0779 64.3232 31.7393 64.8068 31.7393 64.8068C31.7393 64.8068 31.4008 65.2904 32.368 66.0642C34.109 67.5149 67.4288 92.0817 74.7312 96.8693C73.1353 102.576 73.1353 105.284 74.7312 107.992C76.9557 111.619 77.1008 113.553 76.8106 116.262C76.4721 118.97 73.6189 142.279 72.9902 145.132C72.3615 147.986 65.6879 158.141 66.0264 161.139C66.3649 164.138 70.4755 177.001 74.1025 178.452C76.8106 179.419 83.4843 181.451 87.885 181.451C89.4809 181.451 90.8833 181.112 91.512 180.483C94.2202 178.114 94.9939 177.63 96.9283 177.63H97.4119C98.1857 177.63 99.1529 177.775 100.265 177.775C102.78 177.775 106.117 177.292 108.535 175.067C112.017 171.585 118.062 166.798 119.948 164.573C122.317 161.575 123.575 157.416 122.946 153.305C122.462 149.485 124.542 146.148 126.911 142.811C129.91 138.846 135.471 131.688 135.471 131.688C146.4 139.958 153.267 152.483 153.267 166.459C153.267 191.219 131.699 211.192 105.053 211.192C100.942 211.192 96.9767 210.708 93.0112 209.741C105.246 214.045 115.547 215.447 123.961 215.447C141.903 215.447 151.43 208.919 151.43 208.919C151.43 208.919 148.093 213.223 142.725 218.107H142.87C172.563 213.997 186.974 189.527 186.974 189.527C186.974 189.527 185.862 197.458 184.459 202.874C223.969 173.181 217.296 136.089 217.151 134.783C217.489 135.267 221.455 140.006 223.486 142.569C229.773 77.332 176.335 56.1988 176.335 56.1988ZM115.547 160.607C114.918 161.381 112.21 163.799 110.324 165.54C108.438 167.281 106.358 169.022 104.763 170.618C104.134 171.247 102.877 171.585 100.942 171.585H96.1546C98.5242 168.393 105.536 161.091 107.906 159.544C110.759 157.658 112.21 155.723 110.421 152.386C108.68 149.05 104.086 149.872 104.086 149.872C104.086 149.872 106.794 148.759 109.163 148.759C106.165 147.986 102.345 148.759 100.604 150.5C98.7176 152.241 99.0078 158.431 98.234 162.397C97.4603 166.507 94.7521 168.587 90.5932 172.407C88.3686 174.487 86.7728 175.115 85.5154 175.115C82.8073 174.632 79.6639 173.858 77.4393 173.036C75.8434 170.956 73.4738 164.138 72.8451 161.285C73.3287 159.689 75.2148 156.352 76.182 154.466C78.068 150.839 79.1803 148.759 79.5188 146.825C80.1475 144.117 82.2269 127.481 83.0007 120.469C85.0802 123.177 87.9334 127.626 87.3047 130.479C91.8989 123.951 88.5621 117.616 86.9662 115.101C85.5154 112.586 83.6294 107.46 85.2252 102.092C86.8211 96.6759 92.5276 81.7811 92.5276 81.7811C92.5276 81.7811 94.4136 85.1179 97.1217 84.4892C99.8299 83.8605 121.543 51.1693 121.543 51.1693C121.543 51.1693 127.395 64.033 121.205 73.3665C114.87 82.7483 108.68 84.4892 108.68 84.4892C108.68 84.4892 117.384 86.0851 125.509 80.1852C128.846 87.9711 132.037 96.0472 132.183 97.1595C131.699 98.2718 125.364 113.505 124.735 114.472C124.397 114.811 122.22 115.439 120.625 115.73C117.916 116.503 116.321 116.987 115.692 117.471C114.58 118.438 109.502 132.365 107.132 139.232C104.279 140.006 101.426 141.602 99.3463 144.794C100.459 144.02 103.94 143.536 106.504 143.198C108.728 143.053 115.547 146.68 117.288 153.499V153.837C117.626 156.352 116.804 158.721 115.547 160.607ZM100.652 162.542C102.103 160.462 101.909 156.981 102.103 155.868C102.296 154.756 102.586 152.676 103.844 152.386C105.101 152.048 108.148 152.531 108.148 154.756C108.148 156.835 105.923 157.271 104.327 158.721C103.167 159.834 100.942 162.203 100.652 162.542ZM163.955 132.22C165.551 124.144 165.696 117.132 165.212 111.426C171.402 119.695 175.223 129.657 176.335 140.006C176.48 141.264 177.786 142.521 179.043 143.827C180.155 144.794 181.413 146.051 181.413 146.825C181.413 150.452 181.074 154.127 180.446 157.754C180.301 158.238 178.85 159.012 177.737 159.64C176.142 160.414 174.739 161.236 174.401 162.494C170.919 174.729 163.471 185.513 153.461 193.105C168.211 177.775 175.368 152.386 163.955 132.22ZM153.944 194.604C164.245 186.673 172.176 175.551 175.706 163.025C175.851 162.542 177.302 161.768 178.221 161.139C179.817 160.366 181.413 159.398 181.703 158.141C182.332 154.514 182.67 150.694 182.67 146.873C182.67 145.423 181.219 144.02 179.817 142.569C179.043 141.602 177.737 140.49 177.737 139.716C176.48 128.11 171.886 117.18 164.729 108.137C161.537 89.0834 148.867 83.2319 148.528 83.0868C148.867 83.5704 157.088 95.4669 151.381 109.443C145.53 123.564 130.442 121.339 129.184 121.484C127.927 121.484 122.994 127.82 116.804 139.571C116.03 139.232 112.694 138.459 108.873 139.087C111.726 131.156 116.03 119.889 116.804 118.921C117.143 118.583 119.512 117.954 121.108 117.471C124.106 116.697 125.557 116.213 126.041 115.585C126.379 115.101 127.927 111.474 129.523 107.654C130.974 107.654 134.601 107.315 134.939 107.17C135.278 106.831 138.276 99.0939 138.276 98.1267C138.276 97.3529 132.086 81.9262 129.716 76.0746C130.828 74.8173 131.941 73.2214 133.053 71.4804C165.599 74.9623 190.988 102.576 190.988 136.041C190.94 161.72 175.851 184.11 153.944 194.604Z" fill="#1B314F"/>
<path d="M111.726 108.911C114.725 105.429 113.177 98.9006 107.616 97.7883C109.067 94.4515 111.098 87.7778 111.098 87.7778C111.098 87.7778 94.8972 113.167 93.4948 113.65C92.044 114.134 90.6415 108.573 90.6415 108.573C87.6432 120.179 95.7193 121.726 96.6865 118.099C101.087 116.987 108.728 112.248 111.726 108.911Z" fill="#1B314F"/>
<path d="M97.9438 115.101L106.213 100.98C106.213 100.98 110.953 103.35 108.583 107.17C105.536 111.571 97.9438 115.101 97.9438 115.101Z" fill="#FFD923"/>
<path d="M199.983 180.483C197.613 183.675 194.905 187.012 191.713 190.155C212.17 150.791 192.681 114.763 191.858 113.36C193.309 114.811 194.712 116.358 195.969 117.809C211.686 135.219 213.62 161.43 199.983 180.483ZM218.988 129.851C211.831 110.652 201.676 94.3063 179.333 79.5566C157.765 65.2905 134.601 66.4027 133.295 66.5478H132.956C133.73 66.2093 134.552 66.0642 135.326 65.9192C140.259 64.3233 146.594 63.0659 152.929 62.2922C169.758 59.9225 186.732 65.629 198.29 77.864L198.629 78.2025C211.879 92.0818 218.698 109.54 218.988 129.851ZM174.256 51.3145C150.608 46.8654 135.374 49.09 124.445 53.2005C124.106 51.9432 122.994 49.3801 122.075 47.349C118.739 51.3145 115.257 56.0538 113.032 59.1004C106.987 63.211 104.472 67.1765 104.472 67.1765C107.954 55.28 118.11 46.3818 130.49 44.1573C133.972 43.5286 137.792 43.1901 141.903 43.1901C152.832 43.3835 163.761 46.0433 174.256 51.3145ZM86.8211 81.7812C68.2509 81.1525 74.441 59.584 74.7795 58.2783C74.7795 58.4234 76.0369 75.2526 86.8211 81.7812ZM105.053 42.8999C90.7866 51.4596 93.6398 71.9158 93.6398 71.9158C80.0023 51.1211 103.94 43.3835 105.053 42.8999Z" fill="#D82122"/>
<path d="M81.5982 87.487C82.5654 88.2607 83.4842 89.7115 82.372 91.791C81.7433 92.9032 80.7761 92.7582 79.3737 92.1295C77.4876 91.1623 66.0264 84.4886 55.7257 77.6699C67.4772 81.7805 79.3737 86.2296 81.2597 87.1968C81.2597 87.1484 81.4531 87.2935 81.5982 87.487Z" fill="white"/>
<defs>
<linearGradient id="paint0_linear_741_46" x1="255" y1="0.999992" x2="1.00001" y2="221" gradientUnits="userSpaceOnUse">
<stop stop-color="#D6A3A3"/>
<stop offset="0.465" stop-color="#D82122"/>
<stop offset="1" stop-color="#1B314F"/>
</linearGradient>
</defs>
</svg>
