<svg width="256" height="256" viewBox="0 0 256 256" fill="none" xmlns="http://www.w3.org/2000/svg">
<mask id="mask0_1252_702" style="mask-type:luminance" maskUnits="userSpaceOnUse" x="0" y="0" width="256" height="256">
<path d="M256 0H0V256H256V0Z" fill="white"/>
</mask>
<g mask="url(#mask0_1252_702)">
<path d="M256 128C256 198.693 198.693 256 128 256C57.3075 256 0 198.693 0 128C0 57.3075 57.3075 0 128 0C198.693 0 256 57.3075 256 128Z" fill="#604EFF"/>
<path fill-rule="evenodd" clip-rule="evenodd" d="M178.823 99.4704L119.53 121.52V184.866C119.53 195.562 107.425 202.876 96.2968 198.904L69.3118 189.27C65.074 187.758 60.8374 184.308 58.1247 180.614C56.4486 178.333 56 175.561 56 172.832V100.741C56 93.1112 61.1403 86.2296 69.0317 83.2952L140.054 56.8841C148.423 53.7718 157.647 59.2598 157.647 67.3516V86.8704L182.407 77.6627C190.777 74.5505 200 80.0384 200 88.1304V154.626C200 165.322 187.895 172.637 176.767 168.664L149.782 159.03C141.742 156.161 136.47 149.211 136.47 141.482V122.946L157.647 115.284V141.482L178.823 149.042V99.4704ZM98.3528 179.282V139.158V121.52C98.3528 113.89 103.494 107.008 111.385 104.074L136.47 94.7448V78.6914L77.1765 100.741V171.722L98.3528 179.282Z" fill="white"/>
</g>
</svg>
