<svg width="256" height="256" viewBox="0 0 256 256" fill="none" xmlns="http://www.w3.org/2000/svg">
<g clip-path="url(#clip0_2415_1171)">
<path d="M128 256C198.692 256 256 198.692 256 128C256 57.3076 198.692 0 128 0C57.3076 0 0 57.3076 0 128C0 198.692 57.3076 256 128 256Z" fill="#9391F7"/>
<path d="M104.204 134.243C115.18 132.461 122.633 122.118 120.852 111.142C119.07 100.166 108.728 92.7133 97.7518 94.4942C86.7761 96.2761 79.3229 106.618 81.1038 117.595C82.8857 128.57 93.2285 136.024 104.204 134.243ZM156.828 134.243C167.804 132.461 175.257 122.118 173.475 111.142C171.695 100.166 161.352 92.7133 150.376 94.4942C139.4 96.2761 131.946 106.618 133.728 117.595C135.51 128.57 145.852 136.024 156.828 134.243Z" fill="white"/>
<path d="M127.257 31.2561C72.5884 31.2561 28.2652 76.423 28.2803 132.121H53.5658C53.5658 90.38 86.2965 56.5366 127.257 56.5366C168.217 56.5366 200.948 90.38 200.948 132.121H226.234C226.243 76.423 181.921 31.2561 127.257 31.2561Z" fill="white"/>
</g>
<defs>
<clipPath id="clip0_2415_1171">
<rect width="256" height="256" fill="white"/>
</clipPath>
</defs>
</svg>
