<svg width="256" height="256" viewBox="0 0 256 256" fill="none" xmlns="http://www.w3.org/2000/svg">
<g clip-path="url(#clip0_2702_42)">
<mask id="mask0_2702_42" style="mask-type:luminance" maskUnits="userSpaceOnUse" x="0" y="0" width="256" height="256">
<path d="M256 0H0V256H256V0Z" fill="white"/>
</mask>
<g mask="url(#mask0_2702_42)">
<path d="M128 256C198.692 256 256 198.692 256 128C256 57.3076 198.692 0 128 0C57.3076 0 0 57.3076 0 128C0 198.692 57.3076 256 128 256Z" fill="#9391F7"/>
<path d="M104.205 134.243C115.181 132.461 122.634 122.118 120.853 111.142C119.071 100.166 108.729 92.7135 97.7528 94.4944C86.7771 96.2763 79.3239 106.618 81.1048 117.595C82.8867 128.57 93.2295 136.024 104.205 134.243ZM156.829 134.243C167.805 132.461 175.258 122.118 173.476 111.142C171.696 100.166 161.353 92.7135 150.377 94.4944C139.401 96.2763 131.947 106.618 133.729 117.595C135.511 128.57 145.853 136.024 156.829 134.243Z" fill="white"/>
<path d="M127.258 31.2559C72.5894 31.2559 28.2662 76.4228 28.2813 132.121H53.5668C53.5668 90.3798 86.2975 56.5364 127.258 56.5364C168.218 56.5364 200.949 90.3798 200.949 132.121H226.235C226.244 76.4228 181.922 31.2559 127.258 31.2559Z" fill="white"/>
</g>
</g>
<defs>
<clipPath id="clip0_2702_42">
<rect width="256" height="256" fill="white"/>
</clipPath>
</defs>
</svg>
