<svg width="256" height="256" viewBox="0 0 256 256" fill="none" xmlns="http://www.w3.org/2000/svg">
<g clip-path="url(#clip0_2005_1541)">
<path d="M256 128C256 57.3075 198.692 0 128 0C57.3075 0 0 57.3075 0 128C0 198.692 57.3075 256 128 256C198.692 256 256 198.692 256 128Z" fill="white"/>
<path d="M86.0647 114.201V188.334H43.3984L86.0647 114.201Z" fill="#0059DA"/>
<path d="M170.334 114.201V188.334H213L170.334 114.201Z" fill="#0059DA"/>
<path d="M131.135 130.734C139.402 130.201 147.135 131.267 152.468 133.667V83.2681L127.935 40.6021L103.669 83.2681V141.401C108.202 137.134 119.402 131.801 131.135 130.734Z" fill="#0059DA"/>
<path d="M152.733 152.601C147.666 149.134 141.533 147.268 134.6 147.268C122.6 147.268 113 154.734 107.667 163.801C105.267 167.801 104.2 173.934 104.2 179.001C104.2 182.467 104.734 185.667 105.8 188.6H153V152.601H152.733Z" fill="#0059DA"/>
</g>
<defs>
<clipPath id="clip0_2005_1541">
<rect width="256" height="256" fill="white"/>
</clipPath>
</defs>
</svg>
