<svg width="256" height="256" viewBox="0 0 256 256" fill="none" xmlns="http://www.w3.org/2000/svg">
<circle cx="127" cy="128" r="125" fill="white"/>
<g clip-path="url(#clip0_741_46)">
<path d="M78.5835 127.264C78.112 135.447 84.4179 142.453 92.6096 142.924C92.9043 142.924 93.1989 142.924 93.4936 142.924C101.744 142.924 108.404 136.272 108.345 128.029C108.345 119.787 101.685 113.134 93.4347 113.193C85.5376 113.193 78.996 119.375 78.5835 127.264Z" fill="#0033AD"/>
<path d="M23.0683 123.437C20.4163 123.261 18.1179 125.321 18 127.971C17.8821 130.62 19.8859 132.916 22.5379 133.034C25.1899 133.21 27.4293 131.15 27.6061 128.501C27.7829 125.851 25.7203 123.614 23.0683 123.437Z" fill="#0033AD"/>
<path d="M77.6405 40.9542C79.9979 39.7767 80.9408 36.8329 79.7621 34.478C78.5835 32.123 75.6368 31.181 73.2795 32.3585C70.9221 33.536 69.9792 36.4208 71.1579 38.7758C72.3365 41.1897 75.2243 42.1905 77.6405 40.9542Z" fill="#0033AD"/>
<path d="M92.7275 67.2708C96.3813 65.4457 97.8547 60.9712 96.0277 57.321C94.2008 53.6708 89.7219 52.1989 86.068 54.024C82.4141 55.8491 80.9408 60.3236 82.7677 63.9738C84.5947 67.624 89.0736 69.0959 92.7275 67.2708Z" fill="#0033AD"/>
<path d="M41.9269 85.3454C44.7557 87.1705 48.5275 86.4051 50.4133 83.5791C52.2403 80.7532 51.4741 76.9852 48.6453 75.1012C45.8165 73.2761 42.0448 74.0415 40.1589 76.8675C38.2731 79.6934 39.0981 83.5203 41.9269 85.3454Z" fill="#0033AD"/>
<path d="M50.9437 120.788C46.8184 120.552 43.3413 123.673 43.1056 127.794C42.8699 131.915 45.9933 135.389 50.1187 135.624C54.244 135.86 57.7211 132.739 57.9568 128.618C58.1925 124.556 55.0691 121.023 50.9437 120.788Z" fill="#0033AD"/>
<path d="M42.752 170.655C39.7464 172.185 38.5088 175.836 40.0411 178.897C41.5733 181.9 45.2272 183.136 48.2917 181.605C51.2973 180.075 52.5349 176.424 51.0027 173.363C49.4704 170.36 45.7576 169.124 42.752 170.655Z" fill="#0033AD"/>
<path d="M71.6293 105.422C75.6957 108.071 81.1176 106.953 83.7107 102.89C86.3627 98.8278 85.2429 93.4114 81.1765 90.8209C77.1101 88.1716 71.6883 89.2902 69.0952 93.3525C66.4432 97.356 67.5629 102.772 71.6293 105.422Z" fill="#0033AD"/>
<path d="M163.271 66.6824C166.689 68.9196 171.345 67.9776 173.584 64.5629C175.823 61.1482 174.881 56.4971 171.462 54.2599C168.044 52.0227 163.389 52.9646 161.149 56.3794C158.851 59.853 159.794 64.4452 163.271 66.6824Z" fill="#0033AD"/>
<path d="M178.475 40.483C180.715 41.9549 183.662 41.3073 185.135 39.0701C186.608 36.8328 185.96 33.8891 183.721 32.4172C181.481 30.9454 178.534 31.593 177.061 33.7714C175.647 36.0086 176.295 39.0112 178.475 40.483Z" fill="#0033AD"/>
<path d="M164.39 113.075C156.199 112.604 149.127 118.904 148.714 127.087C148.243 135.271 154.549 142.336 162.74 142.748C163.035 142.748 163.33 142.748 163.565 142.748C171.757 142.748 178.417 136.095 178.417 127.853C178.475 120.022 172.287 113.487 164.39 113.075Z" fill="#0033AD"/>
<path d="M97.6189 104.362C100.153 109.366 105.28 112.545 110.938 112.545C119.13 112.545 125.789 105.892 125.789 97.65C125.789 95.3539 125.259 93.0578 124.198 90.9383C120.485 83.579 111.527 80.6353 104.219 84.3444C96.8528 88.1123 93.9061 97.0613 97.6189 104.362Z" fill="#0033AD"/>
<path d="M214.248 85.3453C217.254 83.8146 218.432 80.1055 216.9 77.1029C215.368 74.1003 211.655 72.9228 208.649 74.4536C205.644 75.9843 204.465 79.6345 205.938 82.6371C207.53 85.6397 211.183 86.8761 214.248 85.3453Z" fill="#0033AD"/>
<path d="M176.531 90.0556C172.229 92.2339 170.461 97.4737 172.641 101.772C174.822 106.069 180.067 107.836 184.369 105.657C188.671 103.479 190.439 98.2391 188.258 93.9413C186.078 89.6434 180.833 87.9361 176.531 90.0556Z" fill="#0033AD"/>
<path d="M127.911 38.2458C131.27 38.4224 134.158 35.832 134.393 32.4761C134.629 29.1203 131.977 26.2354 128.618 25.9999C125.259 25.8233 122.371 28.3549 122.135 31.7107C121.958 35.1255 124.551 38.0103 127.911 38.2458Z" fill="#0033AD"/>
<path d="M127.852 76.6908C132.684 76.9851 136.81 73.2761 137.045 68.4484C137.34 63.6206 133.627 59.4994 128.795 59.2639C123.962 58.9696 119.837 62.6787 119.601 67.5064C119.365 72.3341 123.019 76.4553 127.852 76.6908Z" fill="#0033AD"/>
<path d="M80.4693 165.944C84.7715 163.766 86.5395 158.526 84.3589 154.228C82.1784 149.931 76.9333 148.164 72.6312 150.343C68.3291 152.521 66.5611 157.761 68.7416 162.059C70.9221 166.356 76.1672 168.123 80.4693 165.944Z" fill="#0033AD"/>
<path d="M133.509 89.4666C129.03 96.3549 130.916 105.539 137.811 110.014C144.707 114.488 153.9 112.604 158.379 105.716C162.858 98.8276 160.972 89.6432 154.077 85.1687C151.661 83.5791 148.832 82.7549 145.944 82.7549C140.935 82.7549 136.279 85.2865 133.509 89.4666Z" fill="#0033AD"/>
<path d="M159.381 151.638C155.668 144.279 146.71 141.335 139.403 145.044C132.036 148.753 129.089 157.702 132.802 165.003C136.515 172.362 145.473 175.306 152.781 171.596C160.088 167.946 163.094 159.115 159.44 151.756C159.44 151.697 159.44 151.697 159.381 151.638Z" fill="#0033AD"/>
<path d="M185.371 150.578C181.304 147.929 175.882 149.047 173.289 153.11C170.637 157.172 171.757 162.589 175.823 165.179C179.89 167.828 185.312 166.71 187.905 162.648C190.557 158.644 189.437 153.228 185.371 150.578Z" fill="#0033AD"/>
<path d="M213.894 128.265C214.13 124.143 211.007 120.67 206.881 120.434C202.756 120.199 199.279 123.319 199.043 127.44C198.807 131.562 201.931 135.035 206.056 135.271C210.123 135.506 213.659 132.327 213.894 128.265Z" fill="#0033AD"/>
<path d="M234.462 122.966C231.81 122.79 229.512 124.85 229.394 127.499C229.276 130.149 231.28 132.445 233.932 132.563C236.584 132.739 238.823 130.679 239 128.029C239.118 125.38 237.114 123.143 234.462 122.966Z" fill="#0033AD"/>
<path d="M215.073 170.654C212.244 168.829 208.473 169.595 206.587 172.421C204.76 175.247 205.526 179.015 208.355 180.899C211.183 182.724 214.955 181.958 216.841 179.132C218.727 176.306 217.902 172.48 215.073 170.654Z" fill="#0033AD"/>
<path d="M78.4656 215.517C76.2261 214.045 73.2795 214.693 71.8061 216.871C70.3328 219.108 70.9811 222.052 73.1616 223.524C75.4011 224.996 78.3477 224.348 79.8211 222.17C81.3533 219.991 80.7051 216.989 78.4656 215.517Z" fill="#0033AD"/>
<path d="M179.359 215.046C177.002 216.223 176.059 219.167 177.238 221.522C178.417 223.877 181.363 224.819 183.721 223.642C186.078 222.464 187.021 219.579 185.842 217.224C184.663 214.81 181.776 213.81 179.359 215.046Z" fill="#0033AD"/>
<path d="M123.491 166.533C127.97 159.645 126.084 150.46 119.189 145.927C112.293 141.453 103.1 143.337 98.5619 150.225C94.024 157.113 95.9688 166.298 102.864 170.831C105.28 172.421 108.109 173.245 110.997 173.245C116.065 173.304 120.721 170.772 123.491 166.533Z" fill="#0033AD"/>
<path d="M93.7293 189.317C90.3112 187.08 85.6555 188.022 83.416 191.437C81.1765 194.852 82.1195 199.503 85.5376 201.74C88.9557 203.977 93.6115 203.035 95.8509 199.621C98.1493 196.206 97.2064 191.555 93.7293 189.317Z" fill="#0033AD"/>
<path d="M128.441 217.754C125.082 217.578 122.194 220.168 121.958 223.524C121.723 226.88 124.375 229.765 127.734 230C131.093 230.177 133.981 227.645 134.217 224.289C134.393 220.874 131.8 217.99 128.441 217.754Z" fill="#0033AD"/>
<path d="M128.5 179.309C123.667 179.014 119.542 182.724 119.306 187.551C119.012 192.379 122.725 196.5 127.557 196.736C132.39 196.971 136.515 193.321 136.751 188.493C137.045 183.724 133.333 179.544 128.5 179.309Z" fill="#0033AD"/>
<path d="M164.273 188.729C160.619 190.613 159.145 195.088 161.031 198.738C162.917 202.388 167.396 203.86 171.05 201.976C174.704 200.151 176.177 195.676 174.35 192.026C172.464 188.376 167.985 186.845 164.273 188.729Z" fill="#0033AD"/>
</g>
<defs>
<clipPath id="clip0_741_46">
<rect width="221" height="204" fill="white" transform="translate(18 26)"/>
</clipPath>
</defs>
</svg>
