<svg width="256" height="256" viewBox="0 0 256 256" fill="none" xmlns="http://www.w3.org/2000/svg">
<path d="M128 255C198.14 255 255 198.14 255 128C255 57.8598 198.14 1 128 1C57.8598 1 1 57.8598 1 128C1 198.14 57.8598 255 128 255Z" fill="white"/>
<path d="M128.253 46.2344C100.648 46.2344 67.2108 52.844 39.6058 67.0353C39.6058 97.9451 39.217 175.317 128.253 228C217.483 175.317 217.094 98.1395 217.094 67.0353C189.489 52.844 156.052 46.2344 128.253 46.2344Z" fill="#68BC71"/>
<path d="M128.253 228C39.217 175.317 39.6058 98.1395 39.6058 67.0353C67.0164 52.844 100.453 46.2344 128.253 46.2344V228Z" fill="#67B279"/>
<path d="M125.142 167.54L178.797 95.2231C174.909 92.1126 171.41 94.2511 169.466 96.0007L124.753 142.463L107.841 122.245C99.6757 113.108 88.7893 120.106 86.2621 122.05L125.142 167.54Z" fill="white"/>
</svg>
