<svg width="256" height="256" viewBox="0 0 256 256" fill="none" xmlns="http://www.w3.org/2000/svg">
<g clip-path="url(#clip0_2302_81)">
<path fill-rule="evenodd" clip-rule="evenodd" d="M128 0C198.697 0 256 57.3026 256 128C256 198.697 198.697 256 128 256C57.3026 256 0 198.697 0 128C0 57.3026 57.3026 0 128 0Z" fill="#B8CAEA"/>
<path d="M56.6298 174.408C59.8857 174.408 62.5251 171.768 62.5251 168.513C62.5251 165.257 59.8857 162.617 56.6298 162.617C53.3738 162.617 50.7344 165.257 50.7344 168.513C50.7344 171.768 53.3738 174.408 56.6298 174.408Z" fill="#259ECC"/>
<path d="M198.369 94.0061C201.625 94.0061 204.264 91.3666 204.264 88.1107C204.264 84.8548 201.625 82.2153 198.369 82.2153C195.113 82.2153 192.474 84.8548 192.474 88.1107C192.474 91.3666 195.113 94.0061 198.369 94.0061Z" fill="#E30A7D"/>
<path d="M196.05 62.5221C194.569 61.0438 192.561 60.2135 190.468 60.2135C188.375 60.2135 186.368 61.0438 184.886 62.5221L173.221 74.1873L162.12 85.2883C160.639 86.7666 158.631 87.5966 156.539 87.5966C154.446 87.5966 152.438 86.7666 150.957 85.2883C149.478 83.8068 148.648 81.7993 148.648 79.7064C148.648 77.6135 149.478 75.606 150.957 74.1246L157.228 67.8529C158.707 66.3714 159.537 64.3639 159.537 62.271C159.537 60.1781 158.707 58.171 157.228 56.6895C156.5 55.9594 155.635 55.3801 154.682 54.9849C153.73 54.5897 152.709 54.3862 151.678 54.3862C150.647 54.3862 149.626 54.5897 148.673 54.9849C147.721 55.3801 146.856 55.9594 146.127 56.6895L68.1705 134.646C67.4404 135.375 66.8611 136.24 66.4659 137.192C66.0707 138.144 65.8672 139.166 65.8672 140.197C65.8672 141.228 66.0707 142.249 66.4659 143.201C66.8611 144.154 67.4404 145.019 68.1705 145.747C69.6519 147.225 71.6595 148.056 73.7523 148.056C75.8452 148.056 77.8527 147.225 79.3342 145.747L87.9264 137.155C88.6546 136.425 89.5195 135.845 90.472 135.45C91.4244 135.055 92.4457 134.852 93.4769 134.852C94.5081 134.852 95.529 135.055 96.4814 135.45C97.4339 135.845 98.2988 136.425 99.027 137.155C99.7571 137.883 100.336 138.748 100.732 139.701C101.127 140.653 101.33 141.674 101.33 142.705C101.33 143.737 101.127 144.757 100.732 145.71C100.336 146.662 99.7571 147.528 99.027 148.256L59.7666 187.517C58.2883 188.998 57.458 191.006 57.458 193.098C57.458 195.191 58.2883 197.198 59.7666 198.68C61.2481 200.158 63.2552 200.989 65.3481 200.989C67.441 200.989 69.4485 200.158 70.93 198.68L84.1008 185.447C85.5822 183.969 87.5894 183.138 89.6823 183.138C91.7752 183.138 93.7827 183.969 95.2642 185.447C95.9924 186.177 96.8577 186.756 97.8101 187.151C98.7625 187.547 99.7835 187.75 100.815 187.75C101.846 187.75 102.867 187.547 103.819 187.151C104.772 186.756 105.637 186.177 106.365 185.447L118.03 173.782C119.512 172.303 121.519 171.473 123.612 171.473C125.705 171.473 127.713 172.303 129.194 173.782C129.922 174.512 130.787 175.091 131.74 175.486C132.692 175.881 133.713 176.085 134.744 176.085C135.775 176.085 136.797 175.881 137.749 175.486C138.702 175.091 139.567 174.512 140.295 173.782L195.674 118.403C196.404 117.674 196.983 116.809 197.378 115.857C197.774 114.905 197.977 113.883 197.977 112.852C197.977 111.821 197.774 110.8 197.378 109.848C196.983 108.895 196.404 108.03 195.674 107.302C194.946 106.572 194.08 105.993 193.128 105.597C192.175 105.202 191.154 104.999 190.123 104.999C189.092 104.999 188.071 105.202 187.119 105.597C186.166 105.993 185.301 106.572 184.573 107.302L184.009 107.866L176.232 115.643C174.75 117.121 172.743 117.952 170.65 117.952C168.557 117.952 166.549 117.121 165.068 115.643C163.59 114.162 162.759 112.154 162.759 110.061C162.759 107.968 163.59 105.961 165.068 104.48L174.789 94.821L196.176 73.4348C197.577 71.956 198.347 69.9897 198.323 67.9528C198.3 65.9159 197.485 63.9683 196.05 62.5221Z" fill="url(#paint0_linear_2302_81)"/>
</g>
<defs>
<linearGradient id="paint0_linear_2302_81" x1="34.4645" y1="150.706" x2="236.6" y2="88.2645" gradientUnits="userSpaceOnUse">
<stop offset="0.2" stop-color="#279ECC"/>
<stop offset="0.81" stop-color="#E4097D"/>
</linearGradient>
<clipPath id="clip0_2302_81">
<rect width="256" height="256" fill="white"/>
</clipPath>
</defs>
</svg>
