<svg width="256" height="256" viewBox="0 0 256 256" fill="none" xmlns="http://www.w3.org/2000/svg">
<g clip-path="url(#clip0_1158_2)">
<path d="M128 256C198.692 256 256 198.692 256 128C256 57.3076 198.692 0 128 0C57.3076 0 0 57.3076 0 128C0 198.692 57.3076 256 128 256Z" fill="#302E2D"/>
<path d="M213.994 126.393C214.149 140.285 211.228 153.559 205.491 166.242C197.298 184.301 177.656 199.068 159.719 183.35C145.091 170.538 142.377 144.53 120.46 140.722C91.4617 137.224 90.7638 170.692 71.8193 174.474C50.7037 178.745 43.6997 143.398 44.0098 127.345C44.3199 111.292 48.6103 88.7306 66.9604 88.7306C88.076 88.7306 89.4974 120.553 116.299 118.83C142.842 117.029 143.307 83.9199 160.649 69.7451C175.614 57.4997 193.214 66.4779 202.027 81.2187C210.195 94.8533 213.787 110.855 213.968 126.393H213.994Z" fill="#97FDE5"/>
</g>
<defs>
<clipPath id="clip0_1158_2">
<rect width="256" height="256" fill="white"/>
</clipPath>
</defs>
</svg>
