<svg width="128" height="128" viewBox="0 0 128 128" fill="none" xmlns="http://www.w3.org/2000/svg">
<g clip-path="url(#clip0_1158_2)">
<path d="M64 128C99.3462 128 128 99.3462 128 64C128 28.6538 99.3462 0 64 0C28.6538 0 0 28.6538 0 64C0 99.3462 28.6538 128 64 128Z" fill="#302E2D"/>
<path d="M106.997 63.1966C107.075 70.1425 105.614 76.7796 102.746 83.121C98.6491 92.1506 88.8279 99.5341 79.8594 91.6748C72.5453 85.2691 71.1883 72.2648 60.2301 70.3612C45.7308 68.6118 45.3819 85.3462 35.9096 87.2371C25.3519 89.3724 21.8498 71.6988 22.0049 63.6724C22.16 55.646 24.3051 44.3653 33.4802 44.3653C44.038 44.3653 44.7487 60.2766 58.1495 59.4148C71.4211 58.5144 71.6536 41.96 80.3246 34.8726C87.8068 28.7498 96.6072 33.239 101.014 40.6094C105.097 47.4267 106.894 55.4273 106.984 63.1966H106.997Z" fill="#97FDE5"/>
</g>
<defs>
<clipPath id="clip0_1158_2">
<rect width="128" height="128" fill="white"/>
</clipPath>
</defs>
</svg>
