<svg width="256" height="256" viewBox="0 0 256 256" fill="none" xmlns="http://www.w3.org/2000/svg">
<path d="M128 256C198.692 256 256 198.692 256 128C256 57.3076 198.692 0 128 0C57.3076 0 0 57.3076 0 128C0 198.692 57.3076 256 128 256Z" fill="#031937"/>
<path fill-rule="evenodd" clip-rule="evenodd" d="M117.052 26.0626C124.138 21.9791 132.862 21.9791 139.948 26.0626L211.521 67.311C215.072 69.3575 217.942 72.2742 219.924 75.7038C221.906 79.1335 223 83.0762 223 87.1748V169.581C223 173.68 221.906 177.622 219.924 181.052C217.942 184.482 215.072 187.398 211.521 189.445L139.948 230.693C132.862 234.777 124.138 234.777 117.052 230.693L45.4787 189.445C41.9276 187.398 39.0579 184.482 37.076 181.052C35.0941 177.622 34 173.68 34 169.581V87.1748C34 83.0762 35.0941 79.1335 37.076 75.7038C39.0579 72.2742 41.9276 69.3575 45.4787 67.311L117.052 26.0626Z" fill="url(#paint0_linear_1755_602)" stroke="url(#paint1_linear_1755_602)" stroke-width="2.50435"/>
<path d="M189.958 101.924C193.776 103.85 196.784 109.099 198.981 117.671C200.894 125.133 202.465 133.305 203.693 142.187L203.696 142.187C204.065 144.865 203.754 147.594 202.793 150.12C197.792 163.233 191.116 174.049 182.765 182.569C174.405 191.097 163.441 199.661 149.872 208.26C147.297 209.894 144.31 210.76 141.26 210.762H128.5V63.6299H149.596C150.795 63.6299 151.945 64.1045 152.795 64.95L189.958 101.924Z" fill="#CB6E1A"/>
<mask id="mask0_1755_602" style="mask-type:luminance" maskUnits="userSpaceOnUse" x="128" y="63" width="76" height="148">
<path d="M189.958 101.924C193.776 103.85 196.784 109.099 198.981 117.671C200.894 125.133 202.465 133.305 203.693 142.187L203.696 142.187C204.065 144.865 203.754 147.594 202.793 150.12C197.792 163.233 191.116 174.049 182.765 182.569C174.405 191.097 163.441 199.661 149.872 208.26C147.297 209.894 144.31 210.76 141.26 210.762H128.5V63.6299H149.596C150.795 63.6299 151.945 64.1045 152.795 64.95L189.958 101.924Z" fill="white"/>
</mask>
<g mask="url(#mask0_1755_602)">
<path d="M133.329 63.6299H128.5V140.219H133.329V63.6299Z" fill="#EE7C46"/>
</g>
<mask id="mask1_1755_602" style="mask-type:luminance" maskUnits="userSpaceOnUse" x="128" y="63" width="76" height="148">
<path d="M189.958 101.924C193.776 103.85 196.784 109.099 198.981 117.671C200.894 125.133 202.465 133.305 203.693 142.187L203.696 142.187C204.065 144.865 203.754 147.594 202.793 150.12C197.792 163.233 191.116 174.049 182.765 182.569C174.405 191.097 163.441 199.661 149.872 208.26C147.297 209.894 144.31 210.76 141.26 210.762H128.5V63.6299H149.596C150.795 63.6299 151.945 64.1045 152.795 64.95L189.958 101.924Z" fill="white"/>
</mask>
<g mask="url(#mask1_1755_602)">
<path fill-rule="evenodd" clip-rule="evenodd" d="M137.208 149.479C138.036 142.031 139.067 136.383 140.3 132.537C141.532 128.69 143.846 123.903 147.24 118.176C158.845 115.732 167.385 113.548 172.858 111.626C178.332 109.704 184.978 105.987 192.797 100.478L204.218 104.949L207.941 149.479L168.063 211.015H128.5L137.208 149.479Z" fill="#FEA355"/>
</g>
<mask id="mask2_1755_602" style="mask-type:luminance" maskUnits="userSpaceOnUse" x="128" y="63" width="76" height="148">
<path d="M189.958 101.924C193.776 103.85 196.784 109.099 198.981 117.671C200.894 125.133 202.465 133.305 203.693 142.187L203.696 142.187C204.065 144.865 203.754 147.594 202.793 150.12C197.792 163.233 191.116 174.049 182.765 182.569C174.405 191.097 163.441 199.661 149.872 208.26C147.297 209.894 144.31 210.76 141.26 210.762H128.5V63.6299H149.596C150.795 63.6299 151.945 64.1045 152.795 64.95L189.958 101.924Z" fill="white"/>
</mask>
<g mask="url(#mask2_1755_602)">
<path d="M208.824 159.617C187.707 144.669 168.925 150.442 152.477 176.938C149.477 181.772 130.786 186.526 128.5 190.605C120.24 205.345 124.257 216.556 140.552 224.239L208.824 159.617Z" fill="white"/>
<mask id="mask3_1755_602" style="mask-type:luminance" maskUnits="userSpaceOnUse" x="124" y="151" width="85" height="74">
<path d="M208.824 159.617C187.707 144.669 168.925 150.442 152.477 176.938C149.477 181.772 130.786 186.526 128.5 190.605C120.24 205.345 124.257 216.556 140.552 224.239L208.824 159.617Z" fill="white"/>
</mask>
<g mask="url(#mask3_1755_602)">
<path fill-rule="evenodd" clip-rule="evenodd" d="M163.583 136.816C163.541 163.816 172.501 185.839 190.463 202.887C208.425 219.935 187.77 225.163 128.5 218.57V137.761L163.583 136.816Z" fill="#C8F4FD"/>
</g>
</g>
<path fill-rule="evenodd" clip-rule="evenodd" d="M150.143 173.288C151.068 173.792 155.948 177.277 164.782 183.743C157.252 195.459 150.542 201.715 144.653 202.513C138.764 203.311 133.38 202.366 128.5 199.679V173.288C142.003 172.784 149.217 172.784 150.143 173.288Z" fill="#87BFD9"/>
<path d="M128.5 137.826C128.5 137.826 131.605 138.02 136.261 141.291C141.372 144.881 152.976 158.806 155.885 180.404C157.231 190.398 148.103 196.843 128.5 199.74C128.5 158.464 128.5 137.826 128.5 137.826Z" fill="white"/>
<mask id="mask4_1755_602" style="mask-type:luminance" maskUnits="userSpaceOnUse" x="128" y="137" width="29" height="63">
<path d="M128.5 137.827C128.5 137.827 131.605 138.021 136.261 141.292C141.372 144.882 152.976 158.807 155.885 180.405C157.231 190.399 148.103 196.844 128.5 199.741C128.5 158.465 128.5 137.827 128.5 137.827Z" fill="white"/>
</mask>
<g mask="url(#mask4_1755_602)">
<path d="M133.329 155.968H128.5V169.572H133.329V155.968Z" fill="#CBD3DF"/>
</g>
<mask id="mask5_1755_602" style="mask-type:luminance" maskUnits="userSpaceOnUse" x="128" y="137" width="29" height="63">
<path d="M128.5 137.827C128.5 137.827 131.605 138.021 136.261 141.292C141.372 144.882 152.976 158.807 155.885 180.405C157.231 190.399 148.103 196.844 128.5 199.741C128.5 158.465 128.5 137.827 128.5 137.827Z" fill="white"/>
</mask>
<g mask="url(#mask5_1755_602)">
<path fill-rule="evenodd" clip-rule="evenodd" d="M128.5 135.747V152.69C130.729 152.732 133.064 152.228 135.504 151.178C137.944 150.129 140.405 147.378 142.886 142.927L128.5 135.747Z" fill="#D5FBFE"/>
</g>
<mask id="mask6_1755_602" style="mask-type:luminance" maskUnits="userSpaceOnUse" x="128" y="137" width="29" height="63">
<path d="M128.5 137.827C128.5 137.827 131.605 138.021 136.261 141.292C141.372 144.882 152.976 158.807 155.885 180.405C157.231 190.399 148.103 196.844 128.5 199.741C128.5 158.465 128.5 137.827 128.5 137.827Z" fill="white"/>
</mask>
<g mask="url(#mask6_1755_602)">
<path fill-rule="evenodd" clip-rule="evenodd" d="M128.5 182.8C128.5 182.8 136.429 187.608 152.288 197.223L128.5 203.963C128.5 189.854 128.5 182.8 128.5 182.8Z" fill="#B0E9FE"/>
</g>
<mask id="mask7_1755_602" style="mask-type:luminance" maskUnits="userSpaceOnUse" x="128" y="137" width="29" height="63">
<path d="M128.5 137.827C128.5 137.827 131.605 138.021 136.261 141.292C141.372 144.882 152.976 158.807 155.885 180.405C157.231 190.399 148.103 196.844 128.5 199.741C128.5 158.465 128.5 137.827 128.5 137.827Z" fill="white"/>
</mask>
<g mask="url(#mask7_1755_602)">
<path fill-rule="evenodd" clip-rule="evenodd" d="M128.5 194.452L147.682 200.373L128.5 201.695V194.452Z" fill="#2E6889"/>
</g>
<mask id="mask8_1755_602" style="mask-type:luminance" maskUnits="userSpaceOnUse" x="128" y="137" width="29" height="63">
<path d="M128.5 137.827C128.5 137.827 131.605 138.021 136.261 141.292C141.372 144.882 152.976 158.807 155.885 180.405C157.231 190.399 148.103 196.844 128.5 199.741C128.5 158.465 128.5 137.827 128.5 137.827Z" fill="white"/>
</mask>
<g mask="url(#mask8_1755_602)">
<path fill-rule="evenodd" clip-rule="evenodd" d="M128.5 168.752C129.144 168.752 133.43 169.816 141.356 171.945C143.642 172.555 144.999 174.903 144.388 177.188C144.357 177.304 144.321 177.419 144.281 177.532L142.789 181.681C142.285 183.085 141.258 184.24 139.924 184.906L128.5 190.608C128.5 179.648 128.5 172.363 128.5 168.752Z" fill="#08273B"/>
<path fill-rule="evenodd" clip-rule="evenodd" d="M128.5 172.973C128.837 172.973 132.77 173.959 140.299 175.933L128.5 182.798C128.5 178.851 128.5 175.576 128.5 172.973Z" fill="#224A66"/>
<path d="M136.072 187.878C138.739 187.878 140.901 185.716 140.901 183.05C140.901 180.383 138.739 178.221 136.072 178.221C133.405 178.221 131.243 180.383 131.243 183.05C131.243 185.716 133.405 187.878 136.072 187.878Z" fill="#03121F"/>
</g>
<path d="M128.5 63.6299H149.84C150.776 63.6299 151.689 63.9197 152.454 64.4595L154.938 66.2122" stroke="white" stroke-width="0.6"/>
<path fill-rule="evenodd" clip-rule="evenodd" d="M147.353 71.9365C146.218 70.6752 150.871 65.805 153.028 62.8553C167.015 43.724 177.258 32.5307 182.284 29.1795C188.038 25.3432 194.517 57.0535 196.282 78.3689C197.24 89.9278 191.778 98.9432 189.977 101.576C188.338 103.973 173.835 93.378 167.656 87.5762C164.732 84.8306 160.051 82.1708 156.054 79.2518C151.606 76.0024 147.951 72.6009 147.353 71.9365Z" fill="#A54C00"/>
<path fill-rule="evenodd" clip-rule="evenodd" d="M182.386 37.1748C175.661 45.9423 170.697 52.2408 167.495 56.0701C164.293 59.8995 160.255 65.0222 155.38 71.4383C157.3 73.9746 158.856 75.9062 160.049 77.2329C161.243 78.5597 163.009 80.3232 165.35 82.5236C167.344 82.0633 168.816 81.6854 169.767 81.3899C170.717 81.0944 171.811 80.6745 173.048 80.1302C174.214 81.5891 175.139 82.6388 175.824 83.2794C176.509 83.92 178.359 85.2007 181.377 87.1215C183.859 79.4374 185.31 72.1942 185.73 65.3918C186.151 58.5895 185.036 49.1838 182.386 37.1748Z" fill="#803100"/>
<path d="M147.244 70.9744C147.768 69.0321 151.248 65.2896 153.028 62.8553C167.015 43.724 177.258 32.5307 182.284 29.1795C188.038 25.3432 194.517 57.0535 196.282 78.3689C197.24 89.9278 191.778 98.9432 189.977 101.576L189.769 101.86" stroke="white" stroke-width="0.6"/>
<path d="M144.716 139.527C147.535 145.069 150.017 148.009 152.162 148.345C154.307 148.68 160.112 146.371 169.577 141.416L175.635 133.354C174.713 132.631 174.04 132.043 173.615 131.591C173.191 131.138 172.602 130.383 171.849 129.323C165.16 131.208 160.301 132.719 157.273 133.858C154.245 134.997 150.059 136.886 144.716 139.527Z" fill="#050F1A"/>
<mask id="mask9_1755_602" style="mask-type:luminance" maskUnits="userSpaceOnUse" x="144" y="129" width="32" height="20">
<path d="M144.716 139.527C147.535 145.069 150.017 148.009 152.162 148.345C154.307 148.68 160.112 146.371 169.577 141.416L175.635 133.354C174.713 132.631 174.04 132.043 173.615 131.591C173.191 131.138 172.602 130.383 171.849 129.323C165.16 131.208 160.301 132.719 157.273 133.858C154.245 134.997 150.059 136.886 144.716 139.527Z" fill="white"/>
</mask>
<g mask="url(#mask9_1755_602)">
<path d="M155.885 132.663C156.726 138.752 158.156 142.615 160.175 144.252C162.1 145.813 164.981 144.684 168.818 140.864C169.17 140.524 169.284 140.008 169.112 139.549L166.726 133.182C166.362 132.21 165.384 131.609 164.353 131.724L155.885 132.663Z" fill="#092338"/>
<mask id="mask10_1755_602" style="mask-type:luminance" maskUnits="userSpaceOnUse" x="155" y="131" width="15" height="14">
<path d="M155.885 132.664C156.726 138.753 158.156 142.616 160.175 144.253C162.1 145.814 164.981 144.685 168.818 140.865C169.17 140.525 169.284 140.009 169.112 139.55L166.726 133.183C166.362 132.211 165.384 131.61 164.353 131.725L155.885 132.664Z" fill="white"/>
</mask>
<g mask="url(#mask10_1755_602)">
<path fill-rule="evenodd" clip-rule="evenodd" d="M164.782 129.324L163.401 138.208C163.192 139.549 163.461 140.921 164.16 142.084L167.053 146.897L173.615 141.354L164.782 129.324Z" fill="#113147"/>
</g>
<mask id="mask11_1755_602" style="mask-type:luminance" maskUnits="userSpaceOnUse" x="155" y="131" width="15" height="14">
<path d="M155.885 132.664C156.726 138.753 158.156 142.616 160.175 144.253C162.1 145.814 164.981 144.685 168.818 140.865C169.17 140.525 169.284 140.009 169.112 139.55L166.726 133.183C166.362 132.211 165.384 131.61 164.353 131.725L155.885 132.664Z" fill="white"/>
</mask>
<g mask="url(#mask11_1755_602)">
<path fill-rule="evenodd" clip-rule="evenodd" d="M162.636 128.821C162.636 129.148 162.776 132.779 163.055 139.713C163.072 139.991 163.311 140.202 163.589 140.185C163.612 140.184 163.635 140.181 163.657 140.177C164.843 139.952 165.806 139.714 166.548 139.465C167.408 139.177 168.691 138.631 170.397 137.828L166.548 128.254C163.94 128.296 162.636 128.485 162.636 128.821Z" fill="#365E77"/>
</g>
</g>
<mask id="mask12_1755_602" style="mask-type:luminance" maskUnits="userSpaceOnUse" x="144" y="129" width="32" height="20">
<path d="M144.716 139.527C147.535 145.069 150.017 148.009 152.162 148.345C154.307 148.68 160.112 146.371 169.577 141.416L175.635 133.354C174.713 132.631 174.04 132.043 173.615 131.591C173.191 131.138 172.602 130.383 171.849 129.323C165.16 131.208 160.301 132.719 157.273 133.858C154.245 134.997 150.059 136.886 144.716 139.527Z" fill="white"/>
</mask>
<g mask="url(#mask12_1755_602)">
<path d="M157.761 140.243C160.07 141.576 163.024 140.785 164.357 138.476C165.691 136.166 164.899 133.213 162.59 131.879C160.28 130.546 157.327 131.337 155.993 133.647C154.66 135.956 155.451 138.91 157.761 140.243Z" fill="white"/>
</g>
<path d="M67.0423 101.924C63.2241 103.85 60.2164 109.099 58.0192 117.671C56.1063 125.133 54.5356 133.305 53.3071 142.187L53.3044 142.187C52.9355 144.865 53.246 147.594 54.2073 150.12C59.2081 163.233 65.8846 174.049 74.2355 182.569C82.5953 191.097 93.5596 199.661 107.128 208.26C109.704 209.894 112.69 210.76 115.74 210.762H128.5V63.6299H107.404C106.205 63.6299 105.055 64.1045 104.205 64.95L67.0423 101.924Z" fill="#CB6E1A"/>
<mask id="mask13_1755_602" style="mask-type:luminance" maskUnits="userSpaceOnUse" x="53" y="63" width="76" height="148">
<path d="M67.0423 101.924C63.2241 103.85 60.2164 109.099 58.0192 117.671C56.1063 125.133 54.5356 133.305 53.3071 142.187L53.3044 142.187C52.9355 144.865 53.246 147.594 54.2073 150.12C59.2081 163.233 65.8846 174.049 74.2355 182.569C82.5953 191.097 93.5596 199.661 107.128 208.26C109.704 209.894 112.69 210.76 115.74 210.762H128.5V63.6299H107.404C106.205 63.6299 105.055 64.1045 104.205 64.95L67.0423 101.924Z" fill="white"/>
</mask>
<g mask="url(#mask13_1755_602)">
<path fill-rule="evenodd" clip-rule="evenodd" d="M119.793 149.479C118.964 142.031 117.934 136.383 116.701 132.537C115.468 128.69 113.154 123.903 109.76 118.176C98.1548 115.732 89.6155 113.548 84.1419 111.626C78.6684 109.704 72.022 105.987 64.2028 100.478L52.782 104.949L49.0592 149.479L88.9374 211.015H128.5L119.793 149.479Z" fill="#FEA355"/>
</g>
<mask id="mask14_1755_602" style="mask-type:luminance" maskUnits="userSpaceOnUse" x="53" y="63" width="76" height="148">
<path d="M67.0423 101.924C63.2241 103.85 60.2164 109.099 58.0192 117.671C56.1063 125.133 54.5356 133.305 53.3071 142.187L53.3044 142.187C52.9355 144.865 53.246 147.594 54.2073 150.12C59.2081 163.233 65.8846 174.049 74.2355 182.569C82.5953 191.097 93.5596 199.661 107.128 208.26C109.704 209.894 112.69 210.76 115.74 210.762H128.5V63.6299H107.404C106.205 63.6299 105.055 64.1045 104.205 64.95L67.0423 101.924Z" fill="white"/>
</mask>
<g mask="url(#mask14_1755_602)">
<path d="M48.1758 159.617C69.2927 144.669 88.075 150.442 104.523 176.938C107.524 181.772 126.214 186.526 128.5 190.605C136.76 205.345 132.743 216.556 116.448 224.239L48.1758 159.617Z" fill="white"/>
<mask id="mask15_1755_602" style="mask-type:luminance" maskUnits="userSpaceOnUse" x="48" y="151" width="85" height="74">
<path d="M48.1758 159.617C69.2927 144.669 88.075 150.442 104.523 176.938C107.524 181.772 126.214 186.526 128.5 190.605C136.76 205.345 132.743 216.556 116.448 224.239L48.1758 159.617Z" fill="white"/>
</mask>
<g mask="url(#mask15_1755_602)">
<path fill-rule="evenodd" clip-rule="evenodd" d="M93.4173 136.816C93.4593 163.816 84.4994 185.839 66.5373 202.887C48.5753 219.935 69.2296 225.163 128.5 218.57V137.761L93.4173 136.816Z" fill="#C8F4FD"/>
</g>
</g>
<path fill-rule="evenodd" clip-rule="evenodd" d="M106.857 173.288C105.932 173.792 101.052 177.277 92.2185 183.743C99.7483 195.459 106.458 201.715 112.347 202.513C118.236 203.311 123.621 202.366 128.5 199.679V173.288C114.997 172.784 107.783 172.784 106.857 173.288Z" fill="#87BFD9"/>
<path d="M128.5 137.826C128.5 137.826 125.395 138.02 120.739 141.291C115.628 144.881 104.025 158.806 101.115 180.404C99.7693 190.398 108.898 196.843 128.5 199.74C128.5 158.464 128.5 137.826 128.5 137.826Z" fill="white"/>
<mask id="mask16_1755_602" style="mask-type:luminance" maskUnits="userSpaceOnUse" x="100" y="137" width="29" height="63">
<path d="M128.5 137.827C128.5 137.827 125.395 138.021 120.739 141.292C115.628 144.882 104.025 158.807 101.115 180.405C99.7693 190.399 108.898 196.844 128.5 199.741C128.5 158.465 128.5 137.827 128.5 137.827Z" fill="white"/>
</mask>
<g mask="url(#mask16_1755_602)">
<path fill-rule="evenodd" clip-rule="evenodd" d="M128.5 135.747V152.69C126.271 152.732 123.936 152.228 121.496 151.178C119.056 150.129 116.596 147.378 114.114 142.927L128.5 135.747Z" fill="#D5FBFE"/>
</g>
<mask id="mask17_1755_602" style="mask-type:luminance" maskUnits="userSpaceOnUse" x="100" y="137" width="29" height="63">
<path d="M128.5 137.827C128.5 137.827 125.395 138.021 120.739 141.292C115.628 144.882 104.025 158.807 101.115 180.405C99.7693 190.399 108.898 196.844 128.5 199.741C128.5 158.465 128.5 137.827 128.5 137.827Z" fill="white"/>
</mask>
<g mask="url(#mask17_1755_602)">
<path fill-rule="evenodd" clip-rule="evenodd" d="M128.5 182.8C128.5 182.8 120.571 187.608 104.712 197.223L128.5 203.963C128.5 189.854 128.5 182.8 128.5 182.8Z" fill="#B0E9FE"/>
</g>
<mask id="mask18_1755_602" style="mask-type:luminance" maskUnits="userSpaceOnUse" x="100" y="137" width="29" height="63">
<path d="M128.5 137.827C128.5 137.827 125.395 138.021 120.739 141.292C115.628 144.882 104.025 158.807 101.115 180.405C99.7693 190.399 108.898 196.844 128.5 199.741C128.5 158.465 128.5 137.827 128.5 137.827Z" fill="white"/>
</mask>
<g mask="url(#mask18_1755_602)">
<path fill-rule="evenodd" clip-rule="evenodd" d="M128.5 194.452L109.318 200.373L128.5 201.695V194.452Z" fill="#2E6889"/>
</g>
<mask id="mask19_1755_602" style="mask-type:luminance" maskUnits="userSpaceOnUse" x="100" y="137" width="29" height="63">
<path d="M128.5 137.827C128.5 137.827 125.395 138.021 120.739 141.292C115.628 144.882 104.025 158.807 101.115 180.405C99.7693 190.399 108.898 196.844 128.5 199.741C128.5 158.465 128.5 137.827 128.5 137.827Z" fill="white"/>
</mask>
<g mask="url(#mask19_1755_602)">
<path fill-rule="evenodd" clip-rule="evenodd" d="M128.5 168.752C127.856 168.752 123.57 169.816 115.644 171.945C113.358 172.555 112.001 174.903 112.612 177.188C112.643 177.304 112.679 177.419 112.719 177.532L114.211 181.681C114.716 183.085 115.742 184.24 117.076 184.906L128.5 190.608C128.5 179.648 128.5 172.363 128.5 168.752Z" fill="#08273B"/>
<path fill-rule="evenodd" clip-rule="evenodd" d="M128.5 172.973C128.164 172.973 124.23 173.959 116.701 175.933L128.5 182.798C128.5 178.851 128.5 175.576 128.5 172.973Z" fill="#224A66"/>
<path d="M120.928 187.878C118.261 187.878 116.099 185.716 116.099 183.05C116.099 180.383 118.261 178.221 120.928 178.221C123.595 178.221 125.757 180.383 125.757 183.05C125.757 185.716 123.595 187.878 120.928 187.878Z" fill="#03121F"/>
</g>
<path d="M128.5 63.6299H107.16C106.224 63.6299 105.311 63.9197 104.546 64.4595L102.062 66.2122" stroke="white" stroke-width="0.6"/>
<path fill-rule="evenodd" clip-rule="evenodd" d="M109.647 71.9365C110.782 70.6752 106.129 65.805 103.973 62.8553C89.9848 43.724 79.7418 32.5307 74.7158 29.1795C68.9623 25.3432 62.4834 57.0535 60.7179 78.3689C59.7605 89.9278 65.222 98.9432 67.0233 101.576C68.6626 103.973 83.1649 93.378 89.3441 87.5762C92.2683 84.8306 96.9497 82.1708 100.946 79.2518C105.394 76.0024 109.049 72.6009 109.647 71.9365Z" fill="#A54C00"/>
<path fill-rule="evenodd" clip-rule="evenodd" d="M74.614 37.1748C81.3397 45.9423 86.3034 52.2408 89.5052 56.0701C92.707 59.8995 96.7453 65.0222 101.62 71.4383C99.7005 73.9746 98.144 75.9062 96.9508 77.2329C95.7576 78.5597 93.9909 80.3232 91.6506 82.5236C89.6564 82.0633 88.1841 81.6854 87.2337 81.3899C86.2833 81.0944 85.1896 80.6745 83.9526 80.1302C82.7862 81.5891 81.8608 82.6388 81.1762 83.2794C80.4917 83.92 78.6408 85.2007 75.6236 87.1215C73.1417 79.4374 71.6904 72.1942 71.2698 65.3918C70.8491 58.5895 71.9639 49.1838 74.614 37.1748Z" fill="#803100"/>
<path d="M109.756 70.9744C109.233 69.0321 105.752 65.2896 103.973 62.8553C89.9848 43.724 79.7418 32.5307 74.7158 29.1795C68.9623 25.3432 62.4834 57.0535 60.7179 78.3689C59.7605 89.9278 65.222 98.9432 67.0233 101.576L67.2316 101.86" stroke="white" stroke-width="0.6"/>
<path d="M112.284 139.527C109.466 145.069 106.984 148.009 104.838 148.345C102.693 148.68 96.8879 146.371 87.4232 141.416L81.3657 133.354C82.287 132.631 82.9601 132.043 83.3849 131.591C83.8096 131.138 84.3985 130.383 85.1516 129.323C91.8406 131.208 96.6992 132.719 99.7273 133.858C102.755 134.997 106.941 136.886 112.284 139.527Z" fill="#050F1A"/>
<mask id="mask20_1755_602" style="mask-type:luminance" maskUnits="userSpaceOnUse" x="81" y="129" width="32" height="20">
<path d="M112.284 139.527C109.466 145.069 106.984 148.009 104.838 148.345C102.693 148.68 96.8879 146.371 87.4232 141.416L81.3657 133.354C82.287 132.631 82.9601 132.043 83.3849 131.591C83.8096 131.138 84.3985 130.383 85.1516 129.323C91.8406 131.208 96.6992 132.719 99.7273 133.858C102.755 134.997 106.941 136.886 112.284 139.527Z" fill="white"/>
</mask>
<g mask="url(#mask20_1755_602)">
<path d="M101.115 132.663C100.274 138.752 98.8439 142.615 96.8248 144.252C94.8998 145.813 92.0189 144.684 88.1822 140.864C87.8298 140.524 87.7162 140.008 87.888 139.549L90.2742 133.182C90.6385 132.21 91.6159 131.609 92.6474 131.724L101.115 132.663Z" fill="#092338"/>
<mask id="mask21_1755_602" style="mask-type:luminance" maskUnits="userSpaceOnUse" x="87" y="131" width="15" height="14">
<path d="M101.115 132.664C100.274 138.753 98.8439 142.616 96.8248 144.253C94.8998 145.814 92.0189 144.685 88.1822 140.865C87.8298 140.525 87.7162 140.009 87.888 139.55L90.2742 133.183C90.6385 132.211 91.6159 131.61 92.6474 131.725L101.115 132.664Z" fill="white"/>
</mask>
<g mask="url(#mask21_1755_602)">
<path fill-rule="evenodd" clip-rule="evenodd" d="M92.2185 129.324L93.5996 138.208C93.808 139.549 93.5392 140.921 92.8402 142.084L89.947 146.897L83.3847 141.354L92.2185 129.324Z" fill="#113147"/>
</g>
<mask id="mask22_1755_602" style="mask-type:luminance" maskUnits="userSpaceOnUse" x="87" y="131" width="15" height="14">
<path d="M101.115 132.664C100.274 138.753 98.8439 142.616 96.8248 144.253C94.8998 145.814 92.0189 144.685 88.1822 140.865C87.8298 140.525 87.7162 140.009 87.888 139.55L90.2742 133.183C90.6385 132.211 91.6159 131.61 92.6474 131.725L101.115 132.664Z" fill="white"/>
</mask>
<g mask="url(#mask22_1755_602)">
<path fill-rule="evenodd" clip-rule="evenodd" d="M94.3639 128.821C94.3639 129.148 94.2243 132.779 93.9452 139.713C93.9282 139.991 93.6888 140.202 93.411 140.185C93.388 140.184 93.3652 140.181 93.3426 140.177C92.1573 139.952 91.1938 139.714 90.4518 139.465C89.5923 139.177 88.3093 138.631 86.6028 137.828L90.4518 128.254C93.0599 128.296 94.3639 128.485 94.3639 128.821Z" fill="#365E77"/>
</g>
</g>
<mask id="mask23_1755_602" style="mask-type:luminance" maskUnits="userSpaceOnUse" x="81" y="129" width="32" height="20">
<path d="M112.284 139.527C109.466 145.069 106.984 148.009 104.838 148.345C102.693 148.68 96.8879 146.371 87.4232 141.416L81.3657 133.354C82.287 132.631 82.9601 132.043 83.3849 131.591C83.8096 131.138 84.3985 130.383 85.1516 129.323C91.8406 131.208 96.6992 132.719 99.7273 133.858C102.755 134.997 106.941 136.886 112.284 139.527Z" fill="white"/>
</mask>
<g mask="url(#mask23_1755_602)">
<path d="M99.2393 140.243C96.9298 141.576 93.9765 140.785 92.6431 138.476C91.3096 136.166 92.101 133.213 94.4105 131.879C96.7201 130.546 99.6734 131.337 101.007 133.647C102.34 135.956 101.549 138.91 99.2393 140.243Z" fill="white"/>
</g>
<path d="M189.958 101.924C193.776 103.85 196.784 109.099 198.981 117.671C200.894 125.133 202.465 133.305 203.693 142.187L203.696 142.187C204.065 144.865 203.754 147.594 202.793 150.12C197.792 163.233 191.116 174.049 182.765 182.569C174.405 191.097 163.441 199.661 149.872 208.26C147.297 209.894 144.31 210.76 141.26 210.762H128.5V63.6299H149.596C150.795 63.6299 151.945 64.1045 152.795 64.95L189.958 101.924Z" fill="url(#paint2_linear_1755_602)"/>
<mask id="mask24_1755_602" style="mask-type:luminance" maskUnits="userSpaceOnUse" x="128" y="63" width="76" height="148">
<path d="M189.958 101.924C193.776 103.85 196.784 109.099 198.981 117.671C200.894 125.133 202.465 133.305 203.693 142.187L203.696 142.187C204.065 144.865 203.754 147.594 202.793 150.12C197.792 163.233 191.116 174.049 182.765 182.569C174.405 191.097 163.441 199.661 149.872 208.26C147.297 209.894 144.31 210.76 141.26 210.762H128.5V63.6299H149.596C150.795 63.6299 151.945 64.1045 152.795 64.95L189.958 101.924Z" fill="white"/>
</mask>
<g mask="url(#mask24_1755_602)">
<path d="M137.208 149.48C138.036 142.032 139.067 136.384 140.299 132.538C141.532 128.691 143.846 123.904 147.24 118.177C158.845 115.732 167.385 113.549 172.858 111.627C178.332 109.705 184.978 105.988 192.797 100.479L204.218 104.95L207.941 149.48L168.063 211.016H128.5L137.208 149.48Z" fill="url(#paint3_linear_1755_602)"/>
<mask id="mask25_1755_602" style="mask-type:luminance" maskUnits="userSpaceOnUse" x="128" y="100" width="80" height="112">
<path d="M137.208 149.481C138.036 142.033 139.067 136.385 140.299 132.539C141.532 128.692 143.846 123.905 147.24 118.178C158.845 115.733 167.385 113.55 172.858 111.628C178.332 109.705 184.978 105.989 192.797 100.479L204.218 104.951L207.941 149.481L168.063 211.017H128.5L137.208 149.481Z" fill="white"/>
</mask>
<g mask="url(#mask25_1755_602)">
<path d="M181.377 99.2197L178.727 119.69" stroke="#8BF2FF" stroke-width="0.6"/>
<path d="M184.531 131.951C187.198 131.951 189.36 129.789 189.36 127.122C189.36 124.455 187.198 122.293 184.531 122.293C181.865 122.293 179.703 124.455 179.703 127.122C179.703 129.789 181.865 131.951 184.531 131.951Z" stroke="#8BF2FF" stroke-width="0.6"/>
<path d="M193.365 148.074C196.032 148.074 198.194 145.912 198.194 143.245C198.194 140.578 196.032 138.416 193.365 138.416C190.698 138.416 188.536 140.578 188.536 143.245C188.536 145.912 190.698 148.074 193.365 148.074Z" stroke="#8BF2FF" stroke-width="0.6"/>
<path d="M172.669 155.128C175.336 155.128 177.498 152.966 177.498 150.3C177.498 147.633 175.336 145.471 172.669 145.471C170.002 145.471 167.84 147.633 167.84 150.3C167.84 152.966 170.002 155.128 172.669 155.128Z" stroke="#8BF2FF" stroke-width="0.6"/>
<path d="M184.632 129.324V140.284" stroke="#8BF2FF" stroke-width="0.6"/>
<path d="M192.987 145.263L181.313 159.434" stroke="#8BF2FF" stroke-width="0.6"/>
<path d="M188.317 136.067L192.482 141.484" stroke="#8BF2FF" stroke-width="0.6"/>
<path d="M142.256 152.692L170.65 150.677" stroke="#8BF2FF" stroke-width="0.6"/>
<path d="M171.786 125.108L160.175 120.699L136.072 134.304" stroke="#8BF2FF" stroke-width="0.6"/>
<path d="M180.051 112.697L201.442 115.721" stroke="#8BF2FF" stroke-width="0.6"/>
</g>
</g>
<mask id="mask26_1755_602" style="mask-type:luminance" maskUnits="userSpaceOnUse" x="128" y="63" width="76" height="148">
<path d="M189.958 101.924C193.776 103.85 196.784 109.099 198.981 117.671C200.894 125.133 202.465 133.305 203.693 142.187L203.696 142.187C204.065 144.865 203.754 147.594 202.793 150.12C197.792 163.233 191.116 174.049 182.765 182.569C174.405 191.097 163.441 199.661 149.872 208.26C147.297 209.894 144.31 210.76 141.26 210.762H128.5V63.6299H149.596C150.795 63.6299 151.945 64.1045 152.795 64.95L189.958 101.924Z" fill="white"/>
</mask>
<g mask="url(#mask26_1755_602)">
<path d="M208.824 159.617C187.707 144.669 168.925 150.442 152.477 176.938C149.477 181.772 130.786 186.526 128.5 190.605C120.24 205.345 124.257 216.556 140.552 224.239L208.824 159.617Z" fill="white"/>
<mask id="mask27_1755_602" style="mask-type:luminance" maskUnits="userSpaceOnUse" x="124" y="151" width="85" height="74">
<path d="M208.824 159.617C187.707 144.669 168.925 150.442 152.477 176.938C149.477 181.772 130.786 186.526 128.5 190.605C120.24 205.345 124.257 216.556 140.552 224.239L208.824 159.617Z" fill="white"/>
</mask>
<g mask="url(#mask27_1755_602)">
<path fill-rule="evenodd" clip-rule="evenodd" d="M163.583 136.816C163.541 163.816 172.501 185.839 190.463 202.887C208.425 219.935 187.77 225.163 128.5 218.57V137.761L163.583 136.816Z" fill="#C8F4FD"/>
</g>
</g>
<path fill-rule="evenodd" clip-rule="evenodd" d="M150.143 173.288C151.068 173.792 155.948 177.277 164.782 183.743C157.252 195.459 150.542 201.715 144.653 202.513C138.764 203.311 133.38 202.366 128.5 199.679V173.288C142.003 172.784 149.217 172.784 150.143 173.288Z" fill="#87BFD9"/>
<path d="M128.5 137.826C128.5 137.826 131.605 138.02 136.261 141.291C141.372 144.881 152.976 158.806 155.885 180.404C157.231 190.398 148.103 196.843 128.5 199.74C128.5 158.464 128.5 137.826 128.5 137.826Z" fill="white"/>
<mask id="mask28_1755_602" style="mask-type:luminance" maskUnits="userSpaceOnUse" x="128" y="137" width="29" height="63">
<path d="M128.5 137.827C128.5 137.827 131.605 138.021 136.261 141.292C141.372 144.882 152.976 158.807 155.885 180.405C157.231 190.399 148.103 196.844 128.5 199.741C128.5 158.465 128.5 137.827 128.5 137.827Z" fill="white"/>
</mask>
<g mask="url(#mask28_1755_602)">
<path fill-rule="evenodd" clip-rule="evenodd" d="M128.5 135.747V152.69C130.729 152.732 133.064 152.228 135.504 151.178C137.944 150.129 140.405 147.378 142.886 142.927L128.5 135.747Z" fill="#D5FBFE"/>
</g>
<mask id="mask29_1755_602" style="mask-type:luminance" maskUnits="userSpaceOnUse" x="128" y="137" width="29" height="63">
<path d="M128.5 137.827C128.5 137.827 131.605 138.021 136.261 141.292C141.372 144.882 152.976 158.807 155.885 180.405C157.231 190.399 148.103 196.844 128.5 199.741C128.5 158.465 128.5 137.827 128.5 137.827Z" fill="white"/>
</mask>
<g mask="url(#mask29_1755_602)">
<path fill-rule="evenodd" clip-rule="evenodd" d="M128.5 182.8C128.5 182.8 136.429 187.608 152.288 197.223L128.5 203.963C128.5 189.854 128.5 182.8 128.5 182.8Z" fill="#B0E9FE"/>
</g>
<mask id="mask30_1755_602" style="mask-type:luminance" maskUnits="userSpaceOnUse" x="128" y="137" width="29" height="63">
<path d="M128.5 137.827C128.5 137.827 131.605 138.021 136.261 141.292C141.372 144.882 152.976 158.807 155.885 180.405C157.231 190.399 148.103 196.844 128.5 199.741C128.5 158.465 128.5 137.827 128.5 137.827Z" fill="white"/>
</mask>
<g mask="url(#mask30_1755_602)">
<path fill-rule="evenodd" clip-rule="evenodd" d="M128.5 194.452L147.682 200.373L128.5 201.695V194.452Z" fill="#2E6889"/>
</g>
<mask id="mask31_1755_602" style="mask-type:luminance" maskUnits="userSpaceOnUse" x="128" y="137" width="29" height="63">
<path d="M128.5 137.827C128.5 137.827 131.605 138.021 136.261 141.292C141.372 144.882 152.976 158.807 155.885 180.405C157.231 190.399 148.103 196.844 128.5 199.741C128.5 158.465 128.5 137.827 128.5 137.827Z" fill="white"/>
</mask>
<g mask="url(#mask31_1755_602)">
<path fill-rule="evenodd" clip-rule="evenodd" d="M128.5 168.752C129.144 168.752 133.43 169.816 141.356 171.945C143.642 172.555 144.999 174.903 144.388 177.188C144.357 177.304 144.321 177.419 144.281 177.532L142.789 181.681C142.285 183.085 141.258 184.24 139.924 184.906L128.5 190.608C128.5 179.648 128.5 172.363 128.5 168.752Z" fill="#08273B"/>
<path fill-rule="evenodd" clip-rule="evenodd" d="M128.5 172.973C128.837 172.973 132.77 173.959 140.299 175.933L128.5 182.798C128.5 178.851 128.5 175.576 128.5 172.973Z" fill="#224A66"/>
<path d="M136.072 187.878C138.739 187.878 140.901 185.716 140.901 183.05C140.901 180.383 138.739 178.221 136.072 178.221C133.405 178.221 131.243 180.383 131.243 183.05C131.243 185.716 133.405 187.878 136.072 187.878Z" fill="#03121F"/>
</g>
<path d="M128.5 63.6299H149.84C150.776 63.6299 151.689 63.9197 152.454 64.4595L154.938 66.2122" stroke="white" stroke-width="0.6"/>
<path fill-rule="evenodd" clip-rule="evenodd" d="M147.353 71.9365C146.218 70.6752 150.871 65.805 153.028 62.8553C167.015 43.724 177.258 32.5307 182.284 29.1795C188.038 25.3432 194.517 57.0535 196.282 78.3689C197.24 89.9278 191.778 98.9432 189.977 101.576C188.338 103.973 173.835 93.378 167.656 87.5762C164.732 84.8306 160.051 82.1708 156.054 79.2518C151.606 76.0024 147.951 72.6009 147.353 71.9365Z" fill="url(#paint4_linear_1755_602)"/>
<path d="M182.386 37.1758C175.661 45.9433 170.697 52.2418 167.495 56.0711C164.293 59.9005 160.255 65.0232 155.38 71.4393C157.3 73.9756 158.856 75.9071 160.049 77.2339C161.243 78.5606 163.009 80.3242 165.35 82.5246C167.344 82.0643 168.816 81.6863 169.767 81.3909C170.717 81.0954 171.811 80.6755 173.048 80.1312C174.214 81.59 175.139 82.6398 175.824 83.2804C176.509 83.921 178.359 85.2017 181.377 87.1224C183.859 79.4383 185.31 72.1951 185.73 65.3928C186.151 58.5905 185.036 49.1848 182.386 37.1758Z" fill="url(#paint5_linear_1755_602)"/>
<mask id="mask32_1755_602" style="mask-type:luminance" maskUnits="userSpaceOnUse" x="155" y="37" width="31" height="51">
<path d="M182.386 37.1768C175.661 45.9443 170.697 52.2427 167.495 56.0721C164.293 59.9014 160.255 65.0242 155.38 71.4403C157.3 73.9766 158.856 75.9081 160.049 77.2349C161.243 78.5616 163.009 80.3252 165.35 82.5256C167.344 82.0652 168.816 81.6873 169.767 81.3918C170.717 81.0964 171.811 80.6765 173.048 80.1321C174.214 81.591 175.139 82.6408 175.824 83.2814C176.509 83.922 178.359 85.2027 181.377 87.1234C183.859 79.4393 185.31 72.1961 185.73 65.3938C186.151 58.5915 185.036 49.1858 182.386 37.1768Z" fill="white"/>
</mask>
<g mask="url(#mask32_1755_602)">
<path fill-rule="evenodd" clip-rule="evenodd" d="M155.885 75.6611H173.616L184.469 82.0226L182.134 89.7696L160.176 80.5739L155.885 75.6611Z" fill="#113D67"/>
</g>
<mask id="mask33_1755_602" style="mask-type:luminance" maskUnits="userSpaceOnUse" x="155" y="37" width="31" height="51">
<path d="M182.386 37.1768C175.661 45.9443 170.697 52.2427 167.495 56.0721C164.293 59.9014 160.255 65.0242 155.38 71.4403C157.3 73.9766 158.856 75.9081 160.049 77.2349C161.243 78.5616 163.009 80.3252 165.35 82.5256C167.344 82.0652 168.816 81.6873 169.767 81.3918C170.717 81.0964 171.811 80.6765 173.048 80.1321C174.214 81.591 175.139 82.6408 175.824 83.2814C176.509 83.922 178.359 85.2027 181.377 87.1234C183.859 79.4393 185.31 72.1961 185.73 65.3938C186.151 58.5915 185.036 49.1858 182.386 37.1768Z" fill="white"/>
</mask>
<g mask="url(#mask33_1755_602)">
<path fill-rule="evenodd" clip-rule="evenodd" d="M159.229 60.6713C159.86 60.6713 165.329 60.3564 175.635 59.7266L160.176 79.3147L152.919 70.7488C156.495 64.0305 158.598 60.6713 159.229 60.6713Z" fill="url(#paint6_linear_1755_602)"/>
</g>
<path d="M147.244 70.9744C147.768 69.0321 151.248 65.2896 153.028 62.8553C167.015 43.724 177.258 32.5307 182.284 29.1795C188.038 25.3432 194.517 57.0535 196.282 78.3689C197.24 89.9278 191.778 98.9432 189.977 101.576L189.769 101.86" stroke="white" stroke-width="0.6"/>
<path d="M144.716 139.527C147.535 145.069 150.017 148.009 152.162 148.345C154.307 148.68 160.112 146.371 169.577 141.416L175.635 133.354C174.713 132.631 174.04 132.043 173.615 131.591C173.191 131.138 172.602 130.383 171.849 129.323C165.16 131.208 160.301 132.719 157.273 133.858C154.245 134.997 150.059 136.886 144.716 139.527Z" fill="#050F1A"/>
<mask id="mask34_1755_602" style="mask-type:luminance" maskUnits="userSpaceOnUse" x="144" y="129" width="32" height="20">
<path d="M144.716 139.527C147.535 145.069 150.017 148.009 152.162 148.345C154.307 148.68 160.112 146.371 169.577 141.416L175.635 133.354C174.713 132.631 174.04 132.043 173.615 131.591C173.191 131.138 172.602 130.383 171.849 129.323C165.16 131.208 160.301 132.719 157.273 133.858C154.245 134.997 150.059 136.886 144.716 139.527Z" fill="white"/>
</mask>
<g mask="url(#mask34_1755_602)">
<path d="M155.885 132.663C156.726 138.752 158.156 142.615 160.175 144.252C162.1 145.813 164.981 144.684 168.818 140.864C169.17 140.524 169.284 140.008 169.112 139.549L166.726 133.182C166.362 132.21 165.384 131.609 164.353 131.724L155.885 132.663Z" fill="#092338"/>
<mask id="mask35_1755_602" style="mask-type:luminance" maskUnits="userSpaceOnUse" x="155" y="131" width="15" height="14">
<path d="M155.885 132.664C156.726 138.753 158.156 142.616 160.175 144.253C162.1 145.814 164.981 144.685 168.818 140.865C169.17 140.525 169.284 140.009 169.112 139.55L166.726 133.183C166.362 132.211 165.384 131.61 164.353 131.725L155.885 132.664Z" fill="white"/>
</mask>
<g mask="url(#mask35_1755_602)">
<path fill-rule="evenodd" clip-rule="evenodd" d="M164.782 129.324L163.401 138.208C163.192 139.549 163.461 140.921 164.16 142.084L167.053 146.897L173.615 141.354L164.782 129.324Z" fill="#113147"/>
</g>
<mask id="mask36_1755_602" style="mask-type:luminance" maskUnits="userSpaceOnUse" x="155" y="131" width="15" height="14">
<path d="M155.885 132.664C156.726 138.753 158.156 142.616 160.175 144.253C162.1 145.814 164.981 144.685 168.818 140.865C169.17 140.525 169.284 140.009 169.112 139.55L166.726 133.183C166.362 132.211 165.384 131.61 164.353 131.725L155.885 132.664Z" fill="white"/>
</mask>
<g mask="url(#mask36_1755_602)">
<path fill-rule="evenodd" clip-rule="evenodd" d="M162.636 128.821C162.636 129.148 162.776 132.779 163.055 139.713C163.072 139.991 163.311 140.202 163.589 140.185C163.612 140.184 163.635 140.181 163.657 140.177C164.843 139.952 165.806 139.714 166.548 139.465C167.408 139.177 168.691 138.631 170.397 137.828L166.548 128.254C163.94 128.296 162.636 128.485 162.636 128.821Z" fill="#365E77"/>
</g>
</g>
<mask id="mask37_1755_602" style="mask-type:luminance" maskUnits="userSpaceOnUse" x="144" y="129" width="32" height="20">
<path d="M144.716 139.527C147.535 145.069 150.017 148.009 152.162 148.345C154.307 148.68 160.112 146.371 169.577 141.416L175.635 133.354C174.713 132.631 174.04 132.043 173.615 131.591C173.191 131.138 172.602 130.383 171.849 129.323C165.16 131.208 160.301 132.719 157.273 133.858C154.245 134.997 150.059 136.886 144.716 139.527Z" fill="white"/>
</mask>
<g mask="url(#mask37_1755_602)">
<g filter="url(#filter0_dd_1755_602)">
<path d="M157.761 140.243C160.07 141.576 163.024 140.785 164.357 138.476C165.691 136.166 164.899 133.213 162.59 131.879C160.28 130.546 157.327 131.337 155.993 133.647C154.66 135.956 155.451 138.91 157.761 140.243Z" fill="black"/>
</g>
<path d="M157.761 140.243C160.07 141.576 163.024 140.785 164.357 138.476C165.691 136.166 164.899 133.213 162.59 131.879C160.28 130.546 157.327 131.337 155.993 133.647C154.66 135.956 155.451 138.91 157.761 140.243Z" fill="#8BF2FF"/>
</g>
<defs>
<filter id="filter0_dd_1755_602" x="151.346" y="127.231" width="17.6592" height="17.6592" filterUnits="userSpaceOnUse" color-interpolation-filters="sRGB">
<feFlood flood-opacity="0" result="BackgroundImageFix"/>
<feColorMatrix in="SourceAlpha" type="matrix" values="0 0 0 0 0 0 0 0 0 0 0 0 0 0 0 0 0 0 127 0" result="hardAlpha"/>
<feOffset/>
<feGaussianBlur stdDeviation="2"/>
<feColorMatrix type="matrix" values="0 0 0 0 0.545098 0 0 0 0 0.94902 0 0 0 0 1 0 0 0 1 0"/>
<feBlend mode="normal" in2="BackgroundImageFix" result="effect1_dropShadow_1755_602"/>
<feColorMatrix in="SourceAlpha" type="matrix" values="0 0 0 0 0 0 0 0 0 0 0 0 0 0 0 0 0 0 127 0" result="hardAlpha"/>
<feOffset/>
<feGaussianBlur stdDeviation="0.5"/>
<feColorMatrix type="matrix" values="0 0 0 0 0.545098 0 0 0 0 0.94902 0 0 0 0 1 0 0 0 1 0"/>
<feBlend mode="normal" in2="effect1_dropShadow_1755_602" result="effect2_dropShadow_1755_602"/>
<feBlend mode="normal" in="SourceGraphic" in2="effect2_dropShadow_1755_602" result="shape"/>
</filter>
<linearGradient id="paint0_linear_1755_602" x1="9484" y1="348.363" x2="9484" y2="20659" gradientUnits="userSpaceOnUse">
<stop stop-color="#031937"/>
<stop offset="1" stop-color="#1292BD"/>
</linearGradient>
<linearGradient id="paint1_linear_1755_602" x1="9484" y1="23" x2="9484" y2="21098.6" gradientUnits="userSpaceOnUse">
<stop stop-color="#46A8EC"/>
<stop offset="1" stop-color="#ADF6F8"/>
</linearGradient>
<linearGradient id="paint2_linear_1755_602" x1="3839.18" y1="63.6299" x2="1784.21" y2="9093.46" gradientUnits="userSpaceOnUse">
<stop stop-color="#36AED1"/>
<stop offset="1" stop-color="#2D648E"/>
</linearGradient>
<linearGradient id="paint3_linear_1755_602" x1="4100.55" y1="100.479" x2="3624.68" y2="8586.89" gradientUnits="userSpaceOnUse">
<stop stop-color="#57D2F6"/>
<stop offset="1" stop-color="#429ADC"/>
</linearGradient>
<linearGradient id="paint4_linear_1755_602" x1="2789.08" y1="28.8613" x2="2390.71" y2="7323.19" gradientUnits="userSpaceOnUse">
<stop stop-color="#18586B"/>
<stop offset="1" stop-color="#1D7191"/>
</linearGradient>
<linearGradient id="paint5_linear_1755_602" x1="1677.22" y1="37.1758" x2="1677.22" y2="5031.84" gradientUnits="userSpaceOnUse">
<stop stop-color="#1D8CC0"/>
<stop offset="1" stop-color="#1D4C80"/>
</linearGradient>
<linearGradient id="paint6_linear_1755_602" x1="2424.46" y1="310.837" x2="774.015" y2="2011.08" gradientUnits="userSpaceOnUse">
<stop stop-color="#3095B4"/>
<stop offset="1" stop-color="#113D67"/>
</linearGradient>
</defs>
</svg>
