<svg width="256" height="256" viewBox="0 0 256 256" fill="none" xmlns="http://www.w3.org/2000/svg">
<g clip-path="url(#clip0_2005_1552)">
<path d="M256 128C256 57.3075 198.692 0 128 0C57.3075 0 0 57.3075 0 128C0 198.692 57.3075 256 128 256C198.692 256 256 198.692 256 128Z" fill="white"/>
<path fill-rule="evenodd" clip-rule="evenodd" d="M162.439 59.6299C165.347 56.1575 168.837 55 172.327 55C178.725 55 184.541 60.7874 183.96 67.1535V189.847C183.96 196.213 178.725 202 172.327 202C165.347 202 160.113 196.213 160.113 189.847V97.8268L75.7756 197.37C73.449 200.264 69.9592 201.421 67.051 201.421C61.2347 201.421 56 196.792 56 190.425C56 188.11 56.5816 185.795 58.9082 183.48L162.439 59.6299Z" fill="black"/>
</g>
<defs>
<clipPath id="clip0_2005_1552">
<rect width="256" height="256" fill="white"/>
</clipPath>
</defs>
</svg>
