<svg width="256" height="256" viewBox="0 0 256 256" fill="none" xmlns="http://www.w3.org/2000/svg">
<g clip-path="url(#clip0_2570_3493)">
<path d="M256 128C256 57.3076 198.692 0 128 0C57.3076 0 0 57.3076 0 128C0 198.692 57.3076 256 128 256C198.692 256 256 198.692 256 128Z" fill="black"/>
<path d="M122.502 19.1745C125.904 17.2101 130.096 17.2101 133.498 19.1745L170.118 40.317C173.521 42.2813 175.617 45.9116 175.617 49.8403V92.1253C175.617 96.0539 173.521 99.6843 170.118 101.649L133.498 122.791C130.096 124.756 125.904 124.756 122.502 122.791L85.8819 101.649C82.4798 99.6843 80.3838 96.0539 80.3838 92.1253V49.8403C80.3838 45.9116 82.4798 42.2813 85.8819 40.317L122.502 19.1745Z" fill="#FFFF00"/>
<path d="M70.8177 108.247C74.2204 106.282 78.4124 106.282 81.8145 108.247L118.434 129.389C121.837 131.354 123.933 134.984 123.933 138.913V181.198C123.933 185.127 121.837 188.757 118.434 190.721L81.8145 211.864C78.4124 213.828 74.2204 213.828 70.8182 211.864L34.198 190.721C30.7957 188.757 28.6997 185.127 28.6997 181.198V138.913C28.6997 134.984 30.7957 131.354 34.198 129.389L70.8177 108.247Z" fill="#009BED"/>
<path d="M174.186 108.247C177.588 106.282 181.78 106.282 185.183 108.247L221.802 129.389C225.205 131.354 227.3 134.984 227.3 138.913V181.198C227.3 185.127 225.205 188.757 221.802 190.721L185.183 211.864C181.78 213.828 177.588 213.828 174.186 211.864L137.566 190.721C134.163 188.757 132.068 185.127 132.068 181.198V138.913C132.068 134.984 134.163 131.354 137.566 129.389L174.186 108.247Z" fill="#FF331F"/>
</g>
<defs>
<clipPath id="clip0_2570_3493">
<rect width="256" height="256" fill="white"/>
</clipPath>
</defs>
</svg>
