<svg width="256" height="256" viewBox="0 0 256 256" fill="none" xmlns="http://www.w3.org/2000/svg">
<g clip-path="url(#clip0_2303_107)">
<path fill-rule="evenodd" clip-rule="evenodd" d="M128 0C198.697 0 256 57.3026 256 128C256 198.697 198.697 256 128 256C57.3026 256 0 198.697 0 128C0 57.3026 57.3026 0 128 0Z" fill="#1A1623"/>
<g filter="url(#filter0_f_2303_107)">
<path fill-rule="evenodd" clip-rule="evenodd" d="M129.48 36.8013C132.656 36.8013 136.03 37.6011 138.888 39.3207L203.592 75.712C206.414 77.283 208.772 79.5803 210.425 82.3696C212.078 85.1588 212.967 88.3399 213 91.5882V164.691C213 171.089 209.269 177.208 203.592 180.527L138.888 216.678C136.034 218.355 132.784 219.225 129.48 219.198C126.181 219.187 122.941 218.32 120.072 216.678L55.3682 180.287C52.5501 178.704 50.1986 176.398 48.553 173.602C46.9074 170.806 46.0265 167.621 46 164.371V91.5882C46 85.1897 49.6917 79.0712 55.4079 75.712L120.39 39.3207C123.157 37.6799 126.309 36.8103 129.52 36.8013H129.48Z" fill="url(#paint0_linear_2303_107)"/>
</g>
<path fill-rule="evenodd" clip-rule="evenodd" d="M129.028 46.8235C133.027 46.8235 136.775 47.948 140.273 49.7388L193.664 79.6828C197.056 81.5222 199.89 84.2407 201.868 87.5529C203.847 90.8651 204.897 94.649 204.909 98.5071V158.104C204.909 165.933 200.619 173.096 193.664 176.928L140.273 206.622C136.844 208.602 132.946 209.624 128.987 209.579C125.031 209.636 121.133 208.629 117.701 206.664L64.3927 176.886C60.9934 175.052 58.1512 172.336 56.1651 169.024C54.179 165.711 53.1224 161.924 53.1064 158.062V98.5071C53.1064 90.6776 57.3961 83.5143 64.3511 79.6828L117.784 49.7388C121.205 47.7805 125.087 46.7739 129.028 46.8235ZM129.028 53.8202C126.394 53.8299 123.808 54.5338 121.532 55.8609L67.8494 85.555C65.551 86.8522 63.6288 88.724 62.271 90.9871C60.9131 93.2502 60.1661 95.827 60.1031 98.4655V157.895C60.1031 163.309 63.185 168.099 67.8494 170.806L121.199 200.5C123.57 201.836 126.245 202.537 128.966 202.537C131.687 202.537 134.362 201.836 136.733 200.5L190.083 171.056C192.381 169.759 194.303 167.887 195.661 165.624C197.019 163.361 197.766 160.784 197.829 158.145V98.4655C197.791 95.8216 197.054 93.2348 195.694 90.9674C194.333 88.7 192.398 86.8328 190.083 85.555L136.775 55.8192C134.406 54.5005 131.739 53.8121 129.028 53.8202ZM129.403 73.1859C131.486 73.1859 133.61 73.6024 135.525 74.9767L173.799 96.2166C175.633 97.1958 177.167 98.6542 178.238 100.436C179.308 102.218 179.876 104.258 179.879 106.337V148.775C179.879 152.815 177.547 156.896 173.757 158.895L135.484 180.135C133.61 181.259 131.527 181.717 129.403 181.717C127.279 181.717 125.155 181.259 123.281 180.135L85.0079 158.895C83.1739 157.916 81.6398 156.457 80.569 154.675C79.4983 152.893 78.9309 150.854 78.9274 148.775V106.129C78.9274 102.047 81.2597 98.0074 85.0079 95.9667L123.323 74.7269C125.155 73.644 127.279 73.1859 129.403 73.1859ZM129.403 79.0165C128.445 79.0165 127.321 79.2663 126.363 79.9327L88.298 101.173C87.399 101.71 86.6494 102.464 86.1182 103.366C85.5869 104.269 85.2911 105.29 85.2577 106.337V148.983C85.2577 151.232 86.4239 153.064 88.298 154.189L126.613 175.387C127.529 176.053 128.445 176.303 129.653 176.303C130.819 176.303 131.736 175.845 132.693 175.387L170.967 154.147C171.868 153.613 172.62 152.859 173.152 151.956C173.683 151.053 173.977 150.03 174.007 148.983V106.378C174.007 104.129 172.841 102.339 170.967 101.173L132.444 79.9743C131.561 79.338 130.491 79.0155 129.403 79.0581V79.0165ZM129.82 99.5483C130.944 99.5483 131.902 99.7565 132.818 100.465L152.559 111.293C154.391 112.417 155.557 114.375 155.599 116.499V138.405C155.599 140.654 154.433 142.444 152.559 143.569L132.818 154.397C131.902 155.105 130.944 155.313 129.778 155.313C128.82 155.313 127.696 154.897 126.738 154.439L107.039 143.611C106.126 143.075 105.365 142.316 104.826 141.406C104.287 140.495 103.988 139.462 103.957 138.405V116.499C103.957 114.208 105.123 112.417 107.039 111.293L126.738 100.465C127.654 99.7565 128.612 99.5483 129.778 99.5483H129.82ZM130.028 104.962H129.528L109.829 115.791L109.621 138.155L129.528 149.441L149.727 138.613L149.977 116.249L129.986 105.004L130.028 104.962Z" fill="white"/>
</g>
<defs>
<filter id="filter0_f_2303_107" x="18" y="8.80127" width="223" height="238.397" filterUnits="userSpaceOnUse" color-interpolation-filters="sRGB">
<feFlood flood-opacity="0" result="BackgroundImageFix"/>
<feBlend mode="normal" in="SourceGraphic" in2="BackgroundImageFix" result="shape"/>
<feGaussianBlur stdDeviation="14" result="effect1_foregroundBlur_2303_107"/>
</filter>
<linearGradient id="paint0_linear_2303_107" x1="221.018" y1="128" x2="37.057" y2="128" gradientUnits="userSpaceOnUse">
<stop stop-color="#5346E6"/>
<stop offset="1" stop-color="#EF359C"/>
</linearGradient>
<clipPath id="clip0_2303_107">
<rect width="256" height="256" fill="white"/>
</clipPath>
</defs>
</svg>
