<svg width="264" height="263" viewBox="0 0 264 263" fill="none" xmlns="http://www.w3.org/2000/svg">
<circle cx="132" cy="132" r="128" fill="#252736"/>
<path d="M132 259.6C202.692 259.6 260 202.293 260 131.6C260 60.9076 202.692 3.6001 132 3.6001C61.3076 3.6001 4 60.9076 4 131.6C4 202.293 61.3076 259.6 132 259.6Z" stroke="#F5C09A" stroke-width="6.7463" stroke-miterlimit="10" stroke-linecap="round" stroke-linejoin="round"/>
<path d="M132 168.589V259.6" stroke="#F5C09A" stroke-width="6.7463" stroke-miterlimit="10" stroke-linecap="round" stroke-linejoin="round"/>
<path d="M132 3.6001V30.5248" stroke="#F5C09A" stroke-width="6.7463" stroke-miterlimit="10" stroke-linecap="round" stroke-linejoin="round"/>
<path d="M132 168.589L44.7739 99.6002L132 30.5249L219.226 99.6002L180.258 130.396" stroke="#F5C09A" stroke-width="6.7463" stroke-miterlimit="10" stroke-linecap="round" stroke-linejoin="round"/>
<path d="M205.806 174.697L219.226 164.03V99.6001" stroke="#F5C09A" stroke-width="6.7463" stroke-miterlimit="10" stroke-linecap="round" stroke-linejoin="round"/>
<path d="M44.7739 99.6001V164.03L132 233.105L171.398 201.966" stroke="#F5C09A" stroke-width="6.7463" stroke-miterlimit="10" stroke-linecap="round" stroke-linejoin="round"/>
<path d="M60.0858 176.159L45.2041 201.966H92.688" stroke="#F5C09A" stroke-width="6.7463" stroke-miterlimit="10" stroke-linecap="round" stroke-linejoin="round"/>
<path d="M132 201.966H218.796L132 51.6001L86.6665 130.224" stroke="#F5C09A" stroke-width="6.7463" stroke-miterlimit="10" stroke-linecap="round" stroke-linejoin="round"/>
</svg>
