<svg width="320" height="320" viewBox="0 0 320 320" fill="none" xmlns="http://www.w3.org/2000/svg">
<path d="M160 307.9C241.848 307.9 308.2 241.549 308.2 159.7C308.2 77.8514 241.848 11.5 160 11.5C78.1512 11.5 11.7998 77.8514 11.7998 159.7C11.7998 241.549 78.1512 307.9 160 307.9Z" fill="#10151B" stroke="#F5C09A" stroke-width="11.66" stroke-linecap="round" stroke-linejoin="round"/>
<path d="M160 202.6V307.9" stroke="#F5C09A" stroke-width="11.66" stroke-linecap="round" stroke-linejoin="round"/>
<path d="M160 11.5V42.7" stroke="#F5C09A" stroke-width="11.66" stroke-linecap="round" stroke-linejoin="round"/>
<path d="M160 202.599L59 122.699L160 42.6992L261 122.699L215.9 158.399" stroke="#F5C09A" stroke-width="10.69" stroke-linecap="round" stroke-linejoin="round"/>
<path d="M245.5 209.599L261 197.299V122.699" stroke="#F5C09A" stroke-width="10.69" stroke-linecap="round" stroke-linejoin="round"/>
<path d="M59 122.699V197.299L160 277.199L205.6 241.199" stroke="#F5C09A" stroke-width="10.69" stroke-linecap="round" stroke-linejoin="round"/>
<path d="M76.7 211.301L59.5 241.201H114.4" stroke="#F5C09A" stroke-width="10.69" stroke-linecap="round" stroke-linejoin="round"/>
<path d="M161.9 241.2H260.5L160 67.0996L107.5 158.1" stroke="#F5C09A" stroke-width="10.69" stroke-linecap="round" stroke-linejoin="round"/>
</svg>
