<svg width="256" height="256" viewBox="0 0 256 256" fill="none" xmlns="http://www.w3.org/2000/svg">
<path d="M128.858 0.000706881C154.137 0.170258 178.8 7.82126 199.736 21.9889C220.672 36.1565 236.945 56.2063 246.501 79.6098C256.058 103.013 258.47 128.723 253.435 153.496C248.399 178.269 236.141 200.996 218.207 218.811C200.272 236.627 177.463 248.733 152.657 253.602C127.852 258.472 102.159 255.888 78.8203 246.175C55.4813 236.462 35.5409 220.056 21.5137 199.025C7.48647 177.995 0.000568594 153.281 0 128.002C0.114758 93.9402 13.7551 61.3192 37.9206 37.3146C62.086 13.3099 94.7972 -0.112222 128.858 0.000706881Z" fill="white"/>
<path d="M125.867 44.5464V139.225C125.867 139.673 125.749 140.112 125.525 140.5C125.301 140.887 124.978 141.208 124.59 141.43L51.7951 183.361C51.3169 183.631 50.7645 183.737 50.2203 183.668C49.676 183.598 49.169 183.353 48.7748 182.971C48.3806 182.589 48.1203 182.091 48.0327 181.548C47.945 181.006 48.0348 180.451 48.2885 179.964L121.074 43.3478C122.321 41.0189 125.867 41.8951 125.867 44.5464Z" fill="#DB0170"/>
<path d="M130.658 44.5464V139.225C130.658 139.673 130.777 140.112 131.001 140.5C131.224 140.886 131.546 141.207 131.934 141.43L204.73 183.361C205.209 183.637 205.765 183.749 206.314 183.682C206.862 183.613 207.374 183.368 207.771 182.984C208.168 182.598 208.43 182.094 208.515 181.548C208.601 181.002 208.506 180.442 208.246 179.954L135.447 43.3478C134.2 41.0189 130.658 41.8951 130.658 44.5464Z" fill="#00F2C8"/>
<path d="M126.44 145.358L55.0056 186.679C54.5203 186.959 54.1412 187.393 53.927 187.911C53.7129 188.43 53.6756 189.004 53.821 189.545C53.9665 190.087 54.2865 190.565 54.7314 190.907C55.1764 191.248 55.7214 191.432 56.2819 191.431H199.15C199.71 191.431 200.255 191.246 200.699 190.904C201.144 190.563 201.463 190.085 201.608 189.544C201.753 189.002 201.715 188.428 201.502 187.911C201.287 187.393 200.908 186.959 200.423 186.679L128.989 145.344C128.6 145.123 128.16 145.007 127.713 145.009C127.265 145.011 126.826 145.132 126.44 145.358Z" fill="#3542FE"/>
</svg>
