<svg width="256" height="256" viewBox="0 0 256 256" fill="none" xmlns="http://www.w3.org/2000/svg">
<g clip-path="url(#clip0_1856_2455)">
<path d="M256 127.998C256 161.946 242.514 194.504 218.509 218.509C194.504 242.514 161.946 256 127.998 256C94.0514 255.999 61.495 242.513 37.491 218.509C13.487 194.505 0.00116778 161.95 0 128.002C-2.00871e-08 94.0551 13.4853 61.4975 37.4895 37.4926C61.4936 13.4876 94.0505 0.00116783 127.998 0C161.946 -2.00871e-08 194.503 13.4853 218.508 37.4895C242.512 61.4935 255.999 94.0505 256 127.998Z" fill="#F6006B"/>
<path d="M179 161C179 166.039 173.574 170.872 163.916 174.435C154.257 177.998 141.158 180 127.499 180C113.841 180 100.742 177.998 91.0843 174.435C81.4264 170.872 76.0005 166.039 76 161C76 155.961 81.4257 151.129 91.0837 147.565C100.742 144.002 113.841 142 127.499 142C141.158 142 154.257 144.002 163.915 147.565C173.573 151.128 179 155.961 179 161Z" fill="#EEF651"/>
<path d="M218.997 106.849L177.872 133.028C210.312 107.484 210.312 79.9608 210.312 79.9608L167.266 121.791C196.238 74.4816 185.633 55 185.633 55L151.345 111.999C143.824 109.957 136.072 108.925 128.287 108.93H127.738C119.953 108.925 112.201 109.957 104.68 111.999L70.3921 55C70.3921 55 58.3891 72.8835 87.3614 120.192L45.7869 79.9608C45.7869 79.9608 41.5447 104.414 76.2066 131.506C76.0319 131.785 37.003 106.849 37.003 106.849C37.003 106.849 36.0047 130.339 70.3921 149.187V149.795C70.3921 175.34 96.0206 201.721 127.788 202H128.337C160.054 201.721 185.732 175.34 185.732 149.795V149.187C219.996 130.339 218.997 106.849 218.997 106.849ZM108.598 175.466C108.598 175.466 98.4163 176.126 92.5519 170.165C86.6876 164.204 87.4112 153.879 87.4112 153.879C87.4112 153.879 97.5928 153.195 103.457 159.181C109.321 165.168 108.598 175.466 108.598 175.466ZM163.498 170.165C157.634 176.126 147.477 175.466 147.477 175.466C147.477 175.466 146.828 165.142 152.693 159.181C158.557 153.22 168.714 153.879 168.714 153.879C168.714 153.879 169.287 164.204 163.398 170.165H163.498Z" fill="#121533"/>
</g>
<defs>
<clipPath id="clip0_1856_2455">
<rect width="256" height="256" fill="white"/>
</clipPath>
</defs>
</svg>
