<svg width="256" height="256" viewBox="0 0 256 256" fill="none" xmlns="http://www.w3.org/2000/svg">
<g clip-path="url(#clip0_2005_1584)">
<path d="M128 256C198.692 256 256 198.692 256 128C256 57.3076 198.692 0 128 0C57.3076 0 0 57.3076 0 128C0 198.692 57.3076 256 128 256Z" fill="url(#paint0_linear_2005_1584)"/>
<mask id="mask0_2005_1584" style="mask-type:alpha" maskUnits="userSpaceOnUse" x="0" y="0" width="256" height="256">
<path d="M128 256C198.692 256 256 198.692 256 128C256 57.3076 198.692 0 128 0C57.3076 0 0 57.3076 0 128C0 198.692 57.3076 256 128 256Z" fill="#E5E5E5"/>
</mask>
<g mask="url(#mask0_2005_1584)">
<path d="M252.221 307.291C247.069 295.56 234.965 287.863 217.337 284.946C203.06 282.587 185.494 283.704 170.286 287.863C161.41 265.579 160.417 241.62 159.486 218.467C159.424 216.357 159.299 214.246 159.237 212.136C159.175 207.356 160.541 201.149 167.183 198.852C170.472 197.549 173.824 196.121 177.052 194.321C178.107 193.763 179.162 193.142 180.218 192.459C187.418 187.865 193.811 181.224 197.412 170.734C197.474 170.672 197.474 170.609 197.474 170.548L197.536 170.299V170.237C199.646 162.602 199.77 154.595 198.032 146.898L191.452 118.346C190.46 114.062 188.908 110.028 186.797 106.303C188.163 105 203.681 89.3576 201.943 65.3981C201.571 60.8669 199.336 59.4394 197.474 59.0047C191.142 57.5148 179.721 65.7708 171.217 73.9638C170.969 73.6536 170.659 73.2814 170.41 72.9711C167.741 69.9912 164.203 68.0052 160.293 67.2602C156.63 66.6397 152.844 67.0119 149.43 68.5018C149.492 67.5705 149.616 66.6397 149.803 65.7084C150.113 64.0945 150.672 62.6051 151.479 61.1772C152.286 59.8117 153.279 58.5701 154.52 57.5148C154.644 57.3909 154.768 57.267 154.831 57.1426C154.893 57.0187 154.893 56.8323 154.893 56.646C154.893 56.5221 154.83 56.3976 154.768 56.2737C154.706 56.1493 154.644 56.0254 154.52 55.9635C154.396 55.901 154.272 55.7771 154.148 55.7771C154.023 55.7151 153.899 55.7151 153.713 55.7151C152.596 55.7771 151.541 55.9635 150.485 56.3357C149.492 56.7079 148.499 57.1426 147.568 57.7012C146.14 58.5081 144.899 59.5633 143.782 60.8049C143.471 59.8736 143.037 58.9428 142.602 58.0739C141.92 56.646 141.051 55.3424 139.995 54.1633C139.871 53.9769 139.685 53.9149 139.499 53.853C139.312 53.7905 139.064 53.7905 138.878 53.853C138.629 53.9149 138.382 54.1013 138.257 54.3496C138.133 54.5974 138.071 54.9082 138.195 55.1566C138.629 56.584 138.878 58.0115 139.002 59.5014C139.126 60.9913 139.126 62.4807 138.878 63.9087C138.754 64.9014 138.567 65.9567 138.257 66.95C136.085 65.7084 133.602 65.0259 131.119 65.0259C128.636 65.0259 126.153 65.7708 124.043 67.0739C123.919 66.2669 123.857 65.5225 123.795 64.7156C123.546 62.3568 123.67 60.06 124.105 57.7012C124.539 55.4668 125.594 53.4183 127.146 51.8045C127.271 51.6801 127.395 51.4942 127.457 51.3078C127.519 51.1217 127.519 50.9355 127.457 50.7493C127.395 50.6251 127.333 50.5009 127.271 50.3768C127.208 50.2527 127.084 50.1906 126.96 50.1285C126.836 50.0665 126.712 50.0044 126.588 50.0044C126.464 50.0044 126.339 50.0044 126.153 50.0665C122.863 50.9975 119.822 52.5494 117.215 54.7219C115.911 55.839 114.794 57.1426 113.801 58.5081C113.118 59.5014 112.436 60.6186 111.939 61.7358C109.89 59.8117 107.346 58.3842 104.614 57.6392C101.883 56.8943 98.9658 56.8323 96.2348 57.5148C96.0485 57.5773 95.8621 57.6392 95.7382 57.7631C95.6138 57.8876 95.5518 58.0739 95.4899 58.2598C95.4899 58.4461 95.4899 58.6325 95.5518 58.8184C95.6138 59.0047 95.7382 59.1292 95.9246 59.2531C97.6623 60.3083 99.0902 61.7358 100.083 63.5359C99.1522 63.5359 98.1589 63.5979 97.2281 63.7223C93.4413 64.2809 89.8415 65.9567 87.048 68.5638C84.255 71.1709 82.3304 74.6469 81.5235 78.3711C81.2752 79.5503 81.1513 80.7919 81.1513 82.0335C80.7166 82.0335 80.2205 82.0335 79.7858 82.0954C70.6615 73.6536 57.0673 64.219 50.1776 66.205C48.3775 66.7636 46.2049 68.3155 46.0808 72.8467C45.5843 97.5512 62.9021 112.511 63.3987 112.945C64.6403 114 65.8819 114.869 67.123 115.49C66.0058 118.656 65.2609 121.945 64.8267 125.297L61.4127 154.285C60.4814 162.23 61.5366 170.299 64.5159 177.748C71.7786 193.266 84.7517 198.604 97.4759 202.763C104.304 204.935 102.752 213.253 98.2209 237.895C95.9865 249.999 92.9447 266.511 89.9034 287.987C89.7795 288.794 87.11 308.533 87.731 316.975C87.8549 324.237 88.9101 331.437 90.8342 338.452C90.8967 338.7 92.6344 344.162 93.2555 345.652C93.3794 345.9 103.497 370.667 125.657 379.109C126.464 380.971 130.25 390.095 125.657 395.247C124.912 395.868 120.815 399.406 120.629 402.385C120.567 402.82 120.629 403.192 120.753 403.627C120.877 403.999 121.126 404.372 121.374 404.682C121.933 405.241 122.677 405.675 123.422 405.924C124.167 406.172 124.974 406.296 125.781 406.234C127.395 406.172 128.947 405.924 130.436 405.365C134.595 404.806 139.002 403.627 140.368 398.971C140.554 398.289 140.678 397.544 140.616 396.799V381.715C141.547 382.274 142.478 382.771 143.409 383.205C144.154 385.067 147.63 394.564 142.85 399.965C142.106 400.586 137.885 404.247 137.637 407.289C137.575 407.723 137.637 408.158 137.823 408.531C137.947 408.903 138.195 409.275 138.444 409.586C139.623 410.827 141.299 411.2 142.975 411.2C144.589 411.137 146.264 410.889 147.816 410.33C152.099 409.772 156.63 408.531 158.058 403.751C158.244 403.006 158.369 402.261 158.307 401.516V383.019C159.92 382.15 164.824 379.046 170.162 371.97C170.845 371.039 171.527 370.108 172.149 369.177H172.211C177.673 369.239 183.135 368.929 188.535 368.246C188.598 368.308 188.721 368.37 188.783 368.432C191.949 369.798 194.743 371.908 196.915 374.639C197.412 375.633 200.826 383.392 197.039 387.674C196.418 388.171 193.067 391.088 192.88 393.571C192.88 393.944 192.88 394.316 193.004 394.626C193.129 394.937 193.315 395.247 193.563 395.558C194.06 396.054 194.618 396.365 195.301 396.613C195.922 396.861 196.605 396.923 197.287 396.923C198.591 396.923 199.894 396.675 201.136 396.24C204.55 395.806 208.212 394.813 209.329 390.964C209.515 390.405 209.578 389.785 209.578 389.164V374.515C210.571 373.336 211.377 372.032 211.999 370.667C215.288 373.398 218.889 375.757 222.737 377.681C223.42 379.233 226.771 387.24 222.799 391.771C222.116 392.33 218.516 395.433 218.33 398.102C218.267 398.475 218.33 398.847 218.454 399.22C218.578 399.592 218.764 399.903 219.012 400.151C219.509 400.648 220.192 401.02 220.813 401.268C221.496 401.516 222.24 401.641 222.923 401.578C224.351 401.578 225.716 401.268 227.082 400.833C230.806 400.337 234.716 399.282 235.896 395.123C236.082 394.502 236.144 393.819 236.144 393.199V377.37C241.606 371.412 246.076 364.646 249.49 357.322C255.138 345.776 259.918 327.713 252.221 307.291ZM156.693 382.46C156.63 382.46 156.568 382.46 156.506 382.398C156.568 382.398 156.63 382.336 156.693 382.336C156.755 382.398 156.693 382.398 156.693 382.46Z" fill="#FFFEFB"/>
</g>
</g>
<defs>
<linearGradient id="paint0_linear_2005_1584" x1="0" y1="128" x2="256" y2="128" gradientUnits="userSpaceOnUse">
<stop stop-color="#FF874F"/>
<stop offset="1" stop-color="#FF6F5F"/>
</linearGradient>
<clipPath id="clip0_2005_1584">
<rect width="256" height="256" fill="white"/>
</clipPath>
</defs>
</svg>
