<svg width="256" height="256" viewBox="0 0 256 256" fill="none" xmlns="http://www.w3.org/2000/svg">
<g clip-path="url(#clip0_2304_128)">
<path d="M256 128C256 57.3075 198.692 0 128 0C57.3075 0 0 57.3075 0 128C0 198.692 57.3075 256 128 256C198.692 256 256 198.692 256 128Z" fill="#FFE81C"/>
<path d="M118.131 31.3103C123.943 28.0163 131.057 28.0163 136.869 31.3103L172.087 51.2722L206.984 71.7914C212.743 75.1774 216.3 81.3388 216.353 88.0189L216.675 128.5L216.353 168.981C216.3 175.661 212.743 181.823 206.984 185.209L172.087 205.728L136.869 225.69C131.057 228.984 123.943 228.984 118.131 225.69L82.9125 205.728L48.0157 185.209C42.2572 181.823 38.6999 175.661 38.6468 168.981L38.325 128.5L38.6468 88.0189C38.6999 81.3388 42.2572 75.1774 48.0157 71.7914L82.9125 51.2722L118.131 31.3103Z" fill="#1E1E1E" fill-opacity="0.95"/>
<path d="M135.051 109.254L135.081 97.863L105.441 80.8534L75.8137 97.9586L75.7755 132.103L105.364 149.142L151.44 122.54L167.862 131.993L167.837 150.942L151.389 160.438L134.966 150.986L134.996 139.594L121.817 147.203L121.787 158.594L151.376 175.633L181.003 158.528L181.041 124.384L151.453 107.345L105.377 133.946L88.9545 124.494L88.9798 105.545L105.479 96.0195L121.902 105.472L121.872 116.863L135.051 109.254Z" fill="#8C800F"/>
</g>
<defs>
<clipPath id="clip0_2304_128">
<rect width="256" height="256" fill="white"/>
</clipPath>
</defs>
</svg>
