<svg width="256" height="256" viewBox="0 0 256 256" fill="none" xmlns="http://www.w3.org/2000/svg">
<g clip-path="url(#clip0_2006_2)">
<path d="M256 128C256 57.3075 198.692 0 128 0C57.3075 0 0 57.3075 0 128C0 198.692 57.3075 256 128 256C198.692 256 256 198.692 256 128Z" fill="black"/>
<path d="M54.0977 194C53.9934 191.902 53.9587 189.805 54.063 187.707C54.7582 187.497 55.4535 187.357 56.1835 187.252C58.2694 186.903 60.3552 186.378 62.3715 185.784C62.9277 185.609 63.4839 185.399 64.0401 185.19C66.7169 184.141 69.0808 182.393 70.8886 180.155C72.14 178.582 73.2177 176.869 74.1563 175.086C75.4773 172.638 76.6245 170.086 77.6675 167.499C79.7533 162.255 81.8391 157.045 83.8901 151.801C90.9819 133.761 98.0737 115.721 105.165 97.6803C111.875 80.514 118.48 63.3478 124.946 46.0766C125.085 45.727 125.224 45.3774 125.363 45.0278C127.762 44.3635 130.091 43.6643 132.524 43C132.663 43.3496 132.803 43.6643 132.907 43.9789C135.653 51.6705 138.399 59.3621 141.111 67.0887C150.462 93.345 159.814 119.566 169.409 145.718C172.051 152.85 174.693 160.017 177.369 167.149C178.412 170.051 179.664 172.918 181.089 175.645C181.715 176.834 182.375 177.953 183.105 179.071C185.33 182.567 188.772 185.05 192.77 186.099C194.925 186.658 197.08 187.113 199.305 187.392L200.87 187.637C201.078 188.336 200.974 189 200.974 189.665C200.974 190.329 200.974 191.098 200.974 191.797C201.009 192.497 200.974 193.161 200.939 193.86C200.731 193.895 200.557 193.93 200.348 193.965C200.105 193.965 199.861 193.965 199.618 193.965H145.352C145.283 193.86 145.248 193.72 145.213 193.58C145.213 191.693 145.213 189.805 145.213 187.917C145.213 187.847 145.248 187.742 145.283 187.672C145.735 187.532 146.187 187.462 146.673 187.392C148.933 187.078 151.158 186.658 153.383 186.064C154.252 185.819 155.156 185.504 155.99 185.155C156.407 184.98 156.824 184.77 157.241 184.525C159.431 183.302 160.301 181.379 160.092 178.931C159.988 177.813 159.814 176.729 159.501 175.645C159.049 173.967 158.458 172.324 157.902 170.715C146.499 138.725 135.236 106.7 124.077 74.6055C123.973 74.2558 123.903 73.8713 123.555 73.5566C123.451 73.6265 123.277 73.6965 123.208 73.7664C123.103 73.9412 123.034 74.116 122.999 74.2908C117.541 90.0586 111.736 105.721 105.965 121.349C101.689 132.922 97.4132 144.529 93.4501 156.206C91.851 160.891 90.3214 165.611 88.8266 170.331C88.2356 172.149 87.8184 174.002 87.5403 175.855C87.3317 177.113 87.297 178.372 87.436 179.666C87.6098 181.309 88.4789 182.812 89.8347 183.791C90.7038 184.42 91.6772 184.91 92.7201 185.26C94.354 185.854 96.0226 186.273 97.726 186.553C99.6033 186.903 101.481 187.182 103.393 187.462C103.532 187.497 103.636 187.497 103.81 187.532C103.844 187.672 103.879 187.812 103.914 187.952C103.914 189.77 103.914 191.623 103.914 193.441C103.914 193.545 103.879 193.65 103.844 193.755C103.671 193.79 103.497 193.825 103.323 193.825C103.08 193.825 102.836 193.825 102.593 193.825L54.0977 194Z" fill="white"/>
</g>
<defs>
<clipPath id="clip0_2006_2">
<rect width="256" height="256" fill="white"/>
</clipPath>
</defs>
</svg>
