<svg width="256" height="256" viewBox="0 0 256 256" fill="none" xmlns="http://www.w3.org/2000/svg">
<g clip-path="url(#clip0_2570_3498)">
<mask id="mask0_2570_3498" style="mask-type:luminance" maskUnits="userSpaceOnUse" x="0" y="0" width="256" height="256">
<path d="M127.973 255.946C198.651 255.946 255.946 198.651 255.946 127.973C255.946 57.2955 198.651 0 127.973 0C57.2955 0 0 57.2955 0 127.973C0 198.651 57.2955 255.946 127.973 255.946Z" fill="white"/>
</mask>
<g mask="url(#mask0_2570_3498)">
<path d="M127.919 294.052C72.8654 294.052 17.7576 294.052 -37.2961 294.052C-37.9438 294.052 -38.0518 293.89 -38.0518 293.296C-38.0518 183.081 -38.0518 72.9194 -38.0518 -37.2961C-38.0518 -37.9438 -37.8898 -38.0518 -37.2961 -38.0518C72.9194 -38.0518 183.081 -38.0518 293.296 -38.0518C293.944 -38.0518 294.052 -37.8898 294.052 -37.2961C294.052 72.9194 294.052 183.081 294.052 293.296C294.052 293.944 293.89 294.052 293.296 294.052C238.189 294.052 183.027 294.052 127.919 294.052Z" fill="#FBFBFB"/>
<path d="M84.9557 167.428C84.5779 168.616 84.308 169.641 83.9842 170.667C82.257 175.632 79.3964 179.681 75.1864 182.919C70.5986 186.373 65.471 187.885 59.9117 188.532C55.7017 189.018 51.5457 189.234 47.3357 188.694C40.0491 187.777 32.9785 186.103 26.5556 182.379C21.8598 179.681 19.2151 175.578 18.7293 170.181C18.5134 167.374 19.377 164.784 20.7263 162.409C24.3426 155.77 26.7175 148.645 28.5526 141.305C30.1179 134.936 30.0099 128.621 28.5526 122.252C27.3112 116.747 26.2317 111.187 25.584 105.52C24.8824 99.7986 25.0443 94.0773 25.584 88.3021C26.0158 83.6063 27.2572 79.1804 29.3083 74.9704C32.8166 67.6299 38.0521 62.1785 45.7704 59.2099C49.9804 57.5907 54.2444 57.0509 58.6703 57.1589C60.0196 57.1589 61.315 57.1589 62.6644 57.3748C62.8803 57.3748 63.0962 57.4827 63.2041 57.1589C64.1217 54.2443 66.2806 52.3552 68.4936 50.5201C72.3258 47.3895 76.3738 44.6369 80.7457 42.3699C84.7398 40.3189 89.0038 39.5093 93.4297 39.1855C99.4748 38.6997 105.412 38.9156 111.295 40.3189C116.369 41.5603 121.119 43.4494 125.706 45.8783C126.678 46.364 127.272 46.364 128.243 45.7163C132.993 42.4779 138.282 40.5348 144.004 39.5633C151.56 38.2679 158.793 39.4553 166.025 41.5064C172.286 43.2875 178.007 45.9862 183.027 50.1422C183.459 50.5201 183.999 50.8439 184.322 51.3297C185.024 52.3012 185.942 52.5171 187.129 52.4092C190.691 52.0313 194.146 52.8949 197.6 53.8125C200.461 54.6221 203.213 55.6476 205.966 56.7811C213.091 59.8036 218.38 64.7693 222.05 71.4621C227.448 81.2314 230.147 91.7564 230.362 102.875C230.47 108.812 230.362 114.695 230.74 120.633C231.064 125.166 231.496 129.646 232.252 134.126C232.953 137.958 234.626 141.413 236.623 144.705C238.081 147.134 239.646 149.509 241.319 151.83C242.723 153.773 244.072 155.824 244.612 158.199C245.367 161.545 244.45 164.676 242.723 167.482C240.726 170.721 238.405 173.743 235.544 176.388C231.658 179.95 226.962 181.839 221.996 183.243C215.412 185.132 208.773 185.348 202.134 183.998C196.305 182.811 191.717 179.519 188.316 174.661C187.939 174.121 187.723 174.067 187.183 174.445C178.709 179.896 169.479 183.513 159.494 185.186C152.963 186.265 146.378 186.751 139.74 186.697C129.215 186.535 119.014 184.484 108.974 181.3C101.742 178.979 95.1569 175.417 89.0578 170.991C87.6544 169.965 86.413 168.724 85.0637 167.482L84.9557 167.428Z" fill="black"/>
<path d="M127.865 47.1197C135.422 41.9922 143.626 39.6713 152.532 40.0491C156.904 40.211 161.168 41.2905 165.378 42.424C171.477 44.0972 177.036 46.6879 181.948 50.682C185.564 53.5966 188.371 57.2129 190.691 61.207C192.095 63.6359 192.527 66.3885 193.228 69.0873C193.39 69.627 192.958 69.5191 192.688 69.5191C190.206 69.4111 187.669 69.5191 185.294 70.1667C180.22 71.5701 175.471 73.5132 171.692 77.3993C171.585 77.5072 171.531 77.6152 171.369 77.7771C171.746 77.7771 171.908 77.5612 172.124 77.4533C176.064 74.4847 180.436 72.3257 185.24 71.2462C194.362 69.1952 202.296 71.678 208.773 78.5328C210.446 80.3139 211.526 82.5269 212.281 85.0636C211.903 84.8478 211.633 84.6858 211.418 84.5239C206.506 81.7712 201.324 79.9901 195.603 80.206C189.774 80.4219 184.269 82.0411 179.195 85.0097C177.576 85.9272 175.902 86.7369 174.337 88.1402C175.093 87.9243 175.687 87.7624 176.226 87.5465C176.766 87.3306 177.306 87.1147 177.792 86.7908C180.598 85.3335 183.351 83.7683 186.373 82.8507C191.285 81.3934 196.251 80.5838 201.324 81.7712C207.423 83.1745 212.767 85.9812 217.193 90.4611C218.434 91.7025 219.46 93.1058 220.269 94.6711C220.377 94.887 220.539 95.0489 220.539 95.4267C220.431 95.3188 220.323 95.3188 220.269 95.2108C216.329 91.0008 211.364 88.9498 205.75 88.2481C197.33 87.1686 189.342 88.8958 181.57 91.8104C174.985 94.2933 168.94 97.7476 163.165 101.796C161.815 102.713 161.815 103.091 163.003 104.171C168.832 109.406 175.633 112.86 183.297 114.588C191.393 116.477 199.381 116.261 207.208 113.292C207.747 113.076 208.233 112.698 208.719 112.698C209.205 112.698 209.313 113.508 209.69 113.832C210.446 114.48 211.202 115.181 212.011 115.883C213.954 117.556 215.682 119.391 217.84 120.795C218.38 121.172 218.812 121.604 219.19 122.144C219.73 122.9 219.676 123.439 218.974 124.033C218.542 124.411 218.056 124.789 217.571 125.113C214.062 127.487 210.554 129.862 206.83 131.913C199.975 135.638 192.635 137.689 184.97 138.714C178.493 139.524 172.016 139.74 165.539 139.955C153.557 140.387 141.737 139.146 130.078 136.285C125.329 135.152 120.579 134.18 115.721 133.748C113.076 133.533 110.378 133.64 107.787 133.964C103.199 134.558 101.04 139.632 103.793 143.302C104.98 144.867 106.384 146.163 107.949 147.296C112.591 150.75 117.664 153.449 123.17 155.284C130.24 157.713 137.257 160.304 144.435 162.247C149.131 163.542 153.827 164.892 158.685 165.431C160.412 165.593 162.085 165.701 163.812 165.755C171.207 166.025 178.655 166.025 185.996 165C189.774 164.46 193.444 163.65 196.952 162.193C199.165 161.275 201.162 160.088 202.944 158.523C203.861 157.713 204.617 156.795 205.211 155.77C207.423 151.938 208.557 147.836 207.909 143.464C207.423 140.117 205.75 137.311 202.89 135.26C202.836 135.26 202.728 135.206 202.512 135.044C204.401 134.288 205.966 133.479 207.531 132.561C207.855 132.399 208.071 132.561 208.233 132.831C208.665 133.317 208.989 133.856 209.205 134.45C210.5 137.689 211.633 140.981 212.173 144.435C212.821 148.483 212.065 152.37 210.608 156.148C207.855 163.218 202.242 167.266 195.441 170.019C191.663 171.53 187.561 172.016 183.567 172.61C179.411 173.258 175.201 173.635 170.991 173.474C165.324 173.258 159.71 172.232 154.259 170.613C148.645 168.94 143.032 167.32 137.473 165.485C137.365 165.485 137.257 165.485 137.149 165.485C138.39 166.187 139.686 166.673 141.035 167.105C146.972 169.102 152.748 171.422 158.847 172.934C165.809 174.661 172.826 175.201 179.897 174.283C182.271 173.959 184.592 173.635 186.967 173.312C186.967 173.527 186.751 173.581 186.643 173.635C178.169 178.871 169.102 182.433 159.224 183.998C151.614 185.24 144.004 185.726 136.339 185.24C124.357 184.484 112.753 182.055 101.796 177.09C95.8047 174.391 90.3533 170.883 85.4956 166.349C85.2797 166.133 85.1717 165.971 85.2257 165.647C86.5211 160.088 86.3052 154.421 86.1972 148.807C86.0893 143.032 85.8734 137.311 85.1717 131.589C84.4161 125.436 82.9048 119.499 81.3396 113.508C80.2601 109.352 78.9647 105.25 77.4534 101.256C76.9676 100.015 77.0216 98.6112 76.9676 97.2618C76.8597 94.5631 76.3739 91.9184 75.6723 89.3276C75.6723 89.1657 75.6183 89.0038 75.5103 88.8418C75.2944 88.518 75.3484 87.7624 74.8087 87.9243C74.4308 88.0322 74.8087 88.6259 74.9166 88.9498C75.5103 91.9184 76.0501 94.9409 76.158 97.9635C75.8881 97.8016 75.8342 97.4777 75.7262 97.2079C74.6467 94.5631 73.0815 92.2422 71.8941 89.6515C71.7861 89.4895 71.7321 89.2736 71.4623 89.3276C71.1924 89.4356 71.2464 89.7054 71.3003 89.8674C71.5162 90.4071 71.6782 90.9468 71.8941 91.4326C76.6438 100.446 79.3965 110.108 81.7713 119.985C83.7144 128.081 84.7399 136.231 84.9558 144.543C85.0638 148.915 85.2257 153.287 85.0638 157.659C84.9558 162.139 84.1462 166.457 82.6349 170.667C79.5044 179.195 73.2434 184.376 64.4456 186.427C57.267 188.101 49.9805 188.101 42.694 186.751C37.2426 185.726 32.061 184.106 27.1494 181.462C22.6695 179.033 20.1327 175.309 19.539 170.289C19.2691 167.914 20.0788 165.701 20.9963 163.542C21.59 162.139 22.3996 160.844 23.0473 159.44C26.5557 152.262 28.8226 144.759 30.118 136.879C30.9276 131.913 30.3339 126.948 29.3084 122.036C28.1749 116.585 27.0414 111.133 26.3398 105.628C25.6381 99.7986 25.8 93.9694 26.3398 88.1402C26.7716 82.7967 28.3368 77.8851 30.9276 73.2973C36.379 63.5279 44.8529 58.5083 55.9716 58.1305C58.2925 58.0225 60.6674 58.0765 62.9883 58.4543C63.2042 58.4543 63.4201 58.4543 63.636 58.4543C64.0678 58.3464 64.3916 58.1305 63.8519 57.7527C63.4201 57.4288 63.528 57.1589 63.69 56.7811C64.4456 55.2159 65.5251 53.8125 66.8205 52.6251C70.8685 48.9549 75.4024 45.9323 80.2061 43.2876C84.0383 41.1826 88.1943 40.265 92.5122 39.8872C98.1795 39.4014 103.847 39.5094 109.46 40.6428C112.159 41.1826 114.75 41.9922 117.286 43.0177C122.846 45.2306 128.135 48.0373 133.101 51.3297C133.209 51.3837 133.263 51.4377 133.371 51.4916C133.695 51.6536 134.018 51.8155 134.288 51.4916C134.558 51.1678 134.288 50.8979 133.964 50.682C132.993 49.9264 131.967 49.2247 130.834 48.631C129.808 48.0913 128.783 47.4976 127.649 46.8499L127.865 47.1197Z" fill="#FDCE00"/>
<path d="M208.611 132.183C211.255 130.618 213.738 128.891 216.275 127.217C217.354 126.516 218.434 125.76 219.405 124.951C220.593 123.979 220.755 122.684 219.837 121.442C219.459 120.956 219.082 120.471 218.596 120.147C216.005 118.204 213.738 115.883 211.201 113.832C209.474 112.482 209.528 112.428 211.363 111.403C215.789 108.866 219.297 105.466 221.618 100.824C221.888 100.23 222.104 99.6366 222.374 99.0429C222.536 98.6111 222.698 98.1253 222.212 97.7475C222.104 97.6935 222.104 97.5316 222.05 97.3697C221.726 94.563 220.161 92.404 218.434 90.353C216.977 88.6798 215.303 87.2225 213.468 85.9271C213.144 85.7112 212.982 85.4413 212.929 85.0096C212.659 82.7966 211.795 80.8535 210.5 79.0724C206.614 73.8908 201.432 70.9223 195.117 69.7888C194.307 69.6269 193.93 69.411 193.876 68.5474C193.228 62.9341 190.583 58.2923 186.913 54.1363C186.643 53.8664 186.427 53.5425 186.049 53.1647C188.478 53.0028 190.691 53.1647 192.85 53.6505C197.492 54.5141 201.918 56.0254 206.236 57.9145C213.09 60.937 218.002 66.0106 221.456 72.5955C226.422 82.0949 228.959 92.1881 229.067 102.875C229.121 109.46 229.067 116.045 229.553 122.63C229.876 126.624 230.254 130.564 230.956 134.504C231.658 138.39 233.331 141.844 235.274 145.191C236.731 147.674 238.35 150.103 240.078 152.423C241.103 153.773 242.021 155.23 242.722 156.795C243.532 158.63 243.802 160.52 243.316 162.463C242.776 164.784 241.859 166.996 240.401 168.886C238.62 171.153 236.947 173.527 234.788 175.524C231.118 178.871 226.746 180.706 222.104 182.055C215.519 183.998 208.826 184.214 202.188 182.919C196.574 181.785 192.04 178.763 188.802 173.959C188.316 173.258 188.37 173.15 189.234 172.988C194.469 172.07 199.165 170.073 203.483 166.996C208.88 163.164 211.849 157.875 213.09 151.452C214.062 146.486 212.982 141.844 211.309 137.257C210.662 135.422 210.014 133.586 208.611 132.129V132.183Z" fill="#FECE00"/>
<path d="M180.49 140.279C183.783 139.793 186.967 139.685 190.044 139.038C193.336 138.336 196.628 137.527 199.759 136.285C200.569 135.961 201.162 135.691 201.972 136.447C202.728 137.095 203.537 137.688 204.185 138.498C206.884 141.898 207.369 145.677 206.398 149.779C206.128 151.02 205.75 152.208 205.264 153.395C203.861 156.849 201.27 159.062 197.978 160.681C193.552 162.84 188.748 163.758 183.945 164.352C176.28 165.269 168.562 165.107 160.844 164.676C156.634 164.46 152.531 163.38 148.483 162.355C139.092 159.926 129.916 156.741 120.795 153.395C115.829 151.56 111.349 148.807 107.247 145.515C106.114 144.597 105.142 143.572 104.332 142.384C102.983 140.387 103.145 138.66 104.872 136.933C106.006 135.745 107.301 135.152 109.028 135.044C111.997 134.882 114.911 134.882 117.88 135.26C119.121 135.422 120.201 135.853 121.226 136.609C124.789 139.308 128.351 142.006 132.021 144.651C138.174 149.131 144.058 153.989 150.319 158.253C153.719 160.574 157.335 162.517 161.383 163.38C165.377 164.244 169.479 164.406 173.473 163.704C178.655 162.733 182.109 159.602 183.675 154.582C185.24 149.509 184.214 144.867 180.76 140.765C180.652 140.657 180.598 140.549 180.436 140.387L180.49 140.279Z" fill="#F1345E"/>
<path d="M122.09 135.799C124.249 136.231 126.408 136.663 128.567 137.149C135.152 138.606 141.736 139.955 148.483 140.603C154.798 141.197 161.113 141.197 167.482 140.981C171.314 140.819 175.093 140.603 178.925 140.441C179.411 140.441 179.734 140.603 180.004 140.927C183.567 144.975 185.348 152.369 180.976 158.145C178.763 161.059 175.74 162.517 172.178 162.84C169.209 163.164 166.241 163.11 163.272 162.679C159.602 162.139 156.363 160.627 153.179 158.792C149.509 156.687 146.162 154.043 142.816 151.452C136.231 146.378 129.484 141.521 122.792 136.555C122.576 136.393 122.306 136.177 122.09 136.015C122.09 135.961 122.09 135.853 122.09 135.799Z" fill="#FE6A7B"/>
<path d="M211.363 90.731C215.465 92.2422 218.704 94.6171 221.349 97.9095C221.672 98.3413 221.511 98.6112 221.349 98.9351C219.136 103.685 215.681 107.355 211.147 109.946C205.21 113.4 198.733 114.696 191.933 114.48C181.624 114.102 172.448 110.647 164.46 104.063C164.298 103.955 164.19 103.793 164.028 103.685C163.488 103.307 163.596 103.091 164.082 102.767C167.482 100.284 171.099 98.1254 174.823 96.1824C176.928 95.1029 179.087 94.0774 181.408 93.1598C181.3 94.6711 181.3 96.1284 181.57 97.5317C182.865 104.44 188.748 110.216 195.765 111.511C200.676 112.375 205.21 111.511 208.935 108.003C213.36 103.901 214.44 97.4777 211.795 91.7565C211.687 91.4866 211.525 91.2167 211.309 90.7849L211.363 90.731Z" fill="#FEFEFE"/>
<path d="M188.1 93.1597C190.097 93.1597 191.663 94.8329 191.609 96.8839C191.609 98.6111 190.313 99.6366 188.262 99.6366C186.427 99.6366 184.97 98.1253 184.97 96.1822C184.97 94.509 186.319 93.1597 188.046 93.1597H188.1Z" fill="#FEFEFE"/>
<path d="M151.776 100.392C151.398 93.2676 148.213 88.0861 141.089 85.2255C137.904 83.9301 134.558 83.4443 131.103 83.2824C122.899 82.9585 115.181 84.7937 108.056 88.8417C104.818 90.6769 101.633 92.566 98.8268 95.0488C99.0967 94.4011 99.6904 93.6454 100.716 92.7819C107.301 87.6003 114.587 83.9301 122.953 82.6887C127.865 81.933 132.777 81.987 137.634 83.0125C140.819 83.6602 143.733 85.0096 146.378 86.8987C146.594 87.0606 146.756 87.2765 147.134 87.3305C147.134 86.7367 147.026 86.197 146.918 85.6033C145.407 78.9644 141.413 74.7005 134.882 72.7574C126.839 70.3286 119.121 71.2461 111.403 74.1607C108.218 75.3482 105.304 77.1293 102.335 78.8565C102.011 79.0724 101.687 79.2343 101.256 79.2883C101.58 79.0184 101.957 78.7485 102.281 78.4787C107.355 74.8624 112.806 71.9478 119.067 70.9762C125.328 70.0047 131.481 70.0587 137.472 72.5415C143.571 75.0783 146.702 79.828 147.943 86.0351C148.051 86.6828 148.105 87.3844 148.105 88.0861C148.105 88.4099 148.213 88.5719 148.429 88.7878C151.182 91.8643 152.477 95.4806 152.693 99.5826C152.693 100.608 152.531 101.742 153.395 102.659C153.665 102.929 153.395 103.361 153.233 103.685C151.938 107.139 149.779 110.054 147.026 112.482C142.33 116.692 136.717 119.013 130.51 119.823C116.638 121.658 104.44 117.772 93.8612 108.65C93.6453 108.434 93.4294 108.218 93.2675 108.003C92.8897 107.571 92.9436 107.139 93.4294 106.761C94.0231 106.329 94.6168 105.898 95.2105 105.52C102.821 100.392 110.863 96.2362 119.823 94.0233C125.706 92.566 131.697 91.9183 137.742 92.8898C143.086 93.8074 147.835 95.9124 151.506 100.068C151.506 100.122 151.614 100.176 151.776 100.284V100.392Z" fill="black"/>
<path d="M99.7444 148.106C98.6109 147.674 97.8553 146.864 97.1536 146.055C95.1566 143.734 93.6453 141.251 93.5913 138.066C93.5913 136.393 94.0231 134.882 94.9946 133.533C98.9887 128.135 105.034 126.03 111.727 129.053C112.104 129.215 112.482 129.431 112.752 129.754C112.86 129.916 112.968 130.078 112.806 130.294C112.644 130.51 112.482 130.294 112.32 130.24C107.948 128.189 102.443 127.865 98.1251 131.536C96.8837 132.561 95.8582 133.748 95.2645 135.314C94.4009 137.473 94.6168 139.578 95.6423 141.629C96.5059 143.302 97.5314 144.867 98.8268 146.271C99.3126 146.756 99.6904 147.296 99.7444 148.106Z" fill="#010100"/>
<path d="M112.375 97.8554C112.213 100.014 112.375 102.011 112.968 103.955C115.451 112.321 124.573 117.826 133.101 116.153C141.737 114.426 146.487 105.52 143.14 97.2077C142.924 96.668 142.654 96.1283 142.384 95.5345C142.708 95.4266 142.924 95.6425 143.14 95.7504C146.648 97.2077 149.617 99.3667 152.046 102.335C152.478 102.875 152.478 103.199 152.208 103.793C149.239 110 144.328 114.102 138.067 116.638C130.024 119.823 121.766 119.931 113.454 117.88C106.761 116.261 100.716 113.184 95.4268 108.758C94.4013 107.895 94.4013 107.895 95.4268 107.139C100.446 103.577 105.79 100.554 111.457 98.1793C111.727 98.0713 111.943 97.9634 112.321 97.8554H112.375Z" fill="#FEFEFE"/>
<path d="M118.527 98.1794C120.524 98.1794 122.09 99.7987 122.09 101.85C122.09 103.577 120.848 104.656 118.797 104.656C116.908 104.656 115.505 103.199 115.505 101.256C115.505 99.5828 116.854 98.1794 118.527 98.1794Z" fill="#FEFEFE"/>
</g>
</g>
<defs>
<clipPath id="clip0_2570_3498">
<rect width="256" height="256" fill="white"/>
</clipPath>
</defs>
</svg>
