<svg width="256" height="256" viewBox="0 0 256 256" fill="none" xmlns="http://www.w3.org/2000/svg">
<path d="M128.858 0.000706881C154.137 0.170258 178.8 7.82126 199.736 21.9889C220.672 36.1565 236.945 56.2063 246.501 79.6098C256.058 103.013 258.47 128.723 253.435 153.496C248.399 178.269 236.141 200.996 218.207 218.811C200.272 236.627 177.463 248.733 152.657 253.602C127.852 258.472 102.159 255.888 78.8203 246.175C55.4813 236.462 35.5409 220.056 21.5137 199.025C7.48647 177.995 0.000568594 153.281 0 128.002C0.114758 93.9402 13.7551 61.3192 37.9206 37.3146C62.086 13.3099 94.7972 -0.112222 128.858 0.000706881Z" fill="url(#paint0_radial_1728_55)"/>
<path d="M49.6638 161.439L127.977 82.3242L206.291 161.439L167.134 200.996L127.977 161.439L88.8203 200.996L49.6638 161.439Z" fill="#FAF1E7"/>
<path d="M127.978 161.437L88.8203 200.999L80.989 181.409L127.978 133.94V161.437Z" fill="#131620"/>
<path d="M49.6582 161.429L88.8195 200.987L80.9886 181.409L34 133.94L49.6582 161.429ZM127.977 161.437L167.134 200.999L174.965 181.409L127.977 133.94V161.437Z" fill="#FAF1E7"/>
<path d="M206.296 161.429L167.134 200.987L174.966 181.409L221.954 133.94L206.296 161.429Z" fill="#131620"/>
<path d="M34.001 133.937L127.977 39L221.954 133.937L174.965 181.407L127.977 133.938L80.9893 181.406L34.001 133.937Z" fill="url(#paint1_linear_1728_55)"/>
<defs>
<radialGradient id="paint0_radial_1728_55" cx="0" cy="0" r="1" gradientUnits="userSpaceOnUse" gradientTransform="translate(128 128) rotate(90) scale(128)">
<stop stop-color="#682140"/>
<stop offset="0.47" stop-color="#98315D"/>
<stop offset="1" stop-color="#FF8D79"/>
</radialGradient>
<linearGradient id="paint1_linear_1728_55" x1="34.0025" y1="110.202" x2="221.954" y2="110.202" gradientUnits="userSpaceOnUse">
<stop stop-color="#FAF1E7"/>
<stop offset="0.26" stop-color="#FDCEAA"/>
<stop offset="0.612" stop-color="#F4837D"/>
<stop offset="1" stop-color="#B9AAFD"/>
</linearGradient>
</defs>
</svg>
