<svg width="627" height="626" viewBox="0 0 627 626" fill="none" xmlns="http://www.w3.org/2000/svg">
<path d="M315 451.072C385.692 451.072 443 393.748 443 323.036C443 252.324 385.692 195 315 195C244.308 195 187 252.324 187 323.036C187 393.748 244.308 451.072 315 451.072Z" fill="url(#paint0_linear_1950_2684)"/>
<path d="M315 346.073C330.069 346.073 342.284 333.854 342.284 318.781C342.284 303.709 330.069 291.49 315 291.49C299.932 291.49 287.717 303.709 287.717 318.781C287.717 333.854 299.932 346.073 315 346.073Z" fill="#FFFBE5"/>
<g filter="url(#filter0_f_1950_2684)">
<path d="M368.29 278.468C368.29 278.468 367.932 288.921 378.847 292.643C378.847 292.643 367.391 296.186 368.287 308.001H366.858C366.858 308.001 367.574 296.544 356.836 293.233C356.836 293.233 366.678 289.386 368.29 278.468Z" fill="#F748E7"/>
</g>
<path d="M368.29 278.468C368.29 278.468 367.932 288.921 378.847 292.643C378.847 292.643 367.391 296.186 368.287 308.001H366.858C366.858 308.001 367.574 296.544 356.836 293.233C356.836 293.233 366.678 289.386 368.29 278.468Z" fill="#EFD32B"/>
<g filter="url(#filter1_f_1950_2684)">
<path d="M426.83 282.991C426.801 281.007 425.523 280.665 425.523 280.665L419.956 278.167L420.813 271.179C382.167 243.631 350.011 270.455 350.011 270.455C348.456 216.011 318.291 200.597 318.291 200.597C318.291 200.597 314.633 205.704 311.728 206.109C308.823 206.514 304.969 202.063 304.969 202.063C276.962 220.399 276.518 270.436 276.513 271.147C277.343 271.642 278.172 272.159 279 272.7C279.827 273.24 279.925 272.726 280.369 274.55C283.368 232.872 302.372 220.297 303.767 217.772C305.163 215.248 307.715 216.638 309.931 220.035C312.146 223.433 318.155 215.399 318.155 215.399C339.785 226.242 347.121 278.313 347.121 278.313C378.7 252.339 407.211 277.155 407.211 277.155C407.211 277.155 405.829 281.023 405.383 282.473C404.936 283.924 411.914 285.5 411.914 285.5C415.151 324.41 361.689 334.369 361.689 334.369C395.039 361.517 386.692 397.351 386.101 398.086C385.511 398.82 377.929 399.167 377.929 399.167C378.128 404.454 376.584 405.68 376.584 405.68C334.173 414.983 314.142 365.387 314.142 365.387C296.677 412.062 257.678 411.821 254.789 411.505C251.899 411.189 254.324 404.658 252.874 404.049C251.424 403.44 244.942 404.169 244.942 404.169C231.719 364.781 266.493 335.577 266.493 335.577C216.916 332.004 213.857 289.605 213.857 289.605L220.67 287.096L219.605 279.296C251.985 258.483 279.454 278.384 279.454 278.384L280.539 278.527C280.69 276.674 280.586 275.412 280.377 274.55C280.353 274.861 280.332 275.172 280.311 275.485L277.474 272.245L277.043 271.753L276.52 271.155C270.179 267.439 263.414 264.497 256.372 262.392C225.175 258.77 206.659 274.325 206.659 274.325C207.417 276.716 207.255 281.891 207.255 281.891C201.854 282.453 200.582 285.719 200.582 285.719C203.537 337.618 258.13 338.83 258.13 338.83C219.555 379.097 233.749 411.186 233.572 414.474C233.394 417.761 241.441 415.556 242.086 415.781C242.731 416.005 242.397 420.424 242.104 422.191C241.812 423.958 242.021 424.679 242.021 424.679C295.141 431.806 314.281 372.835 314.281 372.835C314.542 373.541 314.79 374.233 315.051 374.926C335.053 427.159 386.06 418.883 386.06 418.883C388.223 418.849 387.627 410.922 387.627 410.922C388.095 411.048 396.139 409.425 396.139 409.425C406.59 362.808 369.023 335.093 369.023 335.093C426.581 325.92 426.861 284.974 426.83 282.991Z" fill="#FF5E9C"/>
</g>
<path d="M277.036 271.754L277.467 272.246L280.305 275.486C280.325 275.173 280.346 274.862 280.37 274.551C279.926 272.721 279.001 272.7 279.001 272.7C278.175 272.159 277.346 271.641 276.514 271.148L277.036 271.754Z" fill="#FF5E9C"/>
<path d="M426.831 282.991C426.802 281.008 425.524 280.666 425.524 280.666L419.957 278.167L420.814 271.179C382.168 243.632 350.012 270.455 350.012 270.455C348.457 216.011 318.292 200.598 318.292 200.598C318.292 200.598 314.634 205.704 311.729 206.109C308.824 206.514 304.97 202.064 304.97 202.064C276.963 220.399 276.519 270.437 276.514 271.148C277.344 271.642 278.173 272.16 279.001 272.7C279.828 273.24 279.926 272.726 280.37 274.55C283.369 232.873 302.373 220.297 303.768 217.773C305.164 215.248 307.716 216.638 309.932 220.036C312.147 223.433 318.156 215.4 318.156 215.4C339.786 226.242 347.122 278.313 347.122 278.313C378.701 252.339 407.212 277.156 407.212 277.156C407.212 277.156 405.83 281.024 405.384 282.474C404.937 283.924 411.915 285.5 411.915 285.5C415.152 324.41 361.69 334.37 361.69 334.37C395.04 361.517 386.693 397.352 386.102 398.086C385.512 398.82 377.93 399.168 377.93 399.168C378.129 404.455 376.585 405.68 376.585 405.68C334.174 414.984 314.143 365.388 314.143 365.388C296.678 412.062 257.679 411.822 254.79 411.506C251.9 411.189 254.325 404.659 252.875 404.05C251.425 403.441 244.943 404.17 244.943 404.17C231.72 364.781 266.494 335.577 266.494 335.577C216.917 332.005 213.858 289.606 213.858 289.606L220.671 287.097L219.605 279.296C251.986 258.483 279.455 278.384 279.455 278.384L280.54 278.528C280.691 276.675 280.587 275.413 280.378 274.55C280.354 274.861 280.333 275.172 280.312 275.486L277.475 272.245L277.044 271.754L276.521 271.156C270.18 267.439 263.415 264.497 256.373 262.393C225.176 258.771 206.66 274.326 206.66 274.326C207.418 276.717 207.256 281.891 207.256 281.891C201.855 282.453 200.583 285.72 200.583 285.72C203.538 337.618 258.131 338.831 258.131 338.831C219.556 379.097 233.75 411.187 233.573 414.474C233.395 417.762 241.442 415.556 242.087 415.781C242.732 416.006 242.398 420.425 242.105 422.192C241.813 423.958 242.022 424.679 242.022 424.679C295.142 431.806 314.282 372.836 314.282 372.836C314.543 373.541 314.791 374.234 315.052 374.926C335.054 427.16 386.061 418.883 386.061 418.883C388.224 418.849 387.628 410.923 387.628 410.923C388.096 411.048 396.14 409.425 396.14 409.425C406.591 362.808 369.024 335.094 369.024 335.094C426.582 325.921 426.862 284.975 426.831 282.991Z" fill="#FF5E9C"/>
<g filter="url(#filter2_f_1950_2684)">
<path d="M268.968 244.484C268.968 244.484 268.42 259.816 285.143 265.278C285.143 265.278 267.594 270.482 268.966 287.813H266.774C266.774 287.813 267.871 271.007 251.422 266.149C251.422 266.149 266.499 260.501 268.968 244.484Z" fill="#F748E7"/>
</g>
<path d="M268.968 244.484C268.968 244.484 268.42 259.816 285.143 265.278C285.143 265.278 267.594 270.482 268.966 287.813H266.774C266.774 287.813 267.871 271.007 251.422 266.149C251.422 266.149 266.499 260.501 268.968 244.484Z" fill="#EFD32B"/>
<g filter="url(#filter3_f_1950_2684)">
<path d="M278.774 346.072C278.774 346.072 278.513 353.361 286.139 355.959C286.139 355.959 278.149 358.431 278.774 366.673H277.776C277.776 366.673 278.275 358.684 270.787 356.374C270.787 356.371 277.65 353.688 278.774 346.072Z" fill="#F748E7"/>
</g>
<path d="M278.774 346.072C278.774 346.072 278.513 353.361 286.139 355.959C286.139 355.959 278.149 358.431 278.774 366.673H277.776C277.776 366.673 278.275 358.684 270.787 356.374C270.787 356.371 277.65 353.688 278.774 346.072Z" fill="#EFD32B"/>
<g filter="url(#filter4_f_1950_2684)">
<path d="M346.781 370.189C346.809 372.561 348.371 374.658 350.634 375.363C352.898 376.069 346.454 376.657 346.781 380.969H346.258C346.258 380.969 346.52 376.788 342.601 375.58C342.601 375.58 346.193 374.174 346.781 370.189Z" fill="#F748E7"/>
</g>
<path d="M346.78 370.188C346.808 372.56 348.37 374.657 350.633 375.363C352.897 376.069 346.453 376.657 346.78 380.969H346.257C346.257 380.969 346.519 376.787 342.6 375.58C342.6 375.58 346.192 374.174 346.78 370.188Z" fill="#EFD32B"/>
<defs>
<filter id="filter0_f_1950_2684" x="276.836" y="198.468" width="182.012" height="189.534" filterUnits="userSpaceOnUse" color-interpolation-filters="sRGB">
<feFlood flood-opacity="0" result="BackgroundImageFix"/>
<feBlend mode="normal" in="SourceGraphic" in2="BackgroundImageFix" result="shape"/>
<feGaussianBlur stdDeviation="40" result="effect1_foregroundBlur_1950_2684"/>
</filter>
<filter id="filter1_f_1950_2684" x="0.581879" y="0.597015" width="626.249" height="624.68" filterUnits="userSpaceOnUse" color-interpolation-filters="sRGB">
<feFlood flood-opacity="0" result="BackgroundImageFix"/>
<feBlend mode="normal" in="SourceGraphic" in2="BackgroundImageFix" result="shape"/>
<feGaussianBlur stdDeviation="100" result="effect1_foregroundBlur_1950_2684"/>
</filter>
<filter id="filter2_f_1950_2684" x="153.499" y="146.561" width="229.566" height="239.175" filterUnits="userSpaceOnUse" color-interpolation-filters="sRGB">
<feFlood flood-opacity="0" result="BackgroundImageFix"/>
<feBlend mode="normal" in="SourceGraphic" in2="BackgroundImageFix" result="shape"/>
<feGaussianBlur stdDeviation="48.9613" result="effect1_foregroundBlur_1950_2684"/>
</filter>
<filter id="filter3_f_1950_2684" x="190.829" y="266.114" width="175.269" height="180.518" filterUnits="userSpaceOnUse" color-interpolation-filters="sRGB">
<feFlood flood-opacity="0" result="BackgroundImageFix"/>
<feBlend mode="normal" in="SourceGraphic" in2="BackgroundImageFix" result="shape"/>
<feGaussianBlur stdDeviation="39.9793" result="effect1_foregroundBlur_1950_2684"/>
</filter>
<filter id="filter4_f_1950_2684" x="262.655" y="290.244" width="168.407" height="170.671" filterUnits="userSpaceOnUse" color-interpolation-filters="sRGB">
<feFlood flood-opacity="0" result="BackgroundImageFix"/>
<feBlend mode="normal" in="SourceGraphic" in2="BackgroundImageFix" result="shape"/>
<feGaussianBlur stdDeviation="39.9727" result="effect1_foregroundBlur_1950_2684"/>
</filter>
<linearGradient id="paint0_linear_1950_2684" x1="315" y1="201.175" x2="315" y2="444.596" gradientUnits="userSpaceOnUse">
<stop stop-color="#132442"/>
<stop offset="1" stop-color="#0B488B"/>
</linearGradient>
</defs>
</svg>
