<svg width="256" height="256" viewBox="0 0 256 256" fill="none" xmlns="http://www.w3.org/2000/svg">
<g clip-path="url(#clip0_2570_3516)">
<path d="M128 256C198.692 256 256 198.692 256 128C256 57.3076 198.692 0 128 0C57.3076 0 0 57.3076 0 128C0 198.692 57.3076 256 128 256Z" fill="#356DF3"/>
<path d="M191.516 76.3627L138.518 48.2653C132.009 44.8077 124.252 44.8077 117.743 48.2363L64.193 76.4497C56.1152 81.302 48.5608 87.0261 48.2412 103.704V117.157H69.0744V98.7648L128.145 67.268L186.78 98.7648V117.157H207.613V103.704C207.265 86.9391 199.652 81.2441 191.516 76.3627Z" fill="white"/>
<path d="M186.751 159.056L138.547 186.049V164.257C155.487 160.276 166.644 146.475 166.644 128.024C166.644 105.651 151.186 90.6292 128.145 90.6292C105.104 90.6292 89.646 105.651 89.646 128.024C89.646 146.504 100.774 160.276 117.743 164.257V186.078L69.1036 159.056V138.949H48.2412V152.373C48.5899 169.022 56.1152 174.775 64.193 179.628L117.743 207.841C124.252 211.27 132.039 211.27 138.518 207.812L191.487 179.715C199.623 174.862 207.265 169.138 207.584 152.373V138.949H186.751V159.056ZM108.997 128.024C108.997 115.762 115.796 109.021 128.145 109.021C140.494 109.021 147.293 115.762 147.293 128.024C147.293 139.908 140.145 147.026 128.145 147.026C116.145 147.026 108.997 139.937 108.997 128.024Z" fill="white"/>
</g>
<defs>
<clipPath id="clip0_2570_3516">
<rect width="256" height="256" fill="white"/>
</clipPath>
</defs>
</svg>
