<svg width="256" height="256" viewBox="0 0 256 256" fill="none" xmlns="http://www.w3.org/2000/svg">
<path d="M128 255C198.14 255 255 198.14 255 128C255 57.8598 198.14 1 128 1C57.8598 1 1 57.8598 1 128C1 198.14 57.8598 255 128 255Z" fill="white"/>
<path d="M119.933 32.5373L32.5244 119.874C27.8252 124.569 27.8252 132.153 32.5244 136.848L119.933 224.184C124.632 228.88 132.222 228.88 136.921 224.184L173.57 187.565C177.778 183.36 177.778 176.543 173.57 172.338C169.361 168.133 162.538 168.133 158.33 172.338L130.546 200.098C129.377 201.267 127.602 201.267 126.432 200.098L56.6303 130.354C55.4607 129.185 55.4607 127.412 56.6303 126.243L126.432 56.4986C127.602 55.33 129.377 55.33 130.546 56.4986L158.33 84.2591C162.538 88.4641 169.361 88.4641 173.57 84.2591C177.778 80.0541 177.778 73.2364 173.57 69.0314L136.925 32.4165C132.206 27.8228 124.614 27.86 119.933 32.5373Z" fill="url(#paint0_linear_1334_494)"/>
<path d="M119.933 32.5373L32.5244 119.874C27.8252 124.569 27.8252 132.153 32.5244 136.848L119.933 224.184C124.632 228.88 132.222 228.88 136.921 224.184L173.57 187.565C177.778 183.36 177.778 176.543 173.57 172.338C169.361 168.133 162.538 168.133 158.33 172.338L130.546 200.098C129.377 201.267 127.602 201.267 126.432 200.098L56.6303 130.354C55.4607 129.185 55.4607 127.412 56.6303 126.243L126.432 56.4986C129.344 53.9879 134.096 48.9026 141.074 47.7132C146.26 46.8293 151.93 48.7748 158.083 53.5497C153.969 49.4392 146.916 42.3948 136.925 32.4165C132.206 27.8228 124.614 27.86 119.933 32.5373Z" fill="url(#paint1_linear_1334_494)"/>
<path d="M182.03 164.215C186.239 168.42 193.062 168.42 197.27 164.215L224.304 137.203C229.004 132.508 229.004 124.924 224.305 120.229L197.035 93.0787C192.817 88.8787 185.991 88.8847 181.78 93.0922C177.572 97.2972 177.572 104.115 181.78 108.32L200.198 126.723C201.368 127.892 201.368 129.665 200.198 130.834L182.03 148.987C177.822 153.192 177.822 160.01 182.03 164.215Z" fill="url(#paint2_linear_1334_494)"/>
<path d="M128.864 152.378C141.898 152.378 152.464 141.821 152.464 128.798C152.464 115.774 141.898 105.217 128.864 105.217C115.83 105.217 105.264 115.774 105.264 128.798C105.264 141.821 115.83 152.378 128.864 152.378Z" fill="url(#paint3_linear_1334_494)"/>
<defs>
<linearGradient id="paint0_linear_1334_494" x1="9203.15" y1="29.0005" x2="17509.5" y2="5101.53" gradientUnits="userSpaceOnUse">
<stop stop-color="#4285EB"/>
<stop offset="1" stop-color="#2EC7FF"/>
</linearGradient>
<linearGradient id="paint1_linear_1334_494" x1="10317.3" y1="28.9999" x2="6214.71" y2="21232.1" gradientUnits="userSpaceOnUse">
<stop stop-color="#29CDFF"/>
<stop offset="0.378601" stop-color="#148EFF"/>
<stop offset="1" stop-color="#0A60FF"/>
</linearGradient>
<linearGradient id="paint2_linear_1334_494" x1="3607.75" y1="-914.754" x2="-1730.3" y2="7433.53" gradientUnits="userSpaceOnUse">
<stop stop-color="#FA816E"/>
<stop offset="0.414726" stop-color="#F74A5C"/>
<stop offset="1" stop-color="#F51D2C"/>
</linearGradient>
<linearGradient id="paint3_linear_1334_494" x1="3320.93" y1="-1578.01" x2="1544.8" y2="5526.78" gradientUnits="userSpaceOnUse">
<stop stop-color="#FA8E7D"/>
<stop offset="0.512635" stop-color="#F74A5C"/>
<stop offset="1" stop-color="#F51D2C"/>
</linearGradient>
</defs>
</svg>
