<svg width="256" height="256" viewBox="0 0 256 256" fill="none" xmlns="http://www.w3.org/2000/svg">
<circle cx="128" cy="128" r="127" fill="#3164FA"/>
<path fill-rule="evenodd" clip-rule="evenodd" d="M111.3 54.4074L103.797 46.4441C116.768 44.7723 150.995 46.9162 184.128 68.8661C184.558 71.8977 184.466 74.9197 184.466 74.9197L186.907 76.2417L186.921 76.2627L186.926 76.2316L186.976 76.2618C188.345 78.6143 189.73 82.1219 190.614 86.2489C191.684 91.2425 191.989 96.9916 190.741 102.489C189.484 108.028 187.098 112.6 184.762 115.944C183.036 118.415 181.39 120.142 180.308 121.088C176.076 121.177 168.197 124.017 165.945 133.863C159.158 137.748 148.502 141.632 134.428 141.632C120.983 141.632 107.268 137.737 96.9588 130.194C86.6908 122.682 79.795 111.561 79.795 96.9205C79.795 85.2742 85.0125 76.1768 91.6296 69.4862C98.2688 62.7738 107.344 57.3352 112.607 55.5302L111.3 54.4074ZM169.44 73.5114C166.832 76.3555 164.393 77.72 163.696 78.0901C148.464 74.6985 142.976 66.45 142.976 66.45C157.344 66.3573 170.312 69.9343 179.799 75.9855C179.799 75.9855 174.664 74.2433 169.44 73.5114Z" fill="white"/>
<path d="M103.584 56.6089C70.9252 63.1883 46 92.6064 46 128.18C46 173.155 83.9565 210.316 130.778 210.316C165.741 210.316 194.845 188.906 210.062 160.26C189.824 165.067 165.661 156.52 165.506 137.838C158.222 141.588 147.731 144.918 134.427 144.918C120.405 144.918 105.983 140.867 95.0231 132.848C84.0212 124.798 76.5137 112.741 76.5137 96.9201C76.5137 84.1974 82.2383 74.3115 89.2987 67.173C93.3832 63.0819 98.9835 59.1993 103.584 56.6089Z" fill="white"/>
<path d="M193.822 85.5593C193.379 83.4941 192.813 81.5411 192.17 79.7661C200.95 86.3371 207.787 95.3044 207.217 107.799C206.397 125.796 195.543 132.877 188.594 134.057C191.93 128.451 189.15 124.911 188.038 123.731C187.497 123.157 186.38 122.19 184.463 121.586C185.411 120.545 186.434 119.283 187.451 117.828C189.982 114.205 192.573 109.246 193.941 103.218C195.318 97.1472 194.967 90.9012 193.822 85.5593Z" fill="white"/>
</svg>
