<svg width="256" height="256" viewBox="0 0 256 256" fill="none" xmlns="http://www.w3.org/2000/svg">
<g clip-path="url(#clip0_2017_146)">
<path d="M256 128C256 57.2414 198.621 0 128 0C57.2414 0 0 57.2414 0 128C0 198.621 57.2414 256 128 256C198.621 256 256 198.621 256 128Z" fill="url(#paint0_radial_2017_146)"/>
<path d="M215.035 87.9996C214.483 91.172 213.931 92.6893 213.104 94.3445C212.276 96.2755 211.448 98.3445 210.621 102.758C210.345 104.413 210.069 105.793 209.931 106.896V107.034C209.655 108.827 209.517 110.069 208.828 112.138C208.276 113.931 207.311 116.827 204.966 119.862C203.035 122.344 199.862 126.62 195.586 127.172C195.173 127.172 194.483 127.172 194.069 127.034C181.931 120.827 171.586 116.275 168 115.31C163.862 114.069 164.414 104.965 164.828 96.9652C165.104 93.3789 165.242 89.9307 165.104 87.0341C164.552 76.8272 162.759 65.7927 153.931 60.4134C148.69 57.241 141.793 56.2755 135.311 56.2755C136.552 55.7238 137.793 54.8962 139.311 54.0686C143.173 51.8617 147.862 49.1031 152.69 48.5514C154.207 48.4134 155.724 48.2755 157.242 47.9996C166.759 46.8962 175.035 45.9307 183.724 48.9651C187.724 50.3445 195.724 54.7583 197.793 59.0341C199.311 61.9307 201.793 64.2755 206.621 68.8272C209.242 71.172 210.897 72.5514 212.138 73.6548C213.931 75.0341 214.207 75.4479 214.759 76.4134C216.414 79.7238 215.862 83.172 215.035 87.9996Z" fill="white"/>
<path d="M171.034 129.793C171.586 129.931 171.862 130.62 171.448 131.172C170.207 133.103 168.69 135.862 166.896 139.034C166.069 140.552 165.241 142.069 164.552 143.172C162.207 147.172 162.069 150.62 161.931 153.241C161.793 156.138 161.655 157.379 159.862 158.483C158.483 159.448 156.965 159.724 147.034 161.241C145.241 161.517 144.552 161.793 143.862 162.207C143.724 162.345 143.448 162.345 143.31 162.483C142.759 162.758 142.207 162.207 142.207 161.655C142.345 160.276 142.345 158.483 142.345 156.138V155.724C142.345 153.793 142.345 152.138 142.207 150.896C142.069 148.414 142.069 147.31 142.759 146.207C143.586 144.827 144.276 144.414 145.241 143.724C146.759 142.758 148.828 141.517 151.724 137.379C153.379 135.172 153.655 133.931 153.931 132.965C154.069 132.552 154.069 132.414 155.31 131.448C156.552 130.483 160.552 127.448 165.655 128.276C167.31 128.552 169.103 129.103 171.034 129.793Z" fill="white"/>
<path d="M131.449 175.586C131.173 175.862 131.035 176 130.621 176C129.518 176 128.828 175.724 128.414 175.172C127.449 173.931 127.587 171.448 127.724 169.931L132 168.827C132.276 171.172 132.414 174.344 131.449 175.586Z" fill="white"/>
<path d="M131.725 160.413C131.587 160.965 131.587 161.655 131.587 162.482C131.587 162.758 131.587 163.034 131.587 163.31C131.587 163.999 131.587 165.103 131.587 165.655C130.207 166.068 129.104 166.068 127.725 166.068C127.725 165.655 127.725 164.965 127.725 164.551C127.725 164.275 127.725 163.862 127.725 163.586C127.725 163.172 127.725 162.896 127.725 162.482C127.725 161.655 127.725 160.413 127.863 159.999C128.276 159.999 128.69 159.862 129.104 159.724C129.932 159.586 131.173 159.31 131.863 159.448C131.863 159.724 131.863 160.137 131.725 160.413Z" fill="white"/>
<path d="M124.001 174.344C123.863 176.551 123.173 179.172 121.104 179.586C120.138 179.724 119.725 179.448 119.449 179.172C118.069 177.93 117.932 174.068 118.069 171.31C119.035 171.31 120.138 171.172 121.518 170.896C122.345 170.758 123.173 170.482 123.863 170.344C124.001 171.448 124.138 172.827 124.001 174.344Z" fill="white"/>
<path d="M123.034 166.62L118.482 168.276C118.758 166.483 119.034 164 119.172 162.345C119.31 161.241 119.586 160.827 119.724 160.689C119.724 160.689 119.862 160.552 120 160.552C120 160.552 120 160.552 120.138 160.552H120.276L123.172 160.414C123.034 161.793 123.034 164.827 123.034 166.62Z" fill="white"/>
<path d="M115.586 165.241C115.31 165.931 115.034 167.862 114.896 169.241L109.241 169.103C109.517 167.31 110.069 165.517 110.483 164.137C111.034 162.758 111.448 161.655 112 161.379C112.552 161.103 113.793 160.965 114.621 161.655C115.862 162.482 116.138 163.724 115.586 165.241Z" fill="white"/>
<path d="M113.517 182.758C113.103 183.31 112.552 183.724 112 183.724C111.31 183.862 110.896 183.586 110.483 183.31C108.689 181.655 108.827 176.275 108.965 173.655C111.31 173.103 113.931 172.689 115.172 172.551C115.172 174.62 115.31 180.275 113.517 182.758Z" fill="white"/>
<path d="M106.069 168.827C105.793 169.517 105.517 170.206 105.379 170.896C104.69 171.172 102.621 170.896 100.552 170.482L101.931 161.517C104.276 160.827 107.035 160.689 107.586 161.379C108.552 162.344 106.759 166.896 106.069 168.827Z" fill="white"/>
<path d="M103.448 183.999C102.345 185.379 100.689 186.068 98.3446 185.93C96.6894 185.93 96.1377 185.241 95.8619 184.827C94.6205 182.758 95.8619 177.93 97.1032 174.896L104.827 175.31C104.965 175.862 104.965 176.551 104.965 177.241C105.103 179.586 104.827 182.344 103.448 183.999Z" fill="white"/>
<path d="M167.449 118.758C160.414 116.827 161.104 106.62 161.656 96.6889C161.793 93.2406 162.069 89.9303 161.931 87.1716C161.38 77.9303 159.862 67.8613 152.414 63.3096C144.414 58.482 131.311 59.5854 123.311 60.551C120.414 61.3785 117.656 62.0682 115.449 61.9303C110.759 61.6544 107.035 59.7234 103.724 57.9303C101.242 56.551 99.0348 55.3096 96.8279 55.3096C96.69 55.3096 96.5521 55.3096 96.5521 55.3096C90.3452 55.7234 87.4486 57.2406 84.828 59.5854C84.1383 60.1372 83.3107 61.7923 80.69 69.3785C79.3107 73.2406 79.1728 75.3096 78.8969 77.2406C78.6211 79.0337 78.4831 80.9647 77.5176 83.8613C76.828 85.7923 76.2762 87.4475 75.8624 89.1027C74.6211 93.3785 73.5176 96.8268 70.4831 100.965C70.0693 101.379 69.6555 102.206 69.1038 102.896C68.4142 103.999 67.5866 105.379 66.3452 106.896C65.5176 107.999 63.7245 112.137 63.8624 113.379C64.0004 115.447 64.69 116.689 65.3797 118.068C66.0693 119.447 67.0349 121.103 67.1728 123.447V123.861C67.4486 127.448 66.8969 129.241 60.1383 135.31C55.8624 139.172 52.69 142.896 50.6211 145.654C50.4831 145.93 50.6211 146.206 51.0349 146.206C51.1728 146.206 51.1728 146.206 51.1728 146.206C51.3107 146.206 51.4486 146.206 51.5866 146.206C51.7245 146.206 51.8624 146.206 52.0004 146.206C52.1383 146.206 52.2762 146.206 52.4142 146.206C54.0693 146.344 55.7245 147.034 56.828 148.275C56.9659 148.551 57.3797 148.551 57.6555 148.413C58.759 147.999 60.0004 147.999 61.1038 148.137C62.4831 148.275 64.0004 148.689 64.9659 149.654C65.2417 149.93 65.6555 150.068 66.0693 149.93C67.1728 149.654 68.4142 149.654 69.5176 150.068C70.3452 150.344 71.1728 150.896 71.7245 151.585C72.1383 151.999 72.828 152.137 73.3797 151.861C73.6555 151.723 74.0693 151.447 74.4831 151.31C76.0004 150.758 77.6555 151.034 79.0348 151.585C79.7245 151.861 80.4142 151.999 81.1038 152.551C82.2073 153.379 83.0349 154.482 83.4486 155.723C83.7245 156.413 84.69 156.689 85.2417 156.137C86.3452 155.31 87.1728 155.172 88.0004 155.447C88.4142 155.585 88.69 155.861 88.9659 156.275C89.3797 156.827 90.0693 157.379 90.6211 157.103C92.9659 156.413 95.7245 156.827 97.7935 157.93C98.4831 158.344 99.3107 158.896 99.7245 159.723V159.31C99.7245 159.172 99.8624 159.034 100 158.896L100.414 158.758C101.518 158.344 107.311 156.689 109.518 159.034C109.656 159.172 109.793 159.172 109.931 159.034C110.207 158.758 110.483 158.482 110.621 158.482C112.138 157.654 114.621 157.516 116.276 159.034C116.552 159.31 117.104 159.172 117.38 158.896C117.518 158.62 117.656 158.482 117.931 158.344C118.483 157.792 119.311 157.654 120.138 157.654L123.311 157.516C124.138 157.516 126.621 157.241 127.311 157.103H127.449C127.725 157.103 128.138 156.965 128.552 156.827C130.069 156.551 131.862 156.137 133.242 156.827C134.621 157.516 134.483 159.034 134.345 160.413C134.345 160.965 134.207 161.516 134.207 162.068C134.207 162.344 134.207 162.62 134.207 162.896C134.207 164.137 134.207 165.241 134.069 166.068L134.207 166.758C134.207 166.758 134.207 166.758 134.207 166.896C134.345 167.447 135.035 167.861 135.449 167.447C136.552 166.758 137.656 165.93 138.069 165.379V165.241C138.069 165.103 138.207 164.827 138.345 164.275C138.483 163.034 138.759 160.689 138.759 155.861C138.759 155.585 138.759 155.447 138.759 155.31C138.759 153.516 138.759 151.999 138.621 150.758C138.483 148.137 138.345 146.068 139.725 143.999C140.966 141.93 142.207 141.241 143.449 140.413C144.828 139.585 146.345 138.62 148.966 135.034C150.207 133.241 150.345 132.551 150.483 131.999C150.759 130.62 151.173 129.792 153.242 128.413C154.897 127.172 159.725 123.448 166.345 124.551C168.552 124.965 172 126.068 175.587 127.448C175.725 127.448 175.862 127.585 176 127.585H176.138C179.311 128.827 182.207 130.206 184.276 131.31C184.69 131.585 185.242 131.447 185.656 131.034C186.345 130.206 187.035 129.792 187.725 129.241C188 129.103 188.276 128.965 188.414 128.827C188.552 128.827 188.552 128.689 188.552 128.689C189.104 128.275 189.104 127.172 188.414 126.896C179.173 122.344 170.345 119.585 167.449 118.758ZM100.966 120.827C98.759 130.206 84.1383 140.689 77.5176 140.689H77.3797C77.2417 140.689 77.1038 140.689 77.1038 140.689C76.9659 140.689 76.828 140.689 76.69 140.551C76.5521 140.551 76.5521 140.551 76.4142 140.551C75.1728 140.137 73.5176 139.31 72.2762 138.068C71.4486 137.241 70.759 136.137 70.4831 135.172C70.4831 135.034 70.3452 134.758 70.3452 134.62C69.9314 132.965 69.5176 131.034 70.8969 127.723C71.0349 127.31 71.3107 126.896 71.4486 126.482C71.4486 126.344 71.5866 126.206 71.5866 126.068C71.7245 125.654 71.8624 125.379 72.0004 125.103C72.1383 124.551 72.4142 124.137 72.5521 123.861C72.5521 123.723 72.69 123.585 72.69 123.447C73.1038 122.344 73.1038 121.93 73.2417 121.516C73.2417 121.241 73.3797 120.689 73.5176 120.137C73.9314 118.344 74.2073 116.827 74.3452 115.585C74.6211 113.241 75.0348 111.172 76.2762 109.241C76.5521 108.965 76.69 108.689 76.9659 108.413C77.1038 108.275 77.1038 108.275 77.2417 108.137C77.3797 107.999 77.3797 107.999 77.5176 107.861C77.7935 107.585 78.2073 107.448 78.4831 107.31C78.6211 107.31 78.759 107.172 78.8969 107.172C79.1728 107.034 79.4486 107.034 79.7245 106.896C80.9659 106.62 82.3452 106.62 84.0004 106.758C85.7935 106.896 87.4486 107.172 88.828 107.585C90.0693 107.861 91.1728 108.275 92.0004 108.689C92.1383 108.689 92.1383 108.827 92.2762 108.827C92.4142 108.965 92.5521 108.965 92.828 109.103C93.1038 109.241 93.2418 109.241 93.5176 109.379C93.7935 109.516 94.0693 109.654 94.3452 109.792L94.6211 109.93C95.5866 110.344 96.5521 110.896 97.2417 111.448C97.6555 111.723 97.9314 111.999 98.2073 112.275C98.3452 112.413 98.4831 112.413 98.4831 112.551C98.6211 112.689 98.6211 112.689 98.759 112.827C101.656 115.31 101.518 118.758 100.966 120.827ZM107.862 85.1027L107.587 86.7578C106.897 90.6199 105.38 95.8613 99.8624 97.2406C94.4831 98.482 93.2417 98.7578 89.5176 99.0337C89.3797 99.0337 89.3797 99.0337 89.2417 99.0337C86.4831 99.0337 81.1038 97.2406 80.1383 92.9647C79.5866 90.2061 80.828 88.1372 82.759 84.8268C83.0349 84.2751 83.4486 83.7234 83.8624 83.0337C86.6211 78.482 87.5866 75.1716 88.4142 72.5509C89.2417 69.9303 89.9314 67.8613 91.7245 66.0682C92.1383 65.6544 92.5521 65.2406 93.1038 64.9647C93.3797 64.6889 93.7935 64.5509 94.2073 64.2751C94.759 63.9992 95.3107 63.8613 95.8624 63.5854C97.1038 63.1716 98.4831 63.0337 99.7245 63.0337C102.345 63.0337 104.966 63.7234 106.759 65.2406C107.587 65.9303 108.828 67.1716 109.518 71.1716C109.793 73.2406 109.242 76.9647 107.862 85.1027ZM147.449 96.1372C145.518 99.4475 144.552 101.241 142.897 102.62C139.587 105.379 135.862 105.93 132.69 105.93C130.483 105.93 128.552 105.516 127.311 105.379C124 104.827 118.069 103.723 116 98.8958C115.587 97.9303 115.587 97.3785 115.587 96.5509C115.587 95.8613 115.587 94.482 115.173 91.5854V91.4475C115.035 90.0682 114.897 88.5509 115.173 86.6199V86.3441C116.276 80.5509 116.69 79.7234 116.828 79.1716C117.38 78.0682 118.759 77.5165 120 78.2061C121.104 78.7578 121.518 80.1372 121.104 81.2406C120.966 81.5165 120.69 82.7578 119.725 87.3096V87.5854C119.449 88.8268 119.587 89.7923 119.725 91.0337V91.1716C120.138 94.482 120.138 95.8613 120.138 96.6889C120.138 96.8268 120.138 96.9647 120.138 97.1027V97.2406C120.552 98.2061 121.38 98.7578 122.345 99.3096C123.035 99.5854 123.724 99.0337 123.587 98.3441C122.621 93.2406 122.621 87.3096 124.552 83.5854C125.242 82.3441 126.345 80.413 127.449 78.482C127.587 78.3441 127.724 78.0682 127.724 77.9303C127.862 77.7923 127.862 77.6544 128 77.5165C128.552 76.6889 128.966 75.9992 129.38 75.3096C129.38 75.1716 129.518 75.1716 129.518 75.0337L129.656 74.8958C129.793 74.7578 129.793 74.6199 129.931 74.482C129.931 74.482 129.931 74.3441 130.069 74.3441L130.207 74.2061C130.207 74.0682 130.345 74.0682 130.345 73.9303C130.759 73.3785 131.173 72.8268 131.449 72.2751C132 71.5854 131.311 70.7578 130.621 71.0337C128.69 71.8613 127.449 72.8268 127.173 72.9647C126.207 73.7923 124.69 73.6544 123.862 72.5509C123.035 71.5854 123.173 70.0682 124.276 69.2406C125.518 68.2751 131.862 63.7234 139.449 65.7923C144.966 67.3096 147.725 71.5854 148.828 73.1027C149.656 74.3441 152.414 78.2061 152.276 83.7234C152.276 87.7234 150.621 90.7578 147.449 96.1372Z" fill="white"/>
<path d="M98.069 67.8613C97.6552 68.8268 97.2414 69.9303 96.6897 71.1717C95.5863 74.0682 94.207 77.3786 93.5173 78.6199C92.4139 80.6889 91.5863 82.0682 90.8966 83.0337C90.069 84.2751 89.5173 85.2406 88.9656 86.6199C88.138 88.9648 88 91.5855 88.5518 94.482C87.0345 94.3441 84.6897 93.3786 84.4138 91.9993C84.2759 91.0337 84.8276 90.0682 86.4828 87.1717C86.7587 86.6199 87.1725 85.9303 87.5863 85.3786C90.4828 80.4131 91.7242 76.6889 92.5518 73.9303C93.5173 71.0337 93.9311 69.7924 95.4483 68.6889C96.4138 68.2751 97.2414 67.9993 98.069 67.8613Z" fill="white"/>
<path d="M95.1728 172.137C93.5177 175.448 91.5866 178.482 90.3453 179.999C89.2418 177.241 87.4487 170.758 88.0004 165.655C88.0004 165.517 88.0004 165.379 88.0004 165.241C88.1384 163.586 88.5522 162.206 89.3797 160.965C89.9315 160.137 91.3108 159.724 92.828 159.724C93.9315 159.724 95.1729 159.999 96.2763 160.551C96.828 160.827 97.6556 161.517 97.6556 163.31C97.9315 165.793 96.6901 169.103 95.1728 172.137Z" fill="white"/>
<path d="M183.449 135.31C183.586 135.448 183.586 135.586 183.586 135.724C183.173 136.689 182.483 137.379 181.793 138.207C180.966 139.172 180 140.276 179.173 142.069C177.931 144.551 177.517 146.758 177.38 152.551C177.104 159.31 177.38 163.034 177.655 165.793C177.793 168.414 177.931 170.069 177.517 172.689C176.552 177.931 174.345 181.379 171.449 185.793C167.862 191.31 164.276 196.965 158.207 198.758C157.655 198.896 157.655 198.896 156 198.896C154.621 198.896 152.276 198.896 148 199.034C140 199.31 136 199.448 132.69 200.138C129.104 200.827 127.311 201.655 125.38 202.345C123.724 203.034 122.207 203.586 119.311 204.276C117.517 204.689 114.897 204.965 105.931 205.103C96.552 205.103 90.8968 205.103 83.5864 204.276C73.3795 203.172 68.2761 202.482 64.8278 200.689C56.8278 196.414 53.3795 188.689 47.8623 176C47.8623 175.862 48.0002 175.724 48.1382 175.724C48.414 175.862 48.6899 176 48.9658 176.138C49.2416 176.276 49.5175 176.276 49.6554 176.276C50.2071 176.414 50.7589 176.414 51.3106 176.276C51.4485 176.276 51.4485 176.276 51.5864 176.138C51.7244 176.138 51.8623 176.138 51.8623 176.276C52.2761 177.241 52.8278 178.069 53.7933 178.62C54.7589 179.172 55.8623 179.172 56.8278 179.172C57.9313 179.172 59.0347 179.034 60.1382 178.896C60.6899 178.896 61.2416 179.172 61.5175 179.586C62.483 182.069 63.7244 183.724 65.6554 184C65.7933 184 65.9313 184 66.0692 184C66.483 184 67.1726 183.862 68.0002 183.31C68.6899 182.758 69.7933 183.172 70.3451 183.862C70.7589 184.551 71.3106 184.965 71.8623 185.379C73.7933 187.31 78.483 188.276 82.3451 188.276C84.414 188.276 86.3451 188 87.4485 187.448C89.1037 186.62 89.1037 185.517 88.9658 184.965C88.8278 184.138 88.6899 183.172 88.552 182.345C88.552 182.207 88.6899 182.207 88.6899 182.345C88.9658 182.896 89.2416 183.448 89.9313 183.586C90.0692 183.586 90.0692 183.586 90.2071 183.586C91.3106 183.586 92.9658 184 93.2416 184.965C93.3795 185.517 93.6554 185.931 93.9313 186.482C94.6209 187.448 95.8623 188.689 98.483 188.827H98.6209C101.655 188.827 104 187.862 105.517 185.931C105.655 185.793 105.655 185.655 105.793 185.517C106.345 184.689 108 184.689 108.69 185.379C109.517 186.069 110.483 186.482 111.586 186.482C111.724 186.482 112 186.482 112.138 186.482C113.517 186.345 114.621 185.655 115.586 184.414C116.138 183.586 116.552 182.62 116.828 181.517C116.966 181.241 117.38 181.103 117.655 181.379C118.207 181.931 119.173 182.482 120.552 182.482C120.828 182.482 121.242 182.482 121.655 182.345C124.276 181.793 125.655 179.586 126.207 177.241C126.207 177.103 126.345 177.103 126.345 177.241C127.035 178.069 128.276 179.034 130.345 179.034C130.483 179.034 130.621 179.034 130.621 179.034C131.724 179.034 132.69 178.482 133.38 177.655C134.207 176.551 134.483 174.896 134.621 173.379C134.621 172.965 134.897 172.551 135.449 172.276C137.655 171.31 140.414 169.241 141.242 167.862C141.242 167.862 141.242 167.724 141.38 167.724C141.517 167.31 141.931 167.034 142.207 167.034C144 166.758 144.69 166.345 145.38 166.069C145.931 165.793 146.345 165.655 147.724 165.379C157.793 163.862 159.724 163.448 161.931 162.069C165.242 159.862 165.38 156.827 165.517 153.931C165.655 151.448 165.793 148.689 167.724 145.379C168.414 144.138 169.242 142.758 170.069 141.103C171.586 138.345 173.655 134.482 175.173 132.414C175.449 132 176 131.862 176.414 132.138C179.862 133.379 182.897 134.758 183.449 135.31Z" fill="white"/>
<path d="M85.5177 165.379C85.1039 168.827 84.8281 173.517 85.3798 179.586C85.5177 181.241 85.7936 183.034 86.0694 184.827C85.6556 185.103 84.1384 185.517 81.6556 185.379C78.0694 185.241 74.4832 184.413 73.3798 183.172L73.2418 183.034C72.4143 182.344 71.7246 181.793 71.7246 180.551C71.7246 180.138 71.8625 179.724 72.2763 179.034C72.5522 178.758 72.8281 178.344 73.1039 177.793C73.6556 176.965 74.4832 176 75.3108 174.62C77.6556 170.758 78.4832 169.517 79.5867 168C79.7246 167.862 79.7246 167.724 79.8625 167.586C80.5522 166.758 81.2418 165.655 82.4832 163.862C83.3108 162.62 84.0005 161.517 84.6901 160.689C85.6556 159.31 86.3453 158.62 86.7591 158.207C86.7591 158.758 86.6212 159.586 86.4832 160.413C85.9315 162.069 85.6556 163.586 85.5177 165.379Z" fill="white"/>
<path d="M83.7238 111.034C83.7238 111.172 83.7238 111.172 83.7238 111.034C83.172 111.724 82.6203 112.551 81.9307 113.931C80.1376 117.793 80.1376 120 80.1376 121.793C80.1376 122.758 80.1376 123.448 79.8617 124.276C79.7238 124.827 79.4479 125.517 79.0341 126.207C78.0686 128.551 76.6893 131.586 77.241 135.724C76.4134 135.31 75.172 134.345 74.8962 133.931C74.8962 133.655 74.7582 133.517 74.7582 133.241C74.4824 132 74.3445 131.172 75.0341 129.241C77.241 124.276 77.5169 123.034 77.6548 121.655C77.6548 121.379 77.7927 121.103 77.7927 120.689C78.2065 118.758 78.4824 117.103 78.6203 115.724C78.8962 113.655 79.172 112.276 79.8617 111.31C80.1376 110.896 80.8272 110.758 81.7927 110.758C82.2065 110.758 82.6203 110.758 83.172 110.896H83.31C83.7238 111.034 83.7238 111.034 83.7238 111.034Z" fill="white"/>
<path d="M80.9658 160.275C80.8279 159.034 80.6899 157.93 80.1382 156.689C80.1382 156.689 80.0003 156.413 80.0003 156.275C79.8623 156.137 79.8623 155.999 79.7244 155.861L79.5865 155.724C79.4485 155.586 79.4485 155.586 79.3106 155.586L79.1727 155.448C79.0348 155.448 79.0348 155.31 78.8968 155.31H78.7589C78.0692 155.034 77.3796 154.758 76.552 154.62C76.4141 154.62 76.2761 154.62 76.2761 154.62C76.1382 154.62 76.1382 154.62 76.0003 154.62H75.8623C75.7244 154.62 75.5865 154.758 75.3106 154.758C75.1727 154.758 75.1727 154.896 75.0348 154.896L74.8968 155.034C74.7589 155.172 74.7589 155.172 74.621 155.31L74.483 155.448V155.586C74.2072 155.999 73.9313 156.413 73.6554 156.827C72.9658 157.793 72.2761 158.896 71.5865 159.862C70.8968 160.827 70.3451 161.655 69.6554 162.62C69.2417 163.172 68.9658 163.586 68.552 164.137C68.552 164.275 68.4141 164.275 68.4141 164.413C68.8279 164.551 69.2417 164.551 69.6554 164.689C70.621 164.827 71.5865 164.965 72.4141 165.103C74.3451 165.379 76.4141 165.517 78.3451 165.379C78.483 165.379 78.483 165.379 78.621 165.379C79.0348 164.689 79.7244 163.861 80.4141 162.758C80.8279 162.206 81.2416 161.655 81.5175 161.103C81.1037 160.965 80.9658 160.551 80.9658 160.275Z" fill="white"/>
<path d="M73.9315 168.413C73.7936 169.93 72.1384 173.793 69.5178 177.517C67.3109 180.551 65.9315 181.379 65.6557 181.379C64.5522 181.241 63.5867 178.62 62.7591 175.999C62.4833 174.896 62.0695 173.93 61.9316 172.965C61.3798 171.034 61.2419 168.275 61.3798 166.62C63.5867 167.861 67.4488 168.137 72.966 168.137C73.2419 168.275 73.6557 168.275 73.9315 168.413Z" fill="white"/>
<path d="M70.0687 156C69.1032 157.517 68.1377 158.896 67.1721 160.275C66.6204 160.965 66.2066 161.655 65.6549 162.344C65.379 162.758 64.9652 163.172 64.6894 163.586C63.8618 163.448 63.1721 163.172 62.3446 163.034C61.6549 162.896 61.1032 162.62 60.4135 162.344C60.2756 162.344 60.1377 162.206 59.9997 162.206C59.8618 162.069 59.7239 161.793 59.5859 161.655C59.8618 161.241 59.9997 160.689 60.2756 160.275C60.6894 159.448 61.1032 158.62 61.6549 157.793C62.4825 156.413 63.448 154.896 64.9652 153.931C65.1032 153.931 65.1032 153.793 65.2411 153.793C65.7928 153.517 66.3446 153.241 67.0342 153.103C67.1721 153.103 67.5859 153.103 67.8618 153.103H67.9997C67.9997 153.103 67.9997 153.103 68.1377 153.103C68.2756 153.103 68.4135 153.241 68.6894 153.241C68.6894 153.241 68.8273 153.241 68.8273 153.379C68.9652 153.517 69.1032 153.517 69.2411 153.655C68.9652 153.517 69.517 154.069 69.517 153.931C69.7928 154.758 69.9308 155.172 70.0687 156Z" fill="white"/>
<path d="M62.621 152C60.8279 153.379 59.5865 155.31 58.621 157.379C58.0693 158.482 57.5175 159.586 56.9658 160.689C56.9658 160.827 56.8279 160.965 56.8279 160.965C56.2762 160.827 55.7244 160.689 55.3106 160.551C54.7589 160.413 54.2072 160.137 53.6555 160C53.3796 159.862 53.2417 159.724 52.9658 159.586C53.5175 158.62 54.0693 157.655 54.7589 156.689C55.5865 155.448 56.552 154.068 57.5175 152.965C57.9313 152.551 58.3451 152 58.7589 151.724C59.3106 151.448 59.8624 151.448 60.552 151.586C61.2417 151.586 61.9313 151.586 62.4831 151.862C62.3451 151.862 62.4831 152 62.621 152Z" fill="white"/>
<path d="M59.8625 175.448C59.7245 175.586 59.7245 175.586 59.5866 175.724H59.4487C59.0349 175.724 58.6211 175.862 58.2073 175.862C57.3797 175.862 56.5521 176 55.7245 175.862C55.3107 175.862 54.897 175.724 54.6211 175.448C54.3452 175.034 54.2073 174.206 54.0694 173.655C53.5176 170.62 53.5176 167.586 53.7935 164.551C55.3107 165.103 56.9659 165.517 58.6211 165.793C58.2073 168.551 58.897 172.551 59.1728 173.655C59.5866 174.206 59.7245 174.896 59.8625 175.448Z" fill="white"/>
<path d="M54.8962 151.034C53.5169 152.689 52.2755 154.482 51.1721 156.413C50.7583 157.103 50.2066 157.93 49.7928 158.758C49.241 158.62 48.6893 158.344 48.2755 158.068C47.8617 157.792 47.4479 157.517 47.1721 157.241C47.0341 157.103 46.7583 156.965 46.6204 156.827C46.6204 156.827 46.4824 156.827 46.4824 156.689C46.6204 156.275 46.8962 155.999 46.8962 155.724C47.1721 155.034 47.4479 154.482 47.8617 153.93C48.5514 152.827 49.241 151.724 50.0686 150.62C50.3445 150.206 50.6203 149.792 51.1721 149.655C51.5859 149.517 52.1376 149.655 52.5514 149.655C53.379 149.792 54.2066 150.344 54.8962 151.034Z" fill="white"/>
<path d="M44.276 158.345C44.4139 158.207 44.276 158.207 44.276 158.345C44.8277 158.896 45.2415 159.31 45.7932 159.724C46.0691 159.862 46.207 160.138 46.4829 160.276C46.4829 160.276 46.4829 160.276 46.4829 160.414C45.9311 162.758 45.5174 165.241 45.5174 167.724C45.5174 167.862 45.3794 167.862 45.3794 167.724C44.6898 164.827 43.8622 160.138 44.276 158.345Z" fill="white"/>
<path d="M51.0345 163.448C50.7586 165.517 50.6207 167.586 50.7586 169.655C50.7586 170.758 50.8965 171.861 51.0345 173.103C50.7586 173.103 50.4827 173.103 50.2069 173.103H50.0689H49.931C49.6552 172.965 49.6552 172.965 49.3793 172.827C49.1034 172.689 48.8276 172.275 48.5517 171.861C48 170.896 47.8621 169.793 47.8621 168.689C47.7241 166.62 48 164.413 48.4138 162.344C48.6896 162.482 49.1034 162.62 49.5172 162.758C50.0689 163.034 50.4827 163.31 51.0345 163.448Z" fill="white"/>
<mask id="mask0_2017_146" style="mask-type:luminance" maskUnits="userSpaceOnUse" x="0" y="0" width="256" height="256">
<path d="M256 128C256 57.2414 198.621 0 128 0C57.2414 0 0 57.2414 0 128C0 198.621 57.2414 256 128 256C198.621 256 256 198.621 256 128Z" fill="white"/>
</mask>
<g mask="url(#mask0_2017_146)">
<g opacity="0.8">
<path opacity="0.8" d="M105.379 271.034C96.0001 271.034 87.1725 270.483 79.7243 269.931L77.6553 269.793L75.5863 269.517C74.6208 269.379 73.5174 269.241 72.276 269.103C65.1036 268.276 51.7242 266.896 36.9656 260L34.6208 258.896L32.5518 257.655C4.13804 241.655 -6.34472 217.793 -12.1378 204.965C-12.5516 204.138 -12.9654 203.172 -13.3792 202.207C-16.2758 196.276 -18.0689 191.034 -19.5861 186.069L-19.862 184.965L-20.1378 183.862C-24.2758 169.241 -25.2413 156.689 -23.4482 144.138C-21.5171 131.586 -16.9654 120.276 -8.82747 108.276L-4.68954 101.517C-3.86196 100.138 -3.31023 98.6205 -2.89644 97.1033C0.275974 81.3791 7.44839 70.2067 11.0346 64.8274C12.0001 58.3447 13.6553 51.9998 15.8622 45.7929L16.138 44.8274L16.5518 43.8619C16.5518 43.724 16.6898 43.4481 16.8277 43.0343C18.4829 38.2067 22.207 27.0343 31.7242 15.1722L35.3105 11.0343L39.0346 7.72397C48.4139 -0.827755 59.7242 -7.17258 71.8622 -10.7588C78.6208 -12.8278 85.6553 -14.0691 92.8277 -14.4829H93.5174H94.4829C95.7242 -14.4829 96.9656 -14.6209 98.0691 -14.6209C102.483 -14.6209 106.897 -14.2071 111.31 -13.5174C114.069 -13.1036 116.828 -13.3795 119.448 -14.4829C127.035 -17.6553 134.897 -19.7243 143.035 -20.8278C143.724 -20.9657 144.276 -20.9657 144.828 -21.1036C146.069 -21.2415 148.138 -21.5174 150.621 -21.7933C154.897 -22.2071 161.517 -22.7588 168.552 -22.7588C182.483 -22.7588 194.483 -20.9657 205.241 -17.2415L206.207 -16.9657L207.035 -16.6898C230.759 -7.72431 242.759 4.82742 251.448 15.724L251.862 16.2757L253.104 17.3791C260.966 23.4481 267.586 31.0343 272.828 39.4481L274.483 42.0688L275.862 44.8274C287.448 68.4136 283.724 90.3447 282.345 98.4826L282.207 98.8964C281.242 104.965 279.586 110.896 277.517 116.689C276.69 122.207 275.448 127.724 273.655 132.965C270.621 142.345 266.069 151.31 260.276 159.31C256.966 164 253.104 168.552 248.966 172.552C247.448 173.931 246.483 175.862 246.207 177.931C246.069 179.172 245.793 180.414 245.655 181.655C242.207 199.862 234.345 212.552 231.035 217.655L221.241 231.724C209.379 246.483 195.31 256.138 178.345 261.379L174.207 262.62L169.793 263.448C164.69 264.414 159.586 264.827 154.345 264.827C153.655 264.827 152.966 264.827 152.138 264.827H151.862H151.035H150.069C148.138 264.827 146.207 265.241 144.276 265.793C132.966 269.379 120.552 271.034 105.379 271.034Z" stroke="url(#paint1_linear_2017_146)" stroke-width="1.0554" stroke-miterlimit="10"/>
<path opacity="0.8" d="M105.379 261.241C96.4139 261.241 87.7242 260.689 80.5518 260.138L78.8966 260L77.2415 259.724C76.138 259.586 74.8966 259.448 73.6553 259.31C66.6208 258.62 55.0346 257.241 42.069 251.172L40.138 250.207L38.3449 249.241C13.1035 235.31 3.86215 214.482 -1.65509 202.069C-2.06888 201.241 -2.48267 200.138 -3.0344 199.172C-5.65509 193.931 -7.31026 188.965 -8.68957 184.551L-8.96543 183.586L-9.24129 182.758C-12.8275 169.655 -13.793 158.62 -12.1378 147.724C-10.4827 136.965 -6.34474 126.896 0.827671 116.413L6.20698 107.724C7.1725 106.207 7.86215 104.413 8.13802 102.62C10.7587 87.7238 17.7932 77.241 20.9656 72.4135L21.3794 71.8617L21.5173 71.5859C21.5173 71.4479 21.6553 71.31 21.6553 71.1721C21.7932 70.4824 22.0691 69.9307 22.207 69.379C23.0346 63.31 24.5518 57.241 26.6208 51.4479L26.8966 50.6204L27.1725 49.7928C27.3104 49.5169 27.3104 49.241 27.5863 48.4135C29.1035 43.8617 32.2759 34.3445 40.5518 24.1376L43.5863 20.5514L46.6208 17.7928C54.7587 10.3445 64.5518 4.82725 75.0346 1.79277C81.1035 -0.000336773 87.1725 -1.10378 93.5173 -1.37965H94.0691H94.8966C96.0001 -1.37965 96.9656 -1.51758 97.9311 -1.51758C102.483 -1.51758 106.897 -2.75896 111.31 -1.93137C114.759 -1.24172 118.207 -1.65551 121.379 -3.03482C127.31 -5.65551 135.31 -6.62103 144.414 -7.86241C145.104 -8.00034 145.655 -8.00034 146.069 -8.13827C147.31 -8.2762 149.241 -8.55206 151.448 -8.68999C155.448 -9.10379 161.655 -9.51758 168.414 -9.51758C181.104 -9.51758 191.862 -7.86241 201.379 -4.68999L202.207 -4.41413L202.897 -4.13827C223.862 3.86173 234.207 14.3445 242.345 24.6893C242.759 25.241 243.31 25.7928 243.448 26.0686L243.586 26.2066L245.104 27.5859L245.241 27.8617C252.276 33.241 258.207 39.8617 262.759 47.31L264.138 49.5169L265.241 51.8617C275.173 72.1376 272.138 90.7583 270.759 98.6204L270.621 99.0342C269.655 104.827 268.138 110.344 266.069 115.862C265.379 121.103 264.138 126.344 262.483 131.31C259.724 139.586 255.724 147.448 250.621 154.62C247.173 159.586 243.035 164.138 238.621 168.138C236.552 170.069 235.173 172.551 234.897 175.448C234.621 177.517 234.345 179.448 234.069 181.517C231.035 197.655 224.138 208.689 220.828 213.655L212.828 225.241C202.207 238.896 189.655 247.724 174.483 252.413L171.035 253.517L167.31 254.207C162.897 255.034 158.345 255.448 153.931 255.31C153.241 255.31 152.552 255.31 151.862 255.31H151.724H151.31C151.31 255.31 151.173 255.31 150.897 255.31H150.069H149.241H147.724C145.655 255.448 143.586 255.724 141.517 256.413C131.448 259.724 119.724 261.241 105.379 261.241Z" stroke="url(#paint2_linear_2017_146)" stroke-width="1.0554" stroke-miterlimit="10"/>
<path opacity="0.8" d="M105.379 249.793C96.8276 249.793 88.4138 249.241 81.3793 248.689L80 248.551L78.6207 248.413C77.3793 248.275 76 248.138 74.6207 248C68 247.31 57.9311 246.207 46.6207 240.827L45.1035 240.138L43.7242 239.31C22.069 227.172 14.069 209.241 8.82761 197.379C8.41382 196.413 7.8621 195.172 7.4483 194.207C5.10347 189.517 3.58623 185.103 2.34485 180.965L2.06899 180.275L1.93106 179.586C-1.24135 168.275 -2.06894 158.62 -0.689628 149.517C0.689682 140.275 4.41382 131.586 10.7586 122.344L11.5862 121.241L12.4138 120.138C12.9655 119.448 13.3793 118.758 13.9311 118.207L17.1035 112.275C18.2069 110.344 18.8966 108.275 19.1724 106.069C21.2414 92.8272 27.5862 83.31 30.4828 78.8962C30.6207 78.6203 30.8966 78.3445 31.0345 78.2065L31.7242 77.241C32 76.6893 32.2759 75.9996 32.5517 75.172C32.8276 74.3445 33.2414 73.1031 33.5173 71.9996C34.2069 66.3445 35.5862 60.8272 37.5173 55.4479L37.7931 54.7582L38.069 54.0686C38.2069 53.5169 38.4828 53.1031 38.7586 52.1376C40.138 47.8617 42.7586 39.9996 49.7931 31.4479L52.138 28.5514L54.6207 26.3445C61.5173 19.9996 69.7931 15.4479 78.7586 12.6893C84 11.172 89.2414 10.2065 94.7586 9.93066H95.1724H95.8621C96.6897 9.93066 97.5173 9.93066 98.4828 9.93066C103.172 9.93066 107.724 10.4824 112.276 11.7238C116.138 12.6893 120.276 12.2755 123.862 10.4824C129.655 7.72377 137.379 4.68928 146.345 3.58584C146.897 3.44791 147.448 3.44791 147.862 3.30997C148.966 3.17204 150.759 2.89618 152.966 2.75825C156.69 2.34446 162.621 1.93066 168.828 1.93066C180.138 1.93066 189.655 3.30997 198.069 6.20653L198.621 6.48239L199.172 6.75825C218.483 14.0686 227.034 23.5858 233.655 31.9996C235.172 33.7927 235.31 34.0686 236.276 35.0341L237.517 36.1376L237.931 36.6893C241.103 39.172 247.586 44.2755 253.241 53.5169L254.345 55.31L255.31 57.1031C263.724 74.0686 261.103 89.5169 259.862 96.9651L259.724 97.3789C258.897 102.758 257.379 108.138 255.172 113.241V113.655C254.621 118.482 253.517 123.31 252 127.862C249.655 135.172 246.207 141.931 241.655 148.138C237.931 153.517 233.379 158.344 228.276 162.482C227.034 163.448 226.069 164.689 225.379 166.069C224.69 167.448 224.276 168.965 224.138 170.482C224 173.517 223.586 176.551 223.034 179.586C220.414 193.517 214.345 203.172 211.31 208L205.103 217.103C195.862 229.517 184.828 237.517 171.448 241.655L168.69 242.482L165.655 243.034C161.931 243.724 158.069 244 154.207 244C153.655 244 152.966 244 152.276 244H152.138H151.448C151.31 244 151.035 244 150.345 244H149.655H149.103L145.931 244.138C143.724 244.275 141.517 244.551 139.448 245.379C129.931 248.413 119.035 249.793 105.379 249.793Z" stroke="url(#paint3_linear_2017_146)" stroke-width="0.9894" stroke-miterlimit="10"/>
<path opacity="0.8" d="M105.38 238.345C97.2416 238.345 89.1037 237.793 82.3451 237.241L81.3796 237.103L80.4141 236.965C79.0348 236.827 77.5175 236.552 76.1382 236.414C69.9313 235.724 61.3796 234.758 51.7244 230.345L50.621 229.793L49.5175 229.241C31.1727 218.896 24.4141 203.724 19.4485 192.69C18.8968 191.586 18.3451 190.345 17.9313 189.241C15.8623 184.965 14.483 180.965 13.3796 177.517L13.2417 176.965L12.8279 176.552C7.44855 157.517 9.51752 144.138 20.0003 128.827L20.552 128L21.1037 127.172C21.7934 126.345 22.483 125.379 23.1727 124.552C24.1382 123.31 25.1037 121.931 26.2072 120.69C26.8968 119.862 27.4486 118.896 27.8623 117.931L29.1037 114.896C29.6554 113.517 29.9313 112.138 30.0692 110.758C31.1727 98.4826 37.1037 89.655 40.0003 85.2412C40.2761 84.9654 40.552 84.4137 40.6899 84.2757L41.3796 83.1723L41.6554 82.8964C42.0692 82.2068 42.7589 80.5516 43.3106 78.8964C43.5865 77.793 44.1382 75.9999 44.6899 74.4826V74.3447C45.2417 69.2412 46.483 64.1378 48.2761 59.3102L48.4141 58.8964L48.552 58.4826C48.8279 57.655 49.1037 56.9654 49.3796 55.9999C50.621 52.2757 52.6899 45.9309 58.3451 38.8964L60.1382 36.6895L61.9313 35.0343C75.3106 22.8964 90.2072 21.9309 95.1727 21.5171H95.4485H96.0003C96.6899 21.5171 97.3796 21.5171 98.0692 21.5171C104 21.5171 109.793 22.7585 115.311 25.1033C116.276 25.5171 117.38 25.655 118.345 25.655C119.449 25.655 120.414 25.3792 121.38 24.8275C126.483 21.9309 135.724 16.5516 147.586 15.1723C148.138 15.0343 148.69 15.0343 149.104 15.0343C150.207 14.8964 151.862 14.7585 153.793 14.4826C157.38 14.2068 162.759 13.793 168.552 13.793C178.621 13.793 186.897 15.0343 193.931 17.3792L194.345 17.5171L194.759 17.655C211.311 23.8619 218.345 31.724 224.276 39.1723C225.793 41.2412 226.621 42.0688 228.276 43.724L229.242 44.5516L229.931 45.3792L230.483 45.793C233.242 47.9999 238.483 51.9999 243.173 59.5861L244 60.9654L244.69 62.3447C251.449 76.1378 249.242 88.5516 248.138 95.1723V95.5861C247.311 100.414 245.931 105.241 244 109.793L243.862 110.207C243.862 110.345 243.862 110.345 243.724 110.621C243.586 111.034 243.586 111.448 243.586 111.862L243.449 112.414C243.035 116.552 242.069 120.552 240.69 124.414C238.621 130.621 235.724 136.414 231.862 141.655C228.138 147.034 223.862 151.448 219.173 154.896C217.104 156.414 215.449 158.345 214.207 160.69C212.966 163.034 212.414 165.517 212.414 168.138C212.414 171.31 212 174.621 211.449 177.793C209.242 189.655 204.276 197.655 201.104 202.483L196.552 209.241C188.552 220.414 179.035 227.586 167.586 231.172L167.035 231.31C166.069 231.586 165.104 231.862 164.138 232L163.449 232.138C160.276 232.69 157.104 232.965 153.931 232.965C153.38 232.965 152.828 232.965 152.276 232.965H152.138C151.862 232.965 151.586 232.965 151.311 232.965C151.035 232.965 150.483 232.965 149.38 232.965H148.966H148.552C147.035 232.965 145.104 233.103 143.449 233.103C141.104 233.241 138.897 233.655 136.69 234.483C128.414 236.965 118.345 238.345 105.38 238.345Z" stroke="url(#paint4_linear_2017_146)" stroke-width="0.9235" stroke-miterlimit="10"/>
<path opacity="0.8" d="M105.38 226.897C97.5177 226.897 89.7936 226.345 83.1729 225.793H82.4832L81.7936 225.655C80.2763 225.379 78.6212 225.241 77.1039 225.104C71.3108 224.414 64.1384 223.724 56.4143 220L55.5867 219.586L54.897 219.172C39.8626 210.759 34.2074 198.069 29.7936 187.862C29.2419 186.621 28.6901 185.379 28.1384 184C26.3453 180.414 25.1039 176.828 24.1384 173.793L24.0005 173.379L23.8626 172.966C19.4488 157.241 20.966 147.31 29.5177 134.897L29.9315 134.345L30.3453 133.793C31.035 132.828 31.7246 132 32.4143 131.035C34.6212 128.138 36.8281 125.241 40.0005 121.793C40.6901 121.104 41.1039 120 41.2419 119.035L41.3798 115.862L41.2419 114.621V113.379C41.5177 103.172 46.6212 95.5863 49.3798 91.4483C49.6557 91.0346 50.0695 90.4828 50.2074 90.207L50.6212 89.5173L51.035 88.9656C51.5867 88.138 52.8281 85.2414 53.9315 82.6208C54.3453 81.5173 54.897 79.3104 55.5867 77.5173C55.7246 76.9656 55.7246 76.8277 55.8626 75.5863C56.2763 71.3104 57.3798 67.0346 58.7591 63.0346L58.897 62.7587L59.035 62.4828C59.4488 61.3794 59.7246 60.5518 60.1384 59.4483C61.2419 56.138 62.897 51.3104 67.1729 45.9311L68.4143 44.4139L69.6557 43.3104C79.035 34.8966 89.1039 33.2414 96.0005 32.8277H96.2763H96.5522C97.1039 32.8277 97.5177 32.8277 98.0694 32.8277C103.863 32.8277 110.897 35.5863 114.621 37.3794C115.449 37.7932 116.414 38.069 117.38 38.069C118.345 38.069 119.311 37.9311 120.276 37.6552C122.621 36.8277 124.828 35.8621 126.897 34.7587C131.587 32.0001 139.311 27.5863 148.966 26.4828C149.518 26.3449 149.932 26.3449 150.345 26.3449C151.311 26.207 152.828 26.069 154.759 25.7932C158.069 25.5173 163.035 25.1035 168.414 25.1035C177.104 25.1035 184.276 26.069 190.069 28.138L190.345 28.2759L190.621 28.4139C204.414 33.6552 209.932 39.5863 215.173 46.3449C216.828 48.5518 218.069 50.069 220.552 52.2759L221.104 52.8277L221.656 53.3794C222.207 53.9311 222.759 54.3449 223.311 54.7587C225.656 56.5518 229.656 59.7242 233.104 65.5173L233.656 66.3449L234.069 67.3104C239.173 77.6552 237.518 87.4483 236.552 93.2414V93.6552C235.863 97.6552 234.759 101.517 233.104 105.241C232.69 106.207 232.414 107.172 232.138 108.276C232 108.966 231.863 109.655 231.863 110.207L231.725 110.759C231.311 114.069 230.621 117.379 229.518 120.552C227.863 125.655 225.38 130.483 222.345 134.759C217.656 141.379 212.276 146.069 205.794 149.104C204.276 149.793 202.897 150.897 201.932 152.414C200.966 153.793 200.414 155.586 200.276 157.241C200.276 157.931 200.276 158.483 200.276 158.897C200.552 163.862 200.966 169.517 199.863 175.448C198.069 185.104 193.932 191.586 190.897 196.414C190.897 196.414 176.828 216 164 220L162.621 220.414L161.104 220.69C158.621 221.104 156.138 221.379 153.518 221.379C153.104 221.379 152.552 221.379 152 221.379C151.725 221.379 151.311 221.379 150.897 221.379C150.345 221.379 149.518 221.379 148.276 221.517H148H147.725C142.759 221.655 138.207 221.793 136.828 222.069C136.138 222.207 135.449 222.345 134.759 222.621C128 225.517 118.483 226.897 105.38 226.897Z" stroke="url(#paint5_linear_2017_146)" stroke-width="0.8575" stroke-miterlimit="10"/>
<path opacity="0.8" d="M105.379 215.586C97.9309 215.586 90.4826 215.034 84.1378 214.62H83.8619H83.5861C81.793 214.345 80.1378 214.207 78.6206 214.069C73.2413 213.517 67.5861 212.827 61.5171 210.069L61.1033 209.931L60.6895 209.793C48.9654 203.172 44.5516 193.379 40.4137 183.862C39.8619 182.483 39.1723 181.103 38.4826 179.724C37.1033 176.965 35.9999 173.931 35.1723 171.034V170.896V170.758C31.5861 158.207 32.5516 151.862 39.1723 142.207L39.3102 141.931L39.4482 141.655C40.2757 140.689 40.9654 139.724 41.655 138.896C44.8275 134.758 47.5861 131.172 53.793 125.379C54.2068 124.965 54.6206 124.414 54.7585 123.724C54.8964 123.172 54.8964 122.483 54.6206 121.931L53.5171 118.758C53.2413 117.793 53.1033 116.689 53.1033 115.724V114.896V114.207C53.3792 107.31 56.9654 101.931 59.3102 98.3446C59.724 97.7929 59.9999 97.2412 60.2757 96.8274L60.5516 96.4136L60.8275 95.9998C62.0688 94.3446 64.1378 89.517 65.2413 86.6205C65.5171 85.655 66.2068 83.3101 66.8964 81.517C67.3102 80.1377 67.5861 78.7584 67.724 77.3791C68.1378 73.9308 68.8275 70.4826 70.0688 67.3101V67.1722V67.0343C70.6206 65.655 71.0344 64.5515 71.3102 63.4481C72.2757 60.5515 73.3792 57.2412 76.4137 53.517L76.9654 52.8274L77.5171 52.2757C84.1378 46.2067 91.4482 45.1032 96.9654 44.6895H97.1033H97.2413C97.5171 44.6895 97.9309 44.6895 98.2068 44.6895C103.724 44.6895 107.862 46.8963 110.621 48.4136L111.31 48.6895H111.448C112.276 49.1032 112.827 49.517 113.517 49.7929C115.172 50.6205 117.241 50.8963 119.034 50.3446C122.896 49.3791 128.827 47.0343 132.69 44.8274H132.827C136.965 42.3446 143.31 38.7584 150.758 37.9308C151.172 37.7929 151.724 37.7929 152.138 37.7929C152.965 37.655 154.483 37.517 156.138 37.3791C159.172 37.1032 163.862 36.6895 168.69 36.6895C176.138 36.6895 182.069 37.517 186.621 39.0343H186.758H186.896C197.931 43.1722 202.069 47.586 206.483 53.3791C208.276 55.7239 210.069 57.9308 213.379 60.8274L213.655 61.1032L213.931 61.3791C214.758 62.2067 215.724 63.0343 216.827 63.8619C218.758 65.3791 221.517 67.4481 223.862 71.4481L224.138 71.8619L224.414 72.2757C227.862 79.4481 226.758 86.2067 225.931 91.3101V91.7239C225.379 94.8964 224.552 97.9308 223.172 100.965C222.483 102.62 221.931 104.414 221.655 106.207C221.517 107.31 221.379 108.138 221.241 108.827L221.103 109.379C220.827 112 220.276 114.483 219.448 116.965C218.207 120.965 216.276 124.689 213.793 128.138C209.655 134.207 204.965 137.931 198.758 139.862C195.724 140.827 193.241 142.758 191.586 145.379L191.034 146.069L190.483 146.758C188.965 148.552 189.379 155.448 189.655 159.586C189.931 164.138 190.207 168.827 189.379 173.241C188 180.827 184.69 185.931 181.793 190.345C181.793 190.345 171.034 205.931 161.241 208.827L160.552 209.103L159.862 209.241C158.069 209.517 156.138 209.793 154.207 209.793C153.793 209.793 153.379 209.793 152.827 209.793C152.414 209.793 152 209.793 151.448 209.793C150.758 209.793 149.793 209.793 148.138 209.931H148H147.862C141.379 210.207 137.379 210.345 135.172 210.758C133.655 211.034 132.276 211.448 130.896 212C124.965 214.345 116.965 215.586 105.379 215.586Z" stroke="url(#paint6_linear_2017_146)" stroke-width="0.8575" stroke-miterlimit="10"/>
</g>
</g>
</g>
<defs>
<radialGradient id="paint0_radial_2017_146" cx="0" cy="0" r="1" gradientUnits="userSpaceOnUse" gradientTransform="translate(128.005 141.373) rotate(90) scale(143.787)">
<stop offset="0.1667" stop-color="#073183"/>
<stop offset="1" stop-color="#0054F9"/>
</radialGradient>
<linearGradient id="paint1_linear_2017_146" x1="-17.9257" y1="-28.7793" x2="275.354" y2="279.035" gradientUnits="userSpaceOnUse">
<stop offset="0.2057" stop-color="#89D0FF"/>
<stop offset="0.3984" stop-color="#EBBF9A"/>
<stop offset="0.6015" stop-color="#EB8280"/>
<stop offset="0.8411" stop-color="#A281FF"/>
</linearGradient>
<linearGradient id="paint2_linear_2017_146" x1="-6.55302" y1="-15.5351" x2="263.819" y2="269.396" gradientUnits="userSpaceOnUse">
<stop offset="0.2057" stop-color="#89D0FF"/>
<stop offset="0.3984" stop-color="#EBBF9A"/>
<stop offset="0.6015" stop-color="#EB80DA"/>
<stop offset="0.8411" stop-color="#A281FF"/>
</linearGradient>
<linearGradient id="paint3_linear_2017_146" x1="4.93314" y1="-4.08369" x2="252.392" y2="257.96" gradientUnits="userSpaceOnUse">
<stop offset="0.2057" stop-color="#89D0FF"/>
<stop offset="0.3984" stop-color="#EBBF9A"/>
<stop offset="0.6015" stop-color="#EB8280"/>
<stop offset="0.8411" stop-color="#A281FF"/>
</linearGradient>
<linearGradient id="paint4_linear_2017_146" x1="16.4039" y1="7.40773" x2="240.899" y2="246.492" gradientUnits="userSpaceOnUse">
<stop offset="0.2057" stop-color="#89D0FF"/>
<stop offset="0.3984" stop-color="#EBBF9A"/>
<stop offset="0.6015" stop-color="#EB80E7"/>
<stop offset="0.8411" stop-color="#A281FF"/>
</linearGradient>
<linearGradient id="paint5_linear_2017_146" x1="27.8077" y1="18.9212" x2="229.382" y2="235.029" gradientUnits="userSpaceOnUse">
<stop offset="0.2057" stop-color="#89D0FF"/>
<stop offset="0.3984" stop-color="#EBBF9A"/>
<stop offset="0.6015" stop-color="#EB80D3"/>
<stop offset="0.8411" stop-color="#A281FF"/>
</linearGradient>
<linearGradient id="paint6_linear_2017_146" x1="39.3588" y1="30.2957" x2="217.993" y2="223.514" gradientUnits="userSpaceOnUse">
<stop offset="0.2057" stop-color="#89D0FF"/>
<stop offset="0.3984" stop-color="#EBBF9A"/>
<stop offset="0.6015" stop-color="#A280EB"/>
<stop offset="0.8411" stop-color="#A281FF"/>
</linearGradient>
<clipPath id="clip0_2017_146">
<rect width="256" height="256" fill="white"/>
</clipPath>
</defs>
</svg>
