<svg width="256" height="256" viewBox="0 0 256 256" fill="none" xmlns="http://www.w3.org/2000/svg">
<path d="M128.858 0.000706881C154.137 0.170258 178.8 7.82126 199.736 21.9889C220.672 36.1565 236.945 56.2063 246.501 79.6098C256.058 103.013 258.47 128.723 253.435 153.496C248.399 178.269 236.141 200.996 218.207 218.811C200.272 236.627 177.463 248.733 152.657 253.602C127.852 258.472 102.159 255.888 78.8203 246.175C55.4813 236.462 35.5409 220.056 21.5137 199.025C7.48647 177.995 0.000568594 153.281 0 128.002C0.114758 93.9402 13.7551 61.3192 37.9206 37.3146C62.086 13.3099 94.7972 -0.112222 128.858 0.000706881Z" fill="black"/>
<path d="M135.961 155.034C135.871 155.034 135.794 155.047 135.704 155.086C133.345 156.082 130.753 156.631 128.034 156.631C125.315 156.631 122.725 156.082 120.377 155.086C119.736 154.817 119.21 155.622 119.685 156.12C121.801 158.304 124.751 159.658 128.047 159.658C131.331 159.658 134.294 158.304 136.41 156.12C136.82 155.686 136.474 155.034 135.961 155.034Z" fill="#FED702"/>
<path d="M196.294 149.177C196.191 148.743 196.063 148.321 195.922 147.913L163.792 58.8781C160.124 49.106 152.556 41.2883 142.885 37.2901C138.242 35.3868 133.329 34.4287 128.404 34.4287C123.504 34.4287 118.604 35.374 113.987 37.2773L113.936 37.3028C104.226 41.2883 96.6199 49.1316 92.9644 58.942L61.4755 143.774C59.885 147.415 59 151.451 59 155.679C59 165.349 63.6175 173.946 70.7747 179.413C71.2749 179.797 71.7495 180.205 72.1856 180.665C72.4036 180.895 72.6345 181.112 72.8654 181.329L108.113 213.609C111.858 217.173 116.475 219.69 121.503 220.89C126.057 221.989 130.815 221.989 135.368 220.89C140.396 219.677 145.027 217.161 148.759 213.609L183.993 181.329C185.02 180.346 185.943 179.401 186.931 178.264C187.072 178.098 187.226 177.932 187.38 177.778C193.049 172.043 197 164.404 197 155.679C197.012 153.444 196.756 151.272 196.294 149.177ZM145.399 196.454C140.653 200.286 134.599 202.585 128.019 202.585C121.439 202.585 115.385 200.286 110.639 196.454C109.241 195.33 109.241 193.209 110.639 192.072C115.385 188.24 121.439 185.941 128.019 185.941C134.599 185.941 140.653 188.24 145.399 192.072C146.784 193.196 146.784 195.317 145.399 196.454ZM171.911 170.97L154.582 188.227C153.133 189.671 150.786 189.837 149.196 188.547C143.218 183.718 135.817 181.1 128.006 181.1C120.195 181.1 112.807 183.718 106.817 188.547C106.086 189.134 105.214 189.428 104.329 189.428C103.289 189.428 102.225 189.019 101.443 188.227L84.1141 170.97C82.4596 169.322 82.5109 166.627 84.2553 165.094C96.3634 154.466 111.742 148.666 128.019 148.666C144.296 148.666 159.675 154.466 171.783 165.094C173.514 166.627 173.553 169.322 171.911 170.97ZM171.77 125.482C159.662 136.11 144.283 141.909 128.006 141.909C111.729 141.909 96.3506 136.11 84.2424 125.482C82.498 123.949 82.4467 121.24 84.1013 119.606L101.43 102.348C102.879 100.905 105.226 100.739 106.817 102.028C112.794 106.857 120.195 109.476 128.006 109.476C135.805 109.476 143.206 106.857 149.183 102.028C150.786 100.739 153.12 100.905 154.57 102.348L171.898 119.606C173.566 121.24 173.514 123.949 171.77 125.482Z" fill="#FED702"/>
</svg>
