<svg width="256" height="256" viewBox="0 0 256 256" fill="none" xmlns="http://www.w3.org/2000/svg">
<g clip-path="url(#clip0_2034_188)">
<path d="M256 128C256 57.3075 198.692 0 128 0C57.3075 0 0 57.3075 0 128C0 198.692 57.3075 256 128 256C198.692 256 256 198.692 256 128Z" fill="#843EFE"/>
<path fill-rule="evenodd" clip-rule="evenodd" d="M195.511 83.3632C183.576 110.833 164.041 134.321 139.207 151.063C114.389 167.791 85.3036 177.068 55.3838 177.799C49.1918 168.581 44.8739 158.235 42.6761 147.35C40.4776 136.463 40.4415 125.249 42.57 114.348C44.6974 103.449 48.9483 93.0757 55.0804 83.8179C61.2093 74.5649 69.1006 66.6097 78.3038 60.4064C87.5023 54.2068 97.833 49.8818 108.705 47.679C119.574 45.4769 130.771 45.4406 141.654 47.5722C152.54 49.7046 162.898 53.9625 172.136 60.1024C181.38 66.246 189.322 74.15 195.511 83.3632ZM201.421 82.8435V69.7859C201.421 69.6509 201.457 69.5184 201.524 69.4012C201.591 69.2845 201.687 69.1891 201.8 69.1247L213.045 62.5128C213.155 62.4463 213.281 62.4111 213.41 62.4111C213.539 62.4111 213.665 62.4463 213.775 62.5128C213.886 62.5807 213.978 62.6769 214.041 62.7928C214.105 62.9088 214.138 63.0403 214.138 63.1747V76.2323C214.137 76.3654 214.103 76.4963 214.039 76.6127C213.975 76.728 213.884 76.8249 213.773 76.8927L202.513 83.5046C202.403 83.5711 202.277 83.6062 202.148 83.6062C202.02 83.6062 201.894 83.5711 201.783 83.5046C201.671 83.4364 201.579 83.3398 201.517 83.2246C201.453 83.1078 201.42 82.9767 201.421 82.8435ZM193.748 179.171C204.008 164.801 209.523 147.585 209.522 129.929C209.526 116.915 206.515 104.077 200.724 92.4231C174.339 126.578 157.62 167.198 152.317 210.031C169.009 204.32 183.497 193.529 193.748 179.171Z" fill="white"/>
</g>
<defs>
<clipPath id="clip0_2034_188">
<rect width="256" height="256" fill="white"/>
</clipPath>
</defs>
</svg>
