<svg width="256" height="256" viewBox="0 0 256 256" fill="none" xmlns="http://www.w3.org/2000/svg">
<path d="M256 127.998C256 161.946 242.514 194.504 218.509 218.509C194.504 242.514 161.946 256 127.998 256C94.0514 255.999 61.495 242.513 37.491 218.509C13.487 194.505 0.00116778 161.95 0 128.002C-2.00871e-08 94.0551 13.4853 61.4975 37.4895 37.4926C61.4936 13.4876 94.0505 0.00116783 127.998 0C161.946 -2.00871e-08 194.503 13.4853 218.508 37.4895C242.512 61.4935 255.999 94.0505 256 127.998Z" fill="#22272A"/>
<path d="M147.873 39.1697C147.9 55.64 144.398 71.9265 137.601 86.9411C137.6 86.9602 137.6 86.9789 137.601 86.998C136.627 89.5994 135.384 92.0931 133.892 94.4381C131.984 97.4322 129.696 100.168 127.083 102.577C123.452 105.963 119.212 108.635 114.585 110.455L113.444 110.903C95.5031 117.929 80.705 131.158 71.7609 148.166C70.9239 149.772 70.1345 151.411 69.3926 153.082C69.3926 105.424 143.445 103.481 146.903 24.0625C147.553 29.0721 147.878 34.1184 147.873 39.1697Z" fill="url(#paint0_linear_1880_5344)"/>
<path d="M147.873 39.1697C147.9 55.64 144.398 71.9265 137.601 86.9411C137.6 86.9602 137.6 86.9789 137.601 86.998C136.627 89.5994 135.384 92.0931 133.892 94.4381C131.984 97.4322 129.696 100.168 127.083 102.577C123.452 105.963 119.212 108.635 114.585 110.455L113.444 110.903C95.5031 117.929 80.705 131.158 71.7609 148.166C70.9239 149.772 70.1345 151.411 69.3926 153.082C69.3926 105.424 143.445 103.481 146.903 24.0625C147.553 29.0721 147.878 34.1184 147.873 39.1697Z" fill="url(#paint1_linear_1880_5344)" fill-opacity="0.37"/>
<path d="M147.873 39.1697C147.9 55.64 144.398 71.9265 137.601 86.9411C137.6 86.9602 137.6 86.9789 137.601 86.998C136.627 89.5994 135.384 92.0931 133.892 94.4381C131.984 97.4322 129.696 100.168 127.083 102.577C123.452 105.963 119.212 108.635 114.585 110.455L113.444 110.903C95.5031 117.929 80.705 131.158 71.7609 148.166C70.9239 149.772 70.1345 151.411 69.3926 153.082C69.3926 105.424 143.445 103.481 146.903 24.0625C147.553 29.0721 147.878 34.1184 147.873 39.1697Z" fill="black" fill-opacity="0.2"/>
<path d="M146.897 24.0796C143.439 103.481 69.3868 105.424 69.3868 153.099C69.0558 151.86 68.7818 150.593 68.5707 149.308C68.1926 147.088 68.0017 144.841 68 142.59C68 129.643 74.483 118.52 83.6539 110.272C83.6539 110.272 83.6824 110.272 83.6881 110.239C102.823 92.2495 118.129 71.4817 131.837 48.1386C136.619 39.9825 142.104 32.247 146.897 24.0796Z" fill="url(#paint2_linear_1880_5344)"/>
<path d="M146.897 24.0796C143.439 103.481 69.3868 105.424 69.3868 153.099C69.0558 151.86 68.7818 150.593 68.5707 149.308C68.1926 147.088 68.0017 144.841 68 142.59C68 129.643 74.483 118.52 83.6539 110.272C83.6539 110.272 83.6824 110.272 83.6881 110.239C102.823 92.2495 118.129 71.4817 131.837 48.1386C136.619 39.9825 142.104 32.247 146.897 24.0796Z" fill="url(#paint3_linear_1880_5344)" fill-opacity="0.37"/>
<path d="M146.897 24.0796C143.439 103.481 69.3868 105.424 69.3868 153.099C69.0558 151.86 68.7818 150.593 68.5707 149.308C68.1926 147.088 68.0017 144.841 68 142.59C68 129.643 74.483 118.52 83.6539 110.272C83.6539 110.272 83.6824 110.272 83.6881 110.239C102.823 92.2495 118.129 71.4817 131.837 48.1386C136.619 39.9825 142.104 32.247 146.897 24.0796Z" fill="white" fill-opacity="0.2"/>
<path d="M130.69 109.908C121.382 132.2 93.1272 136.622 77.2051 156.514C77.9362 153.111 79.0863 149.811 80.6292 146.687C85.0633 137.727 92.3712 130.494 101.396 126.135C102.77 125.574 104.138 124.989 105.5 124.379C112.384 121.309 119.011 117.698 125.319 113.58C127.146 112.398 128.936 111.174 130.69 109.908Z" fill="url(#paint4_linear_1880_5344)"/>
<path d="M130.69 109.908C121.382 132.2 93.1272 136.622 77.2051 156.514C77.9362 153.111 79.0863 149.811 80.6292 146.687C85.0633 137.727 92.3712 130.494 101.396 126.135C102.77 125.574 104.138 124.989 105.5 124.379C112.384 121.309 119.011 117.698 125.319 113.58C127.146 112.398 128.936 111.174 130.69 109.908Z" fill="url(#paint5_linear_1880_5344)" fill-opacity="0.2"/>
<path d="M130.69 109.908C121.382 132.2 93.1272 136.622 77.2051 156.514C77.9362 153.111 79.0863 149.811 80.6292 146.687C85.0633 137.727 92.3712 130.494 101.396 126.135C102.77 125.574 104.138 124.989 105.5 124.379C112.384 121.309 119.011 117.698 125.319 113.58C127.146 112.398 128.936 111.174 130.69 109.908Z" fill="white" fill-opacity="0.2"/>
<path d="M187.805 112.779C187.805 125.726 181.316 136.849 172.151 145.096L172.116 145.13C153.004 163.102 137.681 183.87 123.979 207.213C119.197 215.369 113.707 223.127 108.919 231.272C112.343 151.871 186.429 149.927 186.429 102.252C186.76 103.491 187.034 104.759 187.245 106.044C187.62 108.269 187.808 110.522 187.805 112.779Z" fill="url(#paint6_linear_1880_5344)"/>
<path d="M187.805 112.779C187.805 125.726 181.316 136.849 172.151 145.096L172.116 145.13C153.004 163.102 137.681 183.87 123.979 207.213C119.197 215.369 113.707 223.127 108.919 231.272C112.343 151.871 186.429 149.927 186.429 102.252C186.76 103.491 187.034 104.759 187.245 106.044C187.62 108.269 187.808 110.522 187.805 112.779Z" fill="url(#paint7_linear_1880_5344)" fill-opacity="0.37"/>
<path d="M187.805 112.779C187.805 125.726 181.316 136.849 172.151 145.096L172.116 145.13C153.004 163.102 137.681 183.87 123.979 207.213C119.197 215.369 113.707 223.127 108.919 231.272C112.343 151.871 186.429 149.927 186.429 102.252C186.76 103.491 187.034 104.759 187.245 106.044C187.62 108.269 187.808 110.522 187.805 112.779Z" fill="white" fill-opacity="0.2"/>
<path d="M186.429 102.27C186.429 149.927 112.372 151.871 108.919 231.289C108.272 226.279 107.952 221.233 107.96 216.182C107.937 199.721 111.439 183.445 118.232 168.439C118.233 168.42 118.233 168.401 118.232 168.382C119.206 165.781 120.45 163.287 121.942 160.942C123.849 157.948 126.138 155.212 128.75 152.803C132.381 149.417 136.622 146.745 141.248 144.926L142.39 144.477C160.307 137.438 175.081 124.211 184.01 107.215C184.885 105.589 185.691 103.941 186.429 102.27Z" fill="url(#paint8_linear_1880_5344)"/>
<path d="M186.429 102.27C186.429 149.927 112.372 151.871 108.919 231.289C108.272 226.279 107.952 221.233 107.96 216.182C107.937 199.721 111.439 183.445 118.232 168.439C118.233 168.42 118.233 168.401 118.232 168.382C119.206 165.781 120.45 163.287 121.942 160.942C123.849 157.948 126.138 155.212 128.75 152.803C132.381 149.417 136.622 146.745 141.248 144.926L142.39 144.477C160.307 137.438 175.081 124.211 184.01 107.215C184.885 105.589 185.691 103.941 186.429 102.27Z" fill="url(#paint9_linear_1880_5344)" fill-opacity="0.37"/>
<path d="M186.429 102.27C186.429 149.927 112.372 151.871 108.919 231.289C108.272 226.279 107.952 221.233 107.96 216.182C107.937 199.721 111.439 183.445 118.232 168.439C118.233 168.42 118.233 168.401 118.232 168.382C119.206 165.781 120.45 163.287 121.942 160.942C123.849 157.948 126.138 155.212 128.75 152.803C132.381 149.417 136.622 146.745 141.248 144.926L142.39 144.477C160.307 137.438 175.081 124.211 184.01 107.215C184.885 105.589 185.691 103.941 186.429 102.27Z" fill="#8D8D8D" fill-opacity="0.2"/>
<path d="M178.611 98.8257C162.688 118.752 134.434 123.152 125.126 145.432C126.268 141.461 127.58 137.562 129.064 133.735C129.703 132.075 130.375 130.431 131.078 128.801C132.642 125.175 136.215 118.156 136.215 118.156C141.162 109.34 150.345 105.913 160.183 105.526H160.235C160.617 105.526 160.999 105.526 161.376 105.526H161.445C167.756 105.256 173.796 102.898 178.611 98.8257Z" fill="url(#paint10_linear_1880_5344)"/>
<path d="M178.611 98.8257C162.688 118.752 134.434 123.152 125.126 145.432C126.268 141.461 127.58 137.562 129.064 133.735C129.703 132.075 130.375 130.431 131.078 128.801C132.642 125.175 136.215 118.156 136.215 118.156C141.162 109.34 150.345 105.913 160.183 105.526H160.235C160.617 105.526 160.999 105.526 161.376 105.526H161.445C167.756 105.256 173.796 102.898 178.611 98.8257Z" fill="url(#paint11_linear_1880_5344)" fill-opacity="0.2"/>
<path d="M178.611 98.8257C162.688 118.752 134.434 123.152 125.126 145.432C126.268 141.461 127.58 137.562 129.064 133.735C129.703 132.075 130.375 130.431 131.078 128.801C132.642 125.175 136.215 118.156 136.215 118.156C141.162 109.34 150.345 105.913 160.183 105.526H160.235C160.617 105.526 160.999 105.526 161.376 105.526H161.445C167.756 105.256 173.796 102.898 178.611 98.8257Z" fill="#707070" fill-opacity="0.2"/>
<path d="M130.69 109.908C129.549 113.879 128.236 117.778 126.753 121.605C126.114 123.265 125.442 124.909 124.738 126.539C123.174 130.165 119.602 137.184 119.602 137.184C114.654 146 105.472 149.427 95.6332 149.813H95.5818C95.1995 149.813 94.8171 149.813 94.4404 149.813H94.372C88.0617 150.07 82.0174 152.414 77.1943 156.475C93.1222 136.599 121.383 132.2 130.69 109.908Z" fill="url(#paint12_linear_1880_5344)"/>
<path d="M130.69 109.908C129.549 113.879 128.236 117.778 126.753 121.605C126.114 123.265 125.442 124.909 124.738 126.539C123.174 130.165 119.602 137.184 119.602 137.184C114.654 146 105.472 149.427 95.6332 149.813H95.5818C95.1995 149.813 94.8171 149.813 94.4404 149.813H94.372C88.0617 150.07 82.0174 152.414 77.1943 156.475C93.1222 136.599 121.383 132.2 130.69 109.908Z" fill="url(#paint13_linear_1880_5344)" fill-opacity="0.2"/>
<path d="M130.69 109.908C129.549 113.879 128.236 117.778 126.753 121.605C126.114 123.265 125.442 124.909 124.738 126.539C123.174 130.165 119.602 137.184 119.602 137.184C114.654 146 105.472 149.427 95.6332 149.813H95.5818C95.1995 149.813 94.8171 149.813 94.4404 149.813H94.372C88.0617 150.07 82.0174 152.414 77.1943 156.475C93.1222 136.599 121.383 132.2 130.69 109.908Z" fill="#9C9C9C" fill-opacity="0.2"/>
<path d="M178.611 98.8257C177.88 102.229 176.73 105.53 175.187 108.653C170.749 117.622 163.432 124.858 154.397 129.216C153.023 129.781 151.655 130.366 150.293 130.973C143.409 134.042 136.782 137.653 130.473 141.772C128.662 142.95 126.88 144.17 125.126 145.432C134.434 123.152 162.688 118.752 178.611 98.8257Z" fill="url(#paint14_linear_1880_5344)"/>
<path d="M178.611 98.8257C177.88 102.229 176.73 105.53 175.187 108.653C170.749 117.622 163.432 124.858 154.397 129.216C153.023 129.781 151.655 130.366 150.293 130.973C143.409 134.042 136.782 137.653 130.473 141.772C128.662 142.95 126.88 144.17 125.126 145.432C134.434 123.152 162.688 118.752 178.611 98.8257Z" fill="url(#paint15_linear_1880_5344)" fill-opacity="0.2"/>
<path d="M178.611 98.8257C177.88 102.229 176.73 105.53 175.187 108.653C170.749 117.622 163.432 124.858 154.397 129.216C153.023 129.781 151.655 130.366 150.293 130.973C143.409 134.042 136.782 137.653 130.473 141.772C128.662 142.95 126.88 144.17 125.126 145.432C134.434 123.152 162.688 118.752 178.611 98.8257Z" fill="white" fill-opacity="0.2"/>
<path d="M108.941 230.983C110.47 193.761 127.254 171.668 155.326 149.041C165.17 140.669 175.733 132.354 181.851 120.737C184.862 114.94 186.428 108.507 186.417 101.98C186.467 108.516 184.934 114.968 181.948 120.788C175.848 132.439 165.284 140.795 155.451 149.206C127.271 172.06 110.733 193.596 108.906 230.994L108.941 230.983Z" fill="white"/>
<path d="M77.2275 156.231C84.6579 146.7 95.3011 140.516 105.453 134.264C115.56 128.114 125.964 120.873 130.712 109.625C129.566 112.395 128.084 115.015 126.301 117.429C120.908 124.698 113.175 129.774 105.613 134.52C95.4723 140.772 84.8576 146.881 77.2275 156.243V156.231Z" fill="white"/>
<path d="M178.634 98.5361C171.215 108.067 160.526 114.223 150.402 120.515C140.307 126.682 129.857 133.883 125.149 145.153C126.282 142.378 127.756 139.753 129.538 137.338C134.948 130.081 142.664 125.005 150.242 120.288C160.412 114.036 171.015 107.931 178.634 98.5646V98.5361Z" fill="white"/>
<path d="M146.892 24C145.362 61.2169 128.578 83.3091 100.484 105.947C90.6394 114.319 80.076 122.635 73.9583 134.264C70.9473 140.06 69.3814 146.493 69.3928 153.019C69.3425 146.484 70.8753 140.032 73.8613 134.212C79.9619 122.561 90.5253 114.206 100.358 105.794C128.504 82.9341 145.054 61.393 146.892 24Z" fill="white"/>
<circle cx="128" cy="128" r="128" fill="white" style="mix-blend-mode:difference"/>
<defs>
<linearGradient id="paint0_linear_1880_5344" x1="95.0763" y1="148.571" x2="138.318" y2="-35.9363" gradientUnits="userSpaceOnUse">
<stop stop-color="#04E104"/>
<stop offset="0.335771" stop-color="#00FF00"/>
<stop offset="0.53125" stop-color="#00FFFE"/>
</linearGradient>
<linearGradient id="paint1_linear_1880_5344" x1="108.633" y1="147.929" x2="156.161" y2="-7.27187" gradientUnits="userSpaceOnUse">
<stop stop-opacity="0"/>
<stop offset="1" stop-opacity="0.47"/>
</linearGradient>
<linearGradient id="paint2_linear_1880_5344" x1="57.8425" y1="134.932" x2="134.126" y2="-44.9091" gradientUnits="userSpaceOnUse">
<stop stop-color="#00FF00"/>
<stop offset="0.335771" stop-color="#00FF00"/>
<stop offset="0.53125" stop-color="#00FFFE"/>
</linearGradient>
<linearGradient id="paint3_linear_1880_5344" x1="107.449" y1="147.947" x2="154.769" y2="-7.39501" gradientUnits="userSpaceOnUse">
<stop stop-opacity="0"/>
<stop offset="1" stop-opacity="0.47"/>
</linearGradient>
<linearGradient id="paint4_linear_1880_5344" x1="111.054" y1="109.908" x2="61.3647" y2="152.644" gradientUnits="userSpaceOnUse">
<stop stop-color="#FFE605"/>
<stop offset="1" stop-color="#FFFF00"/>
</linearGradient>
<linearGradient id="paint5_linear_1880_5344" x1="117.141" y1="101.789" x2="81.0457" y2="149.678" gradientUnits="userSpaceOnUse">
<stop stop-color="#9B9B9B"/>
<stop offset="1" stop-color="#B9B9B9" stop-opacity="0"/>
</linearGradient>
<linearGradient id="paint6_linear_1880_5344" x1="191.216" y1="102.252" x2="144.087" y2="256.197" gradientUnits="userSpaceOnUse">
<stop stop-color="#04E104"/>
<stop offset="0.518418" stop-color="#00FF00"/>
<stop offset="0.802778" stop-color="#00FFFE"/>
</linearGradient>
<linearGradient id="paint7_linear_1880_5344" x1="148.362" y1="226.12" x2="195.688" y2="70.7818" gradientUnits="userSpaceOnUse">
<stop stop-opacity="0"/>
<stop offset="1" stop-opacity="0.47"/>
</linearGradient>
<linearGradient id="paint8_linear_1880_5344" x1="172.575" y1="102.27" x2="110.38" y2="247.544" gradientUnits="userSpaceOnUse">
<stop stop-color="#00FF00"/>
<stop offset="0.518418" stop-color="#00FF00"/>
<stop offset="0.802778" stop-color="#00FFFE"/>
</linearGradient>
<linearGradient id="paint9_linear_1880_5344" x1="147.195" y1="226.136" x2="194.729" y2="70.9392" gradientUnits="userSpaceOnUse">
<stop stop-opacity="0"/>
<stop offset="1" stop-opacity="0.47"/>
</linearGradient>
<linearGradient id="paint10_linear_1880_5344" x1="158.975" y1="98.8257" x2="109.286" y2="141.561" gradientUnits="userSpaceOnUse">
<stop stop-color="#FFE605"/>
<stop offset="1" stop-color="#FFFF00"/>
</linearGradient>
<linearGradient id="paint11_linear_1880_5344" x1="165.062" y1="90.706" x2="128.967" y2="138.595" gradientUnits="userSpaceOnUse">
<stop stop-color="#9B9B9B"/>
<stop offset="1" stop-color="#B9B9B9" stop-opacity="0"/>
</linearGradient>
<linearGradient id="paint12_linear_1880_5344" x1="103.942" y1="109.908" x2="103.942" y2="156.475" gradientUnits="userSpaceOnUse">
<stop stop-color="#FFFF00"/>
<stop offset="1" stop-color="#FFE605"/>
</linearGradient>
<linearGradient id="paint13_linear_1880_5344" x1="127.014" y1="123.412" x2="103.942" y2="156.475" gradientUnits="userSpaceOnUse">
<stop stop-color="#818181"/>
<stop offset="1" stop-opacity="0"/>
</linearGradient>
<linearGradient id="paint14_linear_1880_5344" x1="151.868" y1="98.8257" x2="151.868" y2="145.432" gradientUnits="userSpaceOnUse">
<stop stop-color="#FFFF00"/>
<stop offset="1" stop-color="#FFE605"/>
</linearGradient>
<linearGradient id="paint15_linear_1880_5344" x1="174.935" y1="112.34" x2="151.835" y2="145.409" gradientUnits="userSpaceOnUse">
<stop stop-color="#818181"/>
<stop offset="1" stop-opacity="0"/>
</linearGradient>
</defs>
</svg>
