<svg width="256" height="256" viewBox="0 0 256 256" fill="none" xmlns="http://www.w3.org/2000/svg">
<g clip-path="url(#clip0_2034_201)">
<path d="M256 128C256 57.3075 198.692 0 128 0C57.3075 0 0 57.3075 0 128C0 198.692 57.3075 256 128 256C198.692 256 256 198.692 256 128Z" fill="#1C1F26"/>
<path d="M116.551 62C111.594 62 108.494 67.3624 110.97 71.6564L174.377 181.665H209.405C214.368 181.665 217.467 176.291 214.98 171.997L153.139 65.2142C151.987 63.2249 149.862 62 147.563 62H116.551Z" fill="url(#paint0_linear_2034_201)"/>
<path d="M59.3899 141.778H197.469L214.969 171.995C217.456 176.29 214.357 181.666 209.394 181.666H47.4642C42.5014 181.666 39.4026 176.29 41.8897 171.995L59.3899 141.778Z" fill="url(#paint1_linear_2034_201)"/>
<path d="M151.272 62L82.1799 181.664H47.4514C42.4921 181.664 39.3931 176.298 41.8729 172.003L103.538 65.2211C104.69 63.228 106.817 62 109.119 62H151.272Z" fill="url(#paint2_linear_2034_201)"/>
</g>
<defs>
<linearGradient id="paint0_linear_2034_201" x1="138.677" y1="81.9441" x2="194.988" y2="179.487" gradientUnits="userSpaceOnUse">
<stop stop-color="#08AEEA"/>
<stop offset="1" stop-color="#2AF598"/>
</linearGradient>
<linearGradient id="paint1_linear_2034_201" x1="90.8908" y1="164.871" x2="164.392" y2="165.432" gradientUnits="userSpaceOnUse">
<stop stop-color="#08AEEA"/>
<stop offset="1" stop-color="#2AF598"/>
</linearGradient>
<linearGradient id="paint2_linear_2034_201" x1="131.486" y1="43.5886" x2="94.1171" y2="105.419" gradientUnits="userSpaceOnUse">
<stop stop-color="#08AEEA"/>
<stop offset="1" stop-color="#2AF598"/>
</linearGradient>
<clipPath id="clip0_2034_201">
<rect width="256" height="256" fill="white"/>
</clipPath>
</defs>
</svg>
