<svg width="256" height="256" viewBox="0 0 256 256" fill="none" xmlns="http://www.w3.org/2000/svg">
<g clip-path="url(#clip0_1760_714)">
<path d="M128 256C198.692 256 256 198.692 256 128C256 57.3075 198.692 0 128 0C57.3075 0 0 57.3075 0 128C0 198.692 57.3075 256 128 256Z" fill="#00EBAB"/>
<path d="M188.227 34H166V39.5059H188.031V45.0119H166V61.5331H193.537V56.0272H171.506V50.5213H193.537V34H188.224H188.227Z" fill="black"/>
<path d="M140.67 146.629L132.37 169.365C132.145 169.997 132.145 170.686 132.37 171.318L146.649 210.438L163.165 200.911L143.343 146.629C142.893 145.379 141.121 145.379 140.67 146.629Z" fill="black"/>
<path d="M157.313 108.395C156.862 107.144 155.09 107.144 154.639 108.395L146.34 131.131C146.115 131.763 146.115 132.451 146.34 133.084L169.735 197.132L186.25 187.605L157.313 108.395Z" fill="black"/>
<path d="M127.967 58.6091C128.375 58.6091 128.783 58.7215 129.149 58.9182L192.131 95.242C192.862 95.6637 193.313 96.4508 193.313 97.2796V169.913C193.313 170.756 192.862 171.529 192.131 171.951L129.149 208.275C128.797 208.486 128.375 208.584 127.967 208.584C127.559 208.584 127.151 208.471 126.785 208.275L63.803 171.979C63.0715 171.558 62.6213 170.771 62.6213 169.941V97.2938C62.6213 96.4508 63.0715 95.678 63.803 95.2562L126.785 58.9323C127.151 58.7215 127.559 58.6091 127.967 58.6091ZM127.967 48C125.73 48 123.479 48.5761 121.468 49.7424L58.4994 86.0523C54.476 88.3708 52 92.6566 52 97.2938V169.928C52 174.565 54.476 178.85 58.4994 181.169L121.482 217.493C123.493 218.645 125.73 219.235 127.981 219.235C130.218 219.235 132.469 218.659 134.481 217.493L197.463 181.169C201.486 178.85 203.962 174.565 203.962 169.928V97.2938C203.962 92.6566 201.486 88.3708 197.463 86.0523L134.466 49.7424C132.455 48.5761 130.204 48 127.967 48Z" fill="black"/>
<path d="M86.3118 197.216L92.1078 181.365L103.77 191.047L92.8675 200.996L86.3118 197.216Z" fill="#040404"/>
<path d="M122.664 92.0938H106.696C105.501 92.0938 104.431 92.8385 104.024 93.9626L69.7961 187.688L86.3119 197.215L124 94.0048C124.351 93.0774 123.663 92.0938 122.664 92.0938Z" fill="black"/>
<path d="M150.603 92.0938H134.635C133.439 92.0938 132.371 92.8385 131.962 93.9626L92.8817 200.981L109.397 210.508L151.939 94.0048C152.276 93.0774 151.588 92.0938 150.603 92.0938Z" fill="black"/>
</g>
<defs>
<clipPath id="clip0_1760_714">
<rect width="256" height="256" fill="white"/>
</clipPath>
</defs>
</svg>
