<svg width="300" height="300" viewBox="0 0 300 300" fill="none" xmlns="http://www.w3.org/2000/svg">
<circle cx="150" cy="150" r="150" fill="#2C374B"/>
<g clip-path="url(#clip0_4908_110)">
<path d="M50.657 101.921V196.001C50.657 202.049 53.825 207.521 59.105 210.593L140.609 257.633C145.793 260.609 152.225 260.609 157.409 257.633L238.913 210.593C244.097 207.617 247.361 202.049 247.361 196.001V101.921C247.361 95.873 244.193 90.401 238.913 87.329L157.409 40.289C152.225 37.313 145.793 37.313 140.609 40.289L59.105 87.329C53.921 90.305 50.753 95.873 50.753 101.921H50.657Z" fill="#213147"/>
<path d="M166.721 167.201L155.105 199.073C154.817 199.937 154.817 200.897 155.105 201.857L175.073 256.673L198.209 243.329L170.465 167.201C169.793 165.473 167.393 165.473 166.721 167.201Z" fill="#12AAFF"/>
<path d="M190.049 113.633C189.377 111.905 186.977 111.905 186.305 113.633L174.689 145.505C174.401 146.369 174.401 147.329 174.689 148.289L207.425 238.049L230.561 224.705L190.049 113.729V113.633Z" fill="#12AAFF"/>
<path d="M148.961 43.8411C149.537 43.8411 150.113 44.0331 150.593 44.3211L238.721 95.2011C239.777 95.7771 240.353 96.9291 240.353 98.0811V199.841C240.353 200.993 239.681 202.145 238.721 202.721L150.593 253.601C150.113 253.889 149.537 254.081 148.961 254.081C148.385 254.081 147.809 253.889 147.329 253.601L59.201 202.721C58.145 202.145 57.569 200.993 57.569 199.841V97.9851C57.569 96.8331 58.241 95.6811 59.201 95.1051L147.329 44.2251C147.809 43.9371 148.385 43.7451 148.961 43.7451V43.8411ZM148.961 28.9611C145.793 28.9611 142.721 29.7291 139.841 31.3611L51.713 82.2411C46.049 85.5051 42.593 91.4571 42.593 97.9851V199.745C42.593 206.273 46.049 212.225 51.713 215.489L139.841 266.369C142.625 268.001 145.793 268.769 148.961 268.769C152.129 268.769 155.201 268.001 158.081 266.369L246.209 215.489C251.873 212.225 255.329 206.273 255.329 199.745V97.9851C255.329 91.4571 251.873 85.5051 246.209 82.2411L157.985 31.3611C155.201 29.7291 152.033 28.9611 148.865 28.9611H148.961Z" fill="#9DCCED"/>
<path d="M90.593 238.145L98.753 215.873L115.073 229.409L99.809 243.425L90.593 238.145Z" fill="#213147"/>
<path d="M141.473 90.7851H119.105C117.473 90.7851 115.937 91.8411 115.361 93.3771L67.457 224.705L90.593 238.049L143.393 93.3771C143.873 92.0331 142.913 90.6891 141.569 90.6891L141.473 90.7851Z" fill="white"/>
<path d="M180.641 90.7851H158.273C156.641 90.7851 155.105 91.8411 154.529 93.3771L99.8091 243.329L122.945 256.673L182.465 93.3771C182.945 92.0331 181.985 90.6891 180.641 90.6891V90.7851Z" fill="white"/>
</g>
<defs>
<clipPath id="clip0_4908_110">
<rect width="240" height="240" fill="white" transform="translate(30 30)"/>
</clipPath>
</defs>
</svg>
