<svg version="1.1" id="Layer_1" xmlns="http://www.w3.org/2000/svg" x="0" y="0" viewBox="480 480 1040 1040" xml:space="preserve"><style>.st1{fill:#0ff}.st2{fill:#fff}</style><path d="M1345.58 654.42c-88.41-88.43-210.65-143.15-345.58-143.14-134.93 0-257.17 54.72-345.58 143.14-88.43 88.41-143.15 210.65-143.14 345.58 0 134.93 54.72 257.17 143.14 345.58 88.41 88.43 210.65 143.15 345.58 143.14 134.93 0 257.17-54.72 345.58-143.14 88.43-88.41 143.15-210.65 143.14-345.58.01-134.93-54.71-257.17-143.14-345.58z" fill="#202336"/><path class="st1" d="M1345.58 654.42c-88.41-88.43-210.65-143.15-345.58-143.14-134.93 0-257.17 54.72-345.58 143.14-88.43 88.41-143.15 210.65-143.14 345.58 0 134.93 54.72 257.17 143.14 345.58 88.41 88.43 210.65 143.15 345.58 143.14 134.93 0 257.17-54.72 345.58-143.14 88.43-88.41 143.15-210.65 143.14-345.58.01-134.93-54.71-257.17-143.14-345.58zm-13.22 677.94c-85.09 85.07-202.54 137.66-332.36 137.67-129.82 0-247.27-52.6-332.36-137.67-85.07-85.09-137.66-202.54-137.67-332.36 0-129.82 52.6-247.27 137.67-332.36 85.09-85.07 202.54-137.66 332.36-137.67 129.82 0 247.27 52.6 332.36 137.67 85.07 85.09 137.66 202.54 137.67 332.36-.01 129.82-52.6 247.27-137.67 332.36z"/><path class="st2" d="M933.75 896.55l112.67 65.22.51-130.43zM933.75 752.36l112.67 65.22.51-130.43zM1058.63 823.44l112.67 65.21.51-130.42zM1046.42 1123.81l-112.67 65.22 113.18 65.21z"/><path class="st1" d="M933.12 1042.79l113.3 65.21V977.58zM1058.57 1120.04l113.3 65.21v-130.43zM808.39 972.98l113.29 65.22V907.77zM687.08 899.29l113.3 65.22V834.08z"/><path class="st2" d="M929.17 1050.69v130.43l113.3-65.21zM929.17 1197.61v130.42l113.3-65.21zM1041.84 823.44l-112.67-65.21v130.42zM1168.87 749.62l-112.67-65.21v130.43zM1296.32 823.44l-112.67-65.21v130.42z"/><path class="st1" d="M929.17 904.46v130.43l112.67-65.22zM1052.76 980.56v130.43l112.68-65.22zM1179.79 1054.82v130.43l112.67-65.21zM808.7 834.08v130.43l112.67-65.22z"/></svg>