<svg width="256" height="256" viewBox="0 0 256 256" fill="none" xmlns="http://www.w3.org/2000/svg">
<path d="M141.484 7V42.4413C141.484 52.9092 148.363 62.0312 158.233 65.3211C166.757 68.1624 174.683 72.2 181.861 76.8358L167.953 101.211C155.99 93.4349 141.634 87.4532 129.222 87.4532C119.203 87.4532 111.427 92.3881 111.427 99.8651C111.427 107.043 118.904 109.137 136.699 114.072C160.028 120.053 185.599 127.829 185.599 156.99C185.599 175.683 174.683 189.44 156.887 196.02C147.616 199.46 141.634 208.582 141.634 218.451V249.855C202.796 243.275 250.5 191.384 250.5 128.428C250.5 65.4706 202.647 13.5798 141.484 7Z" fill="url(#paint0_linear_741_46)"/>
<path d="M98.5661 194.824C88.3972 191.384 78.8266 186.45 70.7514 180.019L86.0046 156.242C99.9119 166.112 117.558 172.542 131.764 172.542C144.475 172.542 151.205 167.906 151.205 160.13C151.205 151.606 140.288 148.017 125.932 144.428C98.267 137.699 77.0321 130.222 77.0321 103.903C77.0321 87.3037 85.855 73.9945 100.809 66.667C109.333 62.4798 115.016 54.255 115.016 44.6844V7C53.7037 13.5798 6 65.4706 6 128.428C6 191.384 53.7037 243.275 114.866 249.855V217.554C114.866 207.236 108.286 198.114 98.5661 194.824Z" fill="url(#paint1_linear_741_46)"/>
<defs>
<linearGradient id="paint0_linear_741_46" x1="96.5105" y1="254.865" x2="204.796" y2="68.9754" gradientUnits="userSpaceOnUse">
<stop stop-color="#0A4BEF"/>
<stop offset="1" stop-color="#007DDE"/>
</linearGradient>
<linearGradient id="paint1_linear_741_46" x1="33.8111" y1="218.341" x2="142.096" y2="32.4515" gradientUnits="userSpaceOnUse">
<stop stop-color="#0A4BEF"/>
<stop offset="1" stop-color="#007DDE"/>
</linearGradient>
</defs>
</svg>
