<svg width="256" height="256" viewBox="0 0 256 256" fill="none" xmlns="http://www.w3.org/2000/svg">
<g clip-path="url(#clip0_2034_253)">
<path d="M256 128C256 57.3076 198.692 0 128 0C57.3076 0 0 57.3076 0 128C0 198.692 57.3076 256 128 256C198.692 256 256 198.692 256 128Z" fill="#232435"/>
<mask id="mask0_2034_253" style="mask-type:luminance" maskUnits="userSpaceOnUse" x="38" y="38" width="180" height="180">
<path d="M218 38H38V218H218V38Z" fill="white"/>
</mask>
<g mask="url(#mask0_2034_253)">
<path d="M51.3869 123.299C54.5237 122.115 55.9428 118.578 54.8428 115.66C53.9737 112.962 50.6807 110.89 47.3673 112.094C43.7892 113.388 42.8387 117.153 43.7892 119.789C44.7262 122.398 47.8902 124.621 51.3869 123.299Z" fill="url(#paint0_linear_2034_253)"/>
<path d="M39.1858 130.766C36.1372 131.923 35.0033 135.041 35.9267 137.718C36.8501 140.396 39.9395 142.103 42.7096 140.933C45.5681 140.079 46.9328 136.637 45.9347 134.001C44.7465 130.87 41.4264 129.92 39.1858 130.766Z" fill="url(#paint1_linear_2034_253)"/>
<path d="M45.3037 164.526C46.1727 167.011 49.486 168.903 52.3784 167.85C55.0603 166.866 56.8731 163.521 55.7053 160.665C54.6869 157.664 51.6722 156.136 48.6576 157.244C45.2289 158.504 44.4482 162.062 45.3037 164.526Z" fill="url(#paint2_linear_2034_253)"/>
<path d="M43.8163 143.878C40.6524 145.048 39.3826 148.421 40.5436 151.146C41.3924 154.023 44.5428 155.641 47.5981 154.567C50.7486 153.459 51.964 150.107 51.0134 147.395C49.9203 144.271 46.8106 142.763 43.8163 143.878Z" fill="url(#paint3_linear_2034_253)"/>
<path d="M50.1854 79.1746C52.134 78.4657 53.2476 75.9673 52.5143 73.9438C51.7335 71.8102 49.4726 70.7434 47.3406 71.5143C45.3716 72.2714 44.1087 74.405 44.9506 76.7382C45.7518 78.9475 47.972 79.9661 50.1854 79.1746Z" fill="url(#paint4_linear_2034_253)"/>
<path d="M39.9195 106.554C40.8157 108.949 43.8778 110.229 46.4104 109.224C48.7256 108.309 50.4162 105.398 49.3027 102.514C48.23 99.7263 45.2969 98.5631 42.7236 99.4992C39.8924 100.594 38.7584 103.443 39.9195 106.554Z" fill="url(#paint5_linear_2034_253)"/>
<path d="M37.2301 94.1652C37.7121 95.8927 39.6607 97.1522 41.8538 96.402C43.6327 95.7964 44.6851 93.532 43.9993 91.715C43.3679 90.0287 41.5483 88.7692 39.396 89.5469C37.2097 90.3384 36.5511 92.5822 37.2301 94.1652Z" fill="url(#paint6_linear_2034_253)"/>
<path d="M48.997 89.8841C49.7235 92.527 52.969 93.525 54.9244 92.7817C57.2329 91.9076 58.7131 89.3404 57.7693 86.6768C56.8867 84.2059 54.4696 82.8707 51.7605 83.793C49.323 84.6189 47.9582 87.5784 48.997 89.8841Z" fill="url(#paint7_linear_2034_253)"/>
<path d="M63.2827 75.3478C65.5369 74.4599 67.1665 71.6381 66.0937 68.8437C65.0481 66.1457 62.21 65.017 59.7182 65.9255C56.9683 66.9854 55.8684 69.7453 57.0023 72.7668C57.8646 75.0794 60.8385 76.3182 63.2827 75.3478Z" fill="url(#paint8_linear_2034_253)"/>
<path d="M197.874 109.906C198.851 112.617 201.791 113.808 204.222 112.851C206.877 111.805 208.106 109.1 207.128 106.437C206.13 103.732 203.407 102.514 200.807 103.505C198.376 104.303 196.896 107.201 197.874 109.906Z" fill="url(#paint9_linear_2034_253)"/>
<path d="M206.952 80.2826C208.391 79.7458 209.151 78.1077 208.642 76.6623C208.099 75.1344 206.497 74.398 204.996 74.9555C203.754 75.4235 202.742 76.7036 203.326 78.5757C203.801 80.1037 205.444 80.847 206.952 80.2826Z" fill="url(#paint10_linear_2034_253)"/>
<path d="M211.976 119.376C211.772 118.695 211.446 118.123 211.052 117.648C210.564 116.52 209.538 115.9 208.411 116.017C207.413 115.77 206.388 115.811 205.553 116.093C202.586 117.112 201.398 120.381 202.233 122.776C203.19 125.536 206.157 126.981 208.873 126.032C211.412 125.137 213.089 122.088 211.976 119.376Z" fill="url(#paint11_linear_2034_253)"/>
<path d="M213.531 138.93C216.545 137.897 217.571 134.394 216.6 132.329C215.826 129.521 212.533 128.206 210.075 129.094C207.712 129.948 205.797 132.838 206.972 135.839C208.079 138.675 210.733 139.886 213.531 138.93Z" fill="url(#paint12_linear_2034_253)"/>
<path d="M193.664 96.8425C194.553 99.1757 197.12 100.36 199.435 99.5198C201.37 98.8178 203.095 96.1955 202.002 93.6696C201.173 91.0611 198.322 90.1594 196.285 90.9854C193.637 92.0522 192.89 94.8259 193.664 96.8425Z" fill="url(#paint13_linear_2034_253)"/>
<path d="M207.448 91.6597C208.107 93.5042 209.872 94.3508 211.685 93.7451C213.79 93.0362 214.333 90.8888 213.769 89.3884C213.097 87.6127 211.251 86.7111 209.492 87.3512C207.713 87.9913 206.817 89.884 207.448 91.6597Z" fill="url(#paint14_linear_2034_253)"/>
<path d="M76.0945 71.4043C78.9054 70.5302 80.6775 67.0201 79.6115 64.0192C78.5523 61.0391 75.3137 59.4629 72.4009 60.4678C69.2234 61.569 67.7432 64.8727 68.8431 67.9492C70.0381 71.2666 73.6638 72.4092 76.0945 71.4043Z" fill="url(#paint15_linear_2034_253)"/>
<path d="M184.954 68.9744C185.694 70.9566 187.772 72.2368 190.06 71.3489C192.172 70.5368 193.176 68.4375 192.375 66.2282C191.547 63.957 189.34 63.1104 187.263 63.8468C185.253 64.5695 184.214 66.9509 184.954 68.9744Z" fill="url(#paint16_linear_2034_253)"/>
<path d="M180.465 55.9389C181.022 57.5977 182.937 59.1187 185.204 58.2446C187.35 57.6045 188.178 55.2369 187.608 53.5644C186.908 51.4859 184.844 50.3847 182.841 51.0729C180.825 51.7612 179.772 53.9017 180.465 55.9389Z" fill="url(#paint17_linear_2034_253)"/>
<path d="M189.665 83.6485C190.357 85.6582 192.517 86.6699 194.54 85.9404C196.509 85.2246 197.507 83.0979 196.835 81.0812C196.142 79.0165 193.949 77.9634 191.919 78.693C189.855 79.4432 188.911 81.859 189.665 83.6485Z" fill="url(#paint18_linear_2034_253)"/>
<path d="M176.208 42.8894C176.867 44.7271 178.632 45.5805 180.445 44.968C182.55 44.2591 183.1 42.1186 182.529 40.6182C181.857 38.8425 180.01 37.934 178.252 38.574C176.473 39.221 175.577 41.1137 176.208 42.8894Z" fill="url(#paint19_linear_2034_253)"/>
<path d="M96.8715 205.636C96.369 203.888 94.1216 202.848 92.3359 203.523C90.8829 204.074 89.5658 205.987 90.2583 208.079C90.8694 209.945 92.9742 210.894 94.8753 210.213C96.5455 209.614 97.6319 207.205 96.8715 205.636Z" fill="url(#paint20_linear_2034_253)"/>
<path d="M122.04 205.911C119.351 206.971 118.394 209.759 119.263 212.05C120.329 214.845 123.024 215.753 125.38 214.907C127.818 213.992 129.101 211.197 128.198 208.781C127.22 206.145 124.579 204.907 122.04 205.911Z" fill="url(#paint21_linear_2034_253)"/>
<path d="M134.642 200.44C131.784 201.472 130.188 204.5 131.315 207.611C132.49 210.846 135.64 211.872 138.261 210.956C141.33 209.889 142.607 206.544 141.69 203.895C140.774 201.224 137.881 199.277 134.642 200.44Z" fill="url(#paint22_linear_2034_253)"/>
<path d="M82.6465 196.035C81.6348 193.316 78.9121 192.036 76.2913 193.069C73.5211 194.17 72.5298 197.04 73.4261 199.407C74.526 202.291 77.303 203.227 79.7405 202.353C82.2526 201.403 83.5767 198.527 82.6465 196.035Z" fill="url(#paint23_linear_2034_253)"/>
<path d="M80.0457 209.284C78.8168 209.724 78.131 211.156 78.5655 212.388C79.0001 213.627 80.4192 214.308 81.6345 213.861C82.9178 213.4 83.556 212.057 83.1011 210.784C82.6597 209.518 81.2882 208.85 80.0457 209.284Z" fill="url(#paint24_linear_2034_253)"/>
<path d="M147.264 195.168C143.937 196.338 142.409 199.958 143.489 203.034C144.527 206.09 147.949 207.997 151.31 206.772C154.658 205.546 156.043 201.775 154.949 198.884C153.666 195.505 150.176 194.142 147.264 195.168Z" fill="url(#paint25_linear_2034_253)"/>
<path d="M67.7228 215.093C67.0506 215.313 66.6975 215.974 66.9012 216.641C67.0981 217.295 67.8993 217.722 68.524 217.502C69.1147 217.288 69.4881 216.483 69.2844 215.877C69.0603 215.21 68.3949 214.873 67.7228 215.093Z" fill="url(#paint26_linear_2034_253)"/>
<path d="M211.372 173.157C209.477 173.646 207.658 176.302 208.663 179.042C209.552 181.451 212.105 182.696 214.468 181.822C217.252 180.79 218.087 177.988 217.252 175.8C216.192 173.019 213.11 172.29 211.372 173.157Z" fill="url(#paint27_linear_2034_253)"/>
<path d="M198.424 177.066C195.599 178.099 194.146 181.203 195.165 184.024C196.19 186.86 199.259 188.319 202.063 187.253C205.139 186.089 206.144 182.834 205.241 180.329C204.222 177.534 201.18 176.068 198.424 177.066Z" fill="url(#paint28_linear_2034_253)"/>
<path d="M162.602 177.734C162.581 177.72 162.561 177.707 162.54 177.692L162.615 177.665C162.608 177.692 162.602 177.713 162.602 177.734ZM124.668 65.6227C124.675 65.5745 124.682 65.5263 124.688 65.4781C124.736 65.5057 124.777 65.5332 124.831 65.5676L124.668 65.6227ZM98.9284 75.1207C98.9284 75.1207 98.9283 75.1138 98.9351 75.1069C98.9351 75.1138 98.942 75.1138 98.942 75.1138L98.9284 75.1207ZM65.8084 144.663C66.5214 145.227 67.1731 145.833 67.8928 146.301C67.5058 146.205 67.1053 146.143 66.6911 146.143C66.2498 146.143 65.8287 146.205 65.4213 146.322C65.53 145.95 65.6115 145.565 65.659 145.165C65.6794 144.973 65.7745 144.787 65.8084 144.663ZM213.395 162.806C212.696 160.741 210.795 159.213 208.547 159.13L207.529 156.281C209.457 154.698 210.238 152.089 209.321 149.577C208.31 146.797 206.015 145.537 203.679 145.565L201.493 139.48C202.206 138.778 202.661 137.801 202.661 136.713C202.661 134.69 201.099 133.045 199.137 132.907L197.005 126.967C197.073 126.947 197.14 126.94 197.215 126.919C199.198 126.19 200.013 123.74 199.361 122.253C198.784 120.463 196.828 119.142 194.669 119.954C194.608 119.975 194.567 120.009 194.513 120.03L192.612 114.744C192.639 114.73 192.666 114.73 192.693 114.716C195.042 113.952 196.238 110.897 195.362 109.08C194.886 107.139 192.354 105.446 189.808 106.409C189.753 106.43 189.699 106.457 189.645 106.478L188.158 102.328C188.192 102.321 188.226 102.314 188.26 102.3C190.806 101.412 192.15 98.6524 191.193 95.8993C190.337 93.456 187.682 91.9969 184.926 93.0086C184.892 93.0224 184.858 93.043 184.824 93.0568L183.609 89.6636C183.65 89.6499 183.69 89.6361 183.731 89.6224C186.752 88.59 187.778 85.0867 186.807 83.0219C186.026 80.2138 182.74 78.8992 180.282 79.7871C180.221 79.8077 180.153 79.8422 180.092 79.8697L178.971 76.7519C179.005 76.745 179.039 76.7381 179.08 76.7243C181.613 75.8296 183.296 72.7806 182.183 70.0688C181.239 66.9166 177.878 66.0632 175.753 66.7927C175.644 66.8271 175.543 66.8753 175.441 66.9166L174.253 63.6061C174.307 63.5854 174.368 63.5717 174.422 63.551C177.084 62.498 178.313 59.8 177.328 57.1295C176.337 54.4315 173.614 53.2064 171.014 54.1975C170.973 54.2113 170.932 54.2319 170.892 54.2457L169.459 50.2676C169.52 50.2469 169.581 50.2331 169.642 50.2125C171.577 49.5105 173.302 46.8951 172.209 44.3623C171.381 41.7538 168.529 40.859 166.492 41.6781C163.844 42.7449 163.097 45.5186 163.871 47.5352C164.353 48.8153 165.344 49.7376 166.519 50.185L160.551 52.3874C160.918 51.2587 160.952 49.9991 160.497 48.7671C159.329 45.6012 156.246 44.3554 153.408 45.4085C150.557 46.4546 149.07 49.5931 150.149 52.5732C150.597 53.8259 151.426 54.7688 152.41 55.3882L148.893 56.689C149.192 55.2988 149.036 53.8052 148.364 52.4012C147.338 50.2607 144.846 48.4987 141.981 48.8153C140.243 49.0149 138.729 49.7789 137.575 51.1967C136.448 52.5801 135.986 54.17 136.088 56.0008C133.977 53.3991 131.41 52.0983 128.029 52.8623C129.536 51.8437 130.65 50.5979 131.152 48.836C131.661 47.0328 131.363 45.3534 130.412 43.7842C128.952 41.3821 126.073 40.2603 123.269 41.1963C120.139 42.2425 118.686 45.202 119.046 48.0238C119.229 49.4072 119.827 50.6461 120.859 51.6234C122.502 53.1789 124.464 53.6538 126.671 53.3785C126.488 53.5712 126.291 53.6813 126.107 53.8052C125.612 54.1631 125.055 54.466 124.627 54.8996C123.677 55.87 123.004 57.0125 122.726 58.3753C122.672 58.6506 122.713 58.9878 122.298 59.0911C120.825 57.6182 119.012 56.985 116.785 56.985C117.865 55.7461 118.707 54.5141 118.938 52.9655C119.162 51.4101 118.985 49.9441 118.204 48.5607C117.423 47.1842 116.303 46.2413 114.871 45.6356C111.693 44.3004 107.979 45.787 106.479 49.0149C105.99 50.0611 105.793 51.1692 105.874 52.3186C105.956 53.4404 106.322 54.4659 106.899 55.4226C108.122 57.4255 110.036 58.2652 112.413 58.6093C110.722 59.9652 109.833 61.5895 109.486 63.5441C106.553 61.734 106.445 61.9061 104.136 61.6239C104.36 61.3486 104.523 61.1214 104.713 60.915C106.906 58.4235 106.825 54.3283 104.53 51.9331C101.352 48.6157 96.0767 49.2833 93.8768 53.3372C92.6886 55.5396 92.7362 57.8522 94.0126 59.9927C95.0854 61.8028 96.7286 62.9316 98.8741 63.1794C99.0778 63.2069 99.261 63.317 99.5462 63.4134C97.8691 64.7692 97.0613 66.483 96.6742 68.5409C95.9817 68.1142 95.3978 67.6806 94.746 67.3777C94.1077 67.0887 93.4152 66.8822 92.7295 66.7721C92.0233 66.6551 91.2968 66.7032 90.4685 66.6826C90.7129 66.4348 90.903 66.2215 91.1135 66.0356C93.6528 63.8676 94.1077 59.7243 91.6702 56.985C89.1105 54.1012 84.6701 54.0736 82.1851 57.0745C80.4265 59.1805 80.0871 61.6101 81.3024 64.0947C82.4159 66.3453 84.3035 67.5429 86.8292 67.6255C87.1008 67.6324 87.3656 67.6806 87.7933 67.7288C87.2841 68.1073 86.9107 68.3413 86.5848 68.6373C85.1183 70.0138 84.3238 71.7276 84.2015 73.7579C84.188 74.0539 84.1608 74.3498 84.1269 74.7697C81.6758 71.7757 78.315 71.7413 76.2781 72.6361C73.7048 73.7648 72.0753 76.2081 72.2247 78.9887C72.3469 81.3495 73.1888 83.0082 74.6011 84.0956L71.5728 85.2175C71.919 84.0406 71.9055 82.7673 71.4574 81.5904C70.6155 78.975 67.4244 76.9583 64.2129 78.1284C60.7501 79.3879 59.8335 83.0357 60.7501 85.5891C61.1371 86.6697 61.9315 87.6883 62.9703 88.3904L59.2971 89.7463L61.0557 94.6398C59.5619 93.5936 57.6268 93.2426 55.814 93.8689C52.5346 95.0046 51.0069 98.4183 52.1475 101.584C53.3765 105.012 57.1177 106.189 59.6298 105.156C61.4427 104.592 62.8412 102.961 63.3573 101.054L65.3332 106.561C63.3506 105.611 61.2593 105.79 59.8131 106.423C57.1584 107.586 55.4813 110.112 55.6307 112.975C55.8616 117.394 58.5163 119.438 62.7259 119.892C60.3903 121.854 59.3447 124.27 59.6298 127.319C58.462 125.928 57.1312 124.855 55.3319 124.538C53.5123 124.214 51.8352 124.579 50.3211 125.66C47.7953 127.449 47.0417 130.753 47.9379 133.286C48.9021 136.011 51.6248 137.808 54.5715 137.629C55.9634 137.539 57.2194 137.03 58.299 136.094C60.0575 134.559 60.7229 132.563 60.6346 130.044C61.0488 130.622 61.2864 131.008 61.5852 131.352C62.6104 132.549 63.9208 133.293 65.4281 133.692C65.6725 133.754 65.9034 133.85 66.2361 133.967C64.8714 135.688 64.0703 137.491 64.145 139.783C63.758 139.46 63.5066 139.253 63.2554 139.047C60.784 137.03 57.8373 136.892 55.264 138.489C52.7926 140.024 51.5161 142.798 52.2833 145.991C52.8537 148.338 54.2659 150.004 56.4929 150.844C58.4008 151.552 60.302 151.38 61.8772 150.603C61.8636 150.747 61.85 150.899 61.85 151.05C61.85 151.05 61.85 151.057 61.85 151.064C61.205 151.27 60.5668 151.573 59.9421 151.972C56.7985 153.982 55.6918 158.132 58.2515 161.849C60.0915 164.526 63.5814 165.29 66.3312 164.065C68.6397 163.026 70.0451 161.161 70.405 158.566C70.4322 158.339 70.5272 158.125 70.6154 157.816C72.0684 159.578 73.8134 160.576 76.0539 160.823C75.5515 161.67 75.0288 162.365 74.7164 163.136C74.4041 163.893 74.2004 164.733 74.1325 165.545C74.0646 166.35 74.2276 167.176 74.3023 168.085C73.7863 167.444 73.4129 166.832 72.9036 166.364C70.5544 164.189 67.1052 163.776 64.3554 166.054C60.9674 168.848 61.1574 174.981 66.0664 177.039C70.4185 178.863 75.0151 175.476 74.8318 170.693C74.8114 170.301 74.8047 169.901 74.7911 169.509C75.3478 170.253 75.7892 171.044 76.4071 171.65C77.8872 173.088 79.6797 173.838 81.7709 173.776C82.0425 173.769 82.3615 173.673 82.572 173.99C79.7543 175.986 79.0822 179.358 80.3111 182.29C81.4993 185.139 84.6837 186.771 87.7391 186.131C89.2396 185.807 90.5228 185.071 91.4937 183.852C91.9078 183.33 92.2406 182.786 92.4986 182.208L94.6848 188.299C93.2861 187.17 91.3648 186.681 89.3007 187.425C86.3472 188.485 84.704 191.616 85.865 194.824C87.0736 198.162 90.3258 199.221 93.0281 198.279C95.0786 197.563 96.3484 195.863 96.7354 194.011L99.1321 200.68C98.229 201.892 97.9099 203.53 98.4259 205.051C99.2407 207.412 102.052 208.706 104.319 207.887C106.682 207.026 107.931 204.287 107.062 201.906C106.58 200.591 105.562 199.621 104.347 199.166L112.175 196.276C111.822 197.377 111.801 198.636 112.243 199.944C113.221 202.78 116.099 204.438 119.236 203.406C122.217 202.415 123.806 199.153 122.713 196.22C122.271 194.892 121.45 193.881 120.431 193.234L125.503 191.354C125.225 192.697 125.374 194.128 125.938 195.463C127.092 198.223 130.174 199.806 133.135 199.18C134.588 198.877 135.83 198.155 136.774 196.978C137.962 195.491 138.519 193.784 138.24 191.795C140.216 194.486 142.748 195.904 146.048 195.168C149.362 194.438 151.202 192.174 151.786 188.705C153.626 190.219 155.567 191.245 158.012 191.107C157.835 191.3 157.665 191.492 157.482 191.685C155.656 193.571 155.078 196.372 156.036 198.712C157.047 201.19 159.397 202.745 162.065 202.752C166.791 202.766 169.663 197.466 167.748 193.557C166.655 191.313 164.856 190.109 162.425 189.827C162.147 189.792 161.841 189.882 161.603 189.599C163.538 188.347 164.414 186.454 164.876 184.204C166.648 185.738 168.57 186.523 170.864 186.186C170.186 187.129 169.473 187.955 168.936 188.884C168.393 189.827 168.291 190.942 168.366 192.015C168.447 193.117 168.814 194.176 169.398 195.126C169.989 196.076 170.817 196.792 171.808 197.301C174.993 198.939 179.087 197.735 180.601 193.956C181.307 192.187 181.26 190.384 180.384 188.677C179.114 186.193 176.934 185.167 174.062 185.071C176.357 183.557 177.396 181.533 177.6 178.883C179.467 180.439 181.382 181.368 183.711 181.017C185.999 180.673 187.764 179.53 188.932 177.479C189.577 176.337 189.93 175.098 189.869 173.797C189.808 172.393 189.475 171.065 188.606 169.874C188.233 169.365 187.818 168.924 187.363 168.532L189.441 167.768C188.979 169.578 189.468 171.264 190.378 172.785C191.777 175.132 194.622 176.227 197.48 175.304C200.617 174.293 202.226 171.251 201.778 168.174C201.561 166.687 200.834 165.49 199.761 164.499C199.612 164.361 199.456 164.251 199.306 164.127L203.299 162.661C202.864 163.838 202.83 165.18 203.292 166.46C204.399 169.523 208.031 170.645 210.068 169.633C212.533 169.007 214.413 165.82 213.395 162.806Z" fill="url(#paint29_linear_2034_253)"/>
<path d="M185.463 181.182C182.584 182.097 180.676 185.498 181.804 188.849C182.89 192.077 186.346 193.681 189.428 192.587C192.83 191.375 194.066 187.72 193.149 184.94C192.076 181.678 188.328 179.971 185.463 181.182Z" fill="url(#paint30_linear_2034_253)"/>
<path d="M68.6122 201.1C67.9061 199.104 65.4482 197.996 63.4724 198.747C61.5713 199.476 60.3763 201.892 61.1028 203.957C61.8022 205.946 64.3483 207.171 66.229 206.345C68.3678 205.553 69.3794 203.289 68.6122 201.1Z" fill="url(#paint31_linear_2034_253)"/>
<path d="M64.5315 187.576C63.6352 185.105 60.899 183.825 58.4412 184.727C56.0444 185.608 54.7884 188.375 55.6235 190.818C56.4586 193.254 59.3578 194.589 61.7002 193.743C64.1377 192.855 65.4277 190.033 64.5315 187.576Z" fill="url(#paint32_linear_2034_253)"/>
<path d="M75.042 189.875C78.1178 188.863 79.754 185.491 78.6269 182.469C77.5745 179.289 74.4241 177.837 71.3891 178.849C68.5579 179.792 66.6635 182.903 67.8246 186.303C68.8294 189.235 71.8034 190.949 75.042 189.875Z" fill="url(#paint33_linear_2034_253)"/>
<path d="M60.2884 174.189C59.2156 170.955 55.9566 169.984 53.6549 170.796C50.8304 171.794 49.3502 174.809 50.3075 177.61C51.197 180.205 54.0079 181.932 56.9886 180.934C59.9896 179.929 61.2118 176.495 60.2884 174.189Z" fill="url(#paint34_linear_2034_253)"/>
<path d="M100.558 110.243L99.1799 114.882C98.2837 117.896 95.5949 119.954 92.56 119.954H79.6392C78.3288 119.954 77.1745 120.821 76.7943 122.095L76.2783 123.836H88.4725C91.3717 123.836 93.4425 126.747 92.587 129.624L91.263 134.07H75.4431C74.1327 134.07 72.9786 134.944 72.5983 136.218L72.0076 138.193H86.1368C89.2872 138.193 91.5346 141.359 90.6112 144.484L89.5928 147.905H58.0615L69.2577 110.243H100.558Z" fill="white"/>
<path d="M102.574 137.966H111.516C113.336 138.069 113.152 136.465 112.392 135.653L101.013 123.464C100.021 122.404 100.048 120.738 101.074 119.713L110.484 110.277H140.671L135.334 116.96C133.671 119.032 131.953 120.229 129.359 120.229H118.652C117.443 120.229 116.839 121.709 117.688 122.576L128.884 134.001C130.086 135.233 130.059 137.222 128.83 138.42L119.148 147.85H90.6514L95.445 141.875C97.7128 139.095 100.042 137.966 102.574 137.966Z" fill="white"/>
<path d="M147.664 129.115H158.5L161.848 126.768C162.459 126.341 162.914 125.715 163.124 124.992C163.491 123.189 162.622 122.046 162.622 122.046C161.712 120.615 160.171 119.748 158.514 119.748H150.448L147.664 129.115ZM130.398 147.905L141.594 110.243H164.367C168.318 110.243 169.534 110.848 171.353 113.202L174.585 118.247C175.19 119.142 175.359 120.257 175.054 121.296L172.922 128.447C172.562 129.659 171.842 130.725 170.858 131.503L161.78 138.668C160.863 139.391 159.736 139.783 158.575 139.783H144.432L142.022 147.905H130.398Z" fill="white"/>
<path d="M197.162 147.905H169.433L180.629 110.243H192.253L184.438 136.548H191.228C193.475 136.548 195.396 138.2 195.811 140.485L197.162 147.905Z" fill="white"/>
</g>
</g>
<defs>
<linearGradient id="paint0_linear_2034_253" x1="58.2445" y1="112.707" x2="178.626" y2="46.9872" gradientUnits="userSpaceOnUse">
<stop stop-color="#EE226E"/>
<stop offset="0.00263636" stop-color="#EE226E"/>
<stop offset="1" stop-color="#40348D"/>
</linearGradient>
<linearGradient id="paint1_linear_2034_253" x1="63.8662" y1="123.017" x2="184.248" y2="57.2973" gradientUnits="userSpaceOnUse">
<stop stop-color="#EE226E"/>
<stop offset="0.00263636" stop-color="#EE226E"/>
<stop offset="1" stop-color="#40348D"/>
</linearGradient>
<linearGradient id="paint2_linear_2034_253" x1="77.2556" y1="147.533" x2="197.637" y2="81.8138" gradientUnits="userSpaceOnUse">
<stop stop-color="#EE226E"/>
<stop offset="0.00263636" stop-color="#EE226E"/>
<stop offset="1" stop-color="#40348D"/>
</linearGradient>
<linearGradient id="paint3_linear_2034_253" x1="70.5678" y1="135.282" x2="190.95" y2="69.5621" gradientUnits="userSpaceOnUse">
<stop stop-color="#EE226E"/>
<stop offset="0.00263636" stop-color="#EE226E"/>
<stop offset="1" stop-color="#40348D"/>
</linearGradient>
<linearGradient id="paint4_linear_2034_253" x1="40.4015" y1="80.0349" x2="160.784" y2="14.3156" gradientUnits="userSpaceOnUse">
<stop stop-color="#EE226E"/>
<stop offset="0.00263636" stop-color="#EE226E"/>
<stop offset="1" stop-color="#40348D"/>
</linearGradient>
<linearGradient id="paint5_linear_2034_253" x1="51.5433" y1="100.442" x2="171.924" y2="34.7234" gradientUnits="userSpaceOnUse">
<stop stop-color="#EE226E"/>
<stop offset="0.00263636" stop-color="#EE226E"/>
<stop offset="1" stop-color="#40348D"/>
</linearGradient>
<linearGradient id="paint6_linear_2034_253" x1="45.8597" y1="90.0356" x2="166.241" y2="24.3171" gradientUnits="userSpaceOnUse">
<stop stop-color="#EE226E"/>
<stop offset="0.00263636" stop-color="#EE226E"/>
<stop offset="1" stop-color="#40348D"/>
</linearGradient>
<linearGradient id="paint7_linear_2034_253" x1="46.8855" y1="91.9007" x2="167.268" y2="26.1807" gradientUnits="userSpaceOnUse">
<stop stop-color="#EE226E"/>
<stop offset="0.00263636" stop-color="#EE226E"/>
<stop offset="1" stop-color="#40348D"/>
</linearGradient>
<linearGradient id="paint8_linear_2034_253" x1="41.4199" y1="81.8931" x2="161.802" y2="16.1735" gradientUnits="userSpaceOnUse">
<stop stop-color="#EE226E"/>
<stop offset="0.00263636" stop-color="#EE226E"/>
<stop offset="1" stop-color="#40348D"/>
</linearGradient>
<linearGradient id="paint9_linear_2034_253" x1="90.1699" y1="171.189" x2="210.551" y2="105.47" gradientUnits="userSpaceOnUse">
<stop stop-color="#EE226E"/>
<stop offset="0.00263636" stop-color="#EE226E"/>
<stop offset="1" stop-color="#40348D"/>
</linearGradient>
<linearGradient id="paint10_linear_2034_253" x1="78.2119" y1="149.288" x2="198.594" y2="83.5681" gradientUnits="userSpaceOnUse">
<stop stop-color="#EE226E"/>
<stop offset="0.00263636" stop-color="#EE226E"/>
<stop offset="1" stop-color="#40348D"/>
</linearGradient>
<linearGradient id="paint11_linear_2034_253" x1="96.6532" y1="183.075" x2="217.035" y2="117.355" gradientUnits="userSpaceOnUse">
<stop stop-color="#EE226E"/>
<stop offset="0.00263636" stop-color="#EE226E"/>
<stop offset="1" stop-color="#40348D"/>
</linearGradient>
<linearGradient id="paint12_linear_2034_253" x1="103.152" y1="194.975" x2="223.533" y2="129.256" gradientUnits="userSpaceOnUse">
<stop stop-color="#EE226E"/>
<stop offset="0.00263636" stop-color="#EE226E"/>
<stop offset="1" stop-color="#40348D"/>
</linearGradient>
<linearGradient id="paint13_linear_2034_253" x1="83.68" y1="159.309" x2="204.06" y2="93.5911" gradientUnits="userSpaceOnUse">
<stop stop-color="#EE226E"/>
<stop offset="0.00263636" stop-color="#EE226E"/>
<stop offset="1" stop-color="#40348D"/>
</linearGradient>
<linearGradient id="paint14_linear_2034_253" x1="84.6981" y1="161.174" x2="205.08" y2="95.4554" gradientUnits="userSpaceOnUse">
<stop stop-color="#EE226E"/>
<stop offset="0.00263636" stop-color="#EE226E"/>
<stop offset="1" stop-color="#40348D"/>
</linearGradient>
<linearGradient id="paint15_linear_2034_253" x1="42.4518" y1="83.7793" x2="162.833" y2="18.0603" gradientUnits="userSpaceOnUse">
<stop stop-color="#EE226E"/>
<stop offset="0.00263636" stop-color="#EE226E"/>
<stop offset="1" stop-color="#40348D"/>
</linearGradient>
<linearGradient id="paint16_linear_2034_253" x1="69.9633" y1="134.187" x2="190.346" y2="68.4676" gradientUnits="userSpaceOnUse">
<stop stop-color="#EE226E"/>
<stop offset="0.00263636" stop-color="#EE226E"/>
<stop offset="1" stop-color="#40348D"/>
</linearGradient>
<linearGradient id="paint17_linear_2034_253" x1="63.4795" y1="122.294" x2="183.861" y2="56.5754" gradientUnits="userSpaceOnUse">
<stop stop-color="#EE226E"/>
<stop offset="0.00263636" stop-color="#EE226E"/>
<stop offset="1" stop-color="#40348D"/>
</linearGradient>
<linearGradient id="paint18_linear_2034_253" x1="77.1871" y1="147.416" x2="197.569" y2="81.6964" gradientUnits="userSpaceOnUse">
<stop stop-color="#EE226E"/>
<stop offset="0.00263636" stop-color="#EE226E"/>
<stop offset="1" stop-color="#40348D"/>
</linearGradient>
<linearGradient id="paint19_linear_2034_253" x1="56.9957" y1="110.422" x2="177.377" y2="44.7024" gradientUnits="userSpaceOnUse">
<stop stop-color="#EE226E"/>
<stop offset="0.00263636" stop-color="#EE226E"/>
<stop offset="1" stop-color="#40348D"/>
</linearGradient>
<linearGradient id="paint20_linear_2034_253" x1="105.888" y1="199.986" x2="226.27" y2="134.266" gradientUnits="userSpaceOnUse">
<stop stop-color="#EE226E"/>
<stop offset="0.00263636" stop-color="#EE226E"/>
<stop offset="1" stop-color="#40348D"/>
</linearGradient>
<linearGradient id="paint21_linear_2034_253" x1="114.422" y1="215.623" x2="234.803" y2="149.904" gradientUnits="userSpaceOnUse">
<stop stop-color="#EE226E"/>
<stop offset="0.00263636" stop-color="#EE226E"/>
<stop offset="1" stop-color="#40348D"/>
</linearGradient>
<linearGradient id="paint22_linear_2034_253" x1="115.441" y1="217.488" x2="235.823" y2="151.768" gradientUnits="userSpaceOnUse">
<stop stop-color="#EE226E"/>
<stop offset="0.00263636" stop-color="#EE226E"/>
<stop offset="1" stop-color="#40348D"/>
</linearGradient>
<linearGradient id="paint23_linear_2034_253" x1="98.4054" y1="186.275" x2="218.787" y2="120.555" gradientUnits="userSpaceOnUse">
<stop stop-color="#EE226E"/>
<stop offset="0.00263636" stop-color="#EE226E"/>
<stop offset="1" stop-color="#40348D"/>
</linearGradient>
<linearGradient id="paint24_linear_2034_253" x1="104.862" y1="198.1" x2="225.244" y2="132.379" gradientUnits="userSpaceOnUse">
<stop stop-color="#EE226E"/>
<stop offset="0.00263636" stop-color="#EE226E"/>
<stop offset="1" stop-color="#40348D"/>
</linearGradient>
<linearGradient id="paint25_linear_2034_253" x1="116.473" y1="219.367" x2="236.854" y2="153.648" gradientUnits="userSpaceOnUse">
<stop stop-color="#EE226E"/>
<stop offset="0.00263636" stop-color="#EE226E"/>
<stop offset="1" stop-color="#40348D"/>
</linearGradient>
<linearGradient id="paint26_linear_2034_253" x1="103.85" y1="196.248" x2="224.232" y2="130.529" gradientUnits="userSpaceOnUse">
<stop stop-color="#EE226E"/>
<stop offset="0.00263636" stop-color="#EE226E"/>
<stop offset="1" stop-color="#40348D"/>
</linearGradient>
<linearGradient id="paint27_linear_2034_253" x1="121.571" y1="228.713" x2="241.953" y2="162.994" gradientUnits="userSpaceOnUse">
<stop stop-color="#EE226E"/>
<stop offset="0.00263636" stop-color="#EE226E"/>
<stop offset="1" stop-color="#40348D"/>
</linearGradient>
<linearGradient id="paint28_linear_2034_253" x1="120.56" y1="226.862" x2="240.942" y2="161.143" gradientUnits="userSpaceOnUse">
<stop stop-color="#EE226E"/>
<stop offset="0.00263636" stop-color="#EE226E"/>
<stop offset="1" stop-color="#40348D"/>
</linearGradient>
<linearGradient id="paint29_linear_2034_253" x1="80.9968" y1="154.388" x2="201.378" y2="88.6685" gradientUnits="userSpaceOnUse">
<stop stop-color="#EE226E"/>
<stop offset="0.00263636" stop-color="#EE226E"/>
<stop offset="1" stop-color="#40348D"/>
</linearGradient>
<linearGradient id="paint30_linear_2034_253" x1="119.528" y1="224.976" x2="239.91" y2="159.256" gradientUnits="userSpaceOnUse">
<stop stop-color="#EE226E"/>
<stop offset="0.00263636" stop-color="#EE226E"/>
<stop offset="1" stop-color="#40348D"/>
</linearGradient>
<linearGradient id="paint31_linear_2034_253" x1="97.3392" y1="184.328" x2="217.721" y2="118.608" gradientUnits="userSpaceOnUse">
<stop stop-color="#EE226E"/>
<stop offset="0.00263636" stop-color="#EE226E"/>
<stop offset="1" stop-color="#40348D"/>
</linearGradient>
<linearGradient id="paint32_linear_2034_253" x1="90.6512" y1="172.083" x2="211.033" y2="106.364" gradientUnits="userSpaceOnUse">
<stop stop-color="#EE226E"/>
<stop offset="0.00263636" stop-color="#EE226E"/>
<stop offset="1" stop-color="#40348D"/>
</linearGradient>
<linearGradient id="paint33_linear_2034_253" x1="91.697" y1="173.997" x2="212.078" y2="108.277" gradientUnits="userSpaceOnUse">
<stop stop-color="#EE226E"/>
<stop offset="0.00263636" stop-color="#EE226E"/>
<stop offset="1" stop-color="#40348D"/>
</linearGradient>
<linearGradient id="paint34_linear_2034_253" x1="83.9572" y1="159.805" x2="204.338" y2="94.0854" gradientUnits="userSpaceOnUse">
<stop stop-color="#EE226E"/>
<stop offset="0.00263636" stop-color="#EE226E"/>
<stop offset="1" stop-color="#40348D"/>
</linearGradient>
<clipPath id="clip0_2034_253">
<rect width="256" height="256" fill="white"/>
</clipPath>
</defs>
</svg>
