<svg width="256" height="256" viewBox="0 0 256 256" fill="none" xmlns="http://www.w3.org/2000/svg">
<g clip-path="url(#clip0_2035_266)">
<path d="M256 128C256 57.3075 198.692 0 128 0C57.3075 0 0 57.3075 0 128C0 198.692 57.3075 256 128 256C198.692 256 256 198.692 256 128Z" fill="white"/>
<path d="M174.193 182.656L150.744 142.281H196.231L231.493 203.284C246.832 182.127 256 156.209 256 128C256 57.3001 198.7 0 128 0C57.3004 0 0 57.3001 0 128C0 156.209 9.16802 182.127 24.5069 203.284L128 23.978L189.708 130.997H144.397L127.471 101.73L104.022 142.281H137.873L161.146 182.656H80.7494L52.54 231.493C73.6969 247.008 99.7904 256 128 256C155.857 256 181.598 247.008 202.578 232.022L174.193 182.656Z" fill="#739473"/>
</g>
<defs>
<clipPath id="clip0_2035_266">
<rect width="256" height="256" fill="white"/>
</clipPath>
</defs>
</svg>
