<svg width="256" height="256" viewBox="0 0 256 256" fill="none" xmlns="http://www.w3.org/2000/svg">
<g clip-path="url(#clip0_2857_112)">
<path d="M128 256C198.692 256 256 198.692 256 128C256 57.3075 198.692 0 128 0C57.3075 0 0 57.3075 0 128C0 198.692 57.3075 256 128 256Z" fill="#0A0D16"/>
<path d="M68.7242 168.856L128.418 211L149.03 196.418L76.6394 145.3L68.7242 168.856ZM104.342 157.639L128.418 174.625L149.03 160.043L112.257 134.083L104.342 157.639ZM133.694 178.31L154.307 192.892L214 150.749L206.085 127.193L133.694 178.31ZM133.529 141.935L154.142 156.517L178.217 139.371L170.302 115.815C170.467 115.815 133.529 141.935 133.529 141.935ZM87.8526 111.97L78.6181 139.531L99.2305 153.953L113.247 111.97H87.8526ZM65.756 82.4849L43 150.749L63.6124 165.331L91.1505 82.6451L65.756 82.4849ZM97.5816 82.4849L89.6664 106.041H135.178L127.263 82.4849H97.5816ZM133.694 82.4849L147.876 124.469L168.488 109.886L159.254 82.3246C159.254 82.4849 133.694 82.4849 133.694 82.4849ZM75.65 53.1602L67.7348 76.716H157.275L149.36 53L75.65 53.1602ZM181.185 53H155.791L183.494 135.686L204.106 121.103L181.185 53Z" fill="white"/>
</g>
<defs>
<clipPath id="clip0_2857_112">
<rect width="256" height="256" fill="white"/>
</clipPath>
</defs>
</svg>
