<svg width="256" height="267" viewBox="0 0 256 267" fill="none" xmlns="http://www.w3.org/2000/svg">
<path d="M128 261.66C198.692 261.66 256 204.281 256 133.5C256 62.7193 198.692 5.34009 128 5.34009C57.3076 5.34009 0 62.7193 0 133.5C0 204.281 57.3076 261.66 128 261.66Z" fill="#1890FF"/>
<path fill-rule="evenodd" clip-rule="evenodd" d="M185.021 79.9375L130.59 61.2412C129.866 60.9922 128.928 60.876 128.015 60.876C127.102 60.876 126.163 60.9922 125.44 61.2412L71.0135 79.9358C70.2333 80.2013 69.5504 80.7766 69.0661 81.4633C68.5813 82.1504 68.2656 82.9899 68.2656 83.8207V161.701C68.2656 162.506 68.5211 163.404 68.9094 164.206C69.2978 165.008 69.8427 165.763 70.4662 166.264L125.683 209.631C126.337 210.141 127.167 210.396 127.999 210.396C128.826 210.396 129.673 210.144 130.316 209.629L185.526 166.267C186.153 165.774 186.699 165.02 187.088 164.218C187.476 163.415 187.731 162.513 187.731 161.701V83.8259C187.748 82.9923 187.44 82.1555 186.96 81.4704C186.479 80.7838 185.797 80.2108 185.021 79.9375ZM175.264 89.9173V158.363L128.015 195.471L80.7657 158.363V89.9173L128.015 73.6808L175.264 89.9173Z" fill="white"/>
<circle cx="106" cy="133" r="11" fill="white"/>
<circle cx="150" cy="133" r="11" fill="white"/>
<circle cx="128" cy="155" r="11" fill="white"/>
<circle cx="128" cy="111" r="11" fill="white"/>
</svg>
