<svg width="256" height="256" viewBox="0 0 256 256" fill="none" xmlns="http://www.w3.org/2000/svg">
<g clip-path="url(#clip0_2234_952)">
<mask id="mask0_2234_952" style="mask-type:luminance" maskUnits="userSpaceOnUse" x="0" y="0" width="256" height="256">
<path d="M256 0H0V256H256V0Z" fill="white"/>
</mask>
<g mask="url(#mask0_2234_952)">
<path d="M128 256C198.692 256 256 198.692 256 128C256 57.3076 198.692 0 128 0C57.3076 0 0 57.3076 0 128C0 198.692 57.3076 256 128 256Z" fill="#F6B817"/>
<path d="M128 6.48532C194.999 6.48532 249.515 61.0012 249.515 128C249.515 194.999 194.999 249.515 128 249.515C61.0012 249.515 6.48532 194.999 6.48532 128C6.48532 61.0012 61.0012 6.48532 128 6.48532ZM128 0C57.3074 0 0 57.3074 0 128C0 198.693 57.3074 256 128 256C198.693 256 256 198.693 256 128C256 57.3074 198.693 0 128 0Z" fill="#971A2E"/>
<path d="M126.233 206.53C111.507 197.692 99.0847 186.355 89.2958 172.824C80.2869 160.353 73.8869 146.529 70.2663 131.73L69.9494 130.425L68.8035 124.806C66.2312 110.701 66.2678 96.3286 68.9133 82.0656L69.3398 79.7738L71.6072 79.2985C71.7659 79.2618 86.7478 76.1046 100.048 68.6317C119.016 57.9649 125.416 51.2114 125.489 51.1385L128.025 48.3711L130.56 51.1505C130.56 51.1505 137.009 57.9529 155.99 68.6317C169.314 76.1046 184.272 79.2618 184.418 79.2862L186.685 79.7616L187.112 82.0412C189.757 96.3163 189.794 110.677 187.222 124.781L186.856 126.805L185.747 131.705C182.126 146.505 175.726 160.316 166.705 172.799C156.928 186.331 144.506 197.668 129.78 206.506L128.013 207.566L126.245 206.506L126.233 206.53Z" fill="#1D1C1A"/>
<path d="M184.162 82.1263C184.162 82.1263 168.533 78.8956 154.49 71.0572C134.327 59.7688 127.988 52.8325 127.988 52.8325C127.988 52.8325 121.661 59.7568 101.486 71.0572C87.4545 78.8956 71.8264 82.1263 71.8264 82.1263C68.9495 97.5959 69.2785 113.09 72.5455 127.853H183.442C186.709 113.09 187.039 97.5959 184.162 82.1263Z" fill="#F6B817"/>
<path d="M127.987 204.58C157.183 187.148 176.396 159.865 183.125 129.462H72.8496C79.5665 159.865 98.7788 187.148 127.975 204.58H127.987Z" fill="#971A2E"/>
<path d="M173.433 118.466C173.129 118.076 172.787 117.662 172.434 117.235C170.837 115.309 167.302 110.555 167.302 110.555C167.302 95.1217 164.534 92.2568 161.694 89.8309C159.183 87.6977 155.196 86.6004 150.905 85.9423C149.735 85.7592 148.455 85.674 146.98 85.674C145.505 85.674 144.115 85.7472 142.713 85.8324C141.555 85.9057 121.441 86.7469 114.98 85.6497C112.176 85.1743 108.263 85.7229 105.947 86.0032C104.874 86.125 99.0714 87.0638 98.3887 85.9543C98.2548 85.7472 98.2791 85.2961 98.3157 84.7841C98.4009 83.9672 98.7302 82.9798 98.0963 82.1023C97.2308 80.8952 96.2797 79.5786 95.7557 79.5786C95.5972 79.5786 94.1588 80.7613 93.8052 81.1149C93.22 81.6998 93.0372 82.6752 93.0615 83.7967C93.0859 84.4915 93.0372 84.3574 92.9763 84.4063C92.8908 84.5038 89.1849 84.5038 88.2462 84.5647C88.2462 84.3697 88.2098 83.4186 87.588 82.5044C87.1858 81.9192 86.8443 79.9567 86.8443 79.9567C86.8443 79.9567 85.5034 82.2851 85.0523 82.9069C84.5403 83.5894 84.0283 84.2964 83.7237 85.1133C83.6018 85.418 83.5895 85.7958 83.5652 86.1737C83.5529 86.4297 83.5163 86.9906 83.4068 87.0758C82.6997 87.5878 82.2973 88.3072 82.2363 89.2093C82.2243 89.4653 82.2852 89.8189 82.3705 90.221C82.4194 90.477 82.5046 90.8915 82.5046 91.0866C82.4437 91.1232 82.3705 91.1718 82.2852 91.2207C81.6634 91.6352 80.7858 92.1958 80.8468 93.1832C80.932 94.6949 81.2733 95.2801 81.7609 96.0968C81.8951 96.3284 82.0292 96.5601 82.1877 96.8404C82.3948 97.2429 82.4923 97.8158 82.5778 98.3764C82.6997 99.1567 81.9683 100.022 82.468 100.51C83.1142 101.156 84.8086 101.192 85.5523 101.192C85.7594 101.192 86.5274 101.168 86.7225 101.168C87.0028 101.168 87.2222 101.18 87.4173 101.217C88.8314 101.497 90.2455 101.619 91.6231 101.729C93.5126 101.887 95.2923 102.021 97.0843 102.558C100.4 103.533 103.667 104.886 107.056 106.703C107.239 106.8 107.41 106.885 107.58 106.983C108.836 107.629 109.104 107.544 109.702 109.275C110.287 111.006 109.202 124.549 108.958 125.951C108.58 128.207 107.861 129.584 106.69 130.011C105.118 130.584 104.472 131.815 103.85 133.01C103.655 133.4 103.679 133.863 103.436 134.253C103.436 134.253 102.924 134.814 103.094 134.96C103.265 135.106 104.862 134.716 104.862 134.716C105.41 134.753 104.813 135.033 105.362 135.033C106.69 135.033 108.324 135.033 109.97 134.07C110.665 134.07 110.201 134.96 110.835 134.838C112.81 134.472 112.993 132.961 113.237 131.51C113.639 129.06 113.578 128.633 113.858 128.414C114.127 128.194 115.004 128.56 115.236 128.292C115.419 128.097 115.212 126.317 115.321 124.708C115.468 122.416 116.102 119.734 116.784 117.503L116.821 117.394C116.967 116.906 117.199 116.309 117.442 115.687C118.089 113.992 118.869 111.944 118.771 110.287C119.478 110.408 119.588 110.457 119.99 111.006C120.051 111.091 120.161 111.274 120.271 111.457C121.051 112.725 121.453 113.09 121.965 113.09C122.014 113.09 122.075 113.09 122.124 113.066C122.965 112.847 123.416 112.14 123.891 111.201C124.354 110.287 124.854 109.336 125.634 109.153C125.671 109.153 125.708 109.141 125.744 109.141C126.378 109.141 127.512 109.714 128.146 110.701C129.56 112.895 130.767 111.359 130.889 111.176C131.047 110.92 132.181 109.055 132.461 108.629C132.802 108.104 133.01 108.044 133.083 108.044C133.095 108.044 133.107 108.044 133.119 108.044C133.802 108.153 136.813 111.762 137.874 111.518C138.91 111.408 140.068 107.446 140.702 107.446C140.738 107.446 140.763 107.446 140.799 107.458C140.958 107.592 141.311 108.129 141.543 108.495C142.348 109.701 142.518 110.506 143.152 110.506C143.347 110.506 143.701 110.335 143.92 109.811C143.981 109.677 144.225 109.08 144.249 109.019C144.274 109.043 144.493 109.775 144.981 109.909C144.883 109.957 144.761 110.006 144.652 110.079C144.652 110.079 143.664 110.75 143.615 111.542V111.628C143.591 111.908 143.542 112.371 143.847 112.883C143.957 113.054 144.079 113.249 144.201 113.407C144.188 113.444 144.164 113.48 144.152 113.517C144.018 113.602 143.884 113.688 143.774 113.785C143.725 113.797 143.64 113.822 143.579 113.846C143.311 113.932 143.055 114.005 142.835 114.188C142.689 114.322 142.274 114.675 141.933 115.468L141.19 114.724C140.726 113.907 140.556 113.773 140.3 113.663C140.166 113.615 139.727 113.468 139.556 113.432C139.556 113.432 139.532 113.432 139.434 113.371L139.385 113.334L139.349 113.31C139.056 113.176 138.8 113.115 138.556 113.115C138.118 113.115 137.752 113.322 137.569 113.676C137.508 113.785 137.471 113.895 137.471 114.017C137.301 113.907 137.094 113.822 136.862 113.822H136.74L136.642 113.846C136.289 113.919 136.082 114.09 135.96 114.261C135.935 114.261 135.911 114.285 135.899 114.285C135.631 114.419 135.436 114.687 135.387 114.992C135.338 115.358 135.497 115.724 135.814 115.992C136.777 116.808 136.959 116.845 137.106 116.906C137.215 116.93 137.337 116.979 138.837 117.052C139.398 118.076 139.983 119.161 140.141 119.368C140.239 119.515 141.141 120.539 141.848 120.685C141.933 120.709 142.018 120.722 142.104 120.722C142.372 120.722 142.701 120.624 143.018 120.453C143.055 120.685 143.018 120.953 142.994 121.039C142.982 121.1 142.957 121.173 142.945 121.246C141.848 121.502 140.678 121.916 139.922 122.319C137.874 123.452 140.226 127.048 140.751 128.097C140.665 128.146 140.592 128.182 140.519 128.231C139.641 127.719 138.483 127.78 138.032 128.231C137.996 128.207 137.971 128.17 137.947 128.146C137.703 127.963 136.984 127.536 136.655 127.329C136.118 126.756 135.887 126.622 135.777 126.573C135.338 126.305 134.485 126 133.766 125.829C133.619 124.293 133.51 123.94 133.424 123.769C133.424 123.72 133.595 122.367 133.57 121.514C134.034 121.599 134.643 121.697 135.119 121.697C135.399 121.697 135.618 121.66 135.789 121.599C136.265 121.477 137.033 121.209 137.362 120.697L137.435 120.588L137.459 120.453C137.496 120.344 137.703 119.344 137.106 118.393C136.691 117.735 135.545 116.528 134.899 115.931C134.924 115.565 134.948 115.224 134.948 115.212C134.972 114.919 134.887 114.614 134.558 114.261C134.448 114.163 133.68 113.273 133.461 113.151C133.254 113.017 132.912 112.932 132.632 112.932C132.534 112.932 132.437 112.932 132.351 112.968C131.596 113.127 131.669 114.285 131.693 114.383C131.596 114.334 131.498 114.273 131.388 114.236C131.132 113.956 130.754 113.785 130.364 113.712C130.169 113.566 129.889 113.432 129.523 113.432C129.499 113.432 129.474 113.432 129.438 113.432C128.95 113.456 128.938 113.505 128.706 113.7C128.341 113.773 128.012 113.992 127.768 114.297C127.548 114.419 127.305 114.626 127.097 114.992C126.89 115.175 126.646 115.468 126.451 115.98L126.378 116.175C126.207 116.626 126.012 117.138 126.159 117.662C126.159 117.662 126.159 117.686 126.171 117.711C125.756 117.82 125.159 118.064 124.83 118.71C124.684 118.991 124.537 119.381 124.403 119.722C124.22 119.734 122.099 119.99 122.148 120.99C122.172 121.295 122.306 121.612 122.599 121.819C122.404 122.16 122.392 122.514 122.575 122.806C122.733 123.062 122.928 123.257 123.172 123.343C123.245 123.599 123.367 123.855 123.55 124.086C123.757 124.354 123.989 124.549 124.172 124.684C123.769 124.818 123.355 125 122.953 125.293C122.367 125.695 121.49 126.561 122.258 127.902C122.38 128.121 122.745 128.524 124.598 130.352C124.537 130.425 123.062 133.107 125.464 133.217C126.012 134.131 127.865 132.815 127.926 132.778C128.06 132.802 130.559 132.815 129.901 130.888C130.072 130.864 130.937 130.62 130.974 130.62C131.254 130.742 131.876 130.998 132.23 131.023C132.4 131.047 132.668 131.047 132.863 131.047C133.119 131.047 133.729 131.047 134.034 130.986C134.107 130.974 134.204 130.949 134.302 130.925C134.558 131.352 134.972 131.864 135.484 132.168C136.118 132.534 137.557 133.168 138.032 133.375C138.13 133.473 139.142 134.314 139.8 134.314C141.909 134.314 141.263 132.388 141.299 132.278C141.372 132.083 141.458 131.608 141.506 131.071C141.726 131.071 141.909 131.059 142.043 131.059H142.104C142.335 131.071 142.64 131.108 142.86 131.132L143.018 131.157C143.018 131.157 143.079 131.157 143.116 131.157C143.274 131.193 143.506 131.242 143.774 131.242C144.079 131.242 144.371 131.169 144.627 131.035C145.505 130.547 145.395 129.669 145.359 129.279V129.255C145.31 128.987 145.249 127.987 145.225 127.609C145.225 127.365 145.225 127.097 145.2 126.853C145.249 126.878 145.286 126.902 145.298 126.914C145.663 127.207 146.2 127.548 146.7 127.585C146.748 128.194 147.017 131.547 149.077 131.547C149.296 131.547 150.601 131.498 150.991 131.12C151.186 131.181 154.258 130.986 153.026 128.304C153.026 128.28 153.002 128.243 152.966 128.194C152.722 127.707 152.478 127.28 152.21 126.975C152.222 126.427 152.21 126.183 152.137 125.988C152.21 125.781 152.295 125.5 152.295 125.244C152.295 124.842 151.954 123.733 151.308 122.928C151.247 122.587 151.161 122.221 151.076 121.88C151.332 121.819 151.625 121.672 151.893 121.356C152.039 121.185 152.368 120.722 152.441 120.636L152.514 120.539L152.551 120.429C152.588 120.319 152.941 119.368 152.722 118.357C152.551 117.637 152.246 116.54 152.173 116.284C152.1 115.858 151.856 114.724 151.052 114.236C151.076 114.163 151.1 114.078 151.137 113.98C151.222 113.871 151.308 113.724 151.381 113.554C151.625 113.785 151.783 113.932 151.807 113.956C154.282 116.175 157.366 118.917 157.964 121.904C158.305 123.623 158.22 125.598 157.732 127.487C157.622 127.89 157.525 128.121 157.439 128.182C157.33 128.243 157.062 128.255 156.72 128.28C156.574 128.28 156.391 128.28 156.196 128.292C155.355 128.353 154.77 129.255 154.258 130.047C154.026 130.425 153.721 130.718 153.563 130.998C153.404 131.279 153.66 131.73 153.807 131.827C153.965 131.925 155.489 132.278 155.952 132.278C156.086 132.278 156.208 132.266 156.33 132.242C156.659 132.364 157.049 132.424 157.5 132.424C158.829 132.424 160.499 131.876 160.975 130.949C161.767 129.377 162.316 127.67 162.852 126.012C162.901 125.829 162.962 125.634 163.023 125.452C163.145 125.086 163.291 124.671 163.462 124.257C164.047 122.733 165.034 121.112 164.595 119.624C164.364 118.832 163.559 118.064 163.059 117.394C162.62 116.796 160.926 114.59 160.414 113.822C161.999 115.346 166.375 117.613 167.484 120.258C167.874 121.185 167.484 125.074 167.399 126.122C167.362 126.61 167.338 127.109 167.326 127.621C167.277 129.218 166.814 129.499 165.217 129.669C163.827 129.816 163.193 131.864 162.852 132.961C162.828 133.022 162.815 133.083 162.803 133.132L162.645 133.644L163.181 133.741C163.388 133.778 163.62 133.814 163.864 133.863C164.863 134.046 166.546 134.668 167.728 134.668C169.13 134.668 170.118 134.338 170.739 133.656C171.544 132.778 171.849 131.205 172.129 129.828C172.239 129.304 172.799 127.451 173.019 126.78C174.335 122.55 175.64 120.929 173.421 118.491L173.433 118.466ZM84.1382 98.0718C83.6505 98.3764 83.4797 97.5352 83.4797 97.5352C83.3458 97.2063 83.3335 96.8404 83.5286 96.7063C83.8822 96.938 84.3332 96.9257 84.4551 97.1453C84.6013 97.3768 84.3942 97.9254 84.1382 98.0718Z" fill="#C6C1C0"/>
<path d="M173.422 118.454C173.117 118.064 172.776 117.65 172.422 117.235C170.837 115.297 167.302 110.543 167.302 110.543C167.302 95.1217 164.535 92.2447 161.695 89.8189C159.171 87.6854 155.197 86.6004 150.894 85.93C149.736 85.7472 148.444 85.6617 146.968 85.6617C145.493 85.6617 144.104 85.7472 142.702 85.8201C141.544 85.8934 121.417 86.7223 114.968 85.6374C112.165 85.162 108.252 85.7106 105.935 85.9909C104.875 86.125 99.0599 87.0392 98.3651 85.9423C98.243 85.7349 98.2553 85.2718 98.3042 84.7718C98.3771 83.9552 98.7186 82.9798 98.0845 82.1023C97.207 80.8952 96.2562 79.5786 95.7319 79.5786C95.5734 79.5786 94.135 80.749 93.7814 81.1149C93.1962 81.6998 93.0011 82.6752 93.0255 83.7844C93.05 84.4915 93.0011 84.3574 92.9525 84.4063C92.855 84.4915 89.1611 84.4915 88.2226 84.5647C88.2226 84.3697 88.1981 83.4186 87.5642 82.5044C87.1497 81.9072 86.8085 79.9444 86.8085 79.9444C86.8085 79.9444 85.4676 82.2728 85.0165 82.8946C84.5045 83.5773 84.0045 84.2841 83.6876 85.101C83.578 85.418 83.5535 85.7958 83.5291 86.1617C83.5291 86.4177 83.4805 86.9783 83.3707 87.0515C82.6516 87.5635 82.2734 88.2829 82.2005 89.1848C82.1762 89.4408 82.2491 89.7943 82.3346 90.1844C82.3833 90.4527 82.4565 90.8549 82.4565 91.05C82.3956 91.0866 82.3223 91.1352 82.2491 91.1841C81.6153 91.5986 80.7497 92.1472 80.8107 93.1469C80.8962 94.6583 81.2374 95.2558 81.7128 96.0601C81.847 96.2918 81.9811 96.5235 82.1396 96.8038C82.359 97.2183 82.4442 97.7912 82.5294 98.3521C82.6636 99.1444 81.9202 99.9977 82.4322 100.485C83.0903 101.132 84.7848 101.18 85.5162 101.18C85.7113 101.18 86.4793 101.156 86.6743 101.156C86.9547 101.156 87.1863 101.156 87.3691 101.205C88.7833 101.485 90.1974 101.607 91.587 101.717C93.4765 101.863 95.2565 102.009 97.0362 102.546C100.352 103.509 103.619 104.862 107.008 106.69C107.203 106.788 107.374 106.873 107.544 106.971C108.8 107.617 109.068 107.532 109.665 109.263C110.263 110.994 109.166 124.537 108.91 125.939C108.544 128.194 107.825 129.56 106.642 129.999C105.07 130.572 104.424 131.803 103.814 132.985C103.607 133.375 103.644 133.839 103.388 134.216C103.388 134.216 102.876 134.777 103.058 134.936C103.229 135.082 104.814 134.692 104.814 134.692C105.362 134.716 104.765 135.009 105.326 135.009C106.655 135.009 108.288 135.009 109.934 134.058C110.629 134.058 110.165 134.936 110.812 134.826C112.786 134.46 112.981 132.949 113.213 131.498C113.628 129.048 113.567 128.633 113.835 128.402C114.115 128.194 114.981 128.548 115.212 128.28C115.395 128.085 115.212 126.305 115.298 124.696C115.444 122.392 116.078 119.722 116.76 117.491L116.797 117.381C116.943 116.882 117.175 116.296 117.419 115.663C118.065 113.968 118.833 111.92 118.748 110.262C119.455 110.396 119.576 110.433 119.954 110.994C120.028 111.079 120.125 111.262 120.247 111.457C121.027 112.725 121.429 113.078 121.941 113.078C121.99 113.078 122.051 113.078 122.088 113.054C122.941 112.834 123.38 112.14 123.855 111.201C124.331 110.287 124.806 109.324 125.599 109.153C125.635 109.153 125.672 109.153 125.708 109.153C126.354 109.153 127.476 109.726 128.122 110.713C129.536 112.908 130.743 111.372 130.853 111.189C131.023 110.933 132.145 109.068 132.437 108.629C132.779 108.104 132.998 108.044 133.059 108.044H133.096C133.778 108.153 136.789 111.762 137.85 111.518C138.886 111.408 140.044 107.446 140.678 107.446C140.715 107.446 140.739 107.446 140.776 107.446C140.934 107.58 141.288 108.117 141.519 108.47C142.336 109.677 142.495 110.482 143.128 110.482C143.336 110.482 143.689 110.311 143.909 109.787C143.957 109.64 144.213 109.043 144.238 108.982C144.262 109.007 144.481 109.738 144.981 109.86C144.884 109.909 144.762 109.957 144.652 110.031C144.652 110.031 143.677 110.701 143.628 111.493V111.579C143.592 111.859 143.555 112.322 143.86 112.822C143.97 112.993 144.104 113.2 144.225 113.359C144.201 113.395 144.189 113.432 144.177 113.468C144.043 113.554 143.909 113.639 143.799 113.736C143.75 113.736 143.665 113.773 143.604 113.797C143.336 113.883 143.08 113.956 142.86 114.139C142.714 114.285 142.3 114.639 141.97 115.419L141.215 114.675C140.751 113.846 140.581 113.724 140.337 113.615C140.203 113.566 139.752 113.42 139.581 113.383C139.581 113.383 139.557 113.383 139.459 113.334L139.41 113.298L139.374 113.273C139.081 113.139 138.813 113.078 138.569 113.078C138.13 113.078 137.765 113.298 137.594 113.651C137.533 113.749 137.496 113.871 137.496 113.992C137.326 113.883 137.119 113.797 136.875 113.797H136.753L136.655 113.822C136.302 113.895 136.095 114.066 135.973 114.236C135.948 114.236 135.924 114.261 135.912 114.261C135.631 114.407 135.448 114.663 135.4 114.98C135.351 115.346 135.509 115.711 135.826 115.98C136.789 116.796 136.972 116.833 137.119 116.882C137.228 116.906 137.35 116.955 138.85 117.028C139.41 118.04 139.983 119.137 140.154 119.344C140.252 119.49 141.154 120.502 141.848 120.661C141.934 120.661 142.019 120.685 142.104 120.685C142.385 120.685 142.702 120.588 143.019 120.417C143.055 120.648 143.019 120.917 142.994 121.002C142.994 121.075 142.958 121.148 142.946 121.221C141.861 121.477 140.69 121.892 139.935 122.294C137.887 123.416 140.239 127.012 140.776 128.072C140.703 128.121 140.629 128.158 140.556 128.194C139.679 127.682 138.508 127.756 138.057 128.194L137.972 128.109C137.728 127.926 137.009 127.487 136.68 127.292C136.131 126.719 135.9 126.585 135.802 126.524C135.351 126.256 134.51 125.951 133.791 125.781C133.644 124.245 133.522 123.879 133.449 123.72C133.449 123.672 133.62 122.319 133.583 121.465C134.047 121.538 134.644 121.636 135.132 121.636C135.412 121.636 135.631 121.612 135.814 121.538C136.29 121.416 137.057 121.148 137.387 120.648L137.46 120.527L137.484 120.392C137.521 120.283 137.728 119.283 137.119 118.332C136.704 117.674 135.558 116.467 134.912 115.858C134.936 115.492 134.961 115.138 134.961 115.138C134.985 114.846 134.9 114.541 134.571 114.188C134.461 114.09 133.693 113.212 133.473 113.09C133.266 112.956 132.925 112.871 132.645 112.871C132.547 112.871 132.45 112.871 132.364 112.908C131.596 113.066 131.669 114.212 131.694 114.322C131.608 114.261 131.499 114.212 131.389 114.163C131.133 113.883 130.755 113.712 130.377 113.639C130.182 113.493 129.902 113.359 129.536 113.359H129.451C128.963 113.383 128.951 113.432 128.707 113.627C128.341 113.7 128.012 113.907 127.781 114.224C127.561 114.346 127.305 114.565 127.098 114.919C126.879 115.102 126.635 115.394 126.44 115.906L126.367 116.101C126.196 116.552 126.001 117.052 126.135 117.576C126.135 117.576 126.135 117.601 126.135 117.625C125.72 117.735 125.135 117.979 124.806 118.625C124.66 118.905 124.501 119.295 124.367 119.624C124.184 119.624 122.063 119.893 122.112 120.892C122.136 121.209 122.283 121.526 122.563 121.733C122.38 122.075 122.356 122.428 122.539 122.709C122.697 122.977 122.904 123.172 123.136 123.257C123.221 123.513 123.343 123.781 123.514 124.013C123.721 124.281 123.953 124.476 124.148 124.61C123.745 124.744 123.331 124.927 122.941 125.232C122.344 125.634 121.478 126.488 122.234 127.841C122.356 128.06 122.721 128.463 124.587 130.291C124.513 130.364 123.051 133.046 125.452 133.156C126.001 134.07 127.854 132.754 127.927 132.717C128.061 132.741 130.548 132.754 129.902 130.828C130.072 130.803 130.926 130.559 130.975 130.559C131.255 130.681 131.864 130.925 132.23 130.962C132.389 130.986 132.669 130.986 132.864 130.986C133.12 130.986 133.73 130.986 134.022 130.925C134.108 130.925 134.193 130.888 134.303 130.864C134.559 131.291 134.973 131.803 135.485 132.108C136.119 132.461 137.545 133.095 138.033 133.314C138.13 133.412 139.13 134.241 139.8 134.241C141.921 134.241 141.263 132.315 141.3 132.205C141.373 132.01 141.458 131.535 141.507 130.998C141.727 130.998 141.921 130.998 142.044 130.998H142.104C142.348 130.998 142.641 131.047 142.872 131.071L143.031 131.096C143.031 131.096 143.092 131.096 143.116 131.096C143.275 131.132 143.506 131.181 143.787 131.181C144.092 131.181 144.384 131.12 144.64 130.974C145.506 130.486 145.408 129.608 145.372 129.218V129.194C145.335 129.048 145.311 128.67 145.286 128.304C145.347 128.304 145.396 128.304 145.469 128.304C145.835 128.328 146.152 128.377 146.505 128.365C146.639 128.353 146.725 128.341 146.786 128.316C146.968 129.499 147.493 131.474 149.077 131.474C149.297 131.474 150.601 131.425 151.004 131.047C151.186 131.12 154.258 130.913 153.039 128.243C153.039 128.219 153.015 128.182 152.978 128.133C152.735 127.634 152.491 127.219 152.223 126.914V126.658C152.223 126.28 152.198 126.085 152.149 125.915C152.223 125.708 152.296 125.427 152.296 125.171C152.296 124.769 151.954 123.66 151.32 122.843C151.26 122.501 151.162 122.136 151.077 121.807C151.333 121.746 151.637 121.599 151.905 121.282C152.052 121.1 152.393 120.648 152.454 120.551L152.54 120.453L152.576 120.344C152.613 120.234 152.966 119.295 152.735 118.271C152.576 117.54 152.259 116.455 152.186 116.187C152.113 115.76 151.869 114.639 151.077 114.139C151.101 114.078 151.125 113.992 151.162 113.883C151.247 113.773 151.333 113.639 151.406 113.468C151.649 113.688 151.808 113.834 151.832 113.858C154.319 116.077 157.391 118.82 157.989 121.807C158.33 123.513 158.245 125.5 157.757 127.39C157.66 127.792 157.55 128.024 157.464 128.085C157.355 128.158 157.087 128.17 156.745 128.182C156.587 128.182 156.416 128.182 156.221 128.182C155.368 128.243 154.795 129.133 154.283 129.938C154.039 130.316 153.746 130.62 153.576 130.876C153.417 131.157 153.673 131.62 153.832 131.717C153.99 131.803 155.514 132.168 155.977 132.168C156.111 132.168 156.233 132.168 156.343 132.132C156.672 132.254 157.074 132.315 157.513 132.315C158.842 132.315 160.5 131.754 160.988 130.84C161.792 129.267 162.328 127.56 162.865 125.903C162.914 125.72 162.975 125.525 163.036 125.342C163.157 124.976 163.316 124.562 163.487 124.147C164.072 122.636 165.047 121.014 164.608 119.527C164.376 118.735 163.584 117.967 163.072 117.296C162.621 116.687 160.939 114.492 160.427 113.712C162.012 115.236 166.4 117.516 167.509 120.149C167.9 121.075 167.509 124.964 167.424 126.024C167.388 126.512 167.363 127.012 167.351 127.512C167.302 129.109 166.827 129.401 165.242 129.56C163.84 129.706 163.206 131.766 162.865 132.851C162.84 132.912 162.828 132.973 162.816 133.034L162.645 133.546L163.194 133.644C163.401 133.68 163.633 133.717 163.877 133.765C164.876 133.96 166.546 134.582 167.741 134.582C169.131 134.582 170.13 134.241 170.74 133.57C171.557 132.693 171.849 131.12 172.129 129.743C172.239 129.218 172.812 127.353 173.007 126.695C174.324 122.453 175.628 120.831 173.409 118.405L173.422 118.454ZM162.657 121.063C163.084 119.344 164.328 119.478 163.95 120.819C163.779 121.416 160.756 130.194 160.732 129.621C160.646 129.718 160.585 129.645 160.597 129.56C160.792 127.914 162.511 121.66 162.657 121.063ZM82.6393 92.842C83.0781 92.4641 84.0534 92.842 83.8094 93.7928C83.4805 94.1709 82.1762 93.549 82.6393 92.842ZM83.5171 96.7063C83.8706 96.938 84.3217 96.9257 84.4313 97.1453C84.5777 97.3768 84.3826 97.9254 84.1143 98.0718C83.639 98.3764 83.4562 97.5232 83.4562 97.5232C83.322 97.194 83.3097 96.8281 83.5048 96.6943L83.5171 96.7063ZM91.7577 98.6447C90.2827 98.3278 85.6137 100.242 84.5897 100.034C83.5901 99.8272 83.383 99.7297 83.383 99.5589C83.383 99.4004 83.6023 99.2054 83.6876 99.1201C83.7122 99.1201 83.7851 99.0226 83.8827 98.9251C83.9436 98.9983 84.0045 98.9737 84.0534 98.8641C84.1143 98.7177 84.2119 98.73 84.2605 98.8641L84.2971 98.986C84.3581 99.1322 84.4679 99.1444 84.5531 99.0103L84.6507 98.8152C84.7362 98.6934 84.8823 98.6934 84.9556 98.8152L85.0285 98.9373C85.114 99.0712 85.2602 99.0958 85.37 98.9617L85.5528 98.7666C85.6503 98.6447 85.7965 98.6568 85.8697 98.8032L85.8941 98.8641C85.9673 98.9983 86.0405 99.1201 86.0891 99.1078C86.138 99.1078 86.1746 98.986 86.1867 98.8152L86.2722 97.7912C86.2965 97.6328 86.3574 97.6207 86.4183 97.7669L86.7719 98.5715C86.8451 98.7177 87.0279 98.8152 87.1741 98.7909C87.1741 98.7909 88.5639 98.5229 89.2587 97.962C89.9534 97.4013 90.819 97.9986 91.1848 97.7183C91.6725 97.3158 91.4285 96.9746 91.4165 96.8282C91.4165 96.8282 91.3799 96.6088 90.7826 96.5478C90.1851 96.4992 87.2596 96.426 87.2596 96.426C87.1011 96.426 86.9547 96.5478 86.9181 96.7063L86.7719 97.5352C86.7476 97.6817 86.6743 97.706 86.6134 97.5352L86.2722 96.7552C86.211 96.6088 86.4916 96.5235 85.8697 96.5358C85.4676 96.7063 84.9556 96.2798 84.419 95.7432C82.4808 93.7807 84.7605 94.9998 84.6141 93.7807C84.5777 93.4272 84.4802 93.2687 84.4313 93.2078C84.6873 93.3297 85.6626 93.8173 85.9916 94.2682C86.2599 94.5121 87.2962 93.8417 87.6617 93.9758C89.1368 94.5121 90.307 94.6583 92.2941 95.7678C92.7208 95.9992 92.1479 97.2792 92.2697 97.2915C92.5257 97.3768 93.2451 95.8287 92.8793 95.5604C88.5882 92.4152 85.5528 92.1349 85.5528 92.0983C86.4306 91.1961 87.1863 89.7823 87.6983 88.5632C87.7836 88.3558 87.5033 88.0998 87.6008 87.9171C87.8568 87.3928 88.1494 86.9663 88.5396 86.698C89.8925 85.7838 92.0747 86.7223 92.8427 87.5392C93.1476 87.8682 93.5131 88.5266 93.7448 89.258C92.9891 89.4042 92.5623 88.5752 91.77 88.0512C90.9411 87.5026 90.3925 87.1977 89.8562 87.3441C89.1245 87.5512 88.5516 88.5752 88.5516 88.5752C89.1368 88.0023 89.8805 87.8561 89.8805 87.8561C90.4777 87.8561 91.075 88.3681 91.5506 88.8678C91.331 88.7094 91.0873 88.5875 90.8802 88.5752C90.1485 88.5023 90.0633 89.4774 90.0633 89.4774L89.6854 89.9407C89.6854 89.9407 89.7463 90.0503 90.307 90.0503C90.746 90.0503 92.026 90.0503 92.7085 89.9162C93.1596 89.9162 93.5863 89.5992 93.7691 89.3921C93.8667 89.709 93.9399 90.0383 93.9765 90.3429C94.0251 90.7087 94.074 91.0989 94.0861 91.4888C94.1227 92.013 93.9156 92.1592 93.5254 91.9521C93.2571 91.8057 92.8427 91.4644 92.4162 91.7082C91.9894 91.9521 92.4648 93.2441 93.1353 94.0244C93.4765 94.4389 93.9156 94.9266 94.2082 95.4143C94.2082 95.5604 94.2325 95.658 94.2325 95.7069C94.1227 97.5232 93.4522 98.9251 91.7457 98.5715L91.7577 98.6447ZM91.2701 89.3678C91.2701 89.5872 91.0386 89.77 90.8679 89.77C90.6851 89.77 90.5387 89.5872 90.5387 89.3678C90.5387 89.1482 90.6851 88.9654 90.8679 88.9654C91.0386 88.9654 91.2701 89.1482 91.2701 89.3678ZM100.888 96.9989C101.084 97.7669 101.461 98.1448 101.705 98.4253C101.839 98.1937 101.949 97.901 102.047 97.5962C101.827 99.7053 102.936 100.9 103.497 101.473C102.047 100.851 101.327 99.8026 100.901 96.9989H100.888ZM102.083 97.4013C102.12 97.3281 102.132 97.2426 102.156 97.1574C102.364 98.3278 103.156 98.73 103.4 98.9128C103.583 98.6934 103.68 98.2789 103.729 97.8644C103.912 99.7174 104.521 100.827 104.607 100.997C104.351 100.802 102.388 99.2054 102.071 97.4013H102.083ZM105.752 100.047C105.752 100.047 104.716 99.8638 103.729 97.8278C103.802 97.1817 103.765 96.5478 103.765 96.5478C103.765 96.5478 103.497 98.1448 103.107 97.9743C102.802 97.8401 102.376 97.2915 102.193 96.9989C102.278 96.6577 102.339 96.3284 102.376 96.0968C102.583 96.621 102.924 96.8527 103.144 97.0355C103.473 96.7429 104.058 95.4143 104.204 95.085C104.034 95.3533 103.375 96.3041 103.083 96.109C102.79 95.9383 102.4 95.2312 102.242 94.9266C102.498 94.4512 102.705 93.9758 102.778 93.7928C102.961 94.378 103.144 94.5974 103.461 94.8657C103.668 94.7192 103.839 94.4878 103.973 94.2318C104.021 94.5241 104.107 94.8047 104.216 95.0728C104.643 96.1213 105.411 96.9746 105.948 97.6328C105.021 97.6328 103.851 96.1213 103.851 96.1213C104.131 98.3521 105.765 100.059 105.765 100.059L105.752 100.047ZM104.046 94.0733C104.326 93.5124 104.46 92.8909 104.485 92.7444C104.387 92.9638 103.851 94.1952 103.485 94.0001C103.205 93.8537 102.839 93.1832 102.632 92.7688C102.839 92.2568 102.997 91.6838 103.058 91.3792C103.168 91.562 103.278 91.6838 103.388 91.7814C103.497 91.6961 103.583 91.562 103.656 91.4035C103.814 92.269 104.009 92.5617 104.204 92.7321C104.363 92.6958 104.497 92.5494 104.594 92.3786C104.875 93.7075 105.423 94.8413 106.045 95.5482C105.228 95.4629 104.728 94.9143 104.058 94.0733H104.046ZM107.154 89.5383C106.898 89.3555 106.728 88.5143 106.728 88.5143C106.63 89.3921 107.069 90.0869 107.154 90.2333C107.337 90.1967 107.471 90.0746 107.569 89.9041C107.666 90.5989 108.178 91.7204 108.495 91.9398C107.447 91.8057 106.52 91.3546 106.13 90.9038C106.264 90.6112 106.313 90.3309 106.313 90.221C106.204 90.3795 105.825 90.9524 105.606 90.794C105.362 90.6112 105.18 89.77 105.18 89.77C105.045 90.9158 105.338 91.2817 105.594 91.5743C105.716 91.4888 105.826 91.3912 105.899 91.2817C105.874 92.0983 106.228 93.1955 106.703 93.6466C105.326 93.2564 105.301 92.9518 104.692 92.1592C104.863 91.7693 104.936 91.3303 104.936 91.3303C104.936 91.3303 104.716 91.6961 104.485 91.8789C104.363 91.9521 104.253 91.9887 104.156 91.9278C103.997 91.818 103.826 91.5133 103.704 91.245C103.863 90.8426 103.936 90.3918 103.936 90.282C103.887 90.3795 103.717 90.6964 103.534 90.8426C103.448 90.9158 103.351 90.9524 103.278 90.9038C103.01 90.733 102.778 89.9041 102.778 89.9041C102.741 90.6232 102.851 91.0623 103.009 91.3549C102.839 91.7204 102.4 92.586 102.132 92.4398C101.827 92.269 101.486 91.4522 101.4 91.245C101.62 92.7688 101.791 93.2687 102.168 93.5734C102.303 93.4392 102.437 93.2198 102.546 92.9638C102.632 93.293 102.693 93.5613 102.754 93.7807C102.583 94.0488 101.839 95.0973 101.522 94.9023C101.169 94.6826 100.84 93.5734 100.84 93.5734C100.876 94.0611 100.925 94.4389 100.986 94.7315C100.852 94.9998 100.474 95.6946 100.267 95.6703C99.9986 95.6337 99.4377 94.634 99.4377 94.634C99.5596 95.6093 100.035 96.0601 100.267 96.3528C100.681 96.1213 100.925 95.1946 100.998 94.8047C101.12 95.3533 101.303 95.6093 101.596 95.8164C101.791 95.658 101.998 95.3654 102.181 95.0362C102.181 95.4263 102.241 95.7312 102.339 95.9629C102.12 96.4749 101.669 97.4623 101.437 97.2792C101.108 97.0232 100.754 95.9872 100.754 95.9872C100.754 96.2675 100.791 96.5235 100.84 96.7429C100.803 97.1817 100.669 98.2423 100.145 98.0229C99.7547 97.8767 99.1085 96.682 99.1085 96.682C99.4743 98.5226 99.8036 98.7666 100.401 99.1321C100.572 98.9737 100.693 98.7543 100.767 98.4983C100.742 99.3152 100.84 100.12 101.279 100.851C99.8402 100.229 99.2916 98.7543 99.011 98.3032C98.9623 98.5715 97.4507 100.388 95.5245 100.266C96.4999 99.3272 96.7559 98.7057 96.7559 96.2798C95.5734 100.303 93.2451 100.181 93.0011 100.156C93.1596 100.156 95.098 100.071 95.4027 95.7432C95.4759 94.634 94.5617 94.8413 94.5371 93.5613C94.5371 93.2687 95.1467 93.6832 95.098 93.0371C95.0125 91.8423 95.0491 90.8063 95.0491 90.8063C94.8177 86.2103 90.8922 85.8201 88.9783 85.6374C87.1741 85.4789 84.858 86.9053 84.602 87.0881C84.8334 86.8441 85.0774 86.6371 85.3457 86.4663V86.442C85.5162 86.2349 85.7356 85.8813 85.882 85.4912C86.1134 84.8573 86.7476 83.2358 86.7476 82.6143C86.8085 82.797 87.4301 84.6257 87.418 85.162C87.418 85.4423 87.3691 85.6008 87.3205 85.6863C88.3565 85.4546 89.527 85.4057 90.7094 85.4423H90.7581C91.5993 85.5398 96.1097 86.3321 96.9753 91.8666C97.2802 90.7453 96.0611 87.0515 94.5005 86.1494C94.3666 86.0641 94.0008 85.8813 93.9642 85.3937C94.074 85.2472 94.135 85.0035 94.135 84.6377C94.135 84.6377 94.135 84.6377 94.135 84.6134C94.1593 84.2721 94.135 83.8333 94.0617 83.309C93.9156 82.1023 94.9396 81.261 95.4393 80.9318C95.9513 80.6026 97.4996 82.0047 97.2313 83.1383C96.8291 82.0168 95.8903 81.9192 95.8903 81.9192C95.8903 81.9192 95.5002 81.7853 95.8537 82.541C96.2196 83.309 95.9513 84.8817 95.5002 85.3204C95.0491 85.7592 94.3666 85.4912 94.4276 85.7592C94.4642 85.9666 95.354 86.6248 97.0485 84.9426C96.7193 85.93 96.8045 87.0638 98.6211 87.3198C100.925 87.6244 105.167 87.3807 108.191 86.7955C110.556 86.2103 114.31 86.5518 114.92 86.8442C114.298 86.8198 114.127 86.8442 113.152 86.9906C112.238 87.1368 111.531 87.5149 111.092 87.3562C110.945 87.3075 111.458 87.8561 112.031 88.2217C111.653 88.3558 109.861 88.3802 109.605 88.2217C109.458 88.5389 109.788 89.8552 110.239 90.1235C109.373 90.2454 108.276 89.9161 107.679 89.6481C107.813 89.3069 107.837 88.941 107.837 88.941C107.837 88.941 107.374 89.7334 107.13 89.5506L107.154 89.5383ZM122.539 111.652C122.453 111.737 122.344 112.005 122.124 111.725C121.905 111.432 121.539 108.519 121.539 108.519C121.539 108.519 121.478 108.226 121.905 108.178C122.38 108.141 123.039 108.007 123.27 108.178C123.49 108.348 123.831 108.946 123.807 109.299C123.807 109.665 122.612 111.554 122.539 111.652ZM124.648 100.01C124.294 99.181 123.697 96.7918 124.05 95.9017C124.257 96.7795 124.782 98.6324 125.16 99.4614C125.769 100.717 126.513 102.338 127.013 103.021C126.098 102.704 124.977 100.815 124.636 100.01H124.648ZM130.426 109.872C130.426 109.872 130.012 110.738 129.816 110.165C129.682 109.775 128.853 107.02 129 106.422C129.146 105.825 131.084 105.947 131.084 105.947C131.962 105.947 132.169 106.959 132.169 107.276C132.169 107.532 130.621 109.482 130.414 109.872H130.426ZM138.52 109.458C138.52 109.458 137.85 110.835 137.618 110.238C137.46 109.86 136.436 106.715 136.582 106.117C136.741 105.52 138.679 105.642 138.679 105.642C139.544 105.642 139.532 106.654 139.532 106.959C139.532 107.215 138.74 109.08 138.545 109.458H138.52ZM149.724 114.322L148.675 113.968C148.565 113.932 148.431 113.688 148.419 113.48C148.419 113.383 148.809 112.968 149.029 112.676C148.992 113.017 149.077 113.493 149.212 113.444C149.394 113.395 149.358 112.773 149.407 112.7C149.504 112.578 149.577 112.2 149.541 111.993C149.541 111.92 149.504 111.871 149.468 111.835C149.297 111.737 149.248 111.664 149.248 111.64C149.248 111.64 149.248 111.603 149.285 111.579C149.285 111.579 149.346 111.481 149.382 111.408C149.443 111.262 149.407 111.079 149.346 110.945C149.297 110.835 148.98 110.433 148.797 110.372C148.651 110.335 148.553 110.238 148.553 110.152C148.553 110.116 148.553 110.043 148.553 109.994C148.577 109.848 148.577 109.714 148.529 109.64C148.09 109.019 147.48 108.982 147.285 108.994C147.285 108.885 147.407 108.787 147.834 108.787C148.029 108.787 148.687 108.848 148.87 108.872C149.297 108.946 149.309 109.506 149.309 109.506C149.309 109.506 149.492 109.567 149.736 109.628C149.992 109.689 149.931 110.238 149.931 110.238L150.333 110.664C150.333 110.664 150.552 110.872 150.552 111.189C150.833 111.53 150.711 112.249 150.711 112.249C150.711 112.481 150.711 112.664 150.662 112.822C150.565 113.371 150.345 113.48 150.345 113.48C150.345 113.48 150.236 113.919 150.162 113.992C150.101 114.078 149.87 114.261 149.711 114.309L149.724 114.322ZM149.492 115.309C149.626 115.419 149.882 115.492 149.87 115.675C149.87 115.736 149.845 116.248 149.748 116.37C149.455 116.735 148.114 117.186 147.688 117.113C147.651 117.077 147.383 116.808 147.493 116.687C147.59 116.577 147.846 116.821 147.919 116.76C147.992 116.687 147.383 115.992 147.578 115.858C147.797 115.711 148.065 116.248 148.188 116.15C148.309 116.065 148.261 115.992 148.224 115.919C148.224 115.882 147.956 115.394 147.956 115.394C147.932 115.37 147.651 114.931 147.834 114.846C148.029 114.785 148.224 115.102 148.261 115.151C148.285 115.151 148.639 115.809 148.797 115.724C148.943 115.65 148.517 114.7 148.517 114.7C148.492 114.614 148.321 114.37 148.407 114.297C148.492 114.224 148.59 114.248 148.833 114.578C148.858 114.614 149.492 115.76 149.601 115.76C149.601 115.76 149.601 115.504 149.504 115.321L149.492 115.309ZM145.81 108.3C145.81 108.3 145.493 109.043 145.189 108.592C144.762 107.958 143.397 105.703 143.555 105.106C143.701 104.508 145.64 104.63 145.64 104.63C146.517 104.63 146.712 105.654 146.712 105.959C146.712 106.215 146.005 107.909 145.81 108.3ZM131.462 115.212C131.548 115.346 131.633 115.504 131.462 115.431C131.206 115.041 130.255 114.748 130.231 114.712C130.17 114.651 130.341 114.492 130.877 114.895C131.182 114.931 131.377 115.09 131.474 115.212H131.462ZM130.816 114.797C130.706 114.675 130.45 114.517 130.121 114.541C130.121 114.504 130.121 114.48 130.085 114.444C130.255 114.468 130.682 114.553 130.816 114.797ZM129.109 114.419V114.395C129.231 114.285 129.317 114.2 129.524 114.188C129.756 114.188 129.926 114.322 129.987 114.395C130.012 114.395 130.012 114.419 130.024 114.431C130.06 114.492 130.072 114.541 130.024 114.541C129.938 114.541 129.877 114.395 129.865 114.37C129.804 114.285 129.585 114.407 129.719 114.504C129.756 114.541 129.804 114.553 129.865 114.59C129.938 114.639 129.902 114.651 129.865 114.639C129.78 114.614 129.707 114.602 129.597 114.602C129.5 114.602 129.402 114.602 129.317 114.651C129.268 114.675 129.231 114.651 129.28 114.602C129.329 114.578 129.378 114.553 129.414 114.541C129.609 114.419 129.292 114.188 129.244 114.504C129.207 114.553 129.17 114.602 129.146 114.602C129.036 114.602 129.097 114.48 129.121 114.431L129.109 114.419ZM129.085 114.419C129.085 114.419 129 114.492 128.988 114.553C128.963 114.553 128.609 114.578 128.427 114.736C128.695 114.395 129.024 114.407 129.085 114.419ZM128.329 114.882C128.732 114.59 128.939 114.602 128.914 114.724C128.914 114.76 128.427 115.029 128.244 115.212C128.085 115.333 127.854 115.602 127.817 115.614C127.768 115.614 127.744 115.553 127.781 115.431C127.781 115.407 127.781 115.37 127.829 115.321C128.061 114.943 128.329 114.882 128.329 114.882ZM123.916 122.855C124.319 123.111 124.197 123.099 124.636 123.245C125.099 123.379 125.062 122.989 125.44 122.989C125.623 122.989 125.66 122.831 125.672 122.636L125.708 122.611C125.708 122.611 125.879 122.453 125.976 122.111C126.062 122.562 126.293 123.428 126.135 123.672L126.062 123.745C125.891 123.891 125.672 124.05 125.513 124.123C125.269 124.22 124.989 124.123 124.989 124.123C124.989 124.123 124.575 123.952 124.209 123.489C124.063 123.306 123.977 123.062 123.928 122.831L123.916 122.855ZM129.097 131.34C129.061 131.656 128.439 132.144 127.89 131.864C127.744 131.864 126.635 132.754 126.123 132.571C125.891 132.522 125.867 132.376 125.769 132.339C125.684 132.315 125.391 132.388 125.257 132.229C125.087 132.01 125.001 131.742 125.074 131.474C125.135 131.242 125.525 131.388 125.513 131.315C125.489 131.23 125.025 131.279 125.208 130.84C125.281 130.681 125.733 130.84 125.733 130.84H126.037C126.037 130.84 126.098 130.84 126.098 130.815C126.098 130.815 126.293 130.352 126.61 130.169C126.952 129.986 127.5 129.743 127.744 129.73C126.891 129.511 126.086 130.06 125.916 130.413C125.245 129.767 123.124 127.695 122.977 127.439C122.795 127.134 122.478 126.549 123.429 125.903C124.477 125.135 125.696 125.183 126.123 125.171C127.878 126.207 128.951 129.511 129.085 129.84C129.061 129.84 129.048 129.84 129.048 129.84C129 129.84 128.89 129.901 128.78 129.938C128.671 129.743 126.464 125.22 124.538 125.817C125.867 125.671 128.268 129.657 128.512 130.023L128.536 130.047C128.622 130.133 128.878 130.437 128.975 130.632C129.085 130.864 129.134 131.023 129.085 131.327L129.097 131.34ZM140.52 131.973C140.422 132.266 140.434 132.815 140.434 132.9C140.434 133.01 140.312 133.436 139.8 133.436C139.288 133.436 138.533 132.632 138.533 132.632C138.533 132.632 136.619 131.791 135.912 131.4C135.192 130.986 134.729 129.901 134.729 129.901C134.729 129.901 134.156 130.072 133.876 130.133C133.596 130.181 132.596 130.194 132.328 130.157C132.096 130.133 131.487 129.901 131.304 129.804V129.767C131.304 129.767 131.255 127.975 132.681 126.61C132.498 126.646 131.109 127.097 130.78 129.889C130.56 129.974 130.328 130.072 130.231 130.072C130.121 130.072 129.877 130.035 129.658 129.999C129.402 129.267 128.049 125.732 126.281 124.927C126.415 124.501 126.805 123.781 126.805 123.781V122.319C126.769 122.087 126.732 120.941 126.732 120.77C126.842 120.844 128.171 120.563 128.463 120.051C128.463 120.051 127.537 120.222 127.305 120.173C126.879 120.1 126.769 119.929 126.744 119.795C126.744 119.759 126.586 118.735 126.464 118.735C126.196 118.771 126.428 121.782 126.488 122.538C126.415 122.745 126.354 122.965 126.354 122.965C126.354 122.965 126.33 123.05 126.305 123.16C126.245 122.77 126.037 121.697 126.037 121.697V121.624C126.013 121.441 125.964 121.27 125.855 121.124C125.684 120.892 125.404 120.758 125.221 120.758C125.221 120.758 125.952 121.258 125.867 121.758C125.769 122.258 125.684 122.294 125.684 122.294L125.574 122.184V122.477C125.55 122.623 125.513 122.684 125.404 122.672C125.123 122.672 124.916 123.062 124.611 122.965C124.331 122.879 124.184 122.648 124.001 122.514C123.831 122.392 124.087 122.148 124.087 122.148C124.087 122.148 124.087 122.038 124.001 121.989C123.941 121.941 123.831 122.184 123.819 122.245C123.819 122.245 123.819 122.27 123.819 122.282C123.758 122.343 123.636 122.453 123.563 122.465C123.477 122.501 123.356 122.465 123.282 122.331C123.221 122.209 123.477 121.953 123.477 121.953L123.587 121.319L123.855 121.258C123.855 121.258 124.136 121.356 124.38 121.319C124.636 121.27 125.038 120.807 124.965 120.783C124.904 120.746 124.696 121.063 124.331 121.063C124.197 121.063 124.063 121.039 123.904 121.002H123.88C123.88 121.002 123.721 121.087 123.624 121.112C123.587 121.112 123.563 121.112 123.538 121.112C123.368 121.136 123.002 121.16 122.977 120.856C122.977 120.709 123.319 120.673 123.416 120.6C123.599 120.466 124.404 120.429 124.575 120.453C124.782 120.453 124.952 120.563 124.952 120.563C124.952 120.563 125.294 119.539 125.574 118.978C125.818 118.491 126.391 118.393 126.696 118.32C126.696 118.32 126.72 118.32 126.757 118.32C126.976 118.284 127.695 118.149 128.207 118.149C128.305 118.149 128.39 118.149 128.451 118.174C128.975 118.296 129.585 118.503 129.597 118.418C129.597 118.332 128.853 118.052 128.512 117.979C128.451 117.979 128.354 117.979 128.232 117.979C127.915 117.979 127.5 118.015 127.317 118.04C127.317 118.04 127.049 117.698 126.964 117.369C126.879 117.04 127.073 116.613 127.244 116.175C127.415 115.748 127.585 115.589 127.683 115.528C127.634 115.638 127.683 115.736 127.708 115.809C127.586 116.101 127.61 116.479 127.781 116.772C127.927 117.028 128.78 117.747 128.841 117.698C128.927 117.65 127.964 116.796 127.89 116.431C127.732 115.553 128.914 114.785 129.292 114.748C129.317 114.748 129.365 114.858 129.585 114.834C129.853 114.834 129.877 114.748 129.89 114.748C130.194 114.712 131.633 115.248 131.487 116.309C131.425 116.65 131.292 117.052 131.352 117.101C131.413 117.138 131.474 116.955 131.621 116.662C131.767 116.357 131.779 115.98 131.645 115.687C131.73 115.602 131.743 115.504 131.694 115.407C131.889 115.528 132.303 115.955 132.559 117.333C132.559 117.54 132.255 117.82 132.12 117.93H131.133C130.804 117.93 129.792 118.357 129.853 118.43C129.926 118.503 130.67 118.186 131.169 118.125C131.596 118.064 132.267 118.162 132.559 118.21C132.632 118.21 132.681 118.235 132.693 118.235C132.876 118.259 133.12 118.32 133.34 118.381C133.669 118.917 134.4 119.771 134.924 120.185C135.156 120.405 135.339 120.527 135.424 120.466C135.265 120.295 134.193 119.027 133.815 118.564C133.754 118.296 132.791 116.784 132.791 116.784C132.791 116.784 132.705 116.723 132.572 116.577C132.437 116.443 132.181 115.711 132.133 115.577C132.084 115.419 132.133 115.26 132.218 115.175C132.413 114.98 132.632 115.553 132.767 115.748C132.925 115.748 133.084 115.394 133.084 115.394C133.084 115.394 132.913 115.358 132.852 115.272C132.803 115.199 132.803 114.834 132.828 114.773C132.852 114.712 132.998 114.639 132.998 114.639L132.888 114.322C132.888 114.322 132.681 114.151 132.596 114.066C132.523 113.992 132.486 113.712 132.596 113.676C132.73 113.639 133.047 113.736 133.132 113.81C133.23 113.895 133.925 114.687 134.022 114.797C134.132 114.907 134.132 115.053 134.132 115.053C134.132 115.053 134.095 115.772 134.034 116.15C134.437 116.492 135.973 118.052 136.412 118.747C136.85 119.442 136.68 120.185 136.68 120.185C136.46 120.514 135.558 120.746 135.558 120.746C135.107 120.941 133.522 120.588 133.217 120.551C133.12 119.198 132.974 118.686 132.888 118.686C132.828 118.686 132.693 119.624 132.693 119.746C132.693 119.771 132.657 120.392 131.962 120.283C131.365 120.185 131.072 120.076 131.011 120.051C131.267 120.514 132.376 120.77 132.669 121.148C132.693 121.185 132.73 121.319 132.742 121.441C132.742 121.441 132.742 121.465 132.742 121.477C132.742 122.282 132.608 123.538 132.608 123.696C132.961 124.403 132.998 125.842 133.01 126.439C133.827 126.439 135.314 127.122 135.412 127.219C135.583 127.304 136.156 127.914 136.156 127.914C136.156 127.914 137.204 128.524 137.46 128.719C137.594 128.84 137.96 129.121 138.228 129.34C138.228 129.34 138.399 130.145 138.386 130.486C138.386 130.547 138.362 130.572 138.338 130.584C138.338 130.584 138.313 130.608 138.313 130.62C138.167 130.767 138.264 131.327 138.264 131.327C138.264 131.327 138.423 130.998 138.581 130.828L138.63 130.779C138.703 130.706 138.716 130.657 138.691 130.389V130.328C138.691 130.23 138.606 129.755 138.581 129.608C138.581 129.608 138.581 129.608 138.581 129.572V129.535C138.557 129.401 138.52 129.121 138.508 128.999C138.508 128.914 138.581 128.743 138.789 128.645C138.862 128.621 139.045 128.67 139.105 128.828C139.154 128.975 139.081 128.597 139.24 128.584C139.288 128.584 139.508 128.621 139.691 128.658C139.691 128.658 139.8 128.682 139.837 128.682C140.227 128.743 140.459 128.926 140.605 129.157C140.8 129.474 140.8 129.877 140.788 130.157C140.788 130.242 140.788 130.316 140.788 130.376C140.788 130.547 140.751 130.791 140.715 131.047C140.666 131.413 140.617 131.778 140.556 131.949L140.52 131.973ZM144.189 130.23C143.811 130.437 143.348 130.255 143.128 130.23C142.921 130.206 142.482 130.145 142.153 130.133C142.044 130.133 141.812 130.133 141.544 130.133C141.544 129.596 141.434 129.109 141.227 128.792C141.592 128.584 141.885 128.426 141.885 128.426C141.885 128.426 142.044 128.365 141.836 128.072C141.166 127.195 139.228 123.855 140.337 122.989C140.715 122.672 142.312 122.245 143.189 122.038C143.238 122.16 144.25 124.647 145.42 125.939C145.347 125.988 145.128 125.964 144.884 125.915C144.884 125.915 142.824 124.415 142.214 123.647C142.117 124.172 144.287 126.195 144.287 126.195C144.311 126.732 144.335 127.597 144.335 127.597C144.335 127.597 144.433 128.962 144.481 129.304C144.518 129.669 144.579 130.023 144.201 130.218L144.189 130.23ZM152.259 128.694C152.357 128.853 152.991 129.901 151.832 130.316C151.503 130.437 151.247 130.23 151.125 130.108C151.235 129.852 151.393 129.267 151.455 129.023C151.516 128.755 151.528 127.877 151.528 127.5C151.832 127.816 152.186 128.572 152.259 128.694ZM151.406 125.196C151.406 125.403 151.199 125.829 151.15 125.939C151.235 126.146 151.308 126.866 151.296 127.353C151.296 127.999 151.186 129.669 150.772 130.194C150.443 130.352 149.857 130.584 149.126 130.62C147.31 130.693 147.505 126.853 147.505 126.427C147.505 126.354 147.505 126.293 147.505 126.244C147.505 126.28 147.505 126.305 147.505 126.305C147.505 126.305 148.163 124.05 148.712 123.818C149.285 123.574 150.126 123.684 150.126 123.684C150.126 123.684 149.48 123.221 148.675 123.343C147.907 123.452 147.383 125.793 147.322 126.085V126.11C147.164 126.561 147.115 126.585 146.798 126.646C146.578 126.683 146.127 126.39 145.92 126.244C144.457 124.245 143.921 122.465 143.775 121.904L143.628 118.991V118.747L143.543 117.479C143.543 117.479 143.714 117.552 143.775 117.503C143.836 117.442 143.494 117.138 143.47 116.76C143.47 116.479 143.775 116.126 143.714 116.089C143.665 116.053 143.543 116.15 143.543 116.15C143.567 115.906 143.592 115.626 143.604 115.455C143.628 115.199 143.957 114.7 143.957 114.7C143.226 114.956 143.092 115.797 143.092 115.797L143.043 116.455C143.043 116.455 142.97 116.65 142.97 116.784C142.97 116.943 143.068 117.113 143.08 117.113L143.275 119.173C142.836 119.637 142.275 119.832 142.044 119.771C141.751 119.71 141.044 119.027 140.861 118.808C140.69 118.564 139.41 116.15 139.41 116.15C139.41 116.15 137.545 116.077 137.399 116.028C137.24 115.98 136.582 115.297 136.448 115.175C136.314 115.065 136.192 114.419 136.863 114.651C137.119 114.748 137.533 115.004 137.594 115.016C139.13 115.26 139.081 114.614 138.996 114.565C138.898 114.504 138.52 114.322 138.399 114.163C138.277 113.992 138.399 113.822 138.996 114.041C139.167 114.114 139.886 114.358 139.983 114.395C140.288 114.504 140.508 115.175 140.508 115.175L141.958 116.65C141.958 117.15 142.421 119.21 142.507 119.149C142.592 119.1 142.287 116.565 142.287 116.565C142.36 116.443 142.47 116.309 142.616 116.175C142.897 115.248 143.299 114.907 143.457 114.773C143.555 114.687 143.823 114.626 144.055 114.553C144.225 114.614 144.725 114.736 145.53 115.26C145.652 115.053 144.847 114.578 144.372 114.383C144.53 114.236 144.92 114.041 144.92 114.041C144.92 114.041 145.042 113.59 145.116 113.42C145.201 113.237 145.116 113.078 145.116 113.078C145.116 113.078 144.799 112.664 144.616 112.347C144.433 112.03 144.457 111.737 144.506 111.506C144.567 111.14 144.993 110.811 145.14 110.713C145.286 110.628 145.542 110.543 145.542 110.543C145.542 110.543 146.091 109.884 146.396 109.616C146.493 109.519 146.639 109.458 146.798 109.397C146.847 109.397 146.895 109.36 146.944 109.348C146.944 109.348 146.981 109.348 147.005 109.348C147.005 109.348 147.054 109.324 147.09 109.324C147.115 109.324 147.139 109.324 147.176 109.324C147.407 109.324 147.773 109.384 148.139 109.811C148.175 109.848 148.163 110.018 148.139 110.152C148.139 110.152 148.065 110.421 148.407 110.591C148.639 110.689 148.76 110.884 148.846 111.006C148.87 111.03 148.882 111.067 148.907 111.091C148.943 111.14 148.968 111.201 148.943 111.298C148.943 111.298 148.943 111.335 148.943 111.372C148.943 111.457 148.895 111.493 148.858 111.518C148.834 111.554 148.797 111.603 148.809 111.676C148.834 111.749 148.87 111.871 148.968 111.944C148.895 112.018 148.821 112.042 148.736 112.042C148.602 112.042 148.492 111.957 148.492 111.957C148.492 111.957 148.468 112.249 148.785 112.249C148.919 112.249 149.041 112.176 149.102 112.115C149.102 112.188 149.126 112.274 149.077 112.396C148.687 112.396 147.968 113.2 147.956 113.432C147.956 113.602 148.029 113.98 148.188 114.139C148.139 114.2 148.09 114.285 148.09 114.383C146.53 114.492 145.944 115.053 145.871 115.333C146.018 115.285 147.151 114.834 147.578 114.76C147.31 115.016 147.676 115.492 147.749 115.577C147.688 115.553 147.541 115.48 147.395 115.577C147.09 115.809 147.395 116.296 147.456 116.406C147.334 116.406 147.249 116.443 147.2 116.492C147.041 116.674 147.346 117.052 147.566 117.284C147.676 117.394 147.2 117.369 145.859 116.37C145.896 117.345 147.517 117.93 148.029 117.942C148.029 117.942 150.028 121.599 150.162 121.868C150.284 122.331 150.406 122.843 150.467 123.269C151.089 123.916 151.418 125 151.418 125.208L151.406 125.196ZM151.296 116.418C151.296 116.418 151.662 117.711 151.845 118.491C152.028 119.283 151.711 120.063 151.711 120.063C151.711 120.063 151.333 120.588 151.186 120.746C151.052 120.917 150.894 121.014 150.674 120.978C150.504 120.953 150.04 120.795 149.87 120.734V120.685L148.285 117.747L148.224 117.637C148.224 117.637 148.139 117.528 148.005 117.406C147.968 117.369 148.005 117.32 148.041 117.333C148.59 117.394 149.541 117.125 149.772 117.052C149.833 117.125 151.357 118.917 151.467 118.832C151.589 118.759 149.931 116.577 149.919 116.577C149.919 116.577 150.077 115.675 150.04 115.565C149.967 115.358 149.516 115.029 149.346 115.029H149.309C149.309 115.029 149.248 114.919 149.236 114.907L149.212 114.858C149.09 114.663 149.004 114.504 148.931 114.407C149.248 114.504 149.553 114.602 149.565 114.614H149.736C149.736 114.614 149.857 114.614 150.492 114.895C151.113 115.175 151.296 116.418 151.296 116.418ZM155.819 130.669C155.648 130.901 155.307 130.523 155.282 130.291C155.258 130.06 155.599 129.474 155.794 129.279C155.965 129.084 156.355 129.084 156.355 129.084C156.794 129.06 155.989 130.437 155.819 130.669ZM157.123 131.01C156.696 131.181 156.453 130.888 156.453 130.888C156.453 130.888 156.538 129.913 156.733 129.657C156.867 129.474 157.123 129.548 157.123 129.548C157.123 129.548 157.879 129.767 158.135 129.974C158.428 130.194 157.537 130.84 157.123 131.01ZM166.327 131.266C166.156 131.352 166.083 131.717 166.071 131.815C165.961 132.437 166.071 133.351 165.973 133.461C165.864 133.644 165.315 133.461 165.242 133.314C165.181 133.192 165.242 131.912 165.242 131.803C165.242 131.522 165.596 131.291 165.998 131.12C166.181 131.059 166.717 130.998 166.876 130.706C167.009 130.974 166.388 131.242 166.315 131.266H166.327ZM173.361 120.709C172.837 122.66 171.13 127.987 170.362 130.986C169.582 133.96 168.363 133.534 167.558 133.534C166.753 133.534 166.644 132.888 166.949 132.01C167.229 131.218 167.717 131.669 168.168 131.498C168.643 131.327 168.68 131.218 168.741 130.462C168.789 129.791 169.143 124.013 168.814 120.99C168.777 120.697 171.191 122.306 171.167 122.063C171.045 120.795 169.289 119.637 169.192 119.539C167.339 117.625 157.148 110.628 153.941 104.63C153.576 103.948 147.944 95.3044 147.456 94.3657C146.005 91.6352 146.7 89.6238 147.602 88.3801C145.432 89.9407 144.408 91.9398 145.384 93.9512C146.993 97.2549 149.443 101.509 150.15 102.18C149.26 101.717 147.724 99.498 141.909 100.815C139.301 101.4 138.399 102.997 134.876 102.924C133.535 102.899 131.755 98.5958 130.999 96.6454C130.999 99.0103 132.73 102.765 133.157 103.423C131.084 103.692 128.585 97.7183 127.756 93.61C127.549 96.1457 129.244 102.29 130.56 103.484C127.659 103.228 126.232 98.8641 125.72 95.7678C125.306 94.1706 124.099 93.9512 122.721 93.5124C121.649 93.2321 120.796 92.8663 120.796 92.9152C120.796 93.098 120.893 93.3663 120.917 93.5977C122.356 100.01 114.968 112.396 115.115 112.737C115.164 112.859 117.382 109.909 117.455 110.031C118.077 111.116 116.687 114.736 115.395 118.942C114.079 123.196 114.81 126.268 114.359 127.183C114.127 127.097 113.298 126.902 113.176 127.231C112.664 129.182 111.836 132.936 111.653 133.168C111.519 133.327 111.336 133.448 111.104 133.375C111.177 132.876 110.141 133.132 109.507 133.29C109.397 133.327 110.165 131.376 110.068 131.376C109.458 131.376 108.727 133.802 107.837 133.826C107.069 133.9 106.35 134.009 106.313 133.985C106.313 133.912 107.788 131.23 107.898 131.035C108.593 129.816 109.166 131.291 109.788 128.353C110.3 125.89 111.189 114.285 110.97 109.141C110.945 108.629 112.469 113.066 112.481 112.213C112.53 110.165 111.177 107.544 110.495 106.13C109.361 103.74 109.044 102.143 109.69 97.133C110.421 91.5497 114.079 88.9044 116.492 87.8318C117.126 87.661 119.759 87.2589 120.454 91.9278C120.771 90.1601 120.43 88.0755 119.357 87.2223C120.076 87.2223 121.234 87.2466 122.502 87.2709C124.599 87.3075 126.964 87.3562 128.097 87.4173C128.268 87.3928 128.463 87.3807 128.585 87.3928C130.097 87.3318 132.937 87.466 135.619 87.466C138.984 87.466 144.043 86.8808 144.652 86.8442C145.493 86.8442 148.321 86.7955 149.504 86.9053C150.467 86.8808 153.442 87.0149 158.428 89.0995C167.058 92.5494 165.522 108.848 165.522 108.848C165.522 108.848 164.498 98.1693 162.072 94.0977C160.744 91.8423 157.062 88.9533 156.745 89.4653C162.438 93.4758 163.279 100.815 163.596 101.839C164.084 103.423 165.205 110.396 165.205 110.396C165.205 110.396 169.143 115.004 169.996 116.077C170.642 116.857 172.264 118.515 172.898 119.454C173.117 119.759 173.495 120.283 173.373 120.746L173.361 120.709Z" fill="#1D1C1A"/>
<path d="M145.957 111.238C145.957 111.165 145.798 110.836 145.591 110.848C145.384 110.86 145.054 111.202 145.128 111.226C145.201 111.226 145.213 111.08 145.408 111.067C145.627 111.067 145.713 111.262 145.81 111.287C145.908 111.287 145.957 111.311 145.957 111.238Z" fill="#1D1C1A"/>
<path d="M147.042 110.385C147.225 110.421 147.42 110.592 147.42 110.592C147.42 110.592 147.359 110.372 147.139 110.287C146.834 110.177 146.773 110.385 146.773 110.385C146.773 110.385 146.847 110.348 147.029 110.385H147.042Z" fill="#1D1C1A"/>
<path d="M88.4053 148.979C88.4053 145.224 88.4053 144.529 88.3567 143.737C88.3078 142.896 88.1127 142.506 87.2961 142.323C87.101 142.274 86.6743 142.25 86.333 142.25C86.0647 142.25 85.9062 142.201 85.9062 142.03C85.9062 141.86 86.077 141.811 86.4549 141.811C87.7715 141.811 89.3198 141.884 89.8438 141.884C90.685 141.884 92.5623 141.811 93.3303 141.811C94.8908 141.811 96.5487 141.957 97.8773 142.871C98.5721 143.347 99.5598 144.603 99.5598 146.26C99.5598 148.089 98.7918 149.771 96.2927 151.795C98.4869 154.562 100.194 156.769 101.656 158.292C103.046 159.731 104.058 159.902 104.424 159.975C104.692 160.023 104.911 160.048 105.119 160.048C105.326 160.048 105.411 160.121 105.411 160.243C105.411 160.438 105.24 160.487 104.948 160.487H102.595C101.218 160.487 100.596 160.365 99.9496 160.011C98.8893 159.438 97.9505 158.28 96.5607 156.379C95.5733 155.025 94.4398 153.343 94.1105 152.965C93.9887 152.819 93.8423 152.795 93.6595 152.795L91.5139 152.746C91.3921 152.746 91.3189 152.795 91.3189 152.941V153.282C91.3189 155.586 91.3189 157.537 91.4407 158.573C91.5139 159.292 91.6601 159.828 92.4038 159.938C92.7696 159.987 93.3182 160.036 93.6108 160.036C93.8056 160.036 93.9032 160.109 93.9032 160.231C93.9032 160.401 93.7327 160.475 93.4158 160.475C91.9773 160.475 90.1487 160.401 89.7829 160.401C89.3075 160.401 87.7592 160.475 86.7718 160.475C86.4549 160.475 86.2841 160.401 86.2841 160.231C86.2841 160.109 86.3816 160.036 86.6865 160.036C87.0521 160.036 87.357 159.987 87.5764 159.938C88.0641 159.841 88.1982 159.292 88.2958 158.573C88.4176 157.537 88.4176 155.586 88.4176 153.307V148.955L88.4053 148.979ZM91.3189 150.929C91.3189 151.198 91.3678 151.295 91.5383 151.368C92.0625 151.539 92.7939 151.612 93.4158 151.612C94.4032 151.612 94.7201 151.515 95.1712 151.198C95.9148 150.649 96.6339 149.515 96.6339 147.492C96.6339 143.981 94.3056 142.969 92.8549 142.969C92.2333 142.969 91.7943 142.993 91.5505 143.067C91.3798 143.115 91.3312 143.213 91.3312 143.408V150.917L91.3189 150.929ZM104.363 151.149C104.363 146.919 107.154 141.457 114.566 141.457C120.722 141.457 124.55 145.041 124.55 150.698C124.55 156.354 120.6 160.828 114.322 160.828C107.227 160.828 104.363 155.513 104.363 151.137V151.149ZM121.1 151.612C121.1 146.078 117.906 142.64 113.859 142.64C111.019 142.64 107.776 144.225 107.776 150.381C107.776 155.525 110.616 159.597 115.359 159.597C117.09 159.597 121.088 158.756 121.088 151.612H121.1ZM128.415 142.091C128.488 141.677 128.634 141.445 128.829 141.445C129.024 141.445 129.17 141.567 129.499 142.213L136.253 155.952L142.97 142.043C143.165 141.652 143.287 141.445 143.519 141.445C143.75 141.445 143.884 141.689 143.97 142.213L146.213 157.342C146.432 158.902 146.688 159.609 147.419 159.841C148.139 160.06 148.639 160.084 148.955 160.084C149.175 160.084 149.358 160.109 149.358 160.255C149.358 160.45 149.065 160.523 148.712 160.523C148.09 160.523 144.689 160.475 143.701 160.401C143.128 160.353 142.982 160.279 142.982 160.133C142.982 160.011 143.08 159.938 143.25 159.865C143.397 159.816 143.47 159.499 143.372 158.804L141.885 148.052H141.787L136.399 159.073C135.826 160.231 135.704 160.462 135.485 160.462C135.266 160.462 135.01 159.963 134.619 159.231C134.022 158.097 132.072 154.318 131.779 153.623C131.56 153.099 130.072 150.186 129.207 148.333H129.109L127.829 157.975C127.781 158.414 127.756 158.743 127.756 159.134C127.756 159.597 128.073 159.828 128.5 159.926C128.951 160.023 129.292 160.048 129.536 160.048C129.731 160.048 129.902 160.097 129.902 160.219C129.902 160.438 129.682 160.487 129.304 160.487C128.268 160.487 127.159 160.414 126.708 160.414C126.232 160.414 125.05 160.487 124.258 160.487C124.014 160.487 123.819 160.438 123.819 160.219C123.819 160.097 123.965 160.048 124.209 160.048C124.404 160.048 124.575 160.048 124.952 159.975C125.647 159.828 125.842 158.865 125.964 158.024L128.415 142.103V142.091ZM155.502 154.172C155.38 154.172 155.331 154.221 155.282 154.367L153.941 157.756C153.698 158.378 153.563 158.963 153.563 159.268C153.563 159.707 153.783 160.036 154.551 160.036H154.917C155.209 160.036 155.282 160.084 155.282 160.231C155.282 160.426 155.136 160.475 154.868 160.475C154.075 160.475 153.015 160.401 152.247 160.401C151.979 160.401 150.613 160.475 149.333 160.475C149.016 160.475 148.87 160.426 148.87 160.231C148.87 160.084 148.968 160.036 149.163 160.036C149.382 160.036 149.736 160.011 149.931 159.987C151.064 159.841 151.54 158.999 152.027 157.768L158.232 142.445C158.525 141.726 158.671 141.457 158.927 141.457C159.147 141.457 159.293 141.677 159.537 142.25C160.134 143.615 164.084 153.489 165.669 157.244C166.607 159.463 167.327 159.816 167.839 159.938C168.204 160.011 168.582 160.036 168.875 160.036C169.07 160.036 169.204 160.06 169.204 160.231C169.204 160.426 168.984 160.475 168.07 160.475C167.156 160.475 165.376 160.475 163.401 160.426C162.95 160.401 162.658 160.401 162.658 160.231C162.658 160.084 162.755 160.036 163.011 160.011C163.182 159.963 163.352 159.743 163.231 159.438L161.256 154.343C161.207 154.221 161.134 154.172 161.012 154.172H155.502ZM160.549 152.941C160.671 152.941 160.695 152.868 160.671 152.795L158.452 146.711C158.427 146.614 158.403 146.492 158.33 146.492C158.257 146.492 158.208 146.614 158.184 146.711L155.904 152.77C155.88 152.868 155.904 152.941 156.002 152.941H160.549Z" fill="#1D1C1A"/>
<path d="M89.0518 148.43C89.0518 144.675 89.0518 143.981 89.0029 143.188C88.9543 142.347 88.7592 141.957 87.9423 141.774C87.7472 141.725 87.3207 141.701 86.9792 141.701C86.7112 141.701 86.5527 141.652 86.5527 141.482C86.5527 141.311 86.7232 141.262 87.1013 141.262C88.4057 141.262 89.966 141.335 90.4903 141.335C91.3312 141.335 93.2087 141.262 93.9767 141.262C95.537 141.262 97.1949 141.408 98.5238 142.323C99.2186 142.786 100.206 144.054 100.206 145.712C100.206 147.54 99.438 149.223 96.9512 151.246C99.1454 154.013 100.852 156.22 102.315 157.744C103.705 159.182 104.716 159.353 105.082 159.426C105.35 159.475 105.582 159.499 105.777 159.499C105.972 159.499 106.07 159.572 106.07 159.694C106.07 159.889 105.899 159.938 105.606 159.938H103.254C101.876 159.938 101.254 159.816 100.608 159.475C99.5478 158.902 98.6091 157.744 97.2192 155.842C96.2318 154.489 95.0983 152.807 94.7691 152.429C94.6472 152.282 94.5008 152.258 94.318 152.258L92.1724 152.209C92.0506 152.209 91.9774 152.258 91.9774 152.404V152.746C91.9774 155.037 91.9774 157 92.0992 158.036C92.1724 158.755 92.3186 159.292 93.0623 159.402C93.4281 159.45 93.9767 159.499 94.2693 159.499C94.4642 159.499 94.5617 159.572 94.5617 159.694C94.5617 159.865 94.3912 159.938 94.0743 159.938C92.6358 159.938 90.8072 159.865 90.4414 159.865C89.9783 159.865 88.4177 159.938 87.4303 159.938C87.1134 159.938 86.9306 159.865 86.9306 159.694C86.9306 159.572 87.0281 159.499 87.3328 159.499C87.6986 159.499 88.0032 159.45 88.2229 159.402C88.7226 159.304 88.8444 158.755 88.942 158.036C89.0638 157 89.0638 155.05 89.0638 152.77V148.418L89.0518 148.43ZM91.9653 150.381C91.9653 150.649 92.014 150.746 92.1847 150.819C92.7088 150.99 93.4402 151.063 94.062 151.063C95.0494 151.063 95.3663 150.966 95.8174 150.649C96.5611 150.1 97.2802 148.967 97.2802 146.943C97.2802 143.432 94.9518 142.42 93.5013 142.42C92.8795 142.42 92.4407 142.445 92.1968 142.518C92.0263 142.567 91.9774 142.664 91.9774 142.871V150.381H91.9653ZM105.009 150.6C105.009 146.37 107.801 140.909 115.212 140.909C121.369 140.909 125.196 144.493 125.196 150.149C125.196 155.805 121.247 160.279 114.969 160.279C107.874 160.279 105.009 154.964 105.009 150.588V150.6ZM121.734 151.075C121.734 145.541 118.54 142.103 114.493 142.103C111.653 142.103 108.41 143.688 108.41 149.832C108.41 154.976 111.251 159.048 115.993 159.048C117.724 159.048 121.722 158.207 121.722 151.063L121.734 151.075ZM129.049 141.555C129.122 141.14 129.268 140.909 129.475 140.909C129.683 140.909 129.817 141.031 130.146 141.677L136.887 155.415L143.604 141.506C143.799 141.116 143.921 140.909 144.153 140.909C144.384 140.909 144.518 141.152 144.604 141.677L146.847 156.805C147.066 158.365 147.322 159.085 148.054 159.304C148.773 159.523 149.26 159.548 149.59 159.548C149.809 159.548 149.992 159.572 149.992 159.719C149.992 159.914 149.699 159.987 149.346 159.987C148.724 159.987 145.311 159.938 144.336 159.865C143.763 159.816 143.616 159.743 143.616 159.597C143.616 159.475 143.714 159.402 143.884 159.328C144.031 159.28 144.104 158.951 144.006 158.268L142.519 147.516H142.422L137.033 158.536C136.46 159.694 136.339 159.926 136.119 159.926C135.9 159.926 135.644 159.426 135.254 158.695C134.656 157.561 132.706 153.782 132.413 153.087C132.194 152.563 130.707 149.649 129.841 147.796H129.744L128.451 157.439C128.403 157.878 128.378 158.207 128.378 158.597C128.378 159.072 128.695 159.292 129.122 159.389C129.561 159.487 129.914 159.511 130.158 159.511C130.353 159.511 130.524 159.56 130.524 159.682C130.524 159.901 130.304 159.95 129.926 159.95C128.89 159.95 127.769 159.877 127.33 159.877C126.854 159.877 125.672 159.95 124.88 159.95C124.636 159.95 124.441 159.901 124.441 159.682C124.441 159.56 124.587 159.511 124.831 159.511C125.026 159.511 125.196 159.511 125.574 159.438C126.269 159.292 126.464 158.329 126.586 157.488L129.036 141.579L129.049 141.555ZM156.136 153.635C156.014 153.635 155.965 153.684 155.916 153.831L154.588 157.219C154.344 157.841 154.222 158.426 154.222 158.731C154.222 159.17 154.441 159.499 155.209 159.499H155.575C155.868 159.499 155.941 159.548 155.941 159.694C155.941 159.889 155.795 159.938 155.526 159.938C154.734 159.938 153.673 159.865 152.905 159.865C152.637 159.865 151.272 159.938 149.992 159.938C149.675 159.938 149.516 159.889 149.516 159.694C149.516 159.548 149.614 159.499 149.809 159.499C150.028 159.499 150.382 159.475 150.577 159.45C151.711 159.304 152.186 158.463 152.674 157.232L158.879 141.908C159.171 141.189 159.33 140.921 159.574 140.921C159.793 140.921 159.939 141.14 160.195 141.713C160.793 143.079 164.742 152.953 166.327 156.707C167.266 158.938 167.985 159.28 168.497 159.402C168.863 159.475 169.241 159.499 169.533 159.499C169.728 159.499 169.85 159.523 169.85 159.694C169.85 159.889 169.631 159.938 168.716 159.938C167.802 159.938 166.022 159.938 164.048 159.889C163.596 159.865 163.304 159.865 163.304 159.694C163.304 159.548 163.401 159.499 163.645 159.475C163.816 159.426 163.987 159.207 163.865 158.902L161.89 153.806C161.841 153.684 161.768 153.635 161.646 153.635H156.136ZM161.171 152.404C161.292 152.404 161.317 152.331 161.292 152.258L159.074 146.175C159.049 146.077 159.025 145.955 158.952 145.955C158.879 145.955 158.83 146.077 158.806 146.175L156.526 152.234C156.502 152.331 156.526 152.404 156.624 152.404H161.171Z" fill="#F6B817"/>
<path d="M122.636 171.703C124.818 171.703 126.025 173.324 126.025 175.396C126.025 179.2 122.733 181.577 121.075 182.369C121.015 182.406 120.941 182.43 120.832 182.43C120.783 182.43 120.71 182.357 120.71 182.296C120.71 182.199 120.807 182.125 120.868 182.064C122.27 181.211 124.355 178.992 124.355 175.786C124.355 173.385 123.355 172.324 122.319 172.324C121.356 172.324 120.71 173.19 120.71 174.348C120.71 176.42 122.039 176.908 122.49 176.908C122.941 176.908 123.233 176.823 123.404 176.749C123.55 176.664 123.623 176.603 123.672 176.603C123.721 176.603 123.782 176.664 123.782 176.725C123.782 176.762 123.745 176.847 123.709 176.871C123.319 177.298 122.624 177.493 121.941 177.493C120.015 177.493 119.198 176.018 119.198 174.872C119.198 173.044 120.564 171.715 122.636 171.715V171.703ZM111.969 174.153C111.969 174.238 112.03 174.299 112.079 174.299C112.128 174.299 112.201 174.275 112.262 174.25C112.554 174.128 113.566 173.604 113.822 173.604C114.017 173.604 114.017 173.763 114.017 174.092V178.029C114.042 179.334 114.017 180.48 113.968 181.077C113.932 181.516 113.859 181.699 113.432 181.796C113.188 181.857 112.506 181.894 112.359 181.894C112.311 181.894 112.25 181.93 112.25 182.028C112.25 182.125 112.335 182.15 112.481 182.15C113.335 182.15 114.468 182.113 114.773 182.113C115.139 182.113 115.992 182.15 117.016 182.15C117.162 182.15 117.223 182.125 117.223 182.028C117.223 181.93 117.15 181.894 117.101 181.894C116.992 181.894 116.419 181.857 116.212 181.808C115.785 181.711 115.712 181.516 115.675 181.077C115.626 180.48 115.626 179.334 115.626 178.029V175.518C115.626 173.446 115.712 172.105 115.712 171.995C115.712 171.861 115.675 171.715 115.553 171.715C115.443 171.715 115.322 171.812 115.2 171.898C114.724 172.251 112.152 173.958 112.091 173.982C112.018 174.019 111.957 174.092 111.957 174.177L111.969 174.153ZM127.22 181.906C127.22 182.016 127.317 182.101 127.402 182.101H132.669C133.522 182.101 133.729 182.064 133.839 181.699C133.973 181.236 134.229 179.98 134.229 179.761C134.229 179.626 134.229 179.504 134.119 179.504C134.034 179.504 133.997 179.553 133.961 179.724C133.802 180.358 133.351 180.821 132.425 180.931C131.925 181.004 130.34 181.016 130.121 181.016H129.207C129.133 181.016 129.109 180.967 129.182 180.919C130.913 179.517 133.802 177.225 133.802 174.604C133.802 173.019 132.791 171.715 130.438 171.715C129.255 171.715 128.536 171.959 128.012 172.227C127.866 172.324 127.853 172.373 127.853 172.495C127.853 172.885 127.914 174.019 127.939 174.141C127.951 174.299 127.987 174.397 128.061 174.397C128.195 174.397 128.231 174.275 128.231 174.141C128.231 173.787 128.475 173.153 128.792 172.836C129.194 172.458 129.645 172.349 130.218 172.349C130.889 172.349 132.059 172.788 132.059 174.921C132.059 177.786 129.389 179.895 127.512 181.565C127.378 181.687 127.244 181.808 127.244 181.918L127.22 181.906ZM135.692 174.202C135.692 174.336 135.692 174.409 135.802 174.409C135.887 174.409 135.924 174.336 135.936 174.238C135.96 174.019 136.131 173.58 136.375 173.421C136.691 173.202 137.264 173.178 137.63 173.178H141.104C139.251 176.311 137.533 180.309 137.155 181.613C137.082 181.833 137.057 182.04 137.057 182.174C137.057 182.296 137.094 182.333 137.24 182.333C137.85 182.333 138.935 181.772 138.935 181.504C138.935 181.321 138.91 181.236 138.935 181.004C139.13 179.273 141.226 173.885 142.348 172.288C142.384 172.239 142.445 172.129 142.445 172.044C142.445 171.971 142.372 171.934 142.116 171.934H137.825C136.399 171.934 136.094 171.8 136.009 171.8C135.924 171.8 135.875 171.861 135.875 171.995C135.875 172.129 135.667 173.714 135.667 174.214L135.692 174.202Z" fill="#1D1C1A"/>
<path d="M123.063 171.312C125.245 171.312 126.452 172.946 126.452 175.006C126.452 178.81 123.161 181.187 121.503 181.979C121.442 182.016 121.369 182.04 121.259 182.04C121.21 182.04 121.137 181.967 121.137 181.906C121.137 181.808 121.235 181.736 121.296 181.675C122.697 180.821 124.782 178.603 124.782 175.396C124.782 172.995 123.782 171.934 122.746 171.934C121.783 171.934 121.137 172.8 121.137 173.958C121.137 176.03 122.466 176.518 122.917 176.518C123.368 176.518 123.66 176.433 123.831 176.36C123.977 176.274 124.051 176.213 124.099 176.213C124.148 176.213 124.209 176.274 124.209 176.335C124.209 176.372 124.172 176.457 124.136 176.481C123.746 176.908 123.051 177.103 122.368 177.103C120.442 177.103 119.625 175.628 119.625 174.482C119.625 172.654 120.991 171.325 123.063 171.325V171.312ZM112.396 173.763C112.396 173.848 112.457 173.909 112.506 173.909C112.555 173.909 112.628 173.885 112.689 173.86C112.982 173.739 113.993 173.214 114.249 173.214C114.457 173.214 114.457 173.373 114.457 173.702V177.64C114.481 178.944 114.457 180.09 114.408 180.687C114.371 181.126 114.298 181.309 113.872 181.406C113.628 181.467 112.945 181.504 112.799 181.504C112.75 181.504 112.689 181.54 112.689 181.638C112.689 181.736 112.774 181.76 112.921 181.76C113.774 181.76 114.908 181.723 115.212 181.723C115.578 181.723 116.432 181.76 117.456 181.76C117.602 181.76 117.663 181.736 117.663 181.638C117.663 181.54 117.59 181.504 117.541 181.504C117.431 181.504 116.858 181.467 116.651 181.419C116.224 181.321 116.151 181.126 116.115 180.687C116.066 180.09 116.066 178.944 116.066 177.64V175.128C116.066 173.056 116.151 171.715 116.151 171.605C116.151 171.471 116.115 171.325 115.993 171.325C115.883 171.325 115.761 171.422 115.639 171.508C115.164 171.861 112.592 173.568 112.531 173.592C112.457 173.629 112.396 173.702 112.396 173.787V173.763ZM127.647 181.516C127.647 181.626 127.744 181.711 127.83 181.711H133.096C133.949 181.711 134.156 181.675 134.266 181.309C134.4 180.846 134.656 179.59 134.656 179.371C134.656 179.236 134.656 179.115 134.547 179.115C134.461 179.115 134.425 179.163 134.388 179.334C134.23 179.968 133.779 180.431 132.852 180.541C132.352 180.614 130.768 180.626 130.548 180.626H129.634C129.561 180.626 129.536 180.577 129.609 180.528C131.34 179.127 134.23 176.835 134.23 174.214C134.23 172.629 133.218 171.325 130.865 171.325C129.683 171.325 128.963 171.569 128.439 171.837C128.293 171.934 128.281 171.983 128.281 172.105C128.281 172.495 128.342 173.629 128.366 173.739C128.366 173.897 128.415 173.995 128.488 173.995C128.622 173.995 128.659 173.873 128.659 173.739C128.659 173.385 128.902 172.751 129.219 172.434C129.622 172.056 130.073 171.947 130.646 171.947C131.316 171.947 132.486 172.385 132.486 174.519C132.486 177.384 129.817 179.492 127.939 181.163C127.805 181.284 127.671 181.406 127.671 181.516H127.647ZM136.119 173.812C136.119 173.946 136.119 174.019 136.229 174.019C136.314 174.019 136.351 173.946 136.363 173.848C136.387 173.629 136.558 173.19 136.802 173.032C137.119 172.812 137.692 172.788 138.057 172.788H141.532C139.679 175.921 137.96 179.919 137.582 181.224C137.509 181.443 137.484 181.65 137.484 181.784C137.484 181.906 137.521 181.943 137.667 181.943C138.277 181.943 139.362 181.382 139.362 181.114C139.362 180.931 139.337 180.846 139.362 180.614C139.557 178.883 141.654 173.495 142.775 171.898C142.812 171.849 142.873 171.739 142.873 171.654C142.873 171.581 142.8 171.544 142.544 171.544H138.252C136.826 171.544 136.521 171.41 136.436 171.41C136.351 171.41 136.302 171.471 136.302 171.605C136.302 171.739 136.095 173.324 136.095 173.824L136.119 173.812Z" fill="#C6C1BF"/>
<path d="M78.6163 29.0264L79.6526 30.9036L73.984 34.0365L74.8738 35.658L79.9086 32.8784L80.9326 34.7436L75.8978 37.523L77.1412 39.7661L74.9347 40.9852L70.7412 33.3904L78.6163 29.0384V29.0264Z" fill="#1D1C1A"/>
<path d="M92.9279 32.3165L91.5504 31.1097L86.6009 33.1211L86.4547 34.9497L83.9434 35.9738L84.8212 26.258L88.0394 24.9536L95.439 31.3048L92.94 32.3165H92.9279ZM86.7717 31.0122L89.9412 29.7202L87.0763 27.2211L86.7717 31.0122Z" fill="#1D1C1A"/>
<path d="M105.85 26.0515L104.35 20.0172L106.776 19.4199L108.861 27.8435L105.289 28.7334L98.828 23.9304L100.327 29.9647L97.8893 30.5743L95.8047 22.1506L99.3887 21.2607L105.85 26.0638V26.0515Z" fill="#1D1C1A"/>
<path d="M118.064 17.8232L128.512 17.3965L128.597 19.5298L124.635 19.6883L124.903 26.2223L122.392 26.3199L122.124 19.7858L118.15 19.9443L118.064 17.8109V17.8232Z" fill="#1D1C1A"/>
<path d="M131.559 21.7476C131.802 18.8829 133.924 17.3591 137.569 17.676C141.201 17.993 143.042 19.8581 142.798 22.7107C142.554 25.5754 140.421 27.1237 136.788 26.8068C133.143 26.4896 131.315 24.6246 131.559 21.7476ZM140.177 22.4913C140.311 20.9918 139.531 19.9922 137.386 19.8093C135.252 19.6265 134.314 20.4554 134.192 21.9793C134.058 23.5031 134.85 24.5027 136.971 24.6855C139.105 24.8684 140.055 24.0151 140.189 22.5034L140.177 22.4913Z" fill="#1D1C1A"/>
<path d="M157.757 21.4191L152.661 24.0157L155.855 29.8914L152.771 29.1966L150.553 25.1006L148.127 26.332L147.737 28.0508L145.286 27.4899L147.2 19.0176L149.663 19.5662L148.809 23.3696L154.1 20.5779L157.781 21.4069L157.757 21.4191Z" fill="#1D1C1A"/>
<path d="M169.801 25.5881L169.131 27.441L163.036 25.2346L162.56 26.5389L168.424 28.6601L167.753 30.513L161.89 28.3918L161.414 29.6964L167.51 31.8906L166.839 33.7435L158.379 30.6838L161.329 22.5161L169.789 25.5759L169.801 25.5881Z" fill="#1D1C1A"/>
<path d="M178.591 36.7428L181.444 31.2083L183.675 32.3542L179.689 40.0708L176.409 38.3763L174.715 30.489L171.862 36.0234L169.619 34.8655L173.606 27.1489L176.897 28.8434L178.591 36.7305V36.7428Z" fill="#1D1C1A"/>
<path d="M70.1316 218.819C69.7537 219.441 70.1316 220.221 72.082 221.404C73.874 222.477 74.4836 222.464 74.7639 222.001C75.0931 221.465 74.8128 221.16 72.6916 219.685C69.8026 217.661 68.8395 216.259 69.8269 214.614C70.7654 213.065 72.8623 213.37 75.4346 214.918C78.2993 216.637 79.4208 218.502 78.4943 220.197L76.239 218.844C76.6291 218.185 76.0685 217.503 74.3983 216.503C72.8134 215.552 72.3014 215.601 72.0577 216.003C71.7774 216.467 72.0577 216.82 73.9716 218.198C76.5805 220.051 78.2383 221.306 77.0679 223.257C75.922 225.158 73.8254 224.659 71.1799 223.062C68.1691 221.245 66.7915 219.49 67.8642 217.466L70.1196 218.832L70.1316 218.819Z" fill="#1D1C1A"/>
<path d="M80.7005 223.209C81.8463 220.563 84.3331 219.808 87.6977 221.258C91.05 222.709 92.1959 225.062 91.0623 227.695C89.9165 230.34 87.4051 231.12 84.0528 229.67C80.6882 228.219 79.5544 225.866 80.7005 223.209ZM88.6485 226.659C89.2457 225.269 88.8193 224.087 86.8445 223.221C84.8817 222.368 83.7236 222.867 83.1263 224.257C82.5168 225.659 82.9556 226.854 84.906 227.707C86.8688 228.56 88.0513 228.048 88.6485 226.647V226.659Z" fill="#1D1C1A"/>
<path d="M100.595 225.829C103.667 226.695 105.045 228.499 104.691 230.718L102.119 229.998C102.168 229.182 101.57 228.316 100.022 227.89C98.2301 227.39 97.1206 228.024 96.7061 229.486C96.2917 230.962 96.9255 232.095 98.7055 232.595C100.254 233.022 101.217 232.595 101.594 231.851L104.167 232.571C103.313 234.667 101.205 235.509 98.1203 234.655C94.768 233.717 93.3661 231.644 94.1584 228.779C94.963 225.927 97.2304 224.891 100.583 225.829H100.595Z" fill="#1D1C1A"/>
<path d="M111.091 228.426L109.555 236.959L107.08 236.508L108.616 227.975L111.091 228.426Z" fill="#1D1C1A"/>
<path d="M113.712 233.339C113.944 230.474 116.053 228.951 119.698 229.243C123.331 229.536 125.184 231.401 124.94 234.253C124.708 237.118 122.587 238.666 118.942 238.374C115.297 238.081 113.456 236.216 113.7 233.339H113.712ZM122.331 234.046C122.453 232.547 121.673 231.559 119.527 231.376C117.394 231.206 116.467 232.047 116.333 233.559C116.211 235.082 117.004 236.07 119.125 236.253C121.258 236.423 122.209 235.57 122.331 234.046Z" fill="#1D1C1A"/>
<path d="M130.864 235.643C130.901 236.374 131.644 236.813 133.924 236.691C136.009 236.581 136.508 236.228 136.472 235.679C136.435 235.045 136.045 234.96 133.461 234.923C129.938 234.863 128.341 234.241 128.243 232.315C128.146 230.511 130.06 229.584 133.058 229.438C136.399 229.267 138.374 230.169 138.544 232.095L135.923 232.229C135.887 231.461 135.033 231.218 133.083 231.315C131.242 231.413 130.84 231.742 130.864 232.205C130.889 232.741 131.315 232.888 133.68 232.961C136.874 233.034 138.959 233.144 139.081 235.423C139.19 237.642 137.179 238.398 134.095 238.556C130.584 238.739 128.45 238.044 128.219 235.765L130.852 235.631L130.864 235.643Z" fill="#1D1C1A"/>
<path d="M142.701 235.631L145.102 235.278L145.37 237.143L142.969 237.496L142.688 235.631H142.701Z" fill="#1D1C1A"/>
<path d="M152.271 226.659C155.38 225.903 157.464 226.805 158.244 228.914L155.648 229.548C155.294 228.805 154.343 228.354 152.783 228.731C150.979 229.17 150.32 230.267 150.674 231.755C151.04 233.242 152.149 233.925 153.941 233.486C155.501 233.108 156.135 232.255 156.099 231.413L158.695 230.779C158.976 233.023 157.549 234.802 154.441 235.558C151.052 236.387 148.809 235.266 148.102 232.376C147.395 229.499 148.87 227.488 152.259 226.659H152.271Z" fill="#1D1C1A"/>
<path d="M161.669 228.853C160.609 226.171 161.84 223.879 165.241 222.526C168.63 221.185 171.117 222.038 172.165 224.708C173.226 227.39 171.995 229.718 168.606 231.059C165.205 232.4 162.73 231.547 161.669 228.853ZM169.727 225.671C169.179 224.269 168.033 223.72 166.034 224.513C164.047 225.293 163.571 226.463 164.132 227.877C164.693 229.304 165.851 229.84 167.826 229.06C169.813 228.28 170.288 227.085 169.727 225.671Z" fill="#1D1C1A"/>
<path d="M177.493 227.061L173.129 219.552L176.518 217.577L182.028 221.039L181.735 214.541L185.124 212.566L189.489 220.076L187.319 221.331L184.161 215.894L184.503 222.977L182.491 224.147L176.506 220.356L179.675 225.793L177.493 227.061Z" fill="#1D1C1A"/>
<path d="M58.9283 209.506C35.8273 189.903 21.1621 160.658 21.1621 128C21.1621 95.3418 36.6074 64.5486 60.7689 44.9585" stroke="#971A2E" stroke-miterlimit="10"/>
<path d="M195.242 44.9712C219.404 64.5613 234.837 94.4767 234.837 128C234.837 161.524 220.172 189.916 197.071 209.518" stroke="#971A2E" stroke-miterlimit="10"/>
</g>
</g>
<defs>
<clipPath id="clip0_2234_952">
<rect width="256" height="256" fill="white"/>
</clipPath>
</defs>
</svg>
