<svg width="256" height="256" viewBox="0 0 256 256" fill="none" xmlns="http://www.w3.org/2000/svg">
<g clip-path="url(#clip0_741_46)">
<path d="M128 256C198.692 256 256 198.692 256 128C256 57.3076 198.692 0 128 0C57.3076 0 0 57.3076 0 128C0 198.692 57.3076 256 128 256Z" fill="#EA6B24"/>
<path style="mix-blend-mode:overlay" d="M128 256C198.692 256 256 198.692 256 128C256 57.3076 198.692 0 128 0C57.3076 0 0 57.3076 0 128C0 198.692 57.3076 256 128 256Z" fill="url(#paint0_linear_741_46)" fill-opacity="0.1"/>
<path d="M165 219H141.129L128.017 59.8587L114.905 219H91L112.644 32H143.381L165 219Z" fill="#E6E6E6"/>
</g>
<defs>
<linearGradient id="paint0_linear_741_46" x1="256.156" y1="-7.63871e-06" x2="7.63871e-06" y2="256.156" gradientUnits="userSpaceOnUse">
<stop stop-color="white"/>
<stop offset="1" stop-opacity="0"/>
</linearGradient>
<clipPath id="clip0_741_46">
<rect width="256" height="256" fill="white"/>
</clipPath>
</defs>
</svg>
