<svg width="256" height="256" viewBox="0 0 256 256" fill="none" xmlns="http://www.w3.org/2000/svg">
<g clip-path="url(#clip0_2310_1336)">
<path d="M128 249.143C194.906 249.143 249.143 194.905 249.143 128C249.143 61.0947 194.906 6.85718 128 6.85718C61.0949 6.85718 6.85742 61.0947 6.85742 128C6.85742 194.905 61.0949 249.143 128 249.143Z" fill="#13101D"/>
<path d="M149.12 150.4L143.36 140.8C138.24 128.64 147.2 115.84 159.36 113.92C172.8 112.64 176.64 118.4 183.04 128C187.52 135.68 197.76 152.32 197.76 159.36C197.76 161.92 197.12 164.48 196.48 167.04V167.68V168.32C194.56 172.8 190.72 176 186.88 177.92C176.64 182.4 165.12 177.92 160 168.32V167.68L151.04 152.32L149.12 150.4ZM116.48 48C110.08 51.2 104.32 56.32 101.12 63.36L78.7196 102.4C71.0396 115.84 50.5596 145.28 50.5596 160C50.5596 167.68 53.1196 175.36 58.8796 181.12C64.6396 187.52 72.9596 191.36 81.9196 191.36C104.96 191.36 119.04 160.64 131.84 143.36L149.12 173.44C156.16 188.8 174.72 195.84 190.08 188.8C193.28 187.52 195.84 185.6 198.4 183.04C204.8 177.28 208 168.96 208 160.64C208 149.76 197.76 132.48 192 122.88C188.16 116.48 186.88 113.28 180.48 108.8C176 106.24 169.6 103.68 164.48 103.68C158.72 103.68 153.6 104.32 147.84 107.52C140.8 110.72 131.2 122.24 123.52 135.04C115.2 147.2 99.1996 179.2 85.1196 181.12H81.9196C71.0396 181.12 62.0796 172.16 62.0796 161.28C62.0796 150.4 83.1996 119.68 88.9596 109.44L111.36 69.76V69.1201C115.84 57.6001 128 53.1201 137.6 58.2401C142.08 60.1601 145.28 64.0001 147.2 67.8401V68.48L163.84 97.2801C168.96 97.2801 174.08 98.5601 178.56 101.12L156.8 63.36C152.32 51.84 140.8 44.8 129.28 44.8C124.8 44.8 120.32 46.08 116.48 48Z" fill="url(#paint0_linear_2310_1336)"/>
<path d="M10.88 128C10.88 63.36 63.36 10.88 128 10.88C192.64 10.88 245.12 63.36 245.12 128C245.12 192.64 192.64 245.12 128 245.12C63.36 245.12 10.88 192.64 10.88 128ZM0 128C0 198.4 57.6 256 128 256C198.4 256 256 198.4 256 128C256 57.6 198.4 0 128 0C57.6 0 0 57.6 0 128Z" fill="url(#paint1_linear_2310_1336)"/>
</g>
<defs>
<linearGradient id="paint0_linear_2310_1336" x1="74.557" y1="196.609" x2="184.153" y2="87.0125" gradientUnits="userSpaceOnUse">
<stop stop-color="#C766FF"/>
<stop offset="1" stop-color="#FF7F89"/>
</linearGradient>
<linearGradient id="paint1_linear_2310_1336" x1="37.5322" y1="218.468" x2="218.467" y2="37.5322" gradientUnits="userSpaceOnUse">
<stop stop-color="#C766FF"/>
<stop offset="1" stop-color="#FF7F89"/>
</linearGradient>
<clipPath id="clip0_2310_1336">
<rect width="256" height="256" fill="white"/>
</clipPath>
</defs>
</svg>
