<svg width="256" height="256" viewBox="0 0 256 256" fill="none" xmlns="http://www.w3.org/2000/svg">
<circle cx="128" cy="128" r="127" fill="white"/>
<path fill-rule="evenodd" clip-rule="evenodd" d="M74.0028 56.2015C74.0028 50.5673 78.5776 46 84.221 46H118.282C123.925 46 128.5 50.5673 128.5 56.2015C128.5 61.8356 123.925 66.4029 118.282 66.4029H84.221C78.5776 66.4029 74.0028 61.8356 74.0028 56.2015ZM182.367 66.2767C184.318 71.5634 181.607 77.4281 176.311 79.3759L87.7535 111.949C82.4581 113.897 76.5837 111.19 74.6328 105.903C72.6819 100.616 75.3931 94.7517 80.6885 92.804L169.247 60.2309C174.542 58.2832 180.416 60.99 182.367 66.2767ZM182.367 149.32C184.318 154.607 181.607 160.471 176.312 162.419L87.7535 194.992C82.4581 196.94 76.5838 194.233 74.6328 188.947C72.6819 183.66 75.3931 177.795 80.6885 175.847L169.246 143.274C174.542 141.326 180.416 144.033 182.367 149.32ZM128.5 199.022C128.5 193.388 133.075 188.82 138.718 188.82H172.779C178.422 188.82 182.997 193.388 182.997 199.022C182.997 204.656 178.422 209.223 172.779 209.223H138.718C133.075 209.223 128.5 204.656 128.5 199.022Z" fill="black"/>
<path fill-rule="evenodd" clip-rule="evenodd" d="M182.316 106.809C184.342 112.103 181.714 118.045 176.447 120.081L87.8891 154.313C82.6219 156.349 76.7097 153.708 74.6838 148.414C72.658 143.12 75.2856 137.178 80.5529 135.142L169.111 100.91C174.378 98.8744 180.29 101.515 182.316 106.809Z" fill="black"/>
</svg>
