<svg width="256" height="251" viewBox="0 0 256 251" fill="none" xmlns="http://www.w3.org/2000/svg">
<path d="M128.778 9.34634C151.687 9.5002 174.037 16.4431 193.011 29.2996C211.984 42.1561 226.731 60.3504 235.392 81.588C244.052 102.826 246.239 126.156 241.675 148.636C237.112 171.116 226.003 191.74 209.75 207.907C193.496 224.074 172.826 235.059 150.346 239.479C127.866 243.898 104.582 241.552 83.4309 232.738C62.2799 223.924 44.209 209.037 31.4968 189.952C18.7846 170.868 12.0005 148.442 12 125.502C12.104 94.5922 24.4656 64.9901 46.3655 43.207C68.2655 21.4238 97.91 9.24387 128.778 9.34634Z" fill="#18181B"/>
<path d="M128.013 0C197.143 0 253.398 56.3066 253.398 125.5C253.398 194.693 197.143 251 128.013 251C58.8816 251 2.60187 194.693 2.60187 125.5C2.60187 56.3066 58.8816 0 128.013 0ZM128.013 239.228C190.656 239.228 241.637 188.2 241.637 125.5C241.637 62.7997 190.68 11.7718 128.013 11.7718C65.3442 11.7718 14.3877 62.7997 14.3877 125.5C14.3877 188.2 65.3688 239.228 128.013 239.228Z" fill="black"/>
<path d="M128.013 0C197.143 0 253.398 56.3066 253.398 125.5C253.398 194.693 197.143 251 128.013 251C58.8816 251 2.60187 194.693 2.60187 125.5C2.60187 56.3066 58.8816 0 128.013 0ZM128.013 239.228C190.656 239.228 241.637 188.2 241.637 125.5C241.637 62.7997 190.68 11.7718 128.013 11.7718C65.3442 11.7718 14.3877 62.7997 14.3877 125.5C14.3877 188.2 65.3688 239.228 128.013 239.228Z" fill="url(#paint0_linear_1757_650)"/>
<path d="M126.315 37.3936C126.709 36.5997 127.28 35.9064 128.22 34.4688V34.493H128.244C145.492 68.0199 162.631 101.299 179.842 134.714L206.338 186.164L199.974 186.167C190.72 186.175 181.972 186.182 173.209 186.041C172.22 186.015 170.931 184.603 170.363 183.513L156.547 156.673V156.822H141.492L129.212 134.666H145.206C142.9 130.185 140.6 125.711 138.303 121.238C136.061 116.876 133.825 112.515 131.588 108.148C125.176 95.633 118.812 83.0673 112.3 70.602C111.185 68.4957 111.26 66.9343 112.348 64.852C117.102 55.757 121.66 46.5383 126.315 37.3936Z" fill="#F4F4F5"/>
<path d="M104.95 123.233C106.552 126.206 108.153 129.173 109.529 132.235V132.26H109.553C109.851 132.93 110.023 133.797 110.023 134.665H95.5141L103.462 149.013C97.4707 160.711 91.428 172.384 85.3614 184.032C84.8922 184.899 83.7773 186.04 82.9602 186.04C75.6579 186.139 68.3556 186.148 60.8381 186.145L49.7321 186.137C64.3417 157.712 78.6777 129.832 93.3841 101.232L103.189 119.943C103.769 121.044 104.359 122.139 104.95 123.233Z" fill="#F4F4F5"/>
<defs>
<linearGradient id="paint0_linear_1757_650" x1="128" y1="237.513" x2="128" y2="12.9411" gradientUnits="userSpaceOnUse">
<stop stop-color="#E656CB"/>
<stop offset="0.5" stop-color="#638ED4"/>
<stop offset="0.935" stop-color="#00EADB"/>
</linearGradient>
</defs>
</svg>
