<svg width="256" height="256" viewBox="0 0 256 256" fill="none" xmlns="http://www.w3.org/2000/svg">
<g clip-path="url(#clip0_741_46)">
<circle cx="128" cy="128" r="128" fill="#DE4242"/>
<circle cx="128" cy="128" r="121" fill="white"/>
<path fill-rule="evenodd" clip-rule="evenodd" d="M123.718 22C130.099 23.9577 135.818 27.3219 140.876 32.0926C142.519 36.9408 142.183 41.6506 139.867 46.2224C135.614 43.9277 131.24 41.9092 126.746 40.1668C122.252 41.9092 117.878 43.9277 113.626 46.2224C111.31 41.6506 110.973 36.9408 112.616 32.0926C117.038 29.4011 120.739 26.037 123.718 22Z" fill="#BE3E42"/>
<path fill-rule="evenodd" clip-rule="evenodd" d="M121.7 46.2219C125.13 45.8985 128.494 46.235 131.792 47.2311C152.32 59.852 173.178 71.9632 194.367 83.5647C196.669 95.172 197.006 106.947 195.376 118.889C174.016 106.696 152.821 94.2484 131.792 81.5462C128.428 80.2004 125.064 80.2004 121.7 81.5462C109.939 88.9556 98.5009 96.6932 87.3848 104.759C93.1923 109.525 99.5842 113.562 106.561 116.87C107.569 127.615 107.905 138.38 107.57 149.167C90.5981 142.648 74.7862 133.902 60.1347 122.926C58.4581 110.089 58.7946 97.3052 61.1439 84.5739C81.4592 71.7403 101.645 58.9562 121.7 46.2219Z" fill="#E84445"/>
<path fill-rule="evenodd" clip-rule="evenodd" d="M123.718 86.5928C129.479 87.4484 134.862 89.467 139.867 92.6484C142.558 116.871 142.558 141.093 139.867 165.315C130.152 173.634 121.069 172.961 112.616 163.297C111.271 140.42 111.271 117.543 112.616 94.6669C116.274 91.6853 119.975 88.994 123.718 86.5928Z" fill="#BC3A3F"/>
<path fill-rule="evenodd" clip-rule="evenodd" d="M145.922 108.796C163.331 115.653 179.816 124.399 195.376 135.037C196.722 147.821 196.722 160.605 195.376 173.389C172.167 186.337 149.291 199.794 126.746 213.76C104.542 200.303 82.3385 186.846 60.1347 173.389C59.1266 162.645 58.7903 151.879 59.1254 141.093C80.6359 151.453 101.494 163.228 121.7 176.417C124.391 177.763 127.083 177.763 129.774 176.417C143.302 169.665 156.086 161.927 168.126 153.204C161.225 148.912 154.161 144.875 146.931 141.093C145.923 130.348 145.587 119.583 145.922 108.796Z" fill="#E84445"/>
<path fill-rule="evenodd" clip-rule="evenodd" d="M111.607 211.742C116.809 213.506 121.856 215.524 126.746 217.797C131.284 216.326 135.658 214.307 139.867 211.742C143.926 222.791 140.561 230.53 129.774 234.955C115.661 233.871 109.605 226.134 111.607 211.742Z" fill="#BE4044"/>
</g>
<defs>
<clipPath id="clip0_741_46">
<rect width="256" height="256" fill="white"/>
</clipPath>
</defs>
</svg>
