<svg width="256" height="252" viewBox="0 0 256 252" fill="none" xmlns="http://www.w3.org/2000/svg">
<path d="M251.758 126C251.758 195.588 195.4 252 125.879 252C56.358 252 0 195.588 0 126C0 56.4121 56.358 0 125.879 0C195.4 0 251.758 56.4121 251.758 126Z" fill="#4958C5"/>
<path d="M177.173 73.7764H142.774V64.074C142.774 53.428 153.814 45.4734 161.218 44.8032C167.681 44.2185 171.181 43.41 183.971 47.5876V30.1145C175.22 27.9508 164.719 28.2557 155.968 29.0364C146.409 29.5755 124.734 39.6824 124.734 63.1305V73.7764H112.079V89.678H124.734V149.646C124.734 149.646 116.521 141.83 99.6925 141.83C76.2668 141.83 55.5342 159.888 55.5342 185.761C55.5342 211.635 74.7862 230.206 100.231 230.206C125.676 230.206 143.447 208.401 143.986 185.761C144.524 163.122 143.986 137.383 143.986 137.383V89.678H177.173V73.7764Z" fill="white"/>
<path d="M100.399 210.944C114.675 210.944 126.248 199.36 126.248 185.071C126.248 170.781 114.675 159.197 100.399 159.197C86.1228 159.197 74.5498 170.781 74.5498 185.071C74.5498 199.36 86.1228 210.944 100.399 210.944Z" fill="#4958C5"/>
</svg>
