<svg width="256" height="256" viewBox="0 0 256 256" fill="none" xmlns="http://www.w3.org/2000/svg">
<g clip-path="url(#clip0_1134_19)">
<mask id="mask0_1134_19" style="mask-type:luminance" maskUnits="userSpaceOnUse" x="0" y="0" width="256" height="256">
<path d="M256 0H0V256H256V0Z" fill="white"/>
</mask>
<g mask="url(#mask0_1134_19)">
<path d="M128 256C110.723 256 93.9612 252.613 78.1746 245.939C62.9298 239.491 49.2474 230.261 37.4887 218.511C25.7391 206.762 16.5091 193.07 10.0608 177.825C3.38672 162.039 0 145.277 0 128C0 110.723 3.38672 93.9612 10.0608 78.1746C16.5091 62.9298 25.7391 49.2474 37.4887 37.4887C49.2384 25.7391 62.9298 16.5091 78.1746 10.0608C93.9612 3.38672 110.723 0 128 0C145.277 0 162.039 3.38672 177.825 10.0608C193.07 16.5091 206.753 25.7391 218.511 37.4887C230.261 49.2384 239.491 62.9298 245.939 78.1746C252.613 93.9612 256 110.723 256 128C256 145.277 252.613 162.039 245.939 177.825C239.491 193.07 230.261 206.753 218.511 218.511C206.762 230.261 193.07 239.491 177.825 245.939C162.039 252.613 145.277 256 128 256Z" fill="#7E18FF"/>
<path d="M128.001 249.218C194.947 249.218 249.218 194.947 249.218 128C249.218 61.0532 194.947 6.78223 128.001 6.78223C61.0541 6.78223 6.7832 61.0532 6.7832 128C6.7832 194.947 61.0541 249.218 128.001 249.218Z" fill="#7E18FF"/>
<path d="M86.3874 85.6974C81.6536 110.879 66.3853 127.999 46.0008 127.999L46 173.49C74.7803 173.49 81.851 168.342 93.7226 152.31C100.733 142.842 112.298 127.836 127.996 127.836V82H90.7409C88.5931 82 86.7841 83.5868 86.3874 85.6974Z" fill="white"/>
<path d="M169.613 169.805C174.346 144.624 189.615 127.504 209.999 127.504L210 82.0127C181.22 82.0127 174.149 87.161 162.277 103.193C155.267 112.66 143.702 127.666 128.004 127.666V173.503H165.259C167.406 173.503 169.216 171.916 169.613 169.805Z" fill="white"/>
</g>
</g>
<defs>
<clipPath id="clip0_1134_19">
<rect width="256" height="256" fill="white"/>
</clipPath>
</defs>
</svg>
