<svg width="256" height="256" viewBox="0 0 256 256" fill="none" xmlns="http://www.w3.org/2000/svg">
<g clip-path="url(#clip0_2641_9965)">
<mask id="mask0_2641_9965" style="mask-type:luminance" maskUnits="userSpaceOnUse" x="0" y="0" width="256" height="256">
<path d="M255.838 0H0V255.838H255.838V0Z" fill="white"/>
</mask>
<g mask="url(#mask0_2641_9965)">
<path fill-rule="evenodd" clip-rule="evenodd" d="M127.92 -0.0615234C198.61 -0.0615234 255.9 57.2289 255.9 127.919C255.9 198.609 198.61 255.899 127.92 255.899C57.23 255.899 -0.0605469 198.609 -0.0605469 127.919C-0.0605469 57.2289 57.23 -0.0615234 127.92 -0.0615234Z" fill="#E60079"/>
<path d="M127.274 25.0347C147.741 25.0347 164.306 34.6864 164.306 46.5969C164.306 58.5075 147.707 68.1592 127.274 68.1592C106.807 68.1592 90.2422 58.5075 90.2422 46.5969C90.2422 34.6864 106.841 25.0347 127.274 25.0347Z" fill="white"/>
<path d="M127.274 187.368C147.741 187.368 164.306 197.02 164.306 208.93C164.306 220.841 147.707 230.492 127.274 230.492C106.807 230.492 90.2422 220.841 90.2422 208.93C90.2422 197.02 106.841 187.368 127.274 187.368Z" fill="white"/>
<path d="M38.32 76.373C48.5536 58.6441 65.1873 49.1293 75.5235 55.0845C85.8252 61.0399 85.8939 80.2405 75.6604 97.9354C65.4269 115.664 48.7932 125.179 38.457 119.224C28.155 113.269 28.0866 94.0679 38.32 76.373Z" fill="white"/>
<path d="M178.92 157.557C189.153 139.828 205.787 130.314 216.089 136.235C226.391 142.19 226.46 161.356 216.226 179.085C205.993 196.814 189.358 206.329 179.057 200.408C168.755 194.453 168.686 175.286 178.92 157.557Z" fill="white"/>
<path d="M38.457 136.234C48.7589 130.279 65.4269 139.828 75.6604 157.522C85.8939 175.252 85.8252 194.418 75.5235 200.374C65.2216 206.329 48.5536 196.78 38.32 179.084C28.0866 161.356 28.155 142.19 38.457 136.234Z" fill="white"/>
<path d="M179.057 55.0848C189.358 49.1296 205.993 58.6786 216.226 76.4075C226.46 94.1361 226.391 113.303 216.089 119.258C205.787 125.214 189.153 115.664 178.92 97.9358C168.686 80.2066 168.755 61.0402 179.057 55.0848Z" fill="white"/>
</g>
</g>
<defs>
<clipPath id="clip0_2641_9965">
<rect width="256" height="256" fill="white"/>
</clipPath>
</defs>
</svg>
