<svg width="255" height="255" viewBox="0 0 255 255" fill="none" xmlns="http://www.w3.org/2000/svg">
<g clip-path="url(#clip0_2641_9908)">
<mask id="mask0_2641_9908" style="mask-type:luminance" maskUnits="userSpaceOnUse" x="0" y="0" width="255" height="255">
<path d="M255 0H0V255H255V0Z" fill="white"/>
</mask>
<g mask="url(#mask0_2641_9908)">
<path d="M127.5 255C197.916 255 255 197.916 255 127.5C255 57.0837 197.916 0 127.5 0C57.0837 0 0 57.0837 0 127.5C0 197.916 57.0837 255 127.5 255Z" fill="#958FDC"/>
<path d="M216.609 127.609C216.609 78.8957 176.94 39.4072 128.013 39.4072C79.0874 39.4072 39.4082 78.8957 39.4082 127.609C39.4082 137.68 41.1078 147.354 44.2269 156.37C44.247 156.41 44.4169 156.927 44.4169 156.927C45.6766 160.918 39.4283 162.48 39.4283 164.869C39.4283 168.611 52.6046 168.102 52.6046 172.452C52.6046 176.243 39.5682 177.418 39.5682 181.24C39.5682 186.523 68.4303 184.682 68.8002 189.221C69.08 192.724 58.8729 192.942 58.8129 196.685C58.713 202.666 98.202 200.704 98.202 204.685C98.202 207.701 80.2369 206.606 80.2369 210.169C80.2369 213.731 103.88 215.98 129.943 215.98C156.006 215.98 173.981 213.095 173.981 209.98C173.981 206.865 157.205 207.501 157.555 204.695C158.155 199.789 195.394 202.298 195.394 196.614C195.394 193.62 185.158 192.923 185.488 189.698C185.958 185.141 216.609 185.817 216.609 181.08C216.609 177.359 201.414 176.442 201.443 172.571C201.463 168.62 216.609 168.789 216.508 165.087C216.429 162.242 209.732 162.311 211.831 156.28C214.929 147.294 216.629 137.651 216.629 127.609H216.609ZM188.457 152.658C185.378 159.595 178.459 158.201 177.68 161.117C176.87 164.132 186.208 164.571 186.208 167.725C186.208 171.556 157.745 170.024 158.025 175.08C158.205 178.264 178.239 178.801 177.86 182.126C177.31 186.942 146.818 184.534 146.518 189.151C146.298 192.534 161.404 192.654 161.435 195.74C161.465 198.336 149.577 199.749 126.804 199.749C100.871 199.749 88.2548 198.356 89.6944 195.461C91.0339 192.753 113.997 193.252 113.767 188.992C113.538 184.743 72.989 185.986 71.7693 181.856C70.7496 178.423 85.0956 177.716 85.0057 174.452C84.9157 171.129 66.6408 171.884 66.2409 167.854C65.981 165.218 75.7883 165.375 75.3683 162.052C75.0584 159.635 71.0096 159.973 68.6102 154.987C64.7412 146.657 62.5619 137.382 62.5619 127.599C62.5619 91.6141 91.8739 62.4356 128.023 62.4356C164.173 62.4356 193.485 91.6141 193.485 127.599C193.485 136.476 191.695 144.935 188.466 152.648L188.457 152.658Z" fill="#2B1D3C"/>
<path fill-rule="evenodd" clip-rule="evenodd" d="M44.2268 156.37C41.1077 147.354 39.4081 137.68 39.4081 127.609C39.4081 78.8957 79.0872 39.4072 128.013 39.4072C176.94 39.4072 216.609 78.8957 216.609 127.609H216.629C216.629 127.847 216.628 128.084 216.626 128.321C216.548 138.107 214.856 147.506 211.831 156.28C210.529 160.02 212.608 161.413 214.397 162.612C215.493 163.345 216.478 164.006 216.508 165.087C216.558 166.912 212.905 167.796 209.183 168.697C205.354 169.624 201.454 170.568 201.443 172.571C201.428 174.527 205.299 175.728 209.134 176.919C212.889 178.084 216.609 179.238 216.609 181.08C216.609 183.479 208.747 184.489 200.925 185.495C193.302 186.475 185.72 187.449 185.488 189.698C185.319 191.355 187.94 192.345 190.529 193.322C192.977 194.246 195.394 195.159 195.394 196.614C195.394 199.566 185.346 200.309 175.603 201.028C166.592 201.692 157.843 202.338 157.555 204.695C157.384 206.069 161.31 206.617 165.366 207.184C169.603 207.777 173.981 208.389 173.981 209.98C173.981 213.095 156.006 215.98 129.943 215.98C103.88 215.98 80.2368 213.731 80.2368 210.169C80.2368 208.313 85.1103 207.721 89.7807 207.154C94.0773 206.631 98.2019 206.131 98.2019 204.685C98.2019 202.897 90.2362 202.309 81.4693 201.66C70.7162 200.863 58.7577 199.979 58.8128 196.685C58.843 194.799 61.4481 193.808 63.9905 192.842C66.4952 191.889 68.939 190.958 68.8001 189.221C68.6225 187.042 61.8832 186.335 54.9209 185.602C47.3754 184.808 39.5681 183.987 39.5681 181.24C39.5681 179.325 42.84 178.074 46.1055 176.826C49.3582 175.585 52.6045 174.343 52.6045 172.452C52.6045 170.197 49.0583 169.247 45.6453 168.333C42.4794 167.486 39.4282 166.67 39.4282 164.869C39.4282 163.893 40.4715 163.055 41.6195 162.132C43.2809 160.798 45.1617 159.287 44.4168 156.927C44.4168 156.927 44.2469 156.41 44.2268 156.37ZM43.7403 157.146C43.9894 157.938 43.8698 158.582 43.5458 159.173C43.2033 159.797 42.6259 160.371 41.9363 160.954C41.7117 161.144 41.4655 161.343 41.2154 161.544C40.7502 161.919 40.2715 162.303 39.8923 162.668C39.3084 163.23 38.7174 163.957 38.7174 164.869C38.7174 165.573 39.0363 166.148 39.4975 166.599C39.9455 167.038 40.5483 167.384 41.1998 167.672C42.3956 168.201 43.9439 168.616 45.4476 169.017C45.5763 169.052 45.7046 169.086 45.8324 169.121C47.4942 169.567 49.0679 170.01 50.2263 170.595C51.4131 171.193 51.8937 171.797 51.8937 172.452C51.8937 172.703 51.7903 172.976 51.5127 173.288C51.2287 173.61 50.7932 173.937 50.2136 174.27C49.0503 174.939 47.4798 175.54 45.833 176.17L45.8118 176.178C44.2055 176.791 42.5257 177.432 41.2497 178.17C40.6068 178.543 40.0236 178.962 39.5951 179.45C39.1598 179.944 38.8573 180.542 38.8573 181.24C38.8573 182.279 39.5793 183.017 40.4493 183.527C41.3318 184.046 42.5432 184.445 43.9202 184.77C46.6841 185.425 50.351 185.836 53.9709 186.218C54.2601 186.249 54.5492 186.279 54.8377 186.309C58.1844 186.662 61.4358 187.003 63.9382 187.5C65.3011 187.771 66.3887 188.078 67.1316 188.434C67.9206 188.812 68.0787 189.122 68.0916 189.278C68.1277 189.734 67.8531 190.196 66.991 190.734C66.145 191.259 64.9698 191.707 63.687 192.195L63.6816 192.197C62.4375 192.67 61.0933 193.183 60.0614 193.829C59.0409 194.468 58.1234 195.363 58.1022 196.672C58.0821 197.872 59.0584 198.677 60.1632 199.222C61.3195 199.789 62.9282 200.234 64.7892 200.597C68.524 201.326 73.4911 201.767 78.4156 202.145C79.4251 202.223 80.4327 202.296 81.4283 202.371C85.3129 202.658 89.0169 202.932 91.944 203.303C93.7869 203.538 95.2766 203.804 96.2927 204.124C96.8053 204.285 97.147 204.443 97.3468 204.586C97.426 204.642 97.4656 204.682 97.4842 204.706C97.4791 204.716 97.47 204.73 97.4536 204.749C97.4006 204.814 97.2922 204.907 97.0923 205.014C96.6893 205.232 96.0648 205.434 95.2399 205.619C93.7327 205.955 91.7531 206.196 89.6858 206.448C89.5022 206.47 89.318 206.493 89.1334 206.515C86.8992 206.787 84.6026 207.084 82.8625 207.544C81.9966 207.774 81.2093 208.058 80.6239 208.435C80.0405 208.811 79.5262 209.374 79.5262 210.169C79.5262 211.033 80.2265 211.642 80.9489 212.058C81.7252 212.506 82.8197 212.906 84.1527 213.268C86.8298 213.994 90.6427 214.613 95.2389 215.118C104.441 216.13 116.895 216.693 129.943 216.693C142.996 216.693 154.041 215.971 161.836 214.853C165.728 214.296 168.839 213.636 170.992 212.906C172.065 212.542 172.94 212.149 173.563 211.717C174.156 211.304 174.691 210.734 174.691 209.98C174.691 209.223 174.172 208.705 173.636 208.37C173.09 208.027 172.355 207.764 171.55 207.548C169.931 207.111 167.797 206.805 165.735 206.516L165.488 206.481C163.484 206.203 161.567 205.933 160.147 205.576C159.403 205.39 158.86 205.192 158.528 204.991C158.364 204.892 158.293 204.816 158.267 204.778C158.265 204.776 158.264 204.773 158.262 204.771C158.274 204.703 158.324 204.58 158.531 204.408C158.754 204.225 159.105 204.03 159.607 203.837C160.609 203.453 162.053 203.136 163.827 202.867C167.096 202.37 171.33 202.057 175.664 201.737C176.025 201.71 176.389 201.683 176.752 201.656C181.435 201.308 186.149 200.934 189.695 200.285C191.461 199.961 192.993 199.561 194.099 199.035C195.154 198.533 196.105 197.775 196.105 196.614C196.105 196.018 195.845 195.518 195.485 195.115C195.131 194.72 194.658 194.39 194.148 194.103C193.198 193.569 191.968 193.103 190.798 192.662C190.721 192.633 190.645 192.605 190.568 192.576C189.293 192.095 188.114 191.634 187.271 191.113C186.39 190.568 186.157 190.133 186.195 189.771C186.211 189.61 186.404 189.274 187.269 188.855C188.076 188.464 189.247 188.112 190.702 187.79C193.534 187.162 197.257 186.684 201.036 186.198L201.315 186.163C205.164 185.667 209.05 185.162 211.974 184.478C213.431 184.137 214.701 183.74 215.622 183.252C216.496 182.792 217.32 182.103 217.32 181.08C217.32 180.347 216.94 179.751 216.441 179.284C215.947 178.822 215.276 178.428 214.537 178.081C213.098 177.403 211.207 176.817 209.373 176.248L209.225 176.202C207.312 175.607 205.472 175.03 204.111 174.369C203.428 174.039 202.915 173.711 202.582 173.386C202.255 173.067 202.152 172.802 202.153 172.578V172.574C202.155 172.337 202.262 172.085 202.581 171.793C202.909 171.492 203.416 171.197 204.095 170.912C205.452 170.342 207.284 169.889 209.188 169.428L209.379 169.382C211.188 168.944 213.05 168.494 214.465 167.924C215.197 167.629 215.868 167.28 216.362 166.843C216.865 166.399 217.24 165.809 217.219 165.068C217.19 164.035 216.548 163.331 215.895 162.803C215.563 162.537 215.19 162.287 214.835 162.049L214.8 162.024C214.448 161.789 214.108 161.562 213.785 161.313C213.118 160.801 212.596 160.255 212.329 159.549C212.068 158.857 212.017 157.908 212.502 156.515V156.513C215.627 147.453 217.34 137.732 217.34 127.609V126.897H217.316C216.932 78.1143 177.09 38.6953 128.013 38.6953C78.6988 38.6953 38.6973 78.4982 38.6973 127.609C38.6973 137.761 40.4106 147.513 43.5552 156.603L43.5707 156.648L43.5769 156.66C43.5812 156.672 43.5868 156.688 43.5935 156.707C43.611 156.758 43.6332 156.823 43.6555 156.89C43.6775 156.956 43.6991 157.021 43.7152 157.07L43.7345 157.128L43.7391 157.142M97.4994 204.73C97.4994 204.73 97.4978 204.728 97.4962 204.722C97.4986 204.727 97.4994 204.73 97.4994 204.73ZM188.466 152.648C191.695 144.935 193.485 136.476 193.485 127.599C193.485 91.6141 164.173 62.4356 128.023 62.4356C91.8737 62.4356 62.5618 91.6141 62.5618 127.599C62.5618 137.382 64.7411 146.657 68.6101 154.987C69.9466 157.764 71.7947 158.889 73.2235 159.759C74.3599 160.451 75.231 160.981 75.3682 162.052C75.5907 163.814 72.9416 164.596 70.4404 165.337C68.2214 165.992 66.1186 166.614 66.2408 167.854C66.4498 169.961 71.5415 170.759 76.3678 171.516C80.776 172.208 84.9626 172.866 85.0056 174.452C85.0491 176.033 81.7075 177.013 78.3648 177.995C74.8047 179.04 71.2433 180.086 71.7692 181.856C72.372 183.898 82.5827 184.626 92.7841 185.353C103.222 186.099 113.651 186.843 113.767 188.992C113.897 191.398 106.626 192.286 100.032 193.091C94.9535 193.711 90.2771 194.283 89.6943 195.461C88.2547 198.356 100.871 199.749 126.804 199.749C149.577 199.749 161.465 198.336 161.435 195.74C161.42 194.238 157.839 193.44 154.189 192.625C150.335 191.766 146.405 190.888 146.518 189.151C146.667 186.864 154.219 186.301 161.871 185.729C169.674 185.147 177.583 184.556 177.86 182.126C178.053 180.432 172.95 179.461 167.872 178.497C162.981 177.566 158.113 176.642 158.025 175.08C157.875 172.374 165.961 171.554 173.509 170.791C180.061 170.128 186.208 169.505 186.208 167.725C186.208 166.169 183.937 165.275 181.733 164.405C179.466 163.512 177.269 162.645 177.68 161.117C177.994 159.944 179.301 159.469 180.95 158.867C183.403 157.974 186.616 156.805 188.457 152.658L188.466 152.648ZM187.865 152.243C191.024 144.65 192.774 136.33 192.774 127.599C192.774 92.0115 163.785 63.1475 128.023 63.1475C92.262 63.1475 63.2726 92.0115 63.2726 127.599C63.2726 137.273 65.4271 146.444 69.2524 154.682C70.3688 156.999 71.8523 158.071 73.1478 158.878C73.2838 158.962 73.4224 159.046 73.5614 159.131C74.0652 159.437 74.5741 159.746 74.9752 160.083C75.5236 160.543 75.9659 161.125 76.0733 161.962C76.2341 163.235 75.3668 164.072 74.4372 164.607C73.4969 165.149 72.237 165.544 71.0672 165.893C70.9241 165.936 70.7822 165.978 70.642 166.019C69.5925 166.33 68.6358 166.614 67.9159 166.948C67.5096 167.136 67.2423 167.315 67.0898 167.476C66.9548 167.618 66.9406 167.707 66.9481 167.784C66.9688 167.994 67.1096 168.26 67.5616 168.572C68.0126 168.883 68.6799 169.172 69.5386 169.438C71.2519 169.967 73.5244 170.348 75.8499 170.714C76.0614 170.748 76.2732 170.781 76.485 170.815C78.5733 171.142 80.6606 171.47 82.2738 171.897C83.159 172.133 83.959 172.412 84.5549 172.769C85.1335 173.116 85.6948 173.647 85.7161 174.433M85.7161 174.433C85.7353 175.132 85.3579 175.687 84.892 176.1C84.4287 176.511 83.8012 176.855 83.1177 177.155C81.8401 177.717 80.1807 178.203 78.58 178.674C78.466 178.707 78.3522 178.741 78.2389 178.774C76.498 179.286 74.8695 179.781 73.7373 180.347C73.1681 180.631 72.7958 180.9 72.5951 181.142C72.4208 181.351 72.404 181.496 72.4506 181.654C72.4496 181.651 72.4574 181.681 72.5122 181.738C72.5682 181.797 72.6606 181.872 72.805 181.96C73.0971 182.135 73.5322 182.315 74.1194 182.492C75.2897 182.844 76.9293 183.146 78.9075 183.41C82.7707 183.925 87.7961 184.284 92.8499 184.645L93.19 184.669C98.3412 185.036 103.497 185.41 107.379 185.96C109.315 186.234 110.976 186.558 112.173 186.96C112.768 187.159 113.294 187.393 113.689 187.68C114.077 187.964 114.446 188.378 114.477 188.953C114.526 189.862 113.936 190.522 113.243 190.977C112.542 191.436 111.575 191.801 110.481 192.104C108.283 192.715 105.344 193.142 102.409 193.515C101.636 193.612 100.863 193.707 100.101 193.8C97.947 194.063 95.8854 194.315 94.173 194.608C93.0144 194.807 92.0516 195.019 91.3486 195.255C90.9969 195.373 90.7352 195.489 90.5551 195.598C90.3653 195.712 90.3284 195.783 90.3312 195.776L90.3305 195.778C90.2905 195.857 90.2939 195.896 90.295 195.904C90.2959 195.913 90.3017 195.952 90.3616 196.025C90.5009 196.195 90.8361 196.433 91.4954 196.688C92.7905 197.191 94.9658 197.63 98.065 197.984C104.238 198.69 113.842 199.037 126.804 199.037C138.183 199.037 146.815 198.685 152.588 198.011C155.481 197.674 157.617 197.26 159.01 196.787C159.71 196.549 160.176 196.312 160.451 196.097C160.724 195.883 160.724 195.763 160.724 195.747C160.722 195.687 160.692 195.529 160.356 195.284C160.024 195.04 159.511 194.796 158.825 194.555C157.526 194.1 155.807 193.715 154.015 193.315L153.728 193.252C151.865 192.836 149.941 192.396 148.496 191.838C147.776 191.561 147.117 191.231 146.635 190.821C146.145 190.405 145.762 189.833 145.809 189.105C145.875 188.093 146.748 187.468 147.639 187.071C148.586 186.647 149.874 186.333 151.345 186.08C154.232 185.586 158.025 185.302 161.795 185.022L162.042 185.002C165.92 184.712 169.751 184.421 172.648 183.904C174.102 183.646 175.268 183.339 176.073 182.972C176.924 182.585 177.132 182.244 177.154 182.044C177.155 182.03 177.159 182 177.112 181.931C177.057 181.848 176.943 181.732 176.731 181.592C176.306 181.31 175.632 181.028 174.736 180.75C172.954 180.197 170.524 179.726 168.02 179.249L167.72 179.193C165.338 178.739 162.915 178.278 161.055 177.74C160.091 177.461 159.229 177.147 158.59 176.777C157.995 176.433 157.36 175.907 157.316 175.12L157.315 175.118C157.258 174.087 157.958 173.355 158.791 172.858C159.637 172.351 160.812 171.962 162.145 171.644C164.828 171.003 168.407 170.598 171.939 170.235C172.441 170.184 172.943 170.133 173.44 170.082C176.472 169.774 179.38 169.481 181.64 169.078C182.96 168.843 184.005 168.58 184.705 168.279C185.056 168.128 185.274 167.986 185.395 167.87C185.452 167.814 185.478 167.776 185.488 167.755C185.497 167.737 185.497 167.729 185.497 167.725C185.497 167.333 185.212 166.899 184.388 166.392C183.604 165.908 182.552 165.493 181.435 165.053L181.379 165.031C180.286 164.599 179.113 164.135 178.273 163.568C177.849 163.281 177.453 162.932 177.198 162.494C176.931 162.032 176.841 161.501 176.993 160.932C177.27 159.896 178.089 159.313 178.952 158.899C179.388 158.688 179.878 158.502 180.376 158.319C180.488 158.278 180.6 158.237 180.713 158.196C181.113 158.051 181.521 157.902 181.943 157.734C184.069 156.884 186.374 155.597 187.808 152.368L187.861 152.247L187.865 152.243" fill="#2B1D3C"/>
</g>
</g>
<defs>
<clipPath id="clip0_2641_9908">
<rect width="255" height="255" fill="white"/>
</clipPath>
</defs>
</svg>
