<svg width="256" height="256" viewBox="0 0 256 256" fill="none" xmlns="http://www.w3.org/2000/svg">
<g clip-path="url(#clip0_2076_1243)">
<path fill-rule="evenodd" clip-rule="evenodd" d="M128 0C198.682 0 256 57.3184 256 128C256 198.682 198.682 256 128 256C57.3184 256 0 198.682 0 128C0 57.3184 57.3184 0 128 0Z" fill="#0055D5"/>
<path fill-rule="evenodd" clip-rule="evenodd" d="M69.6315 84.6849C69.6315 84.6849 55.8587 73.6769 54.9115 100.864C53.9643 121.933 53.9899 162.842 63.7435 182.17C67.8651 189.44 73.3692 187.213 83.6092 179.968C92.518 173.389 124.748 143.693 138.393 130.663C152.038 117.632 179.712 80.2561 185.472 105.651C187.75 116.327 190.566 125.389 188.416 149.069C187.75 156.365 184.627 161.895 170.393 152.013C159.641 145.101 149.427 137.677 149.427 137.677C149.427 137.677 147.456 134.144 142.796 139.879C139.136 144.461 137.292 145.587 143.155 149.069C149.043 152.551 178.816 173.082 190.233 176.282C199.654 179.021 205.03 178.97 205.312 160.461C205.26 145.767 204.416 103.706 199.065 85.7857C195.02 74.6241 189.081 69.5553 176.256 82.0993C163.43 94.6433 122.982 133.863 100.864 151.629C86.1947 162.637 79.9228 172.57 74.3932 154.215C70.502 140.314 65.4587 97.0497 81.3819 105.293C91.3403 110.055 96.3067 110.029 92.4155 113.024C88.5243 115.994 77.3372 126.259 77.3372 126.259C77.3372 126.259 73.8811 129.05 75.4939 135.091C77.1067 139.315 77.1068 141.415 85.7852 133.248C94.4636 125.082 100.864 118.912 100.864 118.912C100.864 118.912 102.246 116.736 106.368 120.755C110.489 124.775 111.155 125.901 111.155 125.901C111.155 125.901 112.256 128.896 116.659 123.699C121.088 118.503 123.929 115.328 115.558 110.464C107.212 105.549 69.6315 84.6849 69.6315 84.6849Z" fill="white"/>
</g>
<defs>
<clipPath id="clip0_2076_1243">
<rect width="256" height="256" fill="white"/>
</clipPath>
</defs>
</svg>
