<svg width="256" height="256" viewBox="0 0 256 256" fill="none" xmlns="http://www.w3.org/2000/svg">
<g clip-path="url(#clip0_1933_1656)">
<path d="M128 256C198.692 256 256 198.692 256 128C256 57.3078 198.692 0 128 0C57.3078 0 0 57.3078 0 128C0 198.692 57.3078 256 128 256Z" fill="#E5E7EB"/>
<mask id="mask0_1933_1656" style="mask-type:alpha" maskUnits="userSpaceOnUse" x="0" y="0" width="256" height="256">
<path d="M128 256C198.692 256 256 198.692 256 128C256 57.3078 198.692 0 128 0C57.3078 0 0 57.3078 0 128C0 198.692 57.3078 256 128 256Z" fill="#E5E7EB"/>
</mask>
<g mask="url(#mask0_1933_1656)">
<g opacity="0.2">
<path fill-rule="evenodd" clip-rule="evenodd" d="M135.296 92.4229V113.757L175.723 121.484C179.543 122.214 182.304 125.56 182.295 129.451L182.287 132.36C182.276 136.82 178.657 140.431 174.197 140.431H135.296V173.281L146.382 176.205C147.805 176.581 148.796 177.87 148.793 179.342L148.785 182.525C148.781 184.309 147.334 185.754 145.549 185.754H110.427C108.672 185.754 107.237 184.355 107.192 182.601L107.109 179.402C107.07 177.902 108.067 176.572 109.518 176.189L120.546 173.281V140.431H81.8731C77.4861 140.431 73.8981 136.935 73.7849 132.549L73.7088 129.61C73.607 125.649 76.3873 122.197 80.2785 121.453L120.546 113.757V92.4229C120.546 88.9352 122.568 79.0469 124.55 69.9468C125.298 66.5092 130.543 66.5093 131.293 69.9468C133.274 79.0469 135.296 88.9339 135.296 92.4229Z" fill="#1F2937"/>
</g>
</g>
</g>
<defs>
<clipPath id="clip0_1933_1656">
<rect width="256" height="256" fill="white"/>
</clipPath>
</defs>
</svg>
