<svg width="256" height="256" viewBox="0 0 256 256" fill="none" xmlns="http://www.w3.org/2000/svg">
<g clip-path="url(#clip0_741_46)">
<path d="M256 128C256 198.692 198.692 256 128 256C57.3075 256 0 198.692 0 128C0 57.3075 57.3075 0 128 0C198.692 0 256 57.3075 256 128Z" fill="#DF6D03"/>
<g clip-path="url(#clip1_741_46)">
<path d="M108.283 219.978C105.87 219.07 103.589 217.964 101.461 216.503C100.759 216.016 99.881 216.26 99.0692 216.238C95.6249 216.149 92.1805 216.481 88.758 216.016C82.9004 215.242 79.127 211.789 77.0428 206.412C75.5948 202.649 74.4101 198.754 74.1908 194.66C74.1469 193.775 73.4887 193.598 72.9622 193.244C62.7388 186.427 57.5173 176.911 58.0439 164.451C58.2852 158.941 59.9745 153.851 62.9801 149.225C63.7041 148.119 64.3622 146.946 65.9637 147.234C67.6311 147.521 67.5872 148.96 67.7847 150.155C69.3204 158.52 73.73 164.85 80.9479 169.21C82.2642 170.006 82.2861 169.984 82.3739 168.413C82.6371 163.146 84.4142 158.454 87.705 154.338C88.8677 152.877 88.3631 150.199 86.7836 149.358C71.0755 140.882 63.3311 126.276 64.9984 108.283C65.4811 103.127 66.3586 98.0589 68.026 93.1459C68.3989 92.0393 68.5086 90.9549 68.2234 89.7598C64.9326 76.26 64.6474 62.7602 68.3989 49.2825C69.0352 46.9588 69.8688 44.6793 71.0755 42.599C74.2346 37.1991 77.0867 36.2253 82.6591 37.5089C87.9902 38.7482 92.4437 41.7802 96.8534 44.8564C99.0473 46.4055 101.131 48.0875 103.106 49.9243C103.676 50.4555 104.137 50.544 104.861 50.212C114.58 45.985 124.716 43.9932 135.312 44.5023C143.429 44.9006 151.174 46.8924 158.611 50.0792C159.598 50.4997 160.19 50.4112 161.002 49.703C165.982 45.3875 171.226 41.4482 177.325 38.7925C179.804 37.7081 182.349 36.9556 185.091 36.9999C187.307 37.022 189.15 37.8851 190.641 39.5671C193.866 43.1744 195.27 47.6448 196.28 52.2259C198.978 64.6856 198.803 77.1231 195.709 89.4943C195.424 90.6008 195.424 91.6188 195.775 92.7475C197.684 98.7892 198.89 104.986 199 111.36C199.175 121.23 197.004 130.392 190.685 138.226C186.934 142.896 182.37 146.592 177.083 149.358C175.679 150.111 174.933 152.877 175.986 154.116C181.186 160.224 182.107 167.417 181.295 175.052C181.164 176.314 181.449 176.978 182.546 177.708C186.166 180.098 188.206 183.661 189.128 187.866C190.861 195.7 188.886 202.937 185.091 209.665C182.809 213.715 178.926 215.729 174.275 216.061C170.94 216.304 167.584 216.193 164.227 216.171C163.24 216.171 162.406 216.37 161.595 217.012C159.62 218.539 157.295 219.247 154.881 219.646C154.684 219.668 154.508 219.712 154.464 219.933C152.161 219.933 149.879 219.933 147.576 219.933C146.786 219.646 145.93 219.734 145.119 219.535C143.89 219.004 142.705 218.406 141.762 217.388C141.192 216.791 140.511 216.57 139.7 216.57C134.544 216.57 129.41 216.57 124.255 216.57C123.509 216.57 122.829 216.725 122.28 217.256C120.767 218.738 119.012 219.712 116.883 219.911C116.598 219.911 116.313 219.911 116.028 219.911C115.787 219.668 115.501 219.801 115.216 219.756C114.997 219.779 114.755 219.712 114.58 219.911C114.009 219.911 113.439 219.911 112.869 219.911C112.298 219.668 111.728 219.668 111.157 219.911C110.784 219.911 110.39 219.911 110.017 219.911C109.819 219.734 109.644 219.734 109.446 219.911C109.051 219.978 108.656 219.978 108.283 219.978Z" fill="#31201B"/>
<path d="M116.883 219.978C119.077 219.203 121.118 218.141 122.719 216.393C123.004 216.083 123.443 216.238 123.816 216.238C129.213 216.238 134.61 216.26 140.007 216.26C140.819 216.26 141.455 216.415 142.003 217.123C142.837 218.207 144.087 218.761 145.294 219.358C145.404 219.801 146.259 219.248 146.128 220C136.409 219.978 126.646 219.978 116.883 219.978Z" fill="#FEFEFE"/>
<path d="M146.15 219.978C145.974 219.624 145.426 219.779 145.316 219.336C146.084 219.513 146.939 219.402 147.598 219.978C147.115 219.978 146.632 219.978 146.15 219.978Z" fill="#EEEDED"/>
<path d="M111.157 219.978C111.728 219.535 112.298 219.535 112.869 219.978C112.298 219.978 111.728 219.978 111.157 219.978Z" fill="#4B3C37"/>
<path d="M115.172 219.734C115.479 219.756 115.852 219.491 116.028 219.978C115.743 219.978 115.457 219.978 115.172 219.978C115.084 219.911 115.041 219.867 115.084 219.801C115.106 219.756 115.15 219.734 115.172 219.734Z" fill="#AAA3A1"/>
<path d="M109.424 219.978C109.622 219.557 109.797 219.624 109.995 219.978C109.819 219.978 109.622 219.978 109.424 219.978Z" fill="#978F8C"/>
<path d="M115.172 219.734C115.172 219.823 115.172 219.889 115.15 219.978C114.953 219.978 114.777 219.978 114.58 219.978C114.69 219.668 114.931 219.668 115.172 219.734Z" fill="#8E8683"/>
<path d="M173.2 49.2384C171.16 51.717 168.834 53.9744 167.167 56.7407C166.158 58.4006 166.311 59.2415 167.847 60.4145C182.853 71.834 191.607 86.9936 194.415 105.672C195.051 109.833 194.7 114.038 194.656 118.22C194.656 118.53 194.568 118.796 194.327 118.995C191.651 121.695 188.513 123.532 184.696 123.908C177.039 124.66 170.721 121.651 165.105 116.693C159.883 112.09 155.21 106.911 149.835 102.485C146.501 99.741 143.078 97.041 138.8 95.9123C131.538 93.9648 124.694 94.8722 118.375 99.1656C114.997 101.467 112.035 104.278 108.986 106.978C104.664 110.829 100.956 115.41 96.2172 118.774C93.1238 120.964 89.833 122.934 85.9938 123.443C80.3775 124.173 74.8928 124.085 70.3734 119.858C70.0443 119.592 69.7591 119.305 69.5617 118.928C68.8377 116.383 68.9474 113.794 69.079 111.205C69.5397 101.29 72.0627 91.9288 76.6918 83.165C81.2331 74.5339 87.2223 67.1422 94.9667 61.2333C97.9942 58.9096 97.9942 58.3784 95.7784 55.2358C93.9356 52.6465 91.4565 50.6326 89.6795 47.9769C90.4473 47.5343 91.0616 48.0212 91.6978 48.3089C94.3305 49.5261 96.5682 51.3408 98.7182 53.2662C99.8371 54.2621 101 55.1916 102.119 56.1432C103.194 57.0727 104.247 57.2055 105.541 56.6301C109.117 55.0367 112.781 53.6646 116.62 52.7129C122.982 51.1195 129.41 50.3449 135.926 50.8318C143.276 51.3629 150.34 53.1113 157.097 56.1211C157.58 56.3424 158.084 56.5194 158.545 56.7186C159.752 57.2719 160.629 56.9399 161.638 56.0768C164.666 53.4211 167.979 51.1416 171.226 48.7294C172.015 48.154 172.739 48.2646 173.2 49.2384Z" fill="#FDA524"/>
<path d="M70.3296 119.526C71.4923 120.278 72.5673 121.208 73.8178 121.783C79.1928 124.328 84.6775 123.93 90.0744 121.872C95.7346 119.703 99.7932 115.343 104.027 111.249C108.371 107.044 112.715 102.839 117.586 99.2541C125.878 93.1459 137.791 93.0574 146.04 99.1213C150.932 102.729 155.276 106.889 159.62 111.094C161.66 113.064 163.723 114.989 165.829 116.892C170.436 121.053 175.833 123.443 182.019 123.731C185.376 123.886 188.557 123.111 191.343 121.031C192.287 120.301 193.208 119.526 194.327 119.039C194.239 120.5 193.932 121.938 193.45 123.31C188.601 131.056 182.129 136.854 173.836 140.683C165.346 144.622 156.417 146.703 147.203 147.743C141.126 148.429 135.027 148.805 128.906 148.584C117.849 148.208 106.901 147.012 96.3708 143.25C89.2846 140.727 82.7249 137.297 77.3499 132.008C74.3882 129.109 71.602 125.922 70.2199 121.828C70.0005 121.186 69.9566 120.5 69.8469 119.858C69.7592 119.415 70.0005 119.327 70.3296 119.526Z" fill="#FDFEFD"/>
<path d="M70.3295 119.526C69.7591 120.168 70.154 120.809 70.3295 121.429C71.0974 124.04 72.8964 126.01 74.4759 128.113C79.4341 134.685 86.1693 138.757 93.6065 141.723C100.364 144.423 107.362 146.193 114.58 147.034C118.309 147.477 122.061 147.676 125.812 147.942C128.906 148.141 132.021 148.229 135.114 148.119C145.162 147.765 155.123 146.791 164.776 143.715C171.05 141.701 176.974 139.067 182.305 135.128C186.056 132.384 189.018 128.909 191.672 125.125C192.177 124.417 192.747 123.797 193.428 123.244C191.431 131.565 186.517 137.85 179.672 142.675C172.323 147.831 164.03 150.642 155.32 152.302C138.23 155.555 121.205 155.444 104.269 151.328C96.0636 149.336 88.3412 146.216 81.7157 140.793C75.0902 135.371 71.0974 128.4 69.6056 119.924C69.5397 119.592 69.5617 119.26 69.5617 118.928C69.8249 119.127 70.0663 119.327 70.3295 119.526Z" fill="#DEDEDE"/>
<path d="M120.262 194.284C120.328 199.352 120.394 204.398 120.218 209.466C119.516 209.82 118.814 209.643 118.112 209.466C116.818 209.178 115.523 208.802 114.207 208.514C111.574 207.961 108.986 208.204 106.441 209.045C105.87 209.244 105.3 209.576 104.642 209.377C104.488 209.289 104.422 209.156 104.422 208.979C105.344 207.828 105.124 206.699 104.4 205.548C100.802 199.662 98.3233 193.222 95.6687 186.892C93.1677 180.895 92.0708 174.521 92.0927 168.015C92.0927 165.801 92.729 163.633 93.0361 161.442C93.1019 160.955 93.3213 160.49 93.9575 160.556C95.1203 160.91 96.2172 161.397 97.2703 161.995C97.007 165.315 98.082 168.302 99.7274 171.046C101.548 174.056 103.896 176.668 106.155 179.345C109.688 183.506 113.966 186.848 117.629 190.876C118.617 191.938 119.692 192.912 120.262 194.284Z" fill="#FDA524"/>
<path d="M167.079 161.862C167.935 161.375 168.768 160.866 169.734 160.623C170.611 160.357 170.699 161.088 170.787 161.575C171.401 164.739 171.862 167.86 171.642 171.157C171.291 176.159 170.282 180.983 168.571 185.653C166.114 192.336 163.437 198.931 159.73 205.04C159.028 206.19 158.589 207.474 157.821 208.558C156.066 208.713 154.355 208.16 152.578 208.204C150.362 208.248 148.212 208.514 146.106 209.2C145.601 209.355 145.119 209.576 144.57 209.444C144.065 209.178 143.934 208.713 143.89 208.204C143.561 207.009 143.956 205.792 143.649 204.597C143.649 204.331 143.649 204.088 143.649 203.822C143.868 203.49 143.714 203.07 143.868 202.716C143.978 200.503 143.89 198.29 143.912 196.077C143.912 195.922 143.912 195.767 143.89 195.612C143.912 195.28 143.956 194.948 143.978 194.638C144.965 191.872 146.939 189.836 149.068 187.954C154.355 183.329 159.181 178.261 163.218 172.485C165.28 169.542 166.509 166.288 166.816 162.703C166.794 162.349 166.86 162.084 167.079 161.862Z" fill="#FDA524"/>
<path d="M111.157 166.089C114.755 166.51 118.375 166.93 121.973 167.373C122.96 167.505 122.302 168.037 122.149 168.391C120.218 172.728 120.986 177.686 124.101 180.895C127.59 184.502 133.206 185.21 137.703 182.599C141.894 180.164 143.758 174.986 142.376 169.873C142.157 169.055 141.301 168.081 141.784 167.505C142.201 167.019 143.407 167.24 144.241 167.129C146.983 166.797 149.726 166.443 152.49 166.111C153.082 167.085 152.336 167.771 151.92 168.457C150.823 170.25 149.353 171.799 148.3 173.636C146.281 177.177 144.46 180.828 143.232 184.745C143.056 185.299 142.925 185.852 142.618 186.361C142.464 186.627 142.332 187.18 142.442 187.29C139.985 186.936 139.436 187.357 139.371 190.079C139.283 193.974 139.327 197.891 139.305 201.786C139.305 202.273 139.261 202.738 139.239 203.225C137.681 204.53 135.751 204.663 133.886 204.929C131.122 205.327 128.379 204.907 125.747 203.977C125.264 203.8 124.759 203.601 124.54 203.048C124.496 198.732 124.474 194.394 124.408 190.079C124.365 187.512 124.343 187.512 121.776 186.981C121.008 186.073 120.832 184.878 120.438 183.816C118.463 178.549 115.896 173.636 112.474 169.165C111.794 168.28 110.982 167.395 111.157 166.089Z" fill="#DEDEDE"/>
<path d="M111.157 166.089C112.518 169.254 115.019 171.666 116.62 174.676C118.726 178.615 120.657 182.621 121.776 186.958C120.635 187.777 120.262 188.928 120.262 190.3C120.24 191.628 120.525 192.956 120.284 194.284C113.944 187.025 106.265 181.05 100.649 173.105C98.6085 170.205 97.3141 167.063 96.8534 163.566C96.7876 163.057 96.3488 162.283 97.2922 161.995C101.548 163.61 105.958 164.651 110.346 165.801C110.631 165.89 110.894 166.001 111.157 166.089Z" fill="#FDFEFD"/>
<path d="M142.42 187.29C142.398 186.981 141.718 187.091 142.157 186.339C143.144 184.657 143.473 182.665 144.263 180.85C146.084 176.712 148.102 172.706 150.976 169.187C151.678 168.302 152.424 167.373 152.468 166.133C154.859 165.514 157.251 164.938 159.62 164.252C162.121 163.522 164.6 162.681 167.079 161.862C167.189 165.779 165.785 169.232 163.657 172.396C160.41 177.177 156.592 181.492 152.336 185.387C149.265 188.198 146.106 190.942 143.956 194.594C143.166 192.801 143.693 190.898 143.517 189.061C143.429 188.242 143.298 187.556 142.42 187.29Z" fill="#FDFEFD"/>
<path d="M157.909 208.403C157.602 207.252 158.413 206.478 158.896 205.659C163.832 197.294 167.672 188.463 170.085 179.058C171.533 173.414 171.884 167.616 170.502 161.84C170.392 161.375 170.436 160.711 169.712 160.601C170.063 160.379 170.414 160.114 170.787 159.915C174.56 157.967 173.88 157.48 175.723 161.663C177.917 166.642 177.654 171.865 176.732 177.132C175.46 184.325 172.564 190.92 169.624 197.515C167.496 202.273 165.083 206.854 161.792 210.904C161.024 210.86 160.673 210.085 159.993 209.864C159.269 209.443 158.37 209.222 157.909 208.403Z" fill="#F08102"/>
<path d="M93.9795 160.556C93.6723 160.733 93.431 160.955 93.3871 161.331C92.9922 165.071 92.1805 168.745 92.707 172.618C93.3652 177.531 94.1769 182.399 96.1295 186.981C98.9157 193.509 101.526 200.148 105.212 206.234C105.936 207.429 105.782 208.315 104.554 208.979C103.303 210.174 102.053 209.554 100.802 209.001C99.7055 207.784 98.8279 206.411 98.0601 204.973C93.8259 196.984 89.9208 188.84 87.7708 179.987C86.4106 174.41 85.7525 168.789 87.6392 163.168C88.0341 161.973 88.5825 160.866 89.1091 159.715C89.5917 158.631 90.2499 158.255 91.3249 158.941C92.1805 159.494 93.08 160.025 93.9795 160.556Z" fill="#F08102"/>
<path d="M166.509 211.9C171.204 204.929 174.451 197.537 177.368 189.99C178.246 187.711 178.948 185.343 179.716 183.019C179.869 182.577 179.782 181.957 180.352 181.824C180.988 181.669 181.427 182.09 181.822 182.555C184.148 185.232 185.288 188.419 185.508 191.916C185.859 197.272 184.169 202.185 181.932 206.921C180.462 210.019 177.719 211.435 174.451 211.834C171.884 212.143 169.317 211.944 166.509 211.9Z" fill="#F08102"/>
<path d="M96.985 211.9C93.6942 211.9 90.4693 212.343 87.3101 211.325C84.9188 210.55 83.0101 209.134 81.9351 206.854C79.7412 202.162 78.1397 197.294 78.403 191.982C78.5565 188.685 79.6754 185.786 81.606 183.174C81.8254 182.864 82.1106 182.577 82.3958 182.333C83.4928 181.448 83.8438 181.536 84.2167 182.886C86.4764 191.053 89.9647 198.688 93.8698 206.168C94.857 208.049 96.4366 209.598 96.985 211.9Z" fill="#F08102"/>
<path d="M188.886 77.2781C185.617 72.2765 182.107 67.4962 177.807 63.3356C176.008 61.6094 174.122 59.9718 172.235 58.3562C171.73 57.9136 171.599 57.6259 172.059 57.0726C175.833 52.4694 180.067 48.4416 185.157 45.3433C187 49.3489 188.031 53.5759 188.711 57.9136C189.566 63.4906 189.742 69.1118 189.61 74.733C189.588 75.6183 189.588 76.5699 188.886 77.2781Z" fill="#C74F02"/>
<path d="M79.0392 45.6309C83.8876 48.5521 88.0779 52.2037 91.5004 56.7405C92.0927 57.5151 92.1805 57.9577 91.3029 58.6881C86.1035 63.0921 81.5183 68.1379 77.306 73.4936C76.8673 73.5821 76.7356 74.0469 76.3846 74.246C76.1652 74.4895 75.9897 74.7993 75.7265 74.9985C75.1999 75.3747 74.8489 75.2198 74.6734 74.6001C74.6076 74.3567 74.5856 74.1354 74.5856 73.892C74.6515 68.1822 74.2346 62.4503 75.3535 56.7848C76.1213 52.9119 77.1305 49.1054 79.0392 45.6309Z" fill="#C74F02"/>
<path d="M173.2 49.2383C172.432 48.6408 171.862 48.6408 170.984 49.349C167.672 52.0047 164.052 54.2842 160.958 57.2276C160.432 57.7366 159.817 57.6038 159.225 57.3604C156.834 56.4309 154.443 55.435 152.029 54.5719C143.824 51.5842 135.312 50.5219 126.69 51.3186C120.108 51.9162 113.549 53.2662 107.56 56.2759C104.642 57.7366 102.579 57.4931 100.232 55.1915C97.731 52.7129 95.0325 50.3449 91.8075 48.8179C91.1274 48.4859 90.3815 48.2646 89.6795 47.999C87.2662 46.1843 84.853 44.3474 82.4616 42.5327C82.5494 41.8024 83.032 42.1343 83.405 42.1786C86.4984 43.0417 89.131 44.7679 91.7856 46.4941C95.3177 48.8179 98.5866 51.4736 101.68 54.3506C102.865 55.435 103.962 55.5014 105.322 54.8374C119.187 48.1761 133.557 47.0695 148.344 50.9203C151.81 51.8276 155.166 53.1112 158.391 54.7268C159.905 55.4792 161.112 55.3686 162.428 54.1956C166.728 50.3449 171.226 46.7597 176.293 43.9933C177.939 43.1081 179.628 42.3114 181.471 41.8909C181.8 41.7581 182.085 41.6696 182.063 42.2007C178.882 44.281 175.986 46.6933 173.2 49.2383Z" fill="#E8C587"/>
<path d="M63.2872 159.162C63.4408 158.498 63.5505 157.834 63.7479 157.215C63.8796 156.794 63.8576 156.108 64.45 156.108C64.9326 156.108 65.1959 156.684 65.3714 157.126C66.4025 159.671 67.6311 162.106 69.2984 164.319C72.5892 168.701 76.7576 171.998 81.5841 174.499C82.1545 174.809 82.7907 174.964 82.8127 175.871C82.8346 176.756 82.4616 177.132 81.7815 177.531C79.8071 178.682 78.2713 180.319 77.0647 182.267C76.8453 182.621 76.8015 183.13 76.2749 183.218C74.4101 182.665 73.0938 181.293 71.7775 180.009C68.2673 176.557 65.6347 172.529 64.3403 167.683C63.8357 165.248 63.1775 162.836 63.2214 160.313C63.1995 159.915 63.353 159.538 63.2872 159.162Z" fill="#F08102"/>
<path d="M79.0392 45.631C79.2147 46.0515 79.2805 46.4277 79.0173 46.8482C76.9331 50.3449 76.2749 54.262 75.5729 58.2013C74.5857 63.7562 75.178 69.3332 74.9805 75.0208C75.8362 74.8437 76.0994 74.0249 76.7356 73.7593C76.8892 73.9364 76.9112 74.1134 76.7356 74.2905C75.0244 77.433 73.3132 80.5756 71.4704 83.9838C70.8341 82.3461 70.7025 80.9297 70.5709 79.5355C69.6933 69.4659 69.803 59.4628 72.7647 49.6588C73.2913 47.9548 74.0152 46.3392 74.7392 44.7015C75.2438 43.5728 75.8362 43.4401 76.8234 44.0819C77.5693 44.5909 78.381 44.9892 79.0392 45.631Z" fill="#DF6D03"/>
<path d="M188.886 77.278C189.698 67.3412 189.04 57.5594 185.837 48.0431C185.552 47.1579 184.806 46.3612 185.157 45.321C185.266 45.2325 185.376 45.1218 185.486 45.0554C188.426 43.1522 188.601 43.1743 189.961 46.494C192.002 51.4734 193.077 56.6963 193.515 62.0519C193.888 66.5666 194.108 71.0813 193.779 75.6182C193.581 78.2517 193.208 80.8632 192.418 83.8951C191.124 81.505 190.005 79.4025 188.886 77.278Z" fill="#DF6D03"/>
<path d="M124.957 161.021C124.957 161.353 124.913 161.707 124.957 162.039C125.089 163.013 124.672 163.256 123.75 163.256C120.328 163.301 117.015 162.526 113.68 161.995C107.823 161.066 102.141 159.384 96.6779 157.038C95.6249 156.595 94.6157 156.02 93.6285 155.466C93.2336 155.245 92.729 155.046 92.7509 154.426C92.7728 153.762 92.5754 152.811 92.9264 152.479C93.3871 152.058 93.9356 152.899 94.4621 153.165C95.4274 153.696 96.4147 154.161 97.5335 154.271C98.3891 154.36 99.2448 154.493 100.035 154.802C104.115 156.396 108.415 157.06 112.693 157.679C116.225 158.189 119.801 158.454 123.377 158.609C124.781 158.675 125.067 159.207 124.935 160.402C124.913 160.645 124.935 160.844 124.957 161.021C124.935 161.021 124.935 161.021 124.957 161.021Z" fill="#C74F02"/>
<path d="M124.518 203.048C128.84 205.039 133.25 205.084 137.725 203.689C138.23 203.534 138.712 203.38 139.217 203.225C139.129 205.902 139.941 208.58 139.02 211.258C138.844 211.723 138.844 211.988 138.34 211.988C133.952 211.988 129.564 211.988 125.176 211.988C124.562 211.988 124.321 211.767 124.343 211.125C124.408 208.425 124.474 205.725 124.518 203.048Z" fill="#F08102"/>
<path d="M130.025 179.678C127.568 179.058 125.396 176.269 125.22 173.525C125.045 170.67 126.909 167.926 129.63 166.952C132.46 165.956 135.509 166.753 137.089 168.922C136.913 170.051 136.76 171.179 136.76 172.352C136.738 175.937 133.513 179.39 130.025 179.678Z" fill="#F2E156"/>
<path d="M157.646 156.573C161.419 155.732 165.149 154.714 168.768 153.342C169.076 153.231 169.405 153.098 169.734 153.054C170.282 152.966 171.094 152.39 171.335 153.187C171.577 153.962 171.796 154.98 170.633 155.533C165.434 157.989 160.059 159.959 154.443 161.176C151.415 161.818 148.387 162.46 145.294 162.725C143.978 162.902 142.705 163.389 141.367 163.367C140.446 163.345 139.371 163.478 138.888 162.393C138.581 161.685 139.502 159.959 140.38 159.45C141.06 159.052 141.806 158.941 142.574 158.808C145.733 158.255 148.936 158.144 152.095 157.635C153.916 157.303 155.781 156.949 157.646 156.573Z" fill="#C74F02"/>
<path d="M64.7132 167.793C66.7096 174.344 70.7683 179.301 76.2749 183.174C75.7703 184.834 75.1999 186.45 74.7611 188.132C74.5198 189.039 74.2346 189.061 73.5326 188.552C67.2362 183.794 63.4627 177.531 62.3658 169.652C61.9928 167.019 62.0586 164.385 62.6949 161.774C63.4408 161.884 63.4408 162.526 63.5066 163.057C63.6602 164.274 63.9892 165.47 63.8796 166.709C63.8137 167.284 64.077 167.727 64.7132 167.793Z" fill="#DEDEDE"/>
<path d="M157.909 208.403C158.677 208.802 159.445 209.2 160.19 209.598C159.774 210.572 159.006 210.019 158.501 209.842C157.382 209.466 156.636 209.731 155.912 210.683C154.881 212.055 153.543 213.161 152.271 214.423C152.951 214.932 153.96 214.379 154.662 215.485C151.854 215.441 149.287 215.64 146.72 215.352C144.658 214.489 143.736 212.785 143.89 210.085C144.175 209.886 143.736 209.156 144.46 209.244C146.983 208.536 149.462 207.739 152.117 207.717C154.091 207.695 156 207.983 157.909 208.403Z" fill="#FDFEFD"/>
<path d="M119.472 213.051C118.968 214.224 118.244 215.131 116.905 215.374C115.457 215.507 113.878 215.928 112.605 215.065C110.631 213.737 108.81 212.143 107.669 209.952C107.165 209.001 107.516 208.602 108.547 208.403C111.947 207.739 115.15 208.558 118.331 209.598C120.043 210.152 120.13 210.395 119.648 212.232C119.582 212.497 119.67 212.807 119.472 213.051Z" fill="#FDFEFD"/>
<path d="M119.472 213.051C119.604 210.417 119.604 210.417 116.883 209.51C114.141 208.58 111.355 208.271 108.481 208.669C107.691 208.78 107.603 209.112 107.932 209.709C109.271 212.011 111.201 213.715 113.395 215.109C114.426 215.751 115.743 215.175 116.927 215.352C109.951 216.282 105.958 215.928 102.294 210.948C101.921 210.196 102.492 209.908 102.974 209.709C103.479 209.51 103.984 209.244 104.554 209.222C108.854 207.474 113.176 207.452 117.564 208.89C118.419 209.178 119.341 209.266 120.218 209.443C120.24 210.705 120.108 211.922 119.472 213.051Z" fill="#DEDEDD"/>
<path d="M146.742 215.33C149.221 215.33 151.7 215.33 154.179 215.33C153.499 214.91 152.797 215.109 152.117 215.043C151.898 215.02 151.612 215.087 151.503 214.799C151.393 214.511 151.612 214.334 151.788 214.202C153.543 212.852 155.079 211.258 156.417 209.51C156.812 208.979 157.273 209.089 157.821 209.244C158.611 209.466 159.357 209.997 160.256 209.598C160.958 209.842 161.397 210.395 161.836 210.926C159.247 214.224 155.956 215.994 151.7 215.684C150.011 215.552 148.344 215.95 146.742 215.33Z" fill="#DEDEDE"/>
<path d="M130.025 179.678C132.131 178.969 133.996 177.863 135.268 175.937C136.102 174.654 136.519 173.282 136.453 171.733C136.409 170.781 136.233 169.697 137.111 168.944C139.063 171.467 139.195 174.565 137.484 177.11C135.882 179.5 132.986 180.496 130.025 179.678Z" fill="#FCFCFB"/>
<path d="M157.646 156.573C155.166 157.812 152.446 157.945 149.77 158.299C146.983 158.653 144.197 158.852 141.433 159.406C139.897 159.715 139.524 160.8 139.151 162.017C138.932 162.747 139.524 162.703 139.875 162.792C141.148 163.057 142.442 162.991 143.714 162.814C144.241 162.747 144.746 162.615 145.272 162.703C143.385 163.256 141.586 164.208 139.48 163.566C138.318 163.212 137.967 162.526 138.142 161.42C138.142 161.375 138.164 161.331 138.164 161.287C138.603 158.432 138.822 158.1 141.784 158.056C146.303 157.989 150.779 157.414 155.21 156.617C156 156.484 156.834 156.573 157.646 156.573Z" fill="#613F36"/>
<path d="M131.89 162.194C131.802 162.194 131.692 162.194 131.604 162.194C129.323 162.26 129.367 162.26 129.41 159.981C129.432 159.052 129.63 158.542 130.683 158.653C131.429 158.742 132.197 158.653 132.965 158.675C134.215 158.697 134.785 159.14 134.676 160.601C134.588 161.84 134.412 162.504 133.008 162.216C132.679 162.128 132.284 162.194 131.89 162.194Z" fill="#DCDCDC"/>
<path d="M64.7132 167.793C64.6474 168.081 64.6035 168.391 64.1867 168.103C63.704 167.771 63.3311 167.483 63.4408 166.731C63.6821 165.027 63.3969 163.345 62.6729 161.774C62.5194 161.154 62.7826 160.579 62.9581 160.003C63.1336 159.848 63.3091 159.848 63.4408 160.048C63.6602 162.681 64.2086 165.226 64.7132 167.793Z" fill="#FBF5EE"/>
<path d="M104.554 209.244C103.874 209.908 102.536 209.687 102.294 210.948C101.658 210.395 101.197 209.709 100.802 209.001C102.053 208.979 103.325 209.621 104.554 208.979C104.554 209.045 104.554 209.156 104.554 209.244Z" fill="#F4A025"/>
<path d="M143.89 202.893C143.868 203.225 143.934 203.579 143.583 203.8C143.736 201.056 143.342 198.312 143.824 195.567C143.868 195.612 143.912 195.678 143.934 195.744C144 198.135 144.109 200.525 143.89 202.893Z" fill="#988F8D"/>
<path d="M143.605 204.575C144.219 205.703 143.605 206.987 144.065 208.116C143.89 208.381 144.131 208.735 143.824 208.957C143.254 207.54 143.495 206.057 143.605 204.575Z" fill="#DBBD93"/>
<path d="M143.846 208.979C143.934 208.691 143.802 208.359 144.087 208.138C144.219 208.514 144.351 208.868 144.46 209.244C144.263 209.532 144.087 209.82 143.89 210.085C143.868 209.709 143.868 209.333 143.846 208.979Z" fill="#FAD8A5"/>
<path d="M83.3611 42.1785C83.032 42.267 82.6371 42.1342 82.4178 42.5326C82.1545 42.3998 81.8912 42.2891 81.628 42.1563C81.8693 41.5145 82.3081 41.8022 82.7249 41.9129C82.9662 42.0014 83.1637 42.0899 83.3611 42.1785Z" fill="#C6A774"/>
<path d="M82.7468 41.9129C82.3739 42.0015 81.9351 41.7359 81.6499 42.1564C81.4305 42.0236 80.8382 41.9351 81.4744 41.6474C81.8254 41.4703 82.3739 41.5588 82.7468 41.9129Z" fill="#937955"/>
<path d="M63.4627 160.047C63.3091 160.025 63.1336 160.025 62.9801 160.003C62.8923 159.649 63.1556 159.428 63.2872 159.14C63.5285 159.428 63.5505 159.738 63.4627 160.047Z" fill="#D9B690"/>
<path d="M76.7137 74.2903C76.7137 74.1133 76.7137 73.9362 76.7137 73.7592C76.8453 73.5379 76.9112 73.1174 77.3061 73.4936C77.1525 73.8034 77.0867 74.1797 76.7137 74.2903Z" fill="#CB6105"/>
<path d="M182.019 42.2227C181.91 41.9572 181.646 41.9793 181.427 41.9129C181.734 41.6252 182.129 41.4924 182.414 41.7801C182.568 41.935 182.283 42.1563 182.019 42.2227Z" fill="#9A7F59"/>
<path d="M166.575 104.233C164.315 104.145 162.494 104.056 160.761 103.459C155.693 101.777 153.982 97.4613 156.483 92.681C158.655 88.5204 163.635 86.6172 168.154 88.2327C172.564 89.8262 175.131 94.2745 174.275 98.8998C173.749 101.733 171.95 103.525 168.988 104.034C168.045 104.189 167.101 104.189 166.575 104.233Z" fill="#31201B"/>
<path d="M97.4458 104.189C96.5682 104.167 95.5152 104.256 94.484 103.99C90.6667 103.038 88.9335 99.8736 89.7233 95.2483C90.557 90.3353 95.559 86.8607 100.473 87.7459C105.717 88.6754 109.117 93.3229 108.305 98.413C107.998 100.338 106.814 101.578 105.212 102.529C103.216 103.702 101.044 104.189 97.4458 104.189Z" fill="#31201B"/>
<path d="M107.208 71.4356C111.377 70.993 114.536 76.3044 112.737 80.4429C112.298 81.483 111.465 82.1469 110.455 82.5232C107.56 83.6076 104.664 83.6518 101.877 82.1248C99.0254 80.5756 98.3453 77.3224 100.386 74.7774C102.119 72.6307 104.335 71.3028 107.208 71.4356Z" fill="#FDFEFD"/>
<path d="M157.119 83.3197C156.483 83.2533 155.912 83.209 155.342 83.1205C150.296 82.2795 149.748 77.9198 151.569 74.4452C153.587 70.5945 158.106 70.7272 161.397 72.8297C161.836 73.1174 162.231 73.4715 162.604 73.8477C164.03 75.2862 165.214 76.9017 164.49 79.0927C163.788 81.2394 162.121 82.4123 160.015 82.9435C159.072 83.1869 158.04 83.209 157.119 83.3197Z" fill="#FDFEFD"/>
<path d="M120.92 107.31C120.832 104.278 121.973 102.374 124.759 101.202C129.367 99.254 134.061 99.1876 138.712 101.024C140.687 101.799 142.486 102.95 142.947 105.34C143.342 106.845 143.078 108.283 142.508 109.655C141.235 112.687 138.954 114.701 136.058 116.096C135.729 116.25 135.312 116.273 135.093 116.671C135.531 117.446 136.628 117.468 136.979 118.331C140.643 120.699 143.122 120.278 145.799 116.87C146.654 115.764 147.334 114.546 147.993 113.307C148.629 112.134 149.594 112.001 150.669 112.533C151.656 113.042 152.183 113.75 151.656 114.989C150.34 118.176 148.519 120.964 145.492 122.713C144.504 123.288 144.066 124.041 143.846 125.191C143.056 129.463 141.345 133.291 137.879 136.08C134.105 139.134 129.235 139.045 125.527 135.881C122.061 132.915 120.438 128.976 119.604 124.616C119.428 123.731 119.055 123.2 118.309 122.713C115.501 120.876 113.527 118.331 112.298 115.188C111.794 113.86 112.167 112.953 113.307 112.466C114.602 111.913 115.392 112.223 116.05 113.551C116.62 114.723 117.278 115.83 118.09 116.87C120.745 120.256 123.268 120.677 126.909 118.309C127.26 117.446 128.292 117.335 128.884 116.56C127.502 115.852 126.142 115.188 124.957 114.237C123.553 113.108 122.412 111.78 121.622 110.165C121.183 109.279 120.92 108.35 120.92 107.31Z" fill="#31201B"/>
<path d="M136.979 118.353C135.992 117.888 135.093 117.313 134.171 116.538C139.283 114.458 142.881 111.293 142.947 105.34C144.504 108.991 143.144 113.816 139.985 116.272C139.02 117.025 137.791 117.379 136.979 118.353Z" fill="#DEDEDD"/>
<path d="M120.92 107.31C122.083 112.023 125.264 114.812 129.74 116.494C128.818 117.313 127.897 117.866 126.931 118.353C125.944 117.623 125.001 116.87 123.992 116.184C121.995 114.812 120.986 112.798 120.416 110.541C120.13 109.434 120.701 108.394 120.92 107.31Z" fill="#DDDDDD"/>
<path d="M143.89 202.893C143.912 200.503 143.934 198.112 143.956 195.744C144.263 198.135 144.329 200.525 143.89 202.893Z" fill="#E5BA7E"/>
<path d="M166.618 93.7654C166.64 95.4474 165.412 96.8859 163.898 96.9301C162.055 96.9744 160.761 95.7351 160.717 93.8318C160.673 92.2163 162.055 90.7778 163.701 90.7114C165.083 90.6671 166.575 92.2384 166.618 93.7654Z" fill="#FCFDFC"/>
<path d="M103.128 93.8984C103.128 95.7795 102.009 96.8418 100.1 96.8418C98.3014 96.8197 97.3141 95.7352 97.3361 93.7435C97.3361 92.1279 98.5427 90.8443 100.078 90.8222C101.877 90.7779 103.128 92.0173 103.128 93.8984Z" fill="#FCFDFC"/>
<path d="M132.021 107.974C130.244 107.708 128.401 107.774 126.756 106.823C125.966 106.38 125.242 105.783 125.264 104.853C125.286 103.879 126.032 103.215 126.909 102.861C130.244 101.556 133.579 101.578 136.913 102.861C137.769 103.193 138.559 103.747 138.669 104.765C138.756 105.871 137.879 106.336 137.111 106.801C135.553 107.774 133.776 107.797 132.021 107.974Z" fill="#614037"/>
<path d="M137.286 130.282C137.133 130.525 136.979 130.768 136.804 130.99C133.25 135.239 129.761 135.062 126.449 130.525C126.69 129.994 127.195 129.795 127.699 129.64C130.793 128.732 133.842 128.998 136.87 129.927C137.045 129.972 137.177 130.127 137.286 130.282Z" fill="#F28B7E"/>
<path d="M137.286 130.281C134.281 129.662 131.253 129.042 128.182 129.905C127.59 130.082 127.019 130.303 126.449 130.503C125.44 129.175 125.44 129.153 126.975 128.666C130.244 127.626 133.513 127.626 136.826 128.599C138.01 128.976 138.208 129.418 137.286 130.281Z" fill="#DDDBDB"/>
</g>
</g>
<defs>
<clipPath id="clip0_741_46">
<rect width="256" height="256" fill="white"/>
</clipPath>
<clipPath id="clip1_741_46">
<rect width="141" height="183" fill="white" transform="translate(58 37)"/>
</clipPath>
</defs>
</svg>
