<svg width="256" height="256" viewBox="0 0 256 256" fill="none" xmlns="http://www.w3.org/2000/svg">
<g clip-path="url(#clip0_2035_586)">
<path d="M256 128C256 57.3075 198.692 0 128 0C57.3075 0 0 57.3075 0 128C0 198.692 57.3075 256 128 256C198.692 256 256 198.692 256 128Z" fill="white"/>
<path d="M178.708 124.107C180.28 123.695 181.877 124.687 182.264 126.285L184.829 136.881C185.216 138.454 184.248 140.075 182.675 140.462C181.103 140.873 179.506 139.882 179.119 138.285L176.554 127.688C176.167 126.115 177.135 124.494 178.708 124.107ZM99.2287 46.6123C98.334 45.2091 98.7453 43.3945 100.051 42.4993L109.101 36.5233C110.479 35.6281 112.294 36.0394 113.189 37.3701C114.084 38.7734 113.673 40.588 112.367 41.4832L103.318 47.4591C101.963 48.3785 100.148 47.9672 99.2287 46.6123Z" fill="white"/>
<path fill-rule="evenodd" clip-rule="evenodd" d="M145.975 83.66C135.503 81.2997 124.265 83.2397 115.055 89.4854C128.918 84.8398 144.862 88.058 155.895 99.2116C171.427 114.914 171.427 140.487 155.895 156.189C154.032 158.076 151.999 159.746 149.846 161.173C155.532 159.213 160.903 156.02 165.427 151.447C176.411 140.343 179.628 124.304 175.077 110.309C162.406 105.311 152.032 95.7541 145.975 83.66Z" fill="#FFAE54"/>
<path d="M211.32 173.75C186.142 220.286 128.384 237.288 82.3962 211.897C36.392 186.496 19.4325 128.139 44.6255 81.5751C61.2017 50.9373 91.8976 33.0809 124.063 31.7071C128.332 31.5248 131.639 33.7736 133.937 37.7618C136.291 41.8465 137.339 47.4549 136.778 52.7596C136.561 54.8143 136.45 56.8994 136.45 59.0092C136.45 68.9112 138.897 78.2418 143.217 86.4303C123.217 78.8785 100.203 87.1613 89.6955 106.562C78.1833 127.818 85.93 154.599 107.037 166.264C128.171 177.942 154.728 170.037 166.25 148.764C172.697 136.834 173.094 123.156 168.465 111.392C176.509 115.521 185.628 117.85 195.291 117.85C200.708 117.85 205.96 117.117 210.95 115.743C213.801 114.957 216.858 115.293 219.142 116.463C221.35 117.594 222.664 119.371 222.808 121.664C223.911 139.18 220.279 157.207 211.32 173.75Z" fill="url(#paint0_radial_2035_586)" stroke="#AC562A" stroke-width="1.0716"/>
<path d="M186.958 154.592L190.465 153.36C190.465 153.359 190.465 153.361 190.465 153.36C192.939 160.405 189.734 166.54 187.375 171.056C187.303 171.196 187.23 171.333 187.16 171.47C185.729 174.214 184.589 176.448 184.07 178.68C183.255 182.205 183.378 185.486 184.379 187.96C185.315 190.276 187.088 192.106 190.274 192.951C192.395 193.502 195.65 192.694 199.933 190.049C216.424 170.524 223.943 145.933 222.483 121.785C222.345 119.494 221.039 117.715 218.84 116.577C216.566 115.4 213.517 115.05 210.667 115.82C205.762 117.144 200.606 117.851 195.291 117.851C185.493 117.851 176.254 115.456 168.128 111.219C172.884 122.996 172.395 136.4 166.559 147.802C165.611 149.656 164.521 151.456 163.289 153.189C165.747 152.429 168.84 150.985 172.66 148.592C178.393 145.011 184.853 148.567 186.958 154.592ZM186.958 154.592C188.893 160.1 186.379 164.924 183.864 169.752C182.479 172.41 181.094 175.068 180.45 177.842L186.958 154.592ZM120.04 84.3981L119.886 84.4258L119.736 84.466C110.399 86.9463 102.894 85.7554 97.15 82.696C91.3495 79.6075 87.0555 74.4583 84.4969 68.5823C81.9292 62.685 81.203 56.2652 82.3121 50.8501C83.4086 45.4956 86.2204 41.3584 90.599 39.2572C102.201 34.298 114.574 31.7666 126.959 31.6668C130.478 31.6384 133.267 33.581 135.171 36.9958C137.119 40.4889 137.902 45.2151 137.201 49.6065C136.709 52.6869 136.45 55.8406 136.45 59.0097C136.45 69.0033 138.941 78.4152 143.337 86.6578C135.895 83.7711 127.827 83.0171 120.04 84.3981Z" fill="#AC562A"/>
<path d="M186.958 154.592L190.465 153.36M186.958 154.592C184.853 148.567 178.393 145.011 172.66 148.592C168.84 150.985 165.747 152.429 163.289 153.189C164.521 151.456 165.611 149.656 166.559 147.802C172.395 136.4 172.884 122.996 168.128 111.219C176.254 115.456 185.493 117.851 195.291 117.851C200.606 117.851 205.762 117.144 210.667 115.82C213.517 115.05 216.566 115.4 218.84 116.577C221.039 117.715 222.345 119.494 222.483 121.785C223.943 145.933 216.424 170.524 199.933 190.049C195.65 192.694 192.395 193.502 190.274 192.951C187.088 192.106 185.315 190.276 184.379 187.96C183.378 185.486 183.255 182.205 184.07 178.68C184.589 176.448 185.729 174.214 187.16 171.47C187.23 171.333 187.303 171.196 187.375 171.056C189.734 166.54 192.939 160.405 190.465 153.36M186.958 154.592C188.893 160.1 186.379 164.924 183.864 169.752C182.479 172.41 181.094 175.068 180.45 177.842L186.958 154.592ZM190.465 153.36C190.465 153.361 190.465 153.359 190.465 153.36ZM120.04 84.3981L119.886 84.4258L119.736 84.466C110.399 86.9463 102.894 85.7554 97.15 82.696C91.3495 79.6075 87.0555 74.4583 84.4969 68.5823C81.9292 62.685 81.203 56.2652 82.3121 50.8501C83.4086 45.4956 86.2204 41.3584 90.599 39.2572C102.201 34.298 114.574 31.7666 126.959 31.6668C130.478 31.6384 133.267 33.581 135.171 36.9958C137.119 40.4889 137.902 45.2151 137.201 49.6065C136.709 52.6869 136.45 55.8406 136.45 59.0097C136.45 69.0033 138.941 78.4152 143.337 86.6578C135.895 83.7711 127.827 83.0171 120.04 84.3981Z" stroke="#AC562A" stroke-width="1.0716"/>
<path d="M55.9345 110.417C58.6711 110.417 60.8895 108.199 60.8895 105.462C60.8895 102.726 58.6711 100.507 55.9345 100.507C53.1979 100.507 50.9795 102.726 50.9795 105.462C50.9795 108.199 53.1979 110.417 55.9345 110.417Z" fill="#AC562A"/>
<path d="M127.778 197.132C130.515 197.132 132.733 194.913 132.733 192.177C132.733 189.44 130.515 187.222 127.778 187.222C125.042 187.222 122.823 189.44 122.823 192.177C122.823 194.913 125.042 197.132 127.778 197.132Z" fill="#AC562A"/>
<path d="M97.4288 204.563C101.876 204.563 105.481 200.958 105.481 196.511C105.481 192.064 101.876 188.459 97.4288 188.459C92.9819 188.459 89.377 192.064 89.377 196.511C89.377 200.958 92.9819 204.563 97.4288 204.563Z" fill="#AC562A"/>
</g>
<defs>
<radialGradient id="paint0_radial_2035_586" cx="0" cy="0" r="1" gradientUnits="userSpaceOnUse" gradientTransform="translate(127.978 127.648) rotate(90) scale(99.7435 98.7385)">
<stop offset="0.333505" stop-color="#F7B450"/>
<stop offset="0.64773" stop-color="#FFC977"/>
<stop offset="1" stop-color="#FF9900"/>
</radialGradient>
<clipPath id="clip0_2035_586">
<rect width="256" height="256" fill="white"/>
</clipPath>
</defs>
</svg>
