<svg width="256" height="256" viewBox="0 0 256 256" fill="none" xmlns="http://www.w3.org/2000/svg">
<mask id="mask0_903_328" style="mask-type:luminance" maskUnits="userSpaceOnUse" x="0" y="0" width="256" height="256">
<path d="M256 0H0V256H256V0Z" fill="white"/>
</mask>
<g mask="url(#mask0_903_328)">
<mask id="mask1_903_328" style="mask-type:luminance" maskUnits="userSpaceOnUse" x="0" y="0" width="256" height="257">
<path d="M256 0.808105H0.807526V256.001H256V0.808105Z" fill="white"/>
</mask>
<g mask="url(#mask1_903_328)">
<mask id="mask2_903_328" style="mask-type:luminance" maskUnits="userSpaceOnUse" x="0" y="0" width="256" height="257">
<path d="M256 0.808105H0.807526V256.001H256V0.808105Z" fill="white"/>
</mask>
<g mask="url(#mask2_903_328)">
<mask id="mask3_903_328" style="mask-type:luminance" maskUnits="userSpaceOnUse" x="0" y="0" width="256" height="257">
<path d="M256 0.808105H0.807526V256.001H256V0.808105Z" fill="white"/>
</mask>
<g mask="url(#mask3_903_328)">
<path d="M256 128.407C256 162.246 242.557 194.7 218.628 218.629C194.699 242.558 162.244 256 128.404 256C124.722 256 121.076 255.842 117.467 255.526C92.7882 253.403 69.2605 244.143 49.7552 228.875C30.25 213.607 15.6103 192.993 7.62341 169.546C-0.364271 146.099 -1.35437 120.835 4.77429 96.8346C10.9021 72.8352 23.8838 51.1382 42.1349 34.3908C60.3852 17.6434 83.116 6.57075 107.553 2.52321C131.991 -1.52434 157.077 1.62842 179.753 11.5963C202.43 21.5649 221.714 37.9174 235.253 58.6599C248.792 79.4024 256.001 103.636 256 128.407Z" fill="#FAF4E6"/>
<path d="M122.532 144.702C122.532 144.702 123.498 131.123 106.14 116.206C81.3055 94.8777 78.4547 90.1873 99.0365 93.521C119.618 96.8538 134.608 114.103 134.608 114.103" fill="#FFCA28"/>
<path d="M79.1912 182.232L78.563 173.553L61.4327 174.809C60.5824 174.872 59.7917 175.27 59.2353 175.916C58.6789 176.562 58.4011 177.402 58.4633 178.252L58.6006 180.483C58.6636 181.334 59.0609 182.125 59.7061 182.683C60.3514 183.242 61.1921 183.521 62.0424 183.461L79.1912 182.232Z" fill="#AC752C"/>
<path d="M79.1904 182.232L78.8714 177.896L58.5449 179.381L58.5998 180.483C58.6628 181.334 59.0601 182.125 59.7053 182.683C60.3506 183.241 61.1913 183.521 62.0424 183.461L79.1904 182.232Z" fill="#7D551F"/>
<path d="M154.852 152.579C151.853 149.408 148.43 146.668 144.679 144.437C141.036 142.197 137.138 140.421 133.313 138.554C129.935 136.906 126.865 135.03 123.187 134.311L122.685 135.021C122.513 135.258 122.33 135.485 122.166 135.722C121.793 136.26 121.383 136.787 120.973 137.325L120.819 137.525L120.299 138.199C120.117 138.435 119.917 138.663 119.726 138.9C119.316 139.429 118.888 139.938 118.45 140.44C117.176 141.96 115.827 143.445 114.426 144.884C114.189 145.132 113.952 145.369 113.716 145.594C113.342 145.986 112.959 146.368 112.567 146.732L111.739 147.525C111.457 147.797 111.183 148.053 110.901 148.308L110.719 148.481C110.3 148.872 109.863 149.264 109.417 149.637L109.117 149.901C108.949 150.066 108.773 150.221 108.588 150.366L108.06 150.812C107.604 151.185 107.149 151.568 106.712 151.932C106.083 152.452 105.419 152.97 104.763 153.471C104.107 153.972 103.707 154.281 103.16 154.664L102.86 154.874L101.53 155.784C100.82 156.286 100.082 156.778 99.3353 157.251C97.8178 158.241 96.2511 159.187 94.636 160.092C91.7207 161.742 88.7068 163.211 85.6106 164.491C84.2902 165.055 82.9424 165.583 81.5857 166.076C80.9025 166.321 80.2104 166.567 79.5191 166.796C78.8262 167.023 78.3077 167.205 77.6972 167.396C76.859 167.651 76.0304 167.887 75.2018 168.124C74.9894 168.212 74.7827 168.312 74.5824 168.425C74.4734 168.489 74.3458 168.562 74.2093 168.626L73.9994 168.753L73.7902 168.89C71.8754 170.09 70.3798 171.857 69.5101 173.944C69.5101 174.008 69.51 174.071 69.4374 174.144C68.9302 175.554 68.7348 177.059 68.8632 178.552C68.9173 179.404 69.0578 180.251 69.2823 181.075C69.4309 181.671 69.6538 182.246 69.947 182.786C71.0243 184.648 72.6765 186.108 74.6551 186.949C78.6808 188.843 83.9268 189.198 87.0868 189.207C100.514 188.988 113.712 185.694 125.666 179.575C137.621 173.458 148.013 164.68 156.045 153.918C155.662 153.48 155.271 153.034 154.852 152.579Z" fill="#FFB300"/>
<path d="M133.277 138.591C129.899 136.942 126.83 135.066 123.151 134.346L122.65 135.057C122.477 135.293 122.294 135.521 122.131 135.758C121.967 135.994 121.775 136.231 121.593 136.459C121.412 136.687 121.157 137.06 120.937 137.37L120.783 137.57L120.263 138.244C120.082 138.48 119.881 138.709 119.689 138.945C119.499 139.182 119.29 139.419 119.088 139.665L118.415 140.485C118.023 140.949 117.613 141.395 117.213 141.86C117.14 141.941 117.067 142.033 116.986 142.114L116.411 142.761C115.983 143.235 115.555 143.671 115.109 144.164L114.389 144.929C114.153 145.177 113.916 145.414 113.679 145.638C113.297 146.031 112.915 146.404 112.532 146.777L111.703 147.569C111.421 147.842 111.148 148.098 110.865 148.353L110.682 148.526C110.265 148.917 109.827 149.3 109.381 149.683L109.08 149.947L108.552 150.41L108.024 150.858C107.568 151.231 107.113 151.613 106.676 151.977L105.446 152.888L104.727 153.471C104.198 153.862 103.67 154.281 103.124 154.664L102.824 154.873L101.495 155.784C101.147 156.03 100.793 156.248 100.429 156.485L99.2989 157.251C98.753 157.606 98.2071 157.933 97.6604 158.279L96.7494 158.807C96.0387 159.244 95.3103 159.673 94.5908 160.092L93.1153 160.893L90.9026 162.04L89.373 162.778C88.6139 163.143 87.8395 163.498 87.0505 163.844L85.5662 164.49C84.6552 164.855 83.8178 165.21 82.9343 165.538L81.9232 165.92C81.7956 165.975 81.6502 166.02 81.5404 166.075C80.858 166.32 80.1651 166.567 79.4738 166.794L77.6528 167.395C76.8145 167.65 75.9859 167.887 75.1566 168.124C74.9442 168.212 74.7374 168.312 74.538 168.425C74.4281 168.489 74.3005 168.561 74.1641 168.625L73.9549 168.753L73.7449 168.889C71.8294 170.09 70.3346 171.856 69.4648 173.944C69.4648 174.007 69.4648 174.071 69.3921 174.143C68.885 175.554 68.6895 177.058 68.8179 178.552C68.8729 179.404 69.0126 180.25 69.2371 181.075H69.3833C72.637 181.1 75.8898 180.945 79.1274 180.61C83.8291 180.126 88.4831 179.258 93.0427 178.014C94.0901 177.741 95.1375 177.432 96.1849 177.103C114.354 171.47 130.188 160.062 141.282 144.61C141.665 144.081 142.03 143.536 142.393 142.998C139.407 141.458 136.328 140.029 133.277 138.591Z" fill="#FFD54F"/>
<path d="M158.323 150.713L141.238 144.702L120.821 137.526L120.975 137.326C121.193 137.025 121.422 136.724 121.631 136.415C121.841 136.105 121.986 135.95 122.168 135.714C122.35 135.477 122.514 135.249 122.687 135.013C123.136 134.405 123.574 133.798 123.998 133.191C124.281 132.79 124.544 132.371 124.818 131.971C125.356 131.142 125.884 130.322 126.376 129.485C126.557 129.201 126.73 128.92 126.904 128.638L127.058 128.373L127.969 126.843C128.273 126.297 128.576 125.76 128.88 125.231L129.845 123.328C130.109 122.8 130.382 122.263 130.638 121.726C130.893 121.188 131.175 120.577 131.457 120.004C131.539 119.813 131.63 119.631 131.703 119.448C131.876 119.066 132.04 118.684 132.204 118.292V118.21C132.432 117.645 132.677 117.09 132.905 116.516C132.965 116.392 133.017 116.264 133.059 116.134L133.187 115.815C133.342 115.405 133.479 115.013 133.625 114.613C133.771 114.212 133.888 113.966 133.998 113.647C134.108 113.329 134.244 112.991 134.363 112.664L134.453 112.418C134.517 112.217 134.59 112.008 134.654 111.798C134.717 111.589 134.79 111.389 134.854 111.161C135.309 109.765 135.737 108.363 136.138 106.954C136.329 106.235 136.521 105.532 136.702 104.814C136.967 103.794 137.204 102.774 137.413 101.726L137.486 101.408C137.486 101.316 137.486 101.235 137.486 101.153C137.732 99.9505 137.941 98.7391 138.15 97.51C138.214 97.0997 138.278 96.6903 138.324 96.2808C138.369 95.8706 138.433 95.4701 138.497 95.0509C138.561 94.6318 138.615 94.1408 138.67 93.603C138.67 93.3025 138.733 93.0199 138.761 92.692C138.834 92.1736 138.87 91.6365 138.916 91.0987C138.961 90.5616 138.998 90.1877 139.034 89.6596C139.089 88.8221 139.125 87.975 139.171 87.1278C139.171 86.6998 139.171 86.2169 139.171 85.8252C139.171 85.6621 139.171 85.4982 139.171 85.3431C139.18 85.1792 139.18 85.0144 139.171 84.8505C139.171 84.5323 139.171 84.2044 139.171 83.8862C139.171 83.5673 139.171 83.1393 139.171 82.7742C139.171 81.5362 139.116 80.3152 139.052 79.0772C139.052 79.0134 139.052 78.9496 139.052 78.8858C138.989 77.7657 138.906 76.6367 138.797 75.498C138.561 70.8448 136.785 60.0161 137.632 52.3118C138.023 48.8054 138.961 45.9369 140.856 44.6892C141.089 44.5236 141.339 44.3831 141.602 44.27C141.879 44.1772 142.162 44.1045 142.449 44.052H142.494C145.095 43.7153 147.732 44.2571 149.989 45.5912C153.257 47.4882 156.136 49.9852 158.478 52.949C168.14 67.4409 173.272 84.4806 173.22 101.898C173.168 119.316 167.934 136.324 158.186 150.759L158.323 150.713Z" fill="#FFD770"/>
<path d="M141.238 144.702C151.277 130.768 157.008 114.196 157.722 97.0371C158.436 79.8786 154.101 62.8873 145.255 48.1677C144.726 47.3117 144.189 46.4468 143.643 45.5997C143.296 45.0626 142.923 44.5248 142.577 44.0063C142.29 44.0588 142.006 44.1315 141.729 44.2244C141.467 44.3374 141.217 44.478 140.983 44.6435C139.089 45.9098 138.15 48.7597 137.76 52.2662C136.912 59.9341 138.67 70.7991 138.925 75.4523C139.034 76.591 139.116 77.72 139.18 78.8409C139.18 78.9039 139.18 78.9677 139.18 79.0315C139.244 80.2703 139.289 81.4906 139.299 82.7286C139.299 82.8376 139.299 82.9652 139.299 83.0661V83.9496C139.299 84.2686 139.299 84.5957 139.299 84.9147C139.308 85.0786 139.308 85.2425 139.299 85.4065C139.299 85.5615 139.299 85.7255 139.299 85.8886C139.299 86.3263 139.299 86.7995 139.299 87.1912C139.253 88.0384 139.216 88.8855 139.161 89.7229C139.161 90.2059 139.098 90.6888 139.044 91.162C138.989 91.6361 138.943 92.2369 138.888 92.7554C138.888 93.0566 138.825 93.3384 138.797 93.6663C138.742 94.1589 138.688 94.6402 138.624 95.1151C138.561 95.5883 138.506 95.9436 138.452 96.3442C138.397 96.7448 138.342 97.1631 138.278 97.5733C138.069 98.7758 137.86 99.9872 137.613 101.216C137.613 101.299 137.613 101.379 137.613 101.471L137.541 101.79C137.331 102.837 137.095 103.857 136.83 104.877C136.648 105.597 136.457 106.298 136.265 107.017C135.865 108.432 135.437 109.835 134.981 111.225C134.918 111.452 134.854 111.653 134.781 111.862C134.708 112.072 134.645 112.282 134.581 112.481L134.49 112.727C134.371 113.055 134.253 113.383 134.125 113.711C133.998 114.039 133.88 114.358 133.752 114.676C133.625 114.995 133.47 115.468 133.315 115.879L133.187 116.198C133.144 116.328 133.093 116.455 133.033 116.58C132.805 117.154 132.56 117.709 132.332 118.274V118.355C132.167 118.747 132.003 119.13 131.83 119.512C131.758 119.694 131.666 119.876 131.585 120.067C131.302 120.641 131.038 121.225 130.765 121.789C130.492 122.354 130.237 122.863 129.973 123.391L129.007 125.295C128.703 125.823 128.401 126.36 128.097 126.907L127.186 128.437L126.904 128.574C126.73 128.856 126.557 129.138 126.376 129.421C125.884 130.258 125.356 131.078 124.818 131.906C124.544 132.308 124.281 132.727 123.998 133.127C123.574 133.734 123.136 134.341 122.687 134.949C122.514 135.185 122.332 135.413 122.168 135.65C122.004 135.887 121.812 136.124 121.631 136.351C121.448 136.579 121.193 136.952 120.975 137.261L120.821 137.462L141.238 144.702Z" fill="#FFEA8C"/>
<path d="M120.821 137.526C120.821 137.526 139.18 144.419 146.484 151.714C157.976 163.207 162.394 166.74 155.709 201.365C155.472 202.631 155.263 203.897 155.117 205.181C154.471 210.937 153.833 225.526 176.5 191.758C203.757 151.14 165.098 139.721 165.098 139.721C150.891 135.613 135.801 135.167 120.821 137.526Z" fill="#FFCA28"/>
</g>
</g>
</g>
</g>
</svg>
