<svg width="256" height="256" viewBox="0 0 256 256" fill="none" xmlns="http://www.w3.org/2000/svg">
<g clip-path="url(#clip0_741_46)">
<path d="M128.369 256C57.8818 256 0.73764 198.856 0.73764 128.369C0.73764 57.8819 57.8818 0.737793 128.369 0.737793C198.856 0.737793 256 57.8819 256 128.369C255.975 198.856 198.831 256 128.369 256Z" fill="#4520E6"/>
<path d="M170.879 105.202C170.879 96.1634 166.448 88.1628 159.637 83.2509L178.019 64.8696L167.03 64.9203L152.422 79.5291C149.712 78.6176 146.826 78.1366 143.813 78.1366H93.5304V149.358L154.067 88.821C159.511 92.2391 163.157 98.3155 163.157 105.228C163.157 115.887 154.472 124.571 143.813 124.571H142.218L74.8452 191.944H85.7829L98.9992 178.727H143.813C158.751 178.727 170.879 166.575 170.879 151.662C170.879 141.813 165.587 133.205 157.713 128.47C165.587 123.685 170.879 115.051 170.879 105.202ZM101.253 130.673V85.8588H143.813C144.547 85.8588 145.256 85.9094 145.965 85.9854L101.253 130.673ZM163.157 151.611C163.157 162.27 154.472 170.955 143.813 170.955H106.721L145.256 132.42C155.232 133.179 163.157 141.458 163.157 151.611Z" fill="white"/>
</g>
<defs>
<clipPath id="clip0_741_46">
<rect width="256" height="256" fill="white"/>
</clipPath>
</defs>
</svg>
