<svg width="256" height="256" viewBox="0 0 256 256" fill="none" xmlns="http://www.w3.org/2000/svg">
<g clip-path="url(#clip0_741_46)">
<path d="M256 128C256 198.692 198.692 256 128 256C57.3075 256 0 198.692 0 128C0 57.3075 57.3075 0 128 0C198.692 0 256 57.3075 256 128Z" fill="black"/>
<mask id="mask0_741_46" style="mask-type:luminance" maskUnits="userSpaceOnUse" x="0" y="0" width="256" height="256">
<path d="M255.75 0.5H0.25V256H255.75V0.5Z" fill="white"/>
</mask>
<g mask="url(#mask0_741_46)">
<path d="M64.8715 29.4733L66.2085 28.2252C70.6651 24.102 75.1218 19.7783 79.8236 15.3654L89.0265 6.62891C83.2667 8.45455 77.6445 10.689 72.2026 13.3151C68.6373 16.7027 65.0943 20.0012 61.6404 23.2551L60.3034 24.5033C46.3541 37.4521 34.1206 48.7963 22.4218 56.463C19.887 60.1925 17.5515 64.0535 15.4249 68.0301C31.4465 60.4524 47.0449 45.8989 64.8715 29.4733Z" fill="#FFC100"/>
<path d="M61.3061 46.3001C41.2512 62.904 25.4524 76.0758 9.56443 80.6001C8.56909 83.0813 7.64803 85.5998 6.80127 88.1554C25.7643 84.478 43.6355 69.5902 65.5846 51.4484C72.2695 45.8544 79.1774 39.8146 86.4416 33.4404C98.8088 22.5643 111.845 11.1087 125.817 0.5C121.828 0.5 117.861 0.812023 113.895 1.23548C102.753 10.1503 92.1016 19.4887 81.9405 28.4258C74.8098 34.7777 67.9911 40.7506 61.3061 46.3001Z" fill="#FFB600"/>
<path d="M60.9496 69.3676C37.8865 86.2835 21.2408 97.6499 3.92673 98.1625C3.39194 100.392 2.91656 102.62 2.50061 104.849C22.2436 104.96 40.5828 92.5017 64.8937 74.6942C74.0522 68.0081 83.4558 60.2967 93.3941 52.1618C113.449 35.7809 135.264 17.9734 159.887 4.35591C156.656 3.53129 153.358 2.86267 150.039 2.2832C127.755 15.6555 107.7 31.8806 89.1603 46.9912C79.3111 55.1484 69.9743 62.7705 60.9496 69.3676Z" fill="#FFAC00"/>
<path d="M60.6154 92.4568C35.6136 108.37 18.9457 117.017 1.16366 113.963C0.911117 116.178 0.717998 118.407 0.58429 120.65C21.1517 123.971 39.6691 113.719 64.203 98.0955C75.9463 90.6293 88.0461 81.3578 100.882 71.5292C126.953 51.4708 156.233 29.1836 190.015 16.4799C187.414 14.994 184.755 13.6345 182.037 12.4014C149.681 25.6622 121.872 47.0356 96.7588 66.2025C84.1243 75.9643 72.1136 85.1912 60.6154 92.4568Z" fill="#FFA100"/>
<path d="M63.4899 121.408C77.9518 113.586 92.9261 102.731 108.792 91.2311C134.73 72.4207 164.121 51.1143 197.234 39.4358C202.943 37.4108 208.752 35.6776 214.638 34.2429C212.646 32.4005 210.589 30.6249 208.465 28.9163C204.009 30.1197 199.551 31.5239 195.094 33.1285C160.98 45.0745 131.164 66.7599 104.87 85.8376C89.2716 97.2041 74.3864 107.946 60.3034 115.547C34.8113 129.297 18.4109 135.16 0.383667 129.275C0.383667 131.638 0.383667 134 0.651063 136.34C21.8424 142.291 40.3598 133.978 63.4899 121.408Z" fill="#FF9600"/>
<path d="M62.6432 144.72C80.0018 136.986 97.9399 124.528 116.948 111.29C141.459 94.2843 166.706 76.722 195.429 65.4001C207.447 60.5889 219.956 57.1064 232.732 55.0143C231.246 52.9639 229.761 50.958 228.275 48.9968C216.209 51.2174 204.392 54.629 193 59.182C163.631 70.8382 136.869 89.4257 113.226 105.852C94.5083 118.867 76.8154 131.147 60.036 138.68C35.6804 149.467 19.9038 153.368 1.49786 145.099C1.83211 147.684 2.23321 150.247 2.74572 152.766C21.6865 159.742 38.956 155.307 62.6432 144.72Z" fill="#FF8C00"/>
<path d="M61.9747 168.032C82.3639 160.967 103.31 146.748 125.482 131.794C147.052 117.24 169.335 102.196 193.825 91.476C210.121 84.1678 227.38 79.2366 245.077 76.8333C244.14 74.6937 243.138 72.5838 242.068 70.5037C224.495 73.091 207.362 78.0856 191.151 85.347C166.105 96.3345 143.554 111.534 121.761 126.244C99.9677 140.953 79.4225 154.86 59.7686 161.725C36.1038 170.016 21.0849 170.64 4.97406 162.237C5.77625 165.21 6.67501 168.092 7.67033 170.885C23.4023 177.304 39.1789 176.011 61.9747 168.032Z" fill="#FF8100"/>
<path d="M61.1725 191.322C84.7482 185.283 108.658 169.347 133.949 152.498C152.49 140.152 171.653 127.403 192.109 117.486C210.992 107.945 231.32 101.589 252.274 98.6749C251.754 96.4907 251.182 94.3215 250.558 92.167C229.208 95.2749 208.496 101.791 189.212 111.468C168.355 121.564 148.99 134.468 130.273 146.927C105.427 163.464 81.9851 179.086 59.5235 184.815C39.9142 189.941 26.3883 189.562 12.2384 182.074C13.7239 185.343 15.3803 188.529 17.2075 191.634C30.1319 196.315 43.5018 195.846 61.1725 191.322Z" fill="#FF7600"/>
<path d="M142.328 173.382C157.792 163.063 173.792 152.365 190.438 143.472C211.807 131.995 230.704 125.063 249.823 121.519C251.761 121.163 253.655 120.895 255.549 120.628C255.416 118.385 255.223 116.156 254.97 113.942C252.876 114.231 250.758 114.565 248.597 114.967C228.787 118.622 209.267 125.82 187.296 137.589C170.36 146.637 154.228 157.424 138.629 167.832C110.887 186.353 84.6813 203.848 59.3007 207.949C46.3986 210.043 36.2152 209.465 27.0345 206.3C29.3668 209.271 31.8328 212.183 34.4325 215.036C43.0614 216.29 51.8366 216.132 60.4148 214.568C87.1547 210.222 113.895 192.326 142.328 173.382Z" fill="#FF6C00"/>
<path d="M188.744 169.481C210.337 156.755 228.698 148.821 246.503 144.475C249.399 143.762 252.23 143.182 255.015 142.715C255.267 140.441 255.468 138.153 255.617 135.849C252.117 136.385 248.553 137.098 244.92 138.078C226.447 142.536 207.529 150.76 185.357 163.82C171.987 171.643 159.152 180.447 146.651 188.96C116.123 209.576 87.3776 229.166 59.0778 231.15C56.8495 231.305 54.6212 231.35 52.6602 231.328C55.6685 233.556 58.7435 235.607 61.9523 237.546C91.2326 234.515 120.001 215.058 150.395 194.398C162.918 185.929 175.664 177.17 188.744 169.481Z" fill="#FF6100"/>
<path d="M187.051 195.468C209.178 181.025 226.47 172.49 243.138 167.408C245.589 166.666 247.995 166.011 250.357 165.447C251.092 163.063 251.717 160.633 252.318 158.182C248.679 158.924 244.964 159.868 241.176 161.012C223.907 166.272 206.081 175.164 183.418 189.941C173.547 196.337 163.743 203.313 154.25 209.999C131.276 226.202 109.171 241.759 87.3998 249.47C90.8464 250.628 94.3523 251.646 97.9176 252.523C117.794 243.898 137.648 229.924 158.082 215.459C167.531 208.662 177.29 201.775 187.051 195.468Z" fill="#FF5600"/>
<path d="M237.433 184.057C217.379 191.456 197.903 204.338 181.502 215.972C174.817 220.696 168.132 225.645 161.715 230.437C149.526 239.463 137.582 248.266 125.749 255.911H128.111C131.588 255.911 135.02 255.732 138.429 255.465C147.342 249.291 156.5 242.56 165.703 235.741C172.143 230.971 178.806 226.024 185.379 221.343C201.423 209.977 220.431 197.384 239.75 190.142C241.236 187.377 242.677 184.547 244.074 181.649C241.867 182.497 239.662 183.254 237.433 184.057Z" fill="#FF4C00"/>
<path d="M225.132 211.314C206.994 220.764 189.168 234.537 171.653 248.4C192.377 240.855 210.8 228.08 225.132 211.314Z" fill="#FF4100"/>
</g>
</g>
<defs>
<clipPath id="clip0_741_46">
<rect width="256" height="256" fill="white"/>
</clipPath>
</defs>
</svg>
