<svg width="256" height="256" viewBox="0 0 256 256" fill="none" xmlns="http://www.w3.org/2000/svg">
<mask id="mask0_1740_234" style="mask-type:luminance" maskUnits="userSpaceOnUse" x="1" y="0" width="255" height="255">
<path d="M256 0H1V254.694H256V0Z" fill="white"/>
</mask>
<g mask="url(#mask0_1740_234)">
<path d="M128.5 254.694C198.916 254.694 256 197.679 256 127.347C256 57.0149 198.916 0 128.5 0C58.0839 0 1 57.0149 1 127.347C1 197.679 58.0839 254.694 128.5 254.694Z" fill="#0AC18E"/>
<path d="M168.27 84.5857C161.863 70.0735 147.139 66.9704 129.115 69.9764L123.322 47.5454L109.666 51.0685L115.361 73.4349C111.769 74.3401 108.08 75.1159 104.424 76.15L98.7282 53.9126L85.0719 57.4359L90.8647 79.867C87.9199 80.7075 63.2933 87.0101 63.2933 87.0101L67.0471 101.619C67.0471 101.619 77.0792 98.8072 76.982 99.0337C82.5479 97.5793 85.1691 100.359 86.399 102.977L102.32 164.452C102.514 166.23 102.191 169.268 98.3723 170.303C98.5986 170.432 88.4374 172.856 88.4374 172.856L89.9259 189.889C89.9259 189.889 114.326 183.652 117.53 182.843L123.387 205.533L137.043 202.01L131.185 179.159C134.939 178.286 138.596 177.381 142.156 176.444L147.98 199.166L161.637 195.643L155.78 172.985C176.814 167.879 191.667 154.627 188.625 134.361C186.684 122.143 173.319 112.124 162.219 110.993C169.047 104.948 172.51 96.1249 168.27 84.5857ZM161.702 138.078C164.42 158.15 136.493 160.606 127.27 163.03L119.245 133.004C128.499 130.58 157.106 120.398 161.702 138.078ZM144.874 97.1914C147.754 115.033 123.872 117.102 116.17 119.073L108.857 91.8259C116.591 89.9189 139.017 80.6751 144.874 97.1914Z" fill="white"/>
</g>
</svg>
