<svg width="256" height="256" viewBox="0 0 256 256" fill="none" xmlns="http://www.w3.org/2000/svg">
<g clip-path="url(#clip0_741_46)">
<circle cx="128" cy="128" r="128" fill="url(#paint0_linear_741_46)"/>
<path d="M117.489 17.7028C123.739 14.0991 131.439 14.0991 137.689 17.7028L218.078 64.0554C224.328 67.6589 228.178 74.3189 228.178 81.5265V174.232C228.178 181.439 224.328 188.099 218.078 191.703L137.689 238.055C131.439 241.659 123.739 241.659 117.489 238.055L37.1 191.703C30.8501 188.099 27 181.439 27 174.232V81.5265C27 74.3189 30.8501 67.6589 37.1 64.0554L117.489 17.7028Z" fill="url(#paint1_linear_741_46)"/>
<path d="M92.2383 86.3821C92.2383 82.8386 95.1148 79.9658 98.6629 79.9658H134.64C150.251 79.9658 162.907 92.6053 162.907 108.197C162.907 123.789 150.251 136.428 134.64 136.428H92.2383V86.3821Z" fill="white"/>
<path d="M92.2383 118.785H145.24C160.852 118.785 173.507 131.424 173.507 147.016C173.507 162.607 160.852 175.246 145.24 175.246H99.3053C95.4021 175.246 92.2383 172.087 92.2383 168.189V118.785Z" fill="url(#paint2_linear_741_46)"/>
<g filter="url(#filter0_d_741_46)">
<path fill-rule="evenodd" clip-rule="evenodd" d="M92.2383 118.782V136.426H134.64C145.069 136.426 154.18 130.785 159.079 122.391C154.988 120.093 150.267 118.782 145.24 118.782H92.2383Z" fill="url(#paint3_linear_741_46)"/>
</g>
</g>
<defs>
<filter id="filter0_d_741_46" x="89.7894" y="117.313" width="71.7382" height="22.5414" filterUnits="userSpaceOnUse" color-interpolation-filters="sRGB">
<feFlood flood-opacity="0" result="BackgroundImageFix"/>
<feColorMatrix in="SourceAlpha" type="matrix" values="0 0 0 0 0 0 0 0 0 0 0 0 0 0 0 0 0 0 127 0" result="hardAlpha"/>
<feOffset dy="0.979569"/>
<feGaussianBlur stdDeviation="1.22446"/>
<feComposite in2="hardAlpha" operator="out"/>
<feColorMatrix type="matrix" values="0 0 0 0 0 0 0 0 0 0 0 0 0 0 0 0 0 0 0.1 0"/>
<feBlend mode="normal" in2="BackgroundImageFix" result="effect1_dropShadow_741_46"/>
<feBlend mode="normal" in="SourceGraphic" in2="effect1_dropShadow_741_46" result="shape"/>
</filter>
<linearGradient id="paint0_linear_741_46" x1="128" y1="0" x2="128" y2="256" gradientUnits="userSpaceOnUse">
<stop stop-color="#2D3749"/>
<stop offset="1"/>
</linearGradient>
<linearGradient id="paint1_linear_741_46" x1="127.589" y1="8.25849" x2="127.589" y2="247.5" gradientUnits="userSpaceOnUse">
<stop/>
<stop offset="1" stop-color="#2D3749"/>
</linearGradient>
<linearGradient id="paint2_linear_741_46" x1="117.635" y1="181.753" x2="152.355" y2="125.328" gradientUnits="userSpaceOnUse">
<stop stop-color="#30FFB4"/>
<stop offset="1" stop-color="#00B68A"/>
</linearGradient>
<linearGradient id="paint3_linear_741_46" x1="95.5627" y1="118.782" x2="167.753" y2="118.782" gradientUnits="userSpaceOnUse">
<stop stop-color="#FFE247"/>
<stop offset="1" stop-color="#3FFFAE"/>
</linearGradient>
<clipPath id="clip0_741_46">
<rect width="256" height="256" fill="white"/>
</clipPath>
</defs>
</svg>
