<svg width="256" height="257" viewBox="0 0 256 257" fill="none" xmlns="http://www.w3.org/2000/svg">
<circle cx="128" cy="128" r="124" fill="black"/>
<path d="M128 13.7101C143.443 13.7101 158.415 16.7432 172.502 22.7288C179.27 25.6002 185.81 29.1592 191.919 33.3113C197.975 37.4229 203.669 42.1413 208.852 47.3314C214.036 52.535 218.736 58.251 222.818 64.3309C226.941 70.4645 230.499 77.03 233.36 83.8245C239.321 97.9659 242.343 112.997 242.343 128.5C242.343 144.003 239.321 159.034 233.36 173.176C230.499 179.97 226.954 186.535 222.818 192.669C218.722 198.749 214.023 204.465 208.852 209.668C203.669 214.872 197.975 219.59 191.919 223.688C185.81 227.841 179.27 231.4 172.502 234.271C158.415 240.257 143.443 243.29 128 243.29C112.557 243.29 97.5846 240.257 83.4979 234.271C76.7303 231.4 70.1904 227.841 64.0805 223.688C58.0243 219.577 52.3307 214.859 47.1473 209.668C41.9638 204.465 37.2639 198.749 33.1817 192.669C29.0591 186.535 25.5006 179.97 22.6404 173.176C16.6781 159.034 13.6567 144.003 13.6567 128.5C13.6567 112.997 16.6781 97.9659 22.6404 83.8245C25.5006 77.03 29.0457 70.4645 33.1817 64.3309C37.2773 58.251 41.9773 52.535 47.1473 47.3314C52.3307 42.1278 58.0243 37.4095 64.0805 33.3113C70.1904 29.1592 76.7303 25.6002 83.4979 22.7288C97.5846 16.7432 112.557 13.7101 128 13.7101ZM128 0C57.2992 0 0 57.523 0 128.5C0 199.477 57.2992 257 128 257C198.7 257 256 199.477 256 128.5C256 57.523 198.687 0 128 0Z" fill="white"/>
<path d="M89.2022 79.1263V69.6203C89.2022 61.9401 94.1944 55.6795 101.71 54.3543C107.387 53.3402 112.648 54.4084 116.821 58.7895C119.56 61.6561 120.982 65.131 121.036 69.1068C121.089 72.4061 121.036 75.7191 121.036 79.072H138.294C138.294 78.8692 138.321 78.6533 138.321 78.423V69.4038C138.348 60.8719 145.045 54.1245 153.513 54.0434C156.438 54.0163 159.27 54.3003 161.874 55.72C167.215 58.6408 170.007 63.1841 170.154 69.2959C170.235 72.5277 170.168 75.7596 170.168 79.0995H192.593C196.781 79.0995 199.559 81.912 199.935 86.1167C200.257 89.7137 199.344 92.9998 198.163 96.2854C196.942 99.6926 195.197 102.884 192.969 105.724C191.211 107.968 189.239 110.064 187.211 112.079C184.581 114.675 181.817 117.136 179.065 119.624C177.563 120.976 176.221 122.45 175.361 124.303C175.12 124.83 174.905 125.452 174.905 126.02C174.879 139.866 174.932 153.712 174.865 167.559C174.784 184.204 162.572 199.038 146.36 202.202C143.851 202.675 141.314 202.932 138.764 202.946C131.637 203.04 124.511 202.986 117.385 202.972C99.992 202.972 85.4174 191.019 82.0085 173.86C81.5662 171.48 81.3378 169.074 81.3515 166.653C81.2838 153.158 81.3242 139.663 81.3112 126.182C81.3112 125.763 81.2168 125.344 81.0425 124.965C79.9555 122.423 78.0364 120.557 76.0366 118.731C73.3395 116.271 70.6684 113.783 68.0246 111.268C64.938 108.334 62.1868 105.115 60.1737 101.329C57.9191 97.0829 56 92.6753 56 87.7124C56 86.5904 56.1207 85.4815 56.3623 84.3863C57.1138 81.2355 59.8919 79.1125 63.1262 79.0995H89.1755L89.2022 79.1263ZM113.99 94.4058H86.5584C84.8 94.4058 83.2836 95.5958 83.0559 97.34C82.9082 98.341 82.9212 99.3681 83.0956 100.369C83.6999 103.466 85.042 106.264 87.1758 108.563C89.3095 110.862 91.645 112.903 93.8054 115.135C95.4428 116.812 96.4895 118.812 96.4895 121.287C96.4758 136.405 96.4758 151.522 96.4895 166.639C96.4895 167.707 96.5435 168.776 96.6905 169.83C98.2076 180.215 106.85 187.706 117.264 187.706H138.724C139.784 187.706 140.844 187.652 141.904 187.517C152.118 186.097 159.727 177.321 159.74 166.937C159.74 164.422 159.713 161.893 159.754 159.378C159.754 158.797 159.592 158.554 159.029 158.378C153.754 156.755 148.709 154.442 144.025 151.508C133.262 144.775 125.008 135.742 119.667 124.1C117.103 118.515 115.345 112.688 114.728 106.562C114.325 102.546 114.245 98.5032 114.003 94.379L113.99 94.4058ZM158.68 134.944C158.72 131.158 155.714 128.062 151.97 128.008C148.212 127.967 145.139 130.996 145.085 134.782C145.045 138.568 148.051 141.665 151.795 141.719H151.809C155.553 141.773 158.626 138.757 158.667 134.985V134.944H158.68Z" fill="white"/>
<path d="M116.986 135.027C116.972 138.894 113.824 142.014 109.972 142C106.107 141.986 102.987 138.838 103 134.973C103.014 131.107 106.162 127.987 110.028 128H110.055C113.907 128 117.013 131.148 117 134.986V135.014L116.986 135.027Z" fill="white"/>
</svg>
