<svg width="256" height="256" viewBox="0 0 256 256" fill="none" xmlns="http://www.w3.org/2000/svg">
<path d="M127.502 252.891C196.76 252.891 252.905 196.75 252.905 127.497C252.905 58.2437 196.76 2.10278 127.502 2.10278C58.2432 2.10278 2.09808 58.2437 2.09808 127.497C2.09808 196.75 58.2432 252.891 127.502 252.891Z" fill="#F5EEE4"/>
<path d="M127.445 255.001C57.078 254.951 -0.170086 197.899 0.000379708 127.144C0.170845 57.01 57.1111 -0.203055 127.916 0.000541707C198.065 0.204138 255.055 57.0952 255.001 127.615C254.946 197.994 197.93 254.994 127.445 255.001ZM12.9818 127.547C13.595 158.759 24.3154 185.92 46.5352 208.197C68.6862 230.403 95.6956 241.712 126.945 241.857C158.42 242.001 185.694 230.837 208.096 208.562C230.498 186.287 241.804 159.159 241.865 127.729C241.927 96.2544 230.674 69.0175 208.343 46.6739C186.137 24.4606 159.059 13.2036 127.762 13.1349C96.4224 13.0662 69.2829 24.2262 46.9471 46.3874C24.4883 68.6813 13.6282 95.9443 12.9818 127.547Z" fill="#C2BBAF"/>
<path d="M78.0785 127.542C78.0785 110.812 78.0785 94.0828 78.0785 77.3532C78.0785 75.2225 79.0681 73.6269 80.6023 72.2727C81.7601 71.25 83.1925 70.7031 84.5065 69.9527C86.107 69.0365 87.769 68.2292 89.3908 67.3485C90.6243 66.6809 91.8815 66.0488 93.1363 65.4167C94.5142 64.7231 95.8519 63.9513 97.2156 63.2316C98.4468 62.5806 99.6945 61.9579 100.926 61.3093C102.251 60.599 103.565 59.8888 104.889 59.1786C105.876 58.6554 106.854 58.1085 107.865 57.6327C108.634 57.2728 109.338 56.797 110.1 56.4277C111.135 55.9258 112.148 55.386 113.164 54.851C113.888 54.4698 114.603 54.0697 115.325 53.6862C116.313 53.163 117.305 52.6493 118.297 52.1308C119.021 51.7521 119.743 51.3685 120.472 50.9945C121.36 50.5488 122.292 50.1996 123.254 49.9528C125.248 49.4494 127.313 49.2893 129.36 49.4793C130.569 49.5649 131.763 49.8035 132.912 50.1896C134.166 50.6181 135.331 51.2857 136.513 51.9012C137.813 52.5783 139.086 53.3051 140.419 53.9206C141.13 54.2497 141.795 54.6853 142.491 55.0546C143.911 55.8074 145.332 56.5484 146.753 57.2965C147.756 57.8268 148.739 58.395 149.759 58.8874C151.012 59.4958 152.193 60.2368 153.467 60.8074C154.142 61.108 154.769 61.5176 155.425 61.8632C156.654 62.5166 157.892 63.1558 159.123 63.8045C160.032 64.278 160.932 64.7799 161.843 65.2557C162.914 65.8144 163.996 66.3566 165.066 66.9129C165.991 67.3982 166.905 67.9048 167.826 68.3949C169.228 69.1383 170.622 69.9006 172.041 70.6132C173.146 71.1671 174.233 71.7661 175.102 72.6397C176.084 73.5753 176.792 74.7602 177.152 76.0677C177.34 76.8959 177.419 77.745 177.389 78.5937C177.389 111.507 177.389 144.419 177.389 177.331C177.407 178.358 177.203 179.376 176.79 180.316C176.376 181.256 175.764 182.095 174.995 182.776C174.048 183.638 172.957 184.22 171.832 184.786C170.708 185.352 169.626 185.986 168.518 186.573C167.5 187.108 166.463 187.603 165.463 188.171C164.767 188.567 164.043 188.922 163.333 189.293L160.359 190.856C159.608 191.251 158.86 191.649 158.11 192.04L155.141 193.6L152.892 194.783C151.876 195.319 150.872 195.887 149.835 196.379C149.094 196.732 148.415 197.175 147.678 197.537C146.646 198.046 145.64 198.6 144.622 199.135L142.46 200.283C141.467 200.801 140.476 201.32 139.486 201.841C138.724 202.243 137.969 202.657 137.202 203.053C135.845 203.763 134.526 204.516 133.077 205.032C130.89 205.808 128.633 205.979 126.346 205.872C125.118 205.806 123.904 205.584 122.731 205.214C121.781 204.907 120.86 204.517 119.978 204.05C118.943 203.519 117.937 202.934 116.881 202.437C116.189 202.113 115.529 201.696 114.845 201.341C113.436 200.61 112.034 199.862 110.633 199.118C109.615 198.581 108.601 198.039 107.583 197.504C106.191 196.772 104.794 196.05 103.402 195.319C102.758 194.98 102.128 194.608 101.487 194.279C100.388 193.706 99.2825 193.148 98.184 192.572C97.2606 192.099 96.3562 191.569 95.4281 191.093C94.3769 190.553 93.3494 189.973 92.2792 189.469C91.569 189.135 90.906 188.702 90.2076 188.342C89.1588 187.804 88.1336 187.22 87.0611 186.722C86.3769 186.408 85.7329 186.012 85.0652 185.648C84.0519 185.108 83.0078 184.615 82.0252 184.024C80.4579 183.077 79.2007 181.855 78.5094 180.096C78.2048 179.287 78.0585 178.427 78.0785 177.563V127.542ZM168.52 135.397C167.786 135.778 167.116 136.124 166.451 136.474C165.03 137.219 163.61 137.967 162.189 138.719C161.242 139.216 160.328 139.732 159.388 140.227C158.318 140.79 157.236 141.328 156.166 141.884C155.096 142.44 154.035 143.042 152.972 143.607C151.715 144.273 150.434 144.895 149.184 145.582C148.111 146.176 147.03 146.765 145.943 147.319C144.709 147.956 143.495 148.636 142.247 149.249C141.217 149.755 140.218 150.326 139.202 150.863C137.824 151.59 136.432 152.284 135.068 153.041C134.147 153.562 133.162 153.96 132.137 154.225C130.684 154.612 129.185 154.802 127.682 154.789C126.605 154.773 125.532 154.673 124.471 154.488C123.576 154.341 122.696 154.11 121.843 153.799C120.169 153.172 118.616 152.225 117.025 151.391C115.434 150.558 113.784 149.701 112.181 148.818C110.829 148.072 109.444 147.398 108.083 146.661C106.819 145.984 105.545 145.319 104.278 144.642C103.118 144.022 101.982 143.354 100.8 142.779C100.05 142.414 99.3394 141.988 98.6007 141.609C97.6039 141.1 96.6285 140.551 95.6246 140.059C94.9144 139.711 94.2467 139.296 93.5506 138.929C92.3084 138.274 91.0639 137.622 89.8169 136.971L86.8906 135.445V176.135C86.8942 176.196 86.8942 176.257 86.8906 176.318C86.8622 176.536 86.9617 176.618 87.1605 176.713C87.8708 177.052 88.5621 177.423 89.2558 177.795C90.8421 178.645 92.4237 179.507 94.0147 180.349C95.6057 181.192 97.1801 182.007 98.7664 182.823C100.388 183.666 102.027 184.481 103.634 185.354C105.138 186.166 106.655 186.952 108.166 187.752C110.076 188.768 111.999 189.755 113.909 190.771C115.415 191.573 116.935 192.352 118.441 193.155C119.776 193.865 121.119 194.575 122.466 195.285C123.969 196.081 125.492 196.789 127.201 197.044C127.514 197.097 127.835 197.097 128.148 197.044C129.135 196.894 130.096 196.607 131.003 196.19C131.879 195.752 132.784 195.366 133.657 194.918C134.732 194.364 135.788 193.763 136.851 193.193C137.876 192.643 138.904 192.094 139.943 191.571C140.89 191.097 141.773 190.553 142.711 190.098C143.786 189.578 144.795 188.934 145.884 188.441C146.594 188.122 147.238 187.698 147.92 187.336C149.34 186.585 150.761 185.847 152.181 185.094C153.128 184.599 154.026 184.05 154.982 183.593C156.28 182.973 157.508 182.224 158.794 181.58C159.469 181.242 160.134 180.87 160.792 180.508C161.829 179.916 162.923 179.412 163.97 178.851C165.319 178.141 166.645 177.371 168.02 176.72C168.473 176.502 168.551 176.263 168.551 175.832C168.541 162.548 168.541 149.265 168.551 135.982L168.52 135.397ZM166.583 77.7959C166.548 77.7272 166.489 77.6735 166.418 77.6443C165.123 76.9602 163.835 76.2571 162.53 75.5894C160.702 74.6425 158.901 73.6576 157.063 72.7296C155.553 71.9649 154.08 71.1245 152.565 70.3622C150.695 69.4152 148.855 68.3925 146.999 67.4077C145.865 66.804 144.726 66.2098 143.589 65.6132L140.306 63.8779C139.318 63.3523 138.336 62.8197 137.346 62.2965C136.636 61.9201 135.926 61.5555 135.215 61.1838C134.223 60.6653 133.229 60.154 132.246 59.6213C131.553 59.2473 130.902 58.7903 130.139 58.5631C129.137 58.2916 128.096 58.1963 127.061 58.2814C126.107 58.3395 125.178 58.6071 124.339 59.065C123.671 59.4224 123.025 59.8202 122.345 60.1492C121.09 60.7553 119.88 61.4442 118.647 62.0929C117.724 62.5664 116.805 63.0753 115.882 63.563C114.881 64.0917 113.877 64.6173 112.87 65.1397C111.923 65.6274 111.009 66.1601 110.067 66.643C108.978 67.2017 107.898 67.7794 106.811 68.3428C105.509 69.0175 104.224 69.7254 102.926 70.4119C101.629 71.0985 100.322 71.7708 99.0339 72.455C98.3781 72.803 97.7341 73.1771 97.0759 73.518C96.0295 74.0601 94.957 74.5525 93.9318 75.1302C92.7717 75.7859 91.5784 76.3754 90.4088 77.0122C89.9353 77.2703 89.4097 77.4431 89.0143 77.7817C89.8619 78.3285 90.7782 78.7286 91.6542 79.2021C92.838 79.846 94.0052 80.5231 95.2056 81.1102C95.9561 81.4748 96.6711 81.8938 97.4098 82.2726C98.4042 82.784 99.3867 83.319 100.376 83.8398C101.126 84.236 101.877 84.6306 102.63 85.0235C103.577 85.5112 104.51 86.0013 105.441 86.5008C106.371 87.0003 107.363 87.5259 108.322 88.0444C109.345 88.6007 110.382 89.131 111.412 89.6755C112.548 90.2744 113.68 90.8805 114.814 91.4795C115.429 91.8062 116.05 92.121 116.665 92.4501C117.745 93.0277 118.817 93.6149 119.899 94.1878C121.154 94.8554 122.421 95.4969 123.669 96.174C124.509 96.6262 125.345 97.0689 126.311 97.2015C127.22 97.3024 128.137 97.3135 129.048 97.2346C129.666 97.1878 130.268 97.0146 130.816 96.7256C131.723 96.2687 132.611 95.7787 133.504 95.2933C134.886 94.5476 136.288 93.8398 137.678 93.1106C138.667 92.5898 139.65 92.0571 140.637 91.5363C142.069 90.7787 143.502 90.0282 144.932 89.2707C145.853 88.7806 146.755 88.2503 147.69 87.7934C148.94 87.1802 150.157 86.5079 151.381 85.8474C152.286 85.3573 153.214 84.917 154.109 84.4033C155.089 83.8398 156.114 83.3545 157.118 82.8266C157.897 82.4194 158.666 81.9956 159.443 81.5861C160.688 80.9303 161.936 80.2864 163.179 79.6282C164.31 79.0103 165.447 78.4019 166.576 77.7959H166.583ZM123.373 145.044V108.508C122.454 109.062 121.543 109.526 120.631 109.99C119.921 110.35 119.255 110.764 118.559 111.129C117.515 111.676 116.429 112.161 115.415 112.746C114.113 113.494 112.756 114.128 111.447 114.862C110.183 115.573 108.874 116.209 107.59 116.891C106.523 117.459 105.488 118.091 104.397 118.608C103.369 119.095 102.41 119.704 101.387 120.194C100.623 120.561 99.891 120.992 99.1405 121.377C97.8809 122.04 96.6143 122.691 95.3523 123.354C94.2049 123.96 93.059 124.571 91.9146 125.187C90.9534 125.7 89.9969 126.219 88.9599 126.777C89.5139 127.071 90.03 127.317 90.5201 127.611C91.5571 128.236 92.6723 128.709 93.7187 129.322C94.957 130.047 96.297 130.591 97.5447 131.297C98.5344 131.853 99.5406 132.374 100.542 132.904C102.131 133.749 103.736 134.561 105.317 135.423C107.138 136.408 108.992 137.329 110.796 138.347C111.795 138.913 112.818 139.438 113.834 139.978C114.717 140.452 115.586 140.942 116.49 141.368C117.75 141.962 118.95 142.667 120.181 143.316C121.237 143.877 122.333 144.358 123.373 145.044ZM166.628 126.787C166.062 126.47 165.558 126.174 165.04 125.902C164.05 125.381 163.049 124.886 162.061 124.365C161.074 123.844 160.167 123.342 159.22 122.838C158.193 122.291 157.149 121.775 156.142 121.205C155.048 120.587 153.905 120.068 152.828 119.439C151.644 118.752 150.358 118.231 149.165 117.545C147.323 116.498 145.427 115.558 143.57 114.543C142.815 114.131 142.013 113.799 141.281 113.359C140.211 112.698 139.053 112.208 137.966 111.576C136.989 111.006 135.963 110.513 134.96 109.985L132.303 108.589V144.978L166.628 126.787ZM168.496 117.758V86.6476C168.324 86.5908 168.217 86.6949 168.108 86.7683C167.092 87.462 165.946 87.9165 164.874 88.5013C163.801 89.086 162.729 89.6258 161.654 90.1869C160.743 90.6603 159.843 91.1599 158.931 91.6357C157.859 92.1968 156.777 92.7342 155.707 93.2929C154.637 93.8516 153.595 94.4766 152.508 95.0116C151.421 95.5467 150.377 96.1006 149.324 96.657C148.398 97.1423 147.486 97.6465 146.561 98.1319C145.502 98.6858 144.43 99.2185 143.374 99.7725C142.664 100.137 141.989 100.521 141.293 100.89C140.507 101.304 139.716 101.711 138.873 102.149C139.47 102.478 140.026 102.805 140.599 103.096C142.657 104.155 144.714 105.215 146.755 106.302C148.611 107.289 150.481 108.25 152.335 109.244C154.068 110.175 155.813 111.082 157.558 111.993C158.361 112.412 159.194 112.779 159.971 113.241C161.093 113.908 162.277 114.448 163.418 115.078C164.396 115.62 165.402 116.108 166.392 116.624C167.083 116.995 167.77 117.367 168.496 117.758ZM116.523 102.161L86.9143 86.6073V117.774C87.1511 117.511 87.4541 117.464 87.7003 117.317C88.5834 116.789 89.5139 116.349 90.4254 115.873C91.5098 115.305 92.6012 114.749 93.6832 114.173C94.5782 113.7 95.466 113.226 96.3633 112.753C97.45 112.185 98.5438 111.631 99.6306 111.065C100.542 110.592 101.447 110.101 102.356 109.623C103.561 108.989 104.771 108.364 105.973 107.729C106.894 107.242 107.806 106.737 108.729 106.254C109.799 105.693 110.877 105.149 111.949 104.597C112.906 104.103 113.859 103.605 114.809 103.103C115.368 102.796 115.92 102.488 116.523 102.161Z" fill="black"/>
<path d="M62.926 179.135C63.7972 179.135 64.6661 179.135 65.5303 179.135C66.6857 179.135 67.1876 179.62 67.2279 180.792C67.2368 182.076 67.3198 183.358 67.4765 184.632C67.6848 186.017 67.9949 187.366 68.7384 188.585C69.5055 189.845 70.6324 190.716 71.8162 191.523C72.5265 191.997 73.2368 192.47 73.966 192.908C74.6952 193.346 75.3865 193.789 76.0968 194.208C76.8686 194.655 76.9776 195.699 76.5703 196.377C75.6967 197.856 74.7591 199.298 73.9376 200.804C73.2889 201.987 72.169 202.065 71.2598 201.488C69.7825 200.541 68.2743 199.67 66.8183 198.694C64.6348 197.267 62.7696 195.405 61.3397 193.223C60.508 191.9 59.8934 190.453 59.519 188.936C58.8253 186.296 58.6004 183.604 58.572 180.887C58.5601 179.703 59.1449 179.135 60.3382 179.132L62.926 179.135Z" fill="black"/>
<path d="M192.958 76.7753H190.387C189.151 76.7753 188.64 76.2592 188.621 75.0329C188.595 73.0822 188.495 71.1433 187.96 69.247C187.463 67.488 186.386 66.1693 184.975 65.059C183.365 63.8019 181.537 62.8763 179.856 61.7234C179.03 61.1575 178.826 60.2319 179.382 59.356C180.296 57.9237 181.132 56.4417 182.013 54.9857C182.617 53.9843 183.455 53.7357 184.444 54.3489C186.383 55.5492 188.363 56.6832 190.183 58.0704C192.416 59.7216 194.212 61.8921 195.416 64.3938C196.022 65.7546 196.454 67.1863 196.701 68.6551C197.098 70.7949 197.287 72.968 197.265 75.1442C197.265 76.1622 196.663 76.7611 195.648 76.7753C194.748 76.7848 193.848 76.7753 192.958 76.7753Z" fill="black"/>
</svg>
