<svg width="256" height="256" viewBox="0 0 256 256" fill="none" xmlns="http://www.w3.org/2000/svg">
<g clip-path="url(#clip0_2048_769)">
<path d="M256 128C256 57.3075 198.692 0 128 0C57.3075 0 0 57.3075 0 128C0 198.692 57.3075 256 128 256C198.692 256 256 198.692 256 128Z" fill="white"/>
<path d="M100.112 99.7514H153.264C159.468 99.7514 165.431 100.752 170.995 102.633C171.235 72.4148 146.62 48 116.161 48H62.9691C54.7241 48 48 54.7241 48 62.9691V141.337C48 149.622 54.7241 156.306 62.9691 156.306H85.1025V114.68C85.1025 106.435 91.8266 99.7514 100.112 99.7514Z" fill="#00CBA8"/>
<path d="M170.995 102.633C170.995 103.274 170.995 103.914 170.955 104.554C169.714 133.372 145.939 156.386 116.842 156.386H85.1025V193.168C85.1025 201.453 91.8266 208.137 100.072 208.137H153.904C183.042 208.137 206.776 185.163 208.017 156.306C209.098 131.411 193.288 110.118 170.995 102.633Z" fill="#0DB1F9"/>
</g>
<defs>
<clipPath id="clip0_2048_769">
<rect width="256" height="256" fill="white"/>
</clipPath>
</defs>
</svg>
