<svg width="256" height="256" viewBox="0 0 256 256" fill="none" xmlns="http://www.w3.org/2000/svg">
<circle cx="127" cy="128" r="125" fill="white"/>
<path fill-rule="evenodd" clip-rule="evenodd" d="M150.065 53C175.319 53 195.783 73.1476 195.783 98C195.783 109.523 191.378 120.036 184.131 128C191.636 136.211 195.791 146.908 195.783 158C195.783 182.321 176.177 202.141 151.664 202.973L150.065 203H90.4989C88.9279 203.007 87.4091 202.44 86.2303 201.409C85.0515 200.377 84.2946 198.951 84.103 197.402L84.055 196.659V154.42C84.055 153.023 85.0844 151.864 86.4363 151.625L86.951 151.577H111.635L112.157 151.618C112.733 151.722 113.264 151.996 113.68 152.405C114.097 152.814 114.379 153.338 114.49 153.909L114.531 154.42V170.184C114.531 171.548 115.513 172.68 116.817 172.945L117.393 173H150.059C152.051 173.01 154.025 172.63 155.87 171.881C157.714 171.133 159.392 170.03 160.807 168.637C162.223 167.244 163.348 165.588 164.119 163.763C164.89 161.938 165.291 159.979 165.3 158C165.283 154.19 163.813 150.528 161.188 147.752C158.562 144.975 154.976 143.289 151.15 143.034L150.059 143H119.116L73.425 142.993C62.294 142.25 59 127.993 59 127.993C59 127.993 62.0401 114.855 72.128 113.15L73.425 113H150.059C152.051 113.01 154.025 112.63 155.87 111.881C157.714 111.133 159.392 110.03 160.807 108.637C162.223 107.244 163.348 105.588 164.119 103.763C164.89 101.938 165.291 99.9794 165.3 98C165.283 94.1902 163.813 90.5284 161.188 87.7516C158.562 84.9748 154.976 83.2892 151.15 83.0341L150.059 83H117.4C116.743 82.9959 116.106 83.2178 115.595 83.628C115.085 84.0382 114.733 84.6113 114.6 85.25L114.538 85.8159V101.573C114.536 102.243 114.297 102.891 113.863 103.405C113.429 103.918 112.828 104.264 112.164 104.382L111.642 104.423H86.9441C86.2698 104.426 85.6156 104.195 85.0953 103.769C84.5749 103.343 84.2214 102.749 84.0962 102.091L84.055 101.573V59.3409C84.055 56.0886 86.5392 53.4091 89.7371 53.0409L90.4989 53H150.065Z" fill="#FF8336"/>
</svg>
