<svg width="256" height="256" viewBox="0 0 256 256" fill="none" xmlns="http://www.w3.org/2000/svg">
<g clip-path="url(#clip0_1953_3011)">
<mask id="mask0_1953_3011" style="mask-type:alpha" maskUnits="userSpaceOnUse" x="0" y="0" width="256" height="256">
<path d="M256 128C256 57.3075 198.692 0 128 0C57.3075 0 0 57.3075 0 128C0 198.692 57.3075 256 128 256C198.692 256 256 198.692 256 128Z" fill="black"/>
</mask>
<g mask="url(#mask0_1953_3011)">
<path d="M140.112 256C131.988 256 123.863 256 115.523 255.846C114.262 255.528 113.216 255.366 112.011 255.181C111.336 255.043 110.823 254.917 110.306 254.812C105.322 253.803 100.263 253.069 95.3731 251.72C89.9584 250.227 84.6981 248.174 79.3754 246.208C77.7134 237.248 76.0098 228.45 74.3994 219.634C73.8181 216.452 73.4605 213.229 73 209.843C73.8478 198.572 74.6964 187.481 75.5328 176.549C78.1631 178.981 80.6372 181.268 83.0908 183.718C83.2222 184.523 83.3039 185.191 83.5364 185.802C86.1136 192.574 89.1039 199.135 92.9845 205.287C98.046 213.311 104.088 220.341 112.531 224.944C119.306 228.637 126.453 230.237 134.189 228.522C144.376 226.265 151.939 220.15 158.297 212.299C164.243 204.958 168.392 196.567 171.9 187.852C172.506 186.346 172.724 184.683 173.19 182.984C175.552 180.642 177.846 178.409 180.32 176C181.219 187.103 182.101 197.997 182.916 208.982C182.895 209.285 182.939 209.498 182.992 209.849C183.007 210.357 183.012 210.727 182.897 211.193C182.683 211.738 182.55 212.185 182.504 212.64C181.355 223.995 179.408 235.208 176.466 246.384C170.347 248.483 164.378 250.679 158.27 252.367C153.641 253.647 148.833 254.28 143.926 255.199C142.553 255.548 141.039 254.445 140.112 256Z" fill="#FAFBFA"/>
<path d="M0 129C0 86.0307 0 43.0615 0 0C38.2827 0 76.5654 1.19766e-08 114.992 0.103921C115.031 0.406574 114.927 0.605306 114.755 0.901703C114.467 1.06799 114.246 1.13662 113.915 1.09086C113.086 0.940926 112.341 0.761497 111.654 0.893059C107.035 1.77763 102.421 2.69589 97.8255 3.69583C97.2076 3.83029 96.5642 4.38386 96.1754 4.92169C95.6228 5.68595 95.2599 6.60033 94.888 7.48146C94.7235 7.87138 94.538 8.4444 94.7015 8.74958C95.3948 10.0439 95.0371 11.9091 97.0278 12.5861C97.5506 12.764 97.6274 14.3847 97.8369 15.3586C98.0658 16.4218 98.1432 17.5212 98.4144 18.5713C98.626 19.3908 99.1675 20.1321 99.3298 20.9548C100.02 24.4541 100.625 27.9705 101.258 31.4813C101.373 32.1251 101.324 32.8482 101.604 33.4047C103.039 36.2498 104.899 38.8317 105.048 42.2886C105.135 44.3067 106.339 46.2511 106.81 48.2829C107.533 51.3989 108.057 54.5617 108.67 57.7254C109.516 57.7254 110.284 57.7254 110.921 57.7975C108.997 58.4256 107.205 58.9815 105.578 59.4862C103.763 54.8984 102.185 50.2475 100.125 45.8256C92.4353 29.3257 80.8116 16.1488 66.5305 5.06537C60.8748 0.676009 53.6784 1.52521 51.415 9.74611C49.471 16.8071 47.497 23.8596 45.4049 30.9717C43.3674 32.6462 41.3884 34.1862 39.5686 35.8982C33.9032 41.2278 28.9015 47.154 24.2659 53.5732C21.1836 58.7019 18.1627 63.7093 15.0366 68.8067C13.1471 72.7228 11.3628 76.549 9.55644 80.5203C6.67824 87.3022 4.60364 94.1833 3.17445 101.429C1.1159 110.414 0.126436 119.339 0.453418 128.561C19.2482 128.561 37.7581 128.561 56.2975 128.663C56.3004 128.831 56.2739 128.897 56.059 128.947C37.2471 128.954 18.6235 128.977 0 129Z" fill="#CBDBFE"/>
<path d="M79.2733 246.314C84.6213 248.133 89.9019 250.197 95.3373 251.698C100.246 253.053 105.325 253.792 110.328 254.806C110.847 254.911 111.362 255.038 112.101 255.274C112.549 255.595 112.775 255.798 113 256C75.3616 256 37.7231 256 0 256C0 215.708 2.38841e-08 175.417 0.153878 135C0.750468 138.584 1.19318 142.293 1.61286 146.146C1.71714 146.748 1.84446 147.207 1.95193 147.813C2.03189 148.529 2.13171 149.1 2.23746 149.798C2.30118 150.087 2.35895 150.248 2.40186 150.508C2.41174 150.67 2.43649 150.733 2.44581 150.959C3.03307 153.85 3.63574 156.576 4.26803 159.441C4.45527 160.013 4.61288 160.446 4.76475 160.883C4.75901 160.887 4.75024 160.899 4.73787 161.057C6.97848 169.589 9.97046 177.677 14.0699 185.484C17.4073 191.027 20.7137 196.434 24.0324 201.926C24.0887 202.128 24.1709 202.203 24.326 202.36C24.5121 202.678 24.6633 202.871 24.8341 203.15C24.901 203.353 24.9866 203.425 25.1475 203.574C25.4072 203.911 25.6299 204.126 25.8665 204.341C25.8804 204.342 25.8989 204.321 25.8907 204.449C26.0557 204.76 26.2288 204.944 26.4082 205.205C26.4144 205.282 26.4947 205.414 26.5115 205.531C26.758 205.861 26.9878 206.073 27.2685 206.405C27.9274 207.244 28.5353 207.963 29.1951 208.782C29.4667 209.079 29.6866 209.277 29.9577 209.579C30.1385 209.759 30.268 209.834 30.3775 209.903C30.3574 209.897 30.3483 209.938 30.3807 210.068C32.0189 211.958 33.6248 213.719 35.2477 215.47C35.2646 215.46 35.2272 215.471 35.2527 215.576C35.3953 215.755 35.5123 215.828 35.6185 215.905C35.6076 215.908 35.6005 215.93 35.6634 216.048C39.709 219.807 43.6918 223.449 47.7334 227.196C48.0059 227.399 48.2196 227.497 48.4402 227.572C48.4471 227.55 48.4014 227.555 48.4349 227.66C48.5959 227.83 48.7233 227.894 48.8498 227.934C48.8489 227.91 48.8277 227.953 48.8823 228.077C49.7644 228.862 50.5415 229.603 51.4276 230.173C56.3767 233.359 61.3521 236.504 66.3877 239.782C67.6264 240.565 68.796 241.229 70.0744 241.995C73.2133 243.502 76.2433 244.908 79.2733 246.314Z" fill="#CBDBFF"/>
<path d="M143.553 255.199C148.31 254.275 153.147 253.639 157.805 252.356C163.95 250.662 169.954 248.459 176.25 246.383C179.474 244.862 182.468 243.434 185.603 242.013C186.933 241.222 188.121 240.424 189.463 239.627C195.293 235.895 200.97 232.161 206.769 228.365C210.082 225.418 213.274 222.532 216.568 219.622C216.918 219.331 217.167 219.065 217.524 218.763C217.714 218.603 217.796 218.481 217.862 218.352C217.846 218.346 217.871 218.369 217.977 218.339C218.148 218.182 218.211 218.054 218.323 217.84C218.481 217.59 218.592 217.426 218.835 217.23C219.429 216.79 219.891 216.383 220.432 215.934C220.601 215.812 220.66 215.712 220.789 215.522C220.966 215.224 221.04 214.996 221.092 214.758C221.07 214.748 221.1 214.785 221.221 214.789C221.52 214.644 221.697 214.494 221.87 214.337C221.865 214.331 221.877 214.342 221.997 214.285C222.725 213.484 223.335 212.738 224.026 211.944C224.211 211.814 224.286 211.713 224.448 211.52C227.031 208.282 229.5 205.115 232.083 201.876C235.435 196.342 238.673 190.881 242.033 185.359C243.43 182.541 244.863 179.843 245.947 177.013C247.455 173.075 248.702 169.038 250.121 164.916C251.2 160.499 252.217 156.209 253.331 151.817C253.485 151.35 253.542 150.986 253.611 150.54C253.624 150.456 253.628 150.288 253.732 150.168C254.402 145.157 254.967 140.266 255.557 135.285C255.583 135.193 255.611 135.006 255.708 135.005C255.806 135.003 256 135 256 135C256 175.303 256 215.606 256 256C218.375 256 180.751 256 143 255.903C143.1 255.603 143.327 255.401 143.553 255.199Z" fill="#CBDBFF"/>
<path d="M138 0C177.305 0 216.609 0 256 0C256 40.2228 256 80.4457 255.901 120.856C255.801 121.043 255.603 121.044 255.596 120.882C255.445 119.761 255.3 118.8 255.165 117.744C255.174 117.648 255.153 117.457 255.165 117.285C255.164 116.428 255.15 115.743 255.153 114.889C254.37 109.904 253.569 105.088 252.761 100.116C251.573 95.9352 250.391 91.9102 249.209 87.73C248.543 86.0715 247.878 84.5683 247.213 82.9195C247.203 82.4834 247.193 82.1927 247.135 81.7643C245.002 77.1834 242.916 72.7401 240.821 68.1584C240.551 67.7001 240.29 67.3803 240.029 66.9731C240.028 66.8857 240.01 66.7119 239.994 66.5696C236.521 61.1312 233.106 55.8072 229.577 50.5591C228.719 49.2834 227.489 48.2574 226.409 46.9781C226.099 46.3217 225.902 45.7158 225.506 45.2999C221.835 41.449 218.191 37.5687 214.402 33.836C213.029 32.4837 211.286 31.5071 209.652 30.2044C208.11 22.4014 206.093 14.908 203.072 7.70853C200.779 2.2415 195.091 0.577792 190.286 4.07797C186.958 6.50233 183.776 9.12607 180.394 11.5964C177.242 10.3468 174.225 9.16133 171.116 7.87011C169.298 7.15053 167.609 6.3876 165.839 5.95202C161.246 4.82132 156.617 3.83458 151.898 2.67876C148.55 2.10973 145.296 1.7113 142.068 1.16726C140.685 0.934361 139.354 0.398309 138 0Z" fill="#CBDBFF"/>
<path d="M138.3 0C139.803 0.398935 141.104 0.93583 142.455 1.1691C145.61 1.71399 148.79 2.11305 152 2.8059C151.353 3.1989 150.666 3.35717 150.352 3.42938C149.89 4.97924 149.395 6.31274 149.13 7.69254C149.026 8.23658 149.509 8.87332 149.592 9.48666C149.721 10.4385 150.144 11.9563 149.733 12.2764C147.444 14.0551 147.526 16.343 147.835 18.8214C147.903 19.3685 147.653 19.9685 147.501 20.5302C147.252 21.4488 146.916 22.3448 146.702 23.271C146.495 24.1667 146.419 25.093 146.245 25.9981C145.621 29.2644 144.905 32.5147 144.365 35.7954C143.85 38.9303 142.517 41.9541 143.07 45.2517C143.117 45.5266 142.781 45.8475 142.72 46.1665C142.555 47.0289 142.389 47.8975 142.322 48.7716C142.173 50.7091 142.127 52.6559 141.94 54.5888C141.897 55.0332 141.455 55.4371 141.213 55.8318C141.624 56.223 142.039 56.6188 142.284 57C137.259 56.4938 132.404 56.0021 127.545 55.339C128.036 54.4669 128.529 53.7665 128.993 53.1059C127.131 52.3764 127.142 52.3779 127.508 49.6599C127.578 49.1363 127.55 48.5947 127.53 48.0628C127.275 41.0482 126.95 34.0354 126.774 27.0187C126.657 22.358 126.826 17.69 126.723 13.0286C126.664 10.3583 126.454 7.67272 126.049 5.03628C125.806 3.45693 126.492 2.51891 127.576 1.92536C128.307 1.5253 129.339 1.73066 130.225 1.59041C131.541 1.38203 133.159 1.83533 133.788 0C135.232 0 136.676 0 138.3 0Z" fill="#BBD1FF"/>
<path d="M2.19528 150C2.09709 149.449 1.9989 148.898 1.93178 148.059C1.84502 147.334 1.72717 146.895 1.60933 146.456C1.17381 142.872 0.738282 139.288 0.151379 135.643C2.34963e-08 133.505 0 131.427 0 129.169C18.4139 128.965 36.8279 128.943 55.4615 129.119C55.7893 132.885 55.8976 136.453 56 140.186C55.9781 140.573 55.962 140.793 55.7876 141.014C54.2863 140.992 52.9415 140.918 51.6008 140.962C50.2584 141.006 48.9047 141.078 47.5828 141.295C44.5373 141.797 41.4976 142.347 38.4788 142.984C37.6239 143.164 36.8626 143.745 36.0333 144.082C35.4362 144.325 34.7936 144.64 34.1784 144.626C32.4048 144.585 30.5821 143.919 29.1493 145.718C28.8738 146.064 27.8287 145.806 27.1397 145.845C25.538 145.935 23.9341 146.005 22.3366 146.144C21.1608 146.246 19.9863 146.405 18.825 146.613C17.9258 146.774 16.7158 146.771 16.2285 147.332C15.1599 148.563 14.0207 148.419 12.6844 148.242C11.7414 148.117 10.7462 148.109 9.81119 148.264C8.884 148.418 7.90875 149.221 7.12943 149.034C6.41558 148.863 5.9352 147.749 5.17605 146.84C4.97637 147.99 4.79413 149.039 4.62712 150C3.72449 150 2.95989 150 2.19528 150Z" fill="#0453FC"/>
<path d="M133 4.03342e-07C132.547 1.82591 130.901 1.37493 129.563 1.58225C128.662 1.72177 127.614 1.51747 126.87 1.91547C125.768 2.50597 125.071 3.43919 125.317 5.01042C125.729 7.63332 125.943 10.3051 126.003 12.9617C126.108 17.5992 125.936 22.2432 126.055 26.88C126.233 33.8607 126.564 40.8374 126.824 47.8161C126.843 48.3452 126.873 48.884 126.801 49.405C126.429 52.109 126.418 52.1075 128.311 52.8333C127.839 53.4905 127.337 54.1873 126.721 55.0925C126.278 55.2834 125.95 55.266 125.542 55.1646C125.124 55.1509 124.787 55.2211 124.277 55.3389C121.565 55.624 119.028 55.8615 116.405 56C115.981 55.8419 115.642 55.7828 115.304 55.5757C115.761 54.837 116.21 54.2418 116.673 53.6572C116.972 53.2797 117.29 52.9177 117.6 52.5488C117.261 52.2841 116.891 52.05 116.59 51.7475C116.174 51.3293 115.475 50.8592 115.475 50.412C115.479 46.7306 115.466 43.0361 115.787 39.3744C115.92 37.8495 116.224 36.672 114.454 36.0189C114.219 35.9321 114.18 35.2135 114.118 34.7779C114.016 34.0633 113.992 33.3377 113.895 32.6223C113.444 29.312 112.833 26.0154 112.564 22.6908C112.337 19.8945 113.166 16.8388 112.304 14.3176C111.478 11.9005 111.011 9.53139 110.64 7.07018C110.588 6.72565 110.235 6.40454 109.973 6.11751C108.503 4.51081 108.665 3.63116 110.687 2.7282C111.939 2.16898 113.232 1.70213 114.506 1.19381C114.726 1.12584 114.946 1.05786 115.419 0.893128C117.166 0.796172 118.665 0.863034 120.152 0.759258C120.67 0.723127 121.158 0.265258 121.66 0C125.378 3.98056e-07 129.096 4.03342e-07 133 4.03342e-07Z" fill="#C2D5FF"/>
<path d="M255.075 121C255.075 121 255.538 121 255.769 121C256 125.555 256 130.109 256 134.852C256 135.04 255.549 135.043 255.303 134.895C255.031 134.448 255.005 134.15 255 133.67C255.026 132.405 255.031 131.32 255.053 130.047C255.071 126.905 255.073 123.953 255.075 121Z" fill="#A9CCFF"/>
<path d="M122 0C121.632 0.32452 121.064 0.884681 120.461 0.928884C118.731 1.05585 116.988 0.974045 115.033 0.974312C114.938 0.733512 115.059 0.492688 115.23 0.125932C117.448 5.07966e-07 119.616 4.86986e-07 122 0Z" fill="#C7D9FF"/>
<path d="M144 255.067C143.95 255.305 143.702 255.54 143.386 255.887C142.277 256 141.236 256 140 256C140.825 254.19 142.49 255.474 144 255.067Z" fill="#DBE0EC"/>
<path d="M112.877 256C112.494 255.713 112.277 255.425 112 255C112.951 255.095 113.962 255.327 115 255.78C114.365 256 113.704 256 112.877 256Z" fill="#DADFEA"/>
<path d="M116.682 56.1958C119.229 55.9568 121.776 55.7179 124.644 55.4679C125.259 55.4179 125.554 55.379 125.849 55.3401C126.178 55.3576 126.507 55.3752 126.954 55.3548C132.028 55.809 136.983 56.3011 142.233 56.8734C145.001 57.6639 147.474 58.3741 149.99 59.0968C150.548 57.3524 151.071 55.6382 151.643 53.9412C154.235 46.2609 158.044 39.187 162.345 32.3585C162.34 32.3538 162.35 32.3472 162.45 32.2696C162.858 31.6861 163.165 31.1801 163.449 30.6663C163.426 30.6586 163.437 30.7073 163.538 30.6584C163.692 30.4734 163.746 30.3373 163.889 30.1695C164.056 29.969 164.134 29.8 164.32 29.5582C164.501 29.3283 164.572 29.1712 164.746 28.9697C165.037 28.6129 165.225 28.3005 165.523 27.9205C165.807 27.5652 165.981 27.2774 166.156 26.9881C166.155 26.9866 166.158 26.9871 166.262 26.9348C166.481 26.6839 166.597 26.4854 166.681 26.277C166.648 26.267 166.664 26.334 166.767 26.282C166.934 26.093 166.998 25.9561 167.168 25.7706C167.582 25.2833 167.89 24.8445 168.312 24.3393C168.509 24.1219 168.593 23.9709 168.793 23.7613C172.822 19.6161 176.733 15.5295 180.645 11.4429C183.884 8.90184 187.058 6.27143 190.378 3.8409C195.17 0.331818 200.842 1.99976 203.13 7.4807C206.142 14.6985 208.155 22.211 209.664 30.1929C210.164 35.3328 211.079 40.1664 210.995 44.9823C210.87 52.0612 210.031 59.1274 209.413 66.3261C208.704 69.0147 208.028 71.5654 207.481 74.1437C207.302 74.9918 207.309 75.9422 207.487 76.7918C207.902 78.771 208.472 80.7174 208.944 82.7915C208.933 83.0623 208.956 83.2185 208.943 83.5017C208.924 83.9791 208.942 84.3295 208.912 84.8462C208.356 87.2578 208.078 89.5885 207.285 91.7274C206.249 94.523 204.807 97.1669 203.436 99.9582C200.535 104.513 197.937 109.101 198.134 114.601C198.311 119.555 198.759 124.499 199.037 129.59C199.017 130.487 199.047 131.241 199.021 132.143C198.895 134.219 198.826 136.147 198.668 138.227C197.797 142.476 197.013 146.573 196.162 150.796C194.713 154.451 193.33 157.981 191.865 161.555C191.734 161.774 191.685 161.949 191.523 162.213C191.218 162.721 191.026 163.139 190.722 163.633C189.076 166.061 187.542 168.414 185.894 170.835C185.181 172.091 184.049 173.291 184.08 174.461C184.186 178.562 184.693 182.653 185.019 186.896C185.229 187.893 185.468 188.741 185.68 189.69C185.675 189.856 185.697 189.922 185.69 190.173C185.938 194.643 186.216 198.927 186.463 203.386C186.529 204.382 186.626 205.203 186.729 206.029C186.735 206.035 186.715 206.047 186.667 206.166C186.666 206.446 186.714 206.607 186.733 206.925C186.771 207.393 186.836 207.703 186.871 208.181C186.945 209.24 187.05 210.13 187.125 211.174C187.17 211.956 187.246 212.584 187.293 213.391C187.747 219.392 188.204 225.219 188.722 231.039C188.98 233.933 189.349 236.816 189.668 239.703C188.487 240.502 187.307 241.3 185.997 241.9C185.39 235.784 184.95 229.864 184.425 223.95C184.042 219.644 183.548 215.347 183.103 211.046C183.098 210.675 183.093 210.304 183.147 209.701C183.16 209.257 183.114 209.045 183.069 208.833C182.187 197.909 181.306 186.986 180.408 175.852C177.935 178.267 175.643 180.507 173.157 182.913C170.545 185.315 168.126 187.551 165.532 189.718C164.566 189.498 163.774 189.346 163.032 189.071C164.664 187.425 166.302 185.957 167.817 184.37C173.005 178.936 178.616 173.827 183.218 167.928C194.074 154.014 196.636 137.826 194.722 120.648C193.96 113.811 194.62 107.31 198.3 101.186C200.751 97.1071 202.773 92.7056 204.46 88.2474C205.797 84.7125 205.82 80.952 203.609 77.4741C203.196 76.8249 203.222 75.6602 203.464 74.8611C207.068 62.9625 208.053 50.8277 206.928 38.4785C206.008 28.3842 203.615 18.652 199.842 9.26237C198.307 5.44261 195.403 4.70253 192.081 7.13709C184.155 12.9463 176.982 19.5608 170.84 27.2579C163.55 36.393 157.814 46.3936 154.383 57.6391C153.678 59.9519 153.081 62.2981 152.404 64.736C146.009 61.1329 139.324 59.492 132.082 59.3632C129.365 59.3288 126.801 59.3655 124.058 59.3706C116.756 59.5625 109.965 61.0874 103.538 64.7265C103.326 63.9462 103.197 63.3088 102.983 62.7017C101.034 57.1838 99.5097 51.4622 97.0278 46.1961C89.4468 30.1107 77.9305 17.2766 63.5615 6.9576C60.5103 4.76641 57.6052 5.55969 56.1987 9.03602C51.2955 21.1544 48.7256 33.7762 48.5334 46.8367C48.3943 56.287 49.7517 65.5721 52.4292 74.6544C52.6719 75.4778 52.835 76.6434 52.4425 77.2843C50.2259 80.9028 50.1345 84.7908 51.5763 88.4664C53.3907 93.0917 55.6917 97.5493 58.075 101.919C60.9242 107.142 61.9916 112.601 61.3881 118.49C60.6525 125.668 60.3731 132.861 61.2865 140.051C63.274 155.696 71.0932 168.151 82.2886 178.771C85.1832 181.517 87.9919 184.354 90.6847 187.161C88.5373 187.009 89.7196 188.405 89.443 189.102C87.2974 187.181 85.2763 185.304 83.2551 183.428C80.7824 181.135 78.3098 178.841 75.6811 176.403C74.8451 187.365 73.997 198.486 73.0497 209.922C72.0502 220.824 71.15 231.412 70.2497 242C69.0852 241.338 67.9208 240.675 66.7456 239.711C67.0462 235.773 67.3585 232.137 67.6686 228.501C68.056 223.957 68.4828 219.416 68.8124 214.868C69.0067 212.188 69.0456 209.496 69.189 206.682C69.2301 206.377 69.2366 206.201 69.3755 205.926C70.3741 195.85 71.2587 185.874 72.0754 175.893C72.1492 174.992 71.7857 174.055 71.6179 173.149C71.6104 173.162 71.6406 173.155 71.6123 173.049C71.4672 172.863 71.3503 172.784 71.2314 172.727C71.2294 172.75 71.2753 172.746 71.2649 172.616C71.1134 172.289 70.9722 172.092 70.8189 171.808C70.7517 171.602 70.6589 171.539 70.4824 171.426C70.2989 171.252 70.1613 171.185 70.019 171.133C70.0143 171.148 70.0455 171.141 70.0208 171.033C69.8798 170.841 69.7636 170.756 69.6284 170.574C69.4602 170.363 69.3111 170.25 69.1571 170.131C69.1522 170.126 69.1638 170.114 69.1338 169.975C66.6293 165.401 64.1549 160.967 61.6955 156.39C60.9386 154.052 60.1666 151.855 59.3999 149.624C59.4053 149.589 59.3509 149.545 59.3555 149.381C58.9672 147.698 58.5742 146.178 58.1987 144.532C58.1569 144.248 58.0976 144.09 58.065 143.795C57.9437 143.341 57.7959 143.025 57.6422 142.607C57.6117 142.44 57.5871 142.376 57.6093 142.15C57.5279 141.226 57.3998 140.464 57.2716 139.702C57.1621 136.02 57.0526 132.337 56.9093 128.465C56.902 128.21 56.9286 128.144 56.9991 127.822C57.2176 125.242 57.5114 122.92 57.5383 120.595C57.5765 117.293 57.4183 113.988 57.3592 110.522C56.1193 107.467 54.8836 104.565 53.6048 101.683C51.5504 97.0519 49.4674 92.4338 47.4025 87.6502C47.2525 86.546 47.0964 85.6017 46.9871 84.4838C47.5557 81.7505 48.0857 79.1924 48.5927 76.6297C48.6904 76.136 48.8378 75.5893 48.7232 75.1267C48.1515 72.8189 47.4999 70.5311 46.8952 68.0892C46.6652 67.3616 46.4165 66.7812 46.1393 66.0356C46.1 65.3245 46.0892 64.7786 46.1021 64.0623C45.7237 59.8642 44.9401 55.8304 45.0036 51.8101C45.1157 44.7234 45.7448 37.6449 46.1574 30.563C48.1194 23.5308 50.0948 16.5023 52.04 9.46542C54.3048 1.27256 61.5059 0.426259 67.1653 4.80065C81.4556 15.8463 93.0869 28.9782 100.781 45.4219C102.843 49.8287 104.421 54.4637 106.238 59.0359C107.867 58.5329 109.66 57.9789 111.589 57.3528C111.724 57.2807 111.732 57.278 111.887 57.2856C113.589 56.9274 115.135 56.5616 116.682 56.1958Z" fill="#090709"/>
<path d="M83 183.567C85.0449 185.273 87.0693 187.142 89.2742 189.178C91.6464 191.551 93.838 193.755 96.0532 196.1C96.5833 197.033 97.0899 197.825 97.6307 198.739C98.3034 199.613 98.9417 200.367 99.6278 201.245C99.9377 201.603 100.2 201.835 100.507 202.173C100.794 202.455 101.037 202.632 101.331 202.927C102.028 203.481 102.672 203.916 103.387 204.461C103.923 204.804 104.387 205.039 104.933 205.36C105.382 205.57 105.75 205.694 106.252 205.902C109.785 206.603 112.874 207.972 116.018 209.405C124.867 213.439 133.687 212.926 142.318 208.427C143.864 207.622 145.628 207.242 147.259 206.586C149.024 205.876 150.752 205.073 152.604 204.301C152.934 204.111 153.155 203.931 153.503 203.694C154.366 202.954 155.104 202.27 155.949 201.535C156.243 201.232 156.428 200.98 156.726 200.664C158.444 198.247 160.05 195.892 161.646 193.531C161.635 193.523 161.674 193.529 161.815 193.494C162.398 192.972 162.841 192.486 163.406 191.953C163.87 191.519 164.212 191.131 164.624 190.725C164.781 190.648 164.827 190.567 164.965 190.408C165.208 190.205 165.32 190.057 165.487 189.877C165.541 189.845 165.605 189.737 165.605 189.737C168.028 187.51 170.452 185.284 173 183C172.727 184.531 172.508 186.191 171.901 187.695C168.39 196.399 164.237 204.779 158.284 212.111C151.92 219.951 144.349 226.058 134.152 228.313C126.407 230.025 119.253 228.427 112.471 224.739C104.019 220.142 97.9707 213.121 92.9039 205.108C89.0193 198.964 86.0259 192.411 83.446 185.648C83.2133 185.038 83.1315 184.371 83 183.567Z" fill="#CBD3E7"/>
<path d="M70 241.866C70.8642 231.221 71.8467 220.677 72.9383 210C73.5488 213.067 73.9388 216.286 74.5728 219.464C76.3292 228.266 78.1874 237.052 80 246C76.7026 244.759 73.4104 243.363 70 241.866Z" fill="#D58652"/>
<path d="M182.833 211C183.456 215.182 184.001 219.455 184.422 223.738C185.001 229.619 185.487 235.507 186 241.581C182.709 243.19 179.431 244.61 176 246C178.988 234.948 181.135 223.766 182.4 212.443C182.451 211.989 182.598 211.544 182.833 211Z" fill="#D58652"/>
<path d="M56.7984 110.834C56.8732 114.133 57.0326 117.433 56.9941 120.731C56.967 123.053 56.6709 125.371 56.421 127.845C37.6809 128 19.0149 128 0.0615853 128C-0.268154 118.823 0.729654 109.942 2.97236 101C4.31651 101.108 5.47733 101.623 6.62272 101.591C10.3921 101.486 13.8055 104.194 17.6982 102.918C17.7995 102.884 17.9454 103.001 18.0742 103.033C21.652 103.918 25.2311 104.798 28.8068 105.692C29.0567 105.754 29.2703 105.956 29.5198 106.026C31.9414 106.706 34.4746 108.161 36.766 107.852C40.0339 107.412 42.4391 109.641 45.5596 109.508C47.652 109.419 49.7902 110.817 51.9425 111.429C52.5927 111.614 53.3656 111.446 54.0699 111.35C54.9858 111.225 55.8894 111.01 56.7984 110.834Z" fill="#FAFBFE"/>
<path d="M57 110.175C56.0727 110.506 55.166 110.718 54.2469 110.841C53.5403 110.935 52.7648 111.1 52.1124 110.918C49.9528 110.317 47.8074 108.942 45.7078 109.03C42.5768 109.161 40.1634 106.969 36.8845 107.402C34.5853 107.705 32.0436 106.274 29.6137 105.606C29.3634 105.537 29.149 105.339 28.8982 105.278C25.3105 104.399 21.7193 103.534 18.1293 102.664C18.0001 102.632 17.8537 102.517 17.752 102.55C13.8462 103.805 10.4212 101.142 6.63905 101.246C5.48978 101.277 4.32502 100.771 3 100.512C4.25509 93.5755 6.35428 86.8429 9.40837 80.1913C10.2551 79.6708 11.0621 78.8718 11.5998 79.0175C14.652 79.8443 17.6498 80.8687 20.646 81.8822C22.8107 82.6145 24.9699 83.3741 27.0855 84.2296C30.1445 85.4666 33.1619 86.8011 36.1961 88.0961C36.2557 88.1215 36.3024 88.1745 36.3574 88.2114C38.743 89.8122 40.9441 91.5446 44.2909 90.9373C46.5392 90.5294 46.6993 90.7817 45.6199 88.6527C46.0476 88.3986 46.4867 88.1378 46.9258 87.877C49.0199 92.4162 51.1261 96.9502 53.2035 101.497C54.4967 104.327 55.7462 107.176 57 110.175Z" fill="#F1F5FE"/>
<path d="M114.714 1.23975C113.519 1.85763 112.193 2.32168 110.908 2.87754C108.835 3.77508 108.669 4.64945 110.176 6.2465C110.445 6.53181 110.807 6.85098 110.86 7.19345C111.241 9.63988 111.72 11.9947 112.568 14.3974C113.452 16.9034 112.602 19.9407 112.834 22.7203C113.11 26.0249 113.737 29.3017 114.199 32.5922C114.299 33.3032 114.323 34.0245 114.428 34.7347C114.492 35.1678 114.532 35.8821 114.773 35.9683C116.589 36.6175 116.277 37.788 116.14 39.3036C115.811 42.9434 115.825 46.6157 115.821 50.275C115.82 50.7195 116.537 51.1868 116.964 51.6025C117.273 51.9031 117.652 52.1359 118 52.3989C117.682 52.7657 117.356 53.1255 117.049 53.5007C116.575 54.0818 116.114 54.6735 115.482 55.4125C114.146 56.0419 112.974 56.5194 111.803 56.997C111.803 56.997 111.795 56.9996 111.791 56.9998C111.001 57 110.215 57 109.35 57C108.723 53.8851 108.187 50.7712 107.448 47.7033C106.966 45.7029 105.735 43.7884 105.646 41.8015C105.494 38.398 103.592 35.856 102.124 33.0548C101.837 32.5069 101.888 31.7949 101.769 31.1611C101.123 27.7044 100.504 24.2423 99.798 20.7971C99.6321 19.9871 99.0782 19.2572 98.8618 18.4503C98.5845 17.4164 98.5053 16.3341 98.2713 15.2872C98.057 14.3284 97.9785 12.7326 97.4438 12.5576C95.408 11.8909 95.7738 10.0545 95.0648 8.78024C94.8977 8.47977 95.0873 7.9156 95.2556 7.53169C95.6359 6.66417 96.0071 5.7639 96.5721 5.01144C96.9697 4.48191 97.6277 3.93688 98.2597 3.8045C102.959 2.82 107.678 1.91591 112.401 1.045C113.104 0.915468 113.866 1.09213 114.714 1.23975Z" fill="#C7D9FF"/>
<path d="M45.3152 64.1927C45.326 64.727 45.3368 65.2613 45.2327 65.9831C43.9658 67.5527 44.849 67.9262 46.1128 68.1111C46.7358 70.3571 47.3869 72.5961 47.9583 74.8547C48.0728 75.3074 47.9255 75.8424 47.8279 76.3257C47.3212 78.8338 46.7915 81.3373 46.0723 84C43.8756 83.2509 41.8426 82.4085 39.8877 81.4172C38.3236 80.624 36.8737 79.6164 35.3391 78.763C32.5695 77.2226 29.7598 75.7518 26.9951 74.2031C25.0722 73.126 23.2989 71.7136 21.2687 70.9223C19.5344 70.2464 17.6529 70.0852 17.5575 67.6928C16.5403 67.8587 15.7701 67.9842 15 68.1097C18.0208 63.2257 21.0417 58.3417 24.2756 53.3358C25.9036 52.6514 26.8501 53.0475 27.9061 54.2125C29.0207 55.4422 30.6373 56.2225 31.9899 57.2557C33.4931 58.4039 34.893 59.688 36.4347 60.7811C38.1435 61.9927 39.8727 63.2453 41.769 64.1046C42.7553 64.5515 44.1209 64.1894 45.3152 64.1927Z" fill="#E9EFFE"/>
<path d="M45 63.7065C43.8401 63.8697 42.5397 64.2316 41.6004 63.785C39.7945 62.9264 38.1479 61.6747 36.5205 60.464C35.0524 59.3717 33.7193 58.0886 32.2877 56.9412C30.9997 55.9088 29.4602 55.1291 28.3988 53.9004C27.3932 52.7362 26.4918 52.3404 25 52.9061C29.2116 46.7716 33.9746 40.9958 39.3697 35.8014C41.1027 34.1329 42.9873 32.632 44.9276 31C44.6599 37.8714 44.0613 44.7939 43.9547 51.7244C43.8942 55.6561 44.6399 59.601 45 63.7065Z" fill="#E1E9FD"/>
<path d="M15.3092 68.5102C16.183 68.2946 16.9519 68.1677 17.9675 68C18.0626 70.4187 19.941 70.5816 21.6724 71.265C23.6993 72.065 25.4696 73.4929 27.3893 74.5819C30.1494 76.1476 32.9545 77.6346 35.7195 79.1919C37.2515 80.0547 38.699 81.0734 40.2605 81.8753C42.2121 82.8776 44.2417 83.7291 46.3883 84.6583C46.6946 85.6052 46.8503 86.5395 47 87.6321C46.5608 88.0533 46.1276 88.3162 45.7056 88.5722C46.7706 90.7179 46.6126 90.4637 44.3944 90.8748C41.0923 91.4868 38.9206 89.7409 36.5669 88.1275C36.5126 88.0903 36.4665 88.0369 36.4078 88.0112C33.4141 86.7061 30.437 85.3612 27.4189 84.1145C25.3315 83.2523 23.2012 82.4868 21.0654 81.7488C18.1093 80.7273 15.1515 79.6948 12.1402 78.8616C11.6097 78.7148 10.8134 79.52 10 79.9017C11.6415 76.1448 13.4228 72.3718 15.3092 68.5102Z" fill="#ECF2FE"/>
<path d="M58.5941 149.847C59.3612 151.995 60.1282 154.144 60.8686 156.605C61.3461 159.029 60.5049 160.507 58.6313 161.501C55.6572 163.078 52.7149 164.717 49.7029 166.221C46.0265 168.055 42.2914 169.776 38.5828 171.548C34.4102 173.541 30.2291 175.517 26.0742 177.546C25.1064 178.019 24.0104 178.496 23.3595 179.283C22.2446 180.632 21.3159 180.676 20.1103 179.534C19.8758 179.312 19.4512 179.286 19.0869 179.16C18.8516 179.871 18.6606 180.449 18.3934 181.257C17.5904 180.607 16.9728 180.107 16.074 179.379C16.9031 182.064 16.1503 183.872 14.0557 185C10.0312 177.515 7.07149 169.622 5 161.303C5.47289 161.599 5.78859 162.043 6.35896 162.844C8.68719 162.047 11.1165 161.183 13.5695 160.39C15.0436 159.913 16.5356 159.455 18.0534 159.155C20.0869 158.754 22.1612 158.558 24.2028 158.191C25.7825 157.907 27.3428 157.512 28.9034 157.133C29.5385 156.978 30.198 156.821 30.7668 156.518C33.7241 154.946 36.7565 153.783 40.1419 153.236C43.8614 152.635 47.471 151.368 51.1266 150.384C51.506 150.282 51.8934 150.174 52.2418 150C55.1951 148.525 55.6808 148.583 58.0705 150.837C58.2569 150.484 58.4255 150.165 58.5941 149.847Z" fill="#0E5BFE"/>
<path d="M14 185.805C16.0628 184.526 16.8152 182.692 15.9865 179.968C16.8849 180.706 17.5022 181.213 18.3048 181.873C18.5718 181.053 18.7628 180.467 18.9979 179.746C19.362 179.873 19.7865 179.9 20.0208 180.125C21.2258 181.284 22.1541 181.238 23.2684 179.871C23.919 179.072 25.0144 178.587 25.9817 178.108C30.1345 176.049 34.3135 174.044 38.484 172.021C42.1908 170.223 45.9239 168.478 49.5985 166.616C52.6089 165.091 55.5498 163.427 58.5224 161.827C60.395 160.819 61.2358 159.319 60.7435 157C63.2126 161.226 65.6699 165.628 68 170.218C67.2724 170.681 66.6794 170.974 66.0698 171.226C65.4069 171.5 64.4441 172.156 64.1036 171.922C61.9673 170.459 61.5369 172.342 60.7259 173.489C60.3185 174.065 60.1029 174.893 59.5652 175.237C58.2264 176.093 56.9534 176.767 55.8318 178.134C53.8744 180.52 50.0675 180.389 47.9875 182.936C47.9521 182.979 47.861 182.972 47.8045 183.003C46.0905 183.964 43.7818 184.526 42.8053 185.985C41.3715 188.127 38.7876 188.401 37.3042 190.669C35.8738 192.857 32.6779 193.917 30.1967 195.367C28.5919 196.305 26.7557 196.85 25.8368 198.723C25.2754 199.867 24.5111 200.911 23.838 202C20.5689 196.647 17.2998 191.293 14 185.805Z" fill="#1660FD"/>
<path d="M69.4276 205.695C69.421 205.873 69.4144 206.052 69.197 206.359C68.1315 206.488 67.2769 206.488 66.9247 206.488C65.7972 208.486 64.9342 210.107 63.9778 211.672C63.4319 212.565 62.7118 213.35 62.1086 214.21C60.4119 216.63 58.8188 219.129 57.0143 221.465C56.1447 222.591 54.9148 223.448 53.8044 224.374C53.0115 225.035 52.146 225.609 51.3272 226.212C51.4051 226.402 51.6469 226.992 51.8887 227.582C51.2337 227.716 50.581 227.864 49.9224 227.977C49.6624 228.021 49.3891 227.988 49.1219 227.99C49.1219 227.99 49.1434 227.947 49.1074 227.866C48.9449 227.72 48.8184 227.655 48.6919 227.589C48.6919 227.589 48.738 227.584 48.6895 227.485C48.4135 227.298 48.1861 227.209 47.9586 227.121C43.9404 223.451 39.9223 219.781 36 215.968C36.4818 215.484 37.1227 215.192 37.1993 214.792C37.3478 214.017 37.1787 213.181 37.1386 212.315C38.2382 212.388 39.0332 212.694 39.5166 212.429C41.4937 211.348 43.3343 210.062 43.9531 207.666C44.0461 207.305 44.2406 206.8 44.5201 206.686C46.7832 205.763 48.6556 204.417 49.9865 202.308C51.6733 199.636 56.1532 199.58 56.3939 195.517C56.3967 195.469 56.4886 195.428 56.5368 195.382C58.5843 193.412 60.7726 191.567 62.6431 189.442C64.9649 186.804 67.9844 185.353 71 184C70.5991 188.805 70.2039 193.439 69.796 198.071C69.6175 200.097 69.4129 202.121 69.2008 204.349C68.6698 203.905 68.3753 203.659 68.0807 203.412C67.9201 203.577 67.7595 203.741 67.5988 203.905C68.2084 204.502 68.818 205.099 69.4276 205.695Z" fill="#2268FD"/>
<path d="M58.9996 149.848C58.8233 150.204 58.6524 150.526 58.4634 150.881C56.0405 148.607 55.5479 148.549 52.5536 150.037C52.2003 150.213 51.8075 150.322 51.4229 150.425C47.7165 151.417 44.0567 152.696 40.2855 153.303C36.853 153.855 33.7784 155.029 30.7799 156.616C30.2032 156.921 29.5346 157.08 28.8907 157.236C27.3084 157.619 25.7263 158.017 24.1246 158.304C22.0547 158.674 19.9516 158.872 17.8897 159.277C16.3509 159.579 14.8381 160.042 13.3435 160.523C10.8564 161.324 8.39329 162.196 6.03269 163C5.45439 162.191 5.1343 161.744 4.66724 161.289C4.52026 161.283 4.52905 161.271 4.56105 161.128C4.39767 160.56 4.20229 160.135 4.00691 159.71C3.40244 157.026 2.79798 154.341 2.26603 151.454C2.28563 151.153 2.23271 151.052 2.17979 150.952C2.12185 150.794 2.0639 150.636 2 150.351C2.77358 150.225 3.55312 150.225 4.47338 150.225C4.64365 149.245 4.82944 148.176 5.03303 147.004C5.80701 147.931 6.29677 149.066 7.02456 149.24C7.8191 149.431 8.8134 148.612 9.7587 148.455C10.712 148.297 11.7266 148.305 12.688 148.432C14.0504 148.613 15.2119 148.76 16.3014 147.505C16.7982 146.933 18.0318 146.937 18.9485 146.773C20.1326 146.561 21.33 146.399 22.5287 146.294C24.1575 146.153 25.7927 146.081 27.4256 145.989C28.1281 145.949 29.1936 146.212 29.4745 145.86C30.9353 144.027 32.7936 144.705 34.6018 144.747C35.2291 144.761 35.8843 144.441 36.493 144.193C37.3385 143.849 38.1147 143.257 38.9863 143.073C42.064 142.424 45.1631 141.864 48.2681 141.353C49.6158 141.131 50.9959 141.057 52.3645 141.013C53.7315 140.968 55.1025 141.043 56.6439 141.205C56.9269 141.772 57.0377 142.201 57.1486 142.629C57.1734 142.693 57.1982 142.756 57.2276 143.056C57.3642 143.605 57.4961 143.917 57.628 144.229C57.6877 144.385 57.7474 144.54 57.6569 144.914C57.1643 146.926 57.6761 148.463 58.9502 149.77C58.9502 149.77 59.005 149.814 58.9996 149.848Z" fill="#0957FE"/>
<path d="M24 202.214C24.6779 201.024 25.4619 199.965 26.0377 198.804C26.9803 196.904 28.8637 196.351 30.5098 195.4C33.0547 193.928 36.3328 192.854 37.8001 190.634C39.3216 188.333 41.9719 188.055 43.4426 185.882C44.4442 184.402 46.8123 183.833 48.5704 182.858C48.6284 182.826 48.7218 182.833 48.7581 182.789C50.8916 180.206 54.7964 180.339 56.8042 177.918C57.9546 176.531 59.2604 175.848 60.6336 174.98C61.1851 174.631 61.4063 173.79 61.8241 173.206C62.6561 172.042 63.0975 170.133 65.2887 171.617C65.638 171.854 66.6256 171.189 67.3055 170.911C67.9308 170.655 68.539 170.358 69.3159 170.028C69.477 169.977 69.4652 169.989 69.3744 170.122C69.4987 170.515 69.7137 170.775 70.0405 171.032C70.2266 171.024 70.3009 171.017 70.3752 171.011C70.3752 171.011 70.3434 171.018 70.4003 171.107C70.5937 171.266 70.7303 171.336 70.8669 171.405C70.9999 171.411 71.0945 171.474 71.1646 171.814C71.3283 172.232 71.4781 172.429 71.6279 172.626C71.6279 172.626 71.5811 172.631 71.6184 172.71C71.7704 172.873 71.8852 172.956 72 173.039C72 173.039 71.9692 173.046 71.9692 173.203C71.8324 174.199 71.6956 175.037 71.3958 175.875C68.184 175.659 67.3598 178.657 65.3384 179.937C64.3156 180.584 63.1372 181.472 62.7568 182.514C62.2843 183.807 61.5992 183.891 60.5215 183.978C59.8735 184.031 58.7724 184.383 58.7085 184.745C58.3913 186.543 57.0893 187.136 55.701 187.893C54.7004 188.439 53.9708 189.468 53.1037 190.263C52.0348 191.243 51.086 192.72 49.8361 193.048C48.1647 193.488 46.2751 193.053 46.1092 195.557C46.1003 195.691 45.8131 195.806 45.657 195.931C42.6742 198.329 39.7155 200.758 36.6925 203.105C35.9197 203.704 34.9898 204.251 34.0503 204.46C32.5356 204.797 31.6021 205.867 31.8312 207.457C31.89 207.864 31.9494 208.272 31.9267 208.115C30.7839 208.484 29.9836 208.742 29.1832 209C28.5666 208.277 27.9501 207.555 27.2782 206.58C26.981 206.125 26.739 205.921 26.4971 205.716C26.4971 205.716 26.4156 205.584 26.4128 205.367C26.2375 204.973 26.0652 204.796 25.8929 204.619C25.8929 204.619 25.8741 204.64 25.91 204.493C25.6617 204.146 25.3775 203.946 25.0933 203.746C24.9677 203.719 24.8809 203.646 24.809 203.306C24.6108 202.897 24.4367 202.711 24.2625 202.525C24.1404 202.492 24.0571 202.417 24 202.214Z" fill="#1A64FE"/>
<path d="M29 208.879C29.743 208.523 30.5381 208.267 31.6734 207.9C31.696 208.056 31.6369 207.651 31.5786 207.246C31.3509 205.665 32.2784 204.602 33.7832 204.267C34.7165 204.059 35.6404 203.516 36.4081 202.919C39.4114 200.586 42.3508 198.172 45.3142 195.788C45.4693 195.664 45.7546 195.549 45.7634 195.416C45.9282 192.926 47.8056 193.359 49.466 192.922C50.7078 192.596 51.6504 191.128 52.7123 190.153C53.5738 189.363 54.2986 188.341 55.2927 187.798C56.6719 187.045 57.9654 186.455 58.2805 184.668C58.344 184.308 59.438 183.958 60.0817 183.906C61.1524 183.819 61.8331 183.735 62.3024 182.45C62.6804 181.415 63.8511 180.532 64.8672 179.888C66.8755 178.616 67.6943 175.635 70.8848 176.037C71.0406 177.969 71.0348 179.714 70.8892 181.478C69.8022 181.955 69.2823 182.445 70.6374 183.217C70.6354 183.666 70.6326 183.965 70.6299 184.264C67.6179 185.774 64.6024 187.212 62.2837 189.826C60.4156 191.932 58.2303 193.76 56.1855 195.711C56.1373 195.757 56.0456 195.798 56.0428 195.845C55.8024 199.871 51.3285 199.927 49.6439 202.574C48.3148 204.663 46.445 205.997 44.1848 206.912C43.9057 207.025 43.7115 207.525 43.6186 207.882C43.0006 210.257 41.1625 211.53 39.1881 212.602C38.7052 212.864 37.9113 212.561 36.8132 212.489C36.8533 213.347 37.0221 214.175 36.8739 214.943C36.7973 215.339 36.1573 215.629 35.6128 215.991C35.4537 216.015 35.4609 215.994 35.4382 215.891C35.3029 215.712 35.1902 215.634 35.0776 215.557C35.0776 215.557 35.1152 215.546 35.1088 215.387C34.7539 214.029 34.4054 212.83 34.057 211.632C33.0554 211.521 32.3713 211.047 31.6469 210.645C31.1825 210.386 30.659 210.233 30.1619 210.033C30.1619 210.033 30.1711 209.992 30.1522 209.885C29.9944 209.709 29.8556 209.639 29.7167 209.57C29.4952 209.373 29.2737 209.175 29 208.879Z" fill="#1D66FF"/>
<path d="M48 227.897C48.2119 227.774 48.485 227.806 48.7448 227.763C49.403 227.654 50.0552 227.511 50.7097 227.382C50.4681 226.812 50.2265 226.242 50.1486 226.058C50.9668 225.476 51.8317 224.921 52.6241 224.282C53.7337 223.387 54.9627 222.559 55.8317 221.471C57.6349 219.214 59.2269 216.8 60.9224 214.461C61.5252 213.63 62.2448 212.872 62.7903 212.009C63.746 210.497 64.6085 208.93 65.7352 207C66.0871 207 66.9411 207 67.9707 207C68.0363 209.622 67.9969 212.25 67.8002 214.866C67.4664 219.305 67.0342 223.738 66.6419 228.173C66.3279 231.723 66.0117 235.272 65.6375 239C60.5717 236.103 55.5556 233.04 50.5661 229.938C49.6727 229.383 48.8893 228.661 48 227.897Z" fill="#286CFB"/>
<path d="M30 210C30.4742 210.067 31.0088 210.214 31.4829 210.46C32.2224 210.845 32.921 211.297 33.9435 211.403C34.2993 212.548 34.655 213.693 35 215C33.3372 213.482 31.6852 211.803 30 210Z" fill="#2268FD"/>
<path d="M4 160C4.31248 160.226 4.68099 160.558 5 161C4.65234 160.775 4.35419 160.441 4 160Z" fill="#0E5BFE"/>
<path d="M26 206C26.3157 206.138 26.6553 206.464 27 207C26.6781 206.87 26.351 206.529 26 206Z" fill="#1660FD"/>
<path d="M35 215.023C35.2514 214.906 35.5772 215.233 36 215.979C35.7562 216.088 35.4153 215.778 35 215.023Z" fill="#2268FD"/>
<path d="M192 161.63C193.381 158.169 194.762 154.709 196.39 151.142C198.659 151.048 200.701 150.887 202.697 151.12C204.701 151.354 206.53 152.759 208.708 152.027C208.783 152.001 208.932 152.148 209.031 152.232C211.961 154.738 215.653 155.117 219.241 155.796C219.663 155.876 220.133 156.022 220.448 156.29C223.029 158.483 226.425 157.923 229.365 158.892C230.288 159.196 231.248 159.39 232.171 159.695C232.847 159.918 233.467 160.332 234.152 160.497C235.806 160.895 237.526 161.062 239.142 161.565C242.786 162.698 246.383 163.978 250 165.199C248.652 169.113 247.415 173.069 245.919 176.927C244.843 179.701 243.422 182.344 241.947 185C241.136 183.875 240.484 182.939 238.953 183.188C238.626 183.242 238.223 182.71 237.825 182.506C236.997 182.082 236.16 181.668 235.305 181.302C234.288 180.868 233.2 180.575 232.227 180.065C230.472 179.146 228.815 178.042 227.053 177.139C223.67 175.405 220.242 173.756 216.832 172.073C212.839 170.102 208.871 168.078 204.842 166.179C202.437 165.046 199.895 164.194 197.49 163.061C194.114 161.472 194.144 161.41 192 161.63Z" fill="#719DFE"/>
<path d="M191.875 161.122C194.111 160.851 194.081 160.914 197.471 162.558C199.887 163.729 202.439 164.609 204.855 165.782C208.901 167.745 212.886 169.837 216.897 171.876C220.321 173.616 223.764 175.321 227.162 177.114C228.932 178.048 230.596 179.189 232.358 180.139C233.336 180.666 234.428 180.969 235.449 181.418C236.309 181.797 237.149 182.224 237.98 182.663C238.38 182.874 238.785 183.424 239.113 183.369C240.651 183.11 241.305 184.078 242 185.304C238.861 190.946 235.634 196.479 232.179 202C231.511 201.435 231.167 200.74 230.614 200.357C228.935 199.195 227.191 198.127 225.44 197.078C224.53 196.533 223.536 196.135 222.609 195.616C221.792 195.159 220.655 194.817 220.284 194.094C218.881 191.364 216.688 189.668 214.065 188.342C212.194 187.397 209.824 187.085 209.127 184.509C209.04 184.189 208.383 184.055 208.034 183.778C205.995 182.159 202.627 182.628 201.519 179.492C201.42 179.212 200.711 178.989 200.302 179.015C198.83 179.112 197.899 178.609 197.503 177.077C197.388 176.633 196.863 176.267 196.469 175.934C195.078 174.756 193.68 173.583 192.244 172.462C191.797 172.113 191.227 171.921 190.702 171.682C189.634 171.196 188.559 170.726 187.487 170.249C187.538 170.116 187.589 169.983 187.64 169.85C187.093 170.053 186.547 170.255 186 170.458C187.539 168.073 189.077 165.689 190.885 163.2C191.318 162.63 191.482 162.164 191.646 161.698C191.694 161.521 191.743 161.344 191.875 161.122Z" fill="#6999FE"/>
<path d="M199 138.528C199.068 136.693 199.137 134.858 199.402 132.791C199.7 131.706 199.799 130.853 200.06 130C203.444 131.504 206.896 131.134 210.297 131.139C219.079 131.151 227.86 131.117 236.642 131.165C238.362 131.175 240.248 130.308 241.782 131.851C241.914 131.984 242.288 131.902 242.55 131.903C244.319 131.906 246.089 131.928 247.858 131.898C250.188 131.859 252.724 131.035 254.28 133.911C254.573 132.787 254.787 131.97 255 131.152C254.998 132.182 254.996 133.213 254.891 134.496C254.843 135.19 254.896 135.632 254.949 136.074C254.395 140.726 253.84 145.377 253.148 150C251.664 149.328 250.379 148.352 248.96 148.107C245.324 147.479 241.627 147.177 237.956 146.737C237.766 146.715 237.587 146.618 237.399 146.575C234.372 145.875 231.378 144.894 228.309 144.553C224.312 144.108 220.303 143.931 216.472 142.564C215.643 142.268 214.686 142.299 213.786 142.198C213.142 142.126 212.483 142.137 211.85 142.017C210.293 141.724 208.693 140.968 207.209 141.151C205.148 141.403 203.409 139.331 201.329 140.616C201.238 140.672 200.887 140.413 200.713 140.247C200.129 139.687 199.569 139.103 199 138.528Z" fill="#7CA5FE"/>
<path d="M198.293 138C198.968 138.456 199.544 139.075 200.145 139.668C200.324 139.844 200.685 140.118 200.778 140.059C202.918 138.698 204.707 140.892 206.827 140.625C208.354 140.432 210 141.232 211.601 141.542C212.253 141.669 212.931 141.657 213.593 141.734C214.519 141.841 215.503 141.807 216.356 142.121C220.297 143.568 224.421 143.756 228.533 144.227C231.69 144.588 234.77 145.627 237.883 146.368C238.077 146.414 238.261 146.516 238.456 146.54C242.233 147.005 246.036 147.325 249.776 147.99C251.236 148.249 252.558 149.283 253.979 150.116C254.017 150.268 254.012 150.437 253.889 150.611C253.717 151.161 253.669 151.536 253.62 151.91C252.594 156.231 251.568 160.552 250.48 165C246.743 163.874 243.087 162.558 239.383 161.393C237.741 160.876 235.992 160.705 234.312 160.296C233.615 160.126 232.986 159.7 232.299 159.471C231.36 159.158 230.384 158.958 229.446 158.646C226.459 157.65 223.007 158.226 220.383 155.971C220.063 155.697 219.585 155.546 219.156 155.464C215.51 154.766 211.758 154.377 208.779 151.801C208.679 151.714 208.528 151.564 208.451 151.59C206.238 152.343 204.379 150.898 202.342 150.658C200.314 150.419 198.238 150.584 196 150.555C196.613 146.409 197.408 142.281 198.293 138Z" fill="#76A1FE"/>
<path d="M186.631 202.986C186.36 198.718 186.09 194.45 186 190C187.162 190.228 188.832 190.447 188.998 191.082C189.581 193.303 191.466 193.487 192.87 194.5C194.065 195.362 194.907 196.736 195.924 197.866C196.911 198.962 197.884 200.077 198.935 201.106C199.645 201.802 200.598 202.258 201.238 203.006C203.336 205.457 205.202 208.132 207.426 210.447C208.982 212.066 211.014 213.194 212.756 214.64C213.224 215.029 213.698 215.794 213.669 216.36C213.554 218.617 213.862 219.128 216 219.45C212.911 222.323 209.823 225.197 206.55 228C205.141 227.363 204.729 226.317 204.413 225.028C204.175 224.056 203.574 223.018 202.837 222.363C200.194 220.015 197.971 217.365 196.123 214.306C195.403 213.115 194.185 212.008 192.943 211.452C191.819 210.949 191.117 210.569 191.31 209.271C191.524 207.825 190.912 206.696 189.767 206.121C188.664 205.567 188.619 204.804 188.539 203.765C188.449 202.589 188.054 201.436 187.792 200.274C187.625 200.321 187.458 200.369 187.291 200.417C187.071 201.273 186.851 202.13 186.631 202.986Z" fill="#5D90FD"/>
<path d="M185.82 170.661C186.481 170.395 187.028 170.197 187.575 170C187.524 170.13 187.473 170.259 187.422 170.389C188.494 170.854 189.569 171.313 190.637 171.788C191.161 172.021 191.732 172.209 192.178 172.549C193.615 173.643 195.012 174.788 196.404 175.938C196.797 176.263 197.323 176.62 197.438 177.053C197.834 178.548 198.765 179.039 200.237 178.945C200.645 178.919 201.354 179.137 201.453 179.41C202.561 182.471 205.93 182.013 207.969 183.593C208.318 183.863 208.975 183.995 209.062 184.307C209.759 186.821 212.129 187.126 213.999 188.048C216.622 189.342 218.815 190.998 220.218 193.662C220.59 194.368 221.726 194.701 222.544 195.148C223.471 195.654 224.464 196.043 225.374 196.575C227.125 197.598 228.869 198.641 230.548 199.775C231.102 200.148 231.445 200.827 232 201.45C229.655 204.665 227.194 207.797 224.601 210.979C224.469 211.03 224.429 210.992 224.432 210.838C224.435 208.504 224.435 206.326 224.435 204.104C221.195 203.783 219.419 201.297 217.389 198.907C216.083 197.368 214.076 196.408 212.359 195.221C212.176 195.095 211.838 195.161 211.574 195.179C208.85 195.371 208.199 194.814 207.225 192.288C206.806 191.204 205.939 190.192 205.042 189.41C203.934 188.444 202.577 187.76 201.338 186.939C200.154 186.156 198.993 185.341 197.802 184.57C197.422 184.324 196.869 184.273 196.581 183.964C194.558 181.786 192.619 179.529 190.564 177.382C190.125 176.923 189.319 176.585 188.682 176.586C187.584 176.589 186.487 176.901 185.175 177.119C185.343 178.076 185.486 178.89 185.515 179.815C185.345 180.909 185.289 181.892 185.232 183.046C185.144 184.279 185.058 185.341 184.971 186.403C184.615 182.352 184.107 178.306 184.001 174.248C183.97 173.091 185.105 171.903 185.82 170.661Z" fill="#6595FD"/>
<path d="M186 202.882C186.264 201.853 186.497 200.998 186.73 200.143C186.907 200.095 187.084 200.048 187.261 200C187.539 201.161 187.957 202.311 188.052 203.485C188.137 204.522 188.184 205.284 189.353 205.836C190.565 206.41 191.213 207.537 190.986 208.98C190.783 210.276 191.525 210.655 192.716 211.157C194.031 211.711 195.32 212.817 196.083 214.005C198.041 217.059 200.394 219.704 203.193 222.047C203.974 222.701 204.609 223.736 204.862 224.706C205.196 225.993 205.632 227.037 207 227.735C201.254 231.579 195.437 235.29 189.463 239C188.977 236.127 188.596 233.26 188.331 230.382C187.796 224.594 187.325 218.8 186.965 212.728C186.973 211.789 186.843 211.131 186.714 210.474C186.606 209.588 186.498 208.703 186.527 207.568C186.545 206.96 186.427 206.602 186.308 206.245C186.259 206.085 186.21 205.925 186.353 205.622C186.708 205.39 186.878 205.311 187.023 205.201C187.043 205.186 186.937 205.016 186.889 204.917C186.682 205.113 186.475 205.309 186.268 205.505C186.168 204.688 186.068 203.872 186 202.882Z" fill="#588CFB"/>
<path d="M185 182.944C185.057 181.963 185.114 180.982 185.369 180C186.33 180.453 187.093 180.908 187.859 181.502C188.132 181.944 188.403 182.246 188.676 182.688C188.95 183.13 189.22 183.432 189.506 183.87C190.056 184.442 190.591 184.879 191.142 185.456C191.828 186.029 192.499 186.463 193.29 186.954C193.739 187.5 194.067 187.989 194.413 188.605C194.691 188.91 194.952 189.09 195.213 189.368C195.213 189.467 195.213 189.664 195.23 189.791C195.509 190.096 195.77 190.276 196.132 190.455C196.235 190.455 196.439 190.455 196.459 190.588C197.692 191.555 198.905 192.389 200.117 193.321C200.117 193.42 200.117 193.618 200.135 193.744C200.413 194.05 200.674 194.229 200.934 194.507C200.934 194.606 200.934 194.804 200.949 194.939C201.498 195.511 202.034 195.948 202.569 196.484C202.569 196.583 202.569 196.78 202.634 196.901C204.017 197.601 205.337 198.179 206.67 198.893C208.485 200.994 210.227 203.013 212.103 204.907C213.755 206.575 215.811 207.919 217.224 209.743C218.868 211.866 219.316 212.221 221.907 211.022C222.359 211.158 222.681 211.283 223 211.56C222.867 212.405 222.737 213.098 222.607 213.79C222.607 213.79 222.595 213.78 222.475 213.791C222.176 213.944 221.996 214.086 221.816 214.228C221.816 214.228 221.786 214.191 221.693 214.258C221.531 214.558 221.462 214.791 221.394 215.024C221.368 215.142 221.308 215.24 220.963 215.348C219.704 215.266 219.19 215.632 219.378 216.673C219.264 216.834 219.151 216.995 218.896 217.289C218.679 217.537 218.605 217.65 218.53 217.764C218.53 217.764 218.505 217.741 218.419 217.791C218.243 217.957 218.155 218.073 218.067 218.189C217.814 218.451 217.561 218.713 217.204 219C214.851 218.706 214.528 218.2 214.649 215.964C214.679 215.404 214.18 214.645 213.689 214.261C211.857 212.828 209.72 211.711 208.083 210.106C205.744 207.813 203.782 205.163 201.576 202.735C200.903 201.994 199.901 201.542 199.153 200.852C198.048 199.833 197.025 198.729 195.987 197.642C194.918 196.523 194.032 195.162 192.775 194.307C191.299 193.304 189.316 193.122 188.704 190.922C188.529 190.293 186.772 190.076 185.581 189.666C185.398 189.598 185.375 189.533 185.493 189.289C186.741 187.816 186.49 184.272 185.194 182.983C185.156 182.945 185.066 182.956 185 182.944ZM212.722 209.649C212.394 209.701 212.066 209.753 211.737 209.805C211.913 210.043 212.089 210.28 212.265 210.518C212.483 210.289 212.7 210.061 212.722 209.649ZM205.437 204.022C205.673 203.812 205.909 203.602 206.145 203.392C205.899 203.222 205.654 203.052 205.409 202.882C205.355 203.198 205.3 203.515 205.437 204.022Z" fill="#6093FE"/>
<path d="M222 215C222.008 214.179 222.14 213.286 222.438 212.197C223.041 211.994 223.478 211.988 223.936 212.007C223.957 212.033 224 212.084 224 212.084C223.374 213.032 222.749 213.98 222 215Z" fill="#6595FD"/>
<path d="M219.064 217C218.845 216.208 219.195 215.921 220 216.018C219.797 216.344 219.476 216.659 219.064 217Z" fill="#6595FD"/>
<path d="M255.696 135C255.178 134.731 254.824 134.396 255.091 134C255.784 134.154 255.857 134.369 255.989 134.692C256.048 134.799 255.861 134.934 255.696 135Z" fill="#81A9FF"/>
<path d="M218.036 219C217.884 218.766 218.216 218.45 218.97 218C219.101 218.217 218.81 218.567 218.036 219Z" fill="#5D90FD"/>
<path d="M162.233 32.9933C157.946 39.8869 154.155 47.033 151.575 54.7917C151.005 56.5061 150.485 58.2378 149.93 60C147.425 59.2699 144.964 58.5525 142.381 57.7688C141.838 57.3023 141.417 56.9021 141 56.5065C141.245 56.1073 141.695 55.6989 141.738 55.2496C141.928 53.295 141.975 51.3264 142.126 49.3672C142.194 48.4833 142.363 47.605 142.53 46.733C142.592 46.4104 142.933 46.0859 142.886 45.8079C142.324 42.4734 143.678 39.4158 144.202 36.2458C144.75 32.9284 145.477 29.6417 146.111 26.3387C146.287 25.4236 146.365 24.4869 146.575 23.5811C146.793 22.6446 147.133 21.7385 147.387 20.8096C147.541 20.2417 147.795 19.6349 147.725 19.0818C147.412 16.5756 147.328 14.262 149.653 12.4634C150.072 12.1398 149.642 10.605 149.511 9.64249C149.426 9.02228 148.935 8.37842 149.041 7.82829C149.311 6.43304 149.814 5.08461 150.283 3.51741C150.601 3.44439 151.299 3.28435 152.06 3C156.704 3.93324 161.3 4.93259 165.86 6.07775C167.616 6.51889 169.293 7.29158 171 8.13397C170.174 8.23567 169.332 8.19817 168.538 7.98174C166.432 7.40824 165.881 7.91282 166.155 10.0897C166.225 10.6489 166.043 11.626 165.692 11.7932C163.196 12.9849 163.436 15.3018 163.238 17.4647C162.971 20.3636 162.69 23.2612 162.426 26.0515C161.407 25.9205 160.676 25.8267 159.946 25.7329C159.953 26.4331 159.961 27.1333 159.968 27.8336C159.971 28.1658 160.044 28.5164 159.966 28.8272C159.402 31.0592 160.023 32.2199 162.233 32.9933Z" fill="#B5CBFD"/>
<path d="M254.994 130.684C254.775 131.809 254.564 132.732 254.273 134C252.731 130.755 250.217 131.685 247.907 131.729C246.154 131.762 244.4 131.737 242.646 131.734C242.387 131.734 242.016 131.826 241.885 131.676C240.365 129.934 238.496 130.912 236.791 130.902C228.087 130.847 219.383 130.885 210.679 130.872C207.308 130.867 203.886 131.284 200.525 129.465C200.247 129.148 200.135 128.954 200.009 128.556C199.991 125.897 199.986 123.44 200.135 120.984C203.902 119.455 207.566 118.438 211.517 118.765C213.067 118.894 214.66 118.16 216.249 118.005C218.853 117.753 221.479 117.755 224.079 117.466C228.296 116.996 232.496 116.343 236.71 115.839C238.305 115.649 240.165 116.793 241.326 114.619C241.348 114.577 241.447 114.582 241.51 114.57C243.924 114.11 246.349 113.369 248.66 115.023C248.909 115.201 249.268 115.321 249.556 115.284C251.223 115.066 252.884 114.792 254.548 114.538C254.561 115.276 254.575 116.015 254.521 116.977C254.492 117.312 254.529 117.423 254.567 117.534C254.708 118.569 254.849 119.603 254.996 120.81C255.002 124.15 255.001 127.316 254.994 130.684Z" fill="#81A9FF"/>
<path d="M255 114.92C253.286 115.331 251.591 115.588 249.89 115.794C249.596 115.829 249.23 115.716 248.976 115.548C246.618 113.988 244.144 114.687 241.682 115.12C241.617 115.132 241.516 115.128 241.493 115.167C240.309 117.217 238.412 116.138 236.784 116.318C232.484 116.793 228.199 117.408 223.897 117.851C221.244 118.124 218.565 118.122 215.909 118.36C214.288 118.506 212.663 119.198 211.082 119.077C207.05 118.768 203.312 119.727 199.447 121C199.157 117.81 198.934 114.784 199.018 111.767C199.038 111.061 200.102 110.385 200.723 109.65C201.317 110.477 201.64 110.928 202.209 111.721C203.129 108.908 204.777 108.063 207.217 108.978C207.493 109.081 207.879 108.969 208.188 108.873C210.426 108.178 212.65 107.435 214.898 106.773C215.37 106.633 215.92 106.771 216.434 106.771C216.943 106.771 217.656 106.978 217.929 106.715C220.467 104.269 223.632 104.642 226.705 104.522C227.336 104.497 227.964 104.265 228.584 104.093C229.44 103.854 230.272 103.49 231.141 103.341C233.255 102.98 235.885 103.386 237.382 102.235C239.273 100.78 241.176 100.379 243.197 100.311C246.337 100.205 249.439 97.5712 252.626 100.08C253.423 104.97 254.22 109.86 255 114.92Z" fill="#86ACFE"/>
<path d="M253 100.42C249.788 98.0781 246.654 100.702 243.483 100.807C241.441 100.875 239.519 101.275 237.608 102.724C236.096 103.871 233.44 103.465 231.304 103.826C230.426 103.974 229.586 104.337 228.721 104.574C228.095 104.746 227.461 104.977 226.823 105.002C223.719 105.121 220.522 104.75 217.958 107.187C217.683 107.448 216.962 107.242 216.448 107.242C215.929 107.242 215.374 107.105 214.896 107.244C212.626 107.904 210.38 108.644 208.119 109.336C207.806 109.432 207.416 109.543 207.138 109.44C204.673 108.529 203.008 109.371 202.08 112.173C201.505 111.383 201.178 110.934 200.578 110.111C199.951 110.842 198.876 111.515 198.856 112.219C198.771 115.224 198.997 118.238 199.131 121.416C199.158 123.891 199.163 126.199 199.153 128.882C199.083 129.506 199.028 129.753 198.972 130C198.641 125.009 198.189 120.022 198.011 115.025C197.812 109.476 200.431 104.848 203.512 100.252C205.078 99.256 206.319 98.2278 207.708 97.4712C208.663 96.9504 209.86 96.8978 210.883 96.4759C213.769 95.286 216.593 93.9418 219.494 92.795C222.111 91.7608 224.797 90.904 227.455 89.9749C229.233 89.3534 231.161 88.9963 232.759 88.065C234.962 86.781 237.128 86.014 239.721 85.933C241.302 85.8836 243.255 85.2547 244.302 84.1677C245.259 83.1733 246.083 82.3431 247.392 82C247.402 82.2939 247.412 82.5879 247.418 83.2053C247.125 85.4688 248.224 86.784 249.43 88.0509C250.618 92.1214 251.805 96.1919 253 100.42Z" fill="#8AAFFE"/>
<path d="M247 81.83C245.761 82.3088 244.95 83.1327 244.009 84.1196C242.979 85.1983 241.059 85.8225 239.504 85.8715C236.955 85.9519 234.824 86.713 232.658 87.9873C231.087 88.9115 229.191 89.2659 227.442 89.8828C224.829 90.8048 222.187 91.6551 219.614 92.6814C216.761 93.8195 213.984 95.1536 211.146 96.3344C210.14 96.7532 208.963 96.8054 208.023 97.3222C206.658 98.0731 205.437 99.0934 204 100C205.102 97.289 206.531 94.6422 207.558 91.8435C208.343 89.7023 208.62 87.369 209.28 84.9967C209.37 84.4086 209.304 83.9451 209.237 83.4817C209.214 83.3253 209.191 83.1688 209.351 82.8633C210.144 82.6257 210.754 82.5372 211.46 82.4349C211.271 81.3791 211.094 80.3938 210.842 78.9877C212.639 80.0736 213.95 80.6486 214.627 78.5002C214.701 78.2638 215.101 78.0852 215.386 77.9725C216.832 77.3998 218.345 76.9702 219.734 76.2822C222.886 74.721 226.31 73.4497 228.975 71.2517C230.606 69.9065 232.262 68.6501 234.083 67.7795C235.859 66.9307 237.645 64.9311 239.956 66.7228C239.956 66.7228 239.974 66.8972 239.967 67.1338C240.229 67.6847 240.499 67.9991 240.768 68.3135C242.83 72.7729 244.891 77.2324 247 81.83Z" fill="#90B3FE"/>
<path d="M240 66.6921C237.727 65.0291 235.959 67.0458 234.2 67.9019C232.397 68.7801 230.757 70.0473 229.142 71.4041C226.504 73.6209 223.113 74.9032 219.992 76.4779C218.617 77.1718 217.119 77.6051 215.687 78.1827C215.405 78.2964 215.009 78.4765 214.935 78.715C214.266 80.8818 212.967 80.302 211.188 79.2067C211.437 80.6249 211.613 81.6186 211.8 82.6836C211.101 82.7868 210.497 82.876 209.746 83C209.101 81.0561 208.542 79.0909 208.135 77.0925C207.96 76.2346 207.952 75.2749 208.129 74.4186C208.665 71.8152 209.328 69.2397 210.165 66.4612C210.603 65.4548 211.033 64.6297 210.995 63.8282C210.839 60.5344 213.691 58.8158 214.64 56.1195C214.674 56.0222 214.871 55.9983 214.964 55.9084C216.208 54.6964 217.452 53.4849 218.685 52.2609C220.072 50.8839 221.21 49.1269 223.556 49.3877C223.993 49.4363 224.521 48.8465 224.968 48.4976C225.573 48.0256 226.14 47.5017 226.723 47C227.759 48.1548 228.963 49.1934 229.803 50.4848C233.257 55.7974 236.6 61.1868 240 66.6921Z" fill="#97B8FE"/>
<path d="M227 46.6C226.419 47.2395 225.834 47.7615 225.209 48.2317C224.747 48.5793 224.201 49.1668 223.749 49.1184C221.326 48.8586 220.15 50.609 218.717 51.9808C217.443 53.2003 216.158 54.4072 214.872 55.6147C214.777 55.7042 214.574 55.728 214.538 55.825C213.558 58.5112 210.611 60.2233 210.772 63.5047C210.811 64.3032 210.367 65.1252 210 66C210.397 58.9501 211.247 51.842 211.373 44.7211C211.459 39.8767 210.531 35.0144 210.084 30C211.705 30.9977 213.468 31.9826 214.857 33.3464C218.689 37.1108 222.374 41.024 226.086 44.9076C226.487 45.327 226.686 45.9381 227 46.6Z" fill="#9EBCFC"/>
<path d="M162.393 33C160.246 32.2382 159.642 31.0878 160.191 28.8758C160.268 28.5678 160.196 28.2203 160.193 27.8911C160.186 27.1971 160.179 26.5031 160.172 25.8092C160.883 25.9021 161.594 25.9951 162.586 26.1249C162.844 23.3596 163.118 20.4879 163.377 17.6149C163.571 15.4714 163.337 13.1751 165.768 11.9942C166.109 11.8285 166.286 10.8601 166.218 10.3059C165.951 8.14845 166.488 7.64838 168.538 8.21675C169.312 8.43124 170.132 8.4684 171.026 8.47381C174.037 9.55105 176.953 10.7409 180 11.9952C176.339 16.1512 172.547 20.2426 168.525 24.4491C168.218 24.722 168.142 24.88 168.066 25.0379C167.768 25.4772 167.469 25.9164 166.961 26.4501C166.695 26.6858 166.637 26.8271 166.579 26.9684C166.579 26.9684 166.563 26.9013 166.474 26.9328C166.286 27.1836 166.187 27.4029 166.089 27.6223C166.089 27.6223 166.086 27.6218 165.949 27.6496C165.663 27.993 165.515 28.3087 165.367 28.6244C165.184 28.9372 165.002 29.25 164.609 29.6738C164.333 29.9463 164.267 30.1078 164.201 30.2693C164.126 30.4385 164.052 30.6077 163.796 30.8623C163.561 31.0808 163.506 31.2138 163.451 31.3469C163.451 31.3469 163.44 31.2981 163.311 31.2951C162.921 31.8576 162.659 32.4232 162.397 32.9887C162.397 32.9887 162.388 32.9954 162.393 33Z" fill="#B0C8FC"/>
<path d="M249 87C247.829 86.0224 246.762 84.864 247.047 83C247.7 84.1837 248.349 85.5227 249 87Z" fill="#92B2FB"/>
<path d="M57 142C56.5953 141.761 56.3115 141.38 56 140.874C56.0144 140.551 56.0565 140.351 56.1136 140C56.4594 140.519 56.7901 141.188 57 142Z" fill="#0E5BFE"/>
<path d="M111 57C112.053 56.6643 113.269 56.3338 114.656 56C115.187 56.0374 115.548 56.078 116 56.1868C114.449 56.505 112.806 56.7551 111 57Z" fill="#CBDBFE"/>
<path d="M90.5847 186.981C87.7185 184.192 84.892 181.362 81.979 178.622C70.7126 168.027 62.8439 155.603 60.8438 139.994C59.9246 132.821 60.2058 125.646 60.946 118.485C61.5533 112.611 60.4791 107.164 57.6119 101.953C55.2135 97.5943 52.8979 93.1474 51.072 88.5331C49.6211 84.8663 49.713 80.9876 51.9437 77.3777C52.3387 76.7384 52.1746 75.5756 51.9303 74.7542C49.2359 65.6935 47.8698 56.4306 48.0098 47.0029C48.2033 33.9736 50.7894 21.3819 55.7237 9.29245C57.1392 5.82442 60.0626 5.03304 63.1332 7.219C77.5933 17.5134 89.1826 30.3168 96.8116 46.3638C99.3093 51.6174 100.843 57.3253 102.805 62.83C103.02 63.4356 103.15 64.0715 103.363 64.8499C109.831 61.2195 116.665 59.6983 124 59.6499C123.12 62.1922 121.982 64.5245 121.042 66.9338C117.256 76.6455 117.25 86.6466 118.776 96.778C120.105 105.599 119.959 114.384 117.631 122.95C117.492 121.365 117.383 119.904 117.439 118.449C117.652 112.859 115.132 108.699 110.559 105.754C103.344 101.109 95.8223 101.327 88.2623 104.848C81.281 108.1 76.2068 113.491 71.9068 119.698C68.0749 125.231 65.6719 131.255 65.628 138.06C65.5859 144.579 67.5246 150.624 70.3362 156.414C74.9478 165.911 82.0026 173.511 89.6152 180.65C90.7097 181.677 92.0093 182.487 93.1946 183.554C93.216 184.948 93.2567 186.186 93.2975 187.569C93.2758 188.087 93.254 188.461 93.2226 189C92.3745 188.376 91.657 187.848 90.9057 187.24C90.8001 187.063 90.7044 187.003 90.5847 186.981ZM66.4523 75.2495C66.4851 75.2685 66.518 75.2876 66.5508 75.3067C66.5027 75.2535 66.4546 75.2003 66.3692 75.0275C66.3331 75.0059 66.297 74.9844 66.2609 74.9629C66.3111 75.0227 66.3612 75.0825 66.4523 75.2495ZM56.3425 69.8002C56.7481 72.3935 56.3962 78.9716 55.6986 81.7237C55.2954 83.3147 55.6169 84.7161 56.6643 86.0032C58.2572 87.9604 59.817 89.9454 61.3485 91.9507C63.7098 95.0425 65.4215 95.0548 67.9849 91.8602C67.7107 91.5328 67.4901 91.0635 67.1215 90.8608C63.153 88.6788 62.8654 85.1388 63.1496 81.1581C63.3818 77.9073 63.7711 74.5182 61.7327 71.5449C61.7159 71.5205 61.8797 71.3734 62.0716 71.1563C63.2507 72.2274 64.429 73.2977 65.6074 74.3681C65.7733 74.2655 65.9393 74.1628 66.1052 74.0602C63.4154 66.9336 60.6429 59.8291 59.7618 52.1678C70.5769 58.1096 77.39 67.183 81.2125 78.9706C83.036 76.2727 84.3684 73.7612 86.2091 71.6992C89.3047 68.2315 89.1074 64.4296 88.2997 60.3123C86.0193 48.6863 81.2502 38.1768 73.8254 28.9681C70.288 24.5807 66.2074 20.6194 62.2757 16.5583C60.8358 15.071 59.8396 15.356 59.2283 17.2607C58.4786 19.5968 57.7965 21.9595 57.206 24.3404C54.6308 34.7237 53.8358 45.2924 54.419 55.9319C54.6675 60.4654 55.6383 64.9597 56.3425 69.8002Z" fill="#A74E23"/>
<path d="M132 59.5151C139.17 59.5727 145.933 61.2079 152.401 64.7983C153.086 62.369 153.69 60.031 154.404 57.7262C157.874 46.5201 163.676 36.5544 171.05 27.4512C177.263 19.7811 184.519 13.1896 192.537 7.40075C195.897 4.9747 198.834 5.71218 200.386 9.51859C204.203 18.8754 206.624 28.5736 207.554 38.6326C208.692 50.9386 207.696 63.031 204.051 74.888C203.806 75.6843 203.78 76.845 204.197 77.4919C206.434 80.9576 206.41 84.705 205.058 88.2275C203.352 92.6702 201.306 97.0562 198.827 101.121C195.104 107.224 194.437 113.702 195.208 120.515C197.144 137.633 194.552 153.764 183.571 167.63C178.916 173.508 173.24 178.599 167.992 184.014C166.46 185.595 164.803 187.059 163.034 188.757C162.798 188.993 162.731 189.049 162.583 188.96C162.567 186.947 162.632 185.079 162.836 183.206C166.602 179.862 170.393 176.679 173.819 173.15C180.976 165.775 186.477 157.334 189.304 147.406C191.202 140.737 191.187 134.056 188.614 127.5C185.88 120.535 181.446 114.717 175.783 109.903C170.05 105.03 163.512 101.71 155.641 102.247C147.386 102.81 137.829 108.115 138.444 119.488C138.492 120.372 138.227 121.273 138.062 122.013C136.054 113.682 135.872 105.437 136.992 97.1281C137.996 89.6769 139.058 82.1585 137.141 74.7541C135.801 69.5798 133.739 64.5883 132 59.5151ZM190.398 74.6431C191.912 73.3157 193.427 71.9883 194.96 70.6791C194.96 70.6791 194.982 70.6957 194.946 70.9815C194.29 72.28 193.172 73.5439 193.069 74.8841C192.831 77.9798 192.927 81.1261 193.202 84.2247C193.351 85.9032 193.173 87.212 191.869 88.3315C190.576 89.4406 189.333 90.6052 187.934 91.8657C188.612 92.3699 189.064 92.7404 189.549 93.061C191.997 94.6782 192.549 94.6695 194.455 92.4994C195.769 91.004 196.69 89.1296 198.142 87.8044C200.977 85.2153 201.529 82.4992 199.696 79.1302C198.629 77.1689 198.504 75.1529 199.199 72.8295C201.119 66.4074 202.071 59.7866 202.217 53.0741C202.42 43.6974 201.435 34.4354 199.337 25.2942C198.73 22.6485 198.012 20.0234 197.233 17.4219C196.642 15.448 195.631 15.2547 194.079 16.6474C193.187 17.4481 192.224 18.1725 191.351 18.9928C186.028 23.9987 181.445 29.5924 177.575 35.7759C171.988 44.7021 168.447 54.3444 167.219 64.7631C167.057 66.1361 167.681 67.7535 168.367 69.0348C169.426 71.0145 170.843 72.8088 172.128 74.6682C172.966 75.8815 173.84 77.0707 174.781 78.3866C176.624 74.5777 178.008 70.9307 180.06 67.6989C182.145 64.4152 184.679 61.3407 187.406 58.5451C190.033 55.8508 193.03 53.442 196.903 52.2055C195.931 56.549 194.761 60.7424 193.458 64.8951C192.427 68.1786 191.234 71.412 189.998 74.7131C190.041 74.7024 190.084 74.6917 190.398 74.6431Z" fill="#A84E23"/>
<path d="M131.959 60.0115C133.827 65.1378 135.86 70.1121 137.181 75.2686C139.072 82.6475 138.024 90.1401 137.034 97.5657C135.93 105.846 136.109 114.062 138.071 122.518C138.628 124.661 139.13 126.509 139.697 128.336C143.187 139.585 148.736 149.888 154.412 160.124C157.702 166.057 160.645 172.089 161 179.123C160.804 179.806 160.704 180.381 160.472 180.977C160.115 181.231 159.836 181.431 159.677 181.7C157.736 184.973 156.12 188.494 153.81 191.478C150.593 195.635 146.101 197.579 140.73 196.85C137.028 196.347 136.671 195.592 138.352 192.363C138.718 191.66 139.109 190.963 139.38 190.223C139.47 189.977 139.219 189.607 139.167 189.192C139.258 188.952 139.305 188.815 139.474 188.609C140.66 186.15 142.065 183.849 142.717 181.352C144.132 175.937 142.255 171.453 138.03 169.195C131.074 166.374 124.217 166.183 117.239 169.239C116.167 170.236 115.23 171.18 114.197 172.197C113.881 172.789 113.662 173.307 113.346 173.951C112.184 177.51 112.4 180.871 113.809 184.283C113.914 184.595 114.031 184.788 114.158 185.124C114.735 186.219 115.3 187.172 115.879 188.236C115.999 188.544 116.104 188.74 116.2 189.086C117.091 191.19 117.993 193.143 118.889 195.084C115.683 197.597 110.14 197.558 106.19 195.029C102.466 192.646 99.9726 189.212 97.9027 185.4C97.0803 183.885 96.1596 182.424 95.246 180.781C95.1266 180.088 95.0451 179.552 95 178.842C95.2889 173.729 97.0243 169.23 99.2638 164.916C102.377 158.919 105.687 153.023 108.755 147.003C112.611 139.439 115.878 131.631 117.736 123.3C119.939 114.647 120.083 105.902 118.766 97.1205C117.253 87.0353 117.259 77.0796 121.012 67.4121C121.943 65.0138 123.072 62.6921 124.123 60.1927C126.693 60.0138 129.249 59.9774 131.959 60.0115Z" fill="#FAFBF9"/>
<path d="M113.43 184.016C112.011 180.689 111.796 177.294 113.105 173.695C114.237 173.227 115.152 172.898 113.903 171.853C114.839 170.9 115.775 169.946 116.857 169.139C117.124 171.711 117.246 174.137 117.375 176.684C121.599 175.302 124.771 177.574 127.43 181.351C129.916 177.551 133.04 175.488 137.719 176.709C137.449 175.801 137.058 175.134 137.097 174.495C137.209 172.657 137.494 170.831 137.711 169C141.847 171.176 143.722 175.705 142.309 181.175C141.657 183.697 140.252 186.021 138.997 188.392C138.559 188.763 138.312 189.177 138.017 189.719C135.923 191.127 133.879 192.407 131.784 193.531C130.617 192.372 130.336 193.17 130.006 194.227C129.571 194.648 129.024 194.961 128.998 195.313C128.895 196.695 128.956 198.089 128.956 199.156C132.947 200.594 136.708 201.95 140.496 203.371C140.635 203.419 140.747 203.4 141.024 203.38C143.921 204.125 146.566 203.745 149.237 202.881C150.615 203.643 150.717 202.732 150.912 201.714C153.69 199.659 155.882 197.237 157.091 194.125C158.219 191.223 159.027 188.195 160.135 185.222C161.377 185.162 161.66 185.656 161.417 186.693C161.241 187.449 161.241 188.247 161.203 189.029C161.202 189.05 161.674 189.094 161.925 189.128C161.991 189.071 162.058 189.015 162.241 188.9C163.146 188.995 163.936 189.147 164.898 189.368C165.072 189.437 165.008 189.546 164.822 189.632C164.525 189.868 164.414 190.018 164.304 190.168C164.298 190.273 164.251 190.354 163.937 190.431C163.393 190.872 163.078 191.293 162.762 191.715C162.322 192.205 161.881 192.695 161.277 193.081C160.989 192.87 160.863 192.763 160.737 192.656C160.686 192.748 160.583 192.914 160.592 192.92C160.768 193.047 160.957 193.154 161.143 193.265C159.544 195.636 157.946 198.007 156.086 200.437C155.55 200.596 155.275 200.695 155 200.794C155.118 200.986 155.237 201.178 155.356 201.37C154.622 202.059 153.888 202.748 152.962 203.362C152.445 203.239 152.12 203.192 151.794 203.144C151.872 203.467 151.949 203.791 152.026 204.114C150.291 204.882 148.572 205.691 146.816 206.406C145.193 207.067 143.437 207.449 141.899 208.261C133.309 212.791 124.533 213.308 115.727 209.245C112.599 207.802 109.525 206.423 106.005 205.572C105.638 204.331 105.217 204.264 104.616 205.084C104.154 204.848 103.691 204.612 103.157 204.117C102.817 202.769 102.333 202.036 101.06 202.602C100.819 202.424 100.578 202.245 100.292 201.807C99.955 201.332 99.6623 201.117 99.3697 200.902C98.7345 200.143 98.0993 199.384 97.4629 198.333C97.4331 196.898 97.2852 195.839 95.8367 195.704C93.6558 193.484 91.4748 191.264 89.2383 188.919C89.3343 188.051 88.1559 186.651 90.2963 186.803C90.5697 186.814 90.6645 186.874 90.7677 187.201C91.6717 188.327 92.5435 189.226 93.4153 190.124C93.5991 189.993 93.7829 189.862 93.9667 189.731C93.1821 188.819 95.4387 187.605 93.4858 186.646C93.3657 185.292 93.7673 184.613 95.1202 184.945C95.197 185.565 95.2287 186.045 95.2244 186.736C95.3115 187.34 95.4345 187.733 95.5062 188.194C95.4548 188.262 95.2855 188.252 95.2189 188.221C95.1077 188.204 95.0631 188.219 95.0185 188.233C95.1049 188.267 95.1912 188.301 95.354 188.233C95.5082 188.164 95.5859 188.197 95.526 188.365C95.0535 189.318 95.0034 189.977 96.254 190.069C96.5935 190.941 96.8349 191.707 97.1327 192.449C100.92 201.889 107.229 205.196 116.602 202.773C117.778 203.496 118.38 203.12 118.64 201.816C121.286 200.905 123.822 200.076 126.447 199.219C126.447 197.797 126.447 196.222 126.447 194.669C121.855 193.632 120.426 192.997 118.344 190.879C118.298 189.724 117.949 189.058 116.731 189.62C116.663 189.579 116.603 189.431 116.698 189.308C116.354 188.795 115.914 188.405 115.474 188.015C114.909 187.053 114.344 186.091 113.896 184.965C114.147 184.637 114.281 184.473 114.414 184.309C114.086 184.211 113.758 184.113 113.43 184.016ZM134.222 184.643C133.194 184.324 132.167 184.005 131.084 183.668C131.155 185.226 131.952 186.135 133.334 186.311C134.664 186.481 135.816 186.021 136.447 184.756C135.722 184.576 135.121 184.426 134.436 184.099C134.385 184.062 134.334 184.026 134.284 183.989C134.353 184.089 134.422 184.188 134.222 184.643ZM115.693 206.546C124.324 210.985 134.627 209.785 139.866 206.197C137.422 205.235 134.969 204.269 132.463 203.168C132.35 203.184 132.237 203.2 131.815 203.215C128.87 202.194 125.923 202.449 122.905 202.926C122.658 202.827 122.411 202.728 122.164 202.629C122.077 202.951 121.99 203.273 121.672 203.737C119.654 204.416 117.636 205.095 115.354 205.752C115.169 205.884 114.984 206.016 114.799 206.148C115.001 206.271 115.202 206.394 115.693 206.546ZM123.137 183.653C121.587 184.116 120.036 184.58 118.455 185.053C119.241 186.115 120.456 186.735 121.988 186.143C123.023 185.742 123.993 185.087 123.137 183.653Z" fill="#020202"/>
<path d="M70.6116 184.374C70.615 183.9 70.6179 183.597 70.636 183.004C70.7796 182.264 70.908 181.816 71.0364 181.368C71.0425 179.604 71.0487 177.84 71.0553 175.887C71.2001 174.857 71.3446 174.014 71.4971 173C71.6778 173.759 72.0688 174.707 71.9895 175.618C71.1107 185.716 70.1589 195.807 69.0844 206C68.2946 205.502 67.6473 204.905 67 204.307C67.1706 204.143 67.3412 203.978 67.5117 203.813C67.8245 204.06 68.1372 204.307 68.701 204.752C68.9263 202.521 69.1436 200.494 69.333 198.465C69.7663 193.826 70.1859 189.186 70.6116 184.374Z" fill="#286CFB"/>
<path d="M185.367 183.145C185.451 182.992 185.563 182.981 185.61 183.018C187.219 184.26 187.531 187.675 186.016 189C185.572 188.27 185.268 187.463 185 186.515C185.146 185.352 185.256 184.33 185.367 183.145Z" fill="#5D90FD"/>
<path d="M59 149C57.2838 147.997 56.5969 146.652 57.2345 145C57.9437 146.232 58.475 147.545 59 149Z" fill="#0E5BFE"/>
<path d="M46 68C45.1485 67.9776 44.5621 67.7726 45.4222 67C45.6824 67.2975 45.8474 67.6093 46 68Z" fill="#E1E9FD"/>
<path d="M199.009 129.945C199.177 129.6 199.265 129.382 199.398 129C199.625 128.997 199.807 129.158 200 129.421C199.851 130.319 199.69 131.117 199.301 132C199.024 131.415 198.976 130.744 199.009 129.945Z" fill="#86ACFE"/>
<path d="M162 33C162.196 32.3933 162.507 31.6899 163 31C162.826 31.6434 162.471 32.2734 162 33Z" fill="#B5CBFD"/>
<path d="M187 211C187.516 211.525 187.932 212.209 188 213C187.401 212.458 187.151 211.809 187 211Z" fill="#5D90FD"/>
<path d="M192 162C191.906 162.562 191.6 163.26 191 164C191.067 163.406 191.427 162.771 192 162Z" fill="#719DFE"/>
<path d="M187 205.986C187.267 205.651 187.543 205.326 187.819 205C187.882 205.164 188.023 205.448 187.997 205.473C187.803 205.656 187.577 205.787 187.171 205.975C186.981 206.016 187.008 205.996 187 205.986Z" fill="#5D90FD"/>
<path d="M68.9876 171C68.601 170.714 68.2144 170.428 68 170.001C68.4453 169.986 68.7183 170.112 68.9998 170.482C69.0013 170.817 68.9944 170.909 68.9876 171Z" fill="#1660FD"/>
<path d="M165 28C165.089 27.7261 165.4 27.3776 166 27C165.933 27.2891 165.578 27.6072 165 28Z" fill="#B5CBFD"/>
<path d="M163.076 31C162.847 30.7918 163.137 30.4625 163.926 30C164.148 30.2042 163.872 30.5416 163.076 31Z" fill="#B5CBFD"/>
<path d="M96 196C97.8168 195.993 98.0053 197.335 97.9999 199C97.3151 198.203 96.6725 197.191 96 196Z" fill="#090709"/>
<path d="M101 203.17C102.238 202.727 102.728 203.201 103 204C102.352 203.813 101.703 203.53 101 203.17Z" fill="#090709"/>
<path d="M105 205.661C105.443 204.698 105.801 204.768 106 205.998C105.692 206.019 105.38 205.886 105 205.661Z" fill="#090709"/>
<path d="M155.95 202C155.486 201.827 155.243 201.592 155 201.357C155.564 201.236 156.129 201.115 157 201C156.928 201.316 156.549 201.627 155.95 202Z" fill="#090709"/>
<path d="M163 192C163.395 191.692 164.036 191.346 165 191C164.631 191.32 163.939 191.641 163 192Z" fill="#090709"/>
<path d="M99 201C99.2952 201.133 99.6478 201.452 100 202C99.6856 201.881 99.3714 201.534 99 201Z" fill="#090709"/>
<path d="M70.9981 181C71.016 181.587 70.9025 182.198 70.7747 183C69.4867 182.333 69.9758 181.658 70.9981 181Z" fill="#2268FD"/>
<path d="M223.997 211.417C223.875 211.629 223.775 211.708 223.65 211.899C223.183 211.99 222.762 211.995 222.183 212C221.712 211.87 221.399 211.741 220.869 211.493C219.266 211.518 217.936 211.57 217.5 209.732C217.449 209.515 217.128 209.372 216.946 209.182C214.994 207.141 213.106 205.03 211.075 203.077C209.517 201.579 207.78 200.278 206.106 198.741C204.775 198.009 203.461 197.425 202.148 196.841C202.148 196.841 202.148 196.637 202.134 196.394C201.599 195.698 201.078 195.246 200.558 194.793C200.558 194.793 200.558 194.588 200.541 194.355C200.27 193.936 200.016 193.75 199.763 193.564C199.763 193.564 199.763 193.359 199.748 193.115C198.55 192.009 197.367 191.148 196.185 190.286C196.185 190.286 195.986 190.286 195.87 190.155C195.5 189.839 195.246 189.653 194.992 189.467C194.992 189.467 194.992 189.262 194.975 189.029C194.705 188.61 194.451 188.424 194.197 188.238C193.878 187.731 193.559 187.224 193.103 186.521C192.316 185.87 191.666 185.415 191.003 184.82C190.468 184.227 189.948 183.774 189.427 183.322C189.163 183.008 188.9 182.695 188.623 182.106C188.353 181.508 188.095 181.186 187.837 180.864C187.094 180.393 186.352 179.922 185.53 179.338C185.309 178.382 185.167 177.541 185 176.551C186.303 176.325 187.394 176.003 188.485 176C189.117 175.999 189.918 176.349 190.354 176.823C192.395 179.043 194.321 181.376 196.331 183.629C196.617 183.949 197.166 184.001 197.543 184.256C198.727 185.053 199.881 185.896 201.056 186.706C202.287 187.554 203.635 188.262 204.736 189.26C205.627 190.069 206.488 191.115 206.904 192.236C207.872 194.848 208.518 195.424 211.224 195.226C211.486 195.207 211.823 195.138 212.005 195.27C213.71 196.497 215.704 197.489 217.001 199.08C219.017 201.552 220.782 204.123 224 204.454C224 206.752 224 209.005 223.997 211.417Z" fill="#6393FF"/>
<path d="M207 200C208.575 201.13 210.24 202.308 211.733 203.665C213.68 205.434 215.49 207.346 217.361 209.194C217.536 209.367 217.843 209.496 217.892 209.693C218.31 211.357 219.584 211.31 221 211.278C218.791 212.51 218.374 212.177 216.841 210.185C215.523 208.473 213.606 207.211 212.066 205.645C210.317 203.867 208.692 201.972 207 200Z" fill="#6093FE"/>
<path d="M196 191C197.313 191.559 198.648 192.225 200 193C198.686 192.442 197.354 191.774 196 191Z" fill="#6093FE"/>
<path d="M203 197C204.284 197.516 205.633 198.174 207 199C205.7 198.492 204.382 197.817 203 197Z" fill="#6093FE"/>
<path d="M192 186C192.325 186.228 192.657 186.563 193 187C192.676 186.77 192.342 186.438 192 186Z" fill="#6093FE"/>
<path d="M189 184C189.649 184.23 190.315 184.563 191 185C190.351 184.77 189.685 184.437 189 184Z" fill="#6093FE"/>
<path d="M200 194C200.311 194.098 200.644 194.432 201 195C200.689 194.902 200.356 194.568 200 194Z" fill="#6093FE"/>
<path d="M118 123.675C116.231 132.154 112.934 139.981 109.044 147.565C105.949 153.6 102.61 159.511 99.4686 165.523C97.2091 169.848 95.4582 174.359 95.0309 179.511C94.4336 181.141 94.0091 182.571 93.5846 184C92.38 183.092 91.0805 182.283 89.9861 181.259C82.3741 174.134 75.3198 166.549 70.7086 157.071C67.8972 151.293 65.9586 145.26 66.0007 138.754C66.0446 131.963 68.4474 125.951 72.2791 120.43C76.5787 114.234 81.6525 108.854 88.6332 105.609C96.1927 102.096 103.714 101.878 110.928 106.514C115.501 109.453 118.021 113.604 117.808 119.183C117.752 120.635 117.861 122.093 118 123.675ZM83.1541 123.524C82.1427 124.517 81.1314 125.51 80.4916 126.138C81.9411 128.11 83.1685 129.657 84.2634 131.291C87.5968 136.267 93.1322 138.517 98.9076 136.899C102.162 135.987 105.327 135.8 108.563 136.733C110.109 137.178 110.637 136.523 110.19 135.108C109.413 132.647 108.772 130.105 107.651 127.798C104.792 121.91 99.8307 119.281 93.3379 119.577C89.6438 119.745 86.3243 121.108 83.1541 123.524ZM103.565 111.38C99.5227 108.892 91.7614 109.014 88.6569 112.32C95.8291 110.53 102.157 111.462 107.857 115.781C107.996 115.488 108.135 115.194 108.274 114.901C106.793 113.771 105.312 112.642 103.565 111.38Z" fill="#DA854D"/>
<path d="M56.0998 70.2642C55.4181 65.5673 54.4353 61.0531 54.1837 56.4995C53.5933 45.813 54.3982 35.1976 57.0052 24.7684C57.603 22.377 58.2935 20.0038 59.0526 17.6574C59.6714 15.7443 60.6799 15.458 62.1377 16.9519C66.118 21.031 70.249 25.0098 73.8303 29.4166C81.3469 38.666 86.175 49.222 88.4837 60.8993C89.3013 65.0348 89.5011 68.8535 86.3672 72.3365C84.5037 74.4077 83.1549 76.9302 81.3087 79.6401C77.4389 67.8004 70.5415 58.6868 59.5926 52.7189C60.4847 60.4139 63.2915 67.5498 66.0145 74.708C65.8465 74.8111 65.6785 74.9141 65.5105 75.0172C64.3176 73.9421 63.1247 72.867 61.931 71.7913C61.7367 72.0093 61.5709 72.157 61.5879 72.1816C63.6516 75.168 63.2574 78.572 63.0224 81.8372C62.7346 85.8355 63.0258 89.3912 67.0434 91.5829C67.4166 91.7864 67.6399 92.2578 67.9175 92.5866C65.3224 95.7954 63.5894 95.783 61.199 92.6776C59.6485 90.6634 58.0694 88.6696 56.4568 86.7037C55.3964 85.4109 55.071 84.0033 55.4792 82.4054C56.1853 79.641 56.5416 73.034 56.0998 70.2642ZM60.9975 70.8526C60.9564 70.8337 60.9153 70.8149 60.8743 70.796C60.9258 70.8606 60.9773 70.9252 61.0717 71.1162C61.1134 71.1367 61.1551 71.1571 61.1967 71.1776C61.1463 71.1095 61.0959 71.0414 60.9975 70.8526Z" fill="#6C2E19"/>
<path d="M93 183.828C93.4313 182.116 93.8437 180.572 94.3882 179C94.6001 179.552 94.6801 180.132 94.7665 181.061C94.8486 182.738 94.9243 184.064 95 185.391C93.7171 185.186 93.3232 185.914 93.368 187.423C93.2131 187.764 93.151 187.878 93.0999 188C93.0603 186.665 93.0207 185.331 93 183.828Z" fill="#452010"/>
<path d="M93.6874 188.478C93.7472 188.24 93.82 188.142 93.9914 188C96.3333 188.682 93.738 189.799 94.6404 190.638C94.429 190.759 94.2176 190.879 94.0062 191C93.0036 190.173 92.0011 189.346 91 188.383C91.8188 188.736 92.636 189.224 93.6021 189.802C93.6378 189.303 93.6626 188.957 93.6874 188.478Z" fill="#090709"/>
<path d="M67 75.9999C66.6667 75.6666 66.3333 75.3333 66 75C66.2399 75.1199 66.4798 75.2399 66.8531 75.6873C66.9865 76.0147 67 75.9999 67 75.9999Z" fill="#6C2E19"/>
<path d="M161.06 179.805C160.608 172.843 157.655 166.78 154.353 160.815C148.658 150.526 143.09 140.169 139.587 128.861C139.018 127.024 138.515 125.167 138 123.165C138.137 122.117 138.399 121.215 138.352 120.329C137.744 108.936 147.2 103.621 155.367 103.057C163.154 102.519 169.622 105.845 175.295 110.727C180.898 115.549 185.285 121.377 187.989 128.356C190.535 134.923 190.55 141.616 188.672 148.296C185.876 158.242 180.433 166.698 173.351 174.086C169.962 177.622 166.211 180.81 162.455 184C161.878 182.497 161.469 181.151 161.06 179.805ZM158.754 137.301C164.131 138.034 168.389 136.094 171.637 131.83C172.986 130.059 174.253 128.226 175.68 126.25C171.49 119.375 156.552 115.296 149.784 126.12C148.064 128.87 147.286 132.226 146.186 135.342C145.756 136.559 146.434 137.205 147.662 136.816C151.308 135.663 154.869 136.008 158.754 137.301ZM149.877 114.79C155.522 110.981 161.66 110.591 168.111 112.379C162.73 107.679 152.22 109.332 148.465 114.93C148.884 114.93 149.252 114.93 149.877 114.79Z" fill="#DA854D"/>
<path d="M194.708 71.2911C193.196 72.6276 191.684 73.9641 190.034 75.3159C189.895 75.3313 189.888 75.3252 189.888 75.3252C191.007 72.0473 192.199 68.7917 193.227 65.4858C194.529 61.3047 195.697 57.0825 196.668 52.7093C192.801 53.9542 189.808 56.3795 187.184 59.0923C184.462 61.907 181.931 65.0026 179.849 68.3088C177.799 71.5627 176.418 75.2348 174.577 79.0697C173.638 77.7448 172.765 76.5474 171.928 75.3258C170.644 73.4537 169.23 71.647 168.172 69.6538C167.487 68.3637 166.864 66.7353 167.026 65.3528C168.252 54.8628 171.788 45.1544 177.367 36.1671C181.232 29.9412 185.809 24.3092 191.124 19.269C191.995 18.4431 192.957 17.7138 193.848 16.9076C195.398 15.5053 196.407 15.6999 196.997 17.6873C197.775 20.3067 198.492 22.9497 199.098 25.6135C201.193 34.8174 202.177 44.1429 201.974 53.5838C201.829 60.3422 200.878 67.0084 198.961 73.4746C198.267 75.8138 198.392 77.8436 199.457 79.8184C201.287 83.2105 200.736 85.9452 197.905 88.5521C196.456 89.8863 195.535 91.7735 194.224 93.2792C192.321 95.4642 191.769 95.4729 189.324 93.8446C188.84 93.5218 188.389 93.1488 187.712 92.6411C189.108 91.372 190.35 90.1994 191.641 89.0827C192.943 87.9556 193.121 86.6378 192.972 84.9478C192.698 81.828 192.602 78.6601 192.839 75.5432C192.942 74.1939 194.058 72.9213 194.831 71.4023C195.011 70.9645 195.075 70.7384 195.196 70.4918C195.212 70.4826 195.172 70.494 195.029 70.5675C194.854 70.8501 194.781 71.0706 194.708 71.2911Z" fill="#6C2E19"/>
<path d="M161.275 180C161.546 181.104 161.765 182.306 162 183.651C161.982 185.464 161.947 187.135 161.956 188.935C161.864 189.035 161.61 188.995 161.611 188.976C161.631 188.282 161.631 187.573 161.726 186.902C161.856 185.981 161.704 185.542 161.023 185.443C160.971 184.075 161.017 182.86 161.063 181.644C161.116 181.128 161.17 180.613 161.275 180Z" fill="#090709"/>
<path d="M95.2409 185.102C95.1209 183.696 95.0452 182.433 95 181C95.8901 182.36 96.7934 183.866 97.6004 185.427C99.6315 189.355 102.078 192.894 105.732 195.35C109.608 197.955 115.047 197.996 118.192 195.407C117.313 193.406 116.429 191.393 115.647 189.259C115.945 189.319 116.139 189.499 116.334 189.679C116.334 189.679 116.393 189.83 116.504 189.973C117.06 190.518 117.504 190.919 117.949 191.32C120.088 193.316 121.491 193.965 126 195.023C126 196.607 126 198.213 126 199.664C123.422 200.539 120.932 201.385 118.204 202.338C117.401 202.679 116.836 202.912 116.272 203.146C107.13 205.762 100.936 202.388 97.2169 192.758C96.9245 192 96.6874 191.219 96.3518 190.19C96.1108 189.439 95.9427 188.947 95.7745 188.454C95.6982 188.42 95.6218 188.386 95.4642 188.433C95.3828 188.514 95.4032 188.475 95.4032 188.475C95.4032 188.475 95.5695 188.486 95.668 188.283C95.6372 187.625 95.5079 187.169 95.3785 186.714C95.3474 186.224 95.3163 185.735 95.2409 185.102Z" fill="#CAD1E5"/>
<path d="M160.986 181C161.034 182.349 160.949 183.719 160.888 185.262C159.966 188.411 159.161 191.444 158.038 194.351C156.834 197.468 154.651 199.894 151.768 201.983C151.083 202.407 150.614 202.703 150.144 203C147.556 203.988 144.922 204.368 141.947 203.567C141.622 203.525 141.553 203.536 141.483 203.547C137.738 202.189 133.993 200.832 130.018 199.39C130.018 198.322 129.957 196.926 130.06 195.542C130.086 195.189 130.63 194.876 131.194 194.473C131.929 194.238 132.406 194.075 132.884 193.911C134.921 192.63 136.957 191.349 139.136 189.91C139.432 189.64 139.586 189.527 139.74 189.415C139.835 189.732 140.084 190.106 139.995 190.354C139.725 191.103 139.335 191.809 138.971 192.52C137.299 195.786 137.654 196.551 141.338 197.059C146.684 197.797 151.154 195.831 154.357 191.624C156.656 188.605 158.263 185.042 160.195 181.731C160.354 181.459 160.631 181.257 160.986 181Z" fill="#CAD2E5"/>
<path d="M137.904 169.24C137.772 171.223 137.483 173.094 137.37 174.976C137.331 175.632 137.726 176.314 138 177.244C133.259 175.993 130.094 178.107 127.575 182C124.881 178.131 121.667 175.804 117.387 177.219C117.257 174.609 117.133 172.124 117 169.434C123.918 166.122 130.861 166.32 137.904 169.24ZM123.05 172.083C121.719 172.908 120.389 173.732 119.058 174.557C119.125 174.738 119.192 174.92 119.259 175.101C124.763 173.423 130.269 173.407 135.799 174.879C132.239 171.194 128.014 170.607 123.05 172.083Z" fill="#303131"/>
<path d="M117 190C116.514 189.91 116.187 189.611 115.702 189.255C115.371 188.863 115.197 188.527 115 188C115.704 188.469 116.431 189.13 117 190Z" fill="#090709"/>
<path d="M138.834 189.574C138.559 189.77 138.345 189.872 138 190C138.211 189.65 138.553 189.274 138.992 189C139.024 189.228 138.959 189.354 138.834 189.574Z" fill="#090709"/>
<path d="M132.461 203.773C134.977 204.762 137.493 205.751 140 206.736C134.627 210.409 124.06 211.638 115.033 206.941C114.949 206.628 115.041 206.466 115.133 206.304C117.202 205.608 119.271 204.912 121.607 204.131C122.141 203.919 122.409 203.793 122.677 203.666C125.7 202.898 128.723 202.637 131.994 203.741C132.317 203.791 132.389 203.782 132.461 203.773Z" fill="#C8CFE3"/>
<path d="M134.845 184.682C135.517 184.849 136.189 185.017 137 185.218C136.294 186.636 135.005 187.152 133.518 186.962C131.971 186.764 131.08 185.746 131 184C132.212 184.377 133.361 184.734 134.666 184.882C134.822 184.672 134.845 184.682 134.845 184.682Z" fill="#E0E0E0"/>
<path d="M123.719 184C124.546 185.585 123.399 186.306 122.176 186.747C120.365 187.399 118.929 186.717 118 185.547C119.869 185.026 121.702 184.516 123.719 184Z" fill="#DDDDDD"/>
<path d="M132 193.958C131.434 194.488 130.803 194.76 130 195C130.095 193.355 130.464 192.023 132 193.958Z" fill="#090709"/>
<path d="M117 203.398C117.285 202.789 117.606 202.413 118 202C117.99 203.966 117.655 204.584 117 203.398Z" fill="#090709"/>
<path d="M118 192C117.634 191.67 117.332 191.111 117 190.409C117.737 189.409 117.969 190.358 118 192Z" fill="#090709"/>
<path d="M149 203.57C149.547 202.939 150.192 202.491 150.997 202C151.026 203.345 150.887 204.721 149 203.57Z" fill="#090709"/>
<path d="M95.3237 188C95.6432 188.472 95.8204 189.127 96 189.967C94.7829 190.187 94.8348 189.293 95.3237 188Z" fill="#090709"/>
<path d="M123 203.455C122.751 203.728 122.465 203.857 122.02 204C121.958 203.675 122.053 203.338 122.149 203C122.42 203.104 122.691 203.208 123 203.455Z" fill="#090709"/>
<path d="M115.984 206C116.045 206.273 115.917 206.528 115.827 206.999C115.577 207.016 115.289 206.818 115 206.62C115.265 206.407 115.53 206.194 115.984 206Z" fill="#090709"/>
<path d="M82.7936 122.916C85.8616 120.566 89.1976 119.192 92.9101 119.023C99.435 118.724 104.421 121.374 107.295 127.307C108.42 129.631 109.065 132.193 109.846 134.673C110.295 136.099 109.764 136.759 108.21 136.31C104.958 135.37 101.778 135.558 98.5074 136.477C92.7033 138.108 87.1404 135.841 83.7905 130.826C82.6902 129.18 81.4567 127.621 80 125.634C80.643 125.001 81.6593 124 82.7936 122.916ZM91.1838 128.242C90.9506 127.48 90.7615 126.7 90.4668 125.963C90.3056 125.559 89.9658 125.226 89.7066 124.861C89.4436 125.258 89.0278 125.625 88.9411 126.057C88.0842 130.329 91.7644 134.578 96.2026 134.493C98.9728 134.439 101.375 132.837 102.012 130.618C95.9402 132.815 93.8897 132.415 91.1838 128.242ZM94.2133 123.105C94.0291 123.893 93.845 124.68 93.6609 125.468C94.5748 125.667 95.5085 126.062 96.3933 125.973C96.773 125.935 97.4478 124.519 97.306 124.369C96.7033 123.731 95.8542 123.317 95.0705 122.864C94.9411 122.789 94.6887 122.925 94.2133 123.105Z" fill="#090505"/>
<path d="M103.334 110.744C104.98 111.918 106.49 113.027 108 114.136C107.858 114.424 107.716 114.712 107.574 115C101.763 110.76 95.3121 109.844 88 111.602C91.165 108.356 99.0777 108.237 103.334 110.744Z" fill="#FCF0E7"/>
<path d="M158.685 136.824C154.925 135.499 151.318 135.135 147.626 136.354C146.382 136.765 145.696 136.082 146.131 134.796C147.246 131.501 148.033 127.953 149.775 125.045C156.629 113.601 171.757 117.914 176 125.183C174.554 127.272 173.272 129.21 171.906 131.082C168.616 135.591 164.304 137.641 158.685 136.824ZM164.666 128.816C161.55 132.699 158.73 132.891 153.824 129.557C154.994 133.248 158.618 135.175 162.312 134.071C165.911 132.995 168.308 128.789 167.364 125.146C167.278 124.814 166.949 124.551 166.734 124.256C166.464 124.566 166.084 124.83 165.946 125.194C165.529 126.294 165.206 127.433 164.666 128.816ZM163.037 123.729C162.708 122.201 161.604 121.869 160.44 122.272C159.823 122.485 159.138 123.321 159.018 123.983C158.937 124.425 159.703 125.353 160.252 125.538C161.389 125.922 162.526 125.715 162.977 124.241C162.997 124.175 163.006 124.105 163.037 123.729Z" fill="#090605"/>
<path d="M150.307 113.934C149.801 114 149.427 114 149 114C152.823 108.714 163.522 107.154 169 111.592C162.432 109.903 156.185 110.272 150.307 113.934Z" fill="#FCF0E5"/>
<path d="M123.208 172.567C128.095 171.437 132.385 171.902 136 174.824C130.384 173.657 124.794 173.669 119.204 175C119.136 174.856 119.068 174.713 119 174.569C120.351 173.915 121.703 173.261 123.208 172.567Z" fill="#ECECEC"/>
<path d="M91.3874 128.293C93.9981 132.058 96.0182 132.431 102 130.379C101.372 132.452 99.0058 133.949 96.2767 133.999C91.9043 134.079 88.2787 130.109 89.1229 126.117C89.2083 125.713 89.6179 125.371 89.877 125C90.1324 125.341 90.4671 125.652 90.6259 126.029C90.9163 126.718 91.1026 127.447 91.3874 128.293Z" fill="#EBECEB"/>
<path d="M94.5668 122.245C94.8415 122.105 95.0481 121.932 95.154 122.027C95.7957 122.605 96.4907 123.132 96.9842 123.943C97.1003 124.134 96.5478 125.935 96.237 125.984C95.5127 126.097 94.7482 125.594 94 125.341C94.1508 124.339 94.3015 123.337 94.5668 122.245Z" fill="#E8E8E8"/>
<path d="M164.929 128.939C165.42 127.824 165.772 126.812 166.227 125.834C166.378 125.51 166.793 125.275 167.087 125C167.322 125.262 167.681 125.496 167.775 125.791C168.804 129.029 166.19 132.768 162.263 133.725C158.231 134.706 154.277 132.993 153 129.712C158.353 132.676 161.431 132.505 164.929 128.939Z" fill="#EBEBEB"/>
<path d="M163 123.968C162.977 124.215 162.968 124.293 162.948 124.366C162.499 126.009 161.367 126.24 160.235 125.812C159.688 125.606 158.926 124.572 159.006 124.079C159.126 123.342 159.807 122.411 160.422 122.172C161.581 121.724 162.68 122.094 163 123.968Z" fill="#EEEEEE"/>
</g>
</g>
<defs>
<clipPath id="clip0_1953_3011">
<rect width="256" height="256" fill="white"/>
</clipPath>
</defs>
</svg>
