<svg width="256" height="256" viewBox="0 0 256 256" fill="none" xmlns="http://www.w3.org/2000/svg">
<g clip-path="url(#clip0_2332_9)">
<path d="M256 128C256 57.3075 198.692 0 128 0C57.3075 0 0 57.3075 0 128C0 198.692 57.3075 256 128 256C198.692 256 256 198.692 256 128Z" fill="#10151D"/>
<path d="M100 200.621V92.1879C100 91.2091 100.709 90.3739 101.675 90.2147L182.917 76.8367C184.718 76.5403 185.943 78.6131 184.814 80.0475L137.821 139.741C137.171 140.567 137.271 141.755 138.05 142.46L163.919 165.889C164.938 166.811 164.744 168.463 163.539 169.124L102.962 202.374C101.63 203.105 100 202.141 100 200.621Z" stroke="#C1FFD7" stroke-width="5" stroke-linecap="round" stroke-linejoin="round"/>
<path d="M96 196.621V88.1879C96 87.2091 96.7088 86.3739 97.6752 86.2147L178.917 72.8367C180.718 72.5403 181.943 74.6131 180.814 76.0475L133.821 135.741C133.171 136.567 133.271 137.755 134.05 138.46L159.919 161.889C160.938 162.811 160.744 164.463 159.539 165.124L98.9624 198.374C97.6296 199.105 96 198.141 96 196.621Z" stroke="#B098F7" stroke-width="5" stroke-linecap="round" stroke-linejoin="round"/>
<path d="M88 188.621V80.1879C88 79.2091 88.7088 78.3739 89.6752 78.2147L170.917 64.8367C172.718 64.5403 173.943 66.6131 172.814 68.0475L125.821 127.741C125.171 128.567 125.271 129.755 126.05 130.46L151.919 153.889C152.938 154.811 152.744 156.463 151.539 157.124L90.9624 190.374C89.6296 191.105 88 190.141 88 188.621Z" stroke="white" stroke-width="5" stroke-linecap="round" stroke-linejoin="round"/>
</g>
<defs>
<clipPath id="clip0_2332_9">
<rect width="256" height="256" fill="white"/>
</clipPath>
</defs>
</svg>
