<svg width="256" height="256" viewBox="0 0 256 256" fill="none" xmlns="http://www.w3.org/2000/svg">
<g clip-path="url(#clip0_741_46)">
<circle cx="128" cy="128" r="128" fill="#FCFC05"/>
<path d="M216.989 149.107C216.622 145.3 214.388 143.378 212.983 142.533C212.729 140.9 212.284 139.307 211.656 137.794C210.759 135.64 209.817 134.072 209.291 133.266C209.769 130.24 208.47 129.029 204.723 125.531C203.793 124.664 202.74 123.681 201.461 122.445C195.938 117.107 191.779 116.122 190.095 115.956C186.62 111.277 181.358 109.945 179.664 109.629C179.357 109.375 179.026 109.149 178.674 108.955C178.126 108.654 177.375 108.242 156.522 107.694C147.033 107.445 137.602 107.287 136.366 107.267L114.9 102.015L109.545 99.856C111.091 98.4488 112.194 97.4411 112.194 97.4411L112.536 97.1295L115.149 84.8262L104.055 72.9701L97.1062 68.1729C95.9327 67.3612 94.5556 66.934 93.1283 66.934C92.784 66.934 92.4372 66.9592 92.098 67.0094L88.3889 67.5623C88.3059 67.5748 88.2205 67.5874 88.1351 67.6025L80.6163 56.3998V56.3973L78.8523 53.7738V53.7713L78.0933 52.643C77.4224 51.6403 76.3016 51.0095 75.0979 50.9593C74.6808 50.9417 74.2586 50.9316 73.844 50.9316C59.4624 50.9316 54.1978 61.9735 52.9263 65.3584C52.5267 66.4289 52.6272 67.61 53.2027 68.6026C56.477 74.2291 58.8719 78.3176 60.3068 80.7527C61.0129 81.9514 61.7165 83.145 62.395 84.2909C60.4425 88.4096 59.862 92.8651 59.7213 95.8957C59.6283 97.8583 60.1158 99.7857 61.131 101.467L63.1791 104.864C63.0735 105.158 62.9705 105.475 62.8674 105.814L61.9553 105.196L61.7517 105.483C59.4122 108.769 57.3717 112.257 55.688 115.853C52.1447 119.163 51.3205 120.791 51.1295 122.555C49.9937 123.779 46.6917 127.8 45.8272 133.921C44.3597 134.869 42.0729 136.877 42.0729 140.171C42.0729 141.596 43.161 142.626 44.7667 142.775C44.425 143.503 44.2038 144.302 44.1184 145.114C43.8922 147.31 44.6512 149.502 46.2569 151.286C46.5384 151.595 46.8927 151.829 47.2897 151.964C47.5435 152.05 47.8099 152.095 48.0788 152.095C48.6543 152.095 49.2096 151.894 49.6544 151.525C50.2776 159.061 51.8658 165.318 53.1348 169.346C47.8753 174.209 43.068 177.169 41.231 178.225C40.7259 178.514 40.2585 178.86 39.8414 179.252L39.2232 179.833L39.4644 180.094C39.8313 180.494 40.1882 180.944 40.5274 181.434C45.2417 188.229 51.0491 189.244 54.0923 189.244C54.3586 189.244 54.6275 189.236 54.8914 189.221C54.8864 189.274 54.8838 189.309 54.8838 189.312C54.8763 189.407 54.8688 189.505 54.8612 189.603C54.8562 189.674 54.8411 189.912 54.8411 189.912C54.826 190.156 54.8135 190.397 54.8009 190.641C54.8009 190.641 54.7884 190.917 54.7858 191.003C54.7833 191.083 54.7733 191.42 54.7733 191.42C54.7733 191.42 54.7682 191.634 54.7657 191.711C54.7632 191.792 54.7632 191.872 54.7607 191.958C54.7607 191.958 54.7557 192.312 54.7557 192.418C54.7557 192.513 54.7557 192.606 54.7557 192.699C54.7557 192.699 54.7557 192.993 54.7582 193.119L54.7632 193.43C54.7657 193.559 54.7682 193.687 54.7708 193.812C54.7733 193.913 54.7758 194.011 54.7783 194.109C54.7833 194.24 54.7884 194.37 54.7934 194.501C54.7959 194.594 54.8009 194.689 54.8059 194.78C54.8135 194.915 54.8185 195.049 54.826 195.182L54.8411 195.441C54.8487 195.581 54.8587 195.72 54.8688 195.858L54.8864 196.097C54.8989 196.25 54.9115 196.403 54.924 196.551L54.9416 196.74C54.9617 196.941 54.9818 197.139 55.002 197.335C55.0321 198.145 55.1552 198.997 55.3688 199.871C55.8714 202.628 56.653 204.847 57.5727 206.141C57.7184 206.862 58.0702 208.551 58.5427 210.496C57.0575 211.37 54.7682 213.446 54.3084 218.06C54.2506 218.645 54.434 219.236 54.8135 219.683C55.1929 220.128 55.7483 220.404 56.3363 220.439C56.6555 220.457 56.9746 220.472 57.2837 220.48C57.4973 220.485 57.7285 220.487 57.9672 220.487C59.0126 220.487 59.9675 220.427 60.8169 220.306C60.7641 220.49 60.7139 220.673 60.6661 220.857C60.641 220.96 60.6133 221.063 60.5907 221.166C60.4249 221.879 60.5606 222.641 60.9601 223.251C61.3622 223.865 61.9804 224.274 62.6991 224.407C63.8475 224.618 65.2975 224.726 67.0063 224.726C69.3785 224.726 71.3913 224.244 72.8388 223.332C73.472 223.427 74.1154 223.513 74.7562 223.591C74.7687 223.636 74.7813 223.681 74.7964 223.726C75.2512 225.156 76.563 226.116 78.0607 226.116C78.0959 226.116 78.1336 226.116 78.1712 226.114C80.154 226.048 82.9006 225.639 84.8155 224.086C86.3911 224.048 87.9466 223.953 89.4393 223.802C89.7534 223.769 90.065 223.734 90.3791 223.699C90.4796 223.686 90.7611 223.651 90.7611 223.651C90.9495 223.628 91.138 223.603 91.324 223.578C91.4722 223.558 91.6205 223.538 91.7688 223.515C91.9396 223.49 92.1105 223.465 92.2789 223.44L92.3216 223.432C92.4598 223.412 92.5955 223.39 92.7337 223.367C92.8971 223.339 93.0579 223.312 93.2212 223.284L93.3997 223.254C93.4951 223.236 93.5906 223.221 93.6861 223.204C93.9852 223.148 94.2842 223.091 94.5858 223.03C94.6637 223.015 94.9401 222.955 94.9401 222.955C95.1411 222.912 95.3422 222.869 95.5432 222.824C95.6563 222.799 95.7694 222.771 95.8799 222.746L96.0357 222.711C96.1111 222.694 96.189 222.676 96.2594 222.658C96.3197 222.643 96.8047 222.523 96.8047 222.523C97.1188 222.442 97.4329 222.359 97.747 222.271L98.4356 222.078L98.6969 221.412C98.7321 221.324 102.14 212.564 103.861 202.125C106.758 202.374 109.839 202.502 113.021 202.502C119.755 202.502 126.299 201.537 132.473 199.635H132.476L132.689 199.569L132.845 199.519C133.132 199.429 133.418 199.338 133.702 199.243C133.815 199.205 133.926 199.167 134.039 199.13L134.348 199.024C134.476 198.981 134.604 198.936 134.73 198.891C134.876 198.841 135.021 198.788 135.167 198.735L135.278 198.695C135.436 198.637 135.594 198.579 135.753 198.522C135.941 198.451 136.13 198.381 136.318 198.308C136.466 198.25 136.615 198.195 136.758 198.137L136.891 198.084C136.966 198.057 137.042 198.027 137.117 197.996C137.157 197.981 137.313 197.916 137.313 197.916C137.64 197.783 137.969 197.65 138.296 197.509L138.447 197.446C138.793 197.298 139.16 197.134 139.575 196.948L139.851 196.823C140.175 196.675 140.497 196.524 140.819 196.368L141.025 196.27C141.45 196.064 141.834 195.87 142.203 195.679L142.236 195.662C142.553 195.498 142.869 195.33 143.189 195.159C143.189 195.159 143.508 194.983 143.593 194.938C143.802 196.893 143.91 199.107 143.91 201.527V202.211C143.902 205.739 143.895 209.071 145.955 211.647C148.154 214.393 152.391 215.748 159.289 215.914C159.734 215.924 160.199 215.931 160.671 215.931H160.819C161.46 215.931 162.141 215.921 162.842 215.904C164.144 218.022 166.679 219.359 169.67 219.49C169.821 219.497 169.971 219.502 170.125 219.502C170.165 219.505 170.215 219.507 170.273 219.507C170.63 219.507 173.708 219.379 174.09 215.054L174.13 215.049C174.402 215.446 174.754 215.783 175.158 216.034C176.452 216.833 178.782 217.806 182.536 217.899C182.742 217.906 182.953 217.909 183.167 217.909C184.064 217.909 184.78 217.864 185.358 217.768C187.876 217.361 188.253 215.848 188.253 214.981C188.253 214.577 188.135 213.971 187.931 213.3L187.999 213.313C188.112 213.333 188.228 213.353 188.361 213.371L188.429 213.381C188.685 213.418 188.949 213.451 189.213 213.476L189.278 213.484C189.381 213.494 189.484 213.504 189.587 213.511L189.721 213.521C189.799 213.526 189.879 213.534 189.954 213.536L190.145 213.549L190.324 213.559C190.404 213.564 190.688 213.574 190.691 213.574C190.786 213.577 191.042 213.584 191.045 213.584C191.153 213.587 191.256 213.587 191.354 213.589H191.721C191.952 213.587 192.161 213.584 192.359 213.579C192.955 213.561 193.525 213.298 193.922 212.855C194.322 212.413 194.525 211.823 194.483 211.232C194.126 206.093 190.605 203.673 188.911 202.799L188.781 201.276L188.718 200.529C188.839 200.351 188.939 200.147 189.027 199.904C189.19 199.451 189.311 198.851 189.394 198.072C189.487 197.212 189.532 196.112 189.532 194.802C189.532 193.971 189.459 191.659 188.786 188.173C188.751 187.995 188.715 187.816 188.678 187.633C188.484 186.681 188.258 185.721 188.007 184.776C187.904 184.381 187.791 183.974 187.673 183.57C187.363 182.509 187.019 181.454 186.65 180.433C186.572 180.22 186.494 180.006 186.411 179.79C186.245 179.353 186.074 178.918 185.898 178.493C184.514 175.136 182.797 172.073 180.8 169.387C180.483 168.962 180.159 168.545 179.83 168.14C179.661 167.934 179.493 167.731 179.32 167.527C178.794 166.909 178.244 166.308 177.686 165.738C177.495 165.544 177.304 165.351 177.108 165.16C175.314 163.413 173.329 161.88 171.203 160.601L171.205 160.594C171.261 160.43 171.313 160.265 171.366 160.104C171.452 159.84 171.537 159.576 171.62 159.31C171.675 159.134 171.73 158.955 171.786 158.777C171.861 158.528 171.939 158.277 172.012 158.026L172.055 157.88C172.085 157.779 172.183 157.432 172.183 157.432C172.256 157.181 172.326 156.927 172.396 156.676C172.396 156.676 172.484 156.362 172.509 156.267L172.56 156.076C172.628 155.827 172.693 155.575 172.758 155.324C172.811 155.118 172.864 154.91 172.917 154.703L172.964 154.517C172.994 154.394 173.103 153.945 173.103 153.945C173.153 153.733 173.203 153.522 173.253 153.309C173.253 153.309 173.336 152.952 173.364 152.829L173.437 152.502C173.482 152.301 173.525 152.103 173.57 151.902C173.62 151.665 173.67 151.429 173.721 151.19L173.776 150.929C173.806 150.778 173.836 150.627 173.866 150.477C173.922 150.195 173.977 149.911 174.03 149.627C174.03 149.627 174.093 149.298 174.108 149.22C174.123 149.132 174.14 149.044 174.153 148.969C174.196 148.733 174.236 148.496 174.279 148.248L174.301 148.112C174.336 147.908 174.372 147.707 174.404 147.501C174.427 147.366 174.487 146.979 174.487 146.979C174.525 146.745 174.563 146.509 174.598 146.273C178.485 148.617 186.047 152.821 193.063 156.359C193.877 156.772 194.711 157.138 195.543 157.455C195.649 159.39 196.659 162.004 199.227 163.361C199.589 163.552 199.996 163.652 200.403 163.652C201.526 163.652 202.522 162.901 202.818 161.83C202.851 161.72 202.876 161.606 202.891 161.493C202.981 160.853 203.16 159.918 203.497 158.97C204.718 158.97 205.914 158.862 207.057 158.646C207.583 159.393 208.246 159.998 209.033 160.453C209.128 160.508 209.231 160.564 209.337 160.619C209.533 160.719 209.726 160.805 209.907 160.873L210.093 160.943L210.168 160.966H210.178C210.493 161.061 210.797 161.109 211.083 161.109C212.701 161.109 213.973 160.114 214.574 158.377C215.194 156.578 215.061 153.962 214.269 151.821C214.275 151.821 214.282 151.821 214.287 151.821C214.337 151.824 214.385 151.824 214.45 151.824C214.724 151.824 214.978 151.788 215.207 151.721C216.373 151.374 217.102 150.298 216.989 149.107Z" fill="black"/>
<path d="M192.92 95.8905L194.199 95.2774L195.528 98.014L208.334 91.5607L208.46 90.8521C208.49 90.6837 209.188 86.663 208.304 81.8306C207.11 75.302 203.589 70.4319 198.126 67.7431L197.538 67.4541L183.536 73.3268L184.506 75.3221L183.275 75.8599L192.92 95.8905Z" fill="black"/>
<path d="M179.161 115.562C178.488 116.411 177.751 117.811 177.048 119.758C175.713 123.462 174.51 129.157 174.155 136.849C174.078 138.115 173.98 139.362 173.861 140.586C173.861 140.586 173.861 140.586 173.861 140.588C173.861 140.591 173.861 140.598 173.859 140.606C173.801 141.226 173.736 141.84 173.665 142.45C173.655 142.526 173.648 142.604 173.638 142.681C173.605 142.963 173.572 143.244 173.537 143.523C173.314 145.307 173.047 147.041 172.741 148.728C172.728 148.805 172.713 148.883 172.7 148.959C171.263 156.787 168.944 163.619 165.943 169.532C165.101 171.191 164.204 172.779 163.257 174.294C159.322 180.609 154.517 185.698 149.159 189.668C146.729 191.47 144.184 193.043 141.555 194.398C139.929 195.235 138.271 195.991 136.584 196.664C135.157 197.235 133.712 197.747 132.252 198.202H132.25C125.995 200.155 119.476 201.07 113.016 201.07C84.4636 201.07 77.6988 191.056 77.6988 191.056L55.6201 159.626L72.8162 160.398L74.6657 136.851L84.2576 110.327L92.2713 98.1547L101.361 96.3831L104.904 99.5418L114.456 103.394L136.18 108.709C136.18 108.709 176.392 109.35 177.983 110.224C179.573 111.091 181.114 113.097 179.161 115.562Z" fill="#76CBFF"/>
<path d="M102.594 119.834C102.594 119.834 108.03 127.104 143.133 127.104C169.75 126.501 174.676 124.792 174.676 124.792L174.181 121.827C174.181 121.827 135.635 119.892 135.031 119.758C134.428 119.623 107.63 114.368 107.63 114.368L99.8177 110.491L102.594 119.834Z" fill="#5098BC"/>
<path d="M62.6413 218.381C61.0606 219.007 58.8241 219.08 57.3164 219.04C56.9721 219.03 56.668 219.017 56.4167 219.002C56.0021 218.977 55.6955 218.612 55.7382 218.2C56.3589 211.991 60.5354 211.204 60.5354 211.204C60.6133 211.679 60.7289 212.199 60.8596 212.735C61.5079 215.358 62.6413 218.381 62.6413 218.381Z" fill="#BECCD3"/>
<path d="M62.6413 218.381C61.0607 219.007 58.8241 219.08 57.3164 219.04C57.4973 217.861 58.2085 214.898 60.8596 212.737C61.508 215.358 62.6413 218.381 62.6413 218.381Z" fill="white"/>
<path d="M61.8447 161.933C61.8447 161.933 61.5255 167.942 60.6561 174.194C60.3319 176.516 59.9298 178.873 59.4398 180.964C58.7311 183.989 57.8391 186.467 56.7233 187.507C56.7233 187.507 47.7823 190.126 41.221 179.886C41.2185 179.883 41.2185 179.883 41.2185 179.883C41.2185 179.883 41.2185 179.883 41.221 179.881C41.3969 179.788 52.9036 173.704 61.8447 161.933Z" fill="#036AFF"/>
<path d="M59.4398 180.966C58.7311 183.992 57.839 186.47 56.7233 187.51C56.7233 187.51 47.7823 190.128 41.221 179.888C41.422 180.072 50.7827 188.701 59.4398 180.966Z" fill="#0630EB"/>
<path d="M61.8447 161.933C61.8447 161.933 61.5255 167.942 60.6561 174.194C52.3784 182.78 41.221 179.883 41.221 179.883L41.2185 179.878C41.3969 179.788 52.9036 173.704 61.8447 161.933Z" fill="#0196FF"/>
<path d="M193.053 211.332C193.083 211.76 192.749 212.129 192.319 212.142C192.138 212.144 191.937 212.149 191.711 212.152C190.962 212.154 189.992 212.129 189.017 212.008C187.896 211.875 186.773 211.621 185.979 211.157L186.361 208.498L186.798 205.47L187.069 203.583C187.069 203.583 192.621 205.146 193.053 211.332Z" fill="#03E1FF"/>
<path d="M191.711 212.149C190.1 212.157 187.461 212.023 185.979 211.154L186.798 205.467L187.147 205.146C187.147 205.148 190.804 206.216 191.711 212.149Z" fill="white"/>
<path d="M189.017 212.009C187.896 211.875 186.773 211.622 185.979 211.157L186.361 208.498C187.032 208.92 188.404 209.998 189.017 212.009Z" fill="#BECCD3"/>
<path d="M187.225 199.884L187.333 199.894C187.265 199.911 187.225 199.884 187.225 199.884Z" fill="white"/>
<path d="M187.225 199.883C187.906 208.237 188.512 210.85 185.245 212.039C183.089 212.825 179.244 212.988 172.618 213.775C167.172 214.343 162.812 214.562 159.322 214.476C144.847 214.129 145.347 208.603 145.347 201.527C145.347 192.744 143.962 189.354 143.962 189.354C141.419 179.803 147.275 152.072 166.031 159.621C167.011 160.016 167.948 160.45 168.846 160.918C185.127 169.422 188.1 189.445 188.1 194.797C188.1 199.197 187.569 199.826 187.336 199.891H187.333C187.265 199.911 187.225 199.883 187.225 199.883Z" fill="#0630EB"/>
<path d="M186.816 201.836L173.638 199.899L167.355 196.803L165.508 193.978L171.567 195.788L182.044 197.906L186.562 194.697L186.816 201.836Z" fill="#03E1FF"/>
<path d="M186.471 211.385C186.429 211.418 186.386 211.451 186.341 211.483C186.386 211.451 186.429 211.42 186.471 211.385Z" fill="#636BCE"/>
<path d="M186.657 211.227C186.62 211.262 186.579 211.297 186.539 211.33C186.582 211.297 186.62 211.262 186.657 211.227Z" fill="#636BCE"/>
<path d="M186.838 211.043C186.798 211.086 186.758 211.129 186.718 211.172C186.76 211.129 186.801 211.086 186.838 211.043Z" fill="#636BCE"/>
<path d="M186.273 211.531C186.218 211.568 186.16 211.604 186.099 211.639C186.16 211.606 186.218 211.568 186.273 211.531Z" fill="#636BCE"/>
<path d="M187.286 200.612C187.291 200.668 187.296 200.723 187.301 200.778C187.293 200.723 187.291 200.668 187.286 200.612Z" fill="#636BCE"/>
<path d="M185.75 211.827C185.692 211.855 185.635 211.883 185.574 211.908C185.635 211.88 185.692 211.853 185.75 211.827Z" fill="#636BCE"/>
<path d="M187.62 209.332C187.607 209.402 187.592 209.47 187.575 209.538C187.59 209.47 187.605 209.402 187.62 209.332Z" fill="#636BCE"/>
<path d="M187.738 208.352C187.733 208.44 187.725 208.525 187.718 208.608C187.725 208.525 187.73 208.44 187.738 208.352Z" fill="#636BCE"/>
<path d="M187.705 208.722C187.698 208.79 187.69 208.857 187.683 208.925C187.693 208.86 187.7 208.792 187.705 208.722Z" fill="#636BCE"/>
<path d="M187.763 207.563C187.763 207.651 187.76 207.734 187.76 207.817C187.76 207.734 187.76 207.648 187.763 207.563Z" fill="#636BCE"/>
<path d="M187.471 209.918C187.451 209.981 187.429 210.043 187.406 210.106C187.429 210.043 187.449 209.981 187.471 209.918Z" fill="#636BCE"/>
<path d="M187.346 201.344C187.348 201.384 187.353 201.421 187.356 201.459C187.353 201.421 187.351 201.384 187.346 201.344Z" fill="#636BCE"/>
<path d="M187.152 210.624C187.12 210.677 187.085 210.729 187.049 210.78C187.085 210.727 187.12 210.677 187.152 210.624Z" fill="#636BCE"/>
<path d="M187.76 207.171C187.76 207.251 187.763 207.332 187.763 207.412C187.76 207.332 187.76 207.251 187.76 207.171Z" fill="#636BCE"/>
<path d="M187.667 205.221C187.675 205.316 187.68 205.407 187.685 205.5C187.68 205.409 187.675 205.316 187.667 205.221Z" fill="#636BCE"/>
<path d="M187.63 204.716C187.637 204.806 187.642 204.897 187.65 204.987C187.645 204.897 187.637 204.806 187.63 204.716Z" fill="#636BCE"/>
<path d="M187.748 206.749C187.75 206.834 187.753 206.92 187.755 207.005C187.755 206.922 187.753 206.837 187.748 206.749Z" fill="#636BCE"/>
<path d="M187.698 205.704C187.708 205.854 187.715 206.003 187.723 206.148C187.718 206.003 187.708 205.854 187.698 205.704Z" fill="#636BCE"/>
<path d="M187.547 203.671C187.554 203.754 187.562 203.837 187.567 203.917C187.559 203.837 187.554 203.754 187.547 203.671Z" fill="#636BCE"/>
<path d="M187.356 201.459C187.424 202.253 187.489 202.99 187.547 203.671C187.489 202.99 187.426 202.256 187.356 201.459Z" fill="#00FFFF"/>
<path d="M187.76 207.41C187.76 207.46 187.76 207.513 187.76 207.56C187.763 207.513 187.763 207.462 187.76 207.41Z" fill="#00FFFF"/>
<path d="M187.743 206.586C187.745 206.641 187.745 206.696 187.748 206.749C187.748 206.696 187.745 206.641 187.743 206.586Z" fill="#00FFFF"/>
<path d="M186.177 190.49C186.265 191.284 186.3 191.912 186.3 192.335C186.3 194.023 186.657 195.722 186.293 197.016C186.215 197.469 186.097 198.421 186.032 200.291C186.846 200.1 187.225 199.884 187.225 199.884C187.225 199.884 187.265 199.911 187.333 199.894H187.336C187.57 199.828 188.1 199.2 188.1 194.8C188.1 189.445 185.124 169.422 168.846 160.92L168.529 161.707L168.531 161.709C182.159 170.907 185.547 184.879 186.177 190.49Z" fill="#03E1FF"/>
<path d="M187.637 209.229C187.632 209.264 187.625 209.297 187.62 209.332C187.625 209.299 187.632 209.264 187.637 209.229Z" fill="#00FFFF"/>
<path d="M187.743 208.279C187.74 208.304 187.74 208.33 187.738 208.355C187.738 208.327 187.74 208.304 187.743 208.279Z" fill="#00FFFF"/>
<path d="M187.718 208.609C187.715 208.646 187.71 208.684 187.708 208.722C187.71 208.684 187.715 208.649 187.718 208.609Z" fill="#00FFFF"/>
<path d="M187.404 210.104C187.394 210.131 187.381 210.157 187.371 210.182C187.384 210.157 187.394 210.131 187.404 210.104Z" fill="#00FFFF"/>
<path d="M187.193 210.553C187.18 210.576 187.167 210.601 187.152 210.624C187.165 210.599 187.177 210.576 187.193 210.553Z" fill="#00FFFF"/>
<path d="M185.826 211.79C185.8 211.802 185.775 211.812 185.75 211.825C185.775 211.815 185.8 211.802 185.826 211.79Z" fill="#00FFFF"/>
<path d="M187.61 204.462C187.617 204.547 187.622 204.633 187.63 204.716C187.625 204.63 187.617 204.547 187.61 204.462Z" fill="#00FFFF"/>
<path d="M185.574 211.906C185.542 211.921 185.506 211.933 185.471 211.948C185.506 211.936 185.542 211.921 185.574 211.906Z" fill="#00FFFF"/>
<path d="M185.243 212.039C185.263 212.031 185.28 212.024 185.3 212.016C185.283 212.024 185.263 212.031 185.243 212.039Z" fill="#00FFFF"/>
<path d="M187.298 200.778C187.313 200.969 187.331 201.158 187.346 201.343C187.331 201.16 187.316 200.969 187.298 200.778Z" fill="#00FFFF"/>
<path d="M187.049 210.78C187.039 210.792 187.032 210.807 187.022 210.82C187.032 210.805 187.039 210.792 187.049 210.78Z" fill="#00FFFF"/>
<path d="M187.685 205.502C187.69 205.57 187.695 205.638 187.698 205.703C187.695 205.638 187.69 205.568 187.685 205.502Z" fill="#00FFFF"/>
<path d="M187.723 206.148C187.725 206.188 187.725 206.226 187.728 206.266C187.728 206.226 187.725 206.188 187.723 206.148Z" fill="#00FFFF"/>
<path d="M187.65 204.985C187.655 205.065 187.662 205.143 187.668 205.221C187.662 205.146 187.655 205.065 187.65 204.985Z" fill="#00FFFF"/>
<path d="M186.341 211.483C186.318 211.501 186.295 211.516 186.27 211.531C186.295 211.516 186.318 211.498 186.341 211.483Z" fill="#00FFFF"/>
<path d="M186.376 196.639C186.592 195.4 186.3 193.862 186.3 192.335C186.3 191.912 186.265 191.284 186.177 190.49C185.544 184.879 182.157 170.907 168.526 161.709C168.358 161.596 168.187 161.481 168.016 161.368L166.76 162.383L151.378 174.822C151.378 174.822 151.197 184.346 161.44 192.588C161.309 192.528 158.01 191.013 156.412 189.714C156.412 189.714 152.919 194.129 152.919 201.318C152.919 206.085 156.238 211.114 159.319 214.474C162.807 214.559 167.167 214.34 172.615 213.772C179.242 212.986 183.086 212.82 185.243 212.036L184.479 210.616C184.479 210.616 187.464 210.46 186.343 203.67C186.127 202.359 186.001 201.17 186.032 200.291C183.772 200.823 178.169 201.17 168.054 196.194C168.491 196.375 175.636 199.268 181.614 199.268C184.758 199.268 185.916 198.361 186.293 197.016C186.326 196.901 186.351 196.777 186.373 196.654C186.376 196.649 186.376 196.644 186.376 196.644V196.639Z" fill="#036AFF"/>
<path d="M170.27 219.145C170.215 219.145 170.17 219.143 170.132 219.14C169.981 219.14 169.831 219.135 169.685 219.128C165.405 218.942 162.292 216.258 162.292 212.747C162.292 209.646 164.023 208.428 165.056 207.978C165.725 207.684 166.488 207.533 167.323 207.533C169.914 207.533 173.766 209.29 173.766 214.132C173.768 219.005 170.63 219.145 170.27 219.145Z" fill="black"/>
<path d="M172.69 214.135C172.69 218.346 170.175 218.065 170.175 218.065C170.027 218.065 169.881 218.062 169.74 218.055C165.948 217.889 163.372 215.547 163.372 212.75C163.372 210.727 164.232 209.518 165.491 208.971C166.039 208.729 166.664 208.616 167.328 208.616C169.506 208.616 172.69 210.104 172.69 214.135Z" fill="white"/>
<path d="M169.74 218.052C165.948 217.886 163.372 215.544 163.372 212.747C163.372 210.725 164.232 209.516 165.491 208.968C166.458 209.44 167.863 210.511 168.534 212.876C169.21 215.268 169.868 217.047 169.74 218.052Z" fill="#BECCD3"/>
<path d="M186.177 190.49C185.225 193.312 183.257 195.79 179.277 195.79C170.032 195.79 163.292 189.168 163.292 176.802C163.292 169.919 165.129 165.207 166.76 162.385L168.016 161.37C182.074 170.56 185.539 184.811 186.177 190.49Z" fill="#0196FF"/>
<path d="M172.7 148.959C169.175 168.133 160.385 181.346 149.159 189.668C148.518 189.792 147.863 189.912 147.194 190.025C101.67 197.778 95.3673 166.17 95.3673 155.776C95.3673 145.383 101.67 133.587 114.149 133.587C126.628 133.587 127.937 136.512 141.495 136.512C154.205 136.512 154.205 133.894 161.907 133.894C173.309 133.894 172.565 148.723 172.565 148.723C172.565 148.723 172.612 148.803 172.7 148.959Z" fill="#B6E7FF"/>
<path d="M141.555 194.395C139.929 195.232 138.271 195.989 136.584 196.662C96.4554 203.035 71.4742 161.368 71.4742 161.368L72.8187 160.393C99.1643 199.434 132.119 196.268 141.555 194.395Z" fill="black"/>
<path d="M165.941 169.532C165.099 171.191 164.202 172.779 163.254 174.294C157.387 177.423 150.78 179.34 143.395 179.34C103.228 179.34 86.0543 147.607 86.0543 147.607L87.743 145.602C87.743 145.602 104.904 177.34 144.189 177.34C152.707 177.34 159.9 174.297 165.941 169.532Z" fill="black"/>
<path d="M173.861 140.586C173.861 140.588 173.861 140.596 173.859 140.603C173.801 141.224 173.736 141.837 173.665 142.448C173.655 142.523 173.648 142.601 173.638 142.679C173.605 142.961 173.572 143.242 173.537 143.521C167.19 147.187 157.721 150.482 144.189 150.482C113.684 150.482 97.4555 132.66 97.4555 132.66L98.1742 130.454C98.1742 130.454 115.297 148.723 144.186 148.723C157.022 148.723 166.873 144.868 173.861 140.586Z" fill="black"/>
<path d="M55.9845 116.07C55.9845 116.07 59.6684 107.244 63.365 103.392L64.0208 106.088L55.9845 116.07Z" fill="black"/>
<path d="M56.271 173.797C56.271 173.797 40.354 138.013 62.9227 106.317C62.9227 106.317 59.9951 110.863 60.3947 128.72C60.4525 131.285 60.651 133.846 60.9852 136.389C63.2695 153.804 66.4057 155.618 70.2404 160.649" fill="#AD3E23"/>
<path d="M64.7974 104.673C64.7974 104.673 61.0229 112.881 62.6413 132.66C64.2596 152.439 68.9663 156.641 72.2332 159.006L85.1321 142.674L86.0568 138.01L73.0147 114.225L67.6722 104.673H64.7974Z" fill="#7F210E"/>
<path d="M69.2654 112.172L62.3624 100.726C61.4979 99.2932 61.0808 97.6371 61.1587 95.966C61.3697 91.4704 62.6564 82.6148 69.2654 78.2372C72.9343 75.8072 75.9649 73.9552 78.2743 72.6083C81.4557 70.7537 84.9587 69.5274 88.6 68.9846L92.3091 68.4318C93.7037 68.2232 95.1261 68.5549 96.287 69.3565L103.107 74.0658L113.584 85.2609L111.221 96.3781C111.221 96.3781 99.2548 107.307 98.9734 107.478C98.6919 107.651 79.8223 112.632 79.8223 112.632L69.2654 112.172Z" fill="#AD3E23"/>
<path d="M72.8161 108.782L66.4835 97.3557C65.4281 95.4509 65.0838 93.2319 65.5135 91.0934L67.1595 82.8987L86.7755 74.4251L93.3645 73.9376C94.053 73.8873 94.7365 74.0708 95.307 74.4578L102.592 79.4057L101.361 96.3781L83.7198 106.93L72.8161 108.782Z" fill="#7F210E"/>
<path d="M73.5826 107.355L67.6898 96.8303C66.6519 94.9783 66.3277 92.8096 66.7801 90.7339L67.8883 85.6352L88.6602 75.1663L92.7613 74.9175C93.4248 74.8773 94.0832 75.0532 94.636 75.4226L101.378 79.8956L99.8177 95.1668L73.5826 107.355Z" fill="black"/>
<path d="M99.8202 98.4615L88.2657 105.548L81.5386 102.158L76.661 94.3528C76.661 94.3528 71.0621 95.4309 68.7527 91.9907C67.7199 90.4502 64.6365 85.2761 61.5481 80.0266C58.5954 75.0057 55.6327 69.917 54.4491 67.8815C54.0922 67.2684 54.0294 66.5271 54.2757 65.8636C55.5849 62.3757 60.754 51.7786 75.0376 52.3968C75.789 52.4295 76.4825 52.819 76.9022 53.4447L77.4173 54.2111C77.4173 54.2111 77.4173 54.2111 77.4173 54.2137L79.1814 56.8372C79.1814 56.8372 79.1814 56.8372 79.1814 56.8397L92.8895 77.2648C92.8895 77.2648 94.0455 82.439 91.5803 84.7886L97.5485 90.6035L99.8202 98.4615Z" fill="#464189"/>
<path d="M77.3922 61.9007L89.8061 80.9764C89.8061 80.9764 90.3841 78.9736 89.8061 77.2397C89.3186 75.7746 81.0435 63.4185 78.4853 59.6164C79.0985 57.9931 79.1764 56.8924 79.1789 56.8396C79.1789 56.8371 79.1789 56.8371 79.1789 56.8371L77.4148 54.2136C77.3947 54.3719 76.4901 61.6896 70.6249 66.1099C64.6943 70.5779 57.7611 70.1909 57.7611 70.1909L61.5456 80.0265C64.6365 85.2761 67.7174 90.4502 68.7502 91.9906C71.0596 95.4308 76.6584 94.3528 76.6584 94.3528C83.6419 91.0684 86.773 85.8792 86.773 85.8792L74.3465 65.748C75.7111 64.4312 76.6886 63.1094 77.3922 61.9007Z" fill="#3B2767"/>
<path d="M76.9097 94.7497C76.9097 94.7497 82.3603 94.4808 91.5803 84.7859L97.551 90.6008L98.7497 94.7472L91.04 86.1831L88.7809 88.3392L95.8171 97.3255L88.2682 105.543L81.5411 102.153L76.9097 94.7497Z" fill="#2B1C54"/>
<path d="M68.891 64.7804C64.4606 67.7055 59.8871 68.7132 58.2059 67.233C58.0803 67.1225 57.9697 66.9968 57.8767 66.8586C56.56 64.8608 59.3518 60.6919 64.1164 57.5482C68.8809 54.402 73.8113 53.4747 75.1306 55.47C75.2788 55.6936 75.3743 55.9474 75.4196 56.2239C75.7965 58.3925 73.1202 61.9885 68.891 64.7804Z" fill="#15063F"/>
<path d="M68.8909 64.7804C64.4606 67.7055 59.8871 68.7131 58.2059 67.233C59.1935 64.9186 61.7693 62.1116 65.2874 59.7897C69.0467 57.3094 72.8941 56.0303 75.4221 56.2213C75.7965 58.3925 73.1202 61.9885 68.8909 64.7804Z" fill="black"/>
<path d="M47.4405 134.665C47.4405 134.665 43.5128 136.399 43.5128 140.174C43.5128 141.598 45.9779 141.752 47.4405 140.558V134.665Z" fill="#BECCD3"/>
<path d="M214.506 150.391C214.453 150.391 214.398 150.391 214.342 150.389C213.445 150.371 212.214 150.188 211.143 149.451C211.128 149.441 211.108 149.429 211.093 149.416L211.324 143.33C211.432 143.33 215.119 144.667 215.559 149.245C215.616 149.861 215.124 150.389 214.506 150.391Z" fill="#03E1FF"/>
<path d="M214.342 150.389C213.445 150.371 212.214 150.188 211.143 149.451L211.568 144.629C211.566 144.629 214.807 146.86 214.342 150.389Z" fill="white"/>
<path d="M211.194 150.547C211.179 150.605 211.166 150.66 211.151 150.718L210.41 153.55L209.668 156.387C209.668 156.387 202.888 159.699 193.721 155.078C184.554 150.454 175.065 145.003 173.495 143.865C172.615 143.229 172.937 136.394 173.391 130.501C173.748 125.872 174.183 121.824 174.183 121.824L178.701 111.689L179.018 110.978C179.018 110.978 185.635 111.82 189.334 117.366C189.334 117.366 193.729 116.969 200.466 123.478C207.203 129.989 208.49 130.245 207.771 133.582C207.771 133.582 209.103 135.389 210.332 138.344C211.93 142.212 212.214 146.494 211.194 150.547Z" fill="#0196FF"/>
<path d="M211.194 150.547L210.643 150.482C210.643 150.482 211.053 147.298 210.824 144.833C209.746 133.587 204.482 133.843 204.482 133.843C206.125 132.15 204.482 129.478 202.016 126.807C199.039 123.264 193.146 119.143 189.484 119.143C185.941 119.143 184.637 119.794 184.556 119.834C186.559 118.256 187.713 117.949 187.713 117.949C182.878 114.637 173.402 120.336 173.402 120.336L178.699 111.692L179.015 110.981C179.015 110.981 185.632 111.823 189.331 117.369C189.331 117.369 193.726 116.972 200.463 123.48C207.201 129.991 208.487 130.247 207.769 133.585C207.769 133.585 209.1 135.391 210.329 138.347C211.93 142.212 212.329 146.526 211.194 150.547Z" fill="#03E1FF"/>
<path d="M210.41 153.55L209.668 156.387C209.668 156.387 202.888 159.699 193.721 155.078C184.554 150.454 175.065 145.004 173.495 143.865C172.615 143.229 172.937 136.394 173.391 130.501C175.651 127.76 180.395 122.342 184.562 119.834C184.368 119.985 177.395 125.903 177.395 132.044C177.395 138.284 183.891 141.031 190.414 141.031C195.498 141.031 195.342 136.1 204.484 133.841C204.484 133.841 194.958 137.897 194.958 143.905C194.953 149.648 200.732 154.475 210.41 153.55Z" fill="#036AFF"/>
<path d="M211.093 160.752C210.827 160.752 210.543 160.704 210.244 160.609H210.231L210.045 160.538C209.877 160.476 209.696 160.395 209.51 160.3C209.412 160.249 209.316 160.197 209.224 160.144C207.417 159.101 206.271 157.131 206.238 155C206.223 154.188 206.258 153.422 206.346 152.731C206.366 152.572 206.391 152.399 206.424 152.203C206.424 152.195 206.432 152.16 206.444 152.097C207.05 148.813 208.914 148.323 209.972 148.323C212.84 148.323 214.614 152.195 214.614 155.781C214.614 157.071 214.365 158.196 213.898 159.036C213.282 160.144 212.284 160.752 211.093 160.752Z" fill="black"/>
<path d="M211.093 159.674C210.892 159.674 210.666 159.621 210.427 159.531H210.425C210.286 159.478 210.143 159.415 209.997 159.34C209.92 159.3 209.842 159.259 209.769 159.217C208.269 158.352 207.344 156.731 207.316 154.987C207.304 154.316 207.326 153.58 207.417 152.869C207.437 152.708 207.462 152.545 207.49 152.386C207.49 152.386 207.495 152.356 207.505 152.303C207.794 150.725 208.485 149.404 209.975 149.404C213.671 149.404 215.187 159.674 211.093 159.674Z" fill="white"/>
<path d="M211.091 159.674C210.89 159.674 210.663 159.621 210.425 159.531C213.943 159.098 212.274 150.482 210.025 150.482C208.057 150.482 207.59 151.942 207.505 152.303C207.794 150.725 208.485 149.404 209.975 149.404C213.671 149.404 215.187 159.674 211.091 159.674Z" fill="#03E1FF"/>
<path d="M200.413 163.295C200.064 163.295 199.717 163.207 199.405 163.044C196.822 161.679 195.905 158.998 195.905 157.118C195.905 154.842 197.503 152.406 199.885 152.406C201.984 152.406 203.532 153.454 203.924 155.146C204.127 156.015 203.987 157.003 203.519 157.995C202.946 159.219 202.672 160.551 202.544 161.453C202.534 161.539 202.514 161.637 202.484 161.73C202.227 162.652 201.378 163.295 200.413 163.295Z" fill="black"/>
<path d="M202.542 157.538C201.918 158.867 201.617 160.3 201.476 161.302C201.471 161.345 201.461 161.388 201.448 161.428C201.275 162.081 200.524 162.416 199.908 162.091C197.621 160.883 196.983 158.483 196.983 157.121C196.983 155.502 198.061 153.487 199.883 153.487C201.459 153.487 202.597 154.213 202.871 155.389C203.012 155.997 202.924 156.726 202.542 157.538Z" fill="#BECCD3"/>
<path d="M202.542 157.538C201.918 158.867 201.617 160.3 201.476 161.302C201.471 161.345 201.461 161.388 201.448 161.428C198.368 159.94 199.659 155.246 201.345 155.025C202.205 154.914 202.647 155.148 202.871 155.387C203.012 155.998 202.924 156.726 202.542 157.538Z" fill="white"/>
<path d="M211.483 156.04C211.344 157.425 211.226 158.717 209.769 159.214C208.269 158.35 207.344 156.729 207.316 154.985C207.304 154.314 207.326 153.578 207.417 152.866C207.877 152.226 208.635 151.417 209.518 151.417C210.98 151.419 211.636 154.5 211.483 156.04Z" fill="#BECCD3"/>
<path d="M103.904 119.874C103.904 133.354 93.6585 137.334 93.6585 137.334C92.3241 142.777 85.6472 155.54 71.3964 164.089C57.1455 172.638 56.4971 187.563 56.4971 187.563C56.4971 187.563 56.4971 187.56 56.4946 187.553C56.379 187.078 51.7376 167.612 66.956 157.772C82.3603 147.808 83.4911 138.359 83.4911 138.359C72.4995 138.359 68.4964 111.245 68.4964 111.245C71.9894 102.208 78.3547 100.256 84.2098 100.256C90.065 100.258 103.904 106.395 103.904 119.874Z" fill="#4F4575"/>
<path d="M98.9733 120.259C98.9733 124.508 97.7621 127.192 95.8322 129.187C95.8297 129.187 95.8297 129.19 95.8297 129.19C94.533 130.531 92.9121 131.567 91.1154 132.557C87.7405 134.416 82.976 136.846 82.976 136.846C78.9201 138.412 77.249 141.365 66.2348 146.066C63.7972 147.104 61.5733 147.868 59.573 148.311C52.5367 149.874 48.2748 147.511 47.2344 139.596C45.9001 129.426 52.5242 123.186 52.5242 123.186C52.6021 121.877 52.6021 120.568 57.3767 116.253C64.2345 109.244 70.4716 108.857 70.4716 108.857C70.4716 108.857 74.3239 103.387 80.948 103.387C90.1906 103.392 98.9733 108.681 98.9733 120.259Z" fill="#036AFF"/>
<path d="M52.1573 126.134C52.7252 125.486 53.655 125.292 54.439 125.649C57.344 126.968 64.3073 130.584 64.3073 134.974C64.3073 144.29 55.1929 144.702 52.7277 144.702C50.2625 144.702 47.5159 141.679 48.4004 134.909C48.996 130.378 50.936 127.526 52.1573 126.134Z" fill="#0196FF"/>
<path d="M79.8222 104.673C76.5077 104.673 72.4241 107.857 71.6803 109.244C71.6803 109.244 73.9671 109.981 74.7788 111.75C73.6379 111.021 72.306 110.629 70.9365 110.629C62.1538 110.629 49.5991 123.802 56.2735 125.47C61.1662 126.694 64.4657 132.66 69.0116 132.66C73.5575 132.66 81.9532 130.81 81.9532 123.571C81.9532 118.849 78.317 114.78 75.7864 112.524C76.9148 112.614 79.0608 113.18 80.6188 115.969C81.9532 118.075 82.4683 120.95 86.3709 120.95C90.2735 120.95 91.2486 117.663 91.2486 114.273C91.2435 110.888 86.974 104.673 79.8222 104.673Z" fill="#0196FF"/>
<path d="M173.638 142.679C169.904 174.767 152.456 191.892 132.252 198.197C165.971 185.278 172.499 151.439 173.638 142.679Z" fill="#03E1FF"/>
<path d="M196.186 96.0717L207.047 90.5985C207.047 90.5985 209.822 75.0937 197.496 69.0325L185.499 74.0659L196.186 96.0717Z" fill="#464189"/>
<path d="M193.593 93.9706L204.891 88.5477C204.891 88.5477 204.861 76.5936 197.651 71.1431L185.225 76.5836L193.593 93.9706Z" fill="#3B2767"/>
<path d="M195.701 90.1714L201.245 87.2665L200.989 83.8237L194.362 87.367L195.701 90.1714Z" fill="#2B1C54"/>
<path d="M192.462 82.8484L200.114 78.6895C200.114 78.6895 198.29 74.3371 197.041 73.146L189.175 76.7898L192.462 82.8484Z" fill="#2B1C54"/>
<path d="M97.355 220.887C96.88 221.02 96.4026 221.143 95.9226 221.259C93.7389 221.786 91.5099 222.146 89.291 222.369C76.8972 223.616 64.8727 220.62 63.2293 219.165C61.2265 217.394 58.9146 205.53 58.9146 205.53C58.0551 204.492 57.2761 202.351 56.7735 199.569C56.6404 198.833 56.5273 198.049 56.4368 197.23V197.215L56.4343 197.212C56.0649 193.87 56.0775 189.925 56.7208 185.959C58.3542 175.855 64.0661 165.617 77.9149 164.898C78.425 164.871 78.9477 164.858 79.483 164.858C83.1544 164.858 86.3031 165.333 88.9919 166.195C88.9944 166.198 88.9945 166.198 88.997 166.198C88.9995 166.198 88.9995 166.198 88.9995 166.198C92.8518 167.434 95.7618 169.467 97.9229 172.038C99.6971 174.154 100.966 176.636 101.833 179.338C107.166 195.938 97.355 220.887 97.355 220.887Z" fill="#036AFF"/>
<path d="M87.5822 183.904C86.3458 193.86 78.41 201.072 69.8609 200.009C63.0559 199.162 57.9119 193.327 56.7233 185.962C58.3567 175.857 64.0686 165.62 77.9174 164.901C84.4762 167.65 88.6376 175.402 87.5822 183.904Z" fill="#0196FF"/>
<path d="M97.355 220.887C94.7189 221.623 91.9974 222.096 89.291 222.369C90.9772 219.658 94.9552 211.989 96.2744 198.29C96.2744 198.29 102.461 191.041 101.833 179.338C107.166 195.938 97.355 220.887 97.355 220.887Z" fill="#0630EB"/>
<path d="M78.0581 225.757C76.7187 225.757 75.5452 224.898 75.1356 223.616C75.0627 223.392 75.0175 223.156 74.9974 222.92C74.7586 219.809 75.613 217.233 77.4048 215.662C78.513 214.692 79.9227 214.157 81.3777 214.157C83.9962 214.157 86.6448 215.931 86.6448 219.324C86.6448 223.231 83.5489 225.576 78.1536 225.757C78.1235 225.754 78.0908 225.757 78.0581 225.757Z" fill="black"/>
<path d="M85.5693 219.321C85.5693 223.799 80.8098 224.586 78.121 224.676C77.2163 224.704 76.4272 224.118 76.1634 223.289C76.1156 223.143 76.0855 222.992 76.0729 222.834C75.8367 219.738 76.7615 217.662 78.1159 216.474C80.9229 214.011 85.5693 215.351 85.5693 219.321Z" fill="white"/>
<path d="M81.717 218.532C81.717 219.628 81.1742 220.633 80.5384 221.435C79.6011 222.613 78.1687 223.289 76.6635 223.289H76.1634C76.1156 223.143 76.0855 222.993 76.0729 222.834C75.8367 219.738 76.7615 217.663 78.1159 216.474C79.9227 215.665 81.717 216.655 81.717 218.532Z" fill="#BECCD3"/>
<path d="M97.355 220.887C96.8801 221.02 96.4026 221.143 95.9226 221.259C96.9806 219.21 102.949 206.56 101.75 183.803C101.75 183.803 101.185 191.87 96.2795 198.285C96.4705 197.916 105.027 181.27 97.9179 172.038H97.9204C99.6946 174.153 100.964 176.636 101.831 179.338C107.166 195.938 97.355 220.887 97.355 220.887Z" fill="#03E1FF"/>
<path d="M93.1433 202.761C93.0152 202.924 84.7727 213.338 72.8086 213.338C65.0034 213.338 58.3291 205.877 56.7761 199.569C56.5775 198.765 56.4619 197.979 56.4393 197.23V197.215L56.4368 197.212C55.0949 185.045 58.8191 164.858 79.4855 164.858C83.1569 164.858 86.3056 165.333 88.9945 166.195C88.4843 166.105 58.1255 160.802 58.1255 191.252C58.123 215.288 78.2516 216.215 93.1433 202.761Z" fill="#0630EB"/>
<path d="M93.6585 137.334C92.3241 142.777 85.6472 155.54 71.3964 164.089C57.1455 172.638 56.4971 187.563 56.4971 187.563C56.4971 187.563 56.4971 187.56 56.4946 187.553C56.462 187.133 55.3362 172.103 64.3099 164.858C73.4117 157.515 85.5894 153.15 93.6585 137.334Z" fill="#605B7F"/>
<path d="M187.846 207.171C187.768 205.226 187.358 199.524 187.358 199.524L186.904 199.198L186.78 200.075C186.592 200.143 186.346 200.218 186.034 200.293C185.984 200.781 185.873 203.012 186.062 204.329C187.034 211.119 184.481 210.619 184.481 210.619L185.245 212.039C185.265 212.031 185.285 212.024 185.305 212.016C187.766 211.413 187.921 209.114 187.846 207.171Z" fill="#03E1FF"/>
<path d="M48.0788 151.738C47.8476 151.738 47.6214 151.701 47.4053 151.628C47.0686 151.512 46.7645 151.314 46.5258 151.05C44.033 148.278 44.1234 145.099 45.0381 143.046C45.9302 141.043 47.6893 139.749 49.5187 139.749C51.0064 139.749 52.1799 140.656 52.7378 142.237C53.567 144.584 53.0117 148.225 51.6597 149.318C50.8455 149.977 49.9509 150.776 49.4911 151.195C49.099 151.547 48.599 151.738 48.0788 151.738Z" fill="black"/>
<path d="M50.9837 148.479C50.2098 149.104 49.3528 149.863 48.7673 150.396C48.4808 150.652 48.0913 150.72 47.7521 150.607C47.5938 150.554 47.4455 150.459 47.3249 150.326C43.5982 146.182 46.2971 140.829 49.5212 140.829C52.9338 140.827 52.3181 147.401 50.9837 148.479Z" fill="white"/>
<path d="M47.7521 150.607C47.5938 150.554 47.4455 150.459 47.3249 150.326C43.5982 146.182 46.2971 140.829 49.5212 140.829C51.7577 141.721 48.9432 143.063 47.7496 145.745C46.8449 147.773 47.4179 149.76 47.7521 150.607Z" fill="#BECCD3"/>
<path d="M91.4194 102.115L95.8146 97.3303L97.3726 104.892L95.5256 106.317L91.4194 102.115Z" fill="#4F4575"/>
<path d="M95.8296 129.19C94.5329 130.532 92.9121 131.567 91.1153 132.557C87.7405 134.417 82.9759 136.847 82.9759 136.847C78.9201 138.412 77.249 141.365 66.2347 146.067C63.7972 147.104 61.5732 147.868 59.5729 148.311V146.951C59.5729 146.951 67.931 146.682 71.8838 140.468C71.8838 140.468 73.0649 141.599 80.8701 136.615C87.8033 132.534 87.4188 132.713 87.9314 131.353C87.9314 131.353 92.9724 131.21 95.8296 129.19Z" fill="#03E1FF"/>
<path d="M67.0037 224.367C65.315 224.367 63.8877 224.262 62.7619 224.055C62.1387 223.94 61.6059 223.586 61.2566 223.055C60.9098 222.525 60.7943 221.867 60.9375 221.249C60.9576 221.158 60.9827 221.06 61.0053 220.962C62.5282 214.936 67.0741 212.697 69.5845 212.697C69.8836 212.697 70.1751 212.727 70.454 212.787C73.2308 213.355 74.8994 216.497 74.8994 219.206C74.9019 222.342 71.8009 224.367 67.0037 224.367Z" fill="black"/>
<path d="M73.8213 219.206C73.8213 216.889 72.3789 214.283 70.2278 213.843C70.0193 213.798 69.8057 213.778 69.5845 213.778C67.2827 213.778 63.3851 215.949 62.0558 221.211C62.0331 221.304 62.008 221.397 61.9879 221.492C61.8271 222.181 62.2618 222.867 62.9579 222.995C63.7696 223.143 65.0562 223.289 67.0063 223.289C71.0496 223.289 73.8213 221.749 73.8213 219.206Z" fill="white"/>
<path d="M70.8963 216.471C70.8963 221.309 64.4355 221.356 62.0558 221.208C63.3851 215.946 67.2852 213.775 69.5846 213.775C69.8057 213.775 70.0193 213.798 70.2279 213.84C70.6475 214.484 70.8963 215.368 70.8963 216.471Z" fill="#BECCD3"/>
<path d="M54.6375 153.369C54.2606 153.369 53.9088 153.334 53.5947 153.264C52.9011 153.113 52.3583 152.59 52.1774 151.902L52.1472 151.773L52.1422 151.746C52.0593 151.276 52.1573 150.793 52.4136 150.394C52.7528 149.871 53.3308 148.773 53.3987 147.25C53.4967 145.034 55.5874 143.642 57.4696 143.624H57.4998C57.8968 143.624 58.2763 143.682 58.6331 143.795L59.382 144.144C60.1811 144.639 61.1259 145.68 61.1259 147.838C61.1259 151.61 57.2535 153.369 54.6375 153.369Z" fill="black"/>
<path d="M60.0479 147.835C60.0479 151.349 55.786 152.64 53.8259 152.211C53.5143 152.143 53.2931 151.904 53.2203 151.628C53.2152 151.605 53.2102 151.582 53.2052 151.56C53.17 151.366 53.2052 151.16 53.3208 150.977C53.7656 150.291 54.3988 149.027 54.4767 147.298C54.5421 145.787 56.0523 144.714 57.4797 144.699C57.7611 144.697 58.0401 144.735 58.3039 144.82V144.822C59.2739 145.129 60.0479 146.056 60.0479 147.835Z" fill="white"/>
<path d="M57.839 147.876C57.0801 150.944 54.3335 151.472 53.2027 151.56C53.1675 151.366 53.2027 151.16 53.3183 150.977C53.7631 150.291 54.3963 149.027 54.4742 147.298C54.5396 145.787 56.0498 144.714 57.4772 144.699C57.9597 145.139 58.2939 146.041 57.839 147.876Z" fill="#BECCD3"/>
<path d="M183.167 217.549C182.958 217.549 182.752 217.547 182.549 217.539C178.872 217.446 176.601 216.504 175.347 215.728C174.427 215.16 173.882 214.175 173.887 213.091C173.894 211.86 174.062 210.081 174.834 208.608C175.055 208.186 175.319 207.807 175.618 207.483C176.498 206.51 177.726 205.992 179.161 205.992C181.9 205.992 184.265 207.382 185.996 210.008C187.291 211.971 187.891 214.134 187.891 214.979C187.891 215.898 187.441 217.064 185.298 217.411C184.742 217.504 184.044 217.549 183.167 217.549Z" fill="black"/>
<path d="M186.816 214.981C186.816 215.755 186.263 216.165 185.129 216.348C184.602 216.434 183.951 216.471 183.169 216.471C182.973 216.471 182.782 216.469 182.591 216.461C179.071 216.373 176.982 215.469 175.914 214.81C175.321 214.443 174.962 213.798 174.965 213.097C174.97 212.059 175.103 210.418 175.789 209.111C175.957 208.787 176.163 208.483 176.41 208.214C177.028 207.53 177.91 207.073 179.159 207.073C184.785 207.073 186.816 213.853 186.816 214.981Z" fill="white"/>
<path d="M182.591 216.461C179.071 216.373 176.982 215.469 175.914 214.81C175.321 214.444 174.962 213.798 174.965 213.097C174.97 212.059 175.103 210.418 175.789 209.111C177.442 210.161 181.121 212.82 182.591 216.461Z" fill="#BECCD3"/>
<path d="M186.816 214.981C186.816 215.755 186.263 216.165 185.129 216.348C185.102 214.77 184.78 212.747 183.629 210.873C181.267 207.02 176.412 208.211 176.412 208.211C177.03 207.528 177.912 207.071 179.161 207.071C184.785 207.073 186.816 213.853 186.816 214.981Z" fill="#03E1FF"/>
<path d="M177.048 119.759C175.713 123.463 174.51 129.157 174.155 136.849C174.078 138.116 173.98 139.362 173.861 140.586C173.861 140.586 173.861 140.586 173.861 140.588C173.861 140.591 173.861 140.598 173.859 140.606C173.801 141.227 173.736 141.84 173.665 142.45C173.655 142.526 173.648 142.604 173.638 142.682C173.605 142.963 173.572 143.244 173.537 143.523C173.314 145.308 173.047 147.042 172.741 148.728L172.452 146.175C172.306 144.89 172.266 143.596 172.329 142.307L172.565 137.425C172.565 135.452 172.675 133.479 172.894 131.519L174.186 119.929L177.048 119.759Z" fill="#4F4575"/>
<path d="M174.201 134.512C174.201 134.512 175.201 127.448 180.835 122.96C186.336 118.577 176.714 117.308 176.714 117.308L174.042 124.807L174.201 134.512Z" fill="#4F4575"/>
<path d="M194.664 50.5496C194.664 50.5496 200.519 52.3463 200.735 56.3193L198.408 55.7564L194.664 50.5496Z" fill="black"/>
<path d="M143.726 125.495C138.708 125.495 134.343 125.36 130.388 125.078C123.045 124.556 117.17 123.518 112.428 121.902C111.302 121.52 110.219 121.095 109.206 120.645C105.861 119.155 103.16 117.308 100.946 114.996C99.6317 113.624 98.4808 112.064 97.5309 110.365C96.4579 108.445 95.5884 106.249 94.9451 103.834C94.7642 103.155 94.5958 102.442 94.4475 101.713L94.4425 101.69C94.4124 101.542 94.3847 101.394 94.3571 101.243L94.3244 101.067C94.0404 99.5694 93.8218 97.9536 93.6736 96.2649C93.5806 95.207 93.5127 94.1415 93.4725 93.0986C93.3318 89.4549 93.5077 85.9594 93.9902 82.7101C94.0002 82.6398 94.043 82.3734 94.043 82.3734L94.0606 82.2553C94.0807 82.1271 94.1008 81.9965 94.1209 81.8708C95.1713 75.591 97.3952 70.1228 100.732 65.6171C103.464 61.9332 106.374 59.6615 108.379 58.3899C108.45 58.0406 108.53 57.6813 108.618 57.2918L108.643 57.1686C108.656 57.1159 108.666 57.0606 108.678 57.0078C108.812 56.4198 108.957 55.8192 109.113 55.2236C109.475 53.8264 109.859 52.5498 110.292 51.321C110.769 49.9665 111.262 48.7377 111.792 47.5592C112.063 46.9535 112.327 46.4032 112.598 45.8755C113.516 44.0863 114.571 42.4001 115.732 40.8647C116.594 39.7414 117.529 38.686 118.514 37.7235C118.944 37.3038 119.353 36.9269 119.765 36.5701C120.776 35.7132 121.879 34.9266 123.045 34.228C125.226 32.9238 127.581 31.9588 130.048 31.3633C131.365 31.0441 132.757 30.8154 134.187 30.6848C134.69 30.637 135.195 30.6018 135.69 30.5792C136.177 30.5566 136.662 30.5466 137.135 30.5466C138.607 30.5466 140.035 30.6546 141.377 30.8707L141.467 30.8858C143.42 31.2024 145.244 31.7327 146.89 32.4564C147.197 32.5795 147.498 32.7328 147.792 32.8811C147.875 32.9238 148.091 33.0319 148.091 33.0319C148.121 33.0469 148.152 33.062 148.182 33.0771C148.245 33.1072 148.302 33.1374 148.36 33.1701C148.443 33.2153 148.523 33.263 148.606 33.3108C148.679 33.3535 148.752 33.3962 148.825 33.4364C148.908 33.4842 148.978 33.5269 149.051 33.5671L149.167 33.635C149.267 33.6928 149.365 33.7506 149.461 33.8134C149.549 33.8712 149.752 34.0044 149.752 34.0044C150.061 34.2029 150.373 34.4064 150.67 34.6351C150.727 34.6778 150.788 34.7231 150.85 34.7683C150.981 34.8638 151.117 34.9618 151.25 35.0698L151.805 35.5272C151.823 35.5423 151.838 35.5548 151.851 35.5674L151.871 35.585C152.21 35.874 152.547 36.1856 152.893 36.5299C154.954 34.1401 159.616 30.4259 168.861 30.0289C169.162 30.0163 169.461 30.0088 169.755 30.0088C170.765 30.0088 171.751 30.0842 172.683 30.235C174.917 30.5943 176.942 31.3934 178.704 32.6072C179.621 33.2404 180.483 33.9993 181.267 34.8613C181.443 35.0548 181.586 35.2181 181.719 35.3789C184.32 38.5 185.461 42.3046 185.924 44.4305C186.421 44.5612 186.914 44.707 187.391 44.8653C192.246 46.466 194.452 48.989 195.362 50.4189C197.011 51.0547 200.566 52.7685 201.039 55.8644C201.373 56.1961 201.647 56.5429 201.921 56.8997L201.938 56.9198C202.001 57.0028 202.062 57.0832 202.117 57.1661L202.135 57.1912C202.19 57.2717 202.233 57.3395 202.275 57.4074L202.315 57.4727C202.351 57.533 202.386 57.5908 202.418 57.6511L202.459 57.7265C202.489 57.7843 202.519 57.8421 202.547 57.8999L202.584 57.9753C202.612 58.0331 202.64 58.0934 202.665 58.1537L202.692 58.2165C202.723 58.2894 202.75 58.3598 202.778 58.4301L202.79 58.4628C202.821 58.5407 202.848 58.6236 202.873 58.704L202.881 58.7317C202.903 58.8071 202.924 58.8724 202.944 58.9402L202.964 59.0182C202.979 59.0709 202.991 59.1237 203.004 59.174L203.024 59.2619C203.034 59.3097 203.044 59.3549 203.054 59.4001L203.072 59.4956C203.079 59.5408 203.087 59.5836 203.094 59.6263L203.11 59.7218C203.117 59.7645 203.14 59.9379 203.14 59.9379L203.152 60.0635C203.157 60.1163 203.167 60.2394 203.167 60.2394L203.175 60.3374L203.182 60.5309L203.187 60.7596V60.8727L203.185 61.021L203.182 61.0888C203.16 61.5989 203.087 61.9583 203.062 62.0689C202.954 63.1117 202.521 65.1095 200.86 67.1148C200.858 67.1475 200.855 67.1852 200.853 67.2254L200.825 67.5571C200.8 67.7582 200.772 67.9366 200.745 68.115L200.73 68.2155C200.687 68.4366 200.647 68.6402 200.599 68.8437L200.592 68.8814C200.551 69.0573 200.504 69.2358 200.453 69.4117C200.453 69.4117 200.436 69.4795 200.431 69.4971C200.197 70.3163 199.88 71.123 199.488 71.8919C199.23 72.4021 198.92 72.9172 198.574 73.4248C198.574 73.4248 198.501 73.5329 198.478 73.5656C198.368 73.7239 198.255 73.8822 198.136 74.0355C197.717 74.5808 197.227 75.1236 196.636 75.6965L196.568 75.7619C196.531 75.7996 196.493 75.8373 196.455 75.8724C195.307 76.9228 193.952 77.8325 192.425 78.5789C192.359 78.6115 192.294 78.6392 192.231 78.6693C192.231 78.6693 192.07 78.7447 192.025 78.7648C194.48 80.931 196.224 84.4843 197.217 89.3368C197.43 90.3746 197.609 91.4803 197.749 92.6262C198.192 92.679 198.596 92.8021 198.961 92.9906C199.461 93.2494 199.875 93.6314 200.192 94.1264C200.614 94.7848 200.845 95.6266 200.886 96.6343C201.021 100.213 197.797 102.535 196.061 103.52C196.827 104.761 197.053 106.344 196.601 107.493C196.332 108.184 195.875 108.777 195.204 109.31C194.382 109.96 193.249 110.518 191.746 111.008C191.412 111.594 191.035 112.177 190.625 112.742L190.605 112.77C189.952 113.67 189.2 114.544 188.374 115.368C187.718 116.019 186.997 116.655 186.225 117.256C182.056 120.505 174.115 124.503 159.965 125.113C153.866 125.37 148.556 125.495 143.726 125.495C143.729 125.495 143.729 125.495 143.726 125.495Z" fill="black"/>
<path d="M202.715 61.9961C202.614 62.9963 202.197 64.9815 200.514 66.9743C200.511 67.0522 200.506 67.12 200.501 67.1979C200.494 67.3085 200.484 67.4191 200.471 67.5246C200.446 67.7407 200.413 67.9518 200.378 68.1604C200.3 68.58 200.207 68.9922 200.089 69.3967C199.858 70.2059 199.549 70.99 199.172 71.7288C198.795 72.4701 198.35 73.1662 197.855 73.8195C197.357 74.4679 196.797 75.0609 196.212 75.6112C195.02 76.6994 193.676 77.5663 192.269 78.2549C191.967 78.4031 191.661 78.5388 191.349 78.672C193.779 80.5869 196.45 84.5925 197.428 92.9606C197.935 92.9857 198.395 93.1038 198.797 93.3099C199.541 93.6944 200.446 94.5864 200.526 96.6471C200.664 100.241 196.043 102.54 194.372 103.424C195.219 104.568 196.098 106.151 195.636 107.33C195.229 108.372 194.543 109.425 191.213 110.488C190.462 111.825 189.346 113.396 187.796 114.941C183.755 118.959 175.962 123.676 159.993 124.362C133.652 125.491 119.042 123.782 109.442 119.507C104.205 117.173 100.745 114.283 98.2421 109.8C95.8146 105.455 94.4676 100.188 94.1912 93.0184C93.3393 70.8593 104.261 62.3932 109.055 59.3927C109.158 58.8826 108.917 57.5935 109.035 57.0859C109.47 55.176 109.988 53.2838 110.641 51.4393C111.289 49.5923 112.036 47.7779 112.928 46.0365C113.82 44.2975 114.855 42.6314 116.029 41.0784C117.215 39.533 118.544 38.1031 120.012 36.8416C122.962 34.3387 126.472 32.5973 130.144 31.7102C131.978 31.2654 133.848 31.0217 135.72 30.9387C137.592 30.8533 139.474 30.9287 141.334 31.2227C143.189 31.5167 145.023 32.0193 146.759 32.7832C147.199 32.9591 147.616 33.1928 148.044 33.3989C148.257 33.5019 148.458 33.6326 148.667 33.7457C148.87 33.8663 149.081 33.9769 149.28 34.1101C149.679 34.3739 150.087 34.6202 150.463 34.9142C150.654 35.0574 150.853 35.1906 151.036 35.3414L151.592 35.7962C152.057 36.1933 152.501 36.6155 152.929 37.0577C154.899 34.6227 159.472 30.7854 168.888 30.3834C174.153 30.1572 178.382 31.9138 181.456 35.6053C184.061 38.7314 185.175 42.5259 185.632 44.7197C192.108 46.3506 194.53 49.7204 195.292 51.1905C196.083 51.5298 196.845 51.9368 197.553 52.447C197.878 52.6882 198.197 52.937 198.486 53.226C198.78 53.5074 199.056 53.8115 199.29 54.1507C199.579 54.5654 199.825 55.0303 199.966 55.5228C200.639 56.0028 201.21 56.538 201.667 57.1361C203.336 59.3199 202.735 61.9082 202.715 61.9961Z" fill="#0196FF"/>
<path d="M185.185 45.3177L175.239 44.3729L167.398 45.466L162.581 46.6119L158.068 48.484L153.439 45.1494L148.071 43.1541L142.558 42.6264L137.811 42.8727L134.366 43.526L131.239 44.4985L128.842 45.5917L126.638 46.7928L125.814 47.3507L125.146 47.7855L124.522 48.2554L124.221 48.4866C124.113 48.577 124 48.6625 123.892 48.7554V48.7605C123.811 48.8258 123.738 48.8836 123.663 48.9489C123.668 48.9439 123.673 48.9439 123.678 48.9339C124.057 48.5092 130.325 41.6941 142.761 41.6941C152.562 41.6941 156.851 45.6469 158.208 46.926C158.208 46.926 168.366 41.1789 184.107 43.8175C184.2 43.8276 184.295 43.8477 184.388 43.8628L185.185 45.3177Z" fill="#0630EB"/>
<path d="M157.804 45.3552C157.603 44.7772 157.364 44.2194 157.103 43.669L157.088 43.4429L156.118 41.5908L154.424 39.289L153.306 37.5953L153.843 36.3589C154.087 36.6253 154.316 36.9067 154.532 37.2032C156.861 40.3746 157.746 45.0411 157.804 45.3552Z" fill="#0630EB"/>
<path d="M190.919 79.7627C190.834 79.7929 190.756 79.818 190.67 79.8457C177.94 84.1202 170.343 78.4912 170.007 78.2349C170.695 78.5565 171.406 78.8229 172.122 79.0792C172.844 79.3305 173.57 79.5542 174.309 79.7401C175.779 80.1246 177.282 80.3734 178.789 80.4211C179.543 80.4563 180.292 80.401 181.051 80.3382C181.425 80.303 181.805 80.2829 182.179 80.2402L183.308 80.097C184.8 79.8758 186.293 79.6069 187.74 79.1722C188.472 78.9586 189.19 78.7123 189.899 78.4309L190.919 79.7627Z" fill="#0630EB"/>
<path d="M162.302 74.7971C162.232 74.9605 162.161 75.1188 162.086 75.2771C156.447 87.407 137.358 84.0121 137.358 84.0121C139.492 83.997 141.633 83.8889 143.751 83.6427C145.867 83.3914 147.973 83.0144 150.004 82.3937C151.029 82.0972 152.021 81.7177 152.984 81.288C153.954 80.8533 154.884 80.3432 155.746 79.7426C156.613 79.1445 157.412 78.4484 158.09 77.6568C158.432 77.2623 158.731 76.8376 158.992 76.3928C159.08 76.2446 159.161 76.0863 159.236 75.933C159.116 75.9531 158.997 75.9782 158.872 75.9983L162.302 74.7971Z" fill="#0630EB"/>
<path d="M194.437 103.186C194.437 103.186 200.054 100.879 199.89 96.6745C199.725 92.3447 195.546 92.9629 190.959 96.4157C187.894 98.7251 177.256 99.886 169.381 100.223C139.273 101.514 142.364 89.3694 128.845 89.9499C119.939 90.3318 108.862 113.232 174.633 112.237C188.497 111.644 194.616 109.815 195.679 107.103C196.121 105.977 195.626 104.095 194.437 103.186Z" fill="#AD3E23"/>
<path d="M202.212 61.3726C202.305 63.8001 200.262 71.3842 185.084 72.035C184.22 72.0727 183.388 72.0803 182.591 72.0652C169.421 71.8114 165.511 64.8028 165.511 64.8028C165.511 64.8028 172.954 56.8393 182.546 55.902C182.549 55.902 182.551 55.902 182.551 55.902C182.893 55.8668 183.237 55.8442 183.581 55.8291C198.453 55.1908 202.119 58.9401 202.212 61.3726Z" fill="white"/>
<path d="M168.371 62.853C168.464 65.283 166.421 72.867 151.245 73.5179C150.383 73.5556 149.556 73.5631 148.762 73.5481C148.762 73.5481 148.762 73.5481 148.76 73.5481C135.582 73.2968 131.669 66.2857 131.669 66.2857C131.669 66.2857 136.67 60.9356 143.759 58.4905C145.626 57.8447 147.639 57.4024 149.742 57.312C164.614 56.6737 168.278 60.4255 168.371 62.853Z" fill="white"/>
<path d="M148.757 73.548C135.579 73.2967 131.667 66.2856 131.667 66.2856C131.667 66.2856 136.667 60.9356 143.756 58.4905C144.432 58.6262 144.837 58.7317 144.837 58.7317C144.837 58.7317 138.173 62.6469 135.544 66.5042C135.544 66.5042 141.708 73.2012 148.757 73.548Z" fill="#E6E7E8"/>
<path d="M178.749 71.2084C179.933 71.6406 181.219 71.9497 182.591 72.0653C173.525 71.8919 168.846 68.5145 166.81 66.4263C166.913 66.2554 167.006 66.087 167.094 65.9212C167.554 65.0216 167.778 64.1496 167.83 63.3982C167.845 63.2173 167.845 63.0439 167.84 62.878C167.838 62.8227 167.833 62.7574 167.823 62.6845C170.745 60.252 176.171 56.5253 182.546 55.9021C182.147 55.9926 180.546 56.3896 178.525 57.2968C175.744 58.5482 172.16 60.7747 169.831 64.5215C169.831 64.519 173.203 69.1905 178.749 71.2084Z" fill="#E6E7E8"/>
<path d="M196.262 75.629C196.845 75.0761 197.408 74.4831 197.905 73.8347C198.4 73.1814 198.845 72.4853 199.222 71.744C199.601 71.0027 199.983 70.3443 200.21 69.5351C200.333 69.128 200.418 68.7435 200.499 68.3214C200.531 68.1103 200.604 67.9419 200.634 67.7233C200.644 67.6202 200.566 67.4293 200.576 67.3187C200.582 67.2408 200.958 67.0498 200.737 66.9719C202.424 64.9817 202.74 63.102 202.838 62.0993C202.848 62.0641 202.946 61.6168 202.946 60.9057C202.946 59.9357 202.833 58.4581 201.868 57.2041C201.411 56.606 201.039 56.0331 200.365 55.5531C200.225 55.0581 200.25 54.7138 199.961 54.3042C199.725 53.9624 199.383 53.3593 199.089 53.0754C198.797 52.7889 198.265 52.3943 197.94 52.1531C197.234 51.6455 196.139 51.1354 195.347 50.7936C194.583 49.326 192.261 46.205 185.788 44.5766C185.331 42.3828 184.192 38.6913 181.589 35.5652C178.515 31.8737 174.178 30.0267 168.916 30.2503C159.5 30.6549 154.864 34.3263 152.893 36.7588C152.466 36.3191 152.361 36.2688 151.893 35.8718L151.335 35.3893C151.15 35.236 150.931 35.0903 150.737 34.947C150.358 34.6555 150.215 34.4997 149.813 34.2333C149.617 34.1052 149.305 33.8313 149.099 33.7132C148.893 33.6001 148.526 33.4518 148.31 33.3463C147.883 33.1427 147.305 32.7532 146.865 32.5748C145.134 31.8084 143.364 31.4264 141.512 31.1299C139.653 30.8333 137.647 30.7378 135.773 30.8208C133.901 30.9087 132.044 31.1474 130.207 31.5922C126.535 32.4818 123.083 34.0223 120.135 36.5226C118.67 37.7816 117.154 39.3648 115.966 40.9127C114.79 42.4632 113.775 44.0514 112.882 45.7903C111.988 47.5368 111.216 49.4416 110.566 51.2836C109.915 53.1306 109.377 54.9299 108.947 56.8372C108.829 57.3473 108.53 58.0811 108.427 58.5887C103.632 61.5892 92.98 70.9147 93.8319 93.0763C94.1083 100.241 95.4201 105.835 97.8501 110.179C100.353 114.665 104.117 117.977 109.354 120.309C118.954 124.584 133.609 125.868 159.952 124.742C175.917 124.056 184.205 119.435 188.243 115.414C189.793 113.871 190.851 112.127 191.6 110.79C194.932 109.727 195.99 108.473 196.395 107.43C196.86 106.249 196.586 104.583 195.739 103.437C197.408 102.553 200.883 100.226 200.745 96.6321C200.667 94.5715 199.539 93.692 198.797 93.305C198.395 93.0989 197.935 92.9808 197.425 92.9557C196.45 84.5851 193.837 80.5845 191.409 78.6722C191.718 78.5365 192.01 78.4058 192.314 78.2575C193.724 77.5765 195.073 76.7146 196.262 75.629ZM201.627 60.9961C201.65 61.0941 201.665 61.1821 201.675 61.2625C201.68 61.3128 201.68 61.358 201.685 61.3982C201.808 64.5645 198.629 70.6433 185.883 71.4324C188.494 70.2915 190.361 67.678 190.59 64.6097C188.821 64.0845 187.502 62.4109 187.421 60.3754C187.386 59.4708 187.605 58.6114 188.007 57.8801C187.278 57.2066 186.429 56.6789 185.496 56.3346C191.085 56.2241 195.367 56.7744 198.242 57.9731C200.747 59.0159 201.451 60.2548 201.627 60.9961ZM184.712 63.9463C183.742 63.9916 182.923 63.1924 182.88 62.1672C182.845 61.1444 183.597 60.28 184.569 60.2397C185.539 60.197 186.358 60.9911 186.401 62.0189C186.439 63.0417 185.685 63.9061 184.712 63.9463ZM200.644 57.9505C200.672 57.9907 200.705 58.0284 200.735 58.0686C198.458 56.3748 193.653 54.8344 183.561 55.2691C177.261 55.5405 171.826 58.84 168.516 61.4057C168.222 60.8177 167.717 60.1568 166.84 59.5185C169.672 57.3951 175.153 54.3293 183.509 53.9725C194.724 53.495 199.016 55.8723 200.644 57.9505ZM168.901 62.8306C168.896 62.7451 168.891 62.6522 168.873 62.5491C171.14 60.7649 174.532 58.5309 178.525 57.2971C178.578 57.282 178.623 57.2669 178.674 57.2519C176.543 58.7697 175.186 61.3831 175.299 64.2881C175.419 67.4494 177.251 70.1181 179.81 71.3344C179.448 71.2992 179.093 71.2565 178.747 71.2112C173.145 70.4322 169.745 68.3163 167.878 66.6704C168.939 64.6675 168.906 62.9964 168.901 62.8306ZM179.578 64.5846C178.862 64.6123 178.254 64.0267 178.224 63.2653C178.196 62.5039 178.752 61.8681 179.475 61.8329C180.197 61.8028 180.797 62.3958 180.832 63.1548C180.86 63.9111 180.3 64.5519 179.578 64.5846ZM179.983 59.31C179.955 58.5561 180.513 57.9128 181.234 57.8826C181.956 57.8525 182.559 58.4405 182.591 59.2019C182.619 59.9583 182.059 60.5991 181.337 60.6292C180.621 60.6644 180.013 60.0714 179.983 59.31ZM141.46 65.7707C141.58 68.937 143.41 71.6007 145.975 72.822C137.039 71.8973 133.29 67.6278 132.363 66.3588C133.622 65.1174 138.489 60.6494 144.832 58.7395C142.704 60.2548 141.347 62.8633 141.46 65.7707ZM145.737 66.0672C145.02 66.0949 144.412 65.5094 144.382 64.748C144.35 63.9865 144.91 63.3508 145.631 63.3131C146.355 63.2854 146.955 63.8785 146.986 64.6374C147.018 65.3938 146.458 66.0371 145.737 66.0672ZM146.144 60.7976C146.111 60.0362 146.674 59.3929 147.39 59.3652C148.111 59.3351 148.72 59.9231 148.747 60.6845C148.78 61.4384 148.219 62.0817 147.498 62.1119C146.774 62.1471 146.171 61.554 146.144 60.7976ZM133.436 63.8961C131.9 65.1953 129.968 65.8562 128.003 65.7305C127.038 65.6702 125.992 65.5169 125.012 65.2053C127.184 64.474 131.257 62.7854 137.102 59.0185C145.111 53.8519 158.359 53.4699 166.652 58.0258C166.277 58.2872 165.941 58.541 165.637 58.7797C162.996 57.4252 158.241 56.3849 149.722 56.7493C142.548 57.0584 136.502 61.2927 133.436 63.8961ZM150.73 61.7224C151.7 61.6771 152.519 62.4737 152.557 63.5015C152.597 64.5243 151.846 65.3888 150.873 65.429C149.903 65.4742 149.084 64.6726 149.041 63.6498C149.003 62.627 149.757 61.7626 150.73 61.7224ZM156.748 66.0899C154.979 65.5672 153.655 63.891 153.58 61.8556C153.542 60.9509 153.758 60.0915 154.16 59.3602C153.436 58.6867 152.587 58.159 151.657 57.8122C157.246 57.7092 161.528 58.252 164.403 59.4532C166.514 60.3327 167.343 61.3505 167.657 62.0968C167.75 62.3205 167.803 62.5165 167.825 62.6798C167.835 62.7552 167.84 62.818 167.843 62.8783C167.848 63.0417 167.843 63.2201 167.828 63.3985C167.778 64.1499 167.556 65.0194 167.094 65.924C167.009 66.0874 166.916 66.2557 166.813 66.4266C166.715 66.5849 166.612 66.7483 166.501 66.9066C164.586 69.6432 160.342 72.4024 152.037 72.92C154.648 71.7792 156.515 69.1632 156.748 66.0899ZM193.937 51.261C194.161 51.3263 194.387 51.3942 194.608 51.4696C195.571 51.7837 196.503 52.1958 197.375 52.7336C198.028 53.1533 198.647 53.6483 199.149 54.2665C199.436 54.6208 199.687 55.0204 199.86 55.4551C196.676 53.2462 191.183 52.2963 183.458 52.6306C176.281 52.9371 171.127 55.1787 167.886 57.2041C167.416 56.9227 166.936 56.6663 166.433 56.4176L166.84 55.8346L166.881 55.7692C166.903 55.7416 166.923 55.7089 166.951 55.6762C167.009 55.6109 167.059 55.5431 167.117 55.4827C167.242 55.3546 167.353 55.2214 167.499 55.0958C167.634 54.9777 167.768 54.8495 167.916 54.7389C168.064 54.6309 168.205 54.5077 168.361 54.4072L168.833 54.0956C168.989 53.985 169.162 53.9071 169.326 53.8142C169.489 53.7212 169.652 53.6282 169.821 53.5377L170.336 53.294C170.509 53.2161 170.678 53.1256 170.856 53.0578L171.386 52.8442L171.919 52.6255C172.097 52.5627 172.281 52.5024 172.462 52.4446C172.829 52.3265 173.188 52.1883 173.557 52.0878L174.671 51.7862C175.04 51.6756 175.424 51.6128 175.796 51.5299C176.176 51.452 176.55 51.3666 176.93 51.2937C177.694 51.1756 178.453 51.0374 179.219 50.9318C179.985 50.8439 180.754 50.7333 181.526 50.6604L183.843 50.477C185.386 50.384 186.936 50.3538 188.477 50.4292C189.251 50.4644 190.017 50.5373 190.784 50.6328C191.545 50.7358 192.309 50.864 193.063 51.0323C193.357 51.1077 193.648 51.1831 193.937 51.261ZM193.493 50.5398C193.4 50.5096 193.299 50.4845 193.204 50.4544C192.44 50.2357 191.663 50.0699 190.884 49.9317C190.105 49.8035 189.316 49.6955 188.532 49.6301C186.959 49.4819 185.381 49.4467 183.808 49.502C180.666 49.605 177.518 49.8839 174.412 50.6152L173.256 50.9067C172.866 51.0047 172.489 51.1379 172.105 51.256C171.911 51.3163 171.72 51.3716 171.534 51.4394L170.969 51.6505L170.404 51.8691C170.21 51.942 170.034 52.0375 169.846 52.1204L169.288 52.3768C169.104 52.4722 168.926 52.5753 168.748 52.6733C168.569 52.7763 168.383 52.8618 168.21 52.9799L167.685 53.3191C167.506 53.4347 167.343 53.5729 167.169 53.6935C167.001 53.8167 166.843 53.9674 166.677 54.1082C166.607 54.1685 166.541 54.2313 166.476 54.3017C166.112 53.6131 165.622 53.0176 165.079 52.5225C164.277 51.7912 163.365 51.2635 162.43 50.8564C161.694 50.5373 160.945 50.2835 160.186 50.0824C159.957 49.7558 159.724 49.4442 159.475 49.1426C159.399 49.0496 159.322 48.9617 159.239 48.8712C161.214 47.5519 165.727 45.6044 175.364 45.1898C185.677 44.7525 191.349 47.5167 193.493 50.5398ZM197.569 94.3202C197.817 94.3504 198.041 94.4157 198.239 94.5187C198.87 94.8454 199.212 95.5817 199.255 96.7025C199.32 98.4364 198.204 99.8412 197.008 100.834C196.548 101.213 196.058 101.545 195.538 101.831C194.948 102.148 194.327 102.404 193.678 102.593C193.347 102.691 193.005 102.771 192.663 102.837C169.79 106.998 153.791 104.952 144.327 102.462C135.728 100.198 130.853 97.185 129.35 96.1471C129.091 95.9687 128.747 95.9888 128.531 96.21C128.237 96.5216 128.292 97.0216 128.624 97.2578C130.197 98.356 135.102 101.409 143.92 103.741C150.479 105.475 160.126 107.003 172.964 106.455C178.9 106.199 185.516 105.495 192.829 104.171C192.839 104.168 192.852 104.168 192.862 104.168C193.334 104.091 193.799 104.191 194.186 104.425C194.842 104.814 195.277 105.566 195.189 106.425C195.174 106.583 195.141 106.722 195.096 106.85C194.827 107.533 194.065 108.28 192.357 108.981C191.869 109.184 191.304 109.383 190.65 109.574C187.59 110.473 182.609 111.23 174.628 111.572C136.637 112.145 122.902 104.545 122.708 97.2403C122.615 93.6694 125.947 90.7544 128.872 90.6237C134.102 90.4 136.695 92.1113 139.979 94.2825C144.973 97.577 151.185 101.683 169.411 100.902C172.364 100.773 187.318 99.9894 191.329 96.9689C193.181 95.5717 194.925 94.6871 196.294 94.4032C196.769 94.2951 197.199 94.27 197.569 94.3202ZM189.894 78.4334C189.188 78.7149 188.467 78.9611 187.738 79.1747C186.29 79.6095 184.798 79.8758 183.305 80.0995L182.177 80.2427C181.802 80.288 181.423 80.3081 181.051 80.3407C180.292 80.4061 179.543 80.4589 178.789 80.4262C177.282 80.3759 175.779 80.1297 174.311 79.7427C173.57 79.5567 172.844 79.3331 172.125 79.0818C171.409 78.8254 170.698 78.5566 170.009 78.2374C170.688 78.5817 171.391 78.8782 172.097 79.1622C172.809 79.4436 173.532 79.6899 174.269 79.9085C175.734 80.3483 177.244 80.6549 178.777 80.7579C179.538 80.8232 180.317 80.8031 181.076 80.7629C181.453 80.7428 181.838 80.7378 182.217 80.7026L183.358 80.5996C184.881 80.4362 186.401 80.2176 187.894 79.8231C188.56 79.6623 189.223 79.4637 189.871 79.2401C190.133 79.4135 190.402 79.6095 190.673 79.8482C192.839 81.6676 195.237 85.4571 196.154 93.0562C194.566 93.3628 192.653 94.3152 190.593 95.8682C187.71 98.0419 177.352 99.2079 169.361 99.5547C151.526 100.316 145.498 96.3381 140.655 93.1341C137.321 90.9353 134.443 89.038 128.822 89.2818C125.241 89.4351 121.323 92.8828 121.437 97.2729C121.502 99.7808 123.047 104.53 132.657 108.144C141.827 111.587 155.959 113.192 174.666 112.913C181.734 112.612 186.476 111.989 189.673 111.222C189.032 112.172 188.213 113.19 187.175 114.218C183.285 118.042 175.399 122.742 159.905 123.41C110.035 125.546 96.1061 119.017 95.111 93.0361C94.337 73.013 103.424 63.886 108.377 60.4282C107.904 63.1648 107.603 65.9341 107.439 68.7058C107.331 70.6534 107.284 72.6109 107.314 74.556C107.341 76.5085 107.434 78.4535 107.635 80.391C107.52 76.4959 107.678 72.6109 108.058 68.7586C108.432 64.8987 109.053 61.074 109.995 57.3499C110.955 53.6357 112.214 49.9995 113.983 46.6573C114.87 44.9937 115.86 43.3855 116.996 41.9079C118.137 40.4353 119.411 39.0833 120.806 37.8972C123.6 35.5049 126.915 33.8463 130.42 32.9593C132.172 32.5019 133.969 32.2381 135.78 32.12C137.587 32.0169 139.404 32.0421 141.196 32.2682C142.993 32.4944 144.759 32.9442 146.448 33.6076C146.88 33.7609 147.285 33.972 147.702 34.1554C147.913 34.2384 148.109 34.3615 148.31 34.467C148.516 34.5701 148.725 34.6706 148.918 34.7887C149.305 35.0299 149.71 35.2461 150.082 35.5175C150.275 35.6456 150.466 35.7713 150.652 35.9095L151.205 36.3291C152.665 37.4625 153.972 38.8245 155.095 40.3473C155.658 41.1087 156.168 41.9154 156.62 42.7547C156.789 43.0563 156.949 43.3679 157.103 43.6795C157.364 44.2298 157.603 44.7877 157.804 45.3657C157.284 43.4985 156.424 41.7445 155.376 40.1312C154.904 39.4025 154.374 38.7039 153.813 38.043C154.019 37.7816 154.258 37.5027 154.534 37.2137C156.645 34.9948 160.905 32.0848 168.936 31.738C179.267 31.2982 182.87 39.1135 184.107 43.8227C184.162 44.0313 184.21 44.2323 184.255 44.4258C181.812 43.9484 178.867 43.7046 175.314 43.8579C165.031 44.2977 160.314 46.5065 158.329 47.9113C158.08 47.6675 157.826 47.4313 157.565 47.2051C156.882 46.6121 156.158 46.0718 155.409 45.5893C154.65 45.1144 153.866 44.6947 153.064 44.3228C149.84 42.8477 146.332 42.2722 142.889 42.2421C142.023 42.232 141.156 42.2672 140.301 42.3175C139.434 42.3702 138.575 42.4758 137.723 42.6039C136.871 42.7472 136.024 42.9055 135.182 43.1191C134.345 43.3302 133.516 43.5739 132.697 43.8554C131.064 44.4233 129.473 45.1244 127.95 45.9688C126.648 46.7051 125.389 47.5243 124.223 48.4943L124.088 48.5973L123.894 48.7581C123.856 48.7883 123.824 48.8184 123.786 48.8486C123.821 48.8235 123.856 48.7958 123.894 48.7631C125.173 47.7253 126.581 46.8709 128.018 46.1195C129.556 45.3255 131.154 44.6821 132.787 44.172C133.607 43.9207 134.436 43.7071 135.268 43.5262C136.102 43.3478 136.939 43.2096 137.783 43.1015C138.63 43.0035 139.477 42.9281 140.324 42.903C141.176 42.8829 142.023 42.8728 142.869 42.913C146.254 43.0512 149.639 43.7348 152.672 45.24C153.426 45.622 154.16 46.0391 154.861 46.5141C155.56 46.994 156.223 47.5218 156.846 48.0947C156.932 48.1726 157.015 48.253 157.1 48.3385C157.545 48.7632 157.967 49.218 158.354 49.698C157.779 49.6 157.203 49.5195 156.628 49.4617C155.64 49.3713 154.658 49.3185 153.675 49.3286C152.692 49.3386 151.71 49.3763 150.73 49.4768C148.777 49.6502 146.84 49.997 144.935 50.4946C143.99 50.7509 143.045 51.0348 142.115 51.3816C141.191 51.7133 140.276 52.0978 139.381 52.5225L138.713 52.8542L138.062 53.1985C137.63 53.4272 137.2 53.6584 136.77 53.8971C135.909 54.367 135.052 54.847 134.202 55.3244C130.797 57.272 127.44 59.2974 124.143 61.4309C127.588 59.5788 131.033 57.7293 134.506 55.9527C135.373 55.5079 136.243 55.0656 137.117 54.6359C137.552 54.4173 137.987 54.2062 138.427 53.9951C138.861 53.784 139.301 53.5805 139.736 53.3819C140.61 52.9975 141.507 52.6456 142.417 52.3541C143.322 52.0476 144.249 51.8013 145.174 51.5802C148.694 50.7433 152.341 50.4217 155.919 50.7107C156.118 50.7258 156.309 50.7383 156.505 50.7584C157.442 50.8615 158.372 51.0147 159.289 51.2233C159.342 51.2384 159.397 51.2459 159.45 51.266C159.9 51.3766 160.339 51.4997 160.774 51.648C161.171 51.7812 161.561 51.9345 161.945 52.1028C162.787 52.4848 163.589 52.9472 164.252 53.5503C164.92 54.1484 165.441 54.8847 165.702 55.719L165.833 56.1462C157.145 52.1632 144.342 52.7813 136.434 57.8851C127.739 63.489 123 64.3987 122.954 64.4037L121.228 64.7103L122.741 65.6476C123.133 65.8913 123.55 66.0924 123.982 66.2607L124.06 66.2959C126.128 67.1001 128.51 67.1805 130.073 67.1101H130.094C130.93 67.0749 131.74 67.4117 132.325 68.0474C134.441 70.3744 139.879 74.5761 151.263 74.0911C159.58 73.7292 163.976 71.3545 166.3 68.8767C166.423 69.1054 166.511 69.3366 166.576 69.5678C166.692 70.0126 166.712 70.4624 166.576 70.8871C166.451 71.3067 166.197 71.7088 165.865 72.0631C165.684 72.2315 165.516 72.4074 165.307 72.5531C165.204 72.626 165.111 72.7115 165.003 72.7793L164.679 72.9879C163.805 73.5257 162.817 73.9126 161.809 74.2318C161.304 74.4052 160.789 74.5283 160.274 74.664C159.754 74.7871 159.236 74.9053 158.711 75.0083C156.61 75.4129 154.474 75.6541 152.333 75.825C150.185 75.9984 148.044 76.0763 145.902 75.9582C143.761 75.8476 141.628 75.5636 139.53 75.0837C137.849 74.7017 136.185 74.3172 134.577 73.6664L130.943 72.0732C131.704 72.5255 132.483 72.9401 133.272 73.3271C135.248 74.272 137.308 75.0334 139.424 75.5762C141.535 76.1165 143.694 76.4608 145.86 76.6291C148.031 76.8025 150.217 76.7774 152.381 76.6643C154.547 76.5462 156.713 76.3577 158.872 76.0034C158.997 75.9833 159.116 75.9582 159.236 75.9381C159.161 76.0914 159.08 76.2497 158.992 76.3979C158.731 76.8427 158.432 77.2649 158.09 77.662C157.412 78.4535 156.61 79.1496 155.746 79.7477C154.884 80.3508 153.954 80.8584 152.984 81.2931C152.019 81.7229 151.026 82.1048 150.001 82.4014C147.971 83.022 145.862 83.399 143.749 83.6503C141.628 83.8991 139.489 84.0071 137.353 84.0222C139.489 84.1152 141.633 84.1252 143.777 83.987C145.915 83.8438 148.059 83.5774 150.162 83.0547C151.22 82.8059 152.26 82.4717 153.28 82.0747C154.301 81.6801 155.303 81.1951 156.251 80.6071C157.201 80.0141 158.105 79.3129 158.899 78.4661C159.299 78.0464 159.666 77.5866 159.99 77.0865C160.153 76.8352 160.302 76.5738 160.445 76.2974C160.515 76.1592 160.581 76.021 160.641 75.8702C160.669 75.7974 160.696 75.722 160.726 75.6441C160.726 75.6441 160.729 75.639 160.729 75.634C161.184 75.526 161.633 75.4229 162.083 75.2847C162.088 75.2847 162.093 75.2797 162.098 75.2797C163.161 74.9731 164.222 74.5937 165.23 74.0107L165.609 73.782C165.732 73.7091 165.848 73.6086 165.973 73.5256C166.217 73.3648 166.443 73.1412 166.667 72.9376C167.107 72.4928 167.494 71.94 167.71 71.2816C167.941 70.6207 167.926 69.8844 167.77 69.226C167.685 68.8993 167.574 68.5877 167.428 68.2912C167.358 68.148 167.28 68.0047 167.195 67.8665C167.185 67.8514 167.175 67.8364 167.167 67.8213C167.205 67.7685 167.245 67.7107 167.285 67.6579C169.964 69.995 175.349 73.0206 185.104 72.5984C192.299 72.2918 196.563 70.4749 199.086 68.3842C199.044 68.6129 198.996 68.839 198.941 69.0576C198.76 69.7939 198.501 70.5101 198.182 71.1962C197.86 71.8847 197.476 72.5356 197.041 73.1537C196.601 73.7669 196.103 74.3348 195.576 74.8676C194.493 75.9255 193.254 76.795 191.924 77.5062C191.264 77.8504 190.588 78.162 189.894 78.4334Z" fill="black"/>
</g>
<defs>
<clipPath id="clip0_741_46">
<rect width="256" height="256" fill="white"/>
</clipPath>
</defs>
</svg>
