<svg width="256" height="256" viewBox="0 0 256 256" fill="none" xmlns="http://www.w3.org/2000/svg">
<g clip-path="url(#clip0_1957_3201)">
<path d="M256 128C256 57.3075 198.692 0 128 0C57.3075 0 0 57.3075 0 128C0 198.692 57.3075 256 128 256C198.692 256 256 198.692 256 128Z" fill="#004EF5"/>
<path d="M98.0901 136.976V135.574H96.6874H78.735H77.3326V136.976V163.905V165.308H78.735H96.6874H98.0901V163.905V136.976ZM113.237 163.905V165.308H114.64H143.757V180.455H53.209V165.308H60.7825H62.1852V163.905V92.0951V90.6927H60.7825H53.209V75.5453H89.8993V90.6927H78.735H77.3326V92.0951V119.024V120.426H78.735H96.6874H98.0901V119.024V56.1902V54.7878H96.6874H89.1139V39.6401H158.94L167.095 47.7949V74.1426V75.5453H168.497H194.845L203 83.6996V118.443L194.434 127.008L193.443 128L194.434 128.992L203 137.557V172.3L194.845 180.455H168.497H167.095V181.857V208.205L158.94 216.36H89.1139V201.212H96.6874H98.0901V199.81V188.646H113.237V199.81V201.212H114.64H150.545H151.947V199.81V136.976V135.574H150.545H114.64H113.237V136.976V163.905ZM150.545 75.5453H151.947V74.1426V56.1902V54.7878H150.545H114.64H113.237V56.1902V74.1426V75.5453H114.64H150.545ZM150.545 120.426H151.947V119.024V98.8835H167.095V118.443L158.529 127.008L157.538 128L158.529 128.992L167.095 137.557V163.905V165.308H168.497H186.45H187.852V163.905V136.976V135.574H186.45H178.054L170.481 128L178.054 120.426H186.45H187.852V119.024V92.0951V90.6927H186.45H114.64H113.237V92.0951V119.024V120.426H114.64H150.545Z" fill="white"/>
<path d="M98.0901 136.976V135.574H96.6874H78.735H77.3326V136.976V163.905V165.308H78.735H96.6874H98.0901V163.905V136.976ZM113.237 163.905V165.308H114.64H143.757V180.455H53.209V165.308H60.7825H62.1852V163.905V92.0951V90.6927H60.7825H53.209V75.5453H89.8993V90.6927H78.735H77.3326V92.0951V119.024V120.426H78.735H96.6874H98.0901V119.024V56.1902V54.7878H96.6874H89.1139V39.6401H158.94L167.095 47.7949V74.1426V75.5453H168.497H194.845L203 83.6996V118.443L194.434 127.008L193.443 128L194.434 128.992L203 137.557V172.3L194.845 180.455H168.497H167.095V181.857V208.205L158.94 216.36H89.1139V201.212H96.6874H98.0901V199.81V188.646H113.237V199.81V201.212H114.64H150.545H151.947V199.81V136.976V135.574H150.545H114.64H113.237V136.976V163.905ZM150.545 75.5453H151.947V74.1426V56.1902V54.7878H150.545H114.64H113.237V56.1902V74.1426V75.5453H114.64H150.545ZM150.545 120.426H151.947V119.024V98.8835H167.095V118.443L158.529 127.008L157.538 128L158.529 128.992L167.095 137.557V163.905V165.308H168.497H186.45H187.852V163.905V136.976V135.574H186.45H178.054L170.481 128L178.054 120.426H186.45H187.852V119.024V92.0951V90.6927H186.45H114.64H113.237V92.0951V119.024V120.426H114.64H150.545Z" fill="url(#paint0_linear_1957_3201)"/>
<path d="M98.0901 136.976V135.574H96.6874H78.735H77.3326V136.976V163.905V165.308H78.735H96.6874H98.0901V163.905V136.976ZM113.237 163.905V165.308H114.64H143.757V180.455H53.209V165.308H60.7825H62.1852V163.905V92.0951V90.6927H60.7825H53.209V75.5453H89.8993V90.6927H78.735H77.3326V92.0951V119.024V120.426H78.735H96.6874H98.0901V119.024V56.1902V54.7878H96.6874H89.1139V39.6401H158.94L167.095 47.7949V74.1426V75.5453H168.497H194.845L203 83.6996V118.443L194.434 127.008L193.443 128L194.434 128.992L203 137.557V172.3L194.845 180.455H168.497H167.095V181.857V208.205L158.94 216.36H89.1139V201.212H96.6874H98.0901V199.81V188.646H113.237V199.81V201.212H114.64H150.545H151.947V199.81V136.976V135.574H150.545H114.64H113.237V136.976V163.905ZM150.545 75.5453H151.947V74.1426V56.1902V54.7878H150.545H114.64H113.237V56.1902V74.1426V75.5453H114.64H150.545ZM150.545 120.426H151.947V119.024V98.8835H167.095V118.443L158.529 127.008L157.538 128L158.529 128.992L167.095 137.557V163.905V165.308H168.497H186.45H187.852V163.905V136.976V135.574H186.45H178.054L170.481 128L178.054 120.426H186.45H187.852V119.024V92.0951V90.6927H186.45H114.64H113.237V92.0951V119.024V120.426H114.64H150.545Z" stroke="url(#paint1_linear_1957_3201)"/>
</g>
<defs>
<linearGradient id="paint0_linear_1957_3201" x1="128.104" y1="-8.00328" x2="128.104" y2="217.762" gradientUnits="userSpaceOnUse">
<stop offset="0.097572" stop-opacity="0"/>
<stop offset="0.403522" stop-color="#E7EEF9"/>
<stop offset="0.83494" stop-color="#D0DDF0"/>
</linearGradient>
<linearGradient id="paint1_linear_1957_3201" x1="128.104" y1="38.2377" x2="128.104" y2="217.762" gradientUnits="userSpaceOnUse">
<stop offset="0.119792" stop-color="white"/>
<stop offset="0.84342" stop-color="#CDDEF2"/>
</linearGradient>
<clipPath id="clip0_1957_3201">
<rect width="256" height="256" fill="white"/>
</clipPath>
</defs>
</svg>
