<svg width="256" height="256" viewBox="0 0 256 256" fill="none" xmlns="http://www.w3.org/2000/svg">
<circle cx="126" cy="128" r="125" fill="#00C805"/>
<path d="M166.327 118C171.396 122.447 174.229 127.382 174.229 132.583C174.229 151.878 135.296 167.506 87.2669 167.506C71.1093 167.506 55.9701 165.728 43 162.638C56.7448 174.665 86.9789 183 122.038 183C170.068 183 209 167.35 209 148.077C209.022 135.273 191.869 124.091 166.327 118Z" fill="#090909"/>
<path d="M154.003 72C158.282 75.6783 160.679 79.7774 160.679 84.0983C160.679 100.119 127.84 113.126 87.341 113.126C73.6993 113.126 60.9536 111.641 50 109.093C61.6032 119.064 87.0722 126 116.663 126C157.162 126 190 113.015 190 96.9728C190 86.3368 175.552 77.0521 154.003 72Z" fill="#090909"/>
</svg>
