<svg width="256" height="256" viewBox="0 0 256 256" fill="none" xmlns="http://www.w3.org/2000/svg">
<g clip-path="url(#clip0_1851_2386)">
<path d="M115.419 122.69C115.419 123.289 115.368 122.192 115.419 122.69Z" fill="url(#paint0_linear_1851_2386)"/>
<path d="M13.7803 176.757C14.1572 177.605 14.5449 178.449 14.9432 179.288C14.541 178.446 14.1826 177.627 13.7803 176.757ZM113.13 126.822C113.126 126.91 113.126 126.998 113.13 127.086V128.139C113.247 127.846 113.364 127.554 113.496 127.276C113.642 126.983 113.496 126.464 113.496 126.069C113.361 126.313 113.239 126.565 113.13 126.822Z" fill="url(#paint1_linear_1851_2386)"/>
<path d="M113.533 126.098V127.305C113.398 127.588 113.274 127.876 113.16 128.168V127.51V127.115C113.155 127.027 113.155 126.939 113.16 126.852C113.268 126.594 113.39 126.343 113.525 126.098H113.533Z" fill="url(#paint2_linear_1851_2386)"/>
<path d="M135.212 42.6129C87.6254 42.6129 52.2462 81.0129 56.269 128.373C58.9314 159.956 86.7111 185.549 118.323 185.549C149.936 185.549 173.473 159.949 170.913 128.373C169.626 112.589 155.743 99.7886 139.901 99.7886C124.716 99.7886 113.73 109.1 113.54 126.098V127.305L113.796 126.793L114.067 126.303C114.14 126.149 114.242 126.01 114.33 125.864C114.622 125.396 114.952 124.942 115.31 124.518L115.676 124.109L116.041 123.714L116.429 123.333C116.685 123.099 116.941 122.865 117.219 122.653C118.089 121.973 119.026 121.388 120.013 120.898L120.51 120.671L121.022 120.451L121.439 120.283C122.157 120.009 122.892 119.784 123.641 119.61L123.985 119.537C124.938 119.329 125.907 119.194 126.881 119.135H127.408C133.881 118.915 140.442 121.936 142.6 128.219C147.478 142.526 134.32 157.667 115.573 157.608C99.3209 157.557 85.0434 144.442 83.683 128.219C80.9767 95.7658 105.158 69.4563 137.779 69.4563C170.401 69.4563 198.905 95.7658 201.523 128.219C205.422 176.903 169.143 216.371 120.445 216.371C71.7314 216.371 28.899 176.903 24.7883 128.219C19.2734 63.305 67.7378 10.6933 132.974 10.6933C181.395 10.6933 225.309 39.6579 246.835 81.1153C235.93 53.3709 215.679 30.3053 189.579 15.9011C163.487 1.49859 133.18 -3.32733 103.904 2.25872C74.6288 7.84478 48.228 23.4912 29.272 46.4894C10.2968 69.4938 -0.0555987 98.3989 0.000224585 128.219C0.000224585 132.374 0.19771 136.484 0.585367 140.529C3.02468 153.247 7.47908 165.494 13.7803 176.808C35.3209 215.771 77.2244 242.776 123.027 242.776C186.156 242.776 233.238 191.568 228.199 128.461C224.41 81.0129 182.777 42.6129 135.212 42.6129ZM115.456 122.734C115.456 123.289 115.398 122.2 115.456 122.734Z" fill="white"/>
<path d="M14.9431 179.288C13.8619 177.301 12.8423 175.281 11.8857 173.231C12.4843 174.425 13.1184 175.601 13.7875 176.757C14.1824 177.627 14.5408 178.439 14.9431 179.288Z" fill="url(#paint3_linear_1851_2386)"/>
<path d="M113.533 126.098V127.305C113.398 127.588 113.274 127.876 113.16 128.168V127.51V127.115C113.155 127.027 113.155 126.939 113.16 126.852C113.268 126.594 113.39 126.343 113.525 126.098H113.533Z" fill="url(#paint4_linear_1851_2386)"/>
<path d="M246.835 81.0714C225.302 39.5994 181.445 10.6494 132.974 10.6494C67.7156 10.6494 19.273 63.2611 24.7953 128.168C28.9206 176.852 71.753 216.327 120.444 216.327C169.128 216.327 205.436 176.852 201.523 128.168C198.905 95.7146 170.364 69.4051 137.779 69.4051C105.194 69.4051 80.969 95.7146 83.6826 128.168C85.0431 144.398 99.2986 157.484 115.573 157.557C134.319 157.615 147.5 142.475 142.599 128.168C140.442 121.885 133.881 118.872 127.407 119.084H126.881C125.906 119.143 124.938 119.277 123.984 119.486L123.641 119.559L123.107 119.705C122.542 119.854 121.985 120.032 121.439 120.239L121.015 120.4L120.503 120.62L120.013 120.854C119.023 121.337 118.086 121.923 117.219 122.602C116.955 122.821 116.685 123.048 116.429 123.282L116.041 123.662L115.668 124.057L115.302 124.467C114.951 124.891 114.629 125.345 114.329 125.813L114.066 126.252L113.796 126.742L113.54 127.254C113.408 127.532 113.291 127.832 113.174 128.124V127.459V126.208V126.8C113.291 126.544 113.423 126.288 113.569 126.047C113.737 109.048 124.723 99.7374 139.922 99.7374C155.772 99.7374 169.655 112.537 170.935 128.329C173.509 159.905 149.957 185.497 118.352 185.497C86.7473 185.497 58.9604 159.897 56.298 128.329C52.3117 80.9616 87.6543 42.5616 135.241 42.5616C182.82 42.5616 224.468 80.9616 228.249 128.329C233.296 191.466 186.214 242.637 123.085 242.637C77.2168 242.637 35.3864 215.632 13.8385 176.662C14.2189 177.518 14.5992 178.359 15.0015 179.2C13.8982 177.175 12.859 175.117 11.8856 173.027C6.60604 162.737 2.82059 151.748 0.643555 140.39C2.44949 158.586 8.13077 176.184 17.3053 192.001C26.4799 207.818 38.935 221.488 53.833 232.089C76.2796 248.046 103.28 256.325 130.813 255.692C158.346 255.06 184.939 245.55 206.628 228.579C221.032 217.31 232.852 203.084 241.293 186.861C249.734 170.638 254.599 152.794 255.561 134.531C256.528 116.268 253.572 98.0095 246.894 80.9836L246.835 81.0714ZM120.766 105.867C121.366 105.282 121.995 104.733 122.66 104.221C122.002 104.74 121.373 105.326 120.766 105.867Z" fill="url(#paint5_linear_1851_2386)"/>
<path d="M14.9431 179.288C13.8619 177.301 12.8423 175.281 11.8857 173.231C12.4843 174.425 13.1184 175.601 13.7875 176.757C14.1824 177.627 14.5408 178.439 14.9431 179.288ZM115.427 122.69C115.427 123.289 115.361 122.192 115.427 122.69Z" fill="#FF8080"/>
</g>
<defs>
<linearGradient id="paint0_linear_1851_2386" x1="115.302" y1="122.602" x2="115.5" y2="122.836" gradientUnits="userSpaceOnUse">
<stop stop-color="#C90202"/>
<stop offset="0.37" stop-color="#C90202"/>
<stop offset="1" stop-color="#820202"/>
</linearGradient>
<linearGradient id="paint1_linear_1851_2386" x1="168001" y1="26615.5" x2="168892" y2="28663.6" gradientUnits="userSpaceOnUse">
<stop stop-color="#C90202"/>
<stop offset="0.37" stop-color="#C90202"/>
<stop offset="1" stop-color="#820202"/>
</linearGradient>
<linearGradient id="paint2_linear_1851_2386" x1="112.845" y1="126.53" x2="113.832" y2="127.722" gradientUnits="userSpaceOnUse">
<stop stop-color="#B50202"/>
<stop offset="0.98" stop-color="#780202"/>
</linearGradient>
<linearGradient id="paint3_linear_1851_2386" x1="4932.56" y1="3411.53" x2="4959.58" y2="3427.94" gradientUnits="userSpaceOnUse">
<stop stop-color="#B50202"/>
<stop offset="0.98" stop-color="#780202"/>
</linearGradient>
<linearGradient id="paint4_linear_1851_2386" x1="112.845" y1="126.53" x2="113.832" y2="127.722" gradientUnits="userSpaceOnUse">
<stop stop-color="#B50202"/>
<stop offset="0.98" stop-color="#780202"/>
</linearGradient>
<linearGradient id="paint5_linear_1851_2386" x1="0.643555" y1="10.6494" x2="255.181" y2="13.6263" gradientUnits="userSpaceOnUse">
<stop stop-color="#6458ED"/>
<stop offset="0.49" stop-color="#4E5CF4"/>
<stop offset="1" stop-color="#018EDD"/>
</linearGradient>
<clipPath id="clip0_1851_2386">
<rect width="256" height="256" fill="white"/>
</clipPath>
</defs>
</svg>
