<svg width="256" height="256" viewBox="0 0 256 256" fill="none" xmlns="http://www.w3.org/2000/svg">
<g clip-path="url(#clip0_2546_1860)">
<path d="M128.001 253.882C197.531 253.882 253.896 197.521 253.896 127.997C253.896 58.4716 197.531 2.1106 128.001 2.1106C58.4707 2.1106 2.10547 58.4716 2.10547 127.997C2.10547 197.521 58.4707 253.882 128.001 253.882Z" fill="#F5EEE4"/>
<path d="M127.944 256C57.3008 255.95 -0.171729 198.674 -0.000595366 127.642C0.170539 57.2328 57.3341 -0.204584 128.417 -0.000188591C198.841 0.204206 256.054 57.3183 255.999 128.115C255.945 198.769 198.705 255.993 127.944 256ZM13.0317 128.046C13.6473 159.38 24.4098 186.648 46.7166 209.013C68.9546 231.306 96.0698 242.659 127.442 242.804C159.04 242.949 186.421 231.741 208.911 209.379C231.401 187.016 242.751 159.782 242.813 128.229C242.874 96.6311 231.577 69.2873 209.159 46.8562C186.866 24.5557 159.682 13.2546 128.262 13.1857C96.7995 13.1167 69.5535 24.3204 47.1302 46.5686C24.5833 68.9499 13.6806 96.3198 13.0317 128.046Z" fill="#C2BBAF"/>
<path d="M191.367 163.3C191.272 163.371 191.18 163.447 191.08 163.514C190.985 163.585 190.887 163.652 190.79 163.725C190.607 163.856 190.419 163.98 190.227 164.101C190.205 164.115 190.181 164.127 190.16 164.146C190.003 164.243 189.846 164.343 189.685 164.436C189.447 164.578 189.214 164.714 188.974 164.847C187.336 165.76 185.611 166.494 183.852 167.143C182.19 167.751 180.508 168.284 178.81 168.759C176.379 169.439 173.916 170.004 171.433 170.496C169.02 170.979 166.598 171.388 164.167 171.742C161.735 172.096 159.296 172.391 156.851 172.645C156.05 172.731 155.249 172.807 154.448 172.883C152.841 173.03 151.234 173.156 149.625 173.263C148.819 173.318 148.013 173.365 147.212 173.41C145.408 173.512 143.604 173.589 141.8 173.648C141.472 173.657 141.147 173.669 140.816 173.679C140.517 173.688 140.217 173.698 139.913 173.705C140.652 172.792 141.391 171.882 142.067 170.919C142.164 170.798 142.264 170.677 142.356 170.553C143.882 168.502 145.342 166.409 146.739 164.272C146.882 164.262 147.027 164.258 147.165 164.251C148.051 164.201 148.938 164.144 149.825 164.084C150.497 164.039 151.168 163.989 151.84 163.937C156.537 163.573 161.215 163.055 165.871 162.325C167.228 162.114 168.576 161.883 169.919 161.636C173.061 161.054 176.177 160.355 179.248 159.478C179.923 159.286 180.595 159.084 181.266 158.874C181.601 158.767 181.938 158.661 182.274 158.549C182.78 158.639 183.241 158.848 183.716 159.024C184.132 159.176 184.548 159.338 184.967 159.504C186.143 159.97 187.298 160.486 188.418 161.08C188.86 161.313 189.295 161.56 189.725 161.819C190.293 162.164 190.849 162.527 191.367 162.943C191.52 163.065 191.565 163.114 191.505 163.186C191.479 163.221 191.434 163.257 191.363 163.312L191.372 163.302L191.367 163.3Z" fill="#ECECEC"/>
<path d="M147.843 184.925C147.748 184.982 147.645 184.982 147.548 184.947C147.574 184.928 147.598 184.92 147.619 184.911C147.66 184.897 147.695 184.897 147.736 184.897C147.771 184.897 147.812 184.906 147.847 184.923H147.843V184.925Z" fill="#8F8F8F"/>
<path d="M147.445 184.949C147.324 185.004 147.203 185.006 147.074 184.97C147.195 184.899 147.321 184.909 147.445 184.949Z" fill="#8F8F8F"/>
<path d="M146.97 184.97C146.849 185.025 146.728 185.027 146.6 184.992C146.721 184.916 146.842 184.925 146.97 184.97Z" fill="#8F8F8F"/>
<path d="M146.495 184.994C146.374 185.051 146.253 185.051 146.129 185.013C146.129 185.013 146.138 185.013 146.143 185.008C146.26 184.951 146.381 184.951 146.497 184.994H146.495Z" fill="#8F8F8F"/>
<path d="M145.77 184.99C145.85 184.971 145.936 184.98 146.019 185.011C145.898 185.068 145.772 185.068 145.648 185.032C145.689 185.011 145.729 184.997 145.77 184.987V184.99Z" fill="#8F8F8F"/>
<path d="M145.354 184.999C145.416 184.999 145.48 185.013 145.547 185.03C145.425 185.084 145.304 185.087 145.181 185.049C145.238 185.013 145.297 184.999 145.354 184.994V184.999Z" fill="#8F8F8F"/>
<path d="M144.983 185.03C145.014 185.035 145.04 185.044 145.068 185.051C144.952 185.106 144.826 185.108 144.702 185.073C144.788 185.018 144.876 185.011 144.966 185.027H144.985L144.983 185.03Z" fill="#8F8F8F"/>
<path d="M144.593 185.075C144.45 185.137 144.303 185.132 144.153 185.094C144.296 185.028 144.443 185.032 144.593 185.075Z" fill="#8F8F8F"/>
<path d="M144.047 185.092C143.925 185.153 143.804 185.146 143.681 185.111C143.797 185.044 143.923 185.044 144.047 185.092Z" fill="#8F8F8F"/>
<path d="M175.457 156.517C175.514 156.526 175.583 156.526 175.645 156.536C175.725 156.545 175.806 156.567 175.868 156.633C175.702 156.619 175.54 156.583 175.397 156.502C175.407 156.502 175.419 156.502 175.428 156.507C175.438 156.507 175.447 156.507 175.459 156.512L175.455 156.517H175.457Z" fill="#8F8F8F"/>
<path d="M107.274 196.001C107.288 196.027 107.3 196.055 107.31 196.077L104.812 196.086L104.852 196.005H107.269L107.274 196.001Z" fill="#757575"/>
<path d="M182.285 158.547C181.95 158.658 181.617 158.765 181.277 158.872C180.605 159.084 179.934 159.283 179.259 159.476C176.184 160.353 173.072 161.052 169.93 161.634C168.587 161.883 167.235 162.114 165.882 162.323C161.226 163.053 156.548 163.573 151.852 163.934C151.179 163.989 150.509 164.037 149.836 164.082C148.95 164.139 148.063 164.198 147.176 164.248C147.034 164.258 146.894 164.262 146.751 164.27C147.714 162.796 148.65 161.306 149.553 159.792C150.861 157.608 152.111 155.39 153.297 153.144C155.562 153.342 157.822 153.57 160.083 153.848C160.249 153.867 160.413 153.902 160.584 153.929C161.597 154 162.6 154.152 163.598 154.299C164.884 154.487 166.168 154.694 167.449 154.908C169.177 155.198 170.905 155.521 172.621 155.892C173.548 156.094 174.47 156.298 175.397 156.5C175.544 156.581 175.701 156.612 175.868 156.631C177.847 157.137 179.82 157.67 181.76 158.309C181.938 158.366 182.145 158.385 182.283 158.537L182.287 158.542L182.285 158.547Z" fill="#C4C4C4"/>
<path d="M116.456 173.12C117.252 173.182 118.053 173.246 118.852 173.299C118.051 173.244 117.255 173.182 116.456 173.12Z" fill="#ECECEC"/>
<path d="M90.8958 190.96C90.8337 190.96 90.7788 190.941 90.7383 190.893H90.7788C90.7788 190.893 90.7932 190.898 90.8003 190.898C90.8051 190.898 90.8146 190.898 90.8194 190.903C90.829 190.903 90.8385 190.912 90.8457 190.917C90.8457 190.917 90.8552 190.917 90.86 190.922L90.8862 190.948H90.891L90.8958 190.962V190.96Z" fill="#494949"/>
<path d="M90.7415 190.893C90.6794 190.893 90.6198 190.879 90.584 190.822H90.6341C90.6747 190.831 90.7105 190.848 90.7367 190.889V190.893H90.7415Z" fill="#494949"/>
<path d="M90.5842 190.822C90.5174 190.822 90.453 190.817 90.4268 190.746V190.741H90.4315C90.4936 190.741 90.5532 190.755 90.5842 190.817V190.822Z" fill="#494949"/>
<path d="M90.4271 190.737V190.746C90.3651 190.746 90.2959 190.756 90.2744 190.67V190.66C90.3412 190.651 90.4009 190.665 90.4319 190.737H90.4271Z" fill="#494949"/>
<path d="M89.8137 190.346C89.8589 190.377 89.9111 190.401 89.9611 190.422C89.9967 190.442 90.0324 190.453 90.068 190.472C90.1298 190.503 90.1892 190.544 90.2296 190.603C90.2439 190.622 90.2558 190.648 90.2701 190.674C90.0585 190.655 89.8755 190.572 89.7139 190.437L89.8113 190.346H89.8137Z" fill="#494949"/>
<path d="M104.17 183.601C103.996 183.628 103.82 183.656 103.652 183.682C102.979 183.773 102.309 183.825 101.634 183.844C101.41 183.849 101.182 183.853 100.959 183.849C100.731 183.849 100.507 183.839 100.279 183.83C100.181 183.825 100.086 183.811 99.9889 183.803C99.8939 183.794 99.7964 183.782 99.699 183.773C99.573 183.763 99.4803 183.711 99.3852 183.63C99.1166 183.388 98.8623 183.138 98.6104 182.879C100.464 183.147 102.318 183.39 104.175 183.609V183.604L104.17 183.601Z" fill="#ECECEC"/>
<path d="M133.334 152.305C132.001 152.305 130.665 152.324 129.331 152.346C127.111 155.787 124.716 159.11 122.101 162.266C121.55 162.929 120.996 163.583 120.428 164.227C118.994 165.86 117.499 167.438 115.933 168.94C114.559 170.256 113.14 171.514 111.657 172.695C110.502 173.622 109.306 174.504 108.066 175.324C105.782 176.838 103.388 178.14 100.809 179.088C99.5018 179.568 98.1684 179.956 96.7898 180.184C96.7138 180.198 96.6425 180.229 96.5664 180.25C96.5712 180.272 96.5807 180.3 96.5854 180.322C96.5902 180.336 96.5949 180.348 96.6044 180.362C96.7019 180.514 96.8017 180.662 96.9039 180.804C97.1107 181.099 97.3246 181.386 97.5433 181.665C97.8737 182.08 98.2278 182.485 98.601 182.87C100.455 183.138 102.309 183.381 104.165 183.599C104.662 183.523 105.154 183.426 105.644 183.309C106.777 183.041 107.878 182.687 108.957 182.271C109.494 182.059 110.027 181.836 110.552 181.596C111.077 181.356 111.595 181.099 112.109 180.826C112.332 180.709 112.551 180.588 112.777 180.467C114.317 179.621 115.795 178.672 117.209 177.65C118.628 176.626 119.99 175.523 121.31 174.368C121.497 174.202 121.685 174.038 121.873 173.867C122.011 173.741 122.146 173.617 122.289 173.486C123.135 172.712 123.967 171.915 124.777 171.1C125.091 170.782 125.4 170.466 125.709 170.138C126.726 169.073 127.715 167.984 128.678 166.87C129.255 166.202 129.819 165.522 130.375 164.838C130.441 164.757 130.51 164.671 130.577 164.588C130.957 164.113 131.333 163.635 131.711 163.15C132.887 161.629 134.021 160.075 135.114 158.489C135.706 157.629 136.284 156.766 136.852 155.894C137.17 155.402 137.484 154.91 137.793 154.416C138.219 153.741 138.634 153.054 139.046 152.37C137.142 152.324 135.245 152.303 133.341 152.303L133.334 152.305Z" fill="#ECECEC"/>
<path d="M82.5481 187.236C82.4861 187.25 82.436 187.231 82.4121 187.164C82.4789 187.15 82.529 187.164 82.5481 187.236Z" fill="#8C8C8C"/>
<path d="M122.025 152.583C121.071 152.628 120.118 152.681 119.168 152.74C118.124 154.218 117.045 155.673 115.918 157.092C114.813 158.489 113.679 159.858 112.489 161.187C111.814 161.938 111.131 162.687 110.433 163.421C109.941 163.939 109.439 164.455 108.923 164.956C106.877 166.957 104.733 168.847 102.427 170.551C102.042 170.834 101.657 171.11 101.263 171.383C99.9697 172.284 98.6291 173.115 97.2387 173.862C96.2309 174.408 95.1922 174.891 94.1416 175.335C94.1511 175.385 94.1416 175.437 94.163 175.487C94.3104 175.894 94.4672 176.293 94.6384 176.692C94.8048 177.092 94.983 177.481 95.1708 177.864C95.5463 178.634 95.967 179.385 96.4234 180.12L96.4329 180.129C96.4638 180.174 96.5185 180.215 96.5589 180.255C96.6349 180.234 96.7062 180.2 96.7823 180.188C98.1561 179.96 99.4919 179.571 100.802 179.093C103.38 178.149 105.776 176.842 108.058 175.328C109.299 174.508 110.494 173.626 111.65 172.7C113.13 171.514 114.552 170.256 115.926 168.944C117.497 167.44 118.987 165.864 120.42 164.231C120.988 163.587 121.544 162.934 122.094 162.271C124.708 159.114 127.104 155.792 129.324 152.35C126.888 152.395 124.449 152.467 122.017 152.588L122.022 152.583H122.025Z" fill="#C4C4C4"/>
<path d="M170.176 115.833C170.176 115.833 170.144 115.828 170.13 115.828C170.144 115.828 170.156 115.828 170.176 115.833Z" fill="#AEAEAE"/>
<path d="M169.912 115.937C169.988 115.937 170.074 115.937 170.024 115.816C170.059 115.816 170.095 115.825 170.135 115.83C170.114 115.83 170.095 115.835 170.081 115.844C170.05 115.866 170.05 115.916 170.059 115.975C170.009 115.975 169.962 115.97 169.912 115.966C169.886 115.966 169.855 115.961 169.826 115.956C169.769 115.951 169.705 115.942 169.648 115.937C169.513 115.918 169.375 115.892 169.244 115.861C169.472 115.847 169.691 115.928 169.917 115.942L169.912 115.937Z" fill="#AEAEAE"/>
<path d="M100.451 162.083C100.548 162.102 100.643 162.114 100.738 162.133C98.8723 163.937 96.9114 165.629 94.8198 167.178C94.0592 167.742 93.2986 168.307 92.4738 168.785C92.3217 168.127 92.2551 167.457 92.1791 166.784C91.92 164.645 91.8202 162.496 91.8154 160.345C92.3336 160.471 92.8541 160.593 93.377 160.711C94.903 161.061 96.4337 161.37 97.9715 161.653C98.7986 161.805 99.6282 161.947 100.455 162.088L100.451 162.083Z" fill="#ECECEC"/>
<path d="M108.998 153.608C108.779 153.634 108.555 153.653 108.33 153.674C106.126 156.476 103.776 159.15 101.225 161.653C101.064 161.814 100.897 161.971 100.738 162.128C100.814 162.142 100.89 162.154 100.961 162.168C100.885 162.154 100.814 162.142 100.738 162.133C98.8721 163.937 96.9112 165.629 94.8196 167.178C94.059 167.742 93.2984 168.307 92.4736 168.785C92.4831 168.875 92.4879 168.968 92.495 169.058C92.495 169.085 92.495 169.108 92.5045 169.134C92.5235 169.237 92.5449 169.341 92.5616 169.443C92.5758 169.529 92.5877 169.61 92.6067 169.693C92.6471 169.9 92.6876 170.109 92.728 170.32C92.9656 171.502 93.2461 172.671 93.6003 173.821C93.7619 174.337 93.8902 174.865 94.1517 175.347C95.2046 174.905 96.2433 174.42 97.2487 173.874C98.6416 173.123 99.9798 172.288 101.273 171.395C101.667 171.126 102.052 170.848 102.437 170.563C104.743 168.861 106.887 166.967 108.933 164.968C109.449 164.467 109.946 163.951 110.443 163.433C111.142 162.698 111.821 161.952 112.499 161.199C113.685 159.87 114.823 158.499 115.929 157.104C117.053 155.68 118.137 154.23 119.178 152.752C115.784 152.959 112.394 153.244 109.009 153.619L108.995 153.61L108.998 153.608Z" fill="#D6D6D6"/>
<path d="M100.962 162.166C100.885 162.152 100.814 162.14 100.737 162.13C100.814 162.145 100.89 162.157 100.962 162.166Z" fill="#ECECEC"/>
<path d="M100.738 162.126C100.643 162.112 100.545 162.095 100.45 162.076L100.738 162.121V162.126Z" fill="#575757"/>
<path d="M97.9668 161.648C98.7939 161.8 99.6235 161.943 100.451 162.083C99.6235 161.945 98.7892 161.8 97.9668 161.648Z" fill="#575757"/>
<path d="M106.875 153.886C107.355 153.784 107.842 153.729 108.33 153.679C106.126 156.481 103.776 159.155 101.225 161.657C101.064 161.819 100.897 161.976 100.738 162.133L100.45 162.088C99.6233 161.95 98.7938 161.805 97.9666 161.653C96.4312 161.37 94.8957 161.061 93.3721 160.712C92.854 160.59 92.3287 160.469 91.8105 160.346C91.8105 159.535 91.8201 158.72 91.8414 157.905C91.8557 157.422 91.8771 156.942 91.9032 156.462C93.6716 156.041 95.4543 155.671 97.2393 155.328C100.294 154.751 103.364 154.28 106.445 153.9C106.495 153.895 106.542 153.886 106.592 153.881C106.649 153.871 106.709 153.867 106.766 153.871C106.801 153.871 106.837 153.881 106.873 153.89V153.881L106.875 153.886Z" fill="#C4C4C4"/>
<path d="M161.336 114.758C163.119 114.977 164.904 115.193 166.686 115.412C166.677 115.431 166.665 115.448 166.646 115.467C165.541 115.331 164.431 115.203 163.323 115.06C163 115.02 162.679 114.994 162.356 114.958C162.032 114.922 161.711 114.887 161.393 114.822C161.374 114.801 161.357 114.782 161.336 114.765V114.761V114.758Z" fill="#676767"/>
<path d="M152.608 120.296C152.675 120.046 152.739 119.785 152.806 119.535C152.744 119.79 152.675 120.046 152.608 120.296Z" fill="#ECECEC"/>
<path d="M203.825 156.106V148.75C203.668 148.065 203.454 147.397 203.074 146.799C202.46 145.831 201.731 144.969 200.818 144.26C199.865 143.521 198.888 142.827 197.837 142.238C196.392 141.427 194.888 140.743 193.378 140.065C193.11 139.944 192.832 139.887 192.563 139.778C189.152 138.445 185.642 137.442 182.086 136.576C179.811 136.02 177.52 135.547 175.219 135.117C172.636 134.635 170.04 134.216 167.437 133.86C165.643 133.613 163.846 133.389 162.047 133.187C161.246 133.097 160.445 133.014 159.644 132.933C157.378 132.714 155.109 132.508 152.839 132.346C151.501 132.248 150.158 132.163 148.819 132.087C147.683 132.025 146.54 131.966 145.399 131.913C143.605 131.833 141.812 131.771 140.018 131.73C139.887 131.73 139.759 131.721 139.628 131.721C136.795 131.659 133.957 131.64 131.121 131.666H130.983C128.065 131.692 125.146 131.761 122.232 131.88C122.058 131.885 121.882 131.899 121.709 131.901C118.258 132.049 114.814 132.265 111.372 132.555C106.316 132.981 101.28 133.558 96.2717 134.345C96.1505 134.364 96.0341 134.385 95.9128 134.402C95.7203 135.081 95.5468 135.771 95.3044 136.439C95.1332 137.118 94.9645 137.8 94.7886 138.475C94.3275 140.279 93.9115 142.093 93.5479 143.918C93.8022 143.873 94.0589 143.832 94.3132 143.787C94.6483 143.73 94.9859 143.676 95.3162 143.616C95.813 143.535 96.3098 143.455 96.8065 143.374C98.6011 143.096 100.405 142.846 102.207 142.618C104.011 142.39 105.815 142.188 107.624 142.01C108.829 141.888 110.036 141.777 111.246 141.674C113.071 141.522 114.904 141.392 116.734 141.275C118.457 141.168 120.181 141.083 121.906 141.011C122.348 140.992 122.793 140.971 123.235 140.954C123.893 140.928 124.556 140.909 125.215 140.888C125.64 140.873 126.066 140.866 126.496 140.857C128.05 140.816 129.602 140.795 131.157 140.781C131.744 140.781 132.326 140.771 132.911 140.771C133.914 140.771 134.917 140.771 135.915 140.781C136.279 140.781 136.64 140.786 137.004 140.795C137.394 140.8 137.784 140.805 138.173 140.809C139.234 140.828 140.291 140.854 141.351 140.885C142.411 140.916 143.469 140.957 144.529 140.997C144.703 141.002 144.879 141.016 145.052 141.018C146.188 141.068 147.327 141.125 148.458 141.185C149.33 141.235 150.205 141.287 151.077 141.342C152.385 141.427 153.697 141.52 155.004 141.629C156.209 141.727 157.412 141.841 158.622 141.96C158.662 141.96 158.707 141.969 158.748 141.974C159.613 142.059 160.476 142.145 161.341 142.233C162.724 142.371 164.107 142.537 165.491 142.72C166.869 142.903 168.248 143.1 169.626 143.307C170.199 143.393 170.772 143.481 171.34 143.571C173.054 143.849 174.765 144.153 176.467 144.488C177.47 144.686 178.468 144.892 179.467 145.106C180.465 145.32 181.458 145.553 182.452 145.796C183.961 146.166 185.461 146.566 186.942 147.001C188.922 147.583 190.883 148.236 192.803 149.002C193.286 149.19 193.761 149.392 194.241 149.594C194.966 149.907 195.679 150.252 196.385 150.601C196.559 150.687 196.735 150.772 196.908 150.86C197.044 150.927 197.181 150.996 197.315 151.062C197.493 151.153 197.673 151.241 197.847 151.34C198.07 151.462 198.289 151.59 198.496 151.735C199.292 152.286 200.112 152.804 200.851 153.432C201.022 153.579 201.186 153.727 201.348 153.883C201.541 154.045 201.724 154.219 201.9 154.394C202.189 154.684 202.458 154.998 202.696 155.326C202.812 155.488 202.919 155.652 203.024 155.823C203.114 155.97 203.195 156.118 203.271 156.27C203.347 156.422 203.418 156.579 203.483 156.745C203.549 156.907 203.608 157.071 203.661 157.237C203.696 157.353 203.737 157.475 203.772 157.591C203.772 157.591 203.772 157.601 203.777 157.605V157.591C203.872 157.094 203.813 156.593 203.818 156.091L203.832 156.106H203.825Z" fill="#ECECEC"/>
<path d="M203.856 147.78C203.86 145.921 203.86 144.07 203.856 142.211C203.856 141.356 203.846 140.498 203.841 139.642C203.694 139.16 203.592 138.663 203.371 138.2C202.812 137.04 201.973 136.108 201.006 135.276C199.948 134.364 198.781 133.605 197.555 132.94C195.777 131.963 193.932 131.131 192.031 130.428C189.827 129.613 187.593 128.892 185.328 128.274C183.595 127.804 181.853 127.371 180.108 126.972C178.117 126.52 176.115 126.121 174.104 125.767C172.018 125.403 169.924 125.056 167.822 124.764C166.829 124.626 165.831 124.496 164.832 124.37C162.603 124.082 160.369 123.832 158.13 123.635C157.714 123.595 157.302 123.538 156.884 123.504C155.192 123.374 153.499 123.25 151.812 123.129C151.569 123.11 151.329 123.093 151.087 123.074C149.958 122.993 148.831 122.913 147.702 122.856C146.233 122.784 144.764 122.73 143.298 122.677H143.258C141.722 122.623 140.191 122.566 138.656 122.54C137.304 122.518 135.951 122.504 134.596 122.499C134 122.499 133.405 122.494 132.806 122.494C130.434 122.494 128.065 122.53 125.697 122.597H125.595C122.814 122.677 120.031 122.789 117.255 122.967C115.12 123.103 112.983 123.222 110.854 123.402C109.989 123.474 109.131 123.581 108.27 123.666C105.266 123.966 102.271 124.315 99.2856 124.736C99.2499 124.74 99.219 124.745 99.1834 124.75C97.9878 127.844 96.9135 130.977 95.9699 134.159C95.9485 134.24 95.9247 134.316 95.9033 134.397C96.0198 134.378 96.141 134.356 96.2622 134.34C101.273 133.551 106.309 132.971 111.362 132.55C114.804 132.263 118.248 132.044 121.699 131.897C121.873 131.887 122.049 131.878 122.222 131.875C125.136 131.754 128.055 131.687 130.974 131.661H131.112C133.95 131.64 136.783 131.657 139.619 131.716C139.749 131.716 139.878 131.725 140.008 131.725C141.803 131.766 143.595 131.828 145.39 131.908C146.53 131.963 147.669 132.02 148.81 132.082C150.148 132.158 151.491 132.244 152.829 132.341C155.099 132.507 157.369 132.707 159.634 132.928C160.435 133.009 161.236 133.094 162.037 133.182C163.836 133.384 165.633 133.608 167.428 133.855C170.028 134.214 172.626 134.63 175.21 135.112C177.511 135.542 179.804 136.015 182.076 136.571C185.632 137.437 189.141 138.437 192.554 139.773C192.822 139.88 193.1 139.939 193.369 140.06C194.878 140.74 196.383 141.422 197.828 142.233C198.881 142.825 199.855 143.519 200.809 144.255C201.721 144.964 202.451 145.826 203.064 146.794C203.444 147.393 203.656 148.06 203.815 148.745C203.877 148.422 203.841 148.096 203.841 147.773L203.856 147.782V147.78Z" fill="#C4C4C4"/>
<path d="M151.22 77.599C152.456 79.5288 153.352 81.6156 154.027 83.7998C154.239 84.4747 154.427 85.1568 154.595 85.8413C154.878 86.9821 155.097 88.142 155.27 89.3065C155.32 89.6464 155.368 89.9863 155.413 90.3309C155.499 91.0154 155.575 91.6999 155.636 92.3867C155.663 92.7313 155.691 93.0712 155.717 93.4158C155.843 95.2863 155.895 97.1591 155.848 99.0343C155.793 100.995 155.677 102.956 155.482 104.912C155.285 106.854 155.016 108.788 154.693 110.709C154.5 111.864 154.286 113.014 154.053 114.155C152.199 114.007 150.345 113.881 148.489 113.791C147.598 113.751 146.702 113.701 145.808 113.656C146.412 111.06 146.923 108.446 147.322 105.803C147.762 102.88 148.073 99.947 148.19 96.9975C148.285 94.4901 148.27 91.9803 148.068 89.4729C147.897 87.3814 147.617 85.3137 147.168 83.2626C146.661 80.9572 145.951 78.7184 144.929 76.5841C144.525 75.738 144.052 74.9276 143.576 74.1219C143.966 73.9959 144.372 73.984 144.772 73.9436C144.983 73.9222 145.192 73.9032 145.399 73.889C145.577 73.8795 145.758 73.87 145.936 73.8676C146.226 73.8628 146.519 73.8628 146.809 73.8676C147.011 73.8723 147.215 73.8818 147.417 73.889C147.574 73.8985 147.731 73.908 147.888 73.9199C147.914 73.9199 147.942 73.9246 147.964 73.9294C148.014 73.9389 148.059 73.9508 148.102 73.9698C148.147 73.9888 148.187 74.0102 148.228 74.0363C148.285 74.072 148.344 74.1219 148.399 74.1718C148.537 74.2978 148.672 74.4261 148.803 74.5568C149.067 74.8159 149.321 75.0892 149.563 75.3673C150.177 76.0613 150.728 76.8004 151.234 77.5871L151.22 77.5966V77.599Z" fill="#ECECEC"/>
<path d="M147.153 83.2672C147.6 85.3135 147.883 87.386 148.054 89.4775C148.261 91.9849 148.273 94.4947 148.175 97.0021C148.064 99.9515 147.75 102.884 147.308 105.808C146.909 108.448 146.4 111.067 145.794 113.66C145.119 113.629 144.437 113.594 143.762 113.565C142.212 113.508 140.667 113.47 139.12 113.439C138.542 113.425 137.964 113.418 137.392 113.408C137.955 111.281 138.452 109.137 138.877 106.979C139.2 105.363 139.476 103.738 139.723 102.11C139.885 101.016 140.028 99.9254 140.154 98.8274C140.284 97.6818 140.386 96.5315 140.458 95.3764C140.534 94.1453 140.584 92.9094 140.61 91.6783C140.641 90.0265 140.588 88.3794 140.467 86.7324C140.386 85.6439 140.284 84.5601 140.144 83.4787C139.956 81.998 139.688 80.534 139.334 79.0818C139.051 77.922 138.73 76.7669 138.3 75.6475C138.594 75.4598 138.934 75.3647 139.262 75.2435C139.925 74.9963 140.591 74.7824 141.273 74.5947C141.953 74.4116 142.637 74.2548 143.336 74.1383C143.386 74.1288 143.431 74.1169 143.479 74.1169C143.51 74.1169 143.536 74.1169 143.564 74.1265C144.04 74.9321 144.513 75.7378 144.917 76.5887C145.936 78.723 146.649 80.9618 147.156 83.2672H147.153Z" fill="#C4C4C4"/>
<path d="M166.615 79.4701C166.615 79.4701 166.596 79.4556 166.596 79.4483V79.429L166.618 79.4435L166.608 79.4653L166.613 79.4701H166.615Z" fill="#757575"/>
<path d="M203.815 166.43C203.82 166.314 203.829 166.197 203.829 166.081C203.829 164.165 203.834 162.245 203.834 160.329C203.834 159.502 203.82 158.673 203.815 157.845C203.815 157.796 203.836 157.743 203.834 157.693C203.82 157.662 203.803 157.639 203.789 157.613V157.622C203.789 157.622 203.789 157.613 203.784 157.608C203.748 157.487 203.708 157.37 203.672 157.249C203.618 157.078 203.556 156.914 203.494 156.757C203.432 156.595 203.358 156.438 203.282 156.282C203.206 156.129 203.121 155.977 203.035 155.835C202.933 155.664 202.824 155.5 202.71 155.338C202.472 155.008 202.208 154.699 201.913 154.406C201.74 154.233 201.554 154.062 201.362 153.895C201.2 153.734 201.034 153.586 200.865 153.444C200.126 152.816 199.308 152.298 198.51 151.747C198.298 151.604 198.079 151.474 197.861 151.352C197.687 151.257 197.507 151.165 197.328 151.074C197.193 151.008 197.055 150.939 196.922 150.872C196.748 150.782 196.572 150.699 196.399 150.613C195.691 150.264 194.98 149.919 194.255 149.605C193.775 149.403 193.302 149.201 192.817 149.014C190.892 148.253 188.936 147.595 186.956 147.012C185.47 146.573 183.97 146.176 182.466 145.808C181.472 145.565 180.479 145.332 179.48 145.118C178.482 144.904 177.484 144.698 176.481 144.5C174.774 144.165 173.065 143.856 171.354 143.583C170.781 143.493 170.213 143.405 169.64 143.319C168.262 143.112 166.888 142.915 165.505 142.732C164.126 142.549 162.743 142.383 161.355 142.245C160.489 142.159 159.627 142.071 158.761 141.986C158.721 141.986 158.676 141.976 158.635 141.972C157.43 141.85 156.228 141.739 155.018 141.641C153.711 141.534 152.398 141.444 151.091 141.354C150.219 141.297 149.344 141.242 148.472 141.197C147.336 141.135 146.197 141.076 145.066 141.03C144.892 141.021 144.716 141.011 144.543 141.009C143.483 140.964 142.425 140.928 141.365 140.897C140.305 140.866 139.247 140.84 138.187 140.821C137.797 140.816 137.408 140.812 137.018 140.807C136.654 140.802 136.293 140.797 135.929 140.793C134.926 140.783 133.923 140.778 132.925 140.783C132.338 140.783 131.753 140.788 131.171 140.793C129.616 140.807 128.064 140.828 126.51 140.869C126.084 140.878 125.659 140.89 125.229 140.9C124.57 140.919 123.907 140.94 123.249 140.966C122.807 140.985 122.362 141.007 121.92 141.023C120.197 141.095 118.474 141.185 116.748 141.287C114.918 141.404 113.085 141.529 111.26 141.686C110.05 141.789 108.842 141.9 107.637 142.021C105.829 142.2 104.025 142.402 102.221 142.63C100.417 142.858 98.6172 143.11 96.8203 143.386C96.3236 143.462 95.8268 143.543 95.33 143.628C94.9949 143.683 94.6621 143.74 94.327 143.799C94.0727 143.844 93.816 143.885 93.5616 143.93C93.9253 142.105 94.3412 140.291 94.8024 138.487C94.9759 137.808 95.147 137.13 95.3181 136.45C95.5606 135.783 95.7341 135.093 95.9266 134.414C95.948 134.333 95.9718 134.257 95.9932 134.176C96.9368 130.994 98.0135 127.854 99.2067 124.767C99.9625 122.806 100.768 120.864 101.624 118.939C102.197 117.651 102.793 116.365 103.407 115.098C105.434 110.903 107.687 106.825 110.185 102.882C112.517 99.1841 115.056 95.638 117.837 92.2631C117.894 92.1966 117.939 92.1158 117.993 92.0445C118.83 91.0867 119.655 90.1194 120.511 89.1758C123.296 86.0909 126.296 83.2365 129.616 80.7338C130.436 80.1159 131.282 79.5336 132.119 78.9394C132.195 78.8848 132.29 78.8776 132.378 78.8729C132.419 78.7517 132.53 78.6994 132.625 78.64C134.339 77.5443 136.122 76.5675 137.997 75.7785C138.064 75.7523 138.128 75.7167 138.199 75.6929C138.218 75.6881 138.24 75.6834 138.261 75.6786C138.282 75.6786 138.306 75.6691 138.327 75.6691C138.622 75.4814 138.962 75.3863 139.29 75.2651C139.953 75.0179 140.619 74.804 141.301 74.6163C141.981 74.4333 142.665 74.2764 143.364 74.1599C143.414 74.1504 143.459 74.1385 143.507 74.1385C143.538 74.1385 143.564 74.1385 143.592 74.148C143.982 74.0221 144.388 74.0102 144.788 73.9698C144.999 73.9484 145.208 73.9294 145.415 73.9151C145.594 73.9056 145.774 73.8961 145.952 73.8937C146.242 73.889 146.535 73.889 146.825 73.8937C147.027 73.8985 147.231 73.908 147.433 73.9151C147.59 73.9246 147.747 73.9341 147.904 73.946C147.93 73.946 147.959 73.9508 147.98 73.9555C148.03 73.965 148.075 73.9769 148.118 73.9959C148.163 74.0149 148.203 74.0363 148.244 74.0625C148.301 74.0981 148.36 74.148 148.415 74.198C148.553 74.3239 148.688 74.4523 148.819 74.583C149.083 74.842 149.337 75.1154 149.58 75.3934C150.193 76.0874 150.744 76.8266 151.25 77.6133C152.486 79.5431 153.383 81.6299 154.058 83.814C154.269 84.489 154.457 85.1711 154.626 85.8556C154.908 86.9964 155.127 88.1562 155.301 89.3208C155.351 89.6607 155.398 90.0005 155.443 90.3452C155.529 91.0296 155.605 91.7141 155.667 92.401C155.693 92.7456 155.721 93.0855 155.748 93.4301C155.873 95.3005 155.926 97.1734 155.878 99.0486C155.824 101.009 155.707 102.97 155.512 104.926C155.315 106.868 155.046 108.803 154.723 110.723C154.531 111.878 154.317 113.028 154.084 114.169C154.383 114.19 154.683 114.214 154.985 114.24C157.138 114.419 159.287 114.635 161.435 114.832C161.416 114.811 161.4 114.792 161.378 114.775C163.161 114.994 164.946 115.21 166.729 115.429C166.719 115.448 166.707 115.464 166.688 115.483C166.795 115.498 166.902 115.514 167.011 115.529C167.37 113.765 167.691 112.002 167.965 110.224C168.207 108.629 168.421 107.032 168.587 105.43C168.744 103.93 168.882 102.431 168.953 100.921C168.989 100.197 169.029 99.4669 169.075 98.742C169.079 98.6469 169.029 98.5233 169.177 98.4829C169.177 97.1306 169.167 95.7735 169.163 94.4236C169.091 94.3927 169.086 94.3285 169.077 94.2619C169.058 93.9886 169.027 93.7201 169.02 93.4467C168.965 91.4812 168.787 89.53 168.523 87.5858C168.233 85.4325 167.803 83.3102 167.206 81.2211C167.059 80.6982 166.933 80.1682 166.7 79.6715L166.65 79.4932C166.65 79.4932 166.631 79.479 166.631 79.4718V79.4528C166.617 79.391 166.61 79.3268 166.586 79.2651C165.721 76.7719 164.594 74.4071 163.04 72.2586C161.545 70.1861 159.741 68.4535 157.516 67.1653C156.684 66.6829 155.778 66.3406 154.923 65.9081C154.847 65.8677 154.749 65.8772 154.659 65.8582C154.583 65.7607 154.462 65.7322 154.359 65.6847C152.341 64.7887 150.326 63.895 148.303 63.0085C148.044 62.8921 147.806 62.7209 147.514 62.6853C147.464 62.6663 147.417 62.6544 147.367 62.6354C147.022 62.5237 146.668 62.4429 146.337 62.286C146.307 62.2765 146.28 62.267 146.247 62.2551C146.233 62.2504 146.216 62.2456 146.202 62.2408H146.193C146.157 62.2622 146.135 62.2456 146.112 62.2147C145.463 62.0483 144.814 61.9248 144.156 61.8344C143.68 61.7679 143.207 61.718 142.727 61.6918C142.565 61.6823 142.409 61.6776 142.247 61.6728C141.767 61.6586 141.294 61.6633 140.818 61.6871C140.186 61.7132 139.561 61.7726 138.934 61.8582C137.84 62.0103 136.759 62.2385 135.684 62.5332C135.532 62.5783 135.375 62.6187 135.223 62.6686C133.205 63.2676 131.28 64.078 129.421 65.0358C128.803 65.3543 128.19 65.6894 127.582 66.0435C127.025 66.362 126.481 66.6876 125.939 67.0322C125.761 67.144 125.58 67.2604 125.402 67.3769C125.224 67.4933 125.043 67.6098 124.87 67.731C124.516 67.9687 124.166 68.2111 123.821 68.4606C123.65 68.5866 123.477 68.7102 123.306 68.8362V68.8718C123.306 68.8718 123.296 68.8908 123.291 68.8979C123.277 68.9122 123.261 68.917 123.234 68.917H123.23V68.9383C123.23 68.9574 123.22 68.9645 123.211 68.9692C123.201 68.974 123.192 68.974 123.175 68.9692C123.17 68.9692 123.161 68.9692 123.156 68.9597C122.395 69.4921 121.656 70.0483 120.936 70.6258C120.613 70.8801 120.297 71.1439 119.983 71.4101C119.933 71.4505 119.885 71.4957 119.835 71.5361C119.512 71.8094 119.191 72.0875 118.873 72.3679V72.3893C118.873 72.4107 118.863 72.4249 118.851 72.4392C118.851 72.4392 118.842 72.444 118.837 72.4487C118.828 72.4535 118.816 72.4582 118.802 72.4582C118.792 72.4772 118.78 72.4939 118.766 72.5081C118.747 72.5271 118.735 72.5438 118.711 72.558C118.685 72.5771 118.654 72.5937 118.616 72.5984C118.616 72.6388 118.607 72.6602 118.59 72.6697C118.564 72.6888 118.514 72.6745 118.478 72.6792C118.357 72.8052 118.231 72.9288 118.112 73.05C118.103 73.0595 118.098 73.069 118.091 73.0714V73.0904C118.091 73.1094 118.081 73.1166 118.072 73.1308H118.067C118.067 73.1308 118.041 73.1451 118.012 73.1451C117.905 73.2354 117.789 73.3162 117.687 73.4089C117.677 73.4184 117.668 73.4232 117.661 73.4303C117.266 73.801 116.869 74.1742 116.479 74.5545C116.453 74.5806 116.425 74.6044 116.403 74.6258C116.282 74.747 116.156 74.8587 116.032 74.9751C115.719 75.2651 115.398 75.5479 115.096 75.8521C114.934 76.0185 114.77 76.1825 114.609 76.3441C113.677 77.2876 112.755 78.2431 111.863 79.227C110.727 80.4843 109.62 81.7653 108.545 83.0725C108.393 83.2603 108.236 83.4433 108.084 83.631C108.063 83.6572 108.034 83.6881 108.018 83.7213C107.987 83.7665 107.956 83.8117 107.923 83.8592C107.882 83.921 107.842 83.9851 107.801 84.0422C107.771 84.0873 107.74 84.1278 107.704 84.1729C107.69 84.1872 107.683 84.1991 107.673 84.2086C107.623 84.2632 107.576 84.3108 107.516 84.3512C107.516 84.3654 107.511 84.3702 107.507 84.3773C107.507 84.3868 107.507 84.3963 107.497 84.4034C107.497 84.4082 107.488 84.413 107.483 84.4177C107.473 84.4225 107.462 84.4272 107.452 84.432C107.426 84.5579 107.321 84.6197 107.238 84.7005C107.233 84.7005 107.229 84.71 107.224 84.7148C107.198 84.7362 107.179 84.7647 107.162 84.7908C107.153 84.8051 107.143 84.817 107.141 84.836C107.138 84.855 107.126 84.8669 107.122 84.8859V84.9073C107.122 84.9287 107.112 84.943 107.095 84.9572C107.095 84.9572 107.086 84.9572 107.086 84.962H107.05C106.853 85.2091 106.651 85.4539 106.454 85.7011C106.444 85.7154 106.432 85.7273 106.423 85.7415C106.428 85.7724 106.428 85.7986 106.423 85.8271C106.423 85.8485 106.409 85.8627 106.401 85.8817C106.401 85.8865 106.392 85.896 106.392 85.9008C106.378 85.915 106.361 85.9317 106.342 85.9412C106.321 85.9554 106.292 85.9626 106.266 85.9721C106.235 86.0077 106.204 86.0386 106.171 86.0743C106.157 86.0885 106.15 86.1004 106.14 86.1099C106.114 86.136 106.09 86.167 106.069 86.1955C105.562 86.8752 105.056 87.5597 104.55 88.2418C104.55 88.2632 104.54 88.2774 104.528 88.2917L104.519 88.3012C104.519 88.3012 104.498 88.3155 104.483 88.3155C104.134 88.8074 103.775 89.297 103.43 89.7938L103.228 90.0885C102.713 90.8443 102.23 91.6238 101.71 92.3772C101.45 92.7527 101.203 93.1378 100.958 93.518C100.709 93.8983 100.457 94.2786 100.184 94.6517C99.7486 95.2483 99.3778 95.8971 98.9975 96.5269C98.8311 96.8002 98.6671 97.0736 98.5055 97.3469C96.6658 100.401 94.8784 103.483 93.3572 106.711C93.2669 106.899 93.1647 107.075 93.0625 107.253C92.9603 107.426 92.851 107.607 92.763 107.785C92.2449 108.829 91.7386 109.877 91.2442 110.932C91.0612 111.327 90.8805 111.721 90.6975 112.118C90.4598 112.634 90.2269 113.152 89.9987 113.672C89.7087 114.331 89.4164 114.994 89.1312 115.659C89.0099 115.937 88.8935 116.218 88.777 116.501C88.6297 116.85 88.4823 117.199 88.3373 117.553C87.8263 118.794 87.3343 120.047 86.8565 121.302C86.7187 121.668 86.5784 122.036 86.4453 122.407C86.1197 123.303 85.8012 124.196 85.4827 125.097C85.4066 125.311 85.3306 125.527 85.2545 125.741C85.1975 125.908 85.138 126.076 85.0834 126.247C84.936 126.673 84.7958 127.103 84.6627 127.533C84.4963 128.056 84.3347 128.581 84.1754 129.104C84.0589 129.48 83.9425 129.853 83.8213 130.228C83.5479 131.065 83.2294 131.894 83.1225 132.776C83.1177 132.821 83.0654 132.862 83.0369 132.902C82.9014 133.268 82.823 133.646 82.7327 134.022C82.6875 134.2 82.6352 134.38 82.5805 134.559C82.5259 134.737 82.4736 134.918 82.4237 135.096C82.2169 135.866 82.0172 136.641 81.8271 137.415C81.6536 138.114 81.4872 138.82 81.3256 139.524C81.1473 140.315 80.9762 141.109 80.8098 141.9C80.6672 142.594 80.5269 143.293 80.3986 143.992C80.2964 144.548 80.1918 145.097 80.0991 145.653C80.0135 146.14 79.9375 146.63 79.8567 147.117C79.7592 147.74 79.6641 148.358 79.5786 148.98C79.5025 149.539 79.4312 150.095 79.3599 150.654C79.1721 152.189 79.02 153.724 78.8988 155.269C78.8679 155.711 78.837 156.151 78.8132 156.595C78.7871 157.037 78.7633 157.477 78.7467 157.921C78.711 158.803 78.6849 159.69 78.6563 160.571C78.6516 160.773 78.6516 160.976 78.6468 161.175V161.358C78.6421 162.492 78.6872 163.618 78.7229 164.743C78.7229 164.792 78.7324 164.845 78.7324 164.895C78.7419 165.097 78.7514 165.299 78.7633 165.498C78.8037 166.314 78.8703 167.129 78.9558 167.942C79.0129 168.493 79.077 169.047 79.1483 169.598C79.1579 169.679 79.1697 169.755 79.1792 169.836C79.3314 170.955 79.5072 172.07 79.7259 173.175C80.1324 175.243 80.6743 177.275 81.4182 179.25C81.4325 179.281 81.4444 179.316 81.4587 179.352C82.0148 180.811 82.659 182.23 83.4505 183.583C84.753 185.807 86.3431 187.777 88.3706 189.348C88.613 189.536 88.8578 189.714 89.1098 189.895C89.3522 190.061 89.6113 190.214 89.8609 190.366C89.906 190.397 89.9583 190.42 90.0082 190.442C90.0439 190.461 90.0795 190.473 90.1152 190.492C90.177 190.522 90.2364 190.563 90.2768 190.622C90.2911 190.641 90.303 190.667 90.3172 190.694V190.684C90.3838 190.675 90.4432 190.689 90.4741 190.76H90.4789C90.5407 190.76 90.6001 190.779 90.631 190.836C90.65 190.836 90.6619 190.836 90.6761 190.841H90.6809C90.7213 190.85 90.7569 190.867 90.7831 190.908V190.912H90.8235C90.8235 190.912 90.8378 190.917 90.8496 190.917C90.8544 190.917 90.8639 190.917 90.8687 190.922C90.8782 190.922 90.8877 190.931 90.8948 190.936C90.8948 190.936 90.9043 190.936 90.9091 190.941L90.9352 190.967H90.94C91.0255 191.057 91.142 191.079 91.249 191.129C93.4832 192.117 95.7222 193.108 97.9565 194.097C99.0617 194.584 100.16 195.1 101.327 195.423C102.496 195.746 103.682 195.965 104.895 196.015H107.312C107.899 195.996 108.481 195.92 109.059 195.832C111.41 195.478 113.665 194.784 115.845 193.85C119.838 192.136 123.441 189.793 126.823 187.086C127.567 186.489 128.292 185.876 129.013 185.256C131.525 185.301 134.03 185.313 136.542 185.287C138.934 185.26 141.329 185.22 143.718 185.125C143.835 185.058 143.961 185.058 144.084 185.106H144.191C144.334 185.039 144.481 185.044 144.631 185.087H144.738C144.823 185.032 144.911 185.025 145.002 185.042H145.016C145.047 185.051 145.073 185.061 145.102 185.068H145.208C145.266 185.032 145.325 185.018 145.382 185.013C145.444 185.013 145.508 185.028 145.575 185.044H145.681C145.722 185.023 145.762 185.009 145.803 184.999C145.884 184.98 145.969 184.99 146.052 185.02H146.154C146.154 185.02 146.164 185.02 146.169 185.016C146.285 184.959 146.406 184.959 146.523 185.001H146.625C146.746 184.925 146.868 184.935 146.996 184.98H147.098C147.219 184.909 147.345 184.918 147.469 184.959H147.571C147.597 184.94 147.621 184.933 147.642 184.923C147.683 184.909 147.718 184.909 147.759 184.909C147.795 184.909 147.835 184.918 147.871 184.935C148.417 184.909 148.959 184.89 149.503 184.859C153.684 184.612 157.853 184.281 162.018 183.82C168.34 183.117 174.62 182.173 180.826 180.759C185.052 179.796 189.221 178.641 193.25 177.016C195.413 176.144 197.511 175.145 199.456 173.838C200.625 173.049 201.707 172.165 202.576 171.031C203.123 170.311 203.565 169.536 203.736 168.631C203.803 168.56 203.831 168.474 203.834 168.384C203.874 167.735 203.896 167.091 203.839 166.442L203.803 166.447L203.815 166.43ZM147.697 152.736C146.532 152.664 145.372 152.6 144.21 152.553C145.375 152.607 146.535 152.669 147.697 152.736ZM121.877 173.869C121.689 174.035 121.502 174.204 121.314 174.371C119.992 175.53 118.633 176.626 117.214 177.653C115.795 178.672 114.321 179.623 112.781 180.469C112.562 180.59 112.339 180.712 112.113 180.828C111.597 181.097 111.079 181.351 110.556 181.598C110.033 181.84 109.499 182.064 108.961 182.273C107.887 182.694 106.787 183.043 105.648 183.312C105.156 183.428 104.664 183.526 104.17 183.602C103.996 183.628 103.82 183.656 103.651 183.682C102.979 183.773 102.308 183.825 101.633 183.844C101.41 183.849 101.182 183.853 100.958 183.849C100.73 183.849 100.507 183.839 100.279 183.83C100.181 183.825 100.086 183.811 99.9887 183.804C99.8936 183.794 99.7961 183.782 99.6987 183.773C99.5727 183.763 99.48 183.711 99.385 183.63C99.1164 183.388 98.862 183.138 98.6101 182.879C98.2393 182.494 97.8852 182.09 97.5524 181.674C97.3337 181.396 97.1174 181.111 96.913 180.814C96.8108 180.666 96.711 180.519 96.6135 180.372C96.604 180.357 96.5993 180.346 96.5945 180.331C96.5898 180.31 96.5803 180.281 96.5755 180.26C96.5351 180.22 96.4804 180.179 96.4495 180.134L96.44 180.124C95.9789 179.395 95.563 178.644 95.1874 177.869C94.9996 177.479 94.8214 177.094 94.655 176.697C94.4839 176.303 94.3294 175.901 94.1796 175.492C94.1606 175.442 94.1654 175.395 94.1582 175.34C93.8992 174.858 93.7684 174.328 93.6068 173.814C93.2479 172.664 92.9674 171.495 92.7345 170.314C92.6941 170.102 92.6537 169.898 92.6133 169.686C92.5943 169.601 92.5871 169.52 92.5681 169.437C92.5491 169.334 92.5277 169.23 92.5111 169.128C92.5111 169.101 92.5111 169.078 92.5016 169.051C92.4921 168.961 92.4873 168.868 92.4802 168.778C92.328 168.12 92.2615 167.45 92.1854 166.777C91.9264 164.638 91.8265 162.489 91.8218 160.339C91.8218 159.528 91.8313 158.713 91.8527 157.898C91.8669 157.415 91.8883 156.935 91.9145 156.455C93.6829 156.034 95.4655 155.664 97.2505 155.321C100.305 154.744 103.376 154.273 106.456 153.893C106.506 153.888 106.554 153.879 106.603 153.874C106.661 153.864 106.72 153.86 106.777 153.864C106.813 153.864 106.848 153.874 106.884 153.883C107.364 153.781 107.851 153.727 108.339 153.677C108.562 153.655 108.785 153.632 109.006 153.61C112.391 153.235 115.781 152.947 119.175 152.743C120.128 152.686 121.081 152.631 122.032 152.586C124.468 152.469 126.902 152.393 129.338 152.348C130.672 152.322 132.007 152.308 133.341 152.308C135.245 152.308 137.146 152.329 139.045 152.374C138.634 153.059 138.218 153.743 137.793 154.421C137.484 154.917 137.17 155.409 136.851 155.899C136.283 156.771 135.706 157.636 135.114 158.494C134.021 160.08 132.889 161.631 131.71 163.155C131.339 163.637 130.962 164.118 130.577 164.593C130.51 164.678 130.441 164.764 130.374 164.842C129.818 165.532 129.255 166.207 128.677 166.874C127.715 167.989 126.726 169.078 125.709 170.142C125.4 170.466 125.091 170.786 124.777 171.105C123.971 171.92 123.139 172.716 122.288 173.491C122.547 173.505 122.807 173.513 123.068 173.527C122.809 173.513 122.55 173.505 122.288 173.491C122.151 173.617 122.01 173.745 121.872 173.871L121.877 173.867V173.869ZM126.408 173.655C127.392 173.686 128.383 173.712 129.367 173.731C128.378 173.712 127.392 173.686 126.408 173.655ZM191.512 163.172C191.486 163.207 191.441 163.243 191.37 163.298C191.274 163.369 191.182 163.445 191.082 163.511C190.987 163.583 190.889 163.649 190.792 163.723C190.609 163.854 190.421 163.977 190.229 164.098C190.207 164.113 190.183 164.125 190.162 164.144C190.005 164.241 189.848 164.341 189.687 164.434C189.449 164.576 189.216 164.712 188.976 164.845C187.338 165.757 185.613 166.492 183.854 167.141C182.192 167.749 180.51 168.281 178.813 168.757C176.381 169.437 173.919 170.002 171.435 170.494C169.022 170.977 166.6 171.385 164.169 171.74C161.737 172.094 159.299 172.388 156.853 172.643C156.052 172.728 155.251 172.804 154.45 172.88C152.843 173.028 151.236 173.154 149.627 173.261C148.821 173.315 148.016 173.363 147.215 173.408C145.411 173.51 143.606 173.586 141.802 173.646C141.474 173.655 141.149 173.667 140.818 173.677C140.519 173.686 140.219 173.696 139.915 173.703C140.654 172.79 141.394 171.88 142.069 170.917C142.166 170.796 142.266 170.675 142.359 170.551C143.804 168.605 145.192 166.62 146.528 164.602C146.599 164.491 146.97 163.927 147.084 163.751C147.93 162.449 148.75 161.132 149.551 159.799C150.858 157.615 152.109 155.397 153.295 153.151C155.56 153.349 157.82 153.577 160.081 153.855C160.247 153.874 160.411 153.91 160.582 153.936C161.595 154.007 162.598 154.159 163.596 154.307C164.882 154.494 166.165 154.701 167.446 154.915C169.174 155.205 170.902 155.528 172.618 155.899C173.545 156.101 174.468 156.305 175.395 156.507C175.404 156.507 175.416 156.507 175.426 156.512C175.435 156.512 175.445 156.512 175.456 156.517C175.513 156.526 175.582 156.526 175.644 156.536C175.725 156.545 175.806 156.567 175.868 156.633C177.848 157.14 179.82 157.672 181.76 158.311C181.938 158.368 182.145 158.387 182.283 158.539C182.789 158.63 183.25 158.839 183.726 159.015C184.141 159.167 184.557 159.328 184.971 159.495C186.148 159.961 187.303 160.476 188.422 161.071C188.864 161.304 189.299 161.551 189.73 161.81C190.298 162.154 190.854 162.518 191.372 162.934C191.524 163.055 191.569 163.105 191.51 163.176L191.519 163.172H191.512Z" fill="#262626"/>
<path d="M203.855 130.906C203.801 129.836 203.394 128.89 202.771 128.032C201.894 126.811 200.761 125.858 199.534 125.014C197.443 123.581 195.156 122.53 192.815 121.589C191.512 121.066 190.191 120.6 188.857 120.17C186.825 119.517 184.762 118.958 182.687 118.447C180.094 117.812 177.489 117.261 174.865 116.781C173.267 116.491 171.663 116.208 170.056 115.975C170.006 115.975 169.959 115.971 169.909 115.966C169.883 115.966 169.852 115.961 169.823 115.956C169.766 115.952 169.702 115.942 169.645 115.937C169.51 115.918 169.372 115.892 169.241 115.861C168.761 115.785 168.288 115.709 167.808 115.628C167.53 115.588 167.252 115.548 166.976 115.512C166.869 115.493 166.762 115.481 166.653 115.467C165.547 115.331 164.437 115.203 163.33 115.06C163.007 115.02 162.686 114.994 162.362 114.958C162.039 114.927 161.718 114.887 161.4 114.823C159.251 114.621 157.102 114.407 154.949 114.231C154.649 114.209 154.35 114.181 154.048 114.16C152.194 114.012 150.34 113.886 148.484 113.796C147.593 113.755 146.696 113.706 145.803 113.66C145.128 113.63 144.446 113.594 143.771 113.565C142.221 113.508 140.676 113.47 139.129 113.439C138.551 113.425 137.973 113.418 137.401 113.408C137.401 113.408 138.461 109.138 138.886 106.98C139.209 105.363 139.485 103.738 139.732 102.11C139.894 101.016 140.037 99.9256 140.162 98.8275C140.293 97.682 140.395 96.5316 140.467 95.3766C140.543 94.1454 140.593 92.9096 140.619 91.6785C140.65 90.0267 140.597 88.3796 140.476 86.7326C140.395 85.644 140.293 84.5603 140.153 83.4789C139.965 81.9982 139.697 80.5342 139.342 79.082C139.06 77.9222 138.739 76.7671 138.309 75.6477C138.287 75.6477 138.263 75.6477 138.242 75.6572C138.221 75.6572 138.197 75.6667 138.18 75.6715C138.109 75.6929 138.045 75.7285 137.978 75.757C136.098 76.5461 134.32 77.5253 132.606 78.6186C132.509 78.6804 132.4 78.7303 132.359 78.8515C132.77 81.4516 132.963 84.0659 132.987 86.6993C133.022 90.464 132.744 94.2072 132.231 97.9363C131.841 100.743 131.328 103.529 130.7 106.295C130.158 108.696 129.531 111.072 128.834 113.428C127.147 113.447 125.454 113.499 123.767 113.553C121.518 113.63 119.272 113.732 117.028 113.877C115.049 114.003 113.066 114.131 111.089 114.302C108.519 114.526 105.955 114.777 103.397 115.091C102.784 116.363 102.187 117.644 101.615 118.932C100.759 120.857 99.9531 122.799 99.1973 124.76C99.2329 124.755 99.2638 124.75 99.2995 124.745C102.285 124.325 105.284 123.975 108.284 123.676C109.144 123.59 110.002 123.488 110.868 123.412C113 123.234 115.134 123.113 117.269 122.977C120.045 122.799 122.826 122.687 125.609 122.606H125.711C128.079 122.54 130.448 122.509 132.82 122.504C133.417 122.504 134.011 122.504 134.61 122.509C135.963 122.514 137.32 122.528 138.67 122.549C140.205 122.575 141.736 122.635 143.271 122.687H143.312C144.781 122.742 146.25 122.794 147.716 122.865C148.845 122.92 149.972 123.001 151.101 123.084C151.343 123.103 151.583 123.12 151.826 123.139C153.518 123.26 155.206 123.386 156.898 123.514C157.314 123.545 157.725 123.604 158.143 123.645C160.382 123.842 162.617 124.092 164.846 124.379C165.844 124.505 166.838 124.638 167.836 124.774C169.935 125.064 172.031 125.413 174.118 125.777C176.129 126.131 178.135 126.528 180.122 126.982C181.872 127.381 183.614 127.814 185.342 128.284C187.612 128.902 189.841 129.622 192.045 130.437C193.949 131.146 195.788 131.978 197.568 132.95C198.795 133.622 199.96 134.373 201.02 135.286C201.982 136.113 202.824 137.045 203.385 138.209C203.608 138.67 203.713 139.167 203.855 139.652C203.86 138.689 203.87 137.727 203.874 136.764V132.477C203.874 131.959 203.893 131.433 203.865 130.92L203.851 130.91L203.855 130.906Z" fill="#D6D6D6"/>
<path d="M147.341 62.6162C146.996 62.5045 146.642 62.4237 146.312 62.2668C146.312 62.2217 146.316 62.1765 146.321 62.1313C146.732 62.2573 147.122 62.4308 147.486 62.6637C147.436 62.6447 147.388 62.6328 147.338 62.6138H147.343L147.341 62.6162Z" fill="#494949"/>
<path d="M146.138 62.1957C146.138 62.1957 146.168 62.2099 146.178 62.2217H146.168C146.133 62.243 146.112 62.2264 146.088 62.1957C146.107 62.1909 146.119 62.1862 146.138 62.1957Z" fill="#494949"/>
<path d="M104.515 88.2346C104.515 88.2346 104.505 88.2701 104.493 88.2843L104.484 88.2938C104.484 88.2938 104.462 88.308 104.448 88.308V88.282C104.448 88.282 104.474 88.2559 104.488 88.2465C104.498 88.2465 104.507 88.237 104.515 88.237V88.2346Z" fill="#494949"/>
<path d="M106.36 85.8847C106.36 85.8847 106.329 85.9157 106.31 85.9252C106.288 85.9395 106.264 85.9467 106.233 85.9562V85.9109C106.233 85.8966 106.233 85.8847 106.238 85.8751C106.248 85.8536 106.257 85.8298 106.269 85.8131C106.284 85.794 106.305 85.7821 106.324 85.763L106.391 85.7224C106.396 85.7534 106.396 85.7797 106.391 85.8083C106.391 85.8298 106.377 85.8441 106.369 85.8632C106.369 85.868 106.36 85.8775 106.36 85.8823V85.887V85.8847Z" fill="#494949"/>
<path d="M107.063 84.9401C107.063 84.9401 107.053 84.9401 107.053 84.9448H107.018C107.039 84.9188 107.063 84.888 107.084 84.8596V84.8809C107.084 84.9022 107.074 84.9164 107.058 84.9306L107.063 84.9401Z" fill="#545454"/>
<path d="M107.426 84.3888C107.426 84.3675 107.445 84.3485 107.462 84.3391C107.471 84.3391 107.481 84.3343 107.488 84.3296C107.488 84.3438 107.483 84.3485 107.478 84.3556C107.478 84.3651 107.478 84.3746 107.469 84.3817C107.469 84.3864 107.459 84.3911 107.455 84.3959C107.445 84.4006 107.433 84.4053 107.424 84.4101V84.3888H107.426Z" fill="#545454"/>
<path d="M139.207 59.0298C139.293 58.994 139.345 59.0298 139.396 59.0966C139.319 59.1157 139.238 59.1324 139.207 59.0345V59.0298Z" fill="#CACACA"/>
<path d="M139.202 59.0298H139.208L139.202 59.0352V59.0298Z" fill="#C4C4C4"/>
<path d="M117.992 73.1186C118.018 73.0973 118.041 73.0736 118.067 73.0476V73.0665C118.067 73.0855 118.058 73.0926 118.048 73.1068H118.044C118.044 73.1068 118.018 73.121 117.989 73.121L117.992 73.1186Z" fill="#494949"/>
<path d="M118.514 72.5889C118.536 72.5745 118.564 72.5674 118.595 72.5674C118.595 72.6079 118.586 72.6294 118.569 72.639C118.543 72.6581 118.493 72.6437 118.457 72.6485C118.476 72.6223 118.493 72.6032 118.514 72.5912V72.5889Z" fill="#494949"/>
<path d="M118.849 72.3655C118.849 72.3655 118.84 72.401 118.828 72.4152C118.828 72.4152 118.819 72.4199 118.814 72.4246C118.804 72.4294 118.793 72.4341 118.778 72.4341C118.8 72.4081 118.828 72.3773 118.849 72.3489V72.3678V72.3655Z" fill="#494949"/>
<path d="M123.287 68.8477L123.273 68.8737C123.258 68.8879 123.242 68.8927 123.216 68.8927C123.237 68.8666 123.266 68.8429 123.292 68.8169V68.8524L123.287 68.8477Z" fill="#494949"/>
<path d="M123.206 68.8955V68.9144C123.206 68.9334 123.197 68.9405 123.187 68.9452C123.178 68.95 123.168 68.95 123.152 68.9452C123.147 68.9452 123.138 68.9452 123.133 68.9357C123.159 68.9215 123.183 68.9097 123.209 68.8955H123.204H123.206Z" fill="#494949"/>
<path d="M146.291 62.1101C144.08 61.1261 141.863 60.1446 139.652 59.1559C139.562 59.1154 139.474 59.1463 139.393 59.0988C139.317 59.1178 139.236 59.1345 139.205 59.037C139.115 59.0774 139.032 59.037 138.946 59.0061C137.007 58.4238 135.024 58.2456 133.006 58.3478C130.335 58.4856 127.773 59.1392 125.284 60.1018C124.5 60.4012 123.73 60.734 122.978 61.0857C122.791 61.176 122.603 61.264 122.415 61.359C122.197 61.466 121.975 61.5729 121.762 61.6894C121.472 61.8368 121.184 61.9889 120.894 62.1457C119.385 62.9704 117.921 63.8878 116.502 64.8718C116.207 65.0786 115.91 65.283 115.62 65.4945L115.446 65.6204C114.747 66.1314 114.063 66.6495 113.39 67.1867C111.707 68.5248 110.091 69.9484 108.527 71.4386C104.189 75.5788 100.334 80.1491 96.8069 84.9928C96.7165 85.1188 96.6286 85.2471 96.5383 85.3731C96.5383 85.3731 96.5288 85.404 96.5193 85.4135C96.5097 85.423 96.4979 85.4277 96.4789 85.4325C96.1604 85.8841 95.8466 86.3333 95.5305 86.7848C95.0028 87.5359 94.4823 88.2893 93.9736 89.0546C93.4911 89.7795 93.011 90.5138 92.5404 91.2482C92.1648 91.8305 91.7964 92.4176 91.4351 93.007C91.1119 93.5346 90.791 94.0599 90.4725 94.5875C90.0257 95.3361 89.5812 96.0872 89.1439 96.8477C88.9252 97.228 88.7089 97.6035 88.495 97.9885C88.4736 98.0337 88.4403 98.0741 88.4142 98.1192C88.4142 98.1692 88.3951 98.2096 88.3785 98.25C88.3595 98.2761 88.3428 98.307 88.3286 98.3355C88.1266 98.6944 87.9293 99.0557 87.732 99.4193C86.988 100.776 86.2631 102.145 85.5643 103.524C85.2696 104.106 84.9772 104.693 84.692 105.278C83.1423 108.448 81.7067 111.666 80.3851 114.93C79.6816 116.662 79.016 118.409 78.379 120.163C78.0439 121.095 77.7111 122.029 77.395 122.97C76.8079 124.707 76.2708 126.456 75.7479 128.213C75.5339 128.933 75.3224 129.658 75.1204 130.385L75.1061 130.44C74.7876 131.576 74.4929 132.719 74.2148 133.865C73.9605 134.894 73.7133 135.928 73.4851 136.966C73.2878 137.853 73.1095 138.744 72.9289 139.635C72.8885 139.847 72.8481 140.056 72.8077 140.27C72.7887 140.355 72.7768 140.441 72.7578 140.524C72.753 140.555 72.7435 140.586 72.7387 140.622C72.7078 140.793 72.6722 140.957 72.6413 141.128C72.387 142.52 72.1588 143.916 71.9615 145.323C71.769 146.68 71.5979 148.032 71.4552 149.391C71.4243 149.696 71.3982 150 71.3649 150.304C71.3649 150.326 71.3602 150.349 71.3602 150.371C71.3388 150.604 71.3245 150.77 71.3055 150.934C71.2437 151.69 71.189 152.453 71.1439 153.208C71.0987 153.969 71.0631 154.73 71.0417 155.492C71.0417 155.59 71.0417 155.69 71.0322 155.787C70.987 157.251 70.9775 158.71 71.0227 160.17C71.0678 161.548 71.1439 162.922 71.2722 164.298C71.3982 165.667 71.5717 167.034 71.8094 168.398C71.9259 169.066 72.0518 169.726 72.1944 170.385C72.6698 172.605 73.3092 174.782 74.1863 176.885C74.2481 177.032 74.3075 177.175 74.374 177.325C74.4358 177.467 74.5048 177.615 74.5666 177.76C74.7187 178.099 74.8803 178.435 75.0467 178.767C75.3248 179.323 75.6195 179.863 75.9333 180.393C76.7937 181.843 77.8038 183.19 79.0042 184.41C79.3179 184.733 79.6435 185.037 79.981 185.327C80.6133 185.878 81.2836 186.385 81.999 186.836C82.1345 186.922 82.289 186.972 82.3888 187.1C82.4031 187.119 82.415 187.14 82.4245 187.162C82.491 187.148 82.5409 187.162 82.5599 187.233C82.838 187.3 83.0615 187.487 83.3158 187.599C84.6777 188.203 86.0325 188.809 87.3945 189.413C88.1693 189.757 88.949 190.092 89.7262 190.432L89.8236 190.342C89.5741 190.185 89.3126 190.038 89.0725 189.871C88.8182 189.698 88.5758 189.512 88.3333 189.325C86.3059 187.749 84.7158 185.783 83.4132 183.559C82.6217 182.206 81.9752 180.788 81.4214 179.328C81.4072 179.293 81.3953 179.262 81.381 179.226C80.6371 177.251 80.0951 175.219 79.6887 173.151C79.47 172.046 79.2941 170.931 79.142 169.812C79.1325 169.731 79.1206 169.655 79.1111 169.574C79.0398 169.023 78.9756 168.469 78.9186 167.918C78.833 167.103 78.7712 166.292 78.7261 165.475C78.7166 165.273 78.7047 165.07 78.6952 164.871C78.6952 164.821 78.6904 164.769 78.6857 164.719C78.6452 163.59 78.6048 162.463 78.6096 161.334V161.151C78.6096 160.949 78.6096 160.747 78.6191 160.548C78.6452 159.661 78.6738 158.779 78.7094 157.898C78.7284 157.456 78.7498 157.016 78.776 156.571C78.8021 156.127 78.8306 155.69 78.8615 155.245C78.978 153.7 79.1349 152.165 79.3227 150.63C79.3892 150.071 79.4605 149.515 79.5413 148.957C79.6269 148.334 79.7196 147.711 79.8194 147.093C79.8955 146.606 79.9763 146.116 80.0619 145.629C80.1569 145.073 80.2591 144.524 80.3613 143.968C80.4921 143.269 80.6299 142.575 80.7725 141.876C80.9389 141.085 81.1077 140.286 81.2883 139.5C81.4499 138.796 81.6163 138.095 81.7898 137.392C81.9824 136.617 82.1796 135.842 82.3864 135.072C82.4363 134.894 82.4886 134.713 82.5433 134.535C82.598 134.357 82.6503 134.176 82.6954 133.998C82.7905 133.622 82.8666 133.247 82.9997 132.878C83.0306 132.838 83.0805 132.797 83.0852 132.752C83.1922 131.866 83.5107 131.039 83.784 130.205C83.9052 129.834 84.0217 129.456 84.1382 129.08C84.2998 128.557 84.4614 128.032 84.6254 127.509C84.7609 127.079 84.8988 126.649 85.0461 126.224C85.1032 126.057 85.1579 125.888 85.2173 125.717C85.2933 125.503 85.3694 125.287 85.4455 125.073C85.7687 124.177 86.0801 123.279 86.4081 122.383C86.5436 122.017 86.6814 121.644 86.8193 121.278C87.2994 120.02 87.7914 118.77 88.3001 117.53C88.4427 117.176 88.59 116.826 88.7398 116.477C88.861 116.194 88.9775 115.918 89.0939 115.635C89.3815 114.972 89.6715 114.309 89.9615 113.649C90.1897 113.13 90.4226 112.615 90.6603 112.094C90.8386 111.695 91.024 111.305 91.207 110.908C91.699 109.851 92.2005 108.805 92.7258 107.761C92.8161 107.578 92.9231 107.403 93.0253 107.229C93.1275 107.056 93.2321 106.875 93.32 106.687C94.8412 103.46 96.6286 100.375 98.4683 97.3231C98.6347 97.0497 98.7939 96.7764 98.9603 96.5031C99.3453 95.8685 99.7114 95.2221 100.146 94.6279C100.42 94.2571 100.669 93.8792 100.921 93.4942C101.171 93.1139 101.418 92.7289 101.672 92.3534C102.19 91.6024 102.675 90.8228 103.191 90.0647L103.393 89.7699C103.738 89.2732 104.097 88.786 104.446 88.2916V88.2655C104.446 88.2655 104.472 88.2394 104.487 88.2299C104.496 88.2299 104.506 88.2203 104.513 88.2203C105.019 87.5406 105.525 86.8561 106.031 86.174C106.053 86.1431 106.081 86.117 106.103 86.0885C106.117 86.0742 106.124 86.0623 106.134 86.0528C106.165 86.0172 106.195 85.9863 106.229 85.9506V85.9055C106.229 85.8912 106.229 85.8793 106.233 85.8698C106.243 85.8437 106.253 85.8247 106.264 85.808C106.276 85.7914 106.3 85.7771 106.319 85.7581L106.386 85.7177C106.4 85.7034 106.407 85.6916 106.417 85.6773C106.614 85.4301 106.816 85.1853 107.013 84.9381C107.035 84.912 107.058 84.8811 107.08 84.8526C107.08 84.8336 107.089 84.8217 107.099 84.8027C107.103 84.7884 107.113 84.7718 107.12 84.7575C107.139 84.7314 107.16 84.7028 107.182 84.6815C107.182 84.6767 107.191 84.672 107.196 84.6672C107.282 84.5864 107.389 84.5198 107.41 84.3986V84.3772C107.41 84.3559 107.429 84.3368 107.446 84.3273C107.455 84.3273 107.465 84.3226 107.472 84.3178C107.529 84.2727 107.584 84.2275 107.629 84.1752C107.643 84.161 107.65 84.1491 107.66 84.1396C107.695 84.0992 107.726 84.054 107.757 84.0089C107.797 83.9518 107.838 83.8877 107.878 83.8259C107.909 83.7807 107.94 83.7308 107.973 83.688C107.995 83.6571 108.019 83.6262 108.04 83.5977C108.192 83.4099 108.349 83.2222 108.501 83.0392C109.575 81.7272 110.681 80.4462 111.819 79.1937C112.71 78.2097 113.633 77.2543 114.564 76.3108C114.726 76.1444 114.892 75.9804 115.052 75.8188C115.356 75.5146 115.674 75.2318 115.988 74.9418C116.114 74.8253 116.238 74.7136 116.359 74.5924C116.385 74.571 116.409 74.5425 116.435 74.5211C116.825 74.1456 117.224 73.7701 117.616 73.397C117.626 73.3875 117.635 73.3827 117.642 73.3756C117.745 73.2805 117.861 73.1973 117.968 73.1118C117.994 73.0904 118.018 73.0666 118.044 73.0405L118.066 73.0191C118.187 72.8931 118.313 72.7719 118.432 72.6483C118.451 72.6222 118.467 72.6031 118.489 72.5913C118.51 72.577 118.539 72.5699 118.569 72.5699C118.605 72.5651 118.636 72.5485 118.664 72.5295C118.684 72.5152 118.7 72.4986 118.719 72.4796C118.733 72.4653 118.741 72.4487 118.755 72.4296C118.776 72.4035 118.805 72.3726 118.826 72.3441C119.145 72.0613 119.461 71.7856 119.789 71.5122C119.839 71.4718 119.886 71.4314 119.936 71.3863C120.25 71.1225 120.568 70.8634 120.889 70.602C121.609 70.0244 122.353 69.4659 123.109 68.9359C123.135 68.9217 123.159 68.9098 123.185 68.8955H123.19C123.211 68.8646 123.24 68.8385 123.266 68.8147C123.437 68.6887 123.611 68.5604 123.782 68.4392C124.127 68.1896 124.481 67.9472 124.83 67.7096C125.004 67.5931 125.184 67.4719 125.362 67.3602C125.541 67.2437 125.721 67.1273 125.9 67.0156C126.442 66.6757 126.988 66.343 127.542 66.0269C128.146 65.6775 128.764 65.3424 129.382 65.0191C131.245 64.0613 133.168 63.2509 135.184 62.652C135.336 62.6068 135.493 62.5616 135.645 62.5165C136.719 62.217 137.798 61.9889 138.894 61.8415C139.517 61.756 140.147 61.6989 140.779 61.6704C141.254 61.649 141.727 61.6442 142.207 61.6561C142.369 61.6609 142.526 61.6656 142.687 61.6751C143.168 61.7013 143.641 61.7512 144.116 61.8177C144.774 61.9081 145.423 62.0316 146.072 62.198C146.091 62.1933 146.103 62.1885 146.122 62.198C146.141 62.198 146.153 62.2123 146.162 62.2242C146.177 62.2289 146.193 62.2337 146.208 62.2384C146.238 62.2479 146.265 62.2574 146.298 62.2693C146.298 62.2242 146.303 62.179 146.307 62.1338C146.298 62.1243 146.288 62.1148 146.276 62.1125L146.291 62.1029V62.1101Z" fill="#ECECEC"/>
<path d="M139.207 59.0298C139.176 58.892 139.041 58.8777 138.943 58.8326C137.037 57.9865 135.128 57.1356 133.213 56.299C132.702 56.0756 132.21 55.8166 131.682 55.6359C131.625 55.6716 131.561 55.6668 131.499 55.6454C130.187 55.2153 128.827 55.0014 127.456 54.9158C126.199 54.8397 124.936 54.9158 123.686 55.0822C122.657 55.22 121.645 55.4363 120.642 55.7049C118.695 56.2277 116.822 56.9407 115.018 57.832C114.324 58.1766 113.654 58.5664 112.967 58.9276C112.738 59.0489 112.501 59.1558 112.282 59.2865C110.321 60.4559 108.417 61.7131 106.613 63.113C106.162 63.4624 105.701 63.8022 105.28 64.1825C105.007 64.4297 104.743 64.6792 104.448 64.8931C104.393 64.9335 104.336 64.9739 104.27 65.0143C104.22 65.0595 104.172 65.0999 104.122 65.1403V65.1498C104.101 65.2068 104.077 65.2615 104.041 65.2924C104.02 65.3114 103.996 65.3186 103.97 65.3233H103.916C103.916 65.3233 103.889 65.3138 103.87 65.309C103.856 65.3186 103.844 65.3281 103.835 65.3352C103.678 65.4469 103.592 65.6394 103.45 65.7511C103.428 65.7701 103.404 65.782 103.383 65.7963C103.008 65.9935 102.779 66.3477 102.442 66.5877C102.119 66.8206 101.85 67.1296 101.555 67.4029C100.091 68.7505 98.7078 70.1789 97.3387 71.6191C96.918 72.0612 96.5425 72.5366 96.1384 72.9976C95.9055 73.2614 95.6464 73.4944 95.4182 73.7534C94.7955 74.464 94.1918 75.1961 93.5785 75.9114C93.1222 76.4438 92.692 76.9952 92.2855 77.5632C91.9623 78.0148 91.5772 78.4188 91.2326 78.8514C90.1891 80.1895 89.2004 81.568 88.2116 82.9441C87.2347 84.3011 86.341 85.7105 85.414 87.1033C84.5821 88.3534 83.8168 89.6463 83.0229 90.9273C82.7329 91.4027 82.4715 91.8947 82.1767 92.37C81.6705 93.1852 81.1998 94.0218 80.7577 94.8726C80.4797 95.203 80.3157 95.607 80.1041 95.9778C79.6644 96.7574 79.2437 97.544 78.8634 98.3545C78.7422 98.6135 78.5687 98.8346 78.4427 99.0936C78.0885 99.8138 77.732 100.536 77.3588 101.252C76.4319 103.051 75.6166 104.9 74.7704 106.739C73.853 108.726 73.0377 110.763 72.2319 112.8C71.6853 114.183 71.1362 115.566 70.7012 116.99C70.6299 117.223 70.4945 117.432 70.4136 117.663C69.9929 118.889 69.5722 120.111 69.1729 121.342C68.8021 122.475 68.4527 123.616 68.1152 124.757C67.792 125.857 67.483 126.96 67.1882 128.065C66.6107 130.209 66.083 132.367 65.6314 134.54C65.5149 135.117 65.3985 135.695 65.2868 136.272C64.9017 138.238 64.5618 140.215 64.2837 142.204C64.0246 144.094 63.8083 145.988 63.6396 147.885L63.5992 148.407C63.5184 149.446 63.4566 150.489 63.4162 151.538C63.3662 152.733 63.3591 153.929 63.3496 155.124C63.3496 155.692 63.4067 156.265 63.4043 156.838C63.3948 157.71 63.4708 158.58 63.5207 159.447C63.5398 159.766 63.5516 160.087 63.5825 160.41C63.5873 160.464 63.5968 160.521 63.6016 160.576C63.7038 161.413 63.7727 162.254 63.8892 163.088C64.0009 163.899 64.1126 164.709 64.2599 165.51C64.4739 166.63 64.6759 167.749 65.0205 168.835C65.1275 169.175 65.1869 169.534 65.2844 169.883C65.4912 170.644 65.736 171.397 66.0046 172.134C66.3944 173.194 66.8412 174.233 67.3261 175.255C68.0748 176.821 68.9994 178.28 70.088 179.632C71.1172 180.918 72.2961 182.049 73.6438 182.998C73.6985 183.038 73.7555 183.074 73.8149 183.109C73.9124 183.171 74.0122 183.235 74.1097 183.297C74.1643 183.333 74.2214 183.369 74.2808 183.404C74.4686 183.521 74.6516 183.642 74.8322 183.77C74.8322 183.77 74.837 183.77 74.8417 183.775C74.8964 183.815 74.9487 183.856 75.0034 183.901C75.0034 183.91 75.0129 183.92 75.0176 183.927C75.0485 183.972 75.1127 183.977 75.1602 183.998C77.4872 185.027 79.8118 186.057 82.1387 187.088C82.2338 187.128 82.3217 187.19 82.4334 187.164C82.4192 187.143 82.412 187.124 82.3978 187.102C82.3003 186.972 82.1435 186.924 82.008 186.839C81.2973 186.387 80.6199 185.881 79.99 185.329C79.6549 185.039 79.3269 184.73 79.0131 184.412C77.8128 183.195 76.8027 181.843 75.9422 180.395C75.6285 179.868 75.3337 179.326 75.0557 178.77C74.8893 178.439 74.7277 178.102 74.5755 177.762C74.509 177.615 74.4448 177.472 74.383 177.322C74.3212 177.175 74.257 177.032 74.1952 176.883C73.3182 174.779 72.6812 172.602 72.2034 170.382C72.0608 169.724 71.9348 169.061 71.8184 168.395C71.5854 167.034 71.4119 165.669 71.2812 164.296C71.1505 162.927 71.0744 161.546 71.0316 160.167C70.9865 158.708 70.996 157.244 71.0411 155.785C71.0459 155.687 71.0459 155.587 71.0506 155.49C71.0768 154.729 71.1124 153.969 71.1528 153.206C71.198 152.45 71.2503 151.687 71.3145 150.932C71.3287 150.765 71.3454 150.601 71.3691 150.368C71.3691 150.347 71.3739 150.323 71.3739 150.302C71.4 149.998 71.4286 149.693 71.4642 149.389C71.6021 148.027 71.778 146.673 71.9705 145.32C72.1725 143.916 72.4007 142.518 72.6503 141.125C72.6812 140.954 72.7168 140.79 72.7477 140.619C72.7525 140.588 72.762 140.557 72.7667 140.522C72.7858 140.436 72.7976 140.351 72.8166 140.267C72.8571 140.053 72.8975 139.842 72.9379 139.633C73.1114 138.742 73.2968 137.85 73.4941 136.964C73.7222 135.925 73.9694 134.891 74.2238 133.862C74.5066 132.717 74.8013 131.573 75.1151 130.437C75.1151 130.418 75.1246 130.402 75.1293 130.383C75.3314 129.658 75.5405 128.933 75.7568 128.21C76.2797 126.456 76.8217 124.705 77.404 122.967C77.7225 122.026 78.0529 121.092 78.388 120.161C79.0226 118.402 79.6905 116.655 80.3941 114.927C81.7156 111.664 83.1465 108.446 84.701 105.275C84.9886 104.688 85.2785 104.104 85.5733 103.521C86.2721 102.143 86.997 100.772 87.741 99.4169C87.9383 99.0532 88.1403 98.692 88.3376 98.3331C88.3566 98.307 88.3732 98.2761 88.3875 98.2475C88.4089 98.2071 88.4279 98.1667 88.4231 98.1168C88.4493 98.0717 88.4802 98.0265 88.5039 97.9861C88.7179 97.6058 88.9342 97.2256 89.1528 96.8453C89.5925 96.0895 90.0299 95.3361 90.4815 94.5851C90.8 94.0574 91.1209 93.5274 91.4441 93.0046C91.8078 92.4128 92.1738 91.8281 92.5494 91.2458C93.02 90.5114 93.4977 89.777 93.9826 89.0521C94.4936 88.2868 95.0118 87.5334 95.5395 86.7824C95.8532 86.3308 96.1717 85.8816 96.4878 85.4301V85.4039C96.4878 85.4039 96.4926 85.3897 96.4973 85.3849C96.5068 85.3707 96.5235 85.3659 96.5425 85.3659C96.6328 85.2399 96.716 85.1116 96.8111 84.9856C100.338 80.1419 104.194 75.5763 108.531 71.4314C110.093 69.9412 111.704 68.5176 113.394 67.1795C114.067 66.6424 114.752 66.1219 115.45 65.6133L115.624 65.4873C115.914 65.2758 116.211 65.0714 116.506 64.8646C117.93 63.8807 119.389 62.9609 120.898 62.1386C121.186 61.9817 121.476 61.8296 121.766 61.6822C121.984 61.5705 122.201 61.4588 122.419 61.3519C122.607 61.2568 122.795 61.1689 122.983 61.0785C123.739 60.7244 124.504 60.3941 125.288 60.0946C127.777 59.1368 130.339 58.4832 133.011 58.3406C135.026 58.2337 137.009 58.4119 138.95 58.9989C139.036 59.0251 139.122 59.0655 139.21 59.0298L139.214 59.0251L139.207 59.0298Z" fill="#C4C4C4"/>
<path d="M96.4881 85.3874C96.4881 85.3874 96.5145 85.3682 96.5338 85.3682C96.5338 85.3874 96.5241 85.3994 96.5145 85.409C96.5049 85.4187 96.4929 85.4235 96.4736 85.4283V85.4018C96.4736 85.4018 96.4784 85.3874 96.4832 85.3826L96.4881 85.3874Z" fill="#8C8C8C"/>
<path d="M103.911 65.1857C103.937 65.1547 103.968 65.1356 104.013 65.1309C104.04 65.1309 104.076 65.1309 104.111 65.1404V65.1499C104.09 65.2072 104.066 65.2621 104.03 65.2931C104.009 65.3122 103.985 65.3194 103.959 65.3241H103.904C103.904 65.3241 103.877 65.3146 103.858 65.3098C103.868 65.2549 103.885 65.212 103.913 65.1834H103.909L103.911 65.1857Z" fill="#8C8C8C"/>
<path d="M131.261 55.4528C129.529 54.678 127.791 53.927 126.068 53.1427C124.093 52.2419 122.044 51.6881 119.872 51.5859C119.325 51.5859 118.776 51.5859 118.229 51.5907H117.59C116.496 51.6477 115.417 51.8093 114.348 52.0375C111.191 52.7101 108.253 53.9436 105.439 55.4932C102.606 57.0499 99.9724 58.9133 97.4696 60.9548C97.1511 61.2139 96.8064 61.4516 96.5283 61.7653C96.507 61.7748 96.4832 61.7914 96.4713 61.8152V61.8413H96.4452C96.3738 61.8984 96.3025 61.953 96.2312 62.0125C93.4598 64.3844 90.8857 66.9583 88.4494 69.6773C85.5567 72.9096 82.8899 76.3201 80.3942 79.8661C76.6792 85.1495 73.3872 90.6896 70.4542 96.4435C68.4742 100.32 66.675 104.282 65.0539 108.325C63.3664 112.541 61.8166 116.812 60.5735 121.185C60.4357 121.667 60.2646 122.147 60.1267 122.63C59.107 126.233 58.2228 129.869 57.5312 133.548C56.9393 136.669 56.4711 139.801 56.1621 142.962C55.9339 145.254 55.777 147.552 55.7865 149.857C55.7865 150.905 55.7913 151.953 55.796 152.999C55.8103 153.142 55.8151 153.287 55.8174 153.429C55.8222 153.653 55.8174 153.871 55.8079 154.097C55.8174 155.373 55.9244 156.64 56.0456 157.912C56.2477 159.984 56.5614 162.035 57.0225 164.063C57.5953 166.606 58.3797 169.073 59.4944 171.43C60.69 173.954 62.2064 176.253 64.2577 178.173C65.4532 179.292 66.77 180.236 68.2508 180.93C69.5676 181.548 70.901 182.125 72.2344 182.712C73.1471 183.117 74.0527 183.549 74.9845 183.908C74.9298 183.868 74.8775 183.822 74.8228 183.782C74.8228 183.782 74.8181 183.782 74.8133 183.777C74.6351 183.647 74.4497 183.528 74.2619 183.411C74.2049 183.376 74.1502 183.34 74.0908 183.304C73.9933 183.242 73.8935 183.183 73.796 183.117C73.739 183.081 73.6843 183.04 73.6249 183.005C72.2772 182.052 71.1054 180.923 70.0691 179.639C68.9805 178.287 68.0535 176.828 67.3072 175.262C66.8199 174.242 66.3707 173.203 65.9857 172.141C65.8835 172.046 65.7836 171.948 65.6862 171.851C65.7836 171.948 65.8835 172.048 65.9857 172.141C65.7171 171.402 65.4699 170.651 65.2655 169.89C65.1704 169.546 65.1086 169.187 65.0016 168.842C64.657 167.754 64.4502 166.634 64.241 165.517C64.0889 164.716 63.982 163.906 63.8703 163.095C63.7538 162.263 63.6825 161.422 63.5827 160.583C63.5779 160.528 63.5684 160.471 63.5636 160.417C63.5327 160.098 63.5185 159.777 63.5018 159.454C63.4567 158.587 63.3806 157.717 63.3854 156.845C63.3854 156.277 63.3283 155.704 63.3307 155.131C63.3402 153.936 63.3521 152.74 63.3973 151.545C63.4377 150.501 63.4995 149.458 63.5803 148.415L63.6207 147.892C63.7918 145.993 64.0057 144.101 64.2648 142.211C64.5429 140.224 64.8828 138.245 65.2678 136.279C65.3796 135.702 65.496 135.124 65.6125 134.547C66.0593 132.372 66.5941 130.219 67.1693 128.072C67.4641 126.967 67.7731 125.862 68.0963 124.764C68.4315 123.619 68.7809 122.48 69.154 121.349C69.5581 120.118 69.9788 118.891 70.3947 117.67C70.4708 117.437 70.6087 117.228 70.6823 116.997C71.1221 115.573 71.6664 114.19 72.213 112.807C73.0188 110.77 73.8341 108.738 74.7515 106.746C75.5977 104.912 76.413 103.058 77.3399 101.259C77.706 100.543 78.0696 99.8208 78.4238 99.1007C78.5498 98.8463 78.728 98.6206 78.8445 98.3615C79.2248 97.551 79.6455 96.7644 80.0852 95.9848C80.2967 95.6141 80.4608 95.21 80.7388 94.8797C81.1809 94.0288 81.6516 93.1922 82.1578 92.377C82.4526 91.9064 82.714 91.4097 83.004 90.9344C83.7931 89.6533 84.5585 88.3652 85.3951 87.1103C86.3221 85.7175 87.2182 84.3082 88.1927 82.9511C89.1815 81.5773 90.1726 80.1989 91.2137 78.8584C91.5536 78.4187 91.9386 78.0218 92.2666 77.5703C92.6731 77.0022 93.1033 76.4508 93.5596 75.9185C94.1729 75.1983 94.7766 74.4687 95.3993 73.7604C95.6275 73.5014 95.8866 73.2685 96.1195 73.0046C96.5236 72.5483 96.8991 72.0682 97.3198 71.6262C98.6889 70.1835 100.072 68.7575 101.536 67.4099C101.831 67.1366 102.1 66.8276 102.423 66.5947C102.758 66.3523 102.982 65.9982 103.364 65.8033C103.386 65.789 103.414 65.7771 103.431 65.7581C103.573 65.6464 103.659 65.4539 103.816 65.3422C103.83 65.3327 103.842 65.3232 103.851 65.3161C103.861 65.2614 103.878 65.2186 103.906 65.1901C103.932 65.1592 103.963 65.1402 104.008 65.1354C104.034 65.1354 104.07 65.1354 104.106 65.1449C104.156 65.1045 104.203 65.0594 104.253 65.019C104.32 64.9738 104.374 64.9382 104.431 64.8978C104.726 64.6839 104.99 64.4367 105.263 64.1871C105.684 63.8021 106.15 63.467 106.597 63.1176C108.401 61.7154 110.305 60.4581 112.266 59.2912C112.489 59.1604 112.722 59.0535 112.95 58.9323C113.635 58.5663 114.307 58.1765 115.001 57.8366C116.805 56.9454 118.681 56.2347 120.625 55.7095C121.628 55.4409 122.641 55.2294 123.67 55.0868C124.92 54.9157 126.182 54.8444 127.439 54.9204C128.813 55.006 130.17 55.2199 131.482 55.6501C131.549 55.6715 131.608 55.6762 131.666 55.6406C131.554 55.5194 131.383 55.5194 131.245 55.4576H131.259L131.261 55.4528Z" fill="#626262"/>
<path d="M103.961 64.6844C103.961 64.6844 103.939 64.665 103.93 64.6626C103.944 64.6723 103.951 64.6771 103.961 64.6844Z" fill="#575757"/>
<path d="M103.728 64.5413C103.778 64.5627 103.823 64.5914 103.866 64.6176C103.821 64.5914 103.775 64.5627 103.728 64.5413Z" fill="#575757"/>
<path d="M119.871 51.5813H118.229C118.015 51.5908 117.799 51.5908 117.589 51.5908C117.58 51.5647 117.568 51.5361 117.559 51.51C118.338 51.51 119.12 51.51 119.9 51.5005L119.874 51.5813H119.871Z" fill="#CACACA"/>
<path d="M96.4569 61.8467H96.4424V61.8201H96.4739V61.8516H96.4593L96.4545 61.8467H96.4569Z" fill="#8C8C8C"/>
<path opacity="0.48" d="M191.443 163.167C191.667 162.993 191.667 162.974 191.443 162.801C190.925 162.385 190.369 162.021 189.801 161.677C187.902 160.526 185.874 159.649 183.797 158.889C183.322 158.715 182.86 158.504 182.354 158.413C182.216 158.257 182.01 158.242 181.831 158.185C179.892 157.541 177.919 157.013 175.939 156.507C175.773 156.493 175.611 156.457 175.468 156.377C174.541 156.175 173.614 155.97 172.692 155.768C170.979 155.397 169.253 155.074 167.525 154.784C166.244 154.57 164.96 154.368 163.674 154.176C162.671 154.028 161.668 153.876 160.656 153.805C160.489 153.779 160.325 153.748 160.154 153.724C156.613 153.289 153.067 152.964 149.508 152.716C147.184 152.56 144.862 152.434 142.532 152.346C139.492 152.229 136.447 152.175 133.403 152.175C129.628 152.175 125.859 152.27 122.094 152.453C117.742 152.664 113.399 152.995 109.071 153.477C108.362 153.558 107.647 153.603 106.948 153.755C106.806 153.715 106.665 153.755 106.523 153.769C103.438 154.15 100.367 154.62 97.3148 155.198C95.5108 155.538 93.7162 155.913 91.9336 156.339L91.8979 156.396C91.8979 156.396 91.4368 163.029 92.4565 169.508C94.2154 169.924 95.9838 170.297 97.7569 170.627C99.3423 170.922 100.93 171.205 102.53 171.433C104.769 171.756 107.01 172.082 109.263 172.315C111.452 172.543 113.637 172.78 115.831 172.942C117.128 173.037 118.424 173.149 119.721 173.225C121.642 173.337 123.567 173.432 125.488 173.498C127.242 173.56 128.998 173.61 130.753 173.634C133.56 173.669 136.371 173.655 139.178 173.598C141.883 173.541 144.586 173.436 147.286 173.284C150.504 173.106 153.72 172.849 156.929 172.519C161.823 172.013 166.688 171.333 171.511 170.37C175.723 169.529 179.887 168.5 183.925 167.012C185.684 166.368 187.407 165.629 189.047 164.716C189.879 164.255 190.685 163.754 191.439 163.167V163.171L191.443 163.167Z" fill="url(#paint0_linear_2546_1860)"/>
</g>
<defs>
<linearGradient id="paint0_linear_2546_1860" x1="141.948" y1="154.639" x2="141.325" y2="170.698" gradientUnits="userSpaceOnUse">
<stop offset="0.16" stop-color="#191919"/>
<stop offset="0.97" stop-color="#191919" stop-opacity="0"/>
</linearGradient>
<clipPath id="clip0_2546_1860">
<rect width="256" height="256" fill="white"/>
</clipPath>
</defs>
</svg>
