<svg width="256" height="256" viewBox="0 0 256 256" fill="none" xmlns="http://www.w3.org/2000/svg">
<path d="M256 127.998C256 161.946 242.514 194.504 218.509 218.509C194.504 242.514 161.946 256 127.998 256C94.0514 255.999 61.495 242.513 37.491 218.509C13.487 194.505 0.00116778 161.95 0 128.002C-2.00871e-08 94.0551 13.4853 61.4975 37.4895 37.4926C61.4936 13.4876 94.0505 0.00116783 127.998 0C161.946 -2.00871e-08 194.503 13.4853 218.508 37.4895C242.512 61.4935 255.999 94.0505 256 127.998Z" fill="#25134F"/>
<path fill-rule="evenodd" clip-rule="evenodd" d="M185.553 101.122C197.745 110.523 205.65 125.323 205.589 141.902C205.589 170.187 182.763 193.175 154.66 193.175C126.557 193.175 103.75 170.187 103.75 141.902V140.405L105.166 43.8436C105.166 42.7518 105.732 41.7611 106.743 41.3163C107.673 40.8918 108.805 41.0333 109.654 41.6803L185.25 100.919C185.412 100.98 185.472 101.061 185.553 101.122ZM109.654 117.781C118.287 101.627 135.19 90.5677 154.66 90.5677C157.935 90.5677 161.089 90.871 164.142 91.4371L110.665 49.5856L109.654 117.781ZM154.66 187.494C179.69 187.494 200.029 167.033 199.948 141.902C199.948 116.71 179.548 96.249 154.599 96.249C130.054 96.249 110.018 115.982 109.31 140.547V141.902C109.371 167.033 129.711 187.494 154.66 187.494Z" fill="url(#paint0_linear_1830_531)"/>
<path fill-rule="evenodd" clip-rule="evenodd" d="M155.225 122.816C168.428 132.076 177.122 147.502 177.061 164.89C177.061 193.175 154.235 216.143 126.131 216.143C98.0282 216.143 75.2222 193.175 75.2222 164.89V163.515L75.3637 63.799C75.3637 62.7274 75.9298 61.7165 76.9205 61.2717C77.9314 60.7865 79.0636 60.928 79.9128 61.6356L155.165 122.735C155.165 122.735 155.165 122.816 155.225 122.816ZM80.8428 141.396C89.2536 124.898 106.459 113.556 126.131 113.556C129.569 113.556 132.905 113.9 136.2 114.547L80.9237 69.6824L80.8428 141.396ZM171.501 164.809C171.501 139.617 151.101 119.156 126.131 119.156C101.101 119.156 80.7822 139.678 80.7822 164.809C80.7822 190.001 101.182 210.482 126.131 210.482C151.162 210.482 171.501 190.001 171.501 164.809Z" fill="url(#paint1_linear_1830_531)"/>
<path d="M78.1346 66.5909C77.2046 66.5909 76.3554 66.1663 75.7893 65.2969C74.9199 64.003 75.2838 62.2238 76.5778 61.3544L106.379 41.4597C107.673 40.6106 109.452 40.9745 110.302 42.2483C111.151 43.5422 110.807 45.3416 109.513 46.211L79.7116 66.0855C79.2062 66.4494 78.64 66.5909 78.1346 66.5909Z" fill="url(#paint2_linear_1830_531)"/>
<defs>
<linearGradient id="paint0_linear_1830_531" x1="102.315" y1="7645.71" x2="10293.1" y2="7645.71" gradientUnits="userSpaceOnUse">
<stop stop-color="#9588FF"/>
<stop offset="1" stop-color="#6D3CFF"/>
</linearGradient>
<linearGradient id="paint1_linear_1830_531" x1="72.3613" y1="7817.71" x2="10264.6" y2="7817.71" gradientUnits="userSpaceOnUse">
<stop stop-color="#C188FF"/>
<stop offset="1" stop-color="#8D50FF"/>
</linearGradient>
<linearGradient id="paint2_linear_1830_531" x1="75.8884" y1="1324.74" x2="3621.37" y2="1324.74" gradientUnits="userSpaceOnUse">
<stop stop-color="#C188FF"/>
<stop offset="1" stop-color="#9281FF"/>
</linearGradient>
</defs>
</svg>
