<svg width="256" height="256" viewBox="0 0 256 256" fill="none" xmlns="http://www.w3.org/2000/svg">
<path d="M253.5 127.998C253.5 161.283 240.278 193.205 216.742 216.742C193.205 240.278 161.283 253.5 127.998 253.5C94.7145 253.499 62.794 240.277 39.2587 216.742C15.7236 193.206 2.50114 161.286 2.5 128.002C2.5 94.7181 15.722 62.7964 39.2573 39.2603C62.7926 15.7242 94.7136 2.50115 127.998 2.5C161.283 2.5 193.204 15.722 216.74 39.2573C240.276 62.7925 253.499 94.7136 253.5 127.998Z" fill="black" stroke="#EBF27B" stroke-width="5"/>
<g filter="url(#filter0_d_1886_5638)">
<path d="M184.353 158.965H179.287C175.76 158.579 169.298 157.895 165.875 157.602L162 172.18C164.186 169.076 169.988 163.47 175.71 165.873C182.863 168.876 179.287 177.585 179.287 180.889C179.287 183.532 182.665 186.795 184.353 188.097L196.871 189.898C200.547 190.399 206.707 189.298 201.938 180.889C195.977 170.378 190.314 174.282 196.871 172.18C203.428 170.077 207.601 168.876 210.88 162.87C214.158 156.863 209.687 157.464 204.621 155.061C200.567 153.139 196.772 154.26 195.381 155.061L184.353 158.965Z" fill="#D30520"/>
</g>
<g filter="url(#filter1_d_1886_5638)">
<path d="M138.827 216.016C139.716 207.178 171.979 179.007 188 166.027C154.106 159.122 84.597 147.081 77.7072 154.151C69.0949 162.989 78.2628 167.408 77.7072 176.522C77.1515 185.636 130.492 216.016 134.659 223.196C138.827 230.377 137.715 227.063 138.827 216.016Z" fill="#D30520"/>
</g>
<g filter="url(#filter2_d_1886_5638)">
<path d="M84.1166 84.2771L95.3991 88.506L110 76.1446L98.0538 68.012L93.7399 60.8554C91.7489 58.9036 87.5013 55 86.4395 55H74.8251L65.2018 58.9036L74.8251 60.8554L62.2152 65.7349L49.9372 76.1446L36 101.518L37.991 109L49.9372 106.723L59.2287 101.518L71.5067 91.759L81.13 79.7229L84.1166 84.2771Z" fill="#6F6E71"/>
<path d="M84.1166 84.2771L95.3991 88.506L110 76.1446L98.0538 68.012L93.7399 60.8554C91.7489 58.9036 87.5013 55 86.4395 55H74.8251L65.2018 58.9036L74.8251 60.8554L62.2152 65.7349L49.9372 76.1446L36 101.518L37.991 109L49.9372 106.723L59.2287 101.518L71.5067 91.759L81.13 79.7229L84.1166 84.2771Z" stroke="black" stroke-opacity="0.1"/>
</g>
<g filter="url(#filter3_d_1886_5638)">
<path d="M156.332 192.206L140.028 203.939L137.481 199.858L132.896 207L116.082 195.267L96.7215 187.105L76.3418 170.27L65.6424 146.294L62.076 150.885L58 146.294L65.6424 125.888H58L68.6994 109.564H62.076L79.3987 94.2601L91.1171 76.9155L106.402 64.1622H116.082L110.987 61.6115H143.085L140.283 57.2753L147.671 58.5507L171.108 68.7534L179.769 58.5507L189.449 56L200.658 61.6115H191.997L200.658 64.1622L203.715 68.7534L211.358 76.9155L219 94.2601V100.382H211.358L185.883 82.527V87.6284L207.791 113.135H200.658L211.358 134.561H207.791V150.885L203.715 146.294L196.582 166.189L179.769 184.044L156.332 192.206Z" fill="white"/>
<path d="M132.896 56L140.283 57.2753M140.283 57.2753L147.671 58.5507L171.108 68.7534L179.769 58.5507L189.449 56L200.658 61.6115H191.997L200.658 64.1622L203.715 68.7534L211.358 76.9155L219 94.2601V100.382H211.358L185.883 82.527V87.6284L207.791 113.135H200.658L211.358 134.561H207.791V150.885L203.715 146.294L196.582 166.189L179.769 184.044L156.332 192.206L140.028 203.939L137.481 199.858L132.896 207L116.082 195.267L96.7215 187.105L76.3418 170.27L65.6424 146.294L62.076 150.885L58 146.294L65.6424 125.888H58L68.6994 109.564H62.076L79.3987 94.2601L91.1171 76.9155L106.402 64.1622H116.082L110.987 61.6115H143.085L140.283 57.2753Z" stroke="black" stroke-opacity="0.1"/>
</g>
<path d="M126.71 172.821C127.85 169.34 127.185 165.181 126.71 163.537L125 147L148.371 149.611V163.537C148.846 169.92 149.511 183.091 148.371 184.716C146.945 186.747 141.245 194 136.115 194C132.011 194 128.135 191.099 126.71 189.648L125 182.685C125.095 180.848 125.57 176.302 126.71 172.821Z" fill="#EB7A7C" stroke="black" stroke-opacity="0.1"/>
<path d="M97 159.5V155.333L100.056 153.51L108.714 159.5L123.484 155.333L126.795 147H137.491L153.025 163.667H172.888L179 155.333L176.963 162.365L172.888 167.312L164.739 170.438H153.025L145.385 167.312L137.491 159.5L133.161 165.49L125.267 170.438L113.044 172L103.621 167.312L97 159.5Z" fill="#A76D52" stroke="black" stroke-opacity="0.1"/>
<path d="M181.515 140.821L177.804 152H174.711L166.052 143.305L158.01 140.821V136.784L153.99 131.816L148.423 128.4L141 127.158V122.811L142.856 113.805V107.284L141 96.1053L142.856 94.5526H149.351L161.103 96.1053L166.052 93H177.804L183.68 99.2105L189.557 110.7L201 124.674V131.816L197.598 136.784L181.515 140.821Z" fill="#6F6E71" stroke="black" stroke-opacity="0.1"/>
<path d="M98.4206 147.374C103.574 141.893 108.619 139.507 110.498 139H113.719L129.822 142.299V150.674L135.459 151.942C136.622 152.45 138.25 154.632 135.459 159.302C131.97 165.139 126.065 167.676 116.671 169.707C109.156 171.331 102.625 165.815 100.299 162.855C97.5259 159.979 93.2674 152.856 98.4206 147.374Z" fill="#F7C2A0" stroke="black" stroke-opacity="0.1"/>
<path d="M177.579 144.915C172.426 139.08 167.381 136.54 165.502 136H162.281L146.177 139.512V148.427L140.541 149.777C139.378 150.318 137.75 152.641 140.541 157.612C144.03 163.825 149.935 166.527 159.329 168.688C166.844 170.417 173.375 164.545 175.701 161.394C178.474 158.332 182.733 150.75 177.579 144.915Z" fill="#F6C3A0" stroke="black" stroke-opacity="0.1"/>
<path d="M125.553 143.887L123.383 147.24C125.011 148.73 130.219 151.766 138.031 151.989C145.843 152.213 149.605 148.916 150.509 147.24L148.882 143.887H157.291C159.189 143.887 163.258 138.02 162.987 134.667C162.77 131.985 156.748 128.52 153.764 127.123C142.914 127.03 120.833 126.9 119.314 127.123C117.415 127.403 113.347 132.711 111.719 134.667C110.417 136.232 111.176 137.554 111.719 138.02L117.958 143.887H125.553Z" fill="black" stroke="black" stroke-opacity="0.1"/>
<path d="M103.379 123.368C107.133 122.059 108.928 117.416 107.387 112.998C105.847 108.581 101.554 106.062 97.7987 107.371C94.0439 108.681 92.2491 113.324 93.7899 117.741C95.3307 122.159 99.6237 124.678 103.379 123.368Z" fill="black"/>
<path d="M167.808 123.363C171.568 124.658 175.851 122.122 177.374 117.698C178.897 113.274 177.084 108.639 173.324 107.344C169.564 106.05 165.281 108.586 163.758 113.01C162.235 117.433 164.048 122.069 167.808 123.363Z" fill="black"/>
<defs>
<filter id="filter0_d_1886_5638" x="158" y="154" width="58" height="44" filterUnits="userSpaceOnUse" color-interpolation-filters="sRGB">
<feFlood flood-opacity="0" result="BackgroundImageFix"/>
<feColorMatrix in="SourceAlpha" type="matrix" values="0 0 0 0 0 0 0 0 0 0 0 0 0 0 0 0 0 0 127 0" result="hardAlpha"/>
<feOffset dy="4"/>
<feGaussianBlur stdDeviation="2"/>
<feComposite in2="hardAlpha" operator="out"/>
<feColorMatrix type="matrix" values="0 0 0 0 0 0 0 0 0 0 0 0 0 0 0 0 0 0 0.25 0"/>
<feBlend mode="normal" in2="BackgroundImageFix" result="effect1_dropShadow_1886_5638"/>
<feBlend mode="normal" in="SourceGraphic" in2="effect1_dropShadow_1886_5638" result="shape"/>
</filter>
<filter id="filter1_d_1886_5638" x="70" y="152" width="122" height="83" filterUnits="userSpaceOnUse" color-interpolation-filters="sRGB">
<feFlood flood-opacity="0" result="BackgroundImageFix"/>
<feColorMatrix in="SourceAlpha" type="matrix" values="0 0 0 0 0 0 0 0 0 0 0 0 0 0 0 0 0 0 127 0" result="hardAlpha"/>
<feOffset dy="4"/>
<feGaussianBlur stdDeviation="2"/>
<feComposite in2="hardAlpha" operator="out"/>
<feColorMatrix type="matrix" values="0 0 0 0 0 0 0 0 0 0 0 0 0 0 0 0 0 0 0.25 0"/>
<feBlend mode="normal" in2="BackgroundImageFix" result="effect1_dropShadow_1886_5638"/>
<feBlend mode="normal" in="SourceGraphic" in2="effect1_dropShadow_1886_5638" result="shape"/>
</filter>
<filter id="filter2_d_1886_5638" x="31.4648" y="54.5" width="83.3604" height="63.0781" filterUnits="userSpaceOnUse" color-interpolation-filters="sRGB">
<feFlood flood-opacity="0" result="BackgroundImageFix"/>
<feColorMatrix in="SourceAlpha" type="matrix" values="0 0 0 0 0 0 0 0 0 0 0 0 0 0 0 0 0 0 127 0" result="hardAlpha"/>
<feOffset dy="4"/>
<feGaussianBlur stdDeviation="2"/>
<feComposite in2="hardAlpha" operator="out"/>
<feColorMatrix type="matrix" values="0 0 0 0 0 0 0 0 0 0 0 0 0 0 0 0 0 0 0.25 0"/>
<feBlend mode="normal" in2="BackgroundImageFix" result="effect1_dropShadow_1886_5638"/>
<feBlend mode="normal" in="SourceGraphic" in2="effect1_dropShadow_1886_5638" result="shape"/>
</filter>
<filter id="filter3_d_1886_5638" x="53.0742" y="55.4683" width="170.426" height="160.239" filterUnits="userSpaceOnUse" color-interpolation-filters="sRGB">
<feFlood flood-opacity="0" result="BackgroundImageFix"/>
<feColorMatrix in="SourceAlpha" type="matrix" values="0 0 0 0 0 0 0 0 0 0 0 0 0 0 0 0 0 0 127 0" result="hardAlpha"/>
<feOffset dy="4"/>
<feGaussianBlur stdDeviation="2"/>
<feComposite in2="hardAlpha" operator="out"/>
<feColorMatrix type="matrix" values="0 0 0 0 0 0 0 0 0 0 0 0 0 0 0 0 0 0 0.25 0"/>
<feBlend mode="normal" in2="BackgroundImageFix" result="effect1_dropShadow_1886_5638"/>
<feBlend mode="normal" in="SourceGraphic" in2="effect1_dropShadow_1886_5638" result="shape"/>
</filter>
</defs>
</svg>
