<svg width="256" height="256" viewBox="0 0 256 256" fill="none" xmlns="http://www.w3.org/2000/svg">
<g clip-path="url(#clip0_2570_3534)">
<path d="M256 128C256 57.3076 198.692 0 128 0C57.3076 0 0 57.3076 0 128C0 198.692 57.3076 256 128 256C198.692 256 256 198.692 256 128Z" fill="black"/>
<path d="M78.2301 90.9134C105.717 63.5816 150.283 63.5816 177.77 90.9134L201.514 114.523L177.77 138.132C150.283 165.463 105.717 165.463 78.2301 138.132L54.4863 114.523L78.2301 90.9134Z" fill="black"/>
<path fill-rule="evenodd" clip-rule="evenodd" d="M37.3335 114.56L91.2434 60.6125H164.757L218.667 114.56L128 205.189L37.3335 114.56ZM169.658 94.9187C146.752 71.9123 109.248 71.9123 86.3426 94.9187L66.7388 114.523L86.3426 134.126C109.248 157.133 146.752 157.133 169.658 134.126L189.261 114.523L169.658 94.9187Z" fill="#0CE466"/>
<path d="M128 131.676C118.531 131.676 110.847 124 110.847 114.523C110.847 105.045 118.531 97.3694 128 97.3694C137.47 97.3694 145.153 105.045 145.153 114.523C145.153 124 137.47 131.676 128 131.676Z" fill="black"/>
<path fill-rule="evenodd" clip-rule="evenodd" d="M99.8198 114.523C99.8198 130.092 112.443 142.703 128 142.703C143.557 142.703 156.18 130.092 156.18 114.523C156.18 98.9527 143.557 86.3423 128 86.3423C112.443 86.3423 99.8198 98.9527 99.8198 114.523ZM115.748 114.523C115.748 121.292 121.236 126.775 128 126.775C134.764 126.775 140.252 121.292 140.252 114.523C140.252 107.753 134.764 102.27 128 102.27C121.236 102.27 115.748 107.753 115.748 114.523Z" fill="white"/>
</g>
<defs>
<clipPath id="clip0_2570_3534">
<rect width="256" height="256" fill="white"/>
</clipPath>
</defs>
</svg>
