<svg width="256" height="256" viewBox="0 0 256 256" fill="none" xmlns="http://www.w3.org/2000/svg">
<g clip-path="url(#clip0_1927_124)">
<mask id="mask0_1927_124" style="mask-type:luminance" maskUnits="userSpaceOnUse" x="0" y="0" width="256" height="256">
<path d="M256 0H0V256H256V0Z" fill="white"/>
</mask>
<g mask="url(#mask0_1927_124)">
<path d="M127.999 255.998C198.691 255.998 255.998 198.691 255.998 127.999C255.998 57.3073 198.691 0 127.999 0C57.3073 0 0 57.3073 0 127.999C0 198.691 57.3073 255.998 127.999 255.998Z" fill="#1A0FF4"/>
<path d="M182.887 185.727C178.489 185.42 174.926 183.572 171.583 181.196C156.981 170.772 141.806 161.228 127.643 150.231C123.112 146.713 122.981 146.8 119.682 151.507C112.03 162.415 104.86 173.632 96.5032 184.011C93.952 187.178 91.4448 190.433 88.0592 192.764C83.3968 195.931 78.1187 196.018 74.3802 193.117C70.6418 190.214 69.4982 185.156 71.3455 179.834C72.7966 175.612 75.7439 172.401 78.4712 169.014C86.828 158.677 95.1848 148.297 103.454 137.873C107.149 133.21 107.062 133.122 102.618 128.856C93.6448 120.146 84.628 111.526 75.7439 102.729C72.0929 99.0784 68.662 95.2088 66.5946 90.3704C65.231 87.1592 65.1436 83.992 67.5621 81.2208C70.3331 78.0101 74.2478 78.0538 78.2499 81.8376C88.5416 91.5576 99.9344 99.9144 110.754 108.975C120.298 116.935 120.254 116.761 128.523 107.787C133.845 101.982 139.474 96.4832 145.017 90.8976C145.984 89.9304 147.04 89.0944 148.138 88.3032C152.581 85.136 155.265 84.828 157.595 87.292C160.499 90.3264 159.135 93.4504 157.332 96.2208C151.702 104.842 145.851 113.374 140.09 121.908C135.736 128.374 134.856 127.801 142.334 132.948C155.09 141.701 168.417 149.618 181.612 157.667C185.57 160.086 189.573 162.462 192.213 166.42C194.983 170.554 195.731 174.953 193.4 179.528C191.2 183.706 187.373 185.463 182.887 185.727Z" fill="#F2F2F2"/>
<path d="M170.747 69.4777C161.686 73.4361 154.517 76.6033 147.304 79.7255C144.577 80.9128 141.805 82.1 138.947 82.9368C134.153 84.344 130.721 82.98 129.271 79.5055C127.951 76.3382 129.314 73.2597 133.185 70.7087C133.845 70.2688 134.593 69.8725 135.34 69.5213C148.095 63.4956 160.763 57.1625 173.958 52.1041C175.234 51.6204 176.509 51.1367 177.829 50.7842C188.165 47.8807 194.015 53.1153 191.641 63.6281C189.397 73.4361 186.231 82.9816 182.404 92.3056C181.26 95.0768 179.809 97.7152 177.609 99.8264C172.727 104.532 167.845 103.258 166.085 96.7912C164.677 91.6456 165.513 86.544 167.053 81.5288C168.02 78.1869 169.076 74.8871 170.747 69.4777Z" fill="#F2F2F2"/>
</g>
</g>
<defs>
<clipPath id="clip0_1927_124">
<rect width="256" height="256" fill="white"/>
</clipPath>
</defs>
</svg>
