<svg width="256" height="256" viewBox="0 0 256 256" fill="none" xmlns="http://www.w3.org/2000/svg">
<path fill-rule="evenodd" clip-rule="evenodd" d="M247 128C247 193.722 193.722 247 128 247C62.2781 247 9 193.722 9 128C9 62.2781 62.2781 9 128 9C193.722 9 247 62.2781 247 128ZM178.992 221.066L221.066 178.992L201.055 158.983C193.03 177.884 177.884 193.03 158.983 201.055L178.992 221.066ZM102.543 203.161C82.9111 196.514 66.7264 182.391 57.3783 164.18L41.1562 180.403L83.229 222.475L102.543 203.161ZM54.9445 97.0174C62.9704 78.1167 78.1167 62.9704 97.0174 54.9445L80.8228 38.75L38.75 80.8228L54.9445 97.0174ZM164.18 57.3783L181.399 40.1596L223.472 82.2324L203.161 102.543C196.514 82.9111 182.391 66.7264 164.18 57.3783Z" fill="#060710"/>
<path d="M97.8796 87.0742L129.501 69L161.121 87.0742L149.496 93.7515L129.501 82.3542L109.504 93.7515L97.8796 87.0742ZM161.121 109.868L149.496 103.191L129.501 114.588L109.504 103.191L97.8796 109.868V123.222L117.875 134.62V157.413L129.501 164.09L141.125 157.413V134.62L161.121 123.222V109.868ZM161.121 146.017V132.662L149.496 139.34V152.693L161.121 146.017ZM169.375 150.737L149.379 162.133V175.488L181 157.413V121.265L169.375 127.942V150.737ZM157.749 98.4715L169.375 105.148V118.502L181 111.825V98.4715L169.375 91.7937L157.749 98.4715ZM117.875 166.969V180.323L129.501 187L141.125 180.323V166.969L129.501 173.645L117.875 166.969ZM97.8796 146.017L109.504 152.693V139.34L97.8796 132.662V146.017ZM117.875 98.4715L129.501 105.148L141.125 98.4715L129.501 91.7937L117.875 98.4715ZM89.6255 105.148L101.251 98.4715L89.6255 91.7937L78 98.4715V111.825L89.6255 118.502V105.148ZM89.6255 127.942L78 121.265V157.413L109.621 175.488V162.133L89.6255 150.737V127.942Z" fill="white"/>
<path d="M253 128C253 58.9644 197.036 3 128 3C58.9644 3 3 58.9644 3 128C3 197.036 58.9644 253 128 253C197.036 253 253 197.036 253 128Z" stroke="white" stroke-width="1.2"/>
</svg>
