<svg width="256" height="256" viewBox="0 0 256 256" fill="none" xmlns="http://www.w3.org/2000/svg">
<g clip-path="url(#clip0_2337_24)">
<path d="M256 128C256 57.3076 198.692 0 128 0C57.3076 0 0 57.3076 0 128C0 198.692 57.3076 256 128 256C198.692 256 256 198.692 256 128Z" fill="url(#paint0_linear_2337_24)"/>
<path d="M173.623 127.098L132.711 151.082V103.115L173.623 79.1309V127.098ZM188.743 182.171L132.711 215.038V167.07L188.743 134.204V182.171ZM75.79 127.098L116.702 151.082V103.115L75.79 79.1309V127.098ZM75.79 191.054L116.702 215.038V167.07L75.79 143.087V191.054ZM124.158 91.4222L82.9052 68.0274L124.498 44.0439L165.751 67.4386L124.158 91.4222Z" fill="black"/>
</g>
<defs>
<linearGradient id="paint0_linear_2337_24" x1="184.533" y1="184.533" x2="0" y2="0" gradientUnits="userSpaceOnUse">
<stop stop-color="#10BBD8"/>
<stop offset="1" stop-color="#67D79F"/>
</linearGradient>
<clipPath id="clip0_2337_24">
<rect width="256" height="256" fill="white"/>
</clipPath>
</defs>
</svg>
