<svg width="256" height="256" viewBox="0 0 256 256" fill="none" xmlns="http://www.w3.org/2000/svg">
<path d="M256 127.998C256 161.946 242.514 194.504 218.509 218.509C194.504 242.514 161.946 256 127.998 256C94.0514 255.999 61.495 242.513 37.491 218.509C13.487 194.505 0.00116778 161.95 0 128.002C-2.00871e-08 94.0551 13.4853 61.4975 37.4895 37.4926C61.4936 13.4876 94.0505 0.00116783 127.998 0C161.946 -2.00871e-08 194.503 13.4853 218.508 37.4895C242.512 61.4935 255.999 94.0505 256 127.998Z" fill="white"/>
<path d="M130.092 150.925H61V50H130.092C153.809 50 173.027 69.2178 173.027 92.9212V107.99C173.027 131.707 153.809 150.925 130.092 150.925Z" fill="#AEDB01"/>
<path d="M147.894 201.388H61V150.925C61 123.058 83.596 100.462 111.477 100.462H147.894C175.774 100.462 198.37 123.058 198.37 150.925C198.37 178.792 175.774 201.388 147.894 201.388Z" fill="#B0B1AC"/>
<path d="M173.027 107.163V108.004C173.027 131.721 153.809 150.925 130.078 150.925H61C61 136.992 66.663 124.376 75.7743 115.237C84.9137 106.097 97.5293 100.462 111.491 100.462H147.894C157.047 100.476 165.626 102.915 173.027 107.163Z" fill="#5D6D3C"/>
</svg>
