<svg width="256" height="256" viewBox="0 0 256 256" fill="none" xmlns="http://www.w3.org/2000/svg">
<g clip-path="url(#clip0_1739_118)">
<mask id="mask0_1739_118" style="mask-type:luminance" maskUnits="userSpaceOnUse" x="0" y="0" width="256" height="256">
<path d="M256 128C256 57.3076 198.692 0 128 0C57.3076 0 0 57.3076 0 128C0 198.692 57.3076 256 128 256C198.692 256 256 198.692 256 128Z" fill="white"/>
</mask>
<g mask="url(#mask0_1739_118)">
<mask id="mask1_1739_118" style="mask-type:luminance" maskUnits="userSpaceOnUse" x="0" y="0" width="256" height="256">
<path d="M256 0H0V256H256V0Z" fill="white"/>
</mask>
<g mask="url(#mask1_1739_118)">
<path d="M128 256C198.692 256 256 198.692 256 128C256 57.3075 198.692 0 128 0C57.3075 0 0 57.3075 0 128C0 198.692 57.3075 256 128 256Z" fill="#FDDE00"/>
<path d="M65.7017 90.5C65.7017 90.5 59.1016 98.85 61.3016 136.6C61.3016 136.6 46.8515 173.6 51.7515 192.5C56.6515 211.35 75.7517 210.4 75.7517 210.4C75.7517 210.4 106.401 237.35 129.901 213.6C153.452 189.8 110.301 97.65 110.301 97.65L104.902 65.7998C104.902 65.7998 99.0016 70.45 99.7517 101.1C100.502 131.75 87.7517 110.15 87.7517 110.15L65.7017 90.5Z" fill="#3C2D0C"/>
<path d="M68.1498 123.849L60.0499 146.649L57.0999 162.599C57.0999 162.599 47.0499 198.15 88.4998 197.65C88.4998 197.65 120.85 226.599 141.95 207.2L147.6 201.049L157.4 185.849L173.6 137.55C173.6 137.55 168.45 104.45 135.85 90.7499C135.85 90.7499 133.15 89.2997 128.25 91.2497C128.25 91.2497 114.75 60.8496 106.2 64.5496C106.2 64.5496 98.8499 68.4497 105.2 98.3998L93.6998 103.55C93.6998 103.55 81.1002 79.6497 69.4496 84.4497C58.5999 88.7998 68.1498 123.849 68.1498 123.849Z" fill="#E78C19"/>
<path d="M110.051 79.4505L111.051 92.7004C111.051 92.7004 111.801 100.3 119.851 97.6002C122.151 96.8501 124.151 95.2501 123.951 92.6505C123.801 90.7004 122.451 88.9001 121.551 87.2501C119.901 84.1001 118.551 80.7503 116.601 77.7001C115.601 76.1506 113.551 72.7004 111.301 73.1004C111.301 73.1004 109.601 72.6005 110.051 79.4505Z" fill="#EFB99D"/>
<path d="M74.6496 94.35C74.8 94.2501 78.0999 90.0998 84.9498 100.2C91.7997 110.3 91.0995 109 91.0995 109C91.0995 109 94.8 113.05 87.2499 118.25C85.6 119.45 83.7997 120.45 81.8995 121.25C80.6995 121.7 79.4496 121.95 78.1997 121.95C76.7501 121.9 76.0999 121.15 75.7498 119.8C74.5997 115.4 73.2998 111 72.6496 106.5C72.1498 103 71.1501 96.5996 74.6496 94.35Z" fill="#EFB99D"/>
<path d="M154.25 114.7C154.25 117.1 150.75 119.05 146.4 119.05C142.05 119.05 138.55 117.1 138.55 114.7C138.55 112.3 142.15 108.75 146.45 108.75C150.75 108.75 154.25 112.3 154.25 114.7Z" fill="#FBFBFB"/>
<path d="M108.978 133.479C111.304 129.37 111.046 124.825 108.402 123.33C105.759 121.833 101.73 123.952 99.4048 128.062C97.079 132.171 97.337 136.716 99.9802 138.212C102.624 139.708 106.652 137.589 108.978 133.479Z" fill="#FBFBFB"/>
<path d="M120.099 153.35L141.549 142.2C141.549 142.2 168.25 128.25 174.749 139C181.249 149.75 174.749 166.2 174.749 166.2C174.749 166.2 171.949 185.45 152.3 187.15L141.749 188.6L128.25 188.95C128.25 188.95 106.549 190.2 90.5997 178.4L85.5494 172.25C85.5494 172.25 75.3997 158.3 82.4992 148.25C89.5994 138.2 113.9 153.75 113.9 153.75C113.9 153.75 117.299 155.6 120.099 153.35Z" fill="#FBFBFB"/>
<path d="M168.75 97.7497C171.594 97.7497 173.9 95.4444 173.9 92.6003C173.9 89.7555 171.594 87.4502 168.75 87.4502C165.906 87.4502 163.6 89.7555 163.6 92.6003C163.6 95.4444 165.906 97.7497 168.75 97.7497Z" fill="#E72D36"/>
<path d="M157.35 85.1C160.195 85.1 162.5 82.794 162.5 79.9499C162.5 77.1057 160.195 74.7998 157.35 74.7998C154.506 74.7998 152.2 77.1057 152.2 79.9499C152.2 82.794 154.506 85.1 157.35 85.1Z" fill="#E72D36"/>
<path d="M139.1 81.0502C141.944 81.0502 144.25 78.7442 144.25 75.9001C144.25 73.0559 141.944 70.75 139.1 70.75C136.256 70.75 133.95 73.0559 133.95 75.9001C133.95 78.7442 136.256 81.0502 139.1 81.0502Z" fill="#E72D36"/>
<path d="M143.15 39.4004C144.25 54.6004 142.05 68.3505 138.35 68.3505C134.65 68.3505 129.75 53.5004 129.75 39.4004C129.75 33.6004 132.8 32.6504 136.5 32.6504C140.25 32.6504 142.75 33.6004 143.15 39.4004Z" fill="#E72D36"/>
<path d="M177.249 48.8512C171.649 63.0012 163.699 74.451 160.399 72.851C157.1 71.251 159.1 55.7512 165.249 43.0512C167.8 37.8012 170.95 38.3012 174.25 39.9012C177.549 41.5512 179.4 43.4512 177.249 48.8512Z" fill="#E72D36"/>
<path d="M201.65 76.4503C189.3 85.4007 176.5 90.8004 174.55 87.6503C172.6 84.5002 182.65 72.5508 194.6 65.1005C199.549 62.0505 201.949 64.1508 203.9 67.2503C205.8 70.4004 206.349 73.0007 201.65 76.4503Z" fill="#E72D36"/>
<path d="M119.1 138.4C118.65 138.449 118.2 138.499 117.75 138.549C117.8 138.7 117.85 138.849 117.85 139.05C117.85 140.599 115.4 141.9 112.35 142C112.35 142.149 112.3 142.25 112.35 142.4C112.5 144.3 115.8 145.6 119.651 145.299C123.55 144.999 126.6 143.2 126.451 141.299C126.25 139.399 123 138.099 119.1 138.4Z" fill="black"/>
<path d="M146.2 131.699C145.75 131.749 145.3 131.799 144.851 131.85C144.9 131.999 144.95 132.149 144.95 132.35C144.95 133.9 142.5 135.199 139.45 135.299C139.45 135.45 139.4 135.55 139.45 135.699C139.601 137.599 142.9 138.899 146.75 138.599C150.65 138.3 153.7 136.499 153.55 134.599C153.4 132.7 150.1 131.399 146.2 131.699Z" fill="black"/>
<path d="M155.1 139.65C155.1 139.65 144.35 142.8 145 148.85C145.65 154.9 158.6 158.05 158.6 158.05C158.6 158.05 162.1 159.45 164.1 156.1C166.1 152.8 169.05 148.3 168.25 141.85C168.25 141.85 168 137.05 155.1 139.65Z" fill="black"/>
</g>
</g>
</g>
<defs>
<clipPath id="clip0_1739_118">
<rect width="256" height="256" fill="white"/>
</clipPath>
</defs>
</svg>
