<svg width="272" height="272" viewBox="0 0 272 272" fill="none" xmlns="http://www.w3.org/2000/svg">
<g clip-path="url(#clip0_2052_907)">
<path fill-rule="evenodd" clip-rule="evenodd" d="M136 0C211.116 0 272 60.884 272 136C272 211.116 211.116 272 136 272C60.884 272 0 211.116 0 136C0 60.884 60.884 0 136 0Z" fill="#000D23"/>
<path fill-rule="evenodd" clip-rule="evenodd" d="M97.9739 25.3375C110.161 21.4375 122.836 19 136.486 19C201.322 19 253.484 71.1625 252.997 136C252.997 200.35 200.347 253 135.998 253C71.6492 253 19 200.838 19 136C19 105.137 30.9626 77.4634 50.1996 56.5871V140.388C51.1745 187.675 89.199 225.212 136.486 225.212C184.26 225.212 222.772 186.7 222.772 138.925C222.772 91.15 184.26 52.6375 136.486 52.6375H116.986V66.2875H137.948C177.923 66.775 209.61 99.4375 209.61 138.925C209.61 178.9 176.948 211.562 136.973 211.562C96.9989 211.562 64.3368 178.9 64.3368 138.925V43.8625C70.6743 38.9875 77.4992 34.6 84.8116 31.1875V139.412C85.299 168.175 108.211 191.087 136.973 191.087C165.735 191.087 189.135 167.687 189.135 138.925C189.135 110.162 165.735 86.7625 136.973 86.7625H117.474V100.412H137.948C158.91 100.9 175.973 118.45 175.973 139.412C175.973 160.862 158.423 178.412 136.973 178.412C115.524 178.412 97.9739 160.862 97.9739 139.412V25.3375ZM136.486 118.45H116.986V138.437C116.986 148.675 125.761 157.45 136.486 157.45C147.211 157.45 155.986 148.675 155.986 137.95C155.986 127.225 147.211 118.45 136.486 118.45Z" fill="white"/>
</g>
<defs>
<clipPath id="clip0_2052_907">
<rect width="272" height="272" fill="white"/>
</clipPath>
</defs>
</svg>
