<svg width="256" height="256" viewBox="0 0 256 256" fill="none" xmlns="http://www.w3.org/2000/svg">
<g clip-path="url(#clip0_2052_931)">
<path fill-rule="evenodd" clip-rule="evenodd" d="M128 0C198.697 0 256 57.3026 256 128C256 198.697 198.697 256 128 256C57.3026 256 0 198.697 0 128C0 57.3026 57.3026 0 128 0Z" fill="#8F6341"/>
<path d="M53.6475 38.5881C54.118 38.1176 54.5886 38.1176 54.5886 37.647C54.5886 37.647 54.118 38.1176 53.6475 38.5881Z" fill="white"/>
<g opacity="0.8">
<path d="M223.057 116.038L197.831 132.77L196.986 132.484C196.887 126.161 196.635 116.766 196.017 106.445L223.057 116.038Z" fill="#131313"/>
<path d="M57.9614 109.082C57.1214 119.296 56.7452 128.156 56.6031 132.311L32.2842 116.676L57.9614 109.082Z" fill="#131313"/>
<path d="M190.259 133.937L190.247 133.262V133.213C190.247 133.101 190.243 132.989 190.243 132.873C190.243 132.766 190.243 132.658 190.238 132.551C190.13 125.482 189.837 114.606 189.051 102.91L188.985 101.93L188.951 101.478V101.437L188.901 100.787C188.893 100.663 188.88 100.539 188.872 100.419C188.863 100.291 188.855 100.163 188.847 100.034C187.865 86.7412 186.444 75.6954 184.626 67.2114C183.104 59.9524 181.299 54.6842 179.247 51.5472C178.474 50.3221 177.279 48.8778 175.945 48.8778C175.594 48.8778 175.21 48.973 174.805 49.1633L174.713 49.2047C172.615 50.2601 170.157 52.9666 167.403 57.2542C167.336 57.3701 167.265 57.4859 167.198 57.6018L166.989 57.9535L166.872 58.1439C166.668 58.4874 166.454 58.8434 166.233 59.2406L166.12 59.431C163.88 63.1971 161.105 67.8654 157.816 68.6641C157.118 68.8338 156.458 68.9206 155.856 68.9206C151.631 68.9206 150.586 64.9725 150.239 63.6275L150.206 63.5282V63.4743C149.809 61.6658 149.65 59.4517 149.466 56.8941L149.437 56.5175L149.407 56.0746C149.056 51.0546 148.626 44.8261 146.189 38.759C145.629 37.3395 144.848 36.1269 143.862 35.1502C141.676 32.9858 138.441 31.6945 134.508 31.4131C133.89 31.3676 133.259 31.3428 132.623 31.3428C129.004 31.3428 125.038 32.1374 121.16 33.6355C116.208 35.5724 111.535 38.6018 107.653 42.3968C102.433 47.5658 98.8972 54.6965 96.7867 58.9592L96.7617 59.0089C96.0846 60.3538 95.4451 61.5706 94.9352 62.5473L94.7639 62.8784L94.7472 62.9074V62.9157L94.7138 62.9694C93.0171 65.9202 91.1823 67.4142 89.264 67.4142C88.5076 67.4142 87.793 67.1824 87.141 66.7313L87.0868 66.6942L87.024 66.6527L86.9739 66.599L86.9236 66.5493C86.1214 65.7795 85.4193 64.7034 84.6043 63.4578C83.2418 61.3721 81.545 58.773 79.0752 57.5231C78.6781 57.3204 78.3103 57.2169 77.9719 57.2169C76.835 57.2169 75.7569 58.4336 75.059 59.4558C73.1029 62.2782 71.3142 67.0501 69.7429 73.6428C67.9041 81.3072 66.3912 91.215 65.2418 103.092C65.1917 103.577 65.1458 104.04 65.1039 104.5C65.058 104.98 65.0162 105.443 64.9743 105.911C63.9213 117.565 63.4866 127.862 63.3194 132.965L63.2943 133.776L63.2776 134.347C63.2776 134.38 63.2776 134.417 63.2734 134.45L132.711 152.341L190.272 135.319L190.259 133.937ZM113.449 113.977C113.449 115.905 113.052 117.784 112.267 119.556C111.987 120.197 111.652 120.818 111.28 121.401C110.837 122.097 110.327 122.767 109.767 123.384L109.521 123.653L109.274 123.93H109.237C106.574 126.546 102.955 128.04 99.2483 128.04C97.9109 128.04 96.5945 127.857 95.3406 127.497C94.5467 127.282 93.7526 126.98 92.9919 126.604C92.3776 126.31 91.7675 125.962 91.1948 125.569C87.3459 122.941 85.0473 118.608 85.0473 113.977V103.866C85.0473 101.727 85.5111 99.6782 86.4306 97.7787C86.7356 97.133 87.1076 96.4999 87.5255 95.8914C88.0396 95.1424 88.6372 94.4388 89.3017 93.8015C91.9555 91.2231 95.4912 89.8037 99.2483 89.8037C105.016 89.8037 110.323 93.3794 112.455 98.7015C112.743 99.4175 112.964 100.142 113.119 100.862C113.261 101.478 113.357 102.128 113.403 102.778C113.432 103.13 113.449 103.494 113.449 103.866V113.977ZM173.45 113.977C173.45 118.426 171.252 122.668 167.574 125.325C167.069 125.689 166.517 126.032 165.928 126.347C165.293 126.69 164.607 126.993 163.897 127.241C162.384 127.771 160.796 128.04 159.178 128.04C154.711 128.04 150.498 125.937 147.823 122.395H147.802L147.548 122.026L147.297 121.654C147.079 121.331 146.883 121.004 146.703 120.677H146.674L146.444 120.193L146.219 119.705C145.934 119.08 145.705 118.467 145.542 117.88C145.17 116.63 144.977 115.314 144.977 113.977V103.866C144.977 103.78 144.977 103.688 144.982 103.602C145.048 99.8976 146.557 96.4254 149.228 93.8263C151.902 91.2315 155.434 89.8037 159.178 89.8037C161.197 89.8037 163.149 90.2134 164.983 91.0204C165.522 91.2605 166.049 91.5295 166.538 91.8233C167.24 92.233 167.942 92.7421 168.611 93.3256C171.687 95.9908 173.45 99.8354 173.45 103.866V113.977Z" fill="#131313"/>
<path d="M195.266 172.268V207.508L135.779 225.1V161.235L146.858 169.106L152.241 172.934L162.739 180.4L164.353 181.551L164.649 181.762C165.155 182.126 165.782 182.325 166.409 182.325C166.756 182.325 167.111 182.263 167.424 182.147L170.651 181.005H170.663L170.693 180.992L170.759 180.967H170.768L195.266 172.268Z" fill="#131313"/>
<path d="M129.77 161.235V225.241L59.4668 207.127V170.725L76.9068 175.885L80.2669 176.879L84.2747 178.058L84.4753 178.12L84.6843 178.186L98.037 182.134L98.1288 182.159L98.2793 182.205C98.5551 182.283 98.8434 182.325 99.1361 182.325C99.7713 182.325 100.377 182.13 100.895 181.762L101.092 181.617L129.77 161.235Z" fill="#131313"/>
<path d="M125.815 156.711L98.5792 176.075L80.663 170.778L75.7523 169.325L70.6412 167.815L58.2706 164.156L55.6043 163.37L32 156.393L56.089 139.66L57.046 138.994L57.3638 139.073L57.7106 139.168L59.4033 139.603L59.8421 139.714L60.4689 139.876L61.0916 140.041L125.815 156.711Z" fill="#131313"/>
<path d="M223.058 156.086L199.045 164.612L196.375 165.555L175.236 173.058L171.374 174.428L166.881 176.017L157.674 169.479L149.354 163.56L139.499 156.546L162.982 149.605L166.275 148.633L192.45 140.894L194.146 140.389L195.856 139.888L197.418 139.424L197.778 139.317L198.677 139.909L223.058 156.086Z" fill="#131313"/>
<path d="M97.948 104.193V109.25C97.948 111.22 96.2679 112.884 94.2745 112.884C92.2809 112.884 90.6719 111.253 90.6719 109.25V104.193C90.6719 102.186 92.2893 100.555 94.2745 100.555C96.2596 100.555 97.948 102.223 97.948 104.193Z" fill="#131313"/>
<path d="M157.883 104.193V109.25C157.883 111.253 156.266 112.884 154.277 112.884C152.287 112.884 150.67 111.253 150.67 109.25V104.193C150.67 102.186 152.287 100.555 154.277 100.555C156.266 100.555 157.883 102.186 157.883 104.193Z" fill="#131313"/>
</g>
</g>
<defs>
<clipPath id="clip0_2052_931">
<rect width="256" height="256" fill="white"/>
</clipPath>
</defs>
</svg>
