<svg width="256" height="256" viewBox="0 0 256 256" fill="none" xmlns="http://www.w3.org/2000/svg">
<g clip-path="url(#clip0_2570_3540)">
<mask id="mask0_2570_3540" style="mask-type:luminance" maskUnits="userSpaceOnUse" x="0" y="0" width="256" height="256">
<path d="M256 128C256 57.3076 198.692 0 128 0C57.3076 0 0 57.3076 0 128C0 198.692 57.3076 256 128 256C198.692 256 256 198.692 256 128Z" fill="white"/>
</mask>
<g mask="url(#mask0_2570_3540)">
<path d="M256 0.639893H0.640137V257.28H256V0.639893Z" fill="#36BA9D"/>
<path d="M195.52 116.032C195.776 116.16 196.096 116.16 196.48 116.288C197.76 108.544 200.768 101.44 204.096 94.0799C203.392 93.9519 202.816 93.7599 202.176 93.6959C197.184 93.1199 192.448 94.4639 187.84 96.1279C184.768 97.2159 181.632 97.7279 178.368 97.4079C177.984 97.3439 177.344 97.4719 177.088 97.7919C175.744 99.5199 174.4 101.184 173.12 103.04C172.416 104.128 172.736 105.28 173.696 105.984C175.232 107.136 176.832 108.416 178.56 109.12C184.256 111.616 189.888 113.792 195.52 116.032Z" fill="#F4DA0D"/>
<path d="M204.672 110.08C205.056 110.272 205.888 109.824 206.976 109.504C206.272 108.608 206.016 107.776 205.504 107.648C205.056 107.52 204.032 108.032 203.968 108.416C203.904 108.864 204.224 109.824 204.672 110.08Z" fill="#F4DA0D"/>
<path d="M187.008 84.928C187.136 84.992 187.264 85.12 187.392 85.184C187.264 85.056 187.136 84.992 187.008 84.928Z" fill="#F4DA0D"/>
<path d="M192.384 161.536C191.296 161.024 190.528 161.408 189.888 162.432C187.52 166.464 184.512 169.856 179.84 171.328C179.52 171.392 179.2 171.712 179.072 172.032C178.368 173.568 178.432 173.568 176.64 173.952C176.64 173.504 176.576 173.056 176.576 172.416C176.256 173.376 175.936 174.208 175.68 174.976C175.488 174.912 175.296 174.912 175.104 174.848C175.04 174.016 174.976 173.184 174.848 172.16C166.528 171.84 159.296 168.96 153.6 162.816C152.896 163.392 152.384 163.776 151.872 164.16C151.744 164.096 151.68 163.968 151.552 163.904C151.808 163.328 152 162.752 152.32 161.984C151.616 162.496 151.104 162.88 150.592 163.2C150.528 163.136 150.4 163.072 150.336 162.944C150.592 162.24 150.784 161.472 151.04 160.768C150.912 160.704 150.784 160.64 150.656 160.512C149.888 161.408 149.184 162.368 148.416 163.328C150.08 164.544 151.744 165.504 153.152 166.72C159.488 172.352 166.592 175.808 175.232 176C180.544 176.128 185.28 174.912 189.312 171.392C191.552 169.408 193.088 167.04 193.472 163.968C193.728 163.008 193.536 162.048 192.384 161.536Z" fill="#F4DA0D"/>
<path d="M141.888 161.024C143.872 161.472 145.664 162.496 147.648 163.264C147.904 162.56 148.032 162.112 148.16 161.728C149.312 159.36 149.312 159.296 146.88 158.208C146.56 158.08 146.304 157.952 145.984 157.824C141.184 155.776 136.064 155.456 131.008 154.688C123.584 153.472 116.8 150.72 111.104 145.664C107.328 142.272 105.728 138.112 107.072 133.12C108.224 128.896 110.976 125.824 114.88 123.84C119.936 121.28 125.312 120.448 130.88 121.344C139.968 122.752 147.712 126.464 152.32 134.976C152.448 135.296 152.768 135.488 153.024 135.744C153.6 135.232 154.048 134.848 154.56 134.464C154.688 134.528 154.752 134.656 154.88 134.72C154.432 135.488 153.984 136.256 153.536 137.024C153.6 137.088 153.664 137.152 153.728 137.216C154.304 136.64 154.88 136.064 155.392 135.488C155.52 135.552 155.648 135.68 155.712 135.744C155.136 136.832 154.56 137.856 153.984 138.944C154.048 139.008 154.176 139.008 154.24 139.072C154.688 138.624 155.2 138.112 155.648 137.664C155.776 137.728 155.84 137.856 155.968 137.92C155.712 138.432 155.392 138.88 155.264 139.392C155.072 139.968 155.136 140.608 155.072 141.248C155.776 141.184 156.544 141.376 157.056 141.056C158.272 140.416 159.36 139.52 160.512 138.88C163.328 137.28 165.952 137.728 168 140.224C168.704 141.056 169.152 142.208 169.92 143.488C170.624 143.104 171.52 142.784 172.288 142.272C173.632 141.376 174.976 141.248 176.512 141.76C178.88 142.592 180.032 144.448 181.056 146.56C181.888 148.224 182.912 148.672 184.64 148.032C185.152 147.84 185.664 147.52 186.176 147.264C187.84 146.176 189.632 146.048 191.488 146.56C194.24 147.264 195.968 149.184 197.504 151.424C197.952 152.128 198.464 152.768 198.912 153.408C199.616 152.768 200.192 152.256 200.768 151.744C200.896 151.808 201.024 151.872 201.088 152C200.896 152.768 200.704 153.536 200.448 154.368C201.344 153.984 201.344 152 202.88 153.024C203.456 152.576 204.032 152.064 204.608 151.616C204.736 151.68 204.8 151.808 204.928 151.872C204.48 152.832 204.032 153.792 203.584 154.816C205.12 154.944 206.336 154.56 206.784 153.344C206.976 152.768 206.464 151.808 205.952 151.232C205.632 150.848 204.8 150.72 204.224 150.72C200.576 150.656 197.952 149.12 196.16 145.856C194.56 142.976 190.976 140.928 187.392 142.976C186.88 143.296 186.176 143.424 185.6 143.552C182.656 144.128 181.504 143.488 180.096 140.864C179.456 139.712 178.752 138.56 177.792 137.728C176.768 136.768 175.552 136.32 174.016 137.152C171.2 138.816 169.28 138.304 167.232 135.68C165.952 134.08 164.544 133.568 163.008 134.144C159.552 135.424 156.672 134.592 154.496 131.648C153.408 130.176 152.448 128.576 151.168 127.232C145.728 121.408 138.688 118.784 131.008 117.632C125.184 116.8 119.36 116.864 113.664 118.912C112.128 119.488 110.528 119.872 110.72 122.048C110.72 122.048 110.528 122.112 110.4 122.176C110.272 121.792 110.08 121.344 109.888 120.704C109.568 121.984 109.312 122.944 109.056 123.968C108.864 123.968 108.736 123.968 108.544 123.904C108.416 123.328 108.288 122.688 108.032 121.728C107.712 123.776 107.456 125.44 107.2 127.04C107.008 127.04 106.752 127.04 106.56 126.976C106.496 125.824 106.432 124.672 106.432 123.456C106.368 123.456 106.304 123.456 106.176 123.456C105.856 125.696 105.472 127.936 105.152 130.176C104.896 130.176 104.704 130.112 104.448 130.112C104.512 128.512 104.576 126.912 104.64 125.312C104.512 125.312 104.384 125.312 104.256 125.312C104.064 128.128 103.872 131.008 103.68 133.824C103.424 133.824 103.168 133.824 102.912 133.824C102.848 131.712 102.784 129.664 102.784 127.552C101.888 129.152 100.992 130.752 100.608 132.48C99.3924 138.112 101.12 142.976 105.024 147.136C111.36 153.984 119.488 157.12 128.32 158.848C133.056 159.616 137.536 160.128 141.888 161.024Z" fill="#F4DA0D"/>
<path d="M207.552 104.96C208 104 207.424 103.104 206.464 102.912C205.888 102.784 204.672 103.36 204.608 103.744C204.48 104.448 205.056 105.216 205.504 106.496C206.528 105.792 207.36 105.536 207.552 104.96Z" fill="#F4DA0D"/>
<path d="M130.24 153.28C133.76 153.92 137.28 154.432 140.864 154.944C141.312 155.008 141.824 154.816 142.336 154.688C141.76 154.176 141.12 153.664 140.544 153.088C138.56 151.168 136.832 148.8 134.528 147.392C128 143.296 120.64 142.016 113.024 142.464C112.256 142.528 111.552 142.72 110.72 142.848C111.04 144 111.616 144.192 112.576 144.064C114.24 143.872 115.84 143.808 117.504 143.68C117.504 143.872 117.568 144.064 117.568 144.256C115.904 144.448 114.24 144.576 112.576 144.768C112.576 144.96 112.576 145.088 112.576 145.28C114.496 145.28 116.416 145.28 118.336 145.28C118.336 145.408 118.336 145.6 118.336 145.728C116.992 145.856 115.584 145.984 114.24 146.112C114.24 146.304 114.24 146.496 114.176 146.624C115.2 146.816 116.16 146.944 117.248 147.136C116.928 147.392 116.672 147.648 116.16 148.16C117.312 148.224 118.144 148.224 118.976 148.224C118.784 148.544 118.592 148.8 118.272 149.312C119.424 149.312 120.384 149.312 121.472 149.312C121.152 149.696 120.96 149.952 120.768 150.144C120.768 150.336 120.832 150.464 120.832 150.656C123.136 150.592 125.504 150.592 127.808 150.528C127.808 150.656 127.808 150.784 127.872 150.912C126.848 151.104 125.824 151.296 124.48 151.552C126.656 152.384 128.384 152.96 130.24 153.28Z" fill="#F4DA0D"/>
<path d="M219.072 117.248C220.928 112.704 220.096 108.16 218.112 103.808C217.984 103.552 217.728 103.296 217.664 103.232C215.104 109.056 212.544 114.88 209.92 120.768C213.952 122.432 217.024 122.368 219.072 117.248Z" fill="#F4DA0D"/>
<path d="M209.536 110.784C210.304 111.04 211.392 110.912 212.16 110.592C212.736 110.336 213.12 109.568 213.568 108.992C214.336 106.688 213.76 104.704 212.16 104.256C210.88 103.872 209.536 104.896 208.768 106.88C207.936 108.672 208.192 110.4 209.536 110.784Z" fill="#F4DA0D"/>
<path d="M142.272 154.752C142.848 155.136 143.424 155.584 144.064 155.84C145.088 156.288 146.112 156.608 147.136 157.056C150.912 158.72 154.048 161.216 156.928 164.096C158.784 165.952 160.96 167.36 163.648 168.32C163.2 164.096 161.536 160.768 158.72 157.952C154.112 153.344 148.224 151.04 142.08 149.376C140.864 149.056 139.584 148.992 138.368 148.8C138.368 148.992 138.304 149.184 138.304 149.44C139.328 149.504 140.288 149.632 141.632 149.76C141.12 150.08 140.864 150.272 140.608 150.4C141.12 150.528 141.568 150.656 142.464 150.848C141.504 151.104 140.992 151.296 140.416 151.424C140.416 151.488 140.416 151.616 140.48 151.68C141.76 151.808 143.04 151.936 144.32 152.064C144.32 152.192 144.32 152.32 144.32 152.448C143.36 152.512 142.4 152.576 141.44 152.64C141.44 152.768 141.44 152.96 141.44 153.088C142.464 153.216 143.488 153.28 144.512 153.408C144.512 153.536 144.512 153.6 144.512 153.728C143.808 153.856 143.104 153.92 142.4 154.048C142.4 154.112 142.4 154.176 142.464 154.24C143.04 154.368 143.68 154.432 144.256 154.56C144.256 154.688 144.256 154.816 144.192 154.944C143.616 154.816 142.912 154.816 142.272 154.752Z" fill="#F4DA0D"/>
<path d="M164.608 98.24C163.328 96.896 162.112 95.68 161.024 94.4C160 93.056 159.104 91.584 158.208 90.24C156.8 93.632 155.52 96.96 154.176 100.224C159.872 102.464 163.648 101.568 164.608 98.24Z" fill="#F4DA0D"/>
<path d="M122.752 70.2718C118.784 71.9998 114.944 73.7918 112.192 77.2478C109.888 80.1918 110.208 82.1758 113.28 84.0958C113.344 84.1598 113.472 84.2238 113.536 84.2238C121.408 87.7438 129.28 91.2638 137.344 94.9118C137.728 93.5038 137.92 92.5438 138.24 91.6478C140.224 86.5278 142.208 81.4078 144.256 76.3518C144.64 75.3918 144.448 74.8798 143.616 74.4958C140.864 73.1518 138.176 71.6798 135.36 70.5278C131.264 68.7358 127.104 68.3518 122.752 70.2718Z" fill="#F4DA0D"/>
<path d="M147.84 85.888C148.032 85.568 147.712 84.928 147.584 84.032C146.816 84.48 146.112 84.672 145.984 85.056C145.856 85.44 146.304 86.016 146.432 86.528C146.88 86.336 147.584 86.272 147.84 85.888Z" fill="#F4DA0D"/>
<path d="M153.792 87.1679C152.576 86.7199 151.424 87.4879 150.784 89.2159C150.144 90.8159 150.528 92.2239 151.744 92.7359C152.896 93.1839 154.432 92.3519 155.008 90.9439C155.648 89.3439 155.072 87.6159 153.792 87.1679Z" fill="#F4DA0D"/>
<path d="M145.792 89.152C145.472 89.024 145.024 89.3439 144.64 89.5359C144.768 89.9199 144.832 90.4959 145.088 90.6879C145.344 90.8799 145.856 90.56 146.624 90.432C146.24 89.792 146.112 89.28 145.792 89.152Z" fill="#F4DA0D"/>
<path d="M218.944 131.264C220.544 125.696 222.528 120.256 223.872 114.624C226.368 104.256 226.368 93.7598 223.872 83.3278C221.632 73.8558 211.52 64.7038 200.32 65.4718C194.944 65.8558 190.336 67.8398 185.984 70.7838C185.216 71.3598 184.576 71.3598 183.68 71.0398C180.416 69.8878 177.152 68.6718 173.824 67.7758C172.608 67.4558 172.224 66.9438 171.904 65.7918C167.872 49.9838 157.952 40.0638 141.952 36.7358C130.304 34.3038 119.04 35.9678 108.352 41.3438C98.6881 46.2078 91.6481 53.6958 86.5281 63.0398C85.1201 65.5998 83.1361 66.7518 80.6401 67.5838C77.3121 68.6078 73.9201 69.4398 70.6561 70.6558C63.8721 73.0878 57.9201 76.9278 54.4001 83.3278C49.3441 92.6718 49.0241 102.528 54.4001 111.744C57.6641 117.248 62.0801 122.112 66.1761 127.104C68.3521 129.792 70.9121 132.16 73.3441 134.656C73.2161 134.784 73.1521 134.848 73.0881 134.912C72.7041 134.976 72.2561 135.04 71.8721 135.104C55.8081 137.408 40.2561 141.568 25.7921 149.12C16.3841 154.048 7.93611 160.128 0.704102 167.808V257.28H7.42411C8.44811 255.232 9.40811 253.12 10.5601 251.136C13.5041 246.08 16.3201 240.832 20.0321 236.416C26.6241 228.608 33.9201 221.312 40.9601 213.824C41.6641 213.056 42.6241 212.48 43.4561 211.776C43.5201 211.84 43.6481 211.968 43.7121 212.032C31.2321 225.792 20.3521 240.704 11.6481 257.216H188.352C188.992 255.104 189.632 252.992 190.208 250.88C191.552 246.336 192.64 241.664 193.024 236.992C193.856 226.88 190.656 217.664 186.112 208.832C181.632 200.192 175.808 192.576 169.344 185.344C168.512 184.384 167.68 183.424 166.592 182.208C167.296 182.272 167.68 182.272 168 182.272C175.424 183.36 182.848 183.296 190.336 182.08C199.68 180.48 208.448 177.472 215.68 171.072C220.48 166.784 224.128 161.728 224.832 155.136C225.728 147.2 223.744 139.904 219.392 133.184C218.944 132.672 218.752 131.84 218.944 131.264ZM169.216 242.176C169.152 242.304 169.024 242.368 168.96 242.496C169.088 242.368 169.152 242.24 169.216 242.176ZM189.376 171.456C185.344 174.976 180.608 176.192 175.296 176.064C166.656 175.808 159.552 172.352 153.216 166.784C151.808 165.568 150.144 164.608 148.48 163.392C149.248 162.432 149.952 161.536 150.72 160.576C150.848 160.64 150.976 160.704 151.104 160.832C150.848 161.536 150.656 162.304 150.4 163.008C150.464 163.072 150.592 163.136 150.656 163.264C151.168 162.88 151.68 162.56 152.384 162.048C152.064 162.816 151.872 163.392 151.616 163.968C151.744 164.032 151.808 164.16 151.936 164.224C152.448 163.84 152.96 163.456 153.664 162.88C159.36 169.024 166.592 171.904 174.912 172.224C174.976 173.248 175.04 174.08 175.168 174.912C175.36 174.976 175.552 174.976 175.744 175.04C176 174.208 176.32 173.44 176.64 172.48C176.64 173.12 176.704 173.568 176.704 174.016C178.432 173.632 178.432 173.632 179.136 172.096C179.264 171.776 179.584 171.52 179.904 171.392C184.576 169.92 187.584 166.592 189.952 162.496C190.592 161.408 191.36 161.088 192.448 161.6C193.536 162.112 193.728 163.008 193.6 164.096C193.152 167.104 191.616 169.472 189.376 171.456ZM105.344 147.072C101.44 142.912 99.7121 138.048 100.928 132.416C101.312 130.688 102.208 129.152 103.104 127.488C103.168 129.6 103.232 131.648 103.232 133.76C103.488 133.76 103.744 133.76 104 133.76C104.192 130.944 104.384 128.064 104.576 125.248C104.704 125.248 104.832 125.248 104.96 125.248C104.896 126.848 104.832 128.448 104.768 130.048C105.024 130.048 105.216 130.112 105.472 130.112C105.792 127.872 106.176 125.632 106.496 123.392C106.56 123.392 106.624 123.392 106.752 123.392C106.816 124.544 106.88 125.696 106.88 126.912C107.072 126.912 107.328 126.912 107.52 126.976C107.776 125.312 108.032 123.712 108.352 121.664C108.608 122.624 108.736 123.264 108.864 123.84C109.056 123.84 109.184 123.84 109.376 123.904C109.632 122.88 109.888 121.92 110.208 120.64C110.464 121.28 110.592 121.664 110.72 122.112C110.912 122.048 111.104 121.984 111.04 121.984C110.848 119.808 112.448 119.36 113.984 118.848C119.68 116.8 125.504 116.736 131.328 117.568C139.008 118.656 146.048 121.28 151.488 127.168C152.704 128.512 153.728 130.112 154.816 131.584C156.992 134.528 159.872 135.36 163.328 134.08C164.928 133.504 166.336 134.016 167.552 135.616C169.6 138.24 171.52 138.688 174.336 137.088C175.808 136.192 177.088 136.704 178.112 137.664C179.072 138.56 179.84 139.648 180.416 140.8C181.824 143.424 182.976 144.064 185.92 143.488C186.56 143.36 187.2 143.232 187.712 142.912C191.296 140.864 194.88 142.976 196.48 145.792C198.272 149.056 200.896 150.592 204.544 150.656C205.12 150.656 205.952 150.784 206.272 151.168C206.784 151.744 207.296 152.768 207.104 153.28C206.656 154.496 205.44 154.88 203.904 154.752C204.416 153.664 204.864 152.768 205.248 151.808C205.12 151.744 205.056 151.616 204.928 151.552C204.352 152 203.776 152.448 203.2 152.96C201.664 151.936 201.664 153.856 200.768 154.304C200.96 153.472 201.216 152.704 201.408 151.936C201.28 151.872 201.152 151.808 201.088 151.68C200.512 152.192 199.936 152.704 199.232 153.344C198.72 152.64 198.272 152 197.824 151.36C196.288 149.12 194.56 147.2 191.808 146.496C189.952 146.048 188.16 146.176 186.496 147.2C185.984 147.52 185.472 147.776 184.96 147.968C183.232 148.608 182.208 148.16 181.376 146.496C180.352 144.448 179.2 142.528 176.832 141.696C175.296 141.184 173.952 141.312 172.608 142.208C171.84 142.72 171.008 143.04 170.24 143.424C169.472 142.08 169.024 140.992 168.32 140.16C166.208 137.664 163.648 137.28 160.832 138.816C159.616 139.456 158.592 140.416 157.376 140.992C156.8 141.248 156.032 141.12 155.392 141.184C155.456 140.544 155.456 139.904 155.584 139.328C155.712 138.816 156.032 138.368 156.288 137.856C156.16 137.792 156.096 137.664 155.968 137.6C155.52 138.048 155.008 138.56 154.56 139.008C154.496 138.944 154.368 138.944 154.304 138.88C154.88 137.792 155.456 136.768 156.032 135.68C155.904 135.616 155.776 135.488 155.712 135.424C155.136 136 154.56 136.576 154.048 137.152C153.984 137.088 153.92 137.024 153.856 136.96C154.304 136.192 154.752 135.424 155.2 134.656C155.072 134.592 155.008 134.464 154.88 134.4C154.432 134.784 153.92 135.232 153.344 135.68C153.088 135.424 152.832 135.168 152.64 134.912C148.032 126.4 140.288 122.688 131.2 121.28C125.632 120.448 120.256 121.216 115.2 123.776C111.296 125.76 108.544 128.832 107.392 133.056C106.048 138.048 107.648 142.208 111.424 145.6C117.12 150.656 123.84 153.408 131.328 154.624C136.384 155.456 141.504 155.712 146.304 157.76C146.624 157.888 146.88 158.016 147.2 158.144C149.632 159.232 149.632 159.296 148.48 161.664C148.288 162.048 148.224 162.432 147.968 163.2C145.984 162.432 144.192 161.344 142.208 160.96C137.856 160 133.376 159.488 128.96 158.656C119.808 157.056 111.68 153.856 105.344 147.072ZM173.824 106.048C172.8 105.344 172.48 104.192 173.248 103.104C174.464 101.312 175.808 99.5838 177.216 97.8558C177.472 97.5998 178.048 97.4718 178.496 97.4718C181.76 97.7918 184.896 97.2798 187.968 96.1918C192.576 94.5278 197.312 93.1838 202.304 93.7598C202.88 93.8238 203.52 94.0158 204.224 94.1438C200.896 101.44 197.888 108.544 196.608 116.352C196.224 116.224 195.904 116.224 195.648 116.096C190.016 113.856 184.384 111.616 178.816 109.248C176.96 108.416 175.36 107.2 173.824 106.048ZM175.168 130.176C174.592 129.984 174.144 129.408 173.952 128.704C174.208 129.408 174.656 129.984 175.168 130.176ZM187.008 84.9278C187.136 84.9918 187.264 85.1198 187.392 85.1838C187.264 85.0558 187.136 84.9918 187.008 84.9278ZM203.968 108.352C204.032 107.968 205.056 107.456 205.504 107.584C206.016 107.712 206.272 108.544 206.976 109.44C205.888 109.76 205.12 110.208 204.672 110.016C204.224 109.824 203.904 108.864 203.968 108.352ZM205.504 106.496C205.056 105.216 204.48 104.448 204.608 103.744C204.672 103.36 205.888 102.848 206.464 102.912C207.424 103.04 208 104 207.552 104.96C207.36 105.536 206.528 105.792 205.504 106.496ZM158.208 90.2398C159.104 91.5838 159.936 93.0558 161.024 94.3998C162.112 95.7438 163.328 96.8958 164.608 98.2398C163.648 101.568 159.872 102.4 154.176 100.224C155.52 96.9598 156.8 93.6318 158.208 90.2398ZM151.744 92.7358C150.528 92.2238 150.144 90.8158 150.784 89.2158C151.488 87.4878 152.576 86.7198 153.792 87.1678C155.072 87.6158 155.584 89.4078 155.008 90.9438C154.496 92.3518 152.96 93.1838 151.744 92.7358ZM146.432 86.5278C146.24 86.0158 145.856 85.4398 145.984 85.0558C146.112 84.6718 146.816 84.5438 147.584 84.0318C147.712 84.9278 148.032 85.5678 147.84 85.8878C147.584 86.2718 146.88 86.3358 146.432 86.5278ZM146.624 90.4318C145.92 90.5598 145.344 90.8158 145.088 90.6878C144.832 90.4958 144.768 89.9198 144.64 89.5358C145.024 89.4078 145.536 89.0878 145.792 89.1518C146.112 89.2798 146.24 89.7918 146.624 90.4318ZM144.32 76.4158C142.272 81.4718 140.288 86.5918 138.304 91.7118C137.984 92.6078 137.792 93.5038 137.408 94.9758C129.344 91.3918 121.472 87.8078 113.6 84.2878C113.472 84.2238 113.408 84.2238 113.344 84.1598C110.208 82.1758 109.952 80.1918 112.256 77.3118C115.008 73.7918 118.848 72.0638 122.816 70.3358C127.168 68.4158 131.328 68.7998 135.488 70.5918C138.304 71.8078 140.992 73.2158 143.744 74.5598C144.512 74.9438 144.704 75.3918 144.32 76.4158ZM142.464 154.24C142.464 154.176 142.464 154.112 142.4 154.048C143.104 153.92 143.808 153.856 144.512 153.728C144.512 153.6 144.512 153.536 144.512 153.408C143.488 153.28 142.464 153.216 141.44 153.088C141.44 152.96 141.44 152.768 141.44 152.64C142.4 152.576 143.36 152.512 144.32 152.448C144.32 152.32 144.32 152.192 144.32 152.064C143.04 151.936 141.76 151.808 140.48 151.68C140.48 151.616 140.48 151.488 140.416 151.424C140.928 151.296 141.504 151.104 142.464 150.848C141.568 150.592 141.12 150.528 140.608 150.4C140.864 150.208 141.12 150.08 141.632 149.76C140.288 149.632 139.328 149.568 138.304 149.44C138.304 149.248 138.368 149.056 138.368 148.8C139.584 148.992 140.864 149.056 142.08 149.376C148.224 151.04 154.112 153.344 158.72 157.952C161.536 160.768 163.2 164.096 163.648 168.32C160.96 167.36 158.784 165.952 156.928 164.096C154.048 161.216 150.848 158.72 147.136 157.056C146.112 156.608 145.088 156.288 144.064 155.84C143.424 155.52 142.848 155.072 142.272 154.752C142.912 154.816 143.552 154.816 144.256 154.88C144.256 154.752 144.256 154.624 144.32 154.496C143.68 154.432 143.104 154.304 142.464 154.24ZM127.808 150.784C125.504 150.848 123.136 150.848 120.832 150.912C120.832 150.72 120.768 150.592 120.768 150.4C120.96 150.144 121.152 149.952 121.472 149.568C120.384 149.568 119.424 149.568 118.272 149.568C118.592 149.056 118.784 148.8 118.976 148.48C118.144 148.48 117.312 148.416 116.16 148.416C116.672 147.904 116.928 147.648 117.248 147.392C116.16 147.2 115.2 147.008 114.176 146.88C114.176 146.688 114.176 146.496 114.24 146.368C115.584 146.24 116.992 146.112 118.336 145.984C118.336 145.856 118.336 145.664 118.336 145.536C116.416 145.536 114.496 145.536 112.576 145.536C112.576 145.344 112.576 145.216 112.576 145.024C114.24 144.832 115.904 144.704 117.568 144.512C117.568 144.32 117.504 144.128 117.504 143.936C115.84 144.064 114.176 144.064 112.576 144.32C111.616 144.448 111.04 144.256 110.72 143.104C111.488 142.976 112.256 142.784 113.024 142.72C120.704 142.272 128 143.552 134.528 147.648C136.832 149.12 138.56 151.424 140.544 153.344C141.12 153.92 141.76 154.432 142.336 154.944C141.824 155.008 141.312 155.264 140.864 155.2C137.344 154.688 133.76 154.176 130.24 153.536C128.448 153.216 126.656 152.64 124.48 152C125.824 151.744 126.848 151.552 127.872 151.36C127.808 151.04 127.808 150.912 127.808 150.784ZM208.704 106.816C209.472 104.832 210.816 103.808 212.096 104.192C213.76 104.64 214.272 106.624 213.504 108.928C213.056 109.504 212.736 110.272 212.096 110.528C211.328 110.848 210.24 110.976 209.472 110.72C208.192 110.4 207.936 108.672 208.704 106.816ZM217.664 103.232C217.728 103.296 217.984 103.488 218.112 103.808C220.16 108.16 220.928 112.704 219.072 117.248C216.96 122.432 213.952 122.496 209.856 120.768C212.544 114.816 215.104 109.056 217.664 103.232Z" fill="black"/>
</g>
</g>
<defs>
<clipPath id="clip0_2570_3540">
<rect width="256" height="256" fill="white"/>
</clipPath>
</defs>
</svg>
