<svg width="256" height="256" viewBox="0 0 256 256" fill="none" xmlns="http://www.w3.org/2000/svg">
<circle cx="128" cy="128" r="127" fill="black"/>
<path d="M197.352 176.702C194.444 177.744 191.434 175.5 190.989 176.15C190.621 176.686 192.261 178.791 194.308 180.295C195.789 181.381 199.286 183.478 205.629 183.179C206.683 183.124 207.696 182.757 208.541 182.126C209.385 181.495 210.024 180.628 210.374 179.634L213.398 171.176C203.256 162.123 194.904 151.25 188.775 139.122C184.83 131.277 181.858 122.982 179.925 114.418C180.879 112.732 181.707 111.193 182.412 109.831C185.212 112.484 188.011 115.136 190.809 117.789C191.121 118.087 191.49 118.318 191.894 118.468C192.298 118.619 192.729 118.686 193.159 118.665C193.59 118.644 194.012 118.536 194.4 118.348C194.788 118.159 195.133 117.894 195.415 117.568C198.16 118.673 201.2 118.242 203.162 116.463C206.213 113.691 206.241 107.968 202.041 104.567C201.695 100.422 201.515 98.2831 201.17 94.1382C203.032 93.5662 204.893 92.9942 206.755 92.4222C207.322 90.6235 207.322 88.6943 206.755 86.8956C206.355 85.6644 205.695 84.5335 204.819 83.5797C203.344 80.6202 199.839 74.7261 192.922 71.1449C191.64 70.4963 190.309 69.9475 188.941 69.5035C183.817 67.7627 178.409 67.007 173.003 67.2763C174.201 68.1053 175.4 68.9343 176.599 69.7633C172.986 69.0006 169.008 68.3236 164.703 67.829C160.13 67.304 155.864 67.0608 151.977 67C152.621 67.6438 153.267 68.2886 153.913 68.9343C149.195 68.8145 144.475 69.0918 139.804 69.7633C133.991 70.6006 119.06 73.3749 97.1979 88.2773C75.837 102.834 62.7537 111.754 63.722 123.095C64.3722 130.688 71.6843 143.598 81.4283 148.517C82.8559 149.238 84.9723 150.108 86.4082 152.385C88.7294 156.066 87.0251 160.786 84.4716 170.347C83.7107 173.198 82.7259 176.669 81.4809 180.632C81.2214 181.46 81.1521 182.337 81.2781 183.196C81.4041 184.055 81.7222 184.875 82.2088 185.595C82.6955 186.314 83.338 186.915 84.089 187.353C84.8399 187.791 85.6799 188.054 86.5465 188.123C104.668 189.587 113.936 189.281 114.351 187.203C114.65 185.716 110.408 183.321 101.625 180.018C101.27 177.729 101.27 175.399 101.625 173.11C103.06 163.983 109.877 161.07 111.584 153.767C113.059 147.456 110.895 141.517 108.818 137.464C118.671 136.848 128.199 133.707 136.484 128.345C134.467 138.235 136.318 144.408 138.42 148.24C142.775 156.177 152.262 161.438 151.977 168.136C151.927 169.277 151.564 171.209 151.849 174.315C152.151 177.603 152.859 178.708 152.253 180.018C151.686 181.24 150.015 182.549 145.06 182.782C144.092 183.89 143.723 184.811 143.954 185.545C144.673 187.833 151.22 188.293 163.596 186.926C165.071 183.61 166.547 180.295 168.023 176.979C168.348 171.539 168.163 166.081 167.47 160.675C165.92 148.76 162.73 144.073 165.256 136.911C166.294 133.968 167.329 133.357 171.343 127.792C173.932 124.203 176.124 120.823 177.955 117.786C177.059 120.121 176.06 122.539 174.939 125.029C173.029 129.278 170.905 133.428 168.576 137.464C169.303 141.285 170.511 144.999 172.173 148.517C179.745 164.505 194.599 171.563 200.392 173.939C199.883 174.815 198.931 176.136 197.352 176.702ZM177.156 85.514C178.705 84.3119 181.007 85.0332 181.582 85.2377C184.739 86.3651 186.496 90.0872 185.732 91.0405C185.085 91.8529 182.755 90.452 182.135 91.3169C181.325 92.4471 184.504 95.2822 183.795 96.2908C183.195 97.1474 179.955 96.603 177.986 94.6328C175.509 92.1542 174.89 87.2714 177.156 85.514Z" fill="#FDFDFB"/>
<path d="M81.1544 151.833C73.8965 148.057 67.8546 142.31 63.7248 135.253C62.6154 136.663 61.174 138.622 59.2983 141.333L59.2955 141.335C55.7072 146.522 55.0875 151.714 54.8717 152.938C54.3792 155.724 52.1493 159.639 44.7321 164.798C43.0943 165.937 42.9947 168.559 43.0002 171.173C43.0251 179.798 52.9434 187.772 56.8056 186.098C57.5664 185.769 58.0948 185.062 58.4655 184.164C62.9723 185.603 67.6008 186.689 68.4253 185.269C69.5568 183.321 61.8214 179.22 61.2321 173.387C60.427 165.409 70.8295 157.661 81.1544 151.833Z" fill="#FDFDFB"/>
</svg>
