<svg width="256" height="256" viewBox="0 0 256 256" fill="none" xmlns="http://www.w3.org/2000/svg">
<path d="M256 127.998C256 161.946 242.514 194.504 218.509 218.509C194.504 242.514 161.946 256 127.998 256C94.0514 255.999 61.495 242.513 37.491 218.509C13.487 194.505 0.00116778 161.95 0 128.002C-2.00871e-08 94.0551 13.4853 61.4975 37.4895 37.4926C61.4936 13.4876 94.0505 0.00116783 127.998 0C161.946 -2.00871e-08 194.503 13.4853 218.508 37.4895C242.512 61.4935 255.999 94.0505 256 127.998Z" fill="#FFD800"/>
<path fill-rule="evenodd" clip-rule="evenodd" d="M176.427 52.0513C143.721 36.8178 85.3637 51.8229 65.3291 80.5541C54.9075 95.4908 53.4218 115.634 65.7224 130C69.0433 133.883 70.4634 134.888 72.1021 128.242C74.8331 117.119 79.7271 107.938 86.8058 100.835C103.694 83.8657 128.427 76.032 150.821 76.8542C159.473 77.1739 167.469 79.2523 172.495 84.4823C185.91 98.4366 172.626 118.443 161.264 127.465C152.787 134.156 141.274 138.588 126.766 140.803C131.354 125.066 138.171 110.268 145.796 96.1304C149.249 89.7121 150.669 87.5197 143.24 85.8752C131.638 83.2947 113.592 85.6696 109.288 95.399L108.304 98.3686C102.908 112.118 98.3197 127.145 94.6931 143.498C90.3676 143.68 86.0847 143.841 81.7371 143.749C77.1708 143.657 76.4499 143.452 76.712 146.787C77.2583 153.844 79.4431 164.829 87.5047 164.509C88.1601 164.486 89.4931 164.121 91.5907 163.413C90.804 169.9 90.498 176.408 90.717 182.849C90.8917 188.558 91.5037 194.314 92.5299 200.138C100.832 236.223 140.181 214.572 156.982 200.914C165.743 193.788 171.839 187.051 175.182 180.679C178.525 174.307 180.141 168.895 179.989 164.486C179.901 161.929 179.355 159.531 178.393 157.201C175.706 150.852 168.562 146.375 156.895 143.726C169.895 136.235 180.273 127.579 188.094 117.667C206.316 94.5768 202.274 64.0645 176.449 52.0284L176.427 52.0513ZM159.211 165.629C159.604 178.121 138.04 192.441 128.012 192.852C125.018 192.966 122.834 191.802 121.501 189.29C116.366 180.154 120.103 163.07 123.38 154.163C134.501 148.682 158.708 149.116 159.233 165.629H159.211Z" fill="#121212"/>
</svg>
