<svg width="256" height="256" viewBox="0 0 256 256" fill="none" xmlns="http://www.w3.org/2000/svg">
<g clip-path="url(#clip0_2610_27)">
<path d="M252.17 158.964C235.073 227.536 165.612 269.268 97.0245 252.168C28.4653 235.073 -13.271 165.616 3.83372 97.0493C20.9235 28.4696 90.3837 -13.2651 158.95 3.8302C227.533 20.9255 269.267 90.3898 252.168 158.965L252.169 158.964H252.17Z" fill="black"/>
<path d="M184.449 109.763C186.997 92.7291 174.027 83.5726 156.291 77.4644L162.045 54.3904L147.997 50.8905L142.396 73.357C138.703 72.436 134.911 71.5683 131.141 70.708L136.783 48.0932L122.744 44.5933L116.988 67.6598C113.932 66.9641 110.93 66.2765 108.018 65.552L108.034 65.4794L88.6624 60.6425L84.9256 75.6444C84.9256 75.6444 95.3476 78.0331 95.128 78.1801C100.816 79.5998 101.845 83.3649 101.674 86.3493L95.1205 112.636C95.5122 112.736 96.0203 112.879 96.5809 113.105C96.1123 112.988 95.6136 112.861 95.0961 112.737L85.9098 149.561C85.2147 151.289 83.4501 153.883 79.473 152.898C79.6138 153.102 69.2631 150.35 69.2631 150.35L62.2888 166.428L80.5693 170.985C83.9701 171.838 87.3027 172.73 90.5846 173.569L84.7717 196.908L98.8029 200.408L104.56 177.317C108.393 178.357 112.113 179.317 115.754 180.222L110.017 203.204L124.065 206.704L129.877 183.409C153.831 187.941 171.843 186.114 179.424 164.45C185.533 147.008 179.12 136.948 166.518 130.387C175.697 128.27 182.61 122.234 184.454 109.765L184.449 109.762L184.449 109.763ZM152.353 154.764C148.012 172.206 118.642 162.777 109.12 160.413L116.834 129.493C126.355 131.87 156.891 136.574 152.354 154.764H152.353ZM156.698 109.51C152.738 125.376 128.293 117.315 120.363 115.339L127.356 87.2965C135.286 89.273 160.823 92.9618 156.699 109.51H156.698Z" fill="#F7931A"/>
</g>
<defs>
<clipPath id="clip0_2610_27">
<rect width="256" height="256" fill="white"/>
</clipPath>
</defs>
</svg>
