<svg width="256" height="256" viewBox="0 0 256 256" fill="none" xmlns="http://www.w3.org/2000/svg">
<g clip-path="url(#clip0_2061_1001)">
<path fill-rule="evenodd" clip-rule="evenodd" d="M128 0C198.697 0 256 57.3026 256 128C256 198.697 198.697 256 128 256C57.3026 256 0 198.697 0 128C0 57.3026 57.3026 0 128 0Z" fill="black"/>
<path d="M127.962 0C102.641 0.0313465 77.8961 7.56241 56.8534 21.6421C35.8108 35.7219 19.4138 55.7188 9.73298 79.1078C0.0522046 102.497 -2.47815 128.229 2.46146 153.054C7.40106 177.88 19.5891 200.685 37.4864 218.591C52.3862 233.458 70.7232 244.424 90.874 250.517C111.025 256.61 132.368 257.643 153.013 253.524C173.658 249.405 192.969 240.261 209.236 226.903C225.503 213.544 238.223 196.382 246.272 176.936C254.321 157.49 257.449 136.361 255.379 115.419C253.31 94.4761 246.107 74.3668 234.408 56.8709C222.71 39.3749 206.876 25.0322 188.309 15.1125C169.742 5.19275 149.015 0.00207206 127.962 0ZM127.962 243.303C105.151 243.326 82.8449 236.585 63.8668 223.933C44.8886 211.281 30.0908 193.287 21.3454 172.226C12.6 151.166 10.2999 127.986 14.7363 105.619C19.1726 83.2514 30.1459 62.7019 46.268 46.57C62.3902 30.438 82.9366 19.4484 105.308 14.9914C127.68 10.5344 150.871 12.8104 171.948 21.5313C193.026 30.2522 211.042 45.0263 223.718 63.9844C236.393 82.9425 243.159 105.233 243.159 128.035C243.167 143.165 240.194 158.148 234.409 172.129C228.624 186.11 220.141 198.816 209.444 209.519C198.747 220.223 186.045 228.716 172.065 234.512C158.084 240.309 143.098 243.296 127.962 243.303Z" fill="#FCFCFC"/>
<path d="M59.1214 186.44C49.2134 165.444 48.3086 139.677 57.2054 118.166C62.3445 105.749 70.4267 94.7671 80.7558 86.1665C95.1432 74.2585 113.868 67.1651 132.611 67.2183L132.664 55.6915V53.5015C132.664 53.5015 130.97 53.5015 130.26 53.5015C106.137 54.406 83.1997 64.1962 65.8627 80.9883C50.4109 96.1238 40.7335 116.907 38.2853 138.338C35.6243 161.454 42.1261 185.669 56.6377 203.952L56.8684 204.245C62.8025 211.648 69.8188 218.369 78.1568 222.865C92.0937 230.52 107.635 234.797 123.528 235.349C96.1544 230.313 70.9897 211.604 59.1214 186.44Z" fill="#FCFCFC"/>
<path d="M197.867 201.575C195.206 201.824 192.483 202.019 189.795 202.17C167.132 203.446 142.092 202.905 122.089 190.767C116.568 187.434 111.632 183.217 107.48 178.283C93.0838 161.152 93.5894 135.235 111.995 121.11C128.05 108.803 152.195 111.135 165.127 126.873C166.272 128.274 168.782 131.457 168.782 131.457C168.782 131.457 173.013 129.232 174.352 128.567L174.778 128.363L175.053 128.221L175.78 127.866L176.135 127.689L179.329 126.111L181.103 125.224L181.049 125.135C177.32 118.895 172.351 113.484 166.449 109.237C155.172 101.213 141.237 97.835 127.536 99.8033C105.52 103.137 87.3005 120.081 83.6726 142.133C79.9293 164.92 91.3453 186.777 110.106 199.483C129.62 212.677 154.12 214.512 177.253 213.563C182.673 213.342 193.725 212.411 193.698 212.224C198.193 208.57 202.406 204.584 206.303 200.299C206.303 200.299 199.003 201.478 197.867 201.575Z" fill="#FCFCFC"/>
<path d="M159.557 222.137C156.79 222.072 154.025 221.907 151.263 221.641C128.476 219.46 105.218 210.841 90.1833 192.913C76.2394 176.296 70.3762 152.729 77.1885 131.892C79.7337 124.139 83.8328 116.985 89.2357 110.869C94.6385 104.752 101.232 99.7997 108.613 96.3147C115.994 92.8297 124.008 90.8849 132.166 90.599C140.324 90.313 148.455 91.692 156.062 94.6517C156.062 94.6517 158.723 88.773 159.025 88.2233V88.1258L159.122 87.9218L159.318 87.5051C160.205 85.6697 161.012 83.8077 161.916 81.9989C142.783 75.1626 122.16 74.8168 103.427 83.3377C93.3221 87.9404 84.3779 94.7481 77.2515 103.26C70.1251 111.773 64.9976 121.773 62.2458 132.526C59.494 143.28 59.188 154.513 61.3502 165.401C63.5124 176.288 68.0879 186.552 74.7404 195.44C82.9275 206.39 94.2547 214.84 106.345 221.153C125.549 231.066 153.188 232.325 155.131 231.9C164.666 229.63 178.344 223.104 181.147 220.949C177.031 221.774 169.935 222.031 165.748 222.155C163.702 222.196 161.639 222.191 159.557 222.137Z" fill="#FCFCFC"/>
</g>
<defs>
<clipPath id="clip0_2061_1001">
<rect width="256" height="256" fill="white"/>
</clipPath>
</defs>
</svg>
