<svg width="256" height="256" viewBox="0 0 256 256" fill="none" xmlns="http://www.w3.org/2000/svg">
<mask id="mask0_2061_1007" style="mask-type:luminance" maskUnits="userSpaceOnUse" x="0" y="0" width="256" height="255">
<path d="M255.085 0.915527H0.916016V255H255.085V0.915527Z" fill="white"/>
</mask>
<g mask="url(#mask0_2061_1007)">
<path d="M128.001 255C198.188 255 255.085 198.122 255.085 127.958C255.085 57.7943 198.188 0.915527 128.001 0.915527C57.8137 0.915527 0.916016 57.7943 0.916016 127.958C0.916016 198.122 57.8137 255 128.001 255Z" fill="#FACFD8"/>
<path d="M98.2098 165.64C102.618 165.64 106.313 167.098 109.295 170.012C112.277 172.926 113.768 176.648 113.768 181.18C113.768 185.714 112.277 189.405 109.295 192.254C106.313 195.103 102.618 196.527 98.2098 196.527C93.9314 196.527 90.2687 195.103 87.222 192.254C84.1751 189.405 82.6517 185.714 82.6517 181.18C82.6517 176.648 84.1751 172.926 87.222 170.012C90.2687 167.098 93.9314 165.64 98.2098 165.64ZM157.719 165.64C162.127 165.64 165.822 167.098 168.805 170.012C171.787 172.926 173.277 176.648 173.277 181.18C173.277 185.714 171.787 189.405 168.805 192.254C165.822 195.103 162.127 196.527 157.719 196.527C153.441 196.527 149.778 195.103 146.732 192.254C143.685 189.405 142.161 185.714 142.161 181.18C142.161 176.648 143.685 172.926 146.732 170.012C149.778 167.098 153.441 165.64 157.719 165.64ZM110.851 59.3848V95.5157L110.85 96.3202C110.844 99.6221 110.801 102.838 110.721 105.967C116.316 105.28 122.031 104.937 127.867 104.937C133.84 104.937 139.687 105.297 145.407 106.015C145.318 102.609 145.273 99.1085 145.273 95.5157V59.3848H170.36V95.5157V96.3202C170.349 101.635 170.244 106.726 170.043 111.593C171.653 112.131 173.253 112.702 174.842 113.306C189.518 118.885 202.622 126.483 214.15 136.098L204.166 151.234L203.663 150.862C193.218 143.205 181.679 137.216 169.048 132.893C168.859 132.829 168.67 132.764 168.481 132.701C167.846 139.115 167.11 145.562 166.276 152.043H149.551L149.325 150.444C148.257 142.801 147.374 135.182 146.675 127.585C140.58 126.731 134.31 126.305 127.867 126.305C121.561 126.305 115.425 126.714 109.461 127.531C108.724 135.649 107.825 143.819 106.767 152.043H90.0418L89.8158 150.444C88.9826 144.481 88.2617 138.531 87.6531 132.596L87.3405 132.701L86.7762 132.893C74.0002 137.285 62.2641 143.399 51.5681 151.234L41.585 136.098L42.0661 135.699C53.4774 126.272 66.4197 118.808 80.8933 113.306C82.6091 112.654 84.3381 112.04 86.0806 111.464C85.8691 106.368 85.7633 101.052 85.7633 95.5157V59.3848H110.851Z" fill="#EC6998"/>
</g>
</svg>
