<svg width="256" height="256" viewBox="0 0 256 256" fill="none" xmlns="http://www.w3.org/2000/svg">
<g clip-path="url(#clip0_2570_3564)">
<mask id="mask0_2570_3564" style="mask-type:luminance" maskUnits="userSpaceOnUse" x="0" y="0" width="256" height="256">
<path d="M256 128C256 57.3076 198.692 0 128 0C57.3076 0 0 57.3076 0 128C0 198.692 57.3076 256 128 256C198.692 256 256 198.692 256 128Z" fill="white"/>
</mask>
<g mask="url(#mask0_2570_3564)">
<path d="M0 116V0H256V116H196.203C186.795 116 177.381 115.984 167.973 115.979L168 108H171.909V92H168.005V64.0907H156V68H152V72H148V76H128V72H124V68H120V64.112H107.947V88.0267H104V92.032H100.107V104.037H104.021V108.005H108L107.973 116.016H64.0373L64 112H68V96H72.0587V87.968H76V84H79.904V80H76V76H72V71.936H67.968V63.9947H64V60.0907H55.9893V64H48V60.096H35.9947V64H32V72H28V76H24V80H19.9307V84.0533H4.08533V92.0107H8V100H3.968V116.021L0 116Z" fill="#381D4C"/>
<path d="M256 168.001V228.001L252.011 227.99V224.043H247.984L244.005 223.979V215.969H240.021V212.086H231.979V215.995H227.968V219.979L224.016 220.043H220.043V228.054H216.043V235.985L215.968 239.969H212.075V248.033H215.968V252.033H219.968L220 256.001H64V251.947H67.904V247.921H63.9573V244.07H59.9787V248.033H56.0427V251.985L56 256.001H24L24.032 252.022L27.984 251.958H32.0107V244.011H35.9573V227.99H32.0107V224.043H27.984L24.0053 223.979L24.032 212.022L27.984 211.958H32.0107V204.011H35.9573V187.99H32.0107V184.043H27.984L24.0053 183.979V175.969H20.0213V172.086H11.9787V175.995H7.968V179.979L4.016 180.043L0 180.001V168.001L91.9733 168.011L92.032 167.985V172.038H95.9787V176.054H92.0427V184.011H95.9893L96.0427 188.011V195.958H108.005V192.022L111.984 191.958L115.979 192.033V195.958H123.957V191.985L124.021 188.038H127.899V184.038H123.984L120.005 183.985L119.957 179.985L120.021 176.038H123.957V171.985L124.032 167.985C124.651 167.995 125.275 168.001 125.899 168.001L207.957 168.006L208.043 171.985V188.011H211.989V191.91H220.011V188.011H223.957V180.017L224.011 172.011L227.979 172.006V176.022H231.968L231.989 179.99H228.091V188.011H231.989V191.91H240.011V188.011H243.925V183.969H240.021L239.957 180.017V171.985L240.032 167.985L256 168.001ZM75.984 219.958H80.032V216.033H84.032V212.033H87.9253V203.969H84.032L83.9573 199.985V191.963H79.9573V184.043H75.984L72.0373 183.979V179.995H68.0213V176.075H59.9787V179.969H55.9947V187.979L52.016 188.043H47.9893V191.99H44.0427V208.011H47.9893V215.958H52.016L55.9627 216.022V219.958H75.9893H75.984ZM192.037 183.985V188.011H195.989V191.905H203.957V175.931H199.957V172.07H195.979V175.963H192.043L192.037 183.985ZM72.0373 239.985V243.958H79.9147V236.081H72.0427V239.985H72.0373ZM59.9573 235.985V232.038H52.064V239.915H59.9573V235.985ZM171.957 191.985V183.969H168.021V176.043H152.043V180.017L151.979 183.995H148.043V192.049H152.043V195.958H171.957V191.985Z" fill="#77464C"/>
<path d="M0 116.001L3.968 116.017V119.995H8V123.91H24V119.985L23.9787 120.001H28.0373V123.889H44.0533V116.075H48.0213V123.915H64.0267V116.017H107.963L107.995 120.001H103.995V124.001H100V128.006H96V136.006H92V144.006H87.9253V152.059H84V156.006H76V160.006H72.016V163.974C71.44 163.979 70.864 164.001 70.288 164.001H0V116.001ZM167.973 115.979C177.381 115.985 186.795 116.001 196.203 116.001H256V164.001L243.984 163.985L243.957 159.985V155.947H239.941V152.043H228.043V163.979H224L223.952 159.985V152.017L224.005 148.011H227.952V139.958H223.952V131.969H220.016V128.059H211.989V132.027H208.037V156.049H204.037V159.985L204.011 163.985L167.973 163.974L167.995 152.001H171.909V132.001H168V124.001H164V116.001L167.973 115.979Z" fill="#53306F"/>
<path d="M0 164.001H70.2933C70.8693 164.001 71.4453 163.979 72.0213 163.974L75.9787 163.985L80.0213 163.979H83.9787L88.0213 163.985H91.968V168.011L0 168.001V164.001Z" fill="#935C59"/>
<path d="M244 256H228C227.957 254.736 228.4 252.944 227.749 252.352C227.003 251.675 225.291 252.064 223.995 251.995L224.005 252.005L224 248H228.053V244.011H232.011L232 244V251.909H236.021V248.123H240.064V252.027H244.037L244 256ZM24.0319 252.021L23.9999 256H7.99995C7.95728 254.736 8.39995 252.944 7.74928 252.352C7.00261 251.675 5.29063 252.064 3.99463 251.995L4.0053 252.005V247.995L3.99996 248H8.05328V244H12.0106L11.9999 243.989V251.899H16.0213V248.112H20.0639V252.016H24.0373L24.0319 252.021Z" fill="#D3D3D3"/>
<path d="M244 223.979L247.984 224.043V227.989H252.011V232.059H248.096V236H256V240C254.736 240.043 252.939 239.6 252.352 240.251C251.675 240.997 252.075 242.715 252.011 244.011L247.995 243.995L248.005 244.005V239.936H244.005L244 223.979ZM0 200V184L4.00533 184.005L3.99467 183.995V192.064H7.89867V196.027H4.00533V200.005L0 200ZM0 240V224L4.00533 223.995V232.064H7.89867V236.027H3.99467V240H0ZM56.0427 251.984V248.032H59.9787V244.069H63.9573V247.92H67.904V251.947H64V256H60V251.984H56.0427Z" fill="#FEFEFE"/>
<path d="M244 256L244.032 252.021L247.984 251.957H252.011V244.011L256 244V256H244Z" fill="#77464C"/>
<path d="M243.985 163.985L256.001 164.001V168.001L240.033 167.99L239.953 168.027V163.985H243.985Z" fill="#935C59"/>
<path d="M256 236H248.096V232.053H252.011V227.989L256 228V236ZM0 200L4.00533 200.005L3.99467 199.995V208H0V200Z" fill="#D3D3D3"/>
<path d="M0 219.999V215.999L4.016 215.957L7.99467 216.021L7.968 219.978L4.016 220.042L0 219.999Z" fill="#77464C"/>
<path d="M0 240L4.00533 239.995L3.99467 248.005L4.00533 247.995L0 248V240ZM4.00533 184.005L0 184V180L4.016 180.043L4.00533 184.005Z" fill="#D3D3D3"/>
<path d="M0 208L4.00533 207.995V212.005L0 212V208Z" fill="#FEFEFE"/>
<path d="M0 212L4.00533 212.005L3.99467 211.995L4.016 215.957L0 216V212ZM0 220L4.016 220.043L3.99467 224H0V220ZM256 244L252.011 244.011C252.075 242.715 251.675 241.003 252.352 240.251C252.939 239.6 254.736 240.037 256 240V244Z" fill="#D3D3D3"/>
<path d="M0 248L4.00533 247.995V252.005L0 252V248Z" fill="#FEFEFE"/>
<path d="M0 252C1.33156 251.998 2.66311 251.997 3.99467 251.995L4 256H0V252Z" fill="#D3D3D3"/>
<path d="M3.99996 256L3.99463 251.995C5.29063 252.064 7.00261 251.675 7.74928 252.352C8.39995 252.939 7.96261 254.736 7.99995 256H3.99996Z" fill="#FEFEFE"/>
<path d="M56.0427 251.984H60V256H56L56.0427 251.984ZM220 256L219.968 252.032L220.053 251.947L224.005 252.005L224 252V256H220Z" fill="#D3D3D3"/>
<path d="M224 256L223.995 251.995C225.291 252.064 227.003 251.675 227.749 252.352C228.4 252.939 227.963 254.736 228 256H224Z" fill="#FEFEFE"/>
<path d="M155.998 68.0006V64.0913H167.998V91.9953L167.993 92.006H163.95V100.022H159.998V96.0113H155.987V92.0646H152.083V95.99H156.009V100.006H160.014V104.049H151.95V112.049H147.939V116.059H144.089V120.017H156.014L155.982 119.985L156.009 124.017H128.014V119.985L127.982 120.017H139.929V115.969H135.966V111.963H131.961V103.963H123.961V99.958H119.955V92.0433H108.041V100.011L108.003 107.995L107.993 108.006H104.014V104.038H100.105V92.038H103.993V88.0273H107.95V64.1126H120.003V68.0006H112.041V87.9633H120.019L135.987 87.958H163.955V68.0006H155.998ZM131.987 96.0113V92.0646H128.083V95.99H132.009V99.9953H136.009L136.041 103.985V107.91H147.955V99.926H143.955V92.0753H139.961V100.017H135.987V96.0113H131.987ZM64.0299 116.017V123.921H48.0301V116.081H44.0515V123.889H28.0408V120.001H23.9821V116.086H20.0888V119.979H23.9981V123.91H7.99814V119.995L7.9928 120.006H16.0035V112.006L19.9821 111.958H28.0035L31.9821 112.022L32.0355 115.985V119.958H40.0515V111.958H48.0195L51.9981 112.011L52.0461 115.985V119.958H60.0245V112.033L63.9979 112.001L64.0299 116.017ZM7.99814 92.0006H4.07812V84.054H19.9181V80.0006H23.9981L24.0088 80.0113V83.9633H31.9981V87.9846L28.0141 88.0486H15.9928V91.9953L15.9661 91.9793L11.9875 91.9953L12.0088 92.0166V88.086H8.0088V92.0006L7.9928 92.0113L7.99814 92.0006Z" fill="black"/>
<path d="M128.001 76.0006H148.001V79.9206H128.001V76.0006ZM8.0008 120.001H3.97412V99.9953H8.0008L8.01147 100.006L8.0488 103.99C8.0488 106.657 8.0488 109.323 8.0488 111.99V116.011L8.0008 120.001ZM76.0007 84.0006V87.9686H72.0594V96.0006H68.0007L67.9634 87.9846L67.974 84.0006H76.0007ZM168.001 92.0006H171.91V108.001H168.001L167.958 103.99L167.995 92.006L168.006 91.9953L168.001 92.0006ZM68.0007 96.0006V112.001H64.0007L63.958 107.99V100.017L64.0327 96.0326L68.0007 96.0006ZM64.0007 64.0006H67.9687V71.9366H72.006V75.9953L71.9954 76.006L68.0167 76.0433L64.0167 75.99L63.9954 64.006L64.0007 64.0006ZM36.0008 64.0006V60.0913H48.0008V63.9953V64.006L44.0008 64.0433H40.0168L36.0168 64.006L35.9901 64.0006H36.0008ZM108.001 120.001L107.969 116.017L107.995 108.006L108.006 107.995H112.043V111.995L112.022 115.969L112.011 119.974L107.99 119.99L108.001 120.001Z" fill="black"/>
<path d="M31.9946 71.9946V63.9946H35.9946L36.0053 64.0053L36.0426 68.0053V72.0053H32.0106L31.9946 71.9946ZM167.973 115.979L164 116L164.011 116.011L163.957 111.989L164.016 108.032L167.995 107.995L168 108L167.973 115.979ZM48 64L55.9945 63.9946L56.0105 64.0106L55.9839 67.968L51.9893 68.0426L48.032 67.984L48 64Z" fill="black"/>
<path d="M55.9947 63.9953V60.0913H64V64.0006L63.9893 64.0113L59.9893 64.0486L56.0053 64.0166L55.9893 64.0006L55.9947 63.9953ZM8 100.001V92.0006L8.00533 91.9953L12.0107 92.0113L11.9893 91.99L12.0427 96.0166V100.006L8 100.001ZM28 76.0006V71.9953H31.9947L32.0107 72.0113L31.968 75.9953L31.9787 75.958L28.0053 76.0113L27.9947 75.9953L28 76.0006ZM120 68.0006H124V72.0006H120V68.0006ZM152 72.0006V68.0006H156V72.0006H152ZM76 80.0006H79.904V84.0006H76V80.0006ZM72 76.0006H76V80.0006H72.0213L71.9947 76.006L72.0053 75.9953L72 76.0006Z" fill="black"/>
<path d="M24 80V76H28L28.0053 76.0053L27.9627 79.984L27.984 79.9627L24.0053 80.0053L24 80ZM148 76V72H152V76H148ZM124 72H128V76H124V72Z" fill="black"/>
<path d="M91.9736 168.011V163.985L92.0163 164.006C93.275 163.963 95.067 164.395 95.6536 163.745C96.331 162.998 95.9363 161.286 96.0056 159.99L100 159.985V163.985H104L104.006 168.006H100.112V171.905H103.995V168.001H108.006V175.894H115.899V171.979H112V168.001C113.27 167.958 114.987 168.39 115.675 167.739C116.336 167.11 115.942 165.361 116.016 164.102L116.022 163.974L120.011 164.022V168.033H123.958L124.038 167.995L123.963 171.995C123.046 171.995 122.123 172.049 121.206 171.995C120.326 171.942 119.915 172.193 119.99 173.153C120.064 174.113 120.022 175.073 120.027 176.038L119.963 179.99H116V188.011L116.011 188.001H111.99V191.963L108.011 192.027V188.102H103.99V195.963H100.022V191.99H96.0483V188.022H99.995V184.001H111.888V179.947H103.968V176.097H100.011V184.011H95.995V179.99H92.0483V176.059H95.9843V172.038C95.9896 171.078 95.9416 170.107 96.0216 169.147C96.0963 168.187 95.675 167.937 94.795 167.99C93.883 168.043 92.9603 167.99 92.0376 167.99L91.979 168.017L91.9736 168.011Z" fill="#FEFEFE"/>
<path d="M4.0053 212.005V207.995L3.99463 208.005H8.04795V204.005H12.0053L11.9946 203.995V216.064H16.0479V219.904H20.0053V212L19.9946 212.011L24.0319 212.027L24.0053 223.984V240.037H28.0053V244.011L11.9946 244L12.0053 244.011V240L11.9946 240.011H19.9039V232H15.9999V228H19.8933V224.101H16.0106V228.011L11.9999 228L12.0106 228.011V219.984H7.97328L7.99995 216.027C7.93061 214.725 8.33061 213.008 7.65328 212.256C7.06661 211.605 5.26396 212.043 3.99996 212L4.01063 212.011L4.0053 212.005Z" fill="#D3D3D3"/>
<path d="M167.98 163.974L204.017 163.985L207.985 164.006L207.958 168.006L125.894 168.001L124.028 167.99L123.953 168.027L124.017 164.006L127.98 163.979H139.98C145.313 163.981 150.646 163.983 155.98 163.985H164.022L167.98 163.974Z" fill="#935C59"/>
<path d="M244 223.978V239.936H248.005V244.005L231.995 243.994L232.005 244.005L232 240H239.909V232.01H236V228H239.893V224.101H236.011V228.01H232V219.984H227.973V216H236.064V219.904H240.027V215.973H244.011V223.984L244 223.978ZM56 187.978V179.968H59.9787V183.893H64.032V180H72.032V183.978H68.0053V192H63.9947V188.106H60.096V191.989H64V196H60.096V203.989H68L67.9893 208L68 207.989L52 208V203.93H56V187.978Z" fill="#D3D3D3"/>
<path d="M164.015 176.043H168.02V183.969C168.015 184.929 168.058 185.899 167.983 186.854C167.908 187.814 168.319 188.07 169.199 188.017C170.116 187.958 171.039 188.011 171.956 188.017V191.985H167.983V195.958H164.015V192.123H155.983V195.963H152.047V192.049H148.042V188.017H155.892V183.995H151.978L152.042 180.017H156.015V176.043H159.983V179.878H164.015V176.043ZM160.116 184.081V187.899H163.903V184.081H160.116Z" fill="#FEFEFE"/>
<path d="M7.96875 179.978V175.994H16.0541V179.898H20.0167V175.968H24.0007V200.032H28.0007V204.005L11.9901 203.994L12.0007 204.005V200L11.9901 200.01H19.8994V192H16.0007V188H19.8941V184.101H16.0114V188.01L12.0007 188L12.0114 188.01V179.984H7.97408L7.96875 179.978Z" fill="#D3D3D3"/>
<path d="M11.9951 203.995L28.0057 204.005L27.9951 203.995L27.9844 211.957L24.0377 212.021C22.6884 212.021 21.3391 212.011 19.9951 212.005V208.112H16.0964V211.995H20.0057V219.909H16.0431V216.064H11.9897L11.9951 203.995Z" fill="#FEFEFE"/>
<path d="M72.0172 219.957H55.9639V216.021H60.0385V212.08H64.0332V215.899H68.0065V207.995L68.0012 208H72.0545V211.989H76.0119L76.0012 216L76.0119 215.989H72.0225V219.952L72.0172 219.957Z" fill="#D3D3D3"/>
<path d="M28.0054 244.006V240.033H24.0054V223.979L27.984 224.043V227.99H32.0107V232.049H28.0854V236.017H35.9574V239.985H32.0107V244.011L27.9947 243.995L28.0054 244.006ZM28.0054 204.006V200.033H24.0054V183.979L27.984 184.043V187.99H32.0107V192.049H28.0854V196.017H35.9574V199.985H32.0107V204.011L27.9947 203.995L28.0054 204.006ZM56.0001 187.979V203.937H51.9947C51.9982 205.287 52.0018 206.639 52.0054 207.99L47.9894 208.011V203.985H44.0427V200.017H51.8827V195.958H47.9894V191.99H52.016V188.043L55.9948 187.979H56.0001ZM68.0055 207.995V215.899H64.0321V212.081H60.0375V216.027H55.9681L52.016 215.958L52 208.001L68.0108 207.99L68.0055 207.995ZM216.043 235.985V228.054H220.043V224.017L224 224.001V232.07H227.904V236.033H224V240.001H220V235.979H216.048L216.043 235.985Z" fill="#FEFEFE"/>
<path d="M11.9951 243.995C17.3284 243.995 22.6617 243.995 27.9951 243.995L27.9844 251.957L24.0377 252.021H20.0537V248.117H16.0111V251.904H11.9897L11.9951 243.995ZM207.957 168.005L207.984 164.005H212.005L211.995 163.995V167.995H224V172.011H219.936V175.909H211.947V171.984H208.037L207.957 168.005ZM79.9575 188.016V191.963H83.9575V199.984H80.0055V204.005L75.9948 203.995L76.0055 204.005V199.931H72.1015V195.968H76.0055V188L75.9948 188.011L79.9575 188.021V188.016ZM223.957 180.016V183.984H220.011V188.011H211.989V183.984H208.043V180.016H223.957Z" fill="#FEFEFE"/>
<path d="M223.956 180.017H208.042V171.985H211.951V175.91H219.94V172.011H224.01L223.956 180.017Z" fill="#D3D3D3"/>
<path d="M240.032 167.989L239.958 171.989H236.15C236.016 173.403 236.342 175.152 235.659 175.749C234.912 176.4 233.238 175.979 231.968 176.021H227.979V172.005C229.248 171.963 231.046 172.411 231.643 171.755C232.32 171.013 231.931 169.291 232.006 167.995L231.995 168.005L239.952 168.027L240.032 167.989ZM239.958 180.016L240.022 183.963L240.011 188.016L231.99 188.011V179.989L239.958 180.016ZM124.022 188.032L123.958 191.984H119.984V195.957H115.979V192.032L116.006 187.995L115.995 188.005C117.259 187.963 119.062 188.4 119.648 187.749C120.326 186.997 119.931 185.28 120.006 183.979L123.984 184.043L124.022 188.032Z" fill="#FEFEFE"/>
<path d="M59.9554 235.984V239.915H52.0622V232.043H56.0087V235.989L59.9554 235.984ZM47.9875 191.989V195.957H51.8808V200.011H44.0409V191.989H47.9875ZM35.9555 196.016H28.0835V192.048H32.0089V187.989H35.9555V196.016Z" fill="#D3D3D3"/>
<path d="M72.0426 239.985V236.081H79.9146V243.958H76.016V239.985H72.0426ZM68.0053 192.006V183.979H72.032L75.984 184.043L75.9946 188.006L76.0053 187.995H71.952V191.995H67.9946L68.0053 192.006Z" fill="#FEFEFE"/>
<path d="M35.9555 236.016H28.0835V232.048H32.0089V227.989H35.9555V236.016Z" fill="#D3D3D3"/>
<path d="M227.968 219.978H231.995V228.005L232.005 227.994H227.952V223.994H224L224.011 220.037L227.957 219.973L227.968 219.978ZM20.0213 175.968V179.898H16.0587V176H11.9787V172.09H20.0213V175.968ZM195.979 175.968V172.069H199.963V175.93H203.963V179.983L195.995 180.005L195.979 175.968ZM7.968 179.978H12.0053V188.005H7.952V183.994H4L4.01067 184.005L4.02133 180.042L7.968 179.978ZM240.021 215.968V219.898H236.059V216H231.979V212.09H240.021V215.968ZM68.0213 180H64.032V183.893H59.9787V176.074H68.0213V180Z" fill="#FEFEFE"/>
<path d="M239.957 180.016L231.989 179.989L231.968 176.021C233.237 175.979 234.917 176.395 235.659 175.755C236.341 175.152 236.016 173.408 236.149 171.984H239.957V180.016ZM120 183.979C119.931 185.28 120.325 186.997 119.648 187.749C119.061 188.4 117.259 187.963 115.995 188.005V179.984H119.957L120.005 183.984L120 183.979ZM195.995 180.005L203.957 179.984V184.016L196 184L196.011 179.989L196 180L195.995 180.005ZM231.989 179.989V188.011H228.091V179.989H231.989ZM232.005 167.995C231.931 169.291 232.325 171.013 231.643 171.755C231.045 172.411 229.243 171.968 227.979 172.005L224.011 172.011C224.005 170.677 224 169.344 223.995 168.011C226.661 168 229.333 168 232.005 167.995ZM151.979 184H155.893V188.016H148.043V183.995L151.979 184Z" fill="#D3D3D3"/>
<path d="M195.995 184.005L203.957 184.016V187.984L195.989 188.011L196.005 183.995L195.995 184.005Z" fill="#FEFEFE"/>
<path d="M103.985 195.957V188.095H108.006V195.957H103.985ZM195.99 188.01L203.958 187.983V191.903H195.99V188.01ZM211.99 188.01H220.011V191.909H211.99V188.01ZM231.99 188.01H240.011V191.909H231.99V188.01ZM155.985 195.957V192.122H164.017V195.962L155.985 195.957ZM27.995 203.994L32.011 204.01V211.957H27.9844L27.995 203.994ZM84.0325 203.967H87.9259V212.031H84.0325L83.9472 211.946V204.053L84.0325 203.967ZM52.0057 207.994L52.0164 215.957H47.9897V208.01L52.0057 207.994ZM215.969 248.031H212.075V239.967H215.969L216.054 240.053V247.946L215.969 248.031ZM27.9844 251.957L27.995 243.994L32.011 244.01V251.957H27.9844ZM92.0325 167.983C92.9552 167.983 93.8779 168.037 94.7952 167.983C95.6699 167.93 96.0912 168.175 96.0165 169.141C95.9365 170.101 95.9845 171.071 95.9792 172.031H92.0325V167.983ZM120.022 176.031C120.017 175.071 120.059 174.101 119.985 173.146C119.91 172.186 120.321 171.93 121.201 171.983C122.118 172.042 123.041 171.989 123.958 171.983V176.037L120.022 176.031ZM156.017 176.042V180.015H152.043V176.042H156.017ZM164.017 176.042V179.877H159.985V176.037L164.017 176.042ZM195.979 175.967L195.995 180.005L196.006 179.994L192.043 180.015V175.962L195.979 175.967ZM92.0432 179.983H95.9899V184.01H92.0432V179.983Z" fill="#D3D3D3"/>
<path d="M192.042 180.016L196.004 179.995C196.004 181.328 196.004 182.661 196.004 183.995L192.042 183.984V180.016Z" fill="#FEFEFE"/>
<path d="M32.011 187.989H27.9844V184.042H32.011V187.989ZM75.9952 188.005L75.9845 184.042H79.9579V188.016L75.9952 188.005ZM95.9899 184.01H100.006L99.9952 183.994V188.016H96.0432L95.9899 184.01ZM124.022 188.032L123.985 184.042H127.899V188.032H124.022ZM171.958 188.016C171.041 188.01 170.118 187.957 169.201 188.016C168.321 188.069 167.91 187.813 167.985 186.853C168.059 185.893 168.017 184.933 168.022 183.968H171.958V188.016ZM192.043 183.984L196.006 183.994L195.99 188.01H192.043V183.984ZM208.043 183.984H211.99V188.01H208.043V183.984ZM220.011 188.01V183.984H223.958V188.01H220.011ZM240.011 188.01L240.022 183.968H243.926V188.01H240.011ZM52.0164 188.042V191.989H47.9897V188.042H52.0164ZM116.006 187.994L115.979 192.032L111.985 191.957V187.994H116.006ZM96.0432 191.984H100.017V195.957H96.0432V191.984ZM119.985 195.957V191.984H123.958V195.957H119.985ZM167.985 195.957V191.984H171.958V195.957H167.985ZM32.011 204.01V199.984H35.9577V204.01H32.011ZM80.0059 204.005V199.984H83.9579L84.0325 203.968L83.9472 204.053L79.9952 203.994L80.0059 204.005ZM44.043 203.984H47.9897V208.01H44.043V203.984ZM84.0325 212.032V216.032H80.0325L79.9472 215.946C79.9632 214.633 79.9792 213.318 79.9952 212.005L83.9419 211.946L84.0325 212.032Z" fill="#D3D3D3"/>
<path d="M72.0156 219.957V216H76.005L75.9836 219.963L72.0156 219.957Z" fill="#FEFEFE"/>
<path d="M75.9845 219.957L76.0059 215.995L75.9952 216.005L79.9419 215.947L80.0325 216.032V219.957H75.9845ZM224.017 220.043L224.001 224L220.038 224.011V220.037H224.011L224.017 220.043ZM32.011 227.989H27.9844V224.043H32.011V227.989ZM252.011 227.989H247.985V224.043H252.011V227.989Z" fill="#D3D3D3"/>
<path d="M59.9574 235.985H56.0107V232.038H59.9574V235.985Z" fill="#FEFEFE"/>
<path d="M216.043 235.985H219.995C219.998 237.321 220.001 238.658 220.005 239.995L216.059 240.054L215.968 239.969L216.043 235.985ZM32.0103 244.011V239.985H35.9569V244.011H32.0103ZM72.0425 239.985H76.0159V243.958H72.0425V239.985ZM219.968 252.033H215.968V248.033L216.053 247.947L220.005 248.006L219.995 247.995L220.053 251.942L219.968 252.033Z" fill="#D3D3D3"/>
<path d="M99.9999 159.985L96.0053 159.99L96.0373 159.969L95.9573 156.022V143.985H91.9893L92.0053 144.001V136.001H96.0053L95.9893 135.985V139.995H100.016L100.043 156.011L99.9999 159.985Z" fill="black"/>
<path d="M91.9733 163.984H88.0213L87.9626 160.016V155.989H83.9893L84.0053 156.005V152.059H87.9306V144.005H92.0053L91.9893 143.989L92.0426 148.016V160.011L92.0159 164.005L91.9733 163.984ZM96.0053 136.005V128.005H100.005L99.9893 127.989L100.043 132.016L100.016 136C98.6719 136 97.3333 136 95.9893 135.989L96.0053 136.005Z" fill="black"/>
<path d="M75.9999 160V156.005H84.0053L83.9893 155.989L83.9573 159.952L84.0053 160.005L80.0159 160.043L75.9893 159.989L75.9999 160Z" fill="black"/>
<path d="M75.9783 163.984L72.021 163.973V160H75.9997L75.989 159.989L75.9783 163.984ZM100.005 128.005V124.005H104.005L103.989 123.989C103.989 125.317 103.978 126.64 103.973 127.968L99.989 127.989L100.005 128.005Z" fill="black"/>
<path d="M104 124V120H108L107.989 119.989L107.984 124L103.989 123.989L104 124Z" fill="black"/>
<path d="M223.957 136.016V139.952H227.957V143.984H224.011V148.011C222.747 148.048 221.04 147.605 220.341 148.256C219.68 148.869 220.075 150.624 219.995 151.872V152.005L220.005 151.995H215.936V147.957H212.005V140L211.995 140.011H220.005V136L219.995 136.011L223.957 136.016Z" fill="#FEFEFE"/>
<path d="M223.956 152.016V159.984H219.972V163.995H211.993L212.004 164.005V159.984H204.042V156.048H208.042V152.016H212.042V155.904H220.004V151.995L219.993 152.005L223.956 152.016ZM208.042 139.984V132.027H211.988V128.059H220.02V131.968L219.993 136.005L220.004 135.995H211.999V140.005L212.01 139.995L208.042 139.984Z" fill="#FEFEFE"/>
<path d="M208.041 139.985L212.004 139.995V147.958H215.935V151.995H220.004V155.905H212.036V152.011H208.036L208.041 139.985Z" fill="#D3D3D3"/>
<path d="M168.001 132H171.916V152H168.001L168.012 152.011L167.958 140.016L168.012 131.989L168.001 132Z" fill="black"/>
<path d="M211.995 163.995H219.973V159.985H223.957L224.005 163.985L223.995 168.006L224 168.001H211.989V164.001L211.995 163.995Z" fill="#D3D3D3"/>
<path d="M223.995 168.005L224.005 163.979H228.043V160.016L236 160V164.053H232V168.011L232.011 168L224 168.011L223.995 168.005Z" fill="#FEFEFE"/>
<path d="M231.995 168.005V164.048H235.995V159.995L243.957 159.989L243.984 163.984H239.952V168.027L232 168L231.995 168.005Z" fill="#D3D3D3"/>
<path d="M243.957 159.99L235.994 159.995L236.005 160.006C236.005 158.95 236.058 157.889 235.957 156.849C235.93 156.539 235.45 156.075 235.141 156.043C234.154 155.937 233.152 156.001 232.016 156.001V152.043H239.941V155.947H243.957V159.99Z" fill="#FEFEFE"/>
<path d="M164 115.999V123.999L164.011 123.989L159.995 124.01V119.983H155.984L156.016 120.015V112.015H159.963V116.01H164.011L164 115.999Z" fill="black"/>
<path d="M232.015 152.043V156.001C233.151 156.001 234.153 155.937 235.14 156.043C235.449 156.075 235.929 156.539 235.956 156.843C236.063 157.889 236.004 158.95 236.01 160.006L228.042 160.017V152.043H232.015Z" fill="#D3D3D3"/>
<path d="M167.98 163.973L164.022 163.984L163.958 159.984L164.038 152.011L164.012 152.037L168.012 152.011L168.001 152L167.98 163.973ZM164.001 124H168.001V132L168.012 131.989H163.958V127.984L164.012 123.989L164.001 124Z" fill="black"/>
<path d="M204.042 159.984H212.005V164.005H207.984L204.016 163.984L204.042 159.984ZM223.957 152.016L219.994 152.005V151.872C220.069 150.624 219.68 148.869 220.341 148.256C221.04 147.605 222.746 148.042 224.01 148.01L223.957 152.016ZM224.01 148.01V143.984H227.957V148.01H224.01ZM219.994 136.005L220.021 131.968H223.957V136.016L219.994 136.005Z" fill="#D3D3D3"/>
<path d="M75.979 163.984L75.9897 159.989L80.0163 160.043L80.0217 163.979L75.979 163.984Z" fill="#7C7C7C"/>
<path d="M80.021 163.979V160.043L84.005 160.011L83.9783 163.979H80.021Z" fill="#B2B2B2"/>
<path d="M83.9798 163.979L84.0065 160.011L83.9585 159.952L87.9585 160.016L88.0225 163.984L83.9798 163.979Z" fill="#7C7C7C"/>
<path d="M231.995 243.995L248.005 244.005L247.995 243.995L247.984 251.957L244.037 252.021H240.059V248.117H236.016V251.904H231.995V243.995Z" fill="#FEFEFE"/>
<path d="M231.995 239.995L232.005 244.005H228.048V247.995H223.995L224.005 248.005V240H232L231.995 239.995ZM220.053 251.947L219.995 247.995L224.005 248.005L224 248L224.011 252.011L220.064 251.952L220.053 251.947ZM12.0054 239.995V244.005H8.05339V248.005H4.00003C3.99999 245.339 3.99999 242.672 4.00003 240.005L12.0001 240L12.0054 239.995Z" fill="#FEFEFE"/>
<path d="M247.984 251.957L247.995 243.995L252.011 244.011V251.957H247.984ZM3.99463 183.995H7.95195V188.005C9.29952 188.002 10.6471 187.998 11.9946 187.995C12.0373 189.259 11.5946 191.051 12.2506 191.648C12.9973 192.325 14.7093 191.931 16.0053 192.005L15.9999 192V196.053H11.9999V200.011L12.0106 200H3.99996L4.01063 200.011V196.032H7.90395V192.069H3.99463V183.995ZM12.0053 239.995L3.99463 240.005V236.027H7.89861V232.064H4.0053V223.995L3.99463 224.005H8.04795V228.005H12.0053L11.9946 227.995C12.0373 229.259 11.5946 231.051 12.2506 231.648C12.9973 232.325 14.7093 231.931 16.0053 232.005L15.9999 232V236.053H11.9999V240L12.0053 239.995Z" fill="#D3D3D3"/>
<path d="M3.99463 199.995H11.9999V204.005H8.05328V208.005H3.99996V200L3.99463 199.995ZM12.0053 228.005H8.05328V224.005H3.99996L4.0213 220.043L7.96795 219.979H12.0106L12.0053 228.005ZM3.99463 211.995C5.25863 212.037 7.06128 211.6 7.64795 212.251C8.32528 213.003 7.92528 214.72 7.99461 216.021L4.01596 215.957L3.99463 211.995Z" fill="#FEFEFE"/>
<path d="M112.043 111.989V107.989H108.005L108.043 100.011C109.056 100.005 110.069 99.9734 111.083 100.011C111.776 100.032 112.027 99.7548 112.011 99.0774C111.984 98.0641 112.021 97.0508 112.032 96.0374C113.045 96.0214 114.059 95.9841 115.072 96.0108C115.749 96.0268 116.032 95.7814 116.011 95.0881C115.973 94.0748 116.005 93.0614 116.011 92.0481H119.957V99.9574H123.957V103.957H131.957V111.957H135.968V115.968H139.931V120.021H127.984V112.075H120.08V116.048H124.053V119.984H128.016V124.016H156.016L155.984 123.984V128.005L156 127.984H151.984V132.005L152.005 131.984H148.032V135.979C147.019 135.984 146 135.968 144.981 136.016C144.672 136.032 144.112 136.208 144.101 136.336C144.028 137.435 144.026 138.538 144.096 139.637C144.107 139.776 144.651 139.968 144.955 139.984C145.968 140.027 146.987 139.995 148.005 139.995L147.968 147.968C146.997 147.979 146.021 148.032 145.051 147.984C144.229 147.947 143.973 148.261 143.984 149.061C144.016 151.365 143.979 153.664 143.968 155.968L139.995 156.005C139.957 154.741 140.4 152.949 139.749 152.357C139.003 151.68 137.291 152.075 135.995 152.005C135.957 150.741 136.4 148.944 135.749 148.357C135.003 147.68 133.285 148.069 131.989 148L131.973 144.027C131.984 143.675 132 143.317 132 142.96C132.011 140.08 132.011 140.091 134.869 139.989C135.232 139.973 135.877 139.803 135.883 139.669C135.973 138.571 135.973 137.461 135.904 136.363C135.893 136.224 135.344 136.032 135.04 136.016C134.021 135.973 133.003 136 131.979 135.995V132.016H127.984V128.011H123.984V124.011H119.984V120.011H115.984V116.032C115.984 115.072 115.941 114.107 116.016 113.152C116.091 112.192 115.68 111.925 114.795 111.984C113.883 112.043 112.96 111.995 112.043 111.989Z" fill="#D3D3D3"/>
<path d="M123.999 72V76H127.999V79.92H147.999V76.0054H151.999V72.0054H155.999V68.0054H163.956V71.984H159.956V76.064H155.956V80.0107H152.026V83.9734C150.65 83.984 149.268 83.9734 147.892 84.0054C146.66 84.032 144.895 83.632 144.335 84.272C143.679 85.0187 144.068 86.688 144.01 87.952H135.988C135.988 87.2054 135.924 86.4374 136.015 85.6907C136.175 84.3947 135.791 83.9147 134.372 83.9627C130.906 84.0694 127.439 83.984 123.972 83.9734V79.968H119.946V75.968H115.946V71.984H112.042V68.0054H119.994V72.0054H123.994L123.999 72Z" fill="#B2B2B2"/>
<path d="M159.966 112.016H156.014V120.016H144.088V116.059H147.939V112.053H151.95V104.053H160.014V100L159.998 100.021H163.944V92.0054H167.992L167.955 103.989C167.038 103.989 166.115 104.043 165.203 103.989C164.318 103.931 163.907 104.187 163.982 105.147C164.056 106.107 164.008 107.067 164.014 108.032L163.955 111.989L159.966 112.016Z" fill="#D3D3D3"/>
<path d="M112.042 71.9846H115.951V75.974H119.946V79.9686H123.972V83.9793H120.026V87.9633H112.042V71.9846ZM152.026 83.974V80.0166H155.962V76.07H159.956V71.9846H163.956V84.0166L159.978 84.0326L152.031 83.9793L152.026 83.974Z" fill="#7C7C7C"/>
<path d="M136.043 103.984L136.011 99.9942L135.989 100.016H139.963V92.0688H143.952V99.9249H147.957V103.978L136.043 103.984Z" fill="#B2B2B2"/>
<path d="M120.021 87.9627V83.9787H123.968C127.434 83.984 130.906 84.0693 134.368 83.9627C135.792 83.9147 136.17 84.3947 136.016 85.6907C135.925 86.4373 135.994 87.2 135.989 87.9573L120.021 87.9627ZM152.026 83.9733L159.978 84.032L159.989 87.9573H144.01C144.069 86.688 143.68 85.0187 144.33 84.2667C144.896 83.6267 146.661 84.032 147.893 84C149.269 83.9733 150.65 83.984 152.026 83.9733Z" fill="#D3D3D3"/>
<path d="M136.042 103.985H147.956V107.91H136.042V103.985Z" fill="#7C7C7C"/>
<path d="M155.984 119.985H160V124.011L160.011 123.985H155.99L156.016 124.017L155.984 119.985Z" fill="#D3D3D3"/>
<path d="M155.989 96.0106H160V100.021L160.016 100.005H156.011V95.9893L155.989 96.0106ZM131.989 96.0106H135.989V100.011L136.011 99.9946H132.011V95.9999L131.989 96.0106Z" fill="#7C7C7C"/>
<path d="M112.031 96.0315C112.02 97.0449 111.978 98.0582 112.01 99.0715C112.026 99.7542 111.775 100.032 111.087 100.01C110.074 99.9729 109.06 100.005 108.047 100.01L108.042 96.0155L111.967 95.9675L112.031 96.0315Z" fill="#B2B2B2"/>
<path d="M156.008 95.9889H152.083V92.0688H155.987V96.0102L156.008 95.9889ZM132.008 95.9889H128.083V92.0688H131.987V96.0102L132.008 95.9889Z" fill="#7C7C7C"/>
<path d="M116.011 92.0432C116.006 93.0565 115.974 94.0699 116.011 95.0832C116.033 95.7765 115.75 96.0272 115.073 96.0112C114.059 95.9845 113.046 96.0219 112.033 96.0325L111.969 95.9685L112.022 92.0432H116.011Z" fill="#B2B2B2"/>
<path d="M112.015 92.0432L111.967 95.9685L108.042 96.0219V92.0432H112.015Z" fill="#7C7C7C"/>
<path d="M159.99 87.9567L159.979 84.0314C161.307 84.0314 162.635 84.0207 163.958 84.0154V87.9567H159.99Z" fill="#B2B2B2"/>
<path d="M8.0053 100.006H12.0426V96.0166C12.96 96.0112 13.8826 95.9579 14.7946 96.0166C15.6746 96.0699 16.096 95.8246 16.016 94.8593C15.936 93.8993 15.9786 92.9392 15.9626 91.9792L16 91.9899H19.9893L20.0106 92.0113C20.048 93.2699 19.6053 95.0619 20.2506 95.6486C20.9973 96.3206 22.704 95.9259 24 95.9952C24 97.0512 23.936 98.1179 24.0426 99.1632C24.0746 99.4672 24.6293 99.9953 24.8693 99.9526C25.904 99.7659 27.1413 100.635 27.9733 99.4193C28.08 99.2699 28 98.9926 28 98.7739V96.0006C29.3333 96.0006 30.656 96.0006 31.984 96.0113V100.054H35.9413V104.017H39.9946C40.0373 105.275 39.6053 107.067 40.256 107.654C41.0026 108.326 42.7093 107.931 44.0053 107.995L43.984 111.958H40.0533V119.958H36.0213V115.985H32.048L31.9946 112.022C32.0373 109.284 30.7146 107.951 28.0266 108.022L27.984 107.979V104.102H24V108.006L24.0106 107.995H20L20.0106 108.006C20.0106 106.945 20.064 105.878 19.9626 104.833C19.9306 104.529 19.376 104.006 19.136 104.049C18.1013 104.235 16.864 103.366 16.032 104.571C15.9253 104.726 16.0053 105.003 16.0053 105.227V108.001H12.0053V103.99H8.04796L8.0053 100.006ZM52.0426 115.985L51.9893 112.006L52.0053 111.995C53.2693 111.958 55.0665 112.401 55.6479 111.75C56.3252 111.003 55.9252 109.291 55.9945 107.995C57.3279 107.995 58.6612 107.995 59.9945 107.995L60.0212 112.033V119.958H56.0159V115.985H52.0426ZM7.99463 120.006L8.04796 116.006H12V112.001H16V120.001H7.99996L7.99463 120.006Z" fill="#DEBDA6"/>
<path d="M52.0404 115.984H56.0137V119.957H52.0404V115.984ZM32.0404 115.984H36.0137V119.957H32.0404V115.984ZM23.9977 119.984H20.0884V116.091H23.9817V120L23.9977 119.984ZM60.019 112.032L59.9924 107.995L63.955 107.989L63.9977 112L60.019 112.032Z" fill="#B18C73"/>
<path d="M51.9946 112.005L48.016 111.957L47.9946 108.005H52.0053V111.995L51.9946 112.005Z" fill="#DEBDA6"/>
<path d="M47.995 108L48.0164 111.957H43.9844L44.0057 107.995L43.995 108.005H48.0004L47.995 108Z" fill="#B18C73"/>
<path d="M28.0214 108.021C30.7094 107.95 32.0302 109.283 31.984 112.021L28.0054 111.957L28.0214 108.021Z" fill="#D3D3D3"/>
<path d="M28.0217 108.022L28.0057 111.958H24.0164L24.0004 108.001L23.9897 108.011L27.9737 107.985L28.0164 108.027L28.0217 108.022Z" fill="#DEBDA6"/>
<path d="M24.0057 107.995L24.0164 111.957H19.9844L19.995 107.995H24.0057Z" fill="#B18C73"/>
<path d="M20 108L19.984 111.957L16.0053 112.011L16 111.989L16.0107 107.989L16 108H20.0107L20 107.989V108Z" fill="#DEBDA6"/>
<path d="M35.9417 100.053H31.9844V91.9888L32.0004 87.9781V83.9568H27.9897V79.9568L27.9684 79.9834H31.9844V75.9568L31.9791 75.9941L35.9951 76.0421L36.0217 80.0101L36.0111 96.0208L36.0377 99.9675L35.9417 100.053ZM15.9684 91.9728C15.9791 92.9328 15.9364 93.9035 16.0164 94.8581C16.0964 95.8181 15.6751 96.0688 14.7951 96.0154C13.8831 95.9568 12.9604 96.0101 12.0431 96.0154L11.9897 91.9888L15.9684 91.9728Z" fill="#B18C73"/>
<path d="M32 87.9792L31.984 91.9899L27.9946 92.0059C27.9946 90.6833 28.0053 89.3659 28.0106 88.0433L32 87.9792Z" fill="#DEBDA6"/>
<path d="M28.0111 88.0432L27.9951 92.0059L28.0057 91.9952H23.9951L24.0057 92.0059C24.0057 90.6832 23.9951 89.3659 23.9897 88.0432H28.0111Z" fill="#9F9F9F"/>
<path d="M23.9897 88.0432L24.0057 92.0059H20.0057L19.9897 91.9899L19.9951 88.0432H23.9897Z" fill="#DEBDA6"/>
<path d="M20 88.0432L19.9893 91.9899H16V88.0432H20Z" fill="#D3D3D3"/>
<path d="M12.0103 92.0101L8.01025 91.9941V88.0795H12.0103V92.0101ZM27.9836 79.9621V83.9621H24.0049V79.9995L27.9836 79.9621Z" fill="#DEBDA6"/>
<path d="M11.9988 112V116.011H8.0415V111.989L11.9988 112Z" fill="#9F9F9F"/>
<path d="M11.9988 112L8.0415 111.989V108.011L12.0042 108.005L11.9935 107.995V112.005L11.9988 112Z" fill="#DEBDA6"/>
<path d="M11.9988 108L8.0415 108.011V103.989H12.0042V108.005L11.9988 108Z" fill="#9F9F9F"/>
<path d="M68.0015 96.0001L64.0335 96.0321L63.9429 95.9414L64.0229 87.9627L67.9642 87.9841L68.0015 96.0001ZM72.0229 80.0001H76.0015V84.0001H67.9749L68.0015 84.0214L67.9695 80.0321L68.0602 79.9414L72.0229 79.9947V80.0001Z" fill="#B18C73"/>
<path d="M67.9627 87.984L64.016 87.9627L64.0054 87.9893V84.0213H68L67.9734 84L67.9627 87.984Z" fill="#FEFEFE"/>
<path d="M164.014 108.032C164.014 107.072 164.057 106.107 163.982 105.152C163.908 104.192 164.318 103.925 165.204 103.984C166.116 104.043 167.038 103.995 167.956 103.989L167.993 107.995L164.014 108.032Z" fill="#B2B2B2"/>
<path d="M63.9577 107.989L59.995 107.995L60.0057 108.005L59.979 103.995L59.995 99.9946L63.9577 100.016V107.989Z" fill="#DEBDA6"/>
<path d="M63.9573 100.016L59.9946 99.9947L60.0053 100.005V95.9414H63.9413L64.032 96.0321L63.9573 100.016Z" fill="#B18C73"/>
<path d="M59.9901 64.0427L63.9901 64.0054L64.0114 75.9894L59.9741 76.0267L56.0114 76.0054L55.9688 72.032L56.0381 71.9627H59.9901V64.0427Z" fill="#D3D3D3"/>
<path d="M59.9736 76.0266L64.011 75.9893L68.011 76.0426L68.059 79.9413L67.9683 80.0319H59.9736V76.0266Z" fill="#B18C73"/>
<path d="M68.0583 79.9414L68.0156 76.0427L71.9943 76.0054L72.021 79.9947L68.0583 79.9414Z" fill="#DEBDA6"/>
<path d="M47.9946 64.0054L48.032 67.984L43.9946 68.0054V64.0427L47.9946 64.0054Z" fill="#D3D3D3"/>
<path d="M43.9893 64.0432L43.9947 68.0059L44.0053 67.9952H40L40.0107 68.0059V64.0432H43.9893Z" fill="#FEFEFE"/>
<path d="M40.0107 64.0427L40.0054 68.0054H36.0427L36.0054 64.0054L40.0107 64.0427Z" fill="#D3D3D3"/>
<path d="M107.984 124.001L107.99 119.99C109.334 119.99 110.672 119.979 112.011 119.974L111.968 120.054L112.006 124.006L107.984 124.001Z" fill="#B2B2B2"/>
<path d="M115.985 116.032V120.016L116.006 119.994L111.969 120.048L112.011 119.973L112.022 115.968L115.985 116.032Z" fill="#262626"/>
<path d="M115.984 116.032L112.021 115.968L112.042 111.989C112.96 111.989 113.882 112.043 114.794 111.989C115.68 111.931 116.09 112.192 116.016 113.147C115.941 114.107 115.989 115.072 115.984 116.032Z" fill="#B2B2B2"/>
<path d="M36.0435 68.0106L40.0061 68.0053L39.9955 67.9946L40.0275 72.0266L39.9741 75.9733L35.9901 76.0426L31.9741 75.9893L32.0115 72.0106H36.0435V68.0106Z" fill="#FEFEFE"/>
<path d="M159.969 112.016L163.958 111.989L164.011 116.011H159.969V112.016Z" fill="#B2B2B2"/>
<path d="M43.9955 68.0054L48.0328 67.9841L51.9901 68.0427L52.0275 72.0267L51.9955 76.0001L48.0221 76.0321L44.0275 75.9787L43.9741 72.0267L44.0061 67.9947L43.9955 68.0054ZM59.99 64.0427V71.9627H56.038L55.9847 67.9627L56.0113 64.0107L59.99 64.0427Z" fill="#FEFEFE"/>
<path d="M55.9841 67.9675L56.0375 71.9675L55.9681 72.0315L52.0271 72.0262L51.9897 68.0422L55.9841 67.9675Z" fill="#D3D3D3"/>
<path d="M31.9794 75.9573V79.9839H27.9634L28.006 76.0053L31.9794 75.9573Z" fill="#DEBDA6"/>
<path d="M100.005 184.005V176.091H103.963V179.947H111.883V183.995H99.9893L100.005 184.005ZM111.995 167.995V171.973H115.899V175.888H108.005V168L107.995 168.011H112V168L111.995 167.995Z" fill="#D3D3D3"/>
<path d="M100 159.983L100.043 156.015L104.021 156.031V160.026L103.984 163.999L103.995 163.983H99.9946L100 159.983Z" fill="#B2B2B2"/>
<path d="M92.0156 164L92.0423 160.01L96.0423 159.968L96.005 159.989C95.9356 161.285 96.325 162.997 95.653 163.744C95.0663 164.394 93.2743 163.952 92.0156 164Z" fill="#D3D3D3"/>
<path d="M120.006 164.016L116.017 163.963L116.027 163.989L115.969 160.011H119.963V163.952L120.006 164.016Z" fill="#7C7C7C"/>
<path d="M108.003 167.994H103.992L104.003 168.005L103.992 163.983L103.981 163.999C105.245 164.037 107.048 163.594 107.64 164.245C108.317 164.991 107.923 166.709 107.992 168.005L108.003 167.994ZM116.013 163.967V164.095C115.939 165.354 116.333 167.103 115.667 167.733C114.973 168.383 113.261 167.951 111.992 167.994L112.003 168.005C112.045 166.741 111.608 165.023 112.264 164.335C112.888 163.669 114.637 164.069 115.891 163.994H116.024L116.013 163.967ZM124.013 163.999L123.949 168.026H120.003V164.015L119.96 163.951L124.013 163.999ZM103.992 167.994V171.903H100.104V168.01L104.003 168.005L103.992 167.994Z" fill="#D3D3D3"/>
<path d="M11.9946 240.006V236.048H15.9946V231.995H19.904V240H12L11.9946 240.006ZM16.0053 228.006V224.096H19.8933V227.99H15.9946L16.0053 228.006Z" fill="#FEFEFE"/>
<path d="M16.0027 232.005C14.7067 231.931 12.9894 232.325 12.248 231.648C11.592 231.051 12.0347 229.259 11.992 227.995C13.3254 227.995 14.6587 227.995 15.992 227.995L15.9974 232L16.0027 232.005Z" fill="#FEFEFE"/>
<path d="M136.021 163.979H127.979V159.958H123.931V155.958H119.973V151.995H115.989V147.985L119.984 148.001H124.048V152.022H128.037V155.894H132.032V152.001H135.995V156.001H139.995V160.006L140 160.001H136.016V163.985L136.021 163.979Z" fill="#7C7C7C"/>
<path d="M115.991 151.995H119.975V155.952H123.932V159.957H127.98V163.979C126.659 163.988 125.338 163.997 124.017 164.005L119.964 163.952V160.011H115.964L115.996 160.027V151.989L115.991 151.995Z" fill="#B2B2B2"/>
<path d="M163.958 159.984L164.022 163.984H155.984L155.974 160.027L156 155.995V152H160V159.989H163.963L163.958 159.984Z" fill="#7C7C7C"/>
<path d="M152 163.99L144.021 163.979L144.005 159.995L144 160.001H148.01V155.99L148 156.001H152.01L151.994 155.985L152.048 160.017L152.005 163.985L152 163.99ZM136.021 163.979V159.995H140.005L139.978 163.979H136.021Z" fill="#B2B2B2"/>
<path d="M139.979 163.979L140 160H144L144.016 163.984H139.974L139.979 163.979Z" fill="#7C7C7C"/>
<path d="M152 163.989L152.037 160.021H155.973L155.984 163.983L152 163.989Z" fill="#262626"/>
<path d="M236 232.006H239.904V239.995H232L232.011 240.006V235.952H236.011V232L236 232.006ZM236.005 228.006V224.096H239.893V227.99H235.995L236.005 228.006Z" fill="#FEFEFE"/>
<path d="M231.992 228L236.003 228.005L235.992 227.995V232.005L236.003 231.995C234.739 231.957 232.942 232.4 232.35 231.749C231.678 231.003 232.072 229.291 232.003 227.995L231.992 228ZM68.0031 203.995H60.0991V196.005H64.0031L63.9924 195.995V200.048H67.9924V204.005L68.0031 203.995ZM76.0031 211.995H72.0458V208.005H67.9924C67.9924 206.672 67.9924 205.339 67.9924 204.005H76.0031L75.9924 203.995V212.005L76.0031 211.995ZM64.0031 191.995H60.0938V188.107H63.9871V192.005L64.0031 191.995Z" fill="#FEFEFE"/>
<path d="M64.0053 196.005V191.995L64 192H68.0107L68 191.989C67.9627 193.253 68.4053 195.051 67.7547 195.643C67.008 196.315 65.296 195.92 64 195.989L64.0107 196L64.0053 196.005Z" fill="#FEFEFE"/>
<path d="M160.12 184.08H163.907V187.898H160.12V184.08Z" fill="#D3D3D3"/>
<path d="M11.9946 200.006V196.048H15.9946V191.995H19.904V200H12L11.9946 200.006ZM16.0053 188.006V184.096H19.8933V187.99H15.9946L16.0053 188.006Z" fill="#FEFEFE"/>
<path d="M16.0027 192.005C14.7067 191.931 12.9894 192.325 12.248 191.648C11.592 191.051 12.0347 189.259 11.992 187.995C13.3254 187.995 14.6587 187.995 15.992 187.995L15.9974 192L16.0027 192.005Z" fill="#FEFEFE"/>
<path d="M20.0031 211.995H16.0938V208.107H19.9871V212.005L20.0031 211.995Z" fill="#D3D3D3"/>
<path d="M79.9466 215.947L75.9946 216.005L76.0053 211.995L75.9946 212.005L80.0053 211.995L79.9466 215.941V215.947Z" fill="#FEFEFE"/>
<path d="M232.005 227.995C232.075 229.291 231.68 231.008 232.352 231.749C232.944 232.4 234.741 231.957 236.005 231.995V235.952H232.005V240.005H224V236.027H227.904V232.064H224V223.995H227.957V227.995H232.005Z" fill="#D3D3D3"/>
<path d="M224.005 248.005L219.995 247.995L220.005 248.005V240L224.011 239.989V248L224.005 248.005ZM63.9946 195.995C65.2906 195.925 67.008 196.32 67.7493 195.648C68.4 195.056 67.9573 193.259 67.9946 191.995H71.952V187.995H76.0053V195.968H72.1013V199.931H76.0053V204.005H68V200.048H64V195.995H63.9946Z" fill="#D3D3D3"/>
<path d="M80.0053 211.995L75.9946 212.005V204C77.328 204 78.6613 204 79.9946 204V212.011L80 212L80.0053 211.995Z" fill="#D3D3D3"/>
<path d="M79.9946 212.005V204L83.9413 204.059V211.952L79.9946 212.005ZM220.005 239.995V248L216.059 247.941V240.048L220.005 239.995Z" fill="#FEFEFE"/>
<path d="M104.02 156.032C102.687 156.032 101.364 156.021 100.042 156.016L100.015 140L99.9988 140.016L104.015 140.043V143.883H107.983V140.043H112.015C112.015 141.36 112.004 142.677 111.999 143.989L111.988 147.984L112.01 148.016L108.026 148.027C107.631 148.016 107.231 148 106.836 148C103.796 147.995 103.812 147.989 103.983 151.083C104.02 151.76 104.228 152.027 104.916 152.011C105.924 151.979 106.938 152.021 107.946 152.032L108.02 151.989C108.02 153.317 108.01 154.64 107.999 155.968L108.058 156.011L108.031 156.075C106.694 156.06 105.357 156.046 104.02 156.032ZM92.0415 156.016V148.016H95.9615V156.016H92.0415Z" fill="#7C7C7C"/>
<path d="M92.0415 156.015H95.9562L96.0362 159.962L92.0415 160.01V156.015Z" fill="#B2B2B2"/>
<path d="M95.9639 148.017H92.0385L91.9905 143.99H95.9639V148.017ZM95.9905 135.99L100.017 136.001L100.001 135.985V140.017L100.017 140.001H95.9905V135.99ZM87.9639 160.017L83.9639 159.953L83.9905 155.99H87.9639V160.017Z" fill="#545454"/>
<path d="M107.984 124L112.005 124.005L112 124V132.027H108.021V135.963L100.005 135.989L100.021 136.005L100.043 132.021C100.965 132.021 101.888 131.968 102.8 132.021C103.68 132.075 104.096 131.819 104.021 130.859C103.941 129.899 103.989 128.939 103.979 127.973L103.995 123.995L107.989 124.005L107.984 124Z" fill="#7C7C7C"/>
<path d="M103.973 127.968C103.984 128.928 103.936 129.898 104.016 130.853C104.091 131.813 103.675 132.069 102.795 132.016C101.883 131.962 100.96 132.016 100.037 132.016L99.9893 127.989L103.973 127.968Z" fill="#545454"/>
<path d="M211.995 140.005V136H220.005V140.011H212L211.995 140.005Z" fill="#D3D3D3"/>
<path d="M163.957 127.985V131.99H168.011L167.957 140.017H164.011V152.038L164.037 152.011L159.995 151.995L160.005 152.006V144.006H155.995V135.953H159.995V128.001L163.957 127.985Z" fill="#7C7C7C"/>
<path d="M164.011 152.038V140.017H167.957L168.011 152.011L164.011 152.038ZM163.957 127.985L160 128.001L160.005 123.985L159.995 124.011L164.011 123.99L163.957 127.985Z" fill="#B2B2B2"/>
<path d="M159.995 151.995L164.038 152.011L163.958 159.984H160L159.995 151.995ZM136 152H132.032V155.893H128.038V152.021H124.048V148H119.984L120 140H124.054V144H128V148H132C133.291 148.075 135.008 147.68 135.755 148.363C136.406 148.949 135.963 150.747 136 152.011V152ZM160 128V135.952H155.995V144.005L156 144H152V148.011L152.011 148L148.038 148.037L147.974 147.973L148.011 140L148 140.011C149.264 139.963 151.067 140.405 151.654 139.749C152.331 139.003 151.931 137.285 152 135.984L152.011 131.989L151.99 132.011H156.006V127.989L155.99 128.011H160.011L160 128Z" fill="#B2B2B2"/>
<path d="M128.014 119.984H124.051V116.048H120.078V112.074H127.982V120.021L128.014 119.984Z" fill="black"/>
<path d="M131.979 136.001C133.003 136.001 134.021 135.974 135.04 136.017C135.344 136.033 135.893 136.23 135.904 136.363C135.973 137.462 135.973 138.571 135.888 139.67C135.877 139.803 135.232 139.974 134.875 139.99C132.011 140.097 132.011 140.081 131.995 142.966C131.995 143.318 131.984 143.675 131.973 144.033L128 143.99V144.001V135.974L131.973 135.99L131.979 136.001ZM143.968 155.969C143.979 153.665 144.021 151.366 143.984 149.062C143.973 148.262 144.229 147.942 145.051 147.985C146.021 148.038 146.997 147.979 147.968 147.969L148.032 148.033L147.995 156.006L148.005 155.995L144.032 156.033L143.968 155.969ZM140 156.001H136V152.001C137.291 152.075 139.003 151.681 139.749 152.358C140.4 152.945 139.957 154.742 139.995 156.006L140 156.001Z" fill="#B2B2B2"/>
<path d="M127.995 143.995L131.973 144.027L131.989 148H127.989V143.995H127.995Z" fill="#7C7C7C"/>
<path d="M144.005 159.994L140 160V156L143.973 155.962L144.037 156.026L144 160L144.005 159.994ZM148 140C146.987 140 145.973 140.026 144.96 139.984C144.651 139.968 144.107 139.77 144.096 139.637C144.026 138.538 144.028 137.435 144.101 136.336C144.112 136.208 144.672 136.032 144.981 136.016C145.995 135.962 147.013 135.984 148.032 135.978L148.011 135.968C148.011 137.317 148 138.661 147.995 140.005L148.005 139.994L148 140Z" fill="#B2B2B2"/>
<path d="M152 131.985V135.985L148.011 135.969L148.032 135.979V131.985H152ZM131.979 136.001L128.006 135.979L128.016 136.001C128.016 134.667 128.016 133.329 128.006 131.995L127.984 132.017H131.984V135.995L131.979 136.001Z" fill="#545454"/>
<path d="M156 127.985V132.006H151.984V127.985H156ZM123.984 128.011H127.984V132.011L128.006 131.995L124.006 131.985L124.016 132.001L124 127.985L123.984 128.011Z" fill="#545454"/>
<path d="M160 128.001L155.984 128.006V123.985H160.006L160 128.001ZM119.984 124.017H123.984V128.011L124 127.985L120 127.99L120.006 123.99L119.984 124.017Z" fill="#262626"/>
<path d="M115.984 120.016H119.984V124.016L120.006 123.995H116.006V119.995L115.984 120.016Z" fill="#262626"/>
<path d="M59.9947 99.9942L59.9787 103.994L55.9893 104.016L51.9893 104.032H48.016L44.0107 104.016H35.936V100.053L36.032 99.9675C44.0234 99.9798 52.014 99.9926 60.0053 100.005L59.9947 99.9942ZM12 112V108H16V112H12Z" fill="#B18C73"/>
<path d="M39.9871 104.015H44.0085L43.9925 108.01L44.0031 107.994C42.7125 107.93 41.0005 108.325 40.2538 107.653C39.6031 107.066 40.0351 105.274 39.9871 104.015Z" fill="#9F9F9F"/>
<path d="M27.9786 107.979L23.9946 108.005V104.101H27.9786V107.979Z" fill="#B18C73"/>
<path d="M20.0006 108.001H16.0006V105.227C16.0006 105.003 15.926 104.726 16.0273 104.571C16.8593 103.366 18.0966 104.235 19.1313 104.049C19.366 104.006 19.9313 104.529 19.958 104.833C20.0646 105.878 20.0006 106.945 20.006 108.006L20.0006 108.001Z" fill="#9F9F9F"/>
<path d="M27.998 96V98.7733C27.998 98.992 28.0727 99.2693 27.9714 99.424C27.1394 100.635 25.902 99.7653 24.8674 99.952C24.6327 99.9946 24.0674 99.472 24.0407 99.1626C23.934 98.1173 23.998 97.0506 23.998 95.9946L27.998 96Z" fill="#D3D3D3"/>
<path d="M27.999 91.9999C29.3216 91.9999 30.655 91.9999 31.983 91.9893V96.0106C30.6567 96.0074 29.3305 96.0037 28.0042 95.9999V91.9946L27.9936 92.0053L27.999 91.9999ZM20.0096 92.0106C21.3376 92.0053 22.6656 91.9999 23.9936 91.9946V95.9999C22.703 95.9253 20.9963 96.3199 20.2496 95.6479C19.6043 95.0613 20.047 93.2693 20.0096 92.0106Z" fill="#9F9F9F"/>
<path d="M52 112C52 110.669 52 109.337 52 108.005H56L55.9947 107.995C55.9253 109.291 56.3253 111.003 55.648 111.749C55.0613 112.4 53.2693 111.957 52.0053 111.995L52 112Z" fill="#B18C73"/>
<path d="M55.9893 104.016L59.9786 103.995L60.0053 108.005C58.6719 108.005 57.3386 108.005 56.0053 108.005L55.9893 104.016Z" fill="#9F9F9F"/>
<path d="M48.016 104.032H51.984L52.0053 108.006H47.9946L48.016 104.032Z" fill="#D3D3D3"/>
<path d="M48.016 104.032L47.9947 108.005H43.9947L44.0107 104.016L48.0107 104.032H48.016ZM60.0055 100.005L51.9787 99.9947V95.9521H47.9467V92.0801H39.952V96.0214H36.0054L36.016 80.0107H40.016L40.0107 83.9841V87.9894H47.984L52.016 88.0107V91.9201H55.9841V88.0001L60.0161 87.9841H64.0055L64.0215 87.9574L63.9415 95.9361H60.0055V100.005Z" fill="#DEBDA6"/>
<path d="M36 96.0209H39.952V92.0742H47.952V95.9515H51.9787V99.9942L36.032 99.9675L36 96.0209Z" fill="black"/>
<path d="M40.0111 80.0112H36.0111C36.0111 78.6885 36.0004 77.3659 35.9897 76.0432L39.9737 75.9739L40.0271 76.0272V80.0432L40.0111 80.0112Z" fill="#9F9F9F"/>
<path d="M24 96L23.9946 91.9946H28.0053V96H24Z" fill="#DEBDA6"/>
<path d="M64.0065 87.9894H60.0172V83.984H56.0118L55.9585 80.016L56.0438 76.0374L56.0118 76.0054L59.9745 76.0267V80.0267H67.9745L68.0012 84.0267H64.0065V87.9894Z" fill="black"/>
<path d="M52.0278 72.0261L55.9691 72.0315L56.0117 76.0048L56.0437 76.0368L51.9531 76.0528L51.9958 75.9995L52.0278 72.0261Z" fill="#9F9F9F"/>
<path d="M44.0053 67.9946L43.9733 72.0266H40.0266L39.9946 67.9946H44.0053Z" fill="#D3D3D3"/>
<path d="M116.006 119.995V123.995H111.995L112.006 124.005L111.969 120.053L116.006 119.995Z" fill="#7C7C7C"/>
<path d="M40.0275 72.0261H43.9741L44.0275 75.9781L40.0328 76.0315L39.9741 75.9781L40.0275 72.0261Z" fill="#9F9F9F"/>
<path d="M47.9836 87.9893H44.0156V83.984H40.0103V80.0107L40.0263 80.0427H48.0263V76.032L51.9943 76L51.9516 76.0533L52.0423 80.016L51.9889 83.984H47.9836V87.9893Z" fill="black"/>
<path d="M48.0205 76.0326V80.0432H40.0259V76.0326L44.0259 75.9792L48.0259 76.0326H48.0205Z" fill="#B18C73"/>
<path d="M116.027 163.989L115.894 163.994C114.64 164.064 112.891 163.674 112.267 164.336C111.611 165.029 112.048 166.736 112.006 168.005H107.995C107.926 166.709 108.315 164.986 107.643 164.245C107.051 163.594 105.248 164.037 103.984 164L104.022 160.026H108.032V156.08L108.059 156.01L108.006 155.968L112 156V160.026H115.995L115.968 160.01L116.027 163.989Z" fill="#FEFEFE"/>
<path d="M108.032 156.075V160.022H104.021V156.032L108.032 156.075Z" fill="#D3D3D3"/>
<path d="M120 140L119.984 148L115.984 147.984L116.005 148.005L115.968 143.973L116.011 139.989L115.989 140.011C117.323 140.011 118.656 140.011 120 140ZM115.984 147.984L115.989 151.995L112 152L112.011 148.016L111.989 147.984L116.005 148.005L115.984 147.984Z" fill="black"/>
<path d="M112 152L115.995 151.989V160.027H112V152Z" fill="#7C7C7C"/>
<path d="M155.995 144.005H160V152.005H155.995V155.995H151.984L152 156.005V147.995L151.99 148.005H156V144L155.995 144.005Z" fill="#B2B2B2"/>
<path d="M151.989 155.989H156L155.973 160.027L152.037 160.021L151.989 155.989Z" fill="#545454"/>
<path d="M152.005 147.995V156.005H147.995L148.032 148.032L152.005 147.995Z" fill="#7C7C7C"/>
<path d="M143.995 160.005L144.032 156.032L148.005 155.995V160H144L143.995 160.005Z" fill="#7C7C7C"/>
<path d="M100 135.983L108.016 135.957H115.989V140.01L116.011 139.989L112.016 140.042H104.016L100 140.015V135.983ZM112 151.999V155.999L108 155.967L108.021 151.989L112 151.999Z" fill="black"/>
<path d="M112.001 151.999L108.022 151.989L107.948 152.031L108.028 148.031L112.012 148.015L112.001 151.999Z" fill="#262626"/>
<path d="M108.026 148.027L107.946 152.033C106.932 152.022 105.919 151.979 104.916 152.011C104.228 152.027 104.02 151.761 103.983 151.083C103.812 147.99 103.791 147.99 106.836 148.001C107.231 148.001 107.631 148.017 108.026 148.027ZM116.004 148.006L111.988 147.985L111.999 143.995L115.967 143.974L116.004 148.006Z" fill="#545454"/>
<path d="M115.968 143.973L112 143.995L112.016 140.043L116.016 139.989L115.968 143.973ZM104.016 140.043H107.984V143.883H104.016V140.043Z" fill="#B2B2B2"/>
<path d="M115.989 140.011V135.957H108.016V132.021H112V123.995H116.01V132.005H120.01L120 131.995L120.005 139.995L115.989 140.011Z" fill="#B2B2B2"/>
<path d="M120 140.001L119.995 131.995H124.016L124 131.985V136.001H128.016L128.005 135.979V144.006H124.048V140.001H120ZM156.005 143.995V148.006H152V144.001H156.011L156.005 143.995Z" fill="#7C7C7C"/>
<path d="M148.011 135.968L151.995 135.978C151.925 137.28 152.325 138.992 151.648 139.744C151.061 140.4 149.259 139.957 147.995 140.005L148.011 135.968Z" fill="#D3D3D3"/>
<path d="M128.016 136.001H124V131.985C125.333 131.985 126.672 131.985 128.005 131.995L128.016 136.001Z" fill="#B2B2B2"/>
<path d="M124.016 132L119.995 131.995L120.005 132.005V127.989H124.005L124.016 132Z" fill="#B2B2B2"/>
<path d="M120 127.989L120.005 132.005H116.005V124H120.005V128L120 127.989Z" fill="#7C7C7C"/>
<path d="M52.0004 108.005L51.9844 104.031L55.9899 104.015L56.0059 108.005H52.0057H52.0004Z" fill="#DEBDA6"/>
<path d="M55.984 88.0054V91.92H52.016V88.0107H52H55.9893H55.9787L55.984 88.0054Z" fill="black"/>
<path d="M56.0105 83.9846H60.0159V87.99L55.9839 88.006L55.9945 88.0166L56.0105 83.9846ZM47.9836 87.99V83.9846H51.9889L52.0049 88.0166L52.0156 88.0113L47.9836 87.99ZM40.0103 83.9846H44.0156V87.99H40.0103V83.9846Z" fill="#FEFEFE"/>
<path d="M52.0057 88.0154L51.9897 83.9834L52.0431 80.0154H55.9575L56.0108 83.9834L55.9948 88.0154H52.0004H52.0057Z" fill="#DEBDA6"/>
<path d="M55.9584 80.0165H52.0438L51.9531 76.0538L56.0437 76.0378L55.9584 80.0165Z" fill="#B18C73"/>
</g>
</g>
<defs>
<clipPath id="clip0_2570_3564">
<rect width="256" height="256" fill="white"/>
</clipPath>
</defs>
</svg>
