<svg width="256" height="256" viewBox="0 0 256 256" fill="none" xmlns="http://www.w3.org/2000/svg">
<circle cx="128" cy="128" r="104" fill="white"/>
<mask id="mask0_741_46" style="mask-type:alpha" maskUnits="userSpaceOnUse" x="2" y="3" width="250" height="250">
<circle cx="127" cy="128" r="125" fill="white"/>
</mask>
<g mask="url(#mask0_741_46)">
<path d="M207.62 3H46.3859C20.6554 3 0 23.325 0 48.65V207.35C0 232.675 20.6554 253 46.3859 253H207.614C232.983 253 254 232.675 254 207.35V48.65C254 23.325 233.351 3 207.62 3ZM168.492 65.4125C187.333 65.4125 202.552 80.3875 202.552 98.9375C202.552 104.638 201.099 109.987 198.561 114.981C194.216 111.775 189.509 108.919 184.434 107.137C185.88 104.637 186.61 101.788 186.61 98.9375C186.61 89.3063 178.635 81.4625 168.853 81.4625C159.065 81.4625 151.097 89.3063 151.097 98.9375C151.097 101.788 151.82 104.637 153.273 107.137C148.198 108.919 143.123 111.419 139.139 114.981C136.24 109.987 135.149 104.637 135.149 98.9312C134.432 80.3875 149.651 65.4125 168.492 65.4125ZM85.5083 190.587C66.6734 190.587 51.4546 175.612 51.4546 157.069H67.7583C67.7583 166.694 75.7324 174.544 85.5146 174.544C95.2968 174.544 103.271 166.694 103.271 157.069H119.575C119.575 175.612 104.349 190.587 85.5083 190.587ZM85.5083 143.512C63.7743 143.512 46.018 126.037 46.018 104.637C46.018 83.2437 63.7743 65.4125 85.5146 65.4125C107.255 65.4125 125.373 82.8875 125.373 104.637C125.011 126.037 107.249 143.512 85.5083 143.512ZM168.492 190.587C146.751 190.587 128.633 173.113 128.633 151.713C128.633 129.963 146.39 112.487 168.492 112.487C190.232 112.487 207.988 129.962 207.988 151.719C207.988 173.112 190.232 190.587 168.492 190.587ZM192.04 151.363C192.04 164.2 181.535 174.181 168.492 174.181C155.449 174.181 144.937 163.844 144.937 151.363C144.937 138.519 155.449 128.175 168.492 128.175C181.535 128.537 192.04 138.875 192.04 151.363ZM108.701 104.637C108.701 117.481 98.1959 127.825 85.153 127.825C72.1038 127.825 61.5984 117.481 61.5984 104.637C61.5984 91.8 72.1038 81.4562 85.153 81.4562C98.5575 81.4562 108.701 91.8 108.701 104.644V104.637Z" fill="#D9B432"/>
</g>
</svg>
