<svg width="256" height="256" viewBox="0 0 256 256" fill="none" xmlns="http://www.w3.org/2000/svg">
<g clip-path="url(#clip0_2874_2)">
<path d="M1.26148 110.188C11.0988 40.1923 75.8164 -8.57578 145.812 1.26146C215.808 11.0987 264.577 75.8162 254.738 145.812C244.902 215.807 180.184 264.576 110.188 254.739C40.1924 244.901 -8.57585 180.184 1.26148 110.188Z" fill="white"/>
<path d="M175.973 144.912C175.973 171.455 154.454 192.973 127.912 192.973C101.37 192.973 79.8516 171.455 79.8516 144.912H175.973Z" fill="black"/>
<path d="M80.3169 144.912C80.3169 118.626 101.626 97.3169 127.912 97.3169C154.198 97.3169 175.507 118.626 175.507 144.912H208.824C208.824 100.226 172.599 64 127.912 64C83.2254 64 47 100.226 47 144.912H80.3169Z" fill="black"/>
</g>
<defs>
<clipPath id="clip0_2874_2">
<rect width="256" height="256" fill="white"/>
</clipPath>
</defs>
</svg>
