<svg width="255" height="255" viewBox="0 0 255 255" fill="none" xmlns="http://www.w3.org/2000/svg">
<g clip-path="url(#clip0_2092_10505)">
<mask id="mask0_2092_10505" style="mask-type:luminance" maskUnits="userSpaceOnUse" x="0" y="0" width="255" height="255">
<path d="M255 0H0V255H255V0Z" fill="white"/>
</mask>
<g mask="url(#mask0_2092_10505)">
<path d="M127.5 255C197.916 255 255 197.916 255 127.5C255 57.0837 197.916 0 127.5 0C57.0837 0 0 57.0837 0 127.5C0 197.916 57.0837 255 127.5 255Z" fill="white"/>
<path fill-rule="evenodd" clip-rule="evenodd" d="M127.123 212.168C102.309 212.149 82.3216 206.195 68.3558 195.5C54.2224 184.676 46.7246 169.317 46.7246 151.938C46.7246 135.192 54.206 123.116 62.6709 114.954C69.3049 108.558 76.6255 104.461 81.7229 102.105C80.5703 98.567 79.132 93.9356 77.8453 89.1522C76.1237 82.7512 74.4346 75.2412 74.4346 69.7379C74.4346 63.224 75.8549 56.6822 79.6842 51.599C83.7299 46.2285 89.8204 43.3516 97.1477 43.3516C102.874 43.3516 107.736 45.4755 111.542 49.1401C115.18 52.6426 117.601 57.2945 119.273 62.1435C122.211 70.6639 123.355 81.3689 123.676 92.0518H130.694C131.015 81.3689 132.159 70.6639 135.097 62.1435C136.769 57.2945 139.19 52.6426 142.829 49.1401C146.635 45.4755 151.497 43.3516 157.223 43.3516C164.55 43.3516 170.641 46.2285 174.687 51.599C178.516 56.6822 179.936 63.224 179.936 69.7379C179.936 75.2412 178.247 82.7512 176.525 89.1522C175.239 93.9356 173.801 98.567 172.648 102.105C177.745 104.461 185.066 108.558 191.7 114.954C200.165 123.116 207.646 135.192 207.646 151.938C207.646 169.317 200.148 184.676 186.015 195.5C172.049 206.195 152.061 212.149 127.247 212.168H127.123Z" fill="black"/>
<path d="M97.1475 49.5464C86.4155 49.5464 81.4754 57.6344 81.4754 68.8201C81.4754 77.7109 87.2155 95.517 89.5706 102.449C90.1002 104.008 89.2677 105.716 87.75 106.321C79.1488 109.747 53.7656 122.291 53.7656 151.02C53.7656 181.283 79.5605 204.101 127.129 204.137C127.148 204.137 127.167 204.137 127.186 204.137C127.205 204.137 127.224 204.137 127.243 204.137C174.811 204.101 200.606 181.283 200.606 151.02C200.606 122.291 175.223 109.747 166.621 106.321C165.103 105.716 164.271 104.008 164.801 102.449C167.156 95.517 172.896 77.7109 172.896 68.8201C172.896 57.6344 167.956 49.5464 157.224 49.5464C141.776 49.5464 137.925 71.6525 137.65 95.3779C137.632 96.9618 136.364 98.2469 134.796 98.2469H119.576C118.007 98.2469 116.74 96.9618 116.722 95.3779C116.447 71.6525 112.596 49.5464 97.1475 49.5464Z" fill="#797979"/>
<path d="M127.243 194.443C92.2916 194.443 53.8259 175.543 53.7656 151.077C53.7656 151.116 53.7656 151.154 53.7656 151.192C53.7656 181.479 79.6017 204.309 127.243 204.309C174.883 204.309 200.719 181.479 200.719 151.192C200.719 151.154 200.719 151.116 200.719 151.077C200.659 175.543 162.193 194.443 127.243 194.443Z" fill="#BABABA"/>
<path d="M107.822 143.563C107.822 151.823 103.958 156.125 99.1915 156.125C94.4246 156.125 90.5605 151.823 90.5605 143.563C90.5605 135.303 94.4246 131.001 99.1915 131.001C103.958 131.001 107.822 135.303 107.822 143.563Z" fill="black"/>
<path d="M163.922 143.563C163.922 151.823 160.058 156.125 155.291 156.125C150.524 156.125 146.66 151.823 146.66 143.563C146.66 135.303 150.524 131.001 155.291 131.001C160.058 131.001 163.922 135.303 163.922 143.563Z" fill="black"/>
</g>
</g>
<defs>
<clipPath id="clip0_2092_10505">
<rect width="255" height="255" fill="white"/>
</clipPath>
</defs>
</svg>
