<svg width="256" height="256" viewBox="0 0 256 256" fill="none" xmlns="http://www.w3.org/2000/svg">
<g clip-path="url(#clip0_2300_10)">
<path fill-rule="evenodd" clip-rule="evenodd" d="M128 0C198.697 0 256 57.3026 256 128C256 198.697 198.697 256 128 256C57.3026 256 0 198.697 0 128C0 57.3026 57.3026 0 128 0Z" fill="#0C0C0C"/>
<path fill-rule="evenodd" clip-rule="evenodd" d="M53 78.8883C53 77.6283 53 76.9983 53.2446 76.517C53.4597 76.0937 53.8029 75.7495 54.2251 75.5338C54.7051 75.2886 55.3334 75.2886 56.59 75.2886H79.9574C81.214 75.2886 81.8424 75.2886 82.3223 75.0434C82.7445 74.8276 83.0878 74.4834 83.3029 74.0601C83.5474 73.5789 83.5474 72.9489 83.5474 71.6888V50.5997C83.5474 49.3397 83.5474 48.7097 83.792 48.2284C84.0071 47.8051 84.3504 47.4609 84.7726 47.2452C85.2525 47 85.8808 47 87.1374 47H199.41C200.667 47 201.295 47 201.775 47.2452C202.197 47.4609 202.54 47.8051 202.755 48.2284C203 48.7097 203 49.3397 203 50.5997V205.4C203 206.661 203 207.29 202.755 207.772C202.54 208.195 202.197 208.539 201.775 208.755C201.295 209 200.667 209 199.41 209H87.1679C85.9112 209 85.283 209 84.803 208.755C84.3808 208.539 84.0375 208.195 83.8224 207.772C83.5778 207.29 83.5778 206.661 83.5778 205.4V184.297C83.5778 183.037 83.5778 182.407 83.3333 181.925C83.1182 181.502 82.7749 181.158 82.3527 180.942C81.8728 180.697 81.2445 180.697 79.9878 180.697H56.59C55.3334 180.697 54.7051 180.697 54.2251 180.452C53.8029 180.236 53.4597 179.892 53.2446 179.469C53 178.987 53 178.358 53 177.097V78.8883ZM107.235 76.6363C107.235 75.3763 107.235 74.7463 107.479 74.265C107.694 73.8417 108.037 73.4975 108.46 73.2818C108.94 73.0366 109.568 73.0366 110.825 73.0366H174.115C175.371 73.0366 176 73.0366 176.48 73.2818C176.902 73.4975 177.245 73.8417 177.461 74.265C177.705 74.7463 177.705 75.3763 177.705 76.6363V98.0251C177.705 99.2851 177.705 99.9151 177.461 100.396C177.245 100.82 176.902 101.164 176.48 101.38C176 101.625 175.371 101.625 174.115 101.625H110.825C109.568 101.625 108.94 101.625 108.46 101.87C108.037 102.086 107.694 102.43 107.479 102.853C107.235 103.335 107.235 103.965 107.235 105.225V150.437C107.235 151.697 107.235 152.327 107.479 152.808C107.694 153.232 108.037 153.575 108.46 153.791C108.94 154.036 109.568 154.036 110.825 154.036H174.115C175.371 154.036 176 154.036 176.48 154.282C176.902 154.497 177.245 154.842 177.461 155.265C177.705 155.746 177.705 156.377 177.705 157.636V179.025C177.705 180.285 177.705 180.915 177.461 181.397C177.245 181.819 176.902 182.164 176.48 182.38C176 182.625 175.371 182.625 174.115 182.625H110.825C109.568 182.625 108.94 182.625 108.46 182.38C108.037 182.164 107.694 181.819 107.479 181.397C107.235 180.915 107.235 180.285 107.235 179.025V157.64C107.235 156.379 107.235 155.75 106.99 155.268C106.775 154.845 106.432 154.501 106.009 154.285C105.529 154.04 104.901 154.04 103.644 154.04H82.6363C81.3797 154.04 80.7514 154.04 80.2714 153.795C79.8492 153.579 79.5059 153.235 79.2908 152.812C79.0463 152.33 79.0463 151.701 79.0463 150.441V103.957C79.0463 102.697 79.0463 102.067 79.2908 101.585C79.5059 101.162 79.8492 100.818 80.2714 100.602C80.7514 100.357 81.3797 100.357 82.6363 100.357H103.644C104.901 100.357 105.529 100.357 106.009 100.112C106.432 99.8961 106.775 99.5519 106.99 99.1286C107.235 98.6474 107.235 98.0173 107.235 96.7573V76.6363Z" fill="#06F897"/>
</g>
<defs>
<clipPath id="clip0_2300_10">
<rect width="256" height="256" fill="white"/>
</clipPath>
</defs>
</svg>
