<svg width="256" height="256" viewBox="0 0 256 256" fill="none" xmlns="http://www.w3.org/2000/svg">
<g clip-path="url(#clip0_776_84)">
<mask id="mask0_776_84" style="mask-type:luminance" maskUnits="userSpaceOnUse" x="0" y="0" width="256" height="256">
<path d="M256 0H0V256H256V0Z" fill="white"/>
</mask>
<g mask="url(#mask0_776_84)">
<path d="M256 128C256 57.3076 198.692 0 128 0C57.3076 0 0 57.3076 0 128C0 198.692 57.3076 256 128 256C198.692 256 256 198.692 256 128Z" fill="url(#paint0_linear_776_84)"/>
<path d="M124.292 245.491C124.833 249.975 131.393 249.975 131.866 245.491L133.348 231.439C131.569 231.529 129.778 231.575 127.975 231.575C126.172 231.575 124.38 231.529 122.599 231.439L124.292 245.491Z" fill="white"/>
<path d="M121.042 24.564C122.821 24.4742 124.613 24.4287 126.416 24.4287C128.218 24.4287 130.01 24.4741 131.791 24.5639L130.097 10.5143C129.557 6.03039 122.997 6.03039 122.524 10.5143L121.042 24.564Z" fill="white"/>
<path d="M153.519 27.9452C157.007 28.8727 160.425 29.9747 163.762 31.2413L166.513 17.417C167.393 12.997 161.139 10.9833 159.293 15.0922L153.519 27.9452Z" fill="white"/>
<path d="M183.401 41.1655C186.424 43.1131 189.34 45.2108 192.139 47.4481L199.074 35.1554C201.288 31.2321 195.952 27.4018 192.914 30.7334L183.401 41.1655Z" fill="white"/>
<path d="M207.788 62.872C210.061 65.6358 212.194 68.517 214.178 71.5048L224.607 61.9769C227.938 58.9341 224.043 53.6622 220.11 55.8907L207.788 62.872Z" fill="white"/>
<path d="M224.314 90.9419C225.614 94.2475 226.749 97.6345 227.709 101.093L240.604 95.2606C244.726 93.3962 242.652 87.1988 238.21 88.1057L224.314 90.9419Z" fill="white"/>
<path d="M231.284 122.659C231.388 124.427 231.447 126.207 231.46 127.997C231.474 129.788 231.442 131.569 231.364 133.337L245.496 131.76C250.006 131.256 249.957 124.74 245.44 124.236L231.284 122.659Z" fill="white"/>
<path d="M228.113 154.901C227.205 158.36 226.121 161.747 224.871 165.053L238.809 167.889C243.266 168.796 245.246 162.598 241.096 160.734L228.113 154.901Z" fill="white"/>
<path d="M215.033 184.484C213.094 187.472 211.005 190.354 208.773 193.118L221.201 200.099C225.168 202.328 228.984 197.056 225.607 194.013L215.033 184.484Z" fill="white"/>
<path d="M193.355 208.538C190.59 210.775 187.705 212.873 184.712 214.821L194.383 225.254C197.471 228.586 202.749 224.756 200.476 220.832L193.355 208.538Z" fill="white"/>
<path d="M165.217 224.75C161.899 226.016 158.498 227.118 155.023 228.046L160.991 240.901C162.899 245.009 169.123 242.996 168.177 238.576L165.217 224.75Z" fill="white"/>
<path d="M102.484 27.9599C98.9955 28.8873 95.5774 29.9893 92.2403 31.2559L89.4896 17.4316C88.6097 13.0117 94.8637 10.998 96.7095 15.1068L102.484 27.9599Z" fill="white"/>
<path d="M72.5942 41.1733C69.5716 43.1209 66.6556 45.2189 63.8566 47.4561L56.9213 35.1632C54.7077 31.2399 60.0434 27.4096 63.0815 30.7412L72.5942 41.1733Z" fill="white"/>
<path d="M48.2076 62.8865C45.9347 65.6503 43.8013 68.5316 41.8182 71.5194L31.3884 61.9915C28.0574 58.9487 31.9529 53.6771 35.8855 55.9052L48.2076 62.8865Z" fill="white"/>
<path d="M31.6811 90.9643C30.3813 94.2699 29.2465 97.6569 28.2869 101.115L15.3919 95.2833C11.2698 93.419 13.3434 87.2215 17.786 88.1281L31.6811 90.9643Z" fill="white"/>
<path d="M24.7132 122.667C24.6095 124.435 24.5505 126.215 24.537 128.005C24.5235 129.796 24.5559 131.577 24.633 133.345L10.5012 131.768C5.99123 131.264 6.04023 124.748 10.5577 124.244L24.7132 122.667Z" fill="white"/>
<path d="M27.8882 154.909C28.7958 158.368 29.8797 161.755 31.1299 165.061L17.1914 167.897C12.7352 168.804 10.7547 162.606 14.9049 160.742L27.8882 154.909Z" fill="white"/>
<path d="M40.9769 184.5C42.9152 187.488 45.0051 190.369 47.2367 193.133L34.8083 200.115C30.8421 202.343 27.0261 197.071 30.4027 194.029L40.9769 184.5Z" fill="white"/>
<path d="M62.6433 208.561C65.4086 210.798 68.2933 212.896 71.2864 214.843L61.6156 225.277C58.5274 228.608 53.2496 224.778 55.5219 220.855L62.6433 208.561Z" fill="white"/>
<path d="M90.7877 224.766C94.1058 226.032 97.5071 227.134 100.982 228.062L95.0132 240.916C93.1057 245.025 86.8821 243.012 87.8282 238.591L90.7877 224.766Z" fill="white"/>
<path d="M97.9034 183.971C92.2296 183.971 87.6313 179.368 87.6313 173.689C87.6313 168.003 92.2296 163.4 97.9034 163.4C103.577 163.4 108.175 168.003 108.175 173.683C108.175 179.362 103.577 183.965 97.9034 183.965V183.971Z" fill="white"/>
<path d="M86.4165 159.703C89.8727 162.455 92.8939 165.727 95.3652 169.399L86.4165 159.703Z" fill="white"/>
<path d="M95.3761 179.677C92.0709 179.677 88.8322 178.086 86.8504 175.141C84.9651 172.34 82.669 169.848 80.0285 167.75C75.5874 164.217 74.8502 157.746 78.385 153.3C81.9137 148.854 88.3791 148.117 92.8202 151.655C97.1042 155.066 100.832 159.106 103.896 163.655C107.068 168.366 105.823 174.754 101.116 177.929C99.358 179.114 97.358 179.683 95.3882 179.683L95.3761 179.677Z" fill="white"/>
<path d="M118.857 152.436C118.561 152.001 118.265 151.559 117.963 151.13L118.857 152.436Z" fill="white"/>
<path d="M118.868 162.718C115.581 162.718 112.36 161.145 110.366 158.224L110.137 157.891C109.944 157.613 109.756 157.329 109.563 157.051C106.294 152.405 107.406 145.994 112.046 142.722C116.687 139.45 123.092 140.563 126.361 145.208C126.62 145.583 126.88 145.964 127.14 146.345L127.345 146.647C130.542 151.341 129.327 157.74 124.639 160.934C122.868 162.137 120.856 162.718 118.862 162.718H118.868Z" fill="white"/>
<path d="M98.8906 133.005C103.005 135.588 106.812 138.606 110.25 141.999L98.8906 133.005Z" fill="white"/>
<path d="M110.246 152.282C107.642 152.282 105.037 151.296 103.037 149.325C100.125 146.452 96.8922 143.893 93.43 141.722C88.6263 138.704 87.1701 132.359 90.1852 127.55C93.2004 122.736 99.5388 121.284 104.342 124.303C109.068 127.272 113.485 130.762 117.454 134.688C121.497 138.673 121.539 145.181 117.557 149.228C115.545 151.266 112.892 152.294 110.24 152.294L110.246 152.282Z" fill="white"/>
<path d="M137.977 133.277C136.992 131.964 135.971 130.682 134.914 129.424L137.977 133.277Z" fill="white"/>
<path d="M137.993 143.555C134.875 143.555 131.794 142.14 129.775 139.448C128.924 138.311 128.011 137.162 127.062 136.037C123.413 131.694 123.969 125.204 128.307 121.551C132.646 117.898 139.129 118.454 142.779 122.797C143.963 124.206 145.111 125.652 146.193 127.092C149.6 131.634 148.688 138.075 144.15 141.487C142.301 142.878 140.132 143.549 137.987 143.549L137.993 143.555Z" fill="white"/>
<path d="M146.749 107.255C153.474 114.047 158.363 122.588 157.74 128.642C157.426 131.666 152.248 136.91 144.459 143.08C138.374 147.906 130.701 153.295 122.513 158.642C116.072 162.846 109.317 167.025 102.761 170.878C101.129 171.84 99.51 172.777 97.9087 173.691C87.9751 179.382 78.833 184.118 72.416 186.809C71.8601 187.045 71.3163 187.269 70.8027 187.469C70.3435 187.65 69.8964 187.82 69.4734 187.971C68.8812 188.189 68.3253 188.376 67.8117 188.533C67.7151 188.564 67.6184 188.594 67.5217 188.624C67.2317 188.715 66.9598 188.793 66.6999 188.854C66.5489 188.896 66.3978 188.932 66.2589 188.963C66.1138 188.999 65.9749 189.029 65.8359 189.053C65.5459 189.114 65.28 189.156 65.0443 189.18C64.9416 189.193 64.8449 189.199 64.7483 189.205C64.1924 189.247 63.7754 189.186 63.4975 189.029C60.5911 187.366 69.6063 169.475 81.6306 149.872C85.6186 143.382 89.9268 136.705 94.2471 130.366C99.794 122.225 105.353 114.64 110.235 108.731C115.667 102.15 120.272 97.6503 123.087 96.7552C130 94.5717 139.456 99.8822 146.749 107.255Z" fill="white"/>
<path d="M64.4222 199.502C62.241 199.502 60.2288 198.994 58.4463 197.984C55.7454 196.435 53.8542 193.925 53.0747 190.877C52.126 187.151 50.5309 180.921 72.8755 144.492C77.0326 137.73 81.4859 130.847 85.7639 124.568C91.7397 115.792 97.4679 108.05 102.32 102.177C111.794 90.6974 116.562 88.0422 119.976 86.9535C122.036 86.3002 124.205 85.9736 126.447 85.9736C138.816 85.9736 149.867 95.7962 154.043 100.018C157.644 103.653 169.306 116.554 167.952 129.691C167.312 135.879 162.508 141.885 150.828 151.139C144.846 155.881 136.991 161.457 128.121 167.252C121.662 171.467 114.689 175.786 107.957 179.742C106.356 180.685 104.682 181.659 102.991 182.621C92.4648 188.651 83.0085 193.508 76.3861 196.29C75.7698 196.55 75.1233 196.816 74.519 197.052C74.0175 197.252 73.4797 197.451 72.9661 197.639C72.2229 197.911 71.4978 198.159 70.809 198.365L70.6277 198.419C70.6277 198.419 70.5854 198.431 70.5673 198.437C70.0779 198.588 69.6489 198.709 69.232 198.812C69.0144 198.867 68.7969 198.921 68.5915 198.969C68.3135 199.036 68.0416 199.096 67.7697 199.145C67.2078 199.26 66.664 199.344 66.1383 199.399C65.9026 199.423 65.673 199.441 65.4494 199.459C65.099 199.484 64.7485 199.496 64.4102 199.496L64.4222 199.502ZM126.489 106.544C125.589 107.209 123.051 109.351 118.151 115.284C113.692 120.679 108.362 127.901 102.731 136.163C98.6341 142.175 94.3621 148.78 90.3742 155.264C86.6098 161.403 83.5342 166.732 81.075 171.232C84.6944 169.332 88.64 167.155 92.7972 164.772C94.3742 163.871 95.9513 162.957 97.5404 162.026C104.012 158.221 110.701 154.078 116.894 150.038C125.245 144.582 132.568 139.393 138.073 135.032C143.831 130.472 146.351 127.804 147.384 126.558C146.816 124.242 144.423 119.53 139.45 114.504C133.716 108.703 128.574 106.58 126.489 106.55V106.544Z" fill="white"/>
<path d="M147.351 106.565C147.152 106.788 146.952 107.012 146.747 107.236C148.747 97.7824 149.218 88.988 145.665 81.9598C142.868 86.605 137.635 83.478 140.433 78.8328C137.804 82.9638 131.671 79.0929 134.306 74.9618C128.251 77.4538 125.411 70.601 131.466 68.109C125.756 66.2764 128.741 57.0466 134.457 58.8792C135.278 55.4316 144.094 57.5123 143.272 60.9659C146.07 57.0284 152.197 61.3469 149.399 65.2844C154.052 63.2885 157.792 71.9195 153.14 73.9215C154.354 76.3893 155.182 78.8389 155.635 81.2703V81.2461H157.581C159.17 78.1554 163.841 75.8207 166.409 78.1312C162.445 73.2925 169.255 66.7058 174.064 71.3873C169.539 66.1373 177.007 59.7381 181.539 64.982C189.267 58.7945 194.796 65.6413 187.074 71.8348C195.031 75.8752 191.146 83.4719 183.182 79.4255C190.361 86.2602 183.931 92.9618 176.759 86.1272C183.225 91.8187 174.258 101.932 167.786 96.2461C160.318 95.5384 153.702 99.6029 147.55 106.335C147.484 106.407 147.418 106.486 147.351 106.565Z" fill="white"/>
<path d="M146.744 117.522C145.143 117.522 143.536 117.147 142.043 116.379C137.928 114.256 135.741 109.641 136.702 105.111C137.638 100.678 138.073 96.9276 138.013 93.7946C135.874 93.0385 133.959 91.726 132.478 89.9841C129.668 88.9256 127.233 86.9841 125.578 84.4014C121.765 82.593 118.949 79.1393 118.091 74.8027C117.614 72.3773 117.819 69.9519 118.605 67.714C118.091 65.7422 117.976 63.6132 118.321 61.4297C119.372 54.6918 124.375 49.5991 130.617 48.5587C132.653 47.4519 135.052 46.835 137.644 46.835C140.237 46.835 143.602 47.4882 146.539 49.1394C151.681 49.2906 156.484 52.3148 158.859 56.9297C158.968 57.1474 159.077 57.3652 159.173 57.5829C160.593 58.6535 161.844 59.9902 162.853 61.5325C163.282 61.2906 163.723 61.0668 164.17 60.8611C166.823 55.9075 172.001 52.7503 177.621 52.7503C178.974 52.7503 180.303 52.9317 181.578 53.2825C183.458 52.6172 185.355 52.2725 187.234 52.2725C193.246 52.2725 198.37 55.7987 200.285 61.2603C201.216 63.9156 201.403 67.2906 200.201 70.7986C201.687 73.7623 202.128 77.0647 201.343 80.3672C200.588 83.5184 198.805 86.1494 196.352 87.9881C196.183 88.8893 195.929 89.7724 195.585 90.6373C194.098 94.3571 191.101 97.1454 187.415 98.4518C184.442 104.343 178.406 108.208 171.977 108.214C169.488 108.214 167.083 107.651 164.871 106.569C162.025 107.077 158.774 109.309 155.197 113.21C155.137 113.282 155.077 113.355 155.016 113.422L154.968 113.476C154.75 113.718 154.539 113.96 154.315 114.202C152.321 116.373 149.554 117.522 146.75 117.522H146.744Z" fill="white"/>
<path d="M193.505 118.739C195.613 126.39 187.994 128.477 185.885 120.826C184.109 129.505 176.036 127.866 177.813 119.186C173.214 120.088 172.217 118.237 174.973 113.525C169.154 114.118 167.257 112.382 171.081 107.235C164.882 101.864 156.447 102.783 146.755 107.235C155.788 99.723 166.598 97.3036 179.607 101.168C181.722 96.2996 190.689 100.17 188.574 105.039C192.145 101.688 197.076 106.896 193.505 110.253C198.29 110.253 198.29 118.739 193.505 118.739Z" fill="white"/>
<path d="M181.093 136.864C177.093 136.864 173.323 135.049 170.743 131.886C169.673 130.573 168.845 129.092 168.271 127.477C166.845 126.497 165.649 125.209 164.761 123.648C164.308 122.862 163.957 122.051 163.697 121.211C161.83 119.832 160.724 118.18 160.102 116.94C159.619 115.973 159.268 114.987 159.051 113.977C157.232 114.243 154.628 114.944 151.045 116.596C146.362 118.749 140.809 117.092 138.066 112.725C135.322 108.358 136.235 102.636 140.192 99.3396C150.779 90.5392 163.268 87.3276 177.081 89.9888C178.948 89.1239 181.033 88.6582 183.232 88.6582C188.042 88.6582 192.821 90.9263 195.843 94.5493C199.504 95.9102 202.556 98.8074 204.048 102.576C204.513 103.755 204.803 104.965 204.93 106.186C206.471 108.527 207.359 111.388 207.359 114.509C207.359 118.295 206.042 121.7 203.855 124.259C203.432 126.606 202.513 128.771 201.112 130.604C198.544 133.985 194.664 135.92 190.477 135.92C189.275 135.92 188.108 135.769 186.984 135.473C185.051 136.416 183.015 136.87 181.081 136.87L181.093 136.864Z" fill="white"/>
<path d="M121.284 116.221C118.819 114.273 116.251 112.453 113.592 110.771L121.284 116.221Z" fill="white"/>
<path d="M121.276 126.502C119.046 126.502 116.805 125.782 114.92 124.288C112.738 122.564 110.442 120.937 108.104 119.461C103.306 116.425 101.874 110.074 104.907 105.278C107.941 100.476 114.285 99.0421 119.077 102.078C122.019 103.941 124.901 105.986 127.645 108.151C132.098 111.671 132.859 118.137 129.343 122.594C127.318 125.165 124.309 126.508 121.27 126.508L121.276 126.502Z" fill="white"/>
<path d="M165.091 88.321C171.472 83.0105 176.523 77.3553 181.079 71.7666L165.091 88.321Z" fill="white"/>
<path d="M165.099 98.5999C162.15 98.5999 159.226 97.3358 157.195 94.8923C153.57 90.5253 154.168 84.0415 158.531 80.4125C164.67 75.3016 169.353 69.8883 173.129 65.2613C176.718 60.8641 183.19 60.2048 187.582 63.7976C191.975 67.3903 192.628 73.8681 189.045 78.2653C184.906 83.3338 179.196 89.9628 171.667 96.2229C169.745 97.8197 167.419 98.5999 165.105 98.5999H165.099Z" fill="white"/>
<path d="M134.469 64.4189C140.131 67.0742 144.62 71.1266 147.932 76.5701L134.469 64.4189Z" fill="white"/>
<path d="M147.943 86.8622C144.475 86.8622 141.091 85.1082 139.158 81.9267C136.898 78.213 133.937 75.5336 130.112 73.7372C124.976 71.33 122.759 65.209 125.164 60.0679C127.568 54.9268 133.683 52.707 138.819 55.1143C146.318 58.6284 152.336 64.0538 156.699 71.2332C159.647 76.084 158.113 82.4106 153.267 85.3622C151.599 86.3784 149.756 86.8622 147.937 86.8622H147.943Z" fill="white"/>
<path d="M175.819 105.394C181.499 107.795 185.638 111.4 188.23 116.214L175.819 105.394Z" fill="white"/>
<path d="M188.235 126.494C184.579 126.494 181.044 124.54 179.189 121.093C177.727 118.377 175.316 116.339 171.817 114.863C166.591 112.655 164.144 106.619 166.349 101.393C168.555 96.1612 174.585 93.7116 179.805 95.9192C187.667 99.2398 193.54 104.423 197.262 111.324C199.957 116.32 198.096 122.562 193.105 125.254C191.552 126.095 189.884 126.488 188.235 126.488V126.494Z" fill="white"/>
<path d="M146.764 107.254C156.456 102.803 164.891 101.883 171.09 107.254C167.265 112.402 169.163 114.137 174.975 113.545C172.22 118.256 173.223 120.101 177.815 119.206C176.039 127.885 184.111 129.525 185.888 120.845C187.997 128.496 195.622 126.416 193.513 118.758C198.299 118.758 198.299 110.273 193.513 110.273C197.084 106.922 192.148 101.708 188.583 105.059C190.698 100.19 181.731 96.3188 179.616 101.188C166.613 97.3229 155.803 99.7422 146.77 107.254H146.764Z" fill="#8FAE3C"/>
<path fill-rule="evenodd" clip-rule="evenodd" d="M155.144 102.007C152.197 103.301 149.412 105.058 146.777 107.248C146.775 107.249 146.772 107.25 146.77 107.251C146.768 107.252 146.765 107.253 146.764 107.254H146.77C146.772 107.252 146.775 107.25 146.777 107.248C149.946 105.793 152.98 104.717 155.846 104.114C161.74 102.875 166.921 103.642 171.09 107.254C167.903 111.544 168.689 113.464 172.404 113.642C173.147 113.677 174.007 113.643 174.976 113.544C174.471 114.408 174.092 115.175 173.839 115.846C172.979 118.122 173.557 119.301 175.53 119.415C176.153 119.451 176.915 119.381 177.815 119.206C177.646 120.033 177.566 120.797 177.562 121.493C177.528 127.05 182.298 128.355 184.775 123.966C185.245 123.134 185.632 122.097 185.888 120.845C186.23 122.085 186.716 123.069 187.283 123.816C189.85 127.197 194.057 125.696 193.873 120.958C193.846 120.288 193.732 119.553 193.513 118.758C194.216 118.758 194.816 118.575 195.312 118.263C197.545 116.858 197.689 112.838 195.746 111.095C195.179 110.587 194.435 110.272 193.513 110.272C194.208 109.62 194.581 108.897 194.705 108.181C195.071 106.05 193.231 103.974 191.1 103.979C190.267 103.98 189.39 104.3 188.583 105.059C189.003 104.091 188.986 103.162 188.671 102.334C187.403 98.9959 181.31 97.2866 179.616 101.188C170.408 98.4508 162.3 98.8651 155.144 102.007ZM178.671 98.6275C165.677 95.2079 154.613 97.857 145.356 105.555L146.106 106.456L146.764 109.465H147.569L147.963 109.136C156.429 105.299 163.116 104.613 168.093 107.769C167.679 108.483 167.358 109.175 167.153 109.843C166.771 111.089 166.709 112.572 167.625 113.844C168.483 115.034 169.834 115.514 171.006 115.714C171.176 115.743 171.35 115.768 171.527 115.788C171.51 115.848 171.493 115.908 171.477 115.967C171.194 117.014 171.069 118.305 171.673 119.485C172.332 120.774 173.546 121.345 174.67 121.539C174.891 121.578 175.119 121.604 175.352 121.619C175.359 122.955 175.594 124.169 176.048 125.22C176.815 126.997 178.237 128.327 180.08 128.701C182.515 129.196 184.661 128.012 186.158 125.879C187.704 127.502 189.726 128.259 191.865 127.674C194.868 126.854 196.319 123.879 196.04 120.387C196.815 119.998 197.466 119.434 197.972 118.761C198.912 117.51 199.313 115.957 199.313 114.515C199.313 113.073 198.912 111.52 197.972 110.27C197.633 109.818 197.228 109.416 196.765 109.083C196.905 108.576 196.97 108.056 196.961 107.533C196.934 106.011 196.28 104.637 195.33 103.633C194.38 102.629 193.045 101.901 191.529 101.784C191.292 101.766 191.055 101.763 190.818 101.776C190.679 101.36 190.495 100.962 190.273 100.587C189.411 99.1343 188.016 98.07 186.562 97.4419C185.107 96.8138 183.376 96.5292 181.727 96.8959C180.586 97.1497 179.511 97.7159 178.671 98.6275Z" fill="black"/>
<path d="M146.764 107.249C153.138 99.9905 160.009 95.5208 167.803 96.2587C174.268 101.95 183.241 91.8373 176.77 86.1458C183.948 92.9744 190.371 86.2728 183.199 79.4442C191.163 83.4905 195.048 75.8938 187.084 71.8474C194.813 65.6539 189.278 58.8071 181.556 65.0006C177.024 59.7507 169.549 66.1559 174.081 71.4059C169.084 66.543 161.93 73.8373 166.927 78.7002C163.501 74.17 154.377 81.0228 157.809 85.547C157.96 92.7022 153.392 99.9542 146.77 107.249H146.764Z" fill="#8FAE3C"/>
<path fill-rule="evenodd" clip-rule="evenodd" d="M141.88 109.46L145.103 105.791C145.429 105.42 145.757 105.054 146.088 104.695C151.895 98.09 155.473 91.9548 155.599 86.2054C154.659 84.5601 154.666 82.7655 155.22 81.1968C155.824 79.485 157.068 78.0135 158.469 76.9616C159.761 75.9914 161.358 75.2484 163.021 75.0543C163.02 74.952 163.021 74.8496 163.025 74.7473C163.093 72.8413 163.944 71.1172 165.178 69.8591C166.412 68.6008 168.119 67.7162 170.023 67.6046C170.173 67.5958 170.323 67.5919 170.473 67.5928C170.479 67.4677 170.489 67.3428 170.502 67.2181C170.702 65.3453 171.663 63.7176 172.981 62.5883C174.299 61.4589 176.055 60.7582 177.936 60.841C179.256 60.8991 180.551 61.3391 181.717 62.1698C183.373 61.1221 185.017 60.5241 186.568 60.3858C188.614 60.2034 190.58 60.8395 191.833 62.3907C193.088 63.9439 193.294 65.9998 192.675 67.9604C192.293 69.1691 191.598 70.3722 190.606 71.5272C193.328 73.8086 194.511 76.896 193.083 79.688C192.096 81.618 190.26 82.6242 188.078 82.7756C188.95 85.2284 188.68 87.655 186.962 89.4473C185.45 91.0239 183.393 91.5058 181.216 91.0786C181.144 93.2989 180.185 95.3671 178.792 96.9386C177.375 98.5356 175.395 99.7476 173.156 100.069C171.074 100.368 168.896 99.8742 166.949 98.4126C160.817 98.0895 155.086 101.464 149.382 107.644C149.061 108.009 148.736 108.373 148.406 108.735L147.748 109.46H141.88ZM146.764 107.25H146.77C147.097 106.889 147.419 106.529 147.735 106.169C150.266 103.425 152.876 101.132 155.593 99.4379C159.427 97.0474 163.472 95.8496 167.803 96.2596C172.841 100.695 179.402 95.5328 178.991 90.3446C178.883 88.9835 178.295 87.6207 177.075 86.4288C178.43 87.6499 179.751 88.3926 180.951 88.7479C185 89.9461 187.675 86.7369 185.628 82.6135C185.123 81.5956 184.33 80.5219 183.199 79.4451C184.606 80.1602 185.886 80.5116 186.996 80.5833C191.567 80.8788 193.25 76.4271 189.046 73.0893C188.495 72.6522 187.844 72.2341 187.084 71.8484C187.745 71.3193 188.308 70.7855 188.781 70.2555C193.851 64.5803 188.618 59.3371 181.556 65.0016C178.004 60.8866 172.644 63.932 172.674 67.9692C172.683 69.0828 173.101 70.2718 174.081 71.4068C173.015 70.3694 171.851 69.8853 170.728 69.8128C167.792 69.6234 165.135 72.2443 165.234 75.1489C165.268 76.1461 165.627 77.1766 166.41 78.1384C165.57 77.3888 164.506 77.1335 163.4 77.2369C159.59 77.5933 155.274 82.206 157.809 85.5479C157.895 89.6208 156.452 93.725 153.972 97.8506C152.309 100.615 150.181 103.389 147.735 106.169C147.412 106.52 147.09 106.878 146.77 107.243C146.769 107.244 146.768 107.245 146.766 107.246C146.766 107.247 146.765 107.248 146.764 107.25Z" fill="black"/>
<path d="M146.764 107.249C148.764 97.7959 149.235 89.0076 145.682 81.9733C142.885 86.6185 137.652 83.4914 140.45 78.8463C137.821 82.9773 131.688 79.1064 134.323 74.9753C128.268 77.4673 125.428 70.6205 131.483 68.1286C125.773 66.2959 128.764 57.06 134.474 58.8987C135.296 55.4512 144.117 57.5318 143.296 60.9854C146.093 57.0479 152.22 61.3665 149.423 65.304C154.075 63.308 157.809 71.9451 153.157 73.9411C158.806 85.4027 156.063 96.4773 146.764 107.256V107.249Z" fill="#8FAE3C"/>
<path fill-rule="evenodd" clip-rule="evenodd" d="M144.553 107.018L144.601 106.791C146.297 98.7765 146.777 91.6527 144.871 85.7995C143.268 86.682 141.437 86.7489 139.834 85.7906C138.671 85.0957 137.928 84.042 137.616 82.8203C136.385 82.8582 135.203 82.4909 134.232 81.8776C133.061 81.1381 132.08 79.9679 131.67 78.498C131.597 78.2375 131.544 77.9728 131.51 77.7054C129.156 77.6028 127.194 76.3737 126.32 74.2673C125.432 72.1277 125.981 69.8397 127.629 68.0995C127.231 67.604 126.915 67.0544 126.683 66.4677C126.031 64.821 126.087 63.0162 126.593 61.4552C127.098 59.894 128.111 58.3992 129.603 57.4449C130.698 56.7444 131.99 56.3781 133.381 56.4578C134.069 55.7571 134.957 55.3478 135.771 55.1416C137.14 54.7944 138.669 54.886 140.009 55.2024C141.348 55.5188 142.758 56.1213 143.826 57.0457C143.994 57.1914 144.161 57.3521 144.32 57.5272C144.74 57.3803 145.176 57.2861 145.618 57.2443C147.139 57.1006 148.596 57.5846 149.73 58.3844C150.865 59.184 151.811 60.3942 152.183 61.8768C152.276 62.2499 152.331 62.6304 152.344 63.0141C152.844 63.1586 153.32 63.3703 153.762 63.636C155.168 64.4817 156.198 65.8383 156.808 67.2479C157.417 68.6571 157.7 70.3369 157.35 71.9403C157.131 72.9421 156.663 73.8932 155.923 74.6696C158.299 80.2401 158.863 85.7991 157.731 91.2997C156.491 97.3224 153.252 103.118 148.437 108.699L144.553 113.201V107.018ZM154.065 75.9558C153.791 75.2854 153.488 74.6136 153.156 73.9406C153.287 73.8845 153.411 73.8231 153.529 73.7569C156.788 71.9235 155.093 66.3613 151.967 65.2144C151.189 64.9292 150.323 64.9171 149.422 65.3035C150.013 64.4722 150.206 63.6239 150.116 62.8398C149.872 60.7061 147.536 59.0486 145.431 59.5061C144.647 59.6767 143.895 60.1413 143.295 60.985C143.502 60.117 143.099 59.3357 142.368 58.7071C140.276 56.9099 135.494 56.3609 134.569 58.6021C134.53 58.6959 134.498 58.7946 134.473 58.8983C134.204 58.8114 133.94 58.7493 133.683 58.7099C129.386 58.0512 126.962 63.7595 129.36 66.7245C129.854 67.3354 130.553 67.8298 131.483 68.1281C130.546 68.5137 129.822 69.0036 129.29 69.547C126.936 71.9517 128.34 75.4048 131.679 75.5096C132.462 75.5342 133.351 75.3748 134.322 74.9748C133.765 75.8486 133.6 76.7108 133.711 77.488C133.97 79.2948 135.72 80.6428 137.504 80.6118C138.58 80.5931 139.669 80.0719 140.449 78.8458C139.649 80.1741 139.506 81.3783 139.775 82.3121C140.283 84.0792 142.266 84.8781 144.067 83.7175C144.642 83.3467 145.198 82.7759 145.682 81.9728C146.066 82.7339 146.404 83.5155 146.697 84.3162C148.67 89.7005 148.655 95.9509 147.615 102.648C147.38 104.161 147.092 105.696 146.764 107.249V107.255C146.765 107.253 146.767 107.252 146.768 107.25C147.838 106.01 148.822 104.764 149.715 103.516C156.128 94.5557 157.923 85.386 154.065 75.9558Z" fill="black"/>
<g opacity="0.07">
<path d="M156.084 98.5441C161.558 93.7901 162.869 88.1046 158.996 81.2578H155.655L156.09 98.5441H156.084Z" fill="black"/>
</g>
<path d="M157.765 128.637C157.451 131.661 152.273 136.899 144.484 143.074C138.406 147.901 130.732 153.29 122.539 158.637C116.103 162.84 109.342 167.02 102.792 170.872C83.6862 182.11 66.2963 190.602 63.5228 189.017C60.6225 187.354 69.6377 169.463 81.662 149.866C85.6439 143.376 89.9581 136.699 94.2724 130.354C99.8193 122.213 105.378 114.629 110.26 108.719C115.699 102.139 120.297 97.6386 123.113 96.7435C130.025 94.56 139.481 99.8705 146.774 107.243C153.5 114.036 158.388 122.576 157.765 128.631V128.637Z" fill="#F88916"/>
<g opacity="0.2">
<path d="M123.113 96.751C120.291 97.6461 115.693 102.146 110.26 108.727C105.378 114.636 99.8253 122.221 94.2724 130.362C89.9581 136.701 85.6439 143.378 81.662 149.874C69.6377 169.477 60.6225 187.362 63.5228 189.025C64.5923 189.636 67.8552 188.741 72.5561 186.763C72.5561 186.763 66.8642 189.509 76.3326 170.323C85.801 151.138 123.113 96.757 123.113 96.757V96.751Z" fill="white"/>
</g>
<g opacity="0.07">
<path d="M123.109 96.7523C130.021 94.5688 139.478 99.8793 146.771 107.252C153.496 114.045 158.384 122.585 157.762 128.639C157.448 131.663 152.269 136.901 144.481 143.077C138.402 147.903 130.728 153.292 122.535 158.639C116.1 162.843 109.338 167.022 102.788 170.875C83.6824 182.113 66.2925 190.605 63.519 189.02C63.519 189.02 121.489 156.492 137.194 134.482C152.904 112.472 123.109 96.7462 123.109 96.7462V96.7523Z" fill="black"/>
</g>
<path d="M64.469 191.633C63.6171 191.633 62.9161 191.464 62.318 191.125C61.756 190.805 61.0188 190.157 60.7046 188.924C60.2756 187.236 60.4509 183.946 65.6654 173.355C69.025 166.539 73.8407 157.98 79.5931 148.605C83.6112 142.055 87.998 135.275 92.2699 128.996C98.1129 120.42 103.69 112.877 108.391 107.18C117.69 95.9238 121.219 94.8109 122.379 94.4419C123.66 94.0367 125.032 93.8311 126.476 93.8311C133.008 93.8311 141.237 98.2101 148.488 105.541C154.651 111.764 160.959 121.164 160.162 128.875C159.926 131.143 158.204 135.275 145.974 144.964C140.174 149.567 132.524 154.992 123.847 160.654C117.551 164.766 110.687 169.018 104.004 172.95C96.554 177.329 71.6957 191.621 64.469 191.621V191.633ZM126.47 98.6758C125.527 98.6758 124.639 98.8028 123.829 99.0569C122.832 99.3714 119.684 101.101 112.113 110.264C107.503 115.847 102.022 123.262 96.2579 131.718C92.0282 137.93 87.6898 144.643 83.7079 151.133C71.2063 171.51 66.1851 182.881 65.46 186.668C69.8226 185.791 82.294 180.111 101.551 168.783C108.173 164.887 114.965 160.678 121.207 156.607C129.757 151.024 137.285 145.69 142.971 141.178C154.434 132.093 155.298 128.93 155.352 128.385C155.854 123.492 151.715 115.678 145.05 108.952C138.778 102.613 131.66 98.6758 126.47 98.6758Z" fill="black"/>
<path d="M102.522 173.615C101.646 173.615 100.8 173.137 100.371 172.302C97.7547 167.233 94.0084 162.667 89.525 159.098C88.4796 158.264 88.3105 156.746 89.1383 155.699C89.9721 154.653 91.4887 154.483 92.5341 155.312C97.5432 159.304 101.737 164.409 104.667 170.082C105.277 171.268 104.812 172.731 103.628 173.342C103.271 173.524 102.897 173.615 102.522 173.615Z" fill="black"/>
<path d="M110.245 144.428C109.634 144.428 109.018 144.198 108.547 143.733C103.991 139.239 98.8066 135.458 93.1389 132.507C91.9546 131.89 91.4953 130.426 92.1117 129.241C92.728 128.055 94.1902 127.596 95.3745 128.213C101.465 131.388 107.042 135.452 111.943 140.285C112.891 141.223 112.903 142.753 111.967 143.708C111.496 144.186 110.867 144.428 110.245 144.428Z" fill="black"/>
<path d="M133.393 153.002C132.553 153.002 131.743 152.566 131.296 151.786C128.614 147.105 125.49 142.635 122.009 138.498C121.151 137.476 121.278 135.951 122.299 135.086C123.32 134.228 124.843 134.355 125.707 135.377C129.375 139.738 132.668 144.449 135.49 149.379C136.154 150.54 135.756 152.016 134.595 152.681C134.215 152.899 133.804 153.002 133.393 153.002Z" fill="black"/>
<path d="M130.021 111.23C129.495 111.23 128.969 111.06 128.528 110.71C125.126 108.03 121.507 105.574 117.767 103.409C116.613 102.738 116.214 101.262 116.884 100.107C117.555 98.9515 119.03 98.5523 120.184 99.2237C124.123 101.504 127.936 104.087 131.519 106.911C132.57 107.74 132.746 109.258 131.924 110.31C131.447 110.915 130.74 111.23 130.027 111.23H130.021Z" fill="black"/>
</g>
</g>
<defs>
<linearGradient id="paint0_linear_776_84" x1="1.8629" y1="-52.5005" x2="317.447" y2="226.512" gradientUnits="userSpaceOnUse">
<stop offset="0.265" stop-color="#FFA62F"/>
<stop offset="0.475" stop-color="#F8BD6D"/>
<stop offset="0.74" stop-color="#FFA62F"/>
</linearGradient>
<clipPath id="clip0_776_84">
<rect width="256" height="256" fill="white"/>
</clipPath>
</defs>
</svg>
