<svg width="256" height="256" viewBox="0 0 256 256" fill="none" xmlns="http://www.w3.org/2000/svg">
<g clip-path="url(#clip0_2788_32)">
<path d="M128 256C198.693 256 256 198.693 256 128C256 57.3075 198.693 0 128 0C57.3075 0 0 57.3075 0 128C0 198.693 57.3075 256 128 256Z" fill="white"/>
<path d="M184.256 112.16C186.768 95.392 173.992 86.376 156.536 80.36L162.2 57.64L148.376 54.2L142.856 76.32C139.224 75.408 135.496 74.56 131.776 73.712L137.336 51.448L123.512 48L117.848 70.712C114.84 70.024 111.88 69.352 109.016 68.632L109.032 68.56L89.96 63.8L86.28 78.568C86.28 78.568 96.544 80.92 96.328 81.064C101.928 82.464 102.936 86.168 102.768 89.112L96.32 114.992C96.704 115.088 97.2 115.232 97.76 115.448L96.296 115.088L87.256 151.344C86.568 153.04 84.832 155.592 80.912 154.624C81.056 154.824 70.864 152.12 70.864 152.12L64 167.944L82 172.432C85.344 173.272 88.624 174.152 91.848 174.976L86.128 197.952L99.944 201.392L105.608 178.672C109.384 179.688 113.048 180.632 116.632 181.528L110.984 204.152L124.808 207.592L130.528 184.664C154.112 189.128 171.84 187.328 179.304 166C185.32 148.832 179.008 138.92 166.6 132.464C175.64 130.384 182.44 124.44 184.256 112.16ZM152.656 156.464C148.392 173.64 119.472 164.352 110.096 162.024L117.696 131.584C127.072 133.928 157.128 138.56 152.656 156.464ZM156.936 111.912C153.04 127.536 128.976 119.592 121.176 117.648L128.056 90.048C135.856 91.992 161 95.616 156.936 111.912Z" fill="#0052FF"/>
<path fill-rule="evenodd" clip-rule="evenodd" d="M128 244C192.065 244 244 192.065 244 128C244 63.935 192.065 12 128 12C63.935 12 12 63.935 12 128C12 192.065 63.935 244 128 244ZM256 128C256 198.693 198.693 256 128 256C57.3075 256 0 198.693 0 128C0 57.3075 57.3075 0 128 0C198.693 0 256 57.3075 256 128Z" fill="#0052FF"/>
</g>
<defs>
<clipPath id="clip0_2788_32">
<rect width="256" height="256" fill="white"/>
</clipPath>
</defs>
</svg>
