<?xml version="1.0" encoding="UTF-8"?>
<svg xmlns="http://www.w3.org/2000/svg" xmlns:xodm="http://www.corel.com/coreldraw/odm/2003" version="1.1" viewBox="0 0 1366 1366">
  <defs>
    <style>
      .cls-1 {
        fill: #fff;
      }

      .cls-2 {
        fill: #f7931a;
      }
    </style>
  </defs>
  <!-- Generator: Adobe Illustrator 28.7.3, SVG Export Plug-In . SVG Version: 1.2.0 Build 164)  -->
  <g>
    <g id="Layer_1">
      <g id="Layer_1-2" data-name="Layer_1">
        <g>
          <g id="Layer_1-2">
            <path class="cls-2" d="M1345.5,848.2c-91.2,365.9-461.9,588.6-827.8,497.4C151.9,1254.4-70.8,883.7,20.4,517.8,111.6,151.8,482.2-70.9,848.1,20.3c366,91.2,588.6,461.9,497.4,827.9h0Z"/>
          </g>
          <g>
            <path class="cls-1" d="M925.1,555.2h0c13.6-90.8-55.6-139.7-150.2-172.3l30.7-123.1-75-18.7-29.9,119.9c-19.7-4.9-39.9-9.5-60.1-14.1l30.1-120.7-74.9-18.7-30.7,123.1c-16.3-3.7-151.1-37.4-151.1-37.4l-19.9,80.1s55.6,12.7,54.4,13.5c30.4,7.6,35.8,27.7,34.9,43.6l-84.1,337.3c-3.7,9.2-13.1,23.1-34.3,17.8.8,1.1-54.5-13.6-54.5-13.6l-37.2,85.8s133.5,33.6,151,38.1l-31,124.5,74.9,18.7,30.7-123.2c20.5,5.6,40.3,10.7,59.7,15.5l-30.6,122.6,75,18.7,31-124.3c27.7,5.2,53.8,8.9,78.3,10.2l67.4-116.8h120.5c29.4-89.8-4.8-142.1-70.7-176.4,49-11.3,85.9-43.5,95.7-110.1h0ZM753.8,795.3c-23.2,93.1-179.9,42.8-230.7,30.1l41.2-165c50.8,12.7,213.7,37.8,189.5,134.9h0ZM777,553.8c-21.1,84.7-151.6,41.7-193.9,31.1l37.3-149.6c42.3,10.5,178.6,30.2,156.6,118.5h0Z"/>
            <g>
              <path class="cls-1" d="M1043.1,999.6h-110.8c-7.4,0-14-3.8-17.2-9.8v-.2c-3.8-6.2-3.8-13.9,0-20.2l55.1-96.4,72.9,126.5h0Z"/>
              <path class="cls-1" d="M914.6,1032.5c3.7-6.2,10.3-10,17.3-10h111.3l-72.9,126.6-55.6-96.4h0c-3.7-6.2-3.7-14,0-20.2h0Z"/>
              <path class="cls-1" d="M950.5,861.5l-55.6,96.4c-3.7,6.2-10.3,10-17.3,10s-14-3.8-17.2-9.8l-56.1-96.5h146.2,0Z"/>
              <path class="cls-1" d="M804.2,1160.5l55.6-96.4c3.7-6.2,10.3-10,17.3-10s14.1,4,17.2,9.8l55.7,96.5h-145.8Z"/>
              <path class="cls-1" d="M840.3,989.6c-3.7,6.2-10.3,10-17.3,10h-111.3l72.9-126.6,55.7,96.5c3.7,6.2,3.7,13.9,0,20.1h0Z"/>
              <path class="cls-1" d="M823,1022.5c7.4,0,14,3.8,17.2,9.8v.2c3.8,6.2,3.8,13.9,0,20.2l-55.6,96.4-72.9-126.6h111.3Z"/>
            </g>
          </g>
        </g>
      </g>
    </g>
  </g>
</svg>