<svg width="256" height="256" viewBox="0 0 256 256" fill="none" xmlns="http://www.w3.org/2000/svg">
<g clip-path="url(#clip0_741_46)">
<path d="M256 128C256 198.692 198.692 256 128 256C57.3075 256 0 198.692 0 128C0 57.3075 57.3075 0 128 0C198.692 0 256 57.3075 256 128Z" fill="black"/>
<path d="M123.441 157.573V191.489H132.595V157.573H123.441ZM123.256 140.225V149.98H132.746V140.225H123.256ZM105.52 108.289V149.982H114.687V134.289H146.335V125.178H114.733V117.769H146.335V108.289H105.52ZM134.634 65.2151V99.0852H155.502V157.575H141.315V191.492H164.256L200.557 128.353L164.256 65.2151H134.636H134.634ZM120.768 44.0474H176.369L225.015 128.353L176.324 212.705H114.687V157.575H96.1683V99.0831H120.768V44.0453V44.0474ZM111.554 44.0474V65.5381L91.7464 65.2151L55.4456 128.351L91.7464 191.489H105.428V212.703L79.6776 212.657L30.9384 128.351L79.6776 44.0453H111.554V44.0474ZM71.6339 30.2397L15 128.351L71.6611 226.463H184.339L241 128.351L184.339 30.2397H71.6339Z" fill="white"/>
</g>
<defs>
<clipPath id="clip0_741_46">
<rect width="256" height="256" fill="white"/>
</clipPath>
</defs>
</svg>
