<svg width="256" height="256" viewBox="0 0 256 256" fill="none" xmlns="http://www.w3.org/2000/svg">
<path d="M252.17 158.964C235.073 227.536 165.613 269.268 97.0246 252.168C28.4654 235.073 -13.2709 165.616 3.83384 97.0493C20.9236 28.4696 90.3839 -13.2651 158.951 3.8302C227.534 20.9255 269.267 90.3898 252.168 158.965L252.17 158.964H252.17Z" fill="black"/>
<path d="M130.343 91H115V121.595H139.14V134.406H115V165H131.095C135.231 165 165.046 165.472 165 129.404C164.954 93.3363 136.082 91 130.343 91Z" fill="#FCFF52"/>
<path d="M128 0C57.3069 0 0 57.3069 0 128C0 198.693 57.3069 256 128 256C198.693 256 256 198.693 256 128C256 57.3069 198.693 0 128 0ZM133.029 197.132H86.6739V135.506H70.3334V120.41H86.6727V58.7788H126.458C135.869 58.7788 198.21 56.8243 198.21 129.112C198.21 202.596 133.031 197.132 133.031 197.132H133.029Z" fill="#FCFF52"/>
</svg>
