<svg width="256" height="256" viewBox="0 0 256 256" fill="none" xmlns="http://www.w3.org/2000/svg">
<path d="M256 127.998C256 161.946 242.514 194.504 218.509 218.509C194.504 242.514 161.946 256 127.998 256C94.0514 255.999 61.495 242.513 37.491 218.509C13.487 194.505 0.00116778 161.95 0 128.002C-2.00871e-08 94.0551 13.4853 61.4975 37.4895 37.4926C61.4936 13.4876 94.0505 0.00116783 127.998 0C161.946 -2.00871e-08 194.503 13.4853 218.508 37.4895C242.512 61.4935 255.999 94.0505 256 127.998Z" fill="#18171C"/>
<path d="M142.718 89.7194C131.173 106.286 116.689 136.93 111.127 148.84C112.345 155.235 113.395 161.661 114.276 168.114C113.121 164.324 110.707 158.153 108.818 153.713V153.821C108.818 153.821 108.818 153.605 108.608 153.063L106.614 148.407C105.354 145.7 103.36 141.586 100.212 135.63C80.0605 100.223 47 120.904 47 120.904C52.3526 124.477 64.2125 144.184 69.0403 156.312C73.8682 168.439 80.9001 186.522 94.6491 193.668C113.541 202.115 126.66 193.885 134.427 186.306C134.005 184.682 133.793 183.006 133.797 181.324C133.797 171.688 140.724 163.783 149.645 162.484L180.607 99.5728C192.886 75.4263 208.944 66.8722 208.944 66.8722C176.513 53.8785 157.412 68.7129 142.718 89.7194Z" fill="#31F793"/>
<path d="M131.968 181.253C131.968 169.767 140.993 160.455 152.126 160.455C163.26 160.455 172.285 169.767 172.285 181.253C172.285 192.739 163.26 202.05 152.126 202.05C140.993 202.05 131.968 192.739 131.968 181.253Z" fill="#31F793"/>
</svg>
