<svg width="256" height="256" viewBox="0 0 256 256" fill="none" xmlns="http://www.w3.org/2000/svg">
<circle cx="128" cy="128" r="126" fill="black"/>
<g clip-path="url(#clip0_741_46)">
<path d="M166.749 40.5059L98.3157 117.467C98.1392 117.66 98.1392 117.951 98.3212 118.144C98.5033 118.336 98.7956 118.353 98.9942 118.188L134.634 89.8079C134.805 89.7034 134.992 89.6319 135.186 89.5989L185.316 89.0489C185.432 89.0544 185.542 89.1259 185.586 89.2359C185.631 89.3459 185.608 89.4724 185.526 89.5604L143.129 131.751C143.068 131.806 142.996 131.833 142.919 131.833L88.1164 131.795C87.9951 131.789 87.8903 131.701 87.8627 131.586L72.7816 84.7424C72.7485 84.6379 72.7816 84.5169 72.8698 84.4454L114.842 40.0879C114.897 40.0384 114.974 40.0054 115.052 40.0054L166.539 40.0494C166.65 40.0549 166.749 40.1154 166.793 40.2144C166.837 40.3134 166.826 40.4289 166.76 40.5169L166.749 40.5059Z" fill="white"/>
<path d="M166.743 40.5059L98.3102 117.467C98.1337 117.66 98.1337 117.951 98.3158 118.144C98.4978 118.336 98.7901 118.353 98.9887 118.188L134.628 89.8079C134.799 89.7034 134.987 89.6319 135.18 89.5989L185.311 89.0489C185.426 89.0544 185.537 89.1259 185.581 89.2359C185.625 89.3459 185.603 89.4724 185.52 89.5604L143.123 131.751C143.063 131.806 142.991 131.833 142.914 131.833L88.1109 131.795C87.9896 131.789 87.8848 131.701 87.8572 131.586L72.7761 84.7424C72.743 84.6379 72.7761 84.5169 72.8643 84.4454L114.837 40.0879C114.892 40.0384 114.969 40.0054 115.046 40.0054L166.534 40.0494C166.644 40.0549 166.743 40.1154 166.787 40.2144C166.832 40.3134 166.821 40.4289 166.754 40.5169L166.743 40.5059Z" fill="white"/>
<path d="M150.647 128.781H151.668L151.673 131.536H152.142V128.781H153.157V128.357H150.653V128.781H150.647ZM154.382 128.357H153.874V131.531H154.343V129.072L155.49 130.81H155.535L156.682 129.072V131.531H157.151V128.357H156.682L155.535 130.095L154.387 128.357H154.382Z" fill="white"/>
<path d="M44.357 172.11V172.028C44.2411 167.782 45.8574 163.673 48.8361 160.643C51.8148 157.612 55.9022 155.913 60.1607 155.935C64.7446 155.797 69.174 157.596 72.3513 160.89L69.9297 163.475C67.3868 160.764 63.8399 159.218 60.1165 159.196C53.1938 159.196 48.0086 164.79 48.0086 171.945V172.028C48.0086 179.227 53.2324 184.865 60.1165 184.865C64.4081 184.865 67.2103 183.215 70.1835 180.377L72.5223 182.665C69.3616 186.223 64.7942 188.22 60.0283 188.126C55.7919 188.159 51.732 186.465 48.7754 183.446C45.8187 180.426 44.2246 176.329 44.357 172.11Z" fill="white"/>
<path d="M92.0219 156.441H114.577V159.658H95.5522V170.29H112.586V173.507H95.5522V184.392H114.831V187.609H92.0219V156.441Z" fill="white"/>
<path d="M135.312 156.441H157.868V159.658H138.843V170.29H155.877V173.507H138.843V184.392H158.122V187.609H135.312V156.441Z" fill="white"/>
<path d="M178.559 156.441H182.089V175.036L200.011 156.441H204.556L191.174 170.037L205.147 187.576H200.728L188.747 172.495L182.122 179.233V187.576H178.592V156.435H178.553L178.559 156.441Z" fill="white"/>
<path d="M208.175 157.497C207.541 158.14 207.188 159.009 207.193 159.911L207.188 159.906C207.199 161.776 208.732 163.283 210.608 163.272C212.483 163.261 213.994 161.732 213.983 159.862C213.989 158.965 213.63 158.102 212.996 157.464C212.362 156.826 211.49 156.474 210.591 156.474C209.686 156.479 208.82 156.842 208.18 157.486L208.175 157.497ZM210.586 156.776C212.296 156.776 213.686 158.162 213.686 159.867C213.686 161.572 212.296 162.958 210.586 162.958C208.876 162.958 207.485 161.572 207.485 159.867C207.485 158.162 208.876 156.776 210.586 156.776ZM209.229 158.052H210.801C211.181 158.025 211.551 158.168 211.821 158.432C212.009 158.608 212.119 158.85 212.119 159.108C212.113 159.62 211.733 160.049 211.225 160.126L212.284 161.523H211.65L210.63 160.208H209.736V161.523H209.223L209.229 158.052ZM211.606 159.108C211.606 159.532 211.264 159.741 210.757 159.741H209.78V158.514H210.801C211.308 158.514 211.606 158.723 211.606 159.108Z" fill="white"/>
<path d="M69.7201 200.578H68.4018L62.7091 213.118H64.1488L65.6437 209.813H72.4396L73.8848 213.118H75.4128L69.7201 200.578ZM69.0361 202.228L71.888 208.581H66.1843L69.0361 202.228Z" fill="white"/>
<path d="M82.1645 200.661H83.4829L91.3434 210.66V200.661H92.7003V213.118H91.5971L83.527 202.905V213.113H82.17L82.1645 200.661Z" fill="white"/>
<path d="M102.431 210.824C101.719 211.677 100.655 212.161 99.5403 212.139C97.8138 212.166 96.3796 210.813 96.3134 209.092H103.622V208.624C103.622 205.918 102.045 203.751 99.3307 203.751C96.7988 203.955 94.8626 206.083 94.9068 208.619C94.9509 211.154 96.9643 213.211 99.5017 213.327C100.963 213.349 102.354 212.711 103.28 211.589L102.431 210.824ZM99.3252 204.895C100.986 204.95 102.298 206.331 102.254 207.986H96.3079C96.3685 206.336 97.6704 205 99.3252 204.895Z" fill="white"/>
<path d="M104.725 203.922H106.171L108.592 211.292L111.058 203.878H112.205L114.71 211.292L117.131 203.922H118.576L115.35 213.2H114.158L111.692 205.957L109.188 213.2H107.958L104.731 203.922H104.725Z" fill="white"/>
<path d="M130.723 200.66H125.411V213.118H126.812V208.289H130.381L133.994 213.118H135.693L131.876 208.03C133.784 207.876 135.257 206.292 135.268 204.389V204.345C135.279 203.432 134.926 202.547 134.292 201.887C133.305 201.04 132.025 200.6 130.723 200.66ZM133.867 204.472C133.867 206.039 132.51 207.013 130.64 207.013H126.818V201.975H130.684C132.681 201.975 133.867 202.91 133.867 204.433V204.477V204.472Z" fill="white"/>
<path d="M144.486 210.824C143.774 211.677 142.71 212.161 141.595 212.139C139.869 212.166 138.435 210.813 138.368 209.092H145.677V208.624C145.677 205.918 144.1 203.751 141.386 203.751C138.854 203.955 136.918 206.083 136.962 208.619C137.006 211.154 139.019 213.211 141.557 213.327C143.018 213.349 144.409 212.711 145.335 211.589L144.486 210.824ZM141.342 204.895C143.002 204.95 144.315 206.331 144.271 207.986H138.324C138.385 206.336 139.687 204.994 141.342 204.895Z" fill="white"/>
<path d="M150.818 207.393C148.479 207.393 146.869 208.454 146.869 210.445C146.924 211.292 147.321 212.084 147.972 212.634C148.623 213.184 149.467 213.448 150.316 213.366C151.607 213.399 152.837 212.816 153.631 211.798V213.151H154.988V207.519C155.049 206.524 154.696 205.545 154.012 204.813C153.207 204.076 152.131 203.708 151.039 203.796C149.875 203.79 148.728 204.049 147.685 204.56L148.11 205.66C148.976 205.209 149.936 204.978 150.912 204.984C152.605 204.984 153.626 205.831 153.626 207.481V207.778C152.716 207.519 151.773 207.393 150.824 207.398L150.818 207.393ZM153.62 208.922V209.769C153.472 211.281 152.126 212.398 150.603 212.266C149.329 212.266 148.264 211.589 148.264 210.445V210.401C148.264 209.301 149.241 208.537 150.94 208.537C151.844 208.531 152.749 208.658 153.615 208.916L153.62 208.922Z" fill="white"/>
<path d="M157.487 200.154H158.844V213.151H157.487V200.154Z" fill="white"/>
<path d="M163.092 200.408H161.52V201.931H163.092V200.408ZM162.965 203.928H161.608V213.118H162.965V203.928Z" fill="white"/>
<path d="M166.153 210.698V205.148H164.879V203.922H166.153V201.128H167.51V203.922H170.445V205.148H167.51V210.527C167.46 210.951 167.609 211.38 167.918 211.677C168.227 211.974 168.657 212.111 169.082 212.051C169.557 212.056 170.025 211.941 170.439 211.71V212.898C169.926 213.162 169.358 213.294 168.784 213.277C168.067 213.371 167.35 213.134 166.837 212.628C166.324 212.122 166.07 211.413 166.153 210.698Z" fill="white"/>
<path d="M171.802 215.565L172.27 214.465C172.717 214.696 173.214 214.812 173.716 214.806C174.521 214.806 175.073 214.383 175.63 213.068L171.421 203.922H172.949L176.303 211.589L179.276 203.922H180.721L176.854 213.409C176.088 215.318 175.2 215.994 173.793 215.994C173.103 216.033 172.419 215.884 171.802 215.565Z" fill="white"/>
<path d="M181.107 200.363H182.128L182.133 203.119H182.602V200.363H183.617V199.94H181.113L181.107 200.363ZM184.809 199.94H184.301V203.113H184.77V200.655L185.917 202.393H185.962L187.109 200.655V203.113H187.578V199.94H187.109L185.962 201.678L184.809 199.94Z" fill="white"/>
</g>
<defs>
<clipPath id="clip0_741_46">
<rect width="171" height="176" fill="white" transform="translate(43 40)"/>
</clipPath>
</defs>
</svg>
