<svg width="256" height="256" viewBox="0 0 256 256" fill="none" xmlns="http://www.w3.org/2000/svg">
<g clip-path="url(#clip0_2298_2)">
<path d="M128 250C195.379 250 250 195.379 250 128C250 60.6213 195.379 6 128 6C60.6213 6 6 60.6213 6 128C6 195.379 60.6213 250 128 250Z" fill="white"/>
<path d="M191.588 106.025C195.122 106.025 197.988 103.16 197.988 99.6251C197.988 96.0904 195.122 93.2251 191.588 93.2251C188.053 93.2251 185.188 96.0904 185.188 99.6251C185.188 103.16 188.053 106.025 191.588 106.025Z" fill="#0E1766"/>
<path d="M128 0C57.344 0 0 57.344 0 128C0 198.656 57.344 256 128 256C198.656 256 256 198.656 256 128C256 57.344 198.656 0 128 0ZM186.112 181.504C171.008 198.144 149.504 207.744 127.232 207.744H127.104C104.448 207.744 82.816 198.016 67.712 181.12C52.352 163.968 45.312 141.952 47.744 119.04C51.712 82.432 81.152 52.864 117.76 48.64C120.832 48.256 124.032 48.128 127.104 48.128C144.768 48.128 161.664 53.888 175.744 64.768C176.64 65.408 177.152 66.432 177.152 67.584C177.152 68.736 176.768 69.76 175.872 70.528L167.424 78.08C166.528 78.848 165.376 79.36 164.096 79.36C163.072 79.36 162.048 79.104 161.28 78.464C151.168 71.424 139.264 67.712 127.104 67.712C109.952 67.712 93.568 75.136 82.176 87.936C70.656 100.864 65.28 117.632 67.328 134.912C70.4 162.432 92.672 184.704 120.32 187.776C122.624 188.032 124.928 188.16 127.232 188.16C143.36 188.16 158.464 181.76 169.984 170.24C170.88 169.344 172.16 168.704 173.568 168.704C174.464 168.704 175.488 168.96 176.256 169.472L185.6 175.616C186.496 176.256 187.136 177.152 187.264 178.304C187.264 179.584 186.88 180.736 186.112 181.504ZM192 119.296C181.376 119.296 172.672 110.592 172.672 99.968C172.672 89.344 181.376 80.64 192 80.64C202.624 80.64 211.328 89.344 211.328 99.968C211.328 110.592 202.624 119.296 192 119.296Z" fill="#0E1766"/>
</g>
<defs>
<clipPath id="clip0_2298_2">
<rect width="256" height="256" fill="white"/>
</clipPath>
</defs>
</svg>
