<svg width="256" height="256" viewBox="0 0 256 256" fill="none" xmlns="http://www.w3.org/2000/svg">
<g clip-path="url(#clip0_1343_466)">
<path d="M240.314 189.339C206.449 251.371 128.693 274.197 66.6612 240.333C4.64774 206.487 -18.1974 128.731 15.6674 66.6988C49.5321 4.6478 127.288 -18.1973 189.32 15.6674C251.371 49.5321 274.179 127.288 240.314 189.339Z" fill="#2A2A2A"/>
<path d="M236.219 128.208L188.038 119.352L182.525 128.837L168.956 152.181L133.724 212.796C132.182 215.45 128.113 214.358 128.113 211.29V160.348V154.818C128.113 151.947 126.076 149.477 123.251 148.926L68.3608 138.212L19.2246 129.286C19.2992 131.822 19.9021 134.345 21.05 136.681L61.6034 206.608C67.2614 216.365 77.7078 222.366 89.005 222.352L166.776 222.249C178.067 222.234 188.493 216.211 194.127 206.448L233.815 137.676C235.508 134.751 236.303 131.471 236.219 128.208Z" fill="url(#paint0_linear_1343_466)"/>
<path d="M73.8961 128.73L87.486 105.076L122.508 44.1198C124.048 41.4382 128.12 42.539 128.12 45.6373V102.607C128.12 105.509 130.163 108.003 132.991 108.556L188.045 119.314L236.225 128.254C236.163 125.835 235.622 123.429 234.602 121.179C234.362 120.649 234.105 120.126 233.812 119.616L194.074 50.2731C188.428 40.4211 177.992 34.3516 166.697 34.3516H88.6612C77.3484 34.3516 66.898 40.4402 61.2587 50.3171L21.6335 119.717C21.5422 119.876 21.4631 120.04 21.377 120.202C19.8557 123.05 19.1408 126.203 19.2324 129.341L68.3682 138.352L73.8961 128.73Z" fill="url(#paint1_linear_1343_466)"/>
</g>
<defs>
<linearGradient id="paint0_linear_1343_466" x1="231.687" y1="170.297" x2="23.1268" y2="172.241" gradientUnits="userSpaceOnUse">
<stop stop-color="#3585A3"/>
<stop offset="1" stop-color="#00DEAE"/>
</linearGradient>
<linearGradient id="paint1_linear_1343_466" x1="29.7345" y1="87.6319" x2="215.013" y2="82.816" gradientUnits="userSpaceOnUse">
<stop stop-color="#3585A3"/>
<stop offset="1" stop-color="#00DEAE"/>
</linearGradient>
<clipPath id="clip0_1343_466">
<rect width="256" height="256" fill="white"/>
</clipPath>
</defs>
</svg>
