<svg width="256" height="256" viewBox="0 0 256 256" fill="none" xmlns="http://www.w3.org/2000/svg">
<g clip-path="url(#clip0_2064_1045)">
<path fill-rule="evenodd" clip-rule="evenodd" d="M128 0C198.697 0 256 57.3026 256 128C256 198.697 198.697 256 128 256C57.3026 256 0 198.697 0 128C0 57.3026 57.3026 0 128 0Z" fill="#141414"/>
<path d="M52.0186 58.0352L59.8346 55.5589C104.192 41.5051 151.809 41.5051 196.166 55.5589L203.982 58.0352V146.054C203.982 188.017 169.964 222.035 128 222.035C86.0367 222.035 52.0186 188.017 52.0186 146.054V58.0352Z" fill="url(#paint0_linear_2064_1045)"/>
<path d="M52.0186 58.0352L59.8346 55.5589C104.192 41.5051 151.809 41.5051 196.166 55.5589L203.982 58.0352V146.054C203.982 188.017 169.964 222.035 128 222.035C86.0367 222.035 52.0186 188.017 52.0186 146.054V58.0352Z" fill="#DAFB55"/>
<path d="M50.2006 52.2977L46 53.6286V58.035V146.053C46 191.341 82.7127 228.053 128 228.053C173.287 228.053 210 191.341 210 146.053V58.035V53.6286L205.799 52.2977L197.984 49.8214C152.444 35.3929 103.556 35.3929 58.0166 49.8214L50.2006 52.2977Z" stroke="black" stroke-opacity="0.4" stroke-width="16"/>
<path d="M95.6514 103.173V140.035C95.6514 157.901 110.135 172.384 128 172.384C145.865 172.384 160.349 157.901 160.349 140.035V103.173" stroke="#080808" stroke-width="34" stroke-linecap="square"/>
</g>
<defs>
<linearGradient id="paint0_linear_2064_1045" x1="128" y1="251.375" x2="128" y2="170.127" gradientUnits="userSpaceOnUse">
<stop offset="0.0216217" stop-color="#00FFC2"/>
<stop offset="0.935135" stop-color="#DAFB55"/>
</linearGradient>
<clipPath id="clip0_2064_1045">
<rect width="256" height="256" fill="white"/>
</clipPath>
</defs>
</svg>
