<svg width="256" height="256" viewBox="0 0 256 256" fill="none" xmlns="http://www.w3.org/2000/svg">
<g clip-path="url(#clip0_2066_1060)">
<path fill-rule="evenodd" clip-rule="evenodd" d="M128 0C198.697 0 256 57.3026 256 128C256 198.697 198.697 256 128 256C57.3026 256 0 198.697 0 128C0 57.3026 57.3026 0 128 0Z" fill="black"/>
<path fill-rule="evenodd" clip-rule="evenodd" d="M44.8705 118.075L81.284 81.6619L127.622 128L174.338 81.284L211.13 118.075C216.611 123.557 216.611 132.443 211.13 137.925L174.399 174.655L127.745 128L81.3455 174.399L44.8705 137.925C39.3893 132.443 39.3893 123.557 44.8705 118.075ZM109.053 35.8481C119.517 25.384 136.483 25.384 146.947 35.8481L220.152 109.053C230.616 119.517 230.616 136.483 220.152 146.947L146.947 220.152C136.483 230.616 119.517 230.616 109.053 220.152L35.8481 146.947C25.384 136.483 25.384 119.517 35.8481 109.053L109.053 35.8481Z" fill="white"/>
</g>
<defs>
<clipPath id="clip0_2066_1060">
<rect width="256" height="256" fill="white"/>
</clipPath>
</defs>
</svg>
