<svg width="256" height="256" viewBox="0 0 256 256" fill="none" xmlns="http://www.w3.org/2000/svg">
<g clip-path="url(#clip0_2501_509)">
<mask id="mask0_2501_509" style="mask-type:luminance" maskUnits="userSpaceOnUse" x="0" y="0" width="256" height="256">
<path d="M256 0H0V256H256V0Z" fill="white"/>
</mask>
<g mask="url(#mask0_2501_509)">
<path fill-rule="evenodd" clip-rule="evenodd" d="M128 -0.0612793C198.734 -0.0612793 256.061 57.2653 256.061 128C256.061 198.734 198.734 256.061 128 256.061C57.2651 256.061 -0.0615234 198.734 -0.0615234 128C-0.0615234 57.2653 57.2651 -0.0612793 128 -0.0612793Z" fill="black"/>
</g>
<path d="M180.514 70.2519C177.181 61.8691 170.67 54.7593 161.724 50.8939C143.878 43.1786 123.149 51.4217 115.443 69.305L76.9003 158.752C73.0399 167.709 73.1636 177.365 76.4974 185.748C79.8305 194.131 86.342 201.241 95.2725 205.106C113.133 212.821 133.863 204.578 141.568 186.695L180.111 97.2476C183.956 88.306 183.833 78.6502 180.514 70.2519ZM155.894 129.94L108.312 109.387L123.754 73.5585C128.901 61.6052 143.429 54.5419 155.801 58.5936C170.468 63.406 177.553 79.6903 171.584 93.5685L155.91 129.956L155.894 129.94Z" fill="#B0E8FE"/>
</g>
<defs>
<clipPath id="clip0_2501_509">
<rect width="256" height="256" fill="white"/>
</clipPath>
</defs>
</svg>
