<svg width="256" height="256" viewBox="0 0 256 256" fill="none" xmlns="http://www.w3.org/2000/svg">
<g clip-path="url(#clip0_1994_1218)">
<path d="M256 128C256 57.3075 198.692 0 128 0C57.3075 0 0 57.3075 0 128C0 198.692 57.3075 256 128 256C198.692 256 256 198.692 256 128Z" fill="#05A9FD"/>
<path d="M190.371 64.0656C190.765 64.698 191.158 65.3305 191.63 66.681C192.029 67.7043 192.35 68.0095 192.672 68.3147C192.833 68.4158 192.995 68.5169 193.345 68.9334C193.534 69.2488 193.824 69.4017 193.824 69.4017C193.824 69.4017 194.261 69.5848 194.464 70.1535C195.467 71.1881 196.267 71.654 197.066 72.1198C197.472 72.2938 197.878 72.4677 198.464 73.1862C199.573 74.2843 200.504 74.8377 201.434 75.3912C201.647 75.4992 201.861 75.6072 202.301 76.0039C202.527 76.2926 202.558 76.3315 202.558 76.3315C203.415 77.0422 204.273 77.753 205.42 79.0589C206.083 79.8599 206.457 80.0657 206.83 80.2715C206.83 80.2715 207.165 80.34 207.243 80.8308C207.363 81.9936 207.405 82.6655 207.357 83.427C207.267 83.5165 207.085 83.6953 206.786 83.5523C203.496 80.885 200.506 78.3606 197.515 75.8362C197.114 76.2953 196.713 76.7544 196.312 77.2135C199.601 80.7549 202.891 84.2963 206.208 88.1907C208.628 93.1412 211.019 97.7388 213.524 102.63C214.218 103.759 214.798 104.593 215.385 105.731C215.747 106.438 216.102 106.842 216.535 107.652C216.966 112.877 217.319 117.697 217.348 122.621C216.975 123.335 216.927 123.944 216.893 124.895C216.896 125.692 216.885 126.148 216.51 126.663C215.955 127.624 215.765 128.525 215.365 129.765C214.544 129.033 213.369 127.923 213.438 126.896C213.578 124.809 214.582 122.795 214.889 120.702C215.67 115.367 216.18 110.025 210.484 104.854C209.191 111.382 208.098 116.901 206.729 122.495C206.089 123.185 205.724 123.8 205.003 124.42C202.647 125.824 200.648 127.223 198.347 128.383C197.757 127.441 197.47 126.738 197.365 125.768C199.871 122.951 202.194 120.401 204.517 117.851C204.277 117.706 204.037 117.561 203.798 117.416C197.255 120.119 190.713 122.823 183.785 125.539C179.721 125.398 176.042 125.243 172.362 124.754C172.357 123.75 172.353 123.08 172.805 122.36C183.57 123.291 192.665 119.991 200.869 114.093C205.195 110.984 208.654 106.896 207.787 101.105C206.87 94.9849 202.975 90.5988 197.131 89.0717C191.913 87.7078 186.344 87.2215 180.924 87.1885C171.074 87.1285 162.764 92.0836 154.123 96.2826C153.729 95.4918 153.545 94.8495 153.664 93.9836C162.576 88.142 171.903 84.4785 182.626 83.4875C187.755 84.0169 192.435 84.4523 198.179 84.9866C192.553 80.1697 187.033 78.6483 180.54 78.6433C172.238 79.9561 164.344 81.3688 155.665 82.9219C161.528 76.187 170.118 77.0085 176.668 72.9248C170.372 73.5681 164.076 74.2114 157.781 74.8547C159.485 73.0568 161.477 71.3361 163.69 70.9763C169.232 70.0753 174.875 69.7908 180.842 69.3774C184.058 70.13 186.909 70.7643 189.76 71.3986C190.133 70.9993 190.505 70.6 190.878 70.2008C186.788 65.598 182.636 61.0486 178.646 56.3611C177.393 54.8899 176.577 53.0476 175.561 51.3751C176.001 50.8598 176.441 50.3445 176.881 49.8292C172.454 48.0548 168.083 46.1163 163.581 44.5607C160.279 43.4199 158.991 42.0264 161.554 38.9262C161.988 38.4004 162.009 37.5328 162.224 36.8152C157.653 36.137 153.415 35.2566 149.138 34.9732C146.777 34.8168 144.294 35.4639 141.969 36.1164C140.028 36.6609 138.239 37.7406 136.382 38.5833C136.329 36.5682 136.294 34.5523 136.196 32.5394C136.186 32.3359 135.794 32.1511 134.537 31.0174C132.552 34.2939 130.69 37.3692 128.692 40.6425C128.146 41.5233 127.734 42.2061 127.007 42.8706C126.296 42.992 125.902 43.1317 125.495 43.2844C125.481 43.2974 125.445 43.2877 125.233 43.01C123.122 41.216 121.223 39.6995 119.241 38.1289C119.158 38.0748 119.002 38.1967 118.795 37.9555C118.179 37.6367 117.771 37.559 117.214 37.3689C117.065 37.2565 116.695 37.2986 116.355 37.0568C111.081 36.511 106.146 36.2071 101.212 35.9032C101.124 36.4776 101.035 37.0519 100.946 37.6263C102.415 38.2116 103.884 38.797 105.449 39.5025C105.545 39.6227 105.852 39.6215 106.047 39.913C106.574 41.2573 106.906 42.3099 107.025 43.4373C106.524 43.6503 106.327 43.8695 105.77 44.1452C101.466 44.5055 97.6104 44.89 93.704 45.1639C93.653 45.0532 93.416 45.1099 93.0053 45.0764C91.3085 45.4426 90.0224 45.8422 88.5005 46.1479C87.9555 46.1761 87.6462 46.2983 87.0829 46.3992C86.6805 46.4611 86.5322 46.5443 86.0972 46.6065C85.3077 46.8294 84.8049 47.0733 83.9378 47.3209C81.6237 48.2879 79.6738 49.2511 77.6057 50.1651C77.4875 50.1159 77.3236 50.3127 77.0183 50.3409C76.9041 51.088 77.0952 51.8069 77.3593 52.7721C77.5357 53.1549 77.639 53.2914 77.6349 53.7414C77.4221 54.4825 77.3168 54.9103 77.2471 55.3552C77.2827 55.3723 77.3011 55.2953 76.9879 55.3674C76.3605 55.7185 76.0463 55.9974 75.4793 56.242C74.9462 56.3873 74.6659 56.5671 74.16 56.7529C73.6422 56.881 73.4295 57.0858 73.0437 57.4312C72.5837 57.7515 72.3763 58.0137 71.8919 58.3458C71.1655 58.7498 70.716 59.0838 69.9152 59.4099C65.1218 62.6047 60.6798 65.8075 55.1471 69.7967C58.3684 70.4784 59.8261 70.7869 61.8733 71.2202C60.6479 73.1687 59.7474 74.6005 58.8469 76.0323C59.0374 76.3813 59.2279 76.7303 59.4184 77.0793C62.7457 75.2947 66.0731 73.5101 69.7806 71.6979C71.2685 71.8959 72.3763 72.1216 74.7545 72.6059C72.5721 74.1982 71.5896 74.9895 70.5363 75.6713C64.5322 79.5579 58.0821 82.8967 52.5967 87.41C44.3761 94.1737 36.9044 101.815 32.7905 112.439C31.9734 114.637 31.297 116.515 30.7914 118.438C25.6003 138.178 31.7869 160.418 54.2038 167.93C53.7838 168.718 53.5198 169.253 52.877 169.785C51.7949 169.516 51.0918 169.251 50.2722 168.689C49.3914 168.138 48.6271 167.882 47.6228 167.617C47.0026 167.335 46.6224 167.063 46.0943 166.485C45.5405 165.994 45.1347 165.811 44.4211 165.654C42.8746 164.694 41.6356 163.707 40.2566 162.444C39.5829 161.903 39.0493 161.638 38.2288 161.237C36.6948 159.735 35.4476 158.368 34.1221 156.674C33.7038 156.078 33.3639 155.809 32.7803 155.385C31.936 154.485 31.3354 153.741 30.7348 152.997C30.2364 151.862 29.738 150.727 29.2463 148.887C28.506 146.254 27.759 144.326 27.0119 142.397C26.852 141.962 26.6921 141.526 26.7754 140.466C26.7176 138.028 26.4166 136.214 26.1156 134.401C26.0113 131.647 25.907 128.892 26.1424 125.497C26.4894 123.731 26.4965 122.606 26.5037 121.48C26.5591 120.705 26.6145 119.93 27.0743 118.733C27.5058 117.705 27.5329 117.098 27.56 116.491C27.6185 116.017 27.677 115.544 28.1949 114.599C28.7764 113.329 28.8984 112.532 29.0204 111.735C29.1794 111.048 29.3384 110.362 30.0109 109.378C30.8213 108.073 31.1183 107.064 31.4152 106.055C37.2974 98.0883 43.19 90.1289 49.053 82.1478C50.2214 80.5573 51.2769 78.8837 52.7006 76.7816C46.993 74.856 49.1015 71.7788 51.6288 69.3554C56.6457 64.5446 62.0007 60.0862 66.7577 55.1159C68.4281 53.0281 69.6799 50.1056 71.8512 49.0167C77.3059 46.2812 83.1583 44.3268 88.8904 42.163C90.713 41.4749 92.6589 41.1137 93.9411 40.767C93.4722 38.8396 93.0819 37.2356 93.2849 35.528C94.7164 35.0201 95.5546 34.6158 96.3929 34.2114C96.8213 34.0046 97.2498 33.7978 98.1835 33.7724C99.2577 33.6936 99.8266 33.4335 100.396 33.1733C100.842 33.0055 101.288 32.8377 102.42 32.9165C106.497 32.9951 109.89 32.8271 113.282 32.6591C113.77 32.6472 114.258 32.6353 115.277 32.9085C115.808 33.1936 116.271 33.3153 116.271 33.3153L116.747 33.2719C117.412 33.3604 118.077 33.449 119.138 34.0184C121.821 34.9764 124.107 35.4535 126.393 35.9307C126.393 35.9307 126.577 35.5186 127.112 35.3241C128.198 34.1928 128.748 33.2559 129.298 32.3191C129.344 31.9676 129.523 31.7081 130.374 31.4539C131.399 30.803 131.886 30.2388 132.373 29.6746C133.251 29.1293 134.129 28.5839 135.735 28.1484C137.418 29.3063 138.306 30.4302 139.359 31.3698C139.871 31.8265 140.69 31.9388 141.37 32.207C141.807 32.0006 142.243 31.7943 143.313 31.821C145.727 31.9165 147.508 31.7789 149.289 31.6413C150.382 31.7477 151.476 31.8541 153.035 32.3397C154.093 32.7101 154.684 32.7013 155.276 32.6925C155.748 32.749 156.221 32.8054 157.192 33.3191C160.744 34.0116 163.797 34.247 166.849 34.4824C166.931 34.9186 167.013 35.3548 166.674 36.1811C165.906 37.3732 165.559 38.1751 165.211 38.977C165.109 39.2553 165.006 39.5335 164.415 40.3043C166.505 41.9624 169.081 43.1279 171.658 44.2935C171.658 44.2935 172.08 44.3297 172.35 44.6661C173.023 45.1673 173.426 45.3321 173.83 45.4969C173.83 45.4969 174.25 45.6327 174.519 46.1389C175.217 46.8059 175.647 46.9667 176.076 47.1275C176.076 47.1275 176.217 47.0777 176.399 47.4414C177.703 48.3673 178.825 48.9297 179.947 49.492C180.954 50.516 181.961 51.54 182.596 53.0889C181.593 58.1811 185 59.7124 188.122 61.4575C188.779 62.1736 189.437 62.8896 190.279 63.8891C190.464 64.1724 190.371 64.0656 190.371 64.0656Z" fill="#1C1517"/>
<path d="M40.3967 162.72C41.6356 163.707 42.8745 164.694 44.5914 165.941C45.4602 166.398 45.8512 166.595 46.2421 166.791C46.6223 167.063 47.0025 167.335 47.8062 167.859C48.9492 168.402 49.6689 168.694 50.3886 168.985C51.0917 169.251 51.7949 169.516 52.9835 169.834C53.469 169.886 53.6905 169.809 53.8995 170.139C56.1323 170.337 58.1561 170.205 60.5436 170.165C62.948 172.975 64.96 175.714 67.0352 178.403C72.0887 184.954 77.0244 191.605 82.3137 197.96C84.4771 200.56 86.6948 200.484 87.0155 196.314C87.0736 195.559 87.2847 194.816 87.3277 194.586C93.8261 199.45 100.211 204.381 106.769 209.072C109.939 211.34 113.261 212.574 113.914 206.691C123.052 212.041 131.715 217.285 140.587 222.149C142.15 223.006 144.586 222.27 146.618 222.27C146.682 221.785 146.745 221.3 146.809 220.815C149.378 221.509 151.943 222.217 154.517 222.893C161.865 224.824 161.957 224.74 161.068 217.455C161.04 217.229 161.394 216.956 161.816 216.354C167.591 220.212 170.677 214.588 172.941 213.332C184.758 214.54 187.759 204.048 194.946 201.352C195.371 202.768 195.766 204.084 196.622 206.931C199.088 203.047 200.814 200.329 202.818 197.422C204.279 194.893 205.462 192.552 206.89 189.967C207.25 189.522 207.365 189.322 207.853 189.144C209.354 188.979 210.481 188.791 211.842 188.338C213.484 182.186 214.893 176.299 216.522 170.303C217.03 170.018 217.251 169.781 217.381 169.457C217.357 169.432 217.384 169.495 217.632 169.49C217.88 169.486 218.291 169.207 218.631 169.099C219.823 165.892 220.551 162.751 221.562 159.705C222.45 157.032 223.655 154.465 224.721 151.851C227.185 156.926 225.376 168.823 221.923 172.812C220.61 174.329 220.031 176.562 219.38 178.555C217.94 182.96 216.703 187.431 215.295 191.847C215.003 192.763 214.539 193.967 213.8 194.345C207.221 197.712 205.113 204.914 200.328 209.792C198.032 212.132 196.008 215.238 191.966 212.29C191.46 211.92 189.795 213.028 188.723 213.564C184.846 215.503 180.938 217.392 177.169 219.526C176.162 220.096 174.799 221.682 174.995 222.442C175.838 225.716 174.481 227.596 171.543 227.729C163.689 228.084 155.799 228.388 147.957 228.013C142.257 227.74 136.611 226.351 130.94 225.466C129.962 225.314 128.725 225.528 128.036 225.007C118.195 217.56 105.148 217.822 94.9035 211.088C91.6957 208.979 86.8987 209.409 82.9287 208.315C73.2838 205.658 65.8211 200.816 63.3183 190.081C61.6285 182.834 60.4488 182.471 52.737 182.324C42.5236 182.13 29.3877 170.054 28.6129 159.794C28.4656 157.844 29.7915 155.782 30.5862 153.384C31.3354 153.741 31.936 154.485 32.9009 155.683C33.577 156.425 33.8887 156.712 34.2004 157C35.4476 158.367 36.6947 159.735 38.3549 161.516C39.3108 162.194 39.8537 162.457 40.3967 162.72Z" fill="#077FC7"/>
<path d="M224.76 151.693C223.656 154.465 222.45 157.032 221.563 159.705C220.551 162.751 219.824 165.892 218.512 168.992C217.691 168.94 217.469 169.107 217.385 169.495C217.385 169.495 217.358 169.432 217.163 169.45C216.746 169.783 216.525 170.098 216.303 170.413C214.894 176.3 213.485 182.186 211.47 188.301C209.737 188.726 208.609 188.924 207.481 189.122C207.366 189.322 207.251 189.522 206.753 189.403C206.275 188.711 206.18 188.337 206.14 187.637C206.694 186.512 207.45 184.957 207.655 185.026C211.355 186.284 210.925 183.127 211.91 181.108C212.14 180.331 212.208 179.781 212.234 178.867C212.327 177.789 212.463 177.074 212.809 176.08C213.112 174.629 213.207 173.459 213.266 171.966C213.333 171.224 213.436 170.806 213.728 170.156C213.991 169.537 214.065 169.148 213.97 168.555C213.94 168.043 214.077 167.735 214.485 167.42C215.249 167.23 215.743 167.047 216.657 166.745C217.362 163.34 218.483 159.85 217.744 156.813C216.507 151.728 214.083 146.931 212.167 141.552C212.13 140.787 212.086 140.483 212.075 140.159C212.107 140.138 212.026 140.157 212.302 140.13C212.815 139.834 213.052 139.565 213.278 139.336C213.268 139.374 213.201 139.33 213.611 139.28C214.582 138.007 215.142 136.783 215.93 135.78C216.57 136.738 216.982 137.474 217.391 138.66C217.438 139.708 217.488 140.306 217.353 141.207C217.326 144.077 217.485 146.646 217.721 150.472C223.174 146.535 225.433 142.429 226.405 136.992C228.634 119.645 226.573 103.861 213.531 90.8582C213.094 89.9679 212.754 89.3944 212.89 88.7218C214.01 88.562 214.655 88.5012 215.299 88.4404C216.294 89.4354 217.288 90.4303 218.469 92.0081C218.97 92.8371 219.286 93.0833 219.602 93.3295C219.777 93.4452 219.952 93.5609 220.286 93.9251C220.444 94.1737 220.359 94.1109 220.359 94.1109C221.245 95.2334 222.132 96.356 223.233 97.8198C223.448 98.161 223.351 98.0672 223.351 98.0672C223.742 98.7164 224.133 99.3655 224.598 100.725C224.971 101.738 225.271 102.04 225.57 102.343C226.092 103.305 226.614 104.266 227.183 105.741C227.365 106.591 227.499 106.927 227.634 107.263C228.161 109.403 228.687 111.543 229.006 114.262C229.009 115.379 229.219 115.917 229.43 116.455C229.717 117.892 230.004 119.328 230.034 121.367C230.018 123.239 230.258 124.507 230.498 125.776C230.561 127.031 230.623 128.286 230.414 130.217C230.129 132.379 230.117 133.865 230.105 135.351C229.399 138.156 228.693 140.961 227.504 144.224C226.952 145.181 226.882 145.68 226.812 146.179C226.685 146.741 226.558 147.303 226.241 148.286C226.05 148.706 226.069 149.116 226.069 149.116C226.069 149.116 226.014 149.178 225.763 149.391C225.352 150.171 225.191 150.738 225.031 151.306C225.031 151.306 224.798 151.534 224.76 151.693Z" fill="#161218"/>
<path d="M112.932 32.4949C109.89 32.827 106.497 32.9949 102.781 32.9473C105.832 32.598 109.207 32.4645 112.932 32.4949Z" fill="#191F2D"/>
<path d="M166.83 34.11C163.797 34.2472 160.745 34.0118 157.503 33.5037C160.48 33.3997 163.645 33.5686 166.83 34.11Z" fill="#191F2D"/>
<path d="M188.022 61.1472C185 59.7125 181.593 58.1812 182.53 53.4565C184.53 55.8118 186.226 58.3243 188.022 61.1472Z" fill="#191F2D"/>
<path d="M141.138 31.9679C140.691 31.939 139.871 31.8267 139.36 31.37C138.307 30.4304 137.418 29.3065 136.05 28.1449C140.39 24.9933 140.172 29.0389 141.138 31.9679Z" fill="#191F2D"/>
<path d="M211.459 84.1206C211.635 84.3163 211.811 84.512 212.171 85.4793C212.36 87.1032 212.365 87.9556 212.024 88.8341C210.356 87.6443 209.034 86.4283 207.613 84.9569C207.371 84.3661 207.229 84.0306 207.086 83.6952C207.086 83.6952 207.267 83.5164 207.668 83.4512C208.903 83.4601 209.737 83.5342 210.571 83.6084C210.752 83.6937 210.933 83.7791 211.309 84.054C211.503 84.2435 211.459 84.1206 211.459 84.1206Z" fill="#1C1517"/>
<path d="M171.449 44.0117C169.082 43.1281 166.505 41.9625 164.148 40.6602C166.659 41.5922 168.949 42.661 171.449 44.0117Z" fill="#191F2D"/>
<path d="M126.016 35.8833C124.107 35.4536 121.821 34.9765 119.425 34.2012C121.422 34.5473 123.531 35.1915 126.016 35.8833Z" fill="#191F2D"/>
<path d="M148.999 31.472C147.509 31.7788 145.728 31.9164 143.679 31.8308C145.176 31.506 146.942 31.4044 148.999 31.472Z" fill="#191F2D"/>
<path d="M26.9658 142.753C27.7591 144.326 28.5062 146.254 29.2047 148.58C28.4107 147.021 27.6651 145.065 26.9658 142.753Z" fill="#141C28"/>
<path d="M26.0225 134.769C26.417 136.214 26.718 138.028 26.8135 140.114C26.3817 138.637 26.1553 136.887 26.0225 134.769Z" fill="#141C28"/>
<path d="M210.51 83.3325C209.737 83.5345 208.903 83.4604 207.759 83.362C207.406 82.6658 207.363 81.9938 207.32 80.9839C208.363 81.4494 209.407 82.2529 210.51 83.3325Z" fill="#191F2D"/>
<path d="M230.276 135.075C230.117 133.865 230.129 132.379 230.304 130.582C230.46 131.779 230.453 133.289 230.276 135.075Z" fill="#191F2D"/>
<path d="M26.3464 121.765C26.4972 122.606 26.49 123.731 26.3014 125.058C26.1427 124.19 26.1656 123.12 26.3464 121.765Z" fill="#141C28"/>
<path d="M212.37 88.8078C212.365 87.9554 212.36 87.1031 212.363 85.8247C213.295 86.2094 214.218 87.0201 215.22 88.1356C214.654 88.5012 214.01 88.562 212.898 88.6795C212.43 88.7363 212.37 88.8078 212.37 88.8078Z" fill="#191F2D"/>
<path d="M230.626 125.478C230.258 124.507 230.018 123.239 229.98 121.732C230.374 122.723 230.564 123.952 230.626 125.478Z" fill="#191F2D"/>
<path d="M179.794 49.2226C178.825 48.9294 177.703 48.3671 176.456 47.4897C177.435 47.7676 178.538 48.3606 179.794 49.2226Z" fill="#191F2D"/>
<path d="M165.458 38.8595C165.559 38.1751 165.906 37.3732 166.511 36.4805C166.414 37.1737 166.059 37.9579 165.458 38.8595Z" fill="#191F2D"/>
<path d="M201.312 75.0898C200.504 74.8378 199.573 74.2844 198.562 73.3926C199.385 73.6323 200.287 74.2103 201.312 75.0898Z" fill="#191F2D"/>
<path d="M96.0989 34.1494C95.555 34.6155 94.7167 35.0198 93.5713 35.4075C94.1109 34.9564 94.9578 34.522 96.0989 34.1494Z" fill="#191F2D"/>
<path d="M128.996 32.4453C128.748 33.2557 128.198 34.1926 127.309 35.2132C127.544 34.3886 128.119 33.4801 128.996 32.4453Z" fill="#191F2D"/>
<path d="M132.086 29.7095C131.886 30.239 131.399 30.8032 130.609 31.3887C130.804 30.8547 131.302 30.2994 132.086 29.7095Z" fill="#191F2D"/>
<path d="M155.076 32.5104C154.685 32.7016 154.093 32.7104 153.408 32.5239C153.835 32.3284 154.355 32.3283 155.076 32.5104Z" fill="#191F2D"/>
<path d="M27.3787 116.694C27.5336 117.098 27.5065 117.705 27.264 118.39C27.098 117.945 27.1474 117.421 27.3787 116.694Z" fill="#141C28"/>
<path d="M100.137 33.0845C99.827 33.4335 99.258 33.6937 98.5459 33.7774C98.8943 33.3992 99.3858 33.1974 100.137 33.0845Z" fill="#191F2D"/>
<path d="M229.545 116.271C229.218 115.917 229.008 115.379 228.98 114.67C229.33 115.028 229.496 115.557 229.545 116.271Z" fill="#191F2D"/>
<path d="M31.1765 106.24C31.1184 107.064 30.8214 108.073 30.2168 109.2C30.252 108.354 30.5948 107.39 31.1765 106.24Z" fill="#141C28"/>
<path d="M196.89 71.8267C196.267 71.6539 195.467 71.188 194.583 70.3584C195.236 70.5077 195.975 71.0207 196.89 71.8267Z" fill="#191F2D"/>
<path d="M28.7957 111.939C28.8988 112.532 28.7768 113.329 28.3885 114.294C28.2716 113.69 28.4211 112.917 28.7957 111.939Z" fill="#141C28"/>
<path d="M227.015 146.02C226.882 145.68 226.952 145.182 227.246 144.537C227.386 144.881 227.303 145.371 227.015 146.02Z" fill="#191F2D"/>
<path d="M225.329 151.175C225.191 150.738 225.351 150.171 225.758 149.433C225.879 149.856 225.753 150.451 225.329 151.175Z" fill="#077FC7"/>
<path d="M173.741 45.2794C173.427 45.3322 173.024 45.1675 172.503 44.8126C172.807 44.769 173.23 44.9154 173.741 45.2794Z" fill="#191F2D"/>
<path d="M227.719 107.075C227.499 106.927 227.365 106.591 227.22 106.072C227.408 106.222 227.606 106.555 227.719 107.075Z" fill="#191F2D"/>
<path d="M116.571 33.0904C116.748 33.2717 116.271 33.3152 116.271 33.3152C116.271 33.3152 115.808 33.1935 115.618 33.0498C115.75 32.9071 116.072 32.9081 116.571 33.0904Z" fill="#191F2D"/>
<path d="M211.471 84.1663C211.458 84.1207 211.503 84.2436 211.512 84.2755C211.521 84.3074 211.483 84.2119 211.471 84.1663Z" fill="#191F2D"/>
<path d="M206.698 79.9782C206.457 80.0656 206.084 79.8598 205.597 79.3451C205.844 79.2525 206.204 79.4688 206.698 79.9782Z" fill="#191F2D"/>
<path d="M202.651 76.274C202.558 76.3315 202.528 76.2925 202.516 76.2909C202.505 76.2893 202.744 76.2166 202.651 76.274Z" fill="#191F2D"/>
<path d="M193.846 69.2758C193.824 69.4016 193.535 69.2486 193.487 69.1817C193.439 69.1148 193.665 68.9961 193.665 68.9961C193.665 68.9961 193.868 69.1501 193.846 69.2758Z" fill="#191F2D"/>
<path d="M192.606 67.9873C192.351 68.0097 192.029 67.7045 191.676 67.0535C191.942 67.025 192.24 67.3424 192.606 67.9873Z" fill="#191F2D"/>
<path d="M190.397 64.1379C190.372 64.0655 190.464 64.1723 190.461 64.2075C190.458 64.2428 190.422 64.2104 190.397 64.1379Z" fill="#191F2D"/>
<path d="M225.517 102.025C225.27 102.041 224.971 101.738 224.637 101.105C224.889 101.085 225.177 101.395 225.517 102.025Z" fill="#191F2D"/>
<path d="M226.245 149.152C226.069 149.116 226.05 148.706 226.205 148.573C226.476 148.62 226.6 148.796 226.693 148.988C226.702 149.006 226.516 149.119 226.245 149.152Z" fill="#077FC7"/>
<path d="M175.892 46.841C175.647 46.9666 175.218 46.8058 174.636 46.3263C174.891 46.1899 175.3 46.3723 175.892 46.841Z" fill="#191F2D"/>
<path d="M223.389 98.1403C223.35 98.0675 223.447 98.1612 223.442 98.1949C223.437 98.2286 223.429 98.2132 223.389 98.1403Z" fill="#191F2D"/>
<path d="M220.411 94.1738C220.358 94.1113 220.443 94.1741 220.437 94.2008C220.431 94.2275 220.464 94.2363 220.411 94.1738Z" fill="#191F2D"/>
<path d="M219.519 93.0366C219.286 93.0834 218.97 92.8372 218.585 92.2889C218.823 92.239 219.13 92.4913 219.519 93.0366Z" fill="#191F2D"/>
<path d="M84.3022 47.3173C84.805 47.0734 85.3079 46.8294 86.2117 46.7283C86.8542 46.7209 87.0957 46.5707 87.3372 46.4205C87.6464 46.2983 87.9557 46.1762 88.9363 46.1987C90.8772 45.9323 92.1467 45.5211 93.4162 45.1099C93.4162 45.1099 93.6532 45.0533 94.2105 45.2055C98.6288 45.3832 102.49 45.4086 106.632 45.5842C107.394 46.6303 107.875 47.5262 108.352 48.6476C108.347 48.8732 108.348 49.3245 108.019 49.4511C106.547 49.7565 105.403 49.9354 104.075 49.9626C103.372 50.034 102.853 50.2569 102.204 50.558C102.075 50.6361 101.778 50.576 101.426 50.5606C100.495 50.8711 99.9169 51.197 99.105 51.6918C98.1481 52.0866 97.4247 52.3124 96.4314 52.5992C95.8992 52.9077 95.6371 53.1553 95.2561 53.4908C95.1373 53.5787 94.8423 53.5586 94.5068 53.6257C92.4126 54.7741 91.7365 55.7451 94.4164 56.3952C94.3888 56.4189 94.3757 56.3473 94.6103 56.6259C95.7993 57.0345 96.7537 57.1644 97.9607 57.2799C98.6478 57.5009 99.0824 57.7363 99.478 58.4109C99.4527 59.4367 99.4662 60.0233 99.4492 60.5815C99.4187 60.553 99.4848 60.5021 99.245 60.5958C98.7918 60.9514 98.5783 61.2132 98.3594 61.4528C98.3539 61.4307 98.3905 61.458 98.0654 61.4943C97.3048 61.9663 96.8693 62.4021 96.3297 63.1427C94.2906 66.1156 92.3555 68.7837 90.1719 71.6396C89.7742 72.2116 89.6249 72.5959 89.512 73.2442C89.4116 73.833 89.2749 74.1578 88.9556 74.6342C88.5608 75.0386 88.4397 75.3294 88.3755 75.992C88.3111 77.725 88.2808 79.124 88.1444 80.7919C87.4884 81.6082 86.9384 82.1556 86.1143 82.8692C81.5103 86.8552 76.9002 90.4821 75.4354 96.276C75.9582 96.6873 76.481 97.0985 77.0038 97.5098C80.5482 93.2096 84.0927 88.9094 87.9782 84.6007C89.6679 83.9867 91.0166 83.3812 92.3124 83.115C90.9637 88.4883 89.668 93.5223 88.2456 98.8513C86.9853 100.426 85.8516 101.705 84.5907 103.016C84.4636 103.047 84.314 103.261 84.0535 103.302C83.6498 103.444 83.5066 103.546 83.03 103.657C82.2707 103.785 81.8447 103.904 81.1279 103.935C80.1374 104.199 79.4378 104.552 78.5905 104.924C78.4428 104.943 78.2647 105.182 78.0004 105.227C77.5075 105.532 77.2789 105.793 77.0262 106.069C77.0022 106.084 76.9491 106.105 76.7158 106.186C76.1871 106.471 76.0362 106.753 76.0108 107.143C75.9916 107.174 75.9827 107.247 75.7369 107.498C76.3342 109.113 77.1773 110.477 78.0585 111.852C78.0967 111.862 78.1735 111.844 78.4677 112.089C80.5594 112.536 82.3568 112.739 84.3266 113.107C84.9445 113.427 85.39 113.584 86.0089 113.977C86.544 114.343 86.9056 114.472 87.502 114.81C88.7232 115.356 89.7096 115.693 90.8874 116.248C91.4424 116.584 91.806 116.702 92.4129 117.03C94.0596 117.741 95.4631 118.243 97.1294 118.999C99.0099 119.718 100.627 120.183 102.524 120.824C103.66 121.165 104.518 121.33 105.57 121.61C105.765 121.725 106.215 121.679 106.462 121.825C107.269 122.044 107.83 122.116 108.697 122.336C109.449 122.495 109.896 122.508 110.552 122.641C111.101 122.836 111.341 123.033 111.579 123.672C113.614 126.15 115.551 128.307 117.536 130.517C115.301 131.929 113.496 133.069 111.263 134.274C107.741 134.014 104.648 133.688 101.353 133.2C100.888 132.815 100.625 132.592 100.211 132.114C99.4976 131.712 98.9356 131.563 98.1158 131.192C93.7857 129.021 89.7134 127.072 85.6412 125.124C85.3333 125.675 85.0254 126.226 84.7175 126.777C87.9632 130.328 92.1739 132.446 96.9686 133.791C97.0195 133.809 97.1038 133.742 97.2984 133.984C98.0693 134.459 98.6456 134.692 99.4993 135.163C104.527 136.32 109.277 137.238 114.314 138.403C117.317 139.737 120.032 140.823 122.998 142.01C121.645 143.804 120.219 145.25 119.316 146.971C116.088 153.122 108.938 158.554 115.361 166.664C115.434 166.755 115.332 166.985 115.132 167.392C110.534 171.069 105.235 173.581 102.338 178.609C102.67 179.058 103.002 179.508 103.334 179.958C106.551 177.949 109.768 175.94 113.344 174.108C116.338 174.433 118.975 174.58 121.454 175.024C108.999 186.053 108.235 187.029 109.697 190.063C111.863 188.409 114.038 186.749 116.479 185.191C116.928 185.346 117.111 185.398 117.303 185.78C117.281 186.548 117.25 186.986 117.037 187.569C116.617 187.931 116.46 188.195 116.296 188.737C116.209 188.967 116.043 189.429 115.877 189.613C115.531 190.095 115.476 190.416 115.539 191.091C115.389 192.074 115.248 192.723 114.818 193.457C114.67 194.549 114.812 195.558 115.037 196.647C115.121 196.728 115.198 196.947 115.346 197.225C116.705 197.841 117.915 198.179 119.241 198.76C119.425 199.353 119.494 199.703 119.589 200.337C119.862 200.895 120.11 201.169 120.438 201.584C120.518 201.725 120.55 202.048 120.605 202.339C120.959 202.864 121.259 203.099 121.822 203.612C122.365 204.851 122.644 205.812 122.496 206.724C120.139 205.709 118.161 204.828 116.293 203.756C113.189 201.973 110.577 201.336 109.948 207.444C100.843 199.635 92.6259 192.588 83.4846 184.749C83.2254 188.188 83.0536 190.467 82.7933 193.92C78.5829 188.281 74.4175 183.697 71.4407 178.439C68.3626 173.003 65.769 167.087 64.205 161.059C62.749 155.447 62.9267 149.411 62.3853 143.562C57.5642 148.101 59.3492 153.203 59.4976 158.443C56.7687 161.605 55.0626 158.819 53.9736 157.396C52.3367 155.257 49.8304 151.544 50.6135 150.194C53.4756 145.259 57.0569 140.475 61.3063 136.688C65.2142 133.205 67.9367 129.22 68.1116 124.44C68.5765 111.729 68.2695 98.9903 68.2695 85.0247C66.4511 86.7015 65.4425 87.6315 64.3155 88.8974C59.3376 96.1823 59.2616 104.274 59.6395 112.108C60.0074 119.735 57.4905 125.419 52.271 130.735C49.006 134.06 46.8332 138.458 43.8913 142.189C42.2158 139.073 40.5103 136.248 39.4854 133.194C37.1499 126.235 35.1481 119.164 33.0107 112.138C36.9046 101.815 44.3763 94.1738 52.5969 87.41C58.0823 82.8968 64.5324 79.5579 70.5365 75.6713C71.5898 74.9895 72.5723 74.1983 74.7547 72.606C72.3765 72.1216 71.2686 71.8959 69.5784 71.4057C67.8891 70.6324 66.782 70.1238 64.9043 69.2611C67.255 66.0523 69.3217 63.2312 71.5225 60.3414C71.8986 60.0346 71.9018 59.784 71.3194 59.4532C70.7374 59.3962 70.502 59.407 70.2667 59.4179C70.7162 59.0839 71.1657 58.7498 72.19 58.4267C72.9694 58.4425 73.1739 58.4475 73.5938 58.3059C74.0014 57.6885 74.1935 57.2177 74.3857 56.7468C74.6661 56.5671 74.9464 56.3874 75.8049 56.1917C76.6892 55.8823 76.9953 55.5888 77.3013 55.2954C77.3013 55.2954 77.2829 55.3724 77.5294 55.3541C78.1307 55.0923 78.4855 54.8489 78.8403 54.6054C78.4743 54.2129 78.1084 53.8205 77.7425 53.428C77.6392 53.2914 77.5358 53.1549 77.3824 52.404C77.3294 51.2974 77.3266 50.8051 77.3238 50.3128C77.3238 50.3128 77.4877 50.116 78.0277 50.1946C80.4793 49.2879 82.3907 48.3026 84.3022 47.3173Z" fill="#F8813D"/>
<path d="M122.924 206.772C122.644 205.811 122.365 204.851 121.716 203.354C121.081 202.561 120.815 202.305 120.55 202.048C120.55 202.048 120.518 201.725 120.389 201.312C120.028 200.617 119.796 200.335 119.564 200.053C119.494 199.703 119.425 199.353 119.166 198.423C117.717 197.544 116.457 197.245 115.198 196.947C115.198 196.947 115.121 196.728 115.129 196.254C115.127 194.978 115.117 194.175 115.106 193.373C115.247 192.723 115.388 192.073 115.714 190.91C115.946 190.073 115.994 189.751 116.043 189.429C116.043 189.429 116.209 188.967 116.533 188.642C116.977 188.02 117.098 187.722 117.219 187.424C117.25 186.986 117.281 186.548 117.7 185.763C121.703 185.14 121.384 182.571 121.356 179.79C128.888 175.101 136.265 170.702 143.619 166.317C135.181 165.914 128.743 171.273 121.611 174.728C118.974 174.58 116.338 174.432 113.521 173.845C122.191 166.195 133.207 164.206 143.722 160.793C133.351 159.108 124.067 161.942 115.312 167.15C115.332 166.985 115.434 166.755 115.361 166.663C108.938 158.554 116.087 153.122 119.316 146.971C120.219 145.25 121.645 143.804 122.998 142.01C120.032 140.823 117.317 139.737 114.694 138.195C130.717 137.659 145.122 134.131 154.026 120.663C160.546 122.237 166.454 123.663 172.362 125.089C176.042 125.243 179.721 125.398 183.821 125.869C185.59 127.562 186.938 128.938 187.947 130.518C177.718 134.135 167.699 132.22 157.548 131.327C159.253 132.942 161.041 133.931 162.956 134.414C172.55 136.838 182.035 135.591 191.663 133.582C195.2 138.37 198.657 142.807 201.833 147.438C203.803 150.309 205.148 153.402 199.24 153.392C199.795 154.939 200.182 156.02 200.129 157.212C195.478 158.099 191.268 158.876 187.058 159.653C187.142 160.294 187.226 160.936 187.31 161.577C192.374 161.577 197.438 161.577 202.515 161.905C202.763 163.301 202.998 164.369 202.827 165.433C198.29 164.998 194.159 164.568 190.029 164.137C189.814 164.901 189.599 165.665 189.383 166.429C190.632 167.002 191.83 167.779 193.14 168.108C196.642 168.989 200.193 169.677 203.723 170.824C204.017 172.434 204.312 173.663 204.245 174.715C200.033 172.401 196.331 169.678 190.119 171.293C195.924 174.187 200.609 176.522 205.254 179.239C204.708 181.431 204.666 184.435 203.614 184.844C199.1 186.6 199.522 190.694 197.985 194.076C191.843 199.165 186.071 204.239 179.855 209.702C179.293 204.388 177.029 206.088 174.844 207.586C169.685 211.125 164.994 216.281 157.726 212.462C157.555 212.372 157.158 212.713 156.334 213.108C156.457 215.248 156.594 217.617 156.718 219.788C150.366 220.002 145.357 213.157 137.133 216.217C133.125 213.553 128.024 210.163 122.924 206.772ZM172.293 165.891C171.984 167.845 171.41 169.8 171.413 171.754C171.423 178.118 168.466 182.097 162.238 183.301C156.575 184.397 150.847 185.162 145.145 186.06C140.765 186.75 141.07 184.259 142.194 181.353C137.523 181.693 135.611 184.12 135.645 188.444C141.001 189.765 146.483 190.283 151.212 192.446C163.223 197.938 174.268 197.572 184.944 189.428C186.316 188.382 188.602 188.534 191.734 187.856C191.611 186.779 191.639 184.427 190.94 182.316C190.691 181.565 187.965 180.685 187.576 181.073C182.531 186.11 177.537 182.154 172.038 181.846C172.834 178.996 173.881 176.849 173.934 174.677C174.01 171.571 173.359 168.448 172.293 165.891ZM135.296 179.842C139.216 177.046 143.136 174.25 147.08 171.437C140.488 170.022 129.417 178.645 124.62 189.96C128.002 186.747 131.384 183.534 135.296 179.842ZM157.46 155.08C155.682 155.807 153.904 156.534 152.126 157.26C153.636 158.466 154.99 160.323 156.691 160.728C159.325 161.354 162.683 164.889 164.591 160.42C164.896 159.706 160.466 156.971 157.46 155.08ZM174.372 200.317C170.434 200.651 166.495 200.984 161.974 201.367C170.856 206.341 178.716 204.085 180.358 195.862C178.279 197.47 176.672 198.713 174.372 200.317ZM185.249 152.351C182.978 153.264 180.633 154.044 178.506 155.22C178.147 155.418 178.339 157.937 178.951 158.327C181.017 159.646 185.978 155.542 185.249 152.351Z" fill="#F7E3CC"/>
<path d="M96.7019 52.5383C97.4253 52.3125 98.1487 52.0866 99.4436 51.6854C100.603 51.1987 101.19 50.8874 101.778 50.5761C101.778 50.5761 102.075 50.6361 102.537 50.5612C103.419 50.3623 103.839 50.2383 104.26 50.1143C105.403 49.9354 106.547 49.7566 108.424 49.4837C110.482 49.2248 111.806 49.06 113.553 48.9665C114.827 48.9913 115.68 48.9448 116.862 49.0689C117.926 49.3398 118.661 49.44 119.654 49.7247C120.723 50.0918 121.534 50.2745 122.602 50.6617C127.57 50.0104 126.087 45.689 127.323 42.889C127.735 42.2062 128.147 41.5234 129.083 40.7029C130.389 41.2742 131.306 41.8825 131.928 42.7118C133.566 44.8976 135.076 47.1795 136.637 49.4232C138.691 47.4 140.809 45.4364 142.767 43.3241C143.535 42.4953 143.809 41.2151 144.558 40.3602C145.182 39.6483 146.173 39.2577 147.745 38.2461C147.745 40.9008 147.745 42.5622 147.745 43.9968C151.513 44.397 154.852 44.7518 158.809 45.1723C157.793 47.3624 157.212 48.6147 156.411 50.3411C158.918 50.1613 160.935 50.0166 163.434 49.8373C162.75 52.4743 162.192 54.6223 161.633 56.7733C165.5 58.0308 169.171 59.0448 172.701 60.4208C176.737 61.9942 179.839 64.5969 180.478 69.2591C174.875 69.7909 169.233 70.0754 163.691 70.9764C161.478 71.3362 159.486 73.0569 157.782 74.8548C164.077 74.2115 170.373 73.5682 176.668 72.925C170.118 77.0086 161.529 76.1871 155.665 82.922C164.345 81.3689 172.239 79.9562 180.59 78.99C181.425 80.7555 181.801 82.0745 182.178 83.3935C171.903 84.4786 162.576 88.1421 153.406 93.6447C151.031 82.5514 138.059 68.3708 127.858 66.3253C117.431 64.2343 107.507 64.9834 98.5242 70.6081C98.6307 71.1721 98.7373 71.736 98.8438 72.3C102.672 71.3879 106.5 70.4758 110.338 70.0449C110.355 70.8469 110.361 71.1677 110.057 71.6425C102.581 74.7053 95.4159 77.6142 88.251 80.5232C88.2813 79.1241 88.3117 77.725 88.5757 75.8492C89.054 75.1258 89.1638 74.8292 89.1387 74.4827C89.2755 74.1579 89.4122 73.8331 89.7632 73.0536C90.1253 72.2166 90.2731 71.8342 90.4209 71.4519C92.356 68.7838 94.2912 66.1156 96.626 63.0456C97.4808 62.2485 97.936 61.8533 98.3911 61.4581C98.3911 61.4581 98.3545 61.4307 98.6127 61.3769C99.0757 61.0494 99.2805 60.7758 99.4853 60.5021C99.4853 60.5021 99.4192 60.5531 99.7571 60.5413C100.701 60.0926 101.308 59.6558 102.329 58.9196C101.027 58.4808 100.272 58.2263 99.5175 57.9718C99.0829 57.7364 98.6484 57.501 97.6812 57.0527C96.2244 56.6757 95.3004 56.5115 94.3763 56.3473C94.3763 56.3473 94.3893 56.419 94.3492 56.0346C94.487 54.953 94.6649 54.2558 94.8429 53.5586C94.8429 53.5586 95.1379 53.5788 95.5209 53.4245C96.1699 53.0262 96.4359 52.7823 96.7019 52.5383Z" fill="#F8E2CB"/>
<path d="M88.1451 80.7916C95.416 77.6139 102.581 74.7049 110.519 71.7129C116.254 71.6299 121.217 71.6299 126.18 71.6299C126.183 71.015 126.185 70.4001 126.187 69.7851C121.018 67.7791 115.707 68.1012 110.328 69.5633C106.5 70.4754 102.672 71.3875 98.8439 72.2996C98.7374 71.7357 98.6308 71.1717 98.5243 70.6077C107.507 64.9831 117.431 64.234 127.858 66.3249C138.059 68.3704 151.031 82.551 153.103 93.8679C153.546 94.8492 153.73 95.4916 154.096 96.7071C154.489 101.337 155.326 105.486 154.745 109.427C154.095 113.829 154.686 116.983 159.103 118.467C163.468 119.933 167.931 121.107 172.35 122.41C172.354 123.08 172.358 123.749 172.363 124.754C166.455 123.663 160.546 122.237 154.027 120.663C145.123 134.131 130.718 137.658 114.407 137.947C109.277 137.237 104.527 136.32 99.3801 134.836C98.3567 134.093 97.7306 133.917 97.1044 133.741C97.1044 133.741 97.0202 133.809 97.1697 133.504C97.6709 132.604 98.0226 132.009 98.3743 131.414C98.9363 131.563 99.4982 131.711 100.334 132.359C100.924 133.026 101.241 133.194 101.557 133.362C104.649 133.688 107.741 134.014 111.692 134.324C115.042 134.351 117.543 134.556 120.023 134.408C129.343 133.854 138.047 131.357 145.42 125.4C148.472 122.935 151.449 120.182 151.172 115.803C146.212 117.958 141.447 120.218 136.541 122.116C128.361 125.282 119.91 124.427 111.482 123.352C111.342 123.032 111.102 122.835 110.422 122.431C109.52 122.13 108.956 122.159 108.392 122.188C107.831 122.116 107.27 122.044 106.426 121.656C105.888 121.393 105.632 121.443 105.376 121.494C104.518 121.329 103.661 121.165 102.324 120.516C100.186 119.603 98.5267 119.174 96.8672 118.745C95.4637 118.243 94.0603 117.741 92.2679 116.751C91.4848 116.186 91.0907 116.107 90.6966 116.029C89.7102 115.692 88.7238 115.356 87.343 114.557C86.5777 113.976 86.2069 113.858 85.836 113.74C85.3906 113.583 84.9452 113.427 84.1447 112.751C81.9178 112.102 80.0459 111.973 78.1741 111.843C78.1741 111.843 78.0973 111.862 77.9563 111.503C77.2047 109.845 76.5941 108.546 75.9834 107.247C75.9834 107.247 75.9923 107.174 76.2723 107.096C76.6847 106.713 76.8172 106.409 76.9497 106.104C76.9497 106.104 77.0028 106.084 77.3027 106.049C77.8235 105.736 78.0444 105.459 78.2653 105.182C78.2653 105.182 78.4434 104.943 78.8976 105.033C80.0411 104.756 80.7302 104.389 81.4194 104.022C81.8454 103.903 82.2713 103.785 83.1661 103.768C83.8616 103.668 84.0881 103.464 84.3147 103.261C84.3147 103.261 84.4642 103.046 85.1406 103.176C86.1824 103.412 86.5477 103.519 86.7258 103.952C83.9389 105.565 81.3393 106.852 78.7149 108.151C83.5385 109.92 87.736 111.804 92.1214 112.997C101.219 115.472 110.312 118.325 119.602 119.619C128.027 120.792 136.576 119.386 144.188 114.849C153.48 109.311 154.534 101.827 146.896 94.0123C144.986 92.0574 142.474 90.4148 139.93 89.3994C126.035 83.852 112.66 86.2587 99.1853 92.547C97.8406 92.4883 96.945 92.4275 96.206 92.0405C97.3931 90.9164 98.3397 89.9665 99.4669 89.3433C114.72 80.9103 130.275 80.4126 146.223 87.9292C146.684 88.259 147.017 88.3473 147.432 88.6408C147.665 88.7285 147.817 88.611 147.97 88.4934C147.741 88.5127 147.512 88.532 147.557 88.3379C147.621 87.725 147.411 87.3256 147.115 86.5846C142.705 82.8025 138.885 77.8285 133.963 76.2095C119.293 71.3845 105.192 73.9721 92.366 82.7753C91.0172 83.3809 89.6685 83.9864 87.7186 84.4473C86.8747 83.7693 86.6318 83.236 86.389 82.7027C86.9391 82.1553 87.4891 81.6079 88.1451 80.7916Z" fill="#201A18"/>
<path d="M172.805 122.36C167.93 121.108 163.467 119.933 159.102 118.467C154.685 116.983 154.095 113.83 154.744 109.427C155.325 105.487 154.489 101.338 154.306 96.8558C162.764 92.0836 171.074 87.1285 180.924 87.1885C186.344 87.2216 191.913 87.7079 197.131 89.0717C202.975 90.5989 206.87 94.985 207.787 101.106C208.654 106.896 205.195 110.984 200.869 114.093C192.665 119.991 183.57 123.291 172.805 122.36ZM173.724 93.9648C171.329 96.52 168.117 98.698 166.726 101.716C164.436 106.681 166.849 113.33 170.802 115.912C175.058 118.692 181.093 118.334 184.706 115.087C188.569 111.614 189.738 105.451 187.19 100.453C184.571 95.318 180.148 93.2274 173.724 93.9648Z" fill="#F2F1EF"/>
<path d="M122.496 206.724C128.025 210.163 133.126 213.553 137.134 216.217C145.358 213.157 150.367 220.002 156.719 219.788C156.594 217.617 156.458 215.248 156.335 213.109C157.158 212.713 157.556 212.372 157.726 212.462C164.995 216.281 169.686 211.125 174.845 207.587C177.03 206.088 179.293 204.388 179.856 209.702C186.072 204.239 191.843 199.165 198.055 194.386C198.784 194.983 199.072 195.287 199.578 195.83C200.71 196.584 201.626 197.098 202.541 197.612C200.815 200.33 199.089 203.048 196.622 206.931C195.767 204.084 195.372 202.768 194.946 201.352C187.76 204.048 184.758 214.54 172.942 213.332C170.678 214.588 167.592 220.213 161.817 216.355C161.395 216.956 161.041 217.229 161.069 217.455C161.958 224.74 161.866 224.825 154.518 222.893C151.944 222.217 149.379 221.509 146.81 220.816C146.746 221.301 146.683 221.786 146.619 222.271C144.587 222.271 142.151 223.006 140.588 222.149C131.716 217.286 123.053 212.042 113.915 206.691C113.261 212.574 109.94 211.34 106.769 209.073C100.212 204.382 93.827 199.451 87.3286 194.587C87.2856 194.816 87.0745 195.559 87.0164 196.315C86.6957 200.484 84.4779 200.56 82.3146 197.961C77.0253 191.605 72.0896 184.954 67.036 178.404C64.9609 175.714 62.9489 172.975 60.2149 169.962C57.5782 169.713 55.6348 169.761 53.6914 169.809C53.6914 169.809 53.4698 169.886 53.3633 169.837C53.5207 169.253 53.7846 168.718 54.5786 167.882C55.8624 167.565 56.616 167.548 57.5112 167.649C57.8381 167.52 58.0235 167.273 58.4194 166.736C58.9641 163.67 59.2984 160.895 59.6327 158.119C59.3498 153.203 57.5648 148.101 62.3859 143.562C62.9274 149.411 62.7496 155.447 64.2056 161.059C65.7696 167.087 68.3632 173.003 71.4414 178.439C74.4182 183.697 78.5835 188.281 82.794 193.92C83.0543 190.467 83.226 188.188 83.4852 184.749C92.6266 192.588 100.843 199.635 109.949 207.444C110.578 201.336 113.19 201.973 116.294 203.756C118.162 204.828 120.14 205.709 122.496 206.724Z" fill="#141217"/>
<path d="M57.3688 167.532C56.6151 167.548 55.8615 167.564 54.7337 167.629C31.7868 160.418 25.6003 138.178 30.7913 118.437C31.2969 116.515 31.9733 114.637 32.7904 112.438C35.1479 119.164 37.1496 126.235 39.4851 133.194C40.51 136.247 42.2155 139.073 43.9106 142.56C43.4049 149.021 44.1667 151.136 48.4371 153.248C45.9547 144.233 49.8659 137.836 55.8628 132.19C61.6947 126.698 63.6827 119.925 63.4734 111.911C63.2916 104.95 62.0357 97.6384 66.0713 91.0663C66.2942 90.7033 65.0141 89.4175 64.4337 88.5613C65.4423 87.6312 66.4509 86.7012 68.2693 85.0244C68.2693 98.99 68.5763 111.729 68.1113 124.44C67.9365 129.22 65.2139 133.205 61.306 136.688C57.0567 140.475 53.4753 145.259 50.6132 150.194C49.8301 151.544 52.3365 155.257 53.9733 157.396C55.0624 158.819 56.7685 161.605 59.4974 158.443C59.2975 160.894 58.9632 163.669 58.196 166.841C57.7631 167.238 57.3688 167.532 57.3688 167.532Z" fill="#C06230"/>
<path d="M199.36 195.591C199.072 195.287 198.783 194.984 198.425 194.37C199.523 190.695 199.1 186.6 203.615 184.844C204.666 184.435 204.708 181.431 205.56 179.09C205.473 177.337 205.04 176.114 204.607 174.892C204.312 173.663 204.017 172.434 203.992 170.636C206.245 170.209 208.227 170.352 210.209 170.495C210.358 170.084 210.506 169.674 210.655 169.264C208.181 167.988 205.707 166.713 203.234 165.437C202.998 164.369 202.763 163.302 202.932 161.802C207.125 161.65 210.913 161.929 215.772 162.287C211.293 156.386 205.552 157.878 200.57 157.102C200.182 156.02 199.795 154.939 199.241 153.393C205.148 153.402 203.803 150.309 201.834 147.438C198.657 142.808 195.2 138.37 191.657 133.418C191.453 132.986 191.565 132.677 191.913 132.646C194.391 131.283 196.52 129.953 198.65 128.622C200.649 127.223 202.647 125.824 205.052 124.802C207.171 129.288 206.645 135.093 213.278 135.497C213.29 135.515 213.33 135.528 213.188 135.901C213.098 137.293 213.149 138.312 213.2 139.331C213.2 139.331 213.267 139.375 212.99 139.343C212.484 139.593 212.255 139.876 212.025 140.158C212.025 140.158 212.106 140.139 211.859 140.341C211.794 141.033 211.976 141.523 212.159 142.013C214.083 146.931 216.506 151.728 217.744 156.814C218.483 159.851 217.362 163.34 216.369 166.62C215.179 166.884 214.697 167.156 214.214 167.427C214.077 167.735 213.939 168.043 213.719 168.75C213.603 169.562 213.57 169.975 213.538 170.388C213.435 170.806 213.332 171.225 213.101 172.276C212.848 174.059 212.723 175.21 212.599 176.36C212.463 177.075 212.327 177.789 212.075 179.101C211.889 180.245 211.819 180.791 211.749 181.337C210.924 183.127 211.355 186.284 207.654 185.027C207.45 184.957 206.694 186.512 205.883 187.879C203.501 190.828 201.43 193.21 199.36 195.591Z" fill="#EE8041"/>
<path d="M180.842 69.3775C179.838 64.5969 176.737 61.9943 172.7 60.4209C169.17 59.0448 165.499 58.0309 161.633 56.7733C162.191 54.6224 162.749 52.4743 163.434 49.8373C160.934 50.0166 158.917 50.1613 156.41 50.3412C157.211 48.6148 157.792 47.3625 158.808 45.1723C154.851 44.7518 151.512 44.3971 147.744 43.9968C147.744 42.5622 147.744 40.9009 147.744 38.2461C146.172 39.2577 145.182 39.6483 144.557 40.3603C143.808 41.2152 143.534 42.4954 142.766 43.3241C140.808 45.4365 138.69 47.4001 136.636 49.4232C135.075 47.1796 133.565 44.8977 131.927 42.7118C131.305 41.8825 130.389 41.2743 129.217 40.505C130.69 37.3694 132.552 34.2941 134.537 31.0176C135.794 32.1512 136.186 32.3361 136.196 32.5396C136.294 34.5525 136.329 36.5684 136.382 38.5835C138.239 37.7408 140.028 36.6611 141.969 36.1166C144.294 35.4641 146.777 34.8169 149.138 34.9734C153.415 35.2568 157.653 36.1372 162.224 36.8153C162.009 37.533 161.988 38.4006 161.554 38.9264C158.991 42.0265 160.279 43.42 163.581 44.5608C168.083 46.1165 172.454 48.055 176.881 49.8293C176.441 50.3446 176.001 50.8599 175.561 51.3753C176.577 53.0477 177.393 54.8901 178.646 56.3613C182.636 61.0487 186.788 65.5982 190.878 70.2009C190.505 70.6002 190.133 70.9995 189.76 71.3987C186.909 70.7644 184.058 70.1302 180.842 69.3775Z" fill="#ED8143"/>
<path d="M213.629 91.1753C226.573 103.862 228.634 119.645 226.118 136.828C222.907 134.518 220.135 131.986 217.36 129.441C217.358 129.428 217.333 129.423 217.327 129.129C217.172 128.091 217.024 127.347 216.875 126.603C216.886 126.148 216.897 125.692 217.126 124.827C217.453 123.784 217.563 123.151 217.673 122.517C217.32 117.697 216.967 112.877 216.504 107.375C216.056 106.272 215.717 105.85 215.379 105.428C214.799 104.594 214.218 103.759 213.519 102.207C213.476 98.0518 213.553 94.6136 213.629 91.1753Z" fill="#E8793B"/>
<path d="M122.345 50.457C121.534 50.2743 120.723 50.0916 119.493 49.4883C118.227 49.0111 117.38 48.9547 116.532 48.8982C115.68 48.9446 114.827 48.9911 113.251 48.8243C111.137 48.5479 109.747 48.4849 108.356 48.4219C107.875 47.5261 107.394 46.6302 106.61 45.2669C106.277 44.5894 106.249 44.3793 106.22 44.1693C106.327 43.8694 106.525 43.6502 107.353 43.4077C109.341 41.1453 108.865 40.2857 105.852 39.6214C105.852 39.6214 105.545 39.6226 105.565 39.1237C109.289 38.1827 112.992 37.7406 116.695 37.2985C116.695 37.2985 117.066 37.2564 117.429 37.5963C118.196 38.0229 118.6 38.1098 119.003 38.1966C119.003 38.1966 119.159 38.0747 119.39 38.4616C121.563 40.3282 123.504 41.8079 125.445 43.2876C125.445 43.2876 125.482 43.2973 125.443 43.6687C124.384 46.1791 123.365 48.318 122.345 50.457Z" fill="#FD813C"/>
<path d="M207.005 122.42C208.098 116.901 209.192 111.382 210.485 104.854C216.18 110.025 215.671 115.367 214.889 120.701C214.583 122.795 213.579 124.809 213.439 126.896C213.37 127.922 214.545 129.033 215.659 129.767C216.552 129.426 216.942 129.424 217.333 129.422C217.333 129.422 217.358 129.428 217.353 129.774C216.7 131.47 216.053 132.819 215.038 134.182C214.224 134.64 213.777 135.084 213.33 135.527C213.33 135.527 213.29 135.514 213.624 135.221C211.64 130.758 209.323 126.589 207.005 122.42Z" fill="#B15C30"/>
<path d="M69.9155 59.4101C70.5022 59.4072 70.7375 59.3963 71.2197 59.6657C71.4667 59.9459 71.3885 60.4102 71.3885 60.4102C69.3219 63.2313 67.2552 66.0524 64.9045 69.2613C66.7822 70.124 67.8892 70.6326 69.1986 71.4334C66.0735 73.5103 62.7461 75.2949 59.4187 77.0795C59.2282 76.7305 59.0377 76.3815 58.8472 76.0325C59.7477 74.6007 60.6482 73.1689 61.8737 71.2204C59.8264 70.7871 58.3688 70.4786 55.1475 69.7969C60.6801 65.8077 65.1221 62.6049 69.9155 59.4101Z" fill="#B75F2F"/>
<path d="M188.287 130.314C186.939 128.938 185.591 127.562 184.207 125.856C190.714 122.822 197.256 120.119 203.798 117.416C204.038 117.561 204.278 117.706 204.518 117.851C202.195 120.401 199.872 122.951 197.065 125.935C194.445 127.637 192.308 128.903 189.856 130.196C189.123 130.252 188.705 130.283 188.287 130.314Z" fill="#DD7940"/>
<path d="M213.531 90.8584C213.553 94.6134 213.476 98.0517 213.405 101.913C211.019 97.7388 208.628 93.1412 206.293 87.8009C206.803 86.4429 207.257 85.8277 207.711 85.2124C209.033 86.4284 210.355 87.6444 212.024 88.8342C212.37 88.808 212.43 88.7365 212.422 88.7789C212.754 89.3947 213.094 89.9682 213.531 90.8584Z" fill="#B05D30"/>
<path d="M182.626 83.4874C181.801 82.0743 181.424 80.7553 180.998 79.0898C187.033 78.6482 192.553 80.1696 198.179 84.9866C192.435 84.4523 187.755 84.0169 182.626 83.4874Z" fill="#DE7941"/>
<path d="M206.729 122.495C209.323 126.589 211.64 130.758 213.613 135.203C206.646 135.092 207.172 129.288 205.41 124.797C205.725 123.8 206.09 123.185 206.729 122.495Z" fill="#2E150D"/>
<path d="M207.612 84.9568C207.257 85.8274 206.803 86.4426 206.265 87.4477C202.891 84.2961 199.602 80.7547 196.312 77.2133C196.714 76.7542 197.115 76.2951 197.516 75.8359C200.506 78.3603 203.497 80.8848 206.786 83.5521C207.228 84.0305 207.371 84.366 207.612 84.9568Z" fill="#A75730"/>
<path d="M116.355 37.0569C112.992 37.7409 109.289 38.183 105.47 39.0038C103.885 38.7971 102.415 38.2118 100.946 37.6265C101.035 37.0521 101.124 36.4777 101.212 35.9033C106.147 36.2072 111.081 36.5112 116.355 37.0569Z" fill="#E58047"/>
<path d="M190.171 130.17C192.308 128.904 194.445 127.637 196.883 126.202C197.471 126.738 197.758 127.441 198.348 128.384C196.521 129.953 194.392 131.283 191.728 132.337C190.853 131.431 190.512 130.801 190.171 130.17Z" fill="#32150D"/>
<path d="M122.602 50.6616C123.364 48.3181 124.384 46.1792 125.456 43.6559C125.902 43.1317 126.296 42.992 127.007 42.8706C126.087 45.6889 127.569 50.0103 122.602 50.6616Z" fill="#E58047"/>
<path d="M105.771 44.145C106.249 44.3793 106.277 44.5893 106.329 45.1166C102.49 45.4084 98.6291 45.383 94.2617 45.316C97.6108 44.8899 101.466 44.5053 105.771 44.145Z" fill="#E58047"/>
<path d="M125.233 43.0099C123.504 41.8078 121.562 40.3281 119.473 38.5156C121.223 39.6993 123.122 41.2158 125.233 43.0099Z" fill="#E58047"/>
<path d="M83.9385 47.3208C82.3913 48.3024 80.4798 49.2877 78.1465 50.2436C79.6745 49.2509 81.6244 48.2877 83.9385 47.3208Z" fill="#E58047"/>
<path d="M106.047 39.9131C108.864 40.2859 109.341 41.1455 107.565 43.3332C106.906 42.31 106.574 41.2573 106.047 39.9131Z" fill="#E58047"/>
<path d="M217.326 129.129C216.942 129.424 216.551 129.426 215.867 129.427C215.765 128.524 215.955 127.623 216.51 126.663C217.023 127.347 217.172 128.091 217.326 129.129Z" fill="#B75F30"/>
<path d="M77.0186 50.3408C77.3267 50.805 77.3295 51.2973 77.3094 52.1577C77.0954 51.8069 76.9043 51.0879 77.0186 50.3408Z" fill="#E58047"/>
<path d="M93.0053 45.0762C92.1465 45.5208 90.877 45.932 89.1719 46.2924C90.0224 45.842 91.3085 45.4424 93.0053 45.0762Z" fill="#E58047"/>
<path d="M217.348 122.621C217.563 123.15 217.453 123.784 217.111 124.485C216.927 123.944 216.975 123.335 217.348 122.621Z" fill="#B75F30"/>
<path d="M77.6351 53.7412C78.1084 53.8203 78.4743 54.2128 78.8403 54.6052C78.4855 54.8487 78.1306 55.0922 77.4937 55.3368C77.3169 54.9102 77.4223 54.4824 77.6351 53.7412Z" fill="#E58047"/>
<path d="M50.2728 168.689C49.6696 168.694 48.95 168.402 48.0469 167.869C48.6278 167.882 49.3921 168.138 50.2728 168.689Z" fill="#141C28"/>
<path d="M40.2573 162.445C39.8545 162.458 39.3116 162.195 38.6426 161.652C39.05 161.638 39.5836 161.903 40.2573 162.445Z" fill="#141C28"/>
<path d="M74.1605 56.7529C74.1939 57.2177 74.0017 57.6885 73.5815 58.0353C73.3346 57.7319 73.3157 57.5525 73.2969 57.3732C73.43 57.0858 73.6427 56.8811 74.1605 56.7529Z" fill="#E58047"/>
<path d="M215.385 105.731C215.716 105.85 216.055 106.272 216.425 106.97C216.102 106.842 215.747 106.438 215.385 105.731Z" fill="#B05D30"/>
<path d="M73.044 57.4312C73.3154 57.5525 73.3343 57.7318 73.3657 58.1818C73.1739 58.4474 72.9694 58.4424 72.4671 58.3566C72.3766 58.0136 72.584 57.7514 73.044 57.4312Z" fill="#B75F2F"/>
<path d="M76.9883 55.3672C76.9955 55.5886 76.6894 55.882 76.0579 56.2258C76.0467 55.9972 76.3609 55.7182 76.9883 55.3672Z" fill="#E58047"/>
<path d="M118.795 37.9554C118.599 38.1098 118.196 38.023 117.578 37.7087C117.771 37.559 118.179 37.6366 118.795 37.9554Z" fill="#E58047"/>
<path d="M34.122 156.674C33.8886 156.713 33.5769 156.425 33.1445 155.839C33.3638 155.809 33.7037 156.078 34.122 156.674Z" fill="#141C28"/>
<path d="M46.0946 166.485C45.8516 166.595 45.4606 166.398 44.8994 165.915C45.135 165.811 45.5409 165.994 46.0946 166.485Z" fill="#141C28"/>
<path d="M87.0836 46.3994C87.0963 46.5709 86.8548 46.721 86.499 46.7494C86.533 46.5445 86.6812 46.4613 87.0836 46.3994Z" fill="#E58047"/>
<path d="M199.577 195.831C201.43 193.21 203.501 190.828 205.827 188.206C206.179 188.338 206.274 188.711 206.508 189.648C205.463 192.552 204.28 194.893 202.819 197.423C201.625 197.098 200.71 196.584 199.577 195.831Z" fill="#2C2026"/>
<path d="M53.9004 170.139C55.6348 169.761 57.5782 169.713 59.8512 169.869C58.157 170.205 56.1332 170.338 53.9004 170.139Z" fill="#141C28"/>
<path d="M207.854 189.144C208.608 188.924 209.736 188.726 211.236 188.566C210.481 188.792 209.354 188.979 207.854 189.144Z" fill="#2C2026"/>
<path d="M216.522 170.303C216.524 170.098 216.746 169.783 217.186 169.475C217.251 169.781 217.03 170.019 216.522 170.303Z" fill="#17151C"/>
<path d="M217.633 169.491C217.469 169.107 217.691 168.94 218.171 169.1C218.291 169.207 217.881 169.486 217.633 169.491Z" fill="#17151C"/>
<path d="M215.405 134.169C216.053 132.819 216.7 131.47 217.355 129.787C220.135 131.986 222.907 134.518 225.966 137.215C225.433 142.429 223.174 146.536 217.721 150.472C217.485 146.646 217.326 144.078 217.576 140.969C217.788 139.69 217.591 138.95 217.394 138.21C216.982 137.474 216.57 136.738 215.902 135.549C215.538 134.794 215.457 134.485 215.405 134.169Z" fill="#B75F30"/>
<path d="M215.038 134.182C215.457 134.485 215.537 134.794 215.674 135.327C215.141 136.783 214.581 138.007 213.611 139.28C213.149 138.312 213.098 137.293 213.189 135.901C213.777 135.084 214.224 134.64 215.038 134.182Z" fill="#2E150D"/>
<path d="M212.808 176.08C212.724 175.209 212.848 174.059 213.137 172.599C213.206 173.459 213.112 174.629 212.808 176.08Z" fill="#17151C"/>
<path d="M217.391 138.66C217.591 138.95 217.788 139.69 217.762 140.667C217.488 140.306 217.438 139.708 217.391 138.66Z" fill="#2E150D"/>
<path d="M211.91 181.109C211.819 180.791 211.889 180.245 212.118 179.465C212.208 179.781 212.139 180.331 211.91 181.109Z" fill="#17151C"/>
<path d="M214.484 167.42C214.697 167.155 215.179 166.884 215.949 166.739C215.742 167.047 215.248 167.23 214.484 167.42Z" fill="#17151C"/>
<path d="M213.727 170.156C213.57 169.975 213.603 169.561 213.887 168.954C214.064 169.148 213.99 169.536 213.727 170.156Z" fill="#17151C"/>
<path d="M212.302 140.13C212.255 139.875 212.485 139.593 213.002 139.304C213.052 139.565 212.815 139.834 212.302 140.13Z" fill="#2E150D"/>
<path d="M212.167 141.552C211.977 141.522 211.794 141.032 211.827 140.361C212.086 140.483 212.13 140.787 212.167 141.552Z" fill="#2E150D"/>
<path d="M92.3123 83.1148C105.191 73.9723 119.292 71.3847 133.962 76.2097C138.885 77.8287 142.704 82.8027 146.829 86.7625C146.452 87.4171 146.273 87.5525 146.095 87.6878C130.274 80.4128 114.719 80.9105 99.4661 89.3435C98.3389 89.9667 97.3923 90.9166 95.9096 92.1664C93.0957 94.5975 90.7339 96.5769 88.3721 98.5562C89.6678 93.5222 90.9636 88.4882 92.3123 83.1148Z" fill="#F0DCC7"/>
<path d="M111.579 123.673C119.91 124.427 128.361 125.282 136.541 122.117C141.446 120.219 146.212 117.959 151.172 115.804C151.449 120.182 148.471 122.936 145.42 125.401C138.047 131.357 129.343 133.854 120.023 134.409C117.543 134.556 115.041 134.352 112.121 134.259C113.497 133.069 115.301 131.929 117.537 130.517C115.551 128.307 113.614 126.15 111.579 123.673Z" fill="#EEDBC5"/>
<path d="M64.316 88.8975C65.015 89.4179 66.295 90.7037 66.0721 91.0667C62.0365 97.6388 63.2924 104.95 63.4742 111.911C63.6835 119.925 61.6956 126.699 55.8636 132.19C49.8667 137.837 45.9555 144.234 48.4379 153.249C44.1676 151.137 43.4057 149.021 44.1905 142.747C46.8338 138.458 49.0066 134.06 52.2716 130.735C57.4911 125.419 60.0079 119.735 59.64 112.108C59.2622 104.274 59.3382 96.1824 64.316 88.8975Z" fill="#27100A"/>
<path d="M115.132 167.392C124.067 161.942 133.351 159.108 143.722 160.793C133.207 164.206 122.192 166.195 113.163 173.667C109.768 175.94 106.551 177.949 103.334 179.958C103.002 179.508 102.67 179.058 102.338 178.608C105.235 173.581 110.534 171.069 115.132 167.392Z" fill="#261C18"/>
<path d="M121.454 175.024C128.744 171.273 135.182 165.915 143.619 166.317C136.265 170.703 128.889 175.101 121.022 179.877C119.091 181.866 117.652 183.477 116.212 185.088C114.038 186.749 111.863 188.409 109.697 190.064C108.236 187.029 108.999 186.053 121.454 175.024Z" fill="#2B1B16"/>
<path d="M86.1145 82.8691C86.6313 83.2363 86.8742 83.7696 87.3772 84.456C84.0929 88.9093 80.5484 93.2096 77.0039 97.5098C76.4811 97.0985 75.9583 96.6872 75.4355 96.2759C76.9004 90.482 81.5105 86.8552 86.1145 82.8691Z" fill="#431E12"/>
<path d="M98.1161 131.191C98.0223 132.009 97.6705 132.604 97.1184 133.486C92.1743 132.446 87.9635 130.328 84.7178 126.777C85.0257 126.226 85.3336 125.675 85.6415 125.124C89.7138 127.072 93.786 129.02 98.1161 131.191Z" fill="#36160C"/>
<path d="M88.246 98.8513C90.7344 96.577 93.0962 94.5977 95.7536 92.4927C96.9448 92.4278 97.8404 92.4886 99.0732 92.8732C95.2445 96.6733 91.0786 100.15 86.9127 103.626C86.5474 103.519 86.1821 103.412 85.2676 103.145C85.852 101.705 86.9857 100.426 88.246 98.8513Z" fill="#412C25"/>
<path d="M116.479 185.191C117.652 183.477 119.091 181.866 120.865 180.168C121.384 182.572 121.703 185.14 117.691 185.433C117.111 185.398 116.928 185.346 116.479 185.191Z" fill="#EDDDC8"/>
<path d="M97.1299 118.999C98.5265 119.174 100.186 119.603 102.045 120.339C100.628 120.183 99.0104 119.718 97.1299 118.999Z" fill="#412C25"/>
<path d="M115.347 197.225C116.458 197.246 117.717 197.544 119.051 198.18C117.916 198.179 116.705 197.841 115.347 197.225Z" fill="#EF955D"/>
<path d="M78.4678 112.089C80.0453 111.973 81.9172 112.103 83.9716 112.587C82.3568 112.739 80.5594 112.537 78.4678 112.089Z" fill="#412C25"/>
<path d="M75.7373 107.498C76.5938 108.546 77.2044 109.845 77.9179 111.493C77.1776 110.477 76.3346 109.113 75.7373 107.498Z" fill="#412C25"/>
<path d="M114.818 193.457C115.117 194.175 115.128 194.978 115.046 196.173C114.812 195.558 114.671 194.549 114.818 193.457Z" fill="#EF955D"/>
<path d="M99.4781 58.411C100.272 58.2263 101.027 58.4808 102.329 58.9196C101.307 59.6557 100.701 60.0926 99.7872 60.5697C99.4663 60.0234 99.4528 59.4368 99.4781 58.411Z" fill="#E58047"/>
<path d="M94.5066 53.6255C94.6641 54.2555 94.4862 54.9527 94.376 56.0106C91.7363 55.7449 92.4124 54.7739 94.5066 53.6255Z" fill="#E58047"/>
<path d="M108.351 48.6474C109.746 48.4848 111.137 48.5479 112.829 48.7529C111.805 49.0597 110.481 49.2245 108.752 49.3568C108.347 49.3242 108.347 48.873 108.351 48.6474Z" fill="#E58047"/>
<path d="M81.1281 103.935C80.7298 104.389 80.0406 104.756 79.0449 105.014C79.438 104.552 80.1376 104.199 81.1281 103.935Z" fill="#412C25"/>
<path d="M94.6104 56.6261C95.2999 56.5116 96.224 56.6757 97.4282 57.0672C96.7538 57.1645 95.7993 57.0346 94.6104 56.6261Z" fill="#E58047"/>
<path d="M97.2988 133.984C97.7304 133.917 98.3565 134.093 99.1024 134.597C98.646 134.691 98.0697 134.459 97.2988 133.984Z" fill="#36160C"/>
<path d="M108.697 122.336C108.956 122.16 109.52 122.131 110.214 122.311C109.896 122.508 109.449 122.496 108.697 122.336Z" fill="#412C25"/>
<path d="M101.426 50.5605C101.19 50.8872 100.602 51.1985 99.6768 51.5163C99.917 51.1969 100.495 50.8711 101.426 50.5605Z" fill="#E58047"/>
<path d="M98.0655 61.4941C97.9355 61.8531 97.4803 62.2483 96.7295 62.7406C96.8693 62.402 97.3048 61.9662 98.0655 61.4941Z" fill="#E58047"/>
<path d="M104.075 49.9624C103.839 50.238 103.418 50.362 102.666 50.4828C102.853 50.2567 103.372 50.0338 104.075 49.9624Z" fill="#E58047"/>
<path d="M96.4319 52.5991C96.4359 52.7821 96.1698 53.0261 95.6397 53.3364C95.6376 53.1552 95.8998 52.9076 96.4319 52.5991Z" fill="#E58047"/>
<path d="M99.2453 60.5957C99.2802 60.7756 99.0754 61.0492 98.6179 61.3988C98.5786 61.2131 98.792 60.9513 99.2453 60.5957Z" fill="#E58047"/>
<path d="M117.037 187.569C117.099 187.722 116.978 188.02 116.62 188.412C116.46 188.195 116.618 187.931 117.037 187.569Z" fill="#EF955D"/>
<path d="M88.9561 74.6343C89.1638 74.8292 89.054 75.1258 88.6097 75.5154C88.4403 75.3295 88.5614 75.0387 88.9561 74.6343Z" fill="#E58047"/>
<path d="M90.1716 71.6396C90.2723 71.8343 90.1245 72.2166 89.7261 72.7896C89.6247 72.5959 89.7739 72.2117 90.1716 71.6396Z" fill="#E58047"/>
<path d="M115.878 189.613C115.995 189.752 115.947 190.074 115.723 190.577C115.477 190.416 115.532 190.095 115.878 189.613Z" fill="#EF955D"/>
<path d="M71.5226 60.3413C71.3885 60.41 71.4666 59.9457 71.5664 59.7334C71.9019 59.784 71.8987 60.0345 71.5226 60.3413Z" fill="#E58047"/>
<path d="M119.589 200.337C119.796 200.335 120.028 200.617 120.309 201.171C120.11 201.169 119.862 200.895 119.589 200.337Z" fill="#EF955D"/>
<path d="M120.605 202.338C120.816 202.305 121.081 202.561 121.453 203.076C121.26 203.099 120.96 202.864 120.605 202.338Z" fill="#EF955D"/>
<path d="M101.354 133.2C101.24 133.194 100.924 133.026 100.485 132.613C100.626 132.591 100.888 132.815 101.354 133.2Z" fill="#36160C"/>
<path d="M90.8877 116.248C91.0903 116.108 91.4844 116.186 92.0242 116.542C91.8063 116.702 91.4427 116.584 90.8877 116.248Z" fill="#412C25"/>
<path d="M86.0088 113.977C86.2061 113.858 86.5769 113.976 87.1075 114.347C86.9056 114.472 86.5439 114.343 86.0088 113.977Z" fill="#412C25"/>
<path d="M76.7157 106.186C76.8164 106.409 76.684 106.714 76.2907 107.065C76.0361 106.753 76.1869 106.471 76.7157 106.186Z" fill="#412C25"/>
<path d="M78.0007 105.227C78.044 105.459 77.8231 105.737 77.3264 106.034C77.2792 105.793 77.5078 105.532 78.0007 105.227Z" fill="#412C25"/>
<path d="M84.0536 103.302C84.0876 103.465 83.861 103.668 83.499 103.76C83.5067 103.546 83.6499 103.444 84.0536 103.302Z" fill="#412C25"/>
<path d="M105.57 121.609C105.632 121.444 105.888 121.393 106.179 121.51C106.215 121.679 105.765 121.725 105.57 121.609Z" fill="#412C25"/>
<path d="M172.656 165.612C173.36 168.448 174.01 171.572 173.934 174.677C173.881 176.849 172.835 178.996 172.039 181.846C177.538 182.154 182.531 186.11 187.576 181.073C187.965 180.685 190.692 181.565 190.941 182.316C191.64 184.427 191.611 186.779 191.734 187.856C188.602 188.534 186.316 188.382 184.944 189.428C174.268 197.572 163.223 197.938 151.213 192.446C146.483 190.283 141.001 189.765 135.645 188.444C135.611 184.12 137.523 181.693 142.195 181.354C141.07 184.259 140.765 186.75 145.146 186.06C150.847 185.162 156.575 184.397 162.238 183.302C168.466 182.097 171.424 178.119 171.414 171.754C171.411 169.8 171.984 167.845 172.656 165.612Z" fill="#0B0909"/>
<path d="M189.855 130.196C190.511 130.801 190.853 131.431 191.38 132.369C191.565 132.677 191.454 132.985 191.46 133.15C182.036 135.591 172.55 136.838 162.956 134.415C161.041 133.931 159.254 132.943 157.548 131.328C167.7 132.22 177.719 134.135 187.947 130.518C188.705 130.283 189.123 130.252 189.855 130.196Z" fill="#2D2723"/>
<path d="M200.129 157.212C205.552 157.878 211.293 156.386 215.772 162.287C210.913 161.929 207.125 161.649 202.919 161.473C197.438 161.577 192.374 161.577 187.31 161.577C187.226 160.936 187.142 160.294 187.058 159.653C191.268 158.876 195.478 158.099 200.129 157.212Z" fill="#261815"/>
<path d="M135.032 180.082C131.385 183.534 128.002 186.747 124.62 189.96C129.417 178.646 140.489 170.023 147.08 171.437C143.137 174.25 139.217 177.046 135.032 180.082Z" fill="#36302D"/>
<path d="M202.827 165.433C205.708 166.713 208.181 167.988 210.655 169.264C210.506 169.674 210.358 170.084 210.209 170.495C208.227 170.352 206.245 170.209 203.994 170.254C200.193 169.678 196.643 168.989 193.14 168.109C191.83 167.779 190.633 167.002 189.384 166.43C189.599 165.665 189.814 164.901 190.029 164.137C194.16 164.568 198.29 164.999 202.827 165.433Z" fill="#2D221E"/>
<path d="M157.843 155.125C160.466 156.971 164.896 159.706 164.591 160.42C162.683 164.889 159.325 161.354 156.69 160.728C154.99 160.324 153.636 158.466 152.126 157.26C153.904 156.534 155.682 155.807 157.843 155.125Z" fill="#1C1715"/>
<path d="M174.719 200.137C176.672 198.713 178.28 197.47 180.359 195.862C178.717 204.085 170.857 206.341 161.975 201.367C166.496 200.984 170.434 200.651 174.719 200.137Z" fill="#322E2A"/>
<path d="M204.245 174.715C205.04 176.114 205.473 177.336 205.6 178.708C200.609 176.522 195.924 174.187 190.119 171.293C196.331 169.678 200.033 172.401 204.245 174.715Z" fill="#27201E"/>
<path d="M185.531 152.588C185.978 155.542 181.017 159.646 178.951 158.327C178.339 157.937 178.147 155.418 178.507 155.22C180.633 154.044 182.978 153.264 185.531 152.588Z" fill="#24201C"/>
<path d="M110.338 70.0449C115.707 68.1016 121.018 67.7796 126.186 69.7855C126.184 70.4005 126.182 71.0154 126.18 71.6303C121.217 71.6303 116.254 71.6303 110.829 71.5595C110.361 71.1678 110.355 70.847 110.338 70.0449Z" fill="#D3C1B4"/>
<path d="M116.861 49.0687C117.379 48.9546 118.227 49.0111 119.235 49.3038C118.66 49.4397 117.926 49.3395 116.861 49.0687Z" fill="#E58047"/>
<path d="M86.7257 103.952C91.0788 100.15 95.2447 96.6733 99.5224 92.871C112.66 86.259 126.035 83.8523 139.93 89.3997C142.474 90.4151 144.986 92.0577 146.896 94.0126C154.534 101.827 153.48 109.311 144.188 114.85C136.576 119.387 128.026 120.793 119.602 119.619C110.312 118.326 101.218 115.472 92.1213 112.997C87.7359 111.804 83.5384 109.92 78.7148 108.151C81.3393 106.852 83.9389 105.565 86.7257 103.952ZM128.178 111.574C128.782 110.395 129.559 109.272 129.961 108.028C132.487 100.198 128.229 92.0977 120.733 90.3353C113.501 88.6349 106.237 94.3522 104.666 102.98C103.419 109.834 108.052 115.619 116.3 115.861C120.055 115.971 123.886 113.478 128.178 111.574Z" fill="#F2F1EF"/>
<path d="M146.916 87.104C147.411 87.3257 147.621 87.7251 147.572 88.3081C147.314 88.4916 147.351 88.4356 147.351 88.4356C147.017 88.3474 146.684 88.2591 146.223 87.9293C146.274 87.5524 146.452 87.4171 146.916 87.104Z" fill="#F0DCC7"/>
<path d="M147.299 88.5214C147.512 88.532 147.741 88.5127 147.969 88.4934C147.817 88.611 147.664 88.7286 147.431 88.6408C147.351 88.4356 147.314 88.4915 147.299 88.5214Z" fill="#F0DCC7"/>
<path d="M174.092 93.8308C180.149 93.2275 184.572 95.3181 187.19 100.453C189.739 105.451 188.569 111.614 184.706 115.087C181.094 118.334 175.059 118.692 170.802 115.912C166.849 113.33 164.437 106.681 166.726 101.716C168.118 98.6982 171.33 96.5201 174.092 93.8308ZM172.034 104.999C175.756 105.011 177.303 102.702 177.334 99.4334C177.34 98.7662 174.972 97.259 174.279 97.5452C171.389 98.7388 169.336 100.758 170.993 104.336C171.055 104.469 171.239 104.545 172.034 104.999Z" fill="#0E0E0E"/>
<path d="M57.5104 167.649C57.3689 167.532 57.7632 167.238 57.9856 167.132C58.0227 167.273 57.8373 167.52 57.5104 167.649Z" fill="#1C1517"/>
<path d="M127.93 111.87C123.886 113.478 120.054 115.971 116.299 115.861C108.052 115.619 103.419 109.834 104.666 102.98C106.236 94.3521 113.501 88.6347 120.733 90.3352C128.229 92.0976 132.487 100.198 129.961 108.028C129.559 109.272 128.782 110.395 127.93 111.87ZM117.522 95.2624C113.377 94.3546 111.747 96.8067 111.417 100.279C111.344 101.042 113.328 102.85 114.037 102.693C117.333 101.962 119.063 99.7839 118.311 96.1878C118.278 96.0308 118.177 95.8882 117.522 95.2624Z" fill="#0D0D0C"/>
<path d="M171.7 104.823C171.239 104.545 171.054 104.469 170.993 104.336C169.335 100.758 171.388 98.7385 174.278 97.545C174.971 97.2588 177.34 98.766 177.333 99.4331C177.302 102.702 175.756 105.01 171.7 104.823Z" fill="#DAD3CF"/>
<path d="M117.815 95.5005C118.177 95.8881 118.279 96.0307 118.311 96.1877C119.064 99.7838 117.333 101.962 114.037 102.693C113.329 102.849 111.345 101.042 111.417 100.279C111.747 96.8066 113.377 94.3544 117.815 95.5005Z" fill="#DCD4D2"/>
</g>
<defs>
<clipPath id="clip0_1994_1218">
<rect width="256" height="256" fill="white"/>
</clipPath>
</defs>
</svg>
