<svg width="256" height="256" viewBox="0 0 256 256" fill="none" xmlns="http://www.w3.org/2000/svg">
<g clip-path="url(#clip0_2066_1081)">
<path fill-rule="evenodd" clip-rule="evenodd" d="M128 0C198.697 0 256 57.3026 256 128C256 198.697 198.697 256 128 256C57.3026 256 0 198.697 0 128C0 57.3026 57.3026 0 128 0Z" fill="#1F1A23"/>
<path d="M160.06 148.464C154.063 159.75 142.258 167.42 128.58 167.42C108.905 167.42 92.9776 151.519 92.9776 131.878C92.9776 112.236 108.905 96.3357 128.58 96.3357C142.258 96.3357 154.063 104.005 160.06 115.291H197.098C189.666 84.3637 161.871 61.2925 128.58 61.2925C89.6048 61.2925 58 92.8439 58 131.753C58 170.662 89.6048 202.214 128.58 202.214C161.746 202.214 189.541 179.33 197.036 148.526H160.06V148.464Z" fill="#FFB0C2"/>
<path d="M184.357 88.7286C192.289 82.2438 197.411 72.3918 197.411 61.355C197.411 41.838 181.546 26 161.996 26C142.446 26 126.581 41.838 126.581 61.355C127.268 61.355 127.893 61.355 128.58 61.355C151.315 61.2927 171.49 72.0176 184.357 88.7286Z" fill="#CB8EE9"/>
<path d="M161.996 96.6476C170.49 96.6476 178.235 93.6546 184.357 88.7286C171.49 72.08 151.315 61.355 128.58 61.355C127.893 61.355 127.268 61.355 126.581 61.355C126.581 80.8096 142.446 96.6476 161.996 96.6476Z" fill="#CB65B7"/>
</g>
<defs>
<clipPath id="clip0_2066_1081">
<rect width="256" height="256" fill="white"/>
</clipPath>
</defs>
</svg>
