<svg width="256" height="256" viewBox="0 0 256 256" fill="none" xmlns="http://www.w3.org/2000/svg">
<g clip-path="url(#clip0_2520_726)">
<mask id="mask0_2520_726" style="mask-type:luminance" maskUnits="userSpaceOnUse" x="0" y="0" width="256" height="256">
<path d="M256 0H0V256H256V0Z" fill="white"/>
</mask>
<g mask="url(#mask0_2520_726)">
<path d="M256 128C256 57.3075 198.692 0 128 0C57.3075 0 0 57.3075 0 128C0 198.692 57.3075 256 128 256C198.692 256 256 198.692 256 128Z" fill="black"/>
</g>
<path d="M133.002 84.9197V36.4186C131.506 36.3103 129.995 36.2562 128.473 36.2562C126.949 36.2562 125.439 36.3103 123.943 36.4186V84.9197C125.449 84.9667 126.959 84.9901 128.473 84.9901C129.985 84.9901 131.496 84.9667 133.002 84.9197Z" fill="#90EFE0"/>
<path d="M106.839 83.3656C109.845 83.8276 112.878 84.1886 115.938 84.4485L114.68 37.756C110.736 38.6437 106.89 39.9758 103.206 41.7304L106.839 83.3656Z" fill="#90EFE0"/>
<path d="M94.5493 80.9388C96.7226 81.5 99.3567 82.1803 100.47 82.391L95.7344 45.7593C92.598 47.9051 89.6991 50.4285 87.0938 53.2806L91.7387 80.225C92.3309 80.3659 93.3725 80.6348 94.5493 80.9388Z" fill="#90EFE0"/>
<path d="M183.654 83.6146C166.066 90.9887 147.351 94.7609 128.474 94.7369C126.964 94.7369 125.454 94.7368 123.944 94.6611C107.814 94.1706 91.8609 90.9057 76.6899 84.99C76.1286 84.7711 75.5674 84.548 75.0086 84.3259C74.6557 84.1858 74.3026 84.0454 73.9522 83.9071L73.293 83.6309C73.3382 83.2031 73.3886 82.7753 73.449 82.3476C73.4892 82.0497 73.5295 81.752 73.5748 81.4541C73.7912 79.9163 74.078 78.4001 74.4051 76.9002L75.0191 77.1385C77.4648 78.0951 79.9391 78.9886 82.4419 79.8189C87.0281 81.3386 91.6982 82.6328 96.4522 83.7013C97.1617 83.8638 97.8764 84.0154 98.5909 84.1615C106.952 85.9015 115.432 86.903 123.944 87.156C125.45 87.2029 126.96 87.2264 128.474 87.2264C146.703 87.2492 164.795 83.8312 181.928 77.1276L182.542 76.8894C182.939 78.6763 183.261 80.4902 183.498 82.3367C183.558 82.7592 183.609 83.1869 183.654 83.6146Z" fill="#90EFE0"/>
<path d="M72.1557 89.8636L72.82 90.1397C74.5343 90.8436 76.2638 91.5115 78.0084 92.1432L52.2273 183.292C51.7744 182.556 51.3365 181.802 50.9088 181.05C49.4763 178.542 48.1561 175.964 46.9482 173.317L60.1735 129.517L63.1929 119.472L66.3986 108.854L68.4116 102.258L72.1557 89.8636Z" fill="#90EFE0"/>
<path d="M87.8578 125.878C87.962 127.105 88.064 128.422 88.1721 129.83C88.9036 139.352 89.912 152.48 93.7749 162.346L93.7245 164.365L93.4388 220.27C89.1344 218.34 84.9752 216.057 80.9986 213.437C79.3009 212.322 77.6419 211.147 76.0215 209.912L87.8578 125.878Z" fill="#90EFE0"/>
<path d="M82.2771 93.6213L58.4688 192.433C59.7771 194.132 61.1392 195.782 62.5551 197.382C64.1453 199.186 65.7975 200.919 67.5119 202.58L67.5866 202.654L67.6731 202.741C67.8862 202.955 68.1002 203.169 68.3172 203.36L68.921 203.901L87.6164 95.2783C85.8249 94.762 84.0452 94.2097 82.2771 93.6213Z" fill="#90EFE0"/>
<path d="M210 173.317C208.788 175.964 207.468 178.542 206.039 181.05C205.611 181.802 205.174 182.556 204.72 183.292L178.939 92.1432C180.681 91.5079 182.41 90.8401 184.127 90.1397L184.792 89.8636L188.531 102.258L190.545 108.854L193.75 119.472L196.769 129.517L210 173.317Z" fill="#90EFE0"/>
<path d="M175.949 213.415C177.643 212.299 179.302 211.124 180.925 209.89L169.09 125.867C168.985 127.094 168.883 128.421 168.776 129.827C168.043 139.351 167.035 152.477 163.173 162.324L163.223 164.344L163.508 220.248C167.813 218.319 171.972 216.035 175.949 213.415Z" fill="#90EFE0"/>
<path d="M169.332 95.2837C171.127 94.7638 172.907 94.2097 174.672 93.6213L198.479 192.459C197.168 194.163 195.806 195.813 194.393 197.408C192.803 199.214 191.151 200.947 189.437 202.607C189.286 202.741 189.136 202.892 188.984 203.042C188.867 203.158 188.75 203.276 188.631 203.386L188.027 203.928L169.332 95.2837Z" fill="#90EFE0"/>
<path d="M82.1059 77.458C79.7205 76.6638 77.3586 75.8082 75.0202 74.8913L74.4062 74.6531C75.0986 71.5074 76.0311 68.4285 77.1942 65.4478C77.8418 63.7691 78.563 62.1303 79.3581 60.5311L79.6148 60.022L82.1059 77.458Z" fill="#90EFE0"/>
<path d="M156.479 82.391C157.593 82.1803 160.227 81.5 162.4 80.9388C163.575 80.6352 164.619 80.3657 165.211 80.225L169.856 53.2806C167.25 50.4285 164.352 47.9051 161.215 45.7593L156.479 82.391Z" fill="#90EFE0"/>
<path d="M181.927 74.8913C179.588 75.8082 177.227 76.6638 174.842 77.458L177.332 60.022L177.589 60.5311C178.385 62.1303 179.106 63.7691 179.753 65.4478C180.916 68.4285 181.849 71.5074 182.541 74.6531L181.927 74.8913Z" fill="#90EFE0"/>
<path d="M141.01 84.4485C144.069 84.1886 147.102 83.8276 150.108 83.3656L153.741 41.7304C150.057 39.9758 146.211 38.6437 142.268 37.756L141.01 84.4485Z" fill="#90EFE0"/>
</g>
<defs>
<clipPath id="clip0_2520_726">
<rect width="256" height="256" fill="white"/>
</clipPath>
</defs>
</svg>
