<svg width="256" height="256" viewBox="0 0 256 256" fill="none" xmlns="http://www.w3.org/2000/svg">
<g clip-path="url(#clip0_1358_476)">
<path d="M128 256C198.692 256 256 198.692 256 128C256 57.3075 198.692 0 128 0C57.3075 0 0 57.3075 0 128C0 198.692 57.3075 256 128 256Z" fill="black"/>
<path d="M108.25 182.003C75.2499 177.986 51.9999 154.138 51.9999 123.26C51.9999 110.708 56.5 97.1519 64 88.1145C60.7501 79.8303 61.2501 62.2576 65 54.9775C74.9999 53.7223 88.5 58.994 96.5 66.2741C106 63.2617 116 61.7556 128.25 61.7556C140.5 61.7556 150.5 63.2617 159.5 66.0231C167.25 58.994 181 53.7223 191 54.9775C194.5 61.7556 195 79.3282 191.75 87.8635C199.75 97.4029 204 110.206 204 123.26C204 154.138 180.75 177.484 147.25 181.752C155.75 187.275 161.5 199.325 161.5 213.132V239.24C161.5 246.771 167.75 251.038 175.25 248.026C220.5 230.704 256 185.266 256 129.034C256 57.9898 198.5 6.25973e-07 127.75 0C57 -6.25973e-07 6.23386e-07 57.9898 0 129.034C-4.89015e-07 184.764 35.2499 230.956 82.7499 248.277C89.4999 250.787 96 246.269 96 239.491V219.408C92.5001 220.914 88 221.918 83.9999 221.918C67.4999 221.918 57.7499 212.881 50.7499 196.061C48 189.283 45.0001 185.266 39.25 184.513C36.2501 184.262 35.2499 183.007 35.2499 181.501C35.2499 178.488 40.25 176.229 45.2501 176.229C52.5001 176.229 58.7499 180.748 65.25 190.036C70.2501 197.316 75.4999 200.58 81.7499 200.58C88 200.58 91.9999 198.321 97.7499 192.547C102 188.279 105.25 184.513 108.25 182.003Z" fill="#0FBF3E"/>
</g>
<defs>
<clipPath id="clip0_1358_476">
<rect width="256" height="256" fill="white"/>
</clipPath>
</defs>
</svg>
