<svg width="256" height="256" viewBox="0 0 256 256" fill="none" xmlns="http://www.w3.org/2000/svg">
<g clip-path="url(#clip0_2338_82)">
<path d="M128 256C198.692 256 256 198.692 256 128C256 57.3076 198.692 0 128 0C57.3076 0 0 57.3076 0 128C0 198.692 57.3076 256 128 256Z" fill="#3A1357"/>
<path fill-rule="evenodd" clip-rule="evenodd" d="M197 59H59V197H197V59ZM140.948 169.688H113.668C104.351 169.688 97.4188 167.824 92.872 164.097C88.3998 160.37 86.1637 154.631 86.1637 146.879V112.108C86.1637 104.356 88.3998 98.6163 92.872 94.8895C97.4188 91.088 104.351 89.1875 113.668 89.1875H140.948C142.365 89.1875 143.371 89.523 143.967 90.1936C144.638 90.79 144.974 91.7961 144.974 93.2124V106.741C144.974 108.157 144.638 109.201 143.967 109.872C143.371 110.468 142.365 110.766 140.948 110.766H118.475C116.165 110.766 114.451 111.25 113.332 112.219C112.215 113.114 111.655 114.493 111.655 116.356V142.966C111.655 144.83 112.215 146.208 113.332 147.103C114.451 147.923 116.165 148.333 118.475 148.333H140.948C142.365 148.333 143.371 148.668 143.967 149.339C144.638 149.935 144.974 150.942 144.974 152.357V165.662C144.974 167.079 144.638 168.122 143.967 168.793C143.371 169.389 142.365 169.688 140.948 169.688ZM170.724 146.208H155.888C154.957 146.208 154.272 145.883 153.831 145.232C153.439 144.5 153.243 143.362 153.243 141.817V117.057C153.243 115.512 153.439 114.415 153.831 113.764C154.272 113.032 154.957 112.666 155.888 112.666H170.724C171.655 112.666 172.316 113.032 172.707 113.764C173.148 114.415 173.368 115.512 173.368 117.057V141.817C173.368 143.362 173.148 144.5 172.707 145.232C172.316 145.883 171.655 146.208 170.724 146.208Z" fill="white"/>
</g>
<defs>
<clipPath id="clip0_2338_82">
<rect width="256" height="256" fill="white"/>
</clipPath>
</defs>
</svg>
