<svg width="256" height="256" viewBox="0 0 256 256" fill="none" xmlns="http://www.w3.org/2000/svg">
<path d="M256 127.998C256 161.946 242.514 194.504 218.509 218.509C194.504 242.514 161.946 256 127.998 256C94.0514 255.999 61.495 242.513 37.491 218.509C13.487 194.505 0.00116778 161.95 0 128.002C-2.00871e-08 94.0551 13.4853 61.4975 37.4895 37.4926C61.4936 13.4876 94.0505 0.00116783 127.998 0C161.946 -2.00871e-08 194.503 13.4853 218.508 37.4895C242.512 61.4935 255.999 94.0505 256 127.998Z" fill="#10101E"/>
<path d="M203.59 137.68H51.6602V150.68H203.59V137.68Z" fill="url(#paint0_linear_1799_330)"/>
<path d="M201.98 161.41C201.98 161.41 109.7 161.43 107.17 161.43C106.07 161.43 106.11 165.54 106.09 165.97C105.97 168.74 105.9 168.35 105.68 169.37C105.47 170.39 103.55 175.07 98.4698 175.07C93.3898 175.07 92.2498 170.43 91.9298 169.44C91.6098 168.45 91.6098 167.2 91.4698 166.16C91.3398 165.2 90.9098 163.77 90.0198 162.88C89.8098 162.65 89.5598 162.45 89.2998 162.28C89.1698 162.18 89.0398 162.1 88.8898 162.03C88.7298 161.93 88.5598 161.85 88.3998 161.8C88.2698 161.73 88.1398 161.69 88.0098 161.65C87.8998 161.6 87.7598 161.57 87.6298 161.55C87.5998 161.53 87.5498 161.52 87.4998 161.52C87.3498 161.49 87.2098 161.47 87.0398 161.45C86.9698 161.44 86.8998 161.44 86.8298 161.44H86.9298C86.8398 161.43 86.7498 161.43 86.6698 161.43C86.6298 161.43 86.5898 161.42 86.5498 161.42C86.5198 161.42 86.4898 161.43 86.4498 161.43C86.3498 161.43 86.2498 161.43 86.1498 161.44H86.2598C86.1898 161.44 86.1098 161.44 86.0398 161.45C85.9298 161.45 85.8098 161.47 85.6998 161.5C85.5698 161.52 85.4498 161.55 85.3398 161.58C84.9298 161.68 84.5598 161.82 84.2098 162.02C84.0998 162.09 83.9798 162.15 83.8698 162.23C83.7698 162.28 83.6898 162.34 83.6098 162.41C83.4998 162.49 83.3798 162.59 83.2798 162.69C83.0498 162.89 82.8398 163.12 82.6398 163.36C82.5698 163.47 82.4898 163.59 82.4098 163.72C82.3298 163.83 82.2498 163.98 82.1798 164.11C82.0498 164.37 81.9298 164.67 81.8398 164.96C81.8098 165.11 81.7598 165.25 81.7398 165.4C81.7198 165.45 81.7098 165.51 81.7098 165.56C81.6598 165.82 81.6398 166.08 81.6398 166.34V170.9C81.6398 175.8 77.3698 179.76 72.4098 179.25C68.0798 178.81 64.9098 174.87 64.9098 170.49V163.34C64.9098 163.09 64.8598 162.87 64.7798 162.65C64.7498 162.55 64.6998 162.47 64.6698 162.39C64.5398 162.16 64.3598 161.96 64.1598 161.82C64.0898 161.77 64.0298 161.72 63.9498 161.67C63.9198 161.65 63.8698 161.62 63.8398 161.6C63.7598 161.57 63.6898 161.54 63.6098 161.52C63.5898 161.5 63.5798 161.5 63.5598 161.5C63.4598 161.47 63.3798 161.43 63.2798 161.43C63.2598 161.41 63.2598 161.41 63.2498 161.41C63.1698 161.39 63.0698 161.39 62.9898 161.39H53.2498C52.1898 161.39 51.3398 162.26 51.3398 163.32V173C51.3398 184.59 60.6898 194.03 72.2398 194.03H183C194.56 194.03 203.9 184.58 203.9 173V163.32C203.91 162.28 203.04 161.41 201.98 161.41Z" fill="url(#paint1_linear_1799_330)"/>
<path d="M204.4 121.67C204.4 124.5 202 126.81 199.04 126.81H56.36C53.41 126.81 51 124.52 51 121.7C51 88.23 85.41 61 127.71 61C146.99 61 166.53 67.84 181.33 79.77C195.99 91.58 204.4 106.86 204.4 121.67Z" fill="url(#paint2_linear_1799_330)"/>
<defs>
<linearGradient id="paint0_linear_1799_330" x1="51.6564" y1="144.177" x2="203.591" y2="144.177" gradientUnits="userSpaceOnUse">
<stop stop-color="#9D00FF"/>
<stop offset="0.3189" stop-color="#8B0BFE"/>
<stop offset="0.9558" stop-color="#5C28FB"/>
<stop offset="1" stop-color="#592AFB"/>
</linearGradient>
<linearGradient id="paint1_linear_1799_330" x1="51.3387" y1="177.731" x2="203.908" y2="177.731" gradientUnits="userSpaceOnUse">
<stop stop-color="#9D00FF"/>
<stop offset="0.3189" stop-color="#8B0BFE"/>
<stop offset="0.9558" stop-color="#5C28FB"/>
<stop offset="1" stop-color="#592AFB"/>
</linearGradient>
<linearGradient id="paint2_linear_1799_330" x1="51.0011" y1="93.9052" x2="204.399" y2="93.9052" gradientUnits="userSpaceOnUse">
<stop stop-color="#9D00FF"/>
<stop offset="0.3189" stop-color="#8B0BFE"/>
<stop offset="0.9558" stop-color="#5C28FB"/>
<stop offset="1" stop-color="#592AFB"/>
</linearGradient>
</defs>
</svg>
