<svg width="256" height="256" viewBox="0 0 256 256" fill="none" xmlns="http://www.w3.org/2000/svg">
<g clip-path="url(#clip0_2338_89)">
<path d="M128 256C198.692 256 256 198.692 256 128C256 57.3076 198.692 0 128 0C57.3076 0 0 57.3076 0 128C0 198.692 57.3076 256 128 256Z" fill="#002AAE"/>
<path d="M125.74 111.917C117.748 108.919 116.749 84.947 128.736 84.947C140.722 84.947 139.723 108.919 131.732 111.917C136.727 111.917 154.797 107.928 156.705 86.9442C158.702 64.9691 141.72 48.9863 128.736 37C115.749 48.9863 98.7691 64.9691 100.767 86.9438C102.675 107.928 120.744 111.917 125.74 111.917Z" fill="white"/>
<path d="M164.883 140.156C164.131 134.99 161.539 130.792 158.21 127.77C153.196 123.214 146.722 120.934 140.878 119.615C135.016 118.318 129.741 118.045 126.933 118.043C117.498 118.051 109.338 120.2 103.255 124.158C100.221 126.142 97.7047 128.603 95.9339 131.502C94.162 134.395 93.1742 137.735 93.1792 141.223L93.1859 141.7L93.1937 142.345C93.1778 145.731 92.5622 147.702 91.8583 149.595C91.5006 150.544 91.0919 151.474 90.7144 152.575C90.3408 153.668 89.9987 154.979 90.0002 156.483C89.987 158.635 90.7484 160.852 92.0981 162.983C93.2161 164.778 94.5895 166.183 96.1606 167.103C97.7253 168.034 99.4369 168.416 100.933 168.409C101.195 168.406 101.427 168.367 101.676 168.348V204.443C101.672 206.073 102.038 207.675 102.721 209.074C103.925 211.546 105.94 213.273 108.114 214.503C111.404 216.345 115.255 217.289 119.261 217.889C123.263 218.473 127.419 218.657 131.179 218.659C136.916 218.647 143.536 218.253 149.206 216.581C152.042 215.727 154.697 214.563 156.899 212.628C157.991 211.664 158.958 210.479 159.637 209.074C160.319 207.675 160.685 206.073 160.681 204.443V175.572V165.211C161.469 164.862 162.259 164.393 162.93 163.732C164.186 162.503 164.962 160.91 165.416 159.175C165.873 157.424 166.062 155.452 166.066 153.046C166.064 149.731 165.69 145.577 164.883 140.156ZM152.63 175.572V204.443C152.626 204.933 152.541 205.242 152.391 205.562C152.137 206.099 151.526 206.789 150.28 207.497C148.44 208.555 145.372 209.431 141.929 209.921C138.484 210.427 134.665 210.607 131.179 210.607C125.877 210.621 119.758 210.165 115.451 208.865C113.297 208.233 111.654 207.381 110.802 206.605C110.368 206.22 110.121 205.877 109.967 205.562C109.818 205.242 109.733 204.933 109.729 204.443L109.083 161.481C109.716 160.973 110.278 160.566 110.754 160.281C111.786 159.665 112.373 159.552 112.763 159.55C113.042 159.552 113.301 159.602 113.7 159.772C114.29 160.019 115.136 160.593 116.21 161.424C117.286 162.252 118.592 163.313 120.212 164.43L119.475 163.924L120.213 164.433C123.026 166.38 125.974 167.287 128.799 167.276C131.518 167.276 134.042 166.485 136.368 165.366C138.699 164.241 140.87 162.779 142.977 161.277L140.793 162.839L142.978 161.277C144.045 160.512 144.907 160.014 145.572 159.733C146.241 159.45 146.684 159.374 147.069 159.371C147.689 159.369 148.447 159.597 149.777 160.415C150.559 160.894 151.516 161.576 152.63 162.383V175.572H152.63ZM157.698 156.845C157.568 157.442 157.42 157.77 157.344 157.901C157.249 157.924 157.049 157.958 156.656 157.956H155.668C154.575 157.162 153.571 156.449 152.591 155.843C150.928 154.816 149.145 154.006 147.069 154.003C145.852 154 144.636 154.294 143.464 154.795C142.287 155.301 141.125 156.003 139.856 156.91H139.858C137.844 158.349 135.894 159.639 134.039 160.527C132.181 161.424 130.455 161.911 128.798 161.909C127.076 161.898 125.342 161.426 123.265 160.014L123.257 160.009C121.36 158.706 119.875 157.419 118.328 156.311C117.551 155.757 116.751 155.246 115.834 154.848C114.924 154.449 113.874 154.179 112.763 154.182C111.486 154.179 110.227 154.536 108.987 155.144L108.985 155.068L108.625 155.338C108.41 155.453 108.195 155.556 107.981 155.684C106.706 156.457 105.389 157.508 103.919 158.863L103.12 159.461H103.119L103.077 159.492C102.955 159.586 102.575 159.849 102.14 160.045C101.702 160.25 101.236 160.362 100.933 160.355C100.676 160.35 100.527 160.323 100.244 160.166C99.9659 159.998 99.506 159.639 98.9252 158.716C98.1035 157.372 98.0631 156.853 98.0514 156.483C98.0514 156.203 98.1078 155.839 98.3345 155.173C98.6595 154.185 99.3932 152.638 100.055 150.518C100.717 148.392 101.25 145.695 101.245 142.346C101.245 142.068 101.243 141.787 101.235 141.499L101.231 141.224C101.237 139.221 101.76 137.425 102.807 135.696C104.372 133.119 107.239 130.7 111.362 128.936C115.473 127.172 120.786 126.093 126.932 126.095C129.986 126.082 137.57 126.561 144.192 128.902C147.509 130.061 150.56 131.67 152.769 133.704C154.984 135.761 156.416 138.102 156.92 141.347C157.692 146.516 158.015 150.348 158.014 153.047C158.016 154.784 157.877 156.045 157.698 156.845Z" fill="white"/>
</g>
<defs>
<clipPath id="clip0_2338_89">
<rect width="256" height="256" fill="white"/>
</clipPath>
</defs>
</svg>
