<svg width="256" height="256" viewBox="0 0 256 256" fill="none" xmlns="http://www.w3.org/2000/svg">
<g clip-path="url(#clip0_1758_685)">
<path d="M256 128C256 57.3075 198.692 0 128 0C57.3075 0 0 57.3075 0 128C0 198.692 57.3075 256 128 256C198.692 256 256 198.692 256 128Z" fill="#0052FF"/>
<path d="M128.037 173C103.174 173 83.0365 152.862 83.0365 128C83.0365 103.138 103.174 83 128.037 83C150.312 83 168.799 99.2375 172.362 120.5H217.699C213.874 74.3 175.211 38 128.037 38C78.349 38 38.0365 78.3125 38.0365 128C38.0365 177.688 78.349 218 128.037 218C175.211 218 213.874 181.7 217.699 135.5H172.324C168.762 156.763 150.312 173 128.037 173Z" fill="white"/>
</g>
<defs>
<clipPath id="clip0_1758_685">
<rect width="256" height="256" fill="white"/>
</clipPath>
</defs>
</svg>
