<svg width="256" height="256" viewBox="0 0 256 256" fill="none" xmlns="http://www.w3.org/2000/svg">
<g clip-path="url(#clip0_741_46)">
<path d="M127.915 254C198.102 254 255 197.103 255 126.915C255 56.7277 198.102 -0.17041 127.915 -0.17041C57.7278 -0.17041 0.829712 56.7277 0.829712 126.915C0.829712 197.103 57.7278 254 127.915 254Z" fill="#070A0E"/>
<path d="M127.824 244.491C192.779 244.491 245.437 191.833 245.437 126.878C245.437 61.9217 192.779 9.26465 127.824 9.26465C62.8678 9.26465 10.2108 61.9217 10.2108 126.878C10.2108 191.833 62.8678 244.491 127.824 244.491Z" fill="#070A0E"/>
<path fill-rule="evenodd" clip-rule="evenodd" d="M74.2411 169.529C70.4397 167.204 68.1148 163.064 68.1148 158.618V133.791C68.1148 132.84 68.3694 131.924 68.8445 131.109C70.3209 128.564 73.5961 127.699 76.1417 129.192L132.177 161.859C135.452 163.776 137.472 167.272 137.472 171.073V196.8C137.472 197.971 137.149 199.141 136.538 200.143C134.689 203.163 130.752 204.114 127.731 202.265L74.2411 169.529ZM157.768 122.387C161.044 124.305 163.063 127.801 163.063 131.602V183.801C163.063 185.346 162.231 186.77 160.89 187.517L148.622 194.424C148.469 194.509 148.299 194.577 148.129 194.628V165.643C148.129 161.893 146.161 158.414 142.937 156.479L93.7228 127.036V94.3188C93.7228 93.3686 93.9774 92.4523 94.4525 91.6377C95.9289 89.0921 99.2041 88.2267 101.75 89.72L157.768 122.387ZM182.291 83.8315C185.582 85.7322 187.602 89.2619 187.602 93.0631V169.309C187.602 170.87 186.736 172.313 185.362 173.059L173.737 179.338V126.256C173.737 122.506 171.768 119.044 168.562 117.109L118.262 86.9369V55.8991C118.262 54.9488 118.516 54.0324 118.974 53.2179C120.451 50.6724 123.726 49.807 126.272 51.2833L182.291 83.8315Z" fill="#00D395"/>
</g>
<defs>
<clipPath id="clip0_741_46">
<rect width="256" height="256" fill="white"/>
</clipPath>
</defs>
</svg>
