<svg width="256" height="256" viewBox="0 0 256 256" fill="none" xmlns="http://www.w3.org/2000/svg">
<g clip-path="url(#clip0_2560_1997)">
<path d="M128 256C198.694 256 256 198.694 256 128C256 57.3056 198.694 0 128 0C57.3056 0 0 57.3056 0 128C0 198.694 57.3056 256 128 256Z" fill="#BAE7C9"/>
<path d="M128 256C198.694 256 256 198.694 256 128C256 57.3056 198.694 0 128 0C57.3056 0 0 57.3056 0 128C0 198.694 57.3056 256 128 256Z" fill="#D6FFE4" fill-opacity="0.35"/>
<path d="M72.7044 165.248C70.9421 164.169 69.4861 162.655 68.4754 160.853C67.4647 159.05 66.9332 157.019 66.9316 154.952V131.528C66.9343 130.644 67.1702 129.776 67.6156 129.012C68.061 128.248 68.7001 127.615 69.4683 127.177C70.2366 126.739 71.1068 126.511 71.9911 126.517C72.8755 126.523 73.7426 126.762 74.505 127.21L127.378 158.033C128.898 158.921 130.159 160.192 131.035 161.719C131.911 163.246 132.371 164.976 132.37 166.737V191.014C132.372 192.09 132.088 193.146 131.546 194.075C131.004 195.004 130.224 195.771 129.287 196.298C128.349 196.824 127.288 197.091 126.213 197.071C125.138 197.05 124.087 196.743 123.171 196.181L72.7044 165.248ZM151.548 120.768C153.068 121.656 154.329 122.927 155.205 124.454C156.081 125.981 156.541 127.711 156.54 129.472V178.735C156.54 180.185 155.759 181.529 154.484 182.233L142.912 188.749C142.772 188.817 142.592 188.889 142.452 188.924V161.57C142.452 158.029 140.613 154.743 137.566 152.934L91.1407 125.158V94.2931C91.1407 93.4057 91.3882 92.5225 91.8106 91.7758C92.1439 91.2024 92.5873 90.7007 93.1154 90.2995C93.6435 89.8983 94.2457 89.6056 94.8874 89.4383C95.5292 89.2709 96.1977 89.2322 96.8544 89.3243C97.5112 89.4165 98.1432 89.6377 98.714 89.9753L151.548 120.768ZM174.656 84.3859C176.183 85.2697 177.451 86.5388 178.333 88.0663C179.215 89.5938 179.68 91.3261 179.683 93.0899V165.039C179.683 165.766 179.485 166.48 179.111 167.104C178.737 167.728 178.2 168.238 177.558 168.58L166.588 174.485V124.416C166.589 122.677 166.139 120.968 165.283 119.454C164.427 117.941 163.193 116.675 161.703 115.78L114.249 87.2915V57.9923C114.249 57.1091 114.496 56.2217 114.919 55.4451C115.593 54.2886 116.697 53.4456 117.991 53.1003C119.284 52.7549 120.661 52.9353 121.822 53.6019L174.656 84.3859Z" fill="#00B04C"/>
</g>
<defs>
<clipPath id="clip0_2560_1997">
<rect width="256" height="256" fill="white"/>
</clipPath>
</defs>
</svg>
