<svg width="256" height="256" viewBox="0 0 256 256" fill="none" xmlns="http://www.w3.org/2000/svg">
<path d="M254 128C254 197.588 197.588 254 128 254C58.4121 254 2 197.588 2 128C2 58.4121 58.4121 2 128 2C197.588 2 254 58.4121 254 128Z" fill="black"/>
<path d="M128.009 254C197.592 254 254 197.592 254 128.009C254 58.4269 197.592 2.01904 128.009 2.01904C58.4269 2.01904 2.01904 58.4269 2.01904 128.009C2.01904 197.592 58.4269 254 128.009 254Z" fill="#1A1A1A"/>
<path d="M128.009 247.836C194.188 247.836 247.836 194.188 247.836 128.009C247.836 61.8309 194.188 8.18262 128.009 8.18262C61.831 8.18262 8.18274 61.8309 8.18274 128.009C8.18274 194.188 61.831 247.836 128.009 247.836Z" fill="#DA575D"/>
<path d="M120.611 69.3013L67.8263 98.1941L61.5248 225.102L67.9202 232.139L122.367 246.228L178.811 217.181L191.177 95.6963L120.611 69.3013Z" fill="#F4E3D7"/>
<path d="M86.1932 33.4497C82.4968 30.5357 106.115 25.0185 127.926 27.887C144.356 30.0479 163.933 30.7424 163.933 30.7424L149.826 67.8447L95.8224 61.1826L86.1932 33.4497Z" fill="#1A1A1A"/>
<path d="M98.2225 39.2271C113.964 44.1337 130.576 44.7401 147.42 44.1969L161.12 67.5503L100.708 69.1218L98.2225 39.2271Z" fill="#333333"/>
<path d="M84.9789 30.4982C72.6136 30.2822 65.1774 61.0743 69.9744 81.695C71.3649 83.6731 77.4182 110.999 80.1511 114.531C81.0646 115.712 83.8173 113.021 84.2994 108.214C84.5815 105.401 82.4066 100.959 83.0823 98.5431C84.2825 94.2507 88.1573 92.9676 88.9928 92.8453C92.1918 92.3768 97.2159 91.227 98.39 88.6076C104.759 74.3949 117.282 85.1844 114.328 94.6201C113.814 96.2627 110.714 99.252 107.909 99.9094C104.581 100.69 101.086 97.9782 102.106 99.2227C106.629 104.738 102.679 112.138 101.021 113.681C101.021 113.681 102.67 118.276 104.276 117.952C111.705 116.77 117.446 115.516 124.588 115.508C131.345 115.5 138.364 116.631 144.9 117.952C146.505 118.276 148.155 113.681 148.155 113.681C146.496 112.139 142.546 104.738 147.069 99.2227C148.09 97.9782 144.595 100.69 141.266 99.9094C138.462 99.2521 135.361 96.2627 134.847 94.6201C131.894 85.1841 144.417 74.3954 150.786 88.6076C151.959 91.2269 156.983 92.3768 160.183 92.8453C161.018 92.9676 164.893 94.2508 166.093 98.5431C166.769 100.96 164.594 105.401 164.876 108.214C165.358 113.021 167.632 115.071 169.024 114.531C175.08 112.185 181.62 83.15 179.013 79.7445C181.853 46.8386 169.492 1.69619 140.838 54.7351C134.749 54.3065 129.937 53.6104 124.588 53.6555C119.171 53.7012 113.718 54.0078 108.339 54.7351C98.9361 37.3312 91.0194 30.604 84.98 30.4982H84.9789Z" fill="#DB7801"/>
<path d="M72.9222 42.6169C65.7167 47.7357 64.3926 57.3711 56.3304 72.1543C44.0603 94.6533 55.5376 122.261 47.996 146.242C41.6485 166.425 36.6227 187.159 32.719 210.29C33.6759 211.443 34.6534 212.579 35.6509 213.697C37.7877 216 40.0099 218.222 42.3129 220.359C44.6159 222.496 46.998 224.546 49.4543 226.505C51.9104 228.463 54.4389 230.329 57.0345 232.099C59.6303 233.869 62.2913 235.541 65.0121 237.112C67.7328 238.683 70.5114 240.151 73.3419 241.514C76.1725 242.877 79.053 244.134 81.9775 245.282C84.9019 246.429 87.8683 247.467 90.8704 248.394C93.8723 249.319 96.9078 250.133 99.9705 250.832C103.034 251.531 106.122 252.115 109.228 252.583C112.335 253.052 115.458 253.404 118.59 253.638C118.659 253.641 118.728 253.644 118.797 253.646C118.871 253.654 118.944 253.662 119.017 253.67C122.009 253.884 125.007 253.991 128.005 253.991C131.004 253.991 134.002 253.884 136.994 253.67C139.985 253.456 142.967 253.135 145.935 252.708C148.903 252.282 151.855 251.749 154.785 251.112C157.716 250.474 160.622 249.732 163.499 248.887C166.377 248.042 169.223 247.095 172.033 246.047C174.843 244.999 177.614 243.851 180.342 242.605C183.07 241.36 185.752 240.017 188.384 238.58C191.016 237.143 193.596 235.612 196.118 233.991C198.641 232.37 201.105 230.659 203.506 228.862C205.906 227.065 208.242 225.182 210.509 223.219C212.775 221.255 214.97 219.211 217.091 217.09C218.515 215.633 219.903 214.142 221.255 212.618C216.228 199.075 210.975 186.883 210.319 174.922L205.604 88.9058C204.476 68.3186 192.444 52.6253 175.801 43.5023C182.268 94.2556 171.148 102.768 166.945 113.491C152 151.628 132.884 193.702 121.765 236.871C116.609 192.866 92.0177 143.269 81.7104 112.451C74.127 90.9745 69.5875 64.824 72.9226 42.6152L72.9222 42.6169Z" fill="#333333"/>
<path d="M96.0181 115.644C100.824 115.644 104.719 111.319 104.719 105.983C104.719 100.647 100.824 96.3208 96.0181 96.3208C91.2127 96.3208 87.3171 100.647 87.3171 105.983C87.3171 111.319 91.2127 115.644 96.0181 115.644Z" fill="#1A1A1A"/>
<path d="M153.061 115.644C157.867 115.644 161.762 111.319 161.762 105.983C161.762 100.647 157.867 96.3208 153.061 96.3208C148.256 96.3208 144.36 100.647 144.36 105.983C144.36 111.319 148.256 115.644 153.061 115.644Z" fill="#1A1A1A"/>
<path d="M74.8851 78.3547C81.6837 69.0395 91.2697 62.6235 102.694 58.1185C102.694 58.1185 96.1722 31.9028 86.1932 33.4486C70.574 35.8681 74.8851 78.3547 74.8851 78.3547Z" fill="#F4E3D7"/>
<path d="M174.286 78.3547C167.487 69.0395 157.901 62.6235 146.477 58.1185C146.477 58.1185 152.999 31.9028 162.978 33.4486C178.597 35.8681 174.286 78.3547 174.286 78.3547Z" fill="#F4E3D7"/>
<path d="M124.588 145.011C119.328 145.866 111.548 138.644 111.809 134.264C112.385 124.616 133.067 125.041 133.395 134.264C133.531 138.1 128.662 144.347 124.588 145.011Z" fill="#1A1A1A"/>
<path d="M101.115 144.658C104.1 147.303 107.752 150.009 111.356 149.87C115.155 149.724 118.946 146.669 123.706 147.113C126.949 147.416 129.828 149.386 132.461 149.526C136.018 149.716 139.126 147.861 142.074 146.229C139.56 149.088 137.72 152.051 132.832 151.866C130.361 151.772 126.104 149.157 122.603 148.979C117.749 148.733 114.548 151.7 111.628 151.758C106.631 151.856 103.55 149.379 101.115 144.658Z" fill="#1A1A1A"/>
<path d="M95.8241 61.1827C95.8241 61.1827 92.693 48.1048 87.5558 48.8129C79.2506 49.957 80.2504 72.1363 80.2504 72.1363C84.7021 67.8248 89.842 64.1279 95.8241 61.1827Z" fill="#DFC9C5"/>
<path d="M153.352 61.1827C153.352 61.1827 156.483 48.1048 161.62 48.8129C169.926 49.957 168.926 72.1363 168.926 72.1363C164.474 67.8248 159.334 64.1279 153.352 61.1827Z" fill="#DFC9C5"/>
<path d="M72.9221 42.6167C65.7167 47.7355 62.8335 59.4501 54.7713 74.2333C42.5012 96.7323 53.978 124.34 46.4365 148.321C40.3867 167.558 35.5349 187.288 31.7133 209.122C32.9891 210.678 34.3019 212.204 35.6508 213.697C37.7877 216 40.0099 218.222 42.3128 220.359C44.6158 222.496 46.998 224.546 49.4542 226.505C51.9103 228.463 54.4388 230.329 57.0344 232.099C59.6302 233.869 62.2913 235.541 65.012 237.112C67.7328 238.683 70.5113 240.151 73.3419 241.514C76.1724 242.877 79.0529 244.134 81.9774 245.282C84.9019 246.43 87.8682 247.468 90.8703 248.394C93.8722 249.32 96.9077 250.133 99.9704 250.832C103.033 251.531 106.122 252.115 109.228 252.584C112.335 253.052 115.458 253.404 118.59 253.639C119.112 253.661 119.635 253.681 120.157 253.697L120.154 253.711C122.768 253.886 125.386 253.979 128.005 253.991C131.004 253.991 134.002 253.884 136.993 253.67C139.984 253.456 142.967 253.135 145.935 252.708C148.903 252.282 151.855 251.749 154.785 251.112C157.715 250.474 160.622 249.732 163.499 248.888C166.376 248.043 169.223 247.095 172.033 246.047C174.842 244.999 177.614 243.851 180.341 242.606C183.069 241.36 185.752 240.017 188.384 238.58C191.016 237.143 193.595 235.612 196.118 233.991C198.641 232.37 201.105 230.659 203.505 228.862C205.906 227.065 208.242 225.183 210.508 223.219C212.775 221.255 214.97 219.211 217.091 217.09C218.942 215.222 220.735 213.297 222.466 211.317C217.719 198.7 213.016 187.233 212.397 175.961L207.683 89.9462C206.554 69.359 192.443 52.6252 175.8 43.5031C182.267 94.2564 173.226 103.809 169.024 114.532C152.74 156.083 131.501 202.308 121.053 249.526C119.126 203.107 91.2945 147.838 80.1513 114.532C72.5679 93.0563 69.5875 64.8266 72.9225 42.6178L72.9221 42.6167Z" fill="#1A1A1A"/>
</svg>
