<svg width="256" height="256" viewBox="0 0 256 256" fill="none" xmlns="http://www.w3.org/2000/svg">
<g clip-path="url(#clip0_2338_190)">
<path d="M128 256C198.692 256 256 198.692 256 128C256 57.3076 198.692 0 128 0C57.3076 0 0 57.3076 0 128C0 198.692 57.3076 256 128 256Z" fill="#191919"/>
<path d="M188.278 96.4161L153.004 66.3466C150.462 64.1885 147.203 62.9996 143.829 63H76.9468C75.1152 63 73.3014 63.3511 71.6093 64.0332C69.9172 64.7154 68.3798 65.7153 67.0848 66.9757C65.7897 68.2362 64.7623 69.7324 64.0614 71.3792C63.3605 73.0261 63 74.7912 63 76.5737V149.357C62.9975 151.29 63.4206 153.202 64.2408 154.964C65.061 156.725 66.2593 158.294 67.7551 159.568L103.02 189.637C105.572 191.814 108.852 193.01 112.246 193H179.053C182.752 193 186.3 191.57 188.915 189.024C191.531 186.478 193 183.026 193 179.426V106.643C193.006 104.71 192.588 102.798 191.773 101.034C190.959 99.2702 189.767 97.6958 188.278 96.4161ZM128.013 152.964C122.934 152.966 117.97 151.502 113.747 148.757C109.525 146.012 106.233 142.11 104.289 137.544C102.345 132.979 101.836 127.954 102.826 123.107C103.816 118.26 106.261 113.808 109.852 110.313C113.442 106.818 118.017 104.438 122.998 103.475C127.978 102.511 133.141 103.006 137.832 104.899C142.523 106.79 146.532 109.994 149.352 114.104C152.173 118.214 153.677 123.046 153.676 127.988C153.675 131.269 153.009 134.519 151.717 137.55C150.426 140.582 148.533 143.335 146.148 145.655C143.762 147.974 140.93 149.814 137.815 151.068C134.699 152.322 131.359 152.966 127.987 152.964H128.013Z" fill="#54FE6D"/>
</g>
<defs>
<clipPath id="clip0_2338_190">
<rect width="256" height="256" fill="white"/>
</clipPath>
</defs>
</svg>
