<svg width="256" height="256" viewBox="0 0 256 256" fill="none" xmlns="http://www.w3.org/2000/svg">
<path d="M128 255C198.14 255 255 198.14 255 128C255 57.8598 198.14 1 128 1C57.8598 1 1 57.8598 1 128C1 198.14 57.8598 255 128 255Z" fill="white"/>
<path d="M128 1C57.7851 1 1 57.931 1 128C1 198.069 57.7851 255 128 255C198.215 255 255 198.215 255 128C255 57.931 198.069 1 128 1ZM138.218 133.985L182.741 178.508C186.391 182.157 185.953 188.143 181.866 191.208C168.144 202.01 150.918 208.433 132.233 208.433C84.7908 208.433 46.8368 167.268 52.3839 118.803C56.4713 81.5793 86.6885 51.654 124.059 48.0046C146.101 45.8149 166.538 52.5299 182.303 64.9379C186.245 68.0034 186.391 73.8425 182.887 77.346L138.218 122.015C134.861 125.372 134.861 130.628 138.218 133.985Z" fill="#6697FF"/>
<path d="M201.837 88V117.382L226.671 128.479L201.837 88Z" fill="white" fill-opacity="0.602"/>
<path d="M201.837 88L177 128.479L201.837 117.382V88Z" fill="white"/>
<path d="M201.837 147.519V167.483L226.687 133.103L201.837 147.519Z" fill="white" fill-opacity="0.602"/>
<path d="M201.837 167.483V147.516L177 133.103L201.837 167.483Z" fill="white"/>
<path d="M201.837 142.898L226.671 128.479L201.837 117.388V142.898Z" fill="white" fill-opacity="0.2"/>
<path d="M177 128.479L201.837 142.898V117.388L177 128.479Z" fill="white" fill-opacity="0.602"/>
</svg>
