<svg width="256" height="256" viewBox="0 0 256 256" fill="none" xmlns="http://www.w3.org/2000/svg">
<g clip-path="url(#clip0_2560_1840)">
<path d="M128 256C198.692 256 256 198.692 256 128C256 57.3076 198.692 0 128 0C57.3076 0 0 57.3076 0 128C0 198.692 57.3076 256 128 256Z" fill="#45724D"/>
<path d="M146.632 122.152L137.103 122.391V129.303L146.632 128.826V122.152ZM41.338 150.992L42.291 155.997L39.194 147.178L38.2412 142.173L41.338 150.992ZM146.632 115.24L137.103 115.002V122.152L146.632 121.914V115.24Z" stroke="white" stroke-width="0.4" stroke-miterlimit="10"/>
<path d="M137.102 115.002L129.479 115.478V123.105L137.341 122.39L137.102 115.002ZM157.113 116.432L146.631 115.478V122.152L157.113 122.629V116.432ZM167.833 117.862L157.113 116.193V122.39L167.833 123.582V117.862ZM146.87 108.566L137.341 107.852V115.24L146.87 115.478V108.566ZM38.2406 142.173L39.1935 147.178L37.0495 138.121L36.0967 133.116L38.2406 142.173Z" stroke="white" stroke-width="0.4" stroke-miterlimit="10"/>
<path d="M157.59 109.997L146.87 108.567L146.631 115.479L157.113 116.432L157.59 109.997ZM157.59 109.997L168.31 112.142L168.071 118.101L157.351 116.432L157.59 109.997ZM137.341 107.613H129.241L129.479 115.479L137.341 115.002V107.613Z" stroke="white" stroke-width="0.4" stroke-miterlimit="10"/>
<path d="M129.242 107.613L123.286 108.328L123.524 116.67L129.242 115.479C129.48 115.479 129.242 107.613 129.242 107.613ZM147.347 101.655L137.341 100.225V107.613L146.87 108.328L147.347 101.655Z" stroke="white" stroke-width="0.4" stroke-miterlimit="10"/>
<path d="M158.066 103.8L147.108 101.655L146.869 108.567L157.589 109.997L158.066 103.8ZM137.341 100.225L129.003 99.748L129.241 107.613H137.341V100.225ZM178.315 114.764L168.309 112.142L167.833 117.862L177.838 120.007L178.315 114.764ZM42.2903 155.997L43.9579 160.764L40.8609 152.184L39.1934 147.416C39.1934 147.178 42.2903 155.997 42.2903 155.997Z" stroke="white" stroke-width="0.4" stroke-miterlimit="10"/>
<path d="M169.024 106.422L158.066 103.8L157.589 109.997L168.309 112.142L169.024 106.422ZM36.3347 132.878L37.2877 137.883L36.3347 128.588L35.3818 123.821L36.3347 132.878ZM170.215 74.2456L153.54 69.0019L152.825 68.7636L168.786 74.0073L170.215 74.2456ZM147.584 94.9814L137.102 93.0747V100.225L147.108 101.655L147.584 94.9814ZM129.003 99.7482L122.809 99.9865L123.524 108.329L129.479 107.613C129.241 107.613 129.003 99.7482 129.003 99.7482ZM136.864 64.4735L121.618 61.1367L122.809 62.0902L136.864 65.4269V64.4735Z" stroke="white" stroke-width="0.4" stroke-miterlimit="10"/>
<path d="M152.825 68.7633L136.864 64.4731V65.4266L151.872 69.4785L152.825 68.7633ZM159.019 97.6029L147.822 94.9811L147.346 101.655L158.304 103.8C158.066 103.8 159.019 97.6029 159.019 97.6029ZM137.34 93.3127L128.526 92.3593L129.003 99.9862L137.34 100.463V93.3127ZM179.267 109.52L169.024 106.422L168.309 112.142L178.315 114.763L179.267 109.52Z" stroke="white" stroke-width="0.4" stroke-miterlimit="10"/>
<path d="M168.786 74.0071L152.825 68.7635L152.11 69.4786L167.357 74.4838C167.118 74.4838 168.786 74.0071 168.786 74.0071ZM168.786 74.0071L170.215 74.2454L185.938 80.204L183.794 79.7274L168.786 74.0071ZM170.215 100.701L159.019 97.603L158.066 103.562L169.024 106.183L170.215 100.701ZM148.299 88.7844L137.341 86.4009V93.0745L147.823 94.9812C147.584 94.9812 148.299 88.7844 148.299 88.7844ZM151.872 69.4786L136.864 65.4268V67.5717L150.919 71.3853L151.872 69.4786Z" stroke="white" stroke-width="0.4" stroke-miterlimit="10"/>
<path d="M159.972 91.8826L148.299 88.7842L147.823 94.981L159.019 97.6028L159.972 91.8826ZM136.864 65.4266L122.809 62.3281L124 64.7114L137.103 67.5715L136.864 65.4266ZM128.527 92.1209L121.618 91.8826L122.571 99.9861L128.765 99.7478C129.003 99.7478 128.527 92.1209 128.527 92.1209Z" stroke="white" stroke-width="0.4" stroke-miterlimit="10"/>
<path d="M137.341 86.6392L127.812 85.2091L128.527 92.3594L137.341 93.3129V86.6392ZM39.1937 147.178L40.8613 151.945L38.9556 142.888L37.2881 137.883L39.1937 147.178ZM167.119 74.4838L151.872 69.4786L151.158 71.3853L165.689 76.1521L167.119 74.4838ZM148.775 83.3024L137.103 80.4423V86.4009L148.061 88.7844L148.775 83.3024ZM171.645 95.6962L159.972 92.1211L159.019 97.8414L170.215 100.94L171.645 95.6962ZM151.158 71.6236L137.103 67.8101V71.147L150.443 74.7221L151.158 71.6236Z" stroke="white" stroke-width="0.4" stroke-miterlimit="10"/>
<path d="M148.775 83.3024L161.163 86.8774L159.733 91.8828L148.061 88.7843L148.775 83.3024ZM148.775 83.3024L137.102 80.4423V75.1986L149.49 78.5356L148.775 83.3024ZM124 64.7116L137.102 67.5717L137.341 70.9086L125.191 68.2868L124 64.7116ZM124 64.7116L112.565 62.8049L110.421 60.4214L122.809 62.3283L124 64.7116ZM180.697 104.515L170.215 100.94L169.024 106.422L179.267 109.52L180.697 104.515ZM183.794 79.7273L168.786 74.0071L167.118 74.722L181.412 80.2039L183.794 79.7273ZM35.3818 123.821L36.3347 128.826L36.573 119.769L35.6201 114.525L35.3818 123.821Z" stroke="white" stroke-width="0.4" stroke-miterlimit="10"/>
<path d="M150.443 74.4837L137.103 70.9087V75.1987L149.49 78.5356L150.443 74.4837ZM150.443 74.4837L151.158 71.3853L165.689 76.1521C165.689 76.1521 164.022 79.0122 164.022 78.7739L150.443 74.4837ZM137.103 80.4423L126.859 78.5356L127.574 84.9708L137.103 86.4009V80.4423Z" stroke="white" stroke-width="0.4" stroke-miterlimit="10"/>
<path d="M162.593 82.5872L149.491 78.5355L148.776 83.3023L161.163 86.8774L162.593 82.5872ZM187.844 112.857L179.268 109.52L178.315 114.763L186.653 117.624C186.891 117.624 187.844 112.857 187.844 112.857ZM108.04 59.2298L96.3672 58.2764L99.7023 59.4681L110.184 60.183L108.04 59.2298Z" stroke="white" stroke-width="0.4" stroke-miterlimit="10"/>
<path d="M164.021 79.012L150.443 74.7218L149.728 78.7737L162.592 82.8255L164.021 79.012ZM137.103 70.9084L124.953 68.2866L125.906 73.0534L137.103 75.4369V70.9084Z" stroke="white" stroke-width="0.4" stroke-miterlimit="10"/>
<path d="M173.312 91.1676L161.163 86.8774M173.312 91.1676C173.312 91.1676 171.645 95.6961 171.645 95.4578L159.972 91.8827L161.163 86.8774M173.312 91.1676L175.218 87.1159L162.592 82.5872L161.163 86.8774M137.103 75.1986L125.906 72.8153L126.859 78.5355L137.103 80.4422V75.1986ZM127.812 84.9707L120.189 84.4941L121.618 92.121L128.527 92.3593L127.812 84.9707ZM181.65 80.2039L167.357 74.722L165.689 76.3903L179.506 81.634L181.65 80.2039ZM93.2701 58.5147L83.0266 58.9913L87.3145 58.753L96.6052 58.2764L93.2701 58.5147ZM182.365 99.748L171.645 95.6961L170.215 100.94L180.697 104.515L182.365 99.748ZM199.517 86.4008L185.938 80.2039L183.794 79.7273L196.896 85.9242L199.517 86.4008ZM124.001 64.7115L112.566 62.8049L114.71 66.6184L124.953 68.2868L124.001 64.7115ZM38.9556 100.463L37.0498 105.945L39.6702 97.8413L41.3377 92.5976C41.3377 92.3593 38.9556 100.463 38.9556 100.463Z" stroke="white" stroke-width="0.4" stroke-miterlimit="10"/>
<path d="M121.618 91.883L117.092 92.5979L118.759 100.94L122.809 99.9865C122.571 99.9865 121.618 91.883 121.618 91.883ZM179.268 81.6342L165.451 76.3906L164.021 79.0124L177.124 84.0175L179.268 81.6342Z" stroke="white" stroke-width="0.4" stroke-miterlimit="10"/>
<path d="M177.362 84.0175L164.022 79.0124L162.592 82.5874L175.218 87.1161L177.362 84.0175ZM126.859 78.5358L118.521 77.5823L120.189 84.4943L127.812 85.2092L126.859 78.5358ZM189.273 108.329L180.697 104.515L179.268 109.52L187.844 112.857L189.273 108.329ZM212.38 157.427L217.384 155.52L220.241 154.329L215.24 156.474L212.38 157.427ZM124.953 68.287L114.71 66.6187L116.854 71.6238L125.906 72.8155L124.953 68.287Z" stroke="white" stroke-width="0.4" stroke-miterlimit="10"/>
<path d="M184.27 95.6962L173.312 91.1677M184.27 95.6962L182.365 99.7481M184.27 95.6962L186.653 92.1212L175.218 87.1158L173.312 91.1677M173.312 91.1677L171.645 95.6962L182.365 99.7481M182.365 99.7481L191.179 104.277L189.273 108.328L180.697 104.515L182.365 99.7481ZM125.906 72.8154L116.616 71.3854L118.521 77.3439L126.859 78.2974C126.859 78.5357 125.906 72.8154 125.906 72.8154ZM110.184 60.1832L99.9401 59.4683L103.275 62.0901L112.566 62.805L110.184 60.1832ZM196.896 85.9243L183.794 79.7272L181.65 80.2041L194.276 86.1626L196.896 85.9243ZM43.9581 160.764L45.6257 165.054L42.5287 156.474L40.6231 151.945L43.9581 160.764ZM37.288 138.121L38.9555 143.126L38.0025 134.069L36.335 129.064L37.288 138.121ZM215 156.235L220.004 154.09L222.624 152.422L217.384 154.805L215 156.235ZM120.189 84.4942L114.948 84.7326L117.092 92.5978L121.618 91.8829L120.189 84.4942ZM212.857 94.2662L201.899 87.831L199.516 86.4009L210.236 92.8361L212.857 94.2662ZM189.035 89.261L177.124 83.7791L174.98 86.8775L186.414 91.8829L189.035 89.261Z" stroke="white" stroke-width="0.4" stroke-miterlimit="10"/>
<path d="M191.655 87.3542L179.506 81.634L177.362 84.0173L189.273 89.4992L191.655 87.3542ZM96.6047 58.2764L87.5523 58.753L92.0785 59.9447L100.178 59.4681L96.6047 58.2764ZM230.722 140.981L231.915 137.406L232.868 133.593L231.676 137.644L230.722 140.981ZM217.62 154.805L222.861 152.422L225.244 150.277L220.004 152.898C220.004 152.66 217.62 154.805 217.62 154.805ZM112.566 62.8049L103.275 62.0899L106.61 66.1416L114.71 66.6184L112.566 62.8049ZM35.6201 114.525L36.5729 119.769L38.0022 110.95L37.0493 105.945L35.6201 114.525ZM118.521 77.5821H112.327L114.71 84.7324L119.95 84.4941L118.521 77.5821Z" stroke="white" stroke-width="0.4" stroke-miterlimit="10"/>
<path d="M114.71 66.6184L106.61 66.1416L109.707 71.3852L116.854 71.6235L114.71 66.6184ZM193.323 100.463L184.27 95.6961L182.365 99.748L191.179 104.276L193.323 100.463ZM209.999 92.836L199.278 86.4008L196.658 85.9242L207.14 92.3593C207.378 92.121 209.999 92.836 209.999 92.836ZM195.467 112.38L189.273 108.328L187.844 112.857L193.799 116.432L195.467 112.38Z" stroke="white" stroke-width="0.4" stroke-miterlimit="10"/>
<path d="M116.853 71.6235L109.707 71.3852L112.565 77.582H118.759C118.521 77.582 116.853 71.6235 116.853 71.6235ZM220.004 152.66L225.244 150.038L227.388 147.416L222.147 150.276L220.004 152.66ZM231.438 137.406L232.629 133.354L233.105 129.302L231.915 133.593L231.438 137.406ZM83.026 58.9912L75.4028 60.6598L80.6438 60.4213L87.3139 58.7529L83.026 58.9912ZM195.943 97.3644L186.652 92.121L184.508 95.696L193.561 100.463L195.943 97.3644ZM207.377 92.121L196.896 85.6856L194.275 85.9241L204.281 92.121H207.377ZM40.8607 151.945L42.5283 156.473L40.6226 147.655L38.7168 142.888L40.8607 151.945ZM41.3372 92.3593L39.6696 97.6029L43.243 90.2143L44.9105 84.9707L41.3372 92.3593ZM99.9397 59.4681L91.8401 59.9447L96.3663 62.5665L103.275 62.0899L99.9397 59.4681Z" stroke="white" stroke-width="0.4" stroke-miterlimit="10"/>
<path d="M198.564 94.9811L189.035 89.2608M198.564 94.9811L195.943 97.3644L186.653 92.1209L189.035 89.2608M198.564 94.9811L201.422 93.3127L191.655 87.3541L189.035 89.2608M197.372 108.805L191.179 104.276L189.273 108.328L195.229 112.38L197.372 108.805ZM222.148 150.276L227.388 147.416L229.055 144.318L223.578 147.416L222.148 150.276ZM222.624 102.608L215.24 96.4111L212.857 94.2659L220.241 100.701L222.624 102.608ZM36.335 128.826L38.0025 133.831L38.2408 125.012L36.5733 119.769L36.335 128.826ZM114.948 84.7323L112.089 85.9241L114.948 94.0276L117.092 92.5976L114.948 84.7323ZM53.9634 74.2453L49.1989 79.0121L54.4398 74.007L58.7279 69.4785L53.9634 74.2453ZM203.566 159.572L212.38 157.427L215.24 156.473L206.425 158.857L203.566 159.572ZM231.915 133.593L233.106 129.302V125.25L231.915 129.779V133.593ZM103.275 62.0898L96.3668 62.5665L100.655 66.6183L106.372 66.1415L103.275 62.0898ZM199.755 105.468L193.561 100.463L191.417 104.038L197.611 108.567L199.755 105.468ZM220.004 100.701L212.619 94.2659L209.999 92.8359L217.144 99.2712L220.004 100.701Z" stroke="white" stroke-width="0.4" stroke-miterlimit="10"/>
<path d="M104.943 71.8618L100.893 66.6184L106.61 66.1415L109.707 71.1469M104.943 71.8618L109.707 71.1469M104.943 71.8618L108.754 78.297L112.566 77.3437C112.566 77.582 109.707 71.1469 109.707 71.1469M223.815 147.416L229.295 144.318L230.723 140.981L225.245 144.556C225.245 144.318 223.815 147.416 223.815 147.416ZM206.187 158.619L215.001 156.235L217.621 154.567L208.569 156.95C208.807 157.188 206.187 158.619 206.187 158.619ZM112.566 77.582L108.754 78.5355L112.089 85.9241L114.948 84.7323L112.566 77.582ZM70.1625 62.5665L64.207 65.6649L70.1625 63.5197L75.4034 60.6598L70.1625 62.5665ZM87.3145 58.7529L80.6443 60.4213L86.1233 61.6131L91.6026 59.9447L87.3145 58.7529ZM202.375 102.846L195.943 97.6029L193.561 100.701L199.755 105.706C199.755 105.468 202.375 102.846 202.375 102.846ZM37.0498 105.945L38.0026 111.188L40.6232 103.085L39.6702 97.8412L37.0498 105.945ZM231.915 130.017L233.106 125.489L232.629 121.437L231.439 126.204L231.915 130.017Z" stroke="white" stroke-width="0.4" stroke-miterlimit="10"/>
<path d="M208.807 157.189L217.86 154.805L220.241 152.898L211.19 155.52L208.807 157.189ZM45.6259 165.054L47.2935 168.629L44.4348 160.287L42.529 156.473L45.6259 165.054ZM205.234 100.701L198.802 94.9812L196.182 97.3645L202.614 102.608L205.234 100.701ZM214.287 98.5562L207.378 92.3594L204.52 92.5977L211.427 98.7945L214.287 98.5562ZM38.7175 143.126L40.6233 147.893L39.6703 139.075L37.7646 134.069L38.7175 143.126ZM225.245 144.318L230.723 140.743L231.676 137.168L225.959 141.22L225.245 144.318ZM200.231 113.095L197.373 108.805L195.467 112.619L198.326 116.67L200.231 113.095Z" stroke="white" stroke-width="0.4" stroke-miterlimit="10"/>
<path d="M208.092 99.2715L201.422 93.313L198.563 94.9814L204.996 100.702L208.092 99.2715Z" stroke="white" stroke-width="0.4" stroke-miterlimit="10"/>
<path d="M211.19 98.5563L204.281 92.3594L201.422 93.3129L208.092 99.2714L211.19 98.5563ZM228.102 111.189L224.768 105.23L222.624 102.608L225.721 108.567L228.102 111.189ZM44.9109 84.9708L43.2434 90.2144L47.7696 83.779L49.199 78.5356C49.4371 78.7739 44.9109 84.9708 44.9109 84.9708ZM210.95 155.52L220.004 152.898L222.148 150.515L213.096 153.375L210.95 155.52ZM231.439 126.204L232.629 121.437L231.676 117.624L230.485 122.629L231.439 126.204ZM91.8405 59.9448L86.3615 61.6132L91.8405 64.235L96.3667 62.5666L91.8405 59.9448ZM202.613 110.235L199.755 105.468L197.372 108.805L200.231 113.334L202.613 110.235ZM36.5732 119.769L38.2408 125.012L39.67 116.432L38.0025 111.189L36.5732 119.769ZM225.958 141.22L231.439 137.406L231.915 133.593L226.435 137.645L225.958 141.22ZM58.7279 69.2401L54.4398 73.7686L60.6335 70.1936L64.2069 65.9034L58.7279 69.2401ZM225.721 108.805L222.624 102.846L220.004 100.701L223.101 106.898C223.101 106.66 225.721 108.805 225.721 108.805ZM75.4032 60.66L70.1625 63.7584L76.3563 63.2816L80.6442 60.4214L75.4032 60.66ZM191.893 161.955L203.804 159.572L206.425 158.619L194.514 161.002L191.893 161.955ZM213.096 153.137L222.148 150.277L223.815 147.416L214.524 150.515L213.096 153.137Z" stroke="white" stroke-width="0.4" stroke-miterlimit="10"/>
<path d="M205.234 107.852L202.375 102.608L199.755 105.468L202.614 110.235L205.234 107.852ZM230.246 122.867L231.439 117.862L230.009 114.525L228.819 119.769L230.246 122.867ZM223.101 106.66L220.004 100.463L217.144 99.0329L220.241 105.23L223.101 106.66ZM96.367 62.5664L91.8408 64.2348L97.3198 68.2867L100.893 66.6183L96.367 62.5664ZM108.755 78.5354L107.087 80.4421L111.137 88.069L112.09 85.924L108.755 78.5354Z" stroke="white" stroke-width="0.4" stroke-miterlimit="10"/>
<path d="M208.092 106.183L205.234 100.702L202.375 102.847L205.234 108.09C205.234 107.852 208.092 106.183 208.092 106.183ZM194.275 161.241L206.187 158.857L208.806 157.427L196.658 160.049L194.275 161.241ZM226.435 137.645L231.915 133.593V129.779L226.435 134.069V137.645ZM100.893 66.6187L97.3193 68.287L102.56 73.7688L105.181 72.1004L100.893 66.6187Z" stroke="white" stroke-width="0.4" stroke-miterlimit="10"/>
<path d="M104.943 71.8618L102.322 73.5302L107.087 80.2039L108.754 78.297L104.943 71.8618ZM211.19 104.992L208.33 99.2713L205.234 100.701L208.092 106.183L211.19 104.992ZM39.6699 97.6029L40.623 102.846L44.1961 95.4577L43.2433 90.2143L39.6699 97.6029ZM214.524 150.515L223.815 147.416L225.005 144.318L215.716 147.655L214.524 150.515ZM217.383 104.515L214.286 98.5562H211.19L214.286 104.515H217.383Z" stroke="white" stroke-width="0.4" stroke-miterlimit="10"/>
<path d="M214.287 104.276L210.951 98.5473L208.093 99.0331L210.951 104.753C211.19 104.992 214.287 104.276 214.287 104.276ZM38.0029 133.831L39.9088 138.836L40.1471 130.018L38.2412 125.012L38.0029 133.831ZM228.819 119.531L230.009 114.287L228.103 111.188L226.912 116.67L228.819 119.531ZM196.658 159.81L208.807 157.189L210.951 155.52L198.802 158.142L196.658 159.81ZM80.6446 60.4214L76.3567 63.2815L83.0269 64.235L86.362 61.3748L80.6446 60.4214ZM226.436 134.308L231.916 130.018L231.439 126.442L225.959 130.971L226.436 134.308ZM49.4376 78.7739L48.0084 84.0173L53.4874 78.7739L54.6785 73.7688L49.4376 78.7739Z" stroke="white" stroke-width="0.4" stroke-miterlimit="10"/>
<path d="M226.912 116.67L228.103 111.188L225.722 108.567L224.531 114.049C224.531 114.287 226.912 116.67 226.912 116.67ZM215.954 147.655L225.245 144.318L226.198 140.981L216.907 144.556L215.954 147.655ZM64.2073 65.9033L60.634 70.1935L67.3043 67.81L70.163 63.7583L64.2073 65.9033ZM47.2936 168.629L48.4848 171.489L45.6261 163.624L44.1969 160.287L47.2936 168.629ZM198.802 158.142L210.951 155.282L212.857 153.137L200.708 155.997L198.802 158.142ZM204.281 112.857L205.234 108.09L202.614 110.473L201.661 115.002L204.281 112.857ZM38.0029 110.95L39.6707 116.194L42.0527 108.328L40.3852 102.846L38.0029 110.95ZM177.839 164.577L191.894 161.955L194.514 161.24L180.221 163.862L177.839 164.577Z" stroke="white" stroke-width="0.4" stroke-miterlimit="10"/>
<path d="M224.531 114.287L225.721 108.805L223.101 106.898L221.908 112.619L224.531 114.287ZM225.721 130.733L231.199 126.204L230.246 122.629L224.768 127.396L225.721 130.733ZM40.623 147.655L42.5286 151.945L41.5758 143.365L39.6699 138.836L40.623 147.655ZM207.139 111.189L208.092 106.183L205.234 108.09L204.281 112.857L207.139 111.189ZM86.3614 61.6133L83.0263 64.2351L89.4582 66.8569L91.8404 64.2351L86.3614 61.6133ZM216.667 144.556L225.958 140.981L226.435 137.645L217.144 141.458L216.667 144.556Z" stroke="white" stroke-width="0.4" stroke-miterlimit="10"/>
<path d="M222.148 112.38L223.338 106.66L220.481 105.23L219.288 110.95L222.148 112.38ZM200.708 155.997L213.096 153.137L214.763 150.515L202.375 153.613L200.708 155.997ZM209.999 110.235L210.95 104.992L207.854 106.183L206.901 111.189L209.999 110.235ZM180.221 163.862L194.514 161.241L196.896 160.049L182.603 162.909L180.221 163.862Z" stroke="white" stroke-width="0.4" stroke-miterlimit="10"/>
<path d="M217.384 104.515L220.481 105.23L219.288 110.95L216.191 110.235L217.384 104.515ZM217.384 104.515L216.191 109.997C216.191 109.997 213.096 109.759 213.334 109.997L214.287 104.515H217.384ZM213.097 109.759L214.048 104.277L210.951 104.753L210 109.997L213.097 109.759ZM224.768 127.396L230.248 122.629L228.819 119.292L223.339 124.059L224.768 127.396ZM107.087 80.4425V83.0643L111.852 90.6912L111.137 87.8311L107.087 80.4425ZM43.2438 90.2146L44.1966 95.458L48.9612 89.2612L48.0083 84.0176L43.2438 90.2146ZM124.001 120.961L125.668 125.251L126.859 134.785L125.192 130.494L124.001 120.961ZM91.841 64.2352L89.4587 66.857L95.6524 70.9089L97.32 68.2871L91.841 64.2352ZM38.2412 125.013L40.1471 130.018L41.5763 121.676L39.6704 116.432L38.2412 125.013ZM52.2962 179.116L53.011 180.785L49.4376 173.634L48.4847 171.489L52.2962 179.116ZM217.145 141.458L226.436 137.645V134.07L217.145 137.883V141.458ZM70.1627 63.7586L67.3041 67.8103L74.2125 67.0953L76.3565 63.0435C76.5948 63.2818 70.1627 63.7586 70.1627 63.7586ZM202.376 153.614L214.764 150.515L215.954 147.655L203.567 150.754L202.376 153.614ZM182.365 162.671L196.658 159.811L198.802 158.142L184.271 161.002C184.509 161.002 182.365 162.671 182.365 162.671ZM44.435 160.526L45.8642 163.862L43.9585 155.759L42.5291 151.945L44.435 160.526ZM73.4978 201.521L72.7833 201.282L67.3041 197.707L67.5424 197.945L73.4978 201.521Z" stroke="white" stroke-width="0.4" stroke-miterlimit="10"/>
<path d="M67.5415 197.945L67.3032 197.706L62.0625 193.178L67.5415 197.945ZM223.338 124.535L228.818 119.769L226.911 116.909L221.433 121.914L223.338 124.535ZM102.322 73.7686L101.607 76.3902L107.086 83.0638V80.442L102.322 73.7686Z" stroke="white" stroke-width="0.4" stroke-miterlimit="10"/>
<path d="M97.3194 68.2866L95.8902 70.9084L101.846 76.3902L102.56 73.7684C102.322 73.7684 97.3194 68.2866 97.3194 68.2866ZM54.6779 73.7684L53.4868 78.7737L59.9189 74.9601L60.6334 70.1933L54.6779 73.7684ZM79.4529 204.38L78.5001 203.904L72.7828 201.282L73.4975 201.52L79.4529 204.38ZM163.783 166.96L178.791 164.1L176.409 164.577L161.401 167.437L163.783 166.96ZM62.0628 192.94L57.2983 187.696L57.0602 187.219L62.0628 192.94ZM216.907 138.121L226.198 134.307L225.721 130.971L216.43 134.784L216.907 138.121ZM221.434 121.675L226.912 116.67L224.531 114.287L219.051 119.292L221.434 121.675ZM184.508 161.002L199.04 158.142L200.946 155.997L186.414 158.857L184.508 161.002ZM203.328 150.991L215.716 147.893L216.43 144.795L204.043 148.131L203.328 150.991ZM202.375 115.955L207.139 111.427L204.281 113.095L199.516 117.385L202.375 115.955ZM85.6467 205.81L84.4555 205.333L78.5001 203.665L79.4529 204.142L85.6467 205.81ZM39.9082 138.836L41.8141 143.365L42.0522 134.784L40.1465 130.017L39.9082 138.836ZM40.3846 102.846L42.0522 108.328L45.6255 101.178L43.958 95.6959L40.3846 102.846Z" stroke="white" stroke-width="0.4" stroke-miterlimit="10"/>
<path d="M219.288 119.292L224.768 114.287L222.148 112.38L216.907 117.386L219.288 119.292ZM205.234 115.002L210.237 110.235L207.14 111.189L202.375 115.717L205.234 115.002ZM57.0606 187.22L57.2987 187.697L53.2489 181.5L52.7725 180.785L57.0606 187.22ZM76.5946 63.2817L74.4507 67.3336L81.5972 68.2871L83.0267 64.2352L76.5946 63.2817ZM216.431 134.785L225.722 130.733L224.768 127.396L215.477 131.448C215.477 131.686 216.431 134.785 216.431 134.785ZM216.668 117.386L221.909 112.38L219.051 110.95L214.047 115.956L216.668 117.386Z" stroke="white" stroke-width="0.4" stroke-miterlimit="10"/>
<path d="M208.093 114.764L213.096 109.759L209.999 110.235L204.996 115.002L208.093 114.764ZM186.176 159.095L200.708 156.235L202.137 153.852L187.368 156.95L186.176 159.095ZM214.048 115.955L219.288 110.95L216.193 110.235L210.951 115.24L214.048 115.955ZM211.19 115.002L216.431 109.997L213.334 109.759L208.33 114.764L211.19 115.002ZM204.281 147.893L216.668 144.556L217.144 141.22L204.52 144.795L204.281 147.893ZM121.618 111.665L123.286 115.955L125.668 125.251L124.001 120.96L121.618 111.665ZM91.8408 206.049L90.1733 205.334L84.4559 205.095L85.6471 205.572L91.8408 206.049ZM42.529 151.945L43.9584 155.52L43.2437 147.178L41.8145 143.365L42.529 151.945ZM47.7699 84.0174L48.7227 89.261L54.2019 84.2559L53.2489 79.0123C53.4872 78.774 47.7699 84.0174 47.7699 84.0174ZM215.477 131.686L224.768 127.396L223.338 124.297L214.048 128.588L215.477 131.686ZM72.7832 201.282L72.0684 199.852L66.8275 196.515L67.0658 197.707L72.7832 201.282ZM105.181 202.235L103.514 202.95L97.7964 205.095L99.2257 204.619L105.181 202.235Z" stroke="white" stroke-width="0.4" stroke-miterlimit="10"/>
<path d="M62.0628 192.225L66.8271 196.515L67.3036 197.707L62.0628 193.178M62.0628 192.225V193.178M62.0628 192.225L57.7747 187.22L57.5366 187.696C57.2983 187.696 62.0628 193.178 62.0628 193.178M60.6334 70.1934L59.6806 74.9602L66.589 72.5769L67.3036 67.8099L60.6334 70.1934ZM39.6699 116.432L41.5758 121.675L43.958 113.81L42.0522 108.328L39.6699 116.432ZM53.0104 180.784L53.4868 181.499L50.1518 174.826L49.4371 173.634L53.0104 180.784ZM78.5001 203.904L77.5471 202.474L72.0681 200.09L72.7828 201.52L78.5001 203.904ZM187.605 156.712L202.375 153.613L203.566 150.753L188.796 153.852L187.605 156.712ZM204.519 144.795L217.144 141.458V138.121L204.519 141.696V144.795ZM83.0263 64.2349L81.5969 68.0484L88.7437 70.4317L89.4582 66.8567L83.0263 64.2349ZM170.215 162.67L185.223 160.049L183.317 161.955L168.31 164.577L170.215 162.67ZM150.919 169.106L166.166 166.007L163.783 166.961L148.537 170.059L150.919 169.106ZM214.047 128.587L223.338 124.297L221.434 121.437L212.143 125.727L214.047 128.587ZM107.087 83.064L108.516 86.4007L113.757 94.0276L111.851 90.6909L107.087 83.064ZM45.6256 163.624L46.5784 166.007L44.9108 158.38L43.7197 155.52C43.958 155.52 45.6256 163.624 45.6256 163.624ZM84.4556 205.095L83.0263 203.665L77.5471 202.235L78.5001 203.665L84.4556 205.095ZM97.7961 205.095L95.8902 204.619L90.1729 205.334L91.8404 206.049L97.7961 205.095Z" stroke="white" stroke-width="0.4" stroke-miterlimit="10"/>
<path d="M212.143 125.966L221.434 121.676L219.288 119.292L210.236 123.821L212.143 125.966ZM89.4581 66.8569L88.7436 70.432L95.6519 74.4839V70.9088C95.8902 70.9088 89.4581 66.8569 89.4581 66.8569ZM196.658 119.292L205.234 115.241L202.375 115.955L193.799 120.007L196.658 119.292ZM204.519 141.696L217.144 138.121L216.43 134.785L203.804 138.36L204.519 141.696ZM57.5366 187.697L57.7747 187.22L53.9632 181.5L53.4868 181.738C53.4868 181.5 57.5366 187.697 57.5366 187.697ZM188.796 153.852L203.566 150.754L204.281 147.655L189.511 150.754L188.796 153.852ZM40.1465 130.018L42.0521 134.785L43.4816 126.681L41.814 121.676L40.1465 130.018ZM101.846 76.3905L102.56 79.9658L108.516 86.6393L107.087 83.3025C107.087 83.0642 101.846 76.3905 101.846 76.3905ZM171.883 160.525L186.891 157.904L185.223 160.049L170.215 162.671L171.883 160.525ZM125.668 125.489L126.382 130.733L127.574 140.266L126.859 135.023L125.668 125.489ZM153.301 167.676L168.548 164.577L166.404 166.007L151.157 169.106C150.919 169.106 153.301 167.676 153.301 167.676Z" stroke="white" stroke-width="0.4" stroke-miterlimit="10"/>
<path d="M66.8273 196.515L67.3037 194.608L72.0682 197.707V199.852L66.8273 196.515ZM66.8273 196.515L67.0656 194.608L62.5394 190.557L61.8247 192.225L66.8273 196.515ZM95.8904 70.9087V74.4837L102.561 79.7274L101.846 76.1521C101.846 76.3904 95.8904 70.9087 95.8904 70.9087ZM209.999 123.821L219.051 119.292L216.43 117.385L207.378 121.914L209.999 123.821ZM44.1963 95.6961L45.6257 101.178L50.1519 94.9812L48.7225 89.261L44.1963 95.6961ZM199.516 119.054L208.33 114.764L205.472 115.002L196.896 119.054C196.658 119.292 199.516 119.054 199.516 119.054ZM118.283 102.608L119.713 106.898L123.286 115.955L121.618 111.665L118.283 102.608Z" stroke="white" stroke-width="0.4" stroke-miterlimit="10"/>
<path d="M207.616 121.914L216.668 117.385L214.047 115.955L204.996 120.246L207.616 121.914ZM202.375 119.53L211.19 115.24L208.092 115.002L199.278 119.292L202.375 119.53ZM90.1729 205.334L88.5054 203.665H83.0264L84.4556 205.334H90.1729Z" stroke="white" stroke-width="0.4" stroke-miterlimit="10"/>
<path d="M204.996 120.484L214.048 116.194L211.19 115.24L202.375 119.53L204.996 120.484ZM77.5475 202.235L77.0711 199.852L72.0685 197.707V199.852L77.5475 202.235ZM67.3042 67.8101L66.5894 72.5772L73.9743 71.862L74.2124 67.0952L67.3042 67.8101ZM110.66 198.66L108.755 199.375L103.514 202.712L105.181 201.997L110.66 198.66ZM203.805 138.36L216.431 134.785L215.477 131.686L203.09 135.261L203.805 138.36ZM62.0632 192.225L62.778 190.557L58.7282 185.79L57.7751 187.22L62.0632 192.225ZM189.511 150.992L204.281 147.893L204.52 144.795L189.75 147.893L189.511 150.992ZM41.5762 143.365L43.0056 147.178L43.2437 139.075L41.8145 134.785L41.5762 143.365ZM136.626 172.443L151.158 169.106L148.776 170.059L134.244 173.396L136.626 172.443ZM173.074 157.904L188.082 155.282L186.891 157.904L171.883 160.525L173.074 157.904ZM155.208 165.769L170.216 162.909L168.31 164.816L153.064 167.676C153.302 167.676 155.208 165.769 155.208 165.769ZM93.9848 177.448L106.134 173.873L103.514 171.489L91.1261 174.826L93.9848 177.448ZM53.4872 181.5L54.202 181.261L50.8669 175.064L50.1522 174.826L53.4872 181.5ZM53.4872 78.774L54.4401 84.0174L60.6338 80.2041L59.681 74.9605C59.681 75.1988 53.4872 78.774 53.4872 78.774Z" stroke="white" stroke-width="0.4" stroke-miterlimit="10"/>
<path d="M100.178 180.784L103.513 181.499L106.848 180.308M83.0263 203.665L82.0733 201.044L77.0707 199.852L77.5471 202.235L83.0263 203.665ZM91.1257 174.826L103.513 171.489L101.131 168.629L88.5053 171.727L91.1257 174.826ZM103.513 202.95L101.131 202.474L95.8902 204.619L97.796 205.095L103.513 202.95ZM202.852 135.261L215.24 131.686L214.047 128.587L201.66 132.401L202.852 135.261ZM72.068 197.707L73.0209 194.846L68.4947 191.748L67.0654 194.37C67.3037 194.608 72.068 197.707 72.068 197.707Z" stroke="white" stroke-width="0.4" stroke-miterlimit="10"/>
<path opacity="0.1" d="M57.7744 187.22L58.7274 185.79L55.154 180.546L53.9629 181.5L57.7744 187.22Z" stroke="white" stroke-width="0.4" stroke-miterlimit="10"/>
<path d="M43.9586 155.52L44.9114 158.38L44.1967 150.515L43.0056 147.178L43.9586 155.52ZM67.3041 194.608L68.7336 191.987L64.6838 188.412L63.0162 190.795C62.7781 190.557 67.3041 194.608 67.3041 194.608ZM42.0527 108.329L43.9586 113.81L47.5318 106.66L45.6261 101.178L42.0527 108.329ZM88.5059 171.728L101.132 168.629L99.2259 165.531L86.362 168.391L88.5059 171.728ZM87.5531 183.406L97.0819 179.355L93.9849 177.448L83.9797 181.261L87.5531 183.406ZM138.771 170.774L153.064 167.437L150.92 168.868L136.388 172.204C136.627 172.443 138.771 170.774 138.771 170.774Z" stroke="white" stroke-width="0.4" stroke-miterlimit="10"/>
<path d="M83.9789 181.261L93.9842 177.448L91.1255 174.826L80.8822 178.401L83.9789 181.261ZM77.0705 199.852L77.5469 196.754L73.0207 194.847L72.0678 197.707L77.0705 199.852ZM189.749 147.893L204.519 144.795V141.696L189.749 144.795V147.893ZM95.89 204.619L93.746 202.95L88.5051 203.904L90.1727 205.572L95.89 204.619ZM113.757 94.0278L114.948 98.318L119.474 106.66L118.045 102.37L113.757 94.0278ZM90.8874 184.836L100.178 180.785L96.8428 179.355L87.314 183.406C87.5523 183.406 90.8874 184.836 90.8874 184.836ZM156.875 163.386L171.882 160.525L170.215 162.671L155.207 165.531L156.875 163.386ZM174.027 155.043L189.034 152.422L188.082 155.282L173.074 157.904L174.027 155.043ZM62.7773 190.557L64.4449 188.173L60.6332 183.883L58.7275 186.028L62.7773 190.557ZM201.66 132.401L214.047 128.588L212.143 125.966L199.754 129.779L201.66 132.401Z" stroke="white" stroke-width="0.4" stroke-miterlimit="10"/>
<path d="M71.5919 188.412L75.6417 191.033L73.0212 194.608L68.495 191.748M71.5919 188.412L68.495 191.748M71.5919 188.412L67.7805 185.075L64.4454 187.935C64.4454 188.173 68.495 191.748 68.495 191.748M80.8825 178.401L91.126 174.826L88.5056 171.728L78.0238 175.064L80.8825 178.401ZM184.985 122.629L196.658 119.054L193.799 119.769L182.365 123.106L184.985 122.629ZM46.817 166.246L47.5315 167.914L45.864 160.525L44.9111 158.38L46.817 166.246ZM88.5056 203.904L87.3145 201.282L82.3119 201.044L83.0266 203.665L88.5056 203.904ZM74.4506 67.3335L74.2123 72.1003L81.8355 72.8154V68.0486L74.4506 67.3335ZM80.4061 187.22L87.5528 183.168L84.2177 181.023L76.8329 184.836L80.4061 187.22Z" stroke="white" stroke-width="0.4" stroke-miterlimit="10"/>
<path d="M76.5944 184.836L83.9793 181.023L80.8823 178.162L73.021 181.738L76.5944 184.836ZM94.6992 185.789L103.752 181.499L100.417 180.784L91.1259 184.836L94.6992 185.789ZM82.0734 201.043L82.3117 197.706L77.5472 196.515L77.0708 199.613C77.0708 199.852 82.0734 201.043 82.0734 201.043ZM123.286 115.955L124 121.199L126.383 130.494L125.668 125.25L123.286 115.955ZM120.904 185.789L119.474 188.173L115.424 193.893L116.854 191.748L120.904 185.789ZM75.6416 191.271L80.4059 187.458L76.5944 185.074L71.5918 188.65L75.6416 191.271Z" stroke="white" stroke-width="0.4" stroke-miterlimit="10"/>
<path d="M84.2173 189.126L90.8875 185.074L87.3141 183.644L80.1675 187.696C80.4056 187.219 84.2173 189.126 84.2173 189.126ZM77.5469 196.753L79.6911 193.178L75.403 191.271L72.7826 194.846C73.0207 194.608 77.5469 196.753 77.5469 196.753ZM50.1516 174.826L50.8663 175.064L48.4841 168.391L47.5312 167.675L50.1516 174.826ZM199.754 129.779L212.143 125.966L209.999 123.582L197.849 127.396L199.754 129.779ZM71.5915 188.65L76.5941 185.074L73.259 181.976L67.78 185.313L71.5915 188.65ZM78.0236 175.064L88.5052 171.727L86.3612 168.391L75.6413 171.25L78.0236 175.064Z" stroke="white" stroke-width="0.4" stroke-miterlimit="10"/>
<path d="M73.2596 181.976L81.1208 178.401L78.0239 175.064L69.9245 178.163L73.2596 181.976ZM64.4452 188.173L67.7805 185.313L64.4452 181.261L60.8721 183.883L64.4452 188.173Z" stroke="white" stroke-width="0.4" stroke-miterlimit="10"/>
<path opacity="0.1" d="M53.963 181.499L55.1541 180.546L52.2954 174.587L50.8662 175.064L53.963 181.499Z" stroke="white" stroke-width="0.4" stroke-miterlimit="10"/>
<path d="M79.9298 192.94L84.2179 188.888L80.4062 187.22L75.6419 191.033C75.6419 191.272 79.9298 192.94 79.9298 192.94ZM189.511 144.795L204.52 141.696L204.043 138.598L189.035 141.696L189.511 144.795ZM58.7282 185.79L60.6338 183.645L57.2987 178.639L54.9165 180.308L58.7282 185.79ZM140.914 168.867L155.208 165.769L153.302 167.676L139.009 171.012C138.77 170.774 140.914 168.867 140.914 168.867ZM41.5762 121.676L43.2437 126.681L45.626 119.054L43.9584 113.81L41.5762 121.676ZM197.849 127.396L210.237 123.582L207.855 121.676L195.705 125.489L197.849 127.396ZM67.7806 185.075L73.2596 181.738L70.1626 178.163L64.4455 181.023L67.7806 185.075ZM190.465 123.106L202.375 119.53L199.517 119.054L187.606 122.629L190.465 123.106ZM88.2674 189.841L94.6995 185.551L91.1261 184.598L84.456 188.65L88.2674 189.841ZM115.425 193.893L113.281 194.847L108.755 199.375L110.66 198.66L115.425 193.893ZM48.7227 89.261L50.1522 94.9812L55.6312 89.9759L54.4401 84.2559L48.7227 89.261ZM174.504 151.945L189.511 149.323L189.035 152.422L174.027 155.044L174.504 151.945ZM82.312 197.945L84.2179 194.132L79.9298 193.178L77.7858 196.753L82.312 197.945ZM195.467 125.489L207.616 121.676L204.996 120.246L192.847 124.059L195.467 125.489ZM158.066 160.764L173.074 158.142L171.883 160.764L156.875 163.385L158.066 160.764Z" stroke="white" stroke-width="0.4" stroke-miterlimit="10"/>
<path d="M193.085 124.059L205.234 120.246L202.375 119.292L190.464 122.867L193.085 124.059ZM84.4557 164.577L97.5579 161.955L96.3668 158.38L83.2646 160.764L84.4557 164.577ZM84.2174 194.132L88.2672 190.08L84.2174 189.127L79.9295 193.178L84.2174 194.132ZM69.9243 178.163L78.0237 175.064L75.6416 171.251L67.3037 174.111L69.9243 178.163ZM108.516 86.4009L109.707 90.9294L115.186 98.5563L113.757 94.0278L108.516 86.4009ZM87.3144 201.282L87.0761 197.945L82.3118 197.707L82.0735 201.044L87.3144 201.282Z" stroke="white" stroke-width="0.4" stroke-miterlimit="10"/>
<path d="M93.7467 202.95L92.0791 200.567L87.3146 201.282L88.5057 203.904L93.7467 202.95ZM93.7467 202.95L98.7493 201.043L101.132 202.474L95.8906 204.619L93.7467 202.95ZM75.6418 171.25L86.3618 168.391L84.4559 164.577L73.4979 167.199L75.6418 171.25ZM60.6338 183.883L64.2072 181.261L61.3485 176.732L57.2987 178.878C57.537 178.878 60.6338 183.883 60.6338 183.883ZM108.754 199.613L106.134 199.375L101.37 202.474L103.752 202.95L108.754 199.613ZM59.681 75.1984L60.6338 80.4421L67.5422 78.0586L66.5894 72.5768L59.681 75.1984ZM81.5973 68.0483V72.8151L89.2205 75.1984L88.9821 70.6699L81.5973 68.0483ZM64.4455 181.261L70.1626 178.401L67.5422 174.349L61.5868 176.971L64.4455 181.261ZM189.035 141.696L203.805 138.359L202.852 135.261L188.082 138.598L189.035 141.696ZM41.8145 134.784L43.2437 139.074L44.4348 131.209L43.0056 126.68L41.8145 134.784ZM92.0791 190.08L98.2729 185.789L94.6995 185.551L88.2674 189.841L92.0791 190.08Z" stroke="white" stroke-width="0.4" stroke-miterlimit="10"/>
<path d="M52.2956 174.587L54.916 173.396L57.5365 178.878L55.1543 180.546L52.2956 174.587ZM52.2956 174.587L50.8664 175.064L48.4841 168.39M52.2956 174.587L50.1517 168.39H48.4841M48.4841 168.39L47.5311 167.675L46.1019 160.287L47.0547 161.479L48.4841 168.39ZM88.5052 194.131L87.0758 197.945H82.3115L84.2171 194.131M88.5052 194.131H84.2171M88.5052 194.131L92.0786 190.08L88.2669 189.841L84.2171 194.131M73.7355 167.199L75.6413 171.25L67.3034 174.111L65.1595 169.582L73.7355 167.199ZM73.7355 167.199L84.6938 164.577L83.2643 160.525M73.7355 167.199L72.3063 162.67L83.2643 160.525M83.2643 160.525L96.3665 158.38L95.6518 154.567L82.3115 156.473L83.2643 160.525ZM142.581 166.245L156.636 163.147L154.969 165.53L140.676 168.629C140.914 168.867 142.581 166.245 142.581 166.245ZM102.56 79.9654L103.513 84.4939L109.707 90.9291L108.516 86.4006L102.56 79.9654ZM174.503 148.846L189.511 146.463V149.561L174.503 152.183V148.846ZM43.0049 147.178L44.196 150.276L44.4343 142.411L43.2432 138.836L43.0049 147.178ZM88.7433 70.6699L88.9817 75.1984L96.3665 79.012L95.8901 74.4835L88.7433 70.6699ZM159.019 157.665L174.027 155.043L173.074 157.903L158.066 160.763L159.019 157.665ZM188.082 138.598L202.851 135.499L201.422 132.639L186.652 135.737L188.082 138.598Z" stroke="white" stroke-width="0.4" stroke-miterlimit="10"/>
<path d="M57.5368 178.878L61.3483 176.733L58.966 171.728L54.9162 173.396L57.5368 178.878ZM44.911 158.38L45.8638 160.287L45.1493 152.899L44.1963 150.515L44.911 158.38ZM95.8904 74.4839L96.3668 79.0124L103.275 84.256L102.322 79.7275L95.8904 74.4839Z" stroke="white" stroke-width="0.4" stroke-miterlimit="10"/>
<path d="M61.3485 176.733L67.3042 174.111L65.16 169.583L58.9663 171.728L61.3485 176.733ZM170.93 125.489L184.747 122.629L182.127 123.106L168.31 125.728C168.548 125.966 170.93 125.489 170.93 125.489ZM128.289 172.204L140.914 168.868L138.77 171.013L126.145 174.588C126.145 174.35 128.289 172.204 128.289 172.204ZM127.098 167.438L126.383 171.251L124.239 178.878L124.954 175.303C124.715 175.541 127.098 167.438 127.098 167.438ZM92.0792 200.567L91.6027 197.469L87.0765 198.184L87.3146 201.521L92.0792 200.567ZM95.8906 189.365L101.608 185.075L98.0346 185.552L91.8408 189.842C92.0792 190.08 95.8906 189.365 95.8906 189.365ZM126.383 130.733L127.098 135.976L128.289 145.272L127.574 140.266C127.574 140.028 126.383 130.733 126.383 130.733ZM119.713 106.899L120.428 112.142L124.001 121.199L123.286 115.956L119.713 106.899ZM45.626 101.178L47.2935 106.899L52.058 100.702L50.3903 94.9814L45.626 101.178ZM186.891 135.5L201.661 132.401L199.755 129.779L184.985 132.878C185.224 132.878 186.891 135.5 186.891 135.5ZM173.551 125.489L187.606 122.629H184.985L171.169 125.489H173.551Z" stroke="white" stroke-width="0.4" stroke-miterlimit="10"/>
<path d="M92.5556 193.416L95.8907 189.365L92.0792 190.08L88.5059 194.132L92.5556 193.416Z" stroke="white" stroke-width="0.4" stroke-miterlimit="10"/>
<path d="M98.7487 201.044L96.8428 198.66L92.3166 200.567L93.9842 202.95L98.7487 201.044ZM98.7487 201.044L103.275 197.945L106.134 199.137L101.131 202.474L98.7487 201.044ZM91.6021 197.23L92.793 193.416L88.5051 194.132L87.0759 197.945L91.6021 197.23ZM174.265 145.51L189.273 143.126L189.511 146.225L174.503 148.608L174.265 145.51ZM65.1594 169.582L73.7354 167.199L72.3062 162.909L63.7302 164.815C63.4919 164.815 65.1594 169.582 65.1594 169.582ZM144.011 163.624L158.066 160.764L156.875 163.385L142.581 166.245L144.011 163.624ZM52.2955 174.588L54.9159 173.396L53.0102 167.676L50.3896 168.391L52.2955 174.588ZM159.495 154.567L174.503 152.183L174.027 155.282L159.019 157.903L159.495 154.567ZM124.238 178.878L122.571 181.499L119.474 188.173L120.903 185.789L124.238 178.878ZM185.223 132.877L199.754 129.779L197.61 127.396L183.079 130.494L185.223 132.877ZM82.3114 156.473L95.6517 154.567L95.4136 150.753L82.0731 152.422L82.3114 156.473ZM176.171 125.966L190.464 123.105L187.605 122.629L173.55 125.489L176.171 125.966ZM72.0679 162.909L83.0261 160.764L82.0731 156.712L71.115 158.38L72.0679 162.909ZM66.5888 72.8152L67.5417 78.2972L74.9265 77.582L73.9737 72.1001L66.5888 72.8152Z" stroke="white" stroke-width="0.4" stroke-miterlimit="10"/>
<path d="M58.9662 171.727L65.1599 169.582L63.4924 164.815L57.0605 166.484L58.9662 171.727Z" stroke="white" stroke-width="0.4" stroke-miterlimit="10"/>
<path d="M54.9164 173.396L58.9662 171.727L57.0606 166.484L52.7725 167.675L54.9164 173.396ZM183.318 130.494L197.849 127.396L195.467 125.489L180.935 128.587L183.318 130.494ZM178.791 127.157L193.085 124.059L190.226 123.105L175.933 125.966C176.171 125.966 178.791 127.157 178.791 127.157ZM119.474 188.173L117.092 189.603L113.281 195.085L115.425 194.132L119.474 188.173Z" stroke="white" stroke-width="0.4" stroke-miterlimit="10"/>
<path d="M181.173 128.588L195.705 125.489L193.084 124.059L178.791 127.158L181.173 128.588ZM130.194 169.582L142.581 166.484L140.914 168.867L128.288 172.204L130.194 169.582ZM113.28 195.085H110.422L106.134 199.375L108.754 199.614L113.28 195.085ZM54.4396 84.2559L55.8691 89.9759L62.0628 86.4009L60.6334 80.6806C60.6334 80.4423 54.4396 84.2559 54.4396 84.2559ZM43.958 113.81L45.6255 119.054L49.1989 112.142L47.5314 106.66L43.958 113.81ZM48.4842 168.391H50.1517L48.7223 161.955L47.0548 161.479L48.4842 168.391ZM173.55 142.411L188.796 140.028L189.511 143.126L174.503 145.51C174.265 145.51 173.55 142.411 173.55 142.411ZM96.843 198.66L95.8902 195.562L91.6023 197.23L92.0787 200.329L96.843 198.66ZM144.964 160.287L159.019 157.665L158.066 160.764L144.011 163.624L144.964 160.287ZM96.6049 191.987L99.4636 188.173L95.8902 189.365L92.5551 193.417L96.6049 191.987ZM63.4921 164.816L72.0681 162.909L71.1152 158.38L62.3009 159.81L63.4921 164.816ZM159.495 151.23L174.503 148.847V151.945L159.495 154.329V151.23Z" stroke="white" stroke-width="0.4" stroke-miterlimit="10"/>
<path d="M95.8901 195.562L96.6048 191.986L92.555 193.416L91.3639 197.23L95.8901 195.562ZM45.8637 160.287L46.8165 161.479L46.1018 154.567L44.9107 152.898L45.8637 160.287ZM115.186 98.5562L115.901 103.8L120.427 112.142L119.712 106.898L115.186 98.5562ZM43.2432 126.681L44.6726 131.209L47.0547 123.82L45.6254 119.054L43.2432 126.681ZM82.0732 152.422L95.4137 150.753L95.6518 146.94L82.3115 148.131L82.0732 152.422ZM71.1151 158.38L82.3115 156.712L82.0732 152.66L70.8768 154.09C70.8768 153.852 71.1151 158.38 71.1151 158.38ZM172.359 139.313L187.605 136.929L188.796 140.028L173.55 142.411L172.359 139.313ZM50.1516 168.391L52.772 167.676L51.5809 161.717L48.7222 161.955L50.1516 168.391ZM44.196 150.515L45.149 152.898L45.3871 145.51L44.4343 142.65L44.196 150.515ZM43.4815 139.075L44.6726 142.65L45.8637 135.261L44.9107 131.209L43.4815 139.075ZM57.0601 166.484L63.4919 164.815L62.5391 159.81L56.1071 161.002L57.0601 166.484ZM154.254 127.634L169.739 125.489L172.359 125.251L156.875 127.634H154.254ZM103.275 197.945L100.893 195.8L96.6048 198.66L98.5104 201.044L103.275 197.945ZM131.623 166.484L144.011 163.624L142.581 166.245L130.194 169.344L131.623 166.484Z" stroke="white" stroke-width="0.4" stroke-miterlimit="10"/>
<path d="M52.7719 167.676L57.06 166.484L55.8689 161.002L51.3427 161.717L52.7719 167.676ZM73.9737 72.1001L74.9265 77.582L82.5497 78.2972L81.835 72.8152L73.9737 72.1001ZM124 121.199L124.715 126.442L127.097 135.738L126.382 130.494L124 121.199ZM170.93 136.453L186.176 134.069L187.605 136.929L172.359 139.313L170.93 136.453ZM145.44 156.95L159.495 154.567L159.019 157.665L144.964 160.287L145.44 156.95ZM156.875 127.634L172.359 125.489L174.979 125.727L159.495 127.872L156.875 127.634ZM128.288 158.857L127.573 162.909L126.382 171.251L127.097 167.437L128.288 158.857ZM50.3896 94.9811L52.0574 100.701L57.5364 95.696L55.8689 89.7375C55.8689 89.9758 50.3896 94.9811 50.3896 94.9811ZM62.539 159.81L71.115 158.38L70.6386 153.852L61.8243 155.043C62.0626 154.805 62.539 159.81 62.539 159.81ZM100.178 189.603L102.798 185.789L99.4634 187.935L96.6047 191.748C96.6047 191.987 100.178 189.603 100.178 189.603ZM110.421 195.085L107.325 194.132L103.275 198.183L106.134 199.375L110.421 195.085Z" stroke="white" stroke-width="0.4" stroke-miterlimit="10"/>
<path d="M169.025 134.069L184.271 131.924L186.177 134.546L170.93 136.929L169.025 134.069ZM100.893 195.8L99.7023 192.94L95.8908 195.562L96.8436 198.66L100.893 195.8ZM109.707 90.9292L110.422 96.1728L115.901 103.8L115.187 98.5561L109.707 90.9292ZM47.0553 161.479L48.7229 161.955L48.0084 155.52L46.3408 154.567L47.0553 161.479ZM159.496 127.872L174.98 125.727L177.601 126.442L162.354 128.587C162.116 128.587 159.496 127.872 159.496 127.872ZM82.0738 148.37L95.4144 147.178L96.1289 143.603L82.7886 144.556C82.7886 144.318 82.0738 148.37 82.0738 148.37Z" stroke="white" stroke-width="0.4" stroke-miterlimit="10"/>
<path d="M99.7021 192.94L100.179 189.603L96.6053 191.986L95.8906 195.562L99.7021 192.94ZM70.8773 153.852L82.0737 152.422L82.312 148.37L71.1156 149.323C70.8773 149.323 70.8773 153.852 70.8773 153.852ZM166.88 131.686L182.127 129.541L184.271 131.686L169.025 133.831C169.025 134.069 166.88 131.686 166.88 131.686ZM162.116 128.587L177.362 126.442L179.745 127.634L164.498 129.779L162.116 128.587ZM60.6338 80.4422L62.0632 86.1625L68.9717 84.0173L67.5423 78.297C67.5423 78.0587 60.6338 80.4422 60.6338 80.4422Z" stroke="white" stroke-width="0.4" stroke-miterlimit="10"/>
<path d="M164.498 130.017L179.744 127.872L182.126 129.541L166.88 131.686L164.498 130.017ZM126.382 171.251L124.715 174.111L122.571 181.5L124.238 178.878L126.382 171.251ZM158.304 144.556L173.312 142.411L174.027 145.51L159.257 147.893L158.304 144.556ZM117.092 189.603L113.995 189.842L110.422 195.085H113.28L117.092 189.603ZM81.5968 72.8154L82.3115 78.2974L89.9345 80.6807L89.22 75.1987L81.5968 72.8154ZM55.869 161.002L62.3008 159.81L61.8244 154.805L55.3926 155.52L55.869 161.002Z" stroke="white" stroke-width="0.4" stroke-miterlimit="10"/>
<path d="M51.5813 161.717L48.7226 161.955C48.7226 161.955 48.0081 155.52 48.2462 155.52L51.1048 155.759M51.5813 161.717L51.1048 155.759M51.5813 161.717L56.1075 161.002L55.6311 155.52L51.1048 155.759M122.571 181.5L119.951 183.168L117.092 189.603L119.474 188.173L122.571 181.5ZM145.44 153.375L159.495 151.23V154.567L145.44 156.95V153.375ZM103.275 84.2559L103.99 89.7377L110.184 96.173L109.469 90.9294C109.707 90.9294 103.275 84.2559 103.275 84.2559ZM45.1494 152.898L46.3405 154.567L46.5786 147.655L45.3875 145.51L45.1494 152.898ZM47.5317 106.66L49.1992 112.142L53.4871 106.183L52.0579 100.702L47.5317 106.66ZM88.982 75.1987L89.6967 80.6807L97.3197 84.4942L96.6052 79.0123L88.982 75.1987ZM157.113 141.458L172.36 139.551L173.551 142.65L158.543 144.795L157.113 141.458ZM107.325 194.132L104.705 192.225L100.893 195.8L103.275 197.945L107.325 194.132Z" stroke="white" stroke-width="0.4" stroke-miterlimit="10"/>
<path d="M45.6257 135.261L46.5785 138.598L45.3874 145.51L44.4346 142.65L45.6257 135.261ZM45.6257 135.261L44.6729 131.209L46.8168 124.059L47.7696 128.349L45.6257 135.261ZM96.3668 79.0122L97.3196 84.4942L104.228 89.7376L103.513 84.2558C103.275 84.2558 96.3668 79.0122 96.3668 79.0122ZM127.097 135.738L127.335 140.743L128.527 149.8L128.289 145.033C128.289 145.271 127.097 135.738 127.097 135.738ZM62.063 154.805L70.8771 153.613L71.1154 149.085L62.3011 149.8L62.063 154.805ZM138.294 129.302L154.255 127.872L156.875 127.634L141.152 129.064L138.294 129.302ZM82.7882 144.318L96.1285 143.365L97.3196 140.028L84.2176 140.743L82.7882 144.318ZM103.275 186.505L105.657 182.929L102.799 185.79L100.178 189.603L103.275 186.505ZM120.427 112.142L121.142 117.624L124.715 126.442L124 121.199L120.427 112.142ZM71.1154 149.323L82.3117 148.37L83.0265 144.556L71.8299 145.271L71.1154 149.323ZM45.6257 119.054L47.0549 123.821L50.39 117.385L49.1991 112.142L45.6257 119.054ZM133.291 159.334L145.44 156.95L144.964 160.287L132.815 163.147L133.291 159.334ZM155.684 138.359L170.93 136.453L172.359 139.313L157.113 141.22L155.684 138.359ZM104.704 192.225L103.037 189.603L99.7019 192.94L100.893 195.8L104.704 192.225Z" stroke="white" stroke-width="0.4" stroke-miterlimit="10"/>
<path d="M103.037 189.603V186.505L99.9406 189.603L99.7022 192.94L103.037 189.603ZM141.153 129.064L156.875 127.634L159.496 127.872L143.773 129.302L141.153 129.064ZM46.3408 154.567L48.0084 155.52L48.2465 149.085L46.5789 147.655L46.3408 154.567ZM55.3932 155.52L61.8251 154.805L62.0634 149.8L55.6313 150.038L55.3932 155.52ZM113.996 189.841L110.661 189.126L107.325 193.893L110.422 194.846C110.422 195.085 113.996 189.841 113.996 189.841ZM153.778 135.738L169.025 134.069L170.93 136.691L155.684 138.598L153.778 135.738ZM67.5424 78.0587L68.9718 83.7789L76.1184 83.064L74.9273 77.3438L67.5424 78.0587ZM55.8696 89.9758L57.5372 95.9346L63.7309 92.3593L62.3015 86.4007L55.8696 89.9758Z" stroke="white" stroke-width="0.4" stroke-miterlimit="10"/>
<path d="M143.773 129.303L159.495 127.873L162.116 128.588L146.393 130.018L143.773 129.303ZM128.288 150.038L127.574 154.329V163.147L128.288 159.095V150.038ZM151.396 133.354L166.88 131.686L169.024 133.831L153.778 135.499L151.396 133.354ZM146.393 130.256L162.116 128.826L164.498 130.256L149.014 131.924C149.014 131.686 146.393 130.256 146.393 130.256ZM48.0078 155.52L50.8665 155.759L51.1046 150.038L48.2459 149.085L48.0078 155.52Z" stroke="white" stroke-width="0.4" stroke-miterlimit="10"/>
<path d="M144.249 146.463L158.543 144.556L159.258 147.893L145.203 150.038C145.203 149.8 144.249 146.463 144.249 146.463ZM144.249 146.463L158.305 144.318L157.113 141.22L142.82 142.888L144.249 146.463ZM84.2177 140.743L97.3199 140.028L98.9874 137.168L85.8854 137.406C85.8854 137.644 84.2177 140.743 84.2177 140.743ZM84.2177 140.743L83.0268 144.318L71.8302 145.033M84.2177 140.743L73.2596 140.981L71.8302 145.033M71.8302 145.033L71.1157 149.323L62.3014 150.038L63.0161 145.271L71.8302 145.033ZM119.951 183.168L116.616 183.883L113.995 189.841L117.092 189.603L119.951 183.168ZM119.951 183.168L122.095 176.018L124.715 174.111L122.571 181.499L119.951 183.168ZM50.8669 155.758L55.3929 155.52L55.6312 150.277L51.105 150.038L50.8669 155.758ZM149.014 131.686L164.498 130.018L166.881 131.686L151.396 133.354L149.014 131.686ZM133.291 155.52L145.679 153.375V156.95L133.53 159.333L133.291 155.52ZM127.574 162.909L125.907 166.245L124.715 174.349L126.383 171.489C126.383 171.251 127.574 162.909 127.574 162.909ZM45.3877 145.51L46.5788 147.655L47.77 140.981L46.8171 138.359L45.3877 145.51ZM115.901 103.8L116.616 109.282L121.142 117.624L120.427 112.142L115.901 103.8ZM110.66 189.126L107.802 187.696L104.705 192.225L107.325 194.132L110.66 189.126ZM124.715 126.681L124.954 131.924L127.336 140.981L127.098 135.976C127.098 135.738 124.715 126.681 124.715 126.681ZM52.0578 100.701L53.4873 106.422L58.7282 101.655L57.2988 95.9346L52.0578 100.701ZM105.896 185.551L105.658 182.691L103.037 186.505V189.603L105.896 185.551Z" stroke="white" stroke-width="0.4" stroke-miterlimit="10"/>
<path d="M107.801 187.696L105.895 185.551L103.036 189.603L104.704 192.225L107.801 187.696ZM55.6304 150.276L62.0625 150.038L62.777 145.271L56.3451 145.033L55.6304 150.276ZM74.9264 77.3438L76.1175 83.064L83.5024 83.7789L82.3112 77.8204L74.9264 77.3438ZM132.814 151.707L145.201 149.8L145.678 153.375L133.291 155.52L132.814 151.707ZM45.8633 135.261L46.8163 138.598L48.9603 132.163L48.2455 128.349C48.0074 128.349 45.8633 135.261 45.8633 135.261ZM141.152 139.789L155.445 138.359L157.113 141.219L142.819 142.888L141.152 139.789ZM46.578 147.655L48.2455 149.085L49.1984 142.888L47.5308 140.981L46.578 147.655ZM49.1984 112.142L50.3895 117.385L54.6776 111.665L53.7246 106.183C53.4865 106.422 49.1984 112.142 49.1984 112.142ZM63.0153 145.271L71.8294 145.033L73.2588 140.981L64.6828 140.743L63.0153 145.271Z" stroke="white" stroke-width="0.4" stroke-miterlimit="10"/>
<path d="M52.0573 144.318L56.5835 145.033L55.6307 150.276L51.1045 150.038L52.0573 144.318ZM52.0573 144.318L51.1045 149.8L48.2458 149.085C48.2458 149.085 49.4369 143.126 49.1986 143.126L52.0573 144.318ZM47.0547 123.82L48.0077 128.11L51.1045 121.914L50.3898 117.147C50.3898 117.385 47.0547 123.82 47.0547 123.82ZM73.0208 140.981L83.979 140.743L85.6466 137.644H74.6883L73.0208 140.981ZM110.422 96.1727L111.374 101.893L116.854 109.282L116.139 103.8L110.422 96.1727ZM139.246 136.929L153.778 135.737L155.684 138.359L141.39 139.789C141.152 139.789 139.246 136.929 139.246 136.929ZM116.854 183.883L113.28 183.644L110.66 189.365L113.995 190.08L116.854 183.883ZM62.0627 86.1623L63.492 92.1208L70.1621 89.9756L68.7329 84.0171L62.0627 86.1623ZM128.526 130.256L143.773 129.302L146.393 130.256L131.385 131.209L128.526 130.256ZM131.861 147.893L144.249 146.225L145.202 149.8L132.814 151.706L131.861 147.893Z" stroke="white" stroke-width="0.4" stroke-miterlimit="10"/>
<path d="M136.864 134.546L151.634 133.354L153.778 135.738L139.246 136.929L136.864 134.546ZM131.385 131.209L146.393 130.256L149.013 131.686L134.244 132.639L131.385 131.209ZM82.3114 78.2974L83.5025 84.2559L90.8874 86.6392L89.6962 80.919C89.9343 80.6807 82.3114 78.2974 82.3114 78.2974ZM127.097 140.743L126.382 145.272L127.573 154.09L128.288 149.8L127.097 140.743ZM103.99 89.7376L104.942 95.4579L111.136 101.893L110.183 96.173L103.99 89.7376ZM113.28 183.645L110.183 182.453L107.801 187.697L110.66 189.127L113.28 183.645ZM122.094 176.018L118.759 177.209L116.853 183.883L120.189 183.168L122.094 176.018ZM108.277 180.546L108.039 178.163L106.134 182.453L106.372 185.313L108.277 180.546ZM56.5834 145.033L63.0154 145.272L64.4448 140.981L58.0128 140.266L56.5834 145.033ZM89.9343 80.6807L91.1255 86.4009L98.2722 90.2145L97.3192 84.4942L89.9343 80.6807ZM46.5781 138.598L47.5309 141.22L49.6751 135.023L48.7221 131.924L46.5781 138.598ZM130.432 144.318L143.058 142.888L144.249 146.225L131.861 147.893L130.432 144.318ZM121.141 117.624L121.38 123.106L124.715 131.924L124.476 126.681C124.715 126.681 121.141 117.624 121.141 117.624Z" stroke="white" stroke-width="0.4" stroke-miterlimit="10"/>
<path d="M74.9268 137.644H85.8848L88.029 134.784L77.309 134.546L74.9268 137.644ZM74.9268 137.644L73.0209 141.219L64.4449 140.981L66.5891 136.929L74.9268 137.644ZM97.3195 84.494L98.2725 90.2142L105.181 95.4577L104.228 89.7374L97.3195 84.494ZM110.183 182.453L108.278 180.546L106.134 185.313L108.039 187.458L110.183 182.453ZM127.574 154.09L125.906 157.665V166.007L127.574 162.67V154.09ZM125.906 166.245L123.047 168.629L122.094 176.256L124.715 174.349C124.715 174.111 125.906 166.245 125.906 166.245ZM57.5367 95.696L58.9659 101.416L64.9215 97.8412L63.7304 91.8826L57.5367 95.696ZM52.0574 144.318L56.5836 145.033L58.2512 140.266L53.9633 139.074C53.725 139.074 52.0574 144.318 52.0574 144.318ZM128.526 140.981L141.152 140.028L142.82 143.126L130.194 144.556L128.526 140.981ZM47.7695 141.219L49.4371 143.126L51.3429 137.406L49.9135 135.023L47.7695 141.219ZM68.9711 84.0172L70.4006 89.9757L77.5471 89.2608L76.356 83.3022C76.1179 83.3022 68.9711 84.0172 68.9711 84.0172ZM48.0078 128.349L48.7224 132.162L51.8193 126.204L51.3429 122.152L48.0078 128.349Z" stroke="white" stroke-width="0.4" stroke-miterlimit="10"/>
<path d="M54.4401 111.903L53.4873 106.422L58.4899 101.893L59.4427 107.375L54.4401 111.903ZM54.4401 111.903L55.1548 116.909L51.105 122.152L50.3903 117.385L54.4401 111.903ZM49.4375 143.126L52.0579 144.318L53.7254 139.074L51.105 137.406L49.4375 143.126ZM118.76 177.209L115.187 177.448L113.519 183.644L117.092 183.883L118.76 177.209ZM77.3094 134.546L88.0294 134.784L90.6497 132.639L80.1681 132.162L77.3094 134.546ZM58.0135 140.266L64.4453 140.981L66.5895 137.168L60.3958 136.214C60.3958 135.976 58.0135 140.266 58.0135 140.266ZM116.616 109.282L117.092 114.763L121.618 122.867L121.142 117.624L116.616 109.282ZM124.954 131.686L124.239 136.453L126.383 145.271L127.098 140.743L124.954 131.686ZM109.707 175.302L109.231 173.396L107.802 178.401L108.04 180.784L109.707 175.302Z" stroke="white" stroke-width="0.4" stroke-miterlimit="10"/>
<path d="M66.5889 136.93L75.1649 137.406L77.5469 134.308L69.2092 133.593C68.9711 133.831 66.5889 136.93 66.5889 136.93ZM114.948 177.21L111.851 176.494L110.183 182.215L113.28 183.406L114.948 177.21Z" stroke="white" stroke-width="0.4" stroke-miterlimit="10"/>
<path d="M111.851 176.732L109.707 175.302L108.278 180.546L110.184 182.453L111.851 176.732ZM48.7227 131.924L49.6755 135.023L52.5341 129.541L51.8194 126.204L48.7227 131.924ZM76.118 83.3022L77.3091 89.2608L84.4557 89.9757L83.5029 84.0172L76.118 83.3022ZM53.7253 139.074L58.0132 140.266L60.1571 135.976L56.3456 134.546L53.7253 139.074ZM63.4922 92.1209L64.6833 98.0795L71.1154 95.9343L70.1625 89.9757L63.4922 92.1209ZM126.621 145.271L124.953 149.085L126.144 157.665L127.812 154.09L126.621 145.271ZM125.906 157.665L123.048 160.525V168.391L125.906 166.007V157.665Z" stroke="white" stroke-width="0.4" stroke-miterlimit="10"/>
<path d="M49.6758 135.023L51.105 137.406L53.7254 132.401L52.2961 129.541L49.6758 135.023ZM111.375 101.893L111.852 107.613L117.092 115.002L116.616 109.52L111.375 101.893Z" stroke="white" stroke-width="0.4" stroke-miterlimit="10"/>
<path d="M51.1045 137.406L53.7251 139.075L56.1071 134.308L53.7251 132.163L51.1045 137.406ZM60.3952 135.976L66.589 136.929L69.2093 133.593L63.2539 132.163L60.3952 135.976Z" stroke="white" stroke-width="0.4" stroke-miterlimit="10"/>
<path d="M59.6805 107.136L58.7277 101.654L64.6831 98.0794L65.3978 103.8L59.6805 107.136ZM59.6805 107.136L60.1569 112.38L55.3926 116.67L54.6779 111.665L59.6805 107.136ZM68.9712 133.831L77.3089 134.546L80.1676 132.162L72.068 131.209C72.068 130.971 68.9712 133.831 68.9712 133.831ZM51.1045 122.152L51.5809 126.204L55.3926 121.199L54.9162 116.909L51.1045 122.152ZM83.5026 84.0171L84.4555 89.9756L91.8403 92.3592L90.8875 86.4006L83.5026 84.0171ZM110.422 169.582L109.945 168.152L109.23 173.396L109.707 175.302L110.422 169.582ZM119.712 170.059L116.139 170.774L115.186 177.448L118.759 177.209L119.712 170.059ZM121.618 123.105L121.142 128.11L124.477 136.453L125.191 131.686L121.618 123.105ZM104.943 95.4576L105.657 101.416L111.851 107.852L111.375 102.131C111.375 101.893 104.943 95.4576 104.943 95.4576ZM91.1256 86.4006L92.0786 92.3592L99.2252 96.1727L98.5105 90.2142L91.1256 86.4006Z" stroke="white" stroke-width="0.4" stroke-miterlimit="10"/>
<path d="M98.2725 90.2144L98.987 96.1729L105.657 101.178L104.943 95.2195L98.2725 90.2144ZM112.566 170.297L110.422 169.344L109.707 175.064L111.851 176.494L112.566 170.297Z" stroke="white" stroke-width="0.4" stroke-miterlimit="10"/>
<path d="M63.254 132.401L60.3953 135.976L56.3455 134.546L59.2042 130.494M63.254 132.401L59.2042 130.494M63.254 132.401L69.2094 133.831L72.3064 131.209L66.5891 129.541L63.254 132.401ZM59.2042 130.494L56.1072 134.546L53.725 132.401L57.0603 128.111L59.2042 130.494ZM115.901 170.536L112.566 170.297L111.851 176.494L114.948 177.209L115.901 170.536ZM70.1623 89.9757L71.1153 95.9344L78.0235 95.2193L77.309 89.2607L70.1623 89.9757ZM51.8193 126.204L52.5341 129.541L56.1072 124.774L55.6308 120.96L51.8193 126.204ZM72.0681 130.971L80.1677 131.924L83.2645 130.256L75.6415 129.064L72.0681 130.971ZM123.047 160.525L119.712 162.432V169.821L123.047 168.391V160.525ZM124.239 136.691L122.571 140.981L124.715 149.323L126.383 145.51L124.239 136.691Z" stroke="white" stroke-width="0.4" stroke-miterlimit="10"/>
<path d="M66.3509 129.541L63.0158 132.401L59.2043 130.494L63.0158 127.396L66.3509 129.541ZM66.3509 129.541L72.0682 131.209L75.4033 129.302L70.1624 127.396L66.3509 129.541ZM112.566 163.862L110.422 163.624V169.582L112.566 170.536V163.862ZM112.566 163.862L115.901 163.624V170.536L112.566 170.297V163.862ZM52.5342 129.541L53.9634 132.401L57.2985 128.111L56.3457 125.012C56.1074 124.774 52.5342 129.541 52.5342 129.541ZM124.715 149.323L122.095 152.422L123.048 160.525L125.906 157.665L124.715 149.323ZM117.092 115.002L116.616 120.245L120.904 128.111L121.38 123.105L117.092 115.002ZM55.1545 116.67L55.3928 120.96L59.9191 116.909V112.142L55.1545 116.67ZM64.6834 98.0794L65.3981 103.8L71.5918 101.893L71.1154 95.9344L64.6834 98.0794ZM75.6416 129.064L83.2646 130.256L86.5997 129.302L79.2148 127.872L75.6416 129.064ZM119.713 162.432L116.139 163.624V170.536L119.713 169.821V162.432ZM77.3092 89.2607L78.0239 95.2193L85.1704 95.9344L84.694 89.9757C84.694 90.2142 77.3092 89.2607 77.3092 89.2607ZM59.6807 107.136L60.1572 112.38L65.6362 109.282V104.038C65.3981 103.8 59.6807 107.136 59.6807 107.136Z" stroke="white" stroke-width="0.4" stroke-miterlimit="10"/>
<path d="M111.851 107.613L111.613 113.095L116.854 120.245L117.33 115.002C117.092 115.002 111.851 107.613 111.851 107.613ZM55.6309 121.199L56.1073 125.012L60.3954 121.199L60.1571 117.147L55.6309 121.199ZM120.904 128.111L119.474 132.639L122.571 140.743L124.239 136.453C124.239 136.691 120.904 128.111 120.904 128.111ZM57.0603 128.111L59.2042 130.494L62.7774 127.396L60.8718 124.536L57.0603 128.111ZM122.094 152.422L118.759 154.805L119.712 162.432L123.048 160.525L122.094 152.422ZM84.6939 90.2144L85.1703 96.1729L92.3169 98.3179L92.0788 92.3593L84.6939 90.2144ZM109.707 157.427L109.231 156.95L109.945 162.432L110.422 163.385L109.707 157.427Z" stroke="white" stroke-width="0.4" stroke-miterlimit="10"/>
<path d="M105.658 101.416V107.137M105.658 101.416L111.851 107.613L111.613 113.095L105.658 107.137M105.658 101.416L98.9872 96.1729L99.2255 102.131L105.658 107.137M71.5919 101.655L71.1155 95.9346L78.262 95.2195V101.178L71.5919 101.655ZM71.5919 101.655L71.3536 107.137L65.3981 109.043V103.8C65.3981 103.8 71.5919 101.893 71.5919 101.655ZM70.1624 127.396L75.6417 129.064L79.2149 127.872L74.4505 125.966L70.1624 127.396ZM70.1624 127.396L66.351 129.541L63.0159 127.396L67.0657 125.012L70.1624 127.396ZM109.707 157.427L112.089 157.189L112.566 163.862L110.422 163.624L109.707 157.427ZM109.707 157.427L109.231 156.95L107.802 151.468H108.04L109.707 157.427ZM56.1074 124.774L57.0605 127.872L61.11 124.297L60.3955 120.96C60.3955 121.199 56.1074 124.774 56.1074 124.774ZM122.571 140.743L119.951 144.318L122.095 152.422L124.715 149.323L122.571 140.743ZM91.8406 92.3594L92.079 98.3179L98.9872 101.893L98.7491 95.9346L91.8406 92.3594ZM59.9191 112.38V117.147L65.1598 114.287L65.3981 109.52L59.9191 112.38ZM118.76 154.805L115.186 156.473L116.139 163.624L119.713 162.432L118.76 154.805ZM116.616 120.245L115.186 125.251L119.236 132.878L120.665 128.349C120.904 128.111 116.616 120.245 116.616 120.245Z" stroke="white" stroke-width="0.4" stroke-miterlimit="10"/>
<path d="M61.11 124.536L63.0159 127.396L67.0657 125.012L65.6363 121.914L61.11 124.536ZM74.4506 125.966L79.4532 127.873L83.503 127.634L78.9768 125.728C78.7385 125.728 74.4506 125.966 74.4506 125.966ZM60.1572 117.147L60.3955 121.199L65.1598 118.339L65.3981 114.049C65.1598 114.049 60.1572 117.147 60.1572 117.147ZM78.0237 95.458V101.417L84.9322 102.132L85.1705 96.1731L78.0237 95.458ZM119.951 144.557L116.616 147.417L118.521 155.044L121.857 152.66C122.095 152.422 119.951 144.557 119.951 144.557Z" stroke="white" stroke-width="0.4" stroke-miterlimit="10"/>
<path d="M71.3536 107.375L70.8771 112.38L65.1598 114.049L65.3981 109.282L71.3536 107.375ZM71.3536 107.375L71.5919 101.893L78.262 101.178L77.5473 106.898L71.3536 107.375ZM60.3955 121.199L61.11 124.536L65.6362 121.914L65.1598 118.339L60.3955 121.199ZM67.0657 125.012L70.1624 127.396L74.2122 126.204L71.3536 123.582C71.5919 123.582 67.0657 125.012 67.0657 125.012ZM119.474 132.639L117.092 136.691L120.189 144.318L122.809 140.743C122.571 140.743 119.474 132.639 119.474 132.639ZM111.613 113.095L110.422 118.339L115.424 125.251L116.854 120.245C116.616 120.245 111.613 113.095 111.613 113.095ZM78.7384 125.727L83.2646 127.634L87.3144 128.111L83.0265 126.204L78.7384 125.727ZM105.658 145.748V146.463L107.802 151.707H108.04L105.658 145.748ZM116.616 147.416L113.042 149.562L114.948 156.712L118.521 155.043L116.616 147.416ZM85.1705 96.1729L84.9322 102.131L91.6023 104.276L92.0789 98.5561C92.317 98.3178 85.1705 96.1729 85.1705 96.1729Z" stroke="white" stroke-width="0.4" stroke-miterlimit="10"/>
<path d="M105.658 107.137L104.705 112.618M105.658 107.137L111.613 113.095L110.422 118.577L104.705 112.618M105.658 107.137L99.2257 102.131L98.5109 107.852L104.705 112.618M65.3983 121.914L66.8275 125.012L71.3537 123.582L70.1626 120.484L65.3983 121.914ZM71.592 123.582L74.4507 125.966L78.7386 125.489L76.3563 122.867L71.592 123.582ZM92.3172 98.3179L91.8408 104.038L98.5109 107.613L99.2257 101.893L92.3172 98.3179ZM65.16 114.049L64.9219 118.339L70.1626 116.67L70.6392 112.38C70.8773 112.38 65.16 114.049 65.16 114.049ZM115.425 125.251L113.042 129.541L117.092 136.691L119.474 132.639L115.425 125.251ZM116.854 136.691L113.757 140.028L116.616 147.416L119.951 144.556L116.854 136.691Z" stroke="white" stroke-width="0.4" stroke-miterlimit="10"/>
<path opacity="0.1" d="M65.1602 118.339L65.6368 121.914L70.4011 120.484V116.67L65.1602 118.339Z" stroke="white" stroke-width="0.4" stroke-miterlimit="10"/>
<path d="M102.799 140.266L103.037 141.22L105.657 146.225V145.51C105.657 145.748 102.799 140.266 102.799 140.266ZM78.2618 101.178L77.7854 106.66L84.2175 107.375L85.1703 101.893L78.2618 101.178ZM76.356 123.106L78.7382 125.728L83.2644 126.204L81.3588 123.821L76.356 123.106ZM71.3534 107.375L70.877 112.38L76.8326 111.904L77.7854 106.898C77.7854 106.66 71.3534 107.375 71.3534 107.375ZM113.757 140.028L110.422 142.65L113.042 149.323L116.615 147.178L113.757 140.028Z" stroke="white" stroke-width="0.4" stroke-miterlimit="10"/>
<path d="M70.4004 120.484L71.5915 123.582L76.3558 123.106L75.6413 120.007C75.403 120.007 70.4004 120.484 70.4004 120.484ZM99.2252 135.499L99.7016 136.929L103.037 141.458L102.799 140.505L99.2252 135.499ZM110.422 118.339L108.278 123.106L113.042 129.541L115.424 125.251L110.422 118.339ZM81.1203 123.82L83.0262 126.204L87.5524 127.634L85.8849 125.251L81.1203 123.82ZM70.8768 112.38L70.4004 116.67L75.8794 116.194L76.8324 111.665L70.8768 112.38Z" stroke="white" stroke-width="0.4" stroke-miterlimit="10"/>
<path opacity="0.1" d="M70.4004 116.671V120.484L75.6413 120.007L76.1177 116.194C75.8794 116.194 70.4004 116.671 70.4004 116.671Z" stroke="white" stroke-width="0.4" stroke-miterlimit="10"/>
<path d="M113.043 129.541L110.184 133.354L113.995 140.028L117.092 136.691C116.854 136.691 113.043 129.541 113.043 129.541ZM84.9323 102.131L83.9795 107.613L90.4115 109.758L91.6025 104.276L84.9323 102.131ZM95.1759 131.209L95.8906 133.116L99.7021 136.929L99.2257 135.499L95.1759 131.209ZM85.8853 125.25L87.5529 127.634L91.8408 130.017L90.6496 127.872L85.8853 125.25Z" stroke="white" stroke-width="0.4" stroke-miterlimit="10"/>
<path d="M104.704 112.38L103.037 117.385M104.704 112.38L110.66 118.1L108.516 122.867L103.037 117.385M104.704 112.38L98.5107 107.613L97.0815 112.857L103.037 117.385M110.184 133.354L107.087 136.453L110.66 142.888L113.995 140.266C113.757 140.028 110.184 133.354 110.184 133.354ZM110.184 133.354L105.658 127.157L108.278 123.105L113.042 129.541L110.184 133.354ZM90.6495 127.872L91.8406 130.017L95.8904 133.116L95.1757 131.209L90.6495 127.872ZM75.4033 120.007L76.118 123.105L80.8823 123.582L80.6442 120.484C80.8823 120.722 75.4033 120.007 75.4033 120.007ZM77.7856 106.66L76.8328 111.665L83.0265 112.38L84.2176 107.375L77.7856 106.66ZM91.8406 104.276L90.6495 109.758L96.8432 113.095L98.2727 107.852L91.8406 104.276ZM100.417 133.354L99.2255 135.499L102.799 140.266L104.466 138.598L100.417 133.354Z" stroke="white" stroke-width="0.4" stroke-miterlimit="10"/>
<path d="M75.8797 116.194L75.4033 120.007L80.6442 120.722L81.359 116.909L75.8797 116.194ZM75.8797 116.194L76.8328 111.665L83.0265 112.619L81.5971 116.909L75.8797 116.194ZM80.8823 120.722L81.1206 123.821L85.8852 125.489V122.391L80.8823 120.722ZM96.1285 128.826L95.1757 131.209L99.2255 135.499L100.417 133.354L96.1285 128.826ZM84.2176 107.613L83.0265 112.38L89.2202 114.287L90.8878 109.52C90.6495 109.52 84.2176 107.613 84.2176 107.613ZM86.1233 122.391V125.489L90.8878 128.111L91.3642 125.251L86.1233 122.391Z" stroke="white" stroke-width="0.4" stroke-miterlimit="10"/>
<path d="M88.9822 114.287L90.6497 109.52L96.8435 112.618L94.9378 117.385L88.9822 114.287ZM88.9822 114.287L87.3147 118.577L81.5973 116.67L83.0268 112.38C83.0268 112.38 88.9822 114.525 88.9822 114.287ZM91.1261 125.012L90.6497 127.872L95.1759 131.209L96.129 128.826L91.1261 125.012ZM105.658 127.157L102.799 130.494L107.087 136.214L110.184 133.116L105.658 127.157ZM102.799 117.385L100.417 121.914L105.419 127.157L108.04 123.106L102.799 117.385ZM81.5973 116.909L80.8828 120.722L86.1235 122.39L87.3147 118.815L81.5973 116.909Z" stroke="white" stroke-width="0.4" stroke-miterlimit="10"/>
<path d="M96.8431 112.857L94.9375 117.624L100.417 121.914L102.799 117.385L96.8431 112.857ZM98.0343 125.727L96.1284 128.826L100.655 133.354L103.037 130.494L98.0343 125.727Z" stroke="white" stroke-width="0.4" stroke-miterlimit="10"/>
<path d="M100.655 121.914L98.2725 125.728L103.037 130.733L105.895 127.396C105.657 127.158 100.655 121.914 100.655 121.914Z" stroke="white" stroke-width="0.4" stroke-miterlimit="10"/>
<path opacity="0.1" d="M87.3142 118.815L86.123 122.39L91.364 125.251L93.0315 121.914C92.7932 121.676 87.3142 118.815 87.3142 118.815Z" stroke="white" stroke-width="0.4" stroke-miterlimit="10"/>
<path d="M92.7935 121.676L91.1259 125.012L95.8905 128.826L97.7963 125.728C98.0344 125.728 92.7935 121.676 92.7935 121.676ZM92.7935 121.676L87.3145 118.816L88.982 114.525L94.9376 117.624L92.7935 121.676Z" stroke="white" stroke-width="0.4" stroke-miterlimit="10"/>
<path d="M106.134 173.634L109.23 172.919L109.707 170.059L103.513 171.489L106.134 173.634ZM106.134 173.634L108.754 175.302M103.751 142.888L96.1281 143.365L95.4136 146.94L105.419 145.986M110.421 142.65L106.848 144.795L105.657 145.748M95.1753 150.753L106.848 149.562M113.28 149.323L109.707 150.992L108.039 151.468M101.131 168.629L109.945 166.722M100.178 180.784L107.801 178.163M97.0811 179.354L108.516 175.779M103.275 186.505L105.895 182.691M98.2723 185.789L106.134 181.976M103.513 181.499L106.372 181.738M103.513 184.836L99.4634 187.935L95.89 189.365L101.607 185.313L104.228 184.121L101.845 185.075L104.942 183.644M125.191 175.541L136.626 172.442L138.77 170.774L126.144 174.349L125.191 175.302M109.469 159.81L97.5575 161.955L99.2251 165.531L109.945 163.385M96.3664 158.38L108.992 156.235M95.6517 154.567L108.039 152.898M101.845 139.789L97.3192 140.266L98.9868 137.168M98.9868 137.168H99.9398M98.9868 137.168L99.4634 136.691M98.9868 137.168L85.8848 137.644L88.0287 134.784M88.0287 134.784H97.5575M88.0287 134.784L90.6491 132.639H95.4136M94.9372 117.624L92.793 121.675L98.034 125.727L100.416 121.914L94.9372 117.624ZM109.945 168.152V162.67L110.421 163.624V169.582L109.945 168.152Z" stroke="white" stroke-width="0.4" stroke-miterlimit="10"/>
<path d="M107.087 136.214L104.467 138.598L107.564 144.556L110.184 150.753L112.09 157.188M112.09 157.188L112.566 163.862M112.09 157.188L114.948 156.473M131.624 166.484L130.195 169.582L142.582 166.245L144.012 163.624L131.624 166.484Z" stroke="white" stroke-width="0.4" stroke-miterlimit="10"/>
<path d="M130.194 169.582L126.383 171.251L126.859 167.914L131.624 166.484L130.194 169.582Z" stroke="white" stroke-width="0.4" stroke-miterlimit="10"/>
<path d="M130.194 169.582L128.289 172.204L125.668 173.872L126.383 171.251L130.194 169.582ZM126.859 167.914L131.624 166.484L132.576 163.147L127.574 164.577L126.859 167.914Z" stroke="white" stroke-width="0.4" stroke-miterlimit="10"/>
<path d="M132.577 163.147L127.574 164.577L128.051 160.764L133.292 159.333L132.577 163.147Z" stroke="white" stroke-width="0.4" stroke-miterlimit="10"/>
<path d="M128.05 160.763L133.291 159.333V155.52L128.288 156.473V158.857L128.05 160.763Z" stroke="white" stroke-width="0.4" stroke-miterlimit="10"/>
<path d="M133.291 155.52L132.815 151.707L128.288 152.422V156.473L133.291 155.52Z" stroke="white" stroke-width="0.4" stroke-miterlimit="10"/>
<path d="M130.433 144.318L128.05 144.556M127.336 137.883L139.247 136.93L141.152 139.79L128.527 140.981L127.574 139.551M135.435 129.303L137.103 129.064V122.152L129.48 123.106M129.48 123.106L129.241 129.779M129.48 123.106L125.43 124.059L123.762 117.862V116.432L129.48 115.479M159.257 147.893L159.495 151.23M185.223 122.152L177.839 120.007V124.059M167.833 123.582L174.503 124.536L168.071 125.728L167.833 123.582ZM167.833 123.582L157.113 122.629L157.351 127.158V127.396M192.846 120.246L193.799 116.432M193.799 116.432L187.844 112.857L186.891 117.624M193.799 116.432L195.705 119.054M193.799 116.432L195.467 112.38L198.326 116.432L197.611 118.101M186.891 117.624L192.132 120.484M186.891 117.624L186.176 122.152M117.807 101.893L118.76 100.94L119.713 106.66M123.286 108.328L120.665 109.282M114.71 95.6962V94.0279L112.089 85.9243L111.137 87.831M121.618 61.1367L108.04 59.23M194.276 86.1626L191.655 87.3544M217.144 99.2715L214.287 98.5564M180.935 163.386L166.166 166.007M134.006 173.396L124.953 176.018M126.621 132.639H134.244L136.864 134.546L126.859 135.023M131.385 131.209H126.383M90.6495 132.639L93.2701 130.971M83.2646 130.256L93.0318 130.733M87.3144 128.111L89.6967 128.826L87.5528 127.634M86.5997 129.303L89.9348 129.064M128.289 152.422L132.815 151.707L131.862 147.893L128.289 148.37V152.422Z" stroke="white" stroke-width="0.4" stroke-miterlimit="10"/>
<path d="M200.231 113.095L199.516 116.67M201.66 114.764L198.802 117.385M70.4004 116.67V120.484M128.526 130.256L126.62 129.779L141.629 129.064L143.772 129.303L128.526 130.256Z" stroke="white" stroke-width="0.4" stroke-miterlimit="10"/>
</g>
<defs>
<clipPath id="clip0_2560_1840">
<rect width="256" height="256" fill="white"/>
</clipPath>
</defs>
</svg>
