<svg width="256" height="256" viewBox="0 0 256 256" fill="none" xmlns="http://www.w3.org/2000/svg">
<g clip-path="url(#clip0_2069_1123)">
<path fill-rule="evenodd" clip-rule="evenodd" d="M128 0C198.697 0 256 57.3026 256 128C256 198.697 198.697 256 128 256C57.3026 256 0 198.697 0 128C0 57.3026 57.3026 0 128 0Z" fill="#201B13"/>
<path fill-rule="evenodd" clip-rule="evenodd" d="M124.712 28.3025C123.244 28.7673 123.517 28.5995 87.8217 50.9733C47.7459 76.0931 50.0235 74.4282 49.0087 79.3427C48.7166 80.7565 55.835 203.028 56.4339 206.889C57.0303 210.732 59.9008 214.056 63.728 215.335L65.1231 215.801L128.231 215.744L191.339 215.686L192.642 215.161C195.606 213.965 198.121 211.256 199.06 208.25C199.733 206.093 207.326 81.9795 206.927 79.6518C206.583 77.6434 205.363 75.2981 203.928 73.8873C202.138 72.127 133.19 29.0691 131.155 28.4407C129.46 27.9173 126.155 27.8461 124.712 28.3025ZM159.032 64.4188C189.63 83.508 190.171 83.8714 190.496 85.5134C190.692 86.501 184.028 196.346 183.726 197.129C183.375 198.039 182.67 198.828 181.827 199.258C180.971 199.695 180.316 199.7 127.772 199.7H74.5844L73.8298 199.192C72.6647 198.407 72.1106 197.411 71.9609 195.836C71.8884 195.071 70.3104 169.947 68.4541 140.004L65.079 85.5617L65.5825 84.6103C65.9827 83.8539 66.5484 83.3649 68.3455 82.2222C69.5884 81.432 83.2326 72.875 98.6648 63.2066L126.724 45.6278L127.954 45.7123C129.146 45.795 130.112 46.3769 159.032 64.4188ZM106.387 80.835L84.9307 94.2986L84.9886 95.4081C85.0206 96.0185 85.6454 106.039 86.3783 117.677C87.1105 129.314 87.7094 139.099 87.7094 139.42V140.004H117.222H146.735L146.732 140.73C146.731 141.13 146.48 145.23 146.176 149.842C145.872 154.453 145.622 158.502 145.62 158.84L145.617 159.456H127.986H110.355L110.221 157.723C110.147 156.77 109.974 153.776 109.838 151.071C109.701 148.366 109.544 145.926 109.489 145.65L109.388 145.146H98.7728H88.1567L88.1555 146.208C88.1537 147.467 89.882 177.496 90.0727 179.522L90.2043 180.919H127.972C148.744 180.919 165.74 180.844 165.74 180.752C165.74 180.659 166.596 166.816 167.641 149.989C168.686 133.162 169.54 119.202 169.54 118.968C169.54 118.549 168.909 118.54 138.686 118.54C114.15 118.54 107.833 118.483 107.835 118.261C107.837 118.107 107.67 115.284 107.464 111.988C107.143 106.836 107.135 105.952 107.405 105.697C107.696 105.422 126.52 93.5802 127.498 93.0568C127.867 92.8588 129.508 93.8054 138.285 99.2764L148.635 105.729L148.554 109.678L148.472 113.626L159.174 113.568L169.875 113.51L170.361 105.237C170.629 100.687 170.855 96.3547 170.864 95.6086L170.882 94.2527L149.809 81.0915C138.22 73.8529 128.536 67.8042 128.29 67.6508C127.888 67.3991 125.66 68.7405 106.387 80.835Z" fill="#E4AC4C"/>
</g>
<defs>
<clipPath id="clip0_2069_1123">
<rect width="256" height="256" fill="white"/>
</clipPath>
</defs>
</svg>
