<?xml version="1.0" encoding="UTF-8"?>
<svg xmlns="http://www.w3.org/2000/svg" xmlns:xodm="http://www.corel.com/coreldraw/odm/2003" version="1.1" viewBox="0 0 1366 1366">
  <defs>
    <style>
      .cls-1 {
        fill: #fff;
      }

      .cls-2 {
        fill: #f7931a;
      }
    </style>
  </defs>
  <!-- Generator: Adobe Illustrator 28.7.3, SVG Export Plug-In . SVG Version: 1.2.0 Build 164)  -->
  <g>
    <g id="Layer_1">
      <g id="Layer_1-3">
        <g id="Layer_1-2-2">
          <path class="cls-2" d="M1282.3,1010.3c-180.7,331-595.6,452.8-926.6,272.1C24.8,1101.8-97.1,686.9,83.6,355.9,264.3,24.8,679.2-97.1,1010.2,83.6c331.1,180.7,452.8,595.6,272.1,926.7h0Z"/>
        </g>
      </g>
      <g id="Layer_1-4">
        <path class="cls-1" d="M913.1,571.2c11.2-61.1,2.4-113.6-26.6-157.6-29-43.9-74.6-77.1-136.9-99.4l14.8-56.8-56.8-14.8-14.6,55.9c-33.9-6.9-65.9-9.5-96-7.9-30,1.6-57.1,7.8-81.2,18.7-24,10.9-44.9,26.7-62.4,47.4-17.6,20.7-30.3,46.2-38.2,76.5-8.9,34.1-10,63.6-3.4,88.6,6.7,24.9,18.4,47.1,35.3,66.3,16.8,19.2,37.6,36.6,62.2,52.1s50.6,30.2,78,44.1c.5.8,2,1.5,4.5,2.2l-47,179.9c-35.6-13.3-60.3-31.1-74.1-53.2-13.8-22.1-18.5-50.5-14.2-85.1l-128.8-33.6c-14.9,64.9-6.1,121,26.4,168.2,32.5,47.3,86.9,83.6,163.2,108.9l-21.3,81.4,56.8,14.8,21-80.5c33.9,6.9,66.3,9.3,97.2,7.2,7.7-.5,15.1-1.3,22.4-2.5l86.2-149.3h79.7c8.6-33.2,9.8-62.5,3.8-87.9-6.1-25.5-17.6-48.4-34.6-68.7-17-20.2-38.1-38.2-63.3-53.9s-52.2-30.7-80.8-44.9c-2.5-.6-4.3-1.4-5.4-2.4l42.8-163.8c22.7,11.3,40.2,26.9,52.6,46.6,12.4,19.7,16.7,43.3,12.9,70.6l125.9,32.9h-.1ZM560.7,509.1c-12.6-15.1-16-33.7-10.2-55.8,5.4-20.8,18.2-35.5,38.3-44.1,20.1-8.5,45.7-10.4,76.8-5.7l-40.3,154.3c-30.5-17.4-52-33.6-64.6-48.7h0ZM710.4,764.6c14.3,16.2,18.4,36.3,12.1,60.3h-.2c-3.4,13.3-9.1,23.9-16.9,32-7.8,8.1-17,14.3-27.6,18.6-10.5,4.3-22.3,6.9-35.4,7.9s-26.7.3-40.9-2.1l43.3-165.7c29.4,16.5,51.3,32.8,65.6,49h0Z"/>
        <polygon class="cls-2" points="950.4 862.6 950.3 862.6 950.4 862.5 950.4 862.6"/>
        <g>
          <path class="cls-1" d="M1043,1000.5h-110.8c-7.4,0-14-3.8-17.2-9.8v-.2c-3.8-6.2-3.8-13.9,0-20.2l55.1-96.4,72.9,126.5h0Z"/>
          <path class="cls-1" d="M1043.1,1023.5l-72.9,126.6-55.6-96.4c-1.8-3.1-2.8-6.6-2.8-10.1s.9-7,2.8-10.1h0c3.7-6.2,10.3-10,17.3-10h111.3,0Z"/>
          <path class="cls-1" d="M950.3,862.6l-55.5,96.3c-3.7,6.2-10.3,10-17.3,10s-14-3.8-17.2-9.8l-29.6-50.9-26.5-45.6h146.1Z"/>
          <polygon class="cls-1" points="950.4 862.5 950.4 862.6 950.3 862.6 950.4 862.5"/>
          <path class="cls-1" d="M949.9,1161.4h-145.7l55.5-96.3c3.7-6.2,10.3-10,17.3-10s14.1,4,17.2,9.8l55.7,96.5Z"/>
          <path class="cls-1" d="M840.2,990.6c-3.7,6.2-10.3,10-17.3,10h-111.3l8.2-14.1,64.8-112.5,31,53.7,24.7,42.8c3.7,6.2,3.7,13.9,0,20.1h-.1Z"/>
          <path class="cls-1" d="M840.1,1053.7l-55.6,96.4-72.9-126.6h111.3c7.4,0,14,3.8,17.2,9.8v.2c3.8,6.2,3.8,13.9,0,20.2Z"/>
        </g>
      </g>
    </g>
  </g>
</svg>