<svg width="256" height="256" viewBox="0 0 256 256" fill="none" xmlns="http://www.w3.org/2000/svg">
<g clip-path="url(#clip0_1344_475)">
<path d="M240.314 189.339C206.449 251.371 128.693 274.197 66.6612 240.333C4.64774 206.487 -18.1974 128.731 15.6674 66.6988C49.5321 4.6478 127.288 -18.1973 189.32 15.6674C251.371 49.5321 274.179 127.288 240.314 189.339Z" fill="#1160F8"/>
<path d="M148.551 45.5602L101.328 72.7887V60.463L47 91.8148V80.9911L128.507 34L148.544 45.5673L148.551 45.5602ZM179.272 63.2865L101.328 108.242V95.9159L47 127.239V116.444L159.235 51.7265L179.272 63.2938V63.2865ZM210 81.013L101.328 143.665V131.34L47 162.691V151.897L189.962 69.4528L210 81.02V81.013ZM209.993 116.465L132.078 161.392L121.365 155.225L67.037 186.548L57.7052 181.175L209.993 93.3308V116.458V116.465ZM209.993 151.889L162.805 179.117L152.122 172.951L97.7865 204.303L88.4257 198.902L209.993 128.791V151.889ZM209.993 174.987L128.507 222L119.146 216.599L209.993 164.208V174.98V174.987Z" fill="white"/>
</g>
<defs>
<clipPath id="clip0_1344_475">
<rect width="256" height="256" fill="white"/>
</clipPath>
</defs>
</svg>
