<svg width="256" height="256" viewBox="0 0 256 256" fill="none" xmlns="http://www.w3.org/2000/svg">
<g clip-path="url(#clip0_1133_2)">
<mask id="mask0_1133_2" style="mask-type:luminance" maskUnits="userSpaceOnUse" x="0" y="0" width="256" height="256">
<path d="M256 0H0V256H256V0Z" fill="white"/>
</mask>
<g mask="url(#mask0_1133_2)">
<path d="M128 256C110.723 256 93.9612 252.613 78.1746 245.939C62.9298 239.491 49.2474 230.261 37.4887 218.511C25.7391 206.762 16.5091 193.07 10.0608 177.825C3.38672 162.039 0 145.277 0 128C0 110.723 3.38672 93.9612 10.0608 78.1746C16.5091 62.9298 25.7391 49.2474 37.4887 37.4887C49.2384 25.7391 62.9298 16.5091 78.1746 10.0608C93.9612 3.38672 110.723 0 128 0C145.277 0 162.039 3.38672 177.825 10.0608C193.07 16.5091 206.753 25.7391 218.511 37.4887C230.261 49.2384 239.491 62.9298 245.939 78.1746C252.613 93.9612 256 110.723 256 128C256 145.277 252.613 162.039 245.939 177.825C239.491 193.07 230.261 206.753 218.511 218.511C206.762 230.261 193.07 239.491 177.825 245.939C162.039 252.613 145.277 256 128 256Z" fill="black"/>
<path d="M128.001 249.218C194.947 249.218 249.218 194.947 249.218 128C249.218 61.0532 194.947 6.78223 128.001 6.78223C61.0541 6.78223 6.7832 61.0532 6.7832 128C6.7832 194.947 61.0541 249.218 128.001 249.218Z" fill="black"/>
<path d="M143.032 118.553C143.032 110.874 136.791 104.65 129.093 104.65C121.395 104.65 115.154 110.874 115.154 118.553C115.154 123.926 118.215 128.578 122.688 130.892L117.522 153.173H140.664L135.499 130.892C139.971 128.578 143.032 123.926 143.032 118.553Z" fill="white"/>
<path d="M183.612 146.434C180.904 167.399 162.907 183.654 141.163 183.654H117.021C93.4137 183.654 74.2076 164.498 74.2076 140.951V116.873C74.2076 93.3264 93.4137 74.1702 117.021 74.1702H141.163C162.907 74.1702 180.904 90.4259 183.612 111.391H197.914C195.139 82.5932 170.75 59.999 141.163 59.999H117.021C85.5797 59.999 60 85.5127 60 116.873V140.951C60 172.312 85.5797 197.825 117.021 197.825H141.163C170.75 197.825 195.139 175.23 197.914 146.434H183.612Z" fill="white"/>
</g>
</g>
<defs>
<clipPath id="clip0_1133_2">
<rect width="256" height="256" fill="white"/>
</clipPath>
</defs>
</svg>
