<svg width="256" height="256" viewBox="0 0 256 256" fill="none" xmlns="http://www.w3.org/2000/svg">
<g clip-path="url(#clip0_741_46)">
<mask id="mask0_741_46" style="mask-type:luminance" maskUnits="userSpaceOnUse" x="0" y="0" width="256" height="256">
<path d="M256 0H0V256H256V0Z" fill="white"/>
</mask>
<g mask="url(#mask0_741_46)">
<path d="M128 256C198.693 256 256 198.693 256 128C256 57.3075 198.693 0 128 0C57.3075 0 0 57.3075 0 128C0 198.693 57.3075 256 128 256Z" fill="#162435"/>
<path d="M89.0669 128.001C89.0669 119.492 82.1447 112.58 73.6455 112.58C65.1463 112.58 58.224 119.492 58.224 128.001C58.224 136.51 65.136 143.422 73.6455 143.422C82.1549 143.422 89.0669 136.5 89.0669 128.001ZM65.0643 128.001C65.0643 123.27 68.9044 119.42 73.6455 119.42C78.3866 119.42 82.2266 123.26 82.2266 128.001C82.2266 132.742 78.3661 136.582 73.6455 136.582C68.9248 136.582 65.0643 132.722 65.0643 128.001Z" fill="white"/>
<path d="M128.001 112.58C119.492 112.58 112.58 119.492 112.58 128.001C112.58 136.51 119.492 143.422 128.001 143.422C136.51 143.422 143.422 136.5 143.422 128.001C143.422 119.502 136.5 112.58 128.001 112.58ZM128.001 136.582C123.27 136.582 119.42 132.722 119.42 128.001C119.42 123.28 123.26 119.42 128.001 119.42C132.742 119.42 136.582 123.26 136.582 128.001C136.582 132.742 132.722 136.582 128.001 136.582Z" fill="white"/>
<path d="M185.691 97.5872C184.636 82.8416 173.106 70.9529 158.514 69.3657C157.388 53.5142 144.137 40.96 127.999 40.96C111.861 40.96 98.6205 53.5142 97.4839 69.3657C82.8919 70.9529 71.3514 82.8416 70.3069 97.5872C67.1325 97.9251 64.1015 98.7648 61.2957 100.014C59.1044 100.987 58.5616 103.875 60.2615 105.574C61.2752 106.588 62.7908 106.834 64.1015 106.26C67.9517 104.561 72.3242 103.864 76.9015 104.468C87.1722 105.841 95.4973 113.951 97.0947 124.18C99.5421 139.776 86.7012 153.149 71.2592 151.634C59.7392 150.507 50.5847 140.923 49.9293 129.372C49.6016 123.505 51.4039 118.067 54.6397 113.766C55.6637 112.404 55.5306 110.5 54.3325 109.302C52.8682 107.837 50.4413 107.981 49.192 109.629C45.3316 114.749 43.048 121.119 43.048 128C43.048 143.749 54.9981 156.754 70.3069 158.413C71.3616 173.148 82.8919 185.037 97.4839 186.624C98.6103 202.475 111.861 215.03 127.999 215.03C144.137 215.03 157.378 202.475 158.514 186.624C173.106 185.037 184.636 173.148 185.691 158.413C201 156.744 212.95 143.739 212.95 128C212.95 112.261 201 99.246 185.691 97.5872ZM178.82 97.6076C175.932 97.9353 173.178 98.6726 170.597 99.7478C170.587 91.2588 163.665 84.3468 155.176 84.3468C146.687 84.3468 139.765 91.2588 139.754 99.7478C137.174 98.6624 134.419 97.9353 131.532 97.6076C132.627 85.5244 142.806 76.0217 155.176 76.0217C167.546 76.0217 177.724 85.5244 178.82 97.6076ZM104.242 128C104.242 114.903 114.902 104.243 127.999 104.243C141.096 104.243 151.756 114.903 151.756 128C151.756 141.097 141.096 151.757 127.999 151.757C114.902 151.757 104.242 141.097 104.242 128ZM136.58 184.443C136.58 189.163 132.72 193.024 127.999 193.024C123.278 193.024 119.418 189.163 119.418 184.443C119.418 179.722 123.258 175.862 127.999 175.862C132.74 175.862 136.58 179.702 136.58 184.443ZM119.418 71.5571C119.418 66.8262 123.278 62.976 127.999 62.976C132.72 62.976 136.58 66.816 136.58 71.5571C136.58 76.2982 132.74 80.1382 127.999 80.1382C123.258 80.1382 119.418 76.2777 119.418 71.5571ZM155.176 147.63C159.907 147.63 163.757 151.491 163.757 156.211C163.757 160.932 159.917 164.792 155.176 164.792C150.435 164.792 146.595 160.952 146.595 156.211C146.595 151.47 150.435 147.63 155.176 147.63ZM146.595 99.7683C146.595 95.0476 150.435 91.1872 155.176 91.1872C159.917 91.1872 163.757 95.0476 163.757 99.7683C163.757 104.489 159.917 108.349 155.176 108.349C150.435 108.349 146.595 104.509 146.595 99.7683ZM127.999 47.8003C140.369 47.8003 150.547 57.303 151.643 69.3862C148.766 69.7139 146.001 70.4512 143.42 71.5264C143.4 63.0272 136.498 56.1356 127.999 56.1356C119.5 56.1356 112.598 63.0272 112.578 71.5264C109.997 70.4512 107.242 69.7241 104.355 69.3862C105.45 57.303 115.629 47.8003 127.999 47.8003ZM85.4007 99.7478C82.8202 98.6624 80.0656 97.9353 77.178 97.6076C78.2736 85.5244 88.4522 76.0217 100.822 76.0217C113.192 76.0217 123.37 85.5244 124.466 97.6076C121.578 97.9353 118.824 98.6726 116.243 99.7478C116.233 91.2588 109.311 84.3468 100.822 84.3468C92.3331 84.3468 85.4109 91.2588 85.4007 99.7478ZM92.241 99.7683C92.241 95.0476 96.081 91.1872 100.822 91.1872C105.563 91.1872 109.403 95.0476 109.403 99.7683C109.403 104.489 105.543 108.349 100.822 108.349C96.1015 108.349 92.241 104.509 92.241 99.7683ZM100.822 147.63C105.543 147.63 109.403 151.491 109.403 156.211C109.403 160.932 105.543 164.792 100.822 164.792C96.1015 164.792 92.241 160.952 92.241 156.211C92.241 151.47 96.081 147.63 100.822 147.63ZM77.178 158.392C80.0656 158.065 82.8202 157.327 85.4007 156.252C85.4212 164.751 92.3229 171.643 100.822 171.643C109.321 171.643 116.223 164.751 116.243 156.252C118.824 157.338 121.578 158.065 124.456 158.392C123.35 170.475 113.171 179.968 100.812 179.968C88.4522 179.968 78.2736 170.465 77.1677 158.392H77.178ZM127.999 208.189C115.629 208.189 105.45 198.687 104.355 186.603C107.232 186.276 109.997 185.539 112.578 184.463C112.588 192.952 119.5 199.864 127.999 199.864C136.498 199.864 143.41 192.952 143.42 184.463C146.001 185.539 148.755 186.266 151.633 186.603C150.537 198.687 140.359 208.189 127.989 208.189H127.999ZM155.176 179.968C142.816 179.968 132.638 170.465 131.532 158.392C134.419 158.065 137.174 157.327 139.754 156.252C139.775 164.751 146.687 171.643 155.176 171.643C163.665 171.643 170.577 164.751 170.597 156.252C173.178 157.338 175.932 158.065 178.82 158.392C177.714 170.475 167.536 179.968 155.176 179.968ZM182.353 151.747C169.256 151.747 158.596 141.087 158.596 127.99C158.596 114.893 169.256 104.233 182.353 104.233C195.45 104.233 206.11 114.893 206.11 127.99C206.11 141.087 195.45 151.747 182.353 151.747Z" fill="white"/>
<path d="M182.354 112.58C173.855 112.58 166.932 119.492 166.932 128.001C166.932 136.51 173.855 143.422 182.354 143.422C190.853 143.422 197.775 136.5 197.775 128.001C197.775 119.502 190.863 112.58 182.354 112.58ZM182.354 136.582C177.623 136.582 173.773 132.722 173.773 128.001C173.773 123.28 177.613 119.42 182.354 119.42C187.095 119.42 190.935 123.26 190.935 128.001C190.935 132.742 187.095 136.582 182.354 136.582Z" fill="white"/>
</g>
</g>
<defs>
<clipPath id="clip0_741_46">
<rect width="256" height="256" fill="white"/>
</clipPath>
</defs>
</svg>
