<svg width="256" height="256" viewBox="0 0 256 256" fill="none" xmlns="http://www.w3.org/2000/svg">
<circle cx="128" cy="128" r="127" fill="white"/>
<path d="M191.727 110.307V75.6431H174.396V58.3113H139.739V40.9795H105.075V58.3113H70.4116V75.6431H53.0798V179.627H70.4116V196.959H105.075V214.284H139.732V196.959H174.396V179.627H191.727V144.963H157.071V162.295H139.739V179.627H105.075V162.295H87.7573V92.9749H105.089V75.6431H139.746V92.9749H157.078V110.307H191.727Z" fill="url(#paint0_linear_741_46)"/>
<path d="M151.809 74.77H139.739V92.9684H151.809V74.77Z" fill="#1682FE"/>
<path d="M117.117 40.9658H105.047V59.1642H117.117V40.9658Z" fill="#1682FE"/>
<path d="M82.4676 58.2979H70.3977V76.4963H82.4676V58.2979Z" fill="#60D8A4"/>
<path d="M65.2537 127.625H53.059V179.614H65.2537V127.625Z" fill="#F4BB3B"/>
<path d="M65.2537 75.6436H53.059V127.632H65.2537V75.6436Z" fill="#60D8A4"/>
<path d="M169.127 92.0947H157.057V110.293H169.127V92.0947Z" fill="#1682FE"/>
<path d="M169.12 144.957H157.05V163.155H169.12V144.957Z" fill="#FF5A5A"/>
<path d="M151.809 162.289H139.739V180.487H151.809V162.289Z" fill="#FF5A5A"/>
<path d="M117.124 196.079H105.054V214.277H117.124V196.079Z" fill="#FF5A5A"/>
<path d="M82.4607 178.754H70.3908V196.952H82.4607V178.754Z" fill="#F4BB3B"/>
<path d="M203 110.293V75.6295H185.661V58.2976H151.005V40.9658H116.341V58.2976H81.6773V75.6295H64.3385V179.62H81.6703V196.952H116.327V214.277H150.991V196.952H185.661V179.62H203V144.957H168.336V162.289H151.005V179.62H116.341V162.289H99.0091V92.9613H116.341V75.6295H151.005V92.9613H168.336V110.293H203Z" fill="#3A3A3A"/>
<defs>
<linearGradient id="paint0_linear_741_46" x1="149.438" y1="61.6057" x2="67.0004" y2="190.401" gradientUnits="userSpaceOnUse">
<stop stop-color="#1682FE"/>
<stop offset="0.3" stop-color="#60D8A4"/>
<stop offset="0.7" stop-color="#FCA75B"/>
<stop offset="1" stop-color="#FF5A5A"/>
</linearGradient>
</defs>
</svg>
