<svg width="256" height="256" viewBox="0 0 256 256" fill="none" xmlns="http://www.w3.org/2000/svg">
<path d="M127.999 82.2859C153.246 82.2859 173.714 102.754 173.714 128.001C173.714 153.246 153.246 173.714 127.999 173.714C102.754 173.714 82.2857 153.246 82.2857 128.001C82.2857 102.754 102.754 82.2859 127.999 82.2859ZM127.999 0C110.754 0 93.9885 3.39433 78.1486 10.0916C62.8914 16.5372 49.2114 25.7601 37.4857 37.4859C25.7599 49.2116 16.5371 62.8915 10.0914 78.1488C3.39429 93.9778 0 110.755 0 128.001C0 145.247 3.39429 162.012 10.0914 177.852C16.5371 193.108 25.7599 206.789 37.4857 218.515C49.2114 230.24 62.8914 239.463 78.1486 245.909C93.9771 252.606 110.754 256 127.999 256C145.245 256 162.011 252.606 177.851 245.909C193.108 239.463 206.789 230.24 218.514 218.515C230.24 206.789 239.463 193.108 245.909 177.852C252.605 162.024 256 145.247 256 128.001C256 110.755 252.605 93.9887 245.909 78.1488C239.463 62.8915 230.24 49.2116 218.514 37.4859C206.789 25.7601 193.108 16.5372 177.851 10.0916C162.023 3.39433 145.245 0 127.999 0Z" fill="#B7F7B0"/>
<path d="M128 82.2855C153.245 82.2855 173.713 102.754 173.713 128C173.713 153.246 153.245 173.714 128 173.714C102.753 173.714 82.2849 153.246 82.2849 128C82.2849 102.754 102.753 82.2855 128 82.2855ZM128 27.4282C72.5478 27.4282 27.4277 72.5483 27.4277 128C27.4277 183.451 72.5478 228.572 128 228.572C183.451 228.572 228.571 183.451 228.571 128C228.571 72.5483 183.451 27.4282 128 27.4282Z" fill="#07DC10"/>
<path d="M128 82.2861C153.246 82.2861 173.714 102.754 173.714 128.001C173.714 153.246 153.246 173.714 128 173.714C102.755 173.714 82.2859 153.246 82.2859 128.001C82.2859 102.754 102.755 82.2861 128 82.2861ZM128 54.8574C87.6689 54.8574 54.8574 87.6689 54.8574 128.001C54.8574 168.332 87.6689 201.143 128 201.143C168.332 201.143 201.143 168.332 201.143 128.001C201.143 87.6689 168.332 54.8574 128 54.8574Z" fill="#0C9B00"/>
<path d="M127.999 82.2861C153.245 82.2861 173.713 102.754 173.713 128.001C173.713 153.246 153.245 173.714 127.999 173.714C102.754 173.714 82.2852 153.246 82.2852 128.001C82.2852 102.754 102.754 82.2861 127.999 82.2861Z" fill="#EAEAEA"/>
</svg>
