<svg width="256" height="256" viewBox="0 0 256 256" fill="none" xmlns="http://www.w3.org/2000/svg">
<g clip-path="url(#clip0_1138_65)">
<mask id="mask0_1138_65" style="mask-type:luminance" maskUnits="userSpaceOnUse" x="0" y="0" width="256" height="256">
<path d="M256 0H0V256H256V0Z" fill="white"/>
</mask>
<g mask="url(#mask0_1138_65)">
<path d="M128 256C110.723 256 93.9612 252.613 78.1746 245.939C62.9298 239.491 49.2474 230.261 37.4887 218.511C25.7391 206.762 16.5091 193.07 10.0608 177.825C3.38672 162.039 0 145.277 0 128C0 110.723 3.38672 93.9612 10.0608 78.1746C16.5091 62.9298 25.7391 49.2474 37.4887 37.4887C49.2384 25.7391 62.9298 16.5091 78.1746 10.0608C93.9612 3.38672 110.723 0 128 0C145.277 0 162.039 3.38672 177.825 10.0608C193.07 16.5091 206.753 25.7391 218.511 37.4887C230.261 49.2384 239.491 62.9298 245.939 78.1746C252.613 93.9612 256 110.723 256 128C256 145.277 252.613 162.039 245.939 177.825C239.491 193.07 230.261 206.753 218.511 218.511C206.762 230.261 193.07 239.491 177.825 245.939C162.039 252.613 145.277 256 128 256Z" fill="#171817"/>
<path d="M128.001 249.218C194.947 249.218 249.218 194.947 249.218 128C249.218 61.0532 194.947 6.78223 128.001 6.78223C61.0541 6.78223 6.7832 61.0532 6.7832 128C6.7832 194.947 61.0541 249.218 128.001 249.218Z" fill="#171817"/>
<path fill-rule="evenodd" clip-rule="evenodd" d="M56.8036 117.883L56.8077 117.853C61.1551 85.4341 88.9237 60.4326 122.534 60.4326H165.256C166.572 57.3624 169.619 55.21 173.172 55.21C177.927 55.21 181.781 59.064 181.781 63.8182C181.781 68.5731 177.927 72.4271 173.172 72.4271C169.544 72.4271 166.441 70.1826 165.175 67.0082H122.534C92.1834 67.0082 67.1189 89.6401 63.2974 118.948C63.1309 120.452 61.8428 121.751 60.0417 121.751C58.3286 121.751 56.9207 120.44 56.7671 118.767L56.8036 117.883ZM176.638 63.8243C176.638 65.7431 175.083 67.2986 173.166 67.2986C171.246 67.2986 169.691 65.7431 169.691 63.8243C169.691 61.9054 171.246 60.35 173.166 60.35C175.083 60.35 176.638 61.9054 176.638 63.8243Z" fill="url(#paint0_linear_1138_65)"/>
<path fill-rule="evenodd" clip-rule="evenodd" d="M57.0223 140.672C56.4064 136.993 57.6775 133.986 59.7013 131.543C61.7014 129.131 64.4697 127.225 66.9585 125.676C67.257 125.49 67.6103 125.291 67.9785 125.083L67.9907 125.075C70.4051 123.711 73.903 121.685 74.7748 117.663C74.8127 117.487 74.8513 117.312 74.8913 117.137C75.0341 116.51 75.1884 115.887 75.3542 115.271C81.2361 93.367 101.372 77.7602 124.302 77.7602H182.472C183.787 74.6879 186.837 72.5342 190.391 72.5342C195.145 72.5342 198.999 76.3875 198.999 81.1438C198.999 85.8973 195.145 89.7513 190.391 89.7513C186.755 89.7513 183.651 87.4994 182.386 84.3175L153.37 84.3196L124.302 84.3155C104.607 84.3155 87.2729 97.5486 81.8974 116.209C81.7085 116.867 81.5339 117.528 81.3748 118.198C81.3315 118.381 81.2889 118.564 81.2483 118.75C79.7646 125.374 73.6079 128.803 69.6138 131.028L69.4175 131.138C68.365 131.724 66.677 132.836 65.3503 134.316C64.0176 135.8 63.1621 137.52 63.4497 139.385C67.2956 164.308 88.3701 189.85 124.302 189.85H153.37L165.235 189.846C166.538 186.749 169.599 184.573 173.172 184.573C177.928 184.573 181.782 188.426 181.782 193.181C181.782 197.936 177.928 201.79 173.172 201.79C169.557 201.79 166.464 199.561 165.19 196.405H157.167H124.302C85.2985 196.405 61.6337 168.638 57.0223 140.672ZM193.864 81.1397C193.864 83.0572 192.309 84.6126 190.391 84.6126C188.472 84.6126 186.917 83.0572 186.917 81.1397C186.917 79.2194 188.472 77.6641 190.391 77.6641C192.309 77.6641 193.864 79.2194 193.864 81.1397ZM176.651 193.201C176.651 195.12 175.096 196.676 173.178 196.676C171.259 196.676 169.703 195.12 169.703 193.201C169.703 191.283 171.259 189.727 173.178 189.727C175.096 189.727 176.651 191.283 176.651 193.201Z" fill="url(#paint1_linear_1138_65)"/>
<path fill-rule="evenodd" clip-rule="evenodd" d="M153.371 179.115L124.303 179.113C98.926 179.113 77.3242 160.168 74.0537 135.037C73.8188 133.244 75.0852 131.601 76.8768 131.365C78.6705 131.12 80.3213 132.403 80.5555 134.193C83.401 156.061 102.209 172.558 124.303 172.558L182.432 172.556C183.725 169.435 186.799 167.236 190.392 167.236C195.146 167.236 199 171.09 199 175.844C199 180.598 195.146 184.453 190.392 184.453C186.793 184.453 183.715 182.247 182.426 179.115H153.371ZM193.865 175.862C193.865 177.78 192.31 179.335 190.392 179.335C188.472 179.335 186.917 177.78 186.917 175.862C186.917 173.942 188.472 172.387 190.392 172.387C192.31 172.387 193.865 173.942 193.865 175.862Z" fill="url(#paint2_linear_1138_65)"/>
</g>
</g>
<defs>
<linearGradient id="paint0_linear_1138_65" x1="182.425" y1="66.4071" x2="143.727" y2="195.817" gradientUnits="userSpaceOnUse">
<stop offset="0.103627" stop-color="#19FFE0"/>
<stop offset="1" stop-color="#9D47FF"/>
</linearGradient>
<linearGradient id="paint1_linear_1138_65" x1="182.426" y1="66.4066" x2="143.728" y2="195.817" gradientUnits="userSpaceOnUse">
<stop offset="0.103627" stop-color="#19FFE0"/>
<stop offset="1" stop-color="#9D47FF"/>
</linearGradient>
<linearGradient id="paint2_linear_1138_65" x1="182.426" y1="66.4093" x2="143.729" y2="195.819" gradientUnits="userSpaceOnUse">
<stop offset="0.103627" stop-color="#19FFE0"/>
<stop offset="1" stop-color="#9D47FF"/>
</linearGradient>
<clipPath id="clip0_1138_65">
<rect width="256" height="256" fill="white"/>
</clipPath>
</defs>
</svg>
