<svg width="256" height="256" viewBox="0 0 256 256" fill="none" xmlns="http://www.w3.org/2000/svg">
<path d="M128.858 0.000706881C154.137 0.170258 178.8 7.82126 199.736 21.9889C220.672 36.1565 236.945 56.2063 246.501 79.6098C256.058 103.013 258.47 128.723 253.435 153.496C248.399 178.269 236.141 200.996 218.207 218.811C200.272 236.627 177.463 248.733 152.657 253.602C127.852 258.472 102.159 255.888 78.8203 246.175C55.4813 236.462 35.5409 220.056 21.5137 199.025C7.48647 177.995 0.000568594 153.281 0 128.002C0.114758 93.9402 13.7551 61.3192 37.9206 37.3146C62.086 13.3099 94.7972 -0.112222 128.858 0.000706881Z" fill="#00EBAB"/>
<path d="M147.722 108.439V149.571H161.604V108.439H147.722Z" fill="black"/>
<path d="M106.591 122.324V108.442H148.236V95.0742H92.709V162.941H148.236V149.573H106.591V122.324Z" fill="black"/>
<path d="M175.486 81.1914H162.118V94.5591H176V81.1914H175.486Z" fill="black"/>
</svg>
