<svg width="256" height="256" viewBox="0 0 256 256" fill="none" xmlns="http://www.w3.org/2000/svg">
<g clip-path="url(#clip0_1320_9)">
<path d="M128 0C198.699 0 256 57.3126 256 128C256 198.699 198.699 256 128 256C57.3126 256 0 198.693 0 128C0 57.3126 57.3126 0 128 0Z" fill="#F5AC37"/>
<path d="M132.717 137.038H181.355C182.392 137.038 182.882 137.038 182.957 135.678C183.354 130.73 183.354 125.754 182.957 120.8C182.957 119.838 182.479 119.441 181.436 119.441H84.6383C83.4402 119.441 83.1176 119.838 83.1176 120.961V135.2C83.1176 137.038 83.1176 137.038 85.0357 137.038H132.717ZM177.525 102.8C177.663 102.437 177.663 102.039 177.525 101.682C176.713 99.914 175.751 98.2263 174.633 96.6423C172.951 93.9351 170.97 91.441 168.712 89.2003C167.646 87.8467 166.414 86.6313 165.031 85.6003C158.108 79.7078 149.877 75.5375 141.029 73.4408C136.565 72.4386 132.003 71.9605 127.43 72.0008H84.4712C83.2731 72.0008 83.1118 72.4789 83.1118 73.5215V101.919C83.1118 103.117 83.1118 103.439 84.6325 103.439H176.949C176.949 103.439 177.75 103.278 177.911 102.8H177.519H177.525ZM177.525 153.678C176.166 153.529 174.795 153.529 173.435 153.678H84.7189C83.5208 153.678 83.1176 153.678 83.1176 155.28V183.043C83.1176 184.322 83.1176 184.644 84.7189 184.644H125.679C127.637 184.794 129.596 184.656 131.514 184.247C137.458 183.821 143.304 182.531 148.88 180.405C150.908 179.702 152.866 178.787 154.715 177.686H155.274C164.876 172.692 172.675 164.847 177.594 155.216C177.594 155.216 178.153 154.007 177.525 153.69V153.678ZM67.0413 199.039V198.561V179.921V173.602V154.802C67.0413 153.759 67.0413 153.604 65.7625 153.604H48.4017C47.4398 153.604 47.0424 153.604 47.0424 152.325V137.124H65.6013C66.6381 137.124 67.0413 137.124 67.0413 135.765V120.725C67.0413 119.763 67.0413 119.527 65.7625 119.527H48.4017C47.4398 119.527 47.0424 119.527 47.0424 118.248V104.171C47.0424 103.289 47.0424 103.053 48.3211 103.053H65.5206C66.7187 103.053 67.0413 103.053 67.0413 101.533V58.4128C67.0413 57.1341 67.0413 56.8115 68.6426 56.8115H128.639C132.994 56.9843 137.32 57.4624 141.599 58.2515C150.418 59.8816 158.891 63.0324 166.638 67.531C171.776 70.555 176.505 74.2069 180.716 78.4117C183.884 81.7007 186.741 85.2605 189.275 89.0506C191.793 92.8925 193.884 96.9995 195.525 101.291C195.727 102.408 196.798 103.163 197.916 102.973H212.235C214.072 102.973 214.073 102.973 214.153 104.735V117.857C214.153 119.135 213.675 119.458 212.391 119.458H201.349C200.231 119.458 199.909 119.458 199.989 120.898C200.427 125.771 200.427 130.661 199.989 135.534C199.989 136.894 199.989 137.055 201.516 137.055H214.147C214.706 137.775 214.147 138.495 214.147 139.221C214.228 140.148 214.228 141.087 214.147 142.014V151.697C214.147 153.056 213.75 153.46 212.546 153.46H197.426C196.372 153.258 195.347 153.932 195.105 154.98C191.505 164.34 185.745 172.733 178.303 179.46C175.584 181.908 172.727 184.212 169.743 186.338C166.541 188.181 163.424 190.099 160.141 191.62C154.099 194.339 147.763 196.343 141.26 197.616C135.085 198.722 128.824 199.223 122.539 199.137H67.0182V199.056L67.0413 199.039Z" fill="#FEFEFD"/>
</g>
<defs>
<clipPath id="clip0_1320_9">
<rect width="256" height="256" fill="white"/>
</clipPath>
</defs>
</svg>
