<svg width="256" height="256" viewBox="0 0 256 256" fill="none" xmlns="http://www.w3.org/2000/svg">
<g clip-path="url(#clip0_2339_289)">
<path d="M128 251.077C195.973 251.077 251.077 195.974 251.077 128C251.077 60.0265 195.973 4.9231 128 4.9231C60.0263 4.9231 4.92285 60.0265 4.92285 128C4.92285 195.974 60.0263 251.077 128 251.077Z" fill="#202336"/>
<path d="M80.3419 92.4135L52.9229 108.283V76.544L80.3419 92.4135ZM80.4945 128L52.9229 143.87V112.13L80.4945 128ZM80.3419 163.586L52.9229 179.456V147.717L80.3419 163.586ZM81.457 129.925V161.664L53.8853 145.794L81.457 129.925ZM81.457 58.7495L81.617 90.4886L54.0379 74.6191L81.457 58.7495ZM81.457 94.336L81.617 126.078L54.0379 110.208L81.457 94.336ZM81.457 165.511L81.617 197.25L54.0379 181.381L81.457 165.511ZM83.8619 90.4886V58.7495L111.271 74.6191L83.8619 90.4886Z" fill="white"/>
<path d="M83.8623 165.511L111.272 181.381L83.8623 197.251V165.511Z" fill="#00FFFF"/>
<path d="M84.9844 92.4134L112.394 76.5439V108.283L84.9844 92.4134ZM114.639 108.283V76.5439L142.05 92.4134L114.639 108.283ZM114.639 112.13L142.05 128L114.639 143.869V112.13ZM114.639 147.717L142.05 163.586L114.639 179.456V147.717ZM115.761 110.208L143.173 94.3359V126.077L115.761 110.208ZM143.173 129.925V161.664L115.761 145.794L143.173 129.925ZM172.298 77.7476V109.487L144.888 93.6171L172.298 77.7476ZM201.962 93.6171L174.543 109.487L174.419 77.7476L201.962 93.6171ZM174.543 148.921L201.962 164.79L174.419 180.66L174.543 148.921ZM202.114 129.204L174.543 145.073V113.334L202.114 129.204ZM203.077 131.126V162.865L175.505 146.996L203.077 131.126ZM203.077 166.877V198.619L175.505 182.749L203.077 166.877ZM175.658 75.8227L203.077 59.9531V91.6922L175.658 75.8227ZM203.077 95.5396V127.279L175.658 111.409L203.077 95.5396Z" fill="white"/>
<path d="M218.528 37.472C195.368 14.3089 163.345 -0.0271194 128 -0.0246579C92.655 -0.0271194 60.6328 14.3089 37.4722 37.472C14.3091 60.6326 -0.0268753 92.6547 -0.0244137 128C-0.0268753 163.345 14.3091 195.367 37.4722 218.528C60.6328 241.691 92.655 256.027 128 256.025C163.345 256.027 195.368 241.691 218.528 218.528C241.691 195.367 256.027 163.345 256.025 128C256.027 92.6547 241.691 60.6326 218.528 37.472ZM215.065 215.065C192.776 237.349 162.009 251.126 128 251.129C93.9916 251.126 63.2248 237.351 40.9356 215.065C18.6488 192.775 4.87405 162.009 4.87159 128C4.87405 93.9913 18.6488 63.2246 40.9356 40.9353C63.2248 18.6486 93.9916 4.87381 128 4.87135C162.009 4.87381 192.776 18.6486 215.065 40.9353C237.349 63.2246 251.126 93.9913 251.129 128C251.126 162.009 237.349 192.775 215.065 215.065Z" fill="#00FFFF"/>
</g>
<defs>
<clipPath id="clip0_2339_289">
<rect width="256" height="256" fill="white"/>
</clipPath>
</defs>
</svg>
