<svg width="256" height="256" viewBox="0 0 256 256" fill="none" xmlns="http://www.w3.org/2000/svg">
<path d="M213.065 42.9342C191.303 21.1668 161.213 7.69725 128 7.69971C94.786 7.69971 64.6961 21.1692 42.9337 42.9342C21.1663 64.6966 7.69676 94.7865 7.69922 128C7.69922 161.214 21.1688 191.303 42.9337 213.066C64.6961 234.833 94.786 248.303 128 248.3C161.213 248.3 191.303 234.831 213.065 213.066C234.833 191.303 248.302 161.214 248.3 128C248.302 94.7865 234.833 64.6966 213.065 42.9342Z" fill="#202336"/>
<path d="M213.065 42.9342C191.303 21.1668 161.213 7.69725 128 7.69971C94.786 7.69971 64.6961 21.1692 42.9337 42.9342C21.1663 64.6966 7.69676 94.7865 7.69922 128C7.69922 161.214 21.1688 191.303 42.9337 213.066C64.6961 234.833 94.786 248.303 128 248.3C161.213 248.3 191.303 234.831 213.065 213.066C234.833 191.303 248.302 161.214 248.3 128C248.302 94.7865 234.833 64.6966 213.065 42.9342ZM209.811 209.812C188.866 230.752 159.955 243.697 128 243.7C96.0438 243.7 67.1331 230.752 46.1878 209.812C25.2475 188.866 12.3023 159.956 12.2998 128C12.2998 96.0443 25.2475 67.1336 46.1878 46.1883C67.1331 25.248 96.0438 12.3028 128 12.3003C159.955 12.3003 188.866 25.248 209.811 46.1883C230.752 67.1336 243.697 96.0443 243.699 128C243.697 159.956 230.752 188.866 209.811 209.812Z" fill="#00FFFF"/>
<path d="M111.692 102.535L139.427 118.589L139.552 86.4836L111.692 102.535ZM111.692 67.0424L139.427 83.0966L139.552 50.9907L111.692 67.0424ZM142.432 84.539L170.166 100.591L170.292 68.4873L142.432 84.539ZM139.427 158.476L111.692 174.53L139.552 190.582L139.427 158.476Z" fill="white"/>
<path d="M111.537 138.533L139.427 154.585V122.481L111.537 138.533ZM142.417 157.548L170.307 173.6V141.494L142.417 157.548ZM80.8346 121.349L108.721 137.403V105.297L80.8346 121.349ZM50.9736 103.21L78.8629 119.264V87.1582L50.9736 103.21Z" fill="#00FFFF"/>
<path d="M110.564 140.478V172.583L138.454 156.532L110.564 140.478ZM110.564 176.643V208.746L138.454 192.694L110.564 176.643ZM138.299 84.5392L110.564 68.4875V100.591L138.299 84.5392ZM169.568 66.3681L141.833 50.3164V82.4223L169.568 66.3681ZM200.94 84.5392L173.206 68.4875V100.591L200.94 84.5392Z" fill="white"/>
<path d="M110.565 104.483V136.588L138.299 120.534L110.565 104.483ZM140.987 123.215V155.321L168.724 139.267L140.987 123.215ZM172.256 141.494V173.6L199.991 157.548L172.256 141.494ZM80.9111 87.1582V119.264L108.645 103.21L80.9111 87.1582Z" fill="#00FFFF"/>
</svg>
