<svg width="256" height="256" viewBox="0 0 256 256" fill="none" xmlns="http://www.w3.org/2000/svg">
<path d="M127.5 255C197.364 255 254 198.364 254 128.5C254 58.636 197.364 2 127.5 2C57.636 2 1 58.636 1 128.5C1 198.364 57.636 255 127.5 255Z" fill="#74247D"/>
<path fill-rule="evenodd" clip-rule="evenodd" d="M127.257 44.002C149.734 44.002 171.291 52.9309 187.185 68.8245C203.078 84.7181 212.007 106.274 212.007 128.752C212.009 132.152 211.808 135.55 211.405 138.926C211.391 139.042 211.363 139.272 211.363 139.272C211.363 139.272 180.422 110.711 127.5 110.711C75.5658 110.711 43.2124 139.731 43.2124 139.731C43.2124 139.731 43.163 139.361 43.1423 139.176C41.6761 127.259 42.7568 115.166 46.313 103.698C49.8692 92.2296 55.8198 81.6471 63.7712 72.6503C71.7226 63.6534 81.4936 56.4474 92.4379 51.5088C103.382 46.5701 115.25 44.0114 127.257 44.002Z" fill="white"/>
<path fill-rule="evenodd" clip-rule="evenodd" d="M127.502 128.006C149.806 128.001 171.672 134.199 190.655 145.908C209.638 157.617 224.99 174.375 234.995 194.309L235.182 194.682C235.182 194.682 230.66 202.568 222.097 212.28C216.76 218.341 210.83 223.855 204.397 228.738C204.397 228.738 204.355 228.571 204.334 228.491C191.998 179.779 146.727 168.031 127.5 168.031C108.901 168.031 62.6321 178.288 50.2006 228.187C50.1729 228.298 50.1185 228.519 50.1185 228.519C43.7861 223.584 37.9032 218.098 32.5385 212.125C27.7868 206.733 23.5113 200.938 19.76 194.807C19.76 194.807 19.8371 194.652 19.8761 194.575C29.8544 174.571 45.2116 157.745 64.2232 145.986C83.2348 134.227 105.148 128.001 127.502 128.006Z" fill="white"/>
</svg>
