<svg width="256" height="256" viewBox="0 0 256 256" fill="none" xmlns="http://www.w3.org/2000/svg">
<g clip-path="url(#clip0_1320_13)">
<path d="M128 256C198.693 256 256 198.693 256 128C256 57.3075 198.693 0 128 0C57.3075 0 0 57.3075 0 128C0 198.693 57.3075 256 128 256Z" fill="#012F61"/>
<path d="M93.03 49.0238V109.568C93.03 111.616 94.9756 113.28 97.0236 113.28C99.0716 113.28 101.017 111.616 101.017 109.568V52.1214C104.704 51.4814 108.851 51.1486 112.896 51.1486C151.757 51.1486 183.578 80.307 187.059 118.938C187.238 120.986 189.005 122.496 191.027 122.291C193.075 122.112 194.56 120.32 194.355 118.272C192.538 97.971 183.219 79.155 168.141 65.331C152.986 51.4046 133.274 43.7246 112.691 43.7246C107.136 43.7246 101.478 44.2878 96.0764 45.3886C94.3612 45.747 93.03 47.2574 93.03 49.0238Z" fill="white"/>
<path d="M114.636 203.775C114.636 203.852 114.636 203.954 114.636 204.031C114.789 206.079 116.556 207.615 118.604 207.461C138.034 206.079 156.415 197.733 170.316 184.012C184.217 170.29 192.767 152.037 194.38 132.658C194.559 130.61 193.049 128.818 191.001 128.639C188.953 128.46 187.161 129.97 186.981 132.018C183.935 168.217 154.316 197.477 118.066 200.063C116.146 200.217 114.636 201.855 114.636 203.775Z" fill="white"/>
<path d="M109.004 63.5391V123.674C109.004 125.722 110.642 127.386 112.69 127.386C114.738 127.386 116.377 125.722 116.377 123.674V67.3791C146.482 69.2991 171.135 94.7199 171.135 125.696C171.135 139.622 166.169 153.088 157.132 163.661C155.801 165.222 155.98 167.552 157.541 168.883C159.103 170.214 161.433 170.035 162.764 168.474C172.953 156.57 178.533 141.389 178.533 125.696C178.533 108.109 171.673 91.5711 159.231 79.1295C146.789 66.6879 130.252 59.8271 112.665 59.8271C110.668 59.8271 109.004 61.4911 109.004 63.5391Z" fill="#99D7FD"/>
<path d="M114.636 171.135C114.636 171.289 114.636 171.442 114.661 171.596C114.917 173.618 116.761 175.078 118.783 174.822C143.538 171.775 162.201 150.655 162.201 125.695C162.201 115.43 159.077 105.574 153.189 97.2025C147.429 89.0361 139.442 82.8409 130.124 79.3337C128.997 78.8985 127.641 79.0521 126.642 79.7433C125.644 80.4345 124.978 81.5865 124.978 82.7897V135.167C124.978 137.215 126.617 138.879 128.665 138.879C130.713 138.879 132.351 137.215 132.351 135.167V88.5754C145.868 95.8202 154.7 110.13 154.7 125.695C154.7 146.918 138.879 164.863 117.861 167.449C115.967 167.705 114.636 169.292 114.636 171.135Z" fill="white"/>
<path d="M96.7684 122.317C101.533 122.317 105.395 118.454 105.395 113.69C105.395 108.925 101.533 105.062 96.7684 105.062C92.0038 105.062 88.1412 108.925 88.1412 113.69C88.1412 118.454 92.0038 122.317 96.7684 122.317Z" fill="white"/>
<path d="M114.637 212.275C119.402 212.275 123.264 208.413 123.264 203.648C123.264 198.884 119.402 195.021 114.637 195.021C109.872 195.021 106.01 198.884 106.01 203.648C106.01 208.413 109.872 212.275 114.637 212.275Z" fill="white"/>
</g>
<defs>
<clipPath id="clip0_1320_13">
<rect width="256" height="256" fill="white"/>
</clipPath>
</defs>
</svg>
