<svg width="256" height="256" viewBox="0 0 256 256" fill="none" xmlns="http://www.w3.org/2000/svg">
<path d="M128 255.793C198.692 255.793 256 198.578 256 128C256 57.4221 198.692 0.207275 128 0.207275C57.3076 0.207275 0 57.4221 0 128C0 198.578 57.3076 255.793 128 255.793Z" fill="white"/>
<mask id="mask0_2551_381" style="mask-type:luminance" maskUnits="userSpaceOnUse" x="25" y="25" width="206" height="206">
<path d="M230.401 25.7659H25.6006V230.234H230.401V25.7659Z" fill="white"/>
</mask>
<g mask="url(#mask0_2551_381)">
<mask id="mask1_2551_381" style="mask-type:luminance" maskUnits="userSpaceOnUse" x="25" y="25" width="206" height="206">
<path d="M230.402 128C230.402 71.5377 184.555 25.7659 128.002 25.7659C71.4476 25.7659 25.6016 71.5377 25.6016 128C25.6016 184.463 71.4476 230.234 128.002 230.234C184.555 230.234 230.402 184.463 230.402 128Z" fill="white"/>
</mask>
<g mask="url(#mask1_2551_381)">
<path d="M230.402 128C230.402 71.5375 184.555 25.7656 128.002 25.7656C71.4476 25.7656 25.6016 71.5375 25.6016 128C25.6016 184.462 71.4476 230.234 128.002 230.234C184.555 230.234 230.402 184.462 230.402 128Z" fill="white"/>
<path d="M128.919 230.853C185.978 230.853 232.233 184.673 232.233 127.706C232.233 70.7393 185.978 24.5588 128.919 24.5588C71.8599 24.5588 25.6045 70.7393 25.6045 127.706C25.6045 184.673 71.8599 230.853 128.919 230.853Z" fill="white"/>
<path fill-rule="evenodd" clip-rule="evenodd" d="M-41.2832 0.880859H135.924C205.551 0.880859 261.995 57.2332 261.995 126.747V131.097C261.995 198.208 207.501 252.614 140.28 252.614H21.8993V282.865H-41.2832V0.880859ZM21.8993 189.534H140.28C172.606 189.534 198.812 163.371 198.812 131.097V126.747C198.812 92.0715 170.656 63.9612 135.924 63.9612H21.8993V189.534Z" fill="url(#paint0_radial_2551_381)"/>
<path fill-rule="evenodd" clip-rule="evenodd" d="M12.2725 -22.9304H136.788C221.787 -22.9304 290.691 45.8627 290.691 130.723C290.691 215.584 221.787 284.377 136.788 284.377H25.2482V63.5754H70.6921V239.007H136.788C196.689 239.007 245.248 190.527 245.248 130.723C245.248 70.92 196.689 22.4398 136.788 22.4398H12.2725V-22.9304Z" fill="url(#paint1_radial_2551_381)"/>
<path d="M138.85 181.081H121.249V169.282C101.259 167.149 90.196 157.358 90.196 140.162V139.409H109.055V141.668C109.055 149.451 112.951 152.589 130.05 152.589C145.136 152.589 148.656 150.329 148.656 144.681C148.656 139.535 145.765 137.652 137.09 136.146L113.455 132.756C98.3678 130.372 89.4414 122.841 89.4414 109.159C89.4414 97.6115 98.1163 85.4363 121.249 83.428V71.8804H138.85V83.9303C157.331 86.943 166.006 97.7373 166.006 112.8V113.552H147.023V111.796C147.023 103.762 142.874 100.373 126.152 100.373C112.575 100.373 108.425 103.009 108.425 108.406C108.425 113.301 111.191 115.058 118.232 116.314L141.868 120.079C160.726 123.092 167.515 132.254 167.515 143.803C167.515 155.852 159.217 166.898 138.85 169.282V181.081Z" fill="#EA4D71"/>
</g>
</g>
<defs>
<radialGradient id="paint0_radial_2551_381" cx="0" cy="0" r="1" gradientUnits="userSpaceOnUse" gradientTransform="translate(110.356 157.643) rotate(90) scale(125.222 120.047)">
<stop offset="0.145706" stop-color="#B51F41"/>
<stop offset="0.404355" stop-color="#E94C70"/>
<stop offset="0.785988" stop-color="#E94C70"/>
</radialGradient>
<radialGradient id="paint1_radial_2551_381" cx="0" cy="0" r="1" gradientUnits="userSpaceOnUse" gradientTransform="translate(136.665 97.1657) rotate(87.2517) scale(164.716 193.541)">
<stop offset="0.090419" stop-color="#E94C70"/>
<stop offset="0.33142" stop-color="#B72143"/>
<stop offset="0.762325" stop-color="#E94C70"/>
</radialGradient>
</defs>
</svg>
