<svg width="256" height="258" viewBox="0 0 256 258" fill="none" xmlns="http://www.w3.org/2000/svg">
<path d="M128 257.698C198.692 257.698 256 200.011 256 128.849C256 57.6878 198.692 0 128 0C57.3079 0 0 57.6878 0 128.849C0 200.011 57.3079 257.698 128 257.698Z" fill="url(#paint0_linear_3088_2748)"/>
<path fill-rule="evenodd" clip-rule="evenodd" d="M144.752 72.4718C144.752 50.9401 155.695 47.854 169.193 47.854V143.981C169.193 155.251 165.834 165.731 160.068 174.461H161.046C180.89 174.461 185.488 185.482 185.488 199.078H114.491C84.2788 199.078 59.7871 174.411 59.7871 143.981C59.7871 113.551 84.2788 88.8833 114.491 88.8833C125.68 88.8833 136.085 92.267 144.752 98.0751V72.4718ZM114.491 174.461C131.203 174.461 144.752 160.814 144.752 143.981C144.752 127.147 131.203 113.502 114.491 113.502C97.778 113.502 84.2286 127.147 84.2286 143.981C84.2286 160.814 97.778 174.461 114.491 174.461Z" fill="white"/>
<defs>
<linearGradient id="paint0_linear_3088_2748" x1="38.4001" y1="219.044" x2="220.669" y2="37.9764" gradientUnits="userSpaceOnUse">
<stop stop-color="#C91857"/>
<stop offset="1" stop-color="#3F0C78"/>
</linearGradient>
</defs>
</svg>
