<svg width="256" height="256" viewBox="0 0 256 256" fill="none" xmlns="http://www.w3.org/2000/svg">
<g clip-path="url(#clip0_2069_1222)">
<path fill-rule="evenodd" clip-rule="evenodd" d="M128 0C198.697 0 256 57.3026 256 128C256 198.697 198.697 256 128 256C57.3026 256 0 198.697 0 128C0 57.3026 57.3026 0 128 0Z" fill="#071520"/>
<path d="M218.774 84.0392C216.282 77.9379 210.465 74 203.954 74H185.595C181.372 74 177.239 75.7364 174.254 78.7631L109.462 144.453L109.389 144.379L98.2806 155.642L98.353 155.715L88.2213 165.987C88.0895 166.118 87.8852 166.118 87.7626 165.993L51.8219 130.122C51.7025 130.004 51.6648 129.966 51.7465 129.759C51.8313 129.551 51.8847 129.551 52.0513 129.551L72.6378 129.65L92.9069 150.2L104.016 138.938L83.7498 118.391C80.7203 115.316 76.6916 113.625 72.4053 113.625H52.0513C45.5086 113.625 39.6793 117.591 37.203 123.731C34.7267 129.87 36.144 136.841 40.8043 141.483L76.7483 177.358C79.8561 180.455 83.9225 182 87.9889 182C92.1025 182 96.2161 180.416 99.3334 177.256L105.769 170.744L105.757 170.731L138.571 137.463L138.612 137.504L185.601 89.9365H203.96C204.123 89.9365 204.177 89.9365 204.265 90.1404C204.346 90.3475 204.312 90.3858 204.196 90.5036L130.444 165.261C130.34 165.372 130.092 165.369 129.982 165.261L125.935 161.157L114.826 172.419L118.874 176.527C121.906 179.598 125.932 181.29 130.215 181.29C134.498 181.29 138.53 179.598 141.556 176.527L215.295 101.763C219.898 97.0955 221.262 90.1404 218.771 84.0424L218.774 84.0392Z" fill="url(#paint0_linear_2069_1222)"/>
</g>
<defs>
<linearGradient id="paint0_linear_2069_1222" x1="35.9994" y1="127.997" x2="220.002" y2="127.997" gradientUnits="userSpaceOnUse">
<stop offset="0.041" stop-color="white"/>
<stop offset="0.823" stop-color="#5EC2D8"/>
</linearGradient>
<clipPath id="clip0_2069_1222">
<rect width="256" height="256" fill="white"/>
</clipPath>
</defs>
</svg>
