<svg width="256" height="256" viewBox="0 0 256 256" fill="none" xmlns="http://www.w3.org/2000/svg">
<mask id="mask0_2090_10440" style="mask-type:luminance" maskUnits="userSpaceOnUse" x="2" y="2" width="251" height="251">
<path d="M2.17871 2.17871H252.136V252.136H2.17871V2.17871Z" fill="white"/>
</mask>
<g mask="url(#mask0_2090_10440)">
<path d="M252.148 127.157C252.148 58.1336 196.193 2.17871 127.169 2.17871C58.1453 2.17871 2.19043 58.1336 2.19043 127.157C2.19043 196.181 58.1453 252.136 127.169 252.136C196.193 252.136 252.148 196.181 252.148 127.157Z" fill="#657795"/>
<path d="M252.148 127.157C252.148 58.1336 196.193 2.17871 127.169 2.17871C58.1453 2.17871 2.19043 58.1336 2.19043 127.157C2.19043 196.181 58.1453 252.136 127.169 252.136C196.193 252.136 252.148 196.181 252.148 127.157Z" fill="#1452F0"/>
<path fill-rule="evenodd" clip-rule="evenodd" d="M202.105 120.078C202.105 118.848 202.171 117.608 202.171 116.367C202.171 80.3389 175.128 58.4253 137.582 58.4253H87.4845V120.078H118.25V84.5156H137.782C159.64 84.5156 170.741 98.4194 170.741 116.367C170.741 117.608 170.741 118.848 170.542 120.078H202.105ZM58.4473 132.741V189.641H108.745C145.626 189.641 172.403 168.038 173.134 132.741H141.637C140.906 149.381 128.875 163.407 108.545 163.407H89.2128V132.741H58.4473Z" fill="white"/>
</g>
</svg>
