<svg width="256" height="256" viewBox="0 0 256 256" fill="none" xmlns="http://www.w3.org/2000/svg">
<path d="M128 252.8C196.925 252.8 252.8 196.925 252.8 128C252.8 59.0748 196.925 3.19995 128 3.19995C59.0751 3.19995 3.2002 59.0748 3.2002 128C3.2002 196.925 59.0751 252.8 128 252.8Z" fill="#411E27"/>
<path d="M142.199 215.808C140.389 215.405 138.668 215.137 137.93 215.137C137.506 215.137 136.299 214.891 135.248 214.578C134.22 214.287 132.991 214.019 132.544 214.019C132.074 214.019 131.113 213.817 130.42 213.594C129.705 213.37 128.23 212.9 127.113 212.565C123.626 211.514 123.157 211.335 122.508 210.775C122.151 210.485 121.547 210.194 121.145 210.104C120.743 210.015 119.558 209.545 118.508 209.053C117.457 208.561 116.206 207.957 115.691 207.733C115.2 207.51 114.708 207.308 114.596 207.308C114.485 207.308 114.239 207.174 114.06 206.995C113.747 206.727 112.697 206.28 109.12 204.826C106.952 203.976 104.874 202.701 102.929 201.046C101.41 199.771 99.4651 198.272 98.3252 197.489C97.7217 197.087 97.1406 196.527 97.0065 196.237C96.8948 195.968 96.4477 195.588 96.0454 195.387C95.6208 195.185 95.1067 194.738 94.8832 194.402C94.6597 194.067 93.6986 193.038 92.7599 192.121C91.7989 191.226 90.9719 190.309 90.9048 190.086C90.7037 189.459 90.1449 189.37 89.5191 189.862C89.2062 190.108 88.8486 190.309 88.7592 190.309C88.6474 190.309 88.044 190.667 87.4405 191.092C86.8147 191.517 85.7866 192.233 85.1384 192.68C84.5126 193.127 83.5739 193.821 83.0822 194.223C82.5905 194.604 81.9423 195.073 81.6294 195.23C81.0259 195.543 77.8522 197.914 76.9358 198.719C76.2429 199.346 73.4938 200.732 72.5328 200.911C70.9235 201.269 69.6496 200.598 65.3359 197.087C63.4585 195.543 60.0612 191.405 59.0107 189.347C58.7649 188.833 58.2061 188.005 57.8262 187.513C55.5911 184.762 54.0489 179.729 54.0713 175.099C54.0713 172.169 54.2724 171.588 55.6135 170.492C56.731 169.597 57.2227 169.351 58.8319 168.836C59.5695 168.613 60.3518 168.3 60.5976 168.165C60.8435 168.054 61.3352 167.919 61.6704 167.897C62.0057 167.897 63.1456 167.673 64.196 167.45C66.6099 166.913 70.0072 166.376 71.3258 166.354C71.8846 166.331 72.5998 166.264 72.9127 166.152L73.4715 165.996L72.801 165.705C72.4434 165.548 71.6387 165.302 71.0129 165.146C69.4037 164.721 68.3979 164.318 67.9509 163.871C67.7274 163.647 67.3698 163.468 67.124 163.468C66.9005 163.468 66.2523 163.222 65.6935 162.931C65.1348 162.618 63.8384 161.947 62.8103 161.433C61.7822 160.896 60.4635 160.113 59.8377 159.666C59.2342 159.218 58.3849 158.659 57.9826 158.458C56.3287 157.608 50.8752 151.725 48.5954 148.348C47.2768 146.402 44.8629 141.213 44.6394 139.871C44.55 139.379 44.2594 138.171 43.9689 137.187C43.209 134.547 42.8961 130.588 43.0302 124.773C43.1643 119.315 43.2537 118.666 44.4159 113.813C45.6452 108.735 46.0028 107.46 46.3827 106.856C46.5615 106.565 46.785 105.962 46.8745 105.537C46.9639 105.112 47.2768 104.262 47.545 103.635C47.8355 103.031 48.2602 101.868 48.506 101.063C48.7519 100.258 49.2212 99.1619 49.5342 98.6027C49.8471 98.0435 50.2494 97.2383 50.4505 96.8133C51.0093 95.5831 51.2104 95.1805 51.501 94.6884C52.3503 93.3463 53.5796 91.2662 54.0266 90.4609C55.6358 87.5308 55.9711 87.0164 56.4851 86.5243C57.2674 85.7861 57.2004 85.2493 56.0605 83.5941C54.7642 81.7376 53.1102 78.3154 52.6632 76.5931C52.4174 75.6313 52.328 74.5577 52.395 72.8801C52.4844 70.6881 52.5515 70.375 53.5572 67.9593C54.8759 64.7831 55.6135 63.0832 56.0158 62.3674C57.5356 59.661 58.1838 58.565 58.3849 58.4531C58.519 58.3637 58.899 57.894 59.2119 57.3795C59.8154 56.4177 63.4138 52.7494 65.85 50.6469C67.7498 48.9917 72.0411 46.2629 73.4044 45.8155C73.8738 45.6813 74.9243 45.234 75.7512 44.8314C77.3158 44.0709 82.6575 42.2367 83.328 42.2367C83.5292 42.2367 84.982 41.9012 86.5241 41.4763C90.5025 40.3802 94.8609 40 103.019 40C106.617 40 110.596 40.1118 111.847 40.246C114.418 40.5145 121.458 41.8118 124.207 42.5052C125.19 42.7736 126.643 43.1091 127.448 43.2656C128.856 43.5341 131.314 44.1603 134.823 45.1221C135.74 45.3906 136.991 45.7037 137.573 45.8379C138.176 45.9721 139.629 46.5313 140.791 47.0681C141.953 47.6049 143.026 48.0523 143.183 48.0523C143.339 48.0523 143.853 48.2983 144.3 48.6115C145.216 49.2378 145.82 49.3496 145.641 48.8575C145.574 48.6786 145.641 48.1417 145.775 47.6273C145.954 46.9339 146.312 46.4866 147.25 45.7037C147.943 45.1445 148.614 44.6972 148.725 44.6972C148.86 44.6972 149.508 44.4511 150.178 44.138C153.464 42.5723 159.655 42.192 164.773 43.2656C167.343 43.8025 168.439 44.138 172.707 45.6813C174.406 46.2853 177.781 47.9628 179.189 48.9022C180.418 49.7075 184.553 53.3086 186.162 54.9862C187.503 56.373 187.638 56.5072 189.917 58.2071C191.147 59.1242 192.599 60.4438 193.158 61.1372C193.717 61.853 194.812 63.195 195.617 64.1568C198.165 67.1764 199.707 69.279 200.377 70.5987C200.735 71.292 201.115 71.9854 201.204 72.0973C201.316 72.2315 201.875 73.7301 202.456 75.4524C203.506 78.5167 203.529 78.6509 203.551 81.3127C203.551 83.9744 203.551 84.0415 202.881 85.0033C202.076 86.144 200.936 86.6137 199.416 86.4572C198.232 86.3006 196.108 85.3835 194.812 84.4217C194.32 84.0415 193.404 83.4376 192.801 83.0573C189.224 80.8429 188.107 80.5074 185.894 80.9548L184.441 81.2456V82.4087C184.441 83.7283 183.86 86.569 183.391 87.4861C182.966 88.3137 182.206 90.7294 182.206 91.2214C182.206 91.4227 181.849 92.6306 181.402 93.8832C180.128 97.5962 176.462 103.322 174.943 104.016L174.451 104.239L174.987 105.738C176.306 109.272 177.267 112.18 177.289 112.649C177.289 112.94 177.423 113.432 177.602 113.768C178.899 116.362 179.748 125.153 179.301 131.371C179.077 134.57 178.563 137.119 177.87 138.417C177.245 139.602 175.166 142.823 174.384 143.785C173.177 145.284 173.154 145.328 174.004 145.037C174.987 144.68 177.423 143.427 178.519 142.689C180.441 141.392 180.329 141.459 184.106 140.117C185.715 139.535 187.191 138.976 187.436 138.842C188.018 138.506 190.141 137.858 191.75 137.522C193.627 137.142 195.103 137.612 197.382 139.334C199.327 140.788 200.221 141.682 201.093 143.092C201.428 143.651 201.897 144.277 202.121 144.523C202.344 144.791 202.59 145.194 202.679 145.44C202.746 145.709 203.372 147.118 204.043 148.594C205.674 152.15 205.808 152.463 206.121 153.515C206.613 155.17 208.423 158.547 209.541 159.934C210.144 160.672 210.748 161.634 210.86 162.037C211.329 163.737 210.077 165.75 207.865 166.913C207.217 167.248 206.434 167.673 206.121 167.852C204.646 168.658 198.835 170.089 196.175 170.313C195.572 170.357 194.611 170.469 194.052 170.536C192.465 170.782 190.342 170.872 184.531 171.006L179.144 171.118L179.949 172.549C180.709 173.914 180.798 173.981 181.424 173.869C182.273 173.735 183.48 174.07 184.084 174.63C184.576 175.077 186.788 176.061 188.465 176.553C189.023 176.732 189.873 177.023 190.364 177.202C191.459 177.604 196.846 177.694 198.88 177.314C200.869 176.956 203.663 175.86 206.233 174.473C206.725 174.205 207.865 173.78 208.759 173.511C210.212 173.086 210.48 173.086 211.307 173.355C213.497 174.048 213.832 176.553 212.178 180.132C210.927 182.883 209.988 184.65 209.496 185.254C208.759 186.149 208.111 187.044 206.457 189.571C203.171 194.514 196.935 200.911 193.784 202.522C193.382 202.723 192.711 203.193 192.309 203.528C191.907 203.886 191.482 204.177 191.348 204.177C191.236 204.177 190.253 204.759 189.18 205.474C188.107 206.19 186.945 206.928 186.565 207.129C186.207 207.308 185.09 207.912 184.106 208.472C183.123 209.008 181.961 209.59 181.536 209.769C181.111 209.925 180.597 210.194 180.418 210.35C180.038 210.664 176.976 211.715 173.601 212.677C172.372 213.035 170.964 213.482 170.472 213.661C169.981 213.84 169.288 213.996 168.908 213.996C168.237 214.019 166.494 214.354 162.94 215.182C161.89 215.428 160.817 215.584 160.594 215.562C160.37 215.54 159.789 215.607 159.297 215.741C158.269 216.009 143.406 216.076 142.199 215.808ZM159.074 212.99C160.191 212.923 161.488 212.766 161.979 212.632C162.471 212.498 163.991 212.207 165.332 211.961C169.69 211.2 172.037 210.664 172.573 210.35C172.685 210.261 173.222 210.127 173.758 210.015C176.753 209.389 184.218 205.81 188.085 203.148C189.046 202.477 189.962 201.94 190.096 201.94C190.253 201.94 190.498 201.739 190.655 201.493C190.789 201.247 191.459 200.777 192.085 200.464C194.276 199.346 197.673 196.326 200.668 192.814C201.584 191.741 202.456 190.712 202.635 190.533C202.992 190.108 207.909 182.928 207.909 182.816C207.909 182.771 208.155 182.369 208.446 181.921C208.736 181.496 209.161 180.579 209.362 179.908C209.586 179.237 209.854 178.678 209.943 178.678C210.055 178.678 210.144 178.432 210.144 178.141C210.144 177.851 210.301 177.493 210.48 177.336C210.659 177.179 210.815 176.777 210.815 176.419C210.815 175.659 210.323 175.547 209.519 176.128C209.228 176.33 208.826 176.419 208.558 176.33C208.289 176.24 207.954 176.307 207.731 176.486C206.591 177.426 201.808 179.416 199.752 179.819C199.014 179.953 197.047 180.11 195.393 180.177C191.258 180.311 189.381 179.931 185.224 178.052C183.994 177.515 182.788 176.866 182.519 176.643C181.894 176.061 181.581 176.106 181.402 176.822C181.178 177.649 181.782 178.7 183.994 181.317C184.553 181.966 184.553 182.033 184.017 182.033C183.525 182.033 180.664 178.879 179.949 177.56C179.703 177.135 179.122 176.173 178.63 175.435C178.139 174.697 177.58 173.757 177.401 173.377C177.222 172.974 176.976 172.639 176.887 172.639C176.775 172.639 176.552 172.37 176.373 172.057C175.993 171.342 174.361 170.178 173.736 170.178C173.49 170.178 173.244 170.089 173.177 169.977C173.11 169.865 172.663 169.731 172.216 169.664C171.143 169.53 168.617 168.792 167.947 168.411C167.12 167.964 167.612 167.651 168.997 167.785C177.155 168.523 179.1 168.613 183.659 168.523C190.342 168.411 196.287 168.009 197.941 167.584C198.679 167.405 199.863 167.114 200.534 166.958C201.204 166.801 201.92 166.622 202.098 166.555C202.277 166.465 202.948 166.242 203.551 166.018C206.211 165.056 208.334 163.647 208.356 162.842C208.356 162.663 207.932 162.014 207.395 161.388C206.859 160.739 206.323 159.979 206.166 159.666C206.032 159.353 205.808 158.95 205.697 158.771C205.563 158.592 205.205 157.787 204.87 156.982C204.199 155.304 203.797 154.387 203.35 153.358C203.171 152.956 202.814 152.061 202.545 151.39C201.785 149.444 200.087 146.022 199.148 144.568C198.276 143.226 196.086 141.28 194.454 140.43C193.136 139.736 190.99 139.96 189.09 140.989C188.777 141.168 188.375 141.324 188.196 141.324C187.839 141.324 185.626 142.174 183.816 143.024C183.167 143.315 182.452 143.561 182.229 143.561C182.005 143.561 181.692 143.718 181.536 143.897C181.402 144.076 181.044 144.277 180.798 144.366C180.53 144.456 180.016 144.747 179.636 145.015C179.279 145.284 177.111 146.424 174.831 147.565C172.551 148.706 170.539 149.735 170.361 149.824C169.958 150.025 168.081 150.898 167.12 151.278C166.762 151.435 166.092 151.725 165.622 151.927C165.175 152.128 164.617 152.285 164.348 152.285C164.103 152.285 163.566 152.486 163.186 152.71C162.806 152.956 162.337 153.09 162.158 153.023C161.979 152.956 161.622 153 161.353 153.135C161.085 153.269 160.459 153.448 159.968 153.537C159.476 153.627 158.917 153.738 158.738 153.761C158.56 153.806 157.464 153.895 156.347 153.984C154.849 154.096 154.268 154.074 154.268 153.873C154.268 153.738 154.514 153.627 154.827 153.627C155.14 153.627 155.565 153.537 155.788 153.425C156.481 153.067 157.934 152.531 158.873 152.285C159.387 152.173 159.923 151.904 160.079 151.725C160.236 151.546 160.571 151.39 160.862 151.39C161.13 151.39 161.532 151.189 161.756 150.942C161.979 150.696 162.27 150.495 162.382 150.495C162.605 150.495 164.393 149.712 164.997 149.354C165.175 149.243 165.622 148.974 165.958 148.75C167.746 147.677 169.601 145.955 170.942 144.098C171.746 143.002 172.596 141.839 172.842 141.503C173.937 140.072 175.725 136.918 175.725 136.404C175.725 136.091 175.859 135.643 176.038 135.397C177.043 133.899 177.245 124.437 176.328 119.852C176.149 118.935 176.06 118.085 176.105 117.995C176.216 117.816 175.188 114.416 174.831 113.768C174.697 113.544 174.607 113.142 174.607 112.873C174.607 112.359 172.752 106.834 172.037 105.201C171.59 104.172 171.456 103.859 170.919 102.293C170.696 101.689 170.383 101.085 170.204 100.996C170.048 100.907 169.914 100.638 169.914 100.437C169.914 100.012 168.304 96.9028 167.187 95.1805C166.718 94.4423 166.583 94.0174 166.74 93.8608C166.896 93.7042 167.008 93.7713 167.098 94.0621C167.187 94.3081 167.477 94.6213 167.768 94.7555C168.059 94.8897 168.64 95.4712 169.042 96.0752C169.444 96.6567 170.092 97.5067 170.472 97.954C170.875 98.4014 171.635 99.475 172.149 100.37C172.663 101.242 173.222 101.958 173.378 101.958C173.646 101.958 175.278 100.124 175.278 99.8329C175.278 99.7434 175.591 99.3184 175.948 98.8935C176.328 98.4909 176.619 98.0435 176.619 97.9093C176.619 97.7975 176.798 97.4172 177.043 97.0817C178.273 95.2923 178.809 94.3305 179.167 93.2345C179.39 92.5635 179.658 91.7806 179.77 91.5122C179.86 91.2438 180.061 90.2149 180.195 89.2084C180.441 87.4637 180.597 86.8598 181.067 86.0769C181.558 85.227 181.759 83.281 181.759 79.1878C181.759 76.7721 181.849 74.6472 181.961 74.4906C182.072 74.3117 182.341 74.2222 182.564 74.2669C182.877 74.3117 183.033 74.6248 183.145 75.4524C183.235 76.0787 183.391 76.9734 183.503 77.4655L183.659 78.3602H186.788L189.917 78.3825L191.527 79.1878C192.398 79.6351 193.18 80.1272 193.27 80.2614C193.359 80.3956 193.65 80.5969 193.896 80.7311C194.544 80.9995 195.103 81.3574 196.153 82.1626C197.338 83.0573 199.349 84.0639 199.975 84.0639C200.981 84.0639 201.227 83.4376 201.07 81.2456C201.003 80.1719 200.891 79.1654 200.802 79.0312C200.735 78.9193 200.69 78.5838 200.713 78.3154C200.757 78.0694 200.668 77.7786 200.556 77.6891C200.422 77.622 200.31 77.3984 200.31 77.197C200.31 76.8392 199.372 74.2222 198.992 73.5288C198.88 73.3499 198.522 72.6341 198.165 71.9631C197.628 70.9342 196.488 69.2119 196.064 68.854C195.997 68.7869 195.46 68.1382 194.901 67.4001C194.343 66.662 193.672 65.8344 193.404 65.566C193.158 65.2976 192.465 64.4923 191.884 63.7766C190.253 61.7635 189.515 61.003 188.912 60.6899C188.599 60.5109 188.062 60.1083 187.682 59.7952C186.676 58.9005 183.547 56.0822 182.788 55.3441C182.408 54.9862 181.402 54.0915 180.53 53.3534C179.681 52.6152 178.876 51.8771 178.787 51.6982C178.697 51.5416 178.429 51.4074 178.206 51.4074C177.982 51.4074 177.647 51.2285 177.446 51.0048C177.133 50.6693 175.658 49.9088 171.59 48.0299C169.31 46.9563 167.656 46.4195 165.332 45.9274C164.348 45.7261 163.141 45.48 162.65 45.3906C160.951 45.0327 153.441 45.3458 152.816 45.7932C152.704 45.8826 151.989 46.1958 151.251 46.4866C149.329 47.2471 148.234 48.0075 148.234 48.6115C148.234 49.193 148.725 49.6627 150.826 51.0271C151.698 51.6087 152.547 52.235 152.704 52.4139C152.86 52.5929 153.106 52.7494 153.263 52.7494C153.441 52.7494 153.754 52.9955 153.978 53.2863C154.224 53.577 154.738 54.0244 155.118 54.2481C155.922 54.7401 156.883 55.8809 157.509 57.1335C157.755 57.6032 158.09 58.1176 158.269 58.2518C158.515 58.4531 158.493 58.565 158.046 58.8558C157.576 59.2136 157.509 59.2136 157.062 58.811C156.816 58.5873 156.079 58.0729 155.453 57.6703C154.805 57.2677 154.268 56.8427 154.268 56.7308C154.268 56.6414 154.157 56.5519 154 56.5519C153.866 56.5519 153.263 56.2388 152.659 55.8585C151.519 55.1204 149.888 54.2033 148.234 53.3981C147.675 53.1297 146.982 52.7494 146.669 52.5481C146.356 52.3245 145.663 51.9889 145.105 51.7653C144.546 51.5416 143.607 51.1166 142.981 50.8258C139.808 49.3272 134.019 47.1576 133.125 47.1576C132.834 47.1576 132.544 47.0681 132.477 46.9339C132.41 46.8221 132.141 46.7102 131.896 46.7102C131.672 46.7102 131.292 46.6208 131.069 46.5089C130.689 46.2853 127.537 45.2787 127.113 45.234C127.001 45.234 126.733 45.1445 126.554 45.0774C126.375 45.0103 125.928 44.8985 125.548 44.8314C124.721 44.6972 123.536 44.4288 120.407 43.7354C114.328 42.3709 110.685 42.0354 102.08 42.1249C94.4139 42.192 93.2516 42.2815 89.005 43.1538C80.1766 44.9208 73.0021 48.0299 67.4369 52.481C65.0901 54.3599 62.341 57.2006 61.0893 59.0123C59.3907 61.4951 56.8651 66.0357 56.6192 67.087C56.4851 67.6238 56.1722 68.4737 55.9487 68.9658C54.9206 71.1578 54.8089 71.5828 54.8089 73.2827C54.8089 75.8997 55.3676 77.3536 58.2061 82.2745C59.0554 83.7283 59.5025 84.7572 59.5919 85.5177C59.7483 86.6137 59.726 86.6808 58.8543 87.6874C58.3402 88.2466 57.9379 88.7834 57.9379 88.8729C57.9379 88.94 57.6474 89.432 57.3121 89.9465C56.9545 90.4609 56.3063 91.6017 55.837 92.4516C55.3676 93.324 54.8536 94.1739 54.6971 94.3529C54.1383 94.9792 50.9646 101.332 50.674 102.383C50.5176 102.942 49.9588 104.575 49.4448 105.984C48.1261 109.63 47.9696 110.122 47.4332 112.135C46.6509 115.02 46.3604 116.295 46.2039 117.615C46.1145 118.286 45.9134 119.695 45.7122 120.746C45.2876 123.252 45.2876 131.013 45.7346 133.943C46.0698 136.113 46.4721 137.522 47.545 140.318C47.8579 141.19 48.2155 142.13 48.3049 142.443C48.6178 143.382 50.1376 146.29 50.9199 147.386C51.3222 147.968 51.7915 148.728 51.9704 149.064C52.1715 149.422 52.5515 149.958 52.842 150.271C53.1326 150.585 54.116 151.636 55.01 152.598C56.731 154.477 59.5472 156.847 60.8435 157.496C61.8269 157.988 62.2516 158.257 63.5255 159.107C64.9783 160.091 68.6661 161.835 70.5659 162.439C71.1917 162.618 72.1975 162.954 72.801 163.133C76.7123 164.385 77.3158 164.452 85.0937 164.497C91.5977 164.564 92.5364 164.609 92.9834 164.945C93.6763 165.481 93.6092 165.705 92.7152 165.705C92.2906 165.705 91.8883 165.794 91.8212 165.906C91.6871 166.085 89.765 166.421 88.7815 166.421C88.4686 166.421 88.044 166.51 87.8428 166.622C87.6193 166.734 86.6135 166.846 85.5854 166.846C84.5573 166.846 83.6186 166.935 83.4845 167.002C83.1045 167.271 82.9481 168.635 83.2163 169.485C83.3504 169.932 83.708 170.894 83.9762 171.632C84.2667 172.37 84.6691 173.534 84.8702 174.205C85.2725 175.547 87.2617 179.796 87.8875 180.691C88.111 181.004 88.7145 182.056 89.2285 183.04C89.7426 184.024 90.4578 185.165 90.8378 185.567C91.1954 185.992 91.5753 186.574 91.6871 186.865C91.7989 187.155 92 187.401 92.1341 187.401C92.2459 187.401 92.5364 187.782 92.7823 188.274C93.2963 189.28 97.7441 193.866 99.4427 195.141C100.069 195.61 101.588 196.818 102.795 197.802C103.98 198.786 105.142 199.704 105.343 199.815C110.014 202.656 111.914 203.73 114.149 204.826C118.888 207.152 121.145 208.203 121.413 208.203C121.681 208.203 127.828 210.082 128.677 210.418C129.392 210.708 130.979 211.089 133.371 211.558C134.6 211.804 135.963 212.095 136.388 212.229C136.813 212.341 137.573 212.453 138.064 212.453C138.556 212.453 139.338 212.565 139.83 212.699C141.73 213.236 152.905 213.392 159.074 212.99ZM72.7786 198.093C73.762 197.802 75.0137 197.109 76.2876 196.102C76.7346 195.744 77.2711 195.454 77.4722 195.454C77.6734 195.454 77.8298 195.364 77.8298 195.252C77.8298 194.917 86.323 188.497 87.3958 188.028C87.9993 187.759 88.3345 187.469 88.3345 187.2C88.3345 186.507 87.7981 185.433 87.1947 184.963C86.5465 184.471 83.708 179.729 82.3223 176.822C81.8082 175.748 81.1377 174.093 80.8471 173.131C80.5789 172.192 79.9978 170.76 79.5732 169.955L78.8132 168.501L76.6005 168.456C73.6503 168.367 69.6719 168.859 64.4196 169.932C58.519 171.163 56.7086 172.169 56.351 174.428C56.2393 175.099 56.2169 176.016 56.284 176.441C56.6639 178.768 57.111 180.602 57.625 182.078C58.4073 184.203 60.6647 188.386 61.7151 189.549C62.1622 190.063 63.0338 191.114 63.6373 191.897C65.6488 194.47 68.018 196.751 69.5602 197.579C71.1694 198.429 71.4376 198.473 72.7786 198.093Z" fill="white"/>
<path d="M200.646 161.612C198.232 160.158 197.472 159.509 195.483 157.138C193.628 154.901 191.661 151.435 191.169 149.489C191.035 148.996 190.789 148.035 190.588 147.364C190.409 146.693 190.253 145.462 190.253 144.635C190.253 143.27 190.32 143.047 190.946 142.331C192.376 140.698 194.053 141.548 197.226 145.552C198.545 147.185 201.428 152.352 201.428 153.045C201.428 153.134 201.585 153.537 201.763 153.917C201.942 154.32 202.322 155.349 202.635 156.199C202.926 157.071 203.44 158.458 203.753 159.308C204.691 161.768 204.49 162.573 203.015 162.573C202.479 162.573 201.696 162.26 200.646 161.612Z" fill="white"/>
<path d="M88.8939 156.758C86.5024 156.669 84.1779 156.445 83.1945 156.221C82.2782 156.02 80.9148 155.751 80.1772 155.617C77.3387 155.148 74.7684 154.454 73.4721 153.85C72.7345 153.492 71.7958 153.09 71.3711 152.933C70.9688 152.777 70.276 152.419 69.8066 152.106C69.3596 151.792 68.4209 151.256 67.728 150.898C67.0128 150.54 65.9623 149.914 65.3812 149.533C63.9955 148.572 60.8441 145.574 60.8441 145.194C60.8441 145.037 60.7547 144.903 60.6429 144.903C60.3524 144.903 58.4973 142.085 57.715 140.452C56.8657 138.685 56.3516 137.075 55.48 133.362L54.7871 130.432L54.8542 123.967L54.9212 117.503L55.6811 114.484C56.4634 111.352 56.7539 110.435 57.9385 107.438C58.3408 106.454 58.8549 105.156 59.1007 104.53C60.0171 102.114 62.6992 97.2606 64.0625 95.5383C64.5543 94.8897 65.3365 93.9055 65.7612 93.3016C66.5881 92.1832 66.9011 91.8253 68.7561 89.8794C70.0972 88.4702 71.3711 87.3295 72.4663 86.5243C72.891 86.2111 73.9861 85.3612 74.9249 84.6007C76.7576 83.1244 78.6127 81.8271 78.8585 81.8271C78.9479 81.8271 79.5514 81.4692 80.1996 81.0442C80.8701 80.5969 81.7194 80.0824 82.1217 79.9035C82.524 79.7022 83.3063 79.322 83.865 79.0312C84.4238 78.7404 85.0049 78.4944 85.1614 78.4944C85.5637 78.472 86.7929 77.8233 87.3294 77.3536C87.5752 77.1299 88.0893 76.9063 88.4469 76.8615C89.5868 76.7273 86.033 75.9892 83.5298 75.855C81.8982 75.7655 80.8254 75.8326 79.5067 76.101C78.5233 76.3023 76.6235 76.6155 75.2825 76.7944C73.0474 77.1076 72.8016 77.1076 72.4216 76.7497C72.1981 76.5484 72.0193 76.101 72.0193 75.7432C72.0193 74.7814 72.6898 74.2893 74.1873 74.1103C74.9025 74.0432 75.7295 73.8867 76.0424 73.7748C78.0539 73.0814 83.865 71.9854 86.8824 71.717C90.8384 71.3815 98.594 71.2473 99.488 71.4933C99.935 71.6276 101.276 71.8289 102.461 71.9631C104.897 72.2315 105.389 72.3209 109.456 73.3275C111.066 73.7301 112.675 74.1103 113.077 74.1551C113.479 74.2222 113.926 74.4011 114.06 74.5801C114.195 74.759 114.508 74.8932 114.731 74.8932C114.955 74.8932 115.2 75.005 115.267 75.1169C115.334 75.2511 115.603 75.3405 115.826 75.3405C116.072 75.3405 116.586 75.4748 116.988 75.6537C117.391 75.8326 118.128 76.1458 118.62 76.3471C120.877 77.3089 126.13 80.0153 127.448 80.91C128.253 81.4469 129.415 82.1402 130.019 82.4534C130.645 82.7665 131.382 83.281 131.695 83.5718C132.008 83.8849 132.813 84.5336 133.483 85.0256C134.154 85.5177 135.115 86.3006 135.606 86.7703C136.098 87.24 137.528 88.5373 138.802 89.6781C140.814 91.4898 144.211 95.2028 144.211 95.5831C144.211 95.6725 144.658 96.2765 145.217 96.9028C145.776 97.5514 146.223 98.2001 146.223 98.3119C146.223 98.4237 146.424 98.7145 146.692 98.9606C146.96 99.1842 147.34 99.6987 147.541 100.101C147.743 100.482 148.48 101.868 149.195 103.143C149.888 104.441 150.469 105.581 150.469 105.671C150.469 105.872 151.207 107.505 151.833 108.69C152.056 109.138 152.257 109.719 152.257 109.965C152.257 110.211 152.414 110.748 152.593 111.196C153.308 112.895 153.665 115.445 153.621 118.51C153.576 123.274 153.107 125.377 151.229 129.09C149.799 131.975 147.296 135.397 145.373 137.142C144.792 137.656 143.921 138.484 143.429 138.998C142.021 140.407 137.774 143.852 136.947 144.21C136.679 144.322 136.344 144.568 136.187 144.769C136.031 144.97 135.785 145.127 135.673 145.127C135.562 145.127 134.936 145.462 134.31 145.887C133.662 146.29 132.924 146.715 132.634 146.805C132.366 146.872 131.516 147.319 130.734 147.766C129.974 148.236 128.588 148.952 127.672 149.377C126.756 149.802 125.839 150.271 125.66 150.406C125.482 150.562 125.035 150.764 124.655 150.853C124.297 150.942 123.001 151.39 121.771 151.882C120.564 152.352 119.067 152.844 118.419 152.978C117.793 153.112 116.318 153.537 115.156 153.962C111.96 155.103 103.556 156.378 97.6106 156.646C96.0237 156.713 94.3027 156.803 93.811 156.847C93.3193 156.87 91.1066 156.825 88.8939 156.758ZM92.537 152.911C92.7829 152.62 93.0287 152.016 93.0734 151.524L93.1405 150.674L94.5933 151.815C96.2248 153.09 96.3366 153.112 99.3986 152.642C106.35 151.546 106.618 151.435 106.819 149.511L106.953 148.46L107.869 149.511C108.674 150.406 108.92 150.562 109.59 150.54C110.462 150.495 115.536 149.086 116.631 148.572C117.793 148.012 119.581 145.91 121.749 142.555C122.844 140.832 124.23 138.931 124.833 138.305L125.906 137.187L125.347 138.35C124.833 139.401 124.588 140.43 124.856 140.43C125.75 140.43 133.192 139.669 133.93 139.513C135.45 139.177 136.545 138.417 138.78 136.202C141.864 133.138 143.876 129.895 145.15 125.846C145.619 124.392 145.664 123.766 145.664 120.075C145.664 116.474 145.597 115.691 145.15 113.991C143.004 105.85 138.624 99.2737 131.248 93.1227C127.314 89.8346 120.542 86.3006 115.491 84.8691C110.797 83.5718 108.696 83.3034 103.31 83.281C98.1023 83.281 97.0295 83.3928 92.6264 84.4217C89.8773 85.0704 85.6754 86.6585 83.5745 87.8887C82.7252 88.3584 81.9876 88.761 81.9429 88.761C81.7194 88.761 77.4281 91.6464 76.3106 92.5411C68.6667 98.6474 62.498 108.019 60.1736 117.145C59.1007 121.35 58.7208 127.322 59.3019 131.103C60.5312 139.289 64.6437 145.53 70.9912 148.907C72.6004 149.757 73.9414 149.802 76.7129 149.086C78.5009 148.616 78.6127 148.572 78.6127 147.99C78.5903 147.453 78.8138 147.61 80.9595 149.668C84.8708 153.492 84.4909 153.313 89.1397 153.381C91.8889 153.403 92.09 153.381 92.537 152.911Z" fill="white"/>
<path d="M72.5997 134.145C69.0683 132.914 66.3862 129.738 65.4252 125.623C64.777 122.894 65.1346 119.718 66.3415 117.347C67.1685 115.736 69.1577 113.723 70.6552 112.985C71.795 112.426 72.1303 112.359 74.3653 112.359C76.578 112.359 76.9356 112.426 78.0532 112.963C80.6235 114.238 83.0373 116.922 84.0654 119.695C86.0993 125.242 83.8419 131.639 79.0589 133.876C77.2262 134.726 74.5441 134.838 72.5997 134.145Z" fill="white"/>
<path d="M115.178 127.121C111.87 126.517 108.339 124.124 107.355 121.798C106.55 119.897 105.232 114.864 105.276 113.813C105.299 113.276 105.522 112.135 105.768 111.285C107.132 106.789 110.931 103.635 115.871 102.853C119.089 102.36 123.09 103.613 125.682 105.939C129.594 109.451 130.801 115.445 128.566 120.254C126.197 125.332 120.743 128.128 115.178 127.121Z" fill="white"/>
</svg>
