<svg width="256" height="256" viewBox="0 0 256 256" fill="none" xmlns="http://www.w3.org/2000/svg">
<g clip-path="url(#clip0_1497_53)">
<path d="M128 256C198.692 256 256 198.692 256 128C256 57.3075 198.692 0 128 0C57.3075 0 0 57.3075 0 128C0 198.692 57.3075 256 128 256Z" fill="#2471FF"/>
<path d="M218.203 82.2795C217.008 80.6212 215.414 79.2922 213.567 78.4165C211.721 77.5408 209.682 77.1471 207.643 77.2717H170.243L174.971 62.5195H158.091L153.363 77.2717H136.619L141.347 62.5195H124.467L119.739 77.2717H48.8186L61.6907 95.3196L35.5706 178.52L87.3386 178.583L82.5386 193.448H99.4026L104.203 178.583H120.939L116.211 193.432H133.091L137.851 178.632L175.875 178.68C180.836 178.585 185.629 176.868 189.523 173.792C193.681 170.894 196.772 166.712 198.323 161.888L219.619 94.0237C220.345 92.0966 220.595 90.0228 220.349 87.9783C220.102 85.9338 219.366 83.9788 218.203 82.2795ZM153.179 153.296H88.7786L94.0828 136.432H117.587L122.891 119.552H99.3867L104.651 102.68H169.051L153.179 153.296Z" fill="white"/>
</g>
<defs>
<clipPath id="clip0_1497_53">
<rect width="256" height="256" fill="white"/>
</clipPath>
</defs>
</svg>
