<svg width="256" height="256" viewBox="0 0 256 256" fill="none" xmlns="http://www.w3.org/2000/svg">
<g clip-path="url(#clip0_2354_351)">
<mask id="mask0_2354_351" style="mask-type:alpha" maskUnits="userSpaceOnUse" x="0" y="0" width="256" height="256">
<path d="M128 256C198.692 256 256 198.692 256 128C256 57.3075 198.692 0 128 0C57.3075 0 0 57.3075 0 128C0 198.692 57.3075 256 128 256Z" fill="#C4C4C4"/>
</mask>
<g mask="url(#mask0_2354_351)">
<path d="M-41.75 98.25L-3 170.75L1.25 178L131.5 78.75L184.75 9L131.5 -10.25L37.25 3.75L-41.75 98.25Z" fill="url(#paint0_linear_2354_351)"/>
<path d="M30.75 141C19.35 154 -0.666665 162.25 -9.25 164.75V168.75L13.25 304.5L139.5 259.75L230.5 68.25V8.49995C194.5 4.66664 125.65 -1.80003 108.25 2.99998C86.5 8.99995 45 124.75 30.75 141Z" fill="url(#paint1_linear_2354_351)"/>
<path d="M101.25 161.5C104.05 169.7 67.25 220.417 48.5 244.75L101.25 305.75L242.25 213C259.583 133.917 278.95 -15.3999 217.75 20.0001C141.25 64.25 97.75 151.25 101.25 161.5Z" fill="url(#paint2_linear_2354_351)"/>
<path d="M181 210.75C172.25 240.25 135.5 253.75 89.75 261.75V272.75L284.75 268.75C291 181.083 292.95 17.5 250.75 64.5C198 123.25 191.743 174.532 181 210.75Z" fill="#29D9FF"/>
<path d="M128 243C191.513 243 243 191.513 243 128C243 64.4873 191.513 13 128 13C64.4873 13 13 64.4873 13 128C13 191.513 64.4873 243 128 243Z" fill="white"/>
</g>
<mask id="mask1_2354_351" style="mask-type:alpha" maskUnits="userSpaceOnUse" x="47" y="43" width="164" height="176">
<path fill-rule="evenodd" clip-rule="evenodd" d="M210.277 153.828C210.149 153.026 209.687 152.564 209.087 152.117C201.486 146.469 193.887 140.815 186.302 135.141C185.621 134.634 184.905 134.256 184.123 133.949C161.872 125.257 139.619 116.566 117.38 107.842C103.83 102.526 90.3441 97.0334 76.2061 93.3889C75.6061 93.2359 75.0376 93.0684 74.4126 93.1194C68.0186 93.6269 61.6231 94.1209 55.2316 94.6359C54.7421 94.6754 54.2206 94.6204 53.6781 94.9624C53.4341 96.2154 52.6651 97.4029 52.6416 98.8999C53.3101 98.8999 53.8666 98.8959 54.4211 98.8999C61.3951 98.9744 68.3706 99.0709 75.3466 99.1064C76.8826 99.1139 78.3026 99.4324 79.7226 99.9834C113.958 113.268 148.19 126.559 182.449 139.78C185.954 141.134 189.21 142.807 192.292 144.955C198.088 148.998 203.988 152.89 209.935 156.904C210.635 155.84 210.604 155.84 210.277 153.828Z" fill="black"/>
<path fill-rule="evenodd" clip-rule="evenodd" d="M207.149 159.095C202.724 156.415 198.299 153.732 193.858 151.075C192.145 150.049 190.523 148.855 188.638 148.131C151.61 133.898 114.578 119.67 77.5516 105.423C76.7041 105.097 75.8546 104.92 74.9616 104.829C69.8011 104.316 64.6426 103.787 59.4841 103.268C56.7721 102.994 54.0581 102.735 51.3006 102.461C50.8721 103.771 50.2466 104.932 50.2031 106.31C56.3176 107.486 62.3336 108.605 68.3321 109.811C71.0556 110.36 73.8601 110.592 76.4756 111.589C111.724 125.037 146.969 138.497 182.211 151.966C185.74 153.315 189.368 154.434 192.751 156.116C196.684 158.071 200.517 160.22 204.405 162.266C204.834 162.492 205.213 162.879 205.874 162.799C206.567 161.821 207.296 160.791 207.983 159.819C207.772 159.357 207.424 159.261 207.149 159.095Z" fill="black"/>
<path fill-rule="evenodd" clip-rule="evenodd" d="M88.1045 122.03C83.2725 120.201 78.4855 118.228 73.581 116.627C68.249 114.887 62.8035 113.5 57.405 111.966C54.86 111.245 52.3115 110.539 49.627 109.787C49.627 111.182 49.627 112.397 49.627 113.868C99.8575 132.762 150.074 151.65 200.372 170.569C201.381 169.139 202.321 167.808 203.347 166.348C199.776 164.765 196.44 163.102 192.975 161.782C158.029 148.499 123.064 135.267 88.1045 122.03Z" fill="black"/>
<path fill-rule="evenodd" clip-rule="evenodd" d="M56.2174 90.6601C60.6149 89.9421 65.0084 89.1951 69.4079 88.4906C71.4234 88.1661 73.3824 87.7551 75.4924 88.4041C82.1869 90.4596 88.9384 92.3256 95.6664 94.2806C100.363 95.6436 105.171 96.6721 109.726 98.4561C133.782 107.878 157.807 117.385 181.843 126.855C182.522 127.122 183.165 127.411 183.739 127.879C191.085 133.87 198.43 139.86 205.799 145.821C206.905 146.714 207.906 147.764 209.278 148.449C209.438 147.43 208.989 146.59 208.989 145.703C208.989 144.673 208.48 143.968 207.717 143.3C199.014 135.71 190.33 128.099 181.659 120.471C180.972 119.869 180.235 119.446 179.397 119.114C164.21 113.094 149.032 107.058 133.849 101.032C130.028 99.5161 126.283 97.7126 122.35 96.5976C105.822 91.9106 89.2354 87.4406 72.6744 82.8721C71.8894 82.6556 71.1639 82.6596 70.3834 82.8641C68.2849 83.4151 66.1684 83.8986 64.0644 84.4256C61.5389 85.0591 59.0179 85.7141 56.4984 86.3571C56.0304 87.8261 55.5959 89.1891 55.1709 90.5226C55.5564 90.8176 55.9029 90.7131 56.2174 90.6601Z" fill="black"/>
<path fill-rule="evenodd" clip-rule="evenodd" d="M85.6917 133.232C80.4387 131.268 75.0837 129.555 69.9977 127.171C63.5572 124.152 57.1497 121.061 50.7187 118.022C50.3097 117.829 49.9222 117.369 49.3047 117.705C49.3047 118.905 49.3047 120.126 49.3047 121.413C49.5033 121.544 49.7196 121.71 49.9556 121.843C56.7092 125.724 63.4587 129.606 70.2202 133.466C70.8417 133.822 71.5257 134.076 72.2007 134.328C90.9527 141.282 109.707 148.23 128.461 155.178C149.402 162.935 170.345 170.689 191.374 178.475C193.128 177.309 194.91 176.125 196.934 174.778C196.145 174.475 195.65 174.278 195.15 174.092C158.661 160.476 122.169 146.875 85.6917 133.232Z" fill="black"/>
<path fill-rule="evenodd" clip-rule="evenodd" d="M185.273 181.511C179.798 179.503 174.322 177.491 168.847 175.48C136.364 163.536 103.883 151.595 71.395 139.663C70.394 139.295 69.4695 138.829 68.5865 138.233C62.5885 134.184 56.5765 130.158 50.5645 126.128C50.118 125.829 49.7206 125.428 49.0303 125.302C49.0303 126.632 49.0303 127.89 49.0303 129.33C55.408 134.27 61.794 139.214 68.1795 144.163C68.7145 144.577 69.3225 144.823 69.9555 145.055C100.12 156.059 130.279 167.078 160.44 178.091C167.217 180.565 174 183.03 180.793 185.502C182.523 184.292 184.341 183.285 185.912 181.972C185.709 181.612 185.479 181.588 185.273 181.511Z" fill="black"/>
<path fill-rule="evenodd" clip-rule="evenodd" d="M71.4466 78.4546C90.2616 83.4436 109.087 88.3981 127.896 93.4011C131.709 94.4156 135.611 95.1416 139.289 96.6046C151.791 101.573 164.273 106.588 176.769 111.569C177.768 111.97 178.635 112.505 179.424 113.249C188.477 121.792 197.545 130.319 206.619 138.839C207.008 139.207 207.315 139.716 208.043 139.869C207.772 137.743 207.61 135.852 205.884 134.158C196.798 125.245 187.82 116.218 178.895 107.146C176.895 105.117 174.734 103.6 172.053 102.595C162.698 99.0886 153.625 94.9231 143.826 92.5276C119.024 86.4706 94.3206 80.0221 69.5741 73.7386C68.9961 73.5911 68.4101 73.4081 67.7806 73.6776C65.0251 74.8536 62.2581 76.0021 59.5051 77.1566C58.9876 78.7436 58.4981 80.2561 57.9141 82.0516C61.6861 80.8046 65.1316 79.7151 68.5376 78.5136C69.5506 78.1596 70.4476 78.1891 71.4466 78.4546Z" fill="black"/>
<path fill-rule="evenodd" clip-rule="evenodd" d="M68.9882 150.118C68.2372 149.846 67.5957 149.486 66.9997 148.959C61.4737 144.096 55.9337 139.248 50.3897 134.406C49.9136 133.991 49.4652 133.507 48.6943 133.21C48.6943 134.648 48.6943 135.916 48.6943 137.305C54.2637 142.762 59.9297 148.3 65.5662 153.868C66.4197 154.712 67.3557 155.292 68.4887 155.699C97.8687 166.248 127.241 176.823 156.617 187.392C161.211 189.044 165.811 190.684 170.462 192.348C172.153 191.229 173.815 190.129 175.782 188.833C173.504 187.997 171.542 187.272 169.577 186.558C136.047 174.404 102.522 162.254 68.9882 150.118Z" fill="black"/>
<path fill-rule="evenodd" clip-rule="evenodd" d="M68.0368 69.7916C73.8643 71.2471 79.7113 72.6296 85.5463 74.0556C109.16 79.8216 132.777 85.5681 156.381 91.3836C161.66 92.6836 167.068 93.5531 172.073 95.8481C172.954 96.2531 173.69 96.7486 174.351 97.4526C182.723 106.358 191.109 115.251 199.492 124.142C201.821 126.609 204.153 129.069 206.484 131.531C206.393 129.704 206.6 127.922 205.259 126.432C194.804 114.82 184.392 103.17 173.989 91.5156C173.47 90.9351 172.882 90.6226 172.162 90.4556C158.781 87.3206 145.405 84.1876 132.026 81.0471C110.796 76.0636 89.5603 71.0996 68.3458 66.0471C66.3518 65.5711 64.6703 65.6086 63.0793 66.9146C62.9943 66.9831 62.9078 67.0541 62.7408 67.1936C62.2353 68.7846 61.7023 70.4566 61.0713 72.4406C62.9118 71.5261 64.4518 70.7831 65.9663 69.9921C66.6523 69.6346 67.2698 69.5991 68.0368 69.7916Z" fill="black"/>
<path fill-rule="evenodd" clip-rule="evenodd" d="M163.964 194.996C131.693 183.456 99.4142 171.935 67.1337 160.421C66.3252 160.133 65.6587 159.724 65.0767 159.087C60.3662 153.942 55.6367 148.819 50.9107 143.69C50.1732 142.892 49.4357 142.091 48.4131 140.984C48.4131 142.729 48.4131 144.038 48.4131 145.507C53.5952 151.7 58.8992 158.019 64.1662 164.368C64.7837 165.111 65.5662 165.416 66.4062 165.715C93.0032 175.141 119.602 184.567 146.199 193.995C150.906 195.665 155.61 197.341 160.389 199.036C162.055 197.931 163.699 196.837 165.351 195.74C164.975 195.146 164.409 195.156 163.964 194.996Z" fill="black"/>
<path fill-rule="evenodd" clip-rule="evenodd" d="M65.3578 170.41C64.4358 170.083 63.7118 169.595 63.1123 168.801C60.0578 164.75 56.9643 160.73 53.8788 156.706C52.0573 154.332 50.2263 151.966 48.3995 149.596C48.3051 149.622 48.2087 149.644 48.1123 149.669C48.1123 150.981 48.1123 152.293 48.1123 153.86C52.6318 160.275 57.3283 166.913 61.9853 173.58C62.6558 174.54 63.4603 175.106 64.5733 175.495C89.0268 184.025 113.466 192.592 137.912 201.148C142.148 202.633 146.394 204.091 150.603 205.548C152.253 204.45 153.814 203.41 155.63 202.203C154.896 201.929 154.481 201.77 154.062 201.622C124.493 191.215 94.9288 180.807 65.3578 170.41Z" fill="black"/>
<path fill-rule="evenodd" clip-rule="evenodd" d="M115.641 73.6186C134.741 77.9371 153.837 82.2776 172.942 86.5766C173.76 86.7596 174.328 87.0961 174.865 87.7231C184.551 99.1081 194.254 110.476 203.962 121.845C204.398 122.356 204.78 122.944 205.46 123.294C205.358 120.97 204.75 119.074 203.26 117.273C194.541 106.755 185.906 96.1721 177.368 85.5091C175.772 83.5126 174.098 82.1576 171.514 81.9806C170.637 81.9196 169.781 81.5856 168.912 81.3986C152.762 77.8961 136.609 74.4051 120.461 70.8906C104.315 67.3741 88.1746 63.8306 72.0241 60.3236C71.5051 60.2116 70.9801 59.9366 70.3976 60.1431C68.6791 60.7526 66.9541 61.3386 64.9326 62.0366C65.6071 62.2611 65.9531 62.4086 66.3131 62.4891C82.7541 66.2041 99.2016 69.8996 115.641 73.6186Z" fill="black"/>
<path fill-rule="evenodd" clip-rule="evenodd" d="M76.5679 58.4456C85.7189 60.3691 94.8734 62.2806 104.024 64.2001C127.392 69.1031 150.76 74.0216 174.138 78.8756C175.406 79.1391 176.201 79.7131 176.96 80.6846C185.765 91.9871 194.603 103.264 203.435 114.547C203.63 114.795 203.746 115.172 204.287 115.07C203.836 113.558 204.117 111.927 203.044 110.509C194.465 99.1791 185.934 87.8121 177.398 76.4506C176.907 75.7956 176.35 75.4356 175.502 75.2666C168.568 73.8976 161.647 72.4466 154.719 71.0461C130.602 66.1706 106.481 61.3071 82.3619 56.4336C81.9799 56.3551 81.6164 56.1956 81.2189 56.3376C79.5789 56.9236 77.9369 57.5076 76.2334 58.1131C76.4224 58.3081 76.4854 58.4281 76.5679 58.4456Z" fill="black"/>
<path fill-rule="evenodd" clip-rule="evenodd" d="M63.883 180.137C62.6755 179.72 61.82 179.087 61.11 177.978C57.208 171.881 53.2195 165.841 49.249 159.79C48.8596 159.196 48.5784 158.516 47.7308 157.882C47.7681 159.56 47.1467 161.082 47.8016 162.278C49.2962 165.004 50.7415 167.808 52.72 170.213C55.4125 173.486 58.319 176.581 61.1215 179.763C61.645 180.359 62.241 180.823 62.939 181.203C68.8015 184.389 74.6545 187.599 80.505 190.806C81.288 191.235 82.098 191.587 82.944 191.88C98.337 197.186 113.726 202.51 129.117 207.824C133.1 209.198 137.084 210.561 141.047 211.92C142.603 210.748 144.274 209.91 145.755 208.612C145.448 208.465 145.309 208.38 145.159 208.329C118.071 198.927 90.9795 189.52 63.883 180.137Z" fill="black"/>
<path fill-rule="evenodd" clip-rule="evenodd" d="M202.674 107.208C202.804 107.153 202.937 107.097 203.069 107.042C202.658 105.581 202.825 104.033 201.846 102.645C194.168 91.7771 186.535 80.8761 178.915 69.9646C178.356 69.1681 177.697 68.8026 176.753 68.6276C168.706 67.1446 160.668 65.6126 152.628 64.1001C143.438 62.3716 134.246 60.6506 125.058 58.9201C114.721 56.9731 104.38 55.0301 94.0472 53.0651C91.7992 52.6386 89.0362 53.2031 86.8887 54.6681C117.138 60.5721 147.32 66.4661 177.349 72.3286C185.875 84.0716 194.272 95.6396 202.674 107.208Z" fill="black"/>
<path fill-rule="evenodd" clip-rule="evenodd" d="M201.634 99.659C201.593 97.014 200.478 94.7995 199.164 92.774C192.869 83.0545 186.45 73.416 180.099 63.732C179.655 63.0555 179.104 62.7645 178.347 62.633C167.92 60.8295 157.492 59.03 147.073 57.195C132.758 54.6775 118.435 52.1935 104.141 49.5446C101.441 49.0431 99.3225 50.0835 97.041 51.1415C124.252 56.0935 151.461 61.0435 178.754 66.0095C186.363 77.2035 194 88.4315 201.634 99.659Z" fill="black"/>
<path fill-rule="evenodd" clip-rule="evenodd" d="M192.982 80.374C193.102 80.299 193.218 80.2265 193.338 80.1515C190.436 71.8525 185.289 64.784 180.732 57.303C172.285 55.93 163.821 54.5695 155.362 53.177C141.405 50.88 127.442 48.6162 113.506 46.2031C110.937 45.7586 108.908 46.7164 106.74 47.7705C131.194 51.924 155.649 56.0795 180.048 60.2255C184.392 66.9945 188.689 73.685 192.982 80.374Z" fill="black"/>
<path fill-rule="evenodd" clip-rule="evenodd" d="M181.389 54.0505C181.263 54.011 181.109 53.95 180.95 53.9205C170.741 51.93 160.528 49.942 150.317 47.9596C141.467 46.2407 132.608 44.5887 123.699 43.1904C120.928 42.7558 118.43 43.0154 115.726 44.4904C137.837 48.0028 159.698 51.478 181.574 54.953C181.678 54.6735 181.666 54.359 181.389 54.0505Z" fill="black"/>
<path fill-rule="evenodd" clip-rule="evenodd" d="M135.468 214.565C126.693 211.552 117.911 208.555 109.142 205.526C108.534 205.318 107.96 205.253 107.118 205.351C114.017 209.119 120.696 212.754 127.357 216.416C128.734 217.175 130.185 217.676 131.733 218.078C133.249 217.059 134.75 216.054 136.239 215.057C136.02 214.62 135.708 214.648 135.468 214.565Z" fill="black"/>
</mask>
<g mask="url(#mask1_2354_351)">
<path d="M-14.9112 -8.63154L-16.9385 73.5495L-16.8149 81.9525L145.436 59.812L226.151 25.378L189.312 -17.6216L100.409 -51.9045L-14.9112 -8.63154Z" fill="url(#paint3_linear_2354_351)"/>
<path d="M27.0921 64.304C10.7648 69.9945 -10.7175 67.3045 -19.4178 65.248L-21.3898 68.728L-68.7363 197.928L63.1672 221.233L236.747 99.482L266.203 47.4969C236.771 26.4144 180.057 -13.1537 162.552 -17.5554C140.671 -23.0576 47.5011 57.1905 27.0921 64.304Z" fill="url(#paint4_linear_2354_351)"/>
<path d="M78.324 116.895C76.7175 125.41 19.6978 151.394 -8.61133 163.321L7.21127 242.398L175.611 231.213C229.679 170.952 320.139 50.5881 249.441 51.2171C161.068 52.0031 80.332 106.252 78.324 116.895Z" fill="url(#paint5_linear_2354_351)"/>
<path d="M123.43 199.06C101.274 220.412 62.6445 214.041 18.8965 198.447L13.4736 208.017L185.103 300.669C233.759 227.476 316.1 86.1139 256.214 106.202C181.357 131.312 150.631 172.845 123.43 199.06Z" fill="#29D9FF"/>
</g>
<circle cx="128" cy="125" r="39" fill="white"/>
<path d="M119.25 142V107.091H128.727V134.364H142.841V142H119.25Z" fill="black"/>
</g>
<defs>
<linearGradient id="paint0_linear_2354_351" x1="71.5" y1="-10.25" x2="71.5" y2="178" gradientUnits="userSpaceOnUse">
<stop stop-color="#CE08A0"/>
<stop offset="1" stop-color="#E30B96"/>
</linearGradient>
<linearGradient id="paint1_linear_2354_351" x1="110.625" y1="1.29517" x2="110.625" y2="304.5" gradientUnits="userSpaceOnUse">
<stop stop-color="#CF0899"/>
<stop offset="1" stop-color="#B505BF"/>
</linearGradient>
<linearGradient id="paint2_linear_2354_351" x1="153.991" y1="14.6618" x2="153.991" y2="305.75" gradientUnits="userSpaceOnUse">
<stop stop-color="#636BF7"/>
<stop offset="1" stop-color="#6439D2"/>
</linearGradient>
<linearGradient id="paint3_linear_2354_351" x1="137.109" y1="-47.2005" x2="44.3053" y2="116.584" gradientUnits="userSpaceOnUse">
<stop stop-color="#CE08A0"/>
<stop offset="1" stop-color="#E30B96"/>
</linearGradient>
<linearGradient id="paint4_linear_2354_351" x1="165.459" y1="-17.8678" x2="15.9838" y2="245.932" gradientUnits="userSpaceOnUse">
<stop stop-color="#CF0899"/>
<stop offset="1" stop-color="#B505BF"/>
</linearGradient>
<linearGradient id="paint5_linear_2354_351" x1="196.6" y1="15.1405" x2="53.098" y2="268.399" gradientUnits="userSpaceOnUse">
<stop stop-color="#636BF7"/>
<stop offset="1" stop-color="#6439D2"/>
</linearGradient>
<clipPath id="clip0_2354_351">
<rect width="256" height="256" fill="white"/>
</clipPath>
</defs>
</svg>
