<svg width="256" height="256" viewBox="0 0 256 256" fill="none" xmlns="http://www.w3.org/2000/svg">
<g clip-path="url(#clip0_741_46)">
<mask id="mask0_741_46" style="mask-type:luminance" maskUnits="userSpaceOnUse" x="0" y="0" width="256" height="256">
<path d="M256 0.590576H0V255.725H256V0.590576Z" fill="white"/>
</mask>
<g mask="url(#mask0_741_46)">
<path d="M128 255.725C198.692 255.725 256 198.611 256 128.158C256 57.7043 198.692 0.590576 128 0.590576C57.3075 0.590576 -3.05176e-05 57.7043 -3.05176e-05 128.158C-3.05176e-05 198.611 57.3075 255.725 128 255.725Z" fill="#A36EFD"/>
<path d="M173.805 67.4779C162.769 66.2146 155.41 65.5828 128.268 65.5828C104.981 65.5828 93.632 66.4236 82.7307 67.4779C77.6348 67.9701 73.5702 71.8345 73.9445 76.9447L79.9718 158.773L128.264 176.021L176.56 158.773L182.587 76.9447C182.965 71.8345 178.888 68.0617 173.801 67.4779H173.805Z" fill="#4C2897"/>
<path d="M188.901 138.159C188.901 138.159 178.61 144.319 174.884 145.731C163.692 149.978 128.272 156.67 128.272 156.67C128.272 156.67 92.849 149.983 81.6604 145.731C77.9353 144.315 67.6433 138.159 67.6433 138.159C61.2288 134.696 54.07 139.671 54.057 146.968C54.0352 158.779 63.2915 170.907 75.7768 178.553C89.8549 187.174 110.87 190.752 128.272 190.752C145.675 190.752 166.69 187.174 180.768 178.553C193.253 170.907 202.509 158.774 202.488 146.968C202.475 139.671 195.316 134.696 188.901 138.159Z" fill="#4C2897"/>
<path d="M178.788 132.058C170.859 134.289 158.495 140.488 128.268 140.488C98.0403 140.488 85.6768 134.289 77.748 132.058C76.4162 131.684 75.1151 132.729 75.1891 134.115L76.2639 153.627C76.3031 154.368 76.5817 155.065 77.0517 155.636C80.3372 159.6 95.0681 173.432 128.263 173.432C161.459 173.432 176.011 159.779 179.419 155.71C179.932 155.096 180.228 154.333 180.276 153.532L181.346 134.115C181.425 132.734 180.119 131.684 178.788 132.058Z" fill="#BB96F9"/>
</g>
</g>
<defs>
<clipPath id="clip0_741_46">
<rect width="256" height="256" fill="white"/>
</clipPath>
</defs>
</svg>
