<svg width="256" height="256" viewBox="0 0 256 256" fill="none" xmlns="http://www.w3.org/2000/svg">
<g clip-path="url(#clip0_2092_10463)">
<path d="M256 128C256 57.3075 198.692 0 128 0C57.3076 0 0 57.3075 0 128C0 198.692 57.3076 256 128 256C198.692 256 256 198.692 256 128Z" fill="#3756CD"/>
<path d="M64 199.3V53.9063L91.0222 37M64 199.3L91.0222 219.588L221.067 141.819M64 199.3L167.022 141.819L118.045 113.078M91.0222 37L221.067 109.697V141.819M91.0222 37V157.035L118.045 140.805M221.067 141.819L118.045 84.3377V140.805M118.045 140.805L141.689 126.603" stroke="white" stroke-width="2" stroke-linejoin="round"/>
</g>
<defs>
<clipPath id="clip0_2092_10463">
<rect width="256" height="256" fill="white"/>
</clipPath>
</defs>
</svg>
