<svg width="256" height="256" viewBox="0 0 256 256" fill="none" xmlns="http://www.w3.org/2000/svg">
<g clip-path="url(#clip0_2092_10474)">
<path d="M256 128C256 57.3075 198.692 0 128 0C57.3076 0 0 57.3075 0 128C0 198.692 57.3076 256 128 256C198.692 256 256 198.692 256 128Z" fill="black"/>
<path d="M133.196 139.118C133.161 134.842 134.742 130.709 137.621 127.547C140.501 124.385 144.468 122.426 148.73 122.062H220.002L196.854 137.481H158.057C155.556 137.491 153.16 138.489 151.392 140.258C149.623 142.026 148.625 144.422 148.615 146.923V185.491L133.386 203.804L133.196 139.118Z" fill="#E4F2FF"/>
<path d="M127.806 118.444C123.833 118.54 119.98 117.078 117.069 114.371L65.6328 64L93.6164 69.4825L121.638 96.9713C123.432 98.7315 125.845 99.7176 128.358 99.7176C130.872 99.7176 133.284 98.7315 135.078 96.9713L163.176 69.5206L191.083 64L140.789 113.495C137.239 116.722 132.603 118.489 127.806 118.444Z" fill="#E4F2FF"/>
<path d="M107.349 185.45V146.92C107.349 144.412 106.355 142.007 104.586 140.229C102.816 138.453 100.414 137.45 97.9069 137.439H59.0722L36 122.02H105.712C110.116 122.085 114.343 123.765 117.59 126.741C119.168 128.084 120.445 129.745 121.337 131.614C122.229 133.484 122.717 135.521 122.769 137.592V203.801L107.349 185.45Z" fill="#E4F2FF"/>
</g>
<defs>
<clipPath id="clip0_2092_10474">
<rect width="256" height="256" fill="white"/>
</clipPath>
</defs>
</svg>
