<svg width="256" height="256" viewBox="0 0 256 256" fill="none" xmlns="http://www.w3.org/2000/svg">
<g clip-path="url(#clip0_1703_119)">
<mask id="mask0_1703_119" style="mask-type:luminance" maskUnits="userSpaceOnUse" x="0" y="0" width="256" height="256">
<path d="M256 0H0V256H256V0Z" fill="white"/>
</mask>
<g mask="url(#mask0_1703_119)">
<path d="M128 251.977C89.3939 251.977 54.78 235.422 31.3116 209.241C11.8063 187.48 0 159.07 0 127.989C0 59.5109 57.3071 4 128 4C198.693 4 256 59.5109 256 127.989C256 196.466 198.693 251.977 128 251.977Z" fill="white"/>
<path d="M49.4829 190.277V75.7314H135.745C164.622 75.7314 188.115 99.5244 188.115 128.77C188.115 158.015 164.622 181.808 135.745 181.808H126.574V159.283H135.745C152.289 159.283 165.75 145.595 165.75 128.77C165.75 111.945 152.289 98.2567 135.745 98.2567H71.8473V190.277H49.4829Z" fill="#FA9C00"/>
<path d="M84.2147 218.913V109.887H107.714V196.023H135.196C173.258 196.023 204.224 165.613 204.224 128.232C204.224 90.8513 173.258 60.4394 135.196 60.4394H79.1907V37.5498H135.196C186.216 37.5498 227.724 78.2291 227.724 128.231C227.724 178.234 186.216 218.913 135.196 218.913H84.2147Z" fill="#242A47"/>
</g>
</g>
<defs>
<clipPath id="clip0_1703_119">
<rect width="256" height="256" fill="white"/>
</clipPath>
</defs>
</svg>
