<svg width="256" height="256" viewBox="0 0 256 256" fill="none" xmlns="http://www.w3.org/2000/svg">
<g clip-path="url(#clip0_2092_10495)">
<path d="M128 0C198.687 0 256 57.3133 256 128C256 198.687 198.687 256 128 256C57.3133 256 0 198.687 0 128C0 57.3133 57.3133 0 128 0Z" fill="white"/>
<path fill-rule="evenodd" clip-rule="evenodd" d="M162.179 88.0978C164.378 89.4564 167.896 93.0794 170.534 99.8724L208.35 91.7208C203.074 72.2474 189.003 58.3181 170.534 51.1853C164.818 48.9777 154.704 47.7925 145.909 47.7925H82.1487C80.8295 47.7925 79.5103 48.6982 79.5103 50.0568L75.5527 79.4933C75.5527 80.8519 76.4322 82.2105 78.1911 82.2105H141.072C149.866 82.6633 156.902 84.4749 162.179 88.0978Z" fill="#6E45B7"/>
<path fill-rule="evenodd" clip-rule="evenodd" d="M130.969 208.561C153.395 208.561 173.622 202.674 189.013 184.559C200.886 170.52 208.801 148.329 210.999 126.592L170.105 135.65C164.388 161.01 152.955 173.69 129.21 173.69C129.21 173.69 112.06 173.69 104.146 173.69H101.067L96.2305 209.014L130.969 208.561Z" fill="#6E45B7"/>
<path fill-rule="evenodd" clip-rule="evenodd" d="M101.502 170.519C102.381 165.537 104.14 152.404 104.58 147.422C104.58 146.064 105.899 145.158 107.218 145.158H129.204C130.524 145.158 131.403 144.252 131.843 142.894L135.8 113.004C135.8 111.646 134.921 110.287 133.162 110.287H73.359C72.0399 110.287 71.1604 111.193 70.7207 112.551L63.2453 168.707C62.8056 172.33 61.4864 175.501 59.7275 178.671L44.337 204.484C43.4576 206.296 44.337 208.559 46.5357 208.559H96.6646L101.502 170.519Z" fill="#01B5AB"/>
</g>
<defs>
<clipPath id="clip0_2092_10495">
<rect width="256" height="256" fill="white"/>
</clipPath>
</defs>
</svg>
