<svg width="256" height="256" viewBox="0 0 256 256" fill="none" xmlns="http://www.w3.org/2000/svg">
<g clip-path="url(#clip0_741_46)">
<circle cx="128" cy="128" r="128" fill="#191919"/>
<path d="M207 185H191.782V95.3589C191.779 93.2006 190.92 91.1316 189.394 89.6055C187.868 88.0794 185.799 87.2209 183.641 87.2181C182.096 87.2242 180.585 87.6668 179.281 88.4949C177.977 89.323 176.934 90.5028 176.272 91.8982L140.144 168.792C138.25 172.799 135.258 176.187 131.517 178.564C127.775 180.94 123.436 182.207 119.005 182.217C112.811 182.211 106.873 179.749 102.493 175.37C98.1139 170.99 95.6506 165.052 95.6453 158.858V102.937C95.6401 98.7696 93.9818 94.7746 91.0349 91.828C88.0889 88.8815 84.0935 87.2237 79.9264 87.2181C75.761 87.2264 71.769 88.8854 68.8248 91.8317C65.8805 94.7781 64.224 98.7713 64.2188 102.937V184.989H49V102.937C49.0079 94.7361 52.2692 86.8736 58.0666 81.0739C63.8649 75.2742 71.7261 72.011 79.9264 72C88.1292 72.0083 95.9931 75.2703 101.793 81.0703C107.593 86.8702 110.855 94.7342 110.864 102.937V158.858C110.864 159.928 111.074 160.986 111.483 161.974C111.893 162.961 112.493 163.858 113.248 164.615C114.004 165.37 114.902 165.97 115.889 166.38C116.877 166.789 117.935 166.999 119.005 166.999C120.549 166.994 122.061 166.552 123.366 165.724C124.67 164.895 125.712 163.715 126.374 162.319L162.502 85.4253C164.397 81.4188 167.388 78.0313 171.129 75.6552C174.871 73.2791 179.209 72.0118 183.641 72C189.834 72.0083 195.771 74.4719 200.15 78.8508C204.528 83.2296 206.992 89.1662 207 95.3589V185Z" fill="white"/>
</g>
<defs>
<clipPath id="clip0_741_46">
<rect width="256" height="256" fill="white"/>
</clipPath>
</defs>
</svg>
