<svg width="256" height="256" viewBox="0 0 256 256" fill="none" xmlns="http://www.w3.org/2000/svg">
<g clip-path="url(#clip0_2571_3784)">
<path d="M128.005 256.01C198.7 256.01 256.01 198.7 256.01 128.005C256.01 57.3097 198.7 0 128.005 0C57.3097 0 0 57.3097 0 128.005C0 198.7 57.3097 256.01 128.005 256.01Z" fill="#161E53"/>
<path d="M171.85 84.3226L180.821 60.449H166.082L160.162 76.1447C156.919 74.4422 153.514 73.0745 149.994 72.0606L154.375 60.4395H139.636L136.058 69.9277C135.59 69.9277 135.121 69.899 134.643 69.899H117.522C115.246 69.612 113.007 69.1051 110.836 68.3686C110.081 68.1199 109.344 67.8426 108.617 67.5461L103.758 80.4393L66.1021 180.362H94.4615L88.7322 195.56H103.471L109.21 180.362H120.918L115.188 195.56H129.927L135.657 180.352C166.14 179.836 190.424 154.7 189.908 124.217C189.65 109 183.117 94.5664 171.859 84.3226H171.85ZM86.0254 166.57L117.264 83.7104C118.67 83.8443 120.076 83.9017 121.482 83.9017C122.888 83.9017 124.361 83.8348 125.767 83.7009H130.894L99.6551 166.57H86.0254ZM114.385 166.57L145.145 85.0304C148.693 85.9677 152.099 87.3642 155.284 89.191L126.092 166.56H114.385V166.57ZM163.968 154.422C157.761 160.668 149.717 164.762 141.013 166.082L166.465 98.5836C180.228 115.035 179.138 139.262 163.968 154.422Z" fill="#FFBB51"/>
</g>
<defs>
<clipPath id="clip0_2571_3784">
<rect width="256" height="256" fill="white"/>
</clipPath>
</defs>
</svg>
