<svg width="256" height="256" viewBox="0 0 256 256" fill="none" xmlns="http://www.w3.org/2000/svg">
<g clip-path="url(#clip0_1958_3348)">
<path d="M256 128C256 57.3075 198.692 0 128 0C57.3075 0 0 57.3075 0 128C0 198.692 57.3075 256 128 256C198.692 256 256 198.692 256 128Z" fill="white"/>
<path d="M129 45H70.6667C66.2464 45 62.0072 46.7559 58.8816 49.8816C55.7559 53.0072 54 57.2464 54 61.6667V195C54 204.204 57.2958 211.667 66.5 211.667H129C175.025 211.667 212.333 174.358 212.333 128.333C212.333 82.3083 175.025 45 129 45ZM164.354 163.687C156.174 171.867 145.411 176.957 133.899 178.09C122.387 179.224 110.838 176.331 101.22 169.903C91.6019 163.476 84.51 153.913 81.1524 142.843C77.7949 131.774 78.3796 119.882 82.8068 109.195C87.234 98.5079 95.2299 89.6865 105.432 84.2339C115.634 78.7813 127.411 77.0349 138.757 79.2921C150.102 81.5494 160.314 87.6707 167.652 96.6131C174.99 105.555 179.001 116.766 179 128.333C179.018 134.902 177.733 141.409 175.219 147.478C172.705 153.546 169.012 159.056 164.354 163.687Z" fill="#050404"/>
<path d="M145.205 112.129L131.946 98.8708C131.165 98.0897 130.106 97.6509 129.001 97.6509C127.896 97.6509 126.836 98.0897 126.055 98.8708L112.796 112.129C109.591 115.334 107.409 119.417 106.524 123.863C105.64 128.308 106.094 132.916 107.828 137.104C109.563 141.291 112.5 144.87 116.269 147.388C120.037 149.907 124.468 151.251 129.001 151.251C133.533 151.251 137.964 149.907 141.733 147.388C145.501 144.87 148.439 141.291 150.173 137.104C151.907 132.916 152.361 128.308 151.477 123.863C150.593 119.417 148.41 115.334 145.205 112.129Z" fill="#FF7915"/>
</g>
<defs>
<clipPath id="clip0_1958_3348">
<rect width="256" height="256" fill="white"/>
</clipPath>
</defs>
</svg>
