<svg width="317" height="317" viewBox="0 0 317 317" fill="none" xmlns="http://www.w3.org/2000/svg">
<g clip-path="url(#clip0_1358_14)">
<path fill-rule="evenodd" clip-rule="evenodd" d="M158.4 -0.0756836C245.934 -0.0756836 316.876 70.866 316.876 158.4C316.876 245.934 245.934 316.875 158.4 316.875C70.8662 316.875 -0.0755615 245.934 -0.0755615 158.4C-0.0755615 70.866 70.8662 -0.0756836 158.4 -0.0756836Z" fill="#E60079"/>
<path d="M157.6 31C182.944 31 203.456 42.9515 203.456 57.7001C203.456 72.4488 182.902 84.4003 157.6 84.4003C132.256 84.4003 111.744 72.4488 111.744 57.7001C111.744 42.9515 132.298 31 157.6 31Z" fill="white"/>
<path d="M157.6 232.014C182.944 232.014 203.456 243.966 203.456 258.714C203.456 273.463 182.902 285.414 157.6 285.414C132.256 285.414 111.744 273.463 111.744 258.714C111.744 243.966 132.298 232.014 157.6 232.014Z" fill="white"/>
<path d="M47.4512 94.5717C60.1232 72.6183 80.7205 60.8363 93.5196 68.2106C106.276 75.585 106.361 99.3608 93.6891 121.272C81.0171 143.225 60.4199 155.007 47.6208 147.633C34.864 140.259 34.7793 116.483 47.4512 94.5717Z" fill="white"/>
<path d="M221.553 195.1C234.225 173.147 254.822 161.365 267.579 168.697C280.336 176.071 280.421 199.804 267.749 221.758C255.077 243.711 234.479 255.493 221.723 248.161C208.966 240.787 208.881 217.054 221.553 195.1Z" fill="white"/>
<path d="M47.6208 168.696C60.3775 161.322 81.0171 173.146 93.6891 195.057C106.361 217.011 106.276 240.744 93.5196 248.119C80.7629 255.493 60.1232 243.669 47.4512 221.757C34.7793 199.804 34.864 176.071 47.6208 168.696Z" fill="white"/>
<path d="M221.723 68.2105C234.479 60.8362 255.077 72.6606 267.749 94.614C280.421 116.567 280.336 140.301 267.579 147.675C254.822 155.05 234.225 143.225 221.553 121.272C208.881 99.3183 208.966 75.5849 221.723 68.2105Z" fill="white"/>
</g>
<defs>
<clipPath id="clip0_1358_14">
<rect width="316.8" height="316.8" fill="white"/>
</clipPath>
</defs>
</svg>
