<svg width="256" height="256" viewBox="0 0 256 256" fill="none" xmlns="http://www.w3.org/2000/svg">
<g clip-path="url(#clip0_2560_1954)">
<path d="M128 256C198.694 256 256 198.694 256 128C256 57.3056 198.694 0 128 0C57.3056 0 0 57.3056 0 128C0 198.694 57.3056 256 128 256Z" fill="#D4C3F6"/>
<path d="M128 256C198.694 256 256 198.694 256 128C256 57.3056 198.694 0 128 0C57.3056 0 0 57.3056 0 128C0 198.694 57.3056 256 128 256Z" fill="url(#paint0_radial_2560_1954)" fill-opacity="0.35"/>
<path opacity="0.3" d="M82.7734 177.28L160 251.947C160 251.947 225.839 238.814 248.96 169.814L153.391 86.4429C153.391 86.4429 189.658 179.448 82.7734 177.28Z" fill="#4A18CF"/>
<path opacity="0.5" d="M115.4 160.427V107.23H133.824C133.824 107.23 143.334 107.913 150.259 111.595C150.229 111.625 164.015 157.389 115.4 160.418V160.427Z" fill="#4A18CF"/>
<path opacity="0.6" d="M100.096 175.872V192.875H140.275C140.275 192.875 184.102 190.08 186.509 142.891C187.818 117.159 174.861 103.847 162.799 97.0669C162.799 97.0669 175.159 113.831 165.474 144.973C165.474 144.973 156.497 172.578 122.948 176.26L100.096 175.872Z" fill="#4C18BA"/>
<path d="M125.978 73.3867H82.7734V177.391H122.948C122.948 177.391 166.78 174.566 169.186 126.694C171.623 78.8523 125.978 73.3867 125.978 73.3867ZM113.408 160.542L100.096 160.393V90.2912H116.113C116.113 90.2912 151.923 88.2731 151.356 125.419C150.823 162.564 113.412 160.542 113.412 160.542H113.408Z" fill="#7742E9"/>
</g>
<defs>
<radialGradient id="paint0_radial_2560_1954" cx="0" cy="0" r="1" gradientUnits="userSpaceOnUse" gradientTransform="translate(83.6314 61.2324) rotate(54.17) scale(212.088)">
<stop stop-color="#D4C3F6"/>
<stop offset="1" stop-color="#592CBA"/>
</radialGradient>
<clipPath id="clip0_2560_1954">
<rect width="256" height="256" fill="white"/>
</clipPath>
</defs>
</svg>
