<svg width="256" height="256" viewBox="0 0 256 256" fill="none" xmlns="http://www.w3.org/2000/svg">
<circle cx="129.5" cy="129.5" r="126.5" fill="black"/>
<g clip-path="url(#clip0_741_46)">
<mask id="mask0_741_46" style="mask-type:luminance" maskUnits="userSpaceOnUse" x="43" y="38" width="173" height="182">
<path d="M43 38H216V220H43V38Z" fill="white"/>
</mask>
<g mask="url(#mask0_741_46)">
<path fill-rule="evenodd" clip-rule="evenodd" d="M63.4233 95.0694L100.084 38L45.4324 92.5535C40.8846 97.0931 43.0249 104.849 49.2591 106.424L78.2257 113.744C75.639 117.802 72.7104 122.92 70.4345 128.344C68.3481 133.313 66.6098 139.003 66.4379 144.638C66.2618 150.408 67.7431 156.591 72.6317 161.469C79.9764 168.801 85.3094 171.359 89.5691 173.402C89.8861 173.554 90.1969 173.703 90.5014 173.851C92.4832 174.811 93.948 175.599 95.5008 176.839C97.0692 178.09 98.9733 180.002 101.418 183.359C101.853 183.957 102.315 184.595 102.801 185.269C108.134 192.656 116.503 204.249 127.303 211.944C133.33 216.238 140.482 219.611 148.661 220.272C156.945 220.941 165.596 218.768 174.401 213.108C182.835 207.685 188.392 201.645 191.007 194.61C193.641 187.525 192.86 180.581 190.945 174.284C189.191 168.516 186.264 162.634 183.532 157.144L183.527 157.133L183.473 157.026L183.017 156.109C180.028 150.094 177.21 144.281 175.334 138.194C171.672 126.312 174.156 121.165 175.717 119.125C176.467 118.145 177.42 117.338 178.51 116.757C178.916 116.541 179.241 116.413 179.42 116.349L179.517 116.316L179.689 116.276L179.984 116.179L181.281 115.755L184.697 114.632C187.526 113.702 191.307 112.455 195.105 111.191C198.898 109.929 202.73 108.643 205.655 107.637C207.111 107.136 208.379 106.693 209.316 106.35C209.775 106.183 210.214 106.017 210.577 105.872C210.749 105.802 210.987 105.703 211.234 105.587C211.427 105.497 211.617 105.399 211.803 105.294L211.815 105.288C212.4 104.959 212.937 104.552 213.413 104.078C216.358 101.138 215.416 97.5357 215.319 97.1655L215.314 97.1479C215.161 96.5498 214.933 95.9731 214.637 95.4313C214.443 95.08 214.225 94.7427 213.984 94.4221C213.728 94.0808 213.444 93.7468 213.229 93.4986C212.62 92.8098 212 92.1313 211.368 91.4635C210.473 90.5101 193.097 72.9378 178.498 58.1761C168.389 47.9542 159.612 39.0786 158.562 38C158.686 38.1272 168.035 52.8113 177.289 67.3454C186.358 81.588 195.335 95.6868 195.452 95.8077C193.862 96.3424 192.191 96.8997 190.519 97.4561C185.935 98.9808 181.347 100.495 176.756 102L175.661 102.359L175.572 102.384L175.506 102.402C175.25 102.477 174.928 102.578 174.55 102.712C173.799 102.979 172.813 103.385 171.699 103.976C168.77 105.533 166.211 107.701 164.196 110.333C159.025 117.083 156.847 127.447 161.472 142.451C163.739 149.808 167.072 156.598 170.023 162.541L170.313 163.123C173.251 169.034 175.676 173.914 177.068 178.49C178.455 183.05 178.548 186.512 177.411 189.574C176.253 192.687 173.394 196.534 166.548 200.937C160.073 205.099 154.552 206.223 149.829 205.841C145.002 205.451 140.314 203.429 135.729 200.161C126.986 193.931 119.97 184.254 114.442 176.626C114 176.018 113.569 175.423 113.147 174.844C110.13 170.703 107.361 167.768 104.555 165.529C101.734 163.279 99.1214 161.935 96.8361 160.827C96.5067 160.667 96.1794 160.511 95.853 160.355C92.0999 158.558 88.4938 156.83 82.8863 151.233C81.5945 149.942 80.8414 148.088 80.9336 145.079C81.03 141.935 82.0628 138.103 83.8104 133.938C87.2952 125.636 92.823 117.84 95.0316 114.895C98.6366 110.086 96.0706 103.319 90.4134 101.889L63.4233 95.0694ZM124.561 154.256C124.561 154.256 113.383 154.256 105.933 147.412C98.4822 140.567 105.933 126.88 105.933 126.88C105.933 126.88 108.106 128.248 116.333 137.83C124.561 147.412 124.561 154.256 124.561 154.256Z" fill="url(#paint0_linear_741_46)"/>
</g>
</g>
<defs>
<linearGradient id="paint0_linear_741_46" x1="129.556" y1="120.159" x2="129.27" y2="220.389" gradientUnits="userSpaceOnUse">
<stop stop-color="#22E1FF"/>
<stop offset="1" stop-color="#002EFF"/>
</linearGradient>
<clipPath id="clip0_741_46">
<rect width="173" height="182" fill="white" transform="translate(43 38)"/>
</clipPath>
</defs>
</svg>
