<svg width="256" height="256" viewBox="0 0 256 256" fill="none" xmlns="http://www.w3.org/2000/svg">
<g clip-path="url(#clip0_2559_1625)">
<path d="M256 128C256 57.3075 198.692 0 128 0C57.3075 0 0 57.3075 0 128C0 198.692 57.3075 256 128 256C198.692 256 256 198.692 256 128Z" fill="#FCD000"/>
<path d="M128.268 52.1924L61.4658 59.7107L78.7269 213.079L145.529 205.561C190.79 200.46 215.49 164.84 210.51 120.588C205.43 75.4559 173.095 47.1473 128.268 52.1924ZM141.81 178.46L105.555 182.54L94.386 83.2969L130.634 79.2173C157.004 76.2495 176.826 94.1999 180.107 123.347C183.435 152.923 168.18 175.492 141.81 178.46Z" fill="black"/>
<path d="M86.5205 34.7058L108.495 32.2326L113.427 76.0481L91.4518 78.5213L86.5205 34.7058ZM103.781 188.067L125.756 185.594L130.687 229.409L108.712 231.883L103.781 188.067ZM119.483 30.996L141.457 28.5229L146.389 72.3384L124.414 74.8115L119.483 30.996ZM136.743 184.357L158.718 181.884L163.649 225.7L141.674 228.173L136.743 184.357Z" fill="black"/>
</g>
<defs>
<clipPath id="clip0_2559_1625">
<rect width="256" height="256" fill="white"/>
</clipPath>
</defs>
</svg>
