<svg width="256" height="256" viewBox="0 0 256 256" fill="none" xmlns="http://www.w3.org/2000/svg">
<g clip-path="url(#clip0_741_46)">
<path d="M256 128C256 198.692 198.692 256 128 256C57.3075 256 0 198.692 0 128C0 57.3075 57.3075 0 128 0C198.692 0 256 57.3075 256 128Z" fill="#142D51"/>
<path fill-rule="evenodd" clip-rule="evenodd" d="M50 49H207V134.583C207 147.316 204.011 167.346 193.164 185.984C182.216 204.792 163.399 221.924 128.5 229C93.6041 221.925 74.7851 204.795 63.8339 185.987C52.9875 167.345 50 147.314 50 134.579V49ZM201.393 54.625V134.579C201.393 158.635 190.783 210.253 128.5 223.375C66.2169 210.253 55.6071 158.635 55.6071 134.579V54.625H201.393Z" fill="#00B6FA"/>
<path d="M201 55H56V134.466C56 158.375 66.5526 209.678 128.5 223C190.448 209.678 201 158.375 201 134.466V55Z" fill="#142D51"/>
<path d="M183 76H74V111.994L148.068 172.986L141.143 178.694L74 123.401V134.812C74 158.663 87.0687 195.072 128.5 202C163.736 196.111 178.457 168.894 182.072 146.211C182.15 145.724 108.932 85.2233 108.932 85.2233H122.782L183 134.808V76Z" fill="#10A0EC"/>
</g>
<defs>
<clipPath id="clip0_741_46">
<rect width="256" height="256" fill="white"/>
</clipPath>
</defs>
</svg>
