<svg width="256" height="255" viewBox="0 0 256 255" fill="none" xmlns="http://www.w3.org/2000/svg">
<path d="M128.002 255C198.695 255 256.004 197.916 256.004 127.5C256.004 57.0836 198.695 0 128.002 0C57.3084 0 0 57.0836 0 127.5C0 197.916 57.3084 255 128.002 255Z" fill="url(#paint0_radial_1694_84)"/>
<path d="M63.1776 62.8744C90.7702 35.4037 131.268 29.2007 164.646 43.8221L147.29 61.1017C123.703 54.4558 97.4457 60.2159 79.1991 78.8246C54.7224 103.194 52.4969 140.855 72.0785 167.882L98.3356 141.741L114.357 157.691L71.6333 199.783C68.5184 197.568 65.8483 194.91 63.1776 192.251C27.1299 156.362 27.1299 98.32 63.1776 62.8744Z" fill="white"/>
<path d="M91.3582 211.277C125.181 225.909 165.679 219.258 192.826 192.213C228.874 156.301 228.874 98.6653 192.826 62.7533C190.156 60.0932 187.486 57.433 184.37 55.2163L142.092 97.3349L158.113 113.296L184.37 87.1377C203.952 114.182 201.282 152.311 177.25 176.252C158.559 194.874 132.301 200.637 109.159 193.987L91.3582 211.277Z" fill="white"/>
<path d="M143.562 127.5L128.002 111.437L112.441 127.5L128.002 143.563L143.562 127.5Z" fill="white"/>
<path d="M97.3819 81.3188L113.444 97.3816L97.3819 113.444L81.3188 97.3816L97.3819 81.3188Z" fill="white"/>
<path d="M174.685 157.618L158.622 141.555L142.559 157.618L158.622 173.681L174.685 157.618Z" fill="white"/>
<defs>
<radialGradient id="paint0_radial_1694_84" cx="0" cy="0" r="1" gradientUnits="userSpaceOnUse" gradientTransform="translate(127.922 127.432) rotate(90) scale(127.438 127.939)">
<stop stop-color="#304FFE"/>
<stop offset="1" stop-color="#3D5AFE"/>
</radialGradient>
</defs>
</svg>
