<svg width="256" height="256" viewBox="0 0 256 256" fill="none" xmlns="http://www.w3.org/2000/svg">
<path d="M128.858 0.000706881C154.137 0.170258 178.8 7.82126 199.736 21.9889C220.672 36.1565 236.945 56.2063 246.501 79.6098C256.058 103.013 258.47 128.723 253.435 153.496C248.399 178.269 236.141 200.996 218.207 218.811C200.272 236.627 177.463 248.733 152.657 253.602C127.852 258.472 102.159 255.888 78.8203 246.175C55.4813 236.462 35.5409 220.056 21.5137 199.025C7.48647 177.995 0.000568594 153.281 0 128.002C0.114758 93.9402 13.7551 61.3192 37.9206 37.3146C62.086 13.3099 94.7972 -0.112222 128.858 0.000706881Z" fill="#020000"/>
<mask id="mask0_1761_35" style="mask-type:luminance" maskUnits="userSpaceOnUse" x="56" y="76" width="145" height="104">
<path d="M200.312 76H56V179.941H200.312V76Z" fill="white"/>
</mask>
<g mask="url(#mask0_1761_35)">
<path d="M67.0135 76C60.9296 76 56 80.9267 56 87.0069V168.934C56 175.014 60.9296 179.941 67.0135 179.941H189.298C195.382 179.941 200.312 175.014 200.312 168.934V87.0069C200.312 80.9267 195.382 76 189.298 76H67.0135ZM107.953 168.396H67.5201V156.848H96.4019V145.304H79.0754V133.76H107.953V168.396ZM188.756 168.396H119.508V156.848H177.205V145.304H160.051V133.76H188.756V168.396ZM148.324 133.76V145.304H119.618V133.725H131.174V133.76H148.324ZM148.359 87.5441H177.237V99.0881H159.91V110.632H188.792V122.181H148.359V87.5441ZM107.988 87.5441H125.138V87.5088H136.694V99.0881H107.988V87.5441ZM67.5553 87.5441H96.261V99.0881H79.1063V110.632H136.804V122.181H67.5553V87.5441Z" fill="url(#paint0_linear_1761_35)"/>
</g>
<defs>
<linearGradient id="paint0_linear_1761_35" x1="128.156" y1="76" x2="128.156" y2="179.941" gradientUnits="userSpaceOnUse">
<stop stop-color="#FFD100"/>
<stop offset="1" stop-color="#F89542"/>
</linearGradient>
</defs>
</svg>
