<svg width="256" height="253" viewBox="0 0 256 253" fill="none" xmlns="http://www.w3.org/2000/svg">
<g clip-path="url(#clip0_2092_10586)">
<path d="M126.848 0.00243214C101.913 0.313332 77.6262 7.99692 57.0442 22.0861C36.4621 36.1753 20.5038 56.0411 11.1765 79.184C1.8492 102.327 -0.430202 127.713 4.62495 152.149C9.68011 176.585 21.8437 198.979 39.5862 216.515C57.3287 234.05 79.8572 245.943 104.337 250.697C128.818 255.451 154.156 252.854 177.165 243.233C200.174 233.612 219.826 217.396 233.648 196.626C247.47 175.856 254.845 151.459 254.846 126.505C254.634 92.7448 241.03 60.4512 217.026 36.7278C193.022 13.0044 160.585 -0.206114 126.848 0.00243214Z" fill="#00EDBE"/>
<path d="M177.432 79.7255C177.089 73.3999 178.631 67.1148 181.862 61.667H78.682C77.7573 61.6637 76.841 61.8427 75.9855 62.1937C75.1299 62.5448 74.3517 63.061 73.6955 63.713C73.0393 64.365 72.5179 65.1399 72.1609 65.9935C71.804 66.8472 71.6185 67.7628 71.6152 68.6881V90.7587C71.6185 91.684 71.804 92.5997 72.1609 93.4533C72.5179 94.3069 73.0393 95.0819 73.6955 95.7338C74.3517 96.3858 75.1299 96.9021 75.9855 97.2531C76.841 97.6042 77.7573 97.7831 78.682 97.7798H181.862C178.631 92.332 177.089 86.047 177.432 79.7213" fill="#141BEB"/>
<path d="M55.5352 126.859C55.8718 133.185 54.3239 139.468 51.0879 144.913H154.268C155.193 144.916 156.109 144.737 156.964 144.386C157.82 144.035 158.598 143.519 159.254 142.867C159.911 142.215 160.432 141.44 160.789 140.587C161.146 139.733 161.331 138.817 161.335 137.892V115.821C161.331 114.896 161.146 113.98 160.789 113.127C160.432 112.273 159.911 111.498 159.254 110.846C158.598 110.194 157.82 109.678 156.964 109.327C156.109 108.976 155.193 108.797 154.268 108.8H51.0879C54.3189 114.248 55.8608 120.533 55.5183 126.859" fill="#141BEB"/>
<path d="M177.432 173.988C177.089 167.662 178.631 161.377 181.862 155.929H78.682C77.7573 155.926 76.841 156.105 75.9855 156.456C75.1299 156.807 74.3517 157.323 73.6955 157.975C73.0393 158.627 72.5179 159.402 72.1609 160.256C71.804 161.109 71.6185 162.025 71.6152 162.95V185.021C71.6185 185.946 71.804 186.862 72.1609 187.716C72.5179 188.569 73.0393 189.344 73.6955 189.996C74.3517 190.648 75.1299 191.164 75.9855 191.515C76.841 191.866 77.7573 192.045 78.682 192.042H181.862C178.631 186.594 177.089 180.309 177.432 173.984" fill="#141BEB"/>
</g>
<defs>
<clipPath id="clip0_2092_10586">
<rect width="256" height="253" fill="white"/>
</clipPath>
</defs>
</svg>
