<svg width="256" height="256" viewBox="0 0 256 256" fill="none" xmlns="http://www.w3.org/2000/svg">
<circle cx="127" cy="128" r="125" fill="white"/>
<g clip-path="url(#clip0_741_46)">
<path d="M203.012 139.926C203.012 143.984 203.012 148.043 203.02 152.109C202.111 154.143 202.389 156.372 201.955 158.495C195.719 188.538 173.054 212.529 139.966 217.159C110.434 221.291 86.9744 210.21 70.5616 185.361C62.6624 173.398 57.5574 160.112 55.1401 145.92C53.2063 134.569 53.9356 123.284 56.2464 112.039C60.4992 91.3632 69.4636 73.1777 84.7045 58.3157C90.654 52.5179 97.1924 47.4877 104.756 43.8621C109.82 41.4286 115.31 40.4651 120.669 39.0278C124.758 39.0278 128.847 39.0442 132.935 39.0523C146.809 41.1265 158.305 47.8634 167.704 57.8584C185.165 76.4196 197.08 97.8796 200.759 123.472C201.546 128.951 202.053 134.471 203.02 139.918L203.012 139.926Z" fill="#242A33"/>
<path d="M190.079 130.021C190.284 130.503 190.637 130.977 190.678 131.475C191.939 146.965 188.998 161.542 181.156 175.065C178.984 178.813 176.534 182.348 173.749 185.689C165.907 195.087 155.582 200.526 144.061 203.768C139.292 205.107 134.22 205.409 129.188 204.437C125.788 203.776 122.19 204.168 118.946 202.608C114.062 196.263 108.277 190.906 101.763 186.219C94.5848 181.058 86.6032 177.4 78.8271 173.334C74.1237 166.605 71.2475 159.06 69.4775 151.146C67.8551 143.879 67.2897 136.431 67.8551 129.001C68.6172 118.908 70.4608 109.01 73.3861 99.2767C77.5652 85.3948 85.6038 74.1012 95.9202 64.2042C96.494 63.657 97.2229 63.2732 97.8786 62.8159C99.0583 64.1633 98.8458 65.7475 97.9769 66.9479C90.3976 77.4247 89.7582 89.151 91.5363 101.343C91.4379 102.714 90.9133 103.964 90.3484 105.197C86.2917 114.065 86.0546 123.407 86.4147 132.953C86.8163 143.667 89.8976 153.564 95.3956 162.522C102.435 173.995 111.767 183.002 125.534 186.219C128.533 186.921 131.434 186.872 134.367 186.04C138.424 184.888 139.308 182.961 136.768 179.613C133.908 175.84 130.729 172.313 127.878 168.532C123.633 162.914 119.069 157.532 115.086 151.726C111.735 146.843 110.186 141.544 112.423 135.681C114.431 134.864 115.791 136.219 117.16 137.216C123.936 142.148 131.057 146.533 138.342 150.673C141.93 152.715 145.675 153.899 149.789 154.389C158.04 155.385 166.201 155.826 174.24 153.098C174.756 152.926 175.313 153.057 175.838 153.172C178.165 153.882 179.099 156.789 182.18 157.026C185.007 153.074 184.311 148.183 185.343 143.74C187.924 139.518 188.236 134.521 190.063 130.046L190.079 130.021Z" fill="#DF2A2A"/>
<path d="M90.5199 101.71C89.5533 96.8189 89.8484 91.862 89.6435 86.9301C89.4058 81.3444 91.5691 76.5511 94.011 71.8148C94.8629 70.1653 95.6989 68.4913 96.895 67.0132C97.8376 65.8374 98.0015 64.3185 97.895 62.8078C110.842 50.4202 129.918 49.1299 144.192 56.9855C144.528 57.1733 144.79 57.5 145.085 57.7613C139.169 60.5867 135.449 65.0126 134.662 71.6842C134.457 73.4399 133.368 74.6321 131.516 74.9587C114.89 74.6321 104.459 84.619 95.1498 96.5739C93.7488 98.3784 93.4455 101.237 90.5363 101.719L90.5199 101.71Z" fill="#FE3939"/>
<path d="M131.147 74.181C132.892 73.9932 133.589 73.1031 133.786 71.274C134.343 66.1703 136.293 61.826 140.947 58.9435C142.324 58.0942 143.577 57.7513 145.069 57.7594C146.495 58.2493 147.715 59.1068 148.871 60.0377C157.016 66.5623 164.907 73.3318 170.553 82.2735C173.068 86.2583 176.027 89.9737 177.985 94.3017C176.821 96.7189 175.068 98.5316 172.56 99.5853C170.364 99.2096 169.184 97.4213 167.775 96.0164C162.793 91.0437 157.901 85.9725 151.829 82.2653C146.446 78.9744 140.611 76.9084 134.384 75.9041C133.138 75.6999 131.532 76.0592 131.139 74.1892L131.147 74.181Z" fill="#FE6E6E"/>
<path d="M78.8352 173.315C79.7694 173.283 80.6544 173.242 81.5969 173.667C95.8875 180.052 108.564 188.659 118.979 200.418C119.634 201.161 120.396 201.88 118.954 202.59C106.868 200.125 96.0842 195.208 87.8982 185.703C84.5629 181.824 81.4494 177.75 78.8352 173.324V173.315Z" fill="#FD3838"/>
<path d="M172.71 99.4646C174.16 97.4231 175.848 95.6267 177.995 94.2959C180.888 97.8152 182.141 102.135 183.838 106.234C186.427 112.498 188.41 118.94 189.746 125.588C190.041 127.065 190.156 128.535 190.09 130.022C190.303 135.15 189.082 139.853 185.927 143.985C184.091 142.377 184.132 140.164 184.026 138.024C183.444 125.71 180.757 114.016 173.89 103.531C173.103 102.331 172.013 101.139 172.71 99.4728V99.4646Z" fill="#FD3A3A"/>
<path d="M172.708 99.4638C180.623 110.863 184.598 123.422 185.105 137.19C185.909 143.592 186.425 150.093 184.155 156.307C182.32 162.235 178.067 156.225 175.928 153.759C171.249 150.501 168.43 145.667 165.317 141.118C164.038 139.248 164.464 136.937 164.948 134.789C165.12 131.433 170.528 121.242 164.3 121.552C145.691 122.598 143.659 105.809 131.868 96.0425C128.861 93.4211 125.009 89.6567 120.871 92.5226C117.414 95.0214 118.192 99.5781 119.577 102.95C120.552 105.025 119.953 106.38 118.052 107.719C104.663 117.567 125.788 118.074 112.612 135.859C111.293 142.457 113.317 148.272 117.373 153.285C124.436 162.202 131.163 171.381 138.596 180.004C140.652 183.222 139.718 185.59 136.137 186.806C130.532 188.717 125.165 187.697 119.855 185.729C95.6088 175.635 83.1536 148.402 85.2923 123.186C85.7267 115.624 87.3327 108.52 90.5117 101.709C97.9851 89.5342 108.621 77.9057 123.108 74.5822C136.719 72.802 150.707 78.3467 160.564 87.6316C164.686 91.4939 168.66 95.5115 172.699 99.4638H172.708Z" fill="#FEFEFE"/>
<path d="M112.613 135.849C113.081 131.962 115.113 128.77 117.211 125.585C116.022 123.176 114.769 120.792 113.654 118.342C111.253 113.067 112.745 108.167 119.267 105.832C119.529 104.558 118.653 103.594 118.194 102.541C117.357 100.614 117.12 98.6211 117.357 96.5797C117.98 91.1659 123.405 88.4955 127.895 91.558C132.058 94.3912 135.524 98.0739 138.687 101.961C142.104 106.159 145.423 110.454 148.455 114.936C150.298 117.656 152.626 119.166 155.739 119.379C158.714 119.583 161.598 120.392 164.614 120.416C168.44 120.441 169.375 121.927 168.391 125.569C167.547 128.696 166.883 131.881 165.908 134.968C164.909 138.136 165.638 140.676 167.752 143.183C170.62 146.588 173.218 150.222 175.93 153.758C173.316 153.635 171.202 155.301 168.604 155.619C162.959 156.305 157.411 156.632 151.814 155.464C149.962 155.08 148.078 155.489 146.177 155.105C140.744 154.027 136.466 150.654 131.813 148.082C125.724 144.71 120.029 140.684 114.449 136.527C113.875 136.094 113.31 135.833 112.613 135.841V135.849Z" fill="#FE3939"/>
<path d="M153.336 135.639C153.402 139.722 150.854 142.14 146.323 142.303C142.57 142.434 140.185 140.172 140.111 136.431C140.03 132.005 142.398 129.36 146.511 129.278C150.411 129.197 153.271 131.867 153.328 135.648L153.336 135.639Z" fill="#FEFCFC"/>
</g>
<defs>
<clipPath id="clip0_741_46">
<rect width="149" height="179" fill="white" transform="translate(54 39)"/>
</clipPath>
</defs>
</svg>
