<svg width="256" height="256" viewBox="0 0 256 256" fill="none" xmlns="http://www.w3.org/2000/svg">
<g clip-path="url(#clip0_2092_10597)">
<path d="M256 128C256 57.3076 198.692 0 128 0C57.3076 0 0 57.3076 0 128C0 198.692 57.3076 256 128 256C198.692 256 256 198.692 256 128Z" fill="black"/>
<path d="M135.239 127.938L195.17 96.0246L185.105 76.7998L130.198 98.8619C128.788 99.4328 127.213 99.4328 125.803 98.8619L70.8969 76.7998L60.8008 96.0868L120.732 128L60.8008 159.913L70.8969 179.2L125.803 156.969C127.213 156.398 128.788 156.398 130.198 156.969L185.105 179.092L195.201 159.805L135.239 127.938Z" fill="#23F7DD"/>
</g>
<defs>
<clipPath id="clip0_2092_10597">
<rect width="256" height="256" fill="white"/>
</clipPath>
</defs>
</svg>
