<svg width="256" height="256" viewBox="0 0 256 256" fill="none" xmlns="http://www.w3.org/2000/svg">
<g clip-path="url(#clip0_1933_1633)">
<path d="M256 128C256 57.3075 198.692 0 128 0C57.3075 0 0 57.3075 0 128C0 198.692 57.3075 256 128 256C198.692 256 256 198.692 256 128Z" fill="#2F3656"/>
<path fill-rule="evenodd" clip-rule="evenodd" d="M234.93 115.127C235.416 119.354 235.708 123.679 235.708 128.1C235.708 187.715 187.365 236.058 127.75 236.058C84.314 236.058 46.9029 210.404 29.7521 173.479L47.0001 164.782C60.9442 195.44 91.8448 216.72 127.701 216.72C176.627 216.72 216.322 177.026 216.322 128.1C216.322 127.177 216.322 126.302 216.273 125.379L234.93 115.127ZM127.75 20.1421C173.226 20.1421 212.143 48.2733 228.031 88.0651L209.568 93.944C196.207 61.9259 164.626 39.4793 127.75 39.4793C78.8238 39.4793 39.1292 79.1253 39.1292 128.1C39.1292 128.683 39.1292 129.315 39.1292 129.898L21.0552 144.668C20.2293 139.275 19.792 133.736 19.792 128.051C19.792 68.485 68.1349 20.1421 127.75 20.1421Z" fill="#010E35"/>
<path fill-rule="evenodd" clip-rule="evenodd" d="M7.5 171.244L113.077 84.9067L108.704 120.812L170.311 85.8785L167.202 119.986L248 94.2352L138.39 154.627L146.553 120.277L83.2454 157.397L87.4237 131.015L7.5 171.244Z" fill="#010E35"/>
</g>
<defs>
<clipPath id="clip0_1933_1633">
<rect width="256" height="256" fill="white"/>
</clipPath>
</defs>
</svg>
