<svg width="256" height="255" viewBox="0 0 256 255" fill="none" xmlns="http://www.w3.org/2000/svg">
<g clip-path="url(#clip0_238_87)">
<path d="M128.06 2.30127H128.065C197.158 2.30127 253.169 58.2363 253.169 127.236V127.24C253.169 196.24 197.158 252.175 128.065 252.175H128.06C58.9667 252.175 2.95557 196.24 2.95557 127.24V127.236C2.95557 58.2363 58.9667 2.30127 128.06 2.30127Z" fill="#111111" stroke="#111111" stroke-width="7.05706"/>
<path d="M128.065 0H128.06C57.6942 0 0.651367 56.9653 0.651367 127.236V127.24C0.651367 197.511 57.6942 254.476 128.06 254.476H128.065C198.431 254.476 255.473 197.511 255.473 127.24V127.236C255.473 56.9653 198.431 0 128.065 0Z" fill="url(#paint0_radial_238_87)" fill-opacity="0.7"/>
<path d="M128.06 2.33057H128.065C197.142 2.33057 253.14 58.2525 253.14 127.236V127.241C253.14 196.224 197.142 252.146 128.065 252.146H128.06C58.9829 252.146 2.98486 196.224 2.98486 127.241V127.236C2.98486 58.2525 58.9829 2.33057 128.06 2.33057Z" stroke="url(#paint1_linear_238_87)" stroke-width="7.14639"/>
<path fill-rule="evenodd" clip-rule="evenodd" d="M100.183 68.062H97.4682L95.7075 70.1261L50.2648 123.43L47.021 127.235L50.2648 131.04L95.7075 184.343L97.4682 186.408H100.183H181.996H187.873V180.539V146.652H176.118V174.669H113.036L150.792 131.074L154.117 127.235L150.792 123.395L113.036 79.8011H176.118V107.818H187.873V73.9316V68.062H181.996H100.183ZM100.218 82.9453L62.4593 127.235L100.218 171.525L138.575 127.235L100.218 82.9453Z" fill="white"/>
</g>
<defs>
<radialGradient id="paint0_radial_238_87" cx="0" cy="0" r="1" gradientUnits="userSpaceOnUse" gradientTransform="translate(128.336 37.1568) rotate(90) scale(268.273 189.094)">
<stop offset="0.03125" stop-color="#3A3A3A"/>
<stop offset="1" stop-color="#1C1C1C"/>
</radialGradient>
<linearGradient id="paint1_linear_238_87" x1="128.062" y1="-2.40051" x2="128.062" y2="256.877" gradientUnits="userSpaceOnUse">
<stop stop-color="white"/>
<stop offset="1" stop-color="#111111"/>
</linearGradient>
<clipPath id="clip0_238_87">
<rect width="256" height="255" fill="white"/>
</clipPath>
</defs>
</svg>
