<svg width="256" height="256" viewBox="0 0 256 256" fill="none" xmlns="http://www.w3.org/2000/svg">
<g clip-path="url(#clip0_1320_72)">
<path d="M128.09 256.181C198.833 256.181 256.181 198.833 256.181 128.09C256.181 57.348 198.833 0 128.09 0C57.348 0 0 57.348 0 128.09C0 198.833 57.348 256.181 128.09 256.181Z" fill="#7866D5"/>
<path d="M179.941 65.7617C184.277 66.3037 188.793 66.665 193.129 67.3877C201.62 69.0137 204.511 73.3496 203.066 82.0214C202.704 85.2734 200.175 87.8027 196.923 88.3446C194.936 88.706 192.768 88.8866 190.781 88.706C162.597 88.706 134.594 88.8866 106.411 88.8866C102.256 88.8866 97.9196 89.248 93.7643 89.9706C79.8533 92.1386 74.4334 97.9198 73.3494 112.012C72.8074 118.515 72.8074 118.515 79.4919 118.515H191.503C192.587 118.515 193.671 118.515 194.755 118.515C196.562 118.515 198.188 119.057 199.814 119.961C204.872 123.213 203.608 128.452 203.427 133.149C203.246 136.943 200.898 139.111 196.923 139.834C195.297 140.195 193.671 140.195 191.865 140.195C153.564 140.195 115.263 140.195 76.9626 140.195C72.8074 140.195 72.8074 140.195 73.1687 144.35C73.3494 148.144 73.7107 151.938 74.614 155.732C76.4207 162.597 80.5759 166.933 87.6218 168.921C95.2097 171.088 103.159 171.45 110.927 171.63C138.208 171.63 165.668 171.63 193.129 171.63C196.562 171.63 199.814 171.992 201.982 175.244C205.414 180.664 203.608 187.709 198.188 191.142C197.465 191.684 196.742 192.045 195.839 192.226C189.877 194.213 183.735 194.575 177.411 194.755C151.577 195.297 125.922 195.297 100.268 194.755C92.319 194.575 84.3698 193.671 76.6013 192.045C58.3543 188.251 49.1405 178.857 46.0692 160.429C45.3466 156.274 44.9852 151.938 44.4432 147.602V113.999C44.8046 110.747 45.1659 107.314 45.5272 104.062C47.8758 83.2861 57.2703 72.9883 77.6853 68.291C84.9118 66.665 92.4997 66.3037 99.7262 65.5811L179.941 65.7617Z" fill="white"/>
<path d="M138.75 198.369C125.742 198.369 112.915 198.188 100.088 198.007C91.9577 197.827 83.8278 196.923 75.8787 195.117C56.1863 190.961 46.0692 180.483 42.8173 160.971C42.2753 157.9 41.9139 154.829 41.7333 151.938C41.5526 150.673 41.3719 149.409 41.1913 147.964V147.602V113.638L41.5526 110.386C41.7333 108.037 42.0946 105.869 42.2753 103.701C44.8046 81.4794 55.283 70.0976 77.1433 65.2197C82.9245 63.9551 88.5251 63.4131 94.1257 62.8711C95.9323 62.6904 97.7389 62.5098 99.5456 62.3291H99.9069H180.302H180.483C181.747 62.5098 183.193 62.6904 184.457 62.6904C187.529 63.0518 190.6 63.2324 193.852 63.9551C204.15 65.9424 208.124 71.7236 206.318 82.2021C205.776 86.7187 202.162 90.5126 197.284 91.2352C195.116 91.5966 192.949 91.7772 190.6 91.7772C162.597 91.9579 134.414 92.1386 106.411 92.1386C102.436 92.1386 98.2809 92.4999 94.3063 93.2225C81.8405 95.2098 77.6853 99.7264 76.6013 112.373C76.6013 113.457 76.4206 114.541 76.4206 115.444C77.1433 115.444 78.4079 115.444 79.4919 115.444H194.755C197.104 115.444 199.452 116.167 201.44 117.251C207.582 121.225 207.04 127.187 206.679 131.523C206.679 132.065 206.498 132.788 206.498 133.33C206.137 138.388 203.066 141.821 197.465 142.905C195.478 143.266 193.671 143.266 191.865 143.266H77.1433C76.9626 143.266 76.6013 143.266 76.4206 143.266C76.4206 143.447 76.4206 143.628 76.4206 143.808V143.989C76.6013 147.783 76.9626 151.396 77.8659 155.009C79.3113 160.61 82.7439 164.043 88.5251 165.669C96.2936 167.837 104.243 168.198 111.108 168.198C132.426 168.378 154.106 168.378 175.244 168.378H193.31C196.02 168.378 201.62 168.378 204.872 173.618C207.04 177.05 207.582 181.025 206.679 184.819C205.776 188.613 203.427 191.865 199.994 194.033C199.091 194.575 198.007 195.117 196.923 195.478C190.239 197.646 183.373 198.007 177.592 198.188C164.765 198.188 151.757 198.369 138.75 198.369ZM47.6952 147.422C47.8758 148.686 48.0565 149.951 48.0565 151.215C48.4178 154.106 48.7791 156.997 49.1405 159.887C52.0311 176.87 60.1609 185.18 77.1433 188.793C84.7312 190.419 92.4997 191.323 100.268 191.503C125.742 192.045 151.757 192.045 177.411 191.503C182.651 191.323 188.974 190.961 194.755 189.155C195.297 188.974 195.839 188.613 196.381 188.432C198.188 187.167 199.633 185.361 200.175 183.193C200.717 181.025 200.356 178.857 199.091 176.87C198.007 175.244 196.562 174.702 193.129 174.702H175.063C154.106 174.702 132.246 174.702 110.927 174.521C103.701 174.521 95.2096 174.16 86.7185 171.63C78.5886 169.462 73.53 164.223 71.5427 156.093C70.6394 152.119 70.0974 147.964 70.0974 143.989V143.808C69.9168 141.279 69.7361 139.472 71.1814 137.846C72.6267 136.22 74.614 136.22 77.1433 136.22H192.045C193.491 136.22 195.116 136.22 196.562 135.859C199.452 135.317 200.175 134.052 200.356 132.246C200.356 131.523 200.536 130.981 200.536 130.259C200.898 125.742 200.898 123.574 198.368 121.948C197.465 121.406 196.2 121.045 195.116 121.045H79.4919C75.5173 121.045 73.1687 121.045 71.3621 119.238C69.5554 117.431 69.9168 114.902 70.0974 111.108C71.3621 95.5712 77.8659 88.5253 93.2223 86.1767C97.5583 85.454 101.894 85.0927 106.411 84.912C134.594 84.912 162.597 84.7314 190.781 84.7314C192.768 84.7314 194.574 84.7314 196.381 84.37C198.188 84.1894 199.633 82.7441 199.814 80.9374C201.078 73.7109 199.272 71.3623 192.407 69.917C189.516 69.375 186.625 69.0136 183.735 68.833C182.47 68.6523 181.025 68.4717 179.76 68.4717H99.9069C98.1002 68.6523 96.2936 68.833 94.487 69.0136C88.8864 69.5556 83.6472 69.917 78.2273 71.1816C59.2576 75.8789 50.9471 85.0927 48.7791 104.604C48.5985 106.772 48.2372 108.94 48.0565 111.289L47.6952 114.36V147.422Z" fill="white"/>
</g>
<defs>
<clipPath id="clip0_1320_72">
<rect width="256" height="256" fill="white"/>
</clipPath>
</defs>
</svg>
