<svg width="600" height="600" viewBox="0 0 600 600" fill="none" xmlns="http://www.w3.org/2000/svg">
<path d="M300 600C465.686 600 600 465.686 600 300C600 134.315 465.686 0 300 0C134.315 0 0 134.315 0 300C0 465.686 134.315 600 300 600Z" fill="url(#paint0_radial_0_3)"/>
<path d="M181.203 287.044C181.203 287.044 171.483 270.426 167.556 262.018C162.792 251.452 160.389 239.973 160.517 228.381C160.644 216.789 163.298 205.365 168.293 194.907C172.008 187.974 177.369 182.064 183.903 177.699L293.57 100.999L181.203 287.044Z" fill="white"/>
<path d="M137.756 374.097C129.29 358.401 124.269 341.076 123.031 323.28C121.506 307.869 121.375 292.351 122.639 276.916C124.834 262.315 129.255 248.138 135.746 234.879C135.746 234.879 138.986 228.537 140.655 225.439C139.758 231.354 139.758 237.372 140.655 243.287C142.679 256.35 147.035 268.941 153.516 280.456C217.53 389.457 293.423 498.999 293.423 498.999L172.121 414.287C157.938 403.494 146.222 389.792 137.756 374.097Z" fill="white"/>
<path d="M432.495 337.979C428.568 329.571 418.848 312.953 418.848 312.953L306.482 498.997L416.148 422.348C422.682 417.981 428.043 412.071 431.758 405.14C436.761 394.676 439.418 383.242 439.545 371.64C439.673 360.039 437.267 348.551 432.495 337.979Z" fill="white"/>
<path d="M462.294 225.902C470.76 241.598 475.78 258.923 477.018 276.719C478.527 292.131 478.642 307.65 477.361 323.082C475.165 337.685 470.745 351.861 464.254 365.12C464.254 365.12 461.014 371.462 459.346 374.559C460.242 368.645 460.242 362.628 459.346 356.712C457.336 343.653 452.997 331.062 446.533 319.542C382.471 210.542 306.627 100.999 306.627 100.999L427.929 185.712C442.111 196.505 453.828 210.207 462.294 225.902Z" fill="white"/>
<defs>
<radialGradient id="paint0_radial_0_3" cx="0" cy="0" r="1" gradientUnits="userSpaceOnUse" gradientTransform="translate(196 143.5) rotate(54.1675) scale(497.082)">
<stop stop-color="#66D2FF"/>
<stop offset="1" stop-color="#6D19C0"/>
</radialGradient>
</defs>
</svg>
