<svg width="256" height="256" viewBox="0 0 256 256" fill="none" xmlns="http://www.w3.org/2000/svg">
<path d="M128 255C198.14 255 255 198.14 255 128C255 57.8598 198.14 1 128 1C57.8598 1 1 57.8598 1 128C1 198.14 57.8598 255 128 255Z" fill="url(#paint0_linear_1320_77)"/>
<path d="M67.8825 111.384C69.6762 115.188 74.1603 122.795 74.1603 122.795L125.504 38L75.5056 72.9023C72.5909 74.9159 70.1246 77.6007 68.3309 80.733C63.6225 90.3535 63.6225 101.54 67.8825 111.384Z" fill="url(#paint1_linear_1320_77)"/>
<path d="M47.7037 139.127C48.8247 155.46 57.1204 170.674 70.1246 180.518L125.504 219C125.504 219 90.7518 169.108 61.6046 119.439C58.6899 114.293 56.672 108.476 55.7752 102.435C55.3268 99.7504 55.3268 97.0657 55.7752 94.3809C55.1026 95.7233 53.5331 98.6318 53.5331 98.6318C50.6184 104.673 48.6005 111.161 47.4795 117.873C46.8068 125.032 46.8068 132.192 47.7037 139.127Z" fill="#A0A8D4"/>
<path d="M188.955 145.839C187.162 142.036 182.678 134.429 182.678 134.429L131.334 219L181.556 184.321C184.471 182.308 186.938 179.623 188.731 176.491C193.215 166.87 193.44 155.683 188.955 145.839Z" fill="url(#paint2_linear_1320_77)"/>
<path d="M209.358 117.873C208.237 101.54 199.942 86.3263 186.938 76.4821L131.558 38C131.558 38 166.31 87.8925 195.457 137.561C198.372 142.707 200.39 148.524 201.287 154.565C201.735 157.25 201.735 159.934 201.287 162.619C201.96 161.277 203.529 158.368 203.529 158.368C206.444 152.328 208.462 145.839 209.583 139.351C210.031 131.968 210.031 125.032 209.358 117.873Z" fill="#A0A8D4"/>
<path d="M68.3309 80.733C70.1246 77.6007 72.3667 74.9159 75.5056 72.9023L125.504 38L74.1603 122.571C74.1603 122.571 69.6762 114.964 67.8825 111.161C63.6225 101.54 63.6225 90.3535 68.3309 80.733ZM47.7037 139.127C48.8247 155.46 57.1204 170.674 70.1246 180.518L125.504 219C125.504 219 90.7518 169.108 61.6046 119.439C58.6899 114.293 56.672 108.476 55.7752 102.435C55.3268 99.7503 55.3268 97.0655 55.7752 94.3807C55.1026 95.7231 53.5331 98.6316 53.5331 98.6316C50.6184 104.672 48.6005 111.161 47.4795 117.873C46.8068 125.032 46.8068 132.192 47.7037 139.127ZM188.955 145.839C187.162 142.036 182.678 134.429 182.678 134.429L131.334 219L181.556 184.321C184.471 182.308 186.938 179.623 188.731 176.491C193.215 166.87 193.44 155.684 188.955 145.839ZM209.134 118.096C208.013 101.764 199.717 86.5501 186.713 76.7058L131.558 38C131.558 38 166.31 87.8925 195.457 137.561C198.372 142.707 200.39 148.524 201.287 154.565C201.735 157.25 201.735 159.934 201.287 162.619C201.96 161.277 203.529 158.368 203.529 158.368C206.444 152.328 208.462 145.839 209.583 139.351C210.031 131.968 210.031 125.032 209.134 118.096Z" fill="white"/>
<defs>
<linearGradient id="paint0_linear_1320_77" x1="128" y1="1" x2="128" y2="255" gradientUnits="userSpaceOnUse">
<stop offset="0.195" stop-color="#5157FF"/>
</linearGradient>
<linearGradient id="paint1_linear_1320_77" x1="127.84" y1="40.1212" x2="62.1146" y2="111.523" gradientUnits="userSpaceOnUse">
<stop offset="0.58" stop-color="#A0A8D4"/>
<stop offset="0.73" stop-color="#8791C7"/>
<stop offset="0.91" stop-color="#6470B4"/>
</linearGradient>
<linearGradient id="paint2_linear_1320_77" x1="129.223" y1="217.028" x2="194.923" y2="145.676" gradientUnits="userSpaceOnUse">
<stop offset="0.58" stop-color="#A0A8D4"/>
<stop offset="0.73" stop-color="#8791C7"/>
<stop offset="0.91" stop-color="#6470B4"/>
</linearGradient>
</defs>
</svg>
