<svg width="256" height="256" viewBox="0 0 256 256" fill="none" xmlns="http://www.w3.org/2000/svg">
<g clip-path="url(#clip0_2559_1650)">
<path fill-rule="evenodd" clip-rule="evenodd" d="M124 12.7564C123.648 12.7769 122.448 12.846 121.333 12.9094C120.218 12.9721 118.37 13.1187 117.226 13.2345C116.082 13.3504 114.618 13.4931 113.973 13.552C112.492 13.6864 109.214 14.2022 107.2 14.6188C106.349 14.7942 105.101 15.0361 104.426 15.1552C103.751 15.2742 102.071 15.6608 100.693 16.014C99.3142 16.3667 97.7302 16.7724 97.1727 16.9145C93.2258 17.9238 85.3577 20.7513 81.7103 22.4729C81.151 22.7372 80.525 23.0144 80.3196 23.0892C77.3634 24.1676 68.5673 29.102 63.3327 32.6182C61.6873 33.7241 61.7494 33.6371 62.1961 34.1984C62.3778 34.4268 62.9654 35.2524 63.503 36.0339C64.0399 36.8147 64.8111 37.9187 65.2162 38.487C66.1961 39.8611 66.7599 40.6726 67.7142 42.08C68.4546 43.1724 68.9462 43.87 69.1324 44.0934C69.1753 44.1452 70.1142 43.5865 71.2188 42.8524C73.085 41.6121 75.821 39.9046 77.0665 39.2025C79.2514 37.9712 80.1724 37.4848 82.6665 36.2476C86.0355 34.5753 87.8191 33.8067 92.1065 32.1792C94.063 31.4361 97.5971 30.2521 99.1465 29.8201C104 28.4678 106.361 27.9244 110.72 27.1577C113.732 26.6278 116.576 26.2924 121.386 25.8995C123.566 25.7209 132.389 25.7209 134.613 25.8988C147.791 26.9536 156.673 29.1136 169.333 34.3424C170.538 34.8403 175.558 37.3241 177.12 38.1958C177.765 38.5561 178.587 39.0124 178.947 39.2108C179.307 39.4092 179.907 39.7619 180.281 39.9942C180.654 40.2265 181.207 40.5612 181.51 40.7372C182.227 41.1545 184.123 42.3814 185.311 43.1961C185.827 43.55 186.289 43.84 186.338 43.84C186.422 43.84 186.978 43.0854 188.057 41.5078C188.494 40.8691 190.046 38.624 191.2 36.96C191.445 36.608 192.085 35.6902 192.622 34.9203C193.16 34.1504 193.598 33.4547 193.596 33.3734C193.59 33.1686 190.197 30.9228 187.146 29.1052C178.325 23.8489 168.046 19.4105 159.04 16.9696C157.217 16.4755 153.58 15.5705 152.586 15.3632C148.282 14.4659 143.991 13.7299 142.026 13.552C141.381 13.4937 140.181 13.374 139.36 13.2857C135.481 12.8691 127.006 12.5772 124 12.7564ZM125.973 54.0787C123.836 54.3206 121.48 55.0624 119.145 56.2272C118.469 56.5638 117.735 56.9632 117.513 57.1129C117.291 57.2633 117.088 57.3868 117.062 57.3868C117.009 57.3868 114.752 58.9926 114.666 59.0912C114.637 59.1251 114.181 59.5174 113.653 59.9635C110.308 62.7872 106.597 67.4585 104.099 71.991C104.008 72.1574 103.74 72.624 103.504 73.0272C103.269 73.4304 102.94 74.0236 102.774 74.3468C101.802 76.2316 101.548 76.7622 101.547 76.8985C101.546 76.9817 101.48 77.1257 101.399 77.2185C101.318 77.3107 101.049 77.8508 100.801 78.4179C100.356 79.4355 100.345 79.4489 100.015 79.4092C98.822 79.2652 98.2018 79.2204 94.9327 79.0464C92.6946 78.9267 87.9606 79.0156 86.2927 79.2083C86.0873 79.232 85.6316 79.2812 85.2796 79.3177C84.1513 79.4348 79.8812 80.2284 79.3596 80.4179C79.213 80.471 78.493 80.6937 77.7596 80.912C77.0262 81.1302 76.3804 81.3504 76.3247 81.4016C76.2691 81.4521 76.1647 81.4931 76.0924 81.4931C76.0201 81.4931 75.6335 81.6409 75.2335 81.822C74.8335 82.0025 74.3625 82.2144 74.1865 82.2918C73.3167 82.6758 72.422 83.1334 71.8927 83.4649C71.5702 83.6672 71.1625 83.9136 70.9871 84.0128C70.7081 84.1696 69.9267 84.7296 69.2931 85.2268C68.0598 86.1939 66.2646 88.0102 65.7065 88.8544C65.6182 88.9875 65.4274 89.2416 65.2815 89.4195C65.1356 89.5974 64.7721 90.1785 64.4732 90.7116C63.5305 92.3929 63.3129 92.8288 63.2169 93.2326C63.1817 93.383 63.0703 93.6947 62.9705 93.9264C62.8706 94.1574 62.7785 94.398 62.7663 94.4614C62.7542 94.5241 62.6236 94.9798 62.4764 95.4745C62.3299 95.9686 62.1801 96.5651 62.1449 96.8C62.1097 97.0348 62.0585 97.3465 62.0316 97.4931C61.7027 99.2825 61.6962 103.316 62.0194 104.96C62.0482 105.107 62.1442 105.674 62.2319 106.222C62.3202 106.769 62.4412 107.37 62.5014 107.555C62.5615 107.741 62.6844 108.205 62.7746 108.587C63.1196 110.046 63.9657 112.64 64.3318 113.357C64.4425 113.574 64.5327 113.807 64.5327 113.874C64.5327 114.183 66.8706 118.961 67.766 120.482C67.8358 120.601 68.031 120.937 68.1993 121.229C68.6127 121.947 69.366 123.134 69.4492 123.2C69.4863 123.229 69.6073 123.423 69.718 123.631C69.8287 123.839 70.3036 124.552 70.7727 125.215C71.2425 125.878 71.6745 126.498 71.7327 126.591C71.7916 126.685 71.9158 126.849 72.0092 126.956C72.4988 127.517 72.4931 127.611 71.9247 128.394C71.6329 128.794 71.3314 129.242 71.2546 129.387C71.1772 129.534 71.0825 129.677 71.0441 129.707C70.9615 129.77 69.7993 131.475 69.4985 131.974C69.3839 132.164 68.9846 132.793 68.6108 133.37C68.237 133.948 67.9023 134.5 67.8665 134.597C67.8313 134.694 67.6982 134.941 67.5721 135.147C66.7734 136.443 65.007 140.121 64.319 141.92C64.1846 142.272 64.0073 142.716 63.9254 142.907C63.645 143.558 63.1254 145.296 62.6102 147.307C61.5458 151.455 61.4537 155.735 62.3427 159.68C63.2783 163.832 66.7452 168.742 70.2518 170.884C70.4796 171.024 70.7145 171.195 70.7727 171.265C70.9628 171.492 73.6188 172.886 74.8265 173.392C77.085 174.338 77.9081 174.606 80.5327 175.249C81.4799 175.481 82.9558 175.738 85.9196 176.185C87.6527 176.447 96.2178 176.445 98.4937 176.183C99.366 176.083 100.149 176 100.233 176C100.316 176 100.506 176.276 100.654 176.613C100.982 177.359 101.45 178.36 101.938 179.36C102.308 180.121 102.342 180.187 102.645 180.747C102.741 180.923 102.939 181.307 103.086 181.6C103.367 182.159 103.715 182.781 104.327 183.82C104.528 184.161 104.743 184.528 104.803 184.635C104.864 184.742 105.037 185.015 105.187 185.242C105.338 185.468 105.791 186.157 106.194 186.773C106.597 187.389 107.095 188.113 107.303 188.38C107.51 188.648 107.776 189.002 107.893 189.167C108.01 189.332 108.361 189.785 108.671 190.173C108.982 190.562 109.389 191.072 109.576 191.307C110.028 191.874 111.541 193.449 112.649 194.507C113.141 194.976 113.568 195.385 113.598 195.416C113.753 195.574 115.638 197.019 116.053 197.298C118.003 198.609 118.705 198.997 120.64 199.833C121.021 199.998 121.415 200.174 121.516 200.225C121.617 200.276 121.881 200.364 122.103 200.421C122.325 200.478 122.77 200.602 123.093 200.698C125.508 201.411 129.194 201.629 131.198 201.178C131.463 201.119 132.057 200.993 132.517 200.899C135.345 200.32 139.091 198.452 141.596 196.373C141.843 196.168 142.231 195.856 142.457 195.68C143.364 194.974 145.72 192.656 146.418 191.782C146.584 191.574 146.901 191.209 147.122 190.97C147.549 190.512 148.371 189.443 148.376 189.341C148.377 189.307 148.569 189.072 148.802 188.817C149.036 188.563 149.226 188.318 149.226 188.272C149.226 188.202 149.6 187.679 149.961 187.243C150.014 187.179 150.14 186.963 150.243 186.763C150.346 186.563 150.459 186.376 150.495 186.347C150.661 186.212 152.746 182.785 152.746 182.647C152.746 182.614 152.967 182.224 153.236 181.78C153.506 181.336 153.742 180.891 153.762 180.79C153.781 180.691 153.92 180.413 154.071 180.173C154.222 179.933 154.346 179.704 154.346 179.664C154.346 179.624 154.7 178.867 155.134 177.982C155.567 177.097 155.955 176.262 155.997 176.125C156.062 175.91 156.124 175.884 156.463 175.931C156.677 175.962 157.117 176.017 157.44 176.054C157.762 176.091 158.17 176.143 158.346 176.168C160.206 176.44 168.053 176.463 169.866 176.203C170.277 176.145 170.853 176.073 171.146 176.043C171.44 176.015 171.92 175.947 172.213 175.892C172.506 175.839 173.03 175.766 173.376 175.732C173.723 175.697 174.083 175.629 174.176 175.579C174.27 175.528 174.586 175.453 174.88 175.41C176.062 175.238 177.577 174.853 178.826 174.406C179.354 174.217 179.954 174.013 180.159 173.952C180.364 173.892 180.627 173.776 180.743 173.695C180.858 173.613 181.029 173.547 181.122 173.547C181.434 173.547 184.647 171.931 185.075 171.56C185.168 171.479 185.299 171.413 185.368 171.413C185.436 171.413 185.493 171.373 185.493 171.323C185.493 171.274 185.601 171.184 185.733 171.122C187.143 170.463 191.573 166.004 191.573 165.244C191.573 165.185 191.642 165.066 191.726 164.982C191.892 164.816 192.762 163.158 193.138 162.293C193.594 161.242 193.866 160.344 194.251 158.613C194.891 155.739 194.652 150.289 193.746 147.113C193.657 146.801 193.515 146.273 193.431 145.94C193.346 145.606 193.236 145.237 193.187 145.12C193.137 145.003 193.011 144.619 192.906 144.267C192.802 143.915 192.524 143.147 192.29 142.56C192.056 141.973 191.783 141.277 191.684 141.013C191.585 140.749 191.415 140.341 191.306 140.107C191.197 139.872 190.942 139.32 190.739 138.88C190.536 138.44 190.329 138.064 190.278 138.044C190.227 138.025 190.188 137.953 190.189 137.884C190.192 137.727 189.431 136.209 189.253 136.02C189.18 135.942 189.12 135.84 189.12 135.793C189.12 135.746 188.901 135.33 188.634 134.867C188.133 134 188.076 133.905 187.626 133.178C187.48 132.941 187.335 132.699 187.306 132.64C187.181 132.39 186.606 131.571 186.533 131.538C186.489 131.518 186.453 131.451 186.453 131.388C186.453 131.325 186.333 131.116 186.186 130.924C186.04 130.731 185.92 130.545 185.92 130.509C185.92 130.474 185.807 130.323 185.669 130.174C185.532 130.026 185.304 129.715 185.163 129.482C185.022 129.25 184.702 128.792 184.453 128.464C184.021 127.896 183.89 127.526 184.092 127.449C184.289 127.373 187.27 122.963 187.901 121.813C188.014 121.608 188.135 121.416 188.169 121.387C188.555 121.057 191.992 114.157 192.003 113.688C192.005 113.61 192.124 113.307 192.268 113.013C192.413 112.72 192.531 112.399 192.532 112.299C192.533 112.2 192.578 112.092 192.631 112.058C192.686 112.025 192.763 111.842 192.804 111.652C192.846 111.462 193.067 110.707 193.297 109.973C193.653 108.834 193.81 108.233 194.087 106.933C194.976 102.765 194.809 97.518 193.688 94.4C192.965 92.3884 191.778 89.991 191.314 89.607C191.222 89.5302 191.146 89.422 191.146 89.367C191.146 88.7974 187.377 85.2051 185.621 84.1017C185.252 83.87 184.82 83.5961 184.661 83.4937C184.249 83.2275 181.592 81.934 180.96 81.6921C180.666 81.5795 180.33 81.4438 180.213 81.3907C179.626 81.1238 177.144 80.4128 175.413 80.0153C173.084 79.4816 171.525 79.2736 168.09 79.04C165.119 78.8371 161.095 78.9369 156.883 79.3164C156.082 79.3888 156.057 79.3836 155.961 79.1353C155.728 78.5286 154.001 74.9939 153.345 73.7798C152.27 71.792 151.486 70.4736 151.344 70.4179C151.294 70.398 151.253 70.3193 151.253 70.2432C151.253 70.1664 150.905 69.5827 150.479 68.9452C149.698 67.776 149.559 67.5814 148.485 66.1369C147.673 65.0451 147.626 64.9849 147.182 64.4896C146.968 64.2496 146.59 63.8131 146.344 63.52C145 61.9219 142.254 59.3708 140.96 58.5184C140.725 58.3641 140.437 58.1638 140.32 58.0729C139.449 57.4028 138.821 57.0233 137.481 56.3558C135.669 55.4534 135.151 55.2256 134.506 55.0457C134.242 54.9728 133.938 54.8665 133.831 54.8096C132.744 54.2387 128.251 53.8208 125.973 54.0787ZM221.585 62.432C221.241 62.6841 220.032 63.536 218.898 64.3251C217.765 65.1142 216.392 66.0716 215.848 66.4531C215.304 66.8345 214.204 67.6025 213.404 68.16C211.693 69.3516 211.753 69.1443 212.72 70.5574C218.529 79.0419 223.993 90.7264 226.339 99.68C226.508 100.325 226.838 101.549 227.072 102.4C227.922 105.5 229.067 111.328 229.428 114.4C230.122 120.294 230.229 122.084 230.234 127.893C230.24 133.336 230.217 133.811 229.705 138.99C229.15 144.609 228.306 149.003 226.45 155.947C225.972 157.731 224.526 162.105 223.786 164.001C223.434 164.903 223.146 165.668 223.146 165.703C223.146 165.976 221.022 170.767 219.81 173.227C217.55 177.816 215.734 180.957 212.89 185.195C211.892 186.683 211.915 186.447 212.72 186.964C213.086 187.2 213.794 187.683 214.293 188.038C214.791 188.392 215.607 188.961 216.106 189.301C216.605 189.641 217.061 189.955 217.12 189.998C217.832 190.525 218.282 190.837 218.773 191.145C219.095 191.347 219.383 191.539 219.413 191.571C219.644 191.82 222.435 193.707 222.573 193.707C222.728 193.707 225.066 190.186 226.648 187.573C229.938 182.137 235.073 171.563 235.999 168.32C236.041 168.173 236.306 167.429 236.586 166.667C237.109 165.249 238.777 160.034 239.077 158.88C240.873 151.957 242.076 145.914 242.445 141.973C242.503 141.357 242.624 140.133 242.713 139.253C243.442 132.127 243.477 124.871 242.818 117.92C242.729 116.981 242.585 115.469 242.498 114.56C242.293 112.42 241.914 109.965 241.338 107.04C241.084 105.749 240.845 104.477 240.807 104.213C240.741 103.757 239.863 100.17 239.153 97.4611C238.719 95.8073 237.238 91.104 236.689 89.6377C236.451 89.0009 236.137 88.1286 235.993 87.6998C235.682 86.7744 234.209 83.1904 233.59 81.8515C233.35 81.3318 233.065 80.686 232.958 80.4166C231.514 76.798 227.132 68.958 223.587 63.6531C222.318 61.7542 222.422 61.8176 221.585 62.432ZM31.8159 64.56C29.8844 67.5052 26.3465 73.4361 26.3465 73.7273C26.3465 73.7606 26.1378 74.1651 25.8825 74.6272C24.3913 77.3267 20.8706 85.1372 20.0681 87.5257C19.949 87.8809 19.6342 88.7558 19.3686 89.47C16.9929 95.8547 14.0905 107.997 13.6009 113.6C13.5625 114.04 13.4639 115.024 13.3814 115.787C12.5673 123.32 12.4994 130.895 13.181 138.08C13.27 139.019 13.4146 140.531 13.5017 141.44C13.7046 143.562 14.0815 146.011 14.6575 148.96C14.9097 150.251 15.1785 151.643 15.254 152.053C15.3903 152.793 15.8991 154.869 16.7343 158.095C17.2425 160.059 18.6921 164.711 19.3103 166.362C19.5484 166.999 19.8626 167.873 20.0079 168.305C22.1436 174.657 27.3449 184.736 32.4124 192.347C33.6194 194.159 33.6431 194.177 34.2242 193.723C34.438 193.556 35.6687 192.683 36.9596 191.784C38.2505 190.885 39.6534 189.906 40.0777 189.608C40.502 189.31 41.5702 188.567 42.4514 187.956C44.3298 186.655 44.2486 186.904 43.2706 185.44C41.926 183.427 41.1183 182.168 40.5321 181.173C40.221 180.645 39.9087 180.141 39.839 180.053C39.7686 179.965 39.517 179.533 39.2796 179.093C39.0422 178.653 38.5884 177.837 38.2716 177.28C37.503 175.929 34.8617 170.579 34.2697 169.173C33.7353 167.904 33.0556 166.205 32.1801 163.947C31.4793 162.139 29.9785 157.585 29.6092 156.146C29.4684 155.596 29.1618 154.451 28.9282 153.6C27.4748 148.31 26.5935 142.852 25.8966 134.827C25.7135 132.717 25.7135 123.368 25.8972 121.227C26.6575 112.341 27.3378 108.397 29.5503 100.053C29.9522 98.5363 31.5612 93.6364 32.1065 92.2668C32.3279 91.7094 32.6895 90.7737 32.9084 90.1881C34.2498 86.6054 36.6108 81.6806 39.199 77.0668C39.8889 75.8368 41.3942 73.415 42.6358 71.5379C43.366 70.4326 43.9452 69.5104 43.9228 69.4873C43.8998 69.4643 43.4754 69.1724 42.9801 68.8384C41.8511 68.0761 41.1625 67.5948 39.9465 66.7174C39.4185 66.336 38.9142 65.9936 38.8265 65.9558C38.7382 65.918 38.4745 65.7363 38.2396 65.552C38.0047 65.3683 37.549 65.0528 37.2265 64.8524C36.9039 64.6515 36.6153 64.4608 36.5865 64.4294C36.3446 64.1683 33.5618 62.2931 33.4166 62.2931C33.3532 62.2931 32.6332 63.3132 31.8159 64.56ZM131.074 65.0713C131.929 65.3664 133.104 65.9776 134.122 66.656C134.351 66.8083 134.614 66.9811 134.706 67.04C134.799 67.0988 134.924 67.1974 134.984 67.2588C135.044 67.3203 135.321 67.5513 135.598 67.7715C136.704 68.6483 138.962 71.0604 140.005 72.48C140.178 72.7148 140.345 72.9305 140.377 72.96C140.598 73.1628 143.36 77.5436 143.36 77.6921C143.36 77.7318 143.486 77.9641 143.64 78.208C144.002 78.7827 145.173 81.1033 145.173 81.248C145.173 81.3088 144.969 81.408 144.72 81.4681C142.834 81.9219 141.101 82.3942 139.466 82.8998C138.704 83.1353 137.911 83.374 137.706 83.4297C137.33 83.5321 136.873 83.6844 136.48 83.8387C136.362 83.8848 136.05 83.9833 135.786 84.0582C135.046 84.2675 134.05 84.5843 133.813 84.6854C133.696 84.7353 133.168 84.9312 132.64 85.12C132.112 85.3088 131.584 85.504 131.466 85.5532C131.349 85.6025 130.88 85.7721 130.423 85.9296C129.967 86.0876 129.568 86.2579 129.537 86.3084C129.506 86.3584 129.399 86.4019 129.3 86.4038C129.201 86.4057 128.928 86.4998 128.693 86.6131C128.226 86.839 127.885 86.88 127.728 86.7302C127.672 86.6764 127.026 86.4076 126.293 86.1324C125.56 85.8566 124.768 85.559 124.533 85.4707C124.298 85.383 123.89 85.2262 123.626 85.1232C123.362 85.0201 122.978 84.8793 122.773 84.8102C121.124 84.2579 120.064 83.9129 118.826 83.5244C118.034 83.2761 117.173 83.0028 116.913 82.9171C116.652 82.832 115.98 82.6406 115.419 82.4928C112.922 81.8323 112.345 81.6844 111.914 81.5942C111.019 81.406 111.011 81.4387 112.716 78.2931C113.409 77.0163 113.541 76.8012 113.633 76.8006C113.68 76.8 113.692 76.7558 113.658 76.702C113.625 76.6476 113.673 76.528 113.766 76.4352C113.859 76.3424 113.908 76.2668 113.875 76.2668C113.842 76.2668 113.887 76.1824 113.974 76.08C114.062 75.9776 114.313 75.5993 114.533 75.2403C116.263 72.4153 119.083 69.0668 120.831 67.7619C121.049 67.5993 121.346 67.3587 121.492 67.2268C121.638 67.0944 121.814 66.9868 121.883 66.9868C121.952 66.9868 122.025 66.9427 122.044 66.8896C122.087 66.7724 123.55 65.8931 124.38 65.4854C125.252 65.0572 126.352 64.7411 127.2 64.6758C127.61 64.6438 127.956 64.6092 127.968 64.5984C128.108 64.4729 130.314 64.8089 131.074 65.0713ZM95.8927 89.6454C96.0982 89.6691 96.3561 89.6921 96.4655 89.6972C96.6038 89.7036 96.6473 89.7632 96.6076 89.8931C96.5762 89.9961 96.4476 90.416 96.3215 90.8268C96.1955 91.2371 96.029 91.8131 95.951 92.1068C95.5842 93.4867 95.2687 94.7366 95.1023 95.4668C95.0019 95.9065 94.8303 96.6265 94.7203 97.0668C94.1942 99.1724 93.5574 102.525 93.0242 105.997C92.9225 106.656 92.8188 107.216 92.7932 107.242C92.7676 107.267 92.07 107.832 91.2431 108.497C89.9932 109.503 87.8511 111.307 87.4044 111.731C87.3411 111.791 86.9167 112.174 86.4617 112.583C86.0066 112.991 85.4787 113.471 85.2886 113.65C85.0985 113.828 84.7305 114.156 84.4713 114.379C84.2121 114.602 82.9839 115.796 81.743 117.034L79.487 119.282L78.6594 118.014C77.8665 116.799 76.9065 115.226 76.9065 115.142C76.9065 115.121 76.7561 114.849 76.5731 114.538C76.39 114.227 76.0009 113.493 75.7084 112.907C75.4166 112.32 75.1343 111.768 75.0812 111.68C75.0287 111.592 74.9353 111.4 74.8738 111.253C74.8124 111.107 74.6735 110.795 74.566 110.56C74.4585 110.325 74.2396 109.773 74.0802 109.333C73.9209 108.893 73.7046 108.317 73.5996 108.053C73.43 107.626 73.1164 106.56 72.8457 105.493C72.5865 104.47 72.3299 102.328 72.3241 101.14C72.3171 99.5488 72.7759 97.296 73.229 96.6995C73.3154 96.5856 73.3865 96.4057 73.3865 96.2995C73.3865 96.1932 73.4332 96.1068 73.4902 96.1068C73.5471 96.1068 73.6738 95.9507 73.7718 95.76C74.0418 95.232 75.2994 93.76 75.4806 93.76C75.5055 93.76 75.8351 93.52 76.2127 93.2268C76.591 92.9331 76.9737 92.6931 77.0633 92.6931C77.1529 92.6931 77.2265 92.6534 77.2265 92.6041C77.2265 92.4928 79.0351 91.6268 79.2681 91.6268C79.3628 91.6268 79.4998 91.5545 79.5727 91.4668C79.6457 91.3785 79.7897 91.3068 79.8927 91.3068C79.9958 91.3068 80.2659 91.2281 80.4931 91.1328C81.4454 90.7328 84.7542 90.007 86.2889 89.863C86.6678 89.8272 87.0044 89.7817 87.0364 89.7619C87.0684 89.742 87.6226 89.6928 88.2671 89.6518C88.9122 89.6108 89.4594 89.559 89.4838 89.536C89.5369 89.4854 95.3641 89.5846 95.8927 89.6454ZM166.773 89.6428C167.594 89.6787 168.362 89.726 168.48 89.7472C168.597 89.7689 169.077 89.8201 169.546 89.8611C170.016 89.9014 170.52 89.9526 170.666 89.9737C172.351 90.2195 173.491 90.4422 174.195 90.663C174.572 90.7808 174.941 90.878 175.017 90.8787C175.091 90.8793 175.331 90.9593 175.55 91.0553C175.768 91.152 176.007 91.2441 176.082 91.2595C176.256 91.2966 177.605 91.8585 178.293 92.1811C178.586 92.3187 179.162 92.6585 179.573 92.9356C179.984 93.2128 180.44 93.5212 180.586 93.6204C180.954 93.8688 182.293 95.2147 182.293 95.335C182.293 95.3894 182.386 95.5174 182.498 95.6192C184.002 96.9798 184.416 101.602 183.408 105.768C183.136 106.896 182.585 108.589 182.127 109.707C181.417 111.44 179.972 114.369 179.418 115.2C179.359 115.288 179.132 115.672 178.913 116.053C178.379 116.983 176.986 119.117 176.866 119.192C176.812 119.226 176.271 118.742 175.664 118.119C175.056 117.496 174.181 116.619 173.72 116.173C173.258 115.725 172.558 115.048 172.165 114.667C171.772 114.285 171.027 113.589 170.509 113.12C169.484 112.19 169.459 112.169 168.625 111.467C168.063 110.994 167.144 110.187 167.04 110.076C167.01 110.045 166.842 109.909 166.666 109.774C166.321 109.51 165.557 108.878 165.167 108.533C165.034 108.416 164.819 108.248 164.689 108.16C163.673 107.472 163.578 107.294 163.371 105.707C163.352 105.56 163.28 105.104 163.21 104.693C163.141 104.283 163.032 103.635 162.968 103.253C162.904 102.872 162.825 102.514 162.793 102.458C162.76 102.402 162.72 102.21 162.702 102.031C162.676 101.761 162.564 101.112 162.508 100.907C162.5 100.877 162.458 100.637 162.414 100.373C162.246 99.3548 161.757 97.1174 161.389 95.68C161.276 95.2403 161.15 94.736 161.109 94.56C161.067 94.384 161.019 94.192 161.003 94.1331C160.986 94.0748 160.853 93.5705 160.706 93.0131C160.338 91.6134 159.941 90.2233 159.844 90C159.79 89.8758 159.812 89.8086 159.908 89.7996C159.988 89.792 160.173 89.7708 160.32 89.7516C160.466 89.7331 161.45 89.6851 162.506 89.646C163.562 89.6064 164.436 89.5667 164.448 89.5571C164.459 89.5475 164.651 89.5481 164.874 89.559C165.097 89.5692 165.952 89.607 166.773 89.6428ZM108.533 91.6268C109.12 91.7612 110.151 92.0147 110.826 92.19C111.501 92.366 112.317 92.5772 112.64 92.6598C112.962 92.743 113.322 92.8569 113.44 92.9139C113.557 92.9708 113.769 93.0393 113.912 93.0662C114.413 93.1603 114.345 93.2998 113.629 93.6473C113.232 93.8406 112.378 94.2976 111.733 94.663C111.088 95.0291 110.272 95.4892 109.92 95.6857C109.568 95.8822 109.223 96.0934 109.155 96.1548C109.086 96.2163 108.478 96.5715 107.803 96.9446C107.129 97.3171 106.484 97.7081 106.371 97.8131C105.829 98.318 105.235 98.4761 105.388 98.0742C105.445 97.9251 105.515 97.6729 105.543 97.5142C105.572 97.3561 105.673 96.9388 105.767 96.5868C105.861 96.2348 106.05 95.5148 106.187 94.9868C106.569 93.5129 106.742 92.8972 106.922 92.3654C107.014 92.0972 107.11 91.7612 107.136 91.6192C107.162 91.4764 107.187 91.3427 107.192 91.3222C107.196 91.3011 107.26 91.3062 107.333 91.3337C107.406 91.3606 107.946 91.4931 108.533 91.6268ZM149.357 91.92C149.452 92.1984 149.658 92.9068 149.815 93.4931C149.971 94.08 150.167 94.7756 150.248 95.04C150.72 96.5612 151.144 98.4531 151.015 98.4531C150.962 98.4531 150.766 98.3404 150.579 98.2028C150.393 98.0652 149.783 97.6928 149.226 97.376C148.669 97.0592 148.131 96.752 148.03 96.6931C146.966 96.0729 145.417 95.191 145.333 95.1577C145.274 95.1347 144.986 94.9625 144.693 94.7744C143.733 94.1593 142.413 93.44 142.245 93.44C141.994 93.44 142.048 93.2499 142.32 93.1744C142.566 93.1065 144 92.6841 144.853 92.4281C145.117 92.3488 145.524 92.2547 145.758 92.2188C145.991 92.183 146.229 92.1068 146.286 92.0499C146.343 91.9929 146.497 91.9468 146.629 91.9468C146.761 91.9468 147.148 91.8739 147.488 91.7843C147.828 91.6953 148.249 91.5968 148.423 91.5654C148.597 91.534 148.761 91.4873 148.787 91.4611C148.969 91.2793 149.202 91.4668 149.357 91.92ZM129.026 98.7302C129.371 98.8825 129.965 99.152 130.346 99.3292C130.727 99.5059 131.303 99.7689 131.626 99.9136C133.141 100.593 137.984 103.064 139.087 103.72C139.765 104.123 140.56 104.586 140.853 104.747C141.531 105.122 144.002 106.532 144.213 106.666C144.301 106.721 144.637 106.922 144.96 107.111C145.282 107.301 145.605 107.514 145.676 107.583C145.747 107.654 146.119 107.886 146.503 108.1C146.886 108.315 147.2 108.527 147.2 108.571C147.2 108.615 147.404 108.758 147.653 108.888C148.103 109.123 148.439 109.343 149.302 109.968C149.548 110.147 149.798 110.293 149.856 110.293C149.914 110.293 150.001 110.356 150.048 110.434C150.094 110.511 150.421 110.76 150.773 110.987C152.22 111.92 153.501 112.904 153.543 113.114C153.618 113.498 153.714 114.366 153.814 115.573C153.868 116.219 153.994 117.515 154.096 118.453C154.369 120.972 154.371 134.234 154.1 136.883C153.999 137.866 153.868 139.388 153.81 140.264C153.669 142.35 153.782 142.144 152.159 143.287C151.925 143.452 151.445 143.8 151.093 144.061C150.741 144.323 150.021 144.819 149.493 145.164C148.965 145.51 148.382 145.917 148.198 146.07C148.014 146.222 147.834 146.347 147.798 146.347C147.721 146.347 146.102 147.405 145.69 147.725C145.535 147.846 145.319 147.978 145.21 148.018C145.102 148.058 144.701 148.29 144.32 148.533C143.206 149.244 143.041 149.342 142.306 149.732C141.922 149.936 141.36 150.261 141.056 150.456C140.752 150.65 140.03 151.057 139.452 151.361C138.873 151.665 138.327 151.974 138.24 152.047C138.151 152.122 137.936 152.252 137.76 152.338C137.584 152.424 137.344 152.548 137.226 152.614C137.109 152.679 136.869 152.801 136.693 152.884C136.428 153.009 135.607 153.435 134.346 154.102C133.974 154.299 132.552 154.966 132.038 155.185C131.766 155.301 131.511 155.448 131.472 155.511C131.433 155.574 131.295 155.627 131.166 155.629C131.038 155.63 130.813 155.725 130.666 155.84C130.52 155.955 130.365 156.05 130.322 156.051C130.28 156.052 129.934 156.196 129.554 156.37C128.274 156.956 128.103 157.012 127.913 156.91C127.58 156.731 126.293 156.16 126.222 156.16C126.183 156.16 125.331 155.755 124.329 155.261C123.326 154.767 122.338 154.29 122.133 154.2C121.927 154.111 121.64 153.97 121.493 153.887C120.768 153.474 120.322 153.244 119.786 153.005C119.463 152.861 119.127 152.698 119.04 152.641C118.951 152.585 118.376 152.265 117.76 151.93C116.281 151.126 115.813 150.867 114.815 150.293C114.355 150.029 113.786 149.706 113.549 149.576C113.313 149.445 113 149.236 112.853 149.112C112.706 148.987 112.178 148.651 111.68 148.364C111.181 148.078 110.701 147.795 110.613 147.735C110.525 147.675 109.991 147.326 109.426 146.96C108.86 146.593 108.327 146.245 108.242 146.187C108.155 146.128 107.875 145.94 107.618 145.77C107.361 145.599 107.086 145.395 107.008 145.316C106.929 145.238 106.829 145.173 106.786 145.173C106.743 145.173 106.291 144.874 105.783 144.507C105.274 144.14 104.543 143.624 104.156 143.36C102.758 142.404 102.79 142.463 102.663 140.64C102.631 140.171 102.557 139.403 102.5 138.933C102.444 138.464 102.371 137.432 102.339 136.64C102.306 135.848 102.261 135.032 102.237 134.827C102.034 133.057 101.946 127.501 102.071 124.248C102.263 119.242 102.275 119.005 102.396 117.813C102.505 116.742 102.586 115.803 102.672 114.613C102.78 113.135 102.834 112.996 103.465 112.573C103.671 112.434 103.99 112.212 104.174 112.081C104.357 111.948 104.766 111.668 105.081 111.459C106.106 110.775 106.785 110.301 107.146 110.017C107.264 109.924 107.767 109.592 108.266 109.278C108.765 108.964 109.224 108.662 109.287 108.607C109.349 108.552 109.733 108.299 110.14 108.045C110.547 107.791 110.903 107.556 110.933 107.524C111.012 107.439 111.376 107.216 111.68 107.069C111.898 106.963 113.297 106.099 114.191 105.518C114.306 105.443 114.544 105.31 114.72 105.221C114.896 105.133 115.184 104.973 115.36 104.868C115.536 104.762 115.968 104.517 116.32 104.324C116.672 104.131 117.035 103.907 117.128 103.827C117.221 103.746 117.356 103.68 117.43 103.68C117.504 103.68 118.052 103.402 118.649 103.062C119.798 102.408 123.635 100.493 124.8 99.9929C125.181 99.8291 125.569 99.632 125.661 99.5545C125.754 99.4764 125.865 99.4131 125.908 99.4131C125.951 99.4131 126.379 99.2288 126.86 99.0035C128.263 98.3443 128.178 98.3552 129.026 98.7302ZM126.449 118.554C125.146 118.757 122.931 119.581 122.791 119.915C122.771 119.962 122.69 120 122.61 120C122.529 120 122.425 120.061 122.378 120.136C122.331 120.211 122.162 120.355 122.002 120.456C121.648 120.682 120.752 121.564 120.533 121.904C120.445 122.04 120.268 122.267 120.139 122.408C120.01 122.549 119.79 122.893 119.65 123.172C119.51 123.451 119.343 123.776 119.28 123.893C118.336 125.637 117.972 129.256 118.618 130.463C118.674 130.567 118.72 130.776 118.72 130.926C118.72 131.077 118.758 131.2 118.805 131.2C118.851 131.2 118.953 131.38 119.029 131.6C119.274 132.31 119.505 132.8 119.593 132.8C119.641 132.8 119.68 132.869 119.68 132.953C119.68 133.348 121.636 135.473 122.329 135.831C122.515 135.927 122.666 136.043 122.666 136.088C122.666 136.196 124.438 137.034 124.853 137.123C125.029 137.16 125.294 137.236 125.441 137.291C126.859 137.823 129.466 137.724 131.253 137.072C131.632 136.934 133.15 136.164 133.27 136.049C133.334 135.988 133.486 135.868 133.609 135.782C134.082 135.452 135.146 134.465 135.148 134.355C135.149 134.292 135.266 134.131 135.406 133.997C137.022 132.465 138.028 127.99 137.259 125.76C137.168 125.496 137.034 125.088 136.961 124.853C136.844 124.477 136.764 124.271 136.487 123.627C136.449 123.539 136.359 123.371 136.288 123.253C134.17 119.789 130.322 117.952 126.449 118.554ZM91.4665 127.725C91.4665 132.921 91.4633 132.996 91.261 132.819C90.287 131.97 86.2927 127.844 86.2927 127.688C86.2927 127.604 91.3487 122.453 91.4306 122.453C91.4505 122.453 91.4665 124.826 91.4665 127.725ZM167.946 125.333C169.847 127.255 170.133 127.558 170.133 127.652C170.133 127.769 165.112 132.828 165.054 132.77C165.022 132.739 164.987 124.381 165.011 122.563C165.013 122.41 165.643 123.004 167.946 125.333ZM84.2863 140.747C85.1151 141.522 86.5193 142.797 87.0831 143.287C87.206 143.393 87.565 143.706 87.8818 143.98C88.1986 144.255 88.5353 144.552 88.63 144.64C88.7247 144.728 88.9455 144.912 89.1209 145.049C89.2962 145.185 89.6073 145.451 89.8127 145.638C90.0182 145.826 90.4982 146.215 90.8796 146.504C91.261 146.792 91.7167 147.167 91.8927 147.336C92.0687 147.505 92.342 147.72 92.4995 147.814C92.8284 148.01 92.8534 148.086 93.0134 149.387C93.078 149.915 93.1798 150.563 93.2393 150.827C93.2988 151.091 93.4614 151.979 93.6003 152.8C94.0374 155.386 94.3036 156.618 95.35 160.907C95.8268 162.861 96.4201 165.05 96.5814 165.451C96.8834 166.202 85.9426 165.716 82.7727 164.838C78.2524 163.585 75.5004 162.05 74.1014 160C73.9209 159.736 73.741 159.496 73.7007 159.467C73.4434 159.277 72.8668 157.719 72.5762 156.427C72.1634 154.589 72.4975 150.961 73.309 148.48C73.4914 147.923 73.6495 147.416 73.661 147.354C73.6969 147.155 74.7817 144.379 74.8879 144.213C74.9442 144.125 75.0665 143.885 75.1599 143.68C75.5177 142.89 76.2947 141.38 76.4758 141.123C76.5795 140.975 76.7017 140.733 76.7465 140.587C76.7913 140.44 76.8598 140.296 76.8975 140.267C77.0038 140.184 77.6527 139.139 77.6527 139.049C77.6527 138.965 78.9014 137.046 79.3436 136.45L79.6034 136.1L81.4882 137.997C82.525 139.04 83.7846 140.277 84.2863 140.747ZM177.347 136.72C177.574 137.057 177.789 137.357 177.824 137.387C177.881 137.432 178.714 138.813 179.044 139.405C179.105 139.514 179.21 139.67 179.277 139.751C179.477 139.993 181.299 143.578 181.657 144.433C181.838 144.87 182.051 145.371 182.13 145.547C182.267 145.857 182.652 146.867 182.922 147.627C183.551 149.393 184.023 152.013 184.057 153.92C184.135 158.216 182.768 160.624 178.931 162.955C178.509 163.212 177.383 163.733 177.25 163.733C177.175 163.733 177.016 163.802 176.897 163.885C176.778 163.969 176.371 164.117 175.994 164.215C175.617 164.312 175.26 164.423 175.201 164.46C175.141 164.497 175.045 164.537 174.986 164.549C174.928 164.561 174.4 164.691 173.813 164.838C173.226 164.986 172.482 165.158 172.16 165.221C171.837 165.284 171.453 165.361 171.306 165.39C169.238 165.804 160.178 165.974 159.81 165.605C159.792 165.588 159.854 165.364 159.946 165.107C160.039 164.85 160.138 164.52 160.167 164.373C160.195 164.227 160.261 163.987 160.313 163.84C160.364 163.693 160.49 163.213 160.591 162.773C160.692 162.333 160.838 161.757 160.916 161.493C160.994 161.229 161.135 160.677 161.23 160.267C161.324 159.856 161.421 159.448 161.443 159.36C161.837 157.832 162.22 156.075 162.503 154.507C162.598 153.979 162.721 153.331 162.775 153.067C162.928 152.335 162.986 152.008 163.101 151.253C163.215 150.503 163.272 150.175 163.362 149.76C163.394 149.613 163.458 149.192 163.504 148.824C163.551 148.456 163.633 148.115 163.687 148.067C163.837 147.935 165.264 146.79 166.03 146.187C166.801 145.58 169.382 143.347 170.815 142.047C171.344 141.566 172.931 140.034 174.342 138.641C175.753 137.248 176.912 136.108 176.92 136.107C176.928 136.107 177.12 136.383 177.347 136.72ZM105.674 157.048C105.721 157.125 106.43 157.569 107.249 158.035C109.06 159.062 109.376 159.244 110.92 160.145C111.587 160.534 112.151 160.853 112.172 160.853C112.192 160.853 112.534 161.053 112.931 161.296C113.328 161.539 113.811 161.805 114.004 161.886C114.357 162.034 114.382 162.24 114.046 162.24C113.947 162.24 113.494 162.355 113.04 162.495C112.585 162.635 112.213 162.733 112.213 162.713C112.213 162.692 112.013 162.747 111.768 162.833C111.523 162.92 111.175 163.016 110.995 163.048C110.814 163.079 110.62 163.151 110.565 163.206C110.509 163.261 110.321 163.307 110.146 163.307C109.971 163.307 109.537 163.398 109.18 163.51C107.625 164.001 107.093 164.032 107.093 163.634C107.093 163.528 106.969 163.062 106.818 162.6C106.562 161.821 106.196 160.493 105.543 157.974C105.398 157.416 105.28 156.948 105.28 156.934C105.28 156.838 105.605 156.932 105.674 157.048ZM150.873 157.921C150.731 158.449 150.57 159.096 150.515 159.36C150.46 159.624 150.362 159.98 150.297 160.152C150.231 160.323 150.012 161.103 149.81 161.884C149.422 163.387 149.186 164.055 149.045 164.051C148.998 164.049 148.384 163.901 147.68 163.72C146.976 163.54 146.208 163.357 145.973 163.313C145.738 163.268 145.306 163.156 145.013 163.063C144.72 162.97 143.952 162.742 143.306 162.556C142.661 162.37 142.119 162.205 142.102 162.189C142.058 162.148 142.714 161.762 143.786 161.197C144.285 160.934 145.245 160.396 145.92 160.002C146.594 159.608 147.554 159.054 148.053 158.772C148.551 158.49 149.296 158.04 149.706 157.772C150.463 157.279 151.077 156.918 151.112 156.947C151.122 156.955 151.015 157.393 150.873 157.921ZM129.246 168.899C130.361 169.366 131.77 169.894 132.962 170.294C133.606 170.509 134.277 170.749 134.453 170.828C134.629 170.906 134.917 171.005 135.093 171.046C135.269 171.089 135.461 171.16 135.52 171.206C135.578 171.251 135.662 171.294 135.705 171.3C135.749 171.307 135.845 171.332 135.918 171.356C135.993 171.38 136.461 171.521 136.96 171.67C137.458 171.818 138.562 172.154 139.413 172.415C140.263 172.677 141.56 173.042 142.293 173.226C143.026 173.409 143.87 173.629 144.169 173.713C144.467 173.798 144.78 173.867 144.862 173.868C145.338 173.873 145.286 174.205 144.618 175.409C144.555 175.524 144.3 176.004 144.053 176.476C143.326 177.86 142.734 178.899 142.368 179.428C142.18 179.7 141.82 180.257 141.568 180.666C141.315 181.076 141.027 181.502 140.928 181.615C140.828 181.727 140.581 182.057 140.378 182.349C140.176 182.641 139.983 182.904 139.949 182.933C139.916 182.963 139.802 183.121 139.698 183.285C139.201 184.065 136.97 186.423 135.733 187.474C130.645 191.798 126.16 191.895 121.066 187.791C120.167 187.066 118.03 184.954 117.582 184.346C117.42 184.126 117.114 183.754 116.903 183.517C116.574 183.149 115.041 181.027 114.72 180.496C114.661 180.399 114.505 180.167 114.373 179.98C114.241 179.794 114.133 179.616 114.133 179.585C114.133 179.555 113.854 179.06 113.514 178.485C112.868 177.394 112.821 177.308 111.85 175.431C111.087 173.954 111.082 173.999 112 173.814C112.666 173.68 115.506 172.914 116.64 172.563C117.402 172.327 118.266 172.07 118.56 171.994C119.231 171.817 120.412 171.441 120.693 171.315C120.81 171.262 121.17 171.141 121.493 171.045C121.816 170.95 122.176 170.83 122.293 170.779C122.41 170.728 123.01 170.511 123.626 170.297C124.754 169.905 125.197 169.739 126.08 169.384C128.2 168.529 128.317 168.511 129.246 168.899ZM185.539 212.65C181.117 215.639 177.964 217.471 173.173 219.833C169.575 221.607 167.718 222.396 162.826 224.23C161.326 224.793 157.212 226.108 155.729 226.5C154.939 226.708 153.669 227.047 152.906 227.253C150.818 227.818 145.753 228.817 142.62 229.281C141.34 229.471 137.186 229.896 134.613 230.1C132.33 230.281 123.653 230.282 121.386 230.1C112.457 229.388 107.18 228.454 98.902 226.12C89.7954 223.551 79.3871 218.643 70.6921 212.816C70.0598 212.392 69.615 212.158 69.5586 212.219C69.4562 212.33 67.1401 215.646 65.3538 218.24C64.7273 219.149 63.8063 220.48 63.3071 221.197C62.8079 221.914 62.4015 222.563 62.4041 222.637C62.4131 222.939 67.9586 226.449 72.2127 228.846C77.5196 231.837 88.2351 236.523 92.198 237.587C92.4994 237.668 93.6822 238.03 94.8265 238.392C95.9702 238.755 97.1945 239.115 97.5465 239.194C97.8985 239.273 99.3378 239.632 100.746 239.992C102.153 240.353 103.713 240.719 104.212 240.806C104.711 240.893 106.2 241.176 107.52 241.435C117.247 243.342 129.97 243.825 139.893 242.665C140.362 242.61 141.298 242.515 141.973 242.453C143.649 242.3 146.307 241.882 148.8 241.38C149.943 241.151 151.299 240.89 151.811 240.801C153.161 240.567 159.143 239.037 161.013 238.447C161.893 238.169 163.117 237.789 163.733 237.603C164.349 237.418 165.405 237.06 166.08 236.81C166.754 236.559 167.763 236.193 168.321 235.997C170.953 235.073 175.959 232.856 179.893 230.873C184.633 228.483 187.686 226.7 192.266 223.649C194.376 222.243 194.245 222.393 193.834 221.842C193.646 221.592 193.049 220.747 192.506 219.966C191.964 219.185 191.187 218.081 190.78 217.513C190.374 216.945 189.884 216.24 189.692 215.947C189.5 215.653 189.285 215.347 189.215 215.267C189.144 215.186 188.743 214.61 188.322 213.987C186.656 211.514 186.985 211.672 185.539 212.65Z" fill="#8BFB0C"/>
<path fill-rule="evenodd" clip-rule="evenodd" d="M120.32 0.0681889C115.541 0.457309 113.468 0.680669 110.507 1.12547C109.48 1.27971 108.231 1.45443 107.733 1.51395C105.594 1.76931 98.0105 3.33923 95.9465 3.95363C94.4534 4.39843 93.0383 4.78307 92.6569 4.84899C92.4316 4.88803 91.2393 5.25283 90.0067 5.65987C88.7734 6.06691 87.6943 6.39971 87.6073 6.39971C87.5203 6.39971 86.7452 6.66851 85.8844 6.99747C85.0236 7.32579 83.8396 7.75587 83.2527 7.95171C82.6665 8.14819 81.6105 8.55587 80.9065 8.85731C80.2025 9.15939 79.4102 9.47363 79.1465 9.55619C78.8822 9.63875 78.5705 9.75203 78.4527 9.80771C77.4153 10.3031 75.9702 10.9514 75.3398 11.2042C74.2262 11.6515 67.9843 14.7549 66.8463 15.4269C66.3132 15.7418 65.8415 15.9997 65.7974 15.9997C65.7001 15.9997 64.5654 16.6499 63.8396 17.1216C63.5465 17.3123 63.1158 17.5479 62.8835 17.6451C62.6505 17.7418 62.4348 17.8595 62.4035 17.9063C62.3401 17.9997 61.1119 18.7562 60.2159 19.2528C59.8985 19.4288 59.4556 19.7079 59.2323 19.8723C58.6966 20.2672 55.9651 22.0707 55.4627 22.3613C55.2457 22.4867 54.6588 22.9021 54.1583 23.2842C53.6579 23.6656 53.1471 24.0106 53.0243 24.0496C52.9007 24.0887 52.7996 24.1552 52.7996 24.1975C52.7996 24.2397 52.4399 24.5315 51.9996 24.8458C51.5599 25.1607 51.1996 25.4589 51.1996 25.5088C51.1996 25.5587 51.1439 25.5997 51.0761 25.5997C50.9257 25.5997 49.8966 26.3651 49.3967 26.849C49.1971 27.0416 48.9801 27.1997 48.9148 27.1997C48.8495 27.1997 48.3887 27.5587 47.8908 27.9978C47.3935 28.4368 46.9468 28.7971 46.8988 28.7978C46.8508 28.7991 46.4668 29.1069 46.0457 29.482C45.6239 29.857 44.7036 30.6544 43.9996 31.2528C39.8678 34.7677 34.7676 39.8679 31.2527 43.9997C30.6543 44.7037 29.8569 45.624 29.4819 46.0458C29.1068 46.4669 28.799 46.8509 28.7977 46.8989C28.7971 46.9469 28.4367 47.3936 27.9977 47.8909C27.5587 48.3888 27.1996 48.8496 27.1996 48.9149C27.1996 48.9802 27.0415 49.1971 26.8489 49.3968C26.3651 49.8967 25.5996 50.9258 25.5996 51.0762C25.5996 51.144 25.5587 51.1997 25.5087 51.1997C25.4588 51.1997 25.1606 51.5594 24.8457 51.9997C24.5315 52.4394 24.2396 52.7997 24.1974 52.7997C24.1551 52.7997 24.0886 52.9008 24.0495 53.0243C24.0105 53.1472 23.6655 53.6579 23.2841 54.1584C22.902 54.6589 22.4867 55.2458 22.3612 55.4627C22.0707 55.9651 20.2671 58.6967 19.8723 59.2323C19.7078 59.4557 19.4287 59.8986 19.2527 60.216C18.7561 61.112 17.9996 62.3402 17.9062 62.4035C17.8595 62.4349 17.7417 62.6506 17.6451 62.8835C17.5478 63.1159 17.3123 63.5466 17.1215 63.8397C16.6499 64.5655 15.9996 65.7002 15.9996 65.7975C15.9996 65.8416 15.7417 66.3133 15.4268 66.8464C14.7548 67.9843 11.6515 74.2263 11.2041 75.3399C10.9513 75.9703 10.303 77.4154 9.80761 78.4528C9.75193 78.5706 9.63865 78.8823 9.55609 79.1466C9.47353 79.4103 9.15929 80.2026 8.85721 80.9066C8.55577 81.6106 8.14809 82.6666 7.95161 83.2528C7.75577 83.8397 7.32569 85.0237 6.99737 85.8845C6.66841 86.7453 6.39961 87.5203 6.39961 87.6074C6.39961 87.6944 6.06681 88.7735 5.65977 90.0067C5.25273 91.2394 4.88793 92.4317 4.84889 92.657C4.78297 93.0384 4.39833 94.4535 3.95353 95.9466C3.33977 98.008 1.77049 105.589 1.51321 107.733C1.45369 108.231 1.25977 109.623 1.08249 110.827C0.146814 117.177 0.0527344 118.744 0.0527344 128C0.0527344 137.255 0.146814 138.822 1.08249 145.173C1.25977 146.376 1.45369 147.767 1.51321 148.267C1.77049 150.411 3.33977 157.991 3.95353 160.053C4.39833 161.546 4.78297 162.961 4.84889 163.342C4.88793 163.568 5.25273 164.76 5.65977 165.993C6.06681 167.226 6.39961 168.305 6.39961 168.392C6.39961 168.479 6.66841 169.254 6.99737 170.115C7.32569 170.976 7.75577 172.16 7.95161 172.747C8.14809 173.333 8.55577 174.389 8.85721 175.093C9.15929 175.797 9.47353 176.589 9.55609 176.853C9.63865 177.117 9.75193 177.429 9.80761 177.547C10.303 178.584 10.9513 180.029 11.2041 180.66C11.6515 181.773 14.7548 188.015 15.4268 189.153C15.7417 189.686 15.9996 190.158 15.9996 190.202C15.9996 190.299 16.6499 191.434 17.1215 192.16C17.3123 192.453 17.5478 192.884 17.6451 193.116C17.7417 193.349 17.8595 193.565 17.9062 193.596C17.9996 193.659 18.7561 194.887 19.2527 195.783C19.4287 196.101 19.7078 196.544 19.8723 196.767C20.2671 197.303 22.0707 200.034 22.3612 200.537C22.4867 200.754 22.902 201.341 23.2841 201.841C23.6655 202.341 24.0105 202.852 24.0495 202.975C24.0886 203.099 24.1551 203.2 24.1974 203.2C24.2396 203.2 24.5315 203.56 24.8457 204C25.1606 204.44 25.4588 204.8 25.5087 204.8C25.5587 204.8 25.5996 204.855 25.5996 204.923C25.5996 205.074 26.3651 206.103 26.8489 206.603C27.0415 206.802 27.1996 207.019 27.1996 207.085C27.1996 207.15 27.5587 207.611 27.9977 208.109C28.4367 208.606 28.7971 209.053 28.7977 209.101C28.799 209.149 29.1068 209.533 29.4819 209.954C29.8569 210.375 30.6543 211.296 31.2527 212C34.7676 216.132 39.8678 221.232 43.9996 224.747C44.7036 225.345 45.6239 226.142 46.0457 226.517C46.4668 226.893 46.8508 227.2 46.8988 227.202C46.9468 227.202 47.3935 227.563 47.8908 228.002C48.3887 228.441 48.8495 228.8 48.9148 228.8C48.9801 228.8 49.1971 228.958 49.3967 229.15C49.8966 229.634 50.9257 230.4 51.0761 230.4C51.1439 230.4 51.1996 230.441 51.1996 230.491C51.1996 230.541 51.5593 230.839 51.9996 231.154C52.4393 231.468 52.7996 231.76 52.7996 231.802C52.7996 231.844 52.9007 231.911 53.0243 231.95C53.1471 231.989 53.6579 232.334 54.1583 232.715C54.6588 233.097 55.2457 233.513 55.4627 233.638C55.9651 233.929 58.6966 235.732 59.2323 236.127C59.4556 236.292 59.8985 236.571 60.2159 236.747C61.1119 237.243 62.3401 238 62.4035 238.093C62.4348 238.14 62.6505 238.258 62.8835 238.354C63.1158 238.452 63.5465 238.687 63.8396 238.878C64.5654 239.349 65.7001 240 65.7974 240C65.8415 240 66.3132 240.258 66.8463 240.573C67.9843 241.245 74.2262 244.348 75.3398 244.795C75.9702 245.048 77.4153 245.696 78.4527 246.192C78.5705 246.247 78.8822 246.361 79.1465 246.443C79.4102 246.526 80.2025 246.84 80.9065 247.142C81.6105 247.444 82.6665 247.851 83.2527 248.048C83.8396 248.244 85.0236 248.674 85.8844 249.002C86.7452 249.331 87.5203 249.6 87.6073 249.6C87.6943 249.6 88.7734 249.933 90.0067 250.34C91.2393 250.747 92.4316 251.111 92.6569 251.15C93.0383 251.216 94.4534 251.601 95.9465 252.046C98.0079 252.66 105.589 254.229 107.733 254.486C108.231 254.546 109.623 254.74 110.827 254.917C117.177 255.853 118.744 255.947 128 255.947C137.255 255.947 138.822 255.853 145.173 254.917C146.376 254.74 147.767 254.546 148.267 254.486C150.411 254.229 157.991 252.66 160.053 252.046C161.546 251.601 162.961 251.216 163.342 251.15C163.568 251.111 164.76 250.747 165.993 250.34C167.226 249.933 168.305 249.6 168.392 249.6C168.479 249.6 169.254 249.331 170.115 249.002C170.976 248.674 172.16 248.244 172.746 248.048C173.333 247.851 174.389 247.444 175.093 247.142C175.797 246.84 176.589 246.526 176.853 246.443C177.117 246.361 177.429 246.247 177.546 246.192C178.584 245.696 180.029 245.048 180.659 244.795C181.773 244.348 188.015 241.245 189.153 240.573C189.686 240.258 190.158 240 190.202 240C190.299 240 191.434 239.349 192.16 238.878C192.453 238.687 192.883 238.452 193.116 238.354C193.349 238.258 193.564 238.14 193.596 238.093C193.659 238 194.887 237.243 195.783 236.747C196.101 236.571 196.544 236.292 196.767 236.127C197.303 235.732 200.034 233.929 200.537 233.638C200.754 233.513 201.34 233.097 201.841 232.715C202.341 232.334 202.852 231.989 202.975 231.95C203.098 231.911 203.2 231.844 203.2 231.802C203.2 231.76 203.56 231.468 204 231.154C204.44 230.839 204.8 230.541 204.8 230.491C204.8 230.441 204.855 230.4 204.923 230.4C205.074 230.4 206.103 229.634 206.602 229.15C206.802 228.958 207.019 228.8 207.084 228.8C207.15 228.8 207.61 228.441 208.108 228.002C208.606 227.563 209.052 227.202 209.1 227.202C209.148 227.2 209.532 226.893 209.954 226.517C210.375 226.142 211.296 225.345 212 224.747C216.131 221.232 221.232 216.132 224.746 212C225.345 211.296 226.142 210.375 226.517 209.954C226.892 209.533 227.2 209.149 227.202 209.101C227.202 209.053 227.562 208.606 228.002 208.109C228.441 207.611 228.8 207.15 228.8 207.085C228.8 207.019 228.958 206.802 229.15 206.603C229.634 206.103 230.4 205.074 230.4 204.923C230.4 204.855 230.441 204.8 230.49 204.8C230.54 204.8 230.839 204.44 231.154 204C231.468 203.56 231.76 203.2 231.802 203.2C231.844 203.2 231.911 203.099 231.95 202.975C231.989 202.852 232.334 202.341 232.715 201.841C233.097 201.341 233.513 200.754 233.638 200.537C233.929 200.034 235.732 197.303 236.127 196.767C236.291 196.544 236.57 196.101 236.746 195.783C237.243 194.887 238 193.659 238.093 193.596C238.14 193.565 238.258 193.349 238.354 193.116C238.451 192.884 238.687 192.453 238.878 192.16C239.349 191.434 240 190.299 240 190.202C240 190.158 240.258 189.686 240.572 189.153C241.244 188.015 244.348 181.773 244.795 180.66C245.048 180.029 245.696 178.584 246.192 177.547C246.247 177.429 246.361 177.117 246.443 176.853C246.526 176.589 246.84 175.797 247.142 175.093C247.443 174.389 247.851 173.333 248.048 172.747C248.243 172.16 248.674 170.976 249.002 170.115C249.331 169.254 249.6 168.479 249.6 168.392C249.6 168.305 249.932 167.226 250.339 165.993C250.746 164.76 251.111 163.568 251.15 163.342C251.216 162.961 251.601 161.546 252.046 160.053C252.659 157.991 254.229 150.411 254.486 148.267C254.546 147.767 254.739 146.376 254.917 145.173C255.852 138.822 255.946 137.255 255.946 128C255.946 118.744 255.852 117.177 254.917 110.827C254.739 109.623 254.546 108.231 254.486 107.733C254.229 105.589 252.659 98.008 252.046 95.9466C251.601 94.4535 251.216 93.0384 251.15 92.657C251.111 92.4317 250.746 91.2394 250.339 90.0067C249.932 88.7735 249.6 87.6944 249.6 87.6074C249.6 87.5203 249.331 86.7453 249.002 85.8845C248.674 85.0237 248.243 83.8397 248.048 83.2528C247.851 82.6666 247.443 81.6106 247.142 80.9066C246.84 80.2026 246.526 79.4103 246.443 79.1466C246.361 78.8823 246.247 78.5706 246.192 78.4528C245.696 77.4154 245.048 75.9703 244.795 75.3399C244.348 74.2263 241.244 67.9843 240.572 66.8464C240.258 66.3133 240 65.8416 240 65.7975C240 65.7002 239.349 64.5655 238.878 63.8397C238.687 63.5466 238.451 63.1159 238.354 62.8835C238.258 62.6506 238.14 62.4349 238.093 62.4035C238 62.3402 237.243 61.112 236.746 60.216C236.57 59.8986 236.291 59.4557 236.127 59.2323C235.732 58.6967 233.929 55.9651 233.638 55.4627C233.513 55.2458 233.097 54.6589 232.715 54.1584C232.334 53.6579 231.989 53.1472 231.95 53.0243C231.911 52.9008 231.844 52.7997 231.802 52.7997C231.76 52.7997 231.468 52.44 231.154 51.9997C230.839 51.5594 230.54 51.1997 230.49 51.1997C230.441 51.1997 230.4 51.144 230.4 51.0762C230.4 50.9258 229.634 49.8967 229.15 49.3968C228.958 49.1971 228.8 48.9802 228.8 48.9149C228.8 48.8496 228.441 48.3888 228.002 47.8909C227.562 47.3936 227.202 46.9469 227.202 46.8989C227.2 46.8509 226.892 46.4669 226.517 46.0458C226.142 45.624 225.345 44.7037 224.746 43.9997C221.232 39.8679 216.131 34.7677 212 31.2528C211.296 30.6544 210.375 29.857 209.954 29.482C209.532 29.1069 209.148 28.7991 209.1 28.7978C209.052 28.7971 208.606 28.4368 208.108 27.9978C207.61 27.5587 207.15 27.1997 207.084 27.1997C207.019 27.1997 206.802 27.0416 206.602 26.849C206.103 26.3651 205.074 25.5997 204.923 25.5997C204.855 25.5997 204.8 25.5587 204.8 25.5088C204.8 25.4589 204.44 25.1607 204 24.8458C203.56 24.5315 203.2 24.2397 203.2 24.1975C203.2 24.1552 203.098 24.0887 202.975 24.0496C202.852 24.0106 202.341 23.6656 201.841 23.2842C201.34 22.9021 200.754 22.4867 200.537 22.3613C200.034 22.0707 197.303 20.2672 196.767 19.8723C196.544 19.7079 196.101 19.4288 195.783 19.2528C194.887 18.7562 193.659 17.9997 193.596 17.9063C193.564 17.8595 193.349 17.7418 193.116 17.6451C192.883 17.5479 192.453 17.3123 192.16 17.1216C191.434 16.6499 190.299 15.9997 190.202 15.9997C190.158 15.9997 189.686 15.7418 189.153 15.4269C188.015 14.7549 181.773 11.6515 180.659 11.2042C180.029 10.9514 178.584 10.3031 177.546 9.80771C177.429 9.75203 177.117 9.63875 176.853 9.55619C176.589 9.47363 175.797 9.15939 175.093 8.85731C174.389 8.55587 173.333 8.14819 172.746 7.95171C172.16 7.75587 170.976 7.32579 170.115 6.99747C169.254 6.66851 168.479 6.39971 168.392 6.39971C168.305 6.39971 167.226 6.06691 165.993 5.65987C164.76 5.25283 163.568 4.88803 163.342 4.84899C162.961 4.78307 161.546 4.39843 160.053 3.95363C157.964 3.33155 150.428 1.77443 148.213 1.50691C147.685 1.44355 146.638 1.29635 145.888 1.17987C139.646 0.215389 137.564 0.0790689 128.64 0.0528289C124.327 0.0393889 120.583 0.0470689 120.32 0.0681889ZM135.573 12.9571C136.834 13.0493 138.538 13.1971 139.36 13.2855C140.181 13.3738 141.381 13.4935 142.027 13.5517C143.991 13.7296 148.283 14.4656 152.587 15.3629C153.58 15.5703 157.217 16.4752 159.04 16.9693C168.046 19.4103 178.325 23.8487 187.146 29.105C190.197 30.9226 193.59 33.1683 193.596 33.3731C193.598 33.4544 193.16 34.1501 192.622 34.92C192.085 35.6899 191.445 36.6077 191.2 36.9597C190.046 38.6237 188.494 40.8688 188.057 41.5075C186.978 43.0851 186.422 43.8397 186.338 43.8397C186.289 43.8397 185.827 43.5498 185.311 43.1959C184.123 42.3811 182.227 41.1543 181.51 40.737C181.207 40.561 180.654 40.2263 180.281 39.9939C179.907 39.7616 179.307 39.409 178.947 39.2106C178.587 39.0122 177.765 38.5559 177.12 38.1955C175.558 37.3239 170.538 34.84 169.333 34.3421C159.891 30.4419 153.434 28.5379 144.587 27.0455C141.721 26.5616 139.023 26.2512 134.613 25.8986C132.389 25.7207 123.566 25.7207 121.387 25.8992C112.395 26.6339 107.453 27.505 99.1465 29.8199C97.5971 30.2519 94.063 31.4359 92.1065 32.1789C87.8191 33.8064 86.0355 34.5751 82.6665 36.2474C80.1724 37.4845 79.2515 37.9709 77.0665 39.2023C75.8211 39.9043 73.0851 41.6119 71.2188 42.8522C70.1142 43.5863 69.1753 44.145 69.1324 44.0931C68.9462 43.8698 68.4547 43.1722 67.7142 42.0797C66.7599 40.6723 66.1961 39.8608 65.2163 38.4867C64.8111 37.9184 64.0399 36.8144 63.503 36.0336C62.9654 35.2522 62.3779 34.4266 62.1961 34.1981C61.7494 33.6368 61.6873 33.7239 63.3327 32.6179C68.5673 29.1018 77.3635 24.1674 80.3196 23.089C80.5251 23.0141 81.151 22.737 81.7103 22.4727C85.3577 20.7511 93.2259 17.9235 97.1727 16.9143C97.7302 16.7722 99.3142 16.3664 100.693 16.0138C102.071 15.6605 103.751 15.2739 104.427 15.1549C105.101 15.0359 106.349 14.7939 107.2 14.6186C109.214 14.2019 112.492 13.6861 113.973 13.5517C114.618 13.4928 116.082 13.3501 117.227 13.2343C118.37 13.1184 120.218 12.9719 121.333 12.9091C122.448 12.8458 123.648 12.7767 124 12.7562C125.545 12.664 133.45 12.801 135.573 12.9571ZM132.178 54.3843C132.979 54.5616 133.723 54.753 133.831 54.8093C133.938 54.8663 134.242 54.9725 134.507 55.0455C135.151 55.2253 135.669 55.4531 137.481 56.3555C138.821 57.0231 139.449 57.4026 140.32 58.0727C140.437 58.1635 140.725 58.3639 140.96 58.5181C142.254 59.3706 145 61.9216 146.344 63.5197C146.59 63.8128 146.968 64.2493 147.182 64.4893C147.626 64.9847 147.673 65.0448 148.485 66.1367C149.559 67.5811 149.698 67.7757 150.479 68.945C150.905 69.5824 151.253 70.1661 151.253 70.2429C151.253 70.3191 151.294 70.3978 151.344 70.4176C151.486 70.4733 152.27 71.7917 153.345 73.7795C154.001 74.9936 155.728 78.5283 155.961 79.1351C156.057 79.3834 156.082 79.3885 156.883 79.3162C164.345 78.6435 170.434 78.8733 175.413 80.0151C177.144 80.4125 179.626 81.1235 180.213 81.3904C180.33 81.4435 180.666 81.5792 180.96 81.6919C181.592 81.9338 184.249 83.2272 184.661 83.4935C184.82 83.5959 185.252 83.8698 185.621 84.1015C187.377 85.2048 191.146 88.7971 191.146 89.3667C191.146 89.4218 191.222 89.5299 191.314 89.6067C191.778 89.9907 192.965 92.3882 193.688 94.3997C194.809 97.5178 194.976 102.765 194.087 106.933C193.81 108.233 193.653 108.834 193.297 109.973C193.067 110.706 192.846 111.462 192.804 111.652C192.763 111.842 192.686 112.025 192.631 112.058C192.578 112.092 192.533 112.2 192.532 112.299C192.531 112.398 192.413 112.72 192.268 113.013C192.124 113.307 192.005 113.61 192.003 113.688C191.992 114.157 188.555 121.057 188.169 121.387C188.135 121.416 188.014 121.607 187.901 121.813C187.27 122.963 184.289 127.373 184.092 127.449C183.89 127.526 184.021 127.895 184.453 128.464C184.702 128.791 185.022 129.25 185.163 129.482C185.304 129.714 185.532 130.026 185.669 130.174C185.807 130.322 185.92 130.473 185.92 130.509C185.92 130.544 186.04 130.731 186.186 130.924C186.333 131.116 186.453 131.325 186.453 131.388C186.453 131.451 186.489 131.518 186.533 131.538C186.606 131.57 187.181 132.389 187.306 132.64C187.335 132.699 187.48 132.941 187.626 133.177C188.076 133.904 188.133 134 188.634 134.867C188.901 135.33 189.12 135.746 189.12 135.793C189.12 135.84 189.18 135.941 189.253 136.02C189.431 136.209 190.192 137.726 190.189 137.884C190.188 137.952 190.227 138.025 190.278 138.044C190.329 138.064 190.536 138.44 190.739 138.88C190.942 139.32 191.197 139.872 191.306 140.107C191.415 140.341 191.585 140.749 191.684 141.013C191.783 141.277 192.056 141.973 192.29 142.56C192.524 143.147 192.802 143.915 192.906 144.267C193.011 144.619 193.137 145.003 193.187 145.12C193.236 145.237 193.346 145.606 193.431 145.94C193.515 146.273 193.657 146.801 193.746 147.113C194.652 150.288 194.891 155.739 194.251 158.613C193.866 160.343 193.594 161.241 193.138 162.293C192.762 163.158 191.892 164.816 191.726 164.981C191.642 165.066 191.573 165.184 191.573 165.244C191.573 166.004 187.143 170.462 185.733 171.122C185.601 171.184 185.493 171.274 185.493 171.323C185.493 171.373 185.436 171.413 185.368 171.413C185.299 171.413 185.168 171.479 185.075 171.559C184.647 171.931 181.434 173.547 181.122 173.547C181.029 173.547 180.858 173.613 180.743 173.694C180.627 173.776 180.364 173.892 180.159 173.952C179.954 174.013 179.354 174.217 178.826 174.405C177.577 174.853 176.062 175.238 174.88 175.41C174.586 175.453 174.27 175.528 174.176 175.579C174.083 175.629 173.723 175.697 173.376 175.732C173.03 175.766 172.506 175.838 172.213 175.892C171.92 175.947 171.44 176.014 171.146 176.043C170.853 176.073 170.277 176.144 169.866 176.203C168.053 176.463 160.206 176.439 158.347 176.168C158.171 176.142 157.762 176.091 157.44 176.053C157.117 176.016 156.677 175.961 156.463 175.931C156.124 175.884 156.062 175.909 155.997 176.125C155.955 176.261 155.567 177.097 155.134 177.982C154.7 178.866 154.347 179.623 154.347 179.664C154.347 179.704 154.222 179.933 154.071 180.173C153.92 180.413 153.781 180.69 153.762 180.79C153.742 180.891 153.506 181.335 153.236 181.78C152.967 182.224 152.747 182.614 152.747 182.647C152.747 182.784 150.661 186.212 150.495 186.347C150.459 186.375 150.346 186.563 150.243 186.763C150.14 186.963 150.014 187.179 149.961 187.243C149.6 187.678 149.227 188.202 149.227 188.272C149.227 188.318 149.036 188.563 148.802 188.817C148.569 189.072 148.377 189.307 148.376 189.341C148.371 189.443 147.549 190.512 147.122 190.97C146.901 191.209 146.584 191.573 146.418 191.781C145.72 192.656 143.364 194.974 142.457 195.68C142.231 195.856 141.843 196.167 141.596 196.373C139.091 198.452 135.345 200.32 132.517 200.898C132.057 200.993 131.463 201.118 131.198 201.178C129.194 201.629 125.508 201.41 123.093 200.697C122.77 200.602 122.325 200.478 122.103 200.421C121.881 200.364 121.617 200.276 121.516 200.224C121.415 200.174 121.021 199.998 120.64 199.833C118.705 198.997 118.003 198.609 116.053 197.298C115.638 197.019 113.753 195.573 113.598 195.415C113.568 195.385 113.141 194.976 112.649 194.507C111.541 193.449 110.028 191.874 109.576 191.307C109.389 191.072 108.982 190.562 108.671 190.173C108.361 189.785 108.01 189.332 107.893 189.166C107.776 189.001 107.51 188.647 107.303 188.38C107.095 188.112 106.597 187.389 106.194 186.773C105.791 186.157 105.338 185.468 105.187 185.241C105.037 185.015 104.864 184.741 104.803 184.635C104.743 184.528 104.528 184.161 104.327 183.82C103.715 182.781 103.367 182.158 103.086 181.6C102.939 181.307 102.741 180.923 102.645 180.747C102.342 180.187 102.308 180.121 101.938 179.36C101.45 178.36 100.982 177.358 100.654 176.613C100.506 176.276 100.316 176 100.233 176C100.149 176 99.366 176.082 98.4937 176.183C96.2179 176.445 87.6527 176.446 85.9196 176.185C82.9558 175.737 81.4799 175.481 80.5327 175.249C77.9081 174.606 77.0851 174.338 74.8265 173.392C73.6188 172.886 70.9628 171.492 70.7727 171.265C70.7145 171.195 70.4796 171.024 70.2518 170.884C66.7452 168.742 63.2783 163.831 62.3427 159.68C61.4537 155.735 61.5459 151.455 62.6102 147.307C63.1254 145.296 63.6451 143.557 63.9254 142.907C64.0073 142.716 64.1846 142.272 64.319 141.92C65.007 140.121 66.7734 136.443 67.5721 135.147C67.6982 134.941 67.8313 134.693 67.8665 134.597C67.9023 134.5 68.2371 133.948 68.6108 133.37C68.9846 132.793 69.3839 132.164 69.4985 131.974C69.7993 131.475 70.9615 129.769 71.0441 129.707C71.0825 129.677 71.1772 129.534 71.2547 129.387C71.3315 129.241 71.6329 128.794 71.9247 128.393C72.4931 127.611 72.4988 127.517 72.0092 126.956C71.9158 126.849 71.7916 126.685 71.7327 126.591C71.6745 126.498 71.2425 125.878 70.7727 125.214C70.3036 124.551 69.8287 123.838 69.718 123.63C69.6073 123.423 69.4863 123.229 69.4492 123.2C69.366 123.134 68.6127 121.947 68.1993 121.229C68.031 120.937 67.8358 120.601 67.766 120.482C66.8707 118.96 64.5327 114.183 64.5327 113.874C64.5327 113.806 64.4425 113.573 64.3318 113.357C63.9657 112.64 63.1196 110.046 62.7747 108.587C62.6844 108.205 62.5615 107.741 62.5014 107.555C62.4412 107.369 62.3203 106.769 62.2319 106.222C62.1443 105.674 62.0483 105.106 62.0195 104.96C61.6963 103.316 61.7027 99.2823 62.0316 97.4928C62.0585 97.3463 62.1097 97.0346 62.1449 96.7997C62.1801 96.5648 62.3299 95.9683 62.4764 95.4743C62.6236 94.9795 62.7542 94.5239 62.7663 94.4611C62.7785 94.3978 62.8707 94.1571 62.9705 93.9261C63.0703 93.6944 63.1817 93.3827 63.2169 93.2323C63.3129 92.8285 63.5305 92.3927 64.4732 90.7114C64.7721 90.1783 65.1356 89.5971 65.2815 89.4192C65.4275 89.2413 65.6182 88.9872 65.7065 88.8541C66.2646 88.0099 68.0598 86.1936 69.2931 85.2266C69.9267 84.7293 70.7081 84.1693 70.9871 84.0125C71.1625 83.9133 71.5702 83.6669 71.8927 83.4647C72.422 83.1331 73.3167 82.6755 74.1865 82.2915C74.3625 82.2141 74.8335 82.0023 75.2335 81.8218C75.6335 81.6407 76.0201 81.4928 76.0924 81.4928C76.1647 81.4928 76.2691 81.4519 76.3247 81.4013C76.3804 81.3501 77.0262 81.1299 77.7596 80.9117C78.4931 80.6935 79.2131 80.4707 79.3596 80.4176C79.8812 80.2282 84.1513 79.4346 85.2796 79.3175C85.6316 79.281 86.0873 79.2317 86.2927 79.208C89.3398 78.856 96.2806 78.9578 100.015 79.409C100.345 79.4487 100.356 79.4352 100.801 78.4176C101.049 77.8506 101.318 77.3104 101.399 77.2183C101.48 77.1255 101.546 76.9815 101.547 76.8983C101.548 76.7619 101.803 76.2314 102.774 74.3466C102.94 74.0234 103.269 73.4301 103.504 73.0269C103.74 72.6237 104.008 72.1571 104.099 71.9907C105.164 70.0586 106.172 68.5207 107.937 66.1328C109.514 63.9997 111.82 61.5101 113.653 59.9632C114.181 59.5171 114.637 59.1248 114.667 59.0909C114.752 58.9923 117.009 57.3866 117.062 57.3866C117.088 57.3866 117.291 57.2631 117.513 57.1127C118.494 56.4477 120.761 55.4269 122.72 54.7696C125.295 53.905 129.276 53.7431 132.178 54.3843ZM223.587 63.6528C227.132 68.9578 231.514 76.7978 232.958 80.4163C233.065 80.6858 233.35 81.3315 233.59 81.8512C234.209 83.1901 235.682 86.7741 235.993 87.6995C236.137 88.1283 236.451 89.0007 236.689 89.6375C237.238 91.1037 238.719 95.8071 239.153 97.4608C239.863 100.169 240.741 103.756 240.807 104.213C240.845 104.477 241.084 105.749 241.338 107.04C241.914 109.965 242.293 112.42 242.498 114.56C242.585 115.469 242.729 116.981 242.818 117.92C243.477 124.871 243.442 132.127 242.713 139.253C242.624 140.133 242.503 141.357 242.445 141.973C242.076 145.914 240.873 151.957 239.077 158.88C238.777 160.034 237.109 165.249 236.586 166.667C236.306 167.429 236.041 168.173 235.999 168.32C235.073 171.563 229.938 182.137 226.648 187.573C225.066 190.186 222.728 193.707 222.573 193.707C222.435 193.707 219.644 191.82 219.413 191.57C219.383 191.539 219.095 191.347 218.773 191.145C218.282 190.837 217.832 190.525 217.12 189.998C217.061 189.955 216.605 189.641 216.106 189.301C215.607 188.96 214.791 188.392 214.293 188.037C213.794 187.682 213.086 187.2 212.72 186.964C211.915 186.447 211.892 186.683 212.89 185.195C215.734 180.957 217.55 177.815 219.81 173.227C221.022 170.767 223.146 165.975 223.146 165.703C223.146 165.668 223.434 164.903 223.786 164.001C224.526 162.105 225.972 157.731 226.45 155.947C228.306 149.003 229.15 144.608 229.705 138.99C230.217 133.81 230.24 133.335 230.234 127.893C230.229 122.084 230.122 120.294 229.428 114.4C229.067 111.328 227.922 105.5 227.072 102.4C226.838 101.549 226.508 100.325 226.339 99.6797C223.993 90.7261 218.529 79.0416 212.72 70.5571C211.753 69.144 211.693 69.3514 213.404 68.1597C214.204 67.6023 215.304 66.8343 215.848 66.4528C216.392 66.0714 217.765 65.1139 218.898 64.3248C220.032 63.5357 221.241 62.6839 221.585 62.4317C222.422 61.8173 222.318 61.7539 223.587 63.6528ZM34.2851 62.7991C35.1151 63.3559 36.502 64.3383 36.5865 64.4291C36.6153 64.4605 36.9039 64.6512 37.2265 64.8522C37.5491 65.0525 38.0047 65.368 38.2396 65.5517C38.4745 65.736 38.7382 65.9178 38.8265 65.9555C38.9142 65.9933 39.4185 66.3357 39.9465 66.7171C41.1625 67.5946 41.8511 68.0759 42.9801 68.8381C43.4755 69.1722 43.8998 69.464 43.9228 69.4871C43.9452 69.5101 43.366 70.4323 42.6358 71.5376C41.3942 73.4147 39.8889 75.8365 39.199 77.0666C36.6108 81.6803 34.2499 86.6051 32.9084 90.1879C32.6895 90.7735 32.3279 91.7091 32.1065 92.2666C31.5612 93.6362 29.9523 98.536 29.5503 100.053C27.3379 108.397 26.6575 112.341 25.8972 121.227C25.7135 123.367 25.7135 132.717 25.8966 134.827C26.5935 142.852 27.4748 148.31 28.9283 153.6C29.1619 154.45 29.4684 155.596 29.6092 156.146C29.9785 157.585 31.4793 162.139 32.1801 163.947C33.0556 166.205 33.7353 167.904 34.2697 169.173C34.8617 170.578 37.503 175.929 38.2716 177.28C38.5884 177.837 39.0422 178.653 39.2796 179.093C39.5171 179.533 39.7686 179.965 39.839 180.053C39.9087 180.141 40.2211 180.645 40.5321 181.173C41.1183 182.168 41.926 183.426 43.2707 185.44C44.2486 186.904 44.3299 186.654 42.4515 187.956C41.5702 188.567 40.502 189.31 40.0777 189.607C39.6534 189.906 38.2505 190.885 36.9596 191.784C35.6687 192.683 34.438 193.556 34.2243 193.723C33.6431 194.176 33.6195 194.158 32.4124 192.347C27.3449 184.736 22.1436 174.656 20.0079 168.305C19.8627 167.873 19.5484 166.999 19.3103 166.362C18.6921 164.711 17.2425 160.059 16.7343 158.095C15.8991 154.869 15.3903 152.793 15.254 152.053C15.1785 151.643 14.9097 150.251 14.6575 148.96C14.0815 146.011 13.7046 143.562 13.5017 141.44C13.4147 140.53 13.27 139.019 13.1811 138.08C12.4995 130.894 12.5673 123.32 13.3814 115.787C13.4639 115.024 13.5625 114.04 13.6009 113.6C14.0905 107.997 16.9929 95.8544 19.3686 89.4698C19.6342 88.7555 19.9491 87.8807 20.0681 87.5255C20.8707 85.137 24.3913 77.3264 25.8825 74.6269C26.1379 74.1648 26.3465 73.7603 26.3465 73.7271C26.3465 73.2304 33.1094 62.2928 33.4166 62.2928C33.4793 62.2928 33.8703 62.5207 34.2851 62.7991ZM127.968 64.5981C127.956 64.609 127.61 64.6435 127.2 64.6755C126.352 64.7408 125.252 65.057 124.38 65.4851C123.55 65.8928 122.087 66.7722 122.044 66.8893C122.025 66.9424 121.952 66.9866 121.883 66.9866C121.814 66.9866 121.638 67.0941 121.492 67.2266C121.346 67.3584 121.049 67.5991 120.831 67.7616C119.083 69.0666 116.263 72.4151 114.533 75.24C114.313 75.5991 114.062 75.9773 113.974 76.0797C113.887 76.1821 113.842 76.2666 113.875 76.2666C113.908 76.2666 113.859 76.3421 113.766 76.4349C113.673 76.5277 113.625 76.6474 113.658 76.7018C113.692 76.7555 113.68 76.7997 113.633 76.8003C113.541 76.801 113.409 77.016 112.716 78.2928C111.011 81.4384 111.019 81.4058 111.914 81.5939C112.345 81.6842 112.922 81.832 115.419 82.4925C115.98 82.6403 116.652 82.8317 116.913 82.9168C117.173 83.0026 118.034 83.2759 118.827 83.5242C120.064 83.9127 121.124 84.2576 122.773 84.8099C122.978 84.8791 123.362 85.0199 123.627 85.1229C123.89 85.2259 124.298 85.3827 124.533 85.4704C124.768 85.5587 125.56 85.8563 126.293 86.1322C127.026 86.4074 127.672 86.6762 127.728 86.7299C127.885 86.8797 128.226 86.8387 128.693 86.6128C128.928 86.4995 129.201 86.4055 129.3 86.4035C129.399 86.4016 129.506 86.3581 129.537 86.3082C129.568 86.2576 129.967 86.0874 130.423 85.9293C130.88 85.7719 131.349 85.6023 131.467 85.553C131.584 85.5037 132.112 85.3085 132.64 85.1197C133.168 84.9309 133.696 84.7351 133.813 84.6851C134.05 84.584 135.046 84.2672 135.787 84.0579C136.05 83.9831 136.362 83.8845 136.48 83.8384C136.873 83.6842 137.33 83.5319 137.707 83.4295C137.911 83.3738 138.704 83.1351 139.467 82.8995C141.101 82.3939 142.834 81.9216 144.72 81.4679C144.969 81.4077 145.173 81.3085 145.173 81.2477C145.173 81.1031 144.002 78.7824 143.64 78.2077C143.486 77.9639 143.36 77.7315 143.36 77.6919C143.36 77.5434 140.598 73.1626 140.377 72.9597C140.345 72.9303 140.178 72.7146 140.005 72.4797C138.962 71.0602 136.704 68.648 135.598 67.7712C135.321 67.5511 135.044 67.32 134.984 67.2586C134.924 67.1971 134.799 67.0986 134.706 67.0397C134.614 66.9808 134.351 66.808 134.122 66.6557C132.226 65.393 130.713 64.7965 129.068 64.6647C128.475 64.6173 127.98 64.5872 127.968 64.5981ZM89.4838 89.5357C89.4595 89.5587 88.9123 89.6106 88.2671 89.6515C87.6227 89.6925 87.0684 89.7418 87.0364 89.7616C87.0044 89.7815 86.6678 89.8269 86.2889 89.8627C84.7542 90.0067 81.4454 90.7325 80.4931 91.1325C80.2659 91.2279 79.9958 91.3066 79.8927 91.3066C79.7897 91.3066 79.6457 91.3783 79.5727 91.4666C79.4998 91.5543 79.3628 91.6266 79.2681 91.6266C79.0351 91.6266 77.2265 92.4925 77.2265 92.6039C77.2265 92.6531 77.1529 92.6928 77.0633 92.6928C76.9737 92.6928 76.591 92.9328 76.2127 93.2266C75.8351 93.5197 75.5055 93.7597 75.4806 93.7597C75.2995 93.7597 74.0419 95.2317 73.7718 95.7597C73.6739 95.9504 73.5471 96.1066 73.4902 96.1066C73.4332 96.1066 73.3865 96.193 73.3865 96.2992C73.3865 96.4055 73.3155 96.5853 73.2291 96.6992C72.7759 97.2957 72.3171 99.5485 72.3241 101.14C72.3299 102.328 72.5865 104.469 72.8457 105.493C73.1164 106.56 73.43 107.625 73.5996 108.053C73.7046 108.317 73.9209 108.893 74.0803 109.333C74.2396 109.773 74.4585 110.325 74.566 110.56C74.6735 110.795 74.8124 111.106 74.8739 111.253C74.9353 111.4 75.0287 111.591 75.0812 111.68C75.1343 111.767 75.4166 112.32 75.7084 112.907C76.0009 113.493 76.39 114.227 76.5731 114.538C76.7561 114.848 76.9065 115.12 76.9065 115.142C76.9065 115.226 77.8665 116.798 78.6595 118.014L79.487 119.282L81.743 117.033C82.9839 115.796 84.2121 114.602 84.4713 114.379C84.7305 114.156 85.0985 113.828 85.2886 113.65C85.4787 113.471 86.0067 112.991 86.4617 112.583C86.9167 112.174 87.3411 111.79 87.4044 111.731C87.8511 111.307 89.9932 109.503 91.2431 108.497C92.07 107.832 92.7676 107.267 92.7932 107.241C92.8188 107.216 92.9225 106.656 93.0243 105.997C93.5574 102.525 94.1942 99.1722 94.7203 97.0666C94.8303 96.6263 95.0019 95.9063 95.1023 95.4666C95.2687 94.7363 95.5843 93.4864 95.951 92.1066C96.0291 91.8128 96.1955 91.2368 96.3215 90.8266C96.4476 90.4157 96.5763 89.9959 96.6076 89.8928C96.6473 89.7629 96.6038 89.7034 96.4655 89.697C96.3561 89.6919 96.0982 89.6688 95.8927 89.6451C95.3641 89.5843 89.5369 89.4851 89.4838 89.5357ZM164.448 89.5568C164.436 89.5664 163.563 89.6061 162.507 89.6458C161.451 89.6848 160.466 89.7328 160.32 89.7514C160.173 89.7706 159.988 89.7917 159.908 89.7994C159.812 89.8083 159.79 89.8755 159.844 89.9997C159.941 90.2231 160.338 91.6131 160.706 93.0128C160.853 93.5703 160.986 94.0746 161.003 94.1328C161.019 94.1917 161.067 94.3837 161.109 94.5597C161.15 94.7357 161.276 95.24 161.389 95.6797C161.757 97.1171 162.246 99.3546 162.414 100.373C162.458 100.637 162.5 100.877 162.508 100.907C162.564 101.111 162.676 101.761 162.702 102.031C162.72 102.21 162.76 102.402 162.793 102.458C162.825 102.514 162.904 102.871 162.968 103.253C163.032 103.634 163.141 104.283 163.21 104.693C163.28 105.104 163.352 105.56 163.371 105.707C163.578 107.294 163.673 107.472 164.689 108.16C164.819 108.247 165.034 108.416 165.167 108.533C165.557 108.878 166.321 109.509 166.666 109.774C166.842 109.909 167.01 110.045 167.04 110.076C167.144 110.187 168.063 110.994 168.625 111.467C169.459 112.169 169.484 112.19 170.509 113.12C171.027 113.589 171.772 114.285 172.165 114.667C172.558 115.047 173.258 115.725 173.72 116.173C174.181 116.619 175.056 117.495 175.664 118.119C176.271 118.742 176.812 119.225 176.866 119.192C176.986 119.117 178.379 116.983 178.913 116.053C179.132 115.671 179.359 115.287 179.418 115.2C179.972 114.369 181.417 111.44 182.127 109.707C182.585 108.589 183.136 106.896 183.408 105.768C184.416 101.602 184.002 96.9795 182.498 95.6189C182.386 95.5171 182.293 95.3891 182.293 95.3347C182.293 95.2144 180.954 93.8685 180.586 93.6202C178.666 92.321 178.579 92.2723 176.988 91.6093C176.564 91.4327 176.156 91.2752 176.082 91.2592C176.007 91.2439 175.768 91.1517 175.55 91.0551C175.331 90.9591 175.091 90.8791 175.017 90.8784C174.941 90.8778 174.572 90.7805 174.195 90.6627C173.491 90.4419 172.351 90.2192 170.666 89.9735C170.52 89.9523 170.016 89.9011 169.546 89.8608C169.077 89.8199 168.597 89.7687 168.48 89.7469C168.362 89.7258 167.594 89.6784 166.773 89.6426C165.952 89.6067 165.097 89.569 164.874 89.5587C164.651 89.5479 164.459 89.5472 164.448 89.5568ZM107.192 91.3219C107.187 91.3424 107.162 91.4762 107.136 91.6189C107.11 91.761 107.014 92.097 106.922 92.3651C106.742 92.897 106.569 93.5127 106.187 94.9866C106.05 95.5146 105.861 96.2346 105.767 96.5866C105.673 96.9386 105.572 97.3559 105.543 97.5139C105.515 97.6727 105.445 97.9248 105.388 98.0739C105.235 98.4759 105.829 98.3178 106.371 97.8128C106.484 97.7079 107.129 97.3168 107.803 96.9443C108.478 96.5712 109.086 96.216 109.155 96.1546C109.223 96.0931 109.568 95.8819 109.92 95.6855C110.272 95.489 111.088 95.0288 111.733 94.6627C112.378 94.2973 113.232 93.8403 113.629 93.6471C114.345 93.2995 114.413 93.16 113.912 93.0659C113.769 93.0391 113.557 92.9706 113.44 92.9136C113.322 92.8567 112.962 92.7427 112.64 92.6595C112.317 92.577 111.501 92.3658 110.827 92.1898C110.151 92.0144 109.12 91.761 108.533 91.6266C107.946 91.4928 107.406 91.3603 107.333 91.3335C107.26 91.3059 107.196 91.3008 107.192 91.3219ZM148.787 91.4608C148.761 91.4871 148.597 91.5338 148.423 91.5651C148.249 91.5965 147.828 91.6951 147.488 91.784C147.148 91.8736 146.761 91.9466 146.629 91.9466C146.497 91.9466 146.343 91.9927 146.286 92.0496C146.229 92.1066 145.991 92.1827 145.758 92.2186C145.524 92.2544 145.117 92.3485 144.853 92.4279C144 92.6839 142.566 93.1063 142.32 93.1741C142.048 93.2496 141.994 93.4397 142.245 93.4397C142.413 93.4397 143.733 94.1591 144.693 94.7741C144.986 94.9623 145.274 95.1344 145.333 95.1575C145.417 95.1907 146.966 96.0727 148.03 96.6928C148.131 96.7517 148.669 97.0589 149.227 97.3757C149.783 97.6925 150.393 98.065 150.579 98.2026C150.766 98.3402 150.962 98.4528 151.015 98.4528C151.144 98.4528 150.72 96.561 150.248 95.0397C150.167 94.7754 149.971 94.0797 149.815 93.4928C149.299 91.5594 149.094 91.1543 148.787 91.4608ZM127.893 98.5315C127.805 98.5655 127.34 98.7773 126.86 99.0032C126.379 99.2285 125.951 99.4128 125.908 99.4128C125.865 99.4128 125.754 99.4762 125.661 99.5543C125.569 99.6317 125.181 99.8288 124.8 99.9927C123.635 100.493 119.798 102.407 118.649 103.062C118.052 103.402 117.504 103.68 117.43 103.68C117.356 103.68 117.221 103.746 117.128 103.826C117.035 103.906 116.672 104.13 116.32 104.324C115.968 104.517 115.536 104.761 115.36 104.868C115.184 104.973 114.896 105.133 114.72 105.221C114.544 105.31 114.306 105.443 114.191 105.518C113.297 106.099 111.898 106.962 111.68 107.069C111.376 107.216 111.012 107.438 110.933 107.524C110.903 107.556 110.547 107.79 110.14 108.045C109.733 108.299 109.349 108.552 109.287 108.607C109.224 108.662 108.765 108.964 108.267 109.278C107.767 109.591 107.264 109.924 107.147 110.016C106.785 110.301 106.106 110.775 105.081 111.458C104.766 111.668 104.357 111.948 104.174 112.08C103.99 112.212 103.671 112.434 103.465 112.573C102.834 112.996 102.78 113.134 102.672 114.613C102.586 115.803 102.505 116.742 102.396 117.813C102.275 119.004 102.263 119.241 102.071 124.247C101.946 127.501 102.034 133.056 102.237 134.827C102.261 135.031 102.306 135.847 102.339 136.64C102.371 137.431 102.444 138.464 102.5 138.933C102.557 139.403 102.631 140.171 102.663 140.64C102.79 142.463 102.758 142.404 104.156 143.36C104.543 143.623 105.274 144.14 105.783 144.507C106.291 144.873 106.743 145.173 106.786 145.173C106.829 145.173 106.929 145.237 107.008 145.316C107.086 145.395 107.361 145.599 107.618 145.77C107.875 145.94 108.155 146.128 108.242 146.187C108.327 146.245 108.86 146.593 109.426 146.96C109.991 147.326 110.525 147.675 110.613 147.735C110.701 147.795 111.181 148.078 111.68 148.364C112.178 148.651 112.706 148.987 112.853 149.111C113 149.236 113.313 149.445 113.549 149.575C113.786 149.706 114.355 150.029 114.815 150.293C115.813 150.866 116.281 151.126 117.76 151.93C118.376 152.265 118.951 152.585 119.04 152.641C119.127 152.697 119.463 152.861 119.787 153.005C120.322 153.244 120.768 153.474 121.493 153.886C121.64 153.97 121.927 154.111 122.133 154.2C122.338 154.29 123.326 154.767 124.329 155.261C125.331 155.755 126.183 156.16 126.222 156.16C126.293 156.16 127.58 156.731 127.913 156.91C128.103 157.012 128.274 156.956 129.554 156.37C129.934 156.196 130.28 156.052 130.322 156.051C130.365 156.05 130.52 155.954 130.667 155.84C130.813 155.725 131.038 155.63 131.166 155.629C131.295 155.627 131.433 155.574 131.472 155.511C131.511 155.447 131.766 155.301 132.038 155.184C132.552 154.966 133.974 154.299 134.347 154.101C135.607 153.435 136.428 153.008 136.693 152.884C136.869 152.8 137.109 152.679 137.227 152.613C137.344 152.548 137.584 152.423 137.76 152.338C137.936 152.252 138.151 152.121 138.24 152.047C138.327 151.973 138.873 151.664 139.452 151.36C140.03 151.057 140.752 150.649 141.056 150.455C141.36 150.261 141.922 149.936 142.306 149.732C143.041 149.342 143.206 149.244 144.32 148.533C144.701 148.29 145.102 148.058 145.21 148.018C145.319 147.978 145.535 147.846 145.69 147.725C146.102 147.405 147.721 146.347 147.798 146.347C147.834 146.347 148.014 146.222 148.198 146.069C148.382 145.917 148.965 145.51 149.493 145.164C150.021 144.818 150.741 144.322 151.093 144.061C151.445 143.8 151.925 143.452 152.159 143.287C153.782 142.144 153.669 142.35 153.81 140.264C153.868 139.388 153.999 137.866 154.1 136.882C154.371 134.234 154.369 120.972 154.096 118.453C153.994 117.515 153.868 116.219 153.814 115.573C153.714 114.366 153.618 113.498 153.543 113.114C153.501 112.904 152.22 111.92 150.773 110.987C150.421 110.76 150.094 110.511 150.048 110.434C150.001 110.356 149.914 110.293 149.856 110.293C149.798 110.293 149.548 110.147 149.302 109.968C148.439 109.343 148.103 109.123 147.653 108.887C147.404 108.757 147.2 108.615 147.2 108.571C147.2 108.526 146.886 108.315 146.503 108.1C146.119 107.886 145.747 107.653 145.676 107.583C145.605 107.513 145.282 107.301 144.96 107.111C144.637 106.921 144.301 106.72 144.213 106.665C144.002 106.532 141.531 105.122 140.853 104.747C140.56 104.585 139.765 104.123 139.087 103.719C137.984 103.064 133.141 100.593 131.627 99.9133C131.303 99.7687 130.727 99.5056 130.347 99.329C128.418 98.4349 128.27 98.3863 127.893 98.5315ZM129.013 118.514C130.62 118.733 132.298 119.355 133.395 120.139C134.564 120.976 136.083 122.688 136.487 123.627C136.764 124.27 136.844 124.476 136.961 124.853C137.034 125.088 137.168 125.496 137.259 125.76C137.539 126.572 137.589 128.911 137.35 129.973C137.066 131.233 136.005 133.429 135.406 133.997C135.266 134.13 135.149 134.292 135.148 134.355C135.146 134.464 134.082 135.452 133.609 135.782C133.486 135.868 133.334 135.988 133.27 136.049C133.15 136.164 131.632 136.933 131.253 137.072C129.466 137.724 126.859 137.822 125.441 137.291C125.294 137.236 125.029 137.159 124.853 137.122C124.438 137.034 122.667 136.196 122.667 136.088C122.667 136.043 122.515 135.927 122.329 135.831C121.636 135.472 119.68 133.348 119.68 132.953C119.68 132.869 119.641 132.8 119.593 132.8C119.505 132.8 119.274 132.31 119.029 131.6C118.953 131.38 118.851 131.2 118.805 131.2C118.758 131.2 118.72 131.077 118.72 130.926C118.72 130.775 118.674 130.567 118.618 130.462C117.972 129.255 118.336 125.637 119.28 123.893C119.343 123.776 119.51 123.451 119.65 123.172C119.79 122.893 120.01 122.549 120.139 122.408C120.268 122.267 120.445 122.04 120.533 121.904C120.752 121.564 121.648 120.682 122.002 120.456C122.162 120.355 122.331 120.21 122.378 120.135C122.425 120.061 122.529 120 122.61 120C122.69 120 122.771 119.961 122.791 119.915C123.122 119.126 127.034 118.245 129.013 118.514ZM88.8438 125.024C87.4409 126.439 86.2927 127.637 86.2927 127.687C86.2927 127.844 90.287 131.97 91.2611 132.819C91.4633 132.996 91.4665 132.921 91.4665 127.725C91.4665 124.826 91.4505 122.453 91.4307 122.453C91.4108 122.453 90.2467 123.61 88.8438 125.024ZM165.011 122.562C164.987 124.381 165.022 132.738 165.054 132.77C165.112 132.828 170.133 127.769 170.133 127.652C170.133 127.558 169.847 127.255 167.946 125.333C165.643 123.004 165.013 122.409 165.011 122.562ZM79.3436 136.45C78.9014 137.045 77.6527 138.965 77.6527 139.049C77.6527 139.138 77.0038 140.184 76.8975 140.267C76.8598 140.296 76.7913 140.44 76.7465 140.587C76.7017 140.733 76.5795 140.974 76.4758 141.122C76.2947 141.38 75.5177 142.89 75.1599 143.68C75.0665 143.885 74.9443 144.125 74.8879 144.213C74.7817 144.379 73.6969 147.154 73.6611 147.353C73.6495 147.415 73.4915 147.922 73.3091 148.48C72.4975 150.961 72.1635 154.589 72.5763 156.427C72.8668 157.719 73.4435 159.277 73.7007 159.467C73.7411 159.496 73.9209 159.736 74.1014 160C75.5004 162.05 78.2524 163.584 82.7727 164.837C85.9427 165.716 96.8835 166.201 96.5814 165.451C96.4201 165.049 95.8268 162.861 95.35 160.907C94.3036 156.618 94.0374 155.386 93.6003 152.8C93.4614 151.979 93.2988 151.09 93.2393 150.827C93.1798 150.562 93.078 149.915 93.0134 149.387C92.8534 148.086 92.8284 148.009 92.4995 147.813C92.342 147.72 92.0687 147.504 91.8927 147.335C91.7167 147.166 91.2611 146.792 90.8796 146.503C90.4982 146.215 90.0182 145.826 89.8127 145.638C89.6073 145.451 89.2963 145.185 89.1209 145.049C88.9455 144.912 88.7247 144.727 88.63 144.64C88.5353 144.551 88.1987 144.255 87.8819 143.98C87.5651 143.705 87.206 143.393 87.0831 143.287C85.4019 141.826 83.6239 140.145 81.4883 137.997L79.6035 136.1L79.3436 136.45ZM174.342 138.64C172.931 140.034 171.344 141.566 170.815 142.046C169.382 143.346 166.801 145.58 166.03 146.187C165.264 146.789 163.837 147.934 163.687 148.067C163.633 148.115 163.551 148.456 163.504 148.824C163.458 149.192 163.394 149.613 163.362 149.76C163.272 150.174 163.215 150.503 163.101 151.253C162.986 152.008 162.928 152.334 162.775 153.067C162.721 153.33 162.598 153.979 162.503 154.507C162.22 156.075 161.837 157.831 161.443 159.36C161.421 159.447 161.324 159.856 161.23 160.267C161.135 160.677 160.994 161.229 160.916 161.493C160.838 161.757 160.692 162.333 160.591 162.773C160.49 163.213 160.364 163.693 160.313 163.84C160.261 163.986 160.195 164.226 160.167 164.373C160.138 164.52 160.039 164.85 159.947 165.107C159.854 165.364 159.792 165.588 159.81 165.605C160.178 165.974 169.238 165.804 171.306 165.39C171.453 165.36 171.837 165.284 172.16 165.221C172.482 165.158 173.226 164.985 173.813 164.838C174.4 164.691 174.928 164.56 174.986 164.549C175.045 164.537 175.141 164.497 175.201 164.46C175.26 164.423 175.617 164.312 175.994 164.215C176.371 164.117 176.778 163.968 176.897 163.885C177.016 163.801 177.175 163.733 177.25 163.733C177.383 163.733 178.509 163.212 178.931 162.955C182.768 160.624 184.135 158.216 184.057 153.92C184.023 152.013 183.551 149.393 182.922 147.627C182.652 146.867 182.267 145.857 182.13 145.547C182.051 145.371 181.838 144.869 181.657 144.433C181.299 143.578 179.477 139.993 179.277 139.751C179.21 139.67 179.105 139.514 179.044 139.405C178.714 138.813 177.881 137.432 177.824 137.387C177.789 137.357 177.574 137.057 177.347 136.72C177.12 136.382 176.928 136.107 176.92 136.107C176.912 136.108 175.753 137.248 174.342 138.64ZM105.28 156.933C105.28 156.948 105.398 157.416 105.543 157.973C106.196 160.493 106.562 161.821 106.818 162.6C106.969 163.062 107.093 163.527 107.093 163.634C107.093 164.032 107.625 164 109.18 163.51C109.537 163.398 109.971 163.307 110.146 163.307C110.321 163.307 110.509 163.261 110.565 163.205C110.62 163.15 110.814 163.079 110.995 163.047C111.175 163.015 111.523 162.919 111.768 162.833C112.013 162.747 112.213 162.692 112.213 162.713C112.213 162.733 112.585 162.635 113.04 162.495C113.494 162.354 113.947 162.24 114.046 162.24C114.382 162.24 114.357 162.034 114.004 161.886C113.811 161.805 113.328 161.539 112.931 161.296C112.534 161.052 112.192 160.853 112.172 160.853C112.151 160.853 111.587 160.534 110.92 160.145C109.376 159.244 109.06 159.062 107.249 158.034C106.43 157.569 105.721 157.125 105.674 157.047C105.605 156.932 105.28 156.838 105.28 156.933ZM150.773 157.108C150.597 157.205 150.117 157.504 149.707 157.772C149.296 158.039 148.551 158.489 148.053 158.772C147.554 159.054 146.594 159.607 145.92 160.002C145.245 160.396 144.285 160.933 143.787 161.197C142.715 161.762 142.058 162.148 142.102 162.189C142.119 162.205 142.661 162.37 143.307 162.556C143.952 162.741 144.72 162.969 145.013 163.063C145.306 163.156 145.738 163.268 145.973 163.312C146.208 163.357 146.976 163.54 147.68 163.72C148.384 163.901 148.998 164.049 149.045 164.051C149.186 164.055 149.422 163.387 149.81 161.884C150.012 161.102 150.231 160.322 150.297 160.151C150.362 159.98 150.46 159.623 150.515 159.36C150.57 159.096 150.731 158.448 150.873 157.921C151.171 156.81 151.18 156.882 150.773 157.108ZM127.253 168.92C126.871 169.069 126.343 169.277 126.08 169.383C125.197 169.739 124.754 169.904 123.627 170.297C123.01 170.51 122.41 170.727 122.293 170.779C122.176 170.83 121.816 170.949 121.493 171.045C121.17 171.141 120.81 171.262 120.693 171.315C120.412 171.441 119.231 171.817 118.56 171.993C118.266 172.07 117.402 172.327 116.64 172.563C115.506 172.914 112.666 173.68 112 173.814C111.082 173.999 111.087 173.954 111.85 175.431C112.821 177.308 112.868 177.394 113.514 178.485C113.854 179.06 114.133 179.555 114.133 179.585C114.133 179.616 114.241 179.794 114.373 179.98C114.505 180.167 114.661 180.399 114.72 180.496C115.041 181.027 116.574 183.149 116.903 183.517C117.114 183.753 117.42 184.126 117.582 184.345C118.03 184.953 120.167 187.066 121.067 187.791C126.16 191.895 130.645 191.797 135.733 187.474C136.97 186.423 139.201 184.065 139.698 183.285C139.803 183.121 139.916 182.962 139.949 182.933C139.983 182.903 140.176 182.641 140.378 182.349C140.581 182.057 140.828 181.726 140.928 181.614C141.027 181.502 141.315 181.076 141.568 180.666C141.82 180.257 142.18 179.7 142.368 179.428C142.734 178.898 143.326 177.86 144.053 176.476C144.3 176.004 144.555 175.524 144.618 175.409C145.286 174.205 145.339 173.873 144.862 173.868C144.78 173.867 144.467 173.797 144.169 173.713C143.87 173.629 143.026 173.409 142.293 173.225C141.56 173.042 140.263 172.677 139.413 172.415C138.562 172.153 137.458 171.818 136.96 171.669C136.461 171.52 135.993 171.38 135.918 171.356C135.845 171.332 135.749 171.307 135.705 171.3C135.662 171.294 135.578 171.251 135.52 171.205C135.461 171.16 135.269 171.088 135.093 171.046C134.917 171.005 134.629 170.906 134.453 170.828C134.277 170.749 133.606 170.509 132.962 170.293C131.77 169.894 130.361 169.365 129.246 168.899C128.473 168.576 128.128 168.58 127.253 168.92ZM187.246 212.405C187.418 212.651 187.902 213.363 188.322 213.986C188.743 214.61 189.144 215.186 189.215 215.266C189.285 215.347 189.5 215.653 189.692 215.947C189.884 216.24 190.374 216.944 190.78 217.513C191.187 218.081 191.964 219.185 192.506 219.966C193.049 220.747 193.646 221.591 193.834 221.842C194.245 222.393 194.376 222.243 192.266 223.648C187.686 226.7 184.633 228.482 179.893 230.873C175.959 232.856 170.953 235.073 168.321 235.997C167.763 236.193 166.754 236.558 166.08 236.809C165.405 237.06 164.349 237.417 163.733 237.603C163.117 237.789 161.893 238.169 161.013 238.446C159.143 239.037 153.161 240.567 151.811 240.8C151.299 240.889 149.943 241.15 148.8 241.38C146.307 241.882 143.649 242.3 141.973 242.453C141.298 242.514 140.362 242.61 139.893 242.665C129.97 243.825 117.247 243.342 107.52 241.435C106.2 241.176 104.711 240.893 104.212 240.806C103.713 240.719 102.153 240.353 100.746 239.992C99.3379 239.632 97.8985 239.273 97.5465 239.194C97.1945 239.115 95.9702 238.754 94.8265 238.392C93.6822 238.03 92.4995 237.668 92.198 237.586C88.2351 236.523 77.5196 231.837 72.2127 228.846C67.9587 226.448 62.4131 222.939 62.4041 222.637C62.4015 222.562 62.8079 221.914 63.3071 221.197C63.8063 220.48 64.7273 219.149 65.3539 218.24C67.1401 215.646 69.4563 212.33 69.5587 212.219C69.615 212.158 70.0598 212.392 70.6921 212.816C79.3871 218.642 89.7955 223.551 98.902 226.119C107.18 228.453 112.457 229.388 121.387 230.1C123.653 230.281 132.33 230.281 134.613 230.1C137.186 229.895 141.34 229.47 142.62 229.281C145.753 228.816 150.818 227.818 152.907 227.253C153.669 227.047 154.939 226.708 155.729 226.5C157.212 226.108 161.326 224.793 162.827 224.23C170.228 221.455 175.383 218.994 181.12 215.499C182.921 214.4 183.506 214.024 185.539 212.649C186.833 211.774 186.808 211.778 187.246 212.405Z" fill="#043C1C"/>
</g>
<defs>
<clipPath id="clip0_2559_1650">
<rect width="256" height="256" fill="white"/>
</clipPath>
</defs>
</svg>
