<svg width="256" height="256" viewBox="0 0 256 256" fill="none" xmlns="http://www.w3.org/2000/svg">
<g clip-path="url(#clip0_1762_49)">
<path d="M128.429 255.999C199.122 255.763 256.236 198.263 255.999 127.572C255.763 56.8793 198.263 -0.236155 127.571 0.000734226C56.8789 0.237623 -0.236155 57.7369 0.000734231 128.429C0.237623 199.121 57.737 256.237 128.429 255.999Z" fill="#353535"/>
<path d="M95.6548 172.631C128.518 172.631 155.159 145.99 155.159 113.127C155.159 80.2632 128.518 53.6221 95.6548 53.6221C62.7913 53.6221 36.1501 80.2632 36.1501 113.127C36.1501 145.99 62.7913 172.631 95.6548 172.631Z" fill="#DEDEDE"/>
<path d="M68.8849 202.378C86.9643 202.378 101.621 187.722 101.621 169.643C101.621 151.563 86.9643 136.907 68.8849 136.907C50.8055 136.907 36.1493 151.563 36.1493 169.643C36.1493 187.722 50.8055 202.378 68.8849 202.378Z" fill="#1E4480"/>
<path fill-rule="evenodd" clip-rule="evenodd" d="M72.5822 58.2598V137.113C88.9213 138.95 101.621 152.813 101.621 169.643C101.621 170.552 101.584 171.455 101.511 172.346C99.584 172.534 97.6308 172.631 95.6547 172.631C74.9935 172.631 56.7922 162.101 46.1239 146.115C51.2044 141.199 57.8725 137.913 65.2846 137.102V61.9443C67.6187 60.5562 70.0561 59.3233 72.5822 58.2598Z" fill="#152E51"/>
<path d="M164.488 203.59C194.408 203.59 218.663 179.334 218.663 149.414C218.663 119.494 194.408 95.2383 164.488 95.2383C134.567 95.2383 110.312 119.494 110.312 149.414C110.312 179.334 134.567 203.59 164.488 203.59Z" fill="#00FF00"/>
<path fill-rule="evenodd" clip-rule="evenodd" d="M195.733 149.322C195.784 166.579 181.837 180.609 164.58 180.66C147.324 180.711 133.294 166.763 133.242 149.507C133.191 132.25 147.139 118.22 164.396 118.169C181.652 118.118 195.682 132.066 195.733 149.322ZM164.56 173.808C178.032 173.768 188.921 162.815 188.882 149.342C188.845 137.041 179.709 126.893 167.865 125.253V140.142C171.635 141.536 174.322 145.161 174.322 149.414C174.322 154.873 169.898 159.297 164.44 159.297C158.982 159.297 154.557 154.873 154.557 149.414C154.557 145.161 157.244 141.536 161.014 140.142V125.267C149.157 126.957 140.058 137.169 140.094 149.487C140.134 162.959 151.088 173.848 164.56 173.808Z" fill="black"/>
</g>
<defs>
<clipPath id="clip0_1762_49">
<rect width="256" height="256" fill="white"/>
</clipPath>
</defs>
</svg>
