<svg width="256" height="256" viewBox="0 0 256 256" fill="none" xmlns="http://www.w3.org/2000/svg">
<g clip-path="url(#clip0_1497_53)">
<path d="M256 128C256 198.693 198.693 256 128 256C57.3075 256 0 198.693 0 128C0 57.3075 57.3075 0 128 0C198.693 0 256 57.3075 256 128Z" fill="black"/>
<path d="M128.511 50C112.984 49.9978 97.8057 54.6001 84.8948 63.2249C71.9838 71.8497 61.9205 84.1098 55.9776 98.4542C50.0348 112.799 48.4793 128.583 51.5078 143.812C54.5364 159.04 62.0131 173.029 72.9922 184.008C83.9714 194.987 97.9597 202.464 113.188 205.492C128.417 208.521 144.201 206.965 158.546 201.022C172.89 195.079 185.15 185.016 193.775 172.105C202.4 159.194 207.002 144.016 207 128.489C207 107.672 198.731 87.7082 184.011 72.9887C169.292 58.2693 149.328 50 128.511 50ZM128.511 189.856C112.99 189.87 98.0409 183.995 86.6817 173.418C75.3226 162.84 68.3989 148.347 67.3082 132.864C66.2175 117.381 71.0409 102.06 80.805 89.9947C90.5691 77.929 104.547 70.0166 119.917 67.8542V105.379C114.482 107.395 109.929 111.257 107.054 116.291C104.178 121.324 103.164 127.208 104.188 132.913C105.212 138.619 108.21 143.783 112.656 147.502C117.102 151.221 122.714 153.259 128.511 153.259C134.308 153.259 139.92 151.221 144.367 147.502C148.813 143.783 151.81 138.619 152.834 132.913C153.858 127.208 152.844 121.324 149.969 116.291C147.094 111.257 142.541 107.395 137.106 105.379V67.7979C152.476 69.9601 166.453 77.8727 176.218 89.9382C185.982 102.004 190.805 117.324 189.714 132.808C188.624 148.291 181.7 162.784 170.341 173.361C158.982 183.939 144.033 189.814 128.511 189.8V189.856Z" fill="#4BFF00"/>
</g>
<defs>
<clipPath id="clip0_1497_53">
<rect width="256" height="256" fill="white"/>
</clipPath>
</defs>
</svg>
