<svg width="256" height="256" viewBox="0 0 256 256" fill="none" xmlns="http://www.w3.org/2000/svg">
<g clip-path="url(#clip0_741_46)">
<circle cx="128" cy="128" r="128" fill="white"/>
<path d="M100.363 66.21C109.989 95.4895 119.628 124.757 129.304 154.173C128.619 154.21 128.121 154.26 127.635 154.26C107.711 154.26 87.7861 154.285 67.8614 154.26C53.3039 154.235 42.2212 142.755 43.0429 128.289C43.5536 119.383 47.8122 112.555 55.7821 108.313C69.7419 100.888 83.7512 93.5738 97.7605 86.2353C98.6324 85.7753 98.9812 85.2529 99.0183 84.2578C99.2922 78.2501 99.6661 72.2424 99.9898 66.2347C100.114 66.2347 100.239 66.2347 100.351 66.2347L100.363 66.21ZM114.248 130.453C111.783 122.953 109.379 115.664 106.951 108.326C106.577 108.475 106.365 108.55 106.166 108.649C97.7481 113.003 89.3673 117.455 80.8871 121.685C75.2958 124.483 70.1278 128.575 63.3037 127.941C63.2539 127.941 63.1666 127.941 63.1419 127.966C62.7556 128.339 62.0459 128.787 62.0958 129.085C62.183 129.57 62.7061 130.13 63.1917 130.366C63.6649 130.59 64.3124 130.453 64.8976 130.453H114.248Z" fill="black"/>
<path d="M127.174 100.837H129.39C149.203 100.837 169.016 100.837 188.828 100.837C200.259 100.837 209.91 108.287 212.8 119.308C215.651 130.166 210.683 141.572 200.745 146.809C186.873 154.135 172.976 161.448 159.066 168.712C157.945 169.297 157.496 169.968 157.447 171.225C157.198 177.121 156.861 183.016 156.189 188.987C146.55 159.707 136.912 130.427 127.186 100.837H127.174ZM142.267 124.631C144.757 132.194 147.148 139.458 149.564 146.809C150.174 146.51 150.585 146.323 150.984 146.124C161.693 140.577 172.415 135.042 183.112 129.47C185.814 128.064 188.579 127.119 191.667 127.193C192.726 127.218 194.332 127.654 194.357 125.937C194.382 124.208 192.763 124.656 191.692 124.656C175.927 124.631 160.161 124.644 144.396 124.644H142.267V124.631Z" fill="black"/>
<path d="M134.646 77.4158V63H149.042V77.4158H134.646Z" fill="black"/>
<path d="M107.374 192.046V177.73H121.707V192.046H107.374Z" fill="black"/>
</g>
<defs>
<clipPath id="clip0_741_46">
<rect width="256" height="256" fill="white"/>
</clipPath>
</defs>
</svg>
