<svg width="256" height="256" viewBox="0 0 256 256" fill="none" xmlns="http://www.w3.org/2000/svg">
<g clip-path="url(#clip0_2099_10625)">
<path d="M256 128C256 57.3076 198.692 0 128 0C57.3076 0 0 57.3076 0 128C0 198.692 57.3076 256 128 256C198.692 256 256 198.692 256 128Z" fill="black"/>
<path fill-rule="evenodd" clip-rule="evenodd" d="M37.0482 163.225V106.559H31L36.5384 93H65.6956L64.88 106.559H50.9131V121.851H63.4528L62.6372 135.411H50.9131V150.805H65.6956L65.0761 161.105C55.6975 161.682 46.3543 162.389 37.0482 163.225ZM224.602 163.969L214.16 93H190.405L184.867 106.559H191.119L183.181 160.784C187.739 161.039 192.288 161.325 196.829 161.642L197.95 154.169H209.368L210.648 162.702C215.308 163.092 219.96 163.515 224.602 163.969ZM178.606 160.538V93H164.741V123.992H159.134V93H144.759L139.22 106.559V93H106.495L103.997 106.559H115.976V159.269C119.599 159.23 123.228 159.211 126.86 159.211C127.854 159.211 128.848 159.212 129.841 159.215V106.559H139.22H145.269V159.378C149.898 159.462 154.52 159.579 159.134 159.726V137.551H164.741V159.921C169.371 160.095 173.992 160.301 178.606 160.538ZM105.573 159.435L100.648 142.037C102.891 139.794 104.012 136.056 104.012 130.823V107.579C104.012 102.413 102.857 98.7091 100.546 96.4662C98.3031 94.1554 94.565 93 89.3317 93H70.6752L65.1367 106.559H71.1848V160.748C75.7983 160.493 80.4199 160.269 85.0498 160.076V145.401H87.8025L91.833 159.818C96.4052 159.659 100.985 159.531 105.573 159.435ZM89.6375 106.559H85.0498V131.842H89.6375C89.9773 131.842 90.1474 131.672 90.1474 131.332V107.069C90.1474 106.729 89.9773 106.559 89.6375 106.559ZM203.659 115.123L207.431 140.61H199.887L203.659 115.123Z" fill="white"/>
</g>
<defs>
<clipPath id="clip0_2099_10625">
<rect width="256" height="256" fill="white"/>
</clipPath>
</defs>
</svg>
