<svg width="256" height="256" viewBox="0 0 256 256" fill="none" xmlns="http://www.w3.org/2000/svg">
<g clip-path="url(#clip0_2537_836)">
<mask id="mask0_2537_836" style="mask-type:luminance" maskUnits="userSpaceOnUse" x="0" y="0" width="256" height="256">
<path d="M256 0H0V256H256V0Z" fill="white"/>
</mask>
<g mask="url(#mask0_2537_836)">
<path d="M256 128C256 57.3075 198.692 0 128 0C57.3075 0 0 57.3075 0 128C0 198.692 57.3075 256 128 256C198.692 256 256 198.692 256 128Z" fill="#E33F53"/>
</g>
<path d="M227.375 130.669C226.615 129.728 225.598 129.471 224.432 129.668C223.099 129.872 222.228 130.72 221.462 131.718C220.205 133.354 218.975 135.016 217.709 136.649C215.575 139.407 213.428 142.161 210.775 144.445C209.792 145.284 208.703 145.991 207.535 146.545C205.436 147.546 203.645 146.722 202.799 144.562C202.269 143.083 202.134 141.491 202.405 139.944C202.819 136.921 203.658 133.972 204.895 131.184C206.509 127.511 208.255 123.922 209.969 120.303C210.815 118.52 210.635 117.011 209.338 115.739C207.895 114.32 206.112 114.26 204.622 115.616C204.146 116.056 203.711 116.539 203.322 117.058C202.872 117.652 202.489 118.296 202.075 118.924C201.662 119.552 201.409 119.679 200.672 119.392C200.222 119.218 199.789 118.984 199.338 118.837C195.953 117.738 192.286 117.893 189.005 119.275C184.962 120.897 181.769 123.615 179.239 127.117C178.222 128.52 177.482 130.122 176.489 131.541C174.165 134.889 171.499 137.986 168.532 140.779C165.882 143.26 162.982 145.379 159.489 146.538C156.572 147.503 153.613 147.927 150.602 146.982C147.526 146.017 145.699 143.881 144.996 140.769C144.436 138.292 144.726 135.858 145.489 133.461C146.558 129.936 148.585 126.78 151.342 124.343C152.899 122.981 154.676 122.006 156.759 121.819C158.019 121.702 159.193 121.966 159.909 123.094C160.28 123.694 160.52 124.365 160.616 125.064C160.691 125.932 160.708 126.804 160.666 127.675C160.656 128.031 160.741 128.383 160.914 128.694C161.086 129.006 161.339 129.265 161.646 129.444C163.009 130.312 164.526 130.112 165.646 128.904C167.429 126.997 167.879 123.274 166.599 120.594C164.956 117.161 162.049 115.492 158.402 115.158C154.756 114.824 151.402 116.11 148.402 118.116C144.539 120.698 141.501 124.342 139.653 128.61C139.373 129.234 137.863 132.866 133.41 138.626C131.139 141.176 128.676 143.537 125.676 145.239C124.189 146.084 122.636 146.685 120.879 146.488C120.147 146.434 119.446 146.168 118.863 145.721C118.279 145.273 117.839 144.665 117.596 143.971C117 142.475 117.169 140.916 117.453 139.41C117.819 137.358 118.305 135.329 118.906 133.334C120.03 129.745 121.306 126.206 122.503 122.65C123.019 121.294 123.448 119.907 123.789 118.497C124.18 116.524 122.843 114.824 120.863 114.53C120.128 114.407 119.375 114.474 118.674 114.726C117.974 114.979 117.35 115.408 116.863 115.973C115.989 116.974 115.33 118.15 114.563 119.238C111.693 123.308 109.177 127.451 105.77 132.449C103.419 135.838 97.9197 144.445 94.7132 146.361C93.0466 147.363 91.263 148.057 89.2434 147.82C88.6711 147.771 88.1343 147.523 87.7263 147.118C87.3183 146.714 87.0649 146.179 87.01 145.607C86.9665 145.203 86.9496 144.797 86.9597 144.391C86.9834 141.787 87.8931 139.383 88.753 136.993C89.7531 134.158 90.9665 131.377 91.4197 128.369C91.753 126.119 91.5963 123.922 90.5434 121.849C89.6966 120.179 88.2699 119.094 86.8064 118.026C85.06 116.751 83.3533 115.418 81.6297 114.113C81.3641 113.909 81.1495 113.645 81.0029 113.343C80.8568 113.041 80.7825 112.709 80.7867 112.374C80.7985 111.583 80.7554 110.792 80.6566 110.007C80.4573 108.753 80.1587 107.517 79.7634 106.311C79.1932 104.705 77.84 104.034 76.23 104.007C75.4537 103.961 74.6812 104.142 74.0063 104.529C73.3314 104.915 72.7836 105.491 72.4301 106.184C71.43 108.02 71.6733 109.937 72.3199 111.786C72.82 113.212 73.5667 114.547 74.1335 115.953C74.2994 116.358 74.3066 116.811 74.1533 117.221C73.0332 119.462 71.9001 121.702 70.6533 123.875C69.0834 126.616 67.2133 129.154 65.3533 131.708C63.4932 134.262 61.5934 136.899 59.3702 139.196C56.3702 142.308 52.9935 144.822 48.6502 145.73C45.8403 146.321 43.0703 146.284 40.507 144.818C37.1503 142.902 35.3137 140.024 35.3404 136.088C35.3404 135.003 35.6737 134.753 36.747 134.939C39.8309 135.524 43.0105 135.346 46.0103 134.422C50.1836 133.087 53.4802 130.583 55.5335 126.64C56.7435 124.303 57.0668 121.852 56.0702 119.358C54.7802 116.16 52.2235 114.45 48.9569 113.823C45.5526 113.182 42.0317 113.789 39.037 115.532C32.9304 118.968 29.7038 124.46 28.3704 131.157C27.9089 133.512 27.8784 135.932 28.2804 138.298C28.7844 141.594 30.256 144.665 32.5081 147.121C34.7602 149.576 37.6909 151.305 40.927 152.087C44.186 152.911 47.6076 152.829 50.8236 151.85C53.9935 150.918 56.8235 149.313 59.4335 147.339C64.2302 143.73 68.0466 139.203 71.4334 134.299C73.3133 131.568 75.0233 128.716 76.7668 125.895C77.5 124.71 78.1234 123.458 78.8034 122.223C79.2164 121.485 79.6434 121.251 80.2064 121.599C81.3624 122.259 82.4647 123.009 83.5032 123.842C84.1047 124.32 84.5545 124.962 84.7969 125.691C85.0397 126.421 85.0651 127.205 84.87 127.948C84.6985 128.636 84.4907 129.314 84.2466 129.978C82.9132 133.795 81.3898 137.544 80.5401 141.524C79.9965 144.064 79.92 146.548 80.91 148.989C82.1298 151.993 84.3399 153.923 87.513 154.608C91.1165 155.422 95.3864 155.349 100.46 150.601C106.156 144.592 108.98 140.358 111.103 136.275C111.159 136.275 109.353 142.148 111.363 147.206C113.253 151.94 118.053 153.636 122.596 152.965C130.789 152.007 134.299 147.743 138.219 142.809C138.306 143.106 138.493 143.91 138.886 144.966C139.746 147.432 141.325 149.584 143.419 151.142C145.586 152.751 148.039 153.583 150.696 153.943C154.102 154.404 157.57 154.048 160.812 152.905C164.712 151.569 168.146 149.419 171.296 146.795C172.412 145.864 173.482 144.879 174.645 143.854C174.757 144.045 174.858 144.243 174.949 144.445C176.179 147.69 178.552 149.633 181.885 150.354C185.219 151.075 188.219 150.207 190.862 148.18C192.312 147.066 193.529 145.657 194.862 144.398C195.081 144.239 195.319 144.107 195.569 144.004C195.724 144.224 195.847 144.466 195.932 144.722C196.176 146.37 196.733 147.957 197.572 149.396C198.829 151.526 200.599 153.042 203.065 153.566C205.759 154.137 208.292 153.546 210.712 152.341C213.419 151.005 215.639 149.025 217.712 146.872C220.692 143.787 223.235 140.355 225.692 136.856C226.424 135.865 227.082 134.822 227.662 133.734C227.926 133.253 228.039 132.704 227.988 132.158C227.937 131.611 227.723 131.093 227.375 130.669ZM37.3437 127.304C38.807 124.55 40.757 122.239 43.617 120.834C45.1503 120.09 46.7603 119.899 48.3836 120.543C50.1469 121.245 50.5802 122.637 49.9569 124.436C49.3336 126.236 47.8869 127.107 46.2636 127.812C44.5137 128.505 42.6491 128.864 40.767 128.867C39.9237 128.787 38.9737 128.72 38.027 128.599C37.1804 128.513 36.937 128.052 37.3437 127.304ZM198.382 126.843C197.239 129.891 195.844 132.838 194.212 135.654C192.935 137.874 191.545 139.994 189.679 141.78C188.768 142.707 187.664 143.419 186.445 143.867C184.352 144.588 182.632 143.614 182.112 141.47C181.619 139.423 181.985 137.487 182.662 135.577C183.815 132.229 185.842 129.252 188.532 126.954C189.717 125.902 191.139 125.154 192.676 124.773C193.134 124.695 193.597 124.644 194.062 124.62C195.343 124.636 196.605 124.93 197.762 125.481C198.439 125.785 198.632 126.176 198.382 126.843Z" fill="#FAFAFA"/>
<path d="M124.997 110C125.788 110 126.562 109.766 127.22 109.327C127.878 108.888 128.391 108.264 128.694 107.533C128.998 106.802 129.078 105.998 128.924 105.222C128.77 104.445 128.389 103.732 127.83 103.173C127.27 102.613 126.557 102.232 125.781 102.077C125.005 101.923 124.201 102.002 123.47 102.304C122.739 102.607 122.114 103.119 121.674 103.777C121.235 104.435 121 105.209 121 106C121 107.06 121.421 108.077 122.17 108.827C122.92 109.577 123.937 109.999 124.997 110Z" fill="#FAFAFA"/>
</g>
<defs>
<clipPath id="clip0_2537_836">
<rect width="256" height="256" fill="white"/>
</clipPath>
</defs>
</svg>
