<svg width="256" height="256" viewBox="0 0 256 256" fill="none" xmlns="http://www.w3.org/2000/svg">
<g clip-path="url(#clip0_1760_714)">
<path d="M128 256C198.692 256 256 198.692 256 128C256 57.3075 198.692 0 128 0C57.3075 0 0 57.3075 0 128C0 198.692 57.3075 256 128 256Z" fill="#00EBAB"/>
<path d="M62.8091 127.379L81.7536 138.577L127.979 165.903L193.15 127.379L127.979 19.2451V19.2486L62.8091 127.379Z" fill="black"/>
<path d="M127.979 178.24L62.8091 139.736L127.979 231.573L193.187 139.736L127.979 178.24Z" fill="black"/>
<path d="M192.224 46.7158H169.997V52.2218H192.028V57.7277H169.997V74.2489H197.534V68.743H175.503V63.2371H197.534V46.7158H192.221H192.224Z" fill="black"/>
<path d="M127.924 178.509L62.7538 140.006L127.924 231.843L193.136 140.009L127.924 178.509Z" fill="black"/>
</g>
<defs>
<clipPath id="clip0_1760_714">
<rect width="256" height="256" fill="white"/>
</clipPath>
</defs>
</svg>
