<svg width="256" height="256" viewBox="0 0 256 256" fill="none" xmlns="http://www.w3.org/2000/svg">
<g clip-path="url(#clip0_2554_1509)">
<path d="M256 128C256 57.3075 198.692 0 128 0C57.3075 0 0 57.3075 0 128C0 198.692 57.3075 256 128 256C198.692 256 256 198.692 256 128Z" fill="#25346D"/>
<path d="M128.339 53.0018L103.316 21.374H153.363L128.339 53.0018Z" fill="#C1CCF7"/>
<path fill-rule="evenodd" clip-rule="evenodd" d="M44.2316 114.215C44.787 114.215 45.2373 114.665 45.2373 115.221V123.239C45.2373 123.639 45.0007 124 44.6347 124.16L43.6701 124.582L36.2908 128.064C35.5919 128.394 35.5942 129.388 36.2945 129.715L37.5926 130.321C37.6044 130.326 37.6177 130.318 37.6175 130.305C37.6172 130.292 37.6301 130.283 37.6416 130.288L44.6244 133.251C44.996 133.408 45.2373 133.773 45.2373 134.176V142.186C45.2373 142.742 44.787 143.192 44.2316 143.192H38.8357C38.2873 143.192 37.84 142.752 37.8302 142.204L37.6564 132.482C37.6496 132.1 37.4277 131.755 37.0836 131.592L33.4005 129.836C33.1279 129.706 32.8116 129.705 32.5386 129.834L28.6427 131.673C28.2907 131.838 28.0662 132.192 28.0662 132.581V142.186C28.0662 142.742 27.6159 143.192 27.0605 143.192H21.6824C21.127 143.192 20.6768 142.742 20.6768 142.186V134.169C20.6768 133.769 20.9133 133.407 21.2793 133.247L28.0314 130.293L29.4119 129.649C30.1366 129.311 30.141 128.283 29.4191 127.938L28.0968 127.308C28.0826 127.301 28.0662 127.312 28.0662 127.327C28.0662 127.342 28.0502 127.353 28.0361 127.347L21.2793 124.39C20.9133 124.231 20.6768 123.869 20.6768 123.47V115.451C20.6768 114.896 21.127 114.446 21.6824 114.446H27.0605C27.6159 114.446 28.0662 114.896 28.0662 115.451V125.237C28.0662 125.628 28.2926 125.983 28.6468 126.149L32.3573 127.879C32.6268 128.005 32.938 128.005 33.2074 127.879L37.2672 125.986C37.6214 125.821 37.8479 125.466 37.8479 125.075V115.221C37.8479 114.665 38.2981 114.215 38.8535 114.215H44.2316Z" fill="#C1CCF7"/>
<path fill-rule="evenodd" clip-rule="evenodd" d="M234.263 115.2C234.818 115.2 235.268 115.65 235.268 116.205V124.224C235.268 124.624 235.032 124.985 234.666 125.145L233.702 125.567L226.322 129.049C225.623 129.378 225.626 130.373 226.326 130.7L227.624 131.305C227.636 131.31 227.649 131.302 227.648 131.29C227.648 131.277 227.661 131.268 227.673 131.273L234.656 134.236C235.027 134.393 235.268 134.757 235.268 135.161V143.171C235.268 143.726 234.818 144.176 234.263 144.176H228.867C228.319 144.176 227.871 143.737 227.861 143.189L227.688 133.467C227.681 133.085 227.459 132.74 227.115 132.576L223.431 130.821C223.159 130.691 222.842 130.69 222.57 130.819L218.674 132.657C218.322 132.823 218.098 133.177 218.098 133.566V143.171C218.098 143.726 217.648 144.176 217.091 144.176H211.713C211.158 144.176 210.708 143.726 210.708 143.171V135.153C210.708 134.753 210.944 134.392 211.311 134.232L218.063 131.278L219.444 130.634C220.168 130.296 220.172 129.267 219.45 128.923L218.128 128.292C218.114 128.285 218.098 128.296 218.098 128.312C218.098 128.327 218.082 128.338 218.067 128.332L211.311 125.375C210.944 125.215 210.708 124.853 210.708 124.454V116.436C210.708 115.88 211.158 115.43 211.713 115.43H217.091C217.648 115.43 218.098 115.88 218.098 116.436V126.222C218.098 126.613 218.324 126.968 218.678 127.133L222.389 128.863C222.658 128.989 222.969 128.989 223.238 128.863L227.299 126.971C227.652 126.806 227.879 126.45 227.879 126.059V116.205C227.879 115.65 228.33 115.2 228.885 115.2H234.263Z" fill="#C1CCF7"/>
<path d="M128.197 192C162.021 192 189.44 164.58 189.44 130.757C189.44 96.9329 162.021 69.5134 128.197 69.5134C94.3736 69.5134 66.9541 96.9329 66.9541 130.757C66.9541 164.58 94.3736 192 128.197 192Z" fill="#627EEA"/>
<path d="M130.104 84.8154V118.768L158.8 131.593L130.104 84.8154Z" fill="white" fill-opacity="0.602"/>
<path d="M130.104 84.8154L101.407 131.593L130.104 118.768V84.8154Z" fill="white"/>
<path d="M130.104 153.593V176.664L158.817 136.934L130.104 153.593Z" fill="white" fill-opacity="0.602"/>
<path d="M130.104 176.664V153.593L101.407 136.934L130.104 176.664Z" fill="white"/>
<path d="M130.104 148.253L158.8 131.594L130.104 118.769V148.253Z" fill="white" fill-opacity="0.2"/>
<path d="M101.407 131.594L130.104 148.253V118.769L101.407 131.594Z" fill="white" fill-opacity="0.602"/>
<path d="M135.4 208.739V242.97H128.162V215.608H127.963L120.123 220.522V214.104L128.598 208.739H135.4Z" fill="#C1CCF7"/>
</g>
<defs>
<clipPath id="clip0_2554_1509">
<rect width="256" height="256" fill="white"/>
</clipPath>
</defs>
</svg>
