<svg width="256" height="258" viewBox="0 0 256 258" fill="none" xmlns="http://www.w3.org/2000/svg">
<g clip-path="url(#clip0_2338_41)">
<g filter="url(#filter0_d_2338_41)">
<path d="M127.812 253.261C196.328 253.261 251.872 197.627 251.872 128.999C251.872 60.3707 196.328 4.73657 127.812 4.73657C59.2951 4.73657 3.75146 60.3707 3.75146 128.999C3.75146 197.627 59.2951 253.261 127.812 253.261Z" fill="url(#paint0_linear_2338_41)"/>
<path d="M127.812 254.391C196.951 254.391 253 198.251 253 128.999C253 59.7471 196.951 3.60718 127.812 3.60718C58.6726 3.60718 2.62402 59.7471 2.62402 128.999C2.62402 198.251 58.6726 254.391 127.812 254.391Z" stroke="white" stroke-width="1.30909"/>
</g>
<path d="M172.277 16.4084C233.01 40.4606 263.17 108.866 240.43 170L18 81.9112C42.9737 21.6615 111.543 -7.64386 172.277 16.4084Z" fill="white" stroke="#4B078A" stroke-width="2.61818"/>
<path d="M102 70.0283L127.499 85L153 70.0283L127.499 28L127.499 28.0029L102 70.0283Z" fill="#460782"/>
<path d="M102 79L127.492 114L153 79L127.492 93.6741L102 79Z" fill="#460782"/>
<path d="M72.6337 154.974C70.6436 154.13 69.0268 151.717 69.0227 149.585L69 138L105.036 153.274L105.126 196.728C105.126 206.791 105.126 207.286 112.348 210.389L133.97 219.555L134 235L97.9642 219.726C93.9838 218.039 90.7503 213.214 90.742 208.949L90.7119 193.502L83.5047 190.448C79.5244 188.761 76.2908 183.935 76.2825 179.67L76.2674 171.946L90.6817 178.057L90.6516 162.611L72.6337 154.974Z" fill="white"/>
<path d="M134 204L126.545 200.95C119.068 197.449 119.068 198.109 119.068 190.173L119 138L126.455 141.051C130.578 142.738 133.926 147.564 133.932 151.828L134 204Z" fill="white"/>
<path d="M163 115V108.141L177.108 94.0188C178.783 92.3664 180.021 90.8678 180.821 89.5227C181.658 88.1393 182.078 86.6408 182.078 85.0268C182.078 83.4897 181.62 82.2792 180.707 81.3954C179.793 80.5116 178.174 80.0697 175.851 80.0697H163.97V73.3834C165.797 73.0375 167.816 72.7301 170.025 72.4611C172.271 72.1537 174.767 72 177.509 72C180.821 72 183.411 72.4611 185.276 73.3834C187.181 74.3057 188.533 75.6314 189.332 77.3606C190.132 79.0898 190.531 81.184 190.531 83.6434C190.531 86.5254 189.961 89.0425 188.818 91.1944C187.676 93.3462 185.981 95.5366 183.734 97.7655L174.252 107.276H191.845V115H163ZM196.069 115L206.464 99.0912L196.069 84.047H204.58L211.377 93.8458L217.431 84.047H226L215.604 100.013L226 115H217.431L210.692 105.259L204.637 115H196.069Z" fill="#460782"/>
</g>
<defs>
<filter id="filter0_d_2338_41" x="-7.55142" y="-1.80769" width="270.726" height="271.134" filterUnits="userSpaceOnUse" color-interpolation-filters="sRGB">
<feFlood flood-opacity="0" result="BackgroundImageFix"/>
<feColorMatrix in="SourceAlpha" type="matrix" values="0 0 0 0 0 0 0 0 0 0 0 0 0 0 0 0 0 0 127 0" result="hardAlpha"/>
<feOffset dy="4.76033"/>
<feGaussianBlur stdDeviation="4.76033"/>
<feColorMatrix type="matrix" values="0 0 0 0 0.227451 0 0 0 0 0.0196078 0 0 0 0 0.423529 0 0 0 0.25 0"/>
<feBlend mode="normal" in2="BackgroundImageFix" result="effect1_dropShadow_2338_41"/>
<feBlend mode="normal" in="SourceGraphic" in2="effect1_dropShadow_2338_41" result="shape"/>
</filter>
<linearGradient id="paint0_linear_2338_41" x1="127.812" y1="73.0678" x2="127.812" y2="253.261" gradientUnits="userSpaceOnUse">
<stop stop-color="#3A056C"/>
<stop offset="1" stop-color="#4D078D"/>
</linearGradient>
<clipPath id="clip0_2338_41">
<rect width="256" height="258" fill="white"/>
</clipPath>
</defs>
</svg>
