<svg width="256" height="256" viewBox="0 0 256 256" fill="none" xmlns="http://www.w3.org/2000/svg">
<g clip-path="url(#clip0_2560_2021)">
<path d="M128 256C198.692 256 256 198.692 256 128C256 57.3076 198.692 0 128 0C57.3076 0 0 57.3076 0 128C0 198.692 57.3076 256 128 256Z" fill="#1B1645"/>
<path fill-rule="evenodd" clip-rule="evenodd" d="M91.5244 72.6034L114.046 49.3947L119.23 67.3421C116.311 70.2201 113.059 73.4349 109.608 76.8561C105.87 75.8188 100.414 74.5449 95.8268 73.5322C94.2667 73.1876 92.7993 72.8717 91.5244 72.6034ZM84.5873 79.7525L52.7358 112.576C53.9564 112.837 55.347 113.14 56.8211 113.469C61.0916 114.423 66.1246 115.608 69.7839 116.61C72.3925 113.983 75.2019 111.163 78.1346 108.224C81.7196 104.631 85.49 100.86 89.3054 97.0519L84.5873 79.7525ZM93.4777 92.8904C97.5102 88.8707 101.537 84.8653 105.393 81.0371C102.13 80.2071 98.2035 79.3004 94.7224 78.5314C92.6416 78.0721 90.7339 77.6651 89.2414 77.3573L93.4777 92.8904ZM51.1109 117.465C52.4378 117.746 54.0138 118.088 55.7049 118.466C58.9238 119.185 62.5273 120.025 65.6188 120.809C63.6875 122.76 61.9185 124.552 60.3549 126.143C58.0842 128.453 56.2384 130.348 54.9507 131.693L54.8227 131.827L51.1109 117.465ZM125.681 66.739C125.156 66.6089 124.687 66.4942 124.287 66.399L119.202 48.7956L136.683 53.0727L141.566 70.8478C138.457 70.0291 134.816 69.0757 131.584 68.2412C129.31 67.6539 127.232 67.1235 125.681 66.739ZM117.493 98.763L140.081 75.7512C137.019 74.9448 133.464 74.0145 130.303 73.1984C128.035 72.6126 125.975 72.0868 124.449 71.7084C123.685 71.519 123.065 71.369 122.623 71.2681L122.557 71.2528C119.679 74.0898 116.486 77.2473 113.102 80.6014C113.823 84.2197 115.09 89.4574 116.228 93.9195C116.689 95.7259 117.126 97.3945 117.493 98.763ZM112.803 101.034C109.31 99.9309 104.882 98.6765 101.068 97.6418C99.6156 97.248 98.2449 96.884 97.0392 96.5696C101.011 92.6108 104.977 88.6654 108.78 84.8883C109.508 88.1426 110.43 91.8997 111.268 95.1852C111.844 97.4441 112.385 99.4967 112.803 101.034ZM110.657 105.727C107.375 104.705 103.313 103.556 99.7277 102.584C97.4646 101.97 95.4095 101.431 93.8868 101.046C93.4905 100.946 93.1326 100.857 92.8182 100.78C89.0407 104.55 85.3087 108.282 81.759 111.84C78.7946 114.811 75.9576 117.659 73.3274 120.307C74.0662 123.872 75.2351 128.686 76.2924 132.832C76.8705 135.097 77.4106 137.145 77.8223 138.657C77.8607 138.796 77.8975 138.931 77.9329 139.061L100.626 115.918C100.708 115.835 100.793 115.757 100.882 115.685L110.657 105.727ZM64.0065 129.732C65.5051 128.207 67.1932 126.497 69.0333 124.637C69.727 127.687 70.5642 131.09 71.3316 134.097C71.9148 136.384 72.4621 138.459 72.8825 140.002L72.8933 140.042L58.2168 135.687C58.3519 135.545 58.4968 135.394 58.6504 135.233C59.9135 133.912 61.7404 132.038 64.0065 129.732ZM74.6842 145.914L53.0543 139.496C52.0205 139.19 51.2234 138.364 50.9537 137.32L45.2101 115.095C44.942 114.057 45.2337 112.956 45.9797 112.187L112.647 43.4835C113.406 42.7012 114.523 42.3798 115.582 42.6389L139.069 48.3856C140.152 48.6505 141.006 49.481 141.301 50.5558L147.543 73.2777C147.833 74.333 147.54 75.4624 146.773 76.2432L107.676 116.072L126.51 120.576C127.599 120.836 128.461 121.669 128.758 122.75L133.936 141.599L171.015 103.387C171.774 102.605 172.891 102.284 173.95 102.543L197.437 108.29C198.52 108.555 199.374 109.385 199.669 110.46L205.911 133.182C206.201 134.237 205.908 135.366 205.141 136.147L136.959 205.602C136.152 206.424 134.953 206.725 133.854 206.383L111.384 199.393C110.369 199.077 109.589 198.258 109.323 197.228L103.86 176.089L82.1809 169.181C81.1749 168.86 80.4038 168.045 80.1396 167.022L74.6842 145.914ZM84.8136 164.646L80.4304 147.685C80.7601 147.751 81.1395 147.827 81.5624 147.915C83.0964 148.231 85.1674 148.677 87.4489 149.186C91.187 150.021 95.4433 151.019 98.8143 151.904C99.571 155.385 100.607 159.625 101.54 163.281C102.123 165.568 102.671 167.643 103.091 169.187C103.236 169.721 103.368 170.196 103.481 170.595L84.8136 164.646ZM108.121 168.171C108.092 168.064 108.062 167.954 108.031 167.841C107.619 166.329 107.079 164.281 106.501 162.016C105.537 158.236 104.48 153.901 103.741 150.464L110.798 143.191C112.984 143.885 117.322 145.287 121.726 146.71L121.731 146.712C123.563 147.304 125.407 147.9 127.112 148.45L108.121 168.171ZM123.751 141.984L123.725 141.975L123.721 141.974C120.488 140.929 117.228 139.876 114.778 139.089L125.033 128.52L129.217 143.749C127.533 143.206 125.676 142.606 123.807 142.001L123.776 141.991L123.756 141.985L123.751 141.984ZM121.632 124.673L111.018 135.612L106.662 121.094L121.632 124.673ZM106.935 139.82L101.651 122.21L81.5507 142.688C81.8666 142.751 82.2173 142.822 82.5977 142.901C84.1634 143.224 86.2621 143.675 88.5651 144.189C92.2801 145.019 96.5727 146.024 100.035 146.93L106.935 139.82ZM168.624 146.054C164.85 149.771 160.911 153.65 156.958 157.547C157.878 157.776 158.87 158.024 159.903 158.288C163.935 159.316 168.649 160.573 172.221 161.648C171.393 158.088 170.381 153.723 169.506 149.91C169.189 148.533 168.89 147.225 168.624 146.054ZM137.66 169.4C141.291 165.81 145.104 162.047 148.956 158.246C148.824 157.819 148.666 157.301 148.488 156.712C148.008 155.12 147.374 152.978 146.687 150.625C145.602 146.911 144.377 142.657 143.403 139.195L110.623 172.976L110.758 173.004C110.922 173.037 111.093 173.072 111.27 173.109C112.835 173.432 114.934 173.883 117.237 174.397C121.28 175.3 126.007 176.411 129.604 177.377C132.137 174.865 134.844 172.184 137.66 169.4ZM165.917 141.534C161.785 145.603 157.436 149.886 153.076 154.185C152.652 152.768 152.145 151.047 151.601 149.188C150.465 145.298 149.178 140.824 148.19 137.303C149.934 137.68 152.238 138.198 154.766 138.787C158.379 139.63 162.416 140.611 165.917 141.534ZM152.792 161.803L152.671 161.774C148.779 165.613 144.927 169.415 141.26 173.041C138.55 175.72 135.942 178.302 133.495 180.729L133.519 180.841L133.586 181.141L133.647 181.414C134.009 183.034 134.512 185.239 135.072 187.676C135.821 190.937 136.67 194.605 137.418 197.825L168.707 165.952C165.59 165.058 161.914 164.084 158.638 163.249C156.373 162.672 154.316 162.166 152.792 161.803ZM129.205 184.988C129.47 186.154 129.767 187.453 130.082 188.822C130.969 192.686 131.996 197.118 132.831 200.703L118.102 196.121C119.361 194.835 121.045 193.136 123.07 191.108C124.87 189.305 126.936 187.244 129.205 184.988ZM113.618 193.387L109.643 178.002C109.829 178.04 110.026 178.08 110.234 178.123C111.768 178.439 113.839 178.885 116.121 179.394C119.115 180.063 122.442 180.836 125.379 181.572C123.191 183.748 121.194 185.74 119.446 187.491C117.117 189.824 115.222 191.738 113.9 193.096C113.803 193.196 113.709 193.293 113.618 193.387ZM149.952 132.446L173.146 108.544L179.361 128.298C177.291 130.337 175.045 132.547 172.672 134.884L172.671 134.885L170.141 137.376C166.012 136.218 160.579 134.886 155.928 133.801C153.692 133.28 151.624 132.813 149.952 132.446ZM178.645 108.963L195.051 112.977L199.874 130.534C196.854 129.777 193.464 128.99 190.453 128.317C188.15 127.803 186.051 127.352 184.486 127.029L184.318 126.994L178.645 108.963ZM182.958 131.942C183.115 131.974 183.279 132.008 183.45 132.043C184.984 132.359 187.055 132.805 189.337 133.314C192.335 133.984 195.666 134.758 198.607 135.495L176.608 157.905C175.92 154.941 175.167 151.689 174.496 148.764C173.936 146.327 173.433 144.122 173.071 142.502C173.017 142.262 172.967 142.036 172.92 141.824L176.256 138.541L176.265 138.532L176.289 138.508C178.655 136.179 180.894 133.975 182.958 131.942Z" fill="url(#paint0_linear_2560_2021)"/>
</g>
<defs>
<linearGradient id="paint0_linear_2560_2021" x1="208.64" y1="132.608" x2="37.1203" y2="118.272" gradientUnits="userSpaceOnUse">
<stop stop-color="#B25AFA"/>
<stop offset="1" stop-color="#2ABAF9"/>
</linearGradient>
<clipPath id="clip0_2560_2021">
<rect width="256" height="256" fill="white"/>
</clipPath>
</defs>
</svg>
