<svg width="256" height="256" viewBox="0 0 256 256" fill="none" xmlns="http://www.w3.org/2000/svg">
<g clip-path="url(#clip0_741_46)">
<circle cx="128" cy="128" r="128" fill="white"/>
<path d="M138.971 2.48678C132.936 -0.989735 123.071 -0.989735 117.062 2.48678L24.9741 55.562C18.9327 59.0386 14 67.573 14 74.5328V180.723C14 187.676 18.9327 196.217 24.9741 199.701L117.036 252.789C123.071 256.265 132.936 256.265 138.944 252.789L231.039 199.694C237.067 196.211 242 187.683 242 180.717V74.5461C242 67.5863 237.067 59.0518 231.039 55.5754L138.971 2.48678Z" fill="white"/>
<path d="M137.079 25.6158C132.084 22.7534 123.92 22.7534 118.948 25.6158L42.7365 69.3172C37.7367 72.1798 33.6545 79.207 33.6545 84.9375V172.373C33.6545 178.098 37.7367 185.131 42.7365 187.999L118.926 231.712C123.92 234.575 132.084 234.575 137.057 231.712L213.273 187.993C218.262 185.125 222.344 178.104 222.344 172.368V84.9485C222.344 79.218 218.262 72.1908 213.273 69.3282L137.079 25.6158Z" fill="#87F96E"/>
<path style="mix-blend-mode:overlay" d="M137.079 25.6158C132.084 22.7534 123.92 22.7534 118.948 25.6158L42.7365 69.3172C37.7367 72.1798 33.6545 79.207 33.6545 84.9375V172.373C33.6545 178.098 37.7367 185.131 42.7365 187.999L118.926 231.712C123.92 234.575 132.084 234.575 137.057 231.712L213.273 187.993C218.262 185.125 222.344 178.104 222.344 172.368V84.9485C222.344 79.218 218.262 72.1908 213.273 69.3282L137.079 25.6158Z" fill="url(#paint0_linear_741_46)"/>
<path d="M135.568 69.7779C135.568 66.0638 132.557 63.053 128.843 63.053C125.129 63.053 122.118 66.0638 122.118 69.7779V192.756C122.118 196.47 125.129 199.481 128.843 199.481C132.557 199.481 135.568 196.47 135.568 192.756V69.7779Z" fill="#062F4F"/>
<path d="M188.442 129.306C187.554 127.779 186.097 126.664 184.39 126.207C182.683 125.75 180.865 125.987 179.333 126.867L135.246 152.322V167.706L186.003 138.405C187.527 137.517 188.639 136.062 189.096 134.358C189.553 132.654 189.318 130.838 188.442 129.306Z" fill="#062F4F"/>
<path d="M68.8868 130.229C69.7748 128.701 71.2313 127.587 72.9382 127.13C74.6453 126.673 76.4637 126.91 77.9963 127.79L122.082 153.245V168.629L71.3262 139.328C69.8013 138.44 68.6893 136.985 68.2323 135.281C67.7754 133.577 68.0107 131.761 68.8868 130.229Z" fill="#062F4F"/>
<path d="M188.442 94.649C187.554 93.1212 186.097 92.0069 184.39 91.5498C182.683 91.0928 180.865 91.3299 179.333 92.2096L135.246 117.659V133.043L186.003 103.758C187.53 102.87 188.644 101.414 189.102 99.707C189.559 97.9999 189.322 96.1815 188.442 94.649Z" fill="#062F4F"/>
<path d="M68.8841 95.5741C69.7721 94.0465 71.2282 92.9322 72.9349 92.4742C74.6415 92.0161 76.4599 92.2515 77.9936 93.1291L122.08 118.584V133.968L71.3235 104.662C69.8005 103.775 68.6895 102.322 68.2327 100.62C67.7758 98.9181 68.0099 97.1044 68.8841 95.5741Z" fill="#062F4F"/>
</g>
<defs>
<linearGradient id="paint0_linear_741_46" x1="128.002" y1="23.4676" x2="128.002" y2="233.859" gradientUnits="userSpaceOnUse">
<stop stop-color="white"/>
<stop offset="0.98" stop-color="#389E20"/>
<stop offset="1"/>
</linearGradient>
<clipPath id="clip0_741_46">
<rect width="256" height="256" fill="white"/>
</clipPath>
</defs>
</svg>
