<svg width="256" height="256" viewBox="0 0 256 256" fill="none" xmlns="http://www.w3.org/2000/svg">
<g clip-path="url(#clip0_2571_3789)">
<mask id="mask0_2571_3789" style="mask-type:luminance" maskUnits="userSpaceOnUse" x="0" y="0" width="256" height="256">
<path d="M256 0H0V256H256V0Z" fill="white"/>
</mask>
<g mask="url(#mask0_2571_3789)">
<path fill-rule="evenodd" clip-rule="evenodd" d="M0 128C0 198.693 57.3077 256 128 256V0C57.3077 0 0 57.3077 0 128Z" fill="#10B981"/>
<path d="M128 256C198.693 256 256 198.693 256 128C256 57.3077 198.693 0 128 0V256Z" fill="#6366F1"/>
<path d="M127.984 32V102.96L187.96 129.76L127.984 32Z" fill="white" fill-opacity="0.602"/>
<path d="M127.984 32L68 129.76L127.984 102.96V32Z" fill="white"/>
<path d="M127.984 175.744V223.959L187.999 140.928L127.984 175.744Z" fill="white" fill-opacity="0.602"/>
<path d="M127.984 223.959V175.735L68 140.928L127.984 223.959Z" fill="white"/>
<path d="M127.984 164.584L187.96 129.76L127.984 102.976V164.584Z" fill="white" fill-opacity="0.2"/>
<path d="M68 129.76L127.984 164.584V102.976L68 129.76Z" fill="white" fill-opacity="0.602"/>
</g>
</g>
<defs>
<clipPath id="clip0_2571_3789">
<rect width="256" height="256" fill="white"/>
</clipPath>
</defs>
</svg>
