<svg width="256" height="256" viewBox="0 0 256 256" fill="none" xmlns="http://www.w3.org/2000/svg">
<path d="M128.128 240.921C190.422 240.921 240.922 190.422 240.922 128.128C240.922 65.8334 190.422 15.334 128.128 15.334C65.8338 15.334 15.3344 65.8334 15.3344 128.128C15.3344 190.422 65.8338 240.921 128.128 240.921Z" fill="url(#paint0_linear_1765_71)"/>
<path d="M128.128 17.152C143.104 17.152 157.645 20.096 171.315 25.856C184.525 31.4368 196.403 39.4496 206.592 49.6384C216.781 59.8272 224.794 71.7056 230.374 84.9152C236.16 98.5856 239.078 113.126 239.078 128.102C239.078 143.078 236.134 157.619 230.374 171.29C224.794 184.499 216.781 196.378 206.592 206.566C196.403 216.755 184.525 224.768 171.315 230.349C157.645 236.134 143.104 239.053 128.128 239.053C113.152 239.053 98.6112 236.109 84.9408 230.349C71.7312 224.768 59.8528 216.755 49.664 206.566C39.4752 196.378 31.4624 184.499 25.8816 171.29C20.096 157.645 17.152 143.104 17.152 128.128C17.152 113.152 20.096 98.6112 25.856 84.9408C31.4368 71.7312 39.4496 59.8528 49.6384 49.664C59.8272 39.4752 71.7056 31.4624 84.9152 25.8816C98.6112 20.096 113.152 17.152 128.128 17.152ZM128.128 1.79199C58.3424 1.79199 1.79199 58.3424 1.79199 128.128C1.79199 197.914 58.3424 254.464 128.128 254.464C197.914 254.464 254.464 197.914 254.464 128.128C254.464 58.3424 197.914 1.79199 128.128 1.79199Z" fill="url(#paint1_linear_1765_71)"/>
<path d="M148.173 207.539H57.6768V183.193H148.173C160.998 183.193 171.827 175.411 171.827 166.195V130.176H196.173V166.195C196.173 189.005 174.643 207.539 148.173 207.539Z" fill="white"/>
<path d="M81.4336 129.561H57.088V94.9756C57.088 68.5052 78.6176 46.9756 105.088 46.9756H196.378V71.3212H105.114C92.0576 71.3212 81.4592 81.9452 81.4592 94.9756V129.561H81.4336Z" fill="white"/>
<path d="M137.114 79.5391C141.466 79.5391 145.434 79.9999 149.069 80.9215C152.678 81.8431 156.186 83.1231 159.565 84.7615L153.293 99.5071C150.323 98.2015 147.584 97.1775 145.075 96.4351C142.541 95.6927 139.904 95.3343 137.114 95.3343C131.968 95.3343 127.718 96.8447 124.314 99.8399C120.909 102.835 118.733 107.161 117.786 112.819H143.514V124.057H116.89C116.89 124.416 116.864 124.851 116.813 125.44C116.762 126.003 116.736 126.669 116.736 127.462C116.736 128.153 116.736 128.819 116.736 129.408C116.736 130.022 116.787 130.662 116.864 131.353H139.443V142.72H117.914C120.013 153.088 126.822 158.259 138.419 158.259C141.722 158.259 144.845 157.926 147.763 157.286C150.682 156.646 153.395 155.75 155.93 154.598V170.905C153.498 172.134 150.784 173.056 147.763 173.721C144.768 174.361 141.261 174.694 137.267 174.694C127.078 174.694 118.605 171.929 111.821 166.4C105.037 160.87 100.736 152.985 98.8928 142.72H90.112V131.353H97.6896C97.5104 130.125 97.4336 128.819 97.4336 127.437C97.4336 126.745 97.4336 126.08 97.4336 125.491C97.4336 124.877 97.4848 124.416 97.5616 124.057H90.112V112.819H98.5856C99.712 105.856 102.016 99.8911 105.498 94.9247C108.979 89.9583 113.408 86.1695 118.81 83.5071C124.237 80.8703 130.33 79.5391 137.114 79.5391Z" fill="white"/>
<defs>
<linearGradient id="paint0_linear_1765_71" x1="128.128" y1="240.928" x2="128.128" y2="15.3276" gradientUnits="userSpaceOnUse">
<stop stop-color="#243E90"/>
<stop offset="1" stop-color="#4554A5"/>
</linearGradient>
<linearGradient id="paint1_linear_1765_71" x1="128.128" y1="1.79199" x2="128.128" y2="254.464" gradientUnits="userSpaceOnUse">
<stop stop-color="#FAED24"/>
<stop offset="1" stop-color="#F0B322"/>
</linearGradient>
</defs>
</svg>
