<svg width="256" height="256" viewBox="0 0 256 256" fill="none" xmlns="http://www.w3.org/2000/svg">
<mask id="mask0_2559_1663" style="mask-type:luminance" maskUnits="userSpaceOnUse" x="0" y="0" width="256" height="256">
<path d="M256 0H0V256H256V0Z" fill="white"/>
</mask>
<g mask="url(#mask0_2559_1663)">
<path d="M127.837 256C198.438 256 255.674 198.692 255.674 128C255.674 57.3075 198.438 0 127.837 0C57.2344 0 0 57.3075 0 128C0 198.692 57.2344 256 127.837 256Z" fill="white"/>
<path fill-rule="evenodd" clip-rule="evenodd" d="M0 128C0 198.693 57.2347 256 127.837 256C145.866 256 163.025 252.262 178.58 245.519C171.948 244.813 165.82 243.858 160.196 242.657C146.647 239.735 134.227 235.284 122.936 229.308C99.4237 216.823 82.8855 198.563 73.3213 174.523H30.6808L43.6324 143.841H65.7496C64.9526 137.466 64.5541 131.423 64.5541 125.711C64.5541 119.868 64.7534 114.621 65.1519 109.972H30.6808L43.6324 79.4906H71.3288C80.096 53.7247 96.3685 33.8684 120.146 19.9226C132.388 12.6801 145.715 7.41235 160.129 4.11917C149.814 1.43078 138.993 0 127.837 0C57.2347 0 0 57.3082 0 128ZM203.26 24.6417C163.973 29.6864 124.88 45.9907 110.34 79.4906H228.74L215.589 109.972H102.811C102.28 114.488 102.014 120 102.014 126.509C102.014 133.016 102.545 138.794 103.608 143.841H200.047L186.898 174.523H115.763C131.912 201.179 173.096 218.492 216.207 220.492C240.527 197.188 255.672 164.365 255.672 128C255.672 85.5514 235.036 47.9286 203.26 24.6417Z" fill="url(#paint0_linear_2559_1663)"/>
</g>
<defs>
<linearGradient id="paint0_linear_2559_1663" x1="68.5307" y1="134.857" x2="192.878" y2="22.6921" gradientUnits="userSpaceOnUse">
<stop stop-color="#15BCFF"/>
<stop offset="0.485357" stop-color="#3073EC"/>
<stop offset="1" stop-color="#B030EC"/>
</linearGradient>
</defs>
</svg>
