<svg width="256" height="256" viewBox="0 0 256 256" fill="none" xmlns="http://www.w3.org/2000/svg">
<g clip-path="url(#clip0_1765_86)">
<mask id="mask0_1765_86" style="mask-type:luminance" maskUnits="userSpaceOnUse" x="0" y="0" width="256" height="256">
<path d="M256 0H0V256H256V0Z" fill="white"/>
</mask>
<g mask="url(#mask0_1765_86)">
<mask id="mask1_1765_86" style="mask-type:alpha" maskUnits="userSpaceOnUse" x="0" y="0" width="256" height="256">
<path d="M256 128C256 57.3075 198.692 0 128 0C57.3075 0 0 57.3075 0 128C0 198.692 57.3075 256 128 256C198.692 256 256 198.692 256 128Z" fill="#D9D9D9"/>
</mask>
<g mask="url(#mask1_1765_86)">
<path d="M256 128C256 57.3075 198.692 0 128 0C57.3075 0 0 57.3075 0 128C0 198.692 57.3075 256 128 256C198.692 256 256 198.692 256 128Z" fill="white"/>
<path fill-rule="evenodd" clip-rule="evenodd" d="M222.5 128C222.5 180.191 180.191 222.5 128 222.5C75.8092 222.5 33.5 180.191 33.5 128C33.5 75.8092 75.8092 33.5 128 33.5C180.191 33.5 222.5 75.8092 222.5 128ZM240 128C240 189.856 189.856 240 128 240C66.144 240 16 189.856 16 128C16 66.144 66.144 16 128 16C189.856 16 240 66.144 240 128ZM136.75 62.5284V49.25H119.25V62.1428C117.938 62.3628 116.633 62.6384 115.338 62.9708C107.463 64.9908 100.246 69.024 94.3852 74.6724C88.5244 80.32 84.2188 87.3916 81.8788 95.1976C79.5392 103.003 79.2428 111.284 81.0188 119.238C82.7948 127.192 86.5836 134.555 92.024 140.61C96.776 145.901 102.648 150.037 109.196 152.722C109.387 153.507 109.639 154.28 109.951 155.032C111.145 157.911 113.165 160.371 115.757 162.1C118.349 163.83 121.396 164.752 124.512 164.75C128.684 164.744 132.683 163.084 135.634 160.134C138.584 157.183 140.244 153.184 140.25 149.012C140.252 145.896 139.33 142.849 137.6 140.257C135.871 137.665 133.411 135.645 130.532 134.451C127.654 133.258 124.486 132.945 121.43 133.552C119.179 133.999 117.063 134.931 115.224 136.271C111.361 134.585 107.886 132.081 105.042 128.916C101.615 125.101 99.2212 120.454 98.0984 115.424C96.9752 110.394 97.1624 105.157 98.642 100.222C100.121 95.288 102.84 90.8284 106.529 87.2728C110.218 83.718 114.751 81.188 119.687 79.9216C124.622 78.6556 129.799 78.6944 134.716 80.0352C139.632 81.376 144.128 83.9744 147.763 87.5852C151.399 91.1956 154.052 95.6964 155.457 100.653L172.293 95.8792C170.07 88.0388 165.87 80.9036 160.095 75.168C154.319 69.432 147.164 65.2908 139.319 63.1516C138.468 62.9192 137.611 62.7116 136.75 62.5284ZM126.25 125.375C122.789 125.375 119.406 124.349 116.528 122.426C113.65 120.503 111.406 117.77 110.082 114.572C108.758 111.374 108.411 107.856 109.086 104.461C109.762 101.066 111.428 97.948 113.876 95.5008C116.323 93.0532 119.441 91.3864 122.836 90.7112C126.231 90.0364 129.749 90.3828 132.947 91.7072C136.144 93.0316 138.878 95.2748 140.8 98.1528C142.004 99.9524 142.856 101.95 143.325 104.041C147.787 105.877 151.962 108.371 155.694 111.456C161.991 116.661 166.821 123.379 169.685 130.975C172.549 138.572 173.34 146.77 171.972 154.764C170.604 162.757 167.131 170.245 161.917 176.509C156.705 182.77 149.935 187.593 142.282 190.538C139.908 191.452 137.473 192.176 135 192.708V206.75H117.5V193.286C109.612 192.128 102.124 189.07 95.7276 184.362C89.1432 179.517 83.932 173.082 80.6308 165.662L96.6192 158.548C98.666 163.149 101.922 167.193 106.1 170.268C110.28 173.344 115.235 175.339 120.487 176.034C125.74 176.729 131.085 176.096 135.996 174.206C140.906 172.316 145.196 169.243 148.466 165.313C151.736 161.386 153.881 156.733 154.723 151.813C155.565 146.894 155.081 141.845 153.31 137.148C151.538 132.448 148.53 128.239 144.545 124.945C142.557 123.302 140.361 121.916 138.014 120.817C134.802 123.737 130.611 125.368 126.25 125.375Z" fill="black"/>
</g>
</g>
</g>
<defs>
<clipPath id="clip0_1765_86">
<rect width="256" height="256" fill="white"/>
</clipPath>
</defs>
</svg>
