<svg width="256" height="256" viewBox="0 0 256 256" fill="none" xmlns="http://www.w3.org/2000/svg">
<g clip-path="url(#clip0_1704_160)">
<mask id="mask0_1704_160" style="mask-type:luminance" maskUnits="userSpaceOnUse" x="0" y="0" width="256" height="256">
<path d="M256 0H0V256H256V0Z" fill="white"/>
</mask>
<g mask="url(#mask0_1704_160)">
<path d="M128 256C198.693 256 256 198.693 256 128C256 57.3077 198.693 0 128 0C57.3077 0 0 57.3077 0 128C0 198.693 57.3077 256 128 256Z" fill="#FFAA1D"/>
<path d="M127.999 236.308C187.816 236.308 236.307 187.817 236.307 128.001C236.307 68.184 187.816 19.6929 127.999 19.6929C68.1821 19.6929 19.691 68.184 19.691 128.001C19.691 187.817 68.1821 236.308 127.999 236.308Z" fill="#242A47"/>
<path d="M128.001 216.616C176.942 216.616 216.616 176.942 216.616 128.001C216.616 79.0599 176.942 39.3853 128.001 39.3853C79.0599 39.3853 39.3853 79.0599 39.3853 128.001C39.3853 176.942 79.0599 216.616 128.001 216.616Z" fill="white"/>
</g>
<path d="M85.0001 117.799H146.6" stroke="#242A47" stroke-width="12" stroke-linecap="round" stroke-linejoin="round"/>
<path d="M85.0001 138.333H131.2" stroke="#242A47" stroke-width="12" stroke-linecap="round" stroke-linejoin="round"/>
<path d="M162 97.2668C154.696 90.6327 145.174 86.9706 135.307 87.0002C129.981 87.0672 124.721 88.1826 119.826 90.2827C114.932 92.3828 110.499 95.4265 106.781 99.24C103.063 103.053 100.132 107.562 98.1564 112.508C96.1809 117.454 95.199 122.741 95.2668 128.067C95.2668 150.653 113.233 169.133 135.307 169.133C145.573 169.133 154.813 165.027 162 158.867" stroke="#242A47" stroke-width="12" stroke-linecap="round" stroke-linejoin="round"/>
</g>
<defs>
<clipPath id="clip0_1704_160">
<rect width="256" height="256" fill="white"/>
</clipPath>
</defs>
</svg>
