<svg width="256" height="256" viewBox="0 0 256 256" fill="none" xmlns="http://www.w3.org/2000/svg">
<g clip-path="url(#clip0_2551_333)">
<path d="M224.384 212.214C245.937 187.55 258.078 154.654 255.705 119.394C250.949 48.8665 189.923 -4.4603 119.395 0.295397C84.1356 2.66832 53.1694 19.1114 31.6162 43.7859L224.384 212.224V212.214Z" fill="#34C53A"/>
<path d="M50.8853 60.5933C50.8853 60.5933 50.8755 60.6031 50.8656 60.613L31.6066 43.7859C10.0632 68.4505 -2.07714 101.337 0.295788 136.606C5.05148 207.134 66.078 260.46 136.606 255.705C171.875 253.332 202.831 236.879 224.384 212.214L50.8853 60.5933Z" fill="#0D89EB"/>
<path d="M233.6 120.852C229.671 62.5329 179.2 18.4319 120.881 22.3606C91.7167 24.3298 66.1167 37.9273 48.2952 58.3187C30.4736 78.7199 20.4305 105.915 22.3998 135.079C26.3284 193.398 76.7998 237.499 135.119 233.57C164.283 231.601 189.883 218.004 207.704 197.612C225.526 177.211 235.569 150.016 233.6 120.852Z" fill="black"/>
<path d="M75.3818 82.1169V85.9471V93.5976V97.4277H84.9523V93.5976H171.047V97.4277H180.618V93.5976V82.1169H75.3818Z" fill="white"/>
<path d="M91.6475 119.867V122.299V133.78V136.133H101.208V133.78H155.746V136.133H165.307V119.867H155.746V122.299H101.208V119.867H91.6475Z" fill="white"/>
<path d="M180.618 158.651H171.047V162.481H84.9523V158.651H75.3818V162.481V170.132V173.962H180.618V162.481V158.651Z" fill="white"/>
</g>
<defs>
<clipPath id="clip0_2551_333">
<rect width="256" height="256" fill="white"/>
</clipPath>
</defs>
</svg>
