<svg width="256" height="256" viewBox="0 0 256 256" fill="none" xmlns="http://www.w3.org/2000/svg">
<path d="M126.517 253.035C196.391 253.035 253.035 196.391 253.035 126.517C253.035 56.6438 196.391 0 126.517 0C56.6438 0 0 56.6438 0 126.517C0 196.391 56.6438 253.035 126.517 253.035Z" fill="url(#paint0_linear_1907_5883)"/>
<path opacity="0.75" d="M170.576 158.235L151.14 188.832H127.826L160.197 146.648L127.637 104.532H150.114L170.562 132.371H171.082L190.457 104.532H211.916L180.894 146.655L211.916 188.832H190.133L171.095 158.235H170.576Z" fill="white"/>
<path opacity="0.25" d="M184.974 141.165L180.927 146.695L171.021 132.405H171.095L174.999 126.78L184.974 141.165Z" fill="black"/>
<path d="M115.868 169.949H83.9625C77.0229 169.949 71.3175 168.168 67.0216 164.668C64.9548 163.035 63.2976 160.943 62.1819 158.557C61.0662 156.171 60.5226 153.557 60.5946 150.924C60.5946 144.699 62.8605 140.188 67.5071 137.139C72.1538 134.091 79.5991 132.52 89.5465 132.52H108.47V115.525H89.5465C81.4537 115.525 74.7907 113.866 69.7529 110.588C64.7151 107.311 62.3008 102.873 62.3008 96.9654C62.3008 91.9343 64.0138 88.07 67.3925 85.5006C70.7712 82.9311 75.8765 81.5351 82.4181 81.5351H115.889V64.1963H80.0847C68.7143 64.1963 59.5695 66.9613 52.9064 72.4105C46.2433 77.8596 42.7904 85.4331 42.7904 94.8073C42.7904 101.416 44.3618 107.304 47.464 112.301C50.3631 116.962 54.5647 120.671 59.5492 122.97C54.1719 124.842 49.5224 128.363 46.2636 133.032C42.8376 137.989 41.0977 144.167 41.0977 151.41C41.0977 162.321 45.1441 171.136 53.1424 177.603C61.1408 184.071 71.6142 187.294 84.4278 187.294L115.916 187.369L115.868 169.949Z" fill="white" stroke="white" stroke-width="5" stroke-miterlimit="10"/>
<path opacity="0.25" d="M82.8373 134.455C82.6552 134.745 71.413 131.656 66.3213 129.06C62.6887 127.181 59.169 125.091 55.7804 122.801C53.7726 123.729 51.8971 124.92 50.2031 126.342C54.329 129.671 59.0941 132.118 64.2037 133.531C73.0383 135.966 82.8373 134.455 82.8373 134.455Z" fill="black"/>
<defs>
<linearGradient id="paint0_linear_1907_5883" x1="128.399" y1="-19.8813" x2="124.285" y2="300.749" gradientUnits="userSpaceOnUse">
<stop stop-color="#208FFF"/>
<stop offset="1" stop-color="#2D65FF"/>
</linearGradient>
</defs>
</svg>
