<svg width="256" height="256" viewBox="0 0 256 256" fill="none" xmlns="http://www.w3.org/2000/svg">
<g clip-path="url(#clip0_2494_226)">
<path d="M128 256C198.692 256 256 198.692 256 128C256 57.3075 198.692 0 128 0C57.3075 0 0 57.3075 0 128C0 198.692 57.3075 256 128 256Z" fill="#516AFF"/>
<path d="M150.4 92.8L172.8 105.6V41.5999L128 19.2L58.4004 58.4V197.6L128 237.6L196.8 196.8V128L130.4 88L108 99.2L174.4 138.4L175.2 185.6L128 212L80.0004 184.8V69.5999L128 43.2L150.4 55.2V92.8Z" fill="white"/>
<path d="M125.6 131.2L140.8 123.2L157.6 133.6L108 161.6V104L125.6 114.4" fill="white"/>
</g>
<defs>
<clipPath id="clip0_2494_226">
<rect width="256" height="256" fill="white"/>
</clipPath>
</defs>
</svg>
