<svg width="256" height="256" viewBox="0 0 256 256" fill="none" xmlns="http://www.w3.org/2000/svg">
<g clip-path="url(#clip0_2529_783)">
<mask id="mask0_2529_783" style="mask-type:luminance" maskUnits="userSpaceOnUse" x="0" y="0" width="256" height="256">
<path d="M256 0H0V256H256V0Z" fill="white"/>
</mask>
<g mask="url(#mask0_2529_783)">
<path d="M256 128C256 57.3075 198.692 0 128 0C57.3075 0 0 57.3075 0 128C0 198.692 57.3075 256 128 256C198.692 256 256 198.692 256 128Z" fill="white"/>
</g>
<path fill-rule="evenodd" clip-rule="evenodd" d="M175.573 123.053C175.573 149.247 154.379 170.477 128.231 170.477C102.082 170.477 80.8936 149.242 80.8936 123.053C80.8936 82.8742 127.063 33 128.231 33C129.399 33 175.573 82.8742 175.573 123.053ZM156.419 123.057C156.419 138.652 143.799 151.295 128.231 151.295C112.663 151.295 100.043 138.652 100.043 123.057C100.043 107.462 112.43 95.0518 127.797 94.8191V123.924C127.797 123.924 145.66 116.756 154.384 112.472C155.707 115.743 156.433 119.311 156.433 123.053L156.428 123.057H156.419Z" fill="url(#paint0_linear_2529_783)"/>
<path d="M117.603 198.491L194.278 190.265C195.167 198.656 194.962 207.156 193.639 215.505L117.283 210.765C117.931 206.706 118.042 202.578 117.603 198.491Z" fill="url(#paint1_linear_2529_783)"/>
<path d="M137.698 176.047L62.0908 191.25C63.7525 199.534 66.4969 207.563 70.2534 215.131L141.672 187.659C139.841 183.979 138.503 180.073 137.694 176.043L137.698 176.047Z" fill="url(#paint2_linear_2529_783)"/>
</g>
<defs>
<linearGradient id="paint0_linear_2529_783" x1="127.537" y1="35.8516" x2="128.605" y2="169.669" gradientUnits="userSpaceOnUse">
<stop stop-color="#FF05FF"/>
<stop offset="0.56" stop-color="#8323FF"/>
<stop offset="0.76" stop-color="#8F00FF"/>
<stop offset="0.98" stop-color="#4E68FF"/>
</linearGradient>
<linearGradient id="paint1_linear_2529_783" x1="210.899" y1="191.282" x2="133.307" y2="213.343" gradientUnits="userSpaceOnUse">
<stop stop-color="#DFB6FF"/>
<stop offset="0.49" stop-color="#8F00FF"/>
<stop offset="0.99" stop-color="#5263FF"/>
</linearGradient>
<linearGradient id="paint2_linear_2529_783" x1="132.871" y1="193.034" x2="47.933" y2="200.567" gradientUnits="userSpaceOnUse">
<stop stop-color="#5263FF"/>
<stop offset="0.46" stop-color="#8F00FF"/>
<stop offset="0.99" stop-color="#DFB6FF"/>
</linearGradient>
<clipPath id="clip0_2529_783">
<rect width="256" height="256" fill="white"/>
</clipPath>
</defs>
</svg>
