<svg width="256" height="256" viewBox="0 0 256 256" fill="none" xmlns="http://www.w3.org/2000/svg">
<g clip-path="url(#clip0_2487_112)">
<path d="M128 256C198.692 256 256 198.692 256 128C256 57.3076 198.692 0 128 0C57.3076 0 0 57.3076 0 128C0 198.692 57.3076 256 128 256Z" fill="#FFE4E4"/>
<path d="M103.67 117.625H88.7386C88.4659 115.693 87.9091 113.977 87.0682 112.477C86.2273 110.955 85.1477 109.659 83.8295 108.591C82.5114 107.523 80.9886 106.705 79.2614 106.136C77.5568 105.568 75.7045 105.284 73.7045 105.284C70.0909 105.284 66.9432 106.182 64.2614 107.977C61.5795 109.75 59.5 112.341 58.0227 115.75C56.5455 119.136 55.8068 123.25 55.8068 128.091C55.8068 133.068 56.5455 137.25 58.0227 140.636C59.5227 144.023 61.6136 146.58 64.2955 148.307C66.9773 150.034 70.0795 150.898 73.6023 150.898C75.5795 150.898 77.4091 150.636 79.0909 150.114C80.7955 149.591 82.3068 148.83 83.625 147.83C84.9432 146.807 86.0341 145.568 86.8977 144.114C87.7841 142.659 88.3977 141 88.7386 139.136L103.67 139.205C103.284 142.409 102.318 145.5 100.773 148.477C99.25 151.432 97.1932 154.08 94.6023 156.42C92.0341 158.739 88.9659 160.58 85.3977 161.943C81.8523 163.284 77.8409 163.955 73.3636 163.955C67.1364 163.955 61.5682 162.545 56.6591 159.727C51.7727 156.909 47.9091 152.83 45.0682 147.489C42.25 142.148 40.8409 135.682 40.8409 128.091C40.8409 120.477 42.2727 114 45.1364 108.659C48 103.318 51.8864 99.25 56.7955 96.4545C61.7045 93.6364 67.2273 92.2273 73.3636 92.2273C77.4091 92.2273 81.1591 92.7955 84.6136 93.9318C88.0909 95.0682 91.1705 96.7273 93.8523 98.9091C96.5341 101.068 98.7159 103.716 100.398 106.852C102.102 109.989 103.193 113.58 103.67 117.625ZM114.256 163V93.1818H129.017V121.989H158.983V93.1818H173.71V163H158.983V134.159H129.017V163H114.256ZM213.767 110.636V121.545H181.449V110.636H213.767ZM188.847 163V106.852C188.847 103.057 189.585 99.9091 191.062 97.4091C192.562 94.9091 194.608 93.0341 197.199 91.7841C199.79 90.5341 202.733 89.9091 206.028 89.9091C208.256 89.9091 210.29 90.0795 212.131 90.4205C213.994 90.7614 215.381 91.0682 216.29 91.3409L213.699 102.25C213.131 102.068 212.426 101.898 211.585 101.739C210.767 101.58 209.926 101.5 209.062 101.5C206.926 101.5 205.438 102 204.597 103C203.756 103.977 203.335 105.352 203.335 107.125V163H188.847Z" fill="#2B3954"/>
</g>
<defs>
<clipPath id="clip0_2487_112">
<rect width="256" height="256" fill="white"/>
</clipPath>
</defs>
</svg>
