<svg width="256" height="256" viewBox="0 0 256 256" fill="none" xmlns="http://www.w3.org/2000/svg">
<g clip-path="url(#clip0_2374_490)">
<path d="M128 256C198.692 256 256 198.692 256 128C256 57.3076 198.692 0 128 0C57.3076 0 0 57.3076 0 128C0 198.692 57.3076 256 128 256Z" fill="#FF4900"/>
<path d="M201 71.6094C201 84.6696 188.625 87.3812 188.625 87.3812L127.49 104.731C127.567 104.496 134.76 79.1809 146.357 75.834C157.955 72.4936 188.625 63.861 188.625 63.861C188.625 63.861 201.058 59.191 201 71.6028V71.6094ZM161.423 119.01C161.423 119.01 155.515 120.589 143.949 123.962C132.384 127.335 127.542 152.054 127.497 152.256L66.3813 169.607C66.3813 169.607 54.0002 172.305 54.0002 185.385C53.936 197.797 66.3749 193.147 66.3749 193.147C66.3749 193.147 99.376 183.682 110.948 180.309C122.514 176.936 127.433 152.499 127.497 152.276L161.519 142.543C161.519 142.543 173.894 140.035 173.894 126.988C173.894 113.94 161.429 119.003 161.429 119.003L161.423 119.01ZM81.0935 130.02C81.0935 142.386 93.4681 137.736 93.4681 137.736C93.4681 137.736 99.389 136.157 110.961 132.764C122.526 129.372 127.465 104.954 127.49 104.731L93.4681 114.464C93.4681 114.464 81.0935 116.973 81.0935 130.02Z" fill="white"/>
</g>
<defs>
<clipPath id="clip0_2374_490">
<rect width="256" height="256" fill="white"/>
</clipPath>
</defs>
</svg>
