<svg width="256" height="256" viewBox="0 0 256 256" fill="none" xmlns="http://www.w3.org/2000/svg">
<g clip-path="url(#clip0_2487_119)">
<path d="M128 256C198.692 256 256 198.692 256 128C256 57.3076 198.692 0 128 0C57.3076 0 0 57.3076 0 128C0 198.692 57.3076 256 128 256Z" fill="#FFE4E4"/>
<path d="M94.6705 117.625H79.7386C79.4659 115.693 78.9091 113.977 78.0682 112.477C77.2273 110.955 76.1477 109.659 74.8295 108.591C73.5114 107.523 71.9886 106.705 70.2614 106.136C68.5568 105.568 66.7045 105.284 64.7045 105.284C61.0909 105.284 57.9432 106.182 55.2614 107.977C52.5795 109.75 50.5 112.341 49.0227 115.75C47.5455 119.136 46.8068 123.25 46.8068 128.091C46.8068 133.068 47.5455 137.25 49.0227 140.636C50.5227 144.023 52.6136 146.58 55.2955 148.307C57.9773 150.034 61.0795 150.898 64.6023 150.898C66.5795 150.898 68.4091 150.636 70.0909 150.114C71.7955 149.591 73.3068 148.83 74.625 147.83C75.9432 146.807 77.0341 145.568 77.8977 144.114C78.7841 142.659 79.3977 141 79.7386 139.136L94.6705 139.205C94.2841 142.409 93.3182 145.5 91.7727 148.477C90.25 151.432 88.1932 154.08 85.6023 156.42C83.0341 158.739 79.9659 160.58 76.3977 161.943C72.8523 163.284 68.8409 163.955 64.3636 163.955C58.1364 163.955 52.5682 162.545 47.6591 159.727C42.7727 156.909 38.9091 152.83 36.0682 147.489C33.25 142.148 31.8409 135.682 31.8409 128.091C31.8409 120.477 33.2727 114 36.1364 108.659C39 103.318 42.8864 99.25 47.7955 96.4545C52.7045 93.6364 58.2273 92.2273 64.3636 92.2273C68.4091 92.2273 72.1591 92.7955 75.6136 93.9318C79.0909 95.0682 82.1705 96.7273 84.8523 98.9091C87.5341 101.068 89.7159 103.716 91.3977 106.852C93.1023 109.989 94.1932 113.58 94.6705 117.625ZM105.256 163V93.1818H120.017V121.989H149.983V93.1818H164.71V163H149.983V134.159H120.017V163H105.256ZM187.312 93.1818L201.733 128.364L191.744 135.932L172.176 93.1818H187.312ZM194.983 128.023L209.233 93.1818H224.369L204.699 135.932L194.983 128.023ZM205.381 126.25V163H190.79V126.25H205.381ZM219.153 127V135.42H175.926V127H219.153ZM219.153 140.5V148.92H175.926V140.5H219.153Z" fill="#2B3954"/>
</g>
<defs>
<clipPath id="clip0_2487_119">
<rect width="256" height="256" fill="white"/>
</clipPath>
</defs>
</svg>
