<svg width="256" height="256" viewBox="0 0 256 256" fill="none" xmlns="http://www.w3.org/2000/svg">
<circle cx="127" cy="128" r="125" fill="white"/>
<g clip-path="url(#clip0_741_46)">
<path d="M149.454 208.313C149.415 208.551 149.407 208.782 149.438 209.02H112.732C112.509 208.474 112.655 208.059 113.163 207.759C114.185 207.182 115.323 207.074 116.46 207.066C126.177 206.997 135.901 206.99 145.618 207.066C147.001 207.082 148.423 207.12 149.454 208.305V208.313Z" fill="#C3C3C3"/>
<path d="M112.749 208.382C112.741 208.597 112.733 208.813 112.733 209.02H89.0264C88.8035 208.482 88.942 208.067 89.4418 207.774C96.6675 206.39 103.94 207.029 111.196 207.397C111.834 207.428 112.357 207.851 112.749 208.382Z" fill="#ADADAD"/>
<path d="M88.9975 208.365C89.0124 208.581 89.0201 208.804 89.0279 209.019H85.2073C85.1923 208.781 85.1923 208.535 85.2073 208.288C86.4988 207.166 87.7672 207.135 89.0124 208.358L88.9975 208.365Z" fill="#DADADA"/>
<path d="M89.0165 209.206C87.7481 209.075 86.4875 208.867 85.2119 209.136C81.5833 208.206 77.8551 208.791 74.1807 208.444C70.8676 208.136 67.5929 207.759 64.495 206.468C58.845 204.114 56.2083 199.345 57.2077 193.276C57.5843 190.999 58.1839 188.738 59.3984 186.792C61.474 183.468 62.8192 179.684 65.771 176.9C67.0932 175.654 66.9702 173.892 66.878 172.215C66.2937 161.524 66.0016 150.801 65.0484 140.14C64.1875 130.51 65.133 121.072 66.4091 111.58C67.3622 104.511 68.2232 97.4351 68.6306 90.3043C68.915 85.3048 67.7312 80.7432 65.1561 76.4822C63.1113 73.0977 61.2895 69.5902 59.7674 65.9366C59.0833 64.2905 58.4068 62.6214 57.9994 60.8984C56.485 54.4218 60.5669 48.999 67.1931 48.899C72.6663 48.8144 78.1626 48.8452 83.6202 49.2528C110.21 51.2604 136.823 50.9758 163.443 50.3605C167.002 50.2759 170.538 49.6682 174.113 49.7221C180.931 49.8297 184.513 53.2219 184.644 60.083C184.767 66.4365 182.853 72.3978 180.57 78.2359C180.247 79.0589 179.824 79.8512 179.417 80.7205C182.022 90.297 184.752 99.8426 186.581 109.611C188.226 118.372 189.179 127.257 190.824 136.002C192.423 144.494 192.454 152.978 192.316 161.516C192.277 163.939 192.254 166.362 192.2 168.785C192.085 173.6 192.8 178 196.267 181.869C199.141 185.069 200.187 189.237 199.987 193.63C199.764 198.575 197.481 202.106 192.892 204.021C188.987 205.652 184.905 206.506 180.693 206.952C170.307 208.044 159.861 208.29 149.46 209.152C137.223 209.175 124.985 209.198 112.754 209.221C104.837 209.221 96.9191 209.214 89.0016 209.206H89.0165Z" fill="#242A33"/>
<path d="M82.1635 85.9192C83.4854 85.212 84.9077 85.5272 86.2914 85.5504C99.0133 85.8116 111.728 86.5656 124.465 86.4812C133.129 86.4271 141.746 85.5963 150.394 85.3119C156.859 85.0966 163.339 85.2733 169.934 85.2733C170.995 87.3965 171.241 89.8267 171.887 92.1343C176.046 107.01 178.221 122.248 179.927 137.563C180.366 141.478 180.858 145.393 181.188 149.324C181.381 151.6 181.603 153.947 181.288 156.185C180.266 163.577 180.696 170.922 181.619 178.268C182.979 183.776 182.318 184.791 176.891 185.599C167.867 186.929 158.919 188.675 149.879 189.914C144.636 190.629 139.24 187.468 137.556 182.722C138.279 180.837 140.063 180.784 141.631 180.391C159.933 175.807 172.387 159.269 173.017 140.47C173.77 118.372 156.582 97.1728 133.421 95.3958C117.609 94.1807 99.7823 102.357 92.3028 121.671C89.3892 129.202 88.4436 136.924 89.9194 144.939C90.2731 146.839 91.2954 148.908 89.7197 150.808C85.6685 150.162 83.7623 147.308 82.7014 143.747C82.2711 142.301 82.1017 140.717 82.1017 139.209C82.1017 122.279 80.5029 105.372 81.3872 88.4349C81.433 87.5268 81.5715 86.6656 82.1558 85.927L82.1635 85.9192Z" fill="#DABE70"/>
<path d="M137.962 182.23C138.109 185.076 141.029 185.315 142.467 186.968C143.259 187.884 144.535 188.368 145.903 189.253C157.549 187.914 169.295 185.53 180.987 183.776C182.001 181.8 181.294 179.976 181.617 178.261C182.878 180.476 184.569 182.346 186.26 184.237C188.482 186.715 190.342 189.422 189.735 192.822C188.113 194.722 186.068 194.683 184.246 194.914C165.351 197.306 146.38 199.191 127.323 198.775C116.024 198.529 104.724 198.275 93.4235 198.098C92.6704 198.083 91.8859 198.153 91.2558 197.591C84.8599 194.168 79.6175 189.276 74.3211 184.438C78.0648 177.623 77.7726 170.285 77.1192 162.893C77.0731 162.385 76.9578 161.885 76.9501 161.377C76.8425 149.178 75.2051 136.987 76.143 124.787C76.8578 115.434 78.2646 106.134 79.3792 96.8196C79.7098 94.0427 80.1174 91.2814 80.4633 88.5122C80.609 87.3585 80.6553 86.1738 82.1543 85.9121C82.1543 92.0118 81.6699 98.1578 82.2464 104.203C83.2919 115.103 82.5846 126.002 82.9383 136.894C83.0227 139.525 84.045 142.086 83.5225 145.617C85.0215 146.916 86.8356 148.494 88.6424 150.078C89.0496 150.432 89.4341 150.755 89.8104 150.055C91.8324 150.347 91.6553 152.239 92.186 153.516C97.7589 166.862 107.061 176.038 121.189 180.046C125.056 181.145 128.938 181.23 132.881 181.253C134.603 181.261 136.479 180.815 137.947 182.238L137.962 182.23Z" fill="#D49752"/>
<path d="M121.804 74.3041C110.374 74.6118 98.9428 74.6041 87.5197 74.381C84.7601 70.5043 82.4312 66.343 79.8327 62.3586C79.1794 61.3586 78.3799 60.2433 79.0871 58.8818C87.7045 59.0203 96.2908 59.751 104.892 60.3279C108.813 60.5894 112.749 60.5894 116.685 60.6125C127.085 60.6741 137.486 60.3279 147.887 60.8125C147.925 61.2817 147.725 61.6125 147.302 61.8125C145.696 62.4893 143.989 62.2048 142.329 62.3432C134.757 62.5047 127.17 61.9894 119.444 62.6662C119.406 66.9891 122.98 70.1812 121.812 74.3041H121.804Z" fill="#EBA113"/>
<path d="M121.804 74.3048C120.543 70.0589 118.998 65.913 116.738 61.2978C125.855 61.0056 134.273 60.9209 142.705 61.2978C145.849 65.0745 148.501 69.0897 148.616 74.251C139.677 74.5971 130.737 74.6202 121.804 74.3048Z" fill="#FDEDC3"/>
<path d="M157.165 60.735C163.137 60.1812 169.11 59.5966 175.276 60.3196C176.098 65.0655 174.399 68.8192 172.101 72.3344C171.255 73.6266 169.702 74.1573 168.096 74.1343C166.704 74.1189 165.321 74.065 163.929 74.0343C160.954 69.9653 158.364 65.7039 157.165 60.7273V60.735Z" fill="#EDC023"/>
<path d="M79.0809 58.8902C81.0181 63.4746 84.3466 67.2205 86.7372 71.5357C87.2679 72.4895 87.5134 73.3663 87.5134 74.3894C78.6889 74.8893 78.7811 76.6893 72.6622 67.3744C71.686 65.8899 70.7174 64.4053 69.7565 62.9131C69.0493 61.8208 68.5342 60.6901 69.2261 59.1671C72.3932 57.7056 75.7293 58.2595 79.0732 58.8902H79.0809Z" fill="#EEC023"/>
<path d="M74.3211 184.437C76.4428 184.468 77.6727 186.214 78.9949 187.345C82.8925 190.676 86.536 194.283 91.279 196.468C91.8169 196.714 91.8478 197.229 91.2481 197.591C85.4138 197.629 79.6329 197.006 73.8753 196.106C70.6621 195.606 69.732 194.152 70.7928 191.122C71.6307 188.737 72.8375 186.499 74.3135 184.43L74.3211 184.437Z" fill="#D8BC6E"/>
<path d="M157.165 60.7361C159.748 65.0051 162.192 69.3434 163.929 74.0431C160.624 74.4893 157.303 74.4893 153.982 74.2508C150.5 70.6202 148.432 66.3205 147.887 61.3054C148.017 61.1438 148.017 60.9823 147.887 60.8208C150.977 60.5823 154.075 60.5361 157.172 60.7438L157.165 60.7361Z" fill="#FDEDC2"/>
<path d="M147.879 61.2979C149.908 65.613 151.945 69.9281 153.975 74.2433C152.191 74.5125 150.4 74.5356 148.616 74.251C147.072 69.7358 144.596 65.6515 142.705 61.2979C144.435 61.2979 146.157 61.2979 147.887 61.2979H147.879Z" fill="#EEC126"/>
<path d="M137.964 182.229C131.261 182.229 124.627 182.529 118.07 180.114C103.818 174.852 94.786 164.945 90.3348 150.585C90.2659 150.377 89.9966 150.223 89.8201 150.054C89.0587 145.554 88.1131 141.108 88.2362 136.478C88.7437 117.817 100.928 99.5796 121.49 95.2724C135.866 92.2649 148.541 96.026 159.472 105.972C167.336 113.125 172.095 121.986 173.609 132.316C177.038 155.63 162.924 177.091 140.531 181.575C139.663 181.752 138.817 182.014 137.956 182.237L137.964 182.229Z" fill="#FE3939"/>
<path d="M125.015 170.56C122.609 172.429 120.049 172.106 117.636 170.706C97.5799 160.483 90.5003 129.623 108.111 113.901C136.123 85.4182 181.408 123.501 161.052 157.053C160.161 158.714 158.946 159.93 156.479 159.861C153.204 155.684 151.559 150.468 149.237 145.722C151.49 141.369 155.179 138.069 155.856 132.969C151.935 130.8 147.569 132.154 143.464 130.385C137.883 125.824 133.986 108.555 125.446 110.763C121.863 111.632 120.841 115.07 120.918 118.901C118.036 119.17 115.629 120.24 114.684 123.37C113.469 126.739 116.752 129.108 116.506 132.077C106.513 145.3 122.102 157.768 125.015 170.56Z" fill="#FEFEFE"/>
<path d="M134.77 145.7C132.118 145.762 130.181 143.739 130.058 140.785C129.95 138.177 132.118 135.939 134.816 135.87C137.23 135.808 139.597 138.27 139.613 140.854C139.628 143.538 137.53 145.638 134.77 145.7Z" fill="#FEFBFB"/>
</g>
<defs>
<clipPath id="clip0_741_46">
<rect width="143" height="161" fill="white" transform="translate(57 48)"/>
</clipPath>
</defs>
</svg>
