<svg width="256" height="256" viewBox="0 0 256 256" fill="none" xmlns="http://www.w3.org/2000/svg">
<g clip-path="url(#clip0_2379_523)">
<path d="M128 256C198.692 256 256 198.692 256 128C256 57.3076 198.692 0 128 0C57.3076 0 0 57.3076 0 128C0 198.692 57.3076 256 128 256Z" fill="#22996E"/>
<path d="M196.237 181H59.7634C51.7607 181 47 172.067 51.4622 165.424L91.7636 105.424C93.6211 102.659 96.7336 101 100.065 101H155.935C159.266 101 162.379 102.659 164.236 105.424L204.538 165.424C209 172.067 204.239 181 196.237 181Z" fill="white"/>
<path d="M133.055 48.901L147.682 71.7667C150.237 75.7604 147.369 81 142.628 81H113.373C108.632 81 105.764 75.7604 108.319 71.7667L122.946 48.901C125.306 45.212 130.695 45.212 133.055 48.901Z" fill="white"/>
</g>
<defs>
<clipPath id="clip0_2379_523">
<rect width="256" height="256" fill="white"/>
</clipPath>
</defs>
</svg>
