<svg width="256" height="256" viewBox="0 0 256 256" fill="none" xmlns="http://www.w3.org/2000/svg">
<g clip-path="url(#clip0_2668_25)">
<path d="M256 128C256 57.3076 198.692 0 128 0C57.3076 0 0 57.3076 0 128C0 198.692 57.3076 256 128 256C198.692 256 256 198.692 256 128Z" fill="white"/>
<path d="M27.8984 127.56C27.8984 115.172 37.9311 105.139 50.3197 105.139C62.7082 105.139 72.7409 95.1062 72.7409 82.7177C72.7409 70.3292 82.8142 60.2559 95.2027 60.2559C107.591 60.2559 117.624 70.2885 117.624 82.6771C117.624 95.0656 107.591 105.098 95.2027 105.098C82.8142 105.098 72.7815 115.131 72.7815 127.52C72.7815 139.908 82.8142 149.941 95.2027 149.941C107.591 149.941 117.624 159.973 117.624 172.362C117.624 184.751 107.591 194.783 95.2027 194.783C82.8142 194.783 72.7815 184.751 72.7815 172.362C72.7815 159.973 62.7488 149.941 50.3603 149.941C37.9717 149.941 27.8984 139.949 27.8984 127.56Z" fill="black"/>
<path d="M228.997 127.56C228.997 139.949 218.965 149.981 206.576 149.981C194.188 149.981 184.155 160.014 184.155 172.403C184.155 184.791 174.122 194.824 161.734 194.824C149.345 194.824 139.312 184.791 139.312 172.403C139.312 160.014 149.345 149.981 161.734 149.981C174.122 149.981 184.155 139.949 184.155 127.56C184.155 115.172 174.122 105.139 161.734 105.139C149.345 105.139 139.312 95.1062 139.312 82.7177C139.312 70.3292 149.305 60.2559 161.693 60.2559C174.082 60.2559 184.114 70.2885 184.114 82.6771C184.114 95.0656 194.147 105.098 206.536 105.098C218.965 105.139 228.997 115.172 228.997 127.56Z" fill="black"/>
<path d="M150.485 127.56C150.485 139.583 140.737 149.372 128.673 149.372C116.61 149.372 106.861 139.624 106.861 127.56C106.861 115.538 116.61 105.749 128.673 105.749C140.696 105.749 150.485 115.497 150.485 127.56Z" fill="black"/>
</g>
<defs>
<clipPath id="clip0_2668_25">
<rect width="256" height="256" fill="white"/>
</clipPath>
</defs>
</svg>
