<svg width="256" height="256" viewBox="0 0 256 256" fill="none" xmlns="http://www.w3.org/2000/svg">
<g clip-path="url(#clip0_2554_1503)">
<path d="M128 256C198.692 256 256 198.692 256 128C256 57.3076 198.692 0 128 0C57.3076 0 0 57.3076 0 128C0 198.692 57.3076 256 128 256Z" fill="white"/>
<path d="M190.662 86.5164C174.254 86.5164 159.593 92.9745 148.654 112.291C148.515 112.555 148.446 112.85 148.453 113.148C148.46 113.446 148.544 113.737 148.695 113.994C148.847 114.25 149.062 114.464 149.32 114.614C149.577 114.764 149.869 114.846 150.167 114.851H180.363C180.94 114.866 181.487 115.106 181.889 115.519C182.291 115.932 182.516 116.485 182.516 117.062V138.938C182.516 139.515 182.291 140.068 181.889 140.481C181.487 140.894 180.94 141.134 180.363 141.149H139.636C138.831 141.152 138.043 141.39 137.371 141.835C136.699 142.279 136.172 142.911 135.854 143.651C118.051 184.378 86.5162 193.222 68.4216 194.676C58.9292 195.429 49.3775 194.623 40.1453 192.291C39.9058 192.22 39.6501 192.229 39.4158 192.315C39.1815 192.401 38.981 192.56 38.8441 192.769C38.7072 192.978 38.6409 193.225 38.6552 193.474C38.6695 193.723 38.7636 193.961 38.9235 194.153C60.6253 222.604 88.8435 239.418 133.294 239.418C185.658 239.418 233.367 191.244 233.367 139.811C233.367 104.029 213.062 86.5164 190.662 86.5164Z" fill="url(#paint0_linear_2554_1503)"/>
<path d="M216.727 61.3818C195.084 33.2218 166.866 16.5818 122.706 16.5818C70.3419 16.5818 22.6328 64.7563 22.6328 116.189C22.6328 151.971 42.9383 169.135 65.3383 169.135C74.0483 169.409 82.6512 167.154 90.1063 162.641C97.5614 158.129 103.549 151.553 107.346 143.709C107.485 143.445 107.554 143.15 107.547 142.852C107.54 142.554 107.456 142.263 107.305 142.006C107.153 141.75 106.938 141.536 106.68 141.386C106.423 141.236 106.131 141.154 105.833 141.149H75.6364C75.0602 141.134 74.5127 140.894 74.1106 140.481C73.7085 140.068 73.4835 139.515 73.4837 138.938V117.062C73.4835 116.485 73.7085 115.932 74.1106 115.519C74.5127 115.106 75.0602 114.866 75.6364 114.851H116.364C117.169 114.848 117.957 114.61 118.629 114.165C119.301 113.721 119.828 113.089 120.146 112.349C137.949 71.6218 169.484 62.7781 187.578 61.3236C196.869 60.577 206.219 61.3234 215.273 63.5345C215.554 63.6375 215.861 63.6436 216.145 63.5517C216.43 63.4598 216.675 63.2752 216.843 63.0274C217.01 62.7797 217.09 62.483 217.069 62.1847C217.048 61.8865 216.928 61.6038 216.727 61.3818Z" fill="url(#paint1_linear_2554_1503)"/>
</g>
<defs>
<linearGradient id="paint0_linear_2554_1503" x1="38.6907" y1="162.967" x2="233.367" y2="162.967" gradientUnits="userSpaceOnUse">
<stop stop-color="#1B75BA"/>
<stop offset="0.17" stop-color="#2967B2"/>
<stop offset="0.72" stop-color="#543D99"/>
<stop offset="1" stop-color="#652D8F"/>
</linearGradient>
<linearGradient id="paint1_linear_2554_1503" x1="22.6328" y1="92.8581" x2="217.018" y2="92.8581" gradientUnits="userSpaceOnUse">
<stop stop-color="#1B75BA"/>
<stop offset="0.17" stop-color="#2967B2"/>
<stop offset="0.72" stop-color="#543D99"/>
<stop offset="1" stop-color="#652D8F"/>
</linearGradient>
<clipPath id="clip0_2554_1503">
<rect width="256" height="256" fill="white"/>
</clipPath>
</defs>
</svg>
