<svg width="256" height="256" viewBox="0 0 256 256" fill="none" xmlns="http://www.w3.org/2000/svg">
<g clip-path="url(#clip0_2487_122)">
<path d="M128 256C198.692 256 256 198.692 256 128C256 57.3076 198.692 0 128 0C57.3076 0 0 57.3076 0 128C0 198.692 57.3076 256 128 256Z" fill="#FFE4E4"/>
<path d="M152 111.955L147.5 121.909H86.7273L90.4091 111.955H152ZM143.318 131L138.364 141.182H86.7273L90.4091 131H143.318ZM163.818 87.0909L156.545 102.636C155.333 101.788 153.864 100.864 152.136 99.8636C150.439 98.8333 148.485 97.9697 146.273 97.2727C144.091 96.5455 141.667 96.1818 139 96.1818C134.788 96.1818 131.121 97.2424 128 99.3636C124.879 101.485 122.455 104.788 120.727 109.273C119.03 113.758 118.182 119.515 118.182 126.545C118.182 133.636 119.03 139.409 120.727 143.864C122.455 148.288 124.879 151.545 128 153.636C131.121 155.697 134.788 156.727 139 156.727C141.667 156.727 144.091 156.379 146.273 155.682C148.455 154.985 150.364 154.152 152 153.182C153.667 152.212 155.061 151.318 156.182 150.5L163.545 166.045C160.242 168.773 156.5 170.833 152.318 172.227C148.136 173.591 143.697 174.273 139 174.273C131.061 174.273 124.03 172.394 117.909 168.636C111.818 164.848 107.045 159.409 103.591 152.318C100.136 145.197 98.4091 136.606 98.4091 126.545C98.4091 116.515 100.136 107.924 103.591 100.773C107.045 93.6212 111.818 88.1515 117.909 84.3636C124.03 80.5455 131.061 78.6364 139 78.6364C143.879 78.6364 148.394 79.3636 152.545 80.8182C156.697 82.2727 160.455 84.3636 163.818 87.0909Z" fill="#2B3954"/>
</g>
<defs>
<clipPath id="clip0_2487_122">
<rect width="256" height="256" fill="white"/>
</clipPath>
</defs>
</svg>
