<svg width="256" height="256" viewBox="0 0 256 256" fill="none" xmlns="http://www.w3.org/2000/svg">
<g clip-path="url(#clip0_2379_498)">
<mask id="mask0_2379_498" style="mask-type:luminance" maskUnits="userSpaceOnUse" x="0" y="0" width="256" height="256">
<path d="M256 0H0V256H256V0Z" fill="white"/>
</mask>
<g mask="url(#mask0_2379_498)">
<path d="M128 256C110.723 256 93.9612 252.613 78.1746 245.939C62.9298 239.491 49.2474 230.261 37.4887 218.511C25.7391 206.762 16.5091 193.07 10.0608 177.825C3.38672 162.039 0 145.277 0 128C0 110.723 3.38672 93.9612 10.0608 78.1746C16.5091 62.9298 25.7391 49.2474 37.4887 37.4887C49.2474 25.7391 62.9298 16.5091 78.1746 10.0608C93.9612 3.38672 110.723 0 128 0C145.277 0 162.039 3.38672 177.825 10.0608C193.07 16.5091 206.753 25.7391 218.511 37.4887C230.261 49.2384 239.491 62.9298 245.939 78.1746C252.613 93.9612 256 110.723 256 128C256 145.277 252.613 162.039 245.939 177.825C239.491 193.07 230.261 206.753 218.511 218.511C206.762 230.261 193.07 239.491 177.825 245.939C162.039 252.622 145.277 256 128 256Z" fill="black"/>
<path d="M194.393 127.995C194.393 114.492 190.336 101.928 183.387 91.4297L204 70.818L185.462 52.2817L164.906 72.8369C154.351 65.7473 141.654 61.6062 128.009 61.6062C114.505 61.6062 101.94 65.6628 91.4415 72.6116L70.8193 52L52.2818 70.5364L72.8383 91.0916C65.7482 101.646 61.6068 114.342 61.6068 127.986C61.6068 141.489 65.6637 154.053 72.6129 164.552L52 185.172L70.5375 203.709L91.0941 183.154C101.649 190.243 114.346 194.384 127.991 194.384C141.495 194.384 154.06 190.328 164.559 183.379L185.18 204L203.718 185.463L183.162 164.908C190.252 154.335 194.393 141.64 194.393 127.995ZM87.8354 127.995C87.8354 105.843 105.856 87.8238 128.009 87.8238C150.163 87.8238 168.184 105.843 168.184 127.995C168.184 150.147 150.163 168.167 128.009 168.167C105.856 168.167 87.8354 150.147 87.8354 127.995Z" fill="white"/>
</g>
<path d="M45 84C39.7359 84 34.6288 82.968 29.8188 80.9345C25.1739 78.9699 21.0051 76.1576 17.4223 72.5776C13.8424 68.9978 11.0301 64.826 9.0654 60.1811C7.03189 55.3713 6 50.2641 6 45C6 39.7359 7.03189 34.6288 9.0654 29.8188C11.0301 25.1739 13.8424 21.0051 17.4223 17.4223C21.0051 13.8424 25.1739 11.0301 29.8188 9.0654C34.6288 7.03189 39.7359 6 45 6C50.2641 6 55.3713 7.03189 60.1811 9.0654C64.826 11.0301 68.9951 13.8424 72.5776 17.4223C76.1576 21.0023 78.9699 25.1739 80.9345 29.8188C82.968 34.6288 84 39.7359 84 45C84 50.2641 82.968 55.3713 80.9345 60.1811C78.9699 64.826 76.1576 68.9951 72.5776 72.5776C68.9978 76.1576 64.826 78.9699 60.1811 80.9345C55.3713 82.9708 50.2641 84 45 84Z" fill="#151516"/>
<path d="M72.1685 54.6576V48.4082C70.3885 52.8901 67.4579 56.0293 62.5671 57.5602V48.1618C61.1028 53.7904 55.8382 57.9579 49.5664 57.9579C43.2946 57.9579 38.0319 53.7904 36.5657 48.1618V57.9967C35.2582 58.0452 27.2006 57.6785 23.5979 48.5382V56.7065C19.6291 54.6363 17.357 51.6329 16.0535 47.7757V52.9658C12.0982 50.2185 11.8677 40.3642 16.0535 36.9456V42.186C17.2156 39.1496 18.7555 36.4741 21.3936 34.5552C22.0812 34.0508 22.8173 33.6181 23.592 33.2611V41.8213C26.8035 33.201 33.3968 31.9049 36.5676 32.0175V41.7961C38.0319 36.1675 43.2965 32 49.5683 32C55.8401 32 61.1048 36.1675 62.5691 41.7941V32.3783C67.485 33.946 70.4757 37.0717 72.1705 41.7184V34.9491C75.3955 37.6382 76.8346 40.7736 76.9877 44.4541C77.1581 48.546 75.564 51.9937 72.1685 54.6557V54.6576Z" fill="#FAFBFB"/>
</g>
<defs>
<clipPath id="clip0_2379_498">
<rect width="256" height="256" fill="white"/>
</clipPath>
</defs>
</svg>
