<svg width="256" height="256" viewBox="0 0 256 256" fill="none" xmlns="http://www.w3.org/2000/svg">
<g clip-path="url(#clip0_2487_125)">
<path d="M128 256C198.692 256 256 198.692 256 128C256 57.3076 198.692 0 128 0C57.3076 0 0 57.3076 0 128C0 198.692 57.3076 256 128 256Z" fill="#FFE4E4"/>
<path d="M159.636 173H92V156.773H159.636V173ZM141.636 135.955H91.7727V120.455H141.636V135.955ZM120.636 106.227L122.091 144.909C122.242 149.061 121.409 152.53 119.591 155.318C117.803 158.076 114.712 160.424 110.318 162.364L97.9545 156.773C99.2879 156.5 100.288 155.818 100.955 154.727C101.652 153.606 102.106 152.273 102.318 150.727C102.561 149.182 102.667 147.606 102.636 146L101.273 106.227C101.03 100.318 102.167 95.3182 104.682 91.2273C107.227 87.1061 110.742 83.9848 115.227 81.8636C119.712 79.7121 124.773 78.6364 130.409 78.6364C135.167 78.6364 139.394 79.303 143.091 80.6364C146.788 81.9394 149.909 83.803 152.455 86.2273C155.03 88.6212 156.939 91.4545 158.182 94.7273C159.424 98 159.97 101.591 159.818 105.5L141.409 105C141.47 102.424 141.015 100.364 140.045 98.8182C139.076 97.2727 137.773 96.1515 136.136 95.4545C134.5 94.7576 132.697 94.4091 130.727 94.4091C128.818 94.4091 127.091 94.8485 125.545 95.7273C124.03 96.5758 122.818 97.8788 121.909 99.6364C121.03 101.364 120.606 103.561 120.636 106.227Z" fill="#2B3954"/>
</g>
<defs>
<clipPath id="clip0_2487_125">
<rect width="256" height="256" fill="white"/>
</clipPath>
</defs>
</svg>
