<svg width="256" height="256" viewBox="0 0 256 256" fill="none" xmlns="http://www.w3.org/2000/svg">
<g clip-path="url(#clip0_2487_129)">
<path d="M128 256C198.692 256 256 198.692 256 128C256 57.3076 198.692 0 128 0C57.3076 0 0 57.3076 0 128C0 198.692 57.3076 256 128 256Z" fill="#FFE4E4"/>
<path d="M41.9091 95.1818L55.9886 118.977H56.5341L70.6818 95.1818H87.3523L66.0455 130.091L87.8295 165H70.8523L56.5341 141.17H55.9886L41.6705 165H24.7614L46.6136 130.091L25.1705 95.1818H41.9091ZM108.727 165H92.9091L117.011 95.1818H136.034L160.102 165H144.284L126.795 111.136H126.25L108.727 165ZM107.739 137.557H145.102V149.08H107.739V137.557ZM211.631 95.1818H226.392V140.523C226.392 145.614 225.176 150.068 222.744 153.886C220.335 157.705 216.96 160.682 212.619 162.818C208.278 164.932 203.222 165.989 197.449 165.989C191.653 165.989 186.585 164.932 182.244 162.818C177.903 160.682 174.528 157.705 172.119 153.886C169.71 150.068 168.506 145.614 168.506 140.523V95.1818H183.267V139.261C183.267 141.92 183.847 144.284 185.006 146.352C186.188 148.42 187.847 150.045 189.983 151.227C192.119 152.409 194.608 153 197.449 153C200.313 153 202.801 152.409 204.915 151.227C207.051 150.045 208.699 148.42 209.858 146.352C211.04 144.284 211.631 141.92 211.631 139.261V95.1818Z" fill="#2B3954"/>
</g>
<defs>
<clipPath id="clip0_2487_129">
<rect width="256" height="256" fill="white"/>
</clipPath>
</defs>
</svg>
