<svg width="256" height="256" viewBox="0 0 256 256" fill="none" xmlns="http://www.w3.org/2000/svg">
<circle cx="128" cy="128" r="127" fill="#E0CB95"/>
<path d="M161.113 90.9126C158.598 93.6665 152.728 93.6398 150.212 91.1613C147.697 88.6829 146.858 83.8856 150.212 80.8564C153.566 77.8271 158.598 78.9317 161.113 81.1348C163.629 83.3379 163.629 88.1588 161.113 90.9126Z" fill="#483E5E"/>
<path d="M134.228 70.7346C131.422 74.1519 130.332 76.1423 128.214 81.5894C125.469 88.6481 123.001 96.4422 121.999 101.267C120.996 106.091 122.993 110.235 127.545 113.06C132.36 116.048 137.551 118.374 144.568 120.988C151.585 123.601 156.62 127.326 158.224 131.145C159.828 134.965 159.463 142.32 155.855 149.355C152.245 156.39 147.216 162.929 138.395 169.361C129.573 175.793 123.548 177.323 114.824 179.333C106.101 181.343 108.966 186.297 111.973 187.301C114.981 188.306 121.596 189.311 130.418 188.909C139.24 188.507 148.05 186.297 158.476 181.069C168.902 175.843 179.127 166.798 184.55 154.737C189.974 142.676 192.138 125.659 185.852 114.936C182.2 108.704 180.329 107.204 179.127 103.277C177.923 99.3497 178.694 96.3572 180.935 93.628C182.226 92.0544 185.114 90.4701 187.759 88.5755C189.844 87.0824 192.358 85.5874 194.163 84.3813C195.967 83.1752 196.581 82.5451 195.377 81.741L195.334 81.7122C194.117 80.8987 191.718 79.295 187.546 77.7477C183.325 76.182 182.53 75.9664 180.935 75.8386C179.338 75.7106 177.333 77.1177 174.126 79.5299C170.918 81.9421 169.514 82.4132 169.314 85.1583C169.113 87.9035 168.312 91.3898 166.106 94.405C163.901 97.4203 160.945 98.9512 156.986 99.3497C153.027 99.7481 147.675 98.5279 145.043 95.437C142.411 92.3463 141.351 90.5835 141.351 86.2005C141.351 81.8174 143.05 78.7258 145.309 76.5146C147.568 74.3035 147.46 73.4995 147.46 72.4943C147.46 71.4893 146.935 68.0705 146.497 66.4766C146.057 64.8828 144.481 64.6319 141.908 65.4708C139.214 66.3493 137.035 67.3173 134.228 70.7346Z" fill="#483E5E"/>
<path d="M94.9805 154.342C93.6826 154.685 92.7724 156.915 90.2246 161.375C87.6767 165.835 85.2864 169.095 80.7255 174.069C76.1646 179.044 73.2995 181.102 66.0441 185.563L65.857 185.678C58.7522 190.046 56.6626 191.33 56.1696 192.651C55.6724 193.984 55.9649 195.739 61.2984 196.563C66.6319 197.386 71.0783 197.571 78.783 192.253C86.4876 186.935 92.5413 181.789 100.524 178.015C108.508 174.241 111.007 174.478 119.949 171.84C128.891 169.201 137.043 164.023 142.668 157.73C148.293 151.438 151.106 145.096 152.245 141.492C153.384 137.888 153.546 133.086 150.503 130.684C147.596 128.389 146.025 127.699 139.609 125.298C132.785 122.743 130.519 122.103 125.492 118.1C120.755 114.327 121.036 113.426 118.059 113.025C115.082 112.625 112.825 117.085 111.821 119.318C111.065 120.998 110.936 123.964 112.937 126.756C114.939 129.547 116.799 132.62 122.281 135.74C127.763 138.859 130.317 139.358 134.055 139.982C137.793 140.606 139.252 141.492 138.248 143.269C137.243 145.046 135.234 145.908 131.819 145.908C128.403 145.908 123.582 144.334 118.76 141.492C115.36 139.488 112.934 137.229 111.161 134.997C109.439 132.826 108.405 132.511 106.808 132.511C105.211 132.511 103.897 133.526 101.987 136.368C100.076 139.209 98.6696 142.288 98.4688 143.955C98.2679 145.623 98.0876 147.482 101.101 149.715C104.115 151.948 106.719 153.161 110.134 153.77C113.549 154.379 116.148 155.448 113.647 157.73C111.145 160.013 108.112 159.507 105.701 158.898C103.29 158.289 99.7925 156.4 98.4688 155.543C97.1451 154.685 96.2783 153.999 94.9805 154.342Z" fill="#483E5E"/>
<path d="M170.163 74.484C171.985 73.3842 174 71.9405 174 70.9307C174 69.9208 172.973 68.709 168.665 66.0834C164.357 63.4578 158.407 60.4757 154.51 60.0241C150.611 59.5725 152.3 65.5793 152.759 67.9548C153.218 70.3302 153.356 72.1796 154.976 72.3717C156.596 72.5637 157.81 72.7557 159.228 73.1398C160.646 73.5238 162.468 74.352 164.493 75.5043C166.518 76.6565 168.34 75.5839 170.163 74.484Z" fill="#483E5E"/>
</svg>
