<svg width="256" height="256" viewBox="0 0 256 256" fill="none" xmlns="http://www.w3.org/2000/svg">
<g clip-path="url(#clip0_2559_1726)">
<path d="M256 128C256 57.3075 198.692 0 128 0C57.3075 0 0 57.3075 0 128C0 198.692 57.3075 256 128 256C198.692 256 256 198.692 256 128Z" fill="black"/>
<path d="M85.9985 35.0376C91.6586 34.7946 97.2723 35.7784 102.851 36.5771C111.324 37.7461 119.82 38.7184 128.293 39.8875C133.015 40.3504 136.326 44.0428 139.914 46.7282C148.444 53.2563 156.859 59.9118 165.483 66.3127C168.145 68.2804 170.494 70.6185 172.532 73.2113C177.104 78.8945 184.454 81.1863 189.535 86.2676C192.22 89.5201 194.014 93.3745 196.179 96.9627C199.061 102.241 202.95 107.021 204.64 112.878C197.047 112.299 189.847 109.626 182.393 108.329C183.4 112.924 185.125 117.415 185.38 122.138C184.685 125.865 182.567 129.117 181.004 132.52C173.122 148.876 164.857 165.034 156.917 181.354C155.956 183.762 153.734 185.163 151.5 186.239C140.446 191.749 129.647 197.721 118.697 203.428C119.345 208.196 121.637 212.849 121.209 217.688C118.246 225.721 115.051 233.719 111.509 241.532H110.456C105.676 229.795 104.02 217.063 99.1706 205.349C95.2583 205.28 91.346 205.094 87.4338 205.361C82.5839 205.685 77.9077 207.733 73 207.12C76.4956 202.27 81.2528 198.578 85.304 194.226C86.8666 192.767 88.2556 190.973 90.2812 190.14C95.6287 189.214 101.15 189.7 106.486 188.612C111.046 184.364 114.623 179.155 118.848 174.56C121.996 171.493 121.313 166.805 121.498 162.812C121.325 153.378 122.32 143.968 122.378 134.534C115.56 139.778 113.35 148.482 108.917 155.496C108.303 155.554 107.088 155.658 106.474 155.716C104.97 150.45 103.789 145.091 102.516 139.766C101.034 133.551 98.3372 127.555 98.0363 121.096C98.4182 114.684 102.631 109.151 102.99 102.762C98.6613 95.1802 92.7929 88.5941 88.1051 81.2442C86.5541 79.0681 86.7856 76.3017 86.7045 73.7668C86.8087 60.8494 85.3503 47.9551 85.9985 35.0376ZM88.5334 36.8086C88.6491 40.1074 88.3597 43.4525 88.8806 46.7282C90.7904 51.74 93.0938 56.613 94.8648 61.6828C95.5708 63.801 96.8209 65.9191 99.0085 66.7757C108.384 71.313 117.609 76.1512 126.985 80.6654C132.969 79.6931 138.768 77.2856 144.613 75.5725C142.055 71.6602 138.479 68.4193 134.647 65.8034C131.048 65.3636 127.182 66.0812 123.929 64.0788C122.1 61.6017 119.982 59.2868 118.848 56.3815C121.765 56.3236 124.681 56.3121 127.598 56.3699C133.212 62.412 139.335 67.9563 144.96 73.9752C147.542 67.7248 146.164 60.8841 146.569 54.3212C141.28 50.5941 136.372 46.3578 130.978 42.7927C116.903 40.3389 102.539 39.4592 88.5334 36.8086ZM88.7301 51.0224C88.5218 59.5067 88.6144 68.0142 88.7186 76.5101C91.5891 73.6279 92.7582 69.5768 95.3278 66.44C92.9086 61.3934 91.4386 55.9301 88.7301 51.0224ZM149.012 56.15C147.322 62.331 147.588 68.7318 147.715 75.0632C154.278 73.2113 161.281 73.3386 167.716 71.0468C161.698 65.8034 155.019 61.3934 149.012 56.15ZM121.128 57.4927C122.39 59.3447 123.547 61.2545 124.705 63.1759C127.587 63.1759 130.434 63.6389 133.247 64.2871C131.58 61.5091 128.524 59.9813 126.464 57.5274C124.681 57.5043 122.91 57.4927 121.128 57.4927ZM95.9181 67.5743C93.9851 71.5213 91.3229 75.0632 89.4593 79.0449C95.837 80.596 101.891 83.2234 108.234 84.8902C104.53 78.8713 100.154 73.2576 95.9181 67.5743ZM98.7423 68.7087C102.712 74.4382 106.926 79.9941 111.046 85.6194C115.827 84.7513 120.503 83.2466 124.936 81.2905C116.07 77.3898 107.747 72.2853 98.7423 68.7087ZM147.495 76.0355C151.928 83.5244 156.431 90.9901 161.316 98.1896C166.698 103.989 172.508 109.382 178.481 114.58C180.368 115.992 181.132 118.677 183.597 119.29C182.59 116.952 181.444 114.649 180.993 112.126C177.462 99.5555 173.701 87.0547 170.402 74.4266C166.49 81.5104 164.661 89.6243 160.262 96.4303C161.536 88.2585 166.212 80.9432 168.955 73.1534C161.721 73.5816 154.753 76.1281 147.495 76.0355ZM116.973 85.7583C116.429 86.1287 115.317 86.8811 114.762 87.2515C129.138 89.4044 143.178 93.5597 157.531 95.8631C154.255 89.2771 149.857 83.3045 146.164 76.9499C136.372 79.67 126.765 83.0151 116.973 85.7583ZM174.476 78.1537C174.268 79.5079 173.353 80.9085 173.944 82.2743C176.305 89.8211 178.55 97.4257 180.402 105.111C183.4 104.151 186.456 103.387 189.454 102.449C184.234 94.9255 178.03 87.8186 174.36 79.3922C180.564 85.1101 183.62 93.5481 189.454 99.6249C188.864 95.7011 187.776 91.8467 188.134 87.8302C183.724 84.4041 179.152 81.1863 174.476 78.1537ZM90.4663 80.677C99.7262 94.6825 110.201 107.959 119.334 122.092C119.785 122.508 120.688 123.33 121.14 123.735C121.001 119.476 118.755 115.725 117.748 111.651C115.966 104.452 113.06 97.5877 111.347 90.3651C110.803 89.0803 110.549 87.3209 108.951 86.9158C102.747 84.9712 96.6241 82.772 90.4663 80.677ZM112.412 87.7608C121.29 101.245 129.531 115.158 138.548 128.55C145.018 118.364 151.685 108.306 158.225 98.1665C143.097 94.1153 127.552 91.7888 112.412 87.7608ZM190.322 91.3952C190.507 95.0529 190.519 98.7221 190.507 102.38C193.794 104.359 196.931 106.57 200.126 108.711C197.776 102.507 193.505 97.2058 190.322 91.3952ZM113.94 93.8954C117.412 105.713 121.498 117.381 124.797 129.256C129.01 129.245 133.212 129.256 137.414 129.256C132.714 121.964 127.957 114.695 123.154 107.461C120.098 102.935 117.794 97.8192 113.94 93.8954ZM159.603 98.942C153.248 109.035 146.268 118.735 140.203 129.025C144.22 128.215 148.201 127.173 152.287 126.907C162.531 125.691 172.462 122.173 182.845 122.149C181.433 118.7 178.145 116.605 175.738 113.92C170.39 108.896 165.645 103.167 159.603 98.942ZM183.4 105.47C188.03 107.866 193.412 108.074 198.355 109.602C195.913 107.392 193.042 105.725 190.53 103.595C188.204 104.405 185.819 105.019 183.4 105.47ZM106.023 105.597C105.977 111.859 106 118.11 105.988 124.36C111.475 125.714 116.776 128.122 122.494 128.307C116.996 120.737 111.498 113.179 106.023 105.597ZM100.108 119.939C100.71 121.953 102.875 123.18 104.761 123.862C104.854 118.515 104.97 113.156 104.738 107.808C102.562 111.559 101.312 115.783 100.108 119.939ZM100.085 122.045C102.284 129.198 103.222 136.757 105.861 143.736C106.416 137.856 105.942 131.953 104.576 126.212C103.338 124.569 101.705 123.284 100.085 122.045ZM121.197 123.619C121.915 124.337 121.915 124.337 121.197 123.619ZM166.2 125.819C157.218 126.965 148.421 129.291 139.462 130.541C144.903 138.481 149.37 147.082 154.857 154.999C158.179 149.547 163.712 145.993 167.219 140.692C172.416 134.87 177.266 128.805 182.81 123.295C177.161 123.249 171.826 125.541 166.2 125.819ZM108.002 126.768C110.294 130.9 112.725 134.974 115.572 138.736C118.223 136.317 120.827 133.759 122.39 130.472C117.852 128.354 112.748 128.226 108.002 126.768ZM107.18 128.782C107.285 133.319 106.625 137.984 107.91 142.405C108.639 145.496 108.141 148.69 108.373 151.816C110.838 148.135 112.1 143.736 114.947 140.299C112.331 136.479 109.704 132.659 107.18 128.782ZM172.624 136.792C170.136 140.391 166.397 142.903 163.932 146.526C161.686 149.802 158.653 152.417 155.794 155.138C155.69 162.916 155.69 170.694 155.829 178.472C159.394 172.361 162.311 165.891 165.17 159.432C170.02 149.096 175.402 139.014 180.24 128.678C177.462 131.131 174.731 133.713 172.624 136.792ZM125.92 130.506C125.596 130.831 124.936 131.49 124.612 131.814C124.265 139.095 124.786 146.399 124.404 153.679C123.593 158.043 122.945 162.464 123.466 166.909C128.293 154.825 133.166 142.729 137.495 130.449C133.64 130.437 129.774 130.24 125.92 130.506ZM138.675 132.208C133.212 144.616 129.091 157.557 124.172 170.173C134.196 165.891 143.791 160.624 153.549 155.739C148.155 148.17 144.266 139.627 138.675 132.208ZM125.989 171.389C125.827 171.747 125.48 172.453 125.318 172.812C134.844 175.22 143.907 179.144 153.398 181.667C153.503 173.727 153.526 165.775 153.375 157.834C144.127 162.094 135.099 166.828 125.989 171.389ZM116.683 180.428C113.778 183.16 111.382 186.332 109.171 189.654C111.197 189.133 113.176 188.415 115.271 188.276C126.904 186.829 138.363 184.121 150.076 183.334C149.637 182.929 148.78 182.13 148.352 181.736C139.995 178.97 131.638 176.238 123.316 173.356C120.237 174.34 118.952 178.218 116.683 180.428ZM107.829 191.031C111.671 193.948 113.813 198.439 117.389 201.645C122.528 199.342 127.101 196.008 132.228 193.693C137.9 190.672 143.907 188.253 149.336 184.815C135.481 186.389 121.695 189.214 107.829 191.031ZM94.7259 192.096C94.6101 193.797 98.8465 193.67 98.7655 192.05C97.4112 191.32 96.057 191.332 94.7259 192.096ZM97.6659 194.503C97.9321 197.085 99.3095 199.307 100.594 201.495C102.249 198.242 103.905 195.001 105.375 191.668C102.875 192.767 100.34 193.855 97.6659 194.503ZM101.439 203.532C106.069 202.374 110.78 201.888 115.549 202.177C112.864 198.578 109.125 195.406 107.829 191.031C105.34 195.001 103.349 199.261 101.439 203.532ZM89.1121 193.08C85.2461 196.83 81.357 200.569 77.8151 204.631C80.2111 204.539 82.4913 203.798 84.7137 202.953C87.9893 199.978 91.8785 197.71 94.7143 194.26C92.9086 193.786 91.0335 192.304 89.1121 193.08ZM87.0402 203.3C91.1608 203.37 95.293 203.37 99.4137 203.254C98.4182 200.707 97.1681 198.277 95.8139 195.916C92.9202 198.416 89.5056 200.314 87.0402 203.3ZM102.064 204.492C105.352 206.634 107.875 209.713 111.162 211.831C112.424 208.833 114.021 206.009 115.503 203.127C111.116 204.388 106.602 204.712 102.064 204.492ZM115.942 205.28C114.797 207.861 113.523 210.384 111.706 212.56C114.044 213.613 116.498 214.412 118.94 215.164C118.061 211.854 118.153 208.057 115.942 205.28ZM102.284 206.379C104.576 213.718 106.879 221.079 108.477 228.614C108.789 230.177 109.738 231.52 110.525 232.874C110.757 226.647 110.595 220.396 110.595 214.157C107.782 211.599 105.294 208.706 102.284 206.379ZM111.845 214.655C111.81 221.484 111.671 228.325 111.868 235.166C114.565 229.355 116.637 223.29 118.998 217.352C116.753 216.102 114.449 214.887 111.845 214.655Z" fill="#010101"/>
<path d="M88.5332 36.8086C102.539 39.4592 116.903 40.3389 130.978 42.7928C136.372 46.3578 141.279 50.5942 146.569 54.3212C146.164 60.8841 147.541 67.7248 144.96 73.9752C139.335 67.9563 133.212 62.412 127.598 56.37C124.681 56.3121 121.764 56.3237 118.848 56.3816C119.982 59.2868 122.1 61.6018 123.929 64.0788C127.181 66.0812 131.047 65.3636 134.647 65.8034C138.478 68.4193 142.055 71.6603 144.613 75.5725C138.768 77.2856 132.969 79.6932 126.985 80.6654C117.609 76.1513 108.384 71.313 99.0084 66.7757C96.8207 65.9192 95.5707 63.801 94.8646 61.6828C93.0937 56.613 90.7903 51.7401 88.8804 46.7282C88.3596 43.4525 88.649 40.1074 88.5332 36.8086Z" fill="white"/>
<path d="M88.7294 51.0225C91.4379 55.9302 92.9079 61.3935 95.327 66.4401C92.7574 69.5768 91.5883 73.628 88.7178 76.5101C88.6136 68.0142 88.521 59.5068 88.7294 51.0225Z" fill="white"/>
<path d="M149.012 56.1501C155.019 61.3935 161.698 65.8035 167.717 71.0469C161.281 73.3387 154.278 73.2114 147.715 75.0633C147.588 68.7319 147.322 62.3311 149.012 56.1501Z" fill="white"/>
<path d="M121.127 57.4929C122.909 57.4929 124.68 57.5045 126.463 57.5276C128.523 59.9815 131.579 61.5094 133.246 64.2873C130.433 63.6391 127.586 63.1761 124.704 63.1761C123.546 61.2547 122.389 59.3449 121.127 57.4929Z" fill="white"/>
<path d="M95.9167 67.5745C100.153 73.2577 104.528 78.8715 108.232 84.8903C101.889 83.2236 95.8357 80.5961 89.458 79.0451C91.3215 75.0633 93.9837 71.5215 95.9167 67.5745Z" fill="white"/>
<path d="M98.7412 68.7085C107.746 72.2851 116.069 77.3896 124.935 81.2903C120.502 83.2464 115.826 84.7511 111.045 85.6193C106.925 79.9939 102.711 74.438 98.7412 68.7085Z" fill="white"/>
<path d="M147.495 76.0357C154.753 76.1283 161.721 73.5818 168.955 73.1536C166.212 80.9434 161.535 88.2587 160.262 96.4305C164.661 89.6245 166.489 81.5106 170.402 74.4268C173.7 87.0549 177.462 99.5556 180.993 112.126C181.444 114.649 182.59 116.953 183.597 119.291C181.131 118.677 180.368 115.992 178.481 114.58C172.508 109.383 166.698 103.989 161.315 98.1898C156.431 90.9903 151.928 83.5246 147.495 76.0357Z" fill="white"/>
<path d="M116.972 85.7584C126.764 83.0151 136.371 79.67 146.163 76.95C149.855 83.3045 154.254 89.2771 157.53 95.8631C143.177 93.5598 129.137 89.4044 114.761 87.2515C115.316 86.8811 116.428 86.1287 116.972 85.7584Z" fill="white"/>
<path d="M174.475 78.1538C179.151 81.1864 183.723 84.4042 188.133 87.8303C187.775 91.8468 188.863 95.7012 189.453 99.625C183.619 93.5483 180.563 85.1103 174.359 79.3923C178.029 87.8188 184.233 94.9257 189.453 102.449C186.455 103.387 183.399 104.151 180.401 105.111C178.549 97.4258 176.304 89.8212 173.943 82.2744C173.352 80.9086 174.267 79.5081 174.475 78.1538Z" fill="white"/>
<path d="M90.4648 80.677C96.6226 82.772 102.746 84.9712 108.95 86.9158C110.547 87.3209 110.802 89.0803 111.346 90.3651C113.059 97.5878 115.964 104.452 117.747 111.651C118.754 115.725 120.999 119.476 121.138 123.735C120.687 123.33 119.784 122.508 119.332 122.092C110.2 107.959 99.7247 94.6825 90.4648 80.677Z" fill="white"/>
<path d="M112.411 87.761C127.551 91.789 143.096 94.1155 158.224 98.1667C151.684 108.306 145.017 118.365 138.547 128.551C129.53 115.158 121.289 101.246 112.411 87.761Z" fill="white"/>
<path d="M190.321 91.3953C193.504 97.2058 197.775 102.507 200.125 108.711C196.93 106.57 193.794 104.359 190.506 102.38C190.518 98.7221 190.506 95.0529 190.321 91.3953Z" fill="white"/>
<path d="M113.939 93.8958C117.794 97.8196 120.097 102.936 123.153 107.461C127.957 114.696 132.714 121.965 137.413 129.257C133.211 129.257 129.01 129.245 124.797 129.257C121.498 117.381 117.412 105.714 113.939 93.8958Z" fill="white"/>
<path d="M159.601 98.9419C165.644 103.167 170.389 108.896 175.737 113.92C178.144 116.605 181.432 118.7 182.844 122.149C172.461 122.172 162.53 125.691 152.286 126.907C148.2 127.173 144.219 128.215 140.202 129.025C146.267 118.735 153.247 109.035 159.601 98.9419Z" fill="white"/>
<path d="M183.399 105.47C185.819 105.019 188.203 104.405 190.529 103.595C193.041 105.725 195.912 107.392 198.354 109.603C193.412 108.075 188.029 107.866 183.399 105.47Z" fill="white"/>
<path d="M106.021 105.598C111.496 113.179 116.994 120.737 122.492 128.307C116.774 128.122 111.473 125.715 105.986 124.36C105.998 118.11 105.975 111.86 106.021 105.598Z" fill="white"/>
<path d="M100.106 119.938C101.31 115.783 102.56 111.558 104.736 107.808C104.968 113.156 104.852 118.515 104.76 123.862C102.873 123.179 100.708 121.952 100.106 119.938Z" fill="white"/>
<path d="M100.084 122.045C101.704 123.284 103.336 124.569 104.575 126.212C105.941 131.953 106.415 137.857 105.86 143.737C103.221 136.757 102.283 129.199 100.084 122.045Z" fill="white"/>
<path d="M121.196 123.62C121.914 124.337 121.914 124.337 121.196 123.62Z" fill="white"/>
<path d="M166.201 125.819C171.826 125.541 177.162 123.249 182.81 123.296C177.266 128.805 172.416 134.87 167.219 140.693C163.712 145.994 158.179 149.547 154.857 154.999C149.371 147.082 144.903 138.482 139.463 130.541C148.422 129.291 157.219 126.965 166.201 125.819Z" fill="white"/>
<path d="M108.001 126.768C112.747 128.226 117.851 128.354 122.388 130.472C120.826 133.759 118.222 136.317 115.571 138.736C112.723 134.975 110.293 130.9 108.001 126.768Z" fill="white"/>
<path d="M107.179 128.782C109.702 132.66 112.33 136.479 114.946 140.299C112.098 143.737 110.837 148.135 108.371 151.816C108.14 148.691 108.638 145.496 107.908 142.406C106.624 137.984 107.283 133.319 107.179 128.782Z" fill="white"/>
<path d="M172.624 136.792C174.73 133.713 177.462 131.132 180.24 128.678C175.402 139.014 170.019 149.096 165.17 159.432C162.311 165.891 159.394 172.361 155.829 178.472C155.69 170.694 155.69 162.916 155.794 155.138C158.653 152.418 161.686 149.802 163.931 146.526C166.396 142.903 170.135 140.391 172.624 136.792Z" fill="white"/>
<path d="M125.919 130.507C129.774 130.24 133.64 130.437 137.494 130.449C133.165 142.73 128.292 154.825 123.466 166.909C122.945 162.465 123.593 158.043 124.403 153.679C124.785 146.399 124.264 139.095 124.611 131.815C124.936 131.49 125.595 130.831 125.919 130.507Z" fill="white"/>
<path d="M138.675 132.208C144.266 139.627 148.155 148.17 153.549 155.74C143.791 160.624 134.196 165.891 124.172 170.173C129.091 157.557 133.212 144.616 138.675 132.208Z" fill="white"/>
<path d="M125.988 171.389C135.097 166.828 144.125 162.094 153.374 157.835C153.524 165.775 153.501 173.727 153.397 181.667C143.906 179.144 134.842 175.22 125.316 172.812C125.478 172.454 125.826 171.748 125.988 171.389Z" fill="white"/>
<path d="M116.683 180.429C118.952 178.218 120.236 174.34 123.315 173.356C131.638 176.239 139.995 178.97 148.352 181.737C148.78 182.13 149.636 182.929 150.076 183.334C138.363 184.121 126.903 186.83 115.271 188.276C113.176 188.415 111.196 189.133 109.171 189.654C111.382 186.332 113.778 183.16 116.683 180.429Z" fill="white"/>
<path d="M107.827 191.031C121.694 189.214 135.479 186.39 149.334 184.815C143.906 188.253 137.898 190.672 132.227 193.693C127.099 196.008 122.527 199.342 117.388 201.645C113.811 198.439 111.67 193.948 107.827 191.031Z" fill="white"/>
<path d="M94.726 192.096C96.0571 191.332 97.4113 191.32 98.7656 192.049C98.8466 193.67 94.6102 193.797 94.726 192.096Z" fill="white"/>
<path d="M97.665 194.504C100.339 193.856 102.874 192.768 105.374 191.668C103.904 195.002 102.249 198.242 100.593 201.495C99.3087 199.307 97.9313 197.085 97.665 194.504Z" fill="white"/>
<path d="M101.438 203.532C103.348 199.261 105.339 195.001 107.828 191.031C109.124 195.407 112.863 198.578 115.548 202.178C110.779 201.888 106.068 202.375 101.438 203.532Z" fill="white"/>
<path d="M89.1114 193.08C91.0329 192.304 92.908 193.786 94.7136 194.261C91.8778 197.71 87.9887 199.979 84.713 202.953C82.4907 203.798 80.2104 204.539 77.8145 204.632C81.3563 200.569 85.2455 196.83 89.1114 193.08Z" fill="white"/>
<path d="M87.0391 203.3C89.5045 200.314 92.9191 198.416 95.8127 195.916C97.167 198.277 98.4171 200.708 99.4125 203.254C95.2919 203.37 91.1597 203.37 87.0391 203.3Z" fill="white"/>
<path d="M102.064 204.493C106.602 204.712 111.116 204.388 115.503 203.127C114.021 206.009 112.424 208.833 111.162 211.831C107.875 209.713 105.352 206.634 102.064 204.493Z" fill="white"/>
<path d="M115.942 205.28C118.153 208.057 118.061 211.854 118.94 215.164C116.498 214.412 114.044 213.613 111.706 212.56C113.523 210.384 114.797 207.861 115.942 205.28Z" fill="white"/>
<path d="M102.283 206.379C105.293 208.706 107.781 211.599 110.594 214.157C110.594 220.396 110.756 226.647 110.524 232.874C109.737 231.52 108.788 230.177 108.476 228.614C106.878 221.079 104.575 213.718 102.283 206.379Z" fill="white"/>
<path d="M111.845 214.655C114.449 214.887 116.752 216.102 118.998 217.352C116.637 223.29 114.565 229.355 111.868 235.166C111.671 228.325 111.81 221.484 111.845 214.655Z" fill="white"/>
</g>
<defs>
<clipPath id="clip0_2559_1726">
<rect width="256" height="256" fill="white"/>
</clipPath>
</defs>
</svg>
