<svg width="256" height="256" viewBox="0 0 256 256" fill="none" xmlns="http://www.w3.org/2000/svg">
<g clip-path="url(#clip0_2487_132)">
<path d="M128 256C198.692 256 256 198.692 256 128C256 57.3076 198.692 0 128 0C57.3076 0 0 57.3076 0 128C0 198.692 57.3076 256 128 256Z" fill="#FFE4E4"/>
<path d="M72.0227 93.1818H86.6136V141.864C86.6136 146.364 85.6023 150.273 83.5795 153.591C81.5795 156.909 78.7955 159.466 75.2273 161.261C71.6591 163.057 67.5114 163.955 62.7841 163.955C58.5795 163.955 54.7614 163.216 51.3295 161.739C47.9205 160.239 45.2159 157.966 43.2159 154.92C41.2159 151.852 40.2273 148 40.25 143.364H54.9432C54.9886 145.205 55.3636 146.784 56.0682 148.102C56.7955 149.398 57.7841 150.398 59.0341 151.102C60.3068 151.784 61.8068 152.125 63.5341 152.125C65.3523 152.125 66.8864 151.739 68.1364 150.966C69.4091 150.17 70.375 149.011 71.0341 147.489C71.6932 145.966 72.0227 144.091 72.0227 141.864V93.1818ZM98.8182 163V93.1818H126.364C131.659 93.1818 136.17 94.1932 139.898 96.2159C143.625 98.2159 146.466 101 148.42 104.568C150.398 108.114 151.386 112.205 151.386 116.841C151.386 121.477 150.386 125.568 148.386 129.114C146.386 132.659 143.489 135.42 139.693 137.398C135.92 139.375 131.352 140.364 125.989 140.364H108.432V128.534H123.602C126.443 128.534 128.784 128.045 130.625 127.068C132.489 126.068 133.875 124.693 134.784 122.943C135.716 121.17 136.182 119.136 136.182 116.841C136.182 114.523 135.716 112.5 134.784 110.773C133.875 109.023 132.489 107.67 130.625 106.716C128.761 105.739 126.398 105.25 123.534 105.25H113.58V163H98.8182ZM171.406 93.1818L185.827 128.364L175.838 135.932L156.27 93.1818H171.406ZM179.077 128.023L193.327 93.1818H208.463L188.793 135.932L179.077 128.023ZM189.474 126.25V163H174.884V126.25H189.474ZM203.247 127V135.42H160.02V127H203.247ZM203.247 140.5V148.92H160.02V140.5H203.247Z" fill="#2B3954"/>
</g>
<defs>
<clipPath id="clip0_2487_132">
<rect width="256" height="256" fill="white"/>
</clipPath>
</defs>
</svg>
