<svg width="256" height="256" viewBox="0 0 256 256" fill="none" xmlns="http://www.w3.org/2000/svg">
<g clip-path="url(#clip0_2487_135)">
<path d="M128 256C198.692 256 256 198.692 256 128C256 57.3076 198.692 0 128 0C57.3076 0 0 57.3076 0 128C0 198.692 57.3076 256 128 256Z" fill="#FFE4E4"/>
<path d="M189.682 107.773V117.773H66.3182V107.773H189.682ZM189.682 125.455V135.455H66.3182V125.455H189.682ZM83.9091 81.9091L100.864 146.591H101.636L119.091 81.9091H136.909L154.364 146.727H155.136L172.091 81.9091H190.091L165.409 175H145.364L128.409 114.136H127.682L110.636 175H90.5909L65.9091 81.9091H83.9091Z" fill="#2B3954"/>
</g>
<defs>
<clipPath id="clip0_2487_135">
<rect width="256" height="256" fill="white"/>
</clipPath>
</defs>
</svg>
