<svg width="256" height="256" viewBox="0 0 256 256" fill="none" xmlns="http://www.w3.org/2000/svg">
<g clip-path="url(#clip0_741_46)">
<path d="M256 128C256 198.692 198.692 256 128 256C57.3075 256 0 198.692 0 128C0 57.3075 57.3075 0 128 0C198.692 0 256 57.3075 256 128Z" fill="black"/>
<path d="M64.7479 27.4898L66.0875 26.2444C70.5528 22.13 75.0182 17.8156 79.7515 13.4121L85.3109 8.16357C78.996 10.3853 72.8669 13.0996 66.9806 16.2811L61.4881 21.3517L60.1485 22.5971C47.3553 34.4063 36.0355 44.8367 25.1623 52.465C22.1438 56.5304 19.3704 60.7708 16.8567 65.1638C32.2846 57.4244 47.5115 43.3689 64.7479 27.4898Z" fill="#DA00FF"/>
<path d="M61.1087 44.391C41.4387 60.6482 25.8323 73.5249 10.2482 78.3064C9.15409 80.8417 8.17175 83.3994 7.25635 86.0014C25.9886 82.0873 43.6938 67.4535 65.3062 49.5283C72.0042 43.9239 78.9478 37.9193 86.2041 31.5588C97.8141 21.4619 109.893 10.8981 122.798 1.00146C118.689 1.15714 114.648 1.53521 110.652 2.06896C100.628 10.1864 91.0714 18.5263 81.8951 26.5325C74.6388 32.8709 67.8068 38.8088 61.1087 44.391Z" fill="#CE00FF"/>
<path d="M60.7516 67.4309C37.956 84.1106 21.3001 95.4083 4.13074 96.1422C3.55024 98.3811 3.02184 100.605 2.54553 102.814C22.1709 102.814 40.5012 90.3822 64.7035 72.7016C73.9021 66.0298 83.3018 58.3348 93.2819 50.2174C112.595 34.4939 133.47 17.4362 157.092 4.04786C153.833 3.29171 150.506 2.62453 147.156 2.13525C125.901 15.0565 106.79 30.602 89.1068 45.0355C79.149 53.2197 69.7941 60.8257 60.7516 67.4309Z" fill="#C100FF"/>
<path d="M60.4167 90.4713C35.4776 106.262 18.8218 114.891 1.09425 111.999C0.81144 114.208 0.58817 116.432 0.424438 118.671C20.9651 121.895 39.4965 111.644 64.0337 96.0979C75.8 88.6477 87.9458 79.3738 100.783 69.566C126.304 50.1064 154.881 28.3338 187.858 15.5459C185.209 14.1522 182.5 12.8475 179.732 11.6318C148.474 24.9756 121.19 45.6362 96.7871 64.273C83.9716 73.9917 71.9373 83.1767 60.4167 90.4713Z" fill="#B500FF"/>
<path d="M63.2966 119.383C77.8091 111.577 92.8128 100.745 108.709 89.2478C134.697 70.4775 164.17 49.2164 197.347 37.5406C202.594 35.6947 207.729 34.138 212.842 32.8258C210.862 31.017 208.756 29.3045 206.524 27.6885C202.751 28.7559 198.977 29.9125 195.114 31.3136C161.021 43.2562 131.125 64.8064 104.78 83.8436C89.1512 95.1858 74.2368 105.905 60.1263 113.511C34.562 127.255 18.1071 133.082 0 127.211C0 127.611 0 127.99 0 128.389C0 130.347 0 132.304 0.156294 134.238C21.4784 140.243 39.9651 131.925 63.2966 119.383Z" fill="#A900FF"/>
<path d="M62.5154 142.646C79.908 134.928 97.9035 122.496 116.948 109.286C141.507 92.3172 166.827 74.7701 195.628 63.4724C207.228 58.8481 219.285 55.4491 231.596 53.3312C230.101 51.3073 228.582 49.3058 226.975 47.3486C215.419 49.58 204.102 52.8935 193.172 57.2453C163.657 68.8099 136.819 87.4023 113.131 103.77C94.3758 116.825 76.6483 129.101 59.8139 136.552C35.2767 147.427 19.4246 151.319 0.848633 142.89C1.13889 145.47 1.51844 148.005 1.96498 150.541C21.1437 157.702 38.5364 153.298 62.5154 142.646Z" fill="#9C00FF"/>
<path d="M61.7785 165.909C82.2299 158.77 103.217 144.671 125.454 129.725C147.067 115.203 169.416 100.169 193.953 89.4713C209.993 82.3133 226.964 77.4396 244.368 74.9933C243.385 72.7693 242.336 70.7455 241.242 68.6772C223.995 71.2897 207.181 76.2043 191.252 83.2887C166.156 94.4084 143.562 109.51 121.703 124.187C99.8454 138.866 79.2827 152.765 59.5681 159.615C35.4997 168.022 20.3398 168.511 3.90723 159.749C4.64401 162.684 5.51476 165.576 6.45249 168.422C22.5502 175.25 38.5138 174.027 61.7785 165.909Z" fill="#9000FF"/>
<path d="M60.9748 189.149C84.5966 183.122 108.575 167.22 133.961 150.408C152.537 138.087 171.761 125.344 192.257 115.446C211.064 105.994 231.3 99.6755 252.16 96.7432C251.594 94.5637 250.984 92.4065 250.329 90.2715C229.105 93.3989 208.515 99.8701 189.332 109.442C168.412 119.539 149.009 132.394 130.256 144.848C105.361 161.349 81.8505 176.94 59.3226 182.655C39.0499 187.814 25.2518 187.392 10.6055 179.231C12.0939 182.507 13.6568 185.717 15.2941 188.86C28.7572 194.153 42.4212 193.864 60.9748 189.149Z" fill="#8400FF"/>
<path d="M142.334 171.268C157.829 160.949 173.882 150.296 190.56 141.4C211.971 129.991 230.904 123.008 250.061 119.472C251.959 119.116 253.79 118.872 255.62 118.604C255.456 116.365 255.226 114.142 254.928 111.933C252.919 112.221 250.887 112.534 248.81 112.911C228.984 116.647 209.426 123.764 187.389 135.507C170.421 144.558 154.234 155.3 138.605 165.708C110.786 184.189 84.5295 201.67 59.0993 205.739C45.0557 207.964 34.2495 207.118 24.4033 203.204C26.7105 206.377 29.1664 209.431 31.7712 212.366C41.1578 214.101 50.7844 214.101 60.1709 212.366C87.0749 208.03 113.867 190.172 142.334 171.268Z" fill="#7700FF"/>
<path d="M188.864 167.354C210.521 154.655 228.918 146.716 246.757 142.379C249.748 141.645 252.674 141.067 255.531 140.577C255.739 138.323 255.896 136.047 256 133.75C252.45 134.284 248.856 134.996 245.172 135.974C226.662 140.422 207.685 148.628 185.469 161.682C172.073 169.489 159.191 178.273 146.665 186.769C116.123 207.474 87.2537 227.023 58.8986 229.025C55.7557 229.251 52.6024 229.295 49.4543 229.158C52.4312 231.471 55.5198 233.695 58.7199 235.83H59.3674C89.531 233.739 119.114 213.59 150.438 192.463C162.875 183.767 175.735 175.048 188.864 167.354Z" fill="#6B00FF"/>
<path d="M187.166 193.286C209.337 178.919 226.662 170.357 243.363 165.286C246.065 164.464 248.677 163.774 251.267 163.173C251.937 160.801 252.547 158.399 253.098 155.968C249.151 156.749 245.245 157.729 241.398 158.903C224.095 164.152 206.233 173.025 183.505 187.682C173.592 194.064 163.768 201.026 154.257 207.697C130.054 224.689 106.834 241.057 83.8822 248.218C87.3205 249.463 90.8258 250.553 94.3758 251.531C115.408 243.102 136.395 228.425 158.119 213.169C167.585 206.474 177.365 199.602 187.166 193.286Z" fill="#5F00FF"/>
<path d="M237.647 181.921C217.554 189.305 198.018 202.182 181.585 213.79C174.886 218.505 168.189 223.465 161.759 228.247C148.363 238.143 135.256 247.817 122.307 255.824C124.227 255.824 126.147 255.979 128.089 255.979C130.032 255.979 132.554 255.979 134.788 255.802C145.035 248.973 155.35 241.346 165.844 233.562C172.296 228.802 178.973 223.865 185.559 219.195C201.634 207.831 220.701 195.265 240.058 188.06L241.555 187.548C243.043 184.835 244.382 182.062 245.574 179.23C242.939 180.046 240.297 180.943 237.647 181.921Z" fill="#5200FF"/>
<path d="M168.322 248.751L166.692 250.019C175.382 247.272 183.751 243.605 191.654 239.077C198.598 233.807 205.518 228.824 212.374 224.332C218.232 219.217 223.612 213.581 228.449 207.497C208.064 217.505 188.037 233.25 168.322 248.751Z" fill="#4600FF"/>
</g>
<defs>
<clipPath id="clip0_741_46">
<rect width="256" height="256" fill="white"/>
</clipPath>
</defs>
</svg>
