<svg width="256" height="256" viewBox="0 0 256 256" fill="none" xmlns="http://www.w3.org/2000/svg">
<g clip-path="url(#clip0_2379_509)">
<path d="M128 256C198.692 256 256 198.692 256 128C256 57.3076 198.692 0 128 0C57.3076 0 0 57.3076 0 128C0 198.692 57.3076 256 128 256Z" fill="black"/>
<path d="M200.888 174.291C198.855 198.433 170.393 218.762 127.701 217.746C87.5504 216.729 59.3431 199.957 57.5642 175.816C57.3101 172.767 57.5642 169.717 57.8184 166.414C59.089 157.011 62.3925 148.117 67.2208 139.985L70.2702 141.256C78.148 138.206 86.2798 135.919 94.6657 134.394C105.593 132.87 117.028 130.837 127.955 131.853L128.972 131.599C139.899 130.837 149.81 133.124 160.737 134.649C169.123 136.173 177.255 138.46 185.132 141.51L188.182 140.239L190.215 139.223C195.043 147.355 198.347 156.249 200.125 165.651C200.634 168.447 200.888 171.496 200.634 174.291" fill="#F4A427"/>
<path d="M200.89 174.292C199.111 198.179 170.903 217.746 127.957 217.492C87.8062 216.475 59.5989 199.704 57.8201 175.562C57.566 172.513 57.8201 169.463 58.0742 166.16C62.3943 165.143 66.7143 165.143 71.0343 165.906C79.1662 167.176 83.7403 172.259 89.5851 174.8C92.8886 176.325 96.1922 173.783 99.2416 170.988C107.373 163.11 118.301 158.536 129.482 158.282C140.917 158.028 150.32 162.602 160.23 171.75C162.263 173.783 165.059 175.054 167.854 174.8C170.395 174.037 172.936 172.767 174.969 170.988C182.593 165.906 191.741 163.873 200.635 165.143C201.144 168.447 201.398 171.242 200.89 174.292Z" fill="white"/>
<path d="M82.9774 114.827C80.1821 117.622 76.6244 119.655 72.8126 120.418L71.2879 120.672C69.7632 121.18 68.2385 121.434 66.4597 121.434C66.2055 121.434 65.6973 121.434 65.4432 121.434C64.6808 121.18 63.6643 120.926 62.902 120.672C60.1067 119.401 57.5655 117.877 55.2784 115.844C50.7042 112.032 46.3842 107.712 43.0806 102.629C29.104 82.2998 33.4241 54.8549 52.7372 39.6077C53.7537 38.8453 55.5325 38.8453 56.549 40.1159C57.0572 40.8783 57.3113 41.6406 57.0572 42.403C55.0243 50.5348 53.7537 63.2408 61.1231 74.168C67.7303 83.5704 81.4527 92.4646 89.8387 92.2105C91.8716 102.375 88.8222 109.237 82.9774 114.827Z" fill="#F79422"/>
<path d="M82.9774 114.827C80.1821 117.622 76.6244 119.655 72.8126 120.418L71.2879 120.672C69.7632 121.18 68.2385 121.434 66.4597 121.434C66.2055 121.434 65.6973 121.434 65.4432 121.434C64.6808 121.18 63.6643 120.926 62.902 120.672C60.1067 119.401 57.5655 117.877 55.2784 115.844C50.7042 112.032 46.3842 107.712 43.0806 102.629C29.104 82.2998 33.4241 54.8549 52.7372 39.6077C53.7537 38.8453 55.5325 38.8453 56.549 40.1159C57.0572 40.8783 57.3113 41.6406 57.0572 42.403C55.0243 50.5348 53.7537 63.2408 61.1231 74.168C67.7303 83.5704 81.4527 92.4646 89.8387 92.2105C91.8716 102.375 89.0763 109.237 82.9774 114.827Z" stroke="#221F1F" stroke-linejoin="round"/>
<path d="M119.571 79.759L116.267 112.286H116.013C110.931 113.049 104.07 114.065 94.6673 115.59C86.0272 116.861 74.3377 122.959 67.4764 127.025L66.46 121.943C67.9847 121.689 69.7635 121.435 71.2882 121.181L72.813 120.926C76.6248 120.164 80.1824 118.131 82.9777 115.336C88.8225 109.491 91.8719 102.884 89.839 92.465L90.8555 92.7191C93.9049 89.4156 97.4626 86.8744 101.528 84.8414C107.119 81.5379 113.218 80.0132 119.571 79.759Z" fill="#5A595C"/>
<path d="M119.571 79.759L116.267 112.286H116.013C110.931 113.049 104.07 114.065 94.6673 115.59C86.0272 116.861 74.3377 122.959 67.4764 127.025L66.46 121.943C67.9847 121.689 69.7635 121.435 71.2882 121.181L72.813 120.926C76.6248 120.164 80.1824 118.131 82.9777 115.336C88.8225 109.491 91.8719 102.884 89.839 92.465L90.8555 92.7191C93.9049 89.4156 97.4626 86.8744 101.528 84.8414C107.119 81.5379 113.218 80.0132 119.571 79.759Z" stroke="#221F1F" stroke-linejoin="round"/>
<path d="M193.773 138.206L191.74 139.223L189.707 140.239L186.658 141.51C178.78 138.46 170.648 136.173 162.262 134.649C151.335 132.616 140.408 131.599 129.227 131.599C118.045 131.599 107.118 132.362 96.191 134.649C87.805 136.173 79.6732 138.46 71.7955 141.51C70.779 141.002 69.7625 140.493 68.746 140.239L64.1719 138.206C64.426 134.649 64.1719 132.616 64.1719 129.058C64.9342 128.55 66.2048 127.787 67.4754 127.025L67.7296 126.771C74.0825 122.705 85.7721 116.86 94.4121 115.336C103.815 113.811 110.422 112.794 115.758 112.032C119.062 111.778 122.619 111.778 126.177 111.778C131.514 111.778 136.342 111.778 141.17 112.032C146.253 112.794 153.114 113.811 162.77 115.336C171.665 116.606 183.354 122.705 190.215 126.771H190.469C191.74 127.533 192.756 128.041 193.519 128.804C193.519 132.616 193.519 134.649 193.773 138.206Z" fill="#929497"/>
<path d="M193.773 138.206L191.74 139.223L189.707 140.239L186.658 141.51C178.78 138.46 170.648 136.173 162.262 134.649C151.335 132.87 140.408 131.853 129.227 131.853C118.045 131.853 107.118 132.616 96.191 134.649C87.805 136.173 79.6732 138.46 71.7955 141.51C70.779 141.002 69.7625 140.493 68.746 140.239L64.1719 138.206C64.426 134.649 64.1719 132.616 64.1719 129.058C64.9342 128.55 66.2048 127.787 67.4754 127.025L67.7296 126.771C74.0825 122.705 85.7721 116.86 94.4121 115.336C103.815 113.811 110.422 112.794 115.758 112.032C119.062 111.778 122.619 111.778 126.177 111.778C131.514 111.778 136.342 111.778 141.17 112.032C146.253 112.794 153.114 113.811 162.77 115.336C171.665 116.606 183.354 122.705 190.215 126.771H190.469C191.74 127.533 192.756 128.041 193.519 128.804C193.773 132.616 193.519 134.649 193.773 138.206Z" stroke="#221F1F" stroke-linecap="round" stroke-linejoin="round"/>
<path d="M141.426 112.286C136.851 112.032 131.769 111.778 126.433 112.032C122.875 112.032 119.317 112.286 116.014 112.286H116.268L119.571 79.7589L120.334 73.1518C122.875 71.6271 125.924 70.8647 128.72 70.8647H129.228C132.277 70.8647 135.073 71.6271 137.614 73.1518L138.376 79.7589V80.0131L141.426 112.286Z" fill="#929497"/>
<path d="M141.426 112.286C136.851 112.032 131.769 111.778 126.433 112.032C122.875 112.032 119.317 112.286 116.014 112.286H116.268L119.571 79.7589L120.334 73.1518C122.875 71.6271 125.924 70.8647 128.72 70.8647H129.228C132.277 70.8647 135.073 71.6271 137.614 73.1518L138.376 79.7589V80.0131L141.426 112.286Z" stroke="#221F1F" stroke-linecap="round" stroke-linejoin="round"/>
<circle cx="191.487" cy="138.969" r="1.2706" fill="#221F1F"/>
<path d="M201.144 174.545C199.111 198.687 168.362 218 127.957 218C87.8062 216.983 59.5989 200.211 57.8201 176.07C57.566 173.021 57.8201 169.971 58.0742 166.668C59.3448 157.265 62.6484 148.371 67.4767 140.239L70.5261 141.51C78.4038 138.46 86.5356 136.173 94.9216 134.649C105.849 132.616 116.776 131.853 127.957 131.599C139.138 131.599 150.066 132.616 160.993 134.649C169.379 136.173 177.511 138.46 185.388 141.51L188.692 140.239L190.725 139.223C195.553 147.355 198.857 156.249 200.635 165.651C201.144 168.701 201.398 171.75 201.144 174.545Z" stroke="#221F1F" stroke-linecap="round" stroke-linejoin="round"/>
<path d="M213.342 102.63C209.784 107.458 205.718 112.032 200.89 115.844C198.603 117.877 196.062 119.402 193.266 120.672L191.996 121.18L191.233 121.435C189.454 121.943 188.438 121.435 185.134 120.926L183.61 120.418C179.798 119.656 176.24 117.623 173.445 114.827C167.6 108.983 164.551 102.376 166.584 91.9566C174.715 92.2107 188.692 83.3165 195.299 73.9141C202.923 63.2411 201.398 50.5351 199.619 42.4032C199.365 40.8785 200.127 39.6079 201.652 39.0997C202.415 38.8456 203.431 39.0997 203.939 39.6079C223.252 54.8551 227.318 82.3001 213.342 102.63Z" fill="#F79422"/>
<path d="M213.342 102.63C209.784 107.458 205.718 112.032 200.89 115.844C198.603 117.877 196.062 119.402 193.266 120.672L191.996 121.18L191.233 121.435C189.454 121.943 188.438 121.435 185.134 120.926L183.61 120.418C179.798 119.656 176.24 117.623 173.445 114.827C167.6 108.983 164.551 102.376 166.584 91.9566C174.715 92.2107 188.692 83.3165 195.299 73.9141C202.923 63.2411 201.398 50.5351 199.619 42.4032C199.365 40.8785 200.127 39.6079 201.652 39.0997C202.415 38.8456 203.431 39.0997 203.939 39.6079C223.252 54.8551 227.318 82.3001 213.342 102.63Z" stroke="#221F1F" stroke-linejoin="round"/>
<path d="M191.487 121.435L190.471 127.025C183.61 122.959 171.92 116.861 163.026 115.59C153.369 114.065 146.762 113.049 141.426 112.286L138.122 79.759C143.967 80.0132 149.812 81.792 155.148 84.5873C159.214 86.6203 162.772 89.4156 165.821 92.465L166.838 92.2109C164.805 102.376 167.854 109.237 173.699 115.082C176.494 117.877 180.052 119.91 183.864 120.672C184.118 120.672 185.134 121.181 185.388 121.181C187.167 121.943 189.454 121.943 191.487 121.435Z" fill="#5A595C"/>
<path d="M191.487 121.435L190.471 127.025C183.61 122.959 171.92 116.861 163.026 115.59C153.369 114.065 146.762 113.049 141.426 112.286L138.122 79.759C143.967 80.0132 149.812 81.792 155.148 84.5873C159.214 86.6203 162.772 89.4156 165.821 92.465L166.838 92.2109C164.805 102.376 167.854 109.237 173.699 115.082C176.494 117.877 180.052 119.91 183.864 120.672L185.388 120.926C188.692 121.435 189.454 121.943 191.487 121.435Z" stroke="#221F1F" stroke-linejoin="round"/>
<path d="M138.122 79.759H137.105" stroke="#221F1F" stroke-linejoin="round"/>
<path d="M190.725 127.025C190.471 127.279 190.471 127.279 190.217 127.533Z" fill="#F79422"/>
<path d="M190.725 127.025C190.471 127.279 190.471 127.279 190.217 127.533" stroke="#221F1F" stroke-miterlimit="10"/>
<path d="M66.9697 127.025C67.2238 127.279 67.2238 127.279 67.478 127.533Z" fill="#F79422"/>
<path d="M66.9697 127.025C67.2238 127.279 67.2238 127.279 67.478 127.533" stroke="#221F1F" stroke-miterlimit="10"/>
<path d="M119.569 184.202C121.348 184.71 123.381 184.456 125.16 183.44C127.955 182.423 129.734 179.628 129.48 176.578C129.226 179.628 131.005 182.423 133.8 183.44C135.579 184.202 137.358 184.456 139.137 184.202" stroke="#171717" stroke-linecap="round" stroke-linejoin="round"/>
<path d="M139.137 167.938C139.137 170.988 134.563 175.054 128.972 175.054C123.382 175.054 118.808 170.988 118.808 167.938C118.808 164.889 123.382 163.872 128.972 163.872C134.563 163.872 139.137 165.143 139.137 167.938Z" fill="#171717"/>
<path d="M133.292 166.922C133.292 167.684 131.259 168.701 128.972 168.701C126.685 168.701 124.652 167.684 124.652 167.176C124.652 166.668 126.685 166.668 128.972 166.668C131.259 166.668 133.292 166.159 133.292 166.922Z" fill="white"/>
<path d="M113.218 176.578C112.964 180.136 115.251 183.185 118.809 183.948H119.571" stroke="#171717" stroke-linecap="round" stroke-linejoin="round"/>
<path d="M129.228 173.021C129.228 174.291 129.228 175.308 129.228 176.578" stroke="#171717" stroke-linecap="round" stroke-linejoin="round"/>
<path d="M139.137 184.202H139.899C143.457 183.44 145.998 180.39 145.49 176.833" stroke="#171717" stroke-linecap="round" stroke-linejoin="round"/>
<path d="M203.938 39.6079C223.252 54.8551 227.317 82.3 213.341 102.376" stroke="#221F1F" stroke-linejoin="round"/>
<path d="M82.9774 114.827C80.1821 117.622 76.6244 119.655 72.8126 120.418L71.2879 120.672C69.7632 121.18 68.2385 121.434 66.4597 121.434C66.2055 121.434 65.6973 121.434 65.4432 121.434C64.6808 121.18 63.6643 120.926 62.902 120.672C60.1067 119.401 57.5655 117.877 55.2784 115.844C50.7042 112.032 46.3842 107.712 43.0806 102.629C29.104 82.2998 33.4241 54.8549 52.7372 39.6077C53.7537 38.8453 55.5325 38.8453 56.549 40.1159C57.0572 40.8783 57.3113 41.6406 57.0572 42.403C55.0243 50.5348 53.7537 63.2408 61.1231 74.168C67.7303 83.5704 81.4527 92.4646 89.8387 92.2105C91.8716 102.375 89.0763 109.237 82.9774 114.827Z" stroke="#221F1F" stroke-linejoin="round"/>
<path d="M110.424 151.42C110.424 157.011 107.12 161.331 103.054 161.331C98.9881 161.331 95.6846 156.757 95.6846 151.42C95.6846 146.592 98.2258 142.526 101.529 141.51L109.661 147.609C110.169 148.879 110.424 150.15 110.424 151.42Z" fill="#221F1F"/>
<path d="M107.881 150.15C107.881 152.183 106.611 153.707 105.34 153.707C104.069 153.707 102.799 152.183 102.799 150.15C102.799 148.117 104.069 146.592 105.34 146.592C106.611 146.592 107.881 148.117 107.881 150.15Z" fill="white"/>
<path d="M101.528 159.044C98.7325 161.331 96.1913 163.873 93.9042 166.668C92.8877 167.938 91.8712 169.463 91.1089 171.242C90.3465 172.767 89.8383 174.546 89.5842 176.324C89.33 177.087 89.33 178.103 89.33 178.866V180.136V181.407C89.33 183.186 89.33 184.965 89.33 186.997C89.5842 188.776 89.8383 190.809 90.0924 192.588C90.3465 193.605 90.3465 194.367 90.6006 195.383C90.8548 196.146 91.1089 197.162 91.6171 197.925C91.1089 197.162 90.8548 196.146 90.3465 195.383C90.0924 194.621 89.5842 193.605 89.33 192.842C88.8218 191.063 88.3136 189.285 87.8053 187.252C87.5512 185.473 87.2971 183.44 87.043 181.661V180.39V178.866C87.043 177.849 87.043 176.833 87.043 176.07C87.2971 174.037 87.5512 172.004 88.3136 170.226C89.0759 168.447 89.8383 166.668 90.8548 164.889C93.1418 161.586 95.4289 158.536 98.2242 155.995C99.2407 155.233 100.511 155.233 101.528 155.995C102.544 156.503 102.544 158.028 101.528 159.044Z" fill="#221F1F"/>
<path d="M100.003 158.282C99.7489 158.282 99.7489 158.282 99.4948 158.282H99.2407H98.7324L97.4618 158.028C96.6995 157.773 95.9371 157.773 95.1747 157.773C93.65 157.773 91.8712 157.773 90.3465 158.282C89.5841 158.536 88.8217 158.79 88.0594 159.044C85.7723 160.061 83.7393 161.839 82.4688 163.872C83.2311 162.093 83.9935 160.569 85.2641 159.298C85.7723 158.536 86.5347 158.028 87.297 157.519C88.0594 157.011 88.8217 156.503 89.5841 155.995C91.1088 154.978 92.8877 154.47 94.9206 153.962C95.9371 153.708 96.6995 153.708 97.7159 153.708C98.2242 153.708 98.7324 153.708 99.2407 153.708H100.257C101.528 153.708 102.544 154.724 102.798 155.995C103.052 157.265 101.528 158.282 100.003 158.282Z" fill="#221F1F"/>
<path d="M162.77 151.42C162.77 157.011 159.467 161.331 155.655 161.331C151.843 161.331 148.031 157.011 148.031 151.42C148.031 150.15 148.285 148.879 148.539 147.609L156.671 141.51C160.229 142.526 162.77 146.592 162.77 151.42Z" fill="#221F1F"/>
<path d="M150.828 150.15C150.828 152.183 152.099 153.707 153.369 153.707C154.64 153.707 155.911 152.183 155.911 150.15C155.911 148.117 154.64 146.592 153.369 146.592C152.099 146.592 150.828 148.117 150.828 150.15Z" fill="white"/>
<path d="M160.229 155.487C163.024 158.282 165.311 161.077 167.344 164.381C168.361 165.906 169.377 167.684 170.139 169.463C170.902 171.242 171.41 173.275 171.664 175.054C171.918 177.087 171.918 178.866 171.664 180.899C171.41 182.677 171.156 184.71 170.902 186.489C170.648 188.268 170.139 190.047 169.631 191.826C169.377 192.588 169.123 193.605 168.615 194.367C168.361 195.129 167.852 196.146 167.344 196.908C167.598 196.146 168.107 195.129 168.361 194.367C168.615 193.605 168.869 192.588 169.123 191.826C169.377 190.047 169.885 188.268 169.885 186.489C170.139 184.71 170.139 182.932 170.139 180.899C170.139 179.12 169.885 177.341 169.631 175.562C169.123 173.783 168.615 172.259 167.852 170.734C167.09 169.209 166.074 167.684 164.803 166.414C162.516 163.618 159.975 161.077 157.179 158.79C156.163 157.774 156.163 156.503 157.179 155.487C157.942 154.724 159.212 154.47 160.229 155.233V155.487Z" fill="#221F1F"/>
<path d="M158.452 153.708H159.723C160.231 153.708 160.739 153.708 161.247 153.708C162.264 153.708 163.28 153.708 164.297 153.962C166.33 154.216 168.109 154.724 169.887 155.487C171.666 156.249 173.191 157.519 174.716 158.79C175.986 160.061 177.003 161.84 177.765 163.364C176.749 161.84 175.478 160.569 173.953 159.552C172.429 158.536 170.904 157.774 169.125 157.519C167.346 157.265 165.822 157.265 164.043 157.265C163.28 157.265 162.264 157.519 161.501 157.519L160.231 157.774H159.723H159.469H159.214H158.96C157.69 158.028 156.419 157.011 156.419 155.741C156.165 154.47 157.181 153.199 158.452 153.199C158.706 153.199 158.706 153.199 158.96 153.199" fill="#221F1F"/>
</g>
<defs>
<clipPath id="clip0_2379_509">
<rect width="256" height="256" fill="white"/>
</clipPath>
</defs>
</svg>
