<svg width="256" height="256" viewBox="0 0 256 256" fill="none" xmlns="http://www.w3.org/2000/svg">
<path d="M128.858 0.000706766C154.137 0.17023 178.8 7.81998 199.736 21.9853C220.672 36.1506 236.945 56.1971 246.501 79.5969C256.058 102.997 258.47 128.702 253.435 153.471C248.399 178.24 236.141 200.963 218.207 218.776C200.272 236.588 177.463 248.692 152.657 253.561C127.852 258.43 102.159 255.846 78.8203 246.135C55.4813 236.424 35.5409 220.02 21.5137 198.993C7.48647 177.966 0.000568594 153.256 0 127.981C0.114758 93.9249 13.7551 61.3092 37.9206 37.3085C62.086 13.3077 94.7972 -0.112204 128.858 0.000706766Z" fill="#2B61D1"/>
<path d="M144.128 202.292L129.45 210.767L97.9189 192.591L112.238 184.324L112.597 184.116L113.147 184.432L144.128 202.292Z" fill="white"/>
<path d="M200.472 87.7868V104.846L169.433 86.9284L161.015 82.0699L152.596 86.9284L113.147 109.713L104.729 114.571V124.63L89.5507 115.871L81.1324 111.013L72.7141 115.871L58.4363 124.105V87.7868L129.45 46.7935L200.472 87.7868Z" fill="white"/>
<path d="M200.472 124.255V169.84L161.023 192.591H160.973L121.565 169.84V124.255L161.023 101.471L200.472 124.255Z" fill="white"/>
<path d="M103.82 143.522V169.715L81.124 182.824L58.4363 169.723V143.531L81.1324 130.43L103.82 143.522Z" fill="white"/>
</svg>
