<svg width="256" height="256" viewBox="0 0 256 256" fill="none" xmlns="http://www.w3.org/2000/svg">
<circle cx="128" cy="128" r="127" fill="#386FF9"/>
<path fill-rule="evenodd" clip-rule="evenodd" d="M187.083 72.6403L180.396 112.751L156.623 84.7569L187.083 72.6403ZM180.54 130.002L186.491 151.986L140.987 164.525L180.54 130.002ZM81.4827 118.954L105.88 87.0642H148.248L175.328 118.954H81.4827ZM172.192 126.833L128.078 165.333L83.1467 126.833H172.192ZM97.7102 84.78L75.9099 113.275L69.215 72.7949L97.7102 84.78ZM115.012 164.512L69.0743 151.996L75.3691 130.545L115.012 164.512ZM123.495 174.989L114.822 184.536C107.473 177.553 99.3937 171.352 90.7686 166.073L123.495 174.989ZM165.557 165.928C156.932 171.292 148.872 177.574 141.569 184.623L132.714 174.977L165.557 165.928ZM197.149 60.1557L149.315 79.1849H104.73L59.1162 60L69.4779 122.648L59.5279 156.559L85.4874 172.086C97.7783 179.438 108.788 188.637 118.21 199.426L128.318 211L138.926 198.828C148.029 188.383 158.629 179.417 170.432 172.178L195.89 156.559L186.722 122.694L197.149 60.1557Z" fill="#FFFFFE"/>
</svg>
