<svg width="256" height="256" viewBox="0 0 256 256" fill="none" xmlns="http://www.w3.org/2000/svg">
<g clip-path="url(#clip0_2880_119)">
<mask id="mask0_2880_119" style="mask-type:luminance" maskUnits="userSpaceOnUse" x="0" y="0" width="256" height="256">
<path d="M256 0H0V256H256V0Z" fill="white"/>
</mask>
<g mask="url(#mask0_2880_119)">
<path d="M128 256C110.723 256 93.9612 252.613 78.1746 245.939C62.9298 239.491 49.2474 230.261 37.4887 218.511C25.7391 206.762 16.5091 193.07 10.0608 177.825C3.38672 162.039 0 145.277 0 128C0 110.723 3.38672 93.9612 10.0608 78.1746C16.5091 62.9298 25.7391 49.2474 37.4887 37.4887C49.2474 25.7391 62.9298 16.5091 78.1746 10.0608C93.9612 3.38672 110.723 0 128 0C145.277 0 162.039 3.38672 177.825 10.0608C193.07 16.5091 206.753 25.7391 218.511 37.4887C230.261 49.2384 239.491 62.9298 245.939 78.1746C252.613 93.9612 256 110.723 256 128C256 145.277 252.613 162.039 245.939 177.825C239.491 193.07 230.261 206.753 218.511 218.511C206.762 230.261 193.07 239.491 177.825 245.939C162.039 252.622 145.277 256 128 256Z" fill="black"/>
<path d="M128.001 249.218C194.948 249.218 249.219 194.947 249.219 128C249.219 61.0536 194.948 6.78271 128.001 6.78271C61.0541 6.78271 6.7832 61.0536 6.7832 128C6.7832 194.947 61.0541 249.218 128.001 249.218Z" fill="black"/>
<path d="M203.789 128C203.789 121.642 202.254 115.645 199.454 110.443L217.372 92.5251L202.29 77.4429L184.02 95.7131C183.884 95.6499 183.758 95.5867 183.623 95.5234C177.039 92.4799 169.642 91.5226 162.209 92.7599C154.587 94.0333 147.1 97.6368 140.571 103.182C136.326 106.794 131.593 110.831 127.927 113.965C124.143 110.732 119.401 106.686 115.283 103.182C108.753 97.6368 101.276 94.0333 93.6442 92.7599C86.2205 91.5226 78.8149 92.4799 72.2311 95.5234C72.1318 95.5686 72.0324 95.6228 71.9331 95.6679L53.717 77.4429L38.6348 92.5251L56.4625 110.353C53.6267 115.582 52.0734 121.606 52.0734 128C52.0734 134.394 53.6267 140.427 56.4625 145.647L38.6348 163.475L53.717 178.557L71.9421 160.332C72.0415 160.377 72.1408 160.431 72.2401 160.476C78.8239 163.52 86.2205 164.477 93.6533 163.24C101.276 161.966 108.762 158.363 115.292 152.818C119.293 149.413 124.043 145.367 127.936 142.034C131.72 145.268 136.461 149.314 140.58 152.818C147.109 158.363 154.587 161.966 162.218 163.24C164.332 163.592 166.436 163.764 168.522 163.764C173.788 163.764 178.917 162.653 183.632 160.476C183.767 160.413 183.893 160.35 184.029 160.287L202.299 178.557L217.381 163.475L199.463 145.557C202.254 140.355 203.789 134.367 203.789 128ZM101.474 136.571C94.8273 142.215 87.2501 143.922 81.1992 141.122C76.241 138.828 73.4052 134.051 73.4052 128.009C73.4052 121.967 76.25 117.18 81.1992 114.895C83.1138 114.01 85.191 113.577 87.3404 113.577C91.9644 113.577 96.9406 115.591 101.474 119.447C104.698 122.184 108.302 125.254 111.526 128.009C108.23 130.809 104.617 133.888 101.474 136.571ZM154.388 136.571C151.164 133.834 147.561 130.763 144.337 128.009C147.488 125.318 151.083 122.247 154.388 119.447C161.035 113.803 168.613 112.096 174.664 114.895C179.622 117.189 182.458 121.967 182.458 128.009C182.458 134.051 179.613 138.837 174.664 141.122C168.613 143.922 161.035 142.215 154.388 136.571Z" fill="white"/>
</g>
</g>
<defs>
<clipPath id="clip0_2880_119">
<rect width="256" height="256" fill="white"/>
</clipPath>
</defs>
</svg>
