<svg width="256" height="256" viewBox="0 0 256 256" fill="none" xmlns="http://www.w3.org/2000/svg">
<g clip-path="url(#clip0_2880_127)">
<mask id="mask0_2880_127" style="mask-type:luminance" maskUnits="userSpaceOnUse" x="0" y="0" width="256" height="256">
<path d="M256 0H0V256H256V0Z" fill="white"/>
</mask>
<g mask="url(#mask0_2880_127)">
<path d="M128 256C110.723 256 93.9612 252.613 78.1746 245.939C62.9298 239.491 49.2474 230.261 37.4887 218.511C25.7391 206.762 16.5091 193.07 10.0608 177.825C3.38672 162.039 0 145.277 0 128C0 110.723 3.38672 93.9612 10.0608 78.1746C16.5091 62.9298 25.7391 49.2474 37.4887 37.4887C49.2474 25.7391 62.9298 16.5091 78.1746 10.0608C93.9612 3.38672 110.723 0 128 0C145.277 0 162.039 3.38672 177.825 10.0608C193.07 16.5091 206.753 25.7391 218.511 37.4887C230.261 49.2384 239.491 62.9298 245.939 78.1746C252.613 93.9612 256 110.723 256 128C256 145.277 252.613 162.039 245.939 177.825C239.491 193.07 230.261 206.753 218.511 218.511C206.762 230.261 193.07 239.491 177.825 245.939C162.039 252.622 145.277 256 128 256Z" fill="black"/>
<path d="M128.001 249.218C194.948 249.218 249.219 194.947 249.219 128C249.219 61.0536 194.948 6.78271 128.001 6.78271C61.0541 6.78271 6.7832 61.0536 6.7832 128C6.7832 194.947 61.0541 249.218 128.001 249.218Z" fill="black"/>
<path d="M198.246 69.6851L180.418 51.8574L160.197 72.0784C152.819 68.1047 144.095 65.9642 134.856 65.9642C125.183 65.9642 116.007 68.1498 108.322 72.2048L87.9742 51.8574L70.1465 69.6851L90.4307 89.9693C87.4684 95.7674 85.906 102.333 85.906 109.368V207.728H111.122V155.031H134.847C149.206 155.031 160.712 151.382 169.048 144.184C175.289 138.792 182.73 128.65 182.73 110.931C182.73 103.327 181.06 96.228 177.899 90.0145L198.246 69.6851ZM134.856 129.815H111.131V109.368C111.131 92.0465 130.9 91.1705 134.856 91.1705C138.64 91.1705 157.524 92.1188 157.524 110.931C157.524 120.739 154.779 129.815 134.856 129.815Z" fill="white"/>
</g>
</g>
<defs>
<clipPath id="clip0_2880_127">
<rect width="256" height="256" fill="white"/>
</clipPath>
</defs>
</svg>
