<svg width="256" height="256" viewBox="0 0 256 256" fill="none" xmlns="http://www.w3.org/2000/svg">
<g clip-path="url(#clip0_2880_69)">
<mask id="mask0_2880_69" style="mask-type:luminance" maskUnits="userSpaceOnUse" x="0" y="0" width="256" height="256">
<path d="M256 0H0V256H256V0Z" fill="white"/>
</mask>
<g mask="url(#mask0_2880_69)">
<path d="M128 256C110.723 256 93.9612 252.613 78.1746 245.939C62.9298 239.491 49.2474 230.261 37.4887 218.511C25.7391 206.762 16.5091 193.07 10.0608 177.825C3.38672 162.039 0 145.277 0 128C0 110.723 3.38672 93.9612 10.0608 78.1746C16.5091 62.9298 25.7391 49.2474 37.4887 37.4887C49.2474 25.7391 62.9298 16.5091 78.1746 10.0608C93.9612 3.38672 110.723 0 128 0C145.277 0 162.039 3.38672 177.825 10.0608C193.07 16.5091 206.753 25.7391 218.511 37.4887C230.261 49.2384 239.491 62.9298 245.939 78.1746C252.613 93.9612 256 110.723 256 128C256 145.277 252.613 162.039 245.939 177.825C239.491 193.07 230.261 206.753 218.511 218.511C206.762 230.261 193.07 239.491 177.825 245.939C162.039 252.622 145.277 256 128 256Z" fill="black"/>
<path d="M128.001 249.218C194.948 249.218 249.219 194.947 249.219 128C249.219 61.0536 194.948 6.78271 128.001 6.78271C61.0541 6.78271 6.7832 61.0536 6.7832 128C6.7832 194.947 61.0541 249.218 128.001 249.218Z" fill="black"/>
<path d="M191.851 128C191.851 115.013 187.949 102.929 181.266 92.8324L201.09 73.0088L183.262 55.1811L163.493 74.9505C153.342 68.1319 141.131 64.1491 128.009 64.1491C115.022 64.1491 102.938 68.0506 92.8415 74.7338L73.0089 54.9102L55.1812 72.7379L74.9506 92.5073C68.132 102.658 64.1492 114.869 64.1492 127.991C64.1492 140.978 68.0507 153.062 74.7338 163.159L54.9102 182.991L72.7379 200.819L92.5074 181.05C102.658 187.868 114.869 191.851 127.991 191.851C140.978 191.851 153.062 187.95 163.159 181.266L182.991 201.099L200.819 183.271L181.05 163.502C187.868 153.333 191.851 141.123 191.851 128ZM89.3735 128C89.3735 106.695 106.704 89.3644 128.009 89.3644C149.314 89.3644 166.645 106.695 166.645 128C166.645 149.305 149.314 166.636 128.009 166.636C106.704 166.636 89.3735 149.305 89.3735 128Z" fill="white"/>
</g>
</g>
<defs>
<clipPath id="clip0_2880_69">
<rect width="256" height="256" fill="white"/>
</clipPath>
</defs>
</svg>
