<svg width="256" height="256" viewBox="0 0 256 256" fill="none" xmlns="http://www.w3.org/2000/svg">
<g clip-path="url(#clip0_2880_140)">
<mask id="mask0_2880_140" style="mask-type:luminance" maskUnits="userSpaceOnUse" x="0" y="0" width="256" height="256">
<path d="M256 0H0V256H256V0Z" fill="white"/>
</mask>
<g mask="url(#mask0_2880_140)">
<path d="M128 256C110.723 256 93.9612 252.613 78.1746 245.939C62.9298 239.491 49.2474 230.261 37.4887 218.511C25.7391 206.762 16.5091 193.07 10.0608 177.825C3.38672 162.039 0 145.277 0 128C0 110.723 3.38672 93.9612 10.0608 78.1746C16.5091 62.9298 25.7391 49.2474 37.4887 37.4887C49.2384 25.7391 62.9298 16.5091 78.1746 10.0608C93.9612 3.38672 110.723 0 128 0C145.277 0 162.039 3.38672 177.825 10.0608C193.07 16.5091 206.753 25.7391 218.511 37.4887C230.261 49.2384 239.491 62.9298 245.939 78.1746C252.613 93.9612 256 110.723 256 128C256 145.277 252.613 162.039 245.939 177.825C239.491 193.07 230.261 206.753 218.511 218.511C206.762 230.261 193.07 239.491 177.825 245.939C162.039 252.613 145.277 256 128 256Z" fill="black"/>
<path d="M128.001 249.218C194.948 249.218 249.219 194.947 249.219 128C249.219 61.0536 194.948 6.78271 128.001 6.78271C61.0541 6.78271 6.7832 61.0536 6.7832 128C6.7832 194.947 61.0541 249.218 128.001 249.218Z" fill="black"/>
<path d="M212.134 87.6124H188.933C187.407 82.6904 184.688 78.0393 180.778 74.1197C176.939 70.2814 172.315 67.4998 167.285 65.9464V42.7632H150.803V65.2239C144.987 66.4883 139.667 69.3693 135.378 73.6591L124.396 84.6411C121.18 87.8563 121.18 93.0763 124.396 96.3005C127.611 99.5156 132.831 99.5156 136.055 96.3005L147.037 85.3185C149.891 82.4646 153.747 80.9293 157.874 80.9744C162.092 81.0286 166.084 82.7355 169.127 85.7791C175.341 91.9926 175.549 101.909 169.588 107.87L146.495 130.962C140.534 136.923 130.618 136.715 124.405 130.502C121.189 127.287 115.969 127.287 112.745 130.502C109.53 133.717 109.53 138.937 112.745 142.161C119.148 148.564 127.538 151.779 135.874 151.779C143.984 151.779 152.04 148.736 158.154 142.622L181.247 119.529C185.627 115.149 188.418 109.775 189.664 104.103H212.152V87.6214L212.134 87.6124Z" fill="white"/>
<path d="M118.653 158.806L107.671 169.788C101.71 175.749 91.8029 175.541 85.5804 169.327C79.3669 163.114 79.1592 153.197 85.1198 147.237L108.213 124.144C114.173 118.183 124.089 118.391 130.303 124.605C133.518 127.82 138.738 127.82 141.962 124.605C145.177 121.389 145.177 116.169 141.962 112.945C129.319 100.301 108.953 100.094 96.5624 112.485L73.4695 135.577C69.0893 139.958 66.2987 145.331 65.0524 151.003H42.5645V167.485H65.7658C67.2921 172.407 70.0105 177.058 73.9211 180.978C77.8316 184.888 82.4826 187.607 87.4137 189.133V212.343H103.896V189.855C109.576 188.618 114.95 185.818 119.321 181.438L130.303 170.456C133.518 167.241 133.518 162.021 130.303 158.797C127.088 155.582 121.868 155.582 118.644 158.797L118.653 158.806Z" fill="white"/>
</g>
</g>
<defs>
<clipPath id="clip0_2880_140">
<rect width="256" height="256" fill="white"/>
</clipPath>
</defs>
</svg>
