<svg width="256" height="256" viewBox="0 0 256 256" fill="none" xmlns="http://www.w3.org/2000/svg">
<g clip-path="url(#clip0_1362_497)">
<path d="M128 256C198.692 256 256 198.692 256 128C256 57.3075 198.692 0 128 0C57.3075 0 0 57.3075 0 128C0 198.692 57.3075 256 128 256Z" fill="white"/>
<path fill-rule="evenodd" clip-rule="evenodd" d="M77.3581 45C83.5448 45 88.56 50.0152 88.56 56.2018V210H73.1828C69.4818 210 65.817 209.271 62.3978 207.855C58.9785 206.438 55.8718 204.362 53.2549 201.745C50.6378 199.128 48.5617 196.021 47.1453 192.602C45.7289 189.183 44.9999 185.518 45 181.817V56.2018C45 50.0152 50.0152 45 56.2018 45H77.3581ZM210 45V58.3435C210 66.3575 206.816 74.0431 201.15 79.7098C195.483 85.3765 187.797 88.56 179.784 88.56H106.911C100.786 88.56 95.82 83.5943 95.82 77.4687V56.0913C95.82 49.9657 100.786 45 106.911 45H210Z" fill="#FF3333"/>
<path fill-rule="evenodd" clip-rule="evenodd" d="M163.376 125.672C164.086 126.023 164.684 126.566 165.101 127.238C165.519 127.911 165.741 128.688 165.741 129.48C165.741 130.272 165.519 131.048 165.101 131.721C164.684 132.394 164.086 132.937 163.376 133.288L102.173 163.621C101.502 163.953 100.758 164.109 100.01 164.073C99.2627 164.037 98.5365 163.811 97.9005 163.417C97.2644 163.022 96.7396 162.472 96.3755 161.818C96.0115 161.164 95.8202 160.427 95.8199 159.679V99.2807C95.8202 98.5322 96.0115 97.7961 96.3755 97.1421C96.7396 96.4881 97.2644 95.9377 97.9005 95.5431C98.5365 95.1485 99.2627 94.9226 100.01 94.8869C100.758 94.8511 101.502 95.0067 102.173 95.3388L163.376 125.672Z" fill="#29ABE1"/>
</g>
<defs>
<clipPath id="clip0_1362_497">
<rect width="256" height="256" fill="white"/>
</clipPath>
</defs>
</svg>
