<svg width="256" height="256" viewBox="0 0 256 256" fill="none" xmlns="http://www.w3.org/2000/svg">
<g clip-path="url(#clip0_2487_139)">
<path d="M128 256C198.692 256 256 198.692 256 128C256 57.3076 198.692 0 128 0C57.3076 0 0 57.3076 0 128C0 198.692 57.3076 256 128 256Z" fill="#FFE4E4"/>
<path d="M44.9091 94.1818L58.9886 117.977H59.5341L73.6818 94.1818H90.3523L69.0455 129.091L90.8295 164H73.8523L59.5341 140.17H58.9886L44.6705 164H27.7614L49.6136 129.091L28.1705 94.1818H44.9091ZM111.727 164H95.9091L120.011 94.1818H139.034L163.102 164H147.284L129.795 110.136H129.25L111.727 164ZM110.739 136.557H148.102V148.08H110.739V136.557ZM214.52 116.75C214.043 115.091 213.372 113.625 212.509 112.352C211.645 111.057 210.588 109.966 209.338 109.08C208.111 108.17 206.702 107.477 205.111 107C203.543 106.523 201.804 106.284 199.895 106.284C196.327 106.284 193.19 107.17 190.486 108.943C187.804 110.716 185.713 113.295 184.213 116.682C182.713 120.045 181.963 124.159 181.963 129.023C181.963 133.886 182.702 138.023 184.179 141.432C185.656 144.841 187.747 147.443 190.452 149.239C193.156 151.011 196.349 151.898 200.031 151.898C203.372 151.898 206.224 151.307 208.588 150.125C210.974 148.92 212.793 147.227 214.043 145.045C215.315 142.864 215.952 140.284 215.952 137.307L218.952 137.75H200.952V126.636H230.168V135.432C230.168 141.568 228.872 146.841 226.281 151.25C223.69 155.636 220.122 159.023 215.577 161.409C211.031 163.773 205.827 164.955 199.963 164.955C193.418 164.955 187.668 163.511 182.713 160.625C177.759 157.716 173.895 153.591 171.122 148.25C168.372 142.886 166.997 136.523 166.997 129.159C166.997 123.5 167.815 118.455 169.452 114.023C171.111 109.568 173.429 105.795 176.406 102.705C179.384 99.6136 182.849 97.2614 186.804 95.6477C190.759 94.0341 195.043 93.2273 199.656 93.2273C203.611 93.2273 207.293 93.8068 210.702 94.9659C214.111 96.1023 217.134 97.7159 219.77 99.8068C222.429 101.898 224.599 104.386 226.281 107.273C227.963 110.136 229.043 113.295 229.52 116.75H214.52Z" fill="#2B3954"/>
</g>
<defs>
<clipPath id="clip0_2487_139">
<rect width="256" height="256" fill="white"/>
</clipPath>
</defs>
</svg>
