<svg width="300" height="300" viewBox="0 0 300 300" fill="none" xmlns="http://www.w3.org/2000/svg">
<g clip-path="url(#clip0_2712_50)">
<mask id="mask0_2712_50" style="mask-type:luminance" maskUnits="userSpaceOnUse" x="0" y="0" width="300" height="300">
<path d="M300 0H0V300H300V0Z" fill="white"/>
</mask>
<g mask="url(#mask0_2712_50)">
<path fill-rule="evenodd" clip-rule="evenodd" d="M149.999 -0.0712891C232.891 -0.0712891 300.071 67.1083 300.071 150C300.071 232.892 232.891 300.072 149.999 300.072C67.1074 300.072 -0.0722656 232.892 -0.0722656 150C-0.0722656 67.1083 67.1074 -0.0712891 149.999 -0.0712891Z" fill="#1969FF"/>
<path d="M140.872 46.6001C145.99 43.9158 153.793 43.9158 158.911 46.6001L211.202 74.0876C214.28 75.6982 215.998 78.132 216.284 80.6373H216.32V218.755C216.248 221.475 214.53 224.195 211.202 225.949L158.911 253.436C153.793 256.12 145.99 256.12 140.872 253.436L88.5812 225.949C85.2526 224.195 83.642 221.475 83.5705 218.755C83.5705 218.504 83.5705 218.253 83.5705 218.074V81.4963C83.5705 81.3532 83.5705 81.21 83.5705 81.031V80.6015H83.6062C83.821 78.0962 85.4674 75.734 88.617 74.0518L140.908 46.5643L140.872 46.6001ZM208.124 157.659L158.911 183.5C153.793 186.185 145.99 186.185 140.872 183.5L91.7666 157.695V218.432L140.872 244.095C143.628 245.562 146.527 246.994 149.319 247.173L149.892 247.208C152.827 247.208 155.654 245.741 158.553 244.345L208.124 218.218V157.659ZM75.0522 215.712C75.0522 221.009 75.6606 224.481 76.9133 226.951C77.9155 228.991 79.4545 230.53 82.2462 232.427L82.3894 232.534C82.9978 232.928 83.6778 233.357 84.501 233.894L85.4674 234.467L88.438 236.256L84.1789 243.271L80.8503 241.267L80.2777 240.909C79.3113 240.301 78.5239 239.8 77.7723 239.299C69.8267 233.966 66.8561 228.168 66.8203 216.07V215.712H75.0522ZM145.776 120.616C145.382 120.759 145.024 120.902 144.702 121.081L92.4108 148.568C92.3392 148.604 92.3035 148.64 92.2677 148.64L92.2319 148.676L92.3035 148.712L92.4108 148.783L144.702 176.271C145.024 176.45 145.382 176.593 145.776 176.736V120.651V120.616ZM154.008 120.616V176.7C154.401 176.557 154.759 176.414 155.081 176.235L207.372 148.747C207.444 148.712 207.479 148.676 207.515 148.676L207.551 148.64L207.479 148.604L207.372 148.533L155.081 121.045C154.759 120.866 154.401 120.723 154.008 120.58V120.616ZM208.124 90.3725L161.202 115.032L208.124 139.692V90.3725ZM91.8024 90.4441V139.621L138.617 115.032L91.8024 90.4441ZM155.081 53.8299C152.361 52.3983 147.458 52.3983 144.738 53.8299L92.4466 81.3174C92.375 81.3532 92.3392 81.3889 92.3035 81.3889L92.2677 81.4247L92.3392 81.4605L92.4466 81.5321L144.738 109.019C147.458 110.451 152.361 110.451 155.081 109.019L207.372 81.5321C207.444 81.4963 207.479 81.4605 207.515 81.4605L207.551 81.4247L207.479 81.3889L207.372 81.3174L155.081 53.8299ZM215.854 56.8363L219.183 58.8406L219.756 59.1985C220.722 59.7712 221.508 60.3081 222.26 60.8091C230.206 66.142 233.177 71.9401 233.213 84.0375V84.3954H224.98C224.98 79.0983 224.373 75.6266 223.12 73.157C222.118 71.1169 220.578 69.5779 217.786 67.681L217.644 67.5736C217.036 67.1799 216.355 66.7504 215.532 66.2136L214.566 65.6409L211.595 63.8514L215.854 56.8363Z" fill="white"/>
</g>
</g>
<defs>
<clipPath id="clip0_2712_50">
<rect width="300" height="300" fill="white"/>
</clipPath>
</defs>
</svg>
