<svg width="256" height="256" viewBox="0 0 256 256" fill="none" xmlns="http://www.w3.org/2000/svg">
<g clip-path="url(#clip0_1438_183)">
<mask id="mask0_1438_183" style="mask-type:luminance" maskUnits="userSpaceOnUse" x="0" y="0" width="256" height="256">
<path d="M256 0H0V256H256V0Z" fill="white"/>
</mask>
<g mask="url(#mask0_1438_183)">
<path d="M128 256C198.692 256 256 198.692 256 128C256 57.3075 198.692 0 128 0C57.3075 0 0 57.3075 0 128C0 198.692 57.3075 256 128 256Z" fill="url(#paint0_linear_1438_183)"/>
</g>
<path d="M134.994 112.224H110.178L127.774 139.938L152.849 108.264L149.33 102.546H96.5407L93.9017 107.396L127.774 157.974L166.303 107.983C166.572 107.635 166.581 107.151 166.325 106.792L156.467 92.965C156.28 92.702 155.976 92.546 155.653 92.546H90.1807C89.8327 92.546 89.5097 92.727 89.3277 93.024L80.8797 106.85C80.6757 107.183 80.6847 107.604 80.9027 107.928L121.085 167.839C121.271 168.116 121.582 168.282 121.915 168.282H134.461C134.794 168.282 135.105 168.116 135.291 167.839L175.512 107.87C175.709 107.576 175.736 107.2 175.583 106.881L164.003 82.7183C163.836 82.3713 163.486 82.1505 163.101 82.1505H84.1367C83.7857 82.1505 83.4597 82.335 83.2797 82.6366L68.7717 106.851C68.5727 107.184 68.5837 107.601 68.7997 107.923L115.035 176.75C115.221 177.027 115.532 177.193 115.865 177.193H140.511C140.844 177.193 141.155 177.027 141.341 176.75L187.602 107.884C187.804 107.583 187.828 107.196 187.663 106.872L170.059 72.3015C169.888 71.9663 169.544 71.7553 169.167 71.7553H76.6207C76.2447 71.7553 75.9007 71.9663 75.7297 72.3015L58.1227 106.877C57.9597 107.198 57.9817 107.582 58.1797 107.882L110.498 187.139C110.683 187.419 110.997 187.588 111.333 187.588H145.041C145.378 187.588 145.693 187.418 145.877 187.136L197.83 107.87C198.023 107.576 198.047 107.202 197.894 106.886L176.103 61.9239C175.936 61.579 175.587 61.36 175.204 61.36H69.0867C68.6957 61.36 68.3417 61.5874 68.1777 61.9422L47.4987 106.902C47.3577 107.21 47.3817 107.569 47.5627 107.855L104.45 197.519C104.634 197.808 104.952 197.983 105.295 197.983H149.576C149.915 197.983 150.23 197.812 150.414 197.529L208.798 107.866C208.988 107.574 209.013 107.204 208.862 106.89L186.417 59.875" stroke="white" stroke-width="5" stroke-linecap="square"/>
</g>
<defs>
<linearGradient id="paint0_linear_1438_183" x1="256" y1="128" x2="0" y2="128" gradientUnits="userSpaceOnUse">
<stop stop-color="#3A57A6"/>
<stop offset="0.38" stop-color="#3A57A6"/>
<stop offset="0.645" stop-color="#008ED4"/>
<stop offset="1" stop-color="#008ED4"/>
</linearGradient>
<clipPath id="clip0_1438_183">
<rect width="256" height="256" fill="white"/>
</clipPath>
</defs>
</svg>
