<svg width="256" height="256" viewBox="0 0 256 256" fill="none" xmlns="http://www.w3.org/2000/svg">
<g clip-path="url(#clip0_2108_10735)">
<path d="M256 128C256 57.3076 198.692 0 128 0C57.3076 0 0 57.3076 0 128C0 198.692 57.3076 256 128 256C198.692 256 256 198.692 256 128Z" fill="black"/>
<path d="M94.8507 135.41H62.3105V120.3H83.7704L95.2953 100.501C95.217 100.633 93.7515 100.501 93.5985 100.501H82.8277C81.7215 100.501 80.5654 100.401 79.4663 100.501C79.0679 100.536 78.9434 100.644 78.5913 100.811C77.8194 101.183 76.9514 101.072 76.1191 101.072C75.6531 101.072 75.0662 101.165 74.6251 101.036C74.5433 101.011 74.4757 100.933 74.369 100.911C74.2481 100.886 74.1058 100.926 73.9813 100.922C73.7359 100.911 73.4548 100.826 73.2165 100.769C72.7078 100.647 72.3023 100.615 71.7653 100.612C71.4593 100.612 71.285 100.697 71.0005 100.751C70.7622 100.797 70.4811 100.765 70.2357 100.765C69.7519 100.765 69.2682 100.765 68.7844 100.765H67.2584C66.7071 100.765 66.1771 100.826 65.6542 100.626C64.6262 100.233 63.3919 100.626 62.307 100.497V84.4511H100.293C100.41 84.4511 100.898 83.3657 100.958 83.2621C102.993 79.6202 105.024 75.9818 107.058 72.3398C108.496 69.769 109.929 67.1982 111.366 64.6274C109.246 64.6274 107.332 64.5096 105.262 64.0918C104.042 63.8455 102.978 64.1418 101.79 64.4275C101.068 64.6024 100.286 64.7667 99.5424 64.6988C98.8879 64.6381 98.2832 64.3668 97.618 64.406C96.9742 64.4453 96.3268 64.7238 95.7754 65.0273C95.2775 65.2987 94.8542 65.8343 94.3811 66.0985C94.0894 66.2592 93.6056 66.1628 93.282 66.1556C92.7946 66.1449 92.5634 66.2949 92.1259 66.3877C91.4501 66.5305 91.0481 66.0592 90.5608 65.6879C90.2798 65.4736 90.1624 65.4701 89.8423 65.5629C89.4937 65.6629 89.387 65.6058 89.0668 65.5379C88.8855 65.4986 88.7076 65.5058 88.5226 65.4701C88.423 65.4486 88.334 65.363 88.1882 65.3487C87.8396 65.3094 87.4484 65.4379 87.1104 65.3201C86.7725 65.2023 86.7156 64.9738 86.2852 65.0559C86.1607 65.0809 86.0433 65.1666 85.8939 65.1951C85.7339 65.2273 85.5916 65.2737 85.4315 65.313C85.2217 65.3701 85.0296 65.3023 84.8197 65.338C84.6525 65.3665 84.528 65.4808 84.3608 65.5093C83.9803 65.57 83.6494 65.5843 83.283 65.7664C83.0447 65.8843 82.8491 66.0735 82.6107 66.1985C82.4258 66.2913 82.255 66.3163 82.0701 66.4198C81.9135 66.5091 81.7571 66.6198 81.6112 66.7269C81.2555 66.9911 80.8998 67.2696 80.5405 67.5303C80.3449 67.6731 80.2097 67.8552 79.9928 67.9623C79.79 68.0623 79.6086 68.098 79.4272 68.2265C79.0644 68.48 78.7051 68.8157 78.3636 69.1013C77.8941 69.4977 77.453 69.9226 76.8305 70.0761C76.4961 70.1582 75.7491 70.2296 75.486 69.9654C75.2227 69.7012 75.3472 69.0763 75.3472 68.7228C75.3472 68.4408 75.3615 68.1623 75.3152 67.8838C75.2547 67.5231 75.3116 67.391 75.365 67.0126C75.5677 65.5879 74.6251 64.3061 73.1347 64.7988C71.7653 65.2523 71.2139 65.3344 69.8764 64.8702C68.1193 64.2632 66.0241 64.6274 64.2172 64.6274H39.7374C39.5346 64.6274 39.1113 64.7131 38.9228 64.6274C38.9406 64.6346 38.9086 77.9385 38.873 78.9525C38.8517 79.5738 38.9086 80.0808 39.1505 80.6592C39.4244 81.3162 39.499 82.0375 39.7836 82.673C39.9259 82.9944 40.0575 83.3121 40.15 83.6514C40.3385 84.3512 40.3848 85.0796 40.3848 85.8008C40.3848 86.5863 40.4666 87.1719 40.9183 87.8075C41.1068 88.0717 41.2918 88.2538 41.3772 88.5715C41.491 88.9822 41.3772 89.1036 41.1887 89.45C41.0286 89.7463 40.8507 90.0498 40.6907 90.3354C40.5591 90.5711 40.495 90.8032 40.2745 90.9853C40.0077 91.2067 39.8085 91.2816 39.6591 91.5994C39.4919 91.9565 39.2003 92.1885 39.0046 92.5492C38.7947 92.9277 38.937 92.9384 39.0188 93.3205C39.1078 93.7417 38.9762 94.0631 39.1647 94.4844C39.4244 95.0629 39.5488 95.5521 39.3212 96.1661C39.1433 96.6446 38.5671 97.2159 38.72 97.7586C38.7556 97.8871 38.8872 98.0228 38.937 98.1549C39.2892 99.1119 39.1042 99.9831 38.937 100.954C38.8196 101.647 38.8161 102.315 38.8623 103.011C38.9299 103.986 38.8801 104.953 38.8943 105.928C38.9086 107.078 39.2074 108.242 39.0829 109.388C38.8623 111.384 38.56 113.805 39.0509 115.783C39.2287 116.504 39.4635 117.204 39.5097 117.954C39.5417 118.461 39.5453 119.45 39.8512 119.871C40.5413 120.817 42.8356 119.35 43.4687 118.85C43.732 118.643 43.8849 118.371 44.0983 118.118C44.6675 117.454 45.4607 117.932 46.1863 117.932C46.6417 117.932 47.0507 117.843 47.4847 117.707C48.0111 117.539 48.3775 117.475 48.936 117.472C49.2739 117.472 49.7399 117.468 50.0138 117.697C50.4193 118.036 49.7256 118.6 49.466 118.846C48.3846 119.871 47.0757 120.699 45.8057 121.464C45.4998 121.646 45.2295 121.738 44.9734 121.988C44.6034 122.349 44.3224 122.778 43.9738 123.149C43.675 123.47 43.266 123.649 42.9636 123.949C42.7573 124.152 42.423 124.474 42.3625 124.749C42.2629 125.216 42.5652 125.241 42.6791 125.591C42.7929 125.941 42.4941 126.262 42.2985 126.455C41.9926 126.755 41.6511 127.002 41.3345 127.287C41.1958 127.412 41.0677 127.53 40.9112 127.651C40.7547 127.773 40.5662 127.826 40.4132 127.933C40.2282 128.066 39.8512 128.405 39.9472 128.63C40.1109 129.008 40.5946 128.765 40.5377 129.351C40.4986 129.744 40.0824 130.108 39.805 130.386C39.6342 130.558 39.2145 130.858 39.1718 131.079C39.4386 131.129 39.6484 131.254 39.9188 131.268C40.1891 131.283 40.4274 131.236 40.6836 131.3C40.9895 131.379 41.2989 131.479 41.5301 131.7C41.8005 131.961 41.8325 132.364 42.1064 132.614C42.5973 133.064 43.2304 133.196 43.1201 134.014C43.0312 134.682 42.5297 135.289 42.1348 135.803C41.587 136.517 40.929 137.113 40.3029 137.756C39.4848 138.592 38.2434 139.17 38.0157 140.537C37.8984 141.248 38.4675 141.562 38.7165 142.248C39.1611 143.469 38.9157 144.704 38.9157 145.965C38.9157 147.571 38.9157 149.178 38.9157 150.789C38.9157 151.045 38.9157 155.837 38.9157 155.845C38.9157 155.891 53.3609 155.783 54.2502 155.852C54.7589 155.891 55.2711 156.155 55.7655 155.977C56.3667 155.758 56.6691 155.048 57.1314 154.649C58.2306 153.699 58.1986 154.838 59.1625 155.191C59.7814 155.416 60.9909 155.27 61.6347 155.248C62.1718 155.231 62.4208 155.023 62.9188 154.938C63.3136 154.87 63.6765 155.016 64.0749 154.895C64.9357 154.634 65.921 153.988 66.675 153.503C67.2726 153.116 68.0908 152.945 68.6421 152.566C69.2646 152.138 69.6772 151.742 70.4349 151.47C71.2815 151.167 71.9929 150.521 72.9355 150.582C72.4091 151.01 72.0747 151.785 71.5909 152.285C71.1072 152.785 70.4598 153.073 70.2037 153.784C69.8266 154.841 70.8013 154.938 71.5909 154.952C72.2241 154.963 72.8964 154.831 73.4833 155.134C73.8888 155.345 74.1165 155.72 74.5789 155.837C75.9163 156.176 77.7162 155.865 79.1035 155.865C80.505 155.865 81.91 155.865 83.3115 155.865L94.8435 135.403L94.8507 135.41Z" fill="white"/>
<path d="M160.376 183.109L183.743 191.821C183.743 189.633 183.735 187.44 183.746 185.252C183.753 184.148 183.671 183.199 183.287 182.16C183.023 181.449 182.636 180.731 182.59 179.963C182.551 179.331 182.928 178.767 182.81 178.15C182.7 177.578 182.491 177.032 182.523 176.44C182.547 175.95 182.757 175.554 182.704 175.033C182.65 174.511 182.313 174.568 181.932 174.315C181.647 174.126 181.416 173.822 181.153 173.59C181.348 173.119 181.714 172.716 182.127 172.362C182.451 172.087 182.889 171.998 183.187 171.702C183.465 171.433 183.486 171.162 183.568 170.823C183.678 170.359 183.817 170.023 183.753 169.505C183.678 168.902 183.515 168.302 183.433 167.699C183.365 167.213 183.579 166.802 183.572 166.299C183.565 165.885 183.689 165.567 183.788 165.178C183.949 164.564 183.813 163.832 183.8 163.196C183.771 161.65 183.738 160.104 183.718 158.558C183.718 158.38 183.565 156.33 183.738 156.273C183.743 156.273 183.963 156.273 183.973 156.273C187.637 156.273 191.305 156.273 194.969 156.273C197.575 156.273 200.18 156.209 202.787 156.244C203.328 156.252 204.149 156.416 204.686 156.133C205.152 155.891 205.213 155.355 205.266 154.884C205.341 154.227 205.394 153.57 205.703 152.97C205.91 152.57 206.22 152.227 206.458 151.845C206.721 151.42 206.928 150.964 207.148 150.517C207.436 149.928 207.774 149.367 207.987 148.75C208.112 148.386 208.339 148.132 208.105 147.793C207.916 147.525 207.571 147.386 207.329 147.179C207.201 147.068 206.885 146.829 206.846 146.672C206.774 146.382 207.158 145.983 207.368 145.836C207.962 145.426 208.645 145.158 209.282 144.847C209.919 144.536 210.434 144.133 210.929 143.651C211.349 143.244 211.783 142.637 211.957 142.087C212.053 141.78 212.121 141.477 212.199 141.18C212.273 140.905 212.412 140.716 212.569 140.48C212.906 139.973 213.181 139.398 213.557 138.881C214.252 137.924 214.863 136.946 215.393 135.892C212.419 136.035 183.731 135.806 183.731 135.896V120.407H222.937L234.007 100.583C231.716 100.565 229.422 100.547 227.131 100.529C223.219 100.501 219.306 100.469 215.393 100.44C213.401 100.426 211.21 100.687 209.286 100.115C207.45 99.5688 205.576 100.415 203.701 100.404C203.441 100.404 203.075 100.326 202.819 100.39C202.563 100.454 202.513 100.651 202.271 100.711C201.947 100.79 201.56 100.608 201.232 100.686C200.994 100.744 200.845 100.915 200.642 100.961C200.314 101.036 199.963 100.897 199.639 100.972C199.418 101.022 199.294 101.186 199.091 101.279C198.458 101.561 197.899 101.95 197.27 102.229C196.917 102.386 195.89 103.068 195.608 102.572C195.349 102.115 196.491 101.119 196.149 100.826C196.11 100.794 195.274 101.104 195.135 101.119C194.712 101.158 194.268 101.147 193.855 101.044C193.592 100.979 193.343 100.819 193.101 100.761C192.827 100.701 192.582 100.729 192.326 100.622C191.834 100.412 191.525 100.169 190.956 100.422C190.387 100.676 189.803 100.972 189.284 101.268C188.405 101.768 187.442 102.236 186.944 103.189C186.641 103.764 186.261 103.85 185.649 104.025C184.952 104.225 184.269 104.553 183.586 104.796C182.974 105.01 182.327 105.089 181.764 105.325C181.256 105.539 181.036 105.971 180.637 106.289C180.221 106.621 179.737 106.917 179.232 107.092C178.975 107.181 178.948 107.26 178.698 107.096C178.527 106.981 178.389 106.828 178.46 106.628C178.527 106.442 178.933 106.139 179.047 105.982C179.161 105.824 179.392 105.517 179.47 105.335C179.658 104.91 179.545 104.403 179.766 103.982C179.88 103.764 179.99 103.621 180.039 103.375C180.089 103.129 180.046 102.957 179.962 102.686C179.804 102.186 179.779 101.69 179.808 101.151C179.819 100.908 180.025 100.69 179.975 100.458C179.947 100.329 179.606 100.087 179.47 100.033C179.26 99.9509 178.862 99.8653 178.631 99.8367C178.25 99.7938 177.866 99.9902 177.482 100.004C176.913 100.026 176.344 99.9581 175.775 100.033C175.045 100.126 174.362 100.319 173.623 100.312C173.061 100.308 172.499 100.387 171.936 100.344C171.247 100.29 170.659 100.104 169.951 100.097C168.867 100.09 167.785 100.079 166.7 100.072L161.767 100.037C161.657 100.037 160.437 100.126 160.376 100.026C160.521 100.265 160.387 101.015 160.39 101.286C160.394 102.415 160.39 103.543 160.39 104.671C160.39 107.96 160.38 111.248 160.372 114.537C160.365 117.043 160.358 119.55 160.351 122.056C160.348 123.088 160.437 124.166 160.28 125.191C160.167 125.93 160.009 126.773 160.18 127.526C160.372 128.39 161.29 129.194 160.632 130.072C160.394 130.39 160.191 130.572 160.141 130.983C160.091 131.393 159.863 131.807 160.316 132.05C160.578 132.19 161.013 132.107 161.244 132.339C161.439 132.536 161.318 132.675 161.358 132.918C161.4 133.182 161.571 133.339 161.55 133.625C161.525 133.982 161.343 134.389 161.236 134.714C161.098 135.124 160.966 135.507 160.796 135.903C160.615 136.321 160.454 136.71 160.273 137.131C160.091 137.552 159.903 137.777 160.148 138.184C160.369 138.552 160.489 138.795 160.497 139.238C160.504 139.702 160.469 140.177 160.497 140.641C160.511 140.912 160.639 141.084 160.685 141.344C160.721 141.555 160.679 141.823 160.675 142.037C160.675 142.915 160.849 143.787 160.842 144.658C160.838 145.297 160.465 145.825 160.283 146.422C159.774 148.093 160.394 149.846 160.38 151.539C160.376 152.199 160.234 152.984 160.521 153.617C160.628 153.852 160.81 154.03 160.942 154.248C161.29 154.809 161.134 155.469 161.013 156.08C160.934 156.48 160.308 158.362 161.337 157.84C162.058 157.476 162.563 156.69 163.24 156.255C163.556 156.048 163.879 155.891 164.2 155.683C164.381 155.566 164.549 155.491 164.73 155.352C165.057 155.098 165.217 154.841 165.495 154.541C166.106 153.87 166.59 153.003 167.298 152.427C167.771 152.041 168.287 151.663 168.711 151.242C169.045 150.91 169.297 150.603 169.738 150.442C170.347 150.221 170.844 149.942 171.421 149.635C171.94 149.36 172.363 148.778 172.794 148.378C173.32 147.889 173.754 147.05 174.469 146.793C175.454 146.436 174.455 147.743 174.291 147.986C173.907 148.55 173.434 149.06 172.947 149.517C172.46 149.974 171.993 150.278 171.574 150.749C171.108 151.267 170.663 151.749 170.24 152.317C170.008 152.631 169.763 152.924 169.51 153.224C169.258 153.523 168.995 153.674 168.785 153.966C168.358 154.562 168.009 155.188 167.64 155.819C167.345 156.323 167.237 156.916 166.878 157.383C166.277 158.162 165.445 158.676 164.957 159.554C164.598 160.2 164.321 160.886 164.032 161.568C163.698 162.36 163.211 163.036 163.236 163.921C163.257 164.635 163.492 165.653 163.111 166.299C162.595 167.177 161.471 167.749 160.934 168.612C160.546 169.234 160.692 169.92 160.504 170.638C160.006 172.526 160.405 174.19 160.383 176.075C160.355 178.417 160.383 180.763 160.383 183.105V183.124L160.376 183.109Z" fill="white"/>
<path d="M154.89 131.078C154.869 130.982 154.652 130.849 154.652 130.782C154.52 130.617 154.428 130.389 154.343 130.196C154.197 129.857 154.204 129.646 154.161 129.275C154.119 128.936 154.051 128.686 153.703 128.657C153.46 128.639 153.297 128.846 153.08 128.832C152.966 128.825 152.834 128.689 152.713 128.657C152.315 128.554 152.07 128.853 151.714 128.936C151.323 129.025 150.988 129.139 150.604 129.275C150.249 129.4 149.935 129.368 149.576 129.464C149.199 129.564 148.772 129.675 148.37 129.553C148.442 129.285 148.911 129.046 149.089 128.811C149.296 128.532 149.234 128.379 149.271 128.05C149.348 127.332 149.922 127.007 150.572 126.747C151.149 126.518 151.775 126.108 152.18 125.601C152.34 125.404 152.567 124.976 152.617 124.744C152.646 124.601 152.6 124.451 152.642 124.312C152.806 123.751 153.166 123.241 153.375 122.701C154.019 121.038 154.52 119.281 154.52 117.506C154.52 112.825 154.393 112.693 154.393 106.266C154.393 104.484 152.205 105.691 150.81 104.542C150.54 104.317 150.309 104.11 149.946 104.056C149.334 103.967 149.519 104.252 148.982 104.413C148.442 104.574 148.071 104.338 147.534 104.202C146.56 103.952 145.596 104.699 144.788 105.099C143.991 105.495 143.081 105.913 142.44 106.555C141.697 107.302 141.448 108.387 140.708 109.119C140.612 109.212 140.502 109.305 140.378 109.398C140.064 109.876 139.755 110.354 139.449 110.833C137.013 114.657 134.775 118.602 132.53 122.541C132.712 122.559 132.879 122.641 133.004 122.834C133.22 123.169 133.054 123.58 132.876 123.89C132.673 124.244 132.435 124.587 132.178 124.915C132.239 125.094 132.332 125.283 132.456 125.515C132.498 125.594 132.534 125.676 132.57 125.761C132.591 125.768 132.609 125.779 132.631 125.79C132.982 125.979 133.032 126.365 132.911 126.697C133.036 127.05 133.175 127.393 133.388 127.693C133.744 128.196 134.291 128.414 134.846 128.618C135.387 128.818 136.088 128.818 136.614 129.2C136.525 129.714 135.757 129.817 135.341 129.96C133.544 130.589 132.68 131.689 132.975 133.667C133.128 134.691 133.15 135.23 132.473 135.423C132.282 135.477 132.037 135.502 131.72 135.505C129.82 135.516 127.917 135.509 126.017 135.505C126.01 135.548 125.997 135.591 125.978 135.634C125.591 136.555 125.118 137.441 124.592 138.294C124.353 138.683 124.001 139.069 123.809 139.476C123.723 139.658 123.709 139.858 123.606 140.04C123.51 140.208 123.389 140.361 123.268 140.511C123.051 140.786 122.756 140.979 122.539 141.268C122.261 141.64 122.663 141.797 122.87 142.097C123.14 142.486 122.866 142.993 122.411 142.989C122.162 142.989 121.909 142.989 121.66 142.989C121.507 142.989 121.223 142.904 121.091 143.004C120.981 143.086 121.059 143.129 121.016 143.232C120.924 143.457 120.703 143.671 120.558 143.868C120.319 144.185 120.088 144.507 119.857 144.832C119.526 145.485 119.195 146.135 118.854 146.781C117.964 148.477 117.043 150.159 116.051 151.798C115.855 152.376 115.663 152.958 115.464 153.541L111.37 159.503L109.634 163.313L115.535 156.321C116.588 156.358 117.659 156.057 118.59 155.515C118.59 155.515 119.896 152.544 119.907 152.515C120.166 151.926 120.522 151.376 120.81 150.802C120.892 150.638 120.967 150.466 121.105 150.341C121.276 150.188 121.489 150.148 121.699 150.073C121.835 150.023 121.97 149.973 122.059 149.855C122.108 149.788 122.105 149.695 122.155 149.627C122.204 149.563 122.29 149.548 122.34 149.484C122.425 149.381 122.56 149.163 122.528 149.02C122.457 148.67 121.945 148.634 122.112 148.156C122.194 147.92 122.436 147.735 122.578 147.538C122.77 147.27 123.026 146.999 123.147 146.688C123.232 146.463 123.254 146.235 123.361 146.014C123.688 145.346 124.061 144.696 124.409 144.043C124.659 143.578 124.904 143.114 125.153 142.65C125.242 142.482 125.384 142.297 125.438 142.115L122.841 151.252C123.816 150.948 123.24 152.612 123.051 153.211C122.976 153.451 122.749 153.99 122.745 154.218C122.738 154.765 123.211 154.729 123.581 155.015C124.325 155.593 124.936 155.772 125.861 155.801C126.302 155.815 126.598 156.018 126.999 156.057C127.369 156.093 127.668 155.9 128.013 155.793C129.536 155.314 130.763 155.954 132.271 156.047C135.244 156.229 138.275 156.062 141.26 156.062H146.656C151.134 156.062 154.762 152.419 154.762 147.924C154.762 143.693 154.762 139.465 154.762 135.234C154.762 134.145 154.752 133.056 154.762 131.971C154.762 131.76 154.663 131.131 154.89 131.064V131.078Z" fill="white"/>
<path d="M141.643 101.012C141.47 100.633 141.131 100.837 140.811 100.776C140.153 100.651 139.555 99.9049 138.912 99.6585C138.399 99.4621 138.005 99.5621 137.467 99.7156C136.888 99.8799 136.291 99.9799 135.689 100.016C135.469 100.03 135.216 100.044 135.01 100.008C134.824 99.9763 134.672 99.8692 134.487 99.837C134.099 99.7692 133.797 100.087 133.363 99.9548C132.193 99.5978 130.997 99.78 129.766 99.7907C121.713 99.8728 113.653 99.7442 105.603 99.8121C101.466 99.8477 98.1441 103.25 98.1939 107.403C98.2544 112.748 98.1726 118.136 98.2473 123.488C98.2721 125.192 98.2259 126.863 98.6635 128.516C98.8484 129.208 98.7702 129.955 98.9302 130.662C98.9871 130.908 99.1508 131.265 99.3464 131.437C99.5883 131.647 99.9796 131.661 100.271 131.729C100.574 131.801 100.776 131.933 101.029 132.079C101.495 132.347 101.324 132.39 101.068 132.808C100.979 132.95 100.944 133.125 100.851 133.268C100.737 133.443 100.552 133.55 100.449 133.732C100.285 134.025 100.307 134.168 99.9297 134.411C99.7305 134.539 99.5563 134.7 99.4211 134.896C99.2824 135.093 99.1472 135.243 98.9729 135.418C98.5781 135.81 98.2829 136.107 98.4322 136.728C98.5567 137.249 98.7452 137.674 98.7417 138.256C98.7382 139.188 98.7524 140.192 98.5497 141.106C98.3433 142.02 98.4358 147.49 98.4963 148.429C98.5319 148.972 98.5674 149.354 98.6172 149.653C98.6101 149.614 98.8484 149.414 98.8733 149.386C99.1543 149.093 99.4353 148.8 99.7199 148.507C100.225 147.982 100.741 147.461 101.239 146.926C101.438 146.711 101.634 146.469 101.9 146.333C102.217 146.169 102.562 146.219 102.893 146.129C103.359 146.001 103.401 145.433 103.149 145.076C102.978 144.837 102.758 144.673 102.953 144.398C103.181 144.083 103.53 143.905 103.821 143.669C104.127 143.426 104.252 143.087 104.493 142.798C104.693 142.555 105.041 142.491 105.287 142.298C105.593 142.055 105.806 141.723 106.091 141.455C106.482 141.084 107.001 140.909 107.396 140.531C108.46 139.509 109.452 138.399 110.473 137.339C110.772 137.028 111.067 136.721 111.366 136.41C111.216 136.625 111.067 136.842 110.921 137.057C110.242 138.042 109.562 139.024 108.883 140.009C108.413 140.688 107.947 141.366 107.478 142.045C107.033 142.687 106.539 143.305 106.126 143.962C105.98 144.198 105.778 144.383 105.625 144.612C105.504 144.79 105.322 144.919 105.351 145.126C105.368 145.258 105.557 145.458 105.625 145.583C105.81 145.933 106.016 146.304 105.792 146.69C105.422 147.325 104.871 146.233 104.341 146.651C103.935 146.972 103.675 147.55 103.387 147.968L101.822 150.232C101.74 150.353 100.282 152.356 100.325 152.4C100.488 152.556 100.673 152.713 100.858 152.867C100.659 153.327 100.648 153.81 100.961 154.292C102.299 156.348 100.716 159.519 100.716 159.519L100.022 163.072V166.5L101.541 161.294L103.69 160.533L105.76 155.238C106.443 154.356 107.119 153.467 107.791 152.574C107.823 152.531 107.855 152.485 107.891 152.442C107.979 152.01 108.115 151.589 108.239 151.214C108.474 150.493 108.744 149.757 109.107 149.079C109.082 148.996 109.071 148.904 109.082 148.8C109.125 148.318 109.566 148.075 109.95 147.879C110.356 147.672 110.736 147.522 111.177 147.74C111.216 147.761 111.255 147.783 111.291 147.804C111.316 147.772 111.337 147.74 111.362 147.704C111.864 146.972 112.383 146.254 112.91 145.54C112.977 145.444 113.045 145.351 113.112 145.255C113.262 144.58 113.464 143.923 113.834 143.319C114.336 142.495 115.012 141.927 115.809 141.423C116.758 140.063 117.708 138.703 118.654 137.339C118.587 137.153 118.612 136.946 118.793 136.792C119.106 136.525 119.398 136.242 119.586 135.893C119.593 135.675 119.455 135.432 119.373 135.243C119.117 134.65 118.925 133.997 119.142 133.357C119.387 132.626 120.18 132.386 120.76 131.99V119.611C120.76 119.611 124.324 119.604 127.629 119.6C127.995 119.136 128.379 118.686 128.781 118.25C129.286 117.597 129.784 116.94 130.275 116.276C131.339 114.837 132.37 113.369 133.356 111.877C134.255 110.513 135.18 109.206 136.286 107.999C137.09 107.125 137.941 106.303 138.812 105.496C139.57 104.225 140.384 102.99 141.352 101.876C141.363 101.862 141.376 101.851 141.388 101.837C141.583 101.597 141.807 101.34 141.651 101.005L141.643 101.012Z" fill="white"/>
</g>
<defs>
<clipPath id="clip0_2108_10735">
<rect width="256" height="256" fill="white"/>
</clipPath>
</defs>
</svg>
