<svg width="256" height="256" viewBox="0 0 256 256" fill="none" xmlns="http://www.w3.org/2000/svg">
<g clip-path="url(#clip0_2487_142)">
<path d="M128 256C198.692 256 256 198.692 256 128C256 57.3075 198.692 0 128 0C57.3075 0 0 57.3075 0 128C0 198.692 57.3075 256 128 256Z" fill="#13B5EC"/>
<path d="M124.818 184.636V68.2727H132.273V184.636H124.818ZM144.591 106.682C144.227 103.015 142.667 100.167 139.909 98.1364C137.152 96.1061 133.409 95.0909 128.682 95.0909C125.47 95.0909 122.758 95.5455 120.545 96.4545C118.333 97.3333 116.636 98.5606 115.455 100.136C114.303 101.712 113.727 103.5 113.727 105.5C113.667 107.167 114.015 108.621 114.773 109.864C115.561 111.106 116.636 112.182 118 113.091C119.364 113.97 120.939 114.742 122.727 115.409C124.515 116.045 126.424 116.591 128.455 117.045L136.818 119.045C140.879 119.955 144.606 121.167 148 122.682C151.394 124.197 154.333 126.061 156.818 128.273C159.303 130.485 161.227 133.091 162.591 136.091C163.985 139.091 164.697 142.53 164.727 146.409C164.697 152.106 163.242 157.045 160.364 161.227C157.515 165.379 153.394 168.606 148 170.909C142.636 173.182 136.167 174.318 128.591 174.318C121.076 174.318 114.53 173.167 108.955 170.864C103.409 168.561 99.0758 165.152 95.9545 160.636C92.8636 156.091 91.2424 150.47 91.0909 143.773H110.136C110.348 146.894 111.242 149.5 112.818 151.591C114.424 153.652 116.561 155.212 119.227 156.273C121.924 157.303 124.97 157.818 128.364 157.818C131.697 157.818 134.591 157.333 137.045 156.364C139.53 155.394 141.455 154.045 142.818 152.318C144.182 150.591 144.864 148.606 144.864 146.364C144.864 144.273 144.242 142.515 143 141.091C141.788 139.667 140 138.455 137.636 137.455C135.303 136.455 132.439 135.545 129.045 134.727L118.909 132.182C111.061 130.273 104.864 127.288 100.318 123.227C95.7727 119.167 93.5152 113.697 93.5455 106.818C93.5152 101.182 95.0152 96.2576 98.0455 92.0455C101.106 87.8333 105.303 84.5455 110.636 82.1818C115.97 79.8182 122.03 78.6364 128.818 78.6364C135.727 78.6364 141.758 79.8182 146.909 82.1818C152.091 84.5455 156.121 87.8333 159 92.0455C161.879 96.2576 163.364 101.136 163.455 106.682H144.591Z" fill="white"/>
</g>
<defs>
<clipPath id="clip0_2487_142">
<rect width="256" height="256" fill="white"/>
</clipPath>
</defs>
</svg>
