<svg width="256" height="256" viewBox="0 0 256 256" fill="none" xmlns="http://www.w3.org/2000/svg">
<path d="M128.858 0.000706881C154.137 0.170258 178.8 7.82126 199.736 21.9889C220.672 36.1565 236.945 56.2063 246.501 79.6098C256.058 103.013 258.47 128.723 253.435 153.496C248.399 178.269 236.141 200.996 218.207 218.811C200.272 236.627 177.463 248.733 152.657 253.602C127.852 258.472 102.159 255.888 78.8203 246.175C55.4813 236.462 35.5409 220.056 21.5137 199.025C7.48647 177.995 0.000568594 153.281 0 128.002C0.114758 93.9402 13.7551 61.3192 37.9206 37.3146C62.086 13.3099 94.7972 -0.112222 128.858 0.000706881Z" fill="#B4F9BA"/>
<path d="M96.6253 51.5899L126.547 34.3675C127.399 33.8775 128.456 33.8775 129.308 34.3675L208.167 79.7469C209.019 80.2368 209.543 81.1432 209.552 82.1232L209.658 113.334C209.658 114.322 209.133 115.237 208.273 115.727L178.393 132.925C176.557 133.987 174.255 132.663 174.247 130.549L174.149 102.539C174.149 101.559 173.616 100.652 172.764 100.162L96.6253 56.3589C94.7818 55.2973 94.7818 52.6515 96.6253 51.5899Z" fill="#010101"/>
<path d="M77.2978 192.962L47.3846 175.748C46.5244 175.258 46 174.351 46 173.363V82.6043C46 81.6243 46.5244 80.7179 47.3764 80.2197L74.4466 64.5162C75.3069 64.018 76.3638 64.018 77.2159 64.5162L107.096 81.7142C108.931 82.7758 108.94 85.4134 107.104 86.4832L82.8199 100.57C81.9679 101.06 81.4435 101.966 81.4435 102.954V190.586C81.4435 192.709 79.1412 194.024 77.2978 192.962Z" fill="#010101"/>
<path d="M209.659 138.926V173.355C209.659 174.344 209.134 175.25 208.274 175.739L129.415 221.119C128.563 221.609 127.514 221.609 126.662 221.119L99.4853 205.603C98.625 205.113 98.0924 204.199 98.0924 203.21V168.823C98.0924 166.708 100.387 165.385 102.23 166.43L126.613 180.353C127.465 180.844 128.514 180.836 129.366 180.353L205.505 136.534C207.347 135.473 209.65 136.796 209.65 138.919L209.659 138.926Z" fill="#010101"/>
</svg>
