<svg width="256" height="256" viewBox="0 0 256 256" fill="none" xmlns="http://www.w3.org/2000/svg">
<g clip-path="url(#clip0_2488_168)">
<path d="M128 256C198.692 256 256 198.692 256 128C256 57.3076 198.692 0 128 0C57.3076 0 0 57.3076 0 128C0 198.692 57.3076 256 128 256Z" fill="#FFE4E4"/>
<path d="M137.778 50.2672C135.284 47.5484 131.763 46 128.073 46C124.386 46 120.863 47.5484 118.369 50.2672C109.123 60.35 63 112.281 63 144.442C63 180.323 92.1922 209.516 128.073 209.516C163.955 209.516 193.147 180.325 193.147 144.442C193.147 112.281 147.023 60.35 137.778 50.2672ZM128.075 183.184C106.711 183.184 89.3328 165.806 89.3328 144.442C89.3328 130.722 109.638 101.228 128.075 79.1766C146.513 101.228 166.817 130.722 166.817 144.442C166.816 165.803 149.438 183.184 128.075 183.184Z" fill="#383838"/>
</g>
<defs>
<clipPath id="clip0_2488_168">
<rect width="256" height="256" fill="white"/>
</clipPath>
</defs>
</svg>
