<svg width="256" height="256" viewBox="0 0 256 256" fill="none" xmlns="http://www.w3.org/2000/svg">
<path d="M1.26148 110.188C11.0988 40.1923 75.8164 -8.57578 145.812 1.26146C215.808 11.0987 264.577 75.8162 254.738 145.812C244.902 215.807 180.184 264.576 110.188 254.739C40.1924 244.901 -8.57585 180.184 1.26148 110.188Z" fill="black"/>
<path d="M132.429 115.857C133.24 116.044 134.047 116.251 134.852 116.463C135.577 116.525 136.302 116.588 137.049 116.652C137.724 116.79 138.398 116.927 139.094 117.069C139.775 118.28 139.775 118.28 140.305 119.492C141.854 119.984 141.854 119.984 143.335 120.098C143.335 120.498 143.335 120.898 143.335 121.31C143.735 121.31 144.135 121.31 144.547 121.31C144.547 121.71 144.547 122.11 144.547 122.522C147.546 122.522 150.545 122.522 153.635 122.522C160.905 135.916 160.905 135.916 160.905 138.275C161.305 138.275 161.705 138.275 162.117 138.275C162.33 137.575 162.542 136.875 162.761 136.154C164.24 131.682 166.262 127.425 168.176 123.128C171.575 123.128 174.974 123.128 178.476 123.128C177.537 125.943 176.718 127.854 175.219 130.322C173.757 132.772 172.38 135.214 171.153 137.789C170.57 138.939 169.893 139.992 169.198 141.077C167.953 143.567 168.035 144.106 168.782 146.757C169.851 148.915 171.07 150.975 172.304 153.043C178.476 163.526 178.476 163.526 178.476 165.539C175.077 165.539 171.678 165.539 168.176 165.539C167.162 163.358 166.153 161.174 165.147 158.988C164.858 158.368 164.569 157.747 164.271 157.108C163.998 156.512 163.724 155.917 163.443 155.303C163.189 154.754 162.935 154.205 162.673 153.64C162.117 152.21 162.117 152.21 162.117 150.392C161.717 150.392 161.317 150.392 160.905 150.392C160.766 150.976 160.627 151.559 160.484 152.16C159.647 155.083 158.217 157.633 156.74 160.276C156.477 160.767 156.214 161.258 155.942 161.763C155.682 162.232 155.422 162.701 155.154 163.184C154.921 163.608 154.687 164.032 154.447 164.468C153.483 165.74 152.697 166.195 151.211 166.751C149.517 166.737 149.517 166.737 147.727 166.524C147.131 166.457 146.534 166.39 145.919 166.32C145.466 166.263 145.013 166.205 144.547 166.145C144.347 166.545 144.147 166.945 143.941 167.357C143.341 167.357 142.741 167.357 142.123 167.357C141.101 168.354 140.091 169.364 139.094 170.386C138.694 170.386 138.294 170.386 137.882 170.386C137.882 170.786 137.882 171.186 137.882 171.598C135.971 172.731 134.642 173.172 132.429 172.81C131.242 171.61 130.329 170.533 129.362 169.175C129.096 168.814 128.83 168.453 128.556 168.081C126.718 165.541 125.117 163.004 123.947 160.086C123.782 159.697 123.617 159.309 123.447 158.908C121.504 154.074 120.691 149.304 120.728 144.106C120.731 143.602 120.734 143.098 120.737 142.578C120.811 138.679 121.343 135.271 122.735 131.61C122.927 131.036 123.119 130.462 123.317 129.87C125.244 124.615 128.458 119.827 132.429 115.857Z" fill="#040302"/>
<path d="M123.34 77.0804C122.74 79.4797 122.14 81.879 121.522 84.351C118.55 84.9454 117.694 84.8761 114.933 84.0859C108.115 82.4179 101.774 82.2725 95.4694 85.5627C95.0289 85.7603 94.5884 85.9579 94.1345 86.1615C92.5633 87.0462 92.4176 88.131 91.8341 89.8039C91.2342 90.8036 90.6344 91.8033 90.0164 92.8333C89.8165 97.2321 89.6165 101.631 89.4105 106.163C98.4079 106.163 107.405 106.163 116.675 106.163C116.675 109.162 116.675 112.161 116.675 115.251C107.678 115.251 98.6806 115.251 89.4105 115.251C89.4105 134.445 89.4105 153.64 89.4105 173.416C85.6116 173.416 81.8128 173.416 77.8988 173.416C77.8988 154.421 77.8988 135.427 77.8988 115.857C72.9002 115.857 67.9017 115.857 62.7517 115.857C61.688 114.793 62.0657 113.412 62.063 111.997C62.0653 111.571 62.0676 111.145 62.0701 110.707C62.0677 110.281 62.0654 109.856 62.063 109.417C62.0691 106.239 62.0691 106.239 62.7517 105.557C63.8748 105.504 64.9999 105.492 66.1243 105.498C66.8057 105.5 67.4871 105.502 68.1892 105.504C68.9066 105.509 69.624 105.514 70.3631 105.519C71.0828 105.522 71.8025 105.524 72.544 105.527C74.329 105.534 76.1138 105.544 77.8988 105.557C77.8671 104.634 77.8671 104.634 77.8349 103.692C77.6306 95.1941 78.6761 86.6428 84.7907 80.1855C94.6835 71.0833 111.784 71.3025 123.34 77.0804Z" fill="#F5F5F5"/>
<path d="M143.334 123.127C146.933 123.127 150.532 123.127 154.24 123.127C156.55 128.05 156.55 128.05 157.266 129.579C158.202 131.571 159.149 133.547 160.154 135.505C160.905 137.063 160.905 137.063 160.905 138.275C161.304 138.275 161.704 138.275 162.116 138.275C162.329 137.575 162.541 136.875 162.76 136.154C164.239 131.682 166.261 127.425 168.175 123.127C171.574 123.127 174.973 123.127 178.475 123.127C177.537 125.943 176.718 127.854 175.219 130.322C173.756 132.772 172.379 135.214 171.153 137.789C170.569 138.938 169.892 139.992 169.198 141.077C167.952 143.567 168.034 144.106 168.781 146.757C169.85 148.915 171.069 150.975 172.303 153.043C178.475 163.526 178.475 163.526 178.475 165.539C175.076 165.539 171.677 165.539 168.175 165.539C167.161 163.357 166.152 161.174 165.146 158.988C164.857 158.368 164.568 157.747 164.27 157.108C163.997 156.512 163.723 155.917 163.442 155.303C163.188 154.754 162.934 154.205 162.673 153.64C162.116 152.21 162.116 152.21 162.116 150.392C161.716 150.392 161.317 150.392 160.905 150.392C160.769 150.974 160.633 151.556 160.493 152.155C159.644 155.127 158.121 157.686 156.588 160.351C156.162 161.103 156.162 161.103 155.729 161.87C155.034 163.095 154.335 164.318 153.634 165.539C150.235 165.539 146.836 165.539 143.334 165.539C143.866 163.412 144.446 162.026 145.483 160.134C145.795 159.562 146.108 158.99 146.43 158.401C146.758 157.808 147.086 157.214 147.424 156.602C147.902 155.726 147.902 155.726 148.389 154.832C150.062 151.784 151.76 148.855 153.829 146.056C154.38 144.897 154.38 144.897 153.83 143.509C152.958 141.769 152.051 140.062 151.097 138.364C150.724 137.699 150.35 137.034 149.966 136.348C149.577 135.659 149.188 134.97 148.787 134.261C148.398 133.567 148.009 132.873 147.608 132.159C145.562 128.497 145.562 128.497 143.334 124.945C143.334 124.345 143.334 123.745 143.334 123.127Z" fill="#F5D30E"/>
<path d="M132.429 115.857C135.043 116.051 136.613 117.831 138.488 119.492C137.651 121.27 136.672 122.817 135.534 124.415C133.608 127.267 132.35 130.19 131.217 133.428C131.001 133.944 130.784 134.46 130.562 134.992C128.421 142.961 129.203 152.795 133.035 160.086C134.079 161.89 135.158 163.636 136.336 165.355C137.172 166.597 137.854 167.82 138.488 169.175C137.84 169.802 137.182 170.419 136.519 171.03C136.153 171.375 135.788 171.719 135.411 172.074C134.247 172.81 134.247 172.81 133.063 172.829C128.902 170.733 125.678 164.283 123.946 160.086C123.781 159.697 123.615 159.307 123.445 158.905C121.507 154.07 120.691 149.304 120.728 144.106C120.731 143.602 120.734 143.098 120.737 142.578C120.811 138.679 121.343 135.271 122.735 131.61C122.927 131.036 123.119 130.462 123.317 129.87C125.244 124.615 128.458 119.827 132.429 115.857Z" fill="#F5D40C"/>
<path d="M189.381 115.857C196.528 122.45 200.23 132.747 201.08 142.166C201.532 154.279 196.568 164.442 188.775 173.416C184.88 170.906 184.88 170.906 183.322 169.175C184.128 166.92 185.137 165.21 186.579 163.305C192.159 155.493 192.641 146.394 191.805 137.063C190.636 130.838 187.351 125.478 183.322 120.704C184.423 117.902 186.272 115.857 189.381 115.857Z" fill="#F6D40D"/>
<path d="M134.246 122.521C134.845 122.521 135.445 122.521 136.063 122.521C135.436 123.788 134.798 125.046 134.134 126.294C133.884 126.774 133.633 127.253 133.375 127.747C133.125 128.217 132.876 128.688 132.62 129.172C130.445 134.167 129.667 138.744 129.701 144.182C129.705 144.82 129.708 145.459 129.712 146.117C129.883 153.597 132.095 159.169 136.335 165.355C137.172 166.597 137.853 167.82 138.487 169.175C137.839 169.802 137.181 170.419 136.518 171.03C136.152 171.374 135.787 171.719 135.41 172.074C134.246 172.81 134.246 172.81 133.062 172.829C128.899 170.731 125.68 164.283 123.946 160.086C123.766 159.668 123.586 159.251 123.401 158.82C122.478 156.545 121.894 154.707 122.128 152.21C123.34 152.816 123.34 152.816 123.723 153.935C123.821 154.378 123.92 154.821 124.021 155.277C124.174 155.944 124.174 155.944 124.329 156.624C124.402 156.967 124.476 157.309 124.551 157.663C125.451 157.363 125.451 157.363 126.369 157.057C126.362 156.501 126.355 155.945 126.348 155.372C126.298 148.557 126.298 148.557 126.71 145.999C127.043 143.144 126.747 140.507 126.369 137.669C126.769 137.669 127.169 137.669 127.581 137.669C127.656 137.219 127.731 136.769 127.808 136.305C128.165 134.733 128.648 133.628 129.399 132.216C129.81 131.209 130.216 130.2 130.61 129.186C131.01 129.186 131.41 129.186 131.822 129.186C131.822 128.386 131.822 127.587 131.822 126.763C132.222 126.763 132.622 126.763 133.034 126.763C133.034 125.963 133.034 125.163 133.034 124.339C133.434 124.339 133.834 124.339 134.246 124.339C134.246 123.739 134.246 123.139 134.246 122.521Z" fill="#F3D016"/>
<path d="M143.334 123.127C146.933 123.127 150.532 123.127 154.24 123.127C155.052 124.804 155.859 126.483 156.663 128.164C156.895 128.64 157.126 129.116 157.364 129.606C157.583 130.065 157.801 130.524 158.027 130.997C158.23 131.419 158.433 131.841 158.642 132.276C159.087 133.427 159.087 133.427 159.087 135.245C158.693 134.664 158.693 134.664 158.292 134.071C157.322 132.66 157.322 132.66 155.452 132.216C155.452 132.616 155.452 133.015 155.452 133.427C155.052 133.427 154.652 133.427 154.24 133.427C154.377 133.04 154.515 132.653 154.656 132.254C154.931 129.565 153.987 127.432 153.028 124.945C152.404 124.956 152.404 124.956 151.767 124.966C151.221 124.972 150.675 124.977 150.112 124.983C149.3 124.994 149.3 124.994 148.472 125.004C146.969 124.945 146.969 124.945 145.152 124.339C147.527 129.396 147.527 129.396 150.605 134.033C151.204 134.233 151.804 134.433 152.422 134.639C152.422 136.039 152.422 137.438 152.422 138.88C153.222 138.88 154.022 138.88 154.846 138.88C156.204 140.186 156.628 140.988 156.841 142.866C156.82 143.4 156.799 143.934 156.777 144.485C156.761 145.025 156.744 145.566 156.727 146.123C156.706 146.532 156.685 146.941 156.663 147.363C156.264 147.363 155.864 147.363 155.452 147.363C154.452 149.362 153.452 151.362 152.422 153.422C153.222 153.422 154.022 153.422 154.846 153.422C154.846 155.718 154.576 157.82 154.24 160.086C154.24 160.486 154.24 160.886 154.24 161.298C155.24 159.299 156.239 157.299 157.269 155.239C157.669 155.239 158.069 155.239 158.481 155.239C157.468 158.989 155.523 162.172 153.634 165.539C150.235 165.539 146.836 165.539 143.334 165.539C143.866 163.412 144.446 162.026 145.483 160.134C145.795 159.562 146.108 158.99 146.43 158.401C146.758 157.808 147.086 157.214 147.424 156.602C147.902 155.726 147.902 155.726 148.389 154.832C150.062 151.784 151.76 148.855 153.829 146.056C154.38 144.897 154.38 144.897 153.83 143.509C152.958 141.769 152.051 140.062 151.097 138.364C150.724 137.699 150.35 137.034 149.966 136.348C149.577 135.659 149.188 134.97 148.787 134.261C148.398 133.567 148.009 132.873 147.608 132.159C145.562 128.497 145.562 128.497 143.334 124.945C143.334 124.345 143.334 123.745 143.334 123.127Z" fill="#F4D410"/>
<path d="M189.381 115.857C196.528 122.45 200.23 132.747 201.08 142.166C201.346 149.288 199.778 157.548 196.046 163.722C195.46 164.347 194.859 164.959 194.228 165.539C194.428 164.14 194.628 162.74 194.834 161.298C195.234 161.298 195.634 161.298 196.046 161.298C196.021 160.848 195.996 160.398 195.97 159.935C196.067 157.794 196.838 156.56 197.901 154.747C199.313 151.453 199.192 147.679 199.189 144.144C199.189 143.693 199.189 143.242 199.189 142.777C199.153 139.338 198.722 136.155 197.863 132.822C197.657 131.813 197.454 130.803 197.258 129.792C196.058 129.392 194.858 128.992 193.622 128.58C193.735 128.018 193.847 127.456 193.963 126.876C194.374 124.937 194.374 124.937 193.622 123.128C192.623 123.128 191.623 123.128 190.593 123.128C190.543 122.653 190.493 122.178 190.441 121.689C190.15 120.026 190.15 120.026 188.813 119.303C187.591 118.822 187.591 118.822 186.352 118.886C186.352 120.086 186.352 121.286 186.352 122.522C186.714 122.559 187.076 122.597 187.45 122.635C188.775 123.128 188.775 123.128 189.798 124.377C190.808 126.637 190.99 128.541 191.199 131.004C191.599 130.804 191.999 130.604 192.411 130.398C192.491 131.003 192.571 131.609 192.654 132.232C192.761 133.014 192.868 133.796 192.979 134.601C193.084 135.382 193.189 136.162 193.298 136.966C193.417 138.792 193.417 138.792 194.228 139.486C194.416 141.728 194.397 143.978 194.418 146.227C194.435 146.853 194.453 147.48 194.471 148.125C194.504 152.118 194.051 154.365 191.805 157.663C191.705 158.288 191.605 158.913 191.502 159.556C191.122 161.74 190.33 162.773 188.775 164.328C188.175 164.328 187.576 164.328 186.958 164.328C186.958 164.727 186.958 165.127 186.958 165.539C186.558 165.339 186.158 165.139 185.746 164.933C186.032 164.514 186.032 164.514 186.323 164.086C191.795 155.747 193.399 145.557 191.553 135.724C190.046 130.018 187.093 125.173 183.322 120.704C184.423 117.902 186.272 115.857 189.381 115.857Z" fill="#DFC532"/>
<path d="M132.429 115.857C135.043 116.051 136.613 117.831 138.487 119.492C137.427 121.84 137.427 121.84 136.064 122.522C136.064 121.522 136.064 120.522 136.064 119.492C135.264 119.492 134.464 119.492 133.64 119.492C133.64 119.092 133.64 118.692 133.64 118.28C132.386 119.364 131.833 120.07 131.255 121.651C130.611 123.128 130.611 123.128 129.323 123.923C128.761 124.129 128.761 124.129 128.187 124.339C128.387 124.739 128.587 125.139 128.793 125.551C127.695 127.369 127.695 127.369 126.37 129.186C125.77 129.186 125.17 129.186 124.552 129.186C124.552 130.386 124.552 131.586 124.552 132.822C124.152 132.822 123.752 132.822 123.34 132.822C123.347 133.245 123.354 133.668 123.362 134.104C123.37 134.932 123.37 134.932 123.378 135.775C123.385 136.324 123.392 136.872 123.4 137.437C123.34 138.88 123.34 138.88 122.735 140.092C122.643 140.969 122.584 141.849 122.543 142.729C122.505 143.502 122.505 143.502 122.466 144.291C122.442 144.83 122.418 145.369 122.394 145.924C122.368 146.467 122.341 147.011 122.314 147.571C122.25 148.915 122.188 150.26 122.129 151.604C120.485 149.138 120.708 147.23 120.728 144.333C120.731 143.813 120.733 143.292 120.737 142.756C120.81 138.789 121.318 135.334 122.735 131.61C122.927 131.036 123.119 130.462 123.317 129.87C125.244 124.615 128.458 119.827 132.429 115.857Z" fill="#CEB72B"/>
<path d="M135.457 117.068C136.656 117.068 137.856 117.068 139.092 117.068C139.298 117.649 139.298 117.649 139.509 118.242C140.214 119.657 140.214 119.657 141.894 119.946C142.369 119.996 142.844 120.046 143.333 120.098C143.333 120.498 143.333 120.898 143.333 121.31C143.733 121.31 144.133 121.31 144.545 121.31C144.545 121.709 144.545 122.109 144.545 122.521C147.544 122.521 150.543 122.521 153.633 122.521C153.633 122.721 153.633 122.921 153.633 123.127C150.234 123.127 146.835 123.127 143.333 123.127C143.733 123.902 144.133 124.677 144.545 125.475C145.757 127.823 145.757 127.823 145.757 129.186C143.333 129.186 143.333 129.186 141.516 127.974C141.716 126.975 141.915 125.975 142.121 124.945C141.522 125.145 140.922 125.345 140.304 125.551C138.675 124.983 138.675 124.983 137.274 124.339C137.074 125.339 136.875 126.338 136.669 127.368C137.068 127.368 137.468 127.368 137.88 127.368C138.08 127.968 138.28 128.568 138.486 129.186C136.687 128.986 134.887 128.786 133.033 128.58C133.774 125.544 135.051 123.857 137.187 121.681C137.416 121.359 137.644 121.036 137.88 120.704C137.276 118.89 136.819 118.312 135.457 117.068Z" fill="#0A0804"/>
<path d="M143.334 123.127C146.933 123.127 150.532 123.127 154.24 123.127C155.052 124.804 155.859 126.483 156.663 128.164C156.895 128.64 157.126 129.116 157.364 129.606C157.583 130.065 157.801 130.524 158.027 130.997C158.23 131.419 158.433 131.841 158.642 132.276C159.087 133.427 159.087 133.427 159.087 135.245C158.693 134.664 158.693 134.664 158.292 134.071C157.322 132.66 157.322 132.66 155.452 132.216C155.452 132.616 155.452 133.015 155.452 133.427C155.052 133.427 154.652 133.427 154.24 133.427C154.377 133.04 154.515 132.653 154.656 132.254C154.931 129.565 153.987 127.432 153.028 124.945C152.404 124.956 152.404 124.956 151.767 124.966C151.221 124.972 150.675 124.977 150.112 124.983C149.3 124.994 149.3 124.994 148.472 125.004C146.969 124.945 146.969 124.945 145.152 124.339C147.527 129.396 147.527 129.396 150.605 134.033C151.204 134.233 151.804 134.433 152.422 134.639C152.422 136.039 152.422 137.438 152.422 138.88C152.822 138.88 153.222 138.88 153.634 138.88C154.034 140.08 154.434 141.28 154.846 142.516C154.246 142.816 154.246 142.816 153.634 143.122C153.365 142.636 153.096 142.15 152.819 141.649C151.819 139.843 150.819 138.037 149.818 136.232C149.385 135.451 148.952 134.67 148.52 133.889C147.898 132.765 147.275 131.642 146.652 130.519C146.278 129.843 145.903 129.167 145.518 128.471C144.834 127.269 144.101 126.095 143.334 124.945C143.334 124.345 143.334 123.745 143.334 123.127Z" fill="#E1C72E"/>
<path d="M127.58 158.269C129.284 158.571 129.284 158.571 131.215 159.48C131.829 160.702 132.191 161.868 132.527 163.191C133.032 164.647 133.032 164.647 135.457 165.539C135.257 167.339 135.057 169.138 134.851 170.992C134.451 170.992 134.051 170.992 133.639 170.992C133.439 170.592 133.239 170.192 133.033 169.78C132.546 169.718 132.058 169.655 131.556 169.591C131.044 169.454 130.531 169.316 130.004 169.174C129.284 167.66 129.284 167.66 128.792 166.145C128.392 165.945 127.992 165.745 127.58 165.539C127.58 163.14 127.58 160.741 127.58 158.269Z" fill="#F5D40C"/>
<path d="M170.563 124.28C171.649 124.29 171.649 124.29 172.757 124.301C173.845 124.309 173.845 124.309 174.955 124.318C175.517 124.325 176.078 124.332 176.657 124.339C176.446 126.114 176.446 126.114 176.051 127.974C174.574 128.656 174.574 128.656 173.022 129.186C172.207 130.408 172.207 130.408 171.81 131.61C171.01 131.61 170.21 131.61 169.386 131.61C169.386 132.209 169.386 132.809 169.386 133.427C168.587 133.427 167.787 133.427 166.963 133.427C167.149 132.026 167.339 130.625 167.531 129.224C167.636 128.444 167.742 127.663 167.85 126.86C168.274 124.356 168.274 124.356 170.563 124.28Z" fill="#F7D409"/>
<path d="M134.246 122.521C134.845 122.521 135.445 122.521 136.063 122.521C135.436 123.788 134.798 125.046 134.134 126.294C133.884 126.774 133.633 127.253 133.375 127.747C133.126 128.217 132.876 128.688 132.62 129.172C130.416 134.234 129.71 138.911 129.588 144.409C129.567 145.046 129.547 145.684 129.525 146.34C129.476 147.893 129.434 149.445 129.399 150.998C127.975 149.305 127.343 148.155 127.138 145.952C127.065 145.226 127.065 145.226 126.99 144.485C126.927 143.735 126.927 143.735 126.861 142.97C126.812 142.461 126.762 141.952 126.711 141.427C126.59 140.175 126.479 138.922 126.369 137.669C126.769 137.669 127.169 137.669 127.581 137.669C127.656 137.219 127.731 136.769 127.808 136.305C128.165 134.733 128.648 133.628 129.399 132.216C129.81 131.209 130.216 130.2 130.61 129.186C131.01 129.186 131.41 129.186 131.822 129.186C131.822 128.386 131.822 127.587 131.822 126.763C132.222 126.763 132.622 126.763 133.034 126.763C133.034 125.963 133.034 125.163 133.034 124.339C133.434 124.339 133.834 124.339 134.246 124.339C134.246 123.739 134.246 123.139 134.246 122.521Z" fill="#E4C628"/>
<path d="M173.021 155.239C175.313 157.785 178.474 161.961 178.474 165.539C175.075 165.539 171.676 165.539 168.174 165.539C166.975 162.74 165.775 159.941 164.539 157.057C164.939 156.857 165.339 156.657 165.751 156.451C166.247 157.307 166.738 158.166 167.228 159.026C167.502 159.504 167.776 159.982 168.058 160.474C168.715 161.776 169.102 162.905 169.386 164.328C170.874 164.027 170.874 164.027 172.416 163.116C173.232 161.735 173.696 160.401 174.233 158.875C173.633 158.675 173.034 158.475 172.416 158.269C172.615 157.269 172.815 156.269 173.021 155.239Z" fill="#F4D122"/>
<path d="M196.652 127.369C198.297 129.285 198.892 130.941 199.454 133.39C199.6 134.007 199.745 134.625 199.894 135.262C200.024 135.856 200.154 136.45 200.287 137.063C200.457 137.808 200.457 137.808 200.631 138.568C202.026 146.664 200.338 156.623 196.046 163.722C195.46 164.347 194.859 164.959 194.229 165.539C194.428 164.14 194.628 162.74 194.834 161.298C195.234 161.298 195.634 161.298 196.046 161.298C196.021 160.848 195.996 160.398 195.97 159.935C196.068 157.794 196.839 156.56 197.902 154.747C199.313 151.453 199.193 147.679 199.189 144.144C199.189 143.693 199.188 143.242 199.188 142.777C199.136 138.139 198.421 134.088 196.652 129.792C196.652 128.992 196.652 128.193 196.652 127.369Z" fill="#CCBA3C"/>
<path d="M154.24 124.339C154.84 124.339 155.44 124.339 156.058 124.339C156.058 125.139 156.058 125.939 156.058 126.763C157.837 127.686 159.643 128.46 161.511 129.186C161.425 130.07 161.336 130.954 161.246 131.837C161.197 132.329 161.147 132.821 161.097 133.328C160.905 134.639 160.905 134.639 160.299 135.851C160.699 135.851 161.099 135.851 161.511 135.851C161.511 134.651 161.511 133.452 161.511 132.216C162.311 132.016 163.11 131.816 163.934 131.61C163.934 131.01 163.934 130.41 163.934 129.792C164.334 129.792 164.734 129.792 165.146 129.792C164.94 129.267 164.94 129.267 164.73 128.732C164.54 127.369 164.54 127.369 165.411 126.006C165.724 125.656 166.036 125.306 166.358 124.945C166.758 125.145 167.158 125.345 167.57 125.551C165.77 129.75 163.971 133.949 162.117 138.275C161.717 138.275 161.317 138.275 160.905 138.275C158.564 133.685 156.407 129.013 154.24 124.339Z" fill="#100A01"/>
<path d="M168.176 123.127C171.575 123.127 174.974 123.127 178.476 123.127C177.264 126.763 177.264 126.763 176.052 127.975C176.252 126.775 176.452 125.575 176.658 124.339C172.759 124.639 172.759 124.639 168.782 124.945C168.707 125.832 168.632 126.72 168.554 127.634C168.427 129.146 168.427 129.146 168.176 130.398C167.576 130.698 167.576 130.698 166.964 131.004C166.527 132 166.12 133.01 165.752 134.033C165.352 134.033 164.952 134.033 164.54 134.033C164.453 134.383 164.365 134.733 164.275 135.094C163.96 136.356 163.644 137.618 163.329 138.88C162.129 138.88 160.929 138.88 159.693 138.88C159.893 138.081 160.093 137.281 160.299 136.457C160.499 137.057 160.699 137.657 160.905 138.275C161.305 138.275 161.705 138.275 162.117 138.275C162.329 137.575 162.542 136.875 162.761 136.154C164.239 131.682 166.262 127.425 168.176 123.127Z" fill="#DCC332"/>
<path d="M191.199 135.245C192.476 137.16 192.566 137.641 192.572 139.832C192.574 140.375 192.575 140.919 192.577 141.479C192.572 142.046 192.567 142.613 192.563 143.197C192.567 143.75 192.572 144.303 192.577 144.873C192.551 154.001 189.52 160.825 183.929 167.963C183.323 166.751 183.323 166.751 183.815 165.198C184.535 163.722 184.535 163.722 185.746 163.116C185.946 162.516 186.146 161.916 186.352 161.298C186.752 161.298 187.152 161.298 187.564 161.298C187.626 160.536 187.689 159.774 187.753 158.988C188.013 156.838 188.388 156.1 189.988 154.633C190.516 152.154 190.697 149.726 190.785 147.197C190.811 146.498 190.836 145.799 190.862 145.079C190.886 144.358 190.91 143.637 190.934 142.894C190.96 142.159 190.987 141.425 191.014 140.667C191.078 138.86 191.139 137.053 191.199 135.245Z" fill="#382903"/>
<path d="M130.61 155.845C132.056 157.292 132.653 158.691 133.526 160.541C134.919 163.389 136.315 165.664 138.486 167.963C137.584 170.261 136.313 171.48 134.245 172.81C132.958 172.848 132.958 172.848 131.822 172.204C130.761 170.651 130.761 170.651 130.004 169.175C131.004 169.175 132.003 169.175 133.033 169.175C133.233 169.774 133.433 170.374 133.639 170.992C134.039 170.992 134.439 170.992 134.851 170.992C134.851 169.193 134.851 167.393 134.851 165.539C134.051 165.339 133.251 165.139 132.427 164.933C130.863 162.161 130.368 158.993 130.61 155.845Z" fill="#E1C431"/>
<path d="M168.781 153.421C169.381 153.621 169.981 153.821 170.599 154.027C170.586 154.59 170.574 155.152 170.561 155.731C170.503 157.676 170.503 157.676 171.204 159.48C172.004 159.48 172.804 159.48 173.628 159.48C173.174 162.964 173.174 162.964 171.81 164.327C171.011 164.327 170.211 164.327 169.387 164.327C168.387 162.328 167.387 160.328 166.357 158.268C166.757 158.268 167.157 158.268 167.569 158.268C167.657 157.581 167.744 156.894 167.834 156.186C168.175 154.027 168.175 154.027 168.781 153.421Z" fill="#FCD013"/>
<path d="M157.269 155.239C157.669 155.239 158.069 155.239 158.481 155.239C157.468 158.989 155.523 162.172 153.634 165.539C150.235 165.539 146.836 165.539 143.334 165.539C143.818 163.605 144.295 162.272 145.19 160.541C145.409 160.113 145.628 159.685 145.855 159.244C146.022 158.922 146.19 158.6 146.363 158.269C146.563 158.269 146.763 158.269 146.969 158.269C146.995 159.682 146.994 161.096 146.969 162.51C146.769 162.71 146.569 162.91 146.363 163.116C148.763 163.316 151.162 163.516 153.634 163.722C153.834 162.922 154.034 162.122 154.24 161.298C154.735 160.227 155.254 159.167 155.792 158.117C156.068 157.577 156.344 157.036 156.628 156.479C156.84 156.07 157.051 155.661 157.269 155.239Z" fill="#EDD133"/>
<path d="M126.37 164.933C128.472 166.915 130.123 168.897 131.695 171.323C132.452 172.389 132.452 172.389 134.246 172.81C134.246 173.209 134.246 173.609 134.246 174.021C133.646 174.021 133.046 174.021 132.428 174.021C132.228 174.421 132.029 174.821 131.823 175.233C130.005 174.627 130.005 174.627 128.793 172.81C128.393 173.209 127.993 173.609 127.581 174.021C127.181 173.821 126.782 173.621 126.37 173.415C126.569 172.416 126.769 171.416 126.975 170.386C126.576 170.386 126.176 170.386 125.764 170.386C125.764 169.986 125.764 169.586 125.764 169.174C126.164 168.974 126.563 168.774 126.975 168.568C126.763 168.194 126.551 167.819 126.332 167.432C126.144 167.007 125.957 166.583 125.764 166.145C125.964 165.745 126.164 165.345 126.37 164.933Z" fill="#0A0A04"/>
<path d="M193.623 139.486C193.823 139.486 194.022 139.486 194.228 139.486C194.299 141.72 194.342 143.954 194.38 146.189C194.41 147.133 194.41 147.133 194.441 148.095C194.492 152.108 194.069 154.35 191.805 157.663C191.705 158.288 191.605 158.912 191.502 159.556C191.122 161.74 190.33 162.773 188.776 164.328C188.176 164.328 187.576 164.328 186.958 164.328C186.958 164.727 186.958 165.127 186.958 165.539C186.558 165.339 186.158 165.139 185.746 164.933C185.944 164.626 186.141 164.318 186.345 164.001C187.907 161.541 189.341 159.088 190.593 156.451C190.993 156.451 191.393 156.451 191.805 156.451C192.105 153.752 192.105 153.752 192.411 150.998C192.811 150.998 193.211 150.998 193.623 150.998C193.623 147.199 193.623 143.4 193.623 139.486Z" fill="#F3D31C"/>
<path d="M132.427 115.857C135.142 116.37 136.449 117.687 138.486 119.492C137.426 121.84 137.426 121.84 136.062 122.522C136.062 121.522 136.062 120.522 136.062 119.492C135.263 119.492 134.463 119.492 133.639 119.492C133.639 119.092 133.639 118.692 133.639 118.28C132.378 119.37 131.838 120.048 131.291 121.651C130.609 123.128 130.609 123.128 129.019 123.923C128.544 124.06 128.069 124.198 127.58 124.339C128.335 120.641 129.82 118.554 132.427 115.857Z" fill="#F1D41D"/>
<path d="M185.14 165.539C186.352 167.357 186.352 167.357 186.352 169.174C187.151 168.974 187.951 168.774 188.775 168.568C188.975 168.968 189.175 169.368 189.381 169.78C189.581 169.18 189.781 168.581 189.987 167.963C190.787 167.963 191.587 167.963 192.411 167.963C192.411 167.163 192.411 166.363 192.411 165.539C193.01 165.539 193.61 165.539 194.228 165.539C193.307 168.814 191.033 170.983 188.775 173.416C184.88 170.905 184.88 170.905 183.322 169.174C184.458 166.221 184.458 166.221 185.14 165.539Z" fill="#E6CB29"/>
<path d="M145.758 123.733C148.557 123.733 151.356 123.733 154.24 123.733C155.168 125.422 156.088 127.113 157.005 128.808C157.27 129.289 157.535 129.77 157.808 130.266C158.056 130.726 158.304 131.187 158.559 131.662C158.791 132.087 159.023 132.512 159.261 132.95C159.404 133.308 159.546 133.665 159.693 134.033C159.493 134.433 159.293 134.833 159.087 135.245C158.694 134.664 158.694 134.664 158.292 134.071C157.323 132.66 157.323 132.66 155.452 132.216C155.452 132.616 155.452 133.016 155.452 133.428C155.052 133.428 154.652 133.428 154.24 133.428C154.446 132.846 154.446 132.846 154.657 132.254C154.931 129.565 153.987 127.432 153.028 124.945C152.605 124.959 152.182 124.973 151.746 124.988C151.194 124.999 150.643 125.01 150.075 125.021C149.526 125.035 148.978 125.049 148.413 125.064C146.97 124.945 146.97 124.945 145.758 123.733Z" fill="#E6C833"/>
<path d="M193.623 166.751C193.823 167.351 194.023 167.951 194.229 168.569C193.954 168.894 193.679 169.218 193.395 169.553C191.933 171.691 191.962 173.907 191.805 176.445C190.805 176.445 189.806 176.445 188.776 176.445C188.976 176.045 189.176 175.645 189.382 175.233C188.982 175.233 188.582 175.233 188.17 175.233C187.362 174.425 186.554 173.618 185.746 172.81C185.309 172.622 184.871 172.435 184.421 172.242C183.323 171.598 183.323 171.598 182.868 170.008C182.818 169.533 182.768 169.058 182.717 168.569C183.053 168.824 183.388 169.079 183.734 169.343C184.173 169.674 184.612 170.006 185.065 170.348C185.5 170.679 185.936 171.009 186.385 171.35C187.53 172.228 187.53 172.228 188.776 172.81C190.375 170.81 191.975 168.811 193.623 166.751Z" fill="#100C07"/>
<path d="M122.128 152.21C122.728 152.51 122.728 152.51 123.34 152.816C123.617 153.893 123.617 153.893 123.832 155.202C124.088 156.521 124.088 156.521 124.552 157.663C125.548 158.1 126.557 158.507 127.581 158.875C128.325 161.265 128.217 163.139 127.581 165.539C128.181 165.739 128.781 165.939 129.399 166.145C129.599 167.145 129.799 168.145 130.005 169.175C125.824 165.591 123.788 160.393 122.128 155.239C122.015 153.422 122.015 153.422 122.128 152.21Z" fill="#F4D315"/>
<path d="M168.78 141.304C170.88 142.203 170.88 142.203 173.022 143.121C172.689 145.891 172.163 148.377 171.204 150.998C170.584 150.201 169.982 149.39 169.386 148.574C169.036 148.099 168.687 147.625 168.326 147.135C167.368 145.123 167.597 144.028 168.175 141.91C168.374 141.71 168.574 141.51 168.78 141.304Z" fill="#060504"/>
<path d="M176.051 127.975C175.119 130.454 173.966 132.758 172.719 135.094C172.35 135.79 171.982 136.487 171.602 137.205C170.598 138.881 170.598 138.881 169.387 139.486C169.387 138.687 169.387 137.887 169.387 137.063C169.787 137.063 170.186 137.063 170.598 137.063C170.598 136.063 170.598 135.063 170.598 134.033C170.199 134.033 169.799 134.033 169.387 134.033C169.387 133.234 169.387 132.434 169.387 131.61C169.762 131.56 170.136 131.51 170.523 131.458C171.917 131.125 171.917 131.125 172.492 129.792C172.754 129.192 172.754 129.192 173.022 128.58C174.234 127.975 174.234 127.975 176.051 127.975Z" fill="#E6CC25"/>
<path d="M199.682 133.427C202.771 139.164 202.853 145.512 201.575 151.831C201.35 152.556 201.125 153.281 200.893 154.027C200.294 154.327 200.294 154.327 199.682 154.633C199.725 154.294 199.769 153.955 199.814 153.606C200.595 146.863 200.452 140.164 199.682 133.427Z" fill="#1F1201"/>
<path d="M175.446 129.186C176.045 129.386 176.645 129.586 177.263 129.792C177.063 131.192 176.863 132.591 176.657 134.033C175.658 134.233 174.658 134.433 173.628 134.639C173.298 136.492 173.022 138.206 173.022 140.092C171.822 140.292 170.623 140.492 169.387 140.698C170.354 138.036 171.677 135.675 173.098 133.238C173.323 132.847 173.549 132.456 173.782 132.053C174.335 131.097 174.89 130.141 175.446 129.186Z" fill="#2C1F05"/>
<path d="M138.486 119.492C139.13 120.628 139.13 120.628 139.698 121.916C139.498 122.316 139.298 122.715 139.092 123.127C138.492 123.327 137.892 123.527 137.274 123.733C137.074 124.933 136.875 126.133 136.669 127.369C137.068 127.369 137.468 127.369 137.88 127.369C138.08 127.968 138.28 128.568 138.486 129.186C136.687 128.986 134.887 128.786 133.033 128.58C133.891 124.863 136.103 122.36 138.486 119.492Z" fill="#080302"/>
<path d="M178.476 120.098C178.876 120.098 179.276 120.098 179.688 120.098C179.688 120.698 179.688 121.298 179.688 121.916C180.087 121.916 180.487 121.916 180.899 121.916C180.635 124.828 180.063 126.056 177.87 127.975C177.67 128.375 177.47 128.774 177.264 129.186C176.864 129.186 176.464 129.186 176.052 129.186C176.734 127.043 177.465 125.15 178.476 123.128C175.077 123.128 171.678 123.128 168.176 123.128C168.176 122.928 168.176 122.728 168.176 122.522C171.575 122.522 174.974 122.522 178.476 122.522C178.476 121.722 178.476 120.922 178.476 120.098Z" fill="#1B1205"/>
<path d="M166.358 124.945C166.758 125.145 167.158 125.345 167.57 125.551C164.871 131.849 164.871 131.849 162.117 138.274C161.717 138.274 161.317 138.274 160.905 138.274C160.505 137.275 160.105 136.275 159.693 135.245C160.293 135.445 160.893 135.645 161.511 135.851C161.511 134.651 161.511 133.451 161.511 132.215C162.311 132.015 163.111 131.816 163.935 131.61C163.935 131.01 163.935 130.41 163.935 129.792C164.334 129.792 164.734 129.792 165.146 129.792C165.009 129.442 164.871 129.092 164.73 128.732C164.54 127.368 164.54 127.368 165.411 126.005C165.724 125.655 166.036 125.305 166.358 124.945Z" fill="#322503"/>
<path d="M160.905 150.392C161.305 150.392 161.705 150.392 162.117 150.392C162.741 151.778 163.359 153.167 163.972 154.558C164.24 155.149 164.24 155.149 164.513 155.753C164.962 156.778 165.361 157.825 165.752 158.874C165.552 159.274 165.352 159.674 165.146 160.086C164.909 159.811 164.671 159.536 164.427 159.253C163.142 158.101 161.917 157.625 160.299 157.057C160.487 156.694 160.674 156.332 160.867 155.959C161.573 154.579 161.573 154.579 162.117 152.816C161.717 152.816 161.317 152.816 160.905 152.816C160.905 153.216 160.905 153.615 160.905 154.027C160.505 154.027 160.105 154.027 159.693 154.027C160.093 152.828 160.493 151.628 160.905 150.392Z" fill="#271D03"/>
<path d="M199.076 149.18C200.287 150.998 200.287 150.998 200.093 152.574C197.416 162.632 197.416 162.632 194.229 165.539C194.428 164.139 194.628 162.74 194.834 161.298C195.234 161.298 195.634 161.298 196.046 161.298C196.021 160.848 195.996 160.398 195.97 159.935C196.068 157.794 196.839 156.56 197.902 154.747C198.68 152.931 198.85 151.133 199.076 149.18Z" fill="#D8C237"/>
<path d="M168.175 123.127C171.574 123.127 174.973 123.127 178.475 123.127C177.263 126.763 177.263 126.763 176.051 127.975C176.251 126.775 176.451 125.575 176.657 124.339C172.758 124.639 172.758 124.639 168.781 124.945C168.581 125.545 168.381 126.145 168.175 126.763C167.775 126.763 167.375 126.763 166.963 126.763C167.363 125.563 167.763 124.363 168.175 123.127Z" fill="#B7A82E"/>
<path d="M142.727 122.521C146.326 122.521 149.925 122.521 153.633 122.521C153.633 122.721 153.633 122.921 153.633 123.127C150.234 123.127 146.835 123.127 143.333 123.127C143.733 123.902 144.133 124.677 144.545 125.475C145.757 127.823 145.757 127.823 145.757 129.186C143.333 129.186 143.333 129.186 141.516 127.974C141.916 126.175 142.315 124.375 142.727 122.521Z" fill="#1C1105"/>
<path d="M138.487 163.722C139.959 168.223 139.959 168.223 139.093 170.387C138.693 170.387 138.293 170.387 137.881 170.387C137.881 170.786 137.881 171.186 137.881 171.598C136.682 171.998 135.482 172.398 134.246 172.81C134.746 172.36 135.246 171.91 135.761 171.447C137.547 169.857 137.547 169.857 137.276 167.357C136.11 165.407 136.11 165.407 134.852 163.722C136.361 162.967 136.919 163.251 138.487 163.722Z" fill="#231706"/>
<path d="M189.988 154.633C190.553 156.164 190.653 156.882 190.118 158.448C188.333 161.876 186.367 164.963 183.929 167.963C183.323 166.751 183.323 166.751 183.815 165.198C184.535 163.722 184.535 163.722 185.746 163.116C185.946 162.516 186.146 161.916 186.352 161.298C186.752 161.298 187.152 161.298 187.564 161.298C187.626 160.536 187.689 159.773 187.753 158.988C187.957 157.296 188.049 156.606 189.117 155.239C189.404 155.039 189.691 154.839 189.988 154.633Z" fill="#1F1400"/>
<path d="M165.752 160.086C167.418 162.042 167.633 162.826 168.175 165.539C171.574 165.539 174.973 165.539 178.476 165.539C178.476 165.139 178.476 164.74 178.476 164.328C178.875 164.328 179.275 164.328 179.687 164.328C179.487 164.927 179.287 165.527 179.081 166.145C173.383 166.445 173.383 166.445 167.57 166.751C167.57 166.151 167.57 165.551 167.57 164.933C166.97 164.734 166.37 164.534 165.752 164.328C165.752 162.928 165.752 161.528 165.752 160.086Z" fill="#150901"/>
<path d="M164.539 156.451C164.939 156.451 165.339 156.451 165.751 156.451C166.247 157.307 166.738 158.166 167.228 159.026C167.502 159.504 167.776 159.982 168.058 160.475C168.715 161.776 169.102 162.905 169.386 164.328C169.809 164.27 170.233 164.212 170.669 164.153C171.22 164.085 171.772 164.018 172.34 163.949C172.888 163.879 173.436 163.808 174.001 163.736C174.478 163.731 174.954 163.727 175.445 163.722C175.845 164.122 176.245 164.522 176.657 164.934C173.858 164.934 171.058 164.934 168.174 164.934C167.567 163.634 166.961 162.334 166.357 161.033C165.851 159.947 165.851 159.947 165.334 158.839C164.539 157.057 164.539 157.057 164.539 156.451Z" fill="#EAD431"/>
<path d="M199.076 154.633C199.276 154.633 199.475 154.633 199.681 154.633C199.768 159.134 199.768 159.134 199.076 161.298C198.676 161.298 198.276 161.298 197.864 161.298C197.664 162.698 197.464 164.097 197.258 165.539C196.258 165.939 195.259 166.339 194.229 166.751C194.978 164.816 195.797 162.923 196.652 161.033C197.593 158.933 198.398 156.836 199.076 154.633Z" fill="#1A0F02"/>
<path d="M153.633 145.545C154.05 146.529 154.05 146.529 154.239 147.968C153.368 149.938 153.368 149.938 152.422 151.604C152.022 151.604 151.622 151.604 151.21 151.604C151.158 151.983 151.105 152.363 151.051 152.754C150.966 153.249 150.881 153.744 150.793 154.254C150.716 154.747 150.639 155.239 150.559 155.746C149.998 157.057 149.998 157.057 148.434 157.838C147.95 157.98 147.467 158.122 146.969 158.268C151.391 149.313 151.391 149.313 153.633 145.545Z" fill="#D5C034"/>
<path d="M130.61 155.845C132.071 157.306 132.732 158.761 133.639 160.617C133.952 161.252 134.264 161.888 134.586 162.543C135.017 163.426 135.017 163.426 135.457 164.328C135.86 165.136 136.263 165.944 136.669 166.751C136.269 166.751 135.869 166.751 135.457 166.751C134.851 166.145 134.245 165.539 133.639 164.933C133.24 164.933 132.84 164.933 132.428 164.933C131.273 161.841 130.352 159.2 130.61 155.845Z" fill="#DDC526"/>
<path d="M128.188 167.357C129.792 168.919 131.183 170.336 132.429 172.204C133.029 172.404 133.628 172.604 134.246 172.81C134.246 173.21 134.246 173.61 134.246 174.022C133.647 174.022 133.047 174.022 132.429 174.022C132.229 174.422 132.029 174.821 131.823 175.233C131.223 175.033 130.623 174.834 130.005 174.628C129.43 172.978 129.43 172.978 128.983 170.954C128.83 170.285 128.678 169.616 128.521 168.926C128.411 168.408 128.301 167.89 128.188 167.357Z" fill="#110A08"/>
<path d="M169.386 157.057C170.286 157.656 170.286 157.656 171.204 158.268C171.204 158.668 171.204 159.068 171.204 159.48C172.003 159.48 172.803 159.48 173.627 159.48C173.427 160.68 173.227 161.879 173.021 163.115C172.222 163.115 171.422 163.115 170.598 163.115C168.704 159.101 168.704 159.101 169.386 157.057Z" fill="#F9D404"/>
<path d="M168.782 124.339C171.381 124.339 173.98 124.339 176.658 124.339C176.458 125.539 176.258 126.739 176.052 127.975C175.652 127.575 175.252 127.175 174.84 126.763C174.241 127.063 174.241 127.063 173.629 127.369C173.629 126.569 173.629 125.769 173.629 124.945C173.404 125.258 173.179 125.57 172.947 125.892C171.811 126.763 171.811 126.763 169.88 126.574C169.317 126.436 168.755 126.299 168.176 126.157C168.376 125.557 168.576 124.957 168.782 124.339Z" fill="#F4D21D"/>
<path d="M183.323 120.704C185.86 123.023 187.793 125.518 189.382 128.58C189.382 128.98 189.382 129.38 189.382 129.792C188.208 129.375 188.208 129.375 186.958 128.58C186.504 126.99 186.504 126.99 186.353 125.551C185.765 125.401 185.178 125.251 184.573 125.096C183.96 124.846 183.348 124.596 182.717 124.339C182.187 123.051 182.187 123.051 182.111 121.915C182.511 121.915 182.911 121.915 183.323 121.915C183.323 121.515 183.323 121.116 183.323 120.704Z" fill="#181106"/>
<path d="M146.363 158.269C146.563 158.269 146.763 158.269 146.969 158.269C146.969 159.668 146.969 161.068 146.969 162.51C146.369 162.71 145.77 162.91 145.152 163.116C145.152 163.516 145.152 163.915 145.152 164.327C149.35 164.627 149.35 164.627 153.634 164.933C153.634 165.133 153.634 165.333 153.634 165.539C150.235 165.539 146.836 165.539 143.334 165.539C143.818 163.605 144.295 162.272 145.19 160.541C145.409 160.113 145.628 159.685 145.855 159.244C146.022 158.922 146.19 158.6 146.363 158.269Z" fill="#BBA830"/>
<path d="M148.788 134.639C150.3 136.018 151.251 137.431 152.233 139.221C152.498 139.697 152.763 140.172 153.036 140.662C153.635 141.91 153.635 141.91 153.635 143.122C153.035 143.122 152.435 143.122 151.817 143.122C151.817 142.522 151.817 141.922 151.817 141.304C151.417 141.304 151.017 141.304 150.605 141.304C150.543 140.916 150.48 140.529 150.416 140.13C150.278 139.718 150.141 139.305 149.999 138.88C149.399 138.68 148.8 138.48 148.182 138.274C148.382 137.075 148.582 135.875 148.788 134.639Z" fill="#231803"/>
<path d="M154.24 128.581C155.603 128.581 155.603 128.581 157.27 129.186C158.337 130.695 159.138 132.27 159.693 134.034C159.493 134.433 159.293 134.833 159.087 135.245C158.825 134.858 158.562 134.471 158.292 134.071C157.323 132.66 157.323 132.66 155.452 132.216C155.452 132.616 155.452 133.016 155.452 133.428C155.052 133.428 154.652 133.428 154.24 133.428C154.353 132.965 154.465 132.503 154.581 132.027C154.984 130.344 154.984 130.344 154.24 128.581Z" fill="#DEC124"/>
<path d="M182.717 168.569C183.053 168.824 183.388 169.08 183.734 169.343C184.173 169.675 184.612 170.007 185.065 170.349C185.5 170.679 185.936 171.009 186.385 171.35C187.53 172.228 187.53 172.228 188.776 172.81C189.575 172.01 190.375 171.21 191.199 170.386C191.199 171.386 191.199 172.386 191.199 173.416C189.836 174.135 189.836 174.135 188.17 174.628C186.92 173.87 186.92 173.87 185.746 172.81C185.309 172.635 184.871 172.46 184.421 172.28C183.323 171.598 183.323 171.598 182.868 170.008C182.818 169.533 182.768 169.058 182.717 168.569Z" fill="#251B03"/>
<path d="M134.246 122.521C134.846 122.521 135.445 122.521 136.063 122.521C135.425 123.807 134.778 125.086 134.113 126.358C132.599 129.29 131.379 132.033 130.61 135.245C129.86 133.078 130.157 131.406 130.61 129.186C131.01 129.186 131.41 129.186 131.822 129.186C131.822 128.386 131.822 127.587 131.822 126.763C132.222 126.763 132.622 126.763 133.034 126.763C133.034 125.963 133.034 125.163 133.034 124.339C133.434 124.339 133.834 124.339 134.246 124.339C134.246 123.739 134.246 123.139 134.246 122.521Z" fill="#D4BB33"/>
<path d="M89.4097 76.4741C89.8096 76.6741 90.2095 76.874 90.6215 77.08C90.6215 77.4799 90.6215 77.8798 90.6215 78.2918C90.0216 78.2918 89.4218 78.2918 88.8038 78.2918C89.0037 78.8916 89.2037 79.4914 89.4097 80.1094C88.6099 80.1094 87.8102 80.1094 86.9862 80.1094C85.6624 81.731 85.6624 81.731 85.7744 83.1388C84.3354 84.1613 84.3354 84.1613 82.745 84.9565C82.3451 84.7565 81.9452 84.5566 81.5332 84.3506C82.3888 83.3762 83.2478 82.4049 84.1082 81.4348C84.5862 80.8935 85.0642 80.3523 85.5566 79.7946C86.7794 78.5091 87.9551 77.4783 89.4097 76.4741Z" fill="#D8D8D8"/>
<path d="M167.569 145.545C169.154 147.365 170.491 149.275 171.734 151.339C172.008 151.789 172.281 152.24 172.563 152.704C173.022 154.027 173.022 154.027 172.496 155.407C172.157 155.924 172.157 155.924 171.81 156.451C171.376 155.406 170.942 154.36 170.508 153.315C169.951 152.049 169.951 152.049 168.781 150.392C168.781 149.592 168.781 148.792 168.781 147.968C168.181 147.968 167.581 147.968 166.963 147.968C167.163 147.169 167.363 146.369 167.569 145.545Z" fill="#D0BD30"/>
<path d="M189.381 162.51C190.123 164.734 189.755 165.295 188.776 167.357C188.176 168.257 188.176 168.257 187.564 169.174C187.164 169.174 186.764 169.174 186.352 169.174C186.152 167.975 185.952 166.775 185.746 165.539C186.146 165.539 186.546 165.539 186.958 165.539C186.958 165.139 186.958 164.739 186.958 164.327C187.558 164.127 188.158 163.928 188.776 163.722C188.975 163.322 189.175 162.922 189.381 162.51Z" fill="#F5D317"/>
<path d="M175.446 159.48C177.19 161.541 177.549 162.757 178.476 165.539C175.077 165.539 171.678 165.539 168.176 165.539C168.176 165.339 168.176 165.139 168.176 164.933C172.075 164.634 172.075 164.634 176.052 164.328C175.852 162.728 175.652 161.128 175.446 159.48Z" fill="#BBA72B"/>
<path d="M196.046 121.916C197.35 123.871 197.379 124.511 197.258 126.763C197.657 126.763 198.057 126.763 198.469 126.763C199.879 128.965 199.78 130.865 199.681 133.427C198.369 131.459 197.486 129.425 196.576 127.255C196.408 126.859 196.24 126.462 196.067 126.054C195.654 125.079 195.244 124.103 194.834 123.127C195.234 123.127 195.634 123.127 196.046 123.127C196.046 122.727 196.046 122.328 196.046 121.916Z" fill="#201401"/>
<path d="M143.334 123.127C146.933 123.127 150.532 123.127 154.24 123.127C154.24 123.327 154.24 123.527 154.24 123.733C151.441 123.933 148.642 124.133 145.758 124.339C145.957 125.739 146.157 127.138 146.363 128.58C144.181 126.679 143.942 126.17 143.334 123.127Z" fill="#AD982E"/>
<path d="M173.629 155.239C174.989 155.474 175.974 155.796 177.151 156.527C178.298 158.339 177.683 159.887 177.264 161.904C173.629 157.23 173.629 157.23 173.629 155.239Z" fill="#161005"/>
<path d="M185.746 120.704C185.946 121.303 186.146 121.903 186.352 122.521C186.727 122.596 187.102 122.671 187.488 122.748C188.776 123.127 188.776 123.127 189.836 124.604C190.593 126.157 190.593 126.157 190.593 127.368C189.192 127.255 189.192 127.255 187.564 126.762C185.937 124.743 185.526 123.271 185.746 120.704Z" fill="#EAD023"/>
<path d="M189.987 157.057C190.957 159.481 190.165 161.325 189.381 163.721C188.582 163.921 187.782 164.121 186.958 164.327C186.958 164.727 186.958 165.127 186.958 165.539C186.558 165.339 186.158 165.139 185.746 164.933C185.951 164.618 186.155 164.304 186.366 163.979C187.805 161.729 189.113 159.599 189.987 157.057Z" fill="#D5B933"/>
<path d="M193.623 121.916C195.984 124.809 196.734 126.038 196.652 129.792C195.153 129.192 195.153 129.192 193.623 128.58C193.736 128.043 193.848 127.506 193.964 126.952C194.217 125.035 194.112 123.764 193.623 121.916Z" fill="#E4C626"/>
<path d="M185.14 165.539C185.948 167.155 185.546 168.064 185.14 169.78C185.74 169.98 186.34 170.18 186.958 170.386C186.958 170.786 186.958 171.186 186.958 171.598C187.757 171.598 188.557 171.598 189.381 171.598C189.181 172.198 188.981 172.798 188.775 173.416C184.88 170.905 184.88 170.905 183.322 169.174C184.458 166.221 184.458 166.221 185.14 165.539Z" fill="#CCB344"/>
<path d="M167.57 141.304C167.97 141.504 168.37 141.704 168.782 141.91C168.182 143.909 167.582 145.908 166.964 147.968C167.564 148.168 168.164 148.368 168.782 148.574C167.982 148.774 167.182 148.974 166.358 149.18C165.601 147.628 165.601 147.628 165.146 145.545C165.768 143.939 166.591 142.743 167.57 141.304Z" fill="#E9CB21"/>
<path d="M165.752 138.274C166.952 138.574 166.952 138.574 168.176 138.88C167.576 140.88 166.976 142.879 166.358 144.939C165.958 144.539 165.558 144.139 165.146 143.727C165.161 142.416 165.161 142.416 165.374 140.925C165.441 140.43 165.508 139.935 165.577 139.425C165.635 139.045 165.693 138.665 165.752 138.274Z" fill="#F8D219"/>
<path d="M128.187 117.068C129.187 117.068 130.187 117.068 131.217 117.068C129.878 119.344 128.451 121.544 126.975 123.733C126.576 122.933 126.176 122.134 125.764 121.31C126.164 121.11 126.563 120.91 126.975 120.704C127.175 120.104 127.375 119.504 127.581 118.886C127.981 119.086 128.381 119.286 128.793 119.492C128.593 118.692 128.393 117.892 128.187 117.068Z" fill="#1B1101"/>
<path d="M132.429 115.857C133.565 116.046 133.565 116.046 134.852 116.463C135.252 117.063 135.652 117.662 136.064 118.28C135.414 118.205 134.764 118.131 134.095 118.053C133.345 118.128 132.595 118.203 131.823 118.28C130.397 120.04 130.397 120.04 129.399 121.916C128.999 121.916 128.6 121.916 128.188 121.916C129.198 119.528 130.749 117.802 132.429 115.857Z" fill="#C8B73C"/>
<path d="M168.174 141.91C168.374 141.91 168.574 141.91 168.78 141.91C168.78 143.309 168.78 144.709 168.78 146.151C169.18 146.151 169.58 146.151 169.992 146.151C169.992 146.751 169.992 147.351 169.992 147.969C170.392 147.969 170.792 147.969 171.204 147.969C171.404 148.768 171.604 149.568 171.81 150.392C171.21 150.692 171.21 150.692 170.598 150.998C167.533 146.225 167.533 146.225 167.682 143.387C167.844 142.899 168.007 142.412 168.174 141.91Z" fill="#2D2301"/>
<path d="M184.534 160.692C185.534 160.692 186.534 160.692 187.564 160.692C186.964 160.992 186.964 160.992 186.352 161.298C185.957 162.525 185.957 162.525 185.746 163.722C185.346 163.722 184.946 163.722 184.534 163.722C184.335 164.322 184.135 164.921 183.929 165.539C183.529 165.539 183.129 165.539 182.717 165.539C182.917 164.54 183.117 163.54 183.323 162.51C183.723 162.51 184.122 162.51 184.534 162.51C184.534 161.91 184.534 161.31 184.534 160.692Z" fill="#06050B"/>
<path d="M122.128 152.21C123.34 152.816 123.34 152.816 123.877 154.248C124.037 154.837 124.197 155.427 124.362 156.035C124.527 156.62 124.692 157.205 124.862 157.807C125.152 159.452 125.101 160.351 124.552 161.904C124.142 160.859 123.739 159.811 123.34 158.761C123.002 157.886 123.002 157.886 122.658 156.993C122.142 155.287 122.025 153.978 122.128 152.21Z" fill="#D8C234"/>
<path d="M161.511 129.186C161.91 129.186 162.31 129.186 162.722 129.186C162.116 134.379 162.116 134.379 161.511 136.457C161.111 136.257 160.711 136.057 160.299 135.851C160.384 134.967 160.473 134.083 160.564 133.2C160.613 132.708 160.662 132.216 160.713 131.709C160.905 130.398 160.905 130.398 161.511 129.186Z" fill="#080208"/>
<path d="M175.446 129.186C176.046 129.386 176.646 129.586 177.264 129.792C177.064 131.192 176.864 132.591 176.658 134.033C175.858 133.833 175.058 133.633 174.234 133.427C174.765 129.868 174.765 129.868 175.446 129.186Z" fill="#1C1308"/>
<path d="M154.24 124.339C154.84 124.339 155.44 124.339 156.058 124.339C156.058 125.139 156.058 125.939 156.058 126.763C156.639 127.025 156.639 127.025 157.232 127.293C158.481 127.975 158.481 127.975 159.087 129.186C158.887 129.586 158.687 129.986 158.481 130.398C158.082 130.398 157.682 130.398 157.27 130.398C156.27 128.399 155.27 126.399 154.24 124.339Z" fill="#241802"/>
<path d="M120.916 125.551C121.716 125.751 122.516 125.951 123.34 126.157C123.473 128.493 123.099 130.09 122.128 132.215C121.728 132.215 121.328 132.215 120.916 132.215C120.916 130.016 120.916 127.817 120.916 125.551Z" fill="#08020D"/>
<path d="M166.357 124.945C166.757 125.145 167.157 125.345 167.569 125.551C166.069 129.15 166.069 129.15 164.539 132.821C164.34 132.821 164.14 132.821 163.934 132.821C163.934 131.822 163.934 130.822 163.934 129.792C164.333 129.792 164.733 129.792 165.145 129.792C165.008 129.442 164.87 129.092 164.729 128.732C164.539 127.368 164.539 127.368 165.41 126.005C165.723 125.655 166.035 125.305 166.357 124.945Z" fill="#291D01"/>
<path d="M196.046 158.269C196.728 159.291 196.728 159.291 197.258 160.692C196.692 162.802 195.876 164.116 194.229 165.539C194.428 164.14 194.628 162.74 194.834 161.298C195.234 161.298 195.634 161.298 196.046 161.298C196.046 160.298 196.046 159.299 196.046 158.269Z" fill="#D1BA2D"/>
<path d="M149.392 157.057C149.592 157.457 149.792 157.856 149.998 158.268C150.398 158.268 150.798 158.268 151.21 158.268C151.21 158.668 151.21 159.068 151.21 159.48C150.01 159.48 148.811 159.48 147.575 159.48C147.775 160.28 147.975 161.08 148.181 161.904C147.781 161.904 147.381 161.904 146.969 161.904C146.969 160.704 146.969 159.504 146.969 158.268C147.769 157.869 148.568 157.469 149.392 157.057Z" fill="#F4D41B"/>
<path d="M157.27 155.239C157.67 155.239 158.07 155.239 158.482 155.239C157.688 157.805 156.698 160.131 155.452 162.51C154.917 161.015 154.767 160.305 155.317 158.789C155.549 158.368 155.781 157.946 156.02 157.511C156.251 157.083 156.481 156.655 156.718 156.214C156.9 155.893 157.082 155.571 157.27 155.239Z" fill="#DEC536"/>
<path d="M196.652 127.369C198.257 129.265 199.079 131.016 199.682 133.427C199.407 134.753 199.407 134.753 199.076 135.851C198.667 134.894 198.264 133.934 197.864 132.973C197.639 132.439 197.414 131.905 197.182 131.354C196.652 129.792 196.652 129.792 196.652 127.369Z" fill="#C5AF30"/>
<path d="M125.158 161.904C125.758 162.104 126.358 162.304 126.976 162.51C127.176 163.509 127.376 164.509 127.582 165.539C128.182 165.739 128.781 165.939 129.399 166.145C129.599 167.145 129.799 168.144 130.005 169.174C127.462 166.906 126.323 165.03 125.158 161.904Z" fill="#DAC236"/>
<path d="M156.058 160.086C157.27 161.904 157.27 161.904 157.232 163.154C156.664 164.328 156.664 164.328 155.112 165.085C154.624 165.235 154.137 165.385 153.635 165.539C154.435 163.74 155.234 161.94 156.058 160.086Z" fill="#2E2106"/>
<path d="M167.568 160.086C168.368 160.286 169.168 160.486 169.992 160.692C170.054 161.08 170.117 161.467 170.181 161.866C170.319 162.279 170.456 162.691 170.598 163.116C171.198 163.316 171.797 163.516 172.415 163.722C171.416 163.922 170.416 164.122 169.386 164.328C167.568 161.45 167.568 161.45 167.568 160.086Z" fill="#F3D21B"/>
<path d="M159.088 154.633C159.175 155.008 159.263 155.383 159.353 155.769C159.652 157.077 159.652 157.077 160.299 158.269C159.1 158.868 157.9 159.468 156.664 160.086C157.306 158.024 157.881 156.443 159.088 154.633Z" fill="#2C2405"/>
<path d="M160.904 152.815C161.303 152.815 161.703 152.815 162.115 152.815C162.015 153.19 161.915 153.565 161.812 153.951C161.385 155.769 161.508 156.445 162.115 158.268C161.116 158.068 160.116 157.868 159.086 157.662C159.286 156.463 159.486 155.263 159.692 154.027C160.092 154.027 160.492 154.027 160.904 154.027C160.904 153.627 160.904 153.227 160.904 152.815Z" fill="#080505"/>
<path d="M153.634 143.122C154.034 143.322 154.434 143.521 154.846 143.727C154.037 145.905 153.052 147.82 151.817 149.786C151.211 147.969 151.211 147.969 151.682 146.731C151.914 146.302 152.146 145.873 152.385 145.432C152.615 144.998 152.845 144.565 153.083 144.118C153.265 143.789 153.447 143.46 153.634 143.122Z" fill="#312200"/>
<path d="M157.875 121.31C158.275 121.31 158.675 121.31 159.087 121.31C159.209 123.506 159.001 124.863 157.875 126.763C157.476 126.763 157.076 126.763 156.664 126.763C156.542 124.566 156.75 123.209 157.875 121.31Z" fill="#02010F"/>
<path d="M164.539 156.451C164.939 156.451 165.339 156.451 165.751 156.451C166.176 157.204 166.591 157.962 167 158.723C167.232 159.145 167.464 159.567 167.703 160.001C168.254 161.517 168.104 162.227 167.568 163.722C167.062 162.624 166.558 161.526 166.054 160.427C165.773 159.816 165.491 159.204 165.202 158.574C164.539 157.057 164.539 157.057 164.539 156.451Z" fill="#D7C334"/>
<path d="M184.534 118.28C184.934 118.28 185.334 118.28 185.746 118.28C185.746 119.88 185.746 121.479 185.746 123.127C184.946 122.328 184.146 121.528 183.322 120.704C183.722 119.904 184.122 119.104 184.534 118.28Z" fill="#D3C03C"/>
<path d="M171.205 166.145C173.604 166.145 176.004 166.145 178.476 166.145C178.476 166.745 178.476 167.345 178.476 167.963C174.877 167.363 174.877 167.363 171.205 166.751C171.205 166.551 171.205 166.351 171.205 166.145Z" fill="#07020E"/>
<path d="M173.629 152.21C175.442 152.875 175.959 153.226 176.81 155.012C176.96 155.487 177.11 155.962 177.264 156.451C176.065 156.051 174.865 155.651 173.629 155.239C173.629 154.24 173.629 153.24 173.629 152.21Z" fill="#05020B"/>
<path d="M188.776 114.645C189.775 115.645 190.775 116.644 191.805 117.674C191.605 118.074 191.405 118.474 191.199 118.886C190.29 118.053 190.29 118.053 189.381 117.069C189.381 116.669 189.381 116.269 189.381 115.857C188.382 116.257 187.382 116.657 186.352 117.069C186.152 116.669 185.952 116.269 185.746 115.857C186.746 115.457 187.746 115.057 188.776 114.645Z" fill="#2E2504"/>
<path d="M128.188 167.357C131.141 170.159 131.141 170.159 131.823 172.204C131.023 172.204 130.223 172.204 129.399 172.204C128.999 170.604 128.6 169.005 128.188 167.357Z" fill="#352905"/>
<path d="M199.075 154.633C199.275 154.633 199.475 154.633 199.681 154.633C199.833 158.647 199.833 158.647 198.47 160.692C198.07 160.692 197.67 160.692 197.258 160.692C197.858 158.693 198.457 156.693 199.075 154.633Z" fill="#3A2C06"/>
<path d="M132.429 128.581C133.028 128.98 133.628 129.38 134.246 129.792C133.754 131.269 133.754 131.269 133.034 132.822C132.435 133.022 131.835 133.222 131.217 133.428C131.747 129.944 131.747 129.944 132.429 128.581Z" fill="#211701"/>
<path d="M145.758 128.581C148.181 129.792 148.181 129.792 148.977 130.928C149.393 132.216 149.393 132.216 148.787 134.639C147.788 132.64 146.788 130.641 145.758 128.581Z" fill="#D4B938"/>
<path d="M165.752 160.086C167.057 161.675 167.812 162.9 168.175 164.933C167.376 164.734 166.576 164.534 165.752 164.328C165.752 162.928 165.752 161.528 165.752 160.086Z" fill="#2F2201"/>
<path d="M166.963 126.763C167.363 126.763 167.762 126.763 168.174 126.763C168.174 127.962 168.174 129.162 168.174 130.398C167.575 130.598 166.975 130.798 166.357 131.004C166.331 129.792 166.332 128.58 166.357 127.369C166.557 127.169 166.757 126.969 166.963 126.763Z" fill="#E9CF27"/>
<path d="M186.352 124.339C188.193 125.26 188.559 126.751 189.381 128.581C189.381 128.98 189.381 129.38 189.381 129.792C188.207 129.451 188.207 129.451 186.957 128.581C186.503 126.384 186.503 126.384 186.352 124.339Z" fill="#352902"/>
<path d="M138.486 119.492C139.13 120.628 139.13 120.628 139.698 121.916C139.498 122.316 139.298 122.715 139.092 123.127C137.539 123.506 137.539 123.506 136.062 123.733C136.792 122.223 137.55 120.897 138.486 119.492Z" fill="#2B1D04"/>
<path d="M130.611 155.845C132.238 157.472 132.466 159.103 133.035 161.298C132.435 161.098 131.835 160.898 131.217 160.692C130.396 159.051 130.572 157.657 130.611 155.845Z" fill="#C7B632"/>
<path d="M173.022 155.239C175.445 158.117 175.445 158.117 175.445 159.48C173.946 158.881 173.946 158.881 172.416 158.269C172.616 157.269 172.816 156.269 173.022 155.239Z" fill="#D0B92F"/>
<path d="M135.457 123.733C135.873 124.794 135.873 124.794 136.063 126.157C135.267 127.52 135.267 127.52 134.245 128.58C133.845 128.58 133.445 128.58 133.033 128.58C134.093 125.097 134.093 125.097 135.457 123.733Z" fill="#322302"/>
<path d="M136.062 118.28C137.262 118.88 137.262 118.88 138.486 119.492C137.426 121.84 137.426 121.84 136.062 122.521C136.062 121.122 136.062 119.722 136.062 118.28Z" fill="#DABB47"/>
</svg>
