<svg width="256" height="256" viewBox="0 0 256 256" fill="none" xmlns="http://www.w3.org/2000/svg">
<path d="M128.27 255C111.165 255 94.5689 251.647 78.9389 245.039C63.8454 238.655 50.2988 229.516 38.6568 217.883C27.0237 206.25 17.8854 192.695 11.501 177.601C4.89316 161.971 1.54004 145.375 1.54004 128.27C1.54004 111.165 4.89316 94.5689 11.501 78.9389C17.8854 63.8454 27.0237 50.2988 38.6568 38.6568C50.2988 27.0237 63.8454 17.8854 78.9389 11.501C94.5689 4.89316 111.165 1.54004 128.27 1.54004C145.375 1.54004 161.971 4.89316 177.601 11.501C192.695 17.8854 206.241 27.0237 217.883 38.6568C229.516 50.2899 238.655 63.8454 245.039 78.9389C251.647 94.5689 255 111.165 255 128.27C255 145.375 251.647 161.971 245.039 177.601C238.655 192.695 229.516 206.241 217.883 217.883C206.25 229.516 192.695 238.655 177.601 245.039C161.971 251.656 145.375 255 128.27 255Z" fill="white"/>
<path d="M128.27 248.284C194.552 248.284 248.285 194.552 248.285 128.27C248.285 61.9873 194.552 8.25488 128.27 8.25488C61.9877 8.25488 8.25525 61.9873 8.25525 128.27C8.25525 194.552 61.9877 248.284 128.27 248.284Z" fill="black"/>
<path d="M177.011 157.393C177.011 146.297 172.397 137.185 163.303 130.291C156.579 125.194 147.182 121.019 131.936 116.333C104.494 107.901 104.494 103.046 104.494 99.1384C104.494 93.7376 112.488 86.2535 127.483 86.2535C136.362 86.2535 151.259 88.4889 151.259 103.475H176.224C176.224 96.4112 174.641 89.8212 171.646 84.0717L191.675 64.0424L174.024 46.3916L153.611 66.8143C146.207 63.184 137.346 61.2973 127.492 61.2973C118.309 61.2973 109.868 63.0678 102.59 66.4745L82.5156 46.4005L64.8648 64.0514L83.9105 83.0971C81.067 88.0686 79.538 93.5588 79.538 99.1473C79.538 110.244 84.1519 119.355 93.2456 126.249C99.9697 131.346 109.341 135.513 124.586 140.198C152.028 148.621 152.046 153.495 152.046 157.402C152.046 162.803 144.052 170.287 129.057 170.287C120.178 170.287 105.281 168.052 105.281 153.065H80.3159C80.3159 160.156 81.9076 166.764 84.9209 172.531L64.8558 192.596L82.5067 210.247L102.992 189.762C110.387 193.374 119.221 195.252 129.048 195.252C138.204 195.252 146.618 193.491 153.879 190.111L174.024 210.256L191.675 192.605L172.594 173.524C175.464 168.517 177.011 163.018 177.011 157.393Z" fill="white"/>
</svg>
