<svg width="256" height="256" viewBox="0 0 256 256" fill="none" xmlns="http://www.w3.org/2000/svg">
<g clip-path="url(#clip0_2880_112)">
<path d="M128 256C110.723 256 93.9612 252.613 78.1746 245.939C62.9298 239.491 49.2474 230.261 37.4887 218.511C25.7391 206.762 16.5091 193.07 10.0608 177.825C3.38672 162.039 0 145.277 0 128C0 110.723 3.38672 93.9612 10.0608 78.1746C16.5091 62.9298 25.7391 49.2474 37.4887 37.4887C49.2474 25.7391 62.9298 16.5091 78.1746 10.0608C93.9612 3.38672 110.723 0 128 0C145.277 0 162.039 3.38672 177.825 10.0608C193.07 16.5091 206.753 25.7391 218.511 37.4887C230.261 49.2384 239.491 62.9298 245.939 78.1746C252.613 93.9612 256 110.723 256 128C256 145.277 252.613 162.039 245.939 177.825C239.491 193.07 230.261 206.753 218.511 218.511C206.762 230.261 193.07 239.491 177.825 245.939C162.039 252.622 145.277 256 128 256Z" fill="black"/>
<path d="M128.001 249.218C194.947 249.218 249.218 194.947 249.218 128C249.218 61.0534 194.947 6.78247 128.001 6.78247C61.0541 6.78247 6.7832 61.0534 6.7832 128C6.7832 194.947 61.0541 249.218 128.001 249.218Z" fill="black"/>
<path d="M177.23 157.415C177.23 146.207 172.57 137.004 163.385 130.041C156.594 124.893 147.102 120.676 131.704 115.943C103.987 107.427 103.987 102.523 103.987 98.5762C103.987 93.1213 112.061 85.5621 127.206 85.5621C136.174 85.5621 151.22 87.8199 151.22 102.956H176.435C176.435 95.8216 174.837 89.1656 171.811 83.3585L192.041 63.1285L174.214 45.3008L153.595 65.9282C146.118 62.2615 137.168 60.3559 127.215 60.3559C117.94 60.3559 109.415 62.1441 102.063 65.585L81.7879 45.3098L63.9602 63.1375L83.1968 82.3741C80.3248 87.3955 78.7805 92.9407 78.7805 98.5852C78.7805 109.793 83.4406 118.996 92.6254 125.959C99.4169 131.107 108.882 135.315 124.28 140.048C151.997 148.555 152.015 153.477 152.015 157.424C152.015 162.879 143.941 170.438 128.796 170.438C119.828 170.438 104.781 168.18 104.781 153.044H79.5662C79.5662 160.205 81.1738 166.88 84.2173 172.705L63.9512 192.971L81.7789 210.799L102.469 190.108C109.938 193.757 118.861 195.653 128.787 195.653C138.035 195.653 146.533 193.874 153.866 190.46L174.214 210.808L192.041 192.98L172.769 173.707C175.668 168.65 177.23 163.095 177.23 157.415Z" fill="white"/>
</g>
<defs>
<clipPath id="clip0_2880_112">
<rect width="256" height="256" fill="white"/>
</clipPath>
</defs>
</svg>
