<svg width="256" height="256" viewBox="0 0 256 256" fill="none" xmlns="http://www.w3.org/2000/svg">
<g clip-path="url(#clip0_741_46)">
<path d="M256 128C256 198.692 198.692 256 128 256C57.3075 256 0 198.692 0 128C0 57.3075 57.3075 0 128 0C198.692 0 256 57.3075 256 128Z" fill="black"/>
<mask id="mask0_741_46" style="mask-type:luminance" maskUnits="userSpaceOnUse" x="30" y="83" width="196" height="91">
<path d="M225.027 83H30V173.862H225.027V83Z" fill="white"/>
</mask>
<g mask="url(#mask0_741_46)">
<path d="M75.8813 105.718H121.774L109.978 83H29.9547V128.426C29.9547 140.474 34.7883 152.03 43.3924 160.55C51.9965 169.071 63.6666 173.86 75.8362 173.862H121.729V117.072H98.7824V151.144H75.8362C69.7593 151.132 63.9355 148.733 59.6438 144.474C55.3521 140.214 52.9432 134.442 52.9462 128.426V105.718H75.8813Z" fill="white"/>
<path d="M225.027 83H202.08H122.996L134.214 105.718H190.613L187.593 117.072H167.666V139.791H187.593L190.613 151.144H133.253V173.851H225.027L213.548 128.426L225.027 83Z" fill="#23DB8C"/>
</g>
</g>
<defs>
<clipPath id="clip0_741_46">
<rect width="256" height="256" fill="white"/>
</clipPath>
</defs>
</svg>
