<svg width="256" height="256" viewBox="0 0 256 256" fill="none" xmlns="http://www.w3.org/2000/svg">
<g clip-path="url(#clip0_2380_585)">
<path d="M128 256C198.692 256 256 198.692 256 128C256 57.3076 198.692 0 128 0C57.3076 0 0 57.3076 0 128C0 198.692 57.3076 256 128 256Z" fill="#0A0A0A"/>
<path d="M128.478 36L51.8457 77.4719L128.561 121.761L157.841 104.808L145.508 97.7285L128.561 107.531L77.1372 77.8626L128.561 50.0174L133.555 52.7877L192.671 84.7529L205.216 77.5193L128.478 36Z" fill="white"/>
<path d="M94.9673 111.319V125.55L112.294 135.601V197.057L59.3321 164.476V90.7313L47 83.616V171.378L124.626 219.149V128.45L94.9673 111.331V111.319Z" fill="white"/>
<path d="M200.607 88.9783L132.331 128.437V163.078L144.651 155.951V135.6L197.613 105.008V164.523L144.651 197.068L132.331 204.657V219.136L209.945 171.366V83.5557L200.607 88.9783Z" fill="white"/>
</g>
<defs>
<clipPath id="clip0_2380_585">
<rect width="256" height="256" fill="white"/>
</clipPath>
</defs>
</svg>
