<svg width="256" height="256" viewBox="0 0 256 256" fill="none" xmlns="http://www.w3.org/2000/svg">
<g clip-path="url(#clip0_2380_585)">
<path d="M128 256C198.692 256 256 198.692 256 128C256 57.3076 198.692 0 128 0C57.3076 0 0 57.3076 0 128C0 198.692 57.3076 256 128 256Z" fill="black"/>
<path d="M216.657 89.6516H209.627V82.7021H216.657H223.541V96.7187H216.657V89.6516Z" fill="white"/>
<path d="M216.657 96.7187V110.397H209.744V117.354H202.464V89.6516H209.627V96.7187H216.657Z" fill="white"/>
<path d="M216.657 69.0605V75.8041H209.627V82.702H202.464V69.0605H216.657Z" fill="white"/>
<path d="M209.515 151.888V179.531H202.845V166.051H195.668V159.131H188.939V152.174H181.762V145.166H174.871V138.327H167.966V124.531H174.871V117.354H188.711V124.531H195.778V145.394H202.448V151.888H209.515Z" fill="white"/>
<path d="M174.872 159.131V165.911H168.026V179.818H174.806V186.76H181.704V193.768H188.889V186.76H196.007V179.81H202.846V193.827H195.728V200.585H112.629V193.827H105.407V186.65H98.5682V151.991H105.481V145.196H112.408V124.605H105.437V110.485H98.6417V103.521H91.7217V96.8216H84.7061V61.9274H91.7217V55H188.83V61.8391H174.607V68.8474H160.915V82.8713H174.887V96.7628H188.734V75.8998H195.816V117.354H188.749V110.397H174.872V103.558H147.28V110.397H174.872V117.354H167.989V124.531H160.812V138.327H167.989V145.166H174.894V152.196H181.785V159.153L174.872 159.131ZM147.28 124.568V117.493L140.272 117.457V110.419H126.248V117.383L119.409 117.346V124.568H126.248V117.383L140.272 117.457V124.568H147.28ZM140.272 82.6507V68.8474H126.072V61.898H105.334V68.9651H98.5534V75.863H119.527V96.6378H133.345V82.7021L140.272 82.6507Z" fill="white"/>
<path d="M202.464 117.354H195.779V124.539H202.464V117.354Z" fill="white"/>
<path d="M195.78 61.8391H188.83V69.0606H195.78V61.8391Z" fill="white"/>
<path d="M77.521 110.397V117.581H70.8143V124.678H63.7104V131.26H49.9071V124.376H42.9798V117.28H36.1039V89.6661H29V82.8269H35.9715V76.0319H43.2813V69.0237H63.7839V75.8628H49.9071V82.7387H42.9798V89.8426H49.9071V82.7387H63.7839V89.7102H56.8419V96.6817H49.9071V110.397H56.8419V96.6817H63.7839V89.7102H77.521V103.521H70.8143V110.397H77.521Z" fill="white"/>
<path d="M77.5203 75.8628H63.7832V82.746H77.5203V75.8628Z" fill="white"/>
</g>
<defs>
<clipPath id="clip0_2380_585">
<rect width="256" height="256" fill="white"/>
</clipPath>
</defs>
</svg>
