<svg width="256" height="256" viewBox="0 0 256 256" fill="none" xmlns="http://www.w3.org/2000/svg">
<g clip-path="url(#clip0_1420_226)">
<mask id="mask0_1420_226" style="mask-type:luminance" maskUnits="userSpaceOnUse" x="0" y="0" width="256" height="256">
<path d="M256 0H0V256H256V0Z" fill="white"/>
</mask>
<g mask="url(#mask0_1420_226)">
<path d="M128 256C198.692 256 256 198.692 256 128C256 57.3075 198.692 0 128 0C57.3075 0 0 57.3075 0 128C0 198.692 57.3075 256 128 256Z" fill="url(#paint0_linear_1420_226)"/>
<path fill-rule="evenodd" clip-rule="evenodd" d="M119.293 99.1215L76.434 58.7788C43.8478 84.4865 23.6608 148.88 71.4633 197.728C66.1335 113.37 119.293 99.1215 119.293 99.1215Z" fill="white"/>
<path d="M174.442 114.833C175.712 97.7408 173.309 81.5043 165.798 67.8911C185.239 78.6603 199.13 97.6028 203.493 119.528C200.732 125.796 197.142 130.352 195.264 132.727C195.098 132.948 194.932 133.141 194.794 133.306C191.232 137.89 189.133 139.602 189.133 139.602C189.133 139.602 190.79 140.431 200.373 131.898C201.588 130.821 202.968 129.33 204.46 127.508C204.543 128.226 204.625 128.916 204.763 129.634C204.791 129.855 204.846 130.076 204.874 130.269C205.122 134.88 204.929 139.575 204.322 144.324C204.211 145.18 204.073 146.064 203.935 146.92C200.428 159.484 191.425 167.519 187.808 170.722C187.614 170.916 187.421 171.081 187.255 171.219C182.947 175.113 180.572 176.438 180.572 176.438C180.572 176.438 182.063 177.543 192.972 170.805C194.27 170.004 195.761 168.872 197.418 167.492C192.116 178.482 184.3 187.87 174.801 195.105C161.103 207.282 143.07 214.738 123.27 214.738C106.977 214.738 91.8713 209.685 79.3613 201.124C80.3555 199.468 167.842 204.438 174.442 114.833Z" fill="url(#paint1_linear_1420_226)"/>
<path d="M168.366 52.7307C168.394 52.5927 168.421 52.4545 168.449 52.289C168.78 48.6715 167.207 45.0267 164.666 42.4862C163.396 41.216 161.904 40.1942 160.303 39.4212C158.673 38.648 156.934 38.0957 155.166 37.7367C150.858 36.9082 146.191 37.212 141.828 37.5435C139.812 37.7092 136.388 37.9852 134.178 38.289C133.405 38.3995 133.212 39.4487 133.902 39.8077C136.802 41.3265 139.563 43.1765 141.358 45.993C143.291 49.0582 144.285 52.6202 146.439 55.5747C149.67 60.0205 155.718 62.6437 161.076 60.9042C163.092 60.2415 164.887 59.054 166.24 57.4525C184.963 68.0285 199.875 85.0105 206.973 105.196C217.522 134.135 212.247 167.105 193.137 191.266C148.207 247.045 60.9146 231.333 36.4196 163.957C38.8773 171.688 41.6941 179.503 46.1953 186.406C47.7971 189.499 51.1938 193.751 53.2098 196.596L57.3243 201.235C65.6091 210.43 76.2963 217.72 87.5358 222.8C131.472 242.627 184.328 224.706 207.525 182.54C234.505 134.632 213.932 75.8705 168.366 52.7307Z" fill="white"/>
<path d="M174.442 114.833C175.712 97.7408 173.309 81.5043 165.798 67.8911C185.239 78.6603 199.13 97.6028 203.493 119.528C200.732 125.796 197.142 130.352 195.264 132.727C195.098 132.948 194.932 133.141 194.794 133.306C191.232 137.89 189.133 139.602 189.133 139.602C189.133 139.602 190.79 140.431 200.373 131.898C201.588 130.821 202.968 129.33 204.46 127.508C204.543 128.226 204.625 128.916 204.763 129.634C204.791 129.855 204.846 130.076 204.874 130.269C205.122 134.88 204.929 139.575 204.322 144.324C204.211 145.18 204.073 146.064 203.935 146.92C200.428 159.484 191.425 167.519 187.808 170.722C187.614 170.916 187.421 171.081 187.255 171.219C182.947 175.113 180.572 176.438 180.572 176.438C180.572 176.438 182.063 177.543 192.972 170.805C194.27 170.004 195.761 168.872 197.418 167.492C192.116 178.482 184.3 187.87 174.801 195.105C161.103 207.282 143.07 214.738 123.27 214.738C106.977 214.738 91.8713 209.685 79.3613 201.124C80.3555 199.468 167.842 204.438 174.442 114.833Z" fill="white"/>
<path fill-rule="evenodd" clip-rule="evenodd" d="M119.294 99.1223C119.294 99.1223 66.1063 113.37 71.4638 197.729C71.4638 197.729 36.6405 131.54 89.5795 83.5483C91.7335 81.5878 93.998 79.572 96.3177 77.5288L119.294 99.1223Z" fill="url(#paint2_linear_1420_226)"/>
<path fill-rule="evenodd" clip-rule="evenodd" d="M135.228 82.0828C139.48 62.2346 120.917 56.4493 99.0815 48.6676C77.2465 40.8861 72.5368 25.2676 72.5368 25.2676C72.5368 25.2676 69.0843 42.5506 76.4865 60.3656C80.9918 71.2086 90.426 82.2483 104.48 89.7088C104.48 89.7088 95.4965 93.0458 90.054 105.115C90.054 105.115 115.16 90.2511 137.65 107.693L135.641 116.348C135.624 116.383 157.169 106.125 135.228 82.0828Z" fill="white"/>
<path fill-rule="evenodd" clip-rule="evenodd" d="M98.5228 93.5378C95.7443 95.9228 92.5268 99.6118 90.028 105.126C90.028 105.126 115.134 90.2613 137.624 107.704C137.65 107.694 126.323 89.5328 98.5228 93.5378Z" fill="url(#paint3_linear_1420_226)"/>
<path fill-rule="evenodd" clip-rule="evenodd" d="M72.5498 25.3174C72.5498 25.3174 63.1071 68.5752 104.872 89.5692C114.343 85.6392 123.74 87.2874 123.74 87.2874C69.721 57.4439 72.5498 25.3174 72.5498 25.3174Z" fill="url(#paint4_linear_1420_226)"/>
<path d="M168.366 52.731C168.394 52.593 168.421 52.455 168.449 52.2893C168.78 48.672 167.206 45.027 164.666 42.4865C163.395 41.2163 161.904 40.1948 160.302 39.4215C158.673 38.6483 156.933 38.096 155.166 37.737C150.858 36.9088 146.191 37.2125 141.828 37.5438C139.812 37.7095 136.387 37.9858 134.178 38.2895C133.405 38.3998 133.212 39.4493 133.902 39.808C134.565 40.1395 135.2 40.526 135.807 40.885C136.774 40.8023 137.713 40.747 138.431 40.6918C142.794 40.3603 147.434 40.0565 151.769 40.885C153.537 41.2163 155.276 41.7688 156.906 42.5695C158.507 43.3425 159.999 44.3643 161.269 45.6345C163.81 48.175 165.384 51.8198 165.052 55.4373C165.025 55.5753 164.997 55.7133 164.969 55.879C210.507 79.0188 231.108 137.78 204.101 185.634C199.627 193.752 194.076 200.959 187.669 207.172C195.484 200.296 202.223 192.012 207.442 182.513C234.505 134.632 213.932 75.871 168.366 52.731Z" fill="url(#paint5_linear_1420_226)"/>
<path d="M182.119 202.782C135.2 244.284 59.0366 226.17 36.4196 163.957C38.8773 171.689 41.6941 179.504 46.1953 186.407C47.7971 189.5 51.1938 193.752 53.2098 196.596L57.3243 201.235C64.5873 209.298 73.7281 215.898 83.4763 220.841C115.538 234.564 154.558 229.704 182.119 202.782Z" fill="url(#paint6_linear_1420_226)"/>
<path d="M198.191 120.052C195.512 126.155 191.978 130.628 190.155 132.948C189.989 133.169 189.851 133.334 189.713 133.528C186.234 138.001 184.19 139.685 184.19 139.685C184.19 139.685 185.792 140.486 195.153 132.147C196.01 131.401 196.948 130.352 197.97 129.22C199.738 126.735 201.809 123.476 203.521 119.555C199.158 97.6307 185.267 78.6879 165.826 67.9189C166.986 70.0174 167.98 72.2264 168.919 74.4357C183.914 85.3152 194.518 101.579 198.191 120.052Z" fill="url(#paint7_linear_1420_226)"/>
<path d="M204.847 130.297C204.819 130.076 204.792 129.883 204.736 129.662C204.626 128.944 204.516 128.226 204.433 127.536C202.941 129.358 201.561 130.849 200.346 131.926C200.069 132.175 199.793 132.395 199.517 132.644C199.6 136.482 199.434 140.376 198.91 144.297C198.799 145.153 198.661 145.981 198.523 146.81C195.099 159.07 186.289 166.912 182.782 170.06C182.589 170.226 182.395 170.391 182.23 170.557C178.005 174.34 175.713 175.665 175.713 175.665C175.713 175.665 177.149 176.742 187.836 170.17C188.554 169.728 189.355 169.176 190.183 168.541C194.436 164.482 201.008 157.303 203.88 146.975C204.018 146.119 204.156 145.263 204.267 144.38C204.902 139.602 205.095 134.908 204.847 130.297Z" fill="url(#paint8_linear_1420_226)"/>
<path d="M170.134 193.835C156.74 205.736 139.149 212.998 119.818 212.998C106.397 212.998 93.8322 209.464 82.8965 203.361C94.6607 210.541 108.468 214.738 123.27 214.738C143.071 214.738 161.076 207.31 174.801 195.105C184.3 187.898 192.116 178.482 197.418 167.492C195.761 168.9 194.27 170.005 192.972 170.805C191.342 171.827 189.934 172.628 188.691 173.318C183.776 181.326 177.479 188.257 170.134 193.835Z" fill="url(#paint9_linear_1420_226)"/>
</g>
</g>
<defs>
<linearGradient id="paint0_linear_1420_226" x1="-247.711" y1="-208.118" x2="-285.783" y2="305.135" gradientUnits="userSpaceOnUse">
<stop offset="1" stop-color="#2757FF"/>
</linearGradient>
<linearGradient id="paint1_linear_1420_226" x1="71.4485" y1="71.0563" x2="303.643" y2="342.55" gradientUnits="userSpaceOnUse">
<stop stop-color="#27FFD8"/>
<stop offset="0.3658" stop-color="#2BA1E9"/>
<stop offset="1" stop-color="#2D59F5"/>
</linearGradient>
<linearGradient id="paint2_linear_1420_226" x1="101.522" y1="188.37" x2="84.89" y2="104.686" gradientUnits="userSpaceOnUse">
<stop stop-color="#2972F8" stop-opacity="0.46"/>
<stop offset="1" stop-color="white"/>
</linearGradient>
<linearGradient id="paint3_linear_1420_226" x1="152.807" y1="108.055" x2="100.951" y2="99.171" gradientUnits="userSpaceOnUse">
<stop stop-color="#2A78F6" stop-opacity="0.4"/>
<stop offset="1" stop-color="white"/>
</linearGradient>
<linearGradient id="paint4_linear_1420_226" x1="61.3115" y1="2.46274" x2="100.744" y2="77.2682" gradientUnits="userSpaceOnUse">
<stop stop-color="#2972F8"/>
<stop offset="1" stop-color="white"/>
</linearGradient>
<linearGradient id="paint5_linear_1420_226" x1="288.965" y1="223.245" x2="162.139" y2="112.522" gradientUnits="userSpaceOnUse">
<stop stop-color="#2973F8"/>
<stop offset="1" stop-color="white"/>
</linearGradient>
<linearGradient id="paint6_linear_1420_226" x1="226.113" y1="295.24" x2="99.2861" y2="184.517" gradientUnits="userSpaceOnUse">
<stop stop-color="#2970F9" stop-opacity="0.74"/>
<stop offset="1" stop-color="white"/>
</linearGradient>
<linearGradient id="paint7_linear_1420_226" x1="114.235" y1="84.1712" x2="212.48" y2="115.882" gradientUnits="userSpaceOnUse">
<stop stop-color="white"/>
<stop offset="0.832316" stop-color="#88B1FF" stop-opacity="0.284208"/>
<stop offset="1" stop-color="#71A1FF" stop-opacity="0"/>
</linearGradient>
<linearGradient id="paint8_linear_1420_226" x1="101.687" y1="123.047" x2="199.932" y2="154.758" gradientUnits="userSpaceOnUse">
<stop stop-color="white"/>
<stop offset="1" stop-color="#D1E3FF"/>
</linearGradient>
<linearGradient id="paint9_linear_1420_226" x1="86.746" y1="169.336" x2="184.99" y2="201.047" gradientUnits="userSpaceOnUse">
<stop stop-color="white"/>
<stop offset="1" stop-color="#AFCCFF"/>
</linearGradient>
<clipPath id="clip0_1420_226">
<rect width="256" height="256" fill="white"/>
</clipPath>
</defs>
</svg>
