<svg width="256" height="256" viewBox="0 0 256 256" fill="none" xmlns="http://www.w3.org/2000/svg">
<circle cx="128" cy="128" r="127" fill="#01C696"/>
<path fill-rule="evenodd" clip-rule="evenodd" d="M135.87 116.66H202.121C204.965 116.66 207.697 117.79 209.732 119.809C212.8 122.854 214.714 126.652 214.714 131.098C214.714 135.544 212.8 139.343 209.82 142.299L138.035 215.194C137.032 216.22 135.834 217.034 134.512 217.59C133.19 218.147 131.77 218.433 130.335 218.433C128.901 218.433 127.481 218.147 126.159 217.59C124.837 217.034 123.639 216.22 122.636 215.194L44.1897 135.535C39.9367 131.217 39.9367 124.216 44.1897 119.897L122.636 40.2385C123.639 39.2133 124.837 38.3987 126.159 37.8426C127.481 37.2865 128.901 37 130.335 37C131.77 37 133.19 37.2865 134.512 37.8426C135.834 38.3987 137.032 39.2133 138.035 40.2385L179.252 82.0935C183.458 86.3635 183.458 93.2195 179.252 97.4905C174.954 101.854 167.915 101.854 163.617 97.4905L130.335 63.6945L67.2878 127.716L130.336 191.739L182.495 138.773H135.87V155.451L108.608 127.768L135.87 100.084V116.66Z" fill="white"/>
</svg>
