<svg width="256" height="256" viewBox="0 0 256 256" fill="none" xmlns="http://www.w3.org/2000/svg">
<g clip-path="url(#clip0_1767_113)">
<path d="M256 128C256 57.3075 198.692 0 128 0C57.3075 0 0 57.3075 0 128C0 198.692 57.3075 256 128 256C198.692 256 256 198.692 256 128Z" fill="#00FFE0"/>
<path fill-rule="evenodd" clip-rule="evenodd" d="M82.2025 51.4645L68.465 65.202C67.5275 66.14 67.0005 67.4115 67.0005 68.7375V121.262C67.0005 122.588 67.5275 123.86 68.465 124.798L82.2025 138.536C83.1405 139.473 84.412 140 85.738 140H114.929C116.255 140 117.527 139.473 118.465 138.536L130.822 126.178C131.872 125.128 133.667 125.872 133.667 127.357V154.333C133.667 155.622 132.622 156.667 131.333 156.667H69.334C68.045 156.667 67.0005 157.712 67.0005 159V164.596C67.0005 165.922 67.5275 167.193 68.465 168.131L78.8695 178.536C79.807 179.473 81.079 180 82.405 180H144.929C146.255 180 147.527 179.473 148.465 178.536L155.536 171.464C156.473 170.527 157 169.255 157 167.929V52.3335C157 51.0445 155.955 50 154.667 50H149.071C147.745 50 146.473 50.527 145.536 51.4645L138.414 58.586C137.633 59.367 136.367 59.367 135.586 58.586L128.465 51.4645C127.527 50.527 126.255 50 124.929 50H85.738C84.412 50 83.1405 50.527 82.2025 51.4645ZM92.667 73.3335C91.3785 73.3335 90.334 74.378 90.334 75.6665V114.334C90.334 115.622 91.3785 116.666 92.667 116.666H131.333C132.622 116.666 133.667 115.622 133.667 114.334V75.6665C133.667 74.378 132.622 73.3335 131.333 73.3335H92.667Z" fill="#010C0E"/>
<path d="M108.868 208.536L101.442 201.109C100.732 200.399 100.334 199.436 100.334 198.433C100.334 197.458 101.124 196.667 102.099 196.667H155.619C156.503 196.667 157.35 196.316 157.976 195.691L172.69 180.977C173.315 180.351 173.666 179.504 173.666 178.62V82.762C173.666 80.994 174.368 79.298 175.619 78.048L178.868 74.7985C179.806 73.8605 181.078 73.334 182.404 73.334H184.666C185.955 73.334 186.999 74.3785 186.999 75.667V187.929C186.999 189.255 186.472 190.527 185.535 191.465L168.464 208.536C167.526 209.473 166.254 210 164.928 210H112.404C111.078 210 109.806 209.473 108.868 208.536Z" fill="#010C0E"/>
<path fill-rule="evenodd" clip-rule="evenodd" d="M82.2025 51.4645L68.465 65.202C67.5275 66.14 67.0005 67.4115 67.0005 68.7375V121.262C67.0005 122.588 67.5275 123.86 68.465 124.798L82.2025 138.536C83.1405 139.473 84.412 140 85.738 140H114.929C116.255 140 117.527 139.473 118.465 138.536L130.822 126.178C131.872 125.128 133.667 125.872 133.667 127.357V154.333C133.667 155.622 132.622 156.667 131.333 156.667H69.334C68.045 156.667 67.0005 157.712 67.0005 159V164.596C67.0005 165.922 67.5275 167.193 68.465 168.131L78.8695 178.536C79.807 179.473 81.079 180 82.405 180H144.929C146.255 180 147.527 179.473 148.465 178.536L155.536 171.464C156.473 170.527 157 169.255 157 167.929V52.3335C157 51.0445 155.955 50 154.667 50H149.071C147.745 50 146.473 50.527 145.536 51.4645L138.414 58.586C137.633 59.367 136.367 59.367 135.586 58.586L128.465 51.4645C127.527 50.527 126.255 50 124.929 50H85.738C84.412 50 83.1405 50.527 82.2025 51.4645ZM92.667 73.3335C91.3785 73.3335 90.334 74.378 90.334 75.6665V114.334C90.334 115.622 91.3785 116.666 92.667 116.666H131.333C132.622 116.666 133.667 115.622 133.667 114.334V75.6665C133.667 74.378 132.622 73.3335 131.333 73.3335H92.667Z" stroke="#010C0E" stroke-width="3"/>
<path d="M108.868 208.536L101.442 201.109C100.732 200.399 100.334 199.436 100.334 198.433C100.334 197.458 101.124 196.667 102.099 196.667H155.619C156.503 196.667 157.35 196.316 157.976 195.691L172.69 180.977C173.315 180.351 173.666 179.504 173.666 178.62V82.762C173.666 80.994 174.368 79.298 175.619 78.048L178.868 74.7985C179.806 73.8605 181.078 73.334 182.404 73.334H184.666C185.955 73.334 186.999 74.3785 186.999 75.667V187.929C186.999 189.255 186.472 190.527 185.535 191.465L168.464 208.536C167.526 209.473 166.254 210 164.928 210H112.404C111.078 210 109.806 209.473 108.868 208.536Z" stroke="#010C0E" stroke-width="3"/>
</g>
<defs>
<clipPath id="clip0_1767_113">
<rect width="256" height="256" fill="white"/>
</clipPath>
</defs>
</svg>
