<svg width="256" height="256" viewBox="0 0 256 256" fill="none" xmlns="http://www.w3.org/2000/svg">
<path d="M256 127.998C256 161.946 242.514 194.504 218.509 218.509C194.504 242.514 161.946 256 127.998 256C94.0514 255.999 61.495 242.513 37.491 218.509C13.487 194.505 0.00116778 161.95 0 128.002C-2.00871e-08 94.0551 13.4853 61.4975 37.4895 37.4926C61.4936 13.4876 94.0505 0.00116783 127.998 0C161.946 -2.00871e-08 194.503 13.4853 218.508 37.4895C242.512 61.4935 255.999 94.0505 256 127.998Z" fill="#3E33BB"/>
<path d="M137.196 177.047L119.117 176.827C116.975 176.827 115.196 178.549 115.159 180.713L115.05 189.84C114.978 197.062 120.678 202.965 127.829 203.038C134.981 203.111 140.826 197.356 140.899 190.134L141.008 181.006C141.008 178.843 139.302 177.047 137.16 177.01L137.196 177.047Z" fill="white"/>
<path d="M125.577 53.0677C100.381 54.2773 79.5793 75.0629 78.0909 100.467C77.1833 115.791 83.1371 129.794 93.1571 139.656L93.3023 139.839L96.7512 142.882L111.236 155.675C112.798 157.069 114.794 157.802 116.864 157.802H139.118C141.187 157.802 143.184 157.032 144.745 155.675L159.739 142.405L160.21 142.002L162.135 140.279L162.244 140.205C171.936 130.968 178 117.917 178 103.473C178.072 74.8063 154.257 51.6379 125.577 53.0677ZM128.045 79.8652C140.933 79.8652 151.425 90.4596 151.425 103.51C151.425 116.561 140.933 127.118 128.045 127.118C115.157 127.118 104.665 116.524 104.665 103.51C104.665 90.4962 115.157 79.8652 128.045 79.8652Z" fill="white"/>
</svg>
