<svg width="256" height="256" viewBox="0 0 256 256" fill="none" xmlns="http://www.w3.org/2000/svg">
<g clip-path="url(#clip0_2415_1179)">
<path d="M128 256C198.692 256 256 198.692 256 128C256 57.3076 198.692 0 128 0C57.3076 0 0 57.3076 0 128C0 198.692 57.3076 256 128 256Z" fill="#28D358"/>
<path d="M80.9297 111.292C80.9297 122.803 90.2566 132.13 101.768 132.13C113.28 132.13 122.606 122.803 122.606 111.292C122.606 99.7803 113.28 90.4534 101.768 90.4534C90.2566 90.4534 80.9297 99.7803 80.9297 111.292ZM133.452 111.292C133.452 122.803 142.779 132.13 154.291 132.13C165.802 132.13 175.129 122.803 175.129 111.292C175.129 99.7803 165.802 90.4534 154.291 90.4534C142.779 90.4534 133.452 99.7803 133.452 111.292Z" fill="white"/>
<path d="M226.756 209.442V138.419H199.962C194.543 174.242 164.992 200.337 128 200.337C87.1252 200.337 54.4682 168.482 54.4682 126.831C54.4682 85.1796 87.1252 52.7274 128.008 52.7274C163.644 52.7274 193.015 77.3972 199.979 111.309H226.773C219.443 63.0954 177.374 26.1716 128 26.1716C73.4463 26.1716 29.2266 71.2447 29.2266 126.822C29.2266 182.4 73.4463 227.473 128 227.473C162.329 227.473 186.266 211.575 200.951 186.539C201.301 186.641 201.66 186.718 201.992 186.82V232.456C211.226 225.908 219.553 218.166 226.756 209.433V209.442Z" fill="white"/>
</g>
<defs>
<clipPath id="clip0_2415_1179">
<rect width="256" height="256" fill="white"/>
</clipPath>
</defs>
</svg>
