<svg width="256" height="256" viewBox="0 0 256 256" fill="none" xmlns="http://www.w3.org/2000/svg">
<g clip-path="url(#clip0_2559_1776)">
<mask id="mask0_2559_1776" style="mask-type:luminance" maskUnits="userSpaceOnUse" x="0" y="0" width="256" height="256">
<path d="M256 0H0V256H256V0Z" fill="white"/>
</mask>
<g mask="url(#mask0_2559_1776)">
<path d="M256 128C256 57.3075 198.692 0 128 0C57.3075 0 0 57.3075 0 128C0 198.692 57.3075 256 128 256C198.692 256 256 198.692 256 128Z" fill="#E2DFD9"/>
</g>
<path d="M208.022 112.328C196.568 108.128 186.621 110.343 177.561 115.963L166.273 65.8073C164.998 60.0372 160.151 55.7171 154.23 55.0821C152.315 54.8721 150.375 55.0671 148.536 55.6421L99.7471 70.9124C92.5764 73.1625 87.1493 79.0176 85.4864 86.2927L78.1444 118.773C62.2007 107.193 49.9254 109.978 43.2789 113.178C29.9353 119.908 24.1303 135.734 28.3631 153.589C33.8457 176.65 55.4483 200 91.2814 200C123.733 200 145.069 174.829 162.267 154.709C178.76 135.329 189.499 123.693 201.915 128.309C208.97 130.899 211.792 136.169 210.381 143.984C207.433 160.134 185.76 182.87 146.787 182.87V200C181.653 200 221.346 180.185 227.383 147.034C230.275 131.079 222.868 117.768 208.022 112.328ZM149.045 143.649C132.637 162.929 115.651 182.87 91.2814 182.87C64.8966 182.87 49.094 166.189 45.1433 149.649C43.3645 142.164 43.8332 132.169 51.029 128.674C58.2249 125.174 67.6177 131.709 73.8864 137.749L69.7241 156.094H87.4416L101.833 92.3429C102.503 89.3878 104.701 87.0077 107.608 86.0927L144.545 74.5725C145.976 74.1275 147.533 74.2975 148.833 75.0425C150.138 75.7875 151.065 77.0325 151.398 78.4876L162.686 128.394C158.004 133.144 153.504 138.419 149.045 143.649Z" fill="#7D7366"/>
</g>
<defs>
<clipPath id="clip0_2559_1776">
<rect width="256" height="256" fill="white"/>
</clipPath>
</defs>
</svg>
