<svg width="256" height="256" viewBox="0 0 256 256" fill="none" xmlns="http://www.w3.org/2000/svg">
<g clip-path="url(#clip0_2551_345)">
<mask id="mask0_2551_345" style="mask-type:luminance" maskUnits="userSpaceOnUse" x="0" y="0" width="256" height="256">
<path d="M256 0H0V256H256V0Z" fill="white"/>
</mask>
<g mask="url(#mask0_2551_345)">
<path d="M256 128C256 57.3075 198.692 0 128 0C57.3075 0 0 57.3075 0 128C0 198.692 57.3075 256 128 256C198.692 256 256 198.692 256 128Z" fill="white"/>
</g>
<path d="M222.994 130.583C222.807 133.26 222.742 135.954 222.415 138.612C218.95 166.833 205.827 189.446 182.789 206.005C165.58 218.378 146.157 224.153 125.001 223.418C100.537 222.574 79.4458 213.442 61.7602 196.462C61.5975 196.306 61.6014 195.681 61.7602 195.513C83.8185 173.354 105.898 151.217 127.997 129.103C128.52 128.623 129.196 128.346 129.904 128.321C160.937 128.283 191.968 128.272 223 128.288L222.994 130.583Z" fill="#121B4B"/>
<path d="M130.314 32.979C132.923 33.1778 135.537 33.2936 138.137 33.5753C153.36 35.2303 167.381 40.2707 180.198 48.6966C180.285 48.7622 180.369 48.8325 180.448 48.9073L172.345 57.0168C170.581 58.7819 168.83 60.5589 167.045 62.3017C166.932 62.3749 166.803 62.4193 166.669 62.431C166.535 62.4427 166.401 62.4213 166.277 62.3688C153.373 54.9231 139.483 51.4986 124.606 52.0953C91.3232 53.4405 62.3078 77.082 54.3273 109.501C49.3875 129.587 52.1356 148.669 62.3078 166.68C62.4049 166.851 62.4102 167.228 62.2934 167.338C57.8777 171.799 53.4466 176.249 49.0003 180.688C48.957 180.731 48.9032 180.766 48.8022 180.848C48.3835 180.198 47.9622 179.569 47.5659 178.926C36.5957 161.141 31.7531 141.81 33.3201 120.944C36.5865 77.5692 68.7765 42.0337 111.61 34.4875C115.941 33.7253 120.37 33.5318 124.752 33.0751L125.647 32.979H130.314Z" fill="#121B4B"/>
<path d="M178.457 90.4809C178.464 86.52 179.841 82.6838 182.351 79.6254C184.861 76.5673 188.35 74.476 192.225 73.7079C196.099 72.9397 200.12 73.5416 203.601 75.412C207.083 77.282 209.811 80.3042 211.32 83.9646C212.831 87.6249 213.029 91.697 211.882 95.4875C210.736 99.2783 208.315 102.553 205.032 104.755C201.749 106.957 197.806 107.949 193.875 107.564C189.945 107.179 186.268 105.439 183.473 102.641C181.881 101.044 180.618 99.1486 179.757 97.0619C178.897 94.9752 178.455 92.7392 178.457 90.4809Z" fill="#121B4B"/>
</g>
<defs>
<clipPath id="clip0_2551_345">
<rect width="256" height="256" fill="white"/>
</clipPath>
</defs>
</svg>
