<svg width="256" height="256" viewBox="0 0 256 256" fill="none" xmlns="http://www.w3.org/2000/svg">
<path d="M128.858 0.000706881C154.137 0.170258 178.8 7.82126 199.736 21.9889C220.672 36.1565 236.945 56.2063 246.501 79.6098C256.058 103.013 258.47 128.723 253.435 153.496C248.399 178.269 236.141 200.996 218.207 218.811C200.272 236.627 177.463 248.733 152.657 253.602C127.852 258.472 102.159 255.888 78.8203 246.175C55.4813 236.462 35.5409 220.056 21.5137 199.025C7.48647 177.995 0.000568594 153.281 0 128.002C0.114758 93.9402 13.7551 61.3192 37.9206 37.3146C62.086 13.3099 94.7972 -0.112222 128.858 0.000706881Z" fill="#060A16"/>
<path d="M116.128 132.952L128.111 141.207L140.094 132.952L128.111 134.994L116.128 132.952Z" fill="#2EDFDF"/>
<path d="M110.802 102.951L96.2454 100.909L102.903 109.43L116.128 112.36L110.802 102.951Z" fill="#2EDFDF"/>
<path d="M181.547 66.0254L184.032 53.5986L150.835 49.338L128.2 37L105.477 49.338L72.6345 53.5986L75.1199 66.0254L50 96.3823H65.8885L50 159.937L70.2379 155.321L90.8309 201.389L105.477 194.376L128.2 218.964L150.835 194.376L165.835 201.389L186.073 155.321L206.4 159.937L190.512 96.4711H206.311L181.547 66.0254ZM151.367 132.953L154.563 138.811L144.355 156.208L128.111 151.06L111.868 156.208L101.66 138.811L104.855 132.953L85.5939 105.17L105.477 80.9376H150.835L170.717 105.259L151.367 132.953Z" fill="#2EDFDF"/>
<path d="M140.094 112.36L153.32 109.43L159.8 100.909L145.331 102.951L140.094 112.36Z" fill="#2EDFDF"/>
</svg>
