<svg width="256" height="256" viewBox="0 0 256 256" fill="none" xmlns="http://www.w3.org/2000/svg">
<g clip-path="url(#clip0_741_46)">
<path d="M256 128C256 198.692 198.692 256 128 256C57.3075 256 0 198.692 0 128C0 57.3075 57.3075 0 128 0C198.692 0 256 57.3075 256 128Z" fill="#05113B"/>
<path fill-rule="evenodd" clip-rule="evenodd" d="M127.716 139.177L239.384 134.324L127.716 129.471L16 134.324L127.716 139.177Z" fill="#8817D1"/>
<path fill-rule="evenodd" clip-rule="evenodd" d="M125.287 158.588L200.535 153.736L125.287 148.882L49.9932 153.736L125.287 158.588Z" fill="#8817D1"/>
<path fill-rule="evenodd" clip-rule="evenodd" d="M127.716 178L166.542 173.147L127.716 168.294L88.8429 173.147L127.716 178Z" fill="#8817D1"/>
<path fill-rule="evenodd" clip-rule="evenodd" d="M239.384 114.912V114.72C239.376 110.69 239.111 106.827 238.622 102.963L237.31 95.2656C236.192 90.0176 234.643 84.9171 232.684 79.9977L231.009 75.8004L228.656 71.1979C223.853 61.9482 217.575 53.4751 210.093 46.0268L133.194 42.9887L203.746 40.2037C183.806 23.3023 157.078 13 127.692 13C103.811 13 81.6833 19.8048 63.5266 31.4259L133.194 34.1771L55.267 37.2569C48.7933 42.2822 42.9598 47.9683 37.8934 54.2092L34.7259 58.1849L31.8621 62.7897C27.7882 68.6792 24.5303 75.0618 22.0175 81.7652L20.8201 85.3952L19.3978 89.8065C17.184 97.8381 16 106.303 16 114.912H239.384Z" fill="url(#paint0_linear_741_46)"/>
<path d="M161.379 69.9064C174.081 62.6993 183.279 59.9996 197.949 64.0902C212.617 68.1803 213.805 97.2532 219.96 109.718C211.217 98.4446 206.211 76.9029 190.917 75.9236C175.621 74.9462 160.145 80.5383 150.243 90.6197C152.575 92.5866 154.908 94.5531 157.239 96.5175C137.537 108.455 110.892 111.137 88.111 103.477C96.2931 102.573 104.079 99.4419 110.147 94.6152C100.939 80.497 79.4247 76.2453 61.5269 79.1081C43.6271 81.9728 42.9258 105.025 25.7124 110.059C40.5325 92.4202 48.2035 70.1792 70.4238 63.5598C78.959 61.0152 83.4767 60.5602 91.7973 63.949C101.839 68.0415 115.828 82.7061 126.678 84.309C136.34 85.7392 153.264 74.5119 161.379 69.9064Z" fill="black"/>
</g>
<defs>
<linearGradient id="paint0_linear_741_46" x1="127.692" y1="114.913" x2="127.692" y2="12.9983" gradientUnits="userSpaceOnUse">
<stop stop-color="#9900CC"/>
<stop offset="1" stop-color="#00CCFF"/>
</linearGradient>
<clipPath id="clip0_741_46">
<rect width="256" height="256" fill="white"/>
</clipPath>
</defs>
</svg>
