<svg width="256" height="256" viewBox="0 0 256 256" fill="none" xmlns="http://www.w3.org/2000/svg">
<circle cx="128" cy="128" r="125" fill="white" stroke="#181EA9" stroke-width="4"/>
<path d="M162.302 52L146.567 67.8161C141.227 63.9902 134.704 61.7304 127.66 61.7304C109.652 61.7294 95 76.4576 95 94.5615C95 110.8 106.791 124.315 122.217 126.928V138.801C106.791 141.416 95 154.93 95 171.169C95 189.271 109.652 204 127.66 204C145.669 204 160.32 189.272 160.32 171.169C160.32 154.93 148.53 141.416 133.103 138.801V126.928C148.529 124.315 160.32 110.801 160.32 94.5615C160.32 87.4811 158.072 80.9228 154.266 75.5556L170 59.7384L162.302 52ZM149.434 171.169C149.434 183.237 139.666 193.056 127.66 193.056C115.655 193.056 105.886 183.237 105.886 171.169C105.886 159.1 115.655 149.281 127.66 149.281C139.666 149.281 149.434 159.1 149.434 171.169ZM127.66 116.449C115.655 116.449 105.886 106.631 105.886 94.5618C105.886 82.4928 115.655 72.674 127.66 72.674C139.666 72.674 149.434 82.4925 149.434 94.5618C149.434 106.631 139.666 116.449 127.66 116.449Z" fill="#181EA9"/>
</svg>
