<svg width="256" height="256" viewBox="0 0 256 256" fill="none" xmlns="http://www.w3.org/2000/svg">
<path d="M256 128C256 57.3076 198.692 0 128 0C57.3076 0 0 57.3076 0 128C0 198.692 57.3076 256 128 256C198.692 256 256 198.692 256 128Z" fill="#24E5DF"/>
<path d="M128.508 22.2607C69.8326 22.2607 22.2607 70.0594 22.2607 129.013C22.2607 187.968 69.8326 235.763 128.508 235.763C187.184 235.763 234.751 187.969 234.751 129.013C234.751 70.0581 187.181 22.2607 128.508 22.2607ZM164.461 165.147C128.359 201.426 82.9882 214.657 63.1258 194.703C43.2646 174.754 56.4399 129.164 92.5508 92.8848C128.655 56.6061 174.024 43.3703 193.888 63.3202C213.749 83.2702 200.574 128.86 164.461 165.147Z" fill="#133D38"/>
</svg>
