<svg width="256" height="256" viewBox="0 0 256 256" fill="none" xmlns="http://www.w3.org/2000/svg">
<g clip-path="url(#clip0_2572_3832)">
<path d="M128 256C198.692 256 256 198.692 256 128C256 57.3076 198.692 0 128 0C57.3076 0 0 57.3076 0 128C0 198.692 57.3076 256 128 256Z" fill="#BE994B"/>
<mask id="mask0_2572_3832" style="mask-type:luminance" maskUnits="userSpaceOnUse" x="3" y="4" width="249" height="249">
<path d="M252 4H3V253H252V4Z" fill="white"/>
</mask>
<g mask="url(#mask0_2572_3832)">
<path opacity="0.989" fill-rule="evenodd" clip-rule="evenodd" d="M116.793 3.7511C123.931 3.7511 131.069 3.7511 138.207 3.7511C168.43 7.19729 194.575 19.6473 216.642 41.1011C236.831 62.725 248.534 88.2891 251.751 117.793C251.751 124.931 251.751 132.069 251.751 139.207C245.142 188.561 219.246 223.504 174.063 244.036C169.45 245.148 164.968 246.642 160.617 248.518C153.395 250.19 146.091 251.352 138.705 252.004C138.428 252.195 138.263 252.444 138.207 252.751C131.069 252.751 123.931 252.751 116.793 252.751C70.8956 247.284 37.115 224.21 15.45 183.529C12.1364 176.41 9.31438 169.106 6.98398 161.617C5.44972 153.926 4.03872 146.29 2.75098 138.709C2.75098 131.737 2.75098 124.765 2.75098 117.793C9.21255 68.2373 35.1085 33.1279 80.439 12.4661C85.8745 11.0396 91.0205 9.37966 95.877 7.4861C102.46 6.11871 109.101 5.12271 115.797 4.4981C116.253 4.35944 116.585 4.11045 116.793 3.7511Z" fill="#BE994B"/>
<path fill-rule="evenodd" clip-rule="evenodd" d="M162.608 112.813C161.716 112.88 160.886 112.714 160.118 112.315C155.959 107.824 151.975 103.175 148.166 98.3711C150.343 96.1119 152.751 94.12 155.387 92.3951C155.79 89.2831 155.707 86.2116 155.138 83.1821C140.573 82.3604 125.965 82.1944 111.314 82.6841C91.9609 94.0816 85.2379 110.599 91.1454 132.235C92.9253 136.295 95.0833 140.113 97.6194 143.689C102.02 148.256 106.585 152.655 111.314 156.886C113.638 158.546 115.962 160.206 118.286 161.866C119.037 162.283 119.286 162.864 119.033 163.609C115.152 166.66 111.417 169.897 107.828 173.32C102.882 172.872 98.0676 171.71 93.3864 169.834C82.3028 165.053 72.5918 158.33 64.2534 149.665C54.7078 135.806 51.3879 120.534 54.2934 103.849C60.4105 85.781 72.1135 72.75 89.4024 64.7561C93.5421 63.0572 97.8575 61.9782 102.35 61.5191C119.694 61.2224 136.958 60.8899 154.142 60.5231C157.275 57.9745 160.346 55.3179 163.355 52.5551C169.534 57.3369 175.426 62.3994 181.034 67.7441C178.966 70.1454 176.891 72.5524 174.809 74.9651C174.448 80.1272 174.614 85.2732 175.307 90.4031C181.524 92.808 187.749 95.2145 193.982 97.6241C183.729 103.249 173.271 108.312 162.608 112.813Z" fill="#FEFEFD"/>
<path fill-rule="evenodd" clip-rule="evenodd" d="M154.143 60.5229C136.958 60.8902 119.694 61.2222 102.351 61.5189C103.412 61.1138 104.573 60.8648 105.837 60.7719C121.938 60.5229 138.04 60.4399 154.143 60.5229Z" fill="#EBE0C9"/>
<path fill-rule="evenodd" clip-rule="evenodd" d="M160.12 112.315C160.887 112.714 161.717 112.88 162.61 112.813C161.486 114.21 160.656 114.044 160.12 112.315Z" fill="#E8DABE"/>
<path fill-rule="evenodd" clip-rule="evenodd" d="M191.493 127.255C170.662 126.758 149.746 126.592 128.745 126.757C128.745 127.255 128.745 127.753 128.745 128.251C128.28 127.719 128.114 127.055 128.247 126.259C149.498 126.093 170.746 126.259 191.991 126.757C191.929 127.06 191.763 127.226 191.493 127.255Z" fill="#F5EFE4"/>
<path fill-rule="evenodd" clip-rule="evenodd" d="M191.494 127.255C182.897 132.605 174.349 138.083 165.847 143.689C165.515 152.488 165.515 161.285 165.847 170.083C169.449 174.513 172.851 179.078 176.056 183.778C172.186 189.144 168.119 194.373 163.855 199.465C161.359 202.375 158.786 205.197 156.136 207.931C149.477 200.359 143.086 192.556 136.963 184.525C136.704 183.634 136.87 182.804 137.461 182.035C139.951 178.882 142.441 175.727 144.931 172.573C145.263 162.946 145.263 153.317 144.931 143.689C139.437 138.61 134.042 133.464 128.746 128.251C128.746 127.753 128.746 127.255 128.746 126.757C149.746 126.592 170.662 126.758 191.494 127.255Z" fill="#FEFEFD"/>
</g>
</g>
<defs>
<clipPath id="clip0_2572_3832">
<rect width="256" height="256" fill="white"/>
</clipPath>
</defs>
</svg>
