<svg width="258" height="249" viewBox="0 0 258 249" fill="none" xmlns="http://www.w3.org/2000/svg">
<path d="M128.875 248.758C197.313 248.758 252.792 193.072 252.792 124.379C252.792 55.6864 197.313 0 128.875 0C60.4365 0 4.95654 55.6864 4.95654 124.379C4.95654 193.072 60.4365 248.758 128.875 248.758Z" fill="url(#paint0_linear_1768_132)"/>
<path d="M129 237C190.856 237 241 186.632 241 124.5C241 62.368 190.856 12 129 12C67.1441 12 17 62.368 17 124.5C17 186.632 67.1441 237 129 237Z" stroke="#3EDAB4" stroke-opacity="0.5" stroke-width="17.483"/>
<g style="mix-blend-mode:multiply" opacity="0.5">
<path d="M170.808 197.01C160.237 202.219 148.354 205.167 135.787 205.226C135.659 205.227 135.532 205.227 135.405 205.227L91.1662 205.227C91.1662 205.098 91.1669 204.971 91.1669 204.843V169.818H135.69C160.306 169.664 180.214 149.659 180.214 125.003C180.214 100.306 160.238 80.2741 135.567 80.188L135.232 80.1865H91.1669V146.982C90.9642 165.828 75.19 181.044 55.7633 181.044V44.7783H135.69C179.859 44.9322 215.617 80.792 215.617 125.003C215.617 156.6 197.353 183.93 170.808 197.01Z" fill="#07846D"/>
</g>
<g filter="url(#filter0_d_1768_132)">
<path d="M75.46 150.712C70.7163 150.712 66.5717 149.63 63.0259 147.466C59.4803 145.302 56.7251 142.296 54.7606 138.448C52.7962 134.553 51.8138 130.031 51.8138 124.886C51.8138 119.692 52.8201 115.123 54.8325 111.179C56.8928 107.187 59.7917 104.086 63.529 101.873C67.3143 99.6129 71.7942 98.4824 76.9691 98.4824C82.8627 98.4824 87.7498 99.9017 91.6311 102.739C95.5125 105.576 98.028 109.496 99.1776 114.497H88.9001C88.1332 112.141 86.744 110.313 84.731 109.015C82.7188 107.668 80.1317 106.995 76.9691 106.995C71.9381 106.995 68.057 108.606 65.3259 111.829C62.5947 115.003 61.2291 119.379 61.2291 124.958C61.2291 130.537 62.5707 134.865 65.254 137.943C67.9851 140.973 71.6744 142.488 76.3226 142.488C80.8745 142.488 84.3001 141.261 86.6001 138.809C88.9476 136.308 90.3617 133.037 90.8408 128.998H78.1194V122.072H100.112V149.846H91.6311L90.9124 143.209C89.2836 145.614 87.2472 147.466 84.8033 148.764C82.3594 150.062 79.245 150.712 75.46 150.712ZM109.055 149.846V99.3482H119.98L136.008 131.378L151.82 99.3482H162.744V149.846H153.545V115.003L139.53 142.632H132.27L118.255 115.003V149.846H109.055ZM172.506 149.846V99.3482H205.351V106.778H181.705V120.629H203.195V127.844H181.705V142.416H205.351V149.846H172.506Z" fill="white"/>
</g>
<defs>
<filter id="filter0_d_1768_132" x="41.3241" y="94.9858" width="174.517" height="73.2091" filterUnits="userSpaceOnUse" color-interpolation-filters="sRGB">
<feFlood flood-opacity="0" result="BackgroundImageFix"/>
<feColorMatrix in="SourceAlpha" type="matrix" values="0 0 0 0 0 0 0 0 0 0 0 0 0 0 0 0 0 0 127 0" result="hardAlpha"/>
<feOffset dy="6.99319"/>
<feGaussianBlur stdDeviation="5.24489"/>
<feComposite in2="hardAlpha" operator="out"/>
<feColorMatrix type="matrix" values="0 0 0 0 0 0 0 0 0 0 0 0 0 0 0 0 0 0 0.4 0"/>
<feBlend mode="normal" in2="BackgroundImageFix" result="effect1_dropShadow_1768_132"/>
<feBlend mode="normal" in="SourceGraphic" in2="effect1_dropShadow_1768_132" result="shape"/>
</filter>
<linearGradient id="paint0_linear_1768_132" x1="9.29378" y1="-1.08696e-05" x2="262.002" y2="319.985" gradientUnits="userSpaceOnUse">
<stop stop-color="#07846D"/>
<stop offset="1" stop-color="#08705D"/>
</linearGradient>
</defs>
</svg>
