<svg width="256" height="256" viewBox="0 0 256 256" fill="none" xmlns="http://www.w3.org/2000/svg">
<g clip-path="url(#clip0_2109_10756)">
<path d="M256 128C256 57.3076 198.692 0 128 0C57.3076 0 0 57.3076 0 128C0 198.692 57.3076 256 128 256C198.692 256 256 198.692 256 128Z" fill="#4D6EF6"/>
<mask id="mask0_2109_10756" style="mask-type:alpha" maskUnits="userSpaceOnUse" x="22" y="16" width="211" height="225">
<path d="M158.205 24.2091C139.422 13.3649 116.281 13.3649 97.4979 24.2091L53.0568 49.8672C34.2738 60.7115 22.7031 80.7526 22.7031 102.442V153.757C22.7031 175.446 34.2738 195.487 53.0568 206.331L97.4979 231.989C116.281 242.833 139.422 242.833 158.205 231.989L202.646 206.331C221.429 195.487 232.999 175.446 232.999 153.757V102.442C232.999 80.7526 221.429 60.7115 202.646 49.8672L158.205 24.2091Z" fill="#29E7E8"/>
</mask>
<g mask="url(#mask0_2109_10756)">
<path d="M158.202 24.2091C139.419 13.3649 116.278 13.3649 97.4949 24.2091L53.0538 49.8672C34.2709 60.7115 22.7002 80.7526 22.7002 102.442V153.757C22.7002 175.446 34.2709 195.487 53.0538 206.331L97.495 231.989C116.278 242.833 139.419 242.833 158.202 231.989L202.643 206.331C221.426 195.487 232.996 175.446 232.996 153.757V102.442C232.996 80.7526 221.426 60.7115 202.643 49.8672L158.202 24.2091Z" fill="url(#paint0_radial_2109_10756)"/>
<path fill-rule="evenodd" clip-rule="evenodd" d="M119.188 59.8035H138.785V73.9253C160.156 77.1444 175.497 91.2581 177.922 110.307H150.74C148.043 100.834 139.956 95.0618 129.397 95.0618C113.82 95.0618 104.61 107.125 104.61 127.92C104.61 149.086 114.794 161.888 130.595 161.888C143.026 161.888 151.713 154.636 152.461 143.906L152.536 142.277H132.767V123.628H179.046V136.727C179.046 162.991 164.222 180.068 138.785 183.2V196.395H119.188V182.944C92.3814 178.92 76.6025 159.394 76.6025 128.29C76.6025 97.3979 92.5692 77.8099 119.188 73.9376V59.8035Z" fill="white"/>
</g>
</g>
<defs>
<radialGradient id="paint0_radial_2109_10756" cx="0" cy="0" r="1" gradientUnits="userSpaceOnUse" gradientTransform="translate(289.735 -38.8462) rotate(132.374) scale(390.326 356.169)">
<stop stop-color="#29E7E8"/>
<stop offset="1" stop-color="#651FFF"/>
</radialGradient>
<clipPath id="clip0_2109_10756">
<rect width="256" height="256" fill="white"/>
</clipPath>
</defs>
</svg>
