<svg width="256" height="256" viewBox="0 0 256 256" fill="none" xmlns="http://www.w3.org/2000/svg">
<path d="M128.858 0.000706881C154.137 0.170258 178.8 7.82126 199.736 21.9889C220.672 36.1565 236.945 56.2063 246.501 79.6098C256.058 103.013 258.47 128.723 253.435 153.496C248.399 178.269 236.141 200.996 218.207 218.811C200.272 236.627 177.463 248.733 152.657 253.602C127.852 258.472 102.159 255.888 78.8203 246.175C55.4813 236.462 35.5409 220.056 21.5137 199.025C7.48647 177.995 0.000568594 153.281 0 128.002C0.114758 93.9402 13.7551 61.3192 37.9206 37.3146C62.086 13.3099 94.7972 -0.112222 128.858 0.000706881Z" fill="#F2EEE2"/>
<path d="M81.3085 144.383C87.8896 144.383 94.3102 142.189 99.5001 138.176L57.7665 96.4424C47.7076 109.444 50.1153 128.171 63.1169 138.23C68.3604 142.189 74.7275 144.383 81.3085 144.383Z" fill="#3E6957"/>
<path d="M205.439 114.58C205.439 107.999 203.246 101.579 199.233 96.3887L157.499 138.122C170.501 148.181 189.174 145.774 199.233 132.772C203.246 127.582 205.439 121.161 205.439 114.58Z" fill="#3E6957"/>
<path d="M226.467 69.1553L208.008 87.6144C222.882 105.431 220.528 131.97 202.711 146.844C187.087 159.899 164.401 159.899 148.778 146.844L128.5 167.122L108.275 146.898C90.4577 161.772 63.9194 159.418 49.0451 141.601C35.9899 125.977 35.9899 103.291 49.0451 87.6679L39.5748 78.1976L30.586 69.1553C19.7245 87.0258 13.9995 107.572 13.9995 128.492C13.9995 191.735 65.257 242.992 128.5 242.992C191.742 242.992 243 191.735 243 128.492C243.053 107.572 237.275 87.0258 226.467 69.1553Z" fill="#3E6957"/>
<path d="M211.325 49.465C167.718 3.71848 95.2731 2.00632 49.5266 45.6127C48.189 46.8968 46.9049 48.1809 45.6743 49.465C42.8385 52.4613 40.1633 55.5645 37.6486 58.8283L128.5 149.733L219.351 58.8283C216.889 55.5645 214.161 52.4613 211.325 49.465ZM128.5 28.9727C155.252 28.9727 180.185 39.2991 198.912 58.1328L128.5 128.545L58.0874 58.1328C76.814 39.2991 101.747 28.9727 128.5 28.9727Z" fill="#3E6957"/>
</svg>
