<svg width="256" height="256" viewBox="0 0 256 256" fill="none" xmlns="http://www.w3.org/2000/svg">
<g clip-path="url(#clip0_1201_30)">
<mask id="mask0_1201_30" style="mask-type:luminance" maskUnits="userSpaceOnUse" x="0" y="0" width="256" height="256">
<path d="M256 0H0V256H256V0Z" fill="white"/>
</mask>
<g mask="url(#mask0_1201_30)">
<path d="M128 255C110.858 255 94.2271 251.626 78.5639 244.978C63.4382 238.555 49.8627 229.362 38.1958 217.657C26.538 205.954 17.3801 192.316 10.9822 177.13C4.36026 161.406 1 144.71 1 127.5C1 110.29 4.36026 93.5942 10.9822 77.8692C17.3801 62.684 26.538 49.055 38.1958 37.3423C49.8537 25.6386 63.4382 16.4446 78.5639 10.0215C94.2271 3.37349 110.858 0 128 0C145.142 0 161.773 3.37349 177.436 10.0215C192.562 16.4446 206.138 25.6386 217.804 37.3423C229.462 49.0461 238.62 62.684 245.018 77.8692C251.639 93.5942 255 110.29 255 127.5C255 144.71 251.639 161.406 245.018 177.13C238.62 192.316 229.462 205.945 217.804 217.657C206.147 229.362 192.562 238.555 177.436 244.978C161.773 251.626 145.142 255 128 255Z" fill="white"/>
<path d="M128.45 0.00520833C129.168 35.3663 130.715 70.7281 132.767 106.089C135.47 152.66 155.282 199.235 169.106 245.807C169.412 246.837 169.7 247.871 170 248.901C156.844 253.493 142.714 256 127.997 256C113.283 256 99.1539 253.497 86 248.906C86.3007 247.874 86.5926 246.839 86.8991 245.807C100.723 199.235 120.536 152.66 123.238 106.089C125.29 70.7281 126.832 35.3663 127.55 0.00520833C127.7 0.00469704 127.848 0 127.997 0C128.148 0 128.299 0.00468507 128.45 0.00520833Z" fill="#2A2A2A"/>
<path d="M121 124C113.471 164.333 90.7269 204.668 74.1539 245C69.2679 242.822 64.5424 240.361 60 237.637C82.7288 199.759 111.851 161.878 121 124Z" fill="#2A2A2A"/>
<path d="M135 124C144.15 161.877 173.268 199.76 196 237.636C191.458 240.36 186.735 242.822 181.849 245C165.273 204.669 142.529 164.331 135 124Z" fill="#2A2A2A"/>
<path d="M120 0C119.948 35.5458 119.906 71.0919 119.755 106.638C119.588 145.754 78.6608 184.883 43.3051 224C16.7505 200.513 0 166.181 0 127.93C0 59.86 53.025 4.18982 120 0Z" fill="#2A2A2A"/>
<path d="M136 0C202.975 4.18982 256 59.86 256 127.93C256 166.183 239.246 200.512 212.69 224C177.336 184.886 136.418 145.751 136.25 106.638C136.099 71.0919 136.052 35.5458 136 0Z" fill="#2A2A2A"/>
</g>
</g>
<defs>
<clipPath id="clip0_1201_30">
<rect width="256" height="256" fill="white"/>
</clipPath>
</defs>
</svg>
