<svg width="256" height="256" viewBox="0 0 256 256" fill="none" xmlns="http://www.w3.org/2000/svg">
<path d="M128.858 0.000706881C154.137 0.170258 178.8 7.82126 199.736 21.9889C220.672 36.1565 236.945 56.2063 246.501 79.6098C256.058 103.013 258.47 128.723 253.435 153.496C248.399 178.269 236.141 200.996 218.207 218.811C200.272 236.627 177.463 248.733 152.657 253.602C127.852 258.472 102.159 255.888 78.8203 246.175C55.4813 236.462 35.5409 220.056 21.5137 199.025C7.48647 177.995 0.000568594 153.281 0 128.002C0.114758 93.9402 13.7551 61.3192 37.9206 37.3146C62.086 13.3099 94.7972 -0.112222 128.858 0.000706881Z" fill="#0E0F11"/>
<path d="M153.35 111.332C158.539 111.52 163.769 111.365 168.906 111.987C173.435 112.539 177.956 113.603 181.842 116.353C186.338 119.532 188.946 123.872 190.146 129.179C191.152 133.597 190.853 138.015 190.354 142.44C190.198 143.808 189.971 145.184 189.582 146.5C189.199 147.785 189.511 148.856 189.99 150.043C191.878 154.662 192.813 159.411 191.891 164.439C191.262 167.87 189.893 170.913 187.525 173.443C186.552 174.481 186.241 175.577 186.195 176.966C186.039 181.87 185.138 186.567 182.127 190.66C180.558 192.802 178.566 194.436 176.516 196.052C175.9 196.545 175.329 197.245 175.031 197.972C174.427 199.464 174.045 201.047 173.526 202.578C172.507 205.608 170.982 208.443 168.835 210.726C165.78 213.976 162.017 216.001 157.372 216.442C153.641 216.792 150.015 216.584 146.395 215.864C143.45 215.28 140.803 216.007 138.221 217.324C136.378 218.265 134.568 219.283 132.661 220.055C128.496 221.748 124.162 221.93 119.757 221.203C115.606 220.522 111.661 219.134 108.041 217.116C103.708 214.696 99.465 212.043 95.8122 208.592C94.5344 207.385 93.2433 206.204 91.9135 205.063C89.5327 203.026 86.7948 202.811 83.9013 203.629C82.6495 203.986 81.4169 204.453 80.1779 204.848C76.6356 205.997 73.6188 204.887 71.0887 202.461C67.8127 199.315 65.3734 195.487 62.9666 191.66C59.8916 186.781 57.4199 181.578 55.8109 176.051C54.0204 169.901 52.937 163.588 54.1826 157.186C54.8897 153.54 55.6034 149.829 57.7053 146.598C58.4902 145.385 59.1779 144.107 59.8721 142.842C61.7794 139.358 65.0296 137.95 68.669 137.204C73.8914 136.133 78.0112 133.344 81.5986 129.471C84.1675 126.701 85.4453 123.23 87.3076 120.077C89.0199 117.177 90.3307 114.044 91.9262 111.073C94.5472 106.214 97.1814 101.348 99.9708 96.58C102.066 93.0053 104.363 89.5343 106.686 86.1025C107.879 84.3381 108.599 82.463 109.028 80.4069C110.202 74.7691 110.338 69.0212 110.902 63.3253C111.246 59.9129 111.973 56.5394 112.504 53.14C112.894 50.6618 113.965 48.469 115.216 46.3412C117.318 42.799 120.491 41.1058 124.539 40.9891C131.027 40.8074 135.742 43.8824 139.486 48.9686C143.456 54.3661 145.506 60.4254 146.291 67.0037C146.836 71.5643 145.792 75.8722 144.105 80.0174C141.036 87.5366 138.189 95.1136 137.15 103.236C136.956 104.747 136.891 106.246 137.312 107.796C137.916 110.015 138.656 111.001 140.919 111.293C142.976 111.559 145.058 111.696 147.128 111.715C149.197 111.735 151.267 111.553 153.336 111.456C153.343 111.436 153.35 111.384 153.35 111.332ZM154.063 120.051C154.063 120.091 154.063 120.129 154.063 120.168C153.459 120.207 152.856 120.253 152.253 120.279C148.179 120.402 144.112 120.648 140.044 120C134.393 119.097 131.195 115.504 129.761 110.437C128.451 105.805 128.996 101.082 129.982 96.5152C131.597 89.0285 134.309 81.8664 137.222 74.7888C138.136 72.5701 138.727 70.2604 138.363 67.8211C138.11 66.0824 137.935 64.2984 137.462 62.6116C136.138 57.8758 133.887 53.7303 129.755 50.7526C127.322 49.001 122.404 49.2995 121.379 52.6145C121.068 53.6266 120.374 54.5608 120.212 55.5793C119.628 59.2771 119.141 63.0009 118.713 66.7182C118.136 71.7981 117.792 76.9098 117.085 81.97C116.605 85.3763 115.372 88.5551 113.296 91.4289C111.058 94.5297 108.963 97.7478 107.029 101.043C104.272 105.747 101.716 110.573 99.0755 115.348C98.3684 116.626 97.6288 117.878 96.9801 119.176C95.2028 122.744 93.4962 126.35 91.6866 129.906C91.0703 131.125 90.3568 132.332 89.4806 133.37C87.6253 135.569 85.796 137.775 83.4991 139.611C79.6391 142.699 75.3706 144.853 70.5766 145.807C68.3057 146.254 66.7553 147.383 65.6719 149.238C63.0185 153.767 61.7664 158.704 61.7664 163.945C61.7599 169.914 63.7062 175.415 66.0546 180.774C68.4095 186.152 71.8544 190.862 75.4481 195.468C76.2531 196.499 77.2195 196.648 78.3226 196.344C79.5095 196.019 80.6385 195.487 81.8318 195.195C87.5604 193.774 92.7312 194.637 97.1166 198.906C98.9262 200.664 100.808 202.383 102.838 203.862C106.672 206.678 110.584 209.357 115.106 211.096C118.713 212.484 122.32 213.192 126.147 212.659C126.796 212.568 127.412 212.225 128.048 211.998C127.614 211.517 127.244 210.947 126.738 210.557C124.565 208.877 122.976 206.847 122.073 204.181C120.945 200.833 120.984 197.524 121.866 194.196C122.164 193.054 123.358 191.9 123.17 190.946C122.943 189.811 121.561 188.954 120.86 187.865C118.59 184.342 118.363 180.352 118.765 176.375C118.953 174.533 119.375 172.593 120.802 171.069C121.827 169.972 121.671 168.649 121.263 167.196C119.284 160.228 120.348 153.987 126.173 149.154C127.05 148.427 127.27 147.649 127.166 146.793C126.608 142.394 128.463 138.761 131.13 135.673C134.685 131.56 139.557 129.718 144.909 129.114C149.042 128.647 153.129 128.926 157.222 129.659C161.011 130.341 164.677 130.405 167.44 126.863C168.465 125.546 171.398 125.702 172.591 126.798C174.168 128.245 174.726 131.19 173.629 132.708C170.483 137.036 166.065 138.761 160.881 138.69C159.13 138.664 157.372 138.346 155.639 138.034C152.123 137.392 148.581 137.347 145.078 137.931C141.782 138.482 138.759 139.767 136.495 142.42C134.172 145.138 134.77 147.623 138.13 148.765C139.947 149.381 141.795 149.919 143.676 150.289C148.627 151.256 153.602 152.112 158.565 152.995C159.545 153.17 160.544 153.312 161.536 153.351C168.731 153.63 174.829 150.789 180.435 146.624C181.051 146.163 181.602 145.326 181.758 144.574C182.763 139.773 183.406 134.894 182.284 130.068C181.68 127.473 180.195 125.176 177.8 123.665C174.81 121.777 171.495 120.778 168.024 120.551C163.373 120.214 158.715 120.194 154.063 120.051ZM160.894 173.735C160.914 173.664 160.92 173.592 160.94 173.527C161.764 173.488 162.594 173.43 163.418 173.417C168.011 173.326 172.319 171.957 176.561 170.387C177.774 169.94 179.072 169.473 180.052 168.675C183.458 165.898 184.872 162.278 184.074 157.893C183.581 155.187 183.588 155.226 181.187 156.64C174.628 160.514 167.609 162.823 159.915 161.98C155.14 161.454 150.398 160.507 145.662 159.638C141.523 158.872 137.397 158.035 133.654 155.914C132.525 155.272 131.461 155.914 130.553 156.738C128.224 158.846 127.841 161.487 128.665 164.302C128.963 165.334 129.671 166.534 130.553 167.06C132.713 168.344 134.97 169.492 137.54 169.907C140.342 170.368 143.086 171.172 145.889 171.613C150.884 172.399 155.899 173.034 160.894 173.735ZM159.642 191.089C162.393 190.745 165.539 190.563 168.582 189.902C173.389 188.863 176.172 185.542 177.554 180.955C177.677 180.547 177.619 180.086 177.645 179.652C177.145 179.684 176.633 179.652 176.153 179.768C173.629 180.371 171.145 181.202 168.595 181.611C164.515 182.259 160.414 182.603 156.275 181.727C153.583 181.156 150.832 180.858 148.101 180.507C142.399 179.788 136.729 178.951 131.357 176.752C130.591 176.44 129.813 176.135 129.041 175.837C128.275 175.545 127.711 175.701 127.361 176.512C126.478 178.568 126.219 180.644 127.127 182.752C127.303 183.154 127.555 183.628 127.906 183.823C129.443 184.666 130.961 185.607 132.603 186.178C136.599 187.56 140.738 188.396 144.929 188.974C149.704 189.642 154.465 190.343 159.642 191.089ZM152.311 208.041C153.447 207.989 154.627 208.099 155.737 207.846C158.656 207.184 161.66 206.607 163.431 203.745C164.034 202.766 164.729 201.839 165.306 200.839C165.903 199.814 165.585 199.36 164.313 199.399C162.704 199.451 161.069 199.776 159.493 199.6C154.329 199.03 149.178 198.374 144.046 197.576C140.336 196.999 136.664 196.162 132.979 195.403C131.915 195.182 130.987 195.325 130.241 196.136C128.522 197.998 128.963 201.787 130.948 203.395C133.2 205.225 135.892 205.848 138.597 206.276C143.145 207.002 147.725 207.463 152.311 208.041Z" fill="#0FFD6A"/>
<path d="M175.166 35.1248C184.91 38.0961 192.799 43.7401 198.774 51.9792C199.78 53.361 200.584 54.9504 201.207 56.5463C202.413 59.6084 202.342 62.6186 200.305 65.4147C198.878 67.3739 197.347 69.2812 196.185 71.3963C193.318 76.5798 188.641 77.0335 183.659 76.1579C175.971 74.8083 169.425 70.9356 163.534 65.9856C159.804 62.8521 156.606 59.2321 154.582 54.6974C153.083 51.3369 152.616 48.1321 155.068 44.9468C156.541 43.0395 157.903 41.0154 159.104 38.9135C161.731 34.3139 165.837 33.263 170.658 33.9311C172.182 34.1322 173.662 34.7161 175.166 35.1248ZM182.465 70.4941C183.691 70.6174 185.235 70.8511 186.779 70.9032C190.574 71.0265 191.496 69.6575 189.964 66.2061C189.549 65.2589 189.03 64.3313 188.407 63.5139C182.536 55.9495 175.257 50.5066 165.753 48.2683C163.489 47.7364 161.076 46.8736 159.577 48.969C158.02 51.1423 159.739 53.3026 161.037 55.0996C166.383 62.4953 173.694 67.2246 182.465 70.4941ZM172.344 39.6271C171.189 39.5752 168.958 39.3027 166.752 39.4714C165.948 39.5363 165.228 40.6391 164.462 41.2684C165.111 41.7096 165.708 42.3583 166.428 42.5529C177.684 45.602 186.935 51.4926 193.422 61.373C193.604 61.6519 193.889 61.8725 194.149 62.1061C195.089 62.9494 195.712 62.4758 196.063 61.5352C196.964 59.1284 195.887 56.9421 194.577 55.2359C189.075 48.0737 182.011 42.9422 172.344 39.6271Z" fill="#0FFD6A"/>
</svg>
