<svg width="256" height="256" viewBox="0 0 256 256" fill="none" xmlns="http://www.w3.org/2000/svg">
<circle cx="128.5" cy="128.5" r="126.5" fill="white"/>
<path d="M142.653 114.075L154.083 121.525L113.355 148.165L101.924 140.717L142.653 114.075ZM256 128C256 198.692 198.692 256 128 256C57.3077 256 0 198.692 0 128C0 57.3077 57.3077 0 128 0C198.692 0 256 57.3077 256 128ZM207.568 111.551L177.485 91.2896L177.92 91.0065V53.0276C177.909 51.7201 177.381 50.47 176.453 49.5495C175.524 48.6289 174.27 48.1124 172.962 48.1124C171.996 48.1158 171.054 48.4119 170.26 48.9615L142.409 67.6636L86.2746 29.8547C85.4794 29.3017 84.5349 29.0034 83.5663 28.9994C82.2588 28.9994 81.0041 29.5158 80.0755 30.4364C79.1469 31.357 78.6195 32.6071 78.6081 33.9146V72.3402L107.453 91.136L48.4321 130.77C46.8011 131.867 45.4647 133.348 44.5407 135.082C43.6168 136.817 43.1335 138.752 43.1335 140.718C43.1335 142.683 43.6168 144.618 44.5407 146.353C45.4647 148.087 46.8011 149.568 48.4321 150.665L78.5362 170.94L78.0877 171.234V195.906C78.0976 199.093 79.3693 202.147 81.6248 204.399C83.8803 206.651 86.936 207.918 90.1233 207.923L90.1542 207.88C92.5221 207.877 94.8336 207.158 96.7846 205.816L113.564 194.552L113.586 194.567L113.6 194.558L158.674 224.917C160.629 226.267 162.949 226.992 165.325 226.995L165.343 227.002C168.464 226.981 171.46 225.773 173.723 223.624C174.892 222.511 175.819 221.17 176.449 219.684C177.078 218.198 177.394 216.598 177.379 214.984V189.877L148.528 171.08L207.568 131.446C209.199 130.349 210.535 128.868 211.459 127.134C212.383 125.399 212.866 123.464 212.866 121.499C212.866 119.533 212.383 117.598 211.459 115.864C210.535 114.129 209.199 112.648 207.568 111.551Z" fill="black"/>
</svg>
