<svg width="256" height="256" viewBox="0 0 256 256" fill="none" xmlns="http://www.w3.org/2000/svg">
<g clip-path="url(#clip0_1376_472)">
<path d="M128 256C198.692 256 256 198.692 256 128C256 57.3075 198.692 0 128 0C57.3075 0 0 57.3075 0 128C0 198.692 57.3075 256 128 256Z" fill="#2D2D2D"/>
<path d="M86.4545 120C85.9545 118.47 85.2955 117.098 84.4773 115.886C83.6742 114.659 82.7121 113.614 81.5909 112.75C80.4849 111.886 79.2273 111.227 77.8182 110.773C76.4091 110.318 74.8636 110.091 73.1818 110.091C70.4242 110.091 67.9167 110.803 65.6591 112.227C63.4015 113.652 61.6061 115.75 60.2727 118.523C58.9394 121.295 58.2727 124.697 58.2727 128.727C58.2727 132.758 58.947 136.159 60.2955 138.932C61.6439 141.705 63.4697 143.803 65.7727 145.227C68.0758 146.652 70.6667 147.364 73.5455 147.364C76.2121 147.364 78.5606 146.795 80.5909 145.659C82.6364 144.508 84.2273 142.886 85.3636 140.795C86.5152 138.689 87.0909 136.212 87.0909 133.364L88.8182 133.727H74.8182V128.727H92.5455V133.727C92.5455 137.561 91.7273 140.894 90.0909 143.727C88.4697 146.561 86.2273 148.758 83.3636 150.318C80.5152 151.864 77.2424 152.636 73.5455 152.636C69.4242 152.636 65.803 151.667 62.6818 149.727C59.5758 147.788 57.1515 145.03 55.4091 141.455C53.6818 137.879 52.8182 133.636 52.8182 128.727C52.8182 125.045 53.3106 121.735 54.2955 118.795C55.2955 115.841 56.7045 113.326 58.5227 111.25C60.3409 109.174 62.4924 107.583 64.9773 106.477C67.4621 105.371 70.197 104.818 73.1818 104.818C75.6364 104.818 77.9242 105.189 80.0455 105.932C82.1818 106.659 84.0833 107.697 85.75 109.045C87.4318 110.379 88.8333 111.977 89.9545 113.841C91.0758 115.689 91.8485 117.742 92.2727 120H86.4545ZM102.199 152V105.455H117.926C121.578 105.455 124.563 106.114 126.881 107.432C129.214 108.735 130.941 110.5 132.062 112.727C133.184 114.955 133.744 117.439 133.744 120.182C133.744 122.924 133.184 125.417 132.062 127.659C130.956 129.902 129.244 131.689 126.926 133.023C124.608 134.341 121.638 135 118.017 135H106.744V130H117.835C120.335 130 122.343 129.568 123.858 128.705C125.373 127.841 126.472 126.674 127.153 125.205C127.85 123.72 128.199 122.045 128.199 120.182C128.199 118.318 127.85 116.652 127.153 115.182C126.472 113.712 125.366 112.561 123.835 111.727C122.305 110.879 120.275 110.455 117.744 110.455H107.835V152H102.199ZM140.278 110.455V105.455H175.188V110.455H160.551V152H154.915V110.455H140.278ZM203.136 124.909L198.318 126.273C198.015 125.47 197.568 124.689 196.977 123.932C196.402 123.159 195.614 122.523 194.614 122.023C193.614 121.523 192.333 121.273 190.773 121.273C188.636 121.273 186.856 121.765 185.432 122.75C184.023 123.72 183.318 124.955 183.318 126.455C183.318 127.788 183.803 128.841 184.773 129.614C185.742 130.386 187.258 131.03 189.318 131.545L194.5 132.818C197.621 133.576 199.947 134.735 201.477 136.295C203.008 137.841 203.773 139.833 203.773 142.273C203.773 144.273 203.197 146.061 202.045 147.636C200.909 149.212 199.318 150.455 197.273 151.364C195.227 152.273 192.848 152.727 190.136 152.727C186.576 152.727 183.629 151.955 181.295 150.409C178.962 148.864 177.485 146.606 176.864 143.636L181.955 142.364C182.439 144.242 183.356 145.652 184.705 146.591C186.068 147.53 187.848 148 190.045 148C192.545 148 194.53 147.47 196 146.409C197.485 145.333 198.227 144.045 198.227 142.545C198.227 141.333 197.803 140.318 196.955 139.5C196.106 138.667 194.803 138.045 193.045 137.636L187.227 136.273C184.03 135.515 181.682 134.341 180.182 132.75C178.697 131.144 177.955 129.136 177.955 126.727C177.955 124.758 178.508 123.015 179.614 121.5C180.735 119.985 182.258 118.795 184.182 117.932C186.121 117.068 188.318 116.636 190.773 116.636C194.227 116.636 196.939 117.394 198.909 118.909C200.894 120.424 202.303 122.424 203.136 124.909Z" fill="white"/>
</g>
<defs>
<clipPath id="clip0_1376_472">
<rect width="256" height="256" fill="white"/>
</clipPath>
</defs>
</svg>
