<svg width="257" height="251" viewBox="0 0 257 251" fill="none" xmlns="http://www.w3.org/2000/svg">
<path d="M127.174 3.28125C127.174 3.28125 127.124 3.28125 127.108 3.28125C127.059 3.28125 127.026 3.28125 126.977 3.28125C120.655 3.28125 114.448 3.77344 108.355 4.7086C108.044 4.75782 107.733 4.82344 107.422 4.87266C105.735 5.15157 104.064 5.43048 102.394 5.77501C101.837 5.88985 101.297 6.0211 100.756 6.13595C99.3477 6.44767 97.9392 6.75939 96.5635 7.10392C95.8592 7.28439 95.155 7.48126 94.4507 7.67814C93.2388 8.00626 92.0268 8.3508 90.8312 8.71174C90.0287 8.95783 89.2426 9.22033 88.4565 9.48283C87.3592 9.84377 86.2782 10.2047 85.1973 10.5985C84.3784 10.8938 83.5595 11.2055 82.7406 11.5336C81.7088 11.9274 80.6606 12.3375 79.6289 12.7641C78.8263 13.0922 78.0402 13.4367 77.2541 13.7813C76.2059 14.2407 75.1577 14.7164 74.1259 15.2086C73.4217 15.5368 72.7174 15.8977 72.0132 16.2422C70.8831 16.8 69.7531 17.3743 68.6557 17.9649C68.0989 18.2602 67.5421 18.5719 66.9852 18.8836C65.7077 19.5891 64.4467 20.3274 63.1856 21.0657C62.8416 21.279 62.4813 21.4922 62.1374 21.7055C60.6306 22.6243 59.1403 23.5758 57.6826 24.5602C57.6171 24.6094 57.5516 24.6587 57.4861 24.6915C26.5649 45.5275 5.37203 79.6034 3.42308 118.125C3.09552 124.721 3.35756 131.185 4.1437 137.468C10.5147 199.812 62.7106 247.702 127.747 247.702C196.386 247.702 255.215 187.885 253.708 125.295C252.087 57.9306 195.829 3.28125 127.174 3.28125Z" fill="#EE7325"/>
<path d="M127.174 3.28125C127.174 3.28125 127.124 3.28125 127.108 3.28125C127.059 3.28125 127.026 3.28125 126.977 3.28125C120.655 3.28125 114.448 3.77344 108.355 4.7086C108.044 4.75782 107.733 4.82344 107.422 4.87266C105.735 5.15157 104.064 5.43048 102.394 5.77501C101.837 5.88985 101.297 6.0211 100.756 6.13595C99.3477 6.44767 97.9392 6.75939 96.5635 7.10392C95.8592 7.28439 95.155 7.48126 94.4507 7.67814C93.2388 8.00626 92.0268 8.3508 90.8312 8.71174C90.0287 8.95783 89.2426 9.22033 88.4565 9.48283C87.3592 9.84377 86.2782 10.2047 85.1973 10.5985C84.3784 10.8938 83.5595 11.2055 82.7406 11.5336C81.7088 11.9274 80.6606 12.3375 79.6289 12.7641C78.8263 13.0922 78.0402 13.4367 77.2541 13.7813C76.2059 14.2407 75.1577 14.7164 74.1259 15.2086C73.4217 15.5368 72.7174 15.8977 72.0132 16.2422C70.8831 16.8 69.7531 17.3743 68.6557 17.9649C68.0989 18.2602 67.5421 18.5719 66.9852 18.8836C65.7077 19.5891 64.4467 20.3274 63.1856 21.0657C62.8416 21.279 62.4813 21.4922 62.1374 21.7055C60.6306 22.6243 59.1403 23.5758 57.6826 24.5602C57.6171 24.6094 57.5516 24.6587 57.4861 24.6915C26.5649 45.5275 5.37203 79.6034 3.42308 118.125C3.09552 124.721 3.35756 131.185 4.1437 137.468C10.5147 199.812 62.7106 247.702 127.747 247.702C196.386 247.702 255.215 187.885 253.708 125.295C252.087 57.9306 195.829 3.28125 127.174 3.28125Z" stroke="#A02900" stroke-width="4" stroke-miterlimit="10"/>
<path fill-rule="evenodd" clip-rule="evenodd" d="M129.482 41.0651C176.356 41.0651 212.485 77.766 210.159 123.015C207.834 168.28 167.954 204.964 121.081 204.964C74.2073 204.964 38.078 168.263 40.4036 123.015C42.7293 77.7496 82.6091 41.0651 129.482 41.0651Z" fill="#FEC33E"/>
<path fill-rule="evenodd" clip-rule="evenodd" d="M128.058 4.16724C63.0378 4.16724 7.69734 55.5846 4.4873 119.011C1.27726 182.438 51.3932 233.855 116.413 233.855C181.433 233.855 236.773 182.438 239.983 119.011C243.21 55.5846 193.094 4.16724 128.058 4.16724ZM208.112 117.371C205.721 164.047 164.596 201.863 116.266 201.863C67.9348 201.863 30.6917 164.03 33.0829 117.371C35.474 70.6948 76.5986 32.8783 124.929 32.8783C173.26 32.8783 210.503 70.7112 208.112 117.371Z" fill="#FAE25A"/>
<path fill-rule="evenodd" clip-rule="evenodd" d="M178.583 107.921C178.272 107.822 177.928 107.74 177.584 107.724L128.86 105.46C127.108 105.378 125.519 106.493 124.962 108.183L120.524 121.768C120.376 122.194 120.245 122.621 120.114 123.031L119.82 123.933C119.721 124.245 119.656 124.54 119.639 124.852C119.59 125.131 119.541 125.393 119.508 125.639C119.033 129.216 127.091 135.893 129.548 136.205L133.102 136.665C132.856 136.96 132.578 137.222 132.234 137.468C128.926 139.716 124.307 141.652 118.313 141.488C114.071 141.373 109.731 139.782 106.046 137.075C102.426 131.152 101.182 123.408 104.523 114.943C113.743 91.5472 142.863 98.8972 150.724 101.358C151.969 101.752 153.328 101.506 154.36 100.669L176.831 84.4104C178.829 82.7862 178.321 80.1448 176.765 78.094C175.324 76.2237 173.555 74.0416 171.082 71.9252C170.853 71.6135 170.607 71.3182 170.279 71.0557C163.565 65.9205 145.68 56.4705 123.406 56.2244C90.5361 55.8471 61.1052 78.3237 57.5021 113.072C56.9289 118.536 57.1418 123.851 58.059 128.921C61.5147 158.715 91.8136 182.947 127.353 182.126C176.945 180.978 186.166 133.843 187.836 119.225C188.082 117.01 183.742 109.02 178.632 107.921H178.583Z" fill="#EE7325" stroke="#EE7325" stroke-width="3" stroke-miterlimit="10"/>
<path fill-rule="evenodd" clip-rule="evenodd" d="M147.842 93.6308L170.312 77.3721C172.31 75.7479 172.294 72.6307 170.247 71.0557C163.532 65.9205 145.647 56.4705 123.373 56.2244C90.5033 55.8471 61.0724 78.3237 57.4693 113.072C53.8989 147.558 81.086 176.007 120.835 175.088C170.427 173.94 179.647 126.804 181.318 112.186C181.58 109.873 179.877 107.822 177.6 107.724L128.876 105.46C127.124 105.378 125.535 106.493 124.978 108.183L119.819 123.933C119.033 126.329 120.606 128.855 123.062 129.167L130.58 130.118C134.216 130.578 135.28 135.385 132.234 137.452C128.925 139.7 124.307 141.636 118.313 141.472C104.981 141.127 90.8144 126.197 98.037 107.888C107.258 84.4925 136.377 91.8425 144.239 94.3034C145.483 94.6972 146.843 94.4511 147.875 93.6144L147.842 93.6308Z" fill="#FAE25A"/>
<path d="M128.058 7.44849C64.8558 7.44849 10.8911 57.5697 7.76291 119.175C6.23977 149.117 16.7379 176.975 37.3412 198.024C42.9915 192.167 48.7565 186.326 54.5378 180.617C37.5541 164.063 28.5791 141.143 29.8074 117.207C32.2804 68.8901 74.9445 29.597 124.929 29.597C154.999 29.597 181.99 43.7392 197.811 67.5776C204.968 63.2955 212.239 59.1611 219.478 55.2564C199.579 25.2493 165.677 7.44849 128.058 7.44849Z" fill="#FFEF94"/>
<path d="M129.155 108.101C128.516 108.101 127.926 108.561 127.714 109.233L124.078 120.34C129.237 116.403 134.428 112.482 139.637 108.593L129.22 108.118H129.155V108.101Z" fill="#FFEF94"/>
<path d="M123.325 59.5221C123.063 59.5221 122.8 59.5221 122.555 59.5221C89.9631 59.5221 63.9552 82.1956 60.7124 113.417C59.0418 129.577 64.5939 144.851 75.9928 155.778C83.4447 149.035 91.306 142.21 99.4458 135.45C93.8282 128.921 90.2415 118.667 94.9583 106.707C99.7897 94.4675 110.288 87.987 125.339 87.987C133.724 87.987 141.373 90.005 145.189 91.2027C145.254 91.2191 145.32 91.2355 145.385 91.2355C145.484 91.2355 145.631 91.2191 145.762 91.1042L145.828 91.0386L145.91 90.9894L168.265 74.8128C168.478 74.6159 168.494 74.3698 168.494 74.2385C168.494 74.0745 168.445 73.8448 168.232 73.6807C161.501 68.5292 144.468 59.7518 123.308 59.5221H123.325Z" fill="#FFEF94"/>
</svg>
