<svg width="256" height="256" viewBox="0 0 256 256" fill="none" xmlns="http://www.w3.org/2000/svg">
<g clip-path="url(#clip0_2109_10789)">
<path d="M256 128C256 57.3076 198.692 0 128 0C57.3076 0 0 57.3076 0 128C0 198.692 57.3076 256 128 256C198.692 256 256 198.692 256 128Z" fill="#542FE8"/>
<path fill-rule="evenodd" clip-rule="evenodd" d="M80.9926 99.1743L57.6471 75.8236C46.5809 90.4959 40 108.735 40 128.519C40 148.302 46.1765 165.475 56.6912 179.927L80.147 156.466C75.2941 148.266 72.5367 138.741 72.5367 128.519C72.5367 117.744 75.6249 107.669 80.9926 99.2109V99.1743ZM98.603 81.7072C106.985 76.5224 116.912 73.507 127.5 73.507C138.088 73.507 147.243 76.3017 155.441 81.1188L178.897 57.6581C164.449 47.1778 146.691 41 127.5 41C108.309 41 89.7794 47.4352 75.2206 58.3567L98.603 81.7441V81.7072ZM197.647 180.773C208.53 166.174 215 148.082 215 128.482C215 108.882 208.162 89.7237 196.691 74.9043L173.382 98.2181C179.118 106.896 182.463 117.303 182.463 128.482C182.463 139.073 179.449 149.001 174.265 157.385L197.647 180.773ZM156.802 174.999C148.309 180.368 138.272 183.457 127.5 183.457C116.728 183.457 105.919 180.111 97.2427 174.374L73.9338 197.688C88.75 209.162 107.316 216 127.5 216C147.684 216 165.515 209.418 180.184 198.35L156.838 174.999H156.802Z" fill="white"/>
</g>
<defs>
<clipPath id="clip0_2109_10789">
<rect width="256" height="256" fill="white"/>
</clipPath>
</defs>
</svg>
