<svg width="256" height="256" viewBox="0 0 256 256" fill="none" xmlns="http://www.w3.org/2000/svg">
<g clip-path="url(#clip0_2537_854)">
<mask id="mask0_2537_854" style="mask-type:luminance" maskUnits="userSpaceOnUse" x="0" y="0" width="256" height="256">
<path d="M256 0H0V256H256V0Z" fill="white"/>
</mask>
<g mask="url(#mask0_2537_854)">
<path d="M256 128C256 57.3075 198.692 0 128 0C57.3075 0 0 57.3075 0 128C0 198.692 57.3075 256 128 256C198.692 256 256 198.692 256 128Z" fill="#02E2AC"/>
</g>
<path d="M197.399 100.104C196.981 99.3856 196.545 98.664 196.103 97.9569C194.864 95.9819 193.521 94.0478 192.107 92.2071C185.391 83.448 176.658 76.1585 166.857 71.1275C156.59 65.8597 145.498 63.0959 133.887 62.9206C133.129 62.9089 132.508 62.2866 132.508 61.5328V51.0061C132.508 47.2605 129.455 44.2133 125.702 44.2133C121.949 44.2133 118.895 47.2605 118.895 51.0061V63.052C118.895 63.7094 118.424 64.2791 117.777 64.4106C113.872 65.2024 110.008 66.3155 106.287 67.7208C106.126 67.7822 105.962 67.8114 105.795 67.8114C105.031 67.8114 104.407 67.1891 104.407 66.4236V51.0061C104.407 47.2605 101.354 44.2133 97.6008 44.2133C93.8477 44.2133 90.7943 47.2605 90.7943 51.0061V74.4202C90.7943 75.2499 90.3845 76.0329 89.6936 76.5208C80.1411 83.2494 72.1959 92.2393 66.7156 102.518C61.0567 113.129 58.0443 125.134 58.0033 137.236C57.9711 147.216 59.9325 156.93 63.832 166.11C67.5909 174.957 72.9834 182.93 79.8542 189.811C86.8071 196.773 94.9045 202.248 103.924 206.081C113.257 210.049 123.134 212.062 133.281 212.062H188.936C191.398 212.062 193.401 210.063 193.401 207.606V170.44C193.401 168.488 192.411 166.706 190.751 165.669L187.636 163.726L187.469 163.624L175.833 156.364L175.616 156.229L160.905 147.055C159.963 146.468 159.509 145.349 159.778 144.274C160.331 142.068 160.612 139.786 160.612 137.49C160.612 135.193 160.331 132.909 159.778 130.706C159.509 129.63 159.963 128.511 160.905 127.924L175.616 118.75L175.833 118.616L187.469 111.356L187.636 111.253L195.889 106.105C197.944 104.823 198.606 102.19 197.397 100.11L197.399 100.104ZM179.307 99.3593C179.199 100.104 178.769 100.759 178.131 101.156L168.394 107.23L155.091 115.528C154.312 116.013 153.414 116.27 152.497 116.27C151.435 116.27 150.381 115.916 149.532 115.276C144.663 111.601 138.852 109.658 132.728 109.658H132.576C125.269 109.696 118.363 112.568 113.128 117.742C107.894 122.917 104.952 129.782 104.846 137.072C104.738 144.586 107.587 151.671 112.868 157.018C118.149 162.368 125.204 165.313 132.728 165.313C138.864 165.313 144.684 163.361 149.558 159.674C150.404 159.034 151.414 158.695 152.483 158.695C153.405 158.695 154.307 158.952 155.091 159.443L168.394 167.74L178.309 173.926C179.234 174.504 179.788 175.5 179.788 176.59V195.92C179.788 197.328 178.637 198.476 177.226 198.476H133.27C125.043 198.476 117.025 196.855 109.437 193.658C102.103 190.57 95.5018 186.158 89.8136 180.543C84.1138 174.919 79.6376 168.389 76.5052 161.132C73.2527 153.6 71.6074 145.624 71.6162 137.425C71.625 129.23 73.2351 121.275 76.4027 113.786C79.4619 106.552 83.8386 100.052 89.4155 94.4626C89.5677 94.3078 89.7697 94.2231 89.9834 94.2231C90.4313 94.2231 90.7943 94.5853 90.7943 95.0294V102.424C90.7943 106.17 93.8477 109.217 97.6008 109.217C101.354 109.217 104.407 106.17 104.407 102.424V85.0024C104.407 84.0324 104.969 83.1325 105.842 82.7059C114.252 78.5864 123.301 76.4974 132.731 76.4974C142.16 76.4974 150.322 78.3877 158.39 82.1187C166.186 85.7211 173.019 90.831 178.704 97.3025C179.199 97.8664 179.422 98.6172 179.313 99.3622L179.307 99.3593ZM146.991 137.978C146.903 140.484 146.156 142.924 144.833 145.036C143.507 147.155 141.639 148.893 139.432 150.064C137.383 151.154 135.067 151.73 132.731 151.73C124.862 151.73 118.459 145.34 118.459 137.487C118.459 129.633 124.862 123.244 132.731 123.244C135.067 123.244 137.383 123.819 139.432 124.909C141.639 126.084 143.507 127.822 144.833 129.937C146.159 132.05 146.906 134.489 146.991 136.987V137.978Z" fill="black"/>
<path d="M175.934 118.844C178.49 124.737 179.787 131.009 179.787 137.487C179.787 143.964 178.49 150.237 175.934 156.13L175.832 156.364L187.469 163.624L187.554 163.449C191.433 155.306 193.4 146.57 193.4 137.487C193.4 128.403 191.433 119.668 187.554 111.525L187.469 111.35L175.832 118.61L175.934 118.844Z" fill="black"/>
</g>
<defs>
<clipPath id="clip0_2537_854">
<rect width="256" height="256" fill="white"/>
</clipPath>
</defs>
</svg>
