<svg width="256" height="256" viewBox="0 0 256 256" fill="none" xmlns="http://www.w3.org/2000/svg">
<g clip-path="url(#clip0_1831_637)">
<path d="M128 256C198.656 256 256 198.656 256 128C256 57.344 198.656 0 128 0C57.3439 0 -0.000118932 57.344 -0.000118932 128C-0.256119 198.4 56.8319 255.744 127.488 256C127.488 256 127.744 256 128 256Z" fill="black"/>
<path d="M163.328 148.224C163.328 129.536 152.064 123.136 129.792 120.576C113.92 118.528 110.592 114.176 110.592 106.752C110.592 99.3279 115.968 94.4639 126.464 94.4639C136.192 94.4639 141.312 97.5359 144.128 105.728C144.64 107.264 146.176 108.288 147.968 108.288H156.16C158.208 108.288 159.744 106.752 160 104.704C160 104.704 160 104.704 160 104.448V103.936C157.952 92.1599 147.968 83.1999 135.936 82.1759V69.3759C135.936 67.3279 134.4 65.5359 131.584 65.0239H123.648C121.6 65.0239 119.808 66.5599 119.296 69.3759V81.6639C103.424 83.7119 93.184 94.4639 93.184 107.776C93.184 125.44 103.936 132.352 126.208 134.912C141.056 137.472 145.92 140.8 145.92 149.248C145.92 157.696 138.752 163.84 128.512 163.84C114.688 163.84 109.824 157.952 108.288 150.016C108.032 148.224 106.496 146.944 104.448 146.944H95.4879C93.4399 146.944 91.9039 148.48 91.6479 150.528C91.6479 150.528 91.6479 150.528 91.6479 150.784V151.04C93.6959 164.352 102.4 174.08 119.808 176.64V189.44C119.808 191.488 121.344 193.28 124.16 193.792H132.096C134.144 193.792 135.936 192.256 136.448 189.44V176.64C152.576 173.824 163.328 162.56 163.328 148.224Z" fill="white"/>
<path d="M100.864 204.288C59.3918 189.184 38.1438 143.36 53.5038 101.888C61.6958 79.872 78.8478 62.464 100.864 54.528C102.912 53.504 104.192 51.456 103.936 49.152V41.728C104.192 39.68 102.656 37.888 100.864 37.376C100.096 37.376 99.3278 37.376 98.8158 37.888C48.1278 54.016 20.2238 107.776 36.3518 158.464C45.8238 188.16 69.1198 211.456 98.8158 220.928C100.352 221.952 102.4 221.184 103.168 219.648C103.424 219.392 103.424 219.136 103.424 218.624C103.936 218.112 103.936 217.6 103.936 216.576V209.152C103.68 207.104 102.4 205.312 100.864 204.288ZM157.44 37.888C155.904 36.864 153.856 37.632 153.088 39.168C152.832 39.424 152.832 39.68 152.832 40.192C152.32 40.704 152.32 41.216 152.32 42.24V49.664C152.576 51.968 153.6 53.76 155.392 55.04C196.864 70.144 218.112 115.968 202.752 157.44C194.56 179.456 177.152 196.608 155.136 204.8C153.088 205.824 151.808 207.872 152.064 210.176V217.6C151.808 219.648 153.344 221.44 155.136 221.952C155.904 221.952 156.672 221.952 157.184 221.44C207.872 205.056 235.776 150.784 219.392 100.096C209.92 70.4 186.88 47.36 157.44 37.888Z" fill="white"/>
</g>
<defs>
<clipPath id="clip0_1831_637">
<rect width="256" height="256" fill="white"/>
</clipPath>
</defs>
</svg>
