<svg width="256" height="256" viewBox="0 0 256 256" fill="none" xmlns="http://www.w3.org/2000/svg">
<g clip-path="url(#clip0_2537_865)">
<mask id="mask0_2537_865" style="mask-type:luminance" maskUnits="userSpaceOnUse" x="0" y="0" width="256" height="256">
<path d="M256 0H0V256H256V0Z" fill="white"/>
</mask>
<g mask="url(#mask0_2537_865)">
<path d="M256 128C256 57.3075 198.692 0 128 0C57.3075 0 0 57.3075 0 128C0 198.692 57.3075 256 128 256C198.692 256 256 198.692 256 128Z" fill="#0A0918"/>
</g>
<path fill-rule="evenodd" clip-rule="evenodd" d="M48.2113 91.9867C51.5617 96.5089 58.4075 98.3755 72.3955 105.55C113.073 126.415 115.867 167.417 117.786 195.573C117.946 197.925 118.101 200.189 118.271 202.343C119.829 222.131 120.691 226.496 127.838 226.611C127.887 226.611 127.937 226.613 127.986 226.612C128.036 226.613 128.085 226.613 128.136 226.613C135.282 226.499 136.144 222.131 137.703 202.343C137.872 200.189 138.027 197.925 138.187 195.573C140.106 167.417 142.9 126.415 183.578 105.55C197.566 98.3755 204.411 96.5089 207.762 91.9867C210.973 87.6523 210.973 80.8785 210.973 64.6528C210.973 40.1914 183.578 52.1545 170.071 59.3048C168.92 60.0501 167.716 60.766 166.469 61.5085C155.513 68.0259 141.11 76.5951 127.986 125.115C114.863 76.5951 100.46 68.0259 89.5049 61.5085C88.2567 60.766 87.0535 60.0501 85.902 59.3048C72.3955 52.1545 45 40.1914 45 64.6528C45 80.8785 45 87.6523 48.2113 91.9867Z" fill="url(#paint0_linear_2537_865)"/>
</g>
<defs>
<linearGradient id="paint0_linear_2537_865" x1="126.486" y1="59.0236" x2="126.486" y2="226.613" gradientUnits="userSpaceOnUse">
<stop stop-color="#178CF8"/>
<stop offset="1" stop-color="#0A13DE"/>
</linearGradient>
<clipPath id="clip0_2537_865">
<rect width="256" height="256" fill="white"/>
</clipPath>
</defs>
</svg>
