<svg width="256" height="256" viewBox="0 0 256 256" fill="none" xmlns="http://www.w3.org/2000/svg">
<g clip-path="url(#clip0_2113_10812)">
<path d="M256 128C256 57.3076 198.692 0 128 0C57.3076 0 0 57.3076 0 128C0 198.692 57.3076 256 128 256C198.692 256 256 198.692 256 128Z" fill="#1B2121"/>
<path d="M128 21C187.107 21 235.001 68.8933 235.001 128C235.001 187.107 187.107 235.001 128 235.001C68.8933 235.001 21 187.107 21 128C21 68.8933 68.8933 21 128 21ZM128 25.4598C71.3586 25.4598 25.4598 71.3586 25.4598 127.996C25.4598 184.642 71.3586 230.545 127.996 230.545C184.642 230.545 230.545 184.642 230.545 127.996C230.545 71.3586 184.646 25.4598 128 25.4598Z" fill="white"/>
<path d="M44.7803 128C44.7803 173.968 82.0335 211.221 127.997 211.221C173.968 211.221 211.221 173.968 211.221 127.996C211.221 82.033 173.968 44.7798 128.001 44.7798C82.0335 44.7798 44.7846 82.033 44.7846 127.996L44.7803 128Z" fill="url(#paint0_linear_2113_10812)"/>
<path d="M189.992 109.87C189.912 110.144 189.806 110.409 189.675 110.662C189.513 111.45 189.003 112.802 188.254 114.518L187.24 116.748L186.033 119.265L184.672 121.991L183.187 124.859L181.629 127.791L180.024 130.722L178.419 133.573L176.848 136.278L175.35 138.76L173.963 140.952L173.326 141.915L172.183 143.528C171.89 143.923 171.577 144.303 171.245 144.667L170.869 145.039L165.6 149.529L191.409 162.493C178.919 184.492 155.315 199.335 128.253 199.335C100.818 199.335 76.9354 184.086 64.5918 161.581L89.8653 149.499L84.4511 145.039C84.0059 144.654 83.4153 143.913 82.7177 142.903L81.6006 141.2L79.696 138.02L78.3178 135.58L76.8926 132.957L75.4502 130.209L74.0207 127.405L72.6339 124.602L71.3243 121.871L70.1173 119.269L69.0473 116.864L68.1485 114.711L67.4423 112.879C67.2675 112.401 67.109 111.917 66.9672 111.428C66.7832 111.171 66.6248 110.915 66.4921 110.645C71.1145 113.782 80.2823 116.859 92.2835 119.025L95.9686 119.646C97.8518 119.941 99.7949 120.211 101.789 120.459L105.855 120.921C109.99 121.345 114.326 121.662 118.815 121.841L121.298 121.927L123.814 121.987L127.709 122.021L131.613 121.987L136.004 121.867C160.083 120.955 179.78 116.217 188.057 111.21L188.871 110.688L189.992 109.87ZM94.141 126.845L95.7118 132.541C96.7561 135.897 97.9502 139.09 99.3669 142.326L100.48 144.765L103.065 149.867C103.364 150.47 103.771 151.005 104.285 151.493L104.832 151.96L107.015 153.582C110.739 156.094 114.869 157.888 119.757 159.214L121.627 159.694L126.78 160.708L127.756 160.802H128.514L129.49 160.708L134.797 159.66C139.736 158.474 143.999 156.835 147.945 154.421L149.409 153.479L151.489 151.921C152.024 151.515 152.482 151.031 152.858 150.466L153.201 149.88L155.855 144.641C157.344 141.465 158.628 138.311 159.771 134.955L160.601 132.4L162.065 127.084C158.898 133.119 152.615 137.399 145.026 138.14L143.982 138.217L142.869 138.088C140.143 137.723 137.519 136.808 135.158 135.398C132.796 133.989 130.745 132.114 129.13 129.888L128.522 128.989L128.197 128.441L127.564 129.426C124.482 133.86 119.594 136.954 113.825 137.947L112.656 138.118L111.595 138.225L110.589 138.14C103.275 137.352 97.1285 132.961 94.141 126.845ZM128.103 64.5876C132.143 64.5876 137.313 67.3782 144.581 72.8909L147.825 75.4246L149.195 76.5332L153.128 79.786L163.606 88.6756L172.38 91.0167L174.657 91.6587L176.668 92.2537L178.295 92.7587L180.452 93.4777L181.736 93.9485L182.866 94.3894C187.878 96.4224 190.364 98.5924 190.364 101.469L190.326 102.059L190.206 102.641L189.08 103.514C183.525 107.456 171.554 111.313 156.039 113.555L151.275 114.176L146.323 114.689C142.959 114.998 139.475 115.224 135.893 115.366L131.634 115.49L127.726 115.524L123.814 115.49L121.289 115.426C95.3736 114.63 74.2175 109.134 66.3038 103.472C66.0024 102.847 65.8445 102.162 65.8416 101.469C65.8416 98.2928 68.508 95.7247 74.316 93.4521C73.3872 92.4719 72.9635 91.5774 71.8336 90.8413C73.5884 88.8296 76.8326 87.1733 79.0582 86.8608C83.4838 86.1247 86.2059 87.4386 89.189 87.6826C86.8778 86.6896 82.4309 82.3583 80.8644 80.3895C78.9983 76.1736 80.3337 72.5485 81.4722 70.5369L81.7118 70.1303L82.1185 69.5097L82.6064 68.8505L82.906 68.8163L84.1643 68.7863C86.0561 68.7992 89.1419 69.0517 90.2548 70.2929C92.0738 72.878 92.9383 75.5231 93.4819 77.8771L93.9398 80.1241C94.278 81.8917 94.539 83.3769 95.0954 84.3699L95.425 83.0859L95.9429 80.5778C96.2944 78.6839 96.9445 76.8578 97.8689 75.1678C99.8206 71.6325 106.609 66.7876 111.419 67.7506L111.556 68.5253L112.083 70.4299C112.211 71.0462 112.241 71.7053 111.997 72.6041C119.064 67.2841 124.144 64.5876 128.103 64.5876Z" fill="#1B2020"/>
</g>
<defs>
<linearGradient id="paint0_linear_2113_10812" x1="44.7799" y1="8367" x2="16688.9" y2="16688.9" gradientUnits="userSpaceOnUse">
<stop stop-color="#6BBAAD"/>
<stop offset="1" stop-color="#CDCE69"/>
</linearGradient>
<clipPath id="clip0_2113_10812">
<rect width="256" height="256" fill="white"/>
</clipPath>
</defs>
</svg>
