<svg width="256" height="256" viewBox="0 0 256 256" fill="none" xmlns="http://www.w3.org/2000/svg">
<g clip-path="url(#clip0_2551_382)">
<path d="M128 256C198.692 256 256 198.692 256 128C256 57.3078 198.692 0 128 0C57.3078 0 0 57.3078 0 128C0 198.692 57.3078 256 128 256Z" fill="#E5E7EB"/>
<mask id="mask0_2551_382" style="mask-type:alpha" maskUnits="userSpaceOnUse" x="0" y="0" width="256" height="256">
<path d="M128 256C198.692 256 256 198.692 256 128C256 57.3078 198.692 0 128 0C57.3078 0 0 57.3078 0 128C0 198.692 57.3078 256 128 256Z" fill="#E5E7EB"/>
</mask>
<g mask="url(#mask0_2551_382)">
<g opacity="0.3">
<path d="M41.2159 164.395L40.9194 165.24L31.2222 213.281L28.746 250.513L27.9453 262.568L28.7312 274.638L31.1333 311.691L40.7267 359.228L44.3742 369.519L56.5624 403.77L78.3882 443.834L105.775 477.892L138.128 504.375L147.351 501.498L185.74 517.778L198.921 519.617" stroke="#010101" stroke-width="0.2" stroke-linecap="round" stroke-linejoin="round"/>
<path d="M36.04 213.768L40.1028 197.146L47.6203 166.438L48.5693 164.215L61.6175 133.907L66.5847 122.386L76.5336 107.321L87.4467 90.8187L92.3996 83.3159" stroke="#010101" stroke-width="0.2" stroke-linecap="round" stroke-linejoin="round"/>
<path d="M239.548 7.92114L202.123 11.6428L161.332 26.5L124.323 50.8319L105.803 69.6779L100.303 75.2823L92.3998 83.3187L88.9303 81.7321L84.4523 80.2345L78.9806 78.8259L72.5901 77.5216L65.3395 76.3649L57.303 75.3416L48.5992 74.4968L39.332 73.8143L29.62 73.3401L19.6115 73.0585L9.45468 72.9992L-0.731853 73.1326L-10.7849 73.4586L-20.5562 73.9922L-29.9272 74.7191L-38.7643 75.6232L-46.9343 76.691L-68.7159 40.0523L-94.679 10.5308L-107.949 13.5111L-119.471 16.7583L-129.138 20.2279L-136.863 23.8607L-142.646 27.5972L-146.471 31.3782L-148.399 35.1741L-148.473 38.9106L-146.782 42.5581L-137.96 47.392L-131.199 51.084L-124.23 54.9095L-122.05 56.0957L-117.009 58.8536L-112.457 61.3446L-111.226 62.0267L-109.032 64.5177L-107.43 65.9559L-104.035 68.9955L-103.828 69.1733L-93.6556 78.0403L-92.1729 79.1378L-85.1598 85.6617L-80.281 89.3684L-77.6274 92.6303L-66.7439 107.695L-60.5608 116.236L-53.7698 125.637L-52.628 127.609L-49.0695 134.251L-38.7791 155.825" stroke="#010101" stroke-width="0.2" stroke-linecap="round" stroke-linejoin="round"/>
<path d="M154.246 48.4706L160.162 47.0916L173.344 44.052L188.957 40.4341L223.891 42.2727L257.505 53.675L288.39 73.9293L302.773 68.0279L331.968 96.423L355.885 131.816L373.56 172.651L384.324 217.178L387.735 263.543L383.701 309.82L372.403 354.125L358.169 385.929L354.284 394.604L330.085 429.567L316.296 442.704L300.742 457.531L286.507 452.609L270.138 448.057L251.944 443.89L232.194 440.109L211.124 436.728L188.972 433.733L165.93 431.109L142.146 428.87L117.8 427.017L93.0085 425.519L88.3379 425.312" stroke="#010101" stroke-width="0.2" stroke-linecap="round" stroke-linejoin="round"/>
<path d="M188.822 -25.1448L220.361 -10.347L232.846 1.90054L238.391 7.34223L239.547 7.92052L247.435 11.835L250.638 13.4215L252.551 14.3705L268.654 22.3625L284.371 25.2539L289.234 32.4304L292.141 36.7155L297.078 44.0106L316.013 60.6767L316.22 60.8547L321.469 65.4957L328.127 71.3377L343.859 74.6145L367.449 81.3015L386.725 121.692L392.359 133.524L407.958 193.368L412.999 257.245L407.083 321.151L390.713 381.084L365.24 433.484L341.724 438.63L326.036 441.135L320.98 445.524L305.307 459.121L304.951 459.432L294.899 468.151L282.102 487.175L280.352 488.761L248.681 517.586L245.048 519.291L213.421 534.222" stroke="#010101" stroke-width="0.2" stroke-linecap="round" stroke-linejoin="round"/>
<path d="M64.2875 483.826L48.17 447.35L35.5221 405.596L26.4477 360.016L21.006 311.916L19.2119 262.466L21.0802 212.809L26.6108 164.101L35.8039 117.557L48.6 74.4981L64.925 36.4211" stroke="#010101" stroke-width="0.2" stroke-linecap="round" stroke-linejoin="round"/>
<path d="M148.803 51.41L154.244 50.9059L169.368 48.4296L199.29 51.6769L212.427 47.1545L223.889 42.2763L233.467 37.057L240.94 31.5263L246.056 25.7436L248.592 19.7385L248.34 13.5999L247.435 11.8354" stroke="#010101" stroke-width="0.2" stroke-linecap="round" stroke-linejoin="round"/>
<path d="M158.531 -29.8607L188.824 -25.1455L215.543 -19.6594L238.347 -13.5208L242.322 -11.8602L253.976 -6.98188L269.292 -0.561566L276.736 2.55219M158.531 -29.8607L125.169 -33.6417L89.3461 -36.37L51.8029 -37.9862L13.3552 -38.4014L-25.1221 -37.6303L-62.784 -35.6879L-98.7998 -32.6334L-132.429 -28.5559L-150.31 -18.2063L-157.294 -14.1732M158.531 -29.8607L176.25 -20.4156L185.265 -15.6263M276.736 2.55219L297.479 9.81765L319.35 27.0768L331.598 36.7444L335.067 39.4727M276.736 2.55219L250.966 -4.22396M276.736 2.55219L310.038 29.9534L312.693 32.1479M335.067 39.4727L351.555 47.0643L382.248 85.4973L384.383 88.1664M335.067 39.4727L312.693 32.1479M335.067 39.4727L365.804 79.1808L367.45 81.3009L384.383 88.1664M384.383 88.1664L395.03 95.0757L400.649 106.196L418.62 141.782L419.895 144.318M384.383 88.1664L408.597 137.037L409.531 138.92M419.895 144.318L424.032 149.641L434.144 185.85L438.37 200.988L438.993 203.228L442.136 240.341L443.797 259.868L438.163 316.465L437.852 317.473L432.825 334.658L422.461 369.977L418.264 373.64M419.895 144.318L409.531 138.92M419.895 144.318L421.304 149.433L434.931 198.557L435.331 199.995L440.298 259.009L434.456 318.007L434.278 318.659L419.495 369.414L418.264 373.64M418.264 373.64L407.87 377.362M418.264 373.64L417.419 375.286L397.462 413.926L392.835 422.897L391.056 425.432L370.92 450.446L365.434 457.164L359.859 463.331L354.491 467.498L349.895 471.072L321.367 493.224L310.587 499.644L294.93 505.931M407.87 377.362L390.715 381.083L367.554 384.538L366.383 384.701L364.04 389.846L361.223 396L341.725 438.629L310.275 481.614L282.103 487.174L266.46 489.502L256.259 494.514L250.076 497.554L245.227 499.94L240.423 502.298L236.302 504.315L230.296 506.776L220.896 510.616L219.798 511.076L209.419 515.317L198.921 519.617L188.586 523.842L188.068 524.05L174.575 521.737L160.874 525.429M407.87 377.362L424.314 319.579L430.245 258.134L425.188 196.674L409.531 138.92M407.87 377.362L382.174 428.205L365.241 433.484L364.025 435.04L332.547 475.682L330.041 477.699L317.408 487.856L294.93 505.931M160.874 525.429L144.757 528.825L126.37 531.82L105.983 534.355L83.6669 513.419L64.2876 483.823L51.4322 484.757L37.9243 485.425L23.9717 485.81L9.78179 485.899L-4.43781 485.721L-18.4498 485.247L-32.0318 484.505L-45.0206 483.511L-57.194 482.266L-68.4038 480.813M160.874 525.429L174.293 528.276L178.237 527.505L183.442 527.031L196.119 525.429L218.271 522.656L248.682 517.585L274.289 511.951L294.93 505.931M160.874 525.429L127.037 507.058L97.175 479.656M-68.4038 480.813L-78.501 479.153L-107.296 506.287M-68.4038 480.813L-46.8148 445.568L-38.6745 446.428L-29.8966 447.155L-20.5849 447.747L-10.8729 448.178L-0.87916 448.46L9.24797 448.563L19.3455 448.504L29.2947 448.282L38.9475 447.896L48.1701 447.347L56.8294 446.666L64.8065 445.835M-68.4038 480.813L-94.1143 508.793L-107.296 506.287M-107.296 506.287L-118.743 503.543L-128.336 500.623L-136.017 497.554M-107.296 506.287L-139.872 524.376L-153.988 520.595L-165.627 516.577L-174.717 512.41M-136.017 497.554L-141.77 494.41L-145.58 491.207L-147.494 488.019L-147.583 484.861L-145.922 481.791M-136.017 497.554L-101.084 473.34L-86.0779 457.223L-71.0723 441.105L-59.166 422.007L-46.874 402.346L-38.7337 382.24L-29.1404 358.62L-24.2028 337.12L-18.3163 311.513L-15.2619 270.5L-14.6688 262.641L-18.3163 213.652L-22.038 197.297L-29.1552 166.144L-29.8225 164.483L-37.7996 144.629L-46.9778 121.765M-136.017 497.554L-174.717 512.41M-145.922 481.791L-142.6 478.811L-137.366 475.876L-133.63 473.77L-130.887 472.287L-129.952 471.665L-129.419 471.605L-128.781 471.368L-128.721 471.339L-122.836 468.062L-117.601 465.259L-115.377 464.058L-110.721 462.012L-108.497 460.455L-108.008 460.01L-106.021 458.231L-95.3748 448.756L-94.47 448.593L-91.2822 445.716L-79.8949 435.456L-79.391 434.448L-79.1538 434.181L-72.2438 424.691L-61.6274 410.427L-53.502 399.528L-53.324 398.95L-53.3981 398.802L-39.742 369.473L-39.5048 368.984L-33.7517 357.493L-28.4435 337.149L-21.6822 311.157L-20.9852 302.809L-18.0049 267.43L-17.6194 265.132V262.819L-19.8584 231.933L-21.3114 214.289L-26.1156 197.267L-33.7962 167.775L-35.7089 164.424L-38.9265 157.484L-49.8692 134.235L-53.5316 126.362L-53.6354 125.428L-53.0275 124.493L-51.7078 123.574L-49.6912 122.655L-46.9778 121.765M-145.922 481.791L-157.117 484.653L-169.527 487.841L-183.554 491.445L-186.357 495.477L-186.994 499.629L-185.348 503.885L-181.27 508.155L-174.717 512.41M-145.922 481.791L-138.775 477.877L-134.149 475.356L-129.597 472.866L-127.966 471.976L-125.623 470.701L-125.563 470.671L-121.323 468.358L-116.756 465.852L-114.65 464.236L-110.499 461.982L-108.111 460.247L-107.281 460.143L-105.205 458.928L-104.064 457.89L-94.9153 449.587L-94.4997 448.563L-92.1573 445.82L-92.0535 445.716L-79.9245 435.411L-79.1686 435.011L-77.4777 432.668L-71.6806 424.676L-61.4198 411.361L-52.9088 400.241L-39.401 370.719L-32.9659 357.848L-27.2424 337.135L-20.2291 311.38L-16.8187 274.666L-16.8039 268.706L-16.3294 262.7L-20.2142 213.918L-24.9294 197.282L-32.9956 167.241L-34.8638 164.424L-38.8375 156.536L-49.0685 134.25L-53.324 124.968L-60.5598 116.235L-66.7429 107.694L-77.6266 92.6296L-78.8419 91.5173L-79.6726 90.3754L-80.0431 88.7296L-83.2458 85.8085L-91.4452 78.3205L-93.0317 76.8674L-103.278 68.3419L-105.991 66.7256L-107.489 65.6284L-108.082 65.6135L-111.092 63.7156L-113.227 62.5739L-119.677 59.4453L-122.91 57.7253L-123.295 57.5177L-130.842 56.0942L-143.401 52.9657L-154.744 49.5109L-164.708 45.7299L-173.13 41.682L-179.862 37.3672L-184.726 32.8151L-187.572 28.0555L-188.239 23.1624L-186.594 18.1655L-182.516 13.1242L-175.933 8.11249L-136.862 23.8593L-101.602 49.0364L-83.1717 69.246L-71.3391 82.1908L-55.3109 108.258L-46.9778 121.765M-46.9778 121.765L-43.5972 120.935L-39.5641 120.134L-34.9231 119.408L-29.7483 118.74L-24.0694 118.162L-17.9753 117.673L-11.5401 117.287L-4.83812 116.991L2.02701 116.813L8.98111 116.739L15.9352 116.783L22.7706 116.931L29.4283 117.183L35.8041 117.555L41.8092 118.014L47.3695 118.562M47.3695 118.562L52.4257 119.2M47.3695 118.562L34.4103 164.587L26.5961 213.014L24.9652 243.751L23.9568 262.508L24.9355 281.279L26.5221 311.809L34.2323 359.673L47.0433 404.807L64.8065 445.835M47.3695 118.562L65.3404 76.3635L88.1004 39.5172L115.265 9.71391L146.225 -11.2374L162.475 -7.24879L176.265 -2.87467L187.489 1.78116L196.104 6.64458M52.4257 119.2L56.9332 119.912L60.8031 120.683L64.0356 121.513M52.4257 119.2L37.8502 164.898L29.0427 213.132L26.9669 247.473L26.0624 262.537L26.952 277.617L28.9537 311.75L37.6575 359.465L52.0847 404.318L72.0277 444.886M52.4257 119.2L72.5909 77.5202L98.0352 41.4299L128.238 12.6052L139.418 15.7783L148.685 19.1887L156.01 22.7769M64.0356 121.513L66.5859 122.388L68.4248 123.292L69.5512 124.227M64.0356 121.513L46.554 164.276L45.8274 166.011L38.5767 197.163L34.7365 213.592L31.5485 262.656M64.0356 121.513L72.7983 107.516L88.9311 81.7307L97.6937 72.2708L107.806 61.358L119.891 48.295L156.01 22.7769M69.5512 124.227L69.9669 125.16L69.5364 126.199L66.0224 133.775M69.5512 124.227L71.1229 122.774L82.333 107.116L89.7759 96.6919L90.977 96.3806M69.5512 124.227L67.9646 127.681L65.1625 133.805L51.2394 164.157L49.3712 167.107L48.0812 170.281L41.2754 197.133L36.5157 213.859L31.5485 262.656M66.0224 133.775L51.8474 164.143L50.1422 167.79L50.0236 168.249L48.4667 173.305M66.0224 133.775L69.2844 126.628L69.4178 126.317L69.6698 126.095L70.041 125.324L71.2859 123.589L83.2519 107.057L90.1174 97.567L90.977 96.3806M66.0224 133.775L51.9511 164.143L49.9939 167.597L48.4667 173.305M48.4667 173.305L42.0464 197.119L37.6426 214.141L36.1302 231.859L33.5058 262.76L33.6392 264.331L34.0247 267.416L36.9902 302.853L37.6871 311.231L44.6412 337.253L48.4519 351.829L48.7188 352.881L49.8753 357.33L49.9198 357.463L55.6135 369.74L69.1955 398.965L69.2548 399.01M48.4667 173.305L48.2888 174.847L42.4468 197.119L42.4319 197.178L37.4647 214.141L35.9671 231.859L33.3723 262.76L32.9423 267.786M69.2548 399.01L69.3882 399.336L69.5957 399.647L72.0425 402.85L88.3375 425.314L91.3624 429.48L91.7188 430.192M69.2548 399.01L55.6432 369.74L49.7567 357.626L48.6742 354.379L48.3778 353.222L43.8553 337.253L36.4268 311.409M69.2548 399.01L69.4178 399.336L69.5512 399.736L71.8794 403.651M91.7188 430.192L94.3428 434.018L95.9886 435.901L96.8489 436.286L107.599 445.953L108.444 446.725L119.609 456.763L124.695 461.344L127.111 462.664L129.321 464.221L130.73 464.992L137.046 468.462L143.274 472.272L146.803 473.799L149.353 474.764L153.119 476.809L158.368 479.671L162.194 482.681L164.343 485.795M91.7188 430.192L91.2438 429.747L87.4186 425.269M91.7188 430.192L95.2771 434.863L95.9145 436.197L95.5439 437.547L94.1649 438.881L91.7336 440.201L88.2783 441.475M164.343 485.795L164.744 488.953L163.306 492.156L159.94 495.344L154.631 498.472M164.343 485.795L165.974 486.24L189.001 492.63L203.592 496.693L204.853 500.875L203.8 505.13L200.33 509.415L194.325 513.641L154.631 498.472M164.343 485.795L155.907 481.036L147.336 476.217L144.934 474.867L141.584 472.984L138.41 471.205L134.422 468.951L127.957 465.318L124.725 462.383L123.849 461.582L121.922 459.832L119.06 457.238L107.377 446.621L107.288 446.532L95.7366 436.879L91.3328 431.63L87.4186 425.269M154.631 498.472L147.351 501.497L113.04 475.98L105.775 477.892L97.175 479.656M154.631 498.472L118.912 473.948L102.112 456.14L91.867 445.272L88.2783 441.475M97.175 479.656L87.3001 481.258L64.8065 445.835M97.175 479.656L72.0277 444.886M64.8065 445.835L72.0277 444.886M196.104 6.64458L202.124 11.6415L205.594 16.6828L206.617 21.6944L205.312 26.6321L201.828 31.4361L196.326 36.0475L188.957 40.4365L179.927 44.5733L169.37 48.4285L157.493 51.9871L141.85 55.1454L139.908 55.3677L132.524 58.6001L130.848 59.5194L127.69 61.2691L125.466 63.4784L125.125 63.7897L123.879 64.1011L118.853 67.8973L116.851 69.7358L105.79 79.8329L104.93 80.6191L100.392 84.7704L100.185 84.9637L97.175 88.3294M196.104 6.64458L156.01 22.7769M196.104 6.64458L227.034 2.656M97.175 88.3294L95.8404 90.1383L95.6181 90.3458L90.977 96.3806M97.175 88.3294L101.771 84.8L101.949 84.6518L105.537 81.3157L106.205 80.6488L117.563 70.3879L120.721 67.6446L124.057 64.7535L124.25 64.6497L125.866 63.5821L126.934 62.8111L133.799 59.0894L134.066 58.9412L138.811 56.3612L138.929 56.3019L140.56 55.4122L142.888 54.3743L144.727 53.6033L148.804 51.4088L154.246 48.473L159.658 45.0626L163.513 41.4892L165.707 37.812L166.138 34.0607L164.7 30.2648L161.333 26.4986L156.01 22.7769M97.175 88.3294L94.3872 91.2802L90.977 96.3806M31.5485 262.656L31.5337 269.907L34.6475 311.528L40.623 337.223L45.6198 358.694L50.1126 369.636L63.6352 402.539L70.1299 412.785L88.2783 441.475M31.5485 262.656L32.9423 267.786M88.2783 441.475L83.8158 442.691L78.3886 443.833L72.0277 444.886M87.4186 425.269L71.8794 403.651M71.8794 403.651L69.1362 400.448L55.0353 369.725L49.1339 357.937L48.2295 356.173L42.8471 337.238L36.4268 311.409M36.4268 311.409L32.9423 267.786M227.034 2.656L238.392 7.34146L250.966 -4.22396M227.034 2.656L214.357 -2.5781L201.412 -7.93083L187.86 -13.5356L186.644 -14.0398L185.265 -15.6263M250.966 -4.22396L220.361 -10.3477L192.13 -14.5884L185.265 -15.6263M250.966 -4.22396L277.225 18.9514L284.372 25.2531L312.693 32.1479M312.693 32.1479L328.825 54.1371L343.86 74.6139L365.701 123.129L367.836 127.889L367.999 128.245L369.155 128.497L392.36 133.524L409.531 138.92M294.93 505.931L288.034 508.941L266.98 518.119L254.673 523.486L236.079 529.062L213.422 534.222L186.896 538.833L156.871 542.792L123.79 545.965L103.195 547.374L90.5472 548.189L88.2486 548.308L51.0912 549.627L43.3215 550.384L12.5397 550.324L-25.1221 549.331L-62.3391 547.804L-69.4117 547.389L-79.3613 546.677L-98.118 545.12L-131.45 541.71L-161.847 537.543L-188.788 532.754L-211.963 527.46L-231.179 521.796L-239.913 517.793L-263.83 506.836L-269.82 504.092L-286.279 497.761L-297.963 491.341L-316.423 476.498L-330.658 465.081L-335.105 461.507L-341.793 455.369L-367.563 422.941L-369.935 419.961L-372.975 416.135L-394.653 373.195L-395.691 371.149L-396.817 368.925L-404.424 342.25L-411.66 316.88L-411.897 316.02L-417.279 260.105L-412.594 204.161L-407.479 200.959L-396.017 197.652L-380.952 140.522L-362.655 135.095M-362.655 135.095L-358.474 125.991L-338.813 83.3024L-314.332 76.5561M-362.655 135.095L-377.601 194.331L-382.465 257.511L-376.889 320.691L-361.335 379.986L-337.063 431.941L-312.657 437.132L-282.765 479.894L-248.484 510.216L-222.269 515.969L-208.316 502.891L-203.497 504.893L-193.399 509.134L-189.158 510.898L-183.361 513.33L-174.717 512.41M-362.655 135.095L-349.385 130.099L-336.856 125.369L-335.135 124.716L-322.057 94.4532L-314.332 76.5561M-314.332 76.5561L-298.2 73.22L-291.409 67.1408L-290.816 66.6218L-272.148 49.9409L-267.641 45.9226L-267.27 45.3295L-264.586 41.163L-255.6 27.2251L-248.676 20.7604L-225.768 -0.561566L-223.914 -2.2964M-314.332 76.5561L-303.908 61.7139L-284.618 34.2682L-250.293 4.6577L-223.914 -2.2964M-223.914 -2.2964L-192.792 -8.62775L-167.406 -12.5867L-157.294 -14.1732M-223.914 -2.2964L-217.376 2.96737L-209.769 9.09116L-200.294 5.0877L-187.913 -0.16124L-175.206 -5.54361L-161.832 -11.2077L-158.585 -12.5718L-157.294 -14.1732M-157.294 -14.1732L-152.015 -14.7811L-144.365 -16.3676L-123.087 -20.7715L-112.026 -23.0549L-99.9121 -24.8935L-84.5507 -16.9459L-63.4808 5.6215L-45.1689 36.8037L-32.091 35.6027L-18.3904 34.713L-4.28952 34.1496L10.0338 33.9271L24.3276 34.0458L38.384 34.5054L51.9808 35.3062L64.9252 36.4182L84.5568 5.04323L107.139 -17.7763L124.517 -26.317L139.701 -24.167L147.974 -22.5211L169.341 -18.3101L180.017 -16.1897L185.265 -15.6263" stroke="#010101" stroke-width="0.2" stroke-linecap="round" stroke-linejoin="round"/>
<path d="M214.357 -2.57886L187.49 1.78041L148.686 19.1879L114.005 45.8626L106.695 43.5643L78.9822 78.8238L56.9338 119.911L41.0684 164.824L37.8509 164.898L34.4108 164.587L30.6595 164.319L26.6116 164.097L22.3264 163.934L17.8782 163.8L13.2965 163.741L8.65548 163.711L3.99964 163.756L-0.596846 163.845L-5.08957 163.978L-9.4192 164.171L-13.5264 164.393L-17.3519 164.675L-20.8809 164.987L-24.0392 165.342L-26.8119 165.728L-29.1546 166.143L-31.0674 166.573L-32.5056 167.018L-33.4694 167.462L-33.9587 167.923L-33.9735 168.397L-26.367 197.266L-21.6519 214.288L-19.6354 231.933L-16.3288 262.7L-16.8033 268.705L-20.2285 311.378L-25.9222 337.134L-31.0377 358.307L-39.0297 377.005L-49.5869 401.663L-60.0996 417.588L-64.5775 424.379L-74.7788 439.814L-89.0131 454.211L-105.842 471.204L-141.769 494.409L-181.27 508.154L-193.398 509.133" stroke="#010101" stroke-width="0.2" stroke-linecap="round" stroke-linejoin="round"/>
<path d="M230.294 506.774L203.798 505.128L175.818 496.172L164.965 492.688L163.304 492.155L136.763 476.037L133.279 473.917L126.294 469.676L123.33 471.841L118.911 473.946L113.039 475.977L99.6347 460.706L85.608 444.721L83.8139 442.69L60.4162 403.174L47.4718 369.576L43.3794 358.974L33.0299 311.615L30.2571 272.114L29.5898 262.595L33.1336 213.427L36.6922 197.177L43.587 165.608L44.0763 164.334L60.8017 120.681L68.3637 107.752L84.4512 80.2317L114.002 45.8618" stroke="#010101" stroke-width="0.2" stroke-linecap="round" stroke-linejoin="round"/>
<path d="M190.126 96.5854L205.532 123.245L217.839 154.813L226.765 190.013L232.133 227.587L233.809 266.287L231.806 304.867L226.157 342.143L216.979 376.855L204.48 407.785L188.97 433.733L170.88 453.453L150.745 465.849L137.578 468.355" stroke="#010101" stroke-width="0.2" stroke-linecap="round" stroke-linejoin="round"/>
<path d="M144.726 53.6022L154.245 50.9036L164.683 47.9232L179.926 44.5723L212.427 47.1523L243.506 59.0291L257.503 53.6763L269.469 47.9085L302.772 68.0292L314.678 61.6832L324.39 70.565L333.791 79.1645" stroke="#010101" stroke-width="0.2" stroke-linecap="round" stroke-linejoin="round"/>
<path d="M51.9521 164.141L76.8773 163.533L105.82 162.481L134.497 161.101L162.817 159.367L190.648 157.276L217.842 154.815L244.25 151.983L269.635 148.765L293.804 145.147L316.445 141.114L337.263 136.681L355.886 131.818L367.837 127.888" stroke="#010101" stroke-width="0.2" stroke-linecap="round" stroke-linejoin="round"/>
<path d="M-200.295 5.08562L-175.934 8.11043L-166.785 3.20251L-155.071 -1.54228L-140.852 -6.00537L-124.23 -10.1126L-105.384 -13.7898L-84.5519 -16.9481L-62.0584 -19.5132L-46.0002 3.7956L-32.092 35.6006L-20.5563 73.9887L-11.5411 117.285L-5.09115 163.977L-1.23605 212.76L0.0391526 262.446L-1.26568 311.926L-5.15048 360.1L-11.6004 405.798L-20.5859 447.745L-32.0327 484.503L-45.8371 514.469L-61.7322 535.821L-84.0325 533.656L-104.673 530.972L-123.37 527.858L-139.873 524.374L-150.267 526.583L-150.919 526.331L-157.444 524.167L-162.53 522.046L-170.551 518.68L-173.146 517.598L-183.362 513.328" stroke="#010101" stroke-width="0.2" stroke-linecap="round" stroke-linejoin="round"/>
<path d="M238.349 -13.5198L257.061 -6.90669L273.519 -0.100864L285.5 4.86633L297.481 9.81874L313.183 17.3955L325.104 26.6183L346.648 43.2695L351.557 47.0654L362.38 54.746L376.407 72.0795L391.917 91.2216L395.031 95.0771L399.85 101.897L418.147 138.002L421.868 145.357L424.033 149.642" stroke="#010101" stroke-width="0.2" stroke-linecap="round" stroke-linejoin="round"/>
<path d="M-123.089 -20.7701L-105.385 -13.7864L-79.7925 7.89141L-63.4824 5.6228L-46.0007 3.799L-27.6146 2.43487L-8.59099 1.57488L10.7293 1.23385L30.0198 1.42661L48.9693 2.13833L67.2368 3.35419L84.5554 5.04453L100.643 7.17966L127.704 -14.7798L147.973 -22.5198" stroke="#010101" stroke-width="0.2" stroke-linecap="round" stroke-linejoin="round"/>
<path d="M48.2891 174.849L49.3418 197.06L50.2611 231.786L50.5428 267.387L50.1721 302.884L49.1787 337.284L48.4522 351.83" stroke="#010101" stroke-width="0.2" stroke-linecap="round" stroke-linejoin="round"/>
<path d="M134.601 59.0591L151.89 62.8994L172.07 76.0662L191.79 72.4782L212.431 92.9845L230.09 119.911L244.25 151.983L254.541 187.895L260.724 226.328L262.681 265.947L260.353 305.477L253.843 343.598L243.271 379.036L228.904 410.501L211.126 436.73L190.456 456.495L167.577 468.698L144.624 472.197" stroke="#010101" stroke-width="0.2" stroke-linecap="round" stroke-linejoin="round"/>
<path d="M117.682 70.4937L130.018 81.9106L143.022 102.387L154.038 128.617L162.816 159.369L169.148 193.428L172.928 229.622L174.115 266.824L172.691 303.908L168.688 339.79L162.164 373.345L153.253 403.43L142.146 428.874L129.113 448.52L119.609 456.765" stroke="#010101" stroke-width="0.2" stroke-linecap="round" stroke-linejoin="round"/>
<path d="M209.42 515.319L194.325 513.644L185.74 517.781L174.575 521.739L138.129 504.377L127.038 507.061L114.153 509.492L99.6369 511.627L76.2984 482.654L56.8298 446.668L41.4982 405.24L30.4814 359.868L23.8535 311.871L21.6738 262.481L22.7414 238.994L23.9425 212.898L30.6593 164.323L41.8096 118.017L57.3043 75.3428L77.0098 37.8295L100.645 7.18101L115.265 9.71656L128.239 12.6079L162.475 -7.24614L187.861 -13.533" stroke="#010101" stroke-width="0.2" stroke-linecap="round" stroke-linejoin="round"/>
<path d="M36.4258 231.856L50.2598 231.782L81.1902 231.456L112.017 230.995L142.62 230.388L172.928 229.617L202.805 228.683L232.134 227.585L260.721 226.325L288.389 224.872L314.886 223.241L339.944 221.417L363.209 219.401L384.323 217.177L394.51 215.842" stroke="#010101" stroke-width="0.2" stroke-linecap="round" stroke-linejoin="round"/>
<path d="M120.854 67.6265L134.021 65.8469L151.887 62.8963L168.835 59.5601L191.788 72.475L210.412 68.4416L227.715 63.949L243.506 59.0264L271.886 79.3991L296.485 107.186L316.443 141.111L331.078 179.707L339.944 221.417L342.747 264.654L339.44 307.802L330.114 349.26L315.108 387.426L294.884 420.817L270.137 448.055L241.757 467.865L210.797 479.252L197.779 475.397L168.05 478.155L155.698 475.204L145.808 472.832L144.622 472.194L137.046 468.458L130.728 464.988L129.32 464.217L126.711 463.15L124.694 461.341" stroke="#010101" stroke-width="0.2" stroke-linecap="round" stroke-linejoin="round"/>
<path d="M115.858 538.507L105.983 534.355L83.8901 536.371L60.4476 537.81L48.3632 515.88L37.9247 485.424L29.295 448.282L22.5634 406.067L17.7445 360.221L14.868 311.958L13.9189 262.434L14.9272 212.687L17.8779 163.801L22.771 116.931L29.6212 73.3386L38.3843 34.5052L48.9711 2.1368L61.2187 -21.8689L71.7907 -32.3816L96.0043 -30.3502L99.4441 -29.8609L124.517 -26.3172" stroke="#010101" stroke-width="0.2" stroke-linecap="round" stroke-linejoin="round"/>
<path d="M83.5645 106.95L93.6023 106.401L118.542 104.622L143.022 102.383L166.939 99.714L190.129 96.5854" stroke="#010101" stroke-width="0.2" stroke-linecap="round" stroke-linejoin="round"/>
<path d="M-18.0957 -33.7764L-13.5881 -22.6558L-8.59123 1.57236L-4.29128 34.1484L-0.732692 73.1297L2.02524 116.811L3.99729 163.756L5.16867 212.671L5.53936 262.432L5.10934 311.971L3.90832 360.249L1.9066 406.155L-0.88093 448.458L-4.43957 485.72L-8.72469 516.338L-13.6919 538.476L-16.7612 544.94" stroke="#010101" stroke-width="0.2" stroke-linecap="round" stroke-linejoin="round"/>
<path d="M94.9057 541.457L93.6156 541.916L67.4153 543.755L53.5816 544.911L40.1478 545.252L36.0703 538.669L29.5759 516.473L23.9711 485.809L19.3449 448.503L15.7418 406.186L13.1766 360.265L11.6494 311.972L11.1602 262.433L11.7087 212.657L13.2953 163.741L15.9346 116.782L19.6118 73.0563L24.327 34.0452L30.0207 1.42477L36.6189 -22.8627L42.5944 -34.1316L54.3081 -33.835L71.7896 -32.3819" stroke="#010101" stroke-width="0.2" stroke-linecap="round" stroke-linejoin="round"/>
<path d="M71.3145 123.809L73.1085 133.551L76.875 163.532L79.588 196.523L81.1893 231.457L81.6939 267.295L81.0707 303.029L79.3508 337.651L76.5483 370.124L72.6935 399.423L72.0407 402.848" stroke="#010101" stroke-width="0.2" stroke-linecap="round" stroke-linejoin="round"/>
<path d="M90.207 97.7893L93.6031 106.404L100.423 132.323L105.82 162.482L109.705 195.754L112.018 231L112.745 267.178L111.855 303.254L109.394 338.187L105.376 370.941L99.8751 400.433L93.0096 425.521L91.3638 429.48" stroke="#010101" stroke-width="0.2" stroke-linecap="round" stroke-linejoin="round"/>
<path d="M66.082 133.774L73.11 133.552L100.423 132.322L127.423 130.675L154.038 128.614L180.135 126.153L205.535 123.247L230.089 119.911L253.591 116.13L275.817 111.889L296.486 107.188L315.317 102.044L331.968 96.4237L342.911 91.7234" stroke="#010101" stroke-width="0.2" stroke-linecap="round" stroke-linejoin="round"/>
<path d="M42.4463 197.121L49.341 197.061L79.5895 196.528L109.704 195.757L139.581 194.719L169.147 193.429L198.254 191.872L226.767 190.019L254.539 187.898L281.347 185.481L306.954 182.753L331.078 179.713L353.423 176.348L373.559 172.655L384.19 170.224" stroke="#010101" stroke-width="0.2" stroke-linecap="round" stroke-linejoin="round"/>
<path d="M101.95 84.6511L108.015 84.1613L130.019 81.9079L151.415 79.2091L172.069 76.0657L190.129 96.5868L212.43 92.9839L233.633 88.9209L253.591 116.13L269.634 148.765L281.348 185.478L288.391 224.874L290.615 265.576L287.976 306.173L280.562 345.274L268.537 381.527L252.271 413.569L232.195 440.11L208.945 459.905L183.308 471.885L167.576 468.698L150.747 465.851L133.014 463.345L127.112 462.663" stroke="#010101" stroke-width="0.2" stroke-linecap="round" stroke-linejoin="round"/>
<path d="M11.7105 545.888L11.2064 538.889L10.4354 516.619L9.78297 485.896L9.24915 448.56L8.83402 406.213L8.55229 360.277L8.38919 311.984L8.34473 262.416L8.43365 212.655L8.6561 163.709L8.9823 116.736L9.45678 72.9949L10.035 33.9243L10.7319 1.22972L11.5326 -23.1318L12.274 -34.8159" stroke="#010101" stroke-width="0.2" stroke-linecap="round" stroke-linejoin="round"/>
<path d="M140.087 56.1112L144.416 55.2215L157.494 51.9891L184.702 55.8146L199.293 51.6777L227.717 63.9549L253.547 84.4019L275.817 111.892L293.803 145.15L306.955 182.753L314.888 223.247L317.394 265.149L314.428 306.948L306.081 347.16L292.573 384.332L274.349 417.012L251.945 443.895L226.116 463.704L197.781 475.403L183.309 471.889L155.7 475.21L146.922 473.446L145.81 472.837" stroke="#010101" stroke-width="0.2" stroke-linecap="round" stroke-linejoin="round"/>
<path d="M105.58 81.375L108.012 84.1627L118.54 104.625L127.421 130.677L134.494 161.102L139.58 194.716L142.619 230.391L143.583 267.015L142.427 303.55L139.209 338.899L133.96 372.008L126.769 401.768L117.798 427.019L107.597 445.953" stroke="#010101" stroke-width="0.2" stroke-linecap="round" stroke-linejoin="round"/>
<path d="M125.45 63.462L127.69 61.2676L128.95 58.6727L128.831 56.0631L127.304 53.4239L124.324 50.829L119.891 48.2935L114.004 45.8618" stroke="#010101" stroke-width="0.2" stroke-linecap="round" stroke-linejoin="round"/>
<path d="M40.918 165.237L43.5869 165.608L45.8259 166.008L47.62 166.438L48.9396 166.882L49.9924 167.594L50.022 168.247" stroke="#010101" stroke-width="0.2" stroke-linecap="round" stroke-linejoin="round"/>
<path d="M50.1441 167.79L49.373 167.107L50.1441 164.187L63.7112 133.85L68.4266 123.292L79.3396 107.427L79.5323 107.16L89.8666 92.1546L94.8343 84.934L103.894 76.1559L111.337 68.9199L118.855 61.6397L127.307 53.4253L134.142 49.1995L164.701 30.2648L173.553 27.3289L205.595 16.6828L248.343 13.5986L252.554 14.3697" stroke="#010101" stroke-width="0.2" stroke-linecap="round" stroke-linejoin="round"/>
<path d="M-99.9123 -24.89L-74.7947 -28.671L-68.582 -29.6052L-47.2599 -31.592L-38.2744 -21.4352L-27.6135 2.43703L-18.3908 34.7165L-10.7843 73.4606L-4.83845 116.994L-0.597782 163.849L1.92285 212.706L2.75319 262.437L1.89322 311.961L-0.686777 360.195L-4.94228 406.027L-10.8732 448.181L-18.4501 485.25L-27.5839 515.616L-38.1558 537.457L-43.9534 543.062L-68.1818 540.853L-69.5602 540.645L-92.2168 537.279L-111.255 534.447L-113.554 533.973L-128.159 530.993L-132.103 530.177L-149.985 526.529L-150.919 526.337L-156.153 525.833L-172.33 523.712L-191.368 521.236L-222.269 515.972L-253.925 485.591L-265.995 466.671L-266.025 466.642L-279.696 454.587L-296.599 439.7L-312.657 437.135L-332.156 392.563L-332.363 392.074L-333.816 388.752L-336.055 383.652L-337.256 383.474L-361.336 379.99L-379.618 376.267L-391.258 372.561L-406.604 318.144L-406.767 317.551L-412.312 259.264L-407.479 200.962L-407.138 199.673L-392.592 145.908L-380.953 140.525L-356.799 90.201L-338.813 83.3065L-337.33 81.3191L-307.809 41.7002L-284.618 34.2716L-267.167 45.5406L-262.955 42.2933L-262.585 42.0116L-251.39 33.3375L-239.632 24.2482L-238.001 23.4179L-233.938 21.3569L-229.015 18.8659L-222.936 15.7818L-212.23 10.3549L-209.769 9.09458L-205.321 4.46841L-192.792 -8.62426L-163.078 -23.6001L-132.429 -28.5524" stroke="#010101" stroke-width="0.2" stroke-linecap="round" stroke-linejoin="round"/>
<path d="M174.293 528.273L156.233 531.817L138.232 535.361L137.506 535.45L115.858 538.504L94.9062 541.455L93.0826 541.603L83.8895 536.369L66.4969 514.854L51.4322 484.754L38.9474 447.894L29.1761 405.872L22.1775 360.129L17.9962 311.94L16.6172 262.446L18.0703 212.744L22.3258 163.932L29.4282 117.181L39.3329 73.8101L51.9808 35.3035L67.2383 3.35021L84.8535 -20.1514L107.139 -17.779L127.705 -14.7839L146.224 -11.2401L169.34 -18.3127" stroke="#010101" stroke-width="0.2" stroke-linecap="round" stroke-linejoin="round"/>
<path d="M69.1953 398.965L69.4183 399.336L69.5961 399.648L69.136 400.448L68.0096 401.16L66.1707 401.871L63.6352 402.538L60.4176 403.176L56.5625 403.769L52.0846 404.318L47.0432 404.807L41.4978 405.237L35.5222 405.593L29.1761 405.875L22.5631 406.068L15.7424 406.186L8.83277 406.216L1.90834 406.157L-4.94196 406.023L-11.5995 405.801L-18.005 405.489L-24.0843 405.119L-29.7187 404.674L-34.8787 404.17L-39.49 403.606L-43.5083 402.998L-46.8741 402.346L-49.5875 401.664L-51.5892 400.952L-52.9089 400.24L-53.502 399.529L-53.324 398.95L-52.7606 397.927L-39.5493 369.473L-39.49 369.325L-33.9445 357.374L-33.7369 356.603L-28.6511 337.149L-21.8602 311.157L-21.9046 311.067L-21.178 302.809L-18.168 267.43L-17.8122 262.863L-17.7677 262.819L-20.3922 231.933L-21.8898 214.585L-21.8453 214.392L-21.4598 214.2L-20.7481 214.007L-19.6953 213.829L-18.3164 213.651L-16.626 213.474L-14.6391 213.325L-12.3853 213.176L-9.89431 213.043L-7.18091 212.924L-4.2747 212.836L-1.23508 212.761L1.92318 212.702L5.1704 212.673L8.43246 212.658H11.7093L14.9269 212.687L18.0703 212.747L21.0803 212.806L23.942 212.895L26.5961 213.013L29.0427 213.132L31.2223 213.28L33.135 213.429L34.7364 213.592L36.0413 213.77L37.005 213.948L37.6426 214.14L37.9243 214.333" stroke="#010101" stroke-width="0.2" stroke-linecap="round" stroke-linejoin="round"/>
<path d="M139.64 54.669L148.432 49.8204L154.971 46.2025L163.512 41.4873L165.35 41.0128L185.382 35.7491L201.826 31.4343L240.941 31.5233L279.107 41.769L285.898 35.497" stroke="#010101" stroke-width="0.2" stroke-linecap="round" stroke-linejoin="round"/>
<path d="M123.716 63.4645L128.95 58.6753L133.873 55.8877L141.895 51.3357L155.536 43.5809L165.707 37.813L188.438 31.3927L205.312 26.6331L246.058 25.7434L285.38 35.1144" stroke="#010101" stroke-width="0.2" stroke-linecap="round" stroke-linejoin="round"/>
<path d="M95.6172 90.3437L95.9439 89.8836L97.6787 88.3118L101.563 84.8127L101.741 84.6645L105.537 81.3136L106.263 80.7646L117.681 70.4895L120.721 67.6425L123.478 65.0625L124.531 64.1135L125.703 63.5352L129.083 62.0377L134.599 59.0574L136.734 57.9156L140.085 56.1067L140.189 56.0474L144.415 55.217L168.836 59.5615L184.701 55.8102L210.412 68.4429L233.632 88.9202L253.545 84.3977L271.887 79.4004L288.39 73.9294L315.316 102.042L337.261 136.679L353.423 176.343L363.209 219.402L366.323 264.121L362.66 308.767L352.356 351.574L335.793 390.852L313.567 425.015L286.506 452.609L255.621 472.389L241.757 467.866L226.115 463.699L208.944 459.904L190.454 456.494L170.882 453.454L150.376 450.8L129.113 448.516L108.443 446.722" stroke="#010101" stroke-width="0.2" stroke-linecap="round" stroke-linejoin="round"/>
<path d="M141.851 55.1439L142.889 54.3728L147.367 51.7187L152.704 48.8274L159.659 45.0612L165.041 43.7267L180.298 39.9754L196.327 36.0461L233.47 37.0544L269.471 47.9081L279.109 41.7695L291.149 48.5012L314.68 61.6828L316.015 60.6746" stroke="#010101" stroke-width="0.2" stroke-linecap="round" stroke-linejoin="round"/>
<path d="M125.123 63.7898L125.775 63.5525L134.02 65.8508L151.412 79.2103L166.937 99.7166L180.133 126.154L190.646 157.277L198.252 191.87L202.804 228.686L204.243 266.571L202.537 304.351L197.719 340.871L189.89 374.96L179.214 405.445L165.928 431.111L150.374 450.802L133.011 463.346L129.779 464.117" stroke="#010101" stroke-width="0.2" stroke-linecap="round" stroke-linejoin="round"/>
<path d="M89.5098 96.0539L90.2367 95.0305L96.2271 86.5792L97.6944 85.215L97.9618 84.963L105.019 78.3501L115.74 68.3264L116.926 67.2144L121.952 62.4993L128.833 56.0642L133.607 53.2469L154.321 41.0291L166.139 34.0602L174.961 31.3616L189.299 26.9874L206.618 21.694L248.594 19.7368L271.562 24.5854" stroke="#010101" stroke-width="0.2" stroke-linecap="round" stroke-linejoin="round"/>
</g>
</g>
</g>
<defs>
<clipPath id="clip0_2551_382">
<rect width="256" height="256" fill="white"/>
</clipPath>
</defs>
</svg>
