<svg width="256" height="256" viewBox="0 0 256 256" fill="none" xmlns="http://www.w3.org/2000/svg">
<g clip-path="url(#clip0_1051_12)">
<path d="M128 256C198.692 256 256 198.692 256 128C256 57.3075 198.692 0 128 0C57.3075 0 0 57.3075 0 128C0 198.692 57.3075 256 128 256Z" fill="#222222"/>
<g clip-path="url(#clip1_1051_12)">
<path d="M175 172.576C171.083 179.022 166.439 184.205 161.064 188.122C155.69 192.041 150.585 194 145.751 194C142.218 194 139.186 192.926 136.654 190.777C134.119 188.628 132.854 185.786 132.854 182.247C132.854 178.456 135.002 171.724 139.303 162.055L149.089 140.159C153.619 130.11 155.882 123.792 155.882 121.199C155.882 119.619 155.364 118.434 154.327 117.645C153.29 116.857 151.699 116.46 149.55 116.46C146.094 116.46 142.026 117.613 137.343 119.92C132.662 122.227 127.785 126.084 122.718 131.485C117.653 136.889 113.947 141.961 111.607 146.701C109.264 151.442 106.214 158.992 102.452 169.357L93.701 192.772H80L113.316 102.518L91.6507 108.205L89.6261 100.478L116.691 93.3743L120.418 83.2806C122.72 77.0889 123.872 73.4858 123.872 72.4713C123.872 71.0169 123.354 69.9746 122.317 69.3445C121.28 68.7145 118.728 68.3962 114.662 68.3962H110.978L112.358 64.413C124.563 64.161 133.62 63.0226 139.534 61H142.414L131.926 89.374L162.997 81.2174L165.022 88.9447L128.546 98.5194L116.275 131.718C130.091 117.942 142.683 111.052 154.045 111.052C159.187 111.052 163.025 111.936 165.562 113.707C168.094 115.475 169.361 118.162 169.361 121.765C169.361 124.608 167.096 131.37 162.568 142.051L152.435 165.846C148.518 175.137 146.561 180.508 146.561 181.963C146.561 183.543 146.945 184.741 147.713 185.564C148.481 186.386 149.631 186.796 151.167 186.796C153.932 186.796 157.041 185.438 160.497 182.721C163.951 180.004 166.906 176.625 169.363 172.578H175.006L175 172.576Z" fill="white"/>
</g>
</g>
<defs>
<clipPath id="clip0_1051_12">
<rect width="256" height="256" fill="white"/>
</clipPath>
<clipPath id="clip1_1051_12">
<rect width="95" height="133" fill="white" transform="translate(80 61)"/>
</clipPath>
</defs>
</svg>
