<svg width="256" height="256" viewBox="0 0 256 256" fill="none" xmlns="http://www.w3.org/2000/svg">
<g clip-path="url(#clip0_2382_685)">
<path d="M256 127.998C256 161.946 242.514 194.504 218.509 218.509C194.504 242.514 161.946 256 127.998 256C94.0514 255.999 61.495 242.513 37.491 218.509C13.487 194.505 0.00116778 161.95 0 128.002C-2.00871e-08 94.0551 13.4853 61.4975 37.4895 37.4926C61.4936 13.4876 94.0505 0.00116783 127.998 0C161.946 -2.00871e-08 194.503 13.4853 218.508 37.4895C242.512 61.4935 255.999 94.0505 256 127.998Z" fill="#161616"/>
<path d="M148.756 88.6168C149.362 58.5761 132.352 32.3991 123.492 26.1078C123.451 26.0673 122.662 25.6426 122.723 26.8159C122.723 26.836 122.703 26.836 122.703 26.8563C121.793 83.6003 92.6246 98.8937 76.787 119.689C41.5918 165.933 70.9614 218.693 109.008 228.685C109.656 228.847 111.416 229.374 114.754 230.061C116.493 230.426 116.999 228.948 115.724 226.743C111.173 218.834 103.082 205.482 101.485 188.327C97.8437 148.496 148.047 123.573 148.756 88.6168Z" fill="white"/>
<path d="M167.931 107.855C167.627 107.632 167.203 107.653 167.163 108.036C166.354 115.259 158.889 130.229 149.059 144.227C115.967 191.423 132.635 212.825 145.58 227.674C147.966 230.425 149.16 229.819 150.414 227.856C151.587 225.995 153.367 223.628 161.014 220.007C162.207 219.441 191.092 204.107 194.227 169.191C197.241 135.408 175.576 114.045 167.931 107.855Z" fill="#008CD6"/>
<path d="M87 48.9994C87 59.0777 82.9963 68.7434 75.8699 75.8699C68.7434 82.9963 59.0777 87 48.9994 87C38.9215 86.9997 29.2563 82.996 22.1301 75.8699C15.004 68.7437 11.0003 59.0789 11 49.0006C11 38.9226 15.0034 29.2571 22.1297 22.1306C29.2559 15.0041 38.9212 11.0003 48.9994 11C59.0777 11 68.7431 15.0034 75.8696 22.1297C82.9957 29.2559 86.9997 38.9212 87 48.9994Z" fill="#FFA200"/>
<path d="M64.7974 44.8873C65.4581 40.4772 62.0947 38.1066 57.4956 36.5252L58.9876 30.5513L55.3448 29.6452L53.8924 35.4618C52.9348 35.2234 51.9513 34.9987 50.9739 34.776L52.4368 28.921L48.7963 28.0149L47.3035 33.9868C46.511 33.8067 45.7327 33.6287 44.9775 33.4411L44.9817 33.4223L39.9583 32.17L38.9893 36.054C38.9893 36.054 41.6919 36.6724 41.6349 36.7105C43.11 37.078 43.3768 38.0528 43.3325 38.8255L41.633 45.6311C41.7346 45.6568 41.8663 45.6941 42.0117 45.7524C41.8902 45.7223 41.7608 45.6894 41.6266 45.6573L39.2445 55.191C39.0642 55.6384 38.6066 56.3098 37.5753 56.0549C37.6118 56.1077 34.9277 55.3953 34.9277 55.3953L33.1191 59.5579L37.8596 60.7376C38.7415 60.9583 39.6057 61.1893 40.4567 61.4065L38.9493 67.4489L42.5879 68.355L44.0807 62.3768C45.0747 62.6462 46.0393 62.8947 46.9837 63.1289L45.4959 69.0789L49.1388 69.985L50.6461 63.954C56.8578 65.1276 61.5284 64.6544 63.4944 59.0457C65.0786 54.53 63.4155 51.9253 60.1476 50.2268C62.5278 49.6788 64.3206 48.116 64.7987 44.8878L64.7975 44.887L64.7974 44.8873ZM56.4745 56.5379C55.3487 61.0536 47.7325 58.6125 45.2632 58.0004L47.2636 49.9953C49.7327 50.6107 57.6511 51.8285 56.4747 56.5379H56.4745ZM57.6011 44.8218C56.5741 48.9293 50.2351 46.8425 48.1787 46.3309L49.9923 39.0707C52.0487 39.5824 58.6709 40.5375 57.6014 44.8218H57.6011Z" fill="white"/>
</g>
<defs>
<clipPath id="clip0_2382_685">
<rect width="256" height="256" fill="white"/>
</clipPath>
</defs>
</svg>
