<svg width="256" height="256" viewBox="0 0 256 256" fill="none" xmlns="http://www.w3.org/2000/svg">
<circle cx="127" cy="128" r="125" fill="black"/>
<g clip-path="url(#clip0_741_46)">
<path d="M128 3C58.412 3 2 59.412 2 129C2 198.588 58.412 255 128 255C197.588 255 254 198.588 254 129C254 95.5827 240.725 63.5341 217.095 39.9045C193.466 16.275 161.417 3 128 3ZM128 234.444C69.7623 234.444 22.556 187.233 22.556 129C22.556 70.7623 69.7674 23.556 128 23.556C186.238 23.556 233.444 70.7674 233.444 129C233.444 156.965 222.335 183.786 202.56 203.56C182.786 223.335 155.965 234.444 128 234.444Z" fill="#D98B31"/>
<path d="M128 23.5664C100.035 23.5664 73.2144 34.6757 53.4399 54.4502C33.6653 74.2248 22.556 101.045 22.556 129.01C22.556 156.976 33.6653 183.796 53.4399 203.571C73.2144 223.345 100.035 234.454 128 234.454C155.966 234.454 182.786 223.345 202.56 203.571C222.335 183.796 233.444 156.976 233.444 129.01C233.444 101.045 222.335 74.2248 202.56 54.4502C182.786 34.6757 155.966 23.5664 128 23.5664ZM167.878 190.483H137.602V132.868L118.172 145.159V180.295L127.208 189.604L126.534 190.442H96.0372V77.7053L87.4537 68.3967L88.3537 67.5584H118.172V124.824L137.602 113.227V77.7053L126.982 68.3967L127.434 67.5584H159.742V180.295L168.551 189.604L167.878 190.483Z" fill="black"/>
<path d="M159.742 67.5171H127.434L126.982 68.3914L137.602 77.6999V113.186L118.177 124.783V67.5171H88.3589L87.4589 68.3914L96.0371 77.6999V190.483H126.534L127.213 189.609L118.177 180.3V145.164L137.607 132.873V190.483H167.873L168.557 189.609L159.747 180.3L159.742 67.5171Z" fill="#D98B31"/>
</g>
<defs>
<clipPath id="clip0_741_46">
<rect width="252" height="252" fill="white" transform="translate(2 3)"/>
</clipPath>
</defs>
</svg>
