<svg width="256" height="256" viewBox="0 0 256 256" fill="none" xmlns="http://www.w3.org/2000/svg">
<g clip-path="url(#clip0_2137_10855)">
<path fill-rule="evenodd" clip-rule="evenodd" d="M128 0C198.697 0 256 57.3026 256 128C256 198.697 198.697 256 128 256C57.3026 256 0 198.697 0 128C0 57.3026 57.3026 0 128 0Z" fill="#14161B"/>
<path d="M208.941 122.724V102.319H188.152V70.5884H164.718V102.345H91.2806V70.5884H67.8463V102.345H47.0586V122.75H67.8463V133.275H47.0586V153.681H67.8463V185.412H91.2806V153.655H164.718V185.412H188.152V153.655H208.941V133.25H188.152V122.724H208.941ZM164.718 133.25H91.2806V122.724H164.718V133.25Z" fill="white"/>
</g>
<defs>
<clipPath id="clip0_2137_10855">
<rect width="256" height="256" fill="white"/>
</clipPath>
</defs>
</svg>
