<svg width="256" height="256" viewBox="0 0 256 256" fill="none" xmlns="http://www.w3.org/2000/svg">
<g clip-path="url(#clip0_1956_3170)">
<path d="M256 128C256 57.3075 198.692 0 128 0C57.3075 0 0 57.3075 0 128C0 198.692 57.3075 256 128 256C198.692 256 256 198.692 256 128Z" fill="#2E2E2E"/>
<path d="M138.221 234.508C132.771 234.882 127.097 234.689 121.732 234.508C96.9992 233.701 73.1584 222.187 55.3339 205.121C50.7923 200.349 46.63 194.557 45.9034 187.868C45.0592 178.09 52.7425 172.683 62.0502 173.741C84.4483 176.754 99.7135 200.349 117.298 212.628C128.545 221.214 142.303 227.61 156.708 227.604C162.596 227.369 168.928 226.546 173.288 222.203L173.485 222.416C166.63 231.553 149.025 233.776 138.221 234.508Z" fill="url(#paint0_linear_1956_3170)"/>
<path d="M175.27 216.56C173.192 208.743 163.254 208.481 156.58 208.465C146.792 207.904 136.955 208.048 127.231 207.044C119.061 206.403 110.282 204.367 103.059 200.536C114.717 212.05 129.192 222.742 145.547 226.316C151.12 227.866 157.077 227.786 162.773 227.065C167.037 226.338 169.884 225.387 172.657 223.073C173.443 222.426 174.088 221.625 174.551 220.719C175.014 219.813 175.286 218.821 175.35 217.805C175.378 217.388 175.351 216.97 175.27 216.56Z" fill="url(#paint1_linear_1956_3170)"/>
<path d="M234.396 116.576C233.573 105.644 230.031 94.9949 225.35 85.0622C222.524 79.6176 219.964 73.7455 215.776 69.1932L215.567 69.4016C222.027 80.5366 222.743 98.3771 207.307 101.887C202.124 102.796 196.578 101.813 191.641 100.21C191.368 100.322 191.256 100.033 191.016 100.017C190.834 100.055 190.674 100.017 190.572 99.8464C190.177 99.7396 189.749 99.4243 189.386 99.8144C189.536 99.6434 189.76 99.622 189.995 99.622C186.717 98.0368 183.519 96.2893 180.415 94.3858C179.747 93.9691 178.988 93.6057 178.369 93.1783L173.485 90.3304C144.226 71.0366 120.225 47.9866 82.204 50.6634C61.9751 51.9191 42.6118 62.2045 31.0387 78.8108C22.5325 90.6884 17.2643 107.337 24.2103 121.101C24.3225 121.085 24.3973 121 24.5148 120.989C19.5671 108.94 26.8016 98.1794 36.5581 91.2494C47.2069 84.4424 59.9768 82.1822 72.4315 82.257C93.2802 83.7531 113.413 91.4578 130.821 102.785C139.583 108.059 147.865 114.177 156.366 119.878C162.361 124.013 168.911 127.518 174.799 131.702C176.167 132.049 177.3 133.038 178.577 133.641C185.363 137.638 192.656 140.716 200.163 143.083C200.249 143.045 200.302 143.067 200.339 143.147C200.676 143.307 201.087 143.099 201.355 143.387C201.873 143.697 202.53 143.494 202.995 143.804C203.524 143.986 204.176 143.932 204.63 144.194C222.048 148.404 233.13 138.37 234.391 121.422L234.396 116.576Z" fill="url(#paint2_linear_1956_3170)"/>
<path d="M150.826 53.8316C145.564 48.5321 139.741 43.8203 133.461 39.7793C127.06 35.5369 120.146 31.6472 112.596 29.9053C107.285 28.0085 101.333 27.8055 95.6904 27.9391C92.4097 28.249 89.0917 28.8314 86.1156 30.2793C84.7371 30.6106 83.957 32.1708 82.6105 32.3578C82.5973 32.4056 82.5723 32.4492 82.5378 32.4847C82.5032 32.5202 82.4602 32.5464 82.4128 32.5608C82.4128 32.7318 82.3594 32.8814 82.1991 32.9616L82.2098 32.9509C77.6628 37.9894 81.1412 43.8294 86.9972 45.6781C90.1763 47.0032 93.6226 46.8268 96.978 47.0833C102.855 47.2543 108.749 47.4306 114.61 47.6978C127.134 48.0664 140.22 48.7397 151.509 54.5583C151.355 54.2537 151.066 54.056 150.826 53.8316Z" fill="url(#paint3_linear_1956_3170)"/>
<path d="M209.091 65.1268C203.588 45.9184 174.137 30.4395 155.96 25.1285L155.591 25.043C155.484 25.0751 155.399 25.043 155.34 24.9415C155.073 24.8239 154.725 24.9789 154.533 24.7278C154.255 24.6102 153.913 24.7812 153.715 24.514L153.352 24.4339C153.245 24.4713 153.16 24.4339 153.096 24.3377C150.029 23.4721 146.769 22.9592 143.713 22.3287L143.339 22.286C138.258 21.2708 133.022 20.8968 127.828 21.0517C120.711 20.8861 113.61 21.0678 106.59 22.3448C98.3078 24.2522 88.3056 25.5399 82.6045 32.363C83.9563 32.1867 84.7417 30.6105 86.1202 30.2846C89.0963 28.8313 92.409 28.2542 95.695 27.9443C101.332 27.8107 107.289 28.0138 112.601 29.9052C120.15 31.6524 127.059 35.5475 133.46 39.7846C136.244 41.6119 138.878 43.7064 141.704 45.4589C145.3 48.4831 148.602 51.8813 152.08 55.0016C165.732 66.4144 180.319 84.7198 200.2 81.3964C201.376 81.1079 202.615 80.7125 203.657 79.9752C203.679 79.8897 203.737 79.8469 203.828 79.8683L204.058 79.7561C204.079 79.6706 204.133 79.6386 204.218 79.6492C208.984 76.7105 210.486 70.2668 209.091 65.1268Z" fill="url(#paint4_linear_1956_3170)"/>
<path d="M231.111 134.143C236.459 140.822 229.711 169.06 191.914 173.084C179.996 173.822 168.052 172.135 156.805 168.125L157.179 167.88C174.421 167.062 191.791 157.423 202.215 143.659L202.435 143.649C202.942 143.964 203.663 143.852 204.251 144.071C204.293 144.131 204.354 144.175 204.423 144.196C204.493 144.217 204.568 144.215 204.636 144.188C215.066 146.855 225.88 144.028 231.095 134.106L231.335 134.581L231.111 134.143Z" fill="url(#paint5_linear_1956_3170)"/>
<path d="M174.142 131.114C172 129.767 169.814 128.485 167.709 127.08V127.117L167.698 127.08C147.828 115.282 129.779 99.1089 108.011 90.7256C94.6105 97.2869 85.2495 110.869 83.2832 125.589C99.0666 135.517 114.262 146.443 130.302 155.938C138.718 160.747 147.373 165.662 156.804 168.12C167.543 160.047 174.302 147.197 174.741 133.817C174.644 132.898 175.264 131.52 174.137 131.109L174.142 131.114Z" fill="url(#paint6_linear_1956_3170)"/>
<path d="M104.688 89.5071C90.4323 84.0892 73.2489 80.4559 58.1334 82.6252C48.6227 84.0037 40.2448 87.6691 32.9087 94.1556C24.9155 101.198 20.2884 110.559 24.5094 120.988C32.6416 108.523 42.1309 109.196 55.4618 112.386C59.0257 108.379 63.1772 104.949 67.5372 101.834C79.2171 94.5189 93.7877 89.1758 107.6 90.923C107.915 90.8535 107.738 90.8963 108.006 90.7307C106.846 90.1055 105.911 90.004 104.688 89.5071Z" fill="url(#paint7_linear_1956_3170)"/>
<path d="M25.3317 119.15C26.9239 116.639 28.2009 115.736 30.6694 114.021C39.0634 108.16 47.4199 110.468 55.4506 112.381C81.3538 121.378 102.844 139.139 125.872 153.458C135.778 159.052 145.722 165.197 156.793 168.125C168.013 172.122 179.998 173.842 191.902 173.089C229.87 168.868 236.394 141.078 231.099 134.138C233.305 137.034 234.07 141.121 234.214 145.027C234.331 146.08 234.385 147.26 234.385 148.281V151.107C233.562 159.966 230.1 169.092 224.65 176.198C206.579 203.128 171.299 210.811 141.405 200.851C118.483 193.275 99.9904 176.984 80.3333 163.701C70.6035 157.898 59.6342 151.732 47.8741 153.72C42.1517 154.869 37.4337 159.683 35.943 165.208C34.666 172.49 36.3758 179.965 39.8969 186.366C39.86 186.401 39.8243 186.436 39.79 186.473C37.6688 184.518 36.2369 181.894 34.7675 179.431C30.4129 171.764 26.7529 163.696 24.1402 155.275C21.6236 146.753 19.9565 137.68 21.8533 128.891C22.2541 126.54 22.8418 124.05 23.7929 121.881C24.1134 121.133 25.3317 119.15 25.3317 119.15Z" fill="url(#paint8_linear_1956_3170)"/>
</g>
<defs>
<linearGradient id="paint0_linear_1956_3170" x1="45.8019" y1="192.356" x2="172.833" y2="236.618" gradientUnits="userSpaceOnUse">
<stop stop-color="#FF8448"/>
<stop offset="1" stop-color="#FDAB53"/>
</linearGradient>
<linearGradient id="paint1_linear_1956_3170" x1="94.0769" y1="200.611" x2="152.755" y2="227.967" gradientUnits="userSpaceOnUse">
<stop stop-color="#C2C2C1"/>
<stop offset="1" stop-color="#EDEDED"/>
</linearGradient>
<linearGradient id="paint2_linear_1956_3170" x1="13.1661" y1="111.334" x2="239.504" y2="97.6451" gradientUnits="userSpaceOnUse">
<stop stop-color="#F92197"/>
<stop offset="0.439" stop-color="#DA7BF1"/>
<stop offset="1" stop-color="#15C0FC"/>
</linearGradient>
<linearGradient id="paint3_linear_1956_3170" x1="71.2511" y1="27.9818" x2="129.165" y2="55.0178" gradientUnits="userSpaceOnUse">
<stop stop-color="#C2C2C1"/>
<stop offset="1" stop-color="#EDEDED"/>
</linearGradient>
<linearGradient id="paint4_linear_1956_3170" x1="103.758" y1="20.9983" x2="240.033" y2="82.6948" gradientUnits="userSpaceOnUse">
<stop stop-color="#AAA0F8"/>
<stop offset="0.486" stop-color="#29B5FF"/>
<stop offset="1" stop-color="#00BFFC"/>
</linearGradient>
<linearGradient id="paint5_linear_1956_3170" x1="147.374" y1="134.213" x2="214.692" y2="156.969" gradientUnits="userSpaceOnUse">
<stop stop-color="#C2C2C1"/>
<stop offset="1" stop-color="#EDEDED"/>
</linearGradient>
<linearGradient id="paint6_linear_1956_3170" x1="83.3954" y1="112.37" x2="174.548" y2="149.932" gradientUnits="userSpaceOnUse">
<stop stop-color="#FFE022"/>
<stop offset="1" stop-color="#FB4111"/>
</linearGradient>
<linearGradient id="paint7_linear_1956_3170" x1="12.3432" y1="82.0962" x2="85.7945" y2="110.03" gradientUnits="userSpaceOnUse">
<stop stop-color="#C2C2C1"/>
<stop offset="1" stop-color="#EDEDED"/>
</linearGradient>
<linearGradient id="paint8_linear_1956_3170" x1="13.1975" y1="171.203" x2="239.487" y2="157.519" gradientUnits="userSpaceOnUse">
<stop stop-color="#FB6B91"/>
<stop offset="0.643" stop-color="#FEBA74"/>
<stop offset="1" stop-color="#B2E094"/>
</linearGradient>
<clipPath id="clip0_1956_3170">
<rect width="256" height="256" fill="white"/>
</clipPath>
</defs>
</svg>
