<svg width="256" height="256" viewBox="0 0 256 256" fill="none" xmlns="http://www.w3.org/2000/svg">
<g clip-path="url(#clip0_2383_696)">
<path d="M128 255.999C198.692 255.999 255.999 198.692 255.999 128C255.999 57.3074 198.692 0 128 0C57.3074 0 0 57.3074 0 128C0 198.692 57.3074 255.999 128 255.999Z" fill="#FDFFA0"/>
<path d="M145.874 84.2627C144.37 84.0478 143.08 84.0478 141.576 84.0478C131.044 84.0478 120.728 88.3463 111.486 96.5135C107.188 100.382 103.104 105.111 99.4502 110.269C98.8055 90.2806 97.7308 69.0029 95.5816 47.2954H68.7158C74.5188 108.334 73.874 161.636 72.7994 208.49V208.705H99.6652C100.525 161.851 112.131 131.761 129.54 116.287C134.268 112.203 138.782 110.269 142.865 110.699C164.143 113.063 160.704 179.26 159.2 208.705H186.065C187.14 186.997 188.43 160.561 185.421 137.779C181.122 104.466 167.582 86.6269 145.874 84.2627Z" fill="url(#paint0_linear_2383_696)"/>
</g>
<defs>
<linearGradient id="paint0_linear_2383_696" x1="128.143" y1="213.888" x2="128.143" y2="78.7346" gradientUnits="userSpaceOnUse">
<stop stop-color="#0000B4"/>
<stop offset="0.01" stop-color="#0000B4"/>
<stop offset="1" stop-color="#000050"/>
</linearGradient>
<clipPath id="clip0_2383_696">
<rect width="256" height="256" fill="white"/>
</clipPath>
</defs>
</svg>
