<svg width="256" height="256" viewBox="0 0 256 256" fill="none" xmlns="http://www.w3.org/2000/svg">
<g clip-path="url(#clip0_2857_92)">
<path d="M128 256C198.692 256 256 198.692 256 128C256 57.3075 198.692 0 128 0C57.3075 0 0 57.3075 0 128C0 198.692 57.3075 256 128 256Z" fill="#00838D"/>
<path d="M55.1037 169.281C56.6508 169.281 58.2715 169.355 59.8186 169.281C62.7653 169.06 65.7121 168.469 68.5853 167.731C74.2578 166.18 79.5621 163.522 84.2033 159.905C85.5293 158.871 86.8554 157.764 88.1078 156.583C90.7599 153.925 93.0437 150.898 94.8854 147.649C96.5061 144.77 97.6849 141.669 98.5689 138.495C98.6426 138.273 98.6426 137.978 98.7162 137.756H95.8431C92.97 137.756 90.0232 137.756 87.1501 137.756C84.719 137.756 82.3615 137.461 80.0041 136.944C79.7831 136.87 79.5621 136.797 79.3411 136.797C79.1937 136.723 79.1201 136.649 79.0464 136.575C79.7094 135.098 80.2988 133.696 80.8881 132.219L85.382 121.809C85.5293 121.292 85.7503 120.85 86.045 120.407C86.3397 120.111 86.7817 119.964 87.2237 119.964C90.8336 119.89 94.3697 119.964 97.9795 119.964H98.9372C98.7899 119.373 98.7899 118.93 98.6426 118.413C97.3165 113.393 95.0327 108.742 91.8649 104.681C90.3179 102.688 88.6235 100.842 86.7817 99.07C84.498 96.929 81.9932 95.0833 79.1937 93.5329C76.3206 91.9087 73.3001 90.5797 70.206 89.5461C67.6276 88.734 64.9754 88.1434 62.2497 87.7743C60.1132 87.5528 58.0505 87.4789 55.9141 87.3313C55.3984 87.3313 54.8827 87.2575 54.367 87.1836C54.146 87.1098 53.9986 86.9621 53.925 86.7407C53.1883 85.0426 52.4516 83.4184 51.7149 81.7203C50.8308 79.7269 50.0205 77.7336 49.1364 75.814C48.4734 74.1898 47.7367 72.6394 47 70.9413C47.5157 70.7937 48.0314 70.646 48.5471 70.4983C51.7885 70.0554 55.1037 69.9077 58.4188 70.0554C63.6494 70.203 68.8799 71.0151 74.0368 72.3441C77.2783 73.23 80.5198 74.3374 83.6139 75.6664C87.9604 77.5121 92.0859 79.8008 95.9168 82.5324C97.6112 83.7875 99.3056 85.1164 100.926 86.4453C101.663 87.036 102.4 87.7004 103.136 88.3649C106.82 91.9087 110.061 95.9692 112.787 100.325C115.513 104.681 117.502 109.406 118.828 114.353C119.27 115.977 119.565 117.675 119.933 119.299C120.007 119.521 120.228 119.742 120.523 119.742C125.458 119.742 130.468 119.742 135.477 119.742C135.772 118.561 135.993 117.38 136.214 116.198C137.098 112.728 138.277 109.406 139.75 106.231C140.929 103.574 142.402 100.99 144.097 98.6271C145.644 96.486 147.265 94.345 149.033 92.3516C150.359 90.8012 151.759 89.3247 153.232 87.9957C156.326 85.1903 159.641 82.6801 163.251 80.4652C166.935 78.1765 170.765 76.3308 174.817 74.8542C177.617 73.8945 180.416 73.0085 183.216 72.2702C185.352 71.7534 187.415 71.3843 189.625 71.089C191.393 70.7937 193.235 70.646 195.076 70.4983C196.255 70.4245 197.36 70.3507 198.539 70.3507C200.307 70.3507 202.001 70.2769 203.696 70.3507C205.39 70.4245 207.085 70.7937 208.779 71.089C208.853 71.089 208.853 71.1628 209 71.3105L207.748 74.2636C206.422 77.3644 205.095 80.4652 203.696 83.6399C203.18 84.7473 202.664 85.8547 202.222 87.036C201.928 87.7743 201.191 87.4789 200.675 87.6266C200.233 87.7004 199.865 87.7004 199.423 87.6266C194.782 87.7004 190.214 88.3649 185.794 89.62C182.995 90.4321 180.269 91.4657 177.69 92.7208C174.523 94.2712 171.576 96.1907 168.85 98.4794C167.745 99.4392 166.493 100.399 165.461 101.506C162.809 104.164 160.525 107.191 158.683 110.513C157.21 113.245 156.031 116.124 155.147 119.151C155.074 119.373 155.074 119.668 155 119.89H155.81C159.641 119.89 163.546 119.816 167.377 119.89C169.66 119.89 171.944 120.259 174.154 120.997C174.228 121.071 174.301 121.071 174.375 121.145L172.239 126.018C170.765 129.487 169.218 132.957 167.745 136.501C167.303 137.535 167.008 137.756 165.829 137.756H155.074C155.368 138.79 155.589 139.676 155.884 140.562C156.915 143.663 158.389 146.616 160.231 149.347C161.336 150.972 162.514 152.448 163.767 153.925C164.503 154.811 165.314 155.697 166.124 156.435C168.85 159.093 171.944 161.381 175.259 163.227C178.059 164.851 181.079 166.18 184.173 167.214C187.12 168.248 190.214 168.912 193.382 169.207C195.297 169.355 197.286 169.503 199.202 169.65C199.939 169.724 200.675 169.724 201.412 169.798C201.559 169.872 201.707 169.946 201.78 170.093C203.033 173.046 204.285 176 205.611 178.953C206.643 181.315 207.674 183.678 208.779 186.188C207.748 186.409 206.79 186.631 205.759 186.705C203.254 186.852 200.675 187 198.171 187C195.887 187 193.603 186.779 191.393 186.483C188.372 186.04 185.278 185.523 182.258 184.859C178.648 183.973 175.112 182.792 171.649 181.315C167.524 179.543 163.693 177.402 160.01 174.818C158.094 173.416 156.252 171.939 154.411 170.462C153.232 169.503 152.053 168.395 151.022 167.288C148.664 164.851 146.454 162.267 144.539 159.462C142.697 156.804 141.076 153.999 139.677 151.045C137.982 147.502 136.804 143.736 135.993 139.897C135.846 139.528 135.772 139.085 135.698 138.716C135.698 137.978 135.33 137.83 134.667 137.83C129.952 137.83 125.311 137.83 120.596 137.83H119.786C119.049 141.817 117.87 145.73 116.25 149.495C114.924 152.67 113.303 155.697 111.314 158.502C109.767 160.643 108.146 162.784 106.378 164.778C105.126 166.328 103.726 167.731 102.252 169.06C99.9686 171.053 97.5375 172.899 95.1064 174.744C92.1596 176.812 89.0655 178.657 85.824 180.134C81.9195 181.98 77.8677 183.456 73.7422 184.49C71.3847 185.08 69.0273 185.523 66.6699 185.893C64.3861 186.262 62.1023 186.483 59.8186 186.705C58.4925 186.779 57.1664 186.779 55.9141 186.705C53.9986 186.705 52.0832 186.631 50.2415 186.557C49.5784 186.483 48.9154 186.409 48.2524 186.262C47.884 186.188 47.7367 186.04 47.9577 185.597C49.4311 182.201 50.9782 178.805 52.4516 175.409C53.3356 173.342 54.146 171.422 55.1037 169.281Z" fill="white"/>
</g>
<defs>
<clipPath id="clip0_2857_92">
<rect width="256" height="256" fill="white"/>
</clipPath>
</defs>
</svg>
