<svg width="256" height="256" viewBox="0 0 256 256" fill="none" xmlns="http://www.w3.org/2000/svg">
<path d="M128 256C198.693 256 256 198.693 256 128C256 57.3076 198.693 0 128 0C57.3076 0 0 57.3076 0 128C0 198.693 57.3076 256 128 256Z" fill="#20817F"/>
<path d="M116.965 209.214C116.965 209.214 153.599 188.911 96.2289 151.394C63.1151 129.324 59.1343 103.724 70.6184 77.6839C75.0319 71.9444 80.7714 65.7671 90.4817 58.7041C56.9455 90.484 94.012 119.614 113.432 132.414C143.446 151.834 182.296 187.145 131.529 211.421C131.529 211.421 123.585 210.981 116.965 209.214Z" fill="white"/>
<path d="M72.8289 83.4209V88.285C74.5953 108.145 94.8983 125.361 111.229 135.952C137.712 153.161 152.718 170.814 151.835 184.065C151.395 192.892 144.332 200.395 130.651 207.015C129.768 207.015 128.002 206.575 126.235 206.575C129.325 203.042 132.415 197.745 132.415 191.568C132.858 177.885 121.381 162.878 97.9882 147.872C71.5053 129.767 63.1188 109.021 72.8289 83.4209ZM90.4925 58.7041C80.7828 65.3243 75.0433 71.5041 70.6298 77.6839C58.713 103.724 62.6938 129.324 96.2295 151.394C154.05 189.354 116.965 209.214 116.965 209.214C123.143 210.981 131.529 211.421 131.529 211.421C182.292 187.137 143.449 151.834 113.435 132.414C94.0151 119.614 56.9466 90.484 90.4925 58.7041Z" fill="white"/>
<path d="M170.816 114.76C150.08 94.8972 96.2229 67.5305 131.976 44.1372C120.908 44.9798 110.113 47.9793 100.196 52.9666C75.4794 93.5737 136.83 118.291 160.223 143.007C181.409 163.743 183.176 197.738 151.396 210.538C151.836 210.538 152.279 210.538 152.72 210.097C186.266 199.937 209.667 151.394 170.816 114.76Z" fill="white"/>
<path d="M118.727 50.3196C116.52 53.4095 115.637 56.9398 115.196 60.4726C114.756 76.3625 134.176 91.369 150.947 104.609C157.127 109.473 162.866 113.879 167.28 117.852C182.727 132.416 189.347 150.956 184.944 169.052C183.61 174.339 181.843 179.203 179.196 183.616C181.403 168.609 175.223 152.279 162.866 140.352C156.686 133.729 147.859 127.109 138.59 120.049C125.79 110.779 112.547 100.626 105.054 90.0327C97.1177 78.559 96.2268 67.9657 102.847 56.4969C108.144 53.8498 113.44 51.6329 118.737 50.317L118.727 50.3196ZM131.537 44.1372C120.465 44.98 109.666 47.9803 99.7468 52.9692C75.0297 93.5758 136.383 118.293 159.776 143.009C180.963 163.745 182.727 197.74 150.947 210.54C151.39 210.54 151.83 210.54 152.273 210.099C185.809 199.946 209.21 151.396 170.37 114.762C150.066 94.8993 96.2166 67.533 131.527 44.1398L131.537 44.1372Z" fill="white"/>
</svg>
