<svg width="256" height="256" viewBox="0 0 256 256" fill="none" xmlns="http://www.w3.org/2000/svg">
<g clip-path="url(#clip0_1934_1676)">
<path d="M128 256C198.692 256 256 198.692 256 128C256 57.3075 198.692 0 128 0C57.3075 0 0 57.3075 0 128C0 198.692 57.3075 256 128 256Z" fill="#00226B"/>
<path d="M128 252.997C196.947 252.997 252.839 197.105 252.839 128.158C252.839 59.2109 196.947 3.31836 128 3.31836C59.0527 3.31836 3.16016 59.2109 3.16016 128.158C3.16016 197.105 59.0527 252.997 128 252.997Z" fill="url(#paint0_linear_1934_1676)"/>
<path d="M127.843 246.517C193.299 246.517 246.361 193.455 246.361 127.999C246.361 62.543 193.299 9.48047 127.843 9.48047C62.3868 9.48047 9.32422 62.543 9.32422 127.999C9.32422 193.455 62.3868 246.517 127.843 246.517Z" fill="url(#paint1_linear_1934_1676)"/>
<path d="M128.001 243.517C191.711 243.517 243.359 191.869 243.359 128.159C243.359 64.4483 191.711 12.8008 128.001 12.8008C64.2901 12.8008 12.6426 64.4483 12.6426 128.159C12.6426 191.869 64.2901 243.517 128.001 243.517Z" fill="white"/>
<path fill-rule="evenodd" clip-rule="evenodd" d="M185.6 114.41C183.709 114.41 181.861 114.192 180.072 113.774C181.866 114.148 183.712 114.363 185.6 114.41Z" fill="#D9D9D9"/>
<path fill-rule="evenodd" clip-rule="evenodd" d="M75.9289 113.774C74.1404 114.192 72.2919 114.41 70.4004 114.41C72.2889 114.363 74.1344 114.148 75.9289 113.774Z" fill="#D9D9D9"/>
<path d="M70.4005 114.41C54.6475 114.41 41.8771 99.2349 41.8771 80.5144C41.8771 61.7939 54.6475 46.618 70.4005 46.618C86.1535 46.618 98.924 61.7939 98.924 80.5144C98.924 96.9869 89.036 110.715 75.929 113.774C97.5075 109.28 111.653 81.8329 102.874 46.618C99.939 35.0668 97.3305 29.0167 91.655 18.6431C45.7529 33.8691 12.6426 77.1474 12.6426 128.159C12.6426 133.656 13.0271 139.064 13.7708 144.356C32.7907 122.391 54.835 118.124 70.4005 114.41Z" fill="#36C2F1"/>
<path d="M214.124 80.5144C214.124 99.2349 201.353 114.41 185.6 114.41C201.166 118.124 223.21 122.391 242.23 144.356C242.974 139.064 243.359 133.656 243.359 128.159C243.359 77.1474 210.248 33.8691 164.346 18.6431C158.67 29.0167 156.062 35.0668 153.126 46.618C144.348 81.8329 158.493 109.28 180.072 113.774C166.965 110.715 157.077 96.9869 157.077 80.5144C157.077 61.7939 169.847 46.618 185.6 46.618C201.353 46.618 214.124 61.7939 214.124 80.5144Z" fill="#36C2F1"/>
<path d="M41.877 80.5146C41.877 99.2351 54.6473 114.411 70.4003 114.411C72.2888 114.363 74.1343 114.148 75.9288 113.775C89.0358 110.716 98.9238 96.9871 98.9238 80.5146C98.9238 61.7941 86.1533 46.6182 70.4003 46.6182C54.6473 46.6182 41.877 61.7941 41.877 80.5146Z" fill="#0D0D17"/>
<path d="M185.601 114.411C201.354 114.411 214.124 99.2351 214.124 80.5146C214.124 61.7941 201.354 46.6182 185.601 46.6182C169.848 46.6182 157.077 61.7941 157.077 80.5146C157.077 96.9871 166.965 110.716 180.073 113.775C181.867 114.148 183.713 114.363 185.601 114.411Z" fill="#0D0D17"/>
<path d="M70.0067 78.2221C79.1705 78.2221 86.5993 71.9254 86.5993 64.1579C86.5993 56.3905 79.1705 50.0938 70.0067 50.0938C60.8428 50.0938 53.4141 56.3905 53.4141 64.1579C53.4141 71.9254 60.8428 78.2221 70.0067 78.2221Z" fill="white"/>
<path d="M50.3326 68.5831C51.5108 68.5831 52.4659 67.628 52.4659 66.4497C52.4659 65.2715 51.5108 64.3164 50.3326 64.3164C49.1543 64.3164 48.1992 65.2715 48.1992 66.4497C48.1992 67.628 49.1543 68.5831 50.3326 68.5831Z" fill="white"/>
<path d="M55.8626 78.38C56.6917 78.38 57.3638 77.814 57.3638 77.1158C57.3638 76.4176 56.6917 75.8516 55.8626 75.8516C55.0335 75.8516 54.3613 76.4176 54.3613 77.1158C54.3613 77.814 55.0335 78.38 55.8626 78.38Z" fill="white"/>
<path d="M88.5742 67.9494C89.0542 67.9494 89.4434 67.5956 89.4434 67.1593C89.4434 66.7229 89.0542 66.3691 88.5742 66.3691C88.0942 66.3691 87.7051 66.7229 87.7051 67.1593C87.7051 67.5956 88.0942 67.9494 88.5742 67.9494Z" fill="white"/>
<path d="M73.3244 103.19C76.1172 103.19 78.3812 100.926 78.3812 98.133C78.3812 95.3402 76.1172 93.0762 73.3244 93.0762C70.5316 93.0762 68.2676 95.3402 68.2676 98.133C68.2676 100.926 70.5316 103.19 73.3244 103.19Z" fill="white"/>
<path d="M61.0785 98.1337C62.344 98.1337 63.3698 97.1432 63.3698 95.9213C63.3698 94.6995 62.344 93.709 61.0785 93.709C59.813 93.709 58.7871 94.6995 58.7871 95.9213C58.7871 97.1432 59.813 98.1337 61.0785 98.1337Z" fill="white"/>
<path d="M68.5048 108.562C70.4684 108.562 72.0603 107.395 72.0603 105.955C72.0603 104.515 70.4684 103.348 68.5048 103.348C66.5411 103.348 64.9492 104.515 64.9492 105.955C64.9492 107.395 66.5411 108.562 68.5048 108.562Z" fill="white"/>
<path d="M185.839 78.0635C195.003 78.0635 202.431 71.7667 202.431 63.9993C202.431 56.2318 195.003 49.9351 185.839 49.9351C176.675 49.9351 169.246 56.2318 169.246 63.9993C169.246 71.7667 176.675 78.0635 185.839 78.0635Z" fill="white"/>
<path d="M205.67 68.7393C206.849 68.7393 207.804 67.7842 207.804 66.606C207.804 65.4278 206.849 64.4727 205.67 64.4727C204.492 64.4727 203.537 65.4278 203.537 66.606C203.537 67.7842 204.492 68.7393 205.67 68.7393Z" fill="white"/>
<path d="M199.982 78.38C200.811 78.38 201.483 77.814 201.483 77.1158C201.483 76.4176 200.811 75.8516 199.982 75.8516C199.153 75.8516 198.48 76.4176 198.48 77.1158C198.48 77.814 199.153 78.38 199.982 78.38Z" fill="white"/>
<path d="M167.43 67.9494C167.91 67.9494 168.299 67.5956 168.299 67.1593C168.299 66.7229 167.91 66.3691 167.43 66.3691C166.95 66.3691 166.561 66.7229 166.561 67.1593C166.561 67.5956 166.95 67.9494 167.43 67.9494Z" fill="white"/>
<path d="M189.947 103.348C192.74 103.348 195.004 101.084 195.004 98.2912C195.004 95.4984 192.74 93.2344 189.947 93.2344C187.155 93.2344 184.891 95.4984 184.891 98.2912C184.891 101.084 187.155 103.348 189.947 103.348Z" fill="white"/>
<path d="M176.911 98.1337C178.176 98.1337 179.202 97.1432 179.202 95.9213C179.202 94.6995 178.176 93.709 176.911 93.709C175.645 93.709 174.619 94.6995 174.619 95.9213C174.619 97.1432 175.645 98.1337 176.911 98.1337Z" fill="white"/>
<path d="M185.759 108.721C187.722 108.721 189.314 107.553 189.314 106.113C189.314 104.673 187.722 103.506 185.759 103.506C183.795 103.506 182.203 104.673 182.203 106.113C182.203 107.553 183.795 108.721 185.759 108.721Z" fill="white"/>
<path d="M56.0996 143.091L59.8921 139.535L60.3666 138.982C60.2376 139.289 60.1736 139.464 60.2516 139.894C60.2876 140.089 60.7616 140.484 62.4206 141.748C64.0801 143.011 77.0381 149.965 87.8626 152.177C96.9141 153.488 101.253 153.241 108.406 152.019C115.107 150.404 118.287 148.848 123.418 145.461C123.655 145.145 123.26 144.829 123.576 144.908L125.236 145.066V146.646L124.129 152.967L119.863 157.629L110.855 161.817H93.5516L78.3021 158.814L69.1366 154.864L61.1566 149.254L57.2061 144.75L56.0996 143.091Z" fill="#97C1D2"/>
<path d="M199.823 143.091L196.03 139.535L195.556 138.982C195.685 139.289 195.749 139.464 195.671 139.894C195.635 140.089 195.161 140.484 193.502 141.748C191.842 143.011 178.884 149.965 168.06 152.177C159.008 153.488 154.67 153.241 147.516 152.019C140.816 150.404 137.635 148.848 132.504 145.461C132.267 145.145 132.662 144.829 132.346 144.908L130.687 145.066V146.646L131.793 152.967L136.06 157.629L145.067 161.817H162.371L177.62 158.814L186.785 154.864L194.766 149.254L198.716 144.75L199.823 143.091Z" fill="#97C1D2"/>
<path fill-rule="evenodd" clip-rule="evenodd" d="M115.516 142.417C116.603 142.87 117.501 143.235 118.292 143.538C117.346 143.206 116.419 142.831 115.516 142.417Z" fill="#D9D9D9" fill-opacity="0.51"/>
<path fill-rule="evenodd" clip-rule="evenodd" d="M140.486 142.417C139.399 142.87 138.5 143.235 137.71 143.538C138.656 143.206 139.582 142.831 140.486 142.417Z" fill="#D9D9D9" fill-opacity="0.51"/>
<path d="M51.834 146.41C54.0465 154.074 59.814 166.558 63.0535 172.958C75.3805 198.613 97.0715 227.624 125.782 227.634C127.495 227.706 128.48 227.728 130.212 227.634C158.921 227.622 180.621 198.612 192.947 172.958C196.187 166.558 201.955 154.074 204.167 146.41L204.186 146.366C204.405 145.853 204.43 145.795 205.352 146.41C207.064 147.548 210.651 150.123 211.753 149.965C212.626 149.728 213.214 149.297 213.411 148.938C213.648 148.508 213.728 147.674 213.654 147.121C213.546 146.28 211.676 142.775 208.829 140.326C203.616 135.901 200.219 135.111 197.533 135.19C195.479 135.19 194.61 136.77 194.689 137.797C194.721 138.02 194.768 138.271 194.926 138.429C195.716 139.615 197.137 140.879 198.797 142.538C199.009 142.796 199.123 142.944 199.113 143.328C199.071 143.61 198.954 143.837 198.481 144.434C198.111 144.884 197.909 145.116 197.533 145.54C195.639 147.552 194.471 148.687 191.686 150.755C188.285 153.1 186.291 154.192 182.678 155.812C178.088 157.788 175.364 158.56 170.352 159.684C163.705 160.748 159.834 161.139 152.495 161.027C142.698 160.237 138.984 158.499 135.745 155.97C132.979 153.679 131.873 149.886 131.557 146.015C131.617 145.789 131.676 145.665 131.952 145.461C132.388 145.157 132.662 144.993 133.533 144.829C134.936 144.51 136.099 144.154 137.71 143.538C138.5 143.236 139.398 142.871 140.486 142.417C151.373 137.429 158.816 126.02 158.816 118.202C158.816 107.642 145.105 99.8711 127.999 99.8711C127.064 99.8711 126.14 99.8946 125.228 99.9401C125.097 99.9466 124.966 99.9536 124.837 99.9611C109.235 100.854 97.1845 108.302 97.1845 118.202C97.1845 126.02 104.629 137.429 115.516 142.417C116.603 142.871 117.501 143.236 118.292 143.538C119.902 144.154 121.066 144.51 122.468 144.829C122.951 144.92 123.25 145.011 123.495 145.126C123.692 145.218 123.855 145.326 124.049 145.461C124.325 145.665 124.384 145.789 124.444 146.015C124.128 149.886 123.021 153.679 120.256 155.97C117.016 158.499 113.303 160.237 103.506 161.027C96.1675 161.139 92.296 160.748 85.6485 159.684C80.637 158.56 77.9135 157.788 73.323 155.812C69.7095 154.192 67.717 153.1 64.3155 150.755C61.5305 148.687 60.362 147.552 58.4685 145.54C58.092 145.116 57.8905 144.884 57.5205 144.434C57.0475 143.837 56.9305 143.61 56.888 143.328C56.878 142.944 56.992 142.796 57.2045 142.538C58.2585 141.484 59.217 140.589 59.9785 139.773C60.4155 139.304 60.788 138.861 61.076 138.429C61.234 138.271 61.2805 138.02 61.313 137.797C61.392 136.77 60.523 135.19 58.4685 135.19C55.782 135.111 52.3845 135.901 47.1722 140.326C44.3253 142.775 42.4554 146.28 42.3466 147.121C42.2734 147.674 42.3527 148.508 42.5895 148.938C42.7872 149.297 43.3752 149.728 44.2488 149.965C45.3505 150.123 48.9367 147.548 50.649 146.41C51.597 145.778 51.597 145.857 51.834 146.41Z" fill="#0D0D17"/>
<path d="M116.59 187.441C120.62 187.757 124.491 188.942 126.862 190.443C127.32 190.818 127.646 190.995 127.968 190.986V221.495C116.59 221.337 104.817 215.885 99.6811 209.722C95.6516 204.665 94.7826 200.399 95.8886 196.448C97.4691 192.497 101.341 189.89 107.267 188.389C110.934 187.548 112.965 187.341 116.59 187.441Z" fill="#F59393"/>
<path d="M129.075 190.445C131.445 188.943 135.317 187.758 139.346 187.442C142.972 187.343 145.002 187.55 148.67 188.39C154.596 189.892 158.467 192.499 160.048 196.45C161.154 200.4 160.285 204.667 156.255 209.724C151.119 215.887 139.346 221.338 127.969 221.497V190.988C128.29 190.997 128.617 190.819 129.075 190.445Z" fill="#F59393"/>
<path d="M97.0281 227.73C96.7911 227.73 96.2381 228.204 96.0801 228.757C96.8146 231.319 100.347 233.385 104.614 235.298C105.863 235.858 111.475 238.052 117.335 238.001C118.638 238.016 119.296 237.851 120.416 237.369C121.206 237.053 121.611 236.472 121.68 235.868C121.702 235.216 121.581 234.939 120.969 234.604C111.522 233.253 106.613 231.963 100.268 228.599C98.5226 227.917 97.6931 227.639 97.0281 227.73Z" fill="#0D0D17"/>
<path d="M158.975 227.73C159.212 227.73 159.766 228.204 159.924 228.757C159.189 231.319 155.657 233.385 151.39 235.298C150.141 235.858 144.529 238.052 138.669 238.001C137.366 238.016 136.708 237.851 135.588 237.369C134.798 237.053 134.393 236.472 134.324 235.868C134.302 235.216 134.423 234.939 135.035 234.604C144.482 233.253 149.391 231.963 155.736 228.599C157.481 227.917 158.311 227.639 158.975 227.73Z" fill="#0D0D17"/>
<path d="M111.263 106.178C111.263 104.702 118.792 103.506 128.079 103.506C137.367 103.506 144.896 104.702 144.896 106.178C144.896 106.407 145.054 106.842 144.264 106.9C140.097 107.207 135.738 108.405 135.027 108.549C129.536 109.407 126.512 109.412 121.132 108.549C120.421 108.405 116.061 107.207 111.894 106.9C111.105 106.842 111.263 106.407 111.263 106.178Z" fill="white"/>
<path d="M118.662 120.161C118.132 121.64 115.726 122.129 113.29 121.255C110.854 120.38 109.31 118.472 109.841 116.994C110.372 115.515 112.138 117.178 114.574 118.052C117.01 118.927 119.193 118.683 118.662 120.161Z" fill="white"/>
<path d="M138.232 120.161C138.762 121.64 141.168 122.129 143.604 121.255C146.04 120.38 147.584 118.472 147.053 116.994C146.522 115.515 144.756 117.178 142.32 118.052C139.884 118.927 137.701 118.683 138.232 120.161Z" fill="white"/>
</g>
<defs>
<linearGradient id="paint0_linear_1934_1676" x1="128" y1="3.31822" x2="128" y2="252.997" gradientUnits="userSpaceOnUse">
<stop stop-color="#36C2F1"/>
<stop offset="0.47" stop-color="#D9F5FF"/>
<stop offset="1" stop-color="#36C2F1"/>
</linearGradient>
<linearGradient id="paint1_linear_1934_1676" x1="127.843" y1="9.48042" x2="127.843" y2="246.517" gradientUnits="userSpaceOnUse">
<stop stop-color="#01384A"/>
<stop offset="0.495" stop-color="#00ABE6"/>
<stop offset="1" stop-color="#4F93AB"/>
</linearGradient>
<clipPath id="clip0_1934_1676">
<rect width="256" height="256" fill="white"/>
</clipPath>
</defs>
</svg>
