<svg width="256" height="256" viewBox="0 0 256 256" fill="none" xmlns="http://www.w3.org/2000/svg">
<path d="M256 127.998C256 161.946 242.514 194.504 218.509 218.509C194.504 242.514 161.946 256 127.998 256C94.0514 255.999 61.495 242.513 37.491 218.509C13.487 194.505 0.00116778 161.95 0 128.002C-2.00871e-08 94.0551 13.4853 61.4975 37.4895 37.4926C61.4936 13.4876 94.0505 0.00116783 127.998 0C161.946 -2.00871e-08 194.503 13.4853 218.508 37.4895C242.512 61.4935 255.999 94.0505 256 127.998Z" fill="#161616"/>
<path d="M148.756 88.6168C149.362 58.5761 132.352 32.3991 123.492 26.1078C123.451 26.0673 122.662 25.6426 122.723 26.8159C122.723 26.836 122.703 26.836 122.703 26.8563C121.793 83.6003 92.6246 98.8937 76.787 119.689C41.5918 165.933 70.9614 218.693 109.008 228.685C109.656 228.847 111.416 229.374 114.754 230.061C116.493 230.426 116.999 228.948 115.724 226.743C111.173 218.834 103.082 205.482 101.485 188.327C97.8437 148.496 148.047 123.573 148.756 88.6168Z" fill="white"/>
<path d="M167.931 107.855C167.627 107.632 167.203 107.653 167.163 108.036C166.354 115.259 158.889 130.229 149.059 144.227C115.967 191.423 132.635 212.825 145.58 227.674C147.966 230.425 149.16 229.819 150.414 227.856C151.587 225.995 153.367 223.628 161.014 220.007C162.207 219.441 191.092 204.107 194.227 169.191C197.241 135.408 175.576 114.045 167.931 107.855Z" fill="#008CD6"/>
</svg>
