<svg width="128" height="128" viewBox="0 0 128 128" fill="none" xmlns="http://www.w3.org/2000/svg">
<g clip-path="url(#clip0_1159_2)">
<path d="M64 128C99.3462 128 128 99.3462 128 64C128 28.6538 99.3462 0 64 0C28.6538 0 0 28.6538 0 64C0 99.3462 28.6538 128 64 128Z" fill="white"/>
<g filter="url(#filter0_d_1159_2)">
<path d="M63.5887 7C32.3787 7 7 32.3787 7 63.5887C7 94.7987 32.3787 120.177 63.5887 120.177C94.7987 120.177 120.177 94.7987 120.177 63.5887C120.177 32.3787 94.7987 7 63.5887 7ZM63.5887 117.96C33.6106 117.96 9.21755 93.5667 9.21755 63.5887C9.21755 33.6106 33.5696 9.17649 63.5887 9.17649C93.6078 9.17649 117.96 33.5696 117.96 63.5476C117.96 93.5257 93.5667 117.919 63.5887 117.919V117.96Z" fill="#232D49"/>
<path d="M84.2036 30.9825H62.1513L59.3177 51.1458H39.1544L35.6638 75.9495H55.8271L52.9936 96.1129H75.0459C76.5654 96.1129 77.9616 94.8809 78.208 93.3614L80.9183 74.0605C81.1237 72.5411 80.056 71.3091 78.5365 71.3091H61.1246L63.3011 55.7452H80.713C82.2325 55.7452 83.6287 54.5132 83.8751 52.9937L86.5854 33.6928C86.7908 32.1734 85.723 30.9414 84.2036 30.9414V30.9825ZM55.4986 71.3502H41.8648C41.3309 71.3502 40.9613 70.9395 41.0434 70.4057L42.9735 56.7718C43.0557 56.2379 43.5485 55.8273 44.0823 55.8273H57.7162C58.25 55.8273 58.6196 56.2379 58.5375 56.7718L56.6074 70.4057C56.5253 70.9395 56.0325 71.3502 55.4986 71.3502ZM61.4121 75.9906H75.0459C75.5798 75.9906 75.9494 76.4013 75.8673 76.9351L73.9372 90.569C73.855 91.1028 73.3622 91.5135 72.8284 91.5135H59.1945C58.6607 91.5135 58.2911 91.1028 58.3732 90.569L60.3033 76.9351C60.3854 76.4013 60.8782 75.9906 61.4121 75.9906ZM81.5343 36.6085L79.6042 50.2423C79.5221 50.7762 79.0293 51.2279 78.4955 51.2279H64.8616C64.3278 51.2279 63.9582 50.7762 64.0403 50.2423L65.9704 36.6085C66.0525 36.0746 66.5453 35.6229 67.0792 35.6229H80.713C81.2469 35.6229 81.6165 36.0746 81.5343 36.6085Z" fill="#232D49"/>
</g>
</g>
<defs>
<filter id="filter0_d_1159_2" x="1" y="1" width="129.177" height="129.178" filterUnits="userSpaceOnUse" color-interpolation-filters="sRGB">
<feFlood flood-opacity="0" result="BackgroundImageFix"/>
<feColorMatrix in="SourceAlpha" type="matrix" values="0 0 0 0 0 0 0 0 0 0 0 0 0 0 0 0 0 0 127 0" result="hardAlpha"/>
<feOffset dx="2" dy="2"/>
<feGaussianBlur stdDeviation="4"/>
<feColorMatrix type="matrix" values="0 0 0 0 0 0 0 0 0 0 0 0 0 0 0 0 0 0 0.5 0"/>
<feBlend mode="normal" in2="BackgroundImageFix" result="effect1_dropShadow_1159_2"/>
<feBlend mode="normal" in="SourceGraphic" in2="effect1_dropShadow_1159_2" result="shape"/>
</filter>
<clipPath id="clip0_1159_2">
<rect width="128" height="128" fill="white"/>
</clipPath>
</defs>
</svg>
