<svg width="256" height="256" viewBox="0 0 256 256" fill="none" xmlns="http://www.w3.org/2000/svg">
<g clip-path="url(#clip0_1159_2)">
<path d="M128 256C198.692 256 256 198.692 256 128C256 57.3076 198.692 0 128 0C57.3076 0 0 57.3076 0 128C0 198.692 57.3076 256 128 256Z" fill="white"/>
<g filter="url(#filter0_d_1159_2)">
<path d="M127.178 14.002C64.7578 14.002 14.0005 64.7593 14.0005 127.179C14.0005 189.599 64.7578 240.357 127.178 240.357C189.598 240.357 240.355 189.599 240.355 127.179C240.355 64.7593 189.598 14.002 127.178 14.002ZM127.178 235.922C67.2218 235.922 18.4356 187.135 18.4356 127.179C18.4356 67.2233 67.1397 18.3549 127.178 18.3549C187.216 18.3549 235.92 67.1411 235.92 127.097C235.92 187.053 187.134 235.839 127.178 235.839V235.922Z" fill="#232D49"/>
<path d="M168.408 61.9659H124.303L118.636 102.293H78.3093L71.3281 151.9H111.655L105.988 192.227H150.092C153.131 192.227 155.924 189.763 156.416 186.724L161.837 148.122C162.248 145.083 160.112 142.619 157.074 142.619H122.25L126.603 111.491H161.427C164.465 111.491 167.258 109.027 167.751 105.988L173.171 67.3866C173.582 64.3477 171.447 61.8838 168.408 61.8838V61.9659ZM110.998 142.701H83.73C82.6623 142.701 81.9231 141.88 82.0874 140.812L85.9476 113.545C86.1118 112.477 87.0974 111.656 88.1651 111.656H115.433C116.501 111.656 117.24 112.477 117.075 113.545L113.215 140.812C113.051 141.88 112.065 142.701 110.998 142.701ZM122.825 151.982H150.092C151.16 151.982 151.899 152.804 151.735 153.871L147.875 181.139C147.711 182.207 146.725 183.028 145.657 183.028H118.39C117.322 183.028 116.583 182.207 116.747 181.139L120.607 153.871C120.771 152.804 121.757 151.982 122.825 151.982ZM163.069 73.218L159.209 100.486C159.045 101.553 158.059 102.457 156.991 102.457H129.724C128.656 102.457 127.917 101.553 128.081 100.486L131.941 73.218C132.106 72.1502 133.091 71.2468 134.159 71.2468H161.427C162.494 71.2468 163.233 72.1502 163.069 73.218Z" fill="#232D49"/>
</g>
</g>
<defs>
<filter id="filter0_d_1159_2" x="8.00049" y="8.00195" width="242.355" height="242.354" filterUnits="userSpaceOnUse" color-interpolation-filters="sRGB">
<feFlood flood-opacity="0" result="BackgroundImageFix"/>
<feColorMatrix in="SourceAlpha" type="matrix" values="0 0 0 0 0 0 0 0 0 0 0 0 0 0 0 0 0 0 127 0" result="hardAlpha"/>
<feOffset dx="2" dy="2"/>
<feGaussianBlur stdDeviation="4"/>
<feColorMatrix type="matrix" values="0 0 0 0 0 0 0 0 0 0 0 0 0 0 0 0 0 0 0.5 0"/>
<feBlend mode="normal" in2="BackgroundImageFix" result="effect1_dropShadow_1159_2"/>
<feBlend mode="normal" in="SourceGraphic" in2="effect1_dropShadow_1159_2" result="shape"/>
</filter>
<clipPath id="clip0_1159_2">
<rect width="256" height="256" fill="white"/>
</clipPath>
</defs>
</svg>
