<svg width="256" height="256" viewBox="0 0 256 256" fill="none" xmlns="http://www.w3.org/2000/svg">
<g clip-path="url(#clip0_741_46)">
<path d="M256 128C256 198.692 198.692 256 128 256C57.3075 256 0 198.692 0 128C0 57.3075 57.3075 0 128 0C198.692 0 256 57.3075 256 128Z" fill="#FED62E"/>
<path d="M235.093 131.278C235.093 192.188 181.273 232.242 140.389 238.314C136.354 238.918 133.374 239.031 132.167 239.069C87.5877 240.464 19.4737 200.523 19.4737 131.278C19.4359 73.0453 67.5985 23.4873 127.264 23.4873C186.817 23.4873 235.093 71.763 235.093 131.278Z" fill="#F0A841"/>
<path d="M237.544 124.828C237.544 185.739 183.724 225.792 142.841 231.865C138.805 232.468 135.826 232.581 134.619 232.619C90.0769 234.014 22.0006 194.074 21.9629 124.828C21.9252 66.5958 70.0501 17 129.754 17C189.268 17 237.544 65.2757 237.544 124.828Z" fill="#FED62E"/>
<path d="M207.146 122.226C207.975 156.359 183.121 186.154 153.363 194.413C108.218 206.935 54.2095 169.182 54.5867 122.226C54.9261 85.265 88.9077 49.8125 130.847 49.8125C171.316 49.8502 206.203 82.8512 207.146 122.226Z" fill="#F0A841"/>
<path d="M155.4 69.5374C156.343 72.102 159.096 73.0826 161.133 74.6289C176.407 86.4716 187.835 100.766 195.605 117.549C197.566 121.811 198.471 126.412 200.885 130.523C200.923 130.485 200.998 130.448 201.036 130.448C201.111 130.41 201.111 130.372 201.111 130.335C201.337 130.033 217.857 114.947 227.135 94.7313C229.058 90.5449 232.943 81.908 234.301 70.0654C236.224 53.3575 231.133 47.9264 231.585 35.7444C231.623 35.1032 231.698 33.4814 230.68 32.086C228.379 28.8424 222.156 29.4459 217.178 30.2756C202.243 32.8026 187.76 35.2541 173.013 47.7756C168.299 51.8111 161.321 58.7885 155.4 69.5374Z" fill="#373636"/>
<path d="M98.3366 71.763C97.3937 74.3276 94.6405 75.3082 92.6038 76.8545C77.3291 88.6972 65.9013 102.991 58.132 119.775C56.1708 124.036 55.2656 128.638 52.8518 132.749C52.8141 132.711 52.7387 132.673 52.7009 132.673C52.6255 132.636 52.6255 132.598 52.6255 132.56C52.3992 132.258 35.8799 117.172 26.6019 96.9568C24.6784 92.7704 20.7937 84.1336 19.436 72.291C17.5125 55.583 22.6041 50.152 22.1515 37.97C22.1138 37.3288 22.0383 35.707 23.0566 34.3116C25.3573 31.068 31.5803 31.6715 36.5588 32.5012C51.4941 35.0282 65.9768 37.4797 80.7235 50.0012C85.4379 54.0744 92.453 61.0141 98.3366 71.763Z" fill="#373636"/>
<path d="M94.9799 76.6279C94.2256 78.8153 92.0759 79.6451 90.4918 80.9651C78.4606 91.0351 69.4466 103.217 63.3367 117.511C61.7904 121.132 61.0738 125.054 59.188 128.562C59.1126 128.524 58.9995 128.449 58.9995 128.411C58.2074 122.301 54.6622 117.662 51.0792 112.797C43.7247 102.802 40.4435 91.0728 38.0674 79.1548C35.9931 68.8208 35.2765 58.3736 35.0125 47.851C34.937 44.4943 35.8422 43.8154 39.1611 44.4943C61.451 49.0956 80.0824 59.7691 94.9799 76.6279Z" fill="#FED62E"/>
<path d="M164.188 75.1573C164.904 77.3448 167.092 78.1745 168.676 79.5322C180.632 89.6777 189.57 101.897 195.605 116.229C197.151 119.888 197.83 123.772 199.678 127.28C199.753 127.242 199.867 127.167 199.867 127.129C200.696 121.019 204.241 116.418 207.862 111.553C215.254 101.596 218.611 89.904 221.063 77.9859C223.212 67.6896 224.004 57.2047 224.306 46.7198C224.419 43.3632 223.514 42.6466 220.157 43.3255C197.868 47.8136 179.198 58.3739 164.188 75.1573Z" fill="#FED62E"/>
<path d="M161.472 80.5884C162.151 82.5119 164.188 83.2285 165.659 84.3977C176.822 93.2231 185.195 103.821 190.89 116.305C192.323 119.473 193.002 122.905 194.737 125.96C194.813 125.922 194.926 125.885 194.926 125.809C195.68 120.491 198.961 116.418 202.28 112.156C209.107 103.406 212.162 93.1854 214.387 82.7759C216.31 73.7619 216.989 64.5971 217.253 55.4322C217.329 52.4904 216.499 51.887 213.406 52.4904C192.587 56.526 175.314 65.8794 161.472 80.5884Z" fill="white"/>
<path d="M98.7137 83.002C98.0348 84.9255 95.9982 85.6421 94.5273 86.8113C83.3635 95.6367 74.9907 106.235 69.2957 118.718C67.8625 121.887 67.1836 125.319 65.4487 128.374C65.3733 128.336 65.2601 128.298 65.2601 128.223C64.5058 122.905 61.2246 118.832 57.9056 114.57C51.0791 105.82 48.0242 95.5989 45.799 85.1895C43.8755 76.1755 43.1966 67.0107 42.9326 57.8458C42.8572 54.904 43.6869 54.3006 46.7796 54.904C67.5985 58.9019 84.9098 68.2553 98.7137 83.002Z" fill="white"/>
<path d="M128.961 200.41C171.079 200.41 205.222 167.989 205.222 127.997C205.222 88.0037 171.079 55.583 128.961 55.583C86.8439 55.583 52.7009 88.0037 52.7009 127.997C52.7009 167.989 86.8439 200.41 128.961 200.41Z" fill="#373636"/>
<path d="M87.286 168.465C102.221 168.465 114.328 156.358 114.328 141.423C114.328 126.488 102.221 114.381 87.286 114.381C72.3511 114.381 60.244 126.488 60.244 141.423C60.244 156.358 72.3511 168.465 87.286 168.465Z" fill="#FED62E"/>
<path d="M87.9271 160.922C99.7583 160.922 109.349 151.331 109.349 139.499C109.349 127.668 99.7583 118.077 87.9271 118.077C76.0959 118.077 66.5048 127.668 66.5048 139.499C66.5048 151.331 76.0959 160.922 87.9271 160.922Z" fill="#373636"/>
<path d="M183.121 167.07C198.056 167.07 210.163 154.963 210.163 140.028C210.163 125.093 198.056 112.986 183.121 112.986C168.186 112.986 156.079 125.093 156.079 140.028C156.079 154.963 168.186 167.07 183.121 167.07Z" fill="#FED62E"/>
<path d="M183.762 159.526C195.593 159.526 205.184 149.935 205.184 138.104C205.184 126.273 195.593 116.682 183.762 116.682C171.931 116.682 162.34 126.273 162.34 138.104C162.34 149.935 171.931 159.526 183.762 159.526Z" fill="#373636"/>
<path d="M189.457 134.483C192.998 134.483 195.869 131.613 195.869 128.072C195.869 124.531 192.998 121.66 189.457 121.66C185.916 121.66 183.045 124.531 183.045 128.072C183.045 131.613 185.916 134.483 189.457 134.483Z" fill="#FFFEDF"/>
<path d="M174.366 155.034C174.696 152.999 173.314 151.081 171.279 150.75C169.243 150.42 167.325 151.802 166.995 153.838C166.664 155.873 168.047 157.791 170.082 158.122C172.118 158.452 174.036 157.07 174.366 155.034Z" fill="#FFFEDF"/>
<path d="M125.416 205.238C126.812 207.576 131.262 215.006 139.333 215.006C145.104 215.006 150.572 211.121 153.212 205.276C153.778 203.314 155.513 196.752 152.119 191.698C145.896 182.458 126.623 184.117 122.738 191.924C120.287 196.79 124.247 203.314 125.416 205.238Z" fill="#FA7F5B"/>
<path d="M169.355 178.271C170.562 185.738 167.62 193.432 162.528 198.449C158.417 202.522 153.891 203.842 149.969 204.936C146.499 205.916 128.886 210.819 115.271 200.07C113.234 198.486 104.673 191.698 104.258 181.326C104.032 175.744 106.295 171.407 107.69 168.729C112.593 159.526 118.137 159.489 122.701 153.567C133.601 139.386 122.399 112.835 129.527 103.066C130.168 102.161 132.016 99.672 134.543 99.6342C136.995 99.5965 138.881 101.935 139.56 102.765C147.254 112.307 138.768 139.914 151.138 153.718C154.91 157.942 159.737 159.866 164.942 168.163C166.979 171.331 168.676 174.16 169.355 178.271Z" fill="white"/>
<path d="M137.41 184.721C133.902 183.929 131.036 182.005 130.847 181.854C128.32 180.157 125.265 178.083 125.492 175.518C125.605 174.274 126.435 173.331 126.623 173.142C127.566 172.161 128.848 171.822 131.036 171.294C131.338 171.219 131.752 171.105 132.318 171.03C137.862 170.012 143.935 170.728 143.935 170.728C145.141 170.879 146.424 171.068 147.782 171.369C148.838 171.596 149.856 171.86 150.761 172.124C151.855 172.388 152.722 173.142 153.024 174.16C153.363 175.33 152.798 176.31 152.722 176.499C151.327 179.026 149.705 180.723 148.574 181.703C147.216 182.91 145.632 184.306 143.256 184.834C141.785 185.173 140.314 185.098 139.974 185.098C139.597 185.06 138.654 184.985 137.41 184.721Z" fill="#373636"/>
<path d="M93.5845 135.879C97.1255 135.879 99.9961 133.008 99.9961 129.467C99.9961 125.926 97.1255 123.056 93.5845 123.056C90.0434 123.056 87.1729 125.926 87.1729 129.467C87.1729 133.008 90.0434 135.879 93.5845 135.879Z" fill="#FFFEDF"/>
<path d="M77.8948 159.564C79.957 159.564 81.6287 157.893 81.6287 155.831C81.6287 153.768 79.957 152.097 77.8948 152.097C75.8327 152.097 74.161 153.768 74.161 155.831C74.161 157.893 75.8327 159.564 77.8948 159.564Z" fill="#FFFEDF"/>
</g>
<defs>
<clipPath id="clip0_741_46">
<rect width="256" height="256" fill="white"/>
</clipPath>
</defs>
</svg>
