<svg width="256" height="256" viewBox="0 0 256 256" fill="none" xmlns="http://www.w3.org/2000/svg">
<g clip-path="url(#clip0_1082_2)">
<mask id="mask0_1082_2" style="mask-type:luminance" maskUnits="userSpaceOnUse" x="0" y="0" width="256" height="256">
<path d="M256 0H0V256H256V0Z" fill="white"/>
</mask>
<g mask="url(#mask0_1082_2)">
<path d="M128 256C198.934 256 256 198.934 256 128C256 57.0662 198.934 0 128 0C57.0662 0 0 57.0662 0 128C0 198.934 57.0662 256 128 256Z" fill="#051212"/>
<path d="M19.2 128C19.2 157.455 30.9844 184.08 49.9658 203.628L51.825 205.497C71.3293 224.647 97.3661 236.07 125.294 236.766L128 236.8C156.042 236.8 182.345 225.974 202.266 207.325L204.172 205.497C224.24 185.795 236.8 158.405 236.8 128C236.8 97.5952 224.24 70.2058 204.172 50.503L202.266 48.6749C182.345 30.0274 156.042 19.2 128 19.2V16L130.791 16.0344C158.618 16.7277 184.615 27.771 204.45 46.3376L206.416 48.2189C226.42 67.8586 239.184 94.9389 239.963 125.075L240 128C240 158.329 227.86 185.741 208.328 205.856L206.416 207.778C185.701 228.116 157.809 240 128 240L125.212 239.966C96.4538 239.25 69.6518 227.481 49.5843 207.778C28.9359 187.505 16 159.307 16 128L16.0375 125.075C16.8155 94.9389 29.581 67.8586 49.5843 48.2189L51.5469 46.3376C72.0435 27.1508 99.1213 16.0003 128 16V19.2C99.0512 19.2003 71.9578 30.736 51.825 50.503L49.9658 52.3718C30.9846 71.92 19.2 98.5453 19.2 128Z" fill="url(#paint0_linear_1082_2)"/>
<path d="M3.2 128C3.2 161.787 16.7192 192.329 38.4906 214.75L40.6218 216.894C62.9927 238.858 92.8583 251.965 124.894 252.763L128 252.8C160.168 252.8 190.339 240.38 213.188 218.991L215.375 216.894C238.393 194.295 252.8 162.877 252.8 128C252.8 93.1232 238.393 61.7053 215.375 39.1062L213.188 37.0093C190.339 15.6208 160.168 3.20002 128 3.19999V0L131.188 0.0406252C162.991 0.832547 192.703 13.4523 215.372 34.672L217.616 36.8217C240.477 59.2672 255.067 90.215 255.956 124.656L256 128C256 162.661 242.125 193.99 219.803 216.978L217.616 219.178C193.942 242.421 162.067 256 128 256L124.812 255.959C91.9466 255.14 61.3149 241.694 38.3811 219.178C14.7829 196.009 -3.12794e-06 163.779 0 128L0.0437502 124.656C0.933133 90.2153 15.5204 59.2672 38.3811 36.8217L40.625 34.672C64.0496 12.7441 94.9955 0.00033891 128 0V3.19999C94.7923 3.20034 63.7139 16.4337 40.6218 39.1062L38.4906 41.2499C16.7194 63.6717 3.2 94.2128 3.2 128Z" fill="#21F1A6"/>
<path d="M166.4 146.669C166.4 126.686 154.866 119.834 131.797 116.98C115.319 114.696 112.024 110.129 112.024 102.134C112.024 94.1403 117.517 89.003 128.501 89.003C138.388 89.003 143.881 92.4286 146.627 100.993C147.176 102.706 148.824 103.847 150.472 103.847H159.259C161.457 103.847 163.104 102.134 163.104 99.8516V99.2801C160.907 86.7188 151.021 77.0129 138.388 75.8715V62.1687C138.388 59.8843 136.74 58.1716 133.994 57.6001H125.756C123.558 57.6001 121.91 59.3131 121.361 62.1687V75.2999C104.883 77.5844 94.4477 89.003 94.4477 103.277C94.4477 122.119 105.432 129.54 128.501 132.396C143.881 135.25 148.824 138.676 148.824 147.812C148.824 156.947 141.134 163.227 130.699 163.227C116.417 163.227 111.474 156.946 109.826 148.382C109.278 146.099 107.63 144.956 105.982 144.956H96.6439C94.4477 144.956 92.8 146.669 92.8 148.953V149.524C94.9962 163.797 103.785 174.074 121.91 176.93V190.633C121.91 192.916 123.558 194.629 126.304 195.2H134.543C136.74 195.2 138.388 193.487 138.938 190.633V176.93C155.415 174.074 166.4 162.084 166.4 146.669Z" fill="#21F1A6"/>
<path d="M240 128C240 97.7014 227.89 70.3075 208.328 50.1625L206.412 48.2374C186.305 28.495 159.505 16.7492 130.784 16.0343L128 16C99.1638 16 72.094 27.1268 51.5593 46.35L49.5907 48.2374C28.9064 68.5452 16 96.7251 16 128C16 159.274 28.9044 187.455 49.5875 207.763C70.3446 228.141 98.2332 240 128 240V252.8L124.891 252.763C93.8822 251.99 64.9148 239.683 42.8124 218.994L40.6249 216.897C17.6158 194.307 3.19995 162.885 3.19995 128C3.19995 94.2048 16.7292 63.6604 38.4937 41.2467L40.6249 39.103C63.7068 16.4406 94.7846 3.20002 128 3.19995L131.106 3.23745C163.151 4.03541 193.017 17.1487 215.378 39.103C238.387 61.6931 252.8 93.1152 252.8 128C252.8 162.885 238.387 194.307 215.378 216.897L213.191 218.994C190.352 240.374 160.179 252.8 128 252.8V240C157.77 240 185.656 228.145 206.412 207.766L208.328 205.837C227.889 185.692 240 158.298 240 128Z" fill="url(#paint1_linear_1082_2)"/>
</g>
</g>
<defs>
<linearGradient id="paint0_linear_1082_2" x1="10.9166" y1="130.884" x2="220.814" y2="130.884" gradientUnits="userSpaceOnUse">
<stop stop-color="#21F1A6" stop-opacity="0.6"/>
<stop offset="1" stop-color="#21F1A6" stop-opacity="0.2"/>
</linearGradient>
<linearGradient id="paint1_linear_1082_2" x1="258.464" y1="124.787" x2="24.5784" y2="124.787" gradientUnits="userSpaceOnUse">
<stop stop-color="#21F1A6"/>
<stop offset="1" stop-color="#21F1A6" stop-opacity="0.2"/>
</linearGradient>
<clipPath id="clip0_1082_2">
<rect width="256" height="256" fill="white"/>
</clipPath>
</defs>
</svg>
