<svg width="256" height="256" viewBox="0 0 256 256" fill="none" xmlns="http://www.w3.org/2000/svg">
<g clip-path="url(#clip0_1226_2)">
<path d="M128 256C198.692 256 256 198.692 256 128C256 57.3076 198.692 0 128 0C57.3076 0 0 57.3076 0 128C0 198.692 57.3076 256 128 256Z" fill="#5B25D4"/>
<path fill-rule="evenodd" clip-rule="evenodd" d="M150.711 148.633C151.771 153.5 153.262 158.25 155.151 162.852L166.026 189.308C166.373 190.252 166.909 191.101 167.602 191.822C168.295 192.543 169.124 193.104 170.047 193.476C170.972 193.847 171.957 194.027 172.945 193.985C173.932 193.942 174.908 193.71 175.801 193.264C185.564 188.333 191.473 181.885 191.473 174.824C191.473 173.117 191.127 171.431 190.487 169.861L190.34 169.521C186.183 159.905 170.898 152.058 150.721 148.622L150.711 148.633Z" fill="white"/>
<path fill-rule="evenodd" clip-rule="evenodd" d="M65.0189 169.872C64.368 171.442 64.032 173.128 64.032 174.835C64.032 181.896 69.9422 188.345 79.7051 193.275C80.5974 193.709 81.5632 193.953 82.5605 193.996C83.5472 194.028 84.5339 193.858 85.4577 193.487C86.3816 193.115 87.2109 192.554 87.9037 191.833C88.5966 191.112 89.132 190.263 89.4784 189.319L100.354 162.874C102.254 158.272 103.766 153.511 104.847 148.644C84.6915 152.058 69.5013 159.862 65.2918 169.417L65.1238 169.83L65.0293 169.883L65.0189 169.872Z" fill="white"/>
<path fill-rule="evenodd" clip-rule="evenodd" d="M150.018 114.117C164.325 111.89 176.22 107.553 184.429 101.891L182.098 107.532C176.881 120.309 176.881 134.645 182.098 147.423L184.409 153.043C176.188 147.38 164.295 143.097 149.997 140.838L149.619 140.785C142.376 139.672 135.048 139.131 127.721 139.142C120.404 139.131 113.108 139.682 105.875 140.785L105.497 140.838C91.189 143.054 79.2951 147.391 71.0859 153.053L73.4059 147.423C78.6232 134.645 78.6232 120.309 73.4059 107.532L71.0859 101.891C79.2635 107.585 91.1575 111.89 105.466 114.117L105.844 114.17C120.362 116.354 135.122 116.354 149.64 114.17L150.018 114.117Z" fill="white"/>
<path fill-rule="evenodd" clip-rule="evenodd" d="M175.78 61.7356C185.541 66.6556 191.452 73.1134 191.452 80.1753C191.431 81.8825 191.074 83.5686 190.413 85.138L190.266 85.4772C186.098 95.0947 170.866 102.931 150.648 106.377C151.729 101.51 153.241 96.7491 155.141 92.1469L166.017 65.6907C166.362 64.747 166.898 63.8987 167.591 63.1776C168.284 62.4565 169.113 61.8946 170.037 61.5235C170.961 61.1523 171.948 60.9826 172.935 61.0145C173.921 61.0463 174.897 61.3009 175.789 61.7356H175.78Z" fill="white"/>
<path fill-rule="evenodd" clip-rule="evenodd" d="M104.804 106.366C103.723 101.499 102.212 96.7382 100.311 92.1362L89.4358 65.6799C89.0894 64.7363 88.5541 63.888 87.8611 63.1669C87.1683 62.4458 86.339 61.8838 85.4152 61.5127C84.4915 61.1416 83.5046 60.9719 82.5179 61.0038C81.531 61.0355 80.5549 61.29 79.6626 61.7247C69.9102 66.6555 64 73.1132 64 80.1646C64 81.8718 64.336 83.5579 64.9867 85.1271V85.1801L65.1547 85.5937C69.4483 95.1476 84.649 102.941 104.804 106.366Z" fill="white"/>
</g>
<defs>
<clipPath id="clip0_1226_2">
<rect width="256" height="256" fill="white"/>
</clipPath>
</defs>
</svg>
