<svg width="256" height="256" viewBox="0 0 256 256" fill="none" xmlns="http://www.w3.org/2000/svg">
<path d="M128 253.184C197.138 253.184 253.184 197.137 253.184 128C253.184 58.8627 197.138 2.81592 128 2.81592C58.8632 2.81592 2.81641 58.8627 2.81641 128C2.81641 197.137 58.8632 253.184 128 253.184Z" fill="#F4AC04"/>
<path fill-rule="evenodd" clip-rule="evenodd" d="M49.2033 41.5231C48.6702 42.0562 48.7668 125.592 49.3012 125.796C49.8849 126.02 93.7691 125.981 94.1044 125.756C94.9703 125.175 94.667 121.108 93.2116 113.792C91.3691 104.53 91.3275 103.444 92.7803 102.666C96.4743 100.689 102.3 106.219 105.582 114.816C107.169 118.977 107.367 119.222 108.909 118.932C110.771 118.583 114.205 114.247 119.732 105.263C120.657 103.759 122.336 101.03 123.463 99.1999C124.59 97.3695 126.317 94.5471 127.302 92.9279C133.496 82.7455 135.08 81.1884 137.583 82.8281C139.955 84.3826 138.911 88.1036 131.015 106.24C127.589 114.111 127.217 115.456 128.473 115.456C129.239 115.456 131.766 112.584 137.71 104.958C140.727 101.087 144.035 96.8677 145.061 95.5813C150.305 89.006 153.855 86.894 155.93 89.1148C157.739 91.0521 156.511 94.3794 150.79 103.04C143.647 113.853 139.464 121.398 140.412 121.762C141.356 122.124 142.415 121.255 152.586 111.77C162.315 102.696 165.887 100.993 167.42 104.694C168.25 106.697 167.812 107.37 156.166 121.984C151.447 127.906 150.272 129.62 150.272 130.58C150.272 133.21 154.159 131.452 164.48 124.155C171.76 119.007 173.944 118.406 175.268 121.183C175.694 122.077 175.041 124.877 174.299 125.335C173.443 125.864 175.748 125.952 190.487 125.952C205.318 125.952 206.622 125.917 206.773 125.524C207.164 124.502 205.532 113.352 204.268 108.416C198.044 84.1189 179.561 63.102 156.54 54.1439C146.515 50.2438 139.735 49.0348 127.872 49.0342C112.917 49.0335 106.428 50.6092 91.4196 57.8854C88.5486 59.2774 86.0577 60.4159 85.8836 60.4159C85.3345 60.4159 85.2481 59.0284 85.2481 50.1714C85.2481 42.5247 85.2014 41.509 84.843 41.3714C84.0078 41.0508 49.5291 41.1974 49.2033 41.5231ZM49.8023 137.199C49.1073 138.324 51.7038 148.742 54.4046 155.663C71.8759 200.436 123.867 219.546 165.864 196.629C169.117 194.854 170.344 194.328 170.538 194.624C170.561 194.659 170.648 199.173 170.73 204.654L170.88 214.621L188.386 214.554C198.014 214.516 206.035 214.431 206.211 214.363C206.588 214.219 206.935 177.674 206.801 152.32L206.72 137.088L187.392 137.017C166.886 136.941 161.994 137.093 160.506 137.853C157.605 139.336 150.938 146.147 145.971 152.704C136.657 164.999 132.105 167.874 122.374 167.61C108.019 167.221 97.2462 156.611 96.5364 142.164C96.3515 138.396 96.171 137.978 94.4897 137.431C93.2148 137.016 50.0539 136.792 49.8023 137.199Z" fill="#FCFBFB"/>
</svg>
