<svg width="256" height="256" viewBox="0 0 256 256" fill="none" xmlns="http://www.w3.org/2000/svg">
<circle cx="127" cy="128" r="125" fill="black"/>
<path fill-rule="evenodd" clip-rule="evenodd" d="M184.825 112.805H130.131C120.563 112.805 112.807 120.562 112.807 130.13V184.823C112.807 194.391 120.563 202.148 130.131 202.148H184.825C194.393 202.148 202.149 194.391 202.149 184.823V130.13C202.149 120.562 194.393 112.805 184.825 112.805ZM130.131 107.955C117.884 107.955 107.956 117.883 107.956 130.13V184.823C107.956 197.07 117.884 206.999 130.131 206.999H184.825C197.072 206.999 207 197.07 207 184.823V130.13C207 117.883 197.072 107.955 184.825 107.955H130.131Z" fill="#CA61FF"/>
<path fill-rule="evenodd" clip-rule="evenodd" d="M155.347 83.3289H100.653C91.085 83.3289 83.3287 91.0853 83.3287 100.653V155.347C83.3287 164.915 91.085 172.671 100.653 172.671H155.347C164.915 172.671 172.671 164.915 172.671 155.347V100.653C172.671 91.0853 164.915 83.3289 155.347 83.3289ZM100.653 78.478C88.4061 78.478 78.4778 88.4062 78.4778 100.653V155.347C78.4778 167.594 88.4061 177.522 100.653 177.522H155.347C167.594 177.522 177.522 167.594 177.522 155.347V100.653C177.522 88.4062 167.594 78.478 155.347 78.478H100.653Z" fill="#616EFF"/>
<path fill-rule="evenodd" clip-rule="evenodd" d="M125.868 53.8508H71.1749C61.6069 53.8508 53.8505 61.6073 53.8505 71.1753V125.869C53.8505 135.437 61.6069 143.193 71.175 143.193H125.868C135.436 143.193 143.193 135.437 143.193 125.869V71.1753C143.193 61.6072 135.436 53.8508 125.868 53.8508ZM71.1749 49C58.9279 49 48.9997 58.9282 48.9997 71.1753V125.869C48.9997 138.116 58.9279 148.044 71.175 148.044H125.868C138.115 148.044 148.044 138.116 148.044 125.869V71.1753C148.044 58.9282 138.115 49 125.868 49H71.1749Z" fill="#61DFFF"/>
</svg>
