<svg width="256" height="256" viewBox="0 0 256 256" fill="none" xmlns="http://www.w3.org/2000/svg">
<g clip-path="url(#clip0_2548_1953)">
<mask id="mask0_2548_1953" style="mask-type:luminance" maskUnits="userSpaceOnUse" x="0" y="0" width="256" height="256">
<path d="M256 0H0V256H256V0Z" fill="white"/>
</mask>
<g mask="url(#mask0_2548_1953)">
<path d="M256 128C256 57.3075 198.692 0 128 0C57.3075 0 0 57.3075 0 128C0 198.692 57.3075 256 128 256C198.692 256 256 198.692 256 128Z" fill="black"/>
<path fill-rule="evenodd" clip-rule="evenodd" d="M128 249.905C195.536 249.905 250.046 195.192 250.046 128C250.046 60.8077 195.536 6.09523 128 6.09523C60.4636 6.09523 5.95415 60.8077 5.95415 128C5.95415 195.192 60.4636 249.905 128 249.905ZM128 256C198.692 256 256 198.692 256 128C256 57.3077 198.692 0 128 0C57.3077 0 0 57.3077 0 128C0 198.692 57.3077 256 128 256Z" fill="url(#paint0_linear_2548_1953)"/>
<path d="M50.6171 144.992L47.5456 144.951L46.2344 144.511L46.6573 145.786L47.5085 147.914L49.6494 152.176L52.2291 156.444L55.6915 160.3L61.3481 164.184L66.5869 166.37L74.0354 167.314L76.2293 167.343L76.256 165.226L78.9363 161.451L83.8048 158.128L87.7704 156.91L90.8472 156.527L96.9896 156.608L102.694 156.682L107.077 157.164L107.975 155.482L111.962 152.57L115.937 150.506L118.142 149.688L121.657 149.311L123.851 149.34L130.422 150.273L140.921 152.95L144.859 153.849L140.958 149.987L135.338 143.14L133.615 140.577L132.765 138.449L132.358 135.903L132.384 133.787L132.844 132.099L134.626 130.006L136.846 127.918L139.934 126.689L145.648 125.917L160.55 127.382L171.483 130.49L184.995 137.865L194.976 146.886L202.762 155.879L203.614 158.007L202.314 156.72L194.938 149.849L185.798 143.802L174.909 137.309L166.175 133.807L159.182 131.598L149.528 131.472L144.686 132.678L142.037 133.914L138.939 135.99L138.485 137.254L141.112 137.712L146.362 139.05L157.711 143.857L170.346 151.22L179.465 158.96L185.084 165.808L187.674 169.229L189.392 172.215L189.297 179.834L187.933 183.626L178.597 193.242L168.398 201.575L161.326 205.716L154.262 209.01L148.965 211.482L143.234 213.523L138.184 214.637L134.629 215.244L130.48 215.85L125.147 215.947L118.036 223.737L127.543 227.086L137.238 226.786L147.682 225.67L156.127 223.791L165.542 221.146L180.346 214.07L191.872 205.986L202.536 196.932L209.165 188.406L215.238 180.037L224.245 160.544L228.786 135.642L208.11 122.429L202.777 118.182L198.418 117.295L206.333 109.69L208.702 101.803V86.0304L201.591 99.9832L193.888 106.656L188.686 109.082L180.545 107.746L175.708 108.53L181.946 100.991L187.746 93.4464L191.335 87.1432L188.687 88.3784L178.975 92.908L170.59 96.6088L161.323 100.721L152.516 103.146L144.591 105.158L141.076 105.535L149.09 96.3264L153.114 90.452L157.148 83.7312L159.405 78.6801L161.218 74.0467L162.154 69.4021L162.197 66.0157L161.356 63.041L147.997 78.5303L139.131 85.6112L130.282 91.4224L121.453 95.54L107.776 101.288L97.1712 107.076L87.8824 112.882L84.6896 122.577L79.7619 130.557L73.9784 136.831L67.7824 140.983L62.4853 143.454L57.204 144.655L50.6171 144.992Z" fill="url(#paint1_linear_2548_1953)"/>
<path d="M93.7018 118.934L88.8906 126.641L91.2402 127.27L93.0146 126.695L95.409 123.738L100.145 122.007L103.091 122.046L105.507 117.296L105.545 114.308L105.612 108.93L99.6154 117.218L95.469 118.958L93.7018 118.934Z" fill="black"/>
<path fill-rule="evenodd" clip-rule="evenodd" d="M127.569 225.548C182.404 225.548 226.503 181.637 226.503 127.909C226.503 74.1801 182.404 30.269 127.569 30.269C72.7331 30.269 28.6338 74.1801 28.6338 127.909C28.6338 181.637 72.7331 225.548 127.569 225.548ZM127.569 231.643C185.497 231.643 232.458 185.199 232.458 127.909C232.458 70.6174 185.497 24.1738 127.569 24.1738C69.6401 24.1738 22.6797 70.6174 22.6797 127.909C22.6797 185.199 69.6401 231.643 127.569 231.643Z" fill="url(#paint2_linear_2548_1953)"/>
</g>
</g>
<defs>
<linearGradient id="paint0_linear_2548_1953" x1="58.112" y1="-8.63621e-07" x2="191.104" y2="288.896" gradientUnits="userSpaceOnUse">
<stop stop-color="white"/>
<stop offset="0.442708" stop-color="#E3E3E3" stop-opacity="0.56"/>
<stop offset="0.942708" stop-color="white"/>
</linearGradient>
<linearGradient id="paint1_linear_2548_1953" x1="-62.2175" y1="-161.194" x2="243.53" y2="568.914" gradientUnits="userSpaceOnUse">
<stop stop-color="#91FFA2"/>
<stop offset="0.445752" stop-color="#2FB845"/>
<stop offset="1"/>
</linearGradient>
<linearGradient id="paint2_linear_2548_1953" x1="127.569" y1="24.1738" x2="127.569" y2="231.643" gradientUnits="userSpaceOnUse">
<stop stop-color="white"/>
<stop offset="1" stop-color="#E5E5E5"/>
</linearGradient>
<clipPath id="clip0_2548_1953">
<rect width="256" height="256" fill="white"/>
</clipPath>
</defs>
</svg>
