<svg width="256" height="256" viewBox="0 0 256 256" fill="none" xmlns="http://www.w3.org/2000/svg">
<path d="M254.965 128C254.965 198.121 198.121 254.965 128 254.965C57.8792 254.965 1.03516 198.121 1.03516 128C1.03516 57.8792 57.8792 1.03516 128 1.03516C198.121 1.03516 254.965 57.8792 254.965 128Z" fill="#FEA200"/>
<path d="M64.3682 82.9441H87.115V93.0866H64.3682V82.9441ZM64.3682 103.229H87.115V174.226H64.3682V103.229Z" fill="black"/>
<path d="M57.7363 82.9441H75.6353V93.0866H57.7363V82.9441ZM57.7363 103.229H75.6353V174.226H57.7363V103.229Z" fill="white"/>
<path d="M179.08 89.7565V79.0706H168.497H167.008H159.945V60.6138H147.689V79.0706H145.74H135.158H135.156V60.6138H122.9V79.0683H102.436V90.1725H113.889V100.339V111.025V121.607V132.189V142.875V153.458V164.04V174.2H102.436V185.305H113.889V185.308H122.9V200.848H135.157V185.308H135.158H145.74H156.426H167.008H168.497H189.593V174.726H199.15V164.04V153.458V142.875V132.189H179.08V121.607H189.662V111.025V100.339V89.7565H179.08ZM135.158 111.025V100.339H145.74H156.426H160.409H161.898V111.025V121.607H160.409H156.426H145.74H135.158V111.025ZM168.497 153.458V164.04H167.008H156.426H145.74H135.158V153.458V142.875H145.74H156.426H167.008H168.497V153.458Z" fill="black"/>
<path d="M147.688 185.308V200.848H159.945V185.308H156.426H147.688Z" fill="black"/>
<path d="M168.497 89.7565V79.0706H157.914H156.425H149.362V60.6138H137.106V79.0706H135.157H124.575H124.573V60.6138H112.317V79.0683H91.8525V90.1725H103.306V100.339V111.025V121.607V132.189V142.875V153.458V164.04V174.2H91.8525V185.305H103.306V185.308H112.317V200.848H124.574V185.308H124.575H135.157H145.843H156.425H157.914H179.01V174.726H188.567V164.04V153.458V142.875V132.189H168.497V121.607H179.079V111.025V100.339V89.7565H168.497ZM124.575 111.025V100.339H135.157H145.843H149.826H151.315V111.025V121.607H149.826H145.843H135.157H124.575V111.025ZM157.914 153.458V164.04H156.425H145.843H135.157H124.575V153.458V142.875H135.157H145.843H156.425H157.914V153.458Z" fill="white"/>
<path d="M137.105 185.308V200.848H149.362V185.308H145.843H137.105Z" fill="white"/>
</svg>
