<svg width="256" height="256" viewBox="0 0 256 256" fill="none" xmlns="http://www.w3.org/2000/svg">
<path d="M254.965 128C254.965 198.121 198.121 254.965 128 254.965C57.8792 254.965 1.03516 198.121 1.03516 128C1.03516 57.8792 57.8792 1.03516 128 1.03516C198.121 1.03516 254.965 57.8792 254.965 128Z" fill="#FEA200"/>
<path d="M64.3682 82.9441H87.115V93.0866H64.3682V82.9441ZM64.3682 103.229H87.115V174.226H64.3682V103.229Z" fill="black"/>
<path d="M57.7363 82.9441H75.6353V93.0866H57.7363V82.9441ZM57.7363 103.229H75.6353V174.226H57.7363V103.229Z" fill="white"/>
<path d="M153.617 47L152.532 50.6809V157.483L153.617 158.565L203.233 129.26L153.617 47Z" fill="black"/>
<path d="M153.617 47L104 129.26L153.617 158.565V106.726V47Z" fill="black"/>
<path d="M153.616 167.952L153.005 168.696V206.741L153.616 208.524L203.262 138.662L153.616 167.952Z" fill="black"/>
<path d="M153.617 208.524V167.952L104 138.662L153.617 208.524Z" fill="black"/>
<path d="M153.617 158.565L203.233 129.26L153.617 106.726V158.565Z" fill="black"/>
<path d="M104 129.26L153.617 158.565V106.726L104 129.26Z" fill="black"/>
<path d="M142.617 47L141.532 50.6809V157.483L142.617 158.565L192.233 129.26L142.617 47Z" fill="white"/>
<path d="M142.617 47L93 129.26L142.617 158.565V106.726V47Z" fill="#BABABA"/>
<path d="M142.616 167.952L142.005 168.696V206.741L142.616 208.524L192.262 138.662L142.616 167.952Z" fill="white"/>
<path d="M142.617 208.524V167.952L93 138.662L142.617 208.524Z" fill="#BABABA"/>
<path d="M142.617 158.565L192.233 129.26L142.617 106.726V158.565Z" fill="#606060"/>
<path d="M93 129.26L142.617 158.565V106.726L93 129.26Z" fill="#858585"/>
</svg>
