<svg width="256" height="256" viewBox="0 0 256 256" fill="none" xmlns="http://www.w3.org/2000/svg">
<g clip-path="url(#clip0_741_46)">
<path d="M128 256C198.692 256 256 198.692 256 128C256 57.3075 198.692 0 128 0C57.3075 0 0 57.3075 0 128C0 198.692 57.3075 256 128 256Z" fill="#006CF0"/>
<path d="M102.483 121.943V98.4973C110.034 99.8626 118.493 100.701 128.001 100.701C137.51 100.701 145.966 99.8626 153.52 98.4973V121.943H102.483ZM128.001 155.296C118.493 155.296 110.034 156.135 102.483 157.503V134.055H153.52V157.503C145.966 156.135 137.51 155.296 128.001 155.296ZM170.786 93.9823C170.891 93.9445 170.993 93.9039 171.097 93.8661C178.716 91.1679 184.946 87.9642 189.904 84.7956C192.259 83.2924 193.641 80.6456 193.641 77.8393C193.641 73.2973 188.613 70.6451 184.887 73.2027C179.244 77.0769 171.272 81.2242 160.47 84.1765C160.142 84.2657 159.831 84.363 159.5 84.4496C158.005 84.8416 156.446 85.2038 154.843 85.5445C154.357 85.6499 153.858 85.7446 153.364 85.8419C152.035 86.1095 150.669 86.3529 149.267 86.58C148.841 86.6475 148.425 86.7232 147.99 86.7881C146.167 87.0585 144.288 87.2991 142.342 87.4992C142.006 87.5316 141.657 87.5559 141.316 87.5884C139.633 87.7479 137.899 87.875 136.122 87.975C135.62 88.002 135.118 88.0318 134.608 88.0534C132.466 88.148 130.278 88.2129 128.001 88.2129C125.73 88.2129 123.551 88.148 121.416 88.0534C120.882 88.0318 120.361 88.002 119.841 87.9723C118.131 87.875 116.464 87.7533 114.842 87.5992C114.426 87.5614 114.002 87.5316 113.594 87.4911C111.712 87.2964 109.9 87.0639 108.134 86.8017C107.551 86.7151 106.993 86.6178 106.421 86.5232C105.237 86.3285 104.08 86.1204 102.95 85.8987C102.271 85.7662 101.589 85.6337 100.929 85.4904C99.7827 85.2417 98.6713 84.9767 97.5814 84.7037C96.5721 84.4496 95.5949 84.1846 94.6312 83.9115C84.3069 80.9836 76.6294 76.9688 71.1425 73.2135C67.4031 70.6505 62.359 73.2892 62.359 77.8447C62.359 80.6483 63.7388 83.2897 66.0877 84.7929C71.0405 87.9561 77.2576 91.1544 84.8599 93.8498C84.9861 93.8958 85.1069 93.9445 85.2384 93.9904C86.7605 94.523 88.3523 95.0259 89.9791 95.518V121.943H84.4546C81.9956 121.943 80.0011 123.951 80.0011 126.428C80.0011 130.64 83.3942 134.055 87.5739 134.055H89.9791V160.479C88.3523 160.971 86.7605 161.477 85.2384 162.007C85.1069 162.053 84.9861 162.101 84.8599 162.15C77.2576 164.846 71.0405 168.041 66.0877 171.207C63.7388 172.707 62.359 175.349 62.359 178.155C62.359 182.708 67.4031 185.347 71.1425 182.786C76.6294 179.028 84.3069 175.016 94.6312 172.086C95.5949 171.813 96.5721 171.548 97.5814 171.294C98.6713 171.02 99.7827 170.755 100.929 170.507C101.589 170.363 102.271 170.231 102.95 170.099C104.08 169.877 105.237 169.669 106.421 169.477C106.993 169.382 107.551 169.282 108.134 169.196C109.9 168.933 111.712 168.701 113.594 168.509C114.002 168.466 114.426 168.436 114.842 168.398C116.464 168.247 118.131 168.122 119.841 168.025C120.361 167.998 120.882 167.968 121.416 167.944C123.551 167.849 125.73 167.784 128.001 167.784C130.278 167.784 132.466 167.849 134.608 167.944C135.118 167.965 135.62 167.995 136.122 168.022C137.899 168.122 139.633 168.249 141.316 168.409C141.657 168.441 142.006 168.466 142.342 168.498C144.288 168.698 146.167 168.939 147.99 169.212C148.425 169.277 148.841 169.35 149.267 169.42C150.669 169.644 152.035 169.89 153.364 170.155C153.858 170.253 154.357 170.35 154.843 170.453C156.446 170.793 158.005 171.156 159.5 171.548C159.831 171.634 160.142 171.734 160.47 171.821C171.272 174.776 179.244 178.923 184.887 182.797C188.613 185.355 193.641 182.703 193.641 178.161C193.641 175.352 192.259 172.705 189.904 171.202C184.946 168.033 178.716 164.829 171.097 162.131C170.993 162.093 170.891 162.053 170.786 162.018C169.258 161.482 167.658 160.974 166.021 160.479V134.055H171.546C174.004 134.055 175.999 132.046 175.999 129.569C175.999 125.357 172.609 121.943 168.424 121.943H166.021V95.518C167.658 95.0259 169.258 94.5176 170.786 93.9823Z" fill="white"/>
</g>
<defs>
<clipPath id="clip0_741_46">
<rect width="256" height="256" fill="white"/>
</clipPath>
</defs>
</svg>
