<svg width="256" height="256" viewBox="0 0 256 256" fill="none" xmlns="http://www.w3.org/2000/svg">
<g clip-path="url(#clip0_1625_199)">
<path d="M128 256C198.693 256 256 198.693 256 128C256 57.3076 198.693 0 128 0C57.3076 0 0 57.3076 0 128C0 198.693 57.3076 256 128 256Z" fill="#080A26"/>
<path d="M143.065 67.2214L92.0521 197.819C92.0521 197.819 91.0129 200.936 87.4807 201.559C84.3636 202.182 82.0779 200.52 80.935 198.65C80 197.091 80 195.429 80 195.429V64.8321C80 61.4035 82.805 58.5981 86.2336 58.5981L137.039 58.4941C141.611 58.5981 144.624 63.0657 143.065 67.2214Z" fill="#FF0EA9"/>
<path d="M159.792 79.3769C161.87 74.7019 166.961 74.9097 169.143 76.5719C169.454 76.8834 169.662 76.9876 169.662 76.8834C185.87 91.0134 195.74 112 194.494 135.065C192.416 173.299 160.935 203.533 122.182 203.533H120.416C116.156 203.429 112.831 199.377 114.701 194.702L159.792 79.3769Z" fill="#00DAFF"/>
</g>
<defs>
<clipPath id="clip0_1625_199">
<rect width="256" height="256" fill="white"/>
</clipPath>
</defs>
</svg>
