<svg width="256" height="256" viewBox="0 0 256 256" fill="none" xmlns="http://www.w3.org/2000/svg">
<path d="M128.858 0.000706881C154.137 0.170258 178.8 7.82126 199.736 21.9889C220.672 36.1565 236.945 56.2063 246.501 79.6098C256.058 103.013 258.47 128.723 253.435 153.496C248.399 178.269 236.141 200.996 218.207 218.811C200.272 236.627 177.463 248.733 152.657 253.602C127.852 258.472 102.159 255.888 78.8203 246.175C55.4813 236.462 35.5409 220.056 21.5137 199.025C7.48647 177.995 0.000568594 153.281 0 128.002C0.114758 93.9402 13.7551 61.3192 37.9206 37.3146C62.086 13.3099 94.7972 -0.112222 128.858 0.000706881Z" fill="white"/>
<mask id="mask0_1769_220" style="mask-type:luminance" maskUnits="userSpaceOnUse" x="45" y="56" width="166" height="146">
<path d="M210.933 56H45V201.191H210.933V56Z" fill="white"/>
</mask>
<g mask="url(#mask0_1769_220)">
<path d="M197.546 150.242C198.091 150.678 198.449 151.055 198.986 151.503C199.311 151.774 199.313 151.774 199.632 151.479C199.854 151.272 200.069 151.056 200.297 150.854C201.214 150.03 202.448 150.069 203.301 150.967C203.642 151.327 203.962 151.707 204.261 152.106C205 153.084 204.926 154.362 204.092 155.252C203.859 155.502 203.61 155.738 203.357 155.966C203.146 156.155 203.139 156.339 203.289 156.577C203.597 157.065 203.896 157.561 204.185 158.062C204.552 158.698 204.879 159.358 205.189 160.026C205.484 160.661 205.484 160.657 206.097 160.452C206.393 160.344 206.694 160.253 207 160.182C207.997 159.978 208.942 160.49 209.367 161.478C209.625 162.087 209.818 162.724 209.942 163.378C210.125 164.312 209.589 165.347 208.732 165.806C208.4 165.983 208.036 166.06 207.689 166.192C207.269 166.352 207.232 166.384 207.302 166.82C207.523 168.194 207.679 169.575 207.689 170.971C207.692 171.276 207.8 171.45 208.1 171.476C208.357 171.498 208.611 171.549 208.868 171.577C209.888 171.689 210.582 172.23 210.884 173.295C210.91 173.387 210.977 175.307 210.888 175.827C210.692 176.977 209.851 177.796 208.743 177.843C208.505 177.854 208.265 177.838 208.029 177.794C207.593 177.71 207.304 177.905 207.199 178.352C206.939 179.454 206.589 180.524 206.214 181.585C206.104 181.892 206.167 182.161 206.408 182.377C206.534 182.49 207.017 183.044 207.095 183.228C207.274 183.651 206.499 182.993 206.32 182.883C205.909 182.632 200.881 179.68 199.009 178.621C199.144 177.569 199.627 176.223 199.822 175.185C200.814 169.899 199.788 165.077 196.915 160.674C194.525 157.013 191.254 154.671 187.235 153.509C183.699 152.486 180.194 152.694 176.755 154.029C173.909 155.134 170.795 156.945 169.086 159.798C168.889 160.03 168.797 160.003 168.487 159.857C167.418 159.289 163.226 156.387 161.522 155.333C160.767 154.526 160.267 153.207 160.835 152.233C161.239 151.539 161.783 150.976 162.367 150.47C163.186 149.759 164.376 149.78 165.246 150.448C166.327 151.275 166.326 151.272 167.376 150.382C167.924 149.917 168.508 149.504 169.083 149.08C169.618 148.684 169.658 148.525 169.407 147.906C168.723 146.216 169.162 144.932 170.706 144.097C171.114 143.866 171.54 143.674 171.979 143.523C173.157 143.141 174.243 143.589 174.883 144.705C175.551 145.869 175.548 145.867 176.805 145.56C177.47 145.396 178.143 145.281 178.814 145.15C179.485 145.02 179.587 144.908 179.625 144.202C179.64 143.85 179.691 143.5 179.775 143.158C179.952 142.476 180.273 141.878 180.939 141.609C182.206 141.095 183.486 140.996 184.729 141.672C185.463 142.07 185.805 142.755 185.815 143.642C185.829 144.971 185.838 144.982 187.059 145.193C187.862 145.331 188.648 145.537 189.437 145.735C190.036 145.885 190.19 145.826 190.424 145.213C191.014 143.66 192.482 142.868 194.214 143.772C194.706 144.028 195.221 144.216 195.649 144.629C196.515 145.463 196.576 146.695 196.22 147.593C196.169 147.72 196.109 147.841 196.06 147.968C195.823 148.592 195.797 148.957 195.797 148.957C195.797 148.957 197.009 149.811 197.546 150.242Z" fill="#5F5F5F"/>
<path d="M198.726 178.107C199.229 178.619 205.955 182.531 206.535 182.901C206.707 182.925 206.841 183.046 206.996 183.113L206.988 183.107C207.108 183.222 207.223 183.343 207.331 183.471L207.325 183.463C207.858 184.256 207.854 185.101 207.546 185.976C207.351 186.441 207.116 186.887 206.844 187.306C206.21 188.32 205.042 188.638 204.015 188.087C203.702 187.92 203.399 187.734 203.103 187.534C202.887 187.391 202.739 187.429 202.587 187.642C201.764 188.799 200.849 189.88 199.853 190.871C199.652 191.07 199.628 191.244 199.797 191.475C199.992 191.736 200.173 192.009 200.347 192.285C201.057 193.404 200.867 194.696 199.862 195.525C199.513 195.813 199.156 196.093 198.785 196.349C197.789 197.038 196.62 196.844 195.861 195.871C195.651 195.597 195.454 195.312 195.272 195.018C195.11 194.76 194.948 194.701 194.677 194.865C193.537 195.555 192.334 196.1 191.105 196.581C190.658 196.758 190.662 196.764 190.749 197.261C190.78 197.434 190.805 197.609 190.836 197.782C191.122 199.238 190.796 200.026 189.598 200.774C189.288 200.956 188.933 200.928 188.602 201.021C188.023 201.169 187.438 201.156 186.849 201.125C186.656 201.024 186.464 200.915 186.275 200.805C185.708 200.303 185.455 199.641 185.308 198.882C185.109 197.855 185.231 198.021 184.34 198.066C183.161 198.124 181.98 198.119 180.802 198.05C180.344 198.023 180.343 198.021 180.238 198.471C180.189 198.681 180.134 198.89 180.104 199.103C179.913 200.449 178.893 201.459 177.269 201.13C176.871 201.048 176.477 200.94 176.089 200.818C174.977 200.471 174.335 199.332 174.558 198.121C174.613 197.813 174.681 197.508 174.737 197.2C174.813 196.781 174.809 196.759 174.413 196.601C173.653 196.298 172.897 195.988 172.166 195.613C171.734 195.391 171.306 195.16 170.881 194.926C170.438 194.684 170.44 194.68 170.131 195.122C169.965 195.357 169.81 195.601 169.637 195.828C168.88 196.838 167.685 197.05 166.675 196.344C166.29 196.075 165.915 195.786 165.554 195.482C164.633 194.705 164.434 193.429 165.067 192.374C165.256 192.061 165.465 191.761 165.677 191.465C165.823 191.259 165.833 191.095 165.644 190.905C164.634 189.9 163.708 188.804 162.875 187.629C162.717 187.405 162.561 187.406 162.356 187.542C162.107 187.71 161.848 187.862 161.589 188.014C160.426 188.687 159.214 188.355 158.531 187.144C158.287 186.711 157.988 186.313 157.82 185.827C157.404 184.622 157.755 183.506 158.795 182.834C159.017 182.692 159.243 182.56 159.46 182.417C159.844 182.167 159.854 182.16 159.684 181.723C159.332 180.817 159.03 179.89 158.778 178.947C158.667 178.535 158.562 178.116 158.47 177.696C158.404 177.39 158.253 177.271 157.956 177.337C157.721 177.383 157.483 177.417 157.244 177.437C155.837 177.595 154.794 176.699 154.647 175.207C154.607 174.795 154.564 174.388 154.537 173.977C154.499 173.383 154.677 172.796 155.035 172.338C155.392 171.88 155.901 171.584 156.457 171.514C156.768 171.473 157.081 171.447 157.389 171.396C157.793 171.325 157.805 171.316 157.812 170.869C157.83 169.888 157.901 168.91 158.023 167.939C158.073 167.512 158.208 167.097 158.179 166.659C158.148 166.359 158.029 166.174 157.803 166.08C157.648 166.033 157.611 166.012 157.38 165.95C156.925 165.833 156.511 165.623 156.182 165.269" fill="#414141"/>
<path d="M158.202 166.925C158.253 166.625 158.132 166.174 157.843 166.088C157.594 166.013 157.196 165.855 156.949 165.776C155.967 165.461 155.352 164.637 155.243 163.53C155.119 163.059 155.509 161.534 155.687 161.04C156.083 159.951 157.055 159.316 158.15 159.492C158.387 159.529 158.619 159.593 158.842 159.683C159.256 159.854 159.575 159.719 159.758 159.301C160.208 158.271 160.883 157.251 161.317 156.215C161.736 155.214 161.439 155.297 161.585 155.331C161.945 155.66 167.182 158.368 168.833 159.785C167.757 161.022 165.368 166.623 165.269 168.498" fill="#414141"/>
<path d="M168.892 159.704C172.235 155.86 174.628 154.21 177.928 153.213C179.936 152.601 182.032 152.379 184.114 152.556C187.618 152.856 190.783 154.158 193.569 156.458C196.026 158.487 197.815 161.058 199.036 164.089C199.783 165.943 200.177 167.882 200.362 169.891C200.626 172.768 200.046 175.981 199.118 178.663C198.93 178.84 195.511 176.35 195.145 175.865C195.062 175.603 195.165 175.364 195.228 175.121C195.564 173.811 195.782 172.48 195.743 171.119C195.559 164.576 191.368 159.18 185.572 157.862C181.294 156.888 176.758 157.87 172.606 162.359C172.502 162.421 172.469 162.286 171.764 161.77C170.58 161.004 169.998 160.523 169.19 160.002C168.726 159.715 168.75 159.87 168.892 159.704Z" fill="#414141"/>
<path d="M199.189 178.473C199.078 178.662 198.977 178.857 198.888 179.058C197.868 181.672 196.235 183.818 194.246 185.634C191.643 188.013 188.624 189.497 185.196 189.974C184.357 190.092 183.515 190.22 182.666 190.191C180.212 190.108 177.84 189.628 175.574 188.578C174.137 187.908 172.791 187.034 171.574 185.98C169.679 184.35 168.14 182.392 167.01 180.071C165.972 177.932 165.374 175.671 165.121 173.288C164.899 171.237 165.073 169.223 165.477 167.215C165.939 164.924 166.8 162.813 168.003 160.857C168.174 160.579 168.672 159.947 168.834 159.789C169.708 160.272 172.093 161.947 172.476 162.311C172.717 162.646 172.272 163.088 172.134 163.303C171.401 164.443 170.797 165.646 170.408 166.968C169.055 171.576 169.675 175.863 172.402 179.718C174.677 182.934 177.771 184.697 181.554 185.101C186.944 185.677 192.475 182.422 194.751 176.678C194.877 176.361 194.845 175.86 195.357 175.835C195.686 176.237 198.803 178.247 199.189 178.473Z" fill="#5F5F5F"/>
<path d="M195.361 175.826C194.932 176.996 194.452 178.137 193.779 179.179C191.648 182.477 188.74 184.524 185.036 185.229C181.285 185.943 177.851 185.052 174.799 182.653C172.114 180.541 170.401 177.7 169.739 174.221C168.957 170.109 169.779 166.325 172.068 162.905C172.153 162.777 172.234 162.647 172.32 162.519C172.406 162.409 173.544 161.074 174.098 160.58C176.552 158.393 179.359 157.272 182.569 157.208C188.581 157.086 194.004 161.416 195.568 167.705C196.194 170.223 196.177 172.747 195.496 175.257C195.446 175.443 195.406 175.636 195.361 175.826Z" fill="#EDAE50"/>
<path d="M186.296 171.34C186.398 173.492 184.539 175.159 182.777 175.136C180.765 175.111 179.114 173.433 179.133 171.303C179.15 169.222 180.68 167.501 182.802 167.495C184.57 167.49 186.394 169.172 186.296 171.34Z" fill="#414141"/>
<path d="M186.496 164.182C186.904 164.138 187.245 164.292 187.528 164.614C187.779 164.9 188.048 165.168 188.293 165.46C188.861 166.136 188.514 167.372 187.779 167.615C187.458 167.722 187.163 167.728 186.881 167.532C186.276 167.109 185.76 166.574 185.302 165.987C184.815 165.363 185.062 164.565 185.785 164.295C186.013 164.207 186.254 164.168 186.496 164.182Z" fill="#FCD38C"/>
<path d="M89.9835 200.907C88.9869 200.349 88.3953 199.482 88.2175 198.292C88.1568 197.886 88.0516 197.489 87.9731 197.085C87.9178 196.802 87.7841 196.707 87.5066 196.731C85.7424 196.889 83.97 196.909 82.2036 196.79C81.9637 196.775 81.7243 196.76 81.4868 196.731C81.2601 196.704 81.1422 196.803 81.0959 197.036C81.0111 197.457 80.8982 197.873 80.8329 198.298C80.6307 199.61 79.9556 200.512 78.8049 201.02C78.069 201.233 77.334 201.158 76.5982 201.013C75.9171 200.879 75.2175 200.815 74.6 200.435C74.3629 200.25 74.1081 200.089 73.9027 199.859C73.1691 199.034 72.8657 198.072 73.0548 196.949C73.1264 196.524 73.2208 196.105 73.301 195.682C73.437 194.96 73.4361 194.956 72.8027 194.718C71.3614 194.173 69.9553 193.528 68.5938 192.786C68.266 192.609 67.9336 192.433 67.6203 192.231C67.3809 192.074 67.2222 192.107 67.0667 192.348C66.8278 192.72 66.563 193.073 66.3263 193.447C65.3166 195.042 63.3352 195.509 61.7782 194.231C61.3702 193.896 60.939 193.592 60.53 193.259C59.085 192.084 58.8216 190.213 59.8739 188.627C60.1501 188.21 60.4321 187.798 60.72 187.39C60.8565 187.198 60.8546 187.04 60.681 186.883C60.5967 186.806 60.5218 186.72 60.4411 186.639C59.0923 185.275 57.8459 183.799 56.7146 182.227C56.3936 181.781 56.3904 181.782 55.9189 182.071C55.5992 182.266 55.2814 182.464 54.9618 182.66C53.2819 183.682 51.6125 183.233 50.5742 181.482C50.4318 181.258 50.3779 181.177 50.2291 180.908C50.0455 180.529 49.8243 180.175 49.6583 179.784C48.9501 178.115 49.4429 176.407 50.9256 175.465C51.2733 175.244 51.6265 175.031 51.9784 174.812C52.4454 174.517 52.4508 174.513 52.2495 174.001C51.6034 172.355 51.0702 170.661 50.6544 168.932C50.586 168.648 50.5103 168.365 50.4549 168.077C50.3996 167.789 50.2423 167.695 49.9784 167.732C49.4847 167.798 48.9909 167.875 48.4949 167.905C47.2208 167.983 46.2378 167.444 45.5727 166.282C45.2957 165.803 45.1914 165.268 45.1447 164.714C45.1107 164.302 45.0345 163.931 45.0087 163.489C44.9007 161.818 45.8003 159.719 47.7776 159.568C48.2002 159.536 48.62 159.468 49.0417 159.419C49.5291 159.36 49.5463 159.356 49.5572 158.863C49.5889 157.412 49.6996 155.965 49.8895 154.528C49.9675 153.946 50.0555 153.365 50.1521 152.787C50.2446 152.234 50.2455 152.222 49.7272 152.042C49.34 151.907 48.9519 151.781 48.5701 151.643C46.912 151.048 46.056 149.369 46.5212 147.582C46.6926 146.921 46.9039 146.271 47.1306 145.629C47.7118 143.974 49.3019 143.14 50.8966 143.641C51.3735 143.79 51.8523 143.94 52.3162 144.128C52.6136 144.246 52.7451 144.147 52.8702 143.869C53.164 143.214 53.4837 142.573 53.7929 141.928C53.904 141.705 54.0064 141.527 54.1062 141.323C54.4385 140.675 54.7913 140.036 55.2139 139.446C55.5947 139.092 119.612 179.135 119.431 179.597C119.308 179.832 119.209 180.06 119.092 180.287C118.865 180.714 118.652 181.148 118.411 181.565C117.498 183.146 115.836 183.627 114.285 182.765C113.877 182.538 113.485 182.278 113.084 182.035C112.668 181.783 112.663 181.781 112.38 182.169C111.748 183.038 111.088 183.88 110.398 184.696C109.78 185.426 109.127 186.117 108.463 186.796C108.157 187.108 108.157 187.117 108.393 187.473C108.658 187.874 108.938 188.262 109.201 188.664C110.222 190.225 109.948 192.103 108.531 193.252C108.077 193.621 107.615 193.978 107.146 194.325C105.674 195.411 103.924 195.114 102.835 193.596C102.558 193.206 102.295 192.801 102.018 192.41C101.768 192.056 101.758 192.051 101.392 192.263C99.8881 193.138 98.328 193.898 96.722 194.536C96.4971 194.624 96.2704 194.707 96.0469 194.798C95.642 194.963 95.6343 194.969 95.7145 195.446C95.7862 195.87 95.8456 196.3 95.9603 196.712C96.3883 198.252 95.4951 200.111 93.5133 200.766C92.6563 201.049 90.8001 201.255 89.9835 200.907Z" fill="#414141"/>
<path d="M119.305 179.71C117.961 178.88 105.994 171.038 105.156 170.546C104.702 170.301 104.849 170.272 105.125 169.721C106.104 167.498 106.762 165.129 107.079 162.697C107.307 160.925 107.295 159.145 107.157 157.361C107.029 155.68 106.732 154.018 106.271 152.404C105.685 150.347 104.836 148.421 103.789 146.582C102.62 144.53 101.13 142.778 99.4849 141.163C98.2204 139.92 96.7904 138.912 95.2805 138.035C93.0122 136.71 90.5438 135.815 87.9871 135.392C86.3811 135.127 84.7602 134.996 83.1384 135.109C79.6894 135.351 76.4235 136.316 73.3857 138.092C70.989 139.529 68.8444 141.396 67.0462 143.61C66.5878 144.175 65.9349 145.3 65.4856 145.87C65.2276 146.197 60.933 143.234 55.0918 139.558C55.3072 139.155 55.5148 138.825 55.7451 138.473C55.8889 138.253 55.8766 138.086 55.6898 137.912C55.3312 137.573 54.9739 137.233 54.6225 136.887C53.504 135.783 53.2428 134.32 53.9433 132.882C54.1029 132.552 54.3922 131.778 54.8329 131.216C55.046 130.943 55.2809 130.695 55.5112 130.441C56.6393 129.201 58.831 129.18 60.008 130.323C61.4326 131.705 61.2454 131.384 62.4446 130.406C63.4698 129.571 64.5067 128.756 65.5912 128.008C66.1752 127.606 66.2129 127.412 65.9172 126.738C65.5885 125.986 65.2925 125.23 65.3559 124.371C65.4344 123.311 65.8397 122.404 66.654 121.815C67.8175 120.975 69.0521 120.283 70.5361 120.326C71.7611 120.363 72.6199 121.011 73.2424 122.072C73.4637 122.454 73.636 122.871 73.8151 123.28C73.9815 123.663 74.2508 123.788 74.6276 123.682C76.2167 123.24 77.8263 122.904 79.4459 122.626C80.0344 122.525 80.1532 122.341 80.1763 121.719C80.1867 121.503 80.1867 121.287 80.1763 121.071C80.0503 119.094 81.4903 117.434 83.1919 117.32C84.13 117.256 85.0703 117.181 86.0016 117.379C87.3709 117.674 88.7193 119.007 88.5833 120.84C88.5647 121.093 88.5779 121.349 88.5833 121.605C88.5956 122.358 88.7284 122.543 89.428 122.649C90.9437 122.875 92.4445 123.201 93.9221 123.624C94.7043 123.852 94.8253 123.77 95.1513 122.991C95.4061 122.383 95.6618 121.772 96.113 121.284C97.0248 120.299 98.1592 120.14 99.3408 120.418C100.277 120.638 101.156 121.089 101.962 121.648C103.275 122.559 103.754 124.194 103.22 125.785C103.109 126.117 102.975 126.441 102.835 126.762C102.558 127.39 102.605 127.62 103.156 127.991C104.312 128.762 105.425 129.603 106.49 130.51C107.658 131.511 107.449 131.663 108.737 130.424C109.865 129.339 111.606 129.209 112.634 129.953C113.676 130.705 114.583 131.653 115.185 132.839C115.72 133.896 115.648 135.838 114.582 136.815C114.262 137.109 113.978 137.447 113.681 137.769C113.423 138.049 113.389 138.355 113.593 138.674C114.546 140.168 115.399 141.73 116.146 143.351C116.329 143.749 116.644 143.85 117.032 143.72C117.488 143.563 117.954 143.439 118.426 143.348C119.687 143.113 121.077 143.702 121.725 144.88C122.354 146.021 122.74 147.273 122.78 148.613C122.822 150.086 122.133 151.105 120.952 151.783C120.56 152.002 120.147 152.177 119.719 152.302C119.268 152.439 119.075 152.731 119.166 153.221C119.484 154.977 119.59 156.755 119.694 158.536C119.722 159.007 119.937 159.267 120.382 159.281C120.714 159.292 121.042 159.358 121.37 159.404C123.063 159.639 124.221 161.041 124.227 162.862C124.23 163.215 124.214 163.568 124.18 163.918C124.125 164.472 123.938 165.265 123.792 165.784C123.368 167.292 121.937 168.118 120.461 168.019C119.983 167.986 119.508 167.904 119.03 167.855C118.592 167.809 118.57 167.814 118.461 168.277C118.133 169.666 117.776 171.046 117.307 172.39C117.088 173.015 116.863 173.638 116.617 174.25C116.506 174.522 116.552 174.689 116.789 174.83C117.255 175.111 117.725 175.385 118.174 175.695C119.372 176.519 119.867 178.02 119.431 179.451C119.396 179.541 119.354 179.627 119.305 179.71Z" fill="#666059"/>
<path d="M70.5036 148.754C71.0576 148.047 71.5831 147.313 72.1893 146.651C75.0503 143.525 78.5061 141.689 82.5872 141.201C86.1968 140.769 89.6209 141.436 92.7838 143.329C97.6529 146.243 100.556 150.685 101.473 156.539C102.005 159.941 101.602 163.26 100.332 166.448C100.26 166.628 100.21 166.817 100.149 167.002C100.287 167.309 100.153 167.572 100.032 167.838C99.4166 169.193 98.6064 170.409 97.6688 171.521C94.9724 174.719 91.6721 176.839 87.6667 177.573C82.3501 178.546 77.5535 177.238 73.3836 173.581C70.0017 170.615 67.9632 166.775 67.3075 162.171C66.7965 158.588 67.2214 155.096 68.6179 151.76C68.9557 150.952 69.3669 150.188 69.7808 149.421C69.9495 149.102 70.1699 148.864 70.5036 148.754Z" fill="#EDAE50"/>
<path d="M73.583 159.314C73.4919 152.71 78.8035 147.677 84.4379 147.647C89.964 147.616 95.4788 152.297 95.4883 159.373C95.4978 165.943 90.4845 170.936 84.6334 171C78.2594 171.07 73.4665 165.475 73.583 159.314Z" fill="#45423D"/>
<path d="M95.2943 148.542C95.3854 149.516 94.2379 150.28 93.4403 149.717C92.8994 149.335 92.3884 148.946 91.9595 148.437C91.342 147.706 91.483 146.947 92.3009 146.469C92.9062 146.115 93.4716 146.09 94.0311 146.597C94.4247 146.953 94.8065 147.313 95.0889 147.778C95.2322 148.003 95.3034 148.27 95.2943 148.542Z" fill="#FCD38C"/>
<path d="M75.7942 159.391C75.6586 154.62 79.2936 149.967 84.5698 149.987C89.4988 150.008 93.3463 154.213 93.2969 159.471C93.2489 164.655 89.2077 168.719 84.4052 168.656C79.425 168.591 75.66 164.134 75.7942 159.391Z" fill="#EDAE50"/>
<path d="M84.51 163.134C82.5468 163.134 80.91 161.397 80.9245 159.305C80.9377 157.243 82.4394 155.518 84.5327 155.494C86.4424 155.474 88.1096 157.153 88.0992 159.337C88.0892 161.465 86.5168 163.136 84.51 163.134Z" fill="#414141"/>
<path d="M88.6632 153.005C88.869 153.005 89.0708 153.028 89.2453 153.152C90.007 153.689 90.4147 154.436 90.3879 155.418C90.3734 155.923 89.6924 156.453 89.2286 156.341C88.4437 156.152 87.804 155.738 87.3673 154.995C86.9892 154.352 87.064 153.813 87.6303 153.359C87.9368 153.115 88.2868 153.015 88.6632 153.005Z" fill="#FCD38C"/>
<path d="M70.5036 148.757C69.9323 149.719 69.3791 150.69 68.9371 151.73C68.1949 153.487 67.7124 155.354 67.5075 157.268C67.2359 159.68 67.4236 162.126 68.0593 164.46C68.695 166.793 69.7664 168.967 71.2091 170.852C73.4017 173.715 76.1652 175.687 79.476 176.788C81.3952 177.426 83.3707 177.718 85.3725 177.578C90.6079 177.21 94.8781 174.838 98.1408 170.45C98.8259 169.525 99.4171 168.525 99.9041 167.467C99.9771 167.309 100.067 167.161 100.149 167.009C100.605 167.235 104.146 169.668 104.75 170.117C104.989 170.294 104.881 170.53 104.767 170.745C104.145 171.927 103.488 173.085 102.696 174.149C100.966 176.477 98.9492 178.462 96.5629 180.018C94.2465 181.529 91.702 182.602 89.0419 183.191C86.9839 183.652 84.8996 183.721 82.8212 183.583C80.0563 183.402 77.4071 182.657 74.8848 181.413C73.1569 180.57 71.5382 179.495 70.0665 178.216C67.1733 175.679 64.9285 172.615 63.4763 168.915C62.5482 166.54 61.9683 164.027 61.7561 161.465C61.4237 157.644 61.9928 153.966 63.2577 150.391C63.7211 149.082 64.3328 147.854 64.9861 146.647C65.0501 146.528 65.1221 146.41 65.1965 146.301C65.5937 145.7 65.6689 145.681 66.2593 146.039C67.2509 146.641 69.1574 147.899 70.1282 148.529C70.2578 148.596 70.3834 148.672 70.5036 148.757Z" fill="#666059"/>
<path d="M101.272 163.202C101.773 160.831 101.82 158.377 101.41 155.988C101.001 153.597 100.143 151.319 98.8876 149.289C96.7897 146.411 94.154 143.987 91.2296 142.491C89.4037 141.654 87.4478 141.188 85.4614 141.116C80.2169 140.918 75.7209 142.766 72.0593 146.782C71.483 147.425 70.9421 148.103 70.4393 148.812C70.0081 148.537 66.0408 146.385 65.4836 145.873C65.2618 145.669 66.9911 143.584 67.8802 142.61C69.8231 140.481 72.0189 138.722 74.5425 137.434C76.9039 136.138 79.603 135.398 82.3266 135.09C84.4149 134.85 86.5237 134.909 88.5976 135.266C91.3302 135.745 93.8503 136.876 96.2397 138.388C97.8787 139.413 99.3872 140.657 100.729 142.088C103.365 144.925 105.306 148.215 106.4 152.053C107.096 154.517 107.433 157.079 107.4 159.651C107.364 163.489 106.458 167.015 105.144 169.854C104.882 170.418 105.119 170.403 104.363 169.854C103.434 169.147 101.117 167.671 100.139 167.003C100.078 166.954 100.877 165.092 101.272 163.202Z" fill="#45423D"/>
<path d="M76.9345 63.1857C76.531 61.8219 76.2213 60.4304 75.8822 59.048C75.7924 58.6839 75.893 58.5859 76.258 58.4916C96.4526 53.268 121.011 57.2597 133.624 61.3231C135.623 62.0862 137.568 62.9726 139.368 64.1855C140.149 64.7119 140.89 65.2922 141.472 66.0707C141.635 66.2838 141.781 66.5105 141.909 66.7477C142.215 67.3257 142.283 67.9084 141.996 68.5404C141.331 70.0067 140.609 71.4399 139.827 72.8405C139.323 73.7527 138.804 74.6555 138.293 75.5636C138.051 76.0039 137.781 76.4255 137.483 76.8245C137.223 77.0834 136.929 76.9587 136.649 76.8916C135.413 76.5969 134.166 76.3666 132.938 76.0451C132.847 76.0216 132.756 76.0619 132.664 76.0655C131.378 75.6221 130.02 75.5718 128.714 75.2403C128.543 75.1968 128.394 75.307 128.23 75.278C126.085 74.8341 123.91 74.6106 121.751 74.2945C120.991 74.183 120.207 74.2424 119.471 73.9536C119.189 73.6371 119.138 73.2232 119.044 72.8246C118.499 70.4719 117.792 68.189 116.496 66.1614C116.299 65.8535 116.085 65.5593 115.86 65.2732C115.186 64.4122 114.381 63.9003 113.289 63.7479C110.439 63.3494 107.584 63.0044 104.722 62.7468C99.9592 62.3147 95.1903 62.2413 90.4192 62.3134C88.0642 62.3478 85.7115 62.5142 83.361 62.73C81.415 62.9069 79.4736 63.1163 77.5375 63.3893C77.2972 63.4142 77.0905 63.3984 76.9345 63.1857Z" fill="#EDAE50"/>
<path d="M143.903 104.262C142.561 104.251 141.22 104.222 139.879 104.242C139.452 104.248 139.357 103.984 139.264 103.656C138.901 103.539 138.91 103.185 138.855 102.891C138.421 100.624 138.013 98.3498 137.541 96.0905C136.381 90.5363 135.077 85.0216 133.491 79.5853C133.218 78.649 132.924 77.7191 132.657 76.7801C132.575 76.4944 132.42 76.1825 132.683 75.8964C132.78 75.7785 132.909 75.7785 133.037 75.803C134.529 76.0977 136.021 76.3919 137.487 76.8172C138.45 79.6986 139.259 82.6308 140.006 85.582C141.021 89.5937 141.893 93.6426 142.705 97.7051C143.008 99.2226 143.899 104.224 143.903 104.262Z" fill="#45423D"/>
<path d="M76.9336 63.188C78.6974 62.8679 80.4779 62.682 82.2575 62.512C83.5402 62.3896 84.8301 62.3111 86.1169 62.2173C89.691 61.9534 93.2684 61.9593 96.8448 62.0228C99.4428 62.0695 102.039 62.2164 104.632 62.4358C106.359 62.5814 108.084 62.7491 109.805 62.9581C111.25 63.135 112.685 63.3902 114.13 63.5902C114.598 63.6546 114.95 63.8989 115.284 64.2231C116.435 65.3426 117.248 66.7114 117.887 68.2054C118.647 69.9809 119.169 71.8371 119.515 73.7514C119.435 74.0198 119.228 74.0234 119.02 74.0098C118.101 73.9509 117.181 73.882 116.265 73.7913C115.458 73.7119 114.647 73.6734 113.841 73.6253C112.556 73.5501 111.268 73.4014 109.976 73.4775C109.478 73.5075 108.987 73.3737 108.489 73.3655C107.816 73.3551 107.607 73.5097 107.373 74.174C105.996 78.0891 104.862 82.0854 103.866 86.127C102.327 92.3713 101.153 98.6972 100.165 105.063C99.9008 106.765 99.6849 108.474 99.4492 110.18C99.4007 110.528 99.3653 110.883 99.1576 111.182C98.9953 111.355 98.789 111.367 98.5909 111.312C97.6646 111.057 96.7455 110.774 95.8219 110.512C95.7494 110.495 95.6823 110.458 95.6256 110.407C95.5699 110.356 95.5263 110.291 95.4991 110.218C95.3504 109.792 95.4438 109.359 95.5041 108.94C96.4449 102.053 97.5979 95.2101 99.1136 88.4398C100.186 83.6524 101.407 78.9129 102.973 74.2773C103.209 73.5764 103.077 73.3728 102.385 73.3642C99.641 73.3315 96.9015 73.4331 94.1593 73.5728C92.781 73.6435 91.404 73.7033 90.0293 73.8257C89.9372 73.8257 89.8452 73.8294 89.7522 73.8298C88.3177 73.8403 88.2841 73.8734 87.8316 75.2939C85.1983 83.5517 83.3574 92.0163 81.9351 100.593C81.5103 103.159 81.1371 105.733 80.7585 108.306C80.7245 108.541 80.7 108.774 80.5599 108.97C80.4275 109.198 80.2081 109.229 79.9877 109.265C78.8438 109.442 77.6926 109.565 76.5537 109.78C76.2975 109.829 75.9824 109.887 75.9312 109.447C76.122 108.092 76.3134 106.736 76.5047 105.379C77.0007 101.852 77.5629 98.3376 78.1905 94.8355C79.0134 90.2467 79.9551 85.6936 81.1181 81.1958C81.6717 79.0621 82.2439 76.9334 82.9403 74.8459C83.1838 74.1141 83.1824 74.1141 82.656 73.6086C81.3856 72.3853 80.1192 71.157 78.842 69.9414C78.6076 69.722 78.4435 69.4309 78.3723 69.1072C77.9397 67.324 77.4863 65.5471 77.0397 63.767C76.9626 63.5856 76.9255 63.3875 76.9336 63.188Z" fill="#45423D"/>
<path d="M76.9313 63.1797C76.9988 63.3665 77.0754 63.5506 77.0364 63.7591C76.9258 63.5832 76.7853 63.41 76.9313 63.1797Z" fill="#A9A9A9"/>
<path d="M106.257 114.385C104.135 113.173 101.91 112.217 99.6346 111.389C99.4274 111.314 99.2093 111.258 99.052 111.077C99.286 109.351 99.5022 107.621 99.7575 105.899C100.348 101.91 101.038 97.9401 101.827 93.9909C103.028 88.0047 104.467 82.0868 106.356 76.3014C106.659 75.3751 106.973 74.4533 107.287 73.5325C107.446 73.0668 107.453 73.0646 107.922 73.0791C110.539 73.158 113.156 73.265 115.769 73.4391C117.02 73.5221 118.267 73.6445 119.516 73.7497C121.58 73.96 123.636 74.2307 125.688 74.5399C126.56 74.6714 127.433 74.7934 128.299 74.9643C128.798 75.1761 129.106 75.581 129.406 76.0466C130.549 77.8181 131.46 79.7305 132.218 81.7014C133.011 83.7631 133.737 85.8664 134.227 88.045C134.419 88.9029 134.693 89.7389 134.891 90.5931C135.539 93.4065 136.257 96.2008 136.781 99.0459C137.05 100.505 137.335 101.963 137.689 103.405C137.783 103.789 137.939 104.222 137.475 104.499C137.425 104.558 137.384 104.631 137.323 104.666C136.501 105.128 135.945 105.881 135.406 106.649C134.504 107.93 133.611 109.218 132.715 110.504C132.463 110.622 132.255 110.524 132.048 110.367C130.969 109.545 129.88 108.737 128.781 107.943C128.222 107.538 128.179 107.336 128.554 106.739C129.086 105.891 129.658 105.072 130.207 104.236C130.418 103.914 130.644 103.601 130.816 103.254C131.127 102.623 131.012 101.994 130.535 101.619C130.058 101.242 129.463 101.318 129.005 101.864C128.428 102.554 127.972 103.344 127.479 104.103C125.913 106.504 124.344 108.902 122.771 111.3C122.624 111.525 122.473 111.75 122.373 112.006C122.143 112.589 122.303 113.19 122.769 113.514C123.251 113.848 123.805 113.782 124.213 113.285C124.784 112.59 125.236 111.798 125.733 111.047C126.049 110.565 126.365 110.081 126.692 109.607C126.92 109.277 127.171 109.228 127.499 109.452C128.694 110.269 129.835 111.169 131.001 112.03C131.196 112.175 131.388 112.345 131.38 112.641C131.016 113.273 130.653 113.906 130.286 114.536C130.101 114.852 129.903 115.16 129.722 115.478C128.963 116.796 128.94 118.158 129.593 119.511C131.353 123.153 133.182 126.757 135.245 130.217C135.502 130.649 135.779 131.064 136.037 131.493C136.764 132.698 137.85 133.182 139.128 133.223C140.361 133.262 141.591 133.118 142.819 133.003C142.791 138.456 141.324 143.445 138.577 148.035C138.192 148.678 137.776 148.952 137.027 148.928C135.039 148.865 133.047 148.917 131.058 148.923C130.655 148.864 130.67 148.486 130.614 148.202C130.379 147.032 130.068 145.885 129.741 144.741C128.482 140.33 126.658 136.124 124.319 132.244C123.563 130.989 122.719 129.804 121.927 128.578C121.191 127.556 120.398 126.584 119.579 125.64C118.12 123.96 116.606 122.336 114.948 120.869C112.552 118.76 109.984 116.88 107.276 115.252C106.901 115.013 106.452 114.863 106.257 114.385Z" fill="#B9E1E1"/>
<path d="M137.344 104.632C137.497 104.278 137.483 103.791 137.404 103.458C136.705 100.557 131.765 80.331 128.972 75.8795C128.633 75.3404 128.553 75.1972 128.287 74.9609C129.599 75.0693 130.885 75.3636 132.186 75.5572C132.286 75.569 132.381 75.6066 132.465 75.6651C132.548 75.724 132.617 75.8029 132.667 75.8959C134.411 81.5317 135.908 87.2405 137.157 93.0227C137.922 96.5466 138.708 100.333 139.332 103.889L139.341 103.912C139.467 104.159 139.499 104.091 138.768 104.188C138.315 104.25 137.706 104.465 137.344 104.632Z" fill="#DCF9FB"/>
<path d="M95.6211 110.15C94.4857 109.915 93.3509 109.657 92.2124 109.45C90.854 109.205 89.4843 109.036 88.1091 108.944C86.8078 108.854 85.5174 108.826 84.2134 108.823C83.4807 108.823 82.7385 108.898 82.0017 108.841C81.7002 108.595 81.7537 108.261 81.7982 107.926C82.4234 103.129 83.1502 98.3541 84.0978 93.6115C84.7625 90.2718 85.5106 86.9551 86.4315 83.687C87.3111 80.5648 88.3358 77.498 89.9236 74.6865C90.1625 74.263 90.2006 73.9134 89.9472 73.5171C90.1222 73.4423 90.3081 73.4428 90.4913 73.4342C94.6707 73.2324 98.8493 73.0139 103.034 73.0547C103.215 73.0547 103.402 73.0093 103.578 73.105C103.648 73.3158 103.531 73.4886 103.47 73.665C101.625 79.0255 100.231 84.5294 99.0302 90.0895C98.0119 94.8067 97.1658 99.5593 96.4376 104.336C96.1438 106.272 95.894 108.212 95.6211 110.15Z" fill="#B9E1E1"/>
<path d="M90.3213 73.4437C91.0694 73.3512 90.9983 73.3948 90.5498 74.2095C89.3383 76.4103 88.3186 78.6728 87.5392 81.06C87.0877 82.4442 86.6492 83.8407 86.311 85.268C85.9414 86.8255 85.5053 88.3648 85.1625 89.9304C84.8156 91.515 84.5228 93.1114 84.2013 94.702C83.8726 96.3306 83.5366 97.9579 83.2868 99.6015C82.8987 102.155 82.5246 104.709 82.1637 107.264C82.0902 107.785 81.9968 108.309 82.0123 108.841C81.8255 108.93 80.5473 109.07 80.4498 108.841C80.5342 107.588 80.755 106.354 80.9372 105.116C81.3884 102.058 81.8944 99.0093 82.457 95.9715C83.7687 88.9497 85.3856 82.0108 87.5519 75.2292C87.6884 74.803 87.8503 74.3845 87.9718 73.9538C88.0425 73.7003 88.1835 73.6074 88.4102 73.6001C88.9294 73.5725 90.2288 73.4396 90.3213 73.4437Z" fill="#DCF9FB"/>
<path d="M159.409 159.815C158.121 159.709 156.684 158.63 155.659 161.417C154.64 164.178 156.138 165.242 155.912 165.148C155.8 165.134 155.688 165.13 155.576 165.138C154.732 165.148 153.859 165 153.017 164.999C152.718 164.853 152.789 164.593 152.839 164.342C153.263 162.171 153.913 160.057 154.777 158.039C155.92 155.393 157.319 152.914 159.073 150.664C161.51 147.539 164.365 144.95 167.685 142.939C171.141 140.845 174.85 139.55 178.78 138.986C180.679 138.714 182.593 138.612 184.512 138.755C185.24 138.809 185.809 138.493 186.201 137.855C186.36 137.595 186.536 137.397 186.809 137.295C187.126 137.291 187.413 137.434 187.715 137.505C188.38 137.664 188.449 137.638 188.74 136.999C189.211 135.966 189.699 134.942 190.307 133.988C190.457 133.886 190.581 133.747 190.671 133.584C191.46 132.3 192.467 131.238 193.652 130.367C193.685 130.351 193.722 130.345 193.759 130.349C194.188 130.349 194.3 130.697 194.403 131.037C194.857 132.531 195.367 133.999 195.998 135.421C197.043 137.777 198.333 139.957 199.989 141.88C200.236 142.167 200.548 142.423 200.402 142.89C199.541 144.501 198.678 146.111 197.815 147.721C197.689 147.956 197.549 148.186 197.415 148.419C197.175 148.824 196.904 149.208 196.605 149.567C196.528 149.507 196.446 149.454 196.359 149.41C196.31 149.384 196.215 149.295 196.167 149.267C195.264 148.744 195.392 148.71 195.842 147.736C196.124 147.121 196.271 146.498 196.092 145.806C196.022 145.52 195.897 145.252 195.725 145.02C195.552 144.788 195.337 144.597 195.092 144.457C194.514 144.123 193.915 143.81 193.255 143.662C192.329 143.457 191.362 143.914 190.915 144.805C190.768 145.099 190.665 145.415 190.528 145.716C190.331 146.153 190.219 146.214 189.792 146.085C188.656 145.74 187.508 145.459 186.332 145.319C186.222 145.305 186.117 145.26 186.007 145.25C185.693 145.21 185.561 145.014 185.564 144.691C185.564 144.378 185.544 144.063 185.564 143.749C185.637 142.563 184.926 141.76 183.894 141.543C183.15 141.387 182.383 141.397 181.642 141.574C180.697 141.8 180.137 142.415 180.005 143.459C179.952 143.846 179.921 144.237 179.912 144.628C179.906 145.138 179.874 145.181 179.39 145.282C178.793 145.406 178.191 145.5 177.594 145.621C176.979 145.746 176.369 145.902 175.767 146.088C175.376 146.21 175.283 146.161 175.12 145.772C174.969 145.415 174.828 145.053 174.634 144.718C174.123 143.834 173.198 143.426 172.252 143.685C171.573 143.874 170.927 144.178 170.338 144.585C169.48 145.174 169.166 146.286 169.53 147.336C169.638 147.647 169.797 147.938 169.923 148.243C170.083 148.627 170.068 148.719 169.752 148.925C168.634 149.653 167.599 150.503 166.569 151.361C166.268 151.613 166.186 151.616 165.905 151.34C165.654 151.08 165.388 150.837 165.109 150.612C164.318 150.003 163.237 149.996 162.493 150.664C161.974 151.13 161.484 151.638 161.114 152.261C160.554 153.203 160.683 154.323 161.446 155.088C161.755 155.398 161.787 155.422 162.289 155.786C161.518 156.606 160.012 158.819 159.572 159.691" fill="#414141"/>
<path d="M149.097 164.893C145.998 164.89 142.9 164.887 139.801 164.883C134.876 164.883 129.951 164.883 125.026 164.883C123.891 164.883 123.872 164.845 124.029 163.66C124.14 162.796 124.16 161.935 123.704 161.149C123.213 160.302 122.519 159.758 121.587 159.606C121.132 159.527 120.673 159.478 120.213 159.458C119.659 159.441 119.559 159.294 119.538 158.7C119.472 156.78 119.324 154.871 118.977 152.978C118.839 152.23 118.877 152.167 119.582 151.96C120.154 151.792 120.71 151.585 121.219 151.259C122.485 150.449 122.856 149.064 122.553 147.641C122.415 146.993 122.204 146.36 122 145.73C121.468 144.096 120.061 143.246 118.466 143.564C117.919 143.673 117.395 143.859 116.868 144.035C116.435 144.182 116.381 144.168 116.181 143.721C115.343 141.841 114.354 140.042 113.226 138.343C113.014 138.026 113.025 137.926 113.348 137.668C113.791 137.311 114.15 136.859 114.561 136.466C115.549 135.523 115.531 133.539 114.94 132.593C114.383 131.701 113.677 130.943 112.908 130.277C111.943 129.436 110.247 129.406 109.173 130.433C108.803 130.787 108.383 131.081 108.056 131.485C107.86 131.727 107.679 131.732 107.447 131.524C106.899 131.03 106.346 130.541 105.778 130.074C104.887 129.342 103.95 128.683 103 128.04C102.176 127.483 102.214 127.608 102.633 126.685C102.808 126.317 102.961 125.939 103.093 125.552C103.572 124.043 103.138 122.39 101.61 121.566C100.951 121.212 100.289 120.848 99.5783 120.642C98.5817 120.353 97.6083 120.406 96.7328 121.099C96.3768 121.383 96.0917 121.756 95.9021 122.183C95.6659 122.693 95.4587 123.218 95.2325 123.733C95.0615 124.121 95.0239 124.146 94.6376 124.016C93.1568 123.521 91.6424 123.183 90.1113 122.925C89.7481 122.866 89.3827 122.807 89.0181 122.752C88.4904 122.67 88.4495 122.627 88.44 122.037C88.4328 121.547 88.4346 121.056 88.44 120.565C88.4527 119.202 87.7758 118.326 86.6804 117.758C86.3653 117.589 86.0207 117.492 85.6684 117.473C84.8409 117.443 84.0116 117.387 83.1855 117.532C81.61 117.812 80.6315 118.982 80.5825 120.677C80.5708 121.107 80.5826 121.54 80.578 121.973C80.5703 122.634 80.5445 122.654 79.946 122.756C78.1061 123.065 76.272 123.403 74.4843 123.978C74.0581 124.115 74.0068 124.086 73.8119 123.638C73.6264 123.211 73.4455 122.782 73.2583 122.354C72.5215 120.657 70.8135 120.109 69.2398 120.72C68.6499 120.946 68.0745 121.213 67.5164 121.518C66.6014 122.021 65.9975 122.799 65.8002 123.906C65.6978 124.487 65.7495 125.087 65.9485 125.64C66.1199 126.138 66.3475 126.609 66.5624 127.087C66.7447 127.492 66.7243 127.584 66.3756 127.809C64.9066 128.757 63.5341 129.848 62.1948 130.99C62.0225 131.136 61.8624 131.303 61.6965 131.453C61.4095 131.709 61.322 131.708 61.0318 131.442C60.7113 131.148 60.3803 130.864 60.0801 130.546C58.9489 129.35 56.8306 129.357 55.732 130.628C55.4082 131.002 55.0995 131.394 54.7676 131.759C54.3654 132.2 54.3387 132.185 53.9265 131.781C53.5765 131.437 52.7518 130.666 52.6928 130.619C52.1428 129.968 52.1655 129.963 52.7218 129.294C57.454 123.613 63.4534 119.288 70.1674 116.718C73.5516 115.421 77.0342 114.577 80.6134 114.249C82.7988 114.055 84.9955 114.033 87.1841 114.182C90.148 114.372 93.086 114.889 95.9493 115.727C98.2988 116.41 100.584 117.322 102.775 118.451C104.273 119.203 105.725 120.051 107.125 120.993C109.085 122.313 110.941 123.801 112.673 125.443C114.331 127.027 115.887 128.726 117.332 130.531C117.528 130.789 117.711 131.059 117.881 131.338C119.233 132.961 120.318 134.785 121.331 136.651C123.368 140.386 124.892 144.413 125.857 148.608C126.194 150.076 126.418 151.565 126.666 153.05C126.883 154.346 127.777 154.789 128.873 154.162C130.249 153.376 131.122 151.506 130.923 149.85C130.879 149.491 130.645 149.084 131.008 148.746C131.295 148.575 131.612 148.589 131.925 148.587C133.587 148.582 135.245 148.565 136.904 148.596C137.589 148.609 138.048 148.337 138.415 147.733C139.787 145.471 140.833 143.005 141.516 140.413C142.055 138.39 142.443 136.337 142.574 134.234C142.59 134.018 142.587 133.801 142.564 133.586C142.535 133.33 142.595 133.12 142.818 132.987C143.178 132.979 143.965 132.931 144 132.928C145.378 132.841 145.378 132.841 145.381 134.315C145.381 135.434 145.375 136.553 145.385 137.669C145.393 138.692 145.65 139.007 146.59 139.259C148.841 139.869 151.118 140.066 153.441 139.937C154.513 139.879 155.562 139.673 156.626 139.584C156.846 139.558 157.062 139.498 157.267 139.407C157.913 139.144 158.103 138.877 158.112 138.13C158.129 136.738 158.107 135.345 158.124 133.953C158.129 133.648 158.069 133.315 158.323 133.069C158.741 132.727 159.14 132.988 159.514 133.154C160.437 133.567 161.132 134.3 161.769 135.092C162.95 136.559 163.827 138.235 164.658 139.94C164.731 140.077 164.763 140.235 164.747 140.392C164.717 140.773 164.457 140.963 164.193 141.146C162.017 142.642 160.064 144.417 158.267 146.399C156.207 148.669 154.498 151.208 153.05 153.952C151.369 157.139 150.226 160.536 149.551 164.117C149.493 164.417 149.55 164.843 149.097 164.893Z" fill="#45423D"/>
<path d="M149.097 164.886C149.237 164.218 149.371 163.547 149.518 162.884C150.722 157.426 153.035 152.556 156.375 148.23C158.593 145.339 161.223 142.836 164.17 140.812C164.34 140.694 164.527 140.6 164.631 140.4C164.764 140.164 174.815 133.284 186.055 135.495C186.724 136.012 186.803 137.005 186.44 137.906C186.084 138.785 185.423 139.062 184.362 139.035C183.384 139.01 182.407 138.953 181.433 139.01C179.795 139.098 178.165 139.318 176.559 139.669C172.159 140.65 168.151 142.552 164.554 145.422C160.353 148.775 157.182 153.015 155.005 158.095C154.123 160.17 153.458 162.342 153.023 164.571C152.997 164.704 152.635 166.86 152.525 167.811C152.423 168.694 152.026 169.311 151.224 169.602C150.046 170.03 148.788 169.116 148.762 167.793C148.748 167.126 148.883 166.47 148.978 165.813C149.015 165.552 149.056 164.929 149.097 164.886Z" fill="#A19D98"/>
<path d="M139.509 160.298C137.499 160.298 135.489 160.305 133.48 160.296C132.538 160.291 131.856 159.802 131.468 158.905C131.08 158.009 131.199 157.138 131.763 156.36C132.211 155.744 132.851 155.508 133.562 155.484C134.042 155.468 134.521 155.477 135.002 155.478C138.395 155.481 141.787 155.482 145.179 155.485C145.822 155.485 146.421 155.602 146.93 156.067C147.634 156.709 147.92 157.75 147.627 158.677C147.484 159.147 147.205 159.557 146.83 159.849C146.455 160.141 146.004 160.299 145.539 160.302C143.529 160.313 141.52 160.305 139.511 160.305L139.509 160.298Z" fill="#FCBE4F"/>
<path d="M75.9226 109.435C76.0478 109.542 76.1919 109.544 76.3398 109.514C77.5966 109.251 78.8688 109.101 80.1411 108.961C80.2517 108.948 80.1969 108.95 80.5106 108.918C84.9798 108.565 90.9371 108.825 95.6216 110.141C96.6545 110.445 97.6955 110.671 98.7293 110.973C98.8354 110.979 103.896 112.948 105.862 114.072C106.038 114.205 106.124 114.276 106.249 114.379C106.33 115.343 106.049 116.068 105.519 116.726C104.782 117.643 103.808 118.3 102.718 118.717C101.316 118.069 99.9203 117.405 98.4726 116.874C95.9109 115.932 93.2716 115.25 90.5898 114.835C88.2534 114.481 85.893 114.329 83.533 114.382C80.7491 114.431 77.977 114.786 75.2602 115.439C66.8296 117.453 59.1862 122.176 53.3645 128.967C53.1781 129.185 52.9886 129.399 52.8018 129.615C52.4146 130.067 52.245 130.361 51.9589 130.721C51.4842 131.319 51.0226 131.93 50.5602 132.54C49.4802 133.962 47.5822 134.039 46.3997 132.548C45.5999 131.537 45.735 130.015 46.3861 129.055C47.0966 128.028 47.8561 127.041 48.6613 126.096C49.4842 125.117 50.2859 124.117 51.1881 123.218C52.4522 121.958 53.7113 120.689 55.0865 119.565C59.7819 115.729 64.929 112.803 70.6006 110.957C72.0995 110.467 73.6221 110.063 75.1614 109.745C75.433 109.691 75.7177 109.67 75.9226 109.435Z" fill="#EDAE50"/>
<path d="M122.082 128.404C123.457 130.134 124.575 132.048 125.655 133.989C126.925 136.271 127.98 138.665 128.875 141.14C129.695 143.413 130.404 145.721 130.876 148.106C130.932 148.375 130.999 148.637 131.061 148.907C131.184 149.639 131.325 150.363 131.175 151.117C130.867 152.664 130.142 153.875 128.758 154.55C127.599 155.115 126.593 154.524 126.404 153.181C125.904 149.647 125.091 146.196 123.85 142.866C122.382 138.928 120.457 135.268 118.01 131.917C117.9 131.763 117.795 131.6 117.688 131.442C117.953 130.507 118.502 129.751 119.03 128.974C119.326 128.537 119.784 128.609 120.167 128.481C120.785 128.274 121.433 128.105 122.082 128.404Z" fill="#EDAE50"/>
<path d="M121.759 128.327C118.729 128.066 117.777 131.246 117.68 131.445C116.371 129.749 114.991 128.126 113.488 126.62C110.435 123.551 106.97 120.981 103.206 118.993C103.041 118.907 102.88 118.817 102.717 118.724C102.858 118.547 104.105 118.288 105.144 116.78C106.023 115.505 106.231 114.64 106.249 114.387C107.24 114.783 108.106 115.427 109.006 115.999C110.561 116.979 112.056 118.063 113.481 119.245C114.77 120.322 116.02 121.443 117.21 122.649C118.026 123.473 118.79 124.347 119.561 125.212C120.458 126.218 121.363 127.23 122.073 128.407" fill="#FCD38C"/>
<path d="M200.351 142.874C200.025 142.296 199.53 141.873 199.132 141.356C196.991 138.578 195.457 135.451 194.376 132.06C194.252 131.671 194.138 131.277 194.015 130.887C193.963 130.722 193.923 130.534 193.701 130.54C190.973 128.054 187.679 126.668 184.453 125.15C179.58 122.86 174.491 121.285 169.344 119.898C165.306 118.81 161.215 118.004 157.113 117.257C156.74 117.189 156.341 117.156 156.083 116.786C156.015 116.517 156.015 116.243 156.015 115.969C156.01 112.723 156.011 109.477 156.019 106.232C156.019 105.878 155.917 105.472 156.277 105.21C157.085 105.422 157.921 105.422 158.741 105.543C160.292 105.772 161.853 105.942 163.401 106.191C165.406 106.51 167.417 106.794 169.406 107.219C170.78 107.513 172.16 107.761 173.531 108.072C175.137 108.436 176.743 108.805 178.329 109.234C180.973 109.949 183.616 110.674 186.193 111.638C187.219 112.022 188.236 112.436 189.274 112.777C190.333 113.123 191.162 113.815 191.951 114.593C193.668 116.287 195.38 117.986 197.038 119.746C198.145 120.924 199.259 122.093 200.314 123.325C200.772 123.859 201.279 124.348 201.754 124.866C202.577 125.765 203.343 126.72 204.186 127.6C204.863 128.308 205.264 129.197 205.313 130.216C205.383 131.648 205.34 133.068 204.998 134.477C204.369 137.068 203.208 139.354 201.635 141.421C201.241 141.936 200.833 142.442 200.351 142.874Z" fill="#EDAE50"/>
<path d="M131.374 112.626L127.561 109.812C127.498 109.772 127.438 109.727 127.382 109.676C127.151 109.44 127.013 109.548 126.867 109.794C126.651 110.158 126.408 110.505 126.176 110.857C125.625 111.691 125.085 112.533 124.518 113.355C124.098 113.964 123.564 114.152 122.975 113.956C122.092 113.662 121.694 112.651 122.131 111.777C122.268 111.501 122.45 111.25 122.619 110.993C124.558 108.036 126.499 105.079 128.441 102.123C128.563 101.928 128.697 101.74 128.843 101.564C129.349 100.984 130.117 100.893 130.697 101.328C130.98 101.539 131.18 101.852 131.259 102.209C131.337 102.566 131.289 102.942 131.124 103.263C130.951 103.608 130.73 103.925 130.519 104.246C129.917 105.162 129.31 106.073 128.703 106.985C128.462 107.349 128.457 107.357 128.802 107.613C130.102 108.577 131.404 109.537 132.707 110.496L131.374 112.626Z" fill="#45423E"/>
<path d="M147.098 104.488C147.276 104.622 147.264 104.826 147.264 105.018C147.269 108.458 147.269 111.897 147.264 115.336C147.269 115.454 147.25 115.57 147.209 115.68C146.98 115.974 146.654 115.963 146.347 115.963C145.206 115.969 144.066 115.904 142.927 115.881C139.742 115.808 136.558 115.852 133.37 115.859C133.148 115.859 132.926 115.872 132.721 115.977C132.599 116.036 132.489 116.12 132.506 116.282C132.523 116.444 132.652 116.494 132.779 116.53C132.869 116.555 132.961 116.566 133.053 116.564C134.617 116.527 136.179 116.596 137.745 116.493C139.249 116.392 140.76 116.422 142.271 116.519C143.573 116.602 144.88 116.637 146.185 116.687C146.518 116.699 146.849 116.675 147.146 116.885C147.293 117.674 147.525 118.454 147.367 119.274C147.364 119.349 147.343 119.422 147.309 119.487C147.065 119.796 146.686 119.802 146.369 119.942C145.771 120.208 145.472 120.64 145.492 121.343C145.577 124.555 145.339 127.764 145.38 130.976C145.386 131.348 145.393 131.719 145.432 132.09C145.515 132.892 145.307 133.156 144.545 133.239C144.344 133.26 144.141 133.267 143.936 133.272C143.582 133.277 143.229 133.279 142.875 133.249C141.84 133.422 140.792 133.433 139.748 133.509C137.814 133.647 136.393 132.81 135.385 131.035C133.985 128.572 132.575 126.118 131.295 123.581C130.72 122.443 130.187 121.284 129.582 120.161C128.61 118.357 128.6 116.595 129.735 114.868C130.23 114.116 130.592 113.268 131.183 112.587C131.512 111.766 132.044 111.083 132.521 110.363C133.617 108.644 134.774 106.972 136.019 105.372C136.399 104.884 136.928 104.583 137.416 104.233C138.062 104.046 140.406 103.997 141.001 103.976C141.676 103.952 142.353 103.966 143.029 103.976C143.351 103.979 146.478 104.159 147.098 104.488Z" fill="#EDAE50"/>
<path d="M186.823 137.557C186.615 137.434 186.485 137.262 186.499 136.992C186.542 136.167 186.04 135.761 185.426 135.457C184.609 135.14 178.381 134.518 172.19 136.805C170.013 137.554 167.913 138.49 165.938 139.729C165.574 139.957 165.171 140.112 164.83 140.386C164.781 140.424 164.69 140.4 164.619 140.405C164.134 139.666 163.812 138.829 163.375 138.062C162.697 136.875 161.98 135.722 161.065 134.721C160.345 133.935 159.531 133.332 158.5 133.112C158.217 133.134 158.174 132.914 158.14 132.699C158.109 132.447 158.098 132.192 158.107 131.937C158.107 130.155 158.077 128.373 158.115 126.592C158.149 124.906 157.968 123.228 157.99 121.544C157.998 120.904 157.713 120.468 157.159 120.219C156.939 120.12 156.724 120.006 156.517 119.878C156.36 119.779 156.189 119.677 156.258 119.425L156.279 118.151C156.462 117.881 156.711 117.919 156.977 117.962C160.042 118.452 163.085 119.057 166.107 119.779C169.741 120.653 173.354 121.612 176.892 122.863C179.727 123.864 182.532 124.953 185.249 126.286C186.538 126.918 187.852 127.498 189.029 128.355C189.472 128.677 189.828 129.105 190.165 129.551C190.967 130.611 190.764 131.843 190.689 133.049C190.667 133.426 190.498 133.776 190.468 134.155C189.774 135.277 189.182 136.467 188.7 137.707C188.601 137.966 188.469 138.061 188.193 137.962C187.747 137.801 187.283 137.69 186.823 137.557Z" fill="#EDAE50"/>
<path d="M190.484 134.158C190.329 133.842 190.354 133.501 190.411 133.178C190.532 132.497 190.489 131.811 190.489 131.127C190.489 130.456 190.141 129.935 189.759 129.457C189.278 128.86 188.69 128.371 188.029 128.02C184.937 126.348 181.735 124.957 178.458 123.749C176.09 122.875 173.702 122.077 171.275 121.416C168.206 120.581 165.127 119.811 162.01 119.178C160.219 118.815 158.415 118.543 156.623 118.188C156.515 118.167 156.401 118.164 156.294 118.151C156.294 117.719 156.294 117.288 156.294 116.858C157.395 116.97 158.478 117.203 159.565 117.411C160.978 117.681 162.388 117.967 163.796 118.272C165.275 118.594 166.754 118.906 168.215 119.319C169.335 119.635 170.468 119.904 171.591 120.215C174.338 120.976 177.051 121.85 179.732 122.838C181.909 123.64 184.014 124.635 186.131 125.596C188.146 126.515 190.1 127.578 191.979 128.777C192.53 129.127 193.037 129.558 193.557 129.961C193.742 130.105 193.907 130.277 193.708 130.544C193.005 131.206 192.281 131.84 191.658 132.595C191.243 133.097 190.877 133.636 190.484 134.158Z" fill="#FCD38C"/>
<path d="M147.095 115.679L147.098 116.97C143.411 116.648 136.537 116.648 133.067 116.856C132.804 116.842 132.541 116.813 132.281 116.769C132.087 116.723 131.788 116.458 131.793 116.291C131.802 115.986 131.967 115.839 132.181 115.726C132.448 115.583 132.805 115.557 133.106 115.557C136.426 115.557 139.746 115.503 143.064 115.588C144.407 115.622 145.751 115.644 147.095 115.679Z" fill="#FCD38C"/>
<path d="M204.009 131.349C204.027 132.615 203.787 133.782 203.446 134.926C202.845 136.953 201.864 138.761 200.615 140.411C200.362 140.747 200.349 140.748 200.084 140.416C198.87 138.899 197.899 137.215 197.067 135.436C196.44 134.099 195.928 132.713 195.47 131.304C195.328 130.868 195.344 130.789 195.755 130.565C197.193 129.78 198.699 129.223 200.306 128.98C201.037 128.868 201.776 128.87 202.507 128.775C202.581 128.767 202.655 128.766 202.729 128.77C203.425 128.783 203.534 128.877 203.795 129.552C204.028 130.153 204.023 130.776 204.009 131.349Z" fill="#FEFEFE"/>
<path d="M156.217 105.502C156.217 109.246 156.258 117.459 156.344 119.763C156.139 120.041 155.872 119.94 155.631 119.867C153.035 119.06 150.42 119.18 147.799 119.69C147.578 119.733 147.363 119.791 147.176 119.598L147.162 119.618C147.041 119.441 147.162 101.142 147.146 99.9707C147.139 99.4674 147.219 99.0113 147.454 98.5692C147.743 98.0265 147.995 97.4616 148.264 96.9052C148.301 96.8649 148.351 96.8399 148.404 96.835C151.426 98.2079 153.923 99.8016 156.199 102.277C156.166 103.172 156.199 104.369 156.217 105.502Z" fill="#414141"/>
<path d="M148.412 96.6181H148.367L148.323 96.609C148.541 96.055 148.554 95.4737 148.551 94.8838C148.545 93.121 148.572 91.3582 148.555 89.5962C148.55 88.9538 148.732 88.4333 149.11 87.9304C150.971 85.4508 152.992 83.113 155.161 80.934C156.539 79.5484 158.001 78.2612 159.609 77.1748C159.914 77.2528 159.783 77.4636 159.714 77.6269C158.728 79.9383 158.868 82.3617 159.177 84.768C159.314 85.828 159.59 86.9212 160.419 87.6997C160.478 87.7486 160.517 87.8198 160.53 87.8978C160.542 87.9767 160.527 88.0578 160.486 88.1245C158.614 89.0494 157.145 90.4872 155.904 92.2124C155.72 92.4667 155.585 92.7361 155.63 93.072C155.548 95.1722 155.566 97.2701 155.635 100.725C155.632 100.762 155.627 100.8 155.62 100.836C155.343 101.036 155.163 100.81 154.992 100.656C154.253 99.9864 153.535 99.2923 152.738 98.6956C151.867 98.0422 150.973 97.4329 150.008 96.9473C149.499 96.6929 148.981 96.5206 148.412 96.6181Z" fill="#A19D98"/>
<path d="M160.813 76.9238C161.187 77.1224 161.377 77.4539 161.472 77.8796C161.713 78.9628 161.872 80.0641 161.947 81.174C162.077 83.072 161.819 84.9087 161.373 86.7309C161.28 87.11 161.173 87.4845 160.937 87.7973C160.701 87.84 160.628 87.6586 160.534 87.4849C159.434 85.475 159.234 83.2819 159.37 81.0226C159.388 80.7134 159.435 80.4032 159.454 80.0908C159.517 78.8911 160.002 77.7604 160.813 76.9238Z" fill="#A19D98"/>
<path d="M157.419 119.996C157.992 120.263 158.275 120.657 158.298 121.387C158.414 125.069 158.382 128.75 158.391 132.432C158.391 132.667 158.414 133.649 158.413 133.921C158.404 135.449 158.38 136.976 158.399 138.503C158.407 139.041 158.197 139.347 157.761 139.541C154.114 140.602 149.378 140.549 146.058 139.424C145.31 139.181 145.11 138.884 145.104 138.063C145.097 136.986 145.104 135.909 145.104 134.831C145.104 134.381 145.112 133.931 145.104 133.48C145.097 133.03 145.215 126.048 145.215 125.833C145.215 124.187 145.227 122.541 145.211 120.897C145.206 120.379 145.385 120.068 145.839 119.852C151.113 118.08 153.881 118.596 157.419 119.996Z" fill="#A19D98"/>
<path d="M146.196 129.684V121.744C146.196 121.606 146.192 121.469 146.196 121.331C146.207 120.786 146.251 120.713 146.745 120.521C148.599 119.764 154.021 119.048 156.914 121.079C157.372 121.335 157.445 121.596 157.465 122.214C157.539 123.605 157.409 133.937 157.414 137.916C157.414 137.995 157.414 138.073 157.414 138.152C157.4 138.719 157.365 138.746 156.823 138.866C153.448 139.612 150.091 139.513 146.749 138.63C146.254 138.5 146.227 138.487 146.226 137.917C146.222 136.093 146.222 134.269 146.226 132.446C146.226 131.524 146.226 130.603 146.226 129.681L146.196 129.684Z" fill="#45423D"/>
<path d="M148.29 96.7324C148.355 96.2291 148.644 96.1761 149.201 96.3157C149.871 96.527 150.511 96.8317 151.106 97.2212C152.431 98.0622 153.7 98.9881 154.814 100.137C155.063 100.394 155.351 100.608 155.621 100.839C155.659 101.008 155.745 101.161 155.867 101.277C156.219 101.614 156.266 102.002 156.195 102.493C155.611 102.404 155.283 102.034 154.912 101.598C153.906 100.42 152.731 99.4669 151.485 98.5986C150.717 98.0636 149.542 97.4792 148.689 97.1178C148.397 96.994 148.256 97.0017 148.29 96.7324Z" fill="#DCF9FB"/>
<path d="M160.818 76.9216C161.015 77.0359 161.141 77.088 160.634 77.565C159.993 78.1766 159.569 79.7182 159.612 82.2464C159.653 83.9226 159.674 85.4143 160.941 87.7956C160.834 87.9724 160.694 88.1025 160.488 88.1288C158.342 85.8849 158.55 78.981 159.609 77.1796C160.049 76.6963 160.306 76.6409 160.818 76.9216Z" fill="#DCF9FB"/>
</g>
</svg>
