<svg width="256" height="256" viewBox="0 0 256 256" fill="none" xmlns="http://www.w3.org/2000/svg">
<circle cx="127" cy="128" r="125" fill="white"/>
<path fill-rule="evenodd" clip-rule="evenodd" d="M127 253C196.036 253 252 197.036 252 128C252 58.9645 196.036 3 127 3C57.9645 3 2 58.9645 2 128C2 197.036 57.9645 253 127 253ZM141.27 43.8332C141.27 51.1972 135.254 57.1668 127.833 57.1668C120.413 57.1668 114.397 51.1972 114.397 43.8332C114.397 36.4695 120.413 30.5 127.833 30.5C135.254 30.5 141.27 36.4695 141.27 43.8332ZM94.5 51.3975V58.7053C94.543 75.7135 94.6293 110.551 94.6293 113.833C94.6293 117.116 96.8688 117.936 97.9883 117.936H123.44V126.654H97.9883C95.4045 126.654 95.2753 129.09 95.2753 130.5C95.2753 131.91 95.4045 134.09 97.9883 134.09H123.44V143.577H97.9883C96.8688 143.577 94.6293 144.397 94.6293 147.679C94.6293 150.961 94.543 185.799 94.5 202.808V210.115C94.5 210.415 94.655 211.013 95.2753 211.013C96.4123 211.013 98.333 208.449 99.1513 207.167L124.991 169.346C125.464 168.705 126.697 167.423 127.833 167.423C128.97 167.423 130.202 168.705 130.676 169.346L156.515 207.167C157.334 208.449 159.255 211.013 160.392 211.013C161.012 211.013 161.167 210.415 161.167 210.115V202.808C161.123 185.799 161.038 150.961 161.038 147.679C161.038 144.397 158.798 143.577 157.678 143.577H132.226V134.09H157.678C160.262 134.09 160.392 131.91 160.392 130.5C160.392 129.09 160.262 126.654 157.678 126.654H132.226V117.936H157.678C158.798 117.936 161.038 117.116 161.038 113.833C161.038 110.551 161.123 75.7135 161.167 58.7053V51.3975C161.167 51.0982 161.012 50.5 160.392 50.5C159.255 50.5 157.334 53.064 156.515 54.3462L130.676 92.1667C130.202 92.8077 128.97 94.0898 127.833 94.0898C126.697 94.0898 125.464 92.8077 124.991 92.1667L99.1513 54.3462C98.333 53.064 96.4123 50.5 95.2753 50.5C94.655 50.5 94.5 51.0982 94.5 51.3975ZM102.252 79.0897V106.526C102.252 107.654 103.027 107.85 103.415 107.808C108.368 107.771 117.638 107.797 120.82 107.805L120.973 107.805L121.89 107.808C122.795 107.808 122.192 106.654 121.89 106.141C121.89 106.141 105.74 78.4488 105.482 78.064C105.223 77.6795 104.707 77.0385 103.673 77.1668C102.64 77.2948 102.252 78.4487 102.252 79.0897ZM102.252 182.423V154.987C102.252 153.859 103.027 153.662 103.415 153.705C108.368 153.741 117.638 153.717 120.82 153.708C121.401 153.706 121.779 153.705 121.89 153.705C122.795 153.705 122.192 154.859 121.89 155.372C121.89 155.372 105.74 183.064 105.482 183.449C105.223 183.833 104.707 184.474 103.673 184.346C102.64 184.218 102.252 183.064 102.252 182.423ZM153.415 106.526V79.0897C153.415 78.4487 153.027 77.2948 151.993 77.1668C150.96 77.0385 150.443 77.6795 150.185 78.064C149.926 78.4488 133.777 106.141 133.777 106.141C133.475 106.654 132.872 107.808 133.777 107.808C133.888 107.808 134.266 107.807 134.847 107.805C138.028 107.797 147.299 107.771 152.252 107.808C152.639 107.85 153.415 107.654 153.415 106.526ZM153.415 182.423V154.987C153.415 153.859 152.639 153.662 152.252 153.705C147.299 153.741 138.028 153.717 134.847 153.708L134.72 153.707L133.777 153.705C132.872 153.705 133.475 154.859 133.777 155.372C133.777 155.372 149.926 183.064 150.185 183.449C150.443 183.833 150.96 184.474 151.993 184.346C153.027 184.218 153.415 183.064 153.415 182.423ZM127.833 230.5C135.254 230.5 141.27 224.531 141.27 217.167C141.27 209.803 135.254 203.833 127.833 203.833C120.413 203.833 114.397 209.803 114.397 217.167C114.397 224.531 120.413 230.5 127.833 230.5Z" fill="black"/>
</svg>
