<svg width="256" height="256" viewBox="0 0 256 256" fill="none" xmlns="http://www.w3.org/2000/svg">
<g clip-path="url(#clip0_2520_674)">
<path d="M128 256C198.692 256 256 198.692 256 128C256 57.3077 198.692 0 128 0C57.3077 0 0 57.3077 0 128C0 198.692 57.3077 256 128 256Z" fill="#FFE81C"/>
<path opacity="0.6" d="M114.833 150.788L163.273 149.817L136.986 112.418L91.4971 108.377L114.833 150.788Z" fill="black"/>
<path opacity="0.8" d="M159.234 156.802L110.819 157.731L93.4629 187.793L159.234 156.802Z" fill="black"/>
<path opacity="0.45" d="M110.826 157.739L87.4648 115.37L93.4696 187.8L110.826 157.739Z" fill="black"/>
<path opacity="0.45" d="M136.975 112.424L162.521 68.1774L91.4863 108.383L114.822 150.794L136.975 112.424Z" fill="black"/>
<path opacity="0.8" d="M114.831 150.797L163.27 149.826L162.529 68.18L114.831 150.797Z" fill="black"/>
<path opacity="0.45" fill-rule="evenodd" clip-rule="evenodd" d="M133.496 84.6152C123.117 79.6017 112.31 75.5349 101.259 72.5642C86.9656 68.9961 71.0193 66.8058 56.6224 71.8034C51.8521 73.6133 47.3184 76.3863 44.0807 80.3927C43.3491 81.217 42.4849 82.5482 41.88 83.4821C40.3533 86.1973 39.1723 89.2467 38.7345 92.3249C36.9601 103.727 41.7821 114.824 47.5143 124.185C58.7231 141.78 74.5962 155.894 91.7978 167.489L90.3832 150.423C83.8234 145.723 77.599 140.596 71.8662 135.005C62.1873 125.39 51.2935 112.426 49.4846 98.6143C48.5397 89.2928 53.5862 83.6147 62.0952 80.8074C77.2063 76.2419 95.2789 79.9196 110.206 84.4908C114.923 86.0181 119.685 87.7722 124.438 89.7413L133.496 84.6152ZM162.93 111.006L162.849 102.123C170.555 107.679 177.843 113.777 184.609 120.335C197.657 133.339 216.249 156.674 208.909 176.175C200.521 196.075 171.486 193.469 154.266 189.411L154.968 186.206C168.708 188.88 187.524 190.782 199.104 181.755C211.645 171.252 203.234 153.244 195.393 142.332C186.753 130.538 175.499 119.996 162.93 111.006Z" fill="black"/>
</g>
<defs>
<clipPath id="clip0_2520_674">
<rect width="256" height="256" fill="white"/>
</clipPath>
</defs>
</svg>
