<svg width="256" height="256" viewBox="0 0 256 256" fill="none" xmlns="http://www.w3.org/2000/svg">
<g clip-path="url(#clip0_2520_662)">
<mask id="mask0_2520_662" style="mask-type:luminance" maskUnits="userSpaceOnUse" x="0" y="0" width="256" height="256">
<path d="M256 0H0V256H256V0Z" fill="white"/>
</mask>
<g mask="url(#mask0_2520_662)">
<path d="M255.744 128C255.744 198.551 198.551 255.744 128 255.744C57.4488 255.744 0.255859 198.551 0.255859 128C0.255859 57.4489 57.4488 0.255981 128 0.255981C198.551 0.255981 255.744 57.4489 255.744 128Z" fill="white" stroke="#ECEDEF"/>
<path opacity="0.6" d="M114.832 150.794L163.272 149.823L136.985 112.423L91.4961 108.383L114.832 150.794Z" fill="black"/>
<path opacity="0.8" d="M159.231 156.804L110.816 157.732L93.46 187.794L159.231 156.804Z" fill="black"/>
<path opacity="0.45" d="M110.824 157.736L87.4629 115.368L93.4671 187.798L110.824 157.736Z" fill="black"/>
<path opacity="0.45" d="M136.981 112.43L162.526 68.184L91.4912 108.39L114.828 150.801L136.981 112.43Z" fill="black"/>
<path opacity="0.8" d="M114.832 150.794L163.272 149.822L162.531 68.1769L114.832 150.794Z" fill="black"/>
<path opacity="0.45" fill-rule="evenodd" clip-rule="evenodd" d="M124.433 89.7443L133.491 84.6177C123.113 79.6052 112.306 75.5389 101.256 72.5683C86.9631 68.9996 71.0164 66.8093 56.6194 71.8074C51.8491 73.6174 47.3155 76.3898 44.0778 80.3962C43.3461 81.2211 42.482 82.5523 41.8771 83.4862C40.3504 86.2013 39.1694 89.2503 38.7316 92.3289C36.9572 103.731 41.7791 114.828 47.5114 124.189C58.7176 141.78 74.5855 155.891 91.7826 167.485L90.3679 150.418C83.8128 145.721 77.5925 140.596 71.8632 135.009C62.1849 125.394 51.2905 112.43 49.4816 98.6183C48.5368 89.2969 53.5838 83.6188 62.0922 80.811C77.2034 76.246 95.2754 79.9237 110.203 84.4948C114.92 86.0216 119.681 87.7757 124.433 89.7443ZM162.919 111.004C175.49 119.996 186.748 130.539 195.391 142.336C203.232 153.248 211.643 171.256 199.101 181.759C187.521 190.787 168.705 188.884 154.966 186.21L154.262 189.414C171.483 193.473 200.518 196.079 208.906 176.179C216.246 156.678 197.654 133.343 184.606 120.338C177.837 113.779 170.547 107.678 162.838 102.121L162.919 111.004Z" fill="black"/>
</g>
</g>
<defs>
<clipPath id="clip0_2520_662">
<rect width="256" height="256" fill="white"/>
</clipPath>
</defs>
</svg>
