<svg width="256" height="256" viewBox="0 0 256 256" fill="none" xmlns="http://www.w3.org/2000/svg">
<g clip-path="url(#clip0_1323_450)">
<mask id="mask0_1323_450" style="mask-type:luminance" maskUnits="userSpaceOnUse" x="0" y="0" width="256" height="256">
<path d="M256 0H0V256H256V0Z" fill="white"/>
</mask>
<g mask="url(#mask0_1323_450)">
<path d="M127 253C196.036 253 252 197.036 252 128C252 58.9644 196.036 3 127 3C57.9644 3 2 58.9644 2 128C2 197.036 57.9644 253 127 253Z" fill="black"/>
<path d="M43.6734 56.0241C45.0396 54.307 46.4872 52.6548 47.9348 51.0026C47.9997 50.9206 48.1465 50.9041 48.2114 50.8222C48.3418 50.6588 48.5535 50.5604 48.6833 50.3965L48.8137 50.2331C49.8229 49.3003 50.8965 48.285 52.1346 47.4006C56.5148 44.0753 61.0605 41.5492 65.8538 39.8871C81.2279 34.4894 98.3417 37.8158 111.762 50.4856C130.501 68.0509 128.823 96.3479 113.864 115.156C94.9614 143.194 62.4762 182.311 107.455 217.353C115.542 223.654 121.541 228.848 147.016 236.21C130.355 239.279 114.907 238.324 97.7114 233.933C85.5487 227.067 66.4263 212.368 59.9204 192.515C50.0875 162.409 77.2322 117.402 90.3508 100.069C108.362 76.0793 79.2182 50.1099 57.7616 79.1021C46.546 94.2111 26.9242 136.966 33.7431 168.681C37.7301 186.665 43.0442 199.774 64.1147 217.782C60.2075 215.477 56.413 212.862 52.7324 209.936C3.77637 164.333 9.4561 93.8223 43.6734 56.0241Z" fill="url(#paint0_linear_1323_450)"/>
<path d="M210.327 199.976C208.96 201.693 207.513 203.345 206.065 204.997C206 205.079 205.854 205.096 205.789 205.178C205.658 205.341 205.447 205.439 205.317 205.603L205.186 205.767C204.177 206.7 203.104 207.715 201.865 208.599C197.485 211.925 192.939 214.451 188.146 216.113C172.772 221.51 155.658 218.184 142.238 205.514C123.499 187.949 125.177 159.652 140.136 140.844C159.039 112.806 191.524 73.6886 146.545 38.647C138.458 32.3462 132.459 27.1515 106.984 19.7897C123.645 16.7205 139.093 17.6753 156.288 22.0673C168.451 28.9324 187.574 43.6317 194.08 63.485C203.913 93.5909 176.768 138.597 163.649 155.931C145.638 179.921 174.782 205.89 196.238 176.898C207.454 161.789 227.076 119.033 220.257 87.3193C216.27 69.3348 210.956 56.2256 189.885 38.2175C193.793 40.5231 197.587 43.1383 201.268 46.0643C250.224 91.667 244.544 162.178 210.327 199.976Z" fill="url(#paint1_linear_1323_450)"/>
</g>
</g>
<defs>
<linearGradient id="paint0_linear_1323_450" x1="17" y1="128" x2="237" y2="128" gradientUnits="userSpaceOnUse">
<stop stop-color="#0082FA"/>
<stop offset="1" stop-color="#00F2FE"/>
</linearGradient>
<linearGradient id="paint1_linear_1323_450" x1="17" y1="128" x2="237" y2="128" gradientUnits="userSpaceOnUse">
<stop stop-color="#0082FA"/>
<stop offset="1" stop-color="#00F2FE"/>
</linearGradient>
<clipPath id="clip0_1323_450">
<rect width="256" height="256" fill="white"/>
</clipPath>
</defs>
</svg>
