<svg width="256" height="256" viewBox="0 0 256 256" fill="none" xmlns="http://www.w3.org/2000/svg">
<g clip-path="url(#clip0_2146_10910)">
<path fill-rule="evenodd" clip-rule="evenodd" d="M128 0C198.697 0 256 57.3026 256 128C256 198.697 198.697 256 128 256C57.3026 256 0 198.697 0 128C0 57.3026 57.3026 0 128 0Z" fill="black"/>
<path fill-rule="evenodd" clip-rule="evenodd" d="M159.62 74.6206C130.194 74.6206 106.241 98.5586 106.241 128C106.241 157.441 130.179 181.379 159.62 181.379C189.062 181.379 213 157.441 213 128C213 98.5586 189.062 74.6206 159.62 74.6206ZM159.62 166.113C138.578 166.113 121.492 149.027 121.492 127.985C121.492 106.942 138.578 89.8567 159.62 89.8567C180.663 89.8567 197.749 106.942 197.749 127.985C197.749 149.027 180.663 166.113 159.62 166.113ZM84.8955 158.487H78.8009C76.2086 158.487 74.2226 156.501 74.2226 153.909V102.834C74.2226 100.241 76.2086 98.2555 78.8009 98.2555H84.8955C87.488 98.2555 89.4737 100.241 89.4737 102.834V153.924C89.4737 156.516 87.488 158.502 84.8955 158.502V158.487ZM48.2986 147.966H54.393C56.9854 147.966 58.9714 145.98 58.9714 143.387V112.733C58.9714 110.141 56.9854 108.155 54.393 108.155H48.3138C45.7213 108.155 43.7354 110.141 43.7354 112.733V143.387C43.7354 145.98 45.7213 147.966 48.3138 147.966H48.2986Z" fill="url(#paint0_linear_2146_10910)"/>
</g>
<defs>
<linearGradient id="paint0_linear_2146_10910" x1="43.7354" y1="127.985" x2="213" y2="127.985" gradientUnits="userSpaceOnUse">
<stop stop-color="#00F0FF"/>
<stop offset="1" stop-color="#ACFD00"/>
</linearGradient>
<clipPath id="clip0_2146_10910">
<rect width="256" height="256" fill="white"/>
</clipPath>
</defs>
</svg>
