<svg width="256" height="256" viewBox="0 0 256 256" fill="none" xmlns="http://www.w3.org/2000/svg">
<g clip-path="url(#clip0_2560_2024)">
<path d="M128 256C198.692 256 256 198.692 256 128C256 57.3077 198.692 0 128 0C57.3077 0 0 57.3077 0 128C0 198.692 57.3077 256 128 256Z" fill="url(#paint0_radial_2560_2024)"/>
<path d="M128 195.264C128 199.551 131.488 203.067 135.755 202.63C173.584 198.752 203.093 166.819 203.093 128C203.093 89.1808 173.584 57.2482 135.755 53.3702C131.488 52.9303 128 56.4491 128 60.7358V81.4325C128 85.7193 131.511 89.1134 135.719 89.9595C153.472 93.5375 166.841 109.207 166.841 128C166.841 146.793 153.472 162.463 135.719 166.041C131.511 166.887 128 170.283 128 174.567V195.264ZM104.695 67.3534C104.695 62.0759 99.5239 58.3558 94.7874 60.6918C69.9733 72.9363 52.9062 98.4762 52.9062 128C52.9062 157.524 69.9733 183.064 94.7874 195.308C99.5239 197.644 104.695 193.924 104.695 188.647V67.3559V67.3534Z" fill="#3F75FF"/>
</g>
<defs>
<radialGradient id="paint0_radial_2560_2024" cx="0" cy="0" r="1" gradientUnits="userSpaceOnUse" gradientTransform="translate(83.6267 61.2267) rotate(54.1675) scale(212.088)">
<stop stop-color="white"/>
<stop offset="1" stop-color="#D5E0FC"/>
</radialGradient>
<clipPath id="clip0_2560_2024">
<rect width="256" height="256" fill="white"/>
</clipPath>
</defs>
</svg>
