<svg width="256" height="256" viewBox="0 0 256 256" fill="none" xmlns="http://www.w3.org/2000/svg">
<g clip-path="url(#clip0_741_46)">
<path d="M256 128C256 198.692 198.692 256 128 256C57.3075 256 0 198.692 0 128C0 57.3075 57.3075 0 128 0C198.692 0 256 57.3075 256 128Z" fill="#1A0A2D"/>
<path fill-rule="evenodd" clip-rule="evenodd" d="M100.994 178.903H186.933L160.444 162.549H74.5051L100.994 178.903ZM195.553 183.796H100.298C99.8444 183.796 99.4009 183.67 99.0142 183.433L64.5994 162.185C63.6686 161.61 63.2329 160.486 63.532 159.434C63.8285 158.382 64.7902 157.655 65.8834 157.655H161.138C161.592 157.655 162.038 157.784 162.424 158.019L196.839 179.269C197.77 179.841 198.206 180.965 197.907 182.017C197.608 183.069 196.648 183.796 195.553 183.796Z" fill="white"/>
<mask id="mask0_741_46" style="mask-type:alpha" maskUnits="userSpaceOnUse" x="57" y="72" width="136" height="27">
<path d="M57.5103 72.3384H192.072V98.4788H57.5103V72.3384Z" fill="white"/>
</mask>
<g mask="url(#mask0_741_46)">
<path fill-rule="evenodd" clip-rule="evenodd" d="M95.0661 93.5852H181.005L154.516 77.2312H68.5769L95.0661 93.5852ZM189.624 98.4789H94.3699C93.9161 98.4789 93.4727 98.3526 93.0859 98.1154L58.6711 76.8677C57.7404 76.2927 57.3046 75.1686 57.6037 74.1167C57.9002 73.0647 58.8619 72.3376 59.9551 72.3376H155.21C155.663 72.3376 156.109 72.4666 156.496 72.7012L190.911 93.9514C191.842 94.5237 192.277 95.6479 191.978 96.6998C191.679 97.7518 190.72 98.4789 189.624 98.4789Z" fill="white"/>
</g>
<path fill-rule="evenodd" clip-rule="evenodd" d="M117.393 128.286C117.321 121.108 123.083 115.23 130.264 115.157C137.442 115.085 143.32 120.848 143.392 128.026C143.464 135.209 137.702 141.085 130.522 141.157C123.344 141.229 117.465 135.467 117.393 128.286Z" fill="white"/>
<path fill-rule="evenodd" clip-rule="evenodd" d="M130.398 117.157H130.284C127.345 117.188 124.594 118.359 122.536 120.455C120.479 122.556 119.363 125.328 119.394 128.267C119.453 134.329 124.413 139.119 130.503 139.158C136.567 139.096 141.453 134.112 141.391 128.048C141.363 125.109 140.19 122.36 138.091 120.303C136.021 118.271 133.293 117.157 130.398 117.157ZM130.393 143.159C122.188 143.159 115.475 136.528 115.392 128.306C115.353 124.302 116.875 120.52 119.68 117.655C122.485 114.796 126.236 113.197 130.243 113.159C130.295 113.156 130.349 113.156 130.4 113.156C134.348 113.156 138.068 114.677 140.891 117.444C143.753 120.249 145.352 124 145.393 128.007C145.475 136.278 138.813 143.074 130.542 143.157C130.493 143.157 130.444 143.159 130.393 143.159Z" fill="white"/>
</g>
<defs>
<clipPath id="clip0_741_46">
<rect width="256" height="256" fill="white"/>
</clipPath>
</defs>
</svg>
