<svg width="256" height="256" viewBox="0 0 256 256" fill="none" xmlns="http://www.w3.org/2000/svg">
<g clip-path="url(#clip0_2634_9705)">
<mask id="mask0_2634_9705" style="mask-type:luminance" maskUnits="userSpaceOnUse" x="0" y="0" width="256" height="256">
<path d="M256 0H0V256H256V0Z" fill="white"/>
</mask>
<g mask="url(#mask0_2634_9705)">
<mask id="mask1_2634_9705" style="mask-type:luminance" maskUnits="userSpaceOnUse" x="-1" y="12" width="257" height="232">
<path d="M256 12.373H-0.0703125V243.627H256V12.373Z" fill="white"/>
</mask>
<g mask="url(#mask1_2634_9705)">
<path d="M127.965 243.627C191.824 243.627 243.592 191.859 243.592 128C243.592 64.1406 191.824 12.3726 127.965 12.3726C64.1059 12.3726 12.3379 64.1406 12.3379 128C12.3379 191.859 64.1059 243.627 127.965 243.627Z" fill="#390176"/>
<path d="M127.964 239.183C189.369 239.183 239.147 189.405 239.147 128C239.147 66.5954 189.369 16.8169 127.964 16.8169C66.5595 16.8169 16.7812 66.5954 16.7812 128C16.7812 189.405 66.5595 239.183 127.964 239.183Z" fill="url(#paint0_radial_2634_9705)"/>
<path d="M16.7812 128C16.7812 189.404 66.5605 239.183 127.964 239.183C189.368 239.183 239.147 189.404 239.147 128H16.7812Z" fill="url(#paint1_radial_2634_9705)"/>
<g style="mix-blend-mode:multiply" opacity="0.6">
<path d="M238.081 112.612C237.578 116.4 236.883 120.214 236.007 124.028C234.17 119.858 231.121 116.337 227.257 113.922C223.393 111.508 218.892 110.312 214.339 110.489C209.786 110.667 205.391 112.21 201.727 114.918C198.062 117.626 195.297 121.373 193.791 125.673C192.284 129.974 192.106 134.628 193.279 139.031C194.453 143.433 196.924 147.381 200.37 150.361C203.817 153.341 208.081 155.216 212.607 155.741C217.133 156.266 221.712 155.417 225.75 153.305C212.262 194.934 170.178 226.311 127.882 226.311C85.5185 226.311 44.0654 194.931 29.93 153.064C33.9592 155.285 38.5678 156.229 43.1457 155.772C47.7233 155.315 52.0542 153.477 55.5646 150.504C59.0747 147.53 61.5989 143.56 62.8021 139.12C64.0056 134.679 63.8318 129.978 62.3035 125.639C60.7755 121.299 57.9649 117.527 54.2446 114.82C50.5243 112.114 46.0696 110.601 41.4705 110.483C36.8715 110.366 32.3451 111.648 28.491 114.16C24.6368 116.672 21.6368 120.296 19.8882 124.551C18.9977 120.757 18.2881 116.963 17.7651 113.194C17.1108 118.103 16.7821 123.048 16.7812 128C16.7812 189.404 66.5605 239.183 127.964 239.183C189.368 239.183 239.147 189.404 239.147 128C239.145 122.852 238.789 117.711 238.081 112.612Z" fill="#B2A8C1"/>
</g>
<path d="M11.8684 142.047C8.70206 142.047 5.66539 140.789 3.42645 138.55C1.18751 136.312 -0.0703125 133.275 -0.0703125 130.108C-0.0703125 126.942 1.18751 123.906 3.42645 121.667C5.66539 119.428 8.70206 118.17 11.8684 118.17H244.061C245.629 118.17 247.182 118.479 248.63 119.079C250.078 119.679 251.395 120.558 252.503 121.667C253.612 122.775 254.491 124.091 255.091 125.54C255.691 126.988 256 128.541 256 130.108C256 131.676 255.691 133.229 255.091 134.677C254.491 136.126 253.612 137.442 252.503 138.55C251.395 139.659 250.078 140.539 248.63 141.139C247.182 141.739 245.629 142.047 244.061 142.047H11.8684Z" fill="#390176"/>
<path d="M245.628 120.98H10.3055C6.1273 120.98 2.74023 124.367 2.74023 128.545V131.672C2.74023 135.85 6.1273 139.237 10.3055 139.237H245.628C249.806 139.237 253.193 135.85 253.193 131.672V128.545C253.193 124.367 249.806 120.98 245.628 120.98Z" fill="#455399"/>
<path d="M2.75586 129.874H253.178C253.119 127.495 252.132 125.233 250.429 123.572C248.726 121.91 246.44 120.98 244.06 120.98H11.8675C9.48885 120.982 7.20488 121.912 5.50271 123.574C3.80053 125.235 2.81485 127.496 2.75586 129.874Z" fill="white"/>
<g style="mix-blend-mode:multiply" opacity="0.6">
<path d="M127.081 199.491C161.724 199.491 189.808 171.407 189.808 136.764C189.808 102.12 161.724 74.0366 127.081 74.0366C92.4374 74.0366 64.3535 102.12 64.3535 136.764C64.3535 171.407 92.4374 199.491 127.081 199.491Z" fill="#B2A8C1"/>
</g>
<path d="M127.965 190.727C162.609 190.727 190.692 162.643 190.692 128C190.692 93.3568 162.609 65.2729 127.965 65.2729C93.3221 65.2729 65.2383 93.3568 65.2383 128C65.2383 162.643 93.3221 190.727 127.965 190.727Z" fill="#390176"/>
<path d="M127.965 188.697C161.487 188.697 188.662 161.522 188.662 128C188.662 94.4778 161.487 67.3027 127.965 67.3027C94.4426 67.3027 67.2676 94.4778 67.2676 128C67.2676 161.522 94.4426 188.697 127.965 188.697Z" fill="#50CCC9"/>
<g style="mix-blend-mode:multiply" opacity="0.6">
<path d="M67.2676 128C67.2676 161.52 94.4442 188.697 127.965 188.697C161.486 188.697 188.662 161.52 188.662 128C188.662 127.533 188.662 127.07 188.645 126.606H67.2845C67.2762 127.07 67.2676 127.533 67.2676 128Z" fill="#B2A8C1"/>
</g>
<path d="M127.965 180.877C157.169 180.877 180.843 157.203 180.843 128C180.843 98.7963 157.169 75.1221 127.965 75.1221C98.7618 75.1221 75.0879 98.7963 75.0879 128C75.0879 157.203 98.7618 180.877 127.965 180.877Z" fill="#390176"/>
<path d="M127.965 179.235C156.262 179.235 179.2 156.296 179.2 128C179.2 99.7037 156.262 76.7651 127.965 76.7651C99.669 76.7651 76.7305 99.7037 76.7305 128C76.7305 156.296 99.669 179.235 127.965 179.235Z" fill="#4A6899"/>
<g style="mix-blend-mode:multiply" opacity="0.6">
<path d="M127.965 78.9475C155.894 78.9475 178.59 101.298 179.172 129.091C179.172 128.726 179.2 128.365 179.2 128C179.2 114.412 173.802 101.38 164.194 91.7715C154.586 82.1629 141.554 76.7651 127.965 76.7651C114.377 76.7651 101.345 82.1629 91.7369 91.7715C82.1282 101.38 76.7305 114.412 76.7305 128C76.7305 128.365 76.7503 128.726 76.7586 129.091C77.341 101.298 100.034 78.9475 127.965 78.9475Z" fill="#B2A8C1"/>
</g>
<path d="M127.965 168.252C150.195 168.252 168.217 150.23 168.217 128C168.217 105.769 150.195 87.748 127.965 87.748C105.734 87.748 87.7129 105.769 87.7129 128C87.7129 150.23 105.734 168.252 127.965 168.252Z" fill="#390176"/>
<path d="M127.966 166.239C149.084 166.239 166.205 149.119 166.205 128C166.205 106.881 149.084 89.7607 127.966 89.7607C106.847 89.7607 89.7266 106.881 89.7266 128C89.7266 149.119 106.847 166.239 127.966 166.239Z" fill="url(#paint2_linear_2634_9705)"/>
<path d="M127.965 163.222C147.417 163.222 163.187 147.453 163.187 128C163.187 108.547 147.417 92.7773 127.965 92.7773C108.512 92.7773 92.7422 108.547 92.7422 128C92.7422 147.453 108.512 163.222 127.965 163.222Z" fill="url(#paint3_linear_2634_9705)"/>
<g opacity="0.4">
<path opacity="0.4" d="M127.965 152.655C141.582 152.655 152.62 141.617 152.62 128C152.62 114.384 141.582 103.345 127.965 103.345C114.349 103.345 103.311 114.384 103.311 128C103.311 141.617 114.349 152.655 127.965 152.655Z" fill="url(#paint4_linear_2634_9705)"/>
</g>
<g style="mix-blend-mode:screen">
<path style="mix-blend-mode:screen" d="M143.627 119.27C148.719 119.27 152.846 115.142 152.846 110.051C152.846 104.959 148.719 100.832 143.627 100.832C138.536 100.832 134.408 104.959 134.408 110.051C134.408 115.142 138.536 119.27 143.627 119.27Z" fill="url(#paint5_linear_2634_9705)"/>
</g>
<g style="mix-blend-mode:screen" opacity="0.6">
<path style="mix-blend-mode:screen" opacity="0.6" d="M108.586 153.574C111.273 153.574 113.451 151.395 113.451 148.708C113.451 146.021 111.273 143.843 108.586 143.843C105.899 143.843 103.721 146.021 103.721 148.708C103.721 151.395 105.899 153.574 108.586 153.574Z" fill="url(#paint6_linear_2634_9705)"/>
</g>
<g style="mix-blend-mode:multiply">
<g style="mix-blend-mode:multiply">
<path d="M127.965 92.7774C137.844 92.7799 147.338 96.6059 154.459 103.453C161.579 110.301 165.773 119.639 166.162 129.51C166.182 129.009 166.198 128.506 166.198 128C166.198 117.858 162.17 108.132 154.998 100.961C147.827 93.7895 138.101 89.7607 127.959 89.7607C117.818 89.7607 108.092 93.7895 100.92 100.961C93.7492 108.132 89.7207 117.858 89.7207 128C89.7207 128.506 89.7377 129.009 89.7572 129.51C90.146 119.637 94.3415 110.297 101.464 103.449C108.587 96.6017 118.085 92.7771 127.965 92.7774Z" fill="#85D0E4"/>
</g>
</g>
<path d="M40.8915 152.813C53.4307 152.813 63.5959 142.648 63.5959 130.109C63.5959 117.57 53.4307 107.405 40.8915 107.405C28.3525 107.405 18.1875 117.57 18.1875 130.109C18.1875 142.648 28.3525 152.813 40.8915 152.813Z" fill="#390176"/>
<path d="M40.8912 149.729C51.7271 149.729 60.5111 140.945 60.5111 130.109C60.5111 119.273 51.7271 110.489 40.8912 110.489C30.0556 110.489 21.2715 119.273 21.2715 130.109C21.2715 140.945 30.0556 149.729 40.8912 149.729Z" fill="white"/>
<g style="mix-blend-mode:multiply" opacity="0.6">
<path d="M40.8906 144.437C36.1476 144.436 31.5655 142.718 27.9921 139.6C24.4187 136.481 22.0962 132.173 21.4544 127.474C21.3354 128.351 21.2749 129.235 21.2734 130.12C21.3354 135.282 23.4296 140.212 27.1021 143.841C30.7745 147.47 35.7293 149.505 40.8919 149.505C46.0545 149.505 51.0093 147.47 54.6817 143.841C58.3543 140.212 60.4484 135.282 60.5105 130.12C60.5079 129.235 60.4465 128.351 60.3265 127.474C59.6849 132.173 57.3623 136.481 53.7889 139.6C50.2154 142.718 45.6333 144.436 40.8906 144.437Z" fill="#B2A8C1"/>
</g>
<path d="M215.505 152.813C228.044 152.813 238.209 142.648 238.209 130.109C238.209 117.57 228.044 107.405 215.505 107.405C202.966 107.405 192.801 117.57 192.801 130.109C192.801 142.648 202.966 152.813 215.505 152.813Z" fill="#390176"/>
<path d="M215.505 149.729C226.34 149.729 235.124 140.945 235.124 130.109C235.124 119.273 226.34 110.489 215.505 110.489C204.669 110.489 195.885 119.273 195.885 130.109C195.885 140.945 204.669 149.729 215.505 149.729Z" fill="white"/>
<g style="mix-blend-mode:multiply" opacity="0.6">
<path d="M215.506 144.437C210.763 144.436 206.181 142.717 202.608 139.599C199.035 136.48 196.712 132.173 196.07 127.474C195.951 128.351 195.89 129.235 195.889 130.12C195.881 132.813 196.429 135.478 197.496 137.95C198.563 140.423 200.128 142.649 202.093 144.489C204.058 146.331 206.381 147.748 208.917 148.652C211.453 149.557 214.148 149.93 216.835 149.748C219.521 149.566 222.142 148.833 224.533 147.594C226.924 146.356 229.034 144.638 230.733 142.549C232.431 140.46 233.681 138.043 234.406 135.449C235.13 132.856 235.312 130.141 234.942 127.474C234.3 132.173 231.977 136.481 228.404 139.6C224.831 142.718 220.249 144.436 215.506 144.437Z" fill="#B2A8C1"/>
</g>
<g style="mix-blend-mode:multiply" opacity="0.6">
<path d="M64.0363 98.3892C61.3195 98.0244 56.2366 96.266 52.7282 88.5706C51.6763 86.2721 50.3592 85.8452 49.46 85.7265C47.235 85.4298 44.1592 86.7246 41.1851 87.9882C37.7928 89.4158 34.6066 90.7617 31.7004 90.3742C30.898 90.2804 30.1228 90.0254 29.4213 89.6244C28.7199 89.2238 28.1066 88.6855 27.6181 88.042C25.8766 85.803 25.9219 83.123 27.7595 80.4993C29.7384 77.6724 33.6651 75.0487 38.5448 73.2932C43.7269 71.4273 49.333 70.7684 54.3339 71.4385C64.7941 72.8379 71.5989 79.6766 73.4789 90.6967C73.6552 91.7531 73.5512 92.8372 73.1771 93.841C72.803 94.8446 72.172 95.7326 71.3474 96.4158C69.4814 98.0471 66.8238 98.7678 64.0478 98.3947L64.0363 98.3892Z" fill="#B2A8C1"/>
</g>
<path d="M64.1585 95.7712C61.4417 95.4093 56.3588 93.6509 52.8503 85.9527C51.7985 83.6544 50.4811 83.2301 49.5822 83.1088C47.3601 82.8119 44.2843 84.1095 41.3073 85.3703C37.915 86.7837 34.7287 88.1466 31.8226 87.7565C31.0209 87.6624 30.2464 87.4077 29.5454 87.0074C28.8445 86.6071 28.2315 86.0695 27.7431 85.4269C26.0016 83.185 26.0469 80.505 27.8845 77.8813C29.8634 75.0544 33.7873 72.4307 38.667 70.6752C43.8491 68.8122 49.4577 68.1536 54.4561 68.8205C64.9163 70.2202 71.7239 77.0586 73.6039 88.0787C73.9684 90.216 73.1911 92.2995 71.4695 93.8007C69.6036 95.4291 66.946 96.1501 64.17 95.7796L64.1585 95.7712Z" fill="#390176"/>
<path d="M54.2371 85.4949C49.2106 74.5003 34.5325 91.853 28.9715 84.6949C25.8306 80.6523 30.4501 75.541 37.7072 72.4991C49.6288 67.5035 68.6637 68.0971 72.0957 88.2146C72.1325 88.4335 72.1543 88.6543 72.1607 88.876C72.3952 95.1832 60.3181 98.7877 54.2371 85.4949Z" fill="#7C9BD1"/>
<g style="mix-blend-mode:multiply" opacity="0.6">
<path d="M54.2371 85.4947C49.2106 74.5001 34.5325 91.8528 28.9715 84.6947C25.8306 80.6518 30.4501 75.5405 37.7072 72.4985C35.9687 74.2201 32.8247 78.0678 37.7242 79.4022C44.8567 81.3472 52.9904 75.023 56.6259 81.9296C60.5837 89.4525 62.3818 90.8659 65.144 91.6125C66.9248 92.096 70.617 91.4089 72.1607 88.8758C72.3952 95.183 60.3181 98.7875 54.2371 85.4947Z" fill="#B2A8C1"/>
</g>
<g style="mix-blend-mode:multiply" opacity="0.6">
<path d="M191.887 98.3892C194.604 98.0244 199.687 96.266 203.196 88.5706C204.247 86.2721 205.565 85.8452 206.464 85.7265C208.689 85.4298 211.765 86.7246 214.739 87.9882C218.131 89.4158 221.317 90.7617 224.223 90.3742C225.026 90.2801 225.801 90.0247 226.502 89.6241C227.204 89.2234 227.817 88.6852 228.306 88.042C230.047 85.803 230.002 83.123 228.165 80.4993C226.185 77.6724 222.259 75.0487 217.379 73.2932C212.197 71.4273 206.591 70.7684 201.59 71.4385C191.13 72.8379 184.322 79.6766 182.445 90.6967C182.269 91.7531 182.373 92.8372 182.747 93.841C183.121 94.8446 183.752 95.7326 184.577 96.4158C186.443 98.0471 189.1 98.7678 191.876 98.3947L191.887 98.3892Z" fill="#B2A8C1"/>
</g>
<path d="M191.772 95.7712C194.489 95.4093 199.571 93.6509 203.08 85.9527C204.132 83.6544 205.449 83.2301 206.348 83.1088C208.57 82.8119 211.646 84.1095 214.623 85.3703C218.015 86.7837 221.202 88.1466 224.108 87.7565C224.909 87.6624 225.684 87.4077 226.385 87.0074C227.086 86.6071 227.699 86.0695 228.187 85.4269C229.929 83.185 229.883 80.505 228.046 77.8813C226.067 75.0544 222.143 72.4307 217.26 70.6752C212.081 68.8122 206.473 68.1536 201.474 68.8205C191.014 70.2202 184.206 77.0586 182.326 88.0787C181.962 90.216 182.739 92.2995 184.461 93.8007C186.327 95.4291 188.984 96.1501 191.76 95.7796L191.772 95.7712Z" fill="#390176"/>
<path d="M201.69 85.4948C206.719 74.5003 221.397 91.8529 226.958 84.6948C230.099 80.6519 225.48 75.5406 218.223 72.4987C206.306 67.5006 187.266 68.0971 183.834 88.2145C183.797 88.4331 183.775 88.6542 183.769 88.8759C183.532 95.1831 195.612 98.7876 201.69 85.4948Z" fill="#7C9BD1"/>
<g style="mix-blend-mode:multiply" opacity="0.6">
<path d="M201.69 85.4947C206.719 74.5001 221.397 91.8528 226.958 84.6947C230.099 80.6518 225.48 75.5405 218.223 72.4985C219.961 74.2201 223.105 78.0678 218.206 79.4022C211.073 81.3472 202.939 75.023 199.304 81.9296C195.346 89.4525 193.548 90.8659 190.786 91.6125C189.005 92.096 185.313 91.4089 183.769 88.8758C183.532 95.183 195.612 98.7875 201.69 85.4947Z" fill="#B2A8C1"/>
</g>
<g style="mix-blend-mode:screen">
<path style="mix-blend-mode:screen" d="M151.771 34.8988C154.973 34.8988 157.569 32.6396 157.569 29.8525C157.569 27.0655 154.973 24.8062 151.771 24.8062C148.569 24.8062 145.973 27.0655 145.973 29.8525C145.973 32.6396 148.569 34.8988 151.771 34.8988Z" fill="url(#paint7_linear_2634_9705)"/>
</g>
<path d="M195.678 58.8554C193.312 59.4208 190.765 58.4061 189.776 56.3875C182.84 42.2266 164.464 37.8531 164.287 37.8163C161.638 37.2058 160.046 34.8422 160.741 32.5354C161.437 30.2285 164.134 28.8433 166.788 29.4398C167.733 29.6518 190.018 34.8538 198.918 52.9949C199.995 55.1917 198.822 57.7331 196.297 58.6717C196.095 58.7453 195.888 58.8067 195.678 58.8554Z" fill="url(#paint8_linear_2634_9705)"/>
</g>
</g>
</g>
<defs>
<radialGradient id="paint0_radial_2634_9705" cx="0" cy="0" r="1" gradientUnits="userSpaceOnUse" gradientTransform="translate(127.964 128) scale(111.183 111.183)">
<stop stop-color="#56C1FC"/>
<stop offset="1" stop-color="#3A8CFC"/>
</radialGradient>
<radialGradient id="paint1_radial_2634_9705" cx="0" cy="0" r="1" gradientUnits="userSpaceOnUse" gradientTransform="translate(127.964 183.592) scale(87.8963 87.8963)">
<stop stop-color="#5577E5"/>
<stop offset="1" stop-color="#3F3EE5"/>
</radialGradient>
<linearGradient id="paint2_linear_2634_9705" x1="149.406" y1="96.786" x2="106.098" y2="159.833" gradientUnits="userSpaceOnUse">
<stop stop-color="#30A4E4"/>
<stop offset="1" stop-color="#9DD0E4"/>
</linearGradient>
<linearGradient id="paint3_linear_2634_9705" x1="147.714" y1="99.2513" x2="107.824" y2="157.319" gradientUnits="userSpaceOnUse">
<stop stop-color="#85D0E4"/>
<stop offset="1" stop-color="#BBD0E4"/>
</linearGradient>
<linearGradient id="paint4_linear_2634_9705" x1="114.141" y1="148.123" x2="142.064" y2="107.475" gradientUnits="userSpaceOnUse">
<stop stop-color="#87D0E5"/>
<stop offset="0.3" stop-color="#6ECAE1"/>
<stop offset="0.95" stop-color="#2DBBD6"/>
<stop offset="1" stop-color="#28BAD5"/>
</linearGradient>
<linearGradient id="paint5_linear_2634_9705" x1="133.594" y1="108.953" x2="149.656" y2="98.7426" gradientUnits="userSpaceOnUse">
<stop stop-color="white" stop-opacity="0"/>
<stop offset="0.22" stop-color="white" stop-opacity="0.24"/>
<stop offset="0.6" stop-color="white" stop-opacity="0.64"/>
<stop offset="0.87" stop-color="white" stop-opacity="0.9"/>
<stop offset="1" stop-color="white"/>
</linearGradient>
<linearGradient id="paint6_linear_2634_9705" x1="3363.74" y1="13025.5" x2="3287.74" y2="13363.4" gradientUnits="userSpaceOnUse">
<stop stop-color="white" stop-opacity="0"/>
<stop offset="0.22" stop-color="white" stop-opacity="0.24"/>
<stop offset="0.6" stop-color="white" stop-opacity="0.64"/>
<stop offset="0.87" stop-color="white" stop-opacity="0.9"/>
<stop offset="1" stop-color="white"/>
</linearGradient>
<linearGradient id="paint7_linear_2634_9705" x1="8575.91" y1="1379.64" x2="6443.65" y2="445.084" gradientUnits="userSpaceOnUse">
<stop stop-color="white" stop-opacity="0"/>
<stop offset="0.22" stop-color="white" stop-opacity="0.24"/>
<stop offset="0.6" stop-color="white" stop-opacity="0.64"/>
<stop offset="0.87" stop-color="white" stop-opacity="0.9"/>
<stop offset="1" stop-color="white"/>
</linearGradient>
<linearGradient id="paint8_linear_2634_9705" x1="28179.2" y1="4330.91" x2="21372.3" y2="945.021" gradientUnits="userSpaceOnUse">
<stop stop-color="white" stop-opacity="0"/>
<stop offset="0.22" stop-color="white" stop-opacity="0.24"/>
<stop offset="0.6" stop-color="white" stop-opacity="0.64"/>
<stop offset="0.87" stop-color="white" stop-opacity="0.9"/>
<stop offset="1" stop-color="white"/>
</linearGradient>
<clipPath id="clip0_2634_9705">
<rect width="256" height="256" fill="white"/>
</clipPath>
</defs>
</svg>
