<svg width="256" height="256" viewBox="0 0 256 256" fill="none" xmlns="http://www.w3.org/2000/svg">
<g clip-path="url(#clip0_2004_1509)">
<path d="M256 128C256 57.3076 198.692 0 128 0C57.3076 0 0 57.3076 0 128C0 198.692 57.3076 256 128 256C198.692 256 256 198.692 256 128Z" fill="black"/>
<path d="M218 128C218 177.706 177.706 218 128 218V181.71C157.663 181.71 181.71 157.663 181.71 128C181.71 98.337 157.663 74.2904 128 74.2904C98.3368 74.2904 74.2902 98.337 74.2902 128H38C38 78.2944 78.2943 38 128 38C177.706 38 218 78.2944 218 128Z" fill="#39FF88"/>
</g>
<defs>
<clipPath id="clip0_2004_1509">
<rect width="256" height="256" fill="white"/>
</clipPath>
</defs>
</svg>
