<svg width="256" height="256" viewBox="0 0 256 256" fill="none" xmlns="http://www.w3.org/2000/svg">
<path d="M128.858 0.000706881C154.137 0.170258 178.8 7.82126 199.736 21.9889C220.672 36.1565 236.945 56.2063 246.501 79.6098C256.058 103.013 258.47 128.723 253.435 153.496C248.399 178.269 236.141 200.996 218.207 218.811C200.272 236.627 177.463 248.733 152.657 253.602C127.852 258.472 102.159 255.888 78.8203 246.175C55.4813 236.462 35.5409 220.056 21.5137 199.025C7.48647 177.995 0.000568594 153.281 0 128.002C0.114758 93.9402 13.7551 61.3192 37.9206 37.3146C62.086 13.3099 94.7972 -0.112222 128.858 0.000706881Z" fill="#020924"/>
<path d="M228.152 132.878C223.383 122.549 218.455 112.299 213.492 102.062C208.529 91.8239 203.497 81.649 198.375 71.5082L196.093 67L193.132 71.3542L186.167 81.5862L182.414 87.2301C180.816 85.2099 179.219 83.1955 177.57 81.2153L173.977 76.8896L170.554 81.552L152.75 105.885L135.197 130.367C129.327 138.516 123.651 146.796 117.867 155.002L109.23 167.34L103.959 175.055C98.7228 169.474 93.486 163.893 88.158 158.403C81.4837 151.476 74.8665 144.508 68.0896 137.677C61.3126 130.846 54.5927 123.981 47.7473 117.196C40.9019 110.411 34.0051 103.711 27 97.0855C32.9175 104.694 38.9243 112.223 45.0205 119.672C51.1168 127.121 57.2605 134.527 63.4518 141.888C69.6013 149.307 75.899 156.549 82.1512 163.859C88.4033 171.169 94.7524 178.382 101.084 185.613L104.855 189.916L108.341 185.173L117.257 173.035L126.036 160.8C131.86 152.623 137.793 144.519 143.537 136.262L160.788 111.603L174.684 91.3103C176.342 93.0794 178 94.8447 179.658 96.6061L183.435 100.601L186.036 96.0754L192.203 85.3526L195.734 79.0753C200.556 87.3347 205.424 95.5713 210.337 103.785C216.213 113.532 222.106 123.25 228.152 132.878Z" fill="url(#paint0_linear_1770_247)"/>
<path d="M27.1996 133.488C35.5852 134.202 43.9651 134.715 52.3508 135.115L49.8237 132.062C42.2823 132.472 34.7409 132.918 27.1996 133.488Z" fill="url(#paint1_linear_1770_247)"/>
<path d="M71.0274 134.801L72.077 135.873C73.737 135.93 75.397 135.987 77.0571 136.033C85.437 136.353 93.8226 136.353 102.203 136.507L125.722 136.655C127.205 134.544 128.677 132.432 130.172 130.338H127.319L102.18 130.498C93.7998 130.657 85.4141 130.657 77.0342 130.971C73.8682 131.057 70.6965 131.171 67.5305 131.291C68.7056 132.415 69.8922 133.631 71.0274 134.801Z" fill="url(#paint2_linear_1770_247)"/>
<path d="M177.633 130.948C169.293 130.629 160.959 130.629 152.625 130.475L148.386 136.529H152.488C160.868 136.37 169.253 136.37 177.633 136.056C192.918 135.622 208.202 134.878 223.486 133.824L223.098 133.197C207.947 132.118 192.79 131.525 177.633 130.948Z" fill="url(#paint3_linear_1770_247)"/>
<defs>
<linearGradient id="paint0_linear_1770_247" x1="23.1781" y1="128.458" x2="232.779" y2="128.458" gradientUnits="userSpaceOnUse">
<stop stop-color="#FFF33B"/>
<stop offset="0.059" stop-color="#FFE029"/>
<stop offset="0.13" stop-color="#FFD218"/>
<stop offset="0.203" stop-color="#FEC90F"/>
<stop offset="0.281" stop-color="#FDC70C"/>
<stop offset="0.669" stop-color="#F3903F"/>
<stop offset="0.888" stop-color="#ED683C"/>
<stop offset="1" stop-color="#E93E3A"/>
</linearGradient>
<linearGradient id="paint1_linear_1770_247" x1="27.2247" y1="133.612" x2="52.2404" y2="131.758" gradientUnits="userSpaceOnUse">
<stop stop-color="#2484C6"/>
<stop offset="1" stop-color="#2484C6"/>
</linearGradient>
<linearGradient id="paint2_linear_1770_247" x1="67.5305" y1="133.497" x2="130.172" y2="133.497" gradientUnits="userSpaceOnUse">
<stop stop-color="#2484C6"/>
<stop offset="1" stop-color="#2484C6"/>
</linearGradient>
<linearGradient id="paint3_linear_1770_247" x1="148.461" y1="133.502" x2="221.67" y2="121.697" gradientUnits="userSpaceOnUse">
<stop stop-color="#3C9CD1"/>
<stop offset="1" stop-color="#1B2D91"/>
</linearGradient>
</defs>
</svg>
