<svg width="256" height="256" viewBox="0 0 256 256" fill="none" xmlns="http://www.w3.org/2000/svg">
<g clip-path="url(#clip0_741_46)">
<path d="M256 128C256 198.692 198.692 256 128 256C57.3075 256 0 198.692 0 128C0 57.3075 57.3075 0 128 0C198.692 0 256 57.3075 256 128Z" fill="white"/>
<path d="M85.949 176.086L36.8574 181.607L65.6832 115.096L36.1726 74.8638L107.927 66.689L127.422 21.856L170.137 79.9142L219.228 74.393L190.531 140.583L219.827 180.537L148.437 188.669L128.642 234.144L85.949 176.086ZM106.343 171.677C104.46 172.598 102.448 173.368 100.373 173.946L98.4894 174.459L126.16 212.081L135.982 189.482L134.206 189.247C124.533 188.027 115.738 182.805 110.067 174.973L107.306 171.164L106.343 171.677ZM96.7132 137.566L119.033 168.446C123.57 174.716 130.91 178.461 138.657 178.461C139.556 178.461 140.455 178.418 141.332 178.311L199.583 171.677L176.385 140.027C175.23 138.465 173.903 137.052 172.426 135.811L171.057 134.677L154.45 172.191L125.56 133.949L96.7132 137.566ZM97.6762 99.966C89.0306 100.886 81.4978 106.429 78.031 114.432L54.6408 168.425L93.5032 164.059C95.4292 163.845 97.3124 163.396 99.1314 162.732L100.801 162.112L76.747 128.899L124.169 122.885L135.447 95.9428L97.6762 99.966ZM134.377 127.208L151.947 150.47L162.668 126.267L167.376 115.609C170.907 107.627 169.901 98.3182 164.722 91.299L129.905 43.9194L114.24 79.9142C113.469 81.6904 112.913 83.5522 112.571 85.4782L112.271 87.233L152.91 82.9316L134.377 127.208ZM177.07 90.3146L177.755 91.9624C181.521 100.972 181.436 111.244 177.498 120.125L175.594 124.405L176.514 125.025C178.269 126.202 179.916 127.572 181.436 129.091L182.827 130.461L201.423 87.554L177.07 90.3146ZM56.417 83.7234L71.2258 103.925L72.3172 102.513C78.2022 94.8728 87.0404 89.908 96.5206 88.9022L101.164 88.41L101.25 87.2758C101.4 84.9432 101.806 82.6106 102.427 80.3422L102.962 78.4162L56.417 83.7234Z" fill="url(#paint0_linear_741_46)"/>
<path d="M117.642 235C86.8264 232.026 59.1348 215.997 41.009 190.595L53.421 189.204C55.4754 191.729 57.6582 194.148 59.9052 196.416C73.3658 209.941 90.2076 219.057 108.676 222.823L117.642 235Z" fill="url(#paint1_linear_741_46)"/>
<path d="M143.494 223.508C163.481 220.277 181.65 210.925 196.095 196.416C197.379 195.11 198.684 193.719 199.99 192.264L215.034 190.552C196.972 215.933 169.323 231.983 138.507 235L143.494 223.508Z" fill="url(#paint2_linear_741_46)"/>
<path d="M218.094 162.304C222.203 151.369 224.3 139.834 224.3 128C224.3 117.557 222.652 107.285 219.421 97.4837L225.456 83.5737C231.79 97.5479 235 112.485 235 128C235 143.494 231.79 158.41 225.477 172.384L218.094 162.304Z" fill="url(#paint3_linear_741_46)"/>
<path d="M30.5872 172.533C24.2314 158.516 21 143.558 21 128C21 112.356 24.2528 97.3122 30.6942 83.2524L38.0558 93.3104C33.84 104.353 31.7 116.016 31.7 128C31.7 138.486 33.3478 148.779 36.6006 158.623L30.5872 172.533Z" fill="url(#paint4_linear_741_46)"/>
<path d="M41.4584 64.7844C59.5628 39.7892 87.0404 23.9532 117.578 21L112.592 32.4704C92.583 35.6804 74.3716 45.0536 59.9052 59.5842C58.8138 60.6756 57.7224 61.8526 56.631 63.051L41.4584 64.7844Z" fill="url(#paint5_linear_741_46)"/>
<path d="M202.6 66.796C200.546 64.2708 198.363 61.8526 196.095 59.5842C182.656 46.0808 165.835 36.9644 147.41 33.198L138.443 21C169.238 23.996 196.887 40.0246 214.991 65.405L202.6 66.796Z" fill="url(#paint6_linear_741_46)"/>
</g>
<defs>
<linearGradient id="paint0_linear_741_46" x1="41.5648" y1="214.135" x2="208.481" y2="47.2198" gradientUnits="userSpaceOnUse">
<stop stop-color="#009DDE"/>
<stop offset="0.5" stop-color="#694D9F"/>
<stop offset="1" stop-color="#ED3554"/>
</linearGradient>
<linearGradient id="paint1_linear_741_46" x1="59.7763" y1="232.347" x2="226.692" y2="65.4313" gradientUnits="userSpaceOnUse">
<stop stop-color="#009DDE"/>
<stop offset="0.5" stop-color="#694D9F"/>
<stop offset="1" stop-color="#ED3554"/>
</linearGradient>
<linearGradient id="paint2_linear_741_46" x1="107.398" y1="279.968" x2="274.313" y2="113.053" gradientUnits="userSpaceOnUse">
<stop stop-color="#009DDE"/>
<stop offset="0.5" stop-color="#694D9F"/>
<stop offset="1" stop-color="#ED3554"/>
</linearGradient>
<linearGradient id="paint3_linear_741_46" x1="90.4371" y1="263.008" x2="257.353" y2="96.0922" gradientUnits="userSpaceOnUse">
<stop stop-color="#009DDE"/>
<stop offset="0.5" stop-color="#694D9F"/>
<stop offset="1" stop-color="#ED3554"/>
</linearGradient>
<linearGradient id="paint4_linear_741_46" x1="-7.0185" y1="165.552" x2="159.897" y2="-1.36364" gradientUnits="userSpaceOnUse">
<stop stop-color="#009DDE"/>
<stop offset="0.5" stop-color="#694D9F"/>
<stop offset="1" stop-color="#ED3554"/>
</linearGradient>
<linearGradient id="paint5_linear_741_46" x1="-23.9437" y1="148.627" x2="142.972" y2="-18.2887" gradientUnits="userSpaceOnUse">
<stop stop-color="#009DDE"/>
<stop offset="0.5" stop-color="#694D9F"/>
<stop offset="1" stop-color="#ED3554"/>
</linearGradient>
<linearGradient id="paint6_linear_741_46" x1="23.6745" y1="196.245" x2="190.59" y2="29.3294" gradientUnits="userSpaceOnUse">
<stop stop-color="#009DDE"/>
<stop offset="0.5" stop-color="#694D9F"/>
<stop offset="1" stop-color="#ED3554"/>
</linearGradient>
<clipPath id="clip0_741_46">
<rect width="256" height="256" fill="white"/>
</clipPath>
</defs>
</svg>
