<svg width="256" height="256" viewBox="0 0 256 256" fill="none" xmlns="http://www.w3.org/2000/svg">
<g clip-path="url(#clip0_2383_882)">
<path d="M128 256C198.692 256 256 198.692 256 128C256 57.3076 198.692 0 128 0C57.3076 0 0 57.3076 0 128C0 198.692 57.3076 256 128 256Z" fill="url(#paint0_radial_2383_882)"/>
<path d="M129.077 39.3855C129.077 39.3855 126.248 88.1197 139.975 106.374C153.701 124.627 192.946 124.32 192.946 124.32C192.946 124.32 153.701 125.199 139.975 143.453C126.248 161.707 129.077 209.256 129.077 209.256C129.077 209.256 129.485 161.707 115.76 143.453C102.033 125.199 65.207 124.32 65.207 124.32C65.207 124.32 102.033 124.627 115.76 106.374C129.485 88.1197 129.077 39.3855 129.077 39.3855Z" fill="white"/>
<path d="M196.576 84.4499C197.526 86.4557 196.901 89.4328 194.208 93.3907C191.562 97.2782 187.127 101.791 181.2 106.641C169.359 116.329 151.749 127.204 131.18 136.947C110.611 146.689 91.0402 153.424 76.0426 156.448C68.5354 157.962 62.2343 158.533 57.5501 158.118C52.781 157.695 50.082 156.292 49.1321 154.287C48.1821 152.281 48.8063 149.303 51.5004 145.346C54.1466 141.458 58.5808 136.945 64.5082 132.096C76.3497 122.407 93.9586 111.532 114.528 101.789C135.098 92.0469 154.668 85.3127 169.665 82.2883C177.172 80.7745 183.474 80.2027 188.158 80.6181C192.927 81.0411 195.626 82.4443 196.576 84.4499Z" stroke="white" stroke-width="0.2"/>
<path d="M201.846 101.279C202.796 103.285 202.171 106.262 199.478 110.22C196.831 114.108 192.397 118.621 186.47 123.47C174.627 133.157 157.019 144.034 136.449 153.776C115.881 163.519 96.3097 170.253 81.3121 173.278C73.805 174.791 67.5039 175.363 62.8197 174.947C58.0506 174.525 55.3516 173.121 54.4017 171.116C53.4516 169.11 54.0758 166.133 56.77 162.175C59.4161 158.288 63.8504 153.775 69.7778 148.925C81.6193 139.237 99.2282 128.362 119.798 118.619C140.367 108.876 159.937 102.142 174.935 99.1177C182.442 97.6038 188.744 97.032 193.427 97.4475C198.197 97.8704 200.895 99.2736 201.846 101.279Z" stroke="white" stroke-width="0.2"/>
</g>
<defs>
<radialGradient id="paint0_radial_2383_882" cx="0" cy="0" r="1" gradientUnits="userSpaceOnUse" gradientTransform="translate(357.126 353.263) rotate(-126.798) scale(596.212)">
<stop offset="0.291667" stop-color="#03DDFD"/>
<stop offset="0.619792" stop-color="#F929FB"/>
</radialGradient>
<clipPath id="clip0_2383_882">
<rect width="256" height="256" fill="white"/>
</clipPath>
</defs>
</svg>
