<svg width="256" height="256" viewBox="0 0 256 256" fill="none" xmlns="http://www.w3.org/2000/svg">
<path d="M256 127.998C256 161.946 242.514 194.504 218.509 218.509C194.504 242.514 161.946 256 127.998 256C94.0514 255.999 61.495 242.513 37.491 218.509C13.487 194.505 0.00116778 161.95 0 128.002C-2.00871e-08 94.0551 13.4853 61.4975 37.4895 37.4926C61.4936 13.4876 94.0505 0.00116783 127.998 0C161.946 -2.00871e-08 194.503 13.4853 218.508 37.4895C242.512 61.4935 255.999 94.0505 256 127.998Z" fill="#4EFA74"/>
<g clip-path="url(#clip0_1810_343)">
<path d="M57 152.597H76.0516V201.333H57V152.597ZM179.948 121.264H199V170H179.948V121.264ZM88.1697 105.597H107.221V217H88.1697V105.597ZM119.339 109.082H138.391V194.371H119.339V109.082ZM148.779 29H167.83V170H148.779V29Z" fill="#232122"/>
</g>
<defs>
<clipPath id="clip0_1810_343">
<rect width="142" height="188" fill="white" transform="translate(57 29)"/>
</clipPath>
</defs>
</svg>
