<svg width="256" height="256" viewBox="0 0 256 256" fill="none" xmlns="http://www.w3.org/2000/svg">
<g clip-path="url(#clip0_2151_11188)">
<path fill-rule="evenodd" clip-rule="evenodd" d="M128 16C189.86 16 240 66.1397 240 128C240 189.86 189.86 240 128 240C66.1397 240 16 189.86 16 128C16 66.1397 66.1397 16 128 16Z" fill="white"/>
<path d="M169.322 113.286C160.452 117.527 151.583 121.69 142.765 126.035C139.895 127.457 138.472 127.198 138.602 123.578C138.705 119.958 138.602 116.338 138.602 112.718C138.602 108.813 138.524 104.908 138.602 100.978C138.679 98.0557 137.852 97.3058 135.111 98.9091C127.922 103.176 120.63 107.261 113.364 111.425C109.976 113.364 106.589 115.278 103.227 117.269C101.65 118.2 100.9 119.751 101.857 121.303C102.814 122.88 104.132 121.613 105.27 121.147C110.028 119.105 114.864 117.139 119.57 114.941C122.699 113.467 124.302 113.442 124.043 117.657C123.785 122.13 123.785 126.629 124.043 131.129C124.199 134.18 123.009 135.706 120.346 137.154C112.717 141.291 105.167 145.636 99.3485 152.307C90.841 162.107 92.5735 176.019 103.02 182.406C115.898 190.293 132.551 183.26 136.895 168.313C139.507 159.341 138.628 150.187 138.628 141.11C138.628 137.231 139.636 134.775 143.282 132.887C152.746 127.948 162.03 122.596 171.339 117.372C173.02 116.441 174.933 115.122 173.718 112.976C172.451 110.675 170.77 112.614 169.322 113.286ZM119.596 168.779C116.984 172.528 112.872 174.106 109.511 172.658C106.149 171.21 104.391 166.633 105.658 162.211C108.037 153.755 115.045 149.747 121.82 145.558C123.294 144.679 123.914 145.661 123.914 147.109C123.966 148.79 123.966 150.523 123.966 152.255C124.018 158.125 123.087 163.762 119.596 168.779Z" fill="#F7941C"/>
<path d="M179.846 75.8172C173.045 69.0164 164.977 63.6378 156.108 59.9658C147.238 56.2939 137.723 54.4062 128.103 54.4062C108.683 54.4062 90.0651 62.1121 76.3342 75.843C62.6033 89.5739 54.8975 108.192 54.8975 127.586C54.8975 137.205 56.7851 146.721 60.4829 155.591C64.1548 164.46 69.5593 172.528 76.3601 179.329C83.1609 186.13 91.2288 191.508 100.098 195.206C108.968 198.878 118.51 200.766 128.103 200.766C147.523 200.766 166.141 193.06 179.846 179.329C193.577 165.598 201.283 146.98 201.283 127.586C201.283 117.967 199.395 108.451 195.723 99.5812C192.026 90.66 186.647 82.5921 179.846 75.8172ZM175.554 174.959C162.961 187.552 145.894 194.611 128.103 194.611C110.312 194.611 93.2457 187.552 80.6526 174.985C68.0595 162.418 61.0001 145.351 60.9742 127.56C60.9742 118.742 62.7068 110.028 66.0942 101.883C69.4558 93.7372 74.4207 86.3416 80.6526 80.1097C86.8845 73.8778 94.2801 68.9388 102.426 65.5772C110.571 62.2155 119.285 60.483 128.103 60.483C145.894 60.483 162.96 67.5424 175.528 80.1355C188.121 92.7028 195.18 109.769 195.206 127.56C195.206 145.325 188.147 162.392 175.554 174.959Z" fill="#F7941C"/>
<path d="M121.898 88.2553C122.803 89.1604 123.889 89.8844 125.104 90.4016C126.294 90.8929 127.586 91.1515 128.879 91.1515C130.172 91.1515 131.465 90.8929 132.655 90.4016C133.844 89.9103 134.956 89.1862 135.861 88.2553C136.792 87.3503 137.516 86.2642 138.008 85.0488C138.499 83.8593 138.757 82.5664 138.757 81.2735C138.757 78.6618 137.723 76.1535 135.861 74.2917C133.999 72.4557 131.517 71.3955 128.879 71.3955H128.854C127.561 71.3955 126.268 71.6541 125.078 72.1454C123.889 72.6367 122.803 73.3608 121.872 74.2917C120.967 75.1967 120.243 76.2828 119.725 77.4981C119.234 78.6876 118.976 79.9806 118.976 81.2735C118.976 82.5664 119.234 83.8593 119.725 85.0488C120.243 86.2383 120.967 87.3244 121.898 88.2553Z" fill="#F7941C"/>
<path d="M128.129 0C56.5269 0 0 58.0525 0 127.871C0 198.723 57.2768 256 127.871 256C199.473 256 256 197.947 256 127.871C256 56.5269 197.947 0 128.129 0ZM214.885 138.576C214.885 140.671 214.083 141.55 211.989 141.808C210.36 142.015 208.756 142.196 207.127 142.403C206.3 146.67 205.136 150.833 203.636 154.919C204.878 155.901 206.222 156.858 207.489 157.841C209.351 159.263 209.584 160.297 208.42 162.34C204.929 168.365 201.464 174.364 197.973 180.389C196.784 182.432 195.775 182.743 193.629 181.889C192.078 181.243 190.5 180.596 188.949 179.924C186.182 183.156 183.131 186.156 179.872 188.897C180.545 190.474 181.217 192.052 181.863 193.655C182.743 195.827 182.406 196.81 180.364 197.999C174.364 201.49 168.339 204.955 162.314 208.446C160.297 209.661 159.263 209.429 157.815 207.567C156.755 206.196 155.72 204.8 154.686 203.43C150.704 204.852 146.592 205.938 142.455 206.688C142.248 208.368 142.041 210.101 141.834 211.834C141.55 214.109 140.722 214.885 138.421 214.885C131.413 214.885 124.406 214.885 117.372 214.885C115.2 214.885 114.347 214.083 114.062 211.885C113.83 210.153 113.623 208.394 113.416 206.662C109.253 205.912 105.141 204.826 101.133 203.404C100.073 204.8 99.0384 206.196 97.9782 207.567C96.6335 209.299 95.5733 209.558 93.6339 208.446C87.5572 204.955 81.5063 201.438 75.4554 197.922C73.4901 196.784 73.1539 195.775 74.0331 193.707C74.6796 192.129 75.3261 190.578 75.9984 189.026C72.7143 186.259 69.6372 183.234 66.8444 179.976L62.3709 181.863C60.1988 182.768 59.1903 182.458 58.0267 180.441C54.484 174.39 50.9931 168.314 47.5022 162.237C46.3903 160.323 46.623 159.263 48.4331 157.893C49.6743 156.936 50.9414 156.005 52.1826 155.048C50.6828 150.937 49.5192 146.722 48.6917 142.429C47.1919 142.248 45.7438 142.041 44.2699 141.783C43.158 141.576 42.1754 140.722 41.1152 140.154V115.717C42.1495 115.148 43.158 114.295 44.2699 114.088C45.6663 113.83 47.0368 113.623 48.459 113.467C49.2347 109.072 50.3467 104.753 51.8206 100.564C50.6828 99.6849 49.5451 98.8057 48.4073 97.9523C46.6747 96.6077 46.4162 95.5475 47.5281 93.6081C51.019 87.5313 54.5358 81.4804 58.0525 75.4036C59.1903 73.4125 60.1988 73.0764 62.3968 74.0073L66.0687 75.5588C68.9907 72.0937 72.1972 68.8614 75.6364 65.9394C75.1451 64.7758 74.6537 63.6121 74.1883 62.4485C73.1798 60.0695 73.4901 59.0869 75.6622 57.8198C81.6097 54.3548 87.583 50.9156 93.5564 47.4764C95.6768 46.261 96.6853 46.4679 98.1851 48.4331C98.9608 49.4158 99.7107 50.4242 100.461 51.4327C104.779 49.8812 109.201 48.6917 113.726 47.8642C113.855 46.804 113.985 45.718 114.088 44.6319C114.088 43.9337 114.269 43.2356 114.554 42.615C114.864 41.9943 115.278 41.4255 115.821 40.9859H140.309C140.852 41.4255 141.265 41.9943 141.576 42.615C141.886 43.2356 142.041 43.9337 142.041 44.6319C142.145 45.718 142.274 46.804 142.403 47.916C146.903 48.7176 151.324 49.9071 155.617 51.4844C156.393 50.476 157.143 49.4416 157.918 48.4331C159.418 46.4679 160.427 46.261 162.547 47.4764C168.572 50.9673 174.571 54.4323 180.596 57.9232C182.613 59.0869 182.898 60.0954 182.019 62.2675C181.501 63.5087 180.958 64.7758 180.441 66.017C183.855 68.939 187.009 72.1455 189.88 75.5846L193.681 73.9814C195.931 73.0505 196.913 73.3608 198.154 75.5071C201.619 81.4804 205.059 87.4279 208.498 93.4012C209.713 95.5216 209.506 96.5301 207.567 98.0299C206.377 98.9091 205.24 99.7624 204.076 100.642C205.524 104.805 206.636 109.072 207.386 113.416L211.911 113.985C214.135 114.269 214.911 115.122 214.885 117.295C214.885 124.457 214.885 131.517 214.885 138.576Z" fill="#F7941C"/>
</g>
<defs>
<clipPath id="clip0_2151_11188">
<rect width="256" height="256" fill="white"/>
</clipPath>
</defs>
</svg>
