<svg width="256" height="256" viewBox="0 0 256 256" fill="none" xmlns="http://www.w3.org/2000/svg">
<g clip-path="url(#clip0_2383_888)">
<path d="M127.767 255.534C198.331 255.534 255.534 198.331 255.534 127.767C255.534 57.2032 198.331 0 127.767 0C57.2032 0 0 57.2032 0 127.767C0 198.331 57.2032 255.534 127.767 255.534Z" fill="white"/>
<path d="M128 10.6673C100.854 10.6673 74.5487 20.0798 53.565 37.3008C32.5812 54.5218 18.2178 78.4859 12.9221 105.11C7.62629 131.734 11.7259 159.37 24.5222 183.311C37.3186 207.251 58.0201 226.013 83.0993 236.401C108.179 246.79 136.084 248.16 162.061 240.28C188.037 232.4 210.478 215.757 225.559 193.186C240.64 170.616 247.429 143.514 244.768 116.499C242.107 89.4843 230.162 64.2278 210.967 45.033C200.072 34.1377 187.137 25.4951 172.901 19.5986C158.666 13.7021 143.408 10.6672 128 10.6673ZM128 0C153.316 0 178.063 7.50707 199.113 21.5719C220.162 35.6367 236.569 55.6276 246.257 79.0165C255.945 102.405 258.479 128.142 253.541 152.972C248.602 177.801 236.411 200.609 218.51 218.51C200.609 236.411 177.801 248.602 152.972 253.541C128.142 258.479 102.405 255.945 79.0165 246.257C55.6276 236.569 35.6367 220.162 21.5719 199.113C7.50707 178.063 0 153.316 0 128C0 94.0523 13.4857 61.495 37.4903 37.4903C61.495 13.4857 94.0523 0 128 0Z" fill="#D80027"/>
<path d="M127.765 234.074C186.478 234.074 234.074 186.478 234.074 127.765C234.074 69.0524 186.478 21.4563 127.765 21.4563C69.0521 21.4563 21.4561 69.0524 21.4561 127.765C21.4561 186.478 69.0521 234.074 127.765 234.074Z" fill="#D80027"/>
<path d="M152.002 204.288H103.999V51.6987H152.002V204.288Z" fill="white"/>
<path d="M51.7016 152.023V104.022L204.299 104.022V152.023H51.7016Z" fill="white"/>
</g>
<defs>
<clipPath id="clip0_2383_888">
<rect width="256" height="256" fill="white"/>
</clipPath>
</defs>
</svg>
