<svg width="256" height="256" viewBox="0 0 256 256" fill="none" xmlns="http://www.w3.org/2000/svg">
<g clip-path="url(#clip0_2383_895)">
<path d="M128 253C197.036 253 253 197.036 253 128C253 58.9644 197.036 3 128 3C58.9644 3 3 58.9644 3 128C3 197.036 58.9644 253 128 253Z" fill="#FFCC00"/>
<path d="M128 10.6662C100.854 10.6654 74.548 20.0766 53.5636 37.2963C32.5791 54.516 18.2148 78.4788 12.9181 105.102C7.62149 131.725 11.7202 159.36 24.516 183.3C37.3117 207.24 58.0127 226.002 83.0918 236.391C108.171 246.779 136.076 248.151 162.053 240.272C188.031 232.393 210.472 215.751 225.554 193.181C240.636 170.612 247.425 143.511 244.765 116.497C242.105 89.4833 230.16 64.2274 210.965 45.0328C188.962 23.0292 159.118 10.6672 128 10.6662ZM128 0C153.316 0 178.064 7.50676 199.113 21.571C220.163 35.6352 236.569 55.6253 246.257 79.0132C255.945 102.401 258.479 128.137 253.541 152.965C248.602 177.794 236.411 200.6 218.51 218.501C200.609 236.401 177.801 248.591 152.972 253.53C128.142 258.469 102.405 255.934 79.0165 246.246C55.6276 236.559 35.6367 220.153 21.5719 199.105C7.50707 178.056 0 153.31 0 127.995C0 94.0484 13.4857 61.4924 37.4903 37.4888C61.495 13.4851 94.0523 0 128 0Z" fill="#003399"/>
<mask id="mask0_2383_895" style="mask-type:luminance" maskUnits="userSpaceOnUse" x="21" y="21" width="214" height="214">
<path d="M128 234.654C186.91 234.654 234.666 186.9 234.666 127.992C234.666 69.0841 186.91 21.3298 128 21.3298C69.0893 21.3298 21.333 69.0841 21.333 127.992C21.333 186.9 69.0893 234.654 128 234.654Z" fill="white"/>
</mask>
<g mask="url(#mask0_2383_895)">
<path d="M309.952 5.2771H-54.6133V248.307H309.952V5.2771Z" fill="#003399"/>
</g>
<path d="M53.6104 114.453L49.7769 126.251L55.6709 128.166L53.6104 114.453Z" fill="#FFCC00"/>
<path d="M53.606 114.452L57.4395 126.25L51.5454 128.165L53.606 114.452Z" fill="#FFCC00"/>
<path d="M65.3955 123.018L52.9902 123.017L52.9903 129.214L65.3955 123.018Z" fill="#FFCC00"/>
<path d="M65.3945 123.013L55.3584 130.305L51.7156 125.291L65.3945 123.013Z" fill="#FFCC00"/>
<path d="M60.8916 136.885L57.0559 125.088L51.1623 127.005L60.8916 136.885Z" fill="#FFCC00"/>
<path d="M60.8949 136.884L50.8574 129.594L54.4992 124.58L60.8949 136.884Z" fill="#FFCC00"/>
<path d="M41.8008 123.028L54.2061 123.028L54.206 129.225L41.8008 123.028Z" fill="#FFCC00"/>
<path d="M41.8135 123.027L51.8495 130.319L55.4923 125.305L41.8135 123.027Z" fill="#FFCC00"/>
<path d="M46.301 136.885L50.1367 125.088L56.0303 127.004L46.301 136.885Z" fill="#FFCC00"/>
<path d="M46.3125 136.88L56.35 129.59L52.7083 124.576L46.3125 136.88Z" fill="#FFCC00"/>
<path d="M83.5205 72.4519L93.558 65.1623L89.9163 60.1482L83.5205 72.4519Z" fill="#FFCC00"/>
<path d="M83.5237 72.455L87.3594 60.658L93.253 62.574L83.5237 72.455Z" fill="#FFCC00"/>
<path d="M79.0195 58.5938L89.0543 65.8869L92.6979 60.874L79.0195 58.5938Z" fill="#FFCC00"/>
<path d="M79.0176 58.5974L91.4229 58.5996L91.4217 64.7968L79.0176 58.5974Z" fill="#FFCC00"/>
<path d="M90.8184 50.0217L86.9848 61.8194L92.8788 63.7344L90.8184 50.0217Z" fill="#FFCC00"/>
<path d="M90.8141 50.021L94.6475 61.8186L88.7534 63.7336L90.8141 50.021Z" fill="#FFCC00"/>
<path d="M98.108 72.4638L88.0732 65.1707L91.7169 60.1577L98.108 72.4638Z" fill="#FFCC00"/>
<path d="M98.0977 72.457L94.2664 60.6587L88.372 62.5726L98.0977 72.457Z" fill="#FFCC00"/>
<path d="M102.619 58.5902L92.5801 65.8779L88.9392 60.8631L102.619 58.5902Z" fill="#FFCC00"/>
<path d="M102.609 58.5977L90.2041 58.5932L90.2018 64.7903L102.609 58.5977Z" fill="#FFCC00"/>
<path d="M70.8701 99.6997L67.0344 87.9027L61.1408 89.8187L70.8701 99.6997Z" fill="#FFCC00"/>
<path d="M70.8734 99.698L60.8359 92.4084L64.4777 87.3943L70.8734 99.698Z" fill="#FFCC00"/>
<path d="M56.292 99.6934L66.3267 92.4002L62.6831 87.3873L56.292 99.6934Z" fill="#FFCC00"/>
<path d="M56.2947 99.6965L60.126 87.8982L66.0204 89.8121L56.2947 99.6965Z" fill="#FFCC00"/>
<path d="M51.7793 85.8264L61.8181 93.1141L65.459 88.0993L51.7793 85.8264Z" fill="#FFCC00"/>
<path d="M51.7773 85.8299L64.1826 85.8254L64.1849 92.0226L51.7773 85.8299Z" fill="#FFCC00"/>
<path d="M75.3775 85.8199L65.3428 93.113L61.6991 88.1001L75.3775 85.8199Z" fill="#FFCC00"/>
<path d="M75.3682 85.8274L62.9629 85.8296L62.964 92.0267L75.3682 85.8274Z" fill="#FFCC00"/>
<path d="M63.5796 77.2555L67.4131 89.0532L61.5191 90.9682L63.5796 77.2555Z" fill="#FFCC00"/>
<path d="M63.583 77.2671L59.7496 89.0647L65.6437 90.9798L63.583 77.2671Z" fill="#FFCC00"/>
<path d="M75.377 160.227L62.9717 160.227L62.9718 166.424L75.377 160.227Z" fill="#FFCC00"/>
<path d="M75.3759 160.223L65.3398 167.514L61.6971 162.501L75.3759 160.223Z" fill="#FFCC00"/>
<path d="M70.8633 174.085L67.0297 162.288L61.1358 164.203L70.8633 174.085Z" fill="#FFCC00"/>
<path d="M70.8673 174.083L60.8311 166.792L64.4737 161.779L70.8673 174.083Z" fill="#FFCC00"/>
<path d="M56.2822 174.088L66.317 166.794L62.6733 161.782L56.2822 174.088Z" fill="#FFCC00"/>
<path d="M56.285 174.091L60.1162 162.292L66.0107 164.206L56.285 174.091Z" fill="#FFCC00"/>
<path d="M63.5717 151.646L67.4053 163.443L61.5114 165.358L63.5717 151.646Z" fill="#FFCC00"/>
<path d="M63.5752 151.657L59.7418 163.455L65.636 165.37L63.5752 151.657Z" fill="#FFCC00"/>
<path d="M51.7782 160.217L64.1836 160.22L64.1825 166.417L51.7782 160.217Z" fill="#FFCC00"/>
<path d="M51.791 160.217L61.8258 167.51L65.4694 162.497L51.791 160.217Z" fill="#FFCC00"/>
<path d="M102.609 187.458L90.2041 187.458L90.2042 193.655L102.609 187.458Z" fill="#FFCC00"/>
<path d="M102.608 187.454L92.5723 194.745L88.9295 189.732L102.608 187.454Z" fill="#FFCC00"/>
<path d="M98.0957 201.316L94.2621 189.519L88.3682 191.434L98.0957 201.316Z" fill="#FFCC00"/>
<path d="M98.0997 201.314L88.0635 194.023L91.7061 189.01L98.0997 201.314Z" fill="#FFCC00"/>
<path d="M83.5146 201.319L93.5494 194.025L89.9057 189.013L83.5146 201.319Z" fill="#FFCC00"/>
<path d="M83.5174 201.322L87.3486 189.523L93.2431 191.437L83.5174 201.322Z" fill="#FFCC00"/>
<path d="M90.8041 178.877L94.6377 190.674L88.7438 192.589L90.8041 178.877Z" fill="#FFCC00"/>
<path d="M90.8076 178.888L86.9743 190.686L92.8684 192.601L90.8076 178.888Z" fill="#FFCC00"/>
<path d="M79.0106 187.448L91.416 187.451L91.4149 193.648L79.0106 187.448Z" fill="#FFCC00"/>
<path d="M79.0234 187.448L89.0583 194.741L92.7018 189.728L79.0234 187.448Z" fill="#FFCC00"/>
<path d="M202.417 114.427L206.25 126.225L200.356 128.14L202.417 114.427Z" fill="#FFCC00"/>
<path d="M202.421 114.439L198.587 126.236L204.481 128.151L202.421 114.439Z" fill="#FFCC00"/>
<path d="M190.622 123.013L203.027 123.013L203.027 129.21L190.622 123.013Z" fill="#FFCC00"/>
<path d="M190.635 123.013L200.671 130.304L204.314 125.29L190.635 123.013Z" fill="#FFCC00"/>
<path d="M195.122 136.87L198.958 125.073L204.852 126.99L195.122 136.87Z" fill="#FFCC00"/>
<path d="M195.134 136.865L205.171 129.575L201.53 124.561L195.134 136.865Z" fill="#FFCC00"/>
<path d="M214.217 123.003L201.812 123.003L201.812 129.2L214.217 123.003Z" fill="#FFCC00"/>
<path d="M214.216 122.999L204.18 130.29L200.537 125.276L214.216 122.999Z" fill="#FFCC00"/>
<path d="M209.713 136.871L205.877 125.074L199.984 126.99L209.713 136.871Z" fill="#FFCC00"/>
<path d="M209.716 136.869L199.679 129.58L203.32 124.565L209.716 136.869Z" fill="#FFCC00"/>
<path d="M172.516 72.4339L162.479 65.1443L166.12 60.1301L172.516 72.4339Z" fill="#FFCC00"/>
<path d="M172.509 72.4285L168.673 60.6315L162.78 62.5475L172.509 72.4285Z" fill="#FFCC00"/>
<path d="M177.008 58.5542L166.974 65.8474L163.33 60.8345L177.008 58.5542Z" fill="#FFCC00"/>
<path d="M177.002 58.5618L164.597 58.564L164.598 64.7611L177.002 58.5618Z" fill="#FFCC00"/>
<path d="M165.21 49.9901L169.044 61.7878L163.15 63.7028L165.21 49.9901Z" fill="#FFCC00"/>
<path d="M165.214 50.0017L161.38 61.7994L167.275 63.7144L165.214 50.0017Z" fill="#FFCC00"/>
<path d="M157.929 72.4343L167.963 65.1412L164.32 60.1282L157.929 72.4343Z" fill="#FFCC00"/>
<path d="M157.931 72.4375L161.763 60.6392L167.657 62.5531L157.931 72.4375Z" fill="#FFCC00"/>
<path d="M153.418 58.5686L163.457 65.8563L167.098 60.8415L153.418 58.5686Z" fill="#FFCC00"/>
<path d="M153.416 58.5721L165.821 58.5676L165.824 64.7648L153.416 58.5721Z" fill="#FFCC00"/>
<path d="M185.156 99.6696L188.991 87.8726L194.885 89.7886L185.156 99.6696Z" fill="#FFCC00"/>
<path d="M185.167 99.6672L195.204 92.3777L191.563 87.3635L185.167 99.6672Z" fill="#FFCC00"/>
<path d="M199.747 99.6733L189.712 92.3801L193.356 87.3672L199.747 99.6733Z" fill="#FFCC00"/>
<path d="M199.737 99.6697L195.906 87.8713L190.012 89.7853L199.737 99.6697Z" fill="#FFCC00"/>
<path d="M204.258 85.7997L194.219 93.0874L190.578 88.0726L204.258 85.7997Z" fill="#FFCC00"/>
<path d="M204.248 85.8071L191.843 85.8026L191.84 91.9998L204.248 85.8071Z" fill="#FFCC00"/>
<path d="M180.66 85.8013L190.695 93.0944L194.339 88.0815L180.66 85.8013Z" fill="#FFCC00"/>
<path d="M180.658 85.8049L193.063 85.8071L193.062 92.0043L180.658 85.8049Z" fill="#FFCC00"/>
<path d="M192.458 77.2307L188.624 89.0284L194.518 90.9434L192.458 77.2307Z" fill="#FFCC00"/>
<path d="M192.454 77.2299L196.287 89.0276L190.393 90.9426L192.454 77.2299Z" fill="#FFCC00"/>
<path d="M180.65 160.21L193.056 160.21L193.056 166.407L180.65 160.21Z" fill="#FFCC00"/>
<path d="M180.663 160.21L190.699 167.501L194.342 162.488L180.663 160.21Z" fill="#FFCC00"/>
<path d="M185.163 174.074L188.997 162.276L194.891 164.191L185.163 174.074Z" fill="#FFCC00"/>
<path d="M185.176 174.069L195.212 166.777L191.569 161.764L185.176 174.069Z" fill="#FFCC00"/>
<path d="M199.752 174.077L189.717 166.784L193.36 161.771L199.752 174.077Z" fill="#FFCC00"/>
<path d="M199.741 174.07L195.91 162.272L190.016 164.186L199.741 174.07Z" fill="#FFCC00"/>
<path d="M192.454 151.638L188.621 163.435L194.514 165.35L192.454 151.638Z" fill="#FFCC00"/>
<path d="M192.45 151.637L196.283 163.435L190.389 165.35L192.45 151.637Z" fill="#FFCC00"/>
<path d="M204.252 160.206L191.847 160.209L191.848 166.406L204.252 160.206Z" fill="#FFCC00"/>
<path d="M204.251 160.202L194.216 167.495L190.572 162.483L204.251 160.202Z" fill="#FFCC00"/>
<path d="M153.408 187.441L165.813 187.441L165.813 193.638L153.408 187.441Z" fill="#FFCC00"/>
<path d="M153.421 187.441L163.457 194.732L167.1 189.718L153.421 187.441Z" fill="#FFCC00"/>
<path d="M157.921 201.305L161.755 189.507L167.649 191.422L157.921 201.305Z" fill="#FFCC00"/>
<path d="M157.934 201.299L167.97 194.008L164.327 188.994L157.934 201.299Z" fill="#FFCC00"/>
<path d="M172.509 201.308L162.475 194.015L166.118 189.002L172.509 201.308Z" fill="#FFCC00"/>
<path d="M172.499 201.301L168.668 189.502L162.773 191.416L172.499 201.301Z" fill="#FFCC00"/>
<path d="M165.212 178.868L161.378 190.666L167.272 192.581L165.212 178.868Z" fill="#FFCC00"/>
<path d="M165.208 178.868L169.041 190.665L163.147 192.58L165.208 178.868Z" fill="#FFCC00"/>
<path d="M177.01 187.437L164.604 187.439L164.606 193.636L177.01 187.437Z" fill="#FFCC00"/>
<path d="M177.008 187.433L166.974 194.726L163.33 189.713L177.008 187.433Z" fill="#FFCC00"/>
<path d="M128.027 188.833L124.194 200.631L130.088 202.546L128.027 188.833Z" fill="#FFCC00"/>
<path d="M128.023 188.832L131.856 200.63L125.962 202.545L128.023 188.832Z" fill="#FFCC00"/>
<path d="M139.812 197.398L127.407 197.398L127.407 203.595L139.812 197.398Z" fill="#FFCC00"/>
<path d="M139.811 197.394L129.775 204.685L126.133 199.671L139.811 197.394Z" fill="#FFCC00"/>
<path d="M135.309 211.266L131.473 199.469L125.579 201.385L135.309 211.266Z" fill="#FFCC00"/>
<path d="M135.312 211.264L125.274 203.974L128.916 198.96L135.312 211.264Z" fill="#FFCC00"/>
<path d="M116.218 197.408L128.623 197.408L128.623 203.605L116.218 197.408Z" fill="#FFCC00"/>
<path d="M116.23 197.407L126.267 204.699L129.909 199.685L116.23 197.407Z" fill="#FFCC00"/>
<path d="M120.718 211.265L124.554 199.468L130.447 201.384L120.718 211.265Z" fill="#FFCC00"/>
<path d="M120.729 211.26L130.767 203.97L127.125 198.956L120.729 211.26Z" fill="#FFCC00"/>
<path d="M128.027 40.0503L124.194 51.848L130.088 53.763L128.027 40.0503Z" fill="#FFCC00"/>
<path d="M128.023 40.0495L131.856 51.8472L125.962 53.7622L128.023 40.0495Z" fill="#FFCC00"/>
<path d="M139.812 48.6147L127.407 48.6146L127.407 54.8116L139.812 48.6147Z" fill="#FFCC00"/>
<path d="M139.811 48.6105L129.775 55.9019L126.133 50.8883L139.811 48.6105Z" fill="#FFCC00"/>
<path d="M135.309 62.4827L131.473 50.6857L125.579 52.6017L135.309 62.4827Z" fill="#FFCC00"/>
<path d="M135.312 62.481L125.274 55.1914L128.916 50.1772L135.312 62.481Z" fill="#FFCC00"/>
<path d="M116.218 48.6249L128.623 48.6248L128.623 54.8217L116.218 48.6249Z" fill="#FFCC00"/>
<path d="M116.23 48.6245L126.267 55.9158L129.909 50.9022L116.23 48.6245Z" fill="#FFCC00"/>
<path d="M120.718 62.4823L124.554 50.6853L130.447 52.6014L120.718 62.4823Z" fill="#FFCC00"/>
<path d="M120.729 62.4768L130.767 55.1872L127.125 50.1731L120.729 62.4768Z" fill="#FFCC00"/>
</g>
<defs>
<clipPath id="clip0_2383_895">
<rect width="256" height="256" fill="white"/>
</clipPath>
</defs>
</svg>
