<svg width="256" height="256" viewBox="0 0 256 256" fill="none" xmlns="http://www.w3.org/2000/svg">
<circle cx="128.5" cy="128.5" r="126.5" fill="black"/>
<path d="M154.315 63.9096C155.041 62.5375 156.2 61.438 157.618 60.7781C159.567 59.8808 161.538 59.7901 163.352 61.071C163.965 61.5104 164.454 62.0976 164.772 62.7764C166.407 66.3109 168.034 69.8517 169.528 73.4585C171.926 79.2843 175.177 84.6992 177.833 90.4069C181.605 98.525 185.408 106.625 189.243 114.706C191.44 119.333 193.521 124.064 196.281 128.423C197.036 129.572 197.863 130.673 198.755 131.721C199.132 132.15 199.601 132.491 200.127 132.719C204.153 134.557 208.489 134.909 212.812 135.178C215.018 135.318 217.183 135.022 219.373 135.021C223.57 135.028 227.765 135.035 231.94 135.179C234.705 135.278 237.469 135.595 240.22 135.883C241.283 136.031 242.335 136.251 243.369 136.542C243.799 136.663 244.216 136.832 244.609 137.044C246.853 138.189 247.302 140.11 245.755 142.06C244.468 143.707 242.8 145.027 240.894 145.912C236.828 147.735 232.589 149.155 228.239 150.152C223.95 151.202 219.692 152.372 215.465 153.663C208.998 155.698 202.369 157.199 195.648 158.148C191.173 158.723 186.663 159.005 182.15 158.991C178.092 159.006 174.039 158.701 169.969 158.554C163.761 158.326 157.571 157.866 151.372 157.361C142.295 156.694 133.178 157.712 124.492 160.362C118.628 162.073 112.741 163.722 106.897 165.581C104.144 166.456 101.482 167.72 98.8555 168.858C95.3841 170.348 91.9511 171.96 88.4477 173.403C79.9172 176.955 71.0332 179.204 61.6658 179.236C56.7482 179.352 51.8282 179.044 46.9618 178.317C44.0556 177.815 41.1195 177.588 38.2671 176.595C29.1302 173.364 23.0406 167.308 20.8769 157.839C20.2907 155.375 20.2692 152.814 20.8143 150.345C21.3594 147.875 22.4571 145.559 24.0271 143.565C25.5658 141.541 27.0495 139.409 28.707 137.449C32.0168 133.452 36.1351 130.182 40.7996 127.848C45.1399 125.644 49.8849 124.321 54.756 123.955C57.8708 123.661 61.0086 123.677 64.1221 124.004C65.1827 124.12 66.226 124.395 67.2802 124.569C67.7704 124.623 68.2457 124.675 68.8602 124.743C68.9915 124.363 69.0912 123.973 69.1579 123.577C69.3971 120.233 69.607 116.886 69.8318 113.541C69.9279 112.66 69.9723 111.781 70.0091 110.9C70.0837 109.132 70.099 107.365 70.2094 105.608C70.4591 101.696 70.4162 97.751 71.2818 93.8915C71.4035 93.2847 71.4708 92.6684 71.4829 92.0495C71.6109 88.979 72.7075 86.19 74.0188 83.4686C74.148 83.1877 74.3013 82.9185 74.4768 82.6636C76.9865 79.2856 80.0414 76.3391 83.5201 73.9413C90.2583 69.2711 97.7544 65.7681 105.689 63.5818C111.237 62.0377 116.913 60.9777 122.653 60.4139C127.953 59.9491 133.293 60.1275 138.554 60.9451C140.366 61.2244 142.197 61.4764 143.997 61.6008C147.125 61.8054 150.206 62.4711 153.138 63.5759C153.501 63.7034 153.848 63.778 154.315 63.9096ZM73.0039 125.775C73.578 126.006 74.1405 126.28 74.7358 126.454C79.1257 127.784 83.5213 129.107 87.9226 130.423L88.5689 130.538C88.106 130.182 87.5753 129.922 87.0089 129.775C83.72 128.778 80.4467 127.776 77.1467 126.814C75.7837 126.416 74.3869 126.124 73.0102 125.783C72.7413 124.043 72.8939 123.731 74.4889 123.021C75.1826 122.703 75.8843 122.443 76.5715 122.117C87.201 117.481 98.3481 114.094 109.784 112.026C118.476 110.399 127.263 109.302 136.095 108.743C143.675 108.208 151.284 108.158 158.873 108.596C164.729 108.865 170.549 109.667 176.258 110.993C178.875 111.583 181.431 112.415 183.893 113.476C184.769 113.847 185.483 114.513 185.908 115.356C187.08 117.641 188.321 119.897 189.539 122.165L195.014 132.363C195.21 132.728 195.585 133.091 195.138 133.736C194.178 133.441 193.156 133.168 192.166 132.818C187.052 131.056 181.762 129.839 176.389 129.187C171.078 128.472 165.717 128.016 160.366 127.67C156.138 127.404 151.882 127.47 147.637 127.436C145.091 127.353 142.543 127.403 140.004 127.585C135.29 128.047 130.602 128.746 125.906 129.313L102.918 132.266C102.663 132.296 102.413 132.349 102.165 132.388L102.135 132.662C105.566 133.089 108.955 133.808 112.263 134.811C110.182 134.685 108.115 134.429 106.041 134.238C103.967 134.047 101.861 133.948 99.7593 133.739C97.6576 133.531 95.7616 132.862 93.6745 133.13C94.1027 133.444 94.5734 133.698 95.0728 133.883C99.0591 135.461 103.133 136.813 107.274 137.933C112.951 139.353 118.587 140.958 124.23 142.491C126.258 143.035 128.266 143.701 130.33 144.052C133.672 144.623 137.047 145.037 140.419 145.407C142.818 145.671 145.23 145.818 147.638 146.002C149.605 146.152 151.555 146.256 153.516 146.398C158.339 146.767 163.163 146.726 167.989 146.656C175.545 146.564 183.08 145.892 190.526 144.648C193.071 144.196 195.574 143.513 198.075 142.837C200.362 142.226 202.581 141.424 204.862 140.804C208.765 139.771 212.759 140.209 216.742 140.47C217.764 140.531 218.779 140.73 219.8 140.879C221.126 141.076 222.437 141.336 223.77 141.468C226.52 141.77 229.283 142.014 232.05 142.172C234.631 142.316 237.208 142.38 239.817 142.351C240.93 142.278 242.031 142.086 243.1 141.776C243.572 141.645 244.009 141.414 244.38 141.098C245.468 140.216 245.404 139.185 244.143 138.587C243.14 138.104 242.068 137.774 240.965 137.609C237.028 137.016 233.053 136.727 229.075 136.743C227.288 136.767 225.499 136.811 223.714 136.813C222.553 136.81 221.39 136.748 220.225 136.715C222.492 137.3 224.778 137.719 227.054 138.159C229.157 138.565 231.256 138.993 233.356 139.428C233.791 139.55 234.216 139.702 234.631 139.882L234.558 140.144C234.26 140.156 233.961 140.188 233.667 140.171C232.82 140.129 231.967 140.079 231.124 140.001C228.362 139.75 225.599 139.556 222.855 139.197C220.111 138.837 217.209 138.292 214.386 137.858C211.779 137.455 209.153 137.16 206.561 136.7C203.369 136.098 200.246 135.18 197.238 133.959C196.562 133.72 196.002 133.238 195.668 132.61C193.022 127.686 190.299 122.804 187.702 117.848C184.779 112.279 181.935 106.66 179.092 101.042C176.949 96.808 174.79 92.5802 172.771 88.2945C169.898 82.1317 167.099 75.9769 164.32 69.7659C163.405 67.7066 162.281 65.7267 162.046 63.4787C160.244 62.762 157.542 63.4377 156.44 64.8592C157.824 65.742 159.753 65.4931 161.179 67.0091C160.769 67.2163 160.329 67.3602 159.874 67.436C159.116 67.42 158.363 67.3201 157.627 67.1383C155.897 66.7074 154.217 66.0333 152.461 65.7019C149.483 65.1121 146.475 64.6649 143.479 64.1753C140.385 63.6955 137.255 63.5014 134.126 63.5952C130.693 63.6571 127.238 63.5703 123.81 63.7132C112.549 64.2759 102.071 67.6291 92.0583 72.5536C88.7978 74.2097 85.6855 76.1349 82.7543 78.309C80.9805 79.5201 79.5543 81.1636 78.6135 83.0809C75.9608 88.7325 74.9471 94.7614 74.5716 100.911C74.3783 104.172 74.1835 107.447 73.9561 110.683C73.7286 113.918 73.4686 117.113 73.2069 120.322C73.0634 121.637 72.919 122.959 72.8267 124.279C72.627 124.82 72.5384 125.358 73.0039 125.775ZM242.871 142.854C241.61 143.286 240.377 143.802 239.092 144.114C237.462 144.57 235.793 144.877 234.107 145.029C230.836 145.218 227.607 144.623 224.373 144.209C221.139 143.796 218.085 143.359 214.944 142.912C213.387 142.725 211.812 142.782 210.276 143.08C206.642 143.689 203.265 145.132 199.749 146.142C197.654 146.746 195.584 147.476 193.457 147.966C190.595 148.632 187.67 149.042 184.8 149.706C181.206 150.42 177.544 150.753 173.876 150.701C168.413 150.774 162.988 150.296 157.543 149.991C154.512 149.819 151.478 149.815 148.438 149.723C145.041 149.584 141.643 149.518 138.269 149.162C135.3 148.837 132.361 148.229 129.416 147.672C126.078 147.047 122.793 146.166 119.592 145.037C114.112 143.099 108.637 141.175 103.11 139.384C96.0569 137.095 88.9768 134.89 81.8702 132.771C76.3946 131.125 70.8964 129.549 65.3533 128.115C63.2753 127.58 61.1349 127.323 58.9894 127.351C53.9181 127.465 48.9326 128.643 44.363 130.805C41.655 132.063 39.0278 133.483 36.4963 135.058C34.5235 136.27 32.6713 137.662 30.9641 139.217C27.0694 142.843 24.382 147.554 23.256 152.727C22.3473 156.374 22.9051 160.232 24.8122 163.49C26.4187 166.154 28.4723 168.53 30.8847 170.515C31.0439 170.641 31.2121 170.754 31.3879 170.856C30.9508 170.033 30.4247 169.26 29.8188 168.549C27.9857 166.364 26.539 163.89 25.5401 161.231C24.23 157.366 24.272 153.592 26.3554 149.968C27.8009 147.579 29.7767 145.547 32.1344 144.024C36.3968 141.122 41.209 139.486 46.1896 138.344C52.8441 136.784 59.6522 135.941 66.4949 135.828C69.3929 135.795 72.2944 135.864 75.1989 135.905C76.8987 135.931 78.6048 135.899 80.2887 136.069C83.1823 136.271 86.0602 136.657 88.9044 137.226C92.0217 137.963 95.038 139.149 98.0791 140.177C104.348 142.29 110.618 144.382 116.856 146.572C121.946 148.389 127.185 149.766 132.514 150.687C139.144 151.698 145.836 152.253 152.541 152.351C156.783 152.48 161.026 152.668 165.264 152.767C168.298 152.845 171.352 153.011 174.372 152.802C181.599 152.308 188.776 151.458 195.747 149.372C198.441 148.564 201.156 147.839 203.842 147.03C205.205 146.616 206.521 146.015 207.894 145.647C212.38 144.421 216.93 144.921 221.467 145.404C222.973 145.569 224.461 145.915 225.968 146.066C227.478 146.217 229.004 146.201 230.512 146.352C232.335 146.523 234.173 146.499 235.99 146.281C238.708 146.001 240.835 144.619 242.852 142.955L242.871 142.854Z" fill="url(#paint0_linear_741_46)"/>
<path d="M103.742 78.4257C103.427 78.1867 102.902 77.9828 102.803 77.6649C102.705 77.3471 102.994 76.8671 103.237 76.543C103.485 76.2891 103.781 76.0857 104.109 75.9442C107.22 74.1155 110.578 72.7318 114.084 71.8342C116.197 71.335 118.353 70.8407 120.485 70.4313C120.923 70.3565 121.371 70.3514 121.812 70.4161C121.914 70.4434 122.009 70.4946 122.088 70.5655C122.166 70.6366 122.226 70.7251 122.263 70.8238C122.262 70.9471 122.232 71.0684 122.176 71.1788C122.121 71.2892 122.04 71.3857 121.942 71.461C121.448 71.6777 120.934 71.8465 120.406 71.9651C118.21 72.5573 116.011 73.1446 113.811 73.7267C112.332 74.1155 110.986 74.8862 109.911 75.9594C108.921 76.9182 107.676 77.5798 106.319 77.8679C105.519 78.0798 104.696 78.2308 103.742 78.4257Z" fill="url(#paint1_linear_741_46)"/>
<path d="M171.776 92.1905C170.843 92.1713 169.949 91.813 169.265 91.184C168.328 90.5052 167.447 89.7535 166.631 88.9362C163.803 86.0486 161.341 82.8331 159.298 79.36C159.054 78.9906 158.866 78.5882 158.74 78.1659C158.707 78.0235 158.708 77.8759 158.741 77.7339C158.775 77.592 158.84 77.4596 158.933 77.3464C159.055 77.2625 159.196 77.2091 159.343 77.1911C159.491 77.1729 159.641 77.1904 159.781 77.2421C160.139 77.4131 160.451 77.6653 160.692 77.978C161.562 79.0967 162.357 80.2877 163.282 81.3761C165.298 83.7902 167.378 86.1672 169.409 88.5758C170.117 89.4209 170.782 90.3052 171.439 91.2034C171.587 91.5196 171.7 91.8507 171.776 92.1905Z" fill="url(#paint2_linear_741_46)"/>
<path d="M61.531 128.55C61.9559 128.56 62.3793 128.607 62.7964 128.689C68.0631 130.169 73.3289 131.658 78.5937 133.156C78.8386 133.225 79.0616 133.355 79.2408 133.534C73.0311 132.984 67.2486 130.896 61.3898 129.098L61.531 128.55Z" fill="url(#paint3_linear_741_46)"/>
<defs>
<linearGradient id="paint0_linear_741_46" x1="25.0558" y1="110.602" x2="188.221" y2="23.9303" gradientUnits="userSpaceOnUse">
<stop stop-color="#DE6B38"/>
<stop offset="1" stop-color="#7163BB"/>
</linearGradient>
<linearGradient id="paint1_linear_741_46" x1="103.233" y1="73.3724" x2="116.151" y2="65.8118" gradientUnits="userSpaceOnUse">
<stop stop-color="#DE6B38"/>
<stop offset="1" stop-color="#7163BB"/>
</linearGradient>
<linearGradient id="paint2_linear_741_46" x1="158.065" y1="83.8635" x2="170.885" y2="80.021" gradientUnits="userSpaceOnUse">
<stop stop-color="#DE6B38"/>
<stop offset="1" stop-color="#7163BB"/>
</linearGradient>
<linearGradient id="paint3_linear_741_46" x1="61.2875" y1="130.035" x2="64.7644" y2="123.825" gradientUnits="userSpaceOnUse">
<stop stop-color="#DE6B38"/>
<stop offset="1" stop-color="#7163BB"/>
</linearGradient>
</defs>
</svg>
