<svg width="256" height="256" viewBox="0 0 256 256" fill="none" xmlns="http://www.w3.org/2000/svg">
<g clip-path="url(#clip0_2383_1136)">
<path d="M128 256C198.692 256 256 198.692 256 128C256 57.3075 198.692 0 128 0C57.3075 0 0 57.3075 0 128C0 198.692 57.3075 256 128 256Z" fill="#4EFA74"/>
<path d="M62.5518 150.352H80.8958V194.712H62.5518V150.352ZM175.104 121.352H193.448V165.712H175.104V121.352ZM90.4558 106.768H108.792V208.976H90.4558V106.768ZM118.984 111H137.312V189.528H118.984V111ZM146.888 37.016H165.232V165.712H146.888V37.016Z" fill="#242424"/>
</g>
<defs>
<clipPath id="clip0_2383_1136">
<rect width="256" height="256" fill="white"/>
</clipPath>
</defs>
</svg>
