<svg width="256" height="256" viewBox="0 0 256 256" fill="none" xmlns="http://www.w3.org/2000/svg">
<path d="M256 127.998C256 161.946 242.514 194.504 218.509 218.509C194.504 242.514 161.946 256 127.998 256C94.0514 255.999 61.495 242.513 37.491 218.509C13.487 194.505 0.00116778 161.95 0 128.002C-2.00871e-08 94.0551 13.4853 61.4975 37.4895 37.4926C61.4936 13.4876 94.0505 0.00116783 127.998 0C161.946 -2.00871e-08 194.503 13.4853 218.508 37.4895C242.512 61.4935 255.999 94.0505 256 127.998Z" fill="black"/>
<path d="M83.4131 155.822C88.5043 206.134 136.655 200.916 136.655 200.916C96.4092 192.718 83.4131 155.822 83.4131 155.822Z" fill="#FA6200"/>
<path d="M200.54 130.105C196.216 117.6 169.415 82.962 169.415 82.962C145.636 56.1101 128.051 23 128.051 23C112.694 52.722 86.6871 82.962 86.6871 82.962C66.7982 105.303 55.5621 130.105 55.5621 130.105C42.0221 168.025 62.9345 196.518 62.9345 196.518C91.1664 236.896 128.051 232.895 128.051 232.895C168.981 234.631 193.168 196.518 193.168 196.518C214.439 167.412 200.54 130.105 200.54 130.105ZM176.924 187.367C176.924 187.367 158.764 215.981 128.036 214.676C128.036 214.676 100.344 217.683 79.1485 187.367C79.1485 187.367 63.4482 165.979 73.6154 137.509C73.6154 137.509 82.0529 118.889 96.9828 102.115C96.9828 102.115 116.505 79.415 128.036 57.1009C128.036 57.1009 141.236 81.9561 159.089 102.115C159.089 102.115 179.208 128.12 182.457 137.509C182.457 137.509 192.892 165.514 176.924 187.367Z" fill="#FA6200"/>
</svg>
