<svg width="256" height="256" viewBox="0 0 256 256" fill="none" xmlns="http://www.w3.org/2000/svg">
<g clip-path="url(#clip0_1195_5)">
<path d="M128 0C57.3119 0 0 57.3119 0 128C0 198.688 57.3119 256 128 256C198.688 256 256 198.688 256 128C256 57.3119 198.688 0 128 0Z" fill="url(#paint0_linear_1195_5)"/>
<path d="M178.217 76.9102C188.559 73.147 196.163 65.1726 199.779 55.6303C190.87 50.6446 179.926 49.4223 169.577 53.1855C159.235 56.9487 151.631 64.9231 148.016 74.4654C156.924 79.4511 167.868 80.6734 178.217 76.9102Z" fill="white"/>
<path d="M129.014 87.7269C166.14 87.7269 196.348 117.935 196.348 155.061C196.348 192.188 166.14 222.396 129.014 222.396C91.8875 222.396 61.6795 192.188 61.6795 155.061C61.6795 117.935 91.8875 87.7269 129.014 87.7269ZM129.014 80.0469C87.5867 80.0469 53.9995 113.634 53.9995 155.061C53.9995 196.488 87.5867 230.076 129.014 230.076C170.441 230.076 204.028 196.488 204.028 155.061C204.028 113.634 170.441 80.0469 129.014 80.0469Z" fill="white"/>
<path d="M129.801 166.619L88.4376 77.9218C86.1336 72.9747 82.0376 69.2243 76.9048 67.3555L43.4778 55.189L46.5432 46.7666L79.9706 58.9331C87.3496 61.6211 93.2376 67.0162 96.5594 74.133L137.922 162.831L129.801 166.619Z" fill="white"/>
<path d="M67.6059 151.311C67.5291 152.553 67.4907 153.801 67.4907 155.055C67.4907 189.033 95.0363 216.578 129.014 216.578C162.992 216.578 190.537 189.033 190.537 155.055C190.537 153.73 190.492 152.418 190.409 151.119C149.474 118.409 108.54 184.047 67.6059 151.311Z" fill="white"/>
</g>
<defs>
<linearGradient id="paint0_linear_1195_5" x1="128" y1="0" x2="128" y2="256" gradientUnits="userSpaceOnUse">
<stop stop-color="#F7911A"/>
<stop offset="1" stop-color="#F57F00"/>
</linearGradient>
<clipPath id="clip0_1195_5">
<rect width="256" height="256" fill="white"/>
</clipPath>
</defs>
</svg>
