<svg width="256" height="256" viewBox="0 0 256 256" fill="none" xmlns="http://www.w3.org/2000/svg">
<g clip-path="url(#clip0_854_2)">
<mask id="mask0_854_2" style="mask-type:luminance" maskUnits="userSpaceOnUse" x="0" y="0" width="256" height="256">
<path d="M256 0H0V256H256V0Z" fill="white"/>
</mask>
<g mask="url(#mask0_854_2)">
<path d="M128 256C110.723 256 93.9612 252.613 78.1746 245.939C62.9298 239.491 49.2474 230.261 37.4887 218.511C25.7391 206.762 16.5091 193.07 10.0608 177.825C3.38672 162.039 0 145.277 0 128C0 110.723 3.38672 93.9612 10.0608 78.1746C16.5091 62.9298 25.7391 49.2474 37.4887 37.4887C49.2384 25.7391 62.9298 16.5091 78.1746 10.0608C93.9612 3.38672 110.723 0 128 0C145.277 0 162.039 3.38672 177.825 10.0608C193.07 16.5091 206.753 25.7391 218.511 37.4887C230.261 49.2384 239.491 62.9298 245.939 78.1746C252.613 93.9612 256 110.723 256 128C256 145.277 252.613 162.039 245.939 177.825C239.491 193.07 230.261 206.753 218.511 218.511C206.762 230.261 193.07 239.491 177.825 245.939C162.039 252.613 145.277 256 128 256Z" fill="#132452"/>
<path d="M128.001 249.218C194.947 249.218 249.218 194.947 249.218 128C249.218 61.0532 194.947 6.78223 128.001 6.78223C61.0541 6.78223 6.7832 61.0532 6.7832 128C6.7832 194.947 61.0541 249.218 128.001 249.218Z" fill="#132452"/>
<path fill-rule="evenodd" clip-rule="evenodd" d="M205.95 105.681C194.408 125.694 172.519 163.343 160.679 183.653H96.1058L63.869 127.973L96.2053 72.292C96.2053 72.292 143.267 72.292 147.844 72.292L160.778 50C144.162 50 100.384 50 83.2707 50L38 127.973C48.9446 146.896 72.1272 186.824 83.1712 205.945C105.06 205.945 151.426 205.945 173.613 205.945L218.884 127.973L205.95 105.681Z" fill="white"/>
<path fill-rule="evenodd" clip-rule="evenodd" d="M121.975 139.068C120.383 136.294 117.1 130.746 115.508 127.972C120.283 119.65 130.034 102.906 134.909 94.5833H109.04L89.6387 127.972L109.04 161.36H147.744C161.773 137.087 178.887 107.661 193.015 83.3877L180.081 61.0957C165.852 85.6665 149.038 114.597 134.81 139.068C131.626 139.068 125.159 139.068 121.875 139.068H121.975Z" fill="#C60427"/>
</g>
</g>
<defs>
<clipPath id="clip0_854_2">
<rect width="256" height="256" fill="white"/>
</clipPath>
</defs>
</svg>
