<svg width="256" height="256" viewBox="0 0 256 256" fill="none" xmlns="http://www.w3.org/2000/svg">
<g clip-path="url(#clip0_1194_2)">
<path d="M128 0C57.312 0 0 57.312 0 128C0 198.688 57.312 256 128 256C198.688 256 256 198.688 256 128C256 57.312 198.688 0 128 0Z" fill="url(#paint0_linear_1194_2)"/>
<path d="M166.104 147.264C164.141 142.698 161.24 138.56 157.4 134.805C153.56 131.093 149.378 127.594 144.77 124.309C140.162 121.024 135.896 117.866 131.885 114.794C127.874 111.722 124.76 108.65 122.498 105.536C120.237 102.421 119.554 99.1783 120.408 95.7223C121.474 91.4983 124.034 88.6823 128.13 87.2743C132.226 85.8663 137.048 85.8663 142.637 87.2743C145.88 88.0848 149.592 89.3223 152.109 90.8583C163.117 97.5996 162.221 109.162 162.221 109.162L162.648 109.29L173.954 112.106L179.202 91.0716C179.202 91.0716 170.114 85.0983 163.117 81.6423C159.106 79.6368 154.114 77.6316 149.378 76.0528L154.797 54.2928L141.4 50.9648L136.024 72.5543C130.008 71.4876 124.333 71.2316 119 71.8288C112.045 72.5543 106.2 74.6448 101.421 78.1008C96.6848 81.5143 93.5275 86.2928 92.0343 92.3943C90.5835 98.1968 90.7968 103.36 92.6743 107.968C94.5515 112.576 97.4528 116.757 101.336 120.597C105.218 124.394 109.442 127.893 114.05 131.136C118.658 134.336 122.925 137.536 126.936 140.65C130.904 143.765 134.018 146.922 136.237 150.165C138.456 153.365 139.096 156.864 138.157 160.661C137.005 165.354 134.146 168.341 129.624 169.706C125.101 171.072 119.981 171.029 114.306 169.621C112.301 169.109 109.912 168.256 107.522 167.189C100.525 164.16 95.4903 158.101 93.9543 151.061C93.6983 149.909 93.5275 149.141 93.5275 149.141L81.7943 146.197L76.7168 166.592C80.1728 168.981 83.6288 171.541 90.7968 175.168C96.8555 178.24 101.805 180.373 108.717 182.293L103.469 203.37L116.866 206.698L122.242 185.066C127.277 185.706 132.184 185.834 136.877 185.365C144.472 184.597 150.957 182.336 156.29 178.581C161.624 174.826 165.122 169.578 166.829 162.794C168.28 156.992 168.024 151.829 166.061 147.264H166.104Z" fill="white"/>
</g>
<defs>
<linearGradient id="paint0_linear_1194_2" x1="128" y1="0" x2="128" y2="256" gradientUnits="userSpaceOnUse">
<stop stop-color="#F7911A"/>
<stop offset="1" stop-color="#F57F00"/>
</linearGradient>
<clipPath id="clip0_1194_2">
<rect width="256" height="256" fill="white"/>
</clipPath>
</defs>
</svg>
