<svg width="256" height="256" viewBox="0 0 256 256" fill="none" xmlns="http://www.w3.org/2000/svg">
<g clip-path="url(#clip0_2234_924)">
<mask id="mask0_2234_924" style="mask-type:luminance" maskUnits="userSpaceOnUse" x="0" y="0" width="256" height="256">
<path d="M256 0H0V256H256V0Z" fill="white"/>
</mask>
<g mask="url(#mask0_2234_924)">
<path d="M128 256C198.692 256 256 198.692 256 128C256 57.3076 198.692 0 128 0C57.3076 0 0 57.3076 0 128C0 198.692 57.3076 256 128 256Z" fill="white"/>
<path d="M128 6.48532C194.999 6.48532 249.515 61.0012 249.515 128C249.515 194.999 194.999 249.515 128 249.515C61.0012 249.515 6.48532 194.999 6.48532 128C6.48532 61.0012 61.0012 6.48532 128 6.48532ZM128 0C57.3074 0 0 57.3074 0 128C0 198.693 57.3074 256 128 256C198.693 256 256 198.693 256 128C256 57.3074 198.693 0 128 0Z" fill="black"/>
<path d="M155.319 134.363C155.319 169.85 140.3 178.81 109.861 193.877C113.774 196.486 119.04 199.607 128 203.849C151.467 192.744 174.141 178.176 174.141 139.337V57.4537H155.319V134.376V134.363ZM137.46 57.4414H81.8467V73.7156H118.686V125.805C118.686 149.613 117.272 151.82 86.3208 165.766C88.4784 171.203 91.587 176.53 95.6707 181.358C130.645 165.766 137.448 157.72 137.448 130.743V57.4537L137.46 57.4414Z" fill="black"/>
<path d="M78.6163 29.0264L79.6526 30.9036L73.984 34.0365L74.8738 35.658L79.9086 32.8784L80.9326 34.7436L75.8978 37.523L77.1412 39.7661L74.9347 40.9852L70.7412 33.3904L78.6163 29.0384V29.0264Z" fill="black"/>
<path d="M92.9277 32.3165L91.5501 31.1097L86.6009 33.1211L86.4547 34.9497L83.9434 35.9737L84.8212 26.258L88.0394 24.9536L95.439 31.3048L92.94 32.3165H92.9277ZM86.7716 31.0122L89.9412 29.7202L87.0763 27.2211L86.7716 31.0122Z" fill="black"/>
<path d="M105.85 26.0515L104.35 20.0172L106.776 19.4199L108.861 27.8435L105.289 28.7334L98.828 23.9304L100.327 29.9647L97.8893 30.5743L95.8047 22.1506L99.3887 21.2607L105.85 26.0638V26.0515Z" fill="black"/>
<path d="M118.064 17.8232L128.512 17.3965L128.597 19.5298L124.635 19.6883L124.903 26.2223L122.392 26.3199L122.124 19.7858L118.15 19.9443L118.064 17.8109V17.8232Z" fill="black"/>
<path d="M131.56 21.7476C131.803 18.8829 133.925 17.3591 137.569 17.676C141.202 17.993 143.043 19.8581 142.799 22.7107C142.555 25.5754 140.422 27.1237 136.789 26.8068C133.145 26.4896 131.316 24.6246 131.56 21.7476ZM140.178 22.4913C140.313 20.9918 139.532 19.9922 137.387 19.8093C135.253 19.6265 134.315 20.4554 134.193 21.9793C134.059 23.5031 134.851 24.5027 136.972 24.6855C139.105 24.8684 140.057 24.0151 140.19 22.5034L140.178 22.4913Z" fill="black"/>
<path d="M157.757 21.4191L152.661 24.0157L155.855 29.8914L152.771 29.1966L150.553 25.1006L148.126 26.332L147.737 28.0508L145.286 27.4899L147.2 19.0176L149.662 19.5662L148.809 23.3696L154.1 20.5779L157.781 21.4069L157.757 21.4191Z" fill="black"/>
<path d="M169.801 25.5881L169.131 27.441L163.036 25.2346L162.56 26.5389L168.424 28.6601L167.753 30.513L161.89 28.3918L161.414 29.6964L167.509 31.8906L166.839 33.7435L158.379 30.6838L161.329 22.5161L169.789 25.5759L169.801 25.5881Z" fill="black"/>
<path d="M178.59 36.7428L181.443 31.2083L183.674 32.3542L179.687 40.0708L176.408 38.3763L174.714 30.489L171.861 36.0234L169.618 34.8655L173.604 27.1489L176.896 28.8434L178.59 36.7305V36.7428Z" fill="black"/>
<path d="M70.1317 218.819C69.7536 219.441 70.1317 220.221 72.0822 221.404C73.8742 222.477 74.4837 222.464 74.764 222.001C75.0933 221.465 74.8127 221.16 72.6917 219.685C69.8025 217.661 68.8394 216.259 69.8268 214.614C70.7656 213.065 72.8622 213.37 75.4345 214.918C78.2991 216.637 79.4207 218.502 78.4942 220.197L76.2391 218.844C76.6293 218.185 76.0684 217.503 74.3982 216.503C72.8136 215.552 72.3016 215.601 72.0576 216.003C71.7773 216.467 72.0576 216.82 73.9717 218.198C76.5804 220.051 78.2382 221.306 77.068 223.257C75.9222 225.158 73.8253 224.659 71.18 223.062C68.169 221.245 66.7914 219.49 67.8643 217.466L70.1194 218.832L70.1317 218.819Z" fill="black"/>
<path d="M80.7013 223.209C81.8472 220.563 84.334 219.808 87.6986 221.258C91.0512 222.709 92.197 225.062 91.0632 227.695C89.9173 230.34 87.406 231.12 84.0537 229.67C80.6891 228.219 79.5555 225.866 80.7013 223.209ZM88.6496 226.659C89.2469 225.269 88.8201 224.087 86.8453 223.221C84.8826 222.368 83.7244 222.867 83.1272 224.257C82.5177 225.659 82.9564 226.854 84.9072 227.707C86.8697 228.56 88.0521 228.048 88.6496 226.647V226.659Z" fill="black"/>
<path d="M100.596 225.829C103.668 226.695 105.046 228.499 104.692 230.718L102.12 229.998C102.169 229.182 101.571 228.316 100.023 227.89C98.2311 227.39 97.1218 228.024 96.7074 229.486C96.2929 230.962 96.9268 232.095 98.7065 232.595C100.255 233.022 101.218 232.595 101.596 231.851L104.168 232.571C103.314 234.667 101.206 235.509 98.1215 234.655C94.7689 233.717 93.3671 231.644 94.1594 228.779C94.964 225.927 97.2314 224.891 100.584 225.829H100.596Z" fill="black"/>
<path d="M111.092 228.426L109.556 236.96L107.081 236.509L108.617 227.975L111.092 228.426Z" fill="black"/>
<path d="M113.712 233.339C113.944 230.474 116.053 228.951 119.698 229.243C123.331 229.536 125.184 231.401 124.94 234.253C124.708 237.118 122.587 238.666 118.942 238.374C115.297 238.081 113.456 236.216 113.7 233.339H113.712ZM122.331 234.046C122.453 232.547 121.673 231.559 119.527 231.376C117.394 231.206 116.467 232.047 116.333 233.559C116.211 235.082 117.004 236.07 119.125 236.253C121.258 236.423 122.209 235.57 122.331 234.046Z" fill="black"/>
<path d="M130.865 235.643C130.902 236.374 131.645 236.813 133.925 236.691C136.01 236.581 136.509 236.228 136.473 235.679C136.436 235.045 136.046 234.96 133.462 234.923C129.939 234.863 128.342 234.241 128.244 232.315C128.147 230.511 130.06 229.584 133.059 229.438C136.399 229.267 138.374 230.169 138.545 232.095L135.924 232.229C135.887 231.461 135.034 231.218 133.084 231.315C131.243 231.413 130.841 231.742 130.865 232.205C130.889 232.741 131.316 232.888 133.681 232.961C136.875 233.034 138.959 233.144 139.081 235.423C139.191 237.642 137.18 238.398 134.095 238.556C130.585 238.739 128.451 238.044 128.22 235.765L130.853 235.631L130.865 235.643Z" fill="black"/>
<path d="M142.701 235.631L145.103 235.277L145.371 237.142L142.97 237.496L142.689 235.631H142.701Z" fill="black"/>
<path d="M152.271 226.659C155.379 225.903 157.464 226.805 158.244 228.914L155.648 229.548C155.294 228.805 154.343 228.354 152.783 228.731C150.979 229.17 150.32 230.267 150.674 231.755C151.04 233.242 152.149 233.925 153.941 233.486C155.501 233.108 156.135 232.255 156.099 231.413L158.695 230.779C158.976 233.023 157.549 234.802 154.441 235.558C151.052 236.387 148.809 235.266 148.102 232.376C147.395 229.499 148.87 227.488 152.259 226.659H152.271Z" fill="black"/>
<path d="M161.67 228.853C160.61 226.171 161.841 223.879 165.242 222.526C168.631 221.185 171.118 222.038 172.166 224.708C173.227 227.39 171.996 229.718 168.607 231.059C165.206 232.4 162.731 231.547 161.67 228.853ZM169.728 225.671C169.18 224.269 168.034 223.72 166.035 224.513C164.048 225.293 163.572 226.463 164.133 227.877C164.694 229.304 165.852 229.84 167.827 229.06C169.814 228.28 170.289 227.085 169.728 225.671Z" fill="black"/>
<path d="M177.494 227.061L173.13 219.552L176.519 217.577L182.029 221.039L181.736 214.541L185.125 212.566L189.489 220.076L187.319 221.331L184.162 215.894L184.503 222.977L182.492 224.147L176.507 220.356L179.676 225.793L177.494 227.061Z" fill="black"/>
<path d="M58.9292 209.506C35.8283 189.903 21.1631 160.658 21.1631 128C21.1631 95.3419 36.6085 64.5486 60.7701 44.9585" stroke="black" stroke-miterlimit="10"/>
<path d="M195.243 44.9712C219.405 64.5613 234.838 94.4767 234.838 128C234.838 161.524 220.173 189.916 197.072 209.518" stroke="black" stroke-miterlimit="10"/>
</g>
</g>
<defs>
<clipPath id="clip0_2234_924">
<rect width="256" height="256" fill="white"/>
</clipPath>
</defs>
</svg>
