<svg width="256" height="256" viewBox="0 0 256 256" fill="none" xmlns="http://www.w3.org/2000/svg">
<g clip-path="url(#clip0_2572_3864)">
<path d="M128 256C198.692 256 256 198.692 256 128C256 57.3076 198.692 0 128 0C57.3076 0 0 57.3076 0 128C0 198.692 57.3076 256 128 256Z" fill="#161618"/>
<path d="M127.9 28L28 127.8L127.9 227.6L227.8 127.8L127.9 28Z" fill="#E1FC01"/>
<path d="M198.6 127.8L127.9 57.1L149.9 104.2L116.7 86.9L127.9 112.8L57.2002 127.8L127.9 142.8L116.7 168.8L149.9 151.5L127.9 198.6L198.6 127.8Z" fill="#161618"/>
</g>
<defs>
<clipPath id="clip0_2572_3864">
<rect width="256" height="256" fill="white"/>
</clipPath>
</defs>
</svg>
