<svg width="256" height="256" viewBox="0 0 256 256" fill="none" xmlns="http://www.w3.org/2000/svg">
<g clip-path="url(#clip0_2471_640)">
<path d="M128 256C198.692 256 256 198.692 256 128C256 57.3075 198.692 0 128 0C57.3075 0 0 57.3075 0 128C0 198.692 57.3075 256 128 256Z" fill="#C9C9C9"/>
<path d="M202.136 199.231H150.471L150.047 198.893L86.1016 149.112L112.273 128.116L201.712 198.893L202.136 199.231Z" fill="#4A9079"/>
<path d="M202.136 57H150.471L150.047 57.3386L86.1016 107.12L112.273 128.116L201.712 57.3386L202.136 57Z" fill="#4A9079"/>
<path d="M86.1 149.112V199.231L85.6765 198.893L54.5082 174.341V174.256L54 173.918V82.3138L54.5082 81.9752V81.8905L85.6765 57.3386L86.1 57V107.12V149.112Z" fill="#4A9079"/>
</g>
<defs>
<clipPath id="clip0_2471_640">
<rect width="256" height="256" fill="white"/>
</clipPath>
</defs>
</svg>
