<svg width="256" height="256" viewBox="0 0 256 256" fill="none" xmlns="http://www.w3.org/2000/svg">
<circle cx="128" cy="128" r="127" fill="#141414"/>
<path d="M207.214 78.9193C200.921 68.5212 192.809 59.5708 183.105 52.3141C173.401 45.0601 162.587 39.861 150.966 36.8688C138.93 33.7667 126.556 33.1777 114.191 35.1149C101.463 37.1097 89.162 42.3375 78.6203 50.2382C67.7961 58.3483 59.6406 68.6757 55.0376 80.1052C50.4089 91.6001 48.7624 103.234 50.2779 113.75C51.2874 120.747 53.3911 125.329 54.3235 127.093C55.7286 130.219 61.8933 142.216 75.2015 145.873C81.5897 147.63 88.317 147.13 95.3139 144.402C99.3159 155.709 103.76 166.251 107.41 173.246C112.981 183.918 125.131 172.869 123.728 163.58C120.641 149.889 120.035 149.313 117.304 137.213C116.546 133.855 147.653 166.882 158.649 175.965C169.034 184.542 174.456 180.557 177.32 174.29C181.343 165.484 172.635 156.921 167.719 152.816C162.291 148.284 156.964 143.638 133.928 124.404C131.961 122.76 138.015 111.933 153.024 81.5371C156.448 73.4454 142.092 66.029 134.871 72.7098C131.301 76.0135 128.606 82.3696 127.055 84.9482C118.758 101.485 116.271 107.676 114.047 119.661C113.811 120.938 110.726 101.315 107.119 90.9405C104.8 82.1576 83.9837 90.2441 84.5411 100.663C84.9058 107.472 86.3057 113.247 88.9566 122.734C90.3154 128.732 83.1206 127.954 80.2489 127.2C74.8907 125.792 71.9573 119.787 71.6079 119.033L71.0223 117.839C70.4212 116.661 65.2942 105.663 72.6251 87.4666C75.9027 79.3277 81.8697 71.8537 89.8813 65.851C97.9648 59.7933 107.371 55.788 117.083 54.267C136.541 51.2199 155.996 56.076 171.867 67.9401C187.739 79.8068 198.129 97.2599 201.119 117.09C204.109 136.92 199.344 156.748 187.703 172.926C176.059 189.102 158.934 199.691 139.477 202.738C120.019 205.785 98.5196 202.361 82.8483 190.222C67.886 178.633 60.5499 167.497 54.3235 151.923C52.3431 146.97 49.1554 143.399 45.2691 146.041C41.1952 148.811 40.1549 155.099 41.6473 160.227C47.8248 181.434 64.1126 198.317 73.4496 204.686C83.4519 211.508 93.968 217.139 105.589 220.131C117.625 223.233 129.998 223.822 142.364 221.885C154.729 219.948 166.358 215.597 176.925 208.956C187.128 202.542 195.91 194.275 203.03 184.384C210.148 174.494 215.249 163.473 218.185 151.63C221.229 139.363 221.807 126.753 219.906 114.15C218.005 101.548 213.736 89.697 207.22 78.9272L207.214 78.9193Z" fill="url(#paint0_linear_741_46)"/>
<defs>
<linearGradient id="paint0_linear_741_46" x1="115.278" y1="34.938" x2="144.515" y2="221.536" gradientUnits="userSpaceOnUse">
<stop stop-color="#FF8F7E"/>
<stop offset="1" stop-color="#F231AF"/>
</linearGradient>
</defs>
</svg>
