<svg width="256" height="256" viewBox="0 0 256 256" fill="none" xmlns="http://www.w3.org/2000/svg">
<g clip-path="url(#clip0_2561_2073)">
<path d="M128 256C198.692 256 256 198.692 256 128C256 57.3077 198.692 0 128 0C57.3077 0 0 57.3077 0 128C0 198.692 57.3077 256 128 256Z" fill="white"/>
<path d="M95.9065 138.465L95.7959 138.527V138.4L95.9065 138.465Z" fill="#2B6DEF"/>
<path d="M199 138.073V197.456L181.832 187.193L127.138 156.346L95.9062 138.466L115.298 127.244L160.094 152.701L179.641 163.808L179.547 126.81V126.605L199 138.073Z" fill="#2BBDF7"/>
<path d="M198.999 56.2951V113.09L179.607 102.07L179.665 78.951V78.9428V78.9346V78.9264V78.9182V78.91V78.9019V78.8896V78.8773V78.865V78.8404L179.751 45.1064L198.999 56.2951Z" fill="#2BBDF7"/>
<path d="M198.999 113.09L179.546 124.148L160.093 113.09L179.546 102.033L179.607 102.07L198.999 113.09Z" fill="#2B6DEF"/>
<path d="M199 197.456L179.752 208.514L164.615 199.991L164.595 200.008L95.7959 160.913V138.527L95.9065 138.466L127.138 156.346L181.832 187.193L199 197.456Z" fill="#2B6DEF"/>
<path d="M179.751 45.1064L179.665 78.8404V78.865V78.8773V78.8896V78.9019V78.91V78.9182V78.9264V78.9346V78.9428V78.951L179.608 102.07L179.546 102.033L160.093 113.09V101.324V79.0042L126.99 98.0029L95.8237 116.178L95.795 116.162V116.199L76.5834 127.404L76.3418 127.265L76.3991 104.801L95.795 93.5798L160.093 56.377L161.453 55.5907L179.751 45.1064Z" fill="#2891F9"/>
<path d="M179.546 126.81L179.64 163.808L160.093 152.701V138.073L179.546 126.605V126.81Z" fill="#2891F9"/>
<path d="M160.094 79.0044V101.324L115.298 127.244L95.9062 138.466L95.7956 138.4L76.584 127.404L95.7956 116.199L95.8243 116.179L126.99 98.003L160.094 79.0044Z" fill="#2B6DEF"/>
<path d="M95.795 160.913V198.685L76.5466 209.742L76.395 149.892L76.3418 128.243V128.039V127.543L76.5834 127.404L95.795 138.4V138.527V160.913Z" fill="#2BBDF7"/>
<path d="M95.7953 57.5236V93.5797L76.3994 104.801L76.5468 46.335L95.7953 57.5236Z" fill="#2BBDF7"/>
<path d="M76.5834 127.404L76.3418 127.544V127.265L76.5834 127.404Z" fill="#2891F9"/>
<path d="M76.5467 46.335L76.3993 104.801L76.3419 127.265V127.543V128.039V128.243L76.3952 149.892L76.5467 209.742L56.8887 198.672V57.5974L76.5467 46.335Z" fill="#2891F9"/>
<path d="M95.7219 198.631V198.713L76.4161 210.099L56.8154 198.726V198.619L76.4161 187.246L95.7219 198.631Z" fill="#2B6DEF"/>
<path d="M160.096 79.0698V101.39L95.7976 138.466L76.5859 127.47L95.7976 116.264L95.8262 116.244L126.992 98.0685L160.096 79.0698Z" fill="#2B6DEF"/>
<path d="M95.797 138.466L76.3438 127.609L76.5854 127.47L95.797 138.466Z" fill="url(#paint0_linear_2561_2073)"/>
<path d="M199.001 138.073V197.456L95.9072 138.466L115.299 127.245L179.642 163.808L179.548 126.495L199.001 138.073Z" fill="url(#paint1_linear_2561_2073)"/>
</g>
<defs>
<linearGradient id="paint0_linear_2561_2073" x1="76.3438" y1="132.968" x2="160.095" y2="132.968" gradientUnits="userSpaceOnUse">
<stop stop-color="#2B6DEF"/>
<stop offset="0.9944" stop-color="#2BBDF7"/>
</linearGradient>
<linearGradient id="paint1_linear_2561_2073" x1="95.9072" y1="161.976" x2="199.001" y2="161.976" gradientUnits="userSpaceOnUse">
<stop offset="0.2737" stop-color="#2B6DEF"/>
<stop offset="0.5937" stop-color="#2B98F3"/>
<stop offset="0.8501" stop-color="#2BB3F6"/>
<stop offset="1" stop-color="#2BBDF7"/>
</linearGradient>
<clipPath id="clip0_2561_2073">
<rect width="256" height="256" fill="white"/>
</clipPath>
</defs>
</svg>
