<svg width="256" height="256" viewBox="0 0 256 256" fill="none" xmlns="http://www.w3.org/2000/svg">
<path d="M128 255C198.14 255 255 198.14 255 128C255 57.8598 198.14 1 128 1C57.8598 1 1 57.8598 1 128C1 198.14 57.8598 255 128 255Z" fill="#27A779"/>
<path fill-rule="evenodd" clip-rule="evenodd" d="M190.446 187.467L148.579 162.839V212.096L190.446 187.467ZM190.446 67.5327L148.579 42.9041V92.1613L190.446 67.5327ZM127.917 31L46 79.1912V175.814L127.917 224V150.689L88.5039 127.497L127.917 104.311V31ZM128.202 127.503L210 175.615V79.3846L128.202 127.503Z" fill="white"/>
</svg>
