<svg width="256" height="256" viewBox="0 0 256 256" fill="none" xmlns="http://www.w3.org/2000/svg">
<g clip-path="url(#clip0_2083_1326)">
<path d="M128.001 253.44C197.279 253.44 253.441 197.279 253.441 128C253.441 58.7215 197.279 2.56006 128.001 2.56006C58.7219 2.56006 2.56055 58.7215 2.56055 128C2.56055 197.279 58.7219 253.44 128.001 253.44Z" fill="#22242F"/>
<path d="M128 0C198.692 0 256 57.3076 256 128C256 198.692 198.692 256 128 256C57.3076 256 0 198.692 0 128C0 57.3076 57.3076 0 128 0ZM128 12.8C64.3768 12.8 12.8 64.3768 12.8 128C12.8 191.623 64.3768 243.2 128 243.2C191.623 243.2 243.2 191.623 243.2 128C243.2 64.3768 191.623 12.8 128 12.8Z" fill="#E53935"/>
<path d="M125.198 92.0522H54.3926V104.938H125.198V92.0522Z" fill="#E53935"/>
<path d="M202.441 92.0522H138.072V104.938H202.441V92.0522Z" fill="#E53935"/>
<path d="M202.441 69.5029H138.072V82.3884H202.441V69.5029Z" fill="#E53935"/>
<path d="M109.105 69.5029H67.2656V82.3884H109.105V69.5029Z" fill="#E53935"/>
<path fill-rule="evenodd" clip-rule="evenodd" d="M159.105 49.2314L179.587 69.7321L170.484 78.8434L150.002 58.3428L159.105 49.2314Z" fill="#E53935"/>
<path fill-rule="evenodd" clip-rule="evenodd" d="M109.107 82.3703L94.3388 103.481L83.7933 96.0898L98.5614 74.9795L109.107 82.3703Z" fill="#E53935"/>
<path fill-rule="evenodd" clip-rule="evenodd" d="M87.7115 53.4708L48.9451 108.885L38.3996 101.495L77.1659 46.0801L87.7115 53.4708Z" fill="#E53935"/>
<path fill-rule="evenodd" clip-rule="evenodd" d="M155.544 161.926L143.302 188.201L131.635 182.756L143.876 156.48L155.544 161.926Z" fill="#E53935"/>
<path fill-rule="evenodd" clip-rule="evenodd" d="M183.13 161.925L200.813 199.879L212.48 194.434L194.798 156.48L183.13 161.925Z" fill="#E53935"/>
<path d="M202.441 133.93H138.072V146.816H202.441V133.93Z" fill="#E53935"/>
<path d="M176.692 191.915H147.727V204.8H176.692V191.915Z" fill="#E53935"/>
<path d="M121.98 146.815H57.6113V159.701H121.98V146.815Z" fill="#E53935"/>
<path d="M118.762 121.045H60.8301V130.709H118.762V121.045Z" fill="#E53935"/>
<path d="M67.2663 101.716H54.3926V159.701H67.2663V101.716Z" fill="#E53935"/>
<path d="M96.2331 101.716H83.3594V159.701H96.2331V101.716Z" fill="#E53935"/>
<path d="M150.946 101.716H138.072V137.151H150.946V101.716Z" fill="#E53935"/>
<path d="M176.694 140.373H163.82V204.8H176.694V140.373Z" fill="#E53935"/>
<path d="M67.2663 169.365H54.3926V198.357H67.2663V169.365Z" fill="#E53935"/>
<path d="M86.5769 169.365H73.7031V198.357H86.5769V169.365Z" fill="#E53935"/>
<path d="M105.887 169.365H93.0137V198.357H105.887V169.365Z" fill="#E53935"/>
<path d="M125.198 169.365H112.324V182.251H125.198V169.365Z" fill="#E53935"/>
<path d="M202.44 101.716H189.566V137.151H202.44V101.716Z" fill="#E53935"/>
<path d="M125.198 101.716H112.324V159.701H125.198V101.716Z" fill="#E53935"/>
</g>
<defs>
<clipPath id="clip0_2083_1326">
<rect width="256" height="256" fill="white"/>
</clipPath>
</defs>
</svg>
