<svg width="256" height="256" viewBox="0 0 256 256" fill="none" xmlns="http://www.w3.org/2000/svg">
<g clip-path="url(#clip0_1350_157)">
<mask id="mask0_1350_157" style="mask-type:luminance" maskUnits="userSpaceOnUse" x="0" y="0" width="256" height="256">
<path d="M128 256C198.692 256 256 198.692 256 128C256 57.3076 198.692 0 128 0C57.3076 0 0 57.3076 0 128C0 198.692 57.3076 256 128 256Z" fill="white"/>
</mask>
<g mask="url(#mask0_1350_157)">
<path d="M260.455 -4.45508H-4.45532V260.456H260.455V-4.45508Z" fill="#141C1B"/>
<path d="M127.699 392.309C240.255 392.309 331.5 326.403 331.5 245.103C331.5 163.803 240.255 97.897 127.699 97.897C15.143 97.897 -76.1016 163.803 -76.1016 245.103C-76.1016 326.403 15.143 392.309 127.699 392.309Z" fill="url(#paint0_linear_1350_157)" fill-opacity="0.5"/>
<path d="M91.5266 199.044H64.7827L94.9705 57.5581H121.714L109.354 115.568H114.219L160.012 57.5581H191.217V59.9844L137.32 127.091V130.728L171.361 197.834V199.044H141.781L112.202 141.035H103.694L91.5387 199.044H91.5266Z" fill="white"/>
</g>
</g>
<defs>
<linearGradient id="paint0_linear_1350_157" x1="127.699" y1="97.897" x2="127.699" y2="392.309" gradientUnits="userSpaceOnUse">
<stop stop-color="#58C6B2"/>
<stop offset="1" stop-color="#106757"/>
</linearGradient>
<clipPath id="clip0_1350_157">
<rect width="256" height="256" fill="white"/>
</clipPath>
</defs>
</svg>
