<svg width="256" height="256" viewBox="0 0 256 256" fill="none" xmlns="http://www.w3.org/2000/svg">
<g clip-path="url(#clip0_741_46)">
<circle cx="128" cy="128" r="128" fill="#06060C"/>
<path d="M125.062 138.095C121.751 139.973 118.74 142.27 116.072 144.989C112.381 148.747 109.469 153.19 107.388 158.154C106.27 160.808 105.458 163.565 104.927 166.411C101.24 166.359 97.4876 165.622 93.6645 164.18C92.6688 163.809 91.6731 163.386 90.668 162.917C85.6661 160.582 81.1291 157.407 77.0571 153.396C72.9945 149.395 69.6786 144.67 67.1002 139.236C64.5358 133.793 63.2536 127.973 63.2536 121.778V68.833L77.0149 77.3386L91.0109 68.6968V121.778C91.0109 123.977 91.5698 126.071 92.697 128.077C93.8148 130.068 95.1486 131.825 96.6985 133.295C98.2344 134.779 99.7936 135.934 101.381 136.798C102.983 137.663 104.288 138.095 105.317 138.095H125.062Z" fill="url(#paint0_linear_741_46)"/>
<path d="M139.79 169.022C138.381 170.445 137.682 172.221 137.682 174.315C137.682 176.307 138.381 178.035 139.79 179.458C141.185 180.891 142.876 181.605 144.83 181.605H202.181L174.414 209.944H144.83C140.068 209.944 135.549 209.005 131.308 207.15C127.044 205.285 123.333 202.744 120.158 199.494C116.969 196.258 114.471 192.459 112.653 188.119C110.826 183.774 109.91 179.181 109.91 174.315C109.91 169.351 110.826 164.701 112.653 160.362C114.471 156.017 116.969 152.222 120.158 148.986C123.333 145.75 127.039 143.195 131.308 141.331C135.549 139.476 140.068 138.536 144.83 138.536H170.211C172.179 138.536 173.855 137.827 175.264 136.39C176.659 134.967 177.359 133.243 177.359 131.247C177.359 129.152 176.659 127.372 175.264 125.954C173.855 124.521 172.179 123.807 170.211 123.807H105.627V95.4678H170.215C174.987 95.4678 179.496 96.4071 183.751 98.2623C188.006 100.127 191.712 102.682 194.901 105.918C198.076 109.168 200.575 112.953 202.406 117.293C204.224 121.638 205.135 126.283 205.135 131.247C205.135 136.108 204.219 140.706 202.406 145.05C200.579 149.395 198.076 153.19 194.901 156.426C191.712 159.676 188.006 162.217 183.751 164.081C179.496 165.937 174.992 166.876 170.215 166.876H144.835C142.876 166.876 141.19 167.59 139.79 169.022Z" fill="url(#paint1_linear_741_46)"/>
<path d="M125.062 138.094C121.751 139.973 118.74 142.27 116.072 144.989C112.381 148.747 109.469 153.19 107.388 158.154C106.271 160.808 105.458 163.564 104.927 166.411C101.24 166.359 97.4877 165.622 93.6646 164.18C95.2803 157.299 99.0376 145.792 107.078 138.094H125.062Z" fill="url(#paint2_linear_741_46)"/>
<path d="M91.0814 63.5917L76.9116 56.8614V39.4415V39L91.0814 63.5917Z" fill="url(#paint3_linear_741_46)"/>
<path d="M77.0149 39.1035V39.5497V56.9649L63 63.5262L77.0149 39.1035Z" fill="url(#paint4_linear_741_46)"/>
<path d="M77.0147 56.6033V72.1727L91.0812 63.5919L77.0147 56.6033Z" fill="url(#paint5_linear_741_46)"/>
<path d="M77.0665 56.5371V72.1066L63 63.5257L77.0665 56.5371Z" fill="url(#paint6_linear_741_46)"/>
</g>
<defs>
<linearGradient id="paint0_linear_741_46" x1="35.2209" y1="82.9272" x2="155.715" y2="154.446" gradientUnits="userSpaceOnUse">
<stop offset="0.00458716" stop-color="#142E77"/>
<stop offset="0.5183" stop-color="#1F7CB6"/>
<stop offset="1" stop-color="#3CEDFC"/>
</linearGradient>
<linearGradient id="paint1_linear_741_46" x1="36.455" y1="80.8479" x2="156.949" y2="152.367" gradientUnits="userSpaceOnUse">
<stop offset="0.00458716" stop-color="#142E77"/>
<stop offset="0.5183" stop-color="#1F7CB6"/>
<stop offset="1" stop-color="#3CEDFC"/>
</linearGradient>
<linearGradient id="paint2_linear_741_46" x1="119.037" y1="156.464" x2="100.865" y2="146.455" gradientUnits="userSpaceOnUse">
<stop stop-color="#0A207A"/>
<stop offset="1" stop-color="#2865C3" stop-opacity="0"/>
</linearGradient>
<linearGradient id="paint3_linear_741_46" x1="68.9281" y1="43.1897" x2="102.606" y2="63.1793" gradientUnits="userSpaceOnUse">
<stop offset="0.00458716" stop-color="#142E77"/>
<stop offset="0.5183" stop-color="#1F7CB6"/>
<stop offset="1" stop-color="#3CEDFC"/>
</linearGradient>
<linearGradient id="paint4_linear_741_46" x1="84.9639" y1="43.318" x2="51.5827" y2="63.1314" gradientUnits="userSpaceOnUse">
<stop offset="0.00458716" stop-color="#142E77"/>
<stop offset="0.5183" stop-color="#1F7CB6"/>
<stop offset="1" stop-color="#3CEDFC"/>
</linearGradient>
<linearGradient id="paint5_linear_741_46" x1="71.3227" y1="60.3274" x2="92.6485" y2="72.9852" gradientUnits="userSpaceOnUse">
<stop offset="0.00458716" stop-color="#142E77"/>
<stop offset="0.5183" stop-color="#1F7CB6"/>
<stop offset="1" stop-color="#3CEDFC"/>
</linearGradient>
<linearGradient id="paint6_linear_741_46" x1="82.7578" y1="60.2642" x2="61.432" y2="72.922" gradientUnits="userSpaceOnUse">
<stop offset="0.00458716" stop-color="#142E77"/>
<stop offset="0.5183" stop-color="#1F7CB6"/>
<stop offset="1" stop-color="#3CEDFC"/>
</linearGradient>
<clipPath id="clip0_741_46">
<rect width="256" height="256" fill="white"/>
</clipPath>
</defs>
</svg>
