<svg width="256" height="256" viewBox="0 0 256 256" fill="none" xmlns="http://www.w3.org/2000/svg">
<path d="M128 250C195.379 250 250 195.379 250 128C250 60.6214 195.379 6 128 6C60.6214 6 6 60.6214 6 128C6 195.379 60.6214 250 128 250Z" fill="white" stroke="#0052FF" stroke-width="6" stroke-miterlimit="10"/>
<path d="M122.69 189V179.302V174.183C122.69 167.987 123.766 162.33 126.187 157.75C128.608 153.17 131.566 149.129 135.601 145.627C139.367 142.125 143.671 139.162 148.244 136.468C152.816 133.774 157.389 131.08 161.962 128.655C166.535 126.231 170.839 123.537 174.604 120.843C178.37 118.149 181.598 114.916 184.019 111.414C186.44 107.912 187.516 103.871 187.516 99.0215C187.516 92.8254 185.364 87.7069 181.06 83.6659C176.756 79.625 170.839 77.7392 163.307 77.7392C155.237 77.7392 148.782 79.8944 143.94 84.4741C139.098 89.0539 136.408 94.9806 135.601 102.793H120C120.269 95.5194 121.883 89.0539 125.38 83.3965C128.608 77.4698 133.718 72.8901 140.174 69.3879C146.63 65.8858 154.699 64 164.114 64C172.453 64 179.446 65.347 185.633 68.3103C191.82 71.2737 196.392 75.3147 199.62 80.4332C202.848 85.5517 204.462 91.7478 204.462 98.7522C204.462 105.218 203.386 110.606 200.965 115.185C198.544 119.765 195.585 123.537 191.82 127.039C188.054 130.272 183.75 133.235 179.177 135.929C174.604 138.623 170.032 141.047 165.459 143.472C160.886 145.897 156.582 148.321 152.816 151.015C149.051 153.709 146.092 156.672 143.671 160.175C141.25 163.677 140.174 167.718 140.174 172.297V174.722H205V188.731H122.69V189Z" fill="#0052FF"/>
<g opacity="0.2">
<path d="M50.877 188.732V174.758H115.639V172.34C115.639 167.771 114.564 163.472 112.146 160.247C109.727 156.754 106.771 153.798 103.009 151.11C99.247 148.423 94.9475 146.005 90.3792 143.586C85.8109 141.168 81.2426 138.749 76.6743 136.062C72.106 133.375 68.0752 130.419 64.0444 127.194C60.2822 123.969 57.0576 119.939 54.9078 115.37C52.4893 110.802 51.4144 105.428 51.4144 98.9782C51.4144 91.9914 53.0267 85.8108 56.2514 80.7051C59.4761 75.5993 64.3131 71.2998 70.225 68.6125C76.4056 65.6566 83.3924 64.313 91.7228 64.313C101.128 64.313 109.19 66.194 115.639 69.6874C122.088 73.1808 126.925 77.7491 130.419 83.661C133.644 89.5729 135.525 96.0223 135.793 103.009H120.207C119.67 95.4848 116.714 89.3042 111.877 84.7359C107.04 80.1676 100.591 78.0178 92.529 78.0178C85.0047 78.0178 79.0928 79.8989 74.7933 83.9297C70.4937 87.9606 68.3439 92.7976 68.3439 99.2469C68.3439 103.815 69.4188 108.115 71.8373 111.608C74.2558 115.102 77.2118 118.326 81.2426 121.013C85.0047 123.701 89.3043 126.388 93.8726 128.806C98.4409 131.225 103.009 133.912 107.577 136.599C112.146 139.287 116.445 142.511 120.207 145.736C123.97 149.229 127.194 153.26 129.613 157.828C132.031 162.397 133.106 167.771 133.106 174.221V179.058V188.732H50.877Z" fill="#0052FF"/>
</g>
</svg>
