<svg width="256" height="256" viewBox="0 0 256 256" fill="none" xmlns="http://www.w3.org/2000/svg">
<g clip-path="url(#clip0_1957_3266)">
<path d="M256 128C256 57.3075 198.692 0 128 0C57.3075 0 0 57.3075 0 128C0 198.692 57.3075 256 128 256C198.692 256 256 198.692 256 128Z" fill="#00052D"/>
<path d="M184.001 194.226H119.764L151.887 150.103H184.001V194.226Z" fill="#F9861E"/>
<path d="M183.999 150.103H151.885V194.226H183.999V150.103Z" fill="#FFA143"/>
<path d="M103.114 61.8579L71.001 105.98V150.102V194.224H135.228V150.102V105.98V61.8579H103.114Z" fill="#F9861E"/>
<path d="M135.23 61.8579H103.116V194.224H135.23V61.8579Z" fill="#FFA143"/>
</g>
<defs>
<clipPath id="clip0_1957_3266">
<rect width="256" height="256" fill="white"/>
</clipPath>
</defs>
</svg>
