<svg width="256" height="256" viewBox="0 0 256 256" fill="none" xmlns="http://www.w3.org/2000/svg">
<path d="M256 127.998C256 161.946 242.514 194.504 218.509 218.509C194.504 242.514 161.946 256 127.998 256C94.0514 255.999 61.495 242.513 37.491 218.509C13.487 194.505 0.00116778 161.95 0 128.002C-2.00871e-08 94.0551 13.4853 61.4975 37.4895 37.4926C61.4936 13.4876 94.0505 0.00116783 127.998 0C161.946 -2.00871e-08 194.503 13.4853 218.508 37.4895C242.512 61.4935 255.999 94.0505 256 127.998Z" fill="#FC9790"/>
<path d="M64 179.991H191.821V191.27H64V179.991Z" fill="white"/>
<path fill-rule="evenodd" clip-rule="evenodd" d="M111.933 168.813L79.9777 135.642L127.911 81.968L175.843 135.642L143.888 168.813H159.865L191.821 168.815V157.537H170.728L191.821 135.642L127.911 64L64 135.642L85.0928 157.537H64V168.815H95.9553L111.933 168.813Z" fill="white"/>
</svg>
