<svg width="256" height="256" viewBox="0 0 256 256" fill="none" xmlns="http://www.w3.org/2000/svg">
<g clip-path="url(#clip0_2415_1175)">
<path d="M128 256C198.692 256 256 198.692 256 128C256 57.3075 198.692 0 128 0C57.3075 0 0 57.3075 0 128C0 198.692 57.3075 256 128 256Z" fill="#F69988"/>
<path fill-rule="evenodd" clip-rule="evenodd" d="M128.059 37.5L172.959 107.617L128.057 133.723L83.1602 107.616L128.059 37.5ZM96.9047 104.3L128.059 55.6485L159.214 104.3L128.057 122.415L96.9047 104.3Z" fill="white"/>
<path d="M127.993 149.134L75.9079 118.848L74.4859 121.069C58.4439 146.121 62.0264 178.929 83.0994 199.949C107.897 224.683 148.102 224.683 172.9 199.949C193.973 178.929 197.556 146.121 181.514 121.069L180.091 118.847L127.995 149.136L127.993 149.134Z" fill="white"/>
</g>
<defs>
<clipPath id="clip0_2415_1175">
<rect width="256" height="256" fill="white"/>
</clipPath>
</defs>
</svg>
