<svg width="256" height="256" viewBox="0 0 256 256" fill="none" xmlns="http://www.w3.org/2000/svg">
<g clip-path="url(#clip0_1772_319)">
<path d="M127.949 255.36C198.316 255.36 255.36 198.317 255.36 127.949C255.36 57.582 198.316 0.538086 127.949 0.538086C57.5815 0.538086 0.537598 57.582 0.537598 127.949C0.537598 198.317 57.5815 255.36 127.949 255.36Z" fill="#161612"/>
<path d="M181.168 97.7602V68.9186H158.525H139.27V38.1026H143.379V31.9746H112.522V38.1026H116.627V68.9186H97.376H74.7328V91.5586V97.7602H97.376V91.5586H116.627V108.016H97.376H74.7328V130.656V152.336V174.979V175.037H116.63V224.915L127.949 234.944L139.27 224.915V175.037H181.168V145.421H158.525V152.336H139.27H116.627H97.376V130.656H116.627V146.631H139.27V130.656H158.525V130.81H181.168V108.016H181.165H158.525H139.27V91.5586H158.525V97.7602H181.168Z" fill="#FFAF1D"/>
</g>
<defs>
<clipPath id="clip0_1772_319">
<rect width="256" height="256" fill="white"/>
</clipPath>
</defs>
</svg>
