<svg width="256" height="256" viewBox="0 0 256 256" fill="none" xmlns="http://www.w3.org/2000/svg">
<path d="M128 252.8C196.925 252.8 252.8 196.925 252.8 128C252.8 59.0748 196.925 3.19995 128 3.19995C59.0751 3.19995 3.2002 59.0748 3.2002 128C3.2002 196.925 59.0751 252.8 128 252.8Z" fill="#050D20"/>
<path d="M126.856 144.991C123.229 142.133 121.423 139.178 121.437 136.118C121.452 133.057 122.412 130.527 124.319 128.529L165.47 87.3789C168.289 89.791 169.977 92.5379 170.525 95.6288C171.07 98.722 170.192 101.496 167.893 103.953L126.856 144.991ZM112.187 130.321C108.562 127.466 106.754 124.508 106.767 121.449C106.783 118.387 107.743 115.858 109.652 113.862L150.802 72.7118C153.622 75.1239 155.308 77.8686 155.857 80.9617C156.401 84.0526 155.525 86.829 153.224 89.2841L112.187 130.321ZM97.5172 115.652C93.8923 112.796 92.0843 109.839 92.0979 106.78C92.1138 103.718 93.0732 101.188 94.9829 99.1927L136.133 58.0424C138.953 60.4545 140.638 63.1992 141.188 66.2924C141.731 69.3833 140.855 72.1597 138.554 74.6148L97.5172 115.652Z" fill="url(#paint0_linear_2415_1206)"/>
<path fill-rule="evenodd" clip-rule="evenodd" d="M88.2176 165.555C90.0544 165.555 91.488 166.227 92.4736 167.661C93.28 168.87 93.728 170.438 93.728 172.32C93.728 178.413 91.5328 183.52 87.1424 187.641C85.2608 189.389 83.0656 190.867 80.6464 192.121C80.6464 192.301 80.6912 192.48 80.7808 192.659C81.1392 193.913 81.856 194.585 82.9312 194.585C84.544 194.585 86.1568 193.376 87.7248 191.046L91.3536 193.286C90.0544 195.168 88.8 196.557 87.5456 197.363C86.0672 198.304 84.2752 198.797 82.1248 198.797C79.7504 198.797 77.9584 197.945 76.7488 196.333C76.256 195.705 75.8976 194.944 75.6288 194.137C74.464 194.496 73.2544 194.809 72 195.078V190.912C73.0752 190.598 74.1504 190.285 75.1808 189.926C75.2704 184.64 76.256 179.622 78.1824 174.873C80.6464 168.646 84.0064 165.555 88.2176 165.555ZM106.806 166.195V186.848L106.826 187.472C106.938 189.094 107.491 190.409 108.486 191.417C109.606 192.553 111.286 193.12 113.526 193.12C115.766 193.12 117.446 192.553 118.566 191.417C119.686 190.281 120.246 188.761 120.246 186.848V166.195H125.398V187.161L125.379 187.923C125.219 190.915 124.125 193.331 122.083 195.181C119.875 197.152 117.021 198.137 113.526 198.137C110.032 198.137 107.181 197.145 104.97 195.158C102.762 193.174 101.654 190.505 101.654 187.161V166.195H106.806ZM141.034 165.613C143.542 165.613 145.738 166.224 147.619 167.449C149.501 168.675 150.947 170.361 151.965 172.512L147.619 175.021L147.344 174.454C146.01 171.904 143.904 170.63 141.034 170.63C139.539 170.63 138.346 170.982 137.45 171.683C136.554 172.387 136.106 173.334 136.106 174.528C136.106 175.693 136.56 176.611 137.472 177.283C138.384 177.955 140.032 178.665 142.422 179.411C143.616 179.798 144.49 180.089 145.043 180.285C145.597 180.477 146.371 180.784 147.373 181.203C148.374 181.619 149.126 182.038 149.635 182.457C150.144 182.873 150.688 183.398 151.27 184.025C151.853 184.653 152.262 185.369 152.502 186.176C152.742 186.982 152.861 187.894 152.861 188.909C152.861 191.747 151.837 193.993 149.792 195.651C147.744 197.309 145.066 198.137 141.75 198.137C138.733 198.137 136.173 197.449 134.067 196.077C131.962 194.701 130.49 192.822 129.654 190.432L134.09 187.833L134.326 188.438C135.654 191.558 138.173 193.12 141.885 193.12C143.827 193.12 145.283 192.739 146.253 191.977C147.222 191.216 147.709 190.224 147.709 188.998C147.709 187.715 147.187 186.736 146.141 186.064C145.094 185.392 143.245 184.653 140.586 183.846C139.091 183.398 137.882 182.982 136.957 182.592C136.029 182.205 135.053 181.657 134.022 180.957C132.992 180.253 132.224 179.382 131.715 178.336C131.206 177.289 130.954 176.064 130.954 174.662C130.954 171.885 131.939 169.683 133.91 168.054C135.882 166.425 138.256 165.613 141.034 165.613ZM169.392 166.195L170.243 166.214C174.166 166.403 177.459 167.904 180.122 170.72C182.973 173.737 184.4 177.456 184.4 181.875C184.4 186.265 182.973 189.977 180.122 193.008C177.27 196.038 173.693 197.555 169.392 197.555H157.072V166.195H169.392ZM169.392 171.123H162.224V192.627H169.392C172.349 192.627 174.762 191.613 176.627 189.581C178.493 187.549 179.427 184.982 179.427 181.875C179.427 178.739 178.493 176.163 176.627 174.147C174.762 172.131 172.349 171.123 169.392 171.123ZM87.7248 169.587C85.888 169.587 84.1856 172.096 82.5728 177.158C81.3632 180.921 80.6912 184.371 80.512 187.597C81.9008 186.79 83.1552 185.894 84.2752 184.909C87.7696 181.728 89.5168 177.651 89.5168 172.678C89.5168 170.617 88.8896 169.587 87.7248 169.587Z" fill="white"/>
<defs>
<linearGradient id="paint0_linear_2415_1206" x1="-862.134" y1="-5670.84" x2="2540.28" y2="-2268.43" gradientUnits="userSpaceOnUse">
<stop stop-color="#7EB5FF"/>
<stop offset="0.99968" stop-color="#1A38F8"/>
</linearGradient>
</defs>
</svg>
