<svg width="256" height="256" viewBox="0 0 256 256" fill="none" xmlns="http://www.w3.org/2000/svg">
<path d="M128 252.8C196.925 252.8 252.8 196.925 252.8 128C252.8 59.0748 196.925 3.19995 128 3.19995C59.0751 3.19995 3.2002 59.0748 3.2002 128C3.2002 196.925 59.0751 252.8 128 252.8Z" fill="#050D20"/>
<path fill-rule="evenodd" clip-rule="evenodd" d="M101.893 171.149L163.45 109.593C163.45 109.593 168.628 104.062 167.396 97.1077C166.164 90.1529 159.817 84.7353 159.817 84.7353L98.0927 146.459C98.0927 146.459 93.7983 150.951 93.765 157.837C93.7317 164.723 101.893 171.149 101.893 171.149ZM123.897 193.153L185.454 131.596C185.454 131.596 190.632 126.066 189.4 119.111C188.168 112.157 181.82 106.739 181.82 106.739L120.096 168.463C120.096 168.463 115.802 172.955 115.769 179.841C115.735 186.727 123.897 193.153 123.897 193.153ZM141.447 87.589L79.8898 149.146C79.8898 149.146 71.7285 142.72 71.7618 135.834C71.7951 128.948 76.0889 124.456 76.0889 124.456L137.813 62.7319C137.813 62.7319 144.161 68.1497 145.393 75.1045C146.625 82.0588 141.447 87.589 141.447 87.589Z" fill="url(#paint0_linear_2415_1185)"/>
<defs>
<linearGradient id="paint0_linear_2415_1185" x1="77.2428" y1="137.736" x2="128.278" y2="188.772" gradientUnits="userSpaceOnUse">
<stop stop-color="#7EB5FF"/>
<stop offset="0.999683" stop-color="#1A38F8"/>
</linearGradient>
</defs>
</svg>
