<svg width="256" height="256" viewBox="0 0 256 256" fill="none" xmlns="http://www.w3.org/2000/svg">
<g clip-path="url(#clip0_1491_156)">
<path d="M128 256C198.692 256 256 198.692 256 128C256 57.3075 198.692 0 128 0C57.3075 0 0 57.3075 0 128C0 198.692 57.3075 256 128 256Z" fill="#1F198A"/>
<path d="M65.7793 101.334C65.7793 84.832 72.3349 69.0057 84.004 57.3368C95.6728 45.6678 111.499 39.1123 128.002 39.1123C144.504 39.1123 160.33 45.6678 171.999 57.3368C183.668 69.0057 190.224 84.832 190.224 101.334H172.446C172.45 93.048 170.138 84.9256 165.77 77.8842C161.402 70.8425 155.154 65.1622 147.728 61.4844C140.302 57.8066 131.997 56.2779 123.749 57.0708C115.501 57.8637 107.638 60.9466 101.05 65.9716C94.4608 70.9965 89.408 77.7634 86.4616 85.508C83.5152 93.2528 82.7928 101.667 84.3752 109.801C85.9584 117.934 89.7832 125.464 95.4192 131.538C101.054 137.613 108.276 141.991 116.268 144.179L128.002 132.446L150.224 154.668L128.002 176.89L112.713 161.601C99.3032 158.202 87.4096 150.431 78.9097 139.518C70.4102 128.603 65.79 115.168 65.7793 101.334ZM143.29 94.4008L128.002 79.1123L105.779 101.334L128.002 123.557L139.735 111.823C147.727 114.011 154.949 118.39 160.584 124.464C166.22 130.538 170.045 138.068 171.628 146.202C173.21 154.335 172.488 162.75 169.542 170.494C166.595 178.239 161.542 185.006 154.954 190.03C148.365 195.056 140.502 198.138 132.254 198.931C124.006 199.725 115.701 198.196 108.275 194.518C100.85 190.84 94.6008 185.16 90.2328 178.118C85.8648 171.077 83.5528 162.954 83.5568 154.668H65.7793C65.7704 166.319 69.033 177.739 75.1958 187.627C81.3584 197.515 90.1736 205.474 100.638 210.598C111.102 215.722 122.795 217.805 134.385 216.61C145.975 215.414 156.996 210.989 166.194 203.837C175.393 196.686 182.398 187.094 186.413 176.157C190.428 165.219 191.291 153.374 188.904 141.97C186.518 130.565 180.977 120.06 172.912 111.65C164.848 103.241 154.585 97.264 143.29 94.4008Z" fill="white"/>
</g>
<defs>
<clipPath id="clip0_1491_156">
<rect width="256" height="256" fill="white"/>
</clipPath>
</defs>
</svg>
