<svg width="256" height="256" viewBox="0 0 256 256" fill="none" xmlns="http://www.w3.org/2000/svg">
<path d="M128 252.8C196.925 252.8 252.8 196.925 252.8 128C252.8 59.0748 196.925 3.19995 128 3.19995C59.0751 3.19995 3.2002 59.0748 3.2002 128C3.2002 196.925 59.0751 252.8 128 252.8Z" fill="black"/>
<path d="M95.4429 199H82C81.4477 199 81 198.552 81 198V59C81 58.4477 81.4477 58 82 58H95.4429C95.9951 58 96.4429 58.4477 96.4429 59V198C96.4429 198.552 95.9951 199 95.4429 199Z" fill="#D9D9D9"/>
<path d="M120.279 59V198C120.279 198.552 120.726 199 121.279 199H134.721C135.274 199 135.721 198.552 135.721 198V59C135.721 58.4477 135.274 58 134.721 58H121.279C120.726 58 120.279 58.4477 120.279 59Z" fill="#D9D9D9"/>
<path d="M159.221 59V198C159.221 198.552 159.669 199 160.221 199H174C174.552 199 175 198.552 175 198V59C175 58.4477 174.552 58 174 58H160.221C159.669 58 159.221 58.4477 159.221 59Z" fill="#D9D9D9"/>
</svg>
