<svg width="256" height="256" viewBox="0 0 256 256" fill="none" xmlns="http://www.w3.org/2000/svg">
<g clip-path="url(#clip0_1772_324)">
<path d="M256 128C256 57.3075 198.692 0 128 0C57.3075 0 0 57.3075 0 128C0 198.692 57.3075 256 128 256C198.692 256 256 198.692 256 128Z" fill="black"/>
<path d="M128.432 97.5605L99.1636 68.647C98.1706 67.6665 97.0945 66.789 95.951 66.0215L111.567 50.4525C120.195 41.8492 134.185 41.8492 142.813 50.4525C146.055 53.685 148.187 57.82 148.96 62.2665C137.623 62.2665 128.432 71.457 128.432 82.794V97.5605Z" fill="white"/>
<path d="M189.315 96.8171C192.026 93.1181 193.513 88.6326 193.513 83.9951C193.513 71.9946 183.756 62.2666 171.72 62.2666H148.959C149.168 63.4681 149.278 64.6921 149.284 65.9276L149.474 107.009L159.699 96.8161C167.884 88.6556 181.129 88.6561 189.315 96.8171Z" fill="white"/>
<path d="M193.515 149.332C197.881 148.559 201.939 146.47 205.117 143.302C213.627 134.816 213.627 121.058 205.117 112.573L189.315 96.8174C188.677 97.6869 187.972 98.5129 187.203 99.2874L158.606 128.071H172.254C183.996 128.071 193.515 137.59 193.515 149.332Z" fill="white"/>
<path d="M159.44 188.843C167.397 180.909 167.397 168.021 159.44 160.087L149.18 149.857L189.81 149.665C191.06 149.659 192.299 149.546 193.515 149.331V171.596C193.515 183.395 183.921 192.961 172.087 192.961C167.511 192.961 163.087 191.502 159.44 188.843Z" fill="white"/>
<path d="M106.602 192.962C107.221 197.584 109.345 201.907 112.689 205.242C121.058 213.586 134.625 213.586 142.993 205.242L159.44 188.843C158.544 188.19 157.694 187.464 156.901 186.669L128.434 158.156L128.433 171.132C128.433 183.189 118.658 192.962 106.602 192.962Z" fill="white"/>
<path d="M66.485 159.178C63.869 162.785 62.4335 167.147 62.4335 171.659C62.4335 183.425 71.9995 192.962 83.7995 192.962H106.601C106.474 192.014 106.411 191.054 106.413 190.086L106.504 149.861L97.1535 159.181C88.676 167.63 74.961 167.628 66.485 159.178Z" fill="white"/>
<path d="M61.5179 106.98V84.2966C61.5179 72.1296 71.4099 62.2666 83.6124 62.2666C88.0394 62.2666 92.3304 63.5916 95.9509 66.0216C87.4369 74.5106 87.4369 88.3006 95.9509 96.7896L106.199 107.008L65.5639 106.633C64.1969 106.62 62.8429 106.738 61.5179 106.98Z" fill="white"/>
<path d="M97.8325 128.073L82.609 128.072C70.961 128.071 61.518 118.628 61.518 106.98C57.283 107.753 53.347 109.791 50.258 112.871C41.914 121.191 41.914 134.679 50.258 142.999L66.485 159.178C67.1845 158.213 67.9685 157.302 68.832 156.457L97.8325 128.073Z" fill="white"/>
</g>
<defs>
<clipPath id="clip0_1772_324">
<rect width="256" height="256" fill="white"/>
</clipPath>
</defs>
</svg>
