<svg width="256" height="256" viewBox="0 0 256 256" fill="none" xmlns="http://www.w3.org/2000/svg">
<g clip-path="url(#clip0_1772_334)">
<mask id="mask0_1772_334" style="mask-type:luminance" maskUnits="userSpaceOnUse" x="0" y="0" width="256" height="256">
<path d="M256 0H0V256H256V0Z" fill="white"/>
</mask>
<g mask="url(#mask0_1772_334)">
<path d="M128 256C198.692 256 256 198.692 256 128C256 57.3075 198.692 0 128 0C57.3075 0 0 57.3075 0 128C0 198.692 57.3075 256 128 256Z" fill="#121825"/>
<path d="M127.994 33.4101C131.153 45.4392 135.924 56.8339 142.116 67.2389C144.464 65.399 146.761 63.6606 148.981 62.0364C138.36 43.777 132.257 22.5737 132.257 0H123.73C123.73 22.5737 117.626 43.777 107.006 62.0364C109.226 63.6606 111.523 65.4117 113.87 67.2389C120.063 56.8339 124.834 45.4392 127.994 33.4101Z" fill="#E5D540"/>
<path d="M193.964 107.006C191.451 105.597 189.015 104.062 186.668 102.438C184.105 100.724 181.681 98.8972 179.282 96.9812C177.024 95.2308 174.842 93.4036 172.71 91.4364C169.893 88.8356 167.165 86.1068 164.563 83.29C162.343 84.8636 160.046 86.6148 157.737 88.4548C160.807 91.906 164.094 95.1924 167.546 98.2252C169.639 100.141 171.809 102.019 174.067 103.77C176.453 105.686 178.927 107.488 181.453 109.226C183.838 110.851 186.274 112.386 188.749 113.871C199.204 120.063 210.548 124.834 222.578 127.993C210.548 131.153 199.192 135.924 188.749 142.116C186.274 143.613 183.838 145.149 181.453 146.76C178.94 148.512 176.466 150.3 174.067 152.216C171.809 153.968 169.626 155.846 167.546 157.762C164.094 160.794 160.807 164.081 157.737 167.532C160.046 169.372 162.343 171.111 164.563 172.696C167.165 169.88 169.893 167.152 172.71 164.55C174.842 162.584 177.024 160.756 179.282 159.005C181.668 157.089 184.105 155.249 186.668 153.549C189.015 151.924 191.451 150.389 193.964 148.981C212.223 138.36 233.389 132.257 256 132.257V123.73C233.389 123.73 212.223 117.627 193.964 107.006Z" fill="#E5D540"/>
<path d="M69.3326 153.549C71.8957 155.262 74.3193 157.089 76.7175 159.005C78.9762 160.756 81.1584 162.584 83.2904 164.55C86.1072 167.152 88.8352 169.88 91.4368 172.696C93.6576 171.123 95.9536 169.372 98.2632 167.532C95.1928 164.081 91.9064 160.794 88.4552 157.762C86.3608 155.846 84.1912 153.968 81.9328 152.216C79.5471 150.3 77.0728 148.499 74.5477 146.76C72.1622 145.136 69.7259 143.601 67.2515 142.116C56.7958 135.924 45.4519 131.153 33.4227 127.993C45.4519 124.834 56.8086 120.063 67.2515 113.871C69.7259 112.373 72.1622 110.838 74.5477 109.226C77.0601 107.476 79.5345 105.686 81.9328 103.77C84.1912 102.019 86.3736 100.141 88.4552 98.2252C91.9064 95.1924 95.1928 91.906 98.2632 88.4548C95.9536 86.6148 93.6576 84.8764 91.4368 83.29C88.8352 86.1068 86.1072 88.8356 83.2904 91.4364C81.1584 93.4036 78.9762 95.2308 76.7175 96.9812C74.332 98.8972 71.8957 100.737 69.3326 102.438C66.985 104.062 64.5488 105.597 62.0364 107.006C43.777 117.627 22.6118 123.73 0 123.73V132.257C22.6118 132.257 43.777 138.36 62.0364 148.981C64.5488 150.389 66.985 151.924 69.3326 153.549Z" fill="#E5D540"/>
<path d="M127.994 222.591C124.834 210.561 120.063 199.167 113.87 188.762C111.523 190.601 109.226 192.339 107.006 193.964C117.626 212.223 123.73 233.427 123.73 256H132.257C132.257 233.427 138.36 212.223 148.981 193.964C146.761 192.339 144.464 190.589 142.116 188.762C135.924 199.167 131.153 210.561 127.994 222.591Z" fill="#E5D540"/>
<path d="M191.566 160.554C189.053 162.254 186.578 164.094 184.18 166.061C194.763 181.973 199.623 194.598 201.754 201.767C194.586 199.635 181.96 194.776 166.048 184.193C163.789 182.658 161.442 181.034 159.006 179.282C156.785 177.658 154.564 175.958 152.217 174.08C150.085 172.367 147.865 170.54 145.606 168.624C144.033 167.254 142.408 165.806 140.746 164.31H140.708C138.665 162.431 136.61 160.515 134.516 158.46L155.719 137.257L158.447 134.529C160.49 136.622 162.457 138.716 164.297 140.721H164.334C165.782 142.383 167.241 144.007 168.598 145.631C170.984 143.715 173.458 141.875 175.983 140.175C174.359 138.259 172.658 136.292 170.781 134.287C168.941 132.282 167.025 130.1 164.982 128.019C167.025 125.926 168.954 123.755 170.781 121.75C172.658 119.746 174.359 117.779 175.983 115.863C173.471 114.15 170.997 112.322 168.598 110.406C167.228 112.031 165.782 113.655 164.334 115.318H164.297C162.457 117.322 160.502 119.416 158.447 121.51L155.719 118.782L134.516 97.5784C136.61 95.5352 138.652 93.6064 140.708 91.7288H140.746C142.408 90.2312 144.033 88.7848 145.606 87.4144C147.865 85.4984 150.085 83.6584 152.217 81.9584C154.564 80.08 156.785 78.3797 159.006 76.7555C161.442 75.0045 163.789 73.3802 166.048 71.8449C181.96 61.2623 194.586 56.4024 201.754 54.2707C199.623 61.44 194.763 74.0655 184.18 89.9776C186.566 91.944 189.04 93.7712 191.566 95.4848C209.952 68.1397 212.299 49.7026 212.426 48.6749L213.111 42.9141L207.35 43.5993C206.322 43.7261 187.898 46.0736 160.541 64.4599C158.282 65.9572 155.934 67.5687 153.549 69.3705C151.329 70.9947 149.07 72.695 146.761 74.573C144.59 76.2733 142.37 78.1133 140.099 80.08C138.183 81.6536 136.216 83.4048 134.25 85.2448H134.211C132.168 87.084 130.113 89.0384 128.019 91.0944L127.981 91.056L127.943 91.0944C125.849 89.0512 123.806 87.084 121.75 85.2448H121.713C119.746 83.4048 117.792 81.6664 115.863 80.08C113.604 78.1133 111.384 76.2861 109.202 74.573C106.892 72.695 104.633 70.9947 102.413 69.3705C100.027 67.5814 97.68 65.9572 95.4208 64.4599C68.0763 46.0736 49.6392 43.7261 48.6114 43.5993L42.8506 42.9141L43.5358 48.6749C43.6627 49.7026 46.0102 68.127 64.3965 95.4848C66.9089 93.784 69.3832 91.944 71.7815 89.9776C61.1988 74.0655 56.339 61.44 54.2072 54.2707C61.3765 56.4024 74.002 61.2623 89.9136 71.8449C92.1728 73.3802 94.52 75.0045 96.956 76.7555C99.1768 78.3797 101.398 80.08 103.745 81.9584C105.877 83.6712 108.098 85.4984 110.356 87.4144C111.93 88.7848 113.554 90.2312 115.216 91.7288H115.254C117.297 93.6064 119.352 95.5224 121.446 97.5784L100.242 118.782L97.5144 121.51C95.472 119.416 93.5048 117.322 91.6648 115.318H91.6272C90.1808 113.655 88.7216 112.031 87.3632 110.406C84.9776 112.322 82.504 114.162 79.9785 115.863C81.6024 117.779 83.3032 119.746 85.1808 121.75C87.0208 123.755 88.9368 125.938 90.98 128.019C88.9368 130.113 87.008 132.282 85.1808 134.287C83.3032 136.292 81.6024 138.259 79.9785 140.175C82.4912 141.888 84.9656 143.715 87.3632 145.631C88.7336 144.007 90.1808 142.383 91.6272 140.721H91.6648C93.5048 138.716 95.4592 136.622 97.5144 134.529L100.242 137.257L121.446 158.46C119.352 160.502 117.31 162.431 115.254 164.31H115.216C113.554 165.806 111.93 167.254 110.356 168.624C108.098 170.54 105.877 172.38 103.745 174.08C101.398 175.958 99.1768 177.658 96.956 179.282C94.52 181.034 92.1728 182.658 89.9136 184.193C74.002 194.776 61.3765 199.635 54.2072 201.767C56.339 194.598 61.1988 181.973 71.7815 166.061C69.3959 164.094 66.9216 162.266 64.3965 160.554C46.0102 187.898 43.6627 206.335 43.5358 207.363L42.8506 213.124L48.6114 212.438C49.6392 212.312 68.0636 209.964 95.4208 191.578C97.68 190.081 100.027 188.47 102.413 186.667C104.633 185.043 106.892 183.343 109.202 181.465C111.371 179.765 113.591 177.925 115.863 175.958C117.779 174.385 119.746 172.634 121.713 170.794H121.75C123.794 168.954 125.849 166.999 127.943 164.944L127.981 164.982L128.019 164.944C130.113 166.987 132.155 168.954 134.211 170.794H134.25C136.216 172.634 138.17 174.372 140.099 175.958C142.358 177.925 144.578 179.752 146.761 181.465C149.07 183.343 151.329 185.043 153.549 186.667C155.934 188.457 158.282 190.081 160.541 191.578C187.886 209.964 206.322 212.312 207.35 212.438L213.111 213.124L212.426 207.363C212.299 206.335 209.952 187.911 191.566 160.554ZM130.773 149.248L127.994 152.026L125.214 149.248L106.739 130.773L103.961 127.994L106.739 125.214L125.214 106.739L127.994 103.961L130.773 106.739L149.248 125.214L152.026 127.994L149.248 130.773L130.773 149.248Z" fill="#E5D540"/>
</g>
</g>
<defs>
<clipPath id="clip0_1772_334">
<rect width="256" height="256" fill="white"/>
</clipPath>
</defs>
</svg>
