<svg width="256" height="256" viewBox="0 0 256 256" fill="none" xmlns="http://www.w3.org/2000/svg">
<g clip-path="url(#clip0_1323_531)">
<path d="M256 128C256 57.3076 198.692 0 128 0C57.3076 0 0 57.3076 0 128C0 198.692 57.3076 256 128 256C198.692 256 256 198.692 256 128Z" fill="url(#paint0_linear_1323_531)"/>
<path fill-rule="evenodd" clip-rule="evenodd" d="M115.016 25.2119H138.954V45.396C162.319 50.9077 179.704 71.8342 179.704 96.8079C179.704 125.986 155.974 149.638 126.701 149.638C97.4276 149.638 73.697 125.986 73.697 96.8079C73.697 71.6319 91.3647 50.5691 115.016 45.2652V25.2119ZM156.784 96.8079C156.784 113.368 143.315 126.793 126.701 126.793C110.086 126.793 96.6176 113.368 96.6176 96.8079C96.6176 80.2476 110.086 66.823 126.701 66.823C143.315 66.823 156.784 80.2476 156.784 96.8079ZM149.817 182.616C143.84 188.573 135.733 191.92 127.281 191.92C118.828 191.92 110.721 188.573 104.744 182.616C98.7674 176.658 95.4095 168.578 95.4095 160.153H74.1619C74.1619 174.194 79.7584 187.662 89.7201 197.591C96.7372 204.585 105.515 209.419 115.016 211.667V231.996H138.954V211.803C148.681 209.619 157.679 204.73 164.841 197.591C174.802 187.662 180.399 174.194 180.399 160.153H159.152C159.152 168.578 155.794 176.658 149.817 182.616Z" fill="url(#paint1_linear_1323_531)"/>
</g>
<defs>
<linearGradient id="paint0_linear_1323_531" x1="142.545" y1="1.54677e-07" x2="142.545" y2="256" gradientUnits="userSpaceOnUse">
<stop offset="1" stop-color="#E1D1DD"/>
</linearGradient>
<linearGradient id="paint1_linear_1323_531" x1="127.048" y1="25.2119" x2="127.048" y2="231.996" gradientUnits="userSpaceOnUse">
<stop stop-color="#0E112C"/>
<stop offset="1" stop-color="#461847"/>
</linearGradient>
<clipPath id="clip0_1323_531">
<rect width="256" height="256" fill="white"/>
</clipPath>
</defs>
</svg>
