<svg width="256" height="256" viewBox="0 0 256 256" fill="none" xmlns="http://www.w3.org/2000/svg">
<g clip-path="url(#clip0_2083_1354)">
<path d="M128 256C198.692 256 256 198.692 256 128C256 57.3076 198.692 0 128 0C57.3076 0 0 57.3076 0 128C0 198.692 57.3076 256 128 256Z" fill="#020229"/>
<path d="M131.429 216.259C130.493 216.259 129.549 216.237 128.621 216.189C100.392 216.147 77.7412 198.085 69.4964 169.029C58.5956 131.589 73.0484 77.6561 129.925 41.6449L143.56 33.2705V49.1425C143.56 79.0625 155.669 96.2561 167.38 112.88C177.068 126.557 187.092 140.709 187.092 160.215C187.314 190.883 162.522 216.037 131.826 216.259H131.429ZM114.615 196.042C115.824 196.443 117.09 196.648 118.364 196.648H118.396C122.208 196.648 125.948 195.242 128.61 192.51C136.328 184.595 135.231 170.528 125.954 155.639C110.24 130.594 104.768 105.269 109.807 81.5345C83.5572 110.858 80.3348 143.52 86.3588 164.16C91.0772 180.255 101.08 191.52 114.615 196.042ZM129.376 77.3793C121.986 98.8945 125.948 122.019 141.216 146.301C151.829 163.279 154.471 180.496 148.885 193.995C163.669 186.85 169.173 172.123 169.173 160.21C169.173 146.643 161.839 136.037 153.344 123.757L152.839 123.026C144.501 111.319 134.429 97.1793 129.376 77.3793Z" fill="url(#paint0_linear_2083_1354)"/>
</g>
<defs>
<linearGradient id="paint0_linear_2083_1354" x1="165.319" y1="205.291" x2="70.386" y2="40.8641" gradientUnits="userSpaceOnUse">
<stop stop-color="#1984FF"/>
<stop offset="1" stop-color="#4DD9F6"/>
</linearGradient>
<clipPath id="clip0_2083_1354">
<rect width="256" height="256" fill="white"/>
</clipPath>
</defs>
</svg>
