<svg width="256" height="256" viewBox="0 0 256 256" fill="none" xmlns="http://www.w3.org/2000/svg">
<path d="M128.858 0.000706881C154.137 0.170258 178.8 7.82126 199.736 21.9889C220.672 36.1565 236.945 56.2063 246.501 79.6098C256.058 103.013 258.47 128.723 253.435 153.496C248.399 178.269 236.141 200.996 218.207 218.811C200.272 236.627 177.463 248.733 152.657 253.602C127.852 258.472 102.159 255.888 78.8203 246.175C55.4813 236.462 35.5409 220.056 21.5137 199.025C7.48647 177.995 0.000568594 153.281 0 128.002C0.114758 93.9402 13.7551 61.3192 37.9206 37.3146C62.086 13.3099 94.7972 -0.112222 128.858 0.000706881Z" fill="white"/>
<path d="M125.458 201.668C165.959 201.668 198.792 168.835 198.792 128.334C198.792 87.8328 165.959 55 125.458 55C84.9568 55 52.124 87.8328 52.124 128.334C52.124 168.835 84.9568 201.668 125.458 201.668Z" fill="#2EB6EA"/>
<path d="M125.059 201.669C52.1229 201.669 23.3376 105.718 87.7615 65.2812C80.0999 145.476 120.856 147.25 158.677 145.476C222.051 142.504 222.093 201.669 222.093 201.669H125.059Z" fill="#1542CD"/>
<path fill-rule="evenodd" clip-rule="evenodd" d="M194.776 152.323C183.743 180.601 156.611 200.822 124.646 201.722C125.397 201.743 126.153 201.753 126.914 201.753H223.339C223.339 201.753 223.315 167.076 194.776 152.323Z" fill="#745DDF"/>
</svg>
