<svg width="256" height="256" viewBox="0 0 256 256" fill="none" xmlns="http://www.w3.org/2000/svg">
<g clip-path="url(#clip0_741_46)">
<path d="M127 239.471C188.564 239.471 238.471 189.564 238.471 128C238.471 66.4365 188.564 16.5293 127 16.5293C65.4363 16.5293 15.5291 66.4365 15.5291 128C15.5291 189.564 65.4363 239.471 127 239.471Z" fill="white"/>
<path d="M127 3C102.277 3 78.1099 10.3311 57.5538 24.0663C36.9976 37.8015 20.9761 57.3238 11.5151 80.1646C2.05416 103.005 -0.421256 128.139 4.4019 152.386C9.22505 176.634 21.1301 198.907 38.6117 216.388C56.0933 233.87 78.3661 245.775 102.614 250.598C126.861 255.421 151.995 252.946 174.835 243.485C197.676 234.024 217.199 218.002 230.934 197.446C244.669 176.89 252 152.723 252 128C252.048 111.632 248.871 95.4158 242.652 80.2758C236.432 65.1359 227.292 51.3693 215.752 39.7619C204.212 28.1546 190.499 18.9339 175.395 12.6263C160.292 6.31863 144.094 3.04763 127.726 3H127ZM129.119 132.237L116.104 176.123H185.717C186.178 176.107 186.638 176.182 187.07 176.344C187.502 176.505 187.898 176.751 188.235 177.066C188.573 177.38 188.845 177.759 189.036 178.179C189.227 178.599 189.333 179.052 189.349 179.513V180.663L183.295 201.547C183.029 202.535 182.434 203.402 181.609 204.007C180.784 204.612 179.778 204.919 178.756 204.877H72.218L90.0751 144.041L70.0993 150.094L74.6393 136.172L94.6151 130.119L119.736 44.7676C120.013 43.7855 120.61 42.9242 121.433 42.3209C122.255 41.7175 123.256 41.4068 124.276 41.4383H151.213C151.674 41.4221 152.134 41.497 152.566 41.6586C152.998 41.8203 153.394 42.0655 153.732 42.3803C154.069 42.6952 154.341 43.0734 154.532 43.4934C154.723 43.9134 154.829 44.3669 154.845 44.8281V45.9782L133.659 118.012L153.634 111.959L149.397 126.487L129.119 132.237Z" fill="#345D9D"/>
</g>
<defs>
<clipPath id="clip0_741_46">
<rect width="250" height="250" fill="white" transform="translate(2 3)"/>
</clipPath>
</defs>
</svg>
