<svg width="256" height="256" viewBox="0 0 256 256" fill="none" xmlns="http://www.w3.org/2000/svg">
<g clip-path="url(#clip0_741_46)">
<path d="M256 128C256 198.692 198.692 256 128 256C57.3075 256 0 198.692 0 128C0 57.3075 57.3075 0 128 0C198.692 0 256 57.3075 256 128Z" fill="#2F2F2F"/>
<path d="M122.981 239.289C179.531 239.289 225.374 193.387 225.374 136.764C225.374 80.1412 179.531 34.2393 122.981 34.2393C66.4315 34.2393 20.5886 80.1412 20.5886 136.764C20.5886 193.387 66.4315 239.289 122.981 239.289Z" fill="#F2E373"/>
<path fill-rule="evenodd" clip-rule="evenodd" d="M164.588 126.142L24.6808 167.872C31.0638 188.209 44.094 206.97 63.8333 220.839C112.553 255.006 173.324 240.47 211.42 199.671C212.235 198.793 211.42 197.341 210.317 197.838C203.157 201.201 195.114 202.202 187.348 200.696C180.13 199.32 173.491 195.81 168.29 190.62C163.089 185.43 159.565 178.799 158.174 171.584C156.369 162.454 158.046 152.979 162.875 145.022C167.703 137.066 175.333 131.203 184.265 128.588L164.588 126.142Z" fill="url(#paint0_linear_741_46)"/>
<path fill-rule="evenodd" clip-rule="evenodd" d="M148.428 118.003C151.191 116.869 153.871 115.543 156.45 114.035C169.037 106.814 183.72 104.13 198.048 106.431C212.376 108.732 225.481 115.878 235.174 126.677C235.326 126.857 235.417 127.08 235.435 127.314C235.453 127.549 235.398 127.783 235.276 127.984C235.155 128.186 234.973 128.344 234.757 128.437C234.541 128.53 234.301 128.552 234.071 128.502C216.631 124.829 197.831 124.107 183.512 128.789C166.25 134.45 153.584 146.735 144.817 161.978C131.974 184.327 126.685 190.647 105.937 198.739C69.7816 212.856 36.0492 200.067 24.6886 167.926C17.4658 144.769 18.6171 119.809 27.9411 97.4144C37.2651 75.0201 54.1678 56.6181 75.6909 45.4291C88.2163 38.7976 103.405 33.2066 116.125 29.5259C128.386 26.0237 149.251 20.9375 154.633 7.7365C154.739 7.4906 154.923 7.28645 155.156 7.15556C155.39 7.02468 155.66 6.97434 155.925 7.01234C156.19 7.05033 156.435 7.17453 156.623 7.36577C156.81 7.55701 156.93 7.80463 156.962 8.07041C159.113 23.6708 155.541 30.7761 146.588 39.2014C136.881 48.3411 124.899 52.5033 114.152 59.1038C97.7598 69.9752 92.5649 89.8309 103.436 106.223C109.897 115.969 120.9 121.141 132.463 121.141C136.01 121.13 139.543 120.692 142.985 119.836C144.84 119.354 146.659 118.741 148.428 118.003Z" fill="url(#paint1_linear_741_46)"/>
</g>
<defs>
<linearGradient id="paint0_linear_741_46" x1="103.793" y1="147.193" x2="143.979" y2="241.86" gradientUnits="userSpaceOnUse">
<stop stop-color="#F7D45C"/>
<stop offset="1" stop-color="#DE3633"/>
</linearGradient>
<linearGradient id="paint1_linear_741_46" x1="56.2079" y1="52.1539" x2="149.981" y2="157.529" gradientUnits="userSpaceOnUse">
<stop stop-color="#F7D45C"/>
<stop offset="1" stop-color="#DE3633"/>
</linearGradient>
<clipPath id="clip0_741_46">
<rect width="256" height="256" fill="white"/>
</clipPath>
</defs>
</svg>
