<?xml version="1.0" encoding="UTF-8"?>
<!DOCTYPE svg PUBLIC "-//W3C//DTD SVG 1.1//EN" "http://www.w3.org/Graphics/SVG/1.1/DTD/svg11.dtd">
<svg xmlns="http://www.w3.org/2000/svg" version="1.1" width="972px" height="971px" style="shape-rendering:geometricPrecision; text-rendering:geometricPrecision; image-rendering:optimizeQuality; fill-rule:evenodd; clip-rule:evenodd" xmlns:xlink="http://www.w3.org/1999/xlink">
<g><path style="opacity:0.992" fill="#f5dca8" d="M 473.5,3.5 C 622.79,2.92228 747.623,57.2556 848,166.5C 952.258,291.533 987.925,434.2 955,594.5C 922.736,728.381 847.903,830.881 730.5,902C 599.706,974.912 463.373,987.246 321.5,939C 182.397,886.231 86.2306,790.397 33,651.5C -15.7892,507.063 -2.45591,368.729 73,236.5C 144.702,121.874 246.535,48.3736 378.5,16C 409.935,8.8646 441.602,4.69794 473.5,3.5 Z"/></g>
<g><path style="opacity:1" fill="#5a85e8" d="M 458.5,40.5 C 611.685,35.7015 737.518,91.3682 836,207.5C 921.792,320.138 950.459,446.138 922,585.5C 886.757,726.892 803.59,829.059 672.5,892C 563.92,940.044 453.254,945.377 340.5,908C 211.302,860.166 121.135,772.332 70,644.5C 34.9808,546.737 32.3142,448.07 62,348.5C 115.875,198.623 219.042,100.79 371.5,55C 400.22,47.5467 429.22,42.7134 458.5,40.5 Z"/></g>
<g><path style="opacity:1" fill="#ebba52" d="M 448.5,48.5 C 598.914,40.4355 723.747,92.4355 823,204.5C 916.906,321.824 945.906,453.824 910,600.5C 871.563,733.265 789.73,828.765 664.5,887C 550.155,935.101 435.155,936.768 319.5,892C 195.071,837.244 111.571,745.41 69,616.5C 35.0022,501.143 45.0022,389.81 99,282.5C 175.994,146.048 292.494,68.0479 448.5,48.5 Z"/></g>
<g><path style="opacity:1" fill="#5c86e8" d="M 462.5,74.5 C 606.011,70.7791 722.844,124.112 813,234.5C 899.63,353.368 920.297,483.035 875,623.5C 826.113,752.721 735.947,838.554 604.5,881C 474.537,916.442 354.537,895.775 244.5,819C 144.953,743.786 89.1195,643.62 77,518.5C 69.1794,384.903 113.679,272.403 210.5,181C 282.407,117.404 366.407,81.9042 462.5,74.5 Z"/></g>
<g><path style="opacity:1" fill="#f5dca8" d="M 455.5,83.5 C 593.376,77.2222 707.543,125.556 798,228.5C 884.273,338.518 909.939,461.518 875,597.5C 836.415,722.416 756.915,810.249 636.5,861C 521.658,904.236 409.325,898.569 299.5,844C 170.388,771.388 98.8881,660.888 85,512.5C 78.9185,377.538 126.418,265.705 227.5,177C 293.722,122.401 369.722,91.2346 455.5,83.5 Z"/></g>
<g><path style="opacity:1" fill="#5c86e8" d="M 357.5,195.5 C 372.13,193.729 382.63,199.395 389,212.5C 401.992,262.501 433.992,290.834 485,297.5C 539.362,293.808 573.028,265.475 586,212.5C 595.083,195.397 608.583,190.897 626.5,199C 629.63,201.128 632.463,203.628 635,206.5C 655.617,255.078 655.617,303.745 635,352.5C 613.286,396.379 578.786,424.713 531.5,437.5C 531.372,439.655 531.872,441.655 533,443.5C 588.747,541.33 644.747,638.996 701,736.5C 701.667,744.5 701.667,752.5 701,760.5C 697.725,769.117 691.558,773.95 682.5,775C 551.167,775.667 419.833,775.667 288.5,775C 274.756,769.018 269.256,758.518 272,743.5C 273.103,738.628 274.77,733.962 277,729.5C 325.243,644.675 374.243,560.342 424,476.5C 431.294,463.413 438.46,450.247 445.5,437C 412.282,429.476 384.782,412.642 363,386.5C 322.004,333.2 313.337,274.866 337,211.5C 342.013,203.633 348.846,198.3 357.5,195.5 Z"/></g>
<g><path style="opacity:1" fill="#ebba52" d="M 358.5,203.5 C 367.434,202.527 374.6,205.527 380,212.5C 385.233,232.222 393.899,250.222 406,266.5C 446.053,309.124 491.886,316.624 543.5,289C 570.38,271.102 587.213,246.269 594,214.5C 601.41,202.918 611.243,200.418 623.5,207C 629.605,213.706 633.772,221.539 636,230.5C 650.967,285.715 641.301,336.048 607,381.5C 583.089,408.7 553.255,425.867 517.5,433C 574.702,533.908 632.535,634.408 691,734.5C 693.344,742.684 694.011,751.017 693,759.5C 690.445,763.867 686.612,766.367 681.5,767C 551.167,767.667 420.833,767.667 290.5,767C 282.659,763.822 278.992,757.989 279.5,749.5C 280.372,744.015 281.872,738.682 284,733.5C 333.162,647.839 382.828,562.506 433,477.5C 440.532,462.265 448.699,447.432 457.5,433C 388.154,415.653 346.987,371.82 334,301.5C 329.629,271.436 333.296,242.436 345,214.5C 348.213,209.107 352.713,205.441 358.5,203.5 Z"/></g>
<g><path style="opacity:1" fill="#5886e9" d="M 366.5,269.5 C 401.068,322.769 450.068,344.602 513.5,335C 554.925,326.801 586.925,304.968 609.5,269.5C 611.822,309.345 598.489,343.179 569.5,371C 538.747,395.806 503.747,405.806 464.5,401C 418.321,389.823 386.821,361.99 370,317.5C 367.193,307.358 365.36,297.025 364.5,286.5C 363.883,280.402 364.55,274.735 366.5,269.5 Z"/></g>
<g><path style="opacity:1" fill="#b8a886" d="M 366.5,269.5 C 364.55,274.735 363.883,280.402 364.5,286.5C 363.51,280.69 363.177,274.69 363.5,268.5C 364.791,268.263 365.791,268.596 366.5,269.5 Z"/></g>
<g><path style="opacity:1" fill="#52ecbc" d="M 600.5,293.5 C 596.708,327.873 580.375,355.039 551.5,375C 496.758,407.511 446.925,401.345 402,356.5C 386.412,339.067 377.412,318.733 375,295.5C 409.677,333.733 452.844,349.9 504.5,344C 543.757,340.542 575.757,323.709 600.5,293.5 Z"/></g>
<g><path style="opacity:1" fill="#5d83e5" d="M 485.5,450.5 C 489.515,454.356 493.015,458.689 496,463.5C 547.414,553.33 599.081,642.997 651,732.5C 651.494,734.134 651.66,735.801 651.5,737.5C 541.499,737.667 431.499,737.5 321.5,737C 335.265,710.913 349.432,685.08 364,659.5C 404.512,589.806 445.012,520.139 485.5,450.5 Z"/></g>
<g><path style="opacity:1" fill="#ec6e51" d="M 485.5,465.5 C 517.334,517.222 547.834,569.889 577,623.5C 597.833,658.5 618.667,693.5 639.5,728.5C 537.502,729.667 435.502,729.833 333.5,729C 385.315,641.874 435.982,554.041 485.5,465.5 Z"/></g>
</svg>
