<svg width="256" height="256" viewBox="0 0 256 256" fill="none" xmlns="http://www.w3.org/2000/svg">
<circle cx="128.5" cy="128.5" r="126.5" fill="#DC2626"/>
<path d="M31.335 82.909V173.139C31.335 188.077 39.2927 201.855 52.1545 209.277L111.467 243.607C120.997 249.127 132.703 249.127 142.233 243.607L201.546 209.277C214.408 201.808 222.365 188.03 222.365 173.139V82.909C222.365 67.9715 214.408 54.1933 201.546 46.7708L142.233 12.3952C132.703 6.87477 120.997 6.87477 111.467 12.3952L52.1545 46.7243C39.2927 54.1933 31.335 67.9715 31.335 82.909Z" fill="#DC2626"/>
<path d="M199.274 125.632L177.483 118.21C169.478 115.472 163.51 108.7 161.845 100.396L152.638 54.84C152.407 53.6803 151.389 52.8452 150.186 52.8452C148.983 52.8452 147.965 53.6803 147.734 54.84L138.527 100.396C136.862 108.7 130.893 115.472 122.889 118.21L101.098 125.632C100.081 125.957 99.433 126.931 99.433 127.998C99.433 129.065 100.127 129.993 101.098 130.364L122.889 137.787C130.893 140.524 136.862 147.297 138.527 155.6L147.734 201.156C147.965 202.316 148.983 203.151 150.186 203.151C151.389 203.151 152.407 202.316 152.638 201.156L161.845 155.6C163.51 147.297 169.478 140.524 177.483 137.787L199.274 130.364C200.292 130.039 200.939 129.065 200.939 127.998C200.939 126.931 200.245 126.003 199.274 125.632Z" fill="#FFFDF7"/>
<path d="M82.0376 83.8375L89.7179 86.4351C92.5397 87.4095 94.6679 89.775 95.2231 92.7441L98.4617 108.842C98.5542 109.26 98.9243 109.538 99.341 109.538C99.7571 109.538 100.127 109.26 100.22 108.842L103.458 92.7441C104.06 89.8214 106.142 87.4095 109.01 86.4351L116.691 83.8375C117.061 83.6982 117.292 83.3732 117.292 83.0024C117.292 82.631 117.061 82.3066 116.691 82.1673L109.01 79.5691C106.188 78.5952 104.06 76.2292 103.458 73.2601L100.22 57.1627C100.127 56.7451 99.7571 56.4668 99.341 56.4668C98.9243 56.4668 98.5542 56.7451 98.4617 57.1627L95.2231 73.2601C94.622 76.1828 92.5397 78.5952 89.7179 79.5691L82.0376 82.1673C81.6675 82.3066 81.4362 82.631 81.4362 83.0024C81.4362 83.3732 81.6675 83.6982 82.0376 83.8375Z" fill="#FFFDF7"/>
<path d="M99.9905 162.887L89.6735 159.408C85.8797 158.109 83.0575 154.908 82.271 150.964L77.922 129.393C77.8295 128.836 77.3206 128.465 76.7654 128.465C76.2102 128.465 75.7013 128.836 75.6088 129.393L71.2599 150.964C70.4734 154.908 67.6511 158.109 63.8574 159.408L53.5401 162.887C53.0775 163.026 52.7536 163.49 52.7536 164C52.7536 164.511 53.0775 164.974 53.5401 165.114L63.8574 168.593C67.6511 169.892 70.4734 173.093 71.2599 177.036L75.6088 198.608C75.7013 199.164 76.2102 199.536 76.7654 199.536C77.3206 199.536 77.7833 199.118 77.922 198.608L82.271 177.036C83.0575 173.093 85.8797 169.892 89.6735 168.593L99.9905 165.114C100.453 164.974 100.777 164.511 100.777 164C100.777 163.49 100.453 163.026 99.9905 162.887Z" fill="#FFFDF7"/>
</svg>
