<svg width="256" height="256" viewBox="0 0 256 256" fill="none" xmlns="http://www.w3.org/2000/svg">
<g clip-path="url(#clip0_741_46)">
<path d="M256 128C256 198.692 198.692 256 128 256C57.3075 256 0 198.692 0 128C0 57.3075 57.3075 0 128 0C198.692 0 256 57.3075 256 128Z" fill="black"/>
<path fill-rule="evenodd" clip-rule="evenodd" d="M67.3064 209.034C42.7582 190.61 26.8309 161.163 26.8309 128C26.8309 72.1755 71.9225 26.8834 127.5 26.8834C173.387 26.8834 223.492 54.4272 235.598 96.6178C222.055 49.4834 178.798 15 127.5 15C65.3805 15 15 65.6044 15 128C15 190.396 65.3805 241 127.5 241C189.62 241 240 190.396 240 128V122.043H233.824C233.642 122.043 233.366 122.043 232.999 122.043C232.266 122.043 231.226 122.012 229.881 121.951C227.221 121.858 223.553 121.674 219.426 121.306C210.988 120.569 201.358 119.126 194.816 116.485C184.27 112.248 178.309 106.659 171.522 100.088L171.124 99.7196C164.307 93.148 156.664 85.7479 143.366 79.4837C130.282 73.3117 115.822 74.2943 105.214 76.5052C99.8334 77.6106 95.1865 79.0845 91.9155 80.2821C90.2646 80.8655 88.9505 81.4182 88.0336 81.7867C82.6834 84.059 77.4864 86.7303 72.2588 89.2177C72.2588 89.2177 82.5612 92.0427 87.6356 93.6395C87.8191 93.701 88.0948 93.7928 88.492 93.9157C89.2563 94.1614 90.3567 94.5605 91.6709 95.1135C94.3617 96.2188 97.8773 97.846 101.362 100.119C106.865 103.65 111.42 108.133 113.285 113.599C101.637 115.134 90.6928 120.293 82.5 125.114C77.5475 128.03 73.4205 130.978 70.5163 133.158C69.0795 134.264 67.9178 135.185 67.1229 135.83C66.4504 136.383 55.9341 145.687 55.9341 145.687C55.9341 145.687 69.5074 147.13 76.2025 148.481C80.6658 149.372 86.6576 150.846 92.9555 153.026C99.2527 155.237 105.612 158.123 110.9 161.839C116.189 165.554 120.071 169.822 121.966 174.735C127.53 189.045 122.059 202.954 111.083 210.785C100.231 218.523 83.7534 220.365 67.2758 209.004L67.3064 209.034ZM105.703 226.722C110.136 225.278 114.263 223.159 117.992 220.519C132.911 209.864 140.768 190.334 133.034 170.436C129.976 162.606 124.168 156.649 117.717 152.104C111.237 147.56 103.808 144.244 96.8986 141.818C92.374 140.221 87.9724 138.993 84.1508 138.072C85.5262 137.181 86.9634 136.26 88.5223 135.339C97.6327 129.965 109.127 125.022 120.133 125.022C136.732 125.022 149.083 130.149 160.883 135.615C161.953 136.106 163.023 136.628 164.124 137.12C174.671 142.095 185.737 147.315 198.607 147.315C211.478 147.315 220.802 143.783 227.496 140.098C221.535 190.211 179.073 229.086 127.561 229.086C120.071 229.086 112.765 228.257 105.764 226.722H105.703ZM214.657 132.821C210.224 134.326 204.844 135.431 198.577 135.431C188.488 135.431 179.806 131.378 168.801 126.219C167.823 125.758 166.845 125.298 165.836 124.837C154.8 119.709 142.052 114.274 125.452 113.292C123.22 102.268 114.905 94.7144 107.751 90.1083C106.957 89.5864 106.162 89.0948 105.367 88.6343C106.07 88.4804 106.804 88.2967 107.568 88.1428C117.167 86.1469 128.6 85.6554 138.292 90.2615C149.786 95.6968 156.298 101.961 163.054 108.471L163.298 108.685C170.238 115.379 177.605 122.411 190.414 127.57C197.538 130.426 206.77 131.961 214.657 132.821Z" fill="url(#paint0_linear_741_46)"/>
</g>
<defs>
<linearGradient id="paint0_linear_741_46" x1="12.9823" y1="130.088" x2="242.019" y2="125.918" gradientUnits="userSpaceOnUse">
<stop stop-color="#29CCB9"/>
<stop offset="0.49" stop-color="#0091FF"/>
<stop offset="1" stop-color="#FF66B7"/>
</linearGradient>
<clipPath id="clip0_741_46">
<rect width="256" height="256" fill="white"/>
</clipPath>
</defs>
</svg>
