<svg width="256" height="256" viewBox="0 0 256 256" fill="none" xmlns="http://www.w3.org/2000/svg">
<g clip-path="url(#clip0_2416_1242)">
<path d="M128 256C198.692 256 256 198.692 256 128C256 57.3076 198.692 0 128 0C57.3076 0 0 57.3076 0 128C0 198.692 57.3076 256 128 256Z" fill="#181819"/>
<path d="M127.75 235.844C187.259 235.844 235.501 187.526 235.501 127.922C235.501 68.3183 187.259 20 127.75 20C68.2415 20 20 68.3183 20 127.922C20 187.526 68.2415 235.844 127.75 235.844Z" fill="#FF5418"/>
<path d="M235.999 127.922C216.045 96.9444 187.611 56.4736 128.248 56.4736C68.8858 56.4736 27.9806 81.9552 40.9505 63.9682C60.9043 37.4874 92.3315 20 127.749 20C187.611 20 235.999 68.465 235.999 127.922Z" fill="#E03A00"/>
<path d="M219.538 184.881C200.582 215.359 166.66 235.844 127.75 235.844C68.3879 236.344 20 187.879 20 127.922C88.8405 112.433 73.3763 176.887 132.739 175.388C155.187 174.888 169.653 163.396 186.614 163.396C206.069 163.896 215.547 173.389 219.538 184.881Z" fill="#FF7E50"/>
</g>
<defs>
<clipPath id="clip0_2416_1242">
<rect width="256" height="256" fill="white"/>
</clipPath>
</defs>
</svg>
