<svg width="256" height="256" viewBox="0 0 256 256" fill="none" xmlns="http://www.w3.org/2000/svg">
<g clip-path="url(#clip0_1957_3242)">
<path d="M256 128C256 57.3075 198.692 0 128 0C57.3075 0 0 57.3075 0 128C0 198.692 57.3075 256 128 256C198.692 256 256 198.692 256 128Z" fill="#F3BF6C"/>
<path d="M72.6534 176V124.257C72.6534 106.037 82.8036 96.0197 96.6303 96.0197C110.457 96.0197 116.371 106.589 116.371 123.39V175.842H136.352V120.629C136.283 120.238 136.283 119.837 136.352 119.446C137.951 104.381 147.301 95.7832 160.329 95.7832C174.955 95.7832 179.671 106.353 179.671 123.153V153.757C179.671 173.16 196.214 175.764 211 175.764V159.988H209.562C201.569 159.988 199.731 156.675 199.731 148.867V120.55C199.731 93.4957 187.743 80.1657 164.405 80.1657C157.853 79.7589 151.341 81.4197 145.809 84.908C140.277 88.3962 136.013 93.5309 133.635 99.5691C131.221 93.3077 126.777 88.0098 120.995 84.5003C115.212 80.9908 108.417 79.4669 101.665 80.1657C95.9899 80.0193 90.3713 81.3131 85.3475 83.9233C80.3237 86.5335 76.0629 90.3727 72.9731 95.0733C71.2147 84.8194 58.0274 82.0587 48.9962 82.0587H45V97.8339H48.9962C53.2321 97.8339 53.232 102.882 53.232 106.51V175.764L72.6534 176Z" fill="black"/>
</g>
<defs>
<clipPath id="clip0_1957_3242">
<rect width="256" height="256" fill="white"/>
</clipPath>
</defs>
</svg>
