<svg width="256" height="256" viewBox="0 0 256 256" fill="none" xmlns="http://www.w3.org/2000/svg">
<g clip-path="url(#clip0_741_46)">
<circle cx="128" cy="128" r="128" fill="white"/>
<path fill-rule="evenodd" clip-rule="evenodd" d="M249 129C249 195.826 195.05 250 128.5 250C61.9497 250 8 195.826 8 129C8 62.1735 61.9497 8 128.5 8C195.05 8 249 62.1735 249 129ZM180.135 223.63L222.739 180.849L202.476 160.503C194.349 179.721 179.012 195.122 159.873 203.283L180.135 223.63ZM102.723 205.425C82.8429 198.666 66.454 184.305 56.9879 165.789L40.5621 182.283L83.1653 225.063L102.723 205.425ZM54.5232 97.4966C62.6504 78.278 77.9877 62.8771 97.1268 54.7166L80.7282 38.25L38.125 81.0299L54.5232 97.4966ZM165.136 57.1918L182.572 39.6832L225.176 82.4632L204.608 103.116C197.877 83.1541 183.577 66.6973 165.136 57.1918Z" fill="#060710"/>
<path d="M156.446 115.451C154.674 114.501 152.394 114.501 150.369 115.451L136.185 123.285L126.561 128.27L112.631 136.104C110.859 137.053 108.58 137.053 106.554 136.104L95.6635 129.932C93.8903 128.982 92.6242 127.083 92.6242 124.947V113.077C92.6242 111.178 93.6367 109.279 95.6635 108.092L106.554 102.157C108.326 101.208 110.606 101.208 112.631 102.157L123.522 108.329C125.295 109.279 126.561 111.178 126.561 113.315V121.148L136.185 115.926V107.855C136.185 105.955 135.172 104.056 133.146 102.869L112.885 91.7118C111.112 90.7627 108.833 90.7627 106.806 91.7118L86.0391 103.107C84.013 104.056 83 105.955 83 107.855V130.169C83 132.068 84.013 133.967 86.0391 135.154L106.554 146.312C108.326 147.261 110.606 147.261 112.631 146.312L126.561 138.715L136.185 133.493L150.115 125.896C151.888 124.947 154.167 124.947 156.194 125.896L167.084 131.831C168.856 132.78 170.123 134.68 170.123 136.816V148.685C170.123 150.585 169.11 152.484 167.084 153.671L156.446 159.605C154.674 160.555 152.394 160.555 150.369 159.605L139.478 153.671C137.705 152.721 136.439 150.822 136.439 148.685V141.089L126.815 146.312V154.145C126.815 156.045 127.828 157.944 129.854 159.131L150.369 170.288C152.141 171.237 154.42 171.237 156.446 170.288L176.961 159.131C178.734 158.181 180 156.282 180 154.145V131.593C180 129.694 178.987 127.795 176.961 126.608L156.446 115.451Z" fill="white"/>
<path d="M255 128.5C255 58.636 198.364 2 128.5 2C58.636 2 2 58.636 2 128.5C2 198.364 58.636 255 128.5 255C198.364 255 255 198.364 255 128.5Z" stroke="white" stroke-width="1.2"/>
</g>
<defs>
<clipPath id="clip0_741_46">
<rect width="256" height="256" fill="white"/>
</clipPath>
</defs>
</svg>
