<svg width="256" height="256" viewBox="0 0 256 256" fill="none" xmlns="http://www.w3.org/2000/svg">
<g clip-path="url(#clip0_2417_1428)">
<mask id="mask0_2417_1428" style="mask-type:luminance" maskUnits="userSpaceOnUse" x="0" y="0" width="256" height="256">
<path d="M256 0H0V256H256V0Z" fill="white"/>
</mask>
<g mask="url(#mask0_2417_1428)">
<path d="M256 128C256 57.3075 198.692 0 128 0C57.3075 0 0 57.3075 0 128C0 198.692 57.3075 256 128 256C198.692 256 256 198.692 256 128Z" fill="black"/>
<path d="M65 189H191.449V208.348H65V189Z" fill="#F4F4F4"/>
</g>
<path d="M156.644 69.1427V58.4568H146.062H144.573H137.509V40H125.254V58.4568H123.304H112.722H112.72V40H100.465V58.4545H80V69.5587H91.4535V79.7252V90.4112V100.993V111.575V122.261V132.844V143.426V153.586H80V164.691H91.4535V164.694H100.465V180.234H112.721V164.694H123.304H133.991H144.573H146.062H167.157V154.112H176.715V143.426V132.844V122.261V111.575H156.644V100.993H167.226V90.4112V79.7252V69.1427H156.644ZM112.722 90.4112V79.7252H123.304H133.991H137.974H139.463V90.4112V100.993H137.974H133.991H123.304H112.722V90.4112ZM146.062 132.844V143.426H144.573H133.991H123.304H112.722V132.844V122.261H123.304H133.991H144.573H146.062V132.844Z" fill="white"/>
</g>
<defs>
<clipPath id="clip0_2417_1428">
<rect width="256" height="256" fill="white"/>
</clipPath>
</defs>
</svg>
