<svg width="256" height="256" viewBox="0 0 256 256" fill="none" xmlns="http://www.w3.org/2000/svg">
<g clip-path="url(#clip0_1714_282)">
<path d="M128 256C198.692 256 256 198.692 256 128C256 57.3075 198.692 0 128 0C57.3075 0 0 57.3075 0 128C0 198.692 57.3075 256 128 256Z" fill="#040818"/>
<path d="M179.763 157.929C177.133 155.591 173.771 154.276 170.264 154.276C166.318 154.276 162.664 155.883 159.888 158.806C149.658 169.913 140.451 174.151 127.298 174.151C113.561 174.151 104.061 169.767 93.685 158.66C91.0545 155.883 87.2545 154.13 83.455 154.13C79.9475 154.13 76.44 155.445 73.8095 157.929C68.256 163.337 67.964 172.251 73.225 177.805C89.0085 194.611 105.669 202.211 127.298 202.211C148.489 202.211 164.857 194.611 180.494 177.805C185.901 172.105 185.463 163.19 179.763 157.929Z" fill="url(#paint0_linear_1714_282)"/>
<path d="M179.471 130.017C188.268 130.017 195.4 122.885 195.4 114.087C195.4 105.289 188.268 98.1572 179.471 98.1572C170.673 98.1572 163.541 105.289 163.541 114.087C163.541 122.885 170.673 130.017 179.471 130.017Z" fill="url(#paint1_linear_1714_282)"/>
<path d="M68.2559 127.532C60.8029 123.002 58.3184 113.21 62.8489 105.757L89.4464 61.476C93.9769 54.0225 103.768 51.538 111.222 56.0685C118.675 60.599 121.159 70.3905 116.629 77.8435L90.0314 121.979C85.5009 129.578 75.7094 131.917 68.2559 127.532Z" fill="url(#paint2_linear_1714_282)"/>
<path d="M119.552 127.532C112.098 123.002 109.614 113.21 114.144 105.757L140.742 61.476C145.273 54.0225 155.064 51.538 162.518 56.0685C169.971 60.599 172.455 70.3905 167.925 77.8435L141.473 121.979C136.943 129.578 127.151 131.917 119.552 127.532Z" fill="url(#paint3_linear_1714_282)"/>
</g>
<defs>
<linearGradient id="paint0_linear_1714_282" x1="137.654" y1="179.265" x2="57.5181" y2="97.5414" gradientUnits="userSpaceOnUse">
<stop stop-color="#5ACEFF"/>
<stop offset="1" stop-color="#00EEEA"/>
</linearGradient>
<linearGradient id="paint1_linear_1714_282" x1="190.614" y1="125.513" x2="117.272" y2="50.7182" gradientUnits="userSpaceOnUse">
<stop stop-color="#5ACEFF"/>
<stop offset="1" stop-color="#00EEEA"/>
</linearGradient>
<linearGradient id="paint2_linear_1714_282" x1="156.05" y1="159.406" x2="82.7079" y2="84.611" gradientUnits="userSpaceOnUse">
<stop stop-color="#5ACEFF"/>
<stop offset="1" stop-color="#00EEEA"/>
</linearGradient>
<linearGradient id="paint3_linear_1714_282" x1="182.254" y1="133.71" x2="108.912" y2="58.916" gradientUnits="userSpaceOnUse">
<stop stop-color="#5ACEFF"/>
<stop offset="1" stop-color="#00EEEA"/>
</linearGradient>
<clipPath id="clip0_1714_282">
<rect width="256" height="256" fill="white"/>
</clipPath>
</defs>
</svg>
