<svg width="49" height="50" viewBox="0 0 49 50" fill="none" xmlns="http://www.w3.org/2000/svg">
<rect y="0.969421" width="48.1763" height="48.1763" rx="24.0882" fill="#111215"/>
<path d="M6.68475 26.3254C7.26103 32.7796 12.3322 41.6542 22.5899 42.3458C17.9797 41.8847 8.87459 38.1966 6.68475 26.3254Z" fill="#EBD271"/>
<path d="M18.1651 8.70711C12.1875 11.2086 5.26238 18.7264 7.70578 28.7128C6.7508 24.1791 7.51226 14.385 18.1651 8.70711Z" fill="#EBD271"/>
<path d="M36.3865 12.2479C40.9106 16.887 44.3459 26.5138 38.1932 34.7504C40.8444 30.9507 43.9722 21.6382 36.3865 12.2479Z" fill="#EBD271"/>
<path d="M41.3493 28.8815C39.8068 35.1751 33.4558 43.1839 23.2111 42.3213C27.8381 42.5605 37.3951 40.2869 41.3493 28.8815Z" fill="#EBD271"/>
<path d="M16.9424 11.4576L12.678 34.1627L16.5966 34.2779L18.6712 23.0983L24.0882 34.2779L29.6204 23.0983L31.4644 34.2779H35.6136L31.3492 11.4576L23.9729 27.4779L23.8577 27.2474L31.1187 6.04061L25.1255 17.5661L24.4339 14.1084L22.9356 20.3322L21.0915 18.1423L22.5899 24.1356L16.9424 11.4576Z" fill="#EBD271"/>
<path d="M22.2441 15.6067L23.0509 10.5355L23.6271 15.3762L22.5899 17.4508L22.2441 15.6067Z" fill="#EBD271"/>
<path d="M26.1627 13.5321L25.817 12.6101C24.9871 13.5321 25.1639 14.531 25.356 14.9152L26.1627 13.5321Z" fill="#EBD271"/>
<path fill-rule="evenodd" clip-rule="evenodd" d="M24.0882 42.461C33.4452 42.461 41.0306 34.8756 41.0306 25.5186C41.0306 16.1616 33.4452 8.57621 24.0882 8.57621C14.7312 8.57621 7.14581 16.1616 7.14581 25.5186C7.14581 34.8756 14.7312 42.461 24.0882 42.461ZM24.3553 40.1612C33.0122 40.1612 40.0299 33.1434 40.0299 24.4866C40.0299 15.8297 33.0122 8.81199 24.3553 8.81199C15.6985 8.81199 8.68074 15.8297 8.68074 24.4866C8.68074 33.1434 15.6985 40.1612 24.3553 40.1612Z" fill="#EBD271"/>
</svg>
