<svg width="256" height="256" viewBox="0 0 256 256" fill="none" xmlns="http://www.w3.org/2000/svg">
<g clip-path="url(#clip0_2198_1171)">
<path d="M256 128C256 57.3075 198.692 0 128 0C57.3075 0 0 57.3075 0 128C0 198.692 57.3075 256 128 256C198.692 256 256 198.692 256 128Z" fill="#42438F"/>
<path fill-rule="evenodd" clip-rule="evenodd" d="M224.597 108.63C224.597 82.9774 203.717 62.1816 177.96 62.1816H78.0436C52.2866 62.1816 31.4062 82.9774 31.4062 108.63V148.024C31.4062 173.677 52.2866 194.473 78.0436 194.473H177.96C203.717 194.473 224.597 173.677 224.597 148.024V108.63Z" fill="#F875AA"/>
<path fill-rule="evenodd" clip-rule="evenodd" d="M224.597 108.63C224.597 82.9774 203.717 62.1816 177.96 62.1816H78.0436C52.2866 62.1816 31.4062 82.9774 31.4062 108.63V148.024C31.4062 173.677 52.2866 194.473 78.0436 194.473H177.96C203.717 194.473 224.597 173.677 224.597 148.024V108.63ZM217.316 108.63V148.024C217.316 169.672 199.695 187.221 177.96 187.221H78.0436C56.3076 187.221 38.6872 169.672 38.6872 148.024C38.6872 135.252 38.6872 121.402 38.6872 108.63C38.6872 86.9824 56.3076 69.4331 78.0436 69.4331C108.334 69.4331 147.669 69.4331 177.96 69.4331C199.695 69.4331 217.316 86.9823 217.316 108.63Z" fill="#31326F"/>
<path fill-rule="evenodd" clip-rule="evenodd" d="M102.475 69.1387H177.803C199.191 69.1387 216.594 86.1307 217.146 107.3L217.152 107.765V148.359C217.066 153.778 215.876 158.932 213.797 163.605H105.858C89.402 163.605 76.0596 150.317 76.0596 133.926V98.6219C76.0596 83.3717 87.6077 70.8085 102.475 69.1387Z" fill="#FBACCC"/>
<path fill-rule="evenodd" clip-rule="evenodd" d="M66.7724 160.664C66.7724 158.799 65.2514 157.284 63.3779 157.284C61.5044 157.284 59.9834 158.799 59.9834 160.664V168.308C59.9834 170.173 61.5044 171.689 63.3779 171.689C65.2514 171.689 66.7724 170.173 66.7724 168.308V160.664Z" fill="#31326F"/>
<path fill-rule="evenodd" clip-rule="evenodd" d="M85.2362 160.664C85.2362 158.799 83.7152 157.284 81.8418 157.284C79.9683 157.284 78.4473 158.799 78.4473 160.664V168.308C78.4473 170.173 79.9683 171.689 81.8418 171.689C83.7152 171.689 85.2362 170.173 85.2362 168.308V160.664Z" fill="#31326F"/>
<path fill-rule="evenodd" clip-rule="evenodd" d="M103.701 160.665C103.701 158.8 102.18 157.284 100.307 157.284C98.4331 157.284 96.9121 158.8 96.9121 160.665V168.308C96.9121 170.174 98.4331 171.689 100.307 171.689C102.18 171.689 103.701 170.174 103.701 168.308V160.665Z" fill="#31326F"/>
<path fill-rule="evenodd" clip-rule="evenodd" d="M122.164 160.665C122.164 158.8 120.643 157.284 118.769 157.284C116.896 157.284 115.375 158.8 115.375 160.665V168.308C115.375 170.174 116.896 171.689 118.769 171.689C120.643 171.689 122.164 170.174 122.164 168.308V160.665Z" fill="#31326F"/>
<path fill-rule="evenodd" clip-rule="evenodd" d="M140.629 160.664C140.629 158.799 139.108 157.284 137.234 157.284C135.361 157.284 133.84 158.799 133.84 160.664V168.308C133.84 170.173 135.361 171.689 137.234 171.689C139.108 171.689 140.629 170.173 140.629 168.308V160.664Z" fill="#31326F"/>
<path fill-rule="evenodd" clip-rule="evenodd" d="M159.093 160.664C159.093 158.799 157.572 157.284 155.698 157.284C153.825 157.284 152.304 158.799 152.304 160.664V168.308C152.304 170.173 153.825 171.689 155.698 171.689C157.572 171.689 159.093 170.173 159.093 168.308V160.664Z" fill="#31326F"/>
<path fill-rule="evenodd" clip-rule="evenodd" d="M177.558 160.665C177.558 158.8 176.037 157.284 174.163 157.284C172.29 157.284 170.769 158.8 170.769 160.665V168.308C170.769 170.174 172.29 171.689 174.163 171.689C176.037 171.689 177.558 170.174 177.558 168.308V160.665Z" fill="#31326F"/>
<path fill-rule="evenodd" clip-rule="evenodd" d="M196.02 160.665C196.02 158.8 194.499 157.284 192.626 157.284C190.752 157.284 189.231 158.8 189.231 160.665V168.308C189.231 170.174 190.752 171.689 192.626 171.689C194.499 171.689 196.02 170.174 196.02 168.308V160.665Z" fill="#31326F"/>
<path fill-rule="evenodd" clip-rule="evenodd" d="M100.551 88.9346L108.668 84.3779L113.243 76.1465L117.818 84.3779L126.378 88.9346L117.818 94.2262L113.243 102.311L108.668 94.2262L100.551 88.9346Z" fill="#EBEBEB"/>
<path fill-rule="evenodd" clip-rule="evenodd" d="M185.02 92.9916L190.674 89.8173L193.861 84.083L197.049 89.8173L203.012 92.9916L197.049 96.6779L193.861 102.31L190.674 96.6779L185.02 92.9916Z" fill="#EBEBEB"/>
<path fill-rule="evenodd" clip-rule="evenodd" d="M235 128.327C235 116.313 225.222 106.573 213.157 106.573C172.107 106.573 83.8927 106.573 42.8428 106.573C30.7783 106.573 21 116.313 21 128.327C21 140.342 30.7783 150.082 42.8428 150.082C83.8927 150.082 172.107 150.082 213.157 150.082C225.222 150.082 235 140.342 235 128.327Z" fill="#F875AA"/>
<path fill-rule="evenodd" clip-rule="evenodd" d="M235 128.327C235 116.313 225.222 106.573 213.157 106.573C172.107 106.573 83.8927 106.573 42.8428 106.573C30.7783 106.573 21 116.313 21 128.327C21 140.342 30.7783 150.082 42.8428 150.082C83.8927 150.082 172.107 150.082 213.157 150.082C225.222 150.082 235 140.342 235 128.327ZM227.72 128.327C227.72 136.337 221.2 142.83 213.157 142.83H42.8428C34.7998 142.83 28.2802 136.337 28.2802 128.327C28.2802 120.317 34.7998 113.824 42.8428 113.824C83.8927 113.824 172.107 113.824 213.157 113.824C221.2 113.824 227.72 120.317 227.72 128.327Z" fill="#31326F"/>
</g>
<defs>
<clipPath id="clip0_2198_1171">
<rect width="256" height="256" fill="white"/>
</clipPath>
</defs>
</svg>
