<svg width="360" height="360" viewBox="0 0 360 360" fill="none" xmlns="http://www.w3.org/2000/svg">
<g clip-path="url(#clip0_121_152)">
<circle cx="180" cy="180" r="180" fill="white"/>
<path d="M117.7 153.1L180.1 124.1V45L117.7 153.1Z" fill="#FF596E"/>
<path d="M180.1 124.1V187.2L242.5 153.1L180.1 124.1Z" fill="#FF596E"/>
<path d="M180.1 124.1V187.2L117.7 153.1L180.1 124.1Z" fill="#800010"/>
<path d="M242.5 153.1L180.1 124.1V45L242.5 153.1Z" fill="#800010"/>
<path d="M180.1 211.5V278.7L116.5 176.8L180.1 211.5Z" fill="#FF596E"/>
<path d="M180.1 211.5V278.7L243.7 176.8L180.1 211.5Z" fill="#800010"/>
<path d="M254.2 192.1L268.6 232.6L300.2 179.9L254.2 192.1Z" fill="#800010"/>
<path d="M268.6 232.6L300.2 223.2V179.9L268.6 232.6Z" fill="#FF596E"/>
<path d="M300.2 223.2L254.2 300L219.3 315L268.6 232.6L300.2 223.2Z" fill="#800010"/>
<path d="M60 223.2L106 300L140.9 315L91.6 232.6L60 223.2Z" fill="#FF596E"/>
<path d="M180.1 315L106 192.1L91.6001 232.6L140.9 315H180.1Z" fill="#800010"/>
<path d="M106 192.1L91.6 232.6L60 179.9L106 192.1Z" fill="#FF596E"/>
<path d="M91.6 232.6L60 223.2V179.9L91.6 232.6Z" fill="#800010"/>
<path d="M180.1 315L254.2 192.1L268.6 232.6L219.3 315H180.1Z" fill="#FF596E"/>
</g>
<defs>
<clipPath id="clip0_121_152">
<rect width="360" height="360" fill="white"/>
</clipPath>
</defs>
</svg>
