<svg width="256" height="256" viewBox="0 0 256 256" fill="none" xmlns="http://www.w3.org/2000/svg">
<g clip-path="url(#clip0_2200_1181)">
<path d="M256 128C256 57.3075 198.692 0 128 0C57.3075 0 0 57.3075 0 128C0 198.692 57.3075 256 128 256C198.692 256 256 198.692 256 128Z" fill="white"/>
<path d="M210.356 110.951H203.55V110.6H127.5V144.4H175.255C168.288 164.076 149.567 178.2 127.5 178.2C99.5009 178.2 76.8 155.499 76.8 127.5C76.8 99.5009 99.5009 76.8 127.5 76.8C140.424 76.8 152.182 81.6756 161.135 89.6398L185.036 65.7389C169.944 51.6739 149.757 43 127.5 43C80.8349 43 43 80.8349 43 127.5C43 174.165 80.8349 212 127.5 212C174.165 212 212 174.165 212 127.5C212 121.834 211.417 116.304 210.356 110.951Z" fill="#FBC02D"/>
<path d="M52.7412 88.1695L80.5037 108.53C88.0157 89.9313 106.209 76.8 127.498 76.8C140.423 76.8 152.181 81.6756 161.134 89.6398L185.034 65.7389C169.943 51.6739 149.756 43 127.498 43C95.0419 43 66.895 61.3238 52.7412 88.1695Z" fill="#E53935"/>
<path d="M127.502 212.001C149.328 212.001 169.16 203.648 184.155 190.065L158.002 167.934C149.518 174.36 138.972 178.201 127.502 178.201C105.523 178.201 86.8612 164.186 79.8308 144.629L52.2754 165.86C66.2601 193.225 94.6606 212.001 127.502 212.001Z" fill="#4CAF50"/>
<path d="M210.356 110.951L210.289 110.6H203.55H127.5V144.4H175.255C171.909 153.851 165.829 162.001 157.988 167.938L158 167.929L184.153 190.06C182.302 191.741 212 169.75 212 127.5C212 121.834 211.417 116.304 210.356 110.951Z" fill="#1565C0"/>
</g>
<defs>
<clipPath id="clip0_2200_1181">
<rect width="256" height="256" fill="white"/>
</clipPath>
</defs>
</svg>
