<svg width="256" height="256" viewBox="0 0 256 256" fill="none" xmlns="http://www.w3.org/2000/svg">
<path d="M128 0C57.3023 0 0 57.3023 0 128C0 198.698 57.3023 256 128 256C198.698 256 256 198.698 256 128C256 57.3023 198.698 0 128 0ZM188.775 145.364C187.535 150.326 185.55 154.295 182.822 157.519C180.341 160.744 177.86 162.729 175.132 163.721C172.403 164.713 169.674 165.209 166.698 165.209C163.721 165.209 161.24 164.713 159.256 163.473C157.271 162.481 155.783 160.744 154.543 158.76C153.302 156.775 152.558 154.295 152.062 151.566C151.566 148.837 151.318 145.86 151.318 142.636C151.318 141.395 151.318 140.155 151.566 138.419C151.814 136.682 152.062 134.45 152.31 134.45H151.814C147.845 144.372 142.388 151.566 135.442 157.271C128.496 162.977 120.806 165.705 112.372 165.705C106.667 165.705 101.953 163.473 98.7287 159.256C95.2558 155.039 93.5194 148.589 93.5194 140.155C93.5194 138.915 93.5194 137.674 93.7674 136.186C94.0155 134.946 94.0155 134.45 94.2636 131.969H92.5271C90.2946 136.93 88.3101 143.876 86.8217 150.078C85.3333 156.279 84.093 161.984 83.3488 167.194C82.3566 172.403 81.8605 177.116 81.3643 181.085C80.8682 185.054 80.6202 187.783 80.3721 189.271C80.6202 190.512 80.8682 191.752 81.1163 193.24C81.6124 194.729 81.8605 196.217 82.3566 197.457C82.8527 198.698 83.1008 200.186 83.3488 201.426C83.5969 202.667 83.845 203.659 83.845 204.403C83.845 207.876 83.1008 210.605 81.6124 212.341C80.124 214.078 78.3876 215.07 76.6512 215.07C74.4186 215.07 72.4341 214.326 70.9457 213.085C69.2093 211.597 68.4651 209.364 68.4651 206.388C68.4651 202.171 69.2093 196.713 70.6977 190.264C72.186 183.814 74.4186 175.628 77.1473 165.953C78.6357 161.488 79.876 157.023 81.3643 152.558C82.8527 148.093 84.093 143.876 85.3333 140.155C86.5736 136.434 87.5659 132.961 88.5581 129.984C89.5504 127.008 90.0465 124.775 90.2946 123.039C90.5426 122.295 90.7907 120.558 91.0388 118.078C91.2868 115.597 91.5349 112.868 92.031 109.643C92.5271 106.419 92.7752 102.946 93.2713 99.4729C93.7674 95.7519 94.2636 92.5271 94.5116 89.5504C95.0077 87.3178 95.2558 84.8372 95.7519 82.1085C96.2481 79.3798 96.9922 76.6512 97.9845 74.4186C98.9767 71.938 100.465 69.9535 102.202 68.2171C103.938 66.4806 106.171 65.7364 108.899 65.7364C111.876 65.7364 113.86 66.7287 114.853 68.4651C115.845 70.2016 116.341 72.4341 116.093 74.9147C115.845 77.3954 115.597 80.124 114.853 82.8527C114.109 85.5814 113.364 88.062 112.62 90.0465C110.636 96.2481 108.651 101.953 106.419 106.667C104.186 111.38 102.202 116.589 100.465 122.047C98.9767 125.767 98.4806 129.24 98.4806 132.217C98.4806 137.674 100.217 141.643 103.442 144.62C106.915 147.597 110.884 148.837 115.597 148.837C119.318 148.837 123.039 147.597 126.512 144.868C129.984 142.14 133.209 138.915 136.186 135.194C139.163 131.473 141.643 127.504 143.628 123.039C145.612 118.822 147.101 114.853 148.093 111.628C148.341 111.132 148.589 110.14 148.837 108.155C149.333 106.171 149.581 103.938 150.078 101.457C150.574 98.9767 151.07 96.4961 151.566 93.7674C152.062 91.0388 152.558 88.8062 152.806 87.0698C153.302 85.0853 153.55 83.1008 154.047 80.6202C154.543 78.1395 155.287 75.907 156.279 73.6744C157.271 71.4419 158.76 69.7054 160.248 68.2171C161.984 66.7287 163.969 65.9845 166.698 65.9845C169.922 65.9845 171.907 66.9767 173.147 68.7132C174.14 70.4496 174.636 72.6822 174.636 75.1628C174.388 77.6434 174.14 80.124 173.395 82.6046C172.651 85.0853 172.155 87.0698 171.659 88.5581C169.674 94.7597 167.69 100.217 165.705 105.178C163.721 110.14 161.984 114.605 160.248 118.078C158.76 121.798 157.519 124.527 156.527 126.76C155.535 128.992 155.039 130.481 155.039 131.225C155.039 137.674 156.527 142.388 159.256 145.116C161.984 147.845 164.961 149.333 168.186 149.333C173.643 149.333 177.86 147.597 181.085 144.372C184.31 140.899 186.791 134.698 188.279 127.256H190.264C190.76 134.45 190.015 140.403 188.775 145.364Z" fill="#2E3192"/>
<path d="M74.4845 214.72C71.9609 214.121 70.0494 212.519 69.167 210.264C67.8134 206.805 68.7727 198.326 71.9606 185.57C75.0761 173.104 78.0606 163.006 84.6359 142.682C85.49 140.042 88.7392 129.749 89.3208 127.84C90.0566 125.427 90.8056 121.123 91.299 116.475C91.5676 113.943 91.9103 111.051 92.0603 110.047C92.2104 109.044 92.5038 106.719 92.7122 104.881C93.27 99.964 94.3229 91.9372 94.9864 87.5437C96.0892 80.2423 96.856 77.1291 98.3471 73.9003C100.051 70.2108 102.74 67.3138 105.306 66.405C106.651 65.9283 108.732 65.7338 110.224 65.9453C113.331 66.386 114.896 67.8161 115.71 70.9583C116.488 73.9619 115.572 80.7095 113.534 86.9801C110.332 96.8322 108.483 101.841 106.125 107.045C103.185 113.533 99.3968 124.095 98.8328 127.377C97.6162 134.455 98.9561 140.143 102.748 143.997C105.015 146.301 107.768 147.771 111.215 148.517C113.457 149.002 117.686 148.962 119.669 148.438C123.101 147.531 126.525 145.336 130.527 141.48C138.374 133.92 143.212 126.044 147.389 114.029C148.267 111.504 148.613 110.124 149.248 106.609C149.92 102.887 151.83 92.7804 153.01 86.6983C153.211 85.665 153.552 83.8475 153.768 82.6592C154.939 76.2235 156.617 72.2934 159.548 69.1199C161.443 67.0688 163.702 66.1273 166.729 66.1273C169.814 66.1273 172.035 67.1234 173.115 68.9912C175.531 73.172 174.811 79.0455 170.228 92.5303C167.86 99.4963 163.846 109.892 161.562 114.972C159.151 120.333 156.1 127.478 155.505 129.155L154.838 131.034L155.062 133.813C155.589 140.358 157.268 143.949 161.187 146.914C163.501 148.665 165.618 149.352 168.694 149.348C174.713 149.341 179.809 146.796 182.798 142.304C184.812 139.277 186.728 134.469 187.87 129.578L188.386 127.371H189.27H190.154L190.273 129.585C190.41 132.14 190.152 137.064 189.729 139.943C188.871 145.785 187.147 150.926 184.81 154.611C183.069 157.355 179.952 160.79 178.069 162.04C174.209 164.602 167.68 165.759 162.784 164.749C161.286 164.44 158.496 163.039 157.379 162.034C153.712 158.738 151.953 153.745 151.523 145.416C151.32 141.474 151.653 136.721 152.264 134.838C152.405 134.404 152.378 134.322 152.094 134.322C151.854 134.322 151.604 134.689 151.23 135.59C149.464 139.846 146.355 145.184 143.434 148.975C141.745 151.166 136.952 155.977 134.792 157.648C128.548 162.48 122.207 164.97 114.797 165.499C110.847 165.782 107.682 165.312 104.832 164.02C100.624 162.112 97.119 157.895 95.3588 152.622C93.8356 148.06 93.2171 140.829 93.9184 135.783C94.066 134.721 94.2311 133.408 94.2853 132.866L94.3837 131.879H93.3995H92.4153L91.6909 133.711C89.9412 138.135 88.0726 144.362 86.5183 150.948C83.9702 161.744 82.6409 169.519 81.0673 182.829C80.2975 189.34 80.2969 189.351 80.5972 191.001C80.9434 192.903 81.6316 195.599 82.2902 197.632C83.0495 199.976 83.6932 203.328 83.6932 204.939C83.6932 209.452 81.8297 213.021 78.7148 214.473C77.7174 214.938 75.8593 215.047 74.4845 214.72Z" fill="white"/>
</svg>
