<svg width="256" height="256" viewBox="0 0 256 256" fill="none" xmlns="http://www.w3.org/2000/svg">
<g clip-path="url(#clip0_1359_482)">
<path d="M128 256C198.692 256 256 198.692 256 128C256 57.3075 198.692 0 128 0C57.3075 0 0 57.3075 0 128C0 198.692 57.3075 256 128 256Z" fill="#2D2D2D"/>
<g clip-path="url(#clip1_1359_482)">
<path d="M86.9359 110.592H99.8744V144.398H86.9359V110.592ZM71.253 111.059L44.9897 125.25C44.8022 125.35 44.5935 125.402 44.3817 125.402C44.1698 125.402 43.9611 125.35 43.7737 125.25L17.5103 111.059C16.9323 110.751 16.2878 110.59 15.6338 110.592H15.6011C14.7053 110.539 13.8249 110.844 13.1508 111.44C12.4766 112.037 12.0631 112.877 12 113.778V144.359H24.9271V129.803C24.952 129.584 25.0309 129.376 25.1566 129.196C25.2823 129.016 25.4508 128.871 25.6466 128.774C25.8423 128.677 26.0592 128.631 26.2772 128.64C26.4953 128.649 26.7075 128.714 26.8946 128.827L41.613 136.793C42.3423 137.18 43.1531 137.386 43.9776 137.393C44.8021 137.4 45.6163 137.208 46.352 136.833L61.8829 128.773C62.0702 128.663 62.2815 128.603 62.4977 128.596C62.714 128.59 62.9285 128.638 63.1218 128.736C63.3151 128.834 63.4811 128.979 63.6048 129.157C63.7286 129.336 63.8061 129.543 63.8305 129.76V144.359H76.7576V113.778C76.6945 112.878 76.2818 112.039 75.6089 111.442C74.936 110.846 74.057 110.541 73.1622 110.592H73.1295C72.4755 110.59 71.831 110.751 71.253 111.059ZM164.391 110.592H151.269V125.979C151.246 126.191 151.171 126.394 151.052 126.571C150.933 126.748 150.772 126.892 150.585 126.992C150.397 127.092 150.188 127.143 149.976 127.143C149.764 127.142 149.555 127.089 149.368 126.989L115.363 110.966C114.833 110.719 114.255 110.591 113.671 110.592H113.648C112.752 110.539 111.872 110.844 111.198 111.44C110.524 112.037 110.11 112.877 110.047 113.778V144.361H123.064V128.991C123.087 128.779 123.161 128.576 123.28 128.4C123.4 128.223 123.56 128.079 123.747 127.979C123.935 127.879 124.143 127.827 124.355 127.827C124.567 127.828 124.776 127.88 124.963 127.98L159.102 144.003C159.631 144.249 160.207 144.376 160.789 144.375C161.685 144.428 162.566 144.123 163.24 143.527C163.914 142.93 164.327 142.09 164.391 141.189V110.592ZM174.563 144.398V110.592H180.517V144.398H174.563ZM215.555 145C199.539 145 188.178 138.276 188.178 127.501C188.178 116.783 199.608 110 215.555 110C231.502 110 243 116.724 243 127.501C243 138.278 231.775 145 215.555 145ZM215.555 114.481C203.646 114.481 194.474 119.083 194.474 127.499C194.474 135.977 203.646 140.518 215.555 140.518C227.463 140.518 236.703 135.977 236.703 127.499C236.703 119.083 227.463 114.481 215.555 114.481Z" fill="#C72C48"/>
</g>
</g>
<defs>
<clipPath id="clip0_1359_482">
<rect width="256" height="256" fill="white"/>
</clipPath>
<clipPath id="clip1_1359_482">
<rect width="231" height="35" fill="white" transform="translate(12 110)"/>
</clipPath>
</defs>
</svg>
