<svg width="256" height="256" viewBox="0 0 256 256" fill="none" xmlns="http://www.w3.org/2000/svg">
<path d="M128 252.8C196.925 252.8 252.8 196.925 252.8 128C252.8 59.0748 196.925 3.19995 128 3.19995C59.0751 3.19995 3.2002 59.0748 3.2002 128C3.2002 196.925 59.0751 252.8 128 252.8Z" fill="black"/>
<mask id="mask0_2417_1494" style="mask-type:luminance" maskUnits="userSpaceOnUse" x="53" y="53" width="150" height="150">
<path d="M202.423 53H53V202.423H202.423V53Z" fill="white"/>
</mask>
<g mask="url(#mask0_2417_1494)">
<path d="M179.102 202.423C172.279 202.423 165.883 199.455 161.472 194.354C151.057 199.634 139.446 202.423 127.72 202.423C86.5221 202.423 53 168.9 53 127.72C53 86.5386 86.5221 53 127.72 53C168.9 53 202.407 86.6206 202.423 127.933V127.949V179.102C202.423 191.959 191.959 202.423 179.102 202.423ZM163.44 185.826L165.112 188.352C168.228 193.058 173.46 195.862 179.086 195.862C188.335 195.862 195.846 188.335 195.846 179.102V127.966C195.846 90.245 165.276 59.5765 127.703 59.5765C90.1302 59.5601 59.5601 90.1302 59.5601 127.72C59.5601 165.309 90.1302 195.88 127.72 195.88C139.282 195.88 150.729 192.91 160.799 187.302L163.44 185.826Z" fill="white"/>
<path fill-rule="evenodd" clip-rule="evenodd" d="M124.784 185.383C156.618 186.613 183.432 161.75 184.629 129.868C184.744 127.113 184.662 124.439 184.383 121.766C184.497 124.997 183.628 128.392 181.627 130.819C177.118 136.28 169.36 134.968 168.081 129.343C167.409 126.276 168.72 122.553 171.344 120.799C156.797 118.486 152.665 132.525 145.055 139.987C136.855 148.056 124.145 145.137 121.98 135.559C120.783 130.245 123.013 123.783 127.523 120.635C119.946 118.88 114.173 121.11 108.843 126.457C103.775 131.492 100.151 138.183 94.0173 141.775C88.2444 145.202 80.2246 145.53 75.0914 140.692C71.3029 137.133 69.5153 131.426 69.3513 125.407C68.1377 157.322 92.9512 184.136 124.784 185.383Z" fill="url(#paint0_linear_2417_1494)"/>
<path fill-rule="evenodd" clip-rule="evenodd" d="M121.799 103.529C150.959 103.332 146.94 67.6945 121.438 70.1218C93.1476 72.8278 70.4824 96.1818 69.3672 125.44C69.5312 131.459 71.3188 137.166 75.1073 140.725C80.2406 145.547 88.2603 145.235 94.0332 141.807C96.5424 140.364 98.6088 138.38 100.528 136.215C94.9844 142.677 86.5054 139.56 86.0299 131.262C85.587 123.16 90.0479 114.976 96.4768 110.188C103.431 104.956 112.516 103.562 121.799 103.529Z" fill="url(#paint1_linear_2417_1494)"/>
<path fill-rule="evenodd" clip-rule="evenodd" d="M158.617 84.4556C163.996 84.6525 168.178 89.1625 167.949 94.5582C167.752 99.9047 163.242 104.103 157.912 103.89C152.533 103.644 148.384 99.1339 148.597 93.7874C148.777 88.3917 153.271 84.2424 158.617 84.4556Z" fill="url(#paint2_linear_2417_1494)"/>
<path fill-rule="evenodd" clip-rule="evenodd" d="M173.115 102.923C176.297 103.037 178.773 105.711 178.658 108.909C178.544 112.107 175.821 114.616 172.64 114.501C169.458 114.337 166.982 111.664 167.097 108.466C167.228 105.284 169.933 102.808 173.115 102.923Z" fill="url(#paint3_linear_2417_1494)"/>
</g>
<defs>
<linearGradient id="paint0_linear_2417_1494" x1="133.812" y1="98.7837" x2="116.21" y2="178.972" gradientUnits="userSpaceOnUse">
<stop stop-color="#521C89"/>
<stop offset="0.5164" stop-color="#8D1AF1"/>
<stop offset="1" stop-color="#FFA5F6"/>
</linearGradient>
<linearGradient id="paint1_linear_2417_1494" x1="97.3411" y1="140.325" x2="110.054" y2="86.5402" gradientUnits="userSpaceOnUse">
<stop stop-color="#1837D8"/>
<stop offset="0.5074" stop-color="#00C1FF"/>
<stop offset="1" stop-color="#70E6FF"/>
</linearGradient>
<linearGradient id="paint2_linear_2417_1494" x1="144.7" y1="151.519" x2="157.413" y2="97.7343" gradientUnits="userSpaceOnUse">
<stop stop-color="#1837D8"/>
<stop offset="0.5074" stop-color="#00C1FF"/>
<stop offset="1" stop-color="#70E6FF"/>
</linearGradient>
<linearGradient id="paint3_linear_2417_1494" x1="161.802" y1="155.562" x2="174.514" y2="101.777" gradientUnits="userSpaceOnUse">
<stop stop-color="#1837D8"/>
<stop offset="0.5074" stop-color="#00C1FF"/>
<stop offset="1" stop-color="#70E6FF"/>
</linearGradient>
</defs>
</svg>
