<svg width="256" height="256" viewBox="0 0 256 256" fill="none" xmlns="http://www.w3.org/2000/svg">
<g clip-path="url(#clip0_741_46)">
<circle cx="128" cy="128" r="128" fill="black"/>
<path d="M77.5687 145.805L78.3746 147.606L101.866 156.03L152.894 154.85L177.988 149.5L179.176 146.951L179.966 145.805L183.983 133.174L183.078 125.948L174.573 117.197L122.779 116.779L95.0348 111.358L83.3928 111.985L79.2797 114.345L78.7931 117.197L74.1902 127.477V136.927" fill="#131223"/>
<path d="M103.562 195.045C103.562 195.045 105.902 198.005 108.717 198.885C111.531 199.766 115.278 198.938 119.962 202.258C124.645 205.579 128.665 205.24 128.665 205.24C128.665 205.24 132.679 205.601 137.366 202.28C142.052 198.959 145.8 199.79 148.611 198.907C151.423 198.023 153.766 195.045 153.766 195.045C153.766 195.045 145.738 189.547 128.659 189.547C111.581 189.547 103.562 195.045 103.562 195.045Z" fill="#03F5AE"/>
<path d="M182.933 114.564C182.933 114.564 185.796 120.792 185.068 125.305C185.068 125.305 182.573 116.655 179.576 114.601L181.153 110.632L179.697 109.593C159.24 97.2369 128.665 97.6665 128.665 97.6665C158.285 95.0716 179.204 104.589 179.204 104.589L180.946 97.4501L175.58 94.8552C175.58 94.8552 175.816 89.7613 174.929 87.8924C174.406 86.7896 172.887 85.7053 171.728 85.001C160.585 80.1294 141.417 79.0853 141.417 79.0853C158.483 77.5129 166.973 78.5632 170.376 79.2675C169.781 75.6842 168.259 70.3956 164.391 69.5831C161.865 69.0518 160.206 69.197 158.592 69.7345C157.891 68.9251 155.684 66.5681 153.127 65.768C150.027 64.7919 145.874 65.7093 140.695 62.0394C135.515 58.3696 131.086 58.7681 131.086 58.7681C131.086 58.7681 126.648 58.3696 121.477 62.0394C116.308 65.7093 112.154 64.7919 109.048 65.768C105.942 66.7442 103.351 70.0094 103.351 70.0094C103.351 70.0094 109.59 74.2817 122.727 75.6625C117.876 75.4 110.991 75.9715 106.879 74.5195C99.8363 72.0297 98.6892 69.5399 92.7536 70.7848C88.4143 71.7115 87.379 75.0849 86.9482 78.5323C97.4865 76.6449 103.509 79.0853 103.509 79.0853C88.3771 80.6947 83.2535 84.7724 82.9466 85.0288C82.5471 85.3855 82.2144 85.8102 81.964 86.283C81.4712 87.3209 81.8525 87.7009 81.9392 89.7397C102.967 83.373 119.754 87.7966 119.754 87.7966C104.426 88.1519 90.1004 90.8055 76.3848 97.4407L78.4027 104.475C91.0086 99.9369 98.0943 103.159 98.0943 103.159C90.5628 104.964 83.303 107.75 76.5026 111.447L77.7951 114.728C74.8722 116.964 72.467 125.314 72.467 125.314C71.7386 120.801 74.6026 114.573 74.6026 114.573C68.6669 114.938 66.4259 120.542 66.4259 125.212C66.4259 129.883 69.448 135.175 73.0931 138.6C76.7382 142.026 77.5658 145.804 77.5658 145.804C80.3275 138.276 74.9621 137.655 76.422 128.731C77.8819 119.806 88.6591 115.037 88.6591 115.037C86.447 114.553 84.2019 114.232 81.9424 114.079C86.5917 113.387 89.8277 105.97 118.551 124.564C147.275 143.157 165.063 124.35 174.592 118.657C177.424 120.964 180.394 124.35 181.101 128.737C182.561 137.661 177.195 138.282 179.957 145.811C179.957 145.811 180.788 142.02 184.433 138.597C188.078 135.175 191.1 129.88 191.1 125.209C191.1 120.538 188.868 114.929 182.933 114.564Z" fill="#03F5AE"/>
<path d="M198.449 101.871C192.281 98.4269 182.158 97.7656 182.158 97.7656L180.527 105.05C190.703 109.236 196.351 120.631 196.351 120.631C196.351 120.631 196.803 119.467 198.985 116.903C201.362 114.123 209 111.719 209 111.719C209 111.719 203.789 104.843 198.449 101.871Z" fill="#03F5AE"/>
<path d="M182.136 190.863C182.316 188.657 182.648 187.906 182.648 187.906C178.385 187.323 174.215 186.192 170.243 184.542C166.834 185.247 158.496 185.07 141.417 183.495C141.417 183.495 161.031 184.057 172.174 179.17C173.333 178.466 174.852 177.382 175.376 176.279C176.263 174.41 175.584 167.719 175.584 167.719L180.949 165.121L179.204 157.976C179.204 157.976 158.285 167.496 128.681 164.898C128.681 164.898 159.261 165.331 179.712 152.971L181.169 151.933L179.192 146.951C157.95 155.6 99.4088 155.6 78.1673 146.951L76.5183 151.108C83.3173 154.806 90.5761 157.593 98.1069 159.397C98.1069 159.397 91.6318 160.589 78.4896 157.305L76.3974 165.115C90.113 171.753 104.439 174.407 119.767 174.762C119.767 174.762 102.756 178.867 81.7317 172.501C81.645 174.543 81.4807 175.238 81.9704 176.272C82.2198 176.747 82.5527 177.172 82.953 177.53C83.2629 177.783 88.3834 181.854 103.515 183.473C103.515 183.473 97.7781 186.677 87.249 184.786C87.6798 188.237 88.6035 192.064 92.9461 192.976C98.8848 194.211 100.028 191.74 107.058 189.237C114.088 186.735 128.665 186.705 128.665 186.705C128.665 186.705 143.249 186.757 150.275 189.247C157.302 191.737 158.449 194.23 164.388 192.985C164.928 192.87 165.45 192.679 165.938 192.419C167.354 193.575 171.291 196.593 174.88 197.603C178.755 198.691 184.377 197.912 184.377 197.912C184.377 197.912 181.938 193.26 182.136 190.863Z" fill="#03F5AE"/>
<path d="M72.3648 139.726C62.2013 143.936 50.1222 139.855 50.1222 139.855C50.1222 139.855 50.6275 140.986 50.9095 144.35C51.2195 147.995 47.5 155.075 47.5 155.075C47.5 155.075 56.0517 156.258 61.9471 154.603C68.7661 152.691 76.3818 146.024 76.3818 146.024L72.3648 139.726Z" fill="#03F5AE"/>
<path d="M102.707 69.3582L106.367 65.7161C101.997 59.5131 102.958 50.7832 102.958 50.7832C102.958 50.7832 102.26 51.296 100.035 51.9818C97.6108 52.7293 92.2672 51.3022 92.2672 51.3022C92.2672 51.3022 92.7478 57.2271 94.7468 60.9434C97.0531 65.2311 102.707 69.3582 102.707 69.3582Z" fill="#03F5AE"/>
<path fill-rule="evenodd" clip-rule="evenodd" d="M96.9473 129.658C96.9473 129.658 94.2323 136.145 99.5479 138.753C104.864 141.36 118.226 140.038 118.226 140.038C118.226 140.038 106.643 131.53 96.9473 129.658Z" fill="white"/>
<path fill-rule="evenodd" clip-rule="evenodd" d="M163.139 136.331C163.139 136.331 164.18 141.727 159.704 142.87C155.229 144.013 145.229 140.9 145.229 140.9C145.229 140.9 155.43 136.229 163.139 136.331Z" fill="white"/>
</g>
<defs>
<clipPath id="clip0_741_46">
<rect width="256" height="256" fill="white"/>
</clipPath>
</defs>
</svg>
