<svg width="256" height="256" viewBox="0 0 256 256" fill="none" xmlns="http://www.w3.org/2000/svg">
<path d="M1.26148 110.188C11.0988 40.1923 75.8164 -8.57578 145.812 1.26146C215.808 11.0987 264.577 75.8162 254.738 145.812C244.902 215.807 180.184 264.576 110.188 254.739C40.1924 244.901 -8.57585 180.184 1.26148 110.188Z" fill="url(#paint0_radial_3117_14)"/>
<path d="M117.175 76.7759H65.5019C61.3904 76.7759 57.4476 78.3952 54.5404 81.2781C51.6332 84.1606 50 88.0703 50 92.1472V163.88C50.0059 167.133 51.0527 170.301 52.9897 172.927C54.9268 175.553 57.6541 177.502 60.7792 178.493C63.9044 179.484 67.266 179.467 70.3803 178.442C73.4946 177.419 76.2013 175.442 78.1099 172.795L129.783 101.063C131.433 98.7649 132.413 96.0611 132.617 93.2478C132.821 90.4344 132.24 87.6199 130.938 85.1121C129.636 82.6039 127.663 80.5 125.236 79.0293C122.808 77.559 120.019 76.7793 117.175 76.7759ZM75.8366 112.642C73.7927 112.642 71.7945 112.041 70.0947 110.915C68.3953 109.789 67.0707 108.189 66.2886 106.316C65.5065 104.444 65.3015 102.383 65.7003 100.395C66.0991 98.4075 67.0835 96.5818 68.5286 95.1488C69.9742 93.7154 71.8154 92.7394 73.8202 92.3439C75.825 91.9485 77.903 92.1518 79.7915 92.9273C81.6796 93.7028 83.2938 95.0162 84.4293 96.7017C85.5648 98.3868 86.1709 100.368 86.1709 102.395C86.1709 105.112 85.0823 107.719 83.1442 109.641C81.206 111.563 78.5773 112.642 75.8366 112.642Z" fill="#0D0A03"/>
<path d="M155.941 173.403C163.013 173.403 168.747 167.93 168.747 161.179C168.747 154.428 163.013 148.955 155.941 148.955C148.868 148.955 143.135 154.428 143.135 161.179C143.135 167.93 148.868 173.403 155.941 173.403Z" fill="#0D0A03"/>
<path d="M205.999 92.1395V163.837C206.005 167.671 204.559 171.368 201.944 174.203C199.329 177.038 195.735 178.805 191.867 179.158C188 179.511 184.138 178.424 181.041 176.11C177.944 173.796 175.835 170.423 175.129 166.653C174.963 165.723 174.877 164.781 174.87 163.837V152.16C174.842 148.917 173.775 145.766 171.822 143.158C169.87 140.55 167.131 138.618 163.998 137.64C160.865 136.663 157.499 136.689 154.382 137.715C151.265 138.74 148.557 140.714 146.646 143.351L138.552 154.567L125.529 172.594C123.046 175.711 119.437 177.76 115.459 178.311C111.48 178.862 107.439 177.873 104.182 175.551C100.925 173.229 98.7036 169.754 97.983 165.853C97.2623 161.951 98.0978 157.926 100.315 154.618L152.197 82.9213C153.631 81.0339 155.486 79.4975 157.618 78.4321C159.751 77.3662 162.103 76.7997 164.493 76.7759H190.434C194.563 76.7759 198.521 78.3944 201.441 81.2759C204.359 84.157 205.999 88.0647 205.999 92.1395Z" fill="#FFFDFA"/>
<defs>
<radialGradient id="paint0_radial_3117_14" cx="0" cy="0" r="1" gradientUnits="userSpaceOnUse" gradientTransform="translate(128 128) scale(128)">
<stop offset="0.473958" stop-color="#FFC640"/>
<stop offset="1" stop-color="#F2AF13"/>
</radialGradient>
</defs>
</svg>
