<svg width="256" height="256" viewBox="0 0 256 256" fill="none" xmlns="http://www.w3.org/2000/svg">
<path d="M128 252.8C196.925 252.8 252.8 196.925 252.8 128C252.8 59.0749 196.925 3.20001 128 3.20001C59.0751 3.20001 3.2002 59.0749 3.2002 128C3.2002 196.925 59.0751 252.8 128 252.8Z" fill="#010232"/>
<path d="M161.08 196.297C159.834 196.298 158.628 195.86 157.672 195.061C156.717 194.261 156.073 193.151 155.855 191.924C155.636 190.698 155.856 189.434 156.476 188.353C157.097 187.273 158.077 186.446 159.247 186.016C168.457 182.624 176.635 176.91 182.988 169.428C189.34 161.946 193.652 152.95 195.506 143.311C195.791 141.95 196.599 140.755 197.757 139.983C198.915 139.212 200.33 138.927 201.696 139.189C203.063 139.452 204.271 140.24 205.061 141.385C205.851 142.53 206.16 143.94 205.92 145.31C203.723 156.741 198.611 167.409 191.08 176.285C183.549 185.159 173.854 191.939 162.934 195.968C162.341 196.189 161.713 196.301 161.08 196.297Z" fill="white"/>
<path d="M151.084 66.1304C119.319 60.6356 87.973 78.5625 76.535 108.759C70.5528 124.577 70.7292 142.066 77.0292 157.76C83.3293 173.455 95.2936 186.211 110.552 193.503C111.81 194.134 113.266 194.24 114.601 193.798C115.936 193.355 117.041 192.401 117.672 191.144C118.304 189.887 118.41 188.431 117.968 187.095C117.525 185.76 116.571 184.655 115.313 184.024L115.115 183.93C88.6635 171.321 76.0723 139.964 86.4654 112.49C96.0961 87.04 122.515 71.9289 149.277 76.5598C150.658 76.7881 152.073 76.4612 153.214 75.6504C154.355 74.8395 155.129 73.6106 155.367 72.2313C155.606 70.8521 155.29 69.4345 154.487 68.2876C153.685 67.1407 152.462 66.3575 151.084 66.1087V66.1304ZM153.326 72.5471C153.075 73.2108 152.634 73.7854 152.057 74.198C151.479 74.6107 150.793 74.843 150.084 74.8654C149.375 74.8878 148.675 74.6994 148.073 74.3241C147.471 73.9488 146.994 73.4033 146.702 72.7567C146.41 72.1101 146.316 71.3915 146.433 70.6917C146.55 69.992 146.871 69.3425 147.357 68.8255C147.843 68.3085 148.471 67.9472 149.162 67.7872C149.853 67.6273 150.576 67.676 151.24 67.9271C152.128 68.2627 152.846 68.9372 153.236 69.8023C153.627 70.6673 153.658 71.6521 153.322 72.5399L153.326 72.5471Z" fill="white"/>
<path d="M156.426 88.3412C145.401 84.1588 133.211 84.249 122.25 88.5942C120.942 89.112 119.893 90.1281 119.335 91.419C118.776 92.7098 118.753 94.1694 119.271 95.4773C119.789 96.7852 120.805 97.8336 122.095 98.3923C123.386 98.951 124.846 98.9738 126.154 98.4563C133.993 95.3575 142.658 95.0473 150.698 97.5774C158.739 100.108 165.665 105.324 170.317 112.354C174.968 119.383 177.062 127.797 176.248 136.187C175.434 144.577 171.761 152.431 165.844 158.435C159.927 164.438 152.127 168.226 143.751 169.163C135.374 170.1 126.93 168.129 119.833 163.58C112.737 159.032 107.419 152.183 104.772 144.181C102.124 136.178 102.308 127.509 105.291 119.626C105.439 119.235 105.595 118.841 105.758 118.451C106.279 117.157 106.27 115.71 105.732 114.423C105.194 113.136 104.171 112.112 102.884 111.575C101.596 111.037 100.149 111.028 98.8556 111.549C97.5616 112.071 96.5256 113.082 95.9719 114.362C95.7622 114.861 95.5635 115.367 95.3716 115.874C86.1283 140.297 98.4807 167.684 122.904 176.924C134.649 181.368 147.679 180.965 159.127 175.803C170.575 170.641 179.504 161.144 183.951 149.399C193.184 124.973 180.831 97.5848 156.426 88.3412ZM99.4858 119.944C98.8226 119.694 98.249 119.252 97.8367 118.676C97.4244 118.1 97.1923 117.414 97.1699 116.706C97.1476 115.998 97.3356 115.299 97.7102 114.697C98.0851 114.096 98.6299 113.619 99.2757 113.327C99.9211 113.036 100.639 112.942 101.338 113.058C102.037 113.174 102.686 113.495 103.203 113.98C103.719 114.465 104.08 115.092 104.24 115.783C104.401 116.473 104.352 117.195 104.102 117.858C103.766 118.746 103.091 119.465 102.225 119.855C101.36 120.246 100.375 120.278 99.4858 119.944Z" fill="#24C6EF"/>
<path d="M160.311 116.115C156.397 111.439 151.006 108.238 145.027 107.04C139.048 105.841 132.839 106.717 127.425 109.523C122.011 112.329 117.716 116.898 115.249 122.474C112.782 128.051 112.29 134.301 113.854 140.195C114.033 140.868 114.343 141.5 114.766 142.053C115.189 142.607 115.717 143.071 116.319 143.421C116.922 143.77 117.587 143.998 118.278 144.09C118.968 144.182 119.67 144.138 120.343 143.959C121.016 143.779 121.648 143.47 122.201 143.047C122.755 142.624 123.219 142.096 123.569 141.493C123.918 140.891 124.146 140.225 124.238 139.535C124.33 138.845 124.286 138.143 124.107 137.47C123.151 133.855 123.475 130.022 125.024 126.619C126.573 123.217 129.252 120.456 132.605 118.804C135.959 117.152 139.781 116.712 143.422 117.557C147.064 118.403 150.3 120.482 152.583 123.442C154.866 126.403 156.053 130.063 155.945 133.799C155.836 137.536 154.438 141.12 151.988 143.943C149.537 146.767 146.185 148.654 142.5 149.287C138.816 149.92 135.026 149.258 131.774 147.414C130.567 146.693 129.122 146.48 127.758 146.823C126.394 147.166 125.223 148.037 124.501 149.244C123.779 150.451 123.566 151.895 123.909 153.259C124.252 154.623 125.123 155.795 126.33 156.517C126.399 156.56 126.471 156.6 126.547 156.64C132.011 159.736 138.39 160.814 144.569 159.687C150.747 158.56 156.334 155.299 160.354 150.473C164.374 145.648 166.572 139.564 166.564 133.283C166.556 127.003 164.343 120.924 160.311 116.108V116.115ZM132.566 153.405C132.315 154.068 131.874 154.643 131.296 155.056C130.72 155.468 130.033 155.7 129.324 155.723C128.615 155.745 127.915 155.557 127.313 155.181C126.711 154.806 126.234 154.261 125.942 153.614C125.65 152.968 125.557 152.249 125.673 151.549C125.79 150.849 126.111 150.2 126.597 149.683C127.083 149.166 127.711 148.805 128.402 148.645C129.093 148.485 129.816 148.534 130.48 148.785C130.92 148.951 131.323 149.201 131.667 149.523C132.01 149.845 132.286 150.231 132.48 150.66C132.674 151.089 132.781 151.552 132.796 152.022C132.81 152.492 132.732 152.961 132.566 153.401V153.405Z" fill="white"/>
<path d="M198.169 64.8937C160.767 32.5789 104.235 36.7109 71.9204 74.1193C39.6056 111.528 43.7376 168.052 81.146 200.374C87.0587 205.481 93.6141 209.792 100.645 213.197C101.915 213.809 103.375 213.891 104.704 213.427C105.363 213.196 105.969 212.839 106.49 212.374C107.01 211.91 107.434 211.347 107.736 210.719C108.039 210.09 108.216 209.409 108.255 208.713C108.294 208.016 108.196 207.319 107.966 206.66C107.736 206.002 107.378 205.395 106.914 204.875C106.449 204.355 105.887 203.931 105.258 203.628C68.8332 186.055 51.5316 142.603 65.8689 104.72C81.3195 63.9502 126.898 43.4276 167.668 58.8819C176.282 62.146 184.258 66.8931 191.235 72.9083C192.306 73.7605 193.665 74.1656 195.028 74.0389C196.391 73.9121 197.652 73.2633 198.547 72.2281C199.443 71.193 199.904 69.8517 199.833 68.4847C199.762 67.1178 199.166 65.8311 198.169 64.8937ZM197.843 70.0958C197.593 70.7595 197.151 71.334 196.574 71.7467C195.997 72.1594 195.31 72.3916 194.601 72.414C193.892 72.4365 193.193 72.2481 192.59 71.8728C191.988 71.4974 191.511 70.9519 191.219 70.3054C190.928 69.6588 190.834 68.9402 190.951 68.2404C191.067 67.5406 191.388 66.8911 191.874 66.3741C192.36 65.8571 192.989 65.4958 193.679 65.3359C194.371 65.176 195.094 65.2247 195.757 65.4757C196.645 65.8114 197.363 66.4859 197.754 67.3509C198.144 68.216 198.175 69.2007 197.839 70.0885L197.843 70.0958Z" fill="#24C6EF"/>
</svg>
