<svg width="256" height="256" viewBox="0 0 256 256" fill="none" xmlns="http://www.w3.org/2000/svg">
<g clip-path="url(#clip0_2417_1498)">
<mask id="mask0_2417_1498" style="mask-type:luminance" maskUnits="userSpaceOnUse" x="0" y="0" width="256" height="256">
<path d="M256 0H0V256H256V0Z" fill="white"/>
</mask>
<g mask="url(#mask0_2417_1498)">
<path d="M128 255C198.14 255 255 198.14 255 128C255 57.8598 198.14 1 128 1C57.8598 1 1 57.8598 1 128C1 198.14 57.8598 255 128 255Z" fill="white"/>
<path d="M128.068 0C94.0907 0 61.504 13.4905 37.478 37.5037C13.4519 61.5168 -0.0458053 94.0859 -0.0458053 128.046C-0.0645333 143.53 2.74191 158.887 8.23584 173.365L12.3538 163.167H45.8008L37.1988 184.02C36.3257 186.103 34.8571 187.882 32.977 189.134C31.097 190.387 28.889 191.058 26.6294 191.062H18.0275C17.5252 191.107 17.0198 191.107 16.5175 191.062C27.6958 210.787 43.9128 227.191 63.5115 238.601C83.1099 250.009 105.388 256.014 128.068 256C150.738 255.993 173 249.974 192.581 238.557C212.163 227.141 228.363 210.736 239.528 191.017C239.055 191.042 238.582 191.042 238.109 191.017H229.37C227.111 191.012 224.903 190.342 223.022 189.089C221.142 187.836 219.674 186.057 218.801 183.974L210.153 163.075H243.783L247.673 173.365C253.171 158.873 255.977 143.499 255.954 128C255.942 94.0875 242.47 61.5648 218.495 37.5683C194.519 13.5715 161.999 0.0605557 128.068 0ZM88.0784 137.192L71.1493 95.0736L54.4027 137.192L48.9579 151.734H17.2954L54.4027 67.224C55.9115 63.7984 58.384 60.8848 61.52 58.8389C64.656 56.7925 68.3195 55.7019 72.064 55.6997C75.7925 55.6987 79.44 56.7835 82.5605 58.8224C85.6811 60.8608 88.1392 63.7648 89.6341 67.1781L127.062 151.734H93.9808L88.0784 137.192ZM147.835 183.974C146.985 186.093 145.519 187.91 143.628 189.19C141.736 190.469 139.504 191.154 137.22 191.154H117.911C115.651 191.149 113.443 190.479 111.563 189.226C109.683 187.973 108.214 186.194 107.341 184.111L98.7392 163.213H156.162L147.835 183.974ZM205.578 151.734L199.675 137.283L182.746 95.1653L165.999 137.283L160.738 151.734H128.709L165.862 67.224C167.367 63.7771 169.852 60.8469 173.008 58.7984C176.164 56.7499 179.852 55.6725 183.615 55.6997C187.351 55.6896 191.009 56.7707 194.138 58.8096C197.268 60.8491 199.733 63.7573 201.231 67.1781L238.521 151.734H205.578Z" fill="#05151E"/>
</g>
</g>
<defs>
<clipPath id="clip0_2417_1498">
<rect width="256" height="256" fill="white"/>
</clipPath>
</defs>
</svg>
