<svg width="256" height="256" viewBox="0 0 256 256" fill="none" xmlns="http://www.w3.org/2000/svg">
<path d="M128 256C198.692 256 256 198.692 256 128C256 57.3077 198.692 0 128 0C57.3077 0 0 57.3077 0 128C0 198.692 57.3077 256 128 256Z" fill="#6E54FF"/>
<path d="M128 44C104.32 44 46 103.741 46 128C46 152.258 104.32 212 128 212C151.679 212 210 152.257 210 128C210 103.742 151.68 44 128 44ZM115.221 176.033C105.236 173.246 78.389 125.139 81.1105 114.909C83.832 104.68 130.793 77.1789 140.778 79.9667C150.764 82.7541 177.611 130.861 174.89 141.09C172.168 151.32 125.207 178.821 115.221 176.033Z" fill="white"/>
</svg>
