<svg width="256" height="256" viewBox="0 0 256 256" fill="none" xmlns="http://www.w3.org/2000/svg">
<path d="M256 127.998C256 161.946 242.514 194.504 218.509 218.509C194.504 242.514 161.946 256 127.998 256C94.0514 255.999 61.495 242.513 37.491 218.509C13.487 194.505 0.00116778 161.95 0 128.002C-2.00871e-08 94.0551 13.4853 61.4975 37.4895 37.4926C61.4936 13.4876 94.0505 0.00116783 127.998 0C161.946 -2.00871e-08 194.503 13.4853 218.508 37.4895C242.512 61.4935 255.999 94.0505 256 127.998Z" fill="#06353D"/>
<path d="M210.906 179.079C210.934 174.614 227.984 174.805 227.868 170.62C227.8 168.132 223.271 167.613 222.32 164.346C222.161 163.743 222.109 163.048 222.213 162.237C222.28 161.754 222.404 161.235 222.604 160.663C226.099 150.495 228 139.592 228 128.238C228 73.1483 183.345 28.4941 128.26 28.4941C73.1737 28.4941 28.5195 73.1483 28.5195 128.234C28.5195 139.517 30.4006 150.36 33.8552 160.476C33.8752 160.572 33.9071 160.667 33.943 160.767C34.0429 161.031 34.1228 161.278 34.1986 161.522C35.4287 165.943 28.5395 167.704 28.5395 170.376C28.5395 174.602 43.3763 174.039 43.3763 178.955C43.3763 183.236 28.7032 184.566 28.7032 188.891C28.7032 194.862 61.1964 192.785 61.6038 197.921C61.9193 201.887 50.4333 202.127 50.3614 206.364C50.2495 213.129 94.704 210.913 94.704 215.414C94.704 218.82 74.4836 217.586 74.4836 221.612C74.4836 225.638 101.102 228.182 130.436 228.182C159.77 228.182 180.007 224.923 180.007 221.388C180.007 217.854 161.12 218.589 161.512 215.41C162.19 209.858 204.101 212.698 204.101 206.272C204.101 202.889 192.571 202.095 192.946 198.444C193.474 193.288 227.984 194.051 227.984 188.696C227.984 184.482 210.878 183.452 210.906 179.079ZM166.22 204.295C166.22 207.243 152.849 208.584 127.189 208.584C106.206 208.584 85.3626 207.267 85.3626 203.84C85.3626 200.413 110.224 200.106 127.313 200.134C150.073 200.174 166.22 201.228 166.22 204.291V204.295ZM128.26 54.5454C159.722 54.5454 186.572 74.2626 197.14 102.015C198.362 105.614 193.929 105.394 190.806 105.394H182.311C176.244 105.394 168.608 106.121 168.608 107.782C168.608 109.867 187.151 109.743 189.196 109.743C195.179 109.743 199.868 110.194 200.546 113.865C201.465 118.513 201.952 123.318 201.952 128.238C201.952 138.123 199.999 147.548 196.469 156.158C195.323 158.691 193.817 160 191.992 161.103C183.226 165.979 167.322 165.104 167.326 168.044C167.326 172.313 194.101 170.488 194.14 174.198C194.2 179.865 146.367 176.503 146.371 181.607C146.375 186.671 184.851 184.31 184.851 189.618C184.851 192.286 172.494 193.268 159.019 193.608C138.092 193.883 101.09 193.724 87.1478 193.244C87.1478 193.244 87.1558 193.252 87.1638 193.26C77.7306 192.921 69.6991 191.635 66.5481 190.277C65.6814 189.902 65.6415 188.847 66.4722 188.42C76.0053 183.516 134.19 187.422 134.19 181.723C134.19 176.023 76.7002 179.973 76.7441 175.025C76.7761 171.51 101.865 171.818 121.762 171.818C147.533 171.818 155.445 170.528 155.433 168.671C155.413 164.933 123.739 167.125 123.623 162.936C123.511 158.87 173.752 161.838 173.752 157.856C173.752 155.324 151.927 155.088 130.105 155.168C108.279 155.252 86.4569 155.288 86.4569 157.996C86.4569 161.059 112.289 159.869 112.289 162.936C112.289 165.356 98.0947 165.859 83.2699 165.859C73.4892 165.859 65.9011 165.116 62.1829 160.504C61.8754 160.124 61.5678 159.569 61.3202 159.07C57.003 149.685 54.5708 139.249 54.5708 128.238C54.5708 87.5418 87.5632 54.5494 128.26 54.5494V54.5454Z" fill="#87E722"/>
<path d="M126.754 149.461C158.492 149.461 189.396 149.921 189.404 146.374C189.412 142.081 145.085 142.584 122.057 142.584C103.794 142.584 71.0527 142.013 71.0527 146.091C71.0527 150.168 107.711 149.461 126.754 149.461Z" fill="#87E722"/>
<path d="M147.257 137.276C168.124 137.276 178.572 137.032 178.572 134.516C178.572 130.878 150.164 132.895 150.164 129.292C150.164 126.125 168.112 127.902 168.112 124.5C168.112 121.824 148.012 122.071 137.053 122.071C124.9 122.071 112.939 122.531 112.939 124.807C112.939 127.763 143.571 126.101 143.571 129.128C143.571 133.458 94.9707 130.331 94.9707 134.512C94.9707 138.47 126.561 137.272 147.257 137.272V137.276Z" fill="#87E722"/>
<path d="M167.73 117.934C172.199 117.934 185.311 117.655 185.311 115.861C185.311 114.068 175.598 113.489 165.502 113.501C158.565 113.509 144.423 113.621 144.423 115.65C144.423 117.679 155.158 117.938 167.73 117.934Z" fill="#87E722"/>
<path d="M175.29 124.556C175.29 126.254 182.786 126.953 188.541 126.953C191.864 126.953 198.202 126.262 198.202 124.916C198.202 123.286 191.696 122.787 187.739 122.735C182.611 122.667 175.294 123.095 175.294 124.556H175.29Z" fill="#87E722"/>
</svg>
