<svg width="256" height="256" viewBox="0 0 256 256" fill="none" xmlns="http://www.w3.org/2000/svg">
<g clip-path="url(#clip0_1329_451)">
<path d="M128 255C198.14 255 255 198.14 255 128C255 57.8598 198.14 1 128 1C57.8598 1 1 57.8598 1 128C1 198.14 57.8598 255 128 255Z" fill="black"/>
<path d="M128 0C57.3018 0 0 57.3018 0 128C0 198.698 57.3018 256 128 256C198.698 256 256 198.698 256 128C256 57.3018 198.657 0 128 0ZM206.05 173.866C197.105 180.074 187.14 182.116 177.46 180.932C167.78 179.747 158.387 175.377 150.586 168.842C149.81 168.189 149.238 168.066 148.87 168.311C148.503 168.556 148.258 169.169 148.176 169.986C147.972 171.824 147.89 174.234 147.849 176.725C147.849 179.216 147.849 181.708 147.768 183.668C147.645 189.713 147.768 195.839 147.768 201.925C147.768 208.01 147.849 214.137 147.604 220.14C147.563 221.243 146.951 222.713 146.052 223.98C145.154 225.246 144.01 226.308 142.907 226.553C141.764 226.798 139.803 226.961 137.843 226.92C135.883 226.92 133.922 226.757 132.779 226.43C131.308 226.022 130.246 225.123 129.511 223.898C128.776 222.673 128.368 221.08 128.123 219.324C127.837 217.2 127.673 211.564 127.837 203.436C128 195.308 128.49 184.73 129.511 172.6C129.92 167.821 129.715 164.105 133.718 159.694C137.72 155.283 146.134 147.645 150.055 144.214C151.035 143.643 153.731 147.318 153.894 147.523C169.373 163.574 186.405 163.533 196.534 156.385C206.662 149.238 209.889 135.025 197.8 122.772C189.59 115.625 181.422 114.808 173.539 117.095C165.698 119.423 158.142 124.855 151.239 130.246C146.951 133.595 142.091 138.415 137.312 143.52C132.534 148.625 127.796 153.976 123.752 158.387C118.565 164.023 113.828 169.414 108.477 173.539C103.127 177.623 97.1232 180.482 89.4448 180.973C77.2329 181.749 67.1449 178.236 60.0383 171.538C52.8909 164.84 48.6841 154.956 48.1123 142.989C47.7039 133.8 47.7039 124.243 47.9081 114.604C48.1532 104.965 48.5616 95.2853 49.0109 85.8915C49.0925 84.5437 49.1334 80.5003 49.2151 76.3752C49.2967 72.2502 49.3376 68.0026 49.4193 66.1646C49.5418 61.5903 50.1953 57.6286 52.605 55.1372C55.0147 52.6458 59.2214 51.5839 66.4914 52.8092C71.7601 53.7077 77.0696 62.3663 82.0523 71.9643C87.0351 81.5622 91.6503 92.1404 95.5303 96.8373C96.8781 98.9202 97.8175 99.6146 98.6752 99.3695C99.5329 99.1244 100.309 97.94 101.452 96.2655C105.332 90.5067 108.722 84.0536 112.071 77.5597C115.421 71.0657 118.77 64.6126 122.527 58.813C124.406 55.9541 126.407 54.3204 128.776 53.4627C131.145 52.605 133.881 52.4825 137.19 52.7275C142.826 52.85 145.44 55.0964 146.665 58.3638C147.89 61.6311 147.727 65.9604 147.809 70.3714C147.972 74.8641 147.931 79.3567 147.849 83.8494C147.768 88.3421 147.686 92.8347 147.686 97.3274C147.686 97.6541 147.727 99.1244 146.42 100.431C143.969 103.168 141.519 105.455 138.66 107.865C135.883 110.193 133.105 112.521 130.532 115.053C130.491 115.094 129.348 116.278 129.184 114.522C129.103 113.705 129.103 112.766 129.103 112.766V86.9943C129.266 84.7888 128.899 84.4212 128.49 84.6254C128.082 84.8296 127.673 85.5648 127.673 85.5648C109.417 116.278 103.78 131.798 98.1851 131.921C92.5897 132.043 87.0351 116.728 68.9011 85.769C68.9011 85.769 68.5743 85.1972 68.2885 85.0338C67.9617 84.8705 67.6758 85.0338 67.6758 86.545C67.6758 96.1838 67.2674 105.904 66.9407 115.625C66.6139 125.345 66.4097 135.066 66.859 144.705C67.4308 151.852 71.1883 156.794 76.2936 159.367C81.3989 161.94 87.9745 162.103 94.2234 159.653C101.085 156.957 108.273 150.463 115.012 143.153C121.792 135.883 128.163 127.796 133.432 122.078C151.117 102.882 171.579 97.1232 188.651 99.7779C205.723 102.433 219.569 113.501 224.02 127.877C226.144 134.78 226.716 142.744 224.225 150.749C221.733 158.754 216.138 166.841 206.009 173.907L206.05 173.866Z" fill="white"/>
</g>
<defs>
<clipPath id="clip0_1329_451">
<rect width="256" height="256" fill="white"/>
</clipPath>
</defs>
</svg>
