<svg width="256" height="256" viewBox="0 0 256 256" fill="none" xmlns="http://www.w3.org/2000/svg">
<path d="M225.038 128.378C225.038 74.9933 181.761 31.7168 128.378 31.7168C74.9933 31.7168 31.7168 74.9933 31.7168 128.378C31.7168 181.761 74.9933 225.038 128.378 225.038C181.761 225.038 225.038 181.761 225.038 128.378Z" fill="#353E60"/>
<path d="M128.037 253.485C197.022 253.485 253.073 197.434 253.073 128.449C253.073 59.4639 197.022 3.41333 128.037 3.41333C59.0517 3.41333 3.00098 59.4639 3.00098 128.449C3.00098 197.434 59.0517 253.485 128.037 253.485ZM128.037 194.56L61.0638 127.299L76.8729 111.203L128.037 161.792L178.914 111.203L195.01 127.299L128.037 194.56ZM128.037 143.108L86.3584 102.005L102.742 85.9082L128.037 111.49L153.332 85.9082L169.715 102.005L128.037 143.108ZM128.037 93.0942L111.94 76.1353L128.037 60.3262L144.134 76.1353L128.037 93.0942Z" fill="#8A92B2"/>
</svg>
