<svg width="256" height="256" viewBox="0 0 256 256" fill="none" xmlns="http://www.w3.org/2000/svg">
<g clip-path="url(#clip0_2417_1537)">
<path d="M256 127.998C256 161.946 242.514 194.504 218.509 218.509C194.504 242.514 161.946 256 127.998 256C94.0514 255.999 61.495 242.513 37.491 218.509C13.487 194.505 0.00116778 161.95 0 128.002C-2.00871e-08 94.0551 13.4853 61.4975 37.4895 37.4926C61.4936 13.4876 94.0505 0.00116783 127.998 0C161.946 -2.00871e-08 194.503 13.4853 218.508 37.4895C242.512 61.4935 255.999 94.0505 256 127.998Z" fill="black"/>
<path fill-rule="evenodd" clip-rule="evenodd" d="M119.888 212.498C123.291 218.501 131.94 218.501 135.343 212.498L142.093 200.593H113.139L119.888 212.498ZM108.002 191.532L97.7281 173.41H157.503L147.229 191.532H108.002ZM92.5915 164.349H162.64L172.914 146.228H82.3173L92.5915 164.349ZM77.1808 137.166L66.9067 119.045H188.325L178.051 137.166H77.1808ZM61.7698 109.984H193.462L205.603 88.5667H49.628L61.7698 109.984ZM44.4911 79.5058L38.1177 68.2638C34.7605 62.3422 39.038 55 45.8452 55H209.386C216.193 55 220.471 62.3422 217.114 68.2639L210.74 79.5058H44.4911Z" fill="url(#paint0_linear_2417_1537)"/>
<path fill-rule="evenodd" clip-rule="evenodd" d="M244.033 62.7725H11.9668H128H244.033ZM147.986 105.633C143.878 96.6386 138.326 89.0881 134.218 86.9784C131.886 85.8125 124.225 84.0359 113.287 82.2594C104.46 80.8159 54.7158 74.5978 50.8296 74.4868C49.164 74.4313 47.3874 74.3203 46.9433 74.2092C46.4991 74.0982 45.0001 74.2092 43.6122 74.4868C34.5627 76.0413 33.952 76.5965 34.3406 83.3142C34.5072 85.9791 34.8958 88.0888 35.2289 88.1998C35.562 88.3108 35.8396 88.866 35.8396 89.4767C35.8396 90.0319 36.1172 90.5316 36.3948 90.5316C36.7279 90.5316 36.95 90.9202 36.95 91.3644C36.95 91.8085 37.1721 92.1971 37.3942 92.1971C37.6717 92.1971 38.1714 93.0854 38.6156 94.1403C39.0597 95.1951 39.5594 96.0834 39.837 96.0834C40.059 96.0834 40.2811 96.472 40.2811 96.9162C40.2811 97.3603 40.5587 97.7489 40.8363 97.7489C41.1694 97.7489 41.3915 98.1376 41.3915 98.5817C41.3915 99.0259 41.6691 99.4145 41.9466 99.4145C42.2798 99.4145 42.5018 99.8031 42.5018 100.247C42.5018 100.691 42.6684 101.08 42.946 101.08C43.168 101.08 43.8343 102.024 44.445 103.134C45.0557 104.3 45.9995 105.633 46.4991 106.132C47.0543 106.632 47.4985 107.187 47.4985 107.298C47.4985 108.075 53.0503 113.294 54.9934 114.293C57.7138 115.737 63.7098 117.736 65.2643 117.736C67.0407 117.736 66.5412 118.457 63.5988 120.123C62.0998 120.956 60.5453 122.232 60.2121 122.843C59.4349 124.287 59.879 131.449 60.7673 132.337C61.1004 132.67 61.378 133.503 61.378 134.224C61.378 134.946 61.6556 135.501 61.9332 135.501C62.2663 135.501 62.4884 136.223 62.4884 137.167C62.4884 138.055 62.7105 138.832 62.9881 138.832C63.2656 138.832 63.6543 140.109 63.8763 141.608C64.0984 143.163 64.487 144.384 64.7646 144.384C65.0422 144.384 65.2643 144.995 65.2643 145.772C65.2643 146.549 65.4864 147.16 65.764 147.16C66.0416 147.16 66.4302 147.882 66.6523 148.826C66.8743 149.714 67.2628 150.491 67.5404 150.491C67.818 150.491 68.04 150.769 68.04 151.046C68.04 152.046 72.4815 155.932 74.9243 157.042C80.9758 159.929 96.1878 160.54 112.288 158.541C127.278 156.709 140.658 154.877 144.933 154.044C153.982 152.212 160.089 148.659 161.144 144.495C161.755 141.941 159.423 132.004 156.925 126.952C155.703 124.509 154.204 121.899 153.538 121.178C152.261 119.79 149.041 118.069 146.709 117.513L145.099 117.125L146.709 115.903C150.263 113.183 150.485 111.24 147.986 105.633ZM212.665 105.855C210.278 99.9142 208.335 97.0827 205.67 95.5837C202.838 93.9737 195.454 92.5302 179.687 90.5871C162.532 88.3664 160.311 88.4219 157.202 91.0312C155.093 92.7523 156.703 99.1369 161.866 109.685C164.253 114.626 166.085 116.681 169.25 118.013L171.359 118.901L169.972 120.567C168.084 122.788 168.139 125.064 170.083 133.614C172.081 142.108 173.469 144.717 177.133 146.549C179.743 147.937 180.298 147.993 188.515 147.937C198.397 147.937 211.499 146.161 215.83 144.273C217.329 143.663 219.161 142.33 219.938 141.386C221.326 139.776 221.381 139.443 221.104 135.224C220.604 127.285 217.773 120.567 214.22 118.79L212.443 117.902L213.664 116.681C215.385 114.96 215.108 111.851 212.665 105.855ZM84.2514 99.1924C82.8079 96.472 83.141 95.6948 85.9724 95.0841C91.8574 93.9182 111.677 95.9724 115.397 98.1376C117.118 99.1924 119.894 102.801 120.449 104.744C120.727 105.633 120.56 106.021 119.839 106.188C118.562 106.465 93.0233 105.244 91.9129 104.8C91.4687 104.633 90.4139 104.356 89.5811 104.189C87.638 103.745 85.6948 101.913 84.2514 99.1924ZM132.067 132.091C131.658 131.575 131.036 130.789 130.443 130.116C129.61 129.006 128.222 128.117 127 127.784C124.669 127.229 115.952 126.785 111.067 127.007C102.906 127.396 100.241 128.617 100.241 132.115C100.241 133.059 100.463 133.836 100.74 133.836C101.018 133.836 101.407 134.669 101.573 135.723C101.795 136.778 102.739 138.555 103.738 139.665C105.404 141.553 105.959 141.775 109.235 142.108C113.287 142.552 130.443 141.386 132.663 140.498C133.829 140.054 134.107 139.61 134.107 138.055C134.107 136.057 133.385 133.725 132.441 132.559C132.362 132.463 132.232 132.299 132.068 132.091L132.067 132.091ZM183.296 108.853C180.964 108.02 179.188 103.245 180.909 102.579C182.852 101.746 193.622 102.746 195.843 103.911C196.842 104.467 198.064 106.465 198.785 108.797L199.174 110.13L191.957 109.796C187.959 109.574 184.073 109.186 183.296 108.853ZM205.448 135.168C207.113 134.502 205.17 127.285 203.06 126.119C201.45 125.286 193.012 124.897 190.902 125.508C189.681 125.897 188.959 126.563 188.737 127.451C188.237 129.394 190.125 134.891 191.457 135.612C192.623 136.223 203.616 135.834 205.448 135.168Z" fill="white"/>
<g filter="url(#filter0_d_2417_1537)">
<path fill-rule="evenodd" clip-rule="evenodd" d="M121.154 180.859C98.6593 185.139 78.4352 192.356 66.7391 197.674C65.6226 198.182 64.306 197.689 63.7983 196.572C63.2907 195.456 63.7842 194.139 64.9008 193.631C76.8962 188.177 97.4579 180.847 120.323 176.496C143.152 172.152 168.535 170.727 190.03 177.325C191.202 177.685 191.861 178.927 191.501 180.1C191.141 181.272 189.899 181.931 188.727 181.571C168.235 175.28 143.684 176.572 121.154 180.859Z" fill="#8720D2"/>
</g>
<g filter="url(#filter1_d_2417_1537)">
<path d="M72.8084 174.262C71.9112 174.337 71.1245 174.022 70.4472 173.318C69.7704 172.615 69.384 171.696 69.2891 170.563C69.1903 169.383 69.5911 167.923 70.491 166.184C71.3915 164.444 72.5141 162.805 73.8588 161.266C76.7335 158.125 79.309 155.675 81.5864 153.915L83.0554 152.723C83.7832 152.328 84.5483 152.098 85.3505 152.031C86.2005 151.96 86.9794 152.18 87.6878 152.691C88.3923 153.155 88.7743 153.741 88.8337 154.449C88.8931 155.157 88.8282 155.804 88.64 156.391C88.4512 156.977 88.2291 157.447 87.9737 157.801C87.3092 158.951 86.9139 159.625 86.7884 159.826C86.6585 159.979 86.6013 160.151 86.6174 160.34C86.6291 160.481 86.7296 160.544 86.9183 160.529C87.1543 160.509 88.0887 159.741 89.7203 158.226C94.5576 153.542 98.1091 151.104 100.375 150.914C101.273 150.839 102.051 151.059 102.713 151.575C103.417 152.039 103.797 152.601 103.853 153.262C103.908 153.923 103.816 154.525 103.576 155.068C103.332 155.564 102.976 156.14 102.508 156.798C101.742 157.86 101.368 158.509 101.388 158.745C101.404 158.935 101.577 159.015 101.908 158.987C102.285 158.956 103.729 157.741 106.238 155.344C108.746 152.947 110.52 151.705 111.559 151.618C112.598 151.531 113.436 151.888 114.073 152.69C114.755 153.442 115.13 154.242 115.202 155.092C115.273 155.942 114.233 158.002 112.083 161.272C109.928 164.495 108.869 166.32 108.904 166.744C108.94 167.17 109.123 167.368 109.453 167.34C109.732 167.27 110.051 167.1 110.409 166.833C110.767 166.564 111.112 166.417 111.442 166.389C112.055 166.338 112.384 166.572 112.428 167.091C112.558 168.649 111.799 170.092 110.152 171.418C108.5 172.698 106.777 173.412 104.983 173.563C101.206 173.879 99.179 172.385 98.9025 169.08C98.847 168.419 98.9663 167.577 99.2612 166.554C99.6031 165.527 99.9684 164.783 100.358 164.323C100.476 164.028 100.531 163.833 100.523 163.739C100.511 163.597 100.41 163.534 100.222 163.55C100.08 163.561 99.8974 163.648 99.6731 163.81C99.4449 163.924 98.5011 164.859 96.8417 166.614C92.2997 171.416 89.108 173.895 87.267 174.048C86.2754 174.132 85.4904 173.841 84.9119 173.176C84.329 172.464 84.0042 171.707 83.937 170.904C83.8143 169.441 84.3878 167.776 85.6581 165.911C85.7797 165.663 85.833 165.445 85.8169 165.256C85.7974 165.02 85.693 164.91 85.5043 164.926C85.315 164.942 85.1107 165.054 84.8903 165.263C78.8188 171.096 74.7909 174.096 72.8084 174.262Z" fill="url(#paint1_linear_2417_1537)"/>
<path d="M101.639 193.168C101.449 190.903 102.311 187.574 104.225 183.182C106.092 178.794 108.421 174.249 111.212 169.546C117.227 159.629 122.492 151.534 127.005 145.261L130.007 141.087C130.66 140.367 131.341 139.977 132.049 139.917C132.757 139.858 133.298 140.074 133.672 140.566C134.046 141.057 134.25 141.516 134.286 141.941C134.318 142.318 134.108 143.215 133.656 144.632C133.252 146.044 132.746 147.679 132.141 149.537C131.533 151.347 131.189 152.35 131.11 152.547C131.075 152.693 131.065 152.86 131.081 153.049C131.096 153.237 131.246 153.32 131.529 153.296C131.86 153.268 132.572 152.686 133.665 151.549C137.039 148.128 139.647 146.34 141.488 146.186C144.84 145.906 146.658 147.465 146.943 150.863C146.854 152.63 145.981 154.985 144.326 157.929C142.671 160.873 140.501 163.622 137.815 166.176C135.172 168.68 132.646 170.032 130.239 170.234C129.2 170.321 128.282 170.137 127.483 169.681C126.684 169.224 126.074 168.753 125.652 168.265C125.231 167.778 124.95 167.539 124.808 167.551C124.714 167.559 124.582 167.689 124.413 167.941C124.291 168.189 120.345 176.126 112.574 191.753C110.526 195.681 108.368 197.739 106.103 197.929C104.922 198.028 103.909 197.566 103.062 196.543C102.22 195.568 101.746 194.443 101.639 193.168ZM138.493 151.286C137.312 151.385 134.964 153.436 131.449 157.439C127.981 161.438 126.286 163.91 126.365 164.853C126.373 164.948 126.471 164.987 126.66 164.972C128.454 164.821 131.005 162.92 134.312 159.267C137.615 155.567 139.209 153.033 139.094 151.664C139.071 151.381 138.87 151.255 138.493 151.286Z" fill="url(#paint2_linear_2417_1537)"/>
<path d="M177.733 162.475C176.188 163.888 174.284 165.284 172.023 166.662C169.808 168.036 167.898 168.79 166.293 168.925C164.735 169.055 163.445 168.688 162.421 167.823C161.398 166.958 160.829 165.841 160.714 164.472C160.524 162.205 161.898 159.024 164.835 154.927C165.095 154.62 165.218 154.396 165.207 154.254C165.191 154.065 165.136 153.975 165.041 153.983C164.947 153.99 164.603 154.138 164.009 154.426C163.458 154.662 161.944 155.882 159.466 158.086C156.984 160.244 154.586 162.537 152.269 164.965C149.949 167.346 148.246 168.583 147.161 168.674C146.122 168.76 145.306 168.377 144.711 167.524C144.164 166.666 143.843 165.671 143.748 164.538C143.455 161.044 145.724 155.506 150.557 147.922C155.435 140.335 160.616 133.506 166.097 127.437C171.575 121.321 175.14 118.193 176.793 118.055C177.595 117.988 178.38 118.278 179.148 118.927C179.958 119.525 180.413 120.414 180.512 121.594C180.607 122.727 179.404 125.395 176.904 129.598C174.404 133.801 171.591 138.244 168.465 142.928C164.533 148.772 162.587 151.93 162.627 152.402C162.643 152.591 162.745 152.677 162.934 152.662C163.123 152.646 163.894 152.201 165.247 151.327C166.596 150.405 168.069 149.546 169.666 148.746C171.259 147.899 172.358 147.403 172.964 147.257C173.613 147.06 174.362 146.926 175.212 146.855C176.109 146.78 176.998 146.896 177.88 147.202C178.809 147.504 179.304 148.033 179.368 148.789C179.427 149.497 177.9 151.978 174.786 156.233C171.715 160.436 170.203 162.82 170.251 163.387C170.294 163.906 170.552 164.146 171.024 164.107C172.015 164.024 173.864 162.823 176.57 160.504C177.592 159.658 178.194 159.18 178.375 159.07C178.556 158.959 178.764 158.894 179.001 158.874C179.661 158.819 180.02 159.122 180.075 159.783C180.107 160.161 179.326 161.058 177.733 162.475Z" fill="url(#paint3_linear_2417_1537)"/>
<mask id="mask0_2417_1537" style="mask-type:luminance" maskUnits="userSpaceOnUse" x="68" y="116" width="114" height="84">
<path d="M181.976 116.38H68.1641V199.102H181.976V116.38Z" fill="white"/>
<path d="M72.8084 174.262C71.9112 174.337 71.1245 174.022 70.4472 173.318C69.7704 172.615 69.384 171.696 69.2891 170.563C69.1903 169.383 69.5911 167.923 70.491 166.184C71.3915 164.444 72.5141 162.805 73.8588 161.266C76.7335 158.125 79.309 155.675 81.5864 153.915L83.0554 152.723C83.7832 152.328 84.5483 152.098 85.3505 152.031C86.2005 151.96 86.9794 152.18 87.6878 152.691C88.3923 153.155 88.7743 153.741 88.8337 154.449C88.8931 155.157 88.8282 155.804 88.64 156.391C88.4512 156.977 88.2291 157.447 87.9737 157.801C87.3092 158.951 86.9139 159.625 86.7884 159.826C86.6585 159.979 86.6013 160.151 86.6174 160.34C86.6291 160.481 86.7296 160.544 86.9183 160.529C87.1543 160.509 88.0887 159.741 89.7203 158.226C94.5576 153.542 98.1091 151.104 100.375 150.914C101.273 150.839 102.051 151.059 102.713 151.575C103.417 152.039 103.797 152.601 103.853 153.262C103.908 153.923 103.816 154.525 103.576 155.068C103.332 155.564 102.976 156.14 102.508 156.798C101.742 157.86 101.368 158.509 101.388 158.745C101.404 158.935 101.577 159.015 101.908 158.987C102.285 158.956 103.729 157.741 106.238 155.344C108.746 152.947 110.52 151.705 111.559 151.618C112.598 151.531 113.436 151.888 114.073 152.69C114.755 153.442 115.13 154.242 115.202 155.092C115.273 155.942 114.233 158.002 112.083 161.272C109.928 164.495 108.869 166.32 108.904 166.744C108.94 167.17 109.123 167.368 109.453 167.34C109.732 167.27 110.051 167.1 110.409 166.833C110.767 166.564 111.112 166.417 111.442 166.389C112.055 166.338 112.384 166.572 112.428 167.091C112.558 168.649 111.799 170.092 110.152 171.418C108.5 172.698 106.777 173.412 104.983 173.563C101.206 173.879 99.179 172.385 98.9025 169.08C98.847 168.419 98.9663 167.577 99.2612 166.554C99.6031 165.527 99.9684 164.783 100.358 164.323C100.476 164.028 100.531 163.833 100.523 163.739C100.511 163.597 100.41 163.534 100.222 163.55C100.08 163.561 99.8974 163.648 99.6731 163.81C99.4449 163.924 98.5011 164.859 96.8417 166.614C92.2997 171.416 89.108 173.895 87.267 174.048C86.2754 174.132 85.4904 173.841 84.9119 173.176C84.329 172.464 84.0042 171.707 83.937 170.904C83.8143 169.441 84.3878 167.776 85.6581 165.911C85.7797 165.663 85.833 165.445 85.8169 165.256C85.7974 165.02 85.693 164.91 85.5043 164.926C85.315 164.942 85.1107 165.054 84.8903 165.263C78.8188 171.096 74.7909 174.096 72.8084 174.262Z" fill="black"/>
<path d="M101.639 193.168C101.449 190.903 102.311 187.574 104.225 183.182C106.092 178.794 108.421 174.249 111.212 169.546C117.227 159.629 122.492 151.534 127.005 145.261L130.007 141.087C130.66 140.367 131.341 139.977 132.049 139.917C132.757 139.858 133.298 140.074 133.672 140.566C134.046 141.057 134.25 141.516 134.286 141.941C134.318 142.318 134.108 143.215 133.656 144.632C133.252 146.044 132.746 147.679 132.141 149.537C131.533 151.347 131.189 152.35 131.11 152.547C131.075 152.693 131.065 152.86 131.081 153.049C131.096 153.237 131.246 153.32 131.529 153.296C131.86 153.268 132.572 152.686 133.665 151.549C137.039 148.128 139.647 146.34 141.488 146.186C144.84 145.906 146.658 147.465 146.943 150.863C146.854 152.63 145.981 154.985 144.326 157.929C142.671 160.873 140.501 163.622 137.815 166.176C135.172 168.68 132.646 170.032 130.239 170.234C129.2 170.321 128.282 170.137 127.483 169.681C126.684 169.224 126.074 168.753 125.652 168.265C125.231 167.778 124.95 167.539 124.808 167.551C124.714 167.559 124.582 167.689 124.413 167.941C124.291 168.189 120.345 176.126 112.574 191.753C110.526 195.681 108.368 197.739 106.103 197.929C104.922 198.028 103.909 197.566 103.062 196.543C102.22 195.568 101.746 194.443 101.639 193.168ZM138.493 151.286C137.312 151.385 134.964 153.436 131.449 157.439C127.981 161.438 126.286 163.91 126.365 164.853C126.373 164.948 126.471 164.987 126.66 164.972C128.454 164.821 131.005 162.92 134.312 159.267C137.615 155.567 139.209 153.033 139.094 151.664C139.071 151.381 138.87 151.255 138.493 151.286Z" fill="black"/>
<path d="M177.733 162.475C176.188 163.888 174.284 165.284 172.023 166.662C169.808 168.036 167.898 168.79 166.293 168.925C164.735 169.055 163.445 168.688 162.421 167.823C161.398 166.958 160.829 165.841 160.714 164.472C160.524 162.205 161.898 159.024 164.835 154.927C165.095 154.62 165.218 154.396 165.207 154.254C165.191 154.065 165.136 153.975 165.041 153.983C164.947 153.99 164.603 154.138 164.009 154.426C163.458 154.662 161.944 155.882 159.466 158.086C156.984 160.244 154.586 162.537 152.269 164.965C149.949 167.346 148.246 168.583 147.161 168.674C146.122 168.76 145.306 168.377 144.711 167.524C144.164 166.666 143.843 165.671 143.748 164.538C143.455 161.044 145.724 155.506 150.557 147.922C155.435 140.335 160.616 133.506 166.097 127.437C171.575 121.321 175.14 118.193 176.793 118.055C177.595 117.988 178.38 118.278 179.148 118.927C179.958 119.525 180.413 120.414 180.512 121.594C180.607 122.727 179.404 125.395 176.904 129.598C174.404 133.801 171.591 138.244 168.465 142.928C164.533 148.772 162.587 151.93 162.627 152.402C162.643 152.591 162.745 152.677 162.934 152.662C163.123 152.646 163.894 152.201 165.247 151.327C166.596 150.405 168.069 149.546 169.666 148.746C171.259 147.899 172.358 147.403 172.964 147.257C173.613 147.06 174.362 146.926 175.212 146.855C176.109 146.78 176.998 146.896 177.88 147.202C178.809 147.504 179.304 148.033 179.368 148.789C179.427 149.497 177.9 151.978 174.786 156.233C171.715 160.436 170.203 162.82 170.251 163.387C170.294 163.906 170.552 164.146 171.024 164.107C172.015 164.024 173.864 162.823 176.57 160.504C177.592 159.658 178.194 159.18 178.375 159.07C178.556 158.959 178.764 158.894 179.001 158.874C179.661 158.819 180.02 159.122 180.075 159.783C180.107 160.161 179.326 161.058 177.733 162.475Z" fill="black"/>
</mask>
<g mask="url(#mask0_2417_1537)">
<path d="M72.8084 174.262C71.9112 174.337 71.1245 174.022 70.4472 173.318C69.7704 172.615 69.384 171.696 69.2891 170.563C69.1903 169.383 69.5911 167.923 70.491 166.184C71.3915 164.444 72.5141 162.805 73.8588 161.266C76.7335 158.125 79.309 155.675 81.5864 153.915L83.0554 152.723C83.7832 152.328 84.5483 152.098 85.3505 152.031C86.2005 151.96 86.9794 152.18 87.6878 152.691C88.3923 153.155 88.7743 153.741 88.8337 154.449C88.8931 155.157 88.8282 155.804 88.64 156.391C88.4512 156.977 88.2291 157.447 87.9737 157.801C87.3092 158.951 86.9139 159.625 86.7884 159.826C86.6585 159.979 86.6013 160.151 86.6174 160.34C86.6291 160.481 86.7296 160.544 86.9183 160.529C87.1543 160.509 88.0887 159.741 89.7203 158.226C94.5576 153.542 98.1091 151.104 100.375 150.914C101.273 150.839 102.051 151.059 102.713 151.575C103.417 152.039 103.797 152.601 103.853 153.262C103.908 153.923 103.816 154.525 103.576 155.068C103.332 155.564 102.976 156.14 102.508 156.798C101.742 157.86 101.368 158.509 101.388 158.745C101.404 158.935 101.577 159.015 101.908 158.987C102.285 158.956 103.729 157.741 106.238 155.344C108.746 152.947 110.52 151.705 111.559 151.618C112.598 151.531 113.436 151.888 114.073 152.69C114.755 153.442 115.13 154.242 115.202 155.092C115.273 155.942 114.233 158.002 112.083 161.272C109.928 164.495 108.869 166.32 108.904 166.744C108.94 167.17 109.123 167.368 109.453 167.34C109.732 167.27 110.051 167.1 110.409 166.833C110.767 166.564 111.112 166.417 111.442 166.389C112.055 166.338 112.384 166.572 112.428 167.091C112.558 168.649 111.799 170.092 110.152 171.418C108.5 172.698 106.777 173.412 104.983 173.563C101.206 173.879 99.179 172.385 98.9025 169.08C98.847 168.419 98.9663 167.577 99.2612 166.554C99.6031 165.527 99.9684 164.783 100.358 164.323C100.476 164.028 100.531 163.833 100.523 163.739C100.511 163.597 100.41 163.534 100.222 163.55C100.08 163.561 99.8974 163.648 99.6731 163.81C99.4449 163.924 98.5011 164.859 96.8417 166.614C92.2997 171.416 89.108 173.895 87.267 174.048C86.2754 174.132 85.4904 173.841 84.9119 173.176C84.329 172.464 84.0042 171.707 83.937 170.904C83.8143 169.441 84.3878 167.776 85.6581 165.911C85.7797 165.663 85.833 165.445 85.8169 165.256C85.7974 165.02 85.693 164.91 85.5043 164.926C85.315 164.942 85.1107 165.054 84.8903 165.263C78.8188 171.096 74.7909 174.096 72.8084 174.262Z" stroke="url(#paint4_linear_2417_1537)" stroke-width="4"/>
</g>
<mask id="mask1_2417_1537" style="mask-type:luminance" maskUnits="userSpaceOnUse" x="68" y="116" width="114" height="84">
<path d="M181.976 116.38H68.1641V199.102H181.976V116.38Z" fill="white"/>
<path d="M72.8084 174.262C71.9112 174.337 71.1245 174.022 70.4472 173.318C69.7704 172.615 69.384 171.696 69.2891 170.563C69.1903 169.383 69.5911 167.923 70.491 166.184C71.3915 164.444 72.5141 162.805 73.8588 161.266C76.7335 158.125 79.309 155.675 81.5864 153.915L83.0554 152.723C83.7832 152.328 84.5483 152.098 85.3505 152.031C86.2005 151.96 86.9794 152.18 87.6878 152.691C88.3923 153.155 88.7743 153.741 88.8337 154.449C88.8931 155.157 88.8282 155.804 88.64 156.391C88.4512 156.977 88.2291 157.447 87.9737 157.801C87.3092 158.951 86.9139 159.625 86.7884 159.826C86.6585 159.979 86.6013 160.151 86.6174 160.34C86.6291 160.481 86.7296 160.544 86.9183 160.529C87.1543 160.509 88.0887 159.741 89.7203 158.226C94.5576 153.542 98.1091 151.104 100.375 150.914C101.273 150.839 102.051 151.059 102.713 151.575C103.417 152.039 103.797 152.601 103.853 153.262C103.908 153.923 103.816 154.525 103.576 155.068C103.332 155.564 102.976 156.14 102.508 156.798C101.742 157.86 101.368 158.509 101.388 158.745C101.404 158.935 101.577 159.015 101.908 158.987C102.285 158.956 103.729 157.741 106.238 155.344C108.746 152.947 110.52 151.705 111.559 151.618C112.598 151.531 113.436 151.888 114.073 152.69C114.755 153.442 115.13 154.242 115.202 155.092C115.273 155.942 114.233 158.002 112.083 161.272C109.928 164.495 108.869 166.32 108.904 166.744C108.94 167.17 109.123 167.368 109.453 167.34C109.732 167.27 110.051 167.1 110.409 166.833C110.767 166.564 111.112 166.417 111.442 166.389C112.055 166.338 112.384 166.572 112.428 167.091C112.558 168.649 111.799 170.092 110.152 171.418C108.5 172.698 106.777 173.412 104.983 173.563C101.206 173.879 99.179 172.385 98.9025 169.08C98.847 168.419 98.9663 167.577 99.2612 166.554C99.6031 165.527 99.9684 164.783 100.358 164.323C100.476 164.028 100.531 163.833 100.523 163.739C100.511 163.597 100.41 163.534 100.222 163.55C100.08 163.561 99.8974 163.648 99.6731 163.81C99.4449 163.924 98.5011 164.859 96.8417 166.614C92.2997 171.416 89.108 173.895 87.267 174.048C86.2754 174.132 85.4904 173.841 84.9119 173.176C84.329 172.464 84.0042 171.707 83.937 170.904C83.8143 169.441 84.3878 167.776 85.6581 165.911C85.7797 165.663 85.833 165.445 85.8169 165.256C85.7974 165.02 85.693 164.91 85.5043 164.926C85.315 164.942 85.1107 165.054 84.8903 165.263C78.8188 171.096 74.7909 174.096 72.8084 174.262Z" fill="black"/>
<path d="M101.639 193.168C101.449 190.903 102.311 187.574 104.225 183.182C106.092 178.794 108.421 174.249 111.212 169.546C117.227 159.629 122.492 151.534 127.005 145.261L130.007 141.087C130.66 140.367 131.341 139.977 132.049 139.917C132.757 139.858 133.298 140.074 133.672 140.566C134.046 141.057 134.25 141.516 134.286 141.941C134.318 142.318 134.108 143.215 133.656 144.632C133.252 146.044 132.746 147.679 132.141 149.537C131.533 151.347 131.189 152.35 131.11 152.547C131.075 152.693 131.065 152.86 131.081 153.049C131.096 153.237 131.246 153.32 131.529 153.296C131.86 153.268 132.572 152.686 133.665 151.549C137.039 148.128 139.647 146.34 141.488 146.186C144.84 145.906 146.658 147.465 146.943 150.863C146.854 152.63 145.981 154.985 144.326 157.929C142.671 160.873 140.501 163.622 137.815 166.176C135.172 168.68 132.646 170.032 130.239 170.234C129.2 170.321 128.282 170.137 127.483 169.681C126.684 169.224 126.074 168.753 125.652 168.265C125.231 167.778 124.95 167.539 124.808 167.551C124.714 167.559 124.582 167.689 124.413 167.941C124.291 168.189 120.345 176.126 112.574 191.753C110.526 195.681 108.368 197.739 106.103 197.929C104.922 198.028 103.909 197.566 103.062 196.543C102.22 195.568 101.746 194.443 101.639 193.168ZM138.493 151.286C137.312 151.385 134.964 153.436 131.449 157.439C127.981 161.438 126.286 163.91 126.365 164.853C126.373 164.948 126.471 164.987 126.66 164.972C128.454 164.821 131.005 162.92 134.312 159.267C137.615 155.567 139.209 153.033 139.094 151.664C139.071 151.381 138.87 151.255 138.493 151.286Z" fill="black"/>
<path d="M177.733 162.475C176.188 163.888 174.284 165.284 172.023 166.662C169.808 168.036 167.898 168.79 166.293 168.925C164.735 169.055 163.445 168.688 162.421 167.823C161.398 166.958 160.829 165.841 160.714 164.472C160.524 162.205 161.898 159.024 164.835 154.927C165.095 154.62 165.218 154.396 165.207 154.254C165.191 154.065 165.136 153.975 165.041 153.983C164.947 153.99 164.603 154.138 164.009 154.426C163.458 154.662 161.944 155.882 159.466 158.086C156.984 160.244 154.586 162.537 152.269 164.965C149.949 167.346 148.246 168.583 147.161 168.674C146.122 168.76 145.306 168.377 144.711 167.524C144.164 166.666 143.843 165.671 143.748 164.538C143.455 161.044 145.724 155.506 150.557 147.922C155.435 140.335 160.616 133.506 166.097 127.437C171.575 121.321 175.14 118.193 176.793 118.055C177.595 117.988 178.38 118.278 179.148 118.927C179.958 119.525 180.413 120.414 180.512 121.594C180.607 122.727 179.404 125.395 176.904 129.598C174.404 133.801 171.591 138.244 168.465 142.928C164.533 148.772 162.587 151.93 162.627 152.402C162.643 152.591 162.745 152.677 162.934 152.662C163.123 152.646 163.894 152.201 165.247 151.327C166.596 150.405 168.069 149.546 169.666 148.746C171.259 147.899 172.358 147.403 172.964 147.257C173.613 147.06 174.362 146.926 175.212 146.855C176.109 146.78 176.998 146.896 177.88 147.202C178.809 147.504 179.304 148.033 179.368 148.789C179.427 149.497 177.9 151.978 174.786 156.233C171.715 160.436 170.203 162.82 170.251 163.387C170.294 163.906 170.552 164.146 171.024 164.107C172.015 164.024 173.864 162.823 176.57 160.504C177.592 159.658 178.194 159.18 178.375 159.07C178.556 158.959 178.764 158.894 179.001 158.874C179.661 158.819 180.02 159.122 180.075 159.783C180.107 160.161 179.326 161.058 177.733 162.475Z" fill="black"/>
</mask>
<g mask="url(#mask1_2417_1537)">
<path d="M101.639 193.168C101.449 190.903 102.311 187.574 104.225 183.182C106.092 178.794 108.421 174.249 111.212 169.546C117.227 159.629 122.492 151.534 127.005 145.261L130.007 141.087C130.66 140.367 131.341 139.977 132.049 139.917C132.757 139.858 133.298 140.074 133.672 140.566C134.046 141.057 134.25 141.516 134.286 141.941C134.318 142.318 134.108 143.215 133.656 144.632C133.252 146.044 132.746 147.679 132.141 149.537C131.533 151.347 131.189 152.35 131.11 152.547C131.075 152.693 131.065 152.86 131.081 153.049C131.096 153.237 131.246 153.32 131.529 153.296C131.86 153.268 132.572 152.686 133.665 151.549C137.039 148.128 139.647 146.34 141.488 146.186C144.84 145.906 146.658 147.465 146.943 150.863C146.854 152.63 145.981 154.985 144.326 157.929C142.671 160.873 140.501 163.622 137.815 166.176C135.172 168.68 132.646 170.032 130.239 170.234C129.2 170.321 128.282 170.137 127.483 169.681C126.684 169.224 126.074 168.753 125.652 168.265C125.231 167.778 124.95 167.539 124.808 167.551C124.714 167.559 124.582 167.689 124.413 167.941C124.291 168.189 120.345 176.126 112.574 191.753C110.526 195.681 108.368 197.739 106.103 197.929C104.922 198.028 103.909 197.566 103.062 196.543C102.22 195.568 101.746 194.443 101.639 193.168ZM138.493 151.286C137.312 151.385 134.964 153.436 131.449 157.439C127.981 161.438 126.286 163.91 126.365 164.853C126.373 164.948 126.471 164.987 126.66 164.972C128.454 164.821 131.005 162.92 134.312 159.267C137.615 155.567 139.209 153.033 139.094 151.664C139.071 151.381 138.87 151.255 138.493 151.286Z" stroke="url(#paint5_linear_2417_1537)" stroke-width="4"/>
</g>
<mask id="mask2_2417_1537" style="mask-type:luminance" maskUnits="userSpaceOnUse" x="68" y="116" width="114" height="84">
<path d="M181.976 116.38H68.1641V199.102H181.976V116.38Z" fill="white"/>
<path d="M72.8084 174.262C71.9112 174.337 71.1245 174.022 70.4472 173.318C69.7704 172.615 69.384 171.696 69.2891 170.563C69.1903 169.383 69.5911 167.923 70.491 166.184C71.3915 164.444 72.5141 162.805 73.8588 161.266C76.7335 158.125 79.309 155.675 81.5864 153.915L83.0554 152.723C83.7832 152.328 84.5483 152.098 85.3505 152.031C86.2005 151.96 86.9794 152.18 87.6878 152.691C88.3923 153.155 88.7743 153.741 88.8337 154.449C88.8931 155.157 88.8282 155.804 88.64 156.391C88.4512 156.977 88.2291 157.447 87.9737 157.801C87.3092 158.951 86.9139 159.625 86.7884 159.826C86.6585 159.979 86.6013 160.151 86.6174 160.34C86.6291 160.481 86.7296 160.544 86.9183 160.529C87.1543 160.509 88.0887 159.741 89.7203 158.226C94.5576 153.542 98.1091 151.104 100.375 150.914C101.273 150.839 102.051 151.059 102.713 151.575C103.417 152.039 103.797 152.601 103.853 153.262C103.908 153.923 103.816 154.525 103.576 155.068C103.332 155.564 102.976 156.14 102.508 156.798C101.742 157.86 101.368 158.509 101.388 158.745C101.404 158.935 101.577 159.015 101.908 158.987C102.285 158.956 103.729 157.741 106.238 155.344C108.746 152.947 110.52 151.705 111.559 151.618C112.598 151.531 113.436 151.888 114.073 152.69C114.755 153.442 115.13 154.242 115.202 155.092C115.273 155.942 114.233 158.002 112.083 161.272C109.928 164.495 108.869 166.32 108.904 166.744C108.94 167.17 109.123 167.368 109.453 167.34C109.732 167.27 110.051 167.1 110.409 166.833C110.767 166.564 111.112 166.417 111.442 166.389C112.055 166.338 112.384 166.572 112.428 167.091C112.558 168.649 111.799 170.092 110.152 171.418C108.5 172.698 106.777 173.412 104.983 173.563C101.206 173.879 99.179 172.385 98.9025 169.08C98.847 168.419 98.9663 167.577 99.2612 166.554C99.6031 165.527 99.9684 164.783 100.358 164.323C100.476 164.028 100.531 163.833 100.523 163.739C100.511 163.597 100.41 163.534 100.222 163.55C100.08 163.561 99.8974 163.648 99.6731 163.81C99.4449 163.924 98.5011 164.859 96.8417 166.614C92.2997 171.416 89.108 173.895 87.267 174.048C86.2754 174.132 85.4904 173.841 84.9119 173.176C84.329 172.464 84.0042 171.707 83.937 170.904C83.8143 169.441 84.3878 167.776 85.6581 165.911C85.7797 165.663 85.833 165.445 85.8169 165.256C85.7974 165.02 85.693 164.91 85.5043 164.926C85.315 164.942 85.1107 165.054 84.8903 165.263C78.8188 171.096 74.7909 174.096 72.8084 174.262Z" fill="black"/>
<path d="M101.639 193.168C101.449 190.903 102.311 187.574 104.225 183.182C106.092 178.794 108.421 174.249 111.212 169.546C117.227 159.629 122.492 151.534 127.005 145.261L130.007 141.087C130.66 140.367 131.341 139.977 132.049 139.917C132.757 139.858 133.298 140.074 133.672 140.566C134.046 141.057 134.25 141.516 134.286 141.941C134.318 142.318 134.108 143.215 133.656 144.632C133.252 146.044 132.746 147.679 132.141 149.537C131.533 151.347 131.189 152.35 131.11 152.547C131.075 152.693 131.065 152.86 131.081 153.049C131.096 153.237 131.246 153.32 131.529 153.296C131.86 153.268 132.572 152.686 133.665 151.549C137.039 148.128 139.647 146.34 141.488 146.186C144.84 145.906 146.658 147.465 146.943 150.863C146.854 152.63 145.981 154.985 144.326 157.929C142.671 160.873 140.501 163.622 137.815 166.176C135.172 168.68 132.646 170.032 130.239 170.234C129.2 170.321 128.282 170.137 127.483 169.681C126.684 169.224 126.074 168.753 125.652 168.265C125.231 167.778 124.95 167.539 124.808 167.551C124.714 167.559 124.582 167.689 124.413 167.941C124.291 168.189 120.345 176.126 112.574 191.753C110.526 195.681 108.368 197.739 106.103 197.929C104.922 198.028 103.909 197.566 103.062 196.543C102.22 195.568 101.746 194.443 101.639 193.168ZM138.493 151.286C137.312 151.385 134.964 153.436 131.449 157.439C127.981 161.438 126.286 163.91 126.365 164.853C126.373 164.948 126.471 164.987 126.66 164.972C128.454 164.821 131.005 162.92 134.312 159.267C137.615 155.567 139.209 153.033 139.094 151.664C139.071 151.381 138.87 151.255 138.493 151.286Z" fill="black"/>
<path d="M177.733 162.475C176.188 163.888 174.284 165.284 172.023 166.662C169.808 168.036 167.898 168.79 166.293 168.925C164.735 169.055 163.445 168.688 162.421 167.823C161.398 166.958 160.829 165.841 160.714 164.472C160.524 162.205 161.898 159.024 164.835 154.927C165.095 154.62 165.218 154.396 165.207 154.254C165.191 154.065 165.136 153.975 165.041 153.983C164.947 153.99 164.603 154.138 164.009 154.426C163.458 154.662 161.944 155.882 159.466 158.086C156.984 160.244 154.586 162.537 152.269 164.965C149.949 167.346 148.246 168.583 147.161 168.674C146.122 168.76 145.306 168.377 144.711 167.524C144.164 166.666 143.843 165.671 143.748 164.538C143.455 161.044 145.724 155.506 150.557 147.922C155.435 140.335 160.616 133.506 166.097 127.437C171.575 121.321 175.14 118.193 176.793 118.055C177.595 117.988 178.38 118.278 179.148 118.927C179.958 119.525 180.413 120.414 180.512 121.594C180.607 122.727 179.404 125.395 176.904 129.598C174.404 133.801 171.591 138.244 168.465 142.928C164.533 148.772 162.587 151.93 162.627 152.402C162.643 152.591 162.745 152.677 162.934 152.662C163.123 152.646 163.894 152.201 165.247 151.327C166.596 150.405 168.069 149.546 169.666 148.746C171.259 147.899 172.358 147.403 172.964 147.257C173.613 147.06 174.362 146.926 175.212 146.855C176.109 146.78 176.998 146.896 177.88 147.202C178.809 147.504 179.304 148.033 179.368 148.789C179.427 149.497 177.9 151.978 174.786 156.233C171.715 160.436 170.203 162.82 170.251 163.387C170.294 163.906 170.552 164.146 171.024 164.107C172.015 164.024 173.864 162.823 176.57 160.504C177.592 159.658 178.194 159.18 178.375 159.07C178.556 158.959 178.764 158.894 179.001 158.874C179.661 158.819 180.02 159.122 180.075 159.783C180.107 160.161 179.326 161.058 177.733 162.475Z" fill="black"/>
</mask>
<g mask="url(#mask2_2417_1537)">
<path d="M177.733 162.475C176.188 163.888 174.284 165.284 172.023 166.662C169.808 168.036 167.898 168.79 166.293 168.925C164.735 169.055 163.445 168.688 162.421 167.823C161.398 166.958 160.829 165.841 160.714 164.472C160.524 162.205 161.898 159.024 164.835 154.927C165.095 154.62 165.218 154.396 165.207 154.254C165.191 154.065 165.136 153.975 165.041 153.983C164.947 153.99 164.603 154.138 164.009 154.426C163.458 154.662 161.944 155.882 159.466 158.086C156.984 160.244 154.586 162.537 152.269 164.965C149.949 167.346 148.246 168.583 147.161 168.674C146.122 168.76 145.306 168.377 144.711 167.524C144.164 166.666 143.843 165.671 143.748 164.538C143.455 161.044 145.724 155.506 150.557 147.922C155.435 140.335 160.616 133.506 166.097 127.437C171.575 121.321 175.14 118.193 176.793 118.055C177.595 117.988 178.38 118.278 179.148 118.927C179.958 119.525 180.413 120.414 180.512 121.594C180.607 122.727 179.404 125.395 176.904 129.598C174.404 133.801 171.591 138.244 168.465 142.928C164.533 148.772 162.587 151.93 162.627 152.402C162.643 152.591 162.745 152.677 162.934 152.662C163.123 152.646 163.894 152.201 165.247 151.327C166.596 150.405 168.069 149.546 169.666 148.746C171.259 147.899 172.358 147.403 172.964 147.257C173.613 147.06 174.362 146.926 175.212 146.855C176.109 146.78 176.998 146.896 177.88 147.202C178.809 147.504 179.304 148.033 179.368 148.789C179.427 149.497 177.9 151.978 174.786 156.233C171.715 160.436 170.203 162.82 170.251 163.387C170.294 163.906 170.552 164.146 171.024 164.107C172.015 164.024 173.864 162.823 176.57 160.504C177.592 159.658 178.194 159.18 178.375 159.07C178.556 158.959 178.764 158.894 179.001 158.874C179.661 158.819 180.02 159.122 180.075 159.783C180.107 160.161 179.326 161.058 177.733 162.475Z" stroke="url(#paint6_linear_2417_1537)" stroke-width="4"/>
</g>
</g>
</g>
<defs>
<filter id="filter0_d_2417_1537" x="59.5986" y="172.804" width="136.001" height="33.0701" filterUnits="userSpaceOnUse" color-interpolation-filters="sRGB">
<feFlood flood-opacity="0" result="BackgroundImageFix"/>
<feColorMatrix in="SourceAlpha" type="matrix" values="0 0 0 0 0 0 0 0 0 0 0 0 0 0 0 0 0 0 127 0" result="hardAlpha"/>
<feOffset dy="4"/>
<feGaussianBlur stdDeviation="2"/>
<feColorMatrix type="matrix" values="0 0 0 0 0.898039 0 0 0 0 0.129412 0 0 0 0 0.615686 0 0 0 0.5 0"/>
<feBlend mode="normal" in2="BackgroundImageFix" result="effect1_dropShadow_2417_1537"/>
<feBlend mode="normal" in="SourceGraphic" in2="effect1_dropShadow_2417_1537" result="shape"/>
</filter>
<filter id="filter1_d_2417_1537" x="56.1641" y="108.38" width="137.812" height="106.722" filterUnits="userSpaceOnUse" color-interpolation-filters="sRGB">
<feFlood flood-opacity="0" result="BackgroundImageFix"/>
<feColorMatrix in="SourceAlpha" type="matrix" values="0 0 0 0 0 0 0 0 0 0 0 0 0 0 0 0 0 0 127 0" result="hardAlpha"/>
<feOffset dy="4"/>
<feGaussianBlur stdDeviation="6"/>
<feColorMatrix type="matrix" values="0 0 0 0 0.898039 0 0 0 0 0.129412 0 0 0 0 0.615686 0 0 0 0.5 0"/>
<feBlend mode="normal" in2="BackgroundImageFix" result="effect1_dropShadow_2417_1537"/>
<feBlend mode="normal" in="SourceGraphic" in2="effect1_dropShadow_2417_1537" result="shape"/>
</filter>
<linearGradient id="paint0_linear_2417_1537" x1="127.616" y1="217" x2="127.616" y2="55.5848" gradientUnits="userSpaceOnUse">
<stop stop-color="#FFE600"/>
<stop offset="0.307292" stop-color="#FAAD14"/>
<stop offset="0.671875" stop-color="#F7169C"/>
<stop offset="1" stop-color="#3435F5"/>
</linearGradient>
<linearGradient id="paint1_linear_2417_1537" x1="129.39" y1="132.726" x2="149.655" y2="202.401" gradientUnits="userSpaceOnUse">
<stop offset="0.223958" stop-color="#FF009D"/>
<stop offset="0.880208" stop-color="#3435F5"/>
</linearGradient>
<linearGradient id="paint2_linear_2417_1537" x1="129.39" y1="132.726" x2="149.655" y2="202.401" gradientUnits="userSpaceOnUse">
<stop offset="0.223958" stop-color="#FF009D"/>
<stop offset="0.880208" stop-color="#3435F5"/>
</linearGradient>
<linearGradient id="paint3_linear_2417_1537" x1="129.39" y1="132.726" x2="149.654" y2="202.401" gradientUnits="userSpaceOnUse">
<stop offset="0.223958" stop-color="#FF009D"/>
<stop offset="0.880208" stop-color="#3435F5"/>
</linearGradient>
<linearGradient id="paint4_linear_2417_1537" x1="120.123" y1="140.847" x2="121.838" y2="193.24" gradientUnits="userSpaceOnUse">
<stop stop-color="white"/>
<stop offset="1" stop-color="#F7169C"/>
</linearGradient>
<linearGradient id="paint5_linear_2417_1537" x1="120.123" y1="140.847" x2="121.838" y2="193.24" gradientUnits="userSpaceOnUse">
<stop stop-color="white"/>
<stop offset="1" stop-color="#F7169C"/>
</linearGradient>
<linearGradient id="paint6_linear_2417_1537" x1="120.122" y1="140.847" x2="121.837" y2="193.241" gradientUnits="userSpaceOnUse">
<stop stop-color="white"/>
<stop offset="1" stop-color="#F7169C"/>
</linearGradient>
<clipPath id="clip0_2417_1537">
<rect width="256" height="256" fill="white"/>
</clipPath>
</defs>
</svg>
