<svg width="256" height="256" viewBox="0 0 256 256" fill="none" xmlns="http://www.w3.org/2000/svg">
<g clip-path="url(#clip0_2551_442)">
<mask id="mask0_2551_442" style="mask-type:luminance" maskUnits="userSpaceOnUse" x="0" y="0" width="256" height="256">
<path d="M256 0H0V256H256V0Z" fill="white"/>
</mask>
<g mask="url(#mask0_2551_442)">
<path d="M128 256C198.692 256 256 198.692 256 128C256 57.3075 198.692 0 128 0C57.3075 0 0 57.3075 0 128C0 198.692 57.3075 256 128 256Z" fill="url(#paint0_linear_2551_442)"/>
<path d="M90.6664 161.994C83.0376 161.994 76.7912 160.202 71.9272 156.618C67.1144 152.982 64.708 147.76 64.708 141.053C64.708 139.619 64.8616 137.93 65.1688 135.882C65.988 131.274 67.1656 125.744 68.7016 119.242C73.0536 101.629 84.3176 92.823 102.442 92.823C107.357 92.823 111.812 93.6422 115.703 95.3318C119.594 96.919 122.666 99.3766 124.919 102.653C127.172 105.879 128.298 109.718 128.298 114.173C128.298 115.504 128.145 117.194 127.838 119.242C126.865 124.925 125.738 130.506 124.356 135.882C122.103 144.637 118.263 151.242 112.733 155.594C107.255 159.894 99.8824 161.994 90.6664 161.994ZM92.0488 148.17C95.6328 148.17 98.6536 147.094 101.162 144.995C103.722 142.896 105.566 139.67 106.641 135.267C108.125 129.226 109.252 124.003 110.02 119.498C110.276 118.166 110.43 116.784 110.43 115.35C110.43 109.514 107.409 106.596 101.316 106.596C97.732 106.596 94.66 107.67 92.1 109.77C89.5912 111.869 87.7992 115.094 86.724 119.498C85.5464 123.798 84.42 129.021 83.2424 135.267C82.9864 136.547 82.8328 137.878 82.8328 139.312C82.7816 145.251 85.9048 148.17 92.0488 148.17Z" fill="white"/>
<path d="M132.755 161.079C132.039 161.079 131.527 160.874 131.117 160.413C130.81 159.901 130.707 159.338 130.81 158.672L144.071 96.2086C144.173 95.4918 144.531 94.9286 145.146 94.4678C145.709 94.007 146.323 93.8022 146.989 93.8022H172.538C179.655 93.8022 185.338 95.287 189.639 98.2054C193.991 101.175 196.192 105.425 196.192 111.005C196.192 112.592 195.987 114.282 195.629 116.023C194.042 123.395 190.816 128.823 185.901 132.355C181.088 135.888 174.483 137.629 166.087 137.629H153.133L148.73 158.672C148.576 159.389 148.269 159.952 147.655 160.413C147.091 160.874 146.477 161.079 145.811 161.079H132.755ZM166.752 124.368C169.466 124.368 171.77 123.651 173.767 122.167C175.815 120.682 177.146 118.583 177.811 115.818C178.016 114.743 178.119 113.77 178.119 112.951C178.119 111.107 177.555 109.674 176.48 108.701C175.405 107.677 173.511 107.165 170.899 107.165H159.379L155.744 124.368H166.752Z" fill="white"/>
</g>
</g>
<defs>
<linearGradient id="paint0_linear_2551_442" x1="0" y1="0" x2="256" y2="256" gradientUnits="userSpaceOnUse">
<stop stop-color="#596AEC"/>
<stop offset="1" stop-color="#60E2E9"/>
</linearGradient>
<clipPath id="clip0_2551_442">
<rect width="256" height="256" fill="white"/>
</clipPath>
</defs>
</svg>
