<svg width="256" height="256" viewBox="0 0 256 256" fill="none" xmlns="http://www.w3.org/2000/svg">
<g clip-path="url(#clip0_2551_450)">
<mask id="mask0_2551_450" style="mask-type:luminance" maskUnits="userSpaceOnUse" x="0" y="0" width="256" height="256">
<path d="M256 0H0V256H256V0Z" fill="white"/>
</mask>
<g mask="url(#mask0_2551_450)">
<path d="M128.001 256C153.316 256 178.064 248.493 199.114 234.428C220.163 220.364 236.569 200.372 246.257 176.984C255.945 153.595 258.48 127.858 253.541 103.028C248.602 78.199 236.412 55.3915 218.51 37.4904C200.609 19.5892 177.802 7.39846 152.972 2.45954C128.142 -2.47937 102.406 0.0554604 79.017 9.74349C55.628 19.4315 35.6371 35.8376 21.5723 56.887C7.50746 77.9366 0.000387525 102.684 0.000387525 128C-0.0410527 144.821 3.24148 161.484 9.65939 177.032C16.0773 192.581 25.5041 206.708 37.3983 218.602C49.2925 230.496 63.4195 239.923 78.9677 246.341C94.5165 252.759 111.18 256.042 128.001 256Z" fill="url(#paint0_linear_2551_450)"/>
<path d="M163.199 148.271C163.199 129.653 152.005 123.195 129.605 120.531C113.593 118.401 110.405 114.131 110.405 106.671C110.405 99.2129 115.734 94.395 126.393 94.395C136.005 94.395 141.334 97.595 143.999 105.601C144.285 106.373 144.801 107.037 145.477 107.505C146.154 107.974 146.958 108.223 147.781 108.219H156.31C156.804 108.232 157.296 108.144 157.755 107.961C158.213 107.778 158.631 107.503 158.98 107.154C159.33 106.805 159.604 106.387 159.787 105.928C159.97 105.47 160.058 104.978 160.046 104.484V103.96C159.015 98.1799 156.104 92.9012 151.765 88.9454C147.426 84.9896 141.902 82.5774 136.051 82.0839V69.2839C136.051 67.1547 134.446 65.5604 131.781 65.0254H123.775C121.646 65.0254 120.051 66.619 119.516 69.2839V81.595C103.47 83.7831 93.334 94.395 93.334 107.731C93.334 125.336 104.005 132.271 126.405 134.936C141.334 137.601 146.187 140.755 146.187 149.331C146.187 157.907 138.727 163.736 128.592 163.736C114.722 163.736 109.974 157.918 108.322 149.866C108.169 148.967 107.707 148.149 107.013 147.555C106.32 146.962 105.441 146.631 104.528 146.619H95.4172C94.9238 146.608 94.4329 146.697 93.9747 146.881C93.5164 147.064 93.1004 147.34 92.751 147.688C92.4022 148.038 92.127 148.454 91.9433 148.912C91.7596 149.37 91.6707 149.861 91.6816 150.355V150.89C93.823 164.225 102.352 173.825 119.958 176.49V189.29C119.958 191.419 121.552 193.025 124.217 193.56H132.223C134.352 193.56 135.958 191.955 136.482 189.29V176.49C152.482 173.825 163.152 162.619 163.152 148.225L163.199 148.271Z" fill="white"/>
</g>
</g>
<defs>
<linearGradient id="paint0_linear_2551_450" x1="1.9773e-07" y1="1.9773e-07" x2="256.001" y2="256.001" gradientUnits="userSpaceOnUse">
<stop stop-color="#596AEC"/>
<stop offset="1" stop-color="#60E2E9"/>
</linearGradient>
<clipPath id="clip0_2551_450">
<rect width="256" height="256" fill="white"/>
</clipPath>
</defs>
</svg>
