<svg width="256" height="256" viewBox="0 0 256 256" fill="none" xmlns="http://www.w3.org/2000/svg">
<g clip-path="url(#clip0_2015_124)">
<path d="M256 128C256 57.3075 198.692 0 128 0C57.3075 0 0 57.3075 0 128C0 198.692 57.3075 256 128 256C198.692 256 256 198.692 256 128Z" fill="#E3DBFD"/>
<path d="M56.0938 64.9613H63.2042C63.3344 64.9579 63.4639 64.981 63.5848 65.0293C63.7057 65.0775 63.8156 65.1499 63.9076 65.242C63.9997 65.334 64.0721 65.4439 64.1203 65.5648C64.1686 65.6858 64.1917 65.8152 64.1883 65.9454V189.454C64.1883 189.715 64.0847 189.966 63.9001 190.15C63.7155 190.335 63.4652 190.439 63.2042 190.439H56.0938C55.8328 190.439 55.5825 190.335 55.3979 190.15C55.2134 189.966 55.1097 189.715 55.1097 189.454V66.0438C55.1063 65.9137 55.1295 65.7842 55.1777 65.6632C55.226 65.5423 55.2983 65.4325 55.3904 65.3404C55.4825 65.2483 55.5923 65.176 55.7133 65.1277C55.8342 65.0794 55.9637 65.0563 56.0938 65.0597" fill="#5643CC"/>
<path d="M73.071 78.3447H80.1814C80.4424 78.3447 80.6928 78.4484 80.8773 78.633C81.0619 78.8175 81.1656 79.0679 81.1656 79.3289V175.282C81.1656 175.543 81.0619 175.793 80.8773 175.978C80.6928 176.162 80.4424 176.266 80.1814 176.266H73.071C72.81 176.266 72.5597 176.162 72.3752 175.978C72.1906 175.793 72.0869 175.543 72.0869 175.282V79.3289C72.0869 79.0679 72.1906 78.8175 72.3752 78.633C72.5597 78.4484 72.81 78.3447 73.071 78.3447Z" fill="#5643CC"/>
<path d="M90.0466 87.5967H97.157C97.418 87.5967 97.6683 87.7004 97.8529 87.8849C98.0375 88.0695 98.1411 88.3198 98.1411 88.5808V183.55C98.1411 183.811 98.0375 184.061 97.8529 184.246C97.6683 184.43 97.418 184.534 97.157 184.534H90.0466C89.7856 184.534 89.5353 184.43 89.3507 184.246C89.1662 184.061 89.0625 183.811 89.0625 183.55V88.5808C89.0625 88.3198 89.1662 88.0695 89.3507 87.8849C89.5353 87.7004 89.7856 87.5967 90.0466 87.5967Z" fill="#5643CC"/>
<path d="M107.023 102.358H114.035C114.296 102.358 114.546 102.462 114.731 102.647C114.916 102.831 115.019 103.082 115.019 103.343V180.105C115.019 180.366 114.916 180.616 114.731 180.801C114.546 180.986 114.296 181.089 114.035 181.089H107.023C106.762 181.089 106.512 180.986 106.327 180.801C106.143 180.616 106.039 180.366 106.039 180.105V103.343C106.039 103.082 106.143 102.831 106.327 102.647C106.512 102.462 106.762 102.358 107.023 102.358Z" fill="#5643CC"/>
<path d="M124.001 115.644H131.111C131.372 115.644 131.622 115.748 131.807 115.932C131.992 116.117 132.095 116.367 132.095 116.628V188.962C132.095 189.223 131.992 189.473 131.807 189.658C131.622 189.843 131.372 189.946 131.111 189.946H124.001C123.74 189.946 123.489 189.843 123.305 189.658C123.12 189.473 123.017 189.223 123.017 188.962V116.628C123.017 116.367 123.12 116.117 123.305 115.932C123.489 115.748 123.74 115.644 124.001 115.644Z" fill="#5643CC"/>
<path d="M199.016 190.439H191.905C191.644 190.439 191.394 190.335 191.209 190.15C191.025 189.966 190.921 189.716 190.921 189.455V66.044C190.918 65.9139 190.941 65.7844 190.989 65.6634C191.038 65.5425 191.11 65.4327 191.202 65.3406C191.294 65.2485 191.404 65.1762 191.525 65.1279C191.646 65.0797 191.775 65.0565 191.905 65.0599H199.016C199.146 65.0565 199.275 65.0797 199.396 65.1279C199.517 65.1762 199.627 65.2485 199.719 65.3406C199.811 65.4327 199.884 65.5425 199.932 65.6634C199.98 65.7844 200.003 65.9139 200 66.044V189.455C200 189.716 199.896 189.966 199.712 190.15C199.527 190.335 199.277 190.439 199.016 190.439Z" fill="#5643CC"/>
<path d="M182.038 176.168H174.928C174.667 176.168 174.416 176.065 174.232 175.88C174.047 175.696 173.944 175.445 173.944 175.184V79.231C173.94 79.1009 173.963 78.9714 174.012 78.8505C174.06 78.7295 174.132 78.6197 174.224 78.5276C174.316 78.4356 174.426 78.3632 174.547 78.3149C174.668 78.2667 174.798 78.2435 174.928 78.2469H182.038C182.168 78.2435 182.298 78.2667 182.419 78.3149C182.54 78.3632 182.65 78.4356 182.742 78.5276C182.834 78.6197 182.906 78.7295 182.954 78.8505C183.003 78.9714 183.026 79.1009 183.022 79.231V175.184C183.022 175.313 182.997 175.441 182.947 175.561C182.898 175.68 182.825 175.789 182.734 175.88C182.643 175.972 182.534 176.044 182.415 176.093C182.295 176.143 182.167 176.168 182.038 176.168Z" fill="#5643CC"/>
<path d="M165.063 184.534H157.953C157.824 184.534 157.696 184.509 157.576 184.459C157.457 184.41 157.348 184.337 157.257 184.246C157.166 184.154 157.093 184.046 157.044 183.926C156.994 183.807 156.969 183.679 156.969 183.55V88.5808C156.969 88.3198 157.072 88.0695 157.257 87.8849C157.442 87.7004 157.692 87.5967 157.953 87.5967H165.063C165.324 87.5967 165.575 87.7004 165.759 87.8849C165.944 88.0695 166.047 88.3198 166.047 88.5808V183.55C166.047 183.811 165.944 184.061 165.759 184.246C165.575 184.43 165.324 184.534 165.063 184.534Z" fill="#5643CC"/>
<path d="M148.085 181.089H141.097C140.836 181.089 140.586 180.986 140.402 180.801C140.217 180.616 140.113 180.366 140.113 180.105V103.343C140.113 103.082 140.217 102.831 140.402 102.647C140.586 102.462 140.836 102.358 141.097 102.358H148.208C148.469 102.358 148.719 102.462 148.904 102.647C149.088 102.831 149.192 103.082 149.192 103.343V180.105C149.192 180.366 149.088 180.616 148.904 180.801C148.719 180.986 148.469 181.089 148.208 181.089" fill="#5643CC"/>
</g>
<defs>
<clipPath id="clip0_2015_124">
<rect width="256" height="256" fill="white"/>
</clipPath>
</defs>
</svg>
