<svg width="256" height="256" viewBox="0 0 256 256" fill="none" xmlns="http://www.w3.org/2000/svg">
<g clip-path="url(#clip0_2201_1220)">
<path d="M256 128C256 57.3075 198.692 0 128 0C57.3075 0 0 57.3075 0 128C0 198.692 57.3075 256 128 256C198.692 256 256 198.692 256 128Z" fill="black"/>
<path d="M163.143 206.428L126.666 171.87L94.0283 206.428H163.143Z" fill="#BFFF0B" stroke="#BFFF0B" stroke-width="0.727273" stroke-linejoin="round"/>
<path d="M205.379 206.428L47.9512 49V206.428M205.379 206.428L69.0695 49L47.9512 206.428M205.379 206.428L88.268 49L47.9512 206.428M205.379 206.428L109.386 49L47.9512 206.428M205.379 206.428L128.585 49L47.9512 206.428M205.379 206.428L147.784 49L47.9512 206.428M205.379 206.428L168.902 49L47.9512 206.428M205.379 206.428L188.1 49L47.9512 206.428M205.379 206.428L207.299 49L47.9512 206.428" stroke="url(#paint0_linear_2201_1220)" stroke-width="0.727273" stroke-linejoin="round"/>
</g>
<defs>
<linearGradient id="paint0_linear_2201_1220" x1="127.625" y1="49" x2="127.625" y2="206.428" gradientUnits="userSpaceOnUse">
<stop stop-color="#0BC4FF"/>
<stop offset="1" stop-color="#BFFF0B"/>
</linearGradient>
<clipPath id="clip0_2201_1220">
<rect width="256" height="256" fill="white"/>
</clipPath>
</defs>
</svg>
