<svg width="256" height="256" viewBox="0 0 256 256" fill="none" xmlns="http://www.w3.org/2000/svg">
<g clip-path="url(#clip0_966_2)">
<mask id="mask0_966_2" style="mask-type:luminance" maskUnits="userSpaceOnUse" x="0" y="0" width="256" height="256">
<path d="M256 128C256 57.3075 198.692 0 128 0C57.3075 0 0 57.3075 0 128C0 198.692 57.3075 256 128 256C198.692 256 256 198.692 256 128Z" fill="white"/>
</mask>
<g mask="url(#mask0_966_2)">
<path d="M256 128C256 57.3075 198.692 0 128 0C57.3075 0 0 57.3075 0 128C0 198.692 57.3075 256 128 256C198.692 256 256 198.692 256 128Z" fill="#E5FFC3"/>
<path d="M127.812 255.624C198.401 255.624 255.624 198.401 255.624 127.812C255.624 57.2234 198.401 0 127.812 0C57.2234 0 0 57.2234 0 127.812C0 198.401 57.2234 255.624 127.812 255.624Z" fill="#CCE7FF"/>
<mask id="mask1_966_2" style="mask-type:luminance" maskUnits="userSpaceOnUse" x="23" y="162" width="210" height="210">
<path d="M232.395 162.678H23.2358V371.836H232.395V162.678Z" fill="white"/>
</mask>
<g mask="url(#mask1_966_2)">
<path d="M218.696 356.208L173.644 342.875L139.668 363.06L115.963 363.05L81.9673 342.875L36.9343 356.208L23.2358 310.25L36.9343 259.245L23.2358 216.123L36.9343 162.678L107.302 204.458H148.329L218.696 162.678L232.395 216.123L218.696 259.245L232.395 310.25L218.696 356.208Z" fill="#FF5C16"/>
<path d="M36.9453 162.678L107.308 204.484L104.51 233.176L36.9453 162.678Z" fill="#FF5C16"/>
<path d="M110.47 271.516L104.52 233.199L66.4319 259.253L66.4121 259.243V259.263L66.5301 286.083L81.9754 271.516H81.9851H110.47Z" fill="#FF5C16"/>
<path d="M218.697 162.678L148.334 204.484L151.123 233.176L218.697 162.678Z" fill="#FF5C16"/>
<path d="M189.219 259.263V259.243L189.209 259.253L151.122 233.199L145.171 271.516H173.656L189.111 286.083L189.219 259.263Z" fill="#FF5C16"/>
<path d="M148.339 204.46H127.826H107.313L104.524 233.153L119.067 326.87H136.585L151.138 233.153L148.339 204.46Z" fill="#FF8D5D"/>
<path d="M36.9343 162.678L23.2358 216.123L36.9343 259.245H66.3933L104.503 233.18L36.9343 162.678Z" fill="#661800"/>
<path d="M218.7 162.678L232.398 216.123L218.7 259.245H189.241L151.131 233.18L218.7 162.678Z" fill="#661800"/>
</g>
<path d="M76.0659 161.789V135.023H144.263V121.655H94.2069L76.0659 105.952V73.871L94.2069 55.602H111.136V38.0332H144.263V55.602H179.333V82.3677H111.136V95.7362H161.448L179.589 112.982V143.52L161.448 161.789H144.263V179.358L111.136 179.585V161.789H76.0659Z" fill="#190066"/>
</g>
</g>
<defs>
<clipPath id="clip0_966_2">
<rect width="256" height="256" fill="white"/>
</clipPath>
</defs>
</svg>
