<svg width="256" height="256" viewBox="0 0 256 256" fill="none" xmlns="http://www.w3.org/2000/svg">
<circle cx="128" cy="128" r="127" fill="#3D3D3D"/>
<path d="M185.258 54C174.626 53.9974 164.439 58.2648 156.982 65.8437V54H151.239C140.602 53.9931 130.408 58.2607 122.949 65.8437V54H117.222C95.262 54.0172 77.464 71.8149 77.4468 93.7756V154.882C76.8381 154.882 76.2295 154.882 75.6213 154.882C74.0894 154.88 72.5616 155.042 71.065 155.366C68.3481 155.92 65.7661 157.002 63.466 158.549C61.8301 154.764 58.1022 152.311 53.9784 152.307C53.2486 152.298 52.5206 152.377 51.8094 152.541C46.2904 153.918 42.932 159.507 44.3086 165.026C45.4207 169.486 49.3537 172.669 53.9473 172.827H54.2439C53.7631 175.564 53.8213 178.368 54.4157 181.082C56.6023 191.051 65.4006 198.178 75.6062 198.247C78.6655 198.246 81.6907 197.603 84.4851 196.359C88.287 199.733 93.1959 201.593 98.2792 201.586H170.059C181.59 201.621 190.966 192.301 191 180.77C191 180.755 191 180.739 191 180.723V54H185.258ZM185.258 180.723C185.232 189.064 178.477 195.818 170.137 195.844H98.2792C93.1487 195.836 88.3723 193.228 85.5929 188.916C83.6623 190.494 81.3838 191.591 78.9456 192.115C77.8371 192.348 76.7078 192.468 75.5751 192.474C68.0545 192.466 61.5573 187.217 59.9709 179.865C59.5245 177.746 59.5245 175.556 59.9709 173.436C60.0812 172.823 60.2324 172.219 60.4232 171.626C60.4543 171.239 60.4225 170.849 60.3295 170.471C59.8918 168.366 58.0326 166.859 55.882 166.867C55.5571 166.868 55.2338 166.9 54.9145 166.96C54.5977 167.036 54.2725 167.072 53.947 167.07C51.4304 167.071 49.3896 165.031 49.3889 162.515C49.3881 160.352 50.9079 158.486 53.0263 158.05C53.3438 157.98 53.669 157.949 53.9938 157.957C56.1354 157.959 57.9861 159.453 58.4413 161.546C58.8789 163.651 60.7381 165.158 62.8888 165.15C63.2147 165.152 63.5392 165.116 63.8563 165.041C64.2379 164.967 64.6067 164.836 64.9487 164.651C65.4123 164.241 65.8968 163.856 66.4 163.496C68.1661 162.237 70.1748 161.36 72.2984 160.921C73.3948 160.68 74.5146 160.559 75.6377 160.562C78.2817 160.557 80.8839 161.217 83.206 162.482V93.8225C83.1712 75.0349 98.3736 59.7772 117.161 59.7424C117.182 59.7424 117.203 59.7424 117.223 59.7424V93.7756C117.215 74.9881 132.438 59.7512 151.226 59.7424C151.231 59.7424 151.236 59.7424 151.241 59.7424V93.7756C151.232 74.9881 166.455 59.7512 185.243 59.7424C185.248 59.7424 185.254 59.7424 185.258 59.7424L185.258 180.723Z" fill="#24DDD8"/>
<path d="M173.929 147.783V175.871C173.903 180.632 170.045 184.483 165.284 184.5H162.584V178.835C162.42 175.702 159.747 173.297 156.615 173.461C153.712 173.613 151.392 175.932 151.24 178.835V184.515H117.222V178.835C117.205 175.71 114.667 173.187 111.542 173.187C108.423 173.178 105.887 175.7 105.878 178.82C105.878 178.825 105.878 178.831 105.878 178.835V184.515H103.179C98.4077 184.507 94.5424 180.641 94.5337 175.871V147.783C94.5424 143.012 98.4077 139.146 103.179 139.138H105.878V144.802C105.878 147.933 108.411 150.474 111.542 150.483C114.676 150.474 117.214 147.936 117.222 144.802V139.138H151.24V144.802C151.075 147.935 153.482 150.608 156.615 150.772C159.747 150.937 162.42 148.53 162.584 145.398C162.595 145.199 162.595 145.001 162.584 144.802V139.138H165.284C170.052 139.155 173.912 143.015 173.929 147.783Z" fill="#24DDD8"/>
<path d="M125.521 122.562C126.036 124.052 129.235 127.523 129.235 127.523C119.855 127.523 113.816 124.877 113.816 122.111C113.816 120.162 113.816 114.316 113.816 114.316C113.816 112.532 114.72 111.627 116.505 111.627H122.801C124.593 111.619 125.332 112.163 125.341 113.955C125.341 113.955 124.818 120.528 125.521 122.562Z" fill="#24DDD8"/>
<path d="M151.991 113.955C152 112.162 152.738 111.618 154.531 111.627H160.827C162.611 111.627 163.516 112.531 163.516 114.316C163.516 114.316 163.516 120.162 163.516 122.111C163.516 124.877 157.478 127.522 148.097 127.522C148.097 127.522 151.296 124.051 151.811 122.561C152.514 120.528 151.991 113.955 151.991 113.955Z" fill="#24DDD8"/>
<path d="M111.277 65.063C107.762 66.4897 104.471 68.4185 101.509 70.7896C98.6787 73.0927 96.257 75.8567 94.3473 78.9665C92.4409 82.0843 91.094 85.512 90.3682 89.0938C90.2902 89.546 90.1653 89.999 90.103 90.4513C90.0408 90.9036 89.9936 91.3719 89.9313 91.8399C89.7749 92.7452 89.7127 93.7281 89.6035 94.6956C89.3695 96.6306 89.1513 98.5652 88.7767 100.501C88.3867 98.5656 88.168 96.6309 87.9183 94.6956C87.8245 93.7281 87.7154 92.7763 87.6843 91.7619C87.5986 90.7545 87.5986 89.742 87.6843 88.7345C87.9535 84.636 89.2231 80.6657 91.3826 77.1718C93.4992 73.6614 96.4193 70.7039 99.9026 68.5426C103.326 66.4124 107.247 65.2128 111.277 65.063Z" fill="#24DDD8"/>
<path d="M145.295 65.063C141.947 66.4513 138.799 68.2771 135.932 70.493C133.191 72.6411 130.815 75.2177 128.895 78.1235C126.987 81.0312 125.54 84.2153 124.604 87.5642C124.354 88.4225 124.245 89.2963 124.011 90.1547C123.777 91.013 123.745 91.9179 123.589 92.8074C123.37 94.6487 123.137 96.4746 122.762 98.3316C122.372 96.4746 122.154 94.649 121.92 92.8074C121.92 91.8711 121.795 90.9036 121.763 89.9364C121.732 88.9689 121.857 88.0172 121.982 87.0654C122.48 83.1643 123.862 79.4279 126.023 76.1424C128.164 72.877 131.039 70.1568 134.418 68.1999C137.713 66.2334 141.46 65.1531 145.295 65.063Z" fill="#24DDD8"/>
<path d="M179.328 65.063C175.981 66.4524 172.833 68.2782 169.965 70.493C167.233 72.6459 164.862 75.2218 162.943 78.1235C161.036 81.0312 159.588 84.2153 158.652 87.5642C158.387 88.4225 158.277 89.2963 158.059 90.1547C157.84 91.013 157.778 91.9179 157.637 92.8074C157.403 94.6487 157.185 96.4746 156.81 98.3316C156.42 96.4746 156.202 94.649 155.952 92.8074C155.952 91.8711 155.843 90.9036 155.812 89.9364C155.781 88.9689 155.89 88.0172 156.015 87.0654C156.518 83.1628 157.905 79.4268 160.072 76.1424C162.226 72.8971 165.112 70.2037 168.498 68.2775C171.773 66.2964 175.502 65.1893 179.328 65.063Z" fill="#24DDD8"/>
</svg>
