<svg width="256" height="256" viewBox="0 0 256 256" fill="none" xmlns="http://www.w3.org/2000/svg">
<g clip-path="url(#clip0_2561_2130)">
<path fill-rule="evenodd" clip-rule="evenodd" d="M0 127.955C0 57.2501 57.2501 0 127.955 0C198.66 0 255.91 57.2501 255.91 127.955C255.91 198.66 198.66 256 127.955 256C57.2501 256 0 198.66 0 127.955Z" fill="url(#paint0_linear_2561_2130)"/>
<path fill-rule="evenodd" clip-rule="evenodd" d="M48.8525 122.085C48.8525 122.085 48.8525 141.951 127.955 141.951C207.058 141.951 207.058 122.085 207.058 122.085C207.058 141.951 188.366 183.76 176.807 190.894C165.249 198.028 169.674 167.055 158.115 167.867C146.557 168.59 139.423 214.101 127.865 214.101C116.307 214.101 109.173 167.235 97.6144 167.958C86.0561 168.68 90.4808 198.208 78.9224 190.984C67.5446 183.76 48.8525 141.951 48.8525 122.085Z" fill="white"/>
<path fill-rule="evenodd" clip-rule="evenodd" d="M67.5439 122.085C67.5439 115.674 94.5436 110.437 127.955 110.437C161.365 110.437 188.365 115.674 188.365 122.085C188.365 128.496 158.115 133.734 127.955 133.734C97.7041 133.734 67.5439 128.496 67.5439 122.085Z" fill="white"/>
<path fill-rule="evenodd" clip-rule="evenodd" d="M158.205 66.2802C158.205 57.8824 164.978 51.1099 173.375 51.1099C181.773 51.1099 188.546 57.8824 188.546 66.2802C188.546 74.6781 181.773 81.4506 173.375 81.4506C164.978 81.4506 158.205 74.5878 158.205 66.2802Z" fill="white"/>
</g>
<defs>
<linearGradient id="paint0_linear_2561_2130" x1="-1.52569e-05" y1="255.968" x2="255.968" y2="1.12792e-05" gradientUnits="userSpaceOnUse">
<stop offset="0.1408" stop-color="#FF59DC"/>
<stop offset="0.8592" stop-color="#35FFE7"/>
<stop offset="1" stop-color="#FFFD00" stop-opacity="0.8967"/>
</linearGradient>
<clipPath id="clip0_2561_2130">
<rect width="256" height="256" fill="white"/>
</clipPath>
</defs>
</svg>
