<svg width="504" height="504" viewBox="0 0 504 504" fill="none" xmlns="http://www.w3.org/2000/svg">
<g clip-path="url(#clip0_27050_11304)">
<circle cx="252" cy="252" r="252" fill="#00A3FF"/>
<path d="M166.173 227.455L164.099 230.543C140.248 267.599 145.433 315.978 177.58 346.859C195.21 365.387 220.098 374.651 244.986 374.651C244.986 374.651 244.986 374.651 166.173 227.455Z" fill="white"/>
<path d="M244.747 272.746L165.934 227.455C244.747 375.68 244.747 375.68 244.747 375.68C244.747 343.771 244.747 306.714 244.747 272.746Z" fill="white"/>
<path d="M337.677 227.455L339.751 230.543C363.602 267.599 358.417 315.978 326.27 346.859C307.603 365.387 283.752 374.651 258.863 374.651C258.863 374.651 258.863 374.651 337.677 227.455Z" fill="white"/>
<path d="M258.93 272.746L337.743 227.455C258.93 375.68 258.93 375.68 258.93 375.68C258.93 343.771 258.93 306.714 258.93 272.746Z" fill="white"/>
<path d="M250.215 170.494V257.668L327.5 214.662L250.215 170.494Z" fill="white"/>
<path d="M250.215 170.494L172.93 214.662L250.215 257.668V170.494Z" fill="white"/>
<path d="M250.355 97.3184L173.07 214.712L250.355 170.544V97.3184Z" fill="white"/>
<path d="M250.352 170.544L327.637 214.712L250.352 97.3184V170.544Z" fill="white"/>
<circle cx="251.983" cy="255.862" r="50.2641" fill="#00A3FF"/>
<path fill-rule="evenodd" clip-rule="evenodd" d="M253.307 224.281C252.352 223.74 251.182 223.74 250.227 224.281L223.864 239.227C222.469 240.018 223.03 242.147 224.634 242.147H278.9C280.504 242.147 281.065 240.018 279.67 239.227L253.307 224.281ZM243.376 267.417C241.164 269.175 238.302 270.236 235.176 270.236C228.167 270.236 222.485 264.905 222.485 258.328C222.485 251.751 228.167 246.42 235.176 246.42H269.019C276.028 246.42 281.71 251.751 281.71 258.328C281.71 264.905 276.028 270.236 269.019 270.236C265.893 270.236 263.031 269.175 260.819 267.417C259.966 266.738 258.942 266.267 257.852 266.267H246.343C245.253 266.267 244.229 266.738 243.376 267.417ZM267.158 258.294C267.158 259.522 266.097 260.517 264.789 260.517C263.48 260.517 262.42 259.522 262.42 258.294C262.42 257.066 263.48 256.071 264.789 256.071C266.097 256.071 267.158 257.066 267.158 258.294ZM274.265 260.517C275.573 260.517 276.634 259.522 276.634 258.294C276.634 257.066 275.573 256.071 274.265 256.071C272.956 256.071 271.896 257.066 271.896 258.294C271.896 259.522 272.956 260.517 274.265 260.517ZM269.527 256.071C268.218 256.071 267.158 255.076 267.158 253.848C267.158 252.621 268.218 251.625 269.527 251.625C270.835 251.625 271.896 252.621 271.896 253.848C271.896 255.076 270.835 256.071 269.527 256.071ZM267.158 262.74C267.158 263.967 268.218 264.962 269.527 264.962C270.835 264.962 271.896 263.967 271.896 262.74C271.896 261.512 270.835 260.517 269.527 260.517C268.218 260.517 267.158 261.512 267.158 262.74ZM225.087 274.452H278.956C279.97 274.452 280.792 275.226 280.792 276.18C280.792 277.134 279.97 277.908 278.956 277.908H225.087C224.073 277.908 223.25 277.134 223.25 276.18C223.25 275.226 224.073 274.452 225.087 274.452ZM282.475 280.211H221.567C220.553 280.211 219.73 280.985 219.73 281.939C219.73 282.893 220.553 283.667 221.567 283.667H282.475C283.49 283.667 284.312 282.893 284.312 281.939C284.312 280.985 283.49 280.211 282.475 280.211ZM236.674 262.944C236.674 263.295 236.39 263.579 236.04 263.579H233.425C233.075 263.579 232.791 263.295 232.791 262.944V260.182H230.029C229.679 260.182 229.394 259.898 229.394 259.547V256.933C229.394 256.583 229.679 256.299 230.029 256.299H232.791L232.791 253.534C232.791 253.184 233.075 252.9 233.425 252.9H236.04C236.39 252.9 236.674 253.184 236.674 253.534L236.674 256.299H239.439C239.789 256.299 240.073 256.583 240.073 256.933V259.547C240.073 259.898 239.789 260.182 239.439 260.182H236.674V262.944Z" fill="white"/>
<mask id="path-12-inside-1_27050_11304" fill="white">
<path d="M436.843 192.949C439.188 192.227 441.679 193.54 442.35 195.9C449.04 219.457 451.304 244.065 449.014 268.472C446.585 294.354 439.082 319.505 426.934 342.488C414.785 365.471 398.229 385.836 378.21 402.42C359.331 418.059 337.723 430.048 314.489 437.788C312.162 438.563 309.673 437.244 308.95 434.9V434.9C308.227 432.555 309.544 430.074 311.87 429.296C333.989 421.901 354.562 410.474 372.542 395.579C391.663 379.739 407.476 360.288 419.079 338.336C430.683 316.385 437.849 292.363 440.168 267.642C442.35 244.396 440.205 220.96 433.858 198.518C433.19 196.158 434.499 193.672 436.843 192.949V192.949Z"/>
</mask>
<path d="M436.843 192.949C439.188 192.227 441.679 193.54 442.35 195.9C449.04 219.457 451.304 244.065 449.014 268.472C446.585 294.354 439.082 319.505 426.934 342.488C414.785 365.471 398.229 385.836 378.21 402.42C359.331 418.059 337.723 430.048 314.489 437.788C312.162 438.563 309.673 437.244 308.95 434.9V434.9C308.227 432.555 309.544 430.074 311.87 429.296C333.989 421.901 354.562 410.474 372.542 395.579C391.663 379.739 407.476 360.288 419.079 338.336C430.683 316.385 437.849 292.363 440.168 267.642C442.35 244.396 440.205 220.96 433.858 198.518C433.19 196.158 434.499 193.672 436.843 192.949V192.949Z" stroke="white" stroke-width="15.8366" mask="url(#path-12-inside-1_27050_11304)"/>
<mask id="path-13-inside-2_27050_11304" fill="white">
<path d="M132.003 98.3386C130.481 96.4145 130.804 93.6165 132.762 92.1381C167.505 65.9015 209.97 51.8243 253.587 52.1619C297.205 52.4994 339.447 67.232 373.78 94.0031C375.714 95.5116 375.994 98.3143 374.443 100.215V100.215C372.891 102.115 370.096 102.393 368.16 100.887C335.396 75.3945 295.112 61.3675 253.519 61.0456C211.925 60.7238 171.429 74.1257 138.275 99.1076C136.316 100.584 133.525 100.263 132.003 98.3386V98.3386Z"/>
</mask>
<path d="M132.003 98.3386C130.481 96.4145 130.804 93.6165 132.762 92.1381C167.505 65.9015 209.97 51.8243 253.587 52.1619C297.205 52.4994 339.447 67.232 373.78 94.0031C375.714 95.5116 375.994 98.3143 374.443 100.215V100.215C372.891 102.115 370.096 102.393 368.16 100.887C335.396 75.3945 295.112 61.3675 253.519 61.0456C211.925 60.7238 171.429 74.1257 138.275 99.1076C136.316 100.584 133.525 100.263 132.003 98.3386V98.3386Z" stroke="white" stroke-width="15.8366" mask="url(#path-13-inside-2_27050_11304)"/>
<mask id="path-14-inside-3_27050_11304" fill="white">
<path d="M196.956 435.62C196.258 437.972 193.783 439.317 191.448 438.566C167.714 430.933 145.621 418.881 126.342 403.031C105.918 386.241 89.0649 365.53 76.7765 342.12C64.4881 318.709 57.0138 293.075 54.7947 266.729C52.7 241.859 55.3281 216.831 62.5261 192.961C63.2343 190.612 65.7469 189.34 68.0792 190.1V190.1C70.4115 190.861 71.6802 193.367 70.9743 195.717C64.1429 218.458 61.6523 242.295 63.6474 265.983C65.7669 291.147 72.9058 315.631 84.6427 337.99C96.3796 360.35 112.477 380.132 131.984 396.169C150.347 411.264 171.381 422.754 193.978 430.047C196.312 430.801 197.655 433.268 196.956 435.62V435.62Z"/>
</mask>
<path d="M196.956 435.62C196.258 437.972 193.783 439.317 191.448 438.566C167.714 430.933 145.621 418.881 126.342 403.031C105.918 386.241 89.0649 365.53 76.7765 342.12C64.4881 318.709 57.0138 293.075 54.7947 266.729C52.7 241.859 55.3281 216.831 62.5261 192.961C63.2343 190.612 65.7469 189.34 68.0792 190.1V190.1C70.4115 190.861 71.6802 193.367 70.9743 195.717C64.1429 218.458 61.6523 242.295 63.6474 265.983C65.7669 291.147 72.9058 315.631 84.6427 337.99C96.3796 360.35 112.477 380.132 131.984 396.169C150.347 411.264 171.381 422.754 193.978 430.047C196.312 430.801 197.655 433.268 196.956 435.62V435.62Z" stroke="white" stroke-width="15.8366" mask="url(#path-14-inside-3_27050_11304)"/>
<circle cx="405.169" cy="144.139" r="37.6119" fill="#00A3FF" stroke="white" stroke-width="7.9183"/>
<mask id="path-16-outside-4_27050_11304" maskUnits="userSpaceOnUse" x="384.113" y="129.773" width="43" height="30" fill="black">
<rect fill="white" x="384.113" y="129.773" width="43" height="30"/>
<path d="M394.221 133.435H398.181V143.333H402.14V147.292H398.181V158.773H394.221V147.292H384.719V131.059H388.679V143.333H394.221V133.435ZM418.753 154.775C419.426 154.775 420.02 154.577 420.534 154.22L412.418 140.997V151.607C412.418 153.349 413.843 154.775 415.585 154.775H418.753ZM408.459 151.607V138.186C408.459 134.227 411.666 131.059 415.585 131.059H418.753C422.712 131.059 425.879 134.227 425.879 138.186V151.607C425.879 155.527 422.712 158.773 418.753 158.773H415.585C411.666 158.773 408.459 155.527 408.459 151.607ZM413.764 135.573L421.92 148.836V138.186C421.92 136.404 420.534 135.019 418.753 135.019H415.585C414.912 135.019 414.279 135.216 413.764 135.573Z"/>
</mask>
<path d="M394.221 133.435H398.181V143.333H402.14V147.292H398.181V158.773H394.221V147.292H384.719V131.059H388.679V143.333H394.221V133.435ZM418.753 154.775C419.426 154.775 420.02 154.577 420.534 154.22L412.418 140.997V151.607C412.418 153.349 413.843 154.775 415.585 154.775H418.753ZM408.459 151.607V138.186C408.459 134.227 411.666 131.059 415.585 131.059H418.753C422.712 131.059 425.879 134.227 425.879 138.186V151.607C425.879 155.527 422.712 158.773 418.753 158.773H415.585C411.666 158.773 408.459 155.527 408.459 151.607ZM413.764 135.573L421.92 148.836V138.186C421.92 136.404 420.534 135.019 418.753 135.019H415.585C414.912 135.019 414.279 135.216 413.764 135.573Z" fill="white"/>
<path d="M394.221 133.435V133.147H393.934V133.435H394.221ZM398.181 133.435H398.468V133.147H398.181V133.435ZM398.181 143.333H397.893V143.62H398.181V143.333ZM402.14 143.333H402.427V143.045H402.14V143.333ZM402.14 147.292V147.579H402.427V147.292H402.14ZM398.181 147.292V147.004H397.893V147.292H398.181ZM398.181 158.773V159.061H398.468V158.773H398.181ZM394.221 158.773H393.934V159.061H394.221V158.773ZM394.221 147.292H394.509V147.004H394.221V147.292ZM384.719 147.292H384.432V147.579H384.719V147.292ZM384.719 131.059V130.772H384.432V131.059H384.719ZM388.679 131.059H388.966V130.772H388.679V131.059ZM388.679 143.333H388.391V143.62H388.679V143.333ZM394.221 143.333V143.62H394.509V143.333H394.221ZM394.221 133.722H398.181V133.147H394.221V133.722ZM397.893 133.435V143.333H398.468V133.435H397.893ZM398.181 143.62H402.14V143.045H398.181V143.62ZM401.852 143.333V147.292H402.427V143.333H401.852ZM402.14 147.004H398.181V147.579H402.14V147.004ZM397.893 147.292V158.773H398.468V147.292H397.893ZM398.181 158.486H394.221V159.061H398.181V158.486ZM394.509 158.773V147.292H393.934V158.773H394.509ZM394.221 147.004H384.719V147.579H394.221V147.004ZM385.007 147.292V131.059H384.432V147.292H385.007ZM384.719 131.347H388.679V130.772H384.719V131.347ZM388.391 131.059V143.333H388.966V131.059H388.391ZM388.679 143.62H394.221V143.045H388.679V143.62ZM394.509 143.333V133.435H393.934V143.333H394.509ZM420.534 154.22L420.698 154.457L420.922 154.302L420.779 154.07L420.534 154.22ZM412.418 140.997L412.663 140.846L412.131 139.979V140.997H412.418ZM413.764 135.573L413.601 135.336L413.377 135.491L413.519 135.723L413.764 135.573ZM421.92 148.836L421.675 148.987L422.208 149.852V148.836H421.92ZM418.753 155.062C419.486 155.062 420.137 154.846 420.698 154.457L420.371 153.984C419.903 154.308 419.366 154.487 418.753 154.487V155.062ZM420.779 154.07L412.663 140.846L412.173 141.147L420.289 154.371L420.779 154.07ZM412.131 140.997V151.607H412.706V140.997H412.131ZM412.131 151.607C412.131 153.508 413.685 155.062 415.585 155.062V154.487C414.002 154.487 412.706 153.191 412.706 151.607H412.131ZM415.585 155.062H418.753V154.487H415.585V155.062ZM408.746 151.607V138.186H408.171V151.607H408.746ZM408.746 138.186C408.746 134.387 411.824 131.347 415.585 131.347V130.772C411.508 130.772 408.171 134.067 408.171 138.186H408.746ZM415.585 131.347H418.753V130.772H415.585V131.347ZM418.753 131.347C422.553 131.347 425.592 134.385 425.592 138.186H426.167C426.167 134.068 422.871 130.772 418.753 130.772V131.347ZM425.592 138.186V151.607H426.167V138.186H425.592ZM425.592 151.607C425.592 155.371 422.55 158.486 418.753 158.486V159.061C422.874 159.061 426.167 155.683 426.167 151.607H425.592ZM418.753 158.486H415.585V159.061H418.753V158.486ZM415.585 158.486C411.827 158.486 408.746 155.37 408.746 151.607H408.171C408.171 155.684 411.505 159.061 415.585 159.061V158.486ZM413.519 135.723L421.675 148.987L422.165 148.685L414.009 135.422L413.519 135.723ZM422.208 148.836V138.186H421.633V148.836H422.208ZM422.208 138.186C422.208 136.245 420.693 134.731 418.753 134.731V135.306C420.376 135.306 421.633 136.563 421.633 138.186H422.208ZM418.753 134.731H415.585V135.306H418.753V134.731ZM415.585 134.731C414.856 134.731 414.165 134.946 413.601 135.336L413.928 135.809C414.393 135.487 414.969 135.306 415.585 135.306V134.731Z" fill="white" mask="url(#path-16-outside-4_27050_11304)"/>
<circle cx="252.693" cy="444.859" r="40.1789" fill="#00A3FF" stroke="white" stroke-width="7.9183"/>
<mask id="path-19-outside-5_27050_11304" maskUnits="userSpaceOnUse" x="231.719" y="430.74" width="43" height="30" fill="black">
<rect fill="white" x="231.719" y="430.74" width="43" height="30"/>
<path d="M236.209 452.614C236.209 454.356 237.635 455.781 239.377 455.781H242.544C244.326 455.781 245.711 454.395 245.711 452.614V449.288C245.711 447.546 244.286 446.121 242.544 446.121H240.723L236.209 449.169V452.614ZM232.25 452.614V439.153C232.25 435.193 235.417 432.026 239.377 432.026H242.544C246.503 432.026 249.67 435.193 249.67 439.153V440.34H245.711V439.153C245.711 437.371 244.326 435.985 242.544 435.985H239.377C237.595 435.985 236.209 437.371 236.209 439.153V444.379L239.495 442.162H242.544C246.464 442.162 249.67 445.329 249.67 449.288V452.614C249.67 456.573 246.503 459.74 242.544 459.74H239.377C235.457 459.74 232.25 456.573 232.25 452.614ZM255.198 439.549H259.157V441.845L261.532 439.549H261.849C263.948 439.549 265.412 440.459 266.165 442.36L269.055 439.549H269.372C272.499 439.549 274.202 441.528 274.202 445.883V459.74H270.243V445.883C270.243 445.131 270.243 444.498 270.163 444.062L266.679 447.388V459.74H262.72V445.883C262.72 445.131 262.72 444.498 262.641 444.062L259.157 447.388V459.74H255.198V439.549ZM261.414 442.874H261.651H261.414ZM268.936 442.874H269.174H268.936Z"/>
</mask>
<path d="M236.209 452.614C236.209 454.356 237.635 455.781 239.377 455.781H242.544C244.326 455.781 245.711 454.395 245.711 452.614V449.288C245.711 447.546 244.286 446.121 242.544 446.121H240.723L236.209 449.169V452.614ZM232.25 452.614V439.153C232.25 435.193 235.417 432.026 239.377 432.026H242.544C246.503 432.026 249.67 435.193 249.67 439.153V440.34H245.711V439.153C245.711 437.371 244.326 435.985 242.544 435.985H239.377C237.595 435.985 236.209 437.371 236.209 439.153V444.379L239.495 442.162H242.544C246.464 442.162 249.67 445.329 249.67 449.288V452.614C249.67 456.573 246.503 459.74 242.544 459.74H239.377C235.457 459.74 232.25 456.573 232.25 452.614ZM255.198 439.549H259.157V441.845L261.532 439.549H261.849C263.948 439.549 265.412 440.459 266.165 442.36L269.055 439.549H269.372C272.499 439.549 274.202 441.528 274.202 445.883V459.74H270.243V445.883C270.243 445.131 270.243 444.498 270.163 444.062L266.679 447.388V459.74H262.72V445.883C262.72 445.131 262.72 444.498 262.641 444.062L259.157 447.388V459.74H255.198V439.549ZM261.414 442.874H261.651H261.414ZM268.936 442.874H269.174H268.936Z" fill="white"/>
<path d="M240.723 446.121V445.833H240.635L240.562 445.882L240.723 446.121ZM236.209 449.169L236.048 448.931L235.922 449.017V449.169H236.209ZM249.67 440.34V440.628H249.958V440.34H249.67ZM245.711 440.34H245.424V440.628H245.711V440.34ZM236.209 444.379H235.922V444.92L236.37 444.617L236.209 444.379ZM239.495 442.162V441.874H239.407L239.335 441.923L239.495 442.162ZM235.922 452.614C235.922 454.515 237.476 456.069 239.377 456.069V455.494C237.793 455.494 236.497 454.197 236.497 452.614H235.922ZM239.377 456.069H242.544V455.494H239.377V456.069ZM242.544 456.069C244.484 456.069 245.999 454.554 245.999 452.614H245.424C245.424 454.237 244.167 455.494 242.544 455.494V456.069ZM245.999 452.614V449.288H245.424V452.614H245.999ZM245.999 449.288C245.999 447.387 244.445 445.833 242.544 445.833V446.408C244.127 446.408 245.424 447.705 245.424 449.288H245.999ZM242.544 445.833H240.723V446.408H242.544V445.833ZM240.562 445.882L236.048 448.931L236.37 449.408L240.884 446.359L240.562 445.882ZM235.922 449.169V452.614H236.497V449.169H235.922ZM232.538 452.614V439.153H231.963V452.614H232.538ZM232.538 439.153C232.538 435.352 235.576 432.314 239.377 432.314V431.739C235.259 431.739 231.963 435.035 231.963 439.153H232.538ZM239.377 432.314H242.544V431.739H239.377V432.314ZM242.544 432.314C246.344 432.314 249.383 435.352 249.383 439.153H249.958C249.958 435.035 246.662 431.739 242.544 431.739V432.314ZM249.383 439.153V440.34H249.958V439.153H249.383ZM249.67 440.053H245.711V440.628H249.67V440.053ZM245.999 440.34V439.153H245.424V440.34H245.999ZM245.999 439.153C245.999 437.212 244.484 435.698 242.544 435.698V436.273C244.167 436.273 245.424 437.53 245.424 439.153H245.999ZM242.544 435.698H239.377V436.273H242.544V435.698ZM239.377 435.698C237.436 435.698 235.922 437.212 235.922 439.153H236.497C236.497 437.53 237.754 436.273 239.377 436.273V435.698ZM235.922 439.153V444.379H236.497V439.153H235.922ZM236.37 444.617L239.656 442.4L239.335 441.923L236.048 444.14L236.37 444.617ZM239.495 442.449H242.544V441.874H239.495V442.449ZM242.544 442.449C246.306 442.449 249.383 445.489 249.383 449.288H249.958C249.958 445.169 246.621 441.874 242.544 441.874V442.449ZM249.383 449.288V452.614H249.958V449.288H249.383ZM249.383 452.614C249.383 456.414 246.344 459.453 242.544 459.453V460.028C246.662 460.028 249.958 456.732 249.958 452.614H249.383ZM242.544 459.453H239.377V460.028H242.544V459.453ZM239.377 459.453C235.615 459.453 232.538 456.413 232.538 452.614H231.963C231.963 456.733 235.299 460.028 239.377 460.028V459.453ZM255.198 439.549V439.261H254.91V439.549H255.198ZM259.157 439.549H259.444V439.261H259.157V439.549ZM259.157 441.845H258.869V442.523L259.357 442.052L259.157 441.845ZM261.532 439.549V439.261H261.416L261.333 439.342L261.532 439.549ZM266.165 442.36L265.897 442.465L266.056 442.866L266.365 442.566L266.165 442.36ZM269.055 439.549V439.261H268.938L268.854 439.342L269.055 439.549ZM274.202 459.74V460.028H274.489V459.74H274.202ZM270.243 459.74H269.955V460.028H270.243V459.74ZM270.163 444.062L270.446 444.011L270.351 443.486L269.965 443.854L270.163 444.062ZM266.679 447.388L266.481 447.18L266.392 447.265V447.388H266.679ZM266.679 459.74V460.028H266.967V459.74H266.679ZM262.72 459.74H262.433V460.028H262.72V459.74ZM262.641 444.062L262.924 444.011L262.828 443.486L262.442 443.854L262.641 444.062ZM259.157 447.388L258.958 447.18L258.869 447.265V447.388H259.157ZM259.157 459.74V460.028H259.444V459.74H259.157ZM255.198 459.74H254.91V460.028H255.198V459.74ZM255.198 439.836H259.157V439.261H255.198V439.836ZM258.869 439.549V441.845H259.444V439.549H258.869ZM259.357 442.052L261.732 439.755L261.333 439.342L258.957 441.638L259.357 442.052ZM261.532 439.836H261.849V439.261H261.532V439.836ZM261.849 439.836C262.857 439.836 263.69 440.055 264.356 440.483C265.02 440.911 265.54 441.562 265.897 442.465L266.432 442.254C266.037 441.257 265.448 440.502 264.667 440C263.888 439.498 262.94 439.261 261.849 439.261V439.836ZM266.365 442.566L269.255 439.755L268.854 439.342L265.964 442.153L266.365 442.566ZM269.055 439.836H269.372V439.261H269.055V439.836ZM269.372 439.836C270.871 439.836 271.984 440.307 272.733 441.26C273.493 442.227 273.914 443.735 273.914 445.883H274.489C274.489 443.676 274.059 442.017 273.186 440.905C272.302 439.78 271 439.261 269.372 439.261V439.836ZM273.914 445.883V459.74H274.489V445.883H273.914ZM274.202 459.453H270.243V460.028H274.202V459.453ZM270.53 459.74V445.883H269.955V459.74H270.53ZM270.53 445.883C270.53 445.143 270.531 444.478 270.446 444.011L269.88 444.113C269.954 444.517 269.955 445.119 269.955 445.883H270.53ZM269.965 443.854L266.481 447.18L266.878 447.596L270.362 444.27L269.965 443.854ZM266.392 447.388V459.74H266.967V447.388H266.392ZM266.679 459.453H262.72V460.028H266.679V459.453ZM263.008 459.74V445.883H262.433V459.74H263.008ZM263.008 445.883C263.008 445.143 263.009 444.478 262.924 444.011L262.358 444.113C262.431 444.517 262.433 445.119 262.433 445.883H263.008ZM262.442 443.854L258.958 447.18L259.355 447.596L262.84 444.27L262.442 443.854ZM258.869 447.388V459.74H259.444V447.388H258.869ZM259.157 459.453H255.198V460.028H259.157V459.453ZM255.485 459.74V439.549H254.91V459.74H255.485ZM261.414 443.162H261.651V442.587H261.414V443.162ZM261.651 442.587H261.414V443.162H261.651V442.587ZM268.936 443.162H269.174V442.587H268.936V443.162ZM269.174 442.587H268.936V443.162H269.174V442.587Z" fill="white" mask="url(#path-19-outside-5_27050_11304)"/>
<circle cx="97.4896" cy="139.63" r="40.1789" fill="#00A3FF" stroke="white" stroke-width="7.9183"/>
<path d="M104.686 131.917C104.686 130.85 105.551 129.986 106.617 129.986H113.095C114.825 129.986 116.358 130.234 117.694 130.731C119.052 131.227 120.114 131.962 120.88 132.937C121.668 133.912 122.062 135.079 122.062 136.44C122.062 137.819 121.668 138.996 120.88 139.97C120.114 140.926 119.052 141.653 117.694 142.149C116.358 142.646 114.825 142.894 113.095 142.894H112.431C111.365 142.894 110.5 143.758 110.5 144.824V147.362C110.5 148.428 109.636 149.293 108.57 149.293H106.617C105.551 149.293 104.686 148.428 104.686 147.362V131.917ZM113.095 138.646C114.015 138.646 114.77 138.462 115.362 138.095C115.975 137.709 116.281 137.157 116.281 136.44C116.281 135.723 115.975 135.18 115.362 134.813C114.77 134.426 114.015 134.233 113.095 134.233H112.431C111.365 134.233 110.5 135.098 110.5 136.164V136.716C110.5 137.782 111.365 138.646 112.431 138.646H113.095Z" fill="white"/>
<path fill-rule="evenodd" clip-rule="evenodd" d="M115.362 134.813C115.975 135.18 116.281 135.723 116.281 136.44C116.281 137.157 115.975 137.709 115.362 138.095C114.77 138.462 114.015 138.646 113.095 138.646H112.431C111.365 138.646 110.5 137.782 110.5 136.716V136.164C110.5 135.098 111.365 134.233 112.431 134.233H113.095C114.015 134.233 114.77 134.426 115.362 134.813ZM106.617 127.09H113.095C115.095 127.09 116.978 127.376 118.696 128.013C120.464 128.661 121.996 129.678 123.144 131.131C124.377 132.663 124.958 134.483 124.958 136.44C124.958 138.409 124.381 140.245 123.136 141.787C121.985 143.22 120.455 144.222 118.696 144.866C117.065 145.471 115.284 145.76 113.396 145.788V147.362C113.396 150.028 111.235 152.189 108.57 152.189H106.617C103.951 152.189 101.79 150.028 101.79 147.362V131.917C101.79 129.251 103.951 127.09 106.617 127.09ZM117.694 142.149C119.052 141.653 120.114 140.926 120.88 139.97C121.668 138.996 122.062 137.819 122.062 136.44C122.062 135.079 121.668 133.912 120.88 132.937C120.114 131.962 119.052 131.227 117.694 130.731C116.358 130.234 114.825 129.986 113.095 129.986H106.617C105.551 129.986 104.686 130.85 104.686 131.917V147.362C104.686 148.428 105.551 149.293 106.617 149.293H108.57C109.636 149.293 110.5 148.428 110.5 147.362V144.824C110.5 143.758 111.365 142.894 112.431 142.894H113.095C114.825 142.894 116.358 142.646 117.694 142.149Z" fill="white"/>
<path d="M72.6758 132.507C72.2751 131.261 73.2046 129.986 74.5138 129.986H75.9954C76.8435 129.986 77.5922 130.539 77.8411 131.35L79.2273 135.866C79.7816 137.672 82.3317 137.69 82.9107 135.891L84.3814 131.325C84.6383 130.527 85.3808 129.986 86.2191 129.986H88.4289C89.2683 129.986 90.0115 130.528 90.2675 131.328L91.7239 135.875C92.2996 137.672 94.8473 137.661 95.4065 135.858L96.8065 131.345C97.0571 130.537 97.8045 129.986 98.6505 129.986H100.107C101.416 129.986 102.346 131.261 101.945 132.507L96.9788 147.953C96.7221 148.751 95.9794 149.293 95.1408 149.293H92.4278C91.589 149.293 90.8462 148.751 90.5897 147.952L89.1633 143.513C88.5892 141.726 86.0611 141.726 85.487 143.513L84.0606 147.952C83.8041 148.751 83.0613 149.293 82.2225 149.293H79.48C78.6414 149.293 77.8987 148.751 77.642 147.953L72.6758 132.507Z" fill="white"/>
<path fill-rule="evenodd" clip-rule="evenodd" d="M74.5138 127.09H75.9954C78.1156 127.09 79.9875 128.473 80.6096 130.5L81.0951 132.082L81.6248 130.437C82.2672 128.442 84.1234 127.09 86.2191 127.09H88.4289C90.5274 127.09 92.3855 128.446 93.0256 130.444L93.5478 132.075L94.0405 130.487C94.667 128.467 96.5356 127.09 98.6505 127.09H100.107C103.38 127.09 105.704 130.278 104.702 133.394L99.7358 148.839C99.0941 150.835 97.2373 152.189 95.1408 152.189H92.4278C90.3309 152.189 88.4739 150.835 87.8325 148.838L87.3252 147.259L86.8178 148.838C86.1765 150.835 84.3194 152.189 82.2225 152.189H79.48C77.3834 152.189 75.5267 150.835 74.885 148.839L69.9188 133.394C68.917 130.278 71.2409 127.09 74.5138 127.09ZM74.5138 129.986C73.2046 129.986 72.2751 131.261 72.6758 132.507L77.642 147.953C77.8987 148.751 78.6414 149.293 79.48 149.293H82.2225C83.0613 149.293 83.8041 148.751 84.0606 147.952L85.487 143.513C86.0611 141.726 88.5892 141.726 89.1633 143.513L90.5897 147.952C90.8462 148.751 91.589 149.293 92.4278 149.293H95.1408C95.9794 149.293 96.7221 148.751 96.9788 147.953L101.945 132.507C102.346 131.261 101.416 129.986 100.107 129.986H98.6505C97.8045 129.986 97.0571 130.537 96.8065 131.345L95.4065 135.858C94.8473 137.661 92.2996 137.672 91.7239 135.875L90.2675 131.328C90.0115 130.528 89.2683 129.986 88.4289 129.986H86.2191C85.3808 129.986 84.6383 130.527 84.3814 131.325L82.9107 135.891C82.3317 137.69 79.7816 137.672 79.2273 135.866L77.8411 131.35C77.5922 130.539 76.8435 129.986 75.9954 129.986H74.5138Z" fill="white"/>
<path d="M105.074 130.951H113.016C114.65 130.951 116.097 131.175 117.359 131.621C118.641 132.068 119.644 132.73 120.368 133.607C121.113 134.484 121.485 135.535 121.485 136.76C121.485 138.001 121.113 139.06 120.368 139.937C119.644 140.798 118.641 141.451 117.359 141.898C116.097 142.345 114.65 142.568 113.016 142.568H110.565V148.327H105.074V130.951ZM113.016 138.746C113.885 138.746 114.598 138.58 115.156 138.249C115.735 137.902 116.025 137.405 116.025 136.76C116.025 136.114 115.735 135.626 115.156 135.295C114.598 134.948 113.885 134.774 113.016 134.774H110.565V138.746H113.016Z" fill="#00A3FF"/>
<path d="M72.8281 130.951H78.0382L81.4192 141.526L84.9664 130.951H89.6776L93.1972 141.501L96.6059 130.951H101.788L95.9685 148.327H90.7862L87.322 137.976L83.8579 148.327H78.6479L72.8281 130.951Z" fill="#00A3FF"/>
</g>
<defs>
<clipPath id="clip0_27050_11304">
<rect width="504" height="504" fill="white"/>
</clipPath>
</defs>
</svg>
