<svg width="504" height="504" viewBox="0 0 504 504" fill="none" xmlns="http://www.w3.org/2000/svg">
<g clip-path="url(#clip0_27050_11271)">
<circle cx="252" cy="252" r="252" fill="#00A3FF"/>
<path d="M166.173 227.455L164.099 230.543C140.248 267.599 145.433 315.978 177.58 346.859C195.21 365.387 220.098 374.651 244.986 374.651C244.986 374.651 244.986 374.651 166.173 227.455Z" fill="white"/>
<path d="M244.747 272.746L165.934 227.455C244.747 375.68 244.747 375.68 244.747 375.68C244.747 343.771 244.747 306.714 244.747 272.746Z" fill="white"/>
<path d="M337.677 227.455L339.751 230.543C363.602 267.599 358.417 315.978 326.27 346.859C307.603 365.387 283.752 374.651 258.863 374.651C258.863 374.651 258.863 374.651 337.677 227.455Z" fill="white"/>
<path d="M258.93 272.746L337.743 227.455C258.93 375.68 258.93 375.68 258.93 375.68C258.93 343.771 258.93 306.714 258.93 272.746Z" fill="white"/>
<path d="M250.215 170.494V257.668L327.5 214.662L250.215 170.494Z" fill="white"/>
<path d="M250.215 170.494L172.93 214.662L250.215 257.668V170.494Z" fill="white"/>
<path d="M250.355 97.3184L173.07 214.712L250.355 170.544V97.3184Z" fill="white"/>
<path d="M250.352 170.544L327.637 214.712L250.352 97.3184V170.544Z" fill="white"/>
<circle cx="251.983" cy="255.862" r="50.2641" fill="#00A3FF"/>
<path fill-rule="evenodd" clip-rule="evenodd" d="M253.311 224.281C252.356 223.74 251.186 223.74 250.231 224.281L223.868 239.227C222.472 240.018 223.034 242.147 224.638 242.147H278.903C280.508 242.147 281.069 240.018 279.674 239.227L253.311 224.281ZM243.38 267.417C241.168 269.175 238.306 270.236 235.18 270.236C228.171 270.236 222.489 264.905 222.489 258.328C222.489 251.751 228.171 246.42 235.18 246.42H269.023C276.032 246.42 281.714 251.751 281.714 258.328C281.714 264.905 276.032 270.236 269.023 270.236C265.897 270.236 263.035 269.175 260.823 267.417C259.97 266.738 258.946 266.267 257.856 266.267H246.347C245.256 266.267 244.233 266.738 243.38 267.417ZM267.162 258.294C267.162 259.522 266.101 260.517 264.793 260.517C263.484 260.517 262.424 259.522 262.424 258.294C262.424 257.066 263.484 256.071 264.793 256.071C266.101 256.071 267.162 257.066 267.162 258.294ZM274.269 260.517C275.577 260.517 276.638 259.522 276.638 258.294C276.638 257.066 275.577 256.071 274.269 256.071C272.96 256.071 271.9 257.066 271.9 258.294C271.9 259.522 272.96 260.517 274.269 260.517ZM269.531 256.071C268.222 256.071 267.162 255.076 267.162 253.848C267.162 252.621 268.222 251.625 269.531 251.625C270.839 251.625 271.9 252.621 271.9 253.848C271.9 255.076 270.839 256.071 269.531 256.071ZM267.162 262.74C267.162 263.967 268.222 264.962 269.531 264.962C270.839 264.962 271.9 263.967 271.9 262.74C271.9 261.512 270.839 260.517 269.531 260.517C268.222 260.517 267.162 261.512 267.162 262.74ZM225.091 274.452H278.959C279.974 274.452 280.796 275.226 280.796 276.18C280.796 277.134 279.974 277.908 278.959 277.908H225.091C224.076 277.908 223.254 277.134 223.254 276.18C223.254 275.226 224.076 274.452 225.091 274.452ZM282.479 280.211H221.571C220.557 280.211 219.734 280.985 219.734 281.939C219.734 282.893 220.557 283.667 221.571 283.667H282.479C283.494 283.667 284.316 282.893 284.316 281.939C284.316 280.985 283.494 280.211 282.479 280.211ZM236.677 262.944C236.677 263.295 236.393 263.579 236.042 263.579H233.428C233.077 263.579 232.793 263.295 232.793 262.944V260.182H230.032C229.681 260.182 229.397 259.898 229.397 259.547V256.933C229.397 256.583 229.681 256.299 230.032 256.299H232.793L232.793 253.534C232.793 253.184 233.077 252.9 233.428 252.9H236.042C236.393 252.9 236.677 253.184 236.677 253.534L236.677 256.299H239.441C239.792 256.299 240.076 256.583 240.076 256.933V259.547C240.076 259.898 239.792 260.182 239.441 260.182H236.677V262.944Z" fill="white"/>
<mask id="path-12-inside-1_27050_11271" fill="white">
<path d="M436.84 192.949C439.184 192.227 441.675 193.54 442.346 195.9C449.036 219.457 451.3 244.065 449.01 268.472C446.581 294.354 439.078 319.505 426.93 342.488C414.781 365.471 398.225 385.836 378.206 402.42C359.328 418.059 337.719 430.048 314.485 437.788C312.158 438.563 309.669 437.244 308.946 434.9V434.9C308.223 432.555 309.54 430.074 311.866 429.296C333.986 421.901 354.558 410.474 372.538 395.579C391.659 379.739 407.472 360.288 419.075 338.336C430.679 316.385 437.845 292.363 440.165 267.642C442.346 244.396 440.202 220.96 433.854 198.518C433.186 196.158 434.495 193.672 436.84 192.949V192.949Z"/>
</mask>
<path d="M436.84 192.949C439.184 192.227 441.675 193.54 442.346 195.9C449.036 219.457 451.3 244.065 449.01 268.472C446.581 294.354 439.078 319.505 426.93 342.488C414.781 365.471 398.225 385.836 378.206 402.42C359.328 418.059 337.719 430.048 314.485 437.788C312.158 438.563 309.669 437.244 308.946 434.9V434.9C308.223 432.555 309.54 430.074 311.866 429.296C333.986 421.901 354.558 410.474 372.538 395.579C391.659 379.739 407.472 360.288 419.075 338.336C430.679 316.385 437.845 292.363 440.165 267.642C442.346 244.396 440.202 220.96 433.854 198.518C433.186 196.158 434.495 193.672 436.84 192.949V192.949Z" stroke="white" stroke-width="15.8366" mask="url(#path-12-inside-1_27050_11271)"/>
<mask id="path-13-inside-2_27050_11271" fill="white">
<path d="M131.999 98.3386C130.477 96.4145 130.8 93.6165 132.758 92.1381C167.501 65.9015 209.966 51.8243 253.584 52.1619C297.201 52.4994 339.443 67.232 373.776 94.0031C375.711 95.5116 375.99 98.3143 374.439 100.215V100.215C372.887 102.115 370.092 102.393 368.156 100.887C335.392 75.3945 295.109 61.3675 253.515 61.0456C211.921 60.7238 171.425 74.1257 138.271 99.1076C136.312 100.584 133.521 100.263 131.999 98.3386V98.3386Z"/>
</mask>
<path d="M131.999 98.3386C130.477 96.4145 130.8 93.6165 132.758 92.1381C167.501 65.9015 209.966 51.8243 253.584 52.1619C297.201 52.4994 339.443 67.232 373.776 94.0031C375.711 95.5116 375.99 98.3143 374.439 100.215V100.215C372.887 102.115 370.092 102.393 368.156 100.887C335.392 75.3945 295.109 61.3675 253.515 61.0456C211.921 60.7238 171.425 74.1257 138.271 99.1076C136.312 100.584 133.521 100.263 131.999 98.3386V98.3386Z" stroke="white" stroke-width="15.8366" mask="url(#path-13-inside-2_27050_11271)"/>
<mask id="path-14-inside-3_27050_11271" fill="white">
<path d="M196.952 435.62C196.254 437.972 193.779 439.317 191.444 438.566C167.71 430.933 145.618 418.881 126.338 403.031C105.914 386.241 89.061 365.53 76.7726 342.12C64.4842 318.709 57.0099 293.075 54.7908 266.729C52.6961 241.859 55.3242 216.831 62.5221 192.961C63.2304 190.612 65.743 189.34 68.0753 190.1V190.1C70.4076 190.861 71.6762 193.367 70.9704 195.717C64.139 218.458 61.6484 242.295 63.6435 265.983C65.763 291.147 72.9019 315.631 84.6388 337.99C96.3757 360.35 112.473 380.132 131.98 396.169C150.343 411.264 171.377 422.754 193.974 430.047C196.309 430.801 197.651 433.268 196.952 435.62V435.62Z"/>
</mask>
<path d="M196.952 435.62C196.254 437.972 193.779 439.317 191.444 438.566C167.71 430.933 145.618 418.881 126.338 403.031C105.914 386.241 89.061 365.53 76.7726 342.12C64.4842 318.709 57.0099 293.075 54.7908 266.729C52.6961 241.859 55.3242 216.831 62.5221 192.961C63.2304 190.612 65.743 189.34 68.0753 190.1V190.1C70.4076 190.861 71.6762 193.367 70.9704 195.717C64.139 218.458 61.6484 242.295 63.6435 265.983C65.763 291.147 72.9019 315.631 84.6388 337.99C96.3757 360.35 112.473 380.132 131.98 396.169C150.343 411.264 171.377 422.754 193.974 430.047C196.309 430.801 197.651 433.268 196.952 435.62V435.62Z" stroke="white" stroke-width="15.8366" mask="url(#path-14-inside-3_27050_11271)"/>
<circle cx="405.165" cy="144.139" r="37.6119" fill="#00A3FF" stroke="white" stroke-width="7.9183"/>
<mask id="path-16-outside-4_27050_11271" maskUnits="userSpaceOnUse" x="384.109" y="128.773" width="43" height="30" fill="black">
<rect fill="white" x="384.109" y="128.773" width="43" height="30"/>
<path d="M402.136 153.814V157.773H384.716V148.628L398.177 141.066V137.186C398.177 135.404 396.791 134.019 395.009 134.019H391.842C390.1 134.019 388.675 135.444 388.675 137.186V138.572H384.716V137.186C384.716 133.227 387.922 130.059 391.842 130.059H395.009C398.969 130.059 402.136 133.227 402.136 137.186V143.402L388.675 150.964V153.814H402.136ZM418.749 153.775C419.422 153.775 420.016 153.577 420.53 153.22L412.414 139.997V150.607C412.414 152.349 413.839 153.775 415.581 153.775H418.749ZM408.455 150.607V137.186C408.455 133.227 411.662 130.059 415.581 130.059H418.749C422.708 130.059 425.875 133.227 425.875 137.186V150.607C425.875 154.527 422.708 157.773 418.749 157.773H415.581C411.662 157.773 408.455 154.527 408.455 150.607ZM413.76 134.573L421.916 147.836V137.186C421.916 135.404 420.53 134.019 418.749 134.019H415.581C414.908 134.019 414.275 134.216 413.76 134.573Z"/>
</mask>
<path d="M402.136 153.814V157.773H384.716V148.628L398.177 141.066V137.186C398.177 135.404 396.791 134.019 395.009 134.019H391.842C390.1 134.019 388.675 135.444 388.675 137.186V138.572H384.716V137.186C384.716 133.227 387.922 130.059 391.842 130.059H395.009C398.969 130.059 402.136 133.227 402.136 137.186V143.402L388.675 150.964V153.814H402.136ZM418.749 153.775C419.422 153.775 420.016 153.577 420.53 153.22L412.414 139.997V150.607C412.414 152.349 413.839 153.775 415.581 153.775H418.749ZM408.455 150.607V137.186C408.455 133.227 411.662 130.059 415.581 130.059H418.749C422.708 130.059 425.875 133.227 425.875 137.186V150.607C425.875 154.527 422.708 157.773 418.749 157.773H415.581C411.662 157.773 408.455 154.527 408.455 150.607ZM413.76 134.573L421.916 147.836V137.186C421.916 135.404 420.53 134.019 418.749 134.019H415.581C414.908 134.019 414.275 134.216 413.76 134.573Z" fill="white"/>
<path d="M402.136 153.814H402.423V153.527H402.136V153.814ZM402.136 157.773V158.061H402.423V157.773H402.136ZM384.716 157.773H384.428V158.061H384.716V157.773ZM384.716 148.628L384.575 148.377L384.428 148.46V148.628H384.716ZM398.177 141.066L398.318 141.317L398.464 141.234V141.066H398.177ZM388.675 138.572V138.859H388.962V138.572H388.675ZM384.716 138.572H384.428V138.859H384.716V138.572ZM402.136 143.402L402.277 143.652L402.423 143.57V143.402H402.136ZM388.675 150.964L388.534 150.713L388.387 150.795V150.964H388.675ZM388.675 153.814H388.387V154.102H388.675V153.814ZM401.848 153.814V157.773H402.423V153.814H401.848ZM402.136 157.486H384.716V158.061H402.136V157.486ZM385.003 157.773V148.628H384.428V157.773H385.003ZM384.856 148.878L398.318 141.317L398.036 140.815L384.575 148.377L384.856 148.878ZM398.464 141.066V137.186H397.889V141.066H398.464ZM398.464 137.186C398.464 135.245 396.95 133.731 395.009 133.731V134.306C396.632 134.306 397.889 135.563 397.889 137.186H398.464ZM395.009 133.731H391.842V134.306H395.009V133.731ZM391.842 133.731C389.941 133.731 388.387 135.285 388.387 137.186H388.962C388.962 135.603 390.259 134.306 391.842 134.306V133.731ZM388.387 137.186V138.572H388.962V137.186H388.387ZM388.675 138.284H384.716V138.859H388.675V138.284ZM385.003 138.572V137.186H384.428V138.572H385.003ZM385.003 137.186C385.003 133.387 388.08 130.347 391.842 130.347V129.772C387.765 129.772 384.428 133.067 384.428 137.186H385.003ZM391.842 130.347H395.009V129.772H391.842V130.347ZM395.009 130.347C398.81 130.347 401.848 133.385 401.848 137.186H402.423C402.423 133.068 399.127 129.772 395.009 129.772V130.347ZM401.848 137.186V143.402H402.423V137.186H401.848ZM401.995 143.151L388.534 150.713L388.816 151.214L402.277 143.652L401.995 143.151ZM388.387 150.964V153.814H388.962V150.964H388.387ZM388.675 154.102H402.136V153.527H388.675V154.102ZM420.53 153.22L420.694 153.457L420.918 153.302L420.775 153.07L420.53 153.22ZM412.414 139.997L412.659 139.846L412.127 138.979V139.997H412.414ZM413.76 134.573L413.597 134.336L413.373 134.491L413.515 134.723L413.76 134.573ZM421.916 147.836L421.671 147.987L422.204 148.852V147.836H421.916ZM418.749 154.062C419.482 154.062 420.133 153.846 420.694 153.457L420.367 152.984C419.899 153.308 419.362 153.487 418.749 153.487V154.062ZM420.775 153.07L412.659 139.846L412.169 140.147L420.285 153.371L420.775 153.07ZM412.127 139.997V150.607H412.702V139.997H412.127ZM412.127 150.607C412.127 152.508 413.681 154.062 415.581 154.062V153.487C413.998 153.487 412.702 152.191 412.702 150.607H412.127ZM415.581 154.062H418.749V153.487H415.581V154.062ZM408.743 150.607V137.186H408.167V150.607H408.743ZM408.743 137.186C408.743 133.387 411.82 130.347 415.581 130.347V129.772C411.504 129.772 408.167 133.067 408.167 137.186H408.743ZM415.581 130.347H418.749V129.772H415.581V130.347ZM418.749 130.347C422.549 130.347 425.588 133.385 425.588 137.186H426.163C426.163 133.068 422.867 129.772 418.749 129.772V130.347ZM425.588 137.186V150.607H426.163V137.186H425.588ZM425.588 150.607C425.588 154.371 422.546 157.486 418.749 157.486V158.061C422.87 158.061 426.163 154.683 426.163 150.607H425.588ZM418.749 157.486H415.581V158.061H418.749V157.486ZM415.581 157.486C411.823 157.486 408.743 154.37 408.743 150.607H408.167C408.167 154.684 411.501 158.061 415.581 158.061V157.486ZM413.515 134.723L421.671 147.987L422.161 147.685L414.005 134.422L413.515 134.723ZM422.204 147.836V137.186H421.629V147.836H422.204ZM422.204 137.186C422.204 135.245 420.689 133.731 418.749 133.731V134.306C420.372 134.306 421.629 135.563 421.629 137.186H422.204ZM418.749 133.731H415.581V134.306H418.749V133.731ZM415.581 133.731C414.852 133.731 414.161 133.946 413.597 134.336L413.924 134.809C414.389 134.487 414.965 134.306 415.581 134.306V133.731Z" fill="white" mask="url(#path-16-outside-4_27050_11271)"/>
<circle cx="252.689" cy="444.859" r="40.1789" fill="#00A3FF" stroke="white" stroke-width="7.9183"/>
<mask id="path-19-outside-5_27050_11271" maskUnits="userSpaceOnUse" x="231.715" y="430.74" width="43" height="30" fill="black">
<rect fill="white" x="231.715" y="430.74" width="43" height="30"/>
<path d="M236.205 452.614C236.205 454.356 237.631 455.781 239.373 455.781H242.54C244.322 455.781 245.707 454.395 245.707 452.614V449.288C245.707 447.546 244.282 446.121 242.54 446.121H240.719L236.205 449.169V452.614ZM232.246 452.614V439.153C232.246 435.193 235.414 432.026 239.373 432.026H242.54C246.499 432.026 249.667 435.193 249.667 439.153V440.34H245.707V439.153C245.707 437.371 244.322 435.985 242.54 435.985H239.373C237.591 435.985 236.205 437.371 236.205 439.153V444.379L239.492 442.162H242.54C246.46 442.162 249.667 445.329 249.667 449.288V452.614C249.667 456.573 246.499 459.74 242.54 459.74H239.373C235.453 459.74 232.246 456.573 232.246 452.614ZM255.194 439.549H259.153V441.845L261.529 439.549H261.845C263.944 439.549 265.408 440.459 266.161 442.36L269.051 439.549H269.368C272.495 439.549 274.198 441.528 274.198 445.883V459.74H270.239V445.883C270.239 445.131 270.239 444.498 270.159 444.062L266.675 447.388V459.74H262.716V445.883C262.716 445.131 262.716 444.498 262.637 444.062L259.153 447.388V459.74H255.194V439.549ZM261.41 442.874H261.647H261.41ZM268.932 442.874H269.17H268.932Z"/>
</mask>
<path d="M236.205 452.614C236.205 454.356 237.631 455.781 239.373 455.781H242.54C244.322 455.781 245.707 454.395 245.707 452.614V449.288C245.707 447.546 244.282 446.121 242.54 446.121H240.719L236.205 449.169V452.614ZM232.246 452.614V439.153C232.246 435.193 235.414 432.026 239.373 432.026H242.54C246.499 432.026 249.667 435.193 249.667 439.153V440.34H245.707V439.153C245.707 437.371 244.322 435.985 242.54 435.985H239.373C237.591 435.985 236.205 437.371 236.205 439.153V444.379L239.492 442.162H242.54C246.46 442.162 249.667 445.329 249.667 449.288V452.614C249.667 456.573 246.499 459.74 242.54 459.74H239.373C235.453 459.74 232.246 456.573 232.246 452.614ZM255.194 439.549H259.153V441.845L261.529 439.549H261.845C263.944 439.549 265.408 440.459 266.161 442.36L269.051 439.549H269.368C272.495 439.549 274.198 441.528 274.198 445.883V459.74H270.239V445.883C270.239 445.131 270.239 444.498 270.159 444.062L266.675 447.388V459.74H262.716V445.883C262.716 445.131 262.716 444.498 262.637 444.062L259.153 447.388V459.74H255.194V439.549ZM261.41 442.874H261.647H261.41ZM268.932 442.874H269.17H268.932Z" fill="white"/>
<path d="M240.719 446.121V445.833H240.631L240.558 445.882L240.719 446.121ZM236.205 449.169L236.044 448.931L235.918 449.017V449.169H236.205ZM249.667 440.34V440.628H249.954V440.34H249.667ZM245.707 440.34H245.42V440.628H245.707V440.34ZM236.205 444.379H235.918V444.92L236.366 444.617L236.205 444.379ZM239.492 442.162V441.874H239.404L239.331 441.923L239.492 442.162ZM235.918 452.614C235.918 454.515 237.472 456.069 239.373 456.069V455.494C237.79 455.494 236.493 454.197 236.493 452.614H235.918ZM239.373 456.069H242.54V455.494H239.373V456.069ZM242.54 456.069C244.48 456.069 245.995 454.554 245.995 452.614H245.42C245.42 454.237 244.163 455.494 242.54 455.494V456.069ZM245.995 452.614V449.288H245.42V452.614H245.995ZM245.995 449.288C245.995 447.387 244.441 445.833 242.54 445.833V446.408C244.123 446.408 245.42 447.705 245.42 449.288H245.995ZM242.54 445.833H240.719V446.408H242.54V445.833ZM240.558 445.882L236.044 448.931L236.366 449.408L240.88 446.359L240.558 445.882ZM235.918 449.169V452.614H236.493V449.169H235.918ZM232.534 452.614V439.153H231.959V452.614H232.534ZM232.534 439.153C232.534 435.352 235.572 432.314 239.373 432.314V431.739C235.255 431.739 231.959 435.035 231.959 439.153H232.534ZM239.373 432.314H242.54V431.739H239.373V432.314ZM242.54 432.314C246.34 432.314 249.379 435.352 249.379 439.153H249.954C249.954 435.035 246.658 431.739 242.54 431.739V432.314ZM249.379 439.153V440.34H249.954V439.153H249.379ZM249.667 440.053H245.707V440.628H249.667V440.053ZM245.995 440.34V439.153H245.42V440.34H245.995ZM245.995 439.153C245.995 437.212 244.48 435.698 242.54 435.698V436.273C244.163 436.273 245.42 437.53 245.42 439.153H245.995ZM242.54 435.698H239.373V436.273H242.54V435.698ZM239.373 435.698C237.432 435.698 235.918 437.212 235.918 439.153H236.493C236.493 437.53 237.75 436.273 239.373 436.273V435.698ZM235.918 439.153V444.379H236.493V439.153H235.918ZM236.366 444.617L239.652 442.4L239.331 441.923L236.045 444.14L236.366 444.617ZM239.492 442.449H242.54V441.874H239.492V442.449ZM242.54 442.449C246.302 442.449 249.379 445.489 249.379 449.288H249.954C249.954 445.169 246.617 441.874 242.54 441.874V442.449ZM249.379 449.288V452.614H249.954V449.288H249.379ZM249.379 452.614C249.379 456.414 246.34 459.453 242.54 459.453V460.028C246.658 460.028 249.954 456.732 249.954 452.614H249.379ZM242.54 459.453H239.373V460.028H242.54V459.453ZM239.373 459.453C235.611 459.453 232.534 456.413 232.534 452.614H231.959C231.959 456.733 235.295 460.028 239.373 460.028V459.453ZM255.194 439.549V439.261H254.906V439.549H255.194ZM259.153 439.549H259.441V439.261H259.153V439.549ZM259.153 441.845H258.865V442.523L259.353 442.052L259.153 441.845ZM261.529 439.549V439.261H261.412L261.329 439.342L261.529 439.549ZM266.161 442.36L265.893 442.465L266.052 442.866L266.361 442.566L266.161 442.36ZM269.051 439.549V439.261H268.934L268.85 439.342L269.051 439.549ZM274.198 459.74V460.028H274.485V459.74H274.198ZM270.239 459.74H269.951V460.028H270.239V459.74ZM270.159 444.062L270.442 444.011L270.347 443.486L269.961 443.854L270.159 444.062ZM266.675 447.388L266.477 447.18L266.388 447.265V447.388H266.675ZM266.675 459.74V460.028H266.963V459.74H266.675ZM262.716 459.74H262.429V460.028H262.716V459.74ZM262.637 444.062L262.92 444.011L262.825 443.486L262.439 443.854L262.637 444.062ZM259.153 447.388L258.954 447.18L258.865 447.265V447.388H259.153ZM259.153 459.74V460.028H259.441V459.74H259.153ZM255.194 459.74H254.906V460.028H255.194V459.74ZM255.194 439.836H259.153V439.261H255.194V439.836ZM258.865 439.549V441.845H259.441V439.549H258.865ZM259.353 442.052L261.728 439.755L261.329 439.342L258.953 441.638L259.353 442.052ZM261.529 439.836H261.845V439.261H261.529V439.836ZM261.845 439.836C262.853 439.836 263.686 440.055 264.352 440.483C265.016 440.911 265.536 441.562 265.893 442.465L266.428 442.254C266.034 441.257 265.444 440.502 264.663 440C263.884 439.498 262.936 439.261 261.845 439.261V439.836ZM266.361 442.566L269.251 439.755L268.85 439.342L265.96 442.153L266.361 442.566ZM269.051 439.836H269.368V439.261H269.051V439.836ZM269.368 439.836C270.867 439.836 271.98 440.307 272.73 441.26C273.489 442.227 273.91 443.735 273.91 445.883H274.485C274.485 443.676 274.055 442.017 273.182 440.905C272.298 439.78 270.996 439.261 269.368 439.261V439.836ZM273.91 445.883V459.74H274.485V445.883H273.91ZM274.198 459.453H270.239V460.028H274.198V459.453ZM270.526 459.74V445.883H269.951V459.74H270.526ZM270.526 445.883C270.526 445.143 270.527 444.478 270.442 444.011L269.877 444.113C269.95 444.517 269.951 445.119 269.951 445.883H270.526ZM269.961 443.854L266.477 447.18L266.874 447.596L270.358 444.27L269.961 443.854ZM266.388 447.388V459.74H266.963V447.388H266.388ZM266.675 459.453H262.716V460.028H266.675V459.453ZM263.004 459.74V445.883H262.429V459.74H263.004ZM263.004 445.883C263.004 445.143 263.005 444.478 262.92 444.011L262.354 444.113C262.428 444.517 262.429 445.119 262.429 445.883H263.004ZM262.439 443.854L258.954 447.18L259.352 447.596L262.836 444.27L262.439 443.854ZM258.865 447.388V459.74H259.441V447.388H258.865ZM259.153 459.453H255.194V460.028H259.153V459.453ZM255.481 459.74V439.549H254.906V459.74H255.481ZM261.41 443.162H261.647V442.587H261.41V443.162ZM261.647 442.587H261.41V443.162H261.647V442.587ZM268.932 443.162H269.17V442.587H268.932V443.162ZM269.17 442.587H268.932V443.162H269.17V442.587Z" fill="white" mask="url(#path-19-outside-5_27050_11271)"/>
<circle cx="97.4896" cy="139.63" r="40.1789" fill="#00A3FF" stroke="white" stroke-width="7.9183"/>
<path d="M104.683 131.917C104.683 130.85 105.547 129.986 106.613 129.986H113.091C114.821 129.986 116.354 130.234 117.69 130.731C119.048 131.227 120.11 131.962 120.876 132.937C121.664 133.912 122.059 135.079 122.059 136.44C122.059 137.819 121.664 138.996 120.876 139.97C120.11 140.926 119.048 141.653 117.69 142.149C116.354 142.646 114.821 142.894 113.091 142.894H112.427C111.361 142.894 110.496 143.758 110.496 144.824V147.362C110.496 148.428 109.632 149.293 108.566 149.293H106.613C105.547 149.293 104.683 148.428 104.683 147.362V131.917ZM113.091 138.646C114.011 138.646 114.767 138.462 115.358 138.095C115.971 137.709 116.278 137.157 116.278 136.44C116.278 135.723 115.971 135.18 115.358 134.813C114.767 134.426 114.011 134.233 113.091 134.233H112.427C111.361 134.233 110.496 135.098 110.496 136.164V136.716C110.496 137.782 111.361 138.646 112.427 138.646H113.091Z" fill="white"/>
<path fill-rule="evenodd" clip-rule="evenodd" d="M115.358 134.813C115.971 135.18 116.278 135.723 116.278 136.44C116.278 137.157 115.971 137.709 115.358 138.095C114.767 138.462 114.011 138.646 113.091 138.646H112.427C111.361 138.646 110.496 137.782 110.496 136.716V136.164C110.496 135.098 111.361 134.233 112.427 134.233H113.091C114.011 134.233 114.767 134.426 115.358 134.813ZM106.613 127.09H113.091C115.092 127.09 116.974 127.376 118.692 128.013C120.46 128.661 121.992 129.678 123.14 131.131C124.374 132.663 124.955 134.483 124.955 136.44C124.955 138.409 124.377 140.245 123.132 141.787C121.981 143.22 120.451 144.222 118.692 144.866C117.061 145.471 115.281 145.76 113.392 145.788V147.362C113.392 150.028 111.231 152.189 108.566 152.189H106.613C103.947 152.189 101.787 150.028 101.787 147.362V131.917C101.787 129.251 103.947 127.09 106.613 127.09ZM117.69 142.149C119.048 141.653 120.11 140.926 120.876 139.97C121.664 138.996 122.059 137.819 122.059 136.44C122.059 135.079 121.664 133.912 120.876 132.937C120.11 131.962 119.048 131.227 117.69 130.731C116.354 130.234 114.821 129.986 113.091 129.986H106.613C105.547 129.986 104.683 130.85 104.683 131.917V147.362C104.683 148.428 105.547 149.293 106.613 149.293H108.566C109.632 149.293 110.496 148.428 110.496 147.362V144.824C110.496 143.758 111.361 142.894 112.427 142.894H113.091C114.821 142.894 116.354 142.646 117.69 142.149Z" fill="white"/>
<path d="M72.6719 132.507C72.2712 131.261 73.2007 129.986 74.5099 129.986H75.9915C76.8396 129.986 77.5883 130.539 77.8372 131.35L79.2234 135.866C79.7777 137.672 82.3278 137.69 82.9068 135.891L84.3774 131.325C84.6344 130.527 85.3769 129.986 86.2152 129.986H88.425C89.2644 129.986 90.0076 130.528 90.2636 131.328L91.72 135.875C92.2957 137.672 94.8434 137.661 95.4026 135.858L96.8026 131.345C97.0532 130.537 97.8006 129.986 98.6466 129.986H100.103C101.412 129.986 102.342 131.261 101.941 132.507L96.9749 147.953C96.7182 148.751 95.9755 149.293 95.1369 149.293H92.4239C91.5851 149.293 90.8423 148.751 90.5858 147.952L89.1594 143.513C88.5853 141.726 86.0572 141.726 85.4831 143.513L84.0567 147.952C83.8002 148.751 83.0574 149.293 82.2186 149.293H79.476C78.6374 149.293 77.8947 148.751 77.6381 147.953L72.6719 132.507Z" fill="white"/>
<path fill-rule="evenodd" clip-rule="evenodd" d="M74.5099 127.09H75.9915C78.1117 127.09 79.9836 128.473 80.6057 130.5L81.0912 132.082L81.6209 130.437C82.2632 128.442 84.1195 127.09 86.2152 127.09H88.425C90.5235 127.09 92.3816 128.446 93.0217 130.444L93.5439 132.075L94.0366 130.487C94.6631 128.467 96.5317 127.09 98.6466 127.09H100.103C103.376 127.09 105.7 130.278 104.698 133.394L99.7319 148.839C99.0902 150.835 97.2334 152.189 95.1369 152.189H92.4239C90.327 152.189 88.47 150.835 87.8286 148.838L87.3213 147.259L86.8139 148.838C86.1725 150.835 84.3155 152.189 82.2186 152.189H79.476C77.3795 152.189 75.5228 150.835 74.881 148.839L69.9149 133.394C68.9131 130.278 71.237 127.09 74.5099 127.09ZM74.5099 129.986C73.2007 129.986 72.2712 131.261 72.6719 132.507L77.6381 147.953C77.8947 148.751 78.6374 149.293 79.476 149.293H82.2186C83.0574 149.293 83.8002 148.751 84.0567 147.952L85.4831 143.513C86.0572 141.726 88.5853 141.726 89.1594 143.513L90.5858 147.952C90.8423 148.751 91.5851 149.293 92.4239 149.293H95.1369C95.9755 149.293 96.7182 148.751 96.9749 147.953L101.941 132.507C102.342 131.261 101.412 129.986 100.103 129.986H98.6466C97.8006 129.986 97.0532 130.537 96.8026 131.345L95.4026 135.858C94.8434 137.661 92.2957 137.672 91.72 135.875L90.2636 131.328C90.0076 130.528 89.2644 129.986 88.425 129.986H86.2152C85.3769 129.986 84.6344 130.527 84.3774 131.325L82.9068 135.891C82.3278 137.69 79.7777 137.672 79.2234 135.866L77.8372 131.35C77.5883 130.539 76.8396 129.986 75.9915 129.986H74.5099Z" fill="white"/>
<path d="M105.07 130.951H113.012C114.646 130.951 116.094 131.175 117.355 131.621C118.637 132.068 119.64 132.73 120.364 133.607C121.109 134.484 121.481 135.535 121.481 136.76C121.481 138.001 121.109 139.06 120.364 139.937C119.64 140.798 118.637 141.451 117.355 141.898C116.094 142.345 114.646 142.568 113.012 142.568H110.561V148.327H105.07V130.951ZM113.012 138.746C113.881 138.746 114.594 138.58 115.153 138.249C115.732 137.902 116.021 137.405 116.021 136.76C116.021 136.114 115.732 135.626 115.153 135.295C114.594 134.948 113.881 134.774 113.012 134.774H110.561V138.746H113.012Z" fill="#00A3FF"/>
<path d="M72.8242 130.951H78.0343L81.4153 141.526L84.9625 130.951H89.6737L93.1933 141.501L96.602 130.951H101.784L95.9646 148.327H90.7823L87.3181 137.976L83.854 148.327H78.644L72.8242 130.951Z" fill="#00A3FF"/>
</g>
<defs>
<clipPath id="clip0_27050_11271">
<rect width="504" height="504" fill="white"/>
</clipPath>
</defs>
</svg>
