<svg width="256" height="256" viewBox="0 0 256 256" fill="none" xmlns="http://www.w3.org/2000/svg">
<path d="M256 127.998C256 161.946 242.514 194.504 218.509 218.509C194.504 242.514 161.946 256 127.998 256C94.0514 255.999 61.495 242.513 37.491 218.509C13.487 194.505 0.00116778 161.95 0 128.002C-2.00871e-08 94.0551 13.4853 61.4975 37.4895 37.4926C61.4936 13.4876 94.0505 0.00116783 127.998 0C161.946 -2.00871e-08 194.503 13.4853 218.508 37.4895C242.512 61.4935 255.999 94.0505 256 127.998Z" fill="white"/>
<path d="M127.431 46C116.803 46 106.792 48.4892 97.8097 52.9698C93.6955 48.7026 88.0044 46 81.6961 46C69.1481 46 59 56.5259 59 69.541V116.979V187.459C59 200.474 69.1481 211 81.6961 211C94.2441 211 104.392 200.474 104.392 187.459V116.979C104.392 103.75 114.746 93.0107 127.5 93.0107C140.253 93.0107 150.607 103.75 150.607 116.979V187.459C150.607 200.474 160.755 211 173.303 211C185.851 211 196 200.474 196 187.459V116.979C195.862 77.862 165.144 46 127.431 46Z" fill="url(#paint0_linear_1828_413)"/>
<defs>
<linearGradient id="paint0_linear_1828_413" x1="127.5" y1="46" x2="127.5" y2="211" gradientUnits="userSpaceOnUse">
<stop stop-color="#AD8AFF"/>
<stop offset="1" stop-color="#59AFFF"/>
</linearGradient>
</defs>
</svg>
