<svg width="256" height="256" viewBox="0 0 256 256" fill="none" xmlns="http://www.w3.org/2000/svg">
<g clip-path="url(#clip0_741_46)">
<path d="M128.301 255.711C198.658 255.711 255.695 198.673 255.695 128.312C255.695 57.9516 198.658 0.913086 128.301 0.913086C57.943 0.913086 0.906738 57.9516 0.906738 128.312C0.906738 198.673 57.943 255.711 128.301 255.711Z" fill="white"/>
<path d="M57.3815 193.24L63.7512 58.3049H104.834L162.766 150.836L166.66 45.3392L207.237 27.4671C185.445 10.2637 157.924 -0.000488281 127.999 -0.000488281C57.3092 -0.000488281 -3.05176e-05 57.3111 -3.05176e-05 128.004C-3.05176e-05 157.712 10.1282 185.062 27.1141 206.784L57.3815 193.24Z" fill="#00B1B1"/>
<path d="M228.75 49.0452L199.404 62.1737L193.034 197.108H151.961L151.88 196.981L94.0195 104.577L90.1254 210.075L48.5732 228.37C70.402 245.664 97.9951 256.001 128 256.001C198.69 256.001 256 198.69 256 127.997C256 98.2068 245.818 70.7844 228.75 49.0361V49.0452Z" fill="#00B1B1"/>
</g>
<defs>
<clipPath id="clip0_741_46">
<rect width="256" height="256" fill="white"/>
</clipPath>
</defs>
</svg>
