<svg width="256" height="256" viewBox="0 0 256 256" fill="none" xmlns="http://www.w3.org/2000/svg">
<path d="M128 252.8C196.925 252.8 252.8 196.925 252.8 128C252.8 59.0748 196.925 3.19995 128 3.19995C59.0751 3.19995 3.2002 59.0748 3.2002 128C3.2002 196.925 59.0751 252.8 128 252.8Z" fill="#03EA98"/>
<path d="M181.402 60C176.329 60 171.618 62.6307 168.96 66.9554L140.323 109.472C139.39 110.874 139.769 112.763 141.17 113.696C142.306 114.453 143.809 114.359 144.843 113.469L173.031 89.0198C173.499 88.5983 174.221 88.6412 174.643 89.1096C174.834 89.3242 174.935 89.6014 174.935 89.8863V166.435C174.935 167.067 174.424 167.574 173.792 167.574C173.452 167.574 173.132 167.426 172.917 167.165L87.7106 65.1678C84.9356 61.893 80.8608 60.0039 76.5714 60H73.5934C65.5336 60 59 66.5339 59 74.5938V182.406C59 190.466 65.5336 197 73.5934 197C78.6673 197 83.3783 194.37 86.0362 190.045L114.673 147.528C115.606 146.126 115.227 144.238 113.826 143.305C112.69 142.547 111.187 142.641 110.153 143.531L81.9654 167.98C81.497 168.402 80.775 168.359 80.3535 167.89C80.1622 167.676 80.0607 167.399 80.0646 167.114V90.546C80.0646 89.9136 80.5759 89.4062 81.2082 89.4062C81.5439 89.4062 81.8678 89.5546 82.0825 89.8161L167.278 191.832C170.053 195.107 174.128 196.996 178.417 197H181.395C189.455 197.004 195.992 190.474 196 182.414V74.5938C196 66.5339 189.462 60 181.402 60Z" fill="black"/>
</svg>
