<svg width="256" height="256" viewBox="0 0 256 256" fill="none" xmlns="http://www.w3.org/2000/svg">
<g clip-path="url(#clip0_1773_432)">
<path d="M127.999 256C198.692 256 255.999 198.692 255.999 128C255.999 57.3076 198.692 0 127.999 0C57.3066 0 -0.000976562 57.3076 -0.000976562 128C-0.000976562 198.692 57.3066 256 127.999 256Z" fill="#161718"/>
<path d="M202.291 74.2949C216.535 93.999 222.368 118.555 218.506 142.559C214.645 166.564 201.406 188.052 181.702 202.295C161.998 216.538 137.443 222.371 113.438 218.51C89.4337 214.648 67.9459 201.41 53.7024 181.705L92.7668 153.467C99.5209 162.81 109.711 169.088 121.093 170.919C132.476 172.751 144.12 169.984 153.464 163.23C162.808 156.476 169.086 146.287 170.916 134.904C172.747 123.521 169.982 111.877 163.227 102.533L202.291 74.2949Z" fill="url(#paint0_linear_1773_432)"/>
<path fill-rule="evenodd" clip-rule="evenodd" d="M142.56 37.49C166.564 41.3513 188.052 54.5902 202.295 74.2944L163.231 102.533C156.477 93.1894 146.287 86.9114 134.904 85.0806C123.522 83.2496 111.877 86.0154 102.534 92.7695C93.1899 99.5237 86.9128 109.713 85.0815 121.096C83.498 130.94 85.3521 140.979 90.2511 149.557C91.3664 150.606 92.3989 151.776 93.329 153.063C101.239 164.004 98.7801 179.286 87.8387 187.196C76.8965 195.105 61.6145 192.647 53.705 181.705C53.6573 181.639 53.6101 181.573 53.5632 181.507C39.4235 161.837 33.6426 137.365 37.491 113.441C41.3523 89.4364 54.5912 67.9485 74.2954 53.705C93.9998 39.4615 118.555 33.6288 142.56 37.49Z" fill="url(#paint1_linear_1773_432)"/>
<path d="M196.803 108.428C207.744 100.519 210.203 85.237 202.293 74.2952C194.384 63.3534 179.102 60.8952 168.16 68.8046C157.218 76.7141 154.76 91.9961 162.669 102.938C170.579 113.88 185.861 116.338 196.803 108.428Z" fill="#ADF6E9"/>
</g>
<defs>
<linearGradient id="paint0_linear_1773_432" x1="178.283" y1="118.857" x2="48.7494" y2="185.286" gradientUnits="userSpaceOnUse">
<stop stop-color="#ADF6E9"/>
<stop offset="0.307839" stop-color="#25C3A6"/>
<stop offset="0.910688" stop-color="#193D36"/>
</linearGradient>
<linearGradient id="paint1_linear_1773_432" x1="89.7485" y1="148.109" x2="189.346" y2="45.9488" gradientUnits="userSpaceOnUse">
<stop stop-color="#ADF5E8"/>
<stop offset="0.381517" stop-color="#25C6A9"/>
<stop offset="1" stop-color="#1B4D43"/>
</linearGradient>
<clipPath id="clip0_1773_432">
<rect width="256" height="256" fill="white"/>
</clipPath>
</defs>
</svg>
