<svg width="256" height="256" viewBox="0 0 256 256" fill="none" xmlns="http://www.w3.org/2000/svg">
<circle cx="127" cy="128" r="125" fill="#1C1C1C"/>
<mask id="mask0_741_46" style="mask-type:luminance" maskUnits="userSpaceOnUse" x="62" y="45" width="131" height="167">
<path d="M193 45.6982H62V211.302H193V45.6982Z" fill="white"/>
</mask>
<g mask="url(#mask0_741_46)">
<path d="M154.373 51.4609V171.716C156.092 170.937 157.772 170.087 159.411 169.165V54.0143C157.773 53.095 156.093 52.2439 154.373 51.4609Z" fill="#FFFE58"/>
<path d="M129.179 45.6982V177.48C130.875 177.438 132.555 177.33 134.217 177.158V46.0203C132.55 45.848 130.87 45.7407 129.179 45.6982Z" fill="#FFFE58"/>
<path d="M187.962 136.981C191.288 128.934 193 120.304 193 111.589C193 102.873 191.288 94.2436 187.962 86.1963V136.981Z" fill="#FFFE58"/>
<path d="M120.793 46.0203V177.158C122.454 177.33 124.133 177.438 125.831 177.48V45.6982C124.133 45.7407 122.454 45.848 120.793 46.0203Z" fill="#FFFE58"/>
<path d="M95.5894 54.0143V169.165C97.2274 170.084 98.9067 170.934 100.628 171.716V51.4609C98.9081 52.2413 97.2286 53.0924 95.5894 54.0143Z" fill="#FFFE58"/>
<path d="M103.987 50.0527V173.126C105.635 173.768 107.314 174.34 109.025 174.842V48.3325C107.316 48.8404 105.636 49.4138 103.987 50.0527Z" fill="#FFFE58"/>
<path d="M112.386 47.4414V175.737C114.047 176.13 115.726 176.46 117.424 176.726V46.4463C115.722 46.7137 114.043 47.0454 112.386 47.4414Z" fill="#FFFE58"/>
<path d="M62.0001 111.589C61.9893 120.305 63.702 128.937 67.0384 136.981V86.1963C63.7021 94.2404 61.9894 102.872 62.0001 111.589Z" fill="#FFFE58"/>
<path d="M70.3903 79.2783V143.898C71.8884 146.577 73.572 149.147 75.4286 151.587V71.5894C73.5728 74.0309 71.8893 76.6002 70.3903 79.2783Z" fill="#FFFE58"/>
<path d="M78.7956 67.5194V155.652C80.3834 157.428 82.0653 159.116 83.8339 160.71V62.4629C82.0648 64.0554 80.3829 65.7434 78.7956 67.5194Z" fill="#FFFE58"/>
<path d="M87.1913 59.6333V163.546C88.8125 164.819 90.492 166.017 92.2296 167.139V56.0386C90.4932 57.1571 88.814 58.3553 87.1913 59.6333Z" fill="#FFFE58"/>
<path d="M171.166 62.4629V160.718C172.935 159.124 174.617 157.436 176.205 155.659V67.5271C174.617 65.7485 172.936 64.058 171.166 62.4629Z" fill="#FFFE58"/>
<path d="M162.762 56.0386V167.139C164.498 166.021 166.178 164.823 167.801 163.546V59.6333C166.184 58.3579 164.505 57.1597 162.762 56.0386Z" fill="#FFFE58"/>
<path d="M179.564 71.5894V151.587C181.424 149.147 183.11 146.577 184.61 143.898V79.2783C183.109 76.6 181.423 74.0307 179.564 71.5894Z" fill="#FFFE58"/>
<path d="M145.974 48.3364V174.846C147.684 174.34 149.363 173.768 151.013 173.129V50.0528C149.365 49.4151 147.685 48.843 145.974 48.3364Z" fill="#FFFE58"/>
<path d="M137.576 46.4463V176.726C139.278 176.461 140.957 176.131 142.615 175.737V47.4414C140.959 47.048 139.279 46.7163 137.576 46.4463Z" fill="#FFFE58"/>
<path d="M100.628 68.3624V188.618C101.732 189.116 102.852 189.586 103.988 190.027V66.9526C102.853 67.3923 101.733 67.8622 100.628 68.3624Z" fill="#EA4E8B"/>
<path d="M117.424 63.3534V193.625C118.534 193.799 119.654 193.943 120.783 194.059V62.9214C119.654 63.0358 118.534 63.1798 117.424 63.3534Z" fill="#EA4E8B"/>
<path d="M109.026 65.2371V191.746C110.133 192.073 111.253 192.371 112.385 192.639V64.3423C111.253 64.611 110.133 64.9093 109.026 65.2371Z" fill="#EA4E8B"/>
<path d="M67.0381 103.098V153.883C68.0204 156.255 69.1396 158.566 70.39 160.806V96.1807C69.1394 98.4185 68.0203 100.728 67.0381 103.098Z" fill="#EA4E8B"/>
<path d="M127.5 62.5786C126.938 62.5786 126.379 62.5786 125.821 62.5998V194.382C126.38 194.396 126.939 194.403 127.5 194.403C128.061 194.403 128.62 194.396 129.179 194.382V62.5998C128.621 62.5844 128.062 62.5786 127.5 62.5786Z" fill="#EA4E8B"/>
<path d="M92.2378 72.9408V184.041C93.3367 184.747 94.4564 185.422 95.5973 186.065V70.916C94.4514 71.5589 93.3315 72.2339 92.2378 72.9408Z" fill="#EA4E8B"/>
<path d="M83.8337 79.3626V177.618C84.921 178.597 86.0402 179.54 87.1913 180.447V76.5317C86.0415 77.4393 84.9223 78.383 83.8337 79.3626Z" fill="#EA4E8B"/>
<path d="M75.4362 88.4876V168.489C76.5018 169.891 77.6216 171.248 78.7958 172.56V84.4185C77.6229 85.7299 76.5031 87.0862 75.4362 88.4876Z" fill="#EA4E8B"/>
<path d="M176.204 84.4185V172.57C177.377 171.259 178.497 169.902 179.564 168.499V88.4876C178.498 87.0862 177.379 85.7299 176.204 84.4185Z" fill="#EA4E8B"/>
<path d="M167.809 76.5317V180.447C168.959 179.547 170.078 178.604 171.166 177.618V79.3626C170.079 78.383 168.96 77.4393 167.809 76.5317Z" fill="#EA4E8B"/>
<path d="M184.61 96.1807V160.806C185.862 158.568 186.984 156.259 187.969 153.889V103.098C186.985 100.728 185.863 98.4183 184.61 96.1807Z" fill="#EA4E8B"/>
<path d="M134.217 62.9204V194.058C135.346 193.942 136.466 193.798 137.576 193.624V63.3543C136.468 63.1808 135.348 63.0361 134.217 62.9204Z" fill="#EA4E8B"/>
<path d="M142.615 64.3423V192.636C143.747 192.367 144.867 192.069 145.974 191.742V65.2333C144.867 64.908 143.747 64.611 142.615 64.3423Z" fill="#EA4E8B"/>
<path d="M159.411 70.916V186.07C160.552 185.428 161.671 184.753 162.77 184.047V72.9408C161.673 72.2339 160.553 71.5589 159.411 70.916Z" fill="#EA4E8B"/>
<path d="M151.013 66.9526V190.027C152.147 189.588 153.267 189.118 154.372 188.618V68.3624C153.268 67.8635 152.148 67.3936 151.013 66.9526Z" fill="#EA4E8B"/>
<path d="M151.013 83.8584V206.933C152.147 206.493 153.267 206.024 154.372 205.523V85.2623C153.268 84.7635 152.148 84.2956 151.013 83.8584Z" fill="#E85EF6"/>
<path d="M100.628 85.2623V205.518C101.732 206.018 102.852 206.487 103.988 206.927V83.8584C102.853 84.2942 101.733 84.7623 100.628 85.2623Z" fill="#E85EF6"/>
<path d="M117.424 80.2546V210.526C118.534 210.7 119.654 210.845 120.783 210.96V79.8228C119.654 79.9421 118.534 80.0862 117.424 80.2546Z" fill="#E85EF6"/>
<path d="M109.026 82.1369V208.646C110.133 208.974 111.253 209.272 112.385 209.541V81.2422C111.253 81.5121 110.133 81.8104 109.026 82.1369Z" fill="#E85EF6"/>
<path d="M67.0381 119.997V170.782C68.0203 173.152 69.1394 175.462 70.39 177.7V113.08C69.1398 115.318 68.0206 117.628 67.0381 119.997Z" fill="#E85EF6"/>
<path d="M127.5 79.4775C126.939 79.4775 126.38 79.4847 125.821 79.4988V211.281C126.379 211.296 126.938 211.302 127.5 211.302C128.062 211.302 128.621 211.302 129.179 211.281V79.4988C128.622 79.4859 128.062 79.4788 127.5 79.4775Z" fill="#E85EF6"/>
<path d="M92.2378 89.8385V200.939C93.3367 201.647 94.4564 202.322 95.5973 202.964V87.8174C94.4514 88.4576 93.3315 89.1313 92.2378 89.8385Z" fill="#E85EF6"/>
<path d="M83.8337 96.2632V194.518C84.921 195.498 86.0402 196.441 87.1913 197.347V93.4341C86.0415 94.3392 84.9223 95.2822 83.8337 96.2632Z" fill="#E85EF6"/>
<path d="M75.4362 105.391V185.389C76.5018 186.793 77.6216 188.15 78.7958 189.46V101.328C77.6229 102.634 76.5031 103.989 75.4362 105.391Z" fill="#E85EF6"/>
<path d="M176.204 101.32V189.452C177.377 188.142 178.497 186.785 179.564 185.381V105.391C178.498 103.99 177.379 102.633 176.204 101.32Z" fill="#E85EF6"/>
<path d="M167.809 93.4341V197.347C168.959 196.441 170.078 195.498 171.166 194.518V96.2632C170.079 95.2834 168.96 94.3405 167.809 93.4341Z" fill="#E85EF6"/>
<path d="M184.61 113.08V177.7C185.863 175.462 186.985 173.152 187.969 170.782V119.997C186.984 117.628 185.862 115.318 184.61 113.08Z" fill="#E85EF6"/>
<path d="M134.217 79.8203V210.958C135.346 210.842 136.466 210.698 137.576 210.524V80.2543C136.468 80.0858 135.348 79.9412 134.217 79.8203Z" fill="#E85EF6"/>
<path d="M142.615 81.2422V209.537C143.747 209.269 144.867 208.97 145.974 208.642V82.133C144.867 81.8104 143.747 81.5133 142.615 81.2422Z" fill="#E85EF6"/>
<path d="M159.411 87.8174V202.966C160.552 202.323 161.671 201.648 162.77 200.941V89.8385C161.673 89.1338 160.553 88.4603 159.411 87.8174Z" fill="#E85EF6"/>
</g>
</svg>
