<svg width="256" height="256" viewBox="0 0 256 256" fill="none" xmlns="http://www.w3.org/2000/svg">
<path d="M128 252.8C196.925 252.8 252.8 196.925 252.8 128C252.8 59.0748 196.925 3.19995 128 3.19995C59.0751 3.19995 3.2002 59.0748 3.2002 128C3.2002 196.925 59.0751 252.8 128 252.8Z" fill="white"/>
<path fill-rule="evenodd" clip-rule="evenodd" d="M127.989 83.8465L91.4514 62.8579C91.0133 62.5869 90.5078 62.4432 89.9919 62.4432C89.4762 62.4432 88.9706 62.5869 88.5325 62.8579L52.0005 83.8468L52.0001 169.517C51.997 170.045 52.1312 170.565 52.3896 171.025C52.648 171.487 53.0219 171.873 53.4749 172.148L90.0074 193.137L127.985 171.291L164.395 192.22C164.862 192.488 165.392 192.63 165.931 192.63C166.471 192.63 167.001 192.488 167.468 192.22L203.996 171.233L204 171.231L203.999 85.5643C203.986 85.0519 203.845 84.5508 203.587 84.1071C203.329 83.6634 202.964 83.2912 202.524 83.0248L165.997 62L127.989 83.8465Z" fill="#3CA9E5"/>
<path d="M91.1966 63.9026L165.255 106.486V149.922L52 84.7686L88.2966 63.9026C88.7318 63.6331 89.2341 63.4902 89.7465 63.4902C90.259 63.4902 90.7613 63.6331 91.1966 63.9026Z" fill="#3CA9E5"/>
<path d="M165.255 62L128 83.6079L165.255 105.216V62Z" fill="#2853C3"/>
<path d="M165.255 62L202.497 82.9382C202.945 83.2035 203.317 83.5741 203.58 84.016C203.843 84.4579 203.987 84.9569 204 85.4672V170.784L165.255 149.021V62Z" fill="#1A4199"/>
<path d="M204 171.494L167.706 192.723C167.242 192.994 166.715 193.137 166.179 193.137C165.644 193.137 165.117 192.994 164.653 192.723L90.7451 149.46V105.216L204 171.494Z" fill="#2853C3"/>
<path d="M52.0001 84.3529V169.626C51.9969 170.151 52.1337 170.669 52.3972 171.128C52.6606 171.587 53.0418 171.972 53.5035 172.245L90.7451 193.137V106.114L52.0001 84.3529Z" fill="#60BEFF"/>
<path d="M90.7451 193.137L128 171.529L90.7451 149.922V193.137Z" fill="#3CA9E5"/>
</svg>
