<svg width="256" height="256" viewBox="0 0 256 256" fill="none" xmlns="http://www.w3.org/2000/svg">
<path d="M256 127.998C256 161.946 242.514 194.504 218.509 218.509C194.504 242.514 161.946 256 127.998 256C94.0514 255.999 61.495 242.513 37.491 218.509C13.487 194.505 0.00116778 161.95 0 128.002C-2.00871e-08 94.0551 13.4853 61.4975 37.4895 37.4926C61.4936 13.4876 94.0505 0.00116783 127.998 0C161.946 -2.00871e-08 194.503 13.4853 218.508 37.4895C242.512 61.4935 255.999 94.0505 256 127.998Z" fill="white"/>
<path fill-rule="evenodd" clip-rule="evenodd" d="M123.122 47.5615L147.683 33.3788C150.478 31.7648 152.745 33.0732 152.745 36.3012C152.745 39.5292 150.478 43.4544 147.683 45.0684L123.122 59.2511C120.326 60.8652 118.061 59.5567 118.061 56.3288C118.061 53.1007 120.326 49.1756 123.122 47.5615ZM123.122 72.5351L147.683 58.3524C150.478 56.7384 152.745 58.0467 152.745 61.2748C152.745 64.5027 150.478 68.428 147.683 70.0419L123.122 84.2247C120.326 85.8386 118.061 84.5302 118.061 81.3023C118.061 78.0743 120.326 74.1491 123.122 72.5351ZM200.39 192.386V164.021C200.39 160.793 198.124 156.868 195.328 155.254C192.533 153.64 190.268 154.948 190.268 158.176V186.542C190.268 189.77 192.533 193.695 195.328 195.309C198.124 196.923 200.39 195.614 200.39 192.386ZM178.764 151.533V179.898C178.764 183.126 176.498 184.435 173.703 182.821C170.908 181.207 168.641 177.282 168.641 174.054V145.688C168.641 142.46 170.908 141.152 173.703 142.766C176.498 144.38 178.764 148.305 178.764 151.533ZM176.476 78.5139L133.246 103.477C132.893 103.68 132.512 103.858 132.111 104.011L123.122 109.202C120.326 110.815 118.061 109.507 118.061 106.279C118.061 103.051 120.326 99.1257 123.122 97.512L147.683 83.3291C148.036 83.1254 148.381 82.9682 148.713 82.8556L166.354 72.669C169.149 71.0551 173.681 71.0551 176.476 72.669C179.272 74.2831 179.272 76.8999 176.476 78.5139ZM195.342 83.5375L219.904 97.7202C222.699 99.3345 222.699 101.951 219.904 103.565C217.109 105.179 212.577 105.179 209.782 103.565L185.219 89.3824C182.424 87.7682 182.424 85.1514 185.219 83.5375C188.015 81.9235 192.547 81.9235 195.342 83.5375ZM198.278 110.208L173.716 96.0257C170.921 94.4115 166.389 94.4115 163.594 96.0257C160.799 97.6395 160.799 100.256 163.594 101.871L188.155 116.053C190.951 117.667 195.483 117.667 198.278 116.053C201.073 114.439 201.073 111.823 198.278 110.208ZM176.653 122.695L152.091 108.512C149.296 106.898 144.764 106.898 141.969 108.512C139.174 110.126 139.174 112.743 141.969 114.357L151.794 120.03C151.887 120.09 151.982 120.147 152.076 120.202L195.307 145.164C198.102 146.779 200.368 145.47 200.368 142.242C200.368 139.014 198.102 135.089 195.307 133.475L176.928 122.862C176.839 122.806 176.748 122.75 176.653 122.695ZM157.136 139.046V167.411C157.136 167.821 157.099 168.2 157.03 168.545V188.913C157.03 192.141 154.764 196.066 151.969 197.68C149.174 199.295 146.908 197.986 146.908 194.758V144.832C146.908 144.423 146.945 144.002 147.014 143.577V133.201C147.014 129.973 149.28 128.665 152.075 130.279C154.87 131.893 157.136 135.818 157.136 139.046ZM133.122 208.589L108.561 222.772C105.766 224.386 103.5 223.077 103.5 219.849C103.5 216.622 105.766 212.696 108.561 211.082L133.122 196.899C135.918 195.286 138.184 196.594 138.184 199.822C138.184 203.05 135.918 206.975 133.122 208.589ZM108.561 197.795L133.122 183.613C135.918 181.999 138.184 178.074 138.184 174.846C138.184 171.618 135.918 170.31 133.122 171.923L108.561 186.106C105.766 187.72 103.5 191.646 103.5 194.873C103.5 198.101 105.766 199.41 108.561 197.795ZM138.184 149.87C138.184 152.606 136.555 155.843 134.356 157.749C134.035 158.091 133.624 158.412 133.124 158.701L89.893 183.663C87.098 185.278 82.5662 185.278 79.771 183.663C76.9759 182.05 76.9759 179.433 79.771 177.819L107.803 161.632C108.05 161.447 108.303 161.278 108.561 161.13L133.122 146.947C135.918 145.333 138.184 146.642 138.184 149.87ZM36.3429 158.611L60.9049 172.794C63.7 174.408 68.2318 174.408 71.027 172.794C73.8221 171.18 73.8221 168.563 71.027 166.95L46.465 152.767C43.6699 151.153 39.1381 151.153 36.3429 152.767C33.5478 154.381 33.5478 156.998 36.3429 158.611ZM82.5308 160.306L57.9688 146.123C55.1737 144.51 55.1737 141.893 57.9688 140.279C60.764 138.665 65.2958 138.665 68.0909 140.279L92.653 154.462C95.448 156.075 95.448 158.692 92.653 160.306C89.8575 161.92 85.3259 161.92 82.5308 160.306ZM61.0442 111.167L104.275 136.13C104.541 136.283 104.802 136.458 105.057 136.65L114.278 141.975C117.073 143.588 117.073 146.206 114.278 147.819C111.482 149.434 106.95 149.434 104.155 147.819L79.5935 133.637C79.3277 133.483 79.0872 133.32 78.872 133.151L61.0442 122.857C58.249 121.242 55.9831 117.318 55.9831 114.09C55.9831 110.862 58.249 109.553 61.0442 111.167ZM55.9621 92.3108V63.9454C55.9621 60.7174 58.228 59.409 61.0231 61.023C63.8183 62.637 66.0842 66.5622 66.0842 69.7902V98.1555C66.0842 101.384 63.8183 102.692 61.0231 101.078C58.228 99.4642 55.9621 95.5388 55.9621 92.3108ZM77.588 76.4335V104.799C77.588 108.027 79.8539 111.952 82.649 113.566C85.4442 115.18 87.7101 113.872 87.7101 110.644V82.2783C87.7101 79.0503 85.4442 75.1251 82.649 73.5111C79.8539 71.8971 77.588 73.2055 77.588 76.4335ZM109.336 61.3914V94.6106L99.2137 117.162V67.2361C99.2137 64.0082 101.48 60.083 104.275 58.469C107.07 56.855 109.336 58.1634 109.336 61.3914ZM109.336 94.6106L99.2158 117.319C99.2303 120.541 101.491 124.446 104.277 126.055C107.072 127.669 109.338 126.36 109.338 123.132V94.7671C109.338 94.715 109.337 94.6628 109.336 94.6106Z" fill="black"/>
</svg>
