<svg width="256" height="256" viewBox="0 0 256 256" fill="none" xmlns="http://www.w3.org/2000/svg">
<circle cx="128.5" cy="128.5" r="127.5" fill="#FCE9CB"/>
<path d="M126.665 77.8171C124.612 68.71 130.821 59.5695 140.108 58.6441C145.863 58.0683 142.615 51.1475 159.427 51.0215C169.692 50.9429 170.194 55.7773 175.301 55.3799C186.622 54.4854 191.811 54.1737 193.892 54.7638C200.056 56.5267 183.525 66.7758 175.301 73.5348C167.078 80.2914 169.982 93.3835 169.982 93.3835C169.982 93.3835 180.418 124.155 181.367 151.773C182.336 179.897 192.36 214.505 192.36 214.505H86.9283C86.9283 214.505 92.8374 178.821 110.32 141.819C115.972 129.853 120.421 120.843 123.746 114.286C128.735 104.463 130.138 93.2122 127.709 82.4682L126.665 77.8171Z" fill="#EC9A4A"/>
<path d="M138.864 63.0122L129.674 49.3491C129.674 49.3491 123.875 55.7774 124.369 64.718C124.864 73.6586 127.6 80.8601 127.6 80.8601L138.864 63.0122Z" fill="#EC9A4A"/>
<path d="M162.51 55.3705L160.738 39C160.738 39 154.353 41.5361 150.628 49.6773C146.902 57.821 145.97 65.4673 145.97 65.4673L162.51 55.3705Z" fill="#EC9A4A"/>
<path d="M97.3287 214.501H81.4164C81.4164 214.501 51 212.533 51 187.132C51 167.247 70.7186 162.658 81.6876 168.306C91.1983 173.202 90.0541 180.67 90.0541 180.67C90.0541 180.67 78.6117 178.595 77.3271 185.761C75.3074 197.005 94.0578 205.401 94.0578 205.401L97.3287 214.501Z" fill="#EC9A4A"/>
<path d="M198.729 57.3237L175.366 64.2849C175.366 64.2849 173.722 68.2842 169.49 68.9884C165.26 69.695 161.732 70.6323 157.736 73.6919C153.737 76.7466 152.326 80.2724 152.326 80.2724C152.326 80.2724 160.317 83.5651 161.021 92.7341C161.727 101.903 154.891 109.138 154.891 109.138C154.891 109.138 163.968 122.037 170.896 140.197C176.467 154.802 182.645 166.9 182.645 166.9C182.645 166.9 179.921 135.153 179.215 118.925C178.51 102.698 171.134 81.3144 175.366 76.3755C179.595 71.4389 194.901 71.4174 197.589 67.5609C201.379 62.1247 198.729 57.3237 198.729 57.3237Z" fill="#FFECDD"/>
<path d="M197.896 61.0208C195.91 61.0208 194.297 59.4078 194.297 57.4189C194.297 55.4324 195.91 53.8193 197.896 53.8193C199.885 53.8193 201.498 55.4324 201.498 57.4189C201.498 59.4078 199.885 61.0208 197.896 61.0208Z" fill="#0D4D90"/>
<path d="M172.849 78.9355L194.178 88.6042L188.773 89.7437L184.225 92.5868L179.105 97.9897L178.537 100.833H176.548L172.849 78.9355Z" fill="#FFECDD"/>
<path d="M174.842 77.798C175.651 73.1421 199.012 81.0812 204.131 85.3469C202.994 87.6213 197.875 88.511 195.6 88.3207C184.51 87.3976 173.703 84.3405 174.842 77.798Z" fill="#EB5757" stroke="#EB5757" stroke-width="0.478133" stroke-miterlimit="10"/>
<path d="M191.904 214.017C187.26 199.039 178.085 155.264 178.539 99.9807C178.634 98.558 180.756 94.5207 188.49 89.7411C191.05 88.1614 202.832 88.8894 204.761 86.0464" stroke="#0D4D90" stroke-miterlimit="10" stroke-linecap="round"/>
<path d="M189.311 87.9998L189.832 83.1821C189.832 83.1821 191.711 83.9292 192.808 86.3249C193.904 88.7206 192.808 88.6041 192.808 88.6041L189.311 87.9998Z" fill="#FFECDD"/>
<path d="M191.452 69.2453L190.931 74.063C190.931 74.063 189.051 73.3183 187.955 70.9202C186.858 68.5245 187.955 68.6411 187.955 68.6411L191.452 69.2453Z" fill="#FFECDD"/>
<path d="M194.537 68.6768L195.058 73.4945C195.058 73.4945 196.937 72.7498 198.034 70.3517C199.131 67.956 199.297 64.1494 199.297 64.1494L194.537 68.6768Z" fill="#FFECDD"/>
<path d="M193.954 88.6064C188.078 88.7015 177.997 87.2408 174.811 80.6435C172.78 76.4326 180.82 72.3263 188.176 70.9749C188.176 73.021 190.091 73.9131 191.05 74.1034L192.158 69.8377C192.831 69.7426 194.235 69.4951 194.461 69.2691C194.689 69.0407 195.029 69.8377 195.598 73.2493C198.443 72.1121 201.457 63.0121 198.726 59.5981" stroke="#0D4D90" stroke-miterlimit="10"/>
<path d="M177.207 215.007C170.862 206.68 158.889 183.603 161.744 157.909" stroke="#0D4D90" stroke-miterlimit="10" stroke-linecap="round"/>
<path d="M125.628 166.236C131.972 172.578 141.091 189.313 126.817 205.491C130.783 205.491 140.615 207.394 143.47 215.007" stroke="#0D4D90" stroke-miterlimit="10" stroke-linecap="round"/>
<path d="M180.342 210.249C180.342 211.041 180.818 213.104 182.721 215.007" stroke="#0D4D90" stroke-miterlimit="10" stroke-linecap="round"/>
<path d="M185.1 210.249C185.1 211.041 185.576 213.104 187.479 215.007" stroke="#0D4D90" stroke-miterlimit="10" stroke-linecap="round"/>
<path d="M128.007 212.628C129.196 212.628 131.813 213.342 132.765 216.197" stroke="#0D4D90" stroke-miterlimit="10" stroke-linecap="round"/>
<path d="M135.143 212.628C135.936 212.628 137.998 213.342 139.901 216.197" stroke="#0D4D90" stroke-miterlimit="10" stroke-linecap="round"/>
<path d="M129.196 53.2295C129.196 56.0035 130.386 62.5079 135.143 66.3145" stroke="#0D4D90" stroke-miterlimit="10" stroke-linecap="round"/>
<path d="M158.935 44.9023C157.35 47.6764 154.891 54.1808 157.745 57.9873" stroke="#0D4D90" stroke-miterlimit="10" stroke-linecap="round"/>
<path d="M162.501 65.1248C164.879 66.3143 170.113 67.266 172.016 61.5562" stroke="#0D4D90" stroke-miterlimit="10" stroke-linecap="round"/>
</svg>
