<svg width="256" height="256" viewBox="0 0 256 256" fill="none" xmlns="http://www.w3.org/2000/svg">
<g clip-path="url(#clip0_2423_1661)">
<path d="M256 127.998C256 161.946 242.514 194.504 218.509 218.509C194.504 242.514 161.946 256 127.998 256C94.0514 255.999 61.495 242.513 37.491 218.509C13.487 194.505 0.00116778 161.95 0 128.002C-2.00871e-08 94.0551 13.4853 61.4975 37.4895 37.4926C61.4936 13.4876 94.0505 0.00116783 127.998 0C161.946 -2.00871e-08 194.503 13.4853 218.508 37.4895C242.512 61.4935 255.999 94.0505 256 127.998Z" fill="#405FFF"/>
<path d="M105.907 152.894C108.022 152.894 109.753 151.166 109.753 149.054V120.638C109.753 106.75 121.099 95.4222 135.009 95.4222H135.522C142.189 95.4222 148.471 97.9822 153.214 102.718C154.753 104.19 157.189 104.19 158.663 102.654C160.137 101.118 160.137 98.6862 158.599 97.2142C152.381 91.0702 144.176 87.7422 135.522 87.7422H135.009C116.868 87.7422 102.061 102.526 102.061 120.638V149.054C102.061 151.166 103.727 152.894 105.907 152.894Z" fill="white"/>
<path d="M97.5744 156.287C96.1001 157.823 96.1001 160.255 97.6385 161.727C103.856 167.872 112.062 171.2 120.716 171.2H121.228C139.369 171.2 154.177 156.415 154.177 138.303V109.951C154.177 107.839 152.446 106.111 150.331 106.111C148.216 106.111 146.485 107.839 146.485 109.951V138.367C146.485 152.255 135.139 163.583 121.228 163.583H120.716C114.049 163.583 107.767 161.023 103.023 156.287C101.549 154.751 99.1129 154.815 97.5744 156.287Z" fill="white"/>
<path d="M175.588 79.744C165.268 69.632 151.614 64 137.255 64H136.421C106.165 64 81.6143 88.512 81.6143 118.656V156.416C81.6143 159.616 84.1784 162.176 87.3835 162.176C90.5886 162.176 93.1527 159.616 93.1527 156.416V118.656C93.1527 94.8482 112.575 75.52 136.357 75.52H137.255C148.601 75.52 159.37 79.936 167.511 88C169.755 90.2402 173.409 90.1762 175.652 87.936C177.896 85.632 177.896 81.984 175.588 79.744Z" fill="white"/>
<path d="M168.856 93.1816C165.651 93.1816 163.087 95.7416 163.087 98.9416V136.702C163.087 160.446 143.728 179.838 119.882 179.838H119.048C107.702 179.838 96.933 175.422 88.792 167.358C86.5484 165.118 82.8946 165.182 80.651 167.422C78.4074 169.662 78.4715 173.31 80.7151 175.55C91.0356 185.726 104.689 191.294 119.112 191.294H119.946C150.138 191.294 174.689 166.782 174.689 136.638V98.8776C174.625 95.7416 171.997 93.1816 168.856 93.1816Z" fill="white"/>
</g>
<defs>
<clipPath id="clip0_2423_1661">
<rect width="256" height="256" fill="white"/>
</clipPath>
</defs>
</svg>
