<svg width="258" height="258" viewBox="0 0 258 258" fill="none" xmlns="http://www.w3.org/2000/svg">
<path d="M129 249.888C195.765 249.888 249.889 195.764 249.889 128.999C249.889 62.2341 195.765 8.11035 129 8.11035C62.2346 8.11035 8.11084 62.2341 8.11084 128.999C8.11084 195.764 62.2346 249.888 129 249.888Z" fill="#E9EDF1"/>
<path d="M129 257C199.692 257 257 199.692 257 129C257 58.3075 199.692 1 129 1C58.3075 1 1 58.3075 1 129C1 199.692 58.3075 257 129 257Z" stroke="#E9EDF1" stroke-width="0.8"/>
<path d="M129.001 50.7764C144.2 50.7764 158.488 56.6931 169.229 67.4461C179.97 78.1863 185.89 92.4765 185.89 107.68V200.11H72.1118V107.68C72.1118 92.4894 78.0318 78.1992 88.7726 67.4461C99.5134 56.6931 113.801 50.7764 129.001 50.7764ZM129.001 53.6061C114.526 53.6061 100.912 59.2399 90.6834 69.4784C80.4797 79.6783 74.8595 93.2483 74.8595 107.68V197.28H183.142V107.68C183.142 93.2611 177.522 79.6912 167.318 69.4784C157.089 59.2399 143.476 53.6061 129.001 53.6061ZM129.001 60.6805C140.416 60.6805 151.207 64.8222 159.762 72.3982C160.674 73.2085 161.56 74.0574 162.422 74.945C171.352 84.1416 176.26 96.361 176.273 109.365V190.18H81.7411V109.352C81.7411 96.3481 86.6494 84.1288 95.5793 74.9321C104.509 65.7483 116.374 60.6805 129.001 60.6805ZM102.498 174.218V184.533H118.36C112.502 182.308 107.119 178.822 102.498 174.218ZM102.036 81.7106C95.2171 89.6854 91.4953 99.7824 91.4953 110.445V140.865C91.4953 150.216 94.3678 159.143 99.6758 166.577C100.55 167.812 101.499 169.008 102.511 170.153C102.973 170.68 103.46 171.208 103.947 171.709C111.978 179.98 122.606 184.533 133.884 184.533C138.73 184.533 143.476 183.684 147.935 182.064V122.729C147.935 95.139 119.971 82.5724 102.036 81.7106ZM129.176 107.551C136.145 107.551 141.802 113.378 141.802 120.555C141.802 121.456 141.09 122.202 140.204 122.202C139.329 122.202 138.605 121.469 138.605 120.555C138.605 115.192 134.371 110.831 129.163 110.831C123.955 110.831 119.721 115.192 119.721 120.555L119.729 145.505C121.847 144.817 123.381 142.774 123.381 140.376C123.381 139.476 124.092 138.73 124.979 138.73C125.866 138.73 126.578 139.463 126.578 140.376C126.554 144.85 123.238 148.544 119.005 148.988L118.147 149.033C113.514 149.033 109.742 145.148 109.742 140.376C109.742 139.476 110.454 138.73 111.341 138.73C112.228 138.73 112.939 139.463 112.939 140.376C112.939 142.764 114.456 144.787 116.543 145.489L116.539 121.3C116.481 121.132 116.449 120.95 116.449 120.761C116.449 120.478 116.374 113.893 112.028 113.893C111.166 113.893 110.467 113.172 110.467 112.285C110.467 111.397 111.166 110.677 112.028 110.677C115.023 110.677 116.914 112.338 118.056 114.433C120.165 110.343 124.357 107.551 129.176 107.551ZM100.812 117.983L107.794 125.199V120.915C107.794 120.015 108.506 119.269 109.392 119.269C110.279 119.269 110.991 120.002 110.991 120.915V129.16C110.991 129.829 110.604 130.421 110.004 130.678C109.805 130.768 109.605 130.807 109.392 130.807C108.98 130.807 108.568 130.639 108.268 130.331L101.287 123.115V129.16C101.287 130.061 100.575 130.807 99.6883 130.807C98.8015 130.807 98.0896 130.074 98.0896 129.16V119.14C98.0896 118.472 98.4768 117.88 99.0763 117.623C99.6758 117.365 100.363 117.507 100.812 117.983ZM129.163 120.092C132.623 120.092 135.445 122.999 135.445 126.562C135.47 127.475 134.758 128.208 133.872 128.208C132.997 128.208 132.273 127.475 132.273 126.562C132.273 124.8 130.887 123.372 129.176 123.372C127.465 123.372 126.078 124.8 126.078 126.562C126.078 127.462 125.366 128.208 124.48 128.208C123.593 128.208 122.881 127.475 122.881 126.562C122.881 122.986 125.704 120.092 129.163 120.092Z" fill="#111118"/>
</svg>
