<svg width="256" height="256" viewBox="0 0 256 256" fill="none" xmlns="http://www.w3.org/2000/svg">
<g clip-path="url(#clip0_741_46)">
<path d="M128 255C198.14 255 255 198.14 255 128C255 57.8598 198.14 1 128 1C57.8598 1 1 57.8598 1 128C1 198.14 57.8598 255 128 255Z" fill="black" stroke="url(#paint0_linear_741_46)" stroke-width="2"/>
<path fill-rule="evenodd" clip-rule="evenodd" d="M162.501 59.4167H93.5004V173.584H162.501V59.4167ZM82 48V185H174V48H82Z" fill="url(#paint1_linear_741_46)"/>
<path d="M82 196H174V208H82V196Z" fill="url(#paint2_linear_741_46)"/>
</g>
<defs>
<linearGradient id="paint0_linear_741_46" x1="16.825" y1="22.9808" x2="214.471" y2="269.191" gradientUnits="userSpaceOnUse">
<stop stop-color="#0F3D57"/>
<stop offset="1" stop-color="#4A075F"/>
</linearGradient>
<linearGradient id="paint1_linear_741_46" x1="35.9998" y1="127.917" x2="174.209" y2="207.47" gradientUnits="userSpaceOnUse">
<stop stop-color="#18D3FD"/>
<stop offset="1" stop-color="#DE04FF"/>
</linearGradient>
<linearGradient id="paint2_linear_741_46" x1="35.9998" y1="124.002" x2="177.549" y2="201.519" gradientUnits="userSpaceOnUse">
<stop stop-color="#18D3FD"/>
<stop offset="1" stop-color="#DE04FF"/>
</linearGradient>
<clipPath id="clip0_741_46">
<rect width="256" height="256" fill="white"/>
</clipPath>
</defs>
</svg>
