<svg width="256" height="256" viewBox="0 0 256 256" fill="none" xmlns="http://www.w3.org/2000/svg">
<path d="M88.0128 241.178C-23.8336 202.163 -16.6144 39.4242 98.048 11.1362C197.146 -13.3118 279.526 86.989 235.597 179.533C217.83 216.986 178.176 247.04 133.99 246.426C117.99 246.195 105.037 247.117 88.0128 241.178Z" fill="#6FE999"/>
<path d="M227.686 127.565C227.686 140.71 225.097 153.726 220.067 165.87C215.037 178.014 207.664 189.049 198.369 198.343C189.074 207.638 178.04 215.011 165.895 220.041C153.751 225.072 140.735 227.661 127.59 227.661C101.043 227.661 75.5835 217.115 56.8118 198.343C38.0402 179.572 27.4944 154.112 27.4944 127.565C27.4944 101.018 38.0402 75.5578 56.8118 56.7862C75.5835 38.0145 101.043 27.4688 127.59 27.4688C154.137 27.4688 179.597 38.0145 198.369 56.7862C217.141 75.5578 227.686 101.018 227.686 127.565Z" fill="#487D5F"/>
<path d="M145.331 96.6401H109.901C109.279 96.6401 108.774 97.1444 108.774 97.7665V101.914C108.774 102.536 109.279 103.04 109.901 103.04H145.331C145.953 103.04 146.458 102.536 146.458 101.914V97.7665C146.458 97.1444 145.953 96.6401 145.331 96.6401Z" fill="#6FE999"/>
<path d="M140.606 122.336L114.648 122.246C113.164 122.241 111.956 123.44 111.951 124.924L111.947 125.948C111.942 127.433 113.141 128.64 114.626 128.646L140.584 128.736C142.069 128.741 143.276 127.542 143.281 126.058L143.285 125.034C143.29 123.549 142.091 122.342 140.606 122.336Z" fill="#6FE999"/>
<path d="M144.953 149.79L110.496 149.73C109.308 149.728 108.344 150.689 108.342 151.876L108.337 154.59C108.335 155.778 109.296 156.742 110.483 156.744L144.941 156.804C146.129 156.806 147.093 155.845 147.095 154.658L147.1 151.944C147.102 150.756 146.141 149.792 144.953 149.79Z" fill="#6FE999"/>
</svg>
