<svg width="256" height="256" viewBox="0 0 256 256" fill="none" xmlns="http://www.w3.org/2000/svg">
<g clip-path="url(#clip0_1327_1557)">
<mask id="mask0_1327_1557" style="mask-type:luminance" maskUnits="userSpaceOnUse" x="0" y="0" width="256" height="256">
<path d="M256 0H0V256H256V0Z" fill="white"/>
</mask>
<g mask="url(#mask0_1327_1557)">
<path d="M128 256C198.692 256 256 198.692 256 128C256 57.3075 198.692 0 128 0C57.3075 0 0 57.3075 0 128C0 198.692 57.3075 256 128 256Z" fill="white"/>
<path d="M128 0C102.684 0 77.9362 7.5068 56.8866 21.5716C35.8372 35.6365 19.4314 55.6274 9.74344 79.0163C0.055398 102.406 -2.47934 128.142 2.45956 152.971C7.39847 177.801 19.5884 200.608 37.4895 218.509C55.3906 236.41 78.1978 248.602 103.027 253.541C127.857 258.479 153.594 255.945 176.983 246.257C200.372 236.569 220.362 220.162 234.427 199.113C248.492 178.063 256 153.316 256 128C256 94.052 242.514 61.4949 218.509 37.4902C194.505 13.4856 161.948 0 128 0ZM172.799 192H83.2952C78.2034 192 73.3194 189.977 69.7187 186.376C66.118 182.776 64.095 177.892 64.095 172.799V83.2952C64.095 78.2034 66.118 73.3202 69.7187 69.7194C73.3194 66.1187 78.2034 64.0958 83.2952 64.0958H172.799C177.892 64.0958 182.775 66.1187 186.376 69.7194C189.977 73.3202 192 78.2034 192 83.2952V172.799C192 175.325 191.502 177.825 190.534 180.157C189.566 182.489 188.148 184.608 186.361 186.391C184.574 188.174 182.451 189.589 180.117 190.551C177.782 191.514 175.282 192.006 172.757 192H172.799Z" fill="#FF562E"/>
</g>
</g>
<defs>
<clipPath id="clip0_1327_1557">
<rect width="256" height="256" fill="white"/>
</clipPath>
</defs>
</svg>
