<svg width="256" height="256" viewBox="0 0 256 256" fill="none" xmlns="http://www.w3.org/2000/svg">
<path d="M256 127.998C256 161.946 242.514 194.504 218.509 218.509C194.504 242.514 161.946 256 127.998 256C94.0514 255.999 61.495 242.513 37.491 218.509C13.487 194.505 0.00116778 161.95 0 128.002C-2.00871e-08 94.0551 13.4853 61.4975 37.4895 37.4926C61.4936 13.4876 94.0505 0.00116783 127.998 0C161.946 -2.00871e-08 194.503 13.4853 218.508 37.4895C242.512 61.4935 255.999 94.0505 256 127.998Z" fill="#1D1D1D"/>
<path fill-rule="evenodd" clip-rule="evenodd" d="M170.078 71.0186C172.1 71.1498 174.053 71.8209 175.737 72.9641C177.533 73.8932 179.063 75.2756 180.18 76.9784C182.01 80.2799 182.704 84.106 182.153 87.8526C181.602 91.5991 179.837 95.0527 177.137 97.6679C174.671 99.785 171.939 101.561 169.013 102.948C164.473 105.12 160.462 108.284 157.268 112.212C152.911 117.491 149.493 123.499 147.166 129.968C145.405 134.746 144.708 139.861 145.128 144.945C145.446 147.704 145.446 150.492 145.128 153.252C144.644 157.265 142.7 160.95 139.677 163.584C136.654 166.217 132.771 167.609 128.788 167.487C124.774 167.633 120.855 166.225 117.827 163.547C114.798 160.869 112.887 157.122 112.48 153.066C112.161 150.307 112.161 147.519 112.48 144.76C112.884 139.676 112.188 134.565 110.441 129.783C109.288 126.57 107.852 123.47 106.151 120.519C104.449 117.549 102.505 114.729 100.339 112.089C98.0842 109.339 95.4383 106.946 92.4891 104.986C91.1398 104.202 89.6683 103.659 88.1379 103.381C86.5253 103.652 84.9892 104.273 83.6346 105.203C80.8094 107.146 78.2689 109.485 76.0888 112.151C73.9232 114.791 71.9792 117.611 70.2773 120.581C68.5882 123.538 67.1529 126.638 65.9871 129.845C64.2349 134.625 63.5491 139.74 63.9789 144.821C64.3786 148.484 64.1104 152.189 63.1878 155.753C62.2457 159.235 60.1748 162.292 57.3095 164.433C54.4443 166.573 50.9519 167.671 47.3962 167.549C45.3879 167.464 43.4366 166.847 41.7368 165.758C39.956 164.803 38.4472 163.399 37.3553 161.682C35.4537 158.422 34.6701 154.614 35.127 150.854C35.5839 147.094 37.2556 143.593 39.8807 140.899C42.516 138.771 45.3974 136.977 48.4611 135.558C52.9994 133.383 57.0095 130.22 60.206 126.293C62.3912 123.661 64.3459 120.84 66.0479 117.863C67.716 114.899 69.1407 111.801 70.3077 108.599C72.0673 103.821 72.7635 98.7064 72.3463 93.6226C71.9954 90.8652 71.9954 88.0734 72.3463 85.316C73.4721 79.6032 76.6974 71.0495 88.199 71.0495C99.7003 71.0495 102.743 79.3253 104.082 85.5013C104.451 88.2575 104.451 91.0517 104.082 93.8079C103.665 98.8916 104.361 104.006 106.12 108.785C107.285 111.992 108.721 115.092 110.41 118.049C112.111 121.034 114.076 123.856 116.283 126.479C118.657 129.373 121.472 131.864 124.62 133.859C125.937 134.664 127.393 135.209 128.91 135.465C130.57 135.158 132.153 134.518 133.565 133.581C136.525 131.623 139.18 129.229 141.446 126.479C143.599 123.777 145.523 120.895 147.197 117.863C148.886 114.906 150.322 111.807 151.487 108.599C153.231 103.817 153.927 98.7059 153.526 93.6226C153.214 90.5369 153.295 87.4232 153.769 84.3587C154.864 78.8312 161.284 70.5554 170.078 71.0186ZM221.683 151.952C221.683 160.581 214.79 167.577 206.287 167.577C197.784 167.577 190.891 160.581 190.891 151.952C190.891 143.322 197.784 136.326 206.287 136.326C214.79 136.326 221.683 143.322 221.683 151.952Z" fill="url(#paint0_linear_1828_466)"/>
<defs>
<linearGradient id="paint0_linear_1828_466" x1="34.2222" y1="77.8984" x2="228.682" y2="98.5894" gradientUnits="userSpaceOnUse">
<stop stop-color="#F6384E"/>
<stop offset="0.53125" stop-color="#FF9A06"/>
<stop offset="0.979167" stop-color="#FFD706"/>
</linearGradient>
</defs>
</svg>
