<svg width="256" height="256" viewBox="0 0 256 256" fill="none" xmlns="http://www.w3.org/2000/svg">
<g clip-path="url(#clip0_1954_3109)">
<path d="M256 128C256 57.3075 198.692 0 128 0C57.3075 0 0 57.3075 0 128C0 198.692 57.3075 256 128 256C198.692 256 256 198.692 256 128Z" fill="#083ADB"/>
<path d="M223.51 96.0398L227.255 111.958C227.255 124.318 221.824 184.058 213.21 194.171C204.595 204.284 187.74 224.884 159.462 228.629C131.184 232.375 96.5383 218.516 85.4892 211.213C74.4401 203.909 74.2528 195.856 55.5254 195.856C34.5508 193.01 34.0514 171.823 36.4235 161.585L55.5254 123.194L92.231 81.2452L183.246 75.2524L223.51 96.0398Z" fill="#2B33D1" stroke="black" stroke-width="7"/>
<path d="M25 115.547L36.4237 161.99C40.7684 157.346 51.9673 156.06 57.0237 155.997C58.4595 158.619 62.2674 163.113 66.0128 160.117C63.3161 155.772 63.7655 133.337 64.3274 122.662C69.9456 121.289 82.7176 115.433 88.8602 102.998C93.6543 86.069 101.845 84.833 105.34 86.3312C122.382 88.7657 131.184 100.377 150.848 100.377C170.511 100.377 195.419 85.0203 201.037 86.3312C206.655 87.6421 218.266 95.3203 227.63 111.988C236.019 88.6159 222.386 66.7922 214.52 58.8021C210.775 55.0566 212.46 51.1239 195.419 43.0718C171.073 28.6518 137.177 25.6554 108.337 26.03C85.2645 26.3296 65.6383 40.7621 58.7092 47.9409L39.6073 67.7919L25 115.547Z" fill="#E9E0C3"/>
<path d="M93.5426 66.4506C73.3171 77.5372 60.5201 96.9136 56.6498 105.216L52.9043 134.618L73.1298 112.895L93.5426 86.6765L108.712 82.3692L141.859 99.0365L161.897 97.1638L186.992 86.6765C194.857 87.6129 206.468 84.6165 206.468 79.7474C206.468 69.1736 189.426 64.5783 196.917 66.4506C202.91 67.9481 208.528 73.0677 210.588 75.4401C209.777 70.883 204.408 60.2331 189.426 54.091C170.699 46.4133 183.059 58.211 149.537 47.5364C122.72 38.9968 90.6709 53.4664 77.9989 61.7686C80.9953 59.8335 88.2989 58.0606 93.5426 66.4506Z" fill="#FFF7DC"/>
<path fill-rule="evenodd" clip-rule="evenodd" d="M225.883 76.3306C222.452 77.6917 222.764 83.8017 223.106 90.4926C223.213 92.5773 223.322 94.7179 223.322 96.7895C212.685 74.916 194.295 80.0592 186.429 85.3651L177.815 68.6978L176.129 87.7996C174.007 90.2967 166.204 95.5909 151.971 96.7895C143.898 97.4693 136.326 92.7122 128.678 87.9071C119.472 82.123 110.156 76.2696 99.7218 79.7476C72.3836 101.766 67.761 112.836 65.3441 118.624C64.1017 121.598 63.4421 123.178 60.5815 124.131C55.5424 125.811 55.9939 120.929 56.5709 114.689C56.9589 110.494 57.4036 105.686 56.2742 101.846C53.5775 115.929 39.2948 136.803 32.4905 145.481L32.3828 145.563L36.4233 161.99C40.768 157.346 51.9669 156.059 57.0233 155.996C58.4591 158.618 62.267 163.113 66.0126 160.116C63.3159 155.772 63.7653 133.336 64.3272 122.662C69.9454 121.288 82.7174 115.433 88.8599 102.998C93.6541 86.0685 101.844 84.8325 105.34 86.3306C112.81 87.3977 118.697 90.2285 124.61 93.0714C132.186 96.7134 139.803 100.376 150.847 100.376C162.61 100.376 176.249 94.8812 186.513 90.7458C193.407 87.9682 198.779 85.804 201.037 86.3306C206.655 87.6416 218.266 95.3198 227.629 111.987C232.328 98.8963 230.118 86.2913 225.883 76.3306Z" fill="#B2AB93"/>
<path d="M79.8702 147.353C78.372 145.705 79.2459 139.799 79.8702 137.053L147.102 129.562V134.431C110.209 138.364 90.7328 143.607 79.8702 147.353Z" fill="black" stroke="black" stroke-width="5"/>
<path d="M36.4238 162.147C39.2954 160.087 47.2482 155.93 56.0875 155.78C59.833 160.462 62.8293 161.024 66.013 160.462C66.013 152.035 63.0166 147.353 64.5148 122.258C76.1257 119.075 87.9239 108.775 91.6694 96.6018C95.4149 84.4291 107.4 86.6764 110.022 87.6127C112.644 88.5491 141.484 104.093 156.84 100.347C172.197 96.6018 188.677 87.6127 199.351 87.6127C210.026 87.6127 225.757 107.089 227.255 112.52" stroke="black" stroke-width="7"/>
<path d="M174.444 133.869V125.816C183.433 123.719 215.894 122.57 231.001 122.258C231.001 124.194 230.664 129.225 229.315 133.869C204.296 128.626 182.31 131.685 174.444 133.869Z" fill="black" stroke="black" stroke-width="5"/>
<path d="M168.453 141.36C166.393 150.974 163.921 172.223 170.513 180.313" stroke="black" stroke-width="5"/>
<path d="M95.9773 147.166L80.4336 168.515H88.6736C90.9209 179.302 102.22 187.991 107.588 190.988L126.503 188.179L133.245 178.066C135.055 175.756 138.264 168.365 136.616 157.279C132.421 149.638 123.756 143.483 119.948 141.36L95.9773 147.166Z" fill="black" stroke="black" stroke-width="5"/>
<path d="M210.026 130.124C212.123 131.473 216.643 140.175 218.64 144.357C212.798 171.625 203.846 179.19 200.1 179.564L183.246 169.639C182.747 166.954 181.036 159.002 178.189 148.664C178.639 142.222 183.371 134.994 185.68 132.184C192.921 130.936 207.928 128.776 210.026 130.124Z" fill="black" stroke="black" stroke-width="5"/>
<path d="M175.006 206.157L151.784 211.4L134.93 213.835L140.735 220.202L148.601 223.948L172.572 208.966L175.006 206.157Z" fill="#B57670"/>
<path d="M137.177 208.217L135.679 214.959C136.553 215.334 138.975 216.532 141.671 218.33C153.657 221.776 156.279 217.518 156.091 214.959L154.031 212.337V210.652L146.728 204.097L141.671 206.157L137.177 208.217Z" fill="#DE675B"/>
<path d="M130.247 202.598L162.271 204.284L177.253 199.228L179.313 200.538L174.257 207.093L154.031 212.149L149.537 207.093L145.604 205.22L143.169 207.093V208.966L145.042 212.149L139.798 208.966L138.113 209.902L135.678 214.958L125.753 205.22L130.247 202.598Z" fill="#865752"/>
<path d="M162.833 204.846L127.812 202.786L182.122 193.235L178.564 200.913L162.833 204.846Z" fill="#673730"/>
<path d="M182.309 193.048C154.143 197.243 132.12 202.162 124.629 204.097C136.315 218.629 145.229 222.762 148.225 223.012C157.339 219.641 176.916 208.929 182.309 193.048Z" stroke="black" stroke-width="5"/>
<path d="M108.149 155.968L103.28 150.537L110.584 147.916V155.032L108.149 155.968Z" fill="white"/>
<path d="M204.783 162.523L202.349 164.583L203.847 167.205L206.469 166.081L204.783 162.523Z" fill="white"/>
<path d="M192.609 137.616C195.006 135.968 196.979 138.302 197.666 139.676C197.666 140.487 197.254 142.147 195.606 142.297C193.545 142.484 189.613 139.676 192.609 137.616Z" fill="white"/>
<path d="M196.355 149.6L195.605 153.533L196.355 155.032L199.538 146.229L196.355 149.6Z" fill="white"/>
<path d="M209.839 167.205L213.397 152.035L214.708 153.533L216.393 150.538L211.711 166.081L205.719 174.321V173.384L209.839 167.205Z" fill="white"/>
<path d="M124.442 178.066V175.444L127.251 173.946L128.75 177.129L126.315 180.5L124.442 178.066Z" fill="white"/>
<path d="M89.7969 165.331L91.4823 163.084L100.471 180.5L108.15 185.744C107.713 185.994 106.651 186.68 105.902 187.429C102.606 185.931 98.6613 182.186 97.1005 180.5L95.0405 177.129L92.7932 175.444L89.7969 165.331Z" fill="white"/>
<path d="M121.258 177.317C107.775 182.561 100.034 164.77 97.849 155.219C93.5043 174.096 108.149 183.934 116.015 186.493L125.94 184.246C124.879 183.497 122.457 181.062 121.258 177.317Z" fill="#73570D"/>
<path d="M130.06 157.653L127.438 169.638C130.248 173.009 128.937 172.26 131.558 174.882C133.956 167.391 131.558 160.275 130.06 157.653Z" fill="#73570D"/>
<path d="M190.55 164.77L185.868 147.541C183.77 150.387 184.37 160.213 184.932 164.77L188.49 170.762L199.164 175.07C201.911 173.696 206.917 170.912 204.97 170.762C203.022 170.613 201.786 168.453 201.412 167.391L190.55 164.77Z" fill="#73570D"/>
<path d="M206.28 160.088C207.329 157.391 208.84 147.603 209.464 143.046L211.711 147.54L208.715 164.02C208.278 163.271 207.179 161.436 206.28 160.088Z" fill="#73570D"/>
</g>
<defs>
<clipPath id="clip0_1954_3109">
<rect width="256" height="256" fill="white"/>
</clipPath>
</defs>
</svg>
