<svg width="256" height="256" viewBox="0 0 256 256" fill="none" xmlns="http://www.w3.org/2000/svg">
<g clip-path="url(#clip0_1180_44)">
<path d="M128 256C198.692 256 256 198.692 256 128C256 57.3076 198.692 0 128 0C57.3076 0 0 57.3076 0 128C0 198.692 57.3076 256 128 256Z" fill="#0A0A18"/>
<path d="M58.0411 183.258C44.2113 183.258 33 172.115 33 158.369C33 147.674 40.056 138.656 49.4365 135.107C56.779 132.329 64.8888 129.207 68.6063 122.328C72.3672 115.368 70.6663 106.922 67.6133 99.6278C58.2238 77.1958 73.1198 51.254 100.267 51.0019C125.546 50.7671 140.351 72.3777 135.374 93.8606C133.067 103.819 130.049 114.991 135.744 124.451C139.469 130.577 145.921 135.431 154.523 135.431C171.217 135.431 179.597 119.509 174.923 103.638C170.356 88.1318 182.468 71.7432 198.959 71.7432C212.789 71.7432 224 82.8865 224 96.6326C224 107.327 216.944 116.345 207.564 119.895C200.221 122.673 192.111 125.795 188.393 132.674C184.633 139.634 186.334 148.08 189.386 155.374C198.776 177.806 183.142 204 156.733 204C130.323 204 116.648 182.624 121.626 161.141C123.773 151.873 126.599 141.65 122.349 132.503C118.869 125.489 111.975 119.57 102.477 119.57C85.7829 119.57 77.403 135.494 82.077 151.364C86.6431 166.87 74.5321 183.258 58.0411 183.258Z" fill="white"/>
</g>
<defs>
<clipPath id="clip0_1180_44">
<rect width="256" height="256" fill="white"/>
</clipPath>
</defs>
</svg>
