<svg width="256" height="256" viewBox="0 0 256 256" fill="none" xmlns="http://www.w3.org/2000/svg">
<g clip-path="url(#clip0_1927_1452)">
<path d="M128 255.421C198.373 255.421 255.421 198.373 255.421 128C255.421 57.627 198.373 0.578613 128 0.578613C57.6275 0.578613 0.579102 57.627 0.579102 128C0.579102 198.373 57.6275 255.421 128 255.421Z" fill="white" stroke="black" stroke-width="2" stroke-miterlimit="10"/>
<path d="M244.331 128C244.331 192.248 192.248 244.331 128 244.331C63.7522 244.331 11.6689 192.248 11.6689 128" fill="white"/>
<path d="M244.331 128C244.331 192.248 192.248 244.331 128 244.331C63.7522 244.331 11.6689 192.248 11.6689 128" stroke="black" stroke-width="2" stroke-miterlimit="10"/>
<path d="M11.6689 128C11.6689 63.7522 63.7522 11.6689 128 11.6689C192.248 11.6689 244.331 63.7522 244.331 128" fill="black"/>
<path d="M11.6689 128C11.6689 63.7522 63.7522 11.6689 128 11.6689C192.248 11.6689 244.331 63.7522 244.331 128" stroke="black" stroke-width="2" stroke-miterlimit="10"/>
<path d="M57.884 69.3266L46.0625 58.9272L47.4684 57.3291L59.2894 67.7273L57.884 69.3266Z" fill="white"/>
<path d="M62.0963 57.4321L63.5549 56.0418C64.1215 56.5963 64.6991 56.9615 65.2861 57.1374C65.873 57.314 66.549 57.2943 67.3142 57.079C68.08 56.8642 68.8191 56.4701 69.5322 55.8976C70.1654 55.3889 70.6504 54.8483 70.9873 54.2747C71.3242 53.7011 71.4822 53.1593 71.4608 52.6476C71.4399 52.1371 71.2773 51.6915 70.9722 51.3118C70.6626 50.9263 70.2788 50.6826 69.8193 50.5773C69.3609 50.4731 68.7901 50.5338 68.1083 50.7596C67.669 50.902 66.7643 51.2996 65.3949 51.9537C64.0248 52.6083 63.0131 53.0013 62.3579 53.1321C61.5128 53.3052 60.7604 53.2826 60.1011 53.0632C59.4424 52.8444 58.8862 52.4526 58.4336 51.8888C57.9364 51.2695 57.6505 50.546 57.5775 49.7189C57.504 48.8906 57.7002 48.0606 58.1668 47.2277C58.6327 46.3942 59.2879 45.6383 60.1318 44.9611C61.0614 44.2145 61.9996 43.7028 62.9448 43.4255C63.8906 43.1483 64.7831 43.1419 65.6218 43.4041C66.461 43.6663 67.184 44.1467 67.7911 44.8436L66.2938 46.2385C65.5853 45.5312 64.8248 45.1776 64.0133 45.1776C63.2018 45.1776 62.3139 45.5642 61.3496 46.3375C60.346 47.1438 59.7585 47.9113 59.5889 48.64C59.4187 49.3687 59.5379 49.9869 59.9454 50.4951C60.2996 50.9367 60.7534 51.1688 61.3073 51.192C61.8555 51.2203 62.924 50.8424 64.5128 50.0581C66.1016 49.2738 67.2366 48.7916 67.9179 48.6116C68.9129 48.3552 69.7869 48.3396 70.5405 48.5653C71.2941 48.7916 71.9354 49.2339 72.4638 49.8925C72.9882 50.5454 73.2915 51.3147 73.3731 52.1991C73.4547 53.0835 73.2666 53.9743 72.8088 54.8697C72.3504 55.7657 71.6738 56.5725 70.7783 57.2926C69.6427 58.2036 68.5615 58.805 67.5347 59.0973C66.5073 59.3896 65.5141 59.3855 64.5562 59.0857C63.5977 58.7847 62.7775 58.2337 62.0957 57.4315L62.0963 57.4321Z" fill="white"/>
<path d="M78.7638 33.0554L80.6241 32.0205L85.0468 39.9692C85.816 41.3526 86.2669 42.5391 86.4 43.5301C86.5326 44.5216 86.3242 45.5038 85.7732 46.4779C85.2233 47.4526 84.27 48.3162 82.915 49.0704C81.5983 49.8037 80.3978 50.1805 79.3131 50.2025C78.2285 50.2245 77.2734 49.9137 76.4469 49.2707C75.6209 48.6288 74.8025 47.5788 73.991 46.1208L69.5684 38.1721L71.4286 37.1372L75.8461 45.0766C76.5111 46.2707 77.1143 47.0886 77.6566 47.529C78.1984 47.9683 78.831 48.1877 79.5545 48.1871C80.278 48.186 81.0391 47.9637 81.8379 47.518C83.2056 46.7569 84.0119 45.9113 84.2561 44.9811C84.5004 44.0504 84.1421 42.7221 83.1813 40.9949L78.7638 33.0554Z" fill="white"/>
<path d="M90.9629 44.4744L85.3809 29.753L91.0543 27.6016C92.0533 27.2231 92.8336 26.9806 93.3956 26.8746C94.1799 26.7149 94.886 26.7091 95.5134 26.8584C96.1409 27.0072 96.7226 27.3284 97.258 27.8221C97.7933 28.3159 98.1991 28.9277 98.4758 29.657C98.9504 30.9089 98.9452 32.1227 98.4601 33.2982C97.9745 34.4744 96.6687 35.4653 94.541 36.2716L90.6833 37.7342L92.9528 43.719L90.9623 44.4738L90.9629 44.4744ZM90.0246 35.9972L93.913 34.5224C95.1991 34.035 96.0234 33.4539 96.3857 32.7808C96.748 32.1076 96.7689 31.3459 96.4459 30.4951C96.2126 29.8792 95.8538 29.4127 95.3693 29.0944C94.8849 28.7772 94.3564 28.6464 93.7834 28.7025C93.4147 28.7425 92.7797 28.9335 91.8768 29.2761L88.0295 30.7347L90.0246 35.9972Z" fill="white"/>
<path d="M104.564 39.5561L101.296 24.1546L107.232 22.8951C108.276 22.6735 109.084 22.5537 109.656 22.534C110.455 22.4964 111.154 22.5982 111.752 22.8413C112.349 23.0844 112.875 23.4907 113.329 24.0597C113.782 24.6298 114.09 25.2966 114.252 26.0601C114.53 27.3699 114.339 28.568 113.68 29.6562C113.021 30.7438 111.578 31.5234 109.353 31.9957L105.317 32.8518L106.646 39.1127L104.563 39.5549L104.564 39.5561ZM104.931 31.0361L108.999 30.1719C110.345 29.8865 111.248 29.4391 111.709 28.8291C112.17 28.2184 112.307 27.4689 112.118 26.5792C111.981 25.935 111.698 25.4187 111.268 25.0298C110.838 24.642 110.335 24.4325 109.76 24.4006C109.39 24.3844 108.733 24.4759 107.788 24.6761L103.763 25.5305L104.931 31.0361Z" fill="white"/>
<path d="M117.724 29.0641C117.614 26.4537 118.244 24.3792 119.615 22.8419C120.984 21.304 122.802 20.4867 125.068 20.3912C126.552 20.3282 127.904 20.6193 129.124 21.2629C130.344 21.906 131.294 22.8355 131.971 24.0499C132.649 25.2648 133.02 26.6591 133.087 28.2329C133.155 29.8281 132.886 31.2687 132.281 32.556C131.677 33.8427 130.785 34.8348 129.606 35.534C128.428 36.232 127.141 36.6105 125.745 36.669C124.232 36.7332 122.865 36.4328 121.643 35.7678C120.421 35.1022 119.478 34.1645 118.811 32.9531C118.146 31.7416 117.783 30.4451 117.724 29.0641ZM119.918 29.0045C119.998 30.8995 120.582 32.3714 121.669 33.4178C122.757 34.4655 124.086 34.9546 125.658 34.8892C127.258 34.8215 128.552 34.2143 129.54 33.0694C130.528 31.9239 130.979 30.3398 130.894 28.3157C130.839 27.0348 130.571 25.9264 130.089 24.9904C129.606 24.0539 128.928 23.3408 128.054 22.8512C127.181 22.3615 126.214 22.1392 125.154 22.1832C123.649 22.2475 122.375 22.8083 121.332 23.8658C120.289 24.9239 119.818 26.6366 119.918 29.0045Z" fill="white"/>
<path d="M135.593 36.2922L137.654 20.6836L144.725 21.6172C146.146 21.8053 147.209 22.0878 147.911 22.4657C148.614 22.8443 149.14 23.4179 149.489 24.1854C149.837 24.9534 149.955 25.7672 149.841 26.6256C149.695 27.7334 149.205 28.6179 148.372 29.2806C147.54 29.9439 146.345 30.2773 144.788 30.2814C145.311 30.6176 145.701 30.9325 145.957 31.226C146.5 31.8615 146.993 32.6301 147.435 33.5331L149.647 38.1485L146.993 37.7977L145.312 34.2716C144.819 33.2535 144.406 32.4698 144.073 31.9205C143.739 31.3707 143.429 30.9759 143.139 30.7351C142.85 30.4944 142.548 30.3143 142.232 30.1928C141.999 30.1112 141.611 30.0354 141.067 29.9636L138.619 29.64L137.703 36.5707L135.593 36.2922ZM138.855 27.8504L143.391 28.4494C144.355 28.5768 145.123 28.5797 145.692 28.4552C146.262 28.3325 146.717 28.0749 147.056 27.6825C147.396 27.2907 147.599 26.8427 147.666 26.3391C147.763 25.6005 147.569 24.9575 147.084 24.4099C146.599 23.8618 145.766 23.5099 144.585 23.3542L139.537 22.6874L138.855 27.8504Z" fill="white"/>
<path d="M154.628 39.7159L158.497 26.3796L153.407 24.9031L153.925 23.1187L166.17 26.6714L165.652 28.4558L160.542 26.9729L156.672 40.3092L154.628 39.7159Z" fill="white"/>
<path d="M171.815 46.4101L178.272 34.1163L173.58 31.6523L174.444 30.0073L185.732 35.9366L184.868 37.581L180.157 35.1072L173.699 47.3999L171.815 46.4101Z" fill="white"/>
<path d="M179.853 50.7913L189.297 38.1953L191 39.4722L187.121 44.6449L193.811 49.6603L197.69 44.4875L199.392 45.7649L189.947 58.3615L188.245 57.0846L192.696 51.1472L186.007 46.1313L181.555 52.0687L179.853 50.7913Z" fill="white"/>
<path d="M192.172 60.4056L203.595 49.5698L211.599 58.0088L210.251 59.2868L203.712 52.3927L200.213 55.711L206.337 62.167L204.996 63.438L198.873 56.9814L194.985 60.6696L201.781 67.8346L200.433 69.1126L192.172 60.4039V60.4056Z" fill="white"/>
<path d="M58.7642 204.659L59.8703 206.502C58.3532 207.407 56.8761 207.778 55.4383 207.614C54 207.451 52.7 206.791 51.5378 205.634C50.3344 204.438 49.5999 203.219 49.3337 201.98C49.0674 200.74 49.1994 199.46 49.7302 198.14C50.2609 196.82 51.0568 195.627 52.1172 194.561C53.2736 193.398 54.5042 192.605 55.8094 192.182C57.1146 191.759 58.4007 191.73 59.6671 192.097C60.9335 192.463 62.0593 193.136 63.0439 194.115C64.1604 195.226 64.8162 196.445 65.0124 197.771C65.208 199.097 64.9429 200.423 64.2171 201.752L62.4222 200.648C62.9715 199.578 63.1839 198.613 63.0606 197.753C62.9368 196.893 62.5021 196.091 61.756 195.349C60.8982 194.495 59.9768 193.988 58.9916 193.825C58.0065 193.663 57.0526 193.813 56.13 194.273C55.2074 194.733 54.3797 195.332 53.6475 196.068C52.7029 197.017 52.017 197.983 51.5893 198.966C51.1616 199.949 51.0649 200.907 51.3005 201.838C51.5355 202.768 51.9933 203.573 52.6734 204.249C53.5005 205.072 54.4382 205.531 55.4864 205.624C56.5346 205.718 57.6268 205.396 58.7642 204.659Z" fill="black"/>
<path d="M77.1652 205.941L78.8576 207.157L73.5511 214.545C72.6279 215.831 71.7499 216.747 70.9158 217.294C70.0817 217.841 69.1157 218.079 68.0166 218.008C66.9174 217.937 65.7511 217.458 64.5183 216.573C63.3201 215.713 62.489 214.802 62.0236 213.842C61.5582 212.882 61.4436 211.894 61.6798 210.878C61.9154 209.861 62.5202 208.676 63.4938 207.321L68.7997 199.933L70.4921 201.148L65.192 208.528C64.3944 209.639 63.9094 210.531 63.738 211.205C63.5667 211.88 63.6298 212.541 63.9285 213.187C64.2271 213.833 64.7394 214.417 65.4663 214.939C66.7108 215.833 67.8001 216.188 68.7343 216.004C69.6685 215.82 70.7121 214.925 71.865 213.32L77.1652 205.941Z" fill="black"/>
<path d="M74.0566 222.592L81.0741 208.498L87.3229 211.609C88.5789 212.235 89.4708 212.837 89.9987 213.416C90.5266 213.994 90.8258 214.702 90.8982 215.537C90.9699 216.372 90.8131 217.178 90.427 217.953C89.9292 218.954 89.1855 219.635 88.1969 219.998C87.2083 220.362 85.991 220.3 84.5463 219.813C84.9214 220.296 85.1801 220.717 85.3219 221.075C85.6177 221.846 85.8226 222.727 85.9366 223.72L86.4784 228.777L84.1325 227.608L83.7273 223.747C83.6035 222.63 83.4773 221.759 83.3482 221.135C83.2186 220.511 83.0594 220.039 82.8701 219.722C82.6803 219.403 82.4592 219.137 82.2062 218.923C82.017 218.772 81.6818 218.578 81.2014 218.338L79.0384 217.262L75.9221 223.52L74.0572 222.591L74.0566 222.592ZM79.8418 215.647L83.8506 217.643C84.7032 218.067 85.4134 218.311 85.9818 218.374C86.5502 218.437 87.056 218.338 87.4994 218.074C87.9422 217.81 88.2773 217.452 88.5036 216.997C88.8353 216.33 88.866 215.661 88.5962 214.991C88.3259 214.321 87.6684 213.725 86.6237 213.205L82.1628 210.984L79.8418 215.647Z" fill="black"/>
<path d="M89.9209 230.03L94.5704 214.989L101.24 217.05C102.581 217.465 103.558 217.915 104.172 218.401C104.786 218.887 105.197 219.536 105.402 220.349C105.608 221.162 105.583 221.982 105.328 222.81C104.998 223.877 104.374 224.67 103.457 225.188C102.54 225.707 101.329 225.842 99.8248 225.594C100.273 226.01 100.596 226.383 100.794 226.714C101.21 227.427 101.554 228.265 101.827 229.226L103.178 234.129L100.675 233.355L99.6512 229.61C99.3491 228.528 99.084 227.688 98.8553 227.093C98.6267 226.498 98.394 226.059 98.1556 225.775C97.9171 225.492 97.6555 225.265 97.3713 225.094C97.1606 224.977 96.7983 224.839 96.2854 224.68L93.9766 223.967L91.912 230.646L89.9215 230.031L89.9209 230.03ZM94.5097 222.242L98.7882 223.565C99.6975 223.846 100.438 223.972 101.01 223.942C101.581 223.913 102.064 223.733 102.458 223.401C102.853 223.069 103.126 222.661 103.276 222.175C103.496 221.464 103.418 220.799 103.044 220.181C102.669 219.564 101.924 219.083 100.809 218.738L96.0481 217.266L94.5097 222.242Z" fill="black"/>
<path d="M106.711 234.759L108.973 219.178L120.239 220.813L119.972 222.652L110.768 221.316L110.075 226.088L118.695 227.339L118.429 229.167L109.81 227.916L109.04 233.219L118.605 234.607L118.339 236.446L106.712 234.759L106.711 234.759Z" fill="black"/>
<path d="M122.81 236.793L122.555 221.051L124.692 221.016L133.16 233.241L132.96 220.882L134.957 220.849L135.212 236.591L133.075 236.626L124.607 224.39L124.807 236.76L122.809 236.792L122.81 236.793Z" fill="black"/>
<path d="M144.056 235.523L141.894 221.806L136.77 222.614L136.48 220.779L148.808 218.836L149.097 220.671L143.952 221.482L146.114 235.199L144.055 235.523L144.056 235.523Z" fill="black"/>
<path d="M169.428 222.655L171.563 222.404C171.765 224.159 171.496 225.658 170.755 226.902C170.015 228.146 168.879 229.06 167.347 229.644C165.762 230.249 164.349 230.418 163.11 230.152C161.87 229.885 160.758 229.239 159.772 228.212C158.787 227.186 158.026 225.97 157.49 224.565C156.906 223.034 156.689 221.586 156.839 220.221C156.989 218.858 157.491 217.674 158.346 216.669C159.201 215.666 160.277 214.916 161.574 214.42C163.046 213.859 164.427 213.761 165.716 214.128C167.005 214.494 168.106 215.281 169.019 216.488L167.274 217.671C166.525 216.731 165.733 216.14 164.898 215.899C164.063 215.659 163.153 215.726 162.17 216.101C161.04 216.532 160.198 217.164 159.645 217.995C159.093 218.827 158.837 219.758 158.878 220.788C158.918 221.818 159.124 222.819 159.494 223.789C159.971 225.04 160.569 226.063 161.29 226.856C162.011 227.65 162.844 228.131 163.789 228.3C164.735 228.468 165.656 228.381 166.552 228.039C167.642 227.623 168.445 226.956 168.961 226.039C169.477 225.122 169.633 223.994 169.428 222.654V222.655Z" fill="black"/>
<path d="M172.749 218.913C171.423 216.661 170.988 214.542 171.447 212.556C171.906 210.57 173.091 209.014 175.004 207.887C176.256 207.15 177.561 206.784 178.919 206.79C180.278 206.796 181.536 207.179 182.694 207.938C183.852 208.697 184.831 209.756 185.63 211.113C186.44 212.488 186.888 213.882 186.972 215.295C187.057 216.708 186.755 217.994 186.066 219.151C185.377 220.309 184.443 221.235 183.265 221.929C181.988 222.682 180.665 223.046 179.297 223.022C177.928 222.997 176.669 222.604 175.522 221.842C174.375 221.08 173.451 220.104 172.75 218.913L172.749 218.913ZM174.616 217.85C175.58 219.485 176.778 220.514 178.211 220.936C179.644 221.359 181.024 221.18 182.35 220.399C183.701 219.602 184.533 218.472 184.846 217.008C185.159 215.544 184.802 213.939 183.773 212.193C183.123 211.09 182.368 210.235 181.51 209.632C180.652 209.028 179.73 208.711 178.744 208.681C177.758 208.651 176.818 208.899 175.923 209.427C174.653 210.175 173.816 211.256 173.415 212.669C173.013 214.081 173.414 215.809 174.616 217.85Z" fill="black"/>
<path d="M192.903 215.206L183.378 202.671L185.037 201.41L194.562 213.945L192.903 215.206Z" fill="black"/>
<path d="M198.395 211.059L187.539 199.655L189.087 198.182L203.6 201.433L195.076 192.48L196.523 191.103L207.379 202.506L205.831 203.98L191.311 200.721L199.841 209.682L198.395 211.059H198.395Z" fill="black"/>
<path d="M127.728 213.368C174.878 213.368 213.101 175.145 213.101 127.994C213.101 80.844 174.878 42.6211 127.728 42.6211C80.5774 42.6211 42.3545 80.844 42.3545 127.994C42.3545 175.145 80.5774 213.368 127.728 213.368Z" fill="url(#paint0_radial_1927_1452)" stroke="black" stroke-width="2" stroke-miterlimit="10"/>
<path d="M161.672 174.412C163.481 171.567 166.013 169.258 167.555 165.105C167.857 164.292 170.289 160.18 170.581 159.291C170.936 158.211 173.547 153.359 176.29 147.337C179.328 140.666 178.622 132.281 178.522 131.422C178.2 128.648 175.714 127.03 176.434 122.205C177.154 117.38 177.21 111.355 175.597 107.912C173.983 104.468 172.648 104.227 172.325 99.2777C172.002 94.3283 169.249 89.5132 167.958 87.6842C166.666 85.8552 157.306 73.1591 140.091 68.6404C124.582 64.569 111.867 68.6195 109.5 69.4623C109.264 69.5462 109.035 69.6411 108.807 69.747C102.873 72.5056 97.0082 75.4222 94.998 76.4288C94.5135 76.6713 94.0412 76.9341 93.6025 77.2512C83.3669 84.6466 82.2458 103.637 82.4373 115.222C82.633 127.053 86.7396 133.702 87.5216 135.56C88.079 136.884 90.7727 141.834 92.2741 144.569C92.9415 145.785 93.2905 147.149 93.2905 148.536V158.538C93.081 172.731 86.7217 180.775 83.1151 184.206C81.8655 185.395 80.2772 186.137 78.5732 186.405C76.034 186.804 72.0003 188.704 69.2041 190.146C84.4869 204.542 105.076 213.368 127.728 213.368C149.314 213.368 169.026 205.353 184.059 192.142C179.476 190.04 168.67 185.577 160.931 186.3C150.868 187.241 149.785 184.004 149.458 183.102C148.918 181.619 149.432 178.801 149.432 178.801C152.106 178.45 160.218 176.703 161.674 174.413L161.672 174.412Z" fill="#ADADAD" stroke="black" stroke-width="2" stroke-miterlimit="10"/>
<path d="M151.736 126.833L159.789 150.336C159.832 150.463 159.738 150.595 159.604 150.596L139.384 150.635" stroke="black" stroke-width="2" stroke-miterlimit="10" stroke-linecap="round"/>
<path d="M164.05 126.975C165.903 126.975 167.405 125.473 167.405 123.621C167.405 121.768 165.903 120.267 164.05 120.267C162.198 120.267 160.696 121.768 160.696 123.621C160.696 125.473 162.198 126.975 164.05 126.975Z" fill="black" stroke="black" stroke-width="2" stroke-miterlimit="10"/>
<path d="M134.502 161.674H161.107" stroke="black" stroke-width="2" stroke-miterlimit="10" stroke-linecap="round"/>
<path d="M104.737 134.781C104.737 134.781 103.947 144.185 106.555 150.19C109.162 156.196 121.453 165.574 126.31 170.736C131.87 176.644 137.982 178.593 142.529 179.062C144.413 179.257 146.554 179.135 147.944 178.98C148.841 178.88 149.431 178.801 149.431 178.801" stroke="black" stroke-width="2" stroke-miterlimit="10" stroke-linecap="round"/>
<path d="M107.201 177.284C107.201 177.284 102.162 177.819 101.094 182.348C100.078 186.657 97.3568 186.44 95.5156 186.44" stroke="black" stroke-miterlimit="10" stroke-linecap="round"/>
<path d="M85.1201 185.966C85.1201 185.966 83.9439 186.178 79.1885 186.471" stroke="black" stroke-miterlimit="10" stroke-linecap="round"/>
<path d="M107.2 156.06C107.2 156.06 109.182 162.797 105.813 168.22" stroke="black" stroke-miterlimit="10" stroke-linecap="round"/>
<path d="M136.624 181.283C136.624 181.283 137.186 183.258 137.692 184.159C139.189 186.825 140.485 186.442 140.485 186.442" stroke="black" stroke-miterlimit="10" stroke-linecap="round"/>
<path d="M130.035 126.975C131.887 126.975 133.389 125.473 133.389 123.621C133.389 121.768 131.887 120.267 130.035 120.267C128.182 120.267 126.681 121.768 126.681 123.621C126.681 125.473 128.182 126.975 130.035 126.975Z" fill="black" stroke="black" stroke-width="2" stroke-miterlimit="10"/>
<path d="M117.409 192.06C117.409 192.06 123.619 191.727 125.119 195.115C125.578 196.151 126.892 196.534 128.026 196.525C129.454 196.513 130.241 195.979 130.722 195.129C131.45 193.844 133.09 192.212 136.647 192.755" stroke="black" stroke-miterlimit="10" stroke-linecap="round"/>
</g>
<defs>
<radialGradient id="paint0_radial_1927_1452" cx="0" cy="0" r="1" gradientUnits="userSpaceOnUse" gradientTransform="translate(127.728 127.994) scale(85.3733)">
<stop offset="0.497" stop-color="#97E8FF"/>
<stop offset="0.64" stop-color="#94E6FF"/>
<stop offset="0.74" stop-color="#8BE2FF"/>
<stop offset="0.828" stop-color="#7BDAFF"/>
<stop offset="0.907" stop-color="#65D0FF"/>
<stop offset="0.981" stop-color="#49C3FF"/>
<stop offset="1" stop-color="#41BFFF"/>
</radialGradient>
<clipPath id="clip0_1927_1452">
<rect width="256" height="256" fill="white"/>
</clipPath>
</defs>
</svg>
