<svg width="256" height="256" viewBox="0 0 256 256" fill="none" xmlns="http://www.w3.org/2000/svg">
<path d="M128 252.8C196.925 252.8 252.8 196.925 252.8 128C252.8 59.0748 196.925 3.19995 128 3.19995C59.0751 3.19995 3.2002 59.0748 3.2002 128C3.2002 196.925 59.0751 252.8 128 252.8Z" fill="#6A53F3"/>
<path d="M127.5 35.3182L220.682 128.5L127.5 221.682L34.3182 128.5L127.5 35.3182ZM127.5 26C124.705 26 122.841 26.9318 120.977 28.7955L27.7955 121.977C24.0682 125.705 24.0682 131.295 27.7955 135.023L120.977 228.205C122.841 230.068 124.705 231 127.5 231C130.295 231 132.159 230.068 134.023 228.205L227.205 135.023C230.932 131.295 230.932 125.705 227.205 121.977L134.023 28.7955C132.159 26.9318 130.295 26 127.5 26Z" fill="white"/>
<path fill-rule="evenodd" clip-rule="evenodd" d="M220.682 128.5L127.5 35.3182L34.3184 128.5L127.5 221.682L220.682 128.5Z" fill="#5428DB"/>
<path fill-rule="evenodd" clip-rule="evenodd" d="M34.3184 128.5C53.8865 117.318 68.7956 113.591 80.9093 113.591C84.6365 113.591 89.2956 114.523 93.0229 114.523V84.7046H103.273L134.955 131.296C139.614 133.159 145.205 135.023 150.796 136.886V84.7046H161.046V121.977H183.409V130.364H161.977V138.75C164.773 139.682 167.568 139.682 170.364 139.682C185.273 140.614 201.114 137.818 219.75 128.5H220.682L127.5 35.3182L120.977 41.841C95.8184 67.0001 55.7502 107.068 34.3184 128.5ZM118.182 123.841L105.137 105.205H104.205V119.182C108.864 119.182 113.523 121.046 118.182 123.841Z" fill="#6A53F3"/>
<path fill-rule="evenodd" clip-rule="evenodd" d="M104.205 104.273V172.295H93.0236V130.364H71.5918V121.977H93.0236V84.7046H103.274L149.865 152.727H150.796V84.7046H161.978V121.977H183.41V130.364H161.978V172.295H151.728L105.137 104.273H104.205Z" fill="white"/>
</svg>
