<svg width="256" height="256" viewBox="0 0 256 256" fill="none" xmlns="http://www.w3.org/2000/svg">
<path d="M128 252.8C196.925 252.8 252.8 196.925 252.8 128C252.8 59.0748 196.925 3.19995 128 3.19995C59.0751 3.19995 3.2002 59.0748 3.2002 128C3.2002 196.925 59.0751 252.8 128 252.8Z" fill="white" fill-opacity="0.933333"/>
<path d="M171.067 75.0444L157.659 81.5853C157.352 81.7413 157.238 82.0928 157.391 82.3655L177.79 126.68C185.393 143.151 183.329 155.65 171.794 161.298C162.471 165.853 154.412 162.661 148.147 151.563L124.003 99.1097C114.224 77.8476 100.854 72.2016 85.0391 79.9496C74.7245 84.9732 68.7652 93.9695 68.8794 105.378C68.8794 105.495 68.8419 105.651 68.7652 105.73C68.6117 105.923 68.3066 106.002 68.0782 105.886C67.9623 105.846 67.8481 105.73 67.8106 105.613L62.5382 94.1632C62.4615 94.0071 62.3473 93.93 62.1939 93.8529C62.0422 93.8134 61.8887 93.8135 61.7746 93.8906L48.3268 100.473C48.061 100.627 47.9076 100.979 48.061 101.251L85.1158 181.663C85.1908 181.819 85.3067 181.896 85.4584 181.975C85.6118 182.013 85.7653 182.013 85.9169 181.936L99.3254 175.393C99.6305 175.239 99.7465 174.887 99.593 174.615L79.7667 131.547C71.6681 114.023 73.2346 101.328 85.6118 95.2931C95.1235 90.6586 102.496 93.774 109.144 105.651C109.144 105.651 109.144 105.69 109.181 105.69L133.095 157.598C142.302 177.614 156.665 184.506 171.794 177.108C183.482 171.383 188.333 162.778 188.066 151.484C188.066 151.211 188.257 150.978 188.487 150.901C188.754 150.822 189.022 150.978 189.136 151.211L194.484 162.815C194.598 163.05 194.789 163.167 195.019 163.167C195.096 163.167 195.172 163.127 195.247 163.127L208.656 156.547C208.886 156.468 209 156.235 209 156.002C209 155.923 208.963 155.846 208.923 155.769L171.868 75.3546C171.678 75.0443 171.335 74.9278 171.067 75.0444Z" fill="#2B69F0"/>
</svg>
