<svg width="256" height="256" viewBox="0 0 256 256" fill="none" xmlns="http://www.w3.org/2000/svg">
<g clip-path="url(#clip0_2280_390)">
<path fill-rule="evenodd" clip-rule="evenodd" d="M128 0C198.697 0 256 57.3026 256 128C256 198.697 198.697 256 128 256C57.3026 256 0 198.697 0 128C0 57.3026 57.3026 0 128 0Z" fill="black"/>
<path d="M79.5354 128.5L59.7926 148.237L40 128.5L59.7428 108.763L79.5354 128.5ZM127.525 80.5241L161.391 114.381L181.134 94.6435L127.525 41L73.8662 94.6435L93.609 114.381L127.525 80.5241ZM195.257 108.763L175.514 128.5L195.257 148.237L215 128.5L195.257 108.763ZM127.525 176.476L93.6587 142.619L73.9159 162.357L127.525 216L181.134 162.357L161.391 142.619L127.525 176.476ZM127.525 148.237L147.268 128.5L127.525 108.763L107.732 128.5L127.525 148.237Z" fill="white"/>
</g>
<defs>
<clipPath id="clip0_2280_390">
<rect width="256" height="256" fill="white"/>
</clipPath>
</defs>
</svg>
