<svg width="256" height="256" viewBox="0 0 256 256" fill="none" xmlns="http://www.w3.org/2000/svg">
<path d="M256 127.998C256 161.946 242.514 194.504 218.509 218.509C194.504 242.514 161.946 256 127.998 256C94.0514 255.999 61.495 242.513 37.491 218.509C13.487 194.505 0.00116778 161.95 0 128.002C-2.00871e-08 94.0551 13.4853 61.4975 37.4895 37.4926C61.4936 13.4876 94.0505 0.00116783 127.998 0C161.946 -2.00871e-08 194.503 13.4853 218.508 37.4895C242.512 61.4935 255.999 94.0505 256 127.998Z" fill="#1C1D21"/>
<path d="M178.982 64.5631L127.753 42V98.8436L141.909 118.444V62.9804L164.832 73.0078V157.724L139.465 142.244L90.1498 73.4617H87.6107C86.0839 73.4632 84.5723 73.7662 83.1624 74.3533C81.7525 74.9404 80.4719 75.8001 79.3937 76.8832C78.3154 77.9664 77.4607 79.2518 76.8785 80.666C76.2962 82.0802 75.9977 83.5956 76 85.1254V191.431L113.604 207.807V207.837L127.753 214V175.688L113.604 156.225V193.199L90.1498 182.944V98.8376L128.087 151.662L164.85 174.488H167.389C168.916 174.486 170.428 174.183 171.838 173.596C173.247 173.009 174.528 172.149 175.606 171.066C176.685 169.983 177.539 168.698 178.122 167.283C178.704 165.869 179.002 164.354 179 162.824V79.2129L178.982 64.5631Z" fill="#00E789"/>
</svg>
