<svg width="256" height="257" viewBox="0 0 256 257" fill="none" xmlns="http://www.w3.org/2000/svg">
<path d="M128 0C198.699 0 256 57.3447 256 128.072C256 198.81 198.699 256.143 128 256.143C57.3125 256.143 0 198.804 0 128.072C0 57.3447 57.3125 0 128 0Z" fill="#181818"/>
<path d="M174.673 76.663C162.095 72.9636 151.034 65.3268 143.114 54.8742C141.232 52.4336 139.55 49.8452 138.083 47.134C137.876 46.7509 137.569 46.4306 137.195 46.2063C136.822 45.9821 136.395 45.8621 135.96 45.8589H110.561C109.92 45.8589 109.307 46.1134 108.854 46.5665C108.401 47.0196 108.146 47.6341 108.146 48.2749V72.7038C108.146 73.3423 107.893 73.9552 107.443 74.4077C106.993 74.8608 106.382 75.1164 105.743 75.1194H66.415C66.095 75.1194 65.7781 75.1829 65.4831 75.3067C65.1881 75.4305 64.9205 75.611 64.6956 75.8391C64.4706 76.0672 64.2939 76.3373 64.1744 76.6343C64.0549 76.9313 63.9958 77.2491 64.0001 77.5693V117.076C64.0001 117.716 64.2549 118.331 64.7078 118.784C65.1606 119.237 65.7744 119.491 66.415 119.491H105.899C106.54 119.491 107.154 119.237 107.607 118.784C108.06 118.331 108.314 117.716 108.314 117.076V82.7702C108.312 82.2725 108.465 81.7871 108.751 81.3803C109.038 80.9729 109.443 80.6649 109.911 80.4984C110.38 80.3313 110.888 80.3137 111.367 80.4484C111.846 80.5826 112.271 80.8625 112.585 81.2492C120.967 91.7541 131.343 100.497 143.114 106.975C155.335 113.73 168.827 117.863 182.733 119.111C184.969 119.313 187.242 119.443 189.552 119.503C189.872 119.507 190.189 119.448 190.486 119.329C190.783 119.209 191.054 119.032 191.281 118.807C191.509 118.582 191.69 118.314 191.813 118.019C191.937 117.724 192 117.407 192 117.087V81.5285C191.997 80.8997 191.75 80.296 191.309 79.8471C190.868 79.3976 190.27 79.1384 189.641 79.1238C184.569 78.9311 179.54 78.1041 174.673 76.663Z" fill="white"/>
<path d="M147.686 173.371C147.708 173.883 147.565 174.388 147.28 174.812C146.995 175.237 146.581 175.56 146.099 175.734C145.618 175.907 145.094 175.922 144.603 175.777C144.112 175.632 143.681 175.334 143.372 174.926C134.985 164.424 124.61 155.682 112.841 149.2C100.632 142.459 87.1558 138.331 73.2678 137.075C71.0321 136.866 68.7586 136.732 66.4485 136.672C66.1279 136.668 65.8091 136.727 65.5116 136.847C65.2142 136.968 64.9436 137.146 64.7156 137.372C64.4876 137.598 64.3066 137.867 64.1841 138.164C64.061 138.46 63.9988 138.778 64 139.099V174.601C64.0031 175.231 64.2511 175.834 64.6918 176.283C65.1319 176.732 65.7305 176.992 66.3589 177.007C71.4423 177.202 76.4818 178.029 81.3611 179.467C93.9246 183.177 104.972 190.813 112.886 201.256C114.772 203.694 116.454 206.282 117.917 208.996C118.123 209.381 118.429 209.703 118.803 209.927C119.177 210.151 119.604 210.27 120.041 210.272H145.44C146.076 210.269 146.686 210.014 147.136 209.564C147.586 209.113 147.84 208.504 147.843 207.866V183.438C147.843 182.797 148.097 182.182 148.55 181.729C149.003 181.276 149.617 181.022 150.257 181.022H189.574C190.215 181.022 190.829 180.768 191.281 180.314C191.734 179.861 191.989 179.247 191.989 178.606V139.055C191.986 138.416 191.73 137.804 191.278 137.354C190.825 136.903 190.213 136.65 189.574 136.65H150.079C149.44 136.65 148.828 136.903 148.375 137.354C147.923 137.804 147.667 138.416 147.664 139.055L147.686 173.371Z" fill="white"/>
</svg>
