<svg width="256" height="256" viewBox="0 0 256 256" fill="none" xmlns="http://www.w3.org/2000/svg">
<g clip-path="url(#clip0_2472_651)">
<path d="M128 256C198.692 256 256 198.692 256 128C256 57.3075 198.692 0 128 0C57.3075 0 0 57.3075 0 128C0 198.692 57.3075 256 128 256Z" fill="#002332"/>
<path d="M222.597 171.03C224.55 169.211 226.122 167.021 227.22 164.587C228.318 162.154 228.92 159.525 228.993 156.856C229.065 154.186 228.605 151.529 227.64 149.039C226.675 146.55 225.224 144.278 223.372 142.356C221.521 140.434 219.305 138.901 216.855 137.847C214.405 136.792 211.769 136.237 209.103 136.214C206.436 136.191 203.791 136.701 201.324 137.713C198.856 138.725 196.614 140.22 194.73 142.109C191.014 145.835 188.906 150.873 188.861 156.139C188.816 161.405 190.836 166.478 194.488 170.268C198.139 174.057 203.13 176.26 208.387 176.403C213.644 176.545 218.746 174.616 222.597 171.03ZM85.709 222.929C87.5388 224.829 89.7244 226.349 92.1408 227.403C94.5573 228.457 97.1574 229.023 99.7926 229.071C102.428 229.119 105.047 228.646 107.499 227.68C109.952 226.714 112.191 225.274 114.088 223.441C115.985 221.609 117.503 219.42 118.555 217C119.608 214.58 120.174 211.977 120.221 209.338C120.269 206.699 119.797 204.076 118.832 201.62C117.867 199.164 116.429 196.922 114.599 195.022C112.77 193.122 110.584 191.602 108.168 190.548C105.751 189.495 103.151 188.928 100.516 188.88C97.8805 188.833 95.2617 189.305 92.8089 190.271C90.3561 191.237 88.1173 192.677 86.2203 194.51C84.3234 196.342 82.8054 198.531 81.7531 200.951C80.7007 203.371 80.1347 205.974 80.0872 208.613C80.0397 211.252 80.5117 213.875 81.4763 216.331C82.4409 218.787 83.8792 221.029 85.709 222.929ZM34.1283 84.8334C30.2972 88.5412 28.0938 93.6212 28.0029 98.9559C27.912 104.291 29.941 109.443 33.6436 113.279C37.3461 117.116 42.4189 119.322 47.746 119.413C53.0731 119.504 58.2181 117.473 62.0492 113.765C65.8803 110.057 68.0836 104.977 68.1745 99.6423C68.2654 94.3077 66.2364 89.1554 62.5339 85.3188C58.8314 81.4823 53.7586 79.2758 48.4315 79.1848C43.1044 79.0938 37.9594 81.1256 34.1283 84.8334ZM171.837 33.7556C170.044 31.7129 167.856 30.0558 165.405 28.8847C162.954 27.7135 160.291 27.0527 157.577 26.9422C154.864 26.8318 152.156 27.274 149.618 28.242C147.08 29.21 144.765 30.6838 142.812 32.574C140.86 34.4643 139.311 36.7317 138.259 39.239C137.207 41.7463 136.674 44.4413 136.693 47.1608C136.711 49.8804 137.281 52.5679 138.366 55.0606C139.452 57.5533 141.032 59.7994 143.01 61.6628C146.767 65.2021 151.741 67.1569 156.899 67.1218C162.057 67.0866 167.003 65.064 170.711 61.4738C174.42 57.8836 176.606 53.0014 176.815 47.8403C177.025 42.6792 175.242 37.6354 171.837 33.7556Z" fill="#09B781"/>
<path d="M214.26 95.899C216.143 93.9942 217.608 91.716 218.559 89.2109C219.511 86.7057 219.928 84.0291 219.784 81.3531V81.2463C219.591 77.5487 218.33 73.9865 216.155 70.9911C213.98 67.9958 210.984 65.6958 207.529 64.3699C204.075 63.044 200.31 62.7489 196.691 63.5206C193.073 64.2922 189.755 66.0974 187.141 68.7174L168.223 87.991C162.166 94.0634 148.153 94.9812 140.965 87.7776L95.6751 41.888C93.8884 40.0515 91.7505 38.5939 89.3889 37.6019C87.0273 36.61 84.4902 36.1041 81.9291 36.1144C64.8665 36.1144 56.3353 56.7327 68.4177 68.7921L87.5064 87.2333C94.4487 94.7998 93.6915 108.118 87.5064 114.319L41.6508 160.305C38.1157 163.837 36.1023 168.614 36.0415 173.613V174.039C35.8389 191.211 56.5699 199.951 68.6949 187.806L87.7517 168.65C94.374 162.012 108.173 161.937 115.126 168.896L160.214 214.284C162.062 216.133 164.269 217.584 166.7 218.545C169.13 219.507 171.732 219.96 174.344 219.876C191.108 219.385 199.17 199.065 187.312 187.198L169.119 168.757C162.358 162.001 161.856 148.95 169.119 141.725L214.26 95.899ZM142.81 143.272C138.78 147.164 133.37 149.294 127.77 149.194C122.17 149.094 116.84 146.772 112.951 142.738C109.062 138.705 106.933 133.291 107.033 127.687C107.133 122.083 109.454 116.749 113.484 112.857C117.514 108.965 122.925 106.835 128.524 106.935C134.124 107.035 139.455 109.357 143.344 113.39C147.232 117.424 149.361 122.838 149.261 128.442C149.161 134.046 146.841 139.38 142.81 143.272Z" fill="#09B781"/>
</g>
<defs>
<clipPath id="clip0_2472_651">
<rect width="256" height="256" fill="white"/>
</clipPath>
</defs>
</svg>
