<svg width="255" height="252" viewBox="0 0 255 252" fill="none" xmlns="http://www.w3.org/2000/svg">
<path d="M128.785 9.00065C151.891 9.15563 174.434 16.1491 193.571 29.0992C212.708 42.0493 227.582 60.376 236.317 81.7684C245.053 103.161 247.258 126.661 242.655 149.305C238.053 171.949 226.848 192.723 210.454 209.007C194.061 225.292 173.213 236.357 150.538 240.809C127.864 245.26 104.38 242.897 83.0467 234.019C61.7134 225.141 43.4866 210.145 30.6649 190.922C17.8431 171.698 11.0005 149.109 11 126.002C11.1049 94.8672 23.5731 65.0496 45.6618 43.1078C67.7505 21.1661 97.6506 8.89742 128.785 9.00065Z" fill="#E2F1FF"/>
<path d="M128.362 1.9336C103.871 1.92677 79.9284 9.19628 59.5622 22.8225C39.1959 36.4486 23.3212 55.8195 13.9458 78.4846C4.57048 101.15 2.11553 126.092 6.89177 150.155C11.668 174.218 23.4609 196.322 40.7786 213.67C58.0963 231.019 80.1606 242.832 104.181 247.617C128.202 252.401 153.099 249.942 175.724 240.55C198.35 231.158 217.686 215.255 231.288 194.853C244.891 174.451 252.147 150.466 252.14 125.931C252.131 93.0478 239.087 61.514 215.876 38.262C192.665 15.0098 161.187 1.94275 128.362 1.9336ZM128.362 217.722C110.24 217.722 92.5244 212.338 77.4563 202.252C62.3882 192.166 50.6437 177.831 43.7087 161.058C36.7738 144.286 34.9591 125.83 38.4947 108.024C42.0302 90.2185 50.7571 73.863 63.5712 61.0259C76.3856 48.1891 92.7122 39.4467 110.486 35.9049C128.26 32.3633 146.683 34.1811 163.426 41.1286C180.169 48.0758 194.479 59.8408 204.547 74.9356C214.616 90.0304 219.99 107.777 219.99 125.931C219.994 137.987 217.627 149.925 213.024 161.063C208.421 172.202 201.672 182.322 193.163 190.847C184.653 199.371 174.55 206.132 163.432 210.744C152.313 215.355 140.396 217.726 128.362 217.722Z" fill="#1A74EC"/>
<path d="M128.327 197.389C167.722 197.389 199.658 165.396 199.658 125.931C199.658 86.4662 167.722 54.4736 128.327 54.4736C88.9323 54.4736 56.996 86.4662 56.996 125.931C56.996 165.396 88.9323 197.389 128.327 197.389Z" fill="#1A74EC"/>
<path d="M36.7337 125.931C36.7293 137.986 39.0963 149.925 43.6994 161.063C48.3025 172.201 55.0517 182.322 63.5608 190.847C72.0702 199.371 82.1727 206.132 93.2917 210.743C104.41 215.355 116.328 217.726 128.361 217.721V249.963C111.93 250.238 95.6094 247.233 80.3498 241.124C65.0901 235.015 51.1971 225.924 39.4805 214.381C27.7639 202.838 18.4584 189.074 12.1064 173.891C5.75444 158.708 2.48303 142.411 2.48303 125.948C2.48303 109.486 5.75444 93.1884 12.1064 78.0059C18.4584 62.8231 27.7639 49.0587 39.4805 37.5157C51.1971 25.9727 65.0901 16.8815 80.3498 10.7724C95.6094 4.66336 111.93 1.65865 128.361 1.93328V34.141C116.328 34.1365 104.41 36.5077 93.2917 41.119C82.1727 45.7302 72.0702 52.4911 63.5608 61.0156C55.0517 69.5401 48.3025 79.6608 43.6994 90.7992C39.0963 101.938 36.7293 113.876 36.7337 125.931Z" fill="#6396FF"/>
<path d="M128.327 54.4736V197.389C147.245 197.389 165.389 189.86 178.766 176.459C192.143 163.058 199.658 144.883 199.658 125.931C199.658 106.979 192.143 88.804 178.766 75.4031C165.389 62.0022 147.245 54.4736 128.327 54.4736Z" fill="#6396FF"/>
</svg>
