<svg width="256" height="256" viewBox="0 0 256 256" fill="none" xmlns="http://www.w3.org/2000/svg">
<path d="M256 127.998C256 161.946 242.514 194.504 218.509 218.509C194.504 242.514 161.946 256 127.998 256C94.0514 255.999 61.495 242.513 37.491 218.509C13.487 194.505 0.00116778 161.95 0 128.002C-2.00871e-08 94.0551 13.4853 61.4975 37.4895 37.4926C61.4936 13.4876 94.0505 0.00116783 127.998 0C161.946 -2.00871e-08 194.503 13.4853 218.508 37.4895C242.512 61.4935 255.999 94.0505 256 127.998Z" fill="#1C7EFF"/>
<mask id="mask0_1829_493" style="mask-type:luminance" maskUnits="userSpaceOnUse" x="37" y="59" width="181" height="138">
<path d="M218 59H37V196.982H218V59Z" fill="white"/>
</mask>
<g mask="url(#mask0_1829_493)">
<path d="M80.6426 87.0692C86.3096 81.7977 92.7123 77.5733 100.099 74.9838C108.329 72.0995 117.375 71.4115 125.941 73.1164C131.477 74.2183 136.835 76.2691 141.611 79.246C145.989 81.9735 149.72 85.3378 153.13 89.1559L146.844 93.9926C144.62 91.1423 142.224 88.602 139.438 86.2734C136.249 83.6065 132.434 81.5274 128.538 80.0474C120.374 76.942 111.451 76.5999 102.957 78.5164C97.8531 79.6675 92.9316 81.8033 88.5131 84.5572C86.438 85.8519 84.5056 87.3054 82.6094 88.8383C82.4461 88.9706 82.431 89.0708 82.2966 88.9177L81.7372 88.2939L80.6426 87.0692Z" fill="#F2F3F8"/>
<path d="M210.386 62.9642C205.339 63.5184 200.292 64.0703 195.244 64.6199C193.64 64.7957 191.84 64.9261 190.678 66.168C189.006 67.9597 190.601 70.2638 191.961 71.6738L196.026 75.8982C196.491 76.3802 196.952 76.8622 197.421 77.3442C197.53 77.4594 196.32 78.6275 196.178 78.7787L189.056 86.3997L188.711 86.7701C186.373 83.5518 183.837 80.4783 181.115 77.5672C179.902 76.2793 178.665 75.0133 177.405 73.7699C177.301 73.6698 176.729 72.9648 176.604 73.08L175.593 74.0043L174.683 74.8397C174.556 74.9569 175.381 75.7375 175.484 75.8547C176.654 77.2326 177.845 78.5897 178.992 79.9903C180.273 81.5534 181.48 83.1845 182.64 84.8346C183.519 86.0945 184.373 87.3711 185.201 88.664C185.343 88.887 185.481 89.1101 185.618 89.3369C185.881 89.7697 185.912 89.7641 185.566 90.1326C184.092 91.709 182.625 93.291 181.145 94.8654C174.343 82.2925 163.769 71.6304 150.691 65.3741C135.251 57.9857 117.241 57.0425 100.997 62.4293C84.7599 67.8161 70.9976 79.3136 62.6928 94.0187C54.4015 108.69 51.8388 126.364 55.3486 142.768C55.8091 144.923 56.3752 147.054 57.0449 149.155C57.1525 149.499 57.285 149.58 57.018 149.858L56.4513 150.446L55.3447 151.595L53.0357 153.994L45.4244 161.896L37.3041 170.33C37.2637 170.371 36.9602 170.636 37.0044 170.68L38.9831 172.555C39.2021 172.762 39.3692 173.156 39.6151 172.91L40.4565 172.067L50.8571 161.639L58.6855 153.789C62.9253 164.51 69.7931 173.949 78.6549 181.419C91.9852 192.654 109.93 198.258 127.41 196.737C136.042 195.975 144.444 193.582 152.155 189.688C158.615 186.43 164.292 182.145 169.508 177.206C174.097 172.857 177.968 167.585 181.04 162.119C185.174 154.757 187.889 146.706 189.049 138.372C190.036 131.163 189.914 123.85 188.686 116.677C187.962 112.478 186.863 108.35 185.402 104.34C185.268 103.966 184.957 103.566 185.262 103.267L186.38 102.169C187.729 100.848 189.083 99.5321 190.436 98.2166C194.159 105.834 196.387 114.337 197.173 122.733C197.991 131.433 197.188 140.273 194.831 148.697C193.409 153.776 191.525 158.755 189.131 163.471C186.995 167.684 184.559 171.677 181.933 175.611L190.881 181.181C194.658 174.604 197.964 167.861 200.348 160.666C203.026 152.582 204.64 144.035 204.684 135.516C204.728 126.778 203.451 118.152 200.683 109.843C199.357 105.838 197.709 101.943 195.755 98.1958C195.306 97.3358 194.866 96.472 194.38 95.629L194.032 95.0299C193.851 94.7199 194.064 94.6859 194.297 94.461L195.578 93.2154L199.949 88.9645L204.415 84.6192L211.007 91.4633C212.439 92.9526 215.117 94.5479 216.422 92.0189C217.061 90.779 217.037 89.3331 217.104 87.9741C217.307 83.9822 217.513 79.9884 217.713 75.9965L217.968 71.0123C218.049 69.4378 218.026 67.9049 217.281 66.4533C215.988 63.9244 213.185 62.6599 210.386 62.9642ZM62.6947 138.382C58.8564 122.727 61.6862 105.667 70.4232 92.053C79.041 78.6181 92.9536 68.9937 108.971 66.4004C125.446 63.7316 142.561 68.8953 155.136 79.5877C160.304 83.9803 164.751 89.2877 168.053 95.1716C169.489 97.7347 170.725 100.401 171.751 103.148C171.905 103.558 172.335 104.229 172.019 104.566L170.772 105.892C167.921 108.922 165.062 111.948 162.208 114.976C156.245 121.298 150.26 127.61 144.28 133.919L135.092 143.609C134.007 144.751 132.923 145.896 131.838 147.036C131.079 147.828 129.454 149.524 128.176 148.958C126.526 148.227 126.314 145.294 126.013 143.736C125.197 139.557 124.405 135.374 123.614 131.19C122.009 122.699 120.576 114.164 118.811 105.705C118.05 102.057 115.929 98.1939 111.755 97.7611C108.944 97.47 106.305 98.8913 104.345 100.764C102.338 102.681 100.467 104.743 98.5435 106.739L89.2551 116.384L63.9108 142.704C63.4519 141.278 63.0463 139.836 62.6947 138.382C63.0463 139.835 59.9764 127.286 62.6947 138.382ZM126.364 145.558C126.382 145.638 126.372 145.592 126.364 145.558ZM173.986 136.539C170.874 151.96 161.045 166.238 147.548 174.662C133.457 183.459 115.478 185.483 99.7579 179.886C95.2083 178.256 90.882 176.077 86.8771 173.399C84.946 172.135 83.1128 170.731 81.3924 169.199C81.0619 168.901 80.7296 168.6 80.3935 168.302L79.8748 167.841C79.8364 167.807 79.5597 167.544 79.7154 167.714C76.2037 164.217 73.0089 160.573 70.3233 156.402C68.6443 153.772 67.1822 151.015 65.951 148.155C65.7857 147.772 65.3266 147.127 65.6397 146.813L66.8807 145.57L75.0875 137.34L92.9053 119.48L102.363 109.998C104.249 108.107 106.076 106.129 108.062 104.339C108.906 103.601 110.322 102.552 111.507 103.014C113.113 103.624 113.424 106.079 113.68 107.503C114.448 111.795 115.199 116.093 115.962 120.386C117.43 128.67 118.901 136.953 120.319 145.244C120.634 147.091 120.922 149.07 121.904 150.711C123.646 153.627 126.489 155.547 130.066 154.946C133.123 154.434 135.347 152.372 137.451 150.297L146.962 140.908C156.152 131.834 165.356 122.771 174.577 113.723C175.79 121.306 175.624 129.029 173.986 136.539C175.736 128.521 173.173 140.557 173.986 136.539Z" fill="#F2F3F8"/>
</g>
</svg>
