<svg width="256" height="256" viewBox="0 0 256 256" fill="none" xmlns="http://www.w3.org/2000/svg">
<path d="M256 127.998C256 161.946 242.514 194.504 218.509 218.509C194.504 242.514 161.946 256 127.998 256C94.0514 255.999 61.495 242.513 37.491 218.509C13.487 194.505 0.00116778 161.95 0 128.002C-2.00871e-08 94.0551 13.4853 61.4975 37.4895 37.4926C61.4936 13.4876 94.0505 0.00116783 127.998 0C161.946 -2.00871e-08 194.503 13.4853 218.508 37.4895C242.512 61.4935 255.999 94.0505 256 127.998Z" fill="#1B1E24"/>
<path d="M127.982 34L64 72.6114V86.8248V86.8556V126.239V129.726V169.11V169.14V183.6L127.982 222.15L191.702 183.6V169.14V169.11V129.726V126.239V86.8556V86.8248V72.6114L127.982 34Z" fill="white"/>
<path d="M127.968 36.207L65.8994 73.6767V88.0441V88.0749V126.301V129.665V167.891V167.937V182.536L127.968 219.944L189.805 182.536V167.937V167.891V129.665V126.301V88.0749V88.0441V73.6767L189.574 73.5532L127.968 36.207Z" fill="#002554"/>
<path d="M127.968 36.207L65.8994 73.6767V88.0441V88.0749V126.301V129.665V167.891V167.937V182.536L127.968 219.944L189.805 182.536V167.937V167.891V129.665V126.301V88.0749V88.0441V73.6767L189.574 73.5532L127.968 36.207Z" stroke="#002554" stroke-width="0.21" stroke-miterlimit="10"/>
<path d="M120.466 86.1285C121.346 86.1593 124.447 86.7304 124.602 88.5667C124.756 90.3878 123.815 92.3015 122.534 92.4247C121.253 92.5482 119.71 92.5174 118.799 92.0546C117.889 91.5915 117.426 91.7457 117.071 90.4957C116.7 89.2457 116.145 89.8631 116.777 87.9649C117.41 86.0822 116.639 85.2642 118.259 85.2334" fill="white"/>
<path d="M100.682 80.7434C100.435 80.6044 96.7003 80.7434 96.7003 80.7434L94.509 83.7837L97.5799 94.9257H111.176L115.003 92.0552L115.435 91.8391L115.713 91.793L115.42 89.9872C115.42 89.9872 115.42 87.796 114.355 86.4533C113.275 85.0953 111.083 83.691 109.416 83.9843C107.734 84.2774 105.821 84.7404 105.173 85.6045C104.525 86.4688 104.494 86.299 104.339 86.2219C104.185 86.1447 104.216 85.8515 104.339 85.5429C104.447 85.2343 102.241 81.6849 100.682 80.7589" fill="white"/>
<path d="M158.939 84.0768H138.862L133.353 79.3545L134.202 94.9256L142.381 90.7435L145.637 94.9256H158.939V84.0768Z" fill="white"/>
<path fill-rule="evenodd" clip-rule="evenodd" d="M147.52 95.0498C145.73 95.0498 144.357 94.5867 143.446 93.6763C142.212 92.4418 142.227 90.7906 142.227 90.2503V84.4325H145.992V90.1732C145.992 90.2967 146.131 91.6083 147.428 91.6083C147.814 91.6083 148.107 91.5004 148.323 91.2845C148.739 90.8677 148.739 90.1732 148.739 90.1732V84.4633H152.536V90.343C152.551 90.5591 152.644 92.2875 151.44 93.5992C150.561 94.5559 149.249 95.0498 147.505 95.0498M110.02 94.8647C104.418 94.8647 104.264 90.0961 104.264 89.5558C104.264 86.9634 105.714 83.9541 109.788 83.9541C111.409 83.9541 112.705 84.4325 113.616 85.3892C115.113 86.9478 115.035 89.1856 115.035 89.2936V90.4357H108.183C108.353 91.2226 109.094 91.8089 110.005 91.8089C111.054 91.8089 111.609 90.775 111.625 90.775L111.795 90.4665L112.103 90.6208L114.912 92.0096L114.681 92.3492C113.554 94.0467 111.995 94.8955 110.02 94.8955M111.146 87.9046C111.008 87.4725 110.653 86.8552 109.742 86.8552C108.832 86.8552 108.446 87.4725 108.291 87.9046H111.146ZM120.236 94.7413C117.829 94.7413 115.39 93.0437 115.39 89.2473C115.39 85.4509 118.307 83.9849 120.267 83.9849C121.409 83.9849 122.427 84.4478 123.045 84.8027V77.8428H126.81V94.587H123.091V93.8153C122.505 94.2318 121.548 94.7413 120.236 94.7413ZM121.131 87.2411C120.9 87.2411 119.341 87.4262 119.341 89.3707C119.341 91.1918 120.56 91.3924 121.085 91.3924C121.177 91.3924 123.168 91.3616 123.168 89.3244C123.168 87.4109 121.316 87.2566 121.131 87.2566M158.662 77.8428H162.351V94.587H158.662V77.8428ZM153.57 77.8428H157.304V94.587H153.57V77.8428ZM130.113 94.587V78.4757H135.776C139.249 78.4757 140.792 80.6206 140.792 82.7349C140.792 84.2164 140.128 85.2194 139.681 85.7441C141.116 86.4387 142.057 87.5034 142.057 89.9418C142.057 94.4788 137.073 94.587 137.011 94.587H130.113ZM136.471 91.1763C136.671 91.1455 138.153 90.8677 138.153 89.5097C138.153 87.9509 136.764 87.8585 136.486 87.8585H134.279V84.4325H135.622C135.622 84.4325 135.653 84.4325 135.684 84.4325C136.131 84.4325 136.857 84.2627 136.857 83.1514C136.857 82.0404 135.869 81.8706 135.283 81.8706C135.221 81.8706 135.19 81.8706 135.19 81.8706H135.159H134.002V91.161H136.455L136.471 91.1763ZM100.822 94.587L97.4888 89.3244V85.235H98.6153C98.9086 85.235 100.313 85.1578 100.313 83.5219C100.313 81.9941 98.847 81.8706 98.3994 81.8706H97.211V94.587H93.3066V78.1516H97.5198C102.088 78.1516 104.31 79.9108 104.31 83.5374C104.31 86.778 102.026 87.7658 100.915 88.0591L105.421 94.6023H100.807L100.822 94.587Z" fill="#D20F3E"/>
<path d="M162.009 94.2014H159.046V78.1828H162.009V94.2014ZM156.947 94.2014H153.953V78.1828H156.947V94.2014ZM126.453 78.1828V94.2014H123.459V92.9977C123.459 92.9977 122.302 94.3559 120.234 94.3559C118.166 94.3559 115.758 92.9361 115.758 89.2169C115.758 85.4978 118.582 84.3249 120.265 84.3249C121.947 84.3249 123.413 85.4515 123.413 85.4515V78.1828H126.453ZM121.098 91.7324C121.252 91.7324 123.536 91.6553 123.536 89.294C123.536 86.9329 121.129 86.8558 121.129 86.8558C121.129 86.8558 118.984 86.9329 118.984 89.3403C118.984 91.7477 120.866 91.7169 121.098 91.7169M97.5328 78.4761C101.206 78.4761 103.953 79.5408 103.953 83.4914C103.953 87.4421 100.311 87.7662 100.311 87.7662L104.74 94.1861H101.02L97.8569 89.186V85.575H98.613C98.7828 85.575 100.666 85.5286 100.666 83.507C100.666 81.4853 98.7365 81.4853 98.3816 81.4853C98.3508 81.4853 98.3353 81.4853 98.3353 81.4853H96.8383V94.2014H93.6748V78.4916H97.5328M135.789 78.8154C138.953 78.8154 140.45 80.6673 140.45 82.7045C140.45 84.7415 139.061 85.8372 139.061 85.8372C140.759 86.5162 141.7 87.4577 141.7 89.9114C141.7 94.1398 137.024 94.1861 137.024 94.1861H130.496V78.8002H135.805M133.675 91.5008H136.515C136.515 91.5008 138.536 91.2541 138.536 89.4793C138.536 87.7046 136.993 87.4732 136.515 87.4732H134.663V84.7725H135.604C135.604 84.7725 135.635 84.7725 135.697 84.7725C136.052 84.7725 137.24 84.6643 137.24 83.1213C137.24 81.578 135.743 81.47 135.296 81.47C135.218 81.47 135.172 81.47 135.172 81.47H133.66V91.4855M109.801 84.2786C114.879 84.2786 114.678 89.2324 114.678 89.2324V90.0193H107.78C107.78 91.1459 108.721 92.1181 110.002 92.1181C111.283 92.1181 111.947 90.8836 111.947 90.8836L114.385 92.0873C113.258 93.7849 111.73 94.4639 110.033 94.4639C104.74 94.4639 104.632 90.0657 104.632 89.5101C104.632 88.9546 104.709 84.2786 109.786 84.2786M107.826 88.2138H111.607C111.607 88.2138 111.453 86.4391 109.74 86.4391C108.027 86.4391 107.826 88.2138 107.826 88.2138ZM145.635 84.7878V90.1583C145.635 90.1583 145.743 91.9639 147.441 91.9639C149.138 91.9639 149.123 90.1583 149.123 90.1583V84.7878H152.194V90.3434C152.194 90.3434 152.58 94.6645 147.533 94.6645C142.487 94.6645 142.611 90.8681 142.611 90.1891V84.7878H145.651M162.75 77.4267H158.321V94.9115H162.75V77.4267ZM157.688 77.4267H153.228V94.9115H157.688V77.4267ZM127.194 77.4267H122.687V84.1551C122.039 83.8466 121.191 83.5686 120.265 83.5686C118.444 83.5686 115.882 84.6798 115.203 87.6275C115.018 86.8403 114.632 85.8991 113.876 85.1119C112.888 84.0933 111.514 83.5686 109.786 83.5686C105.434 83.5686 103.891 86.7787 103.891 89.5409C103.891 92.3035 105.496 95.22 110.018 95.22C112.116 95.22 113.783 94.3096 114.971 92.5041L115.434 91.8096L114.694 91.4391L113.305 90.7602H115.172C115.758 93.7078 118.011 95.0502 120.234 95.0502C121.268 95.0502 122.101 94.7572 122.734 94.4176V94.8959H127.178V77.4111L127.194 77.4267ZM108.937 87.4885C109.107 87.3034 109.369 87.1644 109.755 87.1644C110.141 87.1644 110.372 87.3034 110.542 87.4885H108.937ZM121.098 90.9761C120.465 90.9761 119.724 90.683 119.724 89.325C119.724 87.7817 120.851 87.5964 121.144 87.5656C121.484 87.5811 122.811 87.7662 122.811 89.2632C122.811 90.8681 121.391 90.9608 121.098 90.9761ZM108.737 90.7602H111.16C110.959 91.0071 110.573 91.3928 110.002 91.3928C109.431 91.3928 108.999 91.1459 108.737 90.7602ZM97.5328 77.7352H92.9495V94.9115H97.5791V90.112L100.403 94.5719L100.619 94.9115H106.129L105.342 93.7694L101.514 88.2293C102.98 87.7046 104.678 86.3311 104.678 83.4914C104.678 81.3926 103.953 79.8496 102.517 78.8928C101.36 78.1212 99.7243 77.7507 97.5328 77.7507M97.5791 82.2106H98.3816H98.3971C98.9679 82.2106 99.9402 82.3804 99.9402 83.4914C99.9402 84.6951 99.0143 84.8341 98.613 84.8341H97.5944V82.2106H97.5791ZM135.789 78.0748H129.755V94.9115H137.009C137.009 94.9115 138.351 94.8959 139.663 94.2941C140.543 93.8929 141.53 93.1675 142.055 91.902C142.271 92.7047 142.641 93.3837 143.181 93.9237C144.154 94.9115 145.62 95.4054 147.502 95.4054C149.385 95.4054 150.759 94.8807 151.7 93.8465C152.981 92.4577 152.919 90.6367 152.888 90.3281V84.0625H148.367V90.1583C148.367 90.4824 148.274 91.2385 147.425 91.2385C146.53 91.2385 146.376 90.4206 146.345 90.1275V84.0472H141.839V87.1644C141.438 86.4082 140.867 85.9144 140.234 85.5595C140.682 84.9421 141.16 83.9698 141.16 82.6737C141.16 80.3743 139.493 78.044 135.774 78.044M134.37 82.1798H135.218C135.218 82.1798 135.249 82.1798 135.28 82.1798C136.083 82.1798 136.499 82.4884 136.499 83.1057C136.499 83.3835 136.499 84.0161 135.681 84.0161C135.666 84.0161 135.65 84.0161 135.65 84.0161H135.62H135.589H134.385V82.1953L134.37 82.1798ZM134.37 88.1675H136.484C136.792 88.1675 137.78 88.2601 137.78 89.4483C137.78 90.4669 136.654 90.7138 136.438 90.7446H134.385V88.1675H134.37Z" fill="white"/>
<path d="M158.708 77.457H157.165V85.4355H158.708V77.457Z" fill="white"/>
<path d="M99.1237 103.893H75.0957V134.834V177.211L121.763 205.437V134.834V103.893H99.1237ZM109.402 134.834V183.431L87.4415 170.143V134.834V116.254H109.402V134.834Z" fill="white"/>
<path d="M156.579 103.893H146.301H133.94V116.254V134.819V134.834V205.422L180.607 177.196V143.183H168.276H168.246H157.273V155.544H168.246V170.128L146.301 183.415V134.834V134.819V116.254H168.246V130.837H180.607V116.254V103.893H156.579Z" fill="white"/>
<path fill-rule="evenodd" clip-rule="evenodd" d="M138.94 63.8164C138.94 69.9431 133.971 74.9124 127.844 74.9124C121.718 74.9124 116.749 69.9431 116.749 63.8164C116.749 57.6898 121.718 52.7207 127.844 52.7207C133.971 52.7207 138.94 57.6898 138.94 63.8164Z" fill="#FFCC07"/>
<path d="M127.457 69.109C127.287 69.0471 126.809 68.8002 126.577 68.4763C126.5 68.2602 126.223 67.6428 125.621 67.1336C125.59 66.8251 125.497 66.2693 125.219 65.8528C125.173 65.6367 125.05 65.0964 125.003 64.9422C124.926 64.6644 124.834 64.2787 124.834 64.186C124.834 64.0162 124.834 63.0595 124.232 62.2725C124.124 62.0872 123.738 61.4237 123.167 60.899C123.059 60.7756 122.673 60.2972 122.349 59.9731C122.256 59.8804 121.778 59.3402 120.821 58.6612C120.821 58.6612 120.404 58.3527 120.111 58.0441C120.096 58.0286 120.065 57.9978 120.034 57.9822C119.988 57.9514 119 57.2416 117.874 57.2416C117.318 57.2416 116.84 57.4112 116.423 57.7353C116.192 57.8896 115.528 58.2908 115.003 58.4298C114.741 58.4606 113.259 58.7231 112.549 59.8496C112.503 59.8649 112.426 59.896 112.272 59.9268C111.948 59.9113 110.62 59.9268 109.602 61.2384C109.509 61.3156 109.17 61.5625 108.583 61.6397C108.275 61.6244 106.824 61.5933 105.806 62.7662C105.435 63.0903 104.355 63.8311 103.46 63.8311C103.12 63.8311 102.843 63.7232 102.611 63.507C102.565 63.4607 102.195 63.0287 102.765 62.1491C102.858 62.0409 103.352 61.4854 104.124 60.9143C104.494 60.6521 105.08 59.9268 104.71 59.0008C104.633 58.7694 104.278 57.9051 102.997 57.8588C102.627 57.7816 101.701 57.5039 101.33 57.0563C101.222 56.9175 101.037 56.8402 100.852 56.8865C100.667 56.9175 100.528 57.0563 100.481 57.2261C100.481 57.2724 100.157 58.4143 100.79 59.2631C101.191 59.7878 101.839 60.0655 102.719 60.0655C102.611 60.1737 102.472 60.2972 102.333 60.3435C102.333 60.3435 102.318 60.3435 102.303 60.3435C102.256 60.3588 101.346 60.7756 100.945 62.0564C100.62 62.8897 100.497 64.6181 102.349 65.3589C102.904 65.544 103.522 65.5903 104.309 65.5132C104.339 65.9608 104.432 66.5934 104.741 67.1953C104.741 67.2108 104.756 67.2416 104.772 67.2571C104.803 67.3187 104.833 67.3959 104.833 67.4422L104.201 67.8126C104.201 67.8126 104.124 67.8126 104.062 67.8126C104 67.8126 103.861 67.7818 103.722 67.7818C103.321 67.7818 103.105 67.9516 102.997 68.0904C102.966 68.1367 102.935 68.183 102.92 68.2294C102.92 68.2294 102.796 68.5843 102.642 68.8776C102.642 68.8776 102.642 68.8928 102.642 68.9084C102.58 69.0471 102.441 69.2941 102.256 69.4947C102.256 69.4484 102.241 69.4023 102.225 69.3404C102.179 69.2169 102.056 69.001 101.716 68.9392C101.438 68.8776 101.13 68.9392 100.913 69.1398C100.759 69.2788 100.559 69.4176 100.497 69.4484C100.296 69.5257 100.08 69.6953 100.019 69.9731C100.019 69.9731 100.019 69.9886 100.019 70.0041C99.8488 70.0194 99.7098 70.0965 99.5863 70.22C99.3394 70.4825 99.3086 70.8682 99.2933 71.038C99.2933 71.177 99.247 71.2386 99.247 71.2386C99.247 71.2386 99.247 71.2386 99.247 71.2541C99.0771 71.5472 99.0927 71.7941 99.108 71.856C99.108 71.8713 99.108 71.9021 99.108 71.9176C99.1543 72.0874 99.3394 72.4886 100.034 72.4886C100.204 72.4886 100.343 72.4578 100.358 72.4578C100.404 72.4578 100.451 72.4268 100.497 72.4115C100.589 72.4731 100.713 72.5042 100.821 72.4886C100.821 72.4886 100.898 72.4886 100.991 72.4886C101.099 72.4886 101.16 72.4886 101.207 72.5194C101.238 72.5194 101.407 72.5813 101.639 72.5813C102.071 72.5813 102.441 72.3652 102.642 72.0103C102.765 71.8096 102.935 71.5935 103.043 71.5164C103.136 71.5472 103.306 71.5782 103.522 71.5782C104 71.5782 104.432 71.4084 104.756 71.0688C104.756 71.0688 105.235 70.5749 105.883 70.5749C105.944 70.5749 106.022 70.5749 106.068 70.5749C106.083 70.5749 106.593 70.6831 107.071 70.6831C107.457 70.6831 107.735 70.6212 107.935 70.4825C108.213 70.3435 108.691 70.0965 108.83 70.0502C109.062 69.9886 109.463 69.7416 109.54 69.2325C109.633 69.0163 109.741 68.7849 109.787 68.723C109.895 68.5998 109.926 68.43 109.895 68.291C110.096 68.3373 110.389 68.3681 110.682 68.3218H110.713C110.713 68.3218 111.207 68.1983 111.732 68.1983C111.886 68.1983 112.025 68.1983 112.148 68.2294C112.272 68.2602 112.997 68.4145 113.784 68.4145C114 68.4145 114.216 68.4145 114.401 68.3837C114.494 68.3837 114.571 68.3373 114.648 68.2757C114.895 68.5688 115.235 68.8312 115.667 68.9855C115.667 68.9855 116.114 69.1553 116.222 69.7416C116.053 69.8188 115.759 69.9423 115.235 70.1276C115.235 70.1276 115.219 70.1276 115.204 70.1276C114.972 69.649 114.432 68.6922 113.722 68.6922C113.722 68.6922 113.676 68.6922 113.661 68.6922L112.704 68.7694C112.704 68.7694 112.642 68.7694 112.627 68.7694C112.426 68.8157 112.195 68.97 112.117 69.2325C112.071 69.3559 112.056 69.6182 112.287 69.8959C112.364 70.0041 112.565 70.2819 112.673 70.467C112.766 70.7139 112.997 70.9453 113.383 70.9453C113.429 70.9453 113.475 70.9453 113.537 70.9453C113.537 70.9453 113.537 70.9453 113.552 70.9453C113.584 70.9764 113.614 71.0535 113.661 71.1923C113.661 71.2231 113.691 71.2541 113.707 71.2849C113.738 71.3466 114.031 71.856 114.571 72.0255C114.602 72.0255 114.772 72.0874 114.988 72.0874C115.204 72.0874 115.42 72.0411 115.605 71.9484C116.099 71.7633 117.148 71.3621 117.503 71.1459C117.534 71.1307 117.642 71.0843 117.704 71.0843C117.704 71.0843 117.735 71.0843 117.75 71.0843C117.781 71.0843 117.889 71.1151 118.028 71.1151C118.429 71.1151 118.769 70.93 118.954 70.606L119.309 70.0502C119.355 70.2511 119.417 70.467 119.54 70.606C119.602 70.6831 119.834 70.9453 120.204 70.9453C120.281 70.9453 120.358 70.9453 120.42 70.9145C120.42 70.9145 120.451 70.9145 120.466 70.9145C120.543 70.9145 120.698 70.899 121.022 70.791C121.114 70.7602 121.485 70.6676 121.639 70.606C121.824 70.5441 122.164 70.4517 122.303 70.4517C122.318 70.4517 122.349 70.4517 122.38 70.4517C122.395 70.4517 122.519 70.4514 122.658 70.467C122.658 70.467 122.689 70.467 122.704 70.467C122.704 70.467 122.766 70.467 122.858 70.467C123.105 70.467 123.692 70.4206 124.17 69.9886C124.463 70.2972 125.173 70.93 126.207 70.93C126.392 70.93 126.593 70.9145 126.778 70.8682C126.979 70.8219 127.133 70.6523 127.164 70.4361C127.164 70.3282 127.164 70.2355 127.102 70.1429C127.256 70.1429 127.411 70.0965 127.565 70.0502C127.75 69.9886 127.889 69.8035 127.889 69.6029C127.889 69.4023 127.766 69.2169 127.581 69.1398M101.67 58.6768C101.592 58.5688 101.546 58.4453 101.515 58.3219C102.164 58.6612 102.843 58.8002 102.951 58.831C102.981 58.831 103.012 58.831 103.028 58.831C103.707 58.831 103.861 59.2167 103.877 59.2786C103.877 59.3094 103.877 59.3249 103.907 59.3557C104 59.5719 103.954 59.757 103.877 59.8804C103.877 59.7725 103.83 59.6798 103.784 59.5872C103.568 59.1859 103.089 59.1088 102.997 59.0935C102.966 59.0935 102.951 59.0935 102.92 59.0935H102.858C102.272 59.0935 101.87 58.9545 101.67 58.6768ZM102.812 70.3898C102.812 70.3898 102.765 70.5133 102.75 70.5749C102.318 70.7602 101.994 71.2541 101.839 71.5164C101.824 71.5472 101.793 71.5935 101.685 71.5935C101.624 71.5935 101.577 71.5935 101.577 71.5935C101.515 71.5782 101.438 71.5472 101.377 71.5472C101.407 71.47 101.438 71.4237 101.454 71.3929C101.778 71.3158 102.009 71.0843 102.117 70.8837C102.117 70.8682 102.133 70.8374 102.148 70.8219C102.194 70.6984 102.38 70.6523 102.38 70.6523C102.41 70.6523 102.441 70.6368 102.472 70.6212C102.627 70.5596 102.765 70.467 102.874 70.359C102.843 70.4053 102.827 70.4361 102.812 70.4517M113.63 70.0041C113.63 70.0041 113.568 70.0041 113.537 70.0041C113.491 69.927 113.429 69.8343 113.367 69.7416L113.738 69.7108C113.83 69.7572 113.969 69.927 114.108 70.1276C113.938 70.0194 113.769 69.9886 113.645 69.9886M114.926 71.1307C114.926 71.1307 114.787 71.0535 114.741 71.0072C114.864 71.0843 115.003 71.1151 115.158 71.1307C115.081 71.1615 114.942 71.1307 114.926 71.1307ZM119.942 67.5812C119.803 67.6892 119.448 67.9669 119.263 68.3373C119.263 68.3373 119.247 68.3065 119.232 68.291C119.232 68.2757 119.232 68.2447 119.216 68.2294L118.954 67.6275C119.216 67.6428 119.479 67.612 119.664 67.5193C119.741 67.5193 119.833 67.4885 119.942 67.473C119.942 67.5041 119.942 67.5504 119.926 67.5812M124.263 68.3837C124.54 68.723 124.664 69.001 124.726 69.1861C124.602 69.0471 124.432 68.97 124.232 68.97C123.939 68.97 123.692 69.1553 123.615 69.2016C123.599 69.2169 123.568 69.2325 123.553 69.2633C123.383 69.4484 123.136 69.5255 122.982 69.541C123.074 69.4794 123.167 69.4023 123.244 69.2941C123.352 69.1398 123.46 68.8928 123.398 68.4763C123.352 68.2294 123.121 67.9516 122.735 67.9516C122.55 67.9516 122.349 68.0132 122.133 68.1367C122.087 68.1675 121.67 68.399 121.547 68.9392C121.547 68.9547 121.547 68.97 121.547 68.9855C121.516 69.1861 121.562 69.3559 121.686 69.4947C121.716 69.5257 121.747 69.5565 121.793 69.5874C121.577 69.649 121.377 69.7108 121.315 69.7264C121.222 69.7572 120.914 69.8496 120.744 69.8959C120.744 69.8959 120.729 69.8959 120.713 69.8959C120.59 69.9423 120.513 69.9578 120.482 69.9578C120.42 69.9578 120.343 69.9578 120.297 69.9578C120.281 69.8959 120.266 69.8188 120.25 69.7572C120.281 69.649 120.374 69.5255 120.42 69.4794C120.42 69.4794 120.451 69.4484 120.466 69.4331C120.543 69.3404 120.729 69.1398 120.682 68.862C120.682 68.7849 120.636 68.723 120.59 68.6614C120.528 68.5843 120.451 68.5224 120.358 68.4763C120.404 68.43 120.451 68.399 120.513 68.3529C120.852 68.1059 120.898 67.7355 120.898 67.6736C120.898 67.5965 121.006 67.3959 121.114 67.2571C121.315 66.9946 121.238 66.7477 121.207 66.6553C121.114 66.4699 120.929 66.362 120.698 66.362C120.605 66.362 120.528 66.3775 120.497 66.3928C120.404 66.4238 119.864 66.501 119.432 66.5626C119.371 66.5626 119.309 66.5934 119.263 66.6245C119.741 65.4979 119.263 64.5409 119.232 64.4946C119.124 64.294 118.907 64.186 118.676 64.2479C118.46 64.3095 118.306 64.4946 118.306 64.7263C118.306 65.0348 118.136 65.6059 118.028 65.8836C118.028 65.8836 118.028 65.8991 118.028 65.9144C117.904 66.2848 117.766 66.4083 117.75 66.4238C117.735 66.4238 117.704 66.4391 117.689 66.4547C117.596 66.4855 117.287 66.5781 116.994 66.6397C116.978 66.6397 116.948 66.6397 116.932 66.6553C116.624 66.7787 116.516 66.9946 116.485 67.1181C116.408 67.3651 116.5 67.5965 116.608 67.751C116.624 67.7818 116.654 67.7971 116.67 67.8126C116.701 67.8434 116.747 67.9361 116.793 68.0132C116.901 68.3065 117.256 68.8776 117.411 69.109C117.442 69.1553 117.457 69.1706 117.503 69.2016C117.503 69.2016 117.503 69.2325 117.503 69.2477C117.503 69.2941 117.503 69.3096 117.503 69.3559C117.503 69.4484 117.411 69.7416 117.303 69.9731C117.303 70.0041 117.272 70.0349 117.272 70.0657C117.272 70.0502 117.272 70.0194 117.272 70.0041C117.287 68.5224 116.114 68.0751 116.053 68.0596C115.281 67.7818 114.972 66.7787 114.957 66.7787C114.942 66.7169 114.911 66.6706 114.88 66.6245C114.71 66.3928 114.494 66.362 114.386 66.362C114.124 66.362 113.877 66.5471 113.753 66.8559C113.738 66.9022 113.722 66.9483 113.722 66.9946C113.707 67.1492 113.722 67.3034 113.722 67.4422C113.043 67.4269 112.426 67.2879 112.411 67.2879C112.411 67.2879 112.395 67.2879 112.38 67.2879C112.195 67.2571 112.009 67.2416 111.793 67.2416C111.222 67.2416 110.698 67.3498 110.574 67.3806C110.512 67.3806 110.466 67.3806 110.404 67.3806C110.173 67.3806 110.049 67.3034 110.049 67.3034C110.049 67.3034 110.034 67.3034 110.019 67.2724C109.88 67.1336 109.864 66.3775 109.972 65.7293C109.972 65.7293 109.972 65.7138 109.972 65.6985C110.003 65.4361 109.941 65.2354 109.818 65.0812C109.71 64.9577 109.556 64.8958 109.386 64.8958C109.34 64.8958 109.262 64.8958 109.216 64.9269C109.154 64.9422 109.093 64.9885 109.031 65.0348C108.522 65.4824 108.506 66.6861 108.537 67.3034C107.827 68.6769 106.469 68.7694 106.238 68.7694C106.13 68.7694 106.022 68.7541 105.914 68.7541C105.574 68.7541 105.281 68.8157 105.25 68.8157C104.386 68.97 103.768 69.4023 103.367 69.7724C103.506 69.5718 103.583 69.4023 103.614 69.3404C103.707 69.1553 103.799 68.9392 103.861 68.7849C103.907 68.7849 103.954 68.7849 103.969 68.8002C104 68.8002 104.015 68.8002 104.046 68.8002C104.108 68.8002 104.154 68.8002 104.216 68.8002C104.494 68.8002 104.679 68.7386 104.772 68.6769L105.512 68.2447C105.512 68.2447 105.559 68.2139 105.589 68.183C106.053 67.7663 105.975 67.1492 105.698 66.7324C105.296 65.9299 105.389 65.0193 105.389 65.004C105.404 64.8497 105.343 64.6952 105.235 64.6028C105.173 64.5409 105.08 64.4946 105.003 64.4793C105.867 64.0934 106.531 63.5226 106.577 63.4915C106.593 63.4762 106.608 63.4607 106.624 63.4452C107.256 62.7046 108.151 62.6274 108.522 62.6274C108.599 62.6274 108.645 62.6274 108.645 62.6274C108.676 62.6274 108.722 62.6274 108.753 62.6274C109.787 62.504 110.343 61.9948 110.404 61.9329C110.42 61.9174 110.435 61.9021 110.451 61.8713C111.099 60.9915 111.917 60.899 112.241 60.899C112.287 60.899 112.318 60.899 112.318 60.899C112.364 60.899 112.395 60.899 112.441 60.899C113.105 60.8219 113.383 60.5902 113.475 60.3743C114 59.5719 115.25 59.4021 115.25 59.4021C115.266 59.4021 115.296 59.4021 115.312 59.4021C116.114 59.2015 117.04 58.5688 117.087 58.5533C117.087 58.5533 117.102 58.5533 117.117 58.5378C117.364 58.3371 117.642 58.2447 117.982 58.2447C118.692 58.2447 119.386 58.6768 119.54 58.7847C119.895 59.1551 120.343 59.4792 120.358 59.4947C121.284 60.1427 121.732 60.6521 121.732 60.6521C121.732 60.6521 121.732 60.6674 121.763 60.6829C122.087 61.0225 122.55 61.578 122.55 61.578C122.565 61.5933 122.58 61.6244 122.611 61.6397C123.151 62.1027 123.506 62.7817 123.506 62.7972C123.522 62.8281 123.537 62.8589 123.568 62.8897C124.016 63.4452 123.985 64.1705 123.985 64.186C123.985 64.186 123.985 64.2016 123.985 64.2168C123.985 64.4175 124.077 64.8187 124.155 65.112C123.923 64.8342 123.676 64.5101 123.63 64.4175C123.63 64.3866 123.599 64.3558 123.583 64.3403C123.476 64.2016 123.259 64.0473 122.997 64.0473C122.843 64.0473 122.55 64.1089 122.303 64.4793C122.272 64.5256 122.256 64.5564 122.241 64.6028C122.241 64.6028 122.21 64.6952 122.195 64.7263C122.195 64.7263 121.901 65.2971 121.824 65.4516C121.778 65.5287 121.701 65.6985 121.701 65.8991C121.701 66.115 121.855 66.3004 122.071 66.362C122.179 66.3928 122.55 66.4391 122.905 66.0224C122.997 66.115 123.074 66.1922 123.121 66.2385C123.151 66.2848 123.182 66.4238 123.167 66.8559C123.167 66.9946 123.229 67.1492 123.337 67.2416C123.445 67.3343 123.599 67.3806 123.738 67.3498C123.769 67.3498 124.386 67.2416 124.494 66.4238C124.664 66.6553 124.741 67.0565 124.772 67.3034C124.664 67.3034 124.54 67.3034 124.448 67.3651C124.294 67.4422 124.17 67.5657 124.124 67.7355C124.031 68.0288 124.201 68.3065 124.278 68.4145" fill="white"/>
<path d="M118.492 60.1396C118.368 60.1396 118.121 60.186 117.921 60.479C117.921 60.479 117.921 60.4945 117.921 60.5101C117.689 60.9266 117.797 61.2507 117.89 61.405C117.89 61.436 117.921 61.4513 117.936 61.4821C117.936 61.4976 118.307 61.9607 118.353 62.9175C118.353 63.1489 118.538 63.3342 118.769 63.3803C118.8 63.3803 118.816 63.3803 118.847 63.3803C119.047 63.3803 119.232 63.2568 119.31 63.0562C119.325 62.9946 119.834 61.5595 119.093 60.5101C118.986 60.3247 118.769 60.1549 118.507 60.1549" fill="white"/>
<path d="M156.533 71.2056C156.533 71.2056 156.486 71.1284 156.471 70.9894C156.471 70.8352 156.44 70.4339 156.178 70.1715C156.054 70.048 155.916 69.9864 155.746 69.9556C155.746 69.9556 155.746 69.94 155.746 69.9245C155.684 69.6468 155.452 69.4772 155.283 69.4153C155.221 69.3845 155.005 69.2302 154.851 69.0912C154.681 68.9525 154.465 68.8598 154.233 68.8598C154.172 68.8598 154.094 68.8598 154.048 68.8753C153.709 68.9525 153.585 69.1684 153.539 69.2766C153.523 69.3227 153.508 69.369 153.508 69.4309C153.323 69.2302 153.169 68.9525 153.122 68.8443C153.122 68.8443 153.122 68.829 153.122 68.8135C152.983 68.5357 152.86 68.1808 152.844 68.1653C152.829 68.119 152.798 68.0726 152.767 68.0265C152.659 67.8876 152.443 67.7177 152.042 67.7177C151.903 67.7177 151.764 67.7333 151.702 67.7488C151.625 67.7488 151.579 67.7488 151.548 67.7488L150.9 67.3784C150.9 67.3784 150.931 67.2549 150.962 67.2086C150.962 67.193 150.993 67.1622 150.993 67.1467C151.301 66.5449 151.394 65.9122 151.425 65.4646C152.212 65.5573 152.829 65.511 153.4 65.3104C155.221 64.585 155.098 62.8566 154.789 62.0234C154.387 60.7423 153.462 60.3258 153.431 60.3103C153.431 60.3103 153.431 60.3103 153.4 60.3103C153.261 60.2486 153.107 60.1405 153.014 60.0325C153.894 60.0325 154.542 59.7548 154.943 59.2301C155.576 58.3968 155.267 57.2547 155.252 57.1931C155.205 57.0233 155.051 56.8843 154.881 56.8535C154.696 56.8227 154.511 56.8843 154.403 57.0233C154.033 57.4708 153.107 57.7486 152.736 57.8257C151.455 57.8721 151.101 58.7362 151.023 58.9678C150.653 59.8938 151.24 60.6191 151.594 60.8813C152.381 61.4523 152.875 62.0234 152.968 62.1313C153.539 63.0109 153.169 63.443 153.122 63.4893C152.891 63.7054 152.613 63.8134 152.273 63.8134C151.255 63.8134 150.113 62.8875 149.928 62.7487C148.909 61.5911 147.474 61.6066 147.15 61.6221C146.548 61.545 146.209 61.2981 146.131 61.2209C145.113 59.8938 143.77 59.8938 143.462 59.909C143.307 59.8938 143.215 59.8627 143.184 59.8319C142.474 58.7053 140.992 58.4584 140.73 58.4121C140.144 58.2578 139.418 57.7794 139.31 57.7178C138.894 57.3937 138.415 57.2239 137.86 57.2239C136.733 57.2239 135.745 57.9337 135.699 57.9645C135.668 57.98 135.653 58.0108 135.622 58.0264C135.329 58.3349 134.912 58.6437 134.912 58.6437C133.955 59.3227 133.461 59.8627 133.369 59.9554C133.06 60.2795 132.659 60.7578 132.551 60.8813C131.964 61.3905 131.579 62.0697 131.486 62.2548C130.869 63.0265 130.869 63.9832 130.884 64.1683C130.884 64.261 130.792 64.6159 130.714 64.9399C130.668 65.0942 130.545 65.6345 130.499 65.8506C130.236 66.2671 130.128 66.8229 130.097 67.1314C129.495 67.6561 129.217 68.258 129.14 68.4739C128.894 68.798 128.431 69.0449 128.261 69.1068C128.076 69.1839 127.952 69.369 127.952 69.5696C127.952 69.7702 128.091 69.9556 128.276 70.0172C128.431 70.0635 128.585 70.1098 128.739 70.1098C128.693 70.2025 128.662 70.2949 128.677 70.4031C128.693 70.619 128.847 70.7888 129.063 70.8352C129.249 70.8815 129.449 70.8968 129.634 70.8968C130.668 70.8968 131.393 70.2796 131.671 69.9556C132.15 70.3876 132.736 70.4339 132.983 70.4339C133.091 70.4339 133.137 70.4339 133.137 70.4339C133.137 70.4339 133.168 70.4339 133.184 70.4339C133.323 70.4031 133.446 70.4184 133.446 70.4184C133.477 70.4184 133.508 70.4184 133.523 70.4184C133.647 70.4184 133.955 70.4956 134.187 70.5882C134.341 70.6345 134.711 70.7425 134.804 70.7733C135.113 70.8815 135.282 70.8968 135.36 70.8968C135.36 70.8968 135.39 70.8968 135.406 70.8968C135.483 70.9123 135.545 70.9278 135.622 70.9278C136.008 70.9278 136.224 70.6654 136.286 70.5882C136.394 70.4339 136.471 70.2178 136.517 70.0172L136.887 70.5727C137.072 70.8968 137.397 71.0821 137.813 71.0821C137.952 71.0821 138.06 71.0666 138.091 71.0513C138.091 71.0513 138.122 71.0513 138.137 71.0513C138.199 71.0513 138.292 71.0821 138.338 71.1129C138.678 71.3443 139.742 71.7456 140.236 71.9154C140.421 72.008 140.622 72.0544 140.854 72.0544C141.07 72.0544 141.239 72.008 141.27 71.9925C141.795 71.8074 142.088 71.298 142.119 71.2519C142.134 71.2209 142.15 71.1901 142.165 71.1593C142.212 71.0203 142.242 70.9586 142.273 70.9123C142.273 70.9123 142.273 70.9123 142.289 70.9123C142.35 70.9123 142.397 70.9123 142.443 70.9123C142.813 70.9123 143.076 70.6809 143.153 70.4339C143.245 70.2641 143.446 69.9864 143.539 69.8629C143.77 69.5851 143.755 69.3382 143.709 69.1992C143.631 68.937 143.384 68.7827 143.199 68.7363C143.168 68.7363 143.138 68.7363 143.122 68.7363L142.165 68.6592C142.165 68.6592 142.119 68.6592 142.104 68.6592C141.409 68.6592 140.869 69.6007 140.622 70.0943H140.591C140.082 69.9092 139.773 69.7858 139.604 69.7086C139.696 69.1531 140.113 68.9678 140.159 68.9525C140.591 68.798 140.915 68.5202 141.178 68.2425C141.255 68.3043 141.332 68.3351 141.424 68.3506C141.61 68.3814 141.826 68.3814 142.042 68.3814C142.829 68.3814 143.554 68.2272 143.678 68.1961C143.801 68.1808 143.94 68.1653 144.094 68.1653C144.603 68.1653 145.097 68.2733 145.097 68.2888H145.128C145.421 68.3351 145.699 68.3196 145.915 68.258C145.869 68.4123 145.915 68.5821 146.008 68.69C146.054 68.7519 146.162 68.9833 146.255 69.1992C146.332 69.6931 146.733 69.94 146.949 70.0019C147.119 70.0635 147.597 70.2949 147.875 70.4339C148.076 70.5727 148.354 70.6345 148.739 70.6345C149.218 70.6345 149.727 70.5266 149.727 70.5266C149.789 70.5266 149.866 70.5111 149.928 70.5111C150.576 70.5111 151.054 71.005 151.07 71.0203C151.394 71.3443 151.81 71.5297 152.289 71.5297C152.49 71.5297 152.659 71.4986 152.767 71.4678C152.875 71.545 153.045 71.7611 153.169 71.9462C153.369 72.3166 153.74 72.5327 154.172 72.5327C154.387 72.5327 154.573 72.4709 154.604 72.4709C154.604 72.4709 154.681 72.4556 154.804 72.4556C154.897 72.4556 154.959 72.4556 154.974 72.4556C155.082 72.4556 155.205 72.4556 155.298 72.3785C155.344 72.3938 155.391 72.4093 155.437 72.4246C155.452 72.4246 155.591 72.4556 155.761 72.4556C156.456 72.4556 156.641 72.0544 156.687 71.8846C156.687 71.869 156.687 71.8382 156.687 71.8227C156.687 71.7611 156.718 71.5141 156.533 71.2056ZM152.922 59.0602C152.922 59.0602 152.875 59.0602 152.844 59.0602C152.752 59.0602 152.273 59.1684 152.057 59.5541C152.011 59.6468 151.98 59.7392 151.965 59.8474C151.888 59.7084 151.841 59.5386 151.934 59.3227C151.934 59.2919 151.949 59.2764 151.949 59.2609C151.965 59.1837 152.119 58.8288 152.798 58.8133C152.829 58.8133 152.86 58.8133 152.875 58.8133C152.983 58.798 153.678 58.6437 154.31 58.3041C154.28 58.4276 154.233 58.5511 154.156 58.659C153.94 58.9368 153.539 59.0758 152.968 59.0758H152.906L152.922 59.0602ZM142.088 69.6315L142.459 69.6623C142.397 69.7549 142.35 69.8321 142.289 69.9245C142.15 69.9092 141.949 69.9245 141.718 70.0635C141.857 69.8474 141.995 69.6931 142.088 69.6468M141.1 70.9586C141.1 70.9586 140.992 71.0666 140.931 71.0821C140.931 71.0821 140.776 71.1129 140.699 71.0821C140.854 71.0821 140.992 71.0358 141.116 70.9586M136.64 68.1808C136.64 68.1808 136.625 68.2272 136.625 68.2425C136.625 68.2425 136.61 68.2733 136.594 68.2888C136.425 67.9184 136.054 67.6406 135.915 67.5327C135.915 67.5018 135.915 67.4555 135.9 67.4247C136.008 67.44 136.116 67.4555 136.193 67.4708C136.378 67.5635 136.64 67.5943 136.903 67.579L136.64 68.1808ZM150.622 68.7672C150.622 68.7672 150.298 68.7055 149.943 68.7055C149.82 68.7055 149.712 68.7055 149.619 68.7208C149.388 68.7208 148.029 68.6284 147.32 67.2549C147.35 66.6375 147.32 65.4338 146.826 64.9863C146.779 64.9399 146.718 64.9091 146.641 64.8783C146.594 64.8783 146.517 64.8475 146.471 64.8475C146.301 64.8475 146.147 64.9247 146.039 65.0326C145.9 65.1869 145.853 65.3875 145.885 65.65C145.885 65.65 145.885 65.6653 145.885 65.6808C145.992 66.329 145.977 67.0851 145.853 67.2086C145.838 67.2086 145.838 67.2086 145.823 67.2394C145.823 67.2394 145.699 67.332 145.452 67.332C145.406 67.332 145.344 67.332 145.283 67.332C145.174 67.3012 144.634 67.193 144.063 67.193C143.847 67.193 143.647 67.193 143.477 67.2394C143.477 67.2394 143.462 67.2394 143.446 67.2394C143.446 67.2394 142.829 67.3784 142.134 67.3937C142.15 67.2549 142.165 67.1159 142.134 66.9461C142.134 66.9 142.119 66.8537 142.104 66.8073C141.98 66.4988 141.733 66.3134 141.471 66.3134C141.363 66.3134 141.147 66.3442 140.977 66.5759C140.946 66.622 140.915 66.6683 140.9 66.7302C140.9 66.7302 140.576 67.7333 139.804 68.011C139.758 68.0265 138.569 68.4739 138.585 69.9556C138.585 69.9864 138.585 70.0019 138.585 70.0327C138.585 69.9864 138.554 69.9556 138.539 69.9092C138.431 69.6931 138.338 69.3998 138.338 69.3074C138.338 69.2766 138.338 69.2302 138.338 69.1992V69.1684C138.384 69.1376 138.415 69.0912 138.446 69.0604C138.601 68.8135 138.955 68.2425 139.063 67.9494C139.094 67.872 139.156 67.7949 139.171 67.7488C139.202 67.7333 139.218 67.7025 139.233 67.6714C139.341 67.5327 139.434 67.2857 139.357 67.0388C139.326 66.9153 139.218 66.6994 138.909 66.5759C138.894 66.5759 138.863 66.5759 138.847 66.5604C138.585 66.4988 138.245 66.4061 138.153 66.3753C138.137 66.3753 138.107 66.3442 138.091 66.3442C138.06 66.329 137.921 66.2055 137.813 65.8351C137.813 65.8351 137.813 65.8195 137.813 65.8043C137.736 65.6189 137.536 64.9863 137.551 64.6314C137.551 64.4 137.397 64.2146 137.181 64.153C136.965 64.0912 136.733 64.1993 136.625 64.4C136.594 64.4463 136.116 65.403 136.594 66.5296C136.548 66.4988 136.486 66.4832 136.425 66.4677C135.992 66.4061 135.468 66.3134 135.344 66.2826C135.313 66.2826 135.236 66.2518 135.159 66.2518C134.928 66.2518 134.742 66.3598 134.65 66.5449C134.603 66.6375 134.526 66.869 134.742 67.1467C134.85 67.3012 134.943 67.5018 134.958 67.5635C134.958 67.6406 135.02 68.011 135.36 68.258C135.406 68.2888 135.452 68.3351 135.499 68.3814C135.406 68.4278 135.329 68.4894 135.267 68.5665C135.267 68.5665 135.19 68.69 135.175 68.7672C135.113 69.0449 135.298 69.2455 135.375 69.3382C135.375 69.3382 135.406 69.369 135.421 69.3845C135.468 69.4309 135.576 69.5543 135.591 69.6623C135.591 69.7394 135.56 69.8166 135.545 69.8629C135.483 69.8629 135.421 69.8629 135.36 69.8629C135.313 69.8629 135.236 69.8321 135.128 69.8013C135.128 69.8013 135.113 69.8013 135.097 69.8013C134.928 69.7549 134.634 69.6778 134.542 69.6315C134.48 69.6159 134.295 69.5388 134.063 69.4925C134.11 69.4617 134.14 69.4309 134.171 69.4C134.279 69.2766 134.326 69.1068 134.31 68.8906C134.31 68.8753 134.31 68.8598 134.31 68.8443C134.187 68.3043 133.77 68.0726 133.755 68.0574C133.523 67.9184 133.323 67.8567 133.137 67.8567C132.752 67.8567 132.52 68.1345 132.458 68.3967C132.397 68.7827 132.505 69.0449 132.613 69.1992C132.69 69.3074 132.782 69.3845 132.875 69.4461C132.705 69.4309 132.474 69.3537 132.304 69.1684C132.289 69.1531 132.273 69.1221 132.242 69.1068C132.165 69.0449 131.918 68.8753 131.625 68.8753C131.424 68.8753 131.255 68.9525 131.131 69.0912C131.193 68.9062 131.332 68.6284 131.61 68.2733C131.687 68.1653 131.841 67.9031 131.764 67.6098C131.718 67.44 131.594 67.3165 131.44 67.2394C131.347 67.193 131.224 67.1778 131.116 67.1778C131.147 66.9153 131.224 66.5296 131.393 66.2982C131.502 67.1006 132.119 67.2086 132.15 67.2241C132.289 67.2549 132.443 67.2086 132.551 67.1006C132.659 66.9924 132.721 66.869 132.721 66.7147C132.705 66.2982 132.752 66.1592 132.767 66.0973C132.813 66.0512 132.906 65.9741 132.983 65.8814C133.353 66.3134 133.708 66.2518 133.816 66.2363C134.032 66.19 134.187 65.9894 134.187 65.7734C134.187 65.5728 134.11 65.403 134.063 65.3259C133.986 65.1869 133.755 64.7085 133.708 64.6159C133.678 64.5542 133.662 64.4771 133.662 64.4771C133.662 64.4308 133.631 64.4 133.6 64.3536C133.353 63.9832 133.06 63.9216 132.906 63.9216C132.643 63.9216 132.428 64.0759 132.319 64.2146C132.304 64.2454 132.289 64.261 132.273 64.2918C132.227 64.3844 131.98 64.7085 131.733 64.9863C131.81 64.693 131.903 64.2918 131.903 64.1067C131.903 64.1067 131.903 64.0912 131.903 64.0759C131.903 64.0759 131.872 63.335 132.319 62.7795C132.335 62.7487 132.366 62.7177 132.381 62.6868C132.381 62.6868 132.752 61.9923 133.276 61.5295C133.292 61.514 133.323 61.4832 133.338 61.4676C133.338 61.4676 133.801 60.8968 134.125 60.5727C134.125 60.5727 134.125 60.5572 134.14 60.5417C134.14 60.5417 134.588 60.0325 135.514 59.3843C135.529 59.3843 135.977 59.045 136.332 58.6745C136.486 58.5666 137.181 58.1343 137.89 58.1343C138.23 58.1343 138.508 58.227 138.755 58.4276C138.755 58.4276 138.77 58.4276 138.786 58.4431C138.832 58.4739 139.742 59.0911 140.56 59.2919C140.576 59.2919 140.607 59.2919 140.622 59.2919C140.622 59.2919 141.887 59.4615 142.397 60.2639C142.505 60.4801 142.767 60.7115 143.431 60.7886C143.462 60.7886 143.508 60.7886 143.539 60.7886C143.539 60.7886 143.585 60.7886 143.631 60.7886C143.956 60.7886 144.773 60.8813 145.421 61.7609C145.421 61.7764 145.452 61.8072 145.468 61.8228C145.529 61.8844 146.07 62.3936 147.119 62.517C147.15 62.517 147.196 62.517 147.227 62.517C147.227 62.517 147.289 62.517 147.366 62.517C147.721 62.517 148.631 62.5942 149.264 63.335C149.279 63.3505 149.295 63.3658 149.311 63.3814C149.357 63.4122 150.02 63.9832 150.884 64.3689C150.792 64.3844 150.715 64.4308 150.653 64.4924C150.545 64.6006 150.483 64.7393 150.499 64.8936C150.499 64.8936 150.591 65.8195 150.19 66.622C149.912 67.0388 149.835 67.6561 150.298 68.0726C150.329 68.0882 150.344 68.119 150.375 68.1345L151.116 68.5665C151.208 68.6284 151.394 68.69 151.672 68.69C151.718 68.69 151.78 68.69 151.841 68.69C151.872 68.69 151.888 68.69 151.918 68.69C151.934 68.69 151.98 68.69 152.026 68.6747C152.088 68.829 152.165 69.0296 152.273 69.2302C152.304 69.2919 152.381 69.4617 152.505 69.6623C152.104 69.2919 151.502 68.8598 150.638 68.7055M154.295 71.4833C154.295 71.4833 154.233 71.4986 154.172 71.4986C154.064 71.4986 154.048 71.4678 154.017 71.4062C153.878 71.1593 153.539 70.6654 153.122 70.4803C153.122 70.4184 153.091 70.3568 153.06 70.2949C153.06 70.2949 153.03 70.2486 152.999 70.2025C153.122 70.3105 153.261 70.4031 153.415 70.4647C153.446 70.4647 153.477 70.4803 153.493 70.4956C153.539 70.4956 153.693 70.5727 153.724 70.6654C153.724 70.6962 153.74 70.7117 153.755 70.7272C153.863 70.9278 154.094 71.1593 154.419 71.2364C154.434 71.2672 154.465 71.3135 154.496 71.3907C154.419 71.3907 154.357 71.4215 154.295 71.437" fill="white"/>
<path d="M137.781 60.479C137.596 60.186 137.349 60.1396 137.21 60.1396C136.933 60.1396 136.732 60.3247 136.624 60.4945C135.899 61.5284 136.392 62.9791 136.408 63.0409C136.485 63.2415 136.67 63.365 136.871 63.365C136.902 63.365 136.917 63.365 136.948 63.365C137.18 63.3342 137.349 63.1334 137.365 62.9019C137.411 61.9297 137.766 61.4821 137.781 61.4668C137.797 61.436 137.828 61.4205 137.843 61.3897C137.936 61.2354 138.044 60.9113 137.812 60.4945C137.812 60.4945 137.812 60.479 137.812 60.4637" fill="white"/>
<path fill-rule="evenodd" clip-rule="evenodd" d="M118.292 61.1592C118.215 61.0205 118.246 60.8815 118.323 60.7427C118.493 60.4802 118.663 60.7735 118.663 60.7735C119.265 61.6223 118.817 62.8876 118.817 62.8876C118.755 61.7147 118.277 61.1592 118.277 61.1592M123.524 66.7767C123.524 66.5298 123.555 65.9742 123.308 65.7736C123.215 65.6965 122.845 65.2952 122.845 65.2952C122.783 65.2026 122.752 65.1871 122.752 65.1871C122.675 65.1871 122.582 65.3569 122.582 65.3569C122.32 65.8661 122.058 65.8044 122.058 65.8044C122.058 65.7118 122.12 65.6038 122.12 65.6038C122.197 65.4648 122.49 64.863 122.49 64.863C122.536 64.7705 122.567 64.6624 122.567 64.6624C122.814 64.2611 123.061 64.5699 123.061 64.5699C123.169 64.7858 123.74 65.4648 123.74 65.4648C123.863 65.6193 123.879 65.7736 123.879 65.7736C124.018 66.6996 123.539 66.7767 123.539 66.7767M122.042 69.1533C121.934 69.1533 121.903 69.1069 121.919 68.999C121.996 68.6749 122.259 68.5204 122.259 68.5204C122.752 68.2273 122.814 68.5204 122.814 68.5204C122.907 69.0451 122.49 69.1225 122.49 69.1225C122.413 69.1533 122.042 69.1533 122.042 69.1533ZM100.422 70.6963C100.422 70.6963 100.53 70.7737 100.468 70.928C100.468 70.928 100.19 71.6841 100.206 71.9464C100.206 71.9464 99.5883 72.0545 99.5112 71.7457C99.5112 71.7457 99.4959 71.6223 99.5883 71.4527C99.5883 71.4527 99.6965 71.2982 99.7118 71.0051C99.7118 71.0051 99.7118 70.2798 100.175 70.4649C100.268 70.5112 100.345 70.5884 100.406 70.6811M101.162 69.4774C101.271 69.3847 101.409 69.3384 101.548 69.3692C101.842 69.431 101.672 69.6933 101.672 69.6933C101.548 69.9249 101.162 70.2951 101.162 70.2951C100.808 70.5576 100.53 70.249 100.53 70.249C100.268 69.9865 100.607 69.8631 100.607 69.8631C100.808 69.7859 101.162 69.4618 101.162 69.4618M104.758 64.9093C104.758 64.9093 104.65 65.9895 105.129 66.931C105.129 66.931 105.484 67.4402 105.129 67.7643L104.388 68.1963C104.388 68.1963 104.295 68.2737 103.956 68.2426C103.956 68.2426 103.493 68.1347 103.338 68.3353C103.338 68.3353 103.2 68.721 103.045 69.0451C103.045 69.0451 102.706 69.8167 102.15 70.0637C102.15 70.0637 101.703 70.1716 101.564 70.5576C101.564 70.5576 101.425 70.8353 101.132 70.8353C101.132 70.8353 100.916 70.897 100.777 71.3756C100.777 71.3756 100.7 71.6841 100.7 71.9156C100.7 71.9156 101.07 71.8692 101.301 71.9619C101.301 71.9619 101.888 72.1625 102.15 71.6686C102.15 71.6686 102.659 70.8045 103.03 70.928C103.03 70.928 103.786 71.1749 104.326 70.6347C104.326 70.6347 105.052 69.8323 106.101 70.0021C106.101 70.0021 107.274 70.2335 107.629 69.971C107.629 69.971 108.369 69.5853 108.647 69.4926C108.647 69.4926 108.987 69.4002 109.017 69.0298C109.017 69.0298 109.218 68.5051 109.373 68.3353H108.817C108.817 68.3353 108.308 69.1686 107.459 69.431C107.459 69.431 106.996 69.6161 106.055 69.4618C106.055 69.4618 104.712 69.1533 103.524 70.4341C103.524 70.4341 103.354 70.6655 103.138 70.5729C103.138 70.5729 103.786 69.4618 105.237 69.1841C105.237 69.1841 105.7 69.0914 106.101 69.1533C106.101 69.1533 108.03 69.2149 108.94 67.3014C108.94 67.3014 108.848 65.681 109.28 65.2952C109.28 65.2952 109.45 65.2489 109.419 65.5575C109.419 65.5575 109.126 67.2551 109.681 67.5944C109.681 67.5944 110.005 67.8414 110.592 67.749C110.592 67.749 111.487 67.5328 112.228 67.6563C112.228 67.6563 113.354 67.9185 114.326 67.7951C114.326 67.7951 114.079 67.4094 114.126 66.9465C114.126 66.9465 114.265 66.6224 114.419 66.823C114.419 66.823 114.789 68.0575 115.808 68.428C115.808 68.428 116.718 68.752 116.703 69.9094C116.703 69.9094 116.564 70.0637 115.36 70.4957C115.36 70.4957 114.913 70.6347 114.758 70.2951C114.758 70.2951 114.172 69.0451 113.678 69.0914L112.721 69.1686C112.721 69.1686 112.397 69.2457 112.629 69.5082C112.629 69.5082 112.953 69.9402 113.092 70.2027C113.092 70.2027 113.122 70.4186 113.431 70.3723C113.431 70.3723 113.848 70.1563 114.095 70.9433C114.095 70.9433 114.311 71.3445 114.681 71.468C114.681 71.468 115.021 71.5762 115.345 71.4064C115.345 71.4064 116.919 70.8353 117.181 70.6192C117.181 70.6192 117.521 70.4341 117.783 70.5268C117.783 70.5268 118.262 70.6347 118.447 70.2643L118.941 69.5082C118.941 69.5082 119.048 69.3231 119.033 69.0914C119.033 69.0914 119.08 68.86 118.879 68.6286C118.879 68.6286 118.694 68.428 118.663 68.289L118.323 67.4712C118.323 67.4712 118.184 67.2551 118.03 67.1624L117.567 67.1932C117.567 67.1932 117.891 68.0112 118.123 68.3353C118.123 68.3353 118.431 68.8137 118.416 69.1225C118.416 69.1225 118.4 69.3384 118.308 69.431C118.308 69.431 118.2 69.6008 118.154 69.678C118.154 69.678 118.015 69.9865 117.907 70.0484C117.907 70.0484 117.706 70.1716 117.66 70.1716C117.66 70.1716 117.567 70.2027 117.644 70.0484C117.644 70.0484 117.907 69.5082 117.891 69.2149C117.891 69.2149 117.937 68.9063 117.721 68.7365C117.721 68.7365 117.212 67.9341 117.15 67.7026C117.15 67.7026 116.996 67.3785 116.904 67.3322C116.904 67.3322 116.734 67.1008 117.012 66.9926C117.012 66.9926 117.721 66.8383 117.845 66.7459C117.845 66.7459 118.184 66.6377 118.4 65.9279C118.4 65.9279 118.709 65.0946 118.694 64.5852C118.694 64.5852 119.295 65.7426 118.339 66.9002C118.339 66.9002 119.095 67.1161 119.403 66.9002C119.403 66.9002 120.345 66.7612 120.53 66.7148C120.53 66.7148 120.762 66.6532 120.638 66.823C120.638 66.823 120.36 67.2243 120.329 67.4865C120.329 67.4865 120.314 67.7026 120.144 67.8261C120.144 67.8261 119.604 68.1965 119.558 68.5514C119.558 68.5514 119.45 68.8908 119.681 68.8137C119.681 68.8137 120.005 68.6594 120.113 68.8137C120.113 68.8137 120.144 68.8137 120.021 68.9679C120.021 68.9679 119.697 69.2457 119.681 69.6161C119.681 69.6161 119.743 70.0484 119.851 70.1872C119.851 70.1872 119.99 70.3878 120.221 70.3262C120.221 70.3262 120.283 70.2798 120.391 70.3106C120.391 70.3106 120.499 70.3106 120.792 70.2027C120.792 70.2027 121.24 70.0792 121.394 70.0329C121.394 70.0329 121.965 69.8323 122.243 69.8475C122.243 69.8475 122.428 69.8323 122.66 69.8786C122.66 69.8786 123.37 69.9557 123.848 69.431C123.848 69.431 124.203 69.1533 124.326 69.431C124.326 69.431 125.191 70.5884 126.595 70.2798C126.595 70.2798 125.484 69.8167 125.191 69.1996C125.191 69.1996 125.16 68.6749 124.573 67.9341C124.573 67.9341 124.388 67.6871 124.573 67.6255C124.573 67.6255 124.666 67.5484 124.897 67.7643C124.897 67.7643 125.453 68.289 125.654 68.7829C125.654 68.7829 126.348 69.8167 127.336 69.4774C127.336 69.4774 126.564 69.1841 126.194 68.613C126.194 68.613 125.962 67.8569 125.206 67.2859C125.206 67.2859 125.175 66.4371 124.82 65.9587C124.82 65.9587 124.635 65.1563 124.589 64.9712C124.589 64.9712 124.403 64.2611 124.403 64.076C124.403 64.076 124.465 63.1501 123.879 62.4401C123.879 62.4401 123.478 61.6687 122.86 61.1439C122.86 61.1439 122.397 60.5574 122.042 60.2025C122.042 60.2025 121.579 59.6623 120.576 58.968C120.576 58.968 120.129 58.6439 119.789 58.289C119.789 58.289 118.03 57.0235 116.749 58.0421C116.749 58.0421 115.869 58.6439 115.129 58.829C115.129 58.829 113.616 58.9988 112.968 60.0482C112.968 60.0482 112.907 60.2488 112.305 60.3104C112.305 60.3104 110.962 60.1562 109.974 61.468C109.974 61.468 109.511 61.9154 108.616 62.0236C108.616 62.0236 107.135 61.8693 106.178 63.0111C106.178 63.0111 103.755 65.1254 102.305 63.7519C102.305 63.7519 101.548 63.0419 102.412 61.7611C102.412 61.7611 102.953 61.0976 103.879 60.4186C103.879 60.4186 104.635 59.8939 104.28 59.0604C104.28 59.0604 104.095 58.258 102.968 58.2427C102.968 58.2427 101.548 57.9649 100.977 57.2549C100.977 57.2549 100.345 59.508 102.845 59.4772C102.845 59.4772 103.493 59.5698 103.277 60.0945C103.277 60.0945 102.953 60.5421 102.521 60.6964C102.521 60.6964 101.764 61.0205 101.425 62.1315C101.425 62.1315 100.653 64.0605 102.521 64.8014C103.246 65.0483 104.064 64.9712 104.805 64.8477" fill="#D20F3E"/>
<path fill-rule="evenodd" clip-rule="evenodd" d="M137.41 61.1592C137.487 61.0205 137.457 60.8815 137.379 60.7427C137.21 60.4802 137.04 60.7735 137.04 60.7735C136.438 61.6223 136.886 62.8876 136.886 62.8876C136.947 61.7147 137.426 61.1592 137.426 61.1592M132.179 66.7767C132.179 66.5298 132.148 65.9742 132.395 65.7736C132.487 65.6965 132.858 65.2952 132.858 65.2952C132.92 65.2026 132.95 65.1871 132.95 65.1871C133.028 65.1871 133.12 65.3569 133.12 65.3569C133.382 65.8661 133.645 65.8044 133.645 65.8044C133.645 65.7118 133.583 65.6038 133.583 65.6038C133.506 65.4648 133.213 64.863 133.213 64.863C133.182 64.7705 133.136 64.6624 133.136 64.6624C132.889 64.2611 132.642 64.5699 132.642 64.5699C132.534 64.7858 131.963 65.4648 131.963 65.4648C131.839 65.6193 131.824 65.7736 131.824 65.7736C131.685 66.6996 132.163 66.7767 132.163 66.7767M133.66 69.1533C133.768 69.1533 133.799 69.1069 133.784 68.999C133.707 68.6749 133.444 68.5204 133.444 68.5204C132.95 68.2273 132.889 68.5204 132.889 68.5204C132.796 69.0451 133.213 69.1225 133.213 69.1225C133.29 69.1533 133.66 69.1533 133.66 69.1533ZM155.281 70.6963C155.281 70.6963 155.173 70.7737 155.235 70.928C155.235 70.928 155.512 71.6841 155.497 71.9464C155.497 71.9464 156.114 72.0545 156.191 71.7457C156.191 71.7457 156.207 71.6223 156.114 71.4527C156.114 71.4527 156.006 71.2982 155.991 71.0051C155.991 71.0051 155.991 70.2798 155.528 70.4649C155.435 70.5112 155.358 70.5884 155.296 70.6811M154.54 69.4774C154.432 69.3847 154.293 69.3384 154.154 69.3692C153.861 69.431 154.031 69.6933 154.031 69.6933C154.154 69.9249 154.54 70.2951 154.54 70.2951C154.895 70.5576 155.173 70.249 155.173 70.249C155.435 69.9865 155.096 69.8631 155.096 69.8631C154.895 69.7859 154.54 69.4618 154.54 69.4618M150.944 64.9093C150.944 64.9093 151.052 65.9895 150.574 66.931C150.574 66.931 150.219 67.4402 150.574 67.7643L151.315 68.1963C151.315 68.1963 151.408 68.2737 151.747 68.2426C151.747 68.2426 152.21 68.1347 152.364 68.3353C152.364 68.3353 152.503 68.721 152.658 69.0451C152.658 69.0451 152.997 69.8167 153.552 70.0637C153.552 70.0637 154 70.1716 154.139 70.5576C154.139 70.5576 154.278 70.8353 154.571 70.8353C154.571 70.8353 154.787 70.897 154.926 71.3756C154.926 71.3756 155.003 71.6841 155.003 71.9156C155.003 71.9156 154.633 71.8692 154.401 71.9619C154.401 71.9619 153.815 72.1625 153.552 71.6686C153.552 71.6686 153.043 70.8045 152.673 70.928C152.673 70.928 151.917 71.1749 151.376 70.6347C151.376 70.6347 150.636 69.8323 149.602 70.0021C149.602 70.0021 148.429 70.2335 148.074 69.971C148.074 69.971 147.333 69.5853 147.056 69.4926C147.056 69.4926 146.716 69.4002 146.685 69.0298C146.685 69.0298 146.485 68.5051 146.33 68.3353H146.886C146.886 68.3353 147.395 69.1686 148.244 69.431C148.244 69.431 148.707 69.6161 149.648 69.4618C149.648 69.4618 150.991 69.1533 152.179 70.4341C152.179 70.4341 152.333 70.6655 152.565 70.5729C152.565 70.5729 151.917 69.4618 150.466 69.1841C150.466 69.1841 150.003 69.0914 149.602 69.1533C149.602 69.1533 147.673 69.2149 146.762 67.3014C146.762 67.3014 146.855 65.681 146.438 65.2952C146.438 65.2952 146.268 65.2489 146.299 65.5575C146.299 65.5575 146.593 67.2551 146.037 67.5944C146.037 67.5944 145.713 67.8414 145.127 67.749C145.127 67.749 144.231 67.5328 143.491 67.6563C143.491 67.6563 142.364 67.9185 141.392 67.7951C141.392 67.7951 141.639 67.4094 141.592 66.9465C141.592 66.9465 141.454 66.6224 141.299 66.823C141.299 66.823 140.929 68.0575 139.91 68.428C139.91 68.428 139 68.752 139.015 69.9094C139.015 69.9094 139.154 70.0637 140.358 70.4957C140.358 70.4957 140.805 70.6347 140.96 70.2951C140.96 70.2951 141.546 69.0451 142.04 69.0914L142.997 69.1686C142.997 69.1686 143.321 69.2457 143.074 69.5082C143.074 69.5082 142.75 69.9402 142.611 70.2027C142.611 70.2027 142.58 70.4186 142.271 70.3723C142.271 70.3723 141.855 70.1563 141.608 70.9433C141.608 70.9433 141.392 71.3445 141.022 71.468C141.022 71.468 140.666 71.5762 140.342 71.4064C140.342 71.4064 138.768 70.8353 138.506 70.6192C138.506 70.6192 138.166 70.4341 137.904 70.5268C137.904 70.5268 137.441 70.6347 137.24 70.2643L136.747 69.5082C136.747 69.5082 136.639 69.3231 136.654 69.0914C136.654 69.0914 136.608 68.86 136.808 68.6286C136.808 68.6286 136.994 68.428 137.025 68.289L137.364 67.4712C137.364 67.4712 137.503 67.2551 137.657 67.1624L138.12 67.1932C138.12 67.1932 137.796 68.0112 137.565 68.3353C137.565 68.3353 137.256 68.8137 137.272 69.1225C137.272 69.1225 137.287 69.3384 137.379 69.431C137.379 69.431 137.487 69.6008 137.534 69.678C137.534 69.678 137.673 69.9865 137.781 70.0484C137.781 70.0484 137.981 70.1716 138.028 70.1716C138.028 70.1716 138.12 70.2027 138.043 70.0484C138.043 70.0484 137.781 69.5082 137.796 69.2149C137.796 69.2149 137.75 68.9063 137.966 68.7365C137.966 68.7365 138.475 67.9341 138.537 67.7026C138.537 67.7026 138.691 67.3785 138.784 67.3322C138.784 67.3322 138.954 67.1008 138.676 66.9926C138.676 66.9926 137.966 66.8383 137.842 66.7459C137.842 66.7459 137.503 66.6377 137.287 65.9279C137.287 65.9279 136.978 65.0946 136.994 64.5852C136.994 64.5852 136.392 65.7426 137.349 66.9002C137.349 66.9002 136.592 67.1161 136.284 66.9002C136.284 66.9002 135.343 66.7612 135.157 66.7148C135.157 66.7148 134.926 66.6532 135.049 66.823C135.049 66.823 135.327 67.2243 135.358 67.4865C135.358 67.4865 135.373 67.7026 135.543 67.8261C135.543 67.8261 136.083 68.1965 136.129 68.5514C136.129 68.5514 136.237 68.8908 136.006 68.8137C136.006 68.8137 135.682 68.6594 135.574 68.8137C135.574 68.8137 135.543 68.8137 135.666 68.9679C135.666 68.9679 135.99 69.2457 136.006 69.6161C136.006 69.6161 135.944 70.0484 135.836 70.1872C135.836 70.1872 135.697 70.3878 135.466 70.3262C135.466 70.3262 135.404 70.2798 135.296 70.3106C135.296 70.3106 135.188 70.3106 134.895 70.2027C134.895 70.2027 134.447 70.0792 134.293 70.0329C134.293 70.0329 133.722 69.8323 133.444 69.8475C133.444 69.8475 133.259 69.8323 133.028 69.8786C133.028 69.8786 132.318 69.9557 131.839 69.431C131.839 69.431 131.484 69.1533 131.361 69.431C131.361 69.431 130.497 70.5884 129.092 70.2798C129.092 70.2798 130.203 69.8167 130.497 69.1996C130.497 69.1996 130.528 68.6749 131.114 67.9341C131.114 67.9341 131.299 67.6871 131.114 67.6255C131.114 67.6255 131.021 67.5484 130.79 67.7643C130.79 67.7643 130.234 68.289 130.034 68.7829C130.034 68.7829 129.339 69.8167 128.352 69.4774C128.352 69.4774 129.123 69.1841 129.494 68.613C129.494 68.613 129.725 67.8569 130.481 67.2859C130.481 67.2859 130.512 66.4371 130.867 65.9587C130.867 65.9587 131.052 65.1563 131.099 64.9712C131.099 64.9712 131.284 64.2611 131.284 64.076C131.284 64.076 131.222 63.1501 131.808 62.4401C131.808 62.4401 132.21 61.6687 132.827 61.1439C132.827 61.1439 133.29 60.5574 133.645 60.2025C133.645 60.2025 134.108 59.6623 135.111 58.968C135.111 58.968 135.558 58.6439 135.898 58.289C135.898 58.289 137.657 57.0235 138.938 58.0421C138.938 58.0421 139.818 58.6439 140.559 58.829C140.559 58.829 142.071 58.9988 142.719 60.0482C142.719 60.0482 142.781 60.2488 143.383 60.3104C143.383 60.3104 144.725 60.1562 145.713 61.468C145.713 61.468 146.176 61.9154 147.071 62.0236C147.071 62.0236 148.553 61.8693 149.509 63.0111C149.509 63.0111 151.932 65.1254 153.383 63.7519C153.383 63.7519 154.139 63.0419 153.275 61.7611C153.275 61.7611 152.735 61.0976 151.793 60.4186C151.793 60.4186 151.037 59.8939 151.392 59.0604C151.392 59.0604 151.577 58.258 152.704 58.2427C152.704 58.2427 154.123 57.9649 154.694 57.2549C154.694 57.2549 155.327 59.508 152.827 59.4772C152.827 59.4772 152.179 59.5698 152.395 60.0945C152.395 60.0945 152.719 60.5421 153.151 60.6964C153.151 60.6964 153.908 61.0205 154.247 62.1315C154.247 62.1315 155.019 64.0605 153.151 64.8014C152.426 65.0483 151.608 64.9712 150.867 64.8477" fill="#D20F3E"/>
</svg>
