<svg width="256" height="256" viewBox="0 0 256 256" fill="none" xmlns="http://www.w3.org/2000/svg">
<g clip-path="url(#clip0_1831_587)">
<path d="M128 256C198.692 256 256 198.692 256 128C256 57.3076 198.692 0 128 0C57.3076 0 0 57.3076 0 128C0 198.692 57.3076 256 128 256Z" fill="#1A82FF"/>
<path fill-rule="evenodd" clip-rule="evenodd" d="M193.164 87.9825L167.354 113.792C168.378 118.912 168.914 124.532 168.914 130.595C168.914 163.246 153.577 182.749 127.884 182.749C117.178 182.749 108.137 179.316 101.306 172.788L190.744 83.3512C187.463 77.3983 183.34 71.9506 178.502 67.1766L177.955 66.6414L176.722 65.4312L176.71 65.4545C163.724 53.341 147.026 46.9526 127.884 46.9526C105.775 46.9526 86.9122 55.4472 73.3442 71.517C60.5791 86.6326 53.5508 107.613 53.5508 130.595C53.5508 145.862 56.6693 160.244 62.4991 172.602L88.4482 146.653C87.5101 141.352 87.0544 135.978 87.0868 130.595C87.0868 115.572 90.1471 103.412 96.1748 94.4756C103.25 83.9912 114.211 78.4523 127.884 78.4523C138.531 78.4523 147.386 81.8035 154.112 88.0406L64.8613 177.292C67.305 181.748 70.1442 185.902 73.3442 189.673C73.9726 190.429 74.6359 191.15 75.2991 191.872L75.3224 191.895C76.0904 192.721 76.87 193.524 77.6613 194.327L77.9639 194.618L78.7202 195.386L78.7435 195.351C91.7413 207.721 108.556 214.237 127.884 214.237C150.016 214.237 168.914 205.742 182.54 189.684C195.386 174.545 202.45 153.565 202.45 130.595C202.45 115.084 199.215 100.492 193.164 87.9825Z" fill="white"/>
</g>
<defs>
<clipPath id="clip0_1831_587">
<rect width="256" height="256" fill="white"/>
</clipPath>
</defs>
</svg>
