<svg width="256" height="256" viewBox="0 0 256 256" fill="none" xmlns="http://www.w3.org/2000/svg">
<g clip-path="url(#clip0_1037_42)">
<path d="M128 256C198.692 256 256 198.692 256 128C256 57.3076 198.692 0 128 0C57.3076 0 0 57.3076 0 128C0 198.692 57.3076 256 128 256Z" fill="#302E2D"/>
<path d="M145.551 98.484L128.023 80.8955L110.579 98.3995L128.108 115.988L145.551 98.484ZM191.411 97.7486L143.715 144.503C135.043 153 120.945 153 112.273 144.503L64.585 97.7486L47.6719 115.117L95.369 161.871C104.369 170.691 116.184 175.105 127.998 175.105C139.812 175.105 151.636 170.691 160.627 161.871L208.324 115.117L191.411 97.7486Z" fill="url(#paint0_linear_1037_42)"/>
</g>
<defs>
<linearGradient id="paint0_linear_1037_42" x1="171.627" y1="88.1365" x2="55.0455" y2="144.245" gradientUnits="userSpaceOnUse">
<stop offset="0.372396" stop-color="#FF97D6"/>
<stop offset="0.802083" stop-color="#F8B994"/>
</linearGradient>
<clipPath id="clip0_1037_42">
<rect width="256" height="256" fill="white"/>
</clipPath>
</defs>
</svg>
