<svg width="256" height="256" viewBox="0 0 256 256" fill="none" xmlns="http://www.w3.org/2000/svg">
<circle cx="128" cy="128" r="127" fill="white"/>
<path d="M178.601 39C168.435 38.9921 158.68 43.0296 151.479 50.2262C144.278 57.4228 140.219 67.1905 140.193 77.3851V119.945C136.237 120.213 132.193 120.381 128 120.381C123.807 120.381 119.782 120.55 115.807 120.788V77.3851C115.645 67.2789 111.528 57.6414 104.344 50.5519C97.1591 43.4624 87.4833 39.4891 77.4035 39.4891C67.3237 39.4891 57.6479 43.4624 50.4634 50.5519C43.2789 57.6414 39.1617 67.2789 39 77.3851V179.104C39.1617 189.21 43.2789 198.848 50.4634 205.937C57.6479 213.027 67.3237 217 77.4035 217C87.4833 217 97.1591 213.027 104.344 205.937C111.528 198.848 115.645 189.21 115.807 179.104V136.544C119.763 136.277 123.807 136.108 128 136.108C132.193 136.108 136.218 135.939 140.193 135.701V179.104C140.355 189.21 144.472 198.848 151.656 205.937C158.841 213.027 168.517 217 178.596 217C188.676 217 198.352 213.027 205.537 205.937C212.721 198.848 216.838 189.21 217 179.104V77.3851C216.974 67.1922 212.916 57.426 205.717 50.2297C198.518 43.0334 188.766 38.9947 178.601 39ZM77.3986 54.7269C83.3986 54.7242 89.1547 57.1084 93.4038 61.3562C97.653 65.604 100.048 71.3686 100.064 77.3851V122.454C88.828 124.086 77.8557 127.197 67.4306 131.705C62.9136 133.693 58.6616 136.238 54.7728 139.281V77.3851C54.7885 71.3754 57.1782 65.6169 61.4188 61.3702C65.6594 57.1235 71.4054 54.7347 77.3986 54.7269ZM100.064 179.104C100.064 185.132 97.6759 190.913 93.4254 195.175C89.1748 199.437 83.4098 201.832 77.3986 201.832C71.3873 201.832 65.6223 199.437 61.3717 195.175C57.1212 190.913 54.7332 185.132 54.7332 179.104V168.9C54.7332 159.887 61.8532 151.349 73.7891 146.034C82.1994 142.396 91.0238 139.808 100.064 138.329V179.104ZM178.601 201.762C172.601 201.765 166.845 199.381 162.596 195.133C158.347 190.885 155.952 185.12 155.936 179.104V134.036C167.172 132.403 178.144 129.292 188.569 124.784C193.086 122.796 197.338 120.251 201.227 117.208V179.104C201.212 185.114 198.822 190.872 194.581 195.119C190.341 199.366 184.595 201.754 178.601 201.762ZM182.211 110.396C173.801 114.034 164.976 116.622 155.936 118.1V77.3851C155.936 71.3573 158.324 65.5765 162.575 61.3142C166.825 57.052 172.59 54.6575 178.601 54.6575C184.613 54.6575 190.378 57.052 194.628 61.3142C198.879 65.5765 201.267 71.3573 201.267 77.3851V87.5887C201.267 96.5627 194.147 105.1 182.211 110.396Z" fill="url(#paint0_linear_741_46)"/>
<defs>
<linearGradient id="paint0_linear_741_46" x1="50.2733" y1="203.738" x2="205.136" y2="48.8785" gradientUnits="userSpaceOnUse">
<stop stop-color="#00AEE9"/>
<stop offset="1" stop-color="#69FABD"/>
</linearGradient>
</defs>
</svg>
