<svg width="256" height="256" viewBox="0 0 256 256" fill="none" xmlns="http://www.w3.org/2000/svg">
<path d="M256 127.998C256 161.946 242.514 194.504 218.509 218.509C194.504 242.514 161.946 256 127.998 256C94.0514 255.999 61.495 242.513 37.491 218.509C13.487 194.505 0.00116778 161.95 0 128.002C-2.00871e-08 94.0551 13.4853 61.4975 37.4895 37.4926C61.4936 13.4876 94.0505 0.00116783 127.998 0C161.946 -2.00871e-08 194.503 13.4853 218.508 37.4895C242.512 61.4935 255.999 94.0505 256 127.998Z" fill="white"/>
<mask id="mask0_1830_543" style="mask-type:luminance" maskUnits="userSpaceOnUse" x="52" y="55" width="152" height="146">
<path d="M204 55.3281H52V200.818H204V55.3281Z" fill="white"/>
</mask>
<g mask="url(#mask0_1830_543)">
<path d="M73.319 76.6471L52 55.3281V128.073C52.0083 142.465 56.283 156.532 64.2839 168.495C72.2849 180.458 83.6528 189.781 96.9508 195.285C110.249 200.789 124.88 202.226 138.995 199.417C153.11 196.607 166.076 189.676 176.253 179.499L73.319 76.6471Z" fill="#48A3FF"/>
<path d="M182.681 179.5L204 200.819V128.074C203.992 113.682 199.717 99.6156 191.716 87.6524C183.715 75.6893 172.347 66.3666 159.049 60.8628C145.751 55.3589 131.12 53.9209 117.004 56.7306C102.889 59.5403 89.924 66.4714 79.7471 76.6481L182.681 179.5Z" fill="#48A3FF"/>
</g>
</svg>
