<svg width="256" height="256" viewBox="0 0 256 256" fill="none" xmlns="http://www.w3.org/2000/svg">
<g clip-path="url(#clip0_1835_1110)">
<path d="M128 0C57.3075 0 0 57.3075 0 128C0 198.693 57.3075 256 128 256C198.693 256 256 198.693 256 128C256 57.3075 198.693 0 128 0Z" fill="#17122B"/>
<mask id="mask0_1835_1110" style="mask-type:luminance" maskUnits="userSpaceOnUse" x="57" y="64" width="142" height="129">
<path d="M57 64H198.915V192.269H57V64Z" fill="white"/>
</mask>
<g mask="url(#mask0_1835_1110)">
<path d="M169.129 130.638C169.121 130.808 169.118 130.981 169.108 131.149C168.972 131.648 168.544 132.016 168.009 132.034C167.823 131.996 167.635 131.954 167.447 131.912C166.171 131.632 164.871 131.327 163.514 130.968C144.348 125.904 133.254 128.879 129.491 130.32C129.46 130.333 129.427 130.341 129.398 130.355C128.692 130.666 128.163 131.301 128.008 132.074V133.036V142.948V143.909C128.229 145.007 129.201 145.834 130.363 145.834C130.523 145.834 130.681 145.817 130.83 145.786C130.86 145.778 130.886 145.77 130.916 145.764C136.581 144.281 149.754 141.864 163.514 146.636L164.039 146.814L164.13 146.844C164.154 146.852 164.181 146.86 164.207 146.868C164.611 147.062 164.895 147.468 164.895 147.946C164.895 148.023 164.866 148.089 164.853 148.161C164.759 148.364 164.661 148.565 164.563 148.767C156.838 165.001 140.31 176.236 121.134 176.236C94.5695 176.236 73.033 154.701 73.033 128.135C73.033 101.568 94.5695 80.0336 121.134 80.0336C139.914 80.0336 156.163 90.8067 164.085 106.502C164.176 106.625 164.242 106.762 164.282 106.916C164.306 107.014 164.342 107.107 164.342 107.214C164.342 107.878 163.804 108.416 163.139 108.416C163.028 108.416 162.929 108.38 162.826 108.352C162.77 108.336 162.709 108.335 162.655 108.309C144.51 103.687 133.746 106.313 129.776 107.762C129.585 107.833 129.423 107.895 129.266 107.96C128.628 108.29 128.152 108.885 128.008 109.608V110.568V120.562V121.522C128.229 122.621 129.201 123.448 130.363 123.448C130.398 123.448 130.43 123.438 130.466 123.437C130.764 123.355 131.088 123.27 131.436 123.185C137.355 121.699 150.155 119.557 163.514 124.189L164.13 124.397C165.559 124.87 166.976 125.253 168.382 125.582C168.425 125.595 168.472 125.597 168.514 125.614C168.879 125.775 169.129 126.118 169.197 126.523C169.201 126.637 169.203 126.751 169.206 126.865C169.217 127.288 169.235 127.71 169.235 128.135C169.235 128.978 169.173 129.805 169.129 130.638ZM196.507 109.613C196.346 109.613 196.188 109.629 196.034 109.659C195.881 109.707 195.729 109.755 195.562 109.805C193.109 110.525 189.277 111.285 184.031 111.341C183.967 111.343 183.903 111.343 183.837 111.344C183.399 111.307 183.034 111.051 182.853 110.676C182.816 110.599 182.8 110.515 182.782 110.43C174.709 82.2816 147.896 62.0535 116.704 64.1491C85.0599 66.2751 59.4204 91.8024 57.1677 123.437C54.4933 160.981 84.1604 192.269 121.134 192.269C148.775 192.269 172.318 174.781 181.334 150.271C181.358 150.195 181.381 150.123 181.416 150.054C181.602 149.7 181.953 149.455 182.375 149.419C182.429 149.418 182.484 149.415 182.54 149.413C189 149.224 194.198 148.034 196.89 147.271C197.116 147.207 197.316 147.147 197.507 147.091C198.301 146.732 198.861 145.956 198.915 145.041V144.747V134.909V134.07C198.716 132.927 197.725 132.055 196.524 132.055C196.364 132.055 196.21 132.074 196.059 132.101C195.925 132.143 195.771 132.188 195.625 132.231C193.565 132.844 190.518 133.49 186.447 133.716C186.367 133.721 186.284 133.724 186.204 133.727C185.597 133.678 185.123 133.193 185.104 132.579C185.105 132.544 185.108 132.509 185.11 132.473C185.205 131.038 185.269 129.595 185.269 128.135C185.269 128.091 185.267 128.048 185.267 128.003C185.267 127.934 185.266 127.869 185.266 127.8C185.307 127.296 185.654 126.894 186.127 126.759C186.276 126.746 186.426 126.733 186.574 126.721C191.095 126.284 194.705 125.439 196.821 124.843C197.098 124.764 197.345 124.692 197.57 124.625C198.314 124.264 198.836 123.536 198.915 122.675V122.241V112.082V111.968C198.886 110.663 197.822 109.613 196.507 109.613Z" fill="white"/>
</g>
</g>
<defs>
<clipPath id="clip0_1835_1110">
<rect width="256" height="256" fill="white"/>
</clipPath>
</defs>
</svg>
