<svg width="256" height="256" viewBox="0 0 256 256" fill="none" xmlns="http://www.w3.org/2000/svg">
<path d="M256 127.998C256 161.946 242.514 194.504 218.509 218.509C194.504 242.514 161.946 256 127.998 256C94.0514 255.999 61.495 242.513 37.491 218.509C13.487 194.505 0.00116778 161.95 0 128.002C-2.00871e-08 94.0551 13.4853 61.4975 37.4895 37.4926C61.4936 13.4876 94.0505 0.00116783 127.998 0C161.946 -2.00871e-08 194.503 13.4853 218.508 37.4895C242.512 61.4935 255.999 94.0505 256 127.998Z" fill="#002766"/>
<path d="M134.083 54.9856C117.768 53.6167 101.439 57.4434 87.4299 65.9181C73.4219 74.3931 62.4528 87.0811 56.0938 102.168C49.7338 117.255 48.3088 133.966 52.0228 149.912C55.7368 165.857 64.3998 180.219 76.7708 190.943C89.1428 201.667 104.589 208.203 120.901 209.615C137.212 211.028 153.552 207.245 167.583 198.808C181.614 190.371 192.617 177.712 199.017 162.642C205.417 147.572 206.886 130.865 203.215 114.909" stroke="white" stroke-width="25.6364" stroke-linecap="round" stroke-linejoin="round"/>
<path d="M202.964 64.9336C202.964 55.0291 194.935 47 185.031 47C175.126 47 167.097 55.0291 167.097 64.9336C167.097 74.838 175.126 82.8672 185.031 82.8672C194.935 82.8672 202.964 74.838 202.964 64.9336Z" fill="#73A3FF"/>
</svg>
