<svg width="256" height="256" viewBox="0 0 256 256" fill="none" xmlns="http://www.w3.org/2000/svg">
<g clip-path="url(#clip0_2428_8271)">
<path d="M128 256C198.692 256 256 198.692 256 128C256 57.3076 198.692 0 128 0C57.3076 0 0 57.3076 0 128C0 198.692 57.3076 256 128 256Z" fill="#0A0A1E"/>
<path d="M48.0009 128.002C47.83 160.55 72.4737 184 100.6 184C120.932 184 131.939 171.346 137.619 167.219C141.718 164.24 145.073 161.552 150.476 161.552C158.999 161.552 163.684 167.273 174.504 167.273C193.159 167.273 207 149.425 207 127.898C207 106.373 193.159 88.727 174.504 88.727C163.684 88.727 158.999 94.4477 150.476 94.4477C145.073 94.4477 141.718 91.7605 137.619 88.7807C131.939 84.6539 120.932 72 100.6 72C72.4737 72 47.83 95.4543 48.0009 128.002ZM84.6159 127.999C84.6159 113.209 96.1213 101.978 109.209 101.978C117.507 101.978 122.333 105.068 127.179 108.147C132.595 111.59 139.812 116.21 149.749 116.21C155.885 116.21 161.808 113.628 166.233 111.244C169.285 109.6 171.656 108.264 175.246 108.264C183.797 108.264 190.145 117.306 190.145 127.999C190.145 138.692 183.797 147.734 175.246 147.734C171.656 147.734 169.285 146.398 166.233 144.754C161.808 142.37 155.885 139.788 149.749 139.788C139.812 139.788 132.595 144.409 127.179 147.851C122.333 150.931 117.507 154.02 109.209 154.02C96.1213 154.02 84.6159 142.79 84.6159 127.999Z" fill="url(#paint0_linear_2428_8271)"/>
</g>
<defs>
<linearGradient id="paint0_linear_2428_8271" x1="48.0006" y1="128.003" x2="206.999" y2="128.003" gradientUnits="userSpaceOnUse">
<stop stop-color="#31EDA9"/>
<stop offset="0.189558" stop-color="#FFF200"/>
<stop offset="0.248804" stop-color="#FFF200"/>
<stop offset="0.47628" stop-color="#F6029C"/>
<stop offset="0.499148" stop-color="#F6029C"/>
<stop offset="0.702878" stop-color="#197CD8"/>
<stop offset="1" stop-color="#197CD8"/>
</linearGradient>
<clipPath id="clip0_2428_8271">
<rect width="256" height="256" fill="white"/>
</clipPath>
</defs>
</svg>
