<svg width="256" height="256" viewBox="0 0 256 256" fill="none" xmlns="http://www.w3.org/2000/svg">
<path d="M128.858 0.000706881C154.137 0.170258 178.8 7.82126 199.736 21.9889C220.672 36.1565 236.945 56.2063 246.501 79.6098C256.058 103.013 258.47 128.723 253.435 153.496C248.399 178.269 236.141 200.996 218.207 218.811C200.272 236.627 177.463 248.733 152.657 253.602C127.852 258.472 102.159 255.888 78.8203 246.175C55.4813 236.462 35.5409 220.056 21.5137 199.025C7.48647 177.995 0.000568594 153.281 0 128.002C0.114758 93.9402 13.7551 61.3192 37.9206 37.3146C62.086 13.3099 94.7972 -0.112222 128.858 0.000706881Z" fill="#23262F"/>
<path d="M118.834 12.5588C124.659 9.21086 131.825 9.21086 137.65 12.5588L180.621 37.2567L223.496 62.1221C229.308 65.4928 232.89 71.6981 232.903 78.4169L233 127.98L232.903 177.543C232.89 184.262 229.308 190.467 223.496 193.838L180.621 218.703L137.65 243.401C131.825 246.749 124.659 246.749 118.834 243.401L75.863 218.703L32.9884 193.838C27.1764 190.467 23.5937 184.262 23.5806 177.543L23.484 127.98L23.5806 78.4169C23.5937 71.6981 27.1764 65.4928 32.9884 62.1221L75.863 37.2567L118.834 12.5588Z" fill="#23262F"/>
<path d="M49.0112 127.86C49.0112 113.716 49.0524 99.5761 48.9829 85.432C48.9048 83.7616 49.2899 82.1028 50.0926 80.6571C50.8954 79.2113 52.0806 78.04 53.5053 77.2852C68.3166 68.3639 83.1203 59.4302 97.9164 50.4848C106.402 45.3624 114.909 40.2835 123.362 35.105C124.806 34.1164 126.492 33.5874 128.217 33.5821C129.942 33.5768 131.631 34.0954 133.08 35.0752C156.348 49.1651 179.636 63.2227 202.944 77.2486C204.039 77.827 205.002 78.6494 205.763 79.6576C206.525 80.6657 207.067 81.8359 207.352 83.0865C207.48 83.7246 207.54 84.3759 207.532 85.028C207.532 113.638 207.532 142.25 207.532 170.862C207.573 172.402 207.2 173.923 206.457 175.252C205.714 176.581 204.631 177.666 203.33 178.383C198.652 181.242 193.946 184.058 189.25 186.891C170.697 198.085 152.143 209.277 133.59 220.467C132.616 221.097 131.58 221.616 130.5 222.014C129.373 222.37 128.187 222.465 127.021 222.293C125.856 222.122 124.741 221.687 123.751 221.02C117.485 217.221 111.212 213.435 104.931 209.663C101.231 207.43 97.5498 205.153 93.8241 202.967C92.3496 202.185 91.1229 200.973 90.2918 199.476C89.4607 197.98 89.0609 196.264 89.1405 194.535C89.1594 186.348 89.1405 178.154 89.1405 169.964C89.0386 167.836 89.6933 165.743 90.9782 164.091C92.2636 162.438 94.0877 161.344 96.098 161.019C98.1283 160.694 100.202 161.155 101.93 162.318C107.654 165.787 113.385 169.248 119.124 172.698C121.607 174.198 124.121 175.643 126.553 177.223C127.033 177.585 127.61 177.779 128.201 177.779C128.792 177.779 129.368 177.585 129.849 177.223C140.161 170.939 150.491 164.694 160.841 158.487C163.371 156.963 165.879 155.403 168.431 153.928C168.878 153.721 169.253 153.374 169.504 152.934C169.755 152.495 169.87 151.984 169.832 151.474C169.801 135.802 169.801 120.131 169.832 104.459C169.875 103.951 169.769 103.44 169.527 102.996C169.286 102.552 168.921 102.196 168.482 101.975C155.511 94.1864 142.556 86.3696 129.618 78.5241C129.191 78.2246 128.687 78.0687 128.174 78.0762C127.66 78.0842 127.161 78.2552 126.743 78.5671C113.85 86.3839 100.939 94.169 88.0085 101.922C87.5082 102.194 87.1004 102.621 86.841 103.145C86.5816 103.67 86.4834 104.265 86.5601 104.851C86.5831 130.784 86.5831 156.72 86.5601 182.66C86.5956 183.587 86.5382 184.516 86.389 185.43C86.133 186.746 85.5852 187.981 84.7903 189.035C83.9955 190.089 82.9756 190.933 81.8127 191.498C80.6497 192.064 79.3765 192.335 78.095 192.292C76.8134 192.248 75.5598 191.889 74.435 191.245C72.4583 190.138 70.5481 188.925 68.6062 187.739C63.5061 184.663 58.4052 181.587 53.3029 178.512C51.8741 177.702 50.6892 176.49 49.8812 175.014C49.2359 173.761 48.9153 172.354 48.9512 170.932C49.0059 156.575 49.026 142.217 49.0112 127.86ZM78.3974 183.681V181.345C78.3974 155.679 78.3914 130.014 78.3785 104.35C78.2894 102.35 78.7516 100.366 79.7099 98.634C80.6682 96.902 82.0823 95.4955 83.7833 94.5829C96.855 86.7483 109.9 78.8775 122.92 70.97C124.51 69.9083 126.357 69.3441 128.244 69.3441C130.13 69.3441 131.977 69.9083 133.568 70.97C146.599 78.8665 159.645 86.7362 172.704 94.5799C174.427 95.5129 175.858 96.9466 176.824 98.7095C177.791 100.472 178.252 102.489 178.153 104.519C178.121 120.138 178.121 135.755 178.153 151.371C178.249 153.427 177.776 155.468 176.792 157.25C175.807 159.031 174.352 160.477 172.603 161.413C159.529 169.235 146.502 177.141 133.457 185.003C132.789 185.427 132.082 185.78 131.348 186.056C129.986 186.541 128.539 186.703 127.111 186.532C125.682 186.36 124.308 185.858 123.087 185.062C115.109 180.223 107.122 175.399 99.1247 170.591C98.644 170.302 98.16 170.031 97.4546 169.623V171.508C97.4546 178.877 97.4833 186.252 97.4293 193.623C97.3836 194.125 97.4901 194.629 97.7341 195.063C97.9776 195.497 98.3457 195.84 98.786 196.042C108.151 201.639 117.494 207.279 126.812 212.963C127.22 213.275 127.71 213.446 128.215 213.452C128.72 213.457 129.214 213.297 129.627 212.993C152.397 199.199 175.192 185.443 198.013 171.727C198.472 171.501 198.851 171.131 199.099 170.668C199.347 170.206 199.451 169.673 199.395 169.146C199.36 141.68 199.36 114.214 199.395 86.7476C199.439 86.2193 199.324 85.6903 199.067 85.2338C198.811 84.7773 198.425 84.4159 197.963 84.1996C175.243 70.5271 152.533 56.8328 129.833 43.1162C129.298 42.7849 128.76 42.4867 128.213 42.172C104.484 56.4937 80.8219 70.7726 57.2275 85.008V170.935C64.2261 175.136 71.1617 179.317 78.3974 183.681Z" fill="white"/>
<path d="M102.151 127.901C102.151 123.809 102.205 119.714 102.129 115.622C102.058 114.558 102.293 113.496 102.804 112.573C103.315 111.65 104.078 110.908 104.994 110.444C111.831 106.38 118.645 102.269 125.434 98.1124C126.263 97.5411 127.232 97.2349 128.225 97.2315C129.217 97.2277 130.189 97.5268 131.022 98.0924C137.908 102.289 144.81 106.457 151.73 110.596C152.569 111.046 153.267 111.739 153.74 112.594C154.213 113.448 154.441 114.427 154.396 115.413C154.381 123.767 154.381 132.119 154.396 140.468C154.439 141.48 154.202 142.484 153.711 143.358C153.221 144.232 152.5 144.938 151.635 145.391C144.762 149.502 137.903 153.642 131.06 157.812C130.231 158.384 129.261 158.691 128.269 158.695C127.277 158.699 126.305 158.4 125.471 157.835C118.63 153.663 111.77 149.524 104.893 145.418C104.004 144.955 103.266 144.227 102.772 143.324C102.279 142.422 102.053 141.386 102.123 140.349C102.202 136.197 102.151 132.049 102.151 127.901ZM128.283 101.949C128.121 102.01 127.963 102.08 127.809 102.161C121.038 106.24 114.279 110.331 107.496 114.38C107.181 114.559 106.927 114.837 106.77 115.174C106.613 115.511 106.561 115.892 106.62 116.262C106.639 124.064 106.645 131.867 106.62 139.669C106.588 140.093 106.684 140.517 106.893 140.881C107.102 141.245 107.414 141.531 107.787 141.7C112.138 144.278 116.455 146.912 120.788 149.523L128.232 154.015C128.745 153.724 129.197 153.469 129.646 153.201C135.971 149.39 142.265 145.563 148.605 141.796C149.021 141.598 149.368 141.267 149.595 140.85C149.822 140.434 149.918 139.954 149.87 139.477C149.822 131.782 149.822 124.089 149.87 116.398C149.914 115.922 149.813 115.444 149.583 115.032C149.352 114.62 149.003 114.294 148.586 114.102C142.157 110.278 135.765 106.399 129.355 102.535C128.995 102.333 128.64 102.141 128.283 101.942V101.949Z" fill="white"/>
</svg>
