<svg width="256" height="256" viewBox="0 0 256 256" fill="none" xmlns="http://www.w3.org/2000/svg">
<path d="M256 127.998C256 161.946 242.514 194.504 218.509 218.509C194.504 242.514 161.946 256 127.998 256C94.0514 255.999 61.495 242.513 37.491 218.509C13.487 194.505 0.00116778 161.95 0 128.002C-2.00871e-08 94.0551 13.4853 61.4975 37.4895 37.4926C61.4936 13.4876 94.0505 0.00116783 127.998 0C161.946 -2.00871e-08 194.503 13.4853 218.508 37.4895C242.512 61.4935 255.999 94.0505 256 127.998Z" fill="black"/>
<path d="M128.32 25.6406C71.61 25.6406 25.6406 71.61 25.6406 128.316C25.6406 185.023 71.61 230.992 128.32 230.992C185.03 230.992 230.999 185.023 230.999 128.316C230.999 71.61 185.026 25.6406 128.32 25.6406ZM128.32 206.475C85.0504 206.475 49.9716 171.396 49.9716 128.126C49.9716 84.8565 85.0504 49.7777 128.32 49.7777C171.59 49.7777 206.668 84.8565 206.668 128.126C206.668 171.396 171.59 206.475 128.32 206.475Z" fill="#FA6200"/>
<path d="M71.8926 144.943C76.9007 194.41 124.29 189.277 124.29 189.277C84.6781 181.214 71.8926 144.943 71.8926 144.943Z" fill="#FA6200"/>
</svg>
