<svg width="256" height="256" viewBox="0 0 256 256" fill="none" xmlns="http://www.w3.org/2000/svg">
<g clip-path="url(#clip0_2430_8284)">
<path d="M128 256C198.692 256 256 198.692 256 128C256 57.3076 198.692 0 128 0C57.3076 0 0 57.3076 0 128C0 198.692 57.3076 256 128 256Z" fill="white"/>
<path d="M106.808 55C88.2291 55 71.2581 61.9831 58.3922 73.4382C43.4244 86.7698 34.5791 106.181 34.5791 127.808C34.5791 149.434 43.636 169.269 58.886 182.614C71.6953 193.83 88.4689 200.037 106.823 200.037C140.581 200.037 168.979 177.635 177.218 146.472C178.798 140.519 179.63 134.255 179.63 127.808C179.63 87.602 147.028 55 106.808 55ZM106.808 169.227C84.2509 169.227 65.3895 150.365 65.3895 127.808C65.3895 105.25 84.2509 86.3886 106.808 86.3886C129.366 86.3886 147.649 105.25 147.649 127.808C147.649 150.365 129.366 169.227 106.808 169.227Z" fill="url(#paint0_linear_2430_8284)"/>
<path d="M143.444 145.865C136.631 159.648 122.283 169.044 105.764 168.635C84.1231 168.098 66.489 150.436 65.9813 128.796C65.4311 105.787 83.9258 86.9674 106.808 86.9674C129.69 86.9674 147.648 105.25 147.648 127.808C147.648 94.0211 120.252 66.6246 86.4649 66.6246C76.3361 66.6246 66.7855 69.1075 58.3774 73.4526C43.4237 86.7981 34 106.196 34 127.808C34 149.42 43.4237 168.832 58.3774 182.163C66.7855 186.522 76.3361 188.991 86.4649 188.991C113.452 188.991 136.348 171.527 144.488 147.29C144.728 146.585 144.192 145.865 143.444 145.865Z" fill="url(#paint1_linear_2430_8284)"/>
<path d="M177.739 142.367C177.739 133.606 170.658 126.779 161.897 126.779C154.646 126.779 148.213 131.589 146.323 138.234C145.758 140.152 145.265 141.718 144.46 143.651C143.529 145.866 142.401 147.968 141.117 149.957C129.464 169.242 108.317 182.15 84.1377 182.15C71.2576 182.15 59.2382 178.482 49.0527 172.134C62.37 189.457 83.2771 200.63 106.808 200.63C139.692 200.63 167.469 178.863 176.512 148.927C177.246 146.557 177.739 144.582 177.739 142.367Z" fill="url(#paint2_linear_2430_8284)"/>
<path d="M200.736 96.9431C212.252 96.9431 221.587 87.6081 221.587 76.0925C221.587 64.5771 212.252 55.2419 200.736 55.2419C189.221 55.2419 179.886 64.5771 179.886 76.0925C179.886 87.6081 189.221 96.9431 200.736 96.9431Z" fill="url(#paint3_linear_2430_8284)"/>
</g>
<defs>
<linearGradient id="paint0_linear_2430_8284" x1="161.587" y1="142.733" x2="101.095" y2="126.044" gradientUnits="userSpaceOnUse">
<stop stop-color="#F964ED"/>
<stop offset="0.45" stop-color="#F930ED"/>
<stop offset="0.81" stop-color="#F90DED"/>
<stop offset="1" stop-color="#F90DED"/>
</linearGradient>
<linearGradient id="paint1_linear_2430_8284" x1="131.637" y1="87.0238" x2="47.2609" y2="166.18" gradientUnits="userSpaceOnUse">
<stop stop-color="#F90DED"/>
<stop offset="1" stop-color="#AF15FF"/>
</linearGradient>
<linearGradient id="paint2_linear_2430_8284" x1="153.094" y1="123.083" x2="94.8309" y2="185.183" gradientUnits="userSpaceOnUse">
<stop stop-color="#3400BF"/>
<stop offset="1" stop-color="#AF15FF"/>
</linearGradient>
<linearGradient id="paint3_linear_2430_8284" x1="179.886" y1="76.0925" x2="221.587" y2="76.0925" gradientUnits="userSpaceOnUse">
<stop stop-color="#F930ED"/>
<stop offset="1" stop-color="#F982ED"/>
</linearGradient>
<clipPath id="clip0_2430_8284">
<rect width="256" height="256" fill="white"/>
</clipPath>
</defs>
</svg>
