<svg width="256" height="256" viewBox="0 0 256 256" fill="none" xmlns="http://www.w3.org/2000/svg">
<g clip-path="url(#clip0_2551_435)">
<path d="M128 250.912C111.407 250.912 95.3129 247.66 80.1542 241.251C65.518 235.061 52.372 226.198 41.0868 214.913C29.8016 203.628 20.9387 190.482 14.7488 175.845C8.33644 160.69 5.08789 144.592 5.08789 128C5.08789 111.408 8.33997 95.3131 14.7488 80.1544C20.9387 65.5183 29.8016 52.3722 41.0868 41.087C52.372 29.8018 65.518 20.9389 80.1542 14.749C95.3094 8.33669 111.407 5.08813 128 5.08813C144.592 5.08813 160.686 8.34022 175.845 14.749C190.481 20.9389 203.627 29.8018 214.913 41.087C226.198 52.3722 235.061 65.5183 241.251 80.1544C247.659 95.3096 250.911 111.408 250.911 128C250.911 144.592 247.659 160.687 241.251 175.845C235.061 190.482 226.198 203.628 214.913 214.913C203.627 226.198 190.481 235.061 175.845 241.251C160.69 247.663 144.592 250.912 128 250.912Z" fill="white"/>
<path d="M128 10.1764C193.07 10.1764 245.824 62.9266 245.824 128C245.824 193.073 193.073 245.824 128 245.824C62.9266 245.824 10.1764 193.073 10.1764 128C10.1764 62.9266 62.9301 10.1764 128 10.1764ZM128 0C110.726 0 93.9608 3.38626 78.1736 10.0634C62.9301 16.5111 49.2438 25.7377 37.489 37.4925C25.7377 49.2438 16.5076 62.9336 10.0599 78.1771C3.38626 93.9608 0 110.726 0 128C0 145.274 3.38626 162.039 10.0634 177.826C16.5111 193.07 25.7377 206.756 37.4925 218.511C49.2438 230.262 62.9336 239.492 78.1771 245.94C93.9644 252.617 110.73 256.004 128.004 256.004C145.277 256.004 162.043 252.617 177.83 245.94C193.073 239.492 206.76 230.266 218.515 218.511C230.266 206.76 239.496 193.07 245.944 177.826C252.621 162.039 256.007 145.274 256.007 128C256.007 110.726 252.621 93.9608 245.944 78.1736C239.496 62.9301 230.269 49.2438 218.515 37.489C206.763 25.7377 193.073 16.5076 177.83 10.0599C162.039 3.38626 145.277 0 128 0Z" fill="#7B57FF"/>
<path d="M128 47.1499L57.9795 87.5767V94.3139L127.993 134.741L198.02 94.3139V87.5767L128 47.1499ZM127.993 121.256L75.497 90.9489L128 60.6349L180.496 90.9489L127.993 121.256Z" fill="#7B57FF"/>
<path d="M102.774 83.1276L141.538 105.511L153.219 98.763L114.455 76.3833L102.774 83.1276Z" fill="#7B57FF"/>
<path d="M127.993 195.369L57.9834 154.942V168.427L127.993 208.854L198.021 168.427V154.942L127.993 195.369Z" fill="#7B57FF"/>
<path d="M127.993 158.314L57.9834 117.887V131.372L127.993 171.799L198.021 131.365V117.887L127.993 158.314Z" fill="#7B57FF"/>
</g>
<defs>
<clipPath id="clip0_2551_435">
<rect width="256" height="256" fill="white"/>
</clipPath>
</defs>
</svg>
