<svg width="256" height="256" viewBox="0 0 256 256" fill="none" xmlns="http://www.w3.org/2000/svg">
<path d="M127.142 251.11C195.461 251.11 250.843 195.726 250.843 127.408C250.843 59.0898 195.461 3.70703 127.142 3.70703C58.8239 3.70703 3.44092 59.0898 3.44092 127.408C3.44092 195.726 58.8239 251.11 127.142 251.11Z" fill="#FC0000"/>
<path d="M127.142 6.03612C194.234 6.03612 248.514 60.3156 248.514 127.408C248.514 194.5 194.234 248.779 127.142 248.779C60.0499 248.779 5.7705 194.5 5.7705 127.408C5.7705 60.3156 60.0499 6.03612 127.142 6.03612ZM127.142 1.37695C57.7203 1.37695 1.11133 57.986 1.11133 127.408C1.11133 196.829 57.7203 253.438 127.142 253.438C196.564 253.438 253.173 196.829 253.173 127.408C253.173 57.986 196.564 1.37695 127.142 1.37695Z" fill="white"/>
<path d="M81.4824 225.716C80.7837 225.483 79.8519 225.25 79.1528 225.017L79.8519 222.921C80.5506 223.154 81.2497 223.386 82.1815 223.62L81.4824 225.716Z" fill="#FC0000"/>
<path d="M123.882 197.062C121.552 197.062 116.194 201.256 116.194 203.119C116.194 206.148 120.154 209.176 124.348 209.176C128.774 209.176 131.336 207.08 131.103 203.585C131.103 201.023 126.444 197.062 123.882 197.062Z" fill="#BE251E"/>
<path d="M195.865 205.449C196.331 204.983 196.797 204.517 197.263 204.051C197.496 203.818 197.496 203.818 197.729 203.585C197.03 204.284 196.331 204.75 195.865 205.449Z" fill="black"/>
<path d="M197.496 169.573C196.564 166.544 195.632 163.283 195.166 160.254C194.933 158.857 194.933 157.226 195.166 155.828C195.399 152.8 196.098 149.771 195.865 146.743C195.632 141.618 194.933 136.493 194.467 131.367C193.768 124.146 190.74 117.856 187.246 111.799C187.013 111.333 186.547 110.634 186.314 110.168C182.819 104.577 177.927 99.918 172.802 95.7248C170.473 93.8611 165.347 90.114 162.319 91.0459C159.989 91.5118 158.591 92.6965 156.495 93.8611C148.108 98.753 142.073 106.602 138.113 115.454C136.948 118.017 136.204 121.117 135.505 123.913C134.806 126.242 135.147 128.156 132.585 128.389C128.158 128.855 124.493 127.923 120.067 128.389C116.573 128.622 115.494 128.106 114.096 126.01C113.398 125.078 113.398 123.913 112.699 122.748C109.67 116.691 107.107 110.634 103.846 104.577C102.449 102.014 100.119 99.6853 97.5563 97.8216C95.4599 96.1907 92.6644 94.7929 90.1016 93.8611C87.3061 92.9292 80.3307 89.3807 77.3024 91.7103C70.7795 96.3695 66.398 102.651 61.7388 109.173C61.2729 109.872 60.5702 111.188 60.3371 111.886C55.212 119.807 51.8966 127.771 50.9647 136.856C50.2656 142.913 50.7316 148.606 50.9647 154.896C50.9647 156.061 51.6638 158.624 50.9647 159.555C46.3055 166.311 46.489 174.748 47.654 181.97C49.5177 193.618 59.584 201.954 69.6011 208.477C75.6581 212.67 81.9482 215.932 88.7038 218.494C99.42 222.687 111.068 225.017 123.182 225.483C130.869 224.318 138.557 223.619 146.245 222.221C152.069 221.057 157.893 219.426 163.484 217.096C165.58 216.164 167.444 215.233 169.308 214.301C174.899 211.273 180.723 208.244 185.382 204.051C190.973 198.925 195.632 192.636 197.263 184.948C197.496 179.59 199.126 174.698 197.496 169.573ZM152.259 125.097C154.589 119.04 161.62 116.924 166.046 121.583C167.211 122.748 168.143 124.146 169.308 125.544C169.541 125.776 169.086 126.327 169.785 127.258C168.62 127.026 168.376 126.708 168.143 126.475C164.882 124.146 161.387 122.981 157.66 123.913C156.029 124.379 154.631 125.31 153 125.776C152.534 126.01 152.069 126.01 151.603 126.01C151.37 126.01 152.259 125.563 152.259 125.097ZM118.057 166.078C120.619 163.749 128.074 163.283 130.869 165.146C132.034 165.846 133.199 167.709 133.199 168.874C133.199 169.806 131.335 171.203 130.171 171.669C128.54 172.135 126.676 172.135 124.58 172.135C122.949 171.902 121.085 172.135 119.455 171.669C118.29 171.437 116.892 170.272 116.659 169.34C116.426 168.408 117.358 166.777 118.057 166.078ZM80.5504 124.612C82.88 121.583 85.2096 118.555 89.6357 118.788C91.9653 118.788 97.3236 122.981 97.7895 125.31C97.7895 125.776 96.4228 126.01 95.9569 126.01C95.0251 126.01 94.7951 125.368 93.8632 124.902C89.6699 123.038 85.9284 122.73 81.9683 125.759C81.5024 126.225 80.9065 126.097 80.2078 126.33C80.4406 125.398 80.0845 125.078 80.5504 124.612ZM89.8688 144.879C88.2379 142.782 86.3742 143.015 84.9765 145.112C83.1128 148.141 81.4823 151.635 80.0845 154.896C79.1527 156.993 80.0845 157.459 82.6469 156.993C83.8119 156.76 84.9765 156.527 86.1415 156.76C87.0733 156.76 88.7038 156.993 88.7038 157.925C88.7038 158.857 87.0733 158.624 86.1415 158.857C83.8119 159.323 81.2491 159.789 78.9195 160.487C77.289 160.953 75.8912 161.885 74.2603 162.584C73.0957 163.283 72.3966 163.05 72.3966 161.652C72.3966 152.101 73.7944 143.248 80.7832 135.794C82.88 133.697 85.2096 133.231 87.772 132.998C91.4994 132.765 96.6245 136.26 98.9541 142.316C100.585 146.51 101.75 150.936 103.147 155.362C103.381 156.294 103.381 157.226 103.381 158.158C103.147 160.021 101.983 160.487 100.585 159.555C97.7895 157.925 95.4599 155.828 94.2949 152.334C93.829 149.771 91.7325 147.209 89.8688 144.879ZM149.739 189.84C146.711 191.005 143.449 192.17 140.421 192.636C138.557 192.868 137.858 193.334 137.625 195.198C137.16 199.391 135.762 203.352 133.432 206.846C131.335 210.108 128.074 211.273 123.182 211.273C118.989 211.273 115.594 207.791 113.731 202.432C112.799 199.87 111.889 197.415 111.423 194.62C111.19 192.756 109.437 192.403 107.807 192.636C104.312 193.102 101.469 191.284 98.2077 189.886C96.5772 189.187 97.7895 189.331 98.0222 187.933C98.2554 187.234 97.7418 186.506 98.2077 186.273C99.3727 187.438 99.8257 187.467 100.059 187.933C101.457 190.03 103.159 189.385 105.489 189.618C112.012 190.55 118.755 188.894 123.182 184.235C124.58 182.837 124.114 180.522 126.21 183.085C130.637 187.977 136.981 191.937 143.97 189.141C145.135 188.675 146.077 188.632 147.242 187.933C147.941 187.467 148.581 185.881 148.814 186.114C149.746 186.58 150.438 186.579 150.671 187.511C151.37 188.209 150.438 189.607 149.739 189.84ZM173.967 160.953C173.501 161.652 171.87 162.584 171.404 162.351C167.677 160.021 163.717 159.089 159.523 158.857C158.825 158.857 158.126 158.391 157.427 158.158C157.194 157.925 156.728 157.925 156.495 157.692C156.961 157.459 157.194 157.226 157.66 157.226C159.989 156.993 162.319 156.527 164.416 156.993C166.745 157.459 167.444 156.76 166.745 155.129C165.347 151.635 163.95 148.373 162.319 145.112C161.154 143.248 159.057 142.782 157.66 144.646C155.796 147.209 153.699 150.004 152.534 153.033C151.137 156.527 148.341 158.391 145.313 159.789C145.08 160.021 143.915 159.089 143.915 158.857C144.614 151.402 146.711 143.947 151.37 138.123C157.427 130.669 164.882 132.532 169.308 139.987C172.569 145.578 173.967 151.868 174.2 157.925C173.967 159.089 174.433 160.254 173.967 160.953Z" fill="white"/>
<path d="M210.076 71.0311C208.911 81.2813 205.184 93.6284 205.184 93.6284C204.019 98.2876 202.622 102.714 201.457 107.373C201.457 107.606 200.758 107.839 200.525 108.072C199.826 106.208 198.428 104.111 198.661 102.48C200.059 95.958 201.922 89.4351 203.553 82.9122C203.786 81.9804 204.019 81.0486 204.019 80.1167C204.019 79.8836 204.485 77.554 203.087 76.6221C200.991 74.7584 198.661 76.6221 197.496 77.7871C195.865 79.4176 195.167 81.7472 194.235 83.8441C193.769 84.7759 193.769 85.7078 193.303 86.4064C192.604 88.2701 191.905 87.8042 190.74 86.6396L190.508 86.4064C186.547 81.9804 182.354 77.554 178.161 73.3607C177.229 72.4288 176.996 72.1961 177.928 71.2642C183.286 65.44 189.11 60.3149 196.099 56.8207C197.263 56.122 198.428 55.6561 199.593 55.1902C203.087 53.7924 206.815 54.7243 209.144 58.4512C209.144 58.4512 209.144 58.6844 209.377 58.6844C209.377 58.9172 209.61 58.9176 209.61 59.1503C209.61 59.3831 209.61 59.3831 209.843 59.6162C210.542 62.1786 210.542 66.3719 210.076 71.0311Z" fill="white"/>
<path d="M74.727 70.3325C69.6019 73.8267 65.1754 78.4859 61.2153 83.1451C60.0503 84.3101 59.8176 84.5429 59.3516 83.3783C59.3516 83.1451 59.1185 83.1451 59.1185 82.9124C58.6526 81.2815 57.9539 79.6509 57.488 78.02C56.7889 75.6904 55.1584 74.7586 52.5956 74.9917C50.0332 75.2245 49.1014 76.1563 49.3346 78.4859C49.8005 81.7474 50.7323 85.0088 51.431 88.2703C52.1297 91.5317 52.8288 94.7931 53.2947 98.0546C53.5274 98.7537 53.5274 99.6855 53.0615 100.384C52.8288 101.083 52.1297 101.782 51.6638 102.481C51.1978 101.782 50.2664 101.083 50.2664 100.384C48.8686 94.0945 47.4709 88.0375 46.0731 81.5146C45.84 80.3496 45.6072 79.185 45.374 78.02C45.374 77.5541 45.1413 77.3213 45.1413 76.8554C43.2776 64.9743 44.6754 60.0823 45.374 58.9177C45.6072 58.6845 45.6072 58.4518 45.6072 58.4518C47.4709 55.1903 49.8005 54.0253 53.7606 54.7244C54.4593 54.7244 55.1584 54.9572 56.0902 55.1903C61.6812 56.5881 66.1073 60.0823 70.5337 63.8097C71.9315 64.9747 73.562 66.1393 74.727 67.537C75.8916 68.2357 76.1248 69.4007 74.727 70.3325Z" fill="white"/>
<path d="M149.04 185.647C148.575 185.414 147.876 186.579 147.177 186.812C146.012 187.511 145.08 188.21 143.915 188.676C136.694 191.471 131.103 188.21 126.677 183.318C124.58 180.755 123.881 181.92 122.483 183.318C117.824 188.21 112.233 190.306 105.71 189.375C103.381 189.142 101.284 188.676 99.8861 186.579C99.4202 186.113 98.7215 185.414 98.2556 185.647C97.5565 185.88 96.8578 186.579 96.8578 187.278C96.6247 188.676 96.8578 189.608 98.4884 190.54C101.517 191.937 104.545 193.335 108.273 192.869C109.904 192.636 110.602 193.102 110.835 194.966C111.301 197.528 112.233 200.324 113.165 202.886C115.029 208.011 119.455 211.506 123.648 211.506C128.54 211.739 131.801 210.341 133.898 207.08C136.228 203.585 137.626 199.625 138.092 195.432C138.324 193.568 139.023 193.102 140.887 192.869C144.149 192.17 147.177 191.006 150.205 190.074C150.904 189.841 151.836 188.443 151.836 187.977C150.904 187.045 149.972 186.113 149.04 185.647ZM130.404 206.38C130.404 206.614 130.171 206.614 130.171 206.846C130.171 207.08 129.938 207.08 129.938 207.08C129.705 207.312 129.705 207.312 129.472 207.545C129.239 207.778 129.239 207.778 129.006 207.778C127.841 208.477 126.211 208.943 124.347 208.943C120.154 208.943 116.193 205.915 116.193 202.886C116.193 202.653 116.193 202.42 116.426 201.954C116.659 201.489 117.358 200.789 118.057 200.091C118.29 199.858 118.756 199.392 118.989 199.159C120.62 197.761 122.716 196.829 123.881 196.829C126.677 196.829 131.103 201.023 131.103 203.352C131.103 204.517 130.87 205.682 130.404 206.38Z" fill="black"/>
<path d="M103.613 158.158C103.38 160.022 102.215 160.488 100.818 159.556C98.0222 157.925 95.693 155.828 94.528 152.334C93.5961 149.538 91.7325 146.976 89.8688 144.879C88.2383 142.783 86.3746 143.015 84.9768 145.112C83.1131 148.14 81.4822 151.635 80.0845 154.896C79.1526 156.993 80.0845 157.459 82.6472 156.993C83.8118 156.76 84.9768 156.527 86.1414 156.76C87.0733 156.76 88.7042 156.993 88.7042 157.925C88.7042 158.857 87.0733 158.624 86.1414 158.857C83.8118 159.323 81.2495 159.788 78.9199 160.488C77.2889 160.953 75.8912 161.885 74.2607 162.584C73.0957 163.283 72.397 163.05 72.397 161.652C72.397 152.101 73.7947 143.248 80.7835 135.794C82.88 133.697 85.2096 133.231 87.7723 132.998C91.4997 132.765 96.6244 136.26 98.954 142.317C100.585 146.51 101.75 150.936 103.147 155.362C103.613 156.294 103.613 157.226 103.613 158.158Z" fill="black"/>
<path d="M173.968 160.954C173.502 161.653 171.871 162.585 171.405 162.352C167.678 160.023 163.717 159.091 159.524 158.858C158.825 158.858 158.126 158.392 157.428 158.159C157.195 157.926 156.729 157.926 156.496 157.693C156.962 157.46 157.195 157.227 157.66 157.227C159.99 156.994 162.32 156.528 164.416 156.994C166.746 157.46 167.445 156.761 166.746 155.131C165.348 151.636 163.951 148.375 162.32 145.113C161.155 143.249 159.058 142.783 157.66 144.647C155.797 147.21 153.7 150.005 152.535 153.034C151.138 156.528 148.342 158.392 145.314 159.79C145.081 160.023 143.916 159.091 143.916 158.858C144.615 151.403 146.712 143.948 151.371 138.124C157.428 130.67 164.882 132.534 169.308 139.988C172.57 145.579 173.968 151.869 174.201 157.926C173.968 159.091 174.434 160.256 173.968 160.954Z" fill="black"/>
<path d="M133.2 168.874C133.2 169.806 131.336 171.204 130.171 171.67C128.541 172.136 126.677 172.136 124.58 172.136C122.949 171.903 121.086 172.136 119.455 171.67C118.29 171.437 116.893 170.272 116.659 169.34C116.427 168.408 117.125 166.778 118.057 166.079C120.62 163.749 128.075 163.283 130.87 165.147C132.035 165.846 133.432 167.71 133.2 168.874Z" fill="black"/>
<path d="M97.7898 125.078C97.7898 125.544 97.0911 126.476 96.6252 126.476C95.6933 126.476 94.9942 126.01 94.0624 125.544C89.8691 123.681 86.1418 123.215 82.1816 126.243C81.7157 126.709 80.5511 126.476 79.8521 126.709C80.0852 126.01 80.0852 125.078 80.318 124.38C82.6476 121.351 84.9772 118.323 89.4032 118.556C91.966 118.789 97.3238 122.982 97.7898 125.078Z" fill="black"/>
<path d="M170.24 127.407C169.076 127.175 168.377 126.941 168.143 126.709C164.882 124.379 161.388 123.214 157.66 124.146C156.03 124.612 154.632 125.544 153.001 126.01C152.535 126.243 152.069 126.243 151.603 126.243C151.603 125.777 151.371 125.078 151.603 124.845C153.933 118.788 161.854 116.924 166.28 121.584C167.445 122.748 168.377 124.146 169.542 125.544C169.774 126.01 169.774 126.476 170.24 127.407Z" fill="black"/>
<path d="M216.598 86.174C218.695 78.4865 220.326 70.7986 219.86 62.878C219.627 57.7532 218.462 52.8609 214.735 49.5994C213.57 48.4348 211.939 47.7358 210.309 47.0371C209.843 46.8039 209.144 46.5712 208.678 46.5712C208.445 46.5712 208.212 46.5711 208.212 46.338C207.746 46.338 207.513 46.1052 207.047 46.1052C206.814 46.1052 206.581 46.1052 206.348 46.1052C206.115 46.1052 205.649 46.1052 205.416 45.8721C205.184 45.8721 204.95 45.8721 204.718 45.8721C204.484 45.8721 204.019 45.8721 203.786 45.8721H203.32C202.388 45.8721 201.689 45.8721 200.757 46.1052C200.524 46.1052 200.524 46.1052 200.524 46.1052C199.592 46.338 198.893 46.338 197.962 46.5712C196.564 46.8039 195.166 47.2698 193.768 47.9689C185.149 51.4631 179.092 57.7532 173.035 64.2757L172.802 64.5089C172.569 64.7416 172.336 64.9748 172.336 64.9748L172.103 65.2076C171.87 65.4407 171.87 65.4407 171.637 65.4407H171.404C171.171 65.4407 171.171 65.6735 170.939 65.6735H170.705C170.473 65.6735 170.473 65.6735 170.473 65.6735H170.24H170.007H169.774H169.541C169.308 65.6735 169.308 65.6735 169.308 65.4407C169.308 65.4407 169.075 65.4407 169.075 65.2076C168.842 65.2076 168.609 64.9748 168.376 64.9748C163.251 62.412 158.359 59.3838 153.234 57.2873C145.313 54.0259 136.926 52.6281 128.307 52.1622C125.512 52.1622 122.483 52.1622 119.687 52.1622C116.892 52.6281 113.864 52.8609 111.068 53.3268C101.982 54.7246 93.3631 57.7532 85.4425 62.412C85.2097 62.412 84.9765 62.6452 84.7438 62.6452H84.5106H84.2779H84.0447C83.8119 62.6452 83.5788 62.6452 83.346 62.6452C83.1129 62.6452 83.1129 62.6452 83.1129 62.6452C82.8801 62.6452 82.647 62.412 82.4142 62.1793C79.1527 59.6169 76.1241 57.0542 72.8626 54.4918C71.698 53.5599 70.7662 52.8609 69.6012 52.1622C68.9025 51.6963 68.4366 51.2303 67.7375 50.9972C67.5047 50.9972 67.2716 50.7644 67.2716 50.7644C66.8057 50.5313 66.3397 50.2985 65.8738 50.0654C65.6411 49.8326 65.4079 49.8326 65.1751 49.5994C64.7092 49.3667 64.4761 49.1335 64.0101 48.9007C63.7774 48.6676 63.5442 48.6676 63.3115 48.4348C62.8455 48.2017 62.6124 47.9689 62.1465 47.9689C61.9137 47.7358 61.6805 47.7358 61.2146 47.7358C60.7487 47.503 60.5159 47.503 60.05 47.2698C59.8169 47.2698 59.3509 47.0371 59.1182 47.0371C58.6523 46.8039 58.4191 46.8039 57.9532 46.8039C57.7204 46.8039 57.2545 46.5712 57.0213 46.5712C56.5554 46.5712 56.3227 46.338 55.8567 46.338C55.3908 46.338 55.1581 46.338 54.9249 46.338C54.459 46.338 54.2262 46.338 53.9931 46.338H53.5271C53.0612 46.338 52.8281 46.338 52.3621 46.338C41.8791 47.0371 36.0552 53.3268 35.8223 63.577C35.8223 64.5089 35.8223 65.4407 35.8223 66.3726C35.8223 71.2645 36.2882 76.1569 37.453 81.0488C40.0155 91.765 42.3451 102.248 44.4419 113.197C44.6747 114.129 44.9078 114.828 45.1406 115.76C45.3737 116.692 45.6065 117.391 45.8397 118.322C46.0724 119.487 46.3056 120.885 46.0724 122.283C46.0724 122.748 45.8397 123.214 45.8397 123.68C44.9078 126.243 44.2087 129.039 43.976 131.834C43.7428 133.931 43.5101 135.794 43.5101 137.891C43.5101 138.59 43.5101 139.522 43.5101 140.221C43.5101 143.016 43.5101 146.044 43.5101 149.073C43.5101 151.17 43.7428 153.033 43.7428 155.13C43.7428 155.829 43.7428 156.527 43.5101 157.227C43.5101 157.459 43.5101 157.692 43.2769 157.925C43.0441 158.624 42.811 159.556 42.5782 160.255C42.3451 160.954 42.1123 161.886 42.1123 162.584C41.6464 163.516 36.7541 178.892 45.1406 194.267C45.1406 194.5 45.3737 194.5 45.3737 194.5C46.3056 196.597 47.4702 198.46 48.402 200.324C51.6635 205.682 56.0895 210.574 61.4478 214.767C66.3397 218.728 71.698 221.756 77.2891 223.853C77.5218 223.853 78.2209 224.319 79.3855 224.785C79.6187 224.785 80.0846 225.018 80.3174 225.018C81.0164 225.25 81.7151 225.484 82.6469 225.716C83.1129 225.95 83.5788 225.95 84.0447 226.182C84.5106 226.415 84.7438 226.415 85.2097 226.648C90.8007 228.512 99.1869 230.608 108.505 231.773C111.534 232.239 114.795 232.472 118.057 232.705C122.483 232.938 127.375 232.705 132.034 232.239C132.267 232.239 132.5 232.239 132.966 232.239C133.432 232.239 135.529 231.773 135.995 231.773C136.926 231.773 137.625 231.541 138.324 231.541C149.506 230.143 158.825 227.58 166.279 225.018C179.558 220.591 186.779 215.699 187.245 215.233C189.109 213.836 190.74 212.671 192.371 211.273C193.768 210.341 194.7 208.943 195.865 207.779C196.098 207.546 196.331 207.313 196.564 207.08C197.263 206.381 197.729 205.682 198.427 204.983C198.893 204.284 199.592 203.585 200.058 203.119C200.058 203.119 200.058 202.886 200.291 202.886C204.718 196.829 205.649 193.335 205.649 193.335C205.649 193.102 205.882 192.869 205.882 192.869C205.882 192.869 206.115 192.636 206.115 192.403C206.348 191.937 206.581 191.471 206.814 190.772C207.047 190.074 207.28 189.608 207.513 188.909C207.746 188.443 207.746 187.744 207.979 187.278C208.212 186.58 208.212 186.114 208.445 185.415C208.678 184.949 208.678 184.25 208.911 183.784C209.144 183.085 209.144 182.386 209.144 181.687C209.144 181.454 209.144 181.221 209.377 180.988C209.61 180.755 209.377 180.523 209.61 180.289C209.61 179.591 209.843 178.892 209.843 178.193C209.843 177.727 209.843 177.261 209.843 176.795C209.843 175.863 209.843 175.164 209.843 174.232V173.068C209.843 172.136 209.61 171.204 209.61 170.272C209.61 170.039 209.61 169.806 209.61 169.34C209.377 168.175 209.144 166.778 208.911 165.613C207.979 161.187 207.28 156.527 208.212 152.101C209.61 144.879 208.212 138.124 207.746 131.135C207.513 127.641 207.047 124.612 207.979 121.118C210.075 108.538 213.57 97.5892 216.598 86.174ZM46.3056 81.282C46.0724 80.117 45.8397 78.9524 45.6065 77.7874C45.6065 77.3215 45.3737 77.0887 45.3737 76.6228C43.5101 64.7416 44.9078 59.8497 45.6065 58.6851C45.8397 58.4519 45.8397 58.2191 45.8397 58.2191C47.7033 54.9577 50.0329 53.7927 53.9931 54.4918C54.6917 54.4918 55.3908 54.7246 56.3227 54.9577C61.9137 56.3555 66.3397 59.8497 70.7662 63.577C72.1639 64.7416 73.7945 65.9066 74.9595 67.3044C75.8913 68.2362 76.1241 69.4008 74.7263 70.5658C69.6012 74.06 65.1751 78.7192 61.2146 83.3784C60.05 84.5434 59.8169 84.7762 59.3509 83.6116C59.3509 83.3784 59.1182 83.3784 59.1182 83.1457C58.6523 81.5148 57.9532 79.8842 57.4873 78.2533C56.7886 75.9237 55.1581 74.9919 52.5953 75.225C50.0329 75.4578 49.1011 76.3896 49.3339 78.7192C49.7998 81.9807 50.7316 85.2421 51.4307 88.5036C52.1294 91.765 52.8281 95.0264 53.294 98.2879C53.5271 98.987 53.5271 99.9188 53.0612 100.617C52.8285 101.317 52.1294 102.015 51.6635 102.714C51.1975 102.015 50.2657 101.317 50.2657 100.617C48.8679 93.8618 47.4702 87.5717 46.3056 81.282ZM196.331 184.483C194.7 192.17 190.041 198.46 184.45 203.585C179.791 207.779 173.967 210.807 168.376 213.836C166.512 214.768 164.416 215.932 162.552 216.631C156.961 218.961 151.37 220.591 145.313 221.756C137.625 223.154 129.938 223.853 122.25 225.018C110.136 224.552 98.721 222.222 87.7721 218.029C81.2492 215.466 74.9595 212.205 68.6693 208.011C58.6523 201.256 51.8966 192.403 50.0329 180.755C48.8679 173.534 48.6352 165.613 53.0612 158.857C53.5271 157.925 53.5271 156.527 53.5271 155.363C53.294 149.306 52.3625 143.016 53.0612 136.959C54.2258 127.874 57.0213 119.254 62.1465 111.334C62.6124 110.635 62.8455 110.169 63.3115 109.47C67.9707 102.947 73.5617 97.5892 80.0846 92.93C83.1129 90.8332 86.1415 92.4641 89.1698 93.3959C91.9653 94.3278 94.5277 95.4924 96.6245 97.356C98.9541 99.2197 101.284 101.549 102.914 104.112C106.176 109.936 108.971 116.226 111.767 122.283C112.233 123.214 112.466 124.612 113.165 125.544C114.562 127.641 115.727 129.97 119.221 129.737C123.648 129.271 128.074 129.97 132.5 129.505C135.063 129.271 136.228 126.709 136.926 124.379C137.625 121.817 138.091 119.021 139.023 116.459C142.983 107.606 148.574 100.152 157.194 95.2596C159.291 94.0946 161.387 93.1628 163.717 92.4641C166.978 91.765 169.541 93.3959 171.87 95.2596C176.996 99.4529 181.654 104.112 185.382 109.703C185.848 110.169 186.081 110.868 186.314 111.334C189.808 117.391 192.836 123.68 193.536 130.902C194.001 136.027 194.7 141.153 194.933 146.277C195.166 149.306 194.467 152.334 194.234 155.363C194.234 156.761 194.001 158.391 194.234 159.789C194.933 162.818 195.632 166.079 196.564 169.107C199.127 174.698 197.496 179.591 196.331 184.483ZM205.184 93.6287C204.019 98.2879 202.621 102.714 201.456 107.373C201.456 107.606 200.757 107.839 200.524 108.072C199.825 106.209 198.427 104.112 198.661 102.481C200.058 95.9583 201.922 89.4354 203.553 82.9125C203.786 81.9807 204.019 81.0488 204.019 80.117C204.019 79.8842 204.484 77.5546 203.087 76.6228C200.99 74.7591 198.661 76.6228 197.496 77.7874C195.865 79.4183 195.166 81.7479 194.234 83.8444C193.768 84.7762 193.768 85.708 193.302 86.4071C192.604 88.2708 191.905 87.8049 190.74 86.6399L190.507 86.4071C186.547 81.9807 182.353 77.5546 178.16 73.3614C177.228 72.4295 176.996 72.1964 177.927 71.2645C183.285 65.4407 189.109 60.3156 196.098 56.8214C197.263 56.1223 198.427 55.6564 199.592 55.1905C203.087 53.7927 206.814 54.7246 209.144 58.4519C209.144 58.4519 209.144 58.6851 209.377 58.6851C209.377 58.9178 209.61 58.9178 209.61 59.151C209.61 59.3838 209.61 59.3838 209.843 59.6169C210.775 62.1793 210.775 66.3726 210.075 71.0318C208.678 81.282 205.184 93.6287 205.184 93.6287Z" fill="black"/>
</svg>
