<svg width="256" height="256" viewBox="0 0 256 256" fill="none" xmlns="http://www.w3.org/2000/svg">
<g clip-path="url(#clip0_1239_2)">
<circle cx="128" cy="128" r="98" fill="#140F34"/>
<rect width="256" height="256" fill="#140F34"/>
<path d="M210.517 70.0023C208.685 62.9359 202.794 55.8695 192.187 48.0028C183.679 41.7368 174.644 38.1387 167.44 38.1387C165.998 38.1387 164.693 38.2685 163.381 38.5353C160.107 39.1986 157.23 41.5998 155.392 45.2051C153.163 49.4737 152.644 55.2062 154.079 58.6745C154.606 59.7416 155.255 61.0756 156.04 62.2726C149.104 66.5412 145.174 67.7382 144.648 67.8752C162.717 74.0114 177.773 86.8102 187.205 103.474L187.334 101.873C187.724 97.4747 189.036 92.4057 190.868 87.2068C192.699 87.7404 194.531 88.0072 196.369 88.0072C201.215 88.0072 205.404 86.0099 208.022 82.4046C210.654 78.8065 211.699 74.0042 210.517 70.0023Z" fill="#602F92"/>
<path d="M191.668 83.3421C203.58 86.6734 208.425 77.3428 206.854 71.0768C205.152 64.8108 199.65 58.4078 189.966 51.2116C180.275 44.0082 170.454 41.0807 164.174 42.4147C157.886 43.7486 156.055 53.483 157.627 57.218C158.283 58.6818 159.725 60.8161 161.686 63.2173C159.199 64.9478 156.841 66.2818 154.88 67.4859C166.928 72.9516 177.398 81.4889 185.258 92.1534C186.174 88.5553 187.486 85.3538 188.661 82.5561C189.57 82.6715 190.615 82.9383 191.668 83.3421Z" fill="url(#paint0_radial_1239_2)"/>
<path d="M123.448 214.005C163.871 214.005 196.643 180.635 196.643 139.469C196.643 98.3039 163.871 64.9404 123.448 64.9404C83.0258 64.9404 50.2537 98.3111 50.2537 139.476C50.2537 180.642 83.0258 214.005 123.448 214.005Z" fill="url(#paint1_radial_1239_2)"/>
<path opacity="0.6" d="M200.833 64.9408C190.882 54.2763 182.503 51.4714 172.423 49.2073C164.563 47.3397 166.662 42.8043 176.223 43.7416C171.637 42.1409 167.318 41.7443 164.174 42.4077C157.886 43.7416 156.055 53.476 157.627 57.211C158.283 58.6748 159.725 60.8091 161.686 63.2103C158.153 65.6114 155.139 67.3419 152.651 68.6759C153.827 69.2095 155.269 69.8729 156.971 70.8102C161.42 73.2114 166.265 77.2133 166.265 77.2133C158.932 70.8102 160.504 67.8827 170.584 60.6793C173.728 58.4152 179.489 58.682 184.854 61.4797C190.219 64.2774 196.506 71.3438 196.506 71.3438L190.486 83.0755C190.875 83.2125 191.271 83.3423 191.661 83.4793C195.461 84.5464 198.468 84.2796 200.826 83.3423C203.58 81.6045 210.783 75.7351 200.833 64.9408Z" fill="#A98798"/>
<path d="M172.286 55.6029C174.903 56.6701 178.307 58.5376 182.496 61.3353C187.471 64.6666 191.791 68.4017 194.545 71.3364C189.959 77.4726 186.952 85.873 185.121 91.7352C186.036 93.0692 187.082 94.4031 188.005 95.7371C188.921 92.4058 190.493 87.4665 192.591 82.5345C193.117 82.6715 193.766 82.6715 194.422 82.6715C195.994 82.6715 197.826 82.4047 199.268 81.2077C200.313 80.4074 201.496 78.9436 201.366 76.2757C201.366 73.7448 199.405 70.5433 195.345 66.6784C192.461 63.8807 188.539 60.8089 184.609 58.0112C173.346 50.4113 165.493 48.2769 161.96 51.875C159.602 54.2761 159.862 57.2109 160.648 59.3452C156.459 62.1429 152.925 64.1475 150.568 65.4814C152.139 66.015 153.582 66.6784 155.153 67.349C159.321 65.0704 165.349 61.2055 172.286 55.6029ZM197.033 74.6749C197.422 75.3383 197.559 76.0089 197.559 76.4055C197.559 77.6024 197.17 78.0062 196.903 78.273C196.376 78.6696 195.331 78.9364 194.415 78.9364C195.201 77.3356 196.117 76.0017 197.033 74.6749ZM164.693 54.8025C165.082 54.4059 166.135 54.1391 167.837 54.4059C166.525 55.4731 165.219 56.4033 163.907 57.3406C163.777 56.4033 163.907 55.4731 164.693 54.8025Z" fill="#602F92"/>
<path d="M123.449 60.5352C80.632 60.5352 45.9346 95.8671 45.9346 139.47C45.9346 183.072 80.632 218.404 123.449 218.404C166.265 218.404 200.963 183.072 200.963 139.47C200.963 95.8743 166.135 60.5352 123.449 60.5352ZM123.449 214.006C82.9899 214.006 50.2537 180.671 50.2537 139.47C50.2537 98.2682 82.9899 64.9336 123.449 64.9336C163.907 64.9336 196.643 98.2682 196.643 139.47C196.636 180.671 163.777 214.006 123.449 214.006Z" fill="#602F92"/>
<path opacity="0.6" d="M123.448 214.005C163.871 214.005 196.643 180.635 196.643 139.469C196.643 98.3039 163.871 64.9404 123.448 64.9404C83.0258 64.9404 50.2537 98.3111 50.2537 139.476C50.2537 180.642 83.0258 214.005 123.448 214.005Z" fill="url(#paint2_linear_1239_2)"/>
<path opacity="0.6" d="M122.922 204.934C82.9899 198.401 55.8853 160.135 62.4325 119.467C65.3167 101.469 74.2146 86.1322 86.7899 75.064C68.4534 85.8727 54.8397 104.671 51.1695 127.608C44.7521 168.275 71.8568 206.542 111.659 213.075C133.918 216.81 155.392 209.744 171.233 195.878C157.23 204.134 140.206 207.739 122.922 204.934Z" fill="#A98798"/>
<path opacity="0.6" d="M135.101 66.0076C116.642 62.9431 98.7017 67.2046 84.0353 76.6721C83.7757 76.9389 83.5089 77.2057 83.5089 77.2057C89.1404 73.7374 97.3894 70.6729 97.3894 70.6729C76.1758 83.2049 69.6285 97.4747 69.6285 97.4747C77.8775 81.2076 102.098 69.7427 121.083 68.9424C140.069 68.142 152.507 73.8744 167.693 86.2766C182.878 98.8087 192.05 124.406 191.127 144.675C190.341 164.944 179.864 181.341 179.864 181.341C187.068 171.874 191.387 164.944 194.134 157.878C194.66 155.744 195.18 153.609 195.446 151.345C202.008 110.807 175.033 72.5404 135.101 66.0076Z" fill="url(#paint3_linear_1239_2)"/>
<path d="M192.973 138.806C192.973 177.873 161.809 209.607 123.449 209.607C85.0882 209.607 53.7942 177.873 53.7942 138.806H192.973Z" fill="url(#paint4_linear_1239_2)"/>
<g opacity="0.6">
<path opacity="0.6" d="M187.471 138.806C187.471 176.935 157.879 208.136 120.694 209.607C121.61 209.607 122.526 209.607 123.441 209.607C161.802 209.607 192.966 177.873 192.966 138.806H187.471Z" fill="url(#paint5_linear_1239_2)"/>
</g>
<g opacity="0.7">
<path opacity="0.7" d="M63.615 138.806H53.7942C53.7942 177.873 84.9584 209.607 123.319 209.607C125.021 209.607 126.592 209.607 128.164 209.47C92.1546 206.802 63.615 176.135 63.615 138.806Z" fill="url(#paint6_linear_1239_2)"/>
</g>
<path d="M192.843 139.469C192.843 131.335 178.963 126.67 160.504 125.069C147.15 124.002 133.666 125.336 118.214 130.138C104.86 134.14 92.8108 133.47 84.0427 132.403C64.5308 130.138 53.7942 129.872 53.7942 139.469C53.7942 153.335 81.555 170.669 123.189 164.67C144.273 161.606 155.139 155.34 167.577 151.071C181.061 146.535 192.843 146.672 192.843 139.469Z" fill="url(#paint7_linear_1239_2)"/>
<path d="M146.227 105.867C152.738 105.867 158.009 100.496 158.009 93.869C158.009 87.2425 152.731 81.8706 146.227 81.8706C139.723 81.8706 134.445 87.2425 134.445 93.869C134.445 100.496 139.723 105.867 146.227 105.867Z" fill="white"/>
<path d="M165.479 114.802C168.226 114.802 170.455 112.531 170.455 109.733C170.455 106.935 168.226 104.664 165.479 104.664C162.732 104.664 160.504 106.935 160.504 109.733C160.504 112.538 162.732 114.802 165.479 114.802Z" fill="white"/>
<g opacity="0.6">
<path opacity="0.6" d="M183.282 84.2725C183.152 84.2725 183.023 84.2725 183.023 84.2725C182.237 84.1355 181.71 83.3423 181.847 82.4049C183.023 76.2687 187.998 70.4065 188.265 70.1397C188.791 69.4763 189.837 69.4763 190.363 70.0027C191.019 70.5363 191.019 71.6034 190.493 72.137C190.363 72.2668 185.777 77.7396 184.732 83.0683C184.595 83.8687 183.938 84.2725 183.282 84.2725Z" fill="url(#paint8_linear_1239_2)"/>
</g>
<path opacity="0.2" d="M118.61 195.07C120.636 195.07 122.273 193.397 122.273 191.335C122.273 189.273 120.629 187.6 118.61 187.6C116.584 187.6 114.947 189.273 114.947 191.335C114.947 193.397 116.584 195.07 118.61 195.07Z" fill="white"/>
<g opacity="0.4">
<path opacity="0.6" d="M116.512 193.744C115.07 192.28 115.07 189.879 116.512 188.408C116.771 188.141 117.038 188.011 117.298 187.745C116.771 187.882 116.382 188.141 115.986 188.545C114.543 190.009 114.543 192.41 115.986 193.881C117.161 195.078 119 195.345 120.434 194.544C119.129 195.078 117.557 194.811 116.512 193.744Z" fill="url(#paint9_linear_1239_2)"/>
</g>
<path opacity="0.3" d="M119.915 190.268C120.348 190.268 120.701 189.907 120.701 189.467C120.701 189.028 120.348 188.667 119.915 188.667C119.483 188.667 119.129 189.028 119.129 189.467C119.129 189.914 119.476 190.268 119.915 190.268Z" fill="white"/>
<path opacity="0.2" d="M137.725 193.203C139.752 193.203 141.388 191.53 141.388 189.468C141.388 187.405 139.744 185.732 137.725 185.732C135.699 185.732 134.063 187.405 134.063 189.468C134.062 191.53 135.707 193.203 137.725 193.203Z" fill="white"/>
<g opacity="0.4">
<path opacity="0.6" d="M135.627 191.876C134.185 190.412 134.185 188.011 135.627 186.54C135.887 186.274 136.154 186.144 136.413 185.877C135.887 186.014 135.497 186.274 135.101 186.677C133.659 188.141 133.659 190.542 135.101 192.013C136.276 193.21 138.115 193.477 139.55 192.677C138.245 193.21 136.673 192.943 135.627 191.876Z" fill="url(#paint10_linear_1239_2)"/>
</g>
<path opacity="0.3" d="M139.031 188.407C139.463 188.407 139.817 188.047 139.817 187.607C139.817 187.167 139.463 186.807 139.031 186.807C138.598 186.807 138.245 187.167 138.245 187.607C138.245 188.047 138.598 188.407 139.031 188.407Z" fill="white"/>
<path opacity="0.2" d="M128.294 201.869C129.816 201.869 131.041 200.615 131.041 199.072C131.041 197.529 129.808 196.274 128.294 196.274C126.773 196.274 125.547 197.529 125.547 199.072C125.547 200.615 126.773 201.869 128.294 201.869Z" fill="white"/>
<g opacity="0.4">
<path opacity="0.6" d="M126.722 200.81C125.677 199.743 125.677 197.875 126.722 196.808C126.852 196.671 127.111 196.541 127.248 196.404C126.859 196.541 126.592 196.808 126.333 197.068C125.287 198.135 125.287 200.002 126.333 201.07C127.248 202 128.561 202.137 129.736 201.473C128.683 201.877 127.508 201.61 126.722 200.81Z" fill="url(#paint11_linear_1239_2)"/>
</g>
<path opacity="0.3" d="M129.21 198.135C129.498 198.135 129.736 197.897 129.736 197.601C129.736 197.306 129.498 197.068 129.21 197.068C128.921 197.068 128.683 197.306 128.683 197.601C128.683 197.897 128.921 198.135 129.21 198.135Z" fill="white"/>
<path opacity="0.2" d="M145.181 199.873C146.703 199.873 147.929 198.618 147.929 197.075C147.929 195.532 146.696 194.277 145.181 194.277C143.667 194.277 142.434 195.532 142.434 197.075C142.434 198.618 143.667 199.873 145.181 199.873Z" fill="white"/>
<g opacity="0.4">
<path opacity="0.6" d="M143.617 198.805C142.571 197.738 142.571 195.87 143.617 194.803C143.746 194.666 144.006 194.537 144.143 194.407C143.754 194.544 143.487 194.803 143.227 195.07C142.182 196.137 142.182 198.005 143.227 199.072C144.143 200.002 145.455 200.139 146.631 199.469C145.578 199.872 144.402 199.606 143.617 198.805Z" fill="url(#paint12_linear_1239_2)"/>
</g>
<path opacity="0.3" d="M146.097 196.137C146.385 196.137 146.623 195.899 146.623 195.603C146.623 195.308 146.385 195.07 146.097 195.07C145.809 195.07 145.571 195.308 145.571 195.603C145.578 195.899 145.809 196.137 146.097 196.137Z" fill="white"/>
<path opacity="0.2" d="M103.021 193.736C106.345 193.736 109.042 190.989 109.042 187.6C109.042 184.211 106.345 181.464 103.021 181.464C99.6969 181.464 97.0001 184.211 97.0001 187.6C97.0001 190.989 99.6969 193.736 103.021 193.736Z" fill="white"/>
<g opacity="0.4">
<path opacity="0.6" d="M99.6248 191.472C97.2669 189.071 97.2669 185.206 99.6248 182.805C100.014 182.408 100.411 182.141 100.937 181.875C100.151 182.141 99.495 182.675 98.8388 183.208C96.481 185.61 96.481 189.474 98.8388 191.876C100.8 193.873 103.814 194.277 106.172 192.806C103.944 193.736 101.326 193.339 99.6248 191.472Z" fill="url(#paint13_linear_1239_2)"/>
</g>
<path opacity="0.3" d="M105.119 185.74C105.84 185.74 106.432 185.141 106.432 184.406C106.432 183.67 105.847 183.072 105.119 183.072C104.398 183.072 103.807 183.67 103.807 184.406C103.807 185.141 104.391 185.74 105.119 185.74Z" fill="white"/>
<path opacity="0.2" d="M156.841 178.673C160.165 178.673 162.862 175.926 162.862 172.537C162.862 169.148 160.165 166.401 156.841 166.401C153.517 166.401 150.82 169.148 150.82 172.537C150.82 175.926 153.51 178.673 156.841 178.673Z" fill="white"/>
<g opacity="0.4">
<path opacity="0.6" d="M153.3 176.402C150.943 174.001 150.943 170.136 153.3 167.735C153.69 167.331 154.086 167.071 154.613 166.805C153.827 167.071 153.171 167.605 152.514 168.139C150.157 170.54 150.157 174.405 152.514 176.806C154.476 178.803 157.49 179.207 159.848 177.736C157.62 178.673 155.132 178.27 153.3 176.402Z" fill="url(#paint14_linear_1239_2)"/>
</g>
<path opacity="0.3" d="M158.932 170.67C159.653 170.67 160.244 170.071 160.244 169.336C160.244 168.6 159.66 168.002 158.932 168.002C158.211 168.002 157.62 168.6 157.62 169.336C157.62 170.071 158.204 170.67 158.932 170.67Z" fill="white"/>
</g>
<defs>
<radialGradient id="paint0_radial_1239_2" cx="0" cy="0" r="1" gradientUnits="userSpaceOnUse" gradientTransform="translate(204.467 62.6752) scale(58.5204 59.5921)">
<stop stop-color="#FBEAF3" stop-opacity="0.6"/>
<stop offset="0.6807" stop-color="#A087BF"/>
<stop offset="1" stop-color="#17102E"/>
</radialGradient>
<radialGradient id="paint1_radial_1239_2" cx="0" cy="0" r="1" gradientUnits="userSpaceOnUse" gradientTransform="translate(171.909 88.0811) scale(143.178 145.8)">
<stop stop-color="#FBEAF3" stop-opacity="0.6"/>
<stop offset="0.6807" stop-color="#A087BF"/>
<stop offset="1" stop-color="#17102E"/>
</radialGradient>
<linearGradient id="paint2_linear_1239_2" x1="111.314" y1="212.985" x2="135.582" y2="65.9572" gradientUnits="userSpaceOnUse">
<stop stop-color="#9AD9E5"/>
<stop offset="0.6202" stop-color="white" stop-opacity="0"/>
</linearGradient>
<linearGradient id="paint3_linear_1239_2" x1="175.696" y1="89.5945" x2="114.17" y2="145.031" gradientUnits="userSpaceOnUse">
<stop offset="0.2888" stop-color="white"/>
<stop offset="0.7796" stop-color="white" stop-opacity="0"/>
</linearGradient>
<linearGradient id="paint4_linear_1239_2" x1="53.7916" y1="174.203" x2="192.974" y2="174.203" gradientUnits="userSpaceOnUse">
<stop stop-color="#384EA2"/>
<stop offset="0.9952" stop-color="#D54799"/>
</linearGradient>
<linearGradient id="paint5_linear_1239_2" x1="199.911" y1="145.434" x2="122.91" y2="216.896" gradientUnits="userSpaceOnUse">
<stop offset="0.2888" stop-color="white"/>
<stop offset="0.7796" stop-color="white" stop-opacity="0"/>
</linearGradient>
<linearGradient id="paint6_linear_1239_2" x1="53.7916" y1="174.203" x2="128.162" y2="174.203" gradientUnits="userSpaceOnUse">
<stop stop-color="#2B2F82"/>
<stop offset="0.9952" stop-color="#72439A"/>
</linearGradient>
<linearGradient id="paint7_linear_1239_2" x1="53.9439" y1="145.309" x2="192.847" y2="145.309" gradientUnits="userSpaceOnUse">
<stop stop-color="#2B2F82"/>
<stop offset="0.9952" stop-color="#A14298"/>
</linearGradient>
<linearGradient id="paint8_linear_1239_2" x1="190.751" y1="69.6035" x2="180.503" y2="85.9572" gradientUnits="userSpaceOnUse">
<stop offset="0.2888" stop-color="white"/>
<stop offset="0.7796" stop-color="white" stop-opacity="0"/>
</linearGradient>
<linearGradient id="paint9_linear_1239_2" x1="114.905" y1="191.37" x2="120.444" y2="191.37" gradientUnits="userSpaceOnUse">
<stop offset="0.2888" stop-color="white"/>
<stop offset="0.7796" stop-color="white" stop-opacity="0"/>
</linearGradient>
<linearGradient id="paint10_linear_1239_2" x1="134.004" y1="189.503" x2="139.544" y2="189.503" gradientUnits="userSpaceOnUse">
<stop offset="0.2888" stop-color="white"/>
<stop offset="0.7796" stop-color="white" stop-opacity="0"/>
</linearGradient>
<linearGradient id="paint11_linear_1239_2" x1="125.526" y1="199.149" x2="129.685" y2="199.149" gradientUnits="userSpaceOnUse">
<stop offset="0.2888" stop-color="white"/>
<stop offset="0.7796" stop-color="white" stop-opacity="0"/>
</linearGradient>
<linearGradient id="paint12_linear_1239_2" x1="142.361" y1="197.149" x2="146.52" y2="197.149" gradientUnits="userSpaceOnUse">
<stop offset="0.2888" stop-color="white"/>
<stop offset="0.7796" stop-color="white" stop-opacity="0"/>
</linearGradient>
<linearGradient id="paint13_linear_1239_2" x1="97.0084" y1="187.778" x2="106.055" y2="187.778" gradientUnits="userSpaceOnUse">
<stop offset="0.2888" stop-color="white"/>
<stop offset="0.7796" stop-color="white" stop-opacity="0"/>
</linearGradient>
<linearGradient id="paint14_linear_1239_2" x1="150.737" y1="172.712" x2="159.784" y2="172.712" gradientUnits="userSpaceOnUse">
<stop offset="0.2888" stop-color="white"/>
<stop offset="0.7796" stop-color="white" stop-opacity="0"/>
</linearGradient>
<clipPath id="clip0_1239_2">
<rect width="256" height="256" fill="white"/>
</clipPath>
</defs>
</svg>
