<svg width="256" height="256" viewBox="0 0 256 256" fill="none" xmlns="http://www.w3.org/2000/svg">
<g clip-path="url(#clip0_741_46)">
<path d="M256 128C256 198.692 198.692 256 128 256C57.3075 256 0 198.692 0 128C0 57.3075 57.3075 0 128 0C198.692 0 256 57.3075 256 128Z" fill="#FB5DEB"/>
<path fill-rule="evenodd" clip-rule="evenodd" d="M97.5935 108.143V194H68V107.663H68.0093C68.0923 97.2357 70.8785 87.0062 76.098 77.98C81.3977 68.8155 89.0179 61.2167 98.1879 55.9525C107.358 50.6882 117.752 47.9451 128.319 48.0008C138.886 48.0565 149.251 50.9091 158.365 56.2698C167.479 61.6305 175.02 69.3092 180.222 78.5291C185.426 87.749 188.108 98.1829 187.997 108.775C187.885 119.368 184.986 129.743 179.589 138.851C174.194 147.959 166.495 155.478 157.27 160.645L142.836 134.751C147.511 132.132 151.413 128.322 154.148 123.706C156.882 119.09 158.352 113.832 158.408 108.463C158.465 103.095 157.105 97.8071 154.469 93.1344C151.832 88.4617 148.01 84.5701 143.391 81.8532C138.772 79.1364 133.519 77.6908 128.163 77.6625C122.808 77.6342 117.54 79.0244 112.893 81.6924C108.245 84.3604 104.383 88.2116 101.698 92.8561C99.0117 97.5007 97.5972 102.774 97.5972 108.143H97.5935ZM147.584 164.993C144.366 166.106 141.059 166.943 137.699 167.494L132.918 138.223C134.62 137.943 136.296 137.519 137.927 136.954L147.584 164.993ZM107.676 164.728C110.874 165.882 114.164 166.762 117.511 167.358L122.686 138.154C120.99 137.852 119.322 137.406 117.701 136.821L107.676 164.728Z" fill="white"/>
</g>
<defs>
<clipPath id="clip0_741_46">
<rect width="256" height="256" fill="white"/>
</clipPath>
</defs>
</svg>
