<svg width="256" height="257" viewBox="0 0 256 257" fill="none" xmlns="http://www.w3.org/2000/svg">
<path d="M255.999 127.937C256.236 198.832 199.121 256.496 128.428 256.733C57.737 256.971 0.237867 199.692 0.000735726 128.797C-0.236395 57.9025 56.8787 0.238382 127.572 0.000735224C198.263 -0.236654 255.762 57.0422 255.999 127.937Z" fill="#030C17"/>
<path opacity="0.2" d="M208.049 208.113C251.957 163.761 251.743 92.2211 207.518 48.1884C163.291 4.15595 91.9556 4.36911 48.0503 48.7216L208.049 208.113Z" fill="white"/>
<path d="M140.011 116.849C138.735 116.635 137.565 116.316 136.395 116.102C120.661 112.904 109.284 110.665 109.284 99.6835C109.284 92.86 115.983 87.4226 127.997 87.4226C138.735 87.4226 147.238 91.7938 152.767 100.003L153.618 100.217L170.735 82.6248L170.627 81.9851C163.825 73.8823 155.213 68.2316 145.326 65.2463C143.944 64.8199 142.668 64.5 141.287 64.1802H141.179C140.648 64.0736 140.222 63.9669 139.691 63.8603V48.2944H116.303V63.8603C115.558 63.9669 114.813 64.1802 114.071 64.2868H113.963C102.908 66.9522 93.2316 72.7095 85.6846 81.5587C82.4962 86.8895 80.9009 93.2865 80.9009 100.643C80.9009 125.805 99.825 133.801 118.321 138.279C121.724 139.132 125.126 139.771 128.422 140.304C140.011 142.437 150.004 144.249 150.004 154.697C150.004 161.201 142.88 169.304 127.997 169.304C119.172 169.304 111.944 166.319 106.627 160.881C106.31 160.562 105.885 160.242 105.565 159.922L85.3651 173.995V174.742C88.2365 178.153 91.4249 181.138 94.8272 183.697C95.9974 184.55 97.1649 185.296 98.3351 186.043C98.3351 186.043 98.3352 186.043 98.4408 186.043C99.611 186.789 100.887 187.429 102.057 188.069C102.057 188.069 102.163 188.069 102.163 188.175C103.439 188.815 104.609 189.348 105.885 189.881C105.99 189.881 105.99 189.881 106.096 189.988C107.372 190.521 108.648 190.947 109.924 191.374C110.029 191.374 110.135 191.374 110.135 191.48C110.774 191.694 111.305 191.8 111.944 192.013C112.05 192.013 112.05 192.013 112.156 192.013C112.795 192.227 113.432 192.333 114.176 192.546C114.282 192.546 114.388 192.546 114.496 192.653C115.027 192.76 115.664 192.866 116.195 192.973V208.539H139.586V192.973C140.011 192.866 140.436 192.866 140.862 192.76C140.967 192.76 140.967 192.76 141.073 192.76C142.668 192.44 144.261 192.013 145.857 191.48C146.602 191.267 147.452 190.947 148.197 190.734C156.806 187.535 164.355 182.205 170.521 174.955C172.861 172.183 174.88 169.304 176.686 166.106C177.645 162.694 178.07 158.856 178.07 154.804C178.176 127.724 157.765 120.367 140.011 116.849Z" fill="#FAFBFC"/>
<path d="M85.4734 174.636C84.3032 173.25 83.2387 171.864 82.2825 170.371C81.8572 169.731 81.4319 169.092 81.0066 168.559C80.9009 168.452 80.7952 168.239 80.6869 168.132C80.3699 167.599 79.9447 166.959 79.625 166.32C79.5194 166.106 79.4136 165.893 79.3054 165.68C78.9883 165.147 78.6688 164.507 78.3492 163.974C78.2435 163.761 78.1378 163.548 78.0295 163.335C77.7125 162.801 77.3928 162.162 77.1789 161.522C77.0732 161.309 76.9676 160.989 76.8619 160.776C76.5423 160.136 76.3283 159.603 76.0113 158.963C75.903 158.75 75.7974 158.537 75.6918 158.217C75.4778 157.577 75.1608 156.937 74.9468 156.298C74.9468 156.191 74.8411 155.978 74.8411 155.871C74.3102 154.379 73.7791 152.886 73.3538 151.394C73.3538 151.287 73.2456 151.18 73.2456 150.967C73.1399 150.434 72.9286 149.901 72.8204 149.368C72.7147 148.941 72.609 148.515 72.5034 148.088C72.3951 147.555 72.2894 147.129 72.1837 146.596C72.078 146.169 71.9697 145.636 71.864 145.21C71.7584 144.677 71.6528 144.25 71.5445 143.717C71.4388 143.184 71.3332 142.651 71.2275 142.118C71.1193 141.691 71.1192 141.158 71.0136 140.732C70.9079 140.199 70.8021 139.666 70.8021 139.026C70.6939 138.6 70.6939 138.173 70.5882 137.64C70.4825 137 70.4826 136.467 70.3769 135.827C70.3769 135.401 70.2687 134.974 70.2687 134.548C70.2687 133.802 70.1629 133.162 70.1629 132.416C70.1629 132.096 70.1629 131.776 70.0572 131.349C70.0572 130.283 69.9517 129.217 69.9517 128.151C69.9517 127.085 69.9515 126.125 70.0572 125.059C70.0572 124.739 70.0572 124.42 70.0572 124.1C70.0572 123.353 70.1629 122.714 70.1629 121.967C70.1629 121.647 70.2687 121.221 70.2687 120.901C70.3769 120.261 70.3769 119.515 70.4826 118.875C70.4826 118.555 70.5882 118.236 70.5882 117.916C70.6939 117.063 70.8022 116.317 70.9078 115.57C70.9078 115.357 70.9079 115.144 71.0136 115.037C71.1192 114.078 71.3332 113.118 71.5445 112.159C71.6528 111.839 71.6528 111.519 71.7585 111.306C71.8641 110.666 72.078 110.026 72.1837 109.386C72.2894 109.067 72.3951 108.64 72.3951 108.32C72.5034 107.681 72.7147 107.148 72.8204 106.508C72.9286 106.188 73.0344 105.761 73.14 105.442C73.354 104.802 73.5653 104.162 73.671 103.523C73.7792 103.203 73.8848 102.99 73.9905 102.67C74.3101 101.817 74.6272 100.964 74.9468 100.111C75.0525 99.791 75.1607 99.5778 75.2664 99.258C75.4777 98.6182 75.6917 98.0852 76.0113 97.4455C76.1169 97.1256 76.3284 96.8058 76.4367 96.3793C76.648 95.8462 76.8619 95.4198 77.1789 94.8867C77.3928 94.5668 77.4986 94.1404 77.7125 93.8205C77.9239 93.2874 78.2434 92.861 78.4547 92.3279C78.6687 92.008 78.7744 91.6882 78.9884 91.3683C79.4137 90.622 79.8389 89.8757 80.2642 89.1294C79.3054 92.6477 78.8801 96.4859 78.8801 100.537C78.8801 114.397 84.7284 124.953 96.3169 132.096C96.9535 144.57 100.567 154.379 106.735 160.669L85.4734 174.636Z" fill="url(#paint0_linear_1831_624)"/>
<path d="M152.875 100.004C156.489 105.441 158.826 112.265 159.677 120.475C162.654 121.86 165.206 123.46 167.544 125.272C176.155 131.989 180.514 141.798 180.514 154.272C180.514 155.765 180.408 157.257 180.302 158.75V158.643C180.728 157.684 181.153 156.617 181.472 155.551C181.578 155.232 181.684 155.018 181.789 154.698C182.003 153.952 182.323 153.206 182.534 152.459C182.64 152.14 182.748 151.713 182.854 151.393C182.96 150.967 183.174 150.434 183.279 150.007C183.491 149.367 183.599 148.834 183.81 148.195C183.916 147.768 184.024 147.235 184.13 146.809C184.236 146.276 184.341 145.743 184.45 145.209C184.555 144.89 184.555 144.463 184.661 144.143C184.766 143.397 184.98 142.544 185.086 141.798C185.086 141.478 185.192 141.158 185.192 140.838C185.3 139.985 185.406 139.132 185.511 138.279C185.511 138.066 185.511 137.96 185.617 137.746C185.725 136.893 185.831 136.147 185.831 135.294C185.831 135.081 185.831 134.868 185.937 134.654C186.042 133.695 186.042 132.735 186.151 131.776C186.151 131.562 186.151 131.349 186.151 131.136C186.151 130.177 186.256 129.11 186.256 128.151C186.256 127.085 186.256 126.019 186.151 124.846C186.151 124.526 186.151 124.206 186.042 123.779C186.042 123.033 185.937 122.287 185.937 121.647C185.937 121.221 185.831 120.794 185.831 120.368C185.725 119.728 185.725 119.088 185.617 118.449C185.617 118.022 185.511 117.596 185.406 117.063C185.3 116.423 185.3 115.89 185.192 115.25C185.086 114.824 185.086 114.291 184.98 113.864C184.875 113.331 184.766 112.691 184.661 112.158C184.555 111.732 184.449 111.199 184.341 110.772C184.235 110.239 184.13 109.706 184.024 109.173C183.916 108.747 183.81 108.214 183.705 107.787C183.599 107.254 183.385 106.721 183.279 106.188C183.174 105.761 183.065 105.228 182.854 104.802C182.748 104.269 182.534 103.842 182.429 103.309C182.323 102.883 182.109 102.35 182.003 101.923C181.789 101.39 181.684 100.964 181.472 100.537C181.258 100.111 181.153 99.5776 180.939 99.1511C180.728 98.7247 180.622 98.1916 180.408 97.7651C180.196 97.3386 179.983 96.8055 179.877 96.3791C179.666 95.9526 179.452 95.5261 179.24 95.0997C179.026 94.6732 178.815 94.2468 178.601 93.7137C178.39 93.2872 178.176 92.8607 177.964 92.4343C177.75 92.0078 177.539 91.5813 177.219 91.1549C177.006 90.7284 176.794 90.3019 176.475 89.9821C176.263 89.5556 175.944 89.1292 175.73 88.7027C175.518 88.2763 175.199 87.9564 174.987 87.5299C174.243 86.3571 173.392 85.1844 172.541 84.0116C171.905 83.1587 171.266 82.4123 170.629 81.666L152.875 100.004Z" fill="url(#paint1_linear_1831_624)"/>
<defs>
<linearGradient id="paint0_linear_1831_624" x1="106.934" y1="134.512" x2="56.9481" y2="97.404" gradientUnits="userSpaceOnUse">
<stop offset="0.00058093" stop-color="white"/>
<stop offset="1" stop-color="#1E313F"/>
</linearGradient>
<linearGradient id="paint1_linear_1831_624" x1="150.447" y1="115.761" x2="196.613" y2="151.651" gradientUnits="userSpaceOnUse">
<stop offset="0.00058093" stop-color="white"/>
<stop offset="0.9967" stop-color="#4E5A64"/>
</linearGradient>
</defs>
</svg>
