<svg width="256" height="256" viewBox="0 0 256 256" fill="none" xmlns="http://www.w3.org/2000/svg">
<path d="M128.858 0.000706881C154.137 0.170258 178.8 7.82126 199.736 21.9889C220.672 36.1565 236.945 56.2063 246.501 79.6098C256.058 103.013 258.47 128.723 253.435 153.496C248.399 178.269 236.141 200.996 218.207 218.811C200.272 236.627 177.463 248.733 152.657 253.602C127.852 258.472 102.159 255.888 78.8203 246.175C55.4813 236.462 35.5409 220.056 21.5137 199.025C7.48647 177.995 0.000568594 153.281 0 128.002C0.114758 93.9402 13.7551 61.3192 37.9206 37.3146C62.086 13.3099 94.7972 -0.112222 128.858 0.000706881Z" fill="#2F323C"/>
<path d="M204 194.5V61.5C204 56.275 199.725 52 194.5 52H61.5C56.275 52 52 56.275 52 61.5V194.5C52 199.725 56.275 204 61.5 204H194.5C199.725 204 204 199.725 204 194.5ZM194.5 194.5H61.5V61.5H194.5V194.5ZM78.125 71H177.875C181.77 71 185 74.23 185 78.125V90H175.5V118.5H185V137.5H175.5V166H185V177.875C185 181.77 181.77 185 177.875 185H78.125C74.23 185 71 181.77 71 177.875V78.125C71 74.23 74.23 71 78.125 71ZM156.5 128C156.5 107.005 139.495 90 118.5 90C97.505 90 80.5 107.005 80.5 128C80.5 148.995 97.505 166 118.5 166C139.495 166 156.5 148.995 156.5 128ZM118.5 99.5L125.815 110.425C132.655 113.37 137.5 120.115 137.5 128C137.5 138.45 128.95 147 118.5 147C108.05 147 99.5 138.45 99.5 128C99.5 120.115 104.345 113.37 111.185 110.425L118.5 99.5Z" fill="#F4610E"/>
</svg>
