<svg width="308" height="308" viewBox="0 0 308 308" fill="none" xmlns="http://www.w3.org/2000/svg">
<g clip-path="url(#clip0_1329_1684)">
<path d="M308 154C308 68.9481 239.052 0 154 0C68.9481 0 0 68.9481 0 154C0 239.052 68.9481 308 154 308C239.052 308 308 239.052 308 154Z" fill="#15141D"/>
<path fill-rule="evenodd" clip-rule="evenodd" d="M218.21 89.7898H102.319V61.6001H218.21C233.777 61.6001 246.397 74.2177 246.4 89.7833H218.217V89.7898H218.21ZM218.217 99.1865H218.21V218.21V218.217H218.217V246.4C233.782 246.397 246.4 233.777 246.4 218.21V102.312H218.217V99.1865ZM208.814 218.21V218.217H205.688V246.4H89.7897C74.221 246.4 61.6 233.779 61.6 218.21H89.7897H208.814ZM89.7897 61.6001V89.7898V205.681H61.6V89.7898C61.6 74.2212 74.221 61.6001 89.7897 61.6001Z" fill="url(#paint0_linear_1329_1684)"/>
<path fill-rule="evenodd" clip-rule="evenodd" d="M148.874 117.981C147.386 117.981 146.179 119.188 146.179 120.676V143.036H123.82C122.331 143.036 121.125 144.243 121.125 145.731V159.135C121.125 160.623 122.331 161.83 123.82 161.83H146.179V184.195C146.179 185.683 147.386 186.89 148.874 186.89H162.278C163.766 186.89 164.973 185.683 164.973 184.195V161.83H187.338C188.826 161.83 190.033 160.623 190.033 159.135V145.731C190.033 144.243 188.826 143.036 187.338 143.036H164.973V120.676C164.973 119.188 163.766 117.981 162.278 117.981H148.874Z" fill="url(#paint1_linear_1329_1684)"/>
</g>
<defs>
<linearGradient id="paint0_linear_1329_1684" x1="61.6" y1="61.6001" x2="250.365" y2="65.7431" gradientUnits="userSpaceOnUse">
<stop stop-color="#3EB1FE"/>
<stop offset="1" stop-color="#0678C4" stop-opacity="0.9917"/>
</linearGradient>
<linearGradient id="paint1_linear_1329_1684" x1="121.125" y1="117.981" x2="191.512" y2="119.526" gradientUnits="userSpaceOnUse">
<stop stop-color="#3EB1FE"/>
<stop offset="1" stop-color="#0678C4" stop-opacity="0.9917"/>
</linearGradient>
<clipPath id="clip0_1329_1684">
<rect width="308" height="308" fill="white"/>
</clipPath>
</defs>
</svg>
