<svg width="256" height="256" viewBox="0 0 256 256" fill="none" xmlns="http://www.w3.org/2000/svg">
<mask id="mask0_1984_980" style="mask-type:luminance" maskUnits="userSpaceOnUse" x="1" y="1" width="254" height="254">
<path d="M254.093 128C254.093 58.3611 197.639 1.90771 128 1.90771C58.3616 1.90771 1.9082 58.3611 1.9082 128C1.9082 197.639 58.3616 254.092 128 254.092C197.639 254.092 254.093 197.639 254.093 128Z" fill="white"/>
</mask>
<g mask="url(#mask0_1984_980)">
<path d="M254.093 128C254.093 58.3611 197.639 1.90771 128 1.90771C58.3616 1.90771 1.9082 58.3611 1.9082 128C1.9082 197.639 58.3616 254.092 128 254.092C197.639 254.092 254.093 197.639 254.093 128Z" fill="black"/>
</g>
<mask id="mask1_1984_980" style="mask-type:luminance" maskUnits="userSpaceOnUse" x="1" y="1" width="254" height="254">
<path d="M254.093 128C254.093 58.3611 197.639 1.90771 128 1.90771C58.3616 1.90771 1.9082 58.3611 1.9082 128C1.9082 197.639 58.3616 254.092 128 254.092C197.639 254.092 254.093 197.639 254.093 128Z" fill="white"/>
</mask>
<g mask="url(#mask1_1984_980)">
<path d="M128 254.092C197.639 254.092 254.093 197.639 254.093 128C254.093 58.3611 197.639 1.90771 128 1.90771C58.3616 1.90771 1.9082 58.3611 1.9082 128C1.9082 197.639 58.3616 254.092 128 254.092Z" fill="black"/>
</g>
<mask id="mask2_1984_980" style="mask-type:luminance" maskUnits="userSpaceOnUse" x="1" y="1" width="254" height="254">
<path d="M254.093 128C254.093 58.3611 197.639 1.90771 128 1.90771C58.3616 1.90771 1.9082 58.3611 1.9082 128C1.9082 197.639 58.3616 254.092 128 254.092C197.639 254.092 254.093 197.639 254.093 128Z" fill="white"/>
</mask>
<g mask="url(#mask2_1984_980)">
<path d="M128 251.468C196.19 251.468 251.468 196.19 251.468 128C251.468 59.8107 196.19 4.53223 128 4.53223C59.8107 4.53223 4.53223 59.8107 4.53223 128C4.53223 196.19 59.8107 251.468 128 251.468Z" stroke="white" stroke-opacity="0.15" stroke-width="7"/>
</g>
<mask id="mask3_1984_980" style="mask-type:luminance" maskUnits="userSpaceOnUse" x="1" y="1" width="254" height="254">
<path d="M254.093 128C254.093 58.3611 197.639 1.90771 128 1.90771C58.3616 1.90771 1.9082 58.3611 1.9082 128C1.9082 197.639 58.3616 254.092 128 254.092C197.639 254.092 254.093 197.639 254.093 128Z" fill="white"/>
</mask>
<g mask="url(#mask3_1984_980)">
<path fill-rule="evenodd" clip-rule="evenodd" d="M106.549 96.9889C108.645 94.1439 106.415 90.4794 103.286 90.4794C102.813 90.4794 102.309 90.5582 101.797 90.7473C97.0624 92.5054 92.0248 93.3009 86.9791 93.0873C81.9334 92.8737 76.981 91.6552 72.4122 89.5033C67.8434 87.3513 63.75 84.3092 60.3718 80.5552C56.9937 76.8011 54.3987 72.4106 52.739 67.6409C52.4752 66.8464 51.9643 66.1571 51.2809 65.6736C50.5975 65.1901 49.7774 64.9378 48.9404 64.9536C48.0227 64.9337 47.1258 65.2286 46.3989 65.7892C45.672 66.3498 45.1589 67.1423 44.9449 68.035C44.1253 71.3764 43.7943 74.8912 44.015 78.5164C45.0867 96.0984 59.5401 110.26 77.1221 111.025C82.8037 111.28 88.461 110.134 93.5955 107.688C98.7299 105.242 103.184 101.57 106.565 96.9968L106.557 96.9889H106.549ZM78.6509 104.413C78.2254 104.413 77.8156 104.413 77.3979 104.381C63.4253 103.774 51.7775 92.5047 50.6663 78.6109C55.2233 85.9708 61.8224 91.8466 69.6596 95.5224C77.4968 99.1983 86.2339 100.516 94.8065 99.3137C90.1569 102.616 84.5615 104.413 78.6509 104.413Z" fill="url(#paint0_linear_1984_980)"/>
</g>
<mask id="mask4_1984_980" style="mask-type:luminance" maskUnits="userSpaceOnUse" x="1" y="1" width="254" height="254">
<path d="M254.093 128C254.093 58.3611 197.639 1.90771 128 1.90771C58.3616 1.90771 1.9082 58.3611 1.9082 128C1.9082 197.639 58.3616 254.092 128 254.092C197.639 254.092 254.093 197.639 254.093 128Z" fill="white"/>
</mask>
<g mask="url(#mask4_1984_980)">
<path d="M170.533 114.201H170.296C163.852 114.334 157.541 116.063 151.928 119.232C146.315 122.402 141.575 126.913 138.132 132.362C134.689 137.812 132.651 144.029 132.199 150.459C131.747 156.889 132.895 163.331 135.542 169.208V169.224C137.418 173.369 139.987 177.121 143.123 180.336C143.565 180.73 143.959 181.124 144.337 181.55L144.4 181.605C146.449 183.89 147.631 186.609 147.631 189.517C147.631 197.697 138.261 204.325 126.708 204.325C115.154 204.325 105.784 197.697 105.784 189.517C105.784 186.459 107.1 183.607 109.354 181.242C112.912 177.807 115.786 173.729 117.826 169.224C120.476 163.346 121.628 156.903 121.177 150.47C120.727 144.038 118.689 137.818 115.246 132.367C111.802 126.915 107.061 122.402 101.446 119.232C95.8316 116.062 89.5184 114.333 83.0719 114.201H82.8354C82.3934 114.214 81.9585 114.315 81.5565 114.499C81.1544 114.684 80.7935 114.947 80.4951 115.273C80.1967 115.599 79.9668 115.982 79.8192 116.399C79.6716 116.816 79.6093 117.258 79.6359 117.7C79.7383 119.489 81.3381 120.828 83.127 120.828C85.0578 120.828 86.6182 122.389 86.6182 124.32V145.937C86.6326 147.763 87.3392 149.517 88.5955 150.843C89.8518 152.17 91.5643 152.971 93.3878 153.084C96.1133 153.406 98.7027 154.452 100.886 156.115C103.069 157.778 104.766 159.996 105.8 162.539C106.833 165.081 107.166 167.854 106.762 170.569C106.359 173.283 105.235 175.84 103.507 177.972L103.381 178.129L103.223 178.319L103.073 178.516C102.885 178.753 102.706 178.997 102.537 179.249C102.277 179.595 102.057 179.958 101.828 180.312C101.304 181.155 100.853 182.041 100.48 182.96L100.323 183.354L100.291 183.457C100.235 183.585 100.188 183.716 100.149 183.851L100.11 183.93L99.9998 184.261C99.8623 184.647 99.7517 185.042 99.6688 185.443C99.5348 185.955 99.4323 186.475 99.3535 187.011L99.2747 187.61L99.2038 188.343C99.1644 188.737 99.1565 189.131 99.1565 189.525C99.1565 201.37 111.49 210.969 126.716 210.969C141.949 210.969 154.282 201.37 154.282 189.533C154.282 185.072 152.525 180.911 149.507 177.475C147.083 174.255 146.035 170.206 146.591 166.214C147.061 162.823 148.653 159.687 151.112 157.307C153.572 154.926 156.757 153.437 160.162 153.077C161.954 152.926 163.625 152.112 164.849 150.795C166.073 149.477 166.762 147.751 166.781 145.952V124.327C166.781 122.397 168.342 120.836 170.265 120.836C172.054 120.836 173.653 119.497 173.764 117.716C173.79 117.273 173.728 116.83 173.58 116.412C173.432 115.994 173.201 115.61 172.902 115.283C172.603 114.956 172.241 114.692 171.838 114.508C171.435 114.323 170.999 114.221 170.556 114.209L170.533 114.201Z" fill="url(#paint1_linear_1984_980)"/>
</g>
<mask id="mask5_1984_980" style="mask-type:luminance" maskUnits="userSpaceOnUse" x="1" y="1" width="254" height="254">
<path d="M254.093 128C254.093 58.3611 197.639 1.90771 128 1.90771C58.3616 1.90771 1.9082 58.3611 1.9082 128C1.9082 197.639 58.3616 254.092 128 254.092C197.639 254.092 254.093 197.639 254.093 128Z" fill="white"/>
</mask>
<g mask="url(#mask5_1984_980)">
<path d="M137.828 185.924C137.944 185.799 138.085 185.699 138.241 185.629C138.397 185.56 138.565 185.522 138.736 185.519C138.907 185.516 139.077 185.547 139.235 185.61C139.394 185.674 139.538 185.768 139.659 185.889C139.781 186.009 139.877 186.152 139.942 186.31C140.006 186.468 140.039 186.638 140.037 186.809C140.035 186.979 139.999 187.148 139.931 187.305C139.863 187.461 139.764 187.603 139.64 187.72L137.828 189.533L139.64 191.338C139.881 191.578 140.016 191.904 140.016 192.244C140.016 192.584 139.881 192.91 139.64 193.15C139.4 193.391 139.074 193.526 138.734 193.526C138.394 193.526 138.068 193.391 137.828 193.15L136.015 191.338L134.21 193.15C134.091 193.269 133.95 193.364 133.795 193.428C133.639 193.493 133.472 193.526 133.304 193.526C133.136 193.526 132.969 193.493 132.814 193.428C132.658 193.364 132.517 193.269 132.398 193.15C132.279 193.031 132.184 192.89 132.12 192.735C132.056 192.579 132.022 192.412 132.022 192.244C132.022 192.076 132.056 191.909 132.12 191.754C132.184 191.598 132.279 191.457 132.398 191.338L134.21 189.525L132.398 187.72C132.279 187.601 132.185 187.46 132.122 187.305C132.058 187.15 132.025 186.983 132.025 186.815C132.026 186.647 132.059 186.481 132.124 186.326C132.188 186.171 132.283 186.03 132.402 185.912C132.521 185.793 132.662 185.699 132.817 185.636C132.973 185.572 133.139 185.539 133.307 185.539C133.475 185.54 133.641 185.573 133.796 185.638C133.951 185.702 134.092 185.797 134.21 185.916L136.023 187.728L137.828 185.924Z" fill="url(#paint2_linear_1984_980)"/>
</g>
<mask id="mask6_1984_980" style="mask-type:luminance" maskUnits="userSpaceOnUse" x="1" y="1" width="254" height="254">
<path d="M254.093 128C254.093 58.3611 197.639 1.90771 128 1.90771C58.3616 1.90771 1.9082 58.3611 1.9082 128C1.9082 197.639 58.3616 254.092 128 254.092C197.639 254.092 254.093 197.639 254.093 128Z" fill="white"/>
</mask>
<g mask="url(#mask6_1984_980)">
<path d="M117.479 193.607C118.562 193.607 119.602 193.177 120.368 192.411C121.134 191.644 121.565 190.605 121.565 189.521C121.565 188.438 121.134 187.398 120.368 186.632C119.602 185.866 118.562 185.435 117.479 185.435C116.395 185.435 115.356 185.866 114.589 186.632C113.823 187.398 113.393 188.438 113.393 189.521C113.393 190.605 113.823 191.644 114.589 192.411C115.356 193.177 116.395 193.607 117.479 193.607Z" fill="url(#paint3_linear_1984_980)"/>
</g>
<mask id="mask7_1984_980" style="mask-type:luminance" maskUnits="userSpaceOnUse" x="1" y="1" width="254" height="254">
<path d="M254.093 128.001C254.093 58.3621 197.639 1.90869 128 1.90869C58.3616 1.90869 1.9082 58.3621 1.9082 128.001C1.9082 197.64 58.3616 254.093 128 254.093C197.639 254.093 254.093 197.64 254.093 128.001Z" fill="white"/>
</mask>
<g mask="url(#mask7_1984_980)">
<path fill-rule="evenodd" clip-rule="evenodd" d="M204.444 64.9549C205.36 64.9368 206.255 65.2325 206.98 65.793C207.706 66.3534 208.218 67.1449 208.431 68.0363C209.259 71.3698 209.59 74.8768 209.369 78.5177C208.297 96.0918 193.844 110.261 176.262 111.018C175.75 111.034 175.237 111.049 174.733 111.049C163.298 111.049 153.156 105.525 146.835 96.9981C144.723 94.1531 146.961 90.4728 150.098 90.4728C150.571 90.4728 151.075 90.5516 151.587 90.7565C156.321 92.5119 161.358 93.3052 166.402 93.0898C171.446 92.8744 176.397 91.6548 180.964 89.5022C185.531 87.3497 189.623 84.3076 193 80.554C196.376 76.8004 198.97 72.4108 200.629 67.6422C200.895 66.8471 201.407 66.1575 202.092 65.6741C202.776 65.1907 203.598 64.9387 204.436 64.9549H204.444ZM174.733 104.422C175.135 104.422 175.561 104.414 175.978 104.39C189.959 103.791 201.599 92.5218 202.71 78.6201C198.155 85.9829 191.557 91.8614 183.719 95.5389C175.882 99.2163 167.143 100.534 158.57 99.3308C163.219 102.625 168.823 104.422 174.733 104.422Z" fill="url(#paint4_linear_1984_980)"/>
</g>
<mask id="mask8_1984_980" style="mask-type:luminance" maskUnits="userSpaceOnUse" x="1" y="1" width="254" height="254">
<path d="M254.093 128C254.093 58.3611 197.639 1.90771 128 1.90771C58.3616 1.90771 1.9082 58.3611 1.9082 128C1.9082 197.639 58.3616 254.092 128 254.092C197.639 254.092 254.093 197.639 254.093 128Z" fill="white"/>
</mask>
<g mask="url(#mask8_1984_980)">
<path d="M127.031 103.609C128.489 107.415 131.508 110.434 135.322 111.884C135.637 112.01 135.637 112.451 135.322 112.577C133.436 113.298 131.723 114.408 130.294 115.835C128.866 117.263 127.754 118.975 127.031 120.86C127.004 120.928 126.956 120.986 126.895 121.027C126.834 121.068 126.762 121.09 126.689 121.09C126.615 121.09 126.543 121.068 126.482 121.027C126.421 120.986 126.374 120.928 126.346 120.86C125.624 118.975 124.513 117.264 123.086 115.837C121.659 114.41 119.948 113.299 118.063 112.577C117.995 112.55 117.937 112.502 117.896 112.441C117.855 112.38 117.833 112.308 117.833 112.235C117.833 112.161 117.855 112.089 117.896 112.028C117.937 111.967 117.995 111.92 118.063 111.892C119.949 111.173 121.661 110.064 123.087 108.636C124.514 107.209 125.621 105.495 126.338 103.609C126.366 103.541 126.413 103.483 126.474 103.442C126.535 103.401 126.607 103.379 126.681 103.379C126.754 103.379 126.826 103.401 126.887 103.442C126.948 103.483 127.004 103.541 127.031 103.609Z" fill="url(#paint5_linear_1984_980)"/>
</g>
<defs>
<linearGradient id="paint0_linear_1984_980" x1="43.9361" y1="64.9536" x2="232.46" y2="169.421" gradientUnits="userSpaceOnUse">
<stop stop-color="#FFA7A5"/>
<stop offset="0.825" stop-color="#C8FB7C"/>
</linearGradient>
<linearGradient id="paint1_linear_1984_980" x1="43.936" y1="64.9538" x2="232.46" y2="169.421" gradientUnits="userSpaceOnUse">
<stop stop-color="#FFA7A5"/>
<stop offset="0.825" stop-color="#C8FB7C"/>
</linearGradient>
<linearGradient id="paint2_linear_1984_980" x1="43.9362" y1="64.954" x2="232.46" y2="169.421" gradientUnits="userSpaceOnUse">
<stop stop-color="#FFA7A5"/>
<stop offset="0.825" stop-color="#C8FB7C"/>
</linearGradient>
<linearGradient id="paint3_linear_1984_980" x1="43.9354" y1="64.9538" x2="232.459" y2="169.421" gradientUnits="userSpaceOnUse">
<stop stop-color="#FFA7A5"/>
<stop offset="0.825" stop-color="#C8FB7C"/>
</linearGradient>
<linearGradient id="paint4_linear_1984_980" x1="43.936" y1="64.9549" x2="232.46" y2="169.422" gradientUnits="userSpaceOnUse">
<stop stop-color="#FFA7A5"/>
<stop offset="0.825" stop-color="#C8FB7C"/>
</linearGradient>
<linearGradient id="paint5_linear_1984_980" x1="43.9366" y1="64.9539" x2="232.46" y2="169.421" gradientUnits="userSpaceOnUse">
<stop stop-color="#FFA7A5"/>
<stop offset="0.825" stop-color="#C8FB7C"/>
</linearGradient>
</defs>
</svg>
