<svg width="256" height="256" viewBox="0 0 256 256" fill="none" xmlns="http://www.w3.org/2000/svg">
<mask id="mask0_3150_2676" style="mask-type:alpha" maskUnits="userSpaceOnUse" x="0" y="0" width="256" height="256">
<path d="M1.26148 110.188C11.0988 40.1923 75.8164 -8.57578 145.812 1.26146C215.808 11.0987 264.577 75.8162 254.738 145.812C244.902 215.807 180.184 264.576 110.188 254.739C40.1924 244.901 -8.57585 180.184 1.26148 110.188Z" fill="#F2F3F7"/>
</mask>
<g mask="url(#mask0_3150_2676)">
<path d="M1.26148 110.188C11.0988 40.1923 75.8164 -8.57578 145.812 1.26146C215.808 11.0987 264.577 75.8162 254.738 145.812C244.902 215.807 180.184 264.576 110.188 254.739C40.1924 244.901 -8.57585 180.184 1.26148 110.188Z" fill="#F2F3F7"/>
<path d="M0 128V256H128H256V128V-3.8147e-06H128H0V128ZM142.4 34.4C148.8 42.4 148.8 52.8 142.4 74.4C131.2 111.2 124.8 111.2 114.4 76.8C102.4 37.6 121.6 8.8 142.4 34.4ZM104 75.2C104 80.8 96.8 92 88 100C65.6 120 68 128.8 100 160L128 187.2L157.6 157.6L187.2 128.8L169.6 109.6C151.2 90.4 146.4 68 159.2 60C168.8 54.4 216 111.2 216 128.8C216 142.4 177.6 184 146.4 205.6C133.6 213.6 124.8 215.2 113.6 208.8C95.2 199.2 40 139.2 40 128.8C40 124.8 52 107.2 66.4 89.6C91.2 59.2 104 54.4 104 75.2Z" fill="black"/>
</g>
</svg>
