<svg width="256" height="256" viewBox="0 0 256 256" fill="none" xmlns="http://www.w3.org/2000/svg">
<g clip-path="url(#clip0_2572_4134)">
<mask id="mask0_2572_4134" style="mask-type:luminance" maskUnits="userSpaceOnUse" x="0" y="0" width="256" height="256">
<path d="M256 0H0V256H256V0Z" fill="white"/>
</mask>
<g mask="url(#mask0_2572_4134)">
<path fill-rule="evenodd" clip-rule="evenodd" d="M95.7144 -0.285767C117.048 -0.285767 138.382 -0.285767 159.714 -0.285767C159.714 2.3809 159.714 5.04757 159.714 7.71423C157.048 7.71423 154.382 7.71423 151.714 7.71423C135.714 7.71423 119.714 7.71423 103.714 7.71423C101.048 7.71423 98.3816 7.71423 95.7144 7.71423C95.7144 5.04757 95.7144 2.3809 95.7144 -0.285767Z" fill="#E18D02"/>
<path fill-rule="evenodd" clip-rule="evenodd" d="M95.7144 7.71423C95.7144 10.3809 95.7144 13.0476 95.7144 15.7142C93.0477 15.7142 90.3816 15.7142 87.7144 15.7142C85.0477 15.7142 82.3816 15.7142 79.7144 15.7142C79.7144 13.0476 79.7144 10.3809 79.7144 7.71423C85.0477 7.71423 90.3816 7.71423 95.7144 7.71423Z" fill="#E18D02"/>
<path fill-rule="evenodd" clip-rule="evenodd" d="M95.7144 7.71423C98.3816 7.71423 101.048 7.71423 103.714 7.71423C103.714 10.3809 103.714 13.0476 103.714 15.7142C101.048 15.7142 98.3816 15.7142 95.7144 15.7142C95.7144 13.0476 95.7144 10.3809 95.7144 7.71423Z" fill="#F7F335"/>
<path fill-rule="evenodd" clip-rule="evenodd" d="M103.714 7.71423C119.714 7.71423 135.714 7.71423 151.714 7.71423C151.714 10.3809 151.714 13.0476 151.714 15.7142C154.381 15.7142 157.047 15.7142 159.714 15.7142C165.047 15.7142 170.381 15.7142 175.714 15.7142C175.714 18.3809 175.714 21.0476 175.714 23.7142C178.381 23.7142 181.047 23.7142 183.714 23.7142C186.381 23.7142 189.047 23.7142 191.714 23.7142C191.714 26.3809 191.714 29.0476 191.714 31.7142C191.714 34.3809 191.714 37.0476 191.714 39.7142C189.047 39.7142 186.381 39.7142 183.714 39.7142C183.714 42.3809 183.714 45.0476 183.714 47.7142C181.047 47.7142 178.381 47.7142 175.714 47.7142C170.381 47.7142 165.047 47.7142 159.714 47.7142C159.714 45.0476 159.714 42.3809 159.714 39.7142C138.381 39.7142 117.047 39.7142 95.7141 39.7142C95.7141 42.3809 95.7141 45.0476 95.7141 47.7142C90.3813 47.7142 85.0475 47.7142 79.7141 47.7142C79.7141 50.3809 79.7141 53.0476 79.7141 55.7142C74.3813 55.7142 69.0475 55.7142 63.7141 55.7142C63.7141 61.0475 63.7141 66.3808 63.7141 71.7142C61.0475 71.7142 58.3813 71.7142 55.7141 71.7142C55.7141 74.3808 55.7141 77.0475 55.7141 79.7142C53.0477 79.7142 50.3811 79.7142 47.7144 79.7142C47.7144 85.0475 47.7144 90.3809 47.7144 95.7142C45.0477 95.7142 42.3811 95.7142 39.7144 95.7142C39.7144 117.048 39.7144 138.381 39.7144 159.714C42.3811 159.714 45.0477 159.714 47.7144 159.714C47.7144 165.048 47.7144 170.381 47.7144 175.714C47.7144 178.381 47.7144 181.048 47.7144 183.714C45.0477 183.714 42.3811 183.714 39.7144 183.714C39.7144 186.381 39.7144 189.048 39.7144 191.714C37.0477 191.714 34.3811 191.714 31.7144 191.714C29.0477 191.714 26.3811 191.714 23.7144 191.714C23.7144 189.048 23.7144 186.381 23.7144 183.714C21.0477 183.714 18.3811 183.714 15.7144 183.714C15.7144 175.714 15.7144 167.714 15.7144 159.714C13.0477 159.714 10.3811 159.714 7.71436 159.714C7.71436 138.381 7.71436 117.048 7.71436 95.7142C10.3811 95.7142 13.0477 95.7142 15.7144 95.7142C15.7144 93.0475 15.7144 90.3808 15.7144 87.7142C18.3811 87.7142 21.0477 87.7142 23.7144 87.7142C23.7144 85.0475 23.7144 82.3808 23.7144 79.7142C26.3811 79.7142 29.0477 79.7142 31.7144 79.7142C31.7144 74.3808 31.7144 69.0475 31.7144 63.7142C37.0477 63.7142 42.3811 63.7142 47.7144 63.7142C47.7144 61.0475 47.7144 58.3808 47.7144 55.7142C50.3811 55.7142 53.0477 55.7142 55.7141 55.7142C55.7141 53.0476 55.7141 50.3809 55.7141 47.7142C58.3813 47.7142 61.0475 47.7142 63.7141 47.7142C63.7141 45.0476 63.7141 42.3809 63.7141 39.7142C66.3813 39.7142 69.0475 39.7142 71.7141 39.7142C71.7141 34.3809 71.7141 29.0476 71.7141 23.7142C74.3813 23.7142 77.0475 23.7142 79.7141 23.7142C82.3813 23.7142 85.0475 23.7142 87.7141 23.7142C87.7141 21.0476 87.7141 18.3809 87.7141 15.7142C90.3813 15.7142 93.0475 15.7142 95.7141 15.7142C98.3813 15.7142 101.047 15.7142 103.714 15.7142C103.714 13.0476 103.714 10.3809 103.714 7.71423Z" fill="#FDD701"/>
<path fill-rule="evenodd" clip-rule="evenodd" d="M151.714 7.71423C154.382 7.71423 157.048 7.71423 159.714 7.71423C159.714 10.3809 159.714 13.0476 159.714 15.7142C157.048 15.7142 154.382 15.7142 151.714 15.7142C151.714 13.0476 151.714 10.3809 151.714 7.71423Z" fill="#F7F335"/>
<path fill-rule="evenodd" clip-rule="evenodd" d="M159.714 7.71423C167.714 7.71423 175.714 7.71423 183.714 7.71423C183.714 10.3809 183.714 13.0476 183.714 15.7142C181.048 15.7142 178.382 15.7142 175.714 15.7142C170.382 15.7142 165.048 15.7142 159.714 15.7142C159.714 13.0476 159.714 10.3809 159.714 7.71423Z" fill="#E18D02"/>
<path fill-rule="evenodd" clip-rule="evenodd" d="M79.7144 15.7142C79.7144 18.3809 79.7144 21.0476 79.7144 23.7142C77.0477 23.7142 74.3816 23.7142 71.7144 23.7142C69.0477 23.7142 66.3816 23.7142 63.7144 23.7142C63.7144 21.0476 63.7144 18.3809 63.7144 15.7142C69.0477 15.7142 74.3816 15.7142 79.7144 15.7142Z" fill="#E18D02"/>
<path fill-rule="evenodd" clip-rule="evenodd" d="M79.7144 15.7142C82.3816 15.7142 85.0477 15.7142 87.7144 15.7142C87.7144 18.3809 87.7144 21.0476 87.7144 23.7142C85.0477 23.7142 82.3816 23.7142 79.7144 23.7142C79.7144 21.0476 79.7144 18.3809 79.7144 15.7142Z" fill="#F7F335"/>
<path fill-rule="evenodd" clip-rule="evenodd" d="M175.714 15.7142C178.382 15.7142 181.048 15.7142 183.714 15.7142C183.714 18.3809 183.714 21.0476 183.714 23.7142C181.048 23.7142 178.382 23.7142 175.714 23.7142C175.714 21.0476 175.714 18.3809 175.714 15.7142Z" fill="#F7F335"/>
<path fill-rule="evenodd" clip-rule="evenodd" d="M183.714 15.7142C186.381 15.7142 189.048 15.7142 191.714 15.7142C191.714 18.3809 191.714 21.0476 191.714 23.7142C189.048 23.7142 186.381 23.7142 183.714 23.7142C183.714 21.0476 183.714 18.3809 183.714 15.7142Z" fill="#E18D02"/>
<path fill-rule="evenodd" clip-rule="evenodd" d="M63.7141 23.7142C63.7141 26.3809 63.7141 29.0476 63.7141 31.7142C58.3813 31.7142 53.0477 31.7142 47.7144 31.7142C47.7144 29.0476 47.7144 26.3809 47.7144 23.7142C53.0477 23.7142 58.3813 23.7142 63.7141 23.7142Z" fill="#E18D02"/>
<path fill-rule="evenodd" clip-rule="evenodd" d="M63.7141 23.7142C66.3813 23.7142 69.0475 23.7142 71.7141 23.7142C71.7141 29.0476 71.7141 34.3809 71.7141 39.7142C69.0475 39.7142 66.3813 39.7142 63.7141 39.7142C63.7141 42.3809 63.7141 45.0476 63.7141 47.7142C61.0475 47.7142 58.3813 47.7142 55.7141 47.7142C55.7141 50.3809 55.7141 53.0476 55.7141 55.7142C53.0477 55.7142 50.3811 55.7142 47.7144 55.7142C47.7144 58.3808 47.7144 61.0475 47.7144 63.7142C42.3811 63.7142 37.0477 63.7142 31.7144 63.7142C31.7144 58.3808 31.7144 53.0476 31.7144 47.7142C34.3811 47.7142 37.0477 47.7142 39.7144 47.7142C39.7144 45.0476 39.7144 42.3809 39.7144 39.7142C42.3811 39.7142 45.0477 39.7142 47.7144 39.7142C47.7144 37.0476 47.7144 34.3809 47.7144 31.7142C53.0477 31.7142 58.3813 31.7142 63.7141 31.7142C63.7141 29.0476 63.7141 26.3809 63.7141 23.7142Z" fill="#F7F335"/>
<path fill-rule="evenodd" clip-rule="evenodd" d="M191.714 23.7142C197.048 23.7142 202.381 23.7142 207.714 23.7142C207.714 26.3809 207.714 29.0476 207.714 31.7142C202.381 31.7142 197.048 31.7142 191.714 31.7142C191.714 29.0476 191.714 26.3809 191.714 23.7142Z" fill="#E18D02"/>
<path fill-rule="evenodd" clip-rule="evenodd" d="M47.7144 31.7142C47.7144 34.3809 47.7144 37.0476 47.7144 39.7142C45.0477 39.7142 42.3811 39.7142 39.7144 39.7142C39.7144 37.0476 39.7144 34.3809 39.7144 31.7142C42.3811 31.7142 45.0477 31.7142 47.7144 31.7142Z" fill="#E18D02"/>
<path fill-rule="evenodd" clip-rule="evenodd" d="M191.714 31.7142C197.048 31.7142 202.382 31.7142 207.714 31.7142C207.714 34.3809 207.714 37.0476 207.714 39.7142C205.048 39.7142 202.382 39.7142 199.714 39.7142C199.714 42.3809 199.714 45.0476 199.714 47.7142C197.048 47.7142 194.382 47.7142 191.714 47.7142C191.714 50.3809 191.714 53.0476 191.714 55.7142C189.048 55.7142 186.382 55.7142 183.714 55.7142C181.048 55.7142 178.382 55.7142 175.714 55.7142C175.714 53.0476 175.714 50.3809 175.714 47.7142C178.382 47.7142 181.048 47.7142 183.714 47.7142C183.714 45.0476 183.714 42.3809 183.714 39.7142C186.382 39.7142 189.048 39.7142 191.714 39.7142C191.714 37.0476 191.714 34.3809 191.714 31.7142Z" fill="#F7F335"/>
<path fill-rule="evenodd" clip-rule="evenodd" d="M207.714 31.7142C210.381 31.7142 213.048 31.7142 215.714 31.7142C215.714 34.3809 215.714 37.0476 215.714 39.7142C213.048 39.7142 210.381 39.7142 207.714 39.7142C207.714 37.0476 207.714 34.3809 207.714 31.7142Z" fill="#E18D02"/>
<path fill-rule="evenodd" clip-rule="evenodd" d="M39.7144 39.7142C39.7144 42.3809 39.7144 45.0476 39.7144 47.7142C37.0477 47.7142 34.3811 47.7142 31.7144 47.7142C31.7144 45.0476 31.7144 42.3809 31.7144 39.7142C34.3811 39.7142 37.0477 39.7142 39.7144 39.7142Z" fill="#E18D02"/>
<path fill-rule="evenodd" clip-rule="evenodd" d="M175.714 47.7142C175.714 50.3809 175.714 53.0476 175.714 55.7142C178.381 55.7142 181.047 55.7142 183.714 55.7142C183.714 58.3808 183.714 61.0475 183.714 63.7142C186.381 63.7142 189.047 63.7142 191.714 63.7142C191.714 66.3808 191.714 69.0475 191.714 71.7142C194.381 71.7142 197.047 71.7142 199.714 71.7142C199.714 74.3808 199.714 77.0475 199.714 79.7142C199.714 82.3808 199.714 85.0475 199.714 87.7142C202.381 87.7142 205.047 87.7142 207.714 87.7142C207.714 90.3808 207.714 93.0475 207.714 95.7142C207.714 98.3808 207.714 101.048 207.714 103.714C210.381 103.714 213.047 103.714 215.714 103.714C215.714 119.714 215.714 135.714 215.714 151.714C213.047 151.714 210.381 151.714 207.714 151.714C207.714 159.714 207.714 167.714 207.714 175.714C205.047 175.714 202.381 175.714 199.714 175.714C199.714 178.381 199.714 181.048 199.714 183.714C197.047 183.714 194.381 183.714 191.714 183.714C191.714 186.381 191.714 189.048 191.714 191.714C189.047 191.714 186.381 191.714 183.714 191.714C183.714 194.381 183.714 197.048 183.714 199.714C178.381 199.714 173.047 199.714 167.714 199.714C167.714 202.381 167.714 205.048 167.714 207.714C162.381 207.714 157.047 207.714 151.714 207.714C151.714 210.381 151.714 213.048 151.714 215.714C135.714 215.714 119.714 215.714 103.714 215.714C103.714 213.048 103.714 210.381 103.714 207.714C101.047 207.714 98.3813 207.714 95.7141 207.714C93.0475 207.714 90.3813 207.714 87.7141 207.714C87.7141 205.048 87.7141 202.381 87.7141 199.714C85.0475 199.714 82.3813 199.714 79.7141 199.714C77.0475 199.714 74.3813 199.714 71.7141 199.714C71.7141 197.048 71.7141 194.381 71.7141 191.714C69.0475 191.714 66.3813 191.714 63.7141 191.714C63.7141 189.048 63.7141 186.381 63.7141 183.714C61.0475 183.714 58.3813 183.714 55.7141 183.714C55.7141 181.048 55.7141 178.381 55.7141 175.714C53.0477 175.714 50.3811 175.714 47.7144 175.714C47.7144 170.381 47.7144 165.048 47.7144 159.714C45.0477 159.714 42.3811 159.714 39.7144 159.714C39.7144 138.381 39.7144 117.048 39.7144 95.7142C42.3811 95.7142 45.0477 95.7142 47.7144 95.7142C47.7144 90.3808 47.7144 85.0475 47.7144 79.7142C50.3811 79.7142 53.0477 79.7142 55.7141 79.7142C55.7141 77.0475 55.7141 74.3808 55.7141 71.7142C58.3813 71.7142 61.0475 71.7142 63.7141 71.7142C63.7141 66.3808 63.7141 61.0475 63.7141 55.7142C69.0475 55.7142 74.3813 55.7142 79.7141 55.7142C79.7141 53.0476 79.7141 50.3809 79.7141 47.7142C85.0475 47.7142 90.3813 47.7142 95.7141 47.7142C95.7141 45.0476 95.7141 42.3809 95.7141 39.7142C117.047 39.7142 138.381 39.7142 159.714 39.7142C159.714 42.3809 159.714 45.0476 159.714 47.7142C165.047 47.7142 170.381 47.7142 175.714 47.7142Z" fill="#FDA600"/>
<path fill-rule="evenodd" clip-rule="evenodd" d="M207.714 39.7142C207.714 45.0476 207.714 50.3809 207.714 55.7142C205.048 55.7142 202.381 55.7142 199.714 55.7142C199.714 58.3808 199.714 61.0475 199.714 63.7142C197.048 63.7142 194.381 63.7142 191.714 63.7142C189.048 63.7142 186.381 63.7142 183.714 63.7142C183.714 61.0475 183.714 58.3808 183.714 55.7142C186.381 55.7142 189.048 55.7142 191.714 55.7142C191.714 53.0476 191.714 50.3809 191.714 47.7142C194.381 47.7142 197.048 47.7142 199.714 47.7142C199.714 45.0476 199.714 42.3809 199.714 39.7142C202.381 39.7142 205.048 39.7142 207.714 39.7142Z" fill="#FDD701"/>
<path fill-rule="evenodd" clip-rule="evenodd" d="M207.714 39.7142C210.381 39.7142 213.048 39.7142 215.714 39.7142C215.714 42.3809 215.714 45.0476 215.714 47.7142C218.381 47.7142 221.048 47.7142 223.714 47.7142C223.714 53.0476 223.714 58.3808 223.714 63.7142C226.381 63.7142 229.048 63.7142 231.714 63.7142C231.714 66.3808 231.714 69.0475 231.714 71.7142C234.381 71.7142 237.048 71.7142 239.714 71.7142C239.714 77.0475 239.714 82.3808 239.714 87.7142C237.048 87.7142 234.381 87.7142 231.714 87.7142C231.714 90.3808 231.714 93.0475 231.714 95.7142C229.048 95.7142 226.381 95.7142 223.714 95.7142C223.714 98.3808 223.714 101.048 223.714 103.714C221.048 103.714 218.381 103.714 215.714 103.714C213.048 103.714 210.381 103.714 207.714 103.714C207.714 101.048 207.714 98.3808 207.714 95.7142C207.714 93.0475 207.714 90.3808 207.714 87.7142C205.048 87.7142 202.381 87.7142 199.714 87.7142C199.714 85.0475 199.714 82.3808 199.714 79.7142C199.714 77.0475 199.714 74.3808 199.714 71.7142C197.048 71.7142 194.381 71.7142 191.714 71.7142C191.714 69.0475 191.714 66.3808 191.714 63.7142C194.381 63.7142 197.048 63.7142 199.714 63.7142C199.714 61.0475 199.714 58.3808 199.714 55.7142C202.381 55.7142 205.048 55.7142 207.714 55.7142C207.714 50.3809 207.714 45.0476 207.714 39.7142Z" fill="#F7F335"/>
<path fill-rule="evenodd" clip-rule="evenodd" d="M31.7144 47.7142C31.7144 53.0476 31.7144 58.3808 31.7144 63.7142C29.0477 63.7142 26.3811 63.7142 23.7144 63.7142C23.7144 58.3808 23.7144 53.0476 23.7144 47.7142C26.3811 47.7142 29.0477 47.7142 31.7144 47.7142Z" fill="#E18D02"/>
<path fill-rule="evenodd" clip-rule="evenodd" d="M223.714 47.7142C226.381 47.7142 229.048 47.7142 231.714 47.7142C231.714 50.3809 231.714 53.0476 231.714 55.7142C234.381 55.7142 237.048 55.7142 239.714 55.7142C239.714 61.0475 239.714 66.3808 239.714 71.7142C237.048 71.7142 234.381 71.7142 231.714 71.7142C231.714 69.0475 231.714 66.3808 231.714 63.7142C229.048 63.7142 226.381 63.7142 223.714 63.7142C223.714 58.3808 223.714 53.0476 223.714 47.7142Z" fill="#E18D02"/>
<path fill-rule="evenodd" clip-rule="evenodd" d="M23.7144 63.7141C23.7144 69.0474 23.7144 74.3808 23.7144 79.7141C21.0477 79.7141 18.3811 79.7141 15.7144 79.7141C15.7144 74.3808 15.7144 69.0474 15.7144 63.7141C18.3811 63.7141 21.0477 63.7141 23.7144 63.7141Z" fill="#E18D02"/>
<path fill-rule="evenodd" clip-rule="evenodd" d="M23.7144 63.7141C26.3811 63.7141 29.0477 63.7141 31.7144 63.7141C31.7144 69.0474 31.7144 74.3808 31.7144 79.7141C29.0477 79.7141 26.3811 79.7141 23.7144 79.7141C23.7144 74.3808 23.7144 69.0474 23.7144 63.7141Z" fill="#F7F335"/>
<path fill-rule="evenodd" clip-rule="evenodd" d="M239.714 71.7141C242.381 71.7141 245.048 71.7141 247.714 71.7141C247.714 79.7141 247.714 87.7141 247.714 95.7141C245.048 95.7141 242.381 95.7141 239.714 95.7141C239.714 93.0474 239.714 90.3808 239.714 87.7141C239.714 82.3808 239.714 77.0474 239.714 71.7141Z" fill="#E18D02"/>
<path fill-rule="evenodd" clip-rule="evenodd" d="M15.7144 79.7141C15.7144 82.3808 15.7144 85.0474 15.7144 87.7141C15.7144 90.3808 15.7144 93.0474 15.7144 95.7141C13.0477 95.7141 10.3811 95.7141 7.71436 95.7141C7.71436 90.3808 7.71436 85.0474 7.71436 79.7141C10.3811 79.7141 13.0477 79.7141 15.7144 79.7141Z" fill="#E18D02"/>
<path fill-rule="evenodd" clip-rule="evenodd" d="M15.7144 79.7141C18.3811 79.7141 21.0477 79.7141 23.7144 79.7141C23.7144 82.3808 23.7144 85.0474 23.7144 87.7141C21.0477 87.7141 18.3811 87.7141 15.7144 87.7141C15.7144 85.0474 15.7144 82.3808 15.7144 79.7141Z" fill="#F7F335"/>
<path fill-rule="evenodd" clip-rule="evenodd" d="M103.714 79.7141C119.714 79.7141 135.714 79.7141 151.714 79.7141C151.714 82.3808 151.714 85.0474 151.714 87.7141C154.382 87.7141 157.048 87.7141 159.714 87.7141C159.714 90.3808 159.714 93.0474 159.714 95.7141C157.048 95.7141 154.382 95.7141 151.714 95.7141C151.714 98.3808 151.714 101.047 151.714 103.714C149.048 103.714 146.382 103.714 143.714 103.714C143.714 106.381 143.714 109.047 143.714 111.714C141.048 111.714 138.382 111.714 135.714 111.714C135.714 114.381 135.714 117.047 135.714 119.714C133.048 119.714 130.382 119.714 127.714 119.714C127.714 122.381 127.714 125.047 127.714 127.714C125.048 127.714 122.382 127.714 119.714 127.714C119.714 130.381 119.714 133.047 119.714 135.714C122.382 135.714 125.048 135.714 127.714 135.714C127.714 138.381 127.714 141.047 127.714 143.714C130.382 143.714 133.048 143.714 135.714 143.714C135.714 146.381 135.714 149.047 135.714 151.714C138.382 151.714 141.048 151.714 143.714 151.714C143.714 154.381 143.714 157.047 143.714 159.714C149.048 159.714 154.382 159.714 159.714 159.714C159.714 162.381 159.714 165.047 159.714 167.714C157.048 167.714 154.382 167.714 151.714 167.714C151.714 170.381 151.714 173.047 151.714 175.714C135.714 175.714 119.714 175.714 103.714 175.714C103.714 173.047 103.714 170.381 103.714 167.714C101.048 167.714 98.3816 167.714 95.7144 167.714C95.7144 165.047 95.7144 162.381 95.7144 159.714C93.0477 159.714 90.3816 159.714 87.7144 159.714C87.7144 157.047 87.7144 154.381 87.7144 151.714C85.0477 151.714 82.3816 151.714 79.7144 151.714C79.7144 135.714 79.7144 119.714 79.7144 103.714C82.3816 103.714 85.0477 103.714 87.7144 103.714C87.7144 101.047 87.7144 98.3808 87.7144 95.7141C90.3816 95.7141 93.0477 95.7141 95.7144 95.7141C95.7144 93.0474 95.7144 90.3808 95.7144 87.7141C98.3816 87.7141 101.048 87.7141 103.714 87.7141C103.714 85.0474 103.714 82.3808 103.714 79.7141Z" fill="#FD7C01"/>
<path fill-rule="evenodd" clip-rule="evenodd" d="M239.714 87.7141C239.714 90.3808 239.714 93.0474 239.714 95.7141C242.382 95.7141 245.048 95.7141 247.714 95.7141C247.714 117.047 247.714 138.381 247.714 159.714C245.048 159.714 242.382 159.714 239.714 159.714C239.714 162.381 239.714 165.047 239.714 167.714C237.048 167.714 234.382 167.714 231.714 167.714C231.714 170.381 231.714 173.047 231.714 175.714C229.048 175.714 226.382 175.714 223.714 175.714C223.714 178.381 223.714 181.047 223.714 183.714C221.048 183.714 218.382 183.714 215.714 183.714C215.714 186.381 215.714 189.047 215.714 191.714C213.048 191.714 210.382 191.714 207.714 191.714C207.714 194.381 207.714 197.047 207.714 199.714C205.048 199.714 202.382 199.714 199.714 199.714C199.714 202.381 199.714 205.047 199.714 207.714C197.048 207.714 194.382 207.714 191.714 207.714C191.714 210.381 191.714 213.047 191.714 215.714C189.048 215.714 186.382 215.714 183.714 215.714C183.714 218.381 183.714 221.047 183.714 223.714C181.048 223.714 178.382 223.714 175.714 223.714C175.714 226.381 175.714 229.047 175.714 231.714C173.048 231.714 170.382 231.714 167.714 231.714C167.714 234.381 167.714 237.047 167.714 239.714C165.048 239.714 162.382 239.714 159.714 239.714C159.714 242.381 159.714 245.047 159.714 247.714C138.382 247.714 117.048 247.714 95.7144 247.714C95.7144 245.047 95.7144 242.381 95.7144 239.714C93.0477 239.714 90.3816 239.714 87.7144 239.714C87.7144 237.047 87.7144 234.381 87.7144 231.714C90.3816 231.714 93.0477 231.714 95.7144 231.714C95.7144 229.047 95.7144 226.381 95.7144 223.714C98.3816 223.714 101.048 223.714 103.714 223.714C103.714 221.047 103.714 218.381 103.714 215.714C119.714 215.714 135.714 215.714 151.714 215.714C151.714 213.047 151.714 210.381 151.714 207.714C157.048 207.714 162.382 207.714 167.714 207.714C167.714 205.047 167.714 202.381 167.714 199.714C173.048 199.714 178.382 199.714 183.714 199.714C183.714 197.047 183.714 194.381 183.714 191.714C186.382 191.714 189.048 191.714 191.714 191.714C191.714 189.047 191.714 186.381 191.714 183.714C194.382 183.714 197.048 183.714 199.714 183.714C199.714 181.047 199.714 178.381 199.714 175.714C202.382 175.714 205.048 175.714 207.714 175.714C207.714 167.714 207.714 159.714 207.714 151.714C210.382 151.714 213.048 151.714 215.714 151.714C215.714 135.714 215.714 119.714 215.714 103.714C218.382 103.714 221.048 103.714 223.714 103.714C223.714 101.047 223.714 98.3808 223.714 95.7141C226.382 95.7141 229.048 95.7141 231.714 95.7141C231.714 93.0474 231.714 90.3808 231.714 87.7141C234.382 87.7141 237.048 87.7141 239.714 87.7141Z" fill="#FDD701"/>
<path fill-rule="evenodd" clip-rule="evenodd" d="M-0.285645 95.7141C2.38102 95.7141 5.04768 95.7141 7.71435 95.7141C7.71435 117.047 7.71435 138.381 7.71435 159.714C5.04768 159.714 2.38102 159.714 -0.285645 159.714C-0.285645 138.381 -0.285645 117.047 -0.285645 95.7141Z" fill="#E18D02"/>
<path fill-rule="evenodd" clip-rule="evenodd" d="M247.714 95.7141C250.381 95.7141 253.048 95.7141 255.714 95.7141C255.714 117.047 255.714 138.381 255.714 159.714C253.048 159.714 250.381 159.714 247.714 159.714C247.714 138.381 247.714 117.047 247.714 95.7141Z" fill="#E18D02"/>
<path fill-rule="evenodd" clip-rule="evenodd" d="M7.71436 159.714C10.3811 159.714 13.0477 159.714 15.7144 159.714C15.7144 167.714 15.7144 175.714 15.7144 183.714C13.0477 183.714 10.3811 183.714 7.71436 183.714C7.71436 175.714 7.71436 167.714 7.71436 159.714Z" fill="#E19802"/>
<path fill-rule="evenodd" clip-rule="evenodd" d="M247.714 159.714C247.714 167.714 247.714 175.714 247.714 183.714C245.048 183.714 242.381 183.714 239.714 183.714C239.714 178.381 239.714 173.047 239.714 167.714C239.714 165.047 239.714 162.381 239.714 159.714C242.381 159.714 245.048 159.714 247.714 159.714Z" fill="#E18D02"/>
<path fill-rule="evenodd" clip-rule="evenodd" d="M239.714 167.714C239.714 173.047 239.714 178.381 239.714 183.714C237.048 183.714 234.382 183.714 231.714 183.714C231.714 186.381 231.714 189.047 231.714 191.714C229.048 191.714 226.382 191.714 223.714 191.714C223.714 197.047 223.714 202.381 223.714 207.714C221.048 207.714 218.382 207.714 215.714 207.714C215.714 210.381 215.714 213.047 215.714 215.714C213.048 215.714 210.382 215.714 207.714 215.714C207.714 218.381 207.714 221.047 207.714 223.714C202.382 223.714 197.048 223.714 191.714 223.714C191.714 226.381 191.714 229.047 191.714 231.714C189.048 231.714 186.382 231.714 183.714 231.714C183.714 234.381 183.714 237.047 183.714 239.714C178.382 239.714 173.048 239.714 167.714 239.714C167.714 237.047 167.714 234.381 167.714 231.714C170.382 231.714 173.048 231.714 175.714 231.714C175.714 229.047 175.714 226.381 175.714 223.714C178.382 223.714 181.048 223.714 183.714 223.714C183.714 221.047 183.714 218.381 183.714 215.714C186.382 215.714 189.048 215.714 191.714 215.714C191.714 213.047 191.714 210.381 191.714 207.714C194.382 207.714 197.048 207.714 199.714 207.714C199.714 205.047 199.714 202.381 199.714 199.714C202.382 199.714 205.048 199.714 207.714 199.714C207.714 197.047 207.714 194.381 207.714 191.714C210.382 191.714 213.048 191.714 215.714 191.714C215.714 189.047 215.714 186.381 215.714 183.714C218.382 183.714 221.048 183.714 223.714 183.714C223.714 181.047 223.714 178.381 223.714 175.714C226.382 175.714 229.048 175.714 231.714 175.714C231.714 173.047 231.714 170.381 231.714 167.714C234.382 167.714 237.048 167.714 239.714 167.714Z" fill="#F7F335"/>
<path fill-rule="evenodd" clip-rule="evenodd" d="M47.7144 175.714C50.3811 175.714 53.0477 175.714 55.7141 175.714C55.7141 178.381 55.7141 181.047 55.7141 183.714C55.7141 186.381 55.7141 189.047 55.7141 191.714C53.0477 191.714 50.3811 191.714 47.7144 191.714C47.7144 194.381 47.7144 197.047 47.7144 199.714C45.0477 199.714 42.3811 199.714 39.7144 199.714C39.7144 202.381 39.7144 205.047 39.7144 207.714C37.0477 207.714 34.3811 207.714 31.7144 207.714C31.7144 202.381 31.7144 197.047 31.7144 191.714C34.3811 191.714 37.0477 191.714 39.7144 191.714C39.7144 189.047 39.7144 186.381 39.7144 183.714C42.3811 183.714 45.0477 183.714 47.7144 183.714C47.7144 181.047 47.7144 178.381 47.7144 175.714Z" fill="#F7F335"/>
<path fill-rule="evenodd" clip-rule="evenodd" d="M15.7144 183.714C18.3811 183.714 21.0477 183.714 23.7144 183.714C23.7144 186.381 23.7144 189.047 23.7144 191.714C21.0477 191.714 18.3811 191.714 15.7144 191.714C15.7144 189.047 15.7144 186.381 15.7144 183.714Z" fill="#E19802"/>
<path fill-rule="evenodd" clip-rule="evenodd" d="M55.7141 183.714C58.3813 183.714 61.0475 183.714 63.7141 183.714C63.7141 186.381 63.7141 189.047 63.7141 191.714C63.7141 194.381 63.7141 197.047 63.7141 199.714C61.0475 199.714 58.3813 199.714 55.7141 199.714C55.7141 202.381 55.7141 205.047 55.7141 207.714C50.3811 207.714 45.0477 207.714 39.7144 207.714C39.7144 205.047 39.7144 202.381 39.7144 199.714C42.3811 199.714 45.0477 199.714 47.7144 199.714C47.7144 197.047 47.7144 194.381 47.7144 191.714C50.3811 191.714 53.0477 191.714 55.7141 191.714C55.7141 189.047 55.7141 186.381 55.7141 183.714Z" fill="#FDD701"/>
<path fill-rule="evenodd" clip-rule="evenodd" d="M239.714 183.714C239.714 186.381 239.714 189.047 239.714 191.714C237.048 191.714 234.381 191.714 231.714 191.714C231.714 189.047 231.714 186.381 231.714 183.714C234.381 183.714 237.048 183.714 239.714 183.714Z" fill="#E18D02"/>
<path fill-rule="evenodd" clip-rule="evenodd" d="M23.7144 191.714C26.3811 191.714 29.0477 191.714 31.7144 191.714C31.7144 197.047 31.7144 202.381 31.7144 207.714C29.0477 207.714 26.3811 207.714 23.7144 207.714C23.7144 202.381 23.7144 197.047 23.7144 191.714Z" fill="#E19802"/>
<path fill-rule="evenodd" clip-rule="evenodd" d="M63.7141 191.714C66.3813 191.714 69.0475 191.714 71.7141 191.714C71.7141 194.381 71.7141 197.047 71.7141 199.714C74.3813 199.714 77.0475 199.714 79.7141 199.714C82.3813 199.714 85.0475 199.714 87.7141 199.714C87.7141 202.381 87.7141 205.047 87.7141 207.714C90.3813 207.714 93.0475 207.714 95.7141 207.714C98.3813 207.714 101.047 207.714 103.714 207.714C103.714 210.381 103.714 213.047 103.714 215.714C103.714 218.381 103.714 221.047 103.714 223.714C101.047 223.714 98.3813 223.714 95.7141 223.714C95.7141 226.381 95.7141 229.047 95.7141 231.714C93.0475 231.714 90.3813 231.714 87.7141 231.714C87.7141 234.381 87.7141 237.047 87.7141 239.714C82.3813 239.714 77.0475 239.714 71.7141 239.714C71.7141 237.047 71.7141 234.381 71.7141 231.714C69.0475 231.714 66.3813 231.714 63.7141 231.714C63.7141 229.047 63.7141 226.381 63.7141 223.714C58.3813 223.714 53.0477 223.714 47.7144 223.714C47.7144 221.047 47.7144 218.381 47.7144 215.714C45.0477 215.714 42.3811 215.714 39.7144 215.714C39.7144 213.047 39.7144 210.381 39.7144 207.714C45.0477 207.714 50.3811 207.714 55.7141 207.714C55.7141 205.047 55.7141 202.381 55.7141 199.714C58.3813 199.714 61.0475 199.714 63.7141 199.714C63.7141 197.047 63.7141 194.381 63.7141 191.714Z" fill="#F7F335"/>
<path fill-rule="evenodd" clip-rule="evenodd" d="M231.714 191.714C231.714 197.047 231.714 202.381 231.714 207.714C229.048 207.714 226.381 207.714 223.714 207.714C223.714 202.381 223.714 197.047 223.714 191.714C226.381 191.714 229.048 191.714 231.714 191.714Z" fill="#E18D02"/>
<path fill-rule="evenodd" clip-rule="evenodd" d="M79.7144 199.714C82.3816 199.714 85.0477 199.714 87.7144 199.714C87.7144 202.381 87.7144 205.047 87.7144 207.714C85.0477 207.714 82.3816 207.714 79.7144 207.714C79.7144 205.047 79.7144 202.381 79.7144 199.714Z" fill="#FDD701"/>
<path fill-rule="evenodd" clip-rule="evenodd" d="M31.7144 207.714C34.3811 207.714 37.0477 207.714 39.7144 207.714C39.7144 210.381 39.7144 213.047 39.7144 215.714C37.0477 215.714 34.3811 215.714 31.7144 215.714C31.7144 213.047 31.7144 210.381 31.7144 207.714Z" fill="#E19802"/>
<path fill-rule="evenodd" clip-rule="evenodd" d="M95.7144 207.714C98.3816 207.714 101.048 207.714 103.714 207.714C103.714 210.381 103.714 213.047 103.714 215.714C101.048 215.714 98.3816 215.714 95.7144 215.714C95.7144 213.047 95.7144 210.381 95.7144 207.714Z" fill="#FDD701"/>
<path fill-rule="evenodd" clip-rule="evenodd" d="M223.714 207.714C223.714 210.381 223.714 213.047 223.714 215.714C221.048 215.714 218.381 215.714 215.714 215.714C215.714 213.047 215.714 210.381 215.714 207.714C218.381 207.714 221.048 207.714 223.714 207.714Z" fill="#E18D02"/>
<path fill-rule="evenodd" clip-rule="evenodd" d="M39.7144 215.714C42.3811 215.714 45.0477 215.714 47.7144 215.714C47.7144 218.381 47.7144 221.047 47.7144 223.714C45.0477 223.714 42.3811 223.714 39.7144 223.714C39.7144 221.047 39.7144 218.381 39.7144 215.714Z" fill="#E19802"/>
<path fill-rule="evenodd" clip-rule="evenodd" d="M215.714 215.714C215.714 218.381 215.714 221.047 215.714 223.714C213.048 223.714 210.381 223.714 207.714 223.714C207.714 221.047 207.714 218.381 207.714 215.714C210.381 215.714 213.048 215.714 215.714 215.714Z" fill="#E18D02"/>
<path fill-rule="evenodd" clip-rule="evenodd" d="M47.7144 223.714C53.0477 223.714 58.3813 223.714 63.7141 223.714C63.7141 226.381 63.7141 229.047 63.7141 231.714C58.3813 231.714 53.0477 231.714 47.7144 231.714C47.7144 229.047 47.7144 226.381 47.7144 223.714Z" fill="#E19802"/>
<path fill-rule="evenodd" clip-rule="evenodd" d="M207.714 223.714C207.714 226.381 207.714 229.047 207.714 231.714C202.381 231.714 197.048 231.714 191.714 231.714C191.714 229.047 191.714 226.381 191.714 223.714C197.048 223.714 202.381 223.714 207.714 223.714Z" fill="#E18D02"/>
<path fill-rule="evenodd" clip-rule="evenodd" d="M63.7144 231.714C66.3816 231.714 69.0477 231.714 71.7144 231.714C71.7144 234.381 71.7144 237.047 71.7144 239.714C69.0477 239.714 66.3816 239.714 63.7144 239.714C63.7144 237.047 63.7144 234.381 63.7144 231.714Z" fill="#E18D02"/>
<path fill-rule="evenodd" clip-rule="evenodd" d="M191.714 231.714C191.714 234.381 191.714 237.047 191.714 239.714C189.048 239.714 186.381 239.714 183.714 239.714C183.714 237.047 183.714 234.381 183.714 231.714C186.381 231.714 189.048 231.714 191.714 231.714Z" fill="#E18D02"/>
<path fill-rule="evenodd" clip-rule="evenodd" d="M71.7144 239.714C77.0477 239.714 82.3816 239.714 87.7144 239.714C90.3816 239.714 93.0477 239.714 95.7144 239.714C95.7144 242.381 95.7144 245.047 95.7144 247.714C87.7144 247.714 79.7144 247.714 71.7144 247.714C71.7144 245.047 71.7144 242.381 71.7144 239.714Z" fill="#E18D02"/>
<path fill-rule="evenodd" clip-rule="evenodd" d="M167.714 239.714C173.048 239.714 178.382 239.714 183.714 239.714C183.714 242.381 183.714 245.047 183.714 247.714C175.714 247.714 167.714 247.714 159.714 247.714C159.714 245.047 159.714 242.381 159.714 239.714C162.382 239.714 165.048 239.714 167.714 239.714Z" fill="#E18D02"/>
<path fill-rule="evenodd" clip-rule="evenodd" d="M95.7144 247.714C117.048 247.714 138.382 247.714 159.714 247.714C159.714 250.381 159.714 253.047 159.714 255.714C138.382 255.714 117.048 255.714 95.7144 255.714C95.7144 253.047 95.7144 250.381 95.7144 247.714Z" fill="#E18D02"/>
</g>
</g>
<defs>
<clipPath id="clip0_2572_4134">
<rect width="256" height="256" fill="white"/>
</clipPath>
</defs>
</svg>
