<svg width="256" height="256" viewBox="0 0 256 256" fill="none" xmlns="http://www.w3.org/2000/svg">
<g clip-path="url(#clip0_1954_3151)">
<path d="M128 3C197.036 3 253 58.9644 253 128C253 197.036 197.036 253 128 253C58.9644 253 3 197.036 3 128C3 58.9644 58.9644 3 128 3Z" fill="black" stroke="#F46737" stroke-width="6"/>
<path d="M156.545 133.217C155.955 135.952 155.008 138.598 153.727 141.086C152.362 143.543 150.687 145.815 148.744 147.846C146.716 149.791 144.447 151.467 141.993 152.835C139.507 154.113 136.865 155.063 134.134 155.66C131.364 156.145 128.544 156.283 125.739 156.072C122.96 155.746 120.234 155.061 117.63 154.034C115.04 152.933 112.602 151.503 110.378 149.777C108.237 147.954 106.339 145.864 104.73 143.556C103.219 141.199 102.019 138.657 101.158 135.992C100.399 133.282 99.9849 130.486 99.9255 127.673H118.804C118.893 128.615 119.061 129.548 119.304 130.462C119.625 131.349 120.025 132.205 120.5 133.019C121.087 133.789 121.739 134.507 122.447 135.166C123.214 135.732 124.034 136.222 124.895 136.631C125.777 136.96 126.694 137.19 127.627 137.317C128.578 137.385 129.532 137.368 130.48 137.264C131.382 137.028 132.26 136.71 133.105 136.316C133.928 135.786 134.707 135.188 135.433 134.529C136.092 133.804 136.689 133.027 137.219 132.203C137.614 131.352 137.93 130.466 138.165 129.557C138.295 128.592 138.343 127.616 138.309 126.642C138.17 125.707 137.936 124.789 137.612 123.902C137.204 123.04 136.715 122.22 136.151 121.451C135.494 120.741 134.776 120.089 134.008 119.502C133.197 119.019 132.34 118.618 131.45 118.303C130.519 118.073 129.568 117.929 128.611 117.875H55.0059V99.0435H128.538C131.349 99.0936 134.14 99.5084 136.844 100.277C139.505 101.139 142.045 102.341 144.399 103.854C146.704 105.462 148.793 107.361 150.614 109.505C152.35 111.694 153.797 114.099 154.919 116.658C155.943 119.253 156.628 121.969 156.956 124.74C157.174 127.572 157.035 130.42 156.545 133.217Z" fill="url(#paint0_linear_1954_3151)"/>
<path d="M177.978 137.459C176.979 142.325 175.301 147.027 172.995 151.426C170.611 155.771 167.649 159.771 164.189 163.317C160.642 166.776 156.647 169.74 152.311 172.133C147.915 174.436 143.221 176.114 138.363 177.123C133.501 178.036 128.538 178.283 123.61 177.856C118.706 177.323 113.898 176.12 109.321 174.279C104.766 172.34 100.499 169.783 96.6399 166.68C92.8531 163.482 89.5134 159.789 86.7107 155.699C83.9918 151.549 81.863 147.04 80.3857 142.303C79.0056 137.529 78.2789 132.591 78.2252 127.622H96.675C96.7274 130.762 97.1899 133.882 98.0505 136.903C98.9966 139.881 100.336 142.72 102.034 145.343C103.827 147.925 105.946 150.263 108.338 152.3C110.785 154.254 113.482 155.871 116.358 157.109C119.262 158.267 122.307 159.031 125.413 159.381C128.54 159.629 131.686 159.473 134.772 158.916C137.831 158.274 140.788 157.214 143.56 155.769C146.299 154.245 148.827 152.369 151.079 150.187C153.26 147.917 155.14 145.375 156.671 142.623C158.101 139.841 159.157 136.882 159.814 133.824C160.365 130.733 160.515 127.584 160.26 124.454C159.921 121.343 159.157 118.292 157.993 115.387C156.765 112.521 155.167 109.828 153.242 107.376C151.207 104.986 148.871 102.871 146.293 101.082C143.673 99.3841 140.838 98.0441 137.863 97.0987C134.846 96.2391 131.73 95.7781 128.593 95.7275H55.0059V77.1592H128.538C133.491 77.213 138.413 77.9473 143.166 79.3417C147.902 80.8233 152.41 82.9535 156.563 85.6721C160.648 88.4777 164.336 91.8214 167.529 95.6131C170.631 99.4787 173.192 103.75 175.138 108.309C176.968 112.895 178.17 117.707 178.71 122.616C179.143 127.573 178.897 132.568 177.978 137.459Z" fill="url(#paint1_linear_1954_3151)"/>
<path d="M199.678 141.766C198.254 148.776 195.847 155.549 192.531 161.884C189.129 168.151 184.861 173.906 179.853 178.979C174.778 183.984 169.031 188.257 162.778 191.676C156.45 194.997 149.686 197.404 142.685 198.828C135.694 200.16 128.551 200.504 121.466 199.848C114.361 199.109 107.397 197.363 100.783 194.663C94.2099 191.905 88.0586 188.232 82.5107 183.754C77.0489 179.184 72.2409 173.882 68.2219 168C64.2976 162.029 61.2371 155.533 59.1316 148.704C57.1093 141.858 56.057 134.761 56.0056 127.621H74.8139C74.872 132.906 75.653 138.159 77.1353 143.233C78.7089 148.293 80.9814 153.108 83.8871 157.538C86.8608 161.903 90.4183 165.838 94.46 169.234C98.5772 172.542 103.126 175.271 107.981 177.346C112.883 179.321 118.033 180.609 123.288 181.174C128.521 181.62 133.79 181.356 138.952 180.386C144.132 179.305 149.135 177.5 153.812 175.022C158.441 172.482 162.702 169.324 166.48 165.633C170.188 161.868 173.367 157.615 175.929 152.99C178.406 148.308 180.212 143.299 181.294 138.112C182.262 132.92 182.52 127.62 182.061 122.358C181.504 117.099 180.223 111.942 178.258 107.032C176.185 102.172 173.458 97.6174 170.154 93.4954C166.759 89.4472 162.829 85.8799 158.474 82.8914C149.627 76.9931 139.238 73.8392 128.61 73.8243H55.0059V55H128.538C135.694 55.0446 142.807 56.0982 149.669 58.1298C156.49 60.2438 162.978 63.3141 168.94 67.2494C174.828 71.2581 180.125 76.0738 184.676 81.5556C189.164 87.1034 192.849 93.2556 195.624 99.8315C198.319 106.46 200.063 113.438 200.804 120.557C201.419 127.645 201.041 134.784 199.678 141.766Z" fill="url(#paint2_linear_1954_3151)"/>
</g>
<defs>
<linearGradient id="paint0_linear_1954_3151" x1="55.0059" y1="100.428" x2="101.971" y2="183.429" gradientUnits="userSpaceOnUse">
<stop stop-color="#ED2A24"/>
<stop offset="1" stop-color="#F3AE1B"/>
</linearGradient>
<linearGradient id="paint1_linear_1954_3151" x1="55.0059" y1="79.6052" x2="149.974" y2="194.981" gradientUnits="userSpaceOnUse">
<stop stop-color="#ED2A24"/>
<stop offset="1" stop-color="#F3AE1B"/>
</linearGradient>
<linearGradient id="paint2_linear_1954_3151" x1="55.0059" y1="58.5193" x2="194.238" y2="197.124" gradientUnits="userSpaceOnUse">
<stop stop-color="#ED2A24"/>
<stop offset="1" stop-color="#F3AE1B"/>
</linearGradient>
<clipPath id="clip0_1954_3151">
<rect width="256" height="256" fill="white"/>
</clipPath>
</defs>
</svg>
