<svg width="128" height="128" viewBox="0 0 128 128" fill="none" xmlns="http://www.w3.org/2000/svg">
<g clip-path="url(#clip0_1159_12)">
<path d="M64 128C99.3462 128 128 99.3462 128 64C128 28.6538 99.3462 0 64 0C28.6538 0 0 28.6538 0 64C0 99.3462 28.6538 128 64 128Z" fill="#E8F0EB"/>
<path d="M45.7385 102C39.3189 102 33.2876 99.4508 28.7861 94.8286C24.3763 90.2987 21.9314 85.4772 22.0015 79.1332C22.0716 72.8942 24.5003 68.1705 28.8634 63.7311C33.3595 59.156 39.5221 56.6375 45.9148 56.6375H59.511V38.1232C59.511 36.7979 60.034 35.5287 60.9635 34.5909L68.0411 27.4629C68.9724 26.5269 70.2325 26 71.5484 26H82.1065C88.4399 26 94.5485 28.4804 99.0302 32.985C103.524 37.5022 106 42.195 106 48.5898C106 54.9845 103.53 59.8638 99.0464 64.3793C94.5629 68.8948 88.6017 71.3824 82.261 71.3824H69.2887V89.8768C69.2887 91.202 68.7657 92.4713 67.8362 93.409L60.7586 100.537C59.8291 101.473 58.5672 102 57.2513 102H45.7367H45.7385ZM46.0262 65.2737C37.6614 65.2737 30.857 70.9949 30.8624 79.4192C30.866 87.8147 37.8214 93.3656 46.1575 93.3656H59.2593V74.8694C59.2593 73.5441 59.7823 72.275 60.7118 71.3371L67.9171 64.209C68.8465 63.2731 70.1085 62.7463 71.4244 62.7463H82.2306C90.5953 62.7463 97.3997 57.0051 97.3944 48.5808C97.3908 40.1855 90.4353 34.6343 82.0993 34.6343H69.5404V53.1505C69.5404 54.4757 69.0172 55.7449 68.0879 56.6829L61.0103 63.8108C60.0808 64.7469 58.8188 65.2737 57.5028 65.2737H46.0262Z" fill="#134447"/>
</g>
<defs>
<clipPath id="clip0_1159_12">
<rect width="128" height="128" fill="white"/>
</clipPath>
</defs>
</svg>
