<svg width="256" height="256" viewBox="0 0 256 256" fill="none" xmlns="http://www.w3.org/2000/svg">
<g clip-path="url(#clip0_1159_12)">
<path d="M128 256C198.692 256 256 198.692 256 128C256 57.3076 198.692 0 128 0C57.3076 0 0 57.3076 0 128C0 198.692 57.3076 256 128 256Z" fill="#E8F0EB"/>
<path d="M91.4771 204C78.6377 204 66.5751 198.902 57.5721 189.657C48.7525 180.597 43.8627 170.954 44.0029 158.266C44.1432 145.788 49.0006 136.341 57.7267 127.462C66.719 118.312 79.0442 113.275 91.8296 113.275H119.022V76.2464C119.022 73.5958 120.068 71.0575 121.927 69.1818L136.082 54.9258C137.945 53.0537 140.465 52 143.097 52H164.213C176.88 52 189.097 56.9608 198.06 65.9699C207.049 75.0044 212 84.39 212 97.1797C212 109.969 207.06 119.728 198.093 128.759C189.126 137.79 177.203 142.765 164.522 142.765H138.577V179.754C138.577 182.404 137.531 184.943 135.672 186.818L121.517 201.074C119.658 202.946 117.134 204 114.503 204H91.4735H91.4771ZM92.0523 130.547C75.3228 130.547 61.7141 141.99 61.7249 158.838C61.7321 175.629 75.6428 186.731 92.3149 186.731H118.519V149.739C118.519 147.088 119.565 144.55 121.424 142.674L135.834 128.418C137.693 126.546 140.217 125.493 142.849 125.493H164.461C181.191 125.493 194.799 114.01 194.789 97.1615C194.782 80.3709 180.871 69.2687 164.199 69.2687H139.081V106.301C139.081 108.951 138.034 111.49 136.176 113.366L122.021 127.622C120.162 129.494 117.638 130.547 115.006 130.547H92.0523Z" fill="#134447"/>
</g>
<defs>
<clipPath id="clip0_1159_12">
<rect width="256" height="256" fill="white"/>
</clipPath>
</defs>
</svg>
