<svg width="256" height="256" viewBox="0 0 256 256" fill="none" xmlns="http://www.w3.org/2000/svg">
<g clip-path="url(#clip0_1254_5)">
<path d="M0 128C0 57.308 57.308 0 128 0C198.692 0 256 57.308 256 128C256 198.692 198.692 256 128 256C57.308 256 0 198.692 0 128Z" fill="black"/>
<path d="M84 188V69.704H100.12V84.68H100.488C102.45 81.3117 104.99 78.3152 107.992 75.828C111.08 73.299 114.593 71.3404 118.368 70.044C122.256 68.6813 126.485 68 131.056 68C139.269 68 146.433 69.9 152.548 73.7C158.724 77.4467 163.511 82.78 166.908 89.7C170.303 96.5667 172 104.653 172 113.96V114.048C172 123.352 170.271 131.437 166.812 138.304C163.415 145.171 158.66 150.504 152.548 154.304C146.497 158.048 139.427 159.92 131.336 159.92C126.829 159.92 122.599 159.267 118.644 157.96C114.827 156.671 111.256 154.744 108.084 152.26C105.061 149.769 102.491 146.774 100.488 143.408H100.116V188H84ZM127.908 146.808C133.588 146.808 138.497 145.475 142.636 142.808C146.775 140.141 149.955 136.368 152.176 131.488C154.4 126.552 155.512 120.737 155.512 114.044V113.956C155.512 107.148 154.4 101.304 152.176 96.424C149.955 91.4907 146.775 87.7173 142.636 85.104C138.5 82.4373 133.591 81.104 127.908 81.104C122.473 81.104 117.656 82.4667 113.456 85.192C109.256 87.912 105.952 91.7413 103.544 96.68C101.197 101.56 100.024 107.32 100.024 113.96V114.04C100.024 120.624 101.229 126.384 103.64 131.32C106.048 136.2 109.32 140 113.456 142.72C117.656 145.448 122.473 146.811 127.908 146.808Z" fill="white"/>
</g>
<defs>
<clipPath id="clip0_1254_5">
<rect width="256" height="256" fill="white"/>
</clipPath>
</defs>
</svg>
