<svg width="256" height="256" viewBox="0 0 256 256" fill="none" xmlns="http://www.w3.org/2000/svg">
<g clip-path="url(#clip0_2087_1436)">
<path d="M256 128C256 57.3076 198.692 0 128 0C57.3076 0 0 57.3076 0 128C0 198.692 57.3076 256 128 256C198.692 256 256 198.692 256 128Z" fill="white"/>
<path fill-rule="evenodd" clip-rule="evenodd" d="M83.8631 57.5804C87.7072 53.2 91.2105 49.4615 94.5573 46.3311C37.9913 44.4956 54.4571 85.6979 36.0245 127.57C14.7983 175.793 38.5221 194.171 73.873 199.897C68.9729 194.069 64.9724 187.403 61.9273 180.208C39.0082 151.133 48.2328 98.1633 83.8631 57.5804Z" fill="#B3D234"/>
<path fill-rule="evenodd" clip-rule="evenodd" d="M219.975 108.949C214.712 123.886 205.051 140.648 191.396 157.144C180.752 169.998 168.918 180.121 156.704 187.452C142.585 196.669 125.069 202.108 105.485 202.108C94.5228 202.108 83.7449 201.494 73.8721 199.895C79.7052 206.826 86.7955 212.58 95.0424 216.594C146.183 241.514 149.413 195.222 203.52 171.732C233.904 158.541 234.016 132.754 219.975 108.949Z" fill="#0095D9"/>
<path fill-rule="evenodd" clip-rule="evenodd" d="M156.686 60.7753C164.229 62.1603 171.386 64.6601 177.795 68.3086C194.97 78.0996 210.614 93.0817 219.973 108.948C229.187 82.8009 224.896 62.2448 204.737 58.5232C182.583 54.4412 165.262 53.1294 148.618 41.4184C128.118 26.9937 110.149 31.7512 94.5547 46.3336C95.6554 46.3674 96.7784 46.4181 97.935 46.4857C119.569 47.7694 140.214 52.0146 156.686 60.7753Z" fill="#EEE809"/>
<path fill-rule="evenodd" clip-rule="evenodd" d="M83.8629 57.5808C48.2326 98.1638 39.0079 151.133 61.9271 180.208C51.6353 155.868 52.3504 125.51 66.8551 101.272C86.1649 68.999 124.896 54.929 156.688 60.7788C140.217 52.0125 119.571 47.7729 97.9429 46.4836C96.7808 46.416 95.6577 46.371 94.557 46.3315C91.2102 49.462 87.707 53.2005 83.8629 57.5808Z" fill="#51B849"/>
<path fill-rule="evenodd" clip-rule="evenodd" d="M177.793 68.3106C171.385 64.6566 164.227 62.1624 156.685 60.7773C178.375 72.3138 192.807 91.6988 192.645 122.575C192.499 149.364 178.766 173.039 156.701 187.453C168.915 180.122 180.755 169.999 191.393 157.145C205.054 140.648 214.709 123.887 219.972 108.95C210.613 93.0838 194.969 78.096 177.793 68.3106Z" fill="#00845D"/>
<path fill-rule="evenodd" clip-rule="evenodd" d="M153.118 172.773C128.629 188.628 95.9767 181.556 80.1814 156.975C64.3861 132.393 72.1971 100.74 95.9153 83.7475C122.438 64.751 156.454 72.2449 168.852 99.546C180.943 126.166 177.602 156.918 153.118 172.773ZM156.688 60.776C124.897 54.9318 86.1654 68.9962 66.8556 101.269C52.351 125.507 51.6302 155.871 61.9276 180.205C64.9727 187.401 68.9676 194.073 73.8733 199.9C83.7461 201.499 94.524 202.107 105.481 202.107C125.07 202.107 142.586 196.668 156.7 187.451C178.77 173.044 192.503 149.363 192.643 122.574C192.81 91.6974 178.373 72.3124 156.688 60.776Z" fill="#005121"/>
</g>
<defs>
<clipPath id="clip0_2087_1436">
<rect width="256" height="256" fill="white"/>
</clipPath>
</defs>
</svg>
