<svg width="256" height="256" viewBox="0 0 256 256" fill="none" xmlns="http://www.w3.org/2000/svg">
<path d="M104.576 39.9361C94.976 49.5361 92.288 63.7441 97.408 76.2881C102.656 88.8321 114.944 96.6401 128.128 96.6401C141.312 96.6401 153.6 88.5761 158.848 76.1601C163.968 63.4881 161.152 49.7921 151.68 39.8081C145.664 33.7921 137.088 30.0801 128.128 30.0801C119.168 30.0801 110.592 33.9201 104.576 39.9361Z" fill="#FF6666"/>
<path d="M41.8559 42.1119C-5.50406 89.7279 -5.50406 166.4 41.8559 214.016L214.144 42.1119C166.4 -5.5041 89.2159 -5.5041 41.8559 42.1119ZM106.368 85.1199C94.5919 73.3439 94.5919 54.0159 106.368 42.1119C118.144 30.2079 137.6 30.3359 149.376 42.1119C161.152 53.8879 161.152 73.2159 149.376 85.1199C137.344 96.7679 118.272 96.7679 106.368 85.1199Z" fill="#FF6666"/>
<path d="M214.144 213.888C166.528 166.272 89.3444 166.4 41.8564 214.016L214.144 42.1118C261.376 89.5998 261.376 166.4 214.144 213.888Z" fill="#D95E59"/>
<path d="M214.144 213.888C166.528 261.504 89.3444 261.632 41.8564 214.016C88.9604 166.528 166.4 166.4 214.144 213.888Z" fill="#FFF4C7"/>
<path d="M116.992 52.8639C112.64 57.2159 111.36 63.7439 113.664 69.3759C116.096 75.0079 121.6 78.8479 127.744 78.8479C133.888 78.8479 139.392 75.0079 141.824 69.3759C144.256 63.7439 142.976 57.2159 138.496 52.8639C135.424 49.7919 131.84 48.2559 127.616 48.2559C123.904 48.3839 119.936 49.9199 116.992 52.8639Z" fill="#FF6666"/>
<path d="M202.681 146.248C192.329 187.766 150.273 213.033 108.745 202.68C67.2349 192.329 41.9649 150.275 52.3213 108.76C62.6686 67.2375 104.725 41.9684 146.24 52.3191C187.764 62.6697 213.033 104.728 202.68 146.248L202.681 146.248H202.681Z" fill="white"/>
<path d="M194.859 144.51C185.584 181.8 147.904 204.495 110.697 195.196C73.5052 185.899 50.8644 148.127 60.1432 110.84C69.414 73.5456 107.094 50.8497 144.29 60.1464C181.494 69.443 204.134 107.219 194.858 144.511L194.859 144.51H194.859Z" fill="#F7931A"/>
<path d="M158.122 117.754C159.504 108.491 152.468 103.511 142.847 100.19L145.968 87.6417L138.348 85.7385L135.31 97.9561C133.306 97.4552 131.249 96.9833 129.204 96.5155L132.265 84.2173L124.649 82.314L121.526 94.8578C119.868 94.4795 118.24 94.1056 116.66 93.7116L116.669 93.6721L106.16 91.0417L104.133 99.2C104.133 99.2 109.787 100.499 109.668 100.579C112.754 101.351 113.312 103.398 113.219 105.021L109.664 119.317C109.876 119.371 110.152 119.449 110.456 119.571C110.202 119.508 109.931 119.439 109.651 119.372L104.667 139.397C104.29 140.337 103.333 141.747 101.175 141.211C101.252 141.322 95.6369 139.826 95.6369 139.826L91.8535 148.569L101.77 151.047C103.615 151.511 105.423 151.996 107.203 152.453L104.05 165.144L111.661 167.048L114.784 154.491C116.864 155.056 118.882 155.578 120.857 156.07L117.745 168.568L125.366 170.472L128.519 157.804C141.513 160.269 151.284 159.275 155.396 147.494C158.71 138.008 155.231 132.537 148.395 128.97C153.374 127.819 157.125 124.536 158.125 117.755L158.122 117.753L158.122 117.754ZM140.711 142.226C138.356 151.711 122.424 146.584 117.258 145.298L121.443 128.484C126.608 129.776 143.172 132.334 140.711 142.226ZM143.068 117.617C140.92 126.244 127.659 121.861 123.357 120.786L127.151 105.537C131.453 106.611 145.306 108.617 143.069 117.617H143.068Z" fill="white"/>
</svg>
