<svg width="256" height="256" viewBox="0 0 256 256" fill="none" xmlns="http://www.w3.org/2000/svg">
<path d="M128.858 0.000706881C154.137 0.170258 178.8 7.82126 199.736 21.9889C220.672 36.1565 236.945 56.2063 246.501 79.6098C256.058 103.013 258.47 128.723 253.435 153.496C248.399 178.269 236.141 200.996 218.207 218.811C200.272 236.627 177.463 248.733 152.657 253.602C127.852 258.472 102.159 255.888 78.8203 246.175C55.4813 236.462 35.5409 220.056 21.5137 199.025C7.48647 177.995 0.000568594 153.281 0 128.002C0.114758 93.9402 13.7551 61.3192 37.9206 37.3146C62.086 13.3099 94.7972 -0.112222 128.858 0.000706881Z" fill="white"/>
<path d="M150.424 162.942H61V95.3782C61 71.4149 80.5614 52 104.706 52H150.424C181.275 52 206.313 76.851 206.313 107.471C206.313 138.091 181.275 162.942 150.424 162.942Z" fill="url(#paint0_linear_1774_554)"/>
<path d="M105.712 96.3766C78.3258 82.7307 76.0902 69.1958 78.5493 60.6533C67.9303 68.5302 61 81.1776 61 95.378V162.942H150.424C163.613 162.942 175.685 158.393 185.187 150.849C180.492 118.01 143.046 114.904 105.712 96.3766Z" fill="url(#paint1_linear_1774_554)"/>
<path d="M61 107.472V162.943V178.696C61 196.891 80.3378 208.762 96.7694 200.663L102.135 198C128.962 184.687 126.167 145.858 97.7754 136.428C77.4316 129.771 61 125.333 61 107.472Z" fill="url(#paint2_linear_1774_554)"/>
<path d="M111.413 52C117.896 59.2112 131.757 68.3085 161.602 74.1884C178.816 77.6276 192.788 84.1731 203.966 91.6063C197.148 68.7522 175.686 52 150.424 52H111.413Z" fill="url(#paint3_linear_1774_554)"/>
<defs>
<linearGradient id="paint0_linear_1774_554" x1="127.08" y1="111.623" x2="160.38" y2="72.7079" gradientUnits="userSpaceOnUse">
<stop stop-color="#0080EE"/>
<stop offset="1" stop-color="#01C5F6"/>
</linearGradient>
<linearGradient id="paint1_linear_1774_554" x1="104.195" y1="143.208" x2="129.578" y2="107.834" gradientUnits="userSpaceOnUse">
<stop stop-color="#725BFF"/>
<stop offset="1" stop-color="#9665FB"/>
</linearGradient>
<linearGradient id="paint2_linear_1774_554" x1="75.9467" y1="203.187" x2="100.3" y2="140.6" gradientUnits="userSpaceOnUse">
<stop stop-color="#3C31D6"/>
<stop offset="0.9804" stop-color="#2880FA"/>
</linearGradient>
<linearGradient id="paint3_linear_1774_554" x1="175.711" y1="61.2273" x2="163.671" y2="77.6391" gradientUnits="userSpaceOnUse">
<stop stop-color="#00E5CC"/>
<stop offset="0.9358" stop-color="#10DCC6"/>
</linearGradient>
</defs>
</svg>
