<svg width="315" height="315" viewBox="0 0 315 315" fill="none" xmlns="http://www.w3.org/2000/svg">
<g filter="url(#filter0_d_1376_471)">
<path d="M157.502 273.502C228.195 273.502 285.502 216.194 285.502 145.502C285.502 74.8095 228.195 17.502 157.502 17.502C86.81 17.502 29.5024 74.8095 29.5024 145.502C29.5024 216.194 86.81 273.502 157.502 273.502Z" fill="url(#paint0_linear_1376_471)"/>
<path d="M157.502 271.005C226.816 271.005 283.005 214.816 283.005 145.502C283.005 76.1894 226.816 20 157.502 20C88.1894 20 32 76.1894 32 145.502C32 214.816 88.1894 271.005 157.502 271.005Z" stroke="url(#paint1_radial_1376_471)" stroke-opacity="0.5" stroke-width="16"/>
</g>
<path d="M208.39 143.339C210.055 144.3 210.055 146.703 208.39 147.665L133.932 190.653C132.267 191.615 130.185 190.413 130.185 188.49V102.513C130.185 100.621 132.202 99.4265 133.853 100.307L133.932 100.35L208.39 143.339Z" fill="url(#paint2_linear_1376_471)" stroke="url(#paint3_linear_1376_471)" stroke-width="8" stroke-linejoin="round"/>
<defs>
<filter id="filter0_d_1376_471" x="0" y="0" width="315.005" height="315.005" filterUnits="userSpaceOnUse" color-interpolation-filters="sRGB">
<feFlood flood-opacity="0" result="BackgroundImageFix"/>
<feColorMatrix in="SourceAlpha" type="matrix" values="0 0 0 0 0 0 0 0 0 0 0 0 0 0 0 0 0 0 127 0" result="hardAlpha"/>
<feOffset dy="12"/>
<feGaussianBlur stdDeviation="12"/>
<feComposite in2="hardAlpha" operator="out"/>
<feColorMatrix type="matrix" values="0 0 0 0 0.866667 0 0 0 0 0.141176 0 0 0 0 0.462745 0 0 0 0.4 0"/>
<feBlend mode="normal" in2="BackgroundImageFix" result="effect1_dropShadow_1376_471"/>
<feBlend mode="normal" in="SourceGraphic" in2="effect1_dropShadow_1376_471" result="shape"/>
</filter>
<linearGradient id="paint0_linear_1376_471" x1="29.5024" y1="17.502" x2="285.502" y2="273.502" gradientUnits="userSpaceOnUse">
<stop stop-color="#FF632F"/>
<stop offset="1" stop-color="#DC148C"/>
</linearGradient>
<radialGradient id="paint1_radial_1376_471" cx="0" cy="0" r="1" gradientUnits="userSpaceOnUse" gradientTransform="translate(157.502 145.502) rotate(45) scale(181.019)">
<stop offset="0.68" stop-color="white" stop-opacity="0"/>
<stop offset="0.72" stop-color="white"/>
</radialGradient>
<linearGradient id="paint2_linear_1376_471" x1="157.502" y1="88.3701" x2="157.502" y2="202.633" gradientUnits="userSpaceOnUse">
<stop stop-color="white"/>
<stop offset="1" stop-color="white" stop-opacity="0.4"/>
</linearGradient>
<linearGradient id="paint3_linear_1376_471" x1="157.502" y1="88.3701" x2="157.502" y2="202.633" gradientUnits="userSpaceOnUse">
<stop stop-color="white" stop-opacity="0"/>
<stop offset="1" stop-color="white" stop-opacity="0.5"/>
</linearGradient>
</defs>
</svg>
