<svg width="256" height="256" viewBox="0 0 256 256" fill="none" xmlns="http://www.w3.org/2000/svg">
<g clip-path="url(#clip0_1741_247)">
<path d="M256 128C256 57.3076 198.692 0 128 0C57.3076 0 0 57.3076 0 128C0 198.692 57.3076 256 128 256C198.692 256 256 198.692 256 128Z" fill="#B6FFA8"/>
<path d="M70.933 106.912C75.2148 98.3488 84.3134 87.2858 88.3276 82.8276L159.244 74.7993C164.595 81.04 175.567 93.7994 176.638 94.8698C177.975 96.2078 179.314 100.222 180.652 100.222C181.99 100.222 186.004 102.898 186.004 104.236C186.004 105.307 185.11 105.574 184.666 105.574V120.292C184.666 122.433 181.097 125.645 179.314 126.982C180.203 127.427 182.258 128.589 183.328 129.659C184.399 130.729 185.554 133.672 186.004 135.011C184.217 141.251 180.652 155.081 180.652 160.434C180.652 167.124 179.314 167.124 176.638 171.138C173.962 175.152 164.595 187.195 160.581 189.871C156.567 192.546 141.849 207.265 136.497 208.603C131.145 209.941 116.427 209.941 107.06 209.941C97.6938 209.941 81.6373 207.265 73.6092 205.927C65.5809 204.589 54.8767 193.885 53.5386 188.532C52.2005 183.181 53.5386 163.109 54.8767 152.405C56.2147 141.701 65.5809 117.617 70.933 106.912Z" fill="#3D8130"/>
<path fill-rule="evenodd" clip-rule="evenodd" d="M159.796 73.3867L160.257 73.922C165.647 80.2107 176.56 92.8953 177.582 93.9176C178.048 94.3832 178.454 95.0094 178.791 95.5821C179.001 95.93 179.219 96.3314 179.434 96.7114L179.808 97.3804C180.14 97.9584 180.423 98.4134 180.67 98.7078C180.723 98.772 180.781 98.8328 180.842 98.8898C181.468 98.9699 182.075 99.1602 182.635 99.4517C183.277 99.7621 183.972 100.18 184.609 100.635C185.241 101.089 185.867 101.609 186.349 102.144C186.59 102.411 186.819 102.706 186.996 103.022C187.168 103.318 187.278 103.646 187.321 103.986C187.363 104.326 187.339 104.671 187.246 105.001C187.154 105.331 186.996 105.64 186.784 105.908C186.571 106.176 186.306 106.4 186.006 106.565V120.288C185.966 121.153 185.7 121.993 185.235 122.723C184.807 123.451 184.245 124.168 183.651 124.832C183.025 125.528 182.33 126.196 181.677 126.769C182.587 127.326 183.582 128.016 184.272 128.706C184.994 129.429 185.637 130.634 186.113 131.666C186.617 132.758 187.039 133.876 187.275 134.584L187.403 134.974L187.291 135.375C186.402 138.479 185.07 143.473 183.962 148.349C182.843 153.278 181.993 157.93 181.993 160.429C181.993 163.843 181.654 165.764 180.847 167.387C180.452 168.136 179.99 168.847 179.466 169.512L179.209 169.854C178.765 170.443 178.288 171.069 177.754 171.877C175.361 175.31 172.821 178.639 170.143 181.853C168.542 183.791 166.889 185.696 165.379 187.296C163.886 188.87 162.462 190.219 161.322 190.978C160.412 191.588 158.806 192.943 156.756 194.741L154.562 196.678C153.09 197.973 151.511 199.376 149.917 200.747C147.482 202.845 144.982 204.921 142.745 206.564C140.566 208.159 138.447 209.491 136.82 209.899C133.983 210.605 128.813 210.942 123.322 211.108C117.782 211.274 111.745 211.274 107.068 211.274C97.5888 211.274 81.4575 208.587 73.456 207.254L73.3918 207.244C68.9923 206.511 64.0737 203.283 60.1613 199.718C58.181 197.915 56.4148 195.972 55.0339 194.115C53.6799 192.285 52.6362 190.444 52.2401 188.853C51.8655 187.349 51.6995 184.947 51.6567 182.153C51.614 179.316 51.6995 175.934 51.8708 172.412C52.1915 165.668 52.7502 158.939 53.546 152.235C54.2418 146.717 56.9661 137.891 60.1398 129.194C63.3298 120.469 67.028 111.718 69.7363 106.308C74.1036 97.5731 83.304 86.3978 87.3341 81.9288L87.6713 81.5542L159.796 73.3867ZM88.9879 84.091C84.8347 88.7581 76.2124 99.3447 72.1286 107.506C69.4847 112.8 65.8239 121.449 62.6554 130.114C59.4763 138.812 56.8536 147.38 56.2061 152.566C55.4165 159.201 54.8613 165.861 54.5415 172.536C54.3757 175.726 54.3061 178.921 54.3328 182.115C54.3757 184.914 54.5469 187.034 54.8359 188.206C55.1036 189.288 55.9063 190.792 57.1855 192.521C58.4433 194.217 60.0971 196.036 61.965 197.744C65.7489 201.196 70.1966 204 73.8307 204.605C81.9016 205.949 97.8296 208.597 107.062 208.597C111.745 208.597 117.745 208.597 123.242 208.432C128.791 208.266 133.662 207.929 136.173 207.302C137.221 207.035 138.956 206.024 141.161 204.408C143.312 202.828 145.747 200.805 148.172 198.718C149.75 197.353 151.308 195.978 152.769 194.688L154.996 192.729C157.003 190.973 158.742 189.481 159.84 188.752C160.706 188.174 161.959 187.018 163.436 185.455C167.801 180.713 171.84 175.681 175.526 170.395C176.11 169.517 176.635 168.815 177.078 168.233L177.325 167.905C177.823 167.242 178.176 166.739 178.449 166.188C178.985 165.128 179.316 163.705 179.316 160.429C179.316 157.576 180.247 152.636 181.349 147.755C182.426 143.028 183.705 138.207 184.604 135.043C184.331 134.281 184.023 133.531 183.683 132.796C183.202 131.752 182.731 130.949 182.383 130.602C181.473 129.692 179.6 128.616 178.717 128.177L176.779 127.208L178.513 125.907C179.354 125.276 180.622 124.194 181.665 123.039C182.185 122.461 182.629 121.893 182.924 121.379C183.146 121.054 183.285 120.68 183.33 120.288V104.231H184.598C184.527 104.128 184.448 104.03 184.363 103.937C183.966 103.519 183.526 103.142 183.052 102.813C182.553 102.452 182.025 102.134 181.473 101.86C181.274 101.763 181.068 101.678 180.858 101.609C180.707 101.56 180.643 101.555 180.643 101.555C179.659 101.555 178.985 100.859 178.62 100.431C178.193 99.8903 177.813 99.3138 177.486 98.7078L177.057 97.9478C176.874 97.6115 176.684 97.2778 176.49 96.9469C176.266 96.5398 175.997 96.1591 175.687 95.8122C174.606 94.7258 164.159 82.5817 158.689 76.202L88.9879 84.091Z" fill="black"/>
<path d="M105.17 112.265L101.156 109.588" stroke="black" stroke-width="0.2"/>
<path d="M188.609 140.364C188.609 138.223 186.827 135.9 185.933 135.011C185.933 135.456 185.665 136.885 184.595 139.026C183.257 141.702 181.919 147.054 175.229 148.393C168.539 149.73 159.172 151.068 152.482 149.73C145.792 148.393 129.735 147.054 125.722 145.716C121.708 144.378 109.665 143.04 106.989 141.702C104.313 140.364 97.6227 139.026 96.2847 140.364C94.9467 141.702 96.2847 147.054 101.637 149.73C106.989 152.406 115.018 156.42 119.031 157.758C123.045 159.097 132.412 163.11 137.764 163.11C143.116 163.11 151.145 164.448 155.158 164.448C159.172 164.448 167.201 163.11 169.876 163.11C172.553 163.11 176.566 163.11 180.581 159.097C184.595 155.083 184.595 152.406 184.595 151.068C184.595 150.244 184.574 148.327 184.365 147.477C184.447 147.337 184.524 147.194 184.595 147.049C185.933 144.372 188.609 143.04 188.609 140.364Z" fill="#983C1F"/>
<path d="M101.637 143.04C102.531 143.484 104.58 144.645 105.651 145.716C106.989 147.054 109.665 147.054 113.679 148.393C117.693 149.73 128.398 152.406 131.074 152.406C133.749 152.406 141.778 153.744 148.468 155.083C155.158 156.42 160.51 155.083 163.186 155.083H175.229C177.905 155.083 183.257 149.73 184.595 147.054C185.933 144.378 188.609 143.04 188.609 140.364C188.609 138.223 186.827 135.9 185.933 135.011C185.933 135.456 185.665 136.885 184.595 139.026C183.257 141.702 181.919 147.054 175.229 148.393C168.539 149.73 159.172 151.068 152.482 149.73C145.792 148.393 129.735 147.054 125.722 145.716C121.708 144.378 109.665 143.04 106.989 141.702C104.313 140.364 97.6227 139.026 96.2847 140.364C94.9467 141.702 96.2847 147.054 101.637 149.73C106.989 152.406 115.018 156.42 119.031 157.758C123.045 159.097 132.412 163.11 137.764 163.11C143.116 163.11 151.145 164.448 155.158 164.448C159.172 164.448 167.201 163.11 169.876 163.11C172.553 163.11 176.566 163.11 180.581 159.097C184.595 155.083 184.595 152.406 184.595 151.068C184.595 149.998 184.558 147.054 184.113 147.054" stroke="black" stroke-width="0.2"/>
<path d="M157.355 113.603C155.214 114.674 153.785 118.506 153.341 120.294C153.153 120.957 155.047 121.46 156.017 121.632C158.249 121.632 163.777 121.9 168.059 122.97C173.411 124.307 181.439 118.956 182.778 117.617C184.115 116.28 184.115 114.942 182.778 114.942C181.439 114.942 177.425 110.927 174.749 109.59C172.074 108.252 164.045 108.252 162.707 109.59C161.369 110.927 160.031 112.266 157.355 113.603ZM119.89 109.59C112.397 109.59 106.065 111.372 103.833 112.266C104.727 112.266 107.044 112.534 109.185 113.603L114.538 116.28C117.214 117.617 121.228 120.294 125.242 121.632C129.257 122.97 135.947 122.97 137.284 122.97C138.622 122.97 142.637 121.632 143.974 121.632C145.312 121.632 146.651 121.632 146.651 120.294C146.651 118.956 145.312 117.617 145.312 116.28C145.312 114.942 142.637 110.927 141.298 109.59C139.961 108.252 138.622 108.252 135.947 108.252C133.27 108.252 129.257 109.59 119.89 109.59Z" fill="white" stroke="black" stroke-width="0.2"/>
<path d="M115.874 112.266L119.889 108.252H131.931C132.825 109.59 134.607 112.801 134.607 114.942C134.607 117.083 130.593 120.738 129.254 121.632C127.917 121.632 124.705 121.364 122.564 120.294C120.423 119.224 116.768 116.724 114.537 116.28C114.537 115.386 114.804 113.336 115.874 112.266ZM158.691 113.603C159.762 112.534 161.812 111.816 162.706 110.927L166.72 108.252L172.071 109.59C172.965 110.927 174.748 112.266 174.748 116.28C174.748 120.294 173.41 122.076 172.071 122.97C170.734 122.97 164.847 122.702 162.706 121.632C160.565 120.561 159.585 120.738 157.354 120.294C157.354 119.4 157.621 114.674 158.691 113.603Z" fill="black"/>
<path d="M90.4506 82.8286C91.5211 82.8286 94.4648 84.6109 95.8028 85.5046C98.923 87.7311 106.239 92.4624 110.522 93.5329C115.873 94.8709 125.239 94.8709 130.592 93.5329C135.943 92.1947 157.353 89.5187 160.029 89.5187C162.17 89.5187 170.733 88.5125 173.409 88.5125L176.855 94.8709C178.638 94.4213 181.972 93.8004 184.113 94.8709L197.493 101.561C198.831 102.005 201.775 102.364 202.846 100.223C203.916 98.0821 199.725 93.977 197.493 92.1947L178.761 84.1666C178.317 78.3649 177.423 65.9694 177.423 62.7581C177.423 58.7439 174.747 54.7298 173.409 52.0537C172.07 49.3777 164.043 45.3636 160.029 44.0256C156.014 42.6874 141.296 42.6874 138.62 44.0256C135.943 45.3636 114.535 48.0397 111.859 49.3777C109.183 50.7157 98.4788 53.3918 97.1408 53.3918C95.8028 53.3918 93.1266 56.0678 91.7886 57.4058C90.4506 58.7439 89.1125 61.42 87.7745 64.0961C86.4365 66.7721 83.7604 74.8003 83.7604 77.4765C83.7604 80.1525 89.1125 82.8286 90.4506 82.8286Z" fill="#C82727"/>
<path d="M107.845 46.2404C103.564 48.3813 99.373 52.0367 98.4792 52.9306L119.888 47.5785C118.994 46.2404 118.17 45.384 117.212 44.9023C114.535 43.5643 113.198 43.5643 107.845 46.2404Z" fill="#C82727"/>
<path fill-rule="evenodd" clip-rule="evenodd" d="M113.698 45.3959C112.611 45.5298 111.129 46.0917 108.443 47.4352C106.891 48.2112 105.343 49.2014 103.973 50.1754L117.547 46.7822C117.271 46.5066 116.956 46.2756 116.61 46.097C115.367 45.4762 114.651 45.2728 113.698 45.3959ZM113.361 42.736C115.085 42.5219 116.374 42.9875 117.803 43.7047C119.072 44.3363 120.051 45.4174 120.998 46.8357L122.052 48.4146L94.1146 55.3991L97.5293 51.9844C98.4872 51.0264 102.796 47.2692 107.244 45.0428C109.908 43.7101 111.772 42.9339 113.361 42.736Z" fill="black"/>
<path d="M168.937 186.221C167.989 187.163 162.246 190.235 162.246 192.911C161.952 193.232 161.636 194.42 162.706 196.556C164.045 199.232 160.031 193.879 158.692 191.203C157.355 188.528 151.542 179.531 150.204 179.531C147.527 178.193 146.19 176.854 143.514 178.193C140.837 179.531 140.837 183.545 142.176 184.883C143.246 185.953 147.084 190.679 148.866 192.911C148.421 195.587 147.795 201.206 148.866 202.277C150.204 203.615 155.556 208.967 159.57 210.305C163.584 211.644 172.95 212.981 176.964 212.981C180.979 212.981 191.683 212.981 195.697 210.305C199.711 207.63 201.05 207.63 201.05 202.277C201.05 196.925 195.697 190.235 194.359 188.897C193.021 187.558 187.669 180.868 186.331 179.531C184.993 178.193 178.303 175.517 176.964 174.178C175.627 172.841 172.95 168.827 170.274 167.488C167.599 166.15 164.923 168.827 160.908 170.164C156.894 171.503 157.355 172.471 154.678 175.148C153.341 176.485 150.665 178.733 152.88 181.773C154.646 184.187 155.556 184.878 159.57 183.539C163.584 182.202 166.26 178.188 168.937 178.188C171.077 178.188 173.914 180.579 175.059 181.773C172.491 183.518 169.862 185.3 168.937 186.221Z" fill="#3D8130"/>
<path fill-rule="evenodd" clip-rule="evenodd" d="M165.55 166.599C167.123 165.904 168.959 165.336 170.869 166.289C172.465 167.087 173.953 168.607 175.124 169.95C175.654 170.555 176.153 171.159 176.586 171.689L176.763 171.904C177.254 172.503 177.63 172.952 177.908 173.231C178.09 173.407 178.588 173.745 179.45 174.215C180.252 174.66 181.232 175.152 182.243 175.661H182.259C183.249 176.159 184.277 176.672 185.133 177.143C185.947 177.592 186.787 178.091 187.274 178.583C187.986 179.295 189.666 181.313 191.289 183.25L191.369 183.357C193.076 185.401 194.687 187.333 195.302 187.949C196.062 188.704 197.796 190.802 199.348 193.392C200.884 195.951 202.383 199.227 202.383 202.277C202.383 205.012 202.062 206.767 200.906 208.148C200.342 208.785 199.691 209.336 198.969 209.786L197.908 210.466L197.791 210.541C197.374 210.808 196.924 211.092 196.437 211.419C195.233 212.221 193.627 212.767 191.941 213.152C190.228 213.549 188.323 213.806 186.45 213.976C182.708 214.319 178.983 214.319 176.976 214.319H176.96C174.851 214.319 171.431 213.971 168.065 213.462C164.709 212.965 161.268 212.286 159.143 211.573C156.879 210.819 154.374 208.999 152.356 207.318C150.302 205.606 148.594 203.899 147.92 203.224C147.616 202.902 147.392 202.514 147.267 202.09C147.147 201.7 147.065 201.301 147.021 200.896C146.929 199.981 146.907 199.059 146.957 198.14C147.026 196.459 147.246 194.634 147.449 193.285C145.533 190.898 142.166 186.766 141.23 185.824C140.159 184.754 139.817 182.934 140.01 181.372C140.212 179.739 141.058 177.924 142.91 176.993C144.559 176.175 145.929 176.136 147.278 176.587C147.899 176.796 148.487 177.09 149.038 177.39L149.557 177.674L149.905 177.86C150.183 177.539 150.473 177.255 150.735 177.004C150.992 176.764 151.196 176.587 151.377 176.425C151.575 176.244 151.751 176.088 151.934 175.907C152.251 175.573 152.556 175.229 152.849 174.873L153.117 174.563C153.626 173.969 154.236 173.268 154.942 172.562C156.345 171.159 158.191 169.655 160.481 168.896C161.379 168.584 162.255 168.214 163.104 167.788L163.885 167.397C164.447 167.119 165.025 166.84 165.55 166.599ZM148.637 180.221L148.225 179.996L147.77 179.744C147.342 179.501 146.895 179.293 146.432 179.123C145.779 178.91 145.142 178.871 144.109 179.391C143.291 179.798 142.798 180.659 142.663 181.703C142.525 182.811 142.851 183.667 143.119 183.935C144.259 185.07 148.15 189.881 149.905 192.07L150.281 192.542L150.183 193.129C149.97 194.431 149.702 196.448 149.632 198.252C149.595 199.156 149.605 199.965 149.681 200.58C149.709 200.85 149.766 201.116 149.852 201.373C150.542 202.063 152.154 203.663 154.069 205.263C156.066 206.923 158.244 208.453 159.989 209.037C161.884 209.663 165.132 210.321 168.461 210.819C171.79 211.316 175.055 211.643 176.96 211.643C178.973 211.643 182.596 211.643 186.209 211.311C188.013 211.151 189.79 210.904 191.337 210.546C192.91 210.182 194.146 209.727 194.955 209.191C195.468 208.844 195.939 208.549 196.362 208.281L196.475 208.207L197.481 207.559C198.144 207.116 198.557 206.783 198.851 206.435C199.364 205.814 199.707 204.888 199.707 202.277C199.707 199.975 198.529 197.23 197.058 194.768C196.015 193.006 194.794 191.356 193.413 189.844C192.695 189.126 191.015 187.115 189.398 185.171L189.313 185.064C187.612 183.025 185.995 181.088 185.379 180.472C184.905 180.09 184.389 179.76 183.843 179.488C183.035 179.043 182.055 178.556 181.044 178.048L181.034 178.043C180.066 177.566 179.108 177.072 178.159 176.56C177.388 176.172 176.669 175.688 176.018 175.12C175.555 174.635 175.115 174.13 174.697 173.605L174.514 173.38C174.076 172.851 173.61 172.284 173.113 171.711C171.946 170.378 170.757 169.222 169.67 168.682C168.906 168.302 168.07 168.403 166.636 169.045C166.155 169.26 165.683 169.49 165.159 169.757L164.271 170.196C163.393 170.624 162.414 171.069 161.327 171.427C159.609 172.005 158.11 173.178 156.831 174.456L156.756 174.536C157.12 174.703 157.494 174.89 157.847 175.093C158.314 175.361 158.796 175.682 159.186 176.062C159.437 176.286 159.641 176.557 159.785 176.86C159.93 177.164 160.012 177.492 160.027 177.828C160.027 179.407 159.298 180.446 158.298 181.446C158.174 181.574 158.027 181.677 157.863 181.747C157.7 181.817 157.525 181.854 157.347 181.856C157.17 181.858 156.993 181.824 156.829 181.757C156.665 181.691 156.515 181.591 156.389 181.465C156.263 181.34 156.163 181.19 156.096 181.026C156.029 180.862 155.995 180.686 155.996 180.509C155.997 180.331 156.034 180.155 156.103 179.991C156.174 179.828 156.275 179.681 156.403 179.557C157.099 178.861 157.308 178.476 157.345 178.005L157.313 177.973C157.07 177.755 156.802 177.566 156.515 177.411C155.981 177.115 155.427 176.857 154.857 176.64C154.486 177.074 154.128 177.496 153.823 177.801C153.573 178.045 153.318 178.281 153.058 178.513L152.576 178.952C152.193 179.292 151.852 179.677 151.559 180.098C151.351 180.389 151.235 180.736 151.222 181.093C151.222 181.388 151.318 181.81 151.741 182.388C152.292 183.149 153.037 183.47 154.23 183.432C155.515 183.394 157.12 182.95 159.143 182.276C160.855 181.703 162.311 180.568 163.821 179.396L163.929 179.311C164.677 178.733 165.454 178.133 166.24 177.679C167.022 177.229 167.932 176.854 168.932 176.854C170.42 176.854 171.946 177.646 173.107 178.422C173.893 178.942 174.617 179.531 175.2 180.054C176.029 179.488 176.821 178.942 177.522 178.438C177.811 178.245 178.164 178.174 178.507 178.237C178.848 178.3 179.152 178.493 179.354 178.775C179.555 179.059 179.639 179.409 179.587 179.752C179.535 180.096 179.351 180.406 179.074 180.616C178.1 181.313 176.955 182.099 175.81 182.876L175.542 183.062C174.343 183.876 173.161 184.679 172.155 185.391C171.357 185.929 170.597 186.521 169.879 187.163C169.655 187.376 169.415 187.573 169.163 187.751C168.865 187.964 168.565 188.172 168.263 188.378L168.247 188.388C167.573 188.853 166.802 189.389 166.059 189.967C165.314 190.556 164.656 191.144 164.195 191.712C163.709 192.306 163.58 192.702 163.58 192.911C163.58 195.153 164.693 197.32 166.855 198.402C168.322 199.135 169.895 199.445 170.885 199.553C171.293 198.375 171.983 197.086 172.545 196.02L173.091 194.988C173.733 193.697 174.884 192.45 175.954 191.455C177.046 190.449 178.175 189.603 178.898 189.121C179.044 189.018 179.21 188.945 179.385 188.906C179.559 188.867 179.74 188.865 179.916 188.897C180.092 188.93 180.259 188.997 180.409 189.096C180.558 189.195 180.686 189.323 180.786 189.471C180.885 189.62 180.954 189.788 180.987 189.964C181.02 190.14 181.018 190.32 180.98 190.495C180.942 190.67 180.869 190.836 180.767 190.982C180.663 191.128 180.532 191.253 180.381 191.348C179.46 191.974 178.587 192.669 177.769 193.424C176.768 194.35 175.906 195.335 175.484 196.187C175.264 196.62 175.034 197.058 174.803 197.492C174.247 198.53 173.707 199.548 173.38 200.527C173.199 200.976 173.124 201.461 173.161 201.945C173.193 202.132 173.257 202.272 173.546 202.416C174.285 202.79 175.649 202.925 177.196 202.844C178.106 202.801 178.951 202.689 179.594 202.572C179.973 201.244 180.97 199.782 182.912 198.487C184.411 197.487 185.31 196.572 185.829 195.94C186.055 195.665 186.258 195.372 186.434 195.062L186.445 195.041C186.593 194.726 186.859 194.482 187.184 194.36C187.51 194.239 187.871 194.248 188.189 194.387C188.508 194.527 188.759 194.784 188.892 195.106C189.024 195.428 189.025 195.789 188.896 196.111L188.885 196.137L188.869 196.176C188.801 196.323 188.724 196.466 188.639 196.604C188.418 196.965 188.171 197.311 187.9 197.636C186.891 198.83 185.709 199.868 184.395 200.714C181.612 202.572 182.093 204.198 182.174 204.353C182.58 205.167 183.094 205.451 183.597 205.536C184.336 205.611 185.079 205.456 185.727 205.092C188.275 203.819 191.631 201.276 193.242 198.856C193.443 198.573 193.747 198.379 194.09 198.315C194.432 198.252 194.785 198.324 195.075 198.517C195.364 198.71 195.568 199.008 195.642 199.348C195.714 199.688 195.652 200.044 195.468 200.339C193.515 203.272 189.731 206.082 186.926 207.485C185.813 208.042 184.475 208.4 183.148 208.18C181.75 207.939 180.546 207.077 179.776 205.552C179.732 205.461 179.693 205.368 179.658 205.274C178.886 205.397 178.11 205.479 177.33 205.52C175.729 205.596 173.755 205.509 172.352 204.808C171.844 204.572 171.405 204.207 171.079 203.75C170.754 203.294 170.553 202.759 170.495 202.202C168.815 202.008 167.179 201.533 165.657 200.795C163.694 199.816 162.188 198.114 161.455 196.047C160.523 195.452 159.692 194.71 158.993 193.853C158.115 192.782 157.35 191.375 157.35 189.866C157.35 189.234 157.013 188.527 156.414 187.644C156.269 187.431 156.121 187.221 155.969 187.012L155.932 186.964L155.515 186.375C155.438 186.261 155.362 186.145 155.29 186.028C154.964 186.07 154.638 186.097 154.31 186.108C152.491 186.162 150.788 185.627 149.579 183.967C148.935 183.147 148.573 182.141 148.546 181.099C148.546 180.788 148.573 180.499 148.637 180.221ZM158.11 185.407L158.142 185.455C158.298 185.669 158.464 185.9 158.624 186.14C159.25 187.06 160.027 188.361 160.027 189.871C160.027 190.481 160.358 191.272 161.006 192.097C161.204 191.299 161.648 190.598 162.119 190.02C162.762 189.234 163.601 188.495 164.41 187.863C165.223 187.221 166.059 186.648 166.727 186.189C167.07 185.953 167.359 185.755 167.589 185.584C167.729 185.488 167.863 185.384 167.99 185.274C168.542 184.717 169.521 183.983 170.602 183.213C171.309 182.709 172.1 182.163 172.909 181.607C172.498 181.264 172.069 180.942 171.625 180.643C170.548 179.932 169.59 179.531 168.932 179.531C168.446 179.568 167.978 179.73 167.573 180.001C166.979 180.343 166.341 180.831 165.577 181.42L165.357 181.59C163.934 182.704 162.146 184.096 159.989 184.813C159.357 185.027 158.731 185.23 158.11 185.407Z" fill="black"/>
<path d="M130.589 113.603C130.589 113.603 127.913 112.265 126.574 114.941C126.574 116.279 126.574 117.617 129.25 117.617C133.478 117.617 130.589 113.603 130.589 113.603ZM171.934 113.951C171.934 113.951 169.348 112.549 168.053 115.348C168.053 116.75 168.053 118.152 170.644 118.152C174.733 118.152 171.934 113.951 171.934 113.951ZM121.506 111.13C121.506 111.13 120.066 110.306 119.349 111.955C119.349 112.778 119.349 113.603 120.788 113.603C123.058 113.603 121.506 111.13 121.506 111.13ZM163.889 112.693C163.889 112.693 162.739 112.035 162.166 113.351C162.166 114.009 162.166 114.669 163.317 114.669C165.136 114.669 163.889 112.693 163.889 112.693ZM164.43 116.975C164.43 116.975 163.279 116.317 162.701 117.633C162.701 118.291 162.701 118.95 163.852 118.95C165.671 118.95 164.43 116.975 164.43 116.975ZM122.042 115.144C122.042 115.144 120.602 114.32 119.884 115.969C119.884 116.793 119.884 117.617 121.324 117.617C123.599 117.617 122.042 115.144 122.042 115.144Z" fill="white"/>
<path fill-rule="evenodd" clip-rule="evenodd" d="M139.219 45.219C139.379 45.1386 139.754 45.0209 140.39 44.8978C141.001 44.7855 141.766 44.6837 142.65 44.6035C144.416 44.4429 146.594 44.3572 148.82 44.3572C151.053 44.3572 153.316 44.4375 155.253 44.6035C157.234 44.7694 158.765 45.0102 159.605 45.2938C161.516 45.9308 164.449 47.2313 167.066 48.7032C168.372 49.4365 169.566 50.1965 170.502 50.9136C171.476 51.6682 172.022 52.2677 172.214 52.6478C172.503 53.2365 172.814 53.8092 173.14 54.3978C173.649 55.3398 174.185 56.3247 174.699 57.454C175.501 59.2255 176.084 61.0292 176.084 62.7525C176.084 65.7176 176.817 76.1971 177.289 82.4431C170.983 81.0194 158.545 78.8144 150.661 78.8144C139.797 78.8144 127.61 81.5172 123.473 82.8927C121.54 83.5402 118.924 84.1986 116.446 84.691C113.946 85.1941 111.714 85.5045 110.521 85.5045C109.568 85.5045 107.876 85.2958 106.078 85.0175C104.519 84.7722 102.965 84.4957 101.417 84.1879L100.443 86.6338C102.316 87.806 105.559 89.4597 109.3 90.6854C113.025 91.911 117.382 92.7567 121.412 92.1787C124.784 91.6969 128.177 91.0386 131.463 90.4017C132.78 90.1502 134.076 89.8986 135.349 89.6631C139.856 88.8282 144.106 88.1806 147.98 88.1806C149.918 88.1806 153.188 88.2556 157.101 88.3946C153.441 88.782 149.788 89.2156 146.139 89.6952C139.808 90.5302 133.031 91.5417 130.265 92.2322C127.739 92.8637 124.174 93.1955 120.556 93.1955C116.938 93.1955 113.373 92.8637 110.847 92.2322C108.905 91.7505 106.143 90.3857 103.397 88.7907C101.06 87.4334 98.7851 85.9726 96.5782 84.4127L96.5461 84.3859C95.6088 83.7656 94.6445 83.1871 93.656 82.6518C93.1348 82.3666 92.5988 82.1094 92.0504 81.8812C91.5439 81.6519 90.9997 81.5176 90.4447 81.4851C90.4287 81.4851 90.3324 81.4743 90.1451 81.4209C89.8791 81.3402 89.618 81.2437 89.3636 81.1318C88.6594 80.8295 87.9841 80.4641 87.3458 80.04C86.7138 79.6359 86.141 79.146 85.6438 78.5842C85.2157 78.0704 85.0979 77.7011 85.0979 77.4764C85.0979 76.9679 85.2318 76.0901 85.5048 74.9341C85.7669 73.8048 86.1309 72.4989 86.5431 71.1875C87.3726 68.5276 88.352 65.9317 88.9729 64.69C89.6419 63.3466 90.2948 62.0407 90.9425 60.9114C91.6008 59.7607 92.1949 58.8883 92.7355 58.3477C93.5612 57.5022 94.4238 56.6932 95.3205 55.9232C95.7969 55.5271 96.2357 55.2007 96.605 54.9812C96.9262 54.7939 97.0921 54.7458 97.1403 54.7297C97.1509 54.7297 97.1509 54.7297 97.1403 54.7297C97.4453 54.7297 97.8682 54.6601 98.2802 54.5906C98.7298 54.5103 99.2918 54.3925 99.918 54.2588C101.17 53.9804 102.733 53.6004 104.339 53.1776C107.481 52.3534 110.976 51.3151 112.458 50.5711C112.635 50.4801 113.122 50.3249 113.978 50.1161C114.797 49.9182 115.841 49.7041 117.04 49.4739C119.447 49.019 122.445 48.5213 125.458 48.0181H125.469C128.297 47.5585 131.119 47.0696 133.936 46.5517C135.156 46.3161 136.249 46.0967 137.126 45.8826C137.955 45.6846 138.737 45.4652 139.219 45.219ZM175.346 89.2777L175.657 89.8504C179.408 89.8665 184.793 89.9789 188.448 90.8942C191.446 91.6751 194.316 92.8903 196.963 94.5014C197.563 94.8761 198.103 95.2614 198.441 95.5987C198.567 95.7222 198.67 95.8701 198.739 96.0334C198.81 96.1968 198.846 96.3724 198.847 96.5501C198.849 96.7277 198.815 96.9038 198.747 97.0681C198.679 97.2325 198.58 97.3817 198.454 97.5072C198.329 97.6326 198.179 97.7318 198.014 97.7988C197.85 97.8659 197.674 97.8995 197.495 97.8977C197.318 97.8959 197.142 97.8588 196.979 97.7884C196.816 97.7181 196.669 97.6159 196.545 97.488C196.438 97.3809 196.117 97.1294 195.545 96.7708C193.136 95.3077 190.527 94.2025 187.801 93.4899C184.878 92.762 180.628 92.58 177.111 92.5426L177.546 93.34C178.349 93.1742 179.291 93.019 180.275 92.9654C181.683 92.8798 183.326 92.9814 184.711 93.6719L198.001 100.314C198.537 100.48 199.361 100.619 200.11 100.528C200.886 100.437 201.383 100.148 201.646 99.6181C201.673 99.5753 201.743 99.3558 201.529 98.7992C201.314 98.264 200.913 97.6111 200.351 96.8992C199.291 95.5981 198.1 94.4091 196.797 93.3508L190.433 90.6212L190.38 90.7817C189.586 90.5738 188.778 90.4272 187.961 90.3428C186.751 90.1823 185.21 90.0217 183.433 89.8612C181.061 89.6578 178.289 89.4652 175.346 89.2777ZM182.154 87.0727L178.332 85.435C172.943 84.0969 159.011 81.4851 150.661 81.4851C140.118 81.4851 128.22 84.1344 124.324 85.435C122.247 86.1254 119.513 86.8051 116.97 87.3136C114.454 87.8166 112.003 88.1806 110.521 88.1806L110.226 88.1752C113.743 89.3206 117.606 90.0217 121.038 89.5294C124.34 89.0583 127.62 88.4214 130.885 87.7898C132.219 87.533 133.54 87.276 134.862 87.0298C139.39 86.1896 143.838 85.5045 147.986 85.5045C152.037 85.5045 161.767 85.8364 170.973 86.3395C174.955 86.5536 178.846 86.8051 182.154 87.0727ZM174.061 92.5319L176.17 96.4176L177.177 96.166C178.032 95.9519 179.22 95.7057 180.43 95.6308C181.661 95.5612 182.753 95.6842 183.514 96.0643L196.979 102.797L197.07 102.829C197.873 103.097 199.147 103.338 200.426 103.188C201.727 103.033 203.236 102.439 204.044 100.817C204.553 99.7948 204.359 98.6976 204.022 97.8305C203.629 96.8981 203.102 96.0275 202.46 95.2454C201.232 93.7357 199.847 92.3613 198.327 91.1457L198.189 91.0386L180.034 83.2513C179.569 77.1605 178.761 65.7605 178.761 62.7525C178.761 60.4672 178 58.2567 177.134 56.346C176.598 55.1686 175.946 53.9644 175.394 52.9421C175.089 52.3801 174.816 51.8717 174.607 51.4542C174.126 50.4962 173.162 49.5917 172.134 48.7942C171.065 47.9699 169.747 47.135 168.378 46.3697C165.846 44.9375 163.196 43.7269 160.457 42.7517C159.284 42.3663 157.475 42.1093 155.478 41.9381C153.444 41.7668 151.111 41.6812 148.82 41.6812C146.535 41.6812 144.276 41.7668 142.409 41.9381C141.566 42.0101 140.726 42.1208 139.893 42.27C139.198 42.3984 138.528 42.5697 138.02 42.8265C137.527 43.0218 137.019 43.1741 136.5 43.2815C135.681 43.4796 134.638 43.6936 133.439 43.9237C131.03 44.3786 128.033 44.8765 125.02 45.3795H125.009C122.006 45.8826 118.982 46.3857 116.542 46.846C115.322 47.0815 114.229 47.3009 113.351 47.515C112.523 47.713 111.746 47.9325 111.265 48.1786C110.071 48.7728 106.876 49.7415 103.659 50.5872C102.08 51.0046 100.555 51.374 99.34 51.6415C98.6708 51.7891 97.9981 51.9193 97.3222 52.0322L97.1403 52.0536C96.4654 52.0918 95.8122 52.3058 95.2457 52.6744C94.6997 52.9956 94.1377 53.4238 93.6079 53.868C92.5588 54.7405 91.5205 55.7788 90.8569 56.4424L90.8408 56.4584C90.038 57.2613 89.2994 58.3853 88.6196 59.5841C87.9293 60.783 87.2495 62.1532 86.5858 63.4751L86.5752 63.4965C85.8579 64.9309 84.8303 67.6872 83.9901 70.3847C83.5619 71.7442 83.1765 73.1143 82.8982 74.3293C82.62 75.5068 82.4219 76.6414 82.4219 77.4764C82.4219 78.5842 82.9678 79.5529 83.5887 80.2968C84.2504 81.0573 85.0161 81.7203 85.8633 82.2664C86.6876 82.8178 87.5546 83.2727 88.3199 83.5991C89.0157 83.8935 89.8186 84.1612 90.4501 84.1612C90.4876 84.1718 90.6696 84.2093 91.0442 84.3591C91.4349 84.5143 91.9005 84.7392 92.393 85.0068C93.3724 85.5366 94.4 86.1735 95.0422 86.6017C96.6371 87.7417 99.2704 89.4918 102.054 91.1082C104.815 92.7085 107.855 94.2446 110.194 94.8279C113.02 95.5345 116.815 95.8717 120.556 95.8717C124.297 95.8717 128.092 95.5345 130.917 94.8279C132.946 94.3194 137.447 93.597 142.371 92.9065C143.361 94.4533 144.678 96.5996 145.449 98.1409C145.643 98.5113 145.781 98.9079 145.861 99.3184C145.257 98.8738 144.631 98.4576 143.987 98.0713C142.259 97.033 140.332 96.2035 138.62 96.2035C137.543 96.2035 133.674 96.4068 129.184 96.653L126.882 96.7761C120.139 97.14 112.693 97.5415 110.521 97.5415C105.95 97.5415 102.937 100.56 101.593 101.903L101.545 101.952L101.529 101.968C100.414 103.054 99.3729 104.214 98.4141 105.441C97.8843 106.137 97.3705 106.94 97.0921 107.715C96.8352 108.439 96.6265 109.627 97.531 110.531C98.0287 111.028 98.6549 111.399 99.4256 111.441C100.104 111.462 100.772 111.275 101.342 110.906C102.321 110.317 103.424 109.214 104.649 107.983L104.778 107.855C105.928 106.704 108.08 105.447 110.515 104.473C112.945 103.498 115.439 102.899 117.211 102.899C119.223 102.899 121.856 102.899 124.314 103.06C125.545 103.14 126.7 103.263 127.701 103.44C128.723 103.622 129.494 103.846 129.991 104.092C132.668 105.43 135.167 106.688 137.673 109.193L139.567 107.304C136.735 104.473 133.893 103.054 131.233 101.721L131.19 101.7C130.229 101.263 129.212 100.962 128.166 100.806C126.949 100.603 125.722 100.463 124.49 100.389C121.937 100.218 119.229 100.218 117.227 100.218H117.211C114.963 100.218 112.11 100.956 109.525 101.984C106.94 103.022 104.408 104.44 102.888 105.966C101.486 107.357 100.625 108.214 99.9662 108.604C99.8529 108.683 99.7258 108.739 99.5916 108.77L99.5648 108.76C99.806 108.143 100.138 107.566 100.55 107.047C101.492 105.794 102.76 104.521 103.44 103.841C104.799 102.487 107.117 100.218 110.521 100.218C112.768 100.218 120.288 99.8108 126.994 99.4468L128.97 99.3398C129.644 99.6609 130.522 99.9606 131.293 100.223L131.71 100.362C132.245 100.549 132.726 100.721 133.106 100.887C133.476 101.047 133.626 101.143 133.652 101.165C134.391 101.903 135.788 102.947 137.062 103.9L137.148 103.964C138.528 105.002 139.77 105.934 140.348 106.517C140.653 106.823 141.172 107.245 141.729 107.673C142.21 108.048 142.762 108.471 143.334 108.898L143.687 109.166C145.106 110.248 146.449 111.28 147.038 111.869C147.267 112.131 147.46 112.423 147.611 112.736C147.874 113.246 148.107 113.772 148.307 114.31C148.762 115.503 149.141 116.836 149.35 117.874C149.43 118.211 149.637 118.506 149.93 118.692C150.222 118.88 150.575 118.947 150.915 118.879C151.255 118.811 151.555 118.614 151.753 118.328C151.95 118.043 152.029 117.692 151.973 117.35C151.69 115.991 151.299 114.655 150.806 113.357C150.567 112.717 150.29 112.091 149.977 111.484C149.703 110.935 149.351 110.428 148.933 109.98C148.183 109.23 146.653 108.059 145.305 107.036L144.94 106.763L143.372 105.564C142.98 105.27 142.604 104.958 142.243 104.628C141.504 103.889 140.113 102.845 138.838 101.893L138.753 101.829C137.53 100.961 136.359 100.02 135.248 99.0133C136.907 98.933 138.122 98.8849 138.62 98.8849C139.583 98.8849 141.001 99.3934 142.618 100.362C144.186 101.304 145.775 102.572 147.038 103.841C147.894 104.697 148.714 106.26 149.377 108.015C150.03 109.739 150.48 111.473 150.688 112.527C150.768 112.865 150.976 113.159 151.268 113.346C151.559 113.533 151.913 113.6 152.253 113.532C152.593 113.464 152.894 113.266 153.091 112.982C153.289 112.696 153.367 112.346 153.311 112.003C152.962 110.326 152.485 108.678 151.882 107.073C151.186 105.243 150.212 103.231 148.933 101.952C148.73 101.747 148.523 101.545 148.313 101.347C148.714 100.26 148.735 98.7244 147.846 96.9474C147.188 95.6255 146.182 93.9395 145.289 92.5052L146.487 92.3445C149.388 91.9621 152.292 91.6089 155.2 91.2848C157.694 91.0118 159.45 90.8566 160.028 90.8566C161.104 90.8566 163.593 90.6265 166.113 90.3964L166.638 90.3428C168.934 90.1395 171.193 89.9361 172.622 89.8719L173.408 91.317V92.5265L174.061 92.5319ZM163.447 101.331C163.876 101.047 164.652 100.753 166.076 100.539C167.489 100.33 169.421 100.218 172.07 100.218C174.676 100.218 176.475 100.437 177.636 100.689C178.225 100.817 178.631 100.951 178.899 101.063C179.114 101.149 179.188 101.202 179.188 101.202C179.188 101.202 182.341 102.059 180.055 101.331L181.045 99.2756C180.719 98.9759 180.337 98.7415 179.922 98.5852C179.366 98.3662 178.794 98.196 178.209 98.0767C176.187 97.6845 174.13 97.505 172.07 97.5415C169.367 97.5415 167.285 97.6539 165.685 97.8947C164.101 98.1302 162.87 98.4995 161.961 99.1096C161.806 99.2035 161.671 99.3277 161.567 99.4745C161.461 99.6215 161.387 99.7882 161.348 99.9647C161.309 100.141 161.307 100.324 161.34 100.501C161.374 100.679 161.442 100.848 161.543 100.998C161.644 101.148 161.774 101.276 161.925 101.375C162.077 101.473 162.246 101.54 162.425 101.571C162.603 101.602 162.785 101.597 162.961 101.556C163.137 101.514 163.302 101.438 163.447 101.331ZM168.259 104.232H174.773C175.437 104.232 176.529 104.232 177.642 104.419C178.739 104.601 180.077 104.997 181.045 105.966C181.661 106.581 182.501 107.667 183.251 108.696C184.027 109.75 184.771 110.836 185.226 111.521C185.329 111.667 185.403 111.833 185.441 112.008C185.479 112.183 185.483 112.363 185.45 112.539C185.418 112.715 185.349 112.882 185.251 113.033C185.152 113.182 185.025 113.31 184.876 113.409C184.726 113.508 184.56 113.577 184.384 113.61C184.208 113.643 184.027 113.641 183.852 113.603C183.677 113.565 183.511 113.492 183.365 113.39C183.218 113.287 183.094 113.155 182.999 113.004C182.56 112.351 181.838 111.291 181.094 110.274C180.498 109.427 179.85 108.62 179.151 107.855C178.777 107.481 178.113 107.213 177.203 107.057C176.389 106.942 175.568 106.894 174.747 106.913H168.11C167.871 106.994 167.638 107.092 167.414 107.208C166.932 107.449 166.338 107.796 165.701 108.208C164.417 109.017 163.041 110.001 162.169 110.654C161.885 110.867 161.529 110.958 161.177 110.908C160.826 110.858 160.509 110.67 160.295 110.386C160.082 110.103 159.991 109.746 160.042 109.394C160.092 109.043 160.279 108.727 160.563 108.513C161.473 107.834 162.908 106.806 164.256 105.944C164.935 105.516 165.616 105.115 166.205 104.82C166.505 104.665 166.798 104.531 167.082 104.43C167.378 104.315 167.691 104.249 168.007 104.232C165.717 104.248 163.871 105.104 162.282 106.18C161.515 106.713 160.774 107.281 160.06 107.882L160.006 107.924C159.387 108.46 158.73 108.952 158.043 109.396C157.891 109.487 157.725 109.547 157.55 109.574C157.376 109.599 157.199 109.591 157.028 109.548C156.858 109.506 156.697 109.431 156.556 109.326C156.414 109.222 156.294 109.089 156.204 108.939C156.113 108.788 156.053 108.621 156.027 108.447C156.001 108.273 156.01 108.095 156.052 107.924C156.094 107.754 156.17 107.594 156.274 107.452C156.38 107.31 156.511 107.191 156.661 107.1C157.122 106.828 157.651 106.399 158.364 105.816L158.38 105.8C159.065 105.243 159.868 104.579 160.788 103.964C162.64 102.706 165.017 101.556 168.057 101.556C169.609 101.556 171.161 101.502 172.627 101.449C173.216 101.427 173.799 101.406 174.355 101.395C175.314 101.363 176.212 101.347 176.994 101.368C177.76 101.39 178.493 101.449 179.082 101.598L179.226 101.636L184.711 104.376C185.026 104.537 185.265 104.815 185.375 105.151C185.485 105.486 185.458 105.852 185.299 106.167C185.141 106.483 184.865 106.723 184.53 106.835C184.195 106.948 183.83 106.924 183.514 106.768L178.31 104.167C177.851 104.091 177.386 104.049 176.919 104.044C176.092 104.029 175.263 104.036 174.436 104.066L172.777 104.119C171.353 104.173 169.795 104.226 168.259 104.232ZM108.236 116.67C108.359 116.545 108.507 116.446 108.67 116.379C108.832 116.312 109.007 116.276 109.183 116.276C109.359 116.276 109.533 116.312 109.695 116.379C109.858 116.446 110.005 116.545 110.13 116.67L112.806 119.346C113.341 119.882 114.219 120.481 115.364 121.134C116.499 121.782 117.799 122.434 119.148 123.108C120.245 123.655 122.028 123.976 123.858 124.142C125.63 124.302 127.251 124.302 127.915 124.302C128.37 124.302 129.146 124.409 129.97 124.527L131.875 124.822L132.967 124.987C135.178 125.33 137.41 125.641 138.62 125.641H145.31C146.23 125.641 147.274 125.164 148.13 124.447C148.496 124.151 148.818 123.805 149.088 123.419C149.157 123.318 149.218 123.21 149.27 123.098C149.03 122.889 148.769 122.707 148.489 122.557C147.765 122.158 147.008 121.824 146.225 121.562L147.07 119.02C147.793 119.261 148.89 119.699 149.822 120.235C150.287 120.503 150.769 120.824 151.159 121.203C151.41 121.426 151.614 121.698 151.758 122.001C151.903 122.305 151.985 122.634 152 122.97C151.962 123.664 151.724 124.333 151.314 124.896C150.94 125.464 150.432 126.02 149.849 126.502C148.698 127.46 147.065 128.321 145.31 128.321C145.31 128.61 145.213 128.91 145.015 129.156C143.696 130.784 142.265 132.318 140.734 133.748C139.005 135.355 136.928 136.982 135.028 137.618L126.797 140.364H123.901C123.546 140.364 123.205 140.223 122.955 139.972C122.704 139.721 122.563 139.38 122.563 139.026C122.563 138.671 122.704 138.331 122.955 138.08C123.205 137.828 123.546 137.688 123.901 137.688H126.363L134.177 135.076C135.493 134.642 137.206 133.369 138.914 131.79C140.083 130.696 141.19 129.538 142.233 128.321H138.62C137.158 128.321 134.702 127.963 132.561 127.636L131.453 127.46C130.829 127.362 130.205 127.268 129.58 127.177C129.028 127.083 128.473 127.017 127.915 126.978C127.235 126.978 125.511 126.978 123.612 126.807C121.76 126.641 119.529 126.294 117.95 125.501L117.927 125.49C116.613 124.847 115.315 124.169 114.037 123.456C112.906 122.851 111.855 122.105 110.911 121.235L108.236 118.559C107.985 118.308 107.845 117.969 107.845 117.615C107.845 117.261 107.985 116.921 108.236 116.67ZM154.794 125.095C154.934 124.78 155.191 124.532 155.51 124.403C155.829 124.273 156.186 124.272 156.507 124.398C157.351 124.736 158.529 125.265 159.744 125.907L160.151 126.084C160.794 126.352 161.393 126.593 161.885 126.759C162.131 126.839 162.335 126.904 162.495 126.941C162.624 126.973 162.688 126.978 162.704 126.978C163.036 126.978 163.86 126.817 164.93 126.523C165.839 126.276 166.74 126.006 167.633 125.71C167.97 125.598 168.338 125.624 168.656 125.784C168.974 125.943 169.215 126.221 169.327 126.558C169.439 126.895 169.413 127.263 169.254 127.581C169.094 127.899 168.816 128.14 168.479 128.252C167.184 128.676 165.874 129.051 164.55 129.376C164.82 129.687 165.053 130.028 165.241 130.393C166.215 132.347 168.147 134.546 169.004 135.403C169.131 135.527 169.233 135.674 169.302 135.837C169.373 136 169.409 136.176 169.41 136.354C169.412 136.531 169.378 136.707 169.31 136.872C169.243 137.036 169.143 137.185 169.018 137.311C168.892 137.437 168.742 137.535 168.577 137.602C168.413 137.67 168.237 137.704 168.059 137.702C167.882 137.699 167.706 137.663 167.542 137.593C167.379 137.522 167.232 137.42 167.109 137.292C166.182 136.366 164.01 133.926 162.843 131.592C162.567 131.133 162.208 130.73 161.783 130.403C161.151 129.883 160.478 129.411 159.771 128.996C159.379 128.761 158.981 128.537 158.577 128.321C157.513 127.853 156.46 127.359 155.42 126.839C155.11 126.685 154.873 126.418 154.755 126.093C154.639 125.768 154.653 125.409 154.794 125.095ZM180.098 125.641C180.098 125.376 180.019 125.117 179.872 124.897C179.724 124.678 179.515 124.507 179.27 124.407C179.026 124.305 178.756 124.28 178.497 124.331C178.238 124.383 178 124.511 177.813 124.698C177.316 125.176 176.727 125.549 176.084 125.795C175.757 125.939 175.403 126.014 175.045 126.012C174.687 126.01 174.334 125.933 174.007 125.785C173.691 125.629 173.325 125.604 172.991 125.718C172.656 125.831 172.38 126.071 172.221 126.386C172.063 126.702 172.036 127.067 172.146 127.403C172.256 127.738 172.495 128.016 172.809 128.177C174.19 128.873 175.586 128.766 176.716 128.408C176.646 128.518 176.565 128.619 176.475 128.713C176.469 128.718 176.373 128.798 176.074 128.857C175.701 128.915 175.324 128.926 174.949 128.889C174.114 128.815 173.29 128.647 172.493 128.386C172.156 128.273 171.788 128.3 171.47 128.459C171.153 128.618 170.911 128.897 170.799 129.234C170.687 129.571 170.714 129.939 170.873 130.257C171.031 130.574 171.31 130.816 171.647 130.928C172.397 131.175 173.574 131.474 174.752 131.56C175.335 131.602 175.972 131.602 176.572 131.485C177.246 131.378 177.873 131.07 178.37 130.602C179.146 129.825 179.558 128.782 179.788 127.926C180.018 127.048 180.098 126.196 180.098 125.641ZM96.953 133.17C97.5417 132.775 98.0769 132.411 98.6656 132.175C98.9615 132.035 99.2855 131.964 99.6128 131.968C99.9401 131.971 100.262 132.05 100.555 132.196C100.873 132.355 101.241 132.382 101.578 132.269C101.916 132.157 102.194 131.915 102.353 131.597C102.512 131.279 102.538 130.911 102.426 130.574C102.314 130.237 102.072 129.958 101.754 129.799C101.125 129.485 100.435 129.312 99.7325 129.293C99.0298 129.273 98.3314 129.407 97.6862 129.687C96.8651 130.042 96.086 130.487 95.3633 131.014L95.0582 131.223C94.9121 131.321 94.7866 131.446 94.6889 131.592C94.5913 131.738 94.5233 131.902 94.489 132.075C94.4547 132.247 94.4547 132.425 94.4891 132.598C94.5233 132.769 94.5913 132.934 94.689 133.08C94.7867 133.226 94.9122 133.352 95.0585 133.449C95.2046 133.547 95.3686 133.615 95.5411 133.649C95.7136 133.683 95.8911 133.683 96.0636 133.649C96.236 133.615 96.4 133.547 96.5461 133.449L96.953 133.17ZM102.648 136.339H102.658C103.011 136.295 103.332 136.111 103.549 135.831C103.767 135.549 103.864 135.194 103.82 134.841C103.775 134.488 103.592 134.168 103.311 133.949C103.03 133.731 102.674 133.634 102.321 133.679L102.289 133.684L102.203 133.695C101.714 133.77 101.227 133.859 100.742 133.963C99.7628 134.177 98.3766 134.525 96.7174 135.076C93.7096 136.082 92.1146 137.945 91.2636 138.94C91.0977 139.138 90.9585 139.299 90.8408 139.417C90.5975 139.67 90.4631 140.008 90.4666 140.359C90.4701 140.71 90.6112 141.044 90.8597 141.292C91.1082 141.54 91.444 141.68 91.7948 141.683C92.1456 141.686 92.4834 141.55 92.7355 141.306C92.9602 141.081 93.1797 140.825 93.4152 140.562C94.2929 139.555 95.3312 138.356 97.5631 137.618C99.1203 137.098 100.712 136.686 102.327 136.387C102.414 136.371 102.501 136.358 102.589 136.345L102.648 136.339Z" fill="black"/>
</g>
<defs>
<clipPath id="clip0_1741_247">
<rect width="256" height="256" fill="white"/>
</clipPath>
</defs>
</svg>
