<svg width="256" height="256" viewBox="0 0 256 256" fill="none" xmlns="http://www.w3.org/2000/svg">
<g clip-path="url(#clip0_2432_8346)">
<path d="M128 256C198.692 256 256 198.692 256 128C256 57.3076 198.692 0 128 0C57.3076 0 0 57.3076 0 128C0 198.692 57.3076 256 128 256Z" fill="#8CFF00"/>
<path d="M31.6367 132.157C33.8476 182.25 74.0694 222.471 124.172 224.673V215.324C124.172 163.361 88.1587 132.603 31.6367 132.157Z" fill="black"/>
<path d="M124.172 41.0338V31.6862C74.0694 33.897 33.8476 74.1091 31.6367 124.202C88.1684 123.756 124.172 92.9982 124.172 41.0338Z" fill="black"/>
<path d="M225 124.202C222.78 74.1091 182.558 33.897 132.465 31.6862V41.0338C132.465 92.9982 168.469 123.746 225 124.202Z" fill="black"/>
<path d="M132.462 215.324V224.673C182.565 222.471 222.777 182.259 224.997 132.157C168.476 132.603 132.462 163.361 132.462 215.324Z" fill="black"/>
</g>
<defs>
<clipPath id="clip0_2432_8346">
<rect width="256" height="256" fill="white"/>
</clipPath>
</defs>
</svg>
