<svg width="256" height="256" viewBox="0 0 256 256" fill="none" xmlns="http://www.w3.org/2000/svg">
<g clip-path="url(#clip0_2231_33)">
<path fill-rule="evenodd" clip-rule="evenodd" d="M128 0C198.697 0 256 57.3026 256 128C256 198.697 198.697 256 128 256C57.3026 256 0 198.697 0 128C0 57.3026 57.3026 0 128 0Z" fill="#333336"/>
<path d="M134.268 14.5442C132.091 14.5442 130.458 14 128.281 14C65.1547 14 14 65.1545 14 128.282C14 145.696 17.8094 162.022 24.8839 176.715C24.8839 177.259 25.4281 177.803 25.4281 177.803L25.9723 178.348C42.8425 213.176 77.1268 238.209 117.398 242.019C117.942 242.019 117.942 242.019 118.486 242.019C120.663 242.019 123.384 242.563 125.561 242.563C126.105 242.563 127.193 242.563 127.737 242.563H128.281C191.408 242.563 242.563 191.408 242.563 128.282C242.563 67.8757 194.673 17.8094 134.268 14.5442ZM180.524 73.3174C180.524 102.16 157.124 125.56 128.281 125.56C95.6296 125.56 69.5082 151.682 69.5082 184.334C69.5082 199.571 75.4942 213.72 84.7458 224.06C80.9363 221.339 78.2155 219.162 75.4942 216.442C64.066 205.014 56.9917 189.231 56.9917 174.538C56.9917 144.063 76.0385 126.649 115.221 121.207C149.505 116.309 166.375 99.4389 166.375 71.1409C166.375 56.4476 159.845 42.8425 147.328 33.0469C140.798 27.6049 132.635 23.7956 124.472 21.6188C125.561 21.6188 126.649 21.6188 128.281 21.6188C157.124 21.0745 180.524 44.4751 180.524 73.3174ZM30.8701 174.538C29.2375 169.096 22.163 145.151 31.4143 127.737C35.7679 119.03 43.3867 113.044 53.7264 110.323C57.5357 109.234 61.3452 108.146 65.1547 107.058C97.8066 97.8063 115.765 92.3646 116.309 67.3314C116.853 54.8148 109.235 43.9308 96.174 38.4889C93.4527 37.4005 89.6436 36.3121 86.3784 35.7679C98.3505 33.5911 110.323 34.6795 119.574 39.5773C130.458 45.0193 135.9 54.8148 135.9 67.8757C135.9 85.8342 127.193 96.7181 107.058 102.16C104.881 102.704 102.16 103.248 99.4392 104.337C68.4199 112.5 29.7817 122.84 33.0469 168.552C33.5911 174.538 35.2237 181.069 37.9447 187.599C35.7679 183.79 33.0469 179.436 30.8701 174.538ZM37.9447 70.5966C50.4612 54.2706 65.1547 51.0054 74.4059 53.1822C80.392 54.8148 84.2015 58.6241 85.2897 63.5219C86.3784 68.4196 85.8341 72.7735 83.1132 75.4944C77.6711 82.5691 64.6104 84.7456 53.1822 85.2899C40.6657 86.3782 30.8701 91.2759 24.3398 99.9832C27.605 89.6433 31.9585 79.8478 37.9447 70.5966ZM93.4527 27.0607C111.411 23.2513 130.458 27.0607 143.519 37.9447C153.859 46.1076 159.845 58.0802 159.845 70.5966C159.845 95.6298 145.152 109.779 114.132 114.132C71.6851 120.119 49.917 140.254 49.917 173.994C49.917 185.422 53.7264 197.394 60.2569 208.279C48.2844 196.306 40.1215 182.157 39.5773 168.552C36.8563 128.282 69.5082 119.574 101.072 110.867C103.793 110.323 105.97 109.779 108.69 108.691C131.547 102.16 142.43 89.0994 142.43 67.8757C142.43 52.638 135.356 40.1215 122.295 33.5911C113.044 28.6933 101.072 27.0607 89.0993 28.1491C90.7319 27.605 91.8201 27.6049 93.4527 27.0607ZM21.6188 135.356C21.6188 125.56 22.7072 113.044 29.7817 104.337C35.2237 97.2624 43.3867 92.9085 53.7264 92.3646C66.7873 91.2759 81.4806 89.0994 88.011 79.8478C91.2762 74.95 92.9088 69.5083 91.2762 62.4336C89.6436 54.8148 83.6571 48.8286 74.9503 46.6519C71.1407 45.5634 66.7873 45.5634 61.8895 46.6519C73.8616 40.6657 85.2897 41.2099 93.4527 44.475C103.793 48.8287 109.779 57.5358 109.235 67.3314C108.69 87.4668 95.0853 91.2759 62.9778 100.528C59.1683 101.616 55.359 102.704 51.5496 103.793C39.0331 107.602 30.3259 114.677 25.4281 125.016C23.7956 128.282 22.7072 131.547 21.6188 135.356ZM128.281 236.577C127.737 236.033 127.737 236.033 128.281 236.577C99.4392 236.033 76.0385 213.176 76.0385 184.334C76.0385 155.491 99.4392 132.091 128.281 132.091C160.933 132.091 187.055 105.969 187.055 73.3174C187.055 55.359 178.892 39.0331 165.831 28.1491C206.646 43.3867 236.033 82.5691 236.033 128.826C236.033 188.143 187.599 236.577 128.281 236.577Z" fill="url(#paint0_linear_2231_33)"/>
</g>
<defs>
<linearGradient id="paint0_linear_2231_33" x1="13.9619" y1="128.686" x2="242.525" y2="128.686" gradientUnits="userSpaceOnUse">
<stop stop-color="#45DCA3"/>
<stop offset="1" stop-color="#128D89"/>
</linearGradient>
<clipPath id="clip0_2231_33">
<rect width="256" height="256" fill="white"/>
</clipPath>
</defs>
</svg>
