<svg width="256" height="256" viewBox="0 0 256 256" fill="none" xmlns="http://www.w3.org/2000/svg">
<circle cx="128" cy="128" r="126" fill="#0ECB81"/>
<path fill-rule="evenodd" clip-rule="evenodd" d="M129.177 73.7878C131.529 65.7219 139.295 49.4722 151.53 49L158 58.4429C152.314 57.0659 138.589 58.2069 129.177 73.7878ZM127.346 99.2391C127.356 99.2384 127.363 99.238 127.365 99.2377L127.523 99.241H128.683C128.795 99.2491 129.095 99.2743 129.548 99.3582C130.25 99.4882 131.031 99.7072 131.777 100.019C133.262 100.64 133.972 101.335 134.368 101.97C139.829 110.736 144.93 121.039 149.434 130.172L149.555 130.418C151.36 134.077 153.171 137.753 154.755 140.732C154.754 140.73 154.765 140.75 154.786 140.794C154.799 140.822 154.816 140.856 154.835 140.898C154.846 140.924 154.86 140.954 154.873 140.986C154.949 141.156 155.046 141.392 155.157 141.696C155.383 142.31 155.639 143.121 155.888 144.112C156.391 146.115 156.792 148.564 156.932 151.231C157.225 156.762 156.348 161.821 154.477 165.576C149.35 175.862 140.001 182.912 128 182.912C115.998 182.912 106.65 175.862 101.523 165.576C99.6523 161.821 98.7744 156.762 99.0672 151.231C99.2083 148.564 99.6084 146.115 100.111 144.112C100.36 143.121 100.617 142.31 100.843 141.696C100.954 141.392 101.051 141.156 101.126 140.986C101.163 140.902 101.193 140.838 101.214 140.794L101.245 140.732C102.829 137.753 104.641 134.077 106.445 130.418L106.566 130.172C111.069 121.039 116.171 110.736 121.631 101.97C122.028 101.335 122.739 100.639 124.226 100.018C124.973 99.7057 125.755 99.4868 126.456 99.3574C126.954 99.2654 127.267 99.2444 127.346 99.2391ZM128.248 76.1525L128 76.1528H127.766L127.752 76.1525C127.5 76.1474 127.235 76.1472 126.958 76.1525L126.943 76.1528C120.816 76.2739 108.769 79.0563 102.117 89.7336C95.9487 99.6354 90.3554 110.979 85.9397 119.935C84.0389 123.79 82.3564 127.202 80.9401 129.867C76.2342 138.719 72.7047 159.375 80.9401 175.901C89.1757 192.426 105.647 206 128 206C150.353 206 166.824 192.426 175.06 175.901C183.295 159.375 179.766 138.719 175.06 129.867C173.643 127.202 171.961 123.79 170.06 119.935C165.644 110.979 160.051 99.6355 153.883 89.7336C153.01 88.3331 152.045 87.0683 151.012 85.9276C144.172 78.3722 134.38 76.2581 129.056 76.1528L129.042 76.1525C128.765 76.1472 128.5 76.1474 128.248 76.1525Z" fill="white"/>
</svg>
