<svg width="268" height="268" viewBox="0 0 268 268" fill="none" xmlns="http://www.w3.org/2000/svg">
<path d="M133.776 262C204.345 262 261.552 204.692 261.552 134C261.552 63.3076 204.345 6 133.776 6C63.2073 6 6 63.3076 6 134C6 204.692 63.2073 262 133.776 262Z" fill="white" stroke="#EB4747" stroke-width="11.23" stroke-miterlimit="10"/>
<mask id="mask0_1958_3402" style="mask-type:luminance" maskUnits="userSpaceOnUse" x="24" y="24" width="220" height="220">
<path d="M133.776 243.79C194.305 243.79 243.374 194.635 243.374 134C243.374 73.365 194.305 24.2104 133.776 24.2104C73.2471 24.2104 24.1787 73.365 24.1787 134C24.1787 194.635 73.2471 243.79 133.776 243.79Z" fill="white"/>
</mask>
<g mask="url(#mask0_1958_3402)">
<path d="M65.3455 245.768C65.0068 245.768 64.6875 245.622 64.4648 245.367C64.2424 245.112 64.1391 244.776 64.1842 244.439C65.0457 237.853 66.8523 231.06 69.4073 224.79C72.4207 217.398 76.334 211.002 81.0444 205.78C84.4254 202.024 88.2131 198.909 92.2973 196.517L93.5846 195.764L92.5491 194.688C90.4487 192.506 88.7485 190.05 87.4969 187.387C85.6773 183.515 84.7546 179.117 84.7546 174.318C84.7546 166.241 87.1128 158.168 91.5714 150.977C92.2522 149.875 92.9942 148.779 93.7782 147.719L94.0009 147.419L94.0073 147.044C94.1267 141.243 94.3169 135.37 94.4846 130.19L94.5332 128.681C94.5847 127.064 94.6397 125.416 94.6912 123.768L94.7332 122.42L93.3944 122.563C92.52 122.656 91.6488 122.701 90.8037 122.701C85.206 122.701 80.0926 120.497 76.4083 116.493C72.8917 112.676 70.9559 107.612 70.9559 102.234C70.9559 101.626 70.9818 101.022 71.0301 100.437V100.405C71.2882 97.3992 72.1724 94.4841 73.5917 91.9632C74.8661 89.6977 76.5308 87.7908 78.5311 86.2978L79.0571 85.9066L78.9989 85.2538C78.9149 84.3101 78.8732 83.3794 78.8732 82.4874C78.8732 78.7902 79.5666 75.177 80.9316 71.7416C82.2638 68.3869 84.1737 65.3682 86.6064 62.7632C91.7069 57.3016 98.5401 54.2959 105.847 54.2959C109.029 54.2959 112.161 54.8807 115.155 56.0345C117.449 56.9168 119.643 58.1319 121.675 59.6446L122.701 60.4072L123.372 59.3183C125.998 55.0617 129.344 51.7105 133.312 49.351C137.784 46.6979 142.939 45.3501 148.643 45.3501C153.64 45.3501 158.322 46.5102 162.184 48.708C165.739 50.7311 168.513 53.6364 170.207 57.1139L170.64 58.0028L171.588 57.7281C173.246 57.2497 174.956 57.0073 176.669 57.0073C180.137 57.0073 183.657 57.9737 186.848 59.8028C190.058 61.642 192.762 64.2597 194.668 67.372L194.704 67.4302C196.71 70.7267 197.772 74.5273 197.772 78.4216C197.772 83.6152 195.878 89.0999 192.581 93.4629C190.168 96.6559 185.819 100.786 178.815 102.341L177.853 102.554L177.895 103.54C177.979 105.485 178.063 107.437 178.147 109.341V109.409C178.302 112.857 178.46 116.425 178.592 119.932C178.698 122.737 178.782 125.31 178.844 127.795L178.86 128.461L179.437 128.79C182.96 130.794 186.051 133.955 188.377 137.93L188.574 138.266L188.932 138.418C191.061 139.317 193.058 140.467 194.865 141.834C195.791 142.539 196.32 143.657 196.284 144.83L196.275 145.186L196.462 145.486C196.859 146.129 197.069 146.892 197.069 147.697C197.069 147.916 197.052 148.149 197.023 148.382L197.007 148.505L197.017 148.627C197.036 148.977 196.911 149.309 196.669 149.546C195.439 150.751 194.081 151.821 192.629 152.732L192.304 152.936L192.161 153.294C190.693 157.018 188.419 159.955 185.409 162.024L184.286 162.796L185.212 163.795C186.364 165.036 187.325 166.354 188.064 167.712C189.371 170.11 190.035 172.682 190.035 175.365V175.533L190.026 176.205L190.6 176.554C190.748 176.645 190.897 176.748 191.036 176.864C192.474 178.057 192.762 180.361 191.703 182.226C190.964 183.528 189.832 184.553 188.242 185.361L187.396 185.791L187.635 186.709C187.654 186.789 187.674 186.87 187.69 186.951C187.916 188.16 187.519 189.54 186.657 190.545C185.79 191.56 184.635 192.154 183.619 192.6C181.657 193.47 179.55 194.106 177.176 194.546L176.759 194.624L176.488 194.95C173.875 198.078 170.12 200.877 165.623 203.042L163.368 204.128L165.642 205.172C171.156 207.7 175.388 212.841 178.231 220.459C180.618 226.858 182.018 234.97 182.399 244.569C182.412 244.885 182.292 245.199 182.073 245.428C181.854 245.658 181.544 245.79 181.228 245.79H65.3521L65.3455 245.768Z" fill="white"/>
<path d="M197.462 144.852C197.51 143.34 196.826 141.834 195.578 140.884C193.69 139.452 191.613 138.259 189.393 137.322C186.951 133.147 183.731 129.866 180.021 127.756C179.96 125.271 179.876 122.679 179.769 119.88C179.637 116.348 179.476 112.754 179.324 109.282C179.24 107.379 179.153 105.427 179.072 103.485C186.36 101.869 190.919 97.6123 193.522 94.1703C196.975 89.607 198.952 83.864 198.952 78.4182C198.952 74.304 197.833 70.2933 195.713 66.8126C195.7 66.7933 195.687 66.7706 195.678 66.7512C193.668 63.4709 190.819 60.714 187.438 58.7751C184.073 56.8456 180.35 55.8242 176.678 55.8242C174.849 55.8242 173.036 56.0827 171.271 56.5903C169.468 52.8865 166.564 49.8324 162.77 47.6768C158.731 45.379 153.85 44.167 148.649 44.167C142.732 44.167 137.374 45.5695 132.721 48.3328C128.579 50.7922 125.111 54.2697 122.381 58.6909C120.262 57.1137 117.984 55.8533 115.584 54.9257C112.454 53.7204 109.18 53.1096 105.854 53.1096C98.2171 53.1096 91.0806 56.2476 85.7574 61.9488C83.2249 64.6601 81.2375 67.8047 79.847 71.2952C78.4242 74.8695 77.7048 78.6315 77.7048 82.4774C77.7048 83.4083 77.75 84.3713 77.8337 85.3507C75.6982 86.9472 73.9333 88.9703 72.5753 91.3814C71.0716 94.0475 70.1362 97.1307 69.8684 100.295C69.8684 100.308 69.8684 100.321 69.8684 100.333C69.8168 100.951 69.791 101.591 69.791 102.231C69.791 107.902 71.8364 113.251 75.5529 117.288C79.4631 121.535 84.883 123.874 90.8096 123.874C91.7001 123.874 92.6067 123.826 93.5228 123.729C93.4713 125.435 93.4132 127.142 93.3617 128.809L93.3197 130.151C93.152 135.354 92.9615 141.223 92.8421 147.018C92.0388 148.107 91.2806 149.225 90.5806 150.356C86.006 157.735 83.5862 166.021 83.5862 174.318C83.5862 179.294 84.5475 183.858 86.4413 187.888C87.7514 190.677 89.5191 193.227 91.7099 195.506C87.5223 197.958 83.6412 201.148 80.1793 204.994C75.3789 210.32 71.3913 216.829 68.3261 224.35C65.7323 230.71 63.8998 237.607 63.0257 244.291C62.9385 244.963 63.1416 245.638 63.587 246.146C64.0321 246.653 64.674 246.947 65.3516 246.947H181.227C181.866 246.947 182.476 246.685 182.918 246.227C183.36 245.764 183.596 245.144 183.57 244.504C183.186 234.779 181.756 226.548 179.327 220.029C176.372 212.101 171.936 206.746 166.129 204.083C170.804 201.83 174.643 198.97 177.388 195.687C179.853 195.231 182.053 194.565 184.089 193.663C185.222 193.166 186.525 192.49 187.548 191.294C188.635 190.024 189.132 188.269 188.845 186.718C188.825 186.608 188.799 186.498 188.774 186.392C190.267 185.632 191.745 184.514 192.726 182.788C194.061 180.435 193.658 177.488 191.787 175.94C191.603 175.788 191.413 175.652 191.213 175.533C191.213 175.471 191.213 175.41 191.213 175.352C191.213 172.472 190.503 169.709 189.099 167.136C188.309 165.685 187.296 164.295 186.076 162.983C189.261 160.798 191.706 157.651 193.258 153.717C194.781 152.764 196.203 151.643 197.494 150.376C197.978 149.901 198.236 149.238 198.194 148.556C198.194 148.547 198.194 148.537 198.194 148.527C198.233 148.243 198.252 147.961 198.252 147.687C198.252 146.653 197.981 145.683 197.471 144.856L197.462 144.852ZM164.174 162.847C166.3 163.93 168.432 164.984 170.529 166.099C172.633 167.217 174.694 168.4 176.659 169.722C177.095 170.003 177.517 169.366 177.098 169.072C174.172 167.097 171.052 165.456 167.913 163.859C169.339 164.163 170.788 164.373 172.246 164.464C174.63 164.609 177.085 164.428 179.405 163.833C179.689 163.778 180.118 163.623 180.398 163.542C180.956 163.381 181.514 163.155 182.057 162.928C184.102 164.657 185.883 166.732 187.051 169.15C187.596 170.278 187.935 171.396 188.145 172.42C188.609 174.689 187.293 176.945 185.108 177.701C184.925 177.766 184.767 177.824 184.644 177.869C171.126 183.056 156.06 181.638 142.41 177.636C137.525 176.253 132.747 174.318 127.708 173.432C125.998 173.144 124.082 173.067 122.504 173.943C121.31 174.595 120.301 175.82 120.226 177.242C120.155 178.635 120.933 179.912 121.756 180.933C127.643 187.613 143.558 191.601 152.272 193.107C155.182 193.612 157.986 193.928 160.418 194.129C164.09 194.429 165.451 199.157 162.483 201.345C162.177 201.572 161.861 201.792 161.538 202.005C158.483 204.031 154.976 205.249 151.343 205.757C148.956 206.086 146.604 206.226 144.365 206.158C144.136 206.148 143.945 206.339 143.958 206.575C143.971 206.781 144.155 206.933 144.362 206.94C145.849 206.979 147.33 206.917 148.804 206.781C148.894 206.772 148.985 206.762 149.078 206.752C153.221 206.306 156.95 209.357 157.247 213.52C157.283 214.005 157.305 214.493 157.318 214.984C157.344 216.574 157.515 218.245 156.989 219.774C155.298 224.398 149.178 225.591 144.839 226.263C139.141 227.032 133.325 227.023 127.575 227.007C126.792 226.99 125.93 226.945 125.159 226.819C121.249 226.257 118.565 224.279 116.813 220.753C116.461 220.045 116.129 219.257 115.855 218.513C114.939 215.973 114.287 213.345 113.532 210.754C112.696 207.88 115.129 205.124 118.078 205.586C119.445 205.802 120.817 205.97 122.178 206.096C122.388 206.119 122.578 205.967 122.601 205.757C122.623 205.547 122.443 205.353 122.236 205.327C116.707 204.726 98.4139 197.06 93.3583 183.399C90.5676 175.859 87.8771 142.021 119.988 131.133C117.932 132.562 115.971 134.255 114.145 136.201C114.013 136.343 113.984 136.569 114.103 136.724C114.255 136.921 114.539 136.928 114.7 136.757C120.91 130.134 128.66 126.486 136.525 126.486C145.839 126.486 153.94 131.666 158.941 140.755C155.763 138.867 152.547 137.946 149.149 137.946C144.733 137.946 140.406 139.497 136.225 140.997C131.928 142.538 127.479 144.135 122.817 144.135C120.923 144.135 119.007 143.954 117.207 143.773C116.977 143.75 116.777 143.928 116.777 144.164C116.777 144.368 116.945 144.536 117.149 144.555C118.962 144.739 120.894 144.92 122.817 144.92C127.617 144.92 132.128 143.301 136.489 141.74C140.8 140.195 144.871 138.735 149.153 138.735C152.83 138.735 156.299 139.869 159.751 142.199C159.783 142.222 159.818 142.235 159.854 142.248C160.87 143.589 161.654 145.121 161.664 146.827C161.648 147.053 161.622 147.28 161.593 147.506C160.438 146.304 159.241 145.121 157.886 144.096C156.528 143.043 155.131 142.357 153.653 141.937C153.601 141.908 153.54 141.889 153.482 141.889C151.998 141.488 150.44 141.349 148.752 141.385C147.378 141.391 146.004 141.524 144.649 141.753C142.058 142.186 139.58 143.072 137.135 144.019C137.096 144.028 137.064 144.041 137.028 144.061C135.267 144.746 133.525 145.457 131.766 146.048C128.382 147.221 124.843 147.826 121.259 147.729C121.023 147.722 120.833 147.929 120.868 148.175C120.897 148.366 121.075 148.501 121.265 148.504C122.02 148.517 122.778 148.504 123.536 148.469C124.327 148.43 125.098 148.715 125.675 149.257C127.856 151.297 130.366 152.997 133.115 154.18C134.876 154.942 136.725 155.482 138.609 155.805C138.67 155.844 138.741 155.863 138.809 155.863C138.838 155.863 138.867 155.86 138.896 155.854C143.736 156.626 148.81 155.999 153.327 154.134C153.931 153.882 154.527 153.604 155.108 153.301C155.15 153.288 155.192 153.262 155.231 153.236C157.57 152.011 159.712 150.421 161.631 148.621C164.419 150.957 167.484 152.774 170.6 153.983C170.636 154.002 170.671 154.018 170.713 154.024C173.572 155.12 176.472 155.702 179.243 155.702C182.015 155.702 184.857 155.236 187.432 154.348C187.477 154.338 187.518 154.325 187.557 154.303C188.603 153.934 189.612 153.498 190.587 152.994C190.477 153.268 190.354 153.604 190.212 153.856C189.961 154.399 189.6 155.11 189.283 155.615C189.022 156.109 188.496 156.807 188.18 157.269C187.751 157.773 187.354 158.307 186.873 158.759C186.738 158.892 186.489 159.16 186.351 159.289C186.241 159.386 185.528 159.994 185.409 160.097C184.886 160.485 184.344 160.899 183.776 161.222C183.528 161.364 183.179 161.597 182.915 161.713C182.634 161.858 182.328 162.007 182.015 162.149C182.011 162.149 182.008 162.149 182.008 162.149C181.55 162.356 181.076 162.55 180.644 162.705C180.301 162.812 179.798 162.97 179.456 163.077C177.12 163.691 174.698 163.904 172.288 163.743C169.623 163.571 166.99 162.99 164.454 162.137C164.248 162.069 164.016 162.182 163.951 162.411C163.903 162.592 164.003 162.78 164.167 162.867L164.174 162.847ZM188.635 183.299C187.293 184.252 185.673 184.743 184.08 185.177C184.057 185.183 184.034 185.193 184.012 185.202C183.924 185.225 183.838 185.251 183.75 185.283C174.698 187.245 165.284 186.789 156.105 185.946C146.894 185.099 137.664 183.35 129.179 179.566C128.669 179.372 128.437 180.073 128.869 180.274C137.467 183.994 146.756 185.745 156.034 186.644C165.297 187.523 174.743 187.978 183.921 186.049C183.921 186.049 183.931 186.046 183.937 186.046C183.95 186.043 183.963 186.036 183.976 186.033C183.983 186.033 183.989 186.033 183.996 186.027C184.547 185.803 185.228 185.929 185.663 186.343C186.544 187.128 186.173 188.719 185.428 189.546C184.615 190.457 183.489 190.949 182.35 191.42C177.669 193.327 172.53 193.728 167.516 193.702C162.451 193.686 157.389 193.211 152.395 192.37C143.129 190.674 131.689 187.859 124.082 182.193C121.543 180.199 119.168 176.777 122.852 174.582C124.278 173.8 126.004 173.894 127.585 174.156C132.589 175.038 137.306 176.958 142.203 178.348C157.428 182.778 172.317 183.793 187.264 177.74C187.722 177.604 188.199 177.543 188.645 177.565C188.664 177.572 188.683 177.575 188.702 177.578C188.731 177.578 188.761 177.578 188.79 177.578C189.767 177.675 190.58 178.218 190.748 179.395C190.984 180.93 189.928 182.394 188.628 183.309L188.635 183.299ZM160.454 235.758C160.448 235.548 160.273 235.384 160.063 235.384H160.06C159.863 235.384 159.667 235.384 159.47 235.384C156.302 235.384 153.575 235.235 150.691 235.076C147.346 234.895 143.891 234.708 139.245 234.708C136.015 234.708 132.731 234.773 129.553 234.834C126.379 234.895 123.098 234.96 119.875 234.96C118.852 234.96 117.855 234.954 116.916 234.941H116.91C116.703 234.941 116.532 235.099 116.519 235.306C116.332 238.16 116.126 241.188 115.822 244.203C108.706 244.203 107.547 244.203 101.346 244.203C101.863 241.295 102.234 238.36 102.431 235.416C103.137 224.35 102.608 207.208 94.8006 198.311C94.3713 197.819 94.51 197.057 95.0878 196.756L95.1071 196.746C95.4587 196.565 95.8782 196.607 96.1909 196.853C99.7432 199.636 103.947 201.737 108.431 203.246C109.518 203.611 110.39 204.435 110.864 205.486C111.909 207.822 112.638 210.311 113.329 212.806C114.196 215.899 114.981 219.114 116.581 221.939C118.436 225.216 121.365 227.078 125.056 227.588C125.862 227.718 126.759 227.766 127.575 227.782C133.383 227.795 139.183 227.805 144.962 227.023C149.624 226.302 155.912 225.026 157.721 220.009C158.279 218.371 158.108 216.642 158.073 214.948C158.054 214.053 157.854 212.502 157.634 211.077C157.37 209.351 158.37 207.673 160.022 207.105C160.041 207.098 160.06 207.092 160.083 207.085C161.919 206.445 163.928 207.367 164.645 209.176C165.584 211.545 166.584 214.599 167.326 218.219C168.742 225.126 169.171 232.249 168.619 239.275C168.477 240.92 168.268 242.555 168.071 244.207H160.37C160.467 242.342 160.515 240.597 160.515 238.877C160.515 237.823 160.496 236.773 160.46 235.755L160.454 235.758ZM159.728 238.88C159.728 240.6 159.68 242.345 159.583 244.21C146.53 244.21 137.812 244.21 116.61 244.21C116.897 241.34 117.1 238.46 117.277 235.736C118.11 235.745 118.984 235.749 119.875 235.749C123.104 235.749 126.391 235.687 129.569 235.623C132.744 235.561 136.025 235.497 139.245 235.497C143.868 235.497 147.313 235.684 150.646 235.865C153.543 236.02 156.279 236.172 159.47 236.172H159.686C159.715 237.061 159.728 237.969 159.728 238.88ZM88.5225 244.207C79.8147 244.207 73.0848 236.531 74.2271 227.882C75.0014 222.02 76.8532 215.795 80.3085 210.766C83.3054 206.406 86.8511 202.16 91.2228 199.083C92.3679 198.275 93.9455 198.534 94.7649 199.678C98.1751 204.451 103.492 215.11 100.611 244.21H88.5256L88.5225 244.207ZM168.794 244.21C168.974 242.594 169.168 240.968 169.294 239.336C169.907 230.529 169.232 221.092 166.545 212.463C165.858 210.253 168.548 208.595 170.207 210.207C170.91 210.889 171.559 211.623 172.162 212.395C178.843 221.377 180.298 233.283 180.821 244.21H168.794ZM80.5245 86.821C80.6534 86.7403 80.7214 86.5915 80.7021 86.4396C80.5277 85.0855 80.4374 83.7508 80.4374 82.4774C80.4374 75.4999 83.0347 68.8746 87.7514 63.8231C92.5518 58.6811 98.9784 55.8533 105.85 55.8533C112.054 55.8533 117.91 58.1738 122.788 62.5659C122.878 62.6469 123.001 62.6823 123.12 62.6595C123.239 62.6371 123.34 62.5627 123.394 62.4529C126.059 57.2884 129.666 53.3292 134.115 50.6888C138.342 48.1777 143.232 46.9075 148.649 46.9075C160.567 46.9075 167.177 53.2581 169.461 59.3244C165.7 60.9855 162.157 63.9814 158.879 68.2962C158.763 68.4512 158.757 68.6775 158.892 68.8196C159.063 69.0006 159.347 68.9778 159.489 68.7873C164.641 62.0035 170.426 58.5649 176.675 58.5649C183.495 58.5649 191.129 63.07 194.113 69.5208C196.758 75.2413 195.439 91.8272 185.631 91.8272C182.963 91.8272 180.84 90.5184 179.153 88.5276C177.443 86.5108 176.543 83.922 176.54 81.2751V81.1331C176.54 80.4543 176.54 79.7755 176.546 79.097C176.546 78.8805 176.372 78.7059 176.156 78.7059C175.94 78.7059 175.765 78.8805 175.765 79.097C175.759 79.7755 175.759 80.4543 175.759 81.1331C175.759 90.5247 176.182 100.075 176.592 109.315C176.737 112.647 176.888 116.034 177.02 119.437C174.178 118.606 171.365 117.947 168.442 117.424C168.216 117.382 168 117.546 167.984 117.782C167.968 117.986 168.126 118.164 168.326 118.199C171.304 118.729 174.159 119.408 177.053 120.261C177.108 121.732 177.159 123.202 177.204 124.669C177.259 126.466 175.604 127.83 173.856 127.426C172.478 127.109 171.062 126.945 169.613 126.945C164.219 126.945 158.838 129.197 154.424 133.295C149.565 128.383 143.374 125.691 136.541 125.691C131.476 125.691 126.463 127.158 121.859 129.921C115.187 131.492 108.925 134.598 103.547 138.828C101.995 140.05 99.7043 138.967 99.6494 136.989C99.6269 136.101 99.6108 135.212 99.6108 134.33C99.6108 132.083 99.7204 130.102 99.9204 128.341C107.993 124.175 116.829 121.069 126.266 119.101C126.475 119.056 126.611 118.849 126.569 118.636C126.524 118.425 126.317 118.29 126.104 118.332C116.787 120.281 108.044 123.325 100.04 127.4C102.35 110.727 113.39 115.313 117.374 104.432C118.703 104.59 120.01 104.671 121.278 104.671C128.953 104.671 135.244 101.743 139.487 96.1968C143.752 97.7965 147.988 98.6433 151.753 98.6433C160.267 98.6433 166.422 94.4709 169.552 86.5754C169.623 86.3944 169.565 86.1748 169.397 86.0776C169.184 85.9517 168.92 86.052 168.832 86.2684C165.045 95.8478 157.453 97.8579 151.756 97.8579C148.007 97.8579 143.768 96.9949 139.496 95.3598C139.332 95.2984 139.148 95.3532 139.042 95.4921C134.951 100.986 128.808 103.889 121.281 103.889C118.82 103.889 116.216 103.582 113.545 102.974C113.374 102.935 113.2 103.016 113.116 103.168C109.399 109.935 103.769 113.516 96.8394 113.516C92.6551 113.516 88.006 112.178 83.3863 109.648C83.2151 109.554 82.9927 109.583 82.8733 109.738C82.7216 109.935 82.7829 110.21 82.9927 110.323C86.9802 112.511 91.0001 113.827 94.7488 114.192C95.3134 114.247 95.7458 114.722 95.7297 115.287V115.307C95.7136 115.853 95.2972 116.302 94.7555 116.354C90.4033 116.761 74.2271 117.223 72.5333 102.085C71.8203 95.699 75.5593 89.9592 80.5343 86.8146L80.5245 86.821ZM184.483 137.765C176.359 135.7 167.345 137.041 160.141 141.333C158.683 138.486 156.937 135.984 154.953 133.867C159.222 129.908 164.412 127.733 169.6 127.733C172.388 127.733 175.049 128.344 177.54 129.546C177.546 129.546 177.553 129.553 177.563 129.553C178.143 129.834 178.714 130.151 179.279 130.496C181.611 131.935 183.682 133.883 185.457 136.304C185.973 137.009 185.325 137.975 184.479 137.762L184.483 137.765ZM154.918 143.615C154.814 143.437 154.998 143.233 155.182 143.321C155.182 143.321 155.186 143.321 155.189 143.321C157.415 144.403 159.205 146.136 160.925 147.916C161.006 148 161.002 148.133 160.922 148.21C159.499 149.581 157.918 150.77 156.224 151.769C156.066 151.862 155.873 151.714 155.924 151.533C156.176 150.634 156.302 149.707 156.302 148.757C156.302 146.937 155.818 145.163 154.918 143.612V143.615ZM147.901 149.917C147.901 150.489 147.436 150.951 146.865 150.951C146.294 150.951 145.83 150.489 145.83 149.917C145.83 149.345 146.294 148.879 146.865 148.879C147.436 148.879 147.901 149.345 147.901 149.917ZM143.881 147.047C143.881 147.9 143.19 148.595 142.339 148.595C141.487 148.595 140.793 147.9 140.793 147.047C140.793 146.194 141.487 145.502 142.339 145.502C143.19 145.502 143.881 146.194 143.881 147.047ZM137.099 153.73C137.341 154.167 136.944 154.681 136.464 154.548C135.428 154.26 134.412 153.905 133.418 153.469C130.989 152.418 128.75 150.951 126.769 149.193C126.346 148.818 126.534 148.123 127.085 148.013C128.466 147.735 130.605 147.26 132.021 146.769C133.157 146.371 134.286 145.942 135.409 145.505C135.831 145.344 136.267 145.722 136.154 146.161C135.932 147.005 135.818 147.874 135.818 148.763C135.818 150.521 136.264 152.224 137.099 153.734V153.73ZM169.461 151.394C169.613 151.959 169.029 152.441 168.506 152.182C166.59 151.232 164.716 150.049 162.938 148.653C162.609 148.395 162.628 147.89 162.977 147.661C164.245 146.827 166.99 145.105 168.858 144.329C169.413 144.099 169.961 144.646 169.752 145.208C169.329 146.333 169.11 147.532 169.11 148.763C169.11 149.655 169.229 150.541 169.461 151.394ZM173.839 147.047C173.839 146.194 174.533 145.502 175.385 145.502C176.236 145.502 176.927 146.194 176.927 147.047C176.927 147.9 176.236 148.595 175.385 148.595C174.533 148.595 173.839 147.9 173.839 147.047ZM178.734 144.852C178.162 144.852 177.698 144.39 177.698 143.818C177.698 143.246 178.162 142.781 178.734 142.781C179.305 142.781 179.766 143.246 179.766 143.818C179.766 144.39 179.305 144.852 178.734 144.852ZM180.801 150.951C180.801 151.523 180.337 151.988 179.766 151.988C179.195 151.988 178.734 151.523 178.734 150.951C178.734 150.379 179.195 149.917 179.766 149.917C180.337 149.917 180.801 150.379 180.801 150.951ZM189.157 152.797C188.832 152.942 188.496 152.622 188.622 152.286C189.038 151.167 189.254 149.975 189.254 148.76C189.254 147.625 189.064 146.507 188.696 145.447C188.58 145.111 188.919 144.798 189.241 144.946C191.432 145.958 193.264 147.183 194.878 148.424C195.074 148.576 195.087 148.873 194.903 149.038C193.19 150.586 191.255 151.843 189.157 152.793V152.797ZM187.715 143.485C187.667 143.453 187.615 143.437 187.56 143.427C184.738 142.406 181.243 141.659 176.982 141.659C172.126 141.659 166.258 144.209 162.438 146.96C162.441 146.927 162.445 146.892 162.448 146.86C162.448 146.847 162.451 146.837 162.451 146.824C162.451 145.04 161.664 143.353 160.625 141.95C170.184 136.275 183.028 135.868 192.455 142.024C192.935 142.325 193.481 142.732 193.936 143.065C194.623 143.586 194.916 144.558 194.61 145.366V145.376C194.603 145.392 194.597 145.434 194.584 145.512C194.584 145.674 194.681 145.809 194.819 145.871C195.32 146.355 195.558 147.053 195.523 147.748C195.523 147.806 195.516 147.861 195.513 147.919C193.942 146.682 191.416 144.846 187.715 143.482V143.485Z" fill="#EB4747"/>
<path d="M155.328 155.763C151.772 157.305 148.175 158.054 144.326 158.054C139.803 158.054 135.038 157.03 129.328 154.829C129.128 154.751 128.898 154.852 128.821 155.055C128.744 155.259 128.844 155.485 129.047 155.563C134.848 157.799 139.703 158.843 144.326 158.843C148.282 158.843 151.982 158.074 155.637 156.487C155.834 156.4 155.928 156.17 155.841 155.973C155.754 155.776 155.525 155.682 155.328 155.769V155.763Z" fill="#EB4747"/>
<path d="M153.137 160.01C149.056 162.812 144.697 164.008 138.555 164.008C138.151 164.008 137.725 164.001 137.29 163.992C137.29 163.992 137.283 163.992 137.28 163.992C137.067 163.992 136.893 164.16 136.89 164.373C136.883 164.59 137.054 164.768 137.27 164.774C137.709 164.784 138.141 164.79 138.551 164.79C144.862 164.79 149.353 163.556 153.576 160.657C153.753 160.534 153.798 160.291 153.676 160.11C153.553 159.933 153.311 159.887 153.13 160.01H153.137Z" fill="#EB4747"/>
<path d="M121.713 167.822C121.381 167.776 121.045 167.754 120.71 167.754C116.206 167.754 112.254 171.845 112.254 176.509C112.254 177.937 112.57 179.431 113.248 181.208C113.306 181.363 113.454 181.46 113.612 181.46C113.657 181.46 113.706 181.45 113.751 181.434C113.954 181.357 114.054 181.13 113.977 180.93C113.335 179.243 113.035 177.837 113.035 176.509C113.035 172.262 116.622 168.536 120.71 168.536C121.01 168.536 121.31 168.555 121.607 168.597C121.82 168.626 122.016 168.478 122.049 168.261C122.078 168.048 121.929 167.851 121.713 167.818V167.822Z" fill="#EB4747"/>
<path d="M160.853 110.84C160.853 109.176 159.302 108.061 157.85 108.061C156.988 108.061 156.234 108.433 155.711 109.095C155.075 108.417 154.308 107.925 153.465 107.654C153.443 107.638 153.417 107.625 153.391 107.612C153.372 107.605 153.356 107.599 153.333 107.592C153.33 107.592 153.327 107.592 153.324 107.589C150.526 106.749 147.168 106.571 144.1 107.104C142.403 107.398 140.967 108.074 139.918 109.066C139.406 108.523 138.725 108.226 137.951 108.226C136.499 108.226 134.944 109.344 134.944 111.005C134.944 111.503 135.082 112.007 135.353 112.511C134.821 113.138 134.557 113.814 134.557 114.567C134.557 116.441 135.882 117.802 137.709 117.802C138.322 117.802 138.918 117.64 139.428 117.349C140.902 118.949 143.567 119.796 147.171 119.796C149.071 119.796 150.42 119.692 152.259 119.534C153.304 119.528 154.83 119.104 156.221 117.142C156.227 117.133 156.234 117.12 156.243 117.11C156.772 117.446 157.421 117.637 158.082 117.637C159.908 117.637 161.234 116.276 161.234 114.402C161.234 113.646 160.973 112.97 160.44 112.346C160.711 111.845 160.85 111.341 160.85 110.843L160.853 110.84ZM137.712 117.017C136.315 117.017 135.34 116.008 135.34 114.563C135.34 114.066 135.492 113.62 135.811 113.193C135.882 113.284 135.954 113.371 136.031 113.458C136.108 113.545 136.215 113.587 136.321 113.587C136.415 113.587 136.508 113.555 136.583 113.487C136.744 113.342 136.757 113.096 136.612 112.935C136.444 112.747 136.292 112.55 136.166 112.353C135.876 111.891 135.728 111.438 135.728 111.008C135.728 109.816 136.876 109.011 137.951 109.011C138.515 109.011 139.012 109.234 139.383 109.641C138.499 110.721 138.054 112.03 138.054 113.545C138.054 114.774 138.354 115.843 138.941 116.729C138.573 116.919 138.151 117.02 137.712 117.02V117.017ZM147.174 119.01C144.697 119.01 141.406 118.59 139.809 116.59C139.164 115.782 138.835 114.757 138.835 113.542C138.835 112.107 139.286 110.886 140.18 109.913C141.128 108.875 142.529 108.171 144.232 107.877C146.187 107.537 148.265 107.499 150.226 107.744C148.152 108.597 146.955 110.957 146.955 113.255C146.955 115.682 148.255 117.889 150.042 118.923C149.133 118.981 148.255 119.014 147.177 119.014L147.174 119.01ZM155.588 116.687C154.63 118.038 153.472 118.749 152.239 118.749C149.884 118.749 147.736 116.128 147.736 113.251C147.736 110.766 149.307 108.193 151.939 108.193C152.336 108.193 152.727 108.248 153.098 108.355C153.933 108.594 154.685 109.092 155.291 109.8C155.117 110.207 155.024 110.653 155.024 111.102C155.024 111.138 155.024 111.176 155.024 111.212C154.149 111.222 154.001 111.218 153.723 111.215C153.478 111.212 153.133 111.205 152.13 111.205C151.046 111.205 149.888 112.104 149.888 113.442C149.888 114.648 150.768 115.588 151.894 115.588C152.03 115.588 152.181 115.588 152.365 115.588C152.665 115.588 153.052 115.591 153.611 115.591C154.004 115.591 154.485 115.591 155.085 115.585C155.191 115.956 155.382 116.296 155.646 116.59C155.627 116.619 155.607 116.648 155.588 116.677V116.687ZM160.457 114.399C160.457 115.84 159.482 116.848 158.089 116.848C157.456 116.848 156.843 116.632 156.405 116.254C156.062 115.956 155.846 115.568 155.782 115.136C155.769 115.048 155.762 114.955 155.762 114.851C155.762 114.605 155.807 114.344 155.895 114.075C155.963 113.869 155.849 113.649 155.643 113.581C155.437 113.513 155.217 113.626 155.149 113.833C155.043 114.166 154.985 114.496 154.982 114.812C153.607 114.822 152.872 114.816 152.372 114.812C152.184 114.812 152.033 114.812 151.894 114.812C151.197 114.812 150.668 114.227 150.668 113.449C150.668 112.592 151.439 111.997 152.13 111.997C153.127 111.997 153.469 112.004 153.711 112.007C154.04 112.013 154.188 112.013 155.456 111.997C155.569 111.997 155.675 111.946 155.75 111.858C155.824 111.771 155.856 111.658 155.837 111.545C155.814 111.396 155.801 111.251 155.801 111.109C155.801 110.695 155.901 110.288 156.091 109.929C156.456 109.241 157.095 108.846 157.843 108.846C158.918 108.846 160.066 109.648 160.066 110.843C160.066 111.277 159.918 111.726 159.627 112.188C159.505 112.385 159.353 112.582 159.182 112.773C159.037 112.935 159.053 113.183 159.214 113.326C159.376 113.471 159.624 113.455 159.766 113.293C159.844 113.206 159.914 113.119 159.986 113.031C160.302 113.458 160.453 113.904 160.453 114.402L160.457 114.399Z" fill="#EB4747"/>
<path d="M161.509 106.138C157.679 104.128 152.598 103.022 147.2 103.022C141.803 103.022 136.722 104.128 132.892 106.138C128.982 108.19 126.83 110.947 126.83 113.898C126.83 116.849 128.982 119.608 132.892 121.657C136.722 123.668 141.803 124.773 147.2 124.773C152.598 124.773 157.679 123.668 161.509 121.657C165.419 119.605 167.571 116.849 167.571 113.898C167.571 110.947 165.419 108.187 161.509 106.138ZM147.2 123.994C136.399 123.994 127.614 119.466 127.614 113.901C127.614 108.336 136.402 103.808 147.2 103.808C157.999 103.808 166.787 108.336 166.787 113.901C166.787 119.466 157.999 123.994 147.2 123.994Z" fill="#EB4747"/>
</g>
<path d="M133.749 243.902C194.293 243.902 243.373 194.736 243.373 134.087C243.373 73.4373 194.293 24.271 133.749 24.271C73.2059 24.271 24.126 73.4373 24.126 134.087C24.126 194.736 73.2059 243.902 133.749 243.902Z" stroke="#EB4747" stroke-width="4" stroke-miterlimit="10"/>
</svg>
