<svg width="256" height="256" viewBox="0 0 256 256" fill="none" xmlns="http://www.w3.org/2000/svg">
<circle cx="128" cy="128" r="128" fill="black"/>
<path d="M120.395 65H121.161C123.573 65.0976 125.981 65.0976 128.388 65C128.405 65.0022 128.421 65.0022 128.439 65H129.261H129.936L127.848 190.262C127.847 190.271 127.844 190.28 127.837 190.286C127.83 190.293 127.822 190.296 127.812 190.296H122.532C122.5 190.296 122.484 190.281 122.484 190.249L120.395 65Z" fill="#CA2929"/>
<path d="M112.844 127.624L109.574 83.111C109.573 83.0995 109.577 83.088 109.583 83.0784L113.439 77.4856C113.445 77.4773 113.453 77.471 113.463 77.4676C113.473 77.4642 113.483 77.4639 113.493 77.4668C113.503 77.4696 113.512 77.4754 113.519 77.4835C113.526 77.4915 113.529 77.5014 113.53 77.5117L119.802 190.242C119.802 190.249 119.801 190.256 119.799 190.263C119.796 190.269 119.793 190.275 119.788 190.28C119.784 190.285 119.778 190.289 119.772 190.292C119.765 190.295 119.758 190.296 119.751 190.296H115.338C115.326 190.296 115.313 190.291 115.304 190.283C115.295 190.275 115.289 190.263 115.288 190.251L110.025 133.234C110.024 133.225 110.026 133.215 110.03 133.207L112.84 127.651C112.844 127.643 112.845 127.633 112.844 127.624Z" fill="#CA2929"/>
<path d="M138.777 125.792C139.364 127.015 140.017 128.2 140.614 129.416C140.637 129.463 140.646 129.513 140.642 129.565L135.043 190.226C135.038 190.273 135.012 190.296 134.964 190.296H130.581C130.573 190.296 130.567 190.295 130.56 190.292C130.553 190.289 130.547 190.285 130.542 190.28C130.537 190.274 130.533 190.268 130.53 190.261C130.528 190.254 130.527 190.247 130.527 190.239L136.801 77.4776C136.801 77.4697 136.803 77.462 136.808 77.4558C136.813 77.4495 136.82 77.445 136.827 77.4428C136.835 77.4407 136.844 77.441 136.852 77.4437C136.859 77.4465 136.866 77.4515 136.871 77.4581L141.624 84.3478C141.65 84.3847 141.661 84.4248 141.658 84.4682C140.659 98.036 139.659 111.601 138.659 125.162C138.643 125.383 138.682 125.593 138.777 125.792Z" fill="#CA2929"/>
<path d="M101.226 98.8628L112.57 190.234C112.571 190.242 112.57 190.25 112.568 190.258C112.566 190.265 112.562 190.271 112.557 190.277C112.552 190.283 112.546 190.288 112.539 190.292C112.532 190.295 112.524 190.296 112.517 190.297H108.058C108.045 190.297 108.032 190.292 108.022 190.283C108.012 190.275 108.005 190.262 108.003 190.249L100.217 142.718C100.215 142.708 100.216 142.697 100.221 142.687L102.353 137.784C102.357 137.775 102.359 137.765 102.357 137.755L97.8324 103.497C97.8308 103.483 97.8345 103.469 97.8424 103.458L101.126 98.8368C101.132 98.8273 101.141 98.8201 101.152 98.8161C101.163 98.812 101.174 98.8114 101.185 98.8143C101.196 98.8171 101.206 98.8233 101.213 98.832C101.221 98.8407 101.225 98.8515 101.226 98.8628Z" fill="#CA2929"/>
<path d="M149.237 135.875C149.672 136.912 150.134 137.933 150.574 138.968C150.728 139.331 150.631 139.609 150.57 139.976C147.82 156.735 145.074 173.489 142.331 190.237C142.328 190.254 142.32 190.268 142.306 190.279C142.294 190.29 142.277 190.296 142.26 190.296H137.795C137.79 190.296 137.785 190.295 137.78 190.293C137.775 190.291 137.771 190.287 137.768 190.283C137.764 190.279 137.761 190.275 137.76 190.269C137.758 190.264 137.757 190.259 137.758 190.254L149.11 98.8816C149.123 98.7742 149.161 98.7644 149.224 98.8523L153.157 104.396C153.211 104.473 153.234 104.566 153.222 104.658C151.862 114.947 150.511 125.177 149.169 135.349C149.145 135.531 149.167 135.707 149.237 135.875Z" fill="#CA2929"/>
<path d="M90.9747 116.635L105.209 190.228C105.211 190.236 105.211 190.245 105.209 190.252C105.207 190.261 105.203 190.268 105.198 190.275C105.193 190.282 105.186 190.287 105.178 190.29C105.17 190.294 105.162 190.296 105.154 190.296H100.613C100.6 190.296 100.587 190.292 100.577 190.284C100.567 190.276 100.56 190.265 100.557 190.252L92.3111 155.499C92.3084 155.489 92.309 155.477 92.3127 155.467L94.5182 149.126C94.5214 149.116 94.5224 149.105 94.5198 149.095L88.4074 120.023C88.4059 120.015 88.4059 120.007 88.4074 119.999C88.4096 119.991 88.4127 119.984 88.4175 119.977L90.8738 116.612C90.8801 116.603 90.8891 116.597 90.8997 116.593C90.9097 116.59 90.9208 116.589 90.9314 116.591C90.9419 116.594 90.952 116.599 90.9594 116.607C90.9673 116.615 90.9725 116.624 90.9747 116.635Z" fill="#CA2929"/>
<path d="M159.452 116.605L162.467 120.73C162.472 120.736 162.474 120.743 162.476 120.75C162.477 120.757 162.477 120.765 162.475 120.772L156.964 146.971C156.962 146.98 156.962 146.989 156.965 146.998L158.79 152.23C158.793 152.239 158.794 152.249 158.792 152.259L149.775 190.254C149.773 190.266 149.766 190.277 149.758 190.284C149.749 190.291 149.737 190.295 149.725 190.295H145.174C145.166 190.296 145.158 190.294 145.152 190.291C145.145 190.288 145.138 190.283 145.133 190.277C145.128 190.271 145.125 190.264 145.123 190.257C145.121 190.249 145.12 190.241 145.122 190.233L159.36 116.626C159.362 116.616 159.366 116.607 159.374 116.6C159.381 116.593 159.39 116.588 159.4 116.585C159.409 116.583 159.42 116.584 159.429 116.587C159.438 116.591 159.447 116.597 159.452 116.605Z" fill="#CA2929"/>
<path d="M80.5586 133.863L82.1241 131.772C82.1305 131.764 82.1389 131.757 82.149 131.754C82.1585 131.75 82.169 131.749 82.1796 131.751C82.1896 131.753 82.1991 131.758 82.2065 131.765C82.2139 131.772 82.2192 131.781 82.2218 131.791L97.6383 190.225C97.641 190.233 97.641 190.242 97.6394 190.25C97.6378 190.259 97.6341 190.267 97.6288 190.273C97.6241 190.28 97.6172 190.286 97.6093 190.289C97.6019 190.293 97.5935 190.295 97.585 190.295H92.91C92.8983 190.295 92.8867 190.291 92.8777 190.284C92.8682 190.277 92.8614 190.267 92.8577 190.256L84.9844 165.123C84.9812 165.113 84.9812 165.102 84.9844 165.091L87.0336 157.921C87.0368 157.912 87.0373 157.902 87.0352 157.892L80.5485 133.91C80.5464 133.902 80.5464 133.894 80.548 133.885C80.5501 133.877 80.5533 133.869 80.5586 133.863Z" fill="#CA2929"/>
<path d="M157.425 190.296L152.748 190.295C152.74 190.295 152.732 190.293 152.724 190.289C152.718 190.286 152.711 190.28 152.706 190.274C152.701 190.268 152.698 190.261 152.696 190.253C152.695 190.245 152.695 190.237 152.697 190.229L168.114 131.788C168.116 131.778 168.121 131.769 168.128 131.762C168.135 131.755 168.144 131.751 168.154 131.749C168.164 131.747 168.174 131.748 168.183 131.752C168.192 131.755 168.201 131.762 168.206 131.77L170.203 134.43C170.208 134.437 170.211 134.444 170.212 134.452C170.214 134.459 170.213 134.467 170.212 134.474L164.458 155.761C164.455 155.771 164.455 155.781 164.458 155.791L166.268 162.155C166.27 162.165 166.27 162.175 166.268 162.184L157.476 190.26C157.472 190.271 157.466 190.28 157.457 190.287C157.448 190.293 157.437 190.296 157.425 190.296Z" fill="#CA2929"/>
<path d="M78.9535 168.873C76.8298 161.777 74.7183 154.675 72.6183 147.569C72.5999 147.508 72.6099 147.452 72.649 147.401L74.4997 144.987C74.5065 144.978 74.515 144.972 74.5245 144.969C74.534 144.965 74.5445 144.964 74.5546 144.966C74.5646 144.967 74.5736 144.971 74.5815 144.978C74.5889 144.985 74.5947 144.993 74.5974 145.003L89.7715 190.223C89.7742 190.232 89.7747 190.24 89.7731 190.249C89.772 190.258 89.7684 190.266 89.7636 190.273C89.7583 190.281 89.7515 190.286 89.7441 190.29C89.7367 190.294 89.7282 190.296 89.7193 190.296H84.9175C84.8905 190.296 84.8641 190.288 84.8419 190.273C84.8198 190.258 84.8023 190.236 84.7923 190.21L78.1198 173.209C78.0854 173.119 78.0807 173.021 78.1071 172.931C78.4271 171.811 78.7169 170.674 78.9762 169.518C79.0253 169.301 79.0174 169.086 78.9535 168.873Z" fill="#CA2929"/>
<path d="M165.467 190.296H160.612C160.603 190.296 160.595 190.294 160.587 190.29C160.58 190.286 160.574 190.281 160.569 190.274C160.564 190.267 160.561 190.259 160.559 190.251C160.558 190.243 160.558 190.234 160.561 190.226L175.735 145.001C175.738 144.991 175.744 144.983 175.751 144.976C175.758 144.969 175.767 144.965 175.777 144.964C175.787 144.962 175.797 144.963 175.807 144.967C175.815 144.97 175.823 144.976 175.83 144.984L178.102 147.949C178.107 147.956 178.11 147.964 178.111 147.972C178.113 147.98 178.112 147.989 178.11 147.997L172.429 167.146C172.426 167.155 172.425 167.165 172.428 167.175L173.279 170.462C173.282 170.473 173.281 170.484 173.277 170.494L165.516 190.262C165.512 190.272 165.505 190.28 165.497 190.287C165.488 190.292 165.478 190.296 165.467 190.296Z" fill="#CA2929"/>
<path d="M73.3002 183.884L74.1335 177.928C74.135 177.919 74.134 177.91 74.1303 177.901L66.0388 158.918C66.0354 158.909 66.0344 158.9 66.0358 158.891C66.0372 158.881 66.0411 158.873 66.0469 158.866L67.7479 156.7C67.7536 156.693 67.7611 156.687 67.7696 156.684C67.7781 156.68 67.7874 156.679 67.7965 156.68C67.8055 156.681 67.8141 156.685 67.8213 156.691C67.8285 156.697 67.8341 156.704 67.8374 156.713L81.5157 190.224C81.5188 190.232 81.5199 190.241 81.5188 190.249C81.5183 190.258 81.5151 190.265 81.5104 190.273C81.5056 190.28 81.4988 190.286 81.4914 190.29C81.4835 190.293 81.475 190.296 81.4666 190.296H76.3765C76.367 190.296 76.3569 190.293 76.349 190.288C76.3406 190.282 76.3337 190.275 76.3295 190.266L73.305 183.915C73.3002 183.906 73.2987 183.895 73.3002 183.884Z" fill="#CA2929"/>
<path d="M177.648 175.096C177.504 175.433 177.344 175.68 177.398 176.071C177.641 177.834 177.892 179.626 178.152 181.445C178.161 181.508 178.152 181.572 178.124 181.631L174.02 190.234C174.011 190.253 173.998 190.269 173.98 190.28C173.962 190.291 173.942 190.297 173.921 190.297H168.885C168.822 190.297 168.802 190.268 168.826 190.209L182.486 156.74C182.517 156.668 182.556 156.662 182.605 156.725L184.412 159.02C184.429 159.043 184.44 159.069 184.444 159.096C184.448 159.124 184.444 159.152 184.433 159.178C182.185 164.481 179.923 169.787 177.648 175.096Z" fill="#CA2929"/>
<path d="M186.135 180.097L186.673 183.904C186.674 183.916 186.672 183.928 186.666 183.938L183.065 190.268C183.061 190.276 183.054 190.283 183.046 190.288C183.039 190.293 183.03 190.296 183.02 190.296H177.642C177.633 190.296 177.624 190.293 177.616 190.289C177.609 190.284 177.602 190.278 177.598 190.27C177.593 190.263 177.59 190.254 177.59 190.245C177.589 190.237 177.591 190.228 177.595 190.219L188.589 167.279C188.592 167.271 188.599 167.263 188.606 167.258C188.613 167.253 188.622 167.249 188.631 167.248C188.64 167.247 188.65 167.249 188.658 167.253C188.667 167.256 188.674 167.262 188.68 167.269L190.566 169.615C190.572 169.623 190.575 169.632 190.577 169.641C190.578 169.651 190.577 169.66 190.573 169.669L186.141 180.069C186.136 180.078 186.135 180.087 186.135 180.097Z" fill="#CA2929"/>
<path d="M61.7548 167.303L72.7533 190.247C72.7559 190.253 72.757 190.258 72.757 190.264C72.7564 190.269 72.7543 190.275 72.7517 190.28C72.7485 190.285 72.7443 190.289 72.739 190.292C72.7343 190.294 72.7285 190.296 72.7226 190.296H67.3884C67.3211 190.296 67.2712 190.267 67.2387 190.208L64.8882 186.073C64.845 185.997 64.8289 185.909 64.8426 185.823C65.0129 184.733 65.166 183.624 65.3016 182.498C65.3288 182.274 65.2973 182.057 65.2072 181.848C63.4514 177.735 61.6972 173.622 59.9447 169.51C59.9348 169.487 59.9315 169.462 59.9349 169.438C59.9383 169.413 59.9485 169.39 59.9642 169.37L61.6375 167.29C61.645 167.281 61.6548 167.274 61.6658 167.269C61.6768 167.264 61.6888 167.263 61.7006 167.264C61.7123 167.265 61.7235 167.27 61.733 167.276C61.7425 167.283 61.75 167.293 61.7548 167.303Z" fill="#CA2929"/>
<path d="M56.1565 176.907L63.3153 190.224C63.3192 190.232 63.3211 190.24 63.3209 190.249C63.3208 190.257 63.3185 190.265 63.3142 190.273C63.31 190.279 63.3039 190.285 63.2967 190.289C63.2895 190.294 63.2813 190.296 63.273 190.296H57.6654C57.6022 190.296 57.5398 190.283 57.4823 190.256C57.4249 190.23 57.3737 190.192 57.3322 190.144C57.2908 190.096 57.2599 190.04 57.2419 189.979C57.2238 189.919 57.219 189.855 57.2275 189.792L57.8672 185.215C57.8789 185.136 57.8682 185.055 57.8363 184.98L55.0154 178.377C54.9883 178.313 54.9969 178.253 55.0415 178.198L56.0995 176.901C56.1031 176.897 56.1078 176.893 56.1131 176.891C56.1184 176.889 56.1241 176.888 56.1298 176.889C56.1354 176.889 56.1408 176.892 56.1455 176.895C56.1501 176.898 56.1539 176.903 56.1565 176.907Z" fill="#CA2929"/>
<path d="M193.609 183L194.324 188.071C194.325 188.085 194.322 188.099 194.314 188.111L192.861 190.271C192.855 190.279 192.848 190.285 192.839 190.29C192.83 190.294 192.821 190.297 192.811 190.297H187.079C187.068 190.297 187.058 190.294 187.05 190.29C187.041 190.284 187.033 190.277 187.028 190.268C187.023 190.26 187.02 190.25 187.02 190.24C187.019 190.229 187.022 190.219 187.026 190.21L194.157 176.939C194.162 176.93 194.169 176.923 194.177 176.917C194.185 176.912 194.194 176.909 194.204 176.909C194.214 176.907 194.224 176.909 194.232 176.913C194.241 176.917 194.249 176.923 194.255 176.931L195.499 178.454C195.505 178.462 195.51 178.472 195.511 178.483C195.513 178.494 195.511 178.504 195.507 178.514L193.614 182.969C193.609 182.979 193.608 182.99 193.609 183Z" fill="#CA2929"/>
<path d="M199.41 184.637L200.396 186.012C200.402 186.02 200.406 186.029 200.407 186.039C200.408 186.048 200.406 186.058 200.403 186.067L199.584 187.987C199.58 187.997 199.578 188.007 199.579 188.017L199.893 190.233C199.894 190.241 199.894 190.249 199.892 190.257C199.889 190.264 199.885 190.272 199.88 190.277C199.875 190.284 199.868 190.288 199.861 190.292C199.854 190.295 199.846 190.296 199.838 190.296H196.086C196.076 190.296 196.067 190.294 196.059 190.289C196.05 190.284 196.043 190.277 196.039 190.268C196.034 190.26 196.031 190.25 196.031 190.241C196.031 190.231 196.034 190.222 196.039 190.213L199.317 184.64C199.322 184.632 199.328 184.626 199.336 184.621C199.344 184.616 199.353 184.614 199.363 184.613C199.371 184.613 199.381 184.615 199.389 184.619C199.397 184.623 199.404 184.63 199.41 184.637Z" fill="#CA2929"/>
</svg>
