<svg width="256" height="256" viewBox="0 0 256 256" fill="none" xmlns="http://www.w3.org/2000/svg">
<g clip-path="url(#clip0_1879_2805)">
<path d="M128 256C198.692 256 256 198.692 256 128C256 57.3076 198.692 0 128 0C57.3076 0 0 57.3076 0 128C0 198.692 57.3076 256 128 256Z" fill="#0E0F10" stroke="#202022" stroke-width="2"/>
<path d="M119.255 55.6753L121.212 52.5037L122.104 51H123.094C123.115 51.0021 123.136 51.0021 123.155 51C124.437 51.0413 125.718 51.0644 127 51.0692C128.283 51.0644 129.564 51.0413 130.845 51C130.865 51.0021 130.885 51.0021 130.907 51H131.897L132.789 52.5033L134.746 55.6753L133.054 99.2169L137 104.229L131.706 170.829H130.272L130.267 170.955C130.267 170.985 130.248 171 130.21 171H123.79C123.753 171 123.734 170.985 123.734 170.955L123.728 170.829H122.294L117 104.229L120.947 99.2169L119.255 55.6753Z" fill="#CA2929"/>
<path d="M98.4887 79.9098L106.058 108.478L106.052 108.507L97.0065 117.777L97.0002 117.806L105.461 170.952C105.461 170.952 106.674 170.967 107.766 170.973C108.659 170.978 109.478 170.986 109.478 170.986L109.52 171H114.938L114.963 170.996L114.974 170.991L114.984 170.983L114.996 170.965L115 170.955V170.944L107.299 67.0492L107.286 67.0196L107.255 67.0021L107.217 67.0029L107.188 67.0218L98.4986 79.8756L98.4887 79.9098Z" fill="#CA2929"/>
<path d="M98.9988 170.928L84.3044 102.048C84.3019 102.037 84.295 102.026 84.2864 102.018C84.277 102.01 84.2658 102.004 84.253 102.001C84.2409 101.999 84.2272 102 84.2152 102.004C84.21 102.006 84.204 102.008 84.1989 102.012C84.1937 102.015 84.1894 102.019 84.1852 102.024L78.5939 110.552C78.5879 110.559 78.5844 110.566 78.5819 110.575L78.581 110.585L78.5819 110.6L84.4538 128.737L84.4555 128.753C84.4555 128.759 84.4546 128.764 84.4521 128.77L78.0034 137.691L78 137.707V137.718L87.739 170.954C87.7425 170.967 87.751 170.979 87.7622 170.987C87.7742 170.996 87.7888 171 87.8042 171H98.9336C98.943 171 98.9533 170.997 98.9619 170.994C98.9705 170.991 98.9791 170.985 98.9851 170.978C98.9911 170.971 98.9954 170.963 98.9979 170.955C99.0005 170.946 99.0005 170.936 98.9988 170.928Z" fill="#CA2929"/>
<path d="M64.9724 148.137L60.272 139.989C60.272 139.989 60.2622 139.865 60.3093 139.81L65.4912 132.023C65.4989 132.015 65.5092 132.008 65.5208 132.004C65.5274 132.002 65.5343 132.001 65.5413 132L65.557 132.001C65.5691 132.003 65.5803 132.007 65.5895 132.015C65.5987 132.022 65.6054 132.03 65.609 132.041L79.9973 170.922C80 170.931 80.0008 170.94 79.9991 170.95L79.9921 170.97C79.9859 170.977 79.9736 170.989 79.964 170.993C79.957 170.996 79.9421 171 79.9342 171H68.2423C68.2098 171 68.1781 170.991 68.1511 170.975C68.1241 170.958 68.1031 170.935 68.0909 170.908L60.0361 157.974C59.9941 157.879 59.9886 157.774 60.0204 157.677C60.2015 157.117 61.2377 155.409 62.32 153.625C63.5471 151.602 64.8336 149.481 64.9999 148.826C65.0588 148.594 64.9724 148.137 64.9724 148.137Z" fill="#CA2929"/>
<path d="M54.1673 162.023L57.9965 170.925L57.9999 170.934L57.9944 170.944L57.9815 170.95L57.9642 170.953H54.0968C54.0264 170.953 53.9403 170.996 53.9403 170.996C53.9403 170.996 49.6457 170.931 46.8941 170.958C45.3733 170.973 43 171 43 171L50.5753 164.894L50.5651 164.852C50.5651 164.852 50.5792 164.825 50.5957 164.813L54.0448 162.015L54.0566 162.009L54.0744 162.003L54.0939 162H54.1107L54.1445 162.007L54.1673 162.023Z" fill="#CA2929"/>
<path d="M148.445 108.478L155.594 79.9098C155.595 79.8978 155.592 79.8858 155.585 79.8756L147.379 67.0218C147.372 67.013 147.362 67.0064 147.35 67.0029C147.339 66.9993 147.327 66.9991 147.316 67.0021C147.304 67.005 147.294 67.0111 147.286 67.0196C147.278 67.0281 147.274 67.0384 147.273 67.0492L140 170.944C140 170.95 140.001 170.958 140.003 170.965L140.009 170.975L140.016 170.983L140.027 170.991L140.035 170.996C140.043 170.998 140.051 171 140.059 171H145.176L145.184 170.999L145.194 170.997L145.209 170.991C145.214 170.986 145.989 170.978 146.833 170.973C147.864 170.967 149.009 170.959 149.01 170.952L156.999 117.806C157 117.8 157 117.794 156.999 117.788L156.994 117.777L148.451 108.507C148.446 108.498 148.444 108.489 148.445 108.478Z" fill="#CA2929"/>
<path d="M155.001 170.928L169.696 102.048L169.714 102.018L169.746 102.001L169.784 102.004L169.815 102.024L175.406 110.552L175.417 110.575V110.6L169.545 128.737L169.548 128.77L175.997 137.691L175.998 137.726L166.261 170.954L166.237 170.987L166.196 171H155.066L155.038 170.994L155.015 170.978L155.002 170.955L155.001 170.928Z" fill="#CA2929"/>
<path d="M189.276 148.137L193.741 139.989C193.741 139.989 193.751 139.865 193.706 139.81L188.783 132.023L188.755 132.004L188.72 132.001L188.69 132.015L188.671 132.041L175.003 170.922L175.001 170.95L175.013 170.975L175.034 170.993L175.063 171H186.17C186.201 171 186.231 170.991 186.257 170.975C186.282 170.958 186.302 170.935 186.313 170.908L193.966 157.974C194.006 157.879 194.011 157.774 193.981 157.677C193.808 157.117 192.824 155.409 191.796 153.624C190.63 151.602 189.408 149.481 189.25 148.826C189.194 148.594 189.276 148.137 189.276 148.137Z" fill="#CA2929"/>
<path d="M201.832 162.023L198.004 170.925L198 170.934L198.005 170.944L198.018 170.95L198.035 170.953H201.904C201.973 170.953 202.06 170.996 202.06 170.996C202.06 170.996 206.354 170.931 209.106 170.958C210.627 170.973 213 171 213 171L205.425 164.894L205.435 164.852C205.435 164.852 205.421 164.825 205.404 164.814L201.955 162.016L201.938 162.007L201.926 162.003L201.889 162L201.856 162.007L201.832 162.023Z" fill="#CA2929"/>
</g>
<defs>
<clipPath id="clip0_1879_2805">
<rect width="256" height="256" fill="white"/>
</clipPath>
</defs>
</svg>
