<svg width="256" height="256" viewBox="0 0 256 256" fill="none" xmlns="http://www.w3.org/2000/svg">
<circle cx="128.5" cy="128.5" r="127.5" fill="#031316"/>
<path d="M108.36 85.7101H108.55C101.087 85.7077 93.7949 83.4801 87.6049 79.3118C81.4149 75.1435 76.6084 69.2241 73.8 62.3101C71.9631 66.7741 71.0121 71.5529 71 76.3801V179.45C70.9987 184.375 71.9678 189.252 73.8518 193.802C75.7359 198.353 78.4981 202.487 81.9806 205.969C85.463 209.452 89.5975 212.214 94.1478 214.098C98.6981 215.982 103.575 216.951 108.5 216.95C113.426 216.953 118.305 215.985 122.857 214.101C127.409 212.218 131.545 209.456 135.029 205.974C138.514 202.491 141.278 198.356 143.164 193.805C145.049 189.254 146.02 184.376 146.02 179.45V123.34C146.019 118.396 145.043 113.501 143.15 108.934C141.257 104.367 138.482 100.218 134.985 96.724C131.488 93.2296 127.336 90.4583 122.768 88.5685C118.2 86.6787 113.304 85.7074 108.36 85.7101Z" fill="#0E560E"/>
<path d="M144.93 39.45C142.421 39.1538 139.897 39.0036 137.37 39H108.5C101.048 38.9997 93.766 41.2223 87.5845 45.3837C81.4031 49.545 76.6036 55.4559 73.8 62.36C76.613 69.2568 81.4151 75.1603 87.5946 79.3186C93.7742 83.4769 101.052 85.7018 108.5 85.71C118.45 85.7549 127.977 89.7377 134.999 96.7873C142.02 103.837 145.965 113.38 145.97 123.33V169.53C161.777 167.383 176.259 159.548 186.705 147.491C197.15 135.435 202.842 119.984 202.714 104.032C202.587 88.0806 196.649 72.7226 186.012 60.8345C175.375 48.9464 160.769 41.3436 144.93 39.45Z" fill="#48C148"/>
<path d="M82.94 112.45C82.5553 112.45 82.1744 112.374 81.8192 112.227C81.4639 112.079 81.1414 111.863 80.87 111.59C79.659 110.383 78.6983 108.948 78.0427 107.368C77.3872 105.789 77.0497 104.096 77.0497 102.385C77.0497 100.675 77.3872 98.9818 78.0427 97.4022C78.6983 95.8227 79.659 94.388 80.87 93.1803C81.4264 92.6688 82.1589 92.392 82.9146 92.4079C83.6702 92.4237 84.3905 92.731 84.9249 93.2654C85.4594 93.7998 85.7666 94.5201 85.7824 95.2758C85.7983 96.0314 85.5215 96.764 85.01 97.3203C84.3445 97.9853 83.8165 98.7749 83.4563 99.6439C83.0961 100.513 82.9108 101.445 82.9108 102.385C82.9108 103.326 83.0961 104.258 83.4563 105.127C83.8165 105.996 84.3445 106.785 85.01 107.45C85.419 107.86 85.6975 108.382 85.8102 108.95C85.923 109.518 85.865 110.106 85.6435 110.641C85.4221 111.176 85.0471 111.633 84.5659 111.955C84.0847 112.277 83.519 112.45 82.94 112.45Z" fill="#48C148"/>
<path d="M82.94 144.82C82.5553 144.82 82.1744 144.744 81.8192 144.597C81.4639 144.449 81.1414 144.233 80.87 143.96C79.659 142.752 78.6983 141.318 78.0427 139.738C77.3872 138.159 77.0497 136.465 77.0497 134.755C77.0497 133.045 77.3872 131.351 78.0427 129.772C78.6983 128.192 79.659 126.758 80.87 125.55C81.4264 125.038 82.1589 124.762 82.9146 124.778C83.6702 124.793 84.3905 125.101 84.9249 125.635C85.4594 126.169 85.7666 126.89 85.7824 127.645C85.7983 128.401 85.5215 129.134 85.01 129.69C84.3445 130.355 83.8165 131.144 83.4563 132.014C83.0961 132.883 82.9108 133.814 82.9108 134.755C82.9108 135.696 83.0961 136.627 83.4563 137.496C83.8165 138.365 84.3445 139.155 85.01 139.82C85.419 140.23 85.6975 140.751 85.8102 141.319C85.923 141.887 85.865 142.476 85.6435 143.011C85.4221 143.546 85.0471 144.003 84.5659 144.325C84.0847 144.647 83.519 144.819 82.94 144.82Z" fill="#48C148"/>
<path d="M82.94 177.21C82.5559 177.212 82.1753 177.138 81.82 176.992C81.4648 176.846 81.1419 176.631 80.87 176.36C79.6576 175.152 78.6955 173.717 78.0391 172.137C77.3826 170.556 77.0447 168.861 77.0447 167.15C77.0447 165.439 77.3826 163.744 78.0391 162.164C78.6955 160.583 79.6576 159.148 80.87 157.94C81.4264 157.429 82.1589 157.152 82.9146 157.168C83.6702 157.183 84.3905 157.491 84.9249 158.025C85.4594 158.56 85.7666 159.28 85.7825 160.036C85.7983 160.791 85.5216 161.524 85.01 162.08C84.3442 162.746 83.816 163.536 83.4557 164.406C83.0954 165.276 82.9099 166.209 82.9099 167.15C82.9099 168.092 83.0954 169.024 83.4557 169.894C83.816 170.764 84.3442 171.554 85.01 172.22C85.424 172.628 85.7068 173.15 85.8224 173.72C85.9379 174.289 85.8809 174.88 85.6586 175.417C85.4363 175.954 85.0589 176.412 84.5746 176.734C84.0903 177.055 83.5211 177.224 82.94 177.22V177.21Z" fill="#48C148"/>
<path d="M97.82 128.62C97.4353 128.62 97.0544 128.544 96.6992 128.397C96.3439 128.249 96.0214 128.033 95.75 127.76C94.539 126.552 93.5783 125.118 92.9227 123.538C92.2672 121.959 91.9297 120.265 91.9297 118.555C91.9297 116.845 92.2672 115.151 92.9227 113.572C93.5783 111.992 94.539 110.558 95.75 109.35C96.3106 108.893 97.0202 108.66 97.7424 108.695C98.4646 108.73 99.1483 109.031 99.662 109.54C100.176 110.049 100.483 110.73 100.525 111.451C100.567 112.173 100.341 112.885 99.89 113.45C98.5508 114.796 97.799 116.617 97.799 118.515C97.799 120.413 98.5508 122.235 99.89 123.58C100.299 123.99 100.577 124.512 100.69 125.079C100.803 125.647 100.745 126.236 100.524 126.771C100.302 127.306 99.9271 127.763 99.4459 128.085C98.9647 128.407 98.399 128.579 97.82 128.58V128.62Z" fill="#48C148"/>
<path d="M97.82 161.01C97.4359 161.012 97.0553 160.938 96.7 160.792C96.3448 160.646 96.0219 160.432 95.75 160.16C94.5376 158.953 93.5755 157.517 92.9191 155.937C92.2627 154.356 91.9247 152.662 91.9247 150.95C91.9247 149.239 92.2627 147.544 92.9191 145.964C93.5755 144.384 94.5376 142.948 95.75 141.74C96.3064 141.229 97.0389 140.952 97.7946 140.968C98.5502 140.984 99.2705 141.291 99.8049 141.825C100.339 142.36 100.647 143.08 100.662 143.836C100.678 144.591 100.402 145.324 99.89 145.88C98.5502 147.228 97.7982 149.05 97.7982 150.95C97.7982 152.85 98.5502 154.673 99.89 156.02C100.304 156.428 100.587 156.95 100.702 157.52C100.818 158.089 100.761 158.68 100.539 159.217C100.316 159.754 99.9389 160.213 99.4546 160.534C98.9703 160.855 98.4011 161.025 97.82 161.02V161.01Z" fill="#48C148"/>
</svg>
