<svg width="256" height="256" viewBox="0 0 256 256" fill="none" xmlns="http://www.w3.org/2000/svg">
<g clip-path="url(#clip0_2360_389)">
<path d="M128 256C198.692 256 256 198.692 256 128C256 57.3076 198.692 0 128 0C57.3076 0 0 57.3076 0 128C0 198.692 57.3076 256 128 256Z" fill="url(#paint0_linear_2360_389)"/>
<path fill-rule="evenodd" clip-rule="evenodd" d="M155.836 120.111H163.259V127.53H155.836V120.111ZM92.7393 127.53H100.163V120.111H92.7393V127.53ZM207.798 120.111V172.049C207.798 174.089 206.128 175.759 204.088 175.759H189.241C187.2 175.759 185.529 174.089 185.529 172.049V149.79H174.395V172.049C174.395 174.089 172.725 175.759 170.683 175.759H159.548V186.888C159.548 188.928 157.878 190.598 155.836 190.598H140.99C138.949 190.598 137.278 188.928 137.278 186.888V172.049C137.278 170.008 138.949 168.338 140.99 168.338H152.09V160.919H104.035V168.338H115.009C117.05 168.338 118.721 170.008 118.721 172.049V186.888C118.721 188.928 117.05 190.598 115.009 190.598H100.163C98.1211 190.598 96.451 188.928 96.451 186.888V175.759H85.3162C83.2748 175.759 81.6045 174.089 81.6045 172.049V149.79H70.4698V172.049C70.4698 174.089 68.7997 175.759 66.7582 175.759H51.9119C49.8704 175.759 48.2002 174.089 48.2002 172.049V120.111C48.2002 118.07 49.8704 116.401 51.9119 116.401H66.7582V101.561C66.7582 99.521 68.4285 97.8515 70.4698 97.8515H85.3162V86.7219C85.3162 84.6815 86.9863 83.0122 89.0278 83.0122H100.163V75.5925H89.0278C86.9863 75.5925 85.3162 73.923 85.3162 71.8826V57.0431C85.3162 55.0027 86.9863 53.3333 89.0278 53.3333H103.874C105.916 53.3333 107.586 55.0027 107.586 57.0431V68.1727H118.721C120.762 68.1727 122.432 69.8421 122.432 71.8826V83.0122H133.567V71.8826C133.567 69.8421 135.237 68.1727 137.278 68.1727H148.413V57.0431C148.413 55.0027 150.083 53.3333 152.125 53.3333H166.971C169.013 53.3333 170.683 55.0027 170.683 57.0431V71.8826C170.683 73.923 169.013 75.5925 166.971 75.5925H155.836V83.0122H166.971C169.013 83.0122 170.683 84.6815 170.683 86.7219V97.8515H185.529C187.57 97.8515 189.241 99.521 189.241 101.561V116.401H204.088C206.128 116.401 207.798 118.07 207.798 120.111ZM107.586 116.401C107.586 114.36 105.916 112.691 103.874 112.691H89.0278C86.9863 112.691 85.3162 114.36 85.3162 116.401V131.24C85.3162 133.281 86.9863 134.95 89.0278 134.95H103.874C105.916 134.95 107.586 133.281 107.586 131.24V116.401ZM170.683 116.401C170.683 114.36 169.013 112.691 166.971 112.691H152.125C150.083 112.691 148.413 114.36 148.413 116.401V131.24C148.413 133.281 150.083 134.95 152.125 134.95H166.971C169.013 134.95 170.683 133.281 170.683 131.24V116.401Z" fill="url(#paint1_linear_2360_389)"/>
</g>
<defs>
<linearGradient id="paint0_linear_2360_389" x1="19.1238" y1="2.68439e-06" x2="128" y2="256" gradientUnits="userSpaceOnUse">
<stop stop-color="#2A3542"/>
<stop offset="1" stop-color="#4D2B43"/>
</linearGradient>
<linearGradient id="paint1_linear_2360_389" x1="-7.74674" y1="-25.5338" x2="225.93" y2="326.603" gradientUnits="userSpaceOnUse">
<stop offset="0.00652367" stop-color="#F005C4"/>
<stop offset="0.314174" stop-color="#6C5DFE"/>
<stop offset="0.546875" stop-color="#30C7FF"/>
<stop offset="1" stop-color="#FFD541"/>
</linearGradient>
<clipPath id="clip0_2360_389">
<rect width="256" height="256" fill="white"/>
</clipPath>
</defs>
</svg>
