<svg width="256" height="256" viewBox="0 0 256 256" fill="none" xmlns="http://www.w3.org/2000/svg">
<path d="M128.858 0.000706881C154.137 0.170258 178.8 7.82126 199.736 21.9889C220.672 36.1565 236.945 56.2063 246.501 79.6098C256.058 103.013 258.47 128.723 253.435 153.496C248.399 178.269 236.141 200.996 218.207 218.811C200.272 236.627 177.463 248.733 152.657 253.602C127.852 258.472 102.159 255.888 78.8203 246.175C55.4813 236.462 35.5409 220.056 21.5137 199.025C7.48647 177.995 0.000568594 153.281 0 128.002C0.114758 93.9402 13.7551 61.3192 37.9206 37.3146C62.086 13.3099 94.7972 -0.112222 128.858 0.000706881Z" fill="black"/>
<path d="M147.938 66.6381C148.631 65.3257 149.739 64.2738 151.093 63.6429C152.955 62.7847 154.839 62.6979 156.572 63.923C157.158 64.3433 157.626 64.905 157.93 65.5542C159.491 68.9349 161.046 72.3216 162.474 75.7707C164.765 81.3432 167.872 86.5222 170.409 91.9816C174.014 99.7464 177.647 107.494 181.312 115.223C183.411 119.648 185.4 124.174 188.035 128.343C188.757 129.442 189.547 130.496 190.401 131.498C190.761 131.908 191.208 132.233 191.711 132.453C195.558 134.211 199.702 134.546 203.832 134.805C205.939 134.938 208.008 134.655 210.102 134.654C214.111 134.66 218.12 134.668 222.109 134.805C224.751 134.9 227.391 135.204 230.021 135.478C231.037 135.62 232.042 135.831 233.028 136.109C233.44 136.225 233.838 136.385 234.214 136.589C236.358 137.684 236.787 139.521 235.31 141.387C234.079 142.961 232.487 144.225 230.664 145.072C226.78 146.814 222.73 148.173 218.573 149.127C214.475 150.131 210.406 151.25 206.367 152.484C200.188 154.431 193.854 155.866 187.431 156.774C183.156 157.324 178.848 157.594 174.534 157.581C170.656 157.595 166.784 157.303 162.895 157.162C156.963 156.945 151.049 156.505 145.125 156.022C136.452 155.383 127.741 156.357 119.441 158.893C113.838 160.528 108.213 162.105 102.629 163.884C99.9986 164.72 97.4548 165.93 94.9454 167.018C91.6285 168.443 88.348 169.985 85 171.365C76.8498 174.762 68.3609 176.913 59.4101 176.944C54.7112 177.055 50.0102 176.761 45.3603 176.065C42.5834 175.585 39.7779 175.368 37.0522 174.419C28.322 171.327 22.5033 165.536 20.4359 156.478C19.8757 154.122 19.8552 151.673 20.376 149.31C20.8968 146.948 21.9458 144.733 23.4459 142.826C24.9161 140.89 26.3339 138.851 27.9177 136.976C31.08 133.154 35.0151 130.026 39.4722 127.793C43.6195 125.685 48.1532 124.419 52.8079 124.07C55.7839 123.789 58.782 123.804 61.7571 124.116C62.7706 124.228 63.7674 124.491 64.7747 124.657C65.2431 124.709 65.6973 124.759 66.2844 124.823C66.4099 124.46 66.5049 124.086 66.5686 123.707C66.7975 120.51 66.9979 117.309 67.2127 114.11C67.3045 113.266 67.3468 112.425 67.3823 111.583C67.4534 109.892 67.4681 108.201 67.5738 106.521C67.8122 102.779 67.7713 99.006 68.5981 95.3149C68.7146 94.7345 68.779 94.1449 68.7905 93.5533C68.9128 90.616 69.9605 87.9489 71.2137 85.3458C71.3369 85.0772 71.4839 84.8192 71.6506 84.5753C74.0495 81.3451 76.9686 78.5265 80.2919 76.2327C86.7305 71.7665 93.8929 68.4157 101.474 66.3244C106.776 64.8477 112.2 63.8336 117.683 63.2946C122.748 62.85 127.85 63.0206 132.877 63.8026C134.61 64.0696 136.359 64.3106 138.078 64.4297C141.067 64.6253 144.011 65.2623 146.812 66.3186C147.16 66.4409 147.492 66.5123 147.938 66.6381ZM70.2438 125.81C70.7928 126.031 71.3296 126.293 71.8981 126.46C76.0931 127.732 80.2929 128.997 84.4988 130.256L85.1159 130.366C84.6742 130.026 84.1665 129.777 83.6252 129.636C80.4827 128.683 77.3556 127.723 74.2019 126.804C72.8994 126.424 71.5649 126.144 70.2499 125.818C69.9928 124.154 70.1388 123.855 71.6625 123.176C72.3254 122.871 72.996 122.624 73.6526 122.312C83.8089 117.878 94.4608 114.638 105.388 112.66C113.693 111.103 122.089 110.054 130.528 109.52C137.771 109.007 145.041 108.961 152.293 109.38C157.888 109.636 163.449 110.404 168.905 111.673C171.405 112.237 173.848 113.032 176.2 114.047C177.036 114.402 177.719 115.039 178.125 115.845C179.245 118.03 180.431 120.188 181.595 122.357L186.825 132.111C187.014 132.461 187.372 132.808 186.944 133.425C186.027 133.142 185.051 132.882 184.104 132.546C179.217 130.862 174.163 129.697 169.029 129.074C163.955 128.391 158.832 127.954 153.719 127.623C149.679 127.367 145.613 127.431 141.557 127.398C139.124 127.319 136.69 127.367 134.263 127.542C129.759 127.984 125.279 128.653 120.792 129.194L98.8274 132.018C98.5838 132.047 98.3447 132.098 98.1071 132.135L98.078 132.398C101.357 132.806 104.595 133.494 107.756 134.453C105.768 134.333 103.793 134.088 101.811 133.906C99.8296 133.722 97.8171 133.627 95.8088 133.428C93.8007 133.228 91.9889 132.589 89.9947 132.845C90.4034 133.146 90.8535 133.388 91.3308 133.565C95.1397 135.075 99.0319 136.368 102.989 137.44C108.414 138.797 113.798 140.332 119.191 141.798C121.129 142.32 123.047 142.957 125.019 143.291C128.213 143.838 131.438 144.235 134.66 144.588C136.952 144.84 139.257 144.981 141.557 145.157C143.437 145.3 145.301 145.4 147.175 145.536C151.782 145.889 156.392 145.849 161.003 145.783C168.223 145.694 175.423 145.052 182.538 143.862C184.969 143.429 187.36 142.776 189.75 142.13C191.936 141.545 194.056 140.778 196.236 140.185C199.965 139.197 203.782 139.616 207.588 139.866C208.564 139.925 209.534 140.114 210.509 140.257C211.776 140.445 213.028 140.694 214.302 140.82C216.93 141.108 219.571 141.343 222.214 141.493C224.681 141.631 227.143 141.693 229.636 141.665C230.699 141.596 231.75 141.411 232.773 141.115C233.224 140.99 233.641 140.768 233.996 140.466C235.036 139.622 234.974 138.636 233.771 138.064C232.81 137.602 231.786 137.288 230.732 137.129C226.971 136.563 223.173 136.285 219.371 136.301C217.664 136.324 215.954 136.367 214.25 136.368C213.14 136.365 212.028 136.305 210.915 136.274C213.082 136.834 215.266 137.234 217.441 137.655C219.449 138.043 221.456 138.453 223.462 138.868C223.878 138.986 224.285 139.131 224.68 139.303L224.611 139.554C224.327 139.565 224.04 139.597 223.759 139.58C222.951 139.539 222.134 139.492 221.33 139.418C218.69 139.177 216.05 138.991 213.428 138.647C210.806 138.304 208.034 137.783 205.335 137.368C202.845 136.982 200.337 136.7 197.86 136.26C194.809 135.684 191.824 134.806 188.951 133.638C188.305 133.409 187.77 132.949 187.451 132.349C184.923 127.638 182.321 122.968 179.839 118.228C177.046 112.902 174.329 107.528 171.612 102.153C169.564 98.1043 167.502 94.0607 165.572 89.9617C162.828 84.0669 160.152 78.1795 157.497 72.2393C156.623 70.2697 155.549 68.376 155.324 66.2258C153.602 65.5401 151.021 66.1868 149.968 67.5462C151.29 68.3907 153.133 68.1525 154.496 69.6026C154.104 69.8004 153.684 69.9384 153.249 70.0114C152.525 69.9957 151.805 69.9 151.101 69.7262C149.449 69.3139 147.844 68.6692 146.166 68.3523C143.321 67.7879 140.447 67.3606 137.583 66.8923C134.628 66.4332 131.636 66.2476 128.648 66.3372C125.366 66.3964 122.065 66.3135 118.79 66.4502C108.029 66.9883 98.0178 70.1958 88.4502 74.9055C85.3349 76.49 82.3611 78.3313 79.5608 80.4104C77.8658 81.5688 76.5031 83.1415 75.604 84.9751C73.0694 90.3804 72.1007 96.1465 71.7422 102.029C71.5568 105.148 71.3705 108.281 71.1532 111.375C70.9362 114.469 70.6878 117.525 70.4378 120.595C70.3008 121.853 70.1628 123.117 70.0744 124.379C69.8836 124.897 69.7991 125.412 70.2438 125.81ZM232.554 142.146C231.349 142.56 230.171 143.052 228.943 143.351C227.386 143.787 225.791 144.08 224.179 144.226C221.054 144.407 217.969 143.838 214.879 143.442C211.788 143.047 208.87 142.629 205.868 142.201C204.382 142.023 202.877 142.077 201.409 142.362C197.936 142.945 194.71 144.325 191.351 145.291C189.349 145.868 187.37 146.566 185.339 147.036C182.603 147.672 179.809 148.065 177.066 148.7C173.632 149.382 170.133 149.701 166.629 149.651C161.408 149.721 156.224 149.264 151.022 148.972C148.126 148.808 145.226 148.804 142.322 148.715C139.076 148.583 135.829 148.52 132.605 148.18C129.768 147.868 126.96 147.287 124.147 146.755C120.956 146.157 117.818 145.314 114.76 144.235C109.523 142.38 104.291 140.54 99.0108 138.827C92.271 136.637 85.5055 134.529 78.7157 132.502C73.4836 130.927 68.23 129.42 62.9335 128.048C60.9479 127.537 58.9027 127.291 56.8527 127.318C52.007 127.427 47.2431 128.553 42.8772 130.621C40.2895 131.825 37.7792 133.183 35.3602 134.69C33.4754 135.848 31.7055 137.18 30.0742 138.668C26.3529 142.136 23.785 146.641 22.7091 151.59C21.8408 155.077 22.3737 158.767 24.1961 161.884C25.7311 164.432 27.6932 166.704 29.9984 168.604C30.1504 168.723 30.3111 168.832 30.4792 168.928C30.0614 168.142 29.5589 167.402 28.9801 166.722C27.2284 164.633 25.8461 162.266 24.8916 159.722C23.6398 156.027 23.6798 152.416 25.6706 148.951C27.0518 146.665 28.9398 144.722 31.1924 143.264C35.2651 140.489 39.8634 138.924 44.6224 137.832C50.9807 136.341 57.4859 135.534 64.0244 135.425C66.7933 135.394 69.5658 135.461 72.3408 135.5C73.9657 135.524 75.5956 135.494 77.2042 135.656C79.9696 135.849 82.719 136.219 85.4373 136.764C88.4156 137.468 91.2981 138.603 94.2034 139.586C100.193 141.607 106.185 143.607 112.145 145.702C117.009 147.44 122.014 148.757 127.107 149.638C133.441 150.605 139.835 151.136 146.242 151.23C150.295 151.353 154.35 151.533 158.399 151.628C161.298 151.702 164.216 151.862 167.102 151.661C174.008 151.189 180.865 150.375 187.526 148.38C190.1 147.607 192.694 146.913 195.261 146.139C196.563 145.744 197.821 145.169 199.133 144.817C203.419 143.645 207.767 144.122 212.101 144.585C213.542 144.743 214.962 145.073 216.403 145.218C217.845 145.362 219.303 145.347 220.744 145.492C222.488 145.655 224.242 145.632 225.979 145.424C228.576 145.156 230.609 143.835 232.536 142.243L232.554 142.146Z" fill="#0BCE0D"/>
<path d="M147.938 66.6381C148.631 65.3257 149.739 64.2738 151.093 63.6429C152.955 62.7847 154.839 62.6979 156.572 63.923C157.158 64.3433 157.626 64.905 157.93 65.5542C159.491 68.9349 161.046 72.3216 162.474 75.7707C164.765 81.3432 167.871 86.5222 170.409 91.9816C174.014 99.7464 177.647 107.494 181.312 115.223C183.411 119.648 185.4 124.174 188.035 128.343C188.757 129.442 189.547 130.496 190.401 131.498C190.761 131.908 191.208 132.233 191.711 132.453C195.558 134.211 199.702 134.546 203.832 134.805C205.939 134.938 208.008 134.655 210.102 134.654C214.111 134.66 218.12 134.668 222.109 134.805C224.751 134.9 227.391 135.204 230.021 135.478C231.037 135.62 232.042 135.831 233.028 136.109C233.44 136.225 233.838 136.385 234.214 136.589C236.358 137.684 236.787 139.521 235.31 141.387C234.079 142.961 232.487 144.225 230.664 145.072C226.78 146.814 222.73 148.173 218.573 149.127C214.475 150.131 210.406 151.25 206.367 152.484C200.188 154.431 193.854 155.866 187.431 156.774C183.156 157.324 178.848 157.594 174.534 157.581C170.656 157.595 166.784 157.303 162.895 157.162C156.963 156.945 151.049 156.505 145.125 156.022C136.452 155.383 127.741 156.357 119.441 158.893C113.838 160.528 108.213 162.105 102.629 163.884C99.9986 164.72 97.4548 165.93 94.9454 167.018C91.6285 168.443 88.348 169.985 85 171.365C76.8498 174.762 68.3609 176.913 59.4101 176.944C54.7112 177.055 50.0102 176.761 45.3603 176.065C42.5834 175.585 39.7779 175.368 37.0522 174.419C28.322 171.327 22.5033 165.536 20.4359 156.478C19.8757 154.122 19.8552 151.673 20.376 149.31C20.8968 146.948 21.9458 144.733 23.4459 142.826C24.9161 140.89 26.3339 138.851 27.9177 136.976C31.08 133.154 35.0151 130.026 39.4722 127.793C43.6195 125.685 48.1532 124.419 52.8079 124.07C55.7839 123.789 58.782 123.804 61.7571 124.116C62.7706 124.228 63.7674 124.491 64.7747 124.657C65.2431 124.709 65.6973 124.759 66.2844 124.823C66.4099 124.46 66.5049 124.086 66.5686 123.707C66.7975 120.51 66.9979 117.309 67.2127 114.11C67.3045 113.266 67.3468 112.425 67.3823 111.583C67.4534 109.892 67.4681 108.201 67.5738 106.521C67.8122 102.779 67.7713 99.006 68.5981 95.3149C68.7146 94.7345 68.779 94.1449 68.7905 93.5533C68.9128 90.616 69.9605 87.9489 71.2137 85.3458C71.3369 85.0772 71.4839 84.8192 71.6506 84.5753C74.0495 81.3451 76.9686 78.5265 80.2919 76.2327C86.7305 71.7665 93.8929 68.4157 101.474 66.3244C106.776 64.8477 112.2 63.8336 117.683 63.2946C122.748 62.85 127.85 63.0206 132.877 63.8026C134.61 64.0696 136.359 64.3106 138.078 64.4297C141.067 64.6253 144.011 65.2623 146.812 66.3186C147.16 66.4409 147.492 66.5123 147.938 66.6381ZM70.2438 125.81C70.7928 126.031 71.3296 126.293 71.8981 126.46C76.0931 127.732 80.2929 128.997 84.4988 130.256L85.1159 130.366C84.6742 130.026 84.1665 129.777 83.6252 129.636C80.4827 128.683 77.3556 127.723 74.2019 126.804C72.8994 126.424 71.5648 126.144 70.2499 125.818C69.9928 124.154 70.1388 123.855 71.6625 123.176C72.3254 122.871 72.996 122.624 73.6526 122.312C83.8089 117.878 94.4608 114.638 105.388 112.66C113.693 111.103 122.089 110.054 130.528 109.52C137.771 109.007 145.041 108.961 152.293 109.38C157.888 109.636 163.449 110.404 168.905 111.673C171.405 112.237 173.848 113.032 176.2 114.047C177.036 114.402 177.719 115.039 178.125 115.845C179.245 118.03 180.431 120.188 181.595 122.357L186.825 132.111C187.014 132.461 187.372 132.808 186.944 133.425C186.027 133.142 185.051 132.882 184.104 132.546C179.217 130.862 174.163 129.697 169.029 129.074C163.955 128.391 158.832 127.954 153.719 127.623C149.679 127.367 145.613 127.431 141.557 127.398C139.124 127.319 136.69 127.367 134.263 127.542C129.759 127.984 125.279 128.653 120.792 129.194L98.8274 132.018C98.5838 132.047 98.3447 132.098 98.1071 132.135L98.078 132.398C101.357 132.806 104.595 133.494 107.756 134.453C105.768 134.333 103.793 134.088 101.811 133.906C99.8296 133.722 97.8171 133.627 95.8088 133.428C93.8007 133.228 91.9889 132.589 89.9947 132.845C90.4034 133.146 90.8535 133.388 91.3308 133.565C95.1397 135.075 99.0319 136.368 102.989 137.44C108.414 138.797 113.798 140.332 119.191 141.798C121.129 142.32 123.047 142.957 125.019 143.291C128.213 143.838 131.438 144.235 134.66 144.588C136.952 144.84 139.257 144.981 141.557 145.157C143.437 145.3 145.301 145.4 147.175 145.536C151.782 145.889 156.392 145.849 161.003 145.783C168.223 145.694 175.423 145.052 182.538 143.862C184.969 143.429 187.36 142.776 189.75 142.13C191.936 141.545 194.056 140.778 196.236 140.185C199.965 139.197 203.782 139.616 207.588 139.866C208.564 139.925 209.534 140.114 210.509 140.257C211.776 140.445 213.028 140.694 214.302 140.82C216.93 141.108 219.571 141.343 222.214 141.493C224.681 141.631 227.143 141.693 229.636 141.665C230.699 141.596 231.75 141.411 232.773 141.115C233.224 140.99 233.641 140.768 233.996 140.466C235.036 139.622 234.974 138.636 233.771 138.064C232.81 137.602 231.786 137.288 230.732 137.129C226.971 136.563 223.173 136.285 219.371 136.301C217.664 136.324 215.954 136.367 214.25 136.368C213.14 136.365 212.028 136.305 210.915 136.274C213.082 136.834 215.266 137.234 217.441 137.655C219.449 138.043 221.456 138.453 223.462 138.868C223.878 138.986 224.285 139.131 224.68 139.303L224.611 139.554C224.327 139.565 224.04 139.597 223.759 139.58C222.951 139.539 222.134 139.492 221.33 139.418C218.69 139.177 216.05 138.991 213.428 138.647C210.806 138.304 208.034 137.783 205.335 137.368C202.845 136.982 200.337 136.7 197.86 136.26C194.809 135.684 191.824 134.806 188.951 133.638C188.305 133.409 187.77 132.949 187.45 132.349C184.923 127.638 182.321 122.968 179.839 118.228C177.046 112.902 174.329 107.528 171.612 102.153C169.564 98.1043 167.502 94.0607 165.572 89.9617C162.828 84.0669 160.152 78.1795 157.497 72.2393C156.623 70.2697 155.549 68.376 155.324 66.2258C153.602 65.5401 151.021 66.1868 149.968 67.5462C151.29 68.3907 153.133 68.1525 154.496 69.6026C154.104 69.8004 153.684 69.9384 153.249 70.0114C152.525 69.9957 151.805 69.9 151.101 69.7262C149.449 69.3139 147.844 68.6692 146.166 68.3523C143.321 67.7879 140.447 67.3606 137.583 66.8923C134.628 66.4332 131.636 66.2476 128.648 66.3372C125.366 66.3964 122.065 66.3135 118.79 66.4502C108.029 66.9883 98.0178 70.1958 88.4502 74.9055C85.3349 76.49 82.3611 78.3313 79.5608 80.4104C77.8658 81.5688 76.5031 83.1415 75.604 84.9751C73.0693 90.3804 72.1007 96.1465 71.7422 102.029C71.5568 105.148 71.3705 108.281 71.1532 111.375C70.9362 114.469 70.6878 117.525 70.4378 120.595C70.3008 121.853 70.1628 123.117 70.0744 124.379C69.8836 124.897 69.7991 125.412 70.2438 125.81ZM232.554 142.146C231.349 142.56 230.171 143.052 228.943 143.351C227.386 143.787 225.791 144.08 224.179 144.226C221.054 144.407 217.969 143.838 214.879 143.442C211.788 143.047 208.87 142.629 205.868 142.201C204.382 142.023 202.877 142.077 201.409 142.362C197.936 142.945 194.71 144.325 191.351 145.291C189.349 145.868 187.37 146.566 185.339 147.036C182.603 147.672 179.809 148.065 177.066 148.7C173.632 149.382 170.133 149.701 166.629 149.651C161.408 149.721 156.224 149.264 151.022 148.972C148.126 148.808 145.226 148.804 142.322 148.715C139.076 148.583 135.829 148.52 132.605 148.18C129.768 147.868 126.96 147.287 124.147 146.755C120.956 146.157 117.818 145.314 114.76 144.235C109.523 142.38 104.291 140.54 99.0108 138.827C92.271 136.637 85.5055 134.529 78.7157 132.502C73.4836 130.927 68.23 129.42 62.9335 128.048C60.9479 127.537 58.9027 127.291 56.8527 127.318C52.007 127.427 47.2431 128.553 42.8772 130.621C40.2895 131.825 37.7792 133.183 35.3602 134.69C33.4754 135.848 31.7055 137.18 30.0742 138.668C26.3529 142.136 23.785 146.641 22.7091 151.59C21.8408 155.077 22.3737 158.767 24.1961 161.884C25.7311 164.432 27.6932 166.704 29.9984 168.604C30.1504 168.723 30.3111 168.832 30.4792 168.928C30.0614 168.142 29.5589 167.402 28.9801 166.722C27.2284 164.633 25.8461 162.266 24.8916 159.722C23.6398 156.027 23.6798 152.416 25.6706 148.951C27.0518 146.665 28.9398 144.722 31.1924 143.264C35.2651 140.489 39.8634 138.924 44.6224 137.832C50.9807 136.341 57.4859 135.534 64.0244 135.425C66.7933 135.394 69.5658 135.461 72.3408 135.5C73.9656 135.524 75.5956 135.494 77.2042 135.656C79.9696 135.849 82.719 136.219 85.4373 136.764C88.4156 137.468 91.2981 138.603 94.2034 139.586C100.193 141.607 106.185 143.607 112.145 145.702C117.009 147.44 122.014 148.757 127.107 149.638C133.441 150.605 139.835 151.136 146.242 151.23C150.295 151.353 154.35 151.533 158.399 151.628C161.298 151.702 164.216 151.862 167.102 151.661C174.008 151.189 180.865 150.375 187.526 148.38C190.1 147.607 192.694 146.913 195.261 146.139C196.563 145.744 197.821 145.169 199.133 144.817C203.419 143.645 207.767 144.122 212.101 144.585C213.542 144.743 214.962 145.073 216.403 145.218C217.845 145.362 219.303 145.347 220.744 145.492C222.488 145.655 224.242 145.632 225.979 145.424C228.576 145.156 230.609 143.835 232.536 142.243L232.554 142.146Z" fill="url(#paint0_linear_1727_24)" fill-opacity="0.75"/>
<path d="M99.6107 80.5225C99.3104 80.2933 98.8081 80.099 98.7134 79.7949C98.6193 79.4911 98.8959 79.0321 99.1276 78.7216C99.3651 78.4789 99.6481 78.2843 99.9612 78.1492C102.933 76.3995 106.142 75.0759 109.493 74.218C111.511 73.7407 113.571 73.2679 115.609 72.8761C116.028 72.8041 116.456 72.7996 116.876 72.8617C116.974 72.8873 117.065 72.9366 117.14 73.0041C117.215 73.0726 117.273 73.1565 117.307 73.2513C117.306 73.3691 117.278 73.4849 117.225 73.5909C117.171 73.6969 117.095 73.789 117 73.8611C116.529 74.0682 116.038 74.2298 115.534 74.3432C113.434 74.9091 111.334 75.4712 109.232 76.0279C107.819 76.3995 106.533 77.137 105.504 78.163C104.559 79.0804 103.369 79.7129 102.073 79.9886C101.308 80.1912 100.521 80.3352 99.6107 80.5225Z" fill="#0BCE0D"/>
<path d="M164.618 93.6908C163.727 93.6725 162.872 93.3294 162.219 92.7276C161.323 92.0787 160.482 91.3594 159.702 90.5781C157.001 87.8162 154.648 84.74 152.695 81.4185C152.462 81.0655 152.283 80.68 152.162 80.2767C152.131 80.1407 152.131 79.9992 152.163 79.8631C152.195 79.7271 152.258 79.6013 152.346 79.4928C152.463 79.4124 152.597 79.3612 152.739 79.3439C152.88 79.3266 153.023 79.3439 153.157 79.3932C153.498 79.5565 153.797 79.7975 154.028 80.0968C154.858 81.1666 155.619 82.3059 156.502 83.3472C158.428 85.6555 160.415 87.9292 162.357 90.233C163.032 91.0419 163.669 91.887 164.296 92.7458C164.437 93.049 164.546 93.3659 164.618 93.6908Z" fill="#0BCE0D"/>
<path d="M59.2814 128.466C59.6873 128.476 60.0919 128.52 60.4904 128.599C65.5228 130.014 70.5546 131.439 75.5847 132.871C75.8194 132.937 76.0319 133.062 76.2035 133.233C70.2697 132.707 64.7446 130.709 59.1463 128.989L59.2814 128.466Z" fill="#0BCE0D"/>
<defs>
<linearGradient id="paint0_linear_1727_24" x1="128.09" y1="62.9998" x2="128.09" y2="176.967" gradientUnits="userSpaceOnUse">
<stop stop-color="#4FEA0D"/>
<stop offset="1" stop-color="#17690D"/>
</linearGradient>
</defs>
</svg>
