<svg width="266" height="284" viewBox="0 0 266 284" fill="none" xmlns="http://www.w3.org/2000/svg">
<path fill-rule="evenodd" clip-rule="evenodd" d="M199.794 213.225C203.439 212.249 204.818 211.272 206.57 208.4C207.194 207.364 207.766 206.296 208.282 205.201C209.571 202.495 210.869 199.077 211.801 195.357C212.399 192.969 212.848 190.457 213.211 187.875C213.672 184.613 213.997 181.24 214.323 177.867C214.962 177.685 214.579 177.28 213.471 176.298C211.719 174.748 208.158 171.761 206.636 168.804C205.114 165.846 205.631 162.916 208.761 156.254C211.891 149.593 217.634 139.199 220.592 132.162C223.549 125.128 223.722 121.452 222.716 117.719C221.712 113.986 219.529 110.198 213.786 104.597C208.042 98.998 198.739 91.5874 187.254 83.835L186.787 83.5227L186.487 84.3101C183.113 93.197 182.596 94.2025 180.816 94.6902C180.083 94.8898 179.137 95.0054 178.074 95.0032C178.94 94.2084 179.729 92.5495 181.408 88.6784C183.925 82.8707 188.445 72.0863 191.186 62.0878C193.584 53.3395 194.621 45.1915 194.604 38.0895C234.465 59.8411 261.509 102.137 261.509 150.745C261.509 209.132 222.492 258.407 169.111 273.92C168.941 266.295 168.771 258.671 167.781 251.399C167.124 246.572 166.106 241.899 164.944 237.466C164.367 235.274 163.751 233.091 163.095 230.921C161.385 225.22 159.61 220.045 157.832 214.918C165.186 215.927 174.734 216.036 182.45 215.608C190.231 215.178 196.146 214.201 199.794 213.225ZM169.733 28.4336C163.587 26.2657 151.834 22.9751 137.012 22.6068C122.192 22.2414 104.303 24.7968 87.4261 31.3448C70.5489 37.8936 54.6839 48.4349 45.8589 55.0345C37.0317 61.6363 35.2468 64.2985 34.6104 65.8572C33.9717 67.4138 34.4807 67.8675 38.6206 71.4344C42.762 75.0019 50.5329 81.6825 56.3023 84.5805C62.0716 87.4769 65.841 86.5886 68.3324 85.3326C70.8237 84.0759 72.0399 82.4486 75.726 77.4594C79.4107 72.4716 85.569 64.1217 89.0408 56.9129C92.5119 49.7064 93.2957 43.6394 94.903 40.9492C96.5111 38.2575 98.9435 38.9455 109.973 43.8817C120.999 48.8202 140.625 58.012 151.16 63.1589C161.695 68.3066 163.141 69.4115 165.169 66.8414C167.197 64.2705 169.808 58.0245 171.87 51.7211C173.933 45.4176 175.445 39.056 175.933 35.3529C176.419 31.6498 175.879 30.6038 169.733 28.4336ZM31.2903 103.704C30.7172 106.812 29.8163 112.761 32.6553 119.121C35.4943 125.48 42.0726 132.246 45.6143 135.825C49.1598 139.405 49.6688 139.799 48.9344 142.378C48.2014 144.957 46.2228 149.723 47.3476 153.756C48.4695 157.792 52.6927 161.093 54.6367 162.984C56.5792 164.873 56.247 165.352 55.1995 166.736C54.1535 168.119 52.3944 170.407 54.6367 173.003C56.8798 175.598 63.1191 178.499 69.1228 180.895C75.1257 183.29 80.8884 185.18 84.4788 186.88C88.0692 188.581 89.488 190.092 92.271 195.522C95.0526 200.954 99.1991 210.305 100.762 219.085C102.327 227.865 101.307 236.075 100.383 240.382C99.4562 244.69 98.6238 245.095 94.4051 243.924C90.1885 242.752 82.5834 240.005 77.7754 239.083C72.9666 238.161 70.9541 239.063 69.6679 239.527C68.3854 239.991 67.83 240.016 65.5619 239.034C63.2937 238.052 59.3159 236.064 56.5152 235.017C53.7152 233.97 52.0924 233.862 50.6699 234.382C49.2452 234.9 48.018 236.045 47.716 237.78C47.4132 239.515 48.0371 241.841 45.9274 240.999C43.8169 240.156 38.9757 236.148 33.6093 230.305C28.2406 224.463 22.3482 216.789 17.5225 204.321C12.6923 191.855 8.93176 174.596 7.12109 160.326C5.31116 146.06 5.45407 134.782 7.95203 123.597C10.4478 112.412 15.2993 101.319 17.9549 95.3546C20.6105 89.3893 21.0724 88.5524 22.5464 89.7981C24.0219 91.0438 26.5073 94.3771 28.3091 96.436C30.1124 98.4934 31.2307 99.2794 31.6675 99.8054C32.1058 100.331 31.8612 100.595 31.2903 103.704Z" fill="#FF3369"/>
<path fill-rule="evenodd" clip-rule="evenodd" d="M68.1192 106.263C72.0521 107.671 78.5434 107.898 88.3349 109.364C98.1249 110.827 111.219 113.527 124.142 118.495C137.062 123.464 149.813 130.7 158.37 137.189C166.927 143.678 171.292 149.421 174.71 154.992C178.126 160.563 180.596 165.96 183.668 169.781C186.741 173.599 190.417 175.838 192.742 176.959C195.067 178.078 196.044 178.078 199.547 178.078C203.051 178.078 209.081 178.078 212.124 178.022C213.242 178 213.957 177.971 214.327 177.867C214.001 181.241 213.675 184.614 213.215 187.876C212.851 190.458 212.402 192.971 211.804 195.358C210.872 199.078 209.575 202.496 208.285 205.202C207.769 206.297 207.198 207.365 206.573 208.401C204.822 211.273 203.443 212.25 199.797 213.225C196.15 214.202 190.235 215.179 182.453 215.609C176.442 215.942 169.317 215.95 162.986 215.459C161.2 215.324 159.418 215.135 157.643 214.89C150.264 213.858 145.152 211.905 137.944 208.43C130.737 204.956 121.433 199.96 111.556 195.853C104.194 192.793 96.5146 190.227 89.0126 187.823C86.4506 187.001 83.9077 186.198 81.4053 185.401C71.5836 182.271 62.3948 179.227 57.7731 176.299C53.5904 173.649 53.1433 171.094 54.7131 167.889C54.8796 167.55 55.0667 167.203 55.2751 166.85C57.4563 163.147 61.8791 158.553 65.18 153.239C65.9438 152.012 66.6474 150.749 67.2883 149.453C69.4154 145.155 70.8643 140.553 71.5836 135.811C72.3527 130.732 72.2378 125.61 71.3413 120.925C71.1659 120.007 70.9571 119.096 70.7151 118.193C69.2713 112.809 66.7306 108.183 64.1878 103.558C64.9966 104.689 66.2791 105.604 68.1192 106.263ZM104.899 148.953C106.247 153.086 109.18 157.499 113.468 160.876C115.46 162.442 117.742 163.785 120.12 164.884C122.771 166.111 125.546 167.05 128.397 167.686C133.389 168.788 137.725 168.654 141.465 168.002C145.207 167.351 148.348 166.181 150.16 165.291C151.969 164.405 152.446 163.798 152.082 161.935C152.006 161.553 151.911 161.176 151.797 160.804C151.221 158.911 149.959 156.2 147.442 152.786C144.371 148.621 139.432 143.411 133.955 139.968C133.842 139.897 133.728 139.825 133.613 139.755C129.568 137.276 125.249 135.745 121.286 134.906C120.031 134.64 118.764 134.435 117.489 134.29C112.519 133.737 108.59 134.308 106.52 134.963C104.447 135.623 104.235 136.371 104.011 138.671C103.787 140.968 103.551 144.821 104.899 148.953Z" fill="#FFD27F"/>
<path fill-rule="evenodd" clip-rule="evenodd" d="M109.612 195.173C118.769 198.979 127.394 203.611 134.076 206.832C140.758 210.053 145.496 211.863 152.338 212.82C153.983 213.047 155.634 213.222 157.29 213.347C159.252 218.992 161.213 224.638 163.099 230.921C164.985 237.205 166.795 244.126 167.785 251.399C168.775 258.672 168.944 266.295 169.114 273.92C157.735 277.226 145.703 279 133.259 279C117.304 279 102.03 276.086 87.9388 270.763C90.5495 267.758 93.1609 264.754 95.3436 260.696C97.5262 256.639 99.2831 251.527 100.163 245.272C100.208 244.947 100.252 244.618 100.292 244.286C101.04 238.246 101.011 231.24 100.454 224.401C99.8688 217.187 98.6975 210.16 96.6445 204.079C94.5892 197.997 91.6508 192.863 88.7138 187.728C95.6669 189.956 102.789 192.335 109.612 195.173ZM153.529 63.5583C143.75 58.1359 124.975 47.7713 113.83 42.6966C102.686 37.6219 99.1748 37.8347 97.2264 38.595C95.2773 39.353 94.8942 40.6583 93.8504 44.3003C92.8051 47.9415 91.1012 53.9215 86.7403 61.1495C82.3764 68.3774 75.357 76.8554 71.0388 82.7412C66.7199 88.6277 65.1015 91.922 64.2322 94.4693C63.3615 97.0158 63.24 98.8132 64.051 100.997C64.8606 103.184 66.6049 105.754 74.0774 107.651C81.5499 109.549 94.7557 110.773 109.024 114.607C123.292 118.442 138.624 124.882 150.976 133.747C163.327 142.611 172.698 153.9 178.315 161.645C183.931 169.39 185.795 173.598 189.948 176.02C194.1 178.442 200.543 179.081 204.936 179.102C209.332 179.123 211.677 178.525 212.894 178.08C214.111 177.635 214.196 177.344 212.225 175.673C210.253 174.002 206.223 170.951 206.817 163.464C207.41 155.974 212.628 144.05 216.137 136.514C219.645 128.977 221.443 125.834 222.694 122.292C223.945 118.753 224.649 114.815 219.623 108.695C214.598 102.575 203.842 94.2689 197.215 89.3179C190.586 84.3662 188.085 82.7692 186.354 83.0889C184.624 83.4078 183.665 85.6443 182.334 88.6255C181.003 91.6067 179.299 95.3341 175.857 96.0236C172.415 96.7138 167.236 94.3647 163.376 91.8903C159.516 89.4137 156.976 86.8111 156.53 84.8539C156.084 82.8966 157.732 81.5832 159.472 79.206C161.213 76.8296 163.047 73.3858 163.571 71.4227C164.095 69.461 163.308 68.98 153.529 63.5583Z" fill="#FFE3BA"/>
<path fill-rule="evenodd" clip-rule="evenodd" d="M120.902 278.412C109.624 277.338 98.538 274.766 87.9385 270.763C90.5491 267.759 93.1605 264.755 95.3432 260.696C97.5259 256.639 99.2828 251.527 100.162 245.272C100.207 244.947 100.251 244.618 100.292 244.286C101.04 238.246 101.01 231.24 100.454 224.401C99.8684 217.187 98.6971 210.16 96.6441 204.079C94.5889 197.997 91.6504 192.863 88.7134 187.728C93.2114 189.168 97.7771 190.675 102.29 192.324C106.822 202.294 111.362 213.308 114.605 222.367C120.515 238.872 122.112 248.88 122.112 261.339C122.112 266.831 121.801 272.798 120.902 278.412Z" fill="#F0C87F"/>
<path fill-rule="evenodd" clip-rule="evenodd" d="M66.8746 155.335C64.0444 159.888 60.2537 163.823 58.3841 166.999C58.2051 167.303 58.043 167.597 57.9023 167.889C55.0125 164.918 52.1226 161.947 50.0637 158.689C48.0019 155.433 46.7709 151.889 46.9286 148.759C47.0884 145.628 48.6324 142.911 50.1786 140.191C51.2585 141.01 52.3519 141.812 53.4582 142.595C59.159 146.642 63.9185 149.366 68.6779 152.089C68.1288 153.199 67.527 154.282 66.8746 155.335Z" fill="#70CC81"/>
<path fill-rule="evenodd" clip-rule="evenodd" d="M68.6776 152.089C63.9181 149.366 59.1587 146.642 53.4578 142.595C52.3515 141.812 51.2582 141.01 50.1783 140.191C45.3481 136.526 40.2925 132.086 36.7316 127.307C32.3515 121.425 30.2344 115.026 29.5869 110.358C28.9394 105.689 29.7593 102.748 30.5814 99.8096C33.5265 102.848 36.8384 105.738 40.3736 108.505C46.8221 113.549 54.0073 118.177 59.4268 121.295C64.8448 124.415 68.4993 126.027 72.1531 127.641C72.9221 131.655 73.0179 136.042 72.3623 140.397C71.7437 144.461 70.5008 148.405 68.6776 152.089Z" fill="#91F7A4"/>
<path fill-rule="evenodd" clip-rule="evenodd" d="M68.678 152.089C63.9185 149.366 59.1591 146.642 53.4582 142.595C52.3519 141.812 51.2586 141.01 50.1787 140.191C45.3485 136.526 40.2929 132.086 36.732 127.307C33.1733 122.528 31.11 117.411 30.1133 113.155C31.6256 115.481 34.609 119.353 38.6848 122.992C43.2638 127.077 49.2181 130.868 55.1274 132.454C61.0353 134.041 66.896 133.423 72.5306 131.555L72.6757 131.507C72.9114 134.472 72.8063 137.455 72.3626 140.397C71.7441 144.461 70.5012 148.405 68.678 152.089Z" fill="#83DE93"/>
<path fill-rule="evenodd" clip-rule="evenodd" d="M59.4267 121.295C54.0072 118.177 46.822 113.55 40.3735 108.505C36.8383 105.738 33.5264 102.848 30.5813 99.8098C28.4774 97.6397 26.5607 95.3951 24.8848 93.0673C24.6296 92.7117 24.3784 92.3531 24.1312 91.9918C20.0466 85.9889 17.5869 79.4424 16.4046 72.9452C15.223 66.4473 15.3232 60.0009 15.9361 56.3833C16.5519 52.7671 17.6849 51.9789 20.2683 54.0216C22.8532 56.0636 26.8892 60.9365 32.8199 66.3751C35.0349 68.4055 37.3266 70.3507 39.6899 72.2064C44.2342 75.7754 47.9248 78.5032 54.2584 81.7105C60.5899 84.9193 62.2937 85.1499 69.8325 86.9304C67.5364 89.8158 66.1648 91.4637 63.4841 95.2183C60.8028 98.973 65.3154 106.614 65.1106 108.799C64.9022 110.986 65.2322 111.657 66.0226 112.758C68.2008 116.721 70.3791 120.684 71.6167 125.299C71.8215 126.064 71.9997 126.845 72.1529 127.642C68.4992 126.027 64.8447 124.415 59.4267 121.295Z" fill="#C7FFD1"/>
<path fill-rule="evenodd" clip-rule="evenodd" d="M59.4269 121.296C54.0075 118.178 46.8223 113.55 40.3737 108.506C36.8385 105.739 33.5266 102.849 30.5815 99.8102C28.4777 97.64 26.5609 95.3955 24.8851 93.0677C24.6299 92.712 24.3787 92.3535 24.1315 91.9922C20.0468 85.9893 17.5871 79.4428 16.4048 72.9456C15.7746 69.4282 15.4688 65.8604 15.4914 62.2871C15.677 62.4764 15.8686 62.7129 16.0667 63.0068C17.789 65.5666 19.9444 72.2045 25.0088 78.6745C30.0725 85.1459 38.0459 91.4456 46.2536 94.3929C54.459 97.3424 58.9246 96.9439 62.1533 96.9292C65.3834 96.9137 64.0059 96.9314 64.8022 96.9608L64.4383 97.4699C60.8708 102.466 65.3157 106.615 65.1109 108.799C64.9024 110.987 65.2324 111.657 66.0228 112.758C68.2011 116.721 70.3793 120.684 71.6169 125.299C71.751 125.797 71.8725 126.304 71.983 126.818C71.6699 126.93 71.3488 127.037 71.0165 127.137C67.7237 125.679 64.2844 124.092 59.4269 121.296Z" fill="#91F7A4"/>
<path fill-rule="evenodd" clip-rule="evenodd" d="M95.0728 243.621C91.2136 241.772 83.098 239.515 78.477 238.752C73.8531 237.99 72.729 238.721 72.0388 239.45C71.3493 240.18 71.0959 240.905 68.9427 239.966C66.7895 239.027 62.7372 236.422 59.342 235.109C55.9476 233.797 53.2109 233.776 51.2286 234.338C49.2478 234.901 48.0213 236.046 48.2474 238.726C48.4729 241.406 50.1509 245.623 53.6986 249.628C57.247 253.635 62.6621 257.43 68.6804 260.917C74.6988 264.404 81.3197 267.584 84.7333 269.053C88.1469 270.524 88.3561 270.283 90.0298 267.587C91.7034 264.89 94.8445 259.738 96.44 256.123C98.0349 252.508 98.0842 250.431 98.3074 248.671C98.5314 246.911 98.9314 245.47 95.0728 243.621Z" fill="#FFD27F"/>
<path fill-rule="evenodd" clip-rule="evenodd" d="M113.468 160.876C109.179 157.499 106.247 153.086 104.899 148.953C103.551 144.821 103.787 140.968 104.011 138.671C104.234 136.371 104.447 135.623 106.519 134.963C108.589 134.308 112.518 133.737 117.489 134.29C118.7 134.426 119.974 134.629 121.286 134.906C119.011 138.014 117.435 141.577 116.664 145.351C115.225 152.341 116.644 159.256 120.119 164.884C117.742 163.785 115.459 162.442 113.468 160.876Z" fill="white"/>
<path fill-rule="evenodd" clip-rule="evenodd" d="M132.545 152.592C132.545 159.679 137.296 165.659 143.786 167.518C143.018 167.705 142.244 167.866 141.465 168.002C137.724 168.654 133.389 168.788 128.397 167.686C125.546 167.05 122.771 166.11 120.119 164.884C116.644 159.255 115.225 152.341 116.665 145.351C117.435 141.577 119.011 138.014 121.286 134.906C125.36 135.771 129.813 137.363 133.955 139.968C134.926 140.58 135.87 141.235 136.783 141.931C134.057 144.811 132.54 148.627 132.545 152.592Z" fill="#91F7A4"/>
<path fill-rule="evenodd" clip-rule="evenodd" d="M130.021 145.624C129.447 145.624 128.879 145.737 128.349 145.956C127.819 146.176 127.337 146.498 126.932 146.903C126.526 147.309 126.204 147.79 125.984 148.32C125.765 148.85 125.651 149.419 125.651 149.992C125.651 150.566 125.764 151.134 125.984 151.664C126.203 152.194 126.525 152.676 126.931 153.082C127.336 153.488 127.818 153.81 128.348 154.029C128.878 154.249 129.446 154.362 130.02 154.362C131.178 154.362 132.29 153.902 133.109 153.083C133.929 152.264 134.389 151.153 134.389 149.994C134.39 148.835 133.929 147.724 133.11 146.904C132.291 146.085 131.18 145.624 130.021 145.624Z" fill="white"/>
<path fill-rule="evenodd" clip-rule="evenodd" d="M143.785 167.518C137.296 165.659 132.545 159.679 132.545 152.591C132.54 148.626 134.057 144.81 136.783 141.931C141.108 145.21 144.909 149.352 147.441 152.785C150.512 156.951 151.717 160.07 152.081 161.934C152.445 163.797 151.969 164.404 150.16 165.29C148.737 165.989 146.494 166.86 143.785 167.518Z" fill="#020617"/>
<path fill-rule="evenodd" clip-rule="evenodd" d="M109.611 195.173C118.768 198.979 127.393 203.611 134.075 206.832C140.757 210.053 145.495 211.863 152.337 212.821C153.982 213.047 155.633 213.222 157.289 213.347C159.251 218.992 161.212 224.638 163.098 230.921C163.733 233.035 164.359 235.221 164.946 237.466C158.505 237.432 149.501 236.636 141.439 233.92C131.482 230.566 122.964 224.284 112.688 219.386C108.297 217.291 103.582 215.451 99.0524 213.558C98.4351 210.232 97.6447 207.042 96.6436 204.079C94.5884 197.997 91.6499 192.863 88.7129 187.728C95.6661 189.957 102.788 192.335 109.611 195.173Z" fill="#F0C87F"/>
<path fill-rule="evenodd" clip-rule="evenodd" d="M168.91 95.3139C166.032 94.5324 163.31 92.995 161.219 91.4083C159.129 89.8238 157.668 88.1928 156.952 87.2241C156.235 86.2525 156.265 85.9439 158.566 81.7487C159.684 79.7082 161.338 76.7528 163.133 73.337C165.03 69.7252 167.084 65.5978 168.825 61.505C171.651 54.8517 173.648 48.286 175.151 41.7719C175.447 40.4879 175.724 39.2061 175.984 37.9258C177.564 30.1506 178.529 22.4416 179.094 17.0199C179.662 11.5983 179.828 8.46312 180.255 6.65908C180.683 4.85578 181.369 4.38286 183.174 5.9438C184.978 7.50474 187.9 11.1018 190.201 16.0594C192.501 21.0192 194.179 27.344 194.536 35.1104C194.752 39.8043 194.487 45.0241 193.637 50.6248C193.045 54.4905 192.228 58.3182 191.189 62.0884C188.448 72.0869 183.928 82.8706 181.41 88.6783C179.781 92.4351 178.99 94.1088 178.154 94.9309C177.698 95.378 177.228 95.574 176.601 95.7147C174.826 96.1169 171.788 96.0933 168.91 95.3139Z" fill="white"/>
<path fill-rule="evenodd" clip-rule="evenodd" d="M165.706 94.1259C164.119 93.3796 162.615 92.4688 161.219 91.4085C159.129 89.824 157.668 88.193 156.952 87.2243C156.235 86.2527 156.265 85.9441 158.566 81.7489C159.684 79.7084 161.338 76.753 163.133 73.3372C165.03 69.7254 167.084 65.598 168.825 61.5052C171.651 54.8519 173.648 48.2862 175.151 41.7721C175.447 40.4881 175.724 39.2063 175.984 37.926C177.564 30.1508 178.529 22.4418 179.094 17.0201C179.662 11.5985 179.828 8.46331 180.255 6.65927C180.515 5.5602 180.873 4.95542 181.519 5.00256C182.714 9.54323 183.838 14.9347 184.286 20.6827C185.075 30.8152 183.759 42.0446 181.215 52.3731C178.672 62.7037 174.899 72.1335 171.083 81.3887C169.251 85.8336 167.408 90.2372 165.706 94.1259Z" fill="#DEDEDE"/>
<path d="M191.747 234.911V244.536M195.323 239.723H188.173M233.877 187.183V202.505M239.568 194.845H228.187M72.2457 206.184V213.848M75.0935 210.016H69.4008M38.1531 194.983V204.608M41.7266 199.797H34.5775M25.365 146.412V152.978M27.8033 149.696H22.9268M241.894 128.957V136.622M244.74 132.789H239.047M212.789 71.1604V81.6657M216.689 76.4119H208.888M154.674 37.918V50.7716M159.449 44.3444H149.9M227.781 158.027V165.691M230.628 161.858H224.935M64.0174 60.8025V67.3697M66.4557 64.0857H61.5784" stroke="white" stroke-width="6.146" stroke-miterlimit="22.926" stroke-linecap="round"/>
<path d="M147.438 152.786C150.509 156.952 151.713 160.071 152.077 161.935M147.438 152.786C144.366 148.621 139.428 143.411 133.951 139.968M147.438 152.786C150.508 156.952 151.713 160.071 152.077 161.935M147.438 152.786C144.905 149.353 141.106 145.211 136.779 141.932C134.053 144.811 132.536 148.627 132.541 152.592C132.541 159.679 137.293 165.66 143.783 167.519C146.491 166.86 148.734 165.99 150.156 165.291C151.965 164.405 152.441 163.798 152.077 161.935M152.077 161.935C152.441 163.798 151.965 164.405 150.155 165.291C148.344 166.181 145.202 167.35 141.461 168.002C137.721 168.654 133.385 168.788 128.393 167.687M128.393 167.687C125.541 167.049 122.766 166.11 120.113 164.885C116.64 159.256 115.222 152.341 116.659 145.352C117.431 141.578 119.008 138.015 121.283 134.906C125.356 135.771 129.809 137.364 133.951 139.968M128.393 167.687C123.401 166.586 117.753 164.25 113.465 160.877C109.175 157.501 106.243 153.087 104.895 148.953C103.547 144.821 103.784 140.969 104.007 138.671C104.231 136.371 104.444 135.624 106.516 134.966C108.586 134.307 112.513 133.737 117.485 134.29C122.458 134.847 128.474 136.525 133.951 139.968M162.52 68.4987C158.18 66.006 153.798 63.585 149.378 61.2369C136.659 54.4907 124.883 49.0918 116.902 45.5228C108.918 41.956 104.727 40.2197 101.375 39.6304C98.0232 39.0426 95.5127 39.6024 94.5072 41.9619C93.5024 44.3236 94.0026 48.4893 92.9035 52.5798C91.8044 56.6712 89.1046 60.6918 84.5979 66.4928C80.0896 72.2939 73.7714 79.8732 69.6079 85.7015C65.4444 91.5305 63.4341 95.6086 63.1189 98.9397C62.8036 102.272 64.1818 104.856 68.1148 106.263C72.0484 107.67 78.5397 107.899 88.3312 109.364C98.1233 110.827 111.216 113.527 124.139 118.495C137.059 123.464 149.809 130.7 158.366 137.189C166.924 143.678 171.288 149.421 174.706 154.992C178.122 160.563 180.592 165.96 183.664 169.781C186.737 173.6 190.412 175.838 192.738 176.959C195.063 178.079 196.04 178.079 199.543 178.079C203.047 178.079 209.076 178.079 212.12 178.023C215.164 177.964 215.222 177.849 213.471 176.299C211.719 174.749 208.158 171.761 206.637 168.805C205.114 165.847 205.63 162.916 208.761 156.256C211.89 149.594 217.634 139.199 220.592 132.163C223.549 125.129 223.722 121.454 222.717 117.72C221.711 113.987 219.529 110.199 213.786 104.598C208.042 98.9986 198.739 91.588 187.253 83.8363L186.787 83.5232M214.323 177.867C213.739 183.911 213.155 189.954 211.8 195.359C210.447 200.764 208.321 205.53 206.57 208.401C204.818 211.273 203.44 212.249 199.793 213.225C196.146 214.202 190.231 215.179 182.45 215.609C174.668 216.041 165.019 215.926 157.64 214.891C150.26 213.857 145.148 211.905 137.94 208.43C130.734 204.956 121.429 199.959 111.552 195.853C101.675 191.747 91.221 188.531 81.4016 185.401C71.5799 182.272 62.391 179.228 57.7694 176.299C53.1462 173.371 53.0887 170.555 55.2714 166.85C57.4526 163.147 61.8754 158.553 65.1763 153.24C68.4794 147.929 70.6621 141.898 71.5799 135.811C72.5 129.722 72.1552 123.579 70.7114 118.193C69.2676 112.809 66.7269 108.184 64.184 103.558M88.7105 187.729C91.6468 192.863 94.586 197.998 96.6405 204.079C98.6935 210.16 99.8648 217.188 100.45 224.402C101.036 231.616 101.036 239.017 100.159 245.273C99.2791 251.528 97.5222 256.639 95.3396 260.697C93.1569 264.755 90.5462 267.759 87.9349 270.764M157.286 213.348C159.248 218.992 161.209 224.639 163.095 230.922C164.981 237.206 166.791 244.127 167.781 251.4C168.771 258.672 168.94 266.297 169.11 273.921M100.289 244.287C94.5749 242.761 88.8638 241.234 84.4638 239.912C80.0616 238.59 76.9743 237.472 74.9788 237.259C72.981 237.046 72.0757 237.739 71.5969 239.455C71.1173 241.172 71.0643 243.914 71.4775 246.376C71.8886 248.839 72.7681 251.022 73.6455 253.204M70.8411 241.632C64.4028 238.754 57.9631 235.877 53.8659 234.571C49.7687 233.265 48.0118 233.532 47.2405 234.57C46.4678 235.609 46.6807 237.418 47.3304 239.856C47.9757 242.295 49.0593 245.362 50.1414 248.429M68.6415 87.082C63.8945 85.9954 59.1454 84.9096 52.8589 81.3641C46.5724 77.8179 38.7456 71.815 32.8171 66.3757C26.8864 60.937 22.8503 56.0642 20.2654 54.0222C17.682 51.9795 16.5491 52.7677 15.934 56.3839C15.3204 60.0015 15.2202 66.4479 16.4025 72.9458C17.5841 79.443 20.0437 85.9895 24.1284 91.9924C28.2153 97.9983 33.9243 103.46 40.3706 108.506C46.8192 113.55 54.0044 118.178 59.4246 121.296C64.8419 124.416 68.4963 126.027 72.1508 127.642M30.5792 99.8104C29.7571 102.749 28.9372 105.69 29.5847 110.358C30.2315 115.026 32.3486 121.426 36.7294 127.308C41.1072 133.188 47.754 138.554 53.1057 142.398C58.4596 146.242 62.5207 148.565 66.584 150.888M50.1753 140.192C48.6291 142.911 47.0851 145.629 46.9252 148.759C46.7683 151.89 47.9985 155.433 49.7282 158.346C51.4571 161.262 53.6847 163.547 55.9123 165.832M208.282 205.202C202.469 204.933 196.658 204.665 190.306 205.909C183.953 207.155 177.062 209.911 169.672 211.202C162.283 212.494 154.394 212.32 147.501 210.858C140.608 209.398 134.709 206.649 130.614 202.744C126.517 198.839 124.223 193.779 121.929 188.719M193.488 193.396C192.741 192.247 191.995 191.099 191.435 189.878C190.875 188.658 190.502 187.365 190.128 186.073M207.98 192.597C209.243 191.749 210.507 190.899 211.38 190.112C212.251 189.326 212.732 188.6 213.211 187.876M194.604 38.0901C234.465 59.8417 261.508 102.137 261.508 150.746C261.508 221.579 204.086 279 133.255 279C62.4227 279 5 221.579 5 150.746C5 127.837 11.0103 106.329 21.5347 87.714M34.9909 68.3197C58.517 40.303 93.8066 22.4932 133.255 22.4932C148.752 22.4932 163.607 25.2408 177.36 30.2787M176.597 95.7154C174.822 96.1176 171.785 96.094 168.907 95.3147C166.028 94.5331 163.307 92.9957 161.216 91.409C159.125 89.8245 157.664 88.1935 156.949 87.2226C156.232 86.2532 156.261 85.9446 158.563 81.7494C160.863 77.5542 165.436 69.4681 168.821 61.505C172.205 53.5404 174.4 45.7018 175.98 37.9266C177.56 30.1513 178.525 22.4423 179.091 17.0207C179.657 11.5982 179.824 8.46309 180.252 6.65979C180.68 4.85575 181.365 4.38356 183.17 5.94451C184.975 7.50545 187.896 11.1017 190.198 16.0601C192.497 21.0199 194.175 27.3447 194.533 35.1111C194.89 42.8775 193.927 52.0885 191.186 62.0892C188.444 72.0876 183.924 82.8713 181.407 88.679C178.888 94.4867 178.373 95.3147 176.597 95.7154Z" stroke="#020617" stroke-width="8.195" stroke-miterlimit="22.926" stroke-linecap="round"/>
</svg>
