<svg width="256" height="256" viewBox="0 0 256 256" fill="none" xmlns="http://www.w3.org/2000/svg">
<g clip-path="url(#clip0_741_46)">
<path d="M256 128C256 198.692 198.692 256 128 256C57.3075 256 0 198.692 0 128C0 57.3075 57.3075 0 128 0C198.692 0 256 57.3075 256 128Z" fill="#1A1A1A"/>
<path d="M191.034 56.0345L170.416 56.0181L174.987 70.5505L176.528 75.4536L172.484 78.4761L137.693 104.508L168.435 127.583L204.94 100.272L191.034 56.0345Z" fill="#FFC800"/>
<path d="M84.4275 78.4233L80.3899 75.3907L81.9371 70.4957L86.5072 56.0162L65.9651 56L52 100.222L88.4608 127.589L119.244 104.555L84.4275 78.4233Z" fill="#E1AA00"/>
<path d="M124.939 79.4347L93.7435 56.0283L88.4786 72.6977L124.939 100.065L124.959 100.049V79.4307L124.939 79.4347Z" fill="#E1AA00"/>
<path d="M163.201 56.0518L131.964 79.4214V100.039L168.447 72.7455L163.201 56.0518Z" fill="#FFC800"/>
<path d="M92.5022 133.326L88.5556 136.283L88.4783 136.522L124.939 163.89L124.959 163.874V109.042L92.5022 133.326Z" fill="#E1AA00"/>
<path d="M168.358 136.3L164.391 133.32L132.005 109.012L131.964 109.043V163.876L168.447 136.581L168.358 136.3Z" fill="#FFC800"/>
<path d="M124.934 172.654L120.896 169.623L95.255 150.381L88.4786 171.842L124.939 199.209L124.959 199.192V172.634L124.934 172.654Z" fill="#E1AA00"/>
<path d="M161.69 150.395L135.982 169.629L131.964 172.636V199.194L168.447 171.901L161.69 150.395Z" fill="#FFC800"/>
</g>
<defs>
<clipPath id="clip0_741_46">
<rect width="256" height="256" fill="white"/>
</clipPath>
</defs>
</svg>
