<svg width="256" height="256" viewBox="0 0 256 256" fill="none" xmlns="http://www.w3.org/2000/svg">
<g clip-path="url(#clip0_2435_8489)">
<path d="M256 128C256 57.3076 198.692 0 128 0C57.3076 0 0 57.3076 0 128C0 198.692 57.3076 256 128 256C198.692 256 256 198.692 256 128Z" fill="#4D00B4"/>
<path fill-rule="evenodd" clip-rule="evenodd" d="M87.9064 42.1858L184.779 46.5212L224 133.773L168.667 213.515L71.2676 207.27L31.3369 112.733L87.9064 42.1858ZM158.927 92.4799L88.7199 123.192L148.743 169.659L158.927 92.4799ZM150.799 77.0901L94.6917 52.9016L82.9057 103.759L150.799 77.0901ZM136.578 181.35L75.6001 137.754L77.0751 196.83L136.578 181.35ZM214.26 133.581L172.707 91.3624L161.739 172.546L214.26 133.581ZM150.874 190.846L99.4477 204.304L159.925 208.182L150.874 190.846ZM206.139 152.735L161.123 186.312L170.068 203.815L206.139 152.735ZM184.846 58.712L176.103 76.6839L208.648 109.807L184.846 58.712ZM173.952 50.1118L116.803 47.7891L163.944 68.4345L173.952 50.1118ZM79.5608 58.4227L39.5313 109.032L66.2943 114.708L79.5608 58.4227ZM64.6805 124.636L37.7885 118.935L65.8483 185.122L64.6805 124.636Z" fill="white"/>
</g>
<defs>
<clipPath id="clip0_2435_8489">
<rect width="256" height="256" fill="white"/>
</clipPath>
</defs>
</svg>
