<svg width="256" height="256" viewBox="0 0 256 256" fill="none" xmlns="http://www.w3.org/2000/svg">
<path d="M104.576 39.9361C94.976 49.5361 92.288 63.7441 97.408 76.2881C102.656 88.8321 114.944 96.6401 128.128 96.6401C141.312 96.6401 153.6 88.5761 158.848 76.1601C163.968 63.4881 161.152 49.7921 151.68 39.8081C145.664 33.7921 137.088 30.0801 128.128 30.0801C119.168 30.0801 110.592 33.9201 104.576 39.9361Z" fill="white"/>
<path d="M41.8559 42.1119C-5.50406 89.7279 -5.50406 166.4 41.8559 214.016L214.144 42.1119C166.4 -5.5041 89.2159 -5.5041 41.8559 42.1119ZM106.368 85.1199C94.5919 73.3439 94.5919 54.0159 106.368 42.1119C118.144 30.2079 137.6 30.3359 149.376 42.1119C161.152 53.8879 161.152 73.2159 149.376 85.1199C137.344 96.7679 118.272 96.7679 106.368 85.1199Z" fill="#FF6666"/>
<path d="M214.144 213.888C166.528 166.272 89.3444 166.4 41.8564 214.016L214.144 42.1118C261.376 89.5998 261.376 166.4 214.144 213.888Z" fill="#D95E59"/>
<path d="M214.144 213.888C166.528 261.504 89.3444 261.632 41.8564 214.016C88.9604 166.528 166.4 166.4 214.144 213.888Z" fill="#FFF4C7"/>
<path d="M116.992 52.8639C112.64 57.2159 111.36 63.7439 113.664 69.3759C116.096 75.0079 121.6 78.8479 127.744 78.8479C133.888 78.8479 139.392 75.0079 141.824 69.3759C144.256 63.7439 142.976 57.2159 138.496 52.8639C135.424 49.7919 131.84 48.2559 127.616 48.2559C123.904 48.3839 119.936 49.9199 116.992 52.8639Z" fill="#016273"/>
</svg>
