<svg width="256" height="256" viewBox="0 0 256 256" fill="none" xmlns="http://www.w3.org/2000/svg">
<g clip-path="url(#clip0_741_46)">
<circle cx="128" cy="128" r="128" fill="#F35165"/>
<path fill-rule="evenodd" clip-rule="evenodd" d="M185.467 75.5771C176.445 66.5257 165.168 62 151.635 62H96V97.4514V116.309C108.029 120.08 117.051 131.394 117.051 144.971C117.051 158.549 108.029 169.863 96 173.634V194H126.073V157.04H151.635C165.168 157.04 176.445 152.514 185.467 143.463C194.489 134.411 199 123.097 199 109.52C199 95.9429 194.489 84.6286 185.467 75.5771ZM162.161 126.114C158.401 130.64 153.139 132.903 147.124 132.903H126.073V86.8914H147.124C153.139 86.8914 158.401 89.1543 162.161 93.68C165.92 98.2057 168.175 103.486 168.175 110.274C168.175 116.309 165.92 121.589 162.161 126.114Z" fill="white"/>
<path d="M80 168C92.1379 168 102 158.147 102 146.02C102 133.894 92.1379 124.041 80 124.041C67.8621 123.283 58 133.136 58 146.02C58 158.147 67.8621 168 80 168Z" fill="white"/>
</g>
<defs>
<clipPath id="clip0_741_46">
<rect width="256" height="256" fill="white"/>
</clipPath>
</defs>
</svg>
