<svg width="256" height="256" viewBox="0 0 256 256" fill="none" xmlns="http://www.w3.org/2000/svg">
<g clip-path="url(#clip0_2564_2182)">
<path d="M0 128C0 198.693 57.3075 256 128 256C198.693 256 256 198.693 256 128C256 57.3075 198.693 0 128 0C57.3075 0 0 57.3075 0 128Z" fill="white"/>
<path fill-rule="evenodd" clip-rule="evenodd" d="M131.743 26.1641C129.425 24.8255 126.568 24.8255 124.25 26.1641L41.6762 73.8379C39.3578 75.1764 37.9297 77.6501 37.9297 80.3272V175.675C37.9297 178.352 39.3578 180.826 41.6762 182.164L124.25 229.838C126.568 231.177 129.425 231.177 131.743 229.838L214.317 182.164C216.634 180.826 218.063 178.352 218.063 175.675V80.3272C218.063 77.6501 216.634 75.1764 214.317 73.8379L131.743 26.1641ZM115.604 157.838C113.546 155.842 110.997 154.844 107.954 154.844C105.002 154.844 102.475 155.842 100.373 157.838C98.2696 159.834 97.2184 162.385 97.2184 165.49C97.2184 168.594 98.2696 171.122 100.373 173.074C102.475 175.026 105.002 176.002 107.954 176.002C110.997 176.002 113.546 175.026 115.604 173.074C117.662 171.122 118.69 168.594 118.69 165.49C118.69 162.385 117.662 159.834 115.604 157.838ZM156.67 157.838C154.612 155.842 152.062 154.844 149.02 154.844C146.068 154.844 143.54 155.842 141.438 157.838C139.335 159.834 138.284 162.385 138.284 165.49C138.284 168.594 139.335 171.122 141.438 173.074C143.54 175.026 146.068 176.002 149.02 176.002C152.062 176.002 154.612 175.026 156.67 173.074C158.727 171.122 159.756 168.594 159.756 165.49C159.756 162.385 158.727 159.834 156.67 157.838ZM116.678 106.808V82.0584H99.3656V106.808C99.3656 110.601 99.4392 114.242 99.5848 117.733C98.3824 118.127 97.1896 118.548 96.0056 118.994C85.9824 122.777 77.0237 127.913 69.1291 134.402L68.8801 134.607L75.7691 144.975C83.1504 139.608 91.2488 135.421 100.065 132.412L100.67 132.208C101.098 136.356 101.608 140.514 102.198 144.683L102.318 145.53H113.859C114.59 139.896 115.21 134.299 115.719 128.738C119.834 128.178 124.068 127.898 128.42 127.898C132.866 127.898 137.192 128.191 141.399 128.775C141.889 134.062 142.51 139.364 143.262 144.683L143.384 145.53H154.925C155.501 141.09 156.007 136.674 156.446 132.28L156.838 132.412C165.59 135.385 173.582 139.51 180.814 144.786L181.071 144.975L187.961 134.607C180.006 128.021 170.964 122.817 160.835 118.994C159.739 118.581 158.636 118.19 157.524 117.822C157.665 114.448 157.738 110.918 157.742 107.232L157.743 106.808V82.0584H140.431V106.808C140.431 109.269 140.462 111.666 140.524 114.001C136.576 113.508 132.542 113.262 128.42 113.262C124.393 113.262 120.449 113.497 116.588 113.967C116.645 111.784 116.674 109.538 116.678 107.232V106.808Z" fill="#6D3CD7"/>
</g>
<defs>
<clipPath id="clip0_2564_2182">
<rect width="256" height="256" fill="white"/>
</clipPath>
</defs>
</svg>
