<svg width="256" height="256" viewBox="0 0 256 256" fill="none" xmlns="http://www.w3.org/2000/svg">
<g clip-path="url(#clip0_2435_8501)">
<path d="M256 128C256 57.3076 198.692 0 128 0C57.3076 0 0 57.3076 0 128C0 198.692 57.3076 256 128 256C198.692 256 256 198.692 256 128Z" fill="#002D61"/>
<path d="M149 75V75.1L135.6 77.7L92.2 113.6L71.8 120.5L63.4 129.4L48.1 129.6L40.6 143.7L30 146.7L40 148.3L49.3 135.9L63.4 138.8L63.5 152L56.2 171.3L52.2 189.3L47.7 196.4L59.1 194.1L57.7 186.6L67.2 166.9L85.6 159.6L92.7 147.7L104.7 139L128.9 143.1L152.2 132.3L148.5 148.6L137.6 149.2L134.7 163.3L143.9 157.2L159 150.6L171.1 132.1L171.6 123.2L178 129.8L196.5 141.4L207.5 136.3L206.3 111.9L203.6 102.9L217 98.9L226.4 87.3L226.1 80.7L224.1 86.2L213.1 95.8L200.4 97.5L198.1 95.3L197.1 94.3L207.8 79L221.7 75.1L206.9 75.8L188.9 88.5L172.5 87.1L149 75Z" fill="white"/>
</g>
<defs>
<clipPath id="clip0_2435_8501">
<rect width="256" height="256" fill="white"/>
</clipPath>
</defs>
</svg>
