<svg width="256" height="256" viewBox="0 0 256 256" fill="none" xmlns="http://www.w3.org/2000/svg">
<circle cx="128.5" cy="128.5" r="127.5" fill="white"/>
<path fill-rule="evenodd" clip-rule="evenodd" d="M153.019 75.3115C151.966 74.2583 150.715 73.4236 149.338 72.8553C147.962 72.2871 146.486 71.9964 144.997 72H144.968C143.475 71.9997 141.998 72.2964 140.621 72.8727C139.245 73.4491 137.997 74.2936 136.95 75.3571L48.3119 164.409C47.2562 165.463 46.42 166.716 45.8515 168.095C45.283 169.474 44.9937 170.952 45.0001 172.443C45.0084 175.476 46.1995 178.327 48.3492 180.469C49.3999 181.522 50.6485 182.356 52.0232 182.925C53.3978 183.493 54.8714 183.784 56.3589 183.78C59.401 183.78 62.2687 182.589 64.4184 180.435L153.052 91.379C155.174 89.2412 156.361 86.35 156.355 83.3384C156.349 80.3269 155.149 77.4405 153.019 75.3115Z" fill="#2DB8E3"/>
<path fill-rule="evenodd" clip-rule="evenodd" d="M204.48 73.0834C202.403 72.2157 200.114 71.9887 197.906 72.4316C195.699 72.8746 193.674 73.9671 192.092 75.569L103.446 164.629C101.323 166.767 100.135 169.659 100.142 172.672C100.15 175.684 101.353 178.571 103.488 180.697C105.626 182.82 108.52 184.007 111.534 183.999C114.547 183.99 117.434 182.786 119.561 180.651L188.776 111.111V172.638C188.779 175.651 189.976 178.54 192.107 180.67C194.237 182.8 197.126 183.998 200.139 184C203.152 183.998 206.041 182.8 208.172 180.67C210.302 178.54 211.5 175.651 211.502 172.638V83.5862C211.509 81.3358 210.844 79.1346 209.594 77.2637C208.343 75.3929 206.563 73.9375 204.48 73.0834Z" fill="#3840C7"/>
</svg>
