<svg width="256" height="256" viewBox="0 0 256 256" fill="none" xmlns="http://www.w3.org/2000/svg">
<g clip-path="url(#clip0_2564_3268)">
<path d="M256 128C256 57.3076 198.692 0 128 0C57.3076 0 0 57.3076 0 128C0 198.692 57.3076 256 128 256C198.692 256 256 198.692 256 128Z" fill="#FEE45D"/>
<path d="M127.998 159.996C127.998 142.325 113.672 127.997 95.9994 127.997C78.3258 127.997 64 142.325 64 159.996C64 177.669 78.3258 191.997 95.9994 191.997C113.672 191.997 127.998 177.667 127.998 159.996Z" fill="black"/>
<path d="M137.375 182.628C149.872 195.124 170.134 195.124 182.629 182.628C195.123 170.13 195.126 149.867 182.629 137.372L137.375 182.628Z" fill="black"/>
<path d="M150.631 150.632C163.128 138.134 163.128 117.873 150.631 105.376C138.134 92.8786 117.872 92.8786 105.375 105.376L150.631 150.632Z" fill="black"/>
<path d="M182.629 118.627C195.126 106.129 195.126 85.8682 182.629 73.3728C170.131 60.8757 149.87 60.8757 137.375 73.3728L182.629 118.627Z" fill="black"/>
<path d="M118.627 73.3728C106.129 60.8757 85.8682 60.8757 73.3728 73.3728C60.8757 85.8701 60.8757 106.131 73.3728 118.627L118.627 73.3728Z" fill="black"/>
</g>
<defs>
<clipPath id="clip0_2564_3268">
<rect width="256" height="256" fill="white"/>
</clipPath>
</defs>
</svg>
