<svg width="256" height="256" viewBox="0 0 256 256" fill="none" xmlns="http://www.w3.org/2000/svg">
<g clip-path="url(#clip0_1184_2)">
<path d="M240.314 189.339C206.449 251.371 128.693 274.197 66.6612 240.333C4.64774 206.487 -18.1974 128.731 15.6674 66.6988C49.5321 4.6478 127.288 -18.1973 189.32 15.6674C251.371 49.5321 274.179 127.288 240.314 189.339Z" fill="#2C2C2C"/>
<path d="M162.403 154.649C176.964 154.649 188.769 142.844 188.769 128.282C188.769 113.721 176.964 101.916 162.403 101.916C147.84 101.916 136.036 113.721 136.036 128.282C136.036 142.844 147.84 154.649 162.403 154.649Z" fill="white"/>
<path d="M116.605 75.4297C111.797 82.3372 103.758 86.864 94.6542 86.864C79.9336 86.864 68.0002 75.0301 68.0002 60.4323C68.0002 45.8347 79.9336 34.001 94.6542 34.001C103.963 34.001 112.158 38.7335 116.925 45.9049C119.51 49.4156 123.696 51.6963 128.416 51.6963C133.135 51.6963 137.318 49.4156 139.903 45.9049C144.669 38.7335 152.868 34.001 162.177 34.001C176.898 34.001 188.831 45.8347 188.831 60.4323C188.831 75.0301 176.898 86.864 162.177 86.864C153.073 86.864 145.035 82.3372 140.227 75.4297H140.214C137.661 71.6707 133.329 69.1982 128.416 69.1982C123.502 69.1982 119.17 71.6707 116.617 75.4297H116.605Z" fill="white"/>
<path d="M79.4343 150.52C72.5268 145.712 68.0002 137.673 68.0002 128.569C68.0002 113.849 79.834 101.916 94.4319 101.916C109.03 101.916 120.864 113.849 120.864 128.569C120.864 137.879 116.131 146.073 108.96 150.84C105.449 153.425 103.168 157.611 103.168 162.33C103.168 167.05 105.449 171.232 108.96 173.818C116.131 178.585 120.864 186.783 120.864 196.092C120.864 210.813 109.03 222.746 94.4319 222.746C79.834 222.746 68.0002 210.813 68.0002 196.092C68.0002 186.987 72.5268 178.949 79.4343 174.141V174.129C83.1934 171.576 85.6661 167.244 85.6661 162.33C85.6661 157.417 83.1934 153.085 79.4343 150.532V150.52Z" fill="white"/>
</g>
<defs>
<clipPath id="clip0_1184_2">
<rect width="256" height="256" fill="white"/>
</clipPath>
</defs>
</svg>
