<svg width="256" height="256" viewBox="0 0 256 256" fill="none" xmlns="http://www.w3.org/2000/svg">
<g clip-path="url(#clip0_1136_40)">
<mask id="mask0_1136_40" style="mask-type:luminance" maskUnits="userSpaceOnUse" x="0" y="0" width="256" height="256">
<path d="M256 0H0V256H256V0Z" fill="white"/>
</mask>
<g mask="url(#mask0_1136_40)">
<path d="M128 256C110.723 256 93.9612 252.613 78.1746 245.939C62.9298 239.491 49.2474 230.261 37.4887 218.511C25.7391 206.762 16.5091 193.07 10.0608 177.825C3.38672 162.039 0 145.277 0 128C0 110.723 3.38672 93.9612 10.0608 78.1746C16.5091 62.9298 25.7391 49.2474 37.4887 37.4887C49.2384 25.7391 62.9298 16.5091 78.1746 10.0608C93.9612 3.38672 110.723 0 128 0C145.277 0 162.039 3.38672 177.825 10.0608C193.07 16.5091 206.753 25.7391 218.511 37.4887C230.261 49.2384 239.491 62.9298 245.939 78.1746C252.613 93.9612 256 110.723 256 128C256 145.277 252.613 162.039 245.939 177.825C239.491 193.07 230.261 206.753 218.511 218.511C206.762 230.261 193.07 239.491 177.825 245.939C162.039 252.613 145.277 256 128 256Z" fill="#0A0520"/>
<path d="M128.001 249.218C194.947 249.218 249.218 194.947 249.218 128C249.218 61.0532 194.947 6.78223 128.001 6.78223C61.0541 6.78223 6.7832 61.0532 6.7832 128C6.7832 194.947 61.0541 249.218 128.001 249.218Z" fill="#0A0520"/>
<path d="M96.0972 74.696L85.9432 57.8486C74.5143 64.6786 64.9523 74.2407 58.0312 85.5785L74.9242 95.7324C80.1605 87.1266 87.4458 79.8868 96.0972 74.696ZM75.0152 159.98L58.1223 170.134C65.0434 181.472 74.651 190.988 86.0798 197.773L96.2338 180.925C87.5824 175.78 80.2516 168.54 75.0152 159.98ZM180.926 159.343C175.781 167.994 168.541 175.234 159.981 180.516L170.135 197.363C181.472 190.442 190.989 180.88 197.773 169.497L180.926 159.343ZM180.835 95.9146L197.728 85.7606C190.852 74.4228 181.336 64.8608 169.952 57.9852L159.798 74.8326C168.404 80.0234 175.644 87.3088 180.88 95.9146H180.835Z" fill="white"/>
<path d="M134.117 100.696C128.744 111.578 129.018 121.914 137.123 129.564C126.377 125.284 117.999 126.65 110.167 135.347C114.811 125.102 110.895 113.445 106.797 105.613C115.494 111.942 125.329 109.256 133.799 100.514C130.52 98.6467 126.832 97.5083 122.78 97.5083C110.349 97.5083 100.286 107.571 100.286 120.002C100.286 132.432 110.349 142.495 122.78 142.495C135.21 142.495 145.273 132.432 145.273 120.002C145.273 111.715 140.765 104.566 134.072 100.65L134.117 100.696ZM127.697 73.6943C97.8728 73.6943 73.6946 97.8726 73.6946 127.697C73.6946 157.521 97.8728 181.7 127.697 181.7C157.522 181.7 181.7 157.521 181.7 127.697C181.7 97.8726 157.522 73.6943 127.697 73.6943ZM127.788 160.982C109.393 160.982 94.4578 146.047 94.4578 127.651C94.4578 109.256 109.393 94.321 127.788 94.321C146.184 94.321 161.119 109.256 161.119 127.651C161.119 146.047 146.184 160.982 127.788 160.982Z" fill="white"/>
<path d="M127.788 66.3183C138.033 66.3183 147.641 68.8682 156.156 73.2849L168.268 49.9263C156.156 43.5971 142.405 40 127.788 40C113.172 40 99.6033 43.5971 87.5369 49.8352L99.6488 73.1939C108.072 68.8682 117.635 66.3639 127.788 66.3639V66.3183ZM73.3305 99.3756L49.9718 87.2637C43.5971 99.3756 40 113.127 40 127.743C40 142.359 43.6427 156.292 50.0629 168.45L73.4215 156.338C68.9137 147.778 66.3183 138.079 66.3183 127.743C66.3183 117.407 68.8682 107.89 73.2849 99.3756H73.3305ZM205.742 87.4003L182.383 99.5122C186.754 107.981 189.304 117.543 189.304 127.743C189.304 137.942 186.8 147.322 182.52 155.746L205.878 167.858C212.071 155.837 215.668 142.223 215.668 127.743C215.668 113.263 212.071 99.4667 205.787 87.4003H205.742ZM127.788 189.168C117.726 189.168 108.255 186.709 99.8765 182.429L87.7646 205.787C99.7854 211.934 113.354 215.486 127.788 215.486C142.223 215.486 156.338 211.843 168.541 205.423L156.429 182.064C147.869 186.572 138.17 189.168 127.834 189.168H127.788Z" fill="white"/>
</g>
</g>
<defs>
<clipPath id="clip0_1136_40">
<rect width="256" height="256" fill="white"/>
</clipPath>
</defs>
</svg>
