<svg width="256" height="256" viewBox="0 0 256 256" fill="none" xmlns="http://www.w3.org/2000/svg">
<g clip-path="url(#clip0_1953_3058)">
<path d="M256 128C256 57.3075 198.692 0 128 0C57.3075 0 0 57.3075 0 128C0 198.692 57.3075 256 128 256C198.692 256 256 198.692 256 128Z" fill="#2E2E2E"/>
<path d="M103.887 147.852H119.563C124.046 147.856 128.475 146.865 132.528 144.948C136.357 143.052 139.775 140.423 142.591 137.21C145.376 133.883 147.536 130.079 148.967 125.983C150.52 121.837 151.308 117.444 151.29 113.017C151.318 108.698 150.461 104.418 148.773 100.443C147.152 96.4075 144.859 92.6767 141.99 89.4087C139.111 86.1323 135.629 83.4396 131.734 81.4768C127.727 79.4079 123.277 78.3451 118.768 78.3802H77.5898V178.41H103.887V147.852ZM103.887 102.568H117.239C119.088 102.692 120.818 103.524 122.069 104.892C123.62 106.437 124.586 109.147 124.586 113.403C124.586 117.659 123.62 120.181 122.262 121.534C121.103 122.886 119.579 123.857 117.813 123.857H103.887V102.568Z" fill="#2D8EFF"/>
<path d="M47 57.2468V199.753C46.9993 200.968 47.238 202.17 47.7024 203.293C48.1669 204.415 48.848 205.434 49.7067 206.293C50.5655 207.152 51.5852 207.833 52.7073 208.298C53.8295 208.762 55.0323 209.001 56.2468 209H198.753C199.968 209.001 201.17 208.762 202.293 208.298C203.415 207.833 204.434 207.152 205.293 206.293C206.152 205.434 206.833 204.415 207.298 203.293C207.762 202.17 208.001 200.968 208 199.753V57.2468C208.001 56.0323 207.762 54.8295 207.298 53.7073C206.833 52.5852 206.152 51.5655 205.293 50.7067C204.434 49.848 203.415 49.1669 202.293 48.7024C201.17 48.238 199.968 47.9993 198.753 48H56.2468C55.0323 47.9993 53.8295 48.238 52.7073 48.7024C51.5852 49.1669 50.5655 49.848 49.7067 50.7067C48.848 51.5655 48.1669 52.5852 47.7024 53.7073C47.238 54.8295 46.9993 56.0323 47 57.2468ZM179.787 190.034H75.0194C73.8058 190.034 72.6042 189.794 71.4832 189.329C70.3623 188.864 69.3439 188.182 68.4863 187.324C67.6286 186.465 66.9485 185.446 66.4847 184.324C66.021 183.203 65.7826 182.001 65.7833 180.787V76.0194C65.7848 73.5703 66.7583 71.2219 68.4901 69.4901C70.2219 67.7583 72.5703 66.7848 75.0194 66.7833H179.787C181.002 66.7826 182.205 67.0213 183.327 67.4858C184.449 67.9502 185.469 68.6313 186.327 69.4901C187.186 70.3489 187.867 71.3685 188.332 72.4907C188.796 73.6129 189.035 74.8156 189.034 76.0301V180.787C189.035 182.002 188.796 183.205 188.332 184.327C187.867 185.449 187.186 186.469 186.327 187.327C185.469 188.186 184.449 188.867 183.327 189.332C182.205 189.796 181.002 190.035 179.787 190.034Z" fill="#2D8EFF"/>
<path d="M177.421 159.653H115.693V178.619H177.421V159.653Z" fill="#2D8EFF"/>
</g>
<defs>
<clipPath id="clip0_1953_3058">
<rect width="256" height="256" fill="white"/>
</clipPath>
</defs>
</svg>
