<svg width="256" height="256" viewBox="0 0 256 256" fill="none" xmlns="http://www.w3.org/2000/svg">
<circle cx="128.5" cy="128.5" r="126.5" fill="white"/>
<path fill-rule="evenodd" clip-rule="evenodd" d="M81.6741 85.6687H175.042C180.352 85.6687 183.418 91.693 180.297 95.9875L135.862 157.096C132.738 161.391 135.806 167.415 141.116 167.415H180.275C182.353 167.415 184.306 166.421 185.529 164.737L229.474 104.303C231.131 102.024 231.131 98.9387 229.474 96.6592L190.946 43.6778C189.724 41.995 187.771 41 185.693 41H71.0234C68.9441 41 66.9926 41.995 65.77 43.6778L27.2421 96.6592C25.586 98.9387 25.586 102.025 27.2421 104.303L123.103 236.136C125.697 239.703 131.019 239.703 133.612 236.136L153.19 209.21C154.848 206.931 154.848 203.845 153.19 201.565L76.4207 95.9875C73.2981 91.693 76.3649 85.6687 81.6741 85.6687Z" fill="#5294FF"/>
</svg>
