<svg width="256" height="256" viewBox="0 0 256 256" fill="none" xmlns="http://www.w3.org/2000/svg">
<path d="M256 127.998C256 161.946 242.514 194.504 218.509 218.509C194.504 242.514 161.946 256 127.998 256C94.0514 255.999 61.495 242.513 37.491 218.509C13.487 194.505 0.00116778 161.95 0 128.002C-2.00871e-08 94.0551 13.4853 61.4975 37.4895 37.4926C61.4936 13.4876 94.0505 0.00116783 127.998 0C161.946 -2.00871e-08 194.503 13.4853 218.508 37.4895C242.512 61.4935 255.999 94.0505 256 127.998Z" fill="#A79DFF"/>
<path d="M140.109 35.5195C143.965 36.6192 147.228 37.9745 152.211 42.1535C157.206 46.3325 159.81 52.3958 157.983 52.0273C155.129 51.4566 152.709 50.9513 149.067 50.6065C145.424 50.2677 140.405 50.7076 138.537 50.9038C129.727 51.843 123.979 55.4691 119.536 58.2749C111.919 63.1018 104.248 70.8475 98.3099 79.1044C93.1845 86.2377 87.6496 96.0283 83.3013 107.917C81.0173 114.171 79.3859 121.269 79.3859 126.226C79.3859 128.747 79.5639 132.569 81.3436 136.362C85.8074 127.619 90.4654 118.978 95.3141 110.444C102.617 97.77 112.696 81.5535 125.195 73.6949C138.887 65.0813 156.203 65.0278 171.68 73.9802C180.935 79.3362 185.485 84.6327 193.944 95.7964C200.037 103.839 203.893 111.841 207.992 119.426C209.434 122.101 212.453 128.687 215.716 139.97C218.979 151.264 219.471 163.926 218.652 170.62C217.536 179.619 213.386 187.966 206.889 194.279C204.011 197.078 201.211 199.23 195.107 201.471C188.997 203.712 182.454 202.946 183.687 201.537C185.604 199.349 187.253 197.5 189.371 194.51C191.488 191.52 193.618 186.949 194.377 185.225C197.972 177.111 197.717 170.31 197.504 165.05C197.148 156.026 194.288 145.498 190.118 136.219C186.523 128.2 180.828 118.504 172.725 108.785C168.465 103.673 163.144 98.7152 158.861 96.2363C156.767 95.0237 153.545 93.3533 149.589 92.9074C154.989 101.263 160.201 109.74 165.22 118.332C172.517 131 181.498 147.864 182.044 162.63C182.637 178.817 174.024 193.874 158.552 202.827C149.292 208.183 142.44 209.485 128.565 211.244C118.569 212.51 109.724 211.856 101.122 211.619C98.0845 211.529 90.8886 210.858 79.4987 208.052C68.1087 205.234 56.9204 199.337 51.5398 195.271C44.3211 189.804 39.1828 182.029 36.976 173.235C35.9913 169.342 35.5345 165.834 36.6557 159.414C37.7709 152.994 41.7041 147.704 42.3032 149.469C43.2405 152.227 44.0117 154.581 45.5363 157.91C47.0609 161.245 49.9499 165.382 51.0533 166.904C56.2738 174.085 62.2772 177.26 66.9281 179.709C74.9071 183.911 85.4369 186.687 95.5396 187.71C104.266 188.602 115.496 188.506 127.948 186.331C134.491 185.189 141.444 183.055 145.727 180.577C147.993 179.269 151.386 177.075 153.801 173.378C141.402 173.972 131.276 174.269 123.433 174.269C108.834 174.269 89.7734 173.627 76.7342 166.714C62.4493 159.135 53.7466 144.125 53.7466 126.232C53.7466 115.514 56.0483 108.916 61.4645 95.9986C65.3679 86.6895 70.357 79.3421 74.8655 71.9948C76.4554 69.403 80.6317 63.4942 88.759 55.0173C96.8862 46.5405 107.57 39.7816 113.775 37.1423C122.112 33.6094 131.403 33.0368 140.109 35.5195ZM128.31 104.701L127.894 105.272C126.743 106.841 125.581 108.589 124.424 110.539C116.914 123.109 109.573 135.78 102.403 148.548C104.584 148.797 106.776 148.936 108.97 148.964C125.296 149.196 140.085 149.225 153.344 149.053C152.573 147.311 151.659 145.474 150.585 143.537C143.338 130.49 135.912 117.543 128.31 104.701Z" fill="white"/>
</svg>
