<svg width="256" height="256" viewBox="0 0 256 256" fill="none" xmlns="http://www.w3.org/2000/svg">
<path d="M256 127.998C256 161.946 242.514 194.504 218.509 218.509C194.504 242.514 161.946 256 127.998 256C94.0514 255.999 61.495 242.513 37.491 218.509C13.487 194.505 0.00116778 161.95 0 128.002C-2.00871e-08 94.0551 13.4853 61.4975 37.4895 37.4926C61.4936 13.4876 94.0505 0.00116783 127.998 0C161.946 -2.00871e-08 194.503 13.4853 218.508 37.4895C242.512 61.4935 255.999 94.0505 256 127.998Z" fill="black"/>
<path d="M186.42 181.705C186.309 184.876 183.687 187.417 180.472 187.417H93.6561C93.6561 187.417 93.5895 187.417 93.5154 187.402H93.4561C93.345 187.402 93.2413 187.402 93.1376 187.402C89.8632 187.402 87.2037 184.743 87.2037 181.46V179.371C87.2185 179.156 87.4778 175.251 90.1151 170.421C94.3821 162.604 102.316 156.729 113.688 152.957L148.617 141.377C149.395 141.118 156.41 138.688 163.396 132.686C172.982 124.462 178.123 113.489 178.301 100.923L180.775 102.553C186.324 106.206 186.428 112.77 186.428 113.045V181.697L186.42 181.705ZM156.714 100.256C156.714 106.599 154.447 111.726 149.772 115.927C146.068 119.261 142.216 120.75 141.742 120.92L106.894 132.479C86.0554 139.391 75.9656 151.305 71.1726 160.085C70.2762 161.73 69.4687 163.434 68.7724 165.16C68.7057 165.323 68.6464 165.486 68.5798 165.649V113.052C68.5798 106.717 73.5284 103.05 74.1803 102.598L74.2321 102.583L74.2914 102.524L121.911 71.1905C127.393 67.5823 133.045 71.1535 133.104 71.1905L156.721 86.7348V100.256H156.714ZM208 180.586V113.052C208 109.977 207.259 94.1588 192.628 84.5269L178.39 75.1618V54.0384C178.39 50.7043 175.686 48 172.352 48H163.003C159.67 48 156.966 50.7043 156.966 54.0384V61.0623L144.965 53.1567C136.275 47.4369 122.111 45.2216 110.05 53.1567L62.3718 84.5269L62.3199 84.564C59.6382 86.3422 47 95.648 47 113.052V180.586C47 187.047 48.4964 192.567 51.4449 196.997C53.808 200.546 57.1046 203.391 61.2383 205.458C68.2316 208.956 75.1211 209 75.4026 209H179.597C179.886 209 186.768 208.963 193.769 205.458C197.903 203.391 201.192 200.546 203.563 196.997C206.504 192.574 208 187.054 208 180.586Z" fill="#38A6FA"/>
</svg>
