<svg width="256" height="256" viewBox="0 0 256 256" fill="none" xmlns="http://www.w3.org/2000/svg">
<g clip-path="url(#clip0_2233_916)">
<path fill-rule="evenodd" clip-rule="evenodd" d="M128 0C198.697 0 256 57.3026 256 128C256 198.697 198.697 256 128 256C57.3026 256 0 198.697 0 128C0 57.3026 57.3026 0 128 0Z" fill="#5900F7"/>
<path fill-rule="evenodd" clip-rule="evenodd" d="M128 0C198.697 0 256 57.3026 256 128C256 198.697 198.697 256 128 256C57.3026 256 0 198.697 0 128C0 57.3026 57.3026 0 128 0Z" fill="#5900F7"/>
<path fill-rule="evenodd" clip-rule="evenodd" d="M128 0C198.697 0 256 57.3026 256 128C256 198.697 198.697 256 128 256C57.3026 256 0 198.697 0 128C0 57.3026 57.3026 0 128 0Z" fill="#333333"/>
<path fill-rule="evenodd" clip-rule="evenodd" d="M215.5 34.5734C192.613 13.1297 161.841 0 128 0C57.3026 0 0 57.3026 0 128C0 161.841 13.1297 192.613 34.5734 215.5L215.5 34.5734Z" fill="#5900F7"/>
<path fill-rule="evenodd" clip-rule="evenodd" d="M215.5 34.5734C192.613 13.1297 161.841 0 128 0C57.3026 0 0 57.3026 0 128C0 161.841 13.1297 192.613 34.5734 215.5L215.5 34.5734Z" fill="#5900F7"/>
<path fill-rule="evenodd" clip-rule="evenodd" d="M215.5 34.5734C192.613 13.1297 161.841 0 128 0C57.3026 0 0 57.3026 0 128C0 161.841 13.1297 192.613 34.5734 215.5L215.5 34.5734Z" fill="#5900F7"/>
<path d="M172.211 83.7602L171.737 83.283C171.501 83.0447 171.501 83.0447 171.267 82.8062L147.152 107.141C147.388 107.38 147.388 107.38 147.625 107.618L148.098 108.095C175.284 135.77 180.721 165.116 172.684 173.227C169.847 176.091 164.883 176.806 161.336 176.568C145.968 176.329 125.163 165.354 108.141 148.415L107.668 147.938C107.434 147.7 107.434 147.7 107.198 147.461L83.082 171.796C83.3187 172.035 83.3187 172.035 83.5554 172.273L84.0288 172.751C107.668 196.37 136.277 210.685 160.626 210.923C160.863 210.923 161.336 210.923 161.573 210.923C175.758 210.923 187.816 206.151 196.563 197.324C209.564 184.202 213.348 164.161 206.964 141.019C201.764 121.456 189.232 100.938 172.211 83.7602Z" fill="url(#paint0_linear_2233_916)"/>
<path d="M79.3088 93.7814C79.3088 90.2028 79.7822 85.1926 82.6192 82.3294C84.9827 79.9438 88.763 78.9894 93.4935 78.9894C97.0406 78.9894 101.058 79.7052 105.315 80.8982C119.026 84.7154 134.158 94.2586 147.159 107.38L171.274 83.0452C154.016 65.8676 133.921 53.4614 114.536 47.9741C91.5999 41.5325 71.7413 45.1112 58.5034 58.4715C49.5192 67.5375 45.0254 79.9438 45.0254 94.7358C45.4988 119.548 59.4503 148.416 82.8524 172.274L107.205 147.223C90.4199 130.284 79.5455 109.289 79.3088 93.7814Z" fill="url(#paint1_linear_2233_916)"/>
</g>
<defs>
<linearGradient id="paint0_linear_2233_916" x1="130.941" y1="189.93" x2="224.56" y2="103.387" gradientUnits="userSpaceOnUse">
<stop stop-color="#00FFFF"/>
<stop offset="1" stop-color="#5900F7" stop-opacity="0"/>
</linearGradient>
<linearGradient id="paint1_linear_2233_916" x1="16.3044" y1="160.754" x2="133.638" y2="63.4704" gradientUnits="userSpaceOnUse">
<stop stop-color="#5900F7" stop-opacity="0"/>
<stop offset="1" stop-color="white"/>
</linearGradient>
<clipPath id="clip0_2233_916">
<rect width="256" height="256" fill="white"/>
</clipPath>
</defs>
</svg>
