<svg width="256" height="256" viewBox="0 0 256 256" fill="none" xmlns="http://www.w3.org/2000/svg">
<g clip-path="url(#clip0_1775_608)">
<path d="M128 256C198.692 256 256 198.692 256 128C256 57.3076 198.692 0 128 0C57.3076 0 0 57.3076 0 128C0 198.692 57.3076 256 128 256Z" fill="url(#paint0_linear_1775_608)"/>
<path opacity="0.3" d="M128 252.15C57.9473 252.15 1.0584 195.883 0.0264599 126.082C0.0264599 126.717 0 127.365 0 128C0 198.688 57.3122 256 128 256C198.688 256 256 198.688 256 128C256 127.352 255.987 126.717 255.974 126.082C254.942 195.883 198.053 252.164 128 252.164V252.15Z" fill="#FDF356"/>
<path d="M128 4.81571C197.894 4.81571 254.69 60.8314 255.974 130.408C255.987 129.601 256 128.807 256 128C256 57.3122 198.688 0 128 0C57.3122 0 0 57.3122 0 128C0 128.807 0.01323 129.601 0.0264599 130.408C1.30977 60.8314 58.106 4.81571 128 4.81571Z" fill="#FDF356"/>
<path style="mix-blend-mode:screen" d="M128 255.405C198.364 255.405 255.405 198.364 255.405 128C255.405 57.6367 198.364 0.595703 128 0.595703C57.6365 0.595703 0.595459 57.6367 0.595459 128C0.595459 198.364 57.6365 255.405 128 255.405Z" fill="url(#paint1_radial_1775_608)"/>
<path style="mix-blend-mode:screen" opacity="0.7" d="M128 0.476562C58.7677 0.476562 2.4212 55.6852 0.595459 124.481C14.6854 132.829 36.8456 126.148 51.3324 118.898C63.795 113.143 79.1286 115.061 92.5438 116.027C126.082 118.898 158.667 133.279 192.205 124.653C198.913 122.735 208.491 114.109 215.199 119.864C227.013 129.707 242.889 130.567 255.405 124.574C253.619 55.7382 197.259 0.476562 128 0.476562Z" fill="url(#paint2_linear_1775_608)"/>
<path d="M128 227.133C182.749 227.133 227.132 182.75 227.132 128C227.132 73.2512 182.749 28.8682 128 28.8682C73.2509 28.8682 28.8679 73.2512 28.8679 128C28.8679 182.75 73.2509 227.133 128 227.133Z" fill="url(#paint3_linear_1775_608)"/>
<path d="M128 222.317C180.09 222.317 222.317 180.09 222.317 128C222.317 75.9105 180.09 33.6836 128 33.6836C75.9105 33.6836 33.6836 75.9105 33.6836 128C33.6836 180.09 75.9105 222.317 128 222.317Z" fill="#EE9B00"/>
<path d="M128 218.466C177.963 218.466 218.467 177.963 218.467 128C218.467 78.0365 177.963 37.5332 128 37.5332C78.0367 37.5332 37.5334 78.0365 37.5334 128C37.5334 177.963 78.0367 218.466 128 218.466Z" fill="url(#paint4_radial_1775_608)"/>
<path opacity="0.25" d="M128 211.732C78.8374 211.732 38.8432 174.45 37.5599 125.592C37.5334 126.386 37.5334 127.193 37.5334 128C37.5334 177.969 78.0304 218.466 128 218.466C177.97 218.466 218.467 177.969 218.467 128C218.467 127.193 218.467 126.399 218.44 125.592C217.17 174.437 177.163 211.732 128 211.732Z" fill="#FDF356"/>
<path opacity="0.3" d="M98.1135 141.15L93.1787 169.952C93.0464 170.706 93.1125 171.434 93.311 172.082L98.5501 141.561L98.1267 141.15H98.1135Z" fill="#FDF356"/>
<path opacity="0.3" d="M157.886 141.15L157.463 141.561L162.702 172.082C162.901 171.421 162.967 170.706 162.835 169.952L157.9 141.15H157.886Z" fill="#FDF356"/>
<path d="M112.508 200.209C111.224 200.209 109.994 199.785 108.989 198.992L79.7503 175.971C78.3744 174.887 77.5806 173.246 77.5806 171.5V119.943C77.5806 116.794 80.134 114.254 83.2695 114.254H133.517C136.666 114.254 139.206 116.807 139.206 119.943C139.206 123.078 136.652 125.631 133.517 125.631H88.9716V168.748L106.819 182.811V145.688C106.819 142.539 109.372 139.999 112.508 139.999H135.052C145.98 139.999 154.844 131.135 154.844 120.207C154.844 109.279 145.98 100.415 135.052 100.415H83.2695C80.1207 100.415 77.5806 97.8617 77.5806 94.7262V67.3666C77.5806 64.2179 80.134 61.6777 83.2695 61.6777H137.208C169.251 61.6777 195.221 87.6482 195.221 119.691C195.221 151.734 169.251 177.705 137.208 177.705H135.872C132.723 177.705 130.183 175.151 130.183 172.016C130.183 168.88 132.736 166.327 135.872 166.327H137.208C162.954 166.327 183.83 145.45 183.83 119.704C183.83 93.9589 162.954 73.082 137.208 73.082H88.9716V89.0505H135.052C152.277 89.0505 166.235 103.008 166.235 120.234C166.235 137.459 152.277 151.417 135.052 151.417H118.21V194.533C118.21 197.682 115.656 200.222 112.521 200.222L112.508 200.209Z" fill="#FDF356" fill-opacity="0.1"/>
<g style="mix-blend-mode:multiply" opacity="0.77">
<path d="M112.508 204.179C111.224 204.179 109.994 203.755 108.989 202.961L79.7503 179.941C78.3744 178.856 77.5806 177.216 77.5806 175.469V123.912C77.5806 120.764 80.134 118.223 83.2695 118.223H133.517C136.666 118.223 139.206 120.777 139.206 123.912C139.206 127.048 136.652 129.601 133.517 129.601H88.9716V172.718L106.819 186.781V149.658C106.819 146.509 109.372 143.969 112.508 143.969H135.052C145.98 143.969 154.844 135.105 154.844 124.177C154.844 113.249 145.98 104.385 135.052 104.385H83.2695C80.1207 104.385 77.5806 101.831 77.5806 98.6959V71.3363C77.5806 68.1876 80.134 65.6475 83.2695 65.6475H137.208C169.251 65.6475 195.221 91.6179 195.221 123.661C195.221 155.704 169.251 181.674 137.208 181.674H135.872C132.723 181.674 130.183 179.121 130.183 175.985C130.183 172.85 132.736 170.297 135.872 170.297H137.208C162.954 170.297 183.83 149.42 183.83 123.674C183.83 97.9286 162.954 77.0517 137.208 77.0517H88.9716V93.0203H135.052C152.277 93.0203 166.235 106.978 166.235 124.203C166.235 141.429 152.277 155.386 135.052 155.386H118.21V198.503C118.21 201.652 115.656 204.192 112.521 204.192L112.508 204.179Z" fill="#D68738"/>
</g>
<path style="mix-blend-mode:multiply" opacity="0.15" d="M112.508 200.209C111.224 200.209 109.994 199.785 108.989 198.992L79.7503 175.971C78.3744 174.887 77.5806 173.246 77.5806 171.5V119.943C77.5806 116.794 80.134 114.254 83.2695 114.254H133.517C136.666 114.254 139.206 116.807 139.206 119.943C139.206 123.078 136.652 125.631 133.517 125.631H88.9716V168.748L106.819 182.811V145.688C106.819 142.539 109.372 139.999 112.508 139.999H135.052C145.98 139.999 154.844 131.135 154.844 120.207C154.844 109.279 145.98 100.415 135.052 100.415H83.2695C80.1207 100.415 77.5806 97.8617 77.5806 94.7262V67.3666C77.5806 64.2179 80.134 61.6777 83.2695 61.6777H137.208C169.251 61.6777 195.221 87.6482 195.221 119.691C195.221 151.734 169.251 177.705 137.208 177.705H135.872C132.723 177.705 130.183 175.151 130.183 172.016C130.183 168.88 132.736 166.327 135.872 166.327H137.208C162.954 166.327 183.83 145.45 183.83 119.704C183.83 93.9589 162.954 73.082 137.208 73.082H88.9716V89.0505H135.052C152.277 89.0505 166.235 103.008 166.235 120.234C166.235 137.459 152.277 151.417 135.052 151.417H118.21V194.533C118.21 197.682 115.656 200.222 112.521 200.222L112.508 200.209Z" fill="url(#paint5_linear_1775_608)"/>
<g style="mix-blend-mode:color-dodge">
<path d="M112.508 197.563C111.224 197.563 109.994 197.14 108.989 196.346L79.7503 173.326C78.3744 172.241 77.5806 170.601 77.5806 168.854V117.297C77.5806 114.148 80.134 111.608 83.2695 111.608H133.517C136.666 111.608 139.206 114.162 139.206 117.297C139.206 120.433 136.652 122.986 133.517 122.986H88.9716V166.102L106.819 180.166V143.043C106.819 139.894 109.372 137.354 112.508 137.354H135.052C145.98 137.354 154.844 128.49 154.844 117.562C154.844 106.634 145.98 97.7696 135.052 97.7696H83.2695C80.1207 97.7696 77.5806 95.2162 77.5806 92.0807V64.7211C77.5806 61.5724 80.134 59.0322 83.2695 59.0322H137.208C169.251 59.0322 195.221 85.0027 195.221 117.046C195.221 149.089 169.251 175.059 137.208 175.059H135.872C132.723 175.059 130.183 172.506 130.183 169.37C130.183 166.235 132.736 163.681 135.872 163.681H137.208C162.954 163.681 183.83 142.804 183.83 117.059C183.83 91.3134 162.954 70.4365 137.208 70.4365H88.9716V86.405H135.052C152.277 86.405 166.235 100.363 166.235 117.588C166.235 134.814 152.277 148.771 135.052 148.771H118.21V191.888C118.21 195.036 115.656 197.577 112.521 197.577L112.508 197.563Z" fill="white"/>
</g>
<path d="M112.508 200.209C111.224 200.209 109.994 199.785 108.989 198.992L79.7503 175.971C78.3744 174.887 77.5806 173.246 77.5806 171.5V119.943C77.5806 116.794 80.134 114.254 83.2695 114.254H133.517C136.666 114.254 139.206 116.807 139.206 119.943C139.206 123.078 136.652 125.631 133.517 125.631H88.9716V168.748L106.819 182.811V145.688C106.819 142.539 109.372 139.999 112.508 139.999H135.052C145.98 139.999 154.844 131.135 154.844 120.207C154.844 109.279 145.98 100.415 135.052 100.415H83.2695C80.1207 100.415 77.5806 97.8617 77.5806 94.7262V67.3666C77.5806 64.2179 80.134 61.6777 83.2695 61.6777H137.208C169.251 61.6777 195.221 87.6482 195.221 119.691C195.221 151.734 169.251 177.705 137.208 177.705H135.872C132.723 177.705 130.183 175.151 130.183 172.016C130.183 168.88 132.736 166.327 135.872 166.327H137.208C162.954 166.327 183.83 145.45 183.83 119.704C183.83 93.9589 162.954 73.082 137.208 73.082H88.9716V89.0505H135.052C152.277 89.0505 166.235 103.008 166.235 120.234C166.235 137.459 152.277 151.417 135.052 151.417H118.21V194.533C118.21 197.682 115.656 200.222 112.521 200.222L112.508 200.209Z" fill="url(#paint6_linear_1775_608)"/>
<g style="mix-blend-mode:overlay" opacity="0.58">
<path d="M112.508 200.209C111.224 200.209 109.994 199.785 108.989 198.992L79.7503 175.971C78.3744 174.887 77.5806 173.246 77.5806 171.5V119.943C77.5806 116.794 80.134 114.254 83.2695 114.254H133.517C136.666 114.254 139.206 116.807 139.206 119.943C139.206 123.078 136.652 125.631 133.517 125.631H88.9716V168.748L106.819 182.811V145.688C106.819 142.539 109.372 139.999 112.508 139.999H135.052C145.98 139.999 154.844 131.135 154.844 120.207C154.844 109.279 145.98 100.415 135.052 100.415H83.2695C80.1207 100.415 77.5806 97.8617 77.5806 94.7262V67.3666C77.5806 64.2179 80.134 61.6777 83.2695 61.6777H137.208C169.251 61.6777 195.221 87.6482 195.221 119.691C195.221 151.734 169.251 177.705 137.208 177.705H135.872C132.723 177.705 130.183 175.151 130.183 172.016C130.183 168.88 132.736 166.327 135.872 166.327H137.208C162.954 166.327 183.83 145.45 183.83 119.704C183.83 93.9589 162.954 73.082 137.208 73.082H88.9716V89.0505H135.052C152.277 89.0505 166.235 103.008 166.235 120.234C166.235 137.459 152.277 151.417 135.052 151.417H118.21V194.533C118.21 197.682 115.656 200.222 112.521 200.222L112.508 200.209Z" fill="white"/>
</g>
</g>
<defs>
<linearGradient id="paint0_linear_1775_608" x1="128" y1="0" x2="128" y2="256" gradientUnits="userSpaceOnUse">
<stop stop-color="#F8DF00"/>
<stop offset="0.14" stop-color="#FCE800"/>
<stop offset="0.3" stop-color="#FFEF00"/>
<stop offset="1" stop-color="#F3A700"/>
</linearGradient>
<radialGradient id="paint1_radial_1775_608" cx="0" cy="0" r="1" gradientUnits="userSpaceOnUse" gradientTransform="translate(126.717 -17.6087) scale(101.937)">
<stop stop-color="#FFF77D"/>
<stop offset="1"/>
</radialGradient>
<linearGradient id="paint2_linear_1775_608" x1="128" y1="234.687" x2="128" y2="48.938" gradientUnits="userSpaceOnUse">
<stop stop-color="#FFFAB0"/>
<stop offset="1"/>
</linearGradient>
<linearGradient id="paint3_linear_1775_608" x1="128" y1="227.133" x2="128" y2="-16.4445" gradientUnits="userSpaceOnUse">
<stop stop-color="#FFE100"/>
<stop offset="0.17" stop-color="#FCD600"/>
<stop offset="0.7" stop-color="#F7B900"/>
<stop offset="1" stop-color="#F5AE00"/>
</linearGradient>
<radialGradient id="paint4_radial_1775_608" cx="0" cy="0" r="1" gradientUnits="userSpaceOnUse" gradientTransform="translate(128.966 50.0488) scale(181.899)">
<stop offset="0.31" stop-color="#FFDF00"/>
<stop offset="1" stop-color="#F3A700"/>
</radialGradient>
<linearGradient id="paint5_linear_1775_608" x1="77.5673" y1="130.937" x2="195.208" y2="130.937" gradientUnits="userSpaceOnUse">
<stop stop-color="#EE9B00"/>
<stop offset="0.61" stop-color="#F2B500"/>
<stop offset="1" stop-color="#F5C000"/>
</linearGradient>
<linearGradient id="paint6_linear_1775_608" x1="77.5673" y1="130.937" x2="195.208" y2="130.937" gradientUnits="userSpaceOnUse">
<stop stop-color="#F8DF00"/>
<stop offset="0.14" stop-color="#FCE800"/>
<stop offset="0.3" stop-color="#FFEF00"/>
<stop offset="1" stop-color="#F3A700"/>
</linearGradient>
<clipPath id="clip0_1775_608">
<rect width="256" height="256" fill="white"/>
</clipPath>
</defs>
</svg>
