<svg width="256" height="256" viewBox="0 0 256 256" fill="none" xmlns="http://www.w3.org/2000/svg">
<path d="M128 0.999512C57.8326 0.999512 1 58.1496 1 128C1 198.167 58.1501 255 128 255C197.85 255 255 197.85 255 128C255 57.8321 198.168 0.999512 128 0.999512Z" fill="#004071"/>
<path d="M127.999 148.955C112.759 148.955 100.694 160.702 100.694 174.99C100.694 180.07 102.282 184.832 104.822 188.96C112.124 191.817 120.062 193.405 127.999 193.405C136.254 193.405 144.192 191.817 151.177 188.96C153.717 184.832 155.304 180.07 155.304 174.99C155.304 160.702 143.239 148.955 127.999 148.955Z" fill="#004071"/>
<path d="M151.812 129.588C159.75 142.923 169.91 154.353 181.975 163.878C176.895 171.815 169.91 178.483 161.972 183.563C162.29 181.975 162.29 180.07 162.29 178.483C162.29 160.703 146.732 146.098 127.682 146.098C108.632 146.098 93.0747 160.703 93.0747 178.483C93.0747 180.388 93.0747 181.975 93.3922 183.563C85.4547 178.483 78.4697 171.815 73.3896 163.878C85.4547 154.035 95.6147 142.923 103.552 129.588H151.812ZM150.542 127.048C140.382 109.268 134.35 88.3125 134.032 63.5475C132.127 63.5475 130.222 63.23 128 63.23C126.095 63.23 124.19 63.23 121.967 63.5475C121.65 87.995 115.617 109.268 105.457 127.048H150.542Z" fill="#EC1C24"/>
<path d="M130.223 182.927C129.906 184.197 128.953 185.15 128.001 186.102H127.683H127.366C126.413 185.467 125.778 184.197 125.143 183.245V182.927C125.778 182.61 126.413 181.657 126.731 180.705L127.366 180.07L128.001 180.705C128.953 181.657 129.588 182.61 130.223 182.927ZM132.446 168.322C132.446 165.782 128.953 157.527 128.001 157.527H127.683C126.413 158.48 123.238 165.782 123.238 168.322C123.238 170.227 127.048 175.625 127.048 178.482L127.683 179.117L128.318 178.482C128.318 175.625 132.446 170.227 132.446 168.322ZM125.778 178.165C123.873 173.085 120.698 170.545 117.206 170.545C114.666 170.545 112.443 172.45 112.443 175.307C112.443 177.847 114.666 179.752 117.206 179.752C117.841 179.752 118.793 179.435 119.111 178.8C119.746 178.165 119.746 177.212 119.428 177.212H119.111H118.793C117.841 177.212 117.206 176.577 117.206 175.625C117.206 174.672 117.841 174.037 118.793 174.037C120.381 174.037 122.921 175.625 124.508 178.482L125.143 178.8L125.778 178.165ZM138.478 170.545C134.986 170.545 131.811 173.085 129.906 178.165V178.482L130.541 179.117L131.176 178.8C132.446 175.625 135.303 174.355 136.891 174.355C137.843 174.355 138.478 174.99 138.478 175.942C138.478 176.895 137.843 177.53 136.891 177.53H136.573L135.938 177.212C135.938 177.212 135.621 178.165 136.256 178.8C136.573 179.117 137.526 179.752 138.161 179.752C140.701 179.752 142.923 177.847 142.923 175.307C143.241 172.45 141.018 170.545 138.478 170.545Z" fill="#C4A361"/>
<path d="M128.001 9.88965C96.5682 9.88965 66.7232 22.2722 44.4982 44.4972C22.2731 66.7222 9.89062 96.5673 9.89062 128C9.89062 159.432 22.2731 189.277 44.4982 211.502C66.7232 233.727 96.5682 246.11 128.001 246.11C159.433 246.11 189.278 233.727 211.503 211.502C233.728 189.277 246.111 159.432 246.111 128C246.111 96.5673 233.728 66.7222 211.503 44.4972C188.961 22.2722 159.433 9.88965 128.001 9.88965ZM128.001 14.6522C190.548 14.6522 241.348 65.4522 241.348 128C241.348 190.547 190.548 241.347 128.001 241.347C65.4532 241.347 14.6531 190.547 14.6531 128C14.6531 65.4522 65.1357 14.6522 128.001 14.6522ZM159.751 58.4672C157.846 57.5147 155.941 56.8797 154.036 56.2447L165.148 29.2572C167.053 29.8922 168.958 30.8447 170.863 31.4797L159.751 58.4672ZM127.366 27.6697V37.1947H138.161C140.701 37.1947 142.923 34.9722 142.923 32.4322C142.923 29.8922 140.701 27.6697 138.161 27.6697H127.366ZM127.366 51.4822C125.461 51.4822 123.556 51.4822 121.333 51.7997V22.5897H138.161C143.558 22.5897 148.956 27.0347 148.956 32.4322C148.956 36.8772 145.463 41.0047 141.018 41.9572L148.638 54.0222C146.098 53.3872 143.558 52.7522 141.336 52.4347L134.986 42.2747H127.683L127.366 51.4822ZM57.1982 56.2447L64.1832 62.5947L72.1207 53.7047C74.0257 51.7997 73.7082 48.6247 71.8032 47.0372C69.8982 45.1322 66.7232 45.4497 65.1357 47.3547L57.1982 56.2447ZM74.6607 72.4372C73.3907 73.7072 71.8032 75.2947 70.5332 76.5647L49.2607 57.1972L61.3257 43.8622C65.1357 39.7347 71.8032 39.4172 75.6132 42.9097C79.4232 46.4022 79.7407 53.0697 75.9307 57.1972L67.6757 66.4047L74.6607 72.4372ZM185.151 47.9897C189.596 47.0372 197.533 54.9747 199.121 60.3722C200.391 59.4197 203.248 57.1972 203.248 57.1972C199.756 47.6722 186.421 37.8297 179.753 43.8622C175.943 47.3547 178.166 53.0697 181.341 56.5622L184.516 60.0547C187.691 63.5472 190.548 67.0397 188.008 69.2622C185.151 71.4847 177.213 65.7697 172.451 55.6097L168.323 58.7847C169.276 61.3247 171.498 65.1347 174.673 68.6272C178.166 72.4372 181.976 74.6597 185.468 75.2947C188.008 75.9297 190.866 75.2947 192.453 73.7072C196.898 69.5797 195.311 63.8647 188.326 56.5622L185.786 53.3872C182.928 50.2122 184.198 48.3072 185.151 47.9897ZM93.7107 46.4022C96.5682 45.1322 99.4258 44.1797 102.283 43.2272L94.0282 33.7022L93.7107 46.4022ZM95.6157 27.3522L117.841 51.7997C115.618 52.1172 113.396 52.4347 111.173 53.0697L106.093 47.3547C101.966 48.6247 97.5207 49.8947 93.7107 51.7997L93.3932 59.4197C91.1707 60.3722 89.2657 61.6422 87.3607 62.9122L89.5832 29.8922C91.4882 28.9397 93.3932 27.9872 95.6157 27.3522ZM137.208 64.1822C168.641 68.6272 193.088 95.6148 193.088 128.317C193.088 138.795 190.548 148.637 186.103 157.527C157.211 135.937 140.066 105.775 137.208 64.1822ZM161.973 183.562C162.291 181.975 162.291 180.07 162.291 178.165C162.291 160.385 146.733 145.78 127.683 145.78C108.633 145.78 93.0757 160.385 93.0757 178.165C93.0757 180.07 93.0757 181.657 93.3932 183.562C85.4557 178.482 78.4707 171.815 73.3907 163.877C85.4557 154.035 95.6157 142.922 103.553 129.587H151.496C159.433 142.922 169.593 154.352 181.658 163.877C176.896 171.815 170.228 178.482 161.973 183.562ZM151.178 188.96C143.876 191.817 135.938 193.405 128.001 193.405C119.746 193.405 111.808 191.817 104.823 188.96C102.283 184.832 100.696 180.07 100.696 174.99C100.696 160.702 113.078 148.955 128.001 148.955C142.923 148.955 155.306 160.702 155.306 174.99C155.306 180.387 154.036 185.15 151.178 188.96ZM62.9132 128.317C62.9132 95.6148 87.0432 68.6272 118.793 64.1822C115.936 105.775 98.4732 136.255 69.8982 157.527C65.4532 148.637 62.9132 138.795 62.9132 128.317ZM128.001 63.5472C129.906 63.5472 131.811 63.5472 134.033 63.8647C134.351 88.6298 140.383 109.585 150.543 127.365H105.458C115.618 109.585 121.651 88.6298 121.968 63.8647C123.873 63.5472 125.778 63.5472 128.001 63.5472ZM128.001 58.7847C89.5832 58.7847 58.4682 89.8998 58.4682 128.317C58.4682 166.735 89.5832 197.85 128.001 197.85C166.418 197.85 197.533 166.735 197.533 128.317C197.533 89.8998 166.418 58.7847 128.001 58.7847ZM71.1682 195.31L67.3582 197.215L69.8982 199.437L71.1682 195.31ZM69.8982 205.787L68.6282 204.835L69.8982 201.025L66.0882 197.85L62.2782 199.437L61.0082 198.167L71.8032 193.087L73.0732 194.357L69.8982 205.787ZM73.3907 208.327L79.4232 199.12L80.6932 200.072L74.6607 208.962L73.3907 208.327ZM85.4557 202.93L87.3607 213.407L91.1707 206.105L92.4407 206.74L87.3607 216.265L86.0907 215.63L84.1857 205.152L80.3757 212.455L78.7882 211.82L83.8682 201.977L85.4557 202.93ZM104.188 210.867L103.553 212.455L100.061 211.185L96.8857 220.075L95.2982 219.44L98.4732 210.55L94.9807 209.28L95.6157 207.692L104.188 210.867ZM128.318 219.122H133.398V221.98C133.398 223.885 131.176 225.155 128.318 225.155C125.461 225.155 122.286 222.932 122.603 219.44C122.603 216.265 125.143 213.725 128.636 214.042C131.176 214.042 132.446 215.312 133.081 215.947L131.811 217.217C131.176 216.582 130.541 215.63 128.636 215.63C125.778 215.63 124.191 217.535 123.873 219.757C123.873 221.98 125.461 223.885 128.318 223.885C130.223 223.885 131.493 222.932 131.493 222.297V221.027H128.001L128.318 219.122ZM145.146 212.455L145.463 214.042L138.161 214.995L138.478 217.852L142.288 217.217L142.606 218.805L138.796 219.44L139.113 222.615L146.733 221.662L147.051 223.25L137.843 224.52L136.256 213.725L145.146 212.455ZM150.861 212.455L151.813 215.63L156.576 214.36C157.846 214.042 158.163 213.09 157.846 212.137C157.528 210.867 156.576 210.867 155.623 211.185L150.861 212.455ZM154.988 209.597C156.576 208.962 158.481 209.597 159.116 211.502C159.751 213.725 158.481 214.995 157.528 215.312L161.021 219.122L159.433 219.757L155.941 215.947L152.131 217.217L153.401 221.662L151.813 221.98L148.638 211.502L154.988 209.597ZM179.118 199.437L180.071 203.565L182.928 201.66L179.118 199.437ZM188.961 203.247L187.691 204.2L184.198 202.295L180.388 205.152L181.023 208.962L179.753 209.915L177.213 198.485L178.483 197.532L188.961 203.247ZM185.468 191.817L192.771 199.755L191.501 200.707L184.198 193.087L185.468 191.817ZM189.596 187.69L200.073 188.325L194.041 182.927L194.993 181.657L202.931 188.96L201.978 190.23L191.501 189.595L197.851 195.31L196.898 196.262L188.643 188.96L189.596 187.69ZM171.181 202.295L176.261 211.82L174.991 212.455L171.181 205.787L170.863 213.407L164.513 209.28L167.688 216.265L166.418 216.9L161.656 207.057L162.926 206.422L169.276 210.867L169.593 203.247L171.181 202.295ZM65.7707 188.325L64.5007 188.96C63.8657 186.42 61.0082 183.562 59.4207 183.562H59.1032L58.1507 184.197C57.8332 184.515 57.8332 185.467 58.7857 186.42L59.7382 187.69C61.3257 189.595 61.9607 191.5 61.6432 192.77L60.3732 194.357L58.7857 194.675L57.5157 194.357C56.2457 194.04 54.9757 192.77 53.7057 191.182C52.4357 189.595 51.8007 188.007 51.4832 187.055L52.7532 186.102C54.0232 190.23 56.5632 192.77 58.1507 192.77L59.7382 193.087L60.3732 192.135C60.6907 191.182 59.7382 189.912 58.7857 188.642L57.5157 187.055C56.5632 186.102 56.2457 184.832 56.5632 183.88L57.5157 182.292L59.1032 181.657C61.6432 181.657 64.8182 184.832 65.7707 188.325ZM109.903 218.487L110.221 216.9L114.031 217.852L113.713 219.44L109.903 218.487Z" fill="white"/>
</svg>
