<svg width="256" height="256" viewBox="0 0 256 256" fill="none" xmlns="http://www.w3.org/2000/svg">
<path d="M256 127.998C256 161.946 242.514 194.504 218.509 218.509C194.504 242.514 161.946 256 127.998 256C94.0514 255.999 61.495 242.513 37.491 218.509C13.487 194.505 0.00116778 161.95 0 128.002C-2.00871e-08 94.0551 13.4853 61.4975 37.4895 37.4926C61.4936 13.4876 94.0505 0.00116783 127.998 0C161.946 -2.00871e-08 194.503 13.4853 218.508 37.4895C242.512 61.4935 255.999 94.0505 256 127.998Z" fill="black"/>
<mask id="mask0_1799_290" style="mask-type:luminance" maskUnits="userSpaceOnUse" x="34" y="30" width="187" height="198">
<path d="M34 30H221V227.724H34V30Z" fill="white"/>
</mask>
<g mask="url(#mask0_1799_290)">
<path d="M90.6138 150.916C95.3057 150.916 99.1092 147.149 99.1092 142.503C99.1092 137.856 95.3057 134.089 90.6138 134.089C85.9221 134.089 82.1187 137.856 82.1187 142.503C82.1187 147.149 85.9221 150.916 90.6138 150.916ZM164.216 150.916C168.935 150.916 172.761 147.127 172.761 142.453C172.761 137.778 168.935 133.989 164.216 133.989C159.496 133.989 155.67 137.778 155.67 142.453C155.67 147.127 159.496 150.916 164.216 150.916Z" fill="white"/>
<path fill-rule="evenodd" clip-rule="evenodd" d="M42.1455 144.154L64.2181 159.403C65.8192 160.505 65.6762 160.805 63.7881 160.304L46.6967 155.872C46.6027 155.833 46.4969 155.831 46.402 155.869C46.3072 155.906 46.2311 155.98 46.1908 156.073C46.1506 156.166 46.1495 156.271 46.1874 156.365C46.2253 156.459 46.2994 156.534 46.3931 156.574L70.4124 172.098C70.477 172.145 70.5235 172.213 70.5442 172.29C70.5649 172.367 70.5585 172.448 70.5261 172.521C70.4935 172.594 70.4371 172.654 70.3661 172.69C70.2948 172.727 70.2131 172.739 70.1343 172.724L49.2248 167.391C49.1248 167.374 49.022 167.391 48.9326 167.438C48.8435 167.486 48.7728 167.562 48.7319 167.654C48.6909 167.747 48.6824 167.85 48.7076 167.947C48.7329 168.045 48.7904 168.131 48.8709 168.192L72.7132 183.616C72.7675 183.644 72.808 183.69 72.8276 183.745C72.8473 183.802 72.8448 183.864 72.8207 183.919C72.7953 183.977 72.7515 184.025 72.696 184.055C72.6394 184.087 72.5739 184.1 72.511 184.092L53.7001 181.162C51.9304 180.878 51.7784 181.246 53.2451 182.264C71.5931 194.978 89.9489 207.682 108.312 220.374C124.393 231.466 134.506 229.162 150.384 217.895C167.611 205.644 184.948 193.55 202.392 181.613C202.442 181.593 202.482 181.556 202.508 181.51C202.533 181.463 202.542 181.409 202.532 181.356C202.523 181.311 202.501 181.27 202.469 181.238C202.425 181.194 202.366 181.17 202.305 181.17C202.274 181.17 202.244 181.176 202.215 181.187L182.873 184.242C181.154 184.526 181.02 184.2 182.469 183.265L205.654 168.442C205.739 168.392 205.803 168.312 205.832 168.219C205.862 168.125 205.856 168.024 205.816 167.934C205.775 167.845 205.703 167.773 205.613 167.733C205.522 167.693 205.42 167.687 205.325 167.716L185.073 172.899C184.969 172.946 184.851 172.949 184.744 172.91C184.638 172.87 184.552 172.79 184.504 172.686C184.481 172.636 184.468 172.581 184.466 172.525C184.465 172.469 184.474 172.413 184.494 172.361C184.534 172.255 184.615 172.17 184.719 172.123L208.865 156.323C208.926 156.279 208.969 156.214 208.987 156.141C209.005 156.068 208.997 155.99 208.964 155.923C208.931 155.854 208.876 155.8 208.807 155.768C208.738 155.736 208.661 155.729 208.587 155.747L190.282 160.98C190.167 161.037 190.036 161.046 189.915 161.006C189.825 160.977 189.746 160.921 189.688 160.847C189.63 160.773 189.595 160.683 189.587 160.589C189.583 160.526 189.591 160.464 189.611 160.404C189.631 160.345 189.662 160.29 189.704 160.243C189.745 160.196 189.795 160.157 189.852 160.129L210.685 145.506C210.755 145.462 210.812 145.398 210.848 145.324C210.884 145.249 210.899 145.166 210.891 145.083C210.883 145 210.852 144.922 210.801 144.855C210.751 144.789 210.683 144.739 210.606 144.709C210.502 144.668 210.386 144.667 210.281 144.705L198.372 148.411C198.234 148.448 198.087 148.438 197.955 148.383C197.824 148.327 197.715 148.228 197.647 148.102C197.58 147.978 197.557 147.833 197.583 147.694C197.61 147.553 197.683 147.427 197.791 147.334L214.655 133.888C215.295 133.387 215.22 133.012 214.427 132.761C213.989 132.628 213.534 132.703 213.062 132.987C209.64 134.99 206.514 136.55 203.682 137.669C202.35 138.186 202.131 137.894 203.025 136.793L220.976 114.608C221.018 114.545 221.036 114.47 221.029 114.396C221.021 114.321 220.987 114.251 220.934 114.199C220.88 114.146 220.81 114.113 220.735 114.105C220.66 114.097 220.584 114.116 220.521 114.157L220.061 114.535C203.631 128.074 186.009 142.594 175.162 160.58C167.038 174.084 160.616 188.323 155.896 203.297C155.858 203.432 155.774 203.55 155.658 203.63C155.541 203.709 155.401 203.746 155.26 203.734C155.12 203.723 154.987 203.663 154.886 203.565C154.785 203.467 154.722 203.336 154.708 203.197C154.13 199.163 153.389 194.729 152.61 190.068C149.468 171.265 145.71 148.781 149.6 134.113C153.764 118.355 164.324 108.381 181.281 104.191C200.597 99.4089 212.683 89.3681 216.071 69.0612C218.043 57.2677 214.958 48.0533 201.533 47.3271C181.382 46.2507 165.2 67.0331 160.068 85.0613C156.528 97.5309 155.711 97.2555 157.615 84.2351L160.953 61.4493C160.963 61.3385 160.933 61.2277 160.869 61.1367C160.805 61.0452 160.711 60.9789 160.603 60.9494C160.495 60.9197 160.38 60.9284 160.277 60.9738C160.175 61.0192 160.092 61.0988 160.043 61.1989L147.35 89.2429C147.337 89.2907 147.314 89.3354 147.283 89.3744C147.253 89.4135 147.215 89.446 147.171 89.4703C147.083 89.5197 146.98 89.5325 146.882 89.506C146.786 89.4795 146.703 89.4158 146.653 89.3287C146.628 89.2858 146.612 89.2384 146.606 89.1892C146.6 89.1401 146.604 89.0903 146.617 89.0426L151.421 59.4211C151.428 59.3154 151.399 59.2103 151.339 59.1232C151.279 59.0359 151.191 58.9715 151.09 58.9408C150.992 58.9104 150.886 58.9171 150.793 58.9595C150.7 59.0018 150.627 59.0771 150.587 59.1707L138.122 89.6435C138.077 89.7563 137.992 89.8483 137.883 89.9014C137.773 89.9545 137.647 89.9652 137.53 89.9316C137.409 89.8976 137.304 89.8227 137.233 89.7198C137.161 89.6174 137.126 89.4931 137.136 89.3681C139.192 73.8938 141.341 58.5698 143.583 43.396C143.65 42.962 143.574 42.6365 143.356 42.4195C142.985 42.0522 142.74 42.119 142.622 42.6198L134.43 73.9189C134.394 74.0269 134.323 74.1199 134.229 74.1839C134.135 74.2482 134.023 74.2802 133.91 74.2749C133.8 74.2697 133.695 74.2262 133.613 74.1517C133.533 74.0777 133.482 73.9773 133.47 73.8688L128.059 30.4006C128.059 30.2944 128.016 30.1925 127.941 30.1174C127.864 30.0422 127.762 30 127.654 30C127.547 30 127.445 30.0422 127.368 30.1174C127.331 30.1544 127.301 30.1985 127.281 30.2471C127.26 30.2957 127.25 30.3479 127.25 30.4006L121.435 73.4682C121.413 73.5993 121.347 73.719 121.247 73.8066C121.147 73.8948 121.02 73.9461 120.886 73.9519C120.753 73.9578 120.621 73.9179 120.514 73.8389C120.407 73.7603 120.33 73.647 120.297 73.5182C117.687 62.8941 115.151 52.2521 112.686 41.5932C112.636 41.4095 112.552 41.2593 112.434 41.1424C112.13 40.8754 111.844 40.8086 111.574 40.9421C111.561 40.945 111.548 40.9506 111.537 40.9586C111.525 40.9666 111.516 40.9767 111.509 40.9885C111.499 41.0044 111.495 41.0224 111.494 41.0409C111.494 41.0446 111.495 41.048 111.495 41.0518C111.496 41.0571 111.497 41.0623 111.498 41.0673L117.718 89.6185C117.736 89.6892 117.74 89.7629 117.73 89.8352C117.719 89.9075 117.695 89.977 117.657 90.0396C117.581 90.1668 117.457 90.2585 117.313 90.2946C117.169 90.3311 117.017 90.3095 116.888 90.2344C116.825 90.1974 116.77 90.1483 116.726 90.0899C116.681 90.0315 116.649 89.9649 116.631 89.8939L105.102 59.997C105.05 59.8916 104.964 59.8072 104.858 59.7584C104.751 59.7094 104.63 59.6989 104.516 59.7285C104.403 59.7581 104.303 59.8264 104.234 59.921C104.166 60.0157 104.133 60.1311 104.141 60.2474L108.262 89.0676C108.27 89.1839 108.237 89.2993 108.168 89.394C108.1 89.489 108 89.5569 107.886 89.5866C107.772 89.6162 107.652 89.6056 107.545 89.5566C107.438 89.508 107.352 89.4236 107.301 89.318L95.0133 60.6731C94.9983 60.6219 94.9732 60.5743 94.9397 60.5328C94.9062 60.4914 94.8648 60.457 94.818 60.4316C94.723 60.38 94.6116 60.3678 94.5078 60.3977C94.4042 60.4273 94.3165 60.4969 94.2639 60.5911C94.2381 60.6374 94.2217 60.6885 94.2158 60.7413C94.2099 60.7941 94.2145 60.8475 94.2294 60.8984L98.022 89.293C98.0436 89.3933 98.0451 89.497 98.0263 89.5979C98.0075 89.6988 97.9688 89.7949 97.9126 89.8807C97.7979 90.0549 97.6192 90.1767 97.4153 90.2194C97.211 90.2626 96.9979 90.2236 96.8219 90.1109C96.7353 90.0555 96.6605 89.9835 96.6017 89.8989C96.543 89.8144 96.5016 89.7191 96.4798 89.6185C92.5861 75.8135 85.5574 64.2871 75.3933 55.0392C60.1475 41.1928 32.6389 46.1503 40.0216 71.8907C44.1683 86.2883 52.4359 98.0067 66.8476 102.389C68.6501 102.932 70.4434 103.417 72.2131 103.895C78.7596 105.664 84.9843 107.345 90.1588 111.603C106.113 124.724 108.211 139.972 105.835 161.031C104.245 175.014 102.491 188.979 100.576 202.921C100.441 203.956 100.171 203.99 99.7668 203.021C98.9225 201.01 98.0825 198.996 97.2467 196.981L97.2444 196.975L97.2421 196.97C88.8176 176.697 80.2044 155.971 64.0664 140.398C54.6875 131.328 44.9541 122.632 34.8893 114.332C34.7037 114.165 34.5351 114.107 34.3837 114.157C34.2654 114.207 34.1812 114.274 34.1306 114.357C34.0801 114.457 34.1895 114.674 34.4592 115.008L51.2476 135.966C52.1746 137.118 51.9218 137.477 50.4893 137.043C47.5233 136.108 44.6861 134.805 42.0444 133.162C41.5216 132.845 41.0669 132.786 40.6791 132.987C40.123 133.287 40.0977 133.629 40.6032 134.013L57.2396 146.983C58.5377 148.002 58.3691 148.377 56.7341 148.11C51.8968 147.326 47.2781 145.79 42.8788 143.503C42.7102 143.42 42.4824 143.436 42.196 143.553C41.8422 143.737 41.8255 143.937 42.1455 144.154ZM50.0572 53.0114L60.3221 61.2994C60.4186 61.3748 60.487 61.4798 60.5169 61.5978C60.5468 61.7157 60.5364 61.8403 60.4873 61.9515C60.4379 62.0634 60.3528 62.1558 60.2454 62.214C60.1376 62.2727 60.0137 62.2944 59.8924 62.2759L54.2795 61.4496C52.3917 61.1658 52.2148 61.5831 53.7484 62.7016L58.9315 66.5075C59.6902 67.0584 59.7491 67.6844 59.1088 68.3855C43.9638 85.0116 66.5167 96.78 80.7261 95.8285C81.1477 95.7987 81.5572 95.6748 81.9248 95.4659C82.29 95.2583 82.6034 94.9704 82.8414 94.6238C83.0773 94.2799 83.2307 93.8861 83.2895 93.4731C83.348 93.0616 83.31 92.6422 83.1786 92.2479C77.6669 75.3965 69.9806 57.3682 51.1445 51.0583C50.8882 50.9629 50.6064 50.9621 50.3496 51.056C50.094 51.149 49.8802 51.3311 49.7473 51.5689C49.6154 51.8056 49.574 52.0823 49.6309 52.3474C49.6884 52.613 49.8398 52.8489 50.0572 53.0114ZM195.21 62.6518L200.191 61.55C200.419 61.5028 200.656 61.535 200.863 61.6416C201.07 61.7475 201.233 61.9216 201.326 62.1343C201.418 62.3464 201.434 62.5836 201.37 62.8057C201.305 63.0284 201.165 63.2217 200.975 63.3529L196.651 66.2073C195.673 66.8584 195.581 67.6179 196.373 68.4859C211.745 85.6879 188.838 95.6285 175.084 95.6535C172.606 95.6702 171.705 94.4934 172.379 92.123C177.107 75.7974 185.653 56.9178 204.135 51.0836C204.397 51.0031 204.68 51.015 204.934 51.1176C205.188 51.2195 205.399 51.4062 205.531 51.646C205.662 51.8846 205.705 52.1615 205.654 52.4288C205.602 52.6969 205.458 52.9385 205.247 53.1118L194.679 61.5751C193.33 62.6768 193.507 63.0357 195.21 62.6518ZM145.757 198.039C145.571 196.553 144.821 195.443 143.507 194.708C132.517 188.465 121.645 188.641 110.891 195.234C110.506 195.468 110.178 195.785 109.931 196.163C109.687 196.54 109.531 196.967 109.475 197.413C105.582 227.36 149.221 226.483 145.757 198.039Z" fill="white"/>
</g>
</svg>
