<svg width="256" height="256" viewBox="0 0 256 256" fill="none" xmlns="http://www.w3.org/2000/svg">
<path d="M127 253C196.036 253 252 197.036 252 128C252 58.9644 196.036 3 127 3C57.9644 3 2 58.9644 2 128C2 197.036 57.9644 253 127 253Z" fill="#040C15"/>
<path d="M127.029 7.70633C103.231 7.70131 79.9644 14.7538 60.1743 27.9719C40.3842 41.1899 24.9583 59.98 15.8476 81.9651C6.73687 103.951 4.35052 128.144 8.99029 151.486C13.6301 174.828 25.0876 196.27 41.9139 213.099C58.7399 229.929 80.1795 241.391 103.52 246.035C126.861 250.68 151.055 248.299 173.042 239.193C195.029 230.087 213.823 214.665 227.045 194.878C240.267 175.09 247.324 151.826 247.324 128.028V128.027C247.291 96.1308 234.607 65.55 212.055 42.9933C189.503 20.4367 158.925 7.7464 127.029 7.70633ZM127.028 252.5C102.403 252.505 78.3286 245.207 57.8515 231.529C37.3743 217.851 21.4133 198.407 11.9872 175.657C2.56124 152.907 0.093678 127.873 4.89663 103.721C9.69961 79.5684 21.5573 57.3825 38.9701 39.9698C56.383 22.5571 78.5684 10.6993 102.721 5.89639C126.873 1.09343 151.908 3.561 174.657 12.987C197.407 22.413 216.851 38.374 230.529 58.8514C244.207 79.3286 251.505 103.402 251.5 128.027C251.46 161.027 238.333 192.664 214.999 215.999C191.664 239.333 160.027 252.46 127.028 252.5Z" fill="#01A0CA" stroke="url(#paint0_linear_1332_1764)"/>
<path fill-rule="evenodd" clip-rule="evenodd" d="M38.9483 168.37C38.8338 168.441 38.703 168.48 38.5687 168.485C31.182 168.008 26.5589 159.917 30.3529 153.938L113.818 22.3828C114.476 21.4241 115.357 20.64 116.386 20.0983C117.415 19.5565 118.56 19.2734 119.723 19.2734C120.885 19.2734 122.03 19.5565 123.059 20.0983C124.088 20.64 124.969 21.4241 125.627 22.3828L149.847 60.422C151.717 63.302 152.712 66.6619 152.712 70.0954C152.712 73.5289 151.717 76.8888 149.847 79.7683L135.2 102.858C137.737 103.708 140.179 104.82 142.486 106.175C146.061 108.239 149.201 110.978 151.732 114.24C152.11 114.723 152.488 115.294 152.837 115.821L153.039 116.125L153.415 116.677C153.906 117.382 154.443 118.054 155.023 118.687C155.601 119.34 156.229 119.969 156.883 120.597L157.435 121.124L158.39 122.155L167.209 108.26C167.927 107.219 168.888 106.367 170.009 105.779C171.129 105.191 172.376 104.884 173.641 104.884C174.906 104.884 176.153 105.191 177.274 105.779C178.394 106.367 179.355 107.219 180.073 108.26L210.223 155.672C211.143 157.118 211.541 158.835 211.354 160.538C211.167 162.242 210.405 163.831 209.193 165.043C213.071 168.47 216.07 172.778 217.936 177.605C218.516 178.933 218.938 180.325 219.193 181.751C219.413 183.319 219.327 184.914 218.942 186.45C218.098 189.306 216.418 191.844 214.118 193.736C209.977 197.175 205.182 199.739 200.023 201.274C195.075 202.844 189.968 203.864 184.797 204.313C182.937 204.565 181.229 204.565 179.546 204.565H177.033C174.274 204.486 171.545 203.978 168.942 203.057C164.056 201.032 159.533 198.223 155.551 194.741C151.645 191.472 147.928 187.982 144.42 184.289C142.059 181.927 139.747 179.415 137.536 176.902L134.195 173.234C133.478 172.438 132.679 171.722 131.808 171.098C130.999 170.534 130.16 170.014 129.296 169.54L128.793 169.239C126.157 167.935 123.913 165.959 122.285 163.51C120.805 160.795 120.342 157.642 120.979 154.616C121.441 151.897 122.287 149.258 123.491 146.777C123.881 146.049 124.362 145.373 124.924 144.767C125.475 144.221 126.082 143.733 126.732 143.31C127.104 143.07 127.442 142.783 127.738 142.456C127.993 142.093 128.212 141.705 128.391 141.3C128.613 140.847 128.799 140.376 128.944 139.893C129.166 139.157 129.435 138.435 129.748 137.732C130.47 136.424 131.433 135.265 132.587 134.315C134.672 132.625 137.002 131.262 139.496 130.27C141.884 129.296 144.345 128.515 146.858 127.933C149.333 127.342 151.855 126.964 154.395 126.803H155.953L155.4 126.2C155.009 125.784 154.546 125.344 154.059 124.881L154.018 124.843L153.415 124.29C152.611 123.52 151.908 122.791 151.305 122.104C150.598 121.303 149.935 120.465 149.32 119.592L148.868 118.888C148.491 118.335 148.164 117.858 147.762 117.331C145.619 114.61 142.976 112.324 139.974 110.597C136.803 108.803 133.428 107.394 129.924 106.401C126.394 105.229 122.804 104.248 119.17 103.461C115.415 102.633 111.583 102.196 107.738 102.155C104.345 102.136 100.964 102.575 97.6878 103.461C90.7173 105.582 84.2944 109.2 78.8692 114.064C76.0084 116.421 73.2819 118.938 70.7036 121.602L68.5427 123.838C66.6586 125.722 64.724 127.707 62.9653 129.742C58.0356 135.391 53.7075 141.538 50.0508 148.084C46.2821 154.566 42.6893 161.349 39.222 167.933V168.083C39.1571 168.201 39.0627 168.299 38.9483 168.37ZM129.094 146.702C128.332 147.209 127.73 147.924 127.36 148.762C127.249 149.074 127.156 149.393 127.084 149.717C127.745 149.05 128.45 148.429 129.195 147.857C131.141 146.406 133.458 145.535 135.878 145.345H138.39H138.742C139.577 145.218 140.351 144.831 140.953 144.239C141.692 143.46 142.365 142.619 142.963 141.727C143.567 140.847 144.195 140.019 144.898 139.215C146.438 137.459 148.297 136.009 150.375 134.943C151.403 134.437 152.46 133.992 153.541 133.612L154.747 133.285C155.441 133.044 156.156 132.868 156.883 132.757C157.917 132.634 158.957 132.575 159.998 132.582C159.239 131.226 158.4 129.918 157.486 128.662C156.497 128.62 155.506 128.645 154.521 128.737C152.102 129.062 149.715 129.592 147.385 130.32C142.768 131.532 138.477 133.754 134.823 136.827C134.07 137.541 133.464 138.394 133.039 139.34C132.846 139.792 132.702 140.264 132.612 140.747C132.445 141.465 132.226 142.171 131.959 142.858C131.672 143.593 131.301 144.293 130.853 144.943C130.358 145.614 129.765 146.207 129.094 146.702ZM210.877 190.319C212.445 189.001 213.598 187.255 214.193 185.294C214.416 184.39 214.476 183.454 214.369 182.53C214.176 181.489 213.856 180.477 213.414 179.515C211.8 175.194 209.09 171.367 205.55 168.41C201.825 165.603 197.723 163.336 193.364 161.676L193.012 161.525C190.902 160.596 188.54 159.516 186.028 158.234C184.219 157.279 182.611 156.325 181.003 155.37L179.37 154.415L172.913 150.521L169.671 148.511L169.119 148.159C168.157 147.561 167.226 146.916 166.33 146.225L165.978 145.948C165.865 145.855 165.778 145.733 165.727 145.596L165.551 145.068C164.43 141.613 163.035 138.253 161.38 135.019L161.154 134.566H160.551C159.897 134.698 159.252 134.866 158.616 135.069L157.511 135.395C156.831 135.521 156.16 135.689 155.501 135.898L154.471 136.199C153.568 136.588 152.688 137.024 151.832 137.506C150.07 138.421 148.494 139.657 147.184 141.149C146.712 141.681 146.285 142.244 145.844 142.826C145.723 142.986 145.6 143.148 145.476 143.31C144.723 144.359 143.882 145.342 142.963 146.249C141.976 147.265 140.691 147.943 139.295 148.184C138.995 148.231 138.69 148.231 138.39 148.184H135.878C134.046 148.397 132.307 149.109 130.853 150.245C129.246 151.477 127.832 152.942 126.657 154.591C126.322 154.943 126.02 155.294 125.753 155.646C125.398 157.508 125.645 159.435 126.456 161.149C127.66 162.852 129.289 164.212 131.18 165.093L131.707 165.395C131.901 165.51 132.096 165.624 132.292 165.739C133.035 166.173 133.791 166.617 134.547 167.154C135.719 167.97 136.79 168.923 137.737 169.993C138.514 170.804 139.28 171.648 140.042 172.489C140.413 172.898 140.784 173.308 141.154 173.711L141.64 174.245C143.749 176.563 145.764 178.779 147.888 180.972C151.27 184.532 154.862 187.888 158.641 191.023C162.21 194.144 166.245 196.688 170.601 198.56C172.735 199.306 174.973 199.714 177.234 199.766H179.571C181.078 199.766 182.711 199.691 184.395 199.54C189.198 199.119 193.941 198.176 198.54 196.726C203.039 195.436 207.234 193.257 210.877 190.319ZM95.4774 155.922C95.3149 155.919 95.1569 155.867 95.0252 155.772L94.5726 155.42C88.543 150.923 82.8142 146.4 77.5131 142.179C77.422 142.102 77.3497 142.006 77.3019 141.897C77.2537 141.788 77.2314 141.67 77.2363 141.551L78.92 121.275C78.9379 121.093 79.0223 120.923 79.1562 120.798C79.2905 120.674 79.4655 120.602 79.6485 120.596L116.758 123.637C116.943 123.65 117.115 123.732 117.241 123.867C117.367 124.002 117.437 124.18 117.437 124.366L117.185 139.114C117.184 139.224 117.159 139.334 117.112 139.433C117.064 139.533 116.995 139.622 116.909 139.692L115.678 140.647C113.096 142.78 110.533 144.75 107.941 146.742L106.557 147.807C103.703 150.007 100.695 152.25 97.7383 154.456L97.0852 154.943L95.9046 155.822C95.7769 155.902 95.6269 155.937 95.4774 155.922ZM78.92 141.224C82.7419 143.75 86.3392 146.191 89.8513 148.574C91.7185 149.841 93.5616 151.091 95.402 152.33C98.4168 149.817 101.432 147.481 104.497 145.119L104.81 144.878C107.764 142.601 110.631 140.393 113.567 138.184L113.994 137.858L114.472 126.325L80.9301 122.883L78.92 141.224ZM107.809 134.943C107.809 134.85 107.774 134.761 107.713 134.692C106.467 133.176 104.686 132.195 102.738 131.953C101.004 131.849 99.2729 132.195 97.7128 132.958C94.4677 133.979 91.4301 135.57 88.7434 137.657C88.7193 137.699 88.7064 137.747 88.7064 137.795C88.7064 137.843 88.7193 137.891 88.7434 137.933C88.7666 138.004 88.8153 138.064 88.8804 138.101C88.9456 138.138 89.0219 138.15 89.0952 138.134C92.2037 137.562 95.3564 137.268 98.5172 137.255C100.002 137.442 101.504 137.442 102.989 137.255C104.674 136.856 106.274 136.158 107.713 135.195C107.774 135.125 107.809 135.036 107.809 134.943ZM190.459 191.54C190.459 191.54 189.381 191.54 188.588 191.297C188.018 191.121 187.401 191.116 186.726 191.111C186.461 191.108 186.186 191.106 185.902 191.093C185.464 191.073 185.048 191.094 184.682 191.113C184.241 191.135 183.873 191.153 183.624 191.093C183.58 191.082 183.532 191.071 183.483 191.06C183.424 191.046 183.362 191.032 183.298 191.018C182.292 190.79 180.701 190.429 181.102 189.629C181.427 188.977 182.16 188.448 182.933 188.286C183.706 188.123 184.519 188.286 186.187 188.774C187.241 189.082 189.727 190.605 190.459 191.54ZM202.299 186.008C202.583 184.624 203.926 181.776 205.798 180.352C207.495 179.061 208.256 179.242 209.08 179.438C209.165 179.459 209.25 179.479 209.337 179.498C209.978 179.637 208.16 181.903 207.14 182.508C205.775 183.32 204.924 184.041 204.206 184.649C203.556 185.201 203.015 185.659 202.299 186.008Z" fill="url(#paint1_linear_1332_1764)"/>
<defs>
<linearGradient id="paint0_linear_1332_1764" x1="2" y1="115.5" x2="255.5" y2="158" gradientUnits="userSpaceOnUse">
<stop offset="1" stop-color="#01B93B"/>
</linearGradient>
<linearGradient id="paint1_linear_1332_1764" x1="-5.46246" y1="18.0346" x2="224.509" y2="248.006" gradientUnits="userSpaceOnUse">
<stop offset="0.02" stop-color="#00F856"/>
<stop offset="0.53" stop-color="#0091DE"/>
<stop offset="0.6" stop-color="#0097E2"/>
<stop offset="0.7" stop-color="#00A7EE"/>
<stop offset="0.8" stop-color="#01BFFF"/>
<stop offset="1" stop-color="#00B5BF"/>
</linearGradient>
</defs>
</svg>
