<svg width="256" height="256" viewBox="0 0 256 256" fill="none" xmlns="http://www.w3.org/2000/svg">
<circle cx="127" cy="128" r="125" fill="#6869E7"/>
<g clip-path="url(#clip0_741_46)">
<path d="M128.002 250.13C195.452 250.13 250.13 195.451 250.13 128.002C250.13 60.5533 195.452 5.875 128.002 5.875C60.5534 5.875 5.87512 60.5533 5.87512 128.002C5.87512 195.451 60.5534 250.13 128.002 250.13Z" fill="white"/>
<path d="M128.002 253C103.28 253.001 79.1114 245.671 58.5547 231.936C37.9979 218.201 21.9758 198.679 12.5146 175.838C3.0534 152.997 0.578027 127.863 5.40154 103.615C10.2251 79.3674 22.1308 57.0945 39.6131 39.6132C63.0882 16.3282 94.8326 3.29244 127.897 3.35963C160.962 3.42682 192.653 16.5915 216.033 39.9717C239.414 63.352 252.578 95.0432 252.645 128.108C252.713 161.172 239.677 192.917 216.392 216.392C204.811 228.035 191.036 237.265 175.864 243.549C160.692 249.832 144.424 253.045 128.002 253ZM128.002 5.86046C60.6594 5.87031 5.87019 60.6595 5.87019 128.003C5.87019 195.346 60.6594 250.14 128.002 250.14C195.346 250.14 250.14 195.346 250.14 128.003C250.14 60.6595 195.346 5.87031 128.002 5.87031V5.86046Z" fill="url(#paint0_linear_741_46)"/>
<path d="M79.5345 141.236C85.4423 145.145 90.8035 148.709 96.1451 152.441C99.1826 149.979 102.215 147.562 105.292 145.179C108.369 142.797 111.372 140.488 114.434 138.174L114.868 137.844L115.36 126.245L81.5776 122.833L79.5345 141.236ZM89.43 137.593C92.1359 135.496 95.1931 133.898 98.4589 132.872C100.093 132.34 101.821 131.483 103.618 131.853C105.562 132.145 107.323 133.165 108.541 134.708C108.594 134.783 108.616 134.876 108.605 134.967C108.593 135.058 108.547 135.141 108.477 135.2L108.438 135.225C106.991 136.196 105.382 136.9 103.687 137.302C102.25 137.731 100.733 137.13 99.1876 137.165C95.9989 137.189 92.8182 137.489 89.6811 138.061C89.6455 138.07 89.6084 138.073 89.5719 138.068C89.5354 138.063 89.5003 138.05 89.4686 138.031C89.4369 138.013 89.4094 137.988 89.3875 137.958C89.3657 137.928 89.35 137.895 89.3414 137.859C89.333 137.811 89.3367 137.761 89.3521 137.715C89.3676 137.668 89.3943 137.626 89.43 137.593Z" fill="#01BFFF"/>
<path d="M214.989 179.887C213.064 175.121 210.4 171.345 207.063 168.677C203.567 165.797 199.274 163.951 194.755 161.992L194.41 161.844C192.279 160.923 189.802 159.835 187.37 158.545C185.637 157.561 184.027 156.616 182.398 155.656L180.754 154.671L174.245 150.762L170.996 148.743L170.43 148.379C169.514 147.788 168.643 147.232 167.624 146.435L167.249 146.144C167.135 146.052 167.05 145.929 167.003 145.79L166.831 145.253C165.698 141.734 164.296 138.307 162.637 135.003C162.558 134.85 162.479 134.718 162.405 134.565C162.198 134.604 161.997 134.654 161.79 134.688C161.125 134.815 160.467 134.979 159.821 135.18C159.451 135.289 159.082 135.402 158.713 135.495C158.03 135.615 157.356 135.78 156.694 135.988C156.345 136.091 155.995 136.194 155.641 136.288C154.701 136.618 153.782 137.004 152.889 137.445C151.112 138.357 149.526 139.6 148.217 141.108C147.604 141.801 147.031 142.527 146.499 143.284C145.764 144.329 144.951 145.316 144.067 146.238C143.064 147.201 141.798 147.844 140.428 148.084C140.131 148.157 139.824 148.19 139.518 148.182H138.794H138.587L136.987 148.158C135.112 148.362 133.33 149.085 131.843 150.245C130.239 151.492 128.82 152.961 127.628 154.607C127.303 154.966 127.003 155.321 126.703 155.67C126.447 158.068 126.678 159.899 127.431 161.219C128.332 162.883 130.267 164.089 132.172 165.192L132.729 165.507C133.654 166.043 134.609 166.595 135.574 167.269C136.754 168.088 137.831 169.045 138.784 170.12C139.946 171.38 141.095 172.635 142.23 173.886C144.534 176.421 146.71 178.809 149.024 181.197C152.442 184.78 156.058 188.169 159.855 191.348C163.05 193.957 167.309 197.177 171.917 198.9C174.068 199.655 176.323 200.068 178.602 200.126C179.38 200.165 180.163 200.185 180.95 200.185C182.472 200.185 184.106 200.111 185.805 199.963C190.653 199.535 195.441 198.577 200.082 197.108C205.527 195.326 209.588 193.214 212.493 190.654C214.24 189.078 215.397 187.346 215.831 185.652C216.053 184.742 216.098 183.798 215.964 182.87C215.756 181.841 215.428 180.84 214.989 179.887ZM191.629 192.096C190.114 191.759 188.572 191.556 187.021 191.491C186.267 191.446 185.519 191.707 184.83 191.491C184.012 191.266 183.242 190.896 182.555 190.398C182.52 190.367 182.497 190.324 182.493 190.277C182.488 190.23 182.502 190.184 182.531 190.147C183.154 189.415 184.036 188.951 184.992 188.852C185.874 188.704 186.696 189.147 187.483 189.438C189.052 189.997 190.509 190.83 191.786 191.899C191.806 191.917 191.821 191.939 191.829 191.965C191.836 191.99 191.837 192.017 191.831 192.042C191.823 192.061 191.811 192.077 191.795 192.09C191.78 192.103 191.762 192.113 191.743 192.118C191.723 192.123 191.703 192.124 191.683 192.12C191.663 192.117 191.645 192.108 191.629 192.096ZM211.04 180.232C210.721 181.018 210.263 181.74 209.687 182.363C209.224 182.925 208.451 183.097 207.831 183.53C206.551 184.412 205.349 185.4 204.237 186.484C204.225 186.498 204.21 186.509 204.193 186.516C204.177 186.523 204.159 186.527 204.141 186.527C204.123 186.527 204.105 186.523 204.088 186.516C204.072 186.509 204.057 186.498 204.045 186.484C204.026 186.466 204.013 186.443 204.007 186.418C204.001 186.392 204.002 186.366 204.01 186.341C204.532 184.761 205.331 183.285 206.368 181.984C206.885 181.325 207.353 180.507 208.175 180.173C209.039 179.763 210.027 179.698 210.937 179.99C210.959 179.997 210.98 180.008 210.998 180.023C211.016 180.038 211.03 180.056 211.041 180.077C211.052 180.098 211.058 180.12 211.059 180.144C211.061 180.167 211.058 180.19 211.05 180.212L211.04 180.232Z" fill="#01BFFF"/>
<path d="M128.002 13.0977C64.6422 13.0977 13.0973 64.6425 13.0973 128.003C13.0973 191.363 64.6422 242.903 128.002 242.903C191.363 242.903 242.903 191.358 242.903 128.003C242.903 64.6475 191.358 13.0977 128.002 13.0977ZM118.082 139.129C118.08 139.238 118.053 139.345 118.005 139.443C117.956 139.541 117.887 139.627 117.802 139.695L116.561 140.68C113.514 143.097 110.466 145.514 107.37 147.872C104.224 150.334 101.029 152.697 97.8337 155.08L96.6522 155.961C96.524 156.056 96.3688 156.108 96.2091 156.109C96.0493 156.109 95.8938 156.057 95.766 155.961L95.2737 155.612C89.2134 151.087 83.4583 146.519 78.0921 142.265C77.9973 142.189 77.9227 142.091 77.8746 141.979C77.8265 141.868 77.8065 141.746 77.8164 141.625L79.5148 121.204C79.5297 121.02 79.6135 120.848 79.7495 120.723C79.8855 120.598 80.0637 120.529 80.2484 120.53L117.634 123.523C117.821 123.539 117.995 123.625 118.121 123.764C118.247 123.903 118.316 124.084 118.314 124.271L118.082 139.129ZM215.781 194.391C211.247 198.359 205.832 200.476 201.578 201.894C196.591 203.475 191.445 204.505 186.233 204.966C184.362 205.133 182.634 205.212 180.945 205.212C180.074 205.212 179.198 205.187 178.321 205.143C175.55 205.06 172.808 204.546 170.193 203.622C164.95 201.652 160.608 198.428 156.699 195.252C152.76 191.954 149.009 188.437 145.465 184.717C143.092 182.255 140.773 179.725 138.528 177.258C137.399 176.018 136.278 174.792 135.166 173.581C134.454 172.764 133.645 172.037 132.758 171.415C131.975 170.868 131.109 170.371 130.188 169.839L129.696 169.549C127.776 168.436 124.866 166.753 123.124 163.784C121.287 160.648 121.396 157.172 121.814 154.809C122.277 152.071 123.122 149.411 124.325 146.908C124.729 146.174 125.225 145.496 125.802 144.889C126.348 144.333 126.952 143.838 127.604 143.412C127.977 143.169 128.316 142.878 128.613 142.546C128.88 142.185 129.107 141.797 129.292 141.389C129.512 140.927 129.693 140.448 129.834 139.956C130.051 139.216 130.327 138.495 130.661 137.8C131.375 136.476 132.342 135.305 133.506 134.354C135.609 132.66 137.954 131.291 140.463 130.292C142.872 129.305 145.356 128.513 147.892 127.924C150.412 127.321 152.98 126.942 155.567 126.792C156.089 126.767 156.606 126.747 157.128 126.747H157.236C157.049 126.541 156.862 126.339 156.675 126.147C156.256 125.704 155.774 125.251 155.276 124.778L154.632 124.178C153.814 123.395 153.115 122.701 152.5 121.982C151.793 121.203 151.135 120.381 150.531 119.52L150.038 118.816C149.659 118.245 149.339 117.768 148.935 117.241C146.779 114.457 144.104 112.117 141.059 110.349C137.849 108.379 134.324 107.198 130.986 106.129C127.431 104.952 123.815 103.966 120.155 103.176C116.37 102.336 112.507 101.895 108.63 101.861C105.222 101.839 101.827 102.281 98.5377 103.176C92.374 104.835 86.1709 108.325 79.5641 113.849C76.6919 116.261 73.9538 118.828 71.3622 121.539C70.6336 122.292 69.8853 123.045 69.1665 123.789C67.2809 125.709 65.3363 127.698 63.5443 129.741C59.0446 134.777 54.9092 140.65 50.5326 148.217C46.7467 154.77 43.1479 161.603 39.6377 168.215L39.5491 168.382C39.4863 168.501 39.392 168.601 39.2766 168.67C39.1612 168.74 39.029 168.776 38.8943 168.776C31.4654 168.313 26.7884 160.161 30.6186 154.125L114.69 21.5555C117.334 17.3857 123.946 17.3857 126.59 21.5555L150.905 59.8819C152.778 62.7871 153.774 66.1705 153.774 69.6272C153.774 73.0838 152.778 76.4673 150.905 79.3724L136.135 102.639C138.725 103.537 141.219 104.691 143.579 106.085C147.178 108.174 150.338 110.941 152.884 114.233C153.337 114.814 153.804 115.513 154.198 116.114L154.582 116.685C155.078 117.385 155.613 118.056 156.187 118.693C156.778 119.348 157.408 119.988 158.063 120.623L158.619 121.15C158.959 121.465 159.308 121.805 159.663 122.135L168.525 108.138C171.409 103.594 178.617 103.594 181.502 108.138L211.789 155.892C212.728 157.345 213.138 159.077 212.949 160.797C212.761 162.517 211.986 164.119 210.755 165.335C214.432 168.466 217.475 172.828 219.557 178.022C220.154 179.358 220.587 180.761 220.847 182.201C221.078 183.775 220.998 185.379 220.611 186.923C219.917 189.615 218.292 192.131 215.781 194.391Z" fill="url(#paint1_linear_741_46)"/>
<path d="M136.869 145.332L138.641 145.357C138.712 145.35 138.783 145.35 138.853 145.357H139.493C139.619 145.36 139.745 145.347 139.867 145.317C140.706 145.179 141.483 144.788 142.092 144.195C142.829 143.413 143.505 142.577 144.116 141.694C144.73 140.84 145.387 140.019 146.085 139.232C147.625 137.463 149.49 136.006 151.579 134.939C152.612 134.429 153.676 133.985 154.764 133.61C155.217 133.497 155.592 133.379 155.971 133.261C156.679 133.025 157.405 132.847 158.142 132.729C159.126 132.626 160.185 132.576 161.273 132.557C160.507 131.193 159.659 129.878 158.732 128.618H158.693C157.705 128.626 156.718 128.697 155.739 128.83C153.302 129.169 150.897 129.705 148.547 130.435C142.767 132.242 138.74 134.329 135.87 136.987C135.118 137.685 134.508 138.521 134.073 139.449C133.89 139.914 133.745 140.393 133.639 140.882C133.472 141.604 133.253 142.313 132.985 143.003C132.698 143.744 132.328 144.449 131.882 145.106C131.376 145.774 130.781 146.37 130.115 146.878C129.342 147.385 128.734 148.105 128.362 148.951C128.234 149.241 128.13 149.566 128.022 149.881C128.687 149.212 129.396 148.589 130.144 148.015C132.085 146.5 134.418 145.569 136.869 145.332Z" fill="#01BFFF"/>
<path d="M79.5345 141.236C85.4423 145.145 90.8035 148.709 96.1451 152.441C99.1826 149.979 102.215 147.562 105.292 145.179C108.369 142.797 111.372 140.488 114.434 138.174L114.868 137.844L115.36 126.245L81.5776 122.833L79.5345 141.236ZM89.43 137.593C92.1359 135.496 95.1931 133.898 98.4589 132.872C100.093 132.34 101.821 131.483 103.618 131.853C105.562 132.145 107.323 133.165 108.541 134.708C108.594 134.783 108.616 134.876 108.605 134.967C108.593 135.058 108.547 135.141 108.477 135.2L108.438 135.225C106.991 136.196 105.382 136.9 103.687 137.302C102.25 137.731 100.733 137.13 99.1876 137.165C95.9989 137.189 92.8182 137.489 89.6811 138.061C89.6455 138.07 89.6084 138.073 89.5719 138.068C89.5354 138.063 89.5003 138.05 89.4686 138.031C89.4369 138.013 89.4094 137.988 89.3875 137.958C89.3657 137.928 89.35 137.895 89.3414 137.859C89.333 137.811 89.3367 137.761 89.3521 137.715C89.3676 137.668 89.3943 137.626 89.43 137.593Z" fill="url(#paint2_linear_741_46)"/>
<path d="M214.989 179.887C213.064 175.121 210.4 171.345 207.063 168.677C203.567 165.797 199.274 163.951 194.755 161.992L194.41 161.844C192.279 160.923 189.802 159.835 187.37 158.545C185.637 157.561 184.027 156.616 182.398 155.656L180.754 154.671L174.245 150.762L170.996 148.743L170.43 148.379C169.514 147.788 168.643 147.232 167.624 146.435L167.249 146.144C167.135 146.052 167.05 145.929 167.003 145.79L166.831 145.253C165.698 141.734 164.296 138.307 162.637 135.003C162.558 134.85 162.479 134.718 162.405 134.565C162.198 134.604 161.997 134.654 161.79 134.688C161.125 134.815 160.467 134.979 159.821 135.18C159.451 135.289 159.082 135.402 158.713 135.495C158.03 135.615 157.356 135.78 156.694 135.988C156.345 136.091 155.995 136.194 155.641 136.288C154.701 136.618 153.782 137.004 152.889 137.445C151.112 138.357 149.526 139.6 148.217 141.108C147.604 141.801 147.031 142.527 146.499 143.284C145.764 144.329 144.951 145.316 144.067 146.238C143.064 147.201 141.798 147.844 140.428 148.084C140.131 148.157 139.824 148.19 139.518 148.182H138.794H138.587L136.987 148.158C135.112 148.362 133.33 149.085 131.843 150.245C130.239 151.492 128.82 152.961 127.628 154.607C127.303 154.966 127.003 155.321 126.703 155.67C126.447 158.068 126.678 159.899 127.431 161.219C128.332 162.883 130.267 164.089 132.172 165.192L132.729 165.507C133.654 166.043 134.609 166.595 135.574 167.269C136.754 168.088 137.831 169.045 138.784 170.12C139.946 171.38 141.095 172.635 142.23 173.886C144.534 176.421 146.71 178.809 149.024 181.197C152.442 184.78 156.058 188.169 159.855 191.348C163.05 193.957 167.309 197.177 171.917 198.9C174.068 199.655 176.323 200.068 178.602 200.126C179.38 200.165 180.163 200.185 180.95 200.185C182.472 200.185 184.106 200.111 185.805 199.963C190.653 199.535 195.441 198.577 200.082 197.108C205.527 195.326 209.588 193.214 212.493 190.654C214.24 189.078 215.397 187.346 215.831 185.652C216.053 184.742 216.098 183.798 215.964 182.87C215.756 181.841 215.428 180.84 214.989 179.887ZM191.629 192.096C190.114 191.759 188.572 191.556 187.021 191.491C186.267 191.446 185.519 191.707 184.83 191.491C184.012 191.266 183.242 190.896 182.555 190.398C182.52 190.367 182.497 190.324 182.493 190.277C182.488 190.23 182.502 190.184 182.531 190.147C183.154 189.415 184.036 188.951 184.992 188.852C185.874 188.704 186.696 189.147 187.483 189.438C189.052 189.997 190.509 190.83 191.786 191.899C191.806 191.917 191.821 191.939 191.829 191.965C191.836 191.99 191.837 192.017 191.831 192.042C191.823 192.061 191.811 192.077 191.795 192.09C191.78 192.103 191.762 192.113 191.743 192.118C191.723 192.123 191.703 192.124 191.683 192.12C191.663 192.117 191.645 192.108 191.629 192.096ZM211.04 180.232C210.721 181.018 210.263 181.74 209.687 182.363C209.224 182.925 208.451 183.097 207.831 183.53C206.551 184.412 205.349 185.4 204.237 186.484C204.225 186.498 204.21 186.509 204.193 186.516C204.177 186.523 204.159 186.527 204.141 186.527C204.123 186.527 204.105 186.523 204.088 186.516C204.072 186.509 204.057 186.498 204.045 186.484C204.026 186.466 204.013 186.443 204.007 186.418C204.001 186.392 204.002 186.366 204.01 186.341C204.532 184.761 205.331 183.285 206.368 181.984C206.885 181.325 207.353 180.507 208.175 180.173C209.039 179.763 210.027 179.698 210.937 179.99C210.959 179.997 210.98 180.008 210.998 180.023C211.016 180.038 211.03 180.056 211.041 180.077C211.052 180.098 211.058 180.12 211.059 180.144C211.061 180.167 211.058 180.19 211.05 180.212L211.04 180.232Z" fill="url(#paint3_linear_741_46)"/>
<path d="M128.002 13.0977C64.6422 13.0977 13.0973 64.6425 13.0973 128.003C13.0973 191.363 64.6422 242.903 128.002 242.903C191.363 242.903 242.903 191.358 242.903 128.003C242.903 64.6475 191.358 13.0977 128.002 13.0977ZM118.082 139.129C118.08 139.238 118.053 139.345 118.005 139.443C117.956 139.541 117.887 139.627 117.802 139.695L116.561 140.68C113.514 143.097 110.466 145.514 107.37 147.872C104.224 150.334 101.029 152.697 97.8337 155.08L96.6522 155.961C96.524 156.056 96.3688 156.108 96.2091 156.109C96.0493 156.109 95.8938 156.057 95.766 155.961L95.2737 155.612C89.2134 151.087 83.4583 146.519 78.0921 142.265C77.9973 142.189 77.9227 142.091 77.8746 141.979C77.8265 141.868 77.8065 141.746 77.8164 141.625L79.5148 121.204C79.5297 121.02 79.6135 120.848 79.7495 120.723C79.8855 120.598 80.0637 120.529 80.2484 120.53L117.634 123.523C117.821 123.539 117.995 123.625 118.121 123.764C118.247 123.903 118.316 124.084 118.314 124.271L118.082 139.129ZM215.781 194.391C211.247 198.359 205.832 200.476 201.578 201.894C196.591 203.475 191.445 204.505 186.233 204.966C184.362 205.133 182.634 205.212 180.945 205.212C180.074 205.212 179.198 205.187 178.321 205.143C175.55 205.06 172.808 204.546 170.193 203.622C164.95 201.652 160.608 198.428 156.699 195.252C152.76 191.954 149.009 188.437 145.465 184.717C143.092 182.255 140.773 179.725 138.528 177.258C137.399 176.018 136.278 174.792 135.166 173.581C134.454 172.764 133.645 172.037 132.758 171.415C131.975 170.868 131.109 170.371 130.188 169.839L129.696 169.549C127.776 168.436 124.866 166.753 123.124 163.784C121.287 160.648 121.396 157.172 121.814 154.809C122.277 152.071 123.122 149.411 124.325 146.908C124.729 146.174 125.225 145.496 125.802 144.889C126.348 144.333 126.952 143.838 127.604 143.412C127.977 143.169 128.316 142.878 128.613 142.546C128.88 142.185 129.107 141.797 129.292 141.389C129.512 140.927 129.693 140.448 129.834 139.956C130.051 139.216 130.327 138.495 130.661 137.8C131.375 136.476 132.342 135.305 133.506 134.354C135.609 132.66 137.954 131.291 140.463 130.292C142.872 129.305 145.356 128.513 147.892 127.924C150.412 127.321 152.98 126.942 155.567 126.792C156.089 126.767 156.606 126.747 157.128 126.747H157.236C157.049 126.541 156.862 126.339 156.675 126.147C156.256 125.704 155.774 125.251 155.276 124.778L154.632 124.178C153.814 123.395 153.115 122.701 152.5 121.982C151.793 121.203 151.135 120.381 150.531 119.52L150.038 118.816C149.659 118.245 149.339 117.768 148.935 117.241C146.779 114.457 144.104 112.117 141.059 110.349C137.849 108.379 134.324 107.198 130.986 106.129C127.431 104.952 123.815 103.966 120.155 103.176C116.37 102.336 112.507 101.895 108.63 101.861C105.222 101.839 101.827 102.281 98.5377 103.176C92.374 104.835 86.1709 108.325 79.5641 113.849C76.6919 116.261 73.9538 118.828 71.3622 121.539C70.6336 122.292 69.8853 123.045 69.1665 123.789C67.2809 125.709 65.3363 127.698 63.5443 129.741C59.0446 134.777 54.9092 140.65 50.5326 148.217C46.7467 154.77 43.1479 161.603 39.6377 168.215L39.5491 168.382C39.4863 168.501 39.392 168.601 39.2766 168.67C39.1612 168.74 39.029 168.776 38.8943 168.776C31.4654 168.313 26.7884 160.161 30.6186 154.125L114.69 21.5555C117.334 17.3857 123.946 17.3857 126.59 21.5555L150.905 59.8819C152.778 62.7871 153.774 66.1705 153.774 69.6272C153.774 73.0838 152.778 76.4673 150.905 79.3724L136.135 102.639C138.725 103.537 141.219 104.691 143.579 106.085C147.178 108.174 150.338 110.941 152.884 114.233C153.337 114.814 153.804 115.513 154.198 116.114L154.582 116.685C155.078 117.385 155.613 118.056 156.187 118.693C156.778 119.348 157.408 119.988 158.063 120.623L158.619 121.15C158.959 121.465 159.308 121.805 159.663 122.135L168.525 108.138C171.409 103.594 178.617 103.594 181.502 108.138L211.789 155.892C212.728 157.345 213.138 159.077 212.949 160.797C212.761 162.517 211.986 164.119 210.755 165.335C214.432 168.466 217.475 172.828 219.557 178.022C220.154 179.358 220.587 180.761 220.847 182.201C221.078 183.775 220.998 185.379 220.611 186.923C219.917 189.615 218.292 192.131 215.781 194.391Z" fill="url(#paint4_linear_741_46)"/>
<path d="M136.869 145.332L138.641 145.357C138.712 145.35 138.783 145.35 138.853 145.357H139.493C139.619 145.36 139.745 145.347 139.867 145.317C140.706 145.179 141.483 144.788 142.092 144.195C142.829 143.413 143.505 142.577 144.116 141.694C144.73 140.84 145.387 140.019 146.085 139.232C147.625 137.463 149.49 136.006 151.579 134.939C152.612 134.429 153.676 133.985 154.764 133.61C155.217 133.497 155.592 133.379 155.971 133.261C156.679 133.025 157.405 132.847 158.142 132.729C159.126 132.626 160.185 132.576 161.273 132.557C160.507 131.193 159.659 129.878 158.732 128.618H158.693C157.705 128.626 156.718 128.697 155.739 128.83C153.302 129.169 150.897 129.705 148.547 130.435C142.767 132.242 138.74 134.329 135.87 136.987C135.118 137.685 134.508 138.521 134.073 139.449C133.89 139.914 133.745 140.393 133.639 140.882C133.472 141.604 133.253 142.313 132.985 143.003C132.698 143.744 132.328 144.449 131.882 145.106C131.376 145.774 130.781 146.37 130.115 146.878C129.342 147.385 128.734 148.105 128.362 148.951C128.234 149.241 128.13 149.566 128.022 149.881C128.687 149.212 129.396 148.589 130.144 148.015C132.085 146.5 134.418 145.569 136.869 145.332Z" fill="url(#paint5_linear_741_46)"/>
</g>
<defs>
<linearGradient id="paint0_linear_741_46" x1="5.54034" y1="110.363" x2="253.039" y2="146.011" gradientUnits="userSpaceOnUse">
<stop stop-color="#00BB2E"/>
<stop offset="0.53" stop-color="#0091DE"/>
<stop offset="0.67" stop-color="#0097D9"/>
<stop offset="0.86" stop-color="#00A7CB"/>
<stop offset="1" stop-color="#00B8BC"/>
</linearGradient>
<linearGradient id="paint1_linear_741_46" x1="28.3146" y1="28.315" x2="232.658" y2="232.658" gradientUnits="userSpaceOnUse">
<stop offset="0.02" stop-color="#00F856"/>
<stop offset="0.05" stop-color="#00EB67"/>
<stop offset="0.11" stop-color="#00D08B"/>
<stop offset="0.18" stop-color="#00B9A9"/>
<stop offset="0.25" stop-color="#00A7C1"/>
<stop offset="0.33" stop-color="#009BD1"/>
<stop offset="0.42" stop-color="#0093DB"/>
<stop offset="0.53" stop-color="#0091DE"/>
<stop offset="0.6" stop-color="#0097E2"/>
<stop offset="0.7" stop-color="#00A7EE"/>
<stop offset="0.8" stop-color="#01BFFF"/>
<stop offset="1" stop-color="#00D0FF"/>
</linearGradient>
<linearGradient id="paint2_linear_741_46" x1="29.4962" y1="23.9776" x2="248.978" y2="255.757" gradientUnits="userSpaceOnUse">
<stop offset="0.04" stop-color="#00D18A"/>
<stop offset="0.1" stop-color="#00C997"/>
<stop offset="0.36" stop-color="#00A6D1"/>
<stop offset="0.49" stop-color="#0098E8"/>
<stop offset="0.59" stop-color="#00A0ED"/>
<stop offset="0.74" stop-color="#01B5F9"/>
<stop offset="0.8" stop-color="#01BFFF"/>
<stop offset="1" stop-color="#00B5BF"/>
</linearGradient>
<linearGradient id="paint3_linear_741_46" x1="29.4962" y1="23.9773" x2="248.978" y2="255.757" gradientUnits="userSpaceOnUse">
<stop offset="0.04" stop-color="#00D18A"/>
<stop offset="0.1" stop-color="#00C997"/>
<stop offset="0.36" stop-color="#00A6D1"/>
<stop offset="0.49" stop-color="#0098E8"/>
<stop offset="0.59" stop-color="#00A0ED"/>
<stop offset="0.74" stop-color="#01B5F9"/>
<stop offset="0.8" stop-color="#01BFFF"/>
<stop offset="1" stop-color="#00B5BF"/>
</linearGradient>
<linearGradient id="paint4_linear_741_46" x1="29.4961" y1="23.9777" x2="248.978" y2="255.757" gradientUnits="userSpaceOnUse">
<stop offset="0.04" stop-color="#00D18A"/>
<stop offset="0.1" stop-color="#00C997"/>
<stop offset="0.36" stop-color="#00A6D1"/>
<stop offset="0.49" stop-color="#0098E8"/>
<stop offset="0.59" stop-color="#00A0ED"/>
<stop offset="0.74" stop-color="#01B5F9"/>
<stop offset="0.8" stop-color="#01BFFF"/>
<stop offset="1" stop-color="#00B5BF"/>
</linearGradient>
<linearGradient id="paint5_linear_741_46" x1="29.4962" y1="23.9777" x2="248.978" y2="255.757" gradientUnits="userSpaceOnUse">
<stop offset="0.04" stop-color="#00D18A"/>
<stop offset="0.1" stop-color="#00C997"/>
<stop offset="0.36" stop-color="#00A6D1"/>
<stop offset="0.49" stop-color="#0098E8"/>
<stop offset="0.59" stop-color="#00A0ED"/>
<stop offset="0.74" stop-color="#01B5F9"/>
<stop offset="0.8" stop-color="#01BFFF"/>
<stop offset="1" stop-color="#00B5BF"/>
</linearGradient>
<clipPath id="clip0_741_46">
<rect width="250" height="250" fill="white" transform="translate(3 3)"/>
</clipPath>
</defs>
</svg>
