<svg width="256" height="256" viewBox="0 0 256 256" fill="none" xmlns="http://www.w3.org/2000/svg">
<g clip-path="url(#clip0_2570_3472)">
<mask id="mask0_2570_3472" style="mask-type:luminance" maskUnits="userSpaceOnUse" x="0" y="0" width="256" height="256">
<path d="M256 0H0V256H256V0Z" fill="white"/>
</mask>
<g mask="url(#mask0_2570_3472)">
<path d="M127.997 0H128.003C198.693 0 256 57.3066 256 127.998V128.003C256 198.693 198.693 256 128.003 256H127.997C57.3066 256 0 198.693 0 128.003V127.998C0 57.3066 57.3066 0 127.997 0Z" fill="#111111"/>
<path fill-rule="evenodd" clip-rule="evenodd" d="M110.093 56.8545C109.614 54.0257 113.596 52.8824 114.691 55.5346L116.825 60.7058C116.891 60.8671 116.942 61.0304 116.978 61.1947C122.095 59.9608 127.25 59.3393 132.356 59.2911C132.35 59.1222 132.36 58.9506 132.385 58.7766L133.199 53.2557C133.618 50.4176 137.759 50.5609 137.98 53.421L138.411 58.985C138.424 59.1611 138.422 59.3336 138.405 59.5026C143.597 59.9142 148.698 60.9152 153.614 62.4625C153.662 62.3002 153.724 62.1399 153.802 61.9822L156.287 56.9738C157.562 54.4036 161.456 55.8193 160.782 58.6081L159.47 64.0435C159.429 64.214 159.374 64.3773 159.306 64.532C164.083 66.5093 168.635 69.0212 172.867 72.0246C172.96 71.8899 173.066 71.7609 173.185 71.6396L177.096 67.6439C179.103 65.5939 182.369 68.1436 180.867 70.5879L177.939 75.351C177.851 75.4929 177.755 75.6244 177.649 75.7448C181.949 79.4061 185.828 83.6244 189.163 88.3451C189.154 87.8894 189.152 87.4373 189.149 86.9929L189.149 86.914C189.139 84.6505 191.186 82.9107 193.505 82.5866C194.614 82.4392 195.74 82.6639 196.707 83.2256C197.674 83.7873 198.427 84.6541 198.849 85.6899C200.17 89.0481 200.392 92.738 199.486 96.2304C199.412 96.5453 199.325 96.8602 199.226 97.2165L199.226 97.2175C199.189 97.3532 199.149 97.495 199.108 97.6456C202.499 99.5564 205.157 102.541 206.665 106.129C207.876 109.018 206.727 111.969 204.057 113.14C202.681 113.732 201.334 113.576 200.101 112.93C201.191 117.731 201.745 122.562 201.795 127.348C201.938 127.347 202.084 127.357 202.231 127.379L207.751 128.193C210.589 128.611 210.446 132.752 207.585 132.974L202.022 133.404C201.876 133.415 201.732 133.415 201.59 133.406C201.182 138.604 200.184 143.713 198.638 148.637C198.768 148.68 198.898 148.732 199.025 148.796L204.033 151.281C206.603 152.556 205.187 156.449 202.398 155.776L196.964 154.464C196.827 154.431 196.695 154.388 196.568 154.338C194.59 159.123 192.075 163.684 189.068 167.923C189.172 168 189.272 168.086 189.367 168.179L193.362 172.089C195.413 174.096 192.863 177.362 190.419 175.86L185.656 172.933C185.545 172.865 185.441 172.79 185.343 172.711C182.01 176.625 178.216 180.191 174.001 183.314C174.073 183.417 174.139 183.525 174.198 183.639L176.784 188.582C178.114 191.124 174.68 193.443 172.82 191.259L169.202 187.012C169.118 186.913 169.042 186.811 168.974 186.706C165.412 188.884 161.602 190.768 157.56 192.312C156.677 192.65 155.79 192.969 154.901 193.268C154.937 193.385 154.966 193.506 154.987 193.631L155.92 199.145C156.4 201.974 152.417 203.118 151.323 200.465L149.189 195.295C149.142 195.181 149.103 195.065 149.071 194.95C143.942 196.188 138.775 196.811 133.659 196.858C133.656 196.979 133.646 197.102 133.628 197.224L132.814 202.744C132.396 205.582 128.255 205.439 128.033 202.579L127.603 197.016C127.593 196.891 127.591 196.767 127.598 196.645C122.395 196.231 117.283 195.225 112.357 193.67C112.316 193.787 112.268 193.904 112.21 194.019L109.726 199.026C108.451 201.596 104.557 200.181 105.23 197.392L106.543 191.958C106.573 191.831 106.612 191.709 106.657 191.591C101.873 189.605 97.3149 187.083 93.0791 184.068C93.0033 184.169 92.9194 184.268 92.8277 184.361L88.9176 188.356C86.9105 190.406 83.6445 187.856 85.1467 185.412L88.0738 180.649C88.1424 180.538 88.2166 180.434 88.2965 180.336C84.3889 176.997 80.83 173.199 77.713 168.98C77.6049 169.057 77.4897 169.128 77.3679 169.192L72.424 171.778C69.8819 173.107 67.5641 169.673 69.7478 167.813L73.9953 164.195C74.1029 164.103 74.215 164.021 74.3302 163.949C72.6247 161.151 71.1005 158.199 69.7795 155.104L60.4033 167.534C59.1606 169.182 56.7363 169.358 55.4384 167.753C46.5524 156.769 45.4542 142.241 46.3253 133.366C46.5347 131.232 48.769 130.055 50.7447 130.888L64.7875 136.813C64.4363 134.087 64.252 131.363 64.23 128.652C64.0825 128.654 63.933 128.644 63.7825 128.622L58.2626 127.807C55.4241 127.389 55.5674 123.248 58.428 123.027L63.9909 122.596C64.146 122.584 64.2986 122.585 64.4486 122.596C64.8669 117.402 65.875 112.298 67.4305 107.381C67.2815 107.335 67.1335 107.276 66.9886 107.205L61.9802 104.72C59.4105 103.444 60.8262 99.5507 63.615 100.224L69.0494 101.536C69.2097 101.575 69.3633 101.626 69.5092 101.688C71.4942 96.9129 74.0138 92.3627 77.0238 88.1341C76.8917 88.0425 76.7658 87.9386 76.646 87.8218L72.6508 83.9107C70.6003 81.9036 73.15 78.6381 75.5943 80.1403L80.358 83.0679C80.4998 83.1549 80.6314 83.2522 80.7517 83.3582C84.0848 79.4563 87.8767 75.9025 92.0874 72.789C91.9865 72.6574 91.8954 72.5151 91.8155 72.362L89.2289 67.4176C87.8992 64.8755 91.3337 62.5572 93.1938 64.7414L96.8126 68.9894C96.9263 69.1226 97.0251 69.2634 97.1101 69.4088C100.655 67.2451 104.447 65.3727 108.466 63.8372C109.361 63.4952 110.258 63.1731 111.158 62.871C111.1 62.7113 111.056 62.5444 111.027 62.3708L110.093 56.8545ZM77.692 149.214C89.3676 179.768 123.601 195.072 154.154 183.396C184.42 171.831 199.722 138.129 188.657 107.796C184.987 110.878 180.585 113.67 175.465 115.547C163.974 119.758 155.202 121.592 147.798 122.318C139.379 133.895 125.067 138.724 118.142 139.719L119.024 122.383C114.515 122.571 109.67 123.165 104.004 124.62C93.3622 127.354 83.4499 131.813 74.4531 136.991C75.0813 141.089 76.1519 145.184 77.692 149.214ZM92.7857 150.706C89.9487 151.21 87.2392 149.32 86.7344 146.482C86.2296 143.645 88.1204 140.936 90.9574 140.431C93.7949 139.926 96.5039 141.817 97.0087 144.654C97.514 147.491 95.6232 150.2 92.7857 150.706ZM116.842 151.336C114.99 151.666 113.221 150.432 112.891 148.58C112.562 146.728 113.796 144.961 115.648 144.631C117.5 144.301 119.268 145.535 119.598 147.387C119.927 149.239 118.693 151.007 116.842 151.336ZM147.388 150.142C145.537 150.472 143.768 149.238 143.439 147.386C143.109 145.534 144.343 143.766 146.195 143.436C148.047 143.107 149.815 144.341 150.145 146.192C150.474 148.044 149.24 149.813 147.388 150.142ZM153.75 166.456C154.079 168.308 155.847 169.542 157.699 169.212C159.551 168.883 160.785 167.114 160.455 165.262C160.126 163.411 158.358 162.177 156.506 162.506C154.654 162.836 153.42 164.604 153.75 166.456ZM118.051 174.769C116.199 175.099 114.431 173.864 114.102 172.013C113.772 170.161 115.006 168.393 116.858 168.063C118.71 167.734 120.478 168.968 120.807 170.82C121.137 172.671 119.903 174.439 118.051 174.769ZM99.6721 160.375C100.001 162.227 101.77 163.461 103.622 163.131C105.474 162.802 106.708 161.033 106.378 159.181C106.049 157.33 104.28 156.095 102.428 156.425C100.576 156.755 99.3424 158.523 99.6721 160.375ZM132.924 161.472C131.072 161.802 129.304 160.568 128.974 158.716C128.645 156.864 129.879 155.096 131.731 154.766C133.582 154.437 135.351 155.671 135.68 157.522C136.01 159.374 134.776 161.143 132.924 161.472ZM161.995 147.541C162.5 150.378 165.21 152.269 168.047 151.764C170.884 151.259 172.775 148.55 172.27 145.713C171.765 142.875 169.056 140.984 166.218 141.489C163.381 141.994 161.49 144.703 161.995 147.541ZM132.787 173.989C133.292 176.826 136.001 178.717 138.839 178.212C141.676 177.707 143.566 174.998 143.062 172.161C142.557 169.323 139.847 167.432 137.01 167.937C134.173 168.442 132.282 171.151 132.787 173.989ZM172.684 93.9238C173.729 98.5124 171.02 103.041 166.636 104.039C162.25 105.037 157.849 102.127 156.805 97.5386C155.761 92.95 158.469 88.4214 162.854 87.4235C167.239 86.4251 171.64 89.3358 172.684 93.9238Z" fill="url(#paint0_linear_2570_3472)"/>
<path d="M166.969 100.052C168.943 99.6024 170.124 97.3906 169.605 95.1117C169.087 92.8328 167.065 91.3495 165.09 91.7991C163.115 92.2486 161.935 94.4604 162.453 96.7393C162.972 99.0183 164.994 100.502 166.969 100.052Z" fill="#4A98EA"/>
</g>
</g>
<defs>
<linearGradient id="paint0_linear_2570_3472" x1="141.986" y1="51.2" x2="209.234" y2="160.602" gradientUnits="userSpaceOnUse">
<stop offset="0.0677083" stop-color="#874FFF"/>
<stop offset="0.463542" stop-color="#36AFE2"/>
<stop offset="0.859375" stop-color="#41FF54"/>
</linearGradient>
<clipPath id="clip0_2570_3472">
<rect width="256" height="256" fill="white"/>
</clipPath>
</defs>
</svg>
