<svg width="256" height="256" viewBox="0 0 256 256" fill="none" xmlns="http://www.w3.org/2000/svg">
<g clip-path="url(#clip0_2436_9307)">
<path d="M256 128C256 57.3076 198.692 0 128 0C57.3076 0 0 57.3076 0 128C0 198.692 57.3076 256 128 256C198.692 256 256 198.692 256 128Z" fill="#1F1F23"/>
<path d="M66.4922 214C68.0293 214 69.2753 212.754 69.2753 211.217C69.2753 209.68 68.0293 208.434 66.4922 208.434C64.9551 208.434 63.709 209.68 63.709 211.217C63.709 212.754 64.9551 214 66.4922 214Z" fill="#FFCA2B"/>
<path d="M73.7275 206.764C75.2646 206.764 76.5107 205.518 76.5107 203.98C76.5107 202.443 75.2646 201.197 73.7275 201.197C72.1904 201.197 70.9443 202.443 70.9443 203.98C70.9443 205.518 72.1904 206.764 73.7275 206.764Z" fill="#FFCA2B"/>
<path d="M66.4922 206.764C68.0293 206.764 69.2753 205.518 69.2753 203.981C69.2753 202.444 68.0293 201.198 66.4922 201.198C64.9551 201.198 63.709 202.444 63.709 203.981C63.709 205.518 64.9551 206.764 66.4922 206.764Z" fill="#FFCA2B"/>
<path d="M59.2558 206.764C60.7929 206.764 62.039 205.518 62.039 203.981C62.039 202.444 60.7929 201.198 59.2558 201.198C57.7187 201.198 56.4727 202.444 56.4727 203.981C56.4727 205.518 57.7187 206.764 59.2558 206.764Z" fill="#FFCA2B"/>
<path d="M80.9648 199.528C82.5019 199.528 83.748 198.281 83.748 196.744C83.748 195.207 82.5019 193.961 80.9648 193.961C79.4277 193.961 78.1816 195.207 78.1816 196.744C78.1816 198.281 79.4277 199.528 80.9648 199.528Z" fill="#FFCA2B"/>
<path d="M73.7275 199.528C75.2646 199.528 76.5107 198.281 76.5107 196.744C76.5107 195.207 75.2646 193.961 73.7275 193.961C72.1904 193.961 70.9443 195.207 70.9443 196.744C70.9443 198.281 72.1904 199.528 73.7275 199.528Z" fill="#FFCA2B"/>
<path d="M66.4922 199.528C68.0293 199.528 69.2753 198.281 69.2753 196.744C69.2753 195.207 68.0293 193.961 66.4922 193.961C64.9551 193.961 63.709 195.207 63.709 196.744C63.709 198.281 64.9551 199.528 66.4922 199.528Z" fill="#FFCA2B"/>
<path d="M59.2558 199.528C60.7929 199.528 62.039 198.281 62.039 196.744C62.039 195.207 60.7929 193.961 59.2558 193.961C57.7187 193.961 56.4727 195.207 56.4727 196.744C56.4727 198.281 57.7187 199.528 59.2558 199.528Z" fill="#FFCA2B"/>
<path d="M52.0195 199.528C53.5566 199.528 54.8027 198.281 54.8027 196.744C54.8027 195.207 53.5566 193.961 52.0195 193.961C50.4824 193.961 49.2363 195.207 49.2363 196.744C49.2363 198.281 50.4824 199.528 52.0195 199.528Z" fill="#FFCA2B"/>
<path d="M88.2011 192.291C89.7382 192.291 90.9843 191.045 90.9843 189.508C90.9843 187.971 89.7382 186.725 88.2011 186.725C86.664 186.725 85.418 187.971 85.418 189.508C85.418 191.045 86.664 192.291 88.2011 192.291Z" fill="#FFCA2B"/>
<path d="M80.9648 192.291C82.5019 192.291 83.748 191.045 83.748 189.508C83.748 187.971 82.5019 186.725 80.9648 186.725C79.4277 186.725 78.1816 187.971 78.1816 189.508C78.1816 191.045 79.4277 192.291 80.9648 192.291Z" fill="#FFCA2B"/>
<path d="M73.7275 192.291C75.2646 192.291 76.5107 191.045 76.5107 189.508C76.5107 187.971 75.2646 186.725 73.7275 186.725C72.1904 186.725 70.9443 187.971 70.9443 189.508C70.9443 191.045 72.1904 192.291 73.7275 192.291Z" fill="#FFCA2B"/>
<path d="M66.4922 192.291C68.0293 192.291 69.2753 191.045 69.2753 189.508C69.2753 187.971 68.0293 186.725 66.4922 186.725C64.9551 186.725 63.709 187.971 63.709 189.508C63.709 191.045 64.9551 192.291 66.4922 192.291Z" fill="#FFCA2B"/>
<path d="M59.2558 192.291C60.7929 192.291 62.039 191.045 62.039 189.508C62.039 187.971 60.7929 186.725 59.2558 186.725C57.7187 186.725 56.4727 187.971 56.4727 189.508C56.4727 191.045 57.7187 192.291 59.2558 192.291Z" fill="#FFCA2B"/>
<path d="M52.0195 192.291C53.5566 192.291 54.8027 191.045 54.8027 189.508C54.8027 187.971 53.5566 186.725 52.0195 186.725C50.4824 186.725 49.2363 187.971 49.2363 189.508C49.2363 191.045 50.4824 192.291 52.0195 192.291Z" fill="#FFCA2B"/>
<path d="M44.7832 192.291C46.3203 192.291 47.5663 191.045 47.5663 189.508C47.5663 187.971 46.3203 186.725 44.7832 186.725C43.2461 186.725 42 187.971 42 189.508C42 191.045 43.2461 192.291 44.7832 192.291Z" fill="#FFCA2B"/>
<path d="M95.4365 185.055C96.9736 185.055 98.2197 183.809 98.2197 182.272C98.2197 180.735 96.9736 179.489 95.4365 179.489C93.8994 179.489 92.6533 180.735 92.6533 182.272C92.6533 183.809 93.8994 185.055 95.4365 185.055Z" fill="#FFCA2B"/>
<path d="M88.2011 185.055C89.7382 185.055 90.9843 183.809 90.9843 182.272C90.9843 180.735 89.7382 179.489 88.2011 179.489C86.664 179.489 85.418 180.735 85.418 182.272C85.418 183.809 86.664 185.055 88.2011 185.055Z" fill="#FFCA2B"/>
<path d="M80.9648 185.055C82.5019 185.055 83.748 183.809 83.748 182.272C83.748 180.735 82.5019 179.489 80.9648 179.489C79.4277 179.489 78.1816 180.735 78.1816 182.272C78.1816 183.809 79.4277 185.055 80.9648 185.055Z" fill="#FFCA2B"/>
<path d="M73.7275 185.055C75.2646 185.055 76.5107 183.809 76.5107 182.272C76.5107 180.735 75.2646 179.489 73.7275 179.489C72.1904 179.489 70.9443 180.735 70.9443 182.272C70.9443 183.809 72.1904 185.055 73.7275 185.055Z" fill="#FFCA2B"/>
<path d="M66.4922 185.055C68.0293 185.055 69.2753 183.809 69.2753 182.272C69.2753 180.735 68.0293 179.489 66.4922 179.489C64.9551 179.489 63.709 180.735 63.709 182.272C63.709 183.809 64.9551 185.055 66.4922 185.055Z" fill="#FFCA2B"/>
<path d="M59.2558 185.055C60.7929 185.055 62.039 183.809 62.039 182.272C62.039 180.735 60.7929 179.489 59.2558 179.489C57.7187 179.489 56.4727 180.735 56.4727 182.272C56.4727 183.809 57.7187 185.055 59.2558 185.055Z" fill="#FFCA2B"/>
<path d="M52.0195 185.055C53.5566 185.055 54.8027 183.809 54.8027 182.272C54.8027 180.735 53.5566 179.489 52.0195 179.489C50.4824 179.489 49.2363 180.735 49.2363 182.272C49.2363 183.809 50.4824 185.055 52.0195 185.055Z" fill="#FFCA2B"/>
<path d="M102.673 177.819C104.21 177.819 105.456 176.573 105.456 175.036C105.456 173.499 104.21 172.252 102.673 172.252C101.136 172.252 99.8896 173.499 99.8896 175.036C99.8896 176.573 101.136 177.819 102.673 177.819Z" fill="#FFCA2B"/>
<path d="M95.4365 177.819C96.9736 177.819 98.2197 176.573 98.2197 175.036C98.2197 173.499 96.9736 172.252 95.4365 172.252C93.8994 172.252 92.6533 173.499 92.6533 175.036C92.6533 176.573 93.8994 177.819 95.4365 177.819Z" fill="#FFCA2B"/>
<path d="M88.2011 177.819C89.7382 177.819 90.9843 176.573 90.9843 175.036C90.9843 173.499 89.7382 172.252 88.2011 172.252C86.664 172.252 85.418 173.499 85.418 175.036C85.418 176.573 86.664 177.819 88.2011 177.819Z" fill="#FFCA2B"/>
<path d="M80.9648 177.819C82.5019 177.819 83.748 176.573 83.748 175.036C83.748 173.499 82.5019 172.252 80.9648 172.252C79.4277 172.252 78.1816 173.499 78.1816 175.036C78.1816 176.573 79.4277 177.819 80.9648 177.819Z" fill="#FFCA2B"/>
<path d="M73.7275 177.819C75.2646 177.819 76.5107 176.573 76.5107 175.036C76.5107 173.499 75.2646 172.252 73.7275 172.252C72.1904 172.252 70.9443 173.499 70.9443 175.036C70.9443 176.573 72.1904 177.819 73.7275 177.819Z" fill="#FFCA2B"/>
<path d="M66.4922 177.819C68.0293 177.819 69.2753 176.573 69.2753 175.036C69.2753 173.499 68.0293 172.252 66.4922 172.252C64.9551 172.252 63.709 173.499 63.709 175.036C63.709 176.573 64.9551 177.819 66.4922 177.819Z" fill="#FFCA2B"/>
<path d="M59.2558 177.819C60.7929 177.819 62.039 176.573 62.039 175.036C62.039 173.499 60.7929 172.252 59.2558 172.252C57.7187 172.252 56.4727 173.499 56.4727 175.036C56.4727 176.573 57.7187 177.819 59.2558 177.819Z" fill="#FFCA2B"/>
<path d="M109.91 170.582C111.447 170.582 112.693 169.336 112.693 167.799C112.693 166.262 111.447 165.016 109.91 165.016C108.373 165.016 107.127 166.262 107.127 167.799C107.127 169.336 108.373 170.582 109.91 170.582Z" fill="#FFCA2B"/>
<path d="M102.673 170.582C104.21 170.582 105.456 169.336 105.456 167.799C105.456 166.262 104.21 165.016 102.673 165.016C101.136 165.016 99.8896 166.262 99.8896 167.799C99.8896 169.336 101.136 170.582 102.673 170.582Z" fill="#FFCA2B"/>
<path d="M95.4365 170.582C96.9736 170.582 98.2197 169.336 98.2197 167.799C98.2197 166.262 96.9736 165.016 95.4365 165.016C93.8994 165.016 92.6533 166.262 92.6533 167.799C92.6533 169.336 93.8994 170.582 95.4365 170.582Z" fill="#FFCA2B"/>
<path d="M88.2011 170.582C89.7382 170.582 90.9843 169.336 90.9843 167.799C90.9843 166.262 89.7382 165.016 88.2011 165.016C86.664 165.016 85.418 166.262 85.418 167.799C85.418 169.336 86.664 170.582 88.2011 170.582Z" fill="#FFCA2B"/>
<path d="M80.9648 170.582C82.5019 170.582 83.748 169.336 83.748 167.799C83.748 166.262 82.5019 165.016 80.9648 165.016C79.4277 165.016 78.1816 166.262 78.1816 167.799C78.1816 169.336 79.4277 170.582 80.9648 170.582Z" fill="#FFCA2B"/>
<path d="M73.7275 170.582C75.2646 170.582 76.5107 169.336 76.5107 167.799C76.5107 166.262 75.2646 165.016 73.7275 165.016C72.1904 165.016 70.9443 166.262 70.9443 167.799C70.9443 169.336 72.1904 170.582 73.7275 170.582Z" fill="#FFCA2B"/>
<path d="M66.4922 170.582C68.0293 170.582 69.2753 169.336 69.2753 167.799C69.2753 166.262 68.0293 165.016 66.4922 165.016C64.9551 165.016 63.709 166.262 63.709 167.799C63.709 169.336 64.9551 170.582 66.4922 170.582Z" fill="#FFCA2B"/>
<path d="M117.145 163.346C118.683 163.346 119.929 162.1 119.929 160.563C119.929 159.026 118.683 157.78 117.145 157.78C115.608 157.78 114.362 159.026 114.362 160.563C114.362 162.1 115.608 163.346 117.145 163.346Z" fill="#FFCA2B"/>
<path d="M109.91 163.346C111.447 163.346 112.693 162.1 112.693 160.563C112.693 159.026 111.447 157.78 109.91 157.78C108.373 157.78 107.127 159.026 107.127 160.563C107.127 162.1 108.373 163.346 109.91 163.346Z" fill="#FFCA2B"/>
<path d="M102.673 163.346C104.21 163.346 105.456 162.1 105.456 160.563C105.456 159.026 104.21 157.78 102.673 157.78C101.136 157.78 99.8896 159.026 99.8896 160.563C99.8896 162.1 101.136 163.346 102.673 163.346Z" fill="#FFCA2B"/>
<path d="M95.4365 163.346C96.9736 163.346 98.2197 162.1 98.2197 160.563C98.2197 159.026 96.9736 157.78 95.4365 157.78C93.8994 157.78 92.6533 159.026 92.6533 160.563C92.6533 162.1 93.8994 163.346 95.4365 163.346Z" fill="#FFCA2B"/>
<path d="M88.2011 163.346C89.7382 163.346 90.9843 162.1 90.9843 160.563C90.9843 159.026 89.7382 157.78 88.2011 157.78C86.664 157.78 85.418 159.026 85.418 160.563C85.418 162.1 86.664 163.346 88.2011 163.346Z" fill="#FFCA2B"/>
<path d="M80.9648 163.346C82.5019 163.346 83.748 162.1 83.748 160.563C83.748 159.026 82.5019 157.78 80.9648 157.78C79.4277 157.78 78.1816 159.026 78.1816 160.563C78.1816 162.1 79.4277 163.346 80.9648 163.346Z" fill="#FFCA2B"/>
<path d="M73.7275 163.346C75.2646 163.346 76.5107 162.1 76.5107 160.563C76.5107 159.026 75.2646 157.78 73.7275 157.78C72.1904 157.78 70.9443 159.026 70.9443 160.563C70.9443 162.1 72.1904 163.346 73.7275 163.346Z" fill="#FFCA2B"/>
<path d="M117.145 156.11C118.683 156.11 119.929 154.864 119.929 153.327C119.929 151.79 118.683 150.544 117.145 150.544C115.608 150.544 114.362 151.79 114.362 153.327C114.362 154.864 115.608 156.11 117.145 156.11Z" fill="#FFCA2B"/>
<path d="M109.91 156.11C111.447 156.11 112.693 154.864 112.693 153.327C112.693 151.79 111.447 150.544 109.91 150.544C108.373 150.544 107.127 151.79 107.127 153.327C107.127 154.864 108.373 156.11 109.91 156.11Z" fill="#FFCA2B"/>
<path d="M102.673 156.11C104.21 156.11 105.456 154.864 105.456 153.327C105.456 151.79 104.21 150.544 102.673 150.544C101.136 150.544 99.8896 151.79 99.8896 153.327C99.8896 154.864 101.136 156.11 102.673 156.11Z" fill="#FFCA2B"/>
<path d="M95.4365 156.11C96.9736 156.11 98.2197 154.864 98.2197 153.327C98.2197 151.79 96.9736 150.544 95.4365 150.544C93.8994 150.544 92.6533 151.79 92.6533 153.327C92.6533 154.864 93.8994 156.11 95.4365 156.11Z" fill="#FFCA2B"/>
<path d="M88.2011 156.11C89.7382 156.11 90.9843 154.864 90.9843 153.327C90.9843 151.79 89.7382 150.544 88.2011 150.544C86.664 150.544 85.418 151.79 85.418 153.327C85.418 154.864 86.664 156.11 88.2011 156.11Z" fill="#FFCA2B"/>
<path d="M80.9648 156.11C82.5019 156.11 83.748 154.864 83.748 153.327C83.748 151.79 82.5019 150.544 80.9648 150.544C79.4277 150.544 78.1816 151.79 78.1816 153.327C78.1816 154.864 79.4277 156.11 80.9648 156.11Z" fill="#FFCA2B"/>
<path d="M109.91 148.874C111.447 148.874 112.693 147.628 112.693 146.091C112.693 144.553 111.447 143.307 109.91 143.307C108.373 143.307 107.127 144.553 107.127 146.091C107.127 147.628 108.373 148.874 109.91 148.874Z" fill="#FFCA2B"/>
<path d="M102.673 148.874C104.21 148.874 105.456 147.628 105.456 146.091C105.456 144.553 104.21 143.307 102.673 143.307C101.136 143.307 99.8896 144.553 99.8896 146.091C99.8896 147.628 101.136 148.874 102.673 148.874Z" fill="#FFCA2B"/>
<path d="M95.4365 148.874C96.9736 148.874 98.2197 147.628 98.2197 146.091C98.2197 144.553 96.9736 143.307 95.4365 143.307C93.8994 143.307 92.6533 144.553 92.6533 146.091C92.6533 147.628 93.8994 148.874 95.4365 148.874Z" fill="#FFCA2B"/>
<path d="M88.2011 148.874C89.7382 148.874 90.9843 147.628 90.9843 146.091C90.9843 144.553 89.7382 143.307 88.2011 143.307C86.664 143.307 85.418 144.553 85.418 146.091C85.418 147.628 86.664 148.874 88.2011 148.874Z" fill="#FFCA2B"/>
<path d="M102.673 141.638C104.21 141.638 105.456 140.392 105.456 138.854C105.456 137.317 104.21 136.071 102.673 136.071C101.136 136.071 99.8896 137.317 99.8896 138.854C99.8896 140.392 101.136 141.638 102.673 141.638Z" fill="#FFCA2B"/>
<path d="M95.4365 141.637C96.9736 141.637 98.2197 140.391 98.2197 138.854C98.2197 137.317 96.9736 136.071 95.4365 136.071C93.8994 136.071 92.6533 137.317 92.6533 138.854C92.6533 140.391 93.8994 141.637 95.4365 141.637Z" fill="#FFCA2B"/>
<path d="M196.745 206.764C198.282 206.764 199.528 205.518 199.528 203.98C199.528 202.443 198.282 201.197 196.745 201.197C195.208 201.197 193.962 202.443 193.962 203.98C193.962 205.518 195.208 206.764 196.745 206.764Z" fill="#FFCA2B"/>
<path d="M189.508 206.764C191.045 206.764 192.291 205.518 192.291 203.98C192.291 202.443 191.045 201.197 189.508 201.197C187.971 201.197 186.725 202.443 186.725 203.98C186.725 205.518 187.971 206.764 189.508 206.764Z" fill="#FFCA2B"/>
<path d="M189.508 214C191.045 214 192.291 212.754 192.291 211.217C192.291 209.68 191.045 208.434 189.508 208.434C187.971 208.434 186.725 209.68 186.725 211.217C186.725 212.754 187.971 214 189.508 214Z" fill="#FFCA2B"/>
<path d="M182.272 206.764C183.81 206.764 185.056 205.518 185.056 203.98C185.056 202.443 183.81 201.197 182.272 201.197C180.735 201.197 179.489 202.443 179.489 203.98C179.489 205.518 180.735 206.764 182.272 206.764Z" fill="#FFCA2B"/>
<path d="M203.981 199.528C205.519 199.528 206.765 198.281 206.765 196.744C206.765 195.207 205.519 193.961 203.981 193.961C202.444 193.961 201.198 195.207 201.198 196.744C201.198 198.281 202.444 199.528 203.981 199.528Z" fill="#FFCA2B"/>
<path d="M196.745 199.528C198.282 199.528 199.528 198.281 199.528 196.744C199.528 195.207 198.282 193.961 196.745 193.961C195.208 193.961 193.962 195.207 193.962 196.744C193.962 198.281 195.208 199.528 196.745 199.528Z" fill="#FFCA2B"/>
<path d="M189.508 199.528C191.045 199.528 192.291 198.281 192.291 196.744C192.291 195.207 191.045 193.961 189.508 193.961C187.971 193.961 186.725 195.207 186.725 196.744C186.725 198.281 187.971 199.528 189.508 199.528Z" fill="#FFCA2B"/>
<path d="M182.272 199.528C183.81 199.528 185.056 198.281 185.056 196.744C185.056 195.207 183.81 193.961 182.272 193.961C180.735 193.961 179.489 195.207 179.489 196.744C179.489 198.281 180.735 199.528 182.272 199.528Z" fill="#FFCA2B"/>
<path d="M175.036 199.528C176.573 199.528 177.819 198.281 177.819 196.744C177.819 195.207 176.573 193.961 175.036 193.961C173.499 193.961 172.253 195.207 172.253 196.744C172.253 198.281 173.499 199.528 175.036 199.528Z" fill="#FFCA2B"/>
<path d="M211.217 192.291C212.754 192.291 214 191.045 214 189.508C214 187.971 212.754 186.725 211.217 186.725C209.68 186.725 208.434 187.971 208.434 189.508C208.434 191.045 209.68 192.291 211.217 192.291Z" fill="#FFCA2B"/>
<path d="M203.981 192.291C205.519 192.291 206.765 191.045 206.765 189.508C206.765 187.971 205.519 186.725 203.981 186.725C202.444 186.725 201.198 187.971 201.198 189.508C201.198 191.045 202.444 192.291 203.981 192.291Z" fill="#FFCA2B"/>
<path d="M196.745 192.291C198.282 192.291 199.528 191.045 199.528 189.508C199.528 187.971 198.282 186.725 196.745 186.725C195.208 186.725 193.962 187.971 193.962 189.508C193.962 191.045 195.208 192.291 196.745 192.291Z" fill="#FFCA2B"/>
<path d="M189.508 192.291C191.045 192.291 192.291 191.045 192.291 189.508C192.291 187.971 191.045 186.725 189.508 186.725C187.971 186.725 186.725 187.971 186.725 189.508C186.725 191.045 187.971 192.291 189.508 192.291Z" fill="#FFCA2B"/>
<path d="M182.272 192.291C183.81 192.291 185.056 191.045 185.056 189.508C185.056 187.971 183.81 186.725 182.272 186.725C180.735 186.725 179.489 187.971 179.489 189.508C179.489 191.045 180.735 192.291 182.272 192.291Z" fill="#FFCA2B"/>
<path d="M175.036 192.291C176.573 192.291 177.819 191.045 177.819 189.508C177.819 187.971 176.573 186.725 175.036 186.725C173.499 186.725 172.253 187.971 172.253 189.508C172.253 191.045 173.499 192.291 175.036 192.291Z" fill="#FFCA2B"/>
<path d="M167.799 192.291C169.336 192.291 170.582 191.045 170.582 189.508C170.582 187.971 169.336 186.725 167.799 186.725C166.262 186.725 165.016 187.971 165.016 189.508C165.016 191.045 166.262 192.291 167.799 192.291Z" fill="#FFCA2B"/>
<path d="M203.981 185.055C205.519 185.055 206.765 183.809 206.765 182.272C206.765 180.735 205.519 179.489 203.981 179.489C202.444 179.489 201.198 180.735 201.198 182.272C201.198 183.809 202.444 185.055 203.981 185.055Z" fill="#FFCA2B"/>
<path d="M196.745 185.055C198.282 185.055 199.528 183.809 199.528 182.272C199.528 180.735 198.282 179.489 196.745 179.489C195.208 179.489 193.962 180.735 193.962 182.272C193.962 183.809 195.208 185.055 196.745 185.055Z" fill="#FFCA2B"/>
<path d="M189.508 185.055C191.045 185.055 192.291 183.809 192.291 182.272C192.291 180.735 191.045 179.489 189.508 179.489C187.971 179.489 186.725 180.735 186.725 182.272C186.725 183.809 187.971 185.055 189.508 185.055Z" fill="#FFCA2B"/>
<path d="M182.272 185.055C183.81 185.055 185.056 183.809 185.056 182.272C185.056 180.735 183.81 179.489 182.272 179.489C180.735 179.489 179.489 180.735 179.489 182.272C179.489 183.809 180.735 185.055 182.272 185.055Z" fill="#FFCA2B"/>
<path d="M175.036 185.055C176.573 185.055 177.819 183.809 177.819 182.272C177.819 180.735 176.573 179.489 175.036 179.489C173.499 179.489 172.253 180.735 172.253 182.272C172.253 183.809 173.499 185.055 175.036 185.055Z" fill="#FFCA2B"/>
<path d="M167.799 185.055C169.336 185.055 170.582 183.809 170.582 182.272C170.582 180.735 169.336 179.489 167.799 179.489C166.262 179.489 165.016 180.735 165.016 182.272C165.016 183.809 166.262 185.055 167.799 185.055Z" fill="#FFCA2B"/>
<path d="M160.563 185.055C162.101 185.055 163.347 183.809 163.347 182.272C163.347 180.735 162.101 179.489 160.563 179.489C159.026 179.489 157.78 180.735 157.78 182.272C157.78 183.809 159.026 185.055 160.563 185.055Z" fill="#FFCA2B"/>
<path d="M196.745 177.819C198.282 177.819 199.528 176.572 199.528 175.035C199.528 173.498 198.282 172.252 196.745 172.252C195.208 172.252 193.962 173.498 193.962 175.035C193.962 176.572 195.208 177.819 196.745 177.819Z" fill="#FFCA2B"/>
<path d="M189.508 177.819C191.045 177.819 192.291 176.572 192.291 175.035C192.291 173.498 191.045 172.252 189.508 172.252C187.971 172.252 186.725 173.498 186.725 175.035C186.725 176.572 187.971 177.819 189.508 177.819Z" fill="#FFCA2B"/>
<path d="M182.272 177.819C183.81 177.819 185.056 176.572 185.056 175.035C185.056 173.498 183.81 172.252 182.272 172.252C180.735 172.252 179.489 173.498 179.489 175.035C179.489 176.572 180.735 177.819 182.272 177.819Z" fill="#FFCA2B"/>
<path d="M175.036 177.819C176.573 177.819 177.819 176.573 177.819 175.036C177.819 173.499 176.573 172.252 175.036 172.252C173.499 172.252 172.253 173.499 172.253 175.036C172.253 176.573 173.499 177.819 175.036 177.819Z" fill="#FFCA2B"/>
<path d="M167.799 177.819C169.336 177.819 170.582 176.572 170.582 175.035C170.582 173.498 169.336 172.252 167.799 172.252C166.262 172.252 165.016 173.498 165.016 175.035C165.016 176.572 166.262 177.819 167.799 177.819Z" fill="#FFCA2B"/>
<path d="M160.563 177.819C162.101 177.819 163.347 176.573 163.347 175.036C163.347 173.499 162.101 172.252 160.563 172.252C159.026 172.252 157.78 173.499 157.78 175.036C157.78 176.573 159.026 177.819 160.563 177.819Z" fill="#FFCA2B"/>
<path d="M153.327 177.819C154.864 177.819 156.11 176.573 156.11 175.036C156.11 173.499 154.864 172.252 153.327 172.252C151.79 172.252 150.544 173.499 150.544 175.036C150.544 176.573 151.79 177.819 153.327 177.819Z" fill="#FFCA2B"/>
<path d="M189.508 170.582C191.045 170.582 192.291 169.336 192.291 167.799C192.291 166.262 191.045 165.016 189.508 165.016C187.971 165.016 186.725 166.262 186.725 167.799C186.725 169.336 187.971 170.582 189.508 170.582Z" fill="#FFCA2B"/>
<path d="M182.272 170.582C183.81 170.582 185.056 169.336 185.056 167.799C185.056 166.262 183.81 165.016 182.272 165.016C180.735 165.016 179.489 166.262 179.489 167.799C179.489 169.336 180.735 170.582 182.272 170.582Z" fill="#FFCA2B"/>
<path d="M175.036 170.582C176.573 170.582 177.819 169.336 177.819 167.799C177.819 166.262 176.573 165.016 175.036 165.016C173.499 165.016 172.253 166.262 172.253 167.799C172.253 169.336 173.499 170.582 175.036 170.582Z" fill="#FFCA2B"/>
<path d="M167.799 170.582C169.336 170.582 170.582 169.336 170.582 167.799C170.582 166.262 169.336 165.016 167.799 165.016C166.262 165.016 165.016 166.262 165.016 167.799C165.016 169.336 166.262 170.582 167.799 170.582Z" fill="#FFCA2B"/>
<path d="M160.563 170.582C162.101 170.582 163.347 169.336 163.347 167.799C163.347 166.262 162.101 165.016 160.563 165.016C159.026 165.016 157.78 166.262 157.78 167.799C157.78 169.336 159.026 170.582 160.563 170.582Z" fill="#FFCA2B"/>
<path d="M153.327 170.582C154.864 170.582 156.11 169.336 156.11 167.799C156.11 166.262 154.864 165.016 153.327 165.016C151.79 165.016 150.544 166.262 150.544 167.799C150.544 169.336 151.79 170.582 153.327 170.582Z" fill="#FFCA2B"/>
<path d="M146.092 170.582C147.629 170.582 148.875 169.336 148.875 167.799C148.875 166.262 147.629 165.016 146.092 165.016C144.555 165.016 143.309 166.262 143.309 167.799C143.309 169.336 144.555 170.582 146.092 170.582Z" fill="#FFCA2B"/>
<path d="M182.272 163.346C183.81 163.346 185.056 162.1 185.056 160.563C185.056 159.026 183.81 157.78 182.272 157.78C180.735 157.78 179.489 159.026 179.489 160.563C179.489 162.1 180.735 163.346 182.272 163.346Z" fill="#FFCA2B"/>
<path d="M175.036 163.346C176.573 163.346 177.819 162.1 177.819 160.563C177.819 159.026 176.573 157.78 175.036 157.78C173.499 157.78 172.253 159.026 172.253 160.563C172.253 162.1 173.499 163.346 175.036 163.346Z" fill="#FFCA2B"/>
<path d="M167.799 163.346C169.336 163.346 170.582 162.1 170.582 160.563C170.582 159.026 169.336 157.78 167.799 157.78C166.262 157.78 165.016 159.026 165.016 160.563C165.016 162.1 166.262 163.346 167.799 163.346Z" fill="#FFCA2B"/>
<path d="M160.563 163.346C162.101 163.346 163.347 162.1 163.347 160.563C163.347 159.026 162.101 157.78 160.563 157.78C159.026 157.78 157.78 159.026 157.78 160.563C157.78 162.1 159.026 163.346 160.563 163.346Z" fill="#FFCA2B"/>
<path d="M153.327 163.346C154.864 163.346 156.11 162.1 156.11 160.563C156.11 159.026 154.864 157.78 153.327 157.78C151.79 157.78 150.544 159.026 150.544 160.563C150.544 162.1 151.79 163.346 153.327 163.346Z" fill="#FFCA2B"/>
<path d="M146.092 163.346C147.629 163.346 148.875 162.1 148.875 160.563C148.875 159.026 147.629 157.78 146.092 157.78C144.555 157.78 143.309 159.026 143.309 160.563C143.309 162.1 144.555 163.346 146.092 163.346Z" fill="#FFCA2B"/>
<path d="M138.854 163.346C140.392 163.346 141.638 162.1 141.638 160.563C141.638 159.026 140.392 157.78 138.854 157.78C137.317 157.78 136.071 159.026 136.071 160.563C136.071 162.1 137.317 163.346 138.854 163.346Z" fill="#FFCA2B"/>
<path d="M175.036 156.11C176.573 156.11 177.819 154.864 177.819 153.327C177.819 151.79 176.573 150.544 175.036 150.544C173.499 150.544 172.253 151.79 172.253 153.327C172.253 154.864 173.499 156.11 175.036 156.11Z" fill="#FFCA2B"/>
<path d="M167.799 156.11C169.336 156.11 170.582 154.864 170.582 153.327C170.582 151.79 169.336 150.544 167.799 150.544C166.262 150.544 165.016 151.79 165.016 153.327C165.016 154.864 166.262 156.11 167.799 156.11Z" fill="#FFCA2B"/>
<path d="M160.563 156.11C162.101 156.11 163.347 154.864 163.347 153.327C163.347 151.79 162.101 150.544 160.563 150.544C159.026 150.544 157.78 151.79 157.78 153.327C157.78 154.864 159.026 156.11 160.563 156.11Z" fill="#FFCA2B"/>
<path d="M153.327 156.11C154.864 156.11 156.11 154.864 156.11 153.327C156.11 151.79 154.864 150.544 153.327 150.544C151.79 150.544 150.544 151.79 150.544 153.327C150.544 154.864 151.79 156.11 153.327 156.11Z" fill="#FFCA2B"/>
<path d="M146.092 156.11C147.629 156.11 148.875 154.864 148.875 153.327C148.875 151.79 147.629 150.544 146.092 150.544C144.555 150.544 143.309 151.79 143.309 153.327C143.309 154.864 144.555 156.11 146.092 156.11Z" fill="#FFCA2B"/>
<path d="M138.854 156.11C140.392 156.11 141.638 154.864 141.638 153.327C141.638 151.79 140.392 150.544 138.854 150.544C137.317 150.544 136.071 151.79 136.071 153.327C136.071 154.864 137.317 156.11 138.854 156.11Z" fill="#FFCA2B"/>
<path d="M167.799 148.874C169.336 148.874 170.582 147.628 170.582 146.091C170.582 144.553 169.336 143.307 167.799 143.307C166.262 143.307 165.016 144.553 165.016 146.091C165.016 147.628 166.262 148.874 167.799 148.874Z" fill="#FFCA2B"/>
<path d="M160.563 148.874C162.101 148.874 163.347 147.628 163.347 146.091C163.347 144.553 162.101 143.307 160.563 143.307C159.026 143.307 157.78 144.553 157.78 146.091C157.78 147.628 159.026 148.874 160.563 148.874Z" fill="#FFCA2B"/>
<path d="M153.327 148.874C154.864 148.874 156.11 147.628 156.11 146.091C156.11 144.553 154.864 143.307 153.327 143.307C151.79 143.307 150.544 144.553 150.544 146.091C150.544 147.628 151.79 148.874 153.327 148.874Z" fill="#FFCA2B"/>
<path d="M146.092 148.874C147.629 148.874 148.875 147.628 148.875 146.091C148.875 144.553 147.629 143.307 146.092 143.307C144.555 143.307 143.309 144.553 143.309 146.091C143.309 147.628 144.555 148.874 146.092 148.874Z" fill="#FFCA2B"/>
<path d="M160.563 141.638C162.101 141.638 163.347 140.392 163.347 138.854C163.347 137.317 162.101 136.071 160.563 136.071C159.026 136.071 157.78 137.317 157.78 138.854C157.78 140.392 159.026 141.638 160.563 141.638Z" fill="#FFCA2B"/>
<path d="M153.327 141.638C154.864 141.638 156.11 140.392 156.11 138.854C156.11 137.317 154.864 136.071 153.327 136.071C151.79 136.071 150.544 137.317 150.544 138.854C150.544 140.392 151.79 141.638 153.327 141.638Z" fill="#FFCA2B"/>
<path d="M131.619 148.874C133.156 148.874 134.402 147.628 134.402 146.091C134.402 144.553 133.156 143.307 131.619 143.307C130.082 143.307 128.836 144.553 128.836 146.091C128.836 147.628 130.082 148.874 131.619 148.874Z" fill="#FFCA2B"/>
<path d="M138.854 141.637C140.392 141.637 141.638 140.391 141.638 138.854C141.638 137.317 140.392 136.071 138.854 136.071C137.317 136.071 136.071 137.317 136.071 138.854C136.071 140.391 137.317 141.637 138.854 141.637Z" fill="#FFCA2B"/>
<path d="M124.382 141.637C125.919 141.637 127.165 140.391 127.165 138.854C127.165 137.317 125.919 136.071 124.382 136.071C122.845 136.071 121.599 137.317 121.599 138.854C121.599 140.391 122.845 141.637 124.382 141.637Z" fill="#FFCA2B"/>
<path d="M138.854 134.401C140.392 134.401 141.638 133.155 141.638 131.618C141.638 130.081 140.392 128.835 138.854 128.835C137.317 128.835 136.071 130.081 136.071 131.618C136.071 133.155 137.317 134.401 138.854 134.401Z" fill="#FFCA2B"/>
<path d="M124.382 148.874C125.919 148.874 127.165 147.628 127.165 146.091C127.165 144.553 125.919 143.307 124.382 143.307C122.845 143.307 121.599 144.553 121.599 146.091C121.599 147.628 122.845 148.874 124.382 148.874Z" fill="#FFCA2B"/>
<path d="M131.619 141.637C133.156 141.637 134.402 140.391 134.402 138.854C134.402 137.317 133.156 136.071 131.619 136.071C130.082 136.071 128.836 137.317 128.836 138.854C128.836 140.391 130.082 141.637 131.619 141.637Z" fill="#FFCA2B"/>
<path d="M117.145 141.637C118.683 141.637 119.929 140.391 119.929 138.854C119.929 137.317 118.683 136.071 117.145 136.071C115.608 136.071 114.362 137.317 114.362 138.854C114.362 140.391 115.608 141.637 117.145 141.637Z" fill="#FFCA2B"/>
<path d="M146.092 134.401C147.629 134.401 148.875 133.155 148.875 131.618C148.875 130.081 147.629 128.835 146.092 128.835C144.555 128.835 143.309 130.081 143.309 131.618C143.309 133.155 144.555 134.401 146.092 134.401Z" fill="#FFCA2B"/>
<path d="M131.619 134.401C133.156 134.401 134.402 133.155 134.402 131.618C134.402 130.081 133.156 128.835 131.619 128.835C130.082 128.835 128.836 130.081 128.836 131.618C128.836 133.155 130.082 134.401 131.619 134.401Z" fill="#FFCA2B"/>
<path d="M124.382 134.401C125.919 134.401 127.165 133.155 127.165 131.618C127.165 130.081 125.919 128.835 124.382 128.835C122.845 128.835 121.599 130.081 121.599 131.618C121.599 133.155 122.845 134.401 124.382 134.401Z" fill="#FFCA2B"/>
<path d="M117.145 134.401C118.683 134.401 119.929 133.155 119.929 131.618C119.929 130.081 118.683 128.835 117.145 128.835C115.608 128.835 114.362 130.081 114.362 131.618C114.362 133.155 115.608 134.401 117.145 134.401Z" fill="#FFCA2B"/>
<path d="M109.91 134.401C111.447 134.401 112.693 133.155 112.693 131.618C112.693 130.081 111.447 128.835 109.91 128.835C108.373 128.835 107.127 130.081 107.127 131.618C107.127 133.155 108.373 134.401 109.91 134.401Z" fill="#FFCA2B"/>
<path d="M146.092 127.165C147.629 127.165 148.875 125.919 148.875 124.382C148.875 122.845 147.629 121.599 146.092 121.599C144.555 121.599 143.309 122.845 143.309 124.382C143.309 125.919 144.555 127.165 146.092 127.165Z" fill="#FFCA2B"/>
<path d="M138.854 127.165C140.392 127.165 141.638 125.919 141.638 124.382C141.638 122.845 140.392 121.599 138.854 121.599C137.317 121.599 136.071 122.845 136.071 124.382C136.071 125.919 137.317 127.165 138.854 127.165Z" fill="#FFCA2B"/>
<path d="M131.619 127.165C133.156 127.165 134.402 125.919 134.402 124.382C134.402 122.845 133.156 121.599 131.619 121.599C130.082 121.599 128.836 122.845 128.836 124.382C128.836 125.919 130.082 127.165 131.619 127.165Z" fill="#FFCA2B"/>
<path d="M124.382 127.165C125.919 127.165 127.165 125.919 127.165 124.382C127.165 122.845 125.919 121.599 124.382 121.599C122.845 121.599 121.599 122.845 121.599 124.382C121.599 125.919 122.845 127.165 124.382 127.165Z" fill="#FFCA2B"/>
<path d="M117.145 127.165C118.683 127.165 119.929 125.919 119.929 124.382C119.929 122.845 118.683 121.599 117.145 121.599C115.608 121.599 114.362 122.845 114.362 124.382C114.362 125.919 115.608 127.165 117.145 127.165Z" fill="#FFCA2B"/>
<path d="M109.91 127.165C111.447 127.165 112.693 125.919 112.693 124.382C112.693 122.845 111.447 121.599 109.91 121.599C108.373 121.599 107.127 122.845 107.127 124.382C107.127 125.919 108.373 127.165 109.91 127.165Z" fill="#FFCA2B"/>
<path d="M138.854 119.929C140.392 119.929 141.638 118.683 141.638 117.146C141.638 115.609 140.392 114.363 138.854 114.363C137.317 114.363 136.071 115.609 136.071 117.146C136.071 118.683 137.317 119.929 138.854 119.929Z" fill="#FFCA2B"/>
<path d="M131.619 119.929C133.156 119.929 134.402 118.683 134.402 117.145C134.402 115.608 133.156 114.362 131.619 114.362C130.082 114.362 128.836 115.608 128.836 117.145C128.836 118.683 130.082 119.929 131.619 119.929Z" fill="#FFCA2B"/>
<path d="M124.382 119.929C125.919 119.929 127.165 118.683 127.165 117.146C127.165 115.609 125.919 114.363 124.382 114.363C122.845 114.363 121.599 115.609 121.599 117.146C121.599 118.683 122.845 119.929 124.382 119.929Z" fill="#FFCA2B"/>
<path d="M117.145 119.929C118.683 119.929 119.929 118.683 119.929 117.145C119.929 115.608 118.683 114.362 117.145 114.362C115.608 114.362 114.362 115.608 114.362 117.145C114.362 118.683 115.608 119.929 117.145 119.929Z" fill="#FFCA2B"/>
<path d="M131.619 112.693C133.156 112.693 134.402 111.446 134.402 109.909C134.402 108.372 133.156 107.126 131.619 107.126C130.082 107.126 128.836 108.372 128.836 109.909C128.836 111.446 130.082 112.693 131.619 112.693Z" fill="#FFCA2B"/>
<path d="M124.382 112.693C125.919 112.693 127.165 111.446 127.165 109.909C127.165 108.372 125.919 107.126 124.382 107.126C122.845 107.126 121.599 108.372 121.599 109.909C121.599 111.446 122.845 112.693 124.382 112.693Z" fill="#FFCA2B"/>
<path d="M160.563 119.929C162.101 119.929 163.347 118.683 163.347 117.146C163.347 115.609 162.101 114.363 160.563 114.363C159.026 114.363 157.78 115.609 157.78 117.146C157.78 118.683 159.026 119.929 160.563 119.929Z" fill="#FFCA2B"/>
<path d="M153.327 119.929C154.864 119.929 156.11 118.683 156.11 117.146C156.11 115.609 154.864 114.363 153.327 114.363C151.79 114.363 150.544 115.609 150.544 117.146C150.544 118.683 151.79 119.929 153.327 119.929Z" fill="#FFCA2B"/>
<path d="M167.799 112.693C169.336 112.693 170.582 111.446 170.582 109.909C170.582 108.372 169.336 107.126 167.799 107.126C166.262 107.126 165.016 108.372 165.016 109.909C165.016 111.446 166.262 112.693 167.799 112.693Z" fill="#FFCA2B"/>
<path d="M160.563 112.693C162.101 112.693 163.347 111.446 163.347 109.909C163.347 108.372 162.101 107.126 160.563 107.126C159.026 107.126 157.78 108.372 157.78 109.909C157.78 111.446 159.026 112.693 160.563 112.693Z" fill="#FFCA2B"/>
<path d="M153.327 112.693C154.864 112.693 156.11 111.446 156.11 109.909C156.11 108.372 154.864 107.126 153.327 107.126C151.79 107.126 150.544 108.372 150.544 109.909C150.544 111.446 151.79 112.693 153.327 112.693Z" fill="#FFCA2B"/>
<path d="M146.092 112.693C147.629 112.693 148.875 111.446 148.875 109.909C148.875 108.372 147.629 107.126 146.092 107.126C144.555 107.126 143.309 108.372 143.309 109.909C143.309 111.446 144.555 112.693 146.092 112.693Z" fill="#FFCA2B"/>
<path d="M175.036 105.456C176.573 105.456 177.819 104.21 177.819 102.673C177.819 101.136 176.573 99.8901 175.036 99.8901C173.499 99.8901 172.253 101.136 172.253 102.673C172.253 104.21 173.499 105.456 175.036 105.456Z" fill="#FFCA2B"/>
<path d="M167.799 105.456C169.336 105.456 170.582 104.21 170.582 102.673C170.582 101.136 169.336 99.8899 167.799 99.8899C166.262 99.8899 165.016 101.136 165.016 102.673C165.016 104.21 166.262 105.456 167.799 105.456Z" fill="#FFCA2B"/>
<path d="M160.563 105.456C162.101 105.456 163.347 104.21 163.347 102.673C163.347 101.136 162.101 99.8901 160.563 99.8901C159.026 99.8901 157.78 101.136 157.78 102.673C157.78 104.21 159.026 105.456 160.563 105.456Z" fill="#FFCA2B"/>
<path d="M153.327 105.456C154.864 105.456 156.11 104.21 156.11 102.673C156.11 101.136 154.864 99.8901 153.327 99.8901C151.79 99.8901 150.544 101.136 150.544 102.673C150.544 104.21 151.79 105.456 153.327 105.456Z" fill="#FFCA2B"/>
<path d="M146.092 105.456C147.629 105.456 148.875 104.21 148.875 102.673C148.875 101.136 147.629 99.8899 146.092 99.8899C144.555 99.8899 143.309 101.136 143.309 102.673C143.309 104.21 144.555 105.456 146.092 105.456Z" fill="#FFCA2B"/>
<path d="M138.854 105.456C140.392 105.456 141.638 104.21 141.638 102.673C141.638 101.136 140.392 99.8901 138.854 99.8901C137.317 99.8901 136.071 101.136 136.071 102.673C136.071 104.21 137.317 105.456 138.854 105.456Z" fill="#FFCA2B"/>
<path d="M182.272 98.2202C183.81 98.2202 185.056 96.9741 185.056 95.437C185.056 93.8999 183.81 92.6538 182.272 92.6538C180.735 92.6538 179.489 93.8999 179.489 95.437C179.489 96.9741 180.735 98.2202 182.272 98.2202Z" fill="#FFCA2B"/>
<path d="M175.036 98.2202C176.573 98.2202 177.819 96.9741 177.819 95.437C177.819 93.8999 176.573 92.6538 175.036 92.6538C173.499 92.6538 172.253 93.8999 172.253 95.437C172.253 96.9741 173.499 98.2202 175.036 98.2202Z" fill="#FFCA2B"/>
<path d="M167.799 98.2202C169.336 98.2202 170.582 96.9741 170.582 95.437C170.582 93.8999 169.336 92.6538 167.799 92.6538C166.262 92.6538 165.016 93.8999 165.016 95.437C165.016 96.9741 166.262 98.2202 167.799 98.2202Z" fill="#FFCA2B"/>
<path d="M160.563 98.2202C162.101 98.2202 163.347 96.9741 163.347 95.437C163.347 93.8999 162.101 92.6538 160.563 92.6538C159.026 92.6538 157.78 93.8999 157.78 95.437C157.78 96.9741 159.026 98.2202 160.563 98.2202Z" fill="#FFCA2B"/>
<path d="M153.327 98.2202C154.864 98.2202 156.11 96.9741 156.11 95.437C156.11 93.8999 154.864 92.6538 153.327 92.6538C151.79 92.6538 150.544 93.8999 150.544 95.437C150.544 96.9741 151.79 98.2202 153.327 98.2202Z" fill="#FFCA2B"/>
<path d="M146.092 98.2202C147.629 98.2202 148.875 96.9741 148.875 95.437C148.875 93.8999 147.629 92.6538 146.092 92.6538C144.555 92.6538 143.309 93.8999 143.309 95.437C143.309 96.9741 144.555 98.2202 146.092 98.2202Z" fill="#FFCA2B"/>
<path d="M138.854 98.2202C140.392 98.2202 141.638 96.9741 141.638 95.437C141.638 93.8999 140.392 92.6538 138.854 92.6538C137.317 92.6538 136.071 93.8999 136.071 95.437C136.071 96.9741 137.317 98.2202 138.854 98.2202Z" fill="#FFCA2B"/>
<path d="M189.508 90.9836C191.045 90.9836 192.291 89.7375 192.291 88.2004C192.291 86.6633 191.045 85.4172 189.508 85.4172C187.971 85.4172 186.725 86.6633 186.725 88.2004C186.725 89.7375 187.971 90.9836 189.508 90.9836Z" fill="#FFCA2B"/>
<path d="M182.272 90.9836C183.81 90.9836 185.056 89.7375 185.056 88.2004C185.056 86.6633 183.81 85.4172 182.272 85.4172C180.735 85.4172 179.489 86.6633 179.489 88.2004C179.489 89.7375 180.735 90.9836 182.272 90.9836Z" fill="#FFCA2B"/>
<path d="M175.036 90.9838C176.573 90.9838 177.819 89.7378 177.819 88.2007C177.819 86.6635 176.573 85.4175 175.036 85.4175C173.499 85.4175 172.253 86.6635 172.253 88.2007C172.253 89.7378 173.499 90.9838 175.036 90.9838Z" fill="#FFCA2B"/>
<path d="M167.799 90.9836C169.336 90.9836 170.582 89.7375 170.582 88.2004C170.582 86.6633 169.336 85.4172 167.799 85.4172C166.262 85.4172 165.016 86.6633 165.016 88.2004C165.016 89.7375 166.262 90.9836 167.799 90.9836Z" fill="#FFCA2B"/>
<path d="M160.563 90.9838C162.101 90.9838 163.347 89.7378 163.347 88.2007C163.347 86.6635 162.101 85.4175 160.563 85.4175C159.026 85.4175 157.78 86.6635 157.78 88.2007C157.78 89.7378 159.026 90.9838 160.563 90.9838Z" fill="#FFCA2B"/>
<path d="M153.327 90.9838C154.864 90.9838 156.11 89.7378 156.11 88.2007C156.11 86.6635 154.864 85.4175 153.327 85.4175C151.79 85.4175 150.544 86.6635 150.544 88.2007C150.544 89.7378 151.79 90.9838 153.327 90.9838Z" fill="#FFCA2B"/>
<path d="M146.092 90.9836C147.629 90.9836 148.875 89.7375 148.875 88.2004C148.875 86.6633 147.629 85.4172 146.092 85.4172C144.555 85.4172 143.309 86.6633 143.309 88.2004C143.309 89.7375 144.555 90.9836 146.092 90.9836Z" fill="#FFCA2B"/>
<path d="M196.745 83.7475C198.282 83.7475 199.528 82.5014 199.528 80.9643C199.528 79.4272 198.282 78.1812 196.745 78.1812C195.208 78.1812 193.962 79.4272 193.962 80.9643C193.962 82.5014 195.208 83.7475 196.745 83.7475Z" fill="#FFCA2B"/>
<path d="M189.508 83.7475C191.045 83.7475 192.291 82.5014 192.291 80.9643C192.291 79.4272 191.045 78.1812 189.508 78.1812C187.971 78.1812 186.725 79.4272 186.725 80.9643C186.725 82.5014 187.971 83.7475 189.508 83.7475Z" fill="#FFCA2B"/>
<path d="M182.272 83.7475C183.81 83.7475 185.056 82.5014 185.056 80.9643C185.056 79.4272 183.81 78.1812 182.272 78.1812C180.735 78.1812 179.489 79.4272 179.489 80.9643C179.489 82.5014 180.735 83.7475 182.272 83.7475Z" fill="#FFCA2B"/>
<path d="M175.036 83.7475C176.573 83.7475 177.819 82.5014 177.819 80.9643C177.819 79.4272 176.573 78.1812 175.036 78.1812C173.499 78.1812 172.253 79.4272 172.253 80.9643C172.253 82.5014 173.499 83.7475 175.036 83.7475Z" fill="#FFCA2B"/>
<path d="M167.799 83.7475C169.336 83.7475 170.582 82.5014 170.582 80.9643C170.582 79.4272 169.336 78.1812 167.799 78.1812C166.262 78.1812 165.016 79.4272 165.016 80.9643C165.016 82.5014 166.262 83.7475 167.799 83.7475Z" fill="#FFCA2B"/>
<path d="M160.563 83.7475C162.101 83.7475 163.347 82.5014 163.347 80.9643C163.347 79.4272 162.101 78.1812 160.563 78.1812C159.026 78.1812 157.78 79.4272 157.78 80.9643C157.78 82.5014 159.026 83.7475 160.563 83.7475Z" fill="#FFCA2B"/>
<path d="M153.327 83.7475C154.864 83.7475 156.11 82.5014 156.11 80.9643C156.11 79.4272 154.864 78.1812 153.327 78.1812C151.79 78.1812 150.544 79.4272 150.544 80.9643C150.544 82.5014 151.79 83.7475 153.327 83.7475Z" fill="#FFCA2B"/>
<path d="M203.981 76.5114C205.519 76.5114 206.765 75.2653 206.765 73.7282C206.765 72.1911 205.519 70.9451 203.981 70.9451C202.444 70.9451 201.198 72.1911 201.198 73.7282C201.198 75.2653 202.444 76.5114 203.981 76.5114Z" fill="#FFCA2B"/>
<path d="M196.745 76.5114C198.282 76.5114 199.528 75.2653 199.528 73.7282C199.528 72.1911 198.282 70.9451 196.745 70.9451C195.208 70.9451 193.962 72.1911 193.962 73.7282C193.962 75.2653 195.208 76.5114 196.745 76.5114Z" fill="#FFCA2B"/>
<path d="M189.508 76.5114C191.045 76.5114 192.291 75.2653 192.291 73.7282C192.291 72.1911 191.045 70.9451 189.508 70.9451C187.971 70.9451 186.725 72.1911 186.725 73.7282C186.725 75.2653 187.971 76.5114 189.508 76.5114Z" fill="#FFCA2B"/>
<path d="M182.272 76.5114C183.81 76.5114 185.056 75.2653 185.056 73.7282C185.056 72.1911 183.81 70.9451 182.272 70.9451C180.735 70.9451 179.489 72.1911 179.489 73.7282C179.489 75.2653 180.735 76.5114 182.272 76.5114Z" fill="#FFCA2B"/>
<path d="M175.036 76.5112C176.573 76.5112 177.819 75.2651 177.819 73.728C177.819 72.1909 176.573 70.9448 175.036 70.9448C173.499 70.9448 172.253 72.1909 172.253 73.728C172.253 75.2651 173.499 76.5112 175.036 76.5112Z" fill="#FFCA2B"/>
<path d="M167.799 76.5114C169.336 76.5114 170.582 75.2653 170.582 73.7282C170.582 72.1911 169.336 70.9451 167.799 70.9451C166.262 70.9451 165.016 72.1911 165.016 73.7282C165.016 75.2653 166.262 76.5114 167.799 76.5114Z" fill="#FFCA2B"/>
<path d="M160.563 76.5112C162.101 76.5112 163.347 75.2651 163.347 73.728C163.347 72.1909 162.101 70.9448 160.563 70.9448C159.026 70.9448 157.78 72.1909 157.78 73.728C157.78 75.2651 159.026 76.5112 160.563 76.5112Z" fill="#FFCA2B"/>
<path d="M211.217 69.2751C212.754 69.2751 214 68.029 214 66.4919C214 64.9548 212.754 63.7087 211.217 63.7087C209.68 63.7087 208.434 64.9548 208.434 66.4919C208.434 68.029 209.68 69.2751 211.217 69.2751Z" fill="#FFCA2B"/>
<path d="M203.981 69.2751C205.519 69.2751 206.765 68.029 206.765 66.4919C206.765 64.9548 205.519 63.7087 203.981 63.7087C202.444 63.7087 201.198 64.9548 201.198 66.4919C201.198 68.029 202.444 69.2751 203.981 69.2751Z" fill="#FFCA2B"/>
<path d="M196.745 69.2751C198.282 69.2751 199.528 68.029 199.528 66.4919C199.528 64.9548 198.282 63.7087 196.745 63.7087C195.208 63.7087 193.962 64.9548 193.962 66.4919C193.962 68.029 195.208 69.2751 196.745 69.2751Z" fill="#FFCA2B"/>
<path d="M189.508 69.2751C191.045 69.2751 192.291 68.029 192.291 66.4919C192.291 64.9548 191.045 63.7087 189.508 63.7087C187.971 63.7087 186.725 64.9548 186.725 66.4919C186.725 68.029 187.971 69.2751 189.508 69.2751Z" fill="#FFCA2B"/>
<path d="M182.272 69.2751C183.81 69.2751 185.056 68.029 185.056 66.4919C185.056 64.9548 183.81 63.7087 182.272 63.7087C180.735 63.7087 179.489 64.9548 179.489 66.4919C179.489 68.029 180.735 69.2751 182.272 69.2751Z" fill="#FFCA2B"/>
<path d="M175.036 69.2751C176.573 69.2751 177.819 68.029 177.819 66.4919C177.819 64.9548 176.573 63.7087 175.036 63.7087C173.499 63.7087 172.253 64.9548 172.253 66.4919C172.253 68.029 173.499 69.2751 175.036 69.2751Z" fill="#FFCA2B"/>
<path d="M167.799 69.2751C169.336 69.2751 170.582 68.029 170.582 66.4919C170.582 64.9548 169.336 63.7087 167.799 63.7087C166.262 63.7087 165.016 64.9548 165.016 66.4919C165.016 68.029 166.262 69.2751 167.799 69.2751Z" fill="#FFCA2B"/>
<path d="M203.981 62.0388C205.519 62.0388 206.765 60.7927 206.765 59.2556C206.765 57.7185 205.519 56.4724 203.981 56.4724C202.444 56.4724 201.198 57.7185 201.198 59.2556C201.198 60.7927 202.444 62.0388 203.981 62.0388Z" fill="#FFCA2B"/>
<path d="M196.745 62.0388C198.282 62.0388 199.528 60.7927 199.528 59.2556C199.528 57.7185 198.282 56.4724 196.745 56.4724C195.208 56.4724 193.962 57.7185 193.962 59.2556C193.962 60.7927 195.208 62.0388 196.745 62.0388Z" fill="#FFCA2B"/>
<path d="M189.508 62.0388C191.045 62.0388 192.291 60.7927 192.291 59.2556C192.291 57.7185 191.045 56.4724 189.508 56.4724C187.971 56.4724 186.725 57.7185 186.725 59.2556C186.725 60.7927 187.971 62.0388 189.508 62.0388Z" fill="#FFCA2B"/>
<path d="M182.272 62.0388C183.81 62.0388 185.056 60.7927 185.056 59.2556C185.056 57.7185 183.81 56.4724 182.272 56.4724C180.735 56.4724 179.489 57.7185 179.489 59.2556C179.489 60.7927 180.735 62.0388 182.272 62.0388Z" fill="#FFCA2B"/>
<path d="M175.036 62.0388C176.573 62.0388 177.819 60.7927 177.819 59.2556C177.819 57.7185 176.573 56.4724 175.036 56.4724C173.499 56.4724 172.253 57.7185 172.253 59.2556C172.253 60.7927 173.499 62.0388 175.036 62.0388Z" fill="#FFCA2B"/>
<path d="M196.745 54.8024C198.282 54.8024 199.528 53.5564 199.528 52.0193C199.528 50.4822 198.282 49.2361 196.745 49.2361C195.208 49.2361 193.962 50.4822 193.962 52.0193C193.962 53.5564 195.208 54.8024 196.745 54.8024Z" fill="#FFCA2B"/>
<path d="M189.508 54.8024C191.045 54.8024 192.291 53.5564 192.291 52.0193C192.291 50.4822 191.045 49.2361 189.508 49.2361C187.971 49.2361 186.725 50.4822 186.725 52.0193C186.725 53.5564 187.971 54.8024 189.508 54.8024Z" fill="#FFCA2B"/>
<path d="M182.272 54.8024C183.81 54.8024 185.056 53.5564 185.056 52.0193C185.056 50.4822 183.81 49.2361 182.272 49.2361C180.735 49.2361 179.489 50.4822 179.489 52.0193C179.489 53.5564 180.735 54.8024 182.272 54.8024Z" fill="#FFCA2B"/>
<path d="M189.508 47.5663C191.045 47.5663 192.291 46.3203 192.291 44.7832C192.291 43.2461 191.045 42 189.508 42C187.971 42 186.725 43.2461 186.725 44.7832C186.725 46.3203 187.971 47.5663 189.508 47.5663Z" fill="#FFCA2B"/>
<path d="M95.4365 119.929C96.9736 119.929 98.2197 118.683 98.2197 117.145C98.2197 115.608 96.9736 114.362 95.4365 114.362C93.8994 114.362 92.6533 115.608 92.6533 117.145C92.6533 118.683 93.8994 119.929 95.4365 119.929Z" fill="#FFCA2B"/>
<path d="M102.673 112.693C104.21 112.693 105.456 111.446 105.456 109.909C105.456 108.372 104.21 107.126 102.673 107.126C101.136 107.126 99.8896 108.372 99.8896 109.909C99.8896 111.446 101.136 112.693 102.673 112.693Z" fill="#FFCA2B"/>
<path d="M95.4365 112.693C96.9736 112.693 98.2197 111.446 98.2197 109.909C98.2197 108.372 96.9736 107.126 95.4365 107.126C93.8994 107.126 92.6533 108.372 92.6533 109.909C92.6533 111.446 93.8994 112.693 95.4365 112.693Z" fill="#FFCA2B"/>
<path d="M88.2011 112.693C89.7382 112.693 90.9843 111.446 90.9843 109.909C90.9843 108.372 89.7382 107.126 88.2011 107.126C86.664 107.126 85.418 108.372 85.418 109.909C85.418 111.446 86.664 112.693 88.2011 112.693Z" fill="#FFCA2B"/>
<path d="M109.91 105.456C111.447 105.456 112.693 104.21 112.693 102.673C112.693 101.136 111.447 99.8899 109.91 99.8899C108.373 99.8899 107.127 101.136 107.127 102.673C107.127 104.21 108.373 105.456 109.91 105.456Z" fill="#FFCA2B"/>
<path d="M117.145 105.456C118.683 105.456 119.929 104.21 119.929 102.673C119.929 101.136 118.683 99.8901 117.145 99.8901C115.608 99.8901 114.362 101.136 114.362 102.673C114.362 104.21 115.608 105.456 117.145 105.456Z" fill="#FFCA2B"/>
<path d="M109.91 112.693C111.447 112.693 112.693 111.446 112.693 109.909C112.693 108.372 111.447 107.126 109.91 107.126C108.373 107.126 107.127 108.372 107.127 109.909C107.127 111.446 108.373 112.693 109.91 112.693Z" fill="#FFCA2B"/>
<path d="M102.673 119.929C104.21 119.929 105.456 118.683 105.456 117.146C105.456 115.609 104.21 114.363 102.673 114.363C101.136 114.363 99.8896 115.609 99.8896 117.146C99.8896 118.683 101.136 119.929 102.673 119.929Z" fill="#FFCA2B"/>
<path d="M102.673 105.456C104.21 105.456 105.456 104.21 105.456 102.673C105.456 101.136 104.21 99.8901 102.673 99.8901C101.136 99.8901 99.8896 101.136 99.8896 102.673C99.8896 104.21 101.136 105.456 102.673 105.456Z" fill="#FFCA2B"/>
<path d="M95.4365 105.456C96.9736 105.456 98.2197 104.21 98.2197 102.673C98.2197 101.136 96.9736 99.8899 95.4365 99.8899C93.8994 99.8899 92.6533 101.136 92.6533 102.673C92.6533 104.21 93.8994 105.456 95.4365 105.456Z" fill="#FFCA2B"/>
<path d="M88.2011 105.456C89.7382 105.456 90.9843 104.21 90.9843 102.673C90.9843 101.136 89.7382 99.8899 88.2011 99.8899C86.664 99.8899 85.418 101.136 85.418 102.673C85.418 104.21 86.664 105.456 88.2011 105.456Z" fill="#FFCA2B"/>
<path d="M80.9648 105.456C82.5019 105.456 83.748 104.21 83.748 102.673C83.748 101.136 82.5019 99.8901 80.9648 99.8901C79.4277 99.8901 78.1816 101.136 78.1816 102.673C78.1816 104.21 79.4277 105.456 80.9648 105.456Z" fill="#FFCA2B"/>
<path d="M117.145 98.2202C118.683 98.2202 119.929 96.9741 119.929 95.437C119.929 93.8999 118.683 92.6538 117.145 92.6538C115.608 92.6538 114.362 93.8999 114.362 95.437C114.362 96.9741 115.608 98.2202 117.145 98.2202Z" fill="#FFCA2B"/>
<path d="M109.91 98.2202C111.447 98.2202 112.693 96.9741 112.693 95.437C112.693 93.8999 111.447 92.6538 109.91 92.6538C108.373 92.6538 107.127 93.8999 107.127 95.437C107.127 96.9741 108.373 98.2202 109.91 98.2202Z" fill="#FFCA2B"/>
<path d="M102.673 98.2202C104.21 98.2202 105.456 96.9741 105.456 95.437C105.456 93.8999 104.21 92.6538 102.673 92.6538C101.136 92.6538 99.8896 93.8999 99.8896 95.437C99.8896 96.9741 101.136 98.2202 102.673 98.2202Z" fill="#FFCA2B"/>
<path d="M95.4365 98.2202C96.9736 98.2202 98.2197 96.9741 98.2197 95.437C98.2197 93.8999 96.9736 92.6538 95.4365 92.6538C93.8994 92.6538 92.6533 93.8999 92.6533 95.437C92.6533 96.9741 93.8994 98.2202 95.4365 98.2202Z" fill="#FFCA2B"/>
<path d="M88.2011 98.2202C89.7382 98.2202 90.9843 96.9741 90.9843 95.437C90.9843 93.8999 89.7382 92.6538 88.2011 92.6538C86.664 92.6538 85.418 93.8999 85.418 95.437C85.418 96.9741 86.664 98.2202 88.2011 98.2202Z" fill="#FFCA2B"/>
<path d="M80.9648 98.2202C82.5019 98.2202 83.748 96.9741 83.748 95.437C83.748 93.8999 82.5019 92.6538 80.9648 92.6538C79.4277 92.6538 78.1816 93.8999 78.1816 95.437C78.1816 96.9741 79.4277 98.2202 80.9648 98.2202Z" fill="#FFCA2B"/>
<path d="M73.7275 98.2202C75.2646 98.2202 76.5107 96.9741 76.5107 95.437C76.5107 93.8999 75.2646 92.6538 73.7275 92.6538C72.1904 92.6538 70.9443 93.8999 70.9443 95.437C70.9443 96.9741 72.1904 98.2202 73.7275 98.2202Z" fill="#FFCA2B"/>
<path d="M109.91 90.9836C111.447 90.9836 112.693 89.7375 112.693 88.2004C112.693 86.6633 111.447 85.4172 109.91 85.4172C108.373 85.4172 107.127 86.6633 107.127 88.2004C107.127 89.7375 108.373 90.9836 109.91 90.9836Z" fill="#FFCA2B"/>
<path d="M102.673 90.9838C104.21 90.9838 105.456 89.7378 105.456 88.2007C105.456 86.6635 104.21 85.4175 102.673 85.4175C101.136 85.4175 99.8896 86.6635 99.8896 88.2007C99.8896 89.7378 101.136 90.9838 102.673 90.9838Z" fill="#FFCA2B"/>
<path d="M95.4365 90.9836C96.9736 90.9836 98.2197 89.7375 98.2197 88.2004C98.2197 86.6633 96.9736 85.4172 95.4365 85.4172C93.8994 85.4172 92.6533 86.6633 92.6533 88.2004C92.6533 89.7375 93.8994 90.9836 95.4365 90.9836Z" fill="#FFCA2B"/>
<path d="M88.2011 90.9836C89.7382 90.9836 90.9843 89.7375 90.9843 88.2004C90.9843 86.6633 89.7382 85.4172 88.2011 85.4172C86.664 85.4172 85.418 86.6633 85.418 88.2004C85.418 89.7375 86.664 90.9836 88.2011 90.9836Z" fill="#FFCA2B"/>
<path d="M80.9648 90.9838C82.5019 90.9838 83.748 89.7378 83.748 88.2007C83.748 86.6635 82.5019 85.4175 80.9648 85.4175C79.4277 85.4175 78.1816 86.6635 78.1816 88.2007C78.1816 89.7378 79.4277 90.9838 80.9648 90.9838Z" fill="#FFCA2B"/>
<path d="M73.7275 90.9836C75.2646 90.9836 76.5107 89.7375 76.5107 88.2004C76.5107 86.6633 75.2646 85.4172 73.7275 85.4172C72.1904 85.4172 70.9443 86.6633 70.9443 88.2004C70.9443 89.7375 72.1904 90.9836 73.7275 90.9836Z" fill="#FFCA2B"/>
<path d="M66.4922 90.9838C68.0293 90.9838 69.2753 89.7378 69.2753 88.2007C69.2753 86.6635 68.0293 85.4175 66.4922 85.4175C64.9551 85.4175 63.709 86.6635 63.709 88.2007C63.709 89.7378 64.9551 90.9838 66.4922 90.9838Z" fill="#FFCA2B"/>
<path d="M102.673 83.7475C104.21 83.7475 105.456 82.5014 105.456 80.9643C105.456 79.4272 104.21 78.1812 102.673 78.1812C101.136 78.1812 99.8896 79.4272 99.8896 80.9643C99.8896 82.5014 101.136 83.7475 102.673 83.7475Z" fill="#FFCA2B"/>
<path d="M95.4365 83.7475C96.9736 83.7475 98.2197 82.5014 98.2197 80.9643C98.2197 79.4272 96.9736 78.1812 95.4365 78.1812C93.8994 78.1812 92.6533 79.4272 92.6533 80.9643C92.6533 82.5014 93.8994 83.7475 95.4365 83.7475Z" fill="#FFCA2B"/>
<path d="M88.2011 83.7475C89.7382 83.7475 90.9843 82.5014 90.9843 80.9643C90.9843 79.4272 89.7382 78.1812 88.2011 78.1812C86.664 78.1812 85.418 79.4272 85.418 80.9643C85.418 82.5014 86.664 83.7475 88.2011 83.7475Z" fill="#FFCA2B"/>
<path d="M80.9648 83.7475C82.5019 83.7475 83.748 82.5014 83.748 80.9643C83.748 79.4272 82.5019 78.1812 80.9648 78.1812C79.4277 78.1812 78.1816 79.4272 78.1816 80.9643C78.1816 82.5014 79.4277 83.7475 80.9648 83.7475Z" fill="#FFCA2B"/>
<path d="M73.7275 83.7475C75.2646 83.7475 76.5107 82.5014 76.5107 80.9643C76.5107 79.4272 75.2646 78.1812 73.7275 78.1812C72.1904 78.1812 70.9443 79.4272 70.9443 80.9643C70.9443 82.5014 72.1904 83.7475 73.7275 83.7475Z" fill="#FFCA2B"/>
<path d="M66.4922 83.7475C68.0293 83.7475 69.2753 82.5014 69.2753 80.9643C69.2753 79.4272 68.0293 78.1812 66.4922 78.1812C64.9551 78.1812 63.709 79.4272 63.709 80.9643C63.709 82.5014 64.9551 83.7475 66.4922 83.7475Z" fill="#FFCA2B"/>
<path d="M59.2558 83.7475C60.7929 83.7475 62.039 82.5014 62.039 80.9643C62.039 79.4272 60.7929 78.1812 59.2558 78.1812C57.7187 78.1812 56.4727 79.4272 56.4727 80.9643C56.4727 82.5014 57.7187 83.7475 59.2558 83.7475Z" fill="#FFCA2B"/>
<path d="M95.4365 76.5114C96.9736 76.5114 98.2197 75.2653 98.2197 73.7282C98.2197 72.1911 96.9736 70.9451 95.4365 70.9451C93.8994 70.9451 92.6533 72.1911 92.6533 73.7282C92.6533 75.2653 93.8994 76.5114 95.4365 76.5114Z" fill="#FFCA2B"/>
<path d="M88.2011 76.5114C89.7382 76.5114 90.9843 75.2653 90.9843 73.7282C90.9843 72.1911 89.7382 70.9451 88.2011 70.9451C86.664 70.9451 85.418 72.1911 85.418 73.7282C85.418 75.2653 86.664 76.5114 88.2011 76.5114Z" fill="#FFCA2B"/>
<path d="M80.9648 76.5112C82.5019 76.5112 83.748 75.2651 83.748 73.728C83.748 72.1909 82.5019 70.9448 80.9648 70.9448C79.4277 70.9448 78.1816 72.1909 78.1816 73.728C78.1816 75.2651 79.4277 76.5112 80.9648 76.5112Z" fill="#FFCA2B"/>
<path d="M73.7275 76.5114C75.2646 76.5114 76.5107 75.2653 76.5107 73.7282C76.5107 72.1911 75.2646 70.9451 73.7275 70.9451C72.1904 70.9451 70.9443 72.1911 70.9443 73.7282C70.9443 75.2653 72.1904 76.5114 73.7275 76.5114Z" fill="#FFCA2B"/>
<path d="M66.4922 76.5112C68.0293 76.5112 69.2753 75.2651 69.2753 73.728C69.2753 72.1909 68.0293 70.9448 66.4922 70.9448C64.9551 70.9448 63.709 72.1909 63.709 73.728C63.709 75.2651 64.9551 76.5112 66.4922 76.5112Z" fill="#FFCA2B"/>
<path d="M59.2558 76.5112C60.7929 76.5112 62.039 75.2651 62.039 73.728C62.039 72.1909 60.7929 70.9448 59.2558 70.9448C57.7187 70.9448 56.4727 72.1909 56.4727 73.728C56.4727 75.2651 57.7187 76.5112 59.2558 76.5112Z" fill="#FFCA2B"/>
<path d="M52.0195 76.5112C53.5566 76.5112 54.8027 75.2651 54.8027 73.728C54.8027 72.1909 53.5566 70.9448 52.0195 70.9448C50.4824 70.9448 49.2363 72.1909 49.2363 73.728C49.2363 75.2651 50.4824 76.5112 52.0195 76.5112Z" fill="#FFCA2B"/>
<path d="M88.2011 69.2751C89.7382 69.2751 90.9843 68.029 90.9843 66.4919C90.9843 64.9548 89.7382 63.7087 88.2011 63.7087C86.664 63.7087 85.418 64.9548 85.418 66.4919C85.418 68.029 86.664 69.2751 88.2011 69.2751Z" fill="#FFCA2B"/>
<path d="M80.9648 69.2751C82.5019 69.2751 83.748 68.029 83.748 66.4919C83.748 64.9548 82.5019 63.7087 80.9648 63.7087C79.4277 63.7087 78.1816 64.9548 78.1816 66.4919C78.1816 68.029 79.4277 69.2751 80.9648 69.2751Z" fill="#FFCA2B"/>
<path d="M73.7275 69.2751C75.2646 69.2751 76.5107 68.029 76.5107 66.4919C76.5107 64.9548 75.2646 63.7087 73.7275 63.7087C72.1904 63.7087 70.9443 64.9548 70.9443 66.4919C70.9443 68.029 72.1904 69.2751 73.7275 69.2751Z" fill="#FFCA2B"/>
<path d="M66.4922 69.2751C68.0293 69.2751 69.2753 68.029 69.2753 66.4919C69.2753 64.9548 68.0293 63.7087 66.4922 63.7087C64.9551 63.7087 63.709 64.9548 63.709 66.4919C63.709 68.029 64.9551 69.2751 66.4922 69.2751Z" fill="#FFCA2B"/>
<path d="M59.2558 69.2751C60.7929 69.2751 62.039 68.029 62.039 66.4919C62.039 64.9548 60.7929 63.7087 59.2558 63.7087C57.7187 63.7087 56.4727 64.9548 56.4727 66.4919C56.4727 68.029 57.7187 69.2751 59.2558 69.2751Z" fill="#FFCA2B"/>
<path d="M52.0195 69.2751C53.5566 69.2751 54.8027 68.029 54.8027 66.4919C54.8027 64.9548 53.5566 63.7087 52.0195 63.7087C50.4824 63.7087 49.2363 64.9548 49.2363 66.4919C49.2363 68.029 50.4824 69.2751 52.0195 69.2751Z" fill="#FFCA2B"/>
<path d="M44.7832 69.2751C46.3203 69.2751 47.5663 68.029 47.5663 66.4919C47.5663 64.9548 46.3203 63.7087 44.7832 63.7087C43.2461 63.7087 42 64.9548 42 66.4919C42 68.029 43.2461 69.2751 44.7832 69.2751Z" fill="#FFCA2B"/>
<path d="M80.9648 62.0388C82.5019 62.0388 83.748 60.7927 83.748 59.2556C83.748 57.7185 82.5019 56.4724 80.9648 56.4724C79.4277 56.4724 78.1816 57.7185 78.1816 59.2556C78.1816 60.7927 79.4277 62.0388 80.9648 62.0388Z" fill="#FFCA2B"/>
<path d="M73.7275 62.0388C75.2646 62.0388 76.5107 60.7927 76.5107 59.2556C76.5107 57.7185 75.2646 56.4724 73.7275 56.4724C72.1904 56.4724 70.9443 57.7185 70.9443 59.2556C70.9443 60.7927 72.1904 62.0388 73.7275 62.0388Z" fill="#FFCA2B"/>
<path d="M66.4922 62.0388C68.0293 62.0388 69.2753 60.7927 69.2753 59.2556C69.2753 57.7185 68.0293 56.4724 66.4922 56.4724C64.9551 56.4724 63.709 57.7185 63.709 59.2556C63.709 60.7927 64.9551 62.0388 66.4922 62.0388Z" fill="#FFCA2B"/>
<path d="M59.2558 62.0388C60.7929 62.0388 62.039 60.7927 62.039 59.2556C62.039 57.7185 60.7929 56.4724 59.2558 56.4724C57.7187 56.4724 56.4727 57.7185 56.4727 59.2556C56.4727 60.7927 57.7187 62.0388 59.2558 62.0388Z" fill="#FFCA2B"/>
<path d="M52.0195 62.0388C53.5566 62.0388 54.8027 60.7927 54.8027 59.2556C54.8027 57.7185 53.5566 56.4724 52.0195 56.4724C50.4824 56.4724 49.2363 57.7185 49.2363 59.2556C49.2363 60.7927 50.4824 62.0388 52.0195 62.0388Z" fill="#FFCA2B"/>
<path d="M73.7275 54.8024C75.2646 54.8024 76.5107 53.5564 76.5107 52.0193C76.5107 50.4822 75.2646 49.2361 73.7275 49.2361C72.1904 49.2361 70.9443 50.4822 70.9443 52.0193C70.9443 53.5564 72.1904 54.8024 73.7275 54.8024Z" fill="#FFCA2B"/>
<path d="M66.4922 54.8027C68.0293 54.8027 69.2753 53.5566 69.2753 52.0195C69.2753 50.4824 68.0293 49.2363 66.4922 49.2363C64.9551 49.2363 63.709 50.4824 63.709 52.0195C63.709 53.5566 64.9551 54.8027 66.4922 54.8027Z" fill="#FFCA2B"/>
<path d="M59.2558 54.8027C60.7929 54.8027 62.039 53.5566 62.039 52.0195C62.039 50.4824 60.7929 49.2363 59.2558 49.2363C57.7187 49.2363 56.4727 50.4824 56.4727 52.0195C56.4727 53.5566 57.7187 54.8027 59.2558 54.8027Z" fill="#FFCA2B"/>
<path d="M66.4922 47.5663C68.0293 47.5663 69.2753 46.3203 69.2753 44.7832C69.2753 43.2461 68.0293 42 66.4922 42C64.9551 42 63.709 43.2461 63.709 44.7832C63.709 46.3203 64.9551 47.5663 66.4922 47.5663Z" fill="#FFCA2B"/>
</g>
<defs>
<clipPath id="clip0_2436_9307">
<rect width="256" height="256" fill="white"/>
</clipPath>
</defs>
</svg>
