<svg width="500" height="500" viewBox="0 0 500 500" fill="none" xmlns="http://www.w3.org/2000/svg">
<rect width="500" height="500" fill="white"/>
<circle cx="250" cy="250" r="245" fill="#FFDB40"/>
<path d="M225.776 78.9374L250.004 62.7845L274.232 78.9374L300.624 96.5338L250.004 248.41L199.384 96.5338L225.776 78.9374Z" fill="black" stroke="black"/>
<path d="M353.823 111.903L382.378 117.614L388.089 146.177L388.579 146.079L388.089 146.177L394.31 177.274L251.126 248.875L322.718 105.682L353.823 111.903Z" fill="black" stroke="black"/>
<path d="M421.051 274.224L421.467 274.502L421.051 274.224L403.457 300.616L251.589 249.997L403.457 199.369L421.051 225.761L437.206 249.997L421.051 274.224Z" fill="black" stroke="black"/>
<path d="M388.089 353.799L382.378 382.362L353.823 388.073L322.718 394.294L251.125 251.108L394.312 322.702L388.089 353.799Z" fill="black" stroke="black"/>
<path d="M199.384 403.446L250.006 251.581L300.63 403.451L274.239 421.041L274.516 421.457L274.239 421.041L250.007 437.195L225.775 421.041L199.384 403.446Z" fill="black" stroke="black"/>
<path d="M105.69 322.702L248.877 251.109L177.282 394.297L146.177 388.073L146.079 388.563L146.177 388.073L117.625 382.363L111.912 353.799L111.422 353.897L111.912 353.799L105.69 322.702Z" fill="black" stroke="black"/>
<path d="M78.9533 274.224L62.7975 249.995L78.9533 225.761L96.5481 199.369L248.41 249.995L96.5431 300.62L78.9534 274.224L78.9533 274.224Z" fill="black" stroke="black"/>
<path d="M146.177 111.903L177.283 105.682L248.874 248.875L105.69 177.274L111.911 146.177L111.911 146.177L117.623 117.614L146.177 111.903Z" fill="black" stroke="black"/>
<path d="M250.002 343.273C248.289 343.273 246.609 342.802 245.145 341.911C180.471 279.594 155.141 241.994 155.141 221.058C155.141 195.123 176.38 174.102 202.571 174.102C228.763 174.102 250.002 202.56 250.002 202.56C250.002 202.56 271.241 174.102 297.433 174.102C323.624 174.102 344.863 195.123 344.863 221.058C344.863 241.994 319.533 279.594 254.859 341.911C253.395 342.802 251.715 343.273 250.002 343.273Z" fill="#FFDB40"/>
</svg>
