<svg width="256" height="256" viewBox="0 0 256 256" fill="none" xmlns="http://www.w3.org/2000/svg">
<path d="M128 248.47C61.4613 248.47 7.5293 194.672 7.5293 128.3V127.7C7.5293 61.3409 61.4613 7.5293 128 7.5293C194.538 7.5293 248.47 61.3273 248.47 127.7V128.3C248.47 194.672 194.538 248.47 128 248.47Z" fill="white" stroke="#0000FF" stroke-width="1.26"/>
<path d="M148.467 187.514C148.508 187.433 148.549 187.351 148.59 187.283C149.068 186.004 150.282 185.718 151.36 185.35C154.457 184.288 157.103 182.506 159.546 180.369C160.364 179.743 161.101 179.022 161.783 178.26C163.393 176.49 164.225 174.558 163.844 172.04C162.957 166.297 162.056 160.567 161.374 154.797C160.705 149.149 160.037 143.501 159.628 137.826C159.245 132.641 158.891 127.469 158.699 122.27C158.55 118.487 158.482 114.69 158.263 110.907C158.072 107.613 158.032 104.306 157.499 101.04C157.199 99.1753 156.899 98.9848 155.085 99.6519C152.451 100.604 150.036 101.951 147.731 103.517C144.715 105.558 142.137 108.076 139.763 110.798C139.694 110.893 139.613 110.988 139.545 111.07C139.504 111.111 139.463 111.152 139.435 111.192C139.286 111.342 139.121 111.492 138.985 111.642C138.89 111.764 138.807 111.873 138.713 111.996C138.658 112.077 138.603 112.159 138.535 112.227C138.412 112.377 138.276 112.526 138.167 112.676C137.839 113.166 137.43 113.615 137.116 114.118C137.007 114.282 136.898 114.445 136.802 114.608C136.571 114.908 136.366 115.235 136.202 115.574C136.038 115.86 135.833 116.133 135.684 116.432C135.479 116.813 135.233 117.167 135.015 117.534C134.865 117.78 134.742 118.052 134.62 118.311C134.578 118.405 134.538 118.501 134.483 118.582C133.923 119.467 133.405 120.379 133.051 121.372C133.023 121.468 132.982 121.562 132.928 121.672C132.859 121.821 132.791 121.971 132.723 122.107C132.614 122.379 132.491 122.638 132.395 122.91C129.967 128.654 128.343 134.628 127.757 140.82C127.348 145.039 127.061 149.271 127.334 153.532C127.566 157.083 127.702 160.649 127.866 164.215C127.907 165.208 128.18 166.174 128.111 167.168C128.111 168.488 128.016 169.821 128.207 171.142C128.316 171.931 128.385 172.966 127.58 173.279C126.706 173.619 126.338 172.612 125.97 171.985C124.387 169.305 123.445 166.393 122.763 163.385C121.549 158.064 121.126 152.674 121.29 147.217C121.331 146.005 121.604 144.808 121.508 143.583C121.467 142.752 121.768 141.95 121.74 141.119C121.74 140.997 121.74 140.861 121.753 140.738C121.753 140.616 121.768 140.48 121.781 140.357C122.341 136.125 123.091 131.933 124.319 127.837C125.028 125.713 125.656 123.563 126.611 121.522C128.207 117.78 130.076 114.173 132.355 110.798C134.169 108.103 136.243 105.64 138.617 103.435C139.408 102.701 139.64 101.951 139.326 100.904C138.631 98.6038 138.071 96.29 136.243 94.5341C134.838 93.2007 133.2 92.4116 131.318 92.0848C129.694 91.7987 128.412 92.4252 127.361 93.6088C126.324 94.7796 125.492 96.0995 124.673 97.4194C123.855 98.7401 123.036 100.074 121.863 101.135C120.089 102.728 118.097 103.34 115.751 102.714C114.605 102.414 113.5 101.965 112.449 101.448C109.843 100.169 107.414 101.339 105.695 103.217C103.581 105.531 103.376 108.32 103.731 111.234C103.799 111.764 103.963 112.267 104.004 112.798C104.017 113.098 103.99 113.411 104.14 113.696C104.235 113.833 104.29 113.56 104.181 113.669C104.181 113.669 104.14 113.656 104.099 113.602C104.017 113.479 104.017 113.329 104.017 113.179C104.481 109.328 107.537 106.47 111.44 106.252C112.203 106.212 112.967 106.171 113.718 106.306C114.345 106.416 114.878 106.702 115.109 107.341C115.328 107.967 114.973 108.43 114.564 108.851C113.718 109.75 112.653 110.335 111.617 110.988C110.17 111.914 108.929 113.016 108.765 114.867C108.67 115.97 108.915 117.058 108.915 118.147C108.915 118.8 109.488 118.719 109.938 118.759C112.203 118.963 114.481 119.045 116.733 119.413C118.384 119.685 120.007 120.106 121.59 120.665C122.354 120.923 123.091 121.209 123.773 121.631C124.127 121.849 124.523 122.093 124.414 122.597C124.319 123.074 123.909 123.278 123.5 123.345C122.19 123.563 120.867 123.699 119.543 123.74C114.25 123.931 108.943 124.013 103.662 124.625C101.194 124.815 98.7646 125.251 96.3363 125.755C95.7905 125.863 95.4358 126.19 95.4223 126.762C95.4087 128.463 95.1768 130.191 95.9682 131.797C96.4862 132.79 97.3867 132.954 98.3693 132.859C98.8195 132.804 99.2555 132.682 99.7058 132.613C101.889 132.151 104.045 131.824 106.146 133.009C107.51 133.771 108.465 134.846 109.024 136.261C109.693 137.976 110.047 139.745 110.034 141.596C109.993 145.311 110.062 149.027 110.511 152.715C110.73 154.511 111.33 156.185 112.244 157.737C112.463 158.104 112.681 158.676 113.199 158.553C113.649 158.445 113.609 157.86 113.649 157.478C113.908 155.355 113.622 153.245 113.363 151.136C113.063 148.632 113.39 146.291 114.946 144.222C116.037 143.352 116.583 143.556 117.074 145.026C117.06 147.884 117.647 150.687 117.907 153.518C118.124 155.872 118.233 158.227 117.401 160.499C117.087 161.37 116.665 162.16 115.928 162.759C114.1 164.242 111.876 164.092 109.953 162.255C107.646 160.064 106.596 157.22 105.996 154.198C105.395 151.177 105.259 148.101 105.272 145.026C105.272 143.12 105.204 141.229 104.781 139.364C104.386 137.649 103.908 137.336 102.148 137.391C101.302 137.418 100.484 137.581 99.6515 137.703C92.6936 138.711 90.3331 133.24 90.9603 128.885C91.0289 128.449 91.3971 127.864 91.0153 127.606C90.5922 127.319 90.1148 127.837 89.6916 128.041C89.023 128.354 88.5186 128.871 88.0412 129.429C87.3861 130.191 87.5774 131.062 87.6866 131.92C87.8635 133.171 88.3409 134.329 88.7234 135.512C89.6781 138.33 91.1109 140.929 92.5844 143.501C100.115 156.607 108.397 169.264 116.528 182.003C117.361 183.309 118.37 184.52 119.243 185.8C120.962 188.33 123.445 189.284 126.365 189.433C127.893 189.515 129.394 189.243 130.908 189.093C133.664 188.82 136.42 188.494 139.204 188.535C140.145 188.549 141.114 188.616 141.877 189.297C141.959 189.351 142.041 189.419 142.096 189.488C142.423 189.773 142.26 190.045 142.055 190.277C141.536 190.835 140.963 191.352 140.254 191.651C136.843 193.094 133.378 194.346 129.707 194.877C126.693 195.326 123.705 195.013 120.812 194.006C119.011 193.379 117.511 192.318 116.228 190.917C115.027 189.596 113.977 188.153 112.954 186.684C110.212 182.751 107.592 178.75 105.109 174.653C102.093 169.686 98.9829 164.773 95.8311 159.887C92.2298 154.294 88.819 148.591 85.7763 142.671C84.3706 139.936 83.1298 137.118 82.4197 134.097C81.8746 131.77 81.6148 129.443 82.6931 127.183C82.8564 126.844 82.7608 126.612 82.4882 126.394C82.3106 126.258 82.1472 126.094 81.983 125.932C78.0271 122.243 75.0116 117.888 73.0333 112.88C71.519 109.042 71.0414 105.096 72.2147 101.053C72.624 99.6105 73.2653 98.2906 74.2067 97.1069C76.403 94.3715 79.6098 93.4732 82.9114 94.6704C83.1154 94.7525 83.3338 94.8338 83.6071 94.9294C83.757 94.4799 83.4708 94.1667 83.3474 93.8542C81.9973 90.4652 80.8371 87.0085 80.1007 83.429C79.7731 81.823 79.5955 80.2042 79.7325 78.5567C79.9644 75.8348 81.2467 73.7938 83.7976 72.705C86.6219 71.5074 89.596 70.8678 92.6387 70.5547C93.6483 70.4458 94.576 70.8269 95.5315 71.0854C96.7866 71.4257 98.0003 71.8476 99.1877 72.3648C101.152 73.2221 102.148 74.7464 102.394 76.8423C102.612 78.7337 102.612 80.6258 102.653 82.5308C102.681 83.8921 102.762 85.2662 102.817 86.6275C102.83 86.9543 102.871 87.199 103.308 87.2261C104.522 87.2668 105.736 87.3895 106.951 87.403C108.411 87.4166 109.066 86.8993 109.516 85.471C109.98 84.0148 110.102 82.4901 110.361 80.9932C110.648 79.333 111.126 77.7405 112.026 76.2979C113.814 73.4399 116.447 72.3919 119.721 72.6506C120.171 72.6914 120.621 72.7595 121.086 72.8003C121.113 72.8003 121.14 72.7595 121.249 72.6914C121.167 71.5618 121.235 70.405 121.563 69.2755C122.027 67.7103 122.804 66.3494 124.1 65.3151C126.16 63.6547 128.807 63.5595 130.99 65.0429C131.713 65.5328 132.355 66.1316 132.982 66.7441C133.364 67.1251 133.733 67.4926 134.128 67.8601C134.892 68.5678 135.738 68.6358 136.652 68.1458C137.457 67.7103 138.167 67.1251 138.862 66.5399C139.995 65.5737 141.1 64.5938 142.328 63.75C143.91 62.6476 145.602 61.8175 147.512 61.4909C149.095 61.2322 150.623 61.3955 152.055 62.1713C154.484 63.5051 155.616 66.0227 155.098 68.9624C154.893 70.1192 154.539 71.2488 154.157 72.3648C153.87 73.195 153.611 74.0252 153.46 74.8825C153.351 75.5224 153.338 76.1616 153.46 76.8016C153.638 77.8083 154.157 78.5432 155.112 78.9656C156.012 79.3737 156.926 79.7682 157.813 80.2042C162.656 82.5857 164.921 87.8932 163.298 93.0373C163.039 93.8813 162.684 94.6704 162.083 95.3375C161.838 95.6093 161.701 95.8412 161.92 96.2358C162.97 98.1957 163.188 100.36 163.407 102.509C163.789 106.334 163.939 110.158 164.048 113.996C164.266 121.889 164.662 129.783 165.276 137.663C165.835 144.74 166.668 151.803 167.65 158.826C168.223 162.922 168.796 167.018 169.451 171.115C170.119 175.238 168.987 178.777 166.135 181.798C162.67 185.459 158.714 188.426 153.979 190.263C153.447 190.467 152.901 190.617 152.342 190.753C151.51 190.957 150.678 190.89 149.873 190.59C148.467 190.073 147.99 189.12 148.372 187.623C148.413 187.65 148.453 187.582 148.467 187.514Z" fill="#0000FF"/>
<path d="M141.891 189.338C139.039 188.467 136.146 189.038 133.281 189.202C131.385 189.311 129.502 189.596 127.606 189.773C126.46 189.883 125.327 189.706 124.195 189.502C122.189 189.134 120.593 188.127 119.393 186.494C118.479 185.228 117.537 183.989 116.651 182.71C112.857 177.28 109.501 171.591 105.995 165.971C103.102 161.329 100.101 156.743 97.2224 152.089C94.316 147.366 91.5053 142.576 89.1862 137.527C88.9129 136.942 88.6132 136.37 88.4905 135.73C88.4634 134.506 87.8084 133.431 87.6442 132.219C87.5079 131.226 87.4259 130.273 87.7263 129.307C88.6268 127.96 90.1139 127.524 91.4375 126.843C91.7786 127.197 91.5738 127.483 91.5188 127.755C91.1921 129.171 91.11 130.6 91.369 132.042C91.997 135.363 94.3025 137.39 97.6862 137.527C98.8051 137.567 99.8825 137.39 100.974 137.214C101.656 137.105 102.324 137.037 103.021 137.023C103.893 137.009 104.453 137.445 104.78 138.221C105.094 138.996 105.244 139.813 105.353 140.657C105.572 142.399 105.572 144.141 105.612 145.883C105.681 148.578 105.763 151.272 106.267 153.927C106.758 156.499 107.591 158.907 109.214 161.003C109.87 161.86 110.647 162.582 111.629 163.045C113.444 163.902 115.313 163.399 116.432 161.738C117.291 160.473 117.565 159.016 117.674 157.533C117.824 155.587 117.619 153.668 117.36 151.749C117.059 149.53 116.718 147.312 116.773 145.067C116.923 144.577 117.005 144.032 117.441 143.705C117.782 143.461 117.81 143.284 117.4 143.107C118.151 142.562 119.024 142.358 119.924 142.195C120.893 142.889 121.166 143.338 121.411 144.617C121.466 144.209 121.07 143.638 121.78 143.474C121.767 144.114 121.807 144.767 121.752 145.407C121.466 148.823 121.521 152.238 121.835 155.641C122.189 159.547 122.871 163.385 124.113 167.114C124.727 168.965 125.532 170.72 126.569 172.367C126.787 172.707 126.992 173.238 127.456 173.143C127.974 173.034 127.824 172.435 127.838 172.068C127.865 171.006 127.797 169.945 127.783 168.883C127.769 168.312 127.783 167.754 127.783 167.182C128.411 167.345 128.288 167.876 128.288 168.284C128.288 170.761 129.407 172.898 130.444 175.035C130.716 175.606 131.18 176.096 131.508 176.654C133.473 180.084 136.665 181.132 140.362 181.227C143.487 181.309 146.584 181.036 149.667 180.615C150.881 180.451 152.095 180.532 153.31 180.56C153.542 180.56 153.869 180.574 153.951 180.75C154.388 181.812 155.097 181.24 155.724 181.077C156.653 180.846 157.58 180.655 158.508 180.492C158.876 180.424 159.258 180.301 159.572 180.642C157.266 182.696 154.743 184.398 151.796 185.405C150.595 185.813 149.476 186.303 148.59 187.228C148.33 187.038 148.084 187.215 147.839 187.283C145.942 187.882 144.046 188.481 142.15 189.093C142.054 189.175 141.972 189.27 141.891 189.338Z" fill="white"/>
<path d="M148.471 187.515C148.512 187.624 148.471 187.678 148.361 187.705C148.307 187.582 148.348 187.515 148.471 187.515Z" fill="white"/>
<path d="M142.108 189.542C141.972 189.542 141.89 189.488 141.89 189.352C142.04 189.325 142.081 189.42 142.108 189.542Z" fill="white"/>
<path d="M159.562 180.682C157.679 180.886 155.851 181.403 154.037 181.906C153.86 181.961 153.696 182.056 153.505 181.906C153.519 181.512 154.132 181.594 154.092 181.158C154.009 181.022 153.9 180.913 153.737 180.913C152.263 180.927 150.79 180.804 149.303 181.022C148.293 181.171 147.27 181.267 146.26 181.376C144.132 181.58 142.017 181.607 139.889 181.567C138.128 181.525 136.409 181.158 134.827 180.409C133.913 179.974 133.067 179.389 132.467 178.504C131.948 177.715 131.348 176.98 130.775 176.218C129.397 174.394 128.838 172.217 128.074 170.12C127.882 169.576 128.019 168.991 127.965 168.42C127.924 168.011 128.101 167.576 127.76 167.222C127.337 162.35 127.05 157.464 126.914 152.578C126.627 142.549 127.882 132.763 131.812 123.427C131.948 123.114 132.017 122.774 132.262 122.529C132.548 122.406 132.548 122.107 132.644 121.861C132.658 121.767 132.685 121.671 132.713 121.59L132.699 121.603C133.231 120.664 133.6 119.643 134.227 118.759C134.309 118.582 134.472 118.446 134.486 118.228C134.595 118.065 134.677 117.888 134.759 117.711C135.032 117.371 135.236 116.99 135.428 116.595C135.714 116.255 135.905 115.873 136.096 115.492C136.287 115.275 136.409 115.016 136.56 114.771C136.806 114.581 136.888 114.295 137.051 114.05C137.31 113.628 137.651 113.261 137.897 112.825C137.952 112.689 138.047 112.58 138.143 112.485C138.279 112.349 138.375 112.199 138.415 112.022L138.402 112.036C138.538 111.968 138.593 111.818 138.701 111.723C138.893 111.56 139.015 111.342 139.138 111.137L139.125 111.151C139.247 111.07 139.343 110.96 139.37 110.811C141.895 107.626 144.896 104.959 148.293 102.741C150.176 101.515 152.141 100.413 154.241 99.597C154.951 99.3244 155.674 99.0797 156.438 98.9841C157.202 98.8757 157.27 98.9163 157.489 99.6647C157.843 100.836 157.966 102.046 158.075 103.258C158.457 107.803 158.621 112.362 158.758 116.908C158.989 124.733 159.44 132.531 160.108 140.33C160.954 150.061 162.223 159.723 163.765 169.358C163.942 170.447 164.065 171.536 164.201 172.638C164.393 174.204 164.106 175.66 163.192 176.966C162.195 178.395 161.009 179.661 159.562 180.682Z" fill="white"/>
<path d="M103.76 112.949C103.174 110.908 103.037 108.839 103.528 106.77C104.197 103.912 105.916 101.912 108.699 100.877C109.859 100.442 111.005 100.605 112.137 101.067C113.433 101.598 114.688 102.225 116.08 102.538C118.154 103 119.914 102.429 121.469 101.109C122.711 100.061 123.543 98.6859 124.361 97.3253C125.085 96.1138 125.876 94.9573 126.735 93.8415C128.1 92.0992 129.792 91.3507 132.056 91.9629C135.317 92.8476 137.527 94.821 138.687 97.9646C139.137 99.1761 139.438 100.428 139.779 101.68C139.942 102.265 139.792 102.673 139.356 103.096C137.65 104.729 136.04 106.43 134.567 108.281C132.616 110.731 130.978 113.371 129.491 116.106C128.523 117.902 127.622 119.74 126.845 121.632C125.835 120.774 124.621 120.706 123.393 120.842C122.711 120.91 122.042 120.924 121.36 120.938C119.628 120.38 117.867 119.903 116.066 119.685C115.084 119.563 114.115 119.386 113.133 119.372C111.837 119.345 110.568 119.046 109.272 119.127C108.959 119.141 108.617 119.128 108.604 118.706C108.59 117.494 108.426 116.283 108.426 115.072C108.426 113.33 109.449 112.105 110.827 111.166C111.646 110.608 112.492 110.091 113.324 109.56C113.815 109.247 114.225 108.866 114.606 108.444C115.194 107.79 115.057 107.192 114.28 106.797C114.115 106.716 113.924 106.634 113.747 106.607C110.991 106.362 108.44 106.824 106.38 108.866C105.111 110.118 104.469 111.67 104.224 113.411C103.747 113.547 103.951 113.058 103.76 112.949Z" fill="white"/>
<path d="M157.854 93.3511C157.773 93.5687 157.595 93.5958 157.391 93.5958C155.058 93.5687 152.916 94.345 150.828 95.2704C148.809 96.1686 146.913 97.2709 145.085 98.4952C144.798 98.6857 144.512 98.8491 144.225 99.0396C143.897 99.0261 143.72 98.7949 143.515 98.5909C143.201 97.7882 142.902 96.9713 142.588 96.1686C140.582 91.2007 136.912 88.329 131.632 87.4857C131.005 87.3901 130.363 87.4036 129.654 87.363C130.173 84.3693 129.286 81.6881 128.14 79.0611C127.375 77.3195 126.202 75.904 124.702 74.7471C124.346 74.4749 124.074 74.2435 124.114 73.74C124.224 72.0796 124.565 70.5146 125.547 69.14C125.848 68.7318 126.202 68.4051 126.625 68.1465C127.293 67.7246 127.989 67.6974 128.658 68.1465C128.999 68.3779 129.34 68.6365 129.64 68.9223C130.145 69.385 130.623 69.875 131.1 70.3649C132.315 71.617 133.774 72.3383 135.534 72.3927C136.489 73.046 137.512 73.2228 138.658 73.0732C141.168 72.7329 143.352 71.6441 145.439 70.2832C146.803 69.385 147.431 69.6708 147.8 71.2903C147.977 72.0796 147.909 72.869 147.718 73.6583C147.431 74.8015 147.131 75.9311 146.913 77.0876C146.422 79.7282 148.195 83.1578 150.651 84.2872C151.634 84.7367 152.288 84.3143 152.274 83.212C152.274 82.8853 152.125 82.5314 152.384 82.2325C153.639 82.831 154.921 83.4025 156.149 84.0425C157.009 84.5048 157.841 85.0492 158.155 86.0702C156.695 86.4241 156.463 86.6959 156.381 88.3019C156.313 90.1391 156.94 91.7858 157.854 93.3511Z" fill="white"/>
<path d="M118.819 77.1419C120.865 77.0463 122.27 78.1622 123.389 79.6733C124.385 81.0068 124.849 82.5857 125.204 84.1917C125.476 85.4574 125.75 86.7231 126.35 87.8661C126.541 88.22 126.555 88.4647 126.159 88.7101C124.535 89.7168 123.416 91.2137 122.352 92.7519C121.534 93.9355 120.797 95.1741 119.992 96.3721C118.655 98.3726 117.891 98.5902 115.694 97.6513C114.575 97.1747 113.484 96.6168 112.297 96.3314C109.269 95.6101 106.54 96.3585 104.111 98.155C101.137 100.36 99.3087 103.286 98.8998 107.014C98.7906 108.008 98.7628 107.967 97.7945 108.226C94.779 109.015 92.1595 110.444 90.2357 113.002C88.4347 115.385 88.0665 118.038 88.5303 120.883C88.5717 121.1 88.5853 121.345 88.6673 121.55C88.8714 122.053 88.6673 122.298 88.2028 122.502C87.1118 122.978 86.1021 123.577 85.1744 124.299C84.7784 124.611 84.5329 124.557 84.2604 124.162C81.613 120.311 78.9935 116.432 77.3567 112.009C76.9749 110.988 76.5653 109.954 76.5518 108.839C77.2068 108.92 77.1654 109.518 77.316 109.941C78.3528 112.621 79.5259 115.248 80.9173 117.766C81.1771 118.242 81.4361 119.072 82.0091 118.882C82.6092 118.678 82.3908 117.847 82.3366 117.249C82.2816 116.582 81.9135 115.943 82.1589 115.248C82.555 114.881 82.9367 115.208 83.3184 115.275C83.5782 115.33 83.8643 115.385 84.042 115.126C84.219 114.881 84.1241 114.608 83.9871 114.377C83.4555 113.506 82.9503 112.621 82.0912 112.023C81.6951 111.751 81.2448 111.505 81.095 110.988C80.263 107.777 79.2533 104.605 78.8437 101.299C78.7752 100.727 78.4206 100.25 78.3392 99.679C79.2398 98.7265 80.3037 98.8078 81.3676 99.2573C82.2139 99.6112 82.8825 100.264 83.5368 100.904C84.7919 102.115 85.8973 103.476 87.248 104.592C88.6124 105.721 90.113 106.552 91.9005 106.851C94.8746 107.354 97.4534 105.885 98.4631 103.041C98.9676 101.625 99.0767 100.156 99.1317 98.6715C99.1724 97.1476 99.3636 95.6643 99.841 94.2081C100.496 92.2211 101.669 91.3499 103.756 91.554C104.63 91.6496 105.49 91.7038 106.362 91.7445C108.163 91.8401 109.828 91.4727 111.301 90.3839C113.17 90.969 114.794 90.3568 116.077 88.5053C117.468 86.4912 118.028 84.1782 118.273 81.7823C118.396 80.5445 118.601 79.3059 118.532 78.0538C118.505 77.7541 118.573 77.4273 118.819 77.1419Z" fill="white"/>
<path d="M121.343 120.924C122.993 120.339 124.658 120.325 126.336 120.828C126.732 120.951 126.854 121.237 126.841 121.618C126.131 123.332 125.49 125.061 124.931 126.83C124.836 127.156 124.685 127.456 124.549 127.769C123.894 129.13 123.594 130.641 122.884 131.975C122.707 132.301 122.584 132.819 122.161 132.737C121.643 132.642 121.738 132.083 121.738 131.688C121.725 130.518 121.752 129.334 121.479 128.177C121.411 127.891 121.397 127.51 121.002 127.497C120.701 127.483 120.551 127.783 120.483 128.028C119.719 130.532 118.846 133.036 119.747 135.69C120.046 136.547 119.814 137.064 119.023 137.432C118.15 137.826 117.413 138.439 116.677 139.038C115.271 140.194 115.285 140.617 116.786 141.664C116.745 142.277 116.65 142.903 117.4 143.202C117.577 143.243 117.768 143.284 118 143.324C117.577 143.924 117.168 144.495 116.759 145.067C116.717 144.958 116.69 144.849 116.65 144.74C116.24 143.72 116.062 143.678 115.094 144.372C114.535 144.645 114.494 144.114 114.289 143.842C114.112 143.611 114.071 143.175 113.703 143.243C113.293 143.311 113.293 143.747 113.225 144.074C112.87 145.869 112.802 147.679 112.72 149.504C112.693 150.143 112.707 150.797 112.475 151.409C112.393 151.613 112.325 151.885 112.051 151.885C111.833 151.885 111.751 151.667 111.683 151.504C111.302 150.483 110.837 149.489 111.302 148.333C111.833 146.999 111.683 145.557 111.615 144.155C111.506 141.733 111.329 139.31 110.728 136.942C110.073 134.397 108.723 132.423 106.417 131.049C105.039 130.219 103.62 129.538 102.201 128.79C100.086 127.674 100.032 127.035 101.683 125.346C102.187 124.83 102.774 124.544 103.442 124.38C104.82 124.067 106.226 124.027 107.617 123.945C111.287 123.727 114.971 123.578 118.641 123.455C120.006 123.401 121.37 123.265 122.721 123.169C122.87 123.155 123.035 123.155 123.171 123.101C123.526 122.965 124.126 123.101 124.167 122.557C124.194 122.149 123.703 121.999 123.376 121.835C122.734 121.522 122.038 121.237 121.343 120.924Z" fill="white"/>
<path d="M83.9346 79.9594C83.9481 77.7676 84.4526 77.0327 86.2265 76.4477C88.1367 75.8084 90.1012 75.3725 92.107 75.1005C92.9661 74.9916 93.0211 75.0188 93.0888 75.8762C93.2251 77.5364 93.3072 79.2102 93.4028 80.8712C93.6076 84.9401 94.2077 88.9412 95.4764 92.8339C95.6127 93.2556 95.572 93.6501 95.4629 94.0582C95.0676 95.5693 94.8899 97.1069 94.8357 98.6722C94.8078 99.4342 94.7265 100.183 94.5623 100.931C94.2348 102.374 93.5255 102.741 92.1341 102.17C91.1515 101.775 90.4558 101.176 90.1012 100.06C89.1321 97.0255 87.7271 94.1538 86.7445 91.1187C85.7763 88.1657 84.7801 85.2126 84.2342 82.1369C84.0709 81.3199 84.0023 80.4759 83.9346 79.9594Z" fill="white"/>
<path d="M103.482 124.381C102.404 124.993 101.586 125.864 100.862 126.844C100.603 127.184 100.671 127.375 100.958 127.593C101.79 128.191 102.623 128.777 103.605 129.13C105.419 129.784 106.975 130.9 108.408 132.125C110.113 133.581 110.863 135.636 111.286 137.8C111.846 140.753 112.023 143.719 111.982 146.714C111.968 147.408 111.777 148.061 111.559 148.701C111.354 149.259 111.3 149.762 111.614 150.32C111.846 150.742 111.928 151.232 112.105 151.763C112.364 151.069 112.446 150.415 112.446 149.735C112.446 147.884 112.651 146.033 112.91 144.21C112.964 143.801 113.101 143.393 113.264 143.026C113.496 142.495 113.879 142.454 114.178 142.944C114.397 143.298 114.561 143.679 114.711 144.073C114.793 144.278 114.915 144.373 115.12 144.414C113.674 146.537 113.346 148.878 113.687 151.382C113.933 153.192 114.138 155.002 114.028 156.826C113.988 157.588 113.865 158.336 113.619 159.058C113.483 159.466 113.264 159.521 112.951 159.235C112.432 158.771 112.05 158.2 111.723 157.601C110.549 155.451 110.085 153.124 109.922 150.715C109.704 147.571 109.813 144.414 109.69 141.257C109.621 139.623 109.376 138.004 108.762 136.48C107.93 134.438 106.415 133.145 104.246 132.669C103.277 132.451 102.282 132.506 101.286 132.669C100.726 132.764 100.167 132.86 99.6073 132.955C98.2565 132.955 96.8787 133.091 95.7462 132.111C95.2689 131.444 95.1461 130.641 95.1055 129.865C95.0505 128.736 95.1055 127.606 95.1055 126.476C95.1055 126.014 95.2553 125.674 95.7598 125.564C98.3251 125.048 100.876 124.531 103.482 124.381Z" fill="white"/>
<path d="M152.396 82.2181C152.451 82.4764 152.519 82.7347 152.574 82.9937C152.723 83.6329 152.614 84.2052 152.068 84.6268C151.482 85.0756 150.882 84.8444 150.376 84.5176C149.681 84.0553 149.012 83.5516 148.467 82.898C146.98 81.1015 146.066 79.1288 146.68 76.7194C146.966 75.59 147.225 74.4333 147.498 73.2901C147.689 72.4599 147.689 71.6433 147.375 70.8267C147.335 70.7179 147.293 70.609 147.253 70.5137C146.925 69.8197 146.775 69.7653 146.134 70.1599C145.424 70.5954 144.729 71.0717 144.019 71.4936C142.163 72.6096 140.144 73.2356 138.003 73.4806C137.306 73.5623 136.652 73.3309 136.01 73.0859C135.71 72.9634 135.478 72.7729 135.519 72.4054C137.02 72.3374 138.316 71.7522 139.517 70.9084C140.513 70.2143 141.427 69.4114 142.341 68.6084C143.282 67.7782 144.333 67.0978 145.397 66.4173C146.298 65.8321 147.307 65.4647 148.399 65.4102C150.145 65.3285 151.223 66.5125 150.922 68.0912C150.718 69.18 150.376 70.2143 150.035 71.2622C149.599 72.596 149.203 73.9433 149.163 75.3588C149.067 78.2027 149.941 80.585 152.396 82.2181Z" fill="white"/>
<path d="M116.759 141.841C116.295 141.554 115.653 141.691 115.435 140.847C115.258 140.152 115.326 139.731 115.803 139.391C116.895 138.588 117.85 137.58 119.16 137.077C119.706 136.873 119.788 136.574 119.542 136.015C118.982 134.777 118.969 133.484 119.2 132.137C119.365 131.211 119.501 130.272 119.746 129.361C119.856 128.925 120.02 128.503 120.156 128.068C120.306 127.537 120.593 126.924 121.152 126.993C121.752 127.06 121.711 127.755 121.834 128.285C122.147 129.701 121.971 131.157 122.066 132.572C122.434 132.654 122.434 132.381 122.516 132.177C122.98 131.061 123.431 129.932 123.935 128.83C124.098 128.462 124.208 128.026 124.59 127.782C124.18 129.51 123.744 131.225 123.362 132.954C122.871 135.131 122.502 137.322 122.243 139.54C122.202 139.881 122.107 140.207 122.038 140.533C121.902 140.683 121.779 140.847 121.588 140.942C121.206 141.091 120.947 141.459 120.524 141.541C119.555 141.173 118.627 141.405 117.686 141.704C117.386 141.786 117.113 142.126 116.759 141.841Z" fill="white"/>
<path d="M82.2969 115.181C82.4061 115.807 82.4738 116.46 82.6244 117.073C82.7878 117.766 82.6922 118.433 82.5017 119.087C82.3511 119.618 82.1327 119.672 81.6968 119.304C81.1095 118.801 80.7278 118.134 80.3867 117.454C79.0223 114.732 77.7122 112.01 76.7575 109.111C76.7304 109.016 76.6212 108.934 76.5527 108.839C75.9933 106.58 76.0482 104.347 76.7846 102.143C77.0986 101.217 77.5082 100.319 78.3402 99.6934C79.063 100.074 79.118 100.823 79.2 101.463C79.5547 104.443 80.4138 107.301 81.2187 110.173C81.3143 110.512 81.3557 110.839 81.3557 111.179C80.0049 112.01 79.9364 112.935 81.1095 114.011C81.5191 114.392 82.1606 114.528 82.2969 115.181Z" fill="white"/>
<path d="M98.999 112.062C99.4899 113.478 99.8039 114.948 100.473 116.322C100.841 117.071 101.264 117.779 101.673 118.514C101.796 118.745 102.014 118.922 101.973 119.316C98.6308 119.711 95.2606 120.078 91.9048 121.14C91.7956 117.819 92.9002 115.247 95.6424 113.492C96.5294 112.92 97.4984 112.471 98.5081 112.117C98.685 112.172 98.8349 112.144 98.999 112.062Z" fill="white"/>
<path d="M118.82 77.1409C118.861 79.917 118.725 82.6796 117.906 85.3473C117.429 86.9533 116.774 88.4908 115.519 89.6887C114.714 90.4507 113.772 90.9137 112.694 91.0222C112.162 91.0771 111.521 91.1585 111.316 90.41C113.008 89.0216 113.663 87.1167 114.032 85.0476C114.25 83.7826 114.468 82.5026 114.714 81.2513C114.877 80.4343 115.191 79.6588 115.573 78.9104C116.255 77.6033 117.305 76.9505 118.82 77.1409Z" fill="white"/>
<path d="M157.855 93.3497C157.623 93.3226 157.418 93.2278 157.295 93.0094C156.381 91.1858 155.74 89.308 156.258 87.2261C156.627 85.742 156.764 85.6607 158.155 86.0553C159.178 87.6613 159.287 89.3893 158.824 91.1722C158.632 91.9621 158.251 92.6555 157.855 93.3497Z" fill="white"/>
<path d="M98.0169 75.6309C98.7126 75.8485 98.8768 76.4199 98.9589 77.0464C99.0816 78.1073 99.1629 79.1554 99.1629 80.2306C99.1494 82.3132 99.1629 84.4086 99.1772 86.4913C98.5764 86.4499 98.6584 85.919 98.5086 85.5659C98.495 85.1985 98.2624 84.9124 98.2217 84.5585C98.1397 84.3815 98.1946 84.1775 98.0719 84.0006C97.6758 81.3329 97.6081 78.6381 97.4854 75.9576C97.4854 75.862 97.526 75.7807 97.5945 75.7122C97.7308 75.658 97.8806 75.6851 98.0169 75.6309Z" fill="white"/>
<path d="M120.612 141.473C120.707 140.956 121.144 140.86 121.539 140.724C121.58 140.738 121.635 140.752 121.676 140.752C121.813 140.806 121.921 140.888 121.99 141.01C122.058 141.854 121.867 142.67 121.798 143.501C121.376 143.882 121.731 144.44 121.472 144.917C121.035 143.977 120.625 143.065 119.943 142.317C119.916 141.841 120.23 141.636 120.612 141.473Z" fill="white"/>
<path d="M87.7259 129.32C87.6574 131.225 87.8893 133.09 88.5579 134.886C88.6671 135.185 88.7221 135.471 88.4902 135.743C87.9029 134.437 87.5211 133.076 87.3299 131.661C87.235 130.857 87.0573 130 87.7259 129.32Z" fill="white"/>
<path d="M95.75 132.095C97.0052 132.545 98.3288 132.667 99.6111 132.939C98.9831 133.089 98.3559 133.252 97.7009 133.198C96.896 133.143 96.1046 132.993 95.75 132.095Z" fill="white"/>
<path d="M98.6817 85.3896C98.8594 85.7435 98.8865 86.1795 99.1734 86.492C99.2411 86.9686 99.3097 87.4587 99.3639 87.9481C99.391 88.1522 99.2547 88.302 99.0642 88.3705C98.7909 88.4519 98.7502 88.2614 98.7088 88.0709C98.5996 87.5265 98.4091 86.9821 98.4498 86.4106C98.4769 86.0568 98.0952 85.6072 98.6817 85.3896Z" fill="white"/>
<path d="M134.371 118.677C133.825 119.657 133.498 120.759 132.721 121.603C133.062 120.433 133.648 119.371 134.33 118.364C134.467 118.446 134.48 118.554 134.371 118.677Z" fill="white"/>
<path d="M138.041 112.731C137.877 113.275 137.577 113.724 137.141 114.105C137.045 114.187 136.963 114.173 136.867 114.091C137.154 113.493 137.549 112.962 138 112.486C138.041 112.526 138.068 112.567 138.109 112.608C138.095 112.648 138.068 112.69 138.041 112.731Z" fill="white"/>
<path d="M98.6833 85.3881C98.3701 85.6607 98.547 86.0552 98.4514 86.3956C98.2195 86.0146 98.2609 85.5922 98.2195 85.1841C98.1382 84.9529 98.0697 84.7218 98.2745 84.5034C98.5742 84.7218 98.5606 85.0892 98.6833 85.3881Z" fill="white"/>
<path d="M135.518 116.623C135.422 117.085 135.258 117.494 134.836 117.766C134.727 117.671 134.727 117.575 134.808 117.466C134.972 117.045 135.177 116.65 135.49 116.323C135.613 116.405 135.627 116.514 135.518 116.623Z" fill="white"/>
<path d="M135.519 116.622C135.506 116.513 135.492 116.418 135.479 116.309C135.56 115.969 135.765 115.71 135.983 115.452C136.065 115.356 136.147 115.356 136.228 115.452C136.119 115.928 135.942 116.35 135.519 116.622Z" fill="white"/>
<path d="M143.515 98.603C143.815 98.6437 144.102 98.7258 144.225 99.0525C144.074 99.1881 143.938 99.3786 143.692 99.2701C143.652 99.2016 143.597 99.1474 143.556 99.0796C143.543 98.9163 143.529 98.7529 143.515 98.603Z" fill="white"/>
<path d="M136.232 115.465C136.15 115.465 136.067 115.465 135.985 115.465C136.122 115.097 136.313 114.757 136.627 114.485C136.75 114.58 136.777 114.689 136.668 114.812C136.64 115.111 136.491 115.329 136.232 115.465Z" fill="white"/>
<path d="M103.756 112.949C103.907 113.099 104.057 113.248 104.193 113.397C104.193 113.574 104.261 113.765 104.084 113.915C103.783 113.656 103.729 113.316 103.756 112.949Z" fill="white"/>
<path d="M98.2863 84.5032C98.2728 84.7351 98.2457 84.9527 98.2321 85.1839C98.0138 84.8165 98.0273 84.4084 98.068 83.9995C98.2457 84.1222 98.2728 84.3127 98.2863 84.5032Z" fill="white"/>
<path d="M136.666 114.813C136.652 114.705 136.639 114.596 136.625 114.487C136.652 114.31 136.748 114.201 136.884 114.092C136.98 114.092 137.062 114.105 137.157 114.105C137.102 114.419 136.939 114.65 136.666 114.813Z" fill="white"/>
<path d="M132.778 121.849C132.709 122.148 132.764 122.529 132.286 122.529C132.3 122.27 132.423 122.053 132.573 121.862C132.627 121.767 132.696 121.781 132.778 121.849Z" fill="white"/>
<path d="M139.161 111.11C139.175 111.437 139.025 111.668 138.725 111.804C138.643 111.763 138.615 111.723 138.643 111.668C138.67 111.614 138.684 111.6 138.711 111.6C138.807 111.396 138.929 111.205 139.161 111.11Z" fill="white"/>
<path d="M134.813 117.467C134.826 117.562 134.826 117.671 134.84 117.766C134.826 117.943 134.786 118.093 134.622 118.202C134.554 118.311 134.472 118.311 134.39 118.216C134.458 117.916 134.581 117.671 134.813 117.467Z" fill="white"/>
<path d="M97.593 75.7535C97.5515 75.8212 97.5109 75.889 97.4838 75.9575C97.3746 75.767 97.279 75.5487 97.5109 75.386C97.6472 75.2904 97.7834 75.386 97.852 75.5351C97.8249 75.6714 97.6886 75.6849 97.593 75.7535Z" fill="white"/>
<path d="M138.437 111.995C138.492 112.199 138.45 112.376 138.26 112.484C138.205 112.539 138.151 112.566 138.069 112.553L138 112.47C138.096 112.266 138.205 112.076 138.437 111.995Z" fill="#BCC1B1"/>
<path d="M98.9978 112.062C98.8615 112.335 98.6845 112.239 98.5068 112.117C98.671 112.103 98.8344 112.09 98.9978 112.062Z" fill="white"/>
<path d="M134.389 118.214C134.471 118.214 134.539 118.214 134.621 118.201C134.607 118.391 134.553 118.568 134.375 118.677C134.362 118.568 134.348 118.472 134.335 118.364C134.321 118.296 134.348 118.241 134.389 118.214Z" fill="white"/>
<path d="M121.537 140.725C121.66 140.575 121.838 140.534 122.014 140.52C122.001 140.602 122.001 140.683 121.987 140.752C121.865 140.902 121.728 140.887 121.578 140.779L121.537 140.725Z" fill="white"/>
<path d="M121.588 140.779C121.725 140.766 121.861 140.766 121.998 140.752C121.998 140.833 121.984 140.929 121.984 141.01C121.82 140.983 121.629 140.997 121.588 140.779Z" fill="white"/>
<path d="M138.728 111.601C138.742 111.67 138.742 111.737 138.742 111.805C138.673 111.928 138.592 111.996 138.441 112.009C138.441 111.805 138.551 111.683 138.728 111.601Z" fill="#BCC1B1"/>
<path d="M97.5879 75.7528C97.67 75.685 97.752 75.6029 97.8341 75.5352C97.8883 75.5623 97.9425 75.6029 97.9975 75.6436C97.8883 75.7257 97.7656 75.8205 97.5879 75.7528Z" fill="white"/>
<path d="M132.779 121.849C132.711 121.849 132.643 121.849 132.561 121.849C132.547 121.713 132.588 121.618 132.739 121.578C132.752 121.673 132.766 121.755 132.779 121.849Z" fill="white"/>
<path d="M139.393 110.785C139.366 110.935 139.297 111.057 139.147 111.125C139.147 110.962 139.257 110.853 139.393 110.785Z" fill="white"/>
<path d="M143.56 99.0659C143.655 99.093 143.696 99.1615 143.696 99.2564C143.573 99.2564 143.533 99.1751 143.56 99.0659Z" fill="white"/>
<path d="M120.609 141.474C120.5 141.842 120.159 142.032 119.941 142.318C119.163 142.78 118.29 143.026 117.417 143.23C117.308 143.216 117.199 143.23 117.089 143.203C116.23 143.012 116.175 142.89 116.585 142.101C116.639 142.005 116.708 141.924 116.762 141.828C117.622 141.189 118.632 141.12 119.641 141.025C120.05 140.998 120.364 141.162 120.609 141.474Z" fill="#0000FF"/>
<path d="M122.569 179.594C122.719 179.634 122.842 179.744 122.869 179.893C122.896 180.029 122.801 180.111 122.692 180.029C122.582 179.948 122.515 179.811 122.419 179.703C122.46 179.662 122.515 179.621 122.569 179.594Z" fill="white"/>
<path d="M138.085 112.566C138.14 112.526 138.207 112.512 138.276 112.499C138.194 112.58 138.126 112.662 138.044 112.73C138.044 112.675 138.057 112.621 138.085 112.566Z" fill="white"/>
<path d="M119.737 108.607C119.028 108.621 118.414 108.444 117.841 108.118C117.376 107.845 117.131 107.437 117.227 106.879C117.322 106.376 117.745 106.212 118.154 106.158C119.491 105.954 120.719 106.308 121.797 107.124C122.398 107.587 122.316 108.009 121.579 108.267C120.978 108.485 120.351 108.635 119.737 108.607Z" fill="#0000FF"/>
<path d="M145.073 83.5929C145.837 83.5658 146.314 84.0417 146.11 84.6681C145.591 86.2606 144.718 87.6211 143.149 88.356C142.303 88.7506 141.43 88.2882 141.239 87.3764C141.144 86.9269 141.157 86.4646 141.389 86.0565C142.208 84.5725 143.654 84.0281 145.073 83.5929Z" fill="#0000FF"/>
<path d="M138.441 83.0065C138.523 81.8771 138.66 80.8019 139.179 79.7945C139.465 79.223 139.915 78.8149 140.501 78.5973C141.47 78.2434 142.22 78.7878 142.111 79.808C141.934 81.5097 141.074 82.8702 139.819 83.9861C139.574 84.218 139.246 84.4085 138.892 84.2587C138.469 84.0817 138.441 83.6872 138.441 83.3062C138.441 83.2106 138.441 83.1014 138.441 83.0065Z" fill="#0000FF"/>
<path d="M82.2267 106.974C82.2267 106.783 82.2132 106.593 82.2267 106.402C82.2546 106.021 82.2681 105.613 82.7184 105.463C83.1272 105.313 83.5097 105.477 83.7687 105.749C85.5562 107.6 86.7158 109.791 87.1111 112.336C87.2338 113.153 86.6608 113.479 85.9651 113.003C83.8094 111.574 82.3088 109.696 82.2267 106.974Z" fill="#0000FF"/>
<path d="M82.3006 115.18C81.7954 114.84 81.2774 114.528 80.8128 114.16C80.3219 113.778 79.9944 113.262 79.9672 112.608C79.913 111.669 80.3633 111.22 81.3865 111.193C82.5867 111.914 83.5279 112.867 84.183 114.105C84.3057 114.337 84.442 114.582 84.4969 114.827C84.6468 115.439 84.3192 115.807 83.6785 115.671C83.2004 115.575 82.7509 115.344 82.3006 115.18Z" fill="#0000FF"/>
<path d="M89.7862 93.9364C89.7862 94.4672 89.8005 94.998 89.7727 95.5288C89.7727 95.7058 89.6913 95.9098 89.4594 95.9369C89.2817 95.9505 89.1997 95.8007 89.1319 95.6644C88.4219 94.4401 87.9581 93.1194 87.5628 91.7724C86.9213 89.5949 86.2805 87.4174 85.6932 85.2399C85.3115 83.8244 84.9297 82.3953 85.011 80.8984C85.0254 80.7486 85.0111 80.5988 85.0254 80.4497C85.0525 80.0273 85.1481 79.565 85.5434 79.3745C85.9801 79.1697 86.3212 79.5514 86.6216 79.8232C87.44 80.5581 87.8903 81.552 88.1764 82.5587C88.6545 84.2603 88.9956 86.0019 89.1454 87.7713C89.2817 89.2681 89.5822 90.7514 89.7591 92.249C89.8276 92.807 89.7727 93.3784 89.7727 93.9499L89.7862 93.9364Z" fill="white"/>
<path d="M127.753 231.107C184.835 231.107 231.109 184.833 231.109 127.751C231.109 70.6691 184.835 24.395 127.753 24.395C70.6713 24.395 24.3975 70.6691 24.3975 127.751C24.3975 184.833 70.6713 231.107 127.753 231.107Z" stroke="#0000FF" stroke-width="0.450359" stroke-miterlimit="10"/>
</svg>
