<svg width="256" height="256" viewBox="0 0 256 256" fill="none" xmlns="http://www.w3.org/2000/svg">
<path d="M128.5 256C198.916 256 256 198.916 256 128.5C256 58.0837 198.916 1 128.5 1C58.0837 1 1 58.0837 1 128.5C1 198.916 58.0837 256 128.5 256Z" fill="url(#paint0_radial_741_46)"/>
<mask id="mask0_741_46" style="mask-type:luminance" maskUnits="userSpaceOnUse" x="72" y="54" width="116" height="163">
<path d="M187.944 54.3718H72.1629V216.465H187.944V54.3718Z" fill="white"/>
</mask>
<g mask="url(#mask0_741_46)">
<path d="M129.579 105.404C126.873 102.898 121.508 99.4425 112.201 99.4872C102.892 99.5327 104.413 104.417 104.413 104.417C104.413 104.417 104.223 108.402 110.303 108.526C116.382 108.65 122.9 108.895 128.188 110.911C133.475 112.926 132.288 107.906 129.579 105.404Z" fill="#1F1C1C"/>
<path d="M107.58 114.507C107.021 114.85 106.878 115.816 107.527 115.937C111.203 116.62 117.017 117.86 123.505 116.794C124.118 116.693 124.027 115.84 123.582 115.398C121.281 113.107 115.101 109.895 107.58 114.507Z" fill="#1F1C1C"/>
<path d="M184.057 178.596C183.972 178.474 183.856 178.378 183.721 178.319C183.585 178.26 183.437 178.24 183.292 178.261C183.146 178.283 183.009 178.345 182.896 178.441C182.783 178.536 182.698 178.663 182.652 178.804C178.868 190.251 175.771 187.446 174.339 184.985C173.842 184.116 173.471 183.177 173.238 182.2C169.628 167.577 172.933 154.107 172.933 154.107C174.899 160.332 180.053 162.178 182.694 162.717C182.844 162.748 183 162.735 183.142 162.68C183.286 162.624 183.41 162.528 183.502 162.403C183.593 162.278 183.648 162.128 183.659 161.973C183.67 161.817 183.638 161.662 183.565 161.524C173.449 141.344 179.43 132.793 179.43 132.793C181.171 134.763 184.04 134.939 185.849 134.837C186.001 134.828 186.148 134.775 186.273 134.685C186.397 134.595 186.493 134.472 186.552 134.328C186.61 134.184 186.627 134.027 186.601 133.874C186.576 133.721 186.508 133.579 186.407 133.463C179.076 125.226 178.519 122.432 178.233 108.48C178.076 100.749 175.408 96.6835 172.926 94.5656C170.087 92.1452 167.822 89.0618 166.582 85.5035C156.691 57.2063 138.185 53.4671 121.013 54.5259C99.6932 55.8423 88.3423 72.4495 82.9535 80.7246C77.2539 89.4739 72.8121 102.411 73.1119 106.37C73.4117 110.329 77.001 109.709 77.001 114.285C77.001 118.862 70.0519 122.667 72.7839 135.533C73.9899 141.202 78.8749 145.451 76.6778 158.4C72.7487 181.673 90.2748 209.951 94.6422 214.17C95.1715 214.678 96.1019 214.267 96.0054 213.533C95.3238 208.339 96.3217 201.132 96.3217 201.132C105.103 220.289 129.669 216.735 137.363 215.092C137.526 215.059 137.674 214.974 137.788 214.85C137.903 214.726 137.976 214.57 137.999 214.403C138.022 214.234 137.994 214.063 137.918 213.913C137.843 213.762 137.723 213.638 137.576 213.559C129.807 209.36 128.031 200.827 128.031 200.827C135.763 204.552 140.715 203.928 143.103 203.129C143.248 203.079 143.376 202.989 143.473 202.868C143.57 202.748 143.631 202.602 143.649 202.447C143.668 202.292 143.643 202.136 143.577 201.995C143.511 201.854 143.408 201.735 143.278 201.653C140.949 200.164 137.4 194.021 134.716 188.009C133.613 185.528 133.222 182.781 133.588 180.084C133.954 177.387 135.06 174.85 136.782 172.766C139.923 168.951 144.045 163.625 148.73 157.966C149.709 156.774 151.073 157.938 151.588 159.23C158.434 176.674 167.339 189.824 173.477 193.449C177.928 196.246 182.803 196.749 184.994 194.989C191.034 190.141 186.245 181.778 184.057 178.596ZM109.95 162.361C102.607 162.812 104.28 153.099 98.8869 153.338C93.1101 153.6 94.8414 161.007 90.966 161.458C87.0914 161.908 87.5435 150.581 90.2631 149.267C94.5484 147.202 99.5664 146.706 103.584 146.849C108.345 147.016 112.893 146.827 115.026 151.487C117.554 156.983 117.29 161.923 109.95 162.361ZM156.382 92.9509C146.619 98.8558 146.045 101.775 144.646 112.158C144.338 114.44 144.023 117.111 145.049 118.62C147.367 122.028 151.773 124.552 150.564 130.306C147.683 144.001 140.085 160.058 129.894 165.075C128.666 165.678 127.261 164.458 126.975 163.103C125.838 157.675 123.135 147.808 122.404 144.586C118.775 126.13 101.48 125.875 100.996 129.404C100.852 130.454 104.498 131.837 106.813 132.605C108.938 133.32 109.01 136.406 106.895 137.135C106.34 137.315 105.762 137.41 105.18 137.417C100.904 137.119 95.4809 137.457 93.035 137.639C92.2162 137.701 91.4044 137.451 90.7572 136.937C90.1094 136.423 89.6738 135.682 89.5346 134.858C88.5787 129.208 90.2679 127.184 92.3106 121.818C93.3279 119.148 94.6325 113.763 95.0846 111.001C95.319 109.52 95.2183 107.742 95.066 106.408C94.8813 104.832 94.8083 103.245 94.8482 101.658C94.9937 96.5381 95.4926 92.3575 99.3232 92.3575C106.223 92.3575 120.822 92.3788 123.135 88.926C125.56 85.3105 112.028 88.8157 97.4865 88.3388C97.2018 88.3292 96.9303 88.2147 96.7228 88.0163C96.5161 87.8178 96.3865 87.5497 96.3589 87.2609C96.3589 87.1706 96.3431 87.0824 96.3334 86.9914C96.3114 86.733 96.3424 86.4732 96.4237 86.2271C96.5051 85.9818 96.6353 85.755 96.8062 85.5634C96.9772 85.3712 97.1853 85.2168 97.4175 85.1099C97.6498 85.0031 97.9014 84.9466 98.1564 84.9432C105.923 84.8453 111.831 84.2967 113.384 81.9934C114.964 79.6371 107.115 80.6936 98.2198 80.777C97.0805 80.777 96.1391 80.7605 96.1977 79.604V79.5654C96.2218 79.1064 96.4106 78.6729 96.7284 78.3462C97.0461 78.0203 97.4713 77.8245 97.922 77.7963C103.156 77.4455 105.386 77.0402 105.606 75.3372C105.826 73.6349 105.068 73.8066 99.2804 74.145C98.0226 74.2166 98.3831 73.2462 99.0978 72.1849C100.904 69.4782 108.98 61.6706 126.849 62.2405C157.459 63.2325 156.491 85.3009 157.429 90.6621C157.505 91.1066 157.445 91.5642 157.258 91.9736C157.07 92.383 156.765 92.7241 156.382 92.9509Z" fill="#1F1C1C"/>
</g>
<defs>
<radialGradient id="paint0_radial_741_46" cx="0" cy="0" r="1" gradientUnits="userSpaceOnUse" gradientTransform="translate(128.5 128.5) rotate(90) scale(151.221)">
<stop stop-color="#F0C0BF"/>
<stop offset="1" stop-color="#EC6F6F"/>
</radialGradient>
</defs>
</svg>
