<svg width="256" height="256" viewBox="0 0 256 256" fill="none" xmlns="http://www.w3.org/2000/svg">
<g clip-path="url(#clip0_1851_2342)">
<path d="M128 256C198.692 256 256 198.692 256 128C256 57.3076 198.692 0 128 0C57.3076 0 0 57.3076 0 128C0 198.692 57.3076 256 128 256Z" fill="url(#paint0_radial_1851_2342)"/>
<mask id="mask0_1851_2342" style="mask-type:luminance" maskUnits="userSpaceOnUse" x="71" y="53" width="117" height="164">
<path d="M187.677 53.5811H71.4424V216.31H187.677V53.5811Z" fill="white"/>
</mask>
<g mask="url(#mask0_1851_2342)">
<path d="M129.084 104.813C126.368 102.298 120.981 98.8285 111.637 98.8735C102.293 98.9191 103.819 103.823 103.819 103.823C103.819 103.823 103.629 107.823 109.732 107.948C115.835 108.072 122.378 108.318 127.687 110.342C132.995 112.365 131.803 107.325 129.084 104.813Z" fill="#1F1C1C"/>
<path d="M106.998 113.952C106.437 114.296 106.293 115.266 106.945 115.388C110.635 116.073 116.473 117.318 122.985 116.248C123.601 116.147 123.51 115.29 123.063 114.847C120.753 112.547 114.548 109.322 106.998 113.952Z" fill="#1F1C1C"/>
<path d="M183.775 178.293C183.69 178.17 183.573 178.073 183.437 178.014C183.302 177.955 183.153 177.935 183.007 177.957C182.86 177.978 182.723 178.04 182.61 178.136C182.496 178.233 182.411 178.359 182.364 178.501C178.566 189.993 175.456 187.177 174.019 184.707C173.52 183.834 173.148 182.892 172.914 181.911C169.29 167.23 172.608 153.708 172.608 153.708C174.581 159.957 179.756 161.81 182.406 162.351C182.557 162.382 182.714 162.37 182.857 162.314C183.001 162.258 183.126 162.161 183.218 162.035C183.309 161.91 183.365 161.76 183.376 161.604C183.387 161.448 183.354 161.292 183.281 161.154C173.125 140.895 179.13 132.31 179.13 132.31C180.877 134.287 183.758 134.464 185.575 134.362C185.727 134.353 185.874 134.3 185.999 134.21C186.124 134.119 186.221 133.995 186.28 133.851C186.338 133.707 186.355 133.549 186.329 133.395C186.304 133.242 186.236 133.098 186.134 132.982C178.775 124.713 178.215 121.908 177.928 107.902C177.771 100.14 175.092 96.0587 172.601 93.9325C169.75 91.5026 167.476 88.407 166.231 84.8348C156.301 56.4267 137.723 52.6728 120.483 53.7357C99.0805 55.0573 87.685 71.7297 82.2751 80.0372C76.5532 88.8208 72.0939 101.809 72.3949 105.783C72.6959 109.757 76.2993 109.135 76.2993 113.729C76.2993 118.324 69.3229 122.144 72.0656 135.061C73.2764 140.751 78.1805 145.018 75.9748 158.018C72.0303 181.381 89.6251 209.77 94.0096 214.005C94.541 214.515 95.4751 214.104 95.3782 213.366C94.6939 208.152 95.6958 200.917 95.6958 200.917C104.511 220.149 129.174 216.581 136.898 214.932C137.061 214.898 137.211 214.813 137.325 214.688C137.44 214.565 137.513 214.407 137.537 214.239C137.56 214.071 137.532 213.899 137.456 213.747C137.379 213.596 137.26 213.472 137.112 213.392C129.313 209.177 127.53 200.61 127.53 200.61C135.291 204.35 140.263 203.723 142.66 202.921C142.806 202.872 142.935 202.781 143.032 202.66C143.129 202.539 143.191 202.392 143.209 202.237C143.227 202.081 143.202 201.924 143.136 201.783C143.07 201.642 142.967 201.522 142.836 201.439C140.499 199.945 136.935 193.778 134.24 187.743C133.133 185.252 132.741 182.494 133.108 179.787C133.475 177.079 134.586 174.532 136.315 172.439C139.468 168.609 143.606 163.263 148.309 157.582C149.292 156.385 150.662 157.553 151.179 158.851C158.051 176.363 166.991 189.564 173.154 193.204C177.622 196.011 182.516 196.517 184.716 194.75C190.779 189.883 185.972 181.487 183.775 178.293ZM109.377 161.994C102.006 162.446 103.686 152.696 98.271 152.935C92.4716 153.198 94.2096 160.634 90.3191 161.087C86.4293 161.539 86.8831 150.167 89.6133 148.848C93.9155 146.775 98.9532 146.277 102.987 146.421C107.766 146.588 112.332 146.399 114.474 151.077C117.012 156.595 116.746 161.554 109.377 161.994ZM155.991 92.3114C146.191 98.2395 145.614 101.17 144.21 111.594C143.9 113.885 143.584 116.566 144.615 118.082C146.941 121.503 151.365 124.036 150.151 129.813C147.258 143.562 139.631 159.682 129.4 164.719C128.167 165.324 126.756 164.099 126.469 162.738C125.328 157.29 122.615 147.383 121.88 144.149C118.237 125.62 100.875 125.364 100.388 128.908C100.244 129.961 103.904 131.35 106.228 132.121C108.362 132.839 108.434 135.937 106.31 136.669C105.753 136.849 105.173 136.945 104.589 136.952C100.296 136.653 94.8517 136.992 92.3961 137.174C91.5742 137.237 90.7591 136.986 90.1094 136.47C89.4591 135.954 89.0218 135.21 88.882 134.383C87.9224 128.711 89.6182 126.679 91.669 121.292C92.6902 118.611 93.9999 113.205 94.4538 110.433C94.6891 108.946 94.588 107.16 94.4351 105.821C94.2497 104.24 94.1764 102.645 94.2165 101.053C94.3625 95.9127 94.8634 91.7157 98.709 91.7157C105.635 91.7157 120.293 91.7371 122.615 88.2707C125.049 84.6411 111.463 88.16 96.8651 87.6812C96.5793 87.6715 96.3067 87.5567 96.0984 87.3574C95.8909 87.1582 95.7608 86.889 95.7331 86.5991C95.7331 86.5085 95.7172 86.4199 95.7075 86.3286C95.6854 86.0691 95.7165 85.8083 95.7982 85.5613C95.8798 85.315 96.0106 85.0873 96.1822 84.895C96.3538 84.702 96.5627 84.547 96.7959 84.4397C97.029 84.3325 97.2816 84.2757 97.5376 84.2723C105.335 84.174 111.266 83.6233 112.825 81.311C114.411 78.9454 106.531 80.0061 97.6012 80.0898C96.4575 80.0898 95.5124 80.0732 95.5712 78.9122V78.8735C95.5954 78.4127 95.785 77.9775 96.104 77.6495C96.4229 77.3222 96.8498 77.1257 97.3023 77.0974C102.557 76.7452 104.796 76.3384 105.017 74.6287C105.238 72.9197 104.476 73.092 98.6661 73.4317C97.4034 73.5037 97.7652 72.5295 98.4827 71.464C100.296 68.7466 108.404 60.9084 126.342 61.4806C157.073 62.4765 156.101 84.6314 157.042 90.0136C157.118 90.4599 157.058 90.9193 156.871 91.3303C156.683 91.7413 156.376 92.0837 155.991 92.3114Z" fill="#1F1C1C"/>
</g>
</g>
<defs>
<radialGradient id="paint0_radial_1851_2342" cx="0" cy="0" r="1" gradientUnits="userSpaceOnUse" gradientTransform="translate(128 128) rotate(90) scale(151.814)">
<stop stop-color="#F0C0BF"/>
<stop offset="1" stop-color="#EC6F6F"/>
</radialGradient>
<clipPath id="clip0_1851_2342">
<rect width="256" height="256" fill="white"/>
</clipPath>
</defs>
</svg>
