<svg width="256" height="256" viewBox="0 0 256 256" fill="none" xmlns="http://www.w3.org/2000/svg">
<mask id="mask0_1497_53" style="mask-type:alpha" maskUnits="userSpaceOnUse" x="12" y="12" width="233" height="233">
<path d="M245 128.5C245 192.841 192.841 245 128.5 245C64.1588 245 12 192.841 12 128.5C12 64.1588 64.1588 12 128.5 12C192.841 12 245 64.1588 245 128.5Z" fill="black"/>
</mask>
<g mask="url(#mask0_1497_53)">
<mask id="mask1_1497_53" style="mask-type:alpha" maskUnits="userSpaceOnUse" x="10" y="10" width="235" height="235">
<path d="M192.98 10.9961H63.0175C34.2873 10.9961 10.9968 34.2865 10.9968 63.0168V192.979C10.9968 221.708 34.2873 244.999 63.0175 244.999H192.98C221.709 244.999 245 221.708 245 192.979V63.0168C245 34.2865 221.709 10.9961 192.98 10.9961Z" fill="white"/>
</mask>
<g mask="url(#mask1_1497_53)">
<path d="M10.7571 24.4816C10.7571 16.9011 16.9023 10.7559 24.4829 10.7559H231.357C238.937 10.7559 245.082 16.9011 245.082 24.4816V231.356C245.082 238.936 238.937 245.081 231.357 245.081H24.4829C16.9023 245.081 10.7571 238.936 10.7571 231.356V24.4816Z" fill="white"/>
<path d="M10.9963 10.999H245.375V245.378H10.9963V10.999Z" fill="url(#paint0_radial_1497_53)"/>
</g>
<mask id="mask2_1497_53" style="mask-type:luminance" maskUnits="userSpaceOnUse" x="10" y="10" width="235" height="236">
<path d="M245 10.998H10.9968V245.001H245V10.998Z" fill="white"/>
</mask>
<g mask="url(#mask2_1497_53)">
<path d="M122.015 125.048L10.9968 70.2988V192.979C10.9968 221.708 34.2874 244.999 63.0175 244.999H185.697L122.881 125.89C122.689 125.524 122.386 125.228 122.015 125.045V125.048Z" fill="black"/>
<path d="M192.98 10.9961H70.3L133.97 130.531C134.162 130.894 134.465 131.185 134.833 131.368L245.003 185.696V63.0168C245 34.2867 221.709 10.9961 192.98 10.9961Z" fill="black"/>
</g>
</g>
<defs>
<radialGradient id="paint0_radial_1497_53" cx="0" cy="0" r="1" gradientUnits="userSpaceOnUse" gradientTransform="translate(128.186 128.188) rotate(-135) scale(198.877 149.986)">
<stop offset="0.140625" stop-color="#FFFBD8"/>
<stop offset="0.307292" stop-color="#5FECDB" stop-opacity="0.64"/>
<stop offset="0.520833" stop-color="#4FBAF7"/>
<stop offset="0.791667" stop-color="#A745F4"/>
</radialGradient>
</defs>
</svg>
