<svg width="256" height="256" viewBox="0 0 256 256" fill="none" xmlns="http://www.w3.org/2000/svg">
<path d="M253.563 129.219C253.563 59.199 196.801 2.43701 126.782 2.43701C56.762 2.43701 0 59.199 0 129.219C0 199.238 56.762 256 126.782 256C196.801 256 253.563 199.238 253.563 129.219Z" fill="black"/>
<path d="M148.925 150.693L198.498 101.74V88.9473H185.533L135.961 137.911V74.8808L126.803 65.8276L117.635 74.8808V137.9L68.0628 88.9368H55.0981V101.729L104.681 150.682H40.864C37.2871 154.214 35.2732 156.193 31.6963 159.735L40.864 168.778H111.048L126.782 153.241L142.516 168.778H212.701L221.868 159.735L212.701 150.682L148.925 150.693Z" fill="#FFF5E4"/>
</svg>
