<svg width="256" height="256" viewBox="0 0 256 256" fill="none" xmlns="http://www.w3.org/2000/svg">
<g clip-path="url(#clip0_2237_1009)">
<path d="M256 128C256 57.3075 198.692 0 128 0C57.3075 0 0 57.3075 0 128C0 198.692 57.3075 256 128 256C198.692 256 256 198.692 256 128Z" fill="#621BCE"/>
<mask id="mask0_2237_1009" style="mask-type:alpha" maskUnits="userSpaceOnUse" x="0" y="0" width="256" height="256">
<path d="M256 128C256 57.3076 198.692 0 128 0C57.3076 0 0 57.3076 0 128C0 198.692 57.3076 256 128 256C198.692 256 256 198.692 256 128Z" fill="#42438F"/>
</mask>
<g mask="url(#mask0_2237_1009)">
<path d="M169.276 189.554C160.342 199.911 143.278 206.518 123.98 206.429C77.3428 206.25 44.822 173.572 45.0007 125.447C45.0901 80.9827 83.7754 44.8221 128.268 45.0007C176.424 45.1792 211.178 77.8577 210.999 125.983L210.553 280L169.098 279.911L169.276 189.554ZM169.455 125.804C169.544 101.34 152.569 83.572 128.089 83.4827C104.414 83.3934 86.5451 101.161 86.4557 125.536C86.3664 149.197 104.146 167.768 127.821 167.857C152.301 168.036 169.366 149.554 169.455 125.804Z" fill="white"/>
</g>
</g>
<defs>
<clipPath id="clip0_2237_1009">
<rect width="256" height="256" fill="white"/>
</clipPath>
</defs>
</svg>
