<svg width="256" height="256" viewBox="0 0 256 256" fill="none" xmlns="http://www.w3.org/2000/svg">
<g clip-path="url(#clip0_2293_582)">
<path d="M128.012 235.018C190.341 235.018 240.869 184.498 240.869 122.178C240.869 59.8582 190.341 9.33789 128.012 9.33789C65.683 9.33789 15.1553 59.8582 15.1553 122.178C15.1553 184.498 65.683 235.018 128.012 235.018Z" fill="white"/>
<path d="M108.434 0.950185C-56.4792 32.2707 -25.2047 273.003 147.566 255.05C312.479 223.729 281.192 -17.0034 108.434 0.950185ZM204.83 137.243C148.174 198.135 130.877 217.939 114.289 201.316C28.3726 111.624 27.1941 144.794 110.994 57.9784C113.288 55.4444 120.055 47.4116 132.156 49.3881C146.995 54.1774 154.827 69.9517 182.097 94.8612C199.318 113.144 212.358 118.732 204.83 137.243Z" fill="url(#paint0_radial_2293_582)"/>
<path d="M94.5963 157.003L161.378 157.026C164.576 157.027 167.17 154.435 167.171 151.238C167.172 148.04 164.58 145.446 161.382 145.445L94.6004 145.422C91.402 145.421 88.8084 148.012 88.8072 151.21C88.8061 154.408 91.398 157.001 94.5963 157.003Z" fill="#8850E2"/>
<path d="M94.6139 133.74L161.395 133.764C164.594 133.765 167.187 131.173 167.189 127.975C167.19 124.778 164.598 122.184 161.399 122.183L94.6179 122.16C91.4196 122.159 88.8259 124.75 88.8248 127.948C88.8237 131.146 91.4156 133.739 94.6139 133.74Z" fill="#8850E2"/>
<path d="M94.6188 110.592L161.4 110.615C164.599 110.616 167.192 108.025 167.193 104.827C167.195 101.629 164.603 99.0358 161.404 99.0347L94.6228 99.0114C91.4245 99.0102 88.8308 101.602 88.8297 104.8C88.8286 107.997 91.4204 110.591 94.6188 110.592Z" fill="#8850E2"/>
</g>
<defs>
<radialGradient id="paint0_radial_2293_582" cx="0" cy="0" r="1" gradientUnits="userSpaceOnUse" gradientTransform="translate(128 128.006) scale(128.013 127.994)">
<stop stop-color="#BEBBFF"/>
<stop offset="1" stop-color="#8850E2"/>
</radialGradient>
<clipPath id="clip0_2293_582">
<rect width="256" height="256" fill="white"/>
</clipPath>
</defs>
</svg>
