<svg width="256" height="256" viewBox="0 0 256 256" fill="none" xmlns="http://www.w3.org/2000/svg">
<circle cx="128.5" cy="128.5" r="127.5" fill="#006CFF"/>
<path d="M217.857 119.882L180.191 54.9505C178.751 52.5283 176.7 50.5211 174.242 49.1269C171.784 47.7327 169.002 46.9996 166.172 47H90.8308C87.9895 47.0006 85.1984 47.7444 82.7377 49.1566C80.2769 50.5689 78.2332 52.6 76.8119 55.0459L39.1453 119.954C37.7394 122.405 37 125.178 37 128C37 130.821 37.7394 133.595 39.1453 136.046L76.8119 200.954C78.227 203.406 80.2693 205.441 82.7314 206.854C85.1936 208.267 87.9879 209.008 90.8308 209H166.164C169.005 208.999 171.797 208.255 174.257 206.843C176.718 205.431 178.762 203.4 180.183 200.954L217.849 136.046C219.258 133.583 219.999 130.798 220 127.965C220.001 125.132 219.263 122.347 217.857 119.882ZM128.497 183.685V172.554C137.369 172.554 146.042 169.939 153.418 165.039C160.795 160.139 166.544 153.174 169.939 145.026C173.334 136.877 174.222 127.911 172.492 119.26C170.761 110.61 166.488 102.664 160.215 96.4271C153.942 90.1904 145.95 85.9432 137.249 84.2226C128.547 82.5019 119.528 83.385 111.332 86.7602C103.136 90.1355 96.1299 95.8513 91.201 103.185C86.2722 110.518 83.6414 119.14 83.6414 127.96C83.6164 137.686 86.8305 147.146 92.7821 154.865L100.875 147.026C96.9441 141.433 94.8491 134.768 94.8774 127.944C94.8774 121.319 96.8534 114.843 100.556 109.335C104.257 103.827 109.519 99.5336 115.676 96.9984C121.833 94.4632 128.607 93.7999 135.142 95.0923C141.678 96.3848 147.681 99.5749 152.393 104.259C157.105 108.944 160.314 114.912 161.614 121.41C162.914 127.907 162.246 134.642 159.697 140.762C157.147 146.883 152.828 152.114 147.288 155.795C141.747 159.475 135.233 161.44 128.57 161.44V150.309C133.01 150.297 137.347 148.976 141.032 146.514C144.718 144.053 147.588 140.561 149.277 136.479C150.968 132.396 151.404 127.908 150.53 123.58C149.656 119.252 147.512 115.279 144.368 112.162C141.223 109.045 137.22 106.924 132.864 106.068C128.509 105.211 123.995 105.657 119.894 107.349C115.793 109.041 112.289 111.904 109.823 115.575C107.357 119.246 106.042 123.562 106.042 127.976C106.028 131.886 107.063 135.728 109.04 139.107L117.413 130.989C117.134 130.02 116.994 129.016 116.997 128.008C116.997 125.745 117.672 123.533 118.937 121.652C120.202 119.77 121.999 118.304 124.102 117.438C126.204 116.572 128.518 116.345 130.751 116.787C132.983 117.229 135.033 118.318 136.643 119.918C138.252 121.518 139.348 123.556 139.792 125.776C140.236 127.995 140.008 130.295 139.137 132.386C138.266 134.477 136.791 136.263 134.899 137.521C133.007 138.778 130.781 139.449 128.506 139.449C127.389 139.439 126.282 139.251 125.227 138.892L96.2769 166.973C96.0066 167.241 95.7029 167.474 95.3732 167.665C95.3012 167.737 95.1653 167.737 95.0933 167.801C94.8763 167.944 94.6428 168.061 94.3976 168.15C94.2616 168.221 94.1177 168.221 93.9817 168.285L93.35 168.492C93.215 168.488 93.081 168.516 92.9581 168.572C92.7502 168.572 92.5422 168.643 92.3983 168.643C92.1904 168.643 91.9824 168.572 91.7665 168.572C91.6009 168.577 91.4356 168.553 91.2787 168.5L90.6469 168.293C90.511 168.221 90.3671 168.221 90.2311 168.158C90.0063 168.069 89.794 167.951 89.5993 167.808C89.4732 167.755 89.3549 167.686 89.2474 167.601C89.0461 167.457 88.8587 167.295 88.6876 167.116C88.6156 167.045 88.4797 166.982 88.4077 166.838C79.3871 157.623 73.8505 145.59 72.7372 132.779C71.6239 119.968 75.0024 107.169 82.2997 96.553C89.5969 85.9366 100.364 78.1566 112.773 74.5329C125.182 70.909 138.471 71.6645 150.384 76.6712C162.297 81.6779 172.101 90.6275 178.134 102.002C184.165 113.376 186.055 126.474 183.479 139.076C180.904 151.676 174.024 163.004 164.005 171.136C153.987 179.268 141.448 183.705 128.513 183.693L128.497 183.685Z" fill="white"/>
</svg>
