<svg width="256" height="256" viewBox="0 0 256 256" fill="none" xmlns="http://www.w3.org/2000/svg">
<g clip-path="url(#clip0_741_46)">
<circle cx="128" cy="128" r="127" fill="black"/>
<path d="M129 1C154.316 1 179.063 8.50707 200.113 22.5719C221.162 36.6367 237.569 56.6276 247.257 80.0165C256.945 103.405 259.479 129.142 254.541 153.972C249.602 178.801 237.411 201.609 219.51 219.51C201.609 237.411 178.801 249.602 153.972 254.541C129.142 259.479 103.405 256.945 80.0165 247.257C56.6276 237.569 36.6367 221.162 22.5719 200.113C8.50707 179.063 1 154.316 1 129C1 95.0523 14.4857 62.495 38.4903 38.4903C62.495 14.4857 95.0523 1 129 1Z" fill="#41C1D0" fill-opacity="0.15"/>
<g opacity="0.771">
<path d="M110.555 122.098C109.64 122.053 108.677 122.447 107.832 121.778C108.751 121.597 109.703 121.709 110.555 122.098Z" fill="#2A373B"/>
<path d="M114.398 122.498C113.637 122.52 112.84 122.818 112.158 122.213C112.916 122.045 113.707 122.146 114.398 122.498Z" fill="#2A373B"/>
<path d="M101.266 159.195C100.289 159.881 99.1342 160.268 97.9417 160.311C96.7491 160.355 95.5695 160.051 94.5457 159.438C92.9905 154.318 91.8289 149.102 90.4209 143.95C86.8465 130.853 83.4064 117.71 79.8896 104.606C79.6473 103.903 79.5825 103.151 79.7008 102.417C79.7392 101.992 80.0497 101.777 80.3409 101.541C83.7717 100.275 87.3046 99.3048 90.9008 98.6415C91.6137 98.4353 92.3397 98.2771 93.0737 98.1679C93.7725 98.5409 94.3395 99.12 94.6979 99.8264C95.0563 100.533 95.1885 101.332 95.0768 102.117C96.1968 100.005 96.4081 97.2719 99.3201 96.6767C100.217 96.5618 101.106 96.3919 101.982 96.1679C102.245 96.1496 102.506 96.2194 102.725 96.3663C103.138 96.7932 103.399 97.3443 103.467 97.9343C106.509 110.867 109.581 123.792 112.683 136.712C112.806 137.123 112.878 137.547 112.898 137.976C112.537 139.591 111.837 141.11 110.843 142.433C108.082 147.483 105.358 152.552 102.507 157.553C102.167 158.153 101.75 158.705 101.266 159.195Z" fill="#1FC8A7"/>
<path d="M179.688 157.855C179.436 158.407 179.004 158.858 178.462 159.135C175.866 160.134 173.173 160.865 170.427 161.314C159.278 163.948 148.136 166.616 136.981 169.228C131.509 170.508 126.046 171.845 120.565 173.09C120.008 173.29 119.404 173.32 118.83 173.176C118.043 172.6 118.606 172.028 118.875 171.503C120.971 167.41 123.285 163.432 125.499 159.404C129.387 152.332 133.24 145.234 137.186 138.197C137.922 136.882 138.29 135.269 139.8 134.482C141.304 134.858 142.729 135.496 144.011 136.367C150.997 140.181 157.995 143.97 164.978 147.791C169.611 150.332 174.334 152.709 178.85 155.471C179.24 156.222 179.523 157.024 179.688 157.855Z" fill="#1FC8A7"/>
<path d="M118.654 172.952C123.544 172.098 128.325 170.767 133.147 169.637C147.886 166.191 162.61 162.674 177.342 159.196C177.711 159.139 178.083 159.112 178.456 159.116C175.661 161.163 172.737 163.029 169.704 164.703C152.823 175.105 135.928 185.481 119.019 195.832C117.016 197.064 115.029 198.316 113.006 199.522C111.73 200.384 110.177 200.735 108.654 200.506C107.131 200.277 105.749 199.485 104.782 198.287C104.424 197.775 104.782 197.368 105.003 196.965C109.208 189.285 113.413 181.605 117.678 173.941C117.918 173.532 118.104 173.068 118.654 172.952Z" fill="#198889"/>
<path d="M102.574 96.4049H101.909C101.589 96.6193 101.317 96.5809 101.173 96.1777C100.296 95.9793 102.411 95.9505 101.173 95.5377C99.3937 94.9585 97.4161 94.5329 96.6129 92.4593C96.4625 92.0721 96.2128 91.6977 96.456 91.2561C100.571 88.7793 104.706 86.3313 108.805 83.8193C121.157 76.2481 133.501 68.6663 145.838 61.0737C147.177 60.1084 148.836 59.6949 150.471 59.9189C152.106 60.1429 153.593 60.9871 154.622 62.2769C153.279 65.2483 151.753 68.1338 150.053 70.9169C147.355 75.9089 144.587 80.8593 141.858 85.8353C141.543 86.5787 141.033 87.2233 140.382 87.7009C135.457 89.094 130.479 90.2673 125.451 91.2209C123.97 91.6145 122.488 92.0273 120.971 92.3537C118.389 93.0353 115.81 93.7137 113.186 94.2225C110.31 94.8625 107.444 95.5345 104.587 96.2385C103.95 96.5007 103.246 96.5589 102.574 96.4049Z" fill="#198889"/>
<path d="M118.658 172.959L104.786 198.293C104.017 197.628 103.451 196.76 103.151 195.789C102.85 194.818 102.828 193.782 103.086 192.799C104.298 187.726 105.522 182.656 106.757 177.589C106.993 176.712 107.381 175.883 107.906 175.141C123.854 151.186 139.801 127.228 155.746 103.266C156.191 102.344 156.931 101.596 157.848 101.141C158.187 101.848 157.701 102.376 157.422 102.92C155.947 105.832 154.29 108.639 152.741 111.503C152.259 112.334 151.857 113.21 151.541 114.117C150.406 115.795 149.374 117.54 148.45 119.343C147.042 121.8 145.682 124.284 144.382 126.799C143.147 129.135 141.755 131.384 140.568 133.749C140.433 134.097 140.184 134.388 139.861 134.575C138.518 136.368 137.369 138.299 136.434 140.335C130.488 151.029 124.619 161.775 118.731 172.492C118.682 172.642 118.657 172.8 118.658 172.959Z" fill="#68FDE1"/>
<path d="M140.498 87.397C144.376 80.3762 148.235 73.3458 152.146 66.3442C152.761 64.8748 153.599 63.5085 154.629 62.293C155.347 63.1607 155.836 64.1952 156.05 65.3012C156.264 66.4072 156.197 67.5494 155.854 68.6226C154.651 73.3074 153.531 78.0178 152.37 82.7026C152.115 83.6292 151.7 84.5042 151.144 85.2882C135.212 109.211 119.288 133.14 103.371 157.074C102.915 157.991 102.171 158.734 101.253 159.189L111.237 140.898C111.783 140.042 112.23 139.126 112.568 138.168C113.607 135.53 114.893 132.996 116.408 130.6C117.573 128.36 118.843 126.197 120.008 123.967C122.072 120.623 123.848 117.125 125.768 113.688C127.048 111.304 128.309 108.92 129.64 106.568C132.603 101.387 135.422 96.1266 138.312 90.8882C138.898 89.6364 139.633 88.4599 140.501 87.3842L140.498 87.397Z" fill="#68FDE1"/>
<path d="M179.675 157.854C178.747 157.374 179.01 156.392 178.738 155.634C177.639 153.112 176.82 150.478 176.296 147.778C175.931 146.287 175.462 144.823 174.894 143.397C174.142 139.762 172.914 136.242 172.197 132.597C171.592 129.742 170.809 126.928 169.851 124.171C167.965 117.089 166.091 110.004 164.229 102.917C164.046 102.226 163.48 101.397 164.549 100.872C165.817 101.471 166.82 102.516 167.368 103.806C173.036 115.252 178.699 126.7 184.357 138.152C184.719 138.775 184.952 139.464 185.041 140.179C185.13 140.894 185.074 141.62 184.875 142.312C183.195 147.509 181.698 152.766 179.675 157.854Z" fill="#68FDE1"/>
<path d="M79.7104 102.411C81.6005 109.421 83.4885 116.432 85.3744 123.445C88.3802 134.69 91.3669 145.939 94.3343 157.192C94.5199 157.893 95.1695 158.629 94.5551 159.432C93.4014 158.852 92.4786 157.897 91.9376 156.725C86.2885 145.318 80.6352 133.915 74.9776 122.517C74.5383 121.662 74.2795 120.726 74.2173 119.767C74.1551 118.808 74.2908 117.847 74.616 116.942C76.0176 112.706 77.3872 108.459 78.7952 104.229C78.9187 103.547 79.2366 102.916 79.7104 102.411Z" fill="#68FDE1"/>
<path d="M164.59 100.875C164.082 101.349 164.402 101.835 164.539 102.354C166.402 109.355 168.26 116.357 170.114 123.359C170.181 123.605 170.325 123.861 170.114 124.111C169.825 124.16 169.528 124.147 169.245 124.072C168.961 123.998 168.696 123.864 168.469 123.679C163.064 120.799 157.707 117.823 152.299 114.943C151.925 114.744 151.541 114.533 151.445 114.056C151.054 112.955 151.944 112.28 152.357 111.471C154.133 107.995 156.277 104.722 157.874 101.147C158.843 100.446 159.997 100.046 161.193 99.9977C162.388 99.9493 163.571 100.255 164.594 100.875H164.59Z" fill="#1FC8A7"/>
<path d="M96.4624 91.2719C97.0288 93.8319 99.1984 94.4719 101.262 95.2271C102.222 95.5759 102.043 95.8127 101.282 96.1327C100.744 96.7983 99.9024 96.7471 99.1984 97.0159C98.5378 97.2293 97.941 97.6046 97.4626 98.1076C96.9842 98.6107 96.6393 99.2254 96.4593 99.8959C96.1105 100.722 95.7776 101.554 95.3904 102.498C94.8275 101.029 94.1391 99.6113 93.3328 98.2607C91.716 97.6883 90.1925 96.8807 88.8112 95.8639C88.6224 95.6399 88.68 95.5151 88.9584 95.4479C90.6095 95.1472 92.1167 94.3139 93.2494 93.0755C94.3821 91.837 95.0779 90.2617 95.2305 88.5903L96.4624 91.2719Z" fill="#FDFEFE"/>
<path d="M88.8048 95.8579C90.4758 96.2998 92.0228 97.1198 93.3264 98.2547C91.5479 99.0402 89.6701 99.5785 87.7456 99.8547C85.32 100.556 82.8208 100.994 80.3536 101.551C82.7145 99.8191 85.1718 98.223 87.7136 96.7699C88.1104 96.4915 88.5968 96.3443 88.8048 95.8579Z" fill="#19898A"/>
<path d="M120.286 124.021C119.006 127.186 117.086 130.027 115.518 133.054C114.616 134.798 113.566 136.469 112.584 138.174C109.341 124.555 106.099 110.938 102.856 97.3231C102.782 97.0031 102.667 96.7087 102.578 96.4047C106.046 95.3231 109.618 94.6031 113.154 93.8447C113.673 94.3154 114.003 94.9594 114.082 95.6559C116.215 104.484 118.317 113.318 120.389 122.158C120.602 122.771 120.565 123.444 120.286 124.03V124.021Z" fill="#A4E8DB"/>
<path d="M99.1888 97.0163C99.8132 96.5734 100.526 96.2711 101.278 96.1299L101.918 96.4083C101.088 96.8756 100.139 97.0871 99.1888 97.0163Z" fill="#2AA197"/>
<path d="M175.234 143.381C176.123 145.056 176.707 146.876 176.958 148.757C177.598 151.035 178.152 153.339 178.741 155.63L163.797 147.579C155.816 143.255 147.837 138.922 139.861 134.581C140.907 131.723 142.741 129.285 144.056 126.562C144.757 126.242 145.301 126.658 145.851 126.965C155.173 132.123 164.558 137.166 173.922 142.248C174.463 142.485 174.92 142.88 175.234 143.381Z" fill="#A4E8DB"/>
<path d="M136.536 173.077C137.291 172.859 137.965 172.425 138.477 171.828C138.988 171.232 139.315 170.499 139.416 169.72C139.587 170.568 140.015 171.342 140.642 171.938C141.269 172.533 142.065 172.921 142.92 173.048C142.063 173.158 141.265 173.542 140.645 174.144C140.025 174.746 139.618 175.532 139.483 176.386C139.367 175.607 139.026 174.88 138.503 174.292C137.979 173.705 137.296 173.282 136.536 173.077Z" fill="#F9FBFB"/>
<path d="M120.286 124.024C119.202 119.352 118.133 114.68 117.029 110.011C115.749 104.619 114.446 99.2307 113.154 93.8451L120.904 91.9507C121.304 92.3832 121.558 92.9306 121.63 93.5155C123.054 99.5251 124.469 105.541 125.931 111.541C126.185 112.245 126.235 113.006 126.075 113.736C124.392 117.299 122.458 120.737 120.286 124.024Z" fill="#1FC8A7"/>
<path d="M140.494 87.397C139.412 89.8272 138.174 92.1852 136.789 94.4562C134.834 98.1266 132.818 101.762 130.811 105.403C130.531 105.848 130.226 106.275 129.896 106.683C129.163 106.245 129.109 105.448 128.936 104.744C128.139 101.275 127.294 97.8162 126.488 94.3474C126.23 93.1538 125.86 91.9871 125.384 90.8626L140.494 87.397Z" fill="#1FC8A7"/>
<path d="M125.4 90.8721C126.197 90.9009 126.245 91.4929 126.389 92.0881C127.547 96.9585 128.728 101.826 129.909 106.693L126.069 113.733C124.206 106.504 122.453 99.2497 120.901 91.9473L125.4 90.8721Z" fill="#A4E8DB"/>
<path d="M175.234 143.381L145.794 127.381C145.234 127.061 144.638 126.831 144.059 126.555C145.448 124.098 146.619 121.512 148.219 119.195C149.221 119.013 149.957 119.656 150.725 120.085C157.506 123.867 164.389 127.461 171.166 131.237C171.763 131.484 172.27 131.906 172.622 132.447C173.422 135.627 174.222 138.802 175.019 141.983C175.114 142.445 175.186 142.912 175.234 143.381Z" fill="#1FC8A7"/>
<path d="M172.632 132.44L148.226 119.189C148.944 117.288 150.032 115.548 151.426 114.069L170.094 124.126C170.96 125.827 171.577 127.643 171.928 129.518C172.235 130.477 172.472 131.457 172.635 132.45L172.632 132.44Z" fill="#A4E8DB"/>
<path d="M116.302 101.752C117.138 101.634 117.914 101.249 118.513 100.654C119.113 100.06 119.505 99.2879 119.63 98.4531C119.776 99.2711 120.175 100.023 120.77 100.603C121.365 101.182 122.127 101.561 122.949 101.685C121.237 102.3 120.043 103.039 119.701 104.738C119.468 103.97 119.025 103.284 118.421 102.755C117.817 102.227 117.078 101.878 116.286 101.749L116.302 101.752Z" fill="#FAFDFC"/>
</g>
</g>
<defs>
<clipPath id="clip0_741_46">
<rect width="256" height="256" fill="white"/>
</clipPath>
</defs>
</svg>
