<svg width="256" height="256" viewBox="0 0 256 256" fill="none" xmlns="http://www.w3.org/2000/svg">
<mask id="mask0_1332_1793" style="mask-type:luminance" maskUnits="userSpaceOnUse" x="1" y="1" width="254" height="254">
<path d="M255 1H1V255H255V1Z" fill="white"/>
</mask>
<g mask="url(#mask0_1332_1793)">
<mask id="mask1_1332_1793" style="mask-type:luminance" maskUnits="userSpaceOnUse" x="1" y="1" width="254" height="254">
<path d="M255 1H1V255H255V1Z" fill="white"/>
</mask>
<g mask="url(#mask1_1332_1793)">
<path d="M128 255C198.14 255 255 198.14 255 128C255 57.8598 198.14 1 128 1C57.8598 1 1 57.8598 1 128C1 198.14 57.8598 255 128 255Z" fill="url(#paint0_linear_1332_1793)"/>
<path fill-rule="evenodd" clip-rule="evenodd" d="M67.9602 75.8936L69.6195 70.999L73.4073 75.8936H67.9602ZM85.4843 91.5019L80.9555 85.6491H64.6538L62.6696 91.5019H85.4843ZM94.7731 107.11L94.3756 102.993L93.0319 101.257H59.3628L57.3788 107.11H94.7731ZM96.2793 122.718L95.7148 116.865H54.0721L52.088 122.718H96.2793ZM97.7862 138.326L97.221 132.473H48.7813L46.7973 138.326H97.7862ZM99.2924 153.934L98.7272 148.081H43.4906L41.5065 153.934H99.2924ZM100.799 169.541L100.234 163.689H38.1997L36.9341 167.422L39.0915 169.541H100.799ZM49.0221 179.297L54.9792 185.149H102.305L101.74 179.297H49.0221Z" fill="#DDB557"/>
<path fill-rule="evenodd" clip-rule="evenodd" d="M192.241 75.8942L190.582 70.999L186.794 75.8942H192.241ZM174.717 91.5019L179.246 85.6491H195.547L197.532 91.5019H174.717ZM165.428 107.11L165.826 102.993L167.169 101.257H200.838L202.823 107.11H165.428ZM163.922 122.718L164.486 116.865H206.129L208.113 122.718H163.922ZM162.416 138.326L162.98 132.473H211.42L213.404 138.326H162.416ZM160.909 153.934L161.474 148.081H216.711L218.695 153.934H160.909ZM159.403 169.542L159.967 163.689H222.002L223.267 167.422L221.11 169.542H159.403ZM211.179 179.298L205.222 185.15H157.896L158.461 179.298H211.179Z" fill="#DDB557"/>
<path d="M79.634 67.176C81.3491 66.5868 83.27 65.9823 85.3985 65.3892L108.949 104.015H102.095L79.634 67.176Z" fill="#DDB557"/>
<path d="M113.173 104.015L98 62.5897C99.8758 62.2687 101.845 61.9707 103.908 61.7026L119.407 104.015H113.173Z" fill="#DDB557"/>
<path d="M122.126 104.015L116.179 60.5775C118.079 60.4718 120.037 60.3929 122.055 60.3442L128.034 104.015H122.126Z" fill="#DDB557"/>
<path d="M130.838 104.015L136.79 60.5347C138.791 60.6347 140.743 60.7632 142.646 60.9162L136.745 104.015H130.838Z" fill="#DDB557"/>
<path d="M145.564 104.015H139.331L154.622 62.2681C156.661 62.5661 158.623 62.8885 160.503 63.2284L145.564 104.015Z" fill="#DDB557"/>
<path d="M156.388 104.015H149.534L172.759 65.9238C174.888 66.4801 176.838 67.0395 178.603 67.5818L156.388 104.015Z" fill="#DDB557"/>
</g>
</g>
<defs>
<linearGradient id="paint0_linear_1332_1793" x1="1" y1="125.766" x2="255.004" y2="126.473" gradientUnits="userSpaceOnUse">
<stop offset="0.489583" stop-color="#1B272E"/>
</linearGradient>
</defs>
</svg>
