<svg width="256" height="256" viewBox="0 0 256 256" fill="none" xmlns="http://www.w3.org/2000/svg">
<path d="M128.858 0.000706881C154.137 0.170258 178.8 7.82126 199.736 21.9889C220.672 36.1565 236.945 56.2063 246.501 79.6098C256.058 103.013 258.47 128.723 253.435 153.496C248.399 178.269 236.141 200.996 218.207 218.811C200.272 236.627 177.463 248.733 152.657 253.602C127.852 258.472 102.159 255.888 78.8203 246.175C55.4813 236.462 35.5409 220.056 21.5137 199.025C7.48647 177.995 0.000568594 153.281 0 128.002C0.114758 93.9402 13.7551 61.3192 37.9206 37.3146C62.086 13.3099 94.7972 -0.112222 128.858 0.000706881Z" fill="#282935"/>
<path d="M45.1078 186.193L116.846 228.192C123.196 231.909 131.054 231.925 137.418 228.233L209.911 186.18C216.212 182.525 220.09 175.792 220.09 168.508V86.8205C220.09 79.4867 216.159 72.7156 209.79 69.0793L137.296 27.6881C130.993 24.0896 123.255 24.105 116.967 27.7284L45.2296 69.0655C38.9004 72.7126 35 79.4616 35 86.7665V168.563C35 175.817 38.8473 182.528 45.1078 186.193Z" fill="#00E28D"/>
<g filter="url(#filter0_f_1776_653)">
<path d="M192.714 128.11C192.714 164.14 163.506 193.348 127.476 193.348C91.4463 193.348 62.2383 164.14 62.2383 128.11C62.2383 92.081 91.4463 62.873 127.476 62.873C163.506 62.873 192.714 92.081 192.714 128.11Z" fill="white"/>
</g>
<path fill-rule="evenodd" clip-rule="evenodd" d="M116.9 114.075C123.247 117.788 131.099 117.804 137.461 114.116L209.864 72.1465L218.061 86.2862L145.505 128.343C139.202 131.997 135.321 138.732 135.321 146.018V227.806H118.978V145.942C118.978 138.685 115.128 131.973 108.864 128.308L37.0039 86.2698L45.2566 72.1629L116.9 114.075Z" fill="#00E28D"/>
<defs>
<filter id="filter0_f_1776_653" x="25.4655" y="26.1002" width="204.022" height="204.021" filterUnits="userSpaceOnUse" color-interpolation-filters="sRGB">
<feFlood flood-opacity="0" result="BackgroundImageFix"/>
<feBlend mode="normal" in="SourceGraphic" in2="BackgroundImageFix" result="shape"/>
<feGaussianBlur stdDeviation="18.3864" result="effect1_foregroundBlur_1776_653"/>
</filter>
</defs>
</svg>
