<svg width="256" height="256" viewBox="0 0 256 256" fill="none" xmlns="http://www.w3.org/2000/svg">
<g clip-path="url(#clip0_2573_4259)">
<mask id="mask0_2573_4259" style="mask-type:luminance" maskUnits="userSpaceOnUse" x="0" y="0" width="256" height="256">
<path d="M128 256C198.692 256 256 198.692 256 128C256 57.3076 198.692 0 128 0C57.3076 0 0 57.3076 0 128C0 198.692 57.3076 256 128 256Z" fill="white"/>
</mask>
<g mask="url(#mask0_2573_4259)">
<path d="M0 256H256V0H0V256Z" fill="#303030"/>
</g>
<mask id="mask1_2573_4259" style="mask-type:luminance" maskUnits="userSpaceOnUse" x="0" y="0" width="256" height="256">
<path d="M128 256C198.692 256 256 198.692 256 128C256 57.3076 198.692 0 128 0C57.3076 0 0 57.3076 0 128C0 198.692 57.3076 256 128 256Z" fill="white"/>
</mask>
<g mask="url(#mask1_2573_4259)">
<path d="M0 0H256V256H0V0Z" fill="#303030"/>
</g>
<mask id="mask2_2573_4259" style="mask-type:luminance" maskUnits="userSpaceOnUse" x="0" y="0" width="256" height="256">
<path d="M128 256C198.692 256 256 198.692 256 128C256 57.3076 198.692 0 128 0C57.3076 0 0 57.3076 0 128C0 198.692 57.3076 256 128 256Z" fill="white"/>
</mask>
<g mask="url(#mask2_2573_4259)">
<path d="M148.858 149.673C147.191 146.116 145.301 142.486 145.116 138.522C144.819 132.964 147.857 127.852 150.451 122.924C151.229 121.405 152.007 119.887 152.711 118.331C145.375 111.18 139.41 102.622 135.261 93.2863C131.482 100.103 128.704 107.513 127.148 115.144H124.258C120.331 95.9537 108.846 78.4301 92.8785 67.1676C87.025 63.0182 88.3957 72.8729 88.5069 75.9479C88.7292 81.431 89.359 86.914 90.3593 92.286C92.3598 102.956 95.9535 113.292 100.955 122.924C103.548 127.852 106.586 132.964 106.29 138.522C106.068 142.449 104.215 146.079 102.548 149.673C99.5101 156.156 97.0649 162.936 95.1755 169.864C94.805 171.272 94.4345 172.717 94.7309 174.124C95.0643 175.903 96.3239 177.311 97.5836 178.57C103.474 184.313 111.106 188.24 119.182 189.685C120.887 189.981 123.072 189.981 123.962 188.499C124.962 186.795 123.48 184.683 121.813 183.609C120.183 182.534 117.293 180.756 117.404 179.867C117.701 178.052 122.294 181.682 125.295 182.016C125.369 182.016 125.481 182.016 125.555 182.053H125.592C125.629 182.053 125.629 182.053 125.666 182.053C125.703 182.053 125.703 182.053 125.74 182.053H125.777C125.851 182.053 125.962 182.053 126.036 182.016C129.037 181.682 133.631 178.052 133.927 179.867C134.039 180.756 131.149 182.534 129.519 183.609C127.889 184.683 126.37 186.795 127.37 188.499C128.259 190.018 130.408 189.981 132.149 189.685C140.263 188.24 147.894 184.313 153.748 178.57C155.045 177.311 156.267 175.903 156.601 174.124C156.86 172.717 156.527 171.272 156.156 169.864C154.378 162.936 151.896 156.156 148.858 149.673Z" fill="#E73746"/>
</g>
<mask id="mask3_2573_4259" style="mask-type:luminance" maskUnits="userSpaceOnUse" x="0" y="0" width="256" height="256">
<path d="M128 256C198.692 256 256 198.692 256 128C256 57.3076 198.692 0 128 0C57.3076 0 0 57.3076 0 128C0 198.692 57.3076 256 128 256Z" fill="white"/>
</mask>
<g mask="url(#mask3_2573_4259)">
<path d="M165.678 99.5473C165.233 97.1022 164.677 94.6941 164.047 92.2859H136.78C142.486 105.179 151.636 116.515 163.158 124.666C169.012 128.815 167.641 118.96 167.53 115.885C167.308 110.402 166.715 104.956 165.678 99.5473Z" fill="white"/>
</g>
</g>
<defs>
<clipPath id="clip0_2573_4259">
<rect width="256" height="256" fill="white"/>
</clipPath>
</defs>
</svg>
