<svg width="256" height="256" viewBox="0 0 256 256" fill="none" xmlns="http://www.w3.org/2000/svg">
<path d="M254 128C254 197.588 197.588 254 128 254C58.4121 254 2 197.588 2 128C2 58.4121 58.4121 2 128 2C197.588 2 254 58.4121 254 128Z" fill="#181F2C"/>
<path d="M127.56 244.459C192.178 244.459 244.562 192.099 244.562 127.51C244.562 62.921 192.178 10.5615 127.56 10.5615C62.9414 10.5615 10.5575 62.921 10.5575 127.51C10.5575 192.099 62.9414 244.459 127.56 244.459Z" fill="#181F2C"/>
<path d="M153.787 152.963C151.814 148.675 149.594 144.327 149.349 139.602C149 132.928 152.598 126.8 155.646 120.873C156.584 119.05 157.477 117.208 158.329 115.342C149.645 106.777 142.597 96.5161 137.664 85.2988C133.195 93.4989 129.918 102.362 128.059 111.541H124.637C119.981 88.5397 106.42 67.5148 87.5031 53.9706C80.5581 49.0002 82.18 60.8146 82.3224 64.5087C82.5734 71.0895 83.3105 77.6479 84.5161 84.1186C86.9001 96.9011 91.118 109.333 97.0495 120.87C100.098 126.798 103.696 132.926 103.347 139.6C103.099 144.324 100.882 148.675 98.9084 152.96C95.3189 160.758 92.3992 168.876 90.1966 177.186C89.7554 178.854 89.3396 180.594 89.6608 182.287C90.0601 184.399 91.5392 186.117 93.0578 187.62C100.017 194.515 109.053 199.225 118.63 200.955C120.665 201.323 123.213 201.331 124.265 199.528C125.449 197.498 123.682 194.965 121.737 193.672C119.791 192.375 116.396 190.232 116.519 189.168C116.865 187.011 122.303 191.359 125.865 191.749H125.871C125.976 191.761 126.083 191.769 126.186 191.772H126.194C126.217 191.772 126.239 191.772 126.259 191.772C126.289 191.772 126.317 191.775 126.348 191.775C126.376 191.775 126.406 191.775 126.437 191.772C126.46 191.772 126.482 191.772 126.504 191.772H126.513C126.616 191.769 126.722 191.761 126.828 191.749H126.833C130.398 191.359 135.833 187.011 136.179 189.168C136.305 190.232 132.907 192.378 130.962 193.672C129.017 194.968 127.249 197.498 128.433 199.528C129.486 201.331 132.034 201.323 134.069 200.955C143.646 199.225 152.682 194.515 159.64 187.62C161.156 186.117 162.636 184.399 163.038 182.287C163.359 180.592 162.943 178.851 162.502 177.186C160.297 168.879 157.377 160.764 153.787 152.963Z" fill="#E73747"/>
<path d="M173.733 91.1214C173.202 88.0432 172.578 84.986 171.862 81.9556H140.376C146.952 98.2563 157.53 112.635 170.816 122.919C177.591 128.162 176.009 115.701 175.87 111.805C175.627 104.866 174.909 97.9459 173.733 91.1214Z" fill="white"/>
<path d="M247 127.511C247 61.576 193.525 8.12549 127.56 8.12549C61.5951 8.12549 8.12 61.576 8.12 127.511C8.12 193.445 61.5951 246.896 127.56 246.896C193.525 246.896 247 193.445 247 127.511Z" stroke="#222937"/>
</svg>
