<svg width="256" height="256" viewBox="0 0 256 256" fill="none" xmlns="http://www.w3.org/2000/svg">
<g clip-path="url(#clip0_2565_3289)">
<path d="M128 256C198.692 256 256 198.692 256 128C256 57.3077 198.692 0 128 0C57.3077 0 0 57.3077 0 128C0 198.692 57.3077 256 128 256Z" fill="#4155FF"/>
<path d="M227.631 88.4037C227.084 86.8764 225.957 85.626 224.496 84.9226C223.682 84.5314 222.79 84.3291 221.887 84.3308C220.734 84.3378 219.606 84.6675 218.631 85.2827C217.655 85.8979 216.872 86.774 216.368 87.8119C214.749 91.2091 212.951 94.5179 210.98 97.7242C203.306 77.0242 188.177 59.9417 168.563 49.8294C148.949 39.7171 126.266 37.3054 104.965 43.0676C83.6654 48.8298 65.2868 62.3499 53.437 80.974C41.5871 99.5982 37.1217 121.982 40.9173 143.731C36.1512 150.002 32.0501 156.752 28.6802 163.873C28.3041 164.602 28.0786 165.4 28.0171 166.219C27.9557 167.037 28.0597 167.859 28.3227 168.637C28.5858 169.414 29.0026 170.131 29.5483 170.744C30.094 171.356 30.7575 171.853 31.4991 172.204C32.2407 172.554 33.0453 172.752 33.8649 172.785C34.6845 172.818 35.5024 172.685 36.2697 172.395C37.037 172.105 37.7381 171.663 38.3311 171.096C38.9241 170.529 39.397 169.848 39.7214 169.094C41.3309 165.704 43.1237 162.404 45.092 159.208C52.7489 179.92 67.8685 197.019 87.4811 207.146C107.094 217.273 129.782 219.697 151.089 213.941C172.396 208.185 190.782 194.666 202.637 176.038C214.491 157.41 218.956 135.021 215.155 113.267C219.923 106.992 224.026 100.237 227.397 93.1118C227.75 92.3806 227.952 91.586 227.992 90.775C228.033 89.9641 227.91 89.1532 227.631 88.3906V88.4037ZM204.266 128.479C204.265 147.107 197.452 165.091 185.111 179.038C172.77 192.985 155.755 201.931 137.276 204.188C118.796 206.445 100.13 201.858 84.7985 191.291C69.4669 180.725 58.5297 164.909 54.0503 146.829C69.3826 129.524 89.6267 117.311 112.079 111.822C124.493 108.449 137.249 106.496 150.103 106L131.861 124.276L140.506 132.926L173.556 99.8085L135.901 62.1174L127.269 70.7721L150.264 93.7558C136.376 94.2288 122.588 96.3021 109.174 99.9347C93.4036 104.08 78.4901 110.983 65.122 120.325C60.4289 123.663 55.999 127.356 51.8716 131.373C51.8716 130.407 51.8107 129.432 51.8107 128.471C51.857 109.876 58.6903 91.9383 71.0259 78.0308C83.3614 64.1233 100.349 55.2037 118.796 52.9492C137.242 50.6946 155.876 55.2603 171.195 65.7879C186.513 76.3155 197.461 92.0798 201.979 110.117C186.687 127.45 166.448 139.671 143.994 145.127C131.575 148.502 118.814 150.455 105.956 150.949L124.172 132.674L115.527 124.006L82.5035 157.124L120.159 194.815L128.804 186.165L105.83 163.168C119.718 162.693 133.506 160.62 146.92 156.989C162.686 152.851 177.596 145.956 190.963 136.625C195.656 133.287 200.086 129.593 204.214 125.577C204.24 126.53 204.266 127.487 204.266 128.479Z" fill="white"/>
</g>
<defs>
<clipPath id="clip0_2565_3289">
<rect width="256" height="256" fill="white"/>
</clipPath>
</defs>
</svg>
