<svg width="256" height="256" viewBox="0 0 256 256" fill="none" xmlns="http://www.w3.org/2000/svg">
<path d="M128.128 13.4411C150.753 13.5928 172.826 20.4405 191.564 33.1205C210.302 45.8005 224.866 63.745 233.419 84.6912C241.972 105.637 244.131 128.647 239.624 150.819C235.118 172.991 224.147 193.332 208.095 209.277C192.043 225.221 171.63 236.056 149.428 240.415C127.227 244.773 104.233 242.46 83.3442 233.767C62.4558 225.074 44.6092 210.391 32.0548 191.568C19.5004 172.746 12.8006 150.627 12.8 128.002C12.9028 97.5169 25.1109 68.3211 46.739 46.837C68.3671 25.3528 97.6435 13.34 128.128 13.4411Z" fill="#303030"/>
<path d="M128 241.881C190.895 241.881 241.882 190.895 241.882 128C241.882 65.1047 190.895 14.1182 128 14.1182C65.1049 14.1182 14.1184 65.1047 14.1184 128C14.1184 190.895 65.1049 241.881 128 241.881Z" stroke="#F39C0F" stroke-width="18.49" stroke-miterlimit="10"/>
<path d="M122.413 27.1553H127.443V10.6753H122.413V27.1553Z" fill="#F39C0F"/>
<path d="M104.983 29.6626L109.937 28.7891L107.076 12.5594L102.122 13.433L104.983 29.6626Z" fill="#F39C0F"/>
<path d="M88.2556 35.1512L92.9827 33.4307L87.3462 17.9445L82.6191 19.665L88.2556 35.1512Z" fill="#F39C0F"/>
<path d="M72.7402 43.4566L77.0967 40.9414L68.8567 26.6693L64.5002 29.1845L72.7402 43.4566Z" fill="#F39C0F"/>
<path d="M58.8953 54.3448L62.7488 51.1113L52.1556 38.4869L48.3021 41.7204L58.8953 54.3448Z" fill="#F39C0F"/>
<path d="M47.1562 67.4609L50.3896 63.6074L37.7652 53.0143L34.5318 56.8678L47.1562 67.4609Z" fill="#F39C0F"/>
<path d="M37.8748 82.417L40.39 78.0605L26.1179 69.8205L23.6027 74.177L37.8748 82.417Z" fill="#F39C0F"/>
<path d="M31.3293 98.7671L33.0498 94.04L17.5637 88.4035L15.8432 93.1306L31.3293 98.7671Z" fill="#F39C0F"/>
<path d="M27.7157 115.993L28.5892 111.039L12.3596 108.177L11.4861 113.131L27.7157 115.993Z" fill="#F39C0F"/>
<path d="M27.1552 133.587V128.557H10.6752V133.587H27.1552Z" fill="#F39C0F"/>
<path d="M29.6599 151.016L28.7864 146.062L12.5567 148.924L13.4303 153.878L29.6599 151.016Z" fill="#F39C0F"/>
<path d="M35.1512 167.739L33.4307 163.012L17.9445 168.648L19.665 173.375L35.1512 167.739Z" fill="#F39C0F"/>
<path d="M43.4649 183.26L40.9497 178.903L26.6776 187.143L29.1928 191.5L43.4649 183.26Z" fill="#F39C0F"/>
<path d="M54.3436 197.102L51.1101 193.248L38.4857 203.841L41.7192 207.695L54.3436 197.102Z" fill="#F39C0F"/>
<path d="M67.4607 208.843L63.6072 205.609L53.014 218.234L56.8675 221.467L67.4607 208.843Z" fill="#F39C0F"/>
<path d="M82.4214 218.124L78.0649 215.608L69.8249 229.88L74.1814 232.396L82.4214 218.124Z" fill="#F39C0F"/>
<path d="M98.7607 224.673L94.0337 222.952L88.3972 238.438L93.1242 240.159L98.7607 224.673Z" fill="#F39C0F"/>
<path d="M115.99 228.28L111.036 227.406L108.174 243.636L113.128 244.509L115.99 228.28Z" fill="#F39C0F"/>
<path d="M133.587 228.845H128.557V245.325H133.587V228.845Z" fill="#F39C0F"/>
<path d="M151.018 226.34L146.064 227.214L148.926 243.443L153.88 242.57L151.018 226.34Z" fill="#F39C0F"/>
<path d="M167.746 220.854L163.019 222.574L168.655 238.06L173.382 236.34L167.746 220.854Z" fill="#F39C0F"/>
<path d="M183.263 212.539L178.907 215.054L187.147 229.326L191.503 226.811L183.263 212.539Z" fill="#F39C0F"/>
<path d="M197.099 201.654L193.246 204.888L203.839 217.512L207.692 214.279L197.099 201.654Z" fill="#F39C0F"/>
<path d="M208.84 188.541L205.607 192.395L218.231 202.988L221.465 199.134L208.84 188.541Z" fill="#F39C0F"/>
<path d="M218.131 173.583L215.615 177.939L229.888 186.179L232.403 181.823L218.131 173.583Z" fill="#F39C0F"/>
<path d="M224.673 157.237L222.953 161.964L238.439 167.6L240.159 162.873L224.673 157.237Z" fill="#F39C0F"/>
<path d="M228.278 140.008L227.404 144.962L243.634 147.824L244.507 142.87L228.278 140.008Z" fill="#F39C0F"/>
<path d="M228.838 122.413V127.443H245.318V122.413H228.838Z" fill="#F39C0F"/>
<path d="M226.338 104.987L227.212 109.941L243.442 107.08L242.568 102.126L226.338 104.987Z" fill="#F39C0F"/>
<path d="M220.85 88.2612L222.57 92.9883L238.056 87.3518L236.336 82.6247L220.85 88.2612Z" fill="#F39C0F"/>
<path d="M212.535 72.7402L215.05 77.0967L229.322 68.8567L226.807 64.5002L212.535 72.7402Z" fill="#F39C0F"/>
<path d="M201.662 58.8994L204.896 62.7529L217.52 52.1598L214.286 48.3063L201.662 58.8994Z" fill="#F39C0F"/>
<path d="M188.539 47.1601L192.392 50.3936L202.985 37.7691L199.132 34.5357L188.539 47.1601Z" fill="#F39C0F"/>
<path d="M173.583 37.8705L177.939 40.3857L186.179 26.1136L181.823 23.5984L173.583 37.8705Z" fill="#F39C0F"/>
<path d="M157.237 31.3225L161.964 33.043L167.6 17.5568L162.873 15.8363L157.237 31.3225Z" fill="#F39C0F"/>
<path d="M140.005 27.7183L144.959 28.5918L147.821 12.3622L142.867 11.4886L140.005 27.7183Z" fill="#F39C0F"/>
<path d="M127.386 38.1504C77.1712 38.1504 36.4608 78.8544 36.4608 129.075C36.4608 179.296 77.1648 220 127.386 220C177.606 220 218.31 179.296 218.31 129.075C218.31 78.8544 177.6 38.1504 127.386 38.1504ZM194.246 127.661C194.246 127.661 193.293 127.731 192.781 128.288C192.269 128.845 189.984 133.414 181.978 129.92C181.978 129.92 178.72 133.786 175.226 133.971C174.272 134.022 173.024 134.093 171.686 134.394C170.291 134.746 168.941 135.27 167.77 136.096C167.699 136.147 167.635 136.198 167.565 136.25C167.475 136.314 167.386 136.384 167.302 136.454C167.213 136.525 167.123 136.602 167.034 136.678C166.963 136.742 166.886 136.806 166.816 136.87C166.746 136.941 166.669 137.011 166.598 137.082C166.502 137.178 166.406 137.267 166.317 137.363C166.278 137.408 166.234 137.453 166.195 137.498C166.067 137.638 165.946 137.779 165.824 137.926C165.824 137.926 165.818 137.939 165.811 137.939C165.402 138.445 165.043 138.982 164.717 139.552C164.691 139.59 164.672 139.635 164.646 139.674C164.576 139.795 164.512 139.917 164.448 140.038C163.667 141.562 163.046 143.475 162.682 145.882C162.701 145.958 162.733 146.131 162.72 146.368C162.739 147.014 162.496 148.339 160.429 149.6C159.622 150.093 158.272 150.982 156.685 152.013C156.506 152.179 156.326 152.346 156.134 152.499C155.622 152.902 155.046 153.203 154.445 153.466C150.81 155.795 146.765 158.253 145.216 158.477C145.242 158.675 145.286 159.085 145.28 159.616C145.286 160.838 145.05 162.803 143.661 164.282V170.778C143.661 170.778 144.282 174.099 145.453 175.949C145.542 176.026 145.638 176.096 145.734 176.147C146.342 176.474 146.669 176.838 146.803 177.216C147.379 177.619 147.59 178.067 147.565 178.509C147.61 179.162 147.123 179.827 146.522 180.352C145.581 181.165 143.302 182.477 142.234 182.694C142.253 182.739 142.272 182.778 142.291 182.822C142.81 183.181 143.667 183.904 143.603 184.794C143.616 185.107 143.52 185.446 143.238 185.798C141.914 187.475 140.653 188.736 139.258 188.666C137.862 188.595 133.6 188.666 133.6 188.666C133.6 188.666 132.416 188.41 131.494 187.776C130.605 187.418 129.459 186.758 129.331 185.677C129.114 183.885 129.114 182.88 129.114 182.88C129.114 182.88 128.166 181.984 128.141 180.544C128.09 179.725 128.339 178.714 129.254 177.581C129.254 177.581 129.971 169.139 129.984 167.2C129.984 167.091 129.978 167.014 129.971 166.976C129.843 166.394 128.768 158.157 127.61 155.232C124.794 153.581 116.371 151.898 112.006 152.755C107.046 153.734 97.6832 150.099 97.6832 150.099C97.6832 150.099 97.5232 150.893 97.5104 152.179C97.5104 155.091 98.2848 160.371 103.13 164.979C103.13 164.979 105.645 167.142 106.067 168.614C106.214 169.133 106.726 169.568 107.258 169.997C107.552 170.061 107.782 170.272 107.923 170.554C108.365 170.944 108.691 171.354 108.653 171.834C108.672 172.128 108.563 172.448 108.23 172.806C106.624 174.554 104.877 176.787 97.888 174.554C97.888 174.554 97.7024 174.381 97.4848 174.08C96.992 173.958 96.4864 173.818 95.9296 173.638C95.9296 173.638 94.9248 172.704 94.7136 171.347C94.5216 170.15 93.0624 169.562 93.152 167.834C93.152 167.558 93.1904 167.251 93.28 166.906C93.2992 166.835 93.312 166.758 93.312 166.682C93.2736 163.846 86.6112 155.226 86.6112 155.226C86.6112 155.226 85.5296 154.08 85.5872 152.39C85.5872 152.243 85.5872 152.09 85.6064 151.93C85.696 151.136 85.7216 149.99 85.7216 148.941C85.7216 147.584 85.6768 146.413 85.6768 146.413L85.4976 146.221C83.7376 147.514 77.152 152.787 75.8784 160.147L76.0128 165.894L80.7488 173.517C80.8384 173.478 80.928 173.446 81.0176 173.408C81.1712 173.658 81.248 173.926 81.2736 174.208C81.4912 174.547 81.7024 175.008 81.6704 175.501C81.6896 176.102 81.376 176.762 80.2688 177.286C78.2528 178.24 76.0192 179.744 73.1776 178.912C72.416 178.925 71.68 178.662 71.072 178.227C70.912 178.195 70.752 178.157 70.592 178.106C69.6704 178.125 68.7872 177.741 68.1088 177.139L66.976 176.512V175.93C66.976 175.93 66.9312 175.891 66.9056 175.866L66.8608 174.842C66.8416 174.688 66.8352 174.541 66.8416 174.387L66.7648 172.576C66.7648 172.576 65.3312 171.213 65.4016 168.992C65.4016 168.979 65.4016 168.966 65.4016 168.954C65.4016 168.915 65.4016 168.883 65.4016 168.845C65.4144 168.518 65.4144 168.013 65.4144 167.392C65.4144 163.693 65.2544 156.16 65.2544 156.16C65.2544 156.16 64.0512 154.918 64.1024 152.845C64.1024 151.898 64.352 150.771 65.1136 149.498C66.5792 147.053 67.2448 143.2 67.2512 139.533C67.2512 139.45 67.2512 139.373 67.2512 139.29L67.1616 137.293C67.0528 135.923 66.848 134.63 66.5536 133.517C65.8304 130.803 64.4928 126.259 63.8784 121.99C63.744 121.414 63.6032 120.838 63.4688 120.262C63.5072 119.866 63.552 119.475 63.5904 119.078C63.584 118.893 63.5712 118.707 63.5648 118.528C63.5136 116.851 63.6608 115.322 64.1088 114.099C64.9344 111.846 65.7216 110.758 66.3424 110.022C66.6688 109.466 67.0208 108.87 67.4048 108.218C67.5008 108.051 67.5904 107.904 67.6736 107.763C67.6736 107.725 67.6864 107.686 67.6864 107.648C67.7952 106.528 68.9792 105.203 70.7968 104.262C71.392 103.93 72.1536 103.622 73.1008 103.405C74.3296 103.098 75.6928 102.97 77.1456 103.136C78.9696 103.341 80.416 103.168 81.7216 102.918C81.8944 102.874 82.0736 102.829 82.2336 102.778C82.3744 102.758 82.5152 102.746 82.656 102.726C84.5888 102.31 86.3296 101.888 88.7552 102.56C93.1264 103.776 112.403 106.285 119.424 104.352C124.582 102.931 129.862 102.106 135.181 101.632C135.488 101.606 135.795 101.574 136.096 101.517C136.109 101.517 136.128 101.517 136.141 101.51C136.595 101.408 137.03 101.229 137.459 101.05C137.459 100.787 141.005 99.5648 141.402 99.392C142.336 99.0016 143.29 98.6432 144.237 98.2784C146.022 97.6 147.821 96.9472 149.632 96.3392C153.587 95.0016 157.619 93.824 161.722 93.0304C162.682 92.8448 163.77 92.64 164.922 92.4672C164.595 88.16 165.402 82.7264 166.362 80.8512C166.362 80.8512 169.011 74.1888 168.723 81.4272C168.723 81.5616 168.723 81.6896 168.723 81.824C168.851 82.2656 168.915 83.0528 168.883 84.3264C169.05 85.536 169.325 86.6944 169.67 87.7824C170.714 84.3584 172.32 81.024 173.427 79.808C173.427 79.808 177.741 74.112 175.565 80.96C176.186 80.6784 176.474 81.2544 175.526 84.2176C175.123 85.4848 174.899 86.7776 174.803 88.0384C174.95 90.2848 175.392 92.2624 175.77 93.6128C176.256 93.9328 176.71 94.304 177.107 94.752C177.107 94.752 181.837 100.198 183.411 101.203C184.89 102.144 186.88 105.613 186.758 107.699C186.758 107.885 186.746 108.064 186.707 108.23C186.701 108.262 186.707 108.301 186.701 108.333C186.912 110.573 194.733 116.538 194.733 116.538C194.733 116.538 196.755 118.272 196.691 120.32C196.698 120.813 196.595 121.325 196.314 121.837C196.314 121.875 196.314 121.92 196.314 121.971C196.314 122.432 196.294 124.09 195.744 124.986C195.667 126.093 195.36 127.776 194.234 127.686L194.246 127.661Z" fill="#F39C0F"/>
</svg>
