<svg width="256" height="256" viewBox="0 0 256 256" fill="none" xmlns="http://www.w3.org/2000/svg">
<g clip-path="url(#clip0_741_46)">
<path d="M256 128C256 198.692 198.692 256 128 256C57.3075 256 0 198.692 0 128C0 57.3075 57.3075 0 128 0C198.692 0 256 57.3075 256 128Z" fill="#151518"/>
<g clip-path="url(#clip1_741_46)">
<path fill-rule="evenodd" clip-rule="evenodd" d="M114.22 174.852C130.963 191.595 158.109 191.595 174.852 174.852C191.595 158.109 191.595 130.963 174.852 114.22C158.109 97.4769 130.963 97.4769 114.22 114.22C97.477 130.963 97.477 158.109 114.22 174.852ZM103.196 185.876C126.028 208.708 163.045 208.708 185.876 185.876C208.708 163.045 208.708 126.027 185.876 103.196C163.045 80.3644 126.028 80.3644 103.196 103.196C80.3645 126.027 80.3645 163.045 103.196 185.876Z" fill="url(#paint0_linear_741_46)"/>
<path fill-rule="evenodd" clip-rule="evenodd" d="M81.1477 141.78C97.8908 158.523 125.037 158.523 141.78 141.78C158.523 125.037 158.523 97.8908 141.78 81.1477C125.037 64.4046 97.8908 64.4046 81.1477 81.1477C64.4046 97.8908 64.4046 125.037 81.1477 141.78ZM70.1237 152.804C92.9552 175.635 129.972 175.635 152.804 152.804C175.635 129.972 175.635 92.9552 152.804 70.1237C129.972 47.2921 92.9552 47.2921 70.1237 70.1237C47.2921 92.9552 47.2921 129.972 70.1237 152.804Z" fill="url(#paint1_linear_741_46)"/>
<path fill-rule="evenodd" clip-rule="evenodd" d="M102.584 153.415C116.31 156.306 131.151 152.408 141.78 141.779C152.409 131.15 156.307 116.309 153.416 102.583C139.69 99.6918 124.849 103.59 114.22 114.219C103.591 124.848 99.6929 139.689 102.584 153.415ZM90.0998 165.899C81.8785 144.92 86.2439 120.147 103.196 103.195C120.148 86.2428 144.921 81.8774 165.9 90.0987C174.122 111.079 169.756 135.851 152.804 152.803C135.852 169.755 111.08 174.121 90.0998 165.899Z" fill="url(#paint2_linear_741_46)"/>
</g>
</g>
<defs>
<linearGradient id="paint0_linear_741_46" x1="86.0724" y1="86.0723" x2="223.634" y2="120.463" gradientUnits="userSpaceOnUse">
<stop stop-color="#5084E9"/>
<stop offset="1" stop-color="#6F50E9"/>
</linearGradient>
<linearGradient id="paint1_linear_741_46" x1="53" y1="53" x2="190.562" y2="87.3905" gradientUnits="userSpaceOnUse">
<stop stop-color="#E95062"/>
<stop offset="1" stop-color="#E950D0"/>
</linearGradient>
<linearGradient id="paint2_linear_741_46" x1="86.0724" y1="86.0712" x2="184.726" y2="110.735" gradientUnits="userSpaceOnUse">
<stop stop-color="#5084E9"/>
<stop offset="1" stop-color="#E95062"/>
</linearGradient>
<clipPath id="clip0_741_46">
<rect width="256" height="256" fill="white"/>
</clipPath>
<clipPath id="clip1_741_46">
<rect width="150" height="150" fill="white" transform="translate(53 53)"/>
</clipPath>
</defs>
</svg>
