<svg width="256" height="256" viewBox="0 0 256 256" fill="none" xmlns="http://www.w3.org/2000/svg">
<path d="M128.858 0.000706881C154.137 0.170258 178.8 7.82126 199.736 21.9889C220.672 36.1565 236.945 56.2063 246.501 79.6098C256.058 103.013 258.47 128.723 253.435 153.496C248.399 178.269 236.141 200.996 218.207 218.811C200.272 236.627 177.463 248.733 152.657 253.602C127.852 258.472 102.159 255.888 78.8203 246.175C55.4813 236.462 35.5409 220.056 21.5137 199.025C7.48647 177.995 0.000568594 153.281 0 128.002C0.114758 93.9402 13.7551 61.3192 37.9206 37.3146C62.086 13.3099 94.7972 -0.112222 128.858 0.000706881Z" fill="black"/>
<path fill-rule="evenodd" clip-rule="evenodd" d="M143.227 172.525V148.632V144.228H147.63H171.525C182.95 144.228 193.319 139.571 200.833 132.059C208.342 124.546 213 114.178 213 102.753L212.997 78.8598V74.4545H208.592H185.949L181.546 74.4521L181.544 70.0514V47.4053V43L177.139 43L153.246 43C141.821 43 131.45 47.6576 123.941 55.1671C116.429 62.6815 111.771 73.0503 111.771 84.4751V108.368V112.772H107.368H83.4745C72.0499 112.772 61.6813 117.43 54.167 124.941C46.6576 132.451 42 142.822 42 154.247L42 178.14L42 182.546H46.4052H69.0486L73.4516 182.548L73.454 186.951V209.595V214H77.8592H101.752C113.177 214 123.546 209.343 131.057 201.833C138.569 194.318 143.227 183.95 143.227 172.525ZM73.4516 182.548L77.8592 182.546H86.1942H101.189C107.017 182.546 111.773 177.79 111.773 171.961V158.969V148.632V144.226H107.368H97.0305H84.038C78.2093 144.226 73.4538 148.982 73.4538 154.811V169.805V178.14L73.4516 182.548ZM111.773 144.226L116.178 144.227H138.822L143.227 144.228L143.225 139.823V117.179V112.776L138.82 112.774H116.176L111.771 112.772L111.772 117.177V139.821L111.773 144.226ZM181.546 74.4521L177.139 74.4542H168.803H153.809C147.981 74.4542 143.225 79.2098 143.225 85.0386V98.0315V108.368V112.776L147.633 112.774H157.969H170.962C176.791 112.774 181.543 108.018 181.543 102.189V87.1951V78.8598L181.546 74.4521Z" fill="url(#paint0_linear_1776_665)"/>
<defs>
<linearGradient id="paint0_linear_1776_665" x1="127.5" y1="214" x2="127.5" y2="43" gradientUnits="userSpaceOnUse">
<stop stop-color="#FFB403"/>
<stop offset="1" stop-color="#FF01A6"/>
</linearGradient>
</defs>
</svg>
