<svg width="256" height="256" viewBox="0 0 256 256" fill="none" xmlns="http://www.w3.org/2000/svg">
<g clip-path="url(#clip0_2239_1095)">
<path d="M128 256C198.692 256 256 198.692 256 128C256 57.3075 198.692 0 128 0C57.3075 0 0 57.3075 0 128C0 198.692 57.3075 256 128 256Z" fill="url(#paint0_linear_2239_1095)"/>
<path d="M72.0004 74.4L85.6004 67.2L87.2004 70.4L136.8 41.6L133.6 39.2L129.6 36.8L128 36L46.4004 83.2V84.8L69.6004 72L72.0004 74.4ZM72.0004 104.8L111.2 81.6L112.8 84.8L163.2 56L159.2 53.6L155.2 52L153.6 51.2L46.4004 112.8V114.4L69.6004 101.6L72.0004 104.8ZM72.0004 119.2L124 89.6L125.6 92L176 63.2L172 61.6L168 59.2L166.4 58.4L46.4004 127.2V129.6L69.6004 116L72.0004 119.2ZM72.0004 133.6L136.8 96.8L138.4 99.2L188.8 71.2L184.8 68.8L180.8 66.4L179.2 65.6L46.4004 142.4V144L69.6004 131.2L72.0004 133.6ZM72.0004 148.8L149.6 104L151.2 107.2L201.6 78.4L197.6 76L194.4 74.4L192 72.8L46.4004 156.8V159.2L69.6004 145.6L72.0004 148.8ZM206.4 81.6L204.8 80L46.4004 172V173.6L69.6004 160.8L72.0004 164L149.6 118.4L151.2 121.6L209.6 88.8V83.2L206.4 81.6ZM56.8004 183.2L69.6004 175.2L71.2004 178.4L149.6 133.6L151.2 136.8L209.6 103.2V92.8L54.4004 181.6L56.8004 183.2ZM149.6 148.8L151.2 152L209.6 117.6V107.2L67.2004 189.6L69.6004 190.4L82.4004 182.4L84.8004 185.6M82.4004 197.6L96.0004 190.4L97.6004 193.6L149.6 163.2L151.2 166.4L209.6 132.8V122.4L80.0004 196.8L82.4004 197.6ZM95.2004 204.8L108.8 197.6L110.4 200.8L149.6 178.4L151.2 181.6L209.6 148V136.8L92.8004 204L95.2004 204.8ZM105.6 211.2L108 212.8L121.6 204.8L123.2 208L149.6 192.8L151.2 196L209.6 162.4V152L105.6 211.2ZM120.8 220L133.6 212L136 215.2L149.6 208L151.2 211.2L209.6 177.6V166.4L119.2 219.2L120.8 220ZM150.4 48.8L146.4 46.4L142.4 44.8L140.8 43.2L46.4004 97.6V100L69.6004 86.4L72.0004 89.6L98.4004 74.4L100 77.6L150.4 48.8Z" fill="white"/>
</g>
<defs>
<linearGradient id="paint0_linear_2239_1095" x1="0" y1="128" x2="256" y2="128" gradientUnits="userSpaceOnUse">
<stop stop-color="#001C3A"/>
<stop offset="0.6" stop-color="#001E3D"/>
<stop offset="0.7" stop-color="#001F3F"/>
<stop offset="1" stop-color="#002042"/>
</linearGradient>
<clipPath id="clip0_2239_1095">
<rect width="256" height="256" fill="white"/>
</clipPath>
</defs>
</svg>
