<svg width="256" height="256" viewBox="0 0 256 256" fill="none" xmlns="http://www.w3.org/2000/svg">
<circle cx="128" cy="128" r="127" fill="black"/>
<path d="M48.7145 173.157L199.182 81.2181C201.694 79.711 204.709 80.4646 206.216 82.9765C207.723 85.4885 206.969 88.5029 204.457 90.0101H204.206L49.4681 174.664C48.9657 174.915 48.4633 174.664 48.4633 174.413C48.2121 173.91 48.2121 173.408 48.7145 173.157Z" fill="white"/>
<path d="M48.7145 146.529L175.821 68.1556C178.333 66.6485 181.347 67.402 182.854 69.914C184.362 72.426 183.608 75.4404 181.096 76.9476C181.096 76.9476 180.845 76.9476 180.845 77.1988L49.217 148.288C48.7146 148.539 48.2122 148.288 48.2122 148.037C48.2122 147.032 48.2122 146.781 48.7145 146.529Z" fill="white"/>
<path d="M48.7145 119.651L152.711 54.5908C155.223 53.0836 158.237 53.8371 159.744 56.0979C161.251 58.6099 160.498 61.6243 158.237 63.1315C158.237 63.1315 157.986 63.1315 157.986 63.3827L49.7194 120.907C49.217 121.158 48.7145 120.907 48.7145 120.656C48.2121 120.405 48.2121 119.902 48.7145 119.651Z" fill="white"/>
<path d="M48.7145 92.7734L129.349 41.2778C131.861 39.7706 134.875 40.5242 136.383 42.785C137.89 45.297 137.136 48.3113 134.875 49.8185C134.624 49.8185 134.624 50.0697 134.373 50.0697L49.4681 94.2806C48.9657 94.5318 48.4633 94.2806 48.4633 94.0294C48.2121 93.527 48.2121 93.0246 48.7145 92.7734Z" fill="white"/>
<path d="M204.206 117.139L72.5783 188.228C72.0759 188.48 71.5735 188.228 71.5735 187.977C71.3223 187.475 71.5735 187.224 71.8247 186.972L198.931 108.599C201.443 107.091 204.457 107.845 205.965 110.357C207.472 112.869 206.718 115.883 204.206 117.39C204.457 117.139 204.206 117.139 204.206 117.139Z" fill="white"/>
<path d="M204.206 144.017L95.9399 201.542C95.4375 201.793 94.9351 201.542 94.9351 201.291C94.6839 200.788 94.9351 200.537 95.1863 200.286L199.182 135.226C201.694 133.718 204.709 134.472 206.216 136.733C207.723 139.245 206.969 142.259 204.709 143.766C204.457 143.766 204.206 144.017 204.206 144.017Z" fill="white"/>
<path d="M204.206 170.896L119.05 214.856C118.548 215.107 118.045 214.856 118.045 214.605C117.794 214.102 118.045 213.851 118.296 213.6L198.931 162.104C201.443 160.597 204.457 161.351 205.965 163.612C207.472 166.124 206.718 169.138 204.457 170.645C204.457 170.645 204.457 170.645 204.206 170.896Z" fill="white"/>
</svg>
