<svg width="257" height="257" viewBox="0 0 257 257" fill="none" xmlns="http://www.w3.org/2000/svg">
<g clip-path="url(#clip0_2449_12)">
<path d="M252.17 158.964C235.073 227.536 165.613 269.268 97.0246 252.168C28.4654 235.073 -13.2709 165.616 3.83384 97.0493C20.9236 28.4696 90.3839 -13.2651 158.951 3.8302C227.534 20.9255 269.267 90.3898 252.168 158.965L252.17 158.964H252.17Z" fill="white"/>
<mask id="mask0_2449_12" style="mask-type:alpha" maskUnits="userSpaceOnUse" x="0" y="0" width="256" height="256">
<path d="M252.17 158.964C235.073 227.536 165.612 269.268 97.0245 252.168C28.4654 235.073 -13.2709 165.616 3.83384 97.0494C20.9236 28.4699 90.3837 -13.2649 158.95 3.83044C227.533 20.9257 269.267 90.39 252.168 158.965L252.169 158.964H252.17Z" fill="#F7931A"/>
</mask>
<g mask="url(#mask0_2449_12)">
<path d="M36.3649 37.7178L58.7649 25.8589L61.4002 31.1295L143.094 -16.3058L137.824 -20.2587L131.235 -24.2117L128.6 -25.5293L-5.7998 52.2119V54.8472L32.4119 33.7648L36.3649 37.7178ZM36.3649 87.7883L100.93 49.5766L103.565 54.8472L186.577 7.41188L179.988 3.45893L173.4 0.823641L170.765 -0.494005L-5.7998 100.965V103.6L32.4119 82.5177L36.3649 87.7883ZM36.3649 111.506L122.012 62.753L124.647 66.706L207.659 19.2707L201.071 16.6354L194.483 12.6825L191.847 11.3648L-5.7998 124.682V128.635L32.4119 106.235L36.3649 111.506ZM36.3649 135.224L143.094 74.6119L145.73 78.5648L228.741 32.4472L222.153 28.4942L215.565 24.5413L212.93 23.2236L-5.7998 149.718V152.353L32.4119 131.271L36.3649 135.224ZM36.3649 160.259L164.177 86.4707L166.812 91.7413L249.824 44.306L243.235 40.353L237.965 37.7178L234.012 35.0825L-5.7998 173.435V177.388L32.4119 154.988L36.3649 160.259ZM257.73 49.5766L255.094 46.9413L-5.7998 198.471V201.106L32.4119 180.024L36.3649 185.294L164.177 110.188L166.812 115.459L263 61.4354V52.2119L257.73 49.5766ZM11.3296 216.918L32.4119 203.741L35.0472 209.012L164.177 135.224L166.812 140.494L263 85.153V68.0236L7.37666 214.282L11.3296 216.918ZM164.177 160.259L166.812 165.53L263 108.871V91.7413L28.459 227.459L32.4119 228.777L53.4943 215.6L57.4472 220.871M53.4943 240.635L75.8943 228.777L78.5296 234.047L164.177 183.977L166.812 189.247L263 133.906V116.777L49.5414 239.318L53.4943 240.635ZM74.5766 252.494L96.9767 240.635L99.6119 245.906L164.177 209.012L166.812 214.282L263 158.941V140.494L70.6237 251.177L74.5766 252.494ZM91.7061 263.035L95.659 265.671L118.059 252.494L120.694 257.765L164.177 232.729L166.812 238L263 182.659V165.53L91.7061 263.035ZM116.741 277.529L137.824 264.353L141.777 269.624L164.177 257.765L166.812 263.035L263 207.694V189.247L114.106 276.212L116.741 277.529ZM165.494 -4.44695L158.906 -8.39988L152.318 -11.0352L149.683 -13.6705L-5.7998 75.9295V79.8825L32.4119 57.4825L36.3649 62.753L79.8472 37.7178L82.4825 42.9883L165.494 -4.44695Z" fill="#B6BABB"/>
</g>
<path d="M235.679 154.851C220.852 214.316 160.617 250.505 101.139 235.677C41.6849 220.852 5.49163 160.62 20.3247 101.16C35.1447 41.6885 95.3797 5.49665 154.84 20.3215C214.314 35.1464 250.505 95.3849 235.677 154.853L235.678 154.851H235.679Z" fill="#6CC64B"/>
<path d="M168.344 81.4313C162.034 65.4055 146.223 63.9608 127.81 67.5386L121.255 44.6792L107.34 48.6719L113.723 70.9289C110.064 71.9778 106.346 73.1226 102.651 74.2622L96.2295 51.8565L82.3217 55.8448L88.8696 78.6993C85.8751 79.6248 82.9319 80.5302 80.0477 81.3588L80.0255 81.2878L60.8306 86.7848L65.0954 101.645C65.0954 101.645 75.3155 98.5029 75.1988 98.74C80.8349 97.1252 83.6084 99.8716 84.9526 102.542L92.4202 128.583C92.8092 128.474 93.3212 128.344 93.9193 128.259C93.4553 128.393 92.9599 128.532 92.4498 128.683L102.906 165.167C103.168 167.011 102.937 170.139 99.0001 171.275C99.224 171.381 88.8843 174.174 88.8843 174.174L90.8833 191.585L108.993 186.391C112.365 185.429 115.697 184.535 118.958 183.621L125.594 206.739L139.495 202.755L132.935 179.879C136.775 178.863 140.476 177.835 144.082 176.797L150.605 199.569L164.521 195.576L157.907 172.496C180.918 164.444 195.603 153.856 191.336 131.304C187.906 113.144 177.322 107.638 163.128 108.258C170.018 101.835 172.988 93.1508 168.349 81.4304L168.344 81.4299L168.344 81.4313ZM163.049 136.451C168.011 153.726 137.861 160.246 128.432 162.96L119.653 132.325C129.087 129.623 157.883 118.429 163.05 136.45L163.049 136.451ZM144.185 95.0878C148.688 110.808 123.488 116.05 115.632 118.303L107.668 90.5208C115.523 88.2676 139.483 78.6937 144.186 95.0872L144.185 95.0878Z" fill="white"/>
</g>
<defs>
<clipPath id="clip0_2449_12">
<rect width="257" height="257" fill="white"/>
</clipPath>
</defs>
</svg>
