<svg width="256" height="256" viewBox="0 0 256 256" fill="none" xmlns="http://www.w3.org/2000/svg">
<g clip-path="url(#clip0_2854_59)">
<path d="M128 256C198.692 256 256 198.692 256 128C256 57.3075 198.692 0 128 0C57.3075 0 0 57.3075 0 128C0 198.692 57.3075 256 128 256Z" fill="#CF1011"/>
<path fill-rule="evenodd" clip-rule="evenodd" d="M128 43C150.688 43 172.042 51.8364 188.083 67.897H188.103C204.164 83.9576 213 105.292 213 128C213 150.708 204.164 172.042 188.103 188.103C172.042 204.164 150.708 213 128 213C105.292 213 83.9576 204.164 67.897 188.103C51.8364 172.042 43 150.708 43 128C43 111.561 47.6371 95.7992 56.4336 82.1266C53.8464 78.9823 52.2941 74.9422 52.2941 70.5638C52.2941 60.4936 60.4936 52.2941 70.5638 52.2941C80.6341 52.2941 88.8334 60.4936 88.8334 70.5638C88.8334 80.6341 80.6341 88.8334 70.5638 88.8334C67.5388 88.8334 64.6928 88.0773 62.1653 86.7637C54.4235 99.1028 50.3437 113.233 50.3437 127.98C50.3437 148.718 58.4238 168.221 73.0913 182.889C87.7589 197.556 107.262 205.637 128 205.637C148.738 205.637 168.241 197.556 182.909 182.889C197.576 168.221 205.656 148.718 205.656 127.98C205.656 107.243 197.576 87.739 182.909 73.0714C168.241 58.4039 148.738 50.3238 128 50.3238V43ZM81.5096 70.5638C81.5096 64.5336 76.594 59.6179 70.5638 59.6179C64.5336 59.6179 59.6179 64.5336 59.6179 70.5638C59.6179 76.594 64.5336 81.5096 70.5638 81.5096C76.594 81.5096 81.5096 76.594 81.5096 70.5638ZM168.659 128C168.659 150.449 150.449 168.659 128 168.659C105.55 168.659 87.3406 150.449 87.3406 128C87.3406 105.55 105.55 87.3406 128 87.3406C150.449 87.3406 168.659 105.55 168.659 128Z" fill="white"/>
</g>
<defs>
<clipPath id="clip0_2854_59">
<rect width="256" height="256" fill="white"/>
</clipPath>
</defs>
</svg>
