<svg width="257" height="257" viewBox="0 0 257 257" fill="none" xmlns="http://www.w3.org/2000/svg">
<g clip-path="url(#clip0_2449_37)">
<path d="M252.17 158.964C235.073 227.536 165.613 269.268 97.0246 252.168C28.4654 235.073 -13.2709 165.616 3.83384 97.0493C20.9236 28.4696 90.3839 -13.2651 158.951 3.8302C227.534 20.9255 269.267 90.3898 252.168 158.965L252.17 158.964H252.17Z" fill="white"/>
<mask id="mask0_2449_37" style="mask-type:alpha" maskUnits="userSpaceOnUse" x="0" y="0" width="256" height="256">
<path d="M252.17 158.964C235.073 227.536 165.612 269.268 97.0245 252.168C28.4654 235.073 -13.2709 165.616 3.83384 97.0494C20.9236 28.4699 90.3837 -13.2649 158.95 3.83044C227.533 20.9257 269.267 90.39 252.168 158.965L252.169 158.964H252.17Z" fill="#F7931A"/>
</mask>
<g mask="url(#mask0_2449_37)">
<path d="M36.3649 37.7178L58.7649 25.8589L61.4002 31.1295L143.094 -16.3058L137.824 -20.2587L131.235 -24.2117L128.6 -25.5293L-5.7998 52.2119V54.8472L32.4119 33.7648L36.3649 37.7178ZM36.3649 87.7883L100.93 49.5766L103.565 54.8472L186.577 7.41188L179.988 3.45893L173.4 0.823641L170.765 -0.494005L-5.7998 100.965V103.6L32.4119 82.5177L36.3649 87.7883ZM36.3649 111.506L122.012 62.753L124.647 66.706L207.659 19.2707L201.071 16.6354L194.483 12.6825L191.847 11.3648L-5.7998 124.682V128.635L32.4119 106.235L36.3649 111.506ZM36.3649 135.224L143.094 74.6119L145.73 78.5648L228.741 32.4472L222.153 28.4942L215.565 24.5413L212.93 23.2236L-5.7998 149.718V152.353L32.4119 131.271L36.3649 135.224ZM36.3649 160.259L164.177 86.4707L166.812 91.7413L249.824 44.306L243.235 40.353L237.965 37.7178L234.012 35.0825L-5.7998 173.435V177.388L32.4119 154.988L36.3649 160.259ZM257.73 49.5766L255.094 46.9413L-5.7998 198.471V201.106L32.4119 180.024L36.3649 185.294L164.177 110.188L166.812 115.459L263 61.4354V52.2119L257.73 49.5766ZM11.3296 216.918L32.4119 203.741L35.0472 209.012L164.177 135.224L166.812 140.494L263 85.153V68.0236L7.37666 214.282L11.3296 216.918ZM164.177 160.259L166.812 165.53L263 108.871V91.7413L28.459 227.459L32.4119 228.777L53.4943 215.6L57.4472 220.871M53.4943 240.635L75.8943 228.777L78.5296 234.047L164.177 183.977L166.812 189.247L263 133.906V116.777L49.5414 239.318L53.4943 240.635ZM74.5766 252.494L96.9767 240.635L99.6119 245.906L164.177 209.012L166.812 214.282L263 158.941V140.494L70.6237 251.177L74.5766 252.494ZM91.7061 263.035L95.659 265.671L118.059 252.494L120.694 257.765L164.177 232.729L166.812 238L263 182.659V165.53L91.7061 263.035ZM116.741 277.529L137.824 264.353L141.777 269.624L164.177 257.765L166.812 263.035L263 207.694V189.247L114.106 276.212L116.741 277.529ZM165.494 -4.44695L158.906 -8.39988L152.318 -11.0352L149.683 -13.6705L-5.7998 75.9295V79.8825L32.4119 57.4825L36.3649 62.753L79.8472 37.7178L82.4825 42.9883L165.494 -4.44695Z" fill="#B6BABB"/>
</g>
<path d="M235.679 154.851C220.852 214.316 160.617 250.505 101.139 235.677C41.6849 220.852 5.49163 160.62 20.3247 101.16C35.1447 41.6885 95.3797 5.49665 154.84 20.3215C214.314 35.1464 250.505 95.3849 235.677 154.853L235.678 154.851H235.679Z" fill="white"/>
<path d="M130.195 96H117V122.461H137.76V133.54H117V160H130.842C134.398 160 160.04 160.408 160 129.215C159.961 98.0206 135.131 96 130.195 96Z" fill="#C2A633"/>
<path d="M128 17C66.6959 17 17 66.6959 17 128C17 189.304 66.6959 239 128 239C189.304 239 239 189.304 239 128C239 66.6959 189.304 17 128 17ZM132.361 187.951H92.1625V134.509H77.9923V121.418H92.1615V67.9723H126.663C134.824 67.9723 188.885 66.2773 188.885 128.964C188.885 192.689 132.363 187.951 132.363 187.951H132.361Z" fill="#C2A633"/>
</g>
<defs>
<clipPath id="clip0_2449_37">
<rect width="257" height="257" fill="white"/>
</clipPath>
</defs>
</svg>
