<svg width="257" height="257" viewBox="0 0 257 257" fill="none" xmlns="http://www.w3.org/2000/svg">
<g clip-path="url(#clip0_2565_3292)">
<path d="M252.17 158.964C235.073 227.536 165.613 269.268 97.0246 252.168C28.4654 235.073 -13.2709 165.616 3.83384 97.0493C20.9236 28.4696 90.3839 -13.2651 158.951 3.8302C227.534 20.9255 269.267 90.3898 252.168 158.965L252.17 158.964H252.17Z" fill="white"/>
<mask id="mask0_2565_3292" style="mask-type:alpha" maskUnits="userSpaceOnUse" x="0" y="0" width="256" height="256">
<path d="M252.17 158.964C235.073 227.536 165.612 269.268 97.0245 252.168C28.4654 235.073 -13.2709 165.616 3.83384 97.0494C20.9236 28.4699 90.3837 -13.2649 158.95 3.83044C227.533 20.9257 269.267 90.39 252.168 158.965L252.169 158.964H252.17Z" fill="#F7931A"/>
</mask>
<g mask="url(#mask0_2565_3292)">
<path d="M36.3649 37.7178L58.7649 25.8589L61.4002 31.1295L143.094 -16.3058L137.824 -20.2587L131.235 -24.2117L128.6 -25.5293L-5.7998 52.2119V54.8472L32.4119 33.7648L36.3649 37.7178ZM36.3649 87.7883L100.93 49.5766L103.565 54.8472L186.577 7.41188L179.988 3.45893L173.4 0.823641L170.765 -0.494005L-5.7998 100.965V103.6L32.4119 82.5177L36.3649 87.7883ZM36.3649 111.506L122.012 62.753L124.647 66.706L207.659 19.2707L201.071 16.6354L194.483 12.6825L191.847 11.3648L-5.7998 124.682V128.635L32.4119 106.235L36.3649 111.506ZM36.3649 135.224L143.094 74.6119L145.73 78.5648L228.741 32.4472L222.153 28.4942L215.565 24.5413L212.93 23.2236L-5.7998 149.718V152.353L32.4119 131.271L36.3649 135.224ZM36.3649 160.259L164.177 86.4707L166.812 91.7413L249.824 44.306L243.235 40.353L237.965 37.7178L234.012 35.0825L-5.7998 173.435V177.388L32.4119 154.988L36.3649 160.259ZM257.73 49.5766L255.094 46.9413L-5.7998 198.471V201.106L32.4119 180.024L36.3649 185.294L164.177 110.188L166.812 115.459L263 61.4354V52.2119L257.73 49.5766ZM11.3296 216.918L32.4119 203.741L35.0472 209.012L164.177 135.224L166.812 140.494L263 85.153V68.0236L7.37666 214.282L11.3296 216.918ZM164.177 160.259L166.812 165.53L263 108.871V91.7413L28.459 227.459L32.4119 228.777L53.4943 215.6L57.4472 220.871M53.4943 240.635L75.8943 228.777L78.5296 234.047L164.177 183.977L166.812 189.247L263 133.906V116.777L49.5414 239.318L53.4943 240.635ZM74.5766 252.494L96.9767 240.635L99.6119 245.906L164.177 209.012L166.812 214.282L263 158.941V140.494L70.6237 251.177L74.5766 252.494ZM91.7061 263.035L95.659 265.671L118.059 252.494L120.694 257.765L164.177 232.729L166.812 238L263 182.659V165.53L91.7061 263.035ZM116.741 277.529L137.824 264.353L141.777 269.624L164.177 257.765L166.812 263.035L263 207.694V189.247L114.106 276.212L116.741 277.529ZM165.494 -4.44695L158.906 -8.39988L152.318 -11.0352L149.683 -13.6705L-5.7998 75.9295V79.8825L32.4119 57.4825L36.3649 62.753L79.8472 37.7178L82.4825 42.9883L165.494 -4.44695Z" fill="#B6BABB"/>
</g>
<path fill-rule="evenodd" clip-rule="evenodd" d="M129 239C67.95 239 18 189.051 18 127.448C18.555 66.3986 67.95 16.4496 129.555 17.0046C190.605 17.5596 240 66.9536 240 129.113C239.445 189.606 190.05 239 129 239Z" fill="#0090FF"/>
<path fill-rule="evenodd" clip-rule="evenodd" d="M139.513 114.373L136.251 132.308L167.236 136.793L165.061 145.2L134.62 140.716C132.447 148.002 131.359 155.849 128.641 162.574C125.923 170.421 123.205 178.268 119.944 185.554C115.595 195.083 107.984 201.808 97.6564 203.49C91.6769 204.611 85.1539 204.05 80.2616 200.127C78.6308 199.006 77 196.764 77 195.083C77 192.84 78.0872 190.038 79.718 188.917C80.8051 188.357 83.5231 188.917 85.1539 189.478C86.7847 191.159 88.4153 193.401 89.5025 195.643C92.7641 200.127 97.1128 200.687 101.462 197.325C106.353 192.84 109.072 186.675 110.703 180.51C113.964 167.059 117.225 154.167 119.944 140.716V138.474L91.1333 133.99L92.2205 125.583L122.118 130.067L125.923 112.691L94.9384 107.648L96.0256 98.6795L128.097 103.163C129.184 99.8005 129.728 96.998 130.816 94.1957C133.533 84.107 136.251 74.0183 142.775 65.0506C149.297 56.0828 156.908 50.478 168.323 51.0385C173.216 51.0385 178.108 52.7199 181.369 56.6433C181.913 57.2038 183 58.3248 183 59.4458C183 61.6877 183 64.49 181.369 66.1716C179.195 67.853 176.477 67.2925 174.303 65.0506C172.672 63.3691 171.584 61.6877 169.953 60.0062C166.692 55.5223 161.8 54.9618 157.995 58.8853C155.277 61.6877 152.559 65.6111 150.928 69.5344C147.123 81.3045 144.405 93.6352 140.6 105.965L170.497 110.45L168.323 118.857L139.513 114.373Z" fill="white"/>
</g>
<defs>
<clipPath id="clip0_2565_3292">
<rect width="257" height="257" fill="white"/>
</clipPath>
</defs>
</svg>
