<svg width="256" height="256" viewBox="0 0 256 256" fill="none" xmlns="http://www.w3.org/2000/svg">
<circle cx="128" cy="128" r="127" fill="#011812"/>
<path d="M153.341 140.219L189.438 104.121C192.145 101.414 193.499 97.8044 193.499 93.7435V64.4145C193.499 63.0608 193.048 61.7072 191.694 60.3535L122.658 129.841C117.243 135.255 116.792 144.731 122.658 150.145L171.841 198.877C177.255 204.291 186.731 204.291 192.145 198.877C197.56 193.462 197.56 183.987 192.145 178.572L153.341 140.219Z" fill="#008B62"/>
<path d="M188.084 59H79.3413C70.317 59 64 65.7682 64 74.7926V188.499C64 196.621 70.317 202.938 78.4389 202.938H78.8901C87.012 202.938 93.329 196.621 93.329 188.95V86.9754H165.524L192.145 60.8049C191.243 59.4512 189.438 59 188.084 59Z" fill="#5BBE91"/>
</svg>
