<svg width="256" height="256" viewBox="0 0 256 256" fill="none" xmlns="http://www.w3.org/2000/svg">
<path d="M128.5 256C198.916 256 256 198.916 256 128.5C256 58.0837 198.916 1 128.5 1C58.0837 1 1 58.0837 1 128.5C1 198.916 58.0837 256 128.5 256Z" fill="url(#paint0_linear_1332_1874)"/>
<path d="M136.218 78.1826C130.246 78.7728 124.741 81.6816 120.873 86.2894C117.005 90.8972 115.08 96.8399 115.509 102.852C115.61 104.452 115.268 106.049 114.521 107.466C113.774 108.883 112.652 110.065 111.278 110.881C109.885 111.735 108.284 112.185 106.652 112.18C105.106 112.145 103.595 111.709 102.267 110.914C98.6049 108.588 94.3643 107.347 90.0323 107.334C89.1304 107.351 88.2302 107.417 87.3355 107.533C81.6853 108.425 76.5681 111.398 72.9806 115.873C69.3931 120.348 67.5922 126.005 67.9288 131.741C68.2654 137.477 70.7153 142.881 74.8014 146.902C78.8874 150.922 84.3169 153.271 90.0323 153.49C90.7645 153.508 91.4971 153.475 92.2248 153.391C97.566 152.877 102.561 150.505 106.346 146.684C110.131 142.863 112.469 137.835 112.955 132.466C113.054 131.242 113.054 130.012 112.955 128.788C112.853 127.186 113.195 125.588 113.945 124.17C114.693 122.753 115.82 121.572 117.197 120.76C118.557 119.915 120.127 119.476 121.725 119.493C123.278 119.481 124.801 119.921 126.11 120.76C129.801 123.086 134.075 124.312 138.432 124.295C139.33 124.344 140.23 124.344 141.129 124.295C146.9 123.534 152.17 120.606 155.879 116.1C159.587 111.593 161.459 105.842 161.117 100.005C160.776 94.168 158.246 88.6777 154.036 84.6389C149.828 80.6002 144.252 78.313 138.432 78.2377C137.702 78.1891 136.97 78.1891 136.239 78.2377" fill="#FCD15A"/>
<path d="M184.672 107.401C178.699 107.991 173.192 110.901 169.323 115.512C165.455 120.122 163.532 126.067 163.963 132.081C164.042 133.654 163.698 135.22 162.969 136.614C162.24 138.009 161.153 139.182 159.82 140.011L159.721 140.11C158.33 140.963 156.725 141.398 155.095 141.365C153.551 141.328 152.042 140.896 150.71 140.11C147.128 137.809 142.98 136.556 138.729 136.49C134.479 136.425 130.294 137.55 126.644 139.74C122.994 141.929 120.023 145.097 118.064 148.887C116.105 152.677 115.236 156.941 115.553 161.2C115.653 162.8 115.311 164.397 114.565 165.814C113.818 167.231 112.695 168.413 111.321 169.229C109.918 170.099 108.3 170.556 106.651 170.55C105.105 170.515 103.595 170.079 102.266 169.284C98.6049 166.958 94.3644 165.717 90.0323 165.704C89.1304 165.721 88.2301 165.787 87.3355 165.903C81.6406 166.736 76.4632 169.683 72.8236 174.162C69.1839 178.64 67.346 184.326 67.672 190.098C67.9981 195.871 70.4643 201.311 74.5849 205.347C78.7054 209.383 84.1814 211.723 89.9336 211.904C90.6658 211.92 91.3983 211.887 92.1261 211.805C97.4541 211.287 102.433 208.91 106.198 205.088C109.963 201.265 112.276 196.238 112.736 190.88C112.834 189.66 112.834 188.434 112.736 187.213C112.65 185.626 113.001 184.046 113.749 182.645C114.497 181.245 115.614 180.078 116.978 179.273L117.077 179.173C118.477 178.324 120.09 177.896 121.725 177.94C123.276 177.931 124.797 178.366 126.11 179.195C129.769 181.527 134.011 182.768 138.344 182.775C139.21 182.775 140.076 182.686 140.942 182.686C146.862 182.087 152.311 179.173 156.112 174.575C159.914 169.977 161.766 164.062 161.267 158.105C161.202 156.902 161.384 155.697 161.802 154.567C162.219 153.437 162.862 152.405 163.693 151.535C164.523 150.664 165.522 149.974 166.628 149.508C167.735 149.041 168.925 148.807 170.125 148.821C171.675 148.812 173.197 149.247 174.51 150.076C178.169 152.407 182.411 153.648 186.744 153.656C187.646 153.639 188.546 153.573 189.441 153.458C195.212 152.698 200.482 149.769 204.19 145.263C207.899 140.756 209.771 135.006 209.429 129.168C209.087 123.331 206.557 117.841 202.348 113.802C198.139 109.763 192.564 107.476 186.744 107.401C186.042 107.301 185.33 107.301 184.628 107.401" fill="#FCD15A"/>
<path d="M106.673 85.6384L105.698 80.8477H105.796C106.188 80.6907 106.544 80.4568 106.845 80.1597C107.145 79.8627 107.383 79.5084 107.545 79.1176C107.708 78.7269 107.791 78.3075 107.79 77.884C107.789 77.4606 107.704 77.0417 107.54 76.6517L111.234 74.2068C111.431 74.4051 111.628 74.5042 111.727 74.6914L107.156 85.7486C107.003 85.6853 106.839 85.6517 106.673 85.6495V85.6384ZM106.761 68.1275L110.456 70.5725C110.171 71.3623 110.171 72.2275 110.456 73.0174L106.761 75.4513C106.2 74.8982 105.461 74.5651 104.676 74.5126C103.892 74.4601 103.115 74.6915 102.486 75.1649L100.545 73.4028C100.875 72.9155 101.051 72.34 101.051 71.7509C101.051 71.1618 100.875 70.5862 100.545 70.0989L102.486 68.3368C103.057 68.7485 103.735 68.9856 104.437 69.0196C104.865 69.053 105.295 68.9913 105.697 68.8391C106.098 68.6868 106.462 68.4476 106.761 68.1386V68.1275ZM97.3334 60.132L97.9144 59.8347L101.905 63.9426C101.575 64.3764 101.365 64.8898 101.296 65.4312C101.226 65.9726 101.3 66.5227 101.51 67.0263C101.609 67.2135 101.609 67.3126 101.707 67.5108L99.7999 69.2289C99.2601 68.8098 98.6015 68.5743 97.9196 68.5565C97.2376 68.5387 96.5677 68.7395 96.0069 69.1297L92.7181 65.8258C93.1066 65.2624 93.3065 64.5895 93.2887 63.9044C93.271 63.2192 93.0366 62.5576 92.6195 62.0153L94.4721 59.8677C94.8973 60.1522 95.3852 60.3279 95.8934 60.3798C96.4017 60.4316 96.9148 60.3579 97.3882 60.1651L97.3334 60.132ZM107.408 67.1033C107.571 66.7117 107.654 66.2916 107.654 65.8673C107.653 65.443 107.569 65.0229 107.406 64.6316C107.243 64.2402 107.004 63.8853 106.703 63.5874C106.402 63.2895 106.046 63.0546 105.654 62.8963H105.5L106.476 57.9184C106.675 57.9341 106.875 57.9001 107.057 57.8193L111.53 69.1297C111.332 69.2289 111.146 69.4161 110.949 69.5152L107.408 67.1033ZM74.9259 58.2928C75.3206 58.1056 76.4826 57.5109 76.6799 56.5418L81.065 57.4118C81.0491 58.0713 81.192 58.7249 81.4815 59.3171L77.5021 63.2708C76.9698 62.8914 76.335 62.6839 75.6823 62.6761L74.9259 58.2928ZM98.7037 58.9647C99.1017 58.3578 99.3045 57.6427 99.2847 56.9162L103.571 55.936C103.722 56.3192 103.953 56.6656 104.248 56.9523C104.543 57.239 104.895 57.4595 105.281 57.599L104.338 62.621C103.909 62.6347 103.482 62.6975 103.067 62.8082C102.894 62.8871 102.733 62.987 102.584 63.1056L98.7037 58.9647ZM91.2162 51.2554L93.7376 54.9118C93.2136 55.4735 92.9059 56.2043 92.8698 56.9733C92.8336 57.7423 93.0713 58.499 93.5403 59.1078L91.6986 61.3105C91.1962 61.0278 90.63 60.8794 90.0542 60.8794C89.4784 60.8794 88.9122 61.0278 88.4099 61.3105L86.7326 59.3171C87.2038 58.685 87.4342 57.9044 87.3819 57.1165C87.3296 56.3285 86.9982 55.5855 86.4476 55.0219L88.8374 51.3546C89.1532 51.4592 89.4811 51.5221 89.8131 51.5418C90.2815 51.5471 90.7455 51.4494 91.1724 51.2554H91.2162ZM76.7786 55.3523V54.7687L87.2259 50.1762C87.4123 50.3744 87.6096 50.6607 87.8069 50.859L85.3732 54.5704C84.9824 54.4021 84.562 54.3142 84.1368 54.312C83.7115 54.3098 83.2902 54.3933 82.8977 54.5577C82.5052 54.7219 82.1495 54.9637 81.8517 55.2685C81.5538 55.5734 81.3198 55.9352 81.1636 56.3325L76.7786 55.3523ZM92.1261 50.5727C92.2917 50.4016 92.422 50.1995 92.5098 49.9779L103.308 54.0858V54.7687L99.0325 55.8699C98.8668 55.4841 98.6269 55.1349 98.3265 54.8424C98.0262 54.5498 97.6713 54.3197 97.2823 54.1652C96.8933 54.0107 96.4777 53.9349 96.0594 53.9421C95.6412 53.9492 95.2284 54.0393 94.8449 54.207H94.7462L92.1261 50.5727ZM89.7912 45.0661C89.0501 45.0783 88.3358 45.3467 87.7687 45.8262C87.2016 46.3056 86.8163 46.9667 86.6778 47.6982C86.5788 48.1517 86.5788 48.6213 86.6778 49.0749L76.3291 53.6012C76.199 53.3797 76.0365 53.1793 75.8468 53.0065C75.2132 52.5847 74.4537 52.3963 73.6975 52.4735C72.9412 52.5507 72.2349 52.8886 71.6988 53.4299C71.1626 53.9712 70.8296 54.6823 70.7564 55.4424C70.6832 56.2025 70.8743 56.9645 71.2973 57.599C71.396 57.6981 71.4947 57.7972 71.5933 57.7972C68.9983 61.1553 67.4055 65.1844 67 69.4161V71.7619C67 77.9541 69.4486 83.8927 73.807 88.2713C78.1655 92.65 84.0768 95.1097 90.2406 95.1097C91.0182 95.091 91.7941 95.0286 92.5647 94.9226C96.9035 94.4559 101.021 92.7601 104.437 90.0325C104.437 90.1319 104.525 90.1319 104.525 90.2309C105.041 90.7492 105.741 91.0407 106.471 91.0407C107.2 91.0407 107.9 90.7492 108.416 90.2309C108.933 89.7125 109.223 89.0093 109.223 88.2761C109.223 87.5429 108.933 86.8397 108.416 86.3212C108.306 86.2013 108.176 86.1008 108.033 86.0239L112.604 75.0108C113.416 75.1785 114.26 75.0247 114.961 74.5815C115.663 74.1384 116.167 73.4402 116.368 72.6327C116.568 71.8253 116.451 70.971 116.04 70.2485C115.629 69.526 114.956 68.991 114.161 68.7553H114.051C113.798 68.6831 113.536 68.6534 113.273 68.6672C113.075 68.6522 112.876 68.6823 112.692 68.7553L108.219 57.4008C108.675 57.2298 109.088 56.9593 109.427 56.6088C109.766 56.2583 110.024 55.8365 110.181 55.3738C110.339 54.9111 110.392 54.4192 110.337 53.9333C110.282 53.4475 110.121 52.98 109.864 52.5644C109.608 52.1489 109.263 51.7957 108.854 51.5303C108.445 51.265 107.983 51.0941 107.5 51.03C107.018 50.9659 106.527 51.0101 106.064 51.1596C105.601 51.3091 105.176 51.5599 104.821 51.8942C104.364 52.1561 103.985 52.5364 103.725 52.9955L92.9593 48.8105C93.0416 48.3993 93.0409 47.9756 92.9574 47.5646C92.874 47.1536 92.7093 46.7636 92.4732 46.4176C92.2372 46.0716 91.9344 45.7767 91.583 45.5502C91.2315 45.3238 90.8384 45.1704 90.427 45.0991C90.2406 45.0991 90.0433 45 89.8459 45L89.7912 45.0661Z" fill="#FCD15A"/>
<defs>
<linearGradient id="paint0_linear_1332_1874" x1="128.5" y1="1" x2="128.5" y2="256" gradientUnits="userSpaceOnUse">
<stop stop-color="#3F1727"/>
</linearGradient>
</defs>
</svg>
