<svg width="256" height="256" viewBox="0 0 256 256" fill="none" xmlns="http://www.w3.org/2000/svg">
<g clip-path="url(#clip0_1944_2488)">
<path d="M256 128C256 57.3075 198.692 0 128 0C57.3075 0 0 57.3075 0 128C0 198.692 57.3075 256 128 256C198.692 256 256 198.692 256 128Z" fill="white"/>
<path d="M189.293 101.729C195.121 106.885 199.971 112.558 202.642 119.769C207.315 132.39 205.254 144.823 194.564 155.007C186.18 162.994 176.09 167.875 165.115 171.119C154.062 174.387 142.706 176.244 131.222 175.974C114.126 175.572 97.3314 173.01 81.483 166.086C73.9622 162.8 67.2814 158.295 61.4217 152.523C48.8339 140.123 48.1066 126.1 56.7792 111.159C64.0474 98.6384 75.1941 90.4619 88.6889 85.4036C102.432 80.2521 116.646 79.2291 131.164 80.4867C142.906 81.504 154.386 83.5562 165.376 87.9411C173.958 91.365 182.04 95.6426 189.293 101.729Z" fill="black"/>
</g>
<defs>
<clipPath id="clip0_1944_2488">
<rect width="256" height="256" fill="white"/>
</clipPath>
</defs>
</svg>
