<svg width="256" height="256" viewBox="0 0 256 256" fill="none" xmlns="http://www.w3.org/2000/svg">
<g clip-path="url(#clip0_1945_2522)">
<path d="M128 5C195.931 5 251 60.069 251 128C251 195.931 195.931 251 128 251C60.069 251 5 195.931 5 128C5 60.069 60.069 5 128 5Z" fill="#A5C1F9" stroke="#30312E" stroke-width="10"/>
<path d="M198.139 132.987C197.694 136.023 194.979 147.556 190.901 153.203C187.632 157.732 183.795 160.53 180.734 162.283C179.204 163.159 177.867 163.774 176.894 164.217C168.39 168.074 160.866 167.684 153.796 167.32C147.862 167.013 143.615 165.96 138.527 164.4C137.362 164.045 136.154 163.663 134.87 163.255C133.541 162.834 132.196 162.374 130.699 161.33C125.533 157.732 124.436 151.297 124.069 149.141C122.514 140.014 126.792 132.599 128.668 129.251C130.292 126.354 132.128 124.024 133.847 122.196C135.526 121.664 136.866 121.165 138.426 120.456C141.075 119.25 145.535 116.386 147.827 113.631C147.827 113.628 147.829 113.626 147.832 113.623C150.151 111.316 151.255 108.806 151.724 107.561C152.248 107.887 154.049 109.442 154.973 109.84C156.217 110.374 160.246 112.028 165.144 110.883C165.959 110.693 167.17 110.41 168.448 109.852C170.507 109.913 173.321 110.083 176.621 110.551C180.784 111.144 186.644 111.977 193.046 114.94C195.663 116.151 201.898 119.114 207.35 125.42C213.947 133.053 217.199 143.038 215.563 144.112C214.284 144.95 211.453 139.201 203.81 135.332C201.87 134.349 199.986 133.584 198.139 132.987Z" fill="#FF9D46"/>
<path d="M178.128 91.1899C179.318 93.3248 179.503 96.1232 178.442 98.4177C177.54 100.368 175.94 101.517 174.258 102.287C173.141 102.799 171.989 103.143 170.979 103.445C170.973 103.445 170.968 103.445 170.963 103.45C169.52 102.665 167.691 101.267 166.658 98.8887C165.007 95.0975 166.306 90.9697 168.542 88.4397C169.193 87.7053 169.895 87.1354 170.581 86.6948C170.609 86.6998 170.637 86.7049 170.665 86.7126C172.769 87.2089 175.727 87.9104 177.566 90.3315C177.768 90.5948 177.956 90.8809 178.128 91.1899Z" fill="#262626"/>
<path d="M170.963 103.45C170.963 103.45 170.973 103.448 170.978 103.445C171.989 103.144 173.141 102.799 174.258 102.288C174.131 103.351 173.815 104.625 173.08 105.894C171.895 107.943 170.112 109.131 168.449 109.852C167.17 110.409 165.959 110.693 165.144 110.883C160.246 112.028 156.217 110.374 154.973 109.84C154.049 109.442 152.248 107.887 151.724 107.56C151.255 108.806 150.151 111.316 147.832 113.623C147.829 113.626 147.827 113.628 147.827 113.631C145.535 116.386 141.075 119.25 138.426 120.456C136.866 121.165 135.526 121.664 133.847 122.196C132.128 124.024 130.292 126.354 128.668 129.251C126.792 132.599 122.514 140.014 124.069 149.141C124.436 151.296 125.533 157.731 130.699 161.33C132.196 162.373 133.541 162.834 134.87 163.255C136.154 163.663 137.362 164.045 138.527 164.399C140.422 166.157 142.442 168.322 144.377 170.959C145.532 172.531 146.593 173.937 147.52 175.249L147.173 175.803C143.564 178.561 135.23 184.104 123.565 184.742C113.534 185.293 106.127 181.934 100.185 179.242C94.6772 176.746 85.9933 172.688 78.639 163.427C76.261 160.434 67.6708 149.612 68.0963 135.005C68.1418 133.364 68.7978 130.55 70.0843 125.736C70.0843 125.733 70.0868 125.733 70.0868 125.733C70.6135 123.756 71.2492 121.441 71.9938 118.731C76.5978 101.941 79.1936 97.6787 82.0781 94.4345C84.2003 92.0464 88.2852 87.5714 93.7681 87.3283C95.6902 87.2422 96.0726 87.7538 97.4351 87.3283C101.431 86.0773 100.882 80.8325 105.458 74.2633C106.947 72.1258 109.325 68.712 113.709 66.6987C117.591 64.9184 121.349 65.0147 124.482 65.0956C126.683 65.1514 129.529 65.2476 132.963 66.4708C135.415 67.3445 137.428 68.5297 139.018 69.7022C139.869 68.945 142.873 66.1036 144.742 62.3732L144.869 62.4366C146.264 62.1883 150.007 61.7097 154.282 63.9359C155.553 64.5968 158.886 66.3948 160.697 70.4493C161.745 72.7969 161.887 75.0179 161.791 76.6058C162.191 76.55 162.606 76.5122 163.037 76.4969C167.086 76.355 170.084 78.1836 171.143 78.847C172.359 79.6118 176.778 82.39 177.545 87.4398C177.712 88.5364 177.672 89.5241 177.566 90.3319C175.727 87.9108 172.769 87.2093 170.664 86.713C170.637 86.7054 170.609 86.7003 170.581 86.6953C164.898 85.3783 160.096 87.3056 157.936 88.2045C155.188 89.3518 152.993 90.8637 151.291 92.3426C150.354 93.1556 149.566 93.9609 148.918 94.6877C148.419 94.3434 148.001 94.123 147.804 94.0192C146.9 93.5406 145.646 93.0897 143.64 92.9986C143.26 92.9809 142.693 92.9682 141.913 93.0467C140.082 93.224 137.086 93.895 132.642 96.1389C127.974 98.4966 128.501 99.1601 123.213 101.796C120.509 103.146 119.232 103.541 119.285 104.154C119.374 105.129 122.719 105.223 132.092 106.588C137.453 107.37 138.912 107.71 141.754 107.451C142.298 107.401 142.86 107.35 143.433 107.277C145.788 106.98 148.275 106.355 150.08 104.311C150.301 104.061 150.878 103.407 151.342 102.473C154.778 103.164 157.713 103.541 159.98 103.759C167.17 104.458 169.824 103.79 170.963 103.45Z" fill="#A6C2FA"/>
<path d="M166.659 98.8895C167.692 101.268 169.521 102.666 170.964 103.451C169.825 103.79 167.171 104.459 159.981 103.76C157.714 103.542 154.779 103.164 151.343 102.473C151.778 101.597 152.117 100.472 151.968 99.2036C151.707 96.9725 150.089 95.4935 148.919 94.6882C149.567 93.9613 150.355 93.156 151.292 92.3431C152.994 90.8642 155.189 89.3523 157.937 88.205C160.097 87.306 164.899 85.3788 170.582 86.6957C169.895 87.1363 169.194 87.7061 168.543 88.4406C166.307 90.9705 165.008 95.0984 166.659 98.8895Z" fill="white"/>
<path d="M151.343 102.473C150.879 103.407 150.302 104.061 150.082 104.311C148.276 106.355 145.789 106.981 143.434 107.277L143.419 107.16C142.38 106.292 141.258 105.036 140.499 103.288C140.167 102.528 139.222 100.269 139.792 97.3975C140.165 95.5185 141.046 94.075 141.914 93.0468C142.694 92.9683 143.262 92.9809 143.642 92.9987C145.647 93.0898 146.901 93.5407 147.805 94.0192C148.002 94.1231 148.42 94.3433 148.919 94.6878C150.089 95.4931 151.708 96.9722 151.968 99.2033C152.118 100.472 151.778 101.597 151.343 102.473Z" fill="#262626"/>
<path d="M70.9485 84.4211C69.8214 81.7645 67.7068 76.2462 67.7727 70.4722C67.8082 67.4484 67.9145 58.0478 75.0333 50.7543C81.0226 44.6181 88.4834 43.5569 91.4337 43.1391C94.5461 42.6959 99.0286 41.9589 104.248 43.9444C110.21 46.211 112.124 48.9942 113.365 50.8606C113.641 49.5007 114.621 45.5829 118.187 42.3591C122.016 38.8946 126.339 38.4844 127.633 38.3805C134.235 37.8513 138.895 41.5588 140.014 42.506C140.574 42.9821 147.44 49.0094 146.178 57.9693C145.961 59.5167 145.429 61.0032 144.742 62.3733C142.874 66.1037 139.87 68.9451 139.019 69.7023C137.429 68.5297 135.415 67.3446 132.964 66.4709C129.53 65.2477 126.683 65.1515 124.483 65.0957C121.35 65.0147 117.592 64.9185 113.709 66.6987C109.326 68.7121 106.948 72.1259 105.459 74.2634C100.882 80.8326 101.432 86.0774 97.4357 87.3284C96.0732 87.7539 95.6908 87.2423 93.7687 87.3284C88.2858 87.5715 84.2009 92.0465 82.0787 94.4346C79.1942 97.6787 76.5984 101.941 71.9943 118.731C71.2498 121.441 70.6141 123.756 70.0874 125.734C70.0874 125.734 70.0849 125.734 70.0849 125.736C69.3377 126.716 62.576 135.43 54.2314 135.484C52.8513 135.494 48.6144 135.451 44.7879 132.48C39.9558 128.729 38.6618 122.55 39.424 117.992C39.7786 115.867 40.5916 114.033 43.5014 109.943C46.7809 105.329 51.2077 99.2033 59.5978 92.3427C62.3759 90.0736 66.1544 87.2575 70.9485 84.4211Z" fill="#3A80FE"/>
<path d="M143.419 107.16L143.434 107.277C142.862 107.35 142.299 107.401 141.755 107.452C138.913 107.71 137.455 107.371 132.094 106.588C122.721 105.223 119.375 105.129 119.287 104.154C119.234 103.541 120.51 103.146 123.215 101.797C128.502 99.1604 127.976 98.4968 132.643 96.1391C137.088 93.8953 140.084 93.2241 141.915 93.0469C141.046 94.0751 140.165 95.5186 139.792 97.3977C139.222 100.27 140.167 102.529 140.499 103.288C141.259 105.036 142.381 106.292 143.419 107.16Z" fill="white"/>
<path d="M147.831 114.636C147.57 114.636 147.312 114.538 147.112 114.338C146.717 113.94 146.72 113.299 147.117 112.904C148.7 111.329 149.966 109.359 150.777 107.204C150.974 106.68 151.559 106.416 152.081 106.611C152.605 106.809 152.868 107.391 152.673 107.915C151.762 110.341 150.333 112.562 148.548 114.34C148.35 114.538 148.092 114.634 147.834 114.634L147.831 114.636Z" fill="black"/>
<path d="M136.082 119.3C135.21 119.3 134.494 119.247 133.987 119.212C127.286 118.728 122.627 115.14 120.446 113.043C120.043 112.655 120.031 112.014 120.418 111.609C120.806 111.207 121.447 111.194 121.852 111.581C123.835 113.488 128.069 116.75 134.137 117.188C135.95 117.32 140.767 117.672 145.252 114.481C145.913 114.01 146.541 113.481 147.116 112.908C147.513 112.513 148.154 112.516 148.549 112.911C148.944 113.306 148.942 113.949 148.547 114.344C147.893 114.993 147.182 115.595 146.429 116.13C142.628 118.834 138.678 119.295 136.087 119.295L136.082 119.3Z" fill="black"/>
<path d="M215.295 145.221C214.341 145.221 213.361 144.228 212.112 142.962C210.311 141.139 207.594 138.381 203.352 136.233C201.524 135.306 199.716 134.559 197.829 133.949C191.936 132.042 186.407 131.862 180.555 131.67C173.56 131.439 163.982 131.125 153.384 135.831C149.16 137.707 145.191 140.184 141.587 143.19C141.157 143.547 140.519 143.491 140.162 143.061C139.802 142.63 139.86 141.992 140.291 141.635C144.039 138.51 148.167 135.934 152.563 133.982C163.585 129.089 173.431 129.413 180.623 129.649C186.623 129.844 192.288 130.031 198.454 132.024C200.445 132.667 202.347 133.455 204.272 134.43C208.807 136.727 211.666 139.624 213.558 141.544C214.06 142.053 214.607 142.607 214.994 142.932C215.085 140.761 212.497 132.921 206.589 126.085C201.167 119.815 194.962 116.943 192.627 115.862C186.364 112.962 180.659 112.152 176.49 111.557C173.821 111.177 171.109 110.946 168.424 110.865L168.105 110.858C167.545 110.842 167.105 110.379 167.117 109.819C167.133 109.26 167.596 108.824 168.156 108.832L168.477 108.839C171.245 108.92 174.031 109.158 176.769 109.548C181.066 110.161 186.944 110.997 193.478 114.021C195.922 115.153 202.415 118.156 208.124 124.756C210.783 127.83 213.183 131.621 214.89 135.428C216.415 138.829 217.187 141.827 216.962 143.451C216.863 144.152 216.582 144.659 216.126 144.958C215.85 145.14 215.577 145.221 215.301 145.221H215.295Z" fill="black"/>
<path d="M140.007 108.548C138.364 108.548 136.824 108.317 134.107 107.909C133.461 107.813 132.747 107.704 131.944 107.588C129.459 107.226 127.38 106.952 125.709 106.729C123.3 106.41 121.708 106.2 120.618 105.964C119.839 105.795 118.385 105.481 118.274 104.242C118.172 103.075 119.188 102.594 121.031 101.72C121.533 101.482 122.1 101.213 122.758 100.884C125.435 99.5497 126.588 98.7316 127.702 97.939C128.768 97.1792 129.872 96.3966 132.184 95.2292C135.867 93.3703 139.106 92.2967 141.813 92.0332C142.661 91.9472 143.289 91.9623 143.687 91.98C145.51 92.0637 146.969 92.4233 148.276 93.1171C148.473 93.221 148.939 93.4666 149.491 93.8464C150.915 94.8266 152.672 96.5284 152.971 99.0786C153.121 100.355 152.877 101.647 152.247 102.918C151.728 103.961 151.087 104.693 150.846 104.967C148.739 107.352 145.845 107.988 143.558 108.274C143.011 108.345 142.476 108.393 141.962 108.441L141.848 108.451C141.185 108.512 140.59 108.54 140.007 108.54V108.548ZM121.014 103.982C122.057 104.204 123.863 104.442 125.98 104.723C127.656 104.946 129.743 105.22 132.24 105.585C133.045 105.701 133.762 105.81 134.41 105.906C138.019 106.448 139.372 106.651 141.664 106.44L141.778 106.43C142.276 106.385 142.79 106.337 143.307 106.271C145.364 106.013 147.683 105.498 149.324 103.64C149.54 103.394 150.036 102.829 150.436 102.021C150.889 101.11 151.067 100.201 150.963 99.3192C150.753 97.5237 149.423 96.2625 148.347 95.5204C147.893 95.209 147.516 95.0088 147.336 94.9152C146.683 94.5683 145.586 94.0998 143.598 94.011C143.234 93.9934 142.727 93.9833 142.018 94.0542H142.013C139.589 94.2896 136.507 95.323 133.101 97.0425C130.926 98.1415 129.933 98.8481 128.879 99.5952C127.702 100.431 126.486 101.297 123.668 102.703C122.989 103.039 122.412 103.315 121.903 103.556C121.596 103.7 121.285 103.847 121.014 103.984V103.982Z" fill="black"/>
<path d="M165.568 105.078C164.053 105.078 162.192 104.99 159.882 104.767C157.006 104.491 154.07 104.052 151.161 103.47C150.687 103.384 150.327 102.971 150.327 102.472C150.327 101.913 150.781 101.459 151.34 101.459H151.442L151.543 101.479C154.392 102.052 157.264 102.48 160.077 102.751C167.156 103.437 169.703 102.766 170.595 102.503L170.618 102.492L170.699 102.472C171.676 102.181 172.783 101.849 173.836 101.368C175.678 100.525 176.848 99.4535 177.524 97.9947C178.415 96.065 178.306 93.5882 177.245 91.6864C177.098 91.423 176.936 91.1748 176.764 90.9519C175.138 88.8119 172.418 88.1687 170.433 87.7027L170.354 87.685C164.877 86.4162 160.288 88.3257 158.327 89.1438C156.023 90.1061 153.88 91.4408 151.958 93.1122C151.166 93.801 150.398 94.5582 149.677 95.366C149.304 95.7838 148.664 95.8193 148.246 95.4471C147.828 95.0748 147.792 94.4341 148.165 94.0162C148.942 93.1425 149.773 92.3246 150.629 91.58C152.713 89.7667 155.043 88.3182 157.548 87.2723C159.503 86.4593 164.687 84.2991 170.787 85.7046C170.828 85.7123 170.868 85.7199 170.909 85.73C173.064 86.239 176.316 87.0088 178.375 89.7186C178.603 90.0148 178.82 90.3467 179.015 90.6962C180.403 93.1855 180.537 96.3056 179.365 98.8432C178.489 100.74 176.957 102.168 174.682 103.209C173.527 103.738 172.375 104.088 171.349 104.392L171.327 104.402L171.246 104.422C170.197 104.734 168.566 105.078 165.57 105.078H165.568Z" fill="black"/>
<path d="M143.419 108.173C143.188 108.173 142.958 108.095 142.77 107.938C141.36 106.758 140.283 105.33 139.572 103.693C138.632 101.543 138.374 99.3579 138.802 97.2026C139.151 95.4375 139.939 93.8219 141.144 92.3961L141.185 92.3505C141.57 91.9452 142.213 91.9301 142.618 92.315C143.013 92.6923 143.039 93.3103 142.679 93.7155C141.704 94.8728 141.068 96.1771 140.787 97.5952C140.44 99.3376 140.658 101.118 141.428 102.883C142.013 104.23 142.902 105.408 144.069 106.383C144.498 106.743 144.556 107.381 144.196 107.809C143.996 108.049 143.707 108.171 143.419 108.171V108.173Z" fill="black"/>
<path d="M170.974 104.468C170.805 104.468 170.632 104.425 170.48 104.339C168.953 103.509 166.889 101.959 165.73 99.292C163.749 94.7437 165.598 90.241 167.783 87.7692C168.434 87.0348 169.181 86.3941 170.004 85.8622C170.045 85.8319 170.085 85.8065 170.128 85.7812C170.615 85.5026 171.233 85.6697 171.511 86.156C171.78 86.6246 171.633 87.2147 171.19 87.5059L171.129 87.5489C170.45 87.9845 169.835 88.5112 169.3 89.1139C167.368 91.2995 166.089 95.045 167.586 98.4867C168.497 100.586 170.136 101.837 171.377 102.523L171.516 102.572L171.688 102.741C172.083 103.136 172.083 103.777 171.688 104.175C171.491 104.372 171.233 104.471 170.972 104.471L170.974 104.468Z" fill="black"/>
<path d="M161.701 112.286C159.658 112.286 157.231 111.911 154.575 110.769C153.84 110.452 152.805 109.652 151.974 109.006C151.652 108.758 151.321 108.5 151.189 108.419C150.713 108.122 150.569 107.497 150.865 107.023C151.161 106.55 151.784 106.403 152.26 106.699C152.478 106.836 152.787 107.074 153.215 107.406C153.876 107.92 154.876 108.692 155.375 108.907C159.382 110.629 162.775 110.396 164.915 109.895C165.682 109.715 166.842 109.447 168.045 108.923C169.919 108.11 171.317 106.919 172.203 105.385C172.761 104.425 173.113 103.341 173.252 102.166C173.318 101.611 173.822 101.211 174.376 101.28C174.931 101.345 175.329 101.849 175.263 102.404C175.091 103.855 174.65 105.2 173.956 106.398C172.847 108.315 171.13 109.789 168.85 110.779C167.48 111.377 166.212 111.67 165.373 111.868C164.37 112.101 163.13 112.286 161.699 112.286H161.701Z" fill="black"/>
<path d="M177.567 91.345C177.524 91.345 177.478 91.3424 177.432 91.3374C176.878 91.2639 176.488 90.7549 176.561 90.2003C176.678 89.3139 176.673 88.435 176.544 87.5944C176.08 84.5478 174.082 81.8962 170.605 79.7081C169.686 79.1308 166.885 77.3733 163.073 77.5125C162.696 77.5251 162.311 77.5606 161.931 77.6112C159.637 77.9328 157.768 78.961 155.18 80.3843C153.156 81.4986 151.252 82.8205 149.517 84.3173C149.094 84.6819 148.453 84.6338 148.089 84.211C147.724 83.788 147.769 83.1473 148.195 82.7825C150.036 81.1948 152.057 79.7917 154.202 78.6091C156.876 77.1377 158.988 75.9779 161.65 75.603C162.098 75.5398 162.552 75.5018 163 75.484C165.945 75.3776 168.865 76.2235 171.681 77.9886C175.683 80.5059 177.992 83.6335 178.547 87.2879C178.704 88.3186 178.711 89.3874 178.57 90.4637C178.501 90.9726 178.068 91.345 177.567 91.345Z" fill="black"/>
<path d="M120.162 94.7735C119.926 94.7735 119.691 94.6924 119.498 94.5278C119.075 94.1607 119.03 93.5225 119.394 93.0995C119.972 92.4334 120.542 91.8105 121.137 91.1951C125.012 87.1735 129.839 82.1694 136.593 81.4882C138.221 81.326 140.743 81.3438 143.527 82.3542C149.253 84.4461 150.8 87.7155 151.309 88.7918C151.815 89.863 152.147 91.0178 152.294 92.2208C152.363 92.7754 151.967 93.2819 151.413 93.3503C150.858 93.4211 150.352 93.0235 150.283 92.4689C150.162 91.4788 149.891 90.5342 149.475 89.6579C147.776 86.0644 144.19 84.7551 142.84 84.2612C140.412 83.3799 138.211 83.3622 136.793 83.504C130.778 84.1092 126.43 88.6221 122.591 92.6032C122.021 93.1933 121.474 93.7883 120.924 94.4266C120.724 94.657 120.44 94.776 120.157 94.776L120.162 94.7735Z" fill="black"/>
<path d="M161.792 77.6187C161.772 77.6187 161.752 77.6187 161.729 77.6187C161.169 77.5858 160.746 77.1046 160.779 76.5449C160.901 74.5443 160.562 72.6323 159.771 70.862C158.067 67.0456 154.866 65.3817 153.815 64.8348C151.042 63.3912 148.011 62.9049 145.048 63.4342C144.498 63.5305 143.971 63.1658 143.872 62.6137C143.774 62.0617 144.141 61.5374 144.693 61.4386C148.102 60.8334 151.579 61.3855 154.752 63.0366C155.957 63.6647 159.63 65.5717 161.623 70.0364C162.534 72.0777 162.942 74.3695 162.803 76.6665C162.77 77.2033 162.324 77.6187 161.792 77.6187Z" fill="black"/>
<path d="M139.019 70.7152C138.74 70.7152 138.462 70.6012 138.262 70.3758C137.889 69.958 137.927 69.3173 138.345 68.9449C138.94 68.4157 141.995 65.5945 143.836 61.9199C144.54 60.5143 144.991 59.1392 145.175 57.8274C146.348 49.4929 140.078 43.8886 139.358 43.2757C137.796 41.9537 133.529 38.9224 127.714 39.3883C123.419 39.7328 120.532 41.6017 118.865 43.1086C115.781 45.8968 114.717 49.2878 114.358 51.0606C114.246 51.6102 113.712 51.9646 113.162 51.8506C112.613 51.7393 112.261 51.2049 112.372 50.6554C112.782 48.6395 113.993 44.7825 117.508 41.6043C119.407 39.8872 122.69 37.7574 127.552 37.3674C134.116 36.8432 138.913 40.2418 140.668 41.7283C141.475 42.4147 148.506 48.6978 147.181 58.106C146.966 59.633 146.449 61.2209 145.649 62.8214C143.691 66.7266 140.597 69.6515 139.693 70.4543C139.5 70.6266 139.26 70.7101 139.019 70.7101V70.7152Z" fill="black"/>
<path d="M70.9481 85.4339C70.553 85.4339 70.1781 85.2009 70.016 84.8159C67.8051 79.6066 66.7112 74.7772 66.7593 70.4592C66.7972 67.2811 66.9087 57.6247 74.3086 50.0449C80.5436 43.6554 88.3512 42.5513 91.2915 42.1334L91.6055 42.0878C94.6774 41.6472 99.3194 40.9811 104.61 42.9945C110.961 45.4079 112.995 48.4697 114.21 50.2956C114.519 50.7616 114.393 51.3897 113.927 51.7012C113.461 52.0127 112.833 51.8836 112.521 51.4174C111.372 49.6878 109.632 47.0718 103.888 44.8862C99.0864 43.0603 94.9281 43.6554 91.8917 44.091L91.5751 44.1366C81.511 45.5624 77.3299 49.8448 75.7572 51.4554C68.9246 58.4552 68.8182 67.4988 68.7852 70.472C68.7397 74.5112 69.7805 79.0672 71.88 84.0182C72.0977 84.5323 71.8571 85.1274 71.343 85.3478C71.2139 85.4035 71.0797 85.4288 70.9481 85.4288V85.4339Z" fill="black"/>
<path d="M121.383 185.815C112.239 185.815 105.376 182.704 99.7762 180.167C94.7847 177.903 85.5032 173.697 77.8475 164.055C70.4171 154.703 66.7956 144.917 67.0844 134.975C67.135 133.187 67.8492 130.181 69.0724 125.602V124.721H69.3105C69.8119 122.852 70.3994 120.712 71.0199 118.46C75.8265 100.928 78.5312 96.9014 81.3246 93.7586C83.3961 91.4287 87.7039 86.5815 93.7261 86.313C94.6429 86.2725 95.2456 86.3537 95.7319 86.4194C96.2915 86.4954 96.5726 86.5334 97.1349 86.3587C98.8772 85.8117 99.5205 84.363 100.696 81.3976C101.544 79.2576 102.597 76.5959 104.628 73.6811C106.135 71.5184 108.655 67.902 113.287 65.7746C117.385 63.8955 121.335 63.9969 124.509 64.0805C126.552 64.1311 129.644 64.2096 133.304 65.5138C135.545 66.3141 137.67 67.4461 139.62 68.8845C140.668 69.657 141.676 70.5307 142.621 71.4829C143.016 71.8805 143.013 72.5212 142.616 72.9163C142.218 73.3088 141.577 73.3088 141.182 72.9112C140.311 72.0325 139.379 71.2272 138.414 70.5154C136.624 69.196 134.676 68.1552 132.62 67.4233C129.264 66.228 126.484 66.1571 124.453 66.1063C121.333 66.0254 117.797 65.9342 114.128 67.6182C109.997 69.5151 107.764 72.7187 106.287 74.8384C104.39 77.5609 103.385 80.101 102.575 82.1447C101.405 85.1 100.478 87.435 97.7351 88.2935C96.7423 88.6025 96.1168 88.5189 95.4558 88.4278C95.0101 88.3669 94.5467 88.3037 93.8122 88.3365C88.6434 88.5645 84.7206 92.9811 82.8339 95.1034C80.2128 98.0512 77.6626 101.883 72.9699 118.995C72.2684 121.548 71.6048 123.961 71.0655 125.989L70.8629 126.742C69.8068 130.73 69.1508 133.519 69.1079 135.028C68.8317 144.482 72.3064 153.822 79.4303 162.792C86.7821 172.05 95.433 175.971 100.602 178.313C106.454 180.965 113.728 184.263 123.508 183.725C133.853 183.16 141.752 178.663 146.556 174.993C146.999 174.654 147.638 174.737 147.977 175.183C148.316 175.626 148.233 176.265 147.787 176.603C142.758 180.448 134.481 185.156 123.62 185.751C122.86 185.792 122.113 185.812 121.381 185.812L121.383 185.815Z" fill="black"/>
<path d="M118.114 127.745C117.673 127.745 117.266 127.453 117.139 127.008C116.987 126.471 117.299 125.909 117.836 125.757C118.193 125.655 126.851 123.181 128.702 122.652C130.868 122.034 132.273 121.631 133.539 121.229C135.256 120.684 136.551 120.193 138.004 119.532C140.324 118.476 144.503 115.87 146.812 113.254V113.196L147.131 112.889C147.537 112.504 148.177 112.519 148.565 112.925C148.777 113.148 148.869 113.441 148.838 113.725V113.998L148.605 114.28C146.014 117.395 141.243 120.287 138.845 121.378C137.31 122.075 135.953 122.591 134.152 123.161C132.858 123.571 131.44 123.979 129.26 124.599C127.408 125.129 118.747 127.603 118.39 127.704C118.296 127.73 118.205 127.742 118.114 127.742V127.745Z" fill="black"/>
<path d="M160.174 168.548C157.953 168.548 155.813 168.436 153.754 168.33C147.863 168.026 143.604 167.013 138.232 165.367C137.06 165.01 135.829 164.62 134.565 164.22C133.129 163.767 131.706 163.265 130.121 162.161C124.608 158.319 123.45 151.54 123.07 149.311C121.482 139.987 125.671 132.518 127.687 128.93L127.786 128.755C129.25 126.141 131.043 123.7 133.112 121.502C133.494 121.094 134.137 121.074 134.543 121.459C134.95 121.841 134.971 122.482 134.586 122.89C132.631 124.969 130.936 127.276 129.553 129.748L129.455 129.925C127.555 133.311 123.602 140.356 125.069 148.974C125.413 150.995 126.461 157.147 131.278 160.502C132.631 161.447 133.844 161.872 135.176 162.293C136.434 162.693 137.66 163.08 138.822 163.435C144.044 165.035 148.175 166.018 153.848 166.312C160.908 166.676 168.199 167.051 176.475 163.298C177.304 162.921 178.689 162.29 180.229 161.406C184.189 159.14 187.502 156.182 190.08 152.613C194.046 147.121 196.73 135.613 197.138 132.845C197.219 132.29 197.733 131.91 198.288 131.989C198.842 132.07 199.225 132.584 199.144 133.139C198.652 136.479 195.874 148.053 191.726 153.799C188.981 157.603 185.453 160.753 181.239 163.164C179.618 164.093 178.177 164.749 177.316 165.142C171.175 167.927 165.452 168.55 160.176 168.55L160.174 168.548Z" fill="black"/>
<path d="M208.116 124.756C202.41 118.157 195.917 115.153 193.473 114.021C186.934 110.995 181.059 110.159 176.764 109.549C175.105 109.313 173.428 109.133 171.749 109.009C172.575 108.32 173.34 107.467 173.955 106.401C174.563 105.352 174.973 104.195 175.183 102.957C176.845 102.108 178.427 100.855 179.359 98.8413C180.532 96.3062 180.398 93.1837 179.01 90.6942C178.883 90.4664 178.749 90.2511 178.607 90.0459C178.698 89.1166 178.681 88.1896 178.544 87.2856C177.989 83.6312 175.68 80.5035 171.678 77.9888C168.867 76.2212 165.947 75.3752 163 75.4842C162.939 75.4842 162.881 75.4917 162.82 75.4943C162.787 73.5873 162.387 71.7563 161.619 70.0343C159.626 65.5746 155.954 63.6625 154.749 63.0345C152.115 61.6643 149.273 61.054 146.437 61.2314C146.764 60.2664 147.025 59.2281 147.182 58.1088C148.506 48.6854 141.476 42.4175 140.668 41.7337C138.913 40.2472 134.124 36.841 127.552 37.3703C122.69 37.7603 119.405 39.8901 117.509 41.6071C114.989 43.8838 113.657 46.5075 112.953 48.5562C111.555 46.8417 109.22 44.7525 104.611 42.9974C99.3203 40.9841 94.6807 41.6502 91.6114 42.0883L91.2923 42.1339C88.352 42.5517 80.5419 43.661 74.3094 50.0479C66.9095 57.6301 66.798 67.2865 66.7627 70.4596C66.7094 75.0385 67.611 79.5463 69.442 83.8617C69.4749 83.9402 69.518 84.0085 69.5686 84.0744C65.8433 86.3334 62.2877 88.838 58.96 91.5604C50.2938 98.6462 45.71 105.091 42.6787 109.356C39.8726 113.302 38.8395 115.361 38.4266 117.825C37.6745 122.315 38.728 129.056 44.1704 133.28C46.9206 135.415 50.2635 136.499 54.1052 136.499C54.1508 136.499 54.1965 136.499 54.242 136.499C60.8594 136.456 65.6281 132.506 67.9301 130.087C67.3982 132.321 67.1171 133.881 67.0868 134.977C66.798 144.917 70.4195 154.7 77.8498 164.058C85.5055 173.701 94.7871 177.908 99.771 180.167C105.37 182.704 112.241 185.82 121.388 185.82C122.12 185.82 122.865 185.799 123.624 185.759C134.22 185.179 142.36 180.679 147.425 176.89C149.357 179.757 150.497 182.178 150.385 185.039C150.357 185.726 150.269 186.316 150.145 187.133C149.967 188.301 149.722 189.901 149.491 192.832C149.157 197.053 149.314 198.383 149.788 199.769C149.985 200.345 151.826 205.41 155.549 205.753C155.681 205.765 155.812 205.771 155.939 205.771C157.978 205.771 159.56 204.263 161.888 202.05C161.984 201.958 162.07 201.872 162.161 201.784C162.893 203.401 163.661 204.987 164.453 206.515C165.408 208.353 165.861 209.091 166.322 209.736C166.831 210.45 168.723 212.925 171.676 214.743C173.423 215.82 177.095 217.739 181.061 217.739C182.748 217.739 184.488 217.392 186.157 216.485C190.115 214.336 191.442 210.2 191.941 208.643C193.962 202.347 191.462 196.449 190.523 194.227C188.945 190.507 187.137 188.519 185.541 186.764C183.837 184.889 182.363 183.272 181.429 179.833C180.623 176.875 180.699 174.406 180.811 170.663C180.889 168.079 181.173 165.481 181.649 162.933C184.693 161.14 188.474 158.307 191.728 153.796C195.471 148.612 198.102 138.672 198.941 134.332C200.387 134.851 201.858 135.476 203.357 136.236C207.597 138.384 210.317 141.141 212.117 142.965C213.366 144.231 214.343 145.224 215.3 145.224C215.577 145.224 215.847 145.143 216.126 144.96C216.582 144.661 216.863 144.153 216.962 143.454C217.187 141.83 216.412 138.832 214.89 135.431C213.186 131.624 210.782 127.833 208.123 124.759L208.116 124.756ZM177.523 97.9929C176.285 100.675 173.474 101.637 171.088 102.356C169.893 101.642 168.434 100.429 167.588 98.4867C166.092 95.0451 167.371 91.2996 169.303 89.1139C169.741 88.6176 170.24 88.1744 170.787 87.7844C172.978 88.3086 175.799 89.0937 177.245 91.6844C178.306 93.5889 178.417 96.0656 177.523 97.9929ZM139.569 103.694C140.007 104.704 140.587 105.633 141.299 106.474C139.225 106.629 137.837 106.421 134.443 105.914C133.787 105.816 133.058 105.707 132.24 105.588C129.745 105.226 127.661 104.95 125.987 104.727C123.868 104.446 122.059 104.208 121.014 103.985C121.287 103.85 121.596 103.704 121.902 103.559C122.411 103.319 122.991 103.045 123.67 102.706C126.486 101.303 127.702 100.437 128.879 99.601C129.933 98.8539 130.926 98.1449 133.101 97.0483C135.57 95.8023 137.796 94.9387 139.767 94.4575C139.318 95.3262 138.992 96.243 138.802 97.2053C138.376 99.3554 138.635 101.541 139.574 103.699L139.569 103.694ZM143.859 106.196C142.795 105.256 141.975 104.144 141.425 102.883C140.656 101.11 140.438 99.33 140.782 97.5928C141.038 96.3012 141.592 95.1033 142.428 94.0245C142.831 93.9991 143.218 93.9915 143.591 94.0092C145.576 94.1005 146.675 94.569 147.329 94.9133C149.471 96.0454 150.76 97.6105 150.958 99.3199C151.074 100.313 150.882 101.865 149.319 103.638C147.858 105.294 145.822 105.899 143.857 106.196H143.859ZM152.973 99.0869C152.776 97.3978 151.885 95.8479 150.413 94.569C150.907 94.0599 151.419 93.5737 151.945 93.1153C151.953 93.1077 151.961 93.1027 151.968 93.0951C153.883 91.4338 156.01 90.1068 158.33 89.1393C160.029 88.4302 163.694 86.9057 168.201 87.3311C168.059 87.4729 167.92 87.6173 167.786 87.7693C165.6 90.241 163.752 94.7437 165.73 99.292C166.411 100.86 167.404 102.037 168.417 102.914C166.798 103.088 164.21 103.149 160.08 102.749C157.643 102.513 155.179 102.156 152.735 101.7C153.037 100.685 153.057 99.7884 152.976 99.0818L152.973 99.0869ZM67.6996 127.251C66.7905 128.449 61.8622 134.42 54.2268 134.471C50.7978 134.486 47.8273 133.554 45.4113 131.68C40.6755 128.003 39.7638 122.1 40.4222 118.159C40.7337 116.305 41.4225 114.616 44.3274 110.531C47.2979 106.355 51.7855 100.042 60.2414 93.1279C64.7493 89.4432 69.6775 86.1586 74.8894 83.3627C75.3832 83.0993 75.5681 82.484 75.3047 81.9902C75.0413 81.4963 74.4259 81.3115 73.9321 81.5748C73.0457 82.0509 72.1694 82.5447 71.3009 83.0462C69.5863 78.9967 68.7405 74.77 68.7912 70.48C68.824 67.5068 68.9279 58.4608 75.7631 51.461C81.5118 45.5704 88.5673 44.5676 91.581 44.1396L91.9001 44.094C94.9365 43.6584 99.0923 43.0633 103.894 44.8892C109.638 47.0722 111.375 49.6857 112.525 51.4154C112.527 51.4205 112.532 51.423 112.535 51.4281C112.57 51.4787 112.608 51.5269 112.651 51.5699C112.672 51.5901 112.697 51.6079 112.717 51.6256C112.745 51.6484 112.773 51.6737 112.803 51.6965C112.834 51.7167 112.864 51.732 112.897 51.7472C112.925 51.7624 112.95 51.7776 112.978 51.7902C113.034 51.813 113.089 51.8307 113.148 51.8433C113.155 51.8433 113.16 51.8485 113.168 51.851C113.234 51.8637 113.3 51.8712 113.368 51.8712C113.391 51.8712 113.416 51.8662 113.439 51.8637C113.482 51.8611 113.522 51.8586 113.566 51.851C113.596 51.846 113.624 51.8332 113.654 51.8257C113.687 51.8156 113.723 51.808 113.755 51.7954C113.816 51.77 113.874 51.7396 113.93 51.7016C113.94 51.6965 113.945 51.689 113.955 51.6814C114.001 51.6484 114.044 51.6155 114.085 51.575C114.107 51.5521 114.125 51.5269 114.143 51.504C114.166 51.4763 114.188 51.4509 114.209 51.423C114.229 51.3926 114.244 51.3623 114.259 51.3293C114.275 51.3015 114.29 51.2761 114.302 51.2483C114.325 51.1951 114.34 51.1419 114.353 51.0862C114.353 51.0761 114.361 51.0685 114.361 51.0583C114.72 49.2856 115.786 45.8946 118.871 43.1063C120.537 41.5995 123.425 39.7305 127.72 39.3861C133.542 38.9176 137.801 41.9515 139.364 43.276C139.65 43.5191 146.376 49.3312 145.181 57.8251C144.963 59.3801 144.523 60.7654 143.971 61.9861C143.96 62.0063 143.95 62.0239 143.943 62.0468C142.732 64.6832 141 66.5268 139.845 67.5525C139.427 67.9247 139.389 68.5654 139.759 68.9832C139.761 68.9857 139.767 68.9884 139.769 68.9934C137.789 67.5068 135.628 66.3419 133.309 65.5163C129.654 64.2145 126.56 64.1361 124.513 64.0829C121.34 64.0018 117.387 63.9006 113.292 65.7797C108.658 67.9069 106.138 71.5233 104.631 73.6861C102.602 76.5985 101.546 79.2626 100.698 81.4026C99.5228 84.3681 98.8796 85.8193 97.1372 86.3638C96.575 86.541 96.2939 86.5005 95.7317 86.4245C95.248 86.3586 94.6427 86.2776 93.726 86.3181C87.7037 86.584 83.396 91.4338 81.3244 93.7636C78.5311 96.9064 75.8289 100.933 71.0198 118.466C70.0928 121.841 69.3356 124.607 68.7379 126.884C68.3607 126.795 67.9503 126.927 67.7022 127.256L67.6996 127.251ZM123.51 183.733C113.727 184.267 106.452 180.97 100.604 178.32C95.4354 175.978 86.7844 172.058 79.4326 162.799C72.3088 153.824 68.8341 144.484 69.1078 135.035C69.171 132.842 70.4398 128.218 72.9697 119C77.6624 101.89 80.2152 98.0562 82.8363 95.1084C84.723 92.9862 88.6484 88.5695 93.8146 88.3416C94.5491 88.3086 95.01 88.372 95.4582 88.4327C96.1217 88.5214 96.7472 88.6075 97.74 88.296C100.483 87.4374 101.41 85.1026 102.58 82.1471C103.39 80.1059 104.395 77.5633 106.292 74.8435C107.769 72.7238 110.002 69.5176 114.135 67.6208C117.802 65.9367 121.34 66.0278 124.46 66.1089C126.494 66.162 129.277 66.2331 132.628 67.4259C135.831 68.5654 138.711 70.4142 141.187 72.9137C141.58 73.3113 142.223 73.3138 142.621 72.9212C143.018 72.5288 143.021 71.8856 142.628 71.488C141.808 70.6598 140.947 69.9001 140.048 69.2036C140.195 69.2796 140.354 69.3226 140.516 69.3226C140.754 69.3226 140.995 69.2391 141.187 69.0669C142.413 67.9804 144.219 66.0709 145.561 63.3536C147.625 63.0674 150.59 63.151 153.819 64.8325C154.87 65.3796 158.071 67.0459 159.776 70.8599C160.462 72.397 160.806 74.0382 160.806 75.7526C158.512 76.2388 156.547 77.3177 154.204 78.6068C152.064 79.7843 150.043 81.1873 148.195 82.7802C147.772 83.145 147.724 83.7857 148.088 84.2085C148.453 84.6315 149.094 84.6796 149.517 84.3149C151.259 82.8157 153.163 81.4912 155.179 80.382C158.216 78.7131 160.219 77.6089 163.076 77.5076C166.892 77.3735 169.688 79.1258 170.605 79.7033C174.084 81.8888 176.082 84.5429 176.546 87.5894C176.566 87.7185 176.576 87.8503 176.591 87.982C174.814 86.6955 172.734 86.1611 171.126 85.7787C170.957 85.6824 170.764 85.6394 170.569 85.652C164.56 84.3479 159.485 86.4625 157.552 87.2678C155.552 88.1035 153.68 89.1823 151.953 90.4942C151.786 89.9066 151.573 89.3343 151.315 88.7847C149.256 84.4314 144.948 82.8639 143.532 82.3498C140.749 81.3367 138.227 81.3189 136.601 81.4836C129.847 82.1649 125.02 87.1691 121.143 91.1907C120.545 91.8085 119.96 92.4492 119.403 93.0951C119.038 93.518 119.084 94.1587 119.507 94.5233C119.699 94.688 119.935 94.7691 120.168 94.7691C120.451 94.7691 120.735 94.65 120.935 94.417C121.469 93.7991 122.029 93.1862 122.599 92.5936C126.438 88.6126 130.786 84.1021 136.804 83.4969C138.219 83.3551 140.415 83.3703 142.841 84.2516C144.191 84.743 147.782 86.0471 149.484 89.6483C149.826 90.3676 150.064 91.1399 150.208 91.9453C149.707 92.4011 149.22 92.8772 148.747 93.3762C148.595 93.2876 148.44 93.2014 148.281 93.1178C146.969 92.4265 145.51 92.0644 143.692 91.9808C143.114 91.9554 142.512 91.9706 141.879 92.0314C141.838 92.0314 141.795 92.039 141.755 92.0466C139.04 92.3277 135.834 93.3913 132.189 95.2324C129.877 96.4 128.776 97.1851 127.707 97.9423C126.593 98.7323 125.44 99.5529 122.766 100.885C122.105 101.214 121.538 101.483 121.036 101.721C119.193 102.594 118.177 103.073 118.281 104.238C118.392 105.479 119.846 105.793 120.629 105.963C121.718 106.198 123.311 106.408 125.724 106.727C127.393 106.948 129.469 107.224 131.951 107.583C132.767 107.702 133.494 107.811 134.147 107.91C136.849 108.315 138.381 108.543 140.017 108.543C140.597 108.543 141.19 108.515 141.851 108.455C144.568 108.209 148.291 107.87 150.846 104.972C151.256 104.506 151.593 104.048 151.869 103.6C154.533 104.111 157.226 104.504 159.887 104.76C162.194 104.983 164.053 105.071 165.565 105.071C168.462 105.071 170.085 104.75 171.142 104.446C171.225 104.433 171.306 104.408 171.382 104.375C171.843 104.235 172.344 104.086 172.866 103.909C172.694 104.423 172.474 104.914 172.208 105.378C171.205 107.112 169.696 108.158 168.237 108.824C168.209 108.824 168.181 108.824 168.153 108.822C167.834 108.812 167.548 108.959 167.355 109.189C166.413 109.536 165.542 109.744 164.917 109.888C162.777 110.387 159.386 110.622 155.377 108.898C154.88 108.685 153.883 107.913 153.224 107.401C152.799 107.072 152.492 106.834 152.272 106.697C152.272 106.697 152.267 106.695 152.264 106.692C152.264 106.692 152.262 106.692 152.259 106.689C152.226 106.669 152.191 106.657 152.156 106.639C152.13 106.626 152.107 106.611 152.082 106.601C152.024 106.578 151.963 106.563 151.902 106.553C151.897 106.553 151.892 106.55 151.885 106.548C151.836 106.54 151.788 106.54 151.74 106.54C151.662 106.54 151.586 106.545 151.51 106.56C151.505 106.56 151.5 106.56 151.495 106.56C151.451 106.57 151.408 106.588 151.368 106.603C151.348 106.611 151.327 106.616 151.31 106.624C151.274 106.639 151.244 106.662 151.208 106.682C151.186 106.695 151.16 106.707 151.14 106.722C151.087 106.76 151.036 106.803 150.991 106.852C150.988 106.854 150.985 106.859 150.98 106.864C150.937 106.91 150.899 106.958 150.866 107.014C150.849 107.041 150.839 107.072 150.823 107.1C150.808 107.13 150.79 107.158 150.778 107.191C150.778 107.191 150.778 107.196 150.775 107.199C149.99 109.283 148.392 112.233 145.252 114.469C140.772 117.658 135.95 117.308 134.137 117.177C128.066 116.738 123.835 113.474 121.854 111.569C121.452 111.182 120.811 111.195 120.421 111.597C120.033 112 120.046 112.641 120.449 113.031C122.627 115.125 127.284 118.714 133.99 119.2C134.494 119.235 135.211 119.288 136.077 119.288C136.892 119.288 137.847 119.243 138.885 119.096C138.574 119.258 138.277 119.402 138.009 119.524C135.289 120.76 133.23 121.35 128.705 122.642C126.856 123.171 118.195 125.645 117.838 125.746C117.301 125.901 116.989 126.461 117.141 126.997C117.268 127.443 117.673 127.732 118.114 127.732C118.205 127.732 118.299 127.719 118.392 127.694C118.749 127.593 127.411 125.118 129.274 124.584C129.834 124.424 130.356 124.275 130.847 124.133C129.71 125.594 128.684 127.137 127.785 128.742L127.687 128.917C125.673 132.506 121.484 139.974 123.072 149.296C123.452 151.525 124.607 158.306 130.123 162.148C131.708 163.253 133.129 163.751 134.565 164.207C135.76 164.587 136.9 164.947 138.004 165.286C140.045 167.193 141.914 169.298 143.563 171.544C143.943 172.06 144.312 172.559 144.67 173.046C145.232 173.805 145.763 174.525 146.26 175.213C141.425 178.84 133.638 183.166 123.51 183.72V183.733ZM179.468 180.364C180.532 184.275 182.236 186.146 184.037 188.129C185.597 189.843 187.208 191.617 188.651 195.02C189.593 197.24 191.799 202.445 190.006 208.024C189.573 209.369 188.426 212.942 185.182 214.707C183.629 215.551 179.311 217.076 172.732 213.021C170.035 211.36 168.29 209.014 167.966 208.561C167.626 208.083 167.236 207.495 166.246 205.583C165.345 203.843 164.476 202.022 163.656 200.171C163.952 199.824 164.215 199.495 164.466 199.183C165.335 198.104 166.021 197.254 167.404 196.264C168.343 195.59 169.371 195.026 170.46 194.582C170.979 194.371 171.228 193.779 171.017 193.263C170.807 192.743 170.215 192.495 169.698 192.706C168.462 193.206 167.295 193.85 166.226 194.615C164.618 195.765 163.78 196.808 162.891 197.909C162.237 198.717 161.564 199.555 160.487 200.581C158.163 202.792 156.99 203.846 155.731 203.732C153.234 203.502 151.715 199.153 151.7 199.107C151.32 197.998 151.201 196.851 151.507 192.987C151.733 190.13 151.971 188.573 152.143 187.436C152.272 186.584 152.376 185.913 152.406 185.113C152.594 180.359 149.952 176.79 146.295 171.85C145.938 171.369 145.571 170.87 145.194 170.356C144.198 169.001 143.125 167.697 141.988 166.451C145.642 167.426 149.233 168.095 153.743 168.328C155.807 168.434 157.95 168.545 160.176 168.545C165.451 168.545 171.174 167.922 177.313 165.137C177.865 164.886 178.567 164.567 179.377 164.162C179.048 166.294 178.848 168.452 178.782 170.597C178.668 174.378 178.587 177.111 179.471 180.359L179.468 180.364ZM214.989 142.927C214.604 142.605 214.057 142.048 213.556 141.541C211.664 139.624 208.805 136.725 204.269 134.428C195.808 130.143 188.431 129.902 180.621 129.646C173.428 129.411 163.58 129.089 152.563 133.982C148.167 135.935 144.039 138.51 140.288 141.635C139.858 141.995 139.799 142.633 140.159 143.061C140.519 143.492 141.157 143.547 141.585 143.19C145.189 140.184 149.16 137.71 153.384 135.833C163.975 131.128 173.558 131.444 180.552 131.672C186.083 131.852 191.391 132.029 196.988 133.696C196.276 137.462 193.716 147.571 190.077 152.611C186.909 157 183.189 159.71 180.258 161.391C180.223 161.409 180.188 161.427 180.155 161.449C178.648 162.308 177.359 162.893 176.472 163.296C168.194 167.049 160.9 166.671 153.845 166.307C146.68 165.937 142.102 164.486 135.173 162.29C133.841 161.867 132.63 161.442 131.275 160.5C126.458 157.144 125.41 150.993 125.066 148.969C123.597 140.354 127.55 133.308 129.449 129.922L129.548 129.745C130.89 127.352 132.526 125.111 134.408 123.08C136.003 122.568 137.315 122.072 138.845 121.378C141.235 120.291 145.981 117.414 148.58 114.305C150.289 112.598 151.419 110.746 152.153 109.149C152.948 109.764 153.888 110.475 154.569 110.769C157.226 111.911 159.654 112.289 161.698 112.289C163.126 112.289 164.367 112.104 165.37 111.871C166.137 111.691 167.325 111.413 168.619 110.873C171.235 110.957 173.877 111.185 176.475 111.554C180.643 112.147 186.349 112.96 192.617 115.86C194.952 116.941 201.156 119.813 206.579 126.081C212.487 132.913 215.075 140.756 214.984 142.927H214.989Z" fill="#262626"/>
</g>
<defs>
<clipPath id="clip0_1945_2522">
<rect width="256" height="256" fill="white"/>
</clipPath>
</defs>
</svg>
