<svg width="256" height="256" viewBox="0 0 256 256" fill="none" xmlns="http://www.w3.org/2000/svg">
<g clip-path="url(#clip0_2451_115)">
<path d="M256 128C256 57.3075 198.692 0 128 0C57.3075 0 0 57.3075 0 128C0 198.692 57.3075 256 128 256C198.692 256 256 198.692 256 128Z" fill="black"/>
<path d="M115.744 154.88C114.629 154.88 113.738 154.88 112.624 153.766L96.135 137.277C95.6893 136.831 95.4665 136.608 95.4665 136.163C95.2436 135.94 95.0208 135.049 95.2437 134.157C95.2437 133.712 95.4665 133.489 95.6893 133.266C95.9121 133.043 96.135 132.82 96.3578 132.597C96.8035 132.152 97.0263 131.706 97.2491 131.483C101.26 127.695 105.048 123.907 109.059 120.342C117.972 111.652 126.885 102.962 135.798 94.2714C135.798 93.8257 136.466 91.1518 138.472 90.4833C139.14 90.2605 140.032 90.2605 140.477 90.2605C141.591 90.2605 142.483 90.2605 143.597 91.3746L160.977 107.864C161.646 108.755 162.314 109.869 162.091 110.983C161.869 112.097 160.754 112.766 160.309 112.989C158.303 114.103 152.064 120.342 140.254 132.82C133.124 139.728 126.216 146.635 119.086 153.32C118.863 153.543 118.64 154.212 117.972 154.657C117.303 154.88 116.635 154.88 115.744 154.88Z" fill="#AF145B"/>
<path d="M160.755 74.8859L126.886 42.1304C121.761 38.1195 115.522 35 108.391 35C101.261 35 94.1304 38.1195 89.0054 43.2445C87 44.3587 87 45.2499 87 46.3641C87 47.4782 87 48.3696 88.1141 49.4837L134.239 93.6033C135.353 94.7174 136.245 94.7174 136.245 95.6087C146.495 106.973 147.609 123.239 138.25 134.603L160.755 112.989C165.88 108.978 169 101.625 169 94.4946C169 87.3641 165.88 80.0109 160.755 74.8859Z" fill="url(#paint0_linear_2451_115)"/>
<path d="M120.871 148.863C110.621 137.499 109.507 121.233 119.757 109.869L97.2514 131.483C92.1264 136.608 89.0068 143.738 89.0068 150.869C89.0068 157.999 92.1264 165.13 97.2514 170.255L146.496 220.39C147.61 221.505 148.501 221.505 149.616 221.505C150.73 221.505 151.621 221.505 152.735 220.39C157.86 215.265 160.98 208.135 160.98 201.005C160.98 193.874 157.86 186.744 152.735 181.619L121.985 150.869C121.762 149.755 120.871 149.755 120.871 148.863Z" fill="url(#paint1_linear_2451_115)"/>
</g>
<defs>
<linearGradient id="paint0_linear_2451_115" x1="87" y1="84.8016" x2="169" y2="84.8016" gradientUnits="userSpaceOnUse">
<stop stop-color="#CB0766"/>
<stop offset="1" stop-color="#E04391"/>
</linearGradient>
<linearGradient id="paint1_linear_2451_115" x1="88.2064" y1="165.687" x2="160.645" y2="165.687" gradientUnits="userSpaceOnUse">
<stop stop-color="#CB0766"/>
<stop offset="1" stop-color="#E04391"/>
</linearGradient>
<clipPath id="clip0_2451_115">
<rect width="256" height="256" fill="white"/>
</clipPath>
</defs>
</svg>
