<svg width="256" height="256" viewBox="0 0 256 256" fill="none" xmlns="http://www.w3.org/2000/svg">
<g clip-path="url(#clip0_1636_226)">
<path d="M0 128C0 198.692 57.3075 256 128 256C198.692 256 256 198.692 256 128C256 57.3075 198.692 0 128 0C57.3075 0 0 57.3075 0 128Z" fill="#075A5A"/>
<path d="M154.82 40.5937L127.587 56.0012C117.744 61.5705 116.868 75.4179 125.932 82.183L153.737 102.937C159.4 107.164 158.855 115.816 152.705 119.298L127.615 133.507C117.765 139.085 116.904 152.949 125.987 159.703L152.459 179.388C155.207 181.43 156.825 184.652 156.825 188.074V188.885C156.825 191.377 159.516 192.94 161.681 191.706L189.056 176.103C198.905 170.489 199.712 156.596 190.58 149.88L162.794 129.445C157.09 125.249 157.59 116.572 163.739 113.06L189.107 98.568C198.94 92.9508 199.745 79.0755 190.626 72.3593L164.072 52.8007C161.302 50.7605 159.667 47.5251 159.667 44.0849V43.4202C159.667 40.9329 156.985 39.3689 154.82 40.5937Z" fill="white"/>
<path d="M95.1051 65.0547L67.8723 80.4622C58.0286 86.0313 57.1528 99.8791 66.2164 106.644L94.0216 127.398C99.6849 131.625 99.1395 140.277 92.9902 143.759L67.8993 157.969C58.0497 163.546 57.1884 177.41 66.2718 184.164L92.7445 203.848C95.4912 205.891 97.1101 209.112 97.1101 212.535V213.346C97.1101 215.837 99.8008 217.401 101.966 216.167L129.341 200.564C139.19 194.95 139.998 181.057 130.865 174.341L103.079 153.905C97.3751 149.71 97.8751 141.033 104.024 137.521L129.392 123.029C139.225 117.412 140.029 103.537 130.911 96.8202L104.357 77.2616C101.587 75.2214 99.9516 71.986 99.9516 68.5458V67.8811C99.9516 65.3938 97.2699 63.8298 95.1051 65.0547Z" fill="white"/>
</g>
<defs>
<clipPath id="clip0_1636_226">
<rect width="256" height="256" fill="white"/>
</clipPath>
</defs>
</svg>
