<svg width="256" height="256" viewBox="0 0 256 256" fill="none" xmlns="http://www.w3.org/2000/svg">
<g clip-path="url(#clip0_1339_29)">
<path d="M128 256C198.692 256 256 198.692 256 128C256 57.3076 198.692 0 128 0C57.3076 0 0 57.3076 0 128C0 198.692 57.3076 256 128 256Z" fill="white"/>
<path opacity="0.32" fill-rule="evenodd" clip-rule="evenodd" d="M128 234.667C186.91 234.667 234.667 186.91 234.667 128C234.667 69.0896 186.91 21.3333 128 21.3333C69.0896 21.3333 21.3333 69.0896 21.3333 128C21.3333 186.91 69.0896 234.667 128 234.667ZM240 128C240 189.856 189.856 240 128 240C66.144 240 16 189.856 16 128C16 66.144 66.144 16 128 16C189.856 16 240 66.144 240 128Z" fill="#026EF4"/>
<path fill-rule="evenodd" clip-rule="evenodd" d="M127.998 76.6901C130.239 76.6901 132.447 77.28 134.389 78.3931L147.25 85.7584C149.088 86.8128 149.362 88.4832 149.362 89.3877C149.362 90.2923 149.088 91.9659 147.25 93.0171L115.175 111.373L89.5947 96.7195L121.606 78.3893C123.545 77.28 125.757 76.6901 127.998 76.6901ZM127.998 64C123.582 64 119.166 65.1317 115.208 67.3989L64 96.7195L115.171 126.03L127.991 133.369L140.792 126.041L127.995 118.713L160.04 100.361C161.967 99.2544 164.168 98.672 166.394 98.672C168.621 98.672 170.821 99.2544 172.752 100.361L179.203 104.055L192 96.7269L179.151 89.3696C175.204 87.1061 170.799 85.9781 166.394 85.9781C164.887 85.9781 163.38 86.1104 161.892 86.3744C161.064 81.7595 158.316 77.4373 153.648 74.7637L140.788 67.3989C136.831 65.1323 132.417 64.0005 127.998 64ZM127.994 148.037L64 111.388V126.048L128.002 162.698L191.988 126.048L191.999 111.395L127.994 148.037ZM127.994 177.34L64 140.69V155.35L128.002 192L191.988 155.35L191.999 140.698L127.994 177.34Z" fill="#026EF4"/>
</g>
<defs>
<clipPath id="clip0_1339_29">
<rect width="256" height="256" fill="white"/>
</clipPath>
</defs>
</svg>
