<svg width="256" height="256" viewBox="0 0 256 256" fill="none" xmlns="http://www.w3.org/2000/svg">
<g clip-path="url(#clip0_1984_973)">
<path d="M127.983 0C198.63 0 255.966 57.3355 255.966 127.983C255.966 198.63 198.63 255.966 127.983 255.966C57.3355 255.966 0 198.63 0 127.983C0 57.3355 57.3355 0 127.983 0Z" fill="#687C0A"/>
<path d="M164.233 117.593C164.575 108.134 159.041 99.3576 150.085 95.155L148.643 94.4766C142.977 91.8184 136.739 90.436 130.416 90.436H97.9166C96.2184 90.436 94.5886 91.076 93.3939 92.2195C92.195 93.3587 91.5294 94.9075 91.5422 96.516L91.9774 160.781C91.9944 163.605 94.4179 165.883 97.4003 165.883H110.717C113.046 165.883 114.945 164.121 114.996 161.915L115.418 142.566H124.067L139.073 164.484C139.67 165.359 140.694 165.883 141.791 165.883H157.065C158.815 165.883 160.428 164.983 161.272 163.528C162.117 162.078 162.057 160.303 161.123 158.903L147.986 139.268L148.511 139.063C157.748 135.449 163.896 127.053 164.238 117.593H164.233ZM140.323 118.046C140.297 118.25 140.314 118.583 140.263 118.78C140.289 119.1 140.037 119.501 139.96 119.821C139.875 120.175 139.93 120.06 139.717 120.311C139.674 120.516 139.406 120.751 139.354 120.955C139.209 121.514 138.877 121.817 138.446 122.21C138.313 122.329 138.113 122.641 137.964 122.73C137.763 123.055 137.631 123.225 137.298 123.311C137.208 123.375 137.033 123.614 136.935 123.648C136.602 123.972 136.24 124.22 135.817 124.446C134.793 124.988 133.842 125.244 132.703 125.393C131.546 125.546 130.271 125.495 129.106 125.517C127.634 125.542 126.128 125.581 124.664 125.457C124.263 125.423 123.645 125.542 123.244 125.517C122.825 125.499 122.48 125.546 122.066 125.517C121.422 125.491 119.561 125.61 118.921 125.517C116.805 125.209 115.538 126.007 115.474 125.09C115.384 123.746 115.423 121.433 115.414 120.192C115.401 118.536 115.35 117.29 115.453 115.682C115.546 114.253 115.465 112.781 115.414 111.343C115.354 109.632 115.231 108.373 115.717 108.433C116.72 108.561 119.446 108.39 120.432 108.463C121.063 108.51 121.887 108.45 122.518 108.493C124.349 108.143 128.607 108.68 128.082 108.433C128.381 108.45 129.507 108.463 129.806 108.493C130.305 108.548 130.757 108.39 131.256 108.463C131.879 108.527 132.029 108.616 132.647 108.706C132.865 108.731 133.279 108.898 133.492 108.949C133.599 108.97 133.961 109.111 134.068 109.133C135.169 109.359 135.77 109.598 136.607 110.297C137.481 110.703 139.103 112.917 139.478 113.634C140.263 115.136 139.913 114.551 140.144 115.473C140.285 115.934 140.408 116.335 140.417 116.821C140.327 117.312 140.383 117.619 140.327 118.046H140.323Z" fill="white"/>
<path d="M185.784 149.145C185.784 146.713 187.866 144.742 190.43 144.742H202.59C205.478 144.742 207.821 146.961 207.821 149.7V161.378C207.821 163.72 205.816 165.623 203.341 165.623H190.106C187.716 165.623 185.779 163.789 185.779 161.527V149.15L185.784 149.145Z" fill="url(#paint0_radial_1984_973)"/>
<path d="M207.975 63.3513V69.2351H207.928V125.444C207.928 126.635 206.976 127.599 205.803 127.599H187.384C186.206 127.599 185.259 126.635 185.259 125.444V69.2351H70.8526V186.731H206.319C207.151 186.731 207.834 187.413 207.834 188.258C207.834 193.702 205.654 198.63 202.134 202.197C198.614 205.764 193.745 207.97 188.374 207.97H64.0516C55.1854 207.97 47.9961 200.691 47.9961 191.701V188.258C47.9961 187.989 48.0644 187.737 48.1838 187.52V63.0655C48.1838 54.7412 54.8441 47.9956 63.0617 47.9956H70.8526V48.2857H193.097C201.315 48.2857 207.975 55.0313 207.975 63.3556V63.3513Z" fill="white"/>
</g>
<defs>
<radialGradient id="paint0_radial_1984_973" cx="0" cy="0" r="1" gradientUnits="userSpaceOnUse" gradientTransform="translate(187.113 162.172) scale(178.875 162.614)">
<stop stop-color="#CBFC01"/>
<stop offset="0.5" stop-color="#7E7E7E"/>
<stop offset="1"/>
</radialGradient>
<clipPath id="clip0_1984_973">
<rect width="256" height="256" fill="white"/>
</clipPath>
</defs>
</svg>
