<svg width="256" height="256" viewBox="0 0 256 256" fill="none" xmlns="http://www.w3.org/2000/svg">
<path d="M216.035 216.035C239.383 192.685 252.5 161.018 252.5 127.998C252.499 94.9788 239.381 63.3121 216.033 39.9644C192.684 16.6166 161.018 3.5 127.998 3.5C94.9788 3.50114 63.3122 16.6188 39.9644 39.9674C16.6166 63.316 3.5 94.9834 3.5 128.002C3.50114 161.021 16.6182 192.686 39.9658 216.035C63.3135 239.382 94.9797 252.499 127.998 252.5C161.018 252.5 192.685 239.383 216.035 216.035C216.035 216.035 216.035 216.035 216.035 216.035ZM216.035 216.035L218.509 218.509L216.035 216.035Z" fill="#E9E9E4" stroke="black" stroke-width="7"/>
<path d="M100.694 134.837L85.208 150.323L100.694 165.809L116.179 150.323L100.694 134.837Z" fill="black"/>
<path d="M156.149 134.845L140.663 150.331L156.149 165.817L171.634 150.331L156.149 134.845Z" fill="black"/>
<path d="M203.176 116.486V81.4982C203.176 73.9982 195.001 68.9357 187.576 71.8232L161.738 81.8732C151.651 78.5357 140.326 76.6232 128.4 76.6232C116.475 76.6232 105.15 78.4982 95.0627 81.8732L69.2251 71.8232C61.8 68.9357 53.625 73.9982 53.625 81.4982V116.486C51.9 120.948 51 125.598 51 130.436C51 152.598 70.4626 169.961 89.8877 177.086C109.313 184.211 111.788 197.674 128.438 197.674C145.088 197.674 147.563 184.211 166.988 177.086C186.413 169.961 205.876 152.561 205.876 130.436C205.876 125.598 204.938 120.948 203.251 116.486H203.176ZM100.688 171.461C89.0252 171.461 79.5751 162.011 79.5751 150.348C79.5751 138.686 89.0252 129.236 100.688 129.236C112.35 129.236 121.8 138.686 121.8 150.348C121.8 162.011 112.35 171.461 100.688 171.461ZM156.15 171.461C144.488 171.461 135.038 162.011 135.038 150.348C135.038 138.686 144.488 129.236 156.15 129.236C167.813 129.236 177.263 138.686 177.263 150.348C177.263 162.011 167.813 171.461 156.15 171.461Z" fill="black"/>
</svg>
