<svg width="256" height="256" viewBox="0 0 256 256" fill="none" xmlns="http://www.w3.org/2000/svg">
<g clip-path="url(#clip0_2451_124)">
<path d="M256 128C256 57.3076 198.692 0 128 0C57.3076 0 0 57.3076 0 128C0 198.692 57.3076 256 128 256C198.692 256 256 198.692 256 128Z" fill="#12FF80"/>
<path d="M205.839 127.987H186.717C181.006 127.987 176.378 132.615 176.378 138.328V166.088C176.378 171.801 171.75 176.429 166.039 176.429H89.9657C84.2547 176.429 79.627 181.059 79.627 186.77V205.897C79.627 211.61 84.2547 216.238 89.9657 216.238H170.443C176.154 216.238 180.715 211.61 180.715 205.897V190.552C180.715 184.839 185.343 180.787 191.054 180.787H205.835C211.547 180.787 216.174 176.159 216.174 170.446V138.208C216.174 132.495 211.551 127.987 205.839 127.987Z" fill="#121312"/>
<path d="M79.6226 89.9892C79.6226 84.2767 84.2504 79.6483 89.9614 79.6483H165.989C171.7 79.6483 176.328 75.0191 176.328 69.307V50.1807C176.328 44.4683 171.7 39.8396 165.989 39.8396H85.5545C79.8435 39.8396 75.2158 44.4683 75.2158 50.1807V64.9183C75.2158 70.6306 70.588 75.2597 64.8769 75.2597H50.162C44.4509 75.2597 39.8232 79.8882 39.8232 85.6006V117.873C39.8232 123.586 44.4702 127.983 50.1814 127.983H69.3034C75.0146 127.983 79.6424 123.354 79.6424 117.642L79.6226 89.9892Z" fill="#121312"/>
<path d="M119 107.881H137.368C143.354 107.881 148.21 112.742 148.21 118.725V137.097C148.21 143.084 143.35 147.941 137.368 147.941H119C113.015 147.941 108.159 143.08 108.159 137.097V118.725C108.159 112.738 113.019 107.881 119 107.881Z" fill="#121312"/>
</g>
<defs>
<clipPath id="clip0_2451_124">
<rect width="256" height="256" fill="white"/>
</clipPath>
</defs>
</svg>
