<svg width="256" height="256" viewBox="0 0 256 256" fill="none" xmlns="http://www.w3.org/2000/svg">
<g clip-path="url(#clip0_1956_3176)">
<mask id="mask0_1956_3176" style="mask-type:luminance" maskUnits="userSpaceOnUse" x="0" y="0" width="256" height="256">
<path d="M256 0H0V256H256V0Z" fill="white"/>
</mask>
<g mask="url(#mask0_1956_3176)">
<path d="M128 256C198.692 256 256 198.692 256 128C256 57.3077 198.692 0 128 0C57.3077 0 0 57.3077 0 128C0 198.692 57.3077 256 128 256Z" fill="black"/>
<path d="M103.808 159.513L104.051 159.117C104.051 159.206 103.923 159.334 103.808 159.513Z" fill="#FF284C"/>
<path d="M152.32 159.744C152.282 159.667 152.231 159.59 152.192 159.526L152.32 159.744Z" fill="#FF284C"/>
<path d="M152.474 159.936C152.474 159.936 152.41 159.821 152.358 159.77L152.474 159.936Z" fill="#FF284C"/>
<path d="M128 100.365C119.577 100.365 115.597 91.9167 115.597 91.9167C117.056 92.5951 118.643 92.9535 120.256 92.9791C122.291 92.8127 123.366 89.3311 128 89.3311C132.633 89.3311 133.696 92.8127 135.731 92.9791C137.344 92.9663 138.931 92.5951 140.39 91.9167C140.39 91.9167 136.422 100.365 128 100.365Z" fill="#FF284C"/>
<path d="M184.883 138.688L186.099 130.624C186.24 129.651 186.688 128.742 187.392 128.051L193.664 121.894C193.664 121.894 196.096 119.654 194.726 114.765L180.134 127.206C179.52 127.731 179.136 128.473 179.046 129.28L177.241 146.547L182.656 142.464C183.846 141.555 184.627 140.211 184.844 138.726" fill="#FF284C"/>
<path d="M208.09 168.601L193.869 145.037C193.869 145.037 191.437 148.851 191.437 149.901C191.437 150.745 189.594 166.477 189.581 172.365C189.581 174.272 188.685 176.077 187.149 177.229L186.317 177.843C184.397 179.289 183.219 181.517 183.104 183.923L182.554 197.619L205.466 180.71C209.267 177.881 210.381 172.685 208.077 168.55" fill="#FF284C"/>
<path d="M50.5215 180.749L73.4207 197.607L72.8319 183.936C72.7295 181.53 71.5519 179.303 69.6191 177.856L68.7871 177.242C67.2511 176.09 66.3551 174.298 66.3551 172.378C66.3551 166.49 64.4863 150.759 64.4991 149.914C64.4991 148.813 62.0671 145.05 62.0671 145.05L47.8975 168.589C45.5935 172.723 46.7199 177.92 50.5087 180.749" fill="#FF284C"/>
<path d="M76.9276 129.293C76.8508 128.487 76.454 127.744 75.8396 127.219L61.3115 114.778C59.9803 119.642 62.3868 121.907 62.3868 121.907L68.646 128.064C69.35 128.755 69.8107 129.664 69.9515 130.637L71.1676 138.701C71.3724 140.186 72.1531 141.53 73.3435 142.439L78.7068 146.586L76.9276 129.319V129.293Z" fill="#FF284C"/>
<path d="M161.203 164.506L168.103 157.402L171.751 122.24C171.776 121.997 171.597 121.766 171.341 121.754C171.149 121.741 170.983 121.83 170.893 121.997L167.143 130.65C166.311 132.582 165.133 134.349 163.661 135.859L160.883 138.739L155.584 135.616L155.699 135.526C158.029 133.491 160.256 129.446 161.101 127.744C161.203 127.565 161.139 127.334 160.96 127.232C160.883 127.181 160.781 127.168 160.691 127.194C158.259 127.782 153.075 128.218 151.911 128.819C150.746 129.421 142.823 136.218 140.749 138.227C140.595 138.368 140.583 138.598 140.723 138.765C140.8 138.854 140.915 138.893 141.031 138.893C142.989 138.739 147.303 138.355 150.426 137.882L153.152 141.709L147.072 146.675L149.709 151.296C149.709 151.296 145.127 151.437 144.167 151.002C143.207 150.566 131.725 142.285 131.725 142.285V146.675C129.779 148.723 126.541 148.826 124.493 146.88C124.429 146.816 124.352 146.739 124.288 146.675V142.298C124.288 142.298 112.781 150.579 111.834 151.014C110.887 151.45 106.304 151.309 106.304 151.309L108.928 146.688L102.848 141.722L105.421 137.856H105.562C108.736 138.355 114.176 138.726 116.57 138.88C116.775 138.893 116.967 138.752 116.979 138.534C116.979 138.406 116.928 138.278 116.826 138.189C114.291 136.166 105.216 129.395 104.09 128.806C102.963 128.218 97.7539 127.757 95.3091 127.181C95.0915 127.142 94.8995 127.283 94.8611 127.501C94.8483 127.578 94.8611 127.667 94.8995 127.744C95.7443 129.408 97.9715 133.491 100.301 135.526L100.608 135.757L95.1299 138.726L92.3395 135.846C90.8803 134.336 89.7027 132.57 88.8579 130.637L85.1075 121.984C84.9923 121.766 84.7235 121.664 84.5059 121.779C84.3395 121.856 84.2371 122.035 84.2627 122.227L87.6419 154.931C87.8083 156.518 88.4995 158.016 89.6131 159.155L94.7971 164.493C95.4883 165.197 95.8723 166.144 95.8723 167.13V171.853L88.6531 168.448L89.2803 174.003C89.4339 175.462 89.9587 176.87 90.7907 178.086C98.4707 189.043 109.517 197.184 122.253 201.267C126.003 202.445 130.023 202.445 133.76 201.267C146.509 197.158 157.555 188.992 165.235 178.01C166.067 176.794 166.579 175.386 166.746 173.926L167.36 168.371L160.154 171.827V167.104C160.154 166.118 160.538 165.171 161.229 164.467M107.328 179.789C106.995 179.994 106.611 180.122 106.227 180.134C103.962 180.134 102.003 175.667 102.003 175.667V163.686C102.003 163.366 102.08 163.046 102.208 162.765L103.514 160.013C103.719 159.514 104.192 159.181 104.73 159.168C106.215 159.194 107.418 160.41 107.392 161.907L107.341 179.802L107.328 179.789ZM136.128 187.341C136.128 187.341 132.365 194.176 128.026 194.176C123.687 194.176 119.911 187.341 119.911 187.341V169.075C119.911 168.576 120.039 168.09 120.295 167.667L122.727 163.456C123.2 162.662 124.058 162.176 124.979 162.163H130.944C131.866 162.163 132.723 162.65 133.197 163.456L135.706 167.667C135.949 168.102 136.077 168.589 136.077 169.075L136.141 187.341H136.128ZM154.035 175.667C154.035 175.667 152.064 180.134 149.811 180.134C149.415 180.122 149.043 180.006 148.711 179.789V161.946C148.685 160.461 149.888 159.232 151.373 159.206C151.911 159.219 152.384 159.552 152.589 160.051L153.907 162.803C154.035 163.098 154.099 163.405 154.099 163.725L154.048 175.667H154.035Z" fill="#FF284C"/>
<path d="M136.282 74.6112C136.256 74.5216 136.231 74.432 136.192 74.3424L135.86 73.1264L128 43.52L120.909 70.1696L120.013 73.5744L119.796 74.3936C119.693 74.6368 119.642 74.9056 119.629 75.1744C119.591 75.6992 119.732 76.224 120.026 76.672C120.167 76.9024 120.359 77.0944 120.576 77.2608L122.164 78.4768L128 70.8864L133.837 78.4768L135.424 77.2608C135.527 77.184 135.629 77.0944 135.719 76.992C135.808 76.8896 135.898 76.7872 135.962 76.672C136.256 76.2368 136.397 75.712 136.359 75.1744C136.359 74.9952 136.32 74.8288 136.269 74.6624" fill="#FF284C"/>
<path d="M128 100.365C136.422 100.365 140.39 91.9167 140.39 91.9167C138.931 92.5951 137.344 92.9535 135.731 92.9791C133.696 92.8127 132.621 89.3311 128 89.3311C123.379 89.3311 122.291 92.8127 120.269 92.9791C118.656 92.9663 117.069 92.5951 115.597 91.9167C115.597 91.9167 119.577 100.365 128 100.365Z" fill="#FF284C"/>
<path d="M178.765 70.2466L175.693 82.5858C175.335 83.9938 174.464 85.2098 173.261 86.0162L137.165 110.887V121.562L134.733 123.239L131.085 120.32C130.739 120.039 130.317 119.885 129.869 119.898H126.067C125.619 119.898 125.197 120.051 124.851 120.32L121.203 123.239L118.771 121.562V110.887L82.6754 86.0162C81.4722 85.2098 80.6018 83.9938 80.2434 82.5858L77.1714 70.2466H52.749L60.045 83.1874C62.3874 87.3346 65.7282 90.8162 69.773 93.325L109.888 117.991V123.674L122.637 134.042C123.328 134.592 124.186 134.899 125.069 134.887H130.842C131.725 134.887 132.583 134.592 133.274 134.042L146.023 123.674V117.991L186.138 93.325C190.183 90.8162 193.523 87.3346 195.866 83.1874L203.162 70.2466H178.791H178.765Z" fill="#FF284C"/>
</g>
</g>
<defs>
<clipPath id="clip0_1956_3176">
<rect width="256" height="256" fill="white"/>
</clipPath>
</defs>
</svg>
