<svg width="256" height="256" viewBox="0 0 256 256" fill="none" xmlns="http://www.w3.org/2000/svg">
<g clip-path="url(#clip0_1740_212)">
<path d="M256 128C256 57.3076 198.692 0 128 0C57.3076 0 0 57.3076 0 128C0 198.692 57.3076 256 128 256C198.692 256 256 198.692 256 128Z" fill="#F69625"/>
<path d="M181.014 163.972C185.513 138.456 169.002 126.545 133.531 116.601C108.272 109.147 104.184 102.426 105.985 92.2141C107.786 82.0016 117.555 76.9738 134.713 79.9991C140.974 80.2615 147.037 82.4695 151.766 86.2083C156.494 89.9479 159.561 94.9604 160.394 100.307C160.65 101.439 161.302 102.496 162.261 103.336C163.22 104.176 164.442 104.758 165.759 105.003L179.485 107.424C180.276 107.579 181.087 107.598 181.868 107.477C182.65 107.357 183.386 107.102 184.031 106.725C184.676 106.347 185.217 105.857 185.622 105.284C186.027 104.711 186.287 104.068 186.387 103.391L186.516 102.664C186.247 94.4727 182.828 86.4343 176.787 79.7975C170.745 73.1607 162.422 68.2973 153.111 65.9639L156.189 48.507C156.702 45.5976 154.513 42.9621 150.351 41.4784L137.447 39.203C134.015 38.5979 131.059 40.3259 129.559 43.8115L126.604 60.5698C115.509 58.9841 104.359 61.016 95.3856 66.2583C86.4122 71.4999 80.2746 79.5664 78.201 88.8445C73.9635 112.877 89.4509 125.388 124.945 135.396C148.326 143.269 155.341 149.035 153.289 160.673C151.237 172.311 137.775 178.217 121.44 175.337C99.0995 171.398 92.7565 162.03 92.1114 150.636C92.064 149.39 91.5181 148.171 90.5651 147.183C89.6115 146.196 88.3072 145.499 86.8743 145.212L72.256 142.635C71.465 142.478 70.6541 142.461 69.8727 142.58C69.0919 142.701 68.3552 142.957 67.7101 143.334C67.0643 143.711 66.5242 144.202 66.1191 144.775C65.7139 145.348 65.4528 145.993 65.353 146.669L65.225 147.395C65.1578 157.086 69.0567 166.685 76.2496 174.528C83.4419 182.371 93.4733 187.964 104.606 190.338L101.528 207.795C101.015 210.704 103.204 213.341 107.366 214.824L120.268 217.099C123.7 217.705 126.659 215.976 128.158 212.49L131.236 195.034C142.89 196.21 154.401 193.696 163.578 187.969C172.756 182.242 178.962 173.701 181.014 163.972Z" fill="white"/>
</g>
<defs>
<clipPath id="clip0_1740_212">
<rect width="256" height="256" fill="white"/>
</clipPath>
</defs>
</svg>
