<svg width="256" height="256" viewBox="0 0 256 256" fill="none" xmlns="http://www.w3.org/2000/svg">
<g clip-path="url(#clip0_1851_2396)">
<path d="M128 256C198.692 256 256 198.692 256 128C256 57.3076 198.692 0 128 0C57.3076 0 0 57.3076 0 128C0 198.692 57.3076 256 128 256Z" fill="#FFE81C"/>
<path fill-rule="evenodd" clip-rule="evenodd" d="M140.21 60.3275L152.632 82.4352C155.657 87.9899 155.657 97.0287 152.632 102.365L110.937 175.115C107.805 180.669 100.028 185.134 93.7629 185.134H91.4943H78.3159H59.0893C51.528 185.134 48.3953 179.798 52.1757 173.154L121.307 50.8526C125.088 44.2093 131.137 44.2093 134.917 50.8526L140.21 60.3275ZM166.668 131.55C170.448 124.907 176.497 124.907 180.278 131.55L203.826 173.261C207.606 179.796 204.474 185.241 196.913 185.241H149.601C142.147 185.241 139.015 179.796 142.796 173.261L166.668 131.55Z" fill="black"/>
</g>
<defs>
<clipPath id="clip0_1851_2396">
<rect width="256" height="256" fill="white"/>
</clipPath>
</defs>
</svg>
