<svg width="256" height="256" viewBox="0 0 256 256" fill="none" xmlns="http://www.w3.org/2000/svg">
<g clip-path="url(#clip0_2537_901)">
<path d="M128 256C198.693 256 256 198.693 256 128C256 57.3076 198.693 0 128 0C57.3076 0 0 57.3076 0 128C0 198.693 57.3076 256 128 256Z" fill="#6E97FF"/>
<path d="M152.747 158.232C152.747 154.068 153.566 150.842 155.205 148.555C156.843 146.268 159.164 145.125 162.168 145.125C164.387 145.125 166.179 145.739 167.544 146.968C168.909 148.197 169.797 149.938 170.206 152.19C170.548 149.528 171.401 147.48 172.766 146.046C174.132 144.579 176.043 143.845 178.501 143.845C181.641 143.845 184.116 145.039 185.925 147.429C187.7 149.818 188.587 153.197 188.587 157.566V171.851H152.747V158.232ZM167.493 164.171V158.027C167.493 156.389 167.1 155.109 166.315 154.187C165.53 153.266 164.472 152.805 163.141 152.805C161.809 152.805 160.751 153.266 159.966 154.187C159.181 155.109 158.789 156.389 158.789 158.027V164.171H167.493ZM182.494 164.171V157.515C182.494 155.672 182.102 154.255 181.317 153.266C180.532 152.242 179.439 151.73 178.04 151.73C176.572 151.73 175.446 152.242 174.661 153.266C173.841 154.29 173.432 155.706 173.432 157.515V164.171H182.494Z" fill="#1E1A31"/>
<path d="M152.747 143.197V114.832H159.352V125.175H188.587V132.855H159.352V143.197H152.747Z" fill="#1E1A31"/>
<path d="M170.667 114.535C167.014 114.535 163.823 113.836 161.092 112.436C158.327 111.003 156.194 108.972 154.692 106.343C153.19 103.681 152.439 100.558 152.439 96.9737C152.439 94.1748 152.986 91.666 154.078 89.4473C155.17 87.2286 156.706 85.4366 158.686 84.0709C160.666 82.7055 162.953 81.8863 165.547 81.6133V89.2937C163.499 89.7374 161.894 90.6761 160.734 92.1097C159.539 93.5092 158.942 95.267 158.942 97.3833C158.942 100.251 160.017 102.52 162.167 104.193C164.318 105.865 167.151 106.702 170.667 106.702C174.148 106.702 176.981 105.865 179.166 104.193C181.316 102.52 182.391 100.251 182.391 97.3833C182.391 95.267 181.811 93.5092 180.651 92.1097C179.456 90.6761 177.835 89.7374 175.787 89.2937V81.6133C178.381 81.8863 180.668 82.7055 182.647 84.0709C184.627 85.4366 186.163 87.2286 187.255 89.4473C188.348 91.666 188.894 94.1748 188.894 96.9737C188.894 100.558 188.143 103.681 186.641 106.343C185.139 108.972 183.023 111.003 180.292 112.436C177.527 113.836 174.319 114.535 170.667 114.535Z" fill="#1E1A31"/>
<path opacity="0.5" fill-rule="evenodd" clip-rule="evenodd" d="M69.4817 177.944L58.8291 170.344L125.83 77.2509L136.482 84.8506L69.4817 177.944Z" fill="#1E1A31"/>
<path fill-rule="evenodd" clip-rule="evenodd" d="M103.994 121.471H107.57C124.037 121.471 137.386 134.776 137.386 151.189C137.386 167.602 124.037 180.907 107.57 180.907H63.723C60.1054 180.907 57.1729 177.984 57.1729 174.378C57.1729 170.773 60.1054 167.85 63.723 167.85H107.57C116.802 167.85 124.286 160.391 124.286 151.189C124.286 141.988 116.802 134.529 107.57 134.529H90.568H90.5655H86.9892C70.5219 134.529 57.1729 121.224 57.1729 104.811C57.1729 88.3986 70.5219 75.0934 86.9892 75.0934H130.836C134.453 75.0934 137.386 78.0163 137.386 81.6218C137.386 85.2274 134.453 88.1502 130.836 88.1502H86.9892C77.7569 88.1502 70.273 95.6092 70.273 104.811C70.273 114.012 77.7569 121.471 86.9892 121.471H103.991H103.994Z" fill="#1E1A31"/>
</g>
<defs>
<clipPath id="clip0_2537_901">
<rect width="256" height="256" fill="white"/>
</clipPath>
</defs>
</svg>
