<svg width="256" height="256" viewBox="0 0 256 256" fill="none" xmlns="http://www.w3.org/2000/svg">
<g clip-path="url(#clip0_2865_20)">
<path d="M128 256C198.692 256 256 198.692 256 128C256 57.3075 198.692 0 128 0C57.3075 0 0 57.3075 0 128C0 198.692 57.3075 256 128 256Z" fill="#FCEEDD"/>
<path d="M188.146 155.105V70.7854C187.989 63.7261 182.42 58.0786 175.361 58.0786H87.3549C68.3732 58.3924 53.0781 73.9228 53.0781 92.9829C53.0781 99.4147 54.8037 104.906 57.4705 109.769C59.6667 113.769 63.1964 117.534 66.6476 120.436C67.5888 121.22 67.1182 120.907 70.0988 122.789C74.256 125.299 78.9622 126.554 78.9622 126.554V176.989C79.0406 179.342 79.3544 181.695 79.9034 183.813C81.8643 190.872 86.8058 196.363 93.473 199.03C96.2967 200.128 99.434 200.912 102.807 200.912L173.086 201.147C187.127 201.147 198.5 189.774 198.5 175.734C198.5 167.184 194.421 159.733 188.146 155.105Z" fill="#FFEEDA"/>
<path d="M189.794 176.126C189.48 185.146 182.107 192.362 173.087 192.362L124.691 192.206C128.535 187.735 130.888 181.93 130.888 175.655C130.888 165.694 124.926 158.87 124.926 158.87H173.087C182.342 158.87 189.794 166.4 189.794 175.655V176.126Z" fill="#EBC28E"/>
<path d="M71.1189 113.141C65.5499 107.886 61.628 101.062 61.628 92.9043V92.0415C62.0987 78.2367 73.472 67.0987 87.2768 66.628H175.283C177.557 66.7065 179.44 68.3536 179.44 70.7067V145.143C181.479 145.536 182.42 145.771 184.381 146.477C185.872 147.026 188.068 148.281 188.068 148.281V70.7067C187.911 63.6474 182.342 58 175.283 58H87.2768C68.2951 58.3137 53 73.8442 53 92.9043C53 103.964 58.0199 113.455 66.3342 120.122C66.8833 120.593 67.4323 121.142 68.9226 121.142C71.511 121.142 73.3151 119.102 73.2367 116.828C73.1582 114.945 72.3739 114.239 71.1189 113.141Z" fill="#190602"/>
<path d="M173.086 150.163H104.062C99.434 150.163 95.6691 154.007 95.6691 158.635V168.518C95.8259 173.067 99.748 177.067 104.297 177.067H109.396V168.518H104.297V158.792C104.297 158.792 105.552 158.792 107.121 158.792C115.828 158.792 122.259 166.871 122.259 175.577C122.259 183.264 115.279 193.068 103.592 192.284C93.1591 191.578 87.5901 182.323 87.5901 175.577V91.4141C87.5901 87.6492 84.5311 84.5117 80.6877 84.5117H73.7852V93.1398H78.8836V175.577C78.6483 192.362 90.806 200.834 103.513 200.834L173.086 201.069C187.127 201.069 198.5 189.696 198.5 175.655C198.5 161.615 187.127 150.163 173.086 150.163ZM189.793 176.126C189.48 185.146 182.107 192.362 173.086 192.362L124.691 192.206C128.534 187.735 130.888 181.93 130.888 175.655C130.888 165.694 124.926 158.87 124.926 158.87H173.086C182.342 158.87 189.793 166.4 189.793 175.655V176.126Z" fill="#190602"/>
<path d="M155.045 94.6297H102.492V86.0801H155.045C157.163 86.0801 158.81 87.8057 158.81 89.845V90.8647C158.81 92.9825 157.084 94.6297 155.045 94.6297Z" fill="#190602"/>
<path d="M155.045 135.182H102.492V126.632H155.045C157.163 126.632 158.81 128.358 158.81 130.397V131.417C158.81 133.456 157.084 135.182 155.045 135.182Z" fill="#190602"/>
<path d="M164.144 114.945H102.414V106.395H164.144C166.261 106.395 167.909 108.121 167.909 110.16V111.18C167.987 113.219 166.261 114.945 164.144 114.945Z" fill="#190602"/>
</g>
<defs>
<clipPath id="clip0_2865_20">
<rect width="256" height="256" fill="white"/>
</clipPath>
</defs>
</svg>
