<svg width="256" height="256" viewBox="0 0 256 256" fill="none" xmlns="http://www.w3.org/2000/svg">
<g clip-path="url(#clip0_2243_1124)">
<path fill-rule="evenodd" clip-rule="evenodd" d="M128 0C198.697 0 256 57.3026 256 128C256 198.697 198.697 256 128 256C57.3026 256 0 198.697 0 128C0 57.3026 57.3026 0 128 0Z" fill="#5900F7"/>
<path fill-rule="evenodd" clip-rule="evenodd" d="M128 0C198.697 0 256 57.3026 256 128C256 198.697 198.697 256 128 256C57.3026 256 0 198.697 0 128C0 57.3026 57.3026 0 128 0Z" fill="#5900F7"/>
<path fill-rule="evenodd" clip-rule="evenodd" d="M128 0C198.697 0 256 57.3026 256 128C256 198.697 198.697 256 128 256C57.3026 256 0 198.697 0 128C0 57.3026 57.3026 0 128 0Z" fill="#07C166"/>
<path fill-rule="evenodd" clip-rule="evenodd" d="M174.444 46.0589C177.723 46.4389 179.801 49.7641 178.705 52.8776L162.673 98.4365C161.241 102.504 155.741 103.112 153.456 99.455L150.035 93.979L88.1591 132.643L81.7954 122.459C71.6315 106.193 76.5779 84.7676 92.8438 74.6037L125.267 54.3432L121.512 48.3347C119.228 44.6777 122.185 40.0009 126.468 40.4974L174.444 46.0589ZM109.574 151.694C87.2202 164.6 79.561 193.185 92.4674 215.539L155.426 179.19C172.036 169.6 177.727 148.36 168.137 131.75L162.133 121.349L109.574 151.694Z" fill="white"/>
</g>
<defs>
<clipPath id="clip0_2243_1124">
<rect width="256" height="256" fill="white"/>
</clipPath>
</defs>
</svg>
