<svg width="256" height="256" viewBox="0 0 256 256" fill="none" xmlns="http://www.w3.org/2000/svg">
<g clip-path="url(#clip0_2004_1518)">
<mask id="mask0_2004_1518" style="mask-type:luminance" maskUnits="userSpaceOnUse" x="0" y="0" width="256" height="256">
<path d="M256 0H0V256H256V0Z" fill="white"/>
</mask>
<g mask="url(#mask0_2004_1518)">
<path d="M128 256C198.692 256 256 198.692 256 128C256 57.3077 198.692 0 128 0C57.3077 0 0 57.3077 0 128C0 198.692 57.3077 256 128 256Z" fill="url(#paint0_linear_2004_1518)"/>
<path d="M203.904 106.88H188.715C180.352 83.6695 157.867 67.7549 128.214 67.7549H79.4455V106.88H62.5068V120.918H79.4455V135.638H62.5068V149.675H79.4455V188.331H128.214C157.526 188.331 179.84 172.544 188.416 149.675H203.904V135.638H191.83C192.128 133.163 192.299 130.603 192.299 128.043V127.702C192.299 125.398 192.171 123.136 191.958 120.918H203.947V106.88H203.904ZM93.0988 80.2562H128.214C149.974 80.2562 166.144 90.9655 173.611 106.838H93.0988V80.2562ZM128.214 175.702H93.0988V149.632H173.526C166.016 165.248 149.888 175.702 128.214 175.702ZM178.176 128.342C178.176 130.816 178.006 133.248 177.664 135.595H93.0988V120.875H177.707C178.006 123.179 178.176 125.568 178.176 128V128.342Z" fill="white"/>
</g>
</g>
<defs>
<linearGradient id="paint0_linear_2004_1518" x1="128" y1="-36.2667" x2="128" y2="282.88" gradientUnits="userSpaceOnUse">
<stop stop-color="#71BE17"/>
<stop offset="1" stop-color="#8BC34A"/>
</linearGradient>
<clipPath id="clip0_2004_1518">
<rect width="256" height="256" fill="white"/>
</clipPath>
</defs>
</svg>
