<svg width="256" height="256" viewBox="0 0 256 256" fill="none" xmlns="http://www.w3.org/2000/svg">
<g clip-path="url(#clip0_2453_146)">
<path d="M255 128C255 57.8598 198.14 1 128 1C57.8598 1 1 57.8598 1 128C1 198.14 57.8598 255 128 255C198.14 255 255 198.14 255 128Z" fill="#181818"/>
<path fill-rule="evenodd" clip-rule="evenodd" d="M127.936 254C197.56 254 254 197.559 254 127.936C254 58.3128 197.56 1.87183 127.936 1.87183C58.3127 1.87183 1.87207 58.3128 1.87207 127.936C1.87207 197.559 58.3127 254 127.936 254Z" stroke="#474799" stroke-width="2.90012"/>
<path fill-rule="evenodd" clip-rule="evenodd" d="M125.967 242.678L68.8369 185.615L93.0357 161.217L125.967 242.678Z" fill="url(#paint0_linear_2453_146)"/>
<path fill-rule="evenodd" clip-rule="evenodd" d="M88.9003 50.8211C86.7512 52.9707 59.1685 72.6865 65.0358 106.418C67.7292 121.912 84.834 138.616 98.9334 155.582C118.986 179.711 122.785 186.133 126.275 194.922C134.83 216.467 127.299 238.544 126.165 243.01C126.165 243.01 144.227 228.948 147.664 210.046C150.531 194.28 149.866 190.208 148.673 183.057C145.808 165.857 133.461 151.424 118.999 135.516C104.666 119.751 103.376 118.78 92.8333 104.818C86.6679 96.652 83.1039 88.6855 82.9006 78.5529C82.6011 63.621 90.798 48.9225 88.9003 50.8211Z" fill="url(#paint1_linear_2453_146)"/>
<path fill-rule="evenodd" clip-rule="evenodd" d="M102.801 36.3726C102.801 36.3726 103.656 37.5064 105.251 38.0724C107.359 38.8201 110.595 39.0174 113.201 36.4725C115.554 34.1751 115.413 30.845 114.651 28.7732C114.036 27.1024 112.951 26.2232 112.951 26.2232L114.401 24.7231C114.401 24.7231 114.976 25.5927 116.25 26.1729C118.413 27.1572 122.13 27.6542 125.15 24.1726C127.346 21.6412 126.849 18.6031 125.95 16.6738C125.376 15.4407 124.606 14.526 124.6 14.4738C124.583 14.3403 126.25 12.7236 126.25 12.7236L183.973 70.8303L175.898 78.62C175.898 78.62 168.764 69.6869 160.964 69.2879C156.455 69.056 153.846 69.0574 149.179 70.1241C144.988 71.0827 142.753 72.2222 137.695 69.5293C131.335 66.1435 131.466 59.2771 131.633 55.6551C131.766 52.7555 130.4 51.1212 128.433 51.055C126.699 50.9964 124.97 51.6455 124.6 54.4213C123.842 60.1043 124.543 63.9972 128.81 70.7974C132.912 77.3348 148.887 93.0929 154.198 99.2192C159.898 105.793 164.598 109.418 173.597 122.018C179.729 130.601 187.997 142.817 187.997 157.816C187.997 169.149 184.664 176.049 180.363 184.648C176.064 193.247 162.665 206.68 162.898 206.147C163.131 205.613 167.898 190.847 167.031 172.815C165.953 150.38 146.232 132.817 135.3 119.751C126.453 109.18 118.634 101.171 109.701 88.8194C94.3686 67.6212 102.801 36.3726 102.801 36.3726Z" fill="url(#paint2_linear_2453_146)"/>
</g>
<defs>
<linearGradient id="paint0_linear_2453_146" x1="68.8369" y1="201.948" x2="125.967" y2="201.948" gradientUnits="userSpaceOnUse">
<stop offset="0.0965195" stop-color="#73BFB4"/>
<stop offset="0.263228" stop-color="#4F9994"/>
<stop offset="0.746362" stop-color="#40418F"/>
<stop offset="1" stop-color="#403B8F"/>
</linearGradient>
<linearGradient id="paint1_linear_2453_146" x1="64.2186" y1="146.832" x2="149.693" y2="146.832" gradientUnits="userSpaceOnUse">
<stop offset="0.0724702" stop-color="#79C2BA"/>
<stop offset="0.26659" stop-color="#46998F"/>
<stop offset="0.847698" stop-color="#484997"/>
<stop offset="1" stop-color="#353681"/>
</linearGradient>
<linearGradient id="paint2_linear_2453_146" x1="200.103" y1="184.686" x2="107.178" y2="23.7352" gradientUnits="userSpaceOnUse">
<stop stop-color="#79C2BA"/>
<stop offset="0.264171" stop-color="#46998F"/>
<stop offset="0.380193" stop-color="#468C90"/>
<stop offset="0.592518" stop-color="#476A93"/>
<stop offset="0.776839" stop-color="#484997"/>
<stop offset="1" stop-color="#353681"/>
</linearGradient>
<clipPath id="clip0_2453_146">
<rect width="256" height="256" fill="white"/>
</clipPath>
</defs>
</svg>
