<svg width="256" height="256" viewBox="0 0 256 256" fill="none" xmlns="http://www.w3.org/2000/svg">
<g clip-path="url(#clip0_1777_668)">
<path d="M127.98 255.961C198.662 255.961 255.961 198.662 255.961 127.98C255.961 57.2988 198.662 0 127.98 0C57.2988 0 0 57.2988 0 127.98C0 198.662 57.2988 255.961 127.98 255.961Z" fill="#231F20"/>
<path d="M127.98 15.4248C107.623 15.4248 87.6563 20.9058 70.2738 31.3196C36.4484 51.56 15.425 88.5956 15.425 127.98C15.425 190.072 65.9282 240.575 128.02 240.575C190.111 240.575 240.614 190.072 240.614 127.98C240.614 65.8888 190.072 15.4248 127.98 15.4248ZM134.636 154.641H201.19C213.718 154.641 224.25 145.911 227.068 134.244C225.972 151.509 220.491 167.561 211.683 181.341H134.636V154.641ZM121.325 181.341H63.6575C56.2974 181.341 50.3074 175.351 50.3074 167.991C50.3074 160.631 56.2974 154.641 63.6575 154.641H121.325V181.341ZM134.636 74.6975H211.683C220.491 88.4782 225.972 104.53 227.068 121.795C224.25 110.128 213.718 101.398 201.19 101.398H134.636V74.6975ZM121.325 101.398H63.6575C56.2974 101.398 50.3074 95.4077 50.3074 88.0475C50.3074 80.6874 56.2974 74.6975 63.6575 74.6975H121.325V101.398ZM201.151 114.708C208.511 114.708 214.501 120.698 214.501 128.059C214.501 135.419 208.511 141.409 201.151 141.409H134.597V114.708H201.151ZM201.504 61.4257H134.597V28.9706C161.062 30.7323 184.708 42.8688 201.504 61.3866V61.4257ZM77.0859 42.7905C90.5142 34.7648 105.704 30.0276 121.325 29.0098V61.4257H63.6575C59.5468 61.4257 55.6318 62.4045 52.1475 64.0879C59.1553 55.749 67.5333 48.5063 77.0859 42.7905ZM37.0357 88.439C37.2314 102.964 49.0938 114.708 63.6575 114.708H121.325V141.409H63.6575C49.0547 141.409 37.1531 153.232 37.0357 167.796C31.7113 155.62 28.6968 142.192 28.6968 128.059C28.6968 113.925 31.633 100.771 37.0357 88.439ZM52.1475 192.029C55.6318 193.713 59.5468 194.691 63.6575 194.691H121.325V227.107C93.6462 225.267 69.021 212.035 52.1475 192.029ZM134.636 227.107V194.691H201.543C184.748 213.209 161.101 225.346 134.636 227.107Z" fill="white"/>
</g>
<defs>
<clipPath id="clip0_1777_668">
<rect width="256" height="256" fill="white"/>
</clipPath>
</defs>
</svg>
