<svg width="256" height="256" viewBox="0 0 256 256" fill="none" xmlns="http://www.w3.org/2000/svg">
<g clip-path="url(#clip0_2453_160)">
<path d="M256 128C256 57.3075 198.692 0 128 0C57.3075 0 0 57.3075 0 128C0 198.692 57.3075 256 128 256C198.692 256 256 198.692 256 128Z" fill="black"/>
<path d="M127.5 42.5C174.999 42.5 213.5 81.0008 213.5 128.5C213.5 175.999 174.999 214.5 127.5 214.5C80.0008 214.5 41.5 175.999 41.5 128.5C41.5 81.0008 80.0008 42.5 127.5 42.5ZM145.711 87.0263C132.869 87.0263 122.447 97.4481 122.447 110.289C122.447 123.131 132.869 133.553 145.711 133.553C158.552 133.553 168.974 123.131 168.974 110.289C168.974 97.4481 158.552 87.0263 145.711 87.0263Z" fill="#0BF98F" stroke="black"/>
</g>
<defs>
<clipPath id="clip0_2453_160">
<rect width="256" height="256" fill="white"/>
</clipPath>
</defs>
</svg>
