<svg width="256" height="256" viewBox="0 0 256 256" fill="none" xmlns="http://www.w3.org/2000/svg">
<g clip-path="url(#clip0_2087_9250)">
<path d="M256 128C256 57.3076 198.692 0 128 0C57.3076 0 0 57.3076 0 128C0 198.692 57.3076 256 128 256C198.692 256 256 198.692 256 128Z" fill="white"/>
<path d="M80.1536 128.438C80.1536 101.762 101.779 80.1569 128.434 80.1569C155.09 80.1569 176.715 101.782 176.715 128.438C176.715 155.094 155.09 176.719 128.434 176.719C101.779 176.719 80.1536 155.094 80.1536 128.438ZM225 128.438C225 101.782 203.374 80.1569 176.719 80.1569V176.719C203.394 176.719 225 155.094 225 128.438ZM176.719 80.1569H225C225 53.4813 203.374 31.876 176.719 31.876V80.1569C176.719 53.5011 155.094 31.876 128.438 31.876C101.782 31.876 80.1569 53.5011 80.1569 80.1569H176.719ZM80.1569 80.1569V31.876C53.5011 31.876 31.876 53.5011 31.876 80.1569H80.1569ZM176.719 176.719H32.301C32.301 203.394 53.9261 225 80.5819 225V183.094C83.6952 206.751 103.92 225 128.434 225C155.09 225 176.715 203.394 176.715 176.719V225C203.391 225 224.996 203.374 224.996 176.719H176.715H176.719ZM80.1569 80.1569C53.5011 80.1569 31.876 101.782 31.876 128.438C31.876 155.094 53.5011 176.719 80.1569 176.719V80.1569Z" fill="black"/>
</g>
<defs>
<clipPath id="clip0_2087_9250">
<rect width="256" height="256" fill="white"/>
</clipPath>
</defs>
</svg>
