<svg width="256" height="256" viewBox="0 0 256 256" fill="none" xmlns="http://www.w3.org/2000/svg">
<g clip-path="url(#clip0_1944_2478)">
<path d="M256 128C256 57.3075 198.692 0 128 0C57.3075 0 0 57.3075 0 128C0 198.692 57.3075 256 128 256C198.692 256 256 198.692 256 128Z" fill="#6CB184"/>
<path fill-rule="evenodd" clip-rule="evenodd" d="M94.4668 179.133V196.066H102.933H111.4V204.533V213H119.867H128.333V196.066V179.133H136.8H145.267V170.666V162.2H119.867H94.4668V179.133Z" fill="#36885B"/>
<path fill-rule="evenodd" clip-rule="evenodd" d="M77.5349 170.666V179.133H69.0682H60.6016V187.6V196.066H77.5349H94.4682V204.533V213H102.935H111.402V204.533V196.066H102.935H94.4682V179.133V162.2H86.0016H77.5349V170.666ZM145.268 170.666V179.133H153.735H162.202V196.066V213H179.135H196.068V196.066V179.133H187.602H179.135V170.666V162.2H162.202H145.268V170.666Z" fill="#1B5B3B"/>
<path fill-rule="evenodd" clip-rule="evenodd" d="M145.267 136.8V145.267H136.8H128.333V153.733V162.2H145.267H162.2V153.733V145.267H170.667H179.133V136.8V128.333H162.2H145.267V136.8ZM145.267 196.067V213H153.733H162.2V196.067V179.133H153.733H145.267V196.067ZM77.5332 204.533V213H85.9999H94.4665V204.533V196.067H85.9999H77.5332V204.533Z" fill="#EAAF7E"/>
<path fill-rule="evenodd" clip-rule="evenodd" d="M77.5332 119.867V128.333H85.9999H94.4665V119.867V111.4H85.9999H77.5332V119.867ZM111.4 119.867V128.333H119.867H128.333V119.867V111.4H119.867H111.4V119.867Z" fill="#4E1717"/>
<path fill-rule="evenodd" clip-rule="evenodd" d="M77.5349 102.933V111.4H86.0016H94.4682V119.866V128.333H86.0016H77.5349V136.8V145.266H86.0016H94.4682V153.733V162.2H111.402H128.335V153.733V145.266H136.802H145.268V136.8V128.333H153.735H162.202V119.866V111.4H153.735H145.268V102.933V94.4663H111.402H77.5349V102.933ZM111.402 119.866V128.333H119.868H128.335V119.866V111.4H119.868H111.402V119.866ZM128.335 196.066V213H136.802H145.268V196.066V179.133H136.802H128.335V196.066ZM60.6016 204.533V213H69.0682H77.5349V204.533V196.066H69.0682H60.6016V204.533Z" fill="#FFCEA4"/>
<path fill-rule="evenodd" clip-rule="evenodd" d="M94.4665 69.0663V77.5329H85.9999H77.5332V85.9996V94.4663H111.4H145.267V102.933V111.4H153.733H162.2V119.866V128.333H170.667H179.133V102.933V77.5329H170.667H162.2V69.0663V60.5996H128.333H94.4665V69.0663Z" fill="#A36E00"/>
<path fill-rule="evenodd" clip-rule="evenodd" d="M94.467 52.1332V60.5998H86.0003H77.5337V69.0665V77.5332H69.067H60.6003V111.4V145.266H69.067H77.5337V153.733V162.2H69.067H60.6003V170.666V179.133H52.1337H43.667V196.066V213H52.1337H60.6003V196.066V179.133H69.067H77.5337V170.666V162.2H86.0003H94.467V153.733V145.266H86.0003H77.5337V111.4V77.5332H86.0003H94.467V69.0665V60.5998H128.334H162.2V69.0665V77.5332H170.667H179.134V111.4V145.266H170.667H162.2V153.733V162.2H170.667H179.134V170.666V179.133H187.6H196.067V196.066V213H204.534H213V196.066V179.133H204.534H196.067V170.666V162.2H187.6H179.134V153.733V145.266H187.6H196.067V111.4V77.5332H187.6H179.134V69.0665V60.5998H170.667H162.2V52.1332V43.6665H128.334H94.467V52.1332Z" fill="#22222A"/>
</g>
<defs>
<clipPath id="clip0_1944_2478">
<rect width="256" height="256" fill="white"/>
</clipPath>
</defs>
</svg>
