<svg width="256" height="256" viewBox="0 0 256 256" fill="none" xmlns="http://www.w3.org/2000/svg">
<g clip-path="url(#clip0_2453_170)">
<path d="M256 128C256 57.3075 198.692 0 128 0C57.3075 0 0 57.3075 0 128C0 198.692 57.3075 256 128 256C198.692 256 256 198.692 256 128Z" fill="#C44536"/>
<path d="M119.182 170.533C119.383 127.4 119.383 127.4 117.114 127.04C107.605 125.529 101.537 123.257 94.7928 118.682C85.733 112.536 80.1077 104.148 77.8465 93.4158C76.2939 86.0464 76.8368 79.6589 79.8093 70.3219C82.8564 60.7509 82.9469 57.503 80.3142 52.1998L78.306 48.1543L86.3713 45.2539C95.5301 41.9604 95.3748 41.9298 97.7488 47.4931C100.094 52.9879 99.8523 61.249 97.0883 70.0883C94.3124 78.9676 93.7219 83.1581 94.4635 88.6934C95.903 99.4224 102.569 106.354 114.353 109.372C120.719 111.003 136.743 110.986 142.401 109.342C148.106 107.684 153.611 104.488 156.427 101.196C162.716 93.8442 163.851 84.371 159.972 71.605C156.448 60.0101 156.637 50.046 160.484 44.6611C161.634 43.0521 161.634 43.0521 168.064 44.8703C179.761 48.1772 178.929 47.5214 176.554 51.558C173.793 56.2516 173.877 60.0663 176.988 71.154C180.538 83.8111 180.215 91.6366 175.714 102.006C172.577 109.236 165.147 116.918 157.754 120.576C151.964 123.441 142.033 126.718 139.14 126.718C135.776 126.718 135.434 127.148 135.986 130.684C136.262 132.457 136.505 151.853 136.527 173.787L136.565 213.667H127.772H118.981L119.182 170.533ZM78.2121 191.758V183.543H94.0974H109.982V191.758V199.974H94.0974H78.2121V191.758ZM145.643 191.758V183.543H161.528H177.413V191.758V199.974H161.528H145.643V191.758ZM78.2121 165.057V156.842H94.0974H109.982V165.057V173.273H94.0974H78.2121V165.057ZM145.643 165.057V156.842H161.528H177.413V165.057V173.273H161.528H145.643V165.057ZM78.2121 138.357V130.142H94.0974H109.982V138.357V146.572H94.0974H78.2121V138.357ZM145.643 138.357V130.142H161.528H177.413V138.357V146.572H161.528H145.643V138.357ZM134.707 100.531C132.87 96.6713 130.401 90.6484 129.219 87.1463L127.07 80.7795L125.965 85.0925C124.642 90.2576 117.159 106.881 116.182 106.824C115.803 106.802 112.366 105.184 108.543 103.229L101.592 99.675L110.812 81.3776L120.032 63.0803L127.192 63.0637L134.353 63.0469L143.609 81.2555C148.7 91.2705 152.773 99.5495 152.658 99.6545C152.185 100.089 138.698 107.548 138.385 107.548C138.198 107.548 136.543 104.391 134.707 100.531Z" fill="white"/>
</g>
<defs>
<clipPath id="clip0_2453_170">
<rect width="256" height="256" fill="white"/>
</clipPath>
</defs>
</svg>
