<svg width="256" height="256" viewBox="0 0 256 256" fill="none" xmlns="http://www.w3.org/2000/svg">
<circle cx="127" cy="128" r="125" fill="#4A21EF"/>
<g clip-path="url(#clip0_741_46)">
<path d="M117.144 48C112.274 48 107.604 49.9345 104.16 53.3778L50.0729 107.466C48.0243 109.515 47 112.2 47 114.885C47 117.57 48.0243 120.255 50.0729 122.304L85.5182 157.749V94.998C85.5182 90.3152 89.2848 86.5188 93.9676 86.5188C113.752 86.5188 161.912 86.5188 168.48 86.5188L206.998 48.0005L117.144 48Z" fill="white"/>
<path d="M85.5192 169.481H160.002C164.685 169.481 168.481 165.685 168.481 161.002V98.2505L203.927 133.696C205.975 135.745 207 138.43 207 141.115C207 143.8 205.975 146.485 203.927 148.534L149.839 202.622C146.396 206.066 141.726 208 136.856 208L47.001 208L85.5192 169.481Z" fill="white"/>
</g>
<defs>
<clipPath id="clip0_741_46">
<rect width="160" height="160" fill="white" transform="translate(47 48)"/>
</clipPath>
</defs>
</svg>
