<svg width="256" height="256" viewBox="0 0 256 256" fill="none" xmlns="http://www.w3.org/2000/svg">
<g clip-path="url(#clip0_2880_77)">
<path d="M128 256C110.723 256 93.9612 252.613 78.1746 245.939C62.9298 239.491 49.2474 230.261 37.4887 218.511C25.7391 206.762 16.5091 193.07 10.0608 177.825C3.38672 162.039 0 145.277 0 128C0 110.723 3.38672 93.9612 10.0608 78.1746C16.5091 62.9298 25.7391 49.2474 37.4887 37.4887C49.2384 25.7391 62.9298 16.5091 78.1746 10.0608C93.9612 3.38672 110.723 0 128 0C145.277 0 162.039 3.38672 177.825 10.0608C193.07 16.5091 206.753 25.7391 218.511 37.4887C230.261 49.2384 239.491 62.9298 245.939 78.1746C252.613 93.9612 256 110.723 256 128C256 145.277 252.613 162.039 245.939 177.825C239.491 193.07 230.261 206.753 218.511 218.511C206.762 230.261 193.07 239.491 177.825 245.939C162.039 252.613 145.277 256 128 256Z" fill="black"/>
<path d="M128.001 249.218C194.947 249.218 249.218 194.947 249.218 128C249.218 61.0534 194.947 6.78247 128.001 6.78247C61.0541 6.78247 6.7832 61.0534 6.7832 128C6.7832 194.947 61.0541 249.218 128.001 249.218Z" fill="black"/>
<path d="M191.85 128C191.85 115.013 187.949 102.929 181.266 92.8324L201.089 73.0088L183.262 55.1811L163.492 74.9505C153.341 68.1319 141.131 64.1491 128.008 64.1491C114.886 64.1491 102.938 68.0506 92.8407 74.7338L73.0081 54.9102L55.1804 72.7379L74.9498 92.5073C68.1312 102.658 64.1484 114.869 64.1484 127.991C64.1484 141.113 68.0499 153.062 74.733 163.159L54.9004 182.982L72.7281 200.81L92.4975 181.041C102.649 187.859 114.859 191.842 127.981 191.842C141.104 191.842 153.052 187.941 163.149 181.257L182.982 201.09L200.809 183.262L181.04 163.493C187.859 153.342 191.841 141.132 191.841 128.009L191.85 128ZM89.3727 128C89.3727 106.695 106.704 89.3644 128.008 89.3644C149.313 89.3644 166.644 106.695 166.644 128C166.644 149.305 149.313 166.636 128.008 166.636C106.704 166.636 89.3727 149.305 89.3727 128Z" fill="white"/>
<path d="M129.382 123.511C119.736 120.549 119.736 118.905 119.736 117.587C119.736 115.754 122.509 113.207 127.729 113.207C130.818 113.207 136.002 113.974 136.002 119.131H145.394C145.394 109.965 138.295 103.814 127.729 103.814C116.44 103.814 110.344 110.904 110.344 117.578C110.344 126.69 118.345 129.933 126.573 132.461C136.218 135.424 136.282 137.085 136.282 138.404C136.282 140.237 133.509 142.784 128.289 142.784C125.2 142.784 120.016 142.016 120.016 136.86H110.624C110.624 146.026 117.722 152.177 128.289 152.177C139.578 152.177 145.674 145.087 145.674 138.404C145.674 129.282 137.618 126.031 129.391 123.502L129.382 123.511Z" fill="white"/>
</g>
<defs>
<clipPath id="clip0_2880_77">
<rect width="256" height="256" fill="white"/>
</clipPath>
</defs>
</svg>
