<svg width="256" height="256" viewBox="0 0 256 256" fill="none" xmlns="http://www.w3.org/2000/svg">
<g clip-path="url(#clip0_2880_82)">
<path d="M128 256C110.723 256 93.9612 252.613 78.1746 245.939C62.9298 239.491 49.2474 230.261 37.4887 218.511C25.7391 206.762 16.5091 193.07 10.0608 177.825C3.38672 162.039 0 145.277 0 128C0 110.723 3.38672 93.9612 10.0608 78.1746C16.5091 62.9298 25.7391 49.2474 37.4887 37.4887C49.2474 25.7391 62.9298 16.5091 78.1746 10.0608C93.9612 3.38672 110.723 0 128 0C145.277 0 162.039 3.38672 177.825 10.0608C193.07 16.5091 206.753 25.7391 218.511 37.4887C230.261 49.2384 239.491 62.9298 245.939 78.1746C252.613 93.9612 256 110.723 256 128C256 145.277 252.613 162.039 245.939 177.825C239.491 193.07 230.261 206.753 218.511 218.511C206.762 230.261 193.07 239.491 177.825 245.939C162.039 252.622 145.277 256 128 256Z" fill="black"/>
<path d="M128.001 249.218C194.947 249.218 249.218 194.947 249.218 128C249.218 61.0534 194.947 6.78247 128.001 6.78247C61.0541 6.78247 6.7832 61.0534 6.7832 128C6.7832 194.947 61.0541 249.218 128.001 249.218Z" fill="black"/>
<path d="M130.98 79.7822C147.174 81.2272 159.917 94.6386 160.314 111.112L185.159 121.434L172.208 100.319L199.744 72.7829L183.29 56.328L159.7 79.9267L130.989 33.1086V79.7822H130.98Z" fill="white"/>
<path d="M159.89 117.244C157.505 131.586 145.656 142.721 130.98 144.04V161.091L185.656 127.955L159.89 117.244Z" fill="white"/>
<path d="M96.2545 117.244L70.4883 127.946L125.164 161.082V144.031C110.488 142.721 98.6387 131.586 96.2545 117.244Z" fill="white"/>
<path d="M185.042 145.331L130.98 178.096V221.492L153.224 190.144L176.444 213.364L192.899 196.909L166.889 170.899L185.042 145.331Z" fill="white"/>
<path d="M125.164 178.096L71.1033 145.331L89.2561 170.899L63.2461 196.909L79.701 213.364L102.92 190.153L125.164 221.483V178.096Z" fill="white"/>
<path d="M70.9859 121.443L95.8309 111.121C96.2282 94.6476 108.971 81.2362 125.164 79.7912V33.1086L96.454 79.9267L72.8553 56.328L56.4004 72.792L83.9367 100.328L70.9859 121.443Z" fill="white"/>
<path d="M129.211 108.204C121.236 105.756 121.236 104.401 121.236 103.309C121.236 101.791 123.53 99.6961 127.838 99.6961C130.385 99.6961 134.666 100.328 134.666 104.591H142.424C142.424 97.0228 136.562 91.9382 127.838 91.9382C118.509 91.9382 113.479 97.7995 113.479 103.309C113.479 110.841 120.089 113.514 126.881 115.609C134.856 118.057 134.901 119.429 134.901 120.522C134.901 122.039 132.607 124.135 128.299 124.135C125.743 124.135 121.471 123.502 121.471 119.24H113.713C113.713 126.808 119.575 131.893 128.299 131.893C137.628 131.893 142.659 126.031 142.659 120.522C142.668 112.981 136.012 110.29 129.211 108.204Z" fill="white"/>
</g>
<defs>
<clipPath id="clip0_2880_82">
<rect width="256" height="256" fill="white"/>
</clipPath>
</defs>
</svg>
