<svg width="256" height="256" viewBox="0 0 256 256" fill="none" xmlns="http://www.w3.org/2000/svg">
<path d="M128 256C198.692 256 256 198.692 256 128C256 57.3076 198.692 0 128 0C57.3076 0 0 57.3076 0 128C0 198.692 57.3076 256 128 256Z" fill="#C5E5C2"/>
<path d="M195.709 49.3385C191.452 45.9664 190.404 45.5385 190.404 45.5385L189.314 28.4228C187.406 24.8996 185.087 17.2815 174.345 15.6045L172.059 15.2852L166.905 22.7006C165.39 24.8842 164.131 27.0913 163.057 29.226C161.358 28.5123 152.982 26.7123 151.162 25.9742C125.551 15.5719 94.0624 22.8996 66.5435 45.5494C65.0039 45.7421 63.4165 45.9836 61.7413 46.2884C57.0865 47.1224 53.5633 50.964 53.1318 55.673L52.9247 57.9398L46.6869 65.6873C30.1573 86.2747 20.7464 110.112 20.7464 131.638C20.7464 148.237 23.5677 164.144 28.9552 178.231L39.3764 198.601C49.7253 213.938 60.7074 224.124 73.7093 230.4L85.6221 235.753L98.3273 237.456C102.536 237.985 106.929 238.266 111.65 238.298C111.787 238.33 111.923 238.362 112.059 238.386C114.264 238.851 116.58 238.812 118.769 238.274C122.632 238.146 126.545 237.808 130.432 237.27L131.459 237.158C137.222 236.54 145.062 235.705 151.972 232.278C173.784 225.135 193.849 212.02 208.527 195.31C225.136 176.4 233.914 154.377 233.914 131.622C233.914 94.2202 222.098 68.6569 195.709 49.3222V49.3385Z" fill="#F3F3F3"/>
<path d="M27.3739 129.72C27.3739 184.886 58.7932 229.608 113.96 229.608C169.126 229.608 227.15 184.886 227.15 129.72C227.15 74.5541 202.152 52.1105 147.212 29.8316C96.0948 9.09132 27.3739 74.5541 27.3739 129.72Z" fill="#C5E5C2"/>
<path d="M171.731 94.5287C171.731 100.862 182.488 98.9076 182.488 88.8283V80.5391L171.731 83.6416V94.5287Z" fill="#15102A"/>
<path d="M205.411 124.69C205.854 123.108 206.288 121.527 206.827 119.615C208.617 118.729 210.676 119.45 212.84 119.511C213.83 121.674 213.187 123.803 213.5 125.715C210.415 127.852 207.687 127.384 205.524 124.56L205.419 124.69H205.411Z" fill="white"/>
<path d="M203.083 127.131C200.094 127.652 199.538 125.601 195.002 126.392C186.626 126.097 177.147 125.757 166.633 125.384C166.633 123.169 171.004 112.038 171.004 109.501C184.002 109.631 193.586 117.077 207.428 117.208C207.428 119.354 204.717 126.887 204.717 128.685L203.075 127.14L203.083 127.131Z" fill="white"/>
<path d="M178.516 93.3732C177.404 91.688 176.492 89.8807 175.501 88.125C173.911 85.3272 171.878 82.9637 169.106 81.3916C168.22 81.5824 161.668 78.3677 158.714 76.8815C166.082 74.3443 171.817 69.6352 176.631 64.1084C191.871 46.6354 183.374 27.9023 183.547 27.0854C181.731 23.8092 180.246 20.2552 175.823 19.5605C172.182 24.7915 170.184 30.6647 167.951 36.4167C163.988 46.6444 159.696 56.7147 154.309 66.2721C153.301 68.0622 152.502 70.2602 150.234 70.964C145.394 66.2893 140.676 61.6842 135.88 57.1579C134.524 55.8716 132.899 54.8812 131.466 53.6736C123.229 46.696 114.235 41.1611 103.54 38.8237C103.157 39.1629 102.784 39.5103 102.375 39.8666C102.123 39.2669 101.906 38.7541 101.68 38.224C100.55 37.9291 99.4639 37.5293 98.3432 37.3638C94.7458 36.8165 91.1575 36.7215 87.6297 37.8857C86.0224 38.4239 84.728 39.1973 84.7795 41.4569C85.4842 42.1262 86.2223 43.0299 87.1431 43.6549C90.8535 46.1578 94.6074 48.6163 98.3866 51.0143C108.162 57.2013 117.832 63.5349 126.435 71.3384C128.659 73.3538 132.16 77.1158 131.883 80.7222C130.901 80.1659 105.364 63.0926 102.054 61.3288C95.6757 57.9223 88.9766 55.3678 82.0342 53.282C74.3094 50.9627 66.742 51.3272 58.9213 52.7266C58.4265 53.9513 58.0177 54.9771 57.4795 56.3493C58.9828 57.2619 60.251 58.1918 61.6503 58.8431C65.3164 60.5373 92.1136 72.0938 100.481 78.6544C104 81.4087 107.241 84.5195 110.517 87.5606C111.142 88.1422 111.369 89.1589 111.976 90.3845C105.538 92.0263 99.586 93.6427 93.5816 95.033C88.9594 96.1013 84.2938 96.9877 79.6191 97.7783C72.5374 98.9777 65.4386 100.089 58.3225 101.106C56.176 101.411 54.082 101.653 52.1526 102.836C52.1526 104.608 59.104 123.133 82.7551 117.798C91.8965 115.739 99.5163 110.186 106.859 104.486C108.075 103.548 109.405 102.749 110.682 101.889C110.977 101.958 111.273 102.028 111.577 102.097C111.099 104.122 106.676 133.047 97.6828 154.648C95.0325 161.017 79.6444 183.556 76.465 185.024C71.4167 187.353 66.0554 189.039 60.7548 190.759C58.1742 191.593 55.437 192.027 52.7442 192.419C48.8076 192.983 48.8076 192.992 44.8629 193.461C63.5354 221.092 84.519 233.378 128.885 228.556C134.463 227.948 142.483 227.278 147.87 224.22C151.555 209.345 156.36 191.48 157.376 185.581C157.68 183.8 160.209 144.812 160.339 142.97C161.938 129.511 167.125 130.197 173.094 131.048C173.572 131.327 190.559 134.985 192.019 135.463C189.821 137.304 191.228 139.72 190.481 141.684C189.673 143.812 189.186 146.063 188.526 148.253C187.909 150.303 187.24 152.337 186.554 154.491C186.91 154.561 187.362 154.656 187.97 154.778C187.292 157.663 184.555 159.592 183.964 162.485C185.867 163.337 186.658 161.981 187.692 161.338C188.839 160.626 190.099 162.407 191.289 161.051C191.724 160.565 192.871 160.773 193.47 160.347C199.439 156.195 204.244 150.903 208.198 144.846C209.996 142.092 210.909 138.981 210.075 135.602C214.072 134.95 210.996 131.987 211.734 130.205C212.03 130.423 212.221 130.554 212.403 130.71C212.508 130.797 212.56 130.944 212.664 131.031C212.725 131.075 212.855 131.031 213.098 131.031C213.168 129.606 213.125 128.251 213.767 126.747C214.558 124.914 213.672 122.429 214.115 120.352C214.88 116.816 214.88 113.419 213.507 109.508C211.639 107.858 180.61 96.5879 178.49 93.3641L178.516 93.3732ZM198.362 125.288C196.424 125.001 173.529 119.448 171.73 118.12C172.521 116.538 173.32 114.948 174.111 113.358C176.309 113.01 179.455 114.6 180.002 114.088C181.636 114.566 196.485 118.093 198.371 118.432V125.279L198.362 125.288ZM205.409 124.679C204.983 125.166 204.54 125.662 203.888 126.391C202.593 126.096 201.134 125.757 199.509 125.383V118.571C201.516 118.701 203.271 118.806 205.409 118.945V124.679ZM205.513 124.558C205.513 124.558 205.443 124.636 205.409 124.67C205.852 123.098 206.286 121.517 206.816 119.614C208.606 118.728 210.666 119.448 212.829 119.51C213.82 121.673 213.177 123.802 213.489 125.713C210.405 127.851 207.677 127.382 205.513 124.558Z" fill="#4C8C3B"/>
<path d="M110.753 96.0303C110.753 97.5165 80.7508 115.385 68.4028 112.185C65.0008 111.303 57.1349 108.13 64.27 106.267C67.6638 105.384 110.762 94.5442 110.762 96.0303H110.753Z" fill="#15102A"/>
<path d="M156.787 72.766C158.046 73.5556 174.29 60.153 179.474 46.0729C180.899 42.1933 179.413 22.3666 177.114 30.1014C174.674 38.2956 155.536 71.9763 156.787 72.766Z" fill="#15102A"/>
<mask id="mask0_2752_133" style="mask-type:alpha" maskUnits="userSpaceOnUse" x="44" y="19" width="171" height="211">
<path d="M178.52 93.3732C177.408 91.688 176.496 89.8807 175.505 88.125C173.915 85.3272 171.882 82.9637 169.11 81.3916C168.224 81.5824 161.672 78.3677 158.718 76.8815C166.086 74.3443 171.821 69.6352 176.635 64.1084C191.875 46.6354 183.377 27.9023 183.551 27.0854C181.735 23.8092 180.249 20.2552 175.827 19.5605C172.186 24.7915 170.188 30.6647 167.955 36.4167C163.992 46.6444 159.7 56.7147 154.313 66.2721C153.305 68.0622 152.506 70.2602 150.238 70.964C145.398 66.2902 140.68 61.6842 135.884 57.1579C134.528 55.8716 132.903 54.8812 131.47 53.6736C123.233 46.696 114.239 41.1611 103.544 38.8237C103.161 39.1629 102.787 39.5103 102.379 39.8666C102.127 39.2669 101.91 38.7541 101.684 38.224C100.554 37.9291 99.4678 37.5293 98.3471 37.3638C94.7497 36.8165 91.1614 36.7215 87.6336 37.8857C86.0263 38.4239 84.7319 39.1973 84.7834 41.4569C85.4881 42.1262 86.2262 43.0299 87.147 43.6549C90.8574 46.1578 94.6113 48.6163 98.3905 51.0143C108.166 57.2013 117.836 63.5349 126.439 71.3384C128.663 73.3538 132.164 77.1158 131.887 80.7222C130.905 80.1659 105.368 63.0926 102.058 61.3288C95.6796 57.9223 88.9805 55.3678 82.0381 53.282C74.3133 50.9627 66.7459 51.3272 58.9252 52.7266C58.4304 53.9513 58.0216 54.9771 57.4834 56.3493C58.9867 57.2619 60.2549 58.1918 61.6542 58.8431C65.3203 60.5373 92.1175 72.0938 100.485 78.6544C104.004 81.4087 107.245 84.5195 110.52 87.5606C111.146 88.1422 111.373 89.1589 111.98 90.3845C105.542 92.0263 99.5899 93.6427 93.5855 95.033C88.9633 96.1013 84.2977 96.9877 79.623 97.7783C72.5413 98.9777 65.4425 100.089 58.3264 101.106C56.1799 101.411 54.0859 101.653 52.1565 102.836C52.1565 104.608 59.1079 123.133 82.7591 117.798C91.9004 115.739 99.5203 110.186 106.862 104.486C108.079 103.548 109.409 102.749 110.686 101.889C110.981 101.958 111.277 102.028 111.581 102.097C111.103 104.122 106.68 133.047 97.6867 154.648C95.0364 161.017 79.6483 183.556 76.4689 185.024C71.4206 187.353 66.0594 189.039 60.7587 190.759C58.1781 191.593 55.4409 192.027 52.7481 192.419C48.8115 192.983 48.8115 192.992 44.8668 193.461C63.5393 221.092 84.5229 233.378 128.889 228.556C134.467 227.948 142.487 227.279 147.874 224.22C151.558 209.345 156.363 191.48 157.38 185.581C157.684 183.8 160.213 144.812 160.343 142.97C161.942 129.511 167.129 130.197 173.098 131.048C173.576 131.327 190.563 134.985 192.023 135.463C189.825 137.304 191.232 139.72 190.485 141.684C189.677 143.812 189.19 146.063 188.53 148.253C187.913 150.303 187.244 152.337 186.558 154.491C186.914 154.561 187.366 154.656 187.974 154.778C187.296 157.663 184.559 159.592 183.968 162.485C185.871 163.337 186.662 161.981 187.696 161.338C188.843 160.626 190.103 162.407 191.293 161.051C191.727 160.565 192.874 160.773 193.474 160.347C199.443 156.195 204.248 150.903 208.202 144.846C210 142.092 210.913 138.981 210.079 135.602C214.076 134.95 211 131.987 211.738 130.205C212.034 130.423 212.225 130.554 212.407 130.71C212.511 130.797 212.564 130.944 212.668 131.031C212.729 131.075 212.859 131.031 213.102 131.031C213.172 129.606 213.128 128.251 213.771 126.747C214.562 124.914 213.676 122.429 214.119 120.352C214.884 116.816 214.884 113.419 213.511 109.508C211.643 107.858 180.614 96.5879 178.494 93.3641L178.52 93.3732ZM198.366 125.288C196.428 125.001 173.533 119.448 171.734 118.12C172.525 116.538 173.324 114.948 174.115 113.358C176.313 113.01 179.459 114.6 180.006 114.088C181.64 114.566 196.489 118.093 198.375 118.432V125.279L198.366 125.288ZM205.413 124.679C204.987 125.166 204.544 125.662 203.892 126.391C202.597 126.096 201.138 125.757 199.513 125.383V118.571C201.52 118.701 203.275 118.806 205.413 118.945V124.679ZM205.517 124.558C205.517 124.558 205.447 124.636 205.413 124.671C205.856 123.098 206.29 121.517 206.82 119.614C208.61 118.728 210.669 119.448 212.833 119.51C213.824 121.673 213.181 123.802 213.493 125.713C210.409 127.851 207.68 127.382 205.517 124.558Z" fill="#B377EB"/>
</mask>
<g mask="url(#mask0_2752_133)">
<g filter="url(#filter0_f_2752_133)">
<path d="M95.5779 83.7039C121.91 83.7039 143.257 67.3827 143.257 47.2494C143.257 27.1161 121.91 10.7949 95.5779 10.7949C69.2452 10.7949 47.8984 27.1161 47.8984 47.2494C47.8984 67.3827 69.2452 83.7039 95.5779 83.7039Z" fill="#2D5A21"/>
</g>
<path d="M93.8635 88.7356C97.7901 87.1147 102.02 86.3286 105.581 83.7073C106.37 83.3816 107.16 83.0478 107.948 82.7231C110.797 81.7914 114.02 81.9271 116.285 79.3483C119.045 78.1606 122.234 78.1452 124.602 75.8721C125.845 75.5465 127.56 76.2574 127.849 73.8531L128.078 73.8749L128.153 73.6071C128.573 73.4941 128.995 73.3882 129.415 73.2752C132.104 74.1942 133.901 72.7786 135.368 70.5136C137.417 71.3213 138.203 69.1794 139.495 68.2179C140.351 67.9718 141.206 67.7258 142.062 67.4797C143.676 65.8208 146.736 67.1026 147.474 63.6716C149.002 63.6418 149.786 62.0452 150.991 61.3316C152.142 61.5559 152.909 60.9679 153.386 59.764C154.387 59.9955 154.507 58.7391 155.057 58.2028C156.423 57.9775 158.018 58.1349 157.99 55.528C158.976 55.1038 160.039 54.58 158.959 52.7085C158.208 51.4042 157.086 50.9184 156.149 51.8185C154.786 53.1319 153.484 54.5421 152.161 55.9124C149.563 56.9744 147.079 58.286 144.961 60.389C144.749 60.4921 144.542 60.5944 144.332 60.7038C143.302 60.8576 142.345 61.1805 141.675 62.1755L141.404 62.1891L141.283 62.4867C141.07 62.5672 140.864 62.6531 140.65 62.7336C138.587 63.9167 136.524 65.099 134.458 66.2894L134.125 66.3527L133.937 66.6937C132.516 67.0202 131.028 67.1993 130.147 68.795C130.725 68.9713 131.304 69.1468 131.882 69.3232C131.967 68.5914 132.266 68.3472 132.686 68.4639C132.266 68.3472 131.97 68.5987 131.885 69.3304C132.042 69.9338 132.2 70.538 132.359 71.1486C132.202 70.5452 132.044 69.941 131.887 69.3377C131.308 69.1613 130.729 68.9849 130.151 68.8094C129.554 69.0527 128.954 69.3051 128.358 69.5484C126.297 70.1165 124.139 70.4385 122.499 72.1427C123.215 72.0395 123.93 71.9364 124.643 71.8261C125.436 72.0821 125.779 72.4991 125.835 73.0183C125.785 72.4973 125.436 72.0821 124.643 71.8261C123.928 71.9292 123.212 72.0323 122.498 72.1363C121.697 72.4575 120.897 72.7786 120.094 73.1078C117.756 73.6922 115.416 74.2684 113.456 75.8947L113.213 75.8621L113.109 76.1236C112.897 76.2113 112.681 76.2999 112.47 76.3877C109.693 77.6269 106.46 77.6025 104.046 79.8503C103.67 80.0348 103.291 80.2112 102.913 80.3957C99.421 81.8077 95.9312 83.226 92.4352 84.6236C91.6048 84.9537 90.9291 85.5589 91.5171 86.8985C92.0001 88.0011 92.6921 89.2394 93.8635 88.751V88.7356ZM141.807 66.4685C141.178 66.3228 140.836 66.0904 140.667 65.8036C140.841 66.0886 141.183 66.321 141.807 66.4685ZM137.16 67.7882C137.045 67.7466 136.925 67.7068 136.811 67.6724C136.93 67.705 137.045 67.7466 137.16 67.7882ZM119.242 77.3176C119.056 76.7079 118.867 76.0901 118.676 75.4813C118.862 76.0919 119.05 76.7088 119.242 77.3176ZM115.897 78.309C115.897 78.309 115.912 78.3198 115.923 78.3234L115.897 78.309Z" fill="#4C8C3B"/>
<path d="M74.9885 79.2981C78.9151 77.6763 83.1448 76.8912 86.706 74.2698C87.4938 73.9442 88.2853 73.6104 89.0732 73.2856C91.9225 72.354 95.1454 72.4887 97.4103 69.9108C100.17 68.7231 103.358 68.7077 105.727 66.4346C106.97 66.109 108.685 66.82 108.974 64.4157L109.203 64.4374L109.278 64.1696C109.698 64.0566 110.12 63.9507 110.54 63.8377C113.229 64.7567 115.026 63.3411 116.494 61.0761C118.542 61.8838 119.327 59.7419 120.619 58.7804C121.475 58.5343 122.331 58.2883 123.186 58.0423C124.801 56.3833 127.861 57.6651 128.598 54.2341C130.127 54.2043 130.91 52.6077 132.116 51.8941C133.266 52.1175 134.034 51.5305 134.51 50.3265C135.512 50.5581 135.632 49.3016 136.182 48.7653C137.548 48.54 139.143 48.6974 139.115 46.0905C140.101 45.6663 141.164 45.1425 140.083 43.271C139.333 41.9667 138.211 41.4809 137.274 42.381C135.91 43.6944 134.61 45.1046 133.285 46.4749C130.688 47.5369 128.204 48.8476 126.086 50.9515C125.875 51.0546 125.667 51.1569 125.458 51.2663C124.427 51.4201 123.47 51.743 122.8 52.738L122.529 52.7516L122.408 53.0492C122.195 53.1297 121.989 53.2156 121.775 53.2961C119.712 54.4784 117.649 55.6615 115.583 56.8519L115.25 56.9152L115.062 57.2562C113.641 57.5827 112.153 57.7618 111.272 59.3575C111.85 59.5338 112.428 59.7093 113.007 59.8857C113.092 59.1539 113.391 58.9097 113.812 59.0264C113.391 58.9097 113.094 59.1612 113.009 59.893C113.167 60.4963 113.324 61.1005 113.484 61.7111C113.327 61.1078 113.169 60.5035 113.012 59.8993C112.433 59.7238 111.854 59.5474 111.276 59.3719C110.679 59.6153 110.079 59.8676 109.483 60.1109C107.422 60.679 105.264 61.001 103.625 62.7052C104.34 62.6021 105.055 62.4989 105.768 62.3886C106.561 62.6446 106.904 63.0616 106.961 63.5808C106.909 63.0598 106.561 62.6446 105.768 62.3886C105.053 62.4917 104.337 62.5948 103.623 62.6988C102.822 63.02 102.022 63.3411 101.218 63.6703C98.8811 64.2538 96.5402 64.8309 94.58 66.4572L94.3376 66.4238L94.2336 66.6861C94.0219 66.7738 93.8057 66.8625 93.5941 66.9502C90.818 68.1894 87.5852 68.1641 85.171 70.4128C84.7938 70.5964 84.4157 70.7737 84.0385 70.9582C80.546 72.3693 77.0563 73.7885 73.5593 75.1861C72.7299 75.5162 72.0542 76.1214 72.6421 77.461C73.1242 78.5636 73.8162 79.8011 74.9876 79.3135L74.9885 79.2981ZM122.932 57.031C122.302 56.8853 121.961 56.652 121.792 56.3661C121.966 56.6511 122.308 56.8835 122.932 57.031ZM118.285 58.3498C118.171 58.3091 118.05 58.2684 117.936 58.234C118.055 58.2675 118.171 58.3091 118.285 58.3498ZM100.367 67.8801C100.181 67.2704 99.9919 66.6526 99.8011 66.0438C99.9874 66.6544 100.176 67.2713 100.367 67.8801ZM97.0223 68.8715C97.0223 68.8715 97.0368 68.8823 97.0485 68.8859L97.0223 68.8715Z" fill="#4C8C3B"/>
<path d="M53.7567 69.8626C57.6824 68.2407 61.912 67.4556 65.4732 64.8342C66.262 64.5086 67.0526 64.1748 67.8413 63.8501C70.6897 62.9184 73.9135 63.0532 76.1776 60.4752C78.9374 59.2876 82.1259 59.2722 84.4949 56.9991C85.7368 56.6734 87.4528 57.3844 87.7413 54.9801L87.9701 55.0018L88.0452 54.7341C88.4649 54.621 88.8874 54.5152 89.308 54.4021C91.9963 55.3211 93.7936 53.9055 95.2608 51.6396C97.3105 52.4483 98.0956 50.3063 99.3873 49.3448C100.243 49.0988 101.099 48.8527 101.954 48.6067C103.569 46.9478 106.628 48.2295 107.366 44.7986C108.894 44.7687 109.678 43.1722 110.883 42.4585C112.034 42.6819 112.802 42.0949 113.278 40.8909C114.28 41.1225 114.399 39.8661 114.95 39.3297C116.315 39.1044 117.911 39.2618 117.883 36.6549C118.868 36.2307 119.931 35.707 118.851 33.8355C118.101 32.5311 116.979 32.0454 116.041 32.9454C114.678 34.2588 113.377 35.669 112.053 37.0394C109.455 38.1013 106.971 39.412 104.853 41.516C104.642 41.6191 104.435 41.7213 104.225 41.8308C103.195 41.9845 102.238 42.3074 101.568 43.3024L101.296 43.316L101.176 43.6136C100.962 43.6941 100.756 43.78 100.542 43.8605C98.4791 45.0428 96.4159 46.2259 94.3499 47.4163L94.017 47.4796L93.8298 47.8207C92.4088 48.1472 90.9208 48.3263 90.0388 49.9219C90.6177 50.0983 91.1967 50.2738 91.7747 50.4502C91.8597 49.7184 92.1591 49.4742 92.5788 49.5908C92.1591 49.4742 91.8624 49.7256 91.7774 50.4574C91.9348 51.0607 92.0922 51.665 92.2514 52.2755C92.094 51.6713 91.9366 51.068 91.7792 50.4637C91.2003 50.2883 90.6223 50.1119 90.0434 49.9364C89.4464 50.1797 88.8476 50.4321 88.2506 50.6754C86.1891 51.2434 84.0309 51.5655 82.3918 53.2696C83.1073 53.1665 83.8228 53.0634 84.5356 52.953C85.328 53.209 85.6717 53.626 85.7278 54.1452C85.6771 53.6242 85.328 53.209 84.5356 52.953C83.8201 53.0561 83.1055 53.1593 82.39 53.2633C81.5895 53.5844 80.7899 53.9055 79.9866 54.2348C77.6484 54.8182 75.3083 55.3953 73.3482 57.0217L73.1049 56.9882L73.0008 57.2505C72.7901 57.3383 72.573 57.4269 72.3622 57.5146C69.5853 58.7539 66.3525 58.7285 63.9382 60.9772C63.5619 61.1609 63.1829 61.3381 62.8057 61.5227C59.3142 62.9338 55.8236 64.353 52.3275 65.7505C51.4971 66.0807 50.8214 66.6858 51.4094 68.0254C51.8924 69.1281 52.5844 70.3655 53.7558 69.8779L53.7567 69.8626ZM101.699 47.5954C101.071 47.4498 100.729 47.2164 100.561 46.9306C100.733 47.2155 101.075 47.448 101.699 47.5954ZM97.0536 48.9142C96.9378 48.8735 96.8175 48.8328 96.7044 48.7985C96.822 48.8319 96.9378 48.8735 97.0536 48.9142ZM79.1346 58.4445C78.9482 57.8349 78.7601 57.2171 78.5683 56.6083C78.7547 57.2189 78.9437 57.8358 79.1346 58.4445ZM75.7896 59.4359C75.7896 59.4359 75.804 59.4468 75.8158 59.4504L75.7896 59.4359Z" fill="#4C8C3B"/>
</g>
<path d="M191.39 116.251L190.013 125.612L191.732 125.865L193.109 116.504L191.39 116.251Z" fill="#4C8C3B"/>
<path d="M184.665 114.823L183.288 124.184L185.007 124.438L186.385 115.077L184.665 114.823Z" fill="#4C8C3B"/>
<path d="M178.369 112.323L175.606 121.372L177.268 121.88L180.031 112.831L178.369 112.323Z" fill="#4C8C3B"/>
<path d="M205.003 117.059L204.19 126.486L205.921 126.635L206.734 117.208L205.003 117.059Z" fill="#4C8C3B"/>
<path d="M198.198 116.472L197.385 125.899L199.117 126.048L199.93 116.621L198.198 116.472Z" fill="#4C8C3B"/>
<path d="M212.62 119.105L211.807 128.533L213.538 128.682L214.352 119.255L212.62 119.105Z" fill="#4C8C3B"/>
<path d="M135.057 157.473C134.987 157.69 135.23 158.011 135.56 158.35C135.934 158.733 136.568 158.689 136.855 158.246C137.124 157.829 137.645 157.663 138.411 157.742L139.358 156.786C139.271 156.299 139.236 155.822 139.271 155.335C139.271 155.222 139.314 155.109 139.358 155.005L140.088 153.511C140.122 153.441 140.148 153.371 140.165 153.302C140.487 151.781 138.411 149.67 143.858 149.4L144.119 147.784C137.681 145.29 138.054 144.3 136.655 148.28C136.568 148.531 136.281 148.723 136.03 148.914C135.9 149.01 135.804 149.148 135.751 149.304C135.491 150.052 135.221 150.799 134.961 151.547C134.944 151.607 134.926 151.668 134.917 151.738C134.648 153.641 135.664 155.5 135.057 157.473Z" fill="#15102A"/>
<path d="M146.62 160.46C147.211 158.67 147.306 156.794 146.907 155.169C146.715 154.395 145.638 154.274 145.325 155.004C144.17 157.68 144.465 160.851 143.187 163.988L144.5 164.935C146.038 163.718 146.107 162.007 146.62 160.452V160.46Z" fill="#15102A"/>
<path d="M141.426 205.347C142.312 207.598 142.008 209.101 140.488 209.814C140.322 209.892 140.184 210.005 140.097 210.161L139.158 211.829C138.733 212.586 139.593 213.393 140.331 212.95C145.015 210.161 146.605 204.6 147.891 198.771C145.97 197.875 148.325 198.97 146.405 198.084C144.78 200.23 143.155 202.376 141.531 204.523L141.426 205.347Z" fill="#15102A"/>
<path d="M146.351 184.096C148.002 180.091 149.705 175.963 151.408 171.828C151.451 171.723 151.469 171.61 151.469 171.497L151.451 169.907C150.869 170.464 150.296 171.028 149.714 171.584C149.67 171.628 149.627 171.679 149.592 171.741C149.053 172.583 148.515 173.435 147.976 174.278C146.751 177.432 146.082 180.872 143.362 183.288L143.996 184.73L145.638 184.609C145.951 184.583 146.229 184.392 146.351 184.096Z" fill="#15102A"/>
<path d="M86.0162 183.427C88.0758 180.898 90.1264 178.369 92.1852 175.849L92.377 175.311L92.3598 174.025C92.3598 173.356 91.6036 172.956 91.0563 173.338C88.1627 175.363 84.4441 179.656 83.2275 182.984C83.0013 183.609 83.592 184.235 84.2351 184.061L85.573 183.704L86.0081 183.427H86.0162Z" fill="#15102A"/>
<path d="M59.7825 201.186C60.9204 200.699 62.0854 200.273 63.2143 199.761L63.6494 199.292C64.3965 197.528 66.0989 197.207 68.723 198.292L69.8446 197.78C70.7392 194.982 71.6338 192.184 72.5293 189.386L71.139 188.543C70.4262 189.265 69.7053 189.977 68.9844 190.699C68.9319 190.75 68.8623 190.803 68.7926 190.837C68.315 191.098 67.8456 191.359 67.368 191.619C67.2459 191.689 67.1418 191.784 67.0722 191.906C65.8737 193.817 64.1008 195.043 62.0936 195.998C62.0158 196.034 61.9371 196.085 61.8674 196.155C61.616 196.398 61.3726 196.641 61.1203 196.885C59.8602 198.041 58.6093 199.196 57.3492 200.36C57.1846 200.516 57.0887 200.734 57.0806 200.96L57.0625 201.568C57.1493 201.655 57.228 201.733 57.3149 201.82C57.5148 202.02 57.8097 202.072 58.0711 201.959C58.6355 201.699 59.1999 201.446 59.7653 201.203L59.7825 201.186Z" fill="#15102A"/>
<path d="M119.347 163.302C120.416 162.19 121.146 160.739 122.388 159.792L122.667 159.418C123.292 157.715 123.918 156.003 124.544 154.301C124.821 154.283 125.091 154.257 125.36 154.231C125.386 153.492 125.404 152.754 125.43 152.015C125.43 151.815 125.517 151.615 125.655 151.468C125.864 151.242 126.072 151.016 126.281 150.798H126.194C126.221 149.443 126.316 148.079 126.238 146.723C126.221 146.472 125.977 146.237 125.725 146.003C125.508 145.794 125.412 145.482 125.491 145.195L125.638 144.595L124.657 143.569C120.773 144.386 124.413 147.072 121.946 148.244H121.928C121.928 148.505 121.92 148.774 121.893 149.044C121.616 150.182 121.337 151.328 121.059 152.467C121.042 152.528 121.024 152.589 120.999 152.641C120.729 153.179 120.46 153.718 120.19 154.266C120.182 154.283 120.173 154.309 120.164 154.326C119.652 155.595 119.217 156.899 118.592 158.106C117.783 159.661 117.427 161.26 117.575 162.981C117.975 164.145 118.679 164.024 119.365 163.302H119.347Z" fill="#15102A"/>
<path d="M124.536 167.664C123.606 169.253 122.806 170.922 121.946 172.556C121.338 173.928 119.652 176.135 119.374 178.004C119.278 178.638 119.931 179.133 120.521 178.89L120.773 178.786C120.946 178.716 121.06 178.568 121.121 178.395C121.52 177.317 122.485 177.804 123.267 177.786C123.476 177.786 123.675 177.682 123.823 177.525C124.579 176.744 125.334 175.962 126.091 175.18C126.16 175.101 126.221 175.014 126.264 174.919C126.83 173.581 127.333 172.208 127.994 170.913C128.732 169.462 129.028 167.985 128.828 166.378L127.924 165.622C127.498 165.639 127.073 165.639 126.655 165.605C126.395 165.587 126.143 165.682 125.96 165.882C125.447 166.456 124.9 167.003 124.527 167.655L124.536 167.664Z" fill="#15102A"/>
<path d="M128.251 193.124C131.137 189.613 132.935 186.076 134.96 182.201C134.995 182.141 135.029 182.088 135.073 182.037C136.011 180.977 136.95 179.917 137.87 178.847L138.07 178.153C137.766 176.189 137.644 175.372 137.444 174.06C137.401 173.756 137.149 173.521 136.837 173.495C136.654 173.478 136.48 173.469 136.306 173.452C136.003 173.425 135.724 173.608 135.62 173.895C134.82 176.189 134.056 178.491 133.169 180.75C132.509 182.437 131.198 183.861 130.694 185.599L130.189 186.095C129.964 186.172 129.807 186.363 129.755 186.581L128.243 193.115L128.251 193.124Z" fill="#15102A"/>
<path d="M66.6397 202.916C65.1626 205.175 63.8591 207.182 62.1043 209.866C62.0256 209.979 61.9822 210.119 61.965 210.258C61.9388 210.553 61.8953 211.075 61.8519 211.596C61.8519 211.63 61.8519 211.666 61.8519 211.7C61.861 211.969 61.8782 212.247 61.8872 212.517C61.9044 213.047 62.4082 213.438 62.9211 213.299C64.1115 212.969 64.7284 211.865 65.3977 210.84C66.4054 209.311 67.3606 207.729 69.299 207.329C69.5333 207.278 69.7414 207.147 69.8725 206.938C71.2709 204.748 73.8606 203.933 75.355 201.907C75.7629 201.36 75.355 200.579 74.6684 200.569C71.8969 200.552 69.6636 202.081 67.1788 202.55L66.6225 202.916H66.6397Z" fill="#15102A"/>
<path d="M127.906 219.242C127.906 218.356 127.854 218.112 127.446 217.409C127.254 217.088 126.872 216.931 126.516 217.027C126.064 217.139 125.603 217.261 125.213 217.487C123.258 218.634 121.355 219.868 119.425 221.067C119.33 221.128 119.226 221.172 119.121 221.189C117.801 221.449 116.419 221.293 114.986 220.737L113.856 221.423C113.622 223.621 113.387 225.811 113.143 228.009C113.143 228.062 113.143 228.114 113.143 228.175C113.178 228.522 113.205 228.878 113.239 229.243C113.292 229.886 114.021 230.225 114.552 229.861L115.672 229.087C115.759 229.026 115.837 228.948 115.889 228.861C117.723 225.958 120.729 224.569 123.562 222.953C123.596 222.935 123.622 222.909 123.658 222.892C124.943 221.919 126.237 220.936 127.567 219.929C127.776 219.772 127.906 219.512 127.906 219.251V219.242Z" fill="#15102A"/>
<path d="M138.617 190.194C138.626 189.951 138.538 189.716 138.364 189.551L137.913 189.116C137.765 189.125 137.6 189.142 137.426 189.16C137.105 189.186 136.853 189.446 136.818 189.759C136.383 193.904 134.515 197.415 131.465 200.334C131.891 200.916 129.823 201.507 131.465 202.08C134.515 201.046 136.279 198.492 138.164 196.094L138.339 195.616L138.608 190.185L138.617 190.194Z" fill="#15102A"/>
<path d="M94.9747 217.712C97.6422 214.914 100.31 212.117 102.968 209.319C103.498 208.754 104.159 208.259 104.436 207.555C104.645 207.017 104.219 206.443 103.646 206.443H102.36C102.125 206.443 101.891 206.547 101.734 206.73C99.4495 209.302 98.459 210.553 93.0716 212.143L92.4375 212.907C92.2891 216.097 89.5176 217.757 88.093 220.206C87.1631 221.813 86.4331 223.534 85.6426 225.22C85.5385 225.437 85.5639 225.689 85.695 225.88C85.7384 225.95 85.79 226.02 85.8425 226.089C86.0858 226.445 86.6068 226.48 86.8935 226.15C88.6746 224.143 90.4737 222.248 92.3678 220.336C93.2362 219.459 94.1145 218.59 94.9829 217.712H94.9747Z" fill="#15102A"/>
<path d="M92.6187 188.37C93.5395 187.145 94.113 185.911 93.0882 184.355L91.5414 184.599C90.9417 187.632 88.4397 189.039 86.3285 190.786L86.2589 190.855C85.1987 191.941 84.1477 193.027 83.0957 194.105C82.9392 194.261 82.8614 194.47 82.8614 194.687V195.512C82.8614 196.216 83.6692 196.598 84.2164 196.164C85.9197 194.817 87.5008 193.644 89.5342 192.593C89.6563 192.533 89.7604 192.446 89.8382 192.333C90.7599 191.003 91.6545 189.656 92.6278 188.37H92.6187Z" fill="#15102A"/>
<path d="M88.0226 207.469C88.3274 206.912 88.5354 206.218 89.2482 206.244C89.5612 206.252 89.8651 206.139 90.0388 205.879C91.9763 203.073 94.6963 200.787 96.2512 197.625C96.4339 197.251 96.2946 196.799 95.9563 196.573L95.6696 196.382C95.3304 196.156 94.8609 196.208 94.5832 196.512C91.6724 199.666 89.1352 202.803 86.6676 206.331C86.5283 206.531 86.502 206.799 86.6151 207.025C86.6938 207.191 86.7716 207.329 86.8322 207.452C87.0755 207.929 87.7539 207.938 88.0144 207.469H88.0226Z" fill="#15102A"/>
<path d="M106.427 161.227C105.28 161.582 104.168 161.921 102.421 162.46L100.614 165.962C101.309 168.064 102.004 170.176 102.699 172.278C102.76 172.452 102.829 172.617 102.925 172.765C103.021 172.912 103.125 173.087 103.255 173.304C106.236 170.732 108.434 167.734 109.416 164.024L106.418 161.227H106.427Z" fill="#15102A"/>
<path d="M111.221 148.696C112.204 145.645 113.185 142.613 114.167 139.572C114.176 139.546 114.185 139.511 114.202 139.485C114.758 138.243 115.383 137.018 114.749 135.688C114.628 135.436 114.385 135.245 114.106 135.21C113.802 135.166 113.506 135.115 113.211 135.071C112.933 135.141 112.646 135.166 112.359 135.158C112.395 136.983 112.047 138.677 110.882 140.102C110.735 140.284 110.691 140.519 110.735 140.754C111.039 142.248 109.848 143.178 109.118 144.255C108.91 144.559 108.963 144.951 109.171 145.246C109.918 146.306 109.04 147.826 109.761 148.93C110.135 149.503 111.021 149.33 111.23 148.686L111.221 148.696Z" fill="#15102A"/>
<path d="M109.962 213.169C109.371 214.914 106.912 215.549 107.173 217.791L108.277 218.477C112.429 217.078 116.574 215.68 120.736 214.289L121.084 212.925C119.694 211.335 119.128 209.797 119.328 208.311C119.345 208.215 119.337 208.111 119.311 208.015C119.233 207.702 119.155 207.381 119.085 207.077C118.99 206.704 118.66 206.443 118.268 206.443H116.218C115.992 206.443 115.774 206.53 115.619 206.687C113.767 208.572 113.029 211.483 110.396 212.656C110.179 212.752 110.031 212.933 109.954 213.16L109.962 213.169Z" fill="#15102A"/>
<path d="M120.356 188.361C120.034 187.979 120.2 187.336 120.173 186.779C120.13 185.815 118.705 185.728 118.523 186.675C117.54 191.776 112.814 195.817 111.728 200.499L113.144 201.273C113.952 200.473 114.752 199.665 115.551 198.866L115.707 198.658C117.297 195.538 118.896 192.419 120.486 189.299L120.364 188.361H120.356Z" fill="#15102A"/>
<path d="M70.7825 218.815C72.3293 219.702 70.6441 218.737 72.19 219.624C73.1117 218.685 74.0325 217.738 74.9533 216.8C77.2825 214.506 79.6108 212.203 81.9391 209.909C82.2259 209.614 82.5217 209.327 82.8084 209.032C83.0164 208.823 83.2344 208.615 83.4425 208.407C83.599 208.258 83.6858 208.05 83.6948 207.833C83.7202 207.173 83.7464 206.511 82.8084 206.312C77.1695 206.781 72.1646 213.498 70.7825 218.815Z" fill="#15102A"/>
<path d="M84.5391 233.361H84.5302L84.5391 233.37V233.361Z" fill="#15102A"/>
<path d="M108.217 186.936L109.92 184.642L109.859 183.574C109.633 183.296 109.694 183.078 109.833 182.913C110.824 181.671 110.207 179.499 111.98 178.708C112.214 178.603 112.37 178.378 112.431 178.135C112.605 177.422 112.787 176.701 112.961 175.988C113.074 175.545 112.796 175.094 112.353 174.981C111.563 174.781 110.78 174.581 110.024 174.389C109.668 174.294 109.294 174.459 109.103 174.781C108.122 176.431 107.226 177.917 106.34 179.403C106.296 179.473 106.271 179.55 106.253 179.629C105.462 183.131 102.621 185.677 101.561 189.013C101.44 189.395 101.64 189.812 101.995 189.986L102.874 190.42C103.16 190.56 103.49 190.533 103.742 190.342C105.132 189.3 106.853 188.014 108.052 187.119C108.113 187.066 108.173 187.015 108.217 186.954V186.936Z" fill="#15102A"/>
<path d="M182.488 80.2451L153.476 88.7343H110.717L109.414 91.0282H153.476V102.046C153.476 111.995 166.631 107.398 166.631 95.0769V87.6741L182.488 83.0338V80.2451Z" fill="#15102A"/>
<defs>
<filter id="filter0_f_2752_133" x="-30.1016" y="-67.2051" width="251.359" height="228.909" filterUnits="userSpaceOnUse" color-interpolation-filters="sRGB">
<feFlood flood-opacity="0" result="BackgroundImageFix"/>
<feBlend mode="normal" in="SourceGraphic" in2="BackgroundImageFix" result="shape"/>
<feGaussianBlur stdDeviation="39" result="effect1_foregroundBlur_2752_133"/>
</filter>
</defs>
</svg>
