<svg width="256" height="256" viewBox="0 0 256 256" fill="none" xmlns="http://www.w3.org/2000/svg">
<path d="M256 127.998C256 161.946 242.514 194.504 218.509 218.509C194.504 242.514 161.946 256 127.998 256C94.0514 255.999 61.495 242.513 37.491 218.509C13.487 194.505 0.00116778 161.95 0 128.002C-2.00871e-08 94.0551 13.4853 61.4975 37.4895 37.4926C61.4936 13.4876 94.0505 0.00116783 127.998 0C161.946 -2.00871e-08 194.503 13.4853 218.508 37.4895C242.512 61.4935 255.999 94.0505 256 127.998Z" fill="black"/>
<path d="M171.548 163.911C172.287 164.808 173.034 165.714 173.773 166.611C173.756 166.637 173.738 166.663 173.721 166.689C173.069 166.471 172.417 166.245 171.774 166.027C171.54 165.949 171.314 165.827 171.07 165.801C169.532 165.618 168.967 164.469 168.463 163.153C169.471 163.38 170.436 163.598 171.4 163.815C171.453 163.824 171.513 163.868 171.548 163.911Z" fill="white"/>
<path d="M162.154 158.085C160.607 156.326 159.077 154.567 157.478 152.738C160.755 152.312 163.753 152.19 165.865 155.159C166.195 155.621 166.699 155.96 167.125 156.352C168.316 157.449 169.506 158.547 170.688 159.644C170.653 159.714 170.619 159.775 170.584 159.844C167.89 159.322 165.204 158.808 162.51 158.277C162.38 158.251 162.223 158.172 162.136 158.077L162.154 158.085Z" fill="white"/>
<path d="M172.522 188.712C172.669 188.346 172.817 187.98 172.982 187.623C173.33 186.866 174.199 186.778 174.659 187.493C175.52 188.825 176.32 190.192 177.276 191.76C175.885 191.455 174.764 191.22 173.643 190.967C172.791 190.776 172.191 189.557 172.513 188.72L172.522 188.712Z" fill="white"/>
<path d="M160.659 182.373C161.814 184.159 162.927 185.961 164.143 187.903C162.64 188.016 161.354 188.13 160.068 188.182C159.841 188.191 159.52 187.99 159.389 187.79C158.416 186.353 157.477 184.881 156.443 183.297C157.73 182.913 158.868 182.556 160.015 182.251C160.215 182.199 160.58 182.251 160.667 182.382L160.659 182.373Z" fill="white"/>
<path d="M126.294 162.519C126.294 162.162 126.303 161.596 126.512 161.482C127.703 160.838 128.876 159.932 130.344 159.244C130.179 160.15 130.119 161.108 130.032 161.709C129.759 163.706 128.644 164.548 126.686 164.234C126.686 164.234 126.625 164.199 126.451 164.103C126.39 163.581 126.294 163.05 126.294 162.519Z" fill="white"/>
<path d="M157.374 179.534C154.975 178.646 152.324 178.968 149.943 178.002C149.604 177.862 149.239 177.784 148.883 177.671C149.082 177.366 149.273 177.061 149.508 176.687C149.082 175.92 148.613 175.058 148.083 174.091C150.316 173.551 152.489 173.029 154.349 172.576C155.288 173.36 156.035 173.978 156.791 174.605C156.548 174.814 156.313 175.006 156.087 175.197C156.809 176.687 157.504 178.106 158.251 179.647C157.86 179.595 157.599 179.604 157.374 179.526V179.534Z" fill="white"/>
<path d="M133.247 154.404C130.075 155.797 127.26 157.025 124.226 158.357C124.252 160.291 123.366 162.023 123.392 164C123.418 166.099 124.348 168.45 124.374 170.645C121.836 168.842 119.585 167.214 117.291 165.646C117.039 165.472 116.604 165.394 116.274 165.446L112.789 167.24C110.269 168.581 107.757 169.939 105.237 171.289C104.663 171.594 104.099 171.847 103.508 172.021L102.421 172.578C77.0349 168.877 57.4024 147.132 57.0809 120.615C57.0461 117.924 57.2199 115.277 57.5762 112.69C58.6886 112.272 59.9575 111.793 61.6175 111.158C60.4964 108.893 60.0879 107.108 58.9668 106.203C58.932 106.176 58.8885 106.15 58.8364 106.124C54.2998 101.282 53.5611 98.9223 47.912 93.14C47.6773 92.8959 47.4601 92.6349 47.2428 92.3824C47.6947 92.4607 48.0076 92.6783 48.3118 92.9224C54.8734 98.1735 56.3856 100.15 59.8185 103.094C60.0879 102.275 60.3921 101.474 60.6962 100.673L53.7001 93.6624L53.674 93.7146C45.4438 87.3314 45.9652 86.1819 37.735 79.7986C37.4656 79.5896 37.2222 79.3632 36.9702 79.1455C37.4221 79.1629 37.7698 79.3371 38.1 79.5287C55.8294 90.092 49.6328 87.523 67.3622 98.0952C67.7966 98.3562 68.2312 98.6524 68.6049 98.9921C71.3339 101.439 74.0454 103.904 76.7569 106.368C82.8233 111.889 90.7318 119.439 96.8155 124.943C97.2587 125.344 97.8324 125.657 98.4057 125.823C102.047 126.868 108.296 128.548 111.964 129.515L113.797 130.194L115.588 132.232L123.514 139.39L131.588 142.09L140.739 149.396L145.354 150.65L146.736 151.077C148.048 152.749 149.369 154.421 150.759 156.024C152.246 157.73 153.584 159.489 155.522 160.874C159.798 163.922 165.343 166.317 169.601 169.382C170.696 170.175 170.514 171.629 171.609 172.421C180.126 178.569 188.617 184.753 197.116 190.918C197.438 191.153 197.751 191.414 198.073 191.658C198.038 191.71 198.003 191.763 197.96 191.815C190.433 187.574 182.907 183.342 175.163 178.979L155.131 166.369C153.836 165.472 152.498 164.636 151.264 163.931C150.334 163.399 139.427 156.589 138.479 156.084L133.265 154.404H133.247Z" fill="white"/>
<path d="M160.66 172.994C160.373 173.151 161.051 174.065 161.051 174.065C161.051 174.065 160.738 175.354 160.373 175.511C159.999 175.676 161.103 176.207 160.955 176.991C160.521 179.325 162.042 180.806 163.041 182.573C163.997 184.271 165.197 184.994 167.204 185.003C170.272 185.012 173.331 185.395 176.538 185.63C176.06 183.906 175.608 182.277 175.095 180.413C175.104 180.413 175.121 180.431 175.13 180.431C175.13 180.431 165.309 173.934 160.677 172.985L160.66 172.994Z" fill="white"/>
<path d="M144.451 177.165C144.269 176.826 144.66 176.164 144.938 175.093C145.807 176.103 146.441 176.617 146.72 177.279C146.841 177.575 146.242 178.175 145.972 178.637C145.442 178.158 144.764 177.757 144.451 177.165Z" fill="white"/>
<path d="M55.796 106.976C56.4044 107.394 56.6912 108.299 57.3604 109.414C55.9438 110.085 55.0921 110.476 54.249 110.877C54.1361 109.736 53.9188 108.595 54.0144 107.472C54.0405 107.228 55.4571 106.732 55.8047 106.967L55.796 106.976Z" fill="white"/>
<path d="M151.1 127.486C151.1 127.486 145.816 123.271 144.538 121.364C143.825 120.31 142.722 119.709 141.992 118.717C141.818 118.482 141.679 118.046 141.783 117.811C142.418 116.287 143.13 114.789 143.843 113.213C148.683 114.937 153.411 116.618 158.322 118.368C155.88 121.381 151.108 127.495 151.108 127.495L151.1 127.486Z" fill="white"/>
<path d="M171.254 144.171C171.219 144.223 169.603 143.91 167.386 142.516C167.056 142.307 166.552 142.386 166.126 142.324C166.1 142.447 154.959 135.558 154.959 135.558C154.428 133.982 154.15 133.268 153.559 131.352C153.446 130.969 153.49 130.403 153.698 130.081C156.392 125.944 162.528 117.14 162.902 117.096C166.291 116.687 174.835 117.122 174.835 117.122C174.835 117.122 176.842 125.091 177.164 129.192L177.207 129.802C177.511 135.584 176.981 141.175 175.339 146.748C173.913 145.852 172.584 145.007 171.245 144.162L171.254 144.171Z" fill="white"/>
<path d="M185.679 134.618C185.566 135.21 185.592 135.715 185.436 135.776C184.523 136.133 184.367 137.056 183.906 137.727C182.603 139.652 182.629 139.695 180.552 138.746C180.3 138.633 180.013 138.249 180.004 137.979C179.97 136.752 180.065 134.418 180.065 134.418L182.368 133.965L183.498 134.374C183.498 134.374 184.967 134.81 185.679 134.609V134.618Z" fill="white"/>
<path d="M158.573 104.931C158.416 104.365 158.112 103.781 157.721 103.346C155.783 101.23 151.794 97.093 151.794 97.093C151.794 97.093 153.28 90.2048 154.219 87.601C154.775 86.0596 155.348 84.5182 155.974 82.7939C164.196 91.9204 168.055 102.397 167.707 114.667C165.438 113.987 161.276 112.76 161.276 112.76C161.276 112.76 159.173 107.125 158.573 104.913V104.931Z" fill="white"/>
<path d="M73.0547 69.4506C75.045 68.7104 76.2703 68.2488 77.7303 67.7002C78.104 69.7205 78.3908 71.3055 78.6864 72.8904C78.3996 73.0297 78.0955 73.1691 77.7737 73.3171C76.392 72.185 74.9927 71.0355 73.0547 69.4506Z" fill="white"/>
<path d="M86.3695 69.3296C86.0305 69.4863 85.1614 68.868 84.5444 68.6155C84.5183 67.823 85.7436 65.9594 86.3085 65.4805L87.1256 66.6038L87.3775 67.7969L87.2212 68.6068C86.9168 68.8419 86.6302 69.0858 86.3695 69.3296Z" fill="white"/>
<path d="M183.96 130.933C184.221 129.931 184.221 129.113 184.62 128.686C184.864 128.425 185.733 128.747 186.324 128.799C186.194 129.47 186.202 130.236 185.863 130.767C185.689 131.037 184.855 130.88 183.96 130.933Z" fill="white"/>
<path d="M187.036 152.391C186.479 151.677 185.715 151.755 184.976 151.694C183.924 151.598 182.873 151.415 181.83 151.459C179.961 151.546 178.466 150.736 177.076 149.665C176.85 149.491 176.616 149.073 176.676 148.838C177.224 146.73 179.066 141.984 179.301 142.037C182.073 142.716 184.837 143.456 187.653 144.196C187.609 146.347 187.557 148.411 187.548 150.475C187.548 150.841 187.705 151.215 187.783 151.581C187.844 151.868 187.905 152.156 187.966 152.443C187.644 152.426 187.166 152.539 187.036 152.373V152.391Z" fill="white"/>
<path d="M187.331 165.567L181.516 165.167L178.927 164.183L175.363 157.704L166.473 151.399C158.938 145.538 150.899 140.879 143.294 135.21C140.713 133.285 137.549 131.622 134.968 129.689C133.195 128.365 131.987 126.423 130.214 125.108L120.489 118.202C120.533 118.098 115.788 115.346 115.831 115.241L113.789 110.034L97.8585 103.18L96.9546 97.2758L72.9503 84.2307L70.1344 83.3337C69.5088 83.743 69.048 83.5688 68.4832 83.1247C58.0021 74.7559 63.7033 79.1014 53.2047 70.7413C52.9527 70.541 52.7267 70.3146 52.4834 70.1056C52.9179 70.123 53.2308 70.2885 53.5437 70.4627C56.9244 72.3698 59.662 73.1971 63.0254 75.1304L71.2905 79.1798L73.4978 79.9723C74.4106 79.0404 75.3664 78.1522 76.3486 77.2988C73.4805 75.409 70.5083 73.4671 66.58 71.0635C66.2931 70.8894 66.0237 70.6891 65.7456 70.4975C66.1976 70.4627 66.5627 70.5933 66.9103 70.7588C71.2905 72.753 74.6625 74.3379 77.5218 75.7051C79.312 76.6195 80.772 77.3597 82.2235 78.0999C82.4581 77.8474 82.7016 77.5948 82.9362 77.3423C82.4235 76.1144 81.9021 74.8778 81.3196 73.4671C82.2669 72.8226 83.2315 72.2043 84.2138 71.6122C84.2484 71.5947 84.2833 71.5686 84.3179 71.5512C84.7091 71.3161 85.1089 71.0897 85.5086 70.8719C86.2474 71.6383 87.0815 72.8575 87.6118 72.7355L88.8894 72.6311L89.8628 71.081L90.167 69.2174L90.0106 68.6165C97.6758 65.2376 105.923 63.8268 114.058 64.3145C128.354 65.0809 141.13 71.5077 150.221 81.3917L149.917 82.4019C149.899 82.5674 149.847 82.7502 149.769 82.9505C149.743 83.0115 149.725 83.0724 149.699 83.1334L146.023 95.4646C145.866 96.0392 145.78 96.3876 145.78 96.3876C145.78 96.3876 150.125 100.568 152.037 102.875C154.019 105.27 157.478 111.958 157.478 111.958C157.478 111.958 156.4 113.073 155.974 113.709C155.557 114.327 155.114 114.327 154.497 114.101C151.863 113.134 149.213 112.185 146.571 111.236C145.041 110.687 143.511 110.156 141.851 109.572C141.895 109.99 141.869 110.217 141.947 110.399C142.46 111.488 142.008 112.193 141.2 112.951C139.296 114.719 138.61 115.468 136.715 117.349C139.514 119.352 141.286 121.677 143.989 123.689C144.424 124.011 144.919 125.16 144.919 125.16L145.163 127.607L132.413 119.012L134.725 122.896L145.936 130.934C145.988 131.003 146.04 131.064 146.093 131.099C146.518 131.387 146.936 131.674 147.353 131.953L174.103 151.094C178.422 154.281 182.724 157.46 187.018 160.629C187.235 160.534 188.565 162.005 188.991 162.337C198.69 169.869 208.388 177.393 218.096 184.926C218.401 185.161 218.696 185.422 219 185.675C218.948 185.727 218.905 185.788 218.852 185.841C207.354 178.386 198.881 173.117 187.313 165.62L187.331 165.567Z" fill="white"/>
<path d="M196.621 151.676C196.638 151.58 197.255 151.406 197.29 151.476C197.516 151.876 197.655 152.329 197.82 152.773C197.508 152.826 197.186 152.878 196.638 152.974C196.612 152.416 196.552 152.042 196.621 151.676Z" fill="white"/>
<path d="M198.855 158.286C201.062 158.017 200.471 156.972 201.271 156.327C201.905 156.832 202.149 157.825 202.149 157.825C202.149 157.825 201.688 158.957 200.932 159.715C200.272 159.262 199.602 158.8 198.863 158.286H198.855Z" fill="white"/>
<path d="M196.386 163.877C196.152 163.843 196.03 163.851 195.952 163.799C193.51 162.388 191.059 160.986 188.625 159.558C188.391 159.419 188.148 159.21 188.017 158.966C187.287 157.633 186.592 156.284 185.827 154.821C187.835 154.289 189.755 153.784 191.702 153.271C193.284 156.858 194.814 160.316 196.386 163.86V163.877Z" fill="white"/>
<path d="M190.487 144.239C190.487 144.239 189.982 143.456 190.017 143.386C190.374 143.499 191.625 143.717 191.999 143.839C192.451 143.377 192.616 143.16 193.085 142.768C193.294 142.594 193.667 142.428 193.893 142.498C194.676 142.75 195.432 143.099 196.327 143.464C195.597 144.718 194.163 147.174 194.163 147.174L190.487 144.239Z" fill="white"/>
<path d="M133.248 154.401C133.013 156.5 133.491 158.633 133.257 160.697C133.204 161.141 133.804 161.907 133.752 162.36C133.535 164.293 131.831 166.767 131.614 168.7C131.319 171.365 131.171 173.098 130.875 175.789C135.082 175.745 139.08 175.162 143.008 174.125C146.736 173.141 150.369 171.922 153.698 169.736C152.168 168.595 150.621 167.446 149.083 166.296C149.109 166.157 149.126 166.027 149.152 165.887C149.491 165.905 138.419 156.134 138.454 156.082L135.343 152.319L133.239 154.409L133.248 154.401Z" fill="white"/>
<path d="M122.385 172.108C119.039 173.623 115.372 174.529 111.617 175.217C109.47 175.608 107.333 175.87 105.212 176.009L106.012 175.452C106.464 175.252 106.881 174.99 107.298 174.677C109.14 173.318 110.974 171.96 112.817 170.61L115.372 168.79C115.624 168.712 115.98 168.729 116.197 168.833C118.188 169.817 120.186 170.95 122.394 172.09V172.117L122.385 172.108Z" fill="white"/>
</svg>
