<svg width="256" height="256" viewBox="0 0 256 256" fill="none" xmlns="http://www.w3.org/2000/svg">
<g clip-path="url(#clip0_1987_1209)">
<path d="M256 128C256 57.3076 198.692 0 128 0C57.3076 0 0 57.3076 0 128C0 198.692 57.3076 256 128 256C198.692 256 256 198.692 256 128Z" fill="white"/>
<path fill-rule="evenodd" clip-rule="evenodd" d="M214.985 128.058C214.985 176.16 175.989 215.156 127.887 215.156C79.7842 215.156 40.7891 176.16 40.7891 128.058C40.7891 79.9551 79.7842 40.96 127.887 40.96C175.989 40.96 214.985 79.9551 214.985 128.058ZM127.887 199.188C88.603 199.188 56.757 167.342 56.757 128.058C56.757 88.7739 88.603 56.9279 127.887 56.9279C132.514 56.9279 137.038 57.3697 141.419 58.2135C143.39 58.5932 142.968 61.483 140.973 61.7118C108.147 65.4784 81.4349 93.8941 81.4349 128.058C81.4349 162.222 108.147 190.638 140.973 194.405C142.968 194.633 143.39 197.523 141.419 197.903C137.038 198.746 132.514 199.188 127.887 199.188ZM179.143 100.609C180.627 101.183 180.381 103.282 178.911 103.888C169.413 107.8 162.726 117.148 162.726 128.058C162.726 138.968 169.413 148.316 178.911 152.228C180.381 152.834 180.627 154.933 179.143 155.506C175.851 156.78 172.274 157.478 168.533 157.478C152.285 157.478 139.113 144.306 139.113 128.058C139.113 111.81 152.285 98.6381 168.533 98.6381C172.274 98.6381 175.851 99.3363 179.143 100.609ZM122.08 128.058C122.08 105.42 138.274 86.5648 159.709 82.4429C161.559 82.0869 161.919 79.4537 160.087 79.0115C156.278 78.0926 152.301 77.6057 148.21 77.6057C120.346 77.6057 97.7576 100.194 97.7576 128.058C97.7576 155.922 120.346 178.51 148.21 178.51C152.301 178.51 156.278 178.024 160.087 177.104C161.919 176.662 161.559 174.029 159.709 173.674C138.274 169.551 122.08 150.696 122.08 128.058ZM188.856 135.026C185.008 135.026 181.888 131.906 181.888 128.058C181.888 124.21 185.008 121.09 188.856 121.09C192.705 121.09 195.824 124.21 195.824 128.058C195.824 131.906 192.705 135.026 188.856 135.026Z" fill="#604EFF"/>
<path fill-rule="evenodd" clip-rule="evenodd" d="M214.985 128.058C214.985 176.16 175.989 215.156 127.887 215.156C79.7842 215.156 40.7891 176.16 40.7891 128.058C40.7891 79.9551 79.7842 40.96 127.887 40.96C175.989 40.96 214.985 79.9551 214.985 128.058ZM127.887 199.188C88.603 199.188 56.757 167.342 56.757 128.058C56.757 88.7739 88.603 56.9279 127.887 56.9279C132.514 56.9279 137.038 57.3697 141.419 58.2135C143.39 58.5932 142.968 61.483 140.973 61.7118C108.147 65.4784 81.4349 93.8941 81.4349 128.058C81.4349 162.222 108.147 190.638 140.973 194.405C142.968 194.633 143.39 197.523 141.419 197.903C137.038 198.746 132.514 199.188 127.887 199.188ZM179.143 100.609C180.627 101.183 180.381 103.282 178.911 103.888C169.413 107.8 162.726 117.148 162.726 128.058C162.726 138.968 169.413 148.316 178.911 152.228C180.381 152.834 180.627 154.933 179.143 155.506C175.851 156.78 172.274 157.478 168.533 157.478C152.285 157.478 139.113 144.306 139.113 128.058C139.113 111.81 152.285 98.6381 168.533 98.6381C172.274 98.6381 175.851 99.3363 179.143 100.609ZM122.08 128.058C122.08 105.42 138.274 86.5648 159.709 82.4429C161.559 82.0869 161.919 79.4537 160.087 79.0115C156.278 78.0926 152.301 77.6057 148.21 77.6057C120.346 77.6057 97.7576 100.194 97.7576 128.058C97.7576 155.922 120.346 178.51 148.21 178.51C152.301 178.51 156.278 178.024 160.087 177.104C161.919 176.662 161.559 174.029 159.709 173.674C138.274 169.551 122.08 150.696 122.08 128.058ZM188.856 135.026C185.008 135.026 181.888 131.906 181.888 128.058C181.888 124.21 185.008 121.09 188.856 121.09C192.705 121.09 195.824 124.21 195.824 128.058C195.824 131.906 192.705 135.026 188.856 135.026Z" fill="url(#paint0_radial_1987_1209)"/>
</g>
<defs>
<radialGradient id="paint0_radial_1987_1209" cx="0" cy="0" r="1" gradientUnits="userSpaceOnUse" gradientTransform="translate(-6.84268 232.847) rotate(-28.9846) scale(216.252)">
<stop stop-color="#0066FF"/>
<stop offset="1" stop-color="#0066FF" stop-opacity="0"/>
</radialGradient>
<clipPath id="clip0_1987_1209">
<rect width="256" height="256" fill="white"/>
</clipPath>
</defs>
</svg>
