<svg width="256" height="256" viewBox="0 0 256 256" fill="none" xmlns="http://www.w3.org/2000/svg">
<circle cx="127" cy="128" r="125" fill="black"/>
<path d="M85.2525 161.831C91.7971 161.848 98.1711 159.738 103.419 155.817L104.284 155.172C105.15 154.528 116.396 145.507 115.531 134.123C115.578 131.568 114.862 129.057 113.475 126.913C112.087 124.769 110.091 123.091 107.745 122.094C106.511 121.694 105.184 121.685 103.945 122.07C102.706 122.454 101.616 123.213 100.824 124.242C100.321 124.866 99.9626 125.595 99.7755 126.375C99.5884 127.155 99.5771 127.968 99.7424 128.753C99.9685 130.665 100.893 132.425 102.338 133.693C102.841 134.091 103.184 134.658 103.304 135.29C103.423 135.921 103.31 136.575 102.987 137.13C102.58 137.631 102.008 137.972 101.375 138.09C100.741 138.208 100.085 138.096 99.5262 137.774C97.0187 135.711 95.3309 132.815 94.7684 129.612C94.5188 128.142 94.5824 126.635 94.9551 125.191C95.3279 123.748 96.0013 122.399 96.931 121.235C98.308 119.42 100.21 118.074 102.377 117.382C104.545 116.69 106.872 116.686 109.043 117.369C115.314 119.302 119.64 125.746 120.289 133.908C120.344 137.635 119.666 141.337 118.293 144.802C116.92 148.266 114.879 151.425 112.287 154.098C115.361 153.837 118.342 152.916 121.029 151.396C123.716 149.877 126.045 147.795 127.858 145.292C131.102 140.137 131.102 133.263 131.319 127.464C131.277 126.1 131.349 124.735 131.535 123.383C131.954 117.734 133.576 112.24 136.293 107.274C133.366 99.9446 128.32 93.6611 121.803 89.2315C115.257 84.6372 107.584 81.9237 99.6127 81.384C91.6411 80.8444 83.674 82.4991 76.572 86.1695C69.4699 89.8399 63.5028 95.3865 59.3152 102.21C55.1276 109.034 52.8786 116.875 52.8112 124.887C52.5947 129.95 53.3816 135.006 55.1264 139.762C56.8712 144.518 59.5393 148.879 62.9762 152.595C65.894 155.537 69.3659 157.869 73.19 159.455C77.0142 161.04 81.1144 161.848 85.2525 161.831Z" fill="#7A5CF2"/>
<path d="M117.874 196.342C117.874 196.342 182.802 195.9 189.924 165.478C194.726 144.964 172.622 134.548 183.219 120.157C190.145 110.64 201.577 109.918 199.363 95.0374C198.937 92.7817 198.017 90.6487 196.671 88.7917C195.325 86.9348 193.585 85.4 191.577 84.2977C191.423 84.2147 191.266 84.14 191.11 84.0591C193.2 79.8028 196.201 76.061 199.898 73.1003C200.873 73.6004 201.951 73.8644 203.046 73.8712C204.579 73.8932 206.079 73.4235 207.327 72.5304C208.574 71.6374 209.505 70.3679 209.982 68.9071C210.46 67.4462 210.459 65.8706 209.981 64.4101C209.503 62.9496 208.571 61.6807 207.323 60.7885C206.074 59.8963 204.574 59.4275 203.042 59.4505C201.509 59.4736 200.023 59.9872 198.802 60.9166C197.581 61.8459 196.688 63.1423 196.254 64.6165C195.819 66.0907 195.866 67.6656 196.387 69.1114C192.09 72.6014 188.622 77.0068 186.234 82.0079C182.97 81.1462 179.574 80.903 176.221 81.2908C167.224 82.4464 153.942 88.6496 142.787 105.905C139.429 111.252 137.352 117.307 136.72 123.594C136.072 135.837 138.883 158.175 106.442 159.679C101.09 163.594 94.7611 165.947 88.1573 166.478C81.5535 167.009 74.9321 165.696 69.0265 162.686C56.6142 161.831 49.7118 165.376 47.2057 174.027C44.9411 183.916 52.477 196.342 117.874 196.342Z" fill="#41415B"/>
</svg>
