<svg width="256" height="256" viewBox="0 0 256 256" fill="none" xmlns="http://www.w3.org/2000/svg">
<g clip-path="url(#clip0_2253_41)">
<path d="M128 256C198.692 256 256 198.692 256 128C256 57.3075 198.692 0 128 0C57.3075 0 0 57.3075 0 128C0 198.692 57.3075 256 128 256Z" fill="#FFD600"/>
<path d="M139.441 134.266C142.27 100.698 171.554 86.3927 189.784 94.2503C208.013 102.108 214.094 127.562 204.989 151.758C190.374 190.599 139.71 215.994 99.2734 198.563C136.441 191.609 136.959 163.726 139.441 134.266Z" fill="white"/>
<path d="M114.486 121.944C115.12 155.63 87.4672 173.008 68.532 167.155C49.597 161.302 40.9362 136.645 47.5062 111.602C58.0522 71.4041 105.828 40.6983 147.83 53.6807C111.583 64.5962 113.93 92.38 114.486 121.944Z" fill="white"/>
<path d="M128 160C145.673 160 160 145.673 160 128C160 110.327 145.673 96 128 96C110.327 96 96 110.327 96 128C96 145.673 110.327 160 128 160Z" fill="#FFD600"/>
<path d="M144.348 120.707L135.621 121.659C135.374 120.777 134.942 119.949 134.325 119.173C133.726 118.397 132.915 117.772 131.893 117.296C130.869 116.82 129.618 116.581 128.137 116.581C126.145 116.581 124.47 117.013 123.113 117.877C121.773 118.741 121.112 119.861 121.129 121.236C121.112 122.417 121.543 123.378 122.425 124.118C123.324 124.859 124.805 125.467 126.868 125.943L133.797 127.424C137.64 128.253 140.496 129.566 142.365 131.365C144.251 133.163 145.203 135.517 145.221 138.425C145.203 140.981 144.454 143.238 142.973 145.196C141.509 147.135 139.473 148.651 136.864 149.744C134.255 150.837 131.257 151.384 127.873 151.384C122.901 151.384 118.899 150.344 115.866 148.263C112.834 146.165 111.027 143.247 110.445 139.509L119.781 138.61C120.204 140.444 121.103 141.828 122.477 142.762C123.853 143.697 125.642 144.164 127.846 144.164C130.121 144.164 131.945 143.697 133.321 142.762C134.713 141.828 135.409 140.673 135.409 139.298C135.409 138.134 134.96 137.173 134.061 136.416C133.179 135.657 131.805 135.076 129.935 134.67L123.007 133.216C119.11 132.405 116.228 131.038 114.359 129.117C112.49 127.177 111.565 124.727 111.582 121.765C111.565 119.261 112.244 117.093 113.618 115.259C115.011 113.408 116.942 111.98 119.41 110.975C121.896 109.953 124.761 109.441 128.005 109.441C132.765 109.441 136.512 110.455 139.244 112.482C141.994 114.51 143.696 117.252 144.348 120.707Z" fill="white"/>
</g>
<defs>
<clipPath id="clip0_2253_41">
<rect width="256" height="256" fill="white"/>
</clipPath>
</defs>
</svg>
