<svg width="256" height="256" viewBox="0 0 256 256" fill="none" xmlns="http://www.w3.org/2000/svg">
<g clip-path="url(#clip0_1954_3134)">
<path d="M256 128C256 57.3075 198.692 0 128 0C57.3075 0 0 57.3075 0 128C0 198.692 57.3075 256 128 256C198.692 256 256 198.692 256 128Z" fill="#004AAD"/>
<path d="M136.856 162.122C138.522 162.122 139.922 161.538 141.067 160.38C142.211 159.222 142.789 157.806 142.789 156.109C142.789 154.524 142.211 153.165 141.067 152.007C139.922 150.849 138.511 150.265 136.856 150.265H120.144C106.3 150.265 94.4778 145.342 84.6889 135.497C74.8888 125.651 70 113.67 70 99.5538C70 85.4373 74.8888 73.7487 84.6778 63.8471C94.4668 53.9452 106.289 49 120.133 49H186.989V68.2753H120.133C111.589 68.2753 104.278 71.3323 98.189 77.4351C92.1001 83.5493 89.0556 90.9221 89.0556 99.5538C89.0556 108.185 92.1001 115.592 98.189 121.751C104.278 127.91 111.589 130.99 120.133 130.99L136.844 131.147C143.711 131.147 149.6 133.597 154.489 138.497C159.378 143.398 161.833 149.265 161.833 156.109C161.833 162.954 159.389 169.012 154.489 173.957C149.589 178.902 143.711 181.386 136.844 181.386H70V162.111H136.856V162.122ZM136.856 206.989H70V187.714H136.856C145.389 187.714 152.711 184.634 158.8 178.475C164.889 172.316 167.933 164.909 167.933 156.278C167.933 147.646 164.889 140.273 158.8 134.159C152.711 128.045 145.389 124.999 136.856 124.999H120.144C113.278 124.999 107.389 122.527 102.5 117.57C97.6112 112.625 95.1556 106.668 95.1556 99.7223C95.1556 92.7765 97.5999 86.9771 102.5 82.0318C107.389 77.1878 113.278 74.7152 120.144 74.6028H187V93.7207H120.133C118.467 93.7207 117.067 94.3051 115.922 95.4627C114.778 96.6203 114.2 98.0477 114.2 99.7337C114.2 101.419 114.778 102.835 115.922 103.993C117.067 105.151 118.467 105.735 120.133 105.735H136.844C150.589 105.735 162.378 110.681 172.222 120.582C182.067 130.484 186.978 142.386 186.978 156.289C186.978 170.192 182.056 182.386 172.222 192.232C162.378 202.077 150.589 207 136.844 207L136.856 206.989Z" fill="white"/>
</g>
<defs>
<clipPath id="clip0_1954_3134">
<rect width="256" height="256" fill="white"/>
</clipPath>
</defs>
</svg>
