<svg width="256" height="256" viewBox="0 0 256 256" fill="none" xmlns="http://www.w3.org/2000/svg">
<path d="M128 255C198.14 255 255 198.14 255 128C255 57.8598 198.14 1 128 1C57.8598 1 1 57.8598 1 128C1 198.14 57.8598 255 128 255Z" fill="#10151B"/>
<path d="M127.406 0C197.769 0.000826079 254.808 57.0427 254.808 127.406C254.807 189.768 209.999 241.657 150.823 252.652V145.352L149.105 144.388L78.4132 104.754V91.953L127.84 63.3585C156.856 79.5578 174.058 88.4528 184.058 93.3079C189.153 95.7818 192.399 97.2184 194.395 98.0436C195.392 98.4557 196.087 98.7184 196.551 98.8839C196.782 98.9666 196.96 99.0271 197.091 99.0687C197.155 99.0894 197.21 99.1065 197.254 99.1195C197.275 99.1262 197.298 99.1328 197.315 99.1377C197.322 99.1395 197.331 99.1399 197.337 99.1414L197.348 99.1451L197.355 99.1484C197.358 99.1481 197.377 99.0824 198.246 95.9058L197.355 99.1484L201.609 100.312V72.9348L199.873 71.9746C185.849 64.2293 168.196 55.1005 154.072 47.9165C147.008 44.3232 140.816 41.2127 136.391 38.9999C134.18 37.8943 132.407 37.0113 131.188 36.4058C130.58 36.1033 130.105 35.8682 129.786 35.7101C129.628 35.6317 129.505 35.5692 129.424 35.529C129.385 35.5098 129.353 35.4956 129.333 35.4855C129.323 35.4805 129.313 35.4735 129.308 35.471L129.301 35.4674L127.692 34.6739L126.138 35.5652C120.267 38.9357 102.466 49.1561 86.134 58.5327C77.9687 63.2205 70.1703 67.6983 64.4129 71.0036C61.5353 72.6558 59.1668 74.0174 57.518 74.9638C56.694 75.4369 56.0469 75.8064 55.6088 76.058C55.3895 76.1837 55.2214 76.2832 55.1086 76.3477C55.053 76.3796 55.0103 76.4041 54.9817 76.4205C54.9676 76.4282 54.9565 76.4342 54.9491 76.4383L54.9421 76.442L54.9383 76.4457L53.2499 77.4129V120.783L54.9673 121.743L124.449 160.692V254.772C55.4515 253.201 0.000962107 196.781 0 127.406C0 57.0424 57.0424 0 127.406 0ZM53.2499 173.913L54.971 174.877L105.594 203.21L110.598 206.011V175.471L108.877 174.507L58.2537 146.159L53.2499 143.359V173.913ZM129.822 84.2934L109.862 95.4854L104.645 98.4131L109.859 101.348L176.442 138.812V168.801L166.253 174.504L164.533 175.467V206.004L169.536 203.21L199.884 186.239L201.605 185.279V122.706L199.884 121.743C188.037 115.111 171.344 105.748 157.612 98.0436C150.747 94.1917 144.623 90.7535 140.214 88.2788C138.01 87.0419 136.231 86.0461 135.007 85.3586C134.396 85.0157 133.922 84.749 133.602 84.5687C133.441 84.4789 133.318 84.4084 133.235 84.3624C133.195 84.3394 133.162 84.3231 133.141 84.3116C133.131 84.306 133.124 84.3001 133.12 84.2971L133.112 84.2934L131.467 83.3696L129.822 84.2934ZM197.681 95.7173L197.638 95.7028C197.477 95.6453 197.286 95.5611 197.051 95.4709C197.308 95.5693 197.513 95.6576 197.681 95.7173Z" fill="#F5F6F1"/>
</svg>
