<svg width="300" height="300" viewBox="0 0 300 300" fill="none" xmlns="http://www.w3.org/2000/svg">
<path d="M149.877 0H150.123C232.883 0 300 65.3524 300 145.938V154.062C300 234.648 232.883 300 150.123 300H149.877C67.1166 300 0 234.648 0 154.062V145.938C0 65.3524 67.1166 0 149.877 0Z" fill="#232323"/>
<path d="M208.483 112.903C208.005 113.441 207.408 113.859 206.751 114.098C206.093 114.397 205.377 114.516 204.66 114.516H69.3551C64.5761 114.516 62.1269 108.542 65.4722 104.958L87.6944 81.3621C88.1723 80.8245 88.7697 80.4063 89.4865 80.1076C90.1436 79.8089 90.8605 79.6895 91.5773 79.6895H227.42C232.258 79.6895 234.648 85.7229 231.243 89.3071L208.483 112.903ZM208.483 218.399C207.467 219.415 206.093 220.012 204.66 220.012H69.3551C64.5761 220.012 62.1269 214.158 65.4722 210.693L87.6944 187.634C88.1723 187.097 88.8294 186.679 89.4865 186.44C90.1436 186.141 90.8605 186.022 91.5773 186.022H227.42C232.258 186.022 234.648 191.936 231.243 195.4L208.483 218.399ZM208.483 134.468C207.467 133.453 206.093 132.856 204.66 132.856H69.3551C64.5761 132.856 62.1269 138.71 65.4722 142.175L87.6944 165.233C88.1723 165.771 88.8294 166.189 89.4865 166.428C90.1436 166.726 90.8605 166.846 91.5773 166.846H227.42C232.258 166.846 234.648 160.932 231.243 157.467L208.483 134.468Z" fill="url(#paint0_linear_435_401)"/>
<defs>
<linearGradient id="paint0_linear_435_401" x1="74.256" y1="221.763" x2="222.067" y2="77.8576" gradientUnits="userSpaceOnUse">
<stop stop-color="#CF41E8"/>
<stop offset="1" stop-color="#10F2B0"/>
</linearGradient>
</defs>
</svg>
