<svg width="256" height="256" viewBox="0 0 256 256" fill="none" xmlns="http://www.w3.org/2000/svg">
<g clip-path="url(#clip0_1099_2)">
<path d="M255.681 127.841C255.681 198.445 198.445 255.681 127.841 255.681C57.2363 255.681 0 198.445 0 127.841C0 57.2363 57.2363 0 127.841 0C198.445 0 255.681 57.2363 255.681 127.841Z" fill="#7667EB"/>
<path d="M72.6599 64.4346H72.6599C70.767 64.4346 69.2325 65.969 69.2325 67.8619V86.3697C69.2325 88.2625 70.767 89.797 72.6599 89.797C74.5528 89.797 76.0873 88.2625 76.0873 86.3697V67.8619C76.0873 65.969 74.5528 64.4346 72.6599 64.4346Z" fill="white"/>
<path d="M72.6604 165.884H72.6604C70.7675 165.884 69.233 167.419 69.233 169.312V187.819C69.233 189.712 70.7675 191.247 72.6604 191.247C74.5533 191.247 76.0878 189.712 76.0878 187.819V169.312C76.0878 167.419 74.5533 165.884 72.6604 165.884Z" fill="white"/>
<path d="M84.3132 64.4346H84.3132C82.4203 64.4346 80.8859 65.969 80.8859 67.8619V86.3697C80.8859 88.2625 82.4203 89.797 84.3132 89.797C86.2061 89.797 87.7406 88.2625 87.7406 86.3697V67.8619C87.7406 65.969 86.2061 64.4346 84.3132 64.4346Z" fill="white"/>
<path d="M84.3127 165.884H84.3127C82.4199 165.884 80.8854 167.419 80.8854 169.312V187.819C80.8854 189.712 82.4199 191.247 84.3127 191.247C86.2056 191.247 87.7401 189.712 87.7401 187.819V169.312C87.7401 167.419 86.2056 165.884 84.3127 165.884Z" fill="white"/>
<path d="M95.9661 64.4346H95.9661C94.0732 64.4346 92.5387 65.969 92.5387 67.8619V187.819C92.5387 189.712 94.0732 191.247 95.9661 191.247C97.8589 191.247 99.3934 189.712 99.3934 187.819V67.8619C99.3934 65.969 97.8589 64.4346 95.9661 64.4346Z" fill="white"/>
<path d="M95.9661 34.2734H95.9661C94.0732 34.2734 92.5387 35.8079 92.5387 37.7008V56.2085C92.5387 58.1014 94.0732 59.6359 95.9661 59.6359C97.8589 59.6359 99.3934 58.1014 99.3934 56.2085V37.7008C99.3934 35.8079 97.8589 34.2734 95.9661 34.2734Z" fill="white"/>
<path d="M95.9661 196.045H95.9661C94.0732 196.045 92.5387 197.579 92.5387 199.472V217.98C92.5387 219.873 94.0732 221.407 95.9661 221.407C97.8589 221.407 99.3934 219.873 99.3934 217.98V199.472C99.3934 197.579 97.8589 196.045 95.9661 196.045Z" fill="white"/>
<path d="M107.619 64.4346H107.619C105.726 64.4346 104.191 65.969 104.191 67.8619V187.819C104.191 189.712 105.726 191.247 107.619 191.247C109.512 191.247 111.046 189.712 111.046 187.819V67.8619C111.046 65.969 109.512 64.4346 107.619 64.4346Z" fill="white"/>
<path d="M107.619 34.2734H107.619C105.726 34.2734 104.191 35.8079 104.191 37.7008V56.2085C104.191 58.1014 105.726 59.6359 107.619 59.6359C109.512 59.6359 111.046 58.1014 111.046 56.2085V37.7008C111.046 35.8079 109.512 34.2734 107.619 34.2734Z" fill="white"/>
<path d="M107.619 196.045H107.619C105.726 196.045 104.191 197.579 104.191 199.472V217.98C104.191 219.873 105.726 221.407 107.619 221.407C109.512 221.407 111.046 219.873 111.046 217.98V199.472C111.046 197.579 109.512 196.045 107.619 196.045Z" fill="white"/>
<path d="M119.272 64.4346H119.272C117.379 64.4346 115.845 65.969 115.845 67.8619V86.3697C115.845 88.2625 117.379 89.797 119.272 89.797C121.165 89.797 122.7 88.2625 122.7 86.3697V67.8619C122.7 65.969 121.165 64.4346 119.272 64.4346Z" fill="white"/>
<path d="M119.272 165.884H119.272C117.379 165.884 115.845 167.419 115.845 169.312V187.819C115.845 189.712 117.379 191.247 119.272 191.247C121.165 191.247 122.7 189.712 122.7 187.819V169.312C122.7 167.419 121.165 165.884 119.272 165.884Z" fill="white"/>
<path d="M119.272 115.16H119.272C117.379 115.16 115.845 116.694 115.845 118.587V137.095C115.845 138.988 117.379 140.522 119.272 140.522C121.165 140.522 122.7 138.988 122.7 137.095V118.587C122.7 116.694 121.165 115.16 119.272 115.16Z" fill="white"/>
<path d="M130.925 64.4346H130.925C129.032 64.4346 127.498 65.969 127.498 67.8619V86.3697C127.498 88.2625 129.032 89.797 130.925 89.797C132.818 89.797 134.352 88.2625 134.352 86.3697V67.8619C134.352 65.969 132.818 64.4346 130.925 64.4346Z" fill="white"/>
<path d="M130.925 165.884H130.925C129.032 165.884 127.498 167.419 127.498 169.312V187.819C127.498 189.712 129.032 191.247 130.925 191.247C132.818 191.247 134.352 189.712 134.352 187.819V169.312C134.352 167.419 132.818 165.884 130.925 165.884Z" fill="white"/>
<path d="M130.925 115.16H130.925C129.032 115.16 127.498 116.694 127.498 118.587V137.095C127.498 138.988 129.032 140.522 130.925 140.522C132.818 140.522 134.352 138.988 134.352 137.095V118.587C134.352 116.694 132.818 115.16 130.925 115.16Z" fill="white"/>
<path d="M142.578 34.2734H142.578C140.685 34.2734 139.151 35.8079 139.151 37.7008V56.2085C139.151 58.1014 140.685 59.6359 142.578 59.6359C144.471 59.6359 146.006 58.1014 146.006 56.2085V37.7008C146.006 35.8079 144.471 34.2734 142.578 34.2734Z" fill="white"/>
<path d="M142.578 196.045H142.578C140.685 196.045 139.151 197.579 139.151 199.472V217.98C139.151 219.873 140.685 221.407 142.578 221.407C144.471 221.407 146.006 219.873 146.006 217.98V199.472C146.006 197.579 144.471 196.045 142.578 196.045Z" fill="white"/>
<path d="M142.578 64.4346H142.578C140.685 64.4346 139.151 65.969 139.151 67.8619V86.3697C139.151 88.2625 140.685 89.797 142.578 89.797C144.471 89.797 146.006 88.2625 146.006 86.3697V67.8619C146.006 65.969 144.471 64.4346 142.578 64.4346Z" fill="white"/>
<path d="M142.578 165.884H142.578C140.685 165.884 139.151 167.419 139.151 169.312V187.819C139.151 189.712 140.685 191.247 142.578 191.247C144.471 191.247 146.006 189.712 146.006 187.819V169.312C146.006 167.419 144.471 165.884 142.578 165.884Z" fill="white"/>
<path d="M142.578 115.16H142.578C140.685 115.16 139.151 116.694 139.151 118.587V137.095C139.151 138.988 140.685 140.522 142.578 140.522C144.471 140.522 146.006 138.988 146.006 137.095V118.587C146.006 116.694 144.471 115.16 142.578 115.16Z" fill="white"/>
<path d="M154.231 64.4346H154.231C152.338 64.4346 150.804 65.969 150.804 67.8619V91.168C150.804 93.0608 152.338 94.5953 154.231 94.5953C156.124 94.5953 157.658 93.0608 157.658 91.168V67.8619C157.658 65.969 156.124 64.4346 154.231 64.4346Z" fill="white"/>
<path d="M154.231 161.086H154.231C152.338 161.086 150.804 162.62 150.804 164.513V187.819C150.804 189.712 152.338 191.247 154.231 191.247C156.124 191.247 157.658 189.712 157.658 187.819V164.513C157.658 162.62 156.124 161.086 154.231 161.086Z" fill="white"/>
<path d="M154.231 34.2734H154.231C152.338 34.2734 150.804 35.8079 150.804 37.7008V56.2085C150.804 58.1014 152.338 59.6359 154.231 59.6359C156.124 59.6359 157.658 58.1014 157.658 56.2085V37.7008C157.658 35.8079 156.124 34.2734 154.231 34.2734Z" fill="white"/>
<path d="M154.231 196.045H154.231C152.338 196.045 150.804 197.579 150.804 199.472V217.98C150.804 219.873 152.338 221.407 154.231 221.407C156.124 221.407 157.658 219.873 157.658 217.98V199.472C157.658 197.579 156.124 196.045 154.231 196.045Z" fill="white"/>
<path d="M154.231 110.361H154.231C152.338 110.361 150.804 111.895 150.804 113.788V141.893C150.804 143.785 152.338 145.32 154.231 145.32C156.124 145.32 157.658 143.785 157.658 141.893V113.788C157.658 111.895 156.124 110.361 154.231 110.361Z" fill="white"/>
<path d="M165.884 64.4346H165.884C163.991 64.4346 162.457 65.969 162.457 67.8619V187.819C162.457 189.712 163.991 191.247 165.884 191.247C167.777 191.247 169.311 189.712 169.311 187.819V67.8619C169.311 65.969 167.777 64.4346 165.884 64.4346Z" fill="white"/>
<path d="M180.965 80.5431C180.965 78.6502 179.43 77.1157 177.537 77.1157C175.644 77.1157 174.11 78.6502 174.11 80.5431V175.138C174.11 177.031 175.644 178.565 177.537 178.565C179.43 178.565 180.965 177.031 180.965 175.138V80.5431Z" fill="white"/>
<path d="M192.617 93.2242C192.617 91.3313 191.083 89.7969 189.19 89.7969C187.297 89.7969 185.763 91.3313 185.763 93.2242V111.732C185.763 113.625 187.297 115.159 189.19 115.159C191.083 115.159 192.617 113.625 192.617 111.732V93.2242Z" fill="white"/>
<path d="M192.617 143.949C192.617 142.056 191.083 140.521 189.19 140.521C187.297 140.521 185.763 142.056 185.763 143.949V162.457C185.763 164.349 187.297 165.884 189.19 165.884C191.083 165.884 192.617 164.349 192.617 162.457V143.949Z" fill="white"/>
</g>
<defs>
<clipPath id="clip0_1099_2">
<rect width="256" height="256" fill="white"/>
</clipPath>
</defs>
</svg>
