<svg width="256" height="256" viewBox="0 0 256 256" fill="none" xmlns="http://www.w3.org/2000/svg">
<g clip-path="url(#clip0_776_387)">
<path d="M256 128C256 57.3076 198.692 0 128 0C57.3076 0 0 57.3076 0 128C0 198.692 57.3076 256 128 256C198.692 256 256 198.692 256 128Z" fill="black"/>
<path d="M170.917 106.767C175.804 106.739 180.69 106.716 185.577 106.704C187.048 106.701 188.518 106.695 189.989 106.687C191.701 106.677 193.412 106.673 195.124 106.673C195.745 106.672 196.366 106.669 196.987 106.665C197.825 106.659 198.662 106.66 199.5 106.662C199.744 106.659 199.988 106.656 200.239 106.652C201.207 106.661 201.87 106.678 202.685 107.229C203.041 107.802 203.041 107.802 203.13 108.937C202.486 110.804 201.278 111.206 199.57 112.047C199.242 112.217 198.913 112.388 198.575 112.564C197.856 112.936 197.134 113.304 196.411 113.669C195.215 114.274 194.025 114.888 192.836 115.507C192.423 115.721 192.01 115.936 191.597 116.151C191.288 116.311 191.288 116.311 190.973 116.475C190.341 116.803 189.708 117.13 189.075 117.457C186.286 118.896 183.525 120.381 180.779 121.899C178.345 123.24 175.885 124.525 173.416 125.801C170.632 127.24 167.865 128.7 165.122 130.216C161.997 131.942 158.837 133.592 155.665 135.231C152.831 136.699 150.022 138.21 147.229 139.757C146.809 139.989 146.809 139.989 146.38 140.226C146.021 140.426 146.021 140.426 145.654 140.63C145.375 140.78 145.096 140.929 144.808 141.083C144.531 141.245 144.531 141.245 144.248 141.409C142.445 142.404 140.857 142.711 138.821 142.876C138.501 142.906 138.181 142.936 137.852 142.968C136.785 143.067 135.719 143.159 134.651 143.251C133.884 143.321 133.117 143.391 132.35 143.462C130.27 143.653 128.19 143.837 126.109 144.02C123.928 144.212 121.748 144.411 119.568 144.608C115.905 144.94 112.242 145.267 108.578 145.591C104.817 145.924 101.056 146.261 97.2949 146.601C97.0635 146.622 96.8321 146.643 96.5936 146.665C96.3626 146.685 96.1316 146.706 95.8935 146.728C95.4283 146.77 94.963 146.812 94.4977 146.854C94.2682 146.875 94.0387 146.896 93.8022 146.917C89.991 147.262 86.1795 147.603 82.368 147.945C81.0727 148.061 79.7774 148.178 78.4821 148.294C76.4411 148.478 74.4 148.659 72.3588 148.839C71.612 148.906 70.8654 148.972 70.1188 149.04C59.6905 149.982 59.6905 149.982 58.5408 149.111C58.136 148.555 58.136 148.555 58.0005 147.705C58.136 146.857 58.136 146.857 58.6155 146.313C58.8378 146.161 59.0602 146.009 59.2893 145.852C59.6631 145.595 59.6631 145.595 60.0444 145.332C61.3661 144.485 62.7032 143.675 64.0609 142.887C64.7218 142.5 65.3826 142.112 66.0433 141.724C66.4018 141.514 66.7603 141.304 67.1296 141.088C69.3073 139.808 71.4765 138.513 73.6464 137.22C74.1153 136.941 74.5842 136.662 75.0531 136.382C77.8615 134.709 80.6652 133.029 83.4647 131.341C87.2659 129.049 91.08 126.779 94.8968 124.513C97.3293 123.069 99.7606 121.623 102.191 120.176C102.42 120.04 102.649 119.904 102.885 119.763C106.273 117.746 109.654 115.717 113.031 113.681C115.429 112.236 117.833 110.801 120.241 109.372C120.558 109.184 120.875 108.996 121.202 108.802C121.637 108.545 121.637 108.545 122.081 108.282C122.335 108.131 122.59 107.98 122.852 107.825C123.886 107.226 124.487 107.078 125.68 107.069C126.002 107.065 126.325 107.062 126.657 107.059C127.191 107.056 127.191 107.056 127.735 107.053C128.299 107.048 128.299 107.048 128.874 107.043C130.136 107.032 131.397 107.023 132.659 107.015C133.554 107.008 134.448 107.001 135.342 106.993C138.007 106.972 140.672 106.954 143.337 106.936C144.584 106.928 145.83 106.919 147.077 106.911C153.384 106.867 159.691 106.829 165.998 106.795C167.638 106.786 169.278 106.777 170.917 106.767Z" fill="#FF8D5D"/>
<path d="M68.3562 34C69.7587 34.1163 70.779 34.5077 72.0099 35.1399C72.2366 35.2516 72.4633 35.3633 72.6969 35.4783C73.4561 35.8537 74.2118 36.2358 74.9677 36.618C75.5167 36.8913 76.0659 37.1641 76.6154 37.4366C78.1247 38.1866 79.631 38.9426 81.1368 39.6996C82.7613 40.5149 84.3884 41.3248 86.0151 42.1354C89.2013 43.7242 92.3849 45.3182 95.5675 46.9144C98.1532 48.2111 100.74 49.5064 103.327 50.8005C110.657 54.4676 117.986 58.1386 125.312 61.8147C125.707 62.0129 126.102 62.2111 126.509 62.4153C126.905 62.6137 127.3 62.8121 127.708 63.0166C134.123 66.2353 140.542 69.4449 146.964 72.6504C153.553 75.9399 160.139 79.2359 166.722 82.5388C170.42 84.3939 174.119 86.2462 177.821 88.0916C180.972 89.6622 184.12 91.2388 187.263 92.8234C188.869 93.6323 190.475 94.4381 192.085 95.2364C193.558 95.9666 195.026 96.7047 196.492 97.4495C197.024 97.7181 197.558 97.9838 198.093 98.2463C198.818 98.6022 199.537 98.9686 200.255 99.3381C200.466 99.4386 200.678 99.5392 200.896 99.6428C201.472 99.9481 201.472 99.9481 202.363 100.67C202.727 101.878 202.727 101.878 202.701 103.047C202.297 103.697 202.297 103.697 201.686 104.066C200.653 104.167 199.69 104.205 198.657 104.198C198.344 104.2 198.03 104.202 197.707 104.203C196.652 104.208 195.597 104.206 194.542 104.203C193.788 104.205 193.033 104.208 192.279 104.211C190.226 104.217 188.173 104.216 186.119 104.214C184.407 104.213 182.695 104.215 180.983 104.217C176.713 104.222 172.443 104.221 168.173 104.217C164.465 104.214 160.756 104.218 157.047 104.226C153.24 104.234 149.433 104.238 145.626 104.235C143.488 104.234 141.351 104.235 139.213 104.241C137.203 104.246 135.193 104.245 133.182 104.239C132.444 104.237 131.705 104.238 130.967 104.242C129.96 104.246 128.953 104.242 127.946 104.236C127.506 104.241 127.506 104.241 127.057 104.246C125.696 104.23 125.008 104.179 123.836 103.428C123.079 102.646 122.392 101.846 121.722 100.989C120.654 99.6511 119.558 98.3636 118.399 97.1043C117.014 95.5939 115.717 94.0318 114.432 92.4347C113.637 91.4732 112.81 90.5519 111.967 89.6329C110.581 88.1226 109.284 86.5604 107.999 84.9633C107.204 84.0019 106.377 83.0806 105.534 82.1615C104.148 80.6512 102.851 79.089 101.567 77.4919C100.771 76.5305 99.9447 75.6092 99.1014 74.6902C97.7155 73.1798 96.4185 71.6177 95.1339 70.0205C94.3388 69.0591 93.512 68.1378 92.6687 67.2188C91.2828 65.7084 89.9858 64.1463 88.7012 62.5492C87.9061 61.5877 87.0794 60.6664 86.236 59.7474C84.8501 58.2371 83.5531 56.6749 82.2685 55.0778C81.4734 54.1164 80.6467 53.1951 79.8034 52.276C78.4175 50.7657 77.1205 49.2035 75.8358 47.6064C75.0408 46.645 74.214 45.7237 73.3707 44.8047C71.9601 43.2666 70.6274 41.6826 69.3251 40.0515C68.7166 39.3061 68.0815 38.6084 67.4247 37.9064C66.7059 37.0755 66.6032 36.8485 66.4302 35.6989C66.6818 34.3424 66.9931 34.1351 68.3562 34Z" fill="#58F5FC"/>
<path d="M204.057 113.234C204.882 113.807 204.882 113.807 205.411 114.593C205.284 115.914 204.834 116.808 204.122 117.912C203.829 118.37 203.829 118.37 203.53 118.837C203.32 119.159 203.11 119.482 202.893 119.814C202.57 120.317 202.57 120.317 202.24 120.829C200.917 122.881 199.577 124.922 198.218 126.95C196.485 129.539 194.8 132.16 193.11 134.776C192.203 136.178 191.296 137.58 190.388 138.981C190.207 139.259 190.027 139.537 189.842 139.823C187.371 143.635 184.894 147.441 182.418 151.249C180.205 154.65 177.993 158.052 175.787 161.458C173.58 164.866 171.367 168.269 169.154 171.673C168.092 173.305 167.03 174.938 165.969 176.571C164.691 178.536 163.414 180.5 162.136 182.465C160.139 185.536 158.142 188.608 156.151 191.683C153.514 195.755 150.868 199.821 148.223 203.888C146.01 207.289 143.798 210.692 141.592 214.098C139.817 216.838 138.039 219.577 136.258 222.314C135.152 224.014 134.048 225.714 132.946 227.417C132.721 227.763 132.497 228.11 132.265 228.467C131.84 229.123 131.415 229.78 130.991 230.437C130.602 231.036 130.211 231.634 129.817 232.229C129.412 232.845 129.018 233.468 128.632 234.096C128.433 234.408 128.234 234.72 128.029 235.041C127.854 235.323 127.679 235.605 127.498 235.896C126.865 236.512 126.865 236.512 125.861 236.689C124.599 236.471 124.25 236.164 123.479 235.153C123.454 234.258 123.454 234.258 123.66 233.221C123.734 232.828 123.809 232.434 123.886 232.028C123.975 231.603 124.064 231.177 124.156 230.738C124.242 230.304 124.327 229.87 124.415 229.422C124.709 227.936 125.021 226.454 125.334 224.972C125.452 224.404 125.571 223.836 125.69 223.269C126.011 221.733 126.333 220.197 126.656 218.661C126.999 217.025 127.342 215.388 127.684 213.752C128.264 210.984 128.844 208.216 129.425 205.449C130.011 202.66 130.595 199.872 131.179 197.083C131.25 196.744 131.321 196.406 131.394 196.058C131.536 195.376 131.679 194.695 131.822 194.013C133.083 187.989 134.349 181.965 135.618 175.942C136.41 172.186 137.198 168.429 137.976 164.671C138.448 162.393 138.923 160.117 139.4 157.841C139.674 156.537 139.945 155.234 140.212 153.929C140.5 152.521 140.796 151.114 141.093 149.707C141.176 149.295 141.258 148.884 141.344 148.46C141.464 147.899 141.464 147.899 141.587 147.326C141.654 147.003 141.721 146.68 141.79 146.348C142.46 144.51 143.955 143.802 145.621 142.96C145.937 142.799 145.937 142.799 146.259 142.635C146.71 142.404 147.162 142.175 147.615 141.947C148.818 141.341 150.016 140.726 151.215 140.112C151.454 139.99 151.692 139.868 151.938 139.742C153.828 138.774 155.692 137.764 157.547 136.731C161.154 134.728 164.825 132.856 168.496 130.976C171.569 129.401 174.632 127.819 177.649 126.139C181.209 124.158 184.835 122.31 188.46 120.454C192.606 118.329 196.719 116.158 200.787 113.884C201.959 113.236 202.699 113.098 204.057 113.234Z" fill="#58F5FC"/>
</g>
<defs>
<clipPath id="clip0_776_387">
<rect width="256" height="256" fill="white"/>
</clipPath>
</defs>
</svg>
