<svg width="256" height="256" viewBox="0 0 256 256" fill="none" xmlns="http://www.w3.org/2000/svg">
<path d="M1.26148 110.188C11.0988 40.1923 75.8164 -8.57578 145.812 1.26146C215.808 11.0987 264.577 75.8162 254.738 145.812C244.902 215.807 180.184 264.576 110.188 254.739C40.1924 244.901 -8.57585 180.184 1.26148 110.188Z" fill="white"/>
<path d="M94.52 177.95H61V80.43C61 78.82 62.3 77.52 63.91 77.52H94.52V177.95ZM194.94 74.61V46.91C194.94 45.3 193.64 44 192.03 44H164.38C162.77 44 161.47 45.3 161.47 46.91V77.52H192.03C193.64 77.52 194.94 76.22 194.94 74.61ZM127.99 80.44V177.95H94.52V211.47H127.99L161.47 177.95V77.52H130.91C129.3 77.52 128 78.82 128 80.43L127.99 80.44Z" fill="black"/>
</svg>
