<svg width="256" height="256" viewBox="0 0 256 256" fill="none" xmlns="http://www.w3.org/2000/svg">
<path d="M128.858 0.000706881C154.137 0.170258 178.8 7.82126 199.736 21.9889C220.672 36.1565 236.945 56.2063 246.501 79.6098C256.058 103.013 258.47 128.723 253.435 153.496C248.399 178.269 236.141 200.996 218.207 218.811C200.272 236.627 177.463 248.733 152.657 253.602C127.852 258.472 102.159 255.888 78.8203 246.175C55.4813 236.462 35.5409 220.056 21.5137 199.025C7.48647 177.995 0.000568594 153.281 0 128.002C0.114758 93.9402 13.7551 61.3192 37.9206 37.3146C62.086 13.3099 94.7972 -0.112222 128.858 0.000706881Z" fill="#1B2022"/>
<path fill-rule="evenodd" clip-rule="evenodd" d="M168.894 140.711C139.242 140.711 115.211 116.687 115.211 87.0747C115.211 71.5708 102.705 59 87.1059 59C71.6476 59 59 71.5708 59 87.0747C59 102.579 71.5069 115.15 87.1059 115.15H87.2462C116.757 115.15 140.648 139.174 140.788 168.785V168.925C140.788 184.429 153.295 197 168.894 197C184.493 197 197 184.429 197 168.925C196.859 153.282 184.352 140.711 168.894 140.711Z" fill="#31C1BF"/>
<path fill-rule="evenodd" clip-rule="evenodd" d="M87.2468 140.709C71.7885 140.709 59.1409 153.28 59.1409 168.784C59.1409 184.288 71.6477 196.859 87.2468 196.859C102.845 196.859 115.353 184.288 115.353 168.784C115.212 153.28 102.705 140.709 87.2468 140.709Z" fill="#31C1BF"/>
<path fill-rule="evenodd" clip-rule="evenodd" d="M168.894 59C184.417 59 197 71.5693 197 87.0747C197 102.58 184.417 115.15 168.894 115.15C153.371 115.15 140.788 102.58 140.788 87.0747C140.788 71.5693 153.371 59 168.894 59Z" fill="#31C1BF"/>
</svg>
