<svg width="256" height="256" viewBox="0 0 256 256" fill="none" xmlns="http://www.w3.org/2000/svg">
<g clip-path="url(#clip0_2457_218)">
<path d="M256 128C256 57.3075 198.692 0 128 0C57.3075 0 0 57.3075 0 128C0 198.692 57.3075 256 128 256C198.692 256 256 198.692 256 128Z" fill="black"/>
<path d="M54.0975 189.982V191.409H39.5423V164.491L39.0916 165.98L25.1716 161.69L33.034 135.754L32.0665 137.203L20 128.994L35.0778 106.453L33.6402 107.627L24.48 96.2214L46.1788 78.5021L43.4064 79.5757L38.1901 65.8732L64.1066 55.8419L61.0778 56.0555L60.0618 41.4133L87.1964 39.501L84.7466 38.9302L88.0201 24.6298L113.94 30.6637L112.307 29.7124L119.584 17L142.19 30.1609L141.31 29.2096L151.955 19.1996L169.56 38.2371L169.185 37.4606L182.268 31.0267L193.561 54.3761L193.458 53.7219L207.834 51.4252L212.07 78.3914L212.371 76.4714L226.747 78.7681L222.448 106.138L223.511 103.94L236.593 110.374L224.48 135.417L226.25 133.502L236.894 143.512L218.077 163.862L220.355 162.536L227.633 175.247L203.978 189.019L206.358 188.466L209.631 202.766L183.493 208.851L185.508 208.992L184.492 223.635L158.329 221.79L159.662 222.307L154.445 236.009L129.399 226.314L130.982 227.607L121.822 239.013L101.149 222.132L102.169 223.658L90.1028 231.866L75.3261 209.775L75.7651 211.223L61.8375 215.518L54.0955 189.98L54.0975 189.982ZM54.0975 172.542L63.1877 169.739L70.2535 193.042L78.114 187.695L91.5482 207.779L97.5474 200.307L116.165 215.51L119.495 206.762L141.932 215.446L142.589 205.968L166.597 207.661L164.437 198.225L187.972 192.747L183.095 184.23L204.102 171.999L196.906 165.233L213.501 147.288L204.648 142.934L215.32 120.868L205.637 119.32L209.443 95.0896L200.184 96.567L196.38 72.3478L188.041 76.45L177.446 54.5431L170.648 60.9342L154.253 43.2033L149.561 51.398L128.807 39.3146L126.662 48.6839L103.314 43.2479L103.992 53.023L80.0237 54.7139L83.5673 64.023L61.0001 72.7594L67.0713 80.3212L48.1254 95.7924L56.1218 101.23L42.4623 121.65L51.6671 124.488L44.5332 148.02H54.0955V172.537L54.0975 172.542Z" fill="url(#paint0_linear_2457_218)"/>
<path d="M174.779 81.6687L160.175 149.882L145.47 149.673L153.28 79.7622L174.779 81.6687ZM162.776 156.757L159.274 180.762L139.506 176.018L142.906 152.985L162.774 156.757H162.776Z" fill="url(#paint1_linear_2457_218)"/>
<path d="M141.219 87.5064C137.354 83.9769 132.855 81.3055 127.72 79.4981C122.584 77.6925 117.55 76.7878 112.619 76.7878C108.508 76.7878 104.44 77.3023 100.415 78.3274C96.3873 79.3544 92.7718 80.9755 89.5663 83.1926C86.3607 85.4097 83.773 88.2441 81.7991 91.6921C79.8272 95.142 78.8403 99.2889 78.8403 104.135C78.8403 108.078 79.4756 111.425 80.752 114.176C82.0245 116.929 83.7108 119.268 85.807 121.198C87.9033 123.127 90.2851 124.708 92.9564 125.941C95.6258 127.173 98.3592 128.241 101.155 129.144C104.03 130.049 106.599 130.889 108.86 131.67C111.119 132.452 113.01 133.314 114.531 134.258C116.05 135.203 117.222 136.25 118.043 137.399C118.863 138.55 119.277 139.946 119.277 141.586C119.277 143.31 118.947 144.79 118.29 146.021C117.631 147.253 116.749 148.238 115.64 148.977C114.531 149.717 113.237 150.251 111.757 150.579C110.278 150.909 108.755 151.072 107.195 151.072C103.743 151.072 100.271 150.191 96.7778 148.424C93.2828 146.659 90.4697 144.464 88.3326 141.833L74.5254 155.877C78.3876 159.902 83.2348 163.002 89.0728 165.179C94.9069 167.353 100.947 168.444 107.195 168.444C111.467 168.444 115.619 167.869 119.646 166.72C123.672 165.571 127.246 163.806 130.372 161.422C133.494 159.042 135.981 156.023 137.83 152.367C139.68 148.713 140.605 144.38 140.605 139.371C140.605 135.019 139.742 131.384 138.015 128.468C136.29 125.554 134.11 123.11 131.481 121.138C128.851 119.167 125.935 117.587 122.729 116.395C119.524 115.205 116.443 114.115 113.484 113.129C111.428 112.473 109.579 111.836 107.937 111.219C106.292 110.603 104.875 109.926 103.684 109.186C102.492 108.447 101.588 107.585 100.972 106.598C100.356 105.612 100.048 104.381 100.048 102.902C100.048 101.178 100.436 99.7606 101.219 98.6521C102 97.5435 102.964 96.6408 104.116 95.9418C105.266 95.2449 106.56 94.7712 107.999 94.5246C109.437 94.2781 110.853 94.1558 112.252 94.1558C114.964 94.1558 117.779 94.8333 120.697 96.1884C123.613 97.5435 125.978 99.3723 127.786 101.671L141.224 87.5045L141.219 87.5064Z" fill="url(#paint2_linear_2457_218)"/>
</g>
<defs>
<linearGradient id="paint0_linear_2457_218" x1="47.1119" y1="17" x2="192.416" y2="235.918" gradientUnits="userSpaceOnUse">
<stop stop-color="#FF3B81"/>
<stop offset="0.409721" stop-color="#FF007A"/>
<stop offset="1" stop-color="#FF3B81"/>
</linearGradient>
<linearGradient id="paint1_linear_2457_218" x1="143.915" y1="79.7622" x2="203.81" y2="112.021" gradientUnits="userSpaceOnUse">
<stop stop-color="#FF3B81"/>
<stop offset="0.409721" stop-color="#FF007A"/>
<stop offset="1" stop-color="#FF3B81"/>
</linearGradient>
<linearGradient id="paint2_linear_2457_218" x1="82.8628" y1="76.7878" x2="147.53" y2="149.36" gradientUnits="userSpaceOnUse">
<stop stop-color="#FF3B81"/>
<stop offset="0.409721" stop-color="#FF007A"/>
<stop offset="1" stop-color="#FF3B81"/>
</linearGradient>
<clipPath id="clip0_2457_218">
<rect width="256" height="256" fill="white"/>
</clipPath>
</defs>
</svg>
