<svg width="256" height="256" viewBox="0 0 256 256" fill="none" xmlns="http://www.w3.org/2000/svg">
<path d="M128 252.8C196.925 252.8 252.8 196.925 252.8 128C252.8 59.0748 196.925 3.19995 128 3.19995C59.0751 3.19995 3.2002 59.0748 3.2002 128C3.2002 196.925 59.0751 252.8 128 252.8Z" fill="#E2E1E6"/>
<path d="M111.826 64.8255C110.595 68.1437 104.441 84.0405 103.538 86.2785C100.42 94.304 96.8912 103.256 93.1985 112.902C90.9008 118.844 88.6031 124.94 87.9466 126.406C84.5 135.126 81.2996 143.461 77.771 152.644C75.6374 158.354 72.7653 165.84 71.3702 169.235C66.0363 182.354 63 190.457 63 191.228C63 191.691 68.1699 192 78.1813 192H93.2805L109.036 147.01C117.653 122.316 125.12 101.404 125.613 100.555C126.597 98.857 126.761 98.4712 126.926 96.5419C127.09 93.6867 128.649 97.2365 133.573 111.744C136.363 120.001 139.891 130.265 141.368 134.509C146.456 148.785 159.75 187.756 160.324 189.839L160.817 192H176.408H192L191.59 190.225C191.426 189.299 189.538 184.206 187.487 178.881C182.891 167.074 177.721 153.57 174.603 145.313C172.223 139.062 168.613 129.647 162.294 113.288C160.406 108.426 157.863 101.635 156.55 98.2396C155.319 94.8442 153.103 89.1337 151.708 85.5068C150.395 81.8798 148.015 75.6291 146.456 71.6163L143.666 64.2853L127.91 64.0538C115.765 63.8994 112.155 64.0538 111.826 64.8255Z" fill="#202226"/>
</svg>
