<svg width="256" height="256" viewBox="0 0 256 256" fill="none" xmlns="http://www.w3.org/2000/svg">
<path d="M127.458 251.119C194.855 251.119 249.492 195.997 249.492 128C249.492 60.0034 194.855 4.88135 127.458 4.88135C60.0603 4.88135 5.42383 60.0034 5.42383 128C5.42383 195.997 60.0603 251.119 127.458 251.119Z" fill="black" stroke="white" stroke-opacity="0.0351759"/>
<path d="M254.37 127.881C255.86 194.302 200.391 254.448 127.966 254.4C55.659 254.329 0.833672 194.207 1.6077 127.642C2.41746 57.4158 57.9573 1.55192 128.489 1.59964C198.331 1.64736 254.37 57.8571 254.37 127.881ZM109.508 234.42C110.175 234.276 110.83 234.134 111.496 234.001C110.591 196.365 107.102 158.61 116.689 121.94C115.033 120.497 114.271 119.471 113.259 119.005C108.043 116.596 102.839 114.15 97.4806 112.063C88.0731 108.4 84.4411 102.102 86.132 90.8051C88.2041 91.8071 90.0618 92.7853 91.9909 93.6205C98.3379 96.376 104.578 99.4776 111.104 101.696C119.761 104.643 121.452 106.886 120.106 116.13C119.189 122.417 118.022 128.692 117.546 135.026C117.105 140.812 122.571 148.721 126.965 149.663C130.776 150.486 136.659 145.559 138.516 139.273C139.266 136.744 138.933 133.797 138.659 131.078C138.04 124.755 137.04 118.481 136.42 112.158C135.884 106.754 138.731 103.915 143.744 102.138C150.817 99.6446 157.665 96.4953 164.594 93.6085C166.489 92.8212 168.358 91.9384 170.478 90.9841C171.455 103.736 168.216 108.544 157.403 112.552C151.556 114.723 145.983 117.622 139.528 120.544C149.162 158.67 145.506 196.52 146.066 234.431C148.864 231.245 150.817 227.894 152.544 224.434C154.044 221.416 155.247 218.255 156.641 215.178C163.261 200.528 170.156 185.999 176.372 171.183C178.301 166.566 179.135 161.186 179.195 156.141C179.469 131.292 179.445 106.444 179.243 81.5959C179.195 75.6672 179.052 69.4403 177.254 63.9052C174.038 54.0039 171.156 43.3514 165.214 35.1322C154.521 20.3402 138.183 16.2962 120.571 18.5986C106.507 20.4356 94.0749 26.8177 87.692 39.6175C80.9877 53.0616 76.7366 67.7105 76.8437 83.2064C77.0104 107.661 76.808 132.104 76.9866 156.558C77.0104 160.46 77.4391 164.67 78.9633 168.176C87.7873 188.563 96.9567 208.795 106.09 229.051C106.948 230.959 108.353 232.642 109.508 234.42Z" fill="#FB2715"/>
</svg>
