<svg width="256" height="256" viewBox="0 0 256 256" fill="none" xmlns="http://www.w3.org/2000/svg">
<path d="M1.26148 110.188C11.0988 40.1923 75.8164 -8.57578 145.812 1.26146C215.808 11.0987 264.577 75.8162 254.738 145.812C244.902 215.807 180.184 264.576 110.188 254.739C40.1924 244.901 -8.57585 180.184 1.26148 110.188Z" fill="#F2F3F7"/>
<path d="M129.033 53.0245C129.78 53.0164 130.527 53.0084 131.296 53.0001C141.857 52.982 152.192 55.0815 161.091 60.9723C162.273 61.7639 162.273 61.7639 163.912 62.2982C166.317 63.3463 168.371 64.9671 170.108 66.9351C170.108 67.585 170.108 68.235 170.108 68.9047C170.541 68.9047 170.975 68.9047 171.421 68.9047C172.819 70.3229 172.819 70.3229 174.417 72.2285C174.946 72.8454 175.475 73.4624 176.02 74.0981C177.492 76.3767 177.796 78.0415 177.987 80.7225C178.42 80.7225 178.853 80.7225 179.3 80.7225C180.54 86.2594 181.555 91.4283 181.269 97.1362C175.47 97.9818 169.675 97.8658 163.83 97.8338C162.781 97.8305 161.733 97.8275 160.684 97.8248C158.136 97.8176 155.587 97.8063 153.038 97.7927C152.607 96.9669 152.181 96.139 151.756 95.3102C151.518 94.8493 151.28 94.3885 151.034 93.9137C150.245 92.1717 149.945 90.4971 149.755 88.6011C149.322 88.6011 148.889 88.6011 148.442 88.6011C148.225 87.9105 148.009 87.2199 147.786 86.5083C146.225 82.8377 142.93 81.5369 139.497 79.9018C130.347 77.0124 117.475 77.9083 108.593 81.4227C105.605 83.0928 103.523 85.3062 102.484 88.6011C102.017 92.0313 102.264 95.3073 103.797 98.4493C105 99.188 105 99.188 106.423 99.7624C107.215 100.575 107.215 100.575 108.023 101.404C110.482 103.802 112.651 104.307 115.943 104.892C118.669 105.394 121.024 106.233 123.575 107.313C126.924 108.673 129.906 109.283 133.465 109.611C137.311 109.969 140.131 110.814 143.48 112.745C146.239 114.067 149.181 114.457 152.168 115.035C155.107 115.687 157.592 116.787 160.26 118.146C161.103 118.533 161.103 118.533 161.963 118.928C165.291 120.489 167.557 122.022 170.108 124.711C170.903 125.17 171.711 125.607 172.529 126.024C174.94 127.48 175.147 128.077 176.017 130.62C176.667 130.925 176.667 130.925 177.33 131.236C179.288 132.276 179.305 133.833 179.956 135.872C180.606 136.089 181.256 136.306 181.926 136.529C186.781 144.208 187.097 158.629 185.332 167.305C185.086 168.211 184.826 169.114 184.552 170.013C184.394 170.581 184.236 171.149 184.073 171.734C183.322 174.358 182.553 176.787 181.269 179.204C180.836 179.204 180.403 179.204 179.956 179.204C179.241 180.539 178.673 181.639 178.438 183.144C177.765 185.102 176.327 185.866 174.704 187.083C174.487 187.516 174.271 187.95 174.047 188.396C173.614 188.396 173.181 188.396 172.734 188.396C172.734 188.829 172.734 189.263 172.734 189.709C167.978 194.049 163.231 197.208 156.977 198.901C156.003 199.186 155.028 199.472 154.054 199.757C152.977 200.062 151.9 200.365 150.822 200.665C150.079 200.877 150.079 200.877 149.321 201.093C141.363 203.204 133.098 202.93 124.93 202.881C123.956 202.878 122.983 202.875 122.01 202.872C119.659 202.865 117.309 202.854 114.958 202.84C114.958 202.407 114.958 201.973 114.958 201.527C113.851 201.406 113.851 201.406 112.722 201.283C109.589 200.892 106.543 200.225 103.469 199.516C102.929 199.394 102.389 199.272 101.832 199.146C100.517 198.848 99.2025 198.546 97.888 198.244C97.888 197.811 97.888 197.378 97.888 196.931C97.0756 196.687 97.0756 196.687 96.2467 196.439C91.8261 194.86 88.6434 193.187 85.4137 189.709C84.664 189.118 83.9115 188.53 83.1568 187.945C80.3145 185.557 78.5036 182.514 76.8786 179.204C76.8786 178.771 76.8786 178.338 76.8786 177.891C76.4452 177.891 76.0119 177.891 75.5655 177.891C73.5402 174.35 72.574 171.464 72.2827 167.387C71.8494 167.387 71.4161 167.387 70.9696 167.387C69.7288 164.189 69.393 161.331 69.2462 157.949C69.2208 157.466 69.1954 156.982 69.1693 156.484C69.1079 155.304 69.0533 154.123 69 152.943C69.7922 152.91 70.5843 152.878 71.4005 152.845C72.4606 152.796 73.5206 152.746 74.5806 152.696C75.3601 152.666 75.3601 152.666 76.1553 152.635C78.6859 152.51 81.0201 152.292 83.4645 151.609C86.3214 150.825 89.0332 150.825 91.9791 150.891C92.4878 150.897 92.9964 150.903 93.5205 150.909C94.7576 150.924 95.9946 150.948 97.2315 150.973C97.4549 152.232 97.4549 152.232 97.6829 153.517C98.3612 156.646 99.6204 159.232 101.155 162.027C101.827 163.447 101.827 163.447 101.827 165.417C102.477 165.634 103.127 165.85 103.797 166.074C104.248 167.428 104.248 167.428 104.453 168.7C104.887 168.7 105.32 168.7 105.767 168.7C105.767 169.133 105.767 169.566 105.767 170.013C106.2 170.013 106.633 170.013 107.08 170.013C107.08 170.446 107.08 170.879 107.08 171.326C107.486 171.515 107.892 171.705 108.311 171.9C109.706 172.639 109.706 172.639 111.019 173.952C112.377 174.374 112.377 174.374 113.645 174.609C113.645 175.042 113.645 175.475 113.645 175.922C119.314 177.56 124.917 177.383 130.756 177.317C131.773 177.31 132.79 177.304 133.807 177.299C136.278 177.285 138.749 177.262 141.22 177.235C141.22 176.801 141.22 176.368 141.22 175.922C141.688 175.793 142.156 175.664 142.638 175.532C147.375 174.053 150.3 172.237 153.038 168.043C153.255 167.393 153.471 166.743 153.694 166.074C154.128 166.074 154.561 166.074 155.008 166.074C155.102 165.464 155.197 164.855 155.295 164.227C155.664 162.134 155.664 162.134 156.321 160.165C156.486 156.798 156.488 154.075 155.008 150.973C153.344 149.51 153.344 149.51 151.725 148.347C151.725 147.913 151.725 147.48 151.725 147.034C151.143 146.858 150.56 146.682 149.96 146.5C147.786 145.721 147.786 145.721 146.267 144.777C141.484 141.996 136.123 141.246 130.715 140.468C130.715 140.035 130.715 139.602 130.715 139.155C129.974 139.059 129.974 139.059 129.218 138.96C124.065 138.235 119.106 137.142 114.081 135.829C112.212 135.353 110.369 134.952 108.475 134.6C105.102 133.871 102.226 132.232 99.2011 130.62C98.0532 130.057 96.9043 129.496 95.7543 128.938C91.4083 126.748 88.4443 124.54 85.4137 120.772C84.4387 120.122 84.4387 120.122 83.444 119.459C82.7603 118.381 82.1066 117.284 81.4744 116.176C80.3149 114.5 79.1298 112.844 77.9429 111.188C72.8218 103.599 73.417 91.3067 75.0218 82.6409C75.9722 79.2873 77.6612 76.4361 79.5047 73.5005C79.7671 73.063 80.0295 72.6254 80.2998 72.1746C80.982 71.0795 80.982 71.0795 82.1309 69.5612C82.5642 69.5612 82.9976 69.5612 83.444 69.5612C83.6065 69.1821 83.769 68.8029 83.9364 68.4123C84.8773 66.7188 85.9285 65.5818 87.3833 64.3089C87.8166 64.3089 88.2499 64.3089 88.6964 64.3089C88.6964 63.8755 88.6964 63.4422 88.6964 62.9958C89.7797 62.7791 90.863 62.5625 91.9791 62.3392C91.9791 61.9059 91.9791 61.4726 91.9791 61.0261C92.6291 61.0261 93.2791 61.0261 93.9488 61.0261C93.9488 60.5928 93.9488 60.1595 93.9488 59.713C99.0596 56.8886 104.478 55.6691 110.198 54.7428C111.692 54.5269 111.692 54.5269 112.989 53.8041C118.3 53.0312 123.677 53.0275 129.033 53.0245Z" fill="#D1D5DB"/>
<path d="M101.828 198.901C108.328 200.201 108.328 200.201 114.959 201.527C114.959 201.744 114.959 201.96 114.959 202.184C111.382 202.327 108.478 202.248 105.111 200.871C104.488 200.627 103.865 200.383 103.223 200.132C102.533 199.848 102.533 199.848 101.828 199.557C101.828 199.341 101.828 199.124 101.828 198.901Z" fill="#E3E4E8"/>
<path d="M90.0088 62.3394C90.4421 62.556 90.8755 62.7727 91.3219 62.9959C90.776 63.4593 90.776 63.4593 90.2191 63.932C89.5057 64.5452 89.5057 64.5452 88.7778 65.1707C88.3055 65.5744 87.8333 65.9781 87.3467 66.394C85.9436 67.6188 85.9436 67.6188 84.7565 69.5614C84.3231 69.5614 83.8898 69.5614 83.4434 69.5614C84.3893 67.3542 85.5755 65.8902 87.3826 64.309C87.816 64.309 88.2493 64.309 88.6957 64.309C88.6957 63.8757 88.6957 63.4424 88.6957 62.9959C89.129 62.7792 89.5624 62.5626 90.0088 62.3394Z" fill="#DADEE3"/>
</svg>
