<svg width="256" height="256" viewBox="0 0 256 256" fill="none" xmlns="http://www.w3.org/2000/svg">
<circle cx="128" cy="128" r="126" fill="#120630"/>
<path fill-rule="evenodd" clip-rule="evenodd" d="M130.75 95.1835L145.05 52.4668C146.883 46.9668 152.567 43.6668 158.25 45.3168C163.933 46.7835 167.417 52.4668 166.133 58.1502L156.233 102.334C190.333 113.7 213.983 130.2 210.867 141.567C207.383 154.584 170.717 156.05 128.917 144.867C87.1167 133.684 56.3167 114.067 59.8 101.05C60.1667 99.7668 60.7167 98.6668 61.6333 97.7502C65.85 92.0668 82.5333 79.6002 120.85 81.9835C112.967 82.1668 103.983 85.8335 97.9333 90.6002C107.65 90.9668 119.017 92.4335 130.75 95.1835ZM131.483 112.967L151.1 54.3002C151.833 52.1002 153.85 50.8168 156.05 51.1835L138.633 116.084C135.517 115.167 133.133 114.067 131.483 112.967Z" fill="white"/>
<path d="M51.7333 142.117C130.567 175.667 192.35 165.767 210.683 150.184C208.3 154.95 205.183 160.45 202.617 165.034C199.317 170.9 194.183 175.484 187.95 178.234C185.933 179.15 183.55 180.067 180.983 181.167C163.567 187.767 143.217 190.334 120.3 187.584C120.3 187.584 131.117 192.717 150.367 194.734C137.9 200.234 125.25 205.917 115.167 210.684C113.883 211.234 112.417 211.417 110.95 211.05C109.483 210.684 108.383 209.767 107.467 208.667C97.75 194.917 83.6333 176.034 72.2667 161.184C61.6333 154.767 51.3667 146.884 44.7667 139.184C46.9667 139.917 49.1667 141.017 51.7333 142.117Z" fill="white"/>
</svg>
