<svg width="256" height="256" viewBox="0 0 256 256" fill="none" xmlns="http://www.w3.org/2000/svg">
<path d="M128.858 0.000706881C154.137 0.170258 178.8 7.82126 199.736 21.9889C220.672 36.1565 236.945 56.2063 246.501 79.6098C256.058 103.013 258.47 128.723 253.435 153.496C248.399 178.269 236.141 200.996 218.207 218.811C200.272 236.627 177.463 248.733 152.657 253.602C127.852 258.472 102.159 255.888 78.8203 246.175C55.4813 236.462 35.5409 220.056 21.5137 199.025C7.48647 177.995 0.000568594 153.281 0 128.002C0.114758 93.9402 13.7551 61.3192 37.9206 37.3146C62.086 13.3099 94.7972 -0.112222 128.858 0.000706881Z" fill="white"/>
<path d="M163.919 44.9223C168.034 42.5603 170.363 38.2999 170.438 33.8854L173.423 32.1719L190.702 61.9237C195.418 70.0448 192.643 80.416 184.503 85.0879L92.6434 137.812C88.5275 140.174 86.199 144.434 86.1243 148.849L83.1387 150.562L65.86 120.81C61.1436 112.689 63.9185 102.318 72.0587 97.6462L163.919 44.9223Z" fill="#0A72A3"/>
<path d="M163.919 118.561C168.034 116.199 170.363 111.938 170.438 107.524L173.423 105.811L190.702 135.562C195.418 143.683 192.643 154.055 184.503 158.727L92.6434 211.45C88.5275 213.812 86.199 218.073 86.1243 222.487L83.1387 224.201L65.86 194.449C61.1436 186.328 63.9185 175.957 72.0587 171.284L163.919 118.561Z" fill="#0A72A3"/>
</svg>
