<svg width="256" height="256" viewBox="0 0 256 256" fill="none" xmlns="http://www.w3.org/2000/svg">
<g clip-path="url(#clip0_1944_2006)">
<path d="M128 256C198.692 256 256 198.692 256 128C256 57.3075 198.692 0 128 0C57.3075 0 0 57.3075 0 128C0 198.692 57.3075 256 128 256Z" fill="white" stroke="black"/>
<path d="M148.516 71.6627C148.516 66.8183 144.202 62.3222 139.351 62.3222C134.162 62.3222 129.838 66.8183 129.838 71.6627C129.838 76.6765 134.153 81.1727 139.351 81.1727C144.193 81.1727 148.516 76.6765 148.516 71.6627ZM174.113 174.217L148.861 118.356C160.969 116.11 202.649 99.1604 208.874 62.3222C209.74 57.4809 206.627 54.5286 201.783 54.5286H174.972C165.641 54.5286 163.388 43.1265 151.284 43.1265H91.9646C72.5932 59.5548 61.527 85.4963 61.527 105.906C61.527 115.416 63.9461 123.891 69.1356 129.253L66.0231 140.146C56.1618 138.245 47.8629 137.373 41.2928 137.373C34.547 137.379 22.96 138.245 22.96 145.336C22.96 157.096 57.2034 182.519 108.566 198.957C138.831 208.643 167.539 213.133 187.601 213.133C203.009 213.133 213.197 210.359 214.753 205.697C217.003 198.603 200.572 186.67 174.113 174.217ZM70.0016 169.2L78.9939 134.96C81.3148 135.523 83.6935 135.812 86.0817 135.823C105.277 135.823 114.433 118.183 114.433 97.9493C114.433 82.2112 108.729 65.0895 98.0047 53.675H147.133C156.818 53.675 158.535 64.054 167.539 64.054H182.76C181.031 69.4131 184.316 77.0248 191.579 78.0602C180.177 98.1218 146.442 109.536 132.951 110.418L171.188 198.257C146.094 198.948 93.1757 183.555 70.0016 169.2Z" fill="black"/>
</g>
<defs>
<clipPath id="clip0_1944_2006">
<rect width="256" height="256" fill="white"/>
</clipPath>
</defs>
</svg>
