<svg width="256" height="256" viewBox="0 0 256 256" fill="none" xmlns="http://www.w3.org/2000/svg">
<g clip-path="url(#clip0_2560_1818)">
<mask id="mask0_2560_1818" style="mask-type:luminance" maskUnits="userSpaceOnUse" x="0" y="0" width="256" height="256">
<path d="M256 0H0V256H256V0Z" fill="white"/>
</mask>
<g mask="url(#mask0_2560_1818)">
<path d="M127.997 0H128.003C198.693 0 256 57.3066 256 127.998V128.003C256 198.693 198.693 256 128.003 256H127.997C57.3066 256 0 198.693 0 128.003V127.998C0 57.3066 57.3066 0 127.997 0Z" fill="#8D67B4"/>
<path d="M128.227 60.928L127.315 63.9867V152.692L128.227 153.577L169.387 129.242L128.227 60.928Z" fill="#B7B7B7"/>
<path d="M128.226 60.928L87.04 129.242L128.226 153.577V110.539V60.928Z" fill="white"/>
<path d="M128.227 161.385L127.718 162.002V193.61L128.227 195.086L169.414 137.049L128.227 161.385Z" fill="#949091"/>
<path d="M128.226 195.086V161.385L87.04 137.049L128.226 195.086Z" fill="white"/>
<path d="M128.229 153.578L169.39 129.242L128.229 110.539V153.578Z" fill="#949091"/>
<path d="M87.04 129.242L128.226 153.578V110.539L87.04 129.242Z" fill="#B1B1B1"/>
<path d="M128.229 153.578L169.39 129.242L128.229 110.539V153.578Z" fill="#949091"/>
<path d="M87.04 129.242L128.226 153.578V110.539L87.04 129.242Z" fill="#B1B1B1"/>
<path d="M81.6408 35.8401L35.8398 81.6411C38.5963 84.1852 46.145 91.1827 54.2872 98.8161C62.4638 78.3361 77.0558 62.2081 98.8158 53.6515L81.6408 35.8401Z" fill="white"/>
<path d="M81.6408 216.576L35.8398 170.775C38.5963 168.231 46.145 161.234 54.2872 153.6C62.4638 174.08 77.0558 190.208 98.8158 198.765L81.6408 216.576Z" fill="white"/>
<path d="M176.919 35.8401L222.72 81.6411C219.964 84.1852 212.415 91.1827 204.273 98.8161C196.096 78.3361 181.504 62.2081 159.744 53.6515L176.919 35.8401Z" fill="white"/>
<path d="M176.919 216.576L222.72 170.775C219.964 168.231 212.415 161.234 204.273 153.6C196.096 174.08 181.504 190.208 159.744 198.765L176.919 216.576Z" fill="white"/>
</g>
</g>
<defs>
<clipPath id="clip0_2560_1818">
<rect width="256" height="256" fill="white"/>
</clipPath>
</defs>
</svg>
