<svg width="256" height="256" viewBox="0 0 256 256" fill="none" xmlns="http://www.w3.org/2000/svg">
<g clip-path="url(#clip0_2458_232)">
<path d="M256 128C256 57.3075 198.692 0 128 0C57.3075 0 0 57.3075 0 128C0 198.692 57.3075 256 128 256C198.692 256 256 198.692 256 128Z" fill="#6746ED"/>
<path fill-rule="evenodd" clip-rule="evenodd" d="M53 53H203V203H53V53ZM66.6355 66.6355H189.365V107.547H175.724V80.2709H80.2709V162.089H66.6355V66.6355ZM66.6355 175.729H175.724V148.458V134.823H121.177V121.187H189.36V189.365H66.6355V175.729ZM148.463 107.547H162.104V93.9114H93.9214V162.094H162.104V148.453H107.552V107.547H148.463Z" fill="white"/>
</g>
<defs>
<clipPath id="clip0_2458_232">
<rect width="256" height="256" fill="white"/>
</clipPath>
</defs>
</svg>
