<svg width="256" height="256" viewBox="0 0 256 256" fill="none" xmlns="http://www.w3.org/2000/svg">
<g clip-path="url(#clip0_2087_9264)">
<path d="M253 128C253 58.9644 197.036 3 128 3C58.9644 3 3 58.9644 3 128C3 197.036 58.9644 253 128 253C197.036 253 253 197.036 253 128Z" fill="black"/>
<path d="M128 256C93.802 256 61.6727 242.683 37.4949 218.505C13.3172 194.327 0 162.198 0 128C0 93.802 13.3172 61.6727 37.4949 37.4949C61.6727 13.3172 93.802 0 128 0C162.198 0 194.327 13.3172 218.505 37.4949C242.683 61.6727 256 93.802 256 128C256 162.198 242.683 194.327 218.505 218.505C194.327 242.683 162.198 256 128 256ZM128 10.4081C63.1596 10.4081 10.4081 63.1596 10.4081 128C10.4081 192.84 63.1596 245.592 128 245.592C192.84 245.592 245.592 192.84 245.592 128C245.592 63.1596 192.84 10.4081 128 10.4081ZM112.743 90.5051L38.0121 72.0162L87.6606 130.909L46.9333 196.331L118.303 167.305L167.952 226.198L162.392 149.398L233.762 120.372L159.03 101.883L153.471 25.0828L112.743 90.5051Z" fill="#DB2877"/>
</g>
<defs>
<clipPath id="clip0_2087_9264">
<rect width="256" height="256" fill="white"/>
</clipPath>
</defs>
</svg>
