<svg width="317" height="317" viewBox="0 0 317 317" fill="none" xmlns="http://www.w3.org/2000/svg">
<g clip-path="url(#clip0_1359_41)">
<mask id="mask0_1359_41" style="mask-type:luminance" maskUnits="userSpaceOnUse" x="0" y="0" width="317" height="317">
<path d="M316.8 0H0V316.8H316.8V0Z" fill="white"/>
</mask>
<g mask="url(#mask0_1359_41)">
<path fill-rule="evenodd" clip-rule="evenodd" d="M158.4 -0.0756836C245.934 -0.0756836 316.876 70.866 316.876 158.4C316.876 245.934 245.934 316.875 158.4 316.875C70.8662 316.875 -0.0755615 245.934 -0.0755615 158.4C-0.0755615 70.866 70.8662 -0.0756836 158.4 -0.0756836Z" fill="#0AADFF"/>
<path d="M157.6 32C182.732 32 203.073 43.8516 203.073 58.4769C203.073 73.1022 182.69 84.9538 157.6 84.9538C132.468 84.9538 112.127 73.1022 112.127 58.4769C112.127 43.8516 132.51 32 157.6 32Z" fill="white"/>
<path d="M157.6 231.333C182.732 231.333 203.073 243.185 203.073 257.81C203.073 272.436 182.69 284.287 157.6 284.287C132.468 284.287 112.127 272.436 112.127 257.81C112.127 243.185 132.51 231.333 157.6 231.333Z" fill="white"/>
<path d="M48.3723 95.0405C60.9383 73.2706 81.3633 61.5871 94.0554 68.8998C106.706 76.2124 106.79 99.7891 94.2235 121.517C81.6575 143.287 61.2325 154.971 48.5404 147.658C35.8903 140.345 35.8062 116.768 48.3723 95.0405Z" fill="white"/>
<path d="M221.018 194.728C233.584 172.958 254.009 161.274 266.66 168.545C279.31 175.858 279.394 199.393 266.828 221.163C254.262 242.933 233.837 254.616 221.186 247.345C208.536 240.033 208.452 216.498 221.018 194.728Z" fill="white"/>
<path d="M48.5404 168.545C61.1905 161.232 81.6575 172.958 94.2235 194.686C106.79 216.456 106.706 239.991 94.0554 247.303C81.4054 254.616 60.9383 242.89 48.3723 221.163C35.8062 199.393 35.8903 175.858 48.5404 168.545Z" fill="white"/>
<path d="M221.186 68.8992C233.837 61.5866 254.262 73.3121 266.828 95.082C279.394 116.852 279.31 140.387 266.66 147.699C254.009 155.012 233.584 143.287 221.018 121.517C208.452 99.7471 208.536 76.2119 221.186 68.8992Z" fill="white"/>
</g>
</g>
<defs>
<clipPath id="clip0_1359_41">
<rect width="317" height="317" fill="white"/>
</clipPath>
</defs>
</svg>
