<svg width="256" height="256" viewBox="0 0 256 256" fill="none" xmlns="http://www.w3.org/2000/svg">
<path d="M123.807 3.19637C120.687 3.60566 117.451 3.46586 114.307 3.76995C107.504 4.4279 100.672 5.65346 94.083 7.48369C63.3116 16.032 36.7573 35.902 20.0508 63.1539C12.5159 75.4447 7.2182 89.1439 4.39044 103.271C-5.61225 153.243 16.3453 205.977 59.6094 233.414C71.4349 240.914 84.4364 246.44 98.0666 249.671C112.921 253.189 128.462 253.892 143.572 251.906C170.072 248.424 194.769 236.224 214.051 217.798C239.189 193.775 253.411 158.354 251.889 123.636C251.115 105.962 246.859 88.7478 239.139 72.8004C224.163 41.8674 195.702 18.222 162.877 8.38035C153.615 5.60355 144.154 4.08262 134.532 3.42406C131.066 3.18672 127.271 2.74192 123.807 3.19637Z" fill="#F569BF"/>
<path d="M156.927 44.1268C151.518 44.8516 148.289 48.1599 144.585 51.8059L134.557 61.6752L85.8054 109.655C79.6882 115.675 71.3679 121.63 73.2788 131.216C73.554 132.597 74.0569 133.929 74.7456 135.163C78.194 141.343 86.2202 143.92 92.7478 141.171C95.6861 139.936 97.473 137.473 100.153 135.901C105.797 132.594 113.044 133.29 117.741 137.896C119.041 139.172 120.187 140.628 120.914 142.3C122.861 146.774 122.39 152.119 119.524 156.117C117.83 158.481 115.34 160.453 113.267 162.494L94.7534 180.714C91.4732 183.942 87.3085 187.124 85.0817 191.19C79.7881 200.858 87.4091 212.463 98.456 211.986C103.735 211.758 107.288 208.31 110.798 204.856L120.517 195.29L170.194 146.399C176.154 140.534 184.389 134.636 182.8 125.294C182.581 124.002 182.163 122.672 181.569 121.498C178.334 115.114 170.298 112.048 163.561 114.734C160.432 115.982 158.511 118.562 155.692 120.215C149.855 123.639 142.689 122.538 137.951 117.854C136.536 116.456 135.485 114.843 134.777 112.995C133.093 108.603 133.813 103.605 136.568 99.7858C138.236 97.4744 140.55 95.5579 142.579 93.5605L161.709 74.733C164.909 71.5836 169.105 68.4763 171.103 64.4082C175.79 54.8666 168.184 42.6188 156.927 44.1268Z" fill="white"/>
</svg>
