<svg width="256" height="256" viewBox="0 0 256 256" fill="none" xmlns="http://www.w3.org/2000/svg">
<path d="M128.5 256C198.916 256 256 198.916 256 128.5C256 58.0837 198.916 1 128.5 1C58.0837 1 1 58.0837 1 128.5C1 198.916 58.0837 256 128.5 256Z" fill="#301748"/>
<path d="M133.342 213.415C129.03 209.441 124.996 205.175 121.271 200.647C112.378 189.206 92.5677 169.087 87.6453 164.07C81.9717 158.29 76.2446 152.522 70.6247 146.634C69.8065 145.789 68.4787 144.81 69.2834 143.388C70.0882 141.966 71.644 142.181 73.0121 142.262C73.6242 142.301 74.2262 142.437 74.796 142.664C78.8198 144.256 82.8436 145.87 86.8673 147.506C94.9149 150.752 102.788 154.118 110.849 157.163C115.704 159 117.757 157.163 116.844 152.08C116.08 147.828 115.007 143.656 113.867 139.472C113.606 138.552 113.548 137.586 113.696 136.642C113.845 135.697 114.196 134.796 114.727 134C115.257 133.205 115.954 132.534 116.769 132.033C117.583 131.533 118.497 131.215 119.446 131.102C121.11 130.861 122.786 130.821 124.449 130.687C126.113 130.552 127.816 130.15 128.473 128.219C128.79 127.366 128.826 126.435 128.575 125.561C128.324 124.687 127.799 123.917 127.078 123.363C121.606 118.092 116.201 112.767 110.782 107.429C97.2084 94.0165 83.6438 80.6039 70.0882 67.1913C62.0406 59.2779 54.0289 51.369 46.0528 43.4645C45.2615 42.6866 44.4299 42.0025 45.0603 40.782C45.6907 39.5614 46.7503 39.709 47.8367 39.9236C51.163 40.5942 53.5639 42.9816 56.1928 44.7789C63.2075 49.6074 70.5442 53.9263 77.6529 58.5C82.6155 61.6519 87.6587 64.6832 92.6079 67.8888C97.5572 71.0944 102.252 74.2598 107.12 77.3581C114.122 81.7976 121.19 86.1165 128.178 90.5695C135.716 95.3712 143.2 100.253 150.684 105.136C152.026 106.021 153.273 106.477 154.708 105.216C156.143 103.955 155.929 102.694 155.285 100.991C153.783 96.9673 150.979 93.7214 149.92 89.6038C149.544 88.2625 149.249 86.9212 150.591 85.8751C151.128 85.4417 151.79 85.1911 152.48 85.1598C153.17 85.1284 153.852 85.3179 154.427 85.7007C159.511 88.1085 164.459 90.7951 169.247 93.7483C175.082 97.4074 181.158 100.665 187.435 103.499C197.642 108.355 207.393 114.041 217.05 119.809C222.377 123.199 226.97 127.623 230.556 132.819C233.367 136.674 235.713 140.847 237.544 145.253C240.152 151.637 241.88 158.347 242.681 165.197C244.264 177.429 239.798 193.149 234.097 201.572C229.226 209.228 222.89 215.846 215.454 221.047C210.439 224.461 205.036 227.266 199.359 229.403C193.417 231.737 187.287 232.086 180.702 232.327C180.166 232.361 179.628 232.361 179.092 232.327C165.519 231.509 152.16 229.577 133.342 213.415ZM221.208 172.561C221.318 167.226 220.355 161.924 218.377 156.969C216.399 152.013 213.447 147.506 209.694 143.713C205.941 139.92 201.465 136.92 196.531 134.889C191.597 132.859 186.305 131.84 180.97 131.894C159.429 132.014 141.698 149.598 141.631 172.856C141.631 191.875 160.154 213.093 181.198 211.752C202.94 212.637 221.074 193.001 221.208 172.561Z" fill="url(#paint0_linear_741_46)"/>
<path d="M85.4993 120.774C85.4843 122.405 86.1071 123.977 87.2346 125.154C88.3622 126.332 89.9054 127.022 91.5349 127.078C92.3541 127.071 93.1631 126.896 93.912 126.565C94.6609 126.233 95.3339 125.751 95.8894 125.149C96.4449 124.547 96.8712 123.837 97.1419 123.064C97.4126 122.291 97.522 121.471 97.4633 120.654C97.3953 119.02 96.7067 117.473 95.5379 116.329C94.369 115.185 92.8079 114.53 91.1728 114.497C89.6004 114.611 88.1325 115.327 87.0754 116.496C86.0184 117.666 85.4537 119.199 85.4993 120.774Z" fill="url(#paint1_linear_741_46)"/>
<path d="M110.862 44.0674C114.497 44.0674 116.657 41.7336 116.643 38.0184C116.548 36.4899 115.889 35.0511 114.794 33.9806C113.699 32.9102 112.245 32.2843 110.715 32.2241C108.032 32.2241 104.344 35.6309 104.317 38.1927C104.411 39.838 105.152 41.3794 106.378 42.4802C107.604 43.581 109.217 44.1516 110.862 44.0674Z" fill="url(#paint2_linear_741_46)"/>
<path d="M45.2615 97.812C45.2982 97.0754 45.1799 96.3394 44.9143 95.6515C44.6487 94.9636 44.2417 94.339 43.7196 93.8182C43.1976 93.2974 42.572 92.8919 41.8834 92.628C41.1949 92.364 40.4586 92.2475 39.7221 92.286C38.2543 92.4194 36.8838 93.0772 35.8615 94.1389C34.8392 95.2005 34.2337 96.595 34.1559 98.0668C34.2606 99.4894 34.8864 100.823 35.9135 101.813C36.9405 102.803 38.2966 103.38 39.7221 103.432C40.4632 103.457 41.2014 103.328 41.8901 103.053C42.5788 102.779 43.2031 102.364 43.7236 101.836C44.2441 101.308 44.6495 100.678 44.9142 99.9851C45.1789 99.2925 45.2972 98.5526 45.2615 97.812Z" fill="url(#paint3_linear_741_46)"/>
<path d="M181.198 211.685C202.94 212.637 221.074 193.001 221.208 172.56C221.318 167.226 220.355 161.924 218.377 156.968C216.399 152.013 213.447 147.505 209.694 143.712C205.941 139.92 201.465 136.919 196.531 134.889C191.597 132.859 186.305 131.84 180.97 131.893C159.429 132.014 141.698 149.598 141.631 172.855C141.564 191.874 160.154 213.026 181.198 211.685Z" fill="url(#paint4_linear_741_46)"/>
<defs>
<linearGradient id="paint0_linear_741_46" x1="243.003" y1="136.092" x2="44.8189" y2="136.092" gradientUnits="userSpaceOnUse">
<stop stop-color="#E2107B"/>
<stop offset="1" stop-color="#301748"/>
</linearGradient>
<linearGradient id="paint1_linear_741_46" x1="97.4633" y1="120.774" x2="85.4456" y2="120.774" gradientUnits="userSpaceOnUse">
<stop stop-color="#E2107B"/>
<stop offset="1" stop-color="#0D1126"/>
</linearGradient>
<linearGradient id="paint2_linear_741_46" x1="116.643" y1="38.1525" x2="104.331" y2="38.1525" gradientUnits="userSpaceOnUse">
<stop stop-color="#E2107B"/>
<stop offset="1" stop-color="#0D1126"/>
</linearGradient>
<linearGradient id="paint3_linear_741_46" x1="45.2884" y1="97.8388" x2="34.1827" y2="97.8388" gradientUnits="userSpaceOnUse">
<stop stop-color="#E2107B"/>
<stop offset="1" stop-color="#0D1126"/>
</linearGradient>
<linearGradient id="paint4_linear_741_46" x1="242.641" y1="195.522" x2="143.656" y2="157.364" gradientUnits="userSpaceOnUse">
<stop stop-color="#301748"/>
<stop offset="1" stop-color="#E2107B"/>
</linearGradient>
</defs>
</svg>
