<svg width="256" height="256" viewBox="0 0 256 256" fill="none" xmlns="http://www.w3.org/2000/svg">
<g clip-path="url(#clip0_776_391)">
<path d="M256 128C256 57.3076 198.692 0 128 0C57.3076 0 0 57.3076 0 128C0 198.692 57.3076 256 128 256C198.692 256 256 198.692 256 128Z" fill="white"/>
<g filter="url(#filter0_d_776_391)">
<path d="M69.4667 118.105L67.9381 120.39C50.3593 147.807 54.1808 183.6 77.874 206.447C90.867 220.155 109.21 227.01 127.553 227.01C127.553 227.01 127.553 227.01 69.4667 118.105Z" fill="#00A3FF"/>
<path opacity="0.6" d="M127.552 150.853L69.4658 117.344C127.552 227.009 127.552 227.009 127.552 227.009C127.552 203.401 127.552 175.984 127.552 150.853Z" fill="#00A3FF"/>
<path opacity="0.6" d="M185.64 118.105L187.168 120.39C204.747 147.807 200.926 183.6 177.233 206.447C163.475 220.155 145.896 227.01 127.553 227.01C127.553 227.01 127.553 227.01 185.64 118.105Z" fill="#00A3FF"/>
<path opacity="0.2" d="M127.553 150.853L185.64 117.344C127.553 227.009 127.553 227.009 127.553 227.009C127.553 203.401 127.553 175.984 127.553 150.853Z" fill="#00A3FF"/>
<path opacity="0.2" d="M127.553 76.9785V134.096L177.997 105.918L127.553 76.9785Z" fill="#00A3FF"/>
<path opacity="0.6" d="M127.555 76.9785L77.1113 105.918L127.555 134.096V76.9785Z" fill="#00A3FF"/>
<path d="M127.555 29L77.1113 105.918L127.555 76.9787V29Z" fill="#00A3FF"/>
<path opacity="0.6" d="M127.553 76.9787L177.997 105.918L127.553 29V76.9787Z" fill="#00A3FF"/>
</g>
</g>
<defs>
<filter id="filter0_d_776_391" x="53.6" y="23.6" width="153.906" height="210.81" filterUnits="userSpaceOnUse" color-interpolation-filters="sRGB">
<feFlood flood-opacity="0" result="BackgroundImageFix"/>
<feColorMatrix in="SourceAlpha" type="matrix" values="0 0 0 0 0 0 0 0 0 0 0 0 0 0 0 0 0 0 127 0" result="hardAlpha"/>
<feOffset dx="3" dy="1"/>
<feGaussianBlur stdDeviation="3.2"/>
<feComposite in2="hardAlpha" operator="out"/>
<feColorMatrix type="matrix" values="0 0 0 0 0 0 0 0 0 0 0 0 0 0 0 0 0 0 0.25 0"/>
<feBlend mode="normal" in2="BackgroundImageFix" result="effect1_dropShadow_776_391"/>
<feBlend mode="normal" in="SourceGraphic" in2="effect1_dropShadow_776_391" result="shape"/>
</filter>
<clipPath id="clip0_776_391">
<rect width="256" height="256" fill="white"/>
</clipPath>
</defs>
</svg>
