<svg width="256" height="256" viewBox="0 0 256 256" fill="none" xmlns="http://www.w3.org/2000/svg">
<g clip-path="url(#clip0_1636_226)">
<path d="M0 128C0 198.692 57.3075 256 128 256C198.692 256 256 198.692 256 128C256 57.3075 198.692 0 128 0C57.3075 0 0 57.3075 0 128Z" fill="white"/>
<path d="M74.3404 118.421L72.9499 120.531C56.9593 145.852 60.4355 178.909 81.9881 200.009C93.8072 212.67 110.493 219 127.179 219C127.179 219 127.179 219 74.3404 118.421Z" fill="#00A3FF"/>
<path opacity="0.6" d="M127.179 149.153L74.4946 118.421C127.179 219 127.179 219 127.179 219C127.179 197.347 127.179 172.203 127.179 149.153Z" fill="#00A3FF"/>
<path opacity="0.6" d="M180.806 118.421L182.217 120.531C198.447 145.852 194.919 178.909 173.044 200.009C160.343 212.67 144.114 219 127.179 219C127.179 219 127.179 219 180.806 118.421Z" fill="#00A3FF"/>
<path opacity="0.2" d="M127.179 149.153L180.821 118.421C127.179 219 127.179 219 127.179 219C127.179 197.347 127.179 172.203 127.179 149.153Z" fill="#00A3FF"/>
<path opacity="0.2" d="M127.179 81.0635V133.748L174.116 107.757L127.179 81.0635Z" fill="#00A3FF"/>
<path opacity="0.6" d="M127.179 81.0635L81.2 107.757L127.179 133.748V81.0635Z" fill="#00A3FF"/>
<path d="M127.179 37L81.2 107.884L127.179 81.2149V37Z" fill="#00A3FF"/>
<path opacity="0.6" d="M127.179 81.2149L174.116 107.884L127.179 37V81.2149Z" fill="#00A3FF"/>
</g>
<defs>
<clipPath id="clip0_1636_226">
<rect width="256" height="256" fill="white"/>
</clipPath>
</defs>
</svg>
