<svg width="256" height="256" viewBox="0 0 256 256" fill="none" xmlns="http://www.w3.org/2000/svg">
<g clip-path="url(#clip0_1333_2031)">
<mask id="mask0_1333_2031" style="mask-type:luminance" maskUnits="userSpaceOnUse" x="0" y="0" width="256" height="256">
<path d="M256 0H0V256H256V0Z" fill="white"/>
</mask>
<g mask="url(#mask0_1333_2031)">
<mask id="mask1_1333_2031" style="mask-type:luminance" maskUnits="userSpaceOnUse" x="0" y="0" width="256" height="256">
<path d="M256 0.638672H0.638794V256H256V0.638672Z" fill="white"/>
</mask>
<g mask="url(#mask1_1333_2031)">
<path d="M255.324 127.845C255.324 198.251 198.249 255.326 127.842 255.326C57.4363 255.326 0.360596 198.251 0.360596 127.845C0.360596 57.4389 57.4363 0.363281 127.842 0.363281C198.249 0.363281 255.324 57.4389 255.324 127.845Z" fill="url(#paint0_linear_1333_2031)"/>
<path d="M127.886 255.142C57.5568 255.142 0.543576 198.265 0.543579 128.103C0.543579 128.103 57.5568 101.961 127.886 101.961C198.215 101.961 255.229 128.103 255.229 128.103C255.229 198.265 198.215 255.142 127.886 255.142Z" fill="url(#paint1_linear_1333_2031)"/>
<path d="M197.478 110.289L127.845 39.1841L58.2065 110.289L93.0229 145.838L127.845 110.289L162.662 145.838L197.478 110.289Z" fill="white"/>
<path d="M124.819 210.059C121.358 210.059 118.38 209.434 115.884 208.187C113.429 206.899 111.538 205.088 110.209 202.754C108.921 200.379 108.278 197.582 108.278 194.362V166.954H116.246V194.604C116.246 197.179 116.971 199.212 118.42 200.701C119.909 202.19 122.042 202.935 124.819 202.935C127.596 202.935 129.709 202.19 131.158 200.701C132.647 199.212 133.392 197.179 133.392 194.604V166.954H141.361V194.362C141.361 197.582 140.697 200.379 139.368 202.754C138.081 205.088 136.189 206.899 133.694 208.187C131.239 209.434 128.281 210.059 124.819 210.059Z" fill="#1F2333"/>
<path d="M159.58 209.213V166.954H177.933C180.589 166.954 182.903 167.416 184.876 168.342C186.848 169.268 188.377 170.576 189.464 172.266C190.55 173.957 191.094 175.949 191.094 178.243V178.967C191.094 181.503 190.49 183.556 189.283 185.125C188.075 186.695 186.586 187.842 184.815 188.566V189.653C186.425 189.733 187.673 190.297 188.559 191.343C189.444 192.35 189.886 193.698 189.886 195.388V209.213H181.918V196.535C181.918 195.569 181.656 194.784 181.133 194.181C180.65 193.577 179.825 193.275 178.658 193.275H167.549V209.213H159.58ZM167.549 186.031H177.088C178.979 186.031 180.448 185.528 181.495 184.521C182.582 183.475 183.125 182.107 183.125 180.416V179.813C183.125 178.122 182.602 176.774 181.555 175.768C180.509 174.721 179.02 174.198 177.088 174.198H167.549V186.031Z" fill="#1F2333"/>
<path fill-rule="evenodd" clip-rule="evenodd" d="M63.5961 210.208V165.959H92.7527V175.193H73.5547V183.285H91.0628V192.519H73.5547V200.974H93.1154V210.208H63.5961ZM115.43 209.072L115.422 209.068C112.804 207.694 110.77 205.751 109.344 203.246L109.339 203.237L109.334 203.228C107.954 200.682 107.282 197.716 107.282 194.362V165.959H117.241V194.604C117.241 196.983 117.904 198.742 119.128 200.002C120.377 201.248 122.222 201.94 124.819 201.94C127.421 201.94 129.24 201.246 130.444 200.007L130.454 199.997C131.717 198.735 132.396 196.978 132.396 194.604V165.959H142.356V194.362C142.356 197.719 141.662 200.689 140.238 203.236C138.85 205.752 136.81 207.698 134.15 209.071L134.144 209.074C131.518 210.408 128.398 211.053 124.819 211.053C121.239 211.053 118.101 210.408 115.439 209.077L115.43 209.072ZM139.368 202.754C140.697 200.379 141.361 197.582 141.361 194.362V166.954H133.392V194.604C133.392 197.179 132.647 199.212 131.158 200.701C129.709 202.19 127.596 202.935 124.819 202.935C122.042 202.935 119.909 202.19 118.42 200.701C116.971 199.212 116.246 197.179 116.246 194.604V166.954H108.278V194.362C108.278 197.582 108.921 200.379 110.209 202.754C111.538 205.088 113.429 206.899 115.884 208.187C118.38 209.435 121.358 210.059 124.819 210.059C128.281 210.059 131.239 209.435 133.694 208.187C136.189 206.899 138.081 205.088 139.368 202.754ZM158.585 210.208V165.959H177.932C180.704 165.959 183.168 166.441 185.298 167.441C187.425 168.44 189.104 169.867 190.301 171.728C191.504 173.601 192.089 175.786 192.089 178.243V178.967C192.089 181.66 191.446 183.945 190.071 185.732C189.049 187.061 187.833 188.118 186.427 188.896C187.57 189.201 188.546 189.792 189.311 190.694C190.391 191.924 190.881 193.525 190.881 195.388V210.208H180.922V196.535C180.922 195.756 180.716 195.22 180.38 194.832L180.368 194.818L180.355 194.802C180.141 194.535 179.68 194.27 178.657 194.27H168.544V210.208H158.585ZM167.549 193.275H178.658C179.825 193.275 180.65 193.577 181.133 194.181C181.656 194.784 181.918 195.569 181.918 196.535V209.213H189.886V195.388C189.886 193.698 189.444 192.35 188.559 191.343C187.673 190.297 186.425 189.733 184.816 189.653V188.566C186.586 187.842 188.075 186.695 189.283 185.125C190.49 183.556 191.094 181.503 191.094 178.967V178.243C191.094 175.949 190.55 173.957 189.464 172.266C188.377 170.576 186.848 169.268 184.876 168.342C182.903 167.416 180.589 166.954 177.933 166.954H159.58V209.213H167.549V193.275ZM180.858 176.478L180.851 176.471C180.043 175.663 178.84 175.193 177.087 175.193H168.544V185.036H177.087C178.802 185.036 179.995 184.583 180.805 183.804C181.672 182.969 182.13 181.872 182.13 180.416V179.813C182.13 178.344 181.684 177.272 180.866 176.485L180.858 176.478ZM181.495 184.521C180.448 185.528 178.979 186.031 177.088 186.031H167.549V174.198H177.088C179.02 174.198 180.509 174.721 181.555 175.768C182.602 176.774 183.125 178.122 183.125 179.813V180.416C183.125 182.107 182.582 183.475 181.495 184.521Z" fill="#1F2333"/>
<path d="M163.765 29.4653C163.888 28.4491 165.393 28.4491 165.516 29.4653L166.548 37.9898C167.881 48.9973 176.736 57.6756 187.969 58.982L196.667 59.9932C197.704 60.1143 197.704 61.5887 196.667 61.7093L187.969 62.7205C176.736 64.0269 167.881 72.7051 166.548 83.7127L165.516 92.2372C165.393 93.2535 163.888 93.2535 163.765 92.2372L162.733 83.7127C161.4 72.7051 152.544 64.0269 141.313 62.7205L132.614 61.7093C131.577 61.5887 131.577 60.1143 132.614 59.9932L141.313 58.982C152.544 57.6756 161.4 48.9973 162.733 37.9898L163.765 29.4653Z" fill="url(#paint2_linear_1333_2031)"/>
</g>
</g>
</g>
<defs>
<linearGradient id="paint0_linear_1333_2031" x1="26.6481" y1="88.1603" x2="242.421" y2="120.234" gradientUnits="userSpaceOnUse">
<stop offset="1" stop-color="#6092FF"/>
</linearGradient>
<linearGradient id="paint1_linear_1333_2031" x1="50.7148" y1="126.799" x2="114.445" y2="245.934" gradientUnits="userSpaceOnUse">
<stop offset="1" stop-color="#76A0FC"/>
</linearGradient>
<linearGradient id="paint2_linear_1333_2031" x1="160.4" y1="67.0157" x2="185.981" y2="44.3928" gradientUnits="userSpaceOnUse">
<stop stop-color="#FDCEAA"/>
<stop offset="1" stop-color="#FAF1E7"/>
</linearGradient>
<clipPath id="clip0_1333_2031">
<rect width="256" height="256" fill="white"/>
</clipPath>
</defs>
</svg>
