<svg width="256" height="256" viewBox="0 0 256 256" fill="none" xmlns="http://www.w3.org/2000/svg">
<mask id="mask0_1609_81" style="mask-type:luminance" maskUnits="userSpaceOnUse" x="0" y="0" width="256" height="256">
<path d="M0.255371 0.0527344H255.744V255.542H0.255371V0.0527344Z" fill="white"/>
</mask>
<g mask="url(#mask0_1609_81)">
<path d="M255.068 127.323C255.068 197.764 197.964 254.868 127.523 254.868C57.0811 254.868 -0.0227051 197.764 -0.0227051 127.323C-0.0227051 56.8812 57.0811 -0.222656 127.522 -0.222656C197.963 -0.222656 255.067 56.8812 255.067 127.323H255.068Z" fill="url(#paint0_linear_1609_81)"/>
<path d="M127.566 254.684C57.2017 254.684 0.159668 197.778 0.159668 127.581C0.159668 127.581 57.2017 101.426 127.566 101.426C197.931 101.426 254.973 127.581 254.973 127.581C254.973 197.778 197.931 254.684 127.566 254.684Z" fill="url(#paint1_linear_1609_81)"/>
<path d="M197.193 109.758L127.526 38.6172L57.8518 109.758L92.6857 145.324L127.526 109.758L162.36 145.324L197.193 109.758Z" fill="white"/>
<path d="M124.498 209.577C121.035 209.577 118.055 208.952 115.559 207.704C113.102 206.416 111.21 204.603 109.881 202.268C108.592 199.892 107.948 197.094 107.948 193.872V166.45H115.921V194.114C115.921 196.691 116.645 198.725 118.095 200.215C119.585 201.704 121.719 202.449 124.498 202.449C127.276 202.449 129.39 201.704 130.84 200.215C132.33 198.725 133.075 196.691 133.075 194.114V166.45H141.048V193.872C141.048 197.094 140.383 199.892 139.054 202.268C137.766 204.603 135.873 206.416 133.377 207.704C130.921 208.952 127.961 209.577 124.498 209.577ZM159.276 208.731V166.45H177.638C180.296 166.45 182.611 166.913 184.584 167.839C186.557 168.765 188.088 170.074 189.175 171.765C190.262 173.457 190.806 175.45 190.806 177.745V178.47C190.806 181.007 190.202 183.061 188.994 184.631C187.786 186.201 186.296 187.349 184.524 188.074V189.161C186.135 189.241 187.383 189.805 188.269 190.852C189.155 191.859 189.598 193.208 189.598 194.899V208.731H181.625V196.047C181.625 195.08 181.363 194.295 180.84 193.691C180.356 193.087 179.531 192.785 178.363 192.785H167.249V208.731H159.276ZM167.249 185.537H176.793C178.685 185.537 180.155 185.033 181.202 184.027C182.289 182.98 182.833 181.611 182.833 179.92V179.316C182.833 177.624 182.309 176.275 181.262 175.269C180.216 174.222 178.726 173.698 176.793 173.698H167.249V185.537Z" fill="#1F2333"/>
<path fill-rule="evenodd" clip-rule="evenodd" d="M63.2441 209.727V165.455H92.4154V174.694H73.2077V182.79H90.7245V192.029H73.2077V200.488H92.7782V209.727H63.2441ZM115.104 208.59L115.096 208.586C112.476 207.212 110.442 205.267 109.015 202.761L109.01 202.752L109.005 202.743C107.624 200.196 106.952 197.228 106.952 193.873V165.455H116.916V194.114C116.916 196.494 117.579 198.254 118.804 199.516C120.053 200.762 121.899 201.454 124.498 201.454C127.101 201.454 128.921 200.76 130.126 199.52L130.136 199.511C131.399 198.248 132.079 196.49 132.079 194.114V165.455H142.043V193.873C142.043 197.231 141.349 200.203 139.925 202.751C138.536 205.268 136.494 207.215 133.833 208.589L133.828 208.592C131.2 209.927 128.078 210.572 124.498 210.572C120.916 210.572 117.777 209.927 115.113 208.595L115.104 208.59ZM139.054 202.268C140.383 199.892 141.048 197.094 141.048 193.873V166.45H133.075V194.114C133.075 196.691 132.33 198.725 130.84 200.215C129.39 201.704 127.276 202.449 124.498 202.449C121.719 202.449 119.585 201.704 118.095 200.215C116.645 198.725 115.921 196.691 115.921 194.114V166.45H107.948V193.873C107.948 197.094 108.592 199.892 109.881 202.268C111.21 204.604 113.102 206.416 115.559 207.704C118.055 208.953 121.035 209.577 124.498 209.577C127.961 209.577 130.921 208.953 133.377 207.704C135.874 206.416 137.766 204.604 139.054 202.268ZM158.28 209.727V165.455H177.638C180.41 165.455 182.876 165.938 185.007 166.938C187.135 167.937 188.815 169.366 190.012 171.228C191.217 173.101 191.801 175.287 191.801 177.745V178.47C191.801 181.165 191.158 183.45 189.782 185.238C188.76 186.568 187.543 187.626 186.136 188.404C187.28 188.709 188.256 189.3 189.022 190.202C190.102 191.433 190.593 193.035 190.593 194.899V209.727H180.629V196.047C180.629 195.268 180.423 194.731 180.087 194.343L180.074 194.328L180.062 194.313C179.848 194.046 179.386 193.781 178.363 193.781H168.245V209.727H158.28ZM167.249 192.785H178.363C179.531 192.785 180.356 193.087 180.84 193.691C181.363 194.295 181.625 195.081 181.625 196.047V208.731H189.598V194.899C189.598 193.208 189.155 191.859 188.269 190.852C187.383 189.806 186.135 189.242 184.524 189.161V188.074C186.296 187.349 187.786 186.201 188.994 184.631C190.202 183.061 190.806 181.007 190.806 178.47V177.745C190.806 175.45 190.262 173.457 189.175 171.766C188.088 170.074 186.557 168.766 184.585 167.839C182.611 166.913 180.296 166.45 177.638 166.45H159.276V208.731H167.249V192.785ZM180.565 175.98L180.558 175.973C179.75 175.164 178.545 174.694 176.792 174.694H168.245V184.542H176.792C178.508 184.542 179.701 184.089 180.512 183.31C181.379 182.474 181.837 181.376 181.837 179.92V179.316C181.837 177.847 181.391 176.774 180.572 175.986L180.565 175.98ZM181.202 184.027C180.155 185.034 178.685 185.537 176.793 185.537H167.249V173.699H176.793C178.726 173.699 180.216 174.222 181.262 175.269C182.309 176.276 182.833 177.625 182.833 179.316V179.92C182.833 181.611 182.289 182.98 181.202 184.027Z" fill="#1F2333"/>
<path d="M163.463 28.8935C163.586 27.8766 165.092 27.8766 165.215 28.8935L166.247 37.4222C167.581 48.4353 176.441 57.1179 187.679 58.425L196.381 59.4367C197.419 59.5578 197.419 61.033 196.381 61.1536L187.679 62.1653C176.441 63.4724 167.581 72.1549 166.247 83.1681L165.215 91.6968C165.092 92.7136 163.586 92.7136 163.463 91.6968L162.43 83.1681C161.097 72.1549 152.237 63.4724 141 62.1653L132.297 61.1536C131.259 61.033 131.259 59.5578 132.297 59.4367L141 58.425C152.237 57.1179 161.097 48.4353 162.43 37.4222L163.463 28.8935Z" fill="url(#paint2_linear_1609_81)"/>
</g>
<defs>
<linearGradient id="paint0_linear_1609_81" x1="26.2773" y1="87.618" x2="242.159" y2="119.708" gradientUnits="userSpaceOnUse">
<stop stop-color="#FAF1E7"/>
<stop offset="1" stop-color="#6092FF"/>
</linearGradient>
<linearGradient id="paint1_linear_1609_81" x1="50.3561" y1="126.276" x2="114.118" y2="245.471" gradientUnits="userSpaceOnUse">
<stop offset="0.073" stop-color="#AAC4FD"/>
<stop offset="1" stop-color="#76A0FC"/>
</linearGradient>
<linearGradient id="paint2_linear_1609_81" x1="160.097" y1="66.4626" x2="185.691" y2="43.8284" gradientUnits="userSpaceOnUse">
<stop stop-color="#FDCEAA"/>
<stop offset="1" stop-color="#FAF1E7"/>
</linearGradient>
</defs>
</svg>
