<svg width="256" height="256" viewBox="0 0 256 256" fill="none" xmlns="http://www.w3.org/2000/svg">
<g clip-path="url(#clip0_1739_106)">
<path d="M256 128C256 57.3076 198.692 0 128 0C57.3076 0 0 57.3076 0 128C0 198.692 57.3076 256 128 256C198.692 256 256 198.692 256 128Z" fill="black"/>
<mask id="mask0_1739_106" style="mask-type:luminance" maskUnits="userSpaceOnUse" x="41" y="41" width="174" height="174">
<path d="M214.861 41.1406H41.1406V214.861H214.861V41.1406Z" fill="white"/>
</mask>
<g mask="url(#mask0_1739_106)">
<mask id="mask1_1739_106" style="mask-type:luminance" maskUnits="userSpaceOnUse" x="41" y="41" width="174" height="174">
<path d="M214.861 41.1406H41.1406V214.861H214.861V41.1406Z" fill="white"/>
</mask>
<g mask="url(#mask1_1739_106)">
<path d="M145.252 48.0112L149.883 58.9154C158.995 80.1261 175.874 97.1546 197.235 106.266L208.138 110.897C210.977 112.092 213.217 113.884 215.01 115.976C209.632 77.2884 179.011 46.6668 140.323 41.2894C142.265 42.9325 144.058 45.1731 145.252 48.0112ZM48.0111 110.748L58.9153 106.117C80.1261 97.0055 97.1545 80.1261 106.266 58.766L110.897 47.8618C111.942 45.1731 113.735 42.7832 115.976 40.9907C77.2883 46.3681 46.6668 76.9895 41.2894 115.677C42.9325 113.735 45.173 111.942 48.0111 110.748ZM207.989 145.253L197.085 149.884C175.874 158.995 158.845 175.874 149.734 197.235L145.103 207.989C144.058 210.678 142.265 213.068 140.024 214.86C178.712 209.483 209.334 178.862 214.711 140.174C213.067 142.415 210.678 144.207 207.989 145.253ZM110.747 207.989L106.117 197.235C97.0054 176.024 80.1261 158.995 58.7659 149.884L47.8617 145.253C45.173 144.207 42.7831 142.415 40.9906 140.174C46.368 178.862 76.9894 209.483 115.677 214.86C113.586 213.068 111.942 210.678 110.747 207.989Z" fill="#999999"/>
</g>
<path d="M88.6419 119.561L94.0192 117.32C104.475 112.839 112.84 104.474 117.322 94.0179L119.562 88.6407C122.699 81.1719 133.304 81.1719 136.591 88.6407L138.831 94.0179C143.313 104.474 151.677 112.839 162.133 117.32L167.511 119.561C174.979 122.698 174.979 133.303 167.511 136.589L162.133 138.829C151.677 143.311 143.313 151.676 138.831 162.132L136.591 167.509C133.454 174.978 122.849 174.978 119.562 167.509L117.322 162.132C112.84 151.676 104.475 143.311 94.0192 138.829L88.6419 136.589C81.1737 133.303 81.1737 122.698 88.6419 119.561Z" fill="white"/>
</g>
</g>
<defs>
<clipPath id="clip0_1739_106">
<rect width="256" height="256" fill="white"/>
</clipPath>
</defs>
</svg>
