<svg width="256" height="256" viewBox="0 0 256 256" fill="none" xmlns="http://www.w3.org/2000/svg">
<g clip-path="url(#clip0_741_46)">
<path d="M128.442 227.664C183.137 227.664 227.476 183.447 227.476 128.903C227.476 74.3584 183.137 30.1416 128.442 30.1416C73.7477 30.1416 29.4089 74.3584 29.4089 128.903C29.4089 183.447 73.7477 227.664 128.442 227.664Z" fill="#F0B90B"/>
<path d="M253.884 128.903C253.884 145.331 250.64 161.598 244.336 176.776C238.031 191.954 228.792 205.744 217.144 217.361C205.495 228.977 191.667 238.191 176.447 244.477C161.228 250.765 144.916 254 128.442 254C111.969 254 95.6571 250.765 80.4378 244.477C65.2183 238.191 51.3896 228.977 39.7413 217.361C28.0929 205.744 18.8528 191.954 12.5487 176.776C6.24467 161.598 3 145.331 3 128.903H33.0654C33.0654 141.393 35.5324 153.762 40.3255 165.302C45.1186 176.841 52.1441 187.326 61.0006 196.158C69.8573 204.992 80.3716 211.997 91.9432 216.777C103.515 221.557 115.917 224.017 128.442 224.017C140.968 224.017 153.37 221.557 164.942 216.777C176.514 211.997 187.028 204.992 195.884 196.158C204.741 187.326 211.767 176.841 216.56 165.302C221.353 153.762 223.82 141.393 223.82 128.903H253.884Z" fill="#C73238"/>
<path d="M227.476 128.903C227.476 141.872 224.914 154.715 219.937 166.697C214.96 178.679 207.665 189.566 198.469 198.737C189.274 207.909 178.356 215.183 166.341 220.146C154.326 225.11 141.448 227.664 128.442 227.664C115.437 227.664 102.559 225.11 90.544 220.146C78.5287 215.183 67.6113 207.909 58.4151 198.737C49.2191 189.566 41.9244 178.679 36.9474 166.697C31.9705 154.715 29.4089 141.872 29.4089 128.903H128.442H227.476Z" fill="#070B09"/>
<path d="M84.1815 130.573L84.2529 156.687L106.504 169.745V185.033L71.231 164.403V122.936L84.1815 130.573ZM84.1815 104.458V119.676L71.223 112.031V96.8135L84.1815 89.1689L97.2034 96.8135L84.1815 104.458ZM115.796 96.8135L128.754 89.1689L141.776 96.8135L128.754 104.458L115.796 96.8135Z" fill="white"/>
<path d="M93.5454 151.274V135.985L106.504 143.63V158.848L93.5454 151.274ZM115.796 175.22L128.755 182.865L141.777 175.22V190.438L128.755 198.083L115.796 190.438V175.22ZM160.361 96.8135L173.319 89.1689L186.342 96.8135V112.031L173.319 119.676V104.458L160.361 96.8135ZM173.319 156.687L173.392 130.573L186.35 122.928V164.395L151.077 185.026V169.737L173.319 156.687Z" fill="white"/>
<path d="M164.027 151.275L151.069 158.848V143.63L164.027 135.986V151.275Z" fill="white"/>
<path d="M164.027 109.871L164.099 125.16L141.785 138.217V164.395L128.826 171.968L115.868 164.395V138.217L93.5534 125.16V109.871L106.568 102.226L128.747 115.347L151.061 102.226L164.083 109.871H164.027ZM93.5454 83.7639L128.755 63.062L164.027 83.7639L151.069 91.4082L128.755 78.2877L106.504 91.4082L93.5454 83.7639Z" fill="white"/>
</g>
<defs>
<clipPath id="clip0_741_46">
<rect width="252" height="248" fill="white" transform="translate(3 6)"/>
</clipPath>
</defs>
</svg>
