<svg width="114" height="114" viewBox="0 0 114 114" fill="none" xmlns="http://www.w3.org/2000/svg">
<path d="M57 102C81.8528 102 102 81.8528 102 57C102 32.1472 81.8528 12 57 12C32.1472 12 12 32.1472 12 57C12 81.8528 32.1472 102 57 102Z" fill="url(#paint0_linear_528_609)"/>
<path d="M114 57C114 64.4853 112.526 71.8974 109.661 78.813C106.797 85.7285 102.598 92.0121 97.3051 97.3051C92.0121 102.598 85.7285 106.797 78.813 109.661C71.8974 112.526 64.4853 114 57 114C49.5147 114 42.1026 112.526 35.187 109.661C28.2715 106.797 21.9879 102.598 16.6949 97.3051C11.402 92.0121 7.20338 85.7285 4.33886 78.813C1.47435 71.8974 -6.5439e-07 64.4853 0 57H13.6615C13.6615 62.6913 14.7824 68.3269 16.9604 73.5849C19.1384 78.843 22.3307 83.6206 26.355 87.645C30.3794 91.6693 35.157 94.8616 40.4151 97.0396C45.6731 99.2176 51.3087 100.339 57 100.339C62.6913 100.339 68.3269 99.2176 73.5849 97.0396C78.843 94.8616 83.6206 91.6693 87.645 87.645C91.6693 83.6206 94.8616 78.843 97.0396 73.5849C99.2176 68.3269 100.339 62.6913 100.339 57H114Z" fill="#C73238"/>
<path d="M102 57C102 62.9095 100.836 68.7611 98.5746 74.2208C96.3131 79.6804 92.9984 84.6412 88.8198 88.8198C84.6412 92.9984 79.6804 96.3131 74.2208 98.5746C68.7611 100.836 62.9095 102 57 102C51.0905 102 45.2389 100.836 39.7792 98.5746C34.3196 96.3131 29.3588 92.9984 25.1802 88.8198C21.0016 84.6412 17.6869 79.6804 15.4254 74.2208C13.164 68.7611 12 62.9095 12 57L57 57H102Z" fill="#070B09"/>
<path d="M56.1251 82.4727C68.6392 82.4727 78.7839 72.1639 78.7839 59.4475C78.7839 46.7311 68.6392 36.4224 56.1251 36.4224C43.611 36.4224 33.4663 46.7311 33.4663 59.4475C33.4663 72.1639 43.611 82.4727 56.1251 82.4727Z" fill="white"/>
<path d="M82.8542 38.0652C82.2991 35.8901 80.5142 33.715 77.3018 31.2935C74.7237 29.3646 71.987 28.2566 69.8057 28.2566C69.3694 28.2566 68.9729 28.2976 68.5762 28.3797C67.5847 28.5848 66.7122 29.3236 66.1569 30.4317C65.4826 31.745 65.324 33.5098 65.7603 34.5767C65.9189 34.9051 66.1173 35.3155 66.3552 35.6849C64.2532 36.9981 63.0634 37.3675 62.9048 37.4087C68.378 39.2964 72.939 43.2363 75.7946 48.3665L75.8343 47.8738C75.9532 46.5196 76.3498 44.96 76.9051 43.3594C77.4603 43.5236 78.0156 43.6057 78.5709 43.6057C80.0383 43.6057 81.3075 42.9901 82.1007 41.8819C82.894 40.7739 83.2113 39.2964 82.8542 38.0652Z" fill="white"/>
<path d="M56.4795 35.1511C43.5103 35.1511 33 46.0269 33 59.4472C33 72.8675 43.5103 83.7432 56.4795 83.7432C69.4487 83.7432 79.9588 72.8675 79.9588 59.4472C79.9588 46.0269 69.409 35.1511 56.4795 35.1511ZM56.4795 82.3888C44.2241 82.3888 34.3089 72.1287 34.3089 59.4472C34.3089 46.7657 44.2241 36.5055 56.4795 36.5055C68.7348 36.5055 78.6501 46.7657 78.6501 59.4472C78.6501 72.1287 68.6952 82.3888 56.4795 82.3888Z" fill="white"/>
<path d="M77.5406 59.2419C77.5406 71.2668 68.1012 81.0345 56.4806 81.0345C44.8599 81.0345 35.3809 71.2668 35.3809 59.2419H77.5406Z" fill="#070B09"/>
<path d="M77.501 59.4473C77.501 56.9439 73.2969 55.5075 67.7046 55.0151C63.6593 54.6866 59.5741 55.097 54.8941 56.5746C50.8486 57.8057 47.1998 57.6005 44.5425 57.2722C38.633 56.5746 35.3809 56.4924 35.3809 59.4473C35.3809 63.7156 43.7889 69.0509 56.4012 67.204C62.7867 66.2601 66.0786 64.3313 69.8464 63.018C73.9316 61.6225 77.501 61.6636 77.501 59.4473Z" fill="#070B09"/>
<path d="M63.3809 49.1053C65.3524 49.1053 66.9507 47.4516 66.9507 45.4117C66.9507 43.3718 65.3524 41.718 63.3809 41.718C61.4094 41.718 59.811 43.3718 59.811 45.4117C59.811 47.4516 61.4094 49.1053 63.3809 49.1053Z" fill="#070B09"/>
<path d="M69.2109 51.8549C70.0434 51.8549 70.7181 51.1567 70.7181 50.2953C70.7181 49.434 70.0434 48.7358 69.2109 48.7358C68.3785 48.7358 67.7036 49.434 67.7036 50.2953C67.7036 51.1567 68.3785 51.8549 69.2109 51.8549Z" fill="#070B09"/>
<defs>
<linearGradient id="paint0_linear_528_609" x1="12.0713" y1="56.9475" x2="102.122" y2="56.9475" gradientUnits="userSpaceOnUse">
<stop stop-color="#000292" stop-opacity="0.7"/>
<stop offset="1" stop-color="#7D00C7" stop-opacity="0.7"/>
</linearGradient>
</defs>
</svg>
