<svg width="256" height="255" viewBox="0 0 256 255" fill="none" xmlns="http://www.w3.org/2000/svg">
<path d="M127.719 227.66C183.045 227.66 227.897 182.693 227.897 127.222C227.897 71.7515 183.045 26.7837 127.719 26.7837C72.3921 26.7837 27.541 71.7515 27.541 127.222C27.541 182.693 72.3921 227.66 127.719 227.66Z" fill="url(#paint0_linear_2641_10127)"/>
<path d="M254.61 127.222C254.61 143.929 251.327 160.473 244.95 175.908C238.574 191.343 229.226 205.368 217.444 217.182C205.661 228.995 191.672 238.367 176.277 244.76C160.882 251.153 144.382 254.445 127.718 254.445C111.054 254.445 94.5538 251.153 79.1586 244.76C63.7633 238.367 49.7749 228.995 37.9919 217.182C26.209 205.368 16.8621 191.343 10.4852 175.908C4.10832 160.473 0.82617 143.929 0.826172 127.222H31.2389C31.2389 139.925 33.7344 152.503 38.5829 164.239C43.4314 175.975 50.5381 186.638 59.4969 195.62C68.4558 204.603 79.0916 211.728 90.7969 216.59C102.502 221.45 115.048 223.952 127.718 223.952C140.388 223.952 152.933 221.45 164.639 216.59C176.344 211.728 186.98 204.603 195.94 195.62C204.898 186.638 212.004 175.975 216.853 164.239C221.701 152.503 224.198 139.925 224.198 127.222H254.61Z" fill="#C73238"/>
<path d="M227.897 127.222C227.897 140.412 225.305 153.473 220.27 165.658C215.237 177.843 207.857 188.917 198.555 198.243C189.253 207.57 178.21 214.968 166.055 220.015C153.901 225.063 140.874 227.66 127.719 227.66C114.563 227.66 101.536 225.063 89.3823 220.015C77.2283 214.968 66.1847 207.57 56.8823 198.243C47.58 188.917 40.2009 177.843 35.1665 165.658C30.1321 153.473 27.541 140.412 27.541 127.222H127.719H227.897Z" fill="#070B09"/>
<path d="M125.773 184.673C153.631 184.673 176.215 161.867 176.215 133.734C176.215 105.6 153.631 82.793 125.773 82.793C97.9139 82.793 75.3301 105.6 75.3301 133.734C75.3301 161.867 97.9139 184.673 125.773 184.673Z" fill="white"/>
<path d="M185.276 86.4276C184.041 81.6154 180.066 76.803 172.915 71.4459C167.176 67.1784 161.084 64.7271 156.228 64.7271C155.256 64.7271 154.374 64.8179 153.491 64.9994C151.283 65.4532 149.341 67.0877 148.105 69.5392C146.604 72.4447 146.251 76.349 147.222 78.7097C147.575 79.436 148.017 80.344 148.546 81.1614C143.867 84.0667 141.218 84.8839 140.865 84.9751C153.05 89.1514 163.203 97.8681 169.56 109.218L169.648 108.128C169.912 105.132 170.797 101.681 172.032 98.1404C173.269 98.5036 174.504 98.6852 175.741 98.6852C179.007 98.6852 181.833 97.3232 183.598 94.8716C185.364 92.4202 186.07 89.1514 185.276 86.4276Z" fill="white"/>
<path d="M126.561 79.981C97.6887 79.981 74.291 104.043 74.291 133.733C74.291 163.424 97.6887 187.485 126.561 187.485C155.432 187.485 178.83 163.424 178.83 133.733C178.83 104.043 155.344 79.981 126.561 79.981ZM126.561 184.488C99.2779 184.488 77.2049 161.79 77.2049 133.733C77.2049 105.677 99.2779 82.9775 126.561 82.9775C153.843 82.9775 175.916 105.677 175.916 133.733C175.916 161.79 153.755 184.488 126.561 184.488Z" fill="white"/>
<path d="M173.444 133.279C173.444 159.883 152.431 181.493 126.562 181.493C100.692 181.493 79.5898 159.883 79.5898 133.279H173.444Z" fill="#070B09"/>
<path d="M173.356 133.733C173.356 128.195 163.998 125.017 151.548 123.927C142.542 123.201 133.448 124.109 123.03 127.377C114.024 130.101 105.901 129.647 99.9852 128.921C86.8297 127.377 79.5898 127.196 79.5898 133.733C79.5898 143.176 98.3076 154.98 126.385 150.894C140.6 148.805 147.928 144.538 156.316 141.633C165.41 138.545 173.356 138.636 173.356 133.733Z" fill="#070B09"/>
<path d="M141.923 110.852C146.311 110.852 149.869 107.194 149.869 102.681C149.869 98.1675 146.311 94.5088 141.923 94.5088C137.534 94.5088 133.977 98.1675 133.977 102.681C133.977 107.194 137.534 110.852 141.923 110.852Z" fill="#070B09"/>
<path d="M154.902 116.936C156.755 116.936 158.257 115.391 158.257 113.485C158.257 111.58 156.755 110.035 154.902 110.035C153.049 110.035 151.547 111.58 151.547 113.485C151.547 115.391 153.049 116.936 154.902 116.936Z" fill="#070B09"/>
<defs>
<linearGradient id="paint0_linear_2641_10127" x1="27.6998" y1="127.105" x2="228.168" y2="127.105" gradientUnits="userSpaceOnUse">
<stop stop-color="#000292" stop-opacity="0.7"/>
<stop offset="1" stop-color="#7D00C7" stop-opacity="0.7"/>
</linearGradient>
</defs>
</svg>
