<svg width="256" height="256" viewBox="0 0 256 256" fill="none" xmlns="http://www.w3.org/2000/svg">
<g clip-path="url(#clip0_2295_610)">
<path fill-rule="evenodd" clip-rule="evenodd" d="M128 0C198.697 0 256 57.3026 256 128C256 198.697 198.697 256 128 256C57.3026 256 0 198.697 0 128C0 57.3026 57.3026 0 128 0Z" fill="#11245A"/>
<path fill-rule="evenodd" clip-rule="evenodd" d="M122.402 120.758C122.402 116.302 118.733 112.694 114.211 112.694C109.694 112.694 106.03 116.307 106.03 120.758C106.03 125.209 109.694 128.817 114.211 128.817C118.733 128.817 122.402 125.209 122.402 120.758ZM74.1478 202.991C73.7444 202.989 73.3445 203.066 72.9708 203.217C72.5971 203.369 72.257 203.593 71.9699 203.877C71.6828 204.16 71.4543 204.497 71.2975 204.869C71.1407 205.24 71.0586 205.639 71.056 206.042C71.056 207.729 72.4413 209.094 74.1478 209.094C75.8594 209.094 77.2447 207.729 77.2447 206.042C77.242 205.639 77.1598 205.239 77.0027 204.868C76.8456 204.496 76.6167 204.158 76.329 203.875C76.0414 203.592 75.7007 203.368 75.3264 203.216C74.9521 203.064 74.5516 202.988 74.1478 202.991ZM161.672 209.771C161.177 209.766 160.686 209.859 160.227 210.045C159.768 210.23 159.35 210.505 158.997 210.852C158.644 211.199 158.363 211.613 158.17 212.069C157.977 212.525 157.876 213.014 157.873 213.51C157.876 214.005 157.976 214.495 158.169 214.952C158.361 215.408 158.642 215.822 158.995 216.17C159.348 216.518 159.766 216.793 160.226 216.979C160.685 217.164 161.177 217.258 161.672 217.253C162.167 217.256 162.658 217.162 163.117 216.976C163.575 216.789 163.993 216.515 164.345 216.167C164.698 215.819 164.978 215.406 165.17 214.95C165.363 214.494 165.464 214.004 165.467 213.51C165.464 213.015 165.363 212.526 165.17 212.07C164.978 211.614 164.697 211.201 164.345 210.854C163.992 210.507 163.575 210.232 163.116 210.046C162.658 209.861 162.167 209.767 161.672 209.771ZM128.089 97.3032C123.662 97.3032 120.078 100.836 120.078 105.192C120.078 109.548 123.662 113.08 128.089 113.08C132.506 113.08 136.095 109.548 136.095 105.192C136.095 100.836 132.511 97.3032 128.089 97.3032ZM148.502 119.499C150.564 119.513 152.547 118.709 154.016 117.263C155.485 115.817 156.32 113.847 156.337 111.786C156.321 109.725 155.488 107.754 154.019 106.307C152.551 104.86 150.569 104.054 148.507 104.068C146.445 104.053 144.461 104.858 142.992 106.305C141.522 107.752 140.688 109.724 140.672 111.786C140.672 116.046 144.181 119.499 148.502 119.499ZM162.315 121.381C158.089 121.381 154.656 124.758 154.656 128.928C154.656 133.093 158.089 136.47 162.315 136.47C166.546 136.47 169.974 133.088 169.974 128.928C169.974 124.763 166.546 121.381 162.315 121.381ZM161.452 143.551C159.482 143.538 157.588 144.307 156.186 145.689C154.784 147.071 153.988 148.954 153.973 150.923C153.988 152.891 154.784 154.774 156.186 156.156C157.588 157.539 159.482 158.308 161.452 158.294C162.427 158.302 163.395 158.117 164.299 157.75C165.203 157.384 166.026 156.843 166.721 156.158C167.415 155.474 167.969 154.659 168.349 153.761C168.729 152.862 168.928 151.898 168.935 150.923C168.929 149.947 168.73 148.982 168.35 148.083C167.97 147.184 167.417 146.369 166.722 145.684C166.027 144.999 165.204 144.457 164.3 144.091C163.395 143.724 162.428 143.544 161.452 143.551ZM149.32 160.256C145.285 160.256 142.012 163.483 142.012 167.458C142.012 171.432 145.285 174.659 149.32 174.659C153.356 174.659 156.628 171.432 156.628 167.458C156.628 163.483 153.356 160.256 149.32 160.256ZM128.089 167.443C127.16 167.436 126.238 167.612 125.377 167.962C124.516 168.311 123.732 168.827 123.07 169.479C122.408 170.132 121.881 170.908 121.52 171.764C121.158 172.62 120.968 173.539 120.962 174.468C120.962 178.347 124.149 181.493 128.089 181.493C129.018 181.5 129.94 181.324 130.801 180.974C131.662 180.625 132.446 180.109 133.108 179.457C133.77 178.804 134.297 178.028 134.658 177.172C135.02 176.316 135.21 175.397 135.216 174.468C135.216 170.589 132.029 167.443 128.089 167.443ZM107.069 163.789C103.229 163.789 100.112 166.86 100.112 170.644C100.112 174.428 103.224 177.494 107.069 177.494C110.908 177.494 114.025 174.433 114.025 170.644C114.025 166.86 110.913 163.789 107.069 163.789ZM96.2674 160.181C96.2674 156.493 93.2358 153.507 89.4915 153.507C85.7472 153.507 82.7106 156.493 82.7106 160.181C82.7106 163.87 85.7472 166.86 89.4865 166.86C93.2358 166.86 96.2674 163.865 96.2674 160.181ZM76.4065 137.489C72.7575 137.489 69.8012 140.399 69.8012 143.992C69.8012 147.586 72.7575 150.501 76.4065 150.501C80.0504 150.501 83.0117 147.591 83.0117 143.992C83.0117 140.399 80.0504 137.489 76.4065 137.489ZM76.4215 124.492C76.4215 120.994 73.5455 118.159 69.997 118.159C66.4434 118.159 63.5674 120.994 63.5674 124.492C63.5674 127.989 66.4434 130.825 69.9919 130.825C73.5455 130.825 76.4215 127.989 76.4215 124.492ZM70.8402 110.396C74.2934 110.396 77.0941 107.636 77.0991 104.233C77.0991 100.831 74.2984 98.071 70.8402 98.071C67.387 98.071 64.5863 100.831 64.5863 104.233C64.5863 107.636 67.387 110.396 70.8402 110.396ZM78.7404 91.5222C82.0982 91.5222 84.8186 88.8375 84.8186 85.5305C84.8186 82.2286 82.0982 79.5438 78.7454 79.5438C75.3826 79.5438 72.6622 82.2286 72.6622 85.5305C72.6622 88.8425 75.3826 91.5222 78.7404 91.5222ZM93.9134 63.9724C90.6509 63.9724 88.0108 66.5818 88.0108 69.7935C88.0108 73.0051 90.6559 75.6096 93.9134 75.6096C97.1759 75.6096 99.816 73.0001 99.816 69.7885C99.816 66.5768 97.1759 63.9774 93.9134 63.9774M114.342 66.2105C117.504 66.2105 120.063 63.6813 120.063 60.565C120.063 57.4537 117.504 54.9246 114.342 54.9246C111.179 54.9246 108.61 57.4537 108.61 60.565C108.61 63.6813 111.174 66.2105 114.336 66.2105M135.894 64.8054C138.956 64.8054 141.445 62.3565 141.445 59.3356C141.445 56.3146 138.961 53.8657 135.894 53.8657C132.832 53.8657 130.343 56.3146 130.343 59.3356C130.343 62.3565 132.827 64.8054 135.894 64.8054ZM156.759 69.3619C159.725 69.3619 162.134 66.9883 162.134 64.0627C162.134 61.1421 159.725 58.7685 156.764 58.7685C153.792 58.7685 151.383 61.1421 151.383 64.0627C151.383 66.9883 153.792 69.3619 156.759 69.3619ZM180.52 73.7127C180.52 70.8874 178.196 68.5941 175.32 68.5941C172.449 68.5941 170.12 70.8824 170.12 73.7127C170.12 76.5429 172.449 78.8312 175.32 78.8312C178.196 78.8312 180.52 76.5429 180.52 73.7127ZM195.452 87.2317C195.441 85.9096 194.906 84.6459 193.964 83.7181C193.022 82.7903 191.75 82.2744 190.427 82.2838C189.772 82.2785 189.122 82.4022 188.515 82.648C187.908 82.8938 187.355 83.2568 186.888 83.7163C186.421 84.1758 186.049 84.7227 185.793 85.3259C185.538 85.929 185.403 86.5766 185.398 87.2317C185.398 89.9666 187.652 92.1847 190.427 92.1847C191.75 92.1927 193.021 91.6755 193.962 90.7468C194.903 89.818 195.442 88.5537 195.452 87.2317ZM201.871 109.191C202.503 109.196 203.13 109.076 203.716 108.838C204.302 108.601 204.835 108.25 205.285 107.807C205.735 107.363 206.094 106.835 206.34 106.253C206.586 105.671 206.715 105.046 206.72 104.414C206.709 103.138 206.193 101.918 205.284 101.023C204.375 100.127 203.147 99.6287 201.871 99.6367C200.595 99.6287 199.368 100.127 198.459 101.023C197.55 101.918 197.033 103.138 197.023 104.414C197.033 105.69 197.55 106.91 198.459 107.805C199.368 108.701 200.595 109.199 201.871 109.191ZM203.874 123.995C203.874 126.539 205.967 128.602 208.542 128.602C209.151 128.606 209.756 128.491 210.321 128.262C210.886 128.033 211.401 127.695 211.835 127.267C212.269 126.839 212.615 126.33 212.853 125.769C213.09 125.207 213.215 124.605 213.22 123.995C213.209 122.766 212.711 121.591 211.835 120.728C210.959 119.865 209.776 119.385 208.547 119.393C207.938 119.389 207.334 119.504 206.769 119.733C206.205 119.962 205.691 120.299 205.257 120.727C204.823 121.154 204.478 121.662 204.24 122.223C204.003 122.784 203.878 123.386 203.874 123.995ZM209.877 141.413C208.693 141.405 207.554 141.867 206.711 142.698C205.868 143.529 205.389 144.661 205.38 145.844C205.389 147.028 205.868 148.159 206.711 148.99C207.554 149.821 208.693 150.283 209.877 150.275C210.463 150.28 211.045 150.169 211.589 149.949C212.133 149.729 212.628 149.403 213.046 148.992C213.464 148.581 213.797 148.091 214.026 147.551C214.254 147.011 214.374 146.431 214.379 145.844C214.374 145.258 214.254 144.678 214.026 144.138C213.797 143.598 213.464 143.108 213.046 142.696C212.628 142.285 212.133 141.96 211.589 141.74C211.045 141.519 210.463 141.409 209.877 141.413ZM205.289 162.866C204.152 162.858 203.058 163.302 202.248 164.099C201.437 164.897 200.977 165.984 200.968 167.121C200.968 169.475 202.9 171.387 205.284 171.387C207.673 171.387 209.611 169.475 209.611 167.121C209.601 165.984 209.141 164.897 208.331 164.099C207.52 163.302 206.427 162.858 205.289 162.866ZM195.452 181.79C194.911 181.786 194.374 181.888 193.873 182.092C193.372 182.295 192.916 182.595 192.531 182.975C192.146 183.355 191.839 183.807 191.629 184.305C191.419 184.804 191.309 185.339 191.306 185.879C191.306 188.138 193.163 189.964 195.452 189.964C195.993 189.969 196.529 189.867 197.03 189.664C197.532 189.461 197.988 189.161 198.374 188.782C198.759 188.403 199.066 187.951 199.277 187.453C199.488 186.955 199.599 186.42 199.602 185.879C199.599 185.338 199.489 184.803 199.279 184.304C199.068 183.806 198.761 183.353 198.376 182.973C197.99 182.594 197.533 182.293 197.032 182.09C196.53 181.887 195.993 181.785 195.452 181.79ZM180.394 198.099C179.349 198.092 178.343 198.5 177.599 199.234C176.854 199.968 176.432 200.968 176.424 202.013C176.424 204.171 178.201 205.927 180.394 205.927C182.587 205.927 184.364 204.171 184.364 202.013C184.364 199.855 182.582 198.099 180.394 198.099ZM140.271 216.114C139.318 216.11 138.402 216.484 137.725 217.154C137.048 217.823 136.663 218.734 136.657 219.687C136.657 221.654 138.273 223.25 140.271 223.25C140.743 223.254 141.211 223.165 141.648 222.988C142.086 222.811 142.484 222.55 142.821 222.219C143.157 221.888 143.425 221.494 143.609 221.06C143.794 220.625 143.891 220.159 143.895 219.687C143.891 219.215 143.795 218.748 143.611 218.313C143.427 217.878 143.159 217.483 142.822 217.152C142.486 216.82 142.087 216.559 141.649 216.381C141.212 216.204 140.743 216.115 140.271 216.119M118.357 216.817C117.451 216.811 116.579 217.165 115.934 217.801C115.289 218.437 114.922 219.303 114.914 220.209C114.914 222.086 116.455 223.601 118.357 223.601C119.264 223.608 120.136 223.254 120.783 222.618C121.429 221.982 121.797 221.116 121.805 220.209C121.797 219.302 121.429 218.435 120.783 217.799C120.136 217.163 119.264 216.81 118.357 216.817ZM97.984 215.331C97.9773 216.191 97.6295 217.014 97.0169 217.618C96.4042 218.222 95.5769 218.558 94.7165 218.553C94.29 218.556 93.8671 218.475 93.4718 218.315C93.0766 218.155 92.7167 217.919 92.4128 217.62C92.1089 217.32 91.867 216.964 91.7007 216.572C91.5345 216.179 91.4472 215.757 91.444 215.331C91.444 213.555 92.9096 212.109 94.7165 212.109C96.5234 212.109 97.984 213.555 97.984 215.331Z" fill="white"/>
<path opacity="0.9" fill-rule="evenodd" clip-rule="evenodd" d="M142.263 127.889C137.746 127.889 134.077 131.502 134.077 135.953C134.077 140.405 137.741 144.018 142.258 144.018C146.781 144.018 150.445 140.405 150.445 135.953C150.445 131.502 146.781 127.889 142.263 127.889ZM182.231 53.6098C183.938 53.6098 185.323 52.2449 185.323 50.5638C185.32 50.1605 185.238 49.7616 185.081 49.39C184.925 49.0184 184.696 48.6813 184.409 48.398C184.122 48.1147 183.782 47.8907 183.408 47.7388C183.035 47.5869 182.635 47.5101 182.231 47.5127C181.827 47.5094 181.427 47.5857 181.053 47.7373C180.678 47.8889 180.338 48.1128 180.05 48.3962C179.762 48.6796 179.533 49.0169 179.376 49.3889C179.219 49.7608 179.137 50.16 179.134 50.5638C179.134 52.2449 180.52 53.6098 182.231 53.6098ZM94.7065 46.8353C95.2015 46.8392 95.6925 46.7457 96.1513 46.5599C96.6102 46.3742 97.0279 46.0999 97.3807 45.7528C97.7336 45.4056 98.0145 44.9924 98.2076 44.5366C98.4007 44.0809 98.5021 43.5916 98.506 43.0967C98.5028 42.6014 98.4018 42.1115 98.2091 41.6552C98.0163 41.1989 97.7354 40.7851 97.3825 40.4374C97.0296 40.0897 96.6116 39.815 96.1525 39.6289C95.6933 39.4429 95.2019 39.3492 94.7065 39.3531C94.2115 39.3498 93.7207 39.444 93.2621 39.6304C92.8035 39.8167 92.3861 40.0916 92.0338 40.4392C91.6814 40.7868 91.401 41.2004 91.2085 41.6564C91.016 42.1124 90.9153 42.6018 90.912 43.0967C90.9153 43.5914 91.0161 44.0806 91.2086 44.5363C91.4011 44.992 91.6816 45.4052 92.0341 45.7525C92.3865 46.0997 92.8039 46.374 93.2625 46.5598C93.721 46.7456 94.2117 46.8392 94.7065 46.8353ZM128.29 143.521C123.873 143.521 120.284 147.059 120.284 151.409C120.284 155.77 123.868 159.303 128.29 159.303C132.717 159.303 136.301 155.77 136.301 151.409C136.301 147.059 132.717 143.521 128.29 143.521ZM107.877 137.103C105.814 137.088 103.831 137.893 102.361 139.34C100.892 140.787 100.058 142.758 100.042 144.821C100.042 149.086 103.55 152.538 107.872 152.538C109.934 152.553 111.918 151.748 113.387 150.301C114.857 148.854 115.691 146.883 115.707 144.821C115.691 142.759 114.857 140.789 113.389 139.342C111.921 137.895 109.938 137.089 107.877 137.103ZM101.718 127.683C101.718 123.518 98.2902 120.136 94.0641 120.136C89.8329 120.136 86.4048 123.513 86.4048 127.683C86.4048 131.848 89.8329 135.226 94.0641 135.226C98.2902 135.226 101.718 131.848 101.718 127.683ZM94.9324 113.055C96.9017 113.069 98.7957 112.3 100.198 110.917C101.6 109.535 102.396 107.653 102.411 105.684C102.396 103.715 101.6 101.832 100.198 100.45C98.7957 99.0675 96.9017 98.2985 94.9324 98.3119C93.9564 98.3046 92.9886 98.4897 92.0843 98.8565C91.1799 99.2234 90.3567 99.7648 89.6617 100.45C88.9667 101.135 88.4136 101.95 88.0339 102.849C87.6542 103.748 87.4553 104.713 87.4488 105.689C87.4488 109.753 90.8066 113.055 94.9324 113.055ZM107.059 96.3448C111.094 96.3448 114.367 93.1231 114.367 89.1487C114.367 85.1692 111.094 81.9476 107.059 81.9476C103.023 81.9476 99.7508 85.1743 99.7508 89.1487C99.7508 93.1231 103.023 96.3448 107.059 96.3448ZM128.29 89.1637C129.22 89.171 130.142 88.995 131.004 88.6458C131.865 88.2966 132.65 87.7811 133.312 87.1286C133.975 86.4762 134.502 85.6996 134.864 84.8434C135.226 83.9871 135.416 83.0679 135.422 82.1383C135.422 78.2592 132.23 75.1128 128.295 75.1128C127.365 75.1055 126.443 75.2815 125.581 75.6307C124.72 75.9799 123.935 76.4954 123.273 77.1479C122.61 77.8003 122.083 78.5769 121.721 79.4331C121.359 80.2894 121.169 81.2086 121.163 82.1383C121.163 86.0173 124.355 89.1637 128.29 89.1637ZM149.31 79.1073C145.471 79.1073 142.354 82.1784 142.354 85.9621C142.354 89.7458 145.466 92.812 149.31 92.812C153.15 92.812 156.267 89.7458 156.267 85.9621C156.267 82.1784 153.155 79.1073 149.31 79.1073ZM160.112 96.42C160.112 100.113 163.143 103.104 166.887 103.104C170.632 103.104 173.668 100.113 173.668 96.4251C173.668 92.7367 170.632 89.7458 166.893 89.7458C163.143 89.7458 160.112 92.7367 160.112 96.42ZM179.973 119.117C183.621 119.117 186.578 116.207 186.578 112.614C186.578 109.016 183.616 106.105 179.973 106.105C176.329 106.105 173.372 109.016 173.372 112.614C173.372 116.202 176.329 119.117 179.973 119.117ZM179.957 132.114C179.957 135.612 182.833 138.447 186.382 138.447C189.936 138.447 192.812 135.612 192.812 132.114C192.812 128.617 189.936 125.781 186.387 125.781C182.833 125.781 179.957 128.617 179.957 132.114ZM185.539 146.211C182.081 146.211 179.285 148.971 179.285 152.373C179.285 155.77 182.081 158.535 185.539 158.535C188.992 158.535 191.793 155.775 191.793 152.373C191.793 148.971 188.992 146.211 185.539 146.211ZM177.639 165.084C174.281 165.084 171.56 167.769 171.56 171.071C171.56 174.383 174.281 177.062 177.634 177.062C180.996 177.062 183.717 174.378 183.717 171.071C183.717 167.764 180.996 165.084 177.639 165.084ZM162.466 180.997C159.203 180.997 156.563 183.606 156.563 186.818C156.563 190.029 159.208 192.629 162.466 192.629C165.728 192.629 168.368 190.024 168.368 186.813C168.368 183.601 165.728 180.997 162.466 180.997ZM142.037 190.396C138.875 190.396 136.316 192.925 136.316 196.036C136.316 199.152 138.875 201.682 142.037 201.682C145.2 201.682 147.769 199.152 147.769 196.036C147.769 192.925 145.2 190.396 142.037 190.396ZM120.485 191.801C117.423 191.801 114.934 194.25 114.934 197.271C114.934 200.292 117.418 202.741 120.485 202.741C123.547 202.741 126.036 200.292 126.036 197.271C126.036 194.25 123.552 191.801 120.485 191.801ZM99.6203 187.244C96.654 187.244 94.2447 189.618 94.2447 192.544C94.2447 195.464 96.654 197.838 99.6203 197.838C102.592 197.838 104.996 195.464 104.996 192.544C104.996 189.618 102.587 187.244 99.6253 187.244M81.0543 177.77C78.1884 177.77 75.8595 180.063 75.8595 182.889C75.8595 185.719 78.1884 188.017 81.0593 188.017C83.9303 188.017 86.2592 185.719 86.2592 182.894C86.2592 180.063 83.9253 177.77 81.0543 177.77ZM65.9516 164.422C64.6292 164.412 63.3573 164.928 62.4152 165.856C61.4731 166.784 60.938 168.047 60.9274 169.37C60.9274 172.104 63.181 174.322 65.9516 174.322C66.6072 174.328 67.2574 174.204 67.865 173.958C68.4727 173.712 69.0259 173.348 69.493 172.888C69.96 172.428 70.3318 171.881 70.5871 171.277C70.8424 170.673 70.9762 170.025 70.9808 169.37C70.9756 168.714 70.8413 168.067 70.5857 167.464C70.3301 166.861 69.9582 166.314 69.4912 165.854C69.0242 165.395 68.4712 165.032 67.8639 164.786C67.2566 164.54 66.6068 164.416 65.9516 164.422ZM54.5078 147.41C53.2308 147.402 52.0027 147.901 51.0936 148.798C50.1845 149.695 49.6686 150.915 49.6593 152.192C49.6699 153.468 50.1864 154.688 51.0954 155.583C52.0044 156.479 53.2316 156.978 54.5078 156.97C55.784 156.978 57.0113 156.479 57.9203 155.583C58.8293 154.688 59.3457 153.468 59.3564 152.192C59.3457 150.916 58.8293 149.697 57.9203 148.801C57.0113 147.905 55.784 147.402 54.5078 147.41ZM52.5102 132.611C52.5056 132.002 52.3809 131.399 52.1434 130.838C51.9058 130.276 51.5599 129.767 51.1255 129.339C50.6912 128.911 50.1768 128.573 49.6117 128.344C49.0466 128.115 48.442 128 47.8323 128.005C46.6018 127.997 45.4185 128.477 44.5423 129.341C43.6661 130.205 43.1687 131.381 43.1594 132.611C43.1594 135.15 45.2524 137.213 47.8323 137.213C49.0628 137.222 50.2467 136.743 51.1238 135.88C52.0009 135.017 52.4996 133.841 52.5102 132.611ZM46.5022 115.193C47.6861 115.201 48.8248 114.739 49.668 113.908C50.5113 113.077 50.9901 111.946 50.9994 110.762C50.9901 109.578 50.5113 108.447 49.668 107.616C48.8248 106.785 47.6861 106.323 46.5022 106.331C45.9156 106.326 45.3338 106.437 44.79 106.657C44.2463 106.878 43.7513 107.203 43.3332 107.614C42.9151 108.026 42.5822 108.515 42.3534 109.056C42.1247 109.596 42.0046 110.176 42 110.762C42.0046 111.349 42.1247 111.928 42.3534 112.469C42.5822 113.009 42.9151 113.498 43.3332 113.91C43.7513 114.321 44.2463 114.646 44.79 114.867C45.3338 115.087 45.9156 115.198 46.5022 115.193ZM51.0898 93.7403C53.4789 93.7403 55.4113 91.8334 55.4113 89.4799C55.402 88.3428 54.9416 87.2559 54.1313 86.458C53.321 85.6601 52.2271 85.2164 51.0898 85.2244C49.9529 85.2178 48.8597 85.6619 48.0496 86.4595C47.2396 87.2571 46.7788 88.3432 46.7682 89.4799C46.7682 91.8334 48.7006 93.7403 51.0898 93.7403ZM65.0732 70.7269C65.0693 70.1861 64.9587 69.6513 64.748 69.1533C64.5372 68.6552 64.2302 68.2036 63.8447 67.8242C63.4592 67.4448 63.0027 67.1451 62.5012 66.9423C61.9998 66.7395 61.4633 66.6374 60.9223 66.6421C60.3819 66.6381 59.8459 66.7406 59.345 66.9437C58.8442 67.1469 58.3882 67.4467 58.0032 67.826C57.6182 68.2053 57.3118 68.6567 57.1013 69.1544C56.8908 69.6522 56.7804 70.1865 56.7765 70.7269C56.7765 72.9851 58.6336 74.8117 60.9223 74.8117C61.4633 74.8163 61.9998 74.7143 62.5012 74.5115C63.0027 74.3086 63.4592 74.0089 63.8447 73.6296C64.2302 73.2502 64.5372 72.7985 64.748 72.3005C64.9587 71.8024 65.0693 71.2677 65.0732 70.7269ZM79.9551 54.5934C79.9551 52.4305 78.1783 50.6792 75.9849 50.6792C75.4669 50.6752 74.9531 50.7733 74.4729 50.9679C73.9927 51.1624 73.5556 51.4497 73.1865 51.8131C72.8174 52.1766 72.5234 52.6092 72.3215 53.0862C72.1196 53.5633 72.0137 54.0754 72.0097 54.5934C72.0097 56.7512 73.7916 58.5076 75.9849 58.5076C78.1783 58.5076 79.9551 56.7512 79.9551 54.5934ZM116.103 40.4872C117.057 40.4939 117.974 40.1219 118.654 39.4529C119.333 38.784 119.719 37.8727 119.727 36.9193C119.723 36.4475 119.626 35.981 119.442 35.5466C119.258 35.1122 118.99 34.7183 118.653 34.3874C118.317 34.0566 117.918 33.7952 117.481 33.6183C117.043 33.4414 116.575 33.3524 116.103 33.3564C115.152 33.351 114.237 33.7231 113.56 34.391C112.882 35.0589 112.497 35.9681 112.49 36.9193C112.49 38.8864 114.106 40.4872 116.103 40.4872ZM138.022 39.7897C138.928 39.7951 139.8 39.441 140.445 38.8051C141.09 38.1692 141.457 37.3033 141.465 36.3974C141.459 35.4906 141.092 34.6235 140.447 33.9865C139.801 33.3495 138.929 32.9947 138.022 33.0001C137.573 32.9968 137.127 33.082 136.71 33.251C136.294 33.4199 135.914 33.6693 135.594 33.9847C135.274 34.3002 135.019 34.6756 134.844 35.0896C134.669 35.5036 134.577 35.948 134.574 36.3974C134.574 38.2692 136.115 39.7897 138.022 39.7897ZM158.395 41.2701C158.395 39.4936 159.856 38.0534 161.663 38.0534C163.469 38.0534 164.935 39.4936 164.935 41.2701C164.932 41.6965 164.844 42.118 164.678 42.5107C164.512 42.9033 164.27 43.2594 163.966 43.5586C163.662 43.8577 163.302 44.0941 162.907 44.2542C162.512 44.4144 162.089 44.4951 161.663 44.4918C160.802 44.4971 159.975 44.1608 159.362 43.5568C158.749 42.9527 158.402 42.1303 158.395 41.2701Z" fill="#5398FF"/>
</g>
<defs>
<clipPath id="clip0_2295_610">
<rect width="256" height="256" fill="white"/>
</clipPath>
</defs>
</svg>
