<svg width="256" height="256" viewBox="0 0 256 256" fill="none" xmlns="http://www.w3.org/2000/svg">
<g clip-path="url(#clip0_2461_259)">
<path d="M256 128C256 57.3075 198.692 0 128 0C57.3075 0 0 57.3075 0 128C0 198.692 57.3075 256 128 256C198.692 256 256 198.692 256 128Z" fill="#131313"/>
<path d="M140.834 184.395C140.834 188.692 137.311 192.175 132.965 192.175H58C58 186.615 58 188.662 58 184.366L58.2077 118.269C58.2077 113.972 61.7309 110.489 66.0769 110.489C66.0769 110.489 137.462 110.488 140.835 110.489C140.837 112.405 140.834 113.972 140.834 118.269V184.395ZM125.097 176.616V126.048H73.9472V176.616H125.097Z" fill="#FDF4C9"/>
<path d="M152.656 51.0967C156.772 51.0967 160.143 54.2957 160.441 58.3534L160.463 58.9386C160.463 58.9386 160.463 139.556 160.463 143.887C160.463 148.218 156.968 147.185 152.656 147.185C148.541 147.185 145.169 143.986 144.871 139.928L144.85 139.343C144.85 139.343 144.85 58.772 144.85 54.441C144.85 50.11 148.345 51.0967 152.656 51.0967Z" fill="#FDF4C9"/>
<path d="M185.237 63.7555C188.303 66.4912 188.673 71.1159 186.18 74.337L185.804 74.7873C185.804 74.7873 158.08 107.05 155.181 110.277C152.282 113.504 150.37 110.411 147.158 107.545C144.092 104.809 143.721 100.184 146.215 96.963L146.591 96.5128C146.591 96.5128 174.283 64.2844 177.182 61.0577C180.081 57.831 182.025 60.8895 185.237 63.7555Z" fill="#FDF4C9"/>
<path d="M118.269 65.4652C121.154 62.5402 125.807 62.3863 128.92 65.0188L129.353 65.4138C129.353 65.4138 187.049 121.924 190.148 124.96C193.248 127.996 190.058 129.756 187.036 132.82C184.152 135.745 179.498 135.899 176.386 133.266L175.951 132.871C175.951 132.871 118.29 76.3938 115.19 73.3579C112.091 70.3221 115.247 68.5295 118.269 65.4652Z" fill="#FDF4C9"/>
<path d="M104.442 98.76C104.475 94.6588 107.712 91.3246 111.786 91.0601L112.373 91.0435C112.373 91.0435 193.268 91.6893 197.614 91.7241C201.96 91.7588 200.896 95.2334 200.86 99.5299C200.828 103.631 197.591 106.965 193.516 107.23L192.929 107.246C192.929 107.246 112.081 106.601 107.735 106.566C103.389 106.531 104.407 103.056 104.442 98.76Z" fill="#FDF4C9"/>
</g>
<defs>
<clipPath id="clip0_2461_259">
<rect width="256" height="256" fill="white"/>
</clipPath>
</defs>
</svg>
