<svg width="256" height="256" viewBox="0 0 256 256" fill="none" xmlns="http://www.w3.org/2000/svg">
<g clip-path="url(#clip0_2857_102)">
<path d="M128 256C198.692 256 256 198.692 256 128C256 57.3075 198.692 0 128 0C57.3075 0 0 57.3075 0 128C0 198.692 57.3075 256 128 256Z" fill="#0052FF"/>
<path d="M128.248 58C176.986 58 216.496 97.5099 216.496 146.248C216.496 154.523 215.357 162.532 213.227 170.128H196.395C199.014 162.653 200.438 154.617 200.438 146.248C200.438 106.379 168.117 74.0577 128.248 74.0577C88.3785 74.0577 56.0577 106.379 56.0577 146.248C56.0577 148.986 56.2101 151.688 56.5069 154.346H77.5161L156.557 154.346C163.131 154.346 168.462 149.016 168.462 142.441C168.462 135.866 163.131 130.536 156.561 130.536L156.398 130.537L149.453 130.54L148.45 123.667C146.993 113.681 138.381 106.173 128.179 106.173C119.021 106.173 111.047 112.237 108.514 120.888L106.823 126.66H100.809H98.9705C92.8542 126.66 87.896 131.618 87.896 137.735C87.896 137.92 87.9007 138.105 87.91 138.289H71.8441C71.8427 138.221 71.8416 138.153 71.8407 138.085L71.8385 137.735C71.8385 124.099 81.8976 112.812 95.0002 110.891L95.2155 110.861L95.3423 110.599C101.29 98.4392 113.678 90.304 127.689 90.1186L128.179 90.1153C144.198 90.1153 158.01 100.481 162.868 115.132L162.89 115.199L163.276 115.291C175.33 118.265 184.306 129.056 184.515 141.979L184.519 142.441C184.519 156.546 174.076 168.211 160.5 170.128H43.2688C41.139 162.532 40 154.523 40 146.248C40 97.5099 79.5099 58 128.248 58Z" fill="white"/>
</g>
<defs>
<clipPath id="clip0_2857_102">
<rect width="256" height="256" fill="white"/>
</clipPath>
</defs>
</svg>
