<svg width="256" height="256" viewBox="0 0 256 256" fill="none" xmlns="http://www.w3.org/2000/svg">
<g clip-path="url(#clip0_2339_307)">
<path d="M128 256C198.692 256 256 198.692 256 128C256 57.3076 198.692 0 128 0C57.3076 0 0 57.3076 0 128C0 198.692 57.3076 256 128 256Z" fill="#FF5C00"/>
<path d="M149.014 51.798V46.9829C149.015 46.5813 148.934 46.1837 148.777 45.814C148.62 45.4444 148.39 45.1103 148.1 44.8319C147.811 44.5535 147.468 44.3365 147.093 44.1939C146.717 44.0514 146.317 43.9862 145.915 44.0024C113.323 45.6134 87.3398 71.8022 86.0033 104.389C86.0014 104.738 86.0709 105.085 86.2076 105.407C86.3443 105.729 86.5452 106.02 86.7981 106.261C87.051 106.503 87.3505 106.69 87.6784 106.812C88.0062 106.934 88.3555 106.988 88.7048 106.97H93.6714C94.4095 106.977 95.1221 106.701 95.6632 106.199C96.2043 105.697 96.5328 105.007 96.5814 104.27C97.9899 77.4123 119.461 55.953 146.332 54.546C148.378 54.288 149.035 53.166 149.035 51.8055L149.014 51.798ZM104.739 107.023H109.449C110.176 107.025 110.877 106.751 111.411 106.258C111.946 105.764 112.273 105.087 112.329 104.362C113.634 86.0569 128.251 71.5232 146.571 70.3142C147.262 70.2664 147.907 69.9476 148.365 69.4272C148.823 68.9067 149.057 68.2266 149.016 67.5347V62.7391C149.007 62.3406 148.919 61.9478 148.756 61.5841C148.593 61.2204 148.358 60.8932 148.066 60.6218C147.774 60.3504 147.431 60.1404 147.056 60.0042C146.682 59.8681 146.284 59.8085 145.885 59.8291C122.22 61.3951 103.369 80.2308 101.798 103.885C101.778 104.282 101.838 104.68 101.975 105.054C102.111 105.429 102.321 105.772 102.592 106.063C102.864 106.355 103.191 106.589 103.554 106.752C103.918 106.915 104.31 107.004 104.709 107.012L104.739 107.023ZM149.014 78.5538V83.3688C149.008 84.0643 148.745 84.733 148.276 85.2463C147.807 85.7596 147.164 86.0814 146.472 86.1499C141.823 86.718 137.496 88.8217 134.178 92.1274C130.859 95.4332 128.739 99.7519 128.154 104.399C128.065 105.11 127.723 105.765 127.19 106.245C126.657 106.724 125.969 106.995 125.253 107.009H121.09C118.825 107.009 117.465 105.541 117.633 103.844C119.143 88.9354 130.941 77.1498 145.855 75.6437C146.258 75.6094 146.663 75.6592 147.045 75.79C147.428 75.9207 147.778 76.1296 148.076 76.4033C148.373 76.677 148.61 77.0095 148.771 77.3798C148.933 77.75 149.016 78.1498 149.014 78.5538ZM204.229 148.9C202.868 148.9 201.744 148.244 201.486 146.2C200.097 119.309 178.593 97.82 151.686 96.437C150.949 96.3883 150.259 96.0598 149.757 95.5187C149.255 94.9777 148.979 94.265 148.986 93.5269V88.5619C148.968 88.2127 149.022 87.8635 149.144 87.5359C149.266 87.2082 149.454 86.9088 149.695 86.6561C149.937 86.4034 150.228 86.2026 150.55 86.066C150.871 85.9295 151.218 85.86 151.567 85.8619C184.178 87.1939 210.385 113.164 211.997 145.742C212.015 146.14 211.952 146.536 211.814 146.909C211.676 147.282 211.465 147.623 211.192 147.912C210.92 148.202 210.593 148.434 210.229 148.595C209.866 148.757 209.474 148.843 209.077 148.851L204.229 148.9ZM149.014 104.629C149.023 104.229 149.112 103.836 149.275 103.471C149.439 103.107 149.674 102.779 149.967 102.508C150.26 102.236 150.605 102.027 150.98 101.891C151.356 101.755 151.755 101.697 152.154 101.719C175.812 103.289 194.655 122.119 196.232 145.765C196.254 146.164 196.195 146.563 196.059 146.938C195.924 147.314 195.714 147.658 195.442 147.951C195.171 148.243 194.843 148.478 194.479 148.642C194.115 148.805 193.721 148.893 193.322 148.901H188.522C187.825 148.942 187.141 148.705 186.62 148.241C186.098 147.777 185.782 147.126 185.741 146.429C184.523 128.129 169.991 113.533 151.687 112.225C150.962 112.17 150.284 111.842 149.79 111.308C149.296 110.774 149.023 110.072 149.025 109.345L149.014 104.629ZM177.485 148.893H172.658C171.962 148.886 171.294 148.623 170.78 148.154C170.267 147.685 169.945 147.042 169.877 146.35C169.306 141.699 167.198 137.372 163.888 134.055C160.579 130.738 156.256 128.622 151.606 128.041C150.895 127.952 150.24 127.611 149.76 127.078C149.28 126.546 149.009 125.858 148.995 125.141V120.457C148.993 120.052 149.076 119.651 149.238 119.28C149.401 118.909 149.639 118.575 149.937 118.302C150.235 118.028 150.587 117.819 150.971 117.689C151.355 117.559 151.761 117.511 152.164 117.547C167.079 119.053 178.877 130.838 180.387 145.747C180.422 146.149 180.372 146.554 180.241 146.937C180.11 147.319 179.901 147.669 179.628 147.966C179.354 148.263 179.021 148.5 178.651 148.661C178.281 148.822 177.881 148.905 177.477 148.903L177.486 148.894L177.485 148.893ZM51.7415 107.002C53.102 107.002 54.2255 107.657 54.4835 109.702C55.874 136.604 77.3962 158.097 104.314 159.466C105.844 159.567 107.029 160.843 107.014 162.376V167.34C107.032 167.689 106.978 168.038 106.856 168.366C106.734 168.693 106.546 168.993 106.305 169.245C106.063 169.498 105.772 169.699 105.45 169.836C105.129 169.972 104.782 170.042 104.433 170.04C71.8222 168.709 45.6154 142.739 44.0029 110.159C43.9854 109.762 44.0476 109.365 44.1858 108.993C44.324 108.62 44.5355 108.279 44.8077 107.989C45.0799 107.699 45.4073 107.467 45.7707 107.306C46.134 107.145 46.526 107.058 46.9234 107.051L51.7385 107.002H51.7415ZM106.984 151.237C106.976 151.636 106.887 152.03 106.723 152.394C106.559 152.759 106.324 153.086 106.031 153.358C105.738 153.629 105.394 153.839 105.018 153.975C104.642 154.11 104.243 154.169 103.844 154.147C80.1998 152.572 61.3656 133.762 59.777 110.131C59.7556 109.732 59.8146 109.333 59.9504 108.958C60.0862 108.583 60.2961 108.238 60.5675 107.946C60.839 107.653 61.1665 107.418 61.5306 107.255C61.8948 107.091 62.288 107.003 62.6871 106.994H67.4856C68.1821 106.953 68.8663 107.191 69.3877 107.655C69.9092 108.118 70.2253 108.77 70.2667 109.466C71.4802 127.766 86.0093 142.367 104.311 143.681C105.037 143.736 105.714 144.064 106.208 144.598C106.702 145.132 106.976 145.834 106.974 146.561L106.984 151.237ZM78.4837 107.002H83.2988C84.7388 107.017 85.9388 108.112 86.0813 109.544C86.6526 114.195 88.7603 118.521 92.07 121.838C95.3798 125.154 99.7021 127.271 104.352 127.852C105.822 128.033 106.936 129.269 106.965 130.75V135.446C106.962 135.847 106.876 136.243 106.713 136.609C106.551 136.975 106.314 137.304 106.018 137.574C105.722 137.844 105.374 138.051 104.995 138.18C104.616 138.31 104.214 138.359 103.814 138.326C88.8983 136.822 77.1022 125.036 75.5917 110.128C75.5618 109.729 75.6143 109.329 75.7459 108.952C75.8775 108.575 76.0854 108.229 76.3566 107.935C76.6278 107.642 76.9565 107.408 77.3222 107.247C77.6879 107.087 78.0843 107.003 78.4837 107.002ZM106.974 204.236C106.974 202.875 107.629 201.753 109.677 201.495C136.581 200.112 158.085 178.623 159.476 151.732C159.524 150.996 159.853 150.306 160.394 149.803C160.935 149.301 161.648 149.025 162.386 149.032H167.354C167.703 149.015 168.052 149.069 168.379 149.191C168.707 149.313 169.006 149.5 169.259 149.741C169.512 149.983 169.713 150.273 169.85 150.595C169.986 150.916 170.056 151.262 170.055 151.612C168.717 184.203 142.729 210.393 110.133 212C109.736 212.016 109.34 211.954 108.967 211.815C108.595 211.677 108.254 211.465 107.964 211.194C107.675 210.922 107.442 210.595 107.281 210.232C107.119 209.869 107.031 209.478 107.023 209.081L106.974 204.236ZM151.269 149.02C151.668 149.029 152.062 149.117 152.426 149.281C152.79 149.445 153.118 149.68 153.389 149.973C153.661 150.265 153.871 150.61 154.007 150.985C154.143 151.36 154.202 151.759 154.181 152.158C152.606 175.804 133.762 194.634 110.103 196.203C109.704 196.225 109.305 196.166 108.929 196.031C108.553 195.895 108.209 195.685 107.916 195.414C107.623 195.142 107.388 194.814 107.224 194.45C107.06 194.086 106.971 193.692 106.963 193.293V188.497C106.943 188.152 106.991 187.807 107.105 187.48C107.218 187.154 107.395 186.853 107.625 186.595C107.855 186.337 108.133 186.126 108.444 185.976C108.755 185.825 109.093 185.738 109.438 185.718C127.746 184.506 142.357 169.984 143.67 151.692C143.725 150.966 144.053 150.289 144.587 149.795C145.121 149.302 145.823 149.028 146.55 149.03L151.27 149.022L151.269 149.02ZM106.995 177.478V172.663C107.001 171.968 107.265 171.299 107.734 170.786C108.204 170.273 108.846 169.952 109.539 169.884C114.188 169.316 118.515 167.212 121.833 163.906C125.151 160.6 127.271 156.282 127.857 151.635C127.945 150.923 128.287 150.267 128.82 149.787C129.353 149.308 130.041 149.036 130.758 149.023H134.92C137.185 149.023 138.546 150.493 138.376 152.19C136.867 167.097 125.07 178.884 110.154 180.388C109.751 180.423 109.346 180.373 108.963 180.243C108.581 180.112 108.23 179.903 107.933 179.629C107.636 179.356 107.399 179.023 107.237 178.653C107.076 178.282 106.993 177.882 106.995 177.478ZM106.995 204.237C106.995 202.877 107.65 201.755 109.698 201.497C136.602 200.114 158.108 178.624 159.498 151.734C159.547 150.997 159.875 150.307 160.416 149.805C160.957 149.303 161.67 149.027 162.408 149.034H167.375C167.724 149.016 168.073 149.07 168.4 149.192C168.728 149.314 169.027 149.501 169.28 149.743C169.533 149.984 169.734 150.275 169.871 150.596C170.007 150.918 170.077 151.264 170.076 151.614C168.74 184.204 142.75 210.395 110.154 212.001C109.757 212.018 109.36 211.956 108.988 211.818C108.615 211.679 108.274 211.468 107.984 211.196C107.695 210.924 107.462 210.597 107.301 210.234C107.139 209.871 107.052 209.479 107.044 209.082L106.995 204.237ZM151.29 149.022C151.689 149.03 152.083 149.119 152.447 149.283C152.811 149.446 153.139 149.681 153.41 149.974C153.682 150.267 153.892 150.611 154.028 150.986C154.164 151.362 154.223 151.761 154.202 152.16C152.627 175.806 133.783 194.635 110.125 196.204C109.726 196.226 109.327 196.168 108.951 196.032C108.576 195.896 108.231 195.687 107.938 195.415C107.645 195.144 107.41 194.816 107.246 194.452C107.083 194.087 106.994 193.694 106.986 193.294V188.497C106.945 187.801 107.183 187.117 107.647 186.596C108.111 186.075 108.763 185.759 109.459 185.718C127.768 184.506 142.378 169.984 143.691 151.692C143.746 150.966 144.074 150.288 144.609 149.795C145.143 149.301 145.845 149.028 146.572 149.03L151.29 149.022ZM106.995 177.478V172.663C107.001 171.968 107.265 171.299 107.734 170.786C108.204 170.273 108.846 169.952 109.539 169.884C114.188 169.316 118.515 167.212 121.833 163.906C125.151 160.6 127.271 156.282 127.857 151.635C127.945 150.923 128.287 150.267 128.82 149.787C129.353 149.308 130.041 149.036 130.758 149.023H134.92C137.185 149.023 138.546 150.493 138.376 152.19C136.867 167.097 125.07 178.884 110.154 180.388C109.751 180.423 109.346 180.373 108.963 180.243C108.581 180.112 108.23 179.903 107.933 179.629C107.636 179.356 107.399 179.023 107.237 178.653C107.076 178.282 106.993 177.882 106.995 177.478Z" fill="white"/>
</g>
<defs>
<clipPath id="clip0_2339_307">
<rect width="256" height="256" fill="white"/>
</clipPath>
</defs>
</svg>
