<svg width="256" height="245" viewBox="0 0 256 245" fill="none" xmlns="http://www.w3.org/2000/svg">
<path d="M131.781 0H122.435C54.8159 0 0 54.8451 0 122.5C0 190.155 54.8159 245 122.435 245H131.781C199.4 245 254.216 190.155 254.216 122.5C254.216 54.8451 199.4 0 131.781 0Z" fill="#277DE6"/>
<path d="M127.35 34.479C127.35 36.3207 127.35 38.1623 127.35 40.004C127.35 60.2032 127.411 80.4023 127.289 100.601C127.289 103.097 128.024 103.691 130.535 103.691C146.338 103.572 162.142 103.631 177.945 103.631C180.15 103.631 181.253 103.691 179.905 106.245C162.632 139.396 145.481 172.606 128.33 205.755C128.024 206.35 127.656 206.885 126.799 208.251C126.799 206.35 126.799 205.34 126.799 204.271C126.799 183.299 126.738 162.268 126.86 141.297C126.86 138.148 125.941 137.613 122.94 137.673C107.32 137.791 91.7617 137.673 76.142 137.791C73.6305 137.791 73.1406 137.376 74.3656 135.058C91.5779 101.968 108.668 68.8768 125.818 35.786C126.063 35.2513 126.432 34.7761 126.738 34.3008C126.921 34.3601 127.105 34.4196 127.35 34.479Z" fill="white"/>
</svg>
