<svg width="256" height="256" viewBox="0 0 256 256" fill="none" xmlns="http://www.w3.org/2000/svg">
<g clip-path="url(#clip0_1740_216)">
<mask id="mask0_1740_216" style="mask-type:luminance" maskUnits="userSpaceOnUse" x="0" y="0" width="256" height="256">
<path d="M256 128C256 57.3076 198.692 0 128 0C57.3076 0 0 57.3076 0 128C0 198.692 57.3076 256 128 256C198.692 256 256 198.692 256 128Z" fill="white"/>
</mask>
<g mask="url(#mask0_1740_216)">
<mask id="mask1_1740_216" style="mask-type:luminance" maskUnits="userSpaceOnUse" x="0" y="0" width="256" height="256">
<path d="M256 0H0V256H256V0Z" fill="white"/>
</mask>
<g mask="url(#mask1_1740_216)">
<mask id="mask2_1740_216" style="mask-type:luminance" maskUnits="userSpaceOnUse" x="0" y="0" width="256" height="256">
<path d="M256 0H0V256H256V0Z" fill="white"/>
</mask>
<g mask="url(#mask2_1740_216)">
<path d="M3.24063 127.997C3.24063 196.9 59.096 252.755 127.998 252.755C196.901 252.755 252.76 196.898 252.76 127.997C252.76 59.0946 196.901 3.23926 127.998 3.23926C59.096 3.23926 3.24063 59.0946 3.24063 127.997Z" fill="#0C0C4F" stroke="#EC796B" stroke-width="1.21519"/>
<path fill-rule="evenodd" clip-rule="evenodd" d="M71.5398 97.8423L74.6989 88.081C75.3421 86.0951 76.9088 84.5501 78.9011 83.9409L88.711 80.9245C90.0685 80.5098 90.0794 78.5937 88.7328 78.1578L78.9677 74.9975C76.9856 74.3556 75.4406 72.7889 74.8275 70.7953L71.815 60.9864C71.3997 59.6323 69.4848 59.6174 69.0477 60.9678L65.888 70.73C65.2461 72.7114 63.6789 74.2564 61.6863 74.8689L51.8767 77.882C50.5189 78.3005 50.5041 80.2129 51.8547 80.6493L61.6202 83.809C63.6016 84.4509 65.1469 86.0215 65.7594 88.0145L68.7725 97.8205C69.1872 99.178 71.1027 99.1927 71.5398 97.8423Z" fill="#FAFAFA"/>
<path fill-rule="evenodd" clip-rule="evenodd" d="M226.593 92.1595C222.548 87.6372 216.238 85.0913 210.102 84.0468C203.917 83.0446 197.432 83.1374 191.326 84.2222C178.972 86.3124 167.748 91.4273 157.96 97.7383C152.876 100.835 148.54 104.419 144.049 108.069C141.885 109.914 139.912 111.88 137.857 113.818L132.243 119.404C126.142 125.781 120.129 131.589 114.311 136.403C108.469 141.196 103.008 144.835 97.6262 147.377C92.2477 149.932 86.4915 151.434 78.9901 151.674C71.5546 151.937 62.7573 150.595 53.3472 148.38C43.8865 146.174 33.9518 143.031 22.85 140.326C26.7237 151.073 32.5569 160.569 40.0462 169.251C47.6234 177.781 57.0847 185.556 69.2397 190.669C81.2186 195.896 96.2726 197.772 110.348 194.942C124.461 192.225 136.846 185.695 146.857 178.142C156.893 170.511 165.014 161.82 171.859 152.785C173.748 150.288 174.748 148.891 176.116 146.94L179.896 141.341C182.522 137.877 184.913 133.935 187.512 130.504C192.609 123.317 197.636 116.14 203.475 109.527C206.414 106.172 209.514 102.964 213.172 99.8804C214.996 98.3764 216.968 96.9031 219.153 95.5764C221.369 94.146 223.71 93.0254 226.593 92.1595Z" fill="#EC796B"/>
<path fill-rule="evenodd" clip-rule="evenodd" d="M226.587 92.163C222.243 81.2004 214.166 71.9729 203.325 65.1633C192.55 58.4283 177.586 54.9915 162.755 57.9211C155.429 59.3382 148.332 62.0662 142.104 65.699C135.903 69.3169 130.347 73.6727 125.537 78.3453C123.135 80.689 120.956 83.1345 118.79 85.5934L113.178 92.7486L104.511 104.267C93.4598 119.086 81.5597 136.454 62.031 141.6C42.8598 146.653 34.5448 142.178 22.8438 140.329C24.9833 145.853 27.6334 151.218 31.2262 155.936C34.7519 160.751 38.9167 165.273 44.0943 169.15C46.7109 171.012 49.4735 172.849 52.5416 174.407C55.5958 175.913 58.8896 177.238 62.4054 178.235C69.3984 180.151 77.271 180.824 84.8941 179.792C92.5203 178.774 99.8099 176.358 106.182 173.149C112.6 169.968 118.192 166.096 123.185 162.009C133.109 153.767 140.829 144.661 147.35 135.455C150.63 130.853 153.608 126.163 156.362 121.472L159.603 115.888C160.593 114.256 161.596 112.614 162.613 111.084C166.72 104.938 170.737 100.011 175.615 96.3121C180.426 92.5175 187.125 89.7143 196.077 89.0628C204.992 88.4036 215.284 89.6215 226.587 92.163Z" fill="#FAFAFA"/>
<path fill-rule="evenodd" clip-rule="evenodd" d="M178.36 183.244C178.36 191.296 184.891 197.826 192.942 197.826C200.994 197.826 207.516 191.296 207.516 183.244C207.516 175.192 200.994 168.661 192.942 168.661C184.891 168.661 178.36 175.192 178.36 183.244Z" fill="#EC796B"/>
</g>
</g>
</g>
</g>
<defs>
<clipPath id="clip0_1740_216">
<rect width="256" height="256" fill="white"/>
</clipPath>
</defs>
</svg>
