<svg width="256" height="251" viewBox="0 0 256 251" fill="none" xmlns="http://www.w3.org/2000/svg">
<mask id="mask0_1258_2" style="mask-type:luminance" maskUnits="userSpaceOnUse" x="2" y="0" width="252" height="251">
<path d="M253.277 125.5C253.277 56.1883 197.188 0 128 0C58.8117 0 2.72342 56.1883 2.72342 125.5C2.72342 194.812 58.8117 251 128 251C197.188 251 253.277 194.812 253.277 125.5Z" fill="white"/>
</mask>
<g mask="url(#mask0_1258_2)">
<path d="M253.277 0H2.72342V251H253.277V0Z" fill="#4A2FFF"/>
<mask id="mask1_1258_2" style="mask-type:luminance" maskUnits="userSpaceOnUse" x="51" y="49" width="153" height="153">
<path d="M203.683 49.1963H51.8325V201.318H203.683V49.1963Z" fill="white"/>
</mask>
<g mask="url(#mask1_1258_2)">
<path d="M57.9922 171.269L158.846 200.336C159.066 200.399 159.298 200.408 159.522 200.36C159.746 200.314 159.955 200.213 160.131 200.066C160.307 199.92 160.444 199.732 160.531 199.52C160.619 199.308 160.653 199.079 160.631 198.851L153.299 121.708C153.278 121.479 153.201 121.259 153.075 121.068C152.949 120.876 152.778 120.718 152.577 120.608C152.376 120.498 152.151 120.439 151.921 120.437C151.692 120.434 151.466 120.488 151.262 120.594L57.7645 168.669C57.5151 168.796 57.3086 168.995 57.1725 169.24C57.0368 169.486 56.9769 169.766 57.0014 170.046C57.0259 170.326 57.1332 170.592 57.3097 170.81C57.4862 171.028 57.7242 171.188 57.9922 171.269Z" fill="#F6F4FF"/>
<path d="M103.954 130.152L197.773 81.923C198.023 81.7937 198.227 81.5929 198.362 81.3457C198.496 81.0991 198.553 80.8175 198.526 80.5376C198.499 80.2577 198.389 79.9919 198.209 79.7759C198.03 79.5592 197.791 79.4015 197.521 79.323L96.3552 50.1667C96.1351 50.1023 95.9031 50.0929 95.6787 50.1395C95.4543 50.1862 95.2446 50.2873 95.0686 50.434C94.8922 50.5807 94.7544 50.7686 94.6677 50.981C94.5811 51.1935 94.5474 51.4241 94.5708 51.6525L101.917 129.037C101.939 129.265 102.017 129.485 102.143 129.676C102.27 129.867 102.441 130.024 102.641 130.134C102.842 130.244 103.067 130.303 103.295 130.306C103.524 130.309 103.75 130.256 103.954 130.152Z" fill="#F6F4FF"/>
</g>
</g>
</svg>
