<svg width="256" height="256" viewBox="0 0 256 256" fill="none" xmlns="http://www.w3.org/2000/svg">
<path d="M245 128C245 193.17 192.617 246 128 246C63.3827 246 11 193.17 11 128C11 62.8304 63.3827 10 128 10C192.617 10 245 62.8304 245 128Z" fill="white"/>
<path fill-rule="evenodd" clip-rule="evenodd" d="M251 127.5C251 197.364 195.707 254 127.5 254C59.2928 254 4 197.364 4 127.5C4 57.636 59.2928 1 127.5 1C195.707 1 251 57.636 251 127.5ZM127.092 27.9736C101.856 27.9736 81.3977 48.9289 81.3977 74.7783V105.138C81.3977 130.989 101.856 151.943 127.092 151.943C130.634 151.943 134.083 151.531 137.393 150.749C139.41 150.274 139.981 147.807 138.504 146.363L138.217 146.082L111.892 120.328C107.81 116.267 105.274 110.585 105.274 104.295V75.6216C105.274 63.2793 115.043 53.2736 127.092 53.2736C139.142 53.2736 148.911 63.2793 148.911 75.6216V76.8438C148.911 83.3937 154.256 88.7032 160.849 88.7032C167.443 88.7032 172.787 83.3937 172.787 76.8438V74.7783C172.787 48.9289 152.329 27.9736 127.092 27.9736ZM172.78 177.671C172.78 203.52 152.322 224.476 127.085 224.476C101.849 224.476 81.3899 203.52 81.3899 177.671V175.615C81.3899 169.065 86.7354 163.756 93.3282 163.756C99.9217 163.756 105.267 169.065 105.267 175.615V176.827C105.267 189.169 115.035 199.176 127.085 199.176C139.135 199.176 148.904 189.169 148.904 176.827V148.154C148.904 141.865 146.367 136.182 142.285 132.121L115.961 106.367L115.673 106.086C114.197 104.641 114.768 102.175 116.785 101.7C120.095 100.918 123.543 100.506 127.085 100.506C152.322 100.506 172.78 121.461 172.78 147.311V177.671Z" fill="#F40183"/>
</svg>
