<svg width="256" height="256" viewBox="0 0 256 256" fill="none" xmlns="http://www.w3.org/2000/svg">
<g clip-path="url(#clip0_1333_2054)">
<path d="M128 256C198.692 256 256 198.692 256 128C256 57.3075 198.692 0 128 0C57.3075 0 0 57.3075 0 128C0 198.692 57.3075 256 128 256Z" fill="#6FBCF0"/>
<path fill-rule="evenodd" clip-rule="evenodd" d="M66.6 194.6C79.4 216.8 102.4 230.1 128 230.1C153.6 230.1 176.6 216.8 189.4 194.6C202.2 172.4 202.2 145.9 189.4 123.7L135.4 30.1002C132.1 24.4002 123.9 24.4002 120.6 30.1002L66.6 123.7C53.7 145.9 53.7 172.4 66.6 194.6ZM112.8 74.6002L124.3 54.6002C125.9 51.8002 130.1 51.8002 131.7 54.6002L176 131.4C184.1 145.5 185.7 161.8 180.6 176.8C180.1 174.4 179.3 171.9 178.3 169.4C172.2 153.9 158.3 142 137.1 134C122.5 128.5 113.2 120.3 109.5 109.8C104.7 96.2002 109.8 81.4002 112.8 74.6002ZM93.1 108.6L80 131.4C70 148.8 70 169.5 80 186.9C90 204.3 108 214.6 128 214.6C141.3 214.6 153.7 210 163.5 201.9C164.8 198.7 168.7 187 163.8 174.9C159.3 163.7 148.5 154.8 131.6 148.4C112.6 141.2 100.2 129.9 94.8001 114.9C94.1001 112.8 93.6 110.7 93.1 108.6Z" fill="white"/>
</g>
<defs>
<clipPath id="clip0_1333_2054">
<rect width="256" height="256" fill="white"/>
</clipPath>
</defs>
</svg>
