<svg width="256" height="255" viewBox="0 0 256 255" fill="none" xmlns="http://www.w3.org/2000/svg">
<path d="M127.788 2.32349H127.793C196.271 2.32349 251.784 58.2138 251.784 127.158V127.163C251.784 196.107 196.271 251.998 127.793 251.998H127.788C59.31 251.998 3.79736 196.107 3.79736 127.163V127.158C3.79736 58.2138 59.31 2.32349 127.788 2.32349Z" fill="white" stroke="black" stroke-width="1.67719"/>
<path fill-rule="evenodd" clip-rule="evenodd" d="M107.532 22.5447C58.7886 31.9973 21.9692 75.1729 21.9692 127.007C21.9692 178.84 58.7886 222.016 107.532 231.469V221.498C64.1848 212.195 31.6733 173.423 31.6733 127.007C31.6733 80.5899 64.1848 41.8181 107.532 32.5153V22.5447ZM147.92 32.5542V22.58C196.574 32.1045 233.301 75.2371 233.301 127.007C233.301 178.776 196.574 221.909 147.92 231.433V221.459C191.177 212.087 223.598 173.359 223.598 127.007C223.598 80.6546 191.177 41.9264 147.92 32.5542Z" fill="black"/>
<path d="M142.691 123.453C150.753 125 157.007 127.983 161.452 132.403C165.896 136.713 168.118 142.237 168.118 148.978V159.586C168.118 167.652 165.224 174.172 159.436 179.144C153.648 184.006 146.05 186.437 136.644 186.437H133.388V203.344H122.225V186.437H118.814C112.613 186.437 107.134 185.056 102.38 182.293C97.625 179.42 93.904 175.443 91.2165 170.36C88.6323 165.166 87.3403 159.199 87.3403 152.459H98.5036C98.5036 159.31 100.364 164.89 104.085 169.199C107.91 173.398 112.923 175.498 119.124 175.498H136.334C142.433 175.498 147.342 174.061 151.064 171.188C154.785 168.205 156.645 164.337 156.645 159.586V148.978C156.645 145.221 155.25 142.016 152.459 139.365C149.771 136.713 146.05 135 141.296 134.226L113.388 129.254C105.532 127.817 99.4339 124.834 95.0925 120.303C90.7514 115.773 88.5808 110.082 88.5808 103.231V94.2807C88.5808 86.2142 91.3715 79.8052 96.9531 75.0537C102.638 70.1919 110.132 67.7609 119.435 67.7609H122.225V50.8544H133.388V67.7609H136.954C145.74 67.7609 152.821 70.6339 158.196 76.3797C163.57 82.0152 166.258 89.474 166.258 98.756H155.095C155.095 92.6785 153.441 87.8165 150.133 84.17C146.826 80.5235 142.433 78.7002 136.954 78.7002H119.435C113.543 78.7002 108.84 80.1367 105.325 83.0097C101.811 85.7722 100.054 89.5292 100.054 94.2807V103.231C100.054 107.099 101.346 110.358 103.93 113.01C106.617 115.662 110.287 117.43 114.938 118.314L142.691 123.453Z" fill="black"/>
</svg>
