<svg width="256" height="256" viewBox="0 0 256 256" fill="none" xmlns="http://www.w3.org/2000/svg">
<g clip-path="url(#clip0_1958_3372)">
<mask id="mask0_1958_3372" style="mask-type:luminance" maskUnits="userSpaceOnUse" x="0" y="0" width="256" height="256">
<path d="M256 0H0V256H256V0Z" fill="white"/>
</mask>
<g mask="url(#mask0_1958_3372)">
<path d="M128.004 245.415C192.851 245.415 245.419 192.847 245.419 128.002C245.419 63.1572 192.851 10.5903 128.004 10.5903C63.1581 10.5903 10.5898 63.1572 10.5898 128.002C10.5898 192.847 63.1581 245.415 128.004 245.415Z" fill="black"/>
<path d="M128.005 10.59C192.849 10.59 245.419 63.1595 245.419 128.002C245.419 192.845 192.849 245.415 128.005 245.415C63.1605 245.415 10.5902 192.845 10.5902 128.002C10.5902 63.1595 63.156 10.59 128.005 10.59ZM128.005 0C110.728 0 93.9635 3.38478 78.1765 10.0626C62.931 16.5112 49.2452 25.7389 37.4946 37.4893C25.744 49.2397 16.516 62.93 10.0674 78.171C3.38484 93.962 0 110.725 0 128.002C0 145.279 3.38484 162.042 10.0627 177.829C16.5114 193.074 25.7394 206.76 37.4901 218.51C49.2407 230.261 62.931 239.489 78.172 245.938C93.959 252.615 110.722 256 128 256C145.278 256 162.041 252.615 177.828 245.938C193.073 239.489 206.759 230.261 218.51 218.51C230.261 206.76 239.489 193.07 245.938 177.829C252.615 162.042 256 145.279 256 128.002C256 110.725 252.615 93.962 245.938 78.1755C239.489 62.93 230.261 49.2443 218.51 37.4939C206.759 25.7436 193.069 16.5157 177.828 10.0672C162.046 3.38478 145.282 0 128.005 0Z" fill="url(#paint0_linear_1958_3372)"/>
<g opacity="0.98">
<path d="M54.8901 123.522C51.4686 121.999 48.8315 119.848 46.9831 117.06C45.1348 114.271 44.2129 111.005 44.2129 107.268V104.512C44.2129 103.878 44.5156 103.562 45.121 103.562H51.7531C52.3586 103.562 52.6611 103.878 52.6611 104.512V106.795C52.6611 110.024 53.9911 112.689 56.6606 114.781C59.3256 116.872 62.9896 117.917 67.6591 117.917C71.8376 117.917 74.9886 117 77.1121 115.161C79.2306 113.326 80.2901 110.914 80.2901 107.937C80.2901 105.974 79.7446 104.296 78.6526 102.901C77.5611 101.507 75.9741 100.223 73.8826 99.0485C71.7916 97.8795 68.7506 96.4665 64.7511 94.82C60.3301 93.045 56.8306 91.431 54.2571 89.9725C51.6796 88.514 49.547 86.597 47.85 84.2205C46.153 81.845 45.3045 78.85 45.3045 75.2405C45.3045 69.792 47.1666 65.513 50.8956 62.408C54.6201 59.303 59.6646 57.748 66.0261 57.748C70.5071 57.748 74.4471 58.5415 77.8411 60.124C81.2351 61.7105 83.8541 63.926 85.7021 66.779C87.5506 69.6315 88.4726 72.9245 88.4726 76.667V78.566C88.4726 79.1985 88.1701 79.515 87.5641 79.515H80.7486C80.1436 79.515 79.8406 79.1985 79.8406 78.566V77.1395C79.8406 73.8465 78.5841 71.1035 76.0711 68.916C73.5571 66.728 70.0851 65.6365 65.6641 65.6365C61.9076 65.6365 58.9996 66.4435 56.9401 68.0585C54.8806 69.673 53.8491 72.0025 53.8491 75.048C53.8491 77.1395 54.3626 78.85 55.3951 80.1805C56.4221 81.51 57.9541 82.6985 59.9861 83.7435C62.0131 84.7895 65.1181 86.1375 69.3011 87.7845C73.6031 89.5595 77.0846 91.192 79.7536 92.678C82.4186 94.1685 84.6291 96.1315 86.3856 98.5715C88.1421 101.012 89.0181 104.039 89.0181 107.653C89.0181 113.23 87.0646 117.652 83.1571 120.912C79.2496 124.178 73.8741 125.806 67.0261 125.806C62.3616 125.806 58.3161 125.045 54.8951 123.522H54.8901Z" fill="url(#paint1_linear_1958_3372)"/>
<path d="M141.493 58.4946H148.717C149.35 58.4946 149.666 58.8116 149.666 59.4446V124.09C149.666 124.723 149.35 125.04 148.717 125.04H141.777C141.332 125.04 140.952 124.819 140.635 124.374L110.878 75.7946C110.813 75.6021 110.717 75.5246 110.593 75.5561C110.465 75.5886 110.401 75.6986 110.401 75.8911L110.497 124.09C110.497 124.723 110.181 125.04 109.548 125.04H102.324C101.691 125.04 101.375 124.723 101.375 124.09V59.4446C101.375 58.8116 101.691 58.4946 102.324 58.4946H109.36C109.805 58.4946 110.181 58.7196 110.502 59.1601L140.163 107.739C140.227 107.927 140.318 108.01 140.447 107.978C140.571 107.946 140.635 107.836 140.635 107.647L140.539 59.4491C140.539 58.8156 140.855 58.4996 141.488 58.4996L141.493 58.4946Z" fill="url(#paint2_linear_1958_3372)"/>
<path d="M160.885 124.705C160.757 124.485 160.788 124.214 160.981 123.898L180.565 92.0497C180.694 91.8567 180.694 91.6692 180.565 91.4807L160.981 59.6322C160.853 59.3802 160.788 59.1927 160.788 59.0642C160.788 58.6832 161.073 58.4907 161.647 58.4907H169.535C169.98 58.4907 170.361 58.7152 170.677 59.1557L185.982 84.3442C186.046 84.4087 186.138 84.4402 186.267 84.4402C186.395 84.4402 186.487 84.4087 186.551 84.3442L201.856 59.1557C202.173 58.7112 202.553 58.4907 202.998 58.4907H210.795C211.176 58.4907 211.428 58.6052 211.557 58.8257C211.685 59.0502 211.653 59.3162 211.46 59.6322L191.972 91.5722C191.908 91.7652 191.908 91.9532 191.972 92.1457L211.46 123.898C211.589 124.15 211.653 124.343 211.653 124.467C211.653 124.847 211.368 125.035 210.795 125.035H202.998C202.553 125.035 202.173 124.815 201.856 124.37L186.551 99.2732C186.487 99.1492 186.391 99.0807 186.267 99.0807C186.143 99.0807 186.042 99.1447 185.982 99.2732L170.677 124.37C170.361 124.815 169.98 125.035 169.535 125.035H161.647C161.266 125.035 161.013 124.925 160.885 124.7V124.705Z" fill="url(#paint3_linear_1958_3372)"/>
<path d="M54.9316 132.341C51.4961 133.846 48.8498 135.973 46.9969 138.735C45.1393 141.491 44.2129 144.72 44.2129 148.416V151.141C44.2129 151.765 44.5156 152.081 45.1256 152.081H51.7851C52.3906 152.081 52.6981 151.765 52.6981 151.141V148.884C52.6981 145.688 54.0371 143.055 56.7111 140.986C59.3896 138.918 63.0681 137.886 67.7506 137.886C71.9476 137.886 75.1076 138.794 77.2401 140.615C79.3686 142.431 80.4321 144.812 80.4321 147.761C80.4321 149.701 79.8866 151.361 78.7901 152.742C77.6941 154.117 76.0981 155.388 74.0021 156.548C71.9061 157.704 68.8466 159.099 64.8336 160.731C60.3936 162.483 56.8806 164.084 54.2986 165.524C51.7116 166.964 49.5699 168.863 47.8683 171.211C46.1621 173.559 45.3136 176.522 45.3136 180.095C45.3136 185.484 47.1849 189.713 50.9231 192.786C54.6606 195.854 59.7291 197.391 66.1131 197.391C70.6126 197.391 74.5661 196.606 77.9741 195.042C81.3771 193.474 84.0096 191.281 85.8676 188.461C87.7201 185.64 88.6516 182.384 88.6516 178.682V176.802C88.6516 176.174 88.3441 175.862 87.7391 175.862H80.8956C80.2861 175.862 79.9831 176.174 79.9831 176.802V178.21C79.9831 181.466 78.7216 184.182 76.1941 186.342C73.6721 188.502 70.1861 189.584 65.7461 189.584C61.9761 189.584 59.0551 188.786 56.9861 187.19C54.9181 185.589 53.8856 183.287 53.8856 180.278C53.8856 178.21 54.4041 176.518 55.4361 175.201C56.4681 173.885 58.0046 172.711 60.0456 171.674C62.0821 170.638 65.2006 169.307 69.3976 167.68C73.7136 165.923 77.2126 164.313 79.8866 162.841C82.5606 161.369 84.7806 159.424 86.5461 157.011C88.3121 154.599 89.1926 151.604 89.1926 148.036C89.1926 142.519 87.2296 138.148 83.3081 134.923C79.3871 131.695 73.9886 130.085 67.1131 130.085C62.4301 130.085 58.3666 130.837 54.9316 132.341Z" fill="url(#paint4_linear_1958_3372)"/>
<path d="M141.424 196.639H148.616C149.245 196.639 149.561 196.322 149.561 195.698V131.778C149.561 131.149 149.245 130.838 148.616 130.838H141.709C141.269 130.838 140.888 131.058 140.572 131.493L110.956 179.527C110.892 179.715 110.796 179.793 110.672 179.761C110.544 179.729 110.484 179.618 110.484 179.431L110.58 131.773C110.58 131.145 110.264 130.833 109.635 130.833H102.444C101.811 130.833 101.499 131.145 101.499 131.773V195.694C101.499 196.318 101.816 196.634 102.444 196.634H109.447C109.888 196.634 110.269 196.414 110.585 195.973L140.108 147.94C140.173 147.752 140.264 147.674 140.393 147.706C140.516 147.738 140.58 147.848 140.58 148.037L140.484 195.694C140.484 196.318 140.801 196.634 141.429 196.634L141.424 196.639Z" fill="url(#paint5_linear_1958_3372)"/>
<path d="M160.724 131.167C160.595 131.387 160.627 131.653 160.82 131.965L180.312 163.456C180.441 163.643 180.441 163.832 180.312 164.019L160.82 195.51C160.691 195.762 160.632 195.946 160.632 196.074C160.632 196.45 160.916 196.638 161.485 196.638H169.337C169.777 196.638 170.158 196.418 170.475 195.977L185.711 171.069C185.77 171.005 185.867 170.972 185.995 170.972C186.123 170.972 186.215 171.005 186.279 171.069L201.516 195.977C201.832 196.418 202.208 196.638 202.649 196.638H210.409C210.79 196.638 211.037 196.528 211.166 196.308C211.294 196.088 211.262 195.822 211.069 195.51L191.673 163.928C191.609 163.739 191.609 163.552 191.673 163.364L211.069 131.965C211.198 131.713 211.258 131.525 211.258 131.401C211.258 131.025 210.973 130.837 210.405 130.837H202.644C202.204 130.837 201.823 131.057 201.511 131.493L186.275 156.31C186.211 156.433 186.115 156.498 185.991 156.498C185.867 156.498 185.77 156.433 185.706 156.31L170.47 131.493C170.153 131.052 169.777 130.837 169.332 130.837H161.48C161.1 130.837 160.848 130.947 160.724 131.167Z" fill="url(#paint6_linear_1958_3372)"/>
<path d="M98.0992 45.8506H110.125C110.125 45.8506 110.125 61.8433 124.242 61.6003C138.359 61.3523 140.19 51.2673 141.235 45.8506H152.477C152.477 45.8506 151.743 72.1813 126.095 73.1628C100.447 74.1488 98.0947 45.8506 98.0947 45.8506H98.0992Z" fill="url(#paint7_linear_1958_3372)" stroke="black" stroke-width="7.16" stroke-miterlimit="10"/>
<path d="M153.344 210.306H141.318C141.318 210.306 141.318 194.313 127.201 194.556C113.084 194.804 111.253 204.889 110.208 210.306H98.9658C98.9658 210.306 99.7003 183.975 125.348 182.993C150.995 182.008 153.348 210.306 153.348 210.306H153.344Z" fill="url(#paint8_linear_1958_3372)" stroke="black" stroke-width="7.16" stroke-miterlimit="10"/>
</g>
</g>
</g>
<defs>
<linearGradient id="paint0_linear_1958_3372" x1="0" y1="128.002" x2="256.01" y2="128.002" gradientUnits="userSpaceOnUse">
<stop stop-color="#03B8FF"/>
<stop offset="0.11" stop-color="#08AEFB"/>
<stop offset="0.29" stop-color="#1995F2"/>
<stop offset="0.52" stop-color="#336BE4"/>
<stop offset="0.9999" stop-color="#5732D0"/>
<stop offset="1" stop-color="#7800BF"/>
</linearGradient>
<linearGradient id="paint1_linear_1958_3372" x1="83.4501" y1="63.256" x2="50.1531" y2="120.927" gradientUnits="userSpaceOnUse">
<stop stop-color="#03B8FF"/>
<stop offset="0.11" stop-color="#08AEFB"/>
<stop offset="0.29" stop-color="#1995F2"/>
<stop offset="0.52" stop-color="#336BE4"/>
<stop offset="0.79" stop-color="#5732D0"/>
<stop offset="1" stop-color="#7800BF"/>
</linearGradient>
<linearGradient id="paint2_linear_1958_3372" x1="145.814" y1="56.6191" x2="105.229" y2="126.916" gradientUnits="userSpaceOnUse">
<stop stop-color="#03B8FF"/>
<stop offset="0.11" stop-color="#08AEFB"/>
<stop offset="0.29" stop-color="#1995F2"/>
<stop offset="0.52" stop-color="#336BE4"/>
<stop offset="0.79" stop-color="#5732D0"/>
<stop offset="1" stop-color="#7800BF"/>
</linearGradient>
<linearGradient id="paint3_linear_1958_3372" x1="206.855" y1="56.0232" x2="165.583" y2="127.512" gradientUnits="userSpaceOnUse">
<stop stop-color="#03B8FF"/>
<stop offset="0.11" stop-color="#08AEFB"/>
<stop offset="0.29" stop-color="#1995F2"/>
<stop offset="0.52" stop-color="#336BE4"/>
<stop offset="0.79" stop-color="#5732D0"/>
<stop offset="1" stop-color="#7800BF"/>
</linearGradient>
<linearGradient id="paint4_linear_1958_3372" x1="83.1801" y1="134.57" x2="49.791" y2="192.405" gradientUnits="userSpaceOnUse">
<stop stop-color="#03B8FF"/>
<stop offset="0.11" stop-color="#08AEFB"/>
<stop offset="0.29" stop-color="#1995F2"/>
<stop offset="0.52" stop-color="#336BE4"/>
<stop offset="0.79" stop-color="#5732D0"/>
<stop offset="1" stop-color="#7800BF"/>
</linearGradient>
<linearGradient id="paint5_linear_1958_3372" x1="145.63" y1="128.916" x2="105.422" y2="198.561" gradientUnits="userSpaceOnUse">
<stop stop-color="#03B8FF"/>
<stop offset="0.11" stop-color="#08AEFB"/>
<stop offset="0.29" stop-color="#1995F2"/>
<stop offset="0.52" stop-color="#336BE4"/>
<stop offset="0.79" stop-color="#5732D0"/>
<stop offset="1" stop-color="#7800BF"/>
</linearGradient>
<linearGradient id="paint6_linear_1958_3372" x1="206.4" y1="128.301" x2="165.481" y2="199.175" gradientUnits="userSpaceOnUse">
<stop stop-color="#03B8FF"/>
<stop offset="0.11" stop-color="#08AEFB"/>
<stop offset="0.29" stop-color="#1995F2"/>
<stop offset="0.52" stop-color="#336BE4"/>
<stop offset="0.79" stop-color="#5732D0"/>
<stop offset="1" stop-color="#7800BF"/>
</linearGradient>
<linearGradient id="paint7_linear_1958_3372" x1="133.644" y1="34.9762" x2="113.075" y2="70.6083" gradientUnits="userSpaceOnUse">
<stop stop-color="#03B8FF"/>
<stop offset="0.11" stop-color="#08AEFB"/>
<stop offset="0.29" stop-color="#1995F2"/>
<stop offset="0.52" stop-color="#336BE4"/>
<stop offset="0.79" stop-color="#5732D0"/>
<stop offset="1" stop-color="#796DFF"/>
</linearGradient>
<linearGradient id="paint8_linear_1958_3372" x1="138.369" y1="185.553" x2="117.799" y2="221.185" gradientUnits="userSpaceOnUse">
<stop stop-color="#03B8FF"/>
<stop offset="0.11" stop-color="#08AEFB"/>
<stop offset="0.29" stop-color="#1995F2"/>
<stop offset="0.52" stop-color="#336BE4"/>
<stop offset="0.79" stop-color="#5732D0"/>
<stop offset="1" stop-color="#7800BF"/>
</linearGradient>
<clipPath id="clip0_1958_3372">
<rect width="256" height="256" fill="white"/>
</clipPath>
</defs>
</svg>
