<svg width="256" height="256" viewBox="0 0 256 256" fill="none" xmlns="http://www.w3.org/2000/svg">
<path d="M128 252.953C197.009 252.953 252.952 197.01 252.952 128C252.952 58.991 197.009 3.04785 128 3.04785C58.9909 3.04785 3.04785 58.991 3.04785 128C3.04785 197.01 58.9909 252.953 128 252.953Z" fill="white" stroke="url(#paint0_linear_1835_1010)" stroke-width="3"/>
<path d="M128.596 231.495C185.426 231.495 231.495 185.426 231.495 128.596C231.495 71.7667 185.426 25.6973 128.596 25.6973C71.7663 25.6973 25.6968 71.7667 25.6968 128.596C25.6968 185.426 71.7663 231.495 128.596 231.495Z" fill="#F8F5FF" stroke="#D4C6F5" stroke-width="3"/>
<path d="M126.689 157.861L127.743 158.912L175.971 130.405L127.743 50.3828L126.689 53.9633V157.861Z" fill="#487BDB"/>
<path d="M127.743 158.913V50.3828L79.5151 130.405L127.743 158.913Z" fill="#69A6F6"/>
<path d="M127.149 205.778L127.743 207.512L176 139.55L127.743 168.044L127.15 168.767L127.149 205.778Z" fill="#487BDB"/>
<path d="M79.5151 139.55L127.743 207.512V168.044L79.5151 139.55Z" fill="#69A6F6"/>
<path d="M127.743 108.484V158.912L175.97 130.405L127.743 108.484Z" fill="#024FC2"/>
<path d="M127.743 108.484L79.5151 130.405L127.743 158.912V108.484Z" fill="#6395D7"/>
<defs>
<linearGradient id="paint0_linear_1835_1010" x1="128" y1="6.09547" x2="128" y2="249.905" gradientUnits="userSpaceOnUse">
<stop stop-color="#6960EC"/>
<stop offset="1" stop-color="#A988FF"/>
</linearGradient>
</defs>
</svg>
