<svg width="256" height="256" viewBox="0 0 256 256" fill="none" xmlns="http://www.w3.org/2000/svg">
<path d="M128 252.953C197.009 252.953 252.952 197.01 252.952 128C252.952 58.991 197.009 3.04785 128 3.04785C58.9909 3.04785 3.04785 58.991 3.04785 128C3.04785 197.01 58.9909 252.953 128 252.953Z" fill="white" stroke="url(#paint0_linear_1835_1042)" stroke-width="3"/>
<path d="M128.596 231.495C185.426 231.495 231.495 185.426 231.495 128.596C231.495 71.7667 185.426 25.6973 128.596 25.6973C71.7663 25.6973 25.6968 71.7667 25.6968 128.596C25.6968 185.426 71.7663 231.495 128.596 231.495Z" fill="#F8F5FF" stroke="#D4C6F5" stroke-width="5"/>
<path d="M131.368 85.344C132.968 82.848 135.912 81.088 140.2 80.064C144.68 79.04 148.36 79.04 151.24 80.064C152.712 80.64 153.8 81.504 154.504 82.656C155.208 83.744 155.24 85.152 154.6 86.88C154.152 87.328 153.768 87.904 153.448 88.608C153.192 89.248 152.872 89.952 152.488 90.72C151.528 92.832 150.536 94.368 149.512 95.328C152.648 95.712 155.016 96.448 156.616 97.536C158.216 98.624 159.688 99.648 161.032 100.608C162.248 101.76 162.824 102.624 162.76 103.2C162.76 103.712 162.408 104.224 161.704 104.736C161.064 105.248 160.264 105.888 159.304 106.656C158.408 107.36 157.704 108.448 157.192 109.92C157.576 111.968 157.576 113.504 157.192 114.528C156.36 116.832 154.344 118.272 151.144 118.848C149.032 119.168 146.376 119.36 143.176 119.424C140.04 119.488 137.736 119.584 136.264 119.712C134.856 119.776 133.64 120 132.616 120.384C130.312 121.152 129.352 122.656 129.736 124.896C129.864 125.664 130.472 126.464 131.56 127.296C132.712 128.128 134.056 129.056 135.592 130.08C137.128 131.104 138.728 132.224 140.392 133.44C142.056 134.656 143.528 136.064 144.808 137.664C147.752 141.248 148.712 145.184 147.688 149.472C146.216 155.36 142.568 160.416 136.744 164.64C134.632 166.176 132.168 167.456 129.352 168.48C129.16 168.8 128.936 169.056 128.68 169.248C128.488 169.504 128.328 169.792 128.2 170.112L127.432 171.264C126.792 172.416 126.184 173.6 125.608 174.816C125.032 176.032 124.328 177.248 123.496 178.464C123.368 178.528 123.304 178.528 123.304 178.464C123.048 180.128 122.344 181.632 121.192 182.976C120.104 184.384 118.856 185.408 117.448 186.048C116.04 186.688 114.6 186.848 113.128 186.528C111.656 186.208 110.44 185.216 109.48 183.552H109.384V170.688C103.88 169.984 99.944 167.648 97.576 163.68C96.488 161.952 95.848 160.128 95.656 158.208C95.464 156.224 95.72 154.4 96.424 152.736C97.512 151.2 98.952 150.24 100.744 149.856C102.6 149.408 104.552 149.184 106.6 149.184C108.648 149.184 110.696 149.216 112.744 149.28C114.792 149.344 116.584 149.12 118.12 148.608C122.92 147.456 125.704 146.624 126.472 146.112C127.24 145.536 127.464 145.12 127.144 144.864C126.824 144.608 126.312 144.352 125.608 144.096C124.904 143.84 124.104 143.552 123.208 143.232C122.312 142.912 121.48 142.496 120.712 141.984C113.736 138.592 109.128 133.568 106.888 126.912C106.056 124.416 105.768 121.728 106.024 118.848C106.344 115.904 106.984 113.376 107.944 111.264C108.968 109.088 110.184 107.2 111.592 105.6C114.6 101.952 119.272 99.008 125.608 96.768C127.08 96.256 128.488 95.84 129.832 95.52C129.96 93.472 130.024 92.032 130.024 91.2C130.024 90.368 130.024 89.76 130.024 89.376C130.088 88.928 130.216 88.48 130.408 88.032C130.6 87.584 130.92 86.688 131.368 85.344Z" fill="#A682FF"/>
<defs>
<linearGradient id="paint0_linear_1835_1042" x1="128" y1="6.09547" x2="128" y2="249.905" gradientUnits="userSpaceOnUse">
<stop stop-color="#6960EC"/>
<stop offset="1" stop-color="#A988FF"/>
</linearGradient>
</defs>
</svg>
