<svg width="256" height="256" viewBox="0 0 256 256" fill="none" xmlns="http://www.w3.org/2000/svg">
<g clip-path="url(#clip0_2465_326)">
<path d="M128 252C196.483 252 252 196.483 252 128C252 59.5167 196.483 4 128 4C59.5167 4 4 59.5167 4 128C4 196.483 59.5167 252 128 252Z" fill="#232323"/>
<mask id="mask0_2465_326" style="mask-type:luminance" maskUnits="userSpaceOnUse" x="0" y="0" width="256" height="256">
<path d="M0 0H255.692V255.692H0V0Z" fill="white"/>
</mask>
<g mask="url(#mask0_2465_326)">
<path fill-rule="evenodd" clip-rule="evenodd" d="M127.846 9.86809C62.7931 9.86809 9.86809 62.7913 9.86809 127.846C9.86809 192.899 62.7931 245.822 127.846 245.822C192.899 245.822 245.824 192.899 245.824 127.846C245.824 62.7913 192.899 9.86809 127.846 9.86809ZM127.846 255.692C57.3516 255.692 0 198.339 0 127.846C0 57.3497 57.3516 0 127.846 0C198.339 0 255.692 57.3497 255.692 127.846C255.692 198.339 198.339 255.692 127.846 255.692Z" fill="#00D2BE"/>
</g>
<path fill-rule="evenodd" clip-rule="evenodd" d="M127.861 232.407L132.196 225.931V225.905L222.948 90.1994L172.091 40.3906H83.6304L32.75 90.1976L123.5 225.903C123.5 225.903 123.5 225.929 123.526 225.929L127.863 232.406L127.861 232.407Z" fill="#00D2BE"/>
<path fill-rule="evenodd" clip-rule="evenodd" d="M95.3107 97.057L117.088 184.195L58.8033 97.0607H95.3143L95.3107 97.057ZM153.298 87.9671H102.418L95.1558 58.8822H160.56L153.298 87.9671ZM127.858 189.695L104.698 97.057H151.02L127.858 189.695ZM160.402 97.057H196.886L138.61 184.195L160.405 97.057H160.402ZM194.27 87.9671H162.678L168.874 63.1556L194.27 87.9671ZM86.8185 63.1319L93.0127 87.9452H61.4457L86.8185 63.1319ZM127.858 216.666L131.663 210.986V210.962L211.282 91.8998L168.26 49.7959H87.4563L44.4121 91.8998L124.031 210.962C124.031 210.962 124.031 210.986 124.053 210.986L127.858 216.666Z" fill="#232323"/>
</g>
<defs>
<clipPath id="clip0_2465_326">
<rect width="256" height="256" fill="white"/>
</clipPath>
</defs>
</svg>
