<svg width="256" height="256" viewBox="0 0 256 256" fill="none" xmlns="http://www.w3.org/2000/svg">
<path d="M127.458 251.119C194.855 251.119 249.492 195.997 249.492 128C249.492 60.0034 194.855 4.88135 127.458 4.88135C60.0603 4.88135 5.42383 60.0034 5.42383 128C5.42383 195.997 60.0603 251.119 127.458 251.119Z" fill="#0A3F52" stroke="white" stroke-opacity="0.0351759"/>
<path d="M45.9697 144.92C46.7526 144.942 47.5355 144.953 48.3249 144.953C64.5128 144.953 79.6125 140.305 92.3638 132.269C97.585 159.155 121.243 179.452 149.645 179.452C172.885 179.452 192.954 165.856 202.335 146.181C203.065 145.796 203.781 145.396 204.491 144.982C194.234 179.051 162.635 203.866 125.244 203.866C87.8259 203.866 56.2065 179.021 45.9697 144.92Z" fill="url(#paint0_radial_2270_109)"/>
<path d="M45.9697 144.92C46.7526 144.942 47.5355 144.953 48.3249 144.953C64.5128 144.953 79.6125 140.305 92.3638 132.269C97.585 159.155 121.243 179.452 149.645 179.452C172.885 179.452 192.954 165.856 202.335 146.181C203.065 145.796 203.781 145.396 204.491 144.982C194.234 179.051 162.635 203.866 125.244 203.866C87.8259 203.866 56.2065 179.021 45.9697 144.92Z" fill="#04171E" fill-opacity="0.88"/>
<path d="M46.3652 146.204C47.0154 146.218 47.6656 146.226 48.3224 146.226C64.6031 146.226 79.7891 141.521 92.5868 133.396C98.2459 159.719 121.639 179.45 149.636 179.45C172.883 179.45 192.951 165.855 202.332 146.179C203.062 145.794 203.779 145.395 204.489 144.981C194.232 179.05 162.632 203.865 125.234 203.865C88.2944 203.865 57.0001 179.642 46.3652 146.204Z" fill="url(#paint1_radial_2270_109)"/>
<path d="M46.3652 146.204C47.0154 146.218 47.6656 146.226 48.3224 146.226C64.6031 146.226 79.7891 141.521 92.5868 133.396C98.2459 159.719 121.639 179.45 149.636 179.45C172.883 179.45 192.951 165.855 202.332 146.179C203.062 145.794 203.779 145.395 204.489 144.981C194.232 179.05 162.632 203.865 125.234 203.865C88.2944 203.865 57.0001 179.642 46.3652 146.204Z" fill="#04171E" fill-opacity="0.4"/>
<path d="M164.395 177.57C152.626 187.361 137.499 193.25 121 193.25C90.2031 193.25 64.1898 172.733 55.877 144.613C69.2054 143.407 81.6182 139.04 92.3659 132.269C97.5871 159.155 121.245 179.452 149.647 179.452C154.742 179.452 159.685 178.798 164.395 177.57Z" fill="url(#paint2_linear_2270_109)" fill-opacity="0.64"/>
<path d="M193.146 121.068C193.146 158.588 162.741 189.004 125.244 189.004C87.7395 189.004 57.3408 158.588 57.3408 121.068C57.3408 83.5487 87.7395 53.1328 125.244 53.1328C162.741 53.1328 193.146 83.5487 193.146 121.068Z" fill="url(#paint3_radial_2270_109)"/>
<path d="M188.624 108.312C188.624 134.693 167.248 156.079 140.883 156.079C114.518 156.079 93.1426 134.693 93.1426 108.312C93.1426 81.9307 114.518 60.5444 140.883 60.5444C167.248 60.5444 188.624 81.9307 188.624 108.312Z" fill="url(#paint4_radial_2270_109)" fill-opacity="0.6"/>
<path d="M129.691 60.6303C128.629 60.5733 127.555 60.5444 126.473 60.5444C116.316 60.5444 106.756 63.1016 98.4033 67.6074C102.868 66.6222 107.512 66.1028 112.276 66.1028C117.132 66.1028 121.862 66.6424 126.414 67.665L129.691 60.6303Z" fill="url(#paint5_linear_2270_109)" fill-opacity="0.64"/>
<path d="M133.622 69.7372C158.587 78.5387 176.48 102.346 176.48 130.333C176.48 141.839 173.455 152.639 168.16 161.979C179.014 151.233 185.735 136.319 185.735 119.834C185.735 90.835 164.93 66.6984 137.437 61.5557L133.622 69.7372Z" fill="url(#paint6_linear_2270_109)" fill-opacity="0.64"/>
<path d="M161.527 178.501C151.031 185.154 138.585 189.006 125.244 189.006C104.093 189.006 85.2054 179.331 72.7461 164.165C76.1827 164.795 79.7188 165.124 83.3345 165.124C109.58 165.124 131.779 147.786 139.116 123.933C141.538 124.146 143.986 124.254 146.46 124.254C163.418 124.254 179.188 119.151 192.31 110.396C192.854 113.874 193.14 117.438 193.14 121.07C193.14 123.324 193.034 125.552 192.821 127.75C189.007 148.36 177.562 166.291 161.527 178.501Z" fill="url(#paint7_linear_2270_109)" fill-opacity="0.64"/>
<path d="M45.9883 144.98C56.245 179.05 87.8445 203.867 125.242 203.867C170.767 203.867 207.707 167.083 207.993 121.598C203.455 121.57 198.997 121.175 194.658 120.442C184.454 124.94 173.176 127.437 161.313 127.437C157.2 127.437 153.16 127.137 149.206 126.557C141.875 150.425 119.669 167.775 93.4173 167.775C75.1064 167.775 58.7661 159.338 48.0649 146.137C47.3683 145.765 46.6716 145.379 45.9883 144.98Z" fill="url(#paint8_linear_2270_109)"/>
<path d="M208 121.669C195.826 128.714 181.694 132.745 166.621 132.745C163.748 132.745 160.916 132.598 158.116 132.313C152.875 159.176 129.23 179.451 100.848 179.451C77.6012 179.451 57.5323 165.856 48.1513 146.179C47.4215 145.795 46.705 145.395 45.9951 144.981C56.2518 179.05 87.8513 203.865 125.249 203.865C170.748 203.865 207.674 167.12 208 121.669Z" fill="url(#paint9_radial_2270_109)"/>
<path d="M201.962 124.838C196.979 127.197 191.718 129.073 186.252 130.404C185.542 136.45 184.175 142.513 182.112 148.505C177.09 163.109 168.531 175.494 157.73 185.034C176.201 176.141 191.254 160.151 198.452 139.227C200.091 134.462 201.252 129.648 201.962 124.838Z" fill="url(#paint10_linear_2270_109)" fill-opacity="0.64"/>
<path opacity="0.2" fill-rule="evenodd" clip-rule="evenodd" d="M149.171 126.698C149.264 126.574 149.437 126.55 149.563 126.647C152.322 128.839 155.308 130.772 158.506 132.413C158.645 132.483 158.698 132.655 158.632 132.797C158.565 132.939 158.399 132.996 158.26 132.926C155.029 131.269 152.011 129.315 149.224 127.1C149.098 127.003 149.078 126.824 149.171 126.698Z" fill="url(#paint11_linear_2270_109)"/>
<defs>
<radialGradient id="paint0_radial_2270_109" cx="0" cy="0" r="1" gradientUnits="userSpaceOnUse" gradientTransform="translate(204.491 186.377) rotate(179.948) scale(600.864 1746.79)">
<stop offset="0.104167" stop-color="#24537E"/>
<stop offset="0.520341" stop-color="#4FC1C0"/>
<stop offset="1" stop-color="#DAFFF4"/>
</radialGradient>
<radialGradient id="paint1_radial_2270_109" cx="0" cy="0" r="1" gradientUnits="userSpaceOnUse" gradientTransform="translate(204.489 186.377) rotate(179.948) scale(600.864 1746.79)">
<stop offset="0.104167" stop-color="#24537E"/>
<stop offset="0.520341" stop-color="#4FC1C0"/>
<stop offset="1" stop-color="#DAFFF4"/>
</radialGradient>
<linearGradient id="paint2_linear_2270_109" x1="162.365" y1="204.696" x2="135.038" y2="62.6256" gradientUnits="userSpaceOnUse">
<stop stop-color="#04171E"/>
<stop offset="1" stop-color="#04171E" stop-opacity="0"/>
</linearGradient>
<radialGradient id="paint3_radial_2270_109" cx="0" cy="0" r="1" gradientUnits="userSpaceOnUse" gradientTransform="translate(75.5521 174.182) rotate(-57.5536) scale(119.657 1733.51)">
<stop offset="0.104167" stop-color="#3A78B1"/>
<stop offset="0.520341" stop-color="#4FC1C0"/>
<stop offset="1" stop-color="#8CF2FD"/>
</radialGradient>
<radialGradient id="paint4_radial_2270_109" cx="0" cy="0" r="1" gradientUnits="userSpaceOnUse" gradientTransform="translate(188.366 60.5632) rotate(144.253) scale(117.65 116.834)">
<stop offset="0.216485" stop-color="white"/>
<stop offset="0.906332" stop-color="white" stop-opacity="0"/>
</radialGradient>
<linearGradient id="paint5_linear_2270_109" x1="168.21" y1="87.1006" x2="98.1777" y2="117.592" gradientUnits="userSpaceOnUse">
<stop stop-color="white"/>
<stop offset="0.732381" stop-color="white" stop-opacity="0"/>
</linearGradient>
<linearGradient id="paint6_linear_2270_109" x1="168.214" y1="87.1001" x2="98.1813" y2="117.591" gradientUnits="userSpaceOnUse">
<stop stop-color="white"/>
<stop offset="0.732381" stop-color="white" stop-opacity="0"/>
</linearGradient>
<linearGradient id="paint7_linear_2270_109" x1="298.182" y1="-58.0645" x2="11.6768" y2="180.514" gradientUnits="userSpaceOnUse">
<stop stop-color="#04171E"/>
<stop offset="1" stop-color="#04171E" stop-opacity="0"/>
</linearGradient>
<linearGradient id="paint8_linear_2270_109" x1="177.76" y1="131.949" x2="70.3231" y2="169.863" gradientUnits="userSpaceOnUse">
<stop stop-color="#0E6585"/>
<stop offset="1" stop-color="#04171E"/>
</linearGradient>
<radialGradient id="paint9_radial_2270_109" cx="0" cy="0" r="1" gradientUnits="userSpaceOnUse" gradientTransform="translate(67.7226 194.898) rotate(-38.5777) scale(97.9616 1528.07)">
<stop offset="0.104167" stop-color="#3A78B1"/>
<stop offset="0.520341" stop-color="#4FC1C0"/>
<stop offset="1" stop-color="#8CF2FD"/>
</radialGradient>
<linearGradient id="paint10_linear_2270_109" x1="202.161" y1="124.784" x2="160.822" y2="187.415" gradientUnits="userSpaceOnUse">
<stop stop-color="white" stop-opacity="0.64"/>
<stop offset="1" stop-color="white" stop-opacity="0"/>
</linearGradient>
<linearGradient id="paint11_linear_2270_109" x1="158.605" y1="132.654" x2="145.171" y2="124.354" gradientUnits="userSpaceOnUse">
<stop stop-color="#8CF2FD"/>
<stop offset="1" stop-color="#8CF2FD" stop-opacity="0"/>
</linearGradient>
</defs>
</svg>
