<svg width="256" height="256" viewBox="0 0 256 256" fill="none" xmlns="http://www.w3.org/2000/svg">
<circle cx="127" cy="128" r="125" fill="#1E1E1E"/>
<path d="M111.389 232.075C113.127 232.944 114.431 233.379 116.17 233.814L117.039 234.248C118.777 234.683 120.081 235.118 121.82 235.552H122.689C126.166 235.987 129.643 235.987 132.686 235.552H133.555C135.293 235.118 136.597 235.118 138.336 234.683L139.205 234.248C140.943 233.814 142.247 232.944 143.986 232.509L144.855 232.075C146.159 231.205 147.898 230.336 149.201 229.467H149.636C150.94 228.597 152.678 227.293 153.982 226.424L154.852 225.554C156.156 224.25 157.459 223.381 158.763 222.077L159.633 221.207C160.936 219.903 162.24 218.599 163.544 216.86L163.979 215.991C165.283 214.687 166.152 212.948 167.456 211.644L167.89 211.209C155.286 210.34 143.117 208.166 130.947 204.254C129.209 203.819 127.47 203.819 125.731 204.254C113.562 208.166 101.392 210.34 88.788 211.209C94.0035 220.338 101.827 227.293 111.389 232.075Z" fill="url(#paint0_linear_741_46)"/>
<path d="M28.3746 166C28.3746 167.738 28.8092 169.477 29.2438 170.781V171.651C29.6785 173.39 30.1131 174.694 30.5477 176.432L30.9823 177.302C32.2862 180.345 34.0248 183.388 36.1979 185.996L36.6325 186.431C37.5018 187.735 38.8057 189.039 40.1096 189.908L40.9788 190.778C42.2827 191.647 43.5866 192.951 44.8905 193.821L45.3251 194.255C46.629 195.125 47.9329 195.994 49.2368 196.864L49.6714 197.298C51.4099 198.168 52.7138 198.602 54.4523 199.472L55.3216 199.906C57.0601 200.341 58.7986 200.776 60.5371 201.211L61.841 201.645C63.5795 202.08 65.318 202.515 67.0566 202.949H67.9258C69.6643 203.384 71.4029 203.384 73.1414 203.819H74.0106C72.7067 201.211 71.4029 198.168 70.099 195.125C69.2297 193.386 69.6643 191.647 70.9682 190.778C72.2721 189.474 74.0106 189.474 75.3145 190.343C76.1838 190.778 76.6184 191.212 77.053 192.082C77.9223 194.69 79.2262 196.864 80.5301 199.037C82.2686 202.08 85.311 203.819 88.788 203.819C95.7421 203.384 102.262 202.515 109.216 200.776C110.085 200.341 110.519 199.906 110.954 199.037C110.954 198.168 110.519 197.298 109.65 196.864C104 194.255 98.3499 191.212 92.6997 188.169C69.6643 175.563 49.6714 157.305 34.894 135.57H34.4594C33.5901 137.309 32.7209 139.483 32.2862 141.221V141.656C31.417 143.395 30.9823 145.568 30.5477 147.307L30.1131 148.177C29.6785 149.916 29.2438 151.654 28.8092 153.393V154.263C28.3746 156.001 28.3746 157.74 28.3746 159.479V159.914C28.3746 161.653 28.3746 163.391 28.3746 165.13C28.3746 165.565 28.3746 165.565 28.3746 166Z" fill="url(#paint1_linear_741_46)"/>
<path d="M127.905 59.0627H127.47C116.604 62.9751 106.173 67.7568 96.1766 73.4079C73.5759 86.0144 54.4523 103.403 40.5441 124.703C39.6749 126.007 39.6749 128.181 40.5441 129.485C45.7597 137.744 52.2791 145.569 59.2332 152.959C57.9293 144.265 57.4947 136.005 57.4947 127.311V119.921C57.4947 119.052 57.9293 118.182 58.3639 117.313C59.6678 116.009 60.9717 116.009 62.7102 116.444C64.0141 116.878 65.318 118.617 65.318 119.921V126.877C65.318 137.309 66.1872 147.742 67.9258 158.175C68.3604 159.914 69.2296 161.653 70.5335 162.522C78.7915 169.043 87.4841 175.129 96.6113 180.345C117.908 192.951 141.813 200.776 166.587 202.95C170.064 202.95 173.106 201.211 174.41 198.168C177.452 191.647 180.06 185.127 182.233 178.172C182.668 177.302 182.233 176.433 181.364 175.998C180.495 175.563 179.625 175.563 179.191 175.998C173.975 179.91 168.325 183.388 162.675 186.866C160.936 187.735 159.198 188.604 157.459 189.909C156.59 190.343 155.721 190.343 154.417 190.343C153.113 189.909 151.809 188.604 151.809 186.866C151.809 185.127 152.244 183.823 153.982 182.953C155.721 182.084 157.459 181.214 159.198 179.91C168.325 174.694 177.018 168.608 185.276 161.653C186.579 160.783 187.449 159.479 187.449 157.74C189.187 147.308 190.057 136.44 190.057 126.007V117.748C190.057 116.444 190.926 115.14 192.23 114.27C193.534 113.401 195.272 113.835 196.141 114.705C197.011 115.574 197.445 116.444 197.445 117.313C197.445 120.356 197.445 122.964 197.445 126.007C197.88 152.524 192.23 178.606 180.929 202.515H181.799C183.537 202.515 185.276 202.08 187.014 201.646H187.883C189.622 201.211 191.36 200.776 193.534 200.341L194.837 199.907C196.576 199.472 198.314 199.037 199.618 198.168L200.488 197.733C202.226 196.864 203.53 196.429 205.269 195.56L205.703 195.125C207.007 194.256 208.746 193.386 210.049 192.517L210.484 192.082C211.788 191.213 213.092 189.909 214.396 189.039L215.265 188.17C216.569 186.866 217.438 185.996 218.742 184.692L219.177 184.257C221.35 181.649 223.088 178.606 224.392 175.563L224.827 174.694C225.261 173.39 225.696 171.651 226.131 169.912V169.043C226.565 167.304 226.565 166 227 164.261V163.392C227 161.653 227 159.914 227 158.175V157.74C227 156.002 227 153.828 226.565 152.089V151.22C226.131 149.481 225.696 147.742 225.261 146.003L224.827 145.134C224.392 143.395 223.523 141.222 223.088 139.483V139.048C222.219 137.309 221.784 135.571 220.915 133.397L220.481 132.962C217.873 136.875 215.265 140.787 212.223 144.699C211.353 145.569 210.049 146.003 208.746 145.569C207.442 145.134 206.572 144.265 206.572 142.961V140.352C206.572 139.483 206.572 139.048 207.442 138.179C213.526 130.354 213.526 119.052 207.007 111.227C193.534 97.3166 177.018 83.4061 158.763 72.9732C153.982 70.365 148.767 67.7568 143.986 65.1486C147.463 63.8445 150.94 62.9751 154.852 61.6709C157.459 62.9751 160.067 64.2792 162.675 66.018C170.064 70.365 177.018 75.1468 183.972 80.3632C181.364 71.2344 178.322 62.5404 173.975 54.281C172.671 51.6728 170.064 50.3687 167.456 50.3687C153.982 51.2381 140.943 53.8463 128.339 58.628L127.905 59.0627ZM96.6113 93.839L109.216 98.1861C109.65 98.1861 110.085 99.0555 110.085 99.4902C110.085 99.9249 110.085 100.794 109.65 101.229L101.392 109.488C100.958 109.923 100.523 109.923 99.6537 109.923C99.219 109.923 98.7844 109.488 98.3498 109.054L94.0035 96.4472C93.5689 96.0125 94.0035 95.1431 94.4381 94.7084C95.3074 93.839 95.742 93.4043 96.6113 93.839ZM81.8339 128.615C81.3993 128.181 80.9646 127.746 80.9646 127.311C80.9646 126.877 81.3993 126.007 81.8339 126.007L94.0035 119.921C94.4381 119.487 95.3074 119.487 95.742 119.921C96.1766 120.356 96.6113 120.791 96.6113 121.225V132.962C96.6113 133.397 96.1766 134.266 95.742 134.266C95.3074 134.701 94.4381 134.701 94.0035 134.266L81.8339 128.615ZM109.216 156.002L96.6113 160.349C96.1766 160.349 95.3074 160.349 94.8728 159.914C94.4381 159.479 94.4381 159.045 94.4381 158.175L98.7844 145.569C98.7844 145.134 99.219 144.699 100.088 144.699C100.523 144.699 101.392 144.699 101.827 145.134L110.085 153.393C110.519 153.828 110.519 154.263 110.519 155.132C110.085 155.567 109.65 156.002 109.216 156.002ZM135.293 160.783L129.208 172.955C128.774 173.39 128.339 173.824 127.905 173.824C127.47 173.824 126.601 173.39 126.601 172.955L120.516 160.783C120.081 160.349 120.081 159.479 120.516 159.045C120.951 158.61 121.385 158.175 121.82 158.175H133.555C133.989 158.175 134.859 158.61 134.859 159.045C134.859 159.479 135.293 160.349 135.293 160.783ZM158.763 160.783L146.159 156.436C145.724 156.436 145.29 156.002 145.29 155.132C145.29 154.698 145.29 153.828 145.724 153.393L153.982 145.134C154.417 144.699 154.852 144.699 155.721 144.699C156.155 144.699 156.59 145.134 157.025 145.569L161.371 158.175C161.806 158.61 161.371 159.479 160.936 159.914C160.067 160.783 159.198 160.783 158.763 160.783ZM173.106 126.007C173.541 126.442 173.975 126.877 173.975 127.311C173.975 127.746 173.541 128.615 173.106 128.615L160.936 134.701C160.502 135.136 159.632 135.136 159.198 134.701C158.763 134.266 158.763 133.832 158.763 133.397V121.225C158.763 120.791 159.198 119.921 159.632 119.921C160.067 119.487 160.936 119.487 161.371 119.921L173.106 126.007ZM146.159 98.1861L158.763 93.839C159.198 93.839 160.067 93.839 160.502 94.2737C160.936 94.7084 160.936 95.5778 160.936 96.0125L156.59 108.619C156.59 109.054 156.155 109.488 155.286 109.488C154.852 109.488 153.982 109.488 153.548 109.054L145.29 100.794C144.855 100.36 144.855 99.9249 144.855 99.0555C145.29 98.6208 145.29 98.1861 146.159 98.1861ZM150.94 127.311C150.94 140.352 140.509 150.785 127.47 150.785C114.431 150.785 104 140.352 104 127.311C104 114.27 114.431 103.837 127.47 103.837C140.509 103.837 150.94 114.27 150.94 127.311ZM129.208 81.6673L135.293 93.839C135.728 94.2737 135.728 95.1431 135.293 95.5778C134.859 96.0125 134.424 96.4472 133.989 96.4472H122.254C121.82 96.4472 120.95 96.0125 120.95 95.5778C120.95 95.1431 120.516 94.2737 120.95 93.839L127.035 81.6673C127.47 81.2326 127.905 80.7979 128.339 80.7979C128.339 80.7979 128.774 80.7979 129.208 81.6673Z" fill="url(#paint2_linear_741_46)"/>
<path d="M28.8092 99.9247V100.794C29.2438 102.533 29.6784 104.272 30.1131 106.011L30.5477 106.88C30.9823 108.619 31.4169 110.792 32.2862 112.531V112.966C33.1555 114.705 33.5901 116.443 34.4593 118.617L34.894 119.052C42.2827 107.749 51.4099 97.7512 61.841 88.6224C64.4487 75.5813 68.795 62.5402 74.8798 50.8032C62.2756 51.2379 50.5406 56.0197 40.9788 63.8443L40.5442 64.279C39.2403 65.5831 38.371 66.4526 37.0671 67.7567L36.6325 68.1914C34.4593 70.7996 32.7208 73.8425 31.4169 76.8854L30.9823 77.7548C30.5477 79.059 30.1131 80.7978 29.6784 82.5366V83.406C29.2438 85.1448 29.2438 86.4489 28.8092 88.1877V88.6224C28.8092 90.3613 28.8092 92.1001 28.8092 93.8389V94.2736C28.3745 96.0124 28.8092 98.1859 28.8092 99.9247Z" fill="url(#paint3_linear_741_46)"/>
<path d="M92.6996 66.4526C98.3498 63.4097 104 60.3668 109.65 57.7586C110.519 57.3239 110.519 56.4545 110.519 55.5851C110.519 54.7156 109.65 53.8462 109.216 53.8462C106.173 52.9768 102.696 52.5421 99.6537 52.1074C98.3498 51.6727 97.0459 50.8033 96.6113 49.9339C96.1767 49.0645 96.1767 47.3257 97.0459 46.0216C97.9152 44.7175 99.2191 44.2828 100.958 44.2828C109.216 45.5869 117.473 47.3257 125.731 49.9339C127.035 50.3686 128.774 50.3686 130.078 49.9339C142.247 46.0216 154.852 43.4133 167.456 42.9786L167.021 42.5439C165.717 40.8051 164.413 39.0663 163.11 37.7622L162.675 37.3275C161.371 36.0234 160.067 34.2846 158.763 32.9805L157.894 32.1111C157.025 31.2416 155.721 29.9375 154.417 28.6334L153.548 28.1987C152.244 26.8946 150.505 26.0252 149.201 24.7211H148.767C147.463 23.8517 145.724 22.9823 144.42 22.1129L143.986 21.6782C142.682 20.8088 140.943 20.3741 139.205 19.9394L138.336 19.5047C136.597 19.0699 135.293 18.6352 133.555 18.2005H132.685C129.643 17.7658 126.601 17.7658 123.558 18.2005H122.689C121.385 18.2005 120.516 18.6352 119.212 19.0699H118.777C117.473 19.5047 116.17 19.9394 114.866 20.3741L113.996 20.8088C113.127 21.2435 111.823 21.6782 110.954 22.1129L109.65 22.5476C108.346 23.417 107.042 23.8517 105.738 24.7211L105.304 25.1558C104.435 26.0252 103.131 26.4599 102.261 27.3293L101.392 27.764C98.7844 29.9375 96.6113 32.1111 94.4381 34.7193L93.5689 36.0234C91.3957 38.6316 89.2226 41.6745 87.0494 44.7175L86.6148 45.1522C79.6607 56.0198 74.4452 68.1915 70.9682 80.7979C77.9222 75.5814 85.3109 70.7997 92.6996 66.4526Z" fill="url(#paint4_linear_741_46)"/>
<path d="M194.838 89.9265C204.399 98.6206 213.092 108.184 220.046 119.052C221.785 115.139 223.523 110.792 224.392 106.88V106.445C224.827 104.706 225.262 102.533 225.696 100.794V99.9247C226.131 98.1859 226.131 96.0124 226.131 94.2736C226.131 92.5348 226.131 90.796 226.131 89.0571V88.6224C226.131 86.8836 225.696 85.1448 225.262 83.8407V82.9713C224.827 81.2325 224.392 79.9284 223.958 78.1896L223.523 77.3201C222.219 74.2772 220.481 71.2343 218.307 68.6261L217.873 68.1914C217.004 66.8873 215.7 65.5831 214.396 64.7137L213.527 63.8443C212.223 62.5402 210.919 61.6708 209.615 60.8014L209.18 60.3667C207.876 59.4973 206.572 58.6279 204.834 57.7585L205.269 57.3238C203.53 56.4544 202.226 56.0197 200.488 55.1503L199.618 54.7156C197.88 54.2809 196.141 53.8461 194.403 52.9767H193.534C191.795 52.542 190.057 52.1073 187.883 51.6726H187.014C185.276 51.2379 183.537 51.2379 181.799 50.8032H180.929C186.58 62.5402 190.926 74.7119 193.534 87.3183C193.534 88.1877 194.403 89.0571 194.838 89.9265Z" fill="url(#paint5_linear_741_46)"/>
<defs>
<linearGradient id="paint0_linear_741_46" x1="88.1435" y1="219.926" x2="167.02" y2="219.926" gradientUnits="userSpaceOnUse">
<stop stop-color="#EF4136"/>
<stop offset="1" stop-color="#FBB040"/>
</linearGradient>
<linearGradient id="paint1_linear_741_46" x1="28.4267" y1="169.273" x2="110.905" y2="169.273" gradientUnits="userSpaceOnUse">
<stop stop-color="#EF4136"/>
<stop offset="1" stop-color="#FBB040"/>
</linearGradient>
<linearGradient id="paint2_linear_741_46" x1="39.9056" y1="126.953" x2="226.884" y2="126.953" gradientUnits="userSpaceOnUse">
<stop stop-color="#EF4136"/>
<stop offset="1" stop-color="#FBB040"/>
</linearGradient>
<linearGradient id="paint3_linear_741_46" x1="28.3704" y1="84.949" x2="74.357" y2="84.949" gradientUnits="userSpaceOnUse">
<stop stop-color="#EF4136"/>
<stop offset="1" stop-color="#FBB040"/>
</linearGradient>
<linearGradient id="paint4_linear_741_46" x1="71.2429" y1="49.3524" x2="167.1" y2="49.3524" gradientUnits="userSpaceOnUse">
<stop stop-color="#EF4136"/>
<stop offset="1" stop-color="#FBB040"/>
</linearGradient>
<linearGradient id="paint5_linear_741_46" x1="180.863" y1="84.998" x2="226.779" y2="84.998" gradientUnits="userSpaceOnUse">
<stop stop-color="#EF4136"/>
<stop offset="1" stop-color="#FBB040"/>
</linearGradient>
</defs>
</svg>
