<svg width="256" height="256" viewBox="0 0 256 256" fill="none" xmlns="http://www.w3.org/2000/svg">
<circle cx="128" cy="128" r="128" fill="url(#paint0_radial_1093_641)"/>
<mask id="mask0_1093_641" style="mask-type:luminance" maskUnits="userSpaceOnUse" x="66" y="39" width="126" height="181">
<path d="M191.48 39.374H66.6017V219.022H191.48V39.374Z" fill="white"/>
</mask>
<g mask="url(#mask0_1093_641)">
<path d="M80.4309 167.914C81.0784 158.165 80.8934 148.138 82.0497 138.158C82.6973 132.727 83.8535 127.342 84.316 121.911C84.9173 114.483 84.1773 107.056 83.9923 99.582C83.946 97.4006 83.7148 95.2187 84.2698 93.0368C84.5473 91.9229 84.9635 90.7624 86.1198 90.5301C88.1086 90.0658 87.5536 88.9519 87.1374 87.745C86.6748 86.3987 86.2586 85.0525 85.7498 83.7527C82.9747 76.9288 85.3335 70.8013 88.7099 65.0452C91.5774 60.1246 95.3238 55.7146 99.2552 51.5831C103.649 46.9411 109.107 44.6201 115.536 44.5272C116.738 44.5272 117.941 44.4808 119.189 44.3879C119.79 44.3415 120.392 44.3415 121.039 44.2951C121.594 44.2487 122.196 44.2951 122.751 44.2023C122.936 44.1558 123.121 44.1094 123.306 44.063C123.629 44.063 123.953 44.1558 124.231 44.1558C124.924 44.2487 125.572 44.3415 126.266 44.4808C127.607 44.7129 128.948 44.945 130.29 45.2235C132.972 45.7341 135.608 46.384 138.245 47.0803C139.679 47.4517 141.112 47.8695 142.454 48.5658C144.905 49.912 146.663 52.1866 149.021 53.6721C150.64 54.6934 152.444 55.2968 153.924 56.5037C155.589 57.8499 156.653 59.7532 157.67 61.6564C158.78 63.6989 159.89 65.7415 160.63 67.9697C160.815 68.5267 161 69.1302 161.139 69.6872C161.694 72.0547 161.972 74.4685 162.249 76.8825C162.527 79.2499 162.85 81.6638 163.637 83.9384C163.822 84.4954 164.053 85.0525 164.284 85.6095C164.377 85.8416 164.515 86.0738 164.562 86.3058C164.562 86.6306 164.515 86.9559 164.515 87.2807C164.469 94.2902 163.868 101.253 163.729 108.263C163.498 119.59 162.712 130.916 161.463 142.196C161.232 144.193 161.509 146.142 161.972 148.045C163.313 153.709 163.729 159.372 162.897 165.221C162.203 170.142 162.203 175.201 161.879 180.215C161.741 182.443 160.538 183.372 158.364 183.418C155.82 183.465 153.508 182.397 150.964 182.35C147.403 182.258 143.98 183.093 140.511 183.465C134.684 184.021 129.041 182.954 123.306 182.258C122.288 182.165 121.317 181.7 120.299 181.747C119.236 181.747 118.218 181.793 117.154 181.747C116.646 181.7 116.137 181.7 115.628 181.561C115.304 181.468 115.073 181.329 114.749 181.283C113.362 181.143 111.974 181.143 110.587 181.05C109.199 181.004 107.812 180.911 106.424 180.865C103.649 180.725 100.828 180.633 98.0526 180.54C95.2775 180.447 92.4562 180.354 89.6812 180.261C88.9874 180.261 88.2936 180.215 87.5999 180.215C86.9523 180.215 86.2123 180.076 85.5648 180.169C85.3798 180.215 85.1948 180.308 85.0561 180.354C84.4085 180.54 83.6222 180.447 82.9747 180.308C80.9397 179.751 80.4309 177.569 80.3847 175.712C80.3384 174.459 80.4772 173.205 80.5234 171.952C80.4772 170.699 80.4309 169.445 80.4309 167.914Z" fill="#6B00FA" stroke="black" stroke-width="0.5" stroke-miterlimit="10"/>
<path d="M165.764 206.86C165.394 209.273 165.717 212.012 165.024 214.612C164.746 215.633 164.515 216.608 163.405 217.026C162.341 217.397 161.601 216.933 161.093 216.004C160.722 215.355 160.075 215.401 159.428 215.355C154.201 215.029 148.975 214.705 143.794 214.426C125.942 213.498 108.135 212.569 90.2819 211.641C85.2868 211.409 80.2917 211.269 75.2965 210.991C73.9553 210.898 71.2727 210.991 70.9489 209.18C70.8564 208.624 70.5327 208.159 70.3939 207.602C70.0702 206.442 70.0239 205.188 70.0239 203.982C69.9314 201.196 69.8852 198.364 69.7927 195.579C69.7927 195.115 69.7927 194.651 69.7464 194.187C69.7464 193.862 69.6539 193.676 69.5152 193.444C69.1914 192.748 69.4689 191.959 69.9314 191.401C70.5327 190.659 71.3652 190.333 72.244 190.705C75.1116 191.773 78.1178 191.541 81.0317 191.726C94.722 192.515 108.459 193.119 122.195 193.769C134.683 194.372 147.124 195.022 159.612 195.672C163.914 195.904 165.579 197.668 165.579 202.032C165.579 203.564 165.671 205.095 165.764 206.86Z" fill="#6B00FA" stroke="black" stroke-width="0.5" stroke-miterlimit="10"/>
<path d="M92.8255 60.5433C93.1955 60.0327 93.5655 59.522 93.9818 59.0114C94.7681 58.083 95.6006 57.201 96.4331 56.3654C96.6643 56.1333 96.8494 55.9476 97.0806 55.7155C97.1731 55.6227 97.2656 55.6227 97.3581 55.5299C97.6819 55.2977 97.9594 54.9264 98.2369 54.6479C100.318 52.4661 102.492 50.3307 105.128 48.8453C109.337 46.4778 113.638 44.8995 118.634 45.0852C119.651 45.1316 120.669 45.1316 121.64 45.0852C122.149 45.0852 122.657 45.0388 123.166 44.9924C123.629 44.9459 124.184 45.0388 124.6 44.8995C127.144 44.0639 129.734 43.4605 132.37 43.0427C133.712 42.857 135.007 42.7177 136.348 42.6249C136.995 42.5785 137.689 42.532 138.337 42.532C138.568 42.532 138.799 42.532 139.077 42.5785C139.493 42.5785 139.909 42.3928 140.325 42.2999C141.898 41.9286 143.424 42.1607 144.858 42.7641C149.391 44.6674 154.293 45.3637 158.872 47.2205C160.861 48.0097 162.85 48.7989 164.792 49.7272C164.838 49.7272 164.885 49.7737 164.931 49.7737C166.781 50.7021 168.4 52.0483 169.371 53.9051C169.464 54.1372 169.603 54.3693 169.695 54.6014C169.787 54.8335 169.834 55.0657 169.926 55.2977C170.204 55.8084 170.573 56.319 170.943 56.7368C171.684 57.6188 172.563 58.4079 173.441 59.1971C174.181 59.847 174.968 60.5433 175.615 61.3324C175.939 61.7038 176.263 62.1216 176.54 62.5394C176.679 62.725 176.817 62.9572 176.91 63.1892C177.28 64.2105 177.881 65.1389 178.205 66.1602C178.899 68.4348 179.5 70.7094 180.055 72.984C180.703 75.5836 181.212 78.1831 181.581 80.7827C181.951 83.3823 182.229 86.0747 182.275 88.7209C182.321 90.0667 182.321 91.413 182.275 92.7129C182.229 93.3625 182.229 94.0592 182.182 94.7553C182.137 95.4055 182.182 96.1016 182.229 96.7513C182.321 99.5369 182.414 102.368 182.46 105.154C182.507 107.939 182.507 110.771 182.507 113.556C182.507 116.341 182.414 119.173 182.368 121.958C182.321 123.351 182.275 124.743 182.229 126.182C182.229 126.461 182.182 126.693 182.137 126.971C182.137 127.157 182.182 127.343 182.182 127.529C182.229 127.946 182.275 128.318 182.321 128.735C182.414 129.525 182.46 130.36 182.507 131.149C182.691 134.491 182.414 137.88 181.766 141.176C180.61 146.932 180.98 152.828 180.795 158.677C180.656 163.365 180.194 168.054 180.24 172.742C180.24 174.321 179.593 175.481 178.112 175.945C174.782 177.013 171.822 178.73 168.77 180.402C167.799 180.912 166.827 181.237 165.717 181.237C163.497 181.237 162.85 180.68 162.757 178.406C162.526 172.835 163.59 167.357 163.913 161.833C164.099 158.445 164.237 155.102 163.266 151.76C162.85 150.367 162.757 148.882 162.85 147.396C163.266 142.058 163.96 136.673 164.006 131.335C164.099 122.562 165.486 113.881 165.625 105.107C165.671 100.187 165.625 95.266 165.717 90.3456C165.717 88.2566 165.44 86.2139 165.07 84.1714C164.885 82.9645 164.7 81.804 164.654 80.597C164.654 80.1328 164.7 79.6686 164.654 79.2044C164.607 78.7402 164.469 78.3224 164.145 77.9975C163.775 77.6261 163.359 77.394 162.942 77.1155C162.433 76.7905 161.971 76.3728 161.601 75.955C161.369 75.6764 161.185 75.3979 160.815 75.2122C160.352 75.0265 159.89 74.9337 159.52 74.6088C159.196 74.3302 159.011 74.0053 158.826 73.6339C158.502 72.8912 158.456 72.102 158.317 71.3593C158.178 70.7558 158.086 70.1524 157.808 69.5953C157.299 68.574 156.421 67.8778 155.264 67.8313C154.155 67.8313 153.599 68.7133 153.137 69.6417C151.564 72.8912 151.472 72.9376 147.679 72.5198C147.309 72.4734 146.847 72.3806 146.523 72.5198C144.627 73.3554 143.193 73.309 141.759 71.3129C141.019 70.2916 139.262 71.0808 138.429 72.1485C137.226 73.7268 135.932 75.2586 135.515 77.3011C135.33 78.1831 135.007 79.2044 133.804 79.2044C132.786 79.158 132.509 78.2296 132.185 77.4868C131.538 76.0014 131.168 74.4231 131.168 72.7983C131.26 69.9667 130.104 67.5528 128.624 65.2782C127.838 64.0712 126.82 63.4214 125.34 64.0248C124.924 64.2105 124.369 64.3498 123.999 64.2105C120.206 62.8643 116.83 64.8604 113.315 65.5567C112.251 65.7888 111.326 65.5567 110.817 64.489C110.401 63.6535 109.985 62.8643 109.615 61.9823C108.736 59.847 107.163 59.3827 105.36 60.8682C104.435 61.6574 103.602 62.5394 102.399 63.0036C99.7169 64.0248 98.7456 63.4678 98.5144 60.6361C98.4682 60.2647 98.5607 59.847 98.0981 59.4292C97.0344 60.4504 95.6931 61.4253 95.1843 62.8179C93.5655 67.1815 90.4204 70.6166 88.2929 74.7016C87.4604 76.2799 86.9516 78.0439 86.8129 79.8543C86.7666 80.2721 86.7204 80.6899 86.7204 81.1076C86.7204 81.2005 86.7204 81.2933 86.6278 81.3398C86.5354 81.3862 86.4429 81.3398 86.3966 81.2469C86.2116 81.0612 85.9803 80.8291 85.9803 80.597C85.9803 80.3649 86.0266 80.0864 86.0266 79.8079C86.0266 79.158 86.1191 78.4617 86.2116 77.8118C86.3966 76.512 86.7204 75.2122 87.1366 73.9588C87.1829 73.866 87.2291 73.7268 87.2291 73.6339C87.4142 73.0769 87.7379 72.4734 87.8766 71.9163C87.9229 71.7307 87.9229 71.545 87.9691 71.3593C88.0154 71.0808 88.2004 70.8023 88.3391 70.5701C88.9404 69.3632 89.4955 68.1563 90.0042 66.8565C90.4204 65.7888 90.698 64.7212 91.1605 63.6535C91.5768 62.5394 92.1317 61.5181 92.8255 60.5433ZM156.93 58.8257C156.837 58.7329 156.745 58.5472 156.606 58.5472C156.421 58.5007 156.374 58.64 156.513 58.8257C156.606 58.9185 156.745 59.0578 156.837 59.1042C157.022 59.1507 157.068 59.0114 156.93 58.8257Z" fill="#4300BF"/>
<path d="M103.649 193.445C102.77 193.399 101.845 193.678 100.92 194.234C100.411 194.559 99.8098 194.745 99.2548 195.024C97.7747 195.906 96.5259 195.767 95.5084 194.281C94.8609 193.352 93.9822 192.563 92.9646 191.96C89.6808 190.01 86.4432 190.428 84.1307 193.492C82.5119 195.627 80.8931 196.463 78.2568 195.488C76.638 194.885 75.3429 195.813 74.4179 197.252C73.8629 198.087 73.4467 198.97 73.1229 199.898C72.9841 200.362 72.7991 200.826 72.7067 201.29C72.6604 201.523 72.6604 201.662 72.4754 201.801C72.3366 201.94 72.1516 201.987 71.9666 202.033C71.4579 202.172 70.9491 202.265 70.4403 202.265C70.2091 202.265 69.9778 202.265 69.7928 202.126C69.4228 201.894 69.4228 201.383 69.4228 200.965C69.4228 200.269 69.4228 199.527 69.4228 198.83C69.4228 198.552 69.4691 198.319 69.5153 198.087C69.6078 197.53 69.4228 196.834 69.3303 196.277C69.2378 195.534 69.099 194.792 69.0528 194.003C69.0065 193.352 68.9603 192.703 69.0528 192.053C69.099 191.542 69.1915 191.032 69.1915 190.521C69.2378 189.5 70.5328 188.757 71.2728 188.246C72.1054 187.689 72.9379 187.132 73.8167 186.668C74.4179 186.343 75.0192 186.111 75.528 185.647C76.0367 185.183 76.3605 184.579 76.9155 184.161C77.1467 184.022 77.3318 183.836 77.5167 183.651C77.8868 183.326 78.3493 183.094 78.7655 182.861C79.5981 182.351 80.4768 181.887 81.3093 181.376C82.7432 180.54 84.1769 180.401 85.8882 180.865C87.7845 181.376 89.8196 181.376 91.8084 181.33C95.1847 181.237 98.561 181.376 101.937 181.701C102.77 181.794 103.602 181.887 104.389 181.98C104.759 182.026 105.082 182.072 105.406 182.072C105.73 182.026 106.1 182.072 106.424 182.026C107.811 181.98 109.199 181.98 110.586 181.98C113.361 181.98 116.136 182.072 118.911 182.258C119.975 182.305 121.039 182.397 122.103 182.49C122.889 182.583 123.675 182.629 124.462 182.861C125.063 183.001 125.664 183.233 126.266 183.372C126.543 183.418 126.867 183.465 127.19 183.465C127.468 183.465 127.745 183.372 128.023 183.326C128.671 183.233 129.41 183.326 130.104 183.326C130.798 183.326 131.492 183.326 132.185 183.326C134.729 183.372 137.273 183.511 139.817 183.79C145.691 184.44 151.611 183.883 157.485 184.625C158.78 184.765 159.983 185.507 160.954 186.389C161.416 186.807 161.786 187.272 162.202 187.736C162.295 187.829 162.341 187.875 162.388 188.014C162.665 188.571 162.896 189.221 163.128 189.825C163.59 191.032 163.914 192.285 164.192 193.585C164.33 194.234 164.376 194.885 164.515 195.534C164.608 195.952 164.793 196.277 164.931 196.648C165.116 197.159 165.024 197.67 165.024 198.18C165.024 198.877 165.024 199.527 165.024 200.223C165.07 202.915 165.209 205.654 164.7 208.346C164.654 208.532 164.608 208.764 164.562 208.95C164.423 209.507 164.515 210.343 163.729 210.389C163.081 210.435 162.665 209.832 162.295 209.368C161.324 208.207 161.093 206.722 160.769 205.329C159.844 201.383 157.207 199.155 153.137 199.016C152.305 199.016 151.657 198.784 151.01 198.319C150.316 197.856 149.437 197.391 148.651 197.67C146.385 198.366 144.488 197.438 142.5 196.602C139.956 195.534 137.505 195.952 135.238 197.252C133.018 198.552 131.075 198.319 129.04 196.881C126.358 195.024 124.138 195.209 121.779 197.345C120.762 198.273 119.836 199.294 118.958 200.362C117.755 201.894 116.692 201.848 115.397 200.408C114.518 199.387 114.055 198.18 113.5 197.02C112.298 194.606 111.373 194.234 108.783 194.931C107.765 195.209 106.886 195.302 106.007 194.513C105.221 193.817 104.435 193.492 103.649 193.445ZM154.201 193.538C142.083 190.428 129.642 192.331 117.432 190.892C117.432 191.217 117.385 191.542 117.385 191.867C129.688 192.099 141.945 192.981 154.201 193.538ZM159.705 193.26C158.502 193.26 157.809 193.26 157.115 193.26C157.901 193.678 158.595 193.724 159.705 193.26ZM104.481 191.867C104.065 191.914 103.556 191.403 103.232 192.053C103.695 192.192 104.111 192.378 104.481 191.867Z" fill="#4300BF"/>
<path d="M166.92 203.797C166.92 201.661 166.92 199.479 166.92 197.344C166.92 195.859 167.567 194.791 168.816 193.909C171.776 191.727 175.199 190.613 178.575 189.36C180.333 188.71 182.044 188.106 183.478 186.899C184.449 186.11 185.559 185.832 186.669 186.435C187.779 186.992 188.011 188.106 187.918 189.221C187.64 192.656 188.195 196.137 187.686 199.572C187.455 201.011 187.039 202.265 185.883 203.147C181.165 206.768 175.939 209.506 170.898 212.57C168.863 213.824 167.059 212.663 166.92 210.203C166.781 208.114 166.92 205.979 166.92 203.797Z" fill="#4300BF" stroke="black" stroke-width="0.5" stroke-miterlimit="10"/>
<path d="M89.8661 162.343C90.0511 162.203 90.2362 162.11 90.4211 162.017C90.9299 161.739 91.4387 161.6 91.9474 161.321C91.4849 161.925 90.7911 162.25 90.2824 162.807C89.7274 163.503 89.5424 164.432 88.9411 165.081C88.4323 165.732 87.6461 166.056 86.9061 166.381C86.3048 166.614 85.7035 166.892 85.1023 167.17C84.4547 167.449 83.8072 167.728 83.1135 167.728C83.1135 167.217 83.1135 166.753 83.0672 166.242C83.0672 166.195 83.0672 166.149 83.0672 166.103C83.1135 165.778 83.1597 165.453 83.2059 165.174C83.2522 164.524 83.2985 163.828 83.2522 163.178C83.2059 161.925 83.0672 160.672 82.9747 159.418C82.6047 155.24 82.5584 150.97 83.391 146.792C84.1772 142.846 83.8997 138.807 84.131 134.815C84.4547 129.384 85.981 124.092 85.9348 118.614C85.8885 116.386 86.2585 114.158 86.0273 111.93C85.3798 105.802 85.8423 99.6284 85.6573 93.5005C85.6573 93.2222 85.7035 92.9903 85.7035 92.7114C85.7035 92.5725 85.7035 92.4795 85.796 92.4331C85.9348 92.3401 86.0736 92.2937 86.2123 92.2472C86.4898 92.1082 86.8136 91.9688 87.091 91.8759C87.6923 91.6904 88.2936 91.5975 88.8949 91.8294H88.9411C89.4036 92.0153 89.8199 92.3401 90.1436 92.7114C90.5136 93.1292 90.8374 93.5935 90.8836 94.1042C90.9762 94.7539 90.6524 95.404 90.2824 95.9612C89.9124 96.518 89.4961 97.0752 89.3111 97.6784C89.2649 97.7713 89.2649 97.8643 89.2649 97.9572C89.3111 98.0962 89.4499 98.2356 89.5424 98.3285C89.8199 98.5604 90.0511 98.7928 90.3286 99.0247C90.5136 99.2106 90.8374 99.3495 90.9299 99.5819C91.0224 99.7673 91.0687 99.9997 91.1149 100.232C91.2074 100.557 91.2999 100.835 91.3462 101.16C91.3924 101.531 91.4387 101.903 91.4387 102.274C91.4387 102.413 91.3924 102.553 91.4387 102.692C91.4849 102.785 91.4849 102.924 91.4849 103.064C91.5312 103.296 91.5774 103.574 91.6699 103.806C91.8549 104.317 92.0862 104.781 92.3175 105.199C92.6875 105.988 93.1037 106.824 92.9649 107.752C92.7799 109.052 91.4849 110.12 91.5774 111.419C91.4849 111.094 91.1611 110.862 91.1149 110.491C91.0687 110.305 91.1611 110.166 91.2074 109.98C91.4387 109.376 91.7624 108.82 92.1324 108.262C92.1787 108.17 92.2712 108.077 92.2712 107.984C92.2712 107.891 92.2249 107.798 92.2249 107.659C91.8549 106.684 91.4849 105.756 91.1611 104.781C90.9762 104.271 90.7449 103.806 90.2362 103.574C89.9124 103.435 89.4961 103.481 89.3574 103.853C89.3111 104.038 89.3574 104.271 89.3574 104.502C89.4036 104.735 89.4036 104.967 89.4498 105.153C89.4961 105.292 89.5424 105.477 89.5886 105.616C89.6811 105.942 89.6811 106.266 89.6349 106.591C89.5886 107.149 89.2649 107.705 88.8023 107.938C89.0336 106.824 88.9874 105.616 88.5711 104.549C88.5249 104.456 88.4786 104.317 88.4786 104.224C88.4786 104.131 88.5249 104.038 88.5249 103.992C88.6636 103.574 88.8486 103.203 89.0798 102.831C89.4961 102.135 90.0974 101.438 89.7274 100.603C89.4961 100.046 89.0336 99.6749 88.6174 99.2571C88.2011 98.7928 87.7848 98.2821 87.4611 97.7713C87.4148 97.7249 87.3685 97.6324 87.3685 97.5859C87.3685 97.493 87.4148 97.4 87.4611 97.3536C87.7386 96.8893 88.0623 96.4715 88.3861 96.0073C88.5249 95.7754 88.7098 95.5895 88.8949 95.3576C89.0336 95.1717 89.4498 94.8004 89.1261 94.5685C88.6636 94.1972 88.0623 94.0113 87.4611 93.8723C86.9523 93.7794 86.5823 94.1972 86.5361 94.6614C86.4436 95.404 86.4436 96.1931 86.4898 96.9358C86.7673 104.92 87.1836 112.905 86.3973 120.889C86.2123 122.839 86.0273 124.835 85.8423 126.784C85.6573 128.873 85.4723 130.962 85.2872 133.098C85.241 133.933 85.1485 134.769 85.056 135.651C85.0097 136.161 85.0097 136.672 84.9172 137.229C84.9172 137.368 84.8248 137.508 84.8248 137.693C84.7785 137.879 84.8248 138.111 84.8248 138.297C84.9172 139.318 84.9635 140.386 84.9635 141.407C84.9635 142.428 84.9172 143.496 84.871 144.517C84.8248 145.028 84.7785 145.538 84.7323 146.049C84.686 146.281 84.686 146.559 84.6397 146.792C84.5935 147.117 84.5935 147.488 84.5472 147.813C84.501 148.416 84.4085 148.974 84.316 149.577C84.2235 149.995 84.1772 150.412 84.0847 150.784C83.8997 151.759 83.6685 152.78 83.6222 153.755C83.6222 153.987 83.6222 154.265 83.6222 154.497C83.6222 154.59 83.6685 154.683 83.6685 154.776C83.761 155.24 83.7147 155.797 83.7147 156.261C83.7147 156.819 83.761 157.376 83.761 157.979C83.8072 159.372 83.8997 160.764 83.9922 162.157C83.9922 162.528 84.0385 162.853 84.0385 163.225C84.0385 163.41 84.0385 163.596 84.0847 163.735C84.0847 163.828 84.131 163.921 84.131 164.06C84.0847 164.757 84.0385 165.453 83.9922 166.149C85.056 165.732 86.166 165.36 87.2298 164.942C87.5073 164.85 87.7848 164.757 87.9698 164.571C88.2011 164.385 88.2936 164.106 88.4786 163.828C88.8023 163.271 89.3111 162.714 89.8661 162.343Z" fill="#3E4E3E"/>
<path d="M141.899 181.655C141.806 181.423 141.945 181.098 142.176 180.866C142.546 180.541 143.009 180.448 143.425 180.263H143.471C144.443 179.798 145.506 179.566 146.385 178.963C148.651 177.477 151.01 176.781 153.739 177.013C156.052 177.199 157.393 175.852 158.133 173.439C158.873 171.071 158.596 168.565 159.15 166.15C159.474 164.712 159.659 163.272 160.584 162.066C161.278 161.091 161.093 160.023 161.139 158.956C161.139 157.888 161.139 156.82 161.185 155.752C161.185 155.52 161.139 155.196 161.185 154.963V154.87C161.232 154.824 161.278 154.824 161.371 154.824C161.741 154.87 162.018 155.242 162.111 155.567C162.249 155.985 162.249 156.402 162.249 156.82C162.203 160.255 162.111 163.69 161.741 167.125C161.602 168.193 161.463 169.307 161.371 170.375C161.278 171.582 161.232 172.789 161.232 173.996C161.185 175.388 161.185 176.827 161.139 178.22C161.093 179.427 161.093 180.634 161.278 181.841C161.278 181.934 159.613 182.259 159.474 182.259C158.873 182.352 158.225 182.444 157.624 182.491C156.376 182.584 155.08 182.537 153.832 182.491C151.241 182.352 148.698 181.98 146.108 181.841C145.46 181.794 144.813 181.794 144.165 181.794C143.841 181.794 143.518 181.794 143.194 181.841C142.916 181.841 142.546 181.934 142.269 181.887C142.084 181.841 141.991 181.748 141.899 181.655Z" fill="#100342"/>
<path d="M153.647 213.963C150.687 213.87 147.727 213.73 144.767 213.87C143.61 213.916 143.333 213.405 144.073 212.523C145.09 211.316 146.2 210.109 147.403 209.088C148.097 208.531 149.022 208.81 149.808 209.227C151.057 209.924 152.306 210.295 153.739 209.831C154.155 209.692 154.664 209.738 155.127 209.831C156.607 210.249 157.671 211.456 157.532 212.802C157.485 213.638 155.959 213.963 154.849 213.916C154.433 213.963 154.017 213.963 153.647 213.963Z" fill="#4300BF"/>
<path d="M100.735 74.7005C102.03 77.068 100.873 79.1105 99.162 81.0137C98.6532 81.5708 98.2369 82.4528 97.3582 82.1278C96.5256 81.7564 96.6644 80.828 96.7569 80.0853C97.1269 77.5785 96.0631 74.979 97.5432 72.5651C97.9132 71.9617 97.6357 70.8475 98.6532 70.8012C99.6707 70.7547 100.364 71.4046 100.642 72.3795C100.827 73.0293 101.105 73.6792 100.735 74.7005Z" fill="#100342"/>
<path d="M154.062 78.8787C154.016 80.6891 153.6 82.4066 151.981 83.66C151.01 84.4027 150.224 84.4027 150.131 82.9637C150.039 81.8496 149.761 80.8283 149.206 79.9463C148.559 78.9251 148.512 78.1824 149.345 77.3004C150.455 76.0934 151.796 76.0934 153.137 76.4648C154.34 76.7897 153.97 77.9038 154.062 78.8787Z" fill="#100342"/>
<path d="M151.842 105.709C151.889 103.852 153.415 102.042 154.479 102.274C156.144 102.692 156.236 103.992 155.912 105.384C155.589 106.73 155.403 108.077 155.311 109.423C155.265 110.258 154.895 111.233 153.877 111.187C152.952 111.14 152.721 110.212 152.814 109.469C152.906 107.938 151.842 106.73 151.842 105.709Z" fill="#100342"/>
<path d="M83.853 169.77C83.7606 170.049 83.668 170.374 83.5755 170.699C83.5293 170.977 83.483 171.302 83.5755 171.581C83.6218 171.674 83.668 171.72 83.7143 171.813C83.853 172.091 83.8993 172.416 84.0381 172.695C84.5468 173.763 85.4719 174.552 86.3968 175.294C86.9056 175.666 87.3681 176.037 87.8769 176.409C88.1544 176.594 88.3857 176.826 88.6169 177.012C88.7094 177.105 88.8481 177.198 88.9407 177.29C88.9869 177.337 89.1719 177.569 89.2182 177.569C87.6919 178.033 86.3506 177.847 85.0556 178.172C84.1306 178.405 83.2518 177.708 83.0668 176.641C82.8818 175.666 82.743 174.691 82.6968 173.67C82.6968 172.973 82.6042 172.323 82.6042 171.627C82.6042 170.931 82.6505 170.234 82.743 169.585C82.7893 169.074 82.928 168.563 83.298 168.192C83.483 168.053 83.668 167.96 83.8993 167.821C84.4543 167.589 84.9631 167.31 85.5181 167.078C85.7956 166.939 86.0268 166.939 86.3044 166.846C86.5819 166.753 86.8131 166.614 87.0906 166.521C87.5069 166.335 87.9232 166.196 88.3394 166.289C87.8769 166.567 87.4144 166.846 86.9056 167.078C86.6744 167.217 86.4431 167.31 86.1656 167.449C85.5643 167.728 84.8706 167.914 84.4543 168.471C84.2693 168.703 84.1768 168.935 84.0381 169.213C83.9918 169.399 83.9455 169.585 83.853 169.77Z" fill="#100342"/>
<path d="M144.951 159.929C144.951 159.696 144.951 159.465 144.951 159.232C144.997 158.304 144.581 156.911 145.922 156.818C147.263 156.725 147.402 158.118 147.587 159.14C147.679 159.882 147.633 160.671 147.494 161.414C147.356 162.296 146.893 163.039 145.876 162.992C144.719 162.946 144.951 162.018 144.904 161.275C144.904 160.857 144.951 160.393 144.951 159.929Z" fill="#100342"/>
<path d="M73.4465 207.556C73.8628 206.535 74.6953 205.792 75.6666 205.374C76.4991 205.003 76.9153 205.699 77.1929 206.349C77.4704 206.999 78.0254 207.231 78.5804 207.463C79.1817 207.742 79.7366 208.067 79.4129 208.809C79.1354 209.459 78.4417 209.367 78.0254 209.134C76.9153 208.624 75.8978 208.113 74.5565 208.763C73.8628 209.088 73.6778 208.16 73.4465 207.556Z" fill="#100342"/>
<path d="M142.963 167.496C142.824 168.981 141.622 169.306 140.511 169.399C139.587 169.492 138.846 168.981 138.939 167.914C139.031 166.753 139.355 165.546 140.835 165.5C142.176 165.454 142.732 166.335 142.963 167.496Z" fill="#100342"/>
<path d="M89.6808 172.926C89.9121 172.137 89.9121 170.604 91.5772 170.744C92.5021 170.79 93.2422 171.486 93.1959 172.6C93.1034 174.133 91.9934 174.643 90.7446 174.782C89.8659 174.875 89.4496 174.225 89.6808 172.926Z" fill="#100342"/>
<path d="M89.2646 146.328C89.2646 145.261 89.2646 144.007 90.0972 144.007C91.5309 144.053 91.5309 145.539 91.6234 146.607C91.6697 147.303 91.5772 148.324 90.5597 148.278C89.1721 148.231 89.4034 146.978 89.2646 146.328Z" fill="#100342"/>
<path d="M95.1381 155.195C95.4156 154.499 94.7681 153.199 96.0168 153.245C97.1269 153.292 97.4506 154.452 97.4506 155.52C97.4506 156.355 97.3581 157.47 96.3406 157.516C94.7681 157.47 95.3693 156.03 95.1381 155.195Z" fill="#100342"/>
<path d="M98.8846 90.5295C98.0059 90.483 97.9134 89.8798 98.0059 89.3691C98.2834 88.2552 98.8384 87.3266 99.9947 87.1408C100.457 87.0478 100.688 87.7444 100.55 88.2087C100.365 89.2297 100.041 90.2511 98.8846 90.5295Z" fill="#100342"/>
<path d="M152.907 169.585C152.722 170.189 152.537 170.839 151.75 170.792C151.057 170.746 150.918 170.236 150.918 169.632C150.918 168.982 151.195 168.611 151.843 168.611C152.444 168.657 152.86 168.936 152.907 169.585Z" fill="#100342"/>
<path d="M121.687 206.767C121.086 206.395 120.947 205.792 121.132 205.188C121.225 204.771 121.456 204.213 122.011 204.446C122.566 204.678 122.566 205.281 122.427 205.838C122.288 206.256 122.288 206.813 121.687 206.767Z" fill="#100342"/>
<path d="M160.769 150.181C160.769 150.413 160.769 150.552 160.769 150.645C160.769 150.784 160.723 150.877 160.677 151.016C160.677 150.877 160.677 150.738 160.677 150.598C160.723 150.506 160.769 150.366 160.769 150.181Z" fill="#3A4C4B"/>
<path d="M180.518 79.436C180.518 80.0858 180.564 80.7822 180.518 81.432C180.425 82.314 179.871 83.3353 179.084 83.1496C176.725 82.5461 176.957 84.078 176.864 85.4706C176.818 86.3062 176.771 87.3274 175.8 87.4668C174.829 87.6058 174.505 86.6313 174.228 85.842C173.58 84.078 173.025 82.314 172.285 80.5965C171.823 79.5288 171.268 78.7396 170.065 80.1787C168.955 81.5249 167.753 81.1071 167.567 79.3431C167.29 76.9757 166.735 74.9795 164.237 74.0512C163.22 73.6798 163.405 72.5192 163.174 71.6837C161.231 64.8134 157.023 59.8 151.102 55.8542C146.893 53.069 143.054 49.6803 138.383 47.6378C137.689 47.3128 137.412 46.7093 137.55 45.9666C137.736 44.9918 138.245 44.3883 139.308 44.2026C141.389 43.7848 143.471 44.1098 145.552 44.2955C150.593 44.7597 155.727 45.3631 160.26 47.5449C164.284 49.4946 168.724 51.4443 170.574 56.2256C171.268 57.9896 172.285 59.475 174.181 60.3106C175.8 61.0534 176.864 62.5388 177.465 64.1635C179.269 69.0841 180.425 74.144 180.518 79.436Z" fill="#100342"/>
<path d="M179.501 177.198C180.796 177.198 184.219 179.983 184.496 181.33C184.727 182.537 184.126 183.233 183.155 183.929C178.668 187.086 173.35 188.71 168.955 191.96C168.863 192.053 168.678 192.099 168.539 192.146C166.781 192.749 165.903 191.913 164.145 188.061C163.544 186.714 163.22 185.461 164.839 184.347C168.401 181.933 172.563 180.772 176.263 178.73C177.327 178.173 178.206 177.244 179.501 177.198Z" fill="#100342" stroke="black" stroke-width="0.5" stroke-miterlimit="10"/>
<path d="M181.166 191.635C181.166 191.589 181.166 191.589 181.212 191.542C181.073 191.542 180.934 191.682 180.842 191.821C180.795 191.868 180.703 191.96 180.611 192.007C180.564 192.053 180.518 192.053 180.518 192.1C180.425 192.146 180.379 192.193 180.287 192.286C179.593 192.889 178.945 193.539 178.483 194.328C178.159 194.839 177.928 195.396 177.743 195.953C177.558 196.556 177.465 197.206 177.419 197.856C177.419 198.413 177.095 198.877 176.541 199.017C175.985 199.156 175.708 198.784 175.476 198.413C174.875 197.484 174.737 195.535 173.395 195.999C171.545 196.649 169.325 197.391 168.816 199.898C168.262 202.823 167.799 205.747 167.29 208.672C167.568 204.726 167.059 200.827 166.642 196.928C166.458 195.488 167.059 194.653 168.307 193.864C173.349 190.614 179.223 188.99 184.311 185.879C185.189 185.322 186.022 185.462 186.115 186.576C186.299 188.526 186.253 190.475 186.253 192.425C186.253 192.657 186.068 193.028 185.837 193.168C185.42 193.4 185.189 193.075 184.958 192.796C184.773 192.517 184.542 192.286 184.357 192.007C184.218 191.821 184.033 191.635 183.894 191.45C183.848 191.404 183.848 191.311 183.802 191.264C183.755 191.218 183.617 191.171 183.524 191.125C183.478 191.125 183.432 191.125 183.432 191.125C183.385 191.125 183.385 191.125 183.339 191.171C183.062 191.311 182.784 191.404 182.553 191.589C182.229 191.821 181.998 192.193 181.906 192.564C181.767 193.028 181.813 193.492 181.859 193.957C181.859 194.142 181.906 194.328 181.998 194.467C182.09 194.606 182.229 194.699 182.368 194.792C182.784 195.071 183.154 195.396 183.524 195.767C183.571 195.86 183.663 195.906 183.71 195.999C183.755 196.138 183.755 196.231 183.755 196.37C183.663 197.577 183.478 198.784 183.247 199.991C183.201 200.27 183.154 200.502 183.154 200.78C183.201 201.198 183.478 201.569 183.802 201.895C183.755 201.848 183.709 201.848 183.617 201.802C183.571 201.755 183.524 201.755 183.432 201.709C183.339 201.662 183.201 201.569 183.108 201.477C183.015 201.384 182.969 201.291 182.877 201.198C182.784 201.106 182.692 201.013 182.553 200.966C182.599 200.827 182.692 200.688 182.738 200.548C182.738 200.502 182.738 200.455 182.738 200.409C182.738 200.224 182.784 200.038 182.831 199.852C183.062 198.831 183.201 197.763 183.339 196.695C183.339 196.602 183.339 196.51 183.339 196.463C183.339 196.371 183.293 196.324 183.247 196.278C182.923 195.813 182.507 195.396 181.998 195.071C181.859 194.978 181.72 194.931 181.582 194.931C181.443 195.396 181.35 195.813 181.212 196.278C181.119 196.602 181.027 196.928 180.842 197.206C180.472 197.717 179.917 197.949 179.315 198.135C179.732 197.763 180.102 197.391 180.518 197.02C180.564 196.974 180.611 196.928 180.657 196.881C180.703 196.835 180.703 196.742 180.703 196.649C180.703 196.602 180.703 196.556 180.703 196.51C180.703 195.999 180.703 195.442 180.703 194.931C180.703 194.653 180.703 194.421 180.703 194.142C180.703 193.91 180.657 193.631 180.657 193.4C180.657 193.353 180.657 193.353 180.657 193.307C180.657 193.26 180.703 193.214 180.703 193.214C180.796 193.075 180.888 192.935 180.98 192.842C181.027 192.796 181.027 192.75 181.073 192.703C181.073 192.657 181.119 192.61 181.119 192.564C181.166 192.378 181.258 192.239 181.304 192.053C181.119 191.728 181.119 191.682 181.166 191.635Z" fill="#100342"/>
<path d="M179.409 155.798C180.565 156.68 180.334 157.515 180.334 158.212C180.288 162.25 180.149 166.289 179.316 170.281C179.316 170.374 179.27 170.467 179.27 170.559C179.177 171.209 179.223 171.859 179.131 172.509C179.131 172.695 179.085 172.834 179.085 172.974C179.039 173.113 178.992 173.252 179.039 173.391C179.039 173.716 179.039 174.088 178.992 174.412C178.669 174.598 178.345 174.784 178.021 174.923C177.558 175.109 177.142 175.387 176.726 175.619C175.986 175.944 175.2 176.176 174.46 176.548C172.98 177.244 171.5 177.987 169.974 178.637C169.696 178.776 169.465 178.869 169.233 179.008C169.095 179.101 168.956 179.147 168.817 179.24C168.262 179.519 167.661 179.797 167.106 180.076C166.967 180.122 166.828 180.215 166.689 180.308C165.672 180.911 164.654 181.84 163.452 181.747C163.498 181.747 163.776 179.89 163.822 179.704C163.914 179.008 164.007 178.312 164.1 177.662C164.146 177.337 164.192 176.966 164.192 176.641C164.192 176.501 164.192 176.362 164.238 176.223C164.284 176.13 164.284 176.037 164.331 175.898C164.377 175.248 164.377 174.645 164.423 173.995C164.423 173.623 164.47 173.298 164.423 172.927C164.377 172.741 164.423 172.602 164.423 172.416C164.423 172.045 164.423 171.72 164.423 171.395C164.423 170.699 164.423 170.003 164.423 169.306C164.47 167.914 164.562 166.521 164.654 165.128C164.701 164.803 164.747 164.432 164.747 164.107C164.747 163.921 164.747 163.689 164.747 163.503C164.793 163.272 164.932 163.689 164.978 163.736C165.117 164.014 165.256 164.339 165.348 164.618C165.765 165.778 165.996 167.032 165.996 168.285C165.996 168.796 165.949 169.352 165.903 169.863C165.487 172.834 167.984 174.088 169.187 176.037C169.881 177.151 174.228 175.248 175.339 173.67C177.79 170.188 178.391 166.196 178.715 162.065C178.9 160.208 179.177 158.165 179.409 155.798Z" fill="#100342" stroke="black" stroke-width="0.5" stroke-miterlimit="10"/>
<path d="M162.018 193.028C160.862 192.332 159.89 192.006 159.289 191.357C158.364 190.382 157.254 189.685 156.051 189.128C154.479 188.432 152.814 188.014 151.149 187.503C150.501 187.272 149.946 186.9 149.206 186.993C148.327 187.086 147.449 187.318 146.57 187.411C146.431 187.411 146.292 187.457 146.107 187.457C145.923 187.457 145.737 187.364 145.598 187.225C145.182 186.9 144.858 186.528 144.35 186.297C143.147 185.647 141.806 185.229 140.465 184.997C140.788 185.043 141.344 184.811 141.667 184.765C142.084 184.672 142.5 184.625 142.962 184.579C143.795 184.486 144.674 184.486 145.506 184.579C146.94 184.765 148.374 184.718 149.854 184.811C151.38 184.904 152.906 185.043 154.432 185.229C155.311 185.322 156.283 185.415 157.069 185.136C158.641 184.579 159.567 185.368 160.26 186.436C161.37 188.246 162.018 190.335 162.018 193.028Z" fill="#100342"/>
<path d="M180.703 117.687C180.61 117.733 180.471 117.779 180.379 117.825C180.333 117.825 179.963 117.965 179.917 117.965C179.778 119.311 179.778 120.704 179.917 122.05C178.298 123.721 176.17 124.649 174.32 126.089C174.829 126.785 175.292 127.435 175.8 128.131C175.847 128.178 175.847 128.224 175.847 128.27C175.847 128.363 175.8 128.41 175.708 128.456C175.245 128.781 174.829 129.106 174.366 129.431C173.858 129.802 173.349 130.174 173.071 130.731C172.84 131.195 172.794 131.705 172.748 132.17C172.701 132.773 172.655 133.377 172.609 133.934C172.562 134.63 172.47 135.327 172.424 136.023C172.424 136.301 172.378 136.58 172.285 136.905C172.239 136.998 172.239 137.09 172.285 137.183C172.285 137.276 172.378 137.323 172.424 137.415C172.609 137.694 172.794 138.019 172.794 138.39C172.84 138.761 172.748 139.133 172.655 139.504C172.424 140.525 172.424 141.593 172.609 142.614C172.193 142.243 171.776 141.872 171.684 141.314C171.638 141.083 171.684 140.804 171.73 140.572C171.823 140.015 171.915 139.458 172.008 138.854C172.054 138.622 172.1 138.39 172.1 138.158C172.1 137.926 171.961 137.694 171.915 137.461C171.453 135.512 171.406 133.516 171.499 131.52C171.499 131.195 171.499 130.87 171.499 130.545C171.499 130.359 171.406 130.127 171.545 129.988C171.776 129.756 172.1 129.57 172.378 129.385C172.655 129.199 172.933 129.013 173.21 128.781C173.349 128.688 173.441 128.595 173.488 128.456C173.534 128.363 173.488 128.224 173.488 128.085C173.303 127.296 173.025 126.507 172.655 125.763C172.609 125.671 172.517 125.532 172.517 125.392C172.517 125.021 172.887 124.835 173.21 124.696C174.783 124.092 176.263 123.164 177.558 122.05C177.697 121.911 177.835 121.771 177.974 121.586C178.113 121.354 178.113 121.075 178.159 120.843C178.205 119.914 178.252 118.986 178.159 118.058C178.113 117.269 178.066 116.387 178.622 115.783C178.761 115.598 178.992 115.458 179.084 115.273C179.177 115.133 179.223 114.947 179.269 114.809C179.408 114.251 179.5 113.741 179.639 113.184C179.685 112.951 179.778 112.72 179.778 112.441C179.778 112.348 179.778 112.302 179.824 112.209C180.055 111.745 180.379 112.255 180.471 112.534C180.703 113.509 180.842 114.437 180.934 115.412C180.98 115.737 180.98 116.108 181.027 116.433C181.027 116.665 181.073 116.897 181.073 117.176C181.073 117.362 180.98 117.501 180.842 117.594C180.749 117.687 180.703 117.687 180.703 117.687Z" fill="#2C382C"/>
<path d="M76.1294 186.993C78.3495 185.136 80.662 183.372 82.7896 181.422C84.2696 180.076 86.2122 180.401 87.3684 181.005C90.7448 182.722 94.2136 181.887 97.6362 182.118C98.33 182.165 99.1162 181.747 99.7175 182.676C95.6011 183.604 91.4848 183.047 87.4147 183.418C83.3908 183.79 80.2457 186.807 76.2681 187.55C76.2681 187.318 76.2219 187.178 76.1294 186.993Z" fill="#100342"/>
<path d="M181.073 136.765C181.813 139.086 181.258 141.036 180.056 142.846C179.27 144.006 179.362 145.26 179.501 146.513C179.547 147.256 179.686 148.045 178.807 148.463C178.206 148.742 177.605 148.51 177.096 148.184C176.263 147.674 176.541 146.931 176.679 146.188C176.772 145.539 177.004 144.842 176.911 144.192C176.448 140.711 178.299 138.529 181.073 136.765Z" fill="#100342"/>
<path d="M172.794 99.2575C172.702 100.232 173.025 102.182 171.777 102.089C170.204 101.996 170.852 100.14 170.852 98.9786C170.852 98.6073 170.898 98.236 170.99 97.8647C171.222 97.215 170.528 95.9152 171.777 95.9617C172.702 96.0077 172.748 97.0756 172.748 97.9576C172.794 98.3754 172.794 98.7468 172.794 99.2575Z" fill="#100342"/>
<path d="M169.232 161.925C169.232 162.946 169.279 163.921 167.984 163.967C167.012 164.014 166.874 163.364 167.012 162.622C167.151 161.647 167.012 160.207 168.354 160.115C169.556 159.975 169.094 161.275 169.232 161.925Z" fill="#100342"/>
<path d="M152.258 148.371C152.166 148.928 152.073 149.485 152.258 149.996C152.397 150.506 152.859 151.017 153.414 151.017C153.97 151.017 154.432 150.506 154.571 149.949C154.709 149.392 154.617 148.835 154.478 148.278C153.738 147.86 152.767 147.907 152.073 148.371" fill="#4300BF"/>
<path d="M149.206 140.943C148.975 141.268 149.299 141.732 149.669 141.778C150.039 141.825 150.408 141.546 150.547 141.221C150.686 140.896 150.733 140.478 150.733 140.107C150.362 140.014 149.992 139.922 149.622 140.061C149.252 140.154 148.929 140.525 149.021 140.896" fill="#4300BF"/>
<path d="M106.748 75.9537C106.794 76.7893 107.811 77.3928 108.551 76.975C109.291 76.5572 109.338 75.3967 108.644 74.9325C107.95 74.4683 106.886 74.9789 106.748 75.7681" fill="#4300BF"/>
<path d="M84.8708 156.307C83.8995 155.472 82.1882 155.843 81.6332 157.004C81.5407 157.19 81.4944 157.375 81.5869 157.514C81.6331 157.7 81.8182 157.793 82.0032 157.839C82.697 158.211 83.5295 158.443 84.3157 158.211C85.0557 157.979 85.657 157.143 85.3795 156.354C85.2408 156.354 85.102 156.307 84.9632 156.307" fill="#4300BF"/>
<path d="M161 86.213C160.584 87.0484 160.26 88.0699 160.769 88.8125C161.185 89.3697 162.018 89.6016 162.619 89.2768C163.22 88.9519 163.544 88.1164 163.267 87.4662C162.388 87.1879 161.602 86.6771 160.954 86.0273" fill="#684C9B"/>
<path d="M105.129 68.9439C104.759 69.5009 104.898 70.3365 105.36 70.8007C105.823 71.2649 106.609 71.4042 107.21 71.1257C107.164 70.2901 106.794 69.5009 106.146 68.9903C105.73 68.6654 104.99 68.5261 104.805 69.0367" fill="#4300BF"/>
<path d="M90.7444 79.8525C90.2819 80.3168 90.0506 81.013 90.0969 81.6629C90.5594 81.9879 91.1606 82.1271 91.7619 82.0343C91.7619 81.3844 91.7619 80.7345 91.7619 80.0846C91.3919 79.9918 90.9757 79.9453 90.6056 79.8525" fill="#4300BF"/>
<path d="M135.978 177.43C135.099 177.94 134.405 178.822 134.081 179.797C134.035 179.983 133.989 180.215 134.081 180.401C134.174 180.586 134.451 180.679 134.683 180.679C135.284 180.772 135.885 180.772 136.486 180.679C136.903 179.797 137.088 178.822 136.995 177.847C136.625 177.801 136.302 177.708 136.024 177.476" fill="#4300BF"/>
<path d="M83.807 201.94C84.4546 202.312 85.2871 202.451 86.0271 202.265C86.2583 201.801 86.3508 201.244 86.1196 200.78C85.8883 200.316 85.2408 200.083 84.8246 200.362C84.6395 200.501 84.5471 200.687 84.4083 200.826C84.2233 200.965 83.992 201.058 83.807 201.198C83.622 201.337 83.3908 201.523 83.437 201.754C83.4833 201.987 83.8533 202.126 83.9458 201.94" fill="#4300BF"/>
<path d="M84.1307 208.996C84.5007 208.299 84.8707 207.65 85.287 206.999C85.3795 206.814 85.5645 206.628 85.7495 206.721C85.842 206.767 85.8883 206.907 85.9808 206.999C86.3508 207.603 87.1833 207.696 87.9233 207.835C88.6171 207.974 89.4496 208.532 89.2184 209.228C87.6921 209.228 86.1658 209.228 84.6395 209.228C84.4083 209.228 84.0845 209.042 84.2695 208.856" fill="#4300BF"/>
<path d="M139.03 201.289C138.799 201.8 138.66 202.357 138.66 202.914C139.308 203.332 140.094 203.517 140.881 203.471C141.02 202.914 141.02 202.357 140.881 201.8C140.788 201.289 140.511 200.778 140.048 200.593C139.586 200.407 138.938 200.918 139.169 201.382" fill="#4300BF"/>
<path d="M142.731 207.371C142.823 207.974 143.471 208.485 144.072 208.346C143.841 207.835 143.656 207.325 143.424 206.814C143.332 206.629 143.286 206.443 143.147 206.35C142.823 206.071 142.268 206.164 142.084 206.536C141.898 206.907 142.176 207.464 142.592 207.511" fill="#4300BF"/>
<path d="M179.269 102.646C178.575 103.667 177.974 105.013 178.668 106.034C178.807 106.22 178.992 106.406 179.131 106.592C179.501 107.195 179.269 107.984 179.269 108.681C179.269 109.377 179.824 110.259 180.518 110.027C181.073 107.195 181.351 104.27 181.351 101.346C181.351 100.975 181.351 100.278 181.073 99.9535C180.888 99.7212 180.565 99.7677 180.379 100C180.287 100.139 180.333 100.464 180.287 100.603C180.24 100.836 180.102 101.114 180.009 101.346C179.824 101.81 179.547 102.228 179.269 102.646Z" fill="#6B00FA"/>
<path d="M166.273 144.331C165.996 144.517 165.672 144.61 165.348 144.656C165.533 145.353 165.765 146.049 165.949 146.792C166.042 147.116 166.135 147.488 166.135 147.813C166.135 148.602 165.487 149.345 164.747 149.484C164.007 148.045 163.822 146.42 163.822 144.842C163.822 143.682 164.1 141.964 165.626 142.753C166.227 143.078 167.106 143.682 166.273 144.331Z" fill="#6B00FA"/>
<path d="M170.25 150.877C170.065 152.037 170.898 153.198 172.008 153.477C172.193 152.919 172.285 152.362 172.285 151.806C172.285 151.341 172.285 150.923 172.054 150.506C171.823 150.088 171.407 149.81 170.99 149.856C170.574 149.902 170.204 150.413 170.343 150.831" fill="#6B00FA"/>
<path d="M173.812 115.272C173.257 116.015 172.887 116.944 172.887 117.872C172.887 118.15 172.933 118.429 173.072 118.615C173.257 118.847 173.58 118.94 173.765 118.754C174.043 118.104 174.321 117.408 174.598 116.758C174.691 116.526 174.783 116.293 174.783 116.062C174.737 115.644 174.228 115.319 173.812 115.504" fill="#6B00FA"/>
<path d="M172.748 202.637C172.887 203.147 172.748 203.75 172.748 204.261C172.794 204.818 173.21 205.468 173.719 205.329C173.95 205.282 174.135 205.05 174.274 204.818C174.598 204.354 174.875 203.843 174.922 203.286C174.968 202.729 174.644 202.126 174.135 201.94C173.627 201.754 172.933 202.219 173.026 202.775" fill="#6B00FA"/>
<path d="M177.466 204.399C177.605 204.167 177.697 203.935 177.928 203.749C178.483 203.378 179.27 203.842 179.917 203.749C180.518 203.703 181.073 203.239 181.628 203.425C182.137 203.564 182.368 204.26 182.091 204.678C181.952 204.91 181.351 205.189 181.073 205.328C180.703 205.56 180.38 205.792 180.01 206.024C179.316 206.488 178.576 206.906 177.836 207.324C177.235 207.695 176.448 208.345 175.754 208.484C174.922 208.67 175.847 207.37 176.032 207.045C176.541 206.21 177.003 205.328 177.466 204.399Z" fill="#6B00FA"/>
<path d="M114.98 188.246C115.535 187.782 116.183 187.225 116.876 187.411C117.2 187.504 117.432 187.736 117.755 187.875C118.773 188.432 120.022 188.246 121.178 188.107C121.64 188.061 122.057 188.014 122.519 188.107C122.889 188.2 123.213 188.432 123.536 188.571C124.508 189.036 125.664 189.036 126.728 189.268C127.792 189.5 128.948 189.964 129.364 190.985C129.318 190.892 127.792 190.939 127.606 190.939C127.005 190.939 126.404 190.892 125.803 190.846C124.601 190.799 123.398 190.707 122.195 190.614C119.79 190.428 117.385 190.243 114.98 189.964C114.656 189.917 114.286 189.871 113.963 189.871C113.824 189.871 113.593 189.871 113.454 189.825C113.269 189.732 113.315 189.778 113.407 189.639C113.593 189.361 113.963 189.175 114.194 188.943C114.471 188.71 114.749 188.479 114.98 188.246Z" fill="#6B00FA"/>
<path d="M94.4907 184.996C94.167 184.811 93.7045 184.903 93.5195 185.229C93.3344 185.553 93.427 186.018 93.7507 186.203C94.0745 186.389 94.4907 186.342 94.8145 186.157C95.1383 185.971 95.4158 185.739 95.7395 185.553C95.9245 185.46 96.202 185.275 96.1095 185.089C96.0633 184.996 95.9708 184.903 95.832 184.903C95.3232 184.718 94.8145 184.718 94.3057 184.903" fill="#6B00FA"/>
<path d="M99.9951 174.086C100.041 173.901 100.134 173.715 100.319 173.623C100.596 173.483 100.874 173.715 101.151 173.762C101.891 173.948 102.493 173.112 102.816 172.415C103.14 171.719 103.788 170.93 104.528 171.116C104.944 171.255 105.221 171.673 105.406 172.044C106.054 173.251 106.563 174.551 107.627 175.386C108.413 175.99 109.43 176.268 110.263 176.826C111.095 177.383 111.789 178.45 111.373 179.332C111.327 179.425 110.263 179.425 110.124 179.425C109.43 179.472 108.783 179.518 108.089 179.564C106.748 179.657 105.36 179.704 103.973 179.75C102.909 179.797 101.845 179.843 100.828 179.704C99.9488 179.564 98.9313 179.935 98.0063 179.935C97.7288 179.935 97.8213 178.868 97.9138 178.729C98.0063 178.59 98.145 178.497 98.2375 178.404C98.4226 178.172 98.515 177.893 98.6076 177.615C99.1163 176.501 99.5326 175.294 99.9951 174.086Z" fill="#100342"/>
<path d="M106.932 138.901C107.719 136.115 106.239 133.609 104.111 131.102C100.827 127.249 97.8209 123.211 97.1271 117.826C95.6009 105.663 102.354 93.7796 113.5 89.4628C125.202 84.9133 138.152 88.9985 145.136 99.3967C148.235 103.992 149.807 109.052 149.807 114.622C149.807 119.729 148.188 124.139 144.627 127.806C142.916 129.524 141.482 131.52 139.678 133.144C137.782 134.816 137.088 136.719 137.227 139.133C137.319 141.036 137.088 142.939 137.134 144.842C137.134 144.982 137.134 145.121 137.134 145.214C137.134 145.4 137.088 145.539 137.088 145.678C137.088 145.771 137.088 146.653 137.134 146.653C136.811 146.653 136.487 146.653 136.21 146.699C135.84 146.699 135.469 146.746 135.099 146.699C134.406 146.607 133.758 146.607 133.064 146.56C132.926 146.56 132.787 146.56 132.602 146.514C132.324 146.514 132.093 146.467 131.815 146.467C131.723 146.467 131.631 146.421 131.492 146.421C131.353 146.421 131.214 146.421 131.075 146.421C130.567 146.421 130.012 146.421 129.457 146.421C129.457 146.142 129.41 145.864 129.41 145.585C129.364 145.028 129.364 144.471 129.364 143.914C129.364 142.846 129.318 141.779 129.318 140.711C129.318 140.665 129.318 140.618 129.272 140.572C129.225 140.525 129.179 140.525 129.133 140.525C128.023 140.433 126.913 140.525 125.803 140.665C125.803 141.314 125.803 141.964 125.757 142.661C125.757 142.846 125.757 143.032 125.757 143.218C125.757 143.496 125.757 143.729 125.71 144.007C125.71 144.1 125.664 144.146 125.664 144.193C125.618 144.285 125.618 144.425 125.618 144.518C125.572 145.028 125.572 145.585 125.664 146.096C125.34 146.096 125.017 146.096 124.646 146.096C124.23 146.096 123.768 146.096 123.352 146.003C122.843 145.91 122.288 145.956 121.779 145.91C121.594 145.91 121.363 145.91 121.178 145.864C120.669 145.864 120.16 145.771 119.651 145.771C119.374 145.771 119.143 145.771 118.865 145.771C118.819 145.771 118.125 145.817 118.079 145.864C118.079 145.4 118.125 144.889 118.125 144.425C118.125 144.193 118.125 143.96 118.171 143.682C118.171 143.45 118.218 143.218 118.218 142.985C118.218 142.057 118.218 141.129 118.171 140.154C116.969 139.922 115.72 139.829 114.471 139.829C114.425 140.896 114.379 141.964 114.286 143.032C114.24 143.543 114.24 144.1 114.194 144.657C114.194 144.796 114.194 144.935 114.194 145.074C114.194 145.167 114.194 145.26 114.148 145.307C114.101 145.4 113.87 145.4 113.778 145.4C113.13 145.446 112.436 145.4 111.789 145.353C111.511 145.353 111.188 145.307 110.91 145.307C110.17 145.26 109.43 145.26 108.69 145.214C108.459 145.214 108.181 145.167 107.95 145.167C107.811 145.121 107.672 145.074 107.487 145.074C107.441 145.074 106.701 145.028 106.701 145.028C106.701 144.982 106.701 144.935 106.701 144.889C106.701 144.378 106.701 143.821 106.701 143.264C106.701 143.032 106.655 142.8 106.747 142.568C106.794 142.475 106.747 142.382 106.747 142.289C106.747 142.057 106.747 141.825 106.747 141.593C106.747 140.989 106.794 140.433 106.794 139.829C106.886 139.829 106.886 139.643 106.932 138.901ZM121.918 130.359C122.334 130.406 122.75 130.406 123.167 130.452C123.814 130.498 124.508 130.545 125.155 130.638C124.924 129.942 124.693 129.245 124.415 128.595C124.323 128.317 124.184 128.085 124.092 127.853C123.999 127.62 123.86 127.435 123.768 127.202C123.722 127.156 123.722 127.064 123.722 127.017C123.675 126.785 123.583 126.599 123.537 126.367C123.305 125.81 123.12 125.207 122.889 124.603C122.797 124.324 122.704 124.093 122.565 123.814C122.565 123.86 122.473 124 122.473 124C122.427 124.093 122.334 124.185 122.288 124.278C121.687 125.114 121.132 125.949 120.623 126.831C120.345 127.249 120.114 127.713 119.836 128.177C119.698 128.409 119.605 128.642 119.467 128.827C119.42 128.92 119.374 129.013 119.328 129.106C119.281 129.291 119.097 129.477 118.958 129.663C118.773 129.895 118.588 130.127 118.449 130.406C118.449 130.406 118.588 130.406 118.634 130.406C118.68 130.406 118.773 130.406 118.819 130.406C118.958 130.406 119.097 130.406 119.235 130.406C119.513 130.406 119.744 130.406 120.022 130.359C120.114 130.359 120.253 130.313 120.345 130.313C120.484 130.313 120.623 130.313 120.762 130.359C121.039 130.359 121.27 130.406 121.548 130.406C121.687 130.313 121.825 130.313 121.918 130.359Z" fill="#272F49"/>
<path d="M105.869 137.6C106.609 134.861 105.175 132.401 103.094 129.941C99.8562 126.134 96.8961 122.188 96.2486 116.943C94.7685 105.012 101.382 93.4074 112.298 89.183C123.768 84.7268 136.441 88.7188 143.332 98.9315C146.338 103.434 147.911 108.401 147.957 113.832C147.957 118.846 146.385 123.163 142.87 126.737C141.205 128.455 139.817 130.405 138.013 131.937C136.163 133.561 135.469 135.418 135.608 137.832C135.701 139.689 135.469 141.546 135.516 143.403C135.516 143.542 135.516 143.635 135.516 143.774C135.516 143.913 135.469 144.099 135.469 144.238C135.469 144.331 135.469 145.166 135.516 145.166C135.192 145.166 134.915 145.166 134.591 145.166C134.221 145.166 133.851 145.213 133.481 145.166C132.833 145.074 132.139 145.074 131.492 145.027C131.353 145.027 131.215 145.027 131.076 144.981C130.798 144.981 130.567 144.935 130.289 144.935C130.197 144.935 130.104 144.888 130.012 144.888C129.873 144.888 129.734 144.888 129.596 144.888C129.087 144.888 128.532 144.888 128.023 144.888C128.023 144.61 127.977 144.377 127.977 144.099C127.931 143.542 127.931 143.031 127.931 142.474C127.931 141.406 127.884 140.385 127.884 139.317C127.884 139.271 127.884 139.225 127.838 139.178C127.792 139.132 127.746 139.132 127.699 139.132C126.636 139.039 125.525 139.132 124.462 139.271C124.462 139.921 124.462 140.571 124.416 141.221C124.416 141.406 124.416 141.592 124.416 141.778C124.416 142.01 124.416 142.288 124.369 142.567C124.369 142.66 124.323 142.706 124.323 142.753C124.277 142.846 124.277 142.985 124.277 143.077C124.23 143.588 124.23 144.099 124.323 144.61C123.999 144.61 123.676 144.61 123.352 144.61C122.936 144.61 122.519 144.61 122.103 144.517C121.594 144.424 121.085 144.47 120.53 144.424C120.346 144.424 120.114 144.424 119.929 144.377C119.42 144.377 118.958 144.284 118.449 144.284C118.172 144.284 117.941 144.284 117.663 144.284C117.616 144.284 116.923 144.331 116.923 144.377C116.923 143.913 116.969 143.449 116.969 142.939C116.969 142.706 116.969 142.474 117.015 142.242C117.015 142.01 117.062 141.778 117.062 141.546C117.062 140.617 117.062 139.689 117.015 138.761C115.813 138.575 114.61 138.435 113.408 138.435C113.361 139.503 113.315 140.524 113.269 141.592C113.223 142.103 113.223 142.66 113.176 143.17C113.176 143.31 113.176 143.449 113.176 143.588C113.176 143.681 113.176 143.774 113.13 143.821C113.084 143.913 112.853 143.913 112.76 143.913C112.113 143.96 111.465 143.913 110.818 143.867C110.54 143.867 110.216 143.821 109.939 143.821C109.199 143.774 108.459 143.774 107.765 143.728C107.534 143.728 107.303 143.681 107.025 143.681C106.886 143.681 106.748 143.588 106.563 143.588C106.516 143.588 105.823 143.542 105.823 143.542C105.823 143.495 105.823 143.449 105.823 143.403C105.823 142.892 105.823 142.335 105.823 141.824C105.823 141.592 105.776 141.36 105.869 141.174C105.915 141.081 105.869 140.989 105.869 140.896C105.869 140.664 105.869 140.432 105.869 140.199C105.869 139.643 105.915 139.039 105.915 138.482C105.823 138.482 105.823 138.343 105.869 137.6ZM120.577 129.198C120.993 129.244 121.409 129.244 121.779 129.291C122.427 129.337 123.074 129.383 123.722 129.476C123.49 128.826 123.306 128.13 123.028 127.434C122.936 127.155 122.797 126.923 122.704 126.691C122.612 126.459 122.473 126.274 122.381 126.041C122.334 125.995 122.334 125.902 122.334 125.856C122.288 125.623 122.195 125.438 122.149 125.206C121.918 124.648 121.733 124.045 121.502 123.488C121.409 123.21 121.316 122.977 121.178 122.699C121.178 122.745 121.085 122.838 121.085 122.885C121.039 122.977 120.947 123.07 120.9 123.163C120.346 123.999 119.79 124.834 119.281 125.67C119.004 126.088 118.773 126.552 118.542 126.97C118.403 127.202 118.311 127.387 118.172 127.619C118.125 127.712 118.079 127.805 118.033 127.898C117.986 128.084 117.802 128.27 117.663 128.408C117.478 128.641 117.339 128.873 117.154 129.105C117.154 129.105 117.293 129.105 117.339 129.105C117.385 129.105 117.478 129.105 117.524 129.105C117.663 129.105 117.802 129.105 117.941 129.105C118.218 129.105 118.449 129.105 118.727 129.059C118.819 129.059 118.958 129.012 119.05 129.012C119.189 129.012 119.328 129.012 119.467 129.059C119.744 129.059 119.976 129.105 120.253 129.105C120.346 129.198 120.484 129.198 120.577 129.198Z" fill="#847F88" stroke="black" stroke-width="0.5" stroke-miterlimit="10"/>
<path d="M138.615 91.7373C130.151 84.9599 120.577 83.8459 110.679 88.3021C94.8149 95.4509 90.5598 116.619 100.088 127.156C101.429 128.642 102.446 130.36 103.834 131.845C105.083 133.191 105.499 134.63 105.406 136.44C105.268 138.947 105.036 141.5 105.406 144.239L113.546 144.611L113.685 138.808L116.831 138.901V138.947C116.831 138.994 116.831 139.04 116.831 139.087C116.831 139.133 116.831 139.226 116.831 139.272C116.831 139.365 116.831 139.458 116.831 139.504C116.831 139.597 116.831 139.69 116.831 139.783C116.831 139.876 116.831 140.015 116.831 140.108C116.831 140.247 116.831 140.34 116.831 140.479C116.831 140.618 116.831 140.758 116.831 140.897C116.831 141.036 116.831 141.176 116.831 141.314C116.831 141.454 116.831 141.593 116.831 141.732C116.831 141.872 116.831 142.011 116.831 142.15C116.831 142.289 116.831 142.429 116.831 142.568C116.831 142.707 116.831 142.8 116.831 142.94C116.831 143.032 116.831 143.172 116.831 143.311C116.831 143.403 116.831 143.543 116.831 143.636C116.831 143.729 116.831 143.821 116.831 143.914C116.831 143.961 116.831 144.054 116.831 144.147C116.831 144.193 116.831 144.239 116.831 144.285C116.831 144.425 116.784 144.564 116.784 144.75C116.831 144.75 116.831 144.75 116.877 144.75H116.923H116.969C117.015 144.75 117.108 144.75 117.154 144.75C117.293 144.75 117.432 144.75 117.571 144.75C118.125 144.75 118.634 144.796 119.189 144.796C119.837 144.843 120.531 144.843 121.224 144.889C121.826 144.936 122.473 144.936 123.075 144.982C123.445 144.982 123.815 145.029 124.231 145.029C124.277 145.029 124.323 145.029 124.369 145.029C124.462 145.029 124.508 145.029 124.601 144.982C124.601 144.843 124.647 144.657 124.647 144.518V144.471C124.647 144.425 124.647 144.332 124.693 144.285C124.693 144.147 124.74 144.007 124.74 143.914C124.74 143.821 124.74 143.729 124.74 143.636C124.74 143.543 124.74 143.45 124.74 143.403C124.74 143.311 124.74 143.264 124.74 143.172C124.74 143.079 124.74 142.986 124.74 142.893C124.74 142.8 124.74 142.661 124.74 142.522C124.74 142.382 124.74 142.243 124.74 142.15C124.74 142.011 124.74 141.872 124.74 141.732C124.74 141.593 124.74 141.454 124.74 141.314C124.74 141.176 124.74 141.036 124.74 140.897C124.74 140.758 124.74 140.618 124.74 140.479C124.74 140.386 124.74 140.247 124.74 140.108C124.74 140.015 124.74 139.922 124.74 139.829C124.74 139.736 124.74 139.69 124.74 139.597C124.74 139.551 124.74 139.504 124.74 139.458V139.411L127.885 139.504L127.746 145.26C128.254 145.26 136.302 145.632 136.302 145.632C136.302 143.961 136.302 142.289 136.302 140.572C136.302 139.783 136.302 138.994 136.302 138.205C136.302 137.972 136.302 137.74 136.256 137.554C136.256 136.998 136.256 136.44 136.349 135.93C136.441 135.373 136.626 134.769 136.996 134.305C137.089 134.212 137.181 134.073 137.273 133.98C137.412 133.841 137.505 133.748 137.644 133.609C137.875 133.377 138.106 133.098 138.337 132.866C138.8 132.356 139.262 131.891 139.725 131.381C140.187 130.87 140.603 130.406 141.066 129.895C141.528 129.385 141.945 128.92 142.361 128.41C142.777 127.899 143.24 127.435 143.656 126.924C144.072 126.414 144.489 125.949 144.905 125.439C145.136 125.207 145.321 124.928 145.553 124.696C147.125 122.746 148.235 120.565 148.605 118.058C150.27 107.335 146.986 98.4219 138.615 91.7373ZM112.39 137.276C112.298 137.276 112.205 137.276 112.067 137.276C112.02 137.276 111.974 137.276 111.928 137.276C111.928 137.508 111.928 137.74 111.928 137.972C111.928 138.436 111.882 138.947 111.882 139.411C111.835 140.386 111.789 141.407 111.789 142.382L107.673 142.197C107.673 141.779 107.719 141.361 107.719 140.943C107.765 140.015 107.812 139.087 107.812 138.112C107.858 137.137 107.904 136.116 107.904 135.141C107.904 134.769 107.95 134.398 107.95 134.027C107.95 133.841 107.904 133.655 107.904 133.516C107.904 133.331 107.858 133.145 107.858 132.959C107.858 132.866 107.812 132.82 107.812 132.727C107.765 132.68 107.765 132.587 107.719 132.541C107.673 132.402 107.626 132.263 107.534 132.123C107.395 131.845 107.256 131.566 107.118 131.288C106.979 131.009 106.794 130.777 106.609 130.499C106.516 130.36 106.378 130.174 106.239 130.034C104.296 127.667 102.446 125.207 100.596 122.746C97.96 119.126 97.4975 114.901 98.0062 110.631C99.1626 101.022 104.158 94.0586 113.13 90.484C121.964 86.9562 130.336 88.4415 137.366 94.8012C144.535 101.253 147.171 109.47 144.859 119.079C144.304 121.54 142.731 123.304 141.159 125.067C139.216 127.249 137.227 129.385 135.238 131.52C135.146 131.613 135.054 131.659 135.007 131.752C135.007 131.798 135.007 131.798 134.961 131.845C134.915 131.891 134.915 131.938 134.868 131.984C134.822 132.077 134.73 132.17 134.684 132.263C134.637 132.309 134.637 132.356 134.591 132.402C134.591 132.448 134.545 132.448 134.545 132.495C134.452 132.68 134.359 132.866 134.267 133.052C134.082 133.469 133.99 133.934 133.897 134.398C133.851 134.63 133.851 134.862 133.851 135.094C133.851 135.187 133.851 135.327 133.851 135.419C133.851 135.465 133.851 135.512 133.851 135.605C133.851 135.698 133.851 135.791 133.851 135.883C133.851 136.023 133.851 136.209 133.851 136.348C133.851 136.626 133.851 136.858 133.851 137.137C133.851 137.647 133.851 138.205 133.851 138.715C133.851 139.226 133.851 139.783 133.851 140.293C133.851 140.804 133.851 141.361 133.851 141.872C133.851 142.15 133.851 142.382 133.851 142.661C133.851 142.8 133.851 142.94 133.851 143.079C133.851 143.125 133.851 143.172 133.851 143.218V143.264C133.805 143.311 133.758 143.264 133.758 143.264C133.712 143.264 133.62 143.264 133.573 143.264C133.342 143.264 133.065 143.264 132.833 143.218C131.816 143.172 130.798 143.125 129.781 143.079C129.827 142.197 129.827 141.314 129.873 140.479C129.873 140.201 129.92 139.876 129.92 139.597C129.92 139.226 129.92 138.901 129.92 138.529C129.92 138.39 129.92 138.298 129.92 138.158L129.319 138.065C129.087 138.019 128.856 137.972 128.624 137.972C128.116 137.926 127.653 137.88 127.145 137.833C126.636 137.787 126.127 137.787 125.618 137.787C125.11 137.787 124.601 137.787 124.092 137.787C123.676 137.787 123.213 137.787 122.797 137.787L122.612 143.125L118.496 142.94L118.68 137.694C118.449 137.647 118.172 137.601 117.941 137.554C117.432 137.462 116.969 137.415 116.46 137.369C115.952 137.323 115.443 137.323 114.934 137.276C114.425 137.276 113.917 137.276 113.408 137.23C113.177 137.23 112.899 137.23 112.668 137.23" fill="black"/>
<path d="M122.612 121.773C122.566 121.726 122.566 121.633 122.52 121.587C122.427 121.447 122.381 121.262 122.289 121.123C122.242 121.03 122.196 120.937 122.15 120.844C122.103 120.751 122.058 120.705 122.011 120.612C121.826 120.333 121.687 120.009 121.502 119.73C121.41 119.591 121.363 119.451 121.271 119.266C121.271 119.219 121.225 119.173 121.225 119.173C121.225 119.127 121.179 119.08 121.179 119.08C121.132 119.08 121.132 119.08 121.132 119.127C121.132 119.173 121.086 119.173 121.086 119.219C121.086 119.266 121.04 119.312 121.04 119.358C120.993 119.451 120.947 119.544 120.901 119.591C120.716 119.869 120.531 120.194 120.392 120.473C120.207 120.751 120.022 121.076 119.884 121.355C119.652 121.726 119.467 122.098 119.236 122.515C119.144 122.654 119.097 122.794 119.005 122.887C118.912 123.026 118.82 123.165 118.773 123.304C118.681 123.444 118.589 123.583 118.496 123.769C118.403 123.908 118.311 124.094 118.219 124.233C118.126 124.418 118.033 124.558 117.941 124.743C117.849 124.929 117.756 125.069 117.663 125.254C117.571 125.44 117.479 125.625 117.386 125.765C117.293 125.904 117.201 126.136 117.108 126.275C117.016 126.461 116.924 126.6 116.831 126.786C116.738 126.972 116.646 127.111 116.554 127.296C116.461 127.482 116.368 127.622 116.276 127.807C116.184 127.947 116.091 128.132 115.998 128.271C115.906 128.411 115.814 128.55 115.767 128.689C115.675 128.829 115.628 128.968 115.536 129.107C115.49 129.246 115.397 129.339 115.351 129.478C115.305 129.571 115.212 129.664 115.166 129.803C115.12 129.896 115.073 129.989 115.027 130.082C114.981 130.128 114.935 130.221 114.935 130.267C114.889 130.314 114.889 130.36 114.842 130.407L114.796 130.453H114.842C115.12 130.453 115.351 130.453 115.628 130.5C115.675 130.5 115.721 130.5 115.814 130.5C115.859 130.5 115.952 130.5 115.998 130.5C116.045 130.5 116.045 130.5 116.091 130.5C116.137 130.5 116.184 130.5 116.23 130.5C116.276 130.5 116.322 130.5 116.415 130.5C116.461 130.5 116.554 130.5 116.6 130.5C116.692 130.5 116.785 130.5 116.831 130.5C116.924 130.5 117.016 130.5 117.108 130.5C117.201 130.5 117.293 130.5 117.386 130.5C117.479 130.5 117.617 130.5 117.71 130.5C117.802 130.5 117.941 130.5 118.033 130.5C118.172 130.5 118.265 130.5 118.403 130.5C118.542 130.5 118.635 130.5 118.773 130.5C118.912 130.5 119.051 130.5 119.144 130.5C119.282 130.5 119.421 130.5 119.56 130.5C119.698 130.5 119.837 130.5 119.976 130.5C120.115 130.5 120.254 130.5 120.392 130.5C120.531 130.5 120.67 130.5 120.809 130.5C120.947 130.5 121.086 130.5 121.225 130.5C121.363 130.5 121.502 130.5 121.641 130.5C121.78 130.5 121.919 130.5 122.058 130.5C122.196 130.5 122.335 130.5 122.474 130.5C122.612 130.5 122.751 130.5 122.844 130.5C122.982 130.5 123.075 130.5 123.214 130.5C123.352 130.5 123.445 130.5 123.584 130.5C123.676 130.5 123.815 130.5 123.907 130.5C124 130.5 124.139 130.5 124.231 130.5C124.324 130.5 124.416 130.5 124.509 130.5C124.601 130.5 124.694 130.5 124.786 130.5C124.879 130.5 124.925 130.5 125.017 130.5L126.682 130.546C126.729 130.546 126.729 130.546 126.729 130.546C126.636 130.267 126.497 130.035 126.405 129.757C126.128 129.107 125.85 128.503 125.572 127.854C125.202 127.064 124.879 126.229 124.509 125.44C124.185 124.697 123.861 123.908 123.537 123.165C123.306 122.654 123.121 122.144 122.89 121.68C122.751 121.912 122.705 121.865 122.612 121.773C122.612 121.819 122.612 121.819 122.612 121.773ZM117.895 128.736C119.005 126.832 120.022 125.115 121.179 123.119C121.965 125.254 122.612 126.925 123.398 128.968C121.502 128.921 119.93 128.829 117.895 128.736Z" fill="black"/>
<path d="M189.583 181.654C187.224 179.751 185.467 177.29 183.247 175.155C183.386 172.787 183.663 170.652 183.663 168.517C183.617 162.668 183.987 156.819 183.524 150.97C183.247 147.395 184.218 143.96 185.189 140.525C187.086 133.979 186.022 127.248 185.051 120.796C184.357 116.201 184.264 111.744 184.588 107.195C184.912 103.203 184.958 99.2102 185.282 95.2182C185.698 89.5551 186.207 83.9844 184.773 78.2747C183.524 73.4469 183.247 68.3871 181.304 63.745C179.778 60.1242 177.882 56.7819 173.164 56.689C172.516 52.4183 170.204 49.3546 166.597 47.1728C163.821 45.5017 161.093 43.9234 157.716 43.5984C153.415 43.1806 149.437 41.2774 145.182 40.5811C137.782 39.3741 130.474 40.024 123.167 41.1381C113.361 42.67 103.695 44.5732 96.156 52.0934C92.5947 55.6678 88.9408 59.0565 87.4145 64.0235C86.9983 65.4161 86.0732 66.6231 85.3795 67.8764C82.1882 73.3077 80.2456 78.9246 83.3907 85.0985C83.6682 85.6092 83.9457 86.2126 83.6219 87.0484C81.2169 87.2338 81.0319 88.9515 81.0781 90.9939C81.2169 97.1678 81.2632 103.342 81.3094 109.469C81.3557 115.04 81.5869 120.61 80.5694 126.088C79.4593 131.891 79.5519 137.74 79.5056 143.589C79.5056 144.888 79.5519 146.235 79.2281 147.488C78.2568 151.851 78.4881 156.215 78.7193 160.579C79.0431 166.52 78.7656 172.416 79.4593 178.497C76.0367 181.189 72.6605 183.882 69.2378 186.482C68.0353 187.363 67.3416 188.338 67.3416 189.916C67.4341 196.462 67.4341 203.007 67.4803 209.552C67.4803 211.316 68.3128 212.291 70.1166 212.43C78.4881 212.941 86.8133 213.452 95.1385 214.009C105.961 214.705 116.738 215.355 127.56 216.051C139.817 216.841 152.073 217.676 164.33 218.465C165.995 218.558 167.521 218.187 168.955 217.305C175.384 213.405 181.859 209.506 188.334 205.7C189.907 204.771 190.508 203.564 190.508 201.754C190.555 196.044 190.693 190.334 190.832 184.671C190.832 183.511 190.555 182.443 189.583 181.654ZM83.1594 152.316C83.7145 148.417 84.2232 144.564 84.1307 140.618C83.9919 135.512 84.5932 130.498 85.3332 125.485C86.3508 118.521 85.9808 111.512 85.842 104.502C85.7958 101.949 85.7495 99.3961 85.7958 96.8894C85.7958 96.2397 85.842 95.5896 85.8883 94.9399C85.9345 94.5686 85.9808 94.1968 85.9808 93.779C85.9808 93.5936 86.1195 93.4542 86.2583 93.3152C86.4432 93.0828 86.6745 92.8509 86.8596 92.6186C86.9058 92.5721 86.952 92.5256 87.0445 92.4796C87.0908 92.4796 87.1833 92.4796 87.2296 92.5256C88.0621 92.8974 88.8946 93.2687 89.6809 93.733C89.7733 93.779 89.8658 93.8255 89.9121 93.9184C89.9584 94.0114 89.9584 94.1043 89.9121 94.1968C89.7271 95.3112 88.6633 96.1003 88.0158 97.0288C87.9233 97.1213 87.8308 97.2607 87.8771 97.4466C87.8771 97.5391 87.9696 97.632 88.0158 97.725C88.3396 98.0963 88.6633 98.5141 88.9871 98.8854C89.3109 99.2567 89.6809 99.628 90.0046 99.9998C90.1896 100.185 90.2358 100.51 90.2358 100.789C90.2821 101.067 90.1896 101.346 90.0509 101.624C89.6809 102.599 89.1721 103.528 88.8483 104.502C88.8021 104.595 88.8021 104.734 88.7558 104.874C88.7558 105.013 88.8021 105.152 88.8021 105.292C88.8946 105.663 88.9871 105.988 89.1258 106.313C89.1721 106.452 89.2183 106.545 89.2183 106.684C89.2183 106.777 89.1721 106.87 89.1721 107.009C89.0796 107.427 88.9409 107.845 88.8483 108.263C88.8483 108.216 88.9408 108.123 88.9871 108.077C89.0333 107.984 89.1258 107.891 89.1721 107.752C89.2646 107.612 89.4033 107.473 89.4496 107.334C89.4958 107.241 89.4958 107.148 89.4958 107.056C89.5421 106.87 89.5884 106.684 89.6346 106.498C89.6809 106.359 89.6809 106.22 89.6809 106.127C89.6346 105.988 89.5884 105.895 89.5884 105.756C89.4958 105.477 89.4958 105.152 89.5884 104.874C89.7271 104.317 90.0509 103.806 90.3746 103.296C90.3746 103.342 90.6984 103.481 90.7446 103.481C90.8371 103.528 90.8834 103.528 90.9296 103.62C90.9759 103.713 91.0684 103.806 91.1146 103.945C91.2534 104.131 91.3459 104.363 91.4846 104.595C91.7159 105.013 91.9009 105.477 92.0859 105.895C92.1322 105.988 92.1322 106.081 92.1784 106.127C92.3634 106.684 92.5484 107.288 92.4097 107.891C92.2247 108.819 91.4846 109.562 91.2996 110.49C91.1609 111.048 91.2534 111.651 91.5309 112.162C91.4846 111.698 91.4384 111.234 91.6234 110.816C91.7159 110.583 91.8084 110.398 91.9471 110.212C92.3171 109.516 92.6409 108.773 92.9647 108.077C93.0109 107.891 93.1034 107.752 93.1497 107.566C93.1959 107.381 93.1497 107.195 93.1497 107.056C93.1034 106.684 93.0572 106.267 93.0572 105.895C93.0572 105.756 93.0109 105.616 92.9647 105.477C92.9184 105.385 92.8259 105.245 92.7797 105.152C92.5484 104.874 92.3634 104.595 92.1784 104.27C91.9934 103.992 91.8546 103.713 91.7622 103.388C91.6234 102.97 91.6234 102.46 91.6234 101.996C91.6234 101.763 91.6234 101.532 91.5771 101.299C91.5309 101.114 91.5309 100.928 91.4384 100.789C91.3922 100.696 91.3459 100.51 91.2996 100.418C91.2071 100.139 91.1146 99.8139 91.0222 99.5355C90.9759 99.3961 90.9296 99.3032 90.8834 99.1642C90.6984 98.7924 90.3284 98.5141 90.0509 98.2357C89.7733 97.9569 89.9121 97.4931 90.0971 97.2142C90.2358 97.0288 90.3746 96.8429 90.5134 96.6575C90.8371 96.2857 91.1609 95.8679 91.4384 95.4501C91.5771 95.2647 91.7159 95.0788 91.8547 94.8934C91.9934 94.661 92.1322 94.4291 92.2247 94.1968C92.2709 93.9184 92.2709 93.64 92.1322 93.4542C91.9934 93.2687 91.8084 93.1758 91.6697 92.9899C91.3922 92.7115 91.2996 92.3402 91.1609 92.0154C91.0222 91.5976 90.7909 91.2263 90.5596 90.901C90.4209 90.7155 90.2821 90.5761 90.1434 90.3907C90.0046 90.2513 89.8658 90.1119 89.7271 89.9729C89.6346 89.88 89.5884 89.787 89.5884 89.6476C89.5421 89.4622 89.4496 89.3228 89.4033 89.1373C89.2183 88.7196 89.0333 88.2553 88.8946 87.791C88.5708 86.909 88.2933 85.9805 88.0158 85.0521C87.7383 84.1237 87.4608 83.1952 87.137 82.2669C86.952 81.7562 86.767 81.292 86.582 80.7814C86.9058 76.4179 87.7383 72.24 90.6059 68.712C91.2534 67.8764 91.6697 66.8088 91.9934 65.8339C93.2884 61.5632 96.156 58.4995 99.4398 55.7606C101.475 54.0431 103.325 52.0005 105.684 50.84C105.73 50.7936 105.915 50.9329 105.961 50.9329C106.054 50.9793 106.146 51.0257 106.239 51.0721C106.424 51.2114 106.563 51.3507 106.655 51.5363C106.84 51.7685 106.886 52.0934 107.025 52.3255C107.118 52.5576 107.21 52.8361 107.303 53.0682C107.488 53.5788 107.673 54.0431 107.811 54.5537C107.858 54.6465 107.858 54.693 107.904 54.7394C107.904 54.7858 107.95 54.8322 107.95 54.8322C107.95 54.8322 108.043 54.8786 108.089 54.8786C108.274 54.9251 108.459 55.0179 108.644 55.0643C108.69 55.0643 108.459 56.3177 108.459 56.4105C108.459 56.5033 108.459 56.5498 108.459 56.6426C108.459 56.8283 108.413 57.0604 108.413 57.2461C108.366 57.6639 108.366 58.0817 108.32 58.4995C108.32 58.6387 108.274 58.8244 108.32 58.9636C108.366 59.1029 108.413 59.1958 108.459 59.335C108.829 60.0778 109.245 60.8205 109.661 61.5632C109.615 61.4704 109.615 61.2847 109.569 61.1918C109.523 61.0526 109.523 60.9598 109.476 60.8205C109.43 60.5884 109.384 60.3098 109.338 60.0778C109.291 59.7528 109.245 59.4278 109.199 59.0565C109.199 58.9173 109.153 58.8244 109.153 58.6851C109.153 58.5923 109.106 58.5459 109.153 58.453C109.199 58.3138 109.245 58.1745 109.338 58.0817C109.384 57.9424 109.476 57.8031 109.523 57.6639C109.523 57.6639 109.8 57.7103 109.846 57.7567C109.939 57.8031 110.031 57.8496 110.124 57.8496C110.401 57.896 110.633 57.9888 110.864 58.1281C110.956 58.1745 111.049 58.2209 111.141 58.3138C111.188 58.4066 111.234 58.4995 111.28 58.5923C111.511 59.1958 111.743 59.8456 112.02 60.4491C112.066 60.542 112.113 60.6812 112.205 60.7741C112.298 60.8669 112.39 60.9133 112.483 60.9598C113.084 61.3311 113.732 61.7025 114.333 62.0738C114.055 61.6096 113.639 61.2383 113.269 60.7741C112.714 60.0778 112.344 59.2422 112.205 58.3602C112.159 58.1745 112.159 57.9888 112.159 57.8031C111.696 57.4782 111.234 57.1997 110.771 56.8747C110.586 56.7355 110.355 56.6426 110.216 56.5033C110.17 56.457 110.124 56.3641 110.124 56.2713C110.078 56.132 110.031 56.0391 109.985 55.8999C109.8 55.3893 109.661 54.8786 109.476 54.4144C109.43 54.2752 109.384 54.0895 109.245 54.0431C109.199 53.9966 109.106 53.9966 109.014 53.9502C108.875 53.8574 108.829 53.6717 108.783 53.5324C108.736 53.3468 108.69 53.1146 108.644 52.929C108.598 52.7897 108.551 52.604 108.551 52.4183C108.551 52.3719 108.551 52.2791 108.551 52.2327C108.505 51.9077 108.413 51.5828 108.413 51.2578C108.366 50.4223 108.551 49.5867 109.014 48.844C123.12 46.755 137.366 45.0375 149.761 55.9463V56.0856C149.761 56.1784 149.761 56.2248 149.761 56.3177C149.761 56.457 149.761 56.6426 149.761 56.7819C149.761 57.1068 149.761 57.4782 149.761 57.8031C149.761 58.453 149.761 59.1029 149.761 59.7528C149.761 59.8456 149.761 59.9385 149.761 60.0313C149.761 60.8205 149.761 61.6561 149.761 62.4452C149.761 62.6309 149.761 62.863 149.668 63.0487C149.622 63.0951 149.622 63.1415 149.576 63.2344C149.53 63.3736 149.484 63.5129 149.391 63.6057C149.252 63.8378 149.114 64.0699 148.929 64.3485C148.743 64.627 148.559 64.9519 148.466 65.2769C148.466 65.2305 148.559 65.1841 148.605 65.1376C148.651 65.0912 148.697 65.0448 148.743 64.9984C148.836 64.9055 148.975 64.8126 149.067 64.7663C149.298 64.627 149.484 64.4413 149.668 64.2556C149.761 64.1628 149.807 64.0699 149.9 63.9307C149.992 63.7914 150.085 63.5593 150.177 63.4201C150.316 63.2808 150.408 63.0487 150.455 62.8166C150.501 62.7237 150.547 62.6773 150.547 62.5845C150.594 62.4916 150.594 62.3988 150.64 62.2595C150.686 62.0274 150.732 61.8418 150.779 61.6096C150.964 60.6812 151.01 59.7528 151.149 58.8244C151.195 58.453 151.287 58.1281 151.38 57.7567C155.219 60.7741 159.196 63.4201 159.751 68.712C160.214 73.1684 161 77.5319 162.249 81.8491C162.619 83.1024 162.942 84.4022 162.942 85.702C162.942 94.3827 163.359 103.017 161.972 111.651C161.232 116.247 161.277 121.028 161.231 125.717C161.231 130.73 160.954 135.744 160.491 140.71C160.029 145.585 160.029 150.413 161.231 155.148C161.879 157.654 161.463 160.161 161.185 162.714C160.63 167.681 160.399 172.695 160.075 177.708C159.982 178.915 160.029 180.168 159.52 181.468C134.359 180.075 109.245 178.683 83.9919 177.244C83.9919 177.244 83.8995 176.455 83.8995 176.408C83.8532 176.083 83.807 175.758 83.7607 175.433C83.6682 174.784 83.6219 174.18 83.5757 173.53C83.5294 172.88 83.5757 172.277 83.6219 171.673C83.6219 171.58 83.6219 171.534 83.6219 171.441C83.6219 171.209 83.6682 170.931 83.7145 170.745C83.7607 170.513 83.807 170.234 83.8532 170.002C83.9919 169.445 84.1307 168.888 84.3619 168.331C84.4082 168.238 84.4082 168.191 84.4545 168.099C84.5007 168.052 84.5932 168.006 84.6857 167.96C85.8883 167.495 87.0445 167.031 88.2471 166.567C88.3858 166.52 88.4321 166.335 88.5246 166.195C88.6171 166.056 88.7096 165.917 88.8483 165.778C88.9409 165.685 89.0796 165.592 89.1721 165.499C89.3571 165.313 89.4496 165.082 89.5421 164.849C89.7271 164.478 89.9121 164.06 90.0509 163.689C90.1434 163.503 90.2358 163.317 90.2821 163.178C90.2821 163.132 90.2821 163.086 90.3284 163.039C90.4671 162.807 90.7909 162.621 90.9759 162.482C91.3922 162.157 91.7622 161.786 92.0397 161.368C91.6697 161.553 91.3922 161.786 91.0222 162.018C90.8834 162.111 90.6984 162.203 90.5134 162.25C90.4671 162.25 90.4209 162.25 90.3284 162.296C90.2821 162.296 90.2821 162.342 90.2821 162.342C90.1896 162.435 90.0971 162.575 90.0046 162.714C89.8196 162.993 89.6346 163.271 89.4496 163.549C89.2183 163.875 88.9871 164.199 88.7558 164.571C88.5245 164.942 88.3858 165.313 88.0158 165.499C87.9233 165.546 87.7845 165.592 87.6458 165.638C86.4895 166.01 85.287 166.428 84.1307 166.799C83.8995 166.892 83.6682 166.938 83.437 167.124C83.437 166.985 83.437 166.799 83.437 166.66C83.4832 166.428 83.437 166.195 83.4832 166.01C83.4832 165.685 83.4832 165.406 83.4832 165.082C83.4832 164.431 83.437 163.828 83.437 163.178C83.3907 161.925 83.2982 160.671 83.2519 159.464C82.8819 157.144 82.7894 154.729 83.1594 152.316ZM82.1419 182.396C82.7894 181.886 83.6219 182.025 84.3619 182.071C99.2086 182.907 114.055 183.696 128.902 184.532C138.615 185.089 148.327 185.646 158.086 186.156C158.549 186.203 159.011 186.296 159.52 186.342C160.445 188.199 161.185 190.102 161.74 192.423C133.388 190.566 105.267 188.756 76.638 186.899C78.5343 184.996 80.3844 183.742 82.1419 182.396ZM163.174 213.498C161.093 213.823 159.058 213.545 157.161 213.312C157.069 213.312 156.976 213.22 156.93 213.173C156.837 213.127 156.791 213.08 156.699 212.988C156.56 212.895 156.421 212.756 156.282 212.616C156.005 212.338 155.82 211.967 155.542 211.688C155.45 211.595 155.311 211.502 155.265 211.409C155.172 211.223 155.126 211.038 155.08 210.852C155.08 210.806 155.08 210.759 155.034 210.667C154.988 210.62 154.941 210.574 154.941 210.481C154.71 210.202 154.525 209.924 154.386 209.599C154.34 209.506 154.34 209.367 154.34 209.274C154.386 208.996 154.247 208.717 154.155 208.485C154.109 208.252 154.063 208.067 154.016 207.835C154.016 207.789 153.97 207.696 153.924 207.649C153.831 207.51 153.693 207.417 153.554 207.324C153.23 206.953 152.906 206.628 152.582 206.303C152.444 206.164 152.305 206.071 152.166 205.978C152.259 206.025 152.305 206.164 152.398 206.256C152.444 206.349 152.536 206.442 152.629 206.535C152.767 206.721 152.906 206.907 152.999 207.185C152.999 207.278 153.091 207.417 153.137 207.51C153.276 207.789 153.368 208.021 153.415 208.299C153.507 208.67 153.554 209.042 153.554 209.413C153.6 209.738 153.6 210.11 153.646 210.434C153.646 210.434 153.877 210.527 153.924 210.527C153.97 210.574 153.97 210.667 153.97 210.759C154.063 210.992 154.201 211.223 154.34 211.456C154.386 211.549 154.433 211.641 154.479 211.734C154.479 211.781 154.479 211.874 154.479 211.967C154.479 212.152 154.479 212.338 154.479 212.523C154.479 212.616 154.479 212.756 154.433 212.848C154.34 212.988 154.155 213.08 154.201 213.266C154.016 213.266 153.738 213.312 153.554 213.266C153.507 213.266 153.461 213.266 153.415 213.22C153.091 213.173 152.814 213.173 152.49 213.173C151.889 213.127 151.287 213.08 150.686 213.08C145.46 212.756 140.233 212.384 135.007 212.059C129.781 211.734 124.554 211.363 119.328 211.038C114.102 210.713 108.875 210.341 103.649 210.017C98.4223 209.692 93.1959 209.32 87.9696 208.996C85.3332 208.81 82.7432 208.67 80.1069 208.485C78.8118 208.392 77.4706 208.299 76.1755 208.252C75.528 208.206 74.8805 208.16 74.233 208.114C74.0942 208.114 72.3367 208.021 72.3367 207.974C72.3367 206.535 72.3367 205.143 72.3367 203.518L72.3829 203.471C72.4292 203.425 72.4292 203.425 72.4754 203.378C72.5217 203.286 72.5679 203.239 72.6142 203.147C72.7529 202.961 72.8454 202.821 72.9842 202.636C73.1229 202.45 73.3079 202.265 73.4467 202.079C73.493 201.986 73.5392 201.94 73.5854 201.847C73.678 201.754 73.8167 201.661 73.9092 201.614C74.048 201.522 74.1867 201.475 74.3255 201.382C74.603 201.243 74.8805 201.104 75.2042 201.011C75.4355 200.918 75.6667 200.872 75.898 200.918C76.083 200.965 76.268 201.058 76.4068 201.197C76.9155 201.568 77.4706 201.94 78.0718 202.079C78.2106 202.125 78.2568 201.986 78.3493 201.94C78.5806 201.707 78.8581 201.522 79.0893 201.382C79.1356 201.336 79.2281 201.29 79.2744 201.29C79.4131 201.197 79.5519 201.15 79.6906 201.058C80.2456 200.825 80.8469 200.779 81.4482 200.732C81.0319 200.593 80.5694 200.5 80.0606 200.454C79.7831 200.454 79.5056 200.454 79.2744 200.593C79.2281 200.64 79.1818 200.686 79.1818 200.686C79.1356 200.732 79.0431 200.779 78.9968 200.825C78.8581 200.918 78.7193 201.011 78.5806 201.104C78.5343 201.104 78.5343 201.15 78.4881 201.15C78.3956 201.197 78.3031 201.243 78.2568 201.336C78.2106 201.382 78.0718 201.475 77.9793 201.475C77.9331 201.475 77.8406 201.429 77.748 201.382C77.7018 201.336 77.6093 201.336 77.5631 201.29C77.4243 201.197 77.2855 201.104 77.1931 201.058C76.823 200.779 76.453 200.407 76.083 200.083C76.0367 200.036 75.9905 200.036 75.9443 199.99C75.898 199.99 75.8055 199.99 75.7593 199.99C75.6205 200.036 75.4818 200.036 75.343 200.083C75.2505 200.083 75.2042 200.129 75.1118 200.129C75.0655 200.129 75.0192 200.129 74.973 200.129C74.8342 200.129 74.6955 200.176 74.5567 200.176C74.3717 200.222 74.1405 200.269 73.9554 200.315C73.3542 200.454 72.7992 200.593 72.1979 200.779C72.1979 197.808 72.1979 194.837 72.1979 191.449C102.539 193.398 132.787 195.394 163.174 197.344C163.174 202.682 163.174 208.021 163.174 213.498ZM164.238 180.957C164.469 178.126 164.561 175.619 164.839 173.112C165.255 169.073 165.07 164.942 165.949 160.95C166.319 159.233 166.18 157.375 165.764 155.658C164.33 150.088 164.376 144.517 165.07 138.9C165.81 132.773 165.625 126.599 165.718 120.425C165.81 114.251 166.735 108.17 167.059 101.996C167.383 95.5431 167.938 89.0444 166.828 82.6847C165.949 77.6248 164.515 72.6578 163.914 67.5051C163.451 63.6986 161.555 60.542 158.595 58.0817C157.485 57.1533 156.468 56.1784 155.358 55.2036C155.08 54.9715 154.849 54.7394 154.571 54.4608C154.525 54.4144 154.479 54.4144 154.479 54.368C154.386 54.2752 154.386 54.1823 154.34 54.0431C154.617 53.9038 154.941 53.811 155.219 53.6717C155.45 53.5788 155.681 53.486 155.912 53.5324C156.005 53.5324 156.051 53.5788 156.144 53.6253C156.514 53.811 156.93 53.9502 157.3 54.1359C157.439 54.1823 157.624 54.2752 157.763 54.2752C157.947 54.2752 158.086 54.1823 158.225 54.1823C158.364 54.1359 158.549 54.1823 158.688 54.0895C158.965 53.9038 159.289 53.7645 159.659 53.6253C159.844 53.5788 160.029 53.5325 160.214 53.4396C160.26 53.4396 160.306 53.3932 160.353 53.3932C160.538 53.3932 160.723 53.4396 160.907 53.4396C161.277 53.486 161.694 53.5324 162.064 53.5788C162.064 53.5788 161.972 53.486 161.925 53.4396C161.879 53.3932 161.833 53.3932 161.74 53.3468C161.602 53.3003 161.463 53.3003 161.324 53.2539C161.277 53.2539 161.185 53.2075 161.139 53.2075C161.093 53.1611 161.046 53.1146 160.954 53.1146C160.769 53.0218 160.538 53.0218 160.353 52.9754C160.029 52.929 159.705 52.9754 159.428 53.0218C159.058 53.0682 158.688 53.2075 158.271 53.2539C158.086 53.3003 157.901 53.3003 157.716 53.3003C157.624 53.3003 157.531 53.3468 157.439 53.3468C157.346 53.3468 157.207 53.3468 157.115 53.3003C156.93 53.2075 156.791 53.1147 156.652 52.9754C156.514 52.8361 156.375 52.7433 156.282 52.604C156.236 52.5576 156.144 52.5112 156.098 52.4648C156.051 52.4183 155.959 52.4183 155.866 52.4648C155.774 52.4648 155.681 52.4648 155.589 52.4648C155.08 52.4648 154.525 52.5112 154.016 52.5112C153.738 52.5112 153.507 52.5112 153.23 52.5576C153.091 52.5576 152.999 52.5576 152.86 52.5576C152.814 52.5576 152.721 52.5576 152.629 52.5576C152.536 52.5576 152.49 52.4648 152.398 52.4648C151.935 52.0934 151.472 51.722 151.01 51.3507C150.085 50.608 149.114 49.9116 148.142 49.2617C146.2 47.9155 144.164 46.6622 141.991 45.6409C141.02 45.5481 140.233 45.0839 139.123 44.3875C140.326 44.5732 141.158 44.7125 141.991 44.8518C144.859 44.8053 147.541 45.7338 150.27 46.5693C152.398 47.2192 154.525 47.9155 156.745 48.1012C160.121 48.3333 162.758 50.1437 165.394 51.9541C167.475 53.3932 168.169 55.7606 168.816 57.9888C169.279 59.7064 167.66 60.4491 166.643 61.424V61.6096C166.643 61.7025 166.689 61.7953 166.689 61.8882C166.735 62.0738 166.828 62.2131 166.874 62.3988C167.059 62.7701 167.244 63.0951 167.383 63.4665C167.475 63.6521 167.521 63.8378 167.568 64.0235C167.614 64.2092 167.66 64.4413 167.614 64.627C167.614 64.7198 167.475 64.8127 167.429 64.8591C167.151 65.2304 166.828 65.6018 166.55 65.9268C167.29 67.6443 167.753 69.4547 167.891 71.3116C167.891 71.5901 167.938 71.8686 168.03 72.1007C168.123 72.2864 168.308 72.4721 168.446 72.6114C168.909 73.0291 169.464 73.4469 170.019 73.7254C169.927 73.679 169.834 73.5398 169.788 73.4469C169.695 73.3541 169.603 73.2612 169.556 73.1684C169.372 72.9827 169.233 72.797 169.094 72.5649C169.002 72.4257 168.816 72.2864 168.816 72.1007C168.816 71.915 168.77 71.7294 168.724 71.4972C168.678 71.2651 168.632 71.0794 168.585 70.8938C168.539 70.2439 168.4 69.6404 168.262 69.0369C168.262 68.8977 168.215 68.8049 168.169 68.6656C168.123 68.4335 168.169 68.1549 168.123 67.9229C168.077 67.4122 167.984 66.9016 167.891 66.4374C167.845 66.3446 167.845 66.2053 167.799 66.1124C167.984 65.7875 168.215 65.509 168.493 65.2769C168.632 65.1376 168.724 64.9984 168.863 64.9055C169.002 64.8127 169.14 64.6734 169.279 64.5806C169.14 64.4877 169.14 64.4413 169.14 64.3021C169.094 64.1164 169.048 63.8843 169.002 63.6986C168.955 63.5129 168.909 63.3272 168.863 63.1415C168.863 63.0487 168.816 62.9558 168.816 62.863C168.816 62.8166 168.724 62.6309 168.77 62.5845C169.279 61.5632 170.389 61.3775 170.944 60.7276C174.367 60.9598 176.263 62.7701 177.234 65.8803C178.483 69.8261 178.807 74.004 179.963 77.9497C181.952 85.0057 180.703 91.9689 180.194 98.9783C179.917 103.017 180.333 107.148 179.547 111.141C179.223 112.672 178.853 114.112 177.65 114.994C177.234 116.711 177.604 118.289 177.512 119.868C177.327 120.332 176.911 120.703 176.541 121.028C176.217 121.353 175.847 121.632 175.477 121.91C175.477 121.91 175.477 121.91 175.43 121.957C175.107 122.188 174.737 122.421 174.459 122.699C174.32 122.839 174.181 122.978 174.043 123.117C173.904 123.256 173.719 123.349 173.534 123.488C173.211 123.674 172.886 123.906 172.563 124.138C172.47 124.231 172.332 124.277 172.285 124.417C172.239 124.463 172.193 124.51 172.1 124.603C172.054 124.649 171.962 124.742 171.915 124.788C171.869 124.835 171.823 124.881 171.823 124.928C171.823 124.974 171.869 124.974 171.869 125.02C172.1 125.299 172.193 125.717 172.378 126.041C172.424 126.134 172.516 126.227 172.563 126.366C172.609 126.413 172.609 126.459 172.609 126.552C172.702 126.738 172.748 126.924 172.748 127.109C172.748 127.202 172.748 127.295 172.748 127.388C172.702 127.574 172.794 127.759 172.655 127.899C172.47 128.084 172.239 128.27 172.054 128.455C171.962 128.548 171.869 128.641 171.777 128.688C171.592 128.873 171.36 129.012 171.176 129.198C171.129 129.245 171.083 129.245 171.083 129.291C171.037 129.337 171.037 129.43 171.083 129.523C171.221 130.544 171.36 131.612 171.499 132.633C171.499 132.773 171.545 132.958 171.545 133.144C171.499 133.283 171.499 133.423 171.499 133.608C171.499 134.026 171.545 134.444 171.592 134.815C171.638 135.14 171.638 135.512 171.638 135.836C171.638 135.975 171.638 136.115 171.638 136.254C171.684 136.44 171.823 136.626 171.915 136.811C172.054 136.997 172.239 137.183 172.332 137.415C172.424 137.601 172.332 137.74 172.378 137.925C172.378 137.972 172.424 138.018 172.424 138.111C172.47 138.297 172.424 138.529 172.424 138.715C172.378 139.132 172.332 139.55 172.193 139.968C172.1 140.246 171.962 140.571 172.008 140.85C172.008 141.035 172.1 141.175 172.193 141.314C172.424 141.824 172.702 142.335 172.979 142.846C172.794 141.128 172.933 139.364 173.349 137.693C173.349 137.601 173.395 137.508 173.395 137.415C173.395 137.322 173.303 137.229 173.211 137.136C173.072 136.95 172.933 136.765 172.794 136.579C172.748 136.486 172.702 136.347 172.609 136.254C172.563 136.161 172.563 136.022 172.47 135.975C172.47 134.119 172.47 132.262 172.47 130.498C173.118 129.291 174.737 129.059 175.153 127.852C175.153 126.784 174.181 126.506 173.858 125.577C175.569 124.324 177.327 123.024 179.269 121.585C179.316 120.657 179.408 119.543 179.454 118.382C180.102 118.521 180.194 119.032 180.241 119.45C180.564 125.717 182.09 131.983 180.75 138.297C180.287 140.571 179.501 142.753 179.223 145.028C178.483 151.434 179.454 157.793 179.316 164.153C179.223 167.356 179.639 170.606 178.576 173.948C173.95 176.362 169.279 178.59 164.238 180.957ZM164.561 185.971C169.695 183.557 174.783 181.143 179.917 178.683C181.628 179.751 182.692 181.375 183.941 182.768C183.247 183.557 182.368 183.789 181.489 184.207C181.397 184.16 181.304 184.114 181.212 184.067C181.119 184.021 180.981 183.928 180.888 183.882C180.795 183.835 180.703 183.742 180.564 183.742C180.425 183.696 180.241 183.603 180.148 183.511C180.102 183.464 180.102 183.418 180.102 183.325C180.055 183.139 180.009 183 180.009 182.814C179.963 182.582 179.917 182.396 179.824 182.164C179.778 181.978 179.685 181.747 179.639 181.561C179.454 181.422 179.223 181.329 178.992 181.282C178.899 181.236 178.76 181.236 178.668 181.189C178.668 181.189 178.714 181.236 178.76 181.236C178.807 181.282 178.853 181.329 178.899 181.375C178.899 181.375 178.946 181.422 178.992 181.422C179.038 181.422 179.038 181.422 179.084 181.468C179.177 181.468 179.223 181.514 179.269 181.561C179.362 181.654 179.408 181.746 179.454 181.839C179.454 181.978 179.501 182.118 179.501 182.304C179.501 182.629 179.547 183 179.501 183.325C179.501 183.511 179.501 183.65 179.454 183.835C179.454 183.882 179.454 183.928 179.454 184.021C179.454 184.114 179.547 184.114 179.639 184.16C179.778 184.207 179.871 184.346 179.917 184.439C179.963 184.532 180.009 184.625 179.963 184.717C179.963 184.81 179.917 184.903 179.871 184.949C179.778 185.135 179.639 185.228 179.454 185.321C179.038 185.507 178.622 185.738 178.252 185.971C174.551 187.92 170.851 189.916 166.967 191.959C165.903 190.056 165.255 188.153 164.561 185.971ZM185.745 201.893C179.917 205.374 174.089 208.856 168.03 212.43C168.03 206.953 168.03 201.94 168.03 196.694C172.748 194.187 177.419 191.727 182.137 189.267C182.276 189.452 182.368 189.684 182.415 189.916C182.46 190.056 182.415 190.242 182.415 190.381C182.415 190.474 182.368 190.52 182.322 190.613C182.322 190.659 182.276 190.705 182.229 190.798C182.183 190.845 182.09 190.938 182.044 190.984C181.952 191.031 181.906 191.123 181.813 191.216C181.72 191.309 181.628 191.449 181.582 191.541C181.536 191.587 181.489 191.634 181.489 191.727C181.443 191.773 181.397 191.866 181.397 191.959C181.258 192.191 181.119 192.47 180.934 192.702C180.842 192.794 180.75 192.934 180.75 193.073C180.75 193.12 180.75 193.166 180.795 193.212C180.795 193.259 180.795 193.352 180.795 193.398C180.795 193.584 180.795 193.816 180.795 194.002C180.795 194.141 180.795 194.28 180.795 194.42C180.795 194.651 180.795 194.837 180.795 195.023C180.795 195.348 180.842 195.626 180.842 195.951C180.842 196.183 180.795 196.508 180.657 196.694C180.611 196.74 180.564 196.787 180.518 196.833C180.518 196.833 180.472 196.88 180.472 196.926C180.472 196.972 180.425 196.972 180.379 197.019C180.055 197.39 179.639 197.669 179.223 197.947C179.501 197.901 179.778 197.854 180.009 197.715C180.194 197.622 180.379 197.483 180.611 197.39C180.657 197.39 180.703 197.298 180.795 197.298C180.795 197.298 180.795 197.298 180.842 197.298C180.934 197.158 180.981 197.019 181.073 196.833C181.119 196.787 181.119 196.694 181.166 196.601C181.212 196.508 181.212 196.462 181.258 196.369C181.258 196.323 181.304 196.276 181.304 196.23C181.351 196.044 181.397 195.858 181.489 195.673C181.536 195.58 181.536 195.487 181.582 195.394C181.582 195.348 181.628 195.301 181.628 195.209C181.628 195.116 181.628 195.023 181.674 194.976C181.674 194.883 181.72 194.791 181.813 194.744C181.859 194.744 181.859 194.744 181.906 194.744C181.998 194.744 182.137 194.744 182.229 194.791C182.276 194.791 182.322 194.837 182.368 194.883C182.46 194.93 182.553 195.023 182.599 195.069C182.738 195.209 182.923 195.301 183.062 195.487C183.108 195.533 183.154 195.58 183.201 195.626C183.293 195.719 183.386 195.812 183.478 195.951C183.524 195.998 183.524 196.044 183.571 196.091C183.571 196.137 183.571 196.183 183.571 196.183C183.571 196.369 183.571 196.508 183.524 196.694C183.524 196.787 183.524 196.88 183.478 196.926C183.478 197.019 183.432 197.065 183.432 197.158C183.432 197.251 183.386 197.39 183.386 197.529C183.339 197.762 183.293 197.994 183.293 198.226C183.247 198.458 183.201 198.69 183.154 198.922C183.154 199.015 183.108 199.108 183.062 199.201C183.062 199.294 183.016 199.433 183.016 199.525C182.969 199.758 182.969 199.943 182.923 200.176C182.923 200.269 182.877 200.407 182.831 200.5C182.831 200.547 182.692 200.779 182.692 200.779C182.831 200.965 183.016 201.15 183.201 201.336C183.247 201.382 183.293 201.382 183.339 201.429C183.386 201.475 183.432 201.475 183.432 201.522C183.432 201.522 183.432 201.522 183.478 201.522C183.524 201.522 183.571 201.568 183.571 201.568C183.663 201.614 183.755 201.707 183.802 201.754C183.802 201.707 183.755 201.661 183.755 201.661C183.709 201.614 183.663 201.568 183.663 201.522C183.617 201.475 183.617 201.429 183.617 201.382C183.571 201.29 183.478 201.197 183.386 201.058C183.339 200.965 183.247 200.872 183.201 200.732C183.154 200.593 183.201 200.5 183.201 200.361C183.293 199.851 183.386 199.34 183.478 198.783C183.524 198.597 183.524 198.411 183.663 198.226C183.755 198.04 183.755 197.762 183.802 197.576C183.802 197.529 183.802 197.483 183.802 197.436C183.802 197.39 183.802 197.344 183.802 197.344C183.802 197.251 183.802 197.205 183.802 197.112C183.802 196.972 183.848 196.833 183.894 196.647C183.987 196.369 184.08 196.044 184.033 195.719C184.033 195.719 184.033 195.719 184.033 195.673L183.941 195.626C183.894 195.626 183.894 195.58 183.848 195.58C183.802 195.533 183.709 195.487 183.617 195.441C183.524 195.394 183.478 195.348 183.432 195.301C183.386 195.255 183.293 195.209 183.247 195.162C183.201 195.069 183.062 194.93 183.016 194.883C182.923 194.791 182.785 194.651 182.692 194.558C182.46 194.373 182.229 194.187 182.044 193.955C182.044 193.816 182.044 193.63 182.044 193.491C182.044 193.398 182.044 193.352 182.044 193.259C182.044 193.12 182.044 192.934 182.137 192.794C182.183 192.702 182.183 192.655 182.229 192.609C182.229 192.562 182.276 192.562 182.276 192.516C182.415 192.284 182.553 192.052 182.738 191.82C183.524 190.891 183.987 189.824 183.894 188.524C184.403 188.153 184.912 187.735 185.791 187.781C186.068 192.331 185.883 197.065 185.745 201.893Z" fill="#847F88" stroke="black" stroke-width="2" stroke-miterlimit="10"/>
<path d="M129.087 112.721C127.977 114.392 127.885 116.667 128.671 118.524C128.902 119.081 129.226 119.591 129.735 119.917C130.752 120.52 132.047 119.963 133.111 119.406C134.499 118.663 135.933 117.781 136.488 116.295C136.904 115.228 136.719 113.975 136.21 112.953C135.933 112.303 135.516 111.746 135.054 111.235C134.73 110.911 134.452 110.493 133.944 110.446C132.787 110.261 131.538 110.632 130.567 111.235C129.966 111.653 129.457 112.164 129.087 112.721Z" fill="#6B00FA" stroke="black" stroke-width="0.5" stroke-miterlimit="10"/>
<path d="M108.043 113.044C107.673 113.694 107.396 114.39 107.349 115.133C107.257 116.386 107.858 117.547 108.413 118.661C108.506 118.893 108.644 119.125 108.829 119.264C109.014 119.403 109.246 119.45 109.477 119.496C111.789 119.821 114.194 118.893 115.675 117.083C115.952 116.711 116.183 116.34 116.322 115.922C116.507 115.272 116.507 114.622 116.461 113.972C116.415 113.044 116.322 111.976 115.628 111.326C115.305 111.001 114.888 110.769 114.472 110.583C113.963 110.305 113.362 109.98 112.807 109.794C112.391 109.701 111.882 109.841 111.512 109.98C110.541 110.305 109.708 110.955 109.014 111.698C108.829 111.93 108.644 112.116 108.459 112.347C108.367 112.487 108.274 112.58 108.228 112.719C108.182 112.812 108.136 112.951 108.043 113.044Z" fill="#6B00FA" stroke="black" stroke-width="0.5" stroke-miterlimit="10"/>
<path d="M130.983 120.333C130.521 120.287 130.058 120.194 129.596 120.101C129.411 119.822 129.272 119.591 129.133 119.312C128.994 119.033 128.948 118.801 128.81 118.523C128.532 117.965 128.393 117.409 128.301 116.805C128.116 115.459 128.347 114.066 129.041 112.952C129.734 111.838 130.845 110.909 132.093 110.492C132.602 110.306 133.203 110.213 133.758 110.399C134.128 110.492 134.406 110.724 134.684 111.002C134.822 111.142 134.961 111.281 135.054 111.42C135.146 111.56 135.285 111.699 135.377 111.838C135.238 111.838 135.1 111.792 134.961 111.792C134.822 111.792 134.637 111.745 134.498 111.745C131.77 111.745 129.503 113.973 129.503 116.758C129.503 118.151 130.058 119.405 130.983 120.333Z" fill="#272F49"/>
<path d="M108.968 119.544C108.922 119.544 108.783 119.265 108.783 119.219C108.737 119.127 108.644 118.987 108.598 118.848C108.505 118.616 108.367 118.337 108.32 118.105C108.228 117.827 108.228 117.594 108.135 117.316C108.043 116.991 107.95 116.666 107.858 116.341C107.673 115.691 107.58 115.041 107.673 114.345C107.765 113.231 108.367 112.163 109.199 111.374C110.032 110.585 111.095 110.074 112.205 109.842C112.575 109.749 112.946 109.703 113.362 109.796C113.824 109.889 114.24 110.167 114.564 110.538C114.749 110.724 114.888 110.91 115.027 111.096C115.073 111.189 115.166 111.281 115.073 111.374C115.027 111.42 114.98 111.42 114.934 111.42C114.796 111.42 114.61 111.374 114.472 111.374C114.333 111.374 114.148 111.328 114.009 111.328C111.28 111.328 109.014 113.556 109.014 116.341C109.014 117.687 109.523 118.894 110.402 119.823C110.309 119.776 108.968 119.544 108.968 119.544Z" fill="#272F49"/>
<path d="M111.003 120.842C107.488 120.842 104.62 117.964 104.62 114.436C104.62 110.908 107.488 108.03 111.003 108.03C114.518 108.03 117.385 110.908 117.385 114.436C117.385 117.964 114.518 120.842 111.003 120.842ZM111.003 109.887C108.505 109.887 106.47 111.93 106.47 114.436C106.47 116.943 108.505 118.986 111.003 118.986C113.5 118.986 115.535 116.943 115.535 114.436C115.535 111.93 113.5 109.887 111.003 109.887Z" fill="black"/>
<path d="M131.538 121.307C128.023 121.307 125.156 118.429 125.156 114.901C125.156 111.373 128.023 108.495 131.538 108.495C135.054 108.495 137.921 111.373 137.921 114.901C137.921 118.429 135.054 121.307 131.538 121.307ZM131.538 110.352C129.041 110.352 127.006 112.395 127.006 114.901C127.006 117.408 129.041 119.451 131.538 119.451C134.036 119.451 136.071 117.408 136.071 114.901C136.071 112.395 134.036 110.352 131.538 110.352Z" fill="black"/>
<path d="M108.043 118.569C107.395 117.594 107.071 116.48 107.071 115.365C107.071 112.069 109.708 109.424 112.991 109.424C113.038 109.424 113.13 109.424 113.176 109.424C113.547 109.795 113.917 110.12 114.194 110.491C113.778 110.398 113.408 110.352 112.991 110.352C110.263 110.352 107.996 112.58 107.996 115.365C107.996 116.712 108.505 117.919 109.384 118.847L108.043 118.569Z" fill="black"/>
<path d="M130.058 119.357C129.596 119.311 129.133 119.219 128.671 119.126C128.023 118.151 127.653 116.99 127.653 115.783C127.653 112.627 130.15 110.027 133.249 109.841L134.452 110.816C134.175 110.77 133.85 110.723 133.527 110.723C130.798 110.723 128.532 112.952 128.532 115.737C128.578 117.176 129.133 118.429 130.058 119.357Z" fill="black"/>
</g>
<defs>
<radialGradient id="paint0_radial_1093_641" cx="0" cy="0" r="1" gradientUnits="userSpaceOnUse" gradientTransform="translate(128 128) rotate(90) scale(128)">
<stop/>
<stop offset="1" stop-color="#666666"/>
</radialGradient>
</defs>
</svg>
