<svg width="256" height="256" viewBox="0 0 256 256" fill="none" xmlns="http://www.w3.org/2000/svg">
<g clip-path="url(#clip0_2306_1294)">
<path fill-rule="evenodd" clip-rule="evenodd" d="M128 14C190.965 14 242 65.0351 242 128C242 190.965 190.965 242 128 242C65.0351 242 14 190.965 14 128C14 65.0351 65.0351 14 128 14Z" fill="white"/>
<path d="M170.948 119.813H84.8557C83.9732 119.813 83.2871 120.499 83.2871 121.381V135.893C83.2871 136.776 83.9732 137.462 84.8557 137.462H117.508V181.685C117.508 182.567 118.195 183.253 119.078 183.253H136.923C137.805 183.253 138.492 182.567 138.492 181.685V137.462H171.143C172.026 137.462 172.712 136.776 172.712 135.893V121.381C172.517 120.499 171.831 119.813 170.948 119.813ZM127.901 99.2216C135.256 99.2216 141.139 93.2391 141.139 85.9839C141.139 78.6291 135.158 72.7461 127.901 72.7461C120.548 72.7461 114.665 78.7273 114.665 85.9839C114.658 87.7242 114.995 89.4487 115.658 91.0579C116.32 92.6672 117.295 94.1293 118.526 95.36C119.756 96.5906 121.218 97.5655 122.827 98.2282C124.437 98.891 126.161 99.2287 127.901 99.2216Z" fill="black"/>
<path fill-rule="evenodd" clip-rule="evenodd" d="M127.999 226.508C182.404 226.508 226.508 182.405 226.508 127.999C226.508 73.5949 182.404 29.4903 127.999 29.4903C73.5945 29.4903 29.4898 73.5949 29.4898 127.999C29.4898 182.405 73.5945 226.508 127.999 226.508ZM127.999 254C197.588 254 254 197.588 254 127.999C254 58.4117 197.588 1.99951 127.999 1.99951C58.4112 1.99951 1.99902 58.4117 1.99902 127.999C1.99902 197.588 58.4112 254 127.999 254Z" fill="black"/>
</g>
<defs>
<clipPath id="clip0_2306_1294">
<rect width="256" height="256" fill="white"/>
</clipPath>
</defs>
</svg>
