<svg width="257" height="257" viewBox="0 0 257 257" fill="none" xmlns="http://www.w3.org/2000/svg">
<path d="M256.107 128.808C256.107 199.5 198.8 256.808 128.108 256.808C57.415 256.808 0.107422 199.5 0.107422 128.808C0.107422 58.1152 57.415 0.807617 128.108 0.807617C198.8 0.807617 256.107 58.1152 256.107 128.808Z" fill="#1D2229"/>
<path d="M104.279 117.106H80.7354V140.651H104.279V117.106Z" fill="white"/>
<path d="M80.7355 93.5649H57.1914V117.11L80.7355 117.106V93.5649Z" fill="white"/>
<path d="M57.1921 117.11L33.6475 117.106V140.651H57.1916L57.1921 117.11Z" fill="white"/>
<path d="M80.736 140.651H57.1914L57.1919 164.194H80.736V140.651Z" fill="white"/>
<path d="M213.506 98.7213C211.874 81.4631 197.181 75.67 178.624 74.0158V62.9612H164.254V73.3848C160.479 73.3848 156.618 73.4585 152.779 73.5321V62.9526H138.418V74.0029C135.308 74.0631 116.196 74.0459 116.196 74.0459L116.153 86.889L128.144 86.9584V171.132H116.158L116.051 183.793C119.533 183.793 135.026 183.863 138.384 183.884V194.796H152.745V184.143C156.682 184.23 160.5 184.264 164.225 184.26V194.801H178.598V183.936C202.764 182.541 219.685 176.376 221.786 153.377C223.49 134.853 214.899 126.593 201.183 123.233C209.517 118.913 214.729 111.348 213.514 98.717L213.506 98.7213ZM193.372 150.487C193.372 168.583 162.814 166.514 153.064 166.518V134.438C162.81 134.438 193.355 131.617 193.359 150.487H193.372ZM186.703 105.223C186.703 121.686 161.203 119.755 153.086 119.755V90.6559C161.216 90.6602 186.711 88.051 186.703 105.223Z" fill="white"/>
</svg>
