<svg width="256" height="256" viewBox="0 0 256 256" fill="none" xmlns="http://www.w3.org/2000/svg">
<g clip-path="url(#clip0_2069_1132)">
<mask id="mask0_2069_1132" style="mask-type:luminance" maskUnits="userSpaceOnUse" x="0" y="0" width="256" height="256">
<path d="M256 0H0V256H256V0Z" fill="white"/>
</mask>
<g mask="url(#mask0_2069_1132)">
<path d="M128 256C198.692 256 256 198.692 256 128C256 57.3076 198.692 0 128 0C57.3076 0 0 57.3076 0 128C0 198.692 57.3076 256 128 256Z" fill="white"/>
<path d="M152.828 56.8277L176 80.0001L207.449 71.7242L184.277 48.5518L159.117 55.1724L152.828 56.8277Z" fill="#1A1A1A"/>
<path d="M144.551 32H111.448L98.5747 55.1724L94.8965 61.7931H128L144.551 32Z" fill="#1A1A1A"/>
<path d="M224.001 144.552V111.449L200.625 99.073L195.863 96.5518V128L224.001 144.552Z" fill="#1A1A1A"/>
<path d="M199.172 152.828L176 176L184.276 207.448L207.449 184.276L200.624 158.344L199.172 152.828Z" fill="#1A1A1A"/>
<path d="M128 195.862L111.448 224H144.551L158.425 200.414L161.103 195.862H128Z" fill="#1A1A1A"/>
<path d="M78.3449 176L48.5518 184.276L70.0691 207.449L98.207 200.414L103.172 199.172L78.3449 176Z" fill="#1A1A1A"/>
<path d="M60.1379 128L32 111.449V144.552L55.4483 158.345L60.1379 161.103V128Z" fill="#1A1A1A"/>
<path d="M56.8277 101.517L78.3449 80.0001L70.0691 48.5518L48.5518 71.7242L55.4484 96.5518L56.8277 101.517Z" fill="#1A1A1A"/>
<path d="M144.551 88.2758L152.828 56.8276L159.117 55.1724L144.551 32L128 61.7931L144.551 88.2758Z" fill="#787878"/>
<path d="M167.725 111.448L195.863 96.5516L200.625 99.0729L207.449 71.7241L176.001 80L167.725 111.448Z" fill="#787878"/>
<path d="M167.725 144.551L199.173 152.828L200.625 158.345L224.001 144.551L195.863 128L167.725 144.551Z" fill="#787878"/>
<path d="M144.552 167.724L161.103 195.862L158.426 200.414L184.277 207.448L176 176L144.552 167.724Z" fill="#787878"/>
<path d="M109.793 167.724L103.172 199.172L98.207 200.414L111.449 224L128 195.862L109.793 167.724Z" fill="#787878"/>
<path d="M88.2759 144.551L60.138 161.103L55.4484 158.344L48.5518 184.276L78.3449 176L88.2759 144.551Z" fill="#787878"/>
<path d="M88.2758 111.449L56.8276 101.517L55.4483 96.5518L32 111.449L60.1379 128L88.2758 111.449Z" fill="#787878"/>
<path d="M70.0693 48.5518L78.3452 80.0001L109.793 88.2759L94.8969 61.7931L98.575 55.1724L70.0693 48.5518Z" fill="#787878"/>
<path d="M78.3444 80L56.8271 101.517L88.2754 111.449L109.793 88.2758L78.3444 80Z" fill="#CBCBCB"/>
<path d="M109.793 88.2757H144.551L128 61.793H94.8965L109.793 88.2757Z" fill="#CBCBCB"/>
<path d="M167.723 111.449L175.999 80L152.827 56.8276L144.551 88.2758L167.723 111.449Z" fill="#CBCBCB"/>
<path d="M167.723 111.449V144.552L195.861 128V96.5518L167.723 111.449Z" fill="#CBCBCB"/>
<path d="M167.723 144.551L144.551 167.724L175.999 176L199.172 152.828L167.723 144.551Z" fill="#CBCBCB"/>
<path d="M109.793 167.724L128 195.862H161.103L144.551 167.724H109.793Z" fill="#CBCBCB"/>
<path d="M88.2757 144.551L78.3447 176L103.172 199.172L109.793 167.724L88.2757 144.551Z" fill="#CBCBCB"/>
<path d="M88.2756 111.449L60.1377 128V161.103L88.2756 144.552V111.449Z" fill="#CBCBCB"/>
</g>
</g>
<defs>
<clipPath id="clip0_2069_1132">
<rect width="256" height="256" fill="white"/>
</clipPath>
</defs>
</svg>
