<svg width="256" height="256" viewBox="0 0 256 256" fill="none" xmlns="http://www.w3.org/2000/svg">
<path d="M128.001 250.541C195.678 250.541 250.542 195.677 250.542 128C250.542 60.3224 195.678 5.45898 128.001 5.45898C60.3232 5.45898 5.45996 60.3224 5.45996 128C5.45996 195.677 60.3232 250.541 128.001 250.541Z" fill="#DEFB48"/>
<path fill-rule="evenodd" clip-rule="evenodd" d="M115.141 249.911V120.711H71.7831V79.7048H110.743L154.728 123.865V247.536C156.204 247.203 157.671 246.844 159.126 246.457V168.658L202.485 123.865V75.9197H130.851L120.796 83.49L113.256 75.9197H66.756L5.45898 137.46C9.97267 196.578 56.4351 243.964 115.141 249.911ZM198.714 79.7048H139.648L178.606 118.818H198.714V79.7048Z" fill="#0B0A15"/>
</svg>
