<svg width="256" height="256" viewBox="0 0 256 256" fill="none" xmlns="http://www.w3.org/2000/svg">
<g clip-path="url(#clip0_2466_339)">
<path d="M128 256C198.692 256 256 198.692 256 128C256 57.3076 198.692 0 128 0C57.3076 0 0 57.3076 0 128C0 198.692 57.3076 256 128 256Z" fill="#0C0B0B"/>
<path d="M227.758 127.106C227.417 126.764 227.013 126.424 226.329 126.764C226.329 126.764 220.551 128.872 214.807 127.446C212.632 127.106 210.863 126.02 209.06 124.936C206.171 123.171 203.656 121.714 199.338 121.372C196.449 121.001 193.934 122.425 192.131 123.511C189.988 124.564 188.156 125.649 186.013 125.307C182.038 124.564 179.552 122.767 177.037 121.341C174.831 120.257 172.719 118.8 169.83 118.118C167.346 117.436 165.171 117.436 163.369 117.436C168.027 114.615 171.6 114.957 175.575 115.297C178.433 115.701 181.321 115.701 184.551 114.957C189.955 113.501 191.415 110.278 192.844 107.766C193.93 105.936 194.644 104.482 196.073 103.8C198.217 102.716 200.048 103.056 202.192 103.056C204.335 103.46 206.85 103.46 210.082 102.374C217.66 99.8332 219.804 91.2162 219.804 90.8762C219.804 90.5362 219.399 89.7924 219.058 89.4503C218.716 89.1103 217.972 89.1103 217.629 89.4503C217.629 89.4503 212.94 93.7588 207.193 94.4409C205.05 94.7829 202.875 94.4409 200.732 94.1009C197.502 93.7609 194.271 93.0171 190.296 94.4409C187.438 95.1229 185.978 97.2926 184.549 99.0894C183.12 100.917 181.722 102.716 179.548 103.056C175.573 104.14 172.715 103.398 169.826 103.056C167.342 102.716 164.824 102.034 161.936 102.716C159.761 103.087 157.992 103.831 156.189 104.513C159.418 100.204 162.681 99.1512 166.253 98.0653C168.738 97.3833 171.626 96.6394 174.144 94.5006C178.399 91.2471 178.802 87.6824 179.145 84.7997C179.145 83.0339 179.488 81.5771 180.574 80.1512C182.405 78.3544 183.834 77.6106 185.978 76.9286C188.183 76.1847 190.667 75.0988 193.185 72.9621C198.931 67.5697 197.843 58.9526 197.843 58.6127C197.843 58.2088 197.438 57.5288 196.757 57.5288C196.011 57.5288 195.671 57.5288 195.328 58.2109C195.328 58.5508 192.782 63.9453 187.781 66.8279C185.637 67.8809 183.806 68.6247 181.662 68.9667C178.804 69.7106 175.575 70.3926 172.343 73.2753C169.859 75.072 169.454 77.5838 168.771 79.7226C168.399 81.8923 167.684 83.6891 165.882 85.115C162.652 87.2538 159.794 87.9976 156.905 88.6797C154.359 89.4235 151.873 89.7635 149.358 91.5623C147.246 93.0191 145.445 94.1029 144.357 95.5288C145.443 90.1365 148.301 87.9976 151.19 85.4859C153.333 83.6891 155.507 81.9212 157.308 79.0385C160.135 74.0171 158.675 70.7944 157.992 67.9118C157.651 66.1459 156.967 64.72 157.651 62.9212C158.737 60.4424 160.197 59.3565 161.626 57.9306C163.055 56.1339 165.198 54.708 166.627 51.4833C170.2 44.2921 165.882 36.7609 165.541 36.4209C165.2 35.7389 164.796 35.7389 164.112 35.7389C163.367 36.0789 163.026 36.4828 163.026 37.1648C163.026 37.1648 162.621 43.2701 159.051 47.9186C157.622 49.7154 156.193 50.8013 154.392 52.2271C151.877 54.0239 149.36 56.1936 147.559 59.7583C146.131 62.641 146.473 65.1507 146.814 67.2895C147.219 69.4283 147.219 71.2251 146.131 73.3948C143.956 76.6483 141.813 78.4163 139.298 80.213C137.528 81.6389 135.354 83.0957 133.551 85.6054C132.091 87.4351 131.345 89.201 130.662 90.9978C129.948 85.9454 131.376 82.7227 133.177 79.498C134.263 76.9574 135.723 74.4456 136.066 71.223C136.811 65.7997 134.296 62.948 132.494 60.8092C131.438 59.3833 130.35 58.2995 130.35 56.5006C130.35 53.96 131.065 52.1921 132.151 50.3953C133.237 48.2565 134.325 46.1486 134.666 42.5221C135.038 34.6489 128.174 29.5986 127.833 29.2565C127.492 28.9145 126.747 28.9145 126.404 29.2565C126.063 29.5965 125.721 30.0004 126.063 30.6824C126.063 30.6824 128.176 36.4477 126.747 42.1801C126.001 44.3498 124.946 46.1157 123.858 47.9145C122.026 50.7971 120.566 53.3068 120.224 57.6154C119.85 60.498 121.279 63.0077 122.367 64.8066C123.422 66.9454 124.511 68.7731 124.168 70.9119C123.422 74.8784 121.622 77.3592 120.193 79.8689C119.138 82.0695 117.647 84.1775 116.963 87.0601C116.218 89.5389 116.218 91.7086 116.218 93.5075C113.391 88.8589 113.734 85.2943 114.074 81.3278C114.479 78.476 114.479 75.5934 113.731 72.3707C112.272 66.9783 109.042 65.5216 106.525 64.0957C104.724 63.0119 103.233 62.2989 102.55 60.873C101.464 58.7342 101.804 56.9066 101.804 54.7677C102.209 52.6289 102.209 50.1192 101.121 46.8945C98.5747 39.3324 89.9391 37.1936 89.5984 37.1936C89.2577 37.1936 88.5123 37.5975 88.1695 37.9375C87.8267 38.2775 87.8267 39.0213 88.1695 39.3634C88.1695 39.3634 92.4253 44.0428 93.1708 49.7772C93.5115 51.916 93.1708 54.0857 92.8301 56.2245C92.4253 59.4472 91.7439 62.6719 93.1708 66.6384C93.8543 69.4901 96.0287 70.9469 97.8293 72.3728C99.6609 73.7986 101.464 75.2245 101.804 77.3633C102.89 81.3298 102.145 84.1816 101.804 87.0642C101.464 89.543 100.78 92.0548 101.464 94.9375C101.835 97.1072 102.581 98.873 103.264 100.672C98.9464 97.4492 97.8912 94.1936 96.803 90.6289C96.1195 88.1501 95.3741 85.2675 93.2307 82.7557C89.9701 78.4472 86.3977 78.1072 83.5089 77.7651C81.7392 77.7651 80.2793 77.4231 78.8504 76.3393C77.0497 74.5116 76.3043 73.0857 75.6208 70.9469C74.8753 68.7463 73.7892 66.2675 71.6457 63.7557C66.2418 58.0213 57.6062 59.1072 57.2654 59.1072C56.9247 59.1072 56.1793 59.4492 56.1793 60.191C55.8365 60.9349 56.1793 61.2748 56.9247 61.6169C56.9247 61.6169 62.3287 64.1575 65.2176 67.7222C66.3037 69.861 67.0492 71.6887 67.392 73.8275C68.1374 76.6792 68.8209 79.9019 71.7098 83.1245C73.5104 85.6033 76.0276 86.0072 78.171 86.6892C80.3454 87.0601 82.146 87.7731 83.575 89.5719C85.7184 92.7945 86.4638 95.6463 87.1473 98.5289C87.8618 101.07 88.2335 103.55 90.0362 106.06C91.4961 108.168 92.5823 109.965 94.0112 111.051C88.6072 109.967 86.4638 107.115 83.9466 104.232C82.146 102.094 80.3743 99.9239 77.4854 98.1271C72.4531 95.3063 69.2236 96.7013 66.3347 97.4451C64.565 97.7851 63.1361 98.4671 61.3334 97.7851C58.8493 96.7013 57.761 95.2445 56.3321 93.8186C54.5314 92.3927 53.1025 90.2539 49.8709 88.828C42.6642 85.2633 35.1168 89.5719 34.7761 89.9119C34.0926 90.2518 34.0926 90.6557 34.0926 91.3377C34.4333 92.0816 34.838 92.4216 35.5215 92.4216C35.5215 92.4216 41.64 92.8254 46.2985 96.3881C48.0991 97.8139 49.1874 99.2398 50.6163 101.037C52.4169 103.546 54.5913 106.058 58.1637 107.855C61.0526 109.281 63.5677 108.877 65.7111 108.537C67.8545 108.197 69.6861 108.197 71.8295 109.281C75.0901 111.45 76.8618 113.589 78.6624 116.099C80.0914 117.865 81.5513 120.035 84.0664 121.833C85.9001 123.29 87.6697 124.034 89.4704 124.716C84.4071 125.429 81.1775 124.003 77.9459 122.206C75.3998 121.122 72.8827 119.666 69.6531 119.324C64.2181 118.58 61.3602 121.089 59.2168 122.888C57.7879 123.941 56.7017 125.027 54.899 125.027C52.3529 125.027 50.5812 124.314 48.7806 123.23C46.6371 122.147 44.4628 121.061 40.8904 120.721C32.6595 120.35 27.5963 127.199 27.2555 127.539C26.9148 127.879 26.9148 128.623 27.2555 128.965C27.5983 129.305 27.939 129.647 28.6845 129.305C28.6845 129.305 34.4622 127.197 40.209 128.623C42.3834 128.996 44.153 130.049 45.9557 131.132C48.8446 132.898 51.3597 134.355 55.6775 134.697C58.5664 135.068 61.0815 133.644 62.8842 132.558C65.0276 131.505 66.4875 130.419 69.0026 130.762C72.9776 131.505 75.4638 133.302 77.9789 134.728C80.1843 135.812 82.2968 137.269 85.1856 137.951C87.6697 138.633 89.8441 138.633 91.6468 138.633C86.9883 141.484 83.416 141.142 79.4409 140.802C76.583 140.46 73.6942 140.46 70.4646 141.142C65.0606 142.599 63.6007 145.822 62.1718 148.334C61.0856 150.161 60.3711 151.618 58.9422 152.3C56.7988 153.384 54.9672 153.044 52.8237 153.044C50.6803 152.64 48.1652 152.64 44.9336 153.726C37.3552 156.267 35.2118 164.884 35.2118 165.224C35.2118 165.564 35.5546 166.307 35.8953 166.65C36.236 166.992 36.9814 166.992 37.3242 166.65C37.3242 166.65 42.0137 162.341 47.7605 161.659C49.9039 161.319 52.0783 161.659 54.2217 162.001C57.4513 162.341 60.6829 163.085 64.658 161.659C67.5158 160.977 68.9758 158.807 70.4047 157.01C71.8337 155.183 73.2626 153.384 75.406 153.044C79.381 151.96 82.2389 152.704 85.1278 153.044C87.6119 153.386 90.1291 154.128 93.018 153.386C95.1924 153.013 96.962 152.269 98.7647 151.589C95.5351 155.898 92.2725 156.951 88.7002 158.037C86.216 158.719 83.3272 159.462 80.81 161.601C76.4922 164.855 76.1515 168.419 75.8087 171.302C75.8087 173.068 75.468 174.525 74.3797 175.951C72.5481 177.747 71.1192 178.491 68.9758 179.173C66.7704 179.917 64.2863 180.97 61.7691 183.14C56.0223 188.532 57.1106 197.149 57.1106 197.489C57.1106 197.829 57.5153 198.573 58.1967 198.573C58.9422 198.573 59.2829 198.573 59.6257 197.829C59.6257 197.489 62.1718 192.095 67.1731 189.212C69.3165 188.159 71.1481 187.415 73.2915 187.073C76.1494 186.329 79.379 185.647 82.6106 182.765C85.0948 180.968 85.4375 178.456 86.183 176.317C86.5547 174.148 87.2692 172.351 89.0719 170.925C92.3014 168.786 95.1593 168.042 98.0482 167.36C100.594 166.647 103.08 166.277 105.596 164.478C107.708 163.021 109.509 161.937 110.597 160.511C109.511 165.904 106.653 168.042 103.764 170.554C101.621 172.351 99.4462 174.119 97.6455 177.002C94.7876 182.023 96.2785 185.246 96.962 188.128C97.3027 189.894 98.0482 191.32 97.3027 193.119C96.2166 195.598 94.7567 196.684 93.3277 198.109C91.8988 199.906 89.7554 201.332 88.3264 204.557C84.754 211.748 89.0718 219.279 89.4126 219.619C89.7533 220.363 90.0961 220.363 90.8415 220.363C91.587 220.363 91.9277 219.959 91.9277 219.279C91.9277 219.279 92.3324 213.174 95.9027 208.525C97.3317 206.729 98.7606 205.643 100.561 204.217C103.076 202.42 105.594 200.25 107.394 196.686C108.823 193.803 108.418 191.293 108.078 189.154C107.737 187.016 107.737 185.188 108.823 183.049C110.997 179.796 113.141 178.028 115.656 176.231C117.426 174.805 119.6 173.348 121.403 170.839C122.863 169.011 123.546 167.243 124.292 165.446C125.006 170.499 123.577 173.721 121.777 176.944C120.69 179.484 119.23 181.996 118.888 185.219C118.142 190.642 120.657 193.494 122.46 195.633C123.546 197.059 124.634 198.142 124.634 199.941C124.634 202.482 123.92 204.25 122.834 206.047C121.748 208.185 120.659 210.355 120.319 213.92C119.573 222.133 126.437 227.185 126.78 227.525C126.78 227.867 127.123 227.867 127.463 227.867C127.804 227.867 128.209 227.867 128.271 227.713C128.611 227.373 128.954 227.031 128.611 226.287C128.611 226.287 126.437 220.522 127.866 214.789C128.611 212.681 129.667 210.854 130.755 209.055C132.525 206.172 133.984 203.662 134.327 199.354C134.699 196.471 133.272 193.962 132.184 192.163C131.065 190.024 130.04 188.196 130.383 186.057C131.129 182.091 132.929 179.61 134.358 177.1C135.444 174.9 136.904 172.792 137.588 169.909C138.333 167.43 138.333 165.261 138.333 163.462C141.16 168.11 140.817 171.675 140.477 175.642C140.072 178.493 140.072 181.376 140.817 184.599C142.277 189.991 145.507 191.448 148.024 192.874C149.856 193.957 151.316 194.67 151.999 196.096C153.023 198.235 152.683 200.063 152.683 202.202C152.278 204.34 152.278 206.85 153.366 210.075C155.912 217.637 164.548 219.776 164.889 219.776C165.603 219.776 165.944 219.776 167.032 219.094C167.373 218.754 167.373 218.01 167.032 217.668C167.032 217.668 162.776 212.988 162.031 207.254C161.69 205.115 162.031 202.945 162.373 200.807C162.778 197.584 163.46 194.359 162.031 190.393C161.347 187.541 159.173 186.084 157.372 184.658C155.538 183.233 153.738 181.807 153.397 179.668C152.311 175.701 153.054 172.85 153.397 169.967C153.738 167.488 154.483 164.976 153.738 162.094C153.366 159.986 152.619 158.158 151.937 156.359C156.224 159.582 157.31 162.838 158.398 166.402C159.082 168.881 159.827 171.764 161.971 174.275C165.231 178.646 168.804 178.986 171.693 179.328C173.462 179.328 174.922 179.668 176.351 180.754C178.152 182.581 178.897 184.007 179.581 186.146C180.326 188.347 181.381 190.825 183.556 193.337C188.96 199.072 197.595 197.986 197.936 197.986C198.341 197.986 199.022 197.582 199.022 196.902C199.022 196.222 199.022 195.818 198.339 195.476C197.998 195.476 192.592 192.935 189.703 187.945C188.648 185.806 187.902 184.009 187.56 181.84C186.814 178.988 186.131 175.765 183.242 172.541C181.441 170.402 178.924 170 176.781 169.318C174.606 168.947 172.806 168.234 171.377 166.435C169.233 163.213 168.488 160.361 167.804 157.478C167.059 154.938 166.718 152.457 164.915 149.947C163.455 147.839 162.369 146.042 160.94 144.956C166.344 146.04 168.488 148.892 171.005 151.775C172.806 153.913 174.577 156.083 177.466 157.88C182.498 160.763 185.728 159.306 188.617 158.624C190.387 158.282 191.815 157.602 193.618 158.282C196.102 159.366 197.191 160.822 198.619 162.248C200.42 163.674 201.849 165.813 205.081 167.239C212.287 170.803 219.835 166.495 220.175 166.155C220.921 165.815 220.921 165.411 220.921 164.729C220.58 163.985 220.175 163.645 219.492 163.645C219.492 163.645 213.374 163.241 208.715 159.679C206.914 158.253 205.826 156.827 204.397 155.03C202.597 152.521 200.422 150.009 196.85 148.212C193.961 146.786 191.477 147.128 189.302 147.468C187.159 147.872 185.327 147.872 183.184 146.786C179.923 144.616 178.152 142.478 176.351 139.968C174.922 138.202 173.462 136.032 170.947 134.234C169.177 132.777 167.344 132.033 165.543 131.351C170.606 130.638 173.836 132.064 177.068 133.861C179.614 134.944 182.131 136.401 185.36 136.743C190.795 137.487 193.653 134.977 195.797 133.179C197.226 132.126 198.312 131.04 200.114 131.04C202.661 131.04 204.432 131.753 206.233 132.836C208.376 133.92 210.551 135.006 214.123 135.346C222.354 135.717 227.417 128.868 227.758 128.528C228.099 128.188 228.099 127.444 227.758 127.102V127.106ZM162.375 106.837C164.922 106.433 167.065 106.837 169.582 107.177C172.471 107.519 176.043 108.261 180.359 107.177C183.589 106.495 185.391 104.325 186.82 102.186C187.906 100.359 189.335 98.9019 191.138 98.2199C194.368 97.136 197.226 97.5378 200.114 97.8799C202.661 98.2199 204.804 98.5619 207.321 98.2199C210.21 97.8799 212.725 96.794 214.869 95.7101C213.749 97.476 211.639 99.6148 208.75 100.701C205.861 101.723 203.687 101.383 201.543 101.383C199.4 101.383 196.885 101.043 193.996 102.467C191.512 103.489 190.424 105.658 189.338 107.457C188.282 109.627 186.853 112.106 182.876 113.192C179.987 113.874 177.503 113.874 174.986 113.532C170.125 112.847 164.632 112.481 157.521 118.819C156.559 115.918 155.189 113.202 153.48 110.74C155.233 109.132 157.756 107.838 162.375 106.837ZM151.225 95.3702C153.025 93.9443 155.169 93.5425 157.686 92.8605C160.916 92.1166 164.178 91.4037 167.751 88.894C170.297 86.6933 171.042 84.2145 171.726 81.7028C172.097 79.5331 172.812 77.7363 174.241 76.3104C176.787 74.1716 179.645 73.4896 182.533 72.7457C184.677 72.0328 186.851 71.6619 188.995 70.236C191.541 68.8101 193.684 66.6404 195.113 64.8437C194.77 67.3843 194.058 69.896 191.541 72.0348C189.057 73.8316 186.882 74.5755 185.08 75.2575C182.936 76.0013 180.762 77.0543 178.618 79.224C176.818 81.3628 176.818 83.5325 176.475 85.6713C176.07 88.554 175.729 91.0328 172.5 93.5446C170.295 95.3413 167.81 96.0852 165.293 96.7672C160.455 98.5145 155.673 99.928 151.489 108.168C149.498 105.848 147.18 103.818 144.6 102.149C145.969 99.722 147.76 97.5584 151.223 95.3722L151.225 95.3702ZM135.787 88.2099C136.811 86.444 138.645 84.9872 140.788 83.5614C143.335 81.7646 145.821 79.9967 148.336 76.0302C150.167 73.5514 149.765 70.6687 149.422 68.157C149.017 66.3911 148.677 64.2214 149.763 62.4226C151.223 59.169 153.366 57.4011 155.881 55.6043C157.651 54.5205 159.454 53.0946 160.883 50.9558C162.652 48.7552 163.771 45.9343 164.455 43.7646C164.86 45.9034 165.2 48.7552 163.771 51.6378C162.342 54.1475 160.542 55.6043 159.113 57.0302C157.343 58.827 155.54 60.2528 155.54 63.4775C154.454 65.9872 155.136 68.157 155.881 70.2958C156.967 73.1475 157.682 75.6881 155.54 79.2528C154.112 81.7625 152.28 83.1884 150.137 84.9872C146.442 88.2985 142.457 91.6406 141.635 100.447C138.742 98.9905 135.595 97.9602 132.279 97.443C132.609 95.0405 133.076 92.2526 135.787 88.2099ZM119.202 88.2408C119.573 85.762 120.661 83.9323 122.09 81.7934C123.891 79.2837 125.663 76.4011 126.408 72.0925C126.78 68.8699 125.353 66.3581 124.265 64.2193C123.146 62.3916 122.464 60.9658 122.464 58.827C122.464 55.2005 123.924 53.0616 126.439 50.5519C127.525 48.4131 128.645 46.6164 129.328 44.1046C130.012 40.8201 130.012 37.9684 129.669 35.8296C131.098 37.6263 132.527 40.1381 132.184 43.3607C131.841 46.2125 131.129 48.3822 130.04 50.179C129.326 51.9758 128.24 54.1455 128.24 57.3702C128.24 59.9108 129.7 61.6787 131.129 63.4755C132.929 65.6452 134.763 67.442 134.018 71.7505C133.646 74.6332 132.217 76.772 131.129 79.2817C128.719 83.7653 126.34 88.2243 129.285 97.1195C128.638 97.0804 127.986 97.0577 127.329 97.0577C124.572 97.0577 121.896 97.408 119.344 98.0674C118.733 95.1971 118.219 92.4381 119.199 88.2387L119.202 88.2408ZM99.4462 69.9537C97.6125 68.8699 96.1546 67.444 95.4711 65.6452C94.4469 62.4226 94.7876 59.5708 95.1304 56.6881C95.4711 54.1475 95.8139 52.0087 95.4711 49.497C95.0994 46.6143 94.0422 44.1046 92.956 41.9658C94.7257 43.0826 96.8691 45.1884 97.9573 48.0711C98.9815 50.9537 98.6408 53.1235 98.6408 55.2623C98.6408 57.4011 98.298 59.9108 99.727 62.7934C100.813 65.3032 102.988 66.3581 104.79 67.442C106.965 68.4949 109.449 69.9208 110.537 73.8893C111.22 76.772 111.22 79.2508 110.878 81.7625C110.194 86.5924 109.829 92.0466 116.096 99.0997C113.252 100.171 110.603 101.638 108.216 103.433C106.512 101.675 105.152 99.143 104.107 94.3481C103.764 91.8075 104.107 89.6687 104.447 87.157C104.788 84.2743 105.534 80.7096 104.447 76.4031C103.764 73.1805 101.59 71.3817 99.4462 69.9558V69.9537ZM92.6132 105.473C91.1843 103.676 90.8436 101.537 90.0981 99.0255C89.3527 95.8029 88.6382 92.5473 86.1231 88.9826C83.9177 86.442 81.4336 85.6981 78.9164 85.0161C76.742 84.6452 74.9414 83.9323 73.5125 82.5064C71.369 79.9658 70.6236 77.114 69.9401 74.2314C69.2256 72.0925 68.8539 69.9228 67.425 67.784C65.996 65.2434 63.8217 63.1046 62.021 61.6787C64.5671 62.0187 67.0843 62.7316 69.2277 65.2434C71.0283 67.7222 71.7738 69.8919 72.4573 71.6907C73.2027 73.8296 74.2889 75.9993 76.4323 78.1381C78.5757 79.9349 80.7191 79.9349 82.8935 80.2769C85.7824 80.6808 88.2665 81.0207 90.7837 84.2434C92.5843 86.444 93.3298 88.9228 94.0133 91.4346C95.7933 96.3407 97.2222 101.189 105.839 105.411C103.599 107.463 101.654 109.831 100.078 112.446C97.3709 111.028 95.0065 109.246 92.6174 105.477L92.6132 105.473ZM86.0901 120.597C84.3204 119.513 82.8605 117.683 81.4315 115.545C79.6309 113.004 77.8592 110.523 73.8842 108.013C71.4 106.248 68.5112 106.588 65.994 106.93C64.2243 107.334 62.0499 107.673 60.2472 106.588C56.9867 105.131 55.2149 102.992 53.4143 100.482C52.3281 98.7164 50.8992 96.9176 48.7558 95.4917C46.5504 93.6641 43.7235 92.6091 41.5491 91.8652C43.6925 91.5232 46.5504 91.1832 49.4393 92.6091C51.9544 94.035 53.4143 95.8317 54.8433 97.2576C56.3032 99.0235 58.0728 100.822 60.9617 101.906C63.4458 102.619 65.6202 101.906 67.4229 100.822C70.2808 99.7384 72.8269 99.0255 76.3993 101.162C78.9144 102.588 80.3433 104.416 82.146 106.555C85.5862 110.375 89.0574 114.51 98.6305 115.116C97.2842 117.929 96.3405 120.968 95.8738 124.164C95.8531 124.164 95.8346 124.16 95.8139 124.16C93.2988 123.818 90.4099 123.478 86.0921 120.595L86.0901 120.597ZM86.152 137.116C83.6369 136.745 81.8342 135.659 79.6598 134.234C77.1447 132.437 74.2558 130.669 69.938 129.925C66.7085 129.554 64.1913 130.978 62.0479 132.064C60.2163 133.181 58.7873 133.861 56.6439 133.861C53.0096 133.861 50.8662 132.435 48.3511 130.638C46.2076 129.554 44.407 128.499 41.8898 127.755C39.001 127.011 36.1121 127.011 33.597 126.671C35.3976 125.246 38.2555 123.82 41.1444 124.162C44.0023 124.533 46.1767 125.246 47.9773 126.331C49.7779 127.044 51.9523 128.128 55.184 128.128C57.7301 128.128 59.5018 126.671 61.3024 125.246C63.4768 123.449 65.2774 121.681 69.5953 122.363C72.4841 122.734 74.6275 124.16 77.1426 125.246C81.731 127.702 86.2924 130.125 95.5909 126.892C95.5537 127.518 95.5331 128.149 95.5331 128.783C95.5331 131.571 95.8944 134.275 96.5717 136.852C93.4826 137.512 90.6371 138.163 86.1499 137.118L86.152 137.116ZM92.2705 152.117C89.7244 152.457 87.581 152.117 85.0638 151.775C82.1749 151.435 78.6026 150.691 74.2868 151.775C71.0572 152.457 69.2545 154.626 67.8256 156.765C66.7394 158.595 65.3105 160.05 63.5078 160.732C60.2782 161.754 57.4203 161.414 54.5314 161.072C51.9854 160.732 49.8419 160.39 47.3248 160.732C44.4359 161.103 41.9208 162.158 39.7774 163.241C40.8966 161.476 43.007 159.337 45.8958 158.251C48.7847 157.229 50.9591 157.569 53.1025 157.569C55.6486 157.569 57.761 157.909 60.6499 156.485C63.165 155.401 64.2223 153.231 65.3084 151.433C66.3636 149.263 67.7926 146.784 71.7696 145.698C74.6585 145.016 77.1426 145.016 79.6598 145.358C84.6033 146.055 90.1993 146.421 97.4865 139.745C98.5417 142.603 99.9975 145.268 101.786 147.672C101.711 147.709 101.643 147.753 101.59 147.806C99.8199 149.603 97.2718 151.029 92.2725 152.115L92.2705 152.117ZM103.421 163.583C101.621 165.009 99.4771 165.411 96.96 166.093C93.7304 166.837 90.4678 167.55 86.8954 170.06C84.3493 172.26 83.6658 174.739 82.9204 177.251C82.5487 179.421 81.8342 181.217 80.4053 182.643C77.8592 184.782 75.0013 185.526 72.1124 186.208C69.969 186.921 67.7946 187.292 65.6512 188.718C63.1051 190.143 60.9617 192.313 59.5328 194.11C59.8755 191.569 60.5879 189.058 63.1051 186.919C65.5893 185.122 67.7636 184.378 69.5663 183.696C71.7098 182.952 73.8532 181.868 76.0276 179.73C77.8282 177.591 77.8282 175.421 78.171 173.282C78.5757 170.4 78.9164 167.921 82.146 165.409C84.3514 163.612 86.8355 162.868 89.3527 162.186C94.3623 160.377 99.3119 158.927 103.597 149.887C105.633 152.164 107.991 154.146 110.601 155.762C109.145 158.622 107.373 161.086 103.421 163.581V163.583ZM121.281 160.701C120.94 163.211 120.597 166.093 117.709 170.402C116.684 172.168 114.882 173.624 112.707 175.05C110.161 176.847 107.675 178.615 105.16 182.581C103.39 185.06 103.731 187.943 104.074 190.455C104.414 192.22 104.819 194.39 103.731 196.189C102.271 199.381 100.128 201.21 97.6125 203.007C95.8428 204.091 94.0401 205.486 92.6112 207.656C90.8415 209.856 89.7843 212.708 89.0388 214.847C88.6981 212.708 88.3553 209.856 89.7843 206.974C91.2132 204.464 93.0138 203.007 94.4428 201.581C96.2124 200.125 98.0151 198.359 99.1013 195.476C100.187 192.966 99.4441 190.797 98.7606 188.658C97.6744 185.806 96.96 183.265 99.1013 179.701C100.53 177.191 102.362 175.765 104.505 173.966C108.381 170.492 112.579 166.983 113.106 157.161C115.827 158.521 118.772 159.504 121.871 160.039C121.694 160.235 121.5 160.451 121.279 160.701H121.281ZM135.04 169.099C134.668 171.578 133.58 173.377 132.151 175.547C130.35 178.057 128.578 180.939 127.833 185.248C127.492 188.47 128.919 190.982 130.007 193.121C131.125 194.951 131.808 196.374 131.808 198.513C131.467 202.14 130.007 204.619 128.578 207.13C127.492 209.269 126.435 211.066 125.69 213.578C125.006 216.46 125.006 219.281 125.349 221.451C123.92 219.654 122.491 217.142 122.834 213.92C123.174 211.068 123.889 208.898 124.977 207.101C125.692 205.305 126.778 203.135 126.778 199.91C126.778 197.37 125.318 195.602 123.889 193.805C122.088 191.635 120.317 189.839 121 185.53C121.372 182.647 122.801 180.509 123.889 177.999C126.27 173.569 128.622 169.161 125.834 160.474C126.33 160.497 126.827 160.509 127.327 160.509C129.96 160.509 132.516 160.188 134.961 159.586C135.544 162.347 135.985 165.055 135.04 169.104V169.099ZM127.507 157.971C111.4 157.971 98.3435 144.942 98.3435 128.87C98.3435 112.798 111.4 99.7694 127.507 99.7694C143.613 99.7694 156.67 112.798 156.67 128.87C156.67 144.942 143.613 157.971 127.507 157.971ZM154.669 187.386C156.501 188.47 157.961 189.896 158.644 191.695C159.668 194.918 159.328 197.769 158.985 200.652C158.644 203.193 158.301 205.332 158.644 207.843C159.016 210.726 160.073 213.236 161.159 215.374C159.39 214.26 157.246 212.152 156.158 209.269C155.134 206.386 155.474 204.248 155.474 202.078C155.474 199.908 155.815 197.429 154.388 194.547C153.364 192.037 151.19 190.982 149.387 189.898C147.213 188.845 144.728 187.419 143.64 183.451C142.957 180.568 142.957 178.089 143.299 175.578C143.973 170.818 144.34 165.45 138.35 158.545C141.195 157.497 143.847 156.052 146.242 154.28C147.787 156.023 149.034 158.527 150.008 162.994C150.349 165.535 150.008 167.674 149.668 170.185C149.325 173.068 148.582 176.633 149.668 180.939C150.351 184.162 152.526 185.961 154.669 187.386ZM161.502 151.898C162.931 153.695 163.334 155.834 164.017 158.346C164.763 161.568 165.477 164.824 167.992 168.389C170.197 170.929 172.682 171.673 175.199 172.355C177.373 172.726 179.174 173.439 180.603 174.865C182.746 177.405 183.492 180.257 184.175 183.14C184.89 185.279 185.261 187.448 186.69 189.587C188.119 192.128 190.294 194.267 192.094 195.692C189.548 195.352 187.031 194.64 184.888 192.128C183.087 189.649 182.341 187.479 181.658 185.68C180.913 183.542 179.826 181.372 177.683 179.233C175.54 177.405 173.365 177.405 171.222 177.063C168.333 176.659 165.849 176.319 163.332 173.097C161.531 170.896 160.785 168.417 160.102 165.906C158.357 161.098 156.947 156.347 148.784 152.187C151.018 150.147 152.957 147.794 154.535 145.195C157.038 146.574 159.255 148.36 161.5 151.898H161.502ZM168.397 137.58C170.167 138.602 171.626 140.401 173.055 142.57C174.856 145.111 176.628 147.592 180.603 150.102C183.087 151.931 185.976 151.527 188.493 151.185C190.263 150.845 192.437 150.441 194.24 151.525C197.5 152.982 199.272 155.121 201.073 157.631C202.159 159.396 203.588 161.195 205.731 162.621C207.937 164.387 210.794 165.504 212.938 166.186C210.794 166.59 207.937 166.93 205.048 165.504C202.533 164.078 201.073 162.281 199.644 160.855C198.184 159.089 196.414 157.291 193.525 156.207C191.01 155.123 188.836 155.867 186.692 156.547C183.834 157.631 181.288 158.344 177.716 156.207C175.201 154.781 173.772 152.953 171.969 150.814C168.603 147.077 165.209 143.036 156.096 142.298C157.318 139.71 158.202 136.931 158.685 134.019C161.198 134.359 164.085 134.703 168.397 137.582V137.58ZM213.402 133.984C210.545 133.642 208.37 132.931 206.57 131.845C204.769 131.132 202.594 130.049 199.363 130.049C196.817 130.049 195.045 131.505 193.244 132.931C191.07 134.728 189.269 136.496 184.952 135.814C182.063 135.443 179.919 134.017 177.404 132.931C172.826 130.481 168.277 128.064 159.022 131.262C159.086 130.444 159.119 129.616 159.119 128.781C159.119 126.443 158.863 124.166 158.382 121.971C161.353 121.337 164.155 120.764 168.49 121.774C170.974 122.144 172.808 123.23 174.951 124.656C177.466 126.453 180.355 128.283 184.673 128.965C187.902 129.336 190.42 127.912 192.563 126.826C194.395 125.773 195.824 125.029 197.967 125.029C201.601 125.369 204.085 126.826 206.603 128.252C208.746 129.336 210.547 130.452 213.064 131.134C215.953 131.817 218.811 131.817 220.954 131.474C219.153 132.9 216.295 134.326 213.407 133.984H213.402Z" fill="#BD7B4F"/>
<path d="M144.648 151.297C138.104 152.582 131.589 151.789 125.933 149.176C123.104 147.864 120.475 146.18 118.268 144.027C116.06 141.948 114.175 139.523 112.761 136.799C111.272 134.126 110.281 131.254 109.758 128.209C109.585 127.467 109.535 126.748 109.436 125.956C109.337 125.163 109.337 124.446 109.337 123.655C109.287 122.864 109.387 122.145 109.436 121.353C109.436 120.562 109.61 119.843 109.709 119.052C110.65 112.913 113.578 106.996 118.317 102.269L118.253 102.176C118.268 102.166 118.28 102.156 118.293 102.145C118.276 102.151 118.26 102.158 118.243 102.162L118.227 102.137C118.084 102.186 117.944 102.236 117.803 102.285C117.781 102.304 117.758 102.32 117.735 102.339C116.783 102.677 115.753 103.087 114.821 103.602C100.854 110.534 95.2726 127.564 102.318 141.6C106.047 148.974 112.583 154.035 119.957 156.137C122.338 156.786 124.841 157.136 127.426 157.136C133.9 157.136 139.871 154.956 144.648 151.295V151.297Z" fill="#94603C"/>
<path d="M127.426 100.606C124.215 100.606 121.126 101.144 118.245 102.131C113.566 106.864 110.65 112.773 109.707 118.893C109.601 119.686 109.442 120.426 109.442 121.219C109.389 122.013 109.283 122.752 109.337 123.546C109.337 124.339 109.337 125.079 109.442 125.872C109.548 126.665 109.601 127.405 109.76 128.145C110.291 131.211 111.297 134.118 112.781 136.815C114.212 139.564 116.12 141.998 118.344 144.112C120.57 146.279 123.22 147.971 126.08 149.294C131.595 151.843 137.949 152.665 144.332 151.538C151.26 146.38 155.753 138.14 155.753 128.872C155.753 113.286 143.045 100.606 127.426 100.606Z" fill="#BD7B4F"/>
</g>
<defs>
<clipPath id="clip0_2466_339">
<rect width="256" height="256" fill="white"/>
</clipPath>
</defs>
</svg>
