<svg width="256" height="256" viewBox="0 0 256 256" fill="none" xmlns="http://www.w3.org/2000/svg">
<g clip-path="url(#clip0_2270_126)">
<path d="M128 256C198.692 256 256 198.692 256 128C256 57.3075 198.692 0 128 0C57.3076 0 0 57.3075 0 128C0 198.692 57.3076 256 128 256Z" fill="#5F498A"/>
<path d="M208.293 79.5391C203.351 71.7503 194.503 67.0856 184.619 67.0856H130.118C129.412 67.0428 128.706 67 128 67C127.294 67 126.588 67.0428 125.882 67.0856H71.3802C61.4965 67.0856 52.6483 71.7503 47.7064 79.5391C42.7645 87.3279 42.7645 96.6146 47.7064 104.403L104.326 193.547C109.268 201.336 118.116 206 128 206C137.884 206 146.731 201.336 151.674 193.547L208.293 104.403C213.236 96.6574 213.236 87.3279 208.293 79.5391ZM138.589 186.699C136.378 190.166 132.424 192.263 128 192.263C123.576 192.263 119.622 190.166 117.41 186.699L85.5469 136.543L117.41 86.3436C119.387 83.2195 122.729 81.2509 126.588 80.8658H129.412C133.271 81.2509 136.613 83.2624 138.589 86.3436L170.453 136.5L138.589 186.699Z" fill="#383838"/>
</g>
<defs>
<clipPath id="clip0_2270_126">
<rect width="256" height="256" fill="white"/>
</clipPath>
</defs>
</svg>
