<svg width="256" height="256" viewBox="0 0 256 256" fill="none" xmlns="http://www.w3.org/2000/svg">
<path d="M256 128C256 198.693 198.693 256 128 256C57.3075 256 0 198.693 0 128C0 57.3075 57.3075 0 128 0C198.693 0 256 57.3075 256 128Z" fill="#23263C"/>
<path d="M128 113C142.359 113 154 101.359 154 87C154 72.6406 142.359 61 128 61C113.641 61 102 72.6406 102 87C102 101.359 113.641 113 128 113Z" fill="#04A8F0"/>
<path d="M128 128C101.5 128 80 106.5 80 80.0004C81.1 67.0004 70 67.0004 67 70.5004C66.8 70.7004 66.6 70.9004 66.3 71.2004C56.1 84.5004 50 101 50 119.1C50 134.9 65 145.1 80.9 145.1H175.2C191 145.1 206.1 135 206.1 119.1C206.1 101.1 200 84.5004 189.8 71.3004C189.6 71.0004 189.4 70.8004 189.1 70.6004C186 67.0004 174.9 67.0004 176 80.0004C176 106.5 154.5 128 128 128Z" fill="#686DF1"/>
<path d="M136.2 206.2L158.1 174.7C162.7 168.1 158 159 149.9 159H128H106.1C98 159 93.3 168.1 97.9 174.7L119.8 206.2C123.8 211.9 132.2 211.9 136.2 206.2Z" fill="#04A8F0"/>
</svg>
