<svg width="256" height="256" viewBox="0 0 256 256" fill="none" xmlns="http://www.w3.org/2000/svg">
<g clip-path="url(#clip0_741_46)">
<circle cx="128" cy="128" r="128" fill="#111570"/>
<mask id="mask0_741_46" style="mask-type:luminance" maskUnits="userSpaceOnUse" x="65" y="42" width="126" height="173">
<path d="M191 42.9329H65.326V214.067H191V42.9329Z" fill="white"/>
</mask>
<g mask="url(#mask0_741_46)">
<path d="M168.209 57.2472C156.96 47.9912 142.854 42.9322 128.298 42.933C113.723 42.9046 99.5945 47.9663 88.3419 57.2472C80.3132 63.8353 74.0354 72.3107 70.0674 81.9184C66.0994 91.5261 64.5645 101.968 65.5993 112.314C66.6341 122.66 70.2066 132.589 75.9985 141.217C81.7904 149.844 89.622 156.903 98.7958 161.764C99.0225 162.491 99.2493 163.218 99.5214 164.036C100.516 166.794 101.873 169.407 103.558 171.806C104.838 173.614 106.733 174.891 108.887 175.396C110.065 175.684 111.288 175.736 112.486 175.549C113.683 175.361 114.833 174.939 115.867 174.305C116.902 173.672 117.801 172.84 118.514 171.858C119.227 170.876 119.739 169.762 120.021 168.58C120.659 165.718 120.926 162.786 120.815 159.855C120.742 157.04 120.439 154.236 119.908 151.471C119.596 149.61 118.831 147.854 117.679 146.36C116.528 144.866 115.027 143.679 113.309 142.905H112.946C104.583 139.245 97.7184 132.832 93.4894 124.728C91.0213 119.726 89.6369 114.256 89.427 108.68C89.2172 103.104 90.1867 97.5455 92.2719 92.3708C94.3571 87.1961 97.5109 82.5217 101.526 78.6544C105.542 74.787 110.328 71.8142 115.571 69.9309C120.813 68.0477 126.395 67.2965 131.948 67.7269C137.501 68.1572 142.901 69.7592 147.792 72.4279C152.684 75.0965 156.956 78.7714 160.33 83.2113C163.705 87.6513 166.103 92.756 167.37 98.1906C169.337 107.199 168.144 116.612 163.991 124.842C159.77 133.125 152.906 139.755 144.489 143.678H144.331L143.31 144.178C142.97 144.36 142.653 144.564 142.335 144.768L141.609 145.337C141.299 145.591 141.004 145.864 140.725 146.154C139.938 146.94 139.281 147.845 138.775 148.835L138.457 149.426L138.299 149.812L137.89 150.63C137.712 151.075 137.56 151.531 137.437 151.994C137.12 153.281 136.877 154.586 136.711 155.902C136.507 158.174 136.416 160.082 136.349 161.991L136.19 172.851C136.19 176.373 136.076 179.873 136.031 183.349C135.928 186.983 135.055 190.553 133.468 193.823C132.369 195.973 131.851 198.373 131.965 200.786C132.079 203.199 132.821 205.539 134.118 207.576C135.415 209.612 137.221 211.272 139.357 212.392C141.493 213.511 143.884 214.052 146.293 213.958C148.702 213.865 151.044 213.142 153.087 211.86C155.131 210.579 156.804 208.783 157.94 206.653C159.076 204.523 159.636 202.131 159.563 199.717C159.491 197.303 158.79 194.95 157.528 192.891C155.704 189.913 154.623 186.539 154.376 183.053C154.195 179.736 154.059 176.442 154.172 173.193C154.215 170.033 154.496 166.881 155.011 163.763C155.125 163.082 155.261 162.445 155.397 161.832C167.402 156.214 177.279 146.868 183.561 135.18C190.436 122.426 192.665 107.671 189.863 93.4494C187.061 79.228 179.405 66.4278 168.209 57.2472Z" fill="white"/>
<path d="M144.444 122.276L128.435 106.235L112.402 90.1706L111.11 88.8755C106.679 93.5092 104.236 99.6972 104.305 106.114C104.374 112.531 106.948 118.665 111.477 123.203C116.005 127.74 122.128 130.32 128.532 130.388C134.936 130.457 141.112 128.01 145.737 123.57L144.444 122.276Z" fill="white"/>
</g>
</g>
<defs>
<clipPath id="clip0_741_46">
<rect width="256" height="256" fill="white"/>
</clipPath>
</defs>
</svg>
