<svg width="256" height="256" viewBox="0 0 256 256" fill="none" xmlns="http://www.w3.org/2000/svg">
<g clip-path="url(#clip0_2697_17)">
<path d="M128 256C198.692 256 256 198.692 256 128C256 57.3076 198.692 0 128 0C57.3076 0 0 57.3076 0 128C0 198.692 57.3076 256 128 256Z" fill="white"/>
<path d="M220.006 108.441C216.319 90.7774 207.564 74.5982 194.508 61.5422C176.742 43.7758 153.139 33.9966 127.999 33.9966C102.86 33.9966 79.2569 43.7246 61.4905 61.491C57.1385 65.843 53.3497 70.5022 50.0217 75.4174C49.0489 76.7486 48.1273 78.131 47.3593 79.6158C38.6553 94.1054 33.9961 110.643 33.9961 128C33.9961 153.139 43.7753 176.742 61.5417 194.509C79.3081 212.275 102.911 222.054 128.051 222.054C153.19 222.054 176.793 212.275 194.559 194.509C202.905 186.163 209.561 176.435 214.22 165.939C214.783 164.813 215.244 163.584 215.705 162.355C219.954 151.603 222.156 139.981 222.156 128.051C222.156 121.753 221.542 115.763 220.313 109.721C220.262 109.414 220.057 108.646 220.006 108.441ZM187.391 65.4846C187.903 65.9966 188.467 66.5086 189.03 67.0718C197.324 75.3662 203.775 85.0942 208.025 95.6414C208.434 96.6654 207.564 97.843 206.387 97.6382C203.929 97.1774 201.113 97.0238 198.041 97.075C195.89 97.1262 193.996 95.5902 193.638 93.5422C191.948 84.1214 189.491 75.4686 186.419 67.891C186.265 67.4814 186.06 67.0718 185.907 66.5598C185.497 65.587 186.675 64.7166 187.391 65.4846ZM196.351 120.627C196.351 119.654 197.58 119.193 198.195 120.013C198.86 120.985 199.577 122.009 200.243 122.982C201.113 124.313 201.932 125.645 202.649 126.976C203.11 127.795 203.007 128.819 202.393 129.536C201.42 130.611 200.294 131.789 199.116 132.966C198.707 133.376 198.246 133.837 197.785 134.297C197.222 134.809 196.249 134.4 196.3 133.683C196.351 132.249 196.403 130.867 196.403 129.382C196.454 126.361 196.454 123.494 196.351 120.627ZM77.9257 57.7534C92.4665 47.3598 109.772 41.779 127.999 41.779C132.812 41.779 137.574 42.1886 142.233 42.9054C143.462 43.1102 143.923 44.6974 142.899 45.4654C138.393 48.9982 134.246 54.2206 130.508 60.979C129.638 62.6686 127.692 63.4366 125.849 62.9246C113.561 59.4942 101.478 57.8558 90.3161 58.2142C86.1689 58.3678 82.3289 58.7774 78.6425 59.443C77.6185 59.699 77.1065 58.3678 77.9257 57.7534ZM65.6377 186.624C63.7945 183.245 66.1497 175.309 78.0793 163.225C79.3081 161.997 79.2057 159.949 77.8233 158.822C77.3625 158.464 76.9017 158.105 76.3897 157.696C75.2121 156.774 73.4713 156.825 72.3961 157.901C72.1401 158.157 71.9865 158.31 71.9353 158.361C65.9961 164.454 61.7977 170.137 59.4937 175.257C58.8281 176.742 56.8313 176.896 55.9609 175.513C46.6937 161.587 41.7273 145.203 41.7273 128.051C41.7273 121.958 42.3417 115.865 43.6217 110.029C43.8265 109.158 45.0553 109.107 45.3625 109.977C47.1545 115.865 50.0729 122.009 54.0665 128.153C59.4937 136.448 66.6105 144.435 75.1097 151.808C77.9769 154.317 81.0489 156.723 84.2745 159.078C90.7769 163.84 97.7401 168.192 105.215 172.032C108.492 173.773 111.769 175.36 115.046 176.896C116.889 177.715 118.988 177.766 120.831 177.049C122.419 176.435 123.954 175.821 125.542 175.155C127.282 174.438 128.204 172.595 127.743 170.752C127.692 170.547 127.641 170.342 127.641 170.24C125.03 159.334 123.596 146.995 123.391 134.144C123.391 133.99 123.391 131.072 123.391 128.051C123.391 125.03 123.494 123.648 123.596 121.446C124.364 105.881 127.026 91.2894 131.225 78.9502C131.583 77.8238 131.02 76.595 129.843 76.1854C128.767 75.827 127.641 75.4686 126.515 75.1102C125.439 74.7518 124.21 75.3662 123.801 76.4926C119.244 89.8558 116.428 105.677 115.711 122.419C115.609 124.569 114.483 126.515 112.639 127.59C102.707 133.478 93.6441 139.725 85.7081 145.971C84.0697 147.302 81.7145 147.2 80.1273 145.869C72.2425 139.008 65.5865 131.584 60.5689 123.853C50.6873 108.697 48.3321 94.4638 53.9641 83.6606L54.0153 83.6094C54.7321 82.4318 55.5001 81.2542 56.2681 80.1278C62.7193 71.6286 74.7001 66.6622 90.6233 66.099C91.5961 66.0478 92.6713 66.0478 93.6441 66.0478C103.423 66.0478 113.868 67.6862 124.518 70.7582C124.722 70.8094 126.258 71.2702 126.566 71.3726C129.279 72.243 133.887 73.8302 134.502 74.035C134.758 74.1374 136.191 74.7006 136.396 74.7518C141.618 76.7998 146.79 79.1038 151.91 81.7662C161.843 86.9374 170.905 92.979 178.892 99.635C163.788 103.065 146.227 109.773 128.563 118.733C127.743 119.142 127.18 119.961 127.129 120.883C127.078 121.958 126.975 124.16 126.924 125.952C126.873 127.027 128.051 127.795 129.023 127.283C146.534 118.067 163.993 111.257 178.995 107.571C181.811 106.905 183.603 104.243 183.244 101.376C182.988 99.379 182.681 97.3822 182.323 95.4878C181.913 93.0814 180.531 90.8798 178.636 89.4462C171.622 84.1214 163.891 79.2062 155.596 74.8542C150.015 71.9358 144.383 69.427 138.649 67.2254C137.471 66.7646 136.908 65.331 137.574 64.2046C143.411 53.7598 150.374 47.923 157.183 47.923C157.235 47.923 157.337 47.923 157.388 47.923C165.375 48.0766 173.311 56.371 179.251 70.7582C182.22 78.0286 184.524 86.4254 186.163 95.539C186.623 98.099 186.982 100.71 187.289 103.373C187.442 104.755 187.699 106.854 187.852 107.776C188.518 114.688 188.774 121.907 188.671 129.229C188.569 133.888 188.364 138.496 187.955 142.95C177.254 151.552 164.044 160.205 149.503 167.885C145.561 169.933 141.619 171.929 137.727 173.773C136.908 174.182 133.529 175.667 133.324 175.769C129.638 177.459 126.003 178.944 122.367 180.377C122.163 180.48 118.067 182.016 117.811 182.118C117.503 182.221 115.404 182.989 115.148 183.091C107.314 185.856 99.7881 187.955 92.9273 189.286C75.5705 192.614 67.4297 190.054 65.6377 186.624ZM89.2409 153.139C96.8185 146.995 105.727 140.749 115.507 134.912C115.711 147.405 117.094 159.437 119.551 170.24C115.967 168.653 112.332 167.014 108.748 165.12C101.785 161.536 95.2313 157.491 89.2409 153.139ZM139.11 213.555C135.475 214.016 131.737 214.272 127.999 214.272C111.206 214.272 95.1801 209.51 81.4585 200.653C80.5369 200.038 80.9465 198.553 82.0217 198.502C82.2265 198.502 82.4825 198.502 82.6361 198.451C86.1177 198.246 89.9577 197.734 94.1049 196.915C102.911 195.174 112.742 192.307 123.033 188.365C123.954 188.006 124.978 188.467 125.388 189.389C129.382 199.117 134.246 206.438 139.827 211.097C140.799 211.917 140.339 213.401 139.11 213.555ZM175.615 190.515C169.471 202.649 161.894 209.408 154.521 209.254C146.534 209.101 138.598 200.806 132.659 186.419C132.3 185.549 132.71 184.473 133.58 184.064C133.631 184.013 133.682 184.013 133.785 183.961C134.143 183.808 134.604 183.757 135.014 183.859C146.022 186.931 156.927 188.569 167.116 188.569C168.191 188.569 169.318 188.569 170.393 188.518C171.622 188.467 172.902 188.416 174.131 188.313C175.308 188.313 176.127 189.491 175.615 190.515ZM178.278 180.07C175.718 180.429 173.004 180.685 170.188 180.787C163.276 181.043 155.955 180.429 148.479 179.046C147.558 178.893 147.404 177.613 148.223 177.203C149.862 176.384 151.5 175.513 153.139 174.643C164.607 168.55 175.359 161.894 184.729 155.085C185.394 154.573 186.418 155.187 186.265 156.006C184.934 163.84 183.193 171.213 180.889 177.869C180.428 179.097 179.455 179.917 178.278 180.07ZM191.027 186.931C190.412 187.597 189.695 188.313 189.03 188.979C187.903 190.105 186.623 191.283 185.446 192.358C184.678 193.024 183.5 192.205 183.91 191.283C184.012 191.027 184.166 190.771 184.268 190.464C184.78 189.337 185.241 188.16 185.804 186.982C185.907 186.726 186.163 186.521 186.419 186.419C187.596 186.112 188.825 185.753 189.951 185.395C190.975 185.088 191.692 186.265 191.027 186.931ZM208.332 159.59C207.974 160.461 207.666 161.331 207.257 162.201C207.154 162.355 206.643 163.43 206.591 163.584C203.724 168.857 199.014 173.005 192.87 175.923C191.436 176.589 189.9 175.309 190.31 173.773C192.46 166.195 193.996 158.003 195.071 149.35C195.276 147.712 196.044 146.278 197.273 145.203C199.884 142.95 202.342 140.646 204.595 138.393C205.67 137.318 207.564 137.779 208.025 139.264C210.226 146.688 210.38 153.6 208.332 159.59ZM210.073 119.193C209.458 120.32 207.769 120.371 207.052 119.296C206.95 119.142 206.847 118.937 206.745 118.784C204.185 114.79 201.215 110.95 197.939 107.161C197.119 106.24 197.785 104.806 199.014 104.755H199.065C206.796 104.755 210.841 106.701 212.07 109.005C213.043 110.95 212.735 114.381 210.073 119.193ZM214.271 130.56C214.271 131.123 213.452 131.277 213.247 130.765C213.145 130.56 213.043 130.304 212.94 130.099C212.735 129.689 212.787 129.177 213.094 128.768C213.145 128.717 213.247 128.563 213.401 128.358C213.759 127.897 214.323 127.949 214.323 128.461C214.271 129.177 214.271 129.843 214.271 130.56Z" fill="#7B2BF9"/>
</g>
<defs>
<clipPath id="clip0_2697_17">
<rect width="256" height="256" fill="white"/>
</clipPath>
</defs>
</svg>
