<svg width="256" height="256" viewBox="0 0 256 256" fill="none" xmlns="http://www.w3.org/2000/svg">
<path d="M218.5 37.4996C193.5 12.4999 163.334 0 128 0C92.6663 0 62.4734 12.4999 37.4213 37.4996C12.4738 62.5518 0 92.7186 0 128C0 163.334 12.4738 193.527 37.4213 218.578C62.4734 243.474 92.6663 255.922 128 255.922C163.334 255.922 193.5 243.474 218.5 218.578C243.5 193.527 256 163.334 256 128C256 92.7186 243.5 62.5518 218.5 37.4996ZM121.815 94.0231L121.659 94.3362L121.737 94.0231H121.815Z" fill="url(#paint0_linear_1779_800)"/>
<path d="M105.671 87.9875L106.198 87.4605C106.159 87.4213 106.12 87.4017 106.081 87.4017L105.671 87.9875ZM148.942 63.7462C151.089 64.2148 152.943 63.2973 154.504 60.9942C136.158 51.1963 114.864 51.704 90.6231 62.5166C85.8216 64.3124 82.1328 65.2299 79.5564 65.2687C77.7998 65.3079 76.5114 64.9566 75.6919 64.2148C75.77 64.4489 75.848 64.6833 75.926 64.9174L102.334 110.647L80.0246 67.1425C82.1328 67.2205 85.0017 66.5763 88.6321 65.2103C109.204 55.7245 129.307 55.2367 148.942 63.7462ZM168.44 74.9301C168.44 74.0323 168.42 73.5637 168.382 73.5245C168.342 73.4077 168.381 73.2708 168.499 73.1148C168.616 73.0759 168.713 73.0952 168.791 73.1736C168.83 73.2124 168.987 74.1299 169.26 75.9253C169.455 77.6818 170.548 79.5168 172.539 81.4294C174.998 84.0058 177.204 86.6991 179.155 89.5096C186.923 100.167 191.295 112.287 192.271 125.871C192.31 127.081 192.349 128.311 192.388 129.56C192.466 129.912 192.505 130.224 192.505 130.497C192.466 130.965 192.466 131.414 192.505 131.844C192.466 132.351 192.447 132.858 192.447 133.366C192.447 133.678 192.466 133.932 192.505 134.127C192.739 138.148 193.403 141.056 194.496 142.852L145.077 139.338L196.253 144.55C196.916 144.94 197.697 145.038 198.595 144.842C198.4 144.725 198.165 144.589 197.892 144.433C195.745 142.91 194.496 138.265 194.145 130.497C194.145 129.092 194.106 127.686 194.028 126.281C194.028 125.735 194.028 125.188 194.028 124.641C193.325 109.73 189.714 97.0435 183.196 86.5822C179.175 80.1802 174.042 74.6177 167.796 69.8945C166.976 69.2308 166.098 68.5673 165.161 67.9035C164.42 67.6694 163.795 67.7279 163.287 68.0792C162.507 68.5869 161.843 69.5821 161.297 71.0653C160.36 73.4077 159.404 75.4571 158.428 77.2137C158.076 77.8771 157.432 78.9114 156.495 80.3167C155.597 81.6051 154.934 82.6201 154.504 83.3616C154.036 84.1423 153.665 84.9229 153.392 85.7039C153.119 86.5234 152.846 87.2848 152.572 87.9875C152.299 88.6901 151.479 90.4662 150.113 93.3156C148.747 96.2433 147.166 99.2098 145.37 102.216C143.613 105.183 141.935 107.661 140.334 109.652C138.695 111.604 136.138 114.941 132.664 119.665C124.935 126.027 119.782 132.468 117.206 138.987L112.288 151.518L114.22 140.568C113.244 140.178 112.619 139.651 112.346 138.987C112.073 138.323 112.248 137.523 112.873 136.586C113.537 135.571 113.908 134.869 113.986 134.479C114.064 133.659 113.771 132.644 113.107 131.434C112.405 130.302 111.683 129.287 110.941 128.389C110.355 127.725 110.121 127.218 110.238 126.867C110.238 126.632 110.316 126.164 110.472 125.461C110.551 124.759 110.453 124.31 110.18 124.115C109.984 123.919 108.813 123.646 106.667 123.295C106.315 123.217 105.964 123.158 105.613 123.119C105.144 122.885 104.598 122.592 103.973 122.241H103.856C103.895 122.242 103.914 122.262 103.914 122.3C103.798 122.26 103.602 122.124 103.329 121.889C102.978 121.695 102.392 121.226 101.573 120.484C100.753 119.704 99.5619 119.06 98.0006 118.552C97.9618 118.552 97.8837 118.533 97.7665 118.494C97.5713 118.454 97.3956 118.435 97.2395 118.435C95.7951 118.201 94.4095 118.24 93.0822 118.552C92.7701 118.357 92.4576 118.24 92.1452 118.201C91.8331 118.162 91.4817 118.181 91.0916 118.259C90.467 118.376 89.862 118.669 89.2762 119.138C88.7689 119.411 87.7342 120.289 86.1729 121.773C84.6116 123.295 83.7525 125.266 83.5965 127.686C83.5184 129.482 83.5576 130.848 83.7137 131.785C83.4796 132.332 83.382 132.82 83.4208 133.249C83.46 133.6 83.5965 134.108 83.8306 134.771C83.9478 135.279 84.1042 135.767 84.2994 136.235C84.6116 136.977 84.9825 137.796 85.4118 138.694C85.6851 139.124 85.8996 139.495 86.056 139.807C85.7827 139.807 86.3681 140.607 87.8126 142.207C89.2567 143.808 91.677 144.725 95.0729 144.959C98.5472 145.233 101.24 146.169 103.153 147.77C104.48 148.902 104.519 150.249 103.27 151.81C102.724 152.513 101.943 153.255 100.928 154.035C100.226 154.504 99.1718 155.07 97.7665 155.733C96.4001 156.28 95.034 157.002 93.6676 157.9C92.3404 158.797 90.6423 160.183 88.5736 162.057C86.4657 163.97 83.9674 167.249 81.0788 171.894L65.4451 191.275L71.6519 181.731C72.0032 181.145 72.5105 180.404 73.1743 179.506C75.4383 176.188 76.629 173.494 76.7459 171.425C76.9023 169.396 77.3901 167.561 78.2099 165.922C78.9514 164.243 80.5911 162.369 83.1283 160.3C83.7137 159.793 84.6308 159.071 85.88 158.134C86.8559 157.275 87.6366 156.475 88.2223 155.733C88.7685 154.953 89.4131 153.781 90.1545 152.22C90.1937 152.142 90.2326 152.083 90.2714 152.045C90.5839 151.264 90.8183 150.659 90.9744 150.229C91.1696 149.566 91.1696 148.961 90.9744 148.414C90.9352 148.102 90.7791 147.887 90.5058 147.77V147.712C89.8812 147.126 88.5932 147.731 86.6414 149.527C85.8607 150.151 84.9825 150.913 84.0066 151.81C82.4061 153.137 81.1177 154.269 80.1418 155.206C76.5506 158.641 73.955 161.315 72.3545 163.228C70.7151 165.063 68.9974 167.678 67.2017 171.074C65.3671 174.548 63.5521 177.944 61.7563 181.263C59.9217 184.541 58.6138 187.957 57.8331 191.509C57.0525 194.983 56.6231 196.974 56.5451 197.482C56.5062 197.989 56.5255 198.653 56.6035 199.472C56.7207 200.214 56.9352 200.819 57.2477 201.288C57.7551 201.912 58.7898 202.185 60.3511 202.107C61.8344 202.029 64.6645 201.307 68.8414 199.941C73.0183 198.574 79.5564 194.359 88.4567 187.293C97.3568 180.189 103.641 179.389 107.31 184.893C112.697 192.856 114.922 199.843 113.986 205.855C113.868 206.479 113.732 207.202 113.576 208.021C112.795 211.886 115.43 213.896 121.48 214.052C127.453 214.208 134.362 213.876 142.208 213.057C149.976 212.198 156.983 210.032 163.229 206.557C153.704 204.645 145.917 201.092 139.866 195.901C143.457 198.516 148.61 200.37 155.324 201.463C165.356 203.103 168.03 202.049 163.346 198.301C148.708 189.401 140.569 175.934 138.929 157.9C137.719 144.276 140.627 131.609 147.654 119.899C150.698 114.902 152.943 110.686 154.387 107.251C154.855 106.041 155.617 103.875 156.671 100.752C157.686 97.7462 158.603 95.2478 159.423 93.2571C160.555 90.6419 161.765 88.3192 163.053 86.2893C163.444 85.6256 164.029 84.7669 164.81 83.7129C165.005 83.4788 165.181 83.2444 165.337 83.0103C165.571 82.737 165.805 82.3469 166.039 81.8391C166.235 81.6051 166.391 81.371 166.508 81.1365C166.976 80.4339 167.406 79.4387 167.796 78.1504C168.264 76.8623 168.479 75.7888 168.44 74.9301ZM159.423 50.572L163.229 50.5132L119.841 123.002L145.897 87.5774C145.975 87.5385 146.053 87.4993 146.131 87.4605C146.249 87.226 146.365 87.0311 146.482 86.8747C146.56 86.7187 146.619 86.6211 146.658 86.5822C146.658 86.543 151.928 78.4041 162.468 62.1653L167.327 54.6705C167.64 54.124 167.952 53.5778 168.264 53.0312L170.665 56.0174C170.704 55.9001 170.762 55.5684 170.841 55.0219L171.426 41.8477L159.423 50.572Z" fill="white"/>
<defs>
<linearGradient id="paint0_linear_1779_800" x1="31.3345" y1="265.042" x2="244.55" y2="52.4916" gradientUnits="userSpaceOnUse">
<stop offset="0.176471" stop-color="#920BBC"/>
<stop offset="0.839216" stop-color="#0049DD"/>
</linearGradient>
</defs>
</svg>
