<svg width="256" height="256" viewBox="0 0 256 256" fill="none" xmlns="http://www.w3.org/2000/svg">
<circle cx="128" cy="128" r="126" fill="#0B0223"/>
<path d="M44.7895 177.968C47.4588 178.679 50.3059 179.035 53.331 179.213C57.7797 179.569 62.5843 179.391 67.9227 178.679C71.4816 178.146 76.1083 177.434 81.8026 176.366C83.4041 176.01 84.8277 176.01 86.0733 176.366C87.319 176.722 88.5646 177.434 89.9882 178.679C97.284 185.264 105.292 189.712 113.833 192.026C118.638 193.271 123.442 193.983 128.425 193.983C132.696 193.983 136.966 193.449 141.237 192.559C153.515 189.89 164.014 183.484 172.2 173.519C180.385 163.554 184.656 152.165 185.19 139.531C185.368 136.15 185.724 134.726 185.902 134.193C186.258 132.947 186.969 132.057 188.037 131.345C190.35 129.744 193.198 127.609 196.223 125.295C198.002 123.872 200.493 121.914 204.052 119.067C209.569 114.618 213.662 109.814 216.153 104.297C217.754 100.916 217.22 98.0693 216.687 96.4678C215.975 94.8663 214.551 92.5529 210.992 91.1294C208.145 90.0617 204.942 89.3499 201.027 89.1719C192.308 88.8161 182.699 89.8837 172.556 92.375C171.132 92.7309 169.887 92.7309 168.641 92.5529C167.573 92.1971 166.328 91.6632 165.26 90.5955C153.159 79.9187 139.635 74.5803 125.222 74.7582H121.663C120.061 74.7582 118.638 74.9362 117.392 75.1141C103.334 77.4274 91.5897 83.8335 82.6923 94.6883C73.795 105.187 69.3463 117.821 68.9904 132.235C68.9904 134.371 68.1006 135.972 66.3212 137.396C59.3812 142.734 54.2207 146.827 50.8397 149.496C47.9926 151.809 45.6793 153.945 43.8998 155.724C41.4085 158.393 39.4511 161.241 38.2055 164.266C36.604 168.003 37.1378 171.028 38.0275 172.807C38.9173 174.409 40.6968 176.9 44.7895 177.968Z" fill="#212121"/>
<path d="M46.569 165.333C49.2382 166.045 52.0854 166.401 55.1105 166.579C59.5592 166.935 64.3637 166.757 69.7022 166.045C73.2611 165.511 77.8878 164.8 83.5821 163.732C85.1836 163.376 86.6072 163.376 87.8528 163.732C89.0984 164.088 90.3441 164.8 91.7677 166.045C99.0635 172.629 107.071 177.078 115.613 179.391C120.417 180.637 125.222 181.349 130.204 181.349C134.475 181.349 138.746 180.815 143.016 179.925C155.295 177.256 165.794 170.85 173.979 160.885C182.165 150.92 186.436 139.531 186.969 126.897C187.147 123.516 187.503 122.092 187.681 121.558C188.037 120.313 188.749 119.423 189.817 118.711C192.13 117.11 194.977 114.974 198.002 112.661C199.782 111.237 202.273 109.28 205.832 106.433C211.348 101.984 215.441 97.1796 217.932 91.6632C219.534 88.2822 219 85.435 218.466 83.8335C217.754 82.232 216.331 79.9187 212.772 78.4951C209.925 77.4274 206.722 76.7156 202.807 76.5377C194.087 76.1818 184.478 77.2495 174.335 79.7407C172.912 80.0966 171.666 80.0966 170.42 79.9187C169.353 79.5628 168.107 79.0289 167.039 77.9612C154.939 67.2844 141.415 61.946 127.001 62.1239H123.442C121.841 62.1239 120.417 62.3019 119.172 62.4798C105.114 64.7931 93.3692 71.1993 84.4718 82.054C75.5744 92.5529 71.1257 105.187 70.7698 119.601C70.7698 121.736 69.8801 123.338 68.1006 124.761C61.1607 130.1 56.0002 134.193 52.6192 136.862C49.7721 139.175 47.4588 141.31 45.6793 143.09C43.188 145.759 41.2306 148.606 39.985 151.631C38.3835 155.368 38.9173 158.393 39.807 160.173C40.6968 161.952 42.4762 164.444 46.569 165.333Z" fill="url(#paint0_linear_741_46)"/>
<path d="M213.128 96.6459C213.84 95.2223 214.017 93.9766 213.484 92.731C213.128 91.6633 212.06 90.7736 210.636 90.2398C208.323 89.35 205.476 88.8162 202.273 88.6382C193.909 88.2823 185.012 89.1721 175.225 91.6633C172.912 92.1972 170.776 92.3751 168.997 91.8413C167.039 91.3074 165.26 90.4177 163.48 88.8162C152.27 78.8511 139.991 74.0465 127.001 74.2245C125.4 74.2245 124.154 74.2245 123.442 74.2245C122.019 74.2245 120.773 74.4024 119.883 74.5804C107.071 76.7158 96.3943 82.588 88.2087 92.3751C80.0231 101.984 75.9303 113.551 75.7524 126.719C75.7524 130.456 74.1509 133.481 71.1258 135.794C64.1858 141.133 59.0253 145.225 55.6443 147.895C52.9751 150.03 50.8398 151.987 49.2382 153.589C47.1029 155.902 45.5013 158.216 44.4337 160.707C43.7219 162.486 43.5439 163.91 44.2557 165.156C44.7895 166.401 46.0352 167.291 47.8146 167.647C50.3059 168.181 52.7972 168.715 55.4664 168.715C59.5592 168.892 64.1858 168.892 68.9904 168.181C72.5493 167.825 76.998 166.935 82.3364 165.867C84.8277 165.334 86.9631 165.334 88.9205 166.045C90.8779 166.579 92.8353 167.825 94.7927 169.426C101.555 175.477 108.851 179.569 116.68 181.705C124.688 183.84 132.873 184.018 141.771 182.239C152.982 179.747 162.413 174.053 169.887 164.8C177.36 155.724 181.275 145.403 181.809 133.659C181.987 130.634 182.165 128.498 182.699 127.075C183.411 124.762 184.834 122.982 186.792 121.558C189.105 119.957 191.774 118 194.799 115.508C196.579 114.085 199.07 112.127 202.629 109.28C207.433 105.543 210.992 101.272 213.128 96.6459Z" fill="url(#paint1_linear_741_46)"/>
<defs>
<linearGradient id="paint0_linear_741_46" x1="128.91" y1="424.874" x2="128.91" y2="-3.63133" gradientUnits="userSpaceOnUse">
<stop offset="0.1296" stop-color="#FFFC87"/>
<stop offset="0.2255" stop-color="white"/>
<stop offset="0.3162" stop-color="#55FFFC"/>
<stop offset="0.3903" stop-color="#F6EDCB"/>
<stop offset="0.4313" stop-color="#7694B1"/>
<stop offset="0.4709" stop-color="#ECF8FF"/>
<stop offset="1" stop-color="#D4FFFF"/>
</linearGradient>
<linearGradient id="paint1_linear_741_46" x1="114.04" y1="453.677" x2="114.04" y2="55.8475" gradientUnits="userSpaceOnUse">
<stop stop-color="#FF7400"/>
<stop offset="0.1629" stop-color="#FFB900"/>
<stop offset="0.3226" stop-color="#68DB34"/>
<stop offset="0.4558" stop-color="#00F3FF"/>
<stop offset="0.6552" stop-color="#2B93F1"/>
<stop offset="1" stop-color="#00E662"/>
</linearGradient>
</defs>
</svg>
