<svg width="256" height="256" viewBox="0 0 256 256" fill="none" xmlns="http://www.w3.org/2000/svg">
<g clip-path="url(#clip0_2554_1143)">
<path d="M256 128C256 57.3075 198.692 0 128 0C57.3075 0 0 57.3075 0 128C0 198.692 57.3075 256 128 256C198.692 256 256 198.692 256 128Z" fill="#DE738C"/>
<path d="M64.728 104.074C63.357 103.481 62.4713 102.141 62.4713 100.661V54.7476C62.4713 52.6896 64.1575 51.0212 66.2375 51.0212L95.5456 48.0506C102.301 48.0506 102.645 52.6896 102.645 54.7475V111.628C102.645 113.076 103.493 114.393 104.82 115.005L126.7 125.1C127.709 125.566 128.874 125.566 129.884 125.1L153.652 114.134C154.978 113.522 155.826 112.205 155.826 110.757V54.9912C155.826 52.9332 157.513 51.2649 159.593 51.2649L188.623 48.0505C194.628 48.0505 196 52.9332 196 54.9912V100.904C196 102.385 195.114 103.725 193.743 104.318L187.692 106.938L145.068 126.834C142.181 128.181 142.191 132.247 145.083 133.581L154.439 137.898C154.502 137.927 154.575 137.881 154.574 137.811C154.572 137.744 154.642 137.697 154.705 137.723L193.705 154.093C195.096 154.677 196 156.028 196 157.524V203.406C196 205.465 194.314 207.133 192.234 207.133H159.526C154.094 207.133 152.621 205.495 152.621 201.039L154.766 148.48C154.741 147.068 153.91 145.791 152.621 145.183L130.923 134.95C129.903 134.468 128.718 134.466 127.696 134.943L104.804 145.629C103.486 146.244 102.645 147.557 102.645 148.999V203.406C102.645 205.465 100.959 207.133 98.8786 207.133H66.2375C59.5156 207.133 59.5156 203.098 59.5156 201.039L62.4713 157.494C62.4713 156.013 63.357 154.673 64.728 154.08L102.645 137.667L112.613 133.068C115.498 131.737 115.516 127.683 112.641 126.327L73.6125 107.92L64.728 104.074Z" fill="url(#paint0_linear_2554_1143)" stroke="url(#paint1_linear_2554_1143)" stroke-width="0.5"/>
<path d="M61.7255 101.104C60.3546 100.51 59.4688 99.1703 59.4688 97.6899V51.7769C59.4688 49.7189 61.1551 48.0505 63.235 48.0505H95.8762C97.9563 48.0505 99.6425 49.7189 99.6425 51.7769V108.657C99.6425 110.105 100.491 111.422 101.817 112.034L123.698 122.129C124.707 122.595 125.872 122.595 126.881 122.129L150.649 111.163C151.976 110.551 152.824 109.234 152.824 107.786V52.0205C152.824 49.9626 155.017 48.0505 157.097 48.0505H188.623C190.703 48.0505 192.998 49.9626 192.998 52.0206V97.9336C192.998 99.4141 192.112 100.754 190.741 101.348L184.689 103.967L142.065 123.864C139.179 125.211 139.188 129.276 142.08 130.611L151.436 134.927C151.5 134.957 151.572 134.91 151.571 134.841C151.57 134.773 151.64 134.726 151.703 134.753L190.702 151.122C192.094 151.707 192.998 153.057 192.998 154.553V200.436C192.998 202.494 191.311 204.162 189.231 204.162H156.524C154.47 204.162 152.63 203.071 152.593 201.039L151.764 145.509C151.738 144.097 150.908 142.82 149.619 142.212L127.921 131.979C126.9 131.498 125.716 131.495 124.693 131.973L101.802 142.658C100.483 143.273 99.6425 144.586 99.6425 146.028V200.436C99.6425 202.494 97.9563 204.162 95.8762 204.162H63.235C61.155 204.162 59.4688 202.494 59.4688 200.436V154.523C59.4688 153.043 60.3546 151.702 61.7255 151.109L99.6425 134.696L109.61 130.098C112.496 128.766 112.513 124.712 109.639 123.357L70.61 104.95L61.7255 101.104Z" fill="url(#paint2_linear_2554_1143)" stroke="url(#paint3_linear_2554_1143)" stroke-width="0.5"/>
</g>
<defs>
<linearGradient id="paint0_linear_2554_1143" x1="-74.8464" y1="-9.13488" x2="75.747" y2="270.282" gradientUnits="userSpaceOnUse">
<stop stop-color="#BD497D"/>
<stop offset="1" stop-color="#D1588E"/>
</linearGradient>
<linearGradient id="paint1_linear_2554_1143" x1="-131.142" y1="12.4033" x2="214.991" y2="163.88" gradientUnits="userSpaceOnUse">
<stop stop-color="#B86194"/>
<stop offset="1" stop-color="#BE3797"/>
</linearGradient>
<linearGradient id="paint2_linear_2554_1143" x1="-285.772" y1="126.107" x2="300.503" y2="118.443" gradientUnits="userSpaceOnUse">
<stop stop-color="#622B51"/>
<stop offset="1" stop-color="#702245"/>
</linearGradient>
<linearGradient id="paint3_linear_2554_1143" x1="-134.146" y1="9.43158" x2="212.229" y2="160.095" gradientUnits="userSpaceOnUse">
<stop stop-color="#B86194"/>
<stop offset="1" stop-color="#BE3797"/>
</linearGradient>
<clipPath id="clip0_2554_1143">
<rect width="256" height="256" fill="white"/>
</clipPath>
</defs>
</svg>
