<svg width="256" height="256" viewBox="0 0 256 256" fill="none" xmlns="http://www.w3.org/2000/svg">
<path d="M127.849 1.63997C197.611 1.4113 255.409 58.7631 254.383 130.131C253.401 198.219 197.957 254.896 127.509 254.773C57.3909 254.651 0.624684 197.583 1.22146 127.08C1.80708 57.0453 58.986 1.39457 127.849 1.63997Z" fill="#EA4747"/>
<path d="M217.221 128.279C217.271 177.505 176.986 218.409 126.26 217.606C77.4416 216.831 37.3852 176.607 38.3946 126.26C39.3707 77.4307 79.6781 38.1104 129.054 38.7574C177.538 39.3988 217.31 78.9812 217.221 128.279Z" fill="black"/>
<path d="M35.9911 77.1574C33.8549 75.2555 31.7132 73.3537 29.5771 71.4518C28.7795 70.7435 27.9987 70.024 27.1789 69.3436C26.7382 68.981 26.6378 68.6743 26.9502 68.15C27.6752 66.9341 28.3557 65.6904 29.0082 64.4299C29.2927 63.8833 29.566 63.8108 30.107 64.112C35.6397 67.2018 41.178 70.2805 46.7274 73.3425C47.2852 73.6493 47.4079 73.9058 47.09 74.5193C45.6231 77.3526 45.6454 77.3638 42.8902 75.83C40.2745 74.3743 37.6643 72.9186 35.0373 71.4741C34.7083 71.29 34.4127 70.9777 33.7545 71.0446C34.435 71.6749 34.9983 72.2103 35.5783 72.729C38.0826 74.9488 40.5756 77.1853 43.1189 79.3716C43.777 79.9405 43.9834 80.4257 43.4033 81.1341C43.2304 81.346 43.1022 81.6025 43.0073 81.8591C42.7173 82.6176 42.2934 82.7794 41.4736 82.5228C37.8706 81.3906 34.2453 80.3365 30.6256 79.2601C30.1906 79.1318 29.7612 78.892 29.2034 79.1318C32.7841 81.1173 36.3034 83.1029 39.8617 85.0215C40.7039 85.4732 40.8489 85.819 40.3414 86.6779C39.0251 88.9312 39.0697 88.9646 36.7663 87.6874C31.808 84.9378 26.8609 82.1603 21.886 79.4497C21.0772 79.0091 21.0382 78.6633 21.4955 77.9438C22.1314 76.951 22.7058 75.9137 23.2078 74.8484C23.5815 74.062 24.0109 73.917 24.8419 74.1735C28.2609 75.2276 31.7077 76.2093 35.1433 77.2132C35.3608 77.2801 35.5839 77.3303 35.807 77.3917C35.8683 77.3136 35.9241 77.2355 35.9855 77.1574H35.9911Z" fill="#F0F0F0"/>
<path d="M189.507 37.6361C187.125 40.7705 184.733 43.8994 182.385 47.0562C181.939 47.6586 181.621 47.8036 181.035 47.2681C180.371 46.6602 179.155 46.1973 179.066 45.5447C178.977 44.8978 179.964 44.0835 180.505 43.3584C183.863 38.8854 187.243 34.4291 190.567 29.9338C191.052 29.2756 191.359 29.1585 192 29.7051C192.898 30.4692 193.852 31.1775 194.833 31.8356C195.531 32.2986 195.709 32.6834 195.307 33.5367C193.657 37.0449 192.106 40.6032 190.489 44.2229C191.08 44.2675 191.325 43.8492 191.621 43.5927C194.326 41.3004 197.025 39.0081 199.697 36.6768C200.238 36.2027 200.606 36.1302 201.186 36.6154C202.179 37.452 203.238 38.2161 204.298 38.9579C204.811 39.3148 204.967 39.577 204.532 40.1514C200.701 45.2045 196.891 50.2743 193.104 55.3553C192.708 55.8907 192.43 55.8517 191.983 55.478C191.203 54.8254 189.931 54.3235 189.736 53.5371C189.58 52.918 190.706 51.9587 191.297 51.1723C193.394 48.3669 195.497 45.567 197.678 42.6668C197.098 42.5943 196.891 42.968 196.629 43.1911C193.606 45.7734 190.578 48.3557 187.583 50.9715C187.008 51.4735 186.635 51.5125 186.01 51.0161C184.482 49.7947 184.448 49.8337 185.257 48.0601C186.674 44.9424 188.096 41.8302 189.513 38.7181C189.624 38.4671 189.702 38.205 189.797 37.9484C189.808 37.7476 189.953 37.4353 189.518 37.6361H189.507Z" fill="#F0F0F0"/>
<path d="M112.244 232.079C111.747 235.9 111.24 239.72 110.777 243.54C110.693 244.21 110.493 244.483 109.823 244.254C109.784 244.243 109.745 244.238 109.706 244.232C106.806 243.825 106.862 243.83 107.258 240.902C107.988 235.526 108.669 230.138 109.316 224.75C109.433 223.769 109.617 223.373 110.788 223.518C114.402 223.964 114.38 223.897 114.77 227.472C115.111 230.551 115.529 233.624 116.142 236.697C116.466 234.193 116.795 231.694 117.118 229.19C117.291 227.863 117.448 226.535 117.615 225.208C117.632 225.052 117.615 224.806 117.698 224.756C118.764 224.17 119.812 224.834 120.878 224.84C121.614 224.84 121.402 225.498 121.352 225.927C121.028 228.621 120.677 231.315 120.331 234.003C119.89 237.433 119.411 240.863 119.037 244.305C118.937 245.203 118.641 245.465 117.793 245.303C117.024 245.158 116.237 245.002 115.456 245.007C114.229 245.018 113.928 244.388 113.817 243.289C113.465 239.77 113.014 236.256 112.59 232.743C112.562 232.52 112.478 232.308 112.417 232.085C112.361 232.085 112.3 232.079 112.244 232.073V232.079Z" fill="#F0F0F0"/>
<path d="M215.241 64.3294C212.363 66.3205 209.474 68.2949 206.624 70.3251C205.954 70.8047 205.609 70.8995 205.079 70.1131C203.573 67.8766 203.539 67.9101 205.754 66.3651C210.333 63.1693 214.923 59.9791 219.479 56.7554C220.171 56.2646 220.584 56.0973 221.08 56.9896C221.671 58.0438 222.976 59.0477 222.926 60.0181C222.876 60.9886 221.554 61.9089 220.768 62.8347C218.933 64.9931 217.087 67.1404 215.246 69.2933C215.19 69.5219 215.04 69.6892 214.884 69.8398C214.839 69.8566 214.817 69.8677 214.817 69.8677C214.856 69.9625 214.878 69.957 214.9 69.8566C215.062 69.6558 215.33 69.7004 215.52 69.5721C218.464 67.5364 221.42 65.5174 224.337 63.4426C225.018 62.9574 225.308 63.0299 225.771 63.7103C227.299 65.9524 227.321 65.919 225.146 67.436C220.528 70.6541 215.91 73.8667 211.32 77.1294C210.589 77.6481 210.238 77.6035 209.792 76.8394C209.178 75.7909 207.929 74.8148 207.918 73.7998C207.906 72.7679 209.312 71.9258 210.093 70.9999C211.9 68.8694 213.718 66.75 215.531 64.625C215.586 64.4967 215.642 64.374 215.631 64.229C215.492 64.2513 215.358 64.2848 215.23 64.3294H215.241Z" fill="#F0F0F0"/>
<path d="M237.399 86.103C237.444 86.6608 236.964 86.6162 236.68 86.7221C234.655 87.4806 232.631 88.2336 230.584 88.9307C229.953 89.1483 229.725 89.3491 229.987 90.0685C230.935 92.701 230.907 92.7122 233.523 91.7529C235.001 91.2119 236.484 90.6988 237.946 90.1187C238.543 89.8845 238.855 89.9179 239.05 90.6039C239.334 91.619 240.188 92.7568 239.931 93.5655C239.652 94.4356 238.135 94.4467 237.159 94.8093C232.034 96.7 226.88 98.5238 221.755 100.42C220.94 100.721 220.572 100.632 220.349 99.7675C220.104 98.825 219.284 97.7206 219.563 97.029C219.886 96.2203 221.303 96.198 222.246 95.8355C223.863 95.2164 225.492 94.6252 227.126 94.0731C227.739 93.8667 227.884 93.6324 227.656 92.9687C226.752 90.3362 226.78 90.3251 224.192 91.2509C222.452 91.8756 220.717 92.5002 218.983 93.1528C218.403 93.3703 217.996 93.4819 217.789 92.662C217.533 91.6413 216.646 90.4812 216.925 89.706C217.215 88.8973 218.726 88.8415 219.713 88.479C224.772 86.6273 229.847 84.837 234.889 82.9407C235.932 82.5503 236.334 82.7343 236.585 83.7717C236.774 84.5693 237.126 85.3278 237.405 86.0919L237.399 86.103Z" fill="#F0F0F0"/>
<path d="M163.69 38.2272C162.596 37.8591 161.498 37.53 160.438 37.1173C159.925 36.9165 160.304 36.4982 160.399 36.2082C161.158 33.888 161.91 31.5678 162.719 29.27C162.965 28.5672 162.864 28.2716 162.106 28.0206C159.557 27.184 159.574 27.1506 158.72 29.6994C158.123 31.4897 157.482 33.2633 156.93 35.0648C156.724 35.7341 156.456 35.801 155.826 35.6058C152.719 34.6521 152.708 34.6688 153.745 31.5567C155.474 26.3697 157.22 21.1884 158.91 15.9847C159.172 15.176 159.417 14.9696 160.276 15.2708C163.188 16.2971 163.199 16.258 162.245 19.1248C161.771 20.5414 161.33 21.9692 160.812 23.3691C160.594 23.9492 160.7 24.1834 161.286 24.4009C163.985 25.4216 163.98 25.4383 164.883 22.7222C165.38 21.2274 165.882 19.7383 166.356 18.238C166.54 17.6523 166.757 17.3791 167.443 17.6747C168.408 18.093 169.853 18.132 170.304 18.8347C170.773 19.5598 169.875 20.7757 169.551 21.7628C167.85 26.9554 166.116 32.1311 164.365 37.3069C164.253 37.6415 164.342 38.2439 163.69 38.2272Z" fill="#F0F0F0"/>
<path d="M125.618 23.0234C125.574 25.0815 125.367 27.0336 124.47 28.8406C122.456 32.8842 116.812 33.3415 114.179 29.6661C112.908 27.8925 112.372 25.8456 112.054 23.7262C111.67 21.1383 111.547 18.556 112.171 15.9904C113.114 12.1253 116.438 10.1007 120.136 11.1493C122.451 11.8074 123.639 13.5754 124.425 15.6781C125.317 18.0708 125.524 20.5806 125.613 23.029L125.618 23.0234Z" fill="#F0F0F0"/>
<path d="M202.089 63.9723C197.99 63.9556 195.145 59.8785 196.595 55.9354C197.99 52.1539 200.884 49.6051 204.069 47.3518C204.872 46.7829 205.753 46.3423 206.696 46.03C209.155 45.2101 211.347 45.5894 213.193 47.5024C215.056 49.4322 215.608 51.7077 214.459 54.1171C212.307 58.6236 208.832 61.8139 204.186 63.6879C203.517 63.9556 202.808 63.989 202.095 63.9723H202.089Z" fill="#F0F0F0"/>
<path d="M64.2506 54.0389C62.8061 54.1059 61.5289 53.576 60.3911 52.7729C56.9332 50.33 54.3006 47.1788 52.8896 43.1631C51.3112 38.6734 54.7468 34.2394 59.2701 34.8083C61.0994 35.0369 62.5942 35.9962 63.9048 37.2232C66.8106 39.9506 69.3149 42.9623 70.1403 47.0003C70.8821 50.6423 67.993 54.0501 64.2506 54.0334V54.0389Z" fill="#F0F0F0"/>
<path d="M90.6541 230.991C90.6541 232.442 90.2804 233.786 89.5219 235.024C88.5068 236.686 87.0009 237.511 85.0823 237.394C84.3963 237.355 84.2067 237.606 83.9891 238.119C83.1414 240.116 83.1525 240.049 81.0889 239.263C80.1854 238.917 80.1631 238.515 80.5647 237.807C81.1168 236.837 81.2674 236.067 80.2356 235.102C78.7353 233.691 78.5903 230.278 79.6277 228.549C79.8117 228.242 79.979 228.18 80.2746 228.314C80.6372 228.471 80.9997 228.616 81.3622 228.772C81.9702 229.039 82.7621 229.162 83.1358 229.625C83.5039 230.082 82.9294 230.78 82.8458 231.393C82.6562 232.799 83.3701 233.914 84.558 234.037C85.6791 234.148 86.5213 233.211 86.5882 231.783C86.6272 230.925 86.3372 230.16 85.9245 229.43C85.3277 228.37 84.6696 227.333 84.123 226.245C82.7566 223.518 83.0298 220.919 84.8536 218.487C85.7125 217.344 86.8949 216.691 88.306 216.758C89.2263 216.803 89.5776 216.423 89.8063 215.676C89.9067 215.341 90.074 215.024 90.1967 214.689C90.3696 214.204 90.6262 213.936 91.1505 214.271C91.2174 214.31 91.2955 214.326 91.368 214.354C93.4874 215.18 93.532 215.202 92.6675 217.26C92.383 217.941 92.6675 218.242 93.0635 218.666C94.4411 220.127 94.7255 222.899 93.7607 224.644C93.5543 225.018 93.3535 225.063 93.0133 224.918C92.5783 224.734 92.1544 224.505 91.7082 224.377C90.5537 224.053 89.8621 223.613 90.4812 222.19C90.8772 221.287 90.4031 220.467 89.4103 220.16C88.451 219.865 87.9546 220.5 87.5921 221.259C87.1905 222.101 87.2742 222.966 87.6758 223.769C88.2223 224.856 88.8247 225.916 89.4215 226.981C90.2804 228.521 90.6485 229.686 90.6541 230.991Z" fill="#F0F0F0"/>
<path d="M147.131 236.948C147.131 238.37 146.969 239.77 146.539 241.137C145.831 243.384 144.325 244.74 141.988 245.046C139.707 245.348 137.922 244.45 136.662 242.52C135.217 240.311 134.777 237.79 134.437 235.258C134.13 232.955 134.013 230.64 134.615 228.348C135.301 225.749 136.846 224.332 139.412 223.992C141.838 223.674 143.74 224.689 145.039 227.004C146.255 229.168 147.12 233.301 147.125 236.954L147.131 236.948Z" fill="#F0F0F0"/>
<path d="M162.993 235.581C162.909 237.929 162.435 240.244 159.925 241.493C157.27 242.81 154.515 242.034 152.669 239.458C150.94 237.043 150.165 234.232 149.54 231.382C149.127 229.491 148.877 227.589 149.289 225.654C149.747 223.501 150.979 222.051 153.115 221.443C155.263 220.829 157.17 221.242 158.715 222.921C160.734 225.113 161.526 227.885 162.268 230.657C162.686 232.213 162.948 233.808 162.987 235.581H162.993Z" fill="#F0F0F0"/>
<path d="M167.7 222.391C167.7 220.629 167.739 218.978 167.677 217.338C167.655 216.78 167.739 216.468 168.285 216.261C169.239 215.91 170.17 215.497 171.286 215.04V222.648C171.286 226.513 171.336 226.457 174.192 229.14C175.876 230.724 177.371 232.508 178.96 234.209C178.073 234.583 176.952 235.012 175.87 235.531C175.212 235.844 174.928 235.414 174.582 235.057C173.333 233.763 172.094 232.458 170.806 231.108C170.806 232.938 170.75 234.633 170.828 236.329C170.867 237.277 170.661 237.89 169.663 238.136C168.837 238.337 167.911 239.285 167.326 238.889C166.684 238.454 167.231 237.282 167.231 236.435C167.231 233.719 167.231 231.002 167.276 228.286C167.287 227.678 167.08 227.277 166.645 226.864C164.476 224.8 162.356 222.687 160.192 220.623C159.702 220.154 159.562 219.943 160.321 219.602C163.45 218.208 163.427 218.197 165.859 220.651C166.428 221.225 166.896 221.917 167.688 222.402L167.7 222.391Z" fill="#F0F0F0"/>
<path d="M41.3167 53.1971C43.4528 53.4258 45.5499 54.8982 46.8215 57.408C47.9649 59.6724 47.3123 61.803 45.7562 63.6435C45.1372 64.3797 45.3268 64.6753 45.9905 65.1717C47.5354 66.3206 49.0022 67.5811 50.5416 68.7468C51.0547 69.1372 51.1997 69.4105 50.7089 69.9348C49.9839 70.7044 49.5209 72.1211 48.6453 72.2103C47.9035 72.2884 47.0279 71.1339 46.2247 70.5036C41.9302 67.1126 37.6524 63.7049 33.3355 60.3417C32.6718 59.8286 32.6327 59.494 33.1682 58.8749C34.1442 57.7427 35.0254 56.5268 35.9792 55.3779C37.1727 53.9445 38.6674 53.0912 41.3167 53.1916V53.1971Z" fill="#F0F0F0"/>
<path d="M174.063 43.2916C173.913 43.2247 173.734 43.1466 173.556 43.063C171.185 41.9085 168.832 40.7261 166.439 39.6218C165.742 39.2983 165.742 39.0082 166.043 38.3947C168.815 32.7449 171.57 27.095 174.286 21.4173C174.61 20.7425 174.855 20.6923 175.491 21.0102C177.739 22.1424 180.003 23.2355 182.284 24.2952C182.909 24.5852 183.06 24.8251 182.719 25.5055C181.66 27.6193 181.699 27.6305 179.607 26.6042C178.765 26.1915 177.744 25.3382 177.103 25.5557C176.462 25.7788 176.166 27.0727 175.759 27.9205C174.755 30.0176 174.76 30.0232 176.902 31.0717C177.081 31.1609 177.254 31.2446 177.432 31.3338C179.139 32.1816 179.061 32.1537 178.313 33.9719C177.906 34.9591 177.477 34.9703 176.673 34.5185C175.787 34.0165 174.833 33.6317 173.929 33.152C173.467 32.9066 173.249 33.0126 173.037 33.4699C172.407 34.8252 171.754 36.1694 171.074 37.5024C170.801 38.0322 170.985 38.2609 171.464 38.4784C172.608 39.0027 173.718 39.5994 174.872 40.0958C175.558 40.3914 175.636 40.7484 175.29 41.3507C175.017 41.8248 174.811 42.3435 174.549 42.8287C174.448 43.0184 174.409 43.3028 174.058 43.2972L174.063 43.2916Z" fill="#F0F0F0"/>
<path d="M89.89 29.1476C89.9123 29.6217 89.5665 29.6384 89.3378 29.7444C88.3339 30.1961 87.3244 30.6368 86.2982 31.0439C85.7237 31.2726 85.4894 31.518 85.8074 32.1761C86.4209 33.4477 86.973 34.7584 87.4917 36.0747C87.7315 36.6826 88.0048 36.7272 88.5514 36.4707C89.6892 35.9352 90.8772 35.5002 92.0094 34.948C92.6396 34.6413 92.8962 34.8365 93.1694 35.411C94.1734 37.5359 94.1901 37.5248 92.054 38.4506C90.1019 39.2928 88.1443 40.1182 86.2145 40.9995C85.5675 41.2951 85.2385 41.3174 84.9038 40.5421C82.4554 34.7863 79.9567 29.0472 77.4469 23.3137C77.1513 22.6444 77.1848 22.3209 77.9321 22.0142C80.2635 21.0605 82.5669 20.0342 84.8648 19.0136C85.4337 18.7626 85.7181 18.7961 86.0026 19.4374C86.9786 21.6293 87.0009 21.6015 84.7811 22.5998C83.9278 22.9846 82.6171 23.085 82.3606 23.8547C82.143 24.5017 82.9294 25.4889 83.2864 26.3199C83.9222 27.7886 84.967 28.2032 86.4209 27.5636C86.6718 27.4521 86.9172 27.3127 87.1794 27.2402C87.7204 27.0951 88.3618 26.3757 88.741 26.8107C89.3099 27.4632 89.5442 28.4058 89.8844 29.1532L89.89 29.1476Z" fill="#F0F0F0"/>
<path d="M98.078 14.6963C98.407 14.6238 98.6134 14.741 98.6803 15.0812C98.6859 15.1202 98.6915 15.1593 98.7082 15.1983C99.37 16.7786 98.8774 17.8104 97.2302 18.2937C95.3823 18.8366 94.7446 20.0506 95.3172 21.9357C95.7596 23.397 96.7245 23.9045 98.2118 23.4583C98.2843 23.436 98.368 23.4249 98.4405 23.4026C100.766 22.6998 100.733 22.7054 101.38 25.0089C101.558 25.6447 101.38 25.851 100.828 26.0016C99.7679 26.2972 98.7305 26.6653 97.6597 26.9275C97.0517 27.078 96.8956 27.3234 97.0852 27.9146C97.5202 29.2588 97.9441 30.6141 98.3011 31.9805C98.4795 32.6665 98.7696 32.7279 99.3942 32.516C100.582 32.1032 101.815 31.8355 103.003 31.4172C103.627 31.1997 103.8 31.3893 103.99 31.9526C104.782 34.2784 104.804 34.2728 102.445 34.9756C100.448 35.5668 98.4405 36.1189 96.4605 36.7659C95.7243 37.0057 95.4455 36.8886 95.2224 36.1301C93.4488 30.101 91.6306 24.083 89.8235 18.0595C89.6952 17.63 89.5112 17.2508 90.1693 17.0556C92.7349 16.3082 95.2893 15.5274 97.8493 14.7577C97.9218 14.7354 97.9999 14.7187 98.078 14.7019V14.6963Z" fill="#F0F0F0"/>
<path d="M22.1923 84.9987C21.7852 86.0919 21.3613 87.3189 20.8705 88.518C20.6084 89.1539 20.6697 89.4829 21.3948 89.7004C22.4824 90.0295 23.5588 90.4311 24.6073 90.8717C25.2543 91.145 25.5778 91.078 25.8009 90.353C26.1188 89.2989 26.565 88.2894 26.9052 87.2464C27.0725 86.7221 27.2566 86.5939 27.8255 86.7835C30.1512 87.542 30.1624 87.5141 29.3537 89.7897C28.7625 91.4517 29.309 92.5876 30.9934 93.1974C31.6961 93.454 32.4268 93.6548 33.096 93.9727C33.7988 94.3129 34.0553 94.0452 34.2673 93.3982C34.6577 92.2047 35.1262 91.0334 35.5389 89.8454C35.7118 89.3546 35.8903 89.204 36.4703 89.3881C38.8909 90.1689 38.8965 90.141 38.0376 92.4612C37.3014 94.4523 36.554 96.4379 35.8513 98.4401C35.6393 99.0481 35.4218 99.2321 34.7525 98.9811C28.8182 96.7837 22.8728 94.6196 16.9218 92.4612C16.3361 92.2493 16.1353 92.0262 16.3863 91.3736C17.301 88.9921 18.1767 86.5883 19.0244 84.1789C19.2419 83.5653 19.5041 83.3534 20.1399 83.6546C20.6697 83.9056 21.2498 84.0562 21.7964 84.2681C22.0529 84.3685 22.3318 84.4745 22.1812 84.9764L22.1923 84.9987Z" fill="#F0F0F0"/>
<path d="M61.8142 30.9491C63.1527 30.1404 64.2961 28.9469 65.5175 28.8576C66.7836 28.7628 67.676 30.3468 68.7524 31.1667C69.7786 31.9475 70.7546 32.7952 71.9092 33.7322C71.9928 32.3379 71.5411 31.2057 71.3626 30.0456C71.1785 28.8409 70.922 27.6473 70.6375 26.465C70.5204 25.9741 70.5539 25.6562 71.0391 25.3997C71.7697 25.0148 72.478 24.591 73.1752 24.1448C73.772 23.7655 73.9728 23.9161 74.062 24.591C74.5194 28.0601 75.0269 31.5236 75.4787 34.9983C75.6014 35.952 75.8635 36.8165 76.3822 37.6419C77.5479 39.5104 78.6187 41.4401 79.7788 43.3085C80.1469 43.8997 80.0465 44.1786 79.4665 44.4798C78.5295 44.965 77.5702 45.9745 76.7168 45.8797C75.897 45.7904 75.4954 44.3626 75.0604 43.4647C73.3816 39.9565 70.8829 37.2683 67.5923 35.2046C65.6068 33.9553 63.7941 32.4216 61.8086 30.9491H61.8142Z" fill="#F0F0F0"/>
<path d="M132.462 17.6639C132.563 18.4224 131.921 19.6828 132.59 20.235C133.17 20.7147 134.403 20.3856 135.346 20.4748C135.82 20.5195 136.584 20.3075 136.69 20.8541C136.863 21.7186 136.863 22.6556 136.584 23.5312C136.489 23.8268 136.099 23.7153 135.831 23.7097C134.927 23.6985 134.013 23.732 133.115 23.626C132.334 23.5368 132.183 23.8993 132.167 24.5463C132.105 26.5932 131.977 28.6345 131.949 30.6814C131.938 31.4901 131.676 31.8582 130.85 31.7243C130.655 31.6909 130.46 31.6964 130.259 31.6909C127.688 31.6239 127.699 31.6239 127.805 29.0974C128.045 23.4364 128.29 17.7754 128.497 12.1088C128.53 11.2109 128.776 10.8595 129.735 10.9264C131.893 11.0826 134.057 11.183 136.221 11.2109C137.175 11.222 137.515 11.4618 137.459 12.4769C137.348 14.5127 137.404 14.5182 135.418 14.4513C133.514 14.3844 132.533 15.3158 132.473 17.2456C132.473 17.3236 132.473 17.4017 132.473 17.6694L132.462 17.6639Z" fill="#F0F0F0"/>
<path d="M232.101 80.8437C231.683 80.9385 231.638 80.6541 231.533 80.4589C231.176 79.8007 230.78 79.1593 230.495 78.4733C230.177 77.6925 229.826 77.6702 229.101 78.0494C224.583 80.4477 220.032 82.7679 215.514 85.1606C214.745 85.5677 214.382 85.5398 214.048 84.6865C213.696 83.7774 212.72 82.8404 212.865 82.0763C213.016 81.2676 214.41 81.0612 215.263 80.6094C219.195 78.5458 223.139 76.4934 227.099 74.4744C227.857 74.0895 228.22 73.7047 227.612 72.9294C227.517 72.8067 227.467 72.6506 227.394 72.5111C226.273 70.4029 226.452 70.0348 228.783 69.2484C229.229 69.0978 229.346 69.2763 229.497 69.5719C231.137 72.7119 232.771 75.8464 234.399 78.9864C234.5 79.1761 234.7 79.4438 234.416 79.6055C233.63 80.0517 232.821 80.4589 232.096 80.8381L232.101 80.8437Z" fill="#F0F0F0"/>
<path d="M144.888 12.1142C148.285 12.7668 151.682 13.4193 155.078 14.0719C155.519 14.1555 155.72 14.3284 155.686 14.8638C155.536 17.2231 155.279 17.4462 153.009 16.9665C151.431 16.6374 151.442 16.6374 151.135 18.2381C150.204 23.1016 149.244 27.965 148.335 32.834C148.196 33.587 147.945 33.7599 147.181 33.6316C144.002 33.0962 144.018 33.1352 144.643 29.9617C145.507 25.6058 146.305 21.2332 147.192 16.8773C147.359 16.0574 147.17 15.706 146.361 15.6614C146.205 15.6503 146.048 15.6335 145.892 15.6056C143.416 15.1427 143.433 15.1483 144.074 12.6552C144.208 12.1309 144.442 12.0194 144.894 12.1198L144.888 12.1142Z" fill="#F0F0F0"/>
<path d="M99.5447 224.321C99.6005 224.092 99.277 224.087 99.0204 224.014C98.3009 223.814 97.5926 223.535 96.862 223.423C96.0756 223.3 95.9194 222.994 96.1258 222.246C96.7393 220.032 96.7058 220.038 98.9145 220.64C101.647 221.393 104.375 222.14 107.119 222.849C107.838 223.033 108.151 223.228 107.911 224.081C107.303 226.234 107.347 226.251 105.217 225.688C104.988 225.626 104.76 225.57 104.536 225.487C103.862 225.236 103.544 225.347 103.332 226.156C102.043 231.103 100.66 236.028 99.3495 240.969C99.1264 241.806 98.8643 242.197 97.9384 241.801C97.0405 241.421 95.7019 241.589 95.2501 240.852C94.8318 240.166 95.568 239.079 95.8079 238.175C96.9456 233.92 98.1057 229.67 99.2547 225.42C99.3383 225.119 99.4164 224.812 99.5447 224.316V224.321Z" fill="#F0F0F0"/>
<path d="M127.292 230.4C126.283 231.282 125.379 231.812 124.358 232.168C123.594 232.436 123.137 232.419 123.265 231.432C123.265 231.393 123.265 231.354 123.265 231.315C123.109 229.486 123.154 227.835 125.574 227.461C126.355 227.338 127.108 226.742 127.565 226.05C128.408 224.773 129.623 225.002 130.823 225.046C131.33 225.069 131.453 225.347 131.447 225.833C131.313 232.129 131.179 238.421 131.107 244.717C131.096 245.66 130.778 245.9 129.947 245.76C129.718 245.721 129.478 245.721 129.239 245.716C127.091 245.671 127.069 245.671 127.097 243.574C127.147 239.637 127.225 235.704 127.292 231.772C127.298 231.393 127.292 231.008 127.292 230.4Z" fill="#F0F0F0"/>
<path d="M62.7621 56.471C62.6227 56.6383 62.4832 56.8279 62.3215 56.9897C60.626 58.6908 58.9193 60.3751 57.235 62.093C56.8222 62.5113 56.5434 62.5782 56.0916 62.1208C51.5963 57.5976 47.0898 53.0911 42.5665 48.5958C42.1594 48.1886 42.1427 47.9432 42.5665 47.5584C43.353 46.8445 44.0111 45.6119 44.87 45.4613C45.8293 45.294 46.3926 46.7162 47.1288 47.4357C50.3079 50.5479 53.4424 53.6991 56.5657 56.867C57.0899 57.3968 57.4357 57.5251 57.9489 56.8949C58.3449 56.4096 58.8357 55.9969 59.2986 55.5786C59.7615 55.1603 60.2858 54.2289 60.6539 54.4074C61.4235 54.7811 61.9813 55.5953 62.6227 56.2312C62.6784 56.2814 62.7008 56.365 62.7565 56.471H62.7621Z" fill="#F0F0F0"/>
<path d="M215.241 64.3293C215.481 64.0504 215.749 63.805 216.173 63.7437C216.173 64.2177 215.844 64.4129 215.542 64.6304C215.442 64.5301 215.342 64.4352 215.241 64.3348V64.3293Z" fill="#EB6A6A"/>
<path d="M189.507 37.6362C189.618 37.3462 189.763 37.0896 190.137 36.9502C190.232 37.3741 190.009 37.6585 189.786 37.943C189.691 37.837 189.602 37.7366 189.507 37.6306V37.6362Z" fill="#EB5959"/>
<path d="M214.784 69.7728C214.94 69.6111 215.102 69.4493 215.258 69.2876C215.347 69.3824 215.436 69.4716 215.526 69.5665C215.291 69.7449 215.052 69.9234 214.817 70.1019C214.711 70.0015 214.7 69.8899 214.784 69.7672V69.7728Z" fill="#EB6565"/>
<path d="M56.1306 178.179C54.5467 176.467 53.4535 174.415 52.2878 172.429C46.1249 161.938 42.2207 150.661 40.9268 138.552C38.0768 111.91 45.5783 88.5181 63.66 68.7409C77.2576 53.8717 94.196 44.6691 114.129 41.7912C144.688 37.3851 170.879 46.5207 192.145 68.9417C204.287 81.7417 211.716 97.124 214.237 114.581C218.281 142.546 210.723 167.142 191.615 188.018C181.827 198.71 169.892 206.234 156.21 211.002C155.904 210.896 155.658 210.701 155.463 210.444C153.182 207.488 150.215 205.391 147.008 203.568C145.853 202.909 144.76 202.09 144.052 200.907C143.455 199.909 143.645 199.368 144.755 199.05C149.256 197.773 153.115 195.229 157.064 192.859C158.715 191.866 160.343 190.823 161.877 189.652C162.306 189.323 162.797 189.223 163.299 189.117C165.313 188.71 167.259 188.096 169.172 187.343C170.455 186.836 171.498 186.032 172.385 185.001C173.562 183.629 173.885 182.1 173.221 180.377C172.758 179.172 172.831 178.966 173.941 178.291C174.883 177.717 175.798 177.109 176.663 176.423C177.583 175.692 178.258 174.8 178.748 173.745C179.479 172.173 178.927 170.856 177.27 170.366C176.557 170.154 176.278 169.696 176.133 169.021C175.146 164.381 173.127 160.248 169.964 156.696C169.334 155.987 168.67 155.318 168.012 154.643C166.975 153.578 166.947 153.589 168.352 152.964C170.042 152.211 171.743 151.475 173.283 150.432C173.84 150.053 174.393 149.685 174.861 149.2C176.473 147.526 178.146 145.915 180.087 144.604C181.063 143.946 181.799 143.098 181.788 141.798C181.788 141.235 182.245 140.917 182.636 140.577C184.264 139.183 184.538 138.151 183.696 136.221C183.378 135.485 183.344 134.944 184.019 134.347C184.833 133.628 184.789 133.092 184.114 132.183C183.768 131.715 183.216 131.397 183.049 130.789C183.082 130.582 183.222 130.476 183.411 130.421C184.376 130.443 185.079 131.068 185.865 131.497C187.561 132.423 189.067 133.656 190.717 134.659C191.9 135.385 193.155 135.937 194.477 136.366C197.689 137.415 200.584 136.885 202.988 134.487C205.28 132.194 205.525 129.367 204.8 126.355C203.601 121.38 200.829 117.654 196.384 115.033C192.887 112.969 189.117 111.625 185.369 110.197C182.017 108.92 178.615 107.788 175.146 106.856C173.628 106.449 172.625 105.568 171.95 104.135C169.964 99.8903 168.994 95.3281 167.722 90.8606C166.222 85.59 164.649 80.3473 162.184 75.4225C160.332 71.7192 157.928 68.4453 155.006 65.5228C152.122 62.6448 149.055 60.0123 145.535 57.9431C140.968 55.2604 136.143 54.0892 130.817 55.0318C125.468 55.9743 120.069 56.6157 114.687 57.3854C112.116 57.7535 109.584 58.3838 107.096 59.1702C105.858 59.5606 104.631 59.9956 103.343 60.2299C102.874 60.3135 102.428 60.4753 102.015 60.7207C96.9735 63.7213 91.8256 66.5601 87.0402 69.979C81.0502 74.2624 76.0362 79.4103 73.108 86.3151C71.7472 89.5165 70.8715 92.8685 70.113 96.2595C68.9585 101.43 68.4677 106.661 68.1777 111.943C68.0104 115.016 68.0717 118.084 68.0048 121.151C67.9657 123.008 68.2167 124.843 68.5012 126.673C68.7075 128.017 69.1983 129.121 70.8381 129.143C71.0946 129.143 71.4348 129.21 71.4627 129.556C71.4906 129.857 71.2396 130.047 71.0221 130.214C66.075 133.946 63.2417 139.244 60.4809 144.565C57.7927 149.752 56.2031 155.296 55.4446 161.102C54.7921 166.082 55.0151 170.99 56.0748 175.882C56.2366 176.618 56.6437 177.387 56.1362 178.157L56.1306 178.179Z" fill="#EA4747"/>
<path d="M69.5665 193.283C68.5402 192.809 67.8542 191.922 67.0734 191.169C64.0282 188.224 61.1056 185.173 58.6516 181.699C57.0788 178.849 56.4653 175.709 56.0637 172.541C55.4223 167.465 55.5952 162.384 56.627 157.37C58.0493 150.449 60.916 144.13 64.77 138.229C66.0639 136.243 67.4025 134.308 69.0812 132.618C70.3194 131.374 71.7305 130.393 73.2308 129.506C74.2961 128.876 75.4896 128.831 76.6497 128.664C82.1155 127.872 87.5367 126.907 92.7849 125.111C94.8653 124.397 97.0014 124.804 99.0762 125.362C100.454 125.73 101.698 126.45 102.997 127.002C103.321 127.141 103.683 127.336 103.694 127.738C103.705 128.173 103.282 128.262 102.964 128.407C101.525 129.054 100.102 129.735 98.63 130.303C98.2786 130.437 97.8492 130.482 97.6818 131.001C98.2173 131.335 98.736 131.112 99.2491 130.973C101.017 130.488 102.618 129.634 104.163 128.675C105.295 127.972 106.321 128.106 107.347 128.831C108.089 129.355 108.134 129.874 107.325 130.248C104.43 131.581 101.575 133.042 98.3121 133.31C97.0739 133.41 95.8413 133.544 94.3466 133.594C95.0159 134.341 95.6405 134.302 96.2429 134.275C99.8849 134.102 103.281 133.02 106.533 131.425C106.673 131.358 106.812 131.274 106.951 131.201C109.556 129.835 110.956 129.98 113.192 131.86C113.839 132.401 113.856 132.841 113.059 133.187C109.634 134.687 106.343 136.584 102.601 137.197C100.504 137.543 98.3567 137.465 96.2596 136.918C95.7911 136.795 95.2947 136.522 94.7816 136.89C94.8764 137.47 95.3784 137.47 95.7632 137.571C97.0237 137.894 98.3065 138.151 99.6172 138.084C100.61 138.034 101.447 138.29 102.233 138.932C106.639 142.512 111.776 144.425 117.314 145.262C120.27 145.708 123.26 145.82 126.266 145.502C128.179 145.301 130.12 145.295 132.027 145C135.033 144.537 138 143.918 140.767 142.568C141.202 142.356 141.765 142.021 142.189 142.484C142.618 142.953 142.345 143.561 142.117 144.046C141.642 145.067 140.761 145.658 139.746 146.065C138.346 146.628 136.863 146.868 135.401 147.181C130.231 148.302 124.983 148.447 119.751 148.145C114.219 147.833 108.803 146.768 103.761 144.28C103.399 144.102 103.047 143.745 102.517 144.052C102.701 144.715 103.298 144.905 103.806 145.134C107.61 146.835 111.569 147.972 115.713 148.474C119.283 148.904 122.864 149.155 126.444 148.937C131.085 148.653 135.725 148.251 140.159 146.662C141.291 146.255 142.211 145.608 142.697 144.503C143.126 143.522 143.795 143.327 144.788 143.505C148.871 144.23 152.987 144.57 157.142 144.481C162.273 144.37 167.354 143.856 172.407 142.953C174.733 142.535 177.07 142.178 179.429 141.971C179.864 141.932 180.344 141.854 180.595 142.311C180.84 142.763 180.595 143.198 180.249 143.466C175.687 147.075 171.788 151.631 165.759 153.109C159.468 154.654 153.232 154.972 146.986 153.009C146.227 152.769 146.221 152.786 145.508 152.903C145.569 153.494 146.093 153.606 146.495 153.784C150.332 155.541 154.097 157.432 157.666 159.702C158.09 159.969 158.765 160.538 159.094 159.986C159.378 159.512 158.542 159.267 158.129 159.038C156.512 158.14 154.95 157.142 153.31 156.266C153.004 156.104 152.563 155.926 152.635 155.535C152.713 155.139 153.182 155.162 153.528 155.128C154.002 155.084 154.476 155.084 154.944 155.111C158.124 155.29 161.236 154.794 164.32 154.108C165.341 153.879 166.166 154.08 166.93 154.777C170.89 158.408 173.74 162.713 175.028 167.984C175.112 168.33 175.173 168.681 175.246 169.027C175.424 169.875 175.084 170.388 174.264 170.628C169.691 171.966 165.218 173.706 160.511 174.532C156.049 175.313 151.565 175.776 146.997 175.458C143.349 175.207 139.69 175.039 136.032 174.9C129.657 174.654 123.455 173.427 117.37 171.492C112.975 170.098 108.669 168.436 104.218 167.203C99.4164 165.87 95.2892 167.008 91.5412 170.098C90.7994 170.711 90.7381 171.263 91.3237 171.994C92.6009 173.578 94.1793 174.799 95.8413 175.954C98.6746 177.923 101.748 179.418 104.91 180.762C110.17 183.004 115.468 185.134 121.045 186.495C125.039 187.471 129.116 187.912 133.176 188.442C137.041 188.944 140.912 189.412 144.805 189.713C149.283 190.065 153.762 190.344 158.246 189.791C158.363 189.775 158.48 189.752 158.598 189.741C158.994 189.708 159.49 189.618 159.646 190.037C159.78 190.399 159.334 190.622 159.066 190.84C157.956 191.732 156.712 192.429 155.485 193.138C152.284 195.001 149.166 197.059 145.574 198.107C141.33 199.351 137.008 200.121 132.557 200.266C129.573 200.366 126.572 200.572 123.594 200.595C120.454 200.617 117.297 200.567 114.152 200.355C113.443 200.305 112.741 200.227 112.032 200.221C106.868 200.193 101.698 200.026 96.6054 199.206C89.8345 198.118 83.0525 197.053 76.3652 195.542C74.0507 195.017 71.6914 194.421 69.5553 193.26L69.5665 193.283Z" fill="#588B3D"/>
<path d="M69.5663 193.283C72.249 193.746 74.7142 194.973 77.3858 195.469C81.9815 196.323 86.5828 197.12 91.1729 198.001C98.5016 199.412 105.908 199.725 113.343 200.009C120.276 200.271 127.191 200.232 134.113 199.887C138.446 199.669 142.708 198.866 146.773 197.366C150.399 196.027 153.667 193.924 156.941 191.883C157.805 191.342 158.636 190.756 159.468 190.07C158.441 190.137 157.426 190.199 156.422 190.282C151.693 190.678 146.991 190.254 142.284 189.836C137.426 189.407 132.607 188.71 127.771 188.102C121.687 187.338 115.858 185.592 110.175 183.361C107.247 182.212 104.308 181.057 101.513 179.63C97.559 177.611 93.6158 175.519 90.8104 171.872C90.4088 171.347 90.1077 170.896 90.7323 170.36C93.8779 167.644 97.3917 165.815 101.686 166.372C104.497 166.735 107.185 167.689 109.857 168.631C115.791 170.723 121.754 172.697 127.972 173.785C130.493 174.225 133.048 174.426 135.591 174.56C139.952 174.783 144.314 175.179 148.67 175.24C154.543 175.324 160.36 174.699 165.987 172.803C168.665 171.899 171.397 171.141 174.125 170.388C174.906 170.17 175.106 169.897 174.945 169.077C173.801 163.277 170.739 158.642 166.406 154.749C165.965 154.353 165.491 154.169 164.894 154.32C160.934 155.318 156.919 155.731 152.78 155.563C154.18 156.383 155.58 157.203 156.98 158.017C157.694 158.43 158.425 158.826 159.144 159.233C159.579 159.479 159.986 159.808 159.707 160.354C159.423 160.918 158.899 160.761 158.475 160.522C156.757 159.562 155.05 158.586 153.355 157.594C150.94 156.182 148.385 155.061 145.859 153.868C145.368 153.634 144.676 153.411 144.927 152.736C145.212 151.966 145.903 152.306 146.456 152.501C151.403 154.214 156.445 154.381 161.592 153.639C165.803 153.031 169.618 151.525 173.154 149.205C174.627 148.24 175.659 146.824 176.908 145.625C177.856 144.715 179.128 144.269 180.014 143.293C180.243 143.042 180.639 142.802 180.416 142.412C180.238 142.089 179.847 142.239 179.546 142.284C175.039 142.947 170.55 143.773 166.021 144.258C159.635 144.939 153.226 145.284 146.84 144.147C146.645 144.113 146.444 144.13 146.255 144.085C144.621 143.667 143.288 143.505 142.379 145.558C141.737 147.008 139.858 147.281 138.407 147.621C132.049 149.11 125.613 149.674 119.082 149.133C116.137 148.887 113.198 148.586 110.348 147.839C107.687 147.142 105.083 146.249 102.646 144.927C102.132 144.649 101.742 144.331 102.071 143.739C102.383 143.176 102.824 143.416 103.287 143.65C106.851 145.474 110.627 146.55 114.587 147.225C119.054 147.984 123.527 148.095 128.006 147.828C131.966 147.593 135.909 147.03 139.696 145.753C141.285 145.217 141.904 144.375 142.105 142.551C141.168 142.579 140.371 143.031 139.607 143.41C136.935 144.721 134.024 145.089 131.162 145.468C128.206 145.864 125.206 146.06 122.211 145.998C116.5 145.881 111.062 144.676 106.031 141.899C104.514 141.062 103.097 140.064 101.748 138.982C101.279 138.608 100.833 138.435 100.253 138.463C98.5462 138.541 96.8786 138.262 95.25 137.788C94.7647 137.649 93.9895 137.604 94.2014 136.812C94.3966 136.082 95.0715 136.294 95.5958 136.428C98.2283 137.108 100.866 137.309 103.538 136.695C106.126 136.098 108.474 134.877 110.889 133.823C111.776 133.438 112.657 133.037 113.694 132.574C112.451 131.642 111.207 131.09 109.985 130.493C109.567 130.287 109.221 130.527 108.87 130.694C106.321 131.927 103.761 133.126 101.023 133.907C99.1485 134.442 97.2299 134.526 95.3058 134.587C95.1496 134.587 94.9934 134.537 94.8428 134.503C94.3688 134.397 93.8389 134.308 93.956 133.644C94.0564 133.07 94.5528 133.103 94.9878 133.131C96.728 133.248 98.4514 133.076 100.141 132.691C102.863 132.072 105.345 130.845 107.922 129.612C106.578 128.452 105.362 128.101 103.912 129.171C102.512 130.209 100.883 130.833 99.2155 131.341C98.9143 131.43 98.6075 131.519 98.3008 131.564C97.8323 131.625 97.2746 131.726 97.1017 131.129C96.9288 130.51 97.4753 130.292 97.9159 130.17C99.8847 129.623 101.63 128.547 103.755 127.777C101.234 126.517 98.9087 125.423 96.2372 125.139C94.2349 124.927 92.4055 125.462 90.6041 126.109C86.3151 127.654 81.8365 128.368 77.3634 128.848C73.4147 129.272 70.5814 131.235 68.2278 134.068C64.3459 138.731 61.5294 144.024 59.2761 149.657C56.6659 156.177 55.7903 162.937 56.1249 169.88C56.2978 173.506 57.101 177.036 58.2945 180.472C58.4339 180.879 58.5399 181.297 58.6626 181.71C57.7479 180.589 56.7384 179.535 56.1361 178.191C55.807 176.333 55.4556 174.482 55.16 172.619C54.5633 168.821 54.6581 165.011 55.1322 161.208C55.6955 156.696 56.6994 152.29 58.5288 148.118C61.1111 142.234 64.0726 136.567 68.6014 131.876C69.4157 131.034 70.3806 130.376 71.4626 129.512C70.2468 129.339 69.1034 129.512 68.5959 128.156C68.1999 127.097 68.0158 126.02 67.9377 124.944C67.3688 116.779 67.7035 108.63 68.9305 100.554C69.6556 95.7799 70.7878 91.0447 72.6562 86.5605C75.2162 80.431 79.3936 75.5397 84.5972 71.4571C89.9738 67.2406 95.9081 63.9054 101.826 60.5757C103.861 59.4323 106.343 59.0587 108.647 58.4173C113.014 57.1958 117.504 56.6214 121.999 56.0971C125.552 55.6788 129.077 55.0374 132.618 54.5466C137.225 53.9108 141.269 55.2884 145.145 57.4189C150.098 60.1407 154.219 63.8998 157.856 68.1832C160.968 71.8531 163.082 76.103 164.766 80.5928C166.551 85.3502 167.822 90.2527 169.189 95.1385C170.076 98.3064 170.895 101.513 172.435 104.475C172.942 105.457 173.6 106.115 174.655 106.405C178.983 107.587 183.21 109.071 187.41 110.638C191.465 112.149 195.441 113.811 198.961 116.438C201.794 118.558 203.54 121.335 204.588 124.648C205.079 126.193 205.531 127.727 205.481 129.367C205.308 135.106 199.814 138.592 194.27 136.712C192.385 136.076 190.678 135.134 189.066 133.99C187.271 132.719 185.413 131.542 183.428 130.577C183.21 130.538 183.009 130.521 183.132 130.85C183.606 131.324 184.125 131.754 184.538 132.278C185.268 133.209 185.173 134.024 184.181 134.687C183.623 135.056 183.556 135.306 183.852 135.881C185.017 138.168 184.722 139.339 182.658 140.967C182.268 141.274 181.916 141.503 182.056 142.2C182.217 142.992 181.76 143.762 181.074 144.219C178.642 145.853 176.696 148.028 174.504 149.93C172.479 151.687 169.958 152.685 167.421 153.695C169.267 155.491 171.068 157.292 172.479 159.44C174.454 162.429 175.798 165.681 176.467 169.2C176.573 169.758 176.757 170.064 177.348 170.059C179.172 170.031 179.752 172.307 179.139 173.751C178.375 175.536 176.98 176.718 175.419 177.744C174.861 178.113 174.242 178.391 173.695 178.771C173.238 179.089 172.887 179.34 173.377 180.104C174.448 181.755 173.846 184.181 172.173 185.77C170.89 186.986 169.339 187.745 167.677 188.269C166.105 188.765 164.526 189.256 162.886 189.518C161.933 189.674 161.275 190.444 160.522 190.974C156.723 193.657 152.685 195.927 148.53 197.996C147.298 198.609 146.004 199.1 144.66 199.401C143.845 199.58 143.851 200.004 144.141 200.6C144.498 201.331 145.111 201.811 145.719 202.318C147.56 203.863 149.874 204.677 151.698 206.256C153.366 207.7 154.955 209.212 156.221 211.03C155.786 211.125 155.346 211.22 154.911 211.309C154.453 211.309 154.236 210.952 153.974 210.662C152.2 208.688 150.153 207.02 147.995 205.497C146.941 204.756 145.658 204.382 144.643 203.534C143.817 202.848 143.059 202.134 142.585 201.141C142.178 200.288 141.631 200.216 140.94 200.835C140.94 200.835 140.901 200.863 140.856 200.918C137.967 205.079 133.483 205.564 129.015 205.91C125.05 206.217 121.084 205.759 117.119 205.52C113.856 205.324 110.582 205.481 107.308 205.475C106.483 205.475 105.657 205.453 104.832 205.492C97.6148 205.386 90.4423 204.912 83.426 203.049C83.1193 202.965 82.8181 202.876 82.5225 202.776C82.1042 202.558 81.6301 202.497 81.2006 202.313C80.0406 201.593 78.8749 200.879 77.8654 199.948C78.3952 199.518 78.9307 199.814 79.4382 199.97C84.469 201.498 89.628 202.396 94.8094 203.222C97.6092 203.668 100.454 203.791 103.287 203.83C107.699 203.897 112.121 203.724 116.528 203.885C120.655 204.036 124.776 204.432 128.92 204.321C131.899 204.237 134.676 203.462 137.225 201.917C137.482 201.761 137.794 201.643 137.961 201.125C136.037 201.526 134.163 201.392 132.306 201.526C128.413 201.805 124.52 202.145 120.627 201.922C114.575 201.571 108.513 201.616 102.461 201.086C96.912 200.595 91.4407 199.708 85.9804 198.687C82.6508 198.068 79.282 197.661 75.997 196.786C74.5525 196.401 73.1525 195.904 71.7359 195.441C70.8937 194.856 70.2021 194.12 69.5831 193.311L69.5663 193.283Z" fill="#0F1014"/>
<path d="M82.4056 202.474C85.6293 203.127 88.8139 203.975 92.0823 204.365C95.8191 204.806 99.5726 204.973 103.332 205.096C103.8 205.113 104.274 205.129 104.743 205.152C105.663 205.302 106.589 205.313 107.509 205.14C112.233 204.895 116.946 205.118 121.659 205.481C126.188 205.826 130.7 205.838 135.111 204.594C137.275 203.986 139.2 202.898 140.365 200.879C140.834 200.076 141.548 200.082 142.256 199.931C142.49 199.881 142.607 200.009 142.658 200.238C143.121 202.469 144.916 203.534 146.684 204.41C148.224 205.174 149.529 206.195 150.84 207.226C152.351 208.414 153.712 209.77 154.9 211.292C152.468 212.436 149.852 212.988 147.259 213.546C124.191 218.509 102.484 215.007 82.1936 202.91C82.0932 202.848 82.004 202.77 81.9092 202.703C81.9092 202.251 82.1992 202.458 82.4111 202.48L82.4056 202.474Z" fill="#0344FC"/>
<path d="M71.7188 195.413C72.0367 194.99 72.3769 195.319 72.6725 195.413C77.3017 197.025 82.154 197.589 86.9393 198.481C90.5702 199.156 94.1954 199.836 97.8653 200.249C100.052 200.494 102.244 200.684 104.435 200.857C109.031 201.225 113.649 201.086 118.239 201.415C124.084 201.833 129.879 201.113 135.702 201.047C136.728 201.035 137.749 200.768 138.915 200.6C138.418 201.788 137.487 202.184 136.645 202.625C134.062 203.986 131.307 204.694 128.379 204.633C119.483 204.454 110.587 204.17 101.686 204.081C94.0393 204.003 86.5601 202.385 79.2147 200.227C78.7629 200.093 78.3 200.015 77.8427 199.914C75.6117 198.671 73.7377 196.936 71.7188 195.402V195.413Z" fill="#588B3D"/>
<path d="M82.405 202.474C82.2377 202.547 82.0704 202.619 81.9031 202.697C81.6688 202.552 81.3119 202.619 81.1836 202.29C81.5963 202.301 82.0425 202.123 82.405 202.48V202.474Z" fill="#0438CC"/>
<path d="M214.783 69.7729C214.794 69.8845 214.805 69.996 214.817 70.1076C214.694 70.2972 214.421 70.5649 214.337 70.4088C214.175 70.0964 214.582 69.957 214.783 69.7729Z" fill="#ED9797"/>
<path d="M121.413 22.8953C121.413 24.6466 121.485 25.8736 121.106 27.056C120.816 27.9651 120.348 28.7348 119.293 28.8352C118.217 28.9356 117.637 28.2329 117.23 27.3795C116.315 25.4609 116.153 23.3638 115.992 21.2946C115.858 19.5768 115.718 17.8367 116.164 16.1356C116.415 15.1707 116.867 14.362 117.983 14.2337C119.171 14.0999 119.818 14.8528 120.214 15.801C121.234 18.2383 121.318 20.8429 121.413 22.9009V22.8953Z" fill="#EA4747"/>
<path d="M209.234 49.187C210.806 49.1926 211.704 50.2969 211.409 51.5685C211.236 52.3047 210.862 52.9573 210.399 53.5541C208.631 55.8408 206.534 57.7873 204.175 59.4493C203.595 59.8565 202.959 60.1632 202.273 60.3752C201.487 60.6206 200.801 60.4923 200.215 59.9011C199.624 59.2987 199.562 58.6071 199.836 57.8319C200.098 57.079 200.522 56.4152 201.013 55.8017C202.725 53.6768 204.694 51.8251 206.908 50.23C207.672 49.6778 208.503 49.2149 209.228 49.187H209.234Z" fill="#EA4747"/>
<path d="M56.0527 40.4359C56.0806 38.8575 57.2407 37.993 58.5625 38.3388C59.2709 38.5228 59.8509 38.93 60.3752 39.4041C62.5671 41.4063 64.402 43.7042 65.8744 46.2865C66.0696 46.6267 66.2202 46.9893 66.3652 47.3574C66.7835 48.4115 66.9286 49.4433 65.9023 50.2464C64.8984 51.0328 63.9112 50.6034 63.0913 49.962C60.1967 47.6976 57.9825 44.8643 56.3539 41.5792C56.1531 41.1665 56.1141 40.6757 56.0527 40.4359Z" fill="#EA4747"/>
<path d="M143.132 237.952C143.059 238.566 143.015 239.397 142.847 240.2C142.697 240.941 142.412 241.689 141.509 241.795C140.65 241.895 140.232 241.248 139.919 240.612C139.25 239.257 138.954 237.785 138.77 236.301C138.475 233.964 137.995 231.638 138.358 229.262C138.38 229.106 138.385 228.945 138.425 228.794C138.597 228.035 138.893 227.288 139.752 227.165C140.611 227.043 141.113 227.667 141.459 228.37C141.843 229.151 142.067 229.982 142.256 230.83C142.758 233.105 142.925 235.42 143.137 237.946L143.132 237.952Z" fill="#EA4747"/>
<path d="M159.049 235.766C158.982 237.166 159.205 238.404 157.917 238.727C156.645 239.045 156.126 237.902 155.703 236.998C154.191 233.769 153.299 230.356 152.947 226.803C152.908 226.424 152.992 226.011 153.092 225.637C153.405 224.444 154.537 224.109 155.457 224.951C155.797 225.263 156.093 225.665 156.294 226.083C157.833 229.268 158.619 232.659 159.043 235.766H159.049Z" fill="#EA4747"/>
<path d="M39.7446 56.8335C41.0162 56.8447 43.3476 58.6182 43.7157 59.8564C44.0224 60.8771 43.4591 61.6077 42.84 62.2826C42.5165 62.6395 42.2823 62.2045 42.0648 62.0372C40.8824 61.1225 39.7111 60.1911 38.5455 59.2596C37.4802 58.4119 37.4858 58.1497 38.5566 57.2685C38.908 56.9841 39.2928 56.8168 39.7446 56.8391V56.8335Z" fill="#EA4848"/>
<path d="M183.127 130.828C182.865 130.733 182.53 130.566 182.781 130.287C183.004 130.041 183.233 130.387 183.422 130.555C183.322 130.644 183.222 130.739 183.127 130.828Z" fill="#C53D3E"/>
<path d="M95.1658 160.204C90.241 160.176 86.1249 163.779 85.1768 168.96C85.0764 169.501 85.0039 170.042 84.9593 170.589C84.9202 171.052 84.8645 171.515 84.3011 171.531C83.6374 171.554 83.7378 170.996 83.7378 170.589C83.7546 166.651 86.5321 161.464 90.8768 159.802C92.4943 159.183 94.1117 158.893 95.8184 158.994C96.298 159.022 96.9952 158.876 96.9617 159.641C96.9283 160.394 96.2422 160.176 95.7626 160.204C95.5674 160.215 95.3722 160.204 95.1714 160.204H95.1658Z" fill="#0F1114"/>
<path d="M132.06 151.57C132.11 152.027 131.72 152.189 131.369 152.351C127.637 154.091 123.906 155.825 120.175 157.554C119.5 157.867 118.825 158.185 118.134 158.464C117.782 158.609 117.369 158.781 117.068 158.346C116.711 157.828 117.174 157.51 117.453 157.259C117.76 156.986 118.2 156.852 118.596 156.684C122.501 155.039 126.36 153.305 130.142 151.391C130.521 151.196 130.934 151.035 131.346 150.945C131.742 150.862 132.032 151.051 132.06 151.564V151.57Z" fill="#0F1014"/>
<path d="M148.051 60.7823C143.332 60.7767 138.932 60.8046 134.542 61.3066C131.018 61.7081 127.504 62.171 124.079 63.1025C119.718 64.2904 115.418 65.668 111.179 67.2353C111.034 67.291 110.9 67.3803 110.75 67.4305C109.188 67.9492 109.166 67.9547 109.762 69.4383C112.958 77.4418 115.44 85.674 117.822 93.9452C118.636 96.784 119.288 99.6564 119.919 102.534C120.008 102.953 120.164 103.365 120.326 103.761C120.984 105.356 121.497 105.613 123.064 104.988C129.026 102.612 135.15 100.733 141.391 99.305C149.11 97.5425 156.941 97.4924 164.783 98.3122C166.054 98.4461 167.281 98.9759 168.536 99.2994C168.927 99.3998 169.116 99.6062 169.245 99.9798C169.596 101.012 169.992 102.032 170.433 103.22C168.458 102.958 166.651 102.584 164.822 102.389C160.221 101.898 155.708 102.378 151.213 103.31C145.636 104.464 140.371 106.5 135.279 108.987C131.826 110.677 128.491 112.585 125.106 114.408C121.112 116.561 116.862 118.073 112.4 118.976C109.589 119.545 106.79 120.17 104.006 120.85C103.159 121.057 102.779 120.817 102.489 120.081C101.854 118.458 101.569 116.745 101.223 115.055C99.857 108.301 98.7917 101.497 98.1893 94.6423C97.5591 87.4643 96.9177 80.2639 97.4922 73.0524C97.7655 69.6168 98.7303 66.3652 101.023 63.5988C102.4 61.9368 104.124 61.0723 106.12 60.4476C110.839 58.9696 115.68 58.1888 120.554 57.5307C125.156 56.9116 129.735 56.1587 134.358 55.7069C137.292 55.4225 139.869 56.3929 142.434 57.4749C144.347 58.2836 146.121 59.3712 148.045 60.7879L148.051 60.7823Z" fill="#FEFEFE"/>
<path d="M153.109 104.325C153.304 104.246 153.5 104.168 153.689 104.096C154.102 103.867 154.593 104.129 155 103.884C155.123 103.878 155.245 103.867 155.368 103.862C155.759 103.622 156.227 103.89 156.617 103.655C156.924 103.639 157.231 103.627 157.538 103.611C158.798 103.36 160.087 103.672 161.353 103.443C164.509 103.46 167.627 103.728 170.644 104.765C170.985 104.882 171.375 104.933 171.492 105.312C172.089 107.225 173.835 107.498 175.368 107.944C181.18 109.629 186.847 111.72 192.43 114.035C192.569 114.091 192.686 114.202 192.814 114.291C192.837 114.743 192.586 114.648 192.324 114.537C187.455 112.568 182.725 113.572 178.079 115.301C172.128 117.521 166.852 120.845 162.022 124.994C158.57 127.956 155.234 131.068 151.57 133.784C148.692 135.915 145.413 136.93 141.927 137.203C132.752 137.934 124.124 135.703 115.819 132.027C113.56 131.029 111.48 129.607 109.199 128.681C105.958 127.376 102.857 125.753 99.6114 124.476C99.182 124.308 98.6912 124.28 98.2282 124.185C98.0609 124.046 98.0609 123.901 98.2115 123.75C103.309 122.116 108.574 121.168 113.778 119.98C118.87 118.82 123.572 116.745 128.123 114.174C132.183 111.882 136.321 109.701 140.677 107.978C143.929 106.689 147.181 105.44 150.639 104.81C151.085 104.542 151.637 104.877 152.066 104.553C152.418 104.509 152.724 104.23 153.109 104.325Z" fill="#EA4747"/>
<path d="M98.9641 64.1842C97.2128 66.9896 96.4543 70.124 96.1475 73.3477C95.6623 78.4231 96.2423 83.4985 96.4487 88.5739C96.655 93.4931 97.2462 98.3789 97.9546 103.248C98.8135 109.16 99.5608 115.1 101.435 120.805C101.602 121.307 101.496 121.497 100.994 121.636C93.1525 123.795 85.5227 126.807 77.4076 127.855C75.2659 128.128 73.0629 128.352 70.8654 128.229C70.0455 128.184 69.6774 127.738 69.5491 126.991C69.1922 124.972 68.9245 122.941 68.9022 120.889C68.8241 113.51 69.2089 106.148 70.5475 98.892C71.5849 93.2812 73.0238 87.7652 75.9854 82.7679C78.6012 78.345 82.2432 74.9094 86.231 71.7917C90.1184 68.7576 94.4185 66.3649 98.6406 63.8551C98.9139 63.7938 98.9975 63.9276 98.9641 64.1786V64.1842Z" fill="#EA4747"/>
<path d="M118.798 179.317C121.91 179.987 124.994 180.834 128.134 181.286C135.759 182.379 143.427 182.441 151.113 182.006C154.298 181.827 157.493 181.922 160.684 181.849C164.192 181.771 167.689 181.543 170.991 180.182C172.05 179.747 172.229 180.461 172.407 181.147C172.932 183.194 171.794 184.99 169.44 186.177C166.138 187.845 162.547 188.23 158.977 188.793C152.267 189.859 145.63 188.832 138.977 188.219C133.572 187.722 128.179 187.081 122.869 185.96C117.627 184.85 112.59 183.099 107.688 180.912C105.29 179.842 102.886 178.782 100.526 177.639C97.5426 176.188 94.7986 174.376 92.4616 171.989C91.8314 171.347 91.7087 170.868 92.5899 170.366C93.5771 169.802 94.4304 169.01 95.5403 168.665C95.914 168.542 96.31 168.391 96.6893 168.475C97.4589 168.642 97.9665 168.274 98.435 167.767C100.298 167.153 102.11 167.677 103.895 168.096C107.766 169.005 111.441 170.533 115.2 171.794C123.249 174.493 131.503 175.854 139.986 176.038C144.236 176.127 148.475 176.456 152.736 176.378C157.995 176.278 163.004 174.989 167.996 173.534C170.332 172.853 172.614 171.978 175.006 171.47C175.274 171.414 175.542 171.297 175.809 171.303C176.523 171.308 177.371 170.918 177.879 171.71C178.42 172.563 178.012 173.411 177.544 174.142C176.484 175.787 174.778 176.663 173.188 177.661C169.708 179.853 165.832 180.472 161.805 180.55C154.95 180.684 148.101 180.985 141.247 180.963C135.586 180.946 129.88 180.74 124.37 179.284C118.419 177.711 112.378 176.395 106.689 173.924C106.399 173.796 106.087 173.729 105.803 173.595C105.418 173.417 105.083 173.45 104.899 173.835C104.709 174.242 104.966 174.526 105.317 174.677C106.332 175.106 107.342 175.547 108.374 175.921C111.48 177.042 114.609 178.096 117.811 178.91C118.078 179.184 118.469 179.178 118.792 179.329L118.798 179.317Z" fill="#F35858"/>
<path d="M168.793 98.2228C163.751 96.5886 158.821 96.7727 153.913 96.8173C147.582 96.8787 141.397 97.8603 135.329 99.7343C131.157 101.023 127.002 102.344 122.897 103.834C122.456 103.995 121.993 104.096 121.469 104.246C120.198 98.1168 118.625 92.1045 116.723 86.1981C114.955 80.7044 113.349 75.1382 111.107 69.8063C110.666 68.7521 110.973 68.4342 111.932 68.0884C117.225 66.1866 122.601 64.5412 128.078 63.2696C130.839 62.6282 133.689 62.4665 136.511 62.2322C139.651 61.9757 142.808 61.9812 145.959 61.892C148.631 61.8139 150.711 62.6896 152.713 64.5357C158.681 70.0405 162.357 76.8393 164.805 84.4579C166.239 88.9142 167.304 93.4653 168.793 98.2116V98.2228Z" fill="#EA4747"/>
<path d="M170.622 120.276C175.128 117.839 179.635 115.468 184.85 114.916C189.97 114.375 194.348 115.92 197.834 119.679C199.752 121.748 201.386 124.152 201.269 127.102C201.041 132.68 198.804 133.818 194.242 133.371C190.544 133.014 187.437 131.129 184.203 129.501C181.442 128.106 179.088 125.993 176.11 125.005C175.965 124.955 175.731 124.922 175.692 124.821C174.816 122.507 172.395 121.971 170.772 120.527C170.717 120.477 170.689 120.399 170.616 120.276H170.622Z" fill="#EA4747"/>
<path d="M157.092 131.436C154.922 135.195 153.098 138.915 154.983 143.338C151.854 143.483 148.865 142.992 145.87 142.58C145.362 142.507 144.86 142.423 144.353 142.34C143.366 142.172 142.919 141.258 143.388 140.377C144.08 139.083 144.738 137.934 146.472 137.577C150.248 136.801 153.148 134.392 155.965 131.921C156.266 131.654 156.539 131.408 157.086 131.442L157.092 131.436Z" fill="#FEFEFE"/>
<path d="M103.214 138.234C107.185 137.236 110.721 135.351 114.391 133.8C114.753 133.65 115.127 133.483 115.506 133.443C116.025 133.393 116.588 133.555 116.901 133.934C117.224 134.325 116.733 134.698 116.538 135.033C115.172 137.359 115.233 139.824 115.78 142.339C115.886 142.825 116.081 143.287 116.293 143.951C111.39 143.037 107.051 141.352 103.214 138.229V138.234Z" fill="#FEFEFE"/>
<path d="M174.916 141.403C175.937 137.515 174.409 132.54 171.52 130.594C174.096 130.845 176.277 131.72 178.369 132.841C180.198 133.823 181.737 135.123 182.808 136.935C183.277 137.727 183.221 138.352 182.607 139.06C181.693 140.12 180.672 140.845 179.222 140.94C177.816 141.029 176.422 141.235 174.916 141.408V141.403Z" fill="#FEFEFE"/>
<path d="M193.316 134.587C194.61 134.631 195.904 134.843 197.209 134.659C199.373 134.364 200.968 133.31 201.727 131.213C202.223 129.846 202.881 128.396 202.708 127.002C202.508 125.368 202.073 123.694 201.202 122.2C200.344 120.733 199.401 119.344 198.207 118.128C198.157 117.849 198.274 117.732 198.553 117.782C202.446 120.861 204.192 125.033 204.097 129.846C204.013 134.024 199.412 136.957 195.402 135.686C194.616 135.435 193.857 135.111 193.082 134.821C193.02 134.604 193.082 134.498 193.316 134.587Z" fill="#E84646"/>
<path d="M158.793 129.344C159.802 128.234 160.773 127.521 162.268 127.493C166.25 127.415 170.215 127.61 174.125 128.296C177.444 128.876 180.249 130.666 182.831 132.786C183.06 132.975 183.54 133.193 183.027 133.594C182.709 133.845 182.513 134.13 181.995 133.672C178.793 130.834 174.906 129.517 170.756 128.965C166.953 128.458 163.149 128.625 159.379 129.378C159.245 129.406 159.094 129.367 158.799 129.35L158.793 129.344Z" fill="#578A3C"/>
<path d="M142.73 138.441C141.804 142.044 138.653 142.083 135.953 143.299C136.416 141.804 136.349 140.516 136.282 139.233C136.26 138.776 136.394 138.614 136.868 138.631C138.786 138.703 140.711 138.67 142.73 138.441Z" fill="#FDFDFD"/>
<path d="M178.224 127.911C173.322 126.505 168.358 125.691 163.076 125.892C163.628 125.228 164.164 124.921 164.861 124.983C167.789 125.223 170.745 125.223 173.628 125.886C175.274 126.266 176.796 126.952 178.224 127.911Z" fill="#56883B"/>
<path d="M165.993 123.399C166.997 122.685 167.761 122.155 168.508 121.603C168.927 121.291 169.261 121.553 169.585 121.737C170.639 122.328 171.648 122.986 172.797 124.012C170.449 123.801 168.386 123.616 165.987 123.405L165.993 123.399Z" fill="#56893C"/>
<path d="M169.055 137.019C169.01 137.9 168.603 138.441 167.772 138.469C166.835 138.502 166.333 137.973 166.255 137.03C166.177 136.032 166.746 135.719 167.616 135.686C168.581 135.652 168.893 136.277 169.055 137.013V137.019Z" fill="#FBFBFB"/>
<path d="M163.544 133.65C163.41 134.297 163.037 134.649 162.395 134.593C161.815 134.543 161.391 134.152 161.425 133.6C161.458 133.014 161.921 132.568 162.529 132.579C163.148 132.59 163.483 133.037 163.544 133.65Z" fill="#F0F0F0"/>
<path d="M124.436 144.085C123.968 144.029 123.516 143.907 123.566 143.338C123.622 142.68 124.096 142.434 124.71 142.423C125.273 142.412 125.518 142.853 125.513 143.26C125.507 143.884 124.966 144.04 124.436 144.085Z" fill="#F1F1F1"/>
<path d="M161.023 139.607C160.415 139.506 160.337 138.976 160.298 138.469C160.259 138.011 160.566 137.844 160.984 137.917C161.436 137.995 161.838 138.162 161.81 138.725C161.787 139.183 161.659 139.59 161.023 139.607Z" fill="#EFEFEF"/>
<path d="M98.4347 167.767C98.2451 168.676 97.8435 169.167 96.8061 168.759C96.4268 168.614 95.9639 168.692 95.54 168.665C96.4268 168.112 97.3806 167.772 98.4347 167.767Z" fill="#E44646"/>
<path d="M127.632 137.605C128.441 137.253 129.004 137.649 129.606 137.727C129.818 137.755 129.991 137.861 129.941 138.095C129.902 138.296 129.723 138.408 129.523 138.447C128.753 138.597 128.217 138.235 127.632 137.605Z" fill="#ECECED"/>
<path d="M194.934 115.278C195.793 115.725 196.59 116.26 197.349 116.862C197.315 117.007 197.22 117.091 197.075 117.119C196.261 116.583 195.441 116.054 194.627 115.518C194.666 115.356 194.817 115.345 194.934 115.278Z" fill="#AE3738"/>
<path d="M194.933 115.278C194.833 115.356 194.727 115.44 194.627 115.518C193.857 115.189 193.093 114.86 192.323 114.531C192.485 114.447 192.652 114.369 192.814 114.286C193.522 114.615 194.225 114.949 194.933 115.278Z" fill="#B8393A"/>
<path d="M161.353 103.443C160.098 103.867 158.81 103.549 157.538 103.61C158.799 103.315 160.076 103.376 161.353 103.443Z" fill="#CC6465"/>
<path d="M197.075 117.119C197.164 117.035 197.259 116.946 197.348 116.862C197.795 117.113 198.235 117.37 198.553 117.788C198.436 117.905 198.325 118.017 198.207 118.134C197.828 117.794 197.454 117.459 197.075 117.119Z" fill="#C43D3E"/>
<path d="M107.509 205.135C106.588 205.547 105.668 205.57 104.742 205.146C105.662 205.146 106.583 205.14 107.509 205.135Z" fill="#547D40"/>
<path d="M178.859 128.14C179.378 128.028 179.518 128.312 179.718 128.591C179.311 128.686 179.094 128.519 178.859 128.14Z" fill="#3C5B2C"/>
<path d="M98.9641 64.1841C98.8581 64.0781 98.7466 63.9666 98.6406 63.8606C98.9083 63.6821 99.176 63.5036 99.4995 63.2861C99.4995 63.7769 99.1928 63.9554 98.9641 64.1841Z" fill="#A73536"/>
<path d="M193.316 134.587C193.238 134.665 193.16 134.743 193.082 134.821C192.787 134.871 192.597 134.726 192.391 134.509C192.764 134.269 193.049 134.353 193.322 134.581L193.316 134.587Z" fill="#9B3233"/>
<path d="M152.149 104.62C151.687 104.994 151.146 104.748 150.644 104.815C151.001 104.553 151.419 104.575 151.832 104.553C151.965 104.464 152.071 104.486 152.155 104.62H152.149Z" fill="#E07172"/>
<path d="M118.797 179.317C118.407 179.328 117.949 179.485 117.815 178.899C118.223 178.843 118.496 179.116 118.797 179.317Z" fill="#B84546"/>
<path d="M152.15 104.62C152.044 104.597 151.938 104.575 151.826 104.553C152.233 104.352 152.607 103.978 153.109 104.324C152.785 104.425 152.468 104.519 152.144 104.62H152.15Z" fill="#B5AAAA"/>
<path d="M98.2062 123.756C98.2062 123.901 98.2174 124.046 98.2229 124.191C97.9887 124.225 97.6875 124.208 97.6875 123.946C97.6875 123.617 98.011 123.773 98.2118 123.756H98.2062Z" fill="#692729"/>
<path d="M155.006 103.884C154.616 104.241 154.147 104.101 153.695 104.096C154.102 103.834 154.554 103.873 155.006 103.884Z" fill="#BA6D6E"/>
<path d="M156.618 103.655C156.25 103.995 155.798 103.867 155.374 103.861C155.753 103.588 156.183 103.594 156.618 103.655Z" fill="#B17676"/>
<path d="M141.43 63.3758C143.276 63.3033 145.016 63.6658 146.689 64.4689C147.593 64.904 148.68 64.7311 149.589 65.3167C150.911 66.17 151.703 67.397 151.519 68.8583C151.324 70.3865 152.144 70.8884 153.192 71.4127C154.386 72.0151 155.568 72.6286 156.762 73.2309C159.428 74.5751 159.991 78.7079 157.621 81.0727C156.795 81.8981 156.689 82.6678 156.918 83.6829C157.258 85.2166 157.548 86.7671 157.838 88.3121C158.084 89.6395 157.844 90.0187 156.556 90.3422C153.884 91.0003 151.218 91.6808 148.53 92.2608C147.688 92.4393 147.119 92.8353 146.611 93.4711C145.507 94.832 144.168 95.7411 142.344 95.9474C141.229 96.0757 140.214 95.8861 139.255 95.4287C138.323 94.9826 137.464 94.871 136.444 95.161C134.402 95.7411 132.328 96.1817 130.264 96.6836C129.227 96.9346 128.591 96.5777 128.396 95.4789C128.156 94.1236 127.765 92.7907 127.76 91.4019C127.76 90.543 127.492 89.9462 126.561 89.6339C125.412 89.2435 124.33 88.669 123.231 88.1503C119.79 86.5385 118.975 82.5507 121.535 79.7285C122.751 78.3844 124.04 77.1128 125.3 75.8132C125.813 75.2834 126.008 74.7591 125.64 74.0173C124.218 71.184 125.746 68.1834 128.864 67.7094C129.45 67.6201 129.829 67.4193 130.258 67.0122C132.015 65.3501 134.14 64.3295 136.511 63.9168C138.134 63.6323 139.768 63.3311 141.43 63.3813V63.3758Z" fill="#010101"/>
<path d="M141.269 64.1622C143.176 64.0674 145.056 64.112 146.679 65.339C146.958 65.551 147.292 65.4227 147.599 65.4394C149.752 65.5621 151.191 67.2409 150.845 69.3547C150.672 70.4144 151.085 71.0614 151.961 71.5131C153.288 72.1936 154.615 72.8684 155.948 73.5321C158.748 74.9209 159.479 78.1892 157.242 80.3644C155.781 81.781 156.194 83.22 156.439 84.7649C156.629 85.964 156.857 87.1632 157.142 88.3456C157.359 89.2379 157.092 89.606 156.177 89.8012C153.416 90.398 150.683 91.1286 147.923 91.731C147.203 91.8872 146.757 92.2608 146.316 92.7851C145.156 94.1739 143.829 95.3117 141.866 95.3172C141.269 95.3172 140.599 95.3395 140.142 95.0105C138.274 93.6608 136.416 94.3691 134.526 94.8822C133.048 95.2838 131.536 95.5794 130.053 95.9475C129.383 96.1148 129.211 95.7188 129.116 95.2113C128.887 94.0121 128.513 92.8186 128.497 91.6139C128.469 89.8403 127.47 89.1041 126.015 88.5073C124.76 87.9942 123.427 87.6149 122.367 86.6445C120.51 84.9378 120.387 81.9037 122.166 80.1078C123.522 78.7414 124.905 77.3972 126.188 75.9694C126.757 75.3336 127.041 74.5918 126.416 73.6716C124.994 71.5856 126.483 68.5906 129.015 68.4233C129.746 68.3787 130.214 68.1444 130.722 67.6369C133.143 65.233 136.221 64.4076 139.506 64.1566C140.092 64.112 140.689 64.151 141.28 64.151L141.269 64.1622Z" fill="#FEFEFE"/>
<path d="M146.746 89.1874C146.489 86.0474 145.686 83.0022 145.123 79.9123C144.805 78.1722 144.743 78.1778 146.433 77.8599C147.197 77.7148 148.062 77.3189 148.715 77.5419C149.384 77.7706 149.2 78.8526 149.523 79.5219C149.847 80.1856 150.031 80.9218 150.271 81.6246C150.477 81.8532 150.555 82.1321 150.583 82.4277C150.605 82.3775 150.572 82.3273 150.583 82.2715C150.393 81.8198 150.75 81.329 150.494 80.8828C150.477 79.9012 150.494 78.9196 150.421 77.9379C150.382 77.33 150.477 76.9563 151.185 76.9284C152.117 76.9005 153.215 76.0974 153.862 76.6328C154.398 77.079 154.303 78.3005 154.465 79.1817C154.989 82.0763 155.48 84.9765 156.026 87.8656C156.121 88.3787 156.138 88.5962 155.53 88.7524C153.132 89.3548 153.148 89.3882 152.847 86.9175C152.786 86.4155 152.652 85.9191 152.557 85.4227C152.295 85.1271 152.423 84.7479 152.334 84.5638C152.067 86.1589 152.451 87.927 152.083 89.6559C151.09 90.0129 150.639 89.6169 150.393 88.6241C150.204 87.8433 149.78 87.1238 149.462 86.3765C148.982 86.053 149.06 85.4841 148.871 85.0379C148.815 84.7311 148.709 84.43 148.698 84.1288C148.67 84.0674 148.681 84.0005 148.687 83.9392C148.687 83.9224 148.614 83.9392 148.636 84.0005C148.664 84.0674 148.692 84.1288 148.692 84.2069C148.748 84.5806 148.826 84.9487 148.932 85.3112C149.272 86.0362 149.044 86.8394 149.272 87.5812C149.216 88.2672 149.551 88.864 149.713 89.4942C149.841 89.985 149.713 90.1635 149.211 90.2583C148.53 90.3921 147.872 90.6375 147.209 90.8383C146.567 90.4256 146.567 89.8288 146.74 89.1874H146.746Z" fill="black"/>
<path d="M138.357 92.7066C137.487 93.203 136.472 93.1751 135.546 93.4707C134.961 93.6603 134.927 93.1863 134.866 92.7903C134.704 91.7808 134.587 90.7601 134.347 89.7674C134.275 89.455 134.648 88.6798 133.711 88.875C132.925 89.0367 132.981 89.4829 133.114 90.0853C133.338 91.0836 133.46 92.1043 133.678 93.1026C133.806 93.6938 133.639 93.9002 133.036 94.0452C130.454 94.6643 130.488 94.681 130.008 92.0373C129.411 88.7467 128.798 85.4617 128.123 82.1822C128 81.5743 128.123 81.4683 128.664 81.3567C131.319 80.7934 131.324 80.7767 131.932 83.4148C132.049 83.9112 132.105 84.4243 132.183 84.9318C132.244 85.3278 132.228 85.6903 132.869 85.5621C133.477 85.4394 133.522 85.1493 133.41 84.6585C133.17 83.5821 132.964 82.5001 132.724 81.4292C132.596 80.8436 132.679 80.5648 133.382 80.3919C136.043 79.7337 136.004 79.7003 136.461 82.2993C137.007 85.3947 137.604 88.4846 138.184 91.58C138.469 91.9258 138.742 92.2716 138.363 92.7234L138.357 92.7066Z" fill="black"/>
<path d="M136.042 78.808C134.793 78.4845 133.488 78.2949 132.423 77.475C132.01 77.1571 131.692 77.4416 131.352 77.62C130.32 78.1555 129.349 77.9881 128.507 77.2575C127.687 76.5492 127.576 75.6178 128.061 74.6808C128.29 74.2457 128.201 74.0115 127.944 73.6434C127.264 72.6897 127.013 71.6746 127.687 70.5759C128.318 69.5552 129.244 69.5106 130.264 69.7169C130.51 69.7671 130.699 69.795 130.872 69.5496C133.226 66.1921 136.784 65.5339 140.51 65.3387C142.635 65.2272 144.782 65.1379 146.617 66.549C146.851 66.7275 147.063 66.5657 147.286 66.549C149.143 66.4096 150.382 68.0047 149.651 69.6946C149.422 70.2245 149.578 70.4364 149.874 70.7989C151.056 72.2491 150.521 73.9501 148.736 74.4856C148.474 74.5637 148.223 74.5804 148.034 74.8425C146.126 77.5364 143.148 77.9937 140.231 78.557C139.924 78.6184 139.606 78.5793 139.361 78.8192C138.256 78.9921 137.147 78.9865 136.042 78.8192V78.808Z" fill="#010101"/>
<path d="M138.446 89.879C138.251 86.9341 138.162 83.9781 137.811 81.0556C137.665 79.823 137.978 79.3545 139.11 79.2485C139.422 79.0255 139.807 79.2597 140.125 79.0701C140.281 79.0589 140.443 79.0701 140.594 79.0422C143.17 78.4677 143.154 78.4733 143.868 81.0277C144.643 83.7773 145.362 86.5493 146.394 89.2208C146.784 89.8957 146.963 90.5482 146.171 91.0781C145.485 90.9944 144.855 91.29 144.219 91.4573C143.499 91.647 143.198 91.4797 143.159 90.7434C143.148 90.4757 143.031 90.208 143.003 89.9403C142.947 89.4328 142.696 89.3101 142.205 89.3993C141.698 89.4885 141.614 89.7116 141.659 90.2024C141.815 92.0374 141.793 92.0374 139.947 92.4055C139.528 92.4892 139.11 92.6007 138.692 92.6955C138.106 91.7976 138.803 90.7881 138.441 89.8734L138.446 89.879Z" fill="black"/>
<path d="M122.004 83.3256C121.887 82.199 122.517 81.3512 123.187 80.5983C124.325 79.3044 125.568 78.1052 126.767 76.8671C126.968 76.6607 127.175 76.2647 127.515 76.6161C127.861 76.9674 127.426 77.1794 127.247 77.3746C126.182 78.5291 125.133 79.7004 124.007 80.7879C122.066 82.6563 122.635 85.4004 125.05 86.1422C125.786 86.3708 126.466 86.7947 127.163 87.1405C127.336 87.2242 127.532 87.319 127.492 87.57C127.453 87.8098 127.247 87.9046 127.057 87.8321C125.412 87.1405 123.599 86.7278 122.512 85.0992C122.149 84.5526 121.971 83.9726 121.993 83.3256H122.004Z" fill="#060606"/>
<path d="M157.844 77.2353C157.722 78.7803 156.963 79.7674 156.054 80.6654C155.92 80.7993 155.731 80.8941 155.541 80.71C155.335 80.5092 155.48 80.3642 155.608 80.2136C155.842 79.9459 156.088 79.6894 156.305 79.4161C157.649 77.7429 157.197 75.7573 155.279 74.8259C154.085 74.2459 152.897 73.6435 151.715 73.0356C151.47 72.9073 151.012 72.8292 151.286 72.3886C151.481 72.0763 151.799 72.2994 152.027 72.4109C153.394 73.0914 154.782 73.7383 156.11 74.4857C157.22 75.1104 157.593 76.2426 157.844 77.2242V77.2353Z" fill="#0A0A0A"/>
<path d="M152.089 89.6617V83.4095C152.178 83.4039 152.262 83.3984 152.351 83.3872C152.424 84.0676 152.49 84.7481 152.563 85.4285C152.167 86.4324 152.496 87.4866 152.384 88.5072C152.34 88.9032 152.569 89.3717 152.094 89.6617H152.089Z" fill="#EAEAEB"/>
<path d="M146.177 91.0838C146.762 90.5261 146.417 89.8568 146.4 89.2265L146.746 89.1875C146.902 89.7397 147.058 90.2862 147.214 90.8384C146.891 91.0057 146.556 91.1507 146.177 91.0838Z" fill="#FBFAFA"/>
<path d="M140.126 79.0702C139.813 79.2822 139.462 79.2766 139.111 79.2487C138.514 78.836 137.85 79.1706 137.225 79.0814C136.824 79.02 136.372 79.1706 136.043 78.8081C137.147 78.8081 138.257 78.8081 139.361 78.8081C139.618 78.8973 139.875 78.9866 140.126 79.0702Z" fill="#CBCBCB"/>
<path d="M142.714 93.5767C143.082 94.2515 142.468 93.9113 142.295 93.9448C142.1 93.9838 141.793 94.0898 141.715 93.7775C141.665 93.5711 141.648 93.3313 141.894 93.1584C142.212 92.9409 142.557 92.9911 142.898 92.9688C143.059 93.2365 142.736 93.3647 142.714 93.5767Z" fill="#424244"/>
<path d="M138.446 89.8791C138.759 90.7994 138.597 91.7643 138.697 92.7013C138.586 92.7013 138.469 92.7013 138.357 92.7013C138.296 92.322 138.24 91.9372 138.179 91.5579C138.67 91.0615 138.179 90.409 138.446 89.8735V89.8791Z" fill="#9A9A9B"/>
<path d="M149.026 84.9655C149.171 85.434 149.322 85.9081 149.467 86.3766C149.16 86.7391 149.383 87.1853 149.277 87.5757C149.11 86.7893 148.943 85.9973 148.775 85.2109C148.703 84.9655 148.803 84.9041 149.026 84.9655Z" fill="#EFEFEF"/>
<path d="M142.713 93.5769C142.774 93.3761 142.836 93.1698 142.897 92.969L143.137 92.7515C143.505 92.8017 143.817 92.9578 144.074 93.22C143.84 94.1793 143.17 93.4654 142.713 93.5713V93.5769Z" fill="#4E4E4F"/>
<path d="M144.074 93.2198C143.655 93.2756 143.298 93.1975 143.137 92.7513C143.756 92.294 144.068 92.4557 144.074 93.2198Z" fill="#111112"/>
<path d="M150.499 82.7847C150.427 82.3998 150.349 82.0094 150.276 81.6246C150.349 81.3792 150.421 81.1338 150.494 80.8828C150.756 81.4182 150.656 82.0039 150.745 82.5616C150.806 82.7958 150.717 82.8628 150.499 82.7791V82.7847Z" fill="#DEDEDE"/>
<path d="M149.026 84.9657C148.943 85.0493 148.859 85.133 148.775 85.2111C148.452 84.8541 148.63 84.3912 148.502 83.9896C148.602 83.9227 148.692 83.9283 148.775 84.0175C148.859 84.3354 148.943 84.6478 149.026 84.9657Z" fill="#8C8C8D"/>
<path d="M148.776 84.0228C148.686 84.0116 148.597 84.006 148.502 83.9949C148.296 83.8164 148.223 83.4706 148.435 83.4372C148.753 83.3814 148.764 83.7606 148.77 84.0228H148.776Z" fill="#5A5A5B"/>
<path d="M150.499 82.7849C150.583 82.7124 150.661 82.6399 150.745 82.5674C150.89 82.7849 151.107 83.0638 150.734 83.2032C150.527 83.2813 150.483 82.9913 150.499 82.7905V82.7849Z" fill="#5D5C5D"/>
<path d="M138.803 66.3428C136.455 68.2224 135.635 70.4477 136.31 73.1639C136.438 73.6882 136.661 74.2069 136.923 74.6809C137.381 75.512 137.303 76.2816 136.711 76.9732C136.12 77.6592 135.339 77.8154 134.464 77.6035C131.262 76.8282 129.69 73.4372 131.168 70.4756C132.35 68.1053 135.83 66.1532 138.803 66.3428Z" fill="#FEFEFE"/>
<path d="M149.11 68.9978C148.435 70.0073 148.92 70.8885 149.701 71.8757C150.169 72.4669 149.74 73.2477 149.037 73.6548C148.279 74.0899 147.47 73.9783 147.068 73.2644C146.594 72.4278 146.115 72.3051 145.261 72.5673C144.52 72.7959 143.716 72.8294 142.936 72.9242C142.054 73.0358 141.341 72.7736 141.134 71.831C140.922 70.855 141.391 70.2471 142.367 70.0463C142.941 69.9292 143.521 69.8176 144.101 69.7284C145.116 69.5834 146.12 69.5778 146.293 68.1221C146.371 67.464 147.18 67.107 147.911 67.2855C148.658 67.464 149.149 67.9548 149.115 68.9922L149.11 68.9978Z" fill="#FDFDFD"/>
<path d="M142.78 75.5565C140.917 75.5677 139.238 74.4578 138.675 72.9408C138.111 71.407 138.597 69.4828 139.784 68.5402C141.274 67.3634 143.298 67.1515 144.737 68.0327C144.966 68.1721 145.3 68.2781 145.273 68.596C145.234 68.9864 144.854 68.8414 144.609 68.8972C143.655 69.1091 142.662 69.0812 141.753 69.5386C140.638 70.1019 140.136 71.0222 140.459 72.0986C140.827 73.3089 141.809 73.9001 143.081 73.6881C143.895 73.5543 144.709 73.4371 145.524 73.2977C145.763 73.2587 146.031 73.1862 146.12 73.465C146.165 73.6045 146.048 73.8554 145.925 73.9726C145.005 74.8538 144.029 75.6346 142.78 75.5621V75.5565Z" fill="#FDFDFD"/>
<path d="M142.925 65.9466C143.823 65.9131 144.749 66.2143 145.608 66.7274C145.831 66.8613 146.188 66.9115 145.959 67.3019C145.775 67.6198 145.524 67.7369 145.179 67.5027C144.917 67.3298 144.666 67.1123 144.37 67.023C142.407 66.4039 140.611 66.772 139.133 68.1943C137.66 69.6165 137.37 71.3789 138.051 73.2975C138.603 74.8648 140.343 76.0583 142.15 76.1754C143.784 76.2814 145.162 75.8018 146.277 74.5747C146.445 74.3963 146.556 73.9055 146.991 74.2178C147.488 74.5747 147.036 74.8313 146.857 75.0767C145.045 77.5865 140.371 77.659 138.274 75.2663C136.645 73.4091 136.238 71.3064 137.331 69.1591C138.419 67.023 140.304 65.8741 142.914 65.9354L142.925 65.9466Z" fill="#FBFBFB"/>
<path d="M129.239 70.2746C130.12 70.269 130.36 70.4196 130.176 71.0498C129.618 72.9461 129.964 74.7197 131.101 76.3148C131.403 76.7387 131.347 76.9339 130.901 77.0733C130.226 77.2797 129.557 77.2574 129.021 76.7387C128.525 76.259 128.335 75.6846 128.72 75.032C129.244 74.1397 128.843 73.4648 128.224 72.829C127.744 72.3326 127.766 71.7804 128.062 71.2004C128.38 70.5757 128.898 70.2969 129.239 70.2746Z" fill="#FBFBFB"/>
<path d="M140.968 81.686C141.319 83.0413 141.67 84.3966 142.027 85.7463C142.122 86.1033 142.451 86.4714 141.754 86.6108C141.168 86.7279 141.102 86.3989 141.062 85.9694C140.957 84.8428 140.839 83.7162 140.733 82.5951C140.711 82.2661 140.421 81.8701 140.968 81.686Z" fill="#EFF0F0"/>
<path d="M140.968 81.6861C140.65 81.926 140.873 82.3108 140.733 82.5952C140.416 82.0654 140.577 81.4965 140.521 80.8384C140.856 81.1172 140.945 81.385 140.968 81.6861Z" fill="#5E5E5F"/>
</svg>
