<svg width="256" height="256" viewBox="0 0 256 256" fill="none" xmlns="http://www.w3.org/2000/svg">
<g clip-path="url(#clip0_741_46)">
<path d="M128 256C198.692 256 256 198.692 256 128C256 57.3076 198.692 0 128 0C57.3076 0 0 57.3076 0 128C0 198.692 57.3076 256 128 256Z" fill="#04111D"/>
<path fill-rule="evenodd" clip-rule="evenodd" d="M149.771 130.352C147.144 142.171 141.617 153.012 133.654 162.024C131.592 164.357 131.627 167.98 134.108 169.855C135.213 170.688 136.342 171.49 137.489 172.257C137.596 172.329 137.753 172.327 137.832 172.225L137.866 172.185C148.191 161.758 155.518 148.766 159.019 134.611C160.019 130.55 160.738 126.311 161.107 122.074C161.325 119.637 161.434 117.177 161.434 114.806C161.434 88.9827 149.097 64.4773 128.447 49.2383L128.339 49.1504C128.13 48.9523 127.804 48.9496 127.592 49.144L127.49 49.2383C106.819 64.4773 94.5025 88.9827 94.5025 114.806C94.5025 117.555 97.3406 119.288 99.91 118.352C100.793 118.03 101.681 117.723 102.574 117.43C103.7 117.061 104.447 115.998 104.447 114.806C104.447 95.0212 112.737 75.9615 127.186 62.5011C127.628 62.0914 128.309 62.0914 128.751 62.5011C143.2 75.9615 151.468 95.0212 151.468 114.806C151.468 115.706 151.447 116.672 151.403 117.748C151.229 121.986 150.685 126.224 149.771 130.352ZM74.2474 136.494C59.451 149.888 50.138 168.266 48.0056 188.205C47.9664 188.535 48.1368 188.853 48.4316 189.001L48.506 189.039C58.82 193.629 69.7432 195.956 81.0146 195.956C94.9313 195.956 108.319 192.428 120.228 185.706C123.111 184.078 123.217 180.05 120.728 177.859C119.089 176.415 116.699 176.158 114.79 177.214C104.466 182.915 92.8741 185.921 81.0146 185.921C74.0951 185.921 67.2626 184.911 60.6696 182.891L59.6469 182.583L59.5518 182.555C59.2258 182.46 59.0294 182.126 59.1029 181.792L59.3422 180.739C63.977 160.537 77.0761 143.432 95.267 133.837C99.0096 131.86 102.948 130.213 106.973 128.962C113.763 126.832 120.835 125.755 127.993 125.755C132.791 125.755 137.544 126.233 142.19 127.188C145.238 127.815 148.344 125.969 148.704 122.861C148.996 120.349 147.346 118.036 144.889 117.502C139.343 116.301 133.689 115.699 127.993 115.699C120.551 115.699 113.154 116.731 106.016 118.773C101.969 119.937 97.9869 121.43 94.179 123.208C86.9113 126.612 80.2095 131.069 74.2474 136.494ZM207.511 189.062C197.197 193.673 186.252 196 174.98 196C158.248 196 142.233 190.884 128.655 181.223C125.26 178.785 121.975 176.041 118.929 173.054L118.711 172.834C118.58 172.687 118.438 172.55 118.3 172.416C118.233 172.349 118.166 172.285 118.102 172.22C109.005 163.04 102.248 151.874 98.3675 139.676C97.6032 137.274 98.7535 134.691 101.057 133.696C103.927 132.456 107.098 134.249 108.08 137.232C111.82 148.599 118.343 158.823 127.219 167.082C130.309 169.958 133.682 172.593 137.249 174.877C148.521 182.123 161.577 185.966 174.98 185.966C182.14 185.966 189.212 184.889 196 182.738C196.578 182.551 196.918 181.95 196.784 181.355C192.59 162.401 180.989 146.165 164.679 136.152C162.84 135.024 161.872 132.883 162.277 130.755C162.897 127.496 166.407 125.526 169.236 127.23C173.683 129.908 177.869 133.02 181.747 136.538C196.544 149.932 205.857 168.289 207.989 188.249L207.996 188.304C208.031 188.622 207.85 188.923 207.554 189.04L207.511 189.062Z" fill="white"/>
</g>
<defs>
<clipPath id="clip0_741_46">
<rect width="256" height="256" fill="white"/>
</clipPath>
</defs>
</svg>
