<svg width="256" height="256" viewBox="0 0 256 256" fill="none" xmlns="http://www.w3.org/2000/svg">
<g clip-path="url(#clip0_1948_2583)">
<path d="M256 128C256 57.3075 198.692 0 128 0C57.3075 0 0 57.3075 0 128C0 198.692 57.3075 256 128 256C198.692 256 256 198.692 256 128Z" fill="#083ADB"/>
<path d="M219.381 137.454C215.756 116.978 204.881 105.124 194.398 99.4414C194.398 99.4414 196.064 92.061 188.618 84.354C188.618 84.354 190.316 56.4 169.285 45.6886C156.745 39.8104 144.205 54.1793 139.241 61.625C139.241 61.625 128.007 58.0981 114.096 61.625C114.096 61.625 101.49 43.849 87.3827 44.3116C73.2751 44.7742 61.0615 72.2058 64.3925 92.9754C64.3925 92.9754 41.6635 104.732 36.9609 135.298C32.2584 165.865 46.7579 186.047 46.7579 186.047C46.7579 186.047 38.5285 195.158 49.795 205.739C54.7914 210.147 62.3351 207.992 62.3351 207.992C62.3351 207.992 72.328 211.617 78.5981 203.975C78.5981 203.975 83.1047 212.596 97.7022 211.715C112.202 211.78 114.096 205.771 114.096 205.771C114.096 205.771 146.654 211.486 168.894 204.53C168.894 204.53 173.825 212.498 184.405 210.147C184.405 210.147 193.419 213.576 202.334 202.506C208.604 194.668 204.097 186.732 204.097 186.732C204.097 186.732 223.691 169.588 219.381 137.454ZM200.788 181.562C198.938 183.957 197.631 185.263 197.631 185.263C203.314 200.154 193.664 204.171 193.664 204.171C195.476 200.154 194.006 198.342 192.537 198.391C191.067 198.44 190.675 203.779 190.137 205.053C189.598 206.326 185.14 206.179 185.14 206.179C187.051 201.428 185.728 199.419 184.552 199.615C182.348 200.154 182.31 203.502 181.793 204.96C181.657 205.352 181.483 205.608 181.221 205.641C178.674 206.179 175.392 204.318 174.217 202.652C173.504 201.64 172.845 197.569 172.437 194.521C172.377 194.064 171.707 194.075 171.664 194.532L171.473 196.48C166.722 194.521 166.869 199.077 166.869 199.077C142.082 204.171 116.463 199.615 116.463 199.615C117.16 196.54 115.935 195.076 114.335 194.483C114.025 194.369 113.704 194.282 113.377 194.227C111.369 193.884 111.173 195.991 110.242 201.428C109.312 206.865 103.825 206.424 103.825 206.424C104.805 203.436 103.58 200.35 102.258 200.693C99.8575 201.134 99.8085 206.571 99.8085 206.571C97.8981 207.355 94.6161 206.277 94.6161 206.277C94.2732 201.477 93.1956 199.322 91.922 200.105C89.2278 201.82 91.4321 205.837 91.4321 205.837C84.9389 206.228 83.3605 198.315 83.1319 191.903C83.1319 191.898 83.1319 191.898 83.1319 191.898C82.9904 187.603 83.4476 183.989 83.4476 183.989L82.4679 186.047C79.3383 185.883 78.0375 188.567 77.5367 191.397C76.9925 194.467 77.3735 197.705 77.3735 197.705C75.9094 196.573 74.7936 196.948 74.0915 197.493C73.5798 197.89 73.2696 198.5 73.1771 199.136C72.3171 205.102 67.6255 204.438 65.0293 204.367C62.3351 204.296 62.678 201.428 63.1461 199.811C63.6087 198.195 62.8032 197.509 62.0194 197.558C59.3742 197.732 60.4247 202.925 60.5499 203.583C60.6696 204.247 60.0328 204.367 57.4856 203.806C54.9384 203.24 55.9453 199.202 56.163 198.146C56.3862 197.09 56.4841 195.942 55.2595 195.893C52.783 195.914 53.643 202.288 53.643 202.288C50.9216 200.323 49.1582 197.117 49.9909 191.827C50.8237 186.536 55.8691 186.047 55.8691 186.047C45.3863 174.682 40.096 147.838 46.7579 126.742C53.4199 105.646 73.9935 95.5226 73.9935 95.5226C73.9227 95.3049 73.8574 95.0872 73.7921 94.8694C69.0896 79.1235 76.2141 53.3466 86.9636 51.4253C87.78 51.2783 88.6182 51.2729 89.4727 51.4144C101.55 53.45 112.506 70.992 112.849 71.5418L112.202 69.8545C133.118 61.8482 151.232 72.8589 151.645 73.1147L145.12 65.6745C145.12 65.6745 150.785 55.5836 158.111 52.3778C159.679 51.692 161.328 51.3219 163.015 51.4362C172.551 52.0893 180.585 66.7195 181.368 77.888C181.434 78.797 181.559 79.744 181.738 80.7128C188.58 84.218 193.261 91.2881 193.261 99.4359C193.261 101.586 192.934 103.665 192.33 105.619C192.33 105.624 192.33 105.624 192.33 105.624C197.272 109.979 201.795 114.507 205.349 119.814C210.454 127.423 213.573 136.626 213.111 149.21C212.561 164.205 205.153 175.912 200.788 181.562Z" fill="black"/>
<path d="M181.738 80.7127C178.815 79.216 175.495 78.3723 171.973 78.3723C160.217 78.3723 150.687 87.8047 150.687 99.4358C150.687 102.533 151.362 105.472 152.575 108.117C135.654 104.606 124.224 109.549 120.044 111.867C122.232 108.558 123.5 104.606 123.5 100.361C123.5 88.7299 113.97 79.2976 102.214 79.2976C90.4572 79.2976 80.9269 88.7299 80.9269 100.361C80.9269 104.47 82.1189 108.308 84.1708 111.546C83.6646 112.542 82.6849 115.225 83.7408 119.574C85.1124 125.207 83.7898 128.391 79.6751 130.792C75.5604 133.192 64.9796 138.825 64.9796 150.092C64.9796 155.812 66.9118 159.284 69.557 161.309C68.6589 163.252 66.226 169.354 67.7881 176.054C55.3786 164.036 51.5904 149.798 51.3292 138.825C51.0679 127.853 47.541 126.742 47.541 126.742C47.541 126.742 54.1921 112.466 62.3018 106.56C70.4115 100.655 73.9928 95.5225 73.9928 95.5225C73.9221 95.3048 73.8568 95.0871 73.7915 94.8694L78.826 90.82C78.826 90.82 78.2709 63.3122 86.963 51.4252C87.7794 51.2783 88.6176 51.2728 89.4721 51.4143C101.55 53.4499 112.506 70.992 112.849 71.5417L112.201 69.8544C133.118 61.8481 151.231 72.8588 151.645 73.1146L151.65 73.1201C151.65 73.1201 152.581 58.5389 158.111 52.3777C159.678 51.6919 161.327 51.3218 163.015 51.4361C172.55 52.0892 180.584 66.7194 181.368 77.8879C181.433 78.7914 181.558 79.7439 181.738 80.7127Z" fill="#37AAFF"/>
<path d="M78.8275 90.8205L73.7929 94.8699C69.0903 79.124 76.2149 53.3471 86.9644 51.4258C78.2723 63.3128 78.8275 90.8205 78.8275 90.8205Z" fill="#0D43AF"/>
<path d="M158.112 52.3779C152.582 58.5391 151.651 73.1203 151.651 73.1203L151.646 73.1149L145.12 65.6746C145.12 65.6692 150.786 55.5837 158.112 52.3779Z" fill="#0D43AF"/>
<path d="M77.3741 197.705C75.91 196.573 74.7942 196.948 74.0921 197.493C73.5805 197.89 73.2702 198.5 73.1777 199.136C72.3177 205.102 67.6261 204.438 65.0299 204.367C62.3357 204.296 62.6786 201.428 63.1467 199.811C63.6093 198.195 62.8038 197.509 62.02 197.558C59.3748 197.732 60.4253 202.925 60.5505 203.583C60.6702 204.247 60.0334 204.367 57.4862 203.806C54.939 203.24 55.9459 199.202 56.1636 198.146C56.3868 197.09 56.4847 195.941 55.2601 195.892C52.7837 195.914 53.6436 202.288 53.6436 202.288C50.9222 200.323 49.1588 197.117 49.9915 191.827C50.8243 186.536 55.8697 186.047 55.8697 186.047C45.3869 174.682 40.0966 147.838 46.7585 126.742C53.4205 105.646 73.9941 95.5225 73.9941 95.5225C73.9941 95.5225 70.4128 100.655 62.3031 106.56C54.1933 112.466 47.5423 126.742 47.5423 126.742C47.5423 126.742 51.0692 127.852 51.3304 138.825C51.5917 149.798 55.3799 164.036 67.7894 176.054C67.7894 176.054 70.2822 187.271 77.5374 191.397C76.9931 194.466 77.3741 197.705 77.3741 197.705Z" fill="#0D43AF"/>
<path d="M181.792 204.96C181.656 205.352 181.481 205.607 181.22 205.64C178.673 206.179 175.391 204.317 174.215 202.652C173.502 201.64 172.844 197.568 172.436 194.521C172.436 194.521 176.191 202.647 181.792 204.96Z" fill="#0D43AF"/>
<path d="M91.2968 177.752C86.4636 177.877 83.4483 183.99 83.4483 183.99L82.4686 186.047C79.339 185.884 78.0382 188.567 77.5375 191.397C70.2823 187.272 67.7895 176.054 67.7895 176.054C66.2274 169.354 68.6603 163.253 69.5584 161.31C72.1165 163.264 75.3386 163.857 78.109 163.808C78.109 163.802 81.0862 170.492 91.2968 177.752Z" fill="#8188D6"/>
<path d="M175.028 191.108C172.453 191.762 172.437 194.456 172.437 194.521C172.377 194.064 171.708 194.075 171.664 194.532L171.474 196.481C166.722 194.521 166.869 199.077 166.869 199.077C142.083 204.171 116.464 199.616 116.464 199.616C117.16 196.54 115.936 195.076 114.335 194.483C113.987 192.241 112.621 189.514 111.815 188.061C112.583 188.333 113.361 188.594 114.161 188.855C140.537 197.411 167.881 192.649 175.028 191.108Z" fill="#8188D6"/>
<path d="M114.335 194.483C114.025 194.369 113.704 194.282 113.377 194.227C111.369 193.884 111.173 195.991 110.242 201.428C109.311 206.865 103.825 206.424 103.825 206.424C104.805 203.436 103.58 200.35 102.258 200.693C99.8573 201.134 99.8083 206.571 99.8083 206.571C97.8979 207.355 94.6159 206.277 94.6159 206.277C94.273 201.477 93.1953 199.322 91.9217 200.105C89.2276 201.82 91.4319 205.837 91.4319 205.837C86.8654 203.507 84.2746 196.127 83.1317 191.903C83.1317 191.898 83.1317 191.898 83.1317 191.898C82.9902 187.603 83.4474 183.989 83.4474 183.989C83.4474 183.989 86.4626 177.877 91.2958 177.752C96.2596 181.284 102.938 184.958 111.815 188.061C112.621 189.514 113.987 192.241 114.335 194.483Z" fill="#37AAFF"/>
<path d="M197.63 185.263C203.312 200.155 193.662 204.171 193.662 204.171C195.475 200.154 194.005 198.342 192.536 198.391C191.066 198.44 190.674 203.779 190.135 205.053C189.597 206.327 185.139 206.18 185.139 206.18C187.049 201.428 185.727 199.42 184.551 199.616C182.347 200.155 182.309 203.502 181.792 204.96C176.191 202.647 172.436 194.521 172.436 194.521C172.436 194.456 172.452 191.762 175.026 191.109C175.064 191.098 175.097 191.092 175.135 191.081C175.816 190.934 176.294 190.82 176.567 190.749C179.446 190.004 189.455 189.215 200.787 181.562C198.936 183.957 197.63 185.263 197.63 185.263Z" fill="#37AAFF"/>
<path d="M205.348 119.813C202.447 117.598 198.665 116.27 194.659 114.724C190.511 113.124 191.524 108.215 192.084 106.354C189.194 114.588 181.28 120.499 171.973 120.499C163.347 120.499 155.912 115.416 152.575 108.117C135.654 104.606 124.224 109.548 120.044 111.867C116.245 117.62 109.681 121.425 102.213 121.425C94.6099 121.425 87.9371 117.479 84.1707 111.546C83.6645 112.542 82.6848 115.225 83.7407 119.574C85.1123 125.207 83.7897 128.391 79.675 130.792C75.5602 133.192 64.9795 138.825 64.9795 150.092C64.9795 155.812 66.9117 159.284 69.5569 161.309C72.115 163.263 75.3371 163.856 78.1074 163.807C78.1074 163.807 81.0846 170.491 91.2953 177.752C96.2591 181.284 102.937 184.958 111.814 188.06C112.582 188.332 113.36 188.594 114.16 188.855C140.536 197.411 167.88 192.654 175.027 191.108C175.065 191.097 175.097 191.092 175.136 191.081C175.816 190.934 176.295 190.82 176.567 190.749C179.446 190.003 189.455 189.214 200.787 181.562C205.152 175.912 212.56 164.205 213.11 149.21C213.572 136.621 210.454 127.422 205.348 119.813ZM169.687 127.907C168.914 129.665 167.309 130.938 165.573 131.755C162.144 133.382 158.089 133.469 154.475 132.31C150.866 131.156 147.693 128.821 145.238 125.931C145.233 125.937 145.228 125.942 145.222 125.947C142.386 129.311 138.549 131.913 134.255 132.882C131.169 133.573 127.854 133.366 124.904 132.201C122.428 131.216 119.663 129.05 119.347 126.198C119.173 124.592 119.951 122.861 121.388 122.132C122.825 121.403 124.839 121.92 125.568 123.357C126.015 124.238 125.998 125.371 126.7 126.067C127.201 126.568 127.952 126.709 128.66 126.775C133.177 127.183 137.842 125.142 140.601 121.544C140.911 121.136 141.205 120.706 141.369 120.222C141.543 119.694 141.559 119.122 141.69 118.578C142.033 117.168 143.225 115.993 144.645 115.693C146.066 115.394 147.639 115.987 148.493 117.163C149.032 117.903 149.277 118.812 149.62 119.661C151.465 124.222 156.657 127.161 161.518 126.399C161.975 126.328 162.448 126.214 162.797 125.915C163.483 125.338 163.472 124.298 163.836 123.482C164.626 121.729 167.271 121.386 168.735 122.627C170.199 123.863 170.46 126.154 169.687 127.907Z" fill="#EEFCFD"/>
<path d="M102.214 79.2979C90.458 79.2979 80.9277 88.7302 80.9277 100.361C80.9277 104.471 82.1197 108.308 84.1716 111.546C87.938 117.479 94.6108 121.425 102.214 121.425C109.682 121.425 116.246 117.62 120.045 111.867C122.233 108.558 123.501 104.607 123.501 100.361C123.501 88.7247 113.971 79.2979 102.214 79.2979ZM105.959 102.506C100.777 102.506 96.5757 98.5271 96.5757 93.6232C96.5757 88.7193 100.777 84.7406 105.959 84.7406C111.135 84.7406 115.337 88.7193 115.337 93.6232C115.337 98.5326 111.135 102.506 105.959 102.506Z" fill="black"/>
<path d="M115.336 93.6233C115.336 98.5272 111.135 102.506 105.959 102.506C100.777 102.506 96.5752 98.5272 96.5752 93.6233C96.5752 88.7194 100.777 84.7407 105.959 84.7407C111.135 84.7462 115.336 88.7248 115.336 93.6233Z" fill="#EEFCFD"/>
<path d="M181.737 80.7129C178.815 79.2162 175.495 78.3726 171.973 78.3726C160.217 78.3726 150.687 87.8049 150.687 99.4361C150.687 102.533 151.361 105.472 152.575 108.117C155.912 115.416 163.346 120.5 171.973 120.5C181.28 120.5 189.194 114.589 192.084 106.354C192.22 105.897 192.329 105.624 192.329 105.624C192.329 105.624 192.329 105.624 192.329 105.619C192.933 103.665 193.26 101.586 193.26 99.4361C193.26 91.2828 188.579 84.2181 181.737 80.7129ZM173.884 102.217C168.702 102.217 164.5 98.2441 164.5 93.3347C164.5 88.4308 168.702 84.4521 173.884 84.4521C179.065 84.4521 183.261 88.4308 183.261 93.3347C183.261 98.2441 179.065 102.217 173.884 102.217Z" fill="black"/>
<path d="M183.262 93.3343C183.262 98.2436 179.066 102.217 173.884 102.217C168.703 102.217 164.501 98.2436 164.501 93.3343C164.501 88.4303 168.703 84.4517 173.884 84.4517C179.066 84.4517 183.262 88.4249 183.262 93.3343Z" fill="#EEFCFD"/>
<path d="M91.4321 205.837C84.9388 206.229 83.3604 198.315 83.1318 191.903C84.2748 196.121 86.8656 203.502 91.4321 205.837Z" fill="#0D43AF"/>
<path d="M205.349 119.814C202.448 117.599 198.666 116.271 194.66 114.725C190.512 113.125 191.525 108.215 192.085 106.354C192.221 105.897 192.33 105.625 192.33 105.625C197.272 109.979 201.795 114.507 205.349 119.814Z" fill="#37AAFF"/>
<path d="M169.688 127.907C168.916 129.665 167.31 130.939 165.574 131.755C162.145 133.383 158.09 133.47 154.476 132.31C150.867 131.156 147.694 128.821 145.24 125.931C145.234 125.937 145.229 125.942 145.223 125.948C142.388 129.311 138.55 131.913 134.256 132.882C131.17 133.573 127.855 133.366 124.905 132.201C122.429 131.216 119.664 129.05 119.348 126.198C119.174 124.592 119.952 122.862 121.389 122.132C122.826 121.403 124.84 121.92 125.569 123.357C126.016 124.239 125.999 125.371 126.702 126.067C127.202 126.568 127.953 126.71 128.661 126.775C133.178 127.183 137.843 125.142 140.602 121.544C140.913 121.136 141.206 120.706 141.37 120.222C141.544 119.694 141.56 119.122 141.691 118.578C142.034 117.169 143.226 115.993 144.646 115.694C146.067 115.394 147.64 115.987 148.494 117.163C149.033 117.903 149.278 118.812 149.621 119.661C151.466 124.222 156.658 127.161 161.519 126.399C161.976 126.329 162.45 126.214 162.798 125.915C163.484 125.338 163.473 124.299 163.837 123.482C164.627 121.73 167.272 121.387 168.736 122.628C170.2 123.863 170.461 126.155 169.688 127.907Z" fill="black"/>
</g>
<defs>
<clipPath id="clip0_1948_2583">
<rect width="256" height="256" fill="white"/>
</clipPath>
</defs>
</svg>
