<svg width="256" height="256" viewBox="0 0 256 256" fill="none" xmlns="http://www.w3.org/2000/svg">
<g clip-path="url(#clip0_741_46)">
<circle cx="128" cy="128" r="128" fill="url(#paint0_radial_741_46)"/>
<path d="M81.0548 165.469C81.6932 155.829 81.5108 145.914 82.6508 136.045C83.2891 130.675 84.4291 125.35 84.8851 119.979C85.4779 112.635 84.7483 105.29 84.5659 97.8999C84.5203 95.7425 84.2923 93.585 84.8395 91.4276C85.1131 90.3259 85.5235 89.1783 86.6635 88.9488C88.6243 88.4898 88.0771 87.3881 87.6667 86.1947C87.2107 84.8635 86.8003 83.5322 86.2987 82.247C83.5627 75.4992 85.8883 69.4401 89.2171 63.7481C92.0442 58.8824 95.7378 54.5216 99.6137 50.4363C103.946 45.846 109.326 43.5508 115.665 43.459C116.85 43.459 118.036 43.4131 119.267 43.3213C119.86 43.2754 120.453 43.2754 121.091 43.2295C121.638 43.1836 122.231 43.2295 122.778 43.1377C122.961 43.0918 123.143 43.0459 123.325 43C123.645 43 123.964 43.0918 124.237 43.0918C124.921 43.1836 125.56 43.2754 126.244 43.4131C127.566 43.6426 128.888 43.8722 130.211 44.1476C132.856 44.6525 135.455 45.2951 138.054 45.9837C139.468 46.3509 140.881 46.764 142.203 47.4526C144.62 48.7838 146.353 51.033 148.679 52.5019C150.275 53.5118 152.053 54.1085 153.512 55.302C155.154 56.6332 156.203 58.5152 157.206 60.3972C158.3 62.4169 159.394 64.4366 160.124 66.64C160.306 67.1908 160.489 67.7876 160.626 68.3384C161.173 70.6794 161.446 73.0664 161.72 75.4533C161.994 77.7944 162.313 80.1813 163.088 82.4306C163.27 82.9814 163.498 83.5322 163.726 84.0831C163.818 84.3126 163.954 84.5421 164 84.7717C164 85.093 163.954 85.4143 163.954 85.7356C163.909 92.667 163.316 99.5524 163.179 106.484C162.951 117.684 162.176 128.884 160.945 140.039C160.717 142.013 160.99 143.94 161.446 145.822C162.769 151.423 163.179 157.023 162.358 162.807C161.674 167.672 161.674 172.676 161.355 177.633C161.218 179.837 160.033 180.755 157.89 180.8C155.382 180.846 153.102 179.791 150.594 179.745C147.083 179.653 143.708 180.479 140.288 180.846C134.543 181.397 128.98 180.341 123.325 179.653C122.322 179.561 121.365 179.102 120.361 179.148C119.313 179.148 118.309 179.194 117.261 179.148C116.759 179.102 116.257 179.102 115.756 178.964C115.437 178.873 115.209 178.735 114.889 178.689C113.521 178.551 112.154 178.551 110.786 178.459C109.418 178.414 108.05 178.322 106.682 178.276C103.946 178.138 101.164 178.046 98.4282 177.955C95.6922 177.863 92.9106 177.771 90.1747 177.679C89.4907 177.679 88.8067 177.633 88.1227 177.633C87.4843 177.633 86.7547 177.495 86.1163 177.587C85.9339 177.633 85.7515 177.725 85.6147 177.771C84.9763 177.955 84.2011 177.863 83.5627 177.725C81.5564 177.174 81.0548 175.017 81.0092 173.181C80.9636 171.941 81.1004 170.702 81.146 169.462C81.0548 168.223 81.0548 166.984 81.0548 165.469Z" fill="#6B00FA" stroke="black" stroke-width="0.5" stroke-miterlimit="10"/>
<path d="M165 204.552C164.635 207.002 164.954 209.782 164.271 212.42C163.997 213.456 163.769 214.446 162.675 214.87C161.627 215.247 160.897 214.776 160.396 213.833C160.031 213.174 159.393 213.221 158.755 213.174C153.604 212.844 148.453 212.514 143.347 212.232C125.752 211.289 108.202 210.347 90.6058 209.405C85.6827 209.169 80.7595 209.028 75.8364 208.745C74.5144 208.651 71.8705 208.745 71.5514 206.908C71.4602 206.342 71.1411 205.871 71.0044 205.306C70.6853 204.128 70.6397 202.856 70.6397 201.631C70.5485 198.804 70.5029 195.93 70.4118 193.104C70.4118 192.632 70.4118 192.161 70.3662 191.69C70.3662 191.36 70.275 191.172 70.1383 190.936C69.8192 190.23 70.0927 189.429 70.5485 188.863C71.1411 188.109 71.9617 187.78 72.8278 188.157C75.654 189.24 78.617 189.005 81.4889 189.193C94.9819 189.994 108.521 190.607 122.059 191.266C134.367 191.879 146.629 192.538 158.937 193.198C163.177 193.433 164.818 195.224 164.818 199.652C164.818 201.207 164.909 202.762 165 204.552Z" fill="#4300BF" stroke="black" stroke-width="0.5" stroke-miterlimit="10"/>
<path d="M125.5 179.849C121.338 179.709 117.131 179.522 113.015 178.914C110.363 178.493 107.802 177.886 105.149 177.512C102.314 177.138 99.3872 177.091 96.5518 177.045C92.2073 176.951 87.7713 176.904 83.564 177.979C79.3567 179.054 75.2409 181.438 73 185.27C76.9787 188.261 82.1921 188.635 87.1311 188.915C90.1494 189.102 93.1677 189.243 96.186 189.43C118.457 190.691 140.729 191.953 163 192C162.314 189.85 161.628 187.654 160.896 185.504C160.256 183.588 159.341 181.344 157.146 180.877C156.415 180.737 155.683 180.877 154.951 180.924C153.671 180.924 152.345 180.83 151.064 180.783C145.622 180.596 140.134 180.363 134.692 180.176C131.628 180.082 128.564 179.942 125.5 179.849Z" fill="#6B00FA" stroke="black" stroke-width="0.5" stroke-miterlimit="10"/>
<path d="M176.437 175.489C177.127 175.122 177.91 174.755 178.325 174.113C178.739 173.471 178.786 172.691 178.832 171.956C179.016 168.928 179.2 165.946 179.384 162.918C179.615 159.523 179.799 156.128 179.753 152.733C179.707 149.521 179.384 146.309 179.568 143.144C179.753 140.207 180.351 137.317 180.674 134.38C181.825 124.011 179.384 113.551 179.845 103.136C180.029 99.2819 180.628 95.428 180.858 91.5281C181.549 81.0216 179.707 70.3315 175.561 60.6507C175.193 59.8249 174.825 58.9991 174.134 58.4485C173.213 57.7144 171.969 57.6226 170.956 57.0262C169.528 56.1545 168.975 54.411 168.192 52.897C166.258 49.1348 162.573 46.5655 158.566 45.1432C154.559 43.7209 150.322 43.3079 146.131 42.895C143.183 42.6197 140.235 42.3444 137.288 42.0233C135.86 41.8856 133.787 42.3444 134.018 43.7668C138.255 46.9325 143.137 49.2265 147.605 52.0711C152.072 54.9157 156.309 58.5402 158.428 63.4036C159.349 65.4682 159.81 67.7163 160.27 69.9645C161.652 76.3877 162.988 82.811 163.31 89.3717C163.54 94.1433 163.218 98.9607 162.896 103.778C162.481 110.064 162.205 116.395 161.928 122.681C161.652 128.967 161.468 135.298 161.376 141.584C161.238 147.915 161.192 154.201 161.238 160.486C161.238 163.652 161.284 166.818 161.33 169.938C161.33 171.498 161.376 173.103 161.422 174.663C161.468 176.132 161.33 177.737 161.514 179.251C161.836 181.5 164.37 181.178 165.935 180.49C168.791 179.251 171.554 177.783 174.41 176.407C174.917 176.223 175.93 175.489 176.437 175.489Z" fill="#4300BF" stroke="black" stroke-width="0.5" stroke-miterlimit="10"/>
<path d="M164.447 191.307C164.633 191.631 164.865 192 165.237 192C165.469 192 165.702 191.861 165.888 191.769C168.025 190.338 169.791 188.398 172.114 187.336C173.694 186.597 175.413 186.32 177.039 185.766C179.362 184.981 181.453 183.642 183.544 182.349C184.288 181.887 185.124 181.194 184.985 180.317C184.938 179.993 184.752 179.716 184.566 179.485C183.405 177.915 182.011 176.576 180.431 175.468C180.106 175.237 179.781 175.052 179.409 175.006C178.944 174.96 178.48 175.191 178.061 175.375C174.669 177.038 171.324 178.7 167.978 180.409C166.306 181.24 164.633 182.118 162.96 182.949C161.566 183.642 160.405 184.149 161.334 185.812C162.403 187.659 163.518 189.46 164.447 191.307Z" fill="#100342" stroke="black" stroke-width="0.5" stroke-miterlimit="10"/>
<path d="M165.651 210.801C165.697 211.118 165.743 211.481 165.926 211.708C166.428 212.252 167.296 211.935 167.935 211.572C173.462 208.487 178.989 205.402 184.516 202.317C185.064 201.999 185.658 201.681 186.023 201.137C186.389 200.547 186.434 199.821 186.48 199.141C186.663 195.466 186.8 191.791 186.982 188.071C187.028 187.027 187.028 185.893 186.434 185.077C185.794 184.169 184.561 183.897 183.465 184.033C182.369 184.169 181.364 184.714 180.405 185.258C175.974 187.708 171.544 190.112 167.113 192.517C165.652 193.334 163.87 193.878 164.007 195.784C164.144 198.007 164.509 200.23 164.738 202.407C164.875 203.814 165.058 205.175 165.195 206.581C165.332 207.988 165.651 209.439 165.651 210.801Z" fill="#100342" stroke="black" stroke-width="0.5" stroke-miterlimit="10"/>
<path d="M141.338 66.5011C142.292 67.2883 142.192 68.9119 141.187 69.6499C140.182 70.3879 138.575 69.8959 138.123 68.7643C137.671 67.6327 138.525 66.2059 139.73 66.0091C140.283 65.9599 140.886 66.1075 141.338 66.5011Z" fill="#4300BF"/>
<path d="M148.086 73.0199C148.043 73.2908 148 73.5076 148 73.7785C148.043 74.2662 148.3 74.6455 148.642 74.8081C149.54 75.4041 150.867 74.5371 150.995 73.2366C151.081 71.9361 149.968 70.6898 148.984 71.0691C148.899 71.0149 148.77 71.1233 148.727 71.2317C148.342 71.8277 148.257 72.3696 148.086 73.0199Z" fill="#4300BF"/>
<path d="M143.947 80.0107C143.239 80.0107 142.53 80.0107 141.869 80.0107C141.68 80.0107 141.491 80.0107 141.349 80.1365C141.255 80.2203 141.255 80.3461 141.208 80.4718C141.113 80.9749 141.066 81.4361 141.019 81.9391C140.972 82.5261 140.972 83.2807 141.538 83.5742C141.916 83.7418 142.341 83.6999 142.719 83.7838C143.05 83.8676 143.333 84.0353 143.664 83.9934C144.325 83.9934 144.75 83.3645 144.892 82.7776C145.034 82.1488 145.081 81.5199 144.75 80.933C144.42 80.3461 143.758 79.9268 143.05 80.0107" fill="#4300BF"/>
<path d="M174.629 99.3763C174.134 98.8976 173.539 98.9454 172.896 99.1369C172.302 99.3284 171.955 99.903 172.005 100.477C172.005 100.956 172.351 101.435 172.698 101.77C173.242 102.297 174.233 101.818 174.629 101.339C175.124 100.86 175.124 99.9508 174.629 99.3763Z" fill="#6B00FA"/>
<path d="M171.988 107.148C171.941 106.866 171.752 106.397 171.516 106.162C171.233 105.881 170.667 106.022 170.337 106.162C170.054 106.303 169.771 106.491 169.535 106.725C169.44 106.819 169.346 106.866 169.299 107.007C169.157 107.241 169.11 107.476 169.063 107.757C169.063 107.898 168.921 108.555 169.063 108.649C169.629 109.024 170.384 109.118 171.044 108.836C171.61 108.508 172.082 107.804 171.988 107.148Z" fill="#6B00FA"/>
<path d="M92.659 165C91.6707 165 90.7343 165.422 90.2662 166.173C89.798 166.923 89.954 168.002 90.6823 168.565C91.4626 169.175 94.0115 169.128 94.7398 168.518C95.4681 167.909 94.4797 166.83 94.0635 165.938C93.4393 165.61 92.7631 165.281 92.0868 165" fill="#4300BF"/>
<path d="M88.6671 150.188C88.394 150.866 88.1664 151.543 88.0299 152.263C87.9844 152.39 87.9844 152.559 88.0754 152.686C88.2119 152.898 88.485 152.94 88.7581 152.983C89.4408 153.025 90.2145 153.025 90.6241 152.559C90.7606 152.432 90.8517 152.221 90.8972 152.051C91.1247 151.374 90.9882 150.569 90.351 150.188C89.7138 149.807 88.7126 150.019 88.576 150.696" fill="#4300BF"/>
<path d="M98.9115 157.762C98.8161 157.515 98.6251 157.121 98.3865 157.022C98.2433 156.973 98.0047 157.022 97.8137 157.022C97.6228 157.022 97.4796 157.022 97.2887 157.022C97.1455 157.022 97.0023 157.022 96.9069 157.071C96.716 157.17 96.525 157.466 96.3818 157.614C96.2864 157.663 96.2387 157.712 96.1909 157.811C96.0477 158.057 96 158.403 96 158.699C96 158.797 96 159.586 96.0955 159.586C96.5728 159.685 98.2433 159.833 98.7206 159.931C99.007 159.981 98.1956 160.079 98.4342 159.882C98.5297 159.783 98.6251 159.685 98.7206 159.537C98.9593 158.945 99.1024 158.304 98.9115 157.762Z" fill="#4300BF"/>
<path d="M143.951 207.532C144.773 208.323 146.115 208.097 146.678 206.967C147.111 206.12 147.024 205.047 146.894 204.031C146.851 203.748 146.808 203.466 146.678 203.296C146.548 203.127 146.332 203.071 146.115 203.071C145.509 202.958 144.99 203.014 144.384 203.014C144.297 203.014 144.211 203.014 144.124 203.014C143.908 203.127 143.691 203.353 143.518 203.579C143.085 204.144 142.912 204.821 143.042 205.612C143.172 206.346 143.475 207.08 143.951 207.532Z" fill="#6B00FA"/>
<path d="M137.942 198.504C137.193 198.797 136.819 199.627 137.086 200.311C137.514 200.653 138.049 200.947 138.638 200.995C139.227 201.044 139.869 200.702 139.976 200.165C140.083 199.725 139.815 199.334 139.548 198.943C139.28 198.553 138.959 198.162 138.478 198.015C137.996 197.917 137.354 198.308 137.568 198.748" fill="#6B00FA"/>
<path d="M169.909 166.271C169.162 166.018 168.323 166.372 167.809 166.979C167.296 167.636 167.063 168.496 167.016 169.305C166.97 169.76 167.016 170.215 167.25 170.569C167.576 171.024 168.183 171.075 168.696 170.923C169.722 170.721 170.655 169.912 170.935 168.85C171.215 167.788 170.562 166.423 169.535 166.271C170.282 166.17 169.395 165.715 169.909 166.271Z" fill="#6B00FA"/>
<path d="M173.382 155C172.222 155.163 171.117 155.774 171.006 156.629C170.896 157.485 172.222 158.299 173.272 157.892C174.321 157.159 174.211 155.733 173.106 155.041" fill="#6B00FA"/>
<path d="M143.547 61.1444C143.076 61.2628 142.879 61.8945 143.076 62.3288C143.272 62.7631 143.783 63 144.293 63C144.529 63 144.804 62.921 144.921 62.7236C144.961 62.6052 145 62.4867 145 62.3683C145 61.934 145 61.4602 144.882 61.0259C144.45 60.9865 144.018 60.9864 143.586 61.0654" fill="#100342"/>
<path d="M138.309 69.2388C137.804 69.2865 137.242 69.3343 136.792 69.5253C136.343 69.7163 135.949 70.1461 136.005 70.5758C136.062 71.1489 136.792 71.5309 137.41 71.7696C137.916 71.9606 138.59 72.1517 139.04 71.8174C139.489 71.4831 139.321 70.9101 139.658 70.4803C139.77 70.3371 139.939 70.1938 139.995 70.0028C140.051 69.6685 139.602 69.4298 139.208 69.382C138.815 69.3343 138.366 69.2865 138.197 69" fill="#100342"/>
<path d="M131.226 59C130.836 59.2155 130.404 59.5173 130.187 59.9053C129.755 60.6381 130.101 61.8021 130.923 61.9745C131.745 62.147 132.481 61.4141 132.913 60.6813C132.957 60.595 133 60.5088 133 60.4226C133 60.3364 132.913 60.2502 132.827 60.2071C132.351 59.8622 131.875 59.5173 131.399 59.2155C131.269 59.1293 131.053 59.0431 130.966 59.2155" fill="#100342"/>
<path d="M96.2304 67.436C96.0461 67.8686 95.9724 68.3733 96.0092 68.878C96.341 69.0582 96.7465 69.0222 97.0783 68.878C97.4101 68.6977 97.6682 68.4454 97.8894 68.1209C97.9263 68.0489 98 67.9768 98 67.8686C98 67.7244 97.9263 67.5802 97.8157 67.4721C97.5945 67.2197 97.2995 67.0395 96.9677 67.0034C96.6359 66.9674 96.2673 67.2197 96.2304 67.5081" fill="#100342"/>
<path d="M94.3182 74.4858C93.9574 74.6683 93.9123 75.2614 94.1378 75.5808C94.4084 75.9002 94.8593 76.0371 95.2652 75.9914C95.5357 75.9458 95.8514 75.8546 95.9416 75.6265C96.122 75.2615 95.8514 74.8508 95.5808 74.577C95.3103 74.2577 94.9044 73.8927 94.4535 74.0296" fill="#100342"/>
<path d="M112.164 51.2281C111.955 51.6631 111.955 52.1853 112.112 52.6639C112.373 53.0119 113 53.0989 113.418 52.8814C113.835 52.6639 114.044 52.2288 113.992 51.7937C113.888 51.3151 113.261 50.8365 112.739 51.054" fill="#100342"/>
<path d="M152.471 96.3559C152.105 96.8238 152.262 97.5257 152.89 97.8377C153.518 98.1497 154.46 97.9937 154.827 97.5257C155.036 97.2918 155.036 96.9408 154.931 96.6679C154.722 96.2779 154.146 96.005 153.57 96.005C152.995 95.966 152.419 96.1609 152 96.4339C152.209 96.4729 152.366 96.5509 152.576 96.5899" fill="#100342"/>
<path d="M149.458 164.118C149.401 164.687 149 165.218 149 165.787C149 166.355 149.573 167 150.433 167C151.177 167 151.693 166.545 152.037 166.128C152.324 165.863 152.553 165.559 152.782 165.294C152.954 165.142 153.068 164.953 152.954 164.763C152.897 164.687 152.782 164.611 152.667 164.573C151.693 164.156 150.49 163.967 149.287 164.005" fill="#100342"/>
<path d="M149.458 164.118C149.401 164.687 149 165.218 149 165.787C149 166.355 149.573 167 150.433 167C151.177 167 151.693 166.545 152.037 166.128C152.324 165.863 152.553 165.559 152.782 165.294C152.954 165.142 153.068 164.953 152.954 164.763C152.897 164.687 152.782 164.611 152.667 164.573C151.693 164.156 150.49 163.967 149.287 164.005" stroke="black" stroke-width="0.5" stroke-miterlimit="10"/>
<path d="M146 155.958C146.17 156.399 146.443 156.841 146.818 156.961C147.465 157.202 148.215 156.279 147.942 155.557C147.67 154.835 146.579 154.794 146.307 155.557" fill="#100641"/>
<path d="M127.073 167.845C126.783 168.739 127.404 169.833 128.191 169.982C128.978 170.131 129.766 169.336 129.973 168.392C130.014 168.243 130.014 168.044 129.931 167.895C129.848 167.746 129.724 167.696 129.558 167.647C128.896 167.448 128.191 167.248 127.528 167C127.445 167.248 127.363 167.547 127.321 167.795" fill="#100641"/>
<path d="M93.1619 135.19C93.0734 135.532 92.9407 135.874 93.0292 136.216C93.0734 136.558 93.3388 136.9 93.7369 136.976C94.1792 137.09 94.6658 136.786 94.8427 136.406C95.0197 136.026 95.0197 135.608 94.9754 135.228C94.4446 135.152 93.9138 135.076 93.4273 135" fill="#100342"/>
<path d="M88.2001 196.957C87.9797 197.562 87.8144 198.354 88.4205 198.773C89.0818 199.239 90.0185 198.82 90.845 198.959C91.0104 198.401 91.0655 197.795 90.9002 197.236C90.7349 196.677 90.2389 196.118 89.5777 196.025C88.9164 195.885 88.145 196.351 88.2001 196.957C88.3103 196.957 88.5307 196.957 88.6961 196.957H88.2001Z" fill="#100641"/>
<path d="M99 200.678C99 201.389 99 202.056 99.0375 202.767C99.4495 202.856 99.899 202.9 100.349 202.989C100.461 202.989 100.611 203.033 100.723 202.944C100.835 202.856 100.873 202.678 100.91 202.5C101.06 201.745 101.06 200.9 100.611 200.323C100.161 199.79 99.1873 199.923 99.1124 200.678" fill="#100641"/>
<path d="M146.571 202.111C146.101 202.601 145.845 203.472 146.101 204.18C146.358 204.888 147.126 205.269 147.639 204.779C147.853 204.18 148.066 203.527 147.981 202.873C147.895 202.22 147.212 201.73 146.785 202.165" fill="#100641"/>
<path d="M171.15 202.128C171.032 202.555 170.973 203.037 171.15 203.465C171.328 203.893 171.979 204.16 172.393 203.893C172.571 203.786 172.63 203.625 172.689 203.465C172.926 202.983 173.044 202.502 172.985 202.021C172.926 201.539 172.512 201.058 171.979 201.004C171.446 200.951 170.855 201.432 171.032 201.86" fill="#100641"/>
<path d="M169.176 146.971C169.08 147.386 168.936 147.8 169.032 148.214C169.128 148.628 169.464 149.043 169.895 148.996C170.567 148.996 170.855 148.214 170.951 147.57C171.047 147.017 171.047 146.281 170.519 146.051C169.943 145.821 169.416 146.419 169.08 146.879" fill="#100641"/>
<path d="M173.091 77.606C172.987 77.9451 172.935 78.3218 173.143 78.6232C173.352 78.9246 173.925 79.113 174.341 78.9246C174.55 78.8492 174.654 78.6985 174.758 78.5478C174.914 78.2464 175.07 77.9451 174.966 77.6437C174.862 77.3423 174.55 77.0409 174.133 77.0032C173.716 76.9655 173.247 77.2669 173.352 77.5683" fill="#100342"/>
<path d="M171 83.8328C171 84.2311 171 84.5932 171.03 84.9915C171.482 85.0639 171.933 84.6656 171.993 84.1225C172.054 83.5793 171.692 83.0362 171.241 83C171.271 83.2535 171.211 83.5069 171.12 83.7242" fill="#100342"/>
<path d="M177.263 84.7128C177.076 85.1681 176.936 85.6648 177.03 86.1615C177.123 86.6583 177.684 87.0722 178.198 86.9894C178.898 86.8652 179.039 85.996 178.992 85.3337C178.945 84.8784 178.898 84.3402 178.478 84.0919C178.058 83.8435 177.263 84.1333 177.45 84.5472" fill="#100342"/>
<path d="M106.039 137.194C106.827 134.413 105.344 131.911 103.213 129.408C99.9221 125.562 96.9098 121.53 96.2146 116.155C94.6853 104.013 101.451 92.1493 112.62 87.8394C124.345 83.2979 137.321 87.376 144.319 97.7567C147.424 102.345 149 107.396 149 112.957C149 118.055 147.378 122.457 143.809 126.118C142.095 127.833 140.658 129.825 138.851 131.447C136.951 133.116 136.255 135.016 136.394 137.426C136.487 139.326 136.255 141.226 136.302 143.126C136.302 143.265 136.302 143.404 136.302 143.496C136.302 143.682 136.255 143.821 136.255 143.96C136.255 144.053 136.255 144.933 136.302 144.933C135.977 144.933 135.653 144.933 135.375 144.979C135.004 144.979 134.633 145.026 134.263 144.979C133.568 144.887 132.919 144.887 132.224 144.84C132.085 144.84 131.945 144.84 131.76 144.794C131.482 144.794 131.25 144.748 130.972 144.748C130.88 144.748 130.787 144.701 130.648 144.701C130.509 144.701 130.37 144.701 130.231 144.701C129.721 144.701 129.165 144.701 128.609 144.701C128.609 144.423 128.562 144.145 128.562 143.867C128.516 143.311 128.516 142.755 128.516 142.199C128.516 141.133 128.47 140.067 128.47 139.001C128.47 138.955 128.47 138.909 128.423 138.862C128.377 138.816 128.331 138.816 128.284 138.816C127.172 138.723 126.06 138.816 124.948 138.955C124.948 139.604 124.948 140.252 124.901 140.948C124.901 141.133 124.901 141.318 124.901 141.504C124.901 141.782 124.901 142.013 124.855 142.292C124.855 142.384 124.809 142.431 124.809 142.477C124.762 142.57 124.762 142.709 124.762 142.801C124.716 143.311 124.716 143.867 124.809 144.377C124.484 144.377 124.16 144.377 123.789 144.377C123.372 144.377 122.908 144.377 122.491 144.284C121.982 144.192 121.425 144.238 120.916 144.192C120.73 144.192 120.499 144.192 120.313 144.145C119.803 144.145 119.294 144.053 118.784 144.053C118.506 144.053 118.274 144.053 117.996 144.053C117.95 144.053 117.255 144.099 117.208 144.145C117.208 143.682 117.255 143.172 117.255 142.709C117.255 142.477 117.255 142.245 117.301 141.967C117.301 141.735 117.347 141.504 117.347 141.272C117.347 140.345 117.347 139.418 117.301 138.445C116.096 138.213 114.845 138.121 113.593 138.121C113.547 139.187 113.501 140.252 113.408 141.318C113.362 141.828 113.362 142.384 113.315 142.94C113.315 143.079 113.315 143.218 113.315 143.357C113.315 143.45 113.315 143.543 113.269 143.589C113.223 143.682 112.991 143.682 112.898 143.682C112.249 143.728 111.554 143.682 110.906 143.635C110.628 143.635 110.303 143.589 110.025 143.589C109.284 143.543 108.542 143.543 107.801 143.496C107.569 143.496 107.291 143.45 107.059 143.45C106.92 143.404 106.781 143.357 106.596 143.357C106.549 143.357 105.808 143.311 105.808 143.311C105.808 143.265 105.808 143.218 105.808 143.172C105.808 142.662 105.808 142.106 105.808 141.55C105.808 141.318 105.761 141.087 105.854 140.855C105.9 140.762 105.854 140.67 105.854 140.577C105.854 140.345 105.854 140.113 105.854 139.882C105.854 139.279 105.9 138.723 105.9 138.121C105.993 138.121 105.993 137.935 106.039 137.194ZM121.055 128.667C121.472 128.713 121.889 128.713 122.306 128.76C122.955 128.806 123.65 128.852 124.299 128.945C124.067 128.25 123.835 127.555 123.557 126.906C123.465 126.628 123.326 126.396 123.233 126.164C123.14 125.933 123.001 125.747 122.908 125.516C122.862 125.469 122.862 125.377 122.862 125.33C122.816 125.099 122.723 124.913 122.677 124.682C122.445 124.125 122.26 123.523 122.028 122.92C121.935 122.642 121.843 122.411 121.704 122.133C121.704 122.179 121.611 122.318 121.611 122.318C121.564 122.411 121.472 122.503 121.425 122.596C120.823 123.43 120.267 124.264 119.757 125.145C119.479 125.562 119.247 126.025 118.969 126.489C118.83 126.721 118.738 126.952 118.598 127.138C118.552 127.23 118.506 127.323 118.459 127.416C118.413 127.601 118.228 127.786 118.089 127.972C117.903 128.204 117.718 128.435 117.579 128.713C117.579 128.713 117.718 128.713 117.764 128.713C117.811 128.713 117.903 128.713 117.95 128.713C118.089 128.713 118.228 128.713 118.367 128.713C118.645 128.713 118.877 128.713 119.155 128.667C119.247 128.667 119.386 128.621 119.479 128.621C119.618 128.621 119.757 128.621 119.896 128.667C120.174 128.667 120.406 128.713 120.684 128.713C120.823 128.621 120.962 128.621 121.055 128.667Z" fill="#E0E3BD" stroke="black" stroke-width="0.5" stroke-miterlimit="10"/>
<path d="M104.842 135.519C105.584 132.819 104.147 130.393 102.063 127.967C98.8198 124.214 95.8549 120.323 95.2063 115.151C93.7238 103.388 100.349 91.9459 111.282 87.7808C122.771 83.3869 135.465 87.3231 142.367 97.3925C145.379 101.832 146.954 106.73 147 112.085C147 117.028 145.425 121.285 141.904 124.809C140.236 126.502 138.846 128.425 137.04 129.935C135.187 131.537 134.492 133.368 134.631 135.748C134.723 137.579 134.492 139.41 134.538 141.24C134.538 141.378 134.538 141.469 134.538 141.607C134.538 141.744 134.492 141.927 134.492 142.064C134.492 142.156 134.492 142.98 134.538 142.98C134.214 142.98 133.936 142.98 133.611 142.98C133.241 142.98 132.87 143.025 132.5 142.98C131.851 142.888 131.156 142.888 130.508 142.842C130.369 142.842 130.23 142.842 130.091 142.797C129.813 142.797 129.581 142.751 129.303 142.751C129.21 142.751 129.118 142.705 129.025 142.705C128.886 142.705 128.747 142.705 128.608 142.705C128.099 142.705 127.543 142.705 127.033 142.705C127.033 142.43 126.987 142.202 126.987 141.927C126.94 141.378 126.94 140.874 126.94 140.325C126.94 139.272 126.894 138.265 126.894 137.213C126.894 137.167 126.894 137.121 126.848 137.075C126.801 137.03 126.755 137.03 126.709 137.03C125.643 136.938 124.531 137.03 123.466 137.167C123.466 137.808 123.466 138.448 123.42 139.089C123.42 139.272 123.42 139.455 123.42 139.638C123.42 139.867 123.42 140.142 123.373 140.417C123.373 140.508 123.327 140.554 123.327 140.6C123.281 140.691 123.281 140.828 123.281 140.92C123.234 141.423 123.234 141.927 123.327 142.43C123.003 142.43 122.678 142.43 122.354 142.43C121.937 142.43 121.52 142.43 121.103 142.339C120.594 142.247 120.084 142.293 119.528 142.247C119.343 142.247 119.111 142.247 118.926 142.202C118.416 142.202 117.953 142.11 117.443 142.11C117.165 142.11 116.934 142.11 116.656 142.11C116.609 142.11 115.915 142.156 115.915 142.202C115.915 141.744 115.961 141.286 115.961 140.783C115.961 140.554 115.961 140.325 116.007 140.096C116.007 139.867 116.054 139.638 116.054 139.41C116.054 138.494 116.054 137.579 116.007 136.663C114.803 136.48 113.598 136.343 112.394 136.343C112.347 137.396 112.301 138.403 112.255 139.455C112.208 139.959 112.208 140.508 112.162 141.012C112.162 141.149 112.162 141.286 112.162 141.423C112.162 141.515 112.162 141.607 112.116 141.652C112.069 141.744 111.838 141.744 111.745 141.744C111.096 141.79 110.448 141.744 109.799 141.698C109.521 141.698 109.197 141.652 108.919 141.652C108.178 141.607 107.437 141.607 106.742 141.561C106.51 141.561 106.278 141.515 106.001 141.515C105.862 141.515 105.723 141.423 105.537 141.423C105.491 141.423 104.796 141.378 104.796 141.378C104.796 141.332 104.796 141.286 104.796 141.24C104.796 140.737 104.796 140.188 104.796 139.684C104.796 139.455 104.75 139.227 104.842 139.043C104.889 138.952 104.842 138.86 104.842 138.769C104.842 138.54 104.842 138.311 104.842 138.082C104.842 137.533 104.889 136.938 104.889 136.389C104.796 136.389 104.796 136.251 104.842 135.519ZM119.574 127.235C119.991 127.28 120.408 127.28 120.779 127.326C121.427 127.372 122.076 127.418 122.725 127.509C122.493 126.869 122.308 126.182 122.03 125.495C121.937 125.221 121.798 124.992 121.705 124.763C121.613 124.534 121.474 124.351 121.381 124.122C121.335 124.077 121.335 123.985 121.335 123.939C121.289 123.71 121.196 123.527 121.15 123.298C120.918 122.749 120.733 122.154 120.501 121.605C120.408 121.33 120.316 121.102 120.177 120.827C120.177 120.873 120.084 120.964 120.084 121.01C120.038 121.102 119.945 121.193 119.899 121.285C119.343 122.108 118.787 122.932 118.277 123.756C117.999 124.168 117.768 124.626 117.536 125.038C117.397 125.267 117.304 125.45 117.165 125.679C117.119 125.77 117.073 125.862 117.026 125.953C116.98 126.136 116.795 126.319 116.656 126.457C116.471 126.685 116.332 126.914 116.146 127.143C116.146 127.143 116.285 127.143 116.332 127.143C116.378 127.143 116.471 127.143 116.517 127.143C116.656 127.143 116.795 127.143 116.934 127.143C117.212 127.143 117.443 127.143 117.721 127.097C117.814 127.097 117.953 127.052 118.046 127.052C118.185 127.052 118.324 127.052 118.463 127.097C118.741 127.097 118.972 127.143 119.25 127.143C119.343 127.235 119.482 127.235 119.574 127.235Z" fill="#E0E3BD" stroke="black" stroke-width="0.5" stroke-miterlimit="10"/>
<path d="M137.585 91.0017C129.116 84.3368 119.537 83.2412 109.633 87.6237C93.7606 94.6536 89.5032 115.469 99.0361 125.832C100.378 127.293 101.396 128.982 102.785 130.442C104.034 131.766 104.45 133.181 104.358 134.962C104.219 137.427 103.988 139.937 104.358 142.631L112.503 142.996L112.642 137.29L115.788 137.381V137.427C115.788 137.472 115.788 137.518 115.788 137.564C115.788 137.609 115.788 137.7 115.788 137.746C115.788 137.837 115.788 137.929 115.788 137.974C115.788 138.066 115.788 138.157 115.788 138.248C115.788 138.34 115.788 138.476 115.788 138.568C115.788 138.705 115.788 138.796 115.788 138.933C115.788 139.07 115.788 139.207 115.788 139.344C115.788 139.481 115.788 139.618 115.788 139.755C115.788 139.892 115.788 140.029 115.788 140.166C115.788 140.302 115.788 140.439 115.788 140.576C115.788 140.713 115.788 140.85 115.788 140.987C115.788 141.124 115.788 141.215 115.788 141.352C115.788 141.444 115.788 141.581 115.788 141.718C115.788 141.809 115.788 141.946 115.788 142.037C115.788 142.128 115.788 142.22 115.788 142.311C115.788 142.357 115.788 142.448 115.788 142.539C115.788 142.585 115.788 142.631 115.788 142.676C115.788 142.813 115.742 142.95 115.742 143.133C115.788 143.133 115.788 143.133 115.835 143.133H115.881H115.927C115.973 143.133 116.066 143.133 116.112 143.133C116.251 143.133 116.39 143.133 116.529 143.133C117.084 143.133 117.593 143.178 118.148 143.178C118.796 143.224 119.49 143.224 120.185 143.27C120.786 143.315 121.434 143.315 122.036 143.361C122.406 143.361 122.776 143.407 123.193 143.407C123.239 143.407 123.285 143.407 123.331 143.407C123.424 143.407 123.47 143.407 123.563 143.361C123.563 143.224 123.609 143.041 123.609 142.904V142.859C123.609 142.813 123.609 142.722 123.655 142.676C123.655 142.539 123.702 142.402 123.702 142.311C123.702 142.22 123.702 142.128 123.702 142.037C123.702 141.946 123.702 141.855 123.702 141.809C123.702 141.718 123.702 141.672 123.702 141.581C123.702 141.489 123.702 141.398 123.702 141.307C123.702 141.215 123.702 141.078 123.702 140.942C123.702 140.805 123.702 140.668 123.702 140.576C123.702 140.439 123.702 140.302 123.702 140.166C123.702 140.029 123.702 139.892 123.702 139.755C123.702 139.618 123.702 139.481 123.702 139.344C123.702 139.207 123.702 139.07 123.702 138.933C123.702 138.842 123.702 138.705 123.702 138.568C123.702 138.476 123.702 138.385 123.702 138.294C123.702 138.203 123.702 138.157 123.702 138.066C123.702 138.02 123.702 137.974 123.702 137.929V137.883L126.848 137.974L126.71 143.635C127.219 143.635 135.271 144 135.271 144C135.271 142.357 135.271 140.713 135.271 139.024C135.271 138.248 135.271 137.472 135.271 136.696C135.271 136.468 135.271 136.24 135.224 136.057C135.224 135.509 135.224 134.962 135.317 134.459C135.41 133.912 135.595 133.318 135.965 132.862C136.057 132.77 136.15 132.633 136.243 132.542C136.381 132.405 136.474 132.314 136.613 132.177C136.844 131.949 137.076 131.675 137.307 131.447C137.77 130.944 138.232 130.488 138.695 129.986C139.158 129.484 139.574 129.027 140.037 128.525C140.5 128.023 140.916 127.566 141.333 127.064C141.749 126.562 142.212 126.106 142.629 125.604C143.045 125.101 143.462 124.645 143.878 124.143C144.11 123.915 144.295 123.641 144.526 123.412C146.099 121.495 147.21 119.35 147.58 116.885C149.246 106.34 145.961 97.5752 137.585 91.0017ZM111.346 135.783C111.253 135.783 111.161 135.783 111.022 135.783C110.975 135.783 110.929 135.783 110.883 135.783C110.883 136.011 110.883 136.24 110.883 136.468C110.883 136.924 110.837 137.427 110.837 137.883C110.79 138.842 110.744 139.846 110.744 140.805L106.625 140.622C106.625 140.211 106.672 139.8 106.672 139.389C106.718 138.476 106.764 137.564 106.764 136.605C106.811 135.646 106.857 134.642 106.857 133.683C106.857 133.318 106.903 132.953 106.903 132.588C106.903 132.405 106.857 132.223 106.857 132.086C106.857 131.903 106.811 131.72 106.811 131.538C106.811 131.447 106.764 131.401 106.764 131.31C106.718 131.264 106.718 131.173 106.672 131.127C106.625 130.99 106.579 130.853 106.487 130.716C106.348 130.442 106.209 130.168 106.07 129.895C105.931 129.621 105.746 129.392 105.561 129.118C105.469 128.982 105.33 128.799 105.191 128.662C103.247 126.334 101.396 123.915 99.5452 121.495C96.9074 117.934 96.4446 113.78 96.9537 109.581C98.1106 100.131 103.108 93.2842 112.04 89.7692C120.879 86.2999 129.255 87.7607 136.289 94.0146C143.462 100.36 146.099 108.44 143.786 117.889C143.23 120.308 141.657 122.043 140.083 123.778C138.14 125.923 136.15 128.023 134.16 130.123C134.068 130.214 133.975 130.26 133.929 130.351C133.929 130.397 133.929 130.397 133.882 130.442C133.836 130.488 133.836 130.534 133.79 130.579C133.744 130.671 133.651 130.762 133.605 130.853C133.559 130.899 133.559 130.944 133.512 130.99C133.466 131.036 133.466 131.036 133.466 131.081C133.373 131.264 133.281 131.447 133.188 131.629C133.003 132.04 132.911 132.497 132.818 132.953C132.772 133.181 132.772 133.409 132.772 133.638C132.772 133.729 132.772 133.866 132.772 133.957C132.772 134.003 132.772 134.049 132.772 134.14C132.772 134.231 132.772 134.322 132.772 134.414C132.772 134.551 132.772 134.733 132.772 134.87C132.772 135.144 132.772 135.372 132.772 135.646C132.772 136.148 132.772 136.696 132.772 137.198C132.772 137.7 132.772 138.248 132.772 138.75C132.772 139.253 132.772 139.8 132.772 140.302C132.772 140.576 132.772 140.805 132.772 141.078C132.772 141.215 132.772 141.352 132.772 141.489C132.772 141.535 132.772 141.581 132.772 141.626V141.672C132.726 141.718 132.679 141.672 132.679 141.672C132.633 141.672 132.54 141.672 132.494 141.672C132.263 141.672 131.985 141.672 131.754 141.626C130.736 141.581 129.718 141.535 128.699 141.489C128.746 140.622 128.746 139.755 128.792 138.933C128.792 138.659 128.838 138.34 128.838 138.066C128.838 137.7 128.838 137.381 128.838 137.016C128.838 136.879 128.838 136.787 128.838 136.651L128.237 136.559C128.005 136.514 127.774 136.468 127.543 136.468C127.034 136.422 126.571 136.377 126.062 136.331C125.553 136.285 125.044 136.285 124.535 136.285C124.026 136.285 123.517 136.285 123.007 136.285C122.591 136.285 122.128 136.285 121.712 136.285L121.527 141.535L117.408 141.352L117.593 136.194C117.362 136.148 117.084 136.103 116.853 136.057C116.344 135.966 115.881 135.92 115.372 135.875C114.863 135.829 114.354 135.829 113.845 135.783C113.336 135.783 112.827 135.783 112.318 135.738C112.086 135.738 111.808 135.738 111.577 135.738" fill="black"/>
<path d="M121.86 120.583C121.814 120.538 121.814 120.449 121.767 120.405C121.674 120.271 121.628 120.093 121.535 119.96C121.488 119.87 121.442 119.781 121.395 119.692C121.349 119.603 121.302 119.559 121.256 119.47C121.07 119.202 120.93 118.891 120.744 118.623C120.651 118.49 120.605 118.356 120.512 118.178C120.512 118.134 120.465 118.089 120.465 118.089C120.465 118.045 120.419 118 120.419 118C120.372 118 120.372 118 120.372 118.045C120.372 118.089 120.326 118.089 120.326 118.134C120.326 118.178 120.279 118.223 120.279 118.267C120.233 118.356 120.186 118.445 120.14 118.49C119.953 118.757 119.767 119.069 119.628 119.336C119.442 119.603 119.256 119.915 119.116 120.182C118.884 120.538 118.698 120.895 118.465 121.296C118.372 121.429 118.326 121.563 118.233 121.652C118.14 121.785 118.047 121.919 118 122.053C117.907 122.186 117.814 122.32 117.721 122.498C117.628 122.632 117.535 122.81 117.442 122.943C117.349 123.121 117.256 123.255 117.163 123.433C117.07 123.611 116.977 123.745 116.884 123.923C116.791 124.101 116.698 124.279 116.605 124.413C116.512 124.591 116.419 124.769 116.326 124.903C116.233 125.081 116.14 125.215 116.047 125.393C115.953 125.571 115.86 125.704 115.767 125.883C115.674 126.061 115.581 126.194 115.488 126.372C115.395 126.506 115.302 126.684 115.209 126.818C115.116 126.951 115.023 127.085 114.977 127.219C114.884 127.352 114.837 127.486 114.744 127.619C114.698 127.753 114.605 127.842 114.558 127.976C114.512 128.065 114.419 128.154 114.372 128.287C114.326 128.377 114.279 128.466 114.233 128.555C114.186 128.599 114.14 128.688 114.14 128.733C114.093 128.777 114.093 128.822 114.047 128.866L114 128.911H114.047C114.326 128.911 114.558 128.911 114.837 128.955C114.884 128.955 114.93 128.955 115.023 128.955C115.07 128.955 115.163 128.955 115.209 128.955C115.256 128.955 115.256 128.955 115.302 128.955C115.349 128.955 115.395 128.955 115.442 128.955C115.488 128.955 115.535 128.955 115.628 128.955C115.674 128.955 115.767 128.955 115.814 128.955C115.907 128.955 116 128.955 116.047 128.955C116.14 128.955 116.233 128.955 116.326 128.955C116.419 128.955 116.512 128.955 116.605 128.955C116.698 128.955 116.837 128.955 116.93 128.955C117.023 128.955 117.163 128.955 117.256 128.955C117.395 128.955 117.488 128.955 117.628 128.955C117.767 128.955 117.86 128.955 118 128.955C118.14 128.955 118.279 128.955 118.372 128.955C118.512 128.955 118.651 128.955 118.791 128.955C118.93 128.955 119.07 128.955 119.209 128.955C119.349 128.955 119.488 128.955 119.628 128.955C119.767 128.955 119.907 128.955 120.047 128.955C120.186 128.955 120.326 128.955 120.465 128.955C120.605 128.955 120.744 128.955 120.884 128.955C121.023 128.955 121.163 128.955 121.302 128.955C121.442 128.955 121.581 128.955 121.721 128.955C121.86 128.955 122 128.955 122.093 128.955C122.233 128.955 122.326 128.955 122.465 128.955C122.605 128.955 122.698 128.955 122.837 128.955C122.93 128.955 123.07 128.955 123.163 128.955C123.256 128.955 123.395 128.955 123.488 128.955C123.581 128.955 123.674 128.955 123.767 128.955C123.86 128.955 123.953 128.955 124.047 128.955C124.14 128.955 124.186 128.955 124.279 128.955L125.953 129C126 129 126 129 126 129C125.907 128.733 125.767 128.51 125.674 128.243C125.395 127.619 121.907 120.672 121.86 120.583C121.86 120.628 121.86 120.628 121.86 120.583ZM117.07 127.308C118.186 125.482 119.209 123.834 120.372 121.919C121.163 123.968 121.814 125.571 122.605 127.53C120.698 127.441 119.116 127.352 117.07 127.308Z" fill="black"/>
<path d="M187.766 179.493C185.436 177.607 183.7 175.168 181.506 173.051C181.643 170.704 181.918 168.587 181.918 166.47C181.872 160.672 182.237 154.873 181.781 149.075C181.506 145.532 182.466 142.126 183.425 138.721C185.299 132.232 184.248 125.559 183.288 119.163C182.603 114.607 182.512 110.189 182.831 105.679C183.151 101.722 183.197 97.7641 183.517 93.8065C183.928 88.1922 184.431 82.6699 183.014 77.0095C181.781 72.2236 181.506 67.2076 179.587 62.6057C178.079 59.0162 178.079 59.0162 173.419 52.8037C169.261 48.3859 168.621 48.3399 165.057 46.177C162.315 44.5203 159.619 42.9557 156.284 42.6336C152.034 42.2194 148.105 40.3326 143.901 39.6423C136.59 38.4459 129.371 39.0901 122.151 40.1946C112.464 41.7132 102.915 43.5999 95.4667 51.055C91.9483 54.5984 88.3386 57.9578 86.8307 62.8818C86.4195 64.2624 85.5056 65.4588 84.8202 66.7013C81.6674 72.0855 82.3985 74.5245 81.9416 81.5194C82.2157 82.0256 81.3019 85.0629 80.982 85.8913C80.5708 90.5852 80.5251 87.594 80.5708 89.6188C80.7079 95.7393 80.7536 101.86 80.7993 107.934C80.8449 113.456 81.0734 118.979 80.0682 124.409C78.9715 130.161 79.0629 135.96 79.0172 141.758C79.0172 143.047 79.0629 144.381 78.7431 145.624C77.7835 149.949 78.012 154.275 78.2404 158.601C78.5603 164.491 78.2861 170.336 78.9715 176.364C75.5903 179.033 72.2547 181.702 68.8734 184.279C67.6854 185.154 67 186.12 67 187.685C67.0914 194.173 67.0914 200.662 67.1371 207.151C67.1371 208.899 67.9596 209.866 69.7416 210.004C78.012 210.51 86.2367 211.016 94.4614 211.568C105.154 212.259 115.8 212.903 126.492 213.593C138.601 214.376 150.709 215.204 162.818 215.986C164.463 216.078 165.971 215.71 167.387 214.836C173.739 210.97 180.136 207.105 186.533 203.331C188.086 202.411 188.68 201.214 188.68 199.419C188.726 193.759 188.863 188.099 189 182.485C189 181.334 188.772 180.276 187.766 179.493ZM82.627 150.41C83.1753 146.544 83.6779 142.724 83.5865 138.813C83.4494 133.751 84.0434 128.781 84.7745 123.811C85.7798 116.908 85.4142 109.959 85.2772 103.01C85.2315 100.479 85.1858 97.9482 85.2315 95.4632C85.2315 94.8189 85.2772 94.1746 85.3228 93.5304C85.3685 93.1622 85.4142 92.7941 85.4142 92.3799C85.4142 92.1958 85.5513 92.0578 85.6884 91.9197C85.8712 91.6896 86.0996 91.4595 86.2824 91.2294C86.3281 91.1834 86.3738 91.1374 86.4652 91.0914C86.5109 91.0914 86.6022 91.0914 86.6479 91.1374C87.4704 91.5055 88.8869 92.8401 88.9326 92.9321C88.9326 92.9781 90.5775 94.2206 90.5775 94.2667C90.6232 94.3127 89.5723 96.6136 89.5723 96.7057C91.5371 96.7057 91.0345 96.0614 92.6337 93.1622C92.7251 92.9781 91.0345 91.8277 91.0345 91.5976C90.7603 91.3215 90.6689 90.9533 90.5318 90.6312C90.3948 90.217 90.1663 89.8489 89.9378 89.5267C89.8007 89.3427 89.6637 89.2046 89.5266 89.0205C89.3895 88.8825 89.2524 88.7444 89.1154 88.6064C89.024 88.5143 88.9783 88.4223 88.9783 88.2842C88.9326 88.1002 88.8412 87.9621 88.7955 87.778C88.6127 87.3639 88.43 86.9037 88.2929 86.4435C87.973 85.5691 87.6989 84.6488 87.4247 83.7283C87.1506 82.8079 86.8764 81.8875 86.5566 80.9672C86.3738 80.461 86.191 80.0008 86.0082 79.4946C86.3281 75.1688 87.1506 71.0271 89.9835 67.5297C90.6232 66.7013 91.0345 65.6429 91.3543 64.6765C92.6337 60.4428 95.4667 57.4056 98.7109 54.6905C100.721 52.9878 102.549 50.9629 104.879 49.8125C104.925 49.7665 105.108 49.9045 105.154 49.9045C105.245 49.9505 105.336 49.9965 105.428 50.0426C105.61 50.1806 105.748 50.3187 105.839 50.5028C106.022 50.7328 106.067 51.055 106.204 51.2851C106.296 51.5152 106.387 51.7913 106.479 52.0214C106.661 52.5276 106.844 52.9878 106.981 53.494C107.027 53.586 107.027 53.632 107.073 53.678C107.073 53.7241 107.118 53.7701 107.118 53.7701C107.118 53.7701 107.21 53.8161 107.255 53.8161C107.438 53.8621 107.621 53.9542 107.804 54.0002C107.849 54.0002 107.621 55.2427 107.621 55.3347V55.5648C107.621 55.7489 107.575 55.979 107.575 56.1631C107.53 56.5772 107.53 56.9914 107.484 57.4056C107.484 57.5436 107.438 57.7277 107.484 57.8658C107.53 58.0038 107.575 58.0958 107.621 58.2339C107.987 58.9702 108.169 61.7313 108.169 61.7313C108.169 61.7313 108.763 60.1667 108.718 60.0747C108.672 59.9366 108.672 59.8446 108.626 59.7065C108.581 59.4764 108.535 59.2003 108.489 58.9702C108.443 58.6481 108.398 58.3259 108.352 57.9578C108.352 57.8197 108.306 57.7277 108.306 57.5896C108.306 57.4976 108.261 57.4516 108.306 57.3595C108.352 57.2215 108.398 57.0834 108.489 56.9914C108.535 56.8533 108.626 56.7153 108.672 56.5772C108.672 56.5772 108.946 56.6232 108.992 56.6693C109.083 56.7153 109.175 56.7613 109.266 56.7613C109.54 56.8073 109.769 56.8994 109.997 57.0374C110.088 57.0834 110.18 57.1295 110.271 57.2215C110.317 57.3135 110.363 57.4056 110.408 57.4976C110.637 58.0958 110.865 58.7401 111.139 59.3384C111.185 59.4304 111.231 59.5684 111.322 59.6605C111.413 59.7525 111.505 59.7985 111.596 59.8446C112.19 60.2127 112.83 60.5809 113.424 60.949C113.15 60.4888 112.739 60.1207 112.373 59.6605C111.825 58.9702 111.459 58.1419 111.322 57.2675C111.276 57.0834 111.276 56.8994 111.276 56.7153C110.819 56.3932 110.363 56.117 109.906 55.7949C109.723 55.6569 109.494 55.5648 109.357 55.4268C109.312 55.3807 109.266 55.2887 109.266 55.1967C109.22 55.0586 109.175 54.9666 109.129 54.8285C108.946 54.3223 108.809 53.8161 108.626 53.3559C108.581 53.2179 108.535 53.0338 108.398 52.9878C108.352 52.9417 108.261 52.9417 108.169 52.8957C108.032 52.8037 107.987 52.6196 107.941 52.4816C107.895 52.2975 107.849 52.0674 107.804 51.8833C107.758 51.7453 107.712 51.5612 107.712 51.3771V51.193C107.667 50.8709 107.575 50.5488 107.575 50.2266C107.53 49.3983 107.712 48.57 108.169 47.8337C122.106 45.7628 136.179 44.0601 148.425 54.8745V61.3172C148.425 61.5012 148.425 61.7313 148.333 61.9154C148.288 61.9614 148.288 62.0074 148.242 62.0995C148.196 62.2375 148.151 62.3756 148.059 62.4676C147.922 62.6977 147.785 62.9278 147.602 63.2039C147.419 63.48 147.237 63.7561 147.145 64.0783C147.191 64.0323 147.237 64.0323 147.282 63.9862L147.419 63.8482C147.511 63.7561 147.648 63.6641 147.739 63.6181C147.968 63.48 148.151 63.296 148.333 63.1119C148.425 63.0199 148.47 62.9278 148.562 62.7898C148.653 62.6517 148.745 62.4216 148.836 62.2835C148.973 62.1455 149.064 61.9154 149.11 61.6853C149.156 61.5933 149.201 61.5472 149.201 61.4552C149.247 61.3632 149.247 61.2711 149.293 61.1331C149.339 60.903 149.384 60.7189 149.43 60.4888C149.613 59.5684 149.658 58.6481 149.796 57.7277C149.841 57.3595 149.933 57.0374 150.024 56.6693C153.816 59.6605 157.746 62.2836 158.294 67.5297C158.751 71.9475 159.528 76.2732 160.762 80.553C161.127 81.7955 161.447 83.084 161.447 84.3725C161.447 92.9781 161.858 101.538 160.488 110.097C159.757 114.653 159.802 119.393 159.757 124.041C159.757 129.011 159.482 133.981 159.025 138.905C158.569 143.737 158.569 148.523 159.757 153.217C160.396 155.702 159.985 158.187 159.711 160.718C159.163 165.642 158.934 170.612 158.614 175.582C158.523 176.778 158.569 178.021 158.066 179.309C133.209 177.929 108.398 176.548 83.4494 175.122C83.4494 175.122 83.3581 174.339 83.3581 174.293C83.3124 173.971 83.2667 173.649 83.221 173.327C83.1296 172.683 83.0839 172.084 83.0382 171.44C82.9925 170.796 83.0382 170.198 83.0839 169.599V169.369C83.0839 169.139 83.1296 168.863 83.1753 168.679C83.221 168.449 83.2667 168.173 83.3124 167.943C83.4494 167.39 83.5865 166.838 83.815 166.286C83.8607 166.194 83.8607 166.148 83.9064 166.056C83.9521 166.01 84.0434 165.964 84.1348 165.918C85.3228 165.458 86.4652 164.997 87.6532 164.537C87.7903 164.491 87.836 164.307 87.9273 164.169C88.0187 164.031 88.1101 163.893 88.2472 163.755C88.3386 163.663 88.4757 163.571 88.567 163.479C88.7498 163.295 88.8412 163.065 88.9326 162.835C89.1154 162.466 89.2981 162.052 89.4352 161.684C89.5266 161.5 89.618 161.316 89.6637 161.178C89.6637 161.132 89.6637 161.086 89.7094 161.04C89.8464 160.81 90.1663 160.626 90.3491 160.488C90.7603 160.166 91.1258 159.797 91.4 159.383C91.0345 159.567 90.7603 159.797 90.3948 160.027C90.2577 160.119 90.0749 160.212 89.8921 160.258C89.8464 160.258 89.8007 160.258 89.7094 160.304C89.6637 160.304 89.6637 160.35 89.6637 160.35C89.5723 160.442 89.4809 160.58 89.3895 160.718C89.2067 160.994 89.024 161.27 88.8412 161.546C88.6127 161.868 88.3843 162.19 88.1558 162.558C87.9273 162.927 87.7903 163.295 87.4247 163.479C87.3333 163.525 87.1963 163.571 87.0592 163.617C85.9169 163.985 84.7288 164.399 83.5865 164.767C83.3581 164.859 83.1296 164.905 82.9011 165.09V164.629C82.9468 164.399 82.9011 164.169 82.9468 163.985V163.065C82.9468 162.42 82.9011 161.822 82.9011 161.178C82.8554 159.935 82.764 158.693 82.7184 157.496C82.3528 155.195 82.3071 152.803 82.627 150.41ZM81.6217 180.276C82.2614 179.769 83.0839 179.908 83.815 179.954C98.4824 180.782 113.15 181.564 127.817 182.393C137.413 182.945 147.008 183.497 156.649 184.003C157.106 184.049 157.563 184.141 158.066 184.187C158.98 186.028 159.711 187.915 160.259 190.216C132.249 188.375 104.468 186.58 76.1843 184.74C78.1034 182.807 79.9311 181.61 81.6217 180.276ZM161.721 211.062C159.665 211.384 157.655 211.108 155.781 210.878C155.69 210.878 155.599 210.786 155.553 210.74C155.461 210.694 155.416 210.648 155.324 210.556C155.187 210.464 155.05 210.326 154.913 210.188C154.639 209.912 154.456 209.544 154.182 209.268C154.091 209.175 153.954 209.083 153.908 208.991C153.816 208.807 153.771 208.623 153.725 208.439C153.725 208.393 153.725 208.347 153.679 208.255C153.634 208.209 153.588 208.163 153.588 208.071C153.36 207.795 153.177 207.519 153.04 207.197C152.994 207.105 152.994 206.967 152.994 206.875C153.04 206.598 152.903 206.322 152.811 206.092C152.766 205.862 152.72 205.678 152.674 205.448C152.674 205.402 152.628 205.31 152.583 205.264C152.491 205.126 152.354 205.034 152.217 204.942C151.897 204.574 151.578 204.251 151.258 203.929C151.121 203.791 150.984 203.699 150.846 203.607C150.938 203.653 150.984 203.791 151.075 203.883C151.121 203.975 151.212 204.067 151.303 204.159C151.44 204.343 151.578 204.528 151.669 204.804C151.669 204.896 151.76 205.034 151.806 205.126C151.943 205.402 152.034 205.632 152.08 205.908C152.172 206.276 152.217 206.644 152.217 207.013C152.263 207.335 152.263 207.703 152.309 208.025C152.309 208.025 152.537 208.117 152.583 208.117C152.628 208.163 152.628 208.255 152.628 208.347C152.72 208.577 152.857 208.807 152.994 209.037C153.04 209.129 153.085 209.221 153.131 209.314V210.096C153.131 210.188 153.131 210.326 153.085 210.418C152.994 210.556 152.811 210.648 152.857 210.832C152.674 210.832 152.4 210.878 152.217 210.832C152.172 210.832 152.126 210.832 152.08 210.786C151.76 210.74 151.486 210.74 151.166 210.74C150.572 210.694 149.978 210.648 149.384 210.648C144.221 210.326 139.058 209.958 133.894 209.636C128.731 209.314 123.568 208.945 118.404 208.623C113.241 208.301 108.078 207.933 102.915 207.611C97.7513 207.289 92.588 206.921 87.4247 206.598C84.8202 206.414 82.2614 206.276 79.6569 206.092C78.3775 206 77.0524 205.908 75.773 205.862C75.1333 205.816 74.4936 205.77 73.8539 205.724C73.7169 205.724 71.9805 205.632 71.9805 205.586V201.168L72.0262 201.122C72.0719 201.076 72.0719 201.076 72.1176 201.03C72.1633 200.938 72.209 200.892 72.2547 200.8C72.3918 200.616 72.4831 200.478 72.6202 200.294C72.7573 200.11 72.9401 199.926 73.0772 199.742C73.1228 199.65 73.1685 199.604 73.2142 199.512C73.3056 199.419 73.4427 199.327 73.5341 199.281C73.6712 199.189 73.8082 199.143 73.9453 199.051C74.2195 198.913 74.4936 198.775 74.8135 198.683C75.0419 198.591 75.2704 198.545 75.4989 198.591C75.6816 198.637 75.8644 198.729 76.0015 198.867C76.5041 199.235 77.0524 199.604 77.6464 199.742C77.7835 199.788 77.8292 199.65 77.9206 199.604C78.1491 199.373 78.4232 199.189 78.6517 199.051C78.6974 199.005 78.7888 198.959 78.8345 198.959C78.9715 198.867 79.1086 198.821 79.2457 198.729C79.794 198.499 80.388 198.453 80.982 198.407C80.5708 198.269 80.1139 198.177 79.6112 198.131C79.3371 198.131 79.0629 198.131 78.8345 198.269C78.7888 198.315 78.7431 198.361 78.7431 198.361C78.6974 198.407 78.606 198.453 78.5603 198.499L78.1491 198.775C78.1034 198.775 78.1034 198.821 78.0577 198.821C77.9663 198.867 77.8749 198.913 77.8292 199.005C77.7835 199.051 77.6464 199.143 77.5551 199.143C77.5094 199.143 77.418 199.097 77.3266 199.051C77.2809 199.005 77.1895 199.005 77.1438 198.959C77.0067 198.867 76.8697 198.775 76.7783 198.729C76.4127 198.453 76.0472 198.085 75.6816 197.763C75.636 197.717 75.5903 197.717 75.5446 197.671H75.3618C75.2247 197.717 75.0876 197.717 74.9506 197.763C74.8592 197.763 74.8135 197.809 74.7221 197.809H74.585C74.4479 197.809 74.3109 197.855 74.1738 197.855C73.991 197.901 73.7625 197.947 73.5798 197.993C72.9858 198.131 72.4375 198.269 71.8434 198.453V189.203C101.818 191.136 131.701 193.115 161.721 195.048V211.062ZM153.177 53.448L151.852 51.5612H151.258C151.166 51.5612 151.121 51.4691 151.029 51.4691L149.658 50.3647C148.745 49.6284 147.785 48.9381 146.825 48.2939C144.906 46.9593 142.896 45.7168 140.748 44.7044C139.789 44.6124 139.012 44.1522 137.915 43.4619C139.103 43.646 139.926 43.784 140.748 43.9221C143.581 43.8761 146.231 44.7964 148.927 45.6248C151.029 46.269 153.131 46.9593 155.324 47.1434C158.66 47.3735 161.264 49.1682 163.869 50.9629C165.925 52.3895 166.61 54.7365 167.25 56.9454C167.707 58.6481 166.108 59.3844 165.103 60.3508V60.5348C165.103 60.6269 165.148 60.7189 165.148 60.811C165.194 60.995 165.285 61.1331 165.331 61.3172C165.514 61.6853 165.697 62.0074 165.834 62.3756C165.925 62.5597 165.971 62.7437 166.016 62.9278C166.062 63.1119 166.108 63.342 166.062 63.5261C166.062 63.6181 165.925 63.7101 165.879 63.7561C165.605 64.1243 165.285 64.4924 165.011 64.8146L166.93 64.1703C167.067 64.0323 167.159 63.8942 167.296 63.8022C167.433 63.7101 167.57 63.5721 167.707 63.48C167.57 63.388 167.57 63.342 167.57 63.2039C167.524 63.0198 167.479 62.7898 167.433 62.6057C167.387 62.4216 167.342 62.2375 167.296 62.0535C167.296 61.9614 167.25 61.8694 167.25 61.7773C167.25 61.7313 167.159 61.5473 167.204 61.5012C167.707 60.4888 168.804 60.3047 169.352 59.6605C172.733 59.8906 174.607 61.6853 175.566 64.7686C176.8 68.6802 177.12 72.8218 178.262 76.7334C180.227 83.7283 178.993 90.6312 178.491 97.58C178.216 101.584 178.628 105.679 177.851 109.637C177.531 111.156 177.166 112.582 175.978 113.456C175.566 115.159 175.932 116.724 175.84 118.288C175.658 118.749 175.246 119.117 174.881 119.439C174.561 119.761 174.196 120.037 173.83 120.313C173.83 120.313 173.83 120.313 173.784 120.359C173.464 120.589 173.099 120.819 172.825 121.096C172.688 121.234 172.551 121.372 172.413 121.51C172.276 121.648 172.094 121.74 171.911 121.878C171.591 122.062 171.271 122.292 170.951 122.522C170.86 122.614 170.723 122.66 170.677 122.798L170.494 122.982C170.449 123.028 170.357 123.12 170.312 123.166C170.266 123.212 170.22 123.258 170.22 123.304C170.22 123.351 170.266 123.351 170.266 123.397C170.494 123.673 170.586 124.087 170.769 124.409C170.814 124.501 170.906 124.593 170.951 124.731C170.997 124.777 170.997 124.823 170.997 124.915C171.088 125.099 171.134 125.283 171.134 125.467V125.743C171.088 125.928 171.18 126.112 171.043 126.25C170.86 126.434 170.631 126.618 170.449 126.802C170.357 126.894 170.266 126.986 170.175 127.032C169.992 127.216 169.763 127.354 169.581 127.538C169.535 127.584 169.489 127.584 169.489 127.63C169.443 127.676 169.443 127.768 169.489 127.86C169.626 128.873 169.763 129.931 169.9 130.944C169.9 131.082 169.946 131.266 169.946 131.45C169.9 131.588 169.9 131.726 169.9 131.91C169.9 132.324 169.946 132.738 169.992 133.106L170.86 128.827C171.5 127.63 173.099 127.4 173.51 126.204C173.51 125.145 172.551 124.869 172.231 123.949C173.921 122.706 175.658 121.418 177.577 119.991C177.622 119.071 177.714 117.966 177.76 116.816C178.399 116.954 178.491 117.46 178.536 117.874C178.856 124.087 180.364 130.299 179.039 136.558C178.582 138.813 177.805 140.976 177.531 143.231C176.8 149.581 177.76 155.886 177.622 162.19C177.531 165.366 177.942 168.587 176.891 171.9C172.322 174.293 167.707 176.456 162.727 178.849C162.955 176.042 163.046 173.557 163.321 171.072C163.732 167.068 163.549 162.973 164.417 159.015C164.783 157.312 164.646 155.472 164.234 153.769C162.818 148.247 162.864 142.724 163.549 137.156C164.28 131.082 164.097 124.961 164.189 118.841C164.28 112.72 165.194 106.692 165.514 100.571C165.834 94.1746 166.382 87.732 165.285 81.4273C164.417 76.4113 163.001 71.4873 162.407 66.3792C161.95 62.6057 160.076 59.4764 157.152 57.0374C156.055 56.117 155.05 55.1506 153.954 54.1843C153.679 53.9542 153.451 53.7241 153.177 53.448C153.131 53.4019 153.085 53.4019 153.085 53.3559C152.994 53.2639 152.994 53.1718 152.948 53.0338L153.177 53.448ZM177.211 179.217C177.211 179.217 177.257 179.263 177.303 179.263C177.348 179.263 177.348 179.263 177.394 179.309C177.485 179.309 177.531 179.355 177.577 179.401C177.668 179.493 177.714 179.585 177.76 179.677C177.76 179.816 177.805 179.954 177.805 180.138C177.805 180.46 177.851 180.828 177.805 181.15C177.805 181.334 177.805 181.472 177.76 181.656V181.84C177.76 181.932 177.851 181.932 177.942 181.978C178.079 182.024 178.171 182.162 178.216 182.254C178.262 182.347 178.308 182.439 178.262 182.531C178.262 182.623 178.216 182.715 178.171 182.761C178.079 182.945 177.942 183.037 177.76 183.129C177.348 183.313 176.937 183.543 176.572 183.773C172.916 185.706 169.261 187.685 165.422 189.71C164.417 187.823 163.732 185.936 163.046 183.773C168.118 181.38 173.145 178.987 178.216 176.548C179.907 177.607 180.958 179.217 182.192 180.598C181.506 181.38 180.638 181.61 179.77 182.024C179.679 181.978 179.587 181.932 179.496 181.886C179.404 181.84 179.267 181.748 179.176 181.702C179.085 181.656 178.993 181.564 178.856 181.564C178.719 181.518 178.536 181.426 178.445 181.334C178.399 181.288 178.399 181.242 178.399 181.15C178.354 180.966 178.308 180.828 178.308 180.644C178.262 180.414 178.216 180.23 178.125 180C178.079 179.816 177.988 179.585 177.942 179.401L177.211 179.217ZM180.318 191.688V190.998C180.318 190.86 180.318 190.676 180.41 190.538C180.455 190.446 180.455 190.4 180.501 190.354C180.501 190.308 180.547 190.308 180.547 190.262C180.684 190.032 180.821 189.802 181.004 189.571C181.781 188.651 182.237 187.593 182.146 186.304C182.649 185.936 183.151 185.522 184.019 185.568C184.339 190.078 184.111 194.772 183.974 199.558C178.216 203.009 172.459 206.46 166.473 210.004V194.403C171.134 191.918 175.749 189.479 180.41 187.04C180.547 187.225 180.638 187.455 180.684 187.685C180.73 187.823 180.684 188.007 180.684 188.145C180.684 188.237 180.638 188.283 180.593 188.375C180.593 188.421 180.547 188.467 180.501 188.559C180.455 188.605 180.364 188.697 180.318 188.743C180.227 188.789 180.181 188.881 180.09 188.973C179.999 189.065 179.907 189.203 179.861 189.295C179.816 189.341 179.77 189.387 179.77 189.479C179.724 189.525 179.679 189.617 179.679 189.71C179.542 189.94 179.404 190.216 179.222 190.446C179.13 190.538 179.039 190.676 179.039 190.814C179.039 190.86 179.039 190.906 179.085 190.952V192.747C179.085 193.069 179.13 193.345 179.13 193.667C179.13 193.897 179.085 194.219 178.948 194.403L178.81 194.542C178.81 194.542 178.765 194.588 178.765 194.634C178.765 194.68 178.719 194.68 178.673 194.726C178.354 195.094 177.942 195.37 177.531 195.646C177.805 195.6 178.079 195.554 178.308 195.416C178.491 195.324 178.673 195.186 178.902 195.094C178.948 195.094 178.993 195.002 179.085 195.002C179.085 195.002 179.085 195.002 179.13 195.002C179.222 194.864 179.267 194.726 179.359 194.542C179.404 194.495 179.404 194.403 179.45 194.311C179.496 194.219 179.496 194.173 179.542 194.081C179.542 194.035 179.587 193.989 179.587 193.943C179.633 193.759 179.679 193.575 179.77 193.391C179.816 193.299 179.816 193.207 179.861 193.115C179.861 193.069 179.907 193.023 179.907 192.931C179.907 192.839 179.907 192.747 179.953 192.701C179.953 192.609 179.999 192.517 180.09 192.471C180.136 192.471 180.136 192.471 180.181 192.471L180.318 191.688Z" fill="#E0E3BD"/>
<path d="M153.177 53.448L151.852 51.5612H151.258C151.166 51.5612 151.121 51.4691 151.029 51.4691L149.658 50.3647C148.745 49.6284 147.785 48.9381 146.825 48.2939C144.906 46.9593 142.896 45.7168 140.748 44.7044C139.789 44.6124 139.012 44.1522 137.915 43.4619C139.103 43.646 139.926 43.784 140.748 43.9221C143.581 43.8761 146.231 44.7964 148.927 45.6248C151.029 46.269 153.131 46.9593 155.324 47.1434C158.66 47.3735 161.264 49.1682 163.869 50.9629C165.925 52.3895 166.61 54.7365 167.25 56.9454C167.707 58.6481 166.108 59.3844 165.103 60.3508V60.5348C165.103 60.6269 165.148 60.7189 165.148 60.811C165.194 60.995 165.285 61.1331 165.331 61.3172C165.514 61.6853 165.697 62.0074 165.834 62.3756C165.925 62.5597 165.971 62.7437 166.016 62.9278C166.062 63.1119 166.108 63.342 166.062 63.5261C166.062 63.6181 165.925 63.7101 165.879 63.7561C165.605 64.1243 165.285 64.4924 165.011 64.8146L166.93 64.1703C167.067 64.0323 167.159 63.8942 167.296 63.8022C167.433 63.7101 167.57 63.5721 167.707 63.48C167.57 63.388 167.57 63.342 167.57 63.2039C167.524 63.0198 167.479 62.7898 167.433 62.6057C167.387 62.4216 167.342 62.2375 167.296 62.0535C167.296 61.9614 167.25 61.8694 167.25 61.7773C167.25 61.7313 167.159 61.5473 167.204 61.5012C167.707 60.4888 168.804 60.3047 169.352 59.6605C172.733 59.8906 174.607 61.6853 175.566 64.7686C176.8 68.6802 177.12 72.8218 178.262 76.7334C180.227 83.7283 178.993 90.6312 178.491 97.58C178.216 101.584 178.628 105.679 177.851 109.637C177.531 111.156 177.166 112.582 175.978 113.456C175.566 115.159 175.932 116.724 175.84 118.288C175.658 118.749 175.246 119.117 174.881 119.439C174.561 119.761 174.196 120.037 173.83 120.313C173.83 120.313 173.83 120.313 173.784 120.359C173.464 120.589 173.099 120.819 172.825 121.096C172.688 121.234 172.551 121.372 172.413 121.51C172.276 121.648 172.094 121.74 171.911 121.878C171.591 122.062 171.271 122.292 170.951 122.522C170.86 122.614 170.723 122.66 170.677 122.798L170.494 122.982C170.449 123.028 170.357 123.12 170.312 123.166C170.266 123.212 170.22 123.258 170.22 123.304C170.22 123.351 170.266 123.351 170.266 123.397C170.494 123.673 170.586 124.087 170.769 124.409C170.814 124.501 170.906 124.593 170.951 124.731C170.997 124.777 170.997 124.823 170.997 124.915C171.088 125.099 171.134 125.283 171.134 125.467V125.743C171.088 125.928 171.18 126.112 171.043 126.25C170.86 126.434 170.631 126.618 170.449 126.802C170.357 126.894 170.266 126.986 170.175 127.032C169.992 127.216 169.763 127.354 169.581 127.538C169.535 127.584 169.489 127.584 169.489 127.63C169.443 127.676 169.443 127.768 169.489 127.86C169.626 128.873 169.763 129.931 169.9 130.944C169.9 131.082 169.946 131.266 169.946 131.45C169.9 131.588 169.9 131.726 169.9 131.91C169.9 132.324 169.946 132.738 169.992 133.106L170.86 128.827C171.5 127.63 173.099 127.4 173.51 126.204C173.51 125.145 172.551 124.869 172.231 123.949C173.921 122.706 175.658 121.418 177.577 119.991C177.622 119.071 177.714 117.966 177.76 116.816C178.399 116.954 178.491 117.46 178.536 117.874C178.856 124.087 180.364 130.299 179.039 136.558C178.582 138.813 177.805 140.976 177.531 143.231C176.8 149.581 177.76 155.886 177.622 162.19C177.531 165.366 177.942 168.587 176.891 171.9C172.322 174.293 167.707 176.456 162.727 178.849C162.955 176.042 163.046 173.557 163.321 171.072C163.732 167.068 163.549 162.973 164.417 159.015C164.783 157.312 164.646 155.472 164.234 153.769C162.818 148.247 162.864 142.724 163.549 137.156C164.28 131.082 164.097 124.961 164.189 118.841C164.28 112.72 165.194 106.692 165.514 100.571C165.834 94.1746 166.382 87.732 165.285 81.4273C164.417 76.4113 163.001 71.4873 162.407 66.3792C161.95 62.6057 160.076 59.4764 157.152 57.0374C156.055 56.117 155.05 55.1506 153.954 54.1843C153.679 53.9542 153.451 53.7241 153.177 53.448ZM153.177 53.448C153.131 53.4019 153.085 53.4019 153.085 53.3559C152.994 53.2639 152.994 53.1718 152.948 53.0338L153.177 53.448ZM177.942 179.401C177.988 179.585 178.079 179.816 178.125 180C178.216 180.23 178.262 180.414 178.308 180.644C178.308 180.828 178.354 180.966 178.399 181.15C178.399 181.242 178.399 181.288 178.445 181.334C178.536 181.426 178.719 181.518 178.856 181.564C178.993 181.564 179.085 181.656 179.176 181.702C179.267 181.748 179.404 181.84 179.496 181.886C179.587 181.932 179.679 181.978 179.77 182.024C180.638 181.61 181.506 181.38 182.192 180.598C180.958 179.217 179.907 177.607 178.216 176.548C173.145 178.987 168.118 181.38 163.046 183.773C163.732 185.936 164.417 187.823 165.422 189.71C169.261 187.685 172.916 185.706 176.572 183.773C176.937 183.543 177.348 183.313 177.76 183.129C177.942 183.037 178.079 182.945 178.171 182.761C178.216 182.715 178.262 182.623 178.262 182.531C178.308 182.439 178.262 182.347 178.216 182.254C178.171 182.162 178.079 182.024 177.942 181.978C177.851 181.932 177.76 181.932 177.76 181.84V181.656C177.805 181.472 177.805 181.334 177.805 181.15C177.851 180.828 177.805 180.46 177.805 180.138C177.805 179.954 177.76 179.816 177.76 179.677C177.714 179.585 177.668 179.493 177.577 179.401C177.531 179.355 177.485 179.309 177.394 179.309C177.348 179.263 177.348 179.263 177.303 179.263C177.257 179.263 177.211 179.217 177.211 179.217L177.942 179.401ZM177.942 179.401L176.983 179.033M187.766 179.493C185.436 177.607 183.7 175.168 181.506 173.051C181.643 170.704 181.918 168.587 181.918 166.47C181.872 160.672 182.237 154.873 181.781 149.075C181.506 145.532 182.466 142.126 183.425 138.721C185.299 132.232 184.248 125.559 183.288 119.163C182.603 114.607 182.512 110.189 182.831 105.679C183.151 101.722 183.197 97.7641 183.517 93.8065C183.928 88.1922 184.431 82.6699 183.014 77.0095C181.781 72.2236 181.506 67.2076 179.587 62.6057C178.079 59.0162 178.079 59.0162 173.419 52.8037C169.261 48.3859 168.621 48.3399 165.057 46.177C162.315 44.5203 159.619 42.9557 156.284 42.6336C152.034 42.2194 148.105 40.3326 143.901 39.6423C136.59 38.4459 129.371 39.0901 122.151 40.1946C112.464 41.7132 102.915 43.5999 95.4667 51.055C91.9483 54.5984 88.3386 57.9578 86.8307 62.8818C86.4195 64.2624 85.5056 65.4588 84.8202 66.7013C81.6674 72.0855 82.3985 74.5245 81.9416 81.5194C82.2157 82.0256 81.3019 85.0629 80.982 85.8913C80.5708 90.5852 80.5251 87.594 80.5708 89.6188C80.7079 95.7393 80.7536 101.86 80.7993 107.934C80.8449 113.456 81.0734 118.979 80.0682 124.409C78.9715 130.161 79.0629 135.96 79.0172 141.758C79.0172 143.047 79.0629 144.381 78.7431 145.624C77.7835 149.949 78.012 154.275 78.2404 158.601C78.5603 164.491 78.2861 170.336 78.9715 176.364C75.5903 179.033 72.2547 181.702 68.8734 184.279C67.6854 185.154 67 186.12 67 187.685C67.0914 194.173 67.0914 200.662 67.1371 207.151C67.1371 208.899 67.9596 209.866 69.7416 210.004C78.012 210.51 86.2367 211.016 94.4614 211.568C105.154 212.259 115.8 212.903 126.492 213.593C138.601 214.376 150.709 215.204 162.818 215.986C164.463 216.078 165.971 215.71 167.387 214.836C173.739 210.97 180.136 207.105 186.533 203.331C188.086 202.411 188.68 201.214 188.68 199.419C188.726 193.759 188.863 188.099 189 182.485C189 181.334 188.772 180.276 187.766 179.493ZM82.627 150.41C83.1753 146.544 83.6779 142.724 83.5865 138.813C83.4494 133.751 84.0434 128.781 84.7745 123.811C85.7798 116.908 85.4142 109.959 85.2772 103.01C85.2315 100.479 85.1858 97.9482 85.2315 95.4632C85.2315 94.8189 85.2772 94.1746 85.3228 93.5304C85.3685 93.1622 85.4142 92.7941 85.4142 92.3799C85.4142 92.1958 85.5513 92.0578 85.6884 91.9197C85.8712 91.6896 86.0996 91.4595 86.2824 91.2294C86.3281 91.1834 86.3738 91.1374 86.4652 91.0914C86.5109 91.0914 86.6022 91.0914 86.6479 91.1374C87.4704 91.5055 88.8869 92.8401 88.9326 92.9321C88.9326 92.9781 90.5775 94.2206 90.5775 94.2667C90.6232 94.3127 89.5723 96.6136 89.5723 96.7057C91.5371 96.7057 91.0345 96.0614 92.6337 93.1622C92.7251 92.9781 91.0345 91.8277 91.0345 91.5976C90.7603 91.3215 90.6689 90.9533 90.5318 90.6312C90.3948 90.217 90.1663 89.8489 89.9378 89.5267C89.8007 89.3427 89.6637 89.2046 89.5266 89.0205C89.3895 88.8825 89.2524 88.7444 89.1154 88.6064C89.024 88.5143 88.9783 88.4223 88.9783 88.2842C88.9326 88.1002 88.8412 87.9621 88.7955 87.778C88.6127 87.3639 88.43 86.9037 88.2929 86.4435C87.973 85.5691 87.6989 84.6488 87.4247 83.7283C87.1506 82.8079 86.8764 81.8875 86.5566 80.9672C86.3738 80.461 86.191 80.0008 86.0082 79.4946C86.3281 75.1688 87.1506 71.0271 89.9835 67.5297C90.6232 66.7013 91.0345 65.6429 91.3543 64.6765C92.6337 60.4428 95.4667 57.4056 98.7109 54.6905C100.721 52.9878 102.549 50.9629 104.879 49.8125C104.925 49.7665 105.108 49.9045 105.154 49.9045C105.245 49.9505 105.336 49.9965 105.428 50.0426C105.61 50.1806 105.748 50.3187 105.839 50.5028C106.022 50.7328 106.067 51.055 106.204 51.2851C106.296 51.5152 106.387 51.7913 106.479 52.0214C106.661 52.5276 106.844 52.9878 106.981 53.494C107.027 53.586 107.027 53.632 107.073 53.678C107.073 53.7241 107.118 53.7701 107.118 53.7701C107.118 53.7701 107.21 53.8161 107.255 53.8161C107.438 53.8621 107.621 53.9542 107.804 54.0002C107.849 54.0002 107.621 55.2427 107.621 55.3347V55.5648C107.621 55.7489 107.575 55.979 107.575 56.1631C107.53 56.5772 107.53 56.9914 107.484 57.4056C107.484 57.5436 107.438 57.7277 107.484 57.8658C107.53 58.0038 107.575 58.0958 107.621 58.2339C107.987 58.9702 108.169 61.7313 108.169 61.7313C108.169 61.7313 108.763 60.1667 108.718 60.0747C108.672 59.9366 108.672 59.8446 108.626 59.7065C108.581 59.4764 108.535 59.2003 108.489 58.9702C108.443 58.6481 108.398 58.3259 108.352 57.9578C108.352 57.8197 108.306 57.7277 108.306 57.5896C108.306 57.4976 108.261 57.4516 108.306 57.3595C108.352 57.2215 108.398 57.0834 108.489 56.9914C108.535 56.8533 108.626 56.7153 108.672 56.5772C108.672 56.5772 108.946 56.6232 108.992 56.6693C109.083 56.7153 109.175 56.7613 109.266 56.7613C109.54 56.8073 109.769 56.8994 109.997 57.0374C110.088 57.0834 110.18 57.1295 110.271 57.2215C110.317 57.3135 110.363 57.4056 110.408 57.4976C110.637 58.0958 110.865 58.7401 111.139 59.3384C111.185 59.4304 111.231 59.5684 111.322 59.6605C111.413 59.7525 111.505 59.7985 111.596 59.8446C112.19 60.2127 112.83 60.5809 113.424 60.949C113.15 60.4888 112.739 60.1207 112.373 59.6605C111.825 58.9702 111.459 58.1419 111.322 57.2675C111.276 57.0834 111.276 56.8994 111.276 56.7153C110.819 56.3932 110.363 56.117 109.906 55.7949C109.723 55.6569 109.494 55.5648 109.357 55.4268C109.312 55.3807 109.266 55.2887 109.266 55.1967C109.22 55.0586 109.175 54.9666 109.129 54.8285C108.946 54.3223 108.809 53.8161 108.626 53.3559C108.581 53.2179 108.535 53.0338 108.398 52.9878C108.352 52.9417 108.261 52.9417 108.169 52.8957C108.032 52.8037 107.987 52.6196 107.941 52.4816C107.895 52.2975 107.849 52.0674 107.804 51.8833C107.758 51.7453 107.712 51.5612 107.712 51.3771V51.193C107.667 50.8709 107.575 50.5488 107.575 50.2266C107.53 49.3983 107.712 48.57 108.169 47.8337C122.106 45.7628 136.179 44.0601 148.425 54.8745V61.3172C148.425 61.5012 148.425 61.7313 148.333 61.9154C148.288 61.9614 148.288 62.0074 148.242 62.0995C148.196 62.2375 148.151 62.3756 148.059 62.4676C147.922 62.6977 147.785 62.9278 147.602 63.2039C147.419 63.48 147.237 63.7561 147.145 64.0783C147.191 64.0323 147.237 64.0323 147.282 63.9862L147.419 63.8482C147.511 63.7561 147.648 63.6641 147.739 63.6181C147.968 63.48 148.151 63.296 148.333 63.1119C148.425 63.0199 148.47 62.9278 148.562 62.7898C148.653 62.6517 148.745 62.4216 148.836 62.2835C148.973 62.1455 149.064 61.9154 149.11 61.6853C149.156 61.5933 149.201 61.5472 149.201 61.4552C149.247 61.3632 149.247 61.2711 149.293 61.1331C149.339 60.903 149.384 60.7189 149.43 60.4888C149.613 59.5684 149.658 58.6481 149.796 57.7277C149.841 57.3595 149.933 57.0374 150.024 56.6693C153.816 59.6605 157.746 62.2836 158.294 67.5297C158.751 71.9475 159.528 76.2732 160.762 80.553C161.127 81.7955 161.447 83.084 161.447 84.3725C161.447 92.9781 161.858 101.538 160.488 110.097C159.757 114.653 159.802 119.393 159.757 124.041C159.757 129.011 159.482 133.981 159.025 138.905C158.569 143.737 158.569 148.523 159.757 153.217C160.396 155.702 159.985 158.187 159.711 160.718C159.163 165.642 158.934 170.612 158.614 175.582C158.523 176.778 158.569 178.021 158.066 179.309C133.209 177.929 108.398 176.548 83.4494 175.122C83.4494 175.122 83.3581 174.339 83.3581 174.293C83.3124 173.971 83.2667 173.649 83.221 173.327C83.1296 172.683 83.0839 172.084 83.0382 171.44C82.9925 170.796 83.0382 170.198 83.0839 169.599V169.369C83.0839 169.139 83.1296 168.863 83.1753 168.679C83.221 168.449 83.2667 168.173 83.3124 167.943C83.4494 167.39 83.5865 166.838 83.815 166.286C83.8607 166.194 83.8607 166.148 83.9064 166.056C83.9521 166.01 84.0434 165.964 84.1348 165.918C85.3228 165.458 86.4652 164.997 87.6532 164.537C87.7903 164.491 87.836 164.307 87.9273 164.169C88.0187 164.031 88.1101 163.893 88.2472 163.755C88.3386 163.663 88.4757 163.571 88.567 163.479C88.7498 163.295 88.8412 163.065 88.9326 162.835C89.1154 162.466 89.2981 162.052 89.4352 161.684C89.5266 161.5 89.618 161.316 89.6637 161.178C89.6637 161.132 89.6637 161.086 89.7094 161.04C89.8464 160.81 90.1663 160.626 90.3491 160.488C90.7603 160.166 91.1258 159.797 91.4 159.383C91.0345 159.567 90.7603 159.797 90.3948 160.027C90.2577 160.119 90.0749 160.212 89.8921 160.258C89.8464 160.258 89.8007 160.258 89.7094 160.304C89.6637 160.304 89.6637 160.35 89.6637 160.35C89.5723 160.442 89.4809 160.58 89.3895 160.718C89.2067 160.994 89.024 161.27 88.8412 161.546C88.6127 161.868 88.3843 162.19 88.1558 162.558C87.9273 162.927 87.7903 163.295 87.4247 163.479C87.3333 163.525 87.1963 163.571 87.0592 163.617C85.9169 163.985 84.7288 164.399 83.5865 164.767C83.3581 164.859 83.1296 164.905 82.9011 165.09V164.629C82.9468 164.399 82.9011 164.169 82.9468 163.985V163.065C82.9468 162.42 82.9011 161.822 82.9011 161.178C82.8554 159.935 82.764 158.693 82.7184 157.496C82.3528 155.195 82.3071 152.803 82.627 150.41ZM81.6217 180.276C82.2614 179.769 83.0839 179.908 83.815 179.954C98.4824 180.782 113.15 181.564 127.817 182.393C137.413 182.945 147.008 183.497 156.649 184.003C157.106 184.049 157.563 184.141 158.066 184.187C158.98 186.028 159.711 187.915 160.259 190.216C132.249 188.375 104.468 186.58 76.1843 184.74C78.1034 182.807 79.9311 181.61 81.6217 180.276ZM161.721 211.062C159.665 211.384 157.655 211.108 155.781 210.878C155.69 210.878 155.599 210.786 155.553 210.74C155.461 210.694 155.416 210.648 155.324 210.556C155.187 210.464 155.05 210.326 154.913 210.188C154.639 209.912 154.456 209.544 154.182 209.268C154.091 209.175 153.954 209.083 153.908 208.991C153.816 208.807 153.771 208.623 153.725 208.439C153.725 208.393 153.725 208.347 153.679 208.255C153.634 208.209 153.588 208.163 153.588 208.071C153.36 207.795 153.177 207.519 153.04 207.197C152.994 207.105 152.994 206.967 152.994 206.875C153.04 206.598 152.903 206.322 152.811 206.092C152.766 205.862 152.72 205.678 152.674 205.448C152.674 205.402 152.628 205.31 152.583 205.264C152.491 205.126 152.354 205.034 152.217 204.942C151.897 204.574 151.578 204.251 151.258 203.929C151.121 203.791 150.984 203.699 150.846 203.607C150.938 203.653 150.984 203.791 151.075 203.883C151.121 203.975 151.212 204.067 151.303 204.159C151.44 204.343 151.578 204.528 151.669 204.804C151.669 204.896 151.76 205.034 151.806 205.126C151.943 205.402 152.034 205.632 152.08 205.908C152.172 206.276 152.217 206.644 152.217 207.013C152.263 207.335 152.263 207.703 152.309 208.025C152.309 208.025 152.537 208.117 152.583 208.117C152.628 208.163 152.628 208.255 152.628 208.347C152.72 208.577 152.857 208.807 152.994 209.037C153.04 209.129 153.085 209.221 153.131 209.314V210.096C153.131 210.188 153.131 210.326 153.085 210.418C152.994 210.556 152.811 210.648 152.857 210.832C152.674 210.832 152.4 210.878 152.217 210.832C152.172 210.832 152.126 210.832 152.08 210.786C151.76 210.74 151.486 210.74 151.166 210.74C150.572 210.694 149.978 210.648 149.384 210.648C144.221 210.326 139.058 209.958 133.894 209.636C128.731 209.314 123.568 208.945 118.404 208.623C113.241 208.301 108.078 207.933 102.915 207.611C97.7513 207.289 92.588 206.921 87.4247 206.598C84.8202 206.414 82.2614 206.276 79.6569 206.092C78.3775 206 77.0524 205.908 75.773 205.862C75.1333 205.816 74.4936 205.77 73.8539 205.724C73.7169 205.724 71.9805 205.632 71.9805 205.586V201.168L72.0262 201.122C72.0719 201.076 72.0719 201.076 72.1176 201.03C72.1633 200.938 72.209 200.892 72.2547 200.8C72.3918 200.616 72.4831 200.478 72.6202 200.294C72.7573 200.11 72.9401 199.926 73.0772 199.742C73.1228 199.65 73.1685 199.604 73.2142 199.512C73.3056 199.419 73.4427 199.327 73.5341 199.281C73.6712 199.189 73.8082 199.143 73.9453 199.051C74.2195 198.913 74.4936 198.775 74.8135 198.683C75.0419 198.591 75.2704 198.545 75.4989 198.591C75.6816 198.637 75.8644 198.729 76.0015 198.867C76.5041 199.235 77.0524 199.604 77.6464 199.742C77.7835 199.788 77.8292 199.65 77.9206 199.604C78.1491 199.373 78.4232 199.189 78.6517 199.051C78.6974 199.005 78.7888 198.959 78.8345 198.959C78.9715 198.867 79.1086 198.821 79.2457 198.729C79.794 198.499 80.388 198.453 80.982 198.407C80.5708 198.269 80.1139 198.177 79.6112 198.131C79.3371 198.131 79.0629 198.131 78.8345 198.269C78.7888 198.315 78.7431 198.361 78.7431 198.361C78.6974 198.407 78.606 198.453 78.5603 198.499L78.1491 198.775C78.1034 198.775 78.1034 198.821 78.0577 198.821C77.9663 198.867 77.8749 198.913 77.8292 199.005C77.7835 199.051 77.6464 199.143 77.5551 199.143C77.5094 199.143 77.418 199.097 77.3266 199.051C77.2809 199.005 77.1895 199.005 77.1438 198.959C77.0067 198.867 76.8697 198.775 76.7783 198.729C76.4127 198.453 76.0472 198.085 75.6816 197.763C75.636 197.717 75.5903 197.717 75.5446 197.671H75.3618C75.2247 197.717 75.0876 197.717 74.9506 197.763C74.8592 197.763 74.8135 197.809 74.7221 197.809H74.585C74.4479 197.809 74.3109 197.855 74.1738 197.855C73.991 197.901 73.7625 197.947 73.5798 197.993C72.9858 198.131 72.4375 198.269 71.8434 198.453V189.203C101.818 191.136 131.701 193.115 161.721 195.048V211.062ZM180.318 191.688V190.998C180.318 190.86 180.318 190.676 180.41 190.538C180.455 190.446 180.455 190.4 180.501 190.354C180.501 190.308 180.547 190.308 180.547 190.262C180.684 190.032 180.821 189.802 181.004 189.571C181.781 188.651 182.237 187.593 182.146 186.304C182.649 185.936 183.151 185.522 184.019 185.568C184.339 190.078 184.111 194.772 183.974 199.558C178.216 203.009 172.459 206.46 166.473 210.004V194.403C171.134 191.918 175.749 189.479 180.41 187.04C180.547 187.225 180.638 187.455 180.684 187.685C180.73 187.823 180.684 188.007 180.684 188.145C180.684 188.237 180.638 188.283 180.593 188.375C180.593 188.421 180.547 188.467 180.501 188.559C180.455 188.605 180.364 188.697 180.318 188.743C180.227 188.789 180.181 188.881 180.09 188.973C179.999 189.065 179.907 189.203 179.861 189.295C179.816 189.341 179.77 189.387 179.77 189.479C179.724 189.525 179.679 189.617 179.679 189.71C179.542 189.94 179.404 190.216 179.222 190.446C179.13 190.538 179.039 190.676 179.039 190.814C179.039 190.86 179.039 190.906 179.085 190.952V192.747C179.085 193.069 179.13 193.345 179.13 193.667C179.13 193.897 179.085 194.219 178.948 194.403L178.81 194.542C178.81 194.542 178.765 194.588 178.765 194.634C178.765 194.68 178.719 194.68 178.673 194.726C178.354 195.094 177.942 195.37 177.531 195.646C177.805 195.6 178.079 195.554 178.308 195.416C178.491 195.324 178.673 195.186 178.902 195.094C178.948 195.094 178.993 195.002 179.085 195.002C179.085 195.002 179.085 195.002 179.13 195.002C179.222 194.864 179.267 194.726 179.359 194.542C179.404 194.495 179.404 194.403 179.45 194.311C179.496 194.219 179.496 194.173 179.542 194.081C179.542 194.035 179.587 193.989 179.587 193.943C179.633 193.759 179.679 193.575 179.77 193.391C179.816 193.299 179.816 193.207 179.861 193.115C179.861 193.069 179.907 193.023 179.907 192.931C179.907 192.839 179.907 192.747 179.953 192.701C179.953 192.609 179.999 192.517 180.09 192.471C180.136 192.471 180.136 192.471 180.181 192.471L180.318 191.688Z" stroke="black" stroke-width="2" stroke-miterlimit="10"/>
<path d="M127.98 111.375C126.813 113.084 126.716 115.41 127.542 117.309C127.785 117.878 128.126 118.401 128.66 118.733C129.73 119.35 131.091 118.78 132.21 118.211C133.668 117.451 135.176 116.549 135.759 115.03C136.197 113.938 136.002 112.657 135.467 111.612C135.176 110.948 134.738 110.378 134.252 109.856C133.911 109.524 133.62 109.097 133.085 109.049C131.869 108.859 130.557 109.239 129.536 109.856C128.904 110.283 128.369 110.805 127.98 111.375Z" fill="#6B00FA" stroke="black" stroke-width="0.5" stroke-miterlimit="10"/>
<path d="M106.769 112.013C106.364 112.61 106.061 113.25 106.01 113.932C105.909 115.084 106.567 116.15 107.173 117.174C107.275 117.387 107.426 117.6 107.628 117.728C107.831 117.856 108.084 117.899 108.336 117.941C110.865 118.24 113.494 117.387 115.112 115.723C115.416 115.382 115.669 115.041 115.82 114.657C116.022 114.06 116.022 113.463 115.972 112.866C115.921 112.013 115.82 111.032 115.062 110.435C114.708 110.136 114.253 109.923 113.798 109.753C113.241 109.497 112.584 109.198 111.977 109.028C111.522 108.942 110.966 109.07 110.561 109.198C109.499 109.497 108.589 110.094 107.831 110.776C107.628 110.989 107.426 111.16 107.224 111.373C107.123 111.501 107.022 111.587 106.971 111.714C106.921 111.757 106.87 111.928 106.769 112.013Z" fill="#6B00FA" stroke="black" stroke-width="0.5" stroke-miterlimit="10"/>
<path d="M110 120C106.696 120 104 117.08 104 113.5C104 109.92 106.696 107 110 107C113.304 107 116 109.92 116 113.5C116 117.08 113.304 120 110 120ZM110 108.884C107.652 108.884 105.739 110.957 105.739 113.5C105.739 116.043 107.652 118.116 110 118.116C112.348 118.116 114.261 116.043 114.261 113.5C114.261 110.957 112.348 108.884 110 108.884Z" fill="black"/>
<path d="M130.5 120C126.92 120 124 117.08 124 113.5C124 109.92 126.92 107 130.5 107C134.08 107 137 109.92 137 113.5C137 117.08 134.08 120 130.5 120ZM130.5 108.884C127.957 108.884 125.884 110.957 125.884 113.5C125.884 116.043 127.957 118.116 130.5 118.116C133.043 118.116 135.116 116.043 135.116 113.5C135.116 110.957 133.043 108.884 130.5 108.884Z" fill="black"/>
<path d="M107.122 117.704C106.503 116.67 105 115.488 105 114.305C105 110.808 106.503 108 109.641 108C109.685 108 111.983 108 112.028 108C112.381 108.394 112.735 108.739 113 109.133C112.602 109.034 112.249 108.985 111.851 108.985C109.243 108.985 107.078 111.35 107.078 114.305C107.078 115.734 107.564 117.015 108.404 118L107.122 117.704Z" fill="black"/>
<path d="M128.663 118C128.206 117.953 125.741 116.974 125.284 116.88C124.645 115.899 125.284 112.253 125.284 111.038C125.284 107.86 129.028 108.187 132.087 108L133 109.4C132.726 109.354 132.407 109.307 132.087 109.307C129.393 109.307 127.156 111.55 127.156 114.354C127.202 115.803 127.75 117.065 128.663 118Z" fill="black"/>
</g>
<defs>
<radialGradient id="paint0_radial_741_46" cx="0" cy="0" r="1" gradientUnits="userSpaceOnUse" gradientTransform="translate(128 128) rotate(90) scale(128)">
<stop/>
<stop offset="1" stop-color="#666666"/>
</radialGradient>
<clipPath id="clip0_741_46">
<rect width="256" height="256" fill="white"/>
</clipPath>
</defs>
</svg>
