<svg width="256" height="256" viewBox="0 0 256 256" fill="none" xmlns="http://www.w3.org/2000/svg">
<g clip-path="url(#clip0_741_46)">
<path d="M128 256C198.692 256 256 198.692 256 128C256 57.3076 198.692 0 128 0C57.3076 0 0 57.3076 0 128C0 198.692 57.3076 256 128 256Z" fill="white"/>
<path d="M217.819 132.495C209.428 132.495 202.604 125.672 202.604 117.281C202.604 116.416 202.692 115.57 202.83 114.745L186.437 106.591L198.542 183.595L123.519 133.152L59.7653 169.125L131.481 192.035L105.782 211.327C106.675 213.288 107.137 215.417 107.138 217.572C107.138 225.961 100.312 232.786 91.9209 232.786C83.5299 232.786 76.7064 225.961 76.7064 217.572C76.7064 209.181 83.5299 202.357 91.9209 202.357C95.2367 202.357 98.4606 203.447 101.096 205.46L115.349 194.759L41.0976 171.039L120.215 126.396L129.777 53.3752L68.4007 96.9763V63.6496C61.8216 61.9737 56.9368 56.0147 56.9368 48.9238C56.9411 44.8898 58.5453 41.0222 61.3976 38.1694C64.2499 35.3167 68.1172 33.7119 72.1513 33.707C76.1857 33.7107 80.0539 35.3147 82.9071 38.167C85.7603 41.0194 87.3655 44.8871 87.3704 48.9215C87.3704 56.0147 82.4833 61.9737 75.9065 63.6519V82.4395L139.452 37.294L127.716 126.926L188.459 167.765L176.767 93.3893L205.877 107.875C207.298 106.066 209.111 104.602 211.179 103.595C213.248 102.589 215.518 102.065 217.819 102.064C226.21 102.064 233.033 108.887 233.033 117.278C233.033 125.669 226.21 132.493 217.819 132.493V132.495ZM128 0.00230523C57.3056 1.28815e-09 0 57.3079 0 128C0 198.692 57.3079 256 128 256C198.692 256 256 198.692 256 128C256 57.3079 198.692 0 128 0V0.00230523Z" fill="#BE7C40"/>
<path d="M80.4141 49.6663C80.4141 45.4401 76.958 42 72.707 42C70.6639 42.003 68.7054 42.8117 67.2607 44.2487C65.816 45.6858 65.003 47.634 65 49.6663C65.003 51.6983 65.8161 53.6463 67.2608 55.083C68.7056 56.5196 70.6642 57.3278 72.707 57.3302C76.9557 57.3302 80.4141 53.8924 80.4141 49.6663ZM218.295 109.963C214.047 109.963 210.591 113.4 210.591 117.627C210.591 121.853 214.047 125.291 218.295 125.291C222.544 125.291 226 121.853 226 117.627C226 113.4 222.544 109.963 218.295 109.963ZM92.4643 209.672C88.2156 209.672 84.7595 213.11 84.7595 217.336C84.7595 221.562 88.2156 225 92.4643 225C96.7152 225 100.169 221.562 100.169 217.336C100.169 213.11 96.7129 209.672 92.4643 209.672Z" fill="#BE7C40"/>
</g>
<defs>
<clipPath id="clip0_741_46">
<rect width="256" height="256" fill="white"/>
</clipPath>
</defs>
</svg>
