<svg width="256" height="256" viewBox="0 0 256 256" fill="none" xmlns="http://www.w3.org/2000/svg">
<g clip-path="url(#clip0_2466_392)">
<path fill-rule="evenodd" clip-rule="evenodd" d="M128 0C198.697 0 256 57.3026 256 128C256 198.697 198.697 256 128 256C57.3026 256 0 198.697 0 128C0 57.3026 57.3026 0 128 0Z" fill="#000403"/>
<path d="M233 125.105C232.055 101.692 222.141 79.5447 205.322 63.2718C188.503 46.999 166.074 37.8531 142.7 37.7368C127.952 37.7527 113.436 41.4105 100.433 48.387C87.4309 55.3635 76.3431 65.4438 68.15 77.7368C69.2802 63.3281 75.6056 49.825 85.9439 39.7514C96.2822 29.6777 109.926 23.7229 124.325 23C101.065 23.8187 79.0319 33.661 62.8712 50.4514C46.7105 67.2417 37.6857 89.6677 37.7 113C37.6313 127.859 41.2991 142.496 48.3646 155.559C55.4301 168.621 65.6654 179.688 78.125 187.737C63.6587 186.726 50.0626 180.439 39.9058 170.063C29.749 159.686 23.7349 145.94 23 131.421C23.5736 150.48 30.1706 168.864 41.8394 183.922C53.5083 198.98 69.646 209.933 87.9255 215.202C106.205 220.471 125.681 219.784 143.546 213.24C161.411 206.696 176.741 194.632 187.325 178.789C185.968 193.064 179.556 206.379 169.252 216.324C158.947 226.268 145.43 232.184 131.15 233C154.41 232.181 176.443 222.339 192.604 205.549C208.765 188.758 217.789 166.332 217.775 143C217.668 128.233 213.981 113.713 207.03 100.693C200.078 87.6727 190.073 76.5429 177.875 68.2632C192.231 69.8126 205.596 76.3407 215.661 86.7193C225.727 97.098 231.859 110.675 233 125.105ZM128 166.158C117.806 166.207 108.001 162.237 100.7 155.105C97.2638 151.551 94.5662 147.348 92.7637 142.74C90.9612 138.132 90.0898 133.211 90.2 128.263C90.2 120.768 92.4169 113.442 96.5705 107.21C100.724 100.978 106.628 96.1211 113.535 93.253C120.442 90.3848 128.042 89.6344 135.374 91.0966C142.707 92.5587 149.442 96.1679 154.729 101.468C160.015 106.767 163.615 113.519 165.074 120.87C166.532 128.221 165.784 135.84 162.923 142.765C160.062 149.689 155.217 155.608 149.001 159.771C142.784 163.935 135.476 166.158 128 166.158Z" fill="#94FEBF"/>
</g>
<defs>
<clipPath id="clip0_2466_392">
<rect width="256" height="256" fill="white"/>
</clipPath>
</defs>
</svg>
