<svg width="256" height="256" viewBox="0 0 256 256" fill="none" xmlns="http://www.w3.org/2000/svg">
<g clip-path="url(#clip0_741_46)">
<path d="M256 128C256 198.692 198.692 256 128 256C57.3075 256 0 198.692 0 128C0 57.3075 57.3075 0 128 0C198.692 0 256 57.3075 256 128Z" fill="black"/>
<path fill-rule="evenodd" clip-rule="evenodd" d="M128 82.2608C103.018 82.2608 82.7632 102.738 82.7632 128C82.7632 153.259 103.018 173.736 128 173.736C141.886 173.736 154.308 167.408 162.605 157.45L196.852 186.596C180.343 206.408 155.627 219 128 219C78.2927 219 38 178.257 38 128C38 77.7406 78.2927 37 128 37V82.2608ZM205.768 173.824L167.086 151.031C168.406 148.746 169.537 146.336 170.454 143.821L212.468 159.478C210.644 164.482 208.393 169.277 205.768 173.824ZM173.234 128H218C218 122.609 217.534 117.329 216.644 112.196L172.553 120.057C172.999 122.637 173.234 125.291 173.234 128ZM197.182 69.7965L162.772 98.7463C161.087 96.7006 159.228 94.8071 157.219 93.0864L186.133 58.536C190.13 61.9594 193.829 65.7264 197.182 69.7965Z" fill="white"/>
</g>
<defs>
<clipPath id="clip0_741_46">
<rect width="256" height="256" fill="white"/>
</clipPath>
</defs>
</svg>
