<svg width="256" height="256" viewBox="0 0 256 256" fill="none" xmlns="http://www.w3.org/2000/svg">
<path d="M128.858 0.000706881C154.137 0.170258 178.8 7.82126 199.736 21.9889C220.672 36.1565 236.945 56.2063 246.501 79.6098C256.058 103.013 258.47 128.723 253.435 153.496C248.399 178.269 236.141 200.996 218.207 218.811C200.272 236.627 177.463 248.733 152.657 253.602C127.852 258.472 102.159 255.888 78.8203 246.175C55.4813 236.462 35.5409 220.056 21.5137 199.025C7.48647 177.995 0.000568594 153.281 0 128.002C0.114758 93.9402 13.7551 61.3192 37.9206 37.3146C62.086 13.3099 94.7972 -0.112222 128.858 0.000706881Z" fill="#121211"/>
<path d="M131.305 103.704L207.58 148.084C211.74 150.857 217.288 148.084 217.288 142.536V80.1276C217.288 77.3538 215.901 75.967 213.128 74.5801L129.917 26.0401C128.53 24.6533 125.757 24.6533 124.371 26.0401L41.1605 74.5801C38.3868 74.5801 37 77.3538 37 80.1276V102.317L124.371 52.3904C127.144 51.0036 128.53 51.0036 131.305 52.3904L192.325 87.0619C195.098 88.4487 196.486 91.2226 196.486 92.6092V114.799L131.305 77.3538C128.53 75.967 127.144 75.967 124.371 77.3538L41.1605 125.894C38.3868 127.281 37 130.055 37 131.441V175.821C37 178.595 38.3868 179.981 39.7737 181.368L59.1892 192.463V145.31C59.1892 142.536 60.5761 141.149 63.3497 139.763L124.371 105.091C125.757 102.317 128.53 102.317 131.305 103.704Z" fill="white"/>
<path d="M131.311 203.558C128.538 204.945 127.151 204.945 124.377 203.558L82.7725 179.982V202.171C82.7725 204.945 84.1593 206.332 85.5461 207.719L124.377 229.908C127.151 231.296 128.538 231.296 131.311 229.908L218.682 179.982L199.266 168.887C196.492 167.5 195.105 167.5 192.332 168.887L131.311 203.558Z" fill="white"/>
<path d="M131.297 178.594L167.355 157.791C170.129 156.404 170.129 153.63 167.355 152.243L131.297 130.054C128.524 128.667 127.137 128.667 124.363 130.054L86.9191 150.857C84.1455 152.243 84.1455 155.017 86.9191 156.404L122.976 177.207C125.75 179.98 128.524 179.98 131.297 178.594Z" fill="white"/>
</svg>
