<svg width="256" height="256" viewBox="0 0 256 256" fill="none" xmlns="http://www.w3.org/2000/svg">
<path d="M128 255C198.14 255 255 198.14 255 128C255 57.8598 198.14 1 128 1C57.8598 1 1 57.8598 1 128C1 198.14 57.8598 255 128 255Z" fill="white"/>
<path d="M221.266 168.419C220.774 166.58 219.98 164.835 218.916 163.257C219.144 162.427 219.318 161.583 219.436 160.731C220.191 155.31 218.302 150.351 214.736 146.512C212.806 144.417 210.738 143.033 208.546 142.184C209.986 136.074 210.711 129.816 210.714 123.538C210.706 119.329 210.387 115.126 209.759 110.964C208.721 104.235 206.849 97.6617 204.187 91.3954C202.608 87.7154 200.765 84.1543 198.673 80.7399C197.3 78.4673 195.804 76.2706 194.194 74.1592C193.404 73.0914 192.581 72.0489 191.726 71.0334C188.338 66.9477 184.564 63.1993 180.455 59.8403C179.435 58.995 178.393 58.177 177.329 57.3873C162.95 46.7139 145.51 40.9667 127.603 41.0001C81.6981 41.0001 44.4943 77.952 44.4943 123.541C44.4914 129.898 45.2318 136.234 46.7004 142.419C44.7323 143.271 42.8405 144.593 41.0897 146.512C37.5265 150.348 35.6348 155.29 36.3897 160.707C36.5072 161.568 36.6776 162.42 36.9067 163.257C35.8426 164.836 35.0485 166.58 34.5567 168.419C33.4639 172.552 33.8223 176.281 35.2176 179.547C33.7019 183.819 34.0808 188.367 36.0519 192.318C37.4854 195.206 39.5358 197.442 42.065 199.436C45.0701 201.81 48.8331 203.825 53.3715 205.761C58.7854 208.053 65.3948 210.209 68.3999 211C76.1638 212.997 83.6104 214.261 91.154 214.322C101.905 214.422 111.161 211.913 117.789 205.485C121.046 205.882 124.324 206.082 127.603 206.079C131.069 206.072 134.532 205.856 137.972 205.432C144.582 211.896 153.876 214.431 164.666 214.328C172.209 214.269 179.656 213.003 187.399 211.003C190.425 210.212 197.034 208.059 202.448 205.764C206.986 203.825 210.749 201.81 213.775 199.442C216.284 197.445 218.334 195.212 219.768 192.324C220.766 190.364 221.357 188.221 221.504 186.026C221.652 183.831 221.353 181.629 220.625 179.553C222.003 176.286 222.361 172.55 221.266 168.419ZM213.564 179.271C215.091 182.147 215.185 185.394 213.84 188.42C211.801 193.003 206.731 196.616 196.884 200.494C193.023 202.002 189.092 203.326 185.105 204.46C177.006 206.546 169.683 207.603 163.344 207.603C152.842 207.603 145.031 204.727 140.078 199.046C131.699 200.465 123.144 200.515 114.748 199.193C109.787 204.777 102.02 207.606 91.6093 207.606C85.2701 207.606 77.9469 206.549 69.8452 204.463C69.7982 204.448 64.1934 202.906 58.0657 200.494C48.225 196.616 43.1519 193.008 41.1103 188.42C39.7649 185.394 39.8618 182.147 41.3894 179.271C41.5304 179.007 41.6831 178.742 41.8417 178.493C40.9294 177.131 40.3169 175.591 40.0449 173.975C39.7729 172.359 39.8477 170.703 40.2643 169.118C40.8227 166.933 42.0701 164.986 43.8216 163.566C43.0036 162.23 42.4669 160.742 42.2442 159.191C41.7536 155.825 42.8787 152.464 45.4108 149.723C47.3819 147.59 50.1696 146.415 53.254 146.415H53.3363C51.0112 139.012 49.8324 131.297 49.8406 123.538C49.8406 81.2305 84.3742 46.9257 126.98 46.9257C169.589 46.9257 204.125 81.2247 204.125 123.538C204.131 131.319 202.942 139.054 200.6 146.473C200.973 146.435 201.341 146.418 201.699 146.418C204.783 146.418 207.571 147.593 209.542 149.726C212.071 152.464 213.199 155.827 212.709 159.194C212.485 160.744 211.947 162.231 211.128 163.566C212.881 164.987 214.128 166.935 214.686 169.121C215.104 170.706 215.18 172.361 214.908 173.977C214.636 175.593 214.022 177.132 213.108 178.493C213.27 178.745 213.425 179.004 213.564 179.271Z" fill="white"/>
<path d="M213.108 178.495C214.021 177.133 214.633 175.593 214.905 173.977C215.177 172.361 215.103 170.705 214.686 169.12C214.128 166.936 212.882 164.989 211.131 163.568C211.947 162.231 212.482 160.743 212.706 159.193C213.196 155.827 212.071 152.466 209.539 149.725C207.571 147.592 204.78 146.417 201.696 146.417C201.338 146.417 200.973 146.437 200.6 146.473C202.938 139.053 204.124 131.319 204.117 123.54C204.117 81.2296 169.58 46.9277 126.977 46.9277C84.3743 46.9277 49.8348 81.2267 49.8348 123.54C49.8267 131.299 51.0056 139.014 53.3305 146.417H53.2512C50.1668 146.417 47.3761 147.592 45.408 149.722C42.8758 152.46 41.7508 155.827 42.2413 159.19C42.4643 160.741 43.001 162.229 43.8188 163.565C42.0669 164.985 40.8194 166.932 40.2614 169.117C39.8432 170.703 39.7678 172.359 40.0403 173.976C40.3128 175.593 40.927 177.134 41.8418 178.495C41.679 178.748 41.5271 179.007 41.3865 179.273C39.8619 182.149 39.765 185.396 41.1104 188.422C43.152 193.005 48.2192 196.618 58.0658 200.496C61.9271 202.004 65.858 203.328 69.8453 204.462C77.944 206.548 85.2673 207.606 91.6094 207.606C102.02 207.606 109.787 204.779 114.748 199.192C123.144 200.514 131.698 200.467 140.076 199.048C145.031 204.729 152.842 207.608 163.341 207.608C169.683 207.608 177.006 206.551 185.105 204.465C189.092 203.33 193.023 202.005 196.884 200.496C206.728 196.618 211.801 193.005 213.84 188.422C215.185 185.396 215.088 182.149 213.564 179.273C213.423 179.006 213.27 178.744 213.108 178.495ZM111.203 190.443C110.774 191.186 110.318 191.912 109.831 192.617C108.56 194.439 106.871 195.93 104.905 196.965C101.162 198.992 96.424 199.697 91.6123 199.697C84.01 199.697 76.2167 197.931 71.8486 196.806C71.6313 196.75 45.0731 189.3 48.4366 182.957C49.0006 181.891 49.9318 181.465 51.1038 181.465C55.8391 181.465 64.4608 188.466 68.165 188.466C68.9934 188.466 69.575 188.116 69.8159 187.261C71.3963 181.638 45.8163 179.273 47.9695 171.133C48.3514 169.687 49.3795 169.105 50.8307 169.105C57.0905 169.103 71.1407 180.034 74.0782 180.034C74.3044 180.034 74.466 179.97 74.5541 179.831L74.5894 179.77C75.97 177.508 75.1769 175.862 65.7298 170.116L64.8221 169.567C54.4233 163.318 47.1264 159.558 51.2801 155.069C51.756 154.552 52.4316 154.322 53.2541 154.322C54.2294 154.322 55.4103 154.646 56.7086 155.189C62.2018 157.489 69.81 163.762 72.9913 166.497C73.4907 166.929 73.9901 167.363 74.4836 167.804C74.4836 167.804 78.508 171.961 80.9403 171.961C81.2155 171.973 81.4886 171.907 81.7288 171.772C81.969 171.637 82.1669 171.438 82.3004 171.197C84.0247 168.309 66.2673 154.945 65.2657 149.428C64.59 145.697 65.7445 143.802 67.8801 143.802C68.8935 143.802 70.1331 144.231 71.502 145.095C75.7467 147.768 83.9424 161.752 86.9416 167.196C87.9492 169.017 89.6647 169.79 91.2128 169.79C94.2825 169.79 96.6825 166.758 91.4948 162.907C83.6957 157.113 86.4335 147.642 90.1524 147.057C90.3118 147.033 90.4729 147.021 90.6341 147.022C94.0181 147.022 95.5104 152.812 95.5104 152.812C95.5104 152.812 99.8873 163.726 107.402 171.185C114.222 177.957 115.177 183.513 111.203 190.443ZM135.508 191.721L135.117 191.768L134.453 191.844L133.402 191.947L133.061 191.976L132.746 192.006L132.306 192.038L131.812 192.073L131.325 192.106L131.216 192.111L130.831 192.135L130.667 192.144L130.211 192.164L129.683 192.188L129.198 192.206L128.878 192.214H128.713L128.414 192.22H128.255L127.955 192.223L127.544 192.229H126.974C126.528 192.229 126.081 192.226 125.635 192.217L125.273 192.208L124.965 192.2L124.583 192.188L124.107 192.17L123.678 192.153L123.567 192.147L123.158 192.126L122.821 192.106L122.556 192.091C122.225 192.071 121.894 192.048 121.563 192.023L121.214 191.994L120.779 191.956C120.322 191.918 119.866 191.874 119.41 191.824H119.395C123.567 182.581 121.458 173.95 113.027 165.586C107.498 160.101 103.821 152.004 103.057 150.227C101.512 144.963 97.4257 139.113 90.6371 139.113C90.0642 139.113 89.4914 139.16 88.9245 139.248C85.9488 139.713 83.3491 141.414 81.4925 143.972C79.4921 141.496 77.5416 139.528 75.782 138.417C73.1235 136.743 70.4739 135.894 67.8918 135.894C64.6693 135.894 61.7876 137.21 59.7784 139.595L59.7284 139.654L59.6168 139.184L59.6109 139.16C59.2289 137.538 58.9085 135.901 58.6503 134.254C58.6503 134.245 58.6503 134.234 58.6445 134.225L58.5857 133.849C58.5303 133.481 58.4784 133.113 58.43 132.744L58.3625 132.242L58.3008 131.737L58.245 131.258L58.2391 131.217C58.1665 130.564 58.1028 129.911 58.0482 129.257L58.0276 129.007L57.9982 128.578C57.987 128.461 57.9772 128.343 57.9688 128.226V128.144C57.9449 127.816 57.9243 127.488 57.9072 127.159L57.8807 126.645L57.8602 126.196L57.8543 126.058L57.8396 125.646L57.8308 125.294C57.8308 125.15 57.8249 125.012 57.822 124.871L57.8161 124.427C57.8161 124.28 57.8161 124.133 57.8102 123.987V123.54C57.8102 85.5982 88.7835 54.8393 126.989 54.8393C165.194 54.8393 196.168 85.5982 196.168 123.54V124.427L196.159 124.868C196.159 124.994 196.153 125.115 196.15 125.238C196.15 125.347 196.144 125.455 196.141 125.561C196.141 125.699 196.132 125.837 196.129 125.978V125.987L196.109 126.469L196.091 126.892L196.085 126.992L196.062 127.441C196.006 128.405 195.933 129.366 195.842 130.329V130.338C195.824 130.497 195.812 130.655 195.792 130.814L195.75 131.184L195.671 131.913L195.624 132.283L195.565 132.718L195.501 133.191L195.424 133.72L195.36 134.137L195.286 134.607C195.261 134.764 195.233 134.92 195.204 135.077L195.122 135.544C194.987 136.323 194.836 137.099 194.667 137.871L194.567 138.332L194.464 138.793C192.516 136.913 189.94 135.891 187.094 135.891C184.514 135.891 181.859 136.737 179.206 138.408C177.444 139.522 175.496 141.49 173.49 143.964C171.633 141.408 169.034 139.707 166.061 139.243C165.494 139.153 164.922 139.108 164.348 139.107C157.557 139.107 153.474 144.957 151.928 150.221C151.162 151.999 147.481 160.092 141.95 165.586C133.525 173.923 131.401 182.52 135.508 191.721ZM206.925 173.221L206.898 173.301C206.775 173.617 206.62 173.919 206.434 174.203C206.284 174.429 206.117 174.643 205.935 174.849C205.894 174.896 205.853 174.943 205.806 174.987C205.74 175.057 205.672 175.126 205.603 175.193C204.375 176.403 202.501 177.464 200.386 178.436C200.145 178.545 199.901 178.653 199.654 178.759L199.411 178.868C199.245 178.941 199.079 179.013 198.911 179.082C198.746 179.154 198.579 179.223 198.412 179.291L197.901 179.499C196.708 179.987 195.489 180.451 194.299 180.91L193.788 181.106L193.286 181.3C192.955 181.429 192.625 181.559 192.296 181.691L191.811 181.885L191.335 182.079L191.1 182.176L190.639 182.37C187.138 183.862 184.617 185.381 185.146 187.264C185.224 187.543 185.363 187.801 185.554 188.019C186.174 188.662 187.308 188.56 188.736 188.048C188.938 187.978 189.138 187.902 189.335 187.822L189.458 187.769C189.787 187.631 190.134 187.479 190.486 187.311L190.751 187.185C192.499 186.333 194.481 185.193 196.444 184.153C197.231 183.733 198.027 183.33 198.835 182.951C200.694 182.082 202.442 181.465 203.849 181.465C204.507 181.465 205.092 181.6 205.577 181.908L205.659 181.961C206.026 182.216 206.322 182.56 206.519 182.96C207.213 184.268 206.631 185.625 205.271 186.956C203.964 188.231 201.934 189.482 199.622 190.643L199.105 190.898C192.231 194.25 183.231 196.774 183.107 196.806C180.707 197.423 177.276 198.234 173.414 198.842L172.841 198.93L172.747 198.945C171.871 199.078 170.992 199.192 170.112 199.289L170.03 199.297C168.405 199.483 166.773 199.605 165.139 199.665H165.115C164.525 199.685 163.934 199.697 163.341 199.697H162.659C161.757 199.685 160.856 199.645 159.957 199.576C159.939 199.576 159.916 199.576 159.895 199.571C158.798 199.481 157.705 199.342 156.62 199.153L156.317 199.098L156.294 199.092C155.978 199.032 155.664 198.967 155.351 198.895C155.168 198.855 154.986 198.812 154.804 198.766L154.696 198.736L154.431 198.669L154.384 198.657L154.102 198.575L153.797 198.487L153.762 198.475L153.497 198.395C153.396 198.364 153.295 198.332 153.195 198.299L152.951 198.219L152.769 198.155C152.596 198.094 152.425 198.032 152.255 197.967L152.09 197.905L151.958 197.852C151.698 197.749 151.441 197.642 151.185 197.529L151.018 197.444L150.988 197.432C150.811 197.351 150.634 197.267 150.46 197.179L150.422 197.162L150.254 197.073C149.956 196.919 149.663 196.754 149.376 196.58L149.22 196.483C149.141 196.435 149.063 196.386 148.985 196.336L148.779 196.198L148.562 196.051L148.43 195.957C148.291 195.859 148.155 195.757 148.022 195.652L147.81 195.49C147.725 195.422 147.641 195.354 147.557 195.284L147.352 195.108L147.346 195.102C147.2 194.976 147.057 194.845 146.917 194.711L146.908 194.703C146.835 194.634 146.764 194.563 146.694 194.491L146.482 194.28L146.277 194.059L146.083 193.842L146.062 193.818C145.727 193.443 145.418 193.046 145.137 192.629L145.025 192.461C144.874 192.244 144.727 192.023 144.585 191.8C144.479 191.64 144.376 191.479 144.276 191.315L144.088 191.007L144.062 190.966L143.888 190.669C143.855 190.616 143.824 190.562 143.794 190.507C143.765 190.449 143.73 190.393 143.698 190.337L143.648 190.249L143.615 190.19C143.554 190.08 143.494 189.97 143.436 189.858L143.354 189.711L143.272 189.559L143.189 189.403C142.984 188.995 142.79 188.582 142.608 188.163L142.543 188.007C142.499 187.907 142.461 187.805 142.42 187.705C142.092 186.882 141.837 186.033 141.656 185.167C141.644 185.117 141.632 185.067 141.627 185.02C141.569 184.73 141.524 184.438 141.491 184.144L141.477 183.997C141.456 183.805 141.44 183.612 141.43 183.419L141.424 183.272C141.42 183.176 141.418 183.08 141.418 182.984C141.365 179.112 143.339 175.387 147.557 171.197C155.078 163.741 159.454 152.827 159.454 152.827C159.454 152.827 159.572 152.369 159.813 151.711C159.981 151.243 160.179 150.785 160.403 150.342L160.441 150.271C160.591 149.972 160.759 149.678 160.938 149.39L161.064 149.193C161.267 148.883 161.496 148.592 161.749 148.32L161.857 148.209C162.271 147.762 162.783 147.418 163.353 147.204L163.423 147.181C163.525 147.148 163.629 147.121 163.734 147.098L163.764 147.092C163.882 147.069 164.002 147.053 164.122 147.045H164.134L164.325 147.04C164.486 147.035 164.648 147.046 164.807 147.075C165.482 147.184 166.128 147.583 166.684 148.203C167.031 148.6 167.325 149.041 167.559 149.513L167.674 149.748C167.982 150.438 168.203 151.163 168.332 151.908C168.45 152.613 168.496 153.329 168.467 154.043C168.417 155.218 168.173 156.379 167.747 157.481L167.627 157.783C167.478 158.144 167.307 158.495 167.116 158.835L166.945 159.135C166.798 159.384 166.64 159.631 166.469 159.875L166.366 160.022C165.961 160.58 165.515 161.106 165.021 161.588C164.537 162.069 164.019 162.515 163.47 162.921C162.921 163.327 162.407 163.773 161.928 164.261C160.556 165.689 160.239 166.952 160.547 167.91C160.656 168.232 160.832 168.528 161.064 168.776L161.114 168.826L161.161 168.876C161.212 168.924 161.265 168.971 161.32 169.014L161.376 169.058C161.506 169.162 161.646 169.253 161.793 169.332L161.922 169.399C162.084 169.476 162.245 169.54 162.413 169.593L162.554 169.637L162.612 169.652L162.695 169.675L162.765 169.693L162.841 169.708L162.918 169.725L162.991 169.737L163.153 169.761L163.206 169.769L163.3 169.778L163.358 169.784L163.455 169.79H163.511L163.611 169.796H163.928L164.016 169.79L164.122 169.784L164.248 169.772L164.366 169.758C164.395 169.758 164.422 169.752 164.448 169.746C164.815 169.693 165.171 169.599 165.515 169.458L165.661 169.399C165.908 169.294 166.144 169.166 166.366 169.017C166.572 168.882 166.772 168.729 166.954 168.562L167.083 168.442C167.103 168.422 167.123 168.401 167.142 168.38C167.485 168.029 167.78 167.634 168.017 167.205C169.804 163.979 171.677 160.801 173.634 157.674L173.901 157.248L174.174 156.82L174.583 156.179L174.718 155.968C175.173 155.26 175.634 154.557 176.104 153.858L176.383 153.447C176.942 152.624 177.5 151.825 178.052 151.067L178.325 150.688C178.927 149.866 179.55 149.061 180.199 148.276L180.458 147.971C180.502 147.918 180.54 147.868 180.587 147.818L180.84 147.527C180.881 147.48 180.919 147.433 180.966 147.386L181.21 147.113L181.333 146.978C181.452 146.851 181.572 146.726 181.694 146.602L181.929 146.364C182.394 145.894 182.905 145.471 183.457 145.106L183.583 145.024C183.704 144.942 183.83 144.866 183.962 144.798C186.118 143.582 187.904 143.491 188.932 144.513C189.555 145.13 189.902 146.158 189.881 147.583L189.878 147.774V147.845C189.877 147.91 189.873 147.976 189.867 148.041C189.867 148.124 189.858 148.203 189.849 148.285L189.828 148.5L189.82 148.564C189.814 148.628 189.808 148.692 189.799 148.755C189.799 148.773 189.799 148.793 189.79 148.814L189.755 149.07C189.744 149.148 189.73 149.227 189.714 149.305L189.69 149.443C189.668 149.571 189.638 149.699 189.602 149.825C189.529 150.06 189.444 150.286 189.341 150.509C189.123 150.986 188.867 151.445 188.577 151.881C188.198 152.467 187.789 153.034 187.352 153.579L187.211 153.755C186.704 154.384 186.18 154.999 185.64 155.6L185.469 155.791C185.237 156.047 185.005 156.302 184.764 156.561L184.588 156.755L184.221 157.143C184.103 157.275 183.977 157.407 183.851 157.536L183.475 157.93L183.093 158.324L182.711 158.72L181.935 159.514C178.234 163.283 174.333 167.043 173.014 169.385C172.926 169.537 172.847 169.694 172.776 169.855C172.585 170.281 172.509 170.648 172.562 170.942C172.579 171.038 172.614 171.131 172.664 171.215C172.774 171.401 172.917 171.564 173.087 171.697C173.36 171.888 173.686 171.987 174.019 171.979H174.124L174.23 171.97L174.336 171.958L174.424 171.946L174.462 171.938L174.545 171.923L174.565 171.917L174.653 171.899L174.686 171.891C174.718 171.882 174.75 171.874 174.782 171.864L174.897 171.832C175.184 171.747 175.463 171.635 175.728 171.497L175.849 171.438C176.143 171.288 176.427 171.124 176.704 170.947L176.827 170.865C176.867 170.84 176.906 170.814 176.944 170.786L177.068 170.704L177.132 170.66L177.309 170.539C177.473 170.427 177.623 170.31 177.779 170.195L177.793 170.184L178.037 169.996C178.372 169.731 178.689 169.467 178.977 169.217L179.171 169.053L179.189 169.035L179.289 168.947C179.524 168.735 179.735 168.541 179.905 168.38L179.979 168.309C180.044 168.251 180.099 168.195 180.155 168.148L180.255 168.048L180.29 168.013L180.302 168.004L180.408 167.895L180.475 167.828L180.484 167.822L180.514 167.792L180.555 167.754L180.569 167.742L180.602 167.713L180.79 167.551L180.892 167.457C180.951 167.41 181.004 167.36 181.057 167.31L181.18 167.202L181.248 167.143L181.377 167.031L181.571 166.861L181.674 166.773L183.107 165.551L183.334 165.36L183.71 165.045L184.091 164.728C184.597 164.314 185.137 163.876 185.707 163.418L186.083 163.118C186.544 162.756 187.008 162.395 187.473 162.037C188.597 161.168 189.742 160.326 190.907 159.511L191.256 159.267L191.99 158.767L192.214 158.62C192.648 158.324 193.095 158.036 193.541 157.757L193.762 157.619L193.982 157.481C194.2 157.346 194.42 157.213 194.64 157.081L194.857 156.952L195.295 156.702L195.724 156.455L195.812 156.411L196.147 156.226C196.287 156.15 196.428 156.075 196.57 156.003L196.782 155.897L196.984 155.794L197.196 155.691C197.777 155.408 198.372 155.153 198.979 154.928L199.352 154.795L199.678 154.693L199.716 154.681L199.884 154.631L199.901 154.628C200.019 154.593 200.136 154.566 200.248 154.54H200.257C200.729 154.426 201.211 154.362 201.696 154.349H201.772C201.875 154.349 201.975 154.355 202.072 154.366C202.116 154.366 202.16 154.375 202.204 154.381H202.225L202.354 154.402C202.398 154.411 202.442 154.416 202.483 154.428H202.498C202.891 154.517 203.254 154.704 203.555 154.972L203.585 154.995L203.629 155.042L203.673 155.089C204.039 155.471 204.343 155.908 204.572 156.385L204.607 156.467C204.767 156.831 204.853 157.223 204.86 157.621C204.867 158.018 204.794 158.413 204.645 158.782C204.561 159.006 204.458 159.222 204.337 159.428C204.052 159.903 203.715 160.345 203.332 160.744L203.25 160.833C203.126 160.963 203 161.09 202.871 161.215L202.689 161.382L202.504 161.555L202.407 161.64C202.029 161.976 201.637 162.295 201.232 162.598C200.376 163.252 199.493 163.869 198.585 164.449C197.745 164.995 196.899 165.527 196.041 166.047C194.246 167.143 192.252 168.315 190.131 169.593L189.582 169.922C188.982 170.286 188.413 170.636 187.878 170.968L187.611 171.136L187.099 171.459L186.089 172.105L185.819 172.284L185.422 172.543L185.293 172.625L184.899 172.889L184.691 173.033L184.447 173.201L184.218 173.356C183.862 173.607 183.509 173.861 183.16 174.12L183.037 174.214C182.578 174.561 182.131 174.923 181.697 175.301L181.583 175.407L181.392 175.583L181.268 175.701L181.21 175.76C181.079 175.89 180.952 176.025 180.828 176.162L180.769 176.23C180.644 176.373 180.527 176.522 180.417 176.676L180.37 176.741C180.269 176.885 180.179 177.036 180.099 177.193L180.055 177.284L180.026 177.352L180.005 177.396L179.991 177.437L179.97 177.493C179.914 177.646 179.875 177.805 179.853 177.966L179.844 178.025L179.838 178.075V178.363C179.838 178.386 179.838 178.41 179.844 178.433L179.85 178.477L179.858 178.551L179.876 178.65L179.897 178.747C179.905 178.777 179.911 178.815 179.923 178.847C179.941 178.913 179.962 178.977 179.985 179.041L180.029 179.153L180.038 179.173L180.07 179.247L180.117 179.35C180.167 179.452 180.22 179.555 180.279 179.652L180.337 179.758L180.399 179.861C180.411 179.877 180.423 179.893 180.437 179.908L180.458 179.931L180.481 179.952L180.505 179.97C180.539 179.994 180.577 180.014 180.616 180.028L180.681 180.043C181.21 180.16 182.291 179.729 183.727 178.977L183.986 178.838L184.426 178.603L184.638 178.486C184.791 178.404 184.946 178.31 185.105 178.222L185.393 178.06C187.293 176.973 189.564 175.577 191.914 174.211L192.575 173.829L193.019 173.55C194.178 172.882 195.356 172.245 196.549 171.641L196.984 171.42C197.807 171.008 198.645 170.625 199.496 170.275L199.801 170.151L199.84 170.137C201.458 169.499 202.927 169.108 204.117 169.108C204.372 169.104 204.628 169.124 204.88 169.167H204.892C204.969 169.181 205.046 169.197 205.121 169.217H205.136C205.609 169.325 206.038 169.574 206.367 169.931C206.608 170.204 206.79 170.524 206.901 170.871L206.981 171.13C207.174 171.816 207.155 172.546 206.925 173.221Z" fill="#FF9D00"/>
<path fill-rule="evenodd" clip-rule="evenodd" d="M196.156 123.984V123.541C196.156 85.5958 165.194 54.8369 126.989 54.8369C88.7834 54.8369 57.8101 85.5958 57.8101 123.541V123.984C57.816 124.131 57.816 124.278 57.816 124.425L57.8219 124.754V124.871L57.8278 125.033L57.8307 125.292L57.8425 125.644L57.8571 126.058L57.8601 126.196L57.8777 126.625V126.646L57.9041 127.145V127.16L57.9335 127.671L57.9629 128.144L57.9658 128.174L57.9952 128.579V128.614L58.0246 129.008L58.0275 129.031L58.0481 129.258C58.101 129.913 58.1656 130.565 58.239 131.217L58.242 131.258L58.3007 131.737L58.3595 132.242L58.4065 132.583L58.427 132.742C58.474 133.112 58.5269 133.482 58.5857 133.849V133.873L58.6444 134.222C58.9029 135.879 59.226 137.528 59.6108 139.164L59.6138 139.184L59.6432 139.305L59.7254 139.655L59.7783 139.596C61.7846 137.21 64.6663 135.894 67.8888 135.894C70.4738 135.894 73.1235 136.746 75.779 138.415C77.5415 139.528 79.4891 141.497 81.4925 143.973C83.349 141.414 85.9458 139.713 88.9215 139.249C89.488 139.16 90.0606 139.115 90.634 139.114C97.4227 139.114 101.512 144.963 103.057 150.228C103.821 152.005 107.495 160.099 113.044 165.578C121.475 173.945 123.581 182.573 119.41 191.815H119.425C119.71 191.848 119.995 191.877 120.282 191.904L120.794 191.951L120.852 191.956L121.231 191.986L121.578 192.015C121.91 192.042 122.239 192.065 122.571 192.086L122.835 192.1L123.044 192.112L123.173 192.121L123.584 192.141L123.693 192.147L124.122 192.165L124.598 192.183L124.98 192.194H125.044L125.288 192.203H125.376C125.914 192.218 126.451 192.224 126.992 192.224H127.562L127.97 192.218L128.273 192.215H128.431L128.569 192.209H128.895L129.216 192.197L129.697 192.183L130.226 192.159L130.681 192.139L130.846 192.127L131.09 192.115L131.231 192.106L131.339 192.1L131.83 192.068L132.318 192.033L132.764 191.998L133.075 191.968L133.419 191.939C133.992 191.889 134.565 191.83 135.135 191.762L135.525 191.715C131.419 182.511 133.542 173.918 141.938 165.587C147.472 160.093 151.15 151.999 151.917 150.222C153.462 144.957 157.548 139.108 164.337 139.108C164.912 139.108 165.485 139.152 166.052 139.243C169.025 139.707 171.625 141.405 173.481 143.964C175.487 141.491 177.432 139.519 179.195 138.409C181.85 136.737 184.503 135.888 187.085 135.888C189.928 135.888 192.504 136.914 194.452 138.794L194.558 138.332L194.658 137.874L194.76 137.369C194.819 137.075 194.881 136.778 194.937 136.479C195.001 136.167 195.057 135.856 195.113 135.545L195.142 135.374C195.157 135.277 195.172 135.177 195.192 135.074C195.222 134.919 195.251 134.763 195.275 134.604L195.286 134.546L195.351 134.134L195.413 133.72V133.714C195.46 133.409 195.504 133.1 195.545 132.795L195.557 132.718L195.615 132.284L195.659 131.913L195.742 131.185L195.774 130.891L195.783 130.815L195.83 130.339V130.327C195.842 130.201 195.856 130.077 195.865 129.951C195.93 129.237 195.985 128.517 196.03 127.797L196.05 127.442V127.436L196.074 126.99L196.079 126.893C196.094 126.59 196.109 126.29 196.118 125.988V125.979L196.124 125.861C196.128 125.762 196.13 125.662 196.129 125.562L196.132 125.521C196.135 125.427 196.141 125.333 196.141 125.236V125.156L196.147 124.871L196.15 124.789L196.156 124.428V123.984ZM109.831 192.614C115.309 184.635 114.922 178.648 107.404 171.186C99.8872 163.724 95.5162 152.813 95.5162 152.813C95.5162 152.813 93.8829 146.476 90.1582 147.058C86.4334 147.639 83.7015 157.111 91.5006 162.907C99.2968 168.707 89.9467 172.637 86.9475 167.197C83.9453 161.756 75.7525 147.769 71.5019 145.095C67.2543 142.422 64.2668 143.92 65.2685 149.432C65.7679 152.17 70.3916 156.841 74.7156 161.206C79.0984 165.634 83.1727 169.744 82.3003 171.198C80.573 174.089 74.4865 167.805 74.4865 167.805C74.4865 167.805 55.4278 150.58 51.28 155.069C47.4554 159.206 53.3539 162.722 62.4426 168.142L64.825 169.567C75.2238 175.819 76.0316 177.47 74.557 179.835C74.0106 180.708 70.5326 178.63 66.2497 176.08C58.9528 171.73 49.3295 165.992 47.9694 171.127C46.7944 175.572 53.8739 178.296 60.2953 180.763C65.6416 182.823 70.5355 184.706 69.8129 187.259C69.0697 189.909 65.0247 187.699 60.6096 185.285C55.6452 182.573 50.2108 179.603 48.4336 182.955C45.0701 189.292 71.6253 196.751 71.8456 196.807C80.4232 199.016 102.217 203.699 109.831 192.614ZM145.125 192.614C139.647 184.635 140.034 178.648 147.552 171.186C155.069 163.724 159.443 152.813 159.443 152.813C159.443 152.813 161.076 146.476 164.801 147.058C168.525 147.639 171.257 157.111 163.458 162.907C155.662 168.707 165.009 172.637 168.011 167.197C171.014 161.756 179.203 147.769 183.451 145.095C187.699 142.422 190.686 143.92 189.684 149.432C189.188 152.17 184.561 156.841 180.24 161.206C175.855 165.634 171.78 169.744 172.653 171.198C174.38 174.089 180.472 167.802 180.472 167.802C180.472 167.802 199.525 150.58 203.676 155.066C207.498 159.203 201.602 162.719 192.513 168.14C191.72 168.615 190.924 169.088 190.131 169.567C179.732 175.816 178.924 177.467 180.399 179.832C180.945 180.705 184.423 178.628 188.706 176.078C196.003 171.727 205.626 165.989 206.986 171.124C208.161 175.569 201.082 178.293 194.661 180.76C189.314 182.82 184.42 184.703 185.14 187.256C185.883 189.906 189.928 187.697 194.343 185.282C199.305 182.57 204.742 179.597 206.519 182.952C209.883 189.292 183.322 196.745 183.107 196.798C174.527 199.016 152.736 203.702 145.125 192.614Z" fill="#FFD21E"/>
<path fill-rule="evenodd" clip-rule="evenodd" d="M149.455 104.838C150.536 105.22 151.335 106.372 152.099 107.471C153.133 108.954 154.094 110.332 155.565 109.557C157.301 108.641 158.726 107.231 159.66 105.505C160.832 103.344 161.151 100.823 160.556 98.4375C159.96 96.0525 158.493 93.977 156.444 92.6201C155.221 91.8067 153.834 91.2726 152.382 91.0557C150.93 90.8388 149.448 90.9445 148.041 91.3651C146.634 91.7858 145.337 92.5111 144.242 93.4896C143.147 94.4682 142.282 95.6758 141.706 97.0268C141.141 98.3748 140.884 99.8317 140.952 101.292C141.021 102.752 141.414 104.178 142.103 105.467C142.787 106.742 144.303 106.143 145.901 105.505C147.155 105.006 148.459 104.489 149.455 104.838ZM102.561 104.838C101.482 105.22 100.681 106.372 99.9168 107.471C98.8857 108.954 97.9252 110.332 96.4505 109.557C94.2698 108.411 92.5941 106.495 91.7505 104.18C90.9092 101.871 90.9648 99.3297 91.9062 97.0591C92.8491 94.7882 94.6087 92.9462 96.8412 91.8915C98.8474 90.9458 101.111 90.6929 103.276 91.1725C105.441 91.6521 107.386 92.837 108.806 94.5414C110.058 96.0454 110.833 97.889 111.03 99.8361C111.228 101.783 110.84 103.745 109.916 105.47C109.232 106.742 107.713 106.143 106.115 105.508C104.864 105.009 103.559 104.489 102.561 104.841V104.838ZM142.202 147.222C149.634 141.405 152.366 131.91 152.366 126.061C152.366 121.44 149.232 122.894 144.218 125.359L143.936 125.497C139.332 127.762 133.208 130.776 126.481 130.776C119.754 130.776 113.629 127.762 109.026 125.497C103.85 122.95 100.604 121.355 100.604 126.064C100.604 132.098 103.506 142.005 111.479 147.76C112.534 145.637 114.016 143.754 115.832 142.231C117.653 140.704 119.767 139.567 122.045 138.891C122.841 138.656 123.661 140.013 124.501 141.408C125.309 142.751 126.137 144.126 126.98 144.126C127.876 144.126 128.757 142.771 129.618 141.449C130.517 140.069 131.395 138.72 132.241 138.99C136.5 140.344 140.072 143.294 142.202 147.222Z" fill="#32343D"/>
<path d="M142.202 147.219C138.331 150.251 133.184 152.281 126.484 152.281C120.186 152.281 115.262 150.489 111.479 147.756C112.534 145.634 114.016 143.753 115.832 142.23C117.652 140.702 119.767 139.564 122.045 138.887C123.608 138.423 125.265 144.122 126.98 144.122C128.816 144.122 130.585 138.461 132.244 138.987C136.502 140.341 140.071 143.291 142.202 147.219Z" fill="#FF323D"/>
<path fill-rule="evenodd" clip-rule="evenodd" d="M84.7855 113.064C83.8996 113.653 82.8825 114.015 81.8237 114.119C80.7648 114.222 79.6968 114.064 78.7136 113.657C77.9301 113.336 77.2176 112.864 76.6168 112.267C76.016 111.67 75.5386 110.96 75.2121 110.179C74.8047 109.203 74.6462 108.141 74.7508 107.089C74.8554 106.037 75.2198 105.027 75.8114 104.151C76.5246 103.092 77.5356 102.268 78.7166 101.783C79.899 101.298 81.1979 101.172 82.4515 101.42C83.7051 101.668 84.858 102.279 85.7666 103.178C86.6683 104.075 87.2829 105.22 87.5324 106.467C87.7819 107.714 87.655 109.007 87.1678 110.182C86.6802 111.357 85.8489 112.356 84.7855 113.064ZM177.353 113.064C176.467 113.652 175.451 114.014 174.392 114.118C173.334 114.221 172.267 114.063 171.284 113.657C169.701 113.008 168.44 111.757 167.779 110.179C167.185 108.754 167.126 107.161 167.614 105.696C168.102 104.231 169.104 102.992 170.435 102.209C171.324 101.681 172.325 101.373 173.357 101.311C174.389 101.248 175.42 101.433 176.366 101.85C177.312 102.266 178.145 102.903 178.795 103.706C179.446 104.509 179.895 105.457 180.105 106.469C180.354 107.717 180.225 109.011 179.734 110.186C179.244 111.361 178.415 112.363 177.353 113.064Z" fill="#FFAD03"/>
</svg>
