<svg width="256" height="256" viewBox="0 0 256 256" fill="none" xmlns="http://www.w3.org/2000/svg">
<path d="M128 252.8C196.925 252.8 252.8 196.925 252.8 128C252.8 59.0748 196.925 3.19995 128 3.19995C59.0751 3.19995 3.2002 59.0748 3.2002 128C3.2002 196.925 59.0751 252.8 128 252.8Z" fill="white"/>
<path d="M115.45 105.636L104.359 111.879C102.153 113.127 99.9476 114.406 97.7065 115.606C97.4218 115.718 97.1814 115.92 97.0221 116.182C96.8628 116.443 96.7933 116.749 96.8242 117.053C96.8448 132.802 96.8448 148.552 96.8242 164.301C96.8242 166.357 96.8242 168.417 96.8242 170.477C96.7953 170.712 96.8401 170.949 96.9524 171.157C97.0646 171.365 97.2387 171.533 97.4506 171.637C107.394 177.616 117.328 183.613 127.251 189.628C127.43 189.759 127.646 189.83 127.868 189.83C128.09 189.83 128.307 189.759 128.486 189.628C134.261 186.27 140.053 182.944 145.832 179.587C156.443 173.411 167.05 167.235 177.652 161.058C178.424 160.617 178.433 160.617 178.433 161.544C178.433 168.487 178.433 175.436 178.433 182.379C178.455 182.615 178.404 182.851 178.287 183.057C178.17 183.263 177.994 183.428 177.78 183.531C168.075 189.295 158.378 195.068 148.691 200.85C142.059 204.803 135.428 208.76 128.799 212.722C128.554 212.903 128.257 213 127.952 213C127.647 213 127.351 212.903 127.105 212.722C114.241 205.187 101.37 197.664 88.4908 190.153C84.9615 188.097 81.4323 186.028 77.9031 183.976C77.677 183.872 77.4888 183.7 77.3647 183.485C77.2406 183.269 77.1868 183.02 77.2106 182.772C77.2253 157.276 77.2253 131.781 77.2106 106.285C77.1921 106.037 77.2503 105.789 77.3774 105.575C77.5044 105.361 77.6941 105.192 77.9207 105.089C83.8028 101.583 89.6848 98.0543 95.5669 94.5015C95.788 94.3347 96.0575 94.2445 96.3345 94.2445C96.6115 94.2445 96.8809 94.3347 97.1021 94.5015C102.947 98.0307 108.815 101.516 114.678 105.023C114.995 105.138 115.266 105.353 115.45 105.636Z" fill="#1C8CF3"/>
<path d="M146.465 64.7194C147.215 64.2474 147.934 63.7886 148.67 63.343C154.155 59.9579 159.638 56.5757 165.117 53.1965C165.281 53.0691 165.483 53 165.69 53C165.898 53 166.1 53.0691 166.264 53.1965C168.774 54.7538 171.293 56.3066 173.86 57.7492C179.785 61.0799 185.586 64.6091 191.471 67.9972C194.4 69.6824 197.246 71.5264 200.193 73.1631C204.273 75.4527 208.266 77.8967 212.338 80.2216C212.578 80.3317 212.778 80.5143 212.909 80.7437C213.041 80.9731 213.097 81.2379 213.07 81.5009C213.052 94.765 213.052 108.029 213.07 121.293C213.091 121.556 213.03 121.818 212.895 122.045C212.76 122.271 212.557 122.449 212.316 122.555C208.654 124.672 205.015 126.825 201.371 128.969L176.82 143.39C160.742 152.837 144.665 162.286 128.589 171.739C128.388 171.883 128.146 171.96 127.899 171.96C127.651 171.96 127.41 171.883 127.208 171.739C122.426 168.954 117.635 166.188 112.835 163.441C112.609 163.335 112.421 163.16 112.298 162.942C112.176 162.723 112.124 162.472 112.152 162.223C112.169 155.106 112.169 147.987 112.152 140.867C112.152 139.844 112.152 139.839 113.091 140.369C116.321 142.213 119.523 144.101 122.797 145.883C124.317 146.712 125.836 147.549 127.354 148.393C127.516 148.504 127.707 148.563 127.903 148.563C128.099 148.563 128.291 148.504 128.452 148.393C139.781 141.793 151.114 135.201 162.452 128.616C166.352 126.349 170.274 124.112 174.178 121.853C180.504 118.192 186.827 114.529 193.148 110.864C193.375 110.762 193.565 110.591 193.691 110.376C193.818 110.162 193.874 109.913 193.853 109.664C193.827 104.291 193.827 98.9162 193.853 93.54C193.879 93.3184 193.836 93.0943 193.731 92.8978C193.625 92.7014 193.461 92.5421 193.262 92.4415C186.339 88.38 179.428 84.3038 172.528 80.2128C163.958 75.1483 155.389 70.081 146.822 65.0106C146.712 64.918 146.632 64.8385 146.465 64.7194Z" fill="#1C8CF3"/>
<path d="M178.321 101.3L169.088 106.943C166.066 108.791 163.031 110.617 160.027 112.501C159.796 112.678 159.513 112.774 159.222 112.774C158.931 112.774 158.647 112.678 158.416 112.501C146.961 105.787 135.5 99.0827 124.033 92.3889C114.998 87.0951 105.965 81.8086 96.9329 76.5294C96.6994 76.3561 96.4163 76.2625 96.1255 76.2625C95.8348 76.2625 95.5518 76.3561 95.3183 76.5294C90.0686 79.719 84.7923 82.8688 79.5249 86.0319C74.0399 89.3229 68.552 92.6095 63.0611 95.8917C62.8243 96.0022 62.6272 96.1831 62.497 96.4097C62.3667 96.6363 62.3095 96.8975 62.3331 97.1578C62.3567 108.922 62.3567 120.699 62.3331 132.49V133.399C61.9714 133.46 61.7861 133.253 61.5699 133.129C55.3408 129.521 49.1118 125.914 42.8827 122.308C42.657 122.203 42.4693 122.031 42.3452 121.816C42.2212 121.6 42.167 121.351 42.1901 121.104C42.2077 109.298 42.2077 97.4916 42.1901 85.6834C42.1656 85.4213 42.2234 85.1581 42.3554 84.9304C42.4874 84.7027 42.6872 84.5217 42.9268 84.4128C53.8086 78.0778 64.6904 71.7311 75.5722 65.3726C82.1748 61.5199 88.776 57.6627 95.3756 53.8012C95.5891 53.6459 95.8462 53.5623 96.1102 53.5623C96.3741 53.5623 96.6312 53.6459 96.8446 53.8012C99.4915 55.3805 102.169 56.9201 104.838 58.473L120.68 67.6931L138.353 77.9853L177.677 100.863C177.862 100.996 178.026 101.11 178.321 101.3Z" fill="#1C8CF3"/>
</svg>
