<svg width="256" height="256" viewBox="0 0 256 256" fill="none" xmlns="http://www.w3.org/2000/svg">
<path d="M256 127.998C256 161.946 242.514 194.504 218.509 218.509C194.504 242.514 161.946 256 127.998 256C94.0514 255.999 61.495 242.513 37.491 218.509C13.487 194.505 0.00116778 161.95 0 128.002C-2.00871e-08 94.0551 13.4853 61.4975 37.4895 37.4926C61.4936 13.4876 94.0505 0.00116783 127.998 0C161.946 -2.00871e-08 194.503 13.4853 218.508 37.4895C242.512 61.4935 255.999 94.0505 256 127.998Z" fill="#BB2033"/>
<path d="M163.847 90.9396L184.702 90.8774L135.894 132.549L133.341 147.394L197.838 92.3401C201.543 88.792 202.507 83.1902 199.986 79.6424L174.617 49.2055C173.185 47.1826 170.788 46 168.112 46H102.992C100.315 46 97.5449 47.1515 95.4283 49.1744L57.2657 81.9454C54.4642 84.6216 54.3396 90.0679 56.4563 92.62L101.872 147.394L104.393 132.642L69.7479 90.8461H90.4794C94.8685 96.2924 109.778 114.156 115.008 120.412L105.451 176.337H90.3547L88.3621 188.07H103.646L102.09 197.157H85.5921L83.2264 210.944H105.981C110.339 210.944 114.51 207.396 115.226 203.039L129.358 120.443C136.237 114.716 159.177 94.8918 163.815 90.9083L163.847 90.9396ZM165.372 56.7369L184.733 80.1714H164.531C164.189 79.3311 145.077 56.7369 145.077 56.7369H165.341H165.372ZM73.1722 80.1714L100.658 56.7369H121.233L93.7471 80.2025H73.1722V80.1714ZM122.821 111.075L102.806 86.956C102.152 86.1778 102.37 84.9332 103.272 84.1549L131.194 60.3159C132.096 59.5378 133.342 59.5378 133.996 60.3159L153.948 84.4661C154.571 85.2443 154.384 86.4889 153.482 87.2672L125.591 111.075C124.688 111.853 123.443 111.853 122.789 111.075H122.821Z" fill="#F6CB46"/>
<path d="M142.74 80.2037H132.686C132.686 80.2037 132.561 80.1726 132.53 80.0792L131.067 70.5249C131.067 70.3693 130.819 70.3693 130.725 70.5249L126.025 80.0792C126.025 80.0792 125.901 80.2037 125.838 80.2037H115.846C115.659 80.2037 115.566 80.4216 115.691 80.5461L122.912 85.5566C122.912 85.5566 122.975 85.6813 122.912 85.7435L117.994 96.1379C117.901 96.2935 118.087 96.4491 118.243 96.3248L127.363 90.4114C127.363 90.4114 127.519 90.3806 127.581 90.4114L134.679 96.3248C134.679 96.3248 135.021 96.2935 134.989 96.1379L133.651 85.7435C133.651 85.7435 133.651 85.5879 133.745 85.5566L142.74 80.5461C142.896 80.4527 142.865 80.2348 142.678 80.2348L142.74 80.2037Z" fill="#FDFDFD"/>
</svg>
