<svg width="256" height="256" viewBox="0 0 256 256" fill="none" xmlns="http://www.w3.org/2000/svg">
<g clip-path="url(#clip0_1241_2)">
<path d="M240.314 189.339C206.449 251.371 128.693 274.197 66.6612 240.333C4.64774 206.487 -18.1974 128.731 15.6674 66.6988C49.5321 4.6478 127.288 -18.1973 189.32 15.6674C251.371 49.5321 274.179 127.288 240.314 189.339Z" fill="black"/>
<path d="M230.127 126.085C226.209 126.824 223.332 130.007 219.948 131.746C217.04 133.24 214.399 134.044 211.435 135.829C201.06 142.077 190.249 149.449 180.168 156.246C155.313 173.003 133.869 190.976 112.875 212.328C112.555 212.654 112.176 213.511 111.712 213.501L105.698 211.458L105.093 208.249L111.214 157.397L56.7942 153.839C52.8013 146.612 46.9553 140.313 42.9533 133.131C41.4562 130.444 40.1286 126.383 37.7668 124.423C34.7345 121.906 29.0029 121.246 26.6734 118.103C26.4121 117.751 25.9579 117.17 26.0031 116.737C26.0215 116.561 27.4951 114.302 27.7661 113.67C28.8872 111.055 29.5113 108.06 30.5529 105.341C33.3979 97.9151 36.7697 89.8501 40.0537 82.6058C40.3712 81.9056 42.191 77.7999 42.4998 77.6413C52.0945 76.2188 60.5394 71.2743 69.4911 67.9552C72.2366 66.9371 76.7305 65.0888 79.5455 65.772C82.3892 66.4622 84.905 69.1574 87.9958 69.3754C89.1128 69.4542 89.0117 68.9061 89.7426 68.3877C94.408 65.0814 100.03 63.708 105.167 61.3976C111.005 58.7719 116.019 54.5367 122.092 52.3884C136.222 52.4294 150.395 51.6966 164.478 52.1468C168.382 57.9289 174.121 62.218 178.73 67.3502C182.053 71.0498 185.051 75.3845 188.357 79.213C194.154 85.9276 200.443 92.2138 206.329 98.8473C209.096 101.967 211.685 105.45 214.473 108.487C218.145 112.485 222.797 115.818 226.333 119.969C227.842 121.74 229.504 123.846 230.128 126.084L230.127 126.085ZM35.2704 114.599H38.5117C38.5802 114.599 39.4306 114.051 39.7191 113.954C46.4394 111.691 53.2728 112.537 60.1592 111.611C63.0078 111.228 65.9067 110.354 68.7617 109.84C77.0393 108.35 85.3156 107.748 93.7068 107.371C94.075 107.355 94.4339 107.162 94.8124 107.18L112.193 106.965C116.356 102.333 120.908 97.9352 125.864 94.1454C127.078 93.2174 131.477 89.946 132.795 89.9767C133.187 89.9858 134.519 90.646 135.104 90.7936C138.751 91.7132 142.543 92.1447 146.28 92.5242C148.438 89.7823 150.626 86.9832 153.069 84.487C153.765 83.7754 157.44 80.1982 158.157 80.3132C160.555 85.2215 165.39 88.2955 169.098 92.1783C172.559 95.8027 176.184 99.8709 179.47 103.666C181.914 106.486 184.306 110.042 186.785 112.653C187.777 113.698 189.23 114.607 190.213 115.709C191.064 116.663 191.727 117.803 192.078 119.035L191.991 119.33C184.24 123.28 178.517 129.929 171.969 135.446C166.371 140.163 160.715 144.298 155.384 149.427C144.74 159.666 136.435 170.866 127.585 182.577C122.567 189.219 116.525 195.499 113.988 203.623C113.989 203.782 114.365 203.75 114.454 203.722C114.644 203.662 116.344 200.994 116.774 200.48C118.766 198.102 121.142 196.071 123.162 193.715C128.453 187.546 132.91 181.95 138.899 176.292C155.018 161.06 175.416 146.883 194.93 136.365C198.554 134.412 202.809 131.977 206.537 130.374C209.784 128.978 214.004 128.491 216.217 125.592C216.258 125.302 214.776 124.338 214.47 124.053C209.684 119.598 206.395 113.813 202.416 108.689C195.244 99.4542 186.554 91.5414 179.01 82.6339C176.511 79.6837 174.264 76.5234 171.776 73.5647C169.27 70.5847 166.325 67.7778 164.009 64.6592C163.23 63.6108 160.991 59.4567 160.249 59.1566C159.583 58.8869 154.7 58.9169 153.714 59.0083C152.593 59.1123 151.446 59.6598 150.2 59.7548C148.388 59.893 146.523 59.6266 144.737 60.1301C145.275 61.0791 146.522 68.5127 146.219 68.8353C138.95 67.6363 135.267 59.9063 128.749 57.3152C128.021 57.0258 126.364 56.3794 125.663 56.7031C125.379 56.8342 124.797 57.6172 124.451 57.8995C121.542 60.2709 118.149 61.5026 115.119 63.5723C111.85 65.8056 109.27 69.127 105.667 70.8909C105.27 71.4642 108.402 73.8179 108.932 74.1736C110.622 75.3067 112.505 76.2007 114.517 76.598C117.131 72.4597 122.234 70.9003 126.2 68.357C126.843 67.9445 128.515 66.3976 129.069 66.4257C130.042 66.4748 135.429 70.5682 136.491 71.4345C137.281 72.0783 141.036 75.1904 141.035 75.9717L140.465 76.5392C137.077 75.1125 133.599 73.9039 129.921 73.4688L129.919 74.0234C131.019 73.7611 131.369 74.6484 132.159 75.2123C133.897 76.4517 136.49 77.4843 136.959 79.767C130.121 80.1026 125.27 85.0116 119.789 88.2548C119.23 88.5862 116.283 90.3191 115.851 89.9496C115.166 87.0274 116.235 84.1601 116.4 81.2492C114.992 80.8933 115.233 81.9821 114.35 82.6288C113.997 82.8875 112.848 83.352 112.453 83.2583C112.21 83.2008 109.27 80.4091 108.707 79.9582C105.454 77.3526 101.791 74.6251 97.7307 73.5014L91.7633 75.5085C92.3696 76.4074 91.8925 79.6675 93.1561 79.7696C93.4381 79.7925 93.7407 79.5803 94.0598 79.599C94.3512 79.6161 94.6513 79.7615 94.9978 79.7767C97.4504 79.8846 99.7456 79.8145 102.113 80.7166C102.376 82.1488 101.597 81.612 100.834 81.8927C100.224 82.1168 99.6116 82.569 98.9814 82.8187C94.3693 84.6466 89.4555 85.7335 84.5507 86.4344C83.0494 83.519 81.2283 80.5432 79.2451 77.9307C78.5215 76.9779 75.453 73.1749 74.4314 73.0922C66.2976 77.5612 56.8365 78.4876 48.1885 81.6197C43.4132 92.395 38.1855 103.12 35.2704 114.6V114.599ZM122.289 177.369C122.442 177.281 123.924 174.924 124.29 174.463C128.747 168.848 134.189 164.236 138.906 158.883C146.204 150.601 151.457 142.033 160.209 134.799C166.323 129.745 176.341 123.953 180.934 117.733C181.29 117.252 182.548 115.536 182.171 115.055C181.819 114.608 180.312 113.727 179.743 113.212C172.165 106.35 167.8 95.9681 159.278 89.9648C153.493 96.8977 147.302 103.951 142.179 111.391C139.816 114.824 138.264 119.618 133.819 120.63C130.753 121.327 127.932 121.575 124.877 122.06C120.772 122.713 121.497 123.996 119.7 126.887C119.038 127.951 117.934 129.228 117.134 130.25C114.523 133.586 111.606 136.711 108.758 139.843L86.4771 139.619L73.141 139.248L54.718 138.869C54.4337 140.18 55.2264 140.129 55.8388 140.807C57.2112 142.326 58.3675 144.07 59.2545 145.913C71.4536 147.161 83.8549 147.598 96.1187 148.688L110.171 149.192C113.355 147.837 115.774 145.294 118.637 143.426C123.853 140.022 129.879 137.774 135.131 134.356C138.222 132.344 140.881 129.653 144.736 129.051C145.079 130.482 143.12 131.103 142.087 131.865C136.873 135.71 132.666 140.544 127.597 144.421C124.082 147.11 119.258 149.068 117.51 153.32C117.753 153.298 117.954 153.377 118.156 153.505C119.499 154.355 121.007 155.971 122.453 156.994C124.297 158.297 126.281 159.413 128.261 160.487L128.255 161.476C127.409 161.394 123.911 161.955 123.653 162.709C123.594 166.565 123.046 170.418 122.128 174.153C121.91 175.041 121.319 176.343 121.218 177.137C121.16 177.595 122.117 177.47 122.29 177.37L122.289 177.369ZM137.512 106.448C137.805 105.392 138.827 104.636 139.398 103.605C139.575 103.286 140.227 102.08 140.032 101.808C137.325 100.791 134.955 98.826 131.949 98.7569C131.39 99.4807 130.992 100.34 130.945 101.268C133.158 102.972 134.886 105.328 137.512 106.448ZM127.698 103.296L126.668 103.472C124.348 105.744 121.565 107.502 119.175 109.686C118.227 110.553 114.708 113.988 114.954 115.223L117.911 119.762L125.195 117.19L127.698 103.296ZM134.883 108.892C133.488 108.057 132.607 106.282 130.847 106.077L130.571 116.265C130.848 116.311 130.958 116.051 131.109 115.881C132.178 114.684 134.489 111.289 134.838 109.792C134.899 109.529 135.02 109.125 134.883 108.892L134.883 108.892ZM102.506 114.6C101.074 114.73 99.3571 114.421 97.964 114.594C97.3118 114.675 96.5738 115.103 95.848 115.257C93.4584 115.762 90.6884 115.668 88.2436 115.711C87.7529 116.204 90.1428 122.312 90.6189 123.247C91.4516 124.883 92.6199 126.831 94.3541 127.568C95.8703 122.553 100.363 119.248 102.506 114.6L102.506 114.6ZM114.891 122.783C111.958 120.862 111.051 115.768 107.152 115.356C105.446 122.431 98.9905 127.443 98.0631 134.793L107.695 134.147C110.118 130.426 114.118 127.353 114.892 122.783H114.891ZM81.3914 116.822H78.1501C78.0881 116.822 77.3646 117.298 77.0454 117.385C72.725 118.563 68.4794 118.183 64.1661 119.233C64.0837 119.552 64.2982 119.602 64.4419 119.788C64.9839 120.488 66.1596 121.563 66.8463 122.2C69.1677 124.353 71.7957 126.333 74.7208 127.569C75.016 126.546 76.1258 125.678 76.8342 124.77C78.6792 122.404 80.5167 119.71 81.3914 116.822ZM58.7946 119.786C57.8288 119.552 57.2254 120.248 56.4279 120.477C53.3982 121.346 50.1352 120.852 47.1281 121.83C46.9653 122.06 49.0984 126.23 49.4359 126.831C49.8345 127.541 50.3051 128.362 50.7521 129.035C51.3248 129.897 53.0174 132.202 53.8891 132.568C54.2057 132.701 54.1388 132.435 54.2012 132.332C55.3795 130.39 56.2613 129.059 57.0801 126.873C57.9186 124.634 58.636 122.178 58.7946 119.786ZM79.539 134.237C81.6808 134.424 84.2141 133.991 86.3059 134.232C87.1089 134.325 90.2914 135.538 90.6263 134.29C90.7494 133.832 88.2323 126.525 87.8275 125.484C87.4535 124.522 86.0394 120.873 85.186 120.529C84.8482 120.393 84.8973 120.746 84.8285 120.9C84.1437 122.425 78.872 133.572 79.539 134.237ZM70.0938 134.239C70.3557 132.818 68.7811 132.073 67.9607 131.091C66.1945 128.977 64.8353 126.459 63.5207 124.046L62.522 123.887L59.9044 133.682L70.0938 134.239V134.239Z" fill="white"/>
<path d="M72.6849 81.25C72.308 85.5304 70.2863 89.4132 69.0786 93.4811L68.2262 93.5841C67.889 92.4307 67.9587 91.3431 66.5744 91.0686C66.751 91.8645 65.5201 91.7637 64.9199 92.2863C64.647 92.524 63.8356 93.9627 63.9981 94.1923C64.8279 94.5308 65.4791 95.3312 65.4619 96.2557C62.6202 96.3719 59.6838 97.2634 56.8572 97.3758C55.476 97.4307 53.6921 97.4343 52.6834 96.3442C52.6243 96.0709 54.8136 94.5625 55.1873 94.2233C60.5355 89.3699 65.0068 82.4813 72.6849 81.25Z" fill="white"/>
</g>
<defs>
<clipPath id="clip0_1241_2">
<rect width="256" height="256" fill="white"/>
</clipPath>
</defs>
</svg>
