<?xml version="1.0" encoding="UTF-8"?>
<svg id="Layer_2" data-name="Layer 2" xmlns="http://www.w3.org/2000/svg" viewBox="0 0 288 288">
  <defs>
    <style>
      .cls-1 {
        fill: #231f20;
      }

      .cls-2 {
        fill: #27af9f;
      }
    </style>
  </defs>
  <g id="Layer_1-2" data-name="Layer 1">
    <g>
      <circle class="cls-2" cx="144" cy="144" r="144"/>
      <g>
        <path class="cls-1" d="m265.19,108.12c-2.74-8.32-29.36-7.6-66.56.37.65.92,1.27,1.86,1.87,2.81,18.63-3.44,30.98-3.62,32.26.27,2.41,7.34-35.46,26.39-84.6,42.55-49.14,16.16-90.93,23.31-93.34,15.97-1.16-3.53,7.03-9.78,21.29-17.11-.1-1.17-.16-2.36-.2-3.55-32.02,14.92-51.85,29.18-49.24,37.13,4.06,12.35,60.75,4.8,126.61-16.86,65.86-21.66,115.96-49.24,111.9-61.59Z"/>
        <path class="cls-1" d="m221.57,139.91c-3.68,31.71-30.61,56.33-63.31,56.33-35.21,0-63.75-28.54-63.75-63.75s28.54-63.75,63.75-63.75c3.65,0,7.23.32,10.72.91-8.05-2.65-16.64-4.1-25.58-4.1-45.18,0-81.8,36.62-81.8,81.8s36.62,81.8,81.8,81.8,81.8-36.62,81.8-81.8c0-2.91-.17-5.78-.47-8.61l-3.16,1.17Z"/>
      </g>
    </g>
  </g>
</svg>