<svg width="256" height="256" viewBox="0 0 256 256" fill="none" xmlns="http://www.w3.org/2000/svg">
<g clip-path="url(#clip0_2271_175)">
<path d="M128 256C198.692 256 256 198.692 256 128C256 57.3075 198.692 0 128 0C57.3076 0 0 57.3075 0 128C0 198.692 57.3076 256 128 256Z" fill="#EB0029"/>
<path d="M181.795 70.4581L50 46L119.359 222L216 103.263L181.795 70.4581ZM179.674 81.235L199.834 100.558L144.693 110.628L179.674 81.235ZM132.719 108.614L74.5996 60.0058L169.59 77.6316L132.719 108.614ZM128.577 117.211L119.103 196.219L68.0062 66.5468L128.577 117.211ZM137.349 121.405L198.406 110.253L128.371 196.302L137.349 121.405Z" fill="white"/>
</g>
<defs>
<clipPath id="clip0_2271_175">
<rect width="256" height="256" fill="white"/>
</clipPath>
</defs>
</svg>
