<svg width="256" height="256" viewBox="0 0 256 256" fill="none" xmlns="http://www.w3.org/2000/svg">
<path d="M128.128 240.691C190.295 240.691 240.691 190.295 240.691 128.128C240.691 65.9607 190.295 15.5645 128.128 15.5645C65.9612 15.5645 15.5649 65.9607 15.5649 128.128C15.5649 190.295 65.9612 240.691 128.128 240.691Z" fill="url(#paint0_linear_1783_823)"/>
<path d="M128.128 18.1759C142.976 18.1759 157.389 21.0686 170.931 26.803C184.013 32.3326 195.789 40.2686 205.875 50.3806C215.987 60.4926 223.898 72.243 229.453 85.3246C235.187 98.867 238.08 113.28 238.08 128.128C238.08 142.976 235.187 157.389 229.453 170.931C223.923 184.013 215.987 195.789 205.875 205.875C195.763 215.987 184.013 223.897 170.931 229.453C157.389 235.187 142.976 238.08 128.128 238.08C113.28 238.08 98.8673 235.187 85.3249 229.453C72.2433 223.923 60.4673 215.987 50.3809 205.875C40.2689 195.763 32.3585 184.013 26.8033 170.931C21.0689 157.389 18.1761 142.976 18.1761 128.128C18.1761 113.28 21.0689 98.867 26.8033 85.3246C32.3329 72.243 40.2689 60.467 50.3809 50.3806C60.4929 40.2686 72.2433 32.3582 85.3249 26.803C98.8673 21.0686 113.28 18.1759 128.128 18.1759ZM128.128 2.04785C58.4961 2.04785 2.0481 58.4958 2.0481 128.128C2.0481 197.76 58.4961 254.208 128.128 254.208C197.76 254.208 254.208 197.76 254.208 128.128C254.208 58.4958 197.76 2.04785 128.128 2.04785Z" fill="black"/>
<path d="M140.749 90.1631H115.533V166.272H140.749V90.1631Z" fill="white"/>
<path d="M149.479 210.688H56.0386V185.549H149.479C162.714 185.549 173.927 177.511 173.927 167.988V130.816H199.066V168.013C199.04 191.54 176.794 210.688 149.479 210.688Z" fill="white"/>
<path d="M80.5889 130.176H55.4497V94.4385C55.4497 67.0977 77.6961 44.877 105.011 44.877H199.271V70.0162H105.011C91.5457 70.0162 80.5633 80.9729 80.5633 94.4641V130.176H80.5889Z" fill="white"/>
<defs>
<linearGradient id="paint0_linear_1783_823" x1="128.128" y1="240.699" x2="128.128" y2="15.5562" gradientUnits="userSpaceOnUse">
<stop stop-color="#1B1919"/>
<stop offset="1" stop-color="#38383A"/>
</linearGradient>
</defs>
</svg>
