<svg width="256" height="256" viewBox="0 0 256 256" fill="none" xmlns="http://www.w3.org/2000/svg">
<g clip-path="url(#clip0_2272_186)">
<path d="M128 256C198.692 256 256 198.692 256 128C256 57.3075 198.692 0 128 0C57.3076 0 0 57.3075 0 128C0 198.692 57.3076 256 128 256Z" fill="#1D1D1D"/>
<mask id="mask0_2272_186" style="mask-type:luminance" maskUnits="userSpaceOnUse" x="21" y="22" width="213" height="213">
<path d="M234 22H21V235H234V22Z" fill="white"/>
</mask>
<g mask="url(#mask0_2272_186)">
<path d="M65.463 122.03C65.0136 122.745 64.7637 123.567 64.7395 124.411C64.7154 125.255 64.9174 126.089 65.3253 126.829C65.7328 127.568 66.331 128.184 67.0577 128.614C67.7843 129.044 68.6126 129.271 69.4568 129.272H123.412C123.817 129.27 124.215 129.377 124.564 129.581C124.914 129.785 125.202 130.08 125.399 130.433C125.596 130.787 125.695 131.186 125.685 131.591C125.675 131.996 125.557 132.39 125.343 132.733L72.3855 217.521C72.2538 217.739 72.0791 217.928 71.8725 218.077C71.6656 218.227 71.4309 218.332 71.1821 218.388C70.9332 218.444 70.6758 218.449 70.4252 218.403C70.1742 218.357 69.9356 218.261 69.723 218.12C50.6435 205.794 35.9989 187.698 27.9235 166.467C19.8481 145.236 18.7641 121.982 24.8294 100.092C30.8947 78.2025 43.7922 58.8217 61.6425 44.7748C79.4926 30.7278 101.362 22.7486 124.065 22.0002C124.401 21.9954 124.732 22.0812 125.024 22.2484C125.316 22.4156 125.558 22.6581 125.724 22.9507C125.89 23.2432 125.974 23.575 125.968 23.9113C125.962 24.2476 125.865 24.5761 125.689 24.8624L65.463 122.03ZM187.139 40.225C186.929 40.0793 186.692 39.9781 186.442 39.928C186.191 39.8778 185.933 39.8796 185.684 39.9332C185.434 39.9869 185.198 40.0913 184.99 40.24C184.783 40.3886 184.608 40.5784 184.477 40.7974L132.332 124.333C132.118 124.676 132 125.069 131.989 125.473C131.979 125.876 132.076 126.275 132.272 126.628C132.467 126.981 132.754 127.275 133.102 127.48C133.449 127.686 133.845 127.794 134.249 127.795H188.204C189.048 127.796 189.877 128.023 190.603 128.453C191.33 128.883 191.928 129.499 192.336 130.238C192.744 130.978 192.946 131.812 192.922 132.656C192.897 133.5 192.647 134.322 192.198 135.037L131.2 232.724C131.057 232.954 130.979 233.219 130.976 233.491C130.972 233.762 131.043 234.029 131.18 234.263C131.317 234.497 131.515 234.69 131.753 234.82C131.991 234.95 132.261 235.012 132.531 235C154.882 233.917 176.325 225.828 193.822 211.88C211.32 197.932 223.984 178.831 230.022 157.284C236.06 135.738 235.165 112.838 227.464 91.8281C219.763 70.8185 205.645 52.7649 187.113 40.225H187.139Z" fill="url(#paint0_linear_2272_186)"/>
</g>
</g>
<defs>
<linearGradient id="paint0_linear_2272_186" x1="112.935" y1="65.9582" x2="150.384" y2="226.853" gradientUnits="userSpaceOnUse">
<stop offset="0.18" stop-color="#00FFD5"/>
<stop offset="0.23" stop-color="#00F8D5"/>
<stop offset="0.31" stop-color="#00E4D5"/>
<stop offset="0.4" stop-color="#00C3D5"/>
<stop offset="0.51" stop-color="#0096D5"/>
<stop offset="0.62" stop-color="#005CD5"/>
<stop offset="0.74" stop-color="#0016D5"/>
<stop offset="0.78" stop-color="#0000D5"/>
</linearGradient>
<clipPath id="clip0_2272_186">
<rect width="256" height="256" fill="white"/>
</clipPath>
</defs>
</svg>
