<svg width="256" height="256" viewBox="0 0 256 256" fill="none" xmlns="http://www.w3.org/2000/svg">
<path d="M199.801 48.5864H47.5513V210.269H199.801V48.5864Z" fill="white"/>
<path d="M127.51 2C57.4092 2 1 59 1 128.606C1 198.76 57.4092 255.212 127.51 255.212C197.611 255.212 254.02 198.212 254.02 128.606C254.02 59 197.611 2 127.51 2ZM140.654 194.375C139.011 197.115 137.368 200.404 133.534 200.404C130.248 200.404 127.51 197.115 125.867 194.375L61.2429 75.9904C59.5999 72.7019 57.9569 69.4135 57.4092 65.5769C56.8616 59.5481 60.1475 55.7115 66.1718 55.7115C80.9587 55.7115 95.7456 55.7115 110.532 55.7115C116.557 55.7115 120.938 58.4519 124.224 64.4808C131.344 78.7308 136.273 90.7885 145.583 103.942C167.489 128.606 188.848 103.942 197.611 94.0769L140.654 194.375Z" fill="#9247FF"/>
</svg>
