<svg width="256" height="256" viewBox="0 0 256 256" fill="none" xmlns="http://www.w3.org/2000/svg">
<circle cx="127" cy="128" r="125" fill="white"/>
<g clip-path="url(#clip0_741_46)">
<path d="M127 253C196.036 253 252 197.036 252 128C252 58.9644 196.036 3 127 3C57.9644 3 2 58.9644 2 128C2 197.036 57.9644 253 127 253Z" fill="#3375BB"/>
<path fill-rule="evenodd" clip-rule="evenodd" d="M188.348 66.0715C189.424 66.0731 190.489 66.2882 191.482 66.7044C192.475 67.1207 193.375 67.7297 194.131 68.4964C194.887 69.263 195.483 70.1719 195.885 71.1705C196.287 72.1692 196.486 73.2376 196.473 74.314C196.083 97.6015 195.184 115.414 193.504 129.514C191.866 143.614 189.403 154.089 185.691 162.564C183.191 168.226 180.105 172.914 176.479 176.901C171.591 182.176 166.016 186.004 159.916 189.639C157.311 191.196 154.603 192.735 151.766 194.349C145.704 197.791 139.041 201.578 131.479 206.636C130.145 207.533 128.575 208.013 126.968 208.013C125.36 208.013 123.79 207.533 122.456 206.636C114.781 201.523 108.031 197.686 101.919 194.224C100.559 193.453 99.2288 192.695 97.9288 191.949C90.7788 187.811 84.3413 183.861 78.7163 178.161C74.9663 174.411 71.7238 169.836 69.1413 164.411C65.6288 157.149 63.2413 148.361 61.4913 136.986C59.125 121.775 57.9625 101.888 57.525 74.3127C57.5075 73.2396 57.7024 72.1736 58.0984 71.1761C58.4944 70.1786 59.0837 69.2692 59.8325 68.5002C61.3773 66.957 63.469 66.0864 65.6525 66.0777H69.0125C79.3625 66.1165 102.213 65.1015 121.975 49.7152C123.402 48.614 125.153 48.0166 126.956 48.0166C128.758 48.0166 130.51 48.614 131.936 49.7152C151.699 65.1027 174.549 66.1277 184.949 66.0777M170.186 157.365C172.725 152.131 174.836 144.903 176.436 134.515C178.35 122.09 179.523 105.215 180.074 82.2527C167.886 81.9002 146.949 79.5565 126.986 66.1152C107.025 79.5127 86.0875 81.8502 73.9375 82.2502C74.3675 101.238 75.2263 116 76.5938 127.6C78.1563 140.8 80.3813 149.75 83.1563 156.038C84.9925 160.218 87.0238 163.225 89.4438 165.888C92.6863 169.443 96.7875 172.371 102.369 175.738C104.686 177.125 107.244 178.574 110.019 180.15C114.974 182.954 120.644 186.163 126.969 190.188C133.183 186.225 138.769 183.05 143.669 180.263C145.145 179.423 146.556 178.625 147.905 177.841C154.78 173.896 159.855 170.615 163.643 166.791C166.2 164.163 168.275 161.313 170.188 157.363" fill="white"/>
</g>
<defs>
<clipPath id="clip0_741_46">
<rect width="250" height="250" fill="white" transform="translate(2 3)"/>
</clipPath>
</defs>
</svg>
