<svg width="184" height="184" viewBox="0 0 184 184" fill="none" xmlns="http://www.w3.org/2000/svg">
<circle cx="92" cy="92" r="92" fill="white"/>
<path fill-rule="evenodd" clip-rule="evenodd" d="M107.914 43.2811C91.2139 50.7811 72.1139 65.9811 64.0139 74.3811C63.7139 74.6811 63.4139 74.9811 63.1139 75.2811C53.1139 85.2811 54.6139 102.981 66.3139 116.081H66.1139C47.6139 116.081 32.4139 122.081 30.4139 129.681C29.8139 131.481 30.0139 136.381 30.1139 138.981C30.1139 139.681 30.2139 140.181 30.2139 140.381C30.2139 147.381 46.5139 154.781 66.2139 154.781C85.9139 154.781 101.814 148.481 101.814 140.681C101.814 140.481 101.814 140.081 101.814 139.481C101.814 137.781 101.914 134.781 101.914 132.681C102.114 131.581 102.014 130.481 101.714 129.381C105.714 128.481 109.414 126.581 112.414 123.781L112.214 123.981C111.514 124.681 110.714 125.381 109.914 125.981C114.914 123.381 118.614 117.881 123.314 110.781C138.014 85.5811 152.014 59.3811 154.614 41.1811C156.414 28.2811 151.114 28.6811 138.114 31.8811C131.614 33.2811 113.414 40.8811 107.914 43.2811ZM100.414 126.981C96.4139 121.281 84.9139 116.981 70.8139 116.181C70.4139 116.181 70.1139 116.181 69.7139 116.081C57.1139 103.381 55.6139 86.0811 64.8139 76.9811C74.2139 67.6811 92.3139 69.0811 105.514 81.7811C118.614 94.4811 120.314 112.181 110.914 121.481C108.114 124.381 104.514 126.181 100.414 126.981ZM132.814 66.2811C132.814 63.0811 127.214 52.3811 123.114 50.3811C116.614 47.1811 116.614 50.381 123.114 56.681C125.814 59.381 128.014 62.0811 129.614 63.9811C131.814 66.6811 132.814 68.0811 132.814 66.2811ZM126.814 90.4811C127.414 88.4811 126.014 80.681 123.814 78.681C120.314 75.481 119.714 77.481 122.614 82.681C123.814 84.881 124.614 86.9811 125.214 88.4811C126.014 90.5811 126.414 91.5811 126.814 90.4811ZM97.3139 135.581C98.8139 134.081 99.4139 132.681 99.4139 131.381C99.4139 130.081 98.8139 128.681 97.3139 127.181C95.8139 125.681 93.5139 124.181 90.4139 122.881C84.3139 120.281 75.7139 118.581 66.0139 118.581C56.3139 118.581 47.7139 120.281 41.6139 122.881C38.5139 124.181 36.2139 125.681 34.7139 127.181C33.2139 128.681 32.6139 130.081 32.6139 131.381C32.6139 132.681 33.2139 134.081 34.7139 135.581C36.2139 137.081 38.5139 138.581 41.6139 139.881C47.7139 142.481 56.3139 144.181 66.0139 144.181C75.7139 144.181 84.3139 142.481 90.4139 139.881C93.5139 138.681 95.8139 137.181 97.3139 135.581Z" fill="white"/>
<path fill-rule="evenodd" clip-rule="evenodd" d="M107.914 43.2811C91.2139 50.7811 72.1139 65.9811 64.0139 74.3811C63.7139 74.6811 63.4139 74.9811 63.1139 75.2811C53.1139 85.2811 54.6139 102.981 66.3139 116.081H66.1139C47.6139 116.081 32.4139 122.081 30.4139 129.681C29.8139 131.481 30.0139 136.381 30.1139 138.981C30.1139 139.681 30.2139 140.181 30.2139 140.381C30.2139 147.381 46.5139 154.781 66.2139 154.781C85.9139 154.781 101.814 148.481 101.814 140.681C101.814 140.481 101.814 140.081 101.814 139.481C101.814 137.781 101.914 134.781 101.914 132.681C102.114 131.581 102.014 130.481 101.714 129.381C105.714 128.481 109.414 126.581 112.414 123.781L112.214 123.981C111.514 124.681 110.714 125.381 109.914 125.981C114.914 123.381 118.614 117.881 123.314 110.781C138.014 85.5811 152.014 59.3811 154.614 41.1811C156.414 28.2811 151.114 28.6811 138.114 31.8811C131.614 33.2811 113.414 40.8811 107.914 43.2811ZM100.814 127.581C97.0139 121.381 84.3139 116.581 68.9139 116.081C56.6139 103.281 55.1139 85.8811 64.5139 76.5811C74.2139 66.9811 92.8139 68.5811 106.014 81.3811C119.314 94.2811 121.114 112.381 111.514 121.981C108.514 124.781 104.914 126.681 100.814 127.581ZM132.814 66.2811C132.814 63.0811 127.214 52.3811 123.114 50.3811C116.614 47.1811 116.614 50.381 123.114 56.681C125.814 59.381 128.014 62.0811 129.614 63.9811C131.814 66.6811 132.814 68.0811 132.814 66.2811ZM126.814 90.4811C127.414 88.4811 126.014 80.681 123.814 78.681C120.314 75.481 119.714 77.481 122.614 82.681C123.814 84.881 124.614 86.9811 125.214 88.4811C126.014 90.5811 126.414 91.5811 126.814 90.4811ZM97.8139 136.081C99.4139 134.481 100.114 132.881 100.114 131.381C100.114 129.881 99.4139 128.281 97.8139 126.681C96.2139 125.081 93.8139 123.581 90.7139 122.181C84.5139 119.481 75.8139 117.881 66.0139 117.881C56.3139 117.881 47.6139 119.581 41.3139 122.181C38.2139 123.481 35.8139 125.081 34.2139 126.681C32.6139 128.281 31.9139 129.881 31.9139 131.381C31.9139 132.881 32.6139 134.481 34.2139 136.081C35.8139 137.681 38.2139 139.181 41.3139 140.581C47.5139 143.281 56.2139 144.881 66.0139 144.881C75.8139 144.881 84.4139 143.181 90.7139 140.581C93.8139 139.181 96.2139 137.681 97.8139 136.081Z" fill="#8878C3"/>
<path d="M123.114 50.3811C127.214 52.3811 132.814 63.0811 132.814 66.2811C132.814 69.4811 129.614 63.0811 123.114 56.7811C116.714 50.3811 116.714 47.1811 123.114 50.3811ZM123.814 78.6811C126.014 80.6811 127.414 88.4811 126.814 90.4811C126.214 92.4811 125.414 87.8811 122.614 82.6811C119.714 77.4811 120.314 75.4811 123.814 78.6811Z" fill="#6D619A"/>
<path d="M111.914 122.381C101.914 132.381 82.9138 130.581 69.5138 117.581C56.1138 104.581 54.0138 86.081 64.0138 76.081C74.0138 66.081 93.0138 67.881 106.414 80.881C119.814 93.881 121.914 112.481 111.914 122.381Z" fill="#BFB7DE" stroke="#6D619A" stroke-width="2.4964"/>
<path d="M100.714 131.381C100.714 133.081 99.914 134.781 98.214 136.481C96.514 138.181 94.114 139.781 90.914 141.081C84.614 143.781 75.814 145.481 66.014 145.481C56.214 145.481 47.414 143.781 41.114 141.081C37.914 139.681 35.514 138.181 33.814 136.481C32.114 134.781 31.314 133.081 31.314 131.381C31.314 129.681 32.114 127.981 33.814 126.281C35.514 124.581 37.914 122.981 41.114 121.681C47.414 118.981 56.214 117.281 66.014 117.281C75.814 117.281 84.614 118.981 90.914 121.681C94.114 123.081 96.514 124.581 98.214 126.281C99.914 127.981 100.714 129.681 100.714 131.381Z" fill="#E3DFF3" stroke="#6D619A" stroke-width="2.4964"/>
</svg>
