<svg width="256" height="256" viewBox="0 0 256 256" fill="none" xmlns="http://www.w3.org/2000/svg">
<g clip-path="url(#clip0_1381_475)">
<path d="M128 256C198.692 256 256 198.692 256 128C256 57.3075 198.692 0 128 0C57.3075 0 0 57.3075 0 128C0 198.692 57.3075 256 128 256Z" fill="white"/>
<path d="M128 227.857C215 178.143 215 178.143 215 53.8571C177.714 53.8571 165.286 53.8571 128 29M128 227.857C41 178.143 41 178.143 41 53.8571C78.2857 53.8571 90.7143 53.8571 128 29" fill="#800000" stroke="white" stroke-linecap="round" stroke-linejoin="round"/>
<path d="M146.643 147.07C160.371 147.07 171.5 135.941 171.5 122.213C171.5 108.484 160.371 97.3555 146.643 97.3555C132.915 97.3555 121.786 108.484 121.786 122.213C121.786 135.941 132.915 147.07 146.643 147.07Z" stroke="white" stroke-width="8"/>
<path d="M128 128.428C128 145.518 120.232 153.285 103.143 153.285C86.0536 153.285 78.2858 145.518 78.2858 128.428V91.1426H90.7143V128.428C90.7143 139.303 92.2679 140.857 103.143 140.857C114.018 140.857 115.571 139.303 115.571 128.428V91.1426H128V128.428Z" fill="white"/>
</g>
<defs>
<clipPath id="clip0_1381_475">
<rect width="256" height="256" fill="white"/>
</clipPath>
</defs>
</svg>
