<svg width="256" height="256" viewBox="0 0 256 256" fill="none" xmlns="http://www.w3.org/2000/svg">
<g clip-path="url(#clip0_2467_405)">
<path d="M128 256C198.692 256 256 198.692 256 128C256 57.3076 198.692 0 128 0C57.3076 0 0 57.3076 0 128C0 198.692 57.3076 256 128 256Z" fill="#454EEC"/>
<path fill-rule="evenodd" clip-rule="evenodd" d="M234.724 153.68C233.717 158.449 229.505 162.025 224.651 162.209C219.798 162.392 215.678 159.458 214.03 155.331C212.748 152.029 210 149.461 206.704 148.085L192.603 141.94C189.581 140.657 186.194 140.84 183.172 142.032C181.799 142.582 180.242 142.949 178.685 142.857C176.305 142.766 174.199 141.849 172.459 140.565L141.784 152.854C139.861 153.588 138.305 155.147 137.389 157.073C136.657 158.907 135.375 160.466 133.726 161.567C131.529 163.126 130.064 165.602 130.064 168.262V185.137C130.064 187.797 131.437 190.181 133.635 191.649C136.29 193.575 138.122 196.785 138.122 200.362C138.122 206.231 133.36 211 127.5 211C121.64 211 116.878 206.231 116.878 200.362C116.878 196.785 118.71 193.575 121.365 191.649C123.563 190.181 124.936 187.797 124.936 185.137V168.262C124.936 165.602 123.471 163.126 121.273 161.567C119.625 160.466 118.343 158.907 117.611 157.073C116.695 155.147 115.138 153.588 113.216 152.854L82.541 140.565C80.8013 141.849 78.6953 142.766 76.3146 142.857C74.758 142.949 73.2013 142.582 71.8278 142.032C68.8063 140.84 65.4183 140.657 62.3965 141.94L48.2954 148.085C44.999 149.461 42.2521 152.029 40.9702 155.331C39.3219 159.458 35.2015 162.392 30.3485 162.209C25.4955 162.025 21.2835 158.449 20.2763 153.68C19.269 149.277 21.1004 144.967 24.3967 142.582C27.2353 140.473 29.3413 137.538 29.9823 134.053C32.4545 120.846 37.6738 108.282 45.1822 97.1846C47.6545 93.4243 48.4786 89.0221 47.8377 84.5283C47.6545 83.2442 47.7156 81.8991 48.0207 80.4929C49.1195 75.9989 53.0568 72.5138 57.7267 72.147C58.8866 72.0858 59.9854 72.1775 61.0231 72.4221C64.6857 73.2476 68.4398 72.6972 71.4616 70.5878C83.3651 62.4255 96.7337 57.0144 110.926 54.6298C113.948 54.1713 116.695 52.5205 118.343 49.9525C120.358 46.926 123.654 45 127.5 45C131.346 45 134.642 46.926 136.657 49.9525C138.305 52.5205 141.052 54.1713 144.073 54.6298C158.266 57.0144 171.635 62.4255 183.538 70.5878C186.56 72.6972 190.314 73.2476 193.977 72.4221C195.014 72.1775 196.114 72.0858 197.273 72.147C201.943 72.5138 205.879 75.9989 206.98 80.4929C207.285 81.8991 207.345 83.2442 207.162 84.5283C206.522 89.0221 207.345 93.4243 209.818 97.1846C217.325 108.282 222.545 120.846 225.018 134.053C225.658 137.538 227.764 140.473 230.604 142.582C233.9 144.967 235.73 149.277 234.724 153.68ZM91.8808 123.69L114.955 113.876C115.871 113.418 116.512 112.592 116.512 111.584L116.604 111.492C116.604 110.3 115.963 109.199 114.864 108.74L72.5604 90.5813C70.1797 89.5725 67.4326 89.9393 65.4183 91.4983C64.5941 92.232 63.4953 92.8741 62.3965 93.241C61.603 93.4856 60.8094 93.6689 60.0159 93.7912C55.7123 94.2498 51.8664 96.5425 49.3942 100.211C42.069 111.033 37.1244 123.231 34.9268 136.163C34.469 138.639 35.4762 141.207 37.4906 142.766C37.5517 142.766 37.6127 142.796 37.6738 142.857C39.6882 144.508 42.2521 144.967 44.6327 143.958C47.6545 142.674 51.8664 140.84 55.7123 139.189C60.3821 137.171 63.8616 133.319 65.6013 128.55C65.6624 128.306 65.754 128.061 65.8761 127.817C67.4326 123.873 71.0037 121.122 75.2158 121.03C77.8711 121.03 80.0687 121.764 81.9001 122.956C84.8302 124.882 88.6761 125.065 91.8808 123.69ZM124.936 126.074C124.936 124.423 123.929 122.956 122.464 122.222C121.487 121.672 120.602 120.999 119.808 120.204C118.618 119.012 116.695 118.737 115.138 119.379L88.7675 130.751C87.5773 131.21 86.8447 132.219 86.6615 133.503L86.5699 133.595C86.3869 135.245 87.3024 136.804 88.8591 137.446L113.307 147.26C115.413 148.085 117.702 147.443 119.167 145.701C119.992 144.692 120.999 143.866 122.189 143.224C123.837 142.216 124.936 140.565 124.936 138.639V126.074ZM124.936 76.7326C124.936 71.8719 123.105 67.1946 119.717 63.7094C119.717 63.7094 119.717 63.6788 119.717 63.6178C117.061 60.8663 113.216 59.4906 109.461 60.2243C95.3603 62.9757 82.1747 68.8453 70.729 77.558C69.6302 78.3835 69.0809 79.8509 69.3556 81.3183C69.3556 81.3794 69.3556 81.4711 69.3556 81.5934C69.5386 82.8773 70.4544 84.0697 71.6448 84.5283C79.7941 88.105 108.729 100.486 117.244 104.063C118.618 104.705 120.175 104.43 121.365 103.604C121.792 103.299 122.25 103.054 122.738 102.871C124.112 102.137 124.936 100.67 124.936 99.1105V76.7326ZM130.064 99.2022C130.064 100.761 130.888 102.229 132.261 102.871C132.75 103.115 133.208 103.39 133.635 103.696C134.825 104.522 136.382 104.797 137.755 104.155C146.271 100.578 175.206 88.1968 183.356 84.6199C184.546 84.0697 185.462 82.9691 185.644 81.5934C185.644 81.5322 185.644 81.4712 185.644 81.4099C185.918 79.9425 185.369 78.4751 184.27 77.6498C172.825 68.9371 159.64 63.0674 145.538 60.316C141.784 59.5823 137.938 60.8663 135.283 63.7094C135.283 63.7094 135.283 63.7401 135.283 63.8011C131.895 67.2861 130.064 71.9635 130.064 76.7326V99.2022ZM168.43 133.686L168.338 133.595C168.155 132.311 167.423 131.302 166.232 130.843L139.861 119.471C138.305 118.829 136.382 119.104 135.191 120.296C134.398 121.091 133.513 121.764 132.536 122.314C131.071 123.048 130.064 124.515 130.064 126.166V138.73C130.064 140.657 131.163 142.399 132.811 143.316C134.001 143.958 135.008 144.784 135.832 145.792C137.297 147.535 139.587 148.177 141.693 147.351L166.141 137.538C167.697 136.988 168.613 135.337 168.43 133.686ZM220.074 136.254C217.875 123.414 212.931 111.125 205.606 100.303C203.133 96.6343 199.288 94.3416 194.984 93.8829C194.191 93.8217 193.397 93.6384 192.603 93.3326C191.504 92.9657 190.406 92.3238 189.581 91.5901C187.568 90.0311 184.82 89.6642 182.439 90.673L140.136 108.832C139.037 109.291 138.396 110.391 138.396 111.584L138.488 111.675C138.488 112.684 139.129 113.51 140.044 113.968L163.119 123.781C166.324 125.249 170.17 124.974 173.1 123.048C174.931 121.855 177.129 121.122 179.784 121.213C183.996 121.213 187.568 124.056 189.125 127.908C189.245 128.153 189.338 128.398 189.398 128.642C191.138 133.411 194.618 137.355 199.288 139.281C203.133 140.932 207.345 142.766 210.367 144.05C212.748 145.059 215.311 144.6 217.325 143.041C217.387 142.98 217.448 142.919 217.51 142.857C219.524 141.298 220.53 138.731 220.074 136.254Z" fill="white"/>
</g>
<defs>
<clipPath id="clip0_2467_405">
<rect width="256" height="256" fill="white"/>
</clipPath>
</defs>
</svg>
