<svg width="256" height="256" viewBox="0 0 256 256" fill="none" xmlns="http://www.w3.org/2000/svg">
<g clip-path="url(#clip0_2275_310)">
<path d="M128 256C198.692 256 256 198.692 256 128C256 57.3075 198.692 0 128 0C57.3076 0 0 57.3075 0 128C0 198.692 57.3076 256 128 256Z" fill="black"/>
<path d="M135.161 205.291H110.573H85.9854L51.458 170.764V146.176V121.589L86.2469 86.7998H110.835H135.422L170.211 121.589V146.176V170.764L135.161 205.291ZM110.573 190.643H129.145L155.563 164.486V146.176V127.605L129.406 101.186H110.835H92.2631L65.8444 127.605V146.176V164.748L92.0015 190.905H110.573V190.643Z" fill="white"/>
<path d="M169.95 170.241H145.362H120.774L86.2471 135.452V110.864V86.2767L121.036 51.4878H145.624H170.211L205 86.2767V110.864V135.452L169.95 170.241ZM145.624 155.593H164.195L190.352 129.436V110.864V92.2929L164.195 65.8742H145.624H127.052L100.633 92.0313V110.603V129.174L126.791 155.331L145.624 155.593Z" fill="#38F997"/>
</g>
<defs>
<clipPath id="clip0_2275_310">
<rect width="256" height="256" fill="white"/>
</clipPath>
</defs>
</svg>
