<svg width="256" height="256" viewBox="0 0 256 256" fill="none" xmlns="http://www.w3.org/2000/svg">
<mask id="mask0_1858_2490" style="mask-type:luminance" maskUnits="userSpaceOnUse" x="0" y="0" width="256" height="256">
<path d="M128.012 118.925C128.7 118.925 129.422 118.96 130.11 119.038C130.327 119.064 130.553 119.09 130.771 119.125C130.901 119.134 131.015 119.16 131.136 119.186C131.223 119.212 131.319 119.212 131.406 119.221C131.484 119.229 131.554 119.229 131.632 119.256C131.963 119.308 132.302 119.369 132.651 119.456C132.825 119.482 132.99 119.534 133.155 119.586C133.216 119.595 133.268 119.612 133.329 119.621C133.582 119.682 133.851 119.751 134.112 119.847C134.278 119.899 134.443 119.952 134.608 120.013C134.695 120.047 134.774 120.073 134.861 120.117C134.87 120.117 134.896 120.117 134.913 120.134C134.922 120.117 134.939 120.117 134.948 120.134C134.983 120.134 135.009 120.143 135.052 120.16C135.357 120.274 135.696 120.387 136.001 120.543C136.384 120.7 136.723 120.848 137.106 121.039C137.254 121.118 137.393 121.196 137.585 121.309C137.663 121.344 137.776 121.387 137.854 121.457C137.88 121.457 137.906 121.474 137.915 121.483C138.002 121.509 138.081 121.544 138.141 121.613C138.168 121.64 138.202 121.666 138.228 121.692C138.307 121.727 138.376 121.77 138.455 121.805C138.516 121.84 138.594 121.883 138.646 121.918C138.707 121.944 138.759 121.979 138.811 122.022C139.003 122.109 139.168 122.223 139.334 122.336C139.386 122.37 139.438 122.414 139.49 122.449C140.056 122.832 140.552 123.206 141.083 123.623C141.352 123.85 141.579 124.041 141.848 124.267L142.536 124.955C142.536 124.955 142.623 125.033 142.666 125.068C142.823 125.198 142.945 125.338 143.075 125.485C143.128 125.546 143.18 125.616 143.232 125.677C143.336 125.781 143.423 125.868 143.511 125.973C143.624 126.103 143.737 126.225 143.841 126.356C143.902 126.434 143.972 126.521 144.033 126.599C144.111 126.704 144.172 126.773 144.233 126.869C144.294 126.956 144.346 127.034 144.407 127.139H144.45C144.45 127.139 144.485 127.191 144.503 127.217C144.72 127.495 144.894 127.739 145.103 128.017C145.442 128.592 145.79 129.105 146.13 129.714C146.295 130.019 146.434 130.28 146.565 130.602C146.591 130.654 146.617 130.689 146.626 130.741C146.765 130.958 146.878 131.193 146.939 131.437C146.939 131.463 146.956 131.472 146.956 131.498C146.983 131.55 147.009 131.611 147.035 131.663C147.139 131.881 147.209 132.089 147.287 132.324C147.313 132.359 147.322 132.411 147.339 132.446C147.4 132.603 147.452 132.751 147.505 132.907C147.566 133.073 147.635 133.221 147.679 133.403C147.714 133.56 147.766 133.717 147.809 133.882C147.861 134.047 147.914 134.212 147.948 134.387C148.027 134.691 148.105 135.03 148.175 135.378C148.175 135.396 148.192 135.422 148.192 135.431C148.253 135.683 148.297 135.935 148.331 136.214C148.366 136.292 148.366 136.405 148.366 136.483V136.527C148.401 136.657 148.427 136.805 148.427 136.945C148.436 136.997 148.436 137.049 148.436 137.101C148.462 137.162 148.462 137.206 148.462 137.258C148.479 137.31 148.479 137.345 148.479 137.414C148.479 137.484 148.505 137.571 148.505 137.632C148.523 137.641 148.523 137.667 148.523 137.684C148.549 137.815 148.549 137.954 148.549 138.093C148.566 138.119 148.566 138.145 148.549 138.171C148.566 138.276 148.566 138.389 148.566 138.493C148.584 138.659 148.592 138.824 148.592 138.989C148.61 139.155 148.61 139.329 148.61 139.511V139.555C148.61 139.685 148.61 139.825 148.592 139.964C148.592 140.094 148.584 140.216 148.566 140.355V140.886C148.566 140.999 148.566 141.112 148.532 141.225C148.532 141.286 148.532 141.356 148.514 141.417C148.514 141.469 148.505 141.521 148.488 141.574C148.488 141.634 148.488 141.704 148.471 141.765C148.471 141.991 148.436 142.209 148.41 142.452C148.41 142.478 148.392 142.478 148.392 142.487C148.384 142.487 148.384 142.496 148.384 142.496C148.366 142.496 148.366 142.513 148.366 142.522V142.557C148.34 142.661 148.331 142.774 148.314 142.87C148.262 143.174 148.227 143.488 148.14 143.81C148.088 144.079 148.027 144.34 147.966 144.61C147.905 144.88 147.835 145.141 147.766 145.411C147.679 145.715 147.566 146.002 147.461 146.307C147.348 146.611 147.235 146.899 147.122 147.194C147.087 147.307 147.043 147.412 146.983 147.508C146.809 148.004 146.574 148.456 146.339 148.926C146.304 149.004 146.26 149.082 146.226 149.152C146.112 149.37 145.999 149.57 145.886 149.761C145.834 149.874 145.773 149.987 145.695 150.1C145.66 150.179 145.616 150.214 145.582 150.292C145.538 150.327 145.521 150.379 145.495 150.422C145.46 150.475 145.434 150.518 145.39 150.562C145.355 150.64 145.303 150.718 145.251 150.779C145.199 150.84 145.164 150.892 145.12 150.944C145.033 151.084 144.938 151.223 144.851 151.362C144.755 151.519 144.633 151.675 144.511 151.815C144.45 151.919 144.372 152.032 144.294 152.119C144.154 152.311 144.015 152.476 143.867 152.65C143.815 152.711 143.754 152.78 143.702 152.841C143.528 153.041 143.363 153.25 143.18 153.45C143.136 153.485 143.119 153.511 143.075 153.555C142.849 153.781 142.64 154.007 142.414 154.216C142.301 154.329 142.17 154.46 142.031 154.581C141.944 154.668 141.857 154.747 141.761 154.825C141.761 154.843 141.761 154.851 141.744 154.851V154.869C141.744 154.869 141.718 154.895 141.718 154.903C141.544 155.043 141.387 155.173 141.222 155.295C141.057 155.434 140.9 155.573 140.726 155.704C140.665 155.756 140.595 155.808 140.534 155.843C140.421 155.93 140.308 156.017 140.195 156.095C139.812 156.383 139.438 156.652 139.029 156.896L138.942 156.957C138.942 156.957 138.89 156.983 138.864 157.009C138.664 157.14 138.455 157.253 138.255 157.374C138.228 157.392 138.202 157.401 138.176 157.409C137.906 157.566 137.645 157.714 137.393 157.827C137.254 157.905 137.123 157.966 137.001 158.027C136.862 158.105 136.723 158.158 136.592 158.227C136.436 158.288 136.288 158.358 136.14 158.419C136.062 158.453 135.983 158.48 135.914 158.523C135.722 158.584 135.531 158.654 135.348 158.723C135.348 158.723 135.322 158.749 135.296 158.775C135.296 158.775 135.287 158.784 135.27 158.801C135.157 158.836 135.044 158.862 134.93 158.906C134.661 158.984 134.4 159.071 134.147 159.176C134.13 159.176 134.112 159.176 134.095 159.193C133.869 159.271 133.643 159.306 133.408 159.384C133.355 159.411 133.294 159.419 133.234 159.437C133.173 159.463 133.103 159.489 133.033 159.498C133.007 159.498 132.981 159.515 132.955 159.515C132.929 159.532 132.903 159.541 132.877 159.541C132.842 159.541 132.798 159.541 132.764 159.585C132.711 159.585 132.659 159.593 132.624 159.593C132.572 159.611 132.537 159.619 132.494 159.619C132.302 159.654 132.076 159.698 131.85 159.732C131.798 159.741 131.746 159.759 131.693 159.767C131.667 159.776 131.641 159.776 131.615 159.776C131.554 159.793 131.484 159.802 131.424 159.802C131.389 159.802 131.319 159.802 131.284 159.846H131.276C131.006 159.88 130.78 159.924 130.51 159.959H130.475C130.17 159.959 129.866 160.002 129.527 160.037C129.031 160.072 128.552 160.115 128.056 160.115H128.039C127.682 160.115 127.325 160.107 126.977 160.089C126.289 160.054 125.593 159.976 124.923 159.872C124.584 159.819 124.236 159.759 123.914 159.698H123.905C123.218 159.541 122.565 159.367 121.93 159.176C121.268 158.975 120.651 158.749 120.041 158.48C119.737 158.366 119.432 158.227 119.128 158.071C118.936 157.975 118.745 157.879 118.553 157.783C118.362 157.679 118.171 157.583 117.997 157.47C117.805 157.366 117.614 157.27 117.431 157.148C117.239 157.035 117.048 156.905 116.857 156.783C116.752 156.731 116.656 156.67 116.561 156.591C116.535 156.565 116.508 156.557 116.474 156.53C116.421 156.504 116.378 156.47 116.326 156.443C116.326 156.443 116.3 156.429 116.247 156.4C116.134 156.313 116.021 156.226 115.908 156.13C115.83 156.069 115.76 156 115.682 155.939C115.551 155.852 115.429 155.765 115.299 155.66C115.107 155.504 114.916 155.338 114.725 155.173C114.498 154.982 114.307 154.834 114.115 154.642C114.107 154.634 114.081 154.616 114.063 154.608C113.863 154.434 113.68 154.251 113.506 154.077C112.34 152.911 111.322 151.614 110.461 150.196C109.773 149.065 109.208 147.864 108.738 146.611C107.937 144.401 107.511 142.026 107.511 139.52C107.511 137.554 107.789 135.657 108.311 133.838C108.668 132.585 109.147 131.367 109.747 130.21C109.808 130.106 109.86 130.01 109.912 129.906C110.052 129.653 110.182 129.41 110.33 129.157C110.417 129.001 110.513 128.861 110.609 128.713C110.626 128.679 110.652 128.635 110.687 128.6C110.8 128.4 110.931 128.183 111.096 127.983C111.2 127.817 111.313 127.652 111.427 127.495C111.531 127.356 111.627 127.217 111.731 127.086C111.836 126.956 111.931 126.834 112.036 126.721V126.686C112.253 126.416 112.462 126.164 112.68 125.938C112.767 125.842 112.854 125.746 112.949 125.659C113.01 125.581 113.063 125.503 113.141 125.442C113.141 125.416 113.167 125.407 113.176 125.39C113.376 125.163 113.585 124.963 113.802 124.755C113.837 124.728 113.863 124.694 113.898 124.668C114.011 124.554 114.124 124.45 114.237 124.354C114.316 124.293 114.394 124.241 114.464 124.18C114.594 124.05 114.716 123.937 114.846 123.824C114.899 123.771 114.96 123.71 115.02 123.667C115.351 123.38 115.682 123.127 116.021 122.884C116.134 122.797 116.247 122.71 116.387 122.64C116.421 122.614 116.465 122.588 116.517 122.579C116.63 122.492 116.735 122.414 116.848 122.327C116.865 122.336 116.865 122.327 116.874 122.31C116.987 122.231 117.1 122.17 117.213 122.092C117.326 122.014 117.457 121.935 117.579 121.866C117.692 121.805 117.822 121.727 117.962 121.666C117.997 121.64 118.04 121.613 118.066 121.587C118.171 121.509 118.258 121.448 118.371 121.396C118.475 121.344 118.571 121.292 118.675 121.257C118.727 121.231 118.78 121.222 118.832 121.205C119.163 121.031 119.493 120.874 119.833 120.726C120.007 120.648 120.172 120.569 120.355 120.5C120.546 120.421 120.72 120.352 120.912 120.282C121.086 120.221 121.268 120.152 121.442 120.091C121.617 120.03 121.808 119.96 121.991 119.917C122.069 119.891 122.147 119.856 122.217 119.83C122.347 119.795 122.487 119.751 122.6 119.725C122.73 119.691 122.87 119.647 122.991 119.621C123.235 119.543 123.461 119.49 123.705 119.456C123.931 119.403 124.175 119.351 124.401 119.316C124.575 119.29 124.74 119.264 124.923 119.238C124.958 119.238 124.984 119.221 125.01 119.212C125.08 119.203 125.158 119.195 125.228 119.186C125.254 119.186 125.271 119.186 125.297 119.195C125.75 119.116 126.211 119.055 126.664 119.029C126.751 119.012 126.829 119.003 126.916 119.012C127.299 118.977 127.673 118.96 128.056 118.96M0.538086 116.402V116.419L20.6482 98.2427L63.0178 59.941H102.525V143.114C102.525 150.135 105.379 156.522 110.008 161.116C114.611 165.754 120.99 168.599 128.012 168.599C129.152 168.599 130.284 168.52 131.397 168.381C132.007 168.294 132.598 168.19 133.199 168.077C133.695 167.972 134.191 167.859 134.669 167.737C139.073 166.554 142.997 164.196 146.121 161.046C147.566 159.585 148.836 157.949 149.889 156.191C150.246 155.608 150.576 155.008 150.872 154.39C151.072 153.981 151.264 153.581 151.429 153.163C152.769 150.083 153.509 146.69 153.509 143.122V59.9497H192.981V143.122C192.981 143.592 192.981 144.045 192.955 144.506C192.955 144.932 192.946 145.367 192.92 145.785V145.898C192.842 147.682 192.702 149.457 192.476 151.214C192.45 151.327 192.441 151.432 192.441 151.527C192.241 153.189 191.954 154.834 191.606 156.443C190.979 159.463 190.144 162.386 189.109 165.231C188.534 166.859 187.882 168.451 187.159 170.008C186.994 170.4 186.803 170.791 186.611 171.174C185.697 173.106 184.671 174.977 183.557 176.804C183.357 177.16 183.122 177.526 182.887 177.883C182.669 178.239 182.443 178.605 182.191 178.962C181.747 179.649 181.277 180.319 180.798 180.98C180.528 181.346 180.267 181.72 179.989 182.085C179.484 182.773 178.962 183.425 178.423 184.086C177.918 184.722 177.396 185.339 176.848 185.948C176.761 186.053 176.682 186.14 176.595 186.236C176.125 186.758 175.655 187.28 175.159 187.784C175.098 187.871 175.003 187.95 174.916 188.037C174.55 188.428 174.167 188.811 173.776 189.194C173.619 189.359 173.463 189.525 173.28 189.69C172.671 190.273 172.053 190.856 171.426 191.43C171.391 191.482 171.339 191.517 171.287 191.543C170.704 192.091 170.104 192.605 169.512 193.118C168.868 193.649 168.189 194.18 167.519 194.693C167.502 194.702 167.493 194.702 167.493 194.719C166.823 195.224 166.153 195.737 165.448 196.216C164.952 196.555 164.456 196.903 163.951 197.234C163.664 197.434 163.368 197.625 163.09 197.799C162.646 198.104 162.185 198.382 161.732 198.652C161.28 198.93 160.819 199.2 160.349 199.461C159.374 200.044 158.373 200.575 157.355 201.088C156.938 201.306 156.52 201.506 156.102 201.706C155.624 201.95 155.136 202.176 154.649 202.393C154.283 202.559 153.901 202.724 153.535 202.889C152.369 203.394 151.177 203.864 149.976 204.281C149.619 204.421 149.254 204.551 148.897 204.664C148.627 204.769 148.366 204.856 148.096 204.934C147.766 205.047 147.426 205.152 147.096 205.247L147.078 205.265C147.078 205.265 147.026 205.282 147 205.291L146.8 205.369L97.9125 225.059L63.8619 238.781H63.8358C64.9757 239.451 66.1331 240.086 67.2818 240.704C70.7538 242.583 74.3303 244.297 77.9677 245.855C93.344 252.398 110.252 256 128.021 256C198.715 256 256 198.722 256 128.044C256 57.3655 198.707 0 128.012 0C61.2252 0 6.39447 51.1443 0.538086 116.402Z" fill="white"/>
</mask>
<g mask="url(#mask0_1858_2490)">
<path d="M255.991 0H0.538086V255.957H255.991V0Z" fill="url(#paint0_linear_1858_2490)"/>
</g>
<path d="M192.538 59.9502V143.123C192.538 172.315 173.236 197.078 146.745 205.248C140.728 207.092 134.338 208.093 127.713 208.093C91.9747 208.093 62.8877 178.953 62.8877 143.123V59.9502H102.281V143.123C102.281 157.184 113.699 168.617 127.713 168.617C128.286 168.617 128.859 168.599 129.423 168.547C129.935 168.521 130.439 168.477 130.934 168.399C130.995 168.399 131.047 168.39 131.108 168.382C131.142 168.373 131.168 168.373 131.203 168.364C131.472 168.338 131.741 168.295 132.002 168.242C132.306 168.19 132.601 168.138 132.896 168.077C133.139 168.025 133.391 167.973 133.634 167.921C133.877 167.86 134.12 167.799 134.364 167.729C135.041 167.546 135.701 167.338 136.361 167.103C137.333 166.746 138.288 166.328 139.209 165.867C141.041 164.927 142.751 163.77 144.297 162.439C144.809 161.995 145.304 161.525 145.79 161.038C146.033 160.794 146.268 160.551 146.493 160.299C146.719 160.046 146.945 159.794 147.162 159.533C147.318 159.35 147.466 159.167 147.613 158.985C147.787 158.767 147.961 158.55 148.117 158.323C148.421 157.914 148.716 157.497 148.994 157.062C149.741 155.922 150.401 154.712 150.965 153.451C151.086 153.164 151.208 152.877 151.321 152.589C151.338 152.581 151.338 152.572 151.33 152.563C151.364 152.52 151.382 152.476 151.39 152.433C151.408 152.398 151.425 152.363 151.434 152.328C151.529 152.059 151.625 151.789 151.729 151.511C152.641 148.883 153.144 146.064 153.144 143.123V59.9502H192.538Z" fill="black"/>
<path d="M192.538 59.9502V143.123C192.538 172.315 173.236 197.078 146.745 205.248C140.728 207.092 134.338 208.093 127.713 208.093C91.9747 208.093 62.8877 178.953 62.8877 143.123V59.9502H102.281V143.123C102.281 157.184 113.699 168.617 127.713 168.617C128.286 168.617 128.859 168.599 129.423 168.547C129.935 168.521 130.439 168.477 130.934 168.399C130.995 168.399 131.047 168.39 131.108 168.382C131.142 168.373 131.168 168.373 131.203 168.364C131.472 168.338 131.741 168.295 132.002 168.242C132.306 168.19 132.601 168.138 132.896 168.077C133.139 168.025 133.391 167.973 133.634 167.921C133.877 167.86 134.12 167.799 134.364 167.729C135.041 167.546 135.701 167.338 136.361 167.103C137.333 166.746 138.288 166.328 139.209 165.867C141.041 164.927 142.751 163.77 144.297 162.439C144.809 161.995 145.304 161.525 145.79 161.038C146.033 160.794 146.268 160.551 146.493 160.299C146.719 160.046 146.945 159.794 147.162 159.533C147.318 159.35 147.466 159.167 147.613 158.985C147.787 158.767 147.961 158.55 148.117 158.323C148.421 157.914 148.716 157.497 148.994 157.062C149.741 155.922 150.401 154.712 150.965 153.451C151.086 153.164 151.208 152.877 151.321 152.589C151.338 152.581 151.338 152.572 151.33 152.563C151.364 152.52 151.382 152.476 151.39 152.433C151.408 152.398 151.425 152.363 151.434 152.328C151.529 152.059 151.625 151.789 151.729 151.511C152.641 148.883 153.144 146.064 153.144 143.123V59.9502H192.538Z" fill="white"/>
<path d="M153.162 59.9502L153.145 59.9676V143.123C153.145 146.064 152.641 148.883 151.73 151.511C152.668 148.883 153.171 146.055 153.171 143.123V59.9502H153.162ZM151.096 153.164C151.174 152.972 151.261 152.781 151.322 152.589C151.209 152.877 151.087 153.164 150.966 153.451C151.018 153.355 151.061 153.259 151.096 153.164ZM149.55 156.192C149.906 155.609 150.228 155.008 150.532 154.391C150.688 154.077 150.844 153.764 150.966 153.451C150.401 154.712 149.741 155.922 148.995 157.062C149.194 156.775 149.377 156.487 149.55 156.192ZM148.231 139.503C148.231 139.634 148.231 139.773 148.222 139.912C148.222 140.043 148.205 140.164 148.196 140.304V140.765C148.231 140.347 148.239 139.93 148.239 139.503C148.239 139.32 148.239 139.129 148.222 138.946C148.231 139.112 148.231 139.294 148.231 139.468V139.503ZM148.179 138.137C148.196 138.242 148.196 138.355 148.196 138.45C148.205 138.616 148.222 138.781 148.222 138.946C148.222 138.668 148.213 138.389 148.187 138.111C148.187 138.12 148.187 138.128 148.187 138.137H148.179ZM148.179 138.076C148.179 138.015 148.179 137.946 148.161 137.885C148.17 137.946 148.17 137.998 148.17 138.059C148.17 138.068 148.17 138.076 148.17 138.076H148.179ZM148.153 141.182C148.153 141.243 148.153 141.304 148.135 141.365C148.135 141.417 148.126 141.47 148.109 141.522C148.109 141.583 148.109 141.652 148.1 141.713C148.1 141.774 148.1 141.844 148.083 141.905C148.118 141.644 148.144 141.383 148.161 141.122C148.161 141.139 148.161 141.165 148.153 141.182ZM148.135 137.606C148.135 137.606 148.153 137.624 148.144 137.632C148.135 137.493 148.118 137.363 148.1 137.232C148.109 137.284 148.109 137.328 148.109 137.389C148.109 137.45 148.135 137.545 148.135 137.606ZM148.04 136.719C148.048 136.788 148.057 136.858 148.057 136.936C148.074 136.98 148.074 137.032 148.074 137.084C148.083 137.119 148.092 137.137 148.092 137.163C148.083 137.015 148.066 136.867 148.04 136.719ZM147.996 136.475V136.51C148.014 136.58 148.031 136.649 148.04 136.719C148.022 136.588 148.005 136.467 147.988 136.336C147.996 136.388 147.996 136.44 147.996 136.475ZM147.996 142.47V142.514C147.97 142.609 147.962 142.723 147.944 142.827C147.918 142.984 147.892 143.131 147.875 143.288C147.935 143.01 147.979 142.723 148.022 142.435C148.014 142.435 148.014 142.444 148.014 142.444C147.996 142.444 147.996 142.462 147.996 142.47ZM147.588 144.567C147.658 144.297 147.718 144.028 147.77 143.767C147.814 143.61 147.84 143.445 147.875 143.288C147.779 143.836 147.658 144.384 147.51 144.915C147.536 144.793 147.562 144.68 147.588 144.567ZM147.823 135.422C147.788 135.231 147.744 135.048 147.692 134.866C147.736 135.031 147.77 135.205 147.805 135.37C147.805 135.388 147.823 135.414 147.823 135.422ZM147.085 146.264C147.128 146.133 147.18 146.003 147.215 145.872C147.059 146.36 146.885 146.847 146.685 147.317C146.711 147.264 146.729 147.212 146.746 147.151C146.859 146.856 146.972 146.568 147.085 146.264ZM146.972 132.447C147.032 132.595 147.085 132.751 147.137 132.899C147.05 132.603 146.937 132.316 146.824 132.029C146.859 132.125 146.894 132.22 146.92 132.316C146.946 132.36 146.963 132.403 146.972 132.447ZM146.668 131.655C146.711 131.742 146.746 131.829 146.781 131.925C146.72 131.759 146.659 131.594 146.581 131.429C146.581 131.455 146.59 131.472 146.59 131.49C146.616 131.542 146.642 131.611 146.668 131.655ZM146.607 147.465C146.52 147.699 146.425 147.926 146.32 148.143C146.451 147.874 146.572 147.595 146.685 147.317C146.659 147.369 146.642 147.421 146.607 147.465ZM146.26 130.733C146.26 130.733 146.286 130.776 146.294 130.794C146.277 130.75 146.26 130.706 146.234 130.663C146.242 130.68 146.26 130.706 146.26 130.733ZM146.199 130.593C146.199 130.593 146.225 130.646 146.234 130.663C146.208 130.593 146.173 130.524 146.138 130.463C146.164 130.506 146.182 130.55 146.199 130.593ZM145.782 161.047C145.296 161.525 144.801 161.995 144.289 162.439C144.801 162.004 145.305 161.534 145.782 161.047ZM145.009 150.519C145.009 150.519 144.975 150.597 144.949 150.632C144.992 150.58 145.027 150.519 145.062 150.458C145.044 150.484 145.027 150.501 145.009 150.519ZM144.87 150.736C144.818 150.806 144.784 150.849 144.749 150.901C144.671 151.015 144.601 151.128 144.532 151.241C144.671 151.041 144.818 150.841 144.949 150.632C144.923 150.675 144.897 150.71 144.87 150.736ZM144.532 151.241C144.454 151.345 144.393 151.45 144.315 151.554C144.376 151.476 144.428 151.397 144.48 151.319C144.497 151.293 144.514 151.267 144.532 151.241ZM144.315 151.554C144.263 151.632 144.202 151.711 144.141 151.78C144.106 151.824 144.072 151.876 144.037 151.928C144.141 151.806 144.237 151.676 144.315 151.554ZM144.089 127.13C144.028 127.043 143.959 126.956 143.889 126.869C143.95 126.956 144.002 127.035 144.063 127.13H144.089ZM143.325 152.807C143.221 152.92 143.125 153.042 143.021 153.164C143.16 153.016 143.29 152.868 143.412 152.711C143.377 152.737 143.351 152.772 143.325 152.807ZM143.012 125.817C142.952 125.738 142.882 125.66 142.813 125.59C142.839 125.625 142.856 125.651 142.882 125.686C142.926 125.73 142.969 125.773 143.012 125.817ZM142.049 154.173C141.997 154.225 141.944 154.277 141.892 154.338C142.04 154.208 142.188 154.06 142.309 153.921C142.222 154.008 142.135 154.095 142.049 154.173ZM141.406 154.782L141.397 154.799C141.493 154.721 141.588 154.634 141.675 154.538C141.58 154.625 141.493 154.704 141.406 154.782ZM144.289 162.439C142.743 163.77 141.033 164.927 139.201 165.867C141.041 164.945 142.743 163.788 144.289 162.439ZM139.513 122.693C139.366 122.58 139.209 122.475 139.053 122.371C139.088 122.397 139.123 122.423 139.166 122.458C139.288 122.536 139.4 122.615 139.513 122.693ZM138.141 121.805C138.037 121.736 137.942 121.675 137.829 121.623C137.855 121.64 137.89 121.666 137.916 121.692C137.994 121.736 138.063 121.771 138.141 121.805ZM137.568 121.475C137.568 121.475 137.508 121.431 137.482 121.423C137.499 121.44 137.516 121.449 137.534 121.466C137.534 121.466 137.56 121.466 137.568 121.475ZM137.056 157.784C136.987 157.827 136.917 157.862 136.856 157.888C137.056 157.801 137.247 157.697 137.438 157.592C137.308 157.662 137.178 157.723 137.056 157.784ZM139.201 165.867C138.28 166.328 137.325 166.746 136.353 167.103C137.334 166.763 138.289 166.346 139.201 165.867ZM135.007 158.689C135.007 158.689 134.99 158.706 134.972 158.724C135.155 158.654 135.337 158.576 135.519 158.497C135.346 158.558 135.181 158.619 135.007 158.689ZM133.626 167.921C133.878 167.868 134.121 167.799 134.356 167.738C135.033 167.555 135.702 167.346 136.353 167.103C135.693 167.338 135.033 167.546 134.356 167.729C134.113 167.799 133.87 167.86 133.626 167.921ZM134.599 120.144C134.599 120.144 134.599 120.144 134.616 120.144C134.512 120.1 134.408 120.065 134.295 120.039C134.382 120.083 134.46 120.109 134.547 120.144C134.564 120.144 134.59 120.144 134.599 120.144ZM132.888 159.385C133.062 159.341 133.236 159.298 133.409 159.237C133.296 159.263 133.184 159.289 133.071 159.333C133.019 159.359 132.958 159.367 132.888 159.385ZM132.663 119.552C132.723 119.569 132.784 119.587 132.845 119.604C132.906 119.613 132.949 119.63 133.01 119.639C132.897 119.604 132.784 119.569 132.663 119.552ZM131.517 159.672C131.517 159.672 131.438 159.698 131.395 159.707C131.638 159.663 131.89 159.629 132.133 159.568C131.951 159.602 131.734 159.637 131.517 159.672ZM131.36 159.716C131.36 159.716 131.386 159.716 131.395 159.707C131.369 159.707 131.343 159.716 131.308 159.724C131.325 159.724 131.343 159.724 131.352 159.724L131.36 159.716ZM131.1 159.75C131.1 159.75 131.004 159.75 130.969 159.785C131.082 159.768 131.195 159.742 131.317 159.724C131.308 159.724 131.299 159.724 131.282 159.724C131.221 159.742 131.161 159.75 131.1 159.75ZM131.152 119.247C131.551 119.317 131.951 119.378 132.333 119.474C131.994 119.387 131.655 119.326 131.325 119.273C131.265 119.256 131.204 119.247 131.152 119.247ZM130.466 119.134C130.587 119.143 130.7 119.169 130.831 119.195C130.917 119.221 131.004 119.221 131.1 119.239C131.117 119.239 131.134 119.239 131.152 119.239C130.839 119.186 130.527 119.134 130.205 119.091C130.292 119.099 130.379 119.108 130.466 119.126V119.134ZM128.764 118.96C129.25 118.986 129.728 119.039 130.205 119.099C130.075 119.082 129.936 119.065 129.806 119.047C129.467 119.012 129.111 118.978 128.764 118.96ZM128.686 160.02C128.86 160.011 129.042 160.02 129.216 159.994C129.502 159.977 129.789 159.95 130.075 159.907C129.797 159.916 129.511 159.942 129.198 159.977C129.025 159.994 128.86 160.003 128.686 160.02ZM126.576 118.978C126.706 118.969 126.828 118.96 126.958 118.951C126.81 118.951 126.654 118.96 126.507 118.978H126.576ZM123.711 119.334C123.858 119.3 124.015 119.282 124.171 119.256C124.136 119.256 124.101 119.265 124.058 119.273C123.945 119.291 123.832 119.317 123.711 119.334ZM124.64 119.178C124.64 119.178 124.683 119.178 124.709 119.169C124.692 119.169 124.683 119.169 124.666 119.169C124.666 119.169 124.648 119.169 124.64 119.169V119.178ZM124.579 119.195C124.579 119.195 124.622 119.186 124.64 119.178C124.484 119.204 124.327 119.23 124.171 119.256C124.31 119.239 124.44 119.213 124.579 119.195ZM124.892 119.152C124.892 119.152 124.935 119.143 124.961 119.152C125.413 119.073 125.873 119.012 126.324 118.986C126.385 118.986 126.446 118.969 126.507 118.969C125.899 118.995 125.3 119.065 124.709 119.16C124.77 119.16 124.831 119.16 124.892 119.143V119.152ZM124.605 159.811C124.935 159.863 125.274 159.907 125.612 159.95C125.135 159.898 124.657 159.837 124.188 159.75C124.327 159.768 124.466 159.794 124.605 159.811ZM123.363 119.413C123.476 119.387 123.598 119.36 123.711 119.334C123.511 119.369 123.311 119.413 123.112 119.465C123.198 119.439 123.277 119.421 123.363 119.413ZM122.66 119.578C122.738 119.552 122.816 119.526 122.895 119.517C122.756 119.543 122.617 119.578 122.478 119.613C122.539 119.604 122.599 119.587 122.66 119.578ZM120.663 158.802C121.288 159.037 121.922 159.237 122.573 159.394C122.243 159.307 121.931 159.211 121.61 159.115C121.288 159.019 120.976 158.915 120.663 158.802ZM122.443 119.63C122.322 119.656 122.2 119.691 122.078 119.726C122.139 119.708 122.209 119.691 122.269 119.682C122.322 119.665 122.382 119.648 122.443 119.63ZM121.115 120.048C121.054 120.065 121.002 120.091 120.941 120.109C121.028 120.074 121.115 120.048 121.21 120.013C121.175 120.022 121.149 120.03 121.115 120.048ZM120.029 120.448C120.212 120.378 120.394 120.3 120.585 120.239C120.698 120.196 120.819 120.152 120.941 120.109C120.047 120.422 119.178 120.779 118.354 121.214C118.406 121.188 118.458 121.179 118.51 121.162C118.84 120.988 119.17 120.831 119.508 120.683C119.682 120.605 119.847 120.526 120.029 120.448ZM121.861 119.787C121.636 119.856 121.427 119.943 121.21 120.013C121.358 119.961 121.514 119.909 121.662 119.865C121.722 119.839 121.792 119.813 121.861 119.787ZM119.725 158.419C120.029 158.558 120.333 158.68 120.646 158.793C120.177 158.628 119.725 158.437 119.274 158.228C119.422 158.297 119.569 158.367 119.725 158.419ZM117.268 121.823C117.381 121.762 117.511 121.684 117.65 121.623C117.685 121.597 117.72 121.57 117.746 121.544C117.581 121.631 117.424 121.718 117.268 121.823ZM116.904 122.049C117.016 121.971 117.138 121.892 117.268 121.823C117.077 121.919 116.904 122.032 116.73 122.153C116.791 122.119 116.843 122.084 116.904 122.049ZM116.556 122.267C116.556 122.267 116.539 122.267 116.53 122.275C116.548 122.293 116.548 122.275 116.556 122.267ZM116.079 122.597C116.079 122.597 116.157 122.545 116.209 122.528C116.304 122.449 116.391 122.388 116.487 122.31C116.322 122.414 116.166 122.519 116.009 122.641C116.027 122.623 116.053 122.606 116.079 122.597ZM116.166 156.47C116.166 156.47 116.122 156.444 116.105 156.435C116.192 156.496 116.278 156.557 116.374 156.618C116.33 156.592 116.296 156.566 116.252 156.531C116.226 156.505 116.209 156.496 116.166 156.47ZM114.993 155.609C115.184 155.765 115.384 155.922 115.584 156.061C115.514 156 115.436 155.939 115.367 155.887C115.245 155.8 115.115 155.704 114.993 155.609ZM114.099 154.852C114.386 155.121 114.681 155.374 114.993 155.609C114.802 155.452 114.611 155.287 114.42 155.121C114.307 155.026 114.203 154.939 114.099 154.852ZM114.533 123.772C114.325 123.937 114.125 124.111 113.925 124.303C114.004 124.242 114.082 124.189 114.16 124.129C114.281 123.998 114.412 123.885 114.533 123.772ZM113.535 124.668C113.535 124.668 113.569 124.642 113.587 124.625C113.7 124.511 113.813 124.407 113.925 124.303C113.795 124.416 113.656 124.538 113.535 124.668ZM112.64 125.608C112.701 125.538 112.753 125.46 112.831 125.399C112.831 125.39 112.831 125.382 112.84 125.373C112.675 125.538 112.519 125.712 112.371 125.886C112.458 125.79 112.545 125.703 112.64 125.608ZM111.729 126.678V126.643C111.624 126.774 111.52 126.904 111.425 127.043C111.52 126.922 111.624 126.791 111.729 126.678ZM110.791 127.931C110.895 127.766 111.008 127.6 111.121 127.452C110.921 127.713 110.739 127.974 110.574 128.244C110.635 128.14 110.713 128.035 110.791 127.931ZM110.383 128.549C110.444 128.453 110.504 128.349 110.574 128.244C110.487 128.366 110.409 128.488 110.339 128.61C110.339 128.592 110.365 128.575 110.383 128.549ZM110.313 128.67C110.313 128.67 110.331 128.627 110.339 128.61C110.279 128.705 110.218 128.792 110.166 128.888C110.209 128.818 110.261 128.749 110.313 128.67ZM110.036 129.114C110.079 129.036 110.122 128.958 110.166 128.888C110.044 129.088 109.923 129.288 109.818 129.488C109.888 129.358 109.957 129.236 110.036 129.114ZM109.68 149.283C109.211 148.413 108.803 147.499 108.447 146.56C108.785 147.499 109.202 148.413 109.68 149.283ZM107.222 139.468C107.222 137.502 107.5 135.605 108.021 133.787C107.483 135.605 107.196 137.519 107.196 139.503C107.196 141.974 107.639 144.35 108.447 146.551C107.656 144.35 107.222 141.966 107.222 139.468Z" fill="#00B7FF"/>
<path d="M148.241 139.503C148.241 139.929 148.241 140.347 148.197 140.764C148.197 140.886 148.188 141.008 148.171 141.121C148.154 141.382 148.128 141.643 148.093 141.904C148.084 142.087 148.058 142.261 148.032 142.435C147.989 142.722 147.945 143.009 147.885 143.288C147.85 143.444 147.824 143.61 147.78 143.766C147.728 144.027 147.667 144.297 147.598 144.567C147.572 144.68 147.546 144.793 147.52 144.915C147.485 145.063 147.442 145.211 147.398 145.358C147.346 145.532 147.294 145.698 147.225 145.872C147.19 146.002 147.138 146.133 147.094 146.263C146.982 146.568 146.869 146.855 146.756 147.151C146.738 147.212 146.721 147.264 146.695 147.316C146.582 147.595 146.461 147.873 146.33 148.143C146.217 148.395 146.096 148.639 145.966 148.882C145.957 148.908 145.94 148.935 145.931 148.961C145.853 149.117 145.766 149.274 145.679 149.431C145.627 149.526 145.575 149.631 145.514 149.726C145.384 149.953 145.254 150.17 145.123 150.379C145.106 150.405 145.089 150.431 145.071 150.457C145.037 150.518 145.002 150.579 144.958 150.631C144.828 150.84 144.681 151.031 144.542 151.24C144.524 151.266 144.507 151.293 144.49 151.319C144.438 151.397 144.385 151.475 144.325 151.554C144.247 151.675 144.151 151.806 144.047 151.928C144.012 151.98 143.977 152.032 143.934 152.084C143.821 152.232 143.708 152.38 143.578 152.519C143.561 152.545 143.526 152.58 143.5 152.615C143.474 152.641 143.448 152.676 143.422 152.711C143.3 152.867 143.17 153.015 143.031 153.163C142.953 153.259 142.866 153.355 142.779 153.45L142.718 153.511C142.579 153.65 142.449 153.79 142.319 153.92C142.197 154.059 142.05 154.207 141.902 154.338C141.833 154.399 141.763 154.468 141.685 154.538C141.598 154.634 141.503 154.721 141.407 154.799C141.407 154.799 141.404 154.802 141.399 154.808C141.234 154.964 141.06 155.112 140.886 155.251C140.721 155.391 140.565 155.53 140.391 155.652C140.331 155.704 140.261 155.756 140.2 155.8C140.088 155.887 139.975 155.974 139.862 156.052C139.662 156.2 139.471 156.339 139.271 156.487C139.08 156.609 138.889 156.731 138.698 156.852L138.611 156.913C138.525 156.966 138.429 157.026 138.342 157.079C138.308 157.105 138.264 157.122 138.229 157.148C138.108 157.227 137.978 157.296 137.847 157.366C137.708 157.444 137.578 157.522 137.448 157.592C137.257 157.696 137.066 157.801 136.866 157.888C136.797 157.923 136.736 157.957 136.675 157.992C136.606 158.027 136.536 158.053 136.467 158.088C136.25 158.192 136.033 158.288 135.816 158.384C135.737 158.419 135.659 158.445 135.581 158.48C135.564 158.488 135.546 158.488 135.529 158.497C135.347 158.575 135.164 158.654 134.982 158.723C134.861 158.767 134.73 158.819 134.6 158.862C134.583 158.862 134.574 158.871 134.557 158.871C134.331 158.941 134.114 159.01 133.897 159.097C133.853 159.115 133.801 159.132 133.758 159.141C133.645 159.184 133.532 159.21 133.419 159.236C133.246 159.297 133.072 159.341 132.898 159.384C132.89 159.384 132.89 159.393 132.881 159.393C132.751 159.428 132.62 159.454 132.49 159.489C132.421 159.506 132.36 159.524 132.29 159.532C132.247 159.55 132.204 159.558 132.169 159.558C132.16 159.558 132.152 159.558 132.143 159.558C131.9 159.611 131.657 159.654 131.405 159.698C131.396 159.698 131.379 159.698 131.37 159.706C131.353 159.706 131.335 159.706 131.327 159.706C131.214 159.724 131.101 159.75 130.979 159.767L130.962 159.776C130.806 159.793 130.667 159.819 130.519 159.837C130.398 159.854 130.285 159.872 130.163 159.889H130.094C129.807 159.933 129.521 159.959 129.234 159.976C129.06 159.993 128.887 159.985 128.704 160.002C128.401 160.028 128.097 160.037 127.793 160.037H127.732C127.385 160.037 127.029 160.037 126.673 160.011C126.325 159.993 125.978 159.967 125.631 159.933C125.292 159.889 124.954 159.846 124.624 159.793C124.485 159.776 124.346 159.75 124.207 159.732C124.007 159.698 123.807 159.654 123.616 159.619H123.599C123.252 159.541 122.922 159.463 122.592 159.376C121.941 159.219 121.307 159.019 120.682 158.784C120.682 158.784 120.682 158.784 120.664 158.784C120.352 158.671 120.048 158.549 119.744 158.41C119.588 158.358 119.44 158.288 119.292 158.218C119.136 158.158 118.98 158.079 118.832 158.01C118.641 157.905 118.45 157.818 118.259 157.714C118.251 157.705 118.233 157.705 118.224 157.696C118.042 157.601 117.877 157.505 117.704 157.401C117.513 157.296 117.321 157.192 117.13 157.079C116.948 156.966 116.757 156.844 116.566 156.713C116.505 156.678 116.445 156.652 116.392 156.609C116.297 156.548 116.21 156.487 116.123 156.426C116.08 156.4 116.036 156.365 115.993 156.339C115.863 156.252 115.741 156.156 115.62 156.069L115.602 156.052C115.403 155.913 115.203 155.756 115.012 155.599C114.699 155.365 114.404 155.112 114.118 154.843C114.022 154.764 113.927 154.677 113.831 154.581C113.822 154.581 113.822 154.573 113.805 154.564C113.605 154.39 113.423 154.207 113.232 154.016C112.998 153.781 112.772 153.546 112.555 153.302C112.381 153.111 112.216 152.92 112.051 152.728C111.964 152.632 111.877 152.528 111.799 152.424C111.66 152.258 111.53 152.093 111.409 151.928C111.209 151.667 111.018 151.397 110.827 151.118C110.61 150.797 110.401 150.475 110.193 150.144C110.019 149.848 109.854 149.57 109.698 149.274C109.221 148.404 108.804 147.49 108.465 146.55C107.658 144.34 107.215 141.965 107.215 139.494C107.215 137.51 107.501 135.596 108.04 133.777C108.1 133.56 108.161 133.351 108.231 133.142C108.291 132.942 108.361 132.742 108.439 132.542C108.474 132.42 108.517 132.307 108.569 132.194C108.691 131.872 108.821 131.55 108.96 131.237C109.116 130.88 109.281 130.532 109.455 130.184C109.464 130.175 109.464 130.158 109.472 130.149C109.533 130.053 109.585 129.949 109.637 129.853C109.707 129.723 109.776 129.601 109.837 129.479C109.941 129.279 110.063 129.079 110.184 128.879C110.236 128.783 110.297 128.696 110.358 128.6C110.427 128.479 110.506 128.357 110.592 128.235C110.757 127.965 110.94 127.704 111.139 127.443C111.244 127.304 111.339 127.165 111.443 127.034C111.539 126.895 111.643 126.764 111.747 126.634C111.964 126.364 112.173 126.112 112.39 125.877C112.537 125.703 112.694 125.529 112.859 125.364C112.859 125.355 112.876 125.346 112.885 125.338C112.954 125.25 113.032 125.172 113.11 125.094C113.241 124.963 113.362 124.833 113.501 124.702C113.527 124.685 113.545 124.676 113.553 124.659C113.675 124.528 113.814 124.407 113.944 124.293C114.144 124.102 114.343 123.928 114.552 123.763C114.604 123.71 114.665 123.65 114.734 123.615C114.804 123.554 114.873 123.493 114.942 123.432C115.29 123.154 115.654 122.875 116.028 122.632C116.184 122.51 116.34 122.405 116.505 122.301C116.514 122.292 116.531 122.275 116.549 122.266C116.549 122.257 116.566 122.257 116.575 122.257C116.636 122.214 116.688 122.179 116.748 122.144C116.922 122.022 117.096 121.909 117.287 121.814C117.443 121.709 117.599 121.622 117.764 121.535C117.764 121.535 117.77 121.532 117.782 121.526C117.964 121.413 118.164 121.309 118.355 121.213C118.355 121.213 118.361 121.21 118.372 121.205C119.197 120.769 120.074 120.413 120.96 120.1C121.02 120.082 121.072 120.056 121.133 120.039C121.159 120.03 121.194 120.021 121.229 120.004C121.446 119.934 121.663 119.838 121.88 119.778C121.889 119.778 121.897 119.769 121.906 119.769C121.967 119.751 122.036 119.734 122.097 119.717C122.219 119.682 122.34 119.647 122.462 119.621C122.462 119.612 122.488 119.612 122.496 119.604C122.635 119.569 122.774 119.534 122.913 119.508C122.991 119.482 123.061 119.464 123.13 119.456C123.33 119.403 123.53 119.36 123.729 119.325C123.851 119.308 123.964 119.282 124.077 119.264C124.12 119.264 124.155 119.256 124.189 119.247C124.346 119.221 124.502 119.195 124.658 119.169C124.667 119.169 124.676 119.169 124.684 119.169C124.702 119.169 124.71 119.169 124.728 119.169C125.318 119.082 125.917 119.012 126.525 118.977C126.673 118.96 126.829 118.951 126.977 118.951C127.228 118.934 127.48 118.934 127.732 118.934C128.079 118.934 128.427 118.934 128.783 118.96C129.13 118.977 129.486 119.012 129.825 119.047C129.955 119.064 130.085 119.082 130.224 119.099C130.545 119.142 130.858 119.195 131.17 119.247C131.231 119.247 131.283 119.247 131.344 119.273C131.674 119.325 132.013 119.386 132.351 119.473C132.464 119.49 132.577 119.517 132.681 119.551C132.803 119.569 132.916 119.604 133.028 119.638H133.037C133.246 119.691 133.454 119.751 133.662 119.812C133.714 119.83 133.766 119.847 133.819 119.865C133.984 119.917 134.149 119.969 134.314 120.03C134.426 120.056 134.531 120.091 134.635 120.134C134.643 120.134 134.652 120.134 134.661 120.134C135.017 120.265 135.364 120.395 135.703 120.543C136.015 120.674 136.319 120.813 136.614 120.952C136.849 121.065 137.075 121.178 137.292 121.3C137.352 121.335 137.413 121.361 137.474 121.405C137.483 121.405 137.491 121.405 137.5 121.413C137.526 121.422 137.561 121.439 137.587 121.466C137.596 121.466 137.613 121.474 137.613 121.483C137.622 121.483 137.63 121.483 137.639 121.483C137.708 121.518 137.778 121.561 137.847 121.605C137.96 121.657 138.056 121.718 138.16 121.788C138.229 121.814 138.29 121.857 138.351 121.901C138.412 121.927 138.464 121.97 138.516 122.005C138.533 122.014 138.551 122.022 138.568 122.04C138.733 122.127 138.881 122.223 139.037 122.327C139.046 122.336 139.054 122.344 139.072 122.353C139.228 122.457 139.384 122.562 139.532 122.675C139.575 122.71 139.627 122.745 139.671 122.771C139.914 122.945 140.148 123.119 140.383 123.31C140.513 123.406 140.652 123.51 140.782 123.615C141.225 123.989 141.65 124.372 142.058 124.781L142.223 124.946C142.223 124.946 142.267 124.981 142.284 125.007C142.302 125.024 142.328 125.042 142.345 125.059C142.51 125.224 142.675 125.398 142.831 125.572C142.901 125.642 142.97 125.72 143.031 125.799C143.031 125.799 143.037 125.804 143.048 125.816C143.222 126.007 143.396 126.208 143.561 126.408C143.613 126.469 143.656 126.53 143.7 126.582C143.778 126.686 143.838 126.756 143.908 126.851C143.977 126.938 144.047 127.025 144.108 127.113H144.116C144.116 127.113 144.16 127.165 144.168 127.191C144.203 127.234 144.229 127.278 144.264 127.313C144.985 128.296 145.618 129.34 146.157 130.445C146.191 130.506 146.226 130.575 146.252 130.645C146.278 130.689 146.296 130.732 146.313 130.776C146.408 130.976 146.504 131.185 146.591 131.385C146.591 131.393 146.6 131.402 146.6 131.411C146.678 131.576 146.738 131.741 146.799 131.907C146.817 131.942 146.825 131.976 146.843 132.011C146.956 132.298 147.068 132.585 147.155 132.881C147.155 132.899 147.173 132.925 147.181 132.942C147.233 133.081 147.277 133.229 147.329 133.377C147.372 133.525 147.424 133.69 147.459 133.856C147.468 133.873 147.468 133.899 147.476 133.917C147.52 134.03 147.546 134.143 147.572 134.256C147.581 134.291 147.589 134.326 147.598 134.369C147.633 134.526 147.676 134.682 147.711 134.848C147.763 135.03 147.806 135.213 147.841 135.405C147.85 135.439 147.859 135.465 147.859 135.5C147.893 135.674 147.928 135.848 147.954 136.022C147.963 136.075 147.971 136.127 147.98 136.188C147.997 136.231 148.006 136.275 148.006 136.318C148.023 136.449 148.041 136.57 148.058 136.701C148.084 136.849 148.102 136.997 148.11 137.145C148.119 137.171 148.119 137.188 148.119 137.214C148.136 137.345 148.154 137.475 148.162 137.615C148.171 137.684 148.18 137.754 148.18 137.832C148.188 137.85 148.188 137.858 148.18 137.867C148.188 137.928 148.197 137.997 148.197 138.058C148.197 138.058 148.206 138.084 148.197 138.093C148.223 138.372 148.232 138.65 148.232 138.928C148.249 139.111 148.249 139.303 148.249 139.485L148.241 139.503Z" fill="white"/>
<path d="M153.162 59.9502L153.145 59.9676V143.123C153.145 146.064 152.641 148.883 151.73 151.511C152.668 148.883 153.171 146.055 153.171 143.123V59.9502H153.162ZM151.096 153.164C151.174 152.972 151.261 152.781 151.322 152.589C151.209 152.877 151.087 153.164 150.966 153.451C151.018 153.355 151.061 153.259 151.096 153.164ZM149.55 156.192C149.906 155.609 150.228 155.008 150.532 154.391C150.688 154.077 150.844 153.764 150.966 153.451C150.401 154.712 149.741 155.922 148.995 157.062C149.194 156.775 149.377 156.487 149.55 156.192ZM148.231 139.503C148.231 139.634 148.231 139.773 148.222 139.912C148.222 140.043 148.205 140.164 148.196 140.304V140.765C148.231 140.347 148.239 139.93 148.239 139.503C148.239 139.32 148.239 139.129 148.222 138.946C148.231 139.112 148.231 139.294 148.231 139.468V139.503ZM148.179 138.137C148.196 138.242 148.196 138.355 148.196 138.45C148.205 138.616 148.222 138.781 148.222 138.946C148.222 138.668 148.213 138.389 148.187 138.111C148.187 138.12 148.187 138.128 148.187 138.137H148.179ZM148.179 138.076C148.179 138.015 148.179 137.946 148.161 137.885C148.17 137.946 148.17 137.998 148.17 138.059C148.17 138.068 148.17 138.076 148.17 138.076H148.179ZM148.153 141.182C148.153 141.243 148.153 141.304 148.135 141.365C148.135 141.417 148.126 141.47 148.109 141.522C148.109 141.583 148.109 141.652 148.1 141.713C148.1 141.774 148.1 141.844 148.083 141.905C148.118 141.644 148.144 141.383 148.161 141.122C148.161 141.139 148.161 141.165 148.153 141.182ZM148.135 137.606C148.135 137.606 148.153 137.624 148.144 137.632C148.135 137.493 148.118 137.363 148.1 137.232C148.109 137.284 148.109 137.328 148.109 137.389C148.109 137.45 148.135 137.545 148.135 137.606ZM148.04 136.719C148.048 136.788 148.057 136.858 148.057 136.936C148.074 136.98 148.074 137.032 148.074 137.084C148.083 137.119 148.092 137.137 148.092 137.163C148.083 137.015 148.066 136.867 148.04 136.719ZM147.996 136.475V136.51C148.014 136.58 148.031 136.649 148.04 136.719C148.022 136.588 148.005 136.467 147.988 136.336C147.996 136.388 147.996 136.44 147.996 136.475ZM147.996 142.47V142.514C147.97 142.609 147.962 142.723 147.944 142.827C147.918 142.984 147.892 143.131 147.875 143.288C147.935 143.01 147.979 142.723 148.022 142.435C148.014 142.435 148.014 142.444 148.014 142.444C147.996 142.444 147.996 142.462 147.996 142.47ZM147.588 144.567C147.658 144.297 147.718 144.028 147.77 143.767C147.814 143.61 147.84 143.445 147.875 143.288C147.779 143.836 147.658 144.384 147.51 144.915C147.536 144.793 147.562 144.68 147.588 144.567ZM147.823 135.422C147.788 135.231 147.744 135.048 147.692 134.866C147.736 135.031 147.77 135.205 147.805 135.37C147.805 135.388 147.823 135.414 147.823 135.422ZM147.085 146.264C147.128 146.133 147.18 146.003 147.215 145.872C147.059 146.36 146.885 146.847 146.685 147.317C146.711 147.264 146.729 147.212 146.746 147.151C146.859 146.856 146.972 146.568 147.085 146.264ZM146.972 132.447C147.032 132.595 147.085 132.751 147.137 132.899C147.05 132.603 146.937 132.316 146.824 132.029C146.859 132.125 146.894 132.22 146.92 132.316C146.946 132.36 146.963 132.403 146.972 132.447ZM146.668 131.655C146.711 131.742 146.746 131.829 146.781 131.925C146.72 131.759 146.659 131.594 146.581 131.429C146.581 131.455 146.59 131.472 146.59 131.49C146.616 131.542 146.642 131.611 146.668 131.655ZM146.607 147.465C146.52 147.699 146.425 147.926 146.32 148.143C146.451 147.874 146.572 147.595 146.685 147.317C146.659 147.369 146.642 147.421 146.607 147.465ZM146.26 130.733C146.26 130.733 146.286 130.776 146.294 130.794C146.277 130.75 146.26 130.706 146.234 130.663C146.242 130.68 146.26 130.706 146.26 130.733ZM146.199 130.593C146.199 130.593 146.225 130.646 146.234 130.663C146.208 130.593 146.173 130.524 146.138 130.463C146.164 130.506 146.182 130.55 146.199 130.593ZM145.782 161.047C145.296 161.525 144.801 161.995 144.289 162.439C144.801 162.004 145.305 161.534 145.782 161.047ZM145.009 150.519C145.009 150.519 144.975 150.597 144.949 150.632C144.992 150.58 145.027 150.519 145.062 150.458C145.044 150.484 145.027 150.501 145.009 150.519ZM144.532 151.241C144.454 151.345 144.393 151.45 144.315 151.554C144.376 151.476 144.428 151.397 144.48 151.319C144.497 151.293 144.514 151.267 144.532 151.241ZM144.87 150.736C144.818 150.806 144.784 150.849 144.749 150.901C144.671 151.015 144.601 151.128 144.532 151.241C144.671 151.041 144.818 150.841 144.949 150.632C144.923 150.675 144.897 150.71 144.87 150.736ZM144.315 151.554C144.263 151.632 144.202 151.711 144.141 151.78C144.106 151.824 144.072 151.876 144.037 151.928C144.141 151.806 144.237 151.676 144.315 151.554ZM144.089 127.13C144.028 127.043 143.959 126.956 143.889 126.869C143.95 126.956 144.002 127.035 144.063 127.13H144.089ZM143.325 152.807C143.221 152.92 143.125 153.042 143.021 153.164C143.16 153.016 143.29 152.868 143.412 152.711C143.377 152.737 143.351 152.772 143.325 152.807ZM143.012 125.817C142.952 125.738 142.882 125.66 142.813 125.59C142.839 125.625 142.856 125.651 142.882 125.686C142.926 125.73 142.969 125.773 143.012 125.817ZM142.049 154.173C141.997 154.225 141.944 154.277 141.892 154.338C142.04 154.208 142.188 154.06 142.309 153.921C142.222 154.008 142.135 154.095 142.049 154.173ZM141.406 154.782L141.397 154.799C141.493 154.721 141.588 154.634 141.675 154.538C141.58 154.625 141.493 154.704 141.406 154.782ZM144.289 162.439C142.743 163.77 141.033 164.927 139.201 165.867C141.041 164.945 142.743 163.788 144.289 162.439ZM139.513 122.693C139.366 122.58 139.209 122.475 139.053 122.371C139.088 122.397 139.123 122.423 139.166 122.458C139.288 122.536 139.4 122.615 139.513 122.693ZM138.141 121.805C138.037 121.736 137.942 121.675 137.829 121.623C137.855 121.64 137.89 121.666 137.916 121.692C137.994 121.736 138.063 121.771 138.141 121.805ZM137.568 121.475C137.568 121.475 137.508 121.431 137.482 121.423C137.499 121.44 137.516 121.449 137.534 121.466C137.534 121.466 137.56 121.466 137.568 121.475ZM137.056 157.784C136.987 157.827 136.917 157.862 136.856 157.888C137.056 157.801 137.247 157.697 137.438 157.592C137.308 157.662 137.178 157.723 137.056 157.784ZM139.201 165.867C138.28 166.328 137.325 166.746 136.353 167.103C137.334 166.763 138.289 166.346 139.201 165.867ZM135.007 158.689C135.007 158.689 134.99 158.706 134.972 158.724C135.155 158.654 135.337 158.576 135.519 158.497C135.346 158.558 135.181 158.619 135.007 158.689ZM133.626 167.921C133.878 167.868 134.121 167.799 134.356 167.738C135.033 167.555 135.702 167.346 136.353 167.103C135.693 167.338 135.033 167.546 134.356 167.729C134.113 167.799 133.87 167.86 133.626 167.921ZM134.599 120.144C134.599 120.144 134.599 120.144 134.616 120.144C134.512 120.1 134.408 120.065 134.295 120.039C134.382 120.083 134.46 120.109 134.547 120.144C134.564 120.144 134.59 120.144 134.599 120.144ZM132.888 159.385C133.062 159.341 133.236 159.298 133.409 159.237C133.296 159.263 133.184 159.289 133.071 159.333C133.019 159.359 132.958 159.367 132.888 159.385ZM132.663 119.552C132.723 119.569 132.784 119.587 132.845 119.604C132.906 119.613 132.949 119.63 133.01 119.639C132.897 119.604 132.784 119.569 132.663 119.552ZM131.1 159.75C131.1 159.75 131.004 159.75 130.969 159.785C131.082 159.768 131.195 159.742 131.317 159.724C131.308 159.724 131.299 159.724 131.282 159.724C131.221 159.742 131.161 159.75 131.1 159.75ZM131.36 159.716C131.36 159.716 131.386 159.716 131.395 159.707C131.369 159.707 131.343 159.716 131.308 159.724C131.325 159.724 131.343 159.724 131.352 159.724L131.36 159.716ZM131.517 159.672C131.517 159.672 131.438 159.698 131.395 159.707C131.638 159.663 131.89 159.629 132.133 159.568C131.951 159.602 131.734 159.637 131.517 159.672ZM130.466 119.134C130.587 119.143 130.7 119.169 130.831 119.195C130.917 119.221 131.004 119.221 131.1 119.239C131.117 119.239 131.134 119.239 131.152 119.239C130.839 119.186 130.527 119.134 130.205 119.091C130.292 119.099 130.379 119.108 130.466 119.126V119.134ZM131.152 119.247C131.551 119.317 131.951 119.378 132.333 119.474C131.994 119.387 131.655 119.326 131.325 119.273C131.265 119.256 131.204 119.247 131.152 119.247ZM128.764 118.96C129.25 118.986 129.728 119.039 130.205 119.099C130.075 119.082 129.936 119.065 129.806 119.047C129.467 119.012 129.111 118.978 128.764 118.96ZM128.686 160.02C128.86 160.011 129.042 160.02 129.216 159.994C129.502 159.977 129.789 159.95 130.075 159.907C129.797 159.916 129.511 159.942 129.198 159.977C129.025 159.994 128.86 160.003 128.686 160.02ZM126.576 118.978C126.706 118.969 126.828 118.96 126.958 118.951C126.81 118.951 126.654 118.96 126.507 118.978H126.576ZM123.711 119.334C123.858 119.3 124.015 119.282 124.171 119.256C124.136 119.256 124.101 119.265 124.058 119.273C123.945 119.291 123.832 119.317 123.711 119.334ZM124.64 119.178C124.64 119.178 124.683 119.178 124.709 119.169C124.692 119.169 124.683 119.169 124.666 119.169C124.666 119.169 124.648 119.169 124.64 119.169V119.178ZM124.579 119.195C124.579 119.195 124.622 119.186 124.64 119.178C124.484 119.204 124.327 119.23 124.171 119.256C124.31 119.239 124.44 119.213 124.579 119.195ZM124.892 119.152C124.892 119.152 124.935 119.143 124.961 119.152C125.413 119.073 125.873 119.012 126.324 118.986C126.385 118.986 126.446 118.969 126.507 118.969C125.899 118.995 125.3 119.065 124.709 119.16C124.77 119.16 124.831 119.16 124.892 119.143V119.152ZM124.605 159.811C124.935 159.863 125.274 159.907 125.612 159.95C125.135 159.898 124.657 159.837 124.188 159.75C124.327 159.768 124.466 159.794 124.605 159.811ZM123.363 119.413C123.476 119.387 123.598 119.36 123.711 119.334C123.511 119.369 123.311 119.413 123.112 119.465C123.198 119.439 123.277 119.421 123.363 119.413ZM122.66 119.578C122.738 119.552 122.816 119.526 122.895 119.517C122.756 119.543 122.617 119.578 122.478 119.613C122.539 119.604 122.599 119.587 122.66 119.578ZM120.663 158.802C121.288 159.037 121.922 159.237 122.573 159.394C122.243 159.307 121.931 159.211 121.61 159.115C121.288 159.019 120.976 158.915 120.663 158.802ZM122.443 119.63C122.322 119.656 122.2 119.691 122.078 119.726C122.139 119.708 122.209 119.691 122.269 119.682C122.322 119.665 122.382 119.648 122.443 119.63ZM121.861 119.787C121.636 119.856 121.427 119.943 121.21 120.013C121.358 119.961 121.514 119.909 121.662 119.865C121.722 119.839 121.792 119.813 121.861 119.787ZM120.029 120.448C120.212 120.378 120.394 120.3 120.585 120.239C120.698 120.196 120.819 120.152 120.941 120.109C120.047 120.422 119.178 120.779 118.354 121.214C118.406 121.188 118.458 121.179 118.51 121.162C118.84 120.988 119.17 120.831 119.508 120.683C119.682 120.605 119.847 120.526 120.029 120.448ZM121.115 120.048C121.054 120.065 121.002 120.091 120.941 120.109C121.028 120.074 121.115 120.048 121.21 120.013C121.175 120.022 121.149 120.03 121.115 120.048ZM119.725 158.419C120.029 158.558 120.333 158.68 120.646 158.793C120.177 158.628 119.725 158.437 119.274 158.228C119.422 158.297 119.569 158.367 119.725 158.419ZM117.268 121.823C117.381 121.762 117.511 121.684 117.65 121.623C117.685 121.597 117.72 121.57 117.746 121.544C117.581 121.631 117.424 121.718 117.268 121.823ZM116.904 122.049C117.016 121.971 117.138 121.892 117.268 121.823C117.077 121.919 116.904 122.032 116.73 122.153C116.791 122.119 116.843 122.084 116.904 122.049ZM116.556 122.267C116.556 122.267 116.539 122.267 116.53 122.275C116.548 122.293 116.548 122.275 116.556 122.267ZM116.079 122.597C116.079 122.597 116.157 122.545 116.209 122.528C116.304 122.449 116.391 122.388 116.487 122.31C116.322 122.414 116.166 122.519 116.009 122.641C116.027 122.623 116.053 122.606 116.079 122.597ZM116.166 156.47C116.166 156.47 116.122 156.444 116.105 156.435C116.192 156.496 116.278 156.557 116.374 156.618C116.33 156.592 116.296 156.566 116.252 156.531C116.226 156.505 116.209 156.496 116.166 156.47ZM114.993 155.609C115.184 155.765 115.384 155.922 115.584 156.061C115.514 156 115.436 155.939 115.367 155.887C115.245 155.8 115.115 155.704 114.993 155.609ZM114.099 154.852C114.386 155.121 114.681 155.374 114.993 155.609C114.802 155.452 114.611 155.287 114.42 155.121C114.307 155.026 114.203 154.939 114.099 154.852ZM114.533 123.772C114.325 123.937 114.125 124.111 113.925 124.303C114.004 124.242 114.082 124.189 114.16 124.129C114.281 123.998 114.412 123.885 114.533 123.772ZM113.535 124.668C113.535 124.668 113.569 124.642 113.587 124.625C113.7 124.511 113.813 124.407 113.925 124.303C113.795 124.416 113.656 124.538 113.535 124.668ZM112.64 125.608C112.701 125.538 112.753 125.46 112.831 125.399C112.831 125.39 112.831 125.382 112.84 125.373C112.675 125.538 112.519 125.712 112.371 125.886C112.458 125.79 112.545 125.703 112.64 125.608ZM111.729 126.678V126.643C111.624 126.774 111.52 126.904 111.425 127.043C111.52 126.922 111.624 126.791 111.729 126.678ZM110.791 127.931C110.895 127.766 111.008 127.6 111.121 127.452C110.921 127.713 110.739 127.974 110.574 128.244C110.635 128.14 110.713 128.035 110.791 127.931ZM110.383 128.549C110.444 128.453 110.504 128.349 110.574 128.244C110.487 128.366 110.409 128.488 110.339 128.61C110.339 128.592 110.365 128.575 110.383 128.549ZM110.313 128.67C110.313 128.67 110.331 128.627 110.339 128.61C110.279 128.705 110.218 128.792 110.166 128.888C110.209 128.818 110.261 128.749 110.313 128.67ZM110.036 129.114C110.079 129.036 110.122 128.958 110.166 128.888C110.044 129.088 109.923 129.288 109.818 129.488C109.888 129.358 109.957 129.236 110.036 129.114ZM109.68 149.283C109.211 148.413 108.803 147.499 108.447 146.56C108.785 147.499 109.202 148.413 109.68 149.283ZM107.222 139.468C107.222 137.502 107.5 135.605 108.021 133.787C107.483 135.605 107.196 137.519 107.196 139.503C107.196 141.974 107.639 144.35 108.447 146.551C107.656 144.35 107.222 141.966 107.222 139.468Z" fill="#1B0050"/>
<path d="M153.163 59.9502L153.145 59.9676V143.123C153.145 146.064 152.642 148.883 151.73 151.511C152.668 148.883 153.171 146.055 153.171 143.123V59.9502H153.163ZM151.096 153.164C151.174 152.972 151.261 152.781 151.322 152.589C151.209 152.877 151.087 153.164 150.966 153.451C151.018 153.355 151.061 153.259 151.096 153.164ZM149.551 156.192C149.907 155.609 150.228 155.008 150.532 154.391C150.688 154.077 150.844 153.764 150.966 153.451C150.401 154.712 149.742 155.922 148.995 157.062C149.195 156.775 149.377 156.487 149.551 156.192ZM148.231 139.503C148.231 139.634 148.231 139.773 148.222 139.912C148.222 140.043 148.205 140.164 148.196 140.304V140.765C148.231 140.347 148.239 139.93 148.239 139.503C148.239 139.32 148.239 139.129 148.222 138.946C148.231 139.112 148.231 139.294 148.231 139.468V139.503ZM148.179 138.137C148.196 138.242 148.196 138.355 148.196 138.45C148.205 138.616 148.222 138.781 148.222 138.946C148.222 138.668 148.213 138.389 148.187 138.111C148.187 138.12 148.187 138.128 148.187 138.137H148.179ZM148.179 138.076C148.179 138.015 148.179 137.946 148.161 137.885C148.17 137.946 148.17 137.998 148.17 138.059C148.17 138.068 148.17 138.076 148.17 138.076H148.179ZM148.153 141.182C148.153 141.243 148.153 141.304 148.135 141.365C148.135 141.417 148.127 141.47 148.109 141.522C148.109 141.583 148.109 141.652 148.101 141.713C148.101 141.774 148.101 141.844 148.083 141.905C148.118 141.644 148.144 141.383 148.161 141.122C148.161 141.139 148.161 141.165 148.153 141.182ZM148.135 137.606C148.135 137.606 148.153 137.624 148.144 137.632C148.135 137.493 148.118 137.363 148.101 137.232C148.109 137.284 148.109 137.328 148.109 137.389C148.109 137.45 148.135 137.545 148.135 137.606ZM148.04 136.719C148.048 136.788 148.057 136.858 148.057 136.936C148.074 136.98 148.074 137.032 148.074 137.084C148.083 137.119 148.092 137.137 148.092 137.163C148.083 137.015 148.066 136.867 148.04 136.719ZM147.996 136.475V136.51C148.014 136.58 148.031 136.649 148.04 136.719C148.022 136.588 148.005 136.467 147.988 136.336C147.996 136.388 147.996 136.44 147.996 136.475ZM147.996 142.47V142.514C147.97 142.609 147.962 142.723 147.944 142.827C147.918 142.984 147.892 143.131 147.875 143.288C147.936 143.01 147.979 142.723 148.022 142.435C148.014 142.435 148.014 142.444 148.014 142.444C147.996 142.444 147.996 142.462 147.996 142.47ZM147.588 144.567C147.658 144.297 147.719 144.028 147.771 143.767C147.814 143.61 147.84 143.445 147.875 143.288C147.779 143.836 147.658 144.384 147.51 144.915C147.536 144.793 147.562 144.68 147.588 144.567ZM147.823 135.422C147.788 135.231 147.745 135.048 147.692 134.866C147.736 135.031 147.771 135.205 147.805 135.37C147.805 135.388 147.823 135.414 147.823 135.422ZM147.085 146.264C147.128 146.133 147.18 146.003 147.215 145.872C147.059 146.36 146.885 146.847 146.685 147.317C146.711 147.264 146.729 147.212 146.746 147.151C146.859 146.856 146.972 146.568 147.085 146.264ZM146.972 132.447C147.033 132.595 147.085 132.751 147.137 132.899C147.05 132.603 146.937 132.316 146.824 132.029C146.859 132.125 146.894 132.22 146.92 132.316C146.946 132.36 146.963 132.403 146.972 132.447ZM146.668 131.655C146.711 131.742 146.746 131.829 146.781 131.925C146.72 131.759 146.659 131.594 146.581 131.429C146.581 131.455 146.59 131.472 146.59 131.49C146.616 131.542 146.642 131.611 146.668 131.655ZM146.607 147.465C146.52 147.699 146.425 147.926 146.321 148.143C146.451 147.874 146.572 147.595 146.685 147.317C146.659 147.369 146.642 147.421 146.607 147.465ZM146.26 130.733C146.26 130.733 146.286 130.776 146.295 130.794C146.277 130.75 146.26 130.706 146.234 130.663C146.242 130.68 146.26 130.706 146.26 130.733ZM146.199 130.593C146.199 130.593 146.225 130.646 146.234 130.663C146.208 130.593 146.173 130.524 146.138 130.463C146.164 130.506 146.182 130.55 146.199 130.593ZM145.782 161.047C145.296 161.525 144.801 161.995 144.289 162.439C144.801 162.004 145.305 161.534 145.782 161.047ZM145.009 150.519C145.009 150.519 144.975 150.597 144.949 150.632C144.992 150.58 145.027 150.519 145.062 150.458C145.044 150.484 145.027 150.501 145.009 150.519ZM144.871 150.736C144.818 150.806 144.784 150.849 144.749 150.901C144.671 151.015 144.601 151.128 144.532 151.241C144.671 151.041 144.818 150.841 144.949 150.632C144.923 150.675 144.897 150.71 144.871 150.736ZM144.532 151.241C144.454 151.345 144.393 151.45 144.315 151.554C144.376 151.476 144.428 151.397 144.48 151.319C144.497 151.293 144.515 151.267 144.532 151.241ZM144.315 151.554C144.263 151.632 144.202 151.711 144.141 151.78C144.106 151.824 144.072 151.876 144.037 151.928C144.141 151.806 144.237 151.676 144.315 151.554ZM144.089 127.13C144.028 127.043 143.959 126.956 143.889 126.869C143.95 126.956 144.002 127.035 144.063 127.13H144.089ZM143.325 152.807C143.221 152.92 143.125 153.042 143.021 153.164C143.16 153.016 143.29 152.868 143.412 152.711C143.377 152.737 143.351 152.772 143.325 152.807ZM143.012 125.817C142.952 125.738 142.882 125.66 142.813 125.59C142.839 125.625 142.856 125.651 142.882 125.686C142.926 125.73 142.969 125.773 143.012 125.817ZM142.049 154.173C141.997 154.225 141.945 154.277 141.892 154.338C142.04 154.208 142.188 154.06 142.309 153.921C142.222 154.008 142.136 154.095 142.049 154.173ZM141.406 154.782L141.398 154.799C141.493 154.721 141.589 154.634 141.675 154.538C141.58 154.625 141.493 154.704 141.406 154.782ZM144.289 162.439C142.743 163.77 141.033 164.927 139.201 165.867C141.042 164.945 142.743 163.788 144.289 162.439ZM139.513 122.693C139.366 122.58 139.209 122.475 139.053 122.371C139.088 122.397 139.123 122.423 139.166 122.458C139.288 122.536 139.4 122.615 139.513 122.693ZM138.142 121.805C138.037 121.736 137.942 121.675 137.829 121.623C137.855 121.64 137.89 121.666 137.916 121.692C137.994 121.736 138.063 121.771 138.142 121.805ZM137.568 121.475C137.568 121.475 137.508 121.431 137.482 121.423C137.499 121.44 137.516 121.449 137.534 121.466C137.534 121.466 137.56 121.466 137.568 121.475ZM137.056 157.784C136.987 157.827 136.917 157.862 136.856 157.888C137.056 157.801 137.247 157.697 137.438 157.592C137.308 157.662 137.178 157.723 137.056 157.784ZM139.201 165.867C138.28 166.328 137.325 166.746 136.353 167.103C137.334 166.763 138.289 166.346 139.201 165.867ZM135.007 158.689C135.007 158.689 134.99 158.706 134.972 158.724C135.155 158.654 135.337 158.576 135.519 158.497C135.346 158.558 135.181 158.619 135.007 158.689ZM133.626 167.921C133.878 167.868 134.121 167.799 134.356 167.738C135.033 167.555 135.702 167.346 136.353 167.103C135.693 167.338 135.033 167.546 134.356 167.729C134.113 167.799 133.87 167.86 133.626 167.921ZM134.599 120.144C134.599 120.144 134.599 120.144 134.616 120.144C134.512 120.1 134.408 120.065 134.295 120.039C134.382 120.083 134.46 120.109 134.547 120.144C134.564 120.144 134.59 120.144 134.599 120.144ZM132.888 159.385C133.062 159.341 133.236 159.298 133.409 159.237C133.297 159.263 133.184 159.289 133.071 159.333C133.019 159.359 132.958 159.367 132.888 159.385ZM132.663 119.552C132.723 119.569 132.784 119.587 132.845 119.604C132.906 119.613 132.949 119.63 133.01 119.639C132.897 119.604 132.784 119.569 132.663 119.552ZM131.517 159.672C131.517 159.672 131.438 159.698 131.395 159.707C131.638 159.663 131.89 159.629 132.133 159.568C131.951 159.602 131.734 159.637 131.517 159.672ZM131.36 159.716C131.36 159.716 131.386 159.716 131.395 159.707C131.369 159.707 131.343 159.716 131.308 159.724C131.326 159.724 131.343 159.724 131.352 159.724L131.36 159.716ZM131.1 159.75C131.1 159.75 131.004 159.75 130.97 159.785C131.082 159.768 131.195 159.742 131.317 159.724C131.308 159.724 131.3 159.724 131.282 159.724C131.221 159.742 131.161 159.75 131.1 159.75ZM130.466 119.134C130.588 119.143 130.7 119.169 130.831 119.195C130.917 119.221 131.004 119.221 131.1 119.239C131.117 119.239 131.135 119.239 131.152 119.239C130.839 119.186 130.527 119.134 130.206 119.091C130.292 119.099 130.379 119.108 130.466 119.126V119.134ZM128.764 118.96C129.25 118.986 129.728 119.039 130.206 119.099C130.075 119.082 129.936 119.065 129.806 119.047C129.467 119.012 129.112 118.978 128.764 118.96ZM131.152 119.247C131.551 119.317 131.951 119.378 132.333 119.474C131.994 119.387 131.656 119.326 131.326 119.273C131.265 119.256 131.204 119.247 131.152 119.247ZM128.695 160.02C128.868 160.011 129.051 160.02 129.224 159.994C129.511 159.977 129.797 159.95 130.084 159.907C129.806 159.916 129.52 159.942 129.207 159.977C129.033 159.994 128.868 160.003 128.695 160.02ZM126.585 118.978C126.715 118.969 126.837 118.96 126.967 118.951C126.819 118.951 126.663 118.96 126.515 118.978H126.585ZM123.72 119.334C123.867 119.3 124.023 119.282 124.18 119.256C124.145 119.256 124.11 119.265 124.067 119.273C123.954 119.291 123.841 119.317 123.72 119.334ZM124.9 119.152C124.9 119.152 124.944 119.143 124.97 119.152C125.421 119.073 125.882 119.012 126.333 118.986C126.394 118.986 126.455 118.969 126.515 118.969C125.908 118.995 125.308 119.065 124.718 119.16C124.779 119.16 124.84 119.16 124.9 119.143V119.152ZM124.649 119.178C124.649 119.178 124.692 119.178 124.718 119.169C124.701 119.169 124.692 119.169 124.675 119.169C124.675 119.169 124.657 119.169 124.649 119.169V119.178ZM124.588 119.195C124.588 119.195 124.631 119.186 124.649 119.178C124.492 119.204 124.336 119.23 124.18 119.256C124.319 119.239 124.449 119.213 124.588 119.195ZM124.614 159.811C124.944 159.863 125.282 159.907 125.621 159.95C125.144 159.898 124.666 159.837 124.197 159.75C124.336 159.768 124.475 159.794 124.614 159.811ZM123.372 119.413C123.485 119.387 123.607 119.36 123.72 119.334C123.52 119.369 123.32 119.413 123.12 119.465C123.207 119.439 123.285 119.421 123.372 119.413ZM122.669 119.578C122.747 119.552 122.825 119.526 122.903 119.517C122.764 119.543 122.626 119.578 122.487 119.613C122.547 119.604 122.608 119.587 122.669 119.578ZM120.672 158.802C121.297 159.037 121.931 159.237 122.582 159.394C122.252 159.307 121.94 159.211 121.618 159.115C121.297 159.019 120.984 158.915 120.672 158.802ZM122.452 119.63C122.33 119.656 122.209 119.691 122.087 119.726C122.148 119.708 122.217 119.691 122.278 119.682C122.33 119.665 122.391 119.648 122.452 119.63ZM120.038 120.448C120.22 120.378 120.403 120.3 120.594 120.239C120.707 120.196 120.828 120.152 120.95 120.109C120.055 120.422 119.187 120.779 118.362 121.214C118.414 121.188 118.467 121.179 118.519 121.162C118.849 120.988 119.178 120.831 119.517 120.683C119.691 120.605 119.856 120.526 120.038 120.448ZM121.123 120.048C121.063 120.065 121.011 120.091 120.95 120.109C121.037 120.074 121.123 120.048 121.219 120.013C121.184 120.022 121.158 120.03 121.123 120.048ZM121.87 119.787C121.644 119.856 121.436 119.943 121.219 120.013C121.367 119.961 121.523 119.909 121.67 119.865C121.731 119.839 121.801 119.813 121.87 119.787ZM119.734 158.419C120.038 158.558 120.342 158.68 120.655 158.793C120.186 158.628 119.734 158.437 119.283 158.228C119.43 158.297 119.578 158.367 119.734 158.419ZM117.277 121.823C117.39 121.762 117.52 121.684 117.659 121.623C117.694 121.597 117.728 121.57 117.755 121.544C117.59 121.631 117.433 121.718 117.277 121.823ZM116.912 122.049C117.025 121.971 117.147 121.892 117.277 121.823C117.086 121.919 116.912 122.032 116.739 122.153C116.799 122.119 116.852 122.084 116.912 122.049ZM116.565 122.267C116.565 122.267 116.548 122.267 116.539 122.275C116.556 122.293 116.556 122.275 116.565 122.267ZM116.087 122.597C116.087 122.597 116.166 122.545 116.218 122.528C116.313 122.449 116.4 122.388 116.496 122.31C116.331 122.414 116.174 122.519 116.018 122.641C116.035 122.623 116.061 122.606 116.087 122.597ZM116.174 156.47C116.174 156.47 116.131 156.444 116.114 156.435C116.2 156.496 116.287 156.557 116.383 156.618C116.339 156.592 116.305 156.566 116.261 156.531C116.235 156.505 116.218 156.496 116.174 156.47ZM115.002 155.609C115.193 155.765 115.393 155.922 115.593 156.061C115.523 156 115.445 155.939 115.375 155.887C115.254 155.8 115.124 155.704 115.002 155.609ZM114.108 154.852C114.394 155.121 114.69 155.374 115.002 155.609C114.811 155.452 114.62 155.287 114.429 155.121C114.316 155.026 114.212 154.939 114.108 154.852ZM114.542 123.772C114.334 123.937 114.134 124.111 113.934 124.303C114.012 124.242 114.09 124.189 114.169 124.129C114.29 123.998 114.42 123.885 114.542 123.772ZM113.543 124.668C113.543 124.668 113.578 124.642 113.596 124.625C113.708 124.511 113.821 124.407 113.934 124.303C113.804 124.416 113.665 124.538 113.543 124.668ZM112.649 125.608C112.71 125.538 112.762 125.46 112.84 125.399C112.84 125.39 112.84 125.382 112.849 125.373C112.684 125.538 112.528 125.712 112.38 125.886C112.467 125.79 112.554 125.703 112.649 125.608ZM111.737 126.678V126.643C111.633 126.774 111.529 126.904 111.434 127.043C111.529 126.922 111.633 126.791 111.737 126.678ZM110.8 127.931C110.904 127.766 111.017 127.6 111.13 127.452C110.93 127.713 110.748 127.974 110.583 128.244C110.643 128.14 110.722 128.035 110.8 127.931ZM110.392 128.549C110.452 128.453 110.513 128.349 110.583 128.244C110.496 128.366 110.418 128.488 110.348 128.61C110.348 128.592 110.374 128.575 110.392 128.549ZM110.322 128.67C110.322 128.67 110.34 128.627 110.348 128.61C110.287 128.705 110.227 128.792 110.175 128.888C110.218 128.818 110.27 128.749 110.322 128.67ZM110.044 129.114C110.088 129.036 110.131 128.958 110.175 128.888C110.053 129.088 109.931 129.288 109.827 129.488C109.897 129.358 109.966 129.236 110.044 129.114ZM109.688 149.283C109.219 148.413 108.811 147.499 108.455 146.56C108.794 147.499 109.211 148.413 109.688 149.283ZM107.231 139.468C107.231 137.502 107.509 135.605 108.03 133.787C107.492 135.605 107.205 137.519 107.205 139.503C107.205 141.974 107.648 144.35 108.455 146.551C107.665 144.35 107.231 141.966 107.231 139.468Z" fill="#270075"/>
<path d="M102.299 95.3362V143.122C102.299 150.144 105.147 156.53 109.766 161.124C114.35 165.762 120.715 168.598 127.722 168.598C128.295 168.598 128.859 168.581 129.423 168.546C129.927 168.511 130.431 168.459 130.934 168.398C130.995 168.398 131.047 168.39 131.108 168.381C131.143 168.372 131.169 168.372 131.203 168.364C131.473 168.329 131.742 168.285 132.002 168.242C132.306 168.189 132.601 168.137 132.897 168.076C133.14 168.024 133.391 167.972 133.635 167.92C133.878 167.859 134.121 167.798 134.364 167.728C135.041 167.546 135.701 167.337 136.361 167.102C137.333 166.745 138.288 166.327 139.209 165.866C141.041 164.927 142.751 163.769 144.297 162.438C144.809 161.994 145.304 161.525 145.79 161.037C146.033 160.794 146.268 160.55 146.494 160.298C146.719 160.045 146.945 159.793 147.162 159.532C147.318 159.349 147.466 159.167 147.614 158.984C147.787 158.766 147.961 158.549 148.117 158.323C148.421 157.914 148.716 157.496 148.994 157.061C149.741 155.921 150.401 154.712 150.965 153.45C151.087 153.163 151.208 152.876 151.321 152.589C151.339 152.58 151.339 152.571 151.321 152.563C151.356 152.519 151.373 152.476 151.382 152.432C151.399 152.397 151.417 152.362 151.425 152.328C151.521 152.058 151.616 151.788 151.721 151.51C152.632 148.882 153.136 146.063 153.136 143.122V59.9668L102.29 95.3362H102.299ZM148.195 140.764V140.834C148.195 140.929 148.195 141.016 148.169 141.121C148.152 141.382 148.126 141.643 148.091 141.904C148.083 142.06 148.056 142.226 148.039 142.391C148.039 142.417 148.03 142.417 148.03 142.435C147.987 142.722 147.944 143.009 147.883 143.287C147.787 143.835 147.666 144.384 147.518 144.914C147.483 145.062 147.44 145.21 147.397 145.358C147.345 145.532 147.292 145.697 147.223 145.871C147.067 146.359 146.893 146.846 146.693 147.316C146.58 147.594 146.459 147.873 146.329 148.142C146.216 148.395 146.094 148.638 145.964 148.882C145.955 148.908 145.938 148.934 145.929 148.96C145.903 149.013 145.877 149.065 145.851 149.117C145.799 149.221 145.738 149.326 145.677 149.43C145.625 149.526 145.573 149.63 145.512 149.726C145.46 149.839 145.4 149.952 145.321 150.065C145.287 150.144 145.243 150.178 145.209 150.257C145.174 150.292 145.148 150.344 145.122 150.379C145.104 150.405 145.087 150.431 145.07 150.457C145.035 150.518 145 150.579 144.957 150.631C144.757 150.944 144.549 151.249 144.323 151.553C144.245 151.675 144.149 151.806 144.045 151.927C144.01 151.98 143.976 152.032 143.932 152.084C143.819 152.241 143.706 152.371 143.576 152.519C143.559 152.545 143.524 152.58 143.498 152.615C143.472 152.641 143.446 152.676 143.42 152.71C143.298 152.867 143.168 153.015 143.029 153.163C142.96 153.241 142.89 153.328 142.821 153.415C142.803 153.433 142.786 153.441 142.777 153.45L142.717 153.511C142.578 153.65 142.447 153.789 142.317 153.92C142.196 154.059 142.048 154.207 141.9 154.338C141.831 154.398 141.762 154.468 141.683 154.538C141.597 154.633 141.501 154.72 141.406 154.799C141.406 154.799 141.403 154.802 141.397 154.807C141.397 154.807 141.38 154.842 141.38 154.86C141.197 154.999 141.05 155.121 140.885 155.251C140.72 155.39 140.563 155.53 140.39 155.651C140.329 155.704 140.259 155.756 140.199 155.799C140.086 155.886 139.973 155.973 139.86 156.052C139.66 156.2 139.469 156.339 139.27 156.487C139.079 156.608 138.888 156.739 138.697 156.852L138.61 156.913C138.61 156.913 138.558 156.939 138.532 156.965C138.471 157 138.401 157.044 138.341 157.078C138.306 157.104 138.262 157.122 138.228 157.148C138.123 157.2 138.019 157.27 137.924 157.331C137.898 157.331 137.872 157.357 137.846 157.365C137.707 157.444 137.576 157.522 137.446 157.592C137.255 157.696 137.064 157.801 136.865 157.888C136.795 157.922 136.734 157.957 136.673 157.992C136.604 158.027 136.535 158.053 136.465 158.088C136.396 158.122 136.335 158.157 136.265 158.192C136.109 158.253 135.962 158.314 135.814 158.383C135.736 158.418 135.658 158.444 135.579 158.479C135.562 158.488 135.545 158.488 135.527 158.497C135.345 158.575 135.163 158.653 134.98 158.723C134.98 158.732 134.972 158.732 134.963 158.74C134.963 158.74 134.954 158.746 134.937 158.758C134.824 158.801 134.711 158.827 134.598 158.862C134.581 158.862 134.572 158.871 134.555 158.871C134.338 158.958 134.112 159.027 133.895 159.097C133.869 159.106 133.834 159.123 133.808 159.132C133.8 159.132 133.773 159.132 133.756 159.14C133.643 159.184 133.53 159.21 133.417 159.236C133.244 159.297 133.07 159.341 132.897 159.384C132.888 159.384 132.888 159.393 132.879 159.393C132.827 159.419 132.766 159.436 132.697 159.445C132.671 159.445 132.645 159.462 132.619 159.462C132.593 159.471 132.575 159.48 132.549 159.48C132.532 159.48 132.506 159.48 132.488 159.489C132.471 159.489 132.445 159.497 132.428 159.523C132.384 159.523 132.332 159.532 132.289 159.532C132.245 159.549 132.202 159.558 132.167 159.558C132.158 159.558 132.15 159.558 132.141 159.558C131.759 159.645 131.368 159.715 130.978 159.776L130.96 159.784C130.804 159.802 130.665 159.828 130.517 159.845C130.413 159.863 130.318 159.88 130.205 159.897H130.092C129.805 159.941 129.519 159.967 129.232 159.984C128.764 160.028 128.277 160.045 127.791 160.045H127.73C127.383 160.045 127.027 160.045 126.671 160.019C126.324 160.002 125.976 159.976 125.629 159.941C125.152 159.889 124.674 159.828 124.205 159.741C124.005 159.706 123.806 159.663 123.615 159.628H123.597C123.25 159.549 122.92 159.471 122.59 159.384C121.939 159.227 121.305 159.027 120.68 158.792C120.68 158.792 120.68 158.792 120.663 158.792C120.194 158.627 119.742 158.436 119.291 158.227C119.134 158.166 118.978 158.088 118.831 158.018C118.64 157.914 118.449 157.827 118.258 157.722C118.249 157.714 118.231 157.714 118.223 157.705C118.049 157.618 117.875 157.522 117.702 157.409C117.511 157.305 117.32 157.2 117.129 157.087C116.946 156.974 116.755 156.852 116.564 156.722C116.504 156.687 116.443 156.661 116.391 156.617C116.295 156.556 116.208 156.495 116.122 156.434C116.096 156.417 116.069 156.4 116.035 156.382C116.009 156.365 116 156.347 115.991 156.347C115.983 156.339 115.974 156.339 115.957 156.339C115.844 156.252 115.731 156.165 115.618 156.078L115.601 156.06C115.401 155.921 115.201 155.764 115.01 155.608C114.698 155.373 114.402 155.121 114.116 154.851C114.02 154.773 113.925 154.686 113.829 154.59C113.821 154.59 113.821 154.581 113.803 154.572C113.795 154.564 113.786 154.555 113.777 154.555C113.578 154.372 113.413 154.207 113.23 154.024H113.222C112.987 153.789 112.761 153.554 112.553 153.311C112.379 153.128 112.206 152.937 112.049 152.737C111.963 152.641 111.876 152.536 111.798 152.432C111.667 152.275 111.537 152.11 111.407 151.936C111.207 151.675 111.016 151.405 110.825 151.127C110.599 150.805 110.391 150.483 110.191 150.152C110.018 149.857 109.853 149.578 109.696 149.282C109.219 148.412 108.802 147.499 108.463 146.559C107.656 144.349 107.213 141.973 107.213 139.502C107.213 137.519 107.5 135.604 108.038 133.786C108.09 133.568 108.16 133.359 108.229 133.151C108.298 132.951 108.359 132.75 108.437 132.55C108.472 132.428 108.516 132.315 108.568 132.202C108.681 131.88 108.811 131.558 108.958 131.245C109.106 130.888 109.271 130.54 109.453 130.192C109.462 130.184 109.462 130.166 109.471 130.158C109.531 130.062 109.583 129.957 109.636 129.862C109.705 129.731 109.775 129.609 109.835 129.488C109.939 129.287 110.061 129.087 110.183 128.887C110.235 128.791 110.295 128.704 110.356 128.609C110.426 128.487 110.504 128.365 110.591 128.243C110.756 127.974 110.938 127.713 111.138 127.452C111.225 127.312 111.329 127.173 111.442 127.043C111.537 126.903 111.641 126.773 111.745 126.642C111.963 126.373 112.171 126.12 112.388 125.885C112.536 125.711 112.692 125.537 112.857 125.372C112.857 125.363 112.874 125.355 112.883 125.346C112.952 125.259 113.031 125.181 113.109 125.102C113.239 124.963 113.369 124.841 113.499 124.711C113.525 124.693 113.543 124.685 113.551 124.667C113.673 124.537 113.812 124.415 113.942 124.302C114.142 124.11 114.342 123.936 114.55 123.771C114.602 123.719 114.663 123.658 114.732 123.623C114.802 123.562 114.871 123.501 114.941 123.44C115.201 123.223 115.453 123.023 115.731 122.831C115.826 122.762 115.913 122.692 116.026 122.64C116.182 122.518 116.339 122.414 116.504 122.309C116.512 122.301 116.53 122.283 116.547 122.274C116.547 122.266 116.564 122.266 116.573 122.266C116.634 122.222 116.686 122.187 116.747 122.153C116.92 122.031 117.094 121.918 117.285 121.822C117.441 121.718 117.598 121.631 117.763 121.544C117.763 121.544 117.768 121.541 117.78 121.535C117.875 121.457 117.962 121.404 118.066 121.352C118.162 121.3 118.266 121.256 118.353 121.222C118.353 121.222 118.359 121.219 118.37 121.213C119.482 120.63 120.654 120.151 121.878 119.786C121.887 119.786 121.896 119.777 121.904 119.777C121.965 119.76 122.034 119.742 122.095 119.725C122.217 119.69 122.338 119.655 122.46 119.629C122.46 119.621 122.486 119.621 122.495 119.612C122.634 119.577 122.773 119.542 122.911 119.516C122.99 119.49 123.059 119.473 123.128 119.464C123.328 119.412 123.528 119.368 123.728 119.334C124.639 119.142 125.568 119.02 126.523 118.977C126.671 118.959 126.827 118.951 126.975 118.951C127.227 118.933 127.479 118.933 127.73 118.933C128.078 118.933 128.425 118.933 128.781 118.959C129.997 119.02 131.195 119.194 132.35 119.473C132.462 119.49 132.575 119.516 132.679 119.551C132.801 119.568 132.914 119.603 133.027 119.638H133.035C133.235 119.69 133.452 119.742 133.661 119.812C133.878 119.873 134.095 119.943 134.312 120.03C134.425 120.056 134.529 120.091 134.633 120.134C134.642 120.134 134.65 120.134 134.659 120.134C134.694 120.134 134.72 120.151 134.755 120.16C135.059 120.273 135.397 120.395 135.701 120.543C136.022 120.673 136.309 120.795 136.613 120.952C136.673 120.978 136.743 121.004 136.804 121.039C136.96 121.117 137.099 121.187 137.29 121.3C137.342 121.326 137.412 121.361 137.472 121.404C137.481 121.404 137.49 121.404 137.498 121.413C137.524 121.422 137.559 121.439 137.585 121.465C137.594 121.465 137.611 121.474 137.611 121.483C137.62 121.483 137.629 121.483 137.637 121.483C137.724 121.509 137.785 121.544 137.846 121.604C137.959 121.657 138.054 121.718 138.158 121.787C138.228 121.813 138.288 121.857 138.349 121.9C138.41 121.926 138.462 121.97 138.514 122.005C138.532 122.013 138.549 122.022 138.566 122.04C138.74 122.118 138.888 122.214 139.035 122.327C139.044 122.335 139.053 122.344 139.07 122.353C139.226 122.457 139.382 122.562 139.53 122.675C139.574 122.71 139.626 122.744 139.669 122.77C139.912 122.944 140.147 123.118 140.381 123.31C140.511 123.406 140.65 123.51 140.78 123.614C141.041 123.841 141.267 124.032 141.536 124.258L142.057 124.78L142.222 124.946C142.222 124.946 142.265 124.98 142.283 125.007C142.3 125.024 142.326 125.041 142.343 125.059C142.5 125.189 142.621 125.329 142.751 125.476C142.777 125.511 142.803 125.546 142.83 125.572C142.899 125.642 142.968 125.72 143.029 125.798C143.029 125.798 143.035 125.804 143.047 125.816C143.047 125.816 143.133 125.911 143.186 125.964C143.298 126.085 143.411 126.216 143.507 126.338C143.524 126.364 143.541 126.381 143.559 126.407C143.611 126.468 143.654 126.529 143.698 126.581C143.776 126.686 143.837 126.755 143.906 126.851C143.976 126.938 144.045 127.025 144.106 127.112H144.115C144.115 127.112 144.158 127.164 144.167 127.19C144.201 127.234 144.227 127.278 144.262 127.312C144.436 127.547 144.592 127.756 144.766 127.991C145.104 128.557 145.443 129.079 145.79 129.688C145.929 129.949 146.051 130.184 146.155 130.445C146.19 130.506 146.224 130.575 146.25 130.645C146.277 130.688 146.294 130.732 146.311 130.775C146.433 130.967 146.537 131.176 146.589 131.384C146.589 131.393 146.598 131.402 146.598 131.41C146.676 131.576 146.737 131.741 146.798 131.906C146.815 131.941 146.824 131.976 146.841 132.011C146.954 132.298 147.067 132.585 147.153 132.881C147.153 132.898 147.171 132.924 147.18 132.942C147.232 133.09 147.292 133.22 147.327 133.377C147.371 133.525 147.423 133.69 147.457 133.855C147.466 133.873 147.466 133.899 147.475 133.916C147.509 134.021 147.544 134.134 147.57 134.256C147.579 134.291 147.588 134.325 147.596 134.369C147.631 134.525 147.674 134.682 147.709 134.847C147.761 135.03 147.805 135.213 147.839 135.404C147.848 135.439 147.857 135.465 147.857 135.5C147.9 135.665 147.926 135.839 147.952 136.022C147.961 136.074 147.97 136.126 147.978 136.187C147.996 136.231 148.004 136.274 148.004 136.318C148.022 136.448 148.039 136.57 148.056 136.701C148.083 136.849 148.1 136.996 148.109 137.144C148.117 137.171 148.117 137.188 148.117 137.214C148.135 137.345 148.152 137.475 148.161 137.614C148.169 137.623 148.169 137.632 148.169 137.64C148.178 137.701 148.187 137.762 148.178 137.832C148.187 137.849 148.187 137.858 148.178 137.867C148.187 137.928 148.195 137.997 148.195 138.058C148.204 138.075 148.204 138.084 148.195 138.093C148.221 138.371 148.23 138.65 148.23 138.928C148.248 139.111 148.248 139.302 148.248 139.485C148.248 139.911 148.248 140.329 148.204 140.747L148.195 140.764Z" fill="#270075"/>
<path d="M146.746 205.248L77.7882 245.82C72.9259 243.75 68.2199 241.374 63.6788 238.746C26.8121 217.299 1.62366 177.883 0.0781442 132.455C0.0260481 130.959 0 129.471 0 127.992C0 124.085 0.173654 120.222 0.520961 116.42L62.8887 59.9502V143.123C62.8887 178.953 91.9757 208.093 127.714 208.093C134.339 208.093 140.729 207.092 146.746 205.248Z" fill="#270075"/>
<defs>
<linearGradient id="paint0_linear_1858_2490" x1="-0.103158" y1="126.699" x2="254.962" y2="126.699" gradientUnits="userSpaceOnUse">
<stop stop-color="#8500C2"/>
<stop offset="0.17" stop-color="#8B00B9"/>
<stop offset="0.44" stop-color="#9E00A3"/>
<stop offset="0.77" stop-color="#BB007F"/>
<stop offset="1" stop-color="#D40062"/>
</linearGradient>
</defs>
</svg>
