<svg width="256" height="256" viewBox="0 0 256 256" fill="none" xmlns="http://www.w3.org/2000/svg">
<g clip-path="url(#clip0_2542_1338)">
<path d="M256 128C256 57.3075 198.692 0 128 0C57.3075 0 0 57.3075 0 128C0 198.692 57.3075 256 128 256C198.692 256 256 198.692 256 128Z" fill="#7B8D9B"/>
<path d="M101.841 1.87586C88.796 4.82145 80.8088 7.63315 68.429 14.0599C37.5461 29.9929 14.2508 58.3777 3.73466 93.0552C0.406768 103.901 0.00742034 106.98 0.00742034 127.063C-0.125696 151.164 1.4717 159.733 9.72488 179.281C24.6338 214.494 57.3804 242.343 95.8512 252.385C106.899 255.33 111.958 255.866 127 256C159.746 256 186.503 246.494 210.198 226.544C233.226 206.996 248.269 181.69 254.126 152.637C257.321 137.239 256.255 107.917 252.262 93.5912C238.95 47.1309 199.682 10.8466 152.558 1.74197C140.312 -0.668058 113.023 -0.534168 101.841 1.87586ZM160.146 27.8506C177.451 33.7418 189.698 41.2397 202.344 53.9593C214.99 66.8127 222.444 78.8629 228.302 96.2688C232.294 108.051 232.694 110.327 232.694 127.063C232.827 146.611 231.097 154.913 224.042 170.846C219.116 181.958 213.392 190.394 203.675 200.435C183.175 221.858 157.617 232.837 128.464 232.837C86.4 232.837 51.6564 211.013 32.4877 172.72C25.6988 158.93 22.7702 146.076 22.7702 128.402C22.7702 109.39 25.1663 98.5448 33.1533 82.2104C43.2701 61.3233 58.7115 45.3902 79.0783 34.813C97.9808 25.039 108.896 22.6289 131.659 23.1645C145.37 23.5661 149.363 24.2356 160.146 27.8506Z" fill="black"/>
<path d="M115.953 32.0013C77.3493 36.6876 46.0671 63.5995 34.2198 102.294C32.3561 108.453 31.8237 114.478 31.9568 128.402C31.9568 144.202 32.4892 147.817 35.5509 157.189C40.6093 172.586 47.5314 183.699 59.778 196.151C76.2844 212.887 97.716 222.527 122.342 224.402C134.722 225.206 151.362 222.527 164.008 217.574C191.163 206.862 214.193 180.486 221.514 151.699C224.842 138.846 225.108 118.093 222.046 105.775C210.598 58.2439 164.407 26.1102 115.953 32.0013ZM142.576 66.679C149.365 70.1601 156.686 78.5953 158.683 85.424C162.278 97.34 159.748 108.319 151.362 117.825L145.505 124.252L153.092 156.386C157.219 173.926 160.281 189.322 159.882 190.528C159.082 192.402 155.222 192.67 127.8 192.67C99.0472 192.67 96.5184 192.536 95.8528 190.26C95.4528 188.921 98.3816 174.059 102.375 157.189C106.369 140.319 109.697 125.725 109.697 124.654C109.697 123.582 108.232 121.574 106.369 120.102C104.505 118.629 101.443 114.612 99.3136 111.265C96.3848 106.043 95.7192 103.365 95.7192 95.5992C95.7192 87.8336 96.3848 85.156 99.4464 79.9341C108.498 64.4029 127.134 58.6456 142.576 66.679Z" fill="black"/>
<path d="M116.615 74.311C107.297 79.1311 102.639 90.1105 104.901 102.16C105.7 106.445 109.427 111.131 117.415 117.826C120.343 120.37 120.875 117.424 110.891 158.93C108.096 170.846 105.7 181.558 105.7 182.628C105.7 184.369 109.294 184.637 128.463 184.637C146.699 184.637 151.092 184.235 150.56 182.896C149.095 179.147 136.317 123.047 136.317 120.771C136.45 119.432 138.713 116.754 141.641 114.746C148.297 110.06 151.492 104.034 151.492 95.5993C151.492 82.2105 142.839 73.2399 129.128 72.5705C123.404 72.1688 119.677 72.7043 116.615 74.311Z" fill="black"/>
</g>
<defs>
<clipPath id="clip0_2542_1338">
<rect width="256" height="256" fill="white"/>
</clipPath>
</defs>
</svg>
