<svg width="256" height="256" viewBox="0 0 256 256" fill="none" xmlns="http://www.w3.org/2000/svg">
<g clip-path="url(#clip0_2276_328)">
<path d="M128 256C198.692 256 256 198.692 256 128C256 57.3075 198.692 0 128 0C57.3076 0 0 57.3075 0 128C0 198.692 57.3076 256 128 256Z" fill="#006AF9"/>
<path fill-rule="evenodd" clip-rule="evenodd" d="M210.213 118.075C212.503 123.79 213.633 129.903 213.538 136.059H213.549C213.549 156.066 205.601 175.252 191.455 189.399C177.308 203.545 158.122 211.493 138.115 211.493C118.109 211.493 98.9226 203.545 84.7762 189.399C74.5244 179.147 67.5282 166.248 64.4531 152.309H62.1193C56.7833 152.309 51.6659 150.189 47.8928 146.416C44.1197 142.643 42 137.526 42 132.19V127.16H57.0895C59.0722 127.16 61.0354 127.551 62.867 128.31C64.6986 129.069 66.3626 130.181 67.764 131.584C69.1654 132.986 70.2765 134.652 71.0342 136.484C71.7916 138.316 72.1807 140.28 72.1788 142.262C72.1754 138.263 73.7599 134.426 76.5846 131.593C79.4089 128.761 83.2422 127.167 87.2416 127.16H102.345V132.19C102.346 134.831 101.828 137.447 100.818 139.888C99.8081 142.329 98.3276 144.547 96.4603 146.415C94.5929 148.284 92.3761 149.766 89.936 150.777C87.4954 151.788 84.8801 152.309 82.2385 152.309H78.8575C82.2343 160.006 88.6061 165.064 98.6055 165.064C111.922 165.064 120.703 152.081 120.703 136.059C120.608 129.903 121.738 123.79 124.028 118.075C126.318 112.36 129.722 107.158 134.042 102.771C138.361 98.3836 143.51 94.8998 149.189 92.5218C154.868 90.1437 160.964 88.9189 167.12 88.9189C173.277 88.9189 179.372 90.1437 185.051 92.5218C190.73 94.8998 195.879 98.3836 200.199 102.771C204.519 107.158 207.922 112.36 210.213 118.075ZM179.053 139.366C186.674 139.366 192.851 133.188 192.851 125.568C192.851 117.947 186.674 111.769 179.053 111.769C171.433 111.769 165.255 117.947 165.255 125.568C165.255 133.188 171.433 139.366 179.053 139.366Z" fill="white"/>
<path d="M180.506 91.6764C180.506 91.6764 179.034 94.9851 168.31 94.9851C157.585 94.9851 156.113 91.6764 156.113 91.6764L168.31 45L180.506 91.6764Z" fill="white"/>
</g>
<defs>
<clipPath id="clip0_2276_328">
<rect width="256" height="256" fill="white"/>
</clipPath>
</defs>
</svg>
