<svg width="256" height="256" viewBox="0 0 256 256" fill="none" xmlns="http://www.w3.org/2000/svg">
<g clip-path="url(#clip0_2573_4309)">
<path d="M256 128C256 57.3076 198.692 0 128 0C57.3076 0 0 57.3076 0 128C0 198.692 57.3076 256 128 256C198.692 256 256 198.692 256 128Z" fill="#D4FC46"/>
<path d="M143.253 48.16C143.253 49.5467 143.68 49.6533 144.48 48.5333C145.973 46.5067 147.946 44.2133 150.613 44.2133C166.56 44.16 182.346 44.16 197.92 44.16C198.453 44.16 198.72 44.4267 198.72 44.9067C198.666 69.0133 198.666 95.4133 198.666 124.053C198.666 126.24 198.613 128.48 198.4 130.72C198.24 132.907 197.92 135.04 197.546 137.173C196.586 142.72 194.826 147.733 192.213 152.267C191.466 153.6 190.293 155.2 188.8 157.067C187.2 159.04 185.866 161.173 184.106 162.987C181.12 166.133 177.973 169.44 174.773 172.907C163.626 184.96 151.573 194.987 138.453 202.88C126.72 210.027 114.666 213.547 100.746 211.467C77.8131 208 58.8798 190.24 58.2398 166.56C57.4931 140.373 57.3864 119.307 57.9198 103.36C58.1331 95.8933 58.2398 88.48 58.0798 81.0133C58.0798 79.8933 58.4531 78.88 59.3064 78.08C68.2664 69.28 77.5464 59.9467 87.1998 49.9733C90.4531 46.6133 94.2931 44.9067 98.7198 44.8C113.013 44.64 127.413 44.3733 141.866 44.16C142.24 44.1067 142.56 44.2667 142.826 44.48C143.093 44.7467 143.253 45.0667 143.253 45.44V48.16ZM146.133 135.84C138.293 135.467 137.6 129.013 137.6 122.293C137.546 98.6133 137.546 74.6133 137.6 50.4C137.6 49.7067 137.226 49.3867 136.533 49.3867L99.5198 48.8C98.6664 48.8 98.2398 49.1733 98.2398 50.0267C98.2931 71.84 98.2931 93.3333 98.2398 114.507C98.1864 119.093 98.6664 123.467 98.8264 128C99.4664 152.907 118.24 169.707 142.88 170.933C161.173 171.84 173.813 166.293 185.28 152.48C189.333 147.627 191.786 141.333 192.64 133.6C193.28 127.84 193.866 122.133 193.866 116.373C193.92 94.8267 193.92 73.2267 193.813 51.52C193.813 50.08 193.12 49.3867 191.68 49.3867H154.773C154.346 49.3867 154.186 49.6 154.186 49.9733C154.186 75.6267 154.186 101.227 154.133 126.827C154.133 131.947 151.68 136.107 146.133 135.84Z" fill="#333333"/>
<path d="M146.133 135.84C151.68 136.107 154.133 131.947 154.133 126.827C154.187 101.227 154.187 75.6267 154.187 49.9733C154.187 49.6 154.347 49.3867 154.773 49.3867H191.68C193.12 49.3867 193.813 50.08 193.813 51.52C193.92 73.2267 193.92 94.8267 193.867 116.373C193.867 122.133 193.28 127.84 192.64 133.6C191.787 141.333 189.333 147.627 185.28 152.48C173.813 166.293 161.173 171.84 142.88 170.933C118.24 169.707 99.4666 152.907 98.8266 128C98.6666 123.467 98.1866 119.093 98.24 114.507C98.2933 93.3333 98.2933 71.84 98.24 50.0267C98.24 49.1733 98.6666 48.8 99.52 48.8L136.533 49.3867C137.227 49.3867 137.6 49.7067 137.6 50.4C137.547 74.6133 137.547 98.6133 137.6 122.293C137.6 129.013 138.293 135.467 146.133 135.84Z" fill="#D4FC46"/>
</g>
<defs>
<clipPath id="clip0_2573_4309">
<rect width="256" height="256" fill="white"/>
</clipPath>
</defs>
</svg>
