<svg width="256" height="256" viewBox="0 0 256 256" fill="none" xmlns="http://www.w3.org/2000/svg">
<g clip-path="url(#clip0_741_46)">
<path d="M256 128C256 198.692 198.692 256 128 256C57.3075 256 0 198.692 0 128C0 57.3075 57.3075 0 128 0C198.692 0 256 57.3075 256 128Z" fill="black"/>
<path d="M79.7 162.299L98 105.299L77.7 90.0996L47.2 185.799H160.8L168.4 162.299H79.7Z" fill="#FCFC03"/>
<path d="M70.3183 226.802L81.2346 221.249L75.6817 210.333L64.7654 215.885L70.3183 226.802ZM134.682 29.1606L123.765 34.7135L129.318 45.6298L140.235 40.0769L134.682 29.1606ZM74.4263 219.032L133.426 37.8597L130.574 36.9307L71.5737 218.103L74.4263 219.032Z" fill="#A4A400"/>
<path d="M115.318 226.802L126.235 221.249L120.682 210.333L109.765 215.885L115.318 226.802ZM179.682 29.1606L168.765 34.7135L174.318 45.6298L185.235 40.0769L179.682 29.1606ZM119.426 219.032L178.426 37.8597L175.574 36.9307L116.574 218.103L119.426 219.032Z" fill="#A4A400"/>
<path d="M181.4 123.299L210.7 108.7L220.8 77.7L200.6 63H66.1L35 86.1H193.1L184.7 112.1H121.3L115.2 131.099H178.6L160.8 185.799L190.5 171.099L201.1 138.299L181.2 123.699L181.4 123.299Z" fill="#FCFC03"/>
</g>
<defs>
<clipPath id="clip0_741_46">
<rect width="256" height="256" fill="white"/>
</clipPath>
</defs>
</svg>
