<svg width="256" height="252" viewBox="0 0 256 252" fill="none" xmlns="http://www.w3.org/2000/svg">
<path d="M130.587 252C199.555 252 255.465 195.588 255.465 126C255.465 56.4121 199.555 0 130.587 0C61.6185 0 5.70874 56.4121 5.70874 126C5.70874 195.588 61.6185 252 130.587 252Z" fill="#004CA8"/>
<path d="M195.902 189.143C140.529 200.43 86.4312 164.219 75.1779 108.673C69.5484 81.7584 75.3296 54.8769 89.0836 33.1689C47.3804 52.5074 22.7171 98.793 32.2819 146.322C43.5356 201.868 97.6334 238.078 153.006 226.791C181.548 221.15 204.418 204.047 219.316 181.198C211.889 184.61 204.465 187.45 195.902 189.143Z" fill="#002C7F"/>
<path d="M124.038 182.448C107.445 180.588 96.3971 170.336 93.6161 156.157C92.84 152.198 96.1686 148.893 100.168 148.893C104.168 148.893 107.25 152.231 108.307 156.123C110.786 165.262 118.363 170.541 130.474 170.541C145.494 170.541 153.539 162.423 153.539 152.681C153.539 125.079 93.9995 139.151 93.9995 98.5599C93.9995 85.0294 106.337 70.9577 124.038 68.7931V58.7805C124.038 55.3432 126.799 52.5566 130.206 52.5566C133.613 52.5566 136.375 55.3431 136.375 58.7805V68.7931C150.538 71.0982 161.199 81.6488 164.049 95.0937C164.885 99.04 161.562 102.348 157.562 102.348C153.563 102.348 150.45 98.9959 149.231 95.1529C146.492 86.5143 138.892 80.6994 129.938 80.6994C116.528 80.6994 107.946 89.9006 107.946 98.5599C107.946 126.161 167.486 112.09 167.486 152.681C167.486 167.294 155.685 180.283 136.375 182.989V193.001C136.375 196.439 133.613 199.225 130.206 199.225C126.799 199.225 124.038 196.439 124.038 193.001V182.448Z" fill="white"/>
<path fill-rule="evenodd" clip-rule="evenodd" d="M226.719 171.425L233.272 176.121C234.748 177.179 234.594 179.438 232.988 180.282L211.773 191.434C210.089 192.32 208.095 190.994 208.238 189.083L210.105 164.065C210.247 162.168 212.388 161.154 213.925 162.256L219.8 166.466C234.801 132.068 229.257 90.4967 202.409 61.1079C166.53 21.8344 106.079 19.0637 66.8272 54.6759C66.3295 55.1272 65.5603 55.1 65.1064 54.6036L61.1061 50.2246C60.6526 49.7283 60.6874 48.9508 61.1845 48.499C103.817 9.74283 169.536 12.73 208.531 55.4147C238.112 87.7952 243.872 133.776 226.719 171.425Z" fill="#BEE179"/>
<path fill-rule="evenodd" clip-rule="evenodd" d="M37.4715 80.8263L30.9183 76.1303C29.442 75.0719 29.5959 72.8133 31.2018 71.9691L52.4167 60.8169C54.1013 59.9313 56.0947 61.2572 55.952 63.1687L54.0843 88.1866C53.9426 90.0835 51.8025 91.0972 50.2654 89.9959L44.3895 85.7844C29.3884 120.182 34.9323 161.754 61.7807 191.143C97.6596 230.417 158.111 233.187 197.363 197.575C197.86 197.124 198.63 197.151 199.083 197.647L203.084 202.026C203.538 202.523 203.503 203.3 203.006 203.752C160.372 242.508 94.6545 239.521 55.6593 196.836C26.0777 164.456 20.3175 118.475 37.4715 80.8263Z" fill="#BEE179"/>
</svg>
