<svg width="256" height="256" viewBox="0 0 256 256" fill="none" xmlns="http://www.w3.org/2000/svg">
<mask id="mask0_1953_3027" style="mask-type:luminance" maskUnits="userSpaceOnUse" x="0" y="0" width="256" height="256">
<path d="M0.358398 0.107422H255.412V255.161H0.358398V0.107422Z" fill="white"/>
</mask>
<g mask="url(#mask0_1953_3027)">
<path d="M254.482 127.16C254.482 197.342 197.59 254.234 127.409 254.234C57.2283 254.234 0.335938 197.342 0.335938 127.161C0.335938 56.9801 57.2283 0.0864258 127.409 0.0864258C197.59 0.0864258 254.482 56.9788 254.482 127.16Z" fill="url(#paint0_linear_1953_3027)"/>
<path d="M196.726 109.661L127.317 38.7847L57.9004 109.661L92.6061 145.097L127.317 109.661L162.021 145.097L196.726 109.661Z" fill="white"/>
<path d="M80.9802 209.878C77.5406 209.878 74.5789 209.258 72.099 208.018C69.6584 206.738 67.7785 204.937 66.4578 202.617C65.1778 200.256 64.5371 197.476 64.5371 194.275V167.03H72.4587V194.515C72.4587 197.075 73.1794 199.096 74.6196 200.577C76.0991 202.056 78.2206 202.797 80.9802 202.797C83.741 202.797 85.8416 202.056 87.2817 200.577C88.7626 199.096 89.5017 197.075 89.5017 194.515V167.03H97.4233V194.275C97.4233 197.476 96.7629 200.256 95.4435 202.617C94.1635 204.937 92.2823 206.738 89.8023 208.018C87.3618 209.258 84.4211 209.878 80.9802 209.878Z" fill="#1F2333"/>
<path fill-rule="evenodd" clip-rule="evenodd" d="M71.6127 208.943C69.0001 207.573 66.9705 205.634 65.5474 203.133L65.5369 203.114C64.1585 200.574 63.4902 197.615 63.4902 194.274V165.982H73.5057V194.514C73.5057 196.867 74.1608 198.599 75.3647 199.84C76.5922 201.064 78.4091 201.749 80.9796 201.749C83.5567 201.749 85.3474 201.061 86.5316 199.845L86.5407 199.835C87.7827 198.593 88.4548 196.863 88.4548 194.514V165.982H98.4703V194.274C98.4703 197.619 97.7785 200.581 96.3567 203.123C94.9717 205.634 92.9355 207.577 90.2823 208.946C87.6619 210.277 84.5452 210.923 80.9796 210.923C77.4153 210.923 74.2869 210.281 71.631 208.952L71.6127 208.943ZM74.619 200.577C73.1789 199.096 72.4581 197.075 72.4581 194.515V167.03H64.5379V194.275C64.5379 197.476 65.1785 200.256 66.4585 202.617C67.7792 204.936 69.6592 206.738 72.0997 208.018C74.5809 209.258 77.5414 209.878 80.9809 209.878C84.4218 209.878 87.3626 209.258 89.8031 208.018C92.2843 206.738 94.1643 204.936 95.4443 202.617C96.7637 200.256 97.424 197.476 97.424 194.275V167.03H89.5025V194.515C89.5025 197.075 88.7633 199.096 87.2825 200.577C85.8423 202.056 83.7418 202.797 80.9809 202.797C78.2214 202.797 76.0986 202.056 74.619 200.577Z" fill="#1F2333"/>
<path d="M128.049 209.878C124.809 209.878 121.948 209.298 119.467 208.137C116.987 206.977 115.047 205.317 113.647 203.156C112.247 200.995 111.547 198.396 111.547 195.356V193.675H119.348V195.356C119.348 197.875 120.127 199.776 121.688 201.056C123.248 202.296 125.368 202.916 128.049 202.916C130.769 202.916 132.79 202.377 134.11 201.296C135.47 200.216 136.15 198.836 136.15 197.155C136.15 195.995 135.81 195.055 135.13 194.336C134.491 193.615 133.53 193.035 132.25 192.595C131.009 192.114 129.489 191.674 127.689 191.274L126.31 190.975C123.428 190.334 120.948 189.535 118.867 188.574C116.827 187.573 115.246 186.273 114.128 184.673C113.046 183.073 112.507 180.992 112.507 178.432C112.507 175.872 113.107 173.691 114.306 171.89C115.547 170.051 117.267 168.65 119.467 167.691C121.708 166.69 124.328 166.19 127.33 166.19C130.329 166.19 132.99 166.71 135.31 167.75C137.671 168.75 139.511 170.27 140.832 172.31C142.192 174.311 142.872 176.832 142.872 179.872V181.672H135.07V179.872C135.07 178.272 134.751 176.992 134.11 176.032C133.51 175.032 132.631 174.311 131.47 173.871C130.31 173.391 128.93 173.151 127.33 173.151C124.928 173.151 123.148 173.611 121.988 174.532C120.868 175.411 120.307 176.632 120.307 178.192C120.307 179.231 120.567 180.112 121.088 180.832C121.648 181.553 122.468 182.153 123.549 182.633C124.629 183.112 126.009 183.532 127.689 183.893L129.069 184.193C132.07 184.833 134.671 185.654 136.871 186.653C139.111 187.653 140.852 188.974 142.092 190.614C143.332 192.255 143.953 194.355 143.953 196.915C143.953 199.475 143.292 201.736 141.971 203.696C140.691 205.617 138.851 207.137 136.451 208.258C134.091 209.337 131.29 209.878 128.049 209.878Z" fill="#1F2333"/>
<path fill-rule="evenodd" clip-rule="evenodd" d="M110.5 192.637H120.395V195.363C120.395 197.652 121.091 199.216 122.346 200.25C123.666 201.296 125.528 201.878 128.05 201.878C130.662 201.878 132.398 201.354 133.448 200.494L133.46 200.485C134.58 199.595 135.105 198.511 135.105 197.163C135.105 196.222 134.836 195.555 134.37 195.061L134.349 195.039C133.867 194.497 133.086 193.997 131.909 193.592L131.873 193.579C130.696 193.124 129.231 192.697 127.464 192.304L126.086 192.005C123.153 191.353 120.593 190.531 118.429 189.532L118.407 189.521C116.234 188.457 114.507 187.048 113.27 185.281L113.26 185.266C112.029 183.446 111.461 181.142 111.461 178.44C111.461 175.712 112.102 173.32 113.435 171.318C114.796 169.301 116.679 167.773 119.045 166.74C121.445 165.67 124.215 165.151 127.329 165.151C130.447 165.151 133.254 165.691 135.728 166.799C138.262 167.874 140.266 169.522 141.704 171.74C143.205 173.953 143.919 176.688 143.919 179.88V182.727H134.024V179.88C134.024 178.41 133.729 177.354 133.239 176.62L133.212 176.578C132.74 175.793 132.054 175.219 131.098 174.857L131.069 174.847C130.066 174.432 128.828 174.206 127.329 174.206C125.029 174.206 123.53 174.652 122.638 175.36C121.798 176.02 121.354 176.926 121.354 178.199C121.354 179.05 121.562 179.703 121.925 180.212C122.353 180.757 123.015 181.258 123.973 181.684C124.966 182.125 126.271 182.527 127.908 182.877L129.288 183.178C132.341 183.829 135.017 184.669 137.301 185.708C139.67 186.766 141.561 188.186 142.927 189.991C144.335 191.854 144.998 194.192 144.998 196.923C144.998 199.673 144.287 202.141 142.84 204.289C141.439 206.39 139.44 208.025 136.893 209.214C134.367 210.37 131.404 210.932 128.05 210.932C124.684 210.932 121.667 210.329 119.024 209.093C116.379 207.856 114.282 206.069 112.769 203.734C111.24 201.375 110.5 198.568 110.5 195.363V192.637ZM141.972 203.705C143.292 201.744 143.952 199.484 143.952 196.923C143.952 194.363 143.332 192.262 142.092 190.623C140.852 188.982 139.112 187.661 136.871 186.662C134.67 185.662 132.07 184.841 129.07 184.2L127.689 183.901C126.008 183.541 124.63 183.121 123.548 182.641C122.469 182.16 121.648 181.56 121.088 180.841C120.568 180.12 120.308 179.241 120.308 178.199C120.308 176.64 120.869 175.419 121.988 174.539C123.149 173.619 124.929 173.16 127.329 173.16C128.931 173.16 130.309 173.399 131.47 173.879C132.63 174.319 133.511 175.04 134.111 176.04C134.75 177 135.071 178.28 135.071 179.88V181.681H142.872V179.88C142.872 176.839 142.191 174.319 140.831 172.319C139.512 170.278 137.671 168.758 135.311 167.759C132.99 166.718 130.33 166.198 127.329 166.198C124.329 166.198 121.709 166.698 119.468 167.698C117.268 168.658 115.546 170.059 114.307 171.899C113.107 173.699 112.507 175.88 112.507 178.44C112.507 181.001 113.046 183.081 114.127 184.681C115.247 186.281 116.828 187.582 118.867 188.581C120.949 189.542 123.429 190.342 126.31 190.982L127.689 191.282C129.49 191.682 131.01 192.122 132.251 192.602C133.531 193.042 134.49 193.623 135.131 194.343C135.811 195.063 136.151 196.003 136.151 197.163C136.151 198.844 135.471 200.223 134.111 201.304C132.79 202.384 130.77 202.924 128.05 202.924C125.369 202.924 123.249 202.304 121.688 201.064C120.128 199.784 119.348 197.884 119.348 195.363V193.683H111.546V195.363C111.546 198.404 112.246 201.004 113.647 203.164C115.048 205.325 116.988 206.986 119.468 208.145C121.949 209.305 124.808 209.886 128.05 209.886C131.29 209.886 134.09 209.346 136.451 208.266C138.852 207.145 140.692 205.624 141.972 203.705Z" fill="#1F2333"/>
<path d="M158.075 209.036V202.076H163.596V173.991H158.075V167.029H175.358C180.998 167.029 185.279 168.47 188.2 171.351C191.161 174.19 192.64 178.432 192.64 184.073V191.993C192.64 197.635 191.161 201.896 188.2 204.776C185.279 207.617 180.998 209.036 175.358 209.036H158.075ZM171.517 201.836H175.478C178.679 201.836 181.019 200.995 182.499 199.315C183.98 197.635 184.72 195.274 184.72 192.234V183.833C184.72 180.752 183.98 178.391 182.499 176.752C181.019 175.071 178.679 174.231 175.478 174.231H171.517V201.836Z" fill="#1F2333"/>
<path fill-rule="evenodd" clip-rule="evenodd" d="M157.029 210.083V201.028H162.551V175.037H157.029V165.982H175.359C181.167 165.982 185.751 167.466 188.931 170.6C192.162 173.702 193.688 178.259 193.688 184.072V191.993C193.688 197.81 192.159 202.384 188.931 205.526C185.75 208.619 181.167 210.083 175.359 210.083H157.029ZM163.597 173.989V202.074H158.076V209.036H175.359C181 209.036 185.281 207.616 188.201 204.775C191.161 201.895 192.642 197.635 192.642 191.993V184.072C192.642 178.431 191.161 174.19 188.201 171.349C185.281 168.469 181 167.029 175.359 167.029H158.076V173.989H163.597ZM181.716 177.442C180.506 176.07 178.512 175.276 175.48 175.276H172.565V200.788H175.48C178.512 200.788 180.506 199.994 181.716 198.623C182.975 197.192 183.674 195.111 183.674 192.234V183.832C183.674 180.908 182.972 178.835 181.723 177.451L181.716 177.442ZM175.48 201.834C178.68 201.834 181.02 200.995 182.501 199.315C183.98 197.635 184.721 195.274 184.721 192.234V183.832C184.721 180.752 183.98 178.391 182.501 176.75C181.02 175.07 178.68 174.23 175.48 174.23H171.519V201.834H175.48Z" fill="#1F2333"/>
</g>
<defs>
<linearGradient id="paint0_linear_1953_3027" x1="41.5441" y1="204.17" x2="183.486" y2="77.9262" gradientUnits="userSpaceOnUse">
<stop offset="0.073" stop-color="#C3EEE4"/>
<stop offset="1" stop-color="#2AC8A5"/>
</linearGradient>
</defs>
</svg>
