<svg width="256" height="256" viewBox="0 0 256 256" fill="none" xmlns="http://www.w3.org/2000/svg">
<g clip-path="url(#clip0_2573_4317)">
<path d="M128 256C198.692 256 256 198.692 256 128C256 57.3076 198.692 0 128 0C57.3076 0 0 57.3076 0 128C0 198.692 57.3076 256 128 256Z" fill="#0497EC"/>
<path d="M194.947 192.145C138.19 203.61 82.7396 166.826 71.2045 110.398C65.4346 83.0565 71.3602 55.7481 85.458 33.6955C42.7125 53.3409 17.4325 100.361 27.2363 148.644C38.7714 205.073 94.2216 241.857 150.98 230.391C180.234 224.661 203.676 207.286 218.946 184.075C211.334 187.541 203.723 190.426 194.947 192.145Z" fill="#2479D6"/>
<path d="M121.286 185.344C102.604 183.267 90.779 170.906 89.5111 154.267C89.3846 152.608 90.7461 151.255 92.4093 151.255H101.23C102.894 151.255 104.224 152.611 104.382 154.267C105.525 166.197 113.649 173.247 127.884 173.247C143.278 173.247 151.525 165.001 151.525 155.104C151.525 127.064 90.4971 141.359 90.4971 100.124C90.4971 86.3786 103.143 72.0837 121.286 69.8845V56.4022C121.286 54.7388 122.635 53.3904 124.298 53.3904H130.92C132.583 53.3904 133.932 54.7388 133.932 56.4022V69.8845C149.962 72.4701 161.616 85.2695 162.944 100.963C163.085 102.621 161.723 103.972 160.06 103.972H151.239C149.575 103.972 148.247 102.617 148.046 100.966C146.697 89.8732 137.944 81.9802 127.334 81.9802C113.589 81.9802 104.792 91.3269 104.792 100.124C104.792 128.164 165.82 113.869 165.82 155.104C165.82 169.949 153.725 183.144 133.932 185.894V199.376C133.932 201.038 132.583 202.388 130.92 202.388H124.298C122.635 202.388 121.286 201.038 121.286 199.376V185.344Z" fill="white"/>
<path fill-rule="evenodd" clip-rule="evenodd" d="M226.536 174.146L233.252 178.917C234.766 179.992 234.607 182.286 232.961 183.144L211.217 194.473C209.489 195.373 207.446 194.025 207.592 192.084L209.507 166.67C209.652 164.742 211.846 163.712 213.421 164.831L219.445 169.109C234.82 134.166 229.138 91.9334 201.618 62.0784C164.843 22.1814 102.88 19.3667 62.6466 55.5442C62.1367 56.0027 61.3478 55.975 60.8829 55.4708L56.7826 51.0223C56.3177 50.518 56.3534 49.7282 56.8628 49.2692C100.562 9.89792 167.922 12.9325 207.893 56.2947C238.214 89.1892 244.119 135.9 226.536 174.146Z" fill="white"/>
<path fill-rule="evenodd" clip-rule="evenodd" d="M32.5568 82.1099L25.8397 77.3388C24.3266 76.2639 24.4843 73.9696 26.1303 73.112L47.8756 61.7825C49.6024 60.8829 51.6455 62.2299 51.4993 64.1714L49.5849 89.5865C49.4397 91.5134 47.2461 92.5434 45.6705 91.4244L39.6477 87.1465C24.2716 122.09 29.9542 164.322 57.4738 194.178C94.2495 234.074 156.213 236.889 196.445 200.712C196.956 200.254 197.745 200.281 198.209 200.785L202.309 205.234C202.774 205.738 202.738 206.527 202.229 206.987C158.53 246.358 91.1694 243.324 51.1994 199.962C20.8781 167.067 14.974 120.356 32.5568 82.1099Z" fill="white"/>
</g>
<defs>
<clipPath id="clip0_2573_4317">
<rect width="256" height="256" fill="white"/>
</clipPath>
</defs>
</svg>
