<svg width="256" height="256" viewBox="0 0 256 256" fill="none" xmlns="http://www.w3.org/2000/svg">
<circle cx="127" cy="128" r="125" fill="white"/>
<g clip-path="url(#clip0_741_46)">
<path d="M249 128C249 60.6213 194.379 6 127 6C59.6213 6 5 60.6213 5 128C5 195.379 59.6213 250 127 250C194.379 250 249 195.379 249 128Z" fill="white"/>
<path d="M126.998 241.867C189.885 241.867 240.865 190.887 240.865 128C240.865 65.1131 189.885 14.1333 126.998 14.1333C64.1114 14.1333 13.1316 65.1131 13.1316 128C13.1316 190.887 64.1114 241.867 126.998 241.867Z" fill="#216C58" stroke="#216C58" stroke-width="0.7"/>
<path d="M232.73 128C232.73 186.395 185.392 233.733 126.997 233.733C68.6021 233.733 21.2634 186.395 21.2634 128C21.2634 69.6049 68.6021 22.2666 126.997 22.2666C185.392 22.2666 232.73 69.6049 232.73 128Z" fill="#216C58"/>
<path d="M124.963 178.833H112.763V191.033H124.963V178.833Z" fill="#216C58"/>
<path d="M145.298 178.833H133.098V191.033H145.298V178.833Z" fill="#216C58"/>
<path d="M169.695 52.7666H92.4281C90.1822 52.7666 88.3615 54.5873 88.3615 56.8333V58.8666C88.3615 61.1126 90.1822 62.9333 92.4281 62.9333H169.695C171.941 62.9333 173.761 61.1126 173.761 58.8666V56.8333C173.761 54.5873 171.941 52.7666 169.695 52.7666Z" fill="white"/>
<path d="M126.994 66.9995V205.266C126.994 207.512 125.173 209.333 122.927 209.333H120.894C118.648 209.333 116.827 207.512 116.827 205.266V66.9995H126.994Z" fill="white"/>
<path d="M143.263 66.9995V205.266C143.263 207.512 141.442 209.333 139.196 209.333H137.163C134.917 209.333 133.096 207.512 133.096 205.266V66.9995H143.263Z" fill="white"/>
<path d="M118.321 101.424L118.341 101.416C121.167 100.382 124.735 99.8303 129.101 99.8303C135.525 99.8303 140.36 101.063 143.797 103.316C146.28 104.944 147.91 106.99 148.79 109.469C149.673 111.954 151.95 114.363 155.144 114.363H173.928C177.261 114.363 180.273 111.567 179.764 107.921C178.978 102.302 176.856 97.2305 173.41 92.7409C169.099 87.1243 163.106 82.8031 155.536 79.7281C147.987 76.645 139.224 75.1328 129.292 75.1328C119.524 75.1328 110.729 76.6474 102.942 79.72C95.1667 82.788 88.9488 87.0964 84.3808 92.6933L84.3749 92.7008C79.8017 98.3599 77.5424 104.991 77.5859 112.502C77.5429 121.705 80.9752 129.165 87.8915 134.666C94.6107 140.011 103.656 143.852 114.901 146.288C114.903 146.288 114.906 146.289 114.907 146.29L129.169 149.478L129.186 149.482C133.9 150.493 137.827 151.607 140.986 152.813L140.995 152.816C144.154 154.006 146.37 155.387 147.795 156.877L147.812 156.895C149.17 158.281 149.856 159.965 149.856 162.083C149.856 164.382 149.088 166.395 147.487 168.2C145.854 170.042 143.472 171.568 140.211 172.701L140.204 172.703C137.016 173.825 133.178 174.412 128.653 174.412C124.059 174.412 120.001 173.792 116.453 172.586C112.985 171.357 110.296 169.584 108.301 167.311C107.033 165.808 106.119 164.053 105.569 162.015C104.838 159.312 102.483 156.801 99.2154 156.801H80.3338C76.9614 156.801 74.0142 159.625 74.4302 163.229C75.2279 170.141 77.5348 176.158 81.3958 181.213L81.4057 181.226C86.0696 187.232 92.5071 191.711 100.614 194.709C108.742 197.698 118.21 199.166 128.972 199.166C139.812 199.166 149.18 197.72 157.024 194.761C164.889 191.771 171.039 187.527 175.328 181.961C179.675 176.337 181.851 169.703 181.896 162.153V162.122C181.851 156.988 180.79 152.354 178.661 148.271C176.601 144.238 173.699 140.75 169.988 137.807C166.311 134.894 161.993 132.464 157.057 130.502C152.153 128.552 146.788 127.001 140.97 125.84L129.204 123.335L129.178 123.33C126.39 122.774 123.779 122.11 121.343 121.338C118.94 120.54 116.859 119.627 115.083 118.61C113.379 117.596 112.097 116.437 111.18 115.155C110.395 114.001 110.003 112.625 110.072 110.931L110.074 110.89V110.848C110.074 108.825 110.712 107.04 112.036 105.423C113.411 103.796 115.459 102.436 118.321 101.424Z" fill="white" stroke="#216C58" stroke-width="0.7"/>
<path d="M126.998 93.4331H116.831V107.666H126.998V93.4331Z" fill="white"/>
<path d="M126.998 144.267H116.831V158.5H126.998V144.267Z" fill="white"/>
<path d="M126.998 186.967H116.831V201.2H126.998V186.967Z" fill="white"/>
<path d="M143.268 93.4331H133.101V107.666H143.268V93.4331Z" fill="white"/>
<path d="M143.268 144.267H133.101V158.5H143.268V144.267Z" fill="white"/>
<path d="M143.268 186.967H133.101V201.2H143.268V186.967Z" fill="white"/>
<path fill-rule="evenodd" clip-rule="evenodd" d="M229.325 134.1C227.709 134.1 226.377 135.364 226.234 136.974C221.696 187.795 179 227.633 126.999 227.633C74.9978 227.633 32.3012 187.795 27.7642 136.974C27.6206 135.364 26.2887 134.1 24.6728 134.1C22.9171 134.1 21.5188 135.583 21.6717 137.332C26.396 191.356 71.7485 233.733 126.999 233.733C182.249 233.733 227.602 191.356 232.326 137.332C232.479 135.583 231.081 134.1 229.325 134.1ZM24.6728 121.9C26.2887 121.9 27.6206 120.635 27.7642 119.026C32.3012 68.2047 74.9978 28.3666 126.999 28.3666C179 28.3666 221.696 68.2047 226.234 119.026C226.377 120.635 227.709 121.9 229.325 121.9C231.081 121.9 232.479 120.417 232.326 118.668C227.602 64.644 182.249 22.2666 126.999 22.2666C71.7485 22.2666 26.396 64.644 21.6717 118.668C21.5188 120.417 22.9171 121.9 24.6728 121.9Z" fill="white"/>
</g>
<defs>
<clipPath id="clip0_741_46">
<rect width="244" height="244" fill="white" transform="translate(5 6)"/>
</clipPath>
</defs>
</svg>
