<svg width="256" height="256" viewBox="0 0 256 256" fill="none" xmlns="http://www.w3.org/2000/svg">
<g clip-path="url(#clip0_196_121)">
<path d="M127.997 4.84131H128.003C196.021 4.84131 251.16 59.9812 251.16 128V128.004C251.16 196.023 196.021 251.163 128.003 251.163H127.997C59.9792 251.163 4.83936 196.023 4.83936 128.004V128C4.83936 59.9812 59.9792 4.84131 127.997 4.84131Z" fill="#111111" stroke="#111111" stroke-width="7.05362"/>
<path d="M128.003 2.57275H127.997C58.7263 2.57275 2.5708 58.7283 2.5708 128V128.004C2.5708 197.276 58.7263 253.431 127.997 253.431H128.003C197.274 253.431 253.429 197.276 253.429 128.004V128C253.429 58.7283 197.274 2.57275 128.003 2.57275Z" fill="url(#paint0_radial_196_121)" fill-opacity="0.7"/>
<path d="M128.003 2.57275H127.997C58.7263 2.57275 2.5708 58.7283 2.5708 128V128.004C2.5708 197.276 58.7263 253.431 127.997 253.431H128.003C197.274 253.431 253.429 197.276 253.429 128.004V128C253.429 58.7283 197.274 2.57275 128.003 2.57275Z" stroke="url(#paint1_linear_196_121)" stroke-width="7.14291"/>
<path fill-rule="evenodd" clip-rule="evenodd" d="M107.932 24.8018C59.4926 34.132 22.9028 76.7485 22.9028 127.911C22.9028 179.074 59.4926 221.69 107.932 231.021V221.179C64.8551 211.997 32.5464 173.727 32.5464 127.911C32.5464 82.0955 64.8551 43.8258 107.932 34.6432V24.8018ZM148.069 34.6817V24.8366C196.419 34.2377 232.918 76.8121 232.918 127.911C232.918 179.01 196.419 221.585 148.069 230.986V221.141C191.056 211.89 223.275 173.663 223.275 127.911C223.275 82.1592 191.056 43.9325 148.069 34.6817Z" fill="white"/>
<path d="M142.871 124.402C150.883 125.929 157.097 128.874 161.514 133.237C165.931 137.491 168.14 142.944 168.14 149.597V160.068C168.14 168.03 165.263 174.465 159.511 179.373C153.759 184.172 146.209 186.572 136.862 186.572H133.626V203.259H122.533V186.572H119.143C112.98 186.572 107.535 185.208 102.81 182.482C98.0853 179.646 94.3874 175.72 91.7168 170.702C89.1491 165.576 87.8652 159.686 87.8652 153.033H98.9588C98.9588 159.795 100.807 165.303 104.505 169.557C108.306 173.702 113.288 175.774 119.451 175.774H136.553C142.614 175.774 147.493 174.356 151.191 171.52C154.889 168.575 156.738 164.758 156.738 160.068V149.597C156.738 145.889 155.351 142.726 152.578 140.109C149.907 137.491 146.209 135.8 141.484 135.037L113.75 130.128C105.943 128.711 99.8831 125.765 95.569 121.294C91.2543 116.822 89.0976 111.205 89.0976 104.443V95.6083C89.0976 87.6459 91.8712 81.3205 97.4176 76.6302C103.067 71.8311 110.514 69.4319 119.759 69.4319H122.533V52.7441H133.626V69.4319H137.17C145.901 69.4319 152.937 72.2672 158.279 77.9391C163.62 83.5016 166.291 90.8639 166.291 100.025H155.197C155.197 94.0266 153.554 89.2275 150.267 85.6281C146.979 82.0293 142.614 80.2296 137.17 80.2296H119.759C113.904 80.2296 109.23 81.6472 105.738 84.4832C102.246 87.2098 100.499 90.9186 100.499 95.6083V104.443C100.499 108.26 101.783 111.478 104.352 114.096C107.022 116.713 110.669 118.458 115.291 119.331L142.871 124.402Z" fill="white"/>
</g>
<defs>
<radialGradient id="paint0_radial_196_121" cx="0" cy="0" r="1" gradientUnits="userSpaceOnUse" gradientTransform="translate(128.269 39.2013) rotate(90) scale(264.459 186.153)">
<stop offset="0.03125" stop-color="#3A3A3A"/>
<stop offset="1" stop-color="#1C1C1C"/>
</radialGradient>
<linearGradient id="paint1_linear_196_121" x1="128" y1="0.206143" x2="128" y2="255.798" gradientUnits="userSpaceOnUse">
<stop stop-color="white"/>
<stop offset="1" stop-color="#111111"/>
</linearGradient>
<clipPath id="clip0_196_121">
<rect width="256" height="256" fill="white"/>
</clipPath>
</defs>
</svg>
