<svg width="256" height="256" viewBox="0 0 256 256" fill="none" xmlns="http://www.w3.org/2000/svg">
<g clip-path="url(#clip0_2642_10326)">
<path d="M256 128C256 57.3076 198.692 0 128 0C57.3076 0 0 57.3076 0 128C0 198.692 57.3076 256 128 256C198.692 256 256 198.692 256 128Z" fill="#24E5DF"/>
<path d="M128.507 22.2607C69.8317 22.2607 22.2598 70.0594 22.2598 129.013C22.2598 187.968 69.8317 235.763 128.507 235.763C187.183 235.763 234.75 187.969 234.75 129.013C234.75 70.0581 187.18 22.2607 128.507 22.2607ZM164.46 165.147C128.358 201.426 82.9873 214.657 63.1249 194.703C43.2637 174.754 56.439 129.164 92.5499 92.8848C128.654 56.6061 174.023 43.3703 193.887 63.3202C213.748 83.2702 200.573 128.86 164.46 165.147Z" fill="#133D38"/>
</g>
<defs>
<clipPath id="clip0_2642_10326">
<rect width="256" height="256" fill="white"/>
</clipPath>
</defs>
</svg>
