<svg width="256" height="256" viewBox="0 0 256 256" fill="none" xmlns="http://www.w3.org/2000/svg">
<g clip-path="url(#clip0_741_46)">
<path d="M256 128C256 198.692 198.692 256 128 256C57.3075 256 0 198.692 0 128C0 57.3075 57.3075 0 128 0C198.692 0 256 57.3075 256 128Z" fill="black"/>
<path d="M128.029 153.82C142.272 153.82 153.82 142.273 153.82 128.029C153.82 113.785 142.272 102.238 128.029 102.238C113.786 102.238 102.238 113.785 102.238 128.029C102.238 142.273 113.786 153.82 128.029 153.82Z" fill="white"/>
<path fill-rule="evenodd" clip-rule="evenodd" d="M147.637 52.5677C142.301 56.9909 135.45 59.6496 127.979 59.6496C120.544 59.6496 113.724 57.0176 108.4 52.6342C102.751 47.9843 93.6891 46.0052 88.4695 51.1311C75.9137 63.4603 63.4606 75.9138 51.1305 88.4697C46.0056 93.6893 47.9842 102.752 52.6346 108.4C57.017 113.724 59.6495 120.544 59.6495 127.978C59.6495 135.451 56.9908 142.302 52.5681 147.638C47.8986 153.27 45.8908 162.325 51.0116 167.55C63.3297 180.117 75.814 192.539 88.3748 204.865C93.6115 210.004 102.718 208.008 108.379 203.34C113.706 198.947 120.534 196.308 127.979 196.308C135.46 196.308 142.32 198.973 147.659 203.406C153.304 208.095 162.402 210.12 167.644 204.985C180.215 192.672 192.672 180.216 204.985 167.645C210.12 162.402 208.095 153.304 203.406 147.659C198.972 142.32 196.307 135.461 196.307 127.978C196.307 120.534 198.946 113.706 203.34 108.378C208.008 102.717 210.004 93.6122 204.865 88.375C192.54 75.8141 180.117 63.3293 167.549 51.0117C162.324 45.8904 153.27 47.8992 147.637 52.5677ZM113.518 75.0001C121.543 66.9748 134.554 66.9748 142.58 75.0001L181.173 113.593C189.198 121.619 189.198 134.63 181.173 142.655L142.58 181.249C134.554 189.274 121.543 189.274 113.518 181.249L74.9244 142.655C66.8991 134.63 66.8991 121.619 74.9244 113.593L113.518 75.0001Z" fill="white"/>
</g>
<defs>
<clipPath id="clip0_741_46">
<rect width="256" height="256" fill="white"/>
</clipPath>
</defs>
</svg>
