<svg width="256" height="256" viewBox="0 0 256 256" fill="none" xmlns="http://www.w3.org/2000/svg">
<path d="M128 255.248C198.693 255.248 256 198.108 256 127.623C256 57.1391 198.693 0 128 0C57.3076 0 0 57.1391 0 127.623C0 198.108 57.3076 255.248 128 255.248Z" fill="#02A54D"/>
<path d="M128 255.248C198.693 255.248 256 198.108 256 127.623C256 57.1391 198.693 0 128 0C57.3076 0 0 57.1391 0 127.623C0 198.108 57.3076 255.248 128 255.248Z" fill="url(#paint0_radial_2430_8320)"/>
<path d="M128 255.248C198.693 255.248 256 198.108 256 127.623C256 57.1391 198.693 0 128 0C57.3076 0 0 57.1391 0 127.623C0 198.108 57.3076 255.248 128 255.248Z" fill="url(#paint1_radial_2430_8320)"/>
<path d="M128 255.248C198.693 255.248 256 198.108 256 127.623C256 57.1391 198.693 0 128 0C57.3076 0 0 57.1391 0 127.623C0 198.108 57.3076 255.248 128 255.248Z" fill="url(#paint2_radial_2430_8320)"/>
<path d="M151.205 117.786H140.272V85.8799H187.738V66.4708H140.272V35.8942H116.004V66.4708H105.604C83.4713 66.4708 64.8047 77.6378 64.8047 102.099C64.8047 123.37 81.0713 136.93 105.072 136.93H116.004V168.836H68.538V188.245H116.004V218.821H140.538V188.245H150.938C173.338 188.245 191.738 177.078 191.738 152.617C191.471 131.08 175.205 117.786 151.205 117.786ZM116.004 137.195V117.786H108.271C97.8715 117.786 89.6047 113.532 89.6047 101.833C89.6047 90.3999 97.605 86.1464 108.804 86.1464H116.004V118.052H140.538V137.462L116.004 137.195ZM147.472 168.836H140.272V136.93H148.005C158.405 136.93 166.671 141.184 166.671 152.883C166.938 164.581 158.938 168.836 147.472 168.836Z" fill="white"/>
<defs>
<radialGradient id="paint0_radial_2430_8320" cx="0" cy="0" r="1" gradientUnits="userSpaceOnUse" gradientTransform="translate(11.4211 198.315) scale(204.592 203.991)">
<stop offset="0.09" stop-color="#03522C"/>
<stop offset="1" stop-color="#03522C" stop-opacity="0"/>
</radialGradient>
<radialGradient id="paint1_radial_2430_8320" cx="0" cy="0" r="1" gradientUnits="userSpaceOnUse" gradientTransform="translate(213.067 234.219) rotate(-97.2014) scale(204.009 204.591)">
<stop offset="0.09" stop-color="#02A54D"/>
<stop offset="1" stop-color="#02A54D" stop-opacity="0"/>
</radialGradient>
<radialGradient id="paint2_radial_2430_8320" cx="0" cy="0" r="1" gradientUnits="userSpaceOnUse" gradientTransform="translate(246.692 44.813) scale(169.869 169.37)">
<stop offset="0.0983633" stop-color="#8CC63F"/>
<stop offset="1" stop-color="#8CC63F" stop-opacity="0"/>
</radialGradient>
</defs>
</svg>
