<svg width="256" height="256" viewBox="0 0 256 256" fill="none" xmlns="http://www.w3.org/2000/svg">
<g clip-path="url(#clip0_1154_2)">
<mask id="mask0_1154_2" style="mask-type:luminance" maskUnits="userSpaceOnUse" x="0" y="0" width="256" height="256">
<path d="M256 0H0V256H256V0Z" fill="white"/>
</mask>
<g mask="url(#mask0_1154_2)">
<path d="M128 0C198.692 0 256 57.3078 256 128C256 198.692 198.692 256 128 256C57.3078 256 0 198.692 0 128C0 57.3078 57.3078 0 128 0Z" fill="white"/>
<path d="M127.984 9.71289C193.305 9.71289 246.256 62.6637 246.256 127.985C246.256 193.306 193.305 246.257 127.984 246.257C62.6632 246.257 9.7124 193.306 9.7124 127.985C9.7124 62.6637 62.6632 9.71289 127.984 9.71289ZM224.251 133.008C198.343 167.614 167.613 198.344 133.007 224.251C182.308 221.855 221.854 182.308 224.251 133.008ZM32.348 134.359C35.374 182.692 74.1273 221.338 122.501 224.2C88.3762 198.641 58.0248 168.392 32.348 134.359ZM134.364 32.3482C168.397 58.0253 198.64 88.3767 224.199 122.501C221.337 74.1277 182.692 35.3796 134.364 32.3482ZM121.129 32.4202C73.7378 35.8964 35.8962 73.7383 32.4197 121.129C57.7378 87.5933 87.5928 57.7383 121.129 32.4202Z" fill="black"/>
<path d="M151.25 130.483C147.077 126.393 141.189 123.311 134.052 120.351L132.608 119.762C126.249 117.177 122.061 115.093 119.455 112.876C116.956 110.751 115.943 108.539 115.943 105.503C115.943 101.663 117.683 99.226 120.305 97.6744C123.013 96.0776 126.71 95.4065 130.473 95.4065C136.607 95.4065 143.109 96.482 149.084 98.7656L149.699 99.0007L149.898 99.0775L150.528 99.3028L150.83 98.146L150.917 97.7768L151.368 95.9134L153.744 86.0984L154.025 84.931L152.894 84.5163C147.63 82.5963 141.471 81.5003 135.015 81.132V69.8936H121.211V81.8843C116.808 82.8065 112.569 84.4548 108.974 86.9483C102.958 91.116 98.801 97.6078 98.801 106.696C98.801 113.321 101.1 118.61 105.314 122.978C109.481 127.299 115.477 130.673 122.814 133.648H122.819C129.106 136.167 133.745 138.353 136.812 140.791C139.802 143.166 141.21 145.7 141.21 149.008C141.21 152.771 139.71 155.464 137.109 157.262C134.441 159.11 130.489 160.103 125.532 160.103C119.194 160.103 110.751 158.562 102.917 155.055L101.448 154.399L101.059 155.961L98.0845 167.88L97.8022 169.017L98.8829 169.457C105.989 172.339 114.115 173.871 121.221 174.331V183.291H135.025V173.599C139.827 172.642 144.323 170.89 148.06 168.249C154.184 163.918 158.198 157.246 158.198 148.06C158.198 140.473 155.766 134.922 151.245 130.494L151.25 130.483Z" fill="white"/>
</g>
</g>
<defs>
<clipPath id="clip0_1154_2">
<rect width="256" height="256" fill="white"/>
</clipPath>
</defs>
</svg>
