<svg width="256" height="256" viewBox="0 0 256 256" fill="none" xmlns="http://www.w3.org/2000/svg">
<path d="M128.333 241.663C190.924 241.663 241.664 190.923 241.664 128.332C241.664 65.7411 190.924 15.001 128.333 15.001C65.7417 15.001 15.0016 65.7411 15.0016 128.332C15.0016 190.923 65.7417 241.663 128.333 241.663Z" fill="url(#paint0_linear_1765_56)"/>
<path d="M118.042 142.156C118.042 137.446 118.016 132.736 118.067 128.051C118.067 127.462 117.914 127.232 117.35 127.078C114.125 126.233 110.976 125.184 108.083 123.494C102.63 120.32 99.584 115.584 98.9184 109.337C98.5856 106.214 98.688 103.142 99.712 100.147C101.197 95.7693 104.038 92.4413 107.827 89.8557C110.771 87.8589 114.022 86.5021 117.504 85.7341C117.914 85.6317 118.093 85.5037 118.093 85.0173C118.067 82.6621 118.093 80.3069 118.067 77.9261C118.067 77.5421 118.144 77.4141 118.554 77.4397C120.704 77.4653 122.854 77.4653 125.005 77.4397C125.414 77.4397 125.491 77.5933 125.466 77.9517C125.44 80.0765 125.466 82.2013 125.44 84.3005C125.44 84.7101 125.568 84.8125 125.952 84.8125C127.514 84.8637 129.075 84.9661 130.637 85.0685C131.379 85.1197 131.379 85.1453 131.379 84.4285C131.379 82.2525 131.379 80.0765 131.379 77.9005C131.379 77.5421 131.456 77.4141 131.84 77.4397C134.016 77.4653 136.192 77.4653 138.368 77.4397C138.752 77.4397 138.829 77.5677 138.829 77.9261C138.829 80.5885 138.829 83.2253 138.803 85.8877C138.803 86.4253 138.957 86.6301 139.443 86.7837C143.59 88.1405 147.277 90.2653 150.323 93.4141C153.677 96.9213 155.674 101.094 156.467 105.856C156.672 107.084 156.774 108.313 156.826 109.568C156.826 109.9 156.774 110.028 156.416 110.028C153.523 110.054 150.63 110.105 147.738 110.156C147.277 110.156 147.302 109.926 147.302 109.619C147.2 106.675 146.458 103.936 144.742 101.504C143.309 99.4813 141.414 98.0221 139.238 96.9213C138.957 96.7677 138.829 96.7933 138.854 97.1517C138.854 97.2797 138.854 97.3821 138.854 97.5101C138.854 105.651 138.854 113.817 138.854 121.958C138.854 122.47 139.008 122.649 139.494 122.777C143.181 123.801 146.714 125.158 149.914 127.308C154.88 130.662 157.952 135.27 158.925 141.184C159.206 142.924 159.078 144.691 158.874 146.457C158.31 151.347 156.467 155.699 153.062 159.308C150.195 162.355 146.714 164.377 142.797 165.785C141.645 166.195 140.467 166.553 139.29 166.809C138.957 166.886 138.854 167.04 138.854 167.372C138.854 169.984 138.854 172.62 138.88 175.232C138.88 175.641 138.752 175.744 138.368 175.744C136.243 175.718 134.093 175.718 131.968 175.744C131.584 175.744 131.482 175.641 131.482 175.257C131.507 172.979 131.482 170.7 131.507 168.422C131.507 168.038 131.43 167.91 131.021 167.936C129.331 168.012 127.642 168.038 125.952 167.961C125.542 167.936 125.542 168.14 125.542 168.422C125.542 170.675 125.542 172.902 125.568 175.155C125.568 175.641 125.414 175.744 124.954 175.744C122.854 175.718 120.755 175.718 118.656 175.744C118.246 175.744 118.144 175.616 118.144 175.232C118.17 172.697 118.144 170.163 118.17 167.628C118.17 167.116 117.99 166.937 117.53 166.809C111.744 165.324 106.701 162.56 102.682 158.131C98.8672 153.932 96.6912 148.94 95.8208 143.36C95.6928 142.515 95.6416 141.644 95.5136 140.8C95.4624 140.364 95.5648 140.211 96.0256 140.185C98.0992 140.083 100.147 139.955 102.221 139.852C102.989 139.801 103.731 139.801 104.499 139.724C104.909 139.673 105.011 139.801 105.037 140.211C105.318 143.948 106.394 147.404 108.646 150.451C110.976 153.574 114.074 155.648 117.709 156.953C118.195 157.132 118.144 156.876 118.144 156.569C118.042 151.756 118.042 146.969 118.042 142.156ZM138.778 144.793C138.778 146.124 138.778 147.481 138.778 148.812C138.778 151.398 138.778 153.984 138.778 156.569C138.778 156.8 138.701 157.081 139.136 156.928C141.542 156.108 143.77 154.982 145.613 153.19C148.685 150.195 149.683 146.457 149.325 142.336C149.12 140.108 147.942 138.214 146.304 136.652C144.307 134.758 141.85 133.632 139.29 132.71C138.829 132.531 138.752 132.659 138.752 133.094C138.778 137.011 138.778 140.902 138.778 144.793ZM125.44 143.872C125.44 145.254 125.44 146.636 125.44 147.993C125.44 151.296 125.44 154.598 125.44 157.926C125.44 158.182 125.363 158.464 125.824 158.464C127.488 158.464 129.126 158.464 130.79 158.438C131.277 158.438 131.405 158.259 131.405 157.772C131.379 148.915 131.379 140.057 131.405 131.2C131.405 130.764 131.302 130.611 130.867 130.534C129.229 130.201 127.59 129.92 126.003 129.382C125.466 129.203 125.44 129.203 125.44 129.792C125.44 134.476 125.44 139.161 125.44 143.872ZM117.99 117.376C118.016 117.273 118.016 117.222 118.016 117.171C118.016 110.054 118.016 102.937 118.016 95.8205C118.016 95.4109 117.862 95.4621 117.606 95.5645C115.994 96.1277 114.432 96.8189 113.024 97.8173C110.797 99.3789 109.082 101.299 108.467 104.038C108.16 105.344 108.211 106.675 108.314 108.006C108.493 110.617 109.44 112.896 111.642 114.508C113.562 115.865 115.738 116.659 117.99 117.376ZM131.354 120.857C131.354 120.704 131.379 120.576 131.379 120.448C131.379 112.025 131.379 103.603 131.379 95.1805C131.379 94.7453 131.2 94.6685 130.842 94.6429C129.229 94.5405 127.616 94.4637 126.003 94.3357C125.542 94.3101 125.414 94.4381 125.414 94.8989C125.44 102.886 125.414 110.848 125.414 118.835C125.414 119.219 125.517 119.398 125.875 119.475C126.336 119.577 126.797 119.731 127.283 119.859C128.64 120.192 129.946 120.678 131.354 120.857Z" fill="white"/>
<path d="M128.333 17.8942C143.258 17.8942 157.722 20.8126 171.315 26.5726C184.474 32.1278 196.275 40.0894 206.413 50.2526C216.55 60.3902 224.538 72.2174 230.093 85.3502C235.853 98.9438 238.771 113.408 238.771 128.333C238.771 143.257 235.853 157.721 230.093 171.315C224.538 184.473 216.576 196.275 206.413 206.413C196.275 216.55 184.448 224.537 171.315 230.093C157.722 235.853 143.258 238.771 128.333 238.771C113.408 238.771 98.944 235.853 85.3504 230.093C72.192 224.537 60.3904 216.576 50.2528 206.413C40.1152 196.275 32.128 184.448 26.5728 171.315C20.8128 157.721 17.8944 143.257 17.8944 128.333C17.8944 113.408 20.8128 98.9438 26.5728 85.3502C32.128 72.1918 40.0896 60.3902 50.2528 50.2526C60.3904 40.115 72.2176 32.1278 85.3504 26.5726C98.944 20.8126 113.408 17.8942 128.333 17.8942ZM128.333 2.53418C58.8544 2.53418 2.53439 58.8542 2.53439 128.333C2.53439 197.811 58.8544 254.131 128.333 254.131C197.811 254.131 254.131 197.811 254.131 128.333C254.131 58.8542 197.811 2.53418 128.333 2.53418Z" fill="url(#paint1_linear_1765_56)"/>
<path d="M148.019 208.179H55.936V183.424H148.019C161.075 183.424 172.109 175.513 172.109 166.118V129.484H196.864V166.144C196.864 189.312 174.95 208.179 148.019 208.179Z" fill="white"/>
<path d="M80.128 128.845H55.3728V93.6446C55.3472 66.7134 77.2608 44.7998 104.192 44.7998H197.069V69.555H104.192C90.9056 69.555 80.1024 80.3582 80.1024 93.6446V128.845H80.128Z" fill="white"/>
<defs>
<linearGradient id="paint0_linear_1765_56" x1="128.333" y1="241.674" x2="128.333" y2="14.9905" gradientUnits="userSpaceOnUse">
<stop stop-color="#203468"/>
<stop offset="1" stop-color="#3A53A4"/>
</linearGradient>
<linearGradient id="paint1_linear_1765_56" x1="128.333" y1="254.132" x2="128.333" y2="2.53298" gradientUnits="userSpaceOnUse">
<stop offset="0.2208" stop-color="#B22335"/>
<stop offset="1" stop-color="#ED2224"/>
</linearGradient>
</defs>
</svg>
