<svg width="256" height="256" viewBox="0 0 256 256" fill="none" xmlns="http://www.w3.org/2000/svg">
<path d="M256 127.998C256 161.946 242.514 194.504 218.509 218.509C194.504 242.514 161.946 256 127.998 256C94.0514 255.999 61.495 242.513 37.491 218.509C13.487 194.505 0.00116778 161.95 0 128.002C-2.00871e-08 94.0551 13.4853 61.4975 37.4895 37.4926C61.4936 13.4876 94.0505 0.00116783 127.998 0C161.946 -2.00871e-08 194.503 13.4853 218.508 37.4895C242.512 61.4935 255.999 94.0505 256 127.998Z" fill="#111C23"/>
<path d="M145.495 209.099C144.518 209.099 143.572 208.756 142.822 208.13C142.354 207.738 141.976 207.249 141.717 206.696C141.459 206.143 141.325 205.54 141.325 204.929V170.503C141.325 169.526 141.669 168.58 142.295 167.831C142.921 167.081 143.79 166.574 144.751 166.399C154.209 164.667 162.929 160.13 169.776 153.378C171.127 152.03 172.384 150.589 173.536 149.068C161.567 137.143 147.793 142.282 131.845 148.226L127.054 149.988C110.761 156.064 92.2667 162.951 76.5069 147.187C71.4322 142.001 68.2464 135.26 67.4607 128.047C66.675 120.833 68.3348 113.564 72.174 107.407C63.5961 94.0602 66.5332 76.0591 80.3114 62.2766C88.3606 54.3302 98.6143 48.9893 109.74 46.9484C110.341 46.8387 110.958 46.8629 111.548 47.0189C112.139 47.1749 112.688 47.459 113.156 47.851C113.625 48.2422 114.002 48.7318 114.262 49.285C114.52 49.8382 114.654 50.4416 114.654 51.0523V85.5176C114.653 86.4938 114.311 87.439 113.686 88.1888C113.061 88.9385 112.192 89.4456 111.232 89.6216C101.773 91.3545 93.0548 95.891 86.2077 102.642C84.8568 103.992 83.6003 105.432 82.4471 106.953C94.4156 118.873 108.189 113.739 124.139 107.79L128.929 106.029C145.222 99.9476 163.716 93.0607 179.476 108.829C182.698 112.024 185.173 115.891 186.726 120.154C188.278 124.417 188.871 128.97 188.459 133.488C187.977 138.784 186.387 143.92 183.791 148.561C192.387 161.891 189.463 179.913 175.654 193.705C167.609 201.648 157.36 206.99 146.239 209.033C145.992 209.078 145.741 209.1 145.49 209.099H145.495ZM149.66 173.872V199.649C157.244 197.437 164.154 193.367 169.766 187.809C179.454 178.121 182.515 165.954 178.428 156.289C177.547 157.314 176.627 158.313 175.667 159.288C168.474 166.4 159.494 171.438 149.674 173.868L149.66 173.872ZM78.1186 114.32C75.9653 118.711 75.2209 123.662 75.9869 128.492C76.7531 133.323 78.9923 137.798 82.3987 141.309C94.3757 153.286 108.163 148.143 124.129 142.189L128.921 140.428C144.671 134.558 162.452 127.931 177.855 141.705C179.092 138.882 179.861 135.876 180.132 132.806C180.439 129.492 180.009 126.152 178.874 123.024C177.74 119.896 175.927 117.058 173.566 114.712C161.589 102.735 147.802 107.879 131.836 113.832L127.045 115.593C111.298 121.463 93.5174 128.094 78.1142 114.325L78.1186 114.32ZM106.296 56.3628C98.7137 58.576 91.8029 62.6458 86.19 68.2035C76.5026 77.8909 73.4421 90.0532 77.5241 99.7144C78.4048 98.6982 79.328 97.7005 80.2939 96.7196C87.4872 89.6024 96.4722 84.5631 106.296 82.1358V56.3628Z" fill="#00FFB9"/>
</svg>
