<svg width="256" height="256" viewBox="0 0 256 256" fill="none" xmlns="http://www.w3.org/2000/svg">
<mask id="mask0_741_46" style="mask-type:luminance" maskUnits="userSpaceOnUse" x="0" y="1" width="253" height="253">
<path d="M253 1H0V254H253V1Z" fill="white"/>
</mask>
<g mask="url(#mask0_741_46)">
<path d="M126.5 254C196.364 254 253 197.364 253 127.5C253 57.636 196.364 1 126.5 1C56.636 1 0 57.636 0 127.5C0 197.364 56.636 254 126.5 254Z" fill="#122A5F"/>
<path fill-rule="evenodd" clip-rule="evenodd" d="M196.075 127.5C196.075 89.0747 164.925 57.925 126.5 57.925V32.625C133.05 32.625 139.444 33.2888 145.62 34.5525C188.853 43.3993 221.375 81.6517 221.375 127.5C221.375 179.898 178.898 222.375 126.5 222.375C85.1908 222.375 50.0478 195.974 37.0234 159.125H64.5112C76.0271 181.653 99.4625 197.075 126.5 197.075C164.925 197.075 196.075 165.925 196.075 127.5ZM42.5679 83.225C58.4752 113.318 90.0927 133.825 126.5 133.825V108.525C95.319 108.525 68.9286 88.013 60.0865 59.7466C53.105 66.5909 47.1769 74.5057 42.5679 83.225ZM70.7884 50.6965C76.2014 76.4996 99.0881 95.875 126.5 95.875C143.966 95.875 158.125 110.034 158.125 127.5C158.125 144.966 143.966 159.125 126.5 159.125H79.1608C89.3726 174.381 106.763 184.425 126.5 184.425C157.939 184.425 183.425 158.939 183.425 127.5C183.425 96.0613 157.939 70.575 126.5 70.575C109.034 70.575 94.875 56.4159 94.875 38.95V38.0237C86.1971 41.0907 78.0989 45.3844 70.7884 50.6965Z" fill="white"/>
</g>
</svg>
