<svg width="256" height="256" viewBox="0 0 256 256" fill="none" xmlns="http://www.w3.org/2000/svg">
<g clip-path="url(#clip0_1984_888)">
<path d="M128 256C198.692 256 256 198.692 256 128C256 57.3076 198.692 0 128 0C57.3076 0 0 57.3076 0 128C0 198.692 57.3076 256 128 256Z" fill="#F4F6FA"/>
<path d="M81.893 24.7744C81.6178 75.6376 53.6788 119.985 12.2861 143.679L58.4936 223.312C127.509 183.729 174.033 109.665 174.308 24.7744H81.893Z" fill="#A4D3FF"/>
<path d="M174.308 24.7744C174.583 75.6376 202.522 119.985 243.915 143.679L197.708 223.312C128.692 183.729 82.1687 109.665 81.8936 24.7744H174.308Z" fill="#1E2FC5"/>
<path d="M81.8936 24.8164C82.0585 76.2819 99.2403 123.737 128.101 161.966C156.962 123.737 174.143 76.2819 174.308 24.8164H81.8936Z" fill="#2764FF"/>
</g>
<defs>
<clipPath id="clip0_1984_888">
<rect width="256" height="256" fill="white"/>
</clipPath>
</defs>
</svg>
