<svg width="256" height="256" viewBox="0 0 256 256" fill="none" xmlns="http://www.w3.org/2000/svg">
<mask id="mask0_1492_190" style="mask-type:luminance" maskUnits="userSpaceOnUse" x="13" y="13" width="230" height="230">
<path d="M243 13H13V242.087H243V13Z" fill="white"/>
</mask>
<g mask="url(#mask0_1492_190)">
<path d="M106.682 182.696C112.432 203.887 133.063 220.052 143.482 219.382C143.848 219.359 183 212.088 204.432 176.428C221.107 148.67 215.435 121.874 192.748 121.29C184.588 121.882 95.7312 142.334 106.688 182.702M190.632 46.6039L190.609 46.5838L190.641 46.5638C176.352 34.4587 158.921 26.6208 140.355 23.9528C121.789 21.2848 102.845 23.8956 85.7032 31.4841C83.535 32.3824 81.4229 33.4094 79.3782 34.5596C77.981 35.3013 76.5837 36.0372 75.2267 36.8506L75.5573 36.9536C71.545 39.6741 67.9972 43.0183 65.0492 46.8587C36.4947 84.4549 132.273 111.794 183.487 111.873C207.037 128.717 213.65 64.4498 190.632 46.6039Z" fill="#0E3CA5"/>
<path d="M91.4875 47.363C78.3286 67.0646 34.4992 80.9444 27.2916 78.7823L27.2428 78.6908C27.5303 78.098 27.8379 77.5052 28.1426 76.9181C35.6169 62.5791 46.3112 50.1506 59.3939 40.5992C62.0906 38.629 64.8832 36.7877 67.7716 35.0754C72.2123 32.6333 77.1868 31.3136 82.2587 31.2324C101.777 31.6046 91.5852 47.2112 91.4817 47.3688M80.689 186.57C81.6349 192.759 80.666 217.211 79.3952 219.266C78.2999 219.333 76.02 219.473 69.4161 215.782C48.329 203.797 32.06 184.909 23.3757 162.328C14.6913 139.745 14.1275 114.864 21.7803 91.9148C22.131 90.8647 22.498 89.8215 22.8814 88.7848C30.4455 98.8074 39.1999 107.874 46.6404 117.994C53.7273 127.629 63.4764 143.34 65.4601 146.699C77.7766 167.536 79.7402 180.394 80.6804 186.574M226.293 124.95C226.309 138.089 223.831 151.115 218.991 163.338C206.628 176.568 123.3 144 122.483 143.643C111.083 138.668 76.3937 123.535 73.2629 99.7667C68.775 65.5467 138.436 41.7103 169.055 40.8083C172.727 40.8511 183.898 40.98 190.413 46.2491C201.695 56.0492 210.736 68.1455 216.926 81.7217C223.116 95.298 226.309 110.039 226.293 124.95ZM169.883 217.65C160.801 221.873 150.799 218.795 153.397 209.987C158.386 193.065 201.945 175.718 211.565 174.763C212.752 174.646 213.255 175.451 212.73 176.371C202.707 193.924 187.84 208.245 169.892 217.635" fill="#5493F7"/>
<path d="M62.8411 234.226C62.7128 236.138 63.3425 238.021 64.5947 239.474C65.8468 240.927 67.6215 241.832 69.537 241.995C157.8 242.596 243 238.558 243 225.387C243 185.513 62.8411 234.226 62.8411 234.226Z" fill="url(#paint0_linear_1492_190)"/>
<path d="M62.8409 234.226C62.7108 236.142 63.3439 238.033 64.6032 239.486C65.8625 240.941 67.6465 241.842 69.5684 241.995C157.808 242.663 242.893 239.902 243 225.387C243 185.513 62.8409 234.226 62.8409 234.226ZM69.5713 241.488C69.336 241.488 69.1008 241.475 68.8669 241.448C67.5218 241.261 66.2622 240.681 65.246 239.784C64.2299 238.887 63.5021 237.71 63.1543 236.403C63.5316 237.82 64.3601 239.077 65.5155 239.987C66.6707 240.896 68.0907 241.408 69.5627 241.445C157.742 240.896 241.617 213.852 241.617 225.759C241.617 237.912 157.748 242.087 69.5713 241.488Z" fill="url(#paint1_linear_1492_190)"/>
<path d="M69.5775 121.305C68.6925 121.305 67.8164 121.48 66.999 121.816C66.1815 122.154 65.4388 122.648 64.8132 123.272C64.1877 123.896 63.6915 124.635 63.3532 125.45C63.0149 126.264 62.8409 127.136 62.8413 128.018V234.225C62.839 235.999 63.5422 237.702 64.7971 238.961C66.0521 240.219 67.7563 240.93 69.5372 240.941C157.793 240.282 243.107 211.185 243 225.392V105.759C243.107 91.5557 157.823 120.65 69.5775 121.305Z" fill="url(#paint2_linear_1492_190)"/>
<path d="M82.5897 194.612C85.732 194.489 88.8112 194.357 91.8357 194.188C94.8602 194.019 97.8214 193.827 100.734 193.615C103.646 193.404 106.5 193.157 109.318 192.903C112.135 192.648 114.913 192.386 117.655 192.115C120.399 191.843 123.104 191.56 125.778 191.256C131.046 190.66 136.311 190.014 141.567 189.317C144.169 188.971 146.742 188.619 149.33 188.244C151.917 187.869 154.462 187.467 157.04 187.072C159.619 186.677 162.215 186.279 164.803 185.87C167.39 185.46 170.005 185.045 172.617 184.61C175.231 184.174 177.861 183.713 180.527 183.258C183.192 182.802 185.891 182.344 188.62 181.872C191.348 181.4 194.111 180.927 196.911 180.44C199.711 179.953 202.55 179.447 205.441 178.963C208.333 178.479 211.278 178.004 214.276 177.549C217.275 177.092 220.026 176.689 223.763 176.22C227.838 175.643 231.955 175.424 236.068 175.567C239.936 175.826 242.997 176.806 242.997 179.492V170.283C242.997 167.632 240.062 166.681 236.46 166.386C232.619 166.191 228.77 166.352 224.96 166.866C221.369 167.276 218.781 167.669 216.079 168.067C213.376 168.465 210.74 168.88 208.147 169.304C205.554 169.728 203 170.163 200.465 170.6C197.928 171.039 195.405 171.489 192.863 171.932C190.322 172.376 187.76 172.818 185.158 173.261L177.203 174.624C174.495 175.088 171.741 175.555 168.866 176.022C165.991 176.488 162.99 176.952 159.875 177.431C156.762 177.908 153.53 178.418 150.155 178.917V169.714C153.53 169.217 156.768 168.705 159.875 168.227C162.983 167.748 165.985 167.279 168.866 166.818C171.746 166.357 174.506 165.884 177.203 165.418C179.9 164.951 182.559 164.502 185.16 164.057L192.863 162.728L200.465 161.397C203 160.953 205.551 160.538 208.147 160.1C210.742 159.662 213.374 159.264 216.079 158.863C218.784 158.462 221.369 158.07 224.96 157.663C228.771 157.152 232.619 156.989 236.46 157.18C240.065 157.466 243 158.428 243 161.077V151.885C243 149.239 240.065 148.282 236.463 147.984C232.622 147.795 228.773 147.956 224.963 148.468C221.372 148.88 218.787 149.267 216.082 149.667C213.376 150.069 210.742 150.481 208.149 150.906C205.556 151.329 203.003 151.764 200.468 152.202C197.932 152.641 195.408 153.096 192.865 153.537L185.16 154.866C182.559 155.312 179.917 155.759 177.206 156.225C174.495 156.693 171.744 157.159 168.869 157.62C165.994 158.081 162.992 158.554 159.878 159.033C156.765 159.51 153.533 160.019 150.161 160.516V151.315C153.53 150.816 156.773 150.312 159.881 149.829C162.99 149.345 165.991 148.88 168.871 148.419C171.752 147.958 174.506 147.489 177.209 147.022L185.167 145.662C187.754 145.215 190.327 144.776 192.868 144.333L200.47 143.001C205.665 142.091 210.869 141.247 216.084 140.467C218.79 140.072 221.374 139.674 224.965 139.265C228.776 138.755 232.626 138.595 236.465 138.784C240.067 139.07 243.003 140.035 243.003 142.684V133.472C243.003 130.822 240.067 129.875 236.465 129.578C232.626 129.386 228.776 129.546 224.965 130.058C221.374 130.467 218.79 130.86 216.084 131.258C213.379 131.656 210.745 132.073 208.152 132.495C205.559 132.916 203.006 133.354 200.47 133.79L192.868 135.126L185.163 136.453C182.562 136.899 179.92 137.343 177.209 137.813C174.498 138.282 171.746 138.746 168.871 139.207C165.996 139.668 162.992 140.141 159.875 140.622C156.758 141.103 153.527 141.61 150.158 142.108V132.904C153.527 132.406 156.753 131.896 159.873 131.416C162.992 130.935 165.991 130.47 168.871 130.003C171.752 129.538 174.498 129.073 177.209 128.61L185.167 127.249C187.754 126.802 190.327 126.367 192.868 125.92C195.41 125.474 197.932 125.03 200.47 124.589C203.01 124.148 205.556 123.71 208.152 123.289C210.748 122.868 213.379 122.452 216.082 122.055C218.784 121.657 221.374 121.263 224.965 120.855C228.776 120.342 232.626 120.181 236.465 120.371C240.07 120.657 243.005 121.622 243.005 124.268V115.067C243.005 112.419 240.07 111.465 236.468 111.168C232.629 110.979 228.779 111.141 224.968 111.652C221.377 112.06 218.792 112.45 216.087 112.851C213.382 113.252 210.748 113.664 208.155 114.088C205.562 114.512 203.01 114.947 200.473 115.385C197.938 115.823 195.413 116.279 192.872 116.719C190.33 117.161 187.768 117.602 185.17 118.042L177.212 119.409C171.443 120.401 165.663 121.336 159.875 122.212C156.755 122.694 153.527 123.2 150.158 123.701V114.368C123.489 118.527 96.5639 120.845 69.5745 121.307C68.6896 121.307 67.8135 121.481 66.9961 121.818C66.1786 122.156 65.4359 122.65 64.8103 123.273C64.1848 123.897 63.6887 124.636 63.3504 125.452C63.012 126.265 62.838 127.138 62.8384 128.02V195.028C66.2884 195.028 69.6464 194.984 72.9354 194.914C76.2244 194.841 79.4444 194.733 82.5897 194.612Z" fill="url(#paint3_linear_1492_190)"/>
<path d="M82.5752 213.019C85.7232 212.9 88.7995 212.762 91.824 212.596C94.8485 212.43 97.8127 212.232 100.736 212.023C103.66 211.814 106.501 211.572 109.318 211.313C112.136 211.056 114.913 210.801 117.656 210.523C120.398 210.245 123.118 209.967 125.778 209.664C131.045 209.064 136.306 208.418 141.562 207.727C144.16 207.38 146.737 207.023 149.324 206.651C151.912 206.28 154.462 205.875 157.037 205.477C159.613 205.08 162.213 204.686 164.8 204.28C167.388 203.873 170.004 203.45 172.62 203.017C175.236 202.585 177.867 202.124 180.533 201.666L188.623 200.279C191.35 199.81 194.117 199.337 196.914 198.848C199.711 198.358 202.555 197.857 205.447 197.371C208.34 196.883 211.283 196.411 214.282 195.956C217.28 195.5 220.015 195.097 223.77 194.627C227.843 194.046 231.961 193.826 236.075 193.972C239.94 194.234 243.003 195.216 243.003 197.899V188.688C243.003 186.004 239.94 185.019 236.078 184.759C231.963 184.614 227.845 184.834 223.77 185.413C220.012 185.871 217.278 186.291 214.282 186.743C211.286 187.196 208.34 187.668 205.447 188.155C202.555 188.642 199.717 189.137 196.917 189.632C194.117 190.129 191.353 190.601 188.623 191.064C185.89 191.528 183.197 191.989 180.533 192.451C177.867 192.912 175.236 193.367 172.623 193.802C170.01 194.237 167.4 194.662 164.803 195.063L157.04 196.268C154.453 196.669 151.9 197.064 149.327 197.436C146.753 197.809 144.17 198.172 141.564 198.513C138.96 198.854 136.35 199.189 133.721 199.512C131.093 199.836 128.454 200.153 125.781 200.449C123.107 200.744 120.402 201.021 117.658 201.308C114.916 201.594 112.138 201.84 109.321 202.095C106.503 202.35 103.646 202.594 100.736 202.808C97.827 203.023 94.8572 203.218 91.824 203.381C88.7909 203.544 85.7204 203.685 82.5752 203.805C79.4299 203.925 76.2157 204.025 72.9237 204.091C69.6319 204.158 66.2767 204.212 62.8325 204.212V213.412C69.4151 213.392 75.997 213.261 82.5752 213.019Z" fill="url(#paint4_linear_1492_190)"/>
<path d="M236.071 203.161C231.958 203.019 227.841 203.237 223.766 203.814C220.008 204.275 217.275 204.691 214.28 205.146C211.283 205.601 208.339 206.074 205.448 206.557C202.555 207.042 199.698 207.542 196.911 208.036C194.125 208.528 191.348 209.007 188.62 209.468L180.527 210.853C177.861 211.309 175.231 211.772 172.615 212.204C169.998 212.638 167.39 213.063 164.795 213.465C162.199 213.865 159.62 214.272 157.033 214.664C154.445 215.057 151.892 215.458 149.316 215.836C146.74 216.214 144.141 216.574 141.553 216.915C136.298 217.605 131.036 218.25 125.769 218.851C123.096 219.149 120.39 219.424 117.647 219.711C114.905 219.997 112.13 220.245 109.31 220.501C106.49 220.755 103.635 220.995 100.725 221.211C97.8158 221.426 94.8458 221.617 91.8128 221.784C82.1578 222.31 72.4906 222.588 62.8213 222.614V231.835C66.2713 231.835 69.635 231.796 72.9125 231.72C76.19 231.644 79.407 231.549 82.5638 231.435C85.712 231.314 88.7883 231.176 91.8128 231.01C94.8373 230.844 97.8013 230.646 100.725 230.438C103.65 230.229 106.492 229.979 109.31 229.727C112.127 229.475 114.902 229.214 117.647 228.94C120.393 228.665 123.11 228.384 125.769 228.081C128.428 227.777 131.085 227.468 133.713 227.141C136.34 226.815 138.951 226.491 141.55 226.145C144.15 225.799 146.725 225.443 149.313 225.068C151.9 224.693 154.45 224.289 157.03 223.897C159.608 223.505 162.205 223.101 164.793 222.695C167.38 222.287 169.993 221.869 172.613 221.431C175.231 220.993 177.864 220.537 180.53 220.079L188.62 218.696L196.908 217.264C199.708 216.776 202.552 216.27 205.448 215.787C208.342 215.303 211.28 214.828 214.28 214.372C217.278 213.916 220.029 213.513 223.766 213.047C227.841 212.471 231.958 212.253 236.071 212.394C239.939 212.649 243 213.631 243 216.318V207.087C243 204.402 239.939 203.428 236.071 203.161Z" fill="url(#paint5_linear_1492_190)"/>
<path d="M82.0004 185.434C84.9329 185.324 87.7505 185.201 90.519 185.055C93.2877 184.909 95.9815 184.747 98.6265 184.56C101.271 184.375 103.906 184.168 106.521 183.944C111.858 183.483 117.191 182.97 122.518 182.407C125.278 182.115 128.095 181.796 131.022 181.442C133.948 181.087 136.996 180.711 140.176 180.297C143.356 179.881 146.68 179.438 150.152 178.917V114.37C123.488 118.528 96.5679 120.846 69.5832 121.306C68.6985 121.306 67.8222 121.48 67.0048 121.818C66.1874 122.155 65.4446 122.649 64.8192 123.273C64.1936 123.896 63.6975 124.636 63.3591 125.45C63.0207 126.264 62.8468 127.137 62.8472 128.019V185.821C66.3402 185.821 69.661 185.78 72.8435 185.708C76.0262 185.637 79.065 185.54 82.0004 185.434Z" fill="url(#paint6_linear_1492_190)"/>
<path d="M83.6272 124.021C83.2967 125.05 83.1357 125.565 82.8079 126.599L80.1514 126.697L82.299 128.197L81.4767 130.774C82.3392 130.113 82.7677 129.789 83.6272 129.125C84.4897 129.723 84.9095 130.015 85.7749 130.608C85.4414 129.605 85.2804 129.104 84.9527 128.1L87.1032 126.431C86.0394 126.482 85.5047 126.496 84.4437 126.545L83.6272 124.021Z" fill="url(#paint7_linear_1492_190)"/>
<path d="M91.3034 155.772L90.4841 158.364L87.8218 158.495L89.9723 159.965C89.6446 160.999 89.4806 161.518 89.1501 162.543C90.0126 161.875 90.4439 161.536 91.3034 160.858C92.1659 161.431 92.5971 161.717 93.4596 162.307L92.6346 159.81L94.7909 158.107C93.7241 158.175 93.1924 158.207 92.1286 158.263L91.3034 155.772Z" fill="url(#paint8_linear_1492_190)"/>
<path d="M92.1286 171.117L91.3034 168.617L90.4841 171.212L87.8218 171.341C88.6843 171.93 89.1126 172.227 89.9723 172.809C89.6446 173.846 89.4806 174.361 89.1501 175.386C90.0126 174.714 90.4439 174.375 91.3034 173.697C92.1659 174.269 92.5971 174.574 93.4596 175.152L92.6346 172.655L94.7909 170.951C93.7241 171.028 93.1924 171.072 92.1286 171.117Z" fill="url(#paint9_linear_1492_190)"/>
<path d="M83.6243 149.708C83.2936 150.742 83.1298 151.251 82.8049 152.285C81.7411 152.328 81.2093 152.351 80.1484 152.383C81.0109 152.981 81.4336 153.285 82.2931 153.877L81.4766 156.455C82.3391 155.796 82.7646 155.461 83.6243 154.798C84.4868 155.392 84.9094 155.69 85.7748 156.286C85.4413 155.281 85.2774 154.78 84.9496 153.771L87.1031 152.104C86.0393 152.154 85.5046 152.18 84.4436 152.219L83.6243 149.708Z" fill="url(#paint10_linear_1492_190)"/>
<path d="M83.6214 162.552L82.8049 165.129C81.7412 165.162 81.2064 165.189 80.1455 165.226L82.2932 166.721L81.4737 169.298L83.6214 167.634L85.7747 169.121C85.4412 168.115 85.2774 167.617 84.9497 166.609C85.8122 165.948 86.2405 165.608 87.103 164.94L84.4437 165.054L83.6214 162.552Z" fill="url(#paint11_linear_1492_190)"/>
<path d="M83.6271 136.864L82.8049 139.441L80.1484 139.539L82.2961 141.037L81.4766 143.613C82.3391 142.955 82.7676 142.623 83.6271 141.959C84.4896 142.554 84.9094 142.852 85.7748 143.445C85.4413 142.442 85.2774 141.938 84.9496 140.933L87.1031 139.265C86.0393 139.313 85.5074 139.338 84.4436 139.381C84.1188 138.371 83.9521 137.873 83.6271 136.864Z" fill="url(#paint12_linear_1492_190)"/>
<path d="M106.673 167.533L105.855 170.146C104.788 170.237 104.252 170.276 103.189 170.366C104.051 170.939 104.482 171.225 105.343 171.767L104.523 174.38L106.673 172.628L108.824 174.011C108.549 173.187 108.275 172.362 108.002 171.538L110.153 169.767C109.085 169.868 108.554 169.911 107.493 170.005C107.165 169.014 107.012 168.525 106.673 167.533Z" fill="url(#paint13_linear_1492_190)"/>
<path d="M91.3034 142.93L90.4841 145.522C89.4174 145.579 88.8856 145.601 87.8218 145.653L89.9723 147.12L89.1501 149.712L91.3034 148.025C92.1659 148.597 92.5971 148.884 93.4596 149.473C93.1319 148.476 92.9623 147.976 92.6346 146.973L94.7909 145.276C93.7241 145.339 93.1924 145.375 92.1286 145.43L91.3034 142.93Z" fill="url(#paint14_linear_1492_190)"/>
<path d="M98.9942 161.714L98.1692 164.32L95.5127 164.484L97.669 165.915L96.8467 168.512L99 166.795L101.153 168.209L100.331 165.723C101.193 165.033 101.622 164.684 102.482 163.987L99.8222 164.189C99.5402 163.365 99.2642 162.541 98.9942 161.714Z" fill="url(#paint15_linear_1492_190)"/>
<path d="M99.8248 177.047L99.0026 174.562L98.1774 177.164C97.1166 177.239 96.5818 177.27 95.5151 177.339L97.6714 178.771L96.8491 181.377C97.7116 180.692 98.1401 180.34 99.0026 179.658C99.8651 180.231 100.293 180.518 101.156 181.075L100.334 178.59C101.196 177.898 101.625 177.553 102.485 176.856L99.8248 177.047Z" fill="url(#paint16_linear_1492_190)"/>
<path d="M91.3034 130.086L90.4841 132.663C89.4174 132.721 88.8856 132.744 87.8218 132.798L89.9723 134.267C89.6446 135.304 89.4806 135.822 89.1501 136.844C90.0126 136.171 90.4439 135.836 91.3034 135.158C92.1659 135.73 92.5971 136.017 93.4596 136.609L92.6346 134.109C93.4971 133.434 93.9254 133.087 94.7909 132.407C93.7241 132.471 93.1924 132.506 92.1286 132.563L91.3034 130.086Z" fill="url(#paint17_linear_1492_190)"/>
<path d="M98.9885 148.874L98.169 151.478C97.1025 151.546 96.5763 151.586 95.5098 151.649L97.663 153.081L96.838 155.684L98.9943 153.966L101.147 155.38L100.325 152.892L102.475 151.173L99.8165 151.375L98.9885 148.874Z" fill="url(#paint18_linear_1492_190)"/>
<path d="M84.4437 177.91L83.6214 175.396L82.802 177.974L80.1455 178.074C81.008 178.667 81.4335 178.972 82.2932 179.569L81.4737 182.146L83.6214 180.488L85.7747 181.977L84.9497 179.466L87.103 177.796L84.4437 177.91Z" fill="url(#paint19_linear_1492_190)"/>
<path d="M68.2514 150.126L67.4263 152.684C66.3597 152.684 65.8249 152.684 64.7612 152.7C65.6237 153.324 66.0549 153.64 66.9174 154.258L66.0923 156.815L68.2486 155.214C69.1111 155.836 69.5423 156.139 70.4048 156.759L69.5854 154.227L71.7388 152.615C70.6722 152.631 70.1403 152.648 69.0737 152.66L68.2514 150.126Z" fill="url(#paint20_linear_1492_190)"/>
<path d="M68.2514 137.279L67.4263 139.834C66.3597 139.834 65.8249 139.849 64.7612 139.852L66.9174 141.409L66.0952 143.967L68.2514 142.372L70.4048 143.91L69.5854 141.375C70.4479 140.733 70.8763 140.416 71.7388 139.766C70.6751 139.786 70.1403 139.795 69.0737 139.808L68.2514 137.279Z" fill="url(#paint21_linear_1492_190)"/>
<path d="M69.0625 178.349L68.2374 175.815L67.4123 178.367C66.3456 178.382 65.8138 178.384 64.75 178.39L66.9063 179.945L66.084 182.505L68.2374 180.907L70.3937 182.45C70.1182 181.604 69.8441 180.757 69.5714 179.91L71.7248 178.301C70.6697 178.327 70.1407 178.33 69.0625 178.349Z" fill="url(#paint22_linear_1492_190)"/>
<path d="M96.8379 142.841L98.9884 141.123C99.8509 141.696 100.285 141.981 101.145 142.54L100.325 140.051L102.476 138.313C101.409 138.399 100.881 138.439 99.8164 138.517L98.9913 136.034L98.169 138.631C97.1082 138.706 96.5734 138.737 95.5068 138.809L97.663 140.241L96.8379 142.841Z" fill="url(#paint23_linear_1492_190)"/>
<path d="M96.8379 129.994C97.7004 129.31 98.1317 128.966 98.9913 128.276C99.8538 128.849 100.285 129.136 101.145 129.69L100.325 127.206C101.188 126.516 101.616 126.166 102.476 125.471C101.409 125.556 100.881 125.593 99.8164 125.67L98.9913 123.183L98.169 125.785C97.1082 125.862 96.5734 125.896 95.5068 125.962L97.663 127.394L96.8379 129.994Z" fill="url(#paint24_linear_1492_190)"/>
<path d="M68.2514 162.97L67.4234 165.526H64.7612L66.9174 167.093L66.0923 169.644L68.2486 168.046L70.4048 169.588L69.5854 167.053L71.7359 165.444C70.6722 165.463 70.1403 165.472 69.0737 165.487L68.2514 162.97Z" fill="url(#paint25_linear_1492_190)"/>
<path d="M75.945 130.694L75.1227 133.257C74.059 133.282 73.527 133.3 72.4575 133.323L74.6138 134.85L73.7915 137.426L75.945 135.795L78.1012 137.306L77.276 134.784L79.4295 133.14L76.773 133.223C76.4395 132.215 76.2755 131.711 75.945 130.694Z" fill="url(#paint26_linear_1492_190)"/>
<path d="M75.945 143.545L75.1227 146.123L72.4575 146.186C73.32 146.798 73.7513 147.099 74.6138 147.707C74.2832 148.732 74.1193 149.25 73.7915 150.284C74.654 149.63 75.0825 149.31 75.942 148.655C76.8045 149.262 77.2387 149.559 78.1012 150.161L77.276 147.641L79.4295 145.999L76.7672 146.083C76.4365 145.058 76.2755 144.556 75.945 143.545Z" fill="url(#paint27_linear_1492_190)"/>
<path d="M76.7646 171.755L75.9424 169.231L75.1201 171.81C74.0535 171.837 73.5187 171.848 72.4521 171.873L74.6112 173.395L73.7861 175.972L75.9395 174.343L78.0986 175.855L77.2735 173.332L79.4268 171.689L76.7646 171.755Z" fill="url(#paint28_linear_1492_190)"/>
<path d="M75.942 156.388L75.1198 158.966C74.056 158.991 73.5213 159.008 72.4575 159.026L74.611 160.551C74.2803 161.576 74.1165 162.095 73.7887 163.129L75.942 161.497L78.0983 163.009C77.7705 162 77.6067 161.497 77.2732 160.488C78.1357 159.836 78.5698 159.501 79.4295 158.842C78.3628 158.876 77.831 158.9 76.7672 158.93L75.942 156.388Z" fill="url(#paint29_linear_1492_190)"/>
<path d="M68.2514 124.434L67.4292 126.991C66.3626 126.991 65.8249 127.008 64.7612 127.014C65.6237 127.638 66.0578 127.953 66.9174 128.568L66.0952 131.12L68.2514 129.531C69.1139 130.149 69.5452 130.453 70.4077 131.065L69.5883 128.534L71.7446 126.921C70.6779 126.945 70.1403 126.957 69.0737 126.97L68.2514 124.434Z" fill="url(#paint30_linear_1492_190)"/>
<path d="M106.673 154.693L105.855 157.304C104.788 157.395 104.258 157.436 103.192 157.521C104.055 158.094 104.483 158.364 105.342 158.92L104.523 161.536C105.386 160.838 105.813 160.484 106.673 159.782L108.825 161.164L108.002 158.694L110.153 156.924C109.085 157.024 108.554 157.067 107.493 157.161C107.166 156.179 107.013 155.683 106.673 154.693Z" fill="url(#paint31_linear_1492_190)"/>
<path d="M137.396 151.412L136.57 154.061L133.905 154.395L136.058 155.702L135.233 158.35L137.393 156.506C138.255 157.022 138.686 157.285 139.549 157.804L138.723 155.364L140.883 153.509L138.217 153.855L137.396 151.412Z" fill="url(#paint32_linear_1492_190)"/>
<path d="M137.396 138.569C137.064 139.632 136.897 140.156 136.57 141.218C135.503 141.353 134.969 141.422 133.905 141.548C134.767 142.077 135.199 142.335 136.062 142.86L135.239 145.506C136.102 144.766 136.533 144.403 137.396 143.661L139.552 144.957L138.726 142.521L140.885 140.663C139.822 140.801 139.285 140.874 138.22 141.009L137.396 138.569Z" fill="url(#paint33_linear_1492_190)"/>
<path d="M138.214 166.694L137.393 164.255L136.567 166.907C135.503 167.036 134.969 167.11 133.905 167.236L136.058 168.545L135.233 171.193L137.39 169.349C138.252 169.867 138.686 170.126 139.545 170.647L138.723 168.21L140.88 166.35L138.214 166.694Z" fill="url(#paint34_linear_1492_190)"/>
<path d="M129.725 133.087C129.4 134.145 129.239 134.673 128.908 135.733L126.257 136.037L128.403 137.364L127.585 140.006C128.448 139.278 128.868 138.912 129.725 138.182L131.873 139.496L131.05 137.051L133.207 135.215L130.545 135.538C130.26 134.725 129.986 133.909 129.725 133.087Z" fill="url(#paint35_linear_1492_190)"/>
<path d="M137.398 125.721L136.57 128.37C135.503 128.504 134.972 128.57 133.905 128.699L136.065 130.01L135.239 132.662C136.102 131.926 136.533 131.548 137.396 130.812L139.555 132.115C139.281 131.301 139.006 130.487 138.729 129.672C139.592 128.937 140.026 128.556 140.888 127.814L138.22 128.161L137.398 125.721Z" fill="url(#paint36_linear_1492_190)"/>
<path d="M129.725 120.248C129.4 121.301 129.239 121.834 128.908 122.891L126.257 123.194C127.12 123.722 127.548 123.991 128.403 124.52L127.585 127.161C128.448 126.433 128.868 126.066 129.725 125.337L131.876 126.651L131.053 124.208C131.916 123.472 132.341 123.105 133.207 122.373L130.545 122.695C130.261 121.884 129.987 121.068 129.725 120.248Z" fill="url(#paint37_linear_1492_190)"/>
<path d="M145.09 143.975L144.264 146.635C143.2 146.778 142.668 146.853 141.604 146.99L143.758 148.275L142.932 150.933L145.086 149.065L147.238 150.341C146.905 149.37 146.745 148.883 146.418 147.909C147.28 147.159 147.705 146.787 148.562 146.031C147.501 146.185 146.972 146.254 145.911 146.406L145.09 143.975Z" fill="url(#paint38_linear_1492_190)"/>
<path d="M145.095 131.131L144.27 133.786C143.206 133.935 142.675 134.003 141.608 134.146C142.471 134.664 142.898 134.914 143.758 135.426L142.936 138.089L145.092 136.216L147.24 137.497C146.909 136.523 146.748 136.037 146.42 135.061C147.283 134.31 147.709 133.937 148.566 133.184L145.915 133.56L145.095 131.131Z" fill="url(#paint39_linear_1492_190)"/>
<path d="M145.9 172.095L145.08 169.663L144.255 172.321C143.195 172.467 142.66 172.538 141.6 172.679L143.749 173.965L142.925 176.628C143.787 175.883 144.221 175.503 145.08 174.753L147.228 176.032L146.406 173.598L148.553 171.719C147.492 171.875 146.975 171.948 145.9 172.095Z" fill="url(#paint40_linear_1492_190)"/>
<path d="M145.098 118.283L144.273 120.943C143.21 121.089 142.675 121.164 141.608 121.305L143.767 122.586L142.939 125.242L145.098 123.378C145.96 123.888 146.386 124.145 147.246 124.649C146.918 123.678 146.751 123.191 146.426 122.217C147.289 121.467 147.711 121.095 148.568 120.338C147.51 120.494 146.981 120.57 145.921 120.717L145.098 118.283Z" fill="url(#paint41_linear_1492_190)"/>
<path d="M145.086 156.821L144.26 159.478L141.603 159.834L143.752 161.122L142.93 163.777L145.083 161.913L147.231 163.184L146.412 160.753C147.275 160.002 147.7 159.63 148.557 158.875C147.498 159.032 146.967 159.104 145.903 159.249L145.086 156.821Z" fill="url(#paint42_linear_1492_190)"/>
<path d="M129.725 145.934C129.4 146.99 129.239 147.519 128.908 148.577L126.254 148.883C127.117 149.412 127.545 149.684 128.402 150.211L127.585 152.851L129.725 151.024L131.876 152.342L131.053 149.896C131.915 149.163 132.341 148.794 133.206 148.061C132.14 148.192 131.602 148.255 130.545 148.381L129.725 145.934Z" fill="url(#paint43_linear_1492_190)"/>
<path d="M106.673 129.001L105.855 131.613C104.788 131.704 104.252 131.749 103.189 131.833L105.343 133.236L104.523 135.85C105.386 135.152 105.813 134.793 106.673 134.092C107.536 134.664 107.961 134.926 108.824 135.478L108.002 133.007C108.864 132.303 109.293 131.939 110.153 131.234L107.493 131.475C107.165 130.481 107.012 129.992 106.673 129.001Z" fill="url(#paint44_linear_1492_190)"/>
<path d="M114.356 160.408L113.533 163.034C112.469 163.134 111.935 163.186 110.868 163.28L113.025 164.652L112.199 167.278L114.356 165.5C115.218 166.049 115.649 166.318 116.512 166.865L115.686 164.403C116.549 163.693 116.977 163.332 117.84 162.616L115.18 162.879C114.85 161.905 114.683 161.399 114.356 160.408Z" fill="url(#paint45_linear_1492_190)"/>
<path d="M129.725 158.776L128.908 161.42C127.848 161.543 127.318 161.609 126.254 161.726C127.117 162.262 127.543 162.528 128.402 163.055L127.582 165.692C128.445 164.965 128.868 164.601 129.725 163.871L131.873 165.185L131.053 162.742C131.915 162.007 132.341 161.638 133.206 160.904C132.14 161.036 131.602 161.096 130.545 161.225C130.26 160.413 129.986 159.596 129.725 158.776Z" fill="url(#paint46_linear_1492_190)"/>
<path d="M114.356 134.723L113.533 137.346L110.868 137.596L113.025 138.966L112.199 141.593C113.062 140.88 113.495 140.527 114.356 139.814C115.218 140.361 115.649 140.63 116.512 141.18C116.181 140.192 116.015 139.7 115.689 138.711C116.552 137.999 116.98 137.647 117.843 136.928L115.18 137.188L114.356 134.723Z" fill="url(#paint47_linear_1492_190)"/>
<path d="M114.356 173.255L113.533 175.878C112.469 175.981 111.935 176.03 110.868 176.128L113.025 177.499L112.199 180.128L114.356 178.346L116.512 179.716L115.686 177.247C116.549 176.538 116.977 176.179 117.84 175.463L115.18 175.721L114.356 173.255Z" fill="url(#paint48_linear_1492_190)"/>
<path d="M106.673 141.861L105.855 144.475C104.788 144.564 104.258 144.61 103.192 144.692C104.055 145.266 104.483 145.552 105.342 146.094L104.523 148.707L106.673 146.953C107.536 147.508 107.962 147.785 108.825 148.335L108.002 145.865L110.153 144.094C109.085 144.195 108.554 144.238 107.493 144.334L106.673 141.861Z" fill="url(#paint49_linear_1492_190)"/>
<path d="M114.357 121.878L113.533 124.503C112.469 124.606 111.935 124.652 110.868 124.75L113.022 126.124L112.199 128.745L114.357 126.968C115.22 127.51 115.646 127.791 116.512 128.335L115.689 125.87C116.552 125.16 116.98 124.798 117.846 124.083C116.779 124.189 116.248 124.246 115.18 124.346L114.357 121.878Z" fill="url(#paint50_linear_1492_190)"/>
<path d="M114.356 147.565L113.533 150.188L110.868 150.451L113.025 151.826L112.202 154.452L114.356 152.672L116.512 154.037L115.689 151.572L117.843 149.785C116.779 149.893 116.248 149.945 115.18 150.048C114.853 149.043 114.686 148.556 114.356 147.565Z" fill="url(#paint51_linear_1492_190)"/>
<path d="M130.53 174.073C130.203 173.097 130.042 172.602 129.71 171.622L128.895 174.265C127.833 174.395 127.304 174.449 126.241 174.57L128.385 175.899L127.569 178.542C128.431 177.814 128.854 177.442 129.71 176.712C130.573 177.241 131.002 177.508 131.861 178.032L131.039 175.586L133.193 173.747L130.53 174.073Z" fill="url(#paint52_linear_1492_190)"/>
<path d="M122.865 168.514L122.043 166.055L121.218 168.692L118.558 168.979L120.712 170.333L119.89 172.965L122.045 171.164L124.197 172.509L123.37 170.052C124.233 169.331 124.665 168.964 125.525 168.237C124.46 168.343 123.929 168.403 122.865 168.514Z" fill="url(#paint53_linear_1492_190)"/>
<path d="M122.045 127.525L121.223 130.157C120.16 130.272 119.625 130.318 118.562 130.444L120.715 131.8L119.892 134.432L122.048 132.631L124.199 133.974L123.374 131.52L125.527 129.707L122.868 129.993L122.045 127.525Z" fill="url(#paint54_linear_1492_190)"/>
<path d="M122.043 153.217L121.22 155.848L118.558 156.134L120.715 157.487L119.892 160.118L122.045 158.322L124.199 159.66L123.374 157.208L125.527 155.396C124.463 155.51 123.929 155.573 122.868 155.682L122.043 153.217Z" fill="url(#paint55_linear_1492_190)"/>
<path d="M122.045 140.37C121.718 141.427 121.552 141.948 121.22 143.004C120.159 143.119 119.623 143.168 118.558 143.277L120.715 144.628L119.892 147.26L122.045 145.465L124.199 146.805L123.374 144.351C124.236 143.628 124.668 143.263 125.527 142.538C124.466 142.658 123.932 142.712 122.868 142.824L122.045 140.37Z" fill="url(#paint56_linear_1492_190)"/>
</g>
<defs>
<linearGradient id="paint0_linear_1492_190" x1="62.8411" y1="225.876" x2="243" y2="225.876" gradientUnits="userSpaceOnUse">
<stop stop-color="#600000"/>
<stop offset="0.327" stop-color="#630000"/>
<stop offset="0.59" stop-color="#6D0000"/>
<stop offset="0.83" stop-color="#7E0000"/>
<stop offset="1" stop-color="#8F0000"/>
</linearGradient>
<linearGradient id="paint1_linear_1492_190" x1="152.92" y1="209.7" x2="152.92" y2="242.087" gradientUnits="userSpaceOnUse">
<stop offset="0.35" stop-color="#BF1010"/>
<stop offset="0.645" stop-color="#BD1010"/>
<stop offset="0.752" stop-color="#B60F0F"/>
<stop offset="0.828" stop-color="#AB0D0D"/>
<stop offset="0.889" stop-color="#9A0A0A"/>
<stop offset="0.941" stop-color="#840606"/>
<stop offset="0.987" stop-color="#690202"/>
<stop offset="1" stop-color="#600000"/>
</linearGradient>
<linearGradient id="paint2_linear_1492_190" x1="62.8413" y1="171.396" x2="243" y2="171.396" gradientUnits="userSpaceOnUse">
<stop stop-color="#BF1010"/>
<stop offset="0.021" stop-color="#C11212"/>
<stop offset="0.244" stop-color="#D22323"/>
<stop offset="0.487" stop-color="#DC2D2D"/>
<stop offset="0.791" stop-color="#DF3030"/>
<stop offset="0.841" stop-color="#DC2E2E"/>
<stop offset="0.882" stop-color="#D22626"/>
<stop offset="0.919" stop-color="#C11919"/>
<stop offset="0.954" stop-color="#A90808"/>
<stop offset="0.966" stop-color="#9F0000"/>
<stop offset="1" stop-color="#DF3030"/>
</linearGradient>
<linearGradient id="paint3_linear_1492_190" x1="62.8412" y1="153.044" x2="243" y2="153.044" gradientUnits="userSpaceOnUse">
<stop stop-color="#DFDFDF"/>
<stop offset="0.021" stop-color="#E1E1E1"/>
<stop offset="0.244" stop-color="#F2F2F2"/>
<stop offset="0.487" stop-color="#FCFCFC"/>
<stop offset="0.791" stop-color="white"/>
<stop offset="0.841" stop-color="#FCFCFC"/>
<stop offset="0.882" stop-color="#F2F2F2"/>
<stop offset="0.919" stop-color="#E1E1E1"/>
<stop offset="0.954" stop-color="#C9C9C9"/>
<stop offset="0.966" stop-color="#BFBFBF"/>
<stop offset="1" stop-color="white"/>
</linearGradient>
<linearGradient id="paint4_linear_1492_190" x1="62.8412" y1="199.057" x2="243" y2="199.057" gradientUnits="userSpaceOnUse">
<stop stop-color="#DFDFDF"/>
<stop offset="0.021" stop-color="#E1E1E1"/>
<stop offset="0.244" stop-color="#F2F2F2"/>
<stop offset="0.487" stop-color="#FCFCFC"/>
<stop offset="0.791" stop-color="white"/>
<stop offset="0.841" stop-color="#FCFCFC"/>
<stop offset="0.882" stop-color="#F2F2F2"/>
<stop offset="0.919" stop-color="#E1E1E1"/>
<stop offset="0.954" stop-color="#C9C9C9"/>
<stop offset="0.966" stop-color="#BFBFBF"/>
<stop offset="1" stop-color="white"/>
</linearGradient>
<linearGradient id="paint5_linear_1492_190" x1="62.8413" y1="217.463" x2="243" y2="217.463" gradientUnits="userSpaceOnUse">
<stop stop-color="#DFDFDF"/>
<stop offset="0.021" stop-color="#E1E1E1"/>
<stop offset="0.244" stop-color="#F2F2F2"/>
<stop offset="0.487" stop-color="#FCFCFC"/>
<stop offset="0.791" stop-color="white"/>
<stop offset="0.841" stop-color="#FCFCFC"/>
<stop offset="0.882" stop-color="#F2F2F2"/>
<stop offset="0.919" stop-color="#E1E1E1"/>
<stop offset="0.954" stop-color="#C9C9C9"/>
<stop offset="0.966" stop-color="#BFBFBF"/>
<stop offset="1" stop-color="white"/>
</linearGradient>
<linearGradient id="paint6_linear_1492_190" x1="62.8415" y1="150.095" x2="243.001" y2="150.095" gradientUnits="userSpaceOnUse">
<stop stop-color="#00209F"/>
<stop offset="0.021" stop-color="#0222A1"/>
<stop offset="0.244" stop-color="#1333B2"/>
<stop offset="0.487" stop-color="#1D3DBC"/>
<stop offset="0.791" stop-color="#2040BF"/>
<stop offset="0.841" stop-color="#1E3DBC"/>
<stop offset="0.882" stop-color="#1933B2"/>
<stop offset="0.919" stop-color="#1122A1"/>
<stop offset="0.954" stop-color="#050A89"/>
<stop offset="0.966" stop-color="#00007F"/>
<stop offset="1" stop-color="#2040BF"/>
</linearGradient>
<linearGradient id="paint7_linear_1492_190" x1="62.8439" y1="127.392" x2="242.991" y2="127.392" gradientUnits="userSpaceOnUse">
<stop stop-color="#DFDFDF"/>
<stop offset="0.021" stop-color="#E1E1E1"/>
<stop offset="0.244" stop-color="#F2F2F2"/>
<stop offset="0.487" stop-color="#FCFCFC"/>
<stop offset="0.791" stop-color="white"/>
<stop offset="0.841" stop-color="#FCFCFC"/>
<stop offset="0.882" stop-color="#F2F2F2"/>
<stop offset="0.919" stop-color="#E1E1E1"/>
<stop offset="0.954" stop-color="#C9C9C9"/>
<stop offset="0.966" stop-color="#BFBFBF"/>
<stop offset="1" stop-color="white"/>
</linearGradient>
<linearGradient id="paint8_linear_1492_190" x1="62.8438" y1="159.163" x2="242.982" y2="159.163" gradientUnits="userSpaceOnUse">
<stop stop-color="#DFDFDF"/>
<stop offset="0.021" stop-color="#E1E1E1"/>
<stop offset="0.244" stop-color="#F2F2F2"/>
<stop offset="0.487" stop-color="#FCFCFC"/>
<stop offset="0.791" stop-color="white"/>
<stop offset="0.841" stop-color="#FCFCFC"/>
<stop offset="0.882" stop-color="#F2F2F2"/>
<stop offset="0.919" stop-color="#E1E1E1"/>
<stop offset="0.954" stop-color="#C9C9C9"/>
<stop offset="0.966" stop-color="#BFBFBF"/>
<stop offset="1" stop-color="white"/>
</linearGradient>
<linearGradient id="paint9_linear_1492_190" x1="62.8438" y1="172.007" x2="242.982" y2="172.007" gradientUnits="userSpaceOnUse">
<stop stop-color="#DFDFDF"/>
<stop offset="0.021" stop-color="#E1E1E1"/>
<stop offset="0.244" stop-color="#F2F2F2"/>
<stop offset="0.487" stop-color="#FCFCFC"/>
<stop offset="0.791" stop-color="white"/>
<stop offset="0.841" stop-color="#FCFCFC"/>
<stop offset="0.882" stop-color="#F2F2F2"/>
<stop offset="0.919" stop-color="#E1E1E1"/>
<stop offset="0.954" stop-color="#C9C9C9"/>
<stop offset="0.966" stop-color="#BFBFBF"/>
<stop offset="1" stop-color="white"/>
</linearGradient>
<linearGradient id="paint10_linear_1492_190" x1="62.8438" y1="153.084" x2="242.99" y2="153.084" gradientUnits="userSpaceOnUse">
<stop stop-color="#DFDFDF"/>
<stop offset="0.021" stop-color="#E1E1E1"/>
<stop offset="0.244" stop-color="#F2F2F2"/>
<stop offset="0.487" stop-color="#FCFCFC"/>
<stop offset="0.791" stop-color="white"/>
<stop offset="0.841" stop-color="#FCFCFC"/>
<stop offset="0.882" stop-color="#F2F2F2"/>
<stop offset="0.919" stop-color="#E1E1E1"/>
<stop offset="0.954" stop-color="#C9C9C9"/>
<stop offset="0.966" stop-color="#BFBFBF"/>
<stop offset="1" stop-color="white"/>
</linearGradient>
<linearGradient id="paint11_linear_1492_190" x1="62.8437" y1="165.925" x2="242.992" y2="165.925" gradientUnits="userSpaceOnUse">
<stop stop-color="#DFDFDF"/>
<stop offset="0.021" stop-color="#E1E1E1"/>
<stop offset="0.244" stop-color="#F2F2F2"/>
<stop offset="0.487" stop-color="#FCFCFC"/>
<stop offset="0.791" stop-color="white"/>
<stop offset="0.841" stop-color="#FCFCFC"/>
<stop offset="0.882" stop-color="#F2F2F2"/>
<stop offset="0.919" stop-color="#E1E1E1"/>
<stop offset="0.954" stop-color="#C9C9C9"/>
<stop offset="0.966" stop-color="#BFBFBF"/>
<stop offset="1" stop-color="white"/>
</linearGradient>
<linearGradient id="paint12_linear_1492_190" x1="62.8438" y1="140.238" x2="242.99" y2="140.238" gradientUnits="userSpaceOnUse">
<stop stop-color="#DFDFDF"/>
<stop offset="0.021" stop-color="#E1E1E1"/>
<stop offset="0.244" stop-color="#F2F2F2"/>
<stop offset="0.487" stop-color="#FCFCFC"/>
<stop offset="0.791" stop-color="white"/>
<stop offset="0.841" stop-color="#FCFCFC"/>
<stop offset="0.882" stop-color="#F2F2F2"/>
<stop offset="0.919" stop-color="#E1E1E1"/>
<stop offset="0.954" stop-color="#C9C9C9"/>
<stop offset="0.966" stop-color="#BFBFBF"/>
<stop offset="1" stop-color="white"/>
</linearGradient>
<linearGradient id="paint13_linear_1492_190" x1="62.8328" y1="170.959" x2="243.026" y2="170.959" gradientUnits="userSpaceOnUse">
<stop stop-color="#DFDFDF"/>
<stop offset="0.021" stop-color="#E1E1E1"/>
<stop offset="0.244" stop-color="#F2F2F2"/>
<stop offset="0.487" stop-color="#FCFCFC"/>
<stop offset="0.791" stop-color="white"/>
<stop offset="0.841" stop-color="#FCFCFC"/>
<stop offset="0.882" stop-color="#F2F2F2"/>
<stop offset="0.919" stop-color="#E1E1E1"/>
<stop offset="0.954" stop-color="#C9C9C9"/>
<stop offset="0.966" stop-color="#BFBFBF"/>
<stop offset="1" stop-color="white"/>
</linearGradient>
<linearGradient id="paint14_linear_1492_190" x1="62.8438" y1="146.321" x2="242.982" y2="146.321" gradientUnits="userSpaceOnUse">
<stop stop-color="#DFDFDF"/>
<stop offset="0.021" stop-color="#E1E1E1"/>
<stop offset="0.244" stop-color="#F2F2F2"/>
<stop offset="0.487" stop-color="#FCFCFC"/>
<stop offset="0.791" stop-color="white"/>
<stop offset="0.841" stop-color="#FCFCFC"/>
<stop offset="0.882" stop-color="#F2F2F2"/>
<stop offset="0.919" stop-color="#E1E1E1"/>
<stop offset="0.954" stop-color="#C9C9C9"/>
<stop offset="0.966" stop-color="#BFBFBF"/>
<stop offset="1" stop-color="white"/>
</linearGradient>
<linearGradient id="paint15_linear_1492_190" x1="62.8441" y1="165.123" x2="242.982" y2="165.123" gradientUnits="userSpaceOnUse">
<stop stop-color="#DFDFDF"/>
<stop offset="0.021" stop-color="#E1E1E1"/>
<stop offset="0.244" stop-color="#F2F2F2"/>
<stop offset="0.487" stop-color="#FCFCFC"/>
<stop offset="0.791" stop-color="white"/>
<stop offset="0.841" stop-color="#FCFCFC"/>
<stop offset="0.882" stop-color="#F2F2F2"/>
<stop offset="0.919" stop-color="#E1E1E1"/>
<stop offset="0.954" stop-color="#C9C9C9"/>
<stop offset="0.966" stop-color="#BFBFBF"/>
<stop offset="1" stop-color="white"/>
</linearGradient>
<linearGradient id="paint16_linear_1492_190" x1="62.8436" y1="177.968" x2="242.982" y2="177.968" gradientUnits="userSpaceOnUse">
<stop stop-color="#DFDFDF"/>
<stop offset="0.021" stop-color="#E1E1E1"/>
<stop offset="0.244" stop-color="#F2F2F2"/>
<stop offset="0.487" stop-color="#FCFCFC"/>
<stop offset="0.791" stop-color="white"/>
<stop offset="0.841" stop-color="#FCFCFC"/>
<stop offset="0.882" stop-color="#F2F2F2"/>
<stop offset="0.919" stop-color="#E1E1E1"/>
<stop offset="0.954" stop-color="#C9C9C9"/>
<stop offset="0.966" stop-color="#BFBFBF"/>
<stop offset="1" stop-color="white"/>
</linearGradient>
<linearGradient id="paint17_linear_1492_190" x1="62.8438" y1="133.474" x2="242.982" y2="133.474" gradientUnits="userSpaceOnUse">
<stop stop-color="#DFDFDF"/>
<stop offset="0.021" stop-color="#E1E1E1"/>
<stop offset="0.244" stop-color="#F2F2F2"/>
<stop offset="0.487" stop-color="#FCFCFC"/>
<stop offset="0.791" stop-color="white"/>
<stop offset="0.841" stop-color="#FCFCFC"/>
<stop offset="0.882" stop-color="#F2F2F2"/>
<stop offset="0.919" stop-color="#E1E1E1"/>
<stop offset="0.954" stop-color="#C9C9C9"/>
<stop offset="0.966" stop-color="#BFBFBF"/>
<stop offset="1" stop-color="white"/>
</linearGradient>
<linearGradient id="paint18_linear_1492_190" x1="62.8439" y1="152.28" x2="242.988" y2="152.28" gradientUnits="userSpaceOnUse">
<stop stop-color="#DFDFDF"/>
<stop offset="0.021" stop-color="#E1E1E1"/>
<stop offset="0.244" stop-color="#F2F2F2"/>
<stop offset="0.487" stop-color="#FCFCFC"/>
<stop offset="0.791" stop-color="white"/>
<stop offset="0.841" stop-color="#FCFCFC"/>
<stop offset="0.882" stop-color="#F2F2F2"/>
<stop offset="0.919" stop-color="#E1E1E1"/>
<stop offset="0.954" stop-color="#C9C9C9"/>
<stop offset="0.966" stop-color="#BFBFBF"/>
<stop offset="1" stop-color="white"/>
</linearGradient>
<linearGradient id="paint19_linear_1492_190" x1="62.8437" y1="178.773" x2="242.992" y2="178.773" gradientUnits="userSpaceOnUse">
<stop stop-color="#DFDFDF"/>
<stop offset="0.021" stop-color="#E1E1E1"/>
<stop offset="0.244" stop-color="#F2F2F2"/>
<stop offset="0.487" stop-color="#FCFCFC"/>
<stop offset="0.791" stop-color="white"/>
<stop offset="0.841" stop-color="#FCFCFC"/>
<stop offset="0.882" stop-color="#F2F2F2"/>
<stop offset="0.919" stop-color="#E1E1E1"/>
<stop offset="0.954" stop-color="#C9C9C9"/>
<stop offset="0.966" stop-color="#BFBFBF"/>
<stop offset="1" stop-color="white"/>
</linearGradient>
<linearGradient id="paint20_linear_1492_190" x1="62.8407" y1="153.471" x2="243.023" y2="153.471" gradientUnits="userSpaceOnUse">
<stop stop-color="#DFDFDF"/>
<stop offset="0.021" stop-color="#E1E1E1"/>
<stop offset="0.244" stop-color="#F2F2F2"/>
<stop offset="0.487" stop-color="#FCFCFC"/>
<stop offset="0.791" stop-color="white"/>
<stop offset="0.841" stop-color="#FCFCFC"/>
<stop offset="0.882" stop-color="#F2F2F2"/>
<stop offset="0.919" stop-color="#E1E1E1"/>
<stop offset="0.954" stop-color="#C9C9C9"/>
<stop offset="0.966" stop-color="#BFBFBF"/>
<stop offset="1" stop-color="white"/>
</linearGradient>
<linearGradient id="paint21_linear_1492_190" x1="62.8407" y1="140.625" x2="243.023" y2="140.625" gradientUnits="userSpaceOnUse">
<stop stop-color="#DFDFDF"/>
<stop offset="0.021" stop-color="#E1E1E1"/>
<stop offset="0.244" stop-color="#F2F2F2"/>
<stop offset="0.487" stop-color="#FCFCFC"/>
<stop offset="0.791" stop-color="white"/>
<stop offset="0.841" stop-color="#FCFCFC"/>
<stop offset="0.882" stop-color="#F2F2F2"/>
<stop offset="0.919" stop-color="#E1E1E1"/>
<stop offset="0.954" stop-color="#C9C9C9"/>
<stop offset="0.966" stop-color="#BFBFBF"/>
<stop offset="1" stop-color="white"/>
</linearGradient>
<linearGradient id="paint22_linear_1492_190" x1="62.841" y1="179.16" x2="242.975" y2="179.16" gradientUnits="userSpaceOnUse">
<stop stop-color="#DFDFDF"/>
<stop offset="0.021" stop-color="#E1E1E1"/>
<stop offset="0.244" stop-color="#F2F2F2"/>
<stop offset="0.487" stop-color="#FCFCFC"/>
<stop offset="0.791" stop-color="white"/>
<stop offset="0.841" stop-color="#FCFCFC"/>
<stop offset="0.882" stop-color="#F2F2F2"/>
<stop offset="0.919" stop-color="#E1E1E1"/>
<stop offset="0.954" stop-color="#C9C9C9"/>
<stop offset="0.966" stop-color="#BFBFBF"/>
<stop offset="1" stop-color="white"/>
</linearGradient>
<linearGradient id="paint23_linear_1492_190" x1="62.8439" y1="139.436" x2="242.982" y2="139.436" gradientUnits="userSpaceOnUse">
<stop stop-color="#DFDFDF"/>
<stop offset="0.021" stop-color="#E1E1E1"/>
<stop offset="0.244" stop-color="#F2F2F2"/>
<stop offset="0.487" stop-color="#FCFCFC"/>
<stop offset="0.791" stop-color="white"/>
<stop offset="0.841" stop-color="#FCFCFC"/>
<stop offset="0.882" stop-color="#F2F2F2"/>
<stop offset="0.919" stop-color="#E1E1E1"/>
<stop offset="0.954" stop-color="#C9C9C9"/>
<stop offset="0.966" stop-color="#BFBFBF"/>
<stop offset="1" stop-color="white"/>
</linearGradient>
<linearGradient id="paint24_linear_1492_190" x1="62.8439" y1="126.586" x2="242.982" y2="126.586" gradientUnits="userSpaceOnUse">
<stop stop-color="#DFDFDF"/>
<stop offset="0.021" stop-color="#E1E1E1"/>
<stop offset="0.244" stop-color="#F2F2F2"/>
<stop offset="0.487" stop-color="#FCFCFC"/>
<stop offset="0.791" stop-color="white"/>
<stop offset="0.841" stop-color="#FCFCFC"/>
<stop offset="0.882" stop-color="#F2F2F2"/>
<stop offset="0.919" stop-color="#E1E1E1"/>
<stop offset="0.954" stop-color="#C9C9C9"/>
<stop offset="0.966" stop-color="#BFBFBF"/>
<stop offset="1" stop-color="white"/>
</linearGradient>
<linearGradient id="paint25_linear_1492_190" x1="62.8407" y1="166.315" x2="242.974" y2="166.315" gradientUnits="userSpaceOnUse">
<stop stop-color="#DFDFDF"/>
<stop offset="0.021" stop-color="#E1E1E1"/>
<stop offset="0.244" stop-color="#F2F2F2"/>
<stop offset="0.487" stop-color="#FCFCFC"/>
<stop offset="0.791" stop-color="white"/>
<stop offset="0.841" stop-color="#FCFCFC"/>
<stop offset="0.882" stop-color="#F2F2F2"/>
<stop offset="0.919" stop-color="#E1E1E1"/>
<stop offset="0.954" stop-color="#C9C9C9"/>
<stop offset="0.966" stop-color="#BFBFBF"/>
<stop offset="1" stop-color="white"/>
</linearGradient>
<linearGradient id="paint26_linear_1492_190" x1="62.8408" y1="134.065" x2="242.979" y2="134.065" gradientUnits="userSpaceOnUse">
<stop stop-color="#DFDFDF"/>
<stop offset="0.021" stop-color="#E1E1E1"/>
<stop offset="0.244" stop-color="#F2F2F2"/>
<stop offset="0.487" stop-color="#FCFCFC"/>
<stop offset="0.791" stop-color="white"/>
<stop offset="0.841" stop-color="#FCFCFC"/>
<stop offset="0.882" stop-color="#F2F2F2"/>
<stop offset="0.919" stop-color="#E1E1E1"/>
<stop offset="0.954" stop-color="#C9C9C9"/>
<stop offset="0.966" stop-color="#BFBFBF"/>
<stop offset="1" stop-color="white"/>
</linearGradient>
<linearGradient id="paint27_linear_1492_190" x1="62.8408" y1="146.907" x2="242.979" y2="146.907" gradientUnits="userSpaceOnUse">
<stop stop-color="#DFDFDF"/>
<stop offset="0.021" stop-color="#E1E1E1"/>
<stop offset="0.244" stop-color="#F2F2F2"/>
<stop offset="0.487" stop-color="#FCFCFC"/>
<stop offset="0.791" stop-color="white"/>
<stop offset="0.841" stop-color="#FCFCFC"/>
<stop offset="0.882" stop-color="#F2F2F2"/>
<stop offset="0.919" stop-color="#E1E1E1"/>
<stop offset="0.954" stop-color="#C9C9C9"/>
<stop offset="0.966" stop-color="#BFBFBF"/>
<stop offset="1" stop-color="white"/>
</linearGradient>
<linearGradient id="paint28_linear_1492_190" x1="62.841" y1="172.593" x2="242.98" y2="172.593" gradientUnits="userSpaceOnUse">
<stop stop-color="#DFDFDF"/>
<stop offset="0.021" stop-color="#E1E1E1"/>
<stop offset="0.244" stop-color="#F2F2F2"/>
<stop offset="0.487" stop-color="#FCFCFC"/>
<stop offset="0.791" stop-color="white"/>
<stop offset="0.841" stop-color="#FCFCFC"/>
<stop offset="0.882" stop-color="#F2F2F2"/>
<stop offset="0.919" stop-color="#E1E1E1"/>
<stop offset="0.954" stop-color="#C9C9C9"/>
<stop offset="0.966" stop-color="#BFBFBF"/>
<stop offset="1" stop-color="white"/>
</linearGradient>
<linearGradient id="paint29_linear_1492_190" x1="62.8408" y1="159.749" x2="242.979" y2="159.749" gradientUnits="userSpaceOnUse">
<stop stop-color="#DFDFDF"/>
<stop offset="0.021" stop-color="#E1E1E1"/>
<stop offset="0.244" stop-color="#F2F2F2"/>
<stop offset="0.487" stop-color="#FCFCFC"/>
<stop offset="0.791" stop-color="white"/>
<stop offset="0.841" stop-color="#FCFCFC"/>
<stop offset="0.882" stop-color="#F2F2F2"/>
<stop offset="0.919" stop-color="#E1E1E1"/>
<stop offset="0.954" stop-color="#C9C9C9"/>
<stop offset="0.966" stop-color="#BFBFBF"/>
<stop offset="1" stop-color="white"/>
</linearGradient>
<linearGradient id="paint30_linear_1492_190" x1="62.8407" y1="127.777" x2="243.017" y2="127.777" gradientUnits="userSpaceOnUse">
<stop stop-color="#DFDFDF"/>
<stop offset="0.021" stop-color="#E1E1E1"/>
<stop offset="0.244" stop-color="#F2F2F2"/>
<stop offset="0.487" stop-color="#FCFCFC"/>
<stop offset="0.791" stop-color="white"/>
<stop offset="0.841" stop-color="#FCFCFC"/>
<stop offset="0.882" stop-color="#F2F2F2"/>
<stop offset="0.919" stop-color="#E1E1E1"/>
<stop offset="0.954" stop-color="#C9C9C9"/>
<stop offset="0.966" stop-color="#BFBFBF"/>
<stop offset="1" stop-color="white"/>
</linearGradient>
<linearGradient id="paint31_linear_1492_190" x1="62.8329" y1="158.115" x2="243.026" y2="158.115" gradientUnits="userSpaceOnUse">
<stop stop-color="#DFDFDF"/>
<stop offset="0.021" stop-color="#E1E1E1"/>
<stop offset="0.244" stop-color="#F2F2F2"/>
<stop offset="0.487" stop-color="#FCFCFC"/>
<stop offset="0.791" stop-color="white"/>
<stop offset="0.841" stop-color="#FCFCFC"/>
<stop offset="0.882" stop-color="#F2F2F2"/>
<stop offset="0.919" stop-color="#E1E1E1"/>
<stop offset="0.954" stop-color="#C9C9C9"/>
<stop offset="0.966" stop-color="#BFBFBF"/>
<stop offset="1" stop-color="white"/>
</linearGradient>
<linearGradient id="paint32_linear_1492_190" x1="62.8494" y1="154.879" x2="242.985" y2="154.879" gradientUnits="userSpaceOnUse">
<stop stop-color="#DFDFDF"/>
<stop offset="0.021" stop-color="#E1E1E1"/>
<stop offset="0.244" stop-color="#F2F2F2"/>
<stop offset="0.487" stop-color="#FCFCFC"/>
<stop offset="0.791" stop-color="white"/>
<stop offset="0.841" stop-color="#FCFCFC"/>
<stop offset="0.882" stop-color="#F2F2F2"/>
<stop offset="0.919" stop-color="#E1E1E1"/>
<stop offset="0.954" stop-color="#C9C9C9"/>
<stop offset="0.966" stop-color="#BFBFBF"/>
<stop offset="1" stop-color="white"/>
</linearGradient>
<linearGradient id="paint33_linear_1492_190" x1="62.8495" y1="142.037" x2="242.985" y2="142.037" gradientUnits="userSpaceOnUse">
<stop stop-color="#DFDFDF"/>
<stop offset="0.021" stop-color="#E1E1E1"/>
<stop offset="0.244" stop-color="#F2F2F2"/>
<stop offset="0.487" stop-color="#FCFCFC"/>
<stop offset="0.791" stop-color="white"/>
<stop offset="0.841" stop-color="#FCFCFC"/>
<stop offset="0.882" stop-color="#F2F2F2"/>
<stop offset="0.919" stop-color="#E1E1E1"/>
<stop offset="0.954" stop-color="#C9C9C9"/>
<stop offset="0.966" stop-color="#BFBFBF"/>
<stop offset="1" stop-color="white"/>
</linearGradient>
<linearGradient id="paint34_linear_1492_190" x1="62.8494" y1="167.726" x2="242.985" y2="167.726" gradientUnits="userSpaceOnUse">
<stop stop-color="#DFDFDF"/>
<stop offset="0.021" stop-color="#E1E1E1"/>
<stop offset="0.244" stop-color="#F2F2F2"/>
<stop offset="0.487" stop-color="#FCFCFC"/>
<stop offset="0.791" stop-color="white"/>
<stop offset="0.841" stop-color="#FCFCFC"/>
<stop offset="0.882" stop-color="#F2F2F2"/>
<stop offset="0.919" stop-color="#E1E1E1"/>
<stop offset="0.954" stop-color="#C9C9C9"/>
<stop offset="0.966" stop-color="#BFBFBF"/>
<stop offset="1" stop-color="white"/>
</linearGradient>
<linearGradient id="paint35_linear_1492_190" x1="62.8152" y1="136.547" x2="243.043" y2="136.547" gradientUnits="userSpaceOnUse">
<stop stop-color="#DFDFDF"/>
<stop offset="0.021" stop-color="#E1E1E1"/>
<stop offset="0.244" stop-color="#F2F2F2"/>
<stop offset="0.487" stop-color="#FCFCFC"/>
<stop offset="0.791" stop-color="white"/>
<stop offset="0.841" stop-color="#FCFCFC"/>
<stop offset="0.882" stop-color="#F2F2F2"/>
<stop offset="0.919" stop-color="#E1E1E1"/>
<stop offset="0.954" stop-color="#C9C9C9"/>
<stop offset="0.966" stop-color="#BFBFBF"/>
<stop offset="1" stop-color="white"/>
</linearGradient>
<linearGradient id="paint36_linear_1492_190" x1="62.8522" y1="129.191" x2="242.982" y2="129.191" gradientUnits="userSpaceOnUse">
<stop stop-color="#DFDFDF"/>
<stop offset="0.021" stop-color="#E1E1E1"/>
<stop offset="0.244" stop-color="#F2F2F2"/>
<stop offset="0.487" stop-color="#FCFCFC"/>
<stop offset="0.791" stop-color="white"/>
<stop offset="0.841" stop-color="#FCFCFC"/>
<stop offset="0.882" stop-color="#F2F2F2"/>
<stop offset="0.919" stop-color="#E1E1E1"/>
<stop offset="0.954" stop-color="#C9C9C9"/>
<stop offset="0.966" stop-color="#BFBFBF"/>
<stop offset="1" stop-color="white"/>
</linearGradient>
<linearGradient id="paint37_linear_1492_190" x1="62.8152" y1="123.704" x2="243.043" y2="123.704" gradientUnits="userSpaceOnUse">
<stop stop-color="#DFDFDF"/>
<stop offset="0.021" stop-color="#E1E1E1"/>
<stop offset="0.244" stop-color="#F2F2F2"/>
<stop offset="0.487" stop-color="#FCFCFC"/>
<stop offset="0.791" stop-color="white"/>
<stop offset="0.841" stop-color="#FCFCFC"/>
<stop offset="0.882" stop-color="#F2F2F2"/>
<stop offset="0.919" stop-color="#E1E1E1"/>
<stop offset="0.954" stop-color="#C9C9C9"/>
<stop offset="0.966" stop-color="#BFBFBF"/>
<stop offset="1" stop-color="white"/>
</linearGradient>
<linearGradient id="paint38_linear_1492_190" x1="62.8469" y1="147.454" x2="242.994" y2="147.454" gradientUnits="userSpaceOnUse">
<stop stop-color="#DFDFDF"/>
<stop offset="0.021" stop-color="#E1E1E1"/>
<stop offset="0.244" stop-color="#F2F2F2"/>
<stop offset="0.487" stop-color="#FCFCFC"/>
<stop offset="0.791" stop-color="white"/>
<stop offset="0.841" stop-color="#FCFCFC"/>
<stop offset="0.882" stop-color="#F2F2F2"/>
<stop offset="0.919" stop-color="#E1E1E1"/>
<stop offset="0.954" stop-color="#C9C9C9"/>
<stop offset="0.966" stop-color="#BFBFBF"/>
<stop offset="1" stop-color="white"/>
</linearGradient>
<linearGradient id="paint39_linear_1492_190" x1="62.8471" y1="134.61" x2="242.995" y2="134.61" gradientUnits="userSpaceOnUse">
<stop stop-color="#DFDFDF"/>
<stop offset="0.021" stop-color="#E1E1E1"/>
<stop offset="0.244" stop-color="#F2F2F2"/>
<stop offset="0.487" stop-color="#FCFCFC"/>
<stop offset="0.791" stop-color="white"/>
<stop offset="0.841" stop-color="#FCFCFC"/>
<stop offset="0.882" stop-color="#F2F2F2"/>
<stop offset="0.919" stop-color="#E1E1E1"/>
<stop offset="0.954" stop-color="#C9C9C9"/>
<stop offset="0.966" stop-color="#BFBFBF"/>
<stop offset="1" stop-color="white"/>
</linearGradient>
<linearGradient id="paint40_linear_1492_190" x1="62.8497" y1="173.147" x2="242.991" y2="173.147" gradientUnits="userSpaceOnUse">
<stop stop-color="#DFDFDF"/>
<stop offset="0.021" stop-color="#E1E1E1"/>
<stop offset="0.244" stop-color="#F2F2F2"/>
<stop offset="0.487" stop-color="#FCFCFC"/>
<stop offset="0.791" stop-color="white"/>
<stop offset="0.841" stop-color="#FCFCFC"/>
<stop offset="0.882" stop-color="#F2F2F2"/>
<stop offset="0.919" stop-color="#E1E1E1"/>
<stop offset="0.954" stop-color="#C9C9C9"/>
<stop offset="0.966" stop-color="#BFBFBF"/>
<stop offset="1" stop-color="white"/>
</linearGradient>
<linearGradient id="paint41_linear_1492_190" x1="62.847" y1="121.763" x2="242.996" y2="121.763" gradientUnits="userSpaceOnUse">
<stop stop-color="#DFDFDF"/>
<stop offset="0.021" stop-color="#E1E1E1"/>
<stop offset="0.244" stop-color="#F2F2F2"/>
<stop offset="0.487" stop-color="#FCFCFC"/>
<stop offset="0.791" stop-color="white"/>
<stop offset="0.841" stop-color="#FCFCFC"/>
<stop offset="0.882" stop-color="#F2F2F2"/>
<stop offset="0.919" stop-color="#E1E1E1"/>
<stop offset="0.954" stop-color="#C9C9C9"/>
<stop offset="0.966" stop-color="#BFBFBF"/>
<stop offset="1" stop-color="white"/>
</linearGradient>
<linearGradient id="paint42_linear_1492_190" x1="62.8468" y1="160.298" x2="242.994" y2="160.298" gradientUnits="userSpaceOnUse">
<stop stop-color="#DFDFDF"/>
<stop offset="0.021" stop-color="#E1E1E1"/>
<stop offset="0.244" stop-color="#F2F2F2"/>
<stop offset="0.487" stop-color="#FCFCFC"/>
<stop offset="0.791" stop-color="white"/>
<stop offset="0.841" stop-color="#FCFCFC"/>
<stop offset="0.882" stop-color="#F2F2F2"/>
<stop offset="0.919" stop-color="#E1E1E1"/>
<stop offset="0.954" stop-color="#C9C9C9"/>
<stop offset="0.966" stop-color="#BFBFBF"/>
<stop offset="1" stop-color="white"/>
</linearGradient>
<linearGradient id="paint43_linear_1492_190" x1="62.815" y1="149.392" x2="243.043" y2="149.392" gradientUnits="userSpaceOnUse">
<stop stop-color="#DFDFDF"/>
<stop offset="0.021" stop-color="#E1E1E1"/>
<stop offset="0.244" stop-color="#F2F2F2"/>
<stop offset="0.487" stop-color="#FCFCFC"/>
<stop offset="0.791" stop-color="white"/>
<stop offset="0.841" stop-color="#FCFCFC"/>
<stop offset="0.882" stop-color="#F2F2F2"/>
<stop offset="0.919" stop-color="#E1E1E1"/>
<stop offset="0.954" stop-color="#C9C9C9"/>
<stop offset="0.966" stop-color="#BFBFBF"/>
<stop offset="1" stop-color="white"/>
</linearGradient>
<linearGradient id="paint44_linear_1492_190" x1="62.8328" y1="132.425" x2="243.026" y2="132.425" gradientUnits="userSpaceOnUse">
<stop stop-color="#DFDFDF"/>
<stop offset="0.021" stop-color="#E1E1E1"/>
<stop offset="0.244" stop-color="#F2F2F2"/>
<stop offset="0.487" stop-color="#FCFCFC"/>
<stop offset="0.791" stop-color="white"/>
<stop offset="0.841" stop-color="#FCFCFC"/>
<stop offset="0.882" stop-color="#F2F2F2"/>
<stop offset="0.919" stop-color="#E1E1E1"/>
<stop offset="0.954" stop-color="#C9C9C9"/>
<stop offset="0.966" stop-color="#BFBFBF"/>
<stop offset="1" stop-color="white"/>
</linearGradient>
<linearGradient id="paint45_linear_1492_190" x1="62.8467" y1="163.841" x2="242.986" y2="163.841" gradientUnits="userSpaceOnUse">
<stop stop-color="#DFDFDF"/>
<stop offset="0.021" stop-color="#E1E1E1"/>
<stop offset="0.244" stop-color="#F2F2F2"/>
<stop offset="0.487" stop-color="#FCFCFC"/>
<stop offset="0.791" stop-color="white"/>
<stop offset="0.841" stop-color="#FCFCFC"/>
<stop offset="0.882" stop-color="#F2F2F2"/>
<stop offset="0.919" stop-color="#E1E1E1"/>
<stop offset="0.954" stop-color="#C9C9C9"/>
<stop offset="0.966" stop-color="#BFBFBF"/>
<stop offset="1" stop-color="white"/>
</linearGradient>
<linearGradient id="paint46_linear_1492_190" x1="62.815" y1="162.236" x2="243.043" y2="162.236" gradientUnits="userSpaceOnUse">
<stop stop-color="#DFDFDF"/>
<stop offset="0.021" stop-color="#E1E1E1"/>
<stop offset="0.244" stop-color="#F2F2F2"/>
<stop offset="0.487" stop-color="#FCFCFC"/>
<stop offset="0.791" stop-color="white"/>
<stop offset="0.841" stop-color="#FCFCFC"/>
<stop offset="0.882" stop-color="#F2F2F2"/>
<stop offset="0.919" stop-color="#E1E1E1"/>
<stop offset="0.954" stop-color="#C9C9C9"/>
<stop offset="0.966" stop-color="#BFBFBF"/>
<stop offset="1" stop-color="white"/>
</linearGradient>
<linearGradient id="paint47_linear_1492_190" x1="62.8467" y1="138.157" x2="242.985" y2="138.157" gradientUnits="userSpaceOnUse">
<stop stop-color="#DFDFDF"/>
<stop offset="0.021" stop-color="#E1E1E1"/>
<stop offset="0.244" stop-color="#F2F2F2"/>
<stop offset="0.487" stop-color="#FCFCFC"/>
<stop offset="0.791" stop-color="white"/>
<stop offset="0.841" stop-color="#FCFCFC"/>
<stop offset="0.882" stop-color="#F2F2F2"/>
<stop offset="0.919" stop-color="#E1E1E1"/>
<stop offset="0.954" stop-color="#C9C9C9"/>
<stop offset="0.966" stop-color="#BFBFBF"/>
<stop offset="1" stop-color="white"/>
</linearGradient>
<linearGradient id="paint48_linear_1492_190" x1="62.8467" y1="176.692" x2="242.986" y2="176.692" gradientUnits="userSpaceOnUse">
<stop stop-color="#DFDFDF"/>
<stop offset="0.021" stop-color="#E1E1E1"/>
<stop offset="0.244" stop-color="#F2F2F2"/>
<stop offset="0.487" stop-color="#FCFCFC"/>
<stop offset="0.791" stop-color="white"/>
<stop offset="0.841" stop-color="#FCFCFC"/>
<stop offset="0.882" stop-color="#F2F2F2"/>
<stop offset="0.919" stop-color="#E1E1E1"/>
<stop offset="0.954" stop-color="#C9C9C9"/>
<stop offset="0.966" stop-color="#BFBFBF"/>
<stop offset="1" stop-color="white"/>
</linearGradient>
<linearGradient id="paint49_linear_1492_190" x1="62.8329" y1="145.268" x2="243.026" y2="145.268" gradientUnits="userSpaceOnUse">
<stop stop-color="#DFDFDF"/>
<stop offset="0.021" stop-color="#E1E1E1"/>
<stop offset="0.244" stop-color="#F2F2F2"/>
<stop offset="0.487" stop-color="#FCFCFC"/>
<stop offset="0.791" stop-color="white"/>
<stop offset="0.841" stop-color="#FCFCFC"/>
<stop offset="0.882" stop-color="#F2F2F2"/>
<stop offset="0.919" stop-color="#E1E1E1"/>
<stop offset="0.954" stop-color="#C9C9C9"/>
<stop offset="0.966" stop-color="#BFBFBF"/>
<stop offset="1" stop-color="white"/>
</linearGradient>
<linearGradient id="paint50_linear_1492_190" x1="62.8352" y1="125.311" x2="243.018" y2="125.311" gradientUnits="userSpaceOnUse">
<stop stop-color="#DFDFDF"/>
<stop offset="0.021" stop-color="#E1E1E1"/>
<stop offset="0.244" stop-color="#F2F2F2"/>
<stop offset="0.487" stop-color="#FCFCFC"/>
<stop offset="0.791" stop-color="white"/>
<stop offset="0.841" stop-color="#FCFCFC"/>
<stop offset="0.882" stop-color="#F2F2F2"/>
<stop offset="0.919" stop-color="#E1E1E1"/>
<stop offset="0.954" stop-color="#C9C9C9"/>
<stop offset="0.966" stop-color="#BFBFBF"/>
<stop offset="1" stop-color="white"/>
</linearGradient>
<linearGradient id="paint51_linear_1492_190" x1="62.8467" y1="151.001" x2="242.985" y2="151.001" gradientUnits="userSpaceOnUse">
<stop stop-color="#DFDFDF"/>
<stop offset="0.021" stop-color="#E1E1E1"/>
<stop offset="0.244" stop-color="#F2F2F2"/>
<stop offset="0.487" stop-color="#FCFCFC"/>
<stop offset="0.791" stop-color="white"/>
<stop offset="0.841" stop-color="#FCFCFC"/>
<stop offset="0.882" stop-color="#F2F2F2"/>
<stop offset="0.919" stop-color="#E1E1E1"/>
<stop offset="0.954" stop-color="#C9C9C9"/>
<stop offset="0.966" stop-color="#BFBFBF"/>
<stop offset="1" stop-color="white"/>
</linearGradient>
<linearGradient id="paint52_linear_1492_190" x1="62.8151" y1="175.083" x2="243.042" y2="175.083" gradientUnits="userSpaceOnUse">
<stop stop-color="#DFDFDF"/>
<stop offset="0.021" stop-color="#E1E1E1"/>
<stop offset="0.244" stop-color="#F2F2F2"/>
<stop offset="0.487" stop-color="#FCFCFC"/>
<stop offset="0.791" stop-color="white"/>
<stop offset="0.841" stop-color="#FCFCFC"/>
<stop offset="0.882" stop-color="#F2F2F2"/>
<stop offset="0.919" stop-color="#E1E1E1"/>
<stop offset="0.954" stop-color="#C9C9C9"/>
<stop offset="0.966" stop-color="#BFBFBF"/>
<stop offset="1" stop-color="white"/>
</linearGradient>
<linearGradient id="paint53_linear_1492_190" x1="62.8465" y1="169.503" x2="242.988" y2="169.503" gradientUnits="userSpaceOnUse">
<stop stop-color="#DFDFDF"/>
<stop offset="0.021" stop-color="#E1E1E1"/>
<stop offset="0.244" stop-color="#F2F2F2"/>
<stop offset="0.487" stop-color="#FCFCFC"/>
<stop offset="0.791" stop-color="white"/>
<stop offset="0.841" stop-color="#FCFCFC"/>
<stop offset="0.882" stop-color="#F2F2F2"/>
<stop offset="0.919" stop-color="#E1E1E1"/>
<stop offset="0.954" stop-color="#C9C9C9"/>
<stop offset="0.966" stop-color="#BFBFBF"/>
<stop offset="1" stop-color="white"/>
</linearGradient>
<linearGradient id="paint54_linear_1492_190" x1="62.8466" y1="130.973" x2="242.988" y2="130.973" gradientUnits="userSpaceOnUse">
<stop stop-color="#DFDFDF"/>
<stop offset="0.021" stop-color="#E1E1E1"/>
<stop offset="0.244" stop-color="#F2F2F2"/>
<stop offset="0.487" stop-color="#FCFCFC"/>
<stop offset="0.791" stop-color="white"/>
<stop offset="0.841" stop-color="#FCFCFC"/>
<stop offset="0.882" stop-color="#F2F2F2"/>
<stop offset="0.919" stop-color="#E1E1E1"/>
<stop offset="0.954" stop-color="#C9C9C9"/>
<stop offset="0.966" stop-color="#BFBFBF"/>
<stop offset="1" stop-color="white"/>
</linearGradient>
<linearGradient id="paint55_linear_1492_190" x1="62.8465" y1="156.661" x2="242.988" y2="156.661" gradientUnits="userSpaceOnUse">
<stop stop-color="#DFDFDF"/>
<stop offset="0.021" stop-color="#E1E1E1"/>
<stop offset="0.244" stop-color="#F2F2F2"/>
<stop offset="0.487" stop-color="#FCFCFC"/>
<stop offset="0.791" stop-color="white"/>
<stop offset="0.841" stop-color="#FCFCFC"/>
<stop offset="0.882" stop-color="#F2F2F2"/>
<stop offset="0.919" stop-color="#E1E1E1"/>
<stop offset="0.954" stop-color="#C9C9C9"/>
<stop offset="0.966" stop-color="#BFBFBF"/>
<stop offset="1" stop-color="white"/>
</linearGradient>
<linearGradient id="paint56_linear_1492_190" x1="62.8465" y1="143.815" x2="242.988" y2="143.815" gradientUnits="userSpaceOnUse">
<stop stop-color="#DFDFDF"/>
<stop offset="0.021" stop-color="#E1E1E1"/>
<stop offset="0.244" stop-color="#F2F2F2"/>
<stop offset="0.487" stop-color="#FCFCFC"/>
<stop offset="0.791" stop-color="white"/>
<stop offset="0.841" stop-color="#FCFCFC"/>
<stop offset="0.882" stop-color="#F2F2F2"/>
<stop offset="0.919" stop-color="#E1E1E1"/>
<stop offset="0.954" stop-color="#C9C9C9"/>
<stop offset="0.966" stop-color="#BFBFBF"/>
<stop offset="1" stop-color="white"/>
</linearGradient>
</defs>
</svg>
