<svg width="256" height="256" viewBox="0 0 256 256" fill="none" xmlns="http://www.w3.org/2000/svg">
<g clip-path="url(#clip0_1702_102)">
<mask id="mask0_1702_102" style="mask-type:luminance" maskUnits="userSpaceOnUse" x="0" y="0" width="256" height="256">
<path d="M256 0H0V256H256V0Z" fill="white"/>
</mask>
<g mask="url(#mask0_1702_102)">
<path d="M128 256C198.693 256 256 198.693 256 128C256 57.3077 198.693 0 128 0C57.3077 0 0 57.3077 0 128C0 198.693 57.3077 256 128 256Z" fill="#FFAA1D"/>
<path d="M127.999 236.308C187.815 236.308 236.306 187.817 236.306 128.001C236.306 68.184 187.815 19.6929 127.999 19.6929C68.182 19.6929 19.6909 68.184 19.6909 128.001C19.6909 187.817 68.182 236.308 127.999 236.308Z" fill="#242A47"/>
<path d="M128.001 216.616C176.942 216.616 216.616 176.942 216.616 128.001C216.616 79.0599 176.942 39.3853 128.001 39.3853C79.0599 39.3853 39.3853 79.0599 39.3853 128.001C39.3853 176.942 79.0599 216.616 128.001 216.616Z" fill="white"/>
<path d="M135.455 175.531V189.992H123.124V175.979C114.604 174.97 105.076 171.159 98.4619 165.106L106.533 152.774C113.371 158.155 119.985 161.294 127.16 161.294C135.903 161.294 139.939 157.371 139.939 150.308C139.939 133.493 101.937 134.951 101.937 108.831C101.937 95.2673 110.008 85.8508 123.124 83.3846V68.9238H135.455V83.1603C144.423 84.3937 150.813 88.8776 156.193 94.4826L147.001 105.02C141.845 100.312 137.361 97.6214 130.971 97.6214C123.572 97.6214 119.537 101.096 119.537 107.935C119.537 123.405 157.539 121.05 157.539 148.963C157.427 162.639 149.804 172.841 135.455 175.531Z" fill="#242A47"/>
</g>
</g>
<defs>
<clipPath id="clip0_1702_102">
<rect width="256" height="256" fill="white"/>
</clipPath>
</defs>
</svg>
