<svg width="256" height="256" viewBox="0 0 256 256" fill="none" xmlns="http://www.w3.org/2000/svg">
<g clip-path="url(#clip0_741_46)">
<path d="M128 256C198.692 256 256 198.692 256 128C256 57.3076 198.692 0 128 0C57.3076 0 0 57.3076 0 128C0 198.692 57.3076 256 128 256Z" fill="#FFAA1D"/>
<path d="M128 236.308C187.817 236.308 236.308 187.817 236.308 128C236.308 68.1836 187.817 19.6926 128 19.6926C68.1833 19.6926 19.6923 68.1836 19.6923 128C19.6923 187.817 68.1833 236.308 128 236.308Z" fill="#242A47"/>
<path d="M128 216.615C176.941 216.615 216.615 176.941 216.615 128C216.615 79.059 176.941 39.3845 128 39.3845C79.0591 39.3845 39.3846 79.059 39.3846 128C39.3846 176.941 79.0591 216.615 128 216.615Z" fill="white"/>
<path d="M135.455 175.53V189.991H123.124V175.979C114.604 174.97 105.075 171.158 98.4615 165.105L106.533 152.774C113.371 158.155 119.985 161.293 127.159 161.293C135.903 161.293 139.939 157.37 139.939 150.308C139.939 133.493 101.937 134.95 101.937 108.83C101.937 95.2664 110.008 85.85 123.124 83.3838V68.9229H135.455V83.1596C144.423 84.3927 150.812 88.8767 156.193 94.4817L147.001 105.019C141.844 100.311 137.36 97.6205 130.971 97.6205C123.572 97.6205 119.536 101.096 119.536 107.934C119.536 123.404 157.538 121.049 157.538 148.962C157.426 162.639 149.804 172.84 135.455 175.53Z" fill="#242A47"/>
</g>
<defs>
<clipPath id="clip0_741_46">
<rect width="256" height="256" fill="white"/>
</clipPath>
</defs>
</svg>
