<svg width="256" height="256" viewBox="0 0 256 256" fill="none" xmlns="http://www.w3.org/2000/svg">
<g clip-path="url(#clip0_2277_336)">
<mask id="mask0_2277_336" style="mask-type:luminance" maskUnits="userSpaceOnUse" x="0" y="0" width="256" height="256">
<path d="M0 0H256V256H0V0Z" fill="white"/>
</mask>
<g mask="url(#mask0_2277_336)">
<path d="M128.011 256.021C198.709 256.021 256.021 198.709 256.021 128.011C256.021 57.312 198.709 0 128.011 0C57.312 0 0 57.312 0 128.011C0 198.709 57.312 256.021 128.011 256.021Z" fill="url(#paint0_linear_2277_336)"/>
<path d="M86.5489 125.579H190.293L197.29 110.475H176.437L176.576 110.187L189.653 81.8241C191.392 78.0588 189.738 73.5681 185.984 71.8614C184.17 71.0348 182.104 70.9565 180.233 71.6434C178.362 72.3303 176.837 73.727 175.989 75.5308L160 110.187L159.872 110.475H96.1702L96.0316 110.187L80.0422 75.5201C78.3036 71.7548 73.8129 70.0908 70.0476 71.8508C69.1489 72.2597 68.3402 72.8429 67.6684 73.5665C66.9965 74.2901 66.4749 75.1397 66.1336 76.0663C65.7924 76.9928 65.6383 77.9779 65.6803 78.9644C65.7223 79.9509 65.9595 80.9192 66.3782 81.8134L79.4662 110.187L79.6049 110.475H65.5676L58.6022 125.579H86.5809H86.5489ZM58.5596 155.723H100.437L100.725 156.363L121.141 200.693C122.378 203.371 125.056 205.067 127.968 205.067C130.88 205.067 133.578 203.371 134.805 200.693L155.253 156.363L155.552 155.723H190.272L197.269 140.651H65.5249L58.5596 155.723ZM138.677 156.363L127.989 179.552L117.301 156.363L117.013 155.723H138.986L138.677 156.363Z" fill="white"/>
</g>
</g>
<defs>
<linearGradient id="paint0_linear_2277_336" x1="252.747" y1="202.603" x2="-61.3547" y2="13.6747" gradientUnits="userSpaceOnUse">
<stop stop-color="#5433FF"/>
<stop offset="0.5" stop-color="#20BDFF"/>
<stop offset="1" stop-color="#5CFFA2"/>
</linearGradient>
<clipPath id="clip0_2277_336">
<rect width="256" height="256" fill="white"/>
</clipPath>
</defs>
</svg>
