<svg width="257" height="257" viewBox="0 0 257 257" fill="none" xmlns="http://www.w3.org/2000/svg">
<g clip-path="url(#clip0_1765_97)">
<mask id="mask0_1765_97" style="mask-type:luminance" maskUnits="userSpaceOnUse" x="0" y="0" width="257" height="257">
<path d="M257 0H0V257H257V0Z" fill="white"/>
</mask>
<g mask="url(#mask0_1765_97)">
<mask id="mask1_1765_97" style="mask-type:luminance" maskUnits="userSpaceOnUse" x="0" y="0" width="257" height="257">
<path d="M128.5 257C199.468 257 257 199.468 257 128.5C257 57.5314 199.468 0 128.5 0C57.5314 0 0 57.5314 0 128.5C0 199.468 57.5314 257 128.5 257Z" fill="white"/>
</mask>
<g mask="url(#mask1_1765_97)">
<path d="M128.5 257C199.468 257 257 199.468 257 128.5C257 57.5314 199.468 0 128.5 0C57.5314 0 0 57.5314 0 128.5C0 199.468 57.5314 257 128.5 257Z" fill="url(#paint0_linear_1765_97)"/>
<path fill-rule="evenodd" clip-rule="evenodd" d="M162.396 71.5989C166.825 63.2094 176.361 57.6858 186.262 57.6858V57.6338H201.634L159.53 135.276L116.697 218.233C107.422 210.52 99.501 201.871 102.836 188.636C105.075 179.727 109.035 172.42 113.384 164.398C113.996 163.27 114.615 162.127 115.238 160.966C116.472 158.644 117.707 156.319 118.942 153.993C122.504 147.284 126.074 140.562 129.672 133.869L162.396 71.5989ZM115.082 143.301L107.422 157.631C106.797 158.881 106.119 160.132 105.39 161.278C105.296 161.454 105.202 161.63 105.108 161.806C101.873 167.87 98.7548 173.714 96.3748 180.297C96.3488 180.403 96.3097 180.519 96.2706 180.636C96.2316 180.753 96.1924 180.872 96.1664 180.976L88.6106 159.298L84.9108 148.72H63.8589C54.1147 148.72 47.0799 141.686 48.07 132.983L48.1742 131.941H78.9705L76.1045 123.656H50.3628C40.6186 123.656 33.5838 116.621 34.5739 107.919L34.6781 106.877H70.1642L59.6382 76.81H76.1567C86.1094 76.81 94.2904 82.3334 96.7395 90.6709L110.392 129.804L115.082 143.301Z" fill="white"/>
</g>
</g>
</g>
<defs>
<linearGradient id="paint0_linear_1765_97" x1="0" y1="128.5" x2="257" y2="128.5" gradientUnits="userSpaceOnUse">
<stop offset="1" stop-color="#336302"/>
</linearGradient>
<clipPath id="clip0_1765_97">
<rect width="257" height="257" fill="white"/>
</clipPath>
</defs>
</svg>
