<svg width="256" height="256" viewBox="0 0 256 256" fill="none" xmlns="http://www.w3.org/2000/svg">
<g clip-path="url(#clip0_776_398)">
<path d="M256 128C256 57.3076 198.692 0 128 0C57.3076 0 0 57.3076 0 128C0 198.692 57.3076 256 128 256C198.692 256 256 198.692 256 128Z" fill="white"/>
<path d="M138.867 177.973C106.855 178.391 81.9428 173.847 63.4554 167.7C59.8306 166.437 51.9195 162.742 49.2745 158.066C47.8107 155.478 47.7934 148.836 48.3019 142C48.4454 142.475 48.6125 142.889 48.8056 143.231C51.4456 147.908 59.4051 151.592 63.0549 152.849C81.6711 158.964 106.78 163.46 139.084 162.971C175.003 162.427 197.051 158.085 210 152.939C209.992 153.058 209.985 153.176 209.977 153.295C209.44 161.796 208.918 170.045 187.685 173.919C175.397 176.161 159.43 177.705 138.867 177.973Z" fill="#FF1100"/>
<path d="M138.867 189.973C106.855 190.391 81.9428 185.847 63.4554 179.7C59.8306 178.437 51.9195 174.742 49.2745 170.066C47.8107 167.478 47.7934 160.836 48.3019 154C48.4454 154.475 48.6125 154.888 48.8056 155.231C51.4456 159.908 59.4051 163.591 63.0549 164.848C81.6711 170.964 106.78 175.46 139.084 174.971C175.003 174.427 197.051 170.085 210 164.939C209.992 165.058 209.985 165.176 209.977 165.295C209.44 173.795 208.918 182.045 187.685 185.919C175.397 188.16 159.43 189.705 138.867 189.973Z" fill="#FDBF41"/>
<path d="M217.996 177.114C218.291 184.375 201.555 199.114 132.244 199.975C100.451 200.369 75.7104 196.078 57.3495 190.272C53.7495 189.079 45.8927 185.59 43.2657 181.173C41.812 178.729 41.7948 172.456 42.2999 166C42.4423 166.449 42.6083 166.839 42.8001 167.162C45.422 171.58 53.327 175.058 56.9517 176.245C75.4405 182.021 100.377 186.268 132.459 185.805C187.699 185.01 209.905 175.614 216.677 168.116L217.996 177.114Z" fill="#F1ECE2"/>
<path d="M133.36 39.8051C146.198 44.4389 165.203 70.0574 138.518 135.461C126.278 165.46 108.699 185.696 91.0628 198.942C87.5095 201.503 78.2019 206.491 69.3987 205.961C65.9527 205.754 59.4436 203.578 52 200.611C53.7259 201.07 55.1951 201.355 56.3314 201.424C65.1346 201.959 74.4422 196.919 77.9956 194.332C95.6312 180.946 113.211 160.496 125.451 130.18C147.482 75.6119 138.369 48.4493 127.296 38L133.36 39.8051Z" fill="#FF1100"/>
<path d="M145.36 43.805C158.198 48.4389 177.203 74.0574 150.518 139.461C138.278 169.46 120.699 189.697 103.064 202.942C99.5098 205.503 90.2024 210.491 81.399 209.961C77.9532 209.754 71.4439 207.579 64 204.611C65.7262 205.07 67.1957 205.355 68.332 205.424C77.1352 205.959 86.4426 200.919 89.9963 198.332C107.631 184.946 125.211 164.496 137.451 134.18C159.482 79.612 150.369 52.4494 139.296 42L145.36 43.805Z" fill="#FDBF41"/>
<path d="M153.733 47.848C166.314 52.5922 184.939 78.8206 158.788 145.781C146.792 176.495 129.565 197.213 112.282 210.774C108.8 213.396 99.6784 218.502 91.051 217.96C87.6741 217.748 81.295 215.521 74 212.483C75.6917 212.952 77.1318 213.245 78.2454 213.315C86.8724 213.863 95.9937 208.703 99.4763 206.054C116.759 192.349 133.987 171.413 145.982 140.374C167.572 84.5075 158.642 56.6982 147.791 46L153.733 47.848Z" fill="#F1ECE2"/>
<path d="M168.549 148.589C195.172 79.7441 176.211 52.7776 163.403 47.8999L157.354 46C157.47 46.1154 157.586 46.2327 157.701 46.3519C148.412 44.8343 135.684 51.1287 123.678 63.1791C121.963 64.8843 129.481 62.076 131.912 59.6592C137.744 54.8845 146.469 52.4947 154.67 55.9272C173.174 63.672 173.557 104.461 155.527 147.033C137.497 189.605 109.939 217.155 91.4348 209.41C88.9612 208.375 86.3743 206.438 84.2252 204.947C79.2593 200.523 77.0206 194.615 77.0206 179.368V198.179C75.718 196.246 74.6189 194.079 73.7628 191.646C73.5897 187.554 70.8453 180.733 70 187.895C70.6381 203.521 77.4296 212.604 86.5979 218.026L86.5554 218.023C86.212 218.001 85.9469 217.994 85.7182 217.987C84.8422 217.962 84.4879 217.952 82.2364 217.207C89.4258 220.353 93.3613 221.817 97.6746 221.982C107.778 222.368 119.517 216.492 123.062 213.797C140.656 199.854 156.338 180.167 168.549 148.589Z" fill="#007FFF"/>
<path d="M131.134 114.027C163.145 113.609 188.057 118.153 206.545 124.3C210.169 125.563 218.081 129.258 220.725 133.934C222.189 136.522 222.207 143.165 221.698 150C221.555 149.525 221.387 149.112 221.194 148.77C218.554 144.092 210.595 140.409 206.945 139.152C188.329 133.036 163.22 128.54 130.916 129.029C94.9968 129.573 72.949 133.915 60 139.061C60.0076 138.943 60.0151 138.824 60.0226 138.705C60.5603 130.205 61.0821 121.955 82.3156 118.081C94.6023 115.84 110.57 114.295 131.134 114.027Z" fill="#FF1100"/>
<path d="M131.134 126.025C163.145 125.631 188.057 129.922 206.545 135.728C210.169 136.921 218.081 140.41 220.725 144.827C222.189 147.271 222.207 153.544 221.698 160C221.555 159.551 221.387 159.161 221.194 158.838C218.554 154.42 210.595 150.942 206.945 149.755C188.329 143.979 163.22 139.732 130.916 140.195C94.9968 140.708 72.949 144.809 60 149.669C60.0076 149.557 60.0151 149.445 60.0226 149.333C60.5603 141.304 61.0821 133.513 82.3156 129.854C94.6023 127.737 110.57 126.279 131.134 126.025Z" fill="#FDBF41"/>
<path opacity="0.48" d="M217.765 181.358C218.078 181.115 218.078 181.089 217.765 180.846C217.036 180.264 216.257 179.758 215.46 179.276C212.798 177.669 209.953 176.443 207.039 175.38C206.374 175.136 205.727 174.842 205.017 174.717C204.823 174.498 204.534 174.479 204.283 174.399C201.564 173.498 198.794 172.76 196.019 172.053C195.786 172.035 195.56 171.985 195.359 171.872C194.06 171.59 192.76 171.303 191.466 171.022C189.061 170.502 186.643 170.053 184.22 169.646C182.424 169.346 180.621 169.064 178.819 168.795C177.412 168.589 176.006 168.377 174.587 168.276C174.354 168.239 174.122 168.195 173.884 168.164C168.916 167.557 163.943 167.101 158.951 166.757C155.692 166.538 152.433 166.363 149.167 166.238C144.903 166.075 140.633 166 136.363 166C131.07 166 125.782 166.132 120.501 166.388C114.397 166.682 108.306 167.145 102.234 167.82C101.242 167.933 100.237 167.995 99.2575 168.208C99.0565 168.151 98.8616 168.208 98.6606 168.226C94.3342 168.758 90.0263 169.414 85.7439 170.221C83.2135 170.697 80.6954 171.221 78.1959 171.816L78.1457 171.897C78.1457 171.897 77.4989 181.164 78.9306 190.213C81.3985 190.795 83.8787 191.314 86.3655 191.777C88.5887 192.189 90.8176 192.583 93.0593 192.902C96.1994 193.352 99.3453 193.809 102.504 194.134C105.574 194.453 108.639 194.784 111.716 195.009C113.537 195.141 115.352 195.297 117.173 195.403C119.867 195.56 122.567 195.691 125.261 195.785C127.722 195.872 130.184 195.941 132.646 195.973C136.583 196.022 140.527 196.004 144.464 195.922C148.256 195.841 152.049 195.697 155.836 195.484C160.351 195.235 164.859 194.878 169.362 194.415C176.226 193.709 183.051 192.758 189.815 191.414C195.723 190.238 201.564 188.8 207.228 186.724C209.695 185.823 212.113 184.791 214.412 183.516C215.579 182.872 216.71 182.171 217.765 181.352V181.358Z" fill="url(#paint0_linear_776_398)"/>
<path d="M46.0038 161.54C45.7081 154.705 62.4447 140.834 131.756 140.024C163.548 139.652 188.289 143.691 206.651 149.156C210.25 150.278 218.107 153.563 220.734 157.719C222.188 160.02 222.205 165.924 221.7 172C221.558 171.578 221.392 171.21 221.2 170.906C218.578 166.749 210.673 163.474 207.048 162.357C188.559 156.921 163.623 152.924 131.541 153.359C76.3009 154.108 54.0945 162.952 47.3228 170.009L46.0038 161.54Z" fill="#F1ECE2"/>
<path d="M46.0038 174.822C45.7081 167.581 62.4447 152.883 131.756 152.025C163.548 151.631 188.289 155.911 206.651 161.7C210.25 162.89 218.107 166.37 220.734 170.774C222.044 172.97 222.188 178.265 221.834 184C219.025 179.743 210.6 176.847 207.05 175.687C188.561 169.928 163.625 165.694 131.543 166.154C76.2986 166.947 54.093 176.319 47.323 183.796L46.0038 174.822Z" fill="#007FFF"/>
<path d="M52.5917 204.421C39.787 199.67 20.8317 173.4 47.447 106.333C59.655 75.5707 77.1886 54.8197 94.7784 41.2371C98.3224 38.6118 107.606 33.497 116.386 34.04C121.35 34.3471 132.687 38.863 144 43.9573C142.836 44.0782 141.712 44.202 140.64 44.3202C136.75 44.7489 133.531 45.1036 131.477 44.9789C122.697 44.4457 113.414 49.468 109.869 52.0458C92.2799 65.3825 74.7462 85.758 62.5381 115.964C40.4277 170.67 49.7669 197.731 60.903 208L52.5917 204.421Z" fill="#FF1100"/>
<path d="M62.5302 209.045C49.7679 204.22 30.8752 177.546 57.4025 109.447C69.5703 78.2107 87.046 57.1402 104.577 43.3486C108.11 40.6828 117.362 35.4893 126.113 36.0407C129.934 36.2814 137.541 39.0701 146 42.7097C142.841 41.6416 140.213 40.9623 138.42 40.8485C129.669 40.2931 120.416 45.5239 116.884 48.2087C99.3523 62.0992 81.8766 83.3204 69.709 114.78C43.1817 183.367 62.6877 209.363 75.45 214.223L86.3889 218L62.5302 209.045Z" fill="#FDBF41"/>
<path d="M74.3696 214.906C61.7179 209.974 42.989 182.704 69.2863 113.086C81.3486 81.1525 98.6727 59.6119 116.052 45.5125C119.554 42.7873 128.726 37.4778 137.402 38.0416C141.322 38.2962 149.263 41.3415 158 45.2535C155.046 44.2835 152.587 43.6701 150.887 43.5573C142.212 42.9817 133.109 47.7517 129.607 50.5348C112.228 64.9339 94.9041 86.9321 82.8419 119.544C60.3874 180.252 75.9491 210.015 87.1771 220L74.3696 214.906Z" fill="#F1ECE2"/>
<path d="M77.6907 117.411C50.593 186.256 69.892 213.222 82.9286 218.1L89.0854 220C88.9678 219.885 88.8501 219.767 88.7325 219.648C98.1883 221.166 111.143 214.871 123.363 202.821C125.109 201.116 117.457 203.924 114.983 206.341C109.046 211.116 100.165 213.505 91.8178 210.073C72.984 202.328 72.5934 161.539 90.9454 118.967C109.298 76.3956 137.348 48.8452 156.183 56.59C158.7 57.6254 161.334 59.5623 163.521 61.0526C168.575 65.4769 170.854 71.3853 170.854 86.6317V67.8213C172.18 69.7544 173.299 71.9214 174.17 74.3535C174.346 78.4461 177.14 85.2671 178 78.1051C177.351 62.479 170.438 53.3963 161.106 47.9741L161.149 47.9768C161.499 47.9988 161.769 48.0065 162.001 48.013C162.893 48.0382 163.254 48.0484 165.545 48.7929C158.227 45.6469 154.222 44.1831 149.831 44.0182C139.547 43.6317 127.599 49.5083 123.99 52.2032C106.082 66.146 90.1201 85.8329 77.6907 117.411Z" fill="#007FFF"/>
<path d="M137.426 195.78C191.047 194.313 213.416 185.322 220.774 178L221.474 184.135L221.81 183.816C222.03 184.514 222.108 186.089 221.774 187.541C220.837 193.793 201.353 210 125.88 210C123.124 210 120.499 209.97 118 209.911C123.623 205.129 128.419 200.429 132.53 195.878C134.144 195.858 135.776 195.825 137.426 195.78Z" fill="#007FFF"/>
</g>
<defs>
<linearGradient id="paint0_linear_776_398" x1="153.173" y1="162.667" x2="154.399" y2="190.673" gradientUnits="userSpaceOnUse">
<stop offset="0.16" stop-color="#191919"/>
<stop offset="0.97" stop-color="#191919" stop-opacity="0"/>
</linearGradient>
<clipPath id="clip0_776_398">
<rect width="256" height="256" fill="white"/>
</clipPath>
</defs>
</svg>
