<svg width="256" height="256" viewBox="0 0 256 256" fill="none" xmlns="http://www.w3.org/2000/svg">
<path d="M254 128C254 197.588 197.588 254 128 254C58.4121 254 2 197.588 2 128C2 58.4121 58.4121 2 128 2C197.588 2 254 58.4121 254 128Z" fill="#6B5C53"/>
<path d="M239.897 142.114L239.838 127.527L239.771 112.932L239.713 98.3367C239.699 95.7715 238.672 93.3157 236.854 91.5057C235.036 89.6958 232.576 88.6786 230.011 88.6764H229.96H225.076V83.7835L225.017 69.1968C225.006 66.6309 223.979 64.1739 222.161 62.3634C220.342 60.553 217.881 59.5365 215.315 59.5366H215.273H210.38V54.6436C210.362 52.074 209.327 49.6162 207.501 47.8087C205.674 46.0011 203.206 44.9912 200.636 45.0001H200.586H195.701V40.1072C195.692 37.5406 194.666 35.0823 192.847 33.2713C191.028 31.4604 188.566 30.4447 185.999 30.4469L171.412 30.514H166.519V25.6294C166.506 24.3564 166.243 23.0984 165.743 21.9273C165.244 20.7562 164.519 19.695 163.609 18.8042C162.7 17.9133 161.624 17.2104 160.443 16.7354C159.261 16.2605 157.998 16.0229 156.725 16.0362L142.138 16.0948L128.197 16.1535H127.61H127.569L112.973 16.2205L98.3867 16.2791C97.1102 16.278 95.846 16.5291 94.6668 17.0178C93.4875 17.5066 92.4164 18.2234 91.5149 19.1272C90.6134 20.0311 89.8994 21.104 89.4136 22.2845C88.9279 23.4651 88.6802 24.7299 88.6846 26.0064V30.8994H83.8L69.2049 30.958C67.9301 30.9657 66.6693 31.2245 65.4946 31.7197C64.3199 32.2149 63.2542 32.9368 62.3587 33.8441C61.4631 34.7513 60.755 35.8262 60.2751 37.0073C59.7951 38.1883 59.5526 39.4524 59.5615 40.7272V45.6201H54.6769C53.4 45.6234 52.1362 45.8787 50.9582 46.3714C49.7801 46.8642 48.7109 47.5846 47.8119 48.4914C46.9129 49.3982 46.2017 50.4736 45.7191 51.6558C45.2366 52.8381 44.9922 54.104 44.9999 55.3809V60.2739H40.1153C37.5458 60.296 35.0902 61.3374 33.2882 63.1693C31.4862 65.0011 30.4853 67.4735 30.5054 70.043L30.564 84.6297V89.5227H25.671C23.0986 89.5426 20.6391 90.5825 18.8326 92.4141C17.0262 94.2457 16.0203 96.7193 16.0359 99.2918L16.0946 113.879L16.1616 128.474L16.2286 143.069L16.2873 157.655C16.2962 160.223 17.3223 162.682 19.1408 164.494C20.9593 166.306 23.4221 167.324 25.9894 167.324H30.8824V172.209L30.9494 186.804C30.9605 189.37 31.9876 191.827 33.8059 193.637C35.6242 195.447 38.0856 196.464 40.6515 196.464H40.6934H45.5864V201.348C45.5975 203.914 46.6245 206.371 48.4428 208.182C50.2611 209.992 52.7226 211.009 55.2885 211.009H55.3304H60.2234V215.893C60.2344 218.459 61.2615 220.916 63.0798 222.727C64.8981 224.537 67.3596 225.554 69.9255 225.554L84.5206 225.495H89.4135V230.388C89.4246 232.954 90.4517 235.411 92.27 237.221C94.0883 239.032 96.5497 240.048 99.1156 240.048L113.711 239.981L127.644 239.922C127.837 239.922 128.038 239.922 128.23 239.922H128.281L143.027 239.797L157.622 239.73C158.899 239.73 160.164 239.477 161.344 238.987C162.524 238.497 163.595 237.779 164.497 236.873C165.398 235.968 166.112 234.893 166.597 233.711C167.082 232.529 167.329 231.263 167.324 229.986V225.101H172.217L186.812 225.034C188.086 225.03 189.347 224.774 190.523 224.282C191.698 223.79 192.765 223.07 193.662 222.165C194.56 221.26 195.27 220.187 195.752 219.007C196.234 217.828 196.479 216.564 196.472 215.29V210.405H201.365C202.639 210.401 203.9 210.145 205.076 209.653C206.252 209.161 207.318 208.442 208.216 207.537C209.113 206.632 209.823 205.559 210.305 204.379C210.787 203.199 211.032 201.936 211.025 200.661V195.769H215.918C218.491 195.755 220.953 194.722 222.764 192.895C224.575 191.068 225.587 188.597 225.578 186.024L225.52 171.429V166.545H230.413C231.687 166.54 232.948 166.285 234.124 165.793C235.299 165.3 236.366 164.581 237.263 163.676C238.161 162.771 238.871 161.698 239.353 160.518C239.835 159.338 240.08 158.075 240.073 156.801L239.897 142.114ZM201.03 147.141C198.457 147.154 195.995 148.187 194.184 150.014C192.373 151.841 191.361 154.312 191.37 156.885L191.437 171.48V176.364H186.552C185.278 176.369 184.017 176.624 182.841 177.117C181.666 177.609 180.599 178.328 179.701 179.233C178.804 180.138 178.094 181.211 177.612 182.391C177.13 183.571 176.885 184.834 176.892 186.108V191.001H172.007L157.412 191.068C156.137 191.072 154.876 191.326 153.7 191.818C152.524 192.31 151.457 193.029 150.559 193.935C149.662 194.84 148.952 195.913 148.47 197.094C147.988 198.274 147.744 199.538 147.752 200.812V205.705H142.867L128.934 205.764H128.339H128.297L113.702 205.831H108.818V200.938C108.809 198.371 107.783 195.913 105.964 194.102C104.145 192.291 101.682 191.275 99.1156 191.278H99.0738L84.4787 191.345H79.5941V186.452C79.5852 183.885 78.5589 181.427 76.7401 179.616C74.9213 177.805 72.4586 176.789 69.892 176.792H65.0074V171.907L64.9487 157.312C64.9355 154.747 63.9077 152.291 62.0899 150.481C60.272 148.671 57.8119 147.654 55.2466 147.652H55.1963H50.3118V142.759L50.2531 128.164L50.0939 113.703V108.81H54.9785C56.2529 108.805 57.514 108.55 58.6895 108.057C59.865 107.565 60.9319 106.846 61.8292 105.941C62.7264 105.036 63.4364 103.963 63.9185 102.783C64.4006 101.603 64.6454 100.34 64.6387 99.0656L64.5801 84.4789V79.5859H69.4731C72.0412 79.5616 74.4951 78.5209 76.2977 76.6916C78.1003 74.8623 79.1048 72.3934 79.0914 69.8252V64.9406H83.976L98.5711 64.8819C101.144 64.8686 103.606 63.8351 105.417 62.0082C107.228 60.1813 108.24 57.7104 108.231 55.1379V50.245H113.124L127.057 50.1779C127.259 50.1779 127.451 50.1779 127.644 50.1779H127.694L142.281 50.1193H147.174V55.0122C147.198 57.5651 148.228 60.0054 150.039 61.8044C151.85 63.6033 154.298 64.6157 156.851 64.6222H156.893L171.513 64.5552H176.406V69.4481C176.419 72.0134 177.447 74.4691 179.265 76.2791C181.083 78.0891 183.543 79.1062 186.108 79.1084H186.15H191.043V84.0013L191.11 98.588C191.132 101.151 192.167 103.601 193.99 105.403C195.813 107.205 198.274 108.213 200.837 108.206H205.73V113.099L205.797 127.686L205.856 142.281V147.174L201.03 147.141Z" fill="#352B1C"/>
<path d="M188.948 200.72L188.856 185.99H202.328L202.261 171.446L202.203 157.571L215.667 157.471L215.6 142.197L215.541 127.61L215.474 113.015L215.415 98.4284L201.943 98.4787L201.884 83.8919L201.817 69.3723H186.091L186.041 53.5707H174.822L161.35 53.6293L161.291 40.291L147.819 40.3497L134.355 40.4083L120.883 40.467L107.419 40.5172L93.9462 40.5759L94.0132 55.171L80.5408 55.2296L67.0768 55.2883L67.1355 69.8833L53.6715 69.942L53.7385 84.5287L53.7971 99.1238L40.3331 99.1824L40.3918 113.778L40.4588 128.364L40.5175 142.959L40.5845 157.554L54.0485 157.496L54.1155 172.082L54.1742 186.678L67.6465 186.619L67.7052 201.214L81.1776 201.155L94.6416 201.097L94.7086 215.692L108.173 215.633L121.645 215.574L135.109 215.516L148.581 215.457L162.045 215.399L162.012 200.72H188.948Z" fill="#FFDD52"/>
<path d="M73.0613 152.228L72.0527 177.56C71.9573 179.955 73.8216 181.974 76.2166 182.07L101.549 183.078C103.944 183.174 105.963 181.309 106.059 178.914L107.067 153.582C107.163 151.187 105.298 149.168 102.903 149.072L77.5705 148.064C75.1755 147.968 73.1566 149.833 73.0613 152.228Z" fill="#6B5C53"/>
<path d="M150.909 151.093L148.113 176.291C147.849 178.673 149.566 180.819 151.948 181.083L177.147 183.878C179.529 184.143 181.674 182.426 181.939 180.043L184.734 154.845C184.998 152.463 183.281 150.317 180.899 150.053L155.701 147.258C153.318 146.993 151.173 148.71 150.909 151.093Z" fill="#6B5C53"/>
<path d="M100.285 109.658L75.0865 112.453C72.7042 112.717 70.9872 114.863 71.2515 117.245L74.0467 142.443C74.311 144.826 76.4565 146.543 78.8388 146.279L104.037 143.483C106.419 143.219 108.136 141.073 107.872 138.691L105.077 113.493C104.813 111.111 102.667 109.394 100.285 109.658Z" fill="#6B5C53"/>
<path d="M102.241 73.4106H76.8878C74.4909 73.4106 72.5479 75.3537 72.5479 77.7506V103.104C72.5479 105.5 74.4909 107.443 76.8878 107.443H102.241C104.638 107.443 106.581 105.5 106.581 103.104V77.7506C106.581 75.3537 104.638 73.4106 102.241 73.4106Z" fill="#B6A28D"/>
<path d="M112.624 113.493L109.828 138.691C109.564 141.074 111.281 143.219 113.664 143.483L138.862 146.279C141.244 146.543 143.39 144.826 143.654 142.444L146.449 117.245C146.713 114.863 144.996 112.718 142.614 112.453L117.416 109.658C115.033 109.394 112.888 111.111 112.624 113.493Z" fill="#6B5C53"/>
<path d="M140.256 148.134L114.903 149.148C112.507 149.244 110.641 151.264 110.737 153.661L111.751 179.014C111.847 181.411 113.868 183.276 116.265 183.181L141.618 182.166C144.015 182.071 145.88 180.05 145.784 177.653L144.77 152.3C144.674 149.903 142.653 148.038 140.256 148.134Z" fill="#B6A28D"/>
<path d="M138.859 72.1203L113.66 74.9155C111.278 75.1798 109.561 77.3253 109.825 79.7076L112.621 104.906C112.885 107.288 115.03 109.005 117.413 108.741L142.611 105.946C144.993 105.681 146.71 103.536 146.446 101.154L143.651 75.9553C143.386 73.573 141.241 71.856 138.859 72.1203Z" fill="#6B5C53"/>
<path d="M178.414 110.459L153.082 111.467C150.687 111.563 148.822 113.582 148.918 115.977L149.926 141.309C150.022 143.705 152.041 145.569 154.436 145.473L179.768 144.465C182.163 144.369 184.028 142.351 183.932 139.956L182.924 114.623C182.828 112.228 180.809 110.364 178.414 110.459Z" fill="#B6A28D"/>
<path d="M150.914 75.9574L148.119 101.156C147.855 103.538 149.572 105.683 151.954 105.948L177.152 108.743C179.535 109.007 181.68 107.29 181.944 104.908L184.74 79.7097C185.004 77.3274 183.287 75.1819 180.905 74.9176L155.706 72.1224C153.324 71.8581 151.179 73.5751 150.914 75.9574Z" fill="#6B5C53"/>
<path d="M127.602 40.4339V40.4507L142.197 40.392L156.792 40.325L156.725 25.7383L142.138 25.7969L127.569 25.864V25.8388L112.973 25.9058L98.3867 25.9645L98.4454 40.5596L113.04 40.5009L127.602 40.4339Z" fill="#F0BA15"/>
<path d="M128.39 215.566V215.541L113.794 215.608L99.2078 215.667L99.2664 230.262L113.861 230.195L128.423 230.136V230.153L143.018 230.094L157.613 230.027L157.546 215.44L142.959 215.499L128.39 215.566Z" fill="#F0BA15"/>
<path d="M98.5124 55.1547L98.4453 40.5596L83.8586 40.6182L69.2635 40.6852L69.3222 55.2803L83.9173 55.2133L98.5124 55.1547Z" fill="#F0BA15"/>
<path d="M84.5457 201.139L69.959 201.206L70.0176 215.793L84.6127 215.734L99.2078 215.667L99.1408 201.072L84.5457 201.139Z" fill="#F0BA15"/>
<path d="M69.326 55.281L54.7311 55.3447L54.7948 69.9397L69.3897 69.876L69.326 55.281Z" fill="#F0BA15"/>
<path d="M69.899 186.608L55.3041 186.672L55.3678 201.267L69.9627 201.203L69.899 186.608Z" fill="#F0BA15"/>
<path d="M54.8613 84.5292L54.7942 69.9341L40.2075 69.9927L40.2662 84.5878L40.3332 99.1829L54.9199 99.1159L54.8613 84.5292Z" fill="#F0BA15"/>
<path d="M40.4588 128.364L40.3918 113.778L40.3331 99.1826L25.738 99.2496L25.8051 113.836L25.8637 128.431L25.9307 143.027L25.9894 157.613L40.5845 157.555L40.5174 142.959L40.4588 128.364Z" fill="#F0BA15"/>
<path d="M171.446 54.8613L186.041 54.7943L185.974 40.1992L171.379 40.2662L156.792 40.3249L156.851 54.92L171.446 54.8613Z" fill="#F0BA15"/>
<path d="M157.488 200.72L157.546 215.44L172.141 215.373L186.736 215.306L186.669 200.72H157.488Z" fill="#F0BA15"/>
<path d="M200.686 69.3725L200.619 54.7188L186.033 54.7858L186.091 69.3725H200.686Z" fill="#F0BA15"/>
<path d="M186.669 200.72H201.264L201.197 185.991H186.611L186.669 200.72Z" fill="#F0BA15"/>
<path d="M200.82 98.5041L215.415 98.4454L215.348 83.8503L215.29 69.3726H200.695L200.762 83.9174L200.82 98.5041Z" fill="#F0BA15"/>
<path d="M215.726 171.337L215.667 156.75L201.072 156.809L201.139 171.404L201.197 185.991L215.793 185.932L215.726 171.337Z" fill="#F0BA15"/>
<path d="M215.541 127.627L215.6 142.222L215.667 156.817L230.262 156.75L230.195 142.155L230.128 127.569L230.069 112.973L230.002 98.3784L215.416 98.4454L215.474 113.032L215.541 127.627Z" fill="#F0BA15"/>
<path d="M55.1796 157.488L40.5845 157.555L40.6431 172.142L40.7101 186.737L55.3052 186.67L55.2382 172.083L55.1796 157.488Z" fill="#F0BA15"/>
</svg>
