<svg width="384" height="384" viewBox="0 0 384 384" fill="none" xmlns="http://www.w3.org/2000/svg">
<g clip-path="url(#clip0_1496_2)">
<circle cx="192" cy="192" r="156" fill="white"/>
<path d="M192 0C85.9627 0 0 85.9627 0 192C0 298.037 85.9627 384 192 384C298.037 384 384 298.037 384 192C384 85.9627 298.037 0 192 0ZM261.557 268.686L207.641 243.296C197.852 238.677 186.151 238.677 176.363 243.296L122.446 268.686L160.555 210.059L65.44 115.314L181.756 147.708C188.555 149.604 195.445 149.604 202.244 147.708L318.56 115.314L223.449 210.062L261.557 268.69V268.686Z" fill="#6666FF"/>
<path d="M200.651 185.703L277.536 139.175L196.974 165.678C193.696 166.762 190.304 166.762 187.026 165.678L106.464 139.175L183.349 185.703C188.889 189.045 195.115 189.045 200.654 185.703H200.651Z" fill="#6666FF"/>
<path d="M200.142 195.225C195.015 198.741 188.981 198.741 183.858 195.225L101.909 139.175L175.961 209.596L132.949 258.435L183.523 222.524C188.555 218.464 195.445 218.464 200.476 222.524L251.051 258.435L208.039 209.596L282.091 139.175L200.142 195.225Z" fill="#6666FF"/>
</g>
<defs>
<clipPath id="clip0_1496_2">
<rect width="384" height="384" fill="white"/>
</clipPath>
</defs>
</svg>
