<svg width="256" height="256" viewBox="0 0 256 256" fill="none" xmlns="http://www.w3.org/2000/svg">
<g clip-path="url(#clip0_1949_2590)">
<path d="M256 128C256 57.3075 198.692 0 128 0C57.3075 0 0 57.3075 0 128C0 198.692 57.3075 256 128 256C198.692 256 256 198.692 256 128Z" fill="white"/>
<path fill-rule="evenodd" clip-rule="evenodd" d="M162.67 132.336C177.848 127.04 192.151 118.003 203.084 108.192L203.092 108.208C203.518 107.81 203.781 107.269 203.83 106.69C203.88 106.109 203.712 105.532 203.36 105.068C203.007 104.604 202.495 104.287 201.922 104.177C201.348 104.066 200.755 104.171 200.254 104.471C189.288 111.028 177.185 116.218 164.778 119.387C165.149 114.668 165.07 109.92 164.46 105.199C163.058 94.7154 159.498 84.24 152.095 76.2615C143.896 67.1918 130.435 63.8022 118.816 67.4315C104.857 71.5818 93.222 84.1572 92.7741 99.1634C92.2099 118.923 110.617 135.029 129.348 136.84C131.532 137.079 133.737 137.195 135.953 137.198C132.499 144.746 128.017 151.957 123.222 158.633C108.495 134.341 86.4181 114.444 60.176 103.562C54.064 100.976 47.7278 98.9533 41.2457 97.518C39.0381 97.0632 36.9386 96.6579 34.6067 96.4021C34.0401 96.3484 33.4736 96.4985 33.0089 96.8254C32.5443 97.1516 32.2119 97.6335 32.0728 98.1828C31.9332 98.7321 31.9956 99.3129 32.2489 99.8202C32.5023 100.328 32.9292 100.728 33.4532 100.949C48.1041 108.194 61.5414 117.654 73.2877 128.993C88.5102 143.638 100.502 161.281 108.501 180.799C112.027 189.208 123.09 192.284 130.493 186.877C131.629 186.039 132.667 185.076 133.589 184.007C140.225 176.813 146.068 168.93 151.016 160.494C156.072 151.872 160.236 142.296 162.67 132.336ZM129.826 170.848L129.829 170.853L130.02 171.242C129.959 171.109 129.894 170.978 129.826 170.848ZM141.125 122.376C142.284 117.425 142.86 112.391 142.676 107.324C142.186 98.2292 138.684 85.3812 127.87 85.1823C118.559 85.0748 109.995 93.872 112.658 103.215C116.602 116.85 128.377 121.822 141.125 122.376Z" fill="url(#paint0_linear_1949_2590)"/>
<path d="M210.279 98.9155C211.233 103.363 212.702 106.183 216.993 105.612C220.678 105.124 223.715 101.428 223.715 97.7329C223.715 94.0374 220.661 91.6475 216.993 92.2264C212.337 92.9623 209.499 95.3022 210.279 98.9155Z" fill="url(#paint1_linear_1949_2590)"/>
</g>
<defs>
<linearGradient id="paint0_linear_1949_2590" x1="31.9999" y1="65.9999" x2="223.539" y2="189.574" gradientUnits="userSpaceOnUse">
<stop stop-color="#44BCC3"/>
<stop offset="1" stop-color="#236D66"/>
</linearGradient>
<linearGradient id="paint1_linear_1949_2590" x1="31.9997" y1="65.9998" x2="223.539" y2="189.573" gradientUnits="userSpaceOnUse">
<stop stop-color="#44BCC3"/>
<stop offset="1" stop-color="#236D66"/>
</linearGradient>
<clipPath id="clip0_1949_2590">
<rect width="256" height="256" fill="white"/>
</clipPath>
</defs>
</svg>
