<svg width="256" height="256" viewBox="0 0 256 256" fill="none" xmlns="http://www.w3.org/2000/svg">
<path d="M128 252C196.483 252 252 196.483 252 128C252 59.5167 196.483 4 128 4C59.5167 4 4 59.5167 4 128C4 196.483 59.5167 252 128 252Z" fill="black"/>
<path d="M81.4321 68.9604L82.9141 70.0039C110.21 89.4234 146.757 89.3549 174.001 69.8499C196.543 53.6989 225.15 79.6709 211.418 103.812L164.511 186.211C148.359 214.596 107.603 214.596 91.4506 186.211L44.0836 102.974C30.3681 78.8839 58.8731 52.9119 81.4321 68.9604Z" fill="#FFDD35"/>
</svg>
