<svg width="256" height="256" viewBox="0 0 256 256" fill="none" xmlns="http://www.w3.org/2000/svg">
<path d="M256 127.998C256 161.946 242.514 194.504 218.509 218.509C194.504 242.514 161.946 256 127.998 256C94.0514 255.999 61.495 242.513 37.491 218.509C13.487 194.505 0.00116778 161.95 0 128.002C-2.00871e-08 94.0551 13.4853 61.4975 37.4895 37.4926C61.4936 13.4876 94.0505 0.00116783 127.998 0C161.946 -2.00871e-08 194.503 13.4853 218.508 37.4895C242.512 61.4935 255.999 94.0505 256 127.998Z" fill="#1F0000"/>
<path d="M183.634 45.6318H81.0671L31.2656 109.662L100.632 220.53H160.512L225.728 109.069L183.634 45.6318Z" fill="#482B21"/>
<path d="M180.825 53.3747C180.555 52.985 180.196 52.6661 179.777 52.4452C179.358 52.2243 178.892 52.1079 178.418 52.106H88.5024C83.8424 52.106 82.0401 53.0546 78.1745 58.1533C74.309 63.252 42.2226 104.967 41.0843 106.544C39.946 108.121 40.2424 109.188 41.2977 110.884C42.3649 112.567 102.838 211.909 103.538 212.977C104.225 214.067 104.652 214.518 105.779 214.518H154.157C156.173 214.518 156.73 213.664 157.56 212.431C177.92 178.922 198.196 145.365 218.389 111.761C219.421 109.923 219.302 109.034 218.117 107.303L180.825 53.3629V53.3747ZM215.046 112.306C213.741 114.678 157.039 209.538 156.232 210.747C155.438 211.945 154.916 212.763 152.96 212.763H106.206C105.127 212.763 104.712 212.336 104.036 211.281C103.36 210.214 44.938 113.101 43.9064 111.441C42.8748 109.781 42.5902 108.749 43.6929 107.196C44.7957 105.654 75.7912 64.8646 79.5263 59.8845C83.2733 54.9043 85.0044 53.9676 89.5103 53.9676H176.39C177.327 53.9676 178.192 54.4419 178.726 55.2126C184.133 63.1334 213.741 106.449 214.749 107.955C215.899 109.65 216.006 110.504 215.034 112.295V112.306H215.046Z" fill="url(#paint0_linear_1885_5555)"/>
<path d="M178.726 55.2123C178.469 54.8289 178.121 54.5147 177.714 54.2976C177.306 54.0804 176.852 53.967 176.39 53.9673H89.522C85.0161 53.9673 83.2731 54.8922 79.5379 59.8842C75.8028 64.8643 44.7955 105.654 43.6927 107.196C42.59 108.737 42.8864 109.781 43.9062 111.441C44.9378 113.101 103.372 210.213 104.047 211.281C104.723 212.348 105.115 212.775 106.217 212.775H152.96C154.916 212.775 155.45 211.945 156.256 210.735C157.05 209.538 213.753 114.666 215.045 112.294C216.03 110.504 215.911 109.65 214.773 107.954L178.75 55.2123H178.726Z" fill="url(#paint1_linear_1885_5555)"/>
<path d="M178.726 55.2123C178.469 54.8289 178.121 54.5147 177.714 54.2976C177.306 54.0804 176.852 53.967 176.39 53.9673H89.522C85.0161 53.9673 83.2731 54.8922 79.5379 59.8842C75.8028 64.8643 44.7955 105.654 43.6927 107.196C42.59 108.737 42.8864 109.781 43.9062 111.441C44.9378 113.101 103.372 210.213 104.047 211.281C104.723 212.348 105.115 212.775 106.217 212.775H152.96C154.916 212.775 155.45 211.945 156.256 210.735C157.05 209.538 213.753 114.666 215.045 112.294C216.03 110.504 215.911 109.65 214.773 107.954L178.75 55.2123H178.726Z" fill="url(#paint2_linear_1885_5555)"/>
<path d="M178.726 55.2123C178.469 54.8289 178.121 54.5147 177.714 54.2976C177.306 54.0804 176.852 53.967 176.39 53.9673H89.522C85.0161 53.9673 83.2731 54.8922 79.5379 59.8842C75.8028 64.8643 44.7955 105.654 43.6927 107.196C42.59 108.737 42.8864 109.781 43.9062 111.441C44.9378 113.101 103.372 210.213 104.047 211.281C104.723 212.348 105.115 212.775 106.217 212.775H152.96C154.916 212.775 155.45 211.945 156.256 210.735C157.05 209.538 213.753 114.666 215.045 112.294C216.03 110.504 215.911 109.65 214.773 107.954L178.75 55.2123H178.726Z" fill="url(#paint3_linear_1885_5555)"/>
<path d="M86.6406 103.235C86.6406 103.235 128.415 179.988 128.498 179.894C128.569 179.799 168.149 109.638 168.149 109.638C168.149 109.638 148.157 106.614 150.126 104.456C152.082 102.286 161.201 80.0298 161.201 80.0298L86.6406 103.235Z" fill="url(#paint4_linear_1885_5555)"/>
<path d="M149.486 101.243L135.376 119.148C135.376 119.148 147.056 142.887 147.316 143.231C147.577 143.586 164.273 113.587 164.273 113.587" fill="url(#paint5_linear_1885_5555)"/>
<path d="M223.856 103.211C221.129 99.1798 195.576 61.9117 186.541 48.7144C185.569 47.2968 184.267 46.1378 182.746 45.338C181.225 44.5383 179.532 44.1221 177.813 44.1255H88.2893C82.2064 44.1255 79.5148 45.1097 75.6493 49.9001C61.3999 68.0537 47.2065 86.2511 33.069 104.492C29.8319 108.701 30.1283 110.658 32.4761 114.535C34.8239 118.401 93.5778 211.553 96.1746 215.715C98.7714 219.877 100.325 222 106.846 222H154.039C158.984 222 161.154 221.632 164.142 216.688C167.521 211.091 221.651 119.148 224.295 114.535C226.951 109.935 227.188 108.132 223.856 103.223V103.211ZM221.722 111.488C220.417 113.67 161.426 212.858 160.027 215.134C158.64 217.411 157.679 217.968 155.664 217.968H105.779C103.882 217.968 102.791 217.209 101.368 214.933C99.9453 212.644 39.7566 116.077 37.812 112.816C35.8911 109.555 35.7962 108.856 38.5116 105.298C45.4957 96.1087 76.2184 56.1253 78.08 53.7419C79.9535 51.3467 81.9456 49.3191 84.6965 49.3191H180.209C181.774 49.3191 183.232 50.0898 184.11 51.3823C196.488 69.6792 208.891 87.9595 221.319 106.223C222.813 108.334 223.062 109.306 221.734 111.488H221.722Z" fill="url(#paint6_linear_1885_5555)"/>
<path d="M94.6326 49.3072H180.208C181.358 49.3072 182.437 49.7341 183.291 50.4574C184.133 49.4969 184.951 48.5365 185.698 47.6472C184.705 46.5397 183.489 45.6537 182.13 45.047C180.772 44.4402 179.301 44.1262 177.813 44.1255H88.3007C81.6605 44.4456 82.2534 45.0385 80.4748 46.8171C78.6962 48.5958 73.9532 61.639 74.546 61.0461C77.2258 58.3545 81.6605 52.7459 82.8463 50.3744C84.6249 49.7815 89.0359 49.3191 94.6326 49.3191V49.3072Z" fill="url(#paint7_linear_1885_5555)"/>
<path d="M184.109 51.3826C183.677 50.743 183.094 50.2199 182.412 49.86C181.729 49.5 180.968 49.3143 180.196 49.3194H84.7079C81.9451 49.3194 79.9649 51.3352 78.0914 53.7423C64.8591 70.9009 51.6617 88.0864 38.4992 105.299C35.7957 108.856 35.8906 109.567 37.8115 112.816C58.9642 146.876 80.1496 180.915 101.368 214.933C102.791 217.21 103.893 217.969 105.779 217.969H155.651C157.667 217.969 158.627 217.411 160.027 215.123C161.426 212.858 220.405 113.67 221.721 111.488C223.049 109.318 222.8 108.334 221.306 106.224C219.99 104.362 190.868 61.3785 184.097 51.3826H184.109ZM218.389 111.761C198.185 145.364 177.905 178.921 157.548 212.431C156.718 213.664 156.173 214.518 154.145 214.518H105.767C104.64 214.518 104.225 214.067 103.526 212.977C102.826 211.909 42.3648 112.567 41.2976 110.884C40.2304 109.188 39.934 108.121 41.0605 106.544C42.2106 104.967 74.297 63.2401 78.1744 58.1533C82.04 53.0545 83.8304 52.1059 88.4904 52.1059H178.406C179.366 52.1059 180.267 52.5802 180.813 53.3747L218.105 107.326C219.29 109.057 219.409 109.935 218.401 111.761H218.389Z" fill="url(#paint8_linear_1885_5555)"/>
<path d="M59.7012 106.105L71.1674 110.801L123.898 203.74L113.167 198.38L59.7012 106.093V106.105Z" fill="url(#paint9_linear_1885_5555)"/>
<path d="M59.7012 106.105L61.2071 107.552L68.7603 110.623L121.894 202.234L123.909 203.74L71.1674 110.801L59.7012 106.105Z" fill="url(#paint10_linear_1885_5555)"/>
<path d="M59.7012 106.105L61.2071 107.552L113.57 198.582L113.167 198.38L59.7012 106.093V106.105Z" fill="url(#paint11_linear_1885_5555)"/>
<path d="M121.895 202.234L113.286 198.096L113.571 198.57L123.887 203.74L121.895 202.234Z" fill="#FFA100"/>
<path d="M198.22 104.053L189.754 106.614L136.431 201.688L146.237 197.063L198.232 104.053H198.22Z" fill="url(#paint12_linear_1885_5555)"/>
<path d="M190.014 107.255L197.128 105.12L198.231 104.053L189.741 106.614L190.014 107.255Z" fill="url(#paint13_linear_1885_5555)"/>
<path d="M198.22 104.053L197.141 105.12L145.264 196.684L136.431 201.688L146.237 197.063L198.232 104.053H198.22Z" fill="url(#paint14_linear_1885_5555)"/>
<path d="M77.5938 96.2987L89.475 101.682L128.486 172.744L158.296 119.148H135.363L178.513 40.8887H192.671L159.731 103.235H175.276L128.711 188.823L77.6056 96.2987H77.5938Z" fill="url(#paint15_linear_1885_5555)"/>
<path d="M178.513 40.8887L162.624 69.7142C165.79 72.56 169.383 75.7734 172.703 78.6904L192.647 40.8887H178.489H178.513Z" fill="url(#paint16_linear_1885_5555)"/>
<path d="M88.4552 102.31L89.475 101.682L77.5938 96.2983L78.8981 97.5552L88.4552 102.298V102.31Z" fill="url(#paint17_linear_1885_5555)"/>
<path d="M157.288 104.125L174.173 104.457L175.276 103.236H159.731L157.288 104.125Z" fill="url(#paint18_linear_1885_5555)"/>
<path d="M179 41.7424H191.592L192.66 40.8887H178.514L178.988 41.7424H179Z" fill="url(#paint19_linear_1885_5555)"/>
<path d="M178.513 40.8887L178.987 41.7424L136.466 118.259L135.363 119.16L178.513 40.8887Z" fill="url(#paint20_linear_1885_5555)"/>
<path d="M192.671 40.8887L191.592 41.7424L157.288 104.113L159.731 103.235L192.671 40.8887Z" fill="url(#paint21_linear_1885_5555)"/>
<path d="M174.174 104.445L128.712 187.851V188.823L175.276 103.236L174.174 104.457V104.445Z" fill="url(#paint22_linear_1885_5555)"/>
<path d="M128.711 188.822V187.85L78.8862 97.5552L77.5938 96.2983L128.711 188.822Z" fill="url(#paint23_linear_1885_5555)"/>
<path d="M158.296 119.16L159.245 118.532L129.091 174.049L128.475 172.744L158.296 119.172V119.16Z" fill="#AE6B0F"/>
<defs>
<linearGradient id="paint0_linear_1885_5555" x1="164.711" y1="37.7703" x2="99.6485" y2="170.456" gradientUnits="userSpaceOnUse">
<stop/>
<stop offset="0.46" stop-color="#543122"/>
<stop offset="1" stop-color="#2C1E1D"/>
</linearGradient>
<linearGradient id="paint1_linear_1885_5555" x1="129.351" y1="57.987" x2="129.351" y2="155.906" gradientUnits="userSpaceOnUse">
<stop stop-color="#655F5F"/>
<stop offset="0.34" stop-color="#4D4645"/>
<stop offset="0.99" stop-color="#18100D"/>
</linearGradient>
<linearGradient id="paint2_linear_1885_5555" x1="73.2416" y1="159.297" x2="83.7118" y2="153.511" gradientUnits="userSpaceOnUse">
<stop stop-color="#3C3C3C"/>
<stop offset="0.21" stop-color="#3C3C3C" stop-opacity="0.65"/>
<stop offset="0.48" stop-color="#3C3C3C" stop-opacity="0.29"/>
<stop offset="0.75" stop-color="#3C3C3C" stop-opacity="0.07"/>
<stop offset="1" stop-color="#3C3C3C" stop-opacity="0"/>
</linearGradient>
<linearGradient id="paint3_linear_1885_5555" x1="187.121" y1="159.535" x2="163.809" y2="146.195" gradientUnits="userSpaceOnUse">
<stop stop-color="#3C3C3C"/>
<stop offset="0.21" stop-color="#3C3C3C" stop-opacity="0.65"/>
<stop offset="0.48" stop-color="#3C3C3C" stop-opacity="0.29"/>
<stop offset="0.75" stop-color="#3C3C3C" stop-opacity="0.07"/>
<stop offset="1" stop-color="#3C3C3C" stop-opacity="0"/>
</linearGradient>
<linearGradient id="paint4_linear_1885_5555" x1="127.395" y1="158.135" x2="127.395" y2="106.164" gradientUnits="userSpaceOnUse">
<stop stop-color="#505050"/>
<stop offset="0.21" stop-color="#505050" stop-opacity="0.87"/>
<stop offset="0.57" stop-color="#505050" stop-opacity="0.52"/>
<stop offset="1" stop-color="#505050" stop-opacity="0"/>
</linearGradient>
<linearGradient id="paint5_linear_1885_5555" x1="158.522" y1="116.788" x2="140.083" y2="126.713" gradientUnits="userSpaceOnUse">
<stop/>
<stop offset="1" stop-opacity="0"/>
</linearGradient>
<linearGradient id="paint6_linear_1885_5555" x1="128.498" y1="56.7182" x2="128.498" y2="221.798" gradientUnits="userSpaceOnUse">
<stop stop-color="#F54954"/>
<stop offset="0.08" stop-color="#E9393E"/>
<stop offset="0.22" stop-color="#D71F1C"/>
<stop offset="0.34" stop-color="#CC0F07"/>
<stop offset="0.42" stop-color="#C80A00"/>
<stop offset="0.58" stop-color="#CB0C02"/>
<stop offset="0.74" stop-color="#D7130B"/>
<stop offset="0.89" stop-color="#EA201A"/>
<stop offset="0.99" stop-color="#FB2B27"/>
</linearGradient>
<linearGradient id="paint7_linear_1885_5555" x1="80.3444" y1="47.8487" x2="180.505" y2="47.8487" gradientUnits="userSpaceOnUse">
<stop stop-color="#F03F4A"/>
<stop offset="0.22" stop-color="#D51C12"/>
<stop offset="0.27" stop-color="#DA2E24"/>
<stop offset="0.37" stop-color="#E45249"/>
<stop offset="0.46" stop-color="#EB6D64"/>
<stop offset="0.54" stop-color="#F07D74"/>
<stop offset="0.61" stop-color="#F2837A"/>
<stop offset="0.68" stop-color="#F07E75"/>
<stop offset="0.76" stop-color="#EC7067"/>
<stop offset="0.84" stop-color="#E65A51"/>
<stop offset="0.93" stop-color="#DD3B31"/>
<stop offset="1" stop-color="#D51C12"/>
</linearGradient>
<linearGradient id="paint8_linear_1885_5555" x1="240.859" y1="61.8291" x2="129.505" y2="214.897" gradientUnits="userSpaceOnUse">
<stop stop-color="#FBE2B2"/>
<stop offset="0.18" stop-color="#B22822"/>
<stop offset="1" stop-color="#3A1E1C"/>
</linearGradient>
<linearGradient id="paint9_linear_1885_5555" x1="80.8312" y1="135.369" x2="117.139" y2="200.04" gradientUnits="userSpaceOnUse">
<stop stop-color="#DE8800"/>
<stop offset="0.54" stop-color="#EDA900"/>
<stop offset="1" stop-color="#B65F00"/>
</linearGradient>
<linearGradient id="paint10_linear_1885_5555" x1="75.1752" y1="124.781" x2="123.388" y2="205.625" gradientUnits="userSpaceOnUse">
<stop stop-color="#FFCC00"/>
<stop offset="1" stop-color="#E38300"/>
</linearGradient>
<linearGradient id="paint11_linear_1885_5555" x1="67.5271" y1="117.216" x2="100.313" y2="177.475" gradientUnits="userSpaceOnUse">
<stop stop-color="#6A1D07"/>
<stop offset="1" stop-color="#FFA100"/>
</linearGradient>
<linearGradient id="paint12_linear_1885_5555" x1="149.509" y1="196.399" x2="183.612" y2="113.1" gradientUnits="userSpaceOnUse">
<stop stop-color="#F47A00"/>
<stop offset="0.04" stop-color="#F58301"/>
<stop offset="0.19" stop-color="#F9A706"/>
<stop offset="0.34" stop-color="#FCC00A"/>
<stop offset="0.48" stop-color="#FED00C"/>
<stop offset="0.58" stop-color="#FFD60D"/>
<stop offset="0.99" stop-color="#DD8B00"/>
</linearGradient>
<linearGradient id="paint13_linear_1885_5555" x1="190.642" y1="107.812" x2="196.512" y2="103.745" gradientUnits="userSpaceOnUse">
<stop stop-color="#FBFF88"/>
<stop offset="0.99" stop-color="#FFFFD7"/>
</linearGradient>
<linearGradient id="paint14_linear_1885_5555" x1="191.07" y1="111.286" x2="141.494" y2="199.091" gradientUnits="userSpaceOnUse">
<stop stop-color="#FF9C36"/>
<stop offset="0.99" stop-color="#E65A04"/>
</linearGradient>
<linearGradient id="paint15_linear_1885_5555" x1="135.209" y1="81.6666" x2="135.755" y2="185.787" gradientUnits="userSpaceOnUse">
<stop stop-color="#FDA103"/>
<stop offset="0.38" stop-color="#C7A434"/>
<stop offset="1" stop-color="#D1AE3E"/>
</linearGradient>
<linearGradient id="paint16_linear_1885_5555" x1="183.066" y1="49.0111" x2="167.426" y2="71.5996" gradientUnits="userSpaceOnUse">
<stop stop-color="#F7CC35"/>
<stop offset="0.39" stop-color="#F9E63A"/>
<stop offset="0.47" stop-color="#F9F227" stop-opacity="0.9"/>
<stop offset="0.6" stop-color="#F9F402" stop-opacity="0.7"/>
<stop offset="0.75" stop-color="#F6F11C" stop-opacity="0.45"/>
<stop offset="1" stop-color="#F1ED4C" stop-opacity="0"/>
</linearGradient>
<linearGradient id="paint17_linear_1885_5555" x1="86.6292" y1="103.354" x2="80.2735" y2="94.3893" gradientUnits="userSpaceOnUse">
<stop stop-color="#FFFF52"/>
<stop offset="1" stop-color="#F3FDE8"/>
</linearGradient>
<linearGradient id="paint18_linear_1885_5555" x1="158.699" y1="103.746" x2="174.612" y2="103.841" gradientUnits="userSpaceOnUse">
<stop stop-color="#F5F54F"/>
<stop offset="1" stop-color="#EEB400"/>
</linearGradient>
<linearGradient id="paint19_linear_1885_5555" x1="194.379" y1="42.276" x2="181.964" y2="40.8887" gradientUnits="userSpaceOnUse">
<stop stop-color="#FFFF52"/>
<stop offset="1" stop-color="#F3FDE8"/>
</linearGradient>
<linearGradient id="paint20_linear_1885_5555" x1="142.584" y1="107.125" x2="177.564" y2="43.2365" gradientUnits="userSpaceOnUse">
<stop stop-color="#E7C21C"/>
<stop offset="0.47" stop-color="#F9EE07"/>
<stop offset="1" stop-color="#E9F7BE"/>
</linearGradient>
<linearGradient id="paint21_linear_1885_5555" x1="188.082" y1="45.0269" x2="159.173" y2="105.678" gradientUnits="userSpaceOnUse">
<stop stop-color="#FDFF70"/>
<stop offset="1" stop-color="#D07C00"/>
</linearGradient>
<linearGradient id="paint22_linear_1885_5555" x1="167.996" y1="117.631" x2="137.131" y2="171.725" gradientUnits="userSpaceOnUse">
<stop stop-color="#2B0900"/>
<stop offset="1" stop-color="#561C00"/>
</linearGradient>
<linearGradient id="paint23_linear_1885_5555" x1="83.4276" y1="104.516" x2="123.411" y2="180.653" gradientUnits="userSpaceOnUse">
<stop stop-color="#2B0900"/>
<stop offset="1" stop-color="#561C00"/>
</linearGradient>
</defs>
</svg>
