<svg width="256" height="256" viewBox="0 0 256 256" fill="none" xmlns="http://www.w3.org/2000/svg">
<g clip-path="url(#clip0_1799_200)">
<path d="M128 256C198.692 256 256 198.692 256 128C256 57.3076 198.692 0 128 0C57.3076 0 0 57.3076 0 128C0 198.692 57.3076 256 128 256Z" fill="#0D0D10"/>
<path d="M207.812 144.84C207.812 144.559 207.953 144.275 207.953 143.993Z" fill="url(#paint0_linear_1799_200)"/>
<path d="M208.095 143.283C209.229 136.92 209.652 130.276 209.368 123.771C209.229 119.389 208.661 115.288 207.811 111.33C207.246 108.926 206.68 106.522 205.973 104.12C204.132 98.041 203.555 93.1119 197.548 91.534C193.973 90.5938 185.728 94.364 185.728 94.364C181.197 97.0496 179.216 102.565 181.197 107.371C183.887 114.441 185.162 121.935 185.02 129.429V131.833C184.313 143.144 180.208 154.031 173.128 163.079C171.855 164.776 170.438 166.33 168.881 167.887C168.881 168.029 168.739 168.029 168.739 168.169L168.597 168.311C160.954 175.521 151.752 180.613 141.843 183.156C141.701 183.156 141.559 183.156 141.417 183.298C131.365 185.702 120.748 185.279 110.555 182.025H110.413C110.32 182.025 110.226 181.978 110.131 181.883C108.148 181.176 106.165 180.468 104.185 179.479C103.194 179.056 102.202 178.63 101.353 178.064L157.414 143.141C165.059 138.475 163.926 127.023 155.431 124.053L153.875 123.487C146.229 120.802 144.249 111.046 150.195 105.672L208.945 51.2373L188.134 63.3973C184.453 65.5174 179.924 64.9519 176.384 62.4082C170.58 58.1656 164.21 54.6328 157.414 52.0867C147.221 48.128 136.462 46.2895 125.561 46.5734C114.944 46.997 104.75 49.2591 95.1249 53.5017C85.355 57.884 76.7208 63.8232 69.4993 71.4589C61.8565 79.2367 56.0523 88.4248 52.0866 98.7462C44.8674 117.269 44.7254 137.486 51.5211 155.867C53.7855 162.088 61.149 164.773 66.9532 161.664L69.6412 160.109C74.1724 157.563 76.2949 152.192 74.596 147.384C69.9251 134.658 69.9251 120.52 75.0219 107.511C80.5422 93.3725 91.1592 82.2016 105.034 75.9808C118.907 69.902 134.339 69.4761 148.636 74.9917C152.318 76.4067 155.857 78.2429 159.255 80.3654L102.77 113.31C94.8409 117.835 95.9743 129.571 104.608 132.538C111.83 135.084 114.094 144.275 108.856 149.93L56.4758 206.203L78.2777 192.631C80.1186 194.046 81.9595 195.316 83.94 196.589C91.0195 201.114 98.6623 204.507 106.733 206.769C106.875 206.769 107.015 206.769 107.015 206.911C107.299 206.911 107.583 207.053 107.725 207.053H108.006C113.669 208.468 119.473 209.315 125.277 209.457H127.825C134.339 209.457 140.851 208.749 147.079 207.195C154.158 205.498 160.954 202.813 167.466 199.277C172.421 196.592 177.091 193.338 181.339 189.663C181.481 189.521 181.623 189.382 181.904 189.24C182.046 189.098 182.188 188.958 182.33 188.958L182.472 188.816C182.614 188.674 182.754 188.532 182.896 188.532C189.126 182.877 194.222 176.514 198.47 169.304C198.609 169.163 198.609 169.021 198.609 168.881C198.609 168.739 198.751 168.739 198.751 168.599C200.169 166.195 201.442 163.652 202.575 161.247C204.839 156.3 206.396 151.068 207.672 145.836" fill="url(#paint1_linear_1799_200)"/>
</g>
<defs>
<linearGradient id="paint0_linear_1799_200" x1="207.723" y1="144.442" x2="208.403" y2="144.326" gradientUnits="userSpaceOnUse">
<stop offset="0.0412" stop-color="#00FE90"/>
<stop offset="0.4185" stop-color="#00A2FF"/>
</linearGradient>
<linearGradient id="paint1_linear_1799_200" x1="33.1519" y1="144.528" x2="455.305" y2="71.1075" gradientUnits="userSpaceOnUse">
<stop offset="0.0412" stop-color="#00FE90"/>
<stop offset="0.4185" stop-color="#00A2FF"/>
</linearGradient>
<clipPath id="clip0_1799_200">
<rect width="256" height="256" fill="white"/>
</clipPath>
</defs>
</svg>
