<svg width="256" height="256" viewBox="0 0 256 256" fill="none" xmlns="http://www.w3.org/2000/svg">
<path d="M253.563 129.219C253.563 59.199 196.801 2.43701 126.781 2.43701C56.762 2.43701 0 59.199 0 129.219C0 199.238 56.762 256 126.781 256C196.801 256 253.563 199.238 253.563 129.219Z" fill="#161834"/>
<path fill-rule="evenodd" clip-rule="evenodd" d="M213.332 134.722C214.128 136.257 215.401 138.753 215.878 142.592C216.196 145.471 215.878 147.775 215.082 150.846L215.064 150.949C214.279 155.303 213.798 157.973 212.378 161.02C212.109 161.605 211.602 162.695 210.878 163.912C210.6 164.125 209.962 164.743 209.181 165.498C207.448 167.174 205.013 169.529 204.263 169.658C204.097 169.658 203.903 169.664 203.682 169.67C202.635 169.702 201.012 169.75 199.172 169.274C199.013 169.274 198.217 169.082 197.262 168.698C196.149 168.314 194.558 167.547 192.808 166.011C191.057 164.475 186.946 158.877 186.31 157.533C185.832 156.382 185.673 155.997 185.196 155.037C185.196 155.037 182.063 151.404 179.04 148.524C176.653 146.221 174.425 145.261 172.516 144.685C166.916 142.68 165.233 143.054 163.744 143.385C162.526 143.657 161.438 143.899 158.44 142.784C154.321 141.252 140.973 124.678 139.903 120.607C138.833 116.535 138.562 110.141 138.562 110.141C138.562 110.141 132.107 120.548 132.107 129.053C132.107 136.611 136.604 144.685 136.604 144.685C136.604 144.685 177.085 204.934 181.54 206.277C175.101 210.049 169.251 212.398 164 213.766C162.733 214.096 107.664 122.194 107.664 122.194C107.664 122.194 156.535 215.177 154.789 215.297C150.681 215.579 147.079 215.276 143.991 214.724C139.107 213.806 132.775 212.507 125.952 211.107C105.658 206.944 81.0177 201.889 77.2072 203.325C76.6262 200.872 75.5417 197.6 74.2823 193.801C71.4028 185.115 67.6106 173.675 66.8421 162.981C66.2048 154.114 65.9766 152.404 65.9766 152.404L71.7384 132.905L75.1876 117.534C75.1876 117.534 87.9954 91.7302 95.1951 85.0045C100.093 80.4286 103.628 76.5072 105.707 74.2004C106.684 73.1165 107.34 72.389 107.664 72.1178C110.709 69.721 113.585 67.3175 116.381 64.9821C127.467 55.7207 137.271 47.5298 151.121 45.077C153.014 44.7429 155.051 43.6053 157.045 42.4914C160.922 40.3262 164.638 38.2508 166.821 42.3411C166.849 42.3942 167.002 46.3473 167.153 50.2562C167.3 54.0768 167.446 57.857 167.472 57.9086C167.96 58.8558 168.351 59.7729 168.623 60.6257C169.923 64.6935 174.035 68.4153 178.569 72.519C181.265 74.9591 184.111 77.5342 186.602 80.3974C186.762 80.6289 186.935 80.8683 187.117 81.12C187.839 82.1205 188.704 83.3176 189.466 85.0045C190.58 87.3078 191.057 89.9954 191.057 90.3791C191.216 91.1466 191.217 91.147 191.375 92.1058C191.419 92.2606 191.473 92.5426 191.545 92.9148C191.741 93.924 192.067 95.6066 192.648 97.2896C193.285 99.4013 194.08 100.937 194.717 101.897C195.19 102.731 196.162 104.408 197.44 106.613C201.749 114.046 209.528 127.467 213.332 134.722ZM174.355 133.344L174.301 133.299L174.289 133.29C166.603 127.01 160.783 122.255 160.829 122.194C161.029 121.931 166.641 117.43 172.516 126.242C176.22 131.797 179.919 136.628 183.479 140.803C180.318 138.216 177.209 135.676 174.355 133.344ZM176.571 65.8607C176.838 66.8388 176.834 67.6309 176.407 67.3789C173.173 65.4708 169.463 57.7978 169.463 57.7978C169.463 57.7978 168.865 48.5922 169.234 48.3218C171.709 46.5067 174.046 47.0957 175.567 49.9463C175.585 49.9806 175.67 51.5835 175.786 53.7615C176.024 58.2567 176.391 65.2017 176.571 65.8607ZM180.3 101.104L171.213 96.3202C169.417 94.6688 168.294 91.9163 168.294 88.8886V85.0353C168.294 83.3839 171.375 81.8759 172.085 83.2521L181.766 99.6229C183.337 102.1 182.623 102.1 180.3 101.104ZM213.108 147.814C213.119 147.739 213.114 147.661 213.324 146.212C213.644 143.996 212.071 142.253 211.018 142.895C210.038 143.595 208.654 147.229 209.074 148.278C209.634 149.676 210.58 152.87 210.58 153.22C210.789 154.066 211.543 154.066 211.975 153.083C212.144 152.45 212.396 151.228 212.63 150.088C212.785 149.337 212.932 148.622 213.044 148.136C213.092 147.894 213.102 147.854 213.108 147.814Z" fill="#DDDDDD"/>
<path d="M110.037 120.356C110.037 120.356 101.588 113.217 80.6864 123.652C67.1807 130.395 62.8041 144.721 53.9144 156.907C45.0249 169.092 40.2197 168.568 40.2197 168.568C40.2197 168.568 59.7502 176.052 77.6976 165.572C95.6445 155.091 103.427 120.356 103.427 120.356H110.037Z" fill="#DDDDDD"/>
<path fill-rule="evenodd" clip-rule="evenodd" d="M40.2197 168.568C40.2197 168.568 46.5725 169.518 57.4702 167.932C68.3678 166.346 72.7679 163.68 74.7394 163.287C76.7108 162.895 80.787 163.287 80.787 163.287C80.787 163.287 76.9003 166.313 72.6557 167.932C68.4114 169.551 66.1707 170.389 61.4775 170.92C56.7844 171.452 53.9527 171.266 48.2689 170.612C42.585 169.957 40.2197 168.568 40.2197 168.568Z" fill="#BEBEBE"/>
<path d="M94.0163 105.368C78.6145 108.676 69.2667 120.402 56.3485 129.379C43.431 138.354 39 136.966 39 136.966C39 136.966 55.0884 147.309 76.1011 141.581C97.1137 135.852 117.853 100.251 94.0163 105.368Z" fill="#DDDDDD"/>
<path fill-rule="evenodd" clip-rule="evenodd" d="M39 136.966C39 136.966 44.9496 139.144 49.5588 139.654C54.168 140.163 55.8943 139.026 59.3081 140.324C62.7219 141.622 62.591 143.377 62.591 143.377C62.591 143.377 60.1767 143.488 56.2866 142.933C52.3964 142.378 52.2874 142.283 49.19 141.467C46.0927 140.649 46.4346 140.757 43.7702 139.631C41.1059 138.506 39 136.966 39 136.966Z" fill="#BEBEBE"/>
<path d="M110.579 85.9875C94.4742 86.2139 80.8795 96.8314 64.9335 103.709C48.9889 110.586 45.2754 108.128 45.2754 108.128C45.2754 108.128 56.6752 122.769 79.1255 121.149C101.576 119.528 135.504 85.638 110.579 85.9875Z" fill="#DDDDDD"/>
<path fill-rule="evenodd" clip-rule="evenodd" d="M45.2754 108.129C45.2754 108.129 49.6857 109.848 53.6764 111.421C57.667 112.994 59.0578 112.995 61.1965 115.047C63.3351 117.1 67.652 120.546 67.652 120.546C67.652 120.546 61.6416 119.463 58.7749 118.113C55.9082 116.764 55.6228 116.558 53.2601 115.047C50.8974 113.537 49.8626 112.611 48.0302 111C46.1979 109.389 45.2754 108.129 45.2754 108.129Z" fill="#BEBEBE"/>
<path fill-rule="evenodd" clip-rule="evenodd" d="M155.255 215.405C155.255 215.405 149.531 202.588 143.597 191.043C137.664 179.499 122.562 150.597 122.562 150.597L107.659 122.195L124.354 210.846L147.727 215.405H155.255Z" fill="#BEBEBE"/>
<path fill-rule="evenodd" clip-rule="evenodd" d="M181.535 206.277C181.535 206.277 172.033 194.72 154.961 170.856C137.889 146.993 136.756 144.629 136.756 144.629L134.53 139.448C133.844 137.852 133.315 136.194 132.948 134.497L132.762 133.635C132.258 131.308 132.143 128.914 132.419 126.55C132.667 124.422 133.23 122.343 134.089 120.381L138.643 109.975L128.248 126.779L163.996 213.766C163.996 213.766 166.67 213.348 172.699 210.758C178.726 208.167 181.535 206.277 181.535 206.277Z" fill="#BEBEBE"/>
<path fill-rule="evenodd" clip-rule="evenodd" d="M138.559 110.141C138.559 110.141 138.616 112.984 141.344 117.12C144.072 121.256 153.939 134.105 157.472 137.533C161.004 140.96 168.166 143.4 168.166 143.4C168.166 143.4 166.424 143.11 165.972 143.11C165.247 143.11 164.447 143.277 163.471 143.432C161.334 143.772 160.885 143.605 158.437 142.784C155.99 141.963 151.093 136.239 146.078 130.422C141.063 124.605 140.413 123.32 139.685 120.484C138.957 117.648 138.559 110.141 138.559 110.141Z" fill="#BEBEBE"/>
<path fill-rule="evenodd" clip-rule="evenodd" d="M184.74 141.951L159.386 121.741L163.924 123.181L184.74 141.951Z" fill="#BEBEBE"/>
<path fill-rule="evenodd" clip-rule="evenodd" d="M175.981 67.0805L170.35 47.6519C170.35 47.6519 169.906 47.8252 169.456 48.0718C169.007 48.3183 168.757 48.2037 168.757 48.2037C168.757 48.2037 168.653 50.0589 168.757 52.7143C168.862 55.3696 169.141 57.9792 169.141 57.9792C169.141 57.9792 170.346 60.6649 172.546 63.6517C174.746 66.6384 175.981 67.0805 175.981 67.0805Z" fill="#BEBEBE"/>
<path fill-rule="evenodd" clip-rule="evenodd" d="M168.097 77.5425L183.861 103.392L170.58 79.0368L168.097 77.5425Z" fill="#BEBEBE"/>
<path fill-rule="evenodd" clip-rule="evenodd" d="M208.116 146.473C208.116 146.473 210.584 150.633 211.148 152.194C211.712 153.756 211.148 155.09 211.148 155.09" fill="#BEBEBE"/>
<path d="M164.877 68.7944C170.899 71.9593 173.496 71.1287 178.405 71.4627C184.119 71.8515 189.383 75.3213 189.383 75.3213C189.383 75.3213 184.867 74.3283 181.324 74.4895C171.617 74.9313 164.779 78.0242 155.19 75.8233C141.18 72.6075 155.184 63.6998 164.877 68.7944Z" fill="#DDDDDD"/>
<path d="M160.026 74.9941C166.048 71.8291 168.645 72.6598 173.554 72.3258C179.269 71.937 184.533 68.4672 184.533 68.4672C184.533 68.4672 180.017 69.4602 176.474 69.299C166.767 68.8572 159.928 65.7643 150.339 67.9652C136.33 71.181 150.333 80.0887 160.026 74.9941Z" fill="#DDDDDD"/>
<path d="M173.967 78.2766C178.531 81.7886 188.377 78.2766 188.377 78.2766C188.377 78.2766 184.239 77.4918 181.67 75.0109C179.035 72.4676 173.722 72.4705 171.683 70.0199C168.271 65.9208 170.046 75.2596 173.967 78.2766Z" fill="#DDDDDD"/>
</svg>
