<svg width="256" height="256" viewBox="0 0 256 256" fill="none" xmlns="http://www.w3.org/2000/svg">
<g clip-path="url(#clip0_2469_487)">
<path d="M128 0C57.3116 0 0 57.3116 0 128C0 198.688 57.3116 256 128 256C198.667 255.915 255.915 198.645 256 128C256 57.3116 198.688 0 128 0Z" fill="#596AEC"/>
<path d="M128 256C198.692 256 256 198.692 256 128C256 57.3075 198.692 0 128 0C57.3075 0 0 57.3075 0 128C0 198.692 57.3075 256 128 256Z" fill="#596AEC"/>
<path d="M170.143 71.6979C168.293 71.6979 166.654 72.8902 166.084 74.6504L137.988 161.434C137.669 162.417 136.277 162.417 135.958 161.434L107.842 74.6496C107.272 72.8899 105.633 71.6979 103.784 71.6979H55.947C53.0033 71.6979 50.9439 74.6085 51.9235 77.3844L57.7802 93.9809C58.3823 95.6869 59.9946 96.8277 61.8037 96.8277H84.4424C84.8946 96.8277 85.2976 97.1128 85.4482 97.5392L122.313 201.916C122.916 203.621 124.528 204.762 126.337 204.762H147.61C149.418 204.762 151.031 203.621 151.633 201.916L195.61 77.3853C196.591 74.6092 194.531 71.6979 191.587 71.6979H170.143Z" fill="white"/>
</g>
<defs>
<clipPath id="clip0_2469_487">
<rect width="256" height="256" fill="white"/>
</clipPath>
</defs>
</svg>
