<svg width="256" height="256" viewBox="0 0 256 256" fill="none" xmlns="http://www.w3.org/2000/svg">
<g clip-path="url(#clip0_1832_921)">
<path d="M128 0C57.3066 0 0 57.3066 0 128C0 198.693 57.3066 256 128 256C198.687 256 256 198.693 256 128C256 57.3066 198.687 0 128 0Z" fill="#F8F9F0"/>
<path d="M128 25.6001C71.4471 25.6001 25.6001 71.4471 25.6001 128C25.6001 184.553 71.4471 230.4 128 230.4C184.553 230.4 230.4 184.553 230.4 128C230.4 71.4471 184.553 25.6001 128 25.6001Z" fill="#011023"/>
<path d="M105.684 168.53C109.798 172.912 114.903 175.706 121.007 176.892V135.25C120.337 134.989 119.446 134.694 118.32 134.352C117.188 134.017 115.962 133.722 114.642 133.461C109.73 132.135 104.886 130.56 100.116 128.771C95.3387 126.982 91.0568 124.584 87.2783 121.595C83.4925 118.607 80.4774 114.889 78.2328 110.439C75.9748 105.99 74.8495 100.443 74.8495 93.7962C74.8495 87.0158 76.1423 81.0392 78.7289 75.8731C81.315 70.6942 84.7254 66.3392 88.9735 62.8212C93.2077 59.2971 98.1188 56.5702 103.693 54.6538C109.261 52.7241 115.037 51.5721 121.007 51.1631V35.8398H132.739V51.1832C138.709 51.8465 144.317 53.1465 149.556 55.0624C154.796 56.9921 159.412 59.6525 163.386 63.0357C167.359 66.4262 170.608 70.6471 173.134 75.6924C175.654 80.7443 177.114 86.7209 177.51 93.6221H149.261C149.121 88.3091 147.473 83.7927 144.283 80.0674C141.101 76.3493 137.255 74.4795 132.752 74.4795V109.742C134.347 110.145 135.968 110.54 137.63 110.942C139.291 111.337 141.047 111.806 142.903 112.336C152.725 114.989 160.277 118.285 165.583 122.198C170.883 126.111 174.803 130.212 177.315 134.453C179.834 138.694 181.329 142.949 181.798 147.21C182.26 151.465 182.488 155.237 182.488 158.56C182.488 161.488 181.764 165.16 180.304 169.615C178.843 174.071 176.223 178.406 172.444 182.66C168.659 186.915 163.593 190.708 157.221 194.024C150.856 197.347 142.695 199.331 132.752 200.001V216.932H121.02V200.001C106.166 198.942 94.5548 194.359 86.2061 186.259C77.8441 178.158 73.0001 166.272 71.6802 150.593H99.7403C99.5929 158.171 101.583 164.135 105.684 168.53ZM114.448 75.4845C112.323 76.1481 110.401 77.1864 108.678 78.5668C106.963 79.9671 105.603 81.6889 104.605 83.7462C103.613 85.8095 103.111 88.2282 103.111 91.0089C103.111 95.4044 104.498 98.781 107.291 101.173C110.072 103.559 114.648 105.488 121.02 106.949V74.4795C118.749 74.4795 116.565 74.8148 114.448 75.4845ZM140.216 175.203C142.803 174.332 145.128 173.106 147.178 171.518C149.228 169.93 150.923 167.96 152.243 165.629C153.563 163.317 154.24 160.557 154.24 157.361C154.24 152.182 152.611 148.302 149.362 145.709C146.112 143.123 140.578 140.765 132.752 138.641V176.892C135.131 176.631 137.63 176.067 140.216 175.203Z" fill="#F8F9F0"/>
<path d="M132.762 49.6714V50.6161L133.714 49.6714H132.762Z" fill="#011023"/>
<path d="M136.072 49.6714L132.762 52.9747V54.9177L138.015 49.6714H136.072Z" fill="#011023"/>
<path d="M140.427 49.6714L132.762 57.3298V59.2728L142.37 49.6714H140.427Z" fill="#011023"/>
<path d="M144.782 49.6714L132.762 61.6849V63.6279L146.725 49.6714H144.782Z" fill="#011023"/>
<path d="M149.137 49.6714L132.762 66.0399V67.9896L151.08 49.6714H149.137Z" fill="#011023"/>
<path d="M153.492 49.6714L132.762 70.395V72.3447L155.435 49.6714H153.492Z" fill="#011023"/>
<path d="M157.848 49.6714L132.762 74.7567V76.6998L159.797 49.6714H157.848Z" fill="#011023"/>
<path d="M162.203 49.6714L132.762 79.1118V81.0548L164.152 49.6714H162.203Z" fill="#011023"/>
<path d="M166.564 49.6714L132.762 83.4669V85.4099L168.507 49.6714H166.564Z" fill="#011023"/>
<path d="M170.92 49.6714L132.762 87.8219V89.765L172.863 49.6714H170.92Z" fill="#011023"/>
<path d="M175.275 49.6714L132.762 92.177V94.12L177.218 49.6714H175.275Z" fill="#011023"/>
<path d="M179.63 49.6714L132.762 96.5321V98.4756L181.573 49.6714H179.63Z" fill="#011023"/>
<path d="M183.985 49.6714L132.762 100.888V102.831L185.928 49.6714H183.985Z" fill="#011023"/>
<path d="M189.365 49.6714H188.34L132.762 105.243V106.274H133.68L189.365 50.5893V49.6714Z" fill="#011023"/>
<path d="M189.365 52.9937L136.092 106.273H138.035L189.365 54.9439V52.9937Z" fill="#011023"/>
<path d="M189.365 57.3564L140.447 106.274H142.396L189.365 59.2995V57.3564Z" fill="#011023"/>
<path d="M189.365 61.7114L144.802 106.274H146.751L189.365 63.6545V61.7114Z" fill="#011023"/>
<path d="M189.365 66.0664L149.164 106.274H151.107L189.365 68.0094V66.0664Z" fill="#011023"/>
<path d="M189.365 70.4214L153.519 106.274H155.462L189.365 72.3644V70.4214Z" fill="#011023"/>
<path d="M189.365 74.7759L157.874 106.274H159.817L189.365 76.7189V74.7759Z" fill="#011023"/>
<path d="M189.365 79.1328L162.229 106.275H164.173L189.365 81.0759V79.1328Z" fill="#011023"/>
<path d="M189.365 87.8413L170.939 106.273H172.882L189.365 89.791V87.8413Z" fill="#011023"/>
<path d="M189.365 92.1973L175.294 106.274H177.237L189.365 94.147V92.1973Z" fill="#011023"/>
<path d="M189.365 96.5586L179.649 106.274H181.599L189.365 98.5016V96.5586Z" fill="#011023"/>
<path d="M189.365 100.914L184.005 106.274H185.955L189.365 102.857V100.914Z" fill="#011023"/>
</g>
<defs>
<clipPath id="clip0_1832_921">
<rect width="256" height="256" fill="white"/>
</clipPath>
</defs>
</svg>
