<svg width="256" height="256" viewBox="0 0 256 256" fill="none" xmlns="http://www.w3.org/2000/svg">
<path d="M128 0C57.3106 0 0 57.2262 0 127.811C0 198.403 57.3106 255.623 128 255.623C198.695 255.623 256 198.403 256 127.811C256 57.2262 198.695 0 128 0Z" fill="#F7F8EF"/>
<path d="M128.003 25.5635C71.4526 25.5635 25.603 71.3456 25.603 127.813C25.603 184.286 71.4526 230.062 128.003 230.062C184.559 230.062 230.403 184.286 230.403 127.813C230.403 71.3456 184.559 25.5635 128.003 25.5635Z" fill="#021123"/>
<path d="M109.632 148.183L108.894 147.814L149.632 66.4648H150.551L109.632 148.183Z" fill="#F7F8EF"/>
<path d="M121.249 148.16L120.518 147.792L161.238 66.4648H162.158L121.249 148.16Z" fill="#F7F8EF"/>
<path d="M113.5 148.177L112.763 147.809L153.495 66.4648H154.415L113.5 148.177Z" fill="#F7F8EF"/>
<path d="M117.378 148.166L116.641 147.798L157.366 66.4648H158.286L117.378 148.166Z" fill="#F7F8EF"/>
<path d="M105.762 148.194L105.025 147.826L145.762 66.4648H146.687L105.762 148.194Z" fill="#F7F8EF"/>
<path d="M207.659 66.4648H208.584L167.728 148.052L166.996 147.684L207.659 66.4648Z" fill="#F7F8EF"/>
<path d="M90.2625 148.228L89.5244 147.86L130.28 66.4648H131.204L90.2625 148.228Z" fill="#F7F8EF"/>
<path d="M98.0108 148.211L97.2783 147.842L138.021 66.4648H138.946L98.0108 148.211Z" fill="#F7F8EF"/>
<path d="M94.1387 148.216L93.4014 147.854L134.15 66.4648H135.075L94.1387 148.216Z" fill="#F7F8EF"/>
<path d="M101.885 148.199L101.147 147.837L141.891 66.4648H142.816L101.885 148.199Z" fill="#F7F8EF"/>
<path d="M144.489 148.104L143.757 147.735L184.449 66.4648H185.368L144.489 148.104Z" fill="#F7F8EF"/>
<path d="M148.363 148.098L147.626 147.73L188.318 66.4648H189.237L148.363 148.098Z" fill="#F7F8EF"/>
<path d="M152.241 148.086L151.503 147.718L192.189 66.4648H193.109L152.241 148.086Z" fill="#F7F8EF"/>
<path d="M125.124 148.148L124.387 147.78L165.107 66.4648H166.026L125.124 148.148Z" fill="#F7F8EF"/>
<path d="M163.857 148.064L163.119 147.695L203.794 66.4648H204.713L163.857 148.064Z" fill="#F7F8EF"/>
<path d="M159.988 148.069L159.25 147.701L199.931 66.4648H200.85L159.988 148.069Z" fill="#F7F8EF"/>
<path d="M156.11 148.08L155.373 147.712L196.059 66.4648H196.978L156.11 148.08Z" fill="#F7F8EF"/>
<path d="M132.865 148.132L132.133 147.763L172.837 66.4648H173.761L132.865 148.132Z" fill="#F7F8EF"/>
<path d="M129.002 148.143L128.264 147.774L168.974 66.4648H169.899L129.002 148.143Z" fill="#F7F8EF"/>
<path d="M140.618 148.115L139.879 147.746L180.578 66.4648H181.496L140.618 148.115Z" fill="#F7F8EF"/>
<path d="M136.74 148.12L136.002 147.758L176.706 66.4648H177.631L136.74 148.12Z" fill="#F7F8EF"/>
<path d="M127.788 229.64L46.0806 66.4648H127.788L168.639 148.052L127.788 229.64Z" fill="#F7F8EF"/>
</svg>
