<svg width="256" height="256" viewBox="0 0 256 256" fill="none" xmlns="http://www.w3.org/2000/svg">
<g clip-path="url(#clip0_2001_1481)">
<path d="M256 128C256 57.3075 198.692 0 128 0C57.3075 0 0 57.3075 0 128C0 198.692 57.3075 256 128 256C198.692 256 256 198.692 256 128Z" fill="white"/>
<path d="M193.451 171.355C186.631 183.119 174.015 190.354 160.342 190.354H138.231V116.42L106.316 171.372C99.496 183.136 86.8799 190.371 73.2069 190.371H51.2483V81.261H95.4211V155.009L138.231 81.2948V81.261H182.386V155.314L228.775 75.3953C230.651 72.1499 230.616 68.127 228.588 64.9661C207.192 31.4637 169.258 9.37146 126.16 10.0136C60.4372 11.0276 8.66042 63.4781 9.00168 128.64C9.34294 193.515 62.5001 246 128.001 246C193.502 246 247 193.177 247 128.015C247 117.518 245.603 107.342 242.994 97.6396C242.209 94.6992 238.254 94.1576 236.72 96.7778L193.434 171.338L193.451 171.355Z" fill="black"/>
</g>
<defs>
<clipPath id="clip0_2001_1481">
<rect width="256" height="256" fill="white"/>
</clipPath>
</defs>
</svg>
