<svg width="256" height="256" viewBox="0 0 256 256" fill="none" xmlns="http://www.w3.org/2000/svg">
<g clip-path="url(#clip0_1954_3140)">
<path d="M256 128C256 57.3075 198.692 0 128 0C57.3075 0 0 57.3075 0 128C0 198.692 57.3075 256 128 256C198.692 256 256 198.692 256 128Z" fill="url(#paint0_linear_1954_3140)"/>
<path d="M50.675 74.0064C48.2001 74.0064 46.6417 75.1129 46 77.3249V78.5694C51.5005 78.9384 55.488 81.4274 57.963 86.0364L85.602 177.99C86.152 180.663 87.4355 181.954 89.452 181.861H94.4815C94.6205 181.871 94.762 181.871 94.9065 181.861L108.382 182C110.582 182 112.05 180.801 112.783 178.405L128 131.958L143.217 178.405C143.95 180.801 145.417 182 147.617 182L161.094 181.861C161.238 181.871 161.379 181.871 161.518 181.861H166.548C168.565 181.954 169.848 180.663 170.398 177.99L198.037 86.0364C200.512 81.4274 204.499 78.9384 210 78.5694V77.3249C209.359 75.1129 207.8 74.0064 205.325 74.0064H166.96C166.751 73.9979 166.549 73.9979 166.355 74.0064H162.606C159.764 74.1909 158.16 75.4814 157.793 77.8784C161.643 78.7079 163.751 80.8279 164.118 84.2389V87.9724L154.615 138.989L134.783 79.9524C134.508 79.1229 133.913 78.6619 132.996 78.5694H123.004C122.087 78.6619 121.491 79.1229 121.216 79.9524L101.385 138.989L91.8815 87.9724V84.2389C92.2485 80.8279 94.3565 78.7079 98.207 77.8784C97.84 75.4814 96.236 74.1909 93.394 74.0064H89.6445C89.451 73.9979 89.249 73.9979 89.0395 74.0064H50.675Z" fill="white"/>
</g>
<defs>
<linearGradient id="paint0_linear_1954_3140" x1="-2.17891e-05" y1="-72" x2="325.121" y2="2.85842" gradientUnits="userSpaceOnUse">
<stop stop-color="#F346C8"/>
<stop offset="1" stop-color="#443195"/>
</linearGradient>
<clipPath id="clip0_1954_3140">
<rect width="256" height="256" fill="white"/>
</clipPath>
</defs>
</svg>
