<svg width="256" height="256" viewBox="0 0 256 256" fill="none" xmlns="http://www.w3.org/2000/svg">
<g clip-path="url(#clip0_2573_4332)">
<mask id="mask0_2573_4332" style="mask-type:luminance" maskUnits="userSpaceOnUse" x="0" y="0" width="256" height="256">
<path d="M256 0H0V256H256V0Z" fill="white"/>
</mask>
<g mask="url(#mask0_2573_4332)">
<path d="M128 256C198.693 256 256 198.693 256 128C256 57.3077 198.693 0 128 0C57.3077 0 0 57.3077 0 128C0 198.693 57.3077 256 128 256Z" fill="#10B981"/>
<path fill-rule="evenodd" clip-rule="evenodd" d="M128 40.8887C131.928 40.8887 135.111 44.0724 135.111 47.9998V208C135.111 211.927 131.928 215.111 128 215.111C124.073 215.111 120.889 211.927 120.889 208V47.9998C120.889 44.0724 124.073 40.8887 128 40.8887Z" fill="white"/>
<path d="M72.8892 100C72.8892 119.391 88.6086 135.111 108 135.111H120.889V120.889H108.908C96.87 120.889 87.111 111.537 87.111 100C87.111 88.4629 96.87 79.1109 108.908 79.1109H120.889V64.8885H108C88.6086 64.8885 72.8892 80.6085 72.8892 100Z" fill="white"/>
<path d="M183.111 156C183.111 136.609 167.391 120.889 148 120.889H135.111V135.111H147.092C159.13 135.111 168.889 144.463 168.889 156C168.889 167.537 159.13 176.889 147.092 176.889H135.111V191.111H148C167.391 191.111 183.111 175.391 183.111 156Z" fill="white"/>
<path d="M168 79.1109C171.927 79.1109 175.111 75.9269 175.111 72C175.111 68.0725 171.927 64.8885 168 64.8885H135.111V79.1109H168Z" fill="white"/>
<path d="M80.0001 176.889C76.0726 176.889 72.8892 180.073 72.8892 184C72.8892 187.927 76.0726 191.111 80.0001 191.111H120.889V176.889H80.0001Z" fill="white"/>
</g>
</g>
<defs>
<clipPath id="clip0_2573_4332">
<rect width="256" height="256" fill="white"/>
</clipPath>
</defs>
</svg>
