<svg width="256" height="256" viewBox="0 0 256 256" fill="none" xmlns="http://www.w3.org/2000/svg">
<g clip-path="url(#clip0_1160_7)">
<path d="M128 256C198.692 256 256 198.692 256 128C256 57.3076 198.692 0 128 0C57.3076 0 0 57.3076 0 128C0 198.692 57.3076 256 128 256Z" fill="#CAFF94"/>
<path d="M96.2149 124.472L124.886 142.083C126.793 143.261 129.297 143.261 131.204 142.083L159.875 124.472L178.796 111.624C181.018 110.114 181.715 107.342 180.438 105.084L172.942 91.9051C171.5 89.3657 168.083 88.3863 165.314 89.6976L130.657 106.18C129.015 106.96 127.075 106.96 125.433 106.18L90.7759 89.7138C88.0061 88.4026 84.59 89.382 83.1477 91.922L75.6357 105.084C74.3588 107.342 75.0556 110.098 77.2772 111.624L96.1981 124.472H96.2149Z" fill="black"/>
<path d="M132.953 189.625L166.582 157.59C169.086 155.498 169.667 152.079 167.959 149.39L163.465 142.318C161.823 139.729 158.109 138.949 155.389 140.642L131.245 155.647C129.321 156.843 126.801 156.843 124.877 155.647L100.733 140.642C98.0138 138.949 94.2993 139.729 92.6572 142.318L88.1634 149.39C86.4557 152.079 87.0195 155.482 89.5396 157.59L123.169 189.625C125.938 191.949 130.184 191.949 132.953 189.625Z" fill="black"/>
<path d="M105.877 73.8475L125.444 64.585C127.069 63.805 129.026 63.805 130.651 64.585L150.218 73.8475C154.298 75.7725 154.298 81.1007 150.218 83.0263L130.651 92.2882C129.026 93.0688 127.069 93.0688 125.444 92.2882L105.877 83.0263C101.797 81.1007 101.797 75.7725 105.877 73.8475Z" fill="black"/>
</g>
<defs>
<clipPath id="clip0_1160_7">
<rect width="256" height="256" fill="white"/>
</clipPath>
</defs>
</svg>
