<svg width="256" height="256" viewBox="0 0 256 256" fill="none" xmlns="http://www.w3.org/2000/svg">
<g clip-path="url(#clip0_2641_10159)">
<path d="M256 128C256 198.692 198.692 256 128 256C57.3075 256 0 198.692 0 128C0 57.3075 57.3075 0 128 0C198.692 0 256 57.3075 256 128Z" fill="white"/>
<path d="M163.495 81.8404H134.164C132.822 81.8404 131.927 83.2406 132.49 84.4675L153.968 128.248C154.517 129.417 153.723 130.759 152.438 130.875C140.342 131.784 124.305 133.184 104.818 135.263C103.36 135.422 102.321 133.892 102.985 132.578C114.562 110.219 117.723 96.073 118.56 90.9487C118.733 89.9094 117.983 88.9422 116.943 88.8268L89.4021 85.8677C88.4639 85.7666 87.5978 86.3873 87.3957 87.2967C86.1688 92.9262 80.5826 113.178 58.4831 146.161L41.6379 171.306C40.7574 172.62 41.8255 174.352 43.3989 174.164L73.4374 170.397C138.509 162.256 200.332 159.629 200.332 159.629C201.646 159.571 202.483 158.2 201.935 157.002C201.935 157.002 170.943 96.7803 163.481 81.8115L163.495 81.8404Z" fill="black"/>
<path d="M213.152 81.8262H180.197C185.206 91.7428 191.37 103.622 196.335 113.135H213.152C214.176 113.135 214.999 112.312 214.999 111.287V83.6738C214.999 82.6489 214.176 81.8262 213.152 81.8262Z" fill="black"/>
</g>
<defs>
<clipPath id="clip0_2641_10159">
<rect width="256" height="256" fill="white"/>
</clipPath>
</defs>
</svg>
