<svg width="256" height="256" viewBox="0 0 256 256" fill="none" xmlns="http://www.w3.org/2000/svg">
<g clip-path="url(#clip0_2568_3331)">
<path d="M256 128C256 57.3076 198.692 0 128 0C57.3076 0 0 57.3076 0 128C0 198.692 57.3076 256 128 256C198.692 256 256 198.692 256 128Z" fill="#FBDD11"/>
<path fill-rule="evenodd" clip-rule="evenodd" d="M256 128C256 198.69 198.69 256 128 256C57.3099 256 0 198.69 0 128V126.72C0.699733 196.821 57.7451 253.44 128 253.44C198.255 253.44 255.309 196.821 256 126.72V128Z" fill="#E8C900"/>
<path fill-rule="evenodd" clip-rule="evenodd" d="M256 129.28C255.3 59.1787 198.255 2.56 128 2.56C57.7451 2.56 0.6912 59.1787 0 129.28V128C0 57.3099 57.3099 0 128 0C198.69 0 256 57.3099 256 128V129.28Z" fill="#FFEF7F"/>
<path d="M243.2 128C243.2 64.3768 191.623 12.8 128 12.8C64.3766 12.8 12.7998 64.3768 12.7998 128C12.7998 191.623 64.3766 243.2 128 243.2C191.623 243.2 243.2 191.623 243.2 128Z" fill="#2A2A2E"/>
<path d="M256 128C256 57.3076 198.692 0 128 0C57.3076 0 0 57.3076 0 128C0 198.692 57.3076 256 128 256C198.692 256 256 198.692 256 128Z" fill="url(#paint0_radial_2568_3331)"/>
<g filter="url(#filter0_d_2568_3331)">
<path d="M161.374 167.347C113.784 173.346 91.8617 131.439 95.7529 127.351C98.3129 124.646 102.306 124.484 105.762 124.39C121.677 123.964 144.205 142.541 148.77 142.455C157.62 142.268 170.932 128.205 179.661 116.617C183.305 111.77 206.114 104.465 203.58 117.205C195.388 158.515 167.441 166.588 161.374 167.347ZM95.147 89.1734C142.737 83.1744 164.66 125.082 160.768 129.169C158.208 131.874 154.215 132.036 150.759 132.13C134.844 132.557 112.316 113.98 107.751 114.065C98.9017 114.253 85.5897 128.316 76.8601 139.904C73.2164 144.751 50.4068 152.055 52.9412 139.324C61.1246 97.9968 89.0713 89.9243 95.1385 89.1648L95.147 89.1734Z" fill="black"/>
</g>
<path d="M161.374 167.347C113.784 173.346 91.8617 131.439 95.7529 127.351C98.3129 124.646 102.306 124.484 105.762 124.39C121.677 123.964 144.205 142.541 148.77 142.455C157.62 142.268 170.932 128.205 179.661 116.617C183.305 111.77 206.114 104.465 203.58 117.205C195.388 158.515 167.441 166.588 161.374 167.347ZM95.147 89.1734C142.737 83.1744 164.66 125.082 160.768 129.169C158.208 131.874 154.215 132.036 150.759 132.13C134.844 132.557 112.316 113.98 107.751 114.065C98.9017 114.253 85.5897 128.316 76.8601 139.904C73.2164 144.751 50.4068 152.055 52.9412 139.324C61.1246 97.9968 89.0713 89.9243 95.1385 89.1648L95.147 89.1734Z" fill="#FBDD11"/>
<path fill-rule="evenodd" clip-rule="evenodd" d="M161.093 128.529C159.411 118.323 137.395 85.888 95.1299 91.2128C89.0712 91.9808 61.1331 100.045 52.9326 141.363L52.8046 142.131C52.6859 141.192 52.7292 140.24 52.9326 139.315C61.1246 97.9968 89.0712 89.9243 95.1384 89.1648C140.903 83.3963 162.927 121.916 161.101 128.529H161.093ZM95.42 130.031C95.2067 128.742 95.3176 127.812 95.7528 127.351C98.3128 124.646 102.306 124.484 105.762 124.39C121.677 123.964 144.205 142.541 148.77 142.455C157.619 142.268 170.931 128.205 179.661 116.617C183.228 111.872 205.176 104.764 203.708 116.437C202.394 107.733 182.998 114.219 179.653 118.665C170.931 130.253 157.619 144.316 148.77 144.503C144.205 144.589 121.677 126.012 105.762 126.438C102.306 126.532 98.3128 126.694 95.7528 129.399C95.5992 129.553 95.4968 129.766 95.4115 130.031H95.42Z" fill="#FFEF7F"/>
<path fill-rule="evenodd" clip-rule="evenodd" d="M161.093 126.481C161.306 127.77 161.195 128.7 160.76 129.161C158.2 131.866 154.206 132.028 150.75 132.122C134.836 132.548 112.308 113.971 107.742 114.057C98.8932 114.244 85.5812 128.307 76.8516 139.895C73.2847 144.64 51.337 151.748 52.8047 140.083C54.1189 148.787 73.5151 142.285 76.8602 137.847C85.5813 126.259 98.8932 112.196 107.742 112.009C112.308 111.923 134.836 130.5 150.75 130.074C154.206 129.98 158.191 129.818 160.76 127.113C160.914 126.959 161.016 126.746 161.101 126.481H161.093ZM95.4202 127.983C97.1013 138.189 119.117 170.624 161.383 165.299C167.442 164.531 195.38 156.467 203.58 115.157L203.708 114.389C203.828 115.191 203.794 116.122 203.58 117.205C195.388 158.515 167.442 166.588 161.374 167.347C115.61 173.116 93.5855 134.588 95.4116 127.983H95.4202Z" fill="#E8C900"/>
</g>
<defs>
<filter id="filter0_d_2568_3331" x="39.7451" y="81.5869" width="177.031" height="105.347" filterUnits="userSpaceOnUse" color-interpolation-filters="sRGB">
<feFlood flood-opacity="0" result="BackgroundImageFix"/>
<feColorMatrix in="SourceAlpha" type="matrix" values="0 0 0 0 0 0 0 0 0 0 0 0 0 0 0 0 0 0 127 0" result="hardAlpha"/>
<feOffset dy="6"/>
<feGaussianBlur stdDeviation="6.5"/>
<feColorMatrix type="matrix" values="0 0 0 0 0 0 0 0 0 0 0 0 0 0 0 0 0 0 0.248132 0"/>
<feBlend mode="normal" in2="BackgroundImageFix" result="effect1_dropShadow_2568_3331"/>
<feBlend mode="normal" in="SourceGraphic" in2="effect1_dropShadow_2568_3331" result="shape"/>
</filter>
<radialGradient id="paint0_radial_2568_3331" cx="0" cy="0" r="1" gradientUnits="userSpaceOnUse" gradientTransform="translate(4065.28 2790.4) scale(24873)">
<stop stop-color="white" stop-opacity="0.15"/>
<stop offset="1" stop-color="white" stop-opacity="0"/>
</radialGradient>
<clipPath id="clip0_2568_3331">
<rect width="256" height="256" fill="white"/>
</clipPath>
</defs>
</svg>
