<svg width="256" height="256" viewBox="0 0 256 256" fill="none" xmlns="http://www.w3.org/2000/svg">
<mask id="mask0_1927_1606" style="mask-type:alpha" maskUnits="userSpaceOnUse" x="0" y="0" width="256" height="256">
<path d="M256 127.998C256 161.946 242.514 194.504 218.509 218.509C194.504 242.514 161.946 256 127.998 256C94.0514 255.999 61.495 242.513 37.491 218.509C13.487 194.505 0.00116778 161.95 0 128.002C-2.00871e-08 94.0551 13.4853 61.4975 37.4895 37.4926C61.4936 13.4876 94.0505 0.00116783 127.998 0C161.946 -2.00871e-08 194.503 13.4853 218.508 37.4895C242.512 61.4935 255.999 94.0505 256 127.998Z" fill="#2B1301"/>
</mask>
<g mask="url(#mask0_1927_1606)">
<path d="M17.0286 -9.10156C9.14088 -7.52403 3.89917 -5.12904 1.30341 -1.91661C-0.388859 0.177206 -2.31775 2.00571 -4.48328 3.5689C-7.19377 5.50497 -9.26607 9.64958 -10.7002 16.0027" stroke="#7D859B" stroke-width="2"/>
<path d="M31.8506 -9.10156C43.5674 -6.31937 52.1506 0.377985 57.6002 10.9905C57.9301 11.6215 58.3962 11.7577 58.9985 11.3992C71.2316 4.09953 84.2175 -1.27843 97.9564 -4.73466C101.699 -5.68118 110.376 -7.13682 123.986 -9.10156" stroke="#7D859B" stroke-width="2"/>
<path d="M132.998 -9.10156C146.307 -7.09379 154.876 -5.6525 158.705 -4.77768C179.901 0.0983296 199.369 10.4097 217.109 26.1563" stroke="#7D859B" stroke-width="2"/>
<path d="M217.109 26.1572C217.54 29.9433 213.997 35.0416 206.482 41.4521" stroke="#B0C3FC" stroke-width="2"/>
<path d="M206.484 41.4512C198.08 43.588 192.565 45.7464 189.941 47.9262C184.836 52.1712 179.658 56.323 174.409 60.3816C168.257 65.1285 161.553 72.8226 154.296 83.4638" stroke="#717CF1" stroke-width="2"/>
<path d="M154.296 83.4629C153.349 84.3664 151.213 85.1265 147.885 85.7431C145.39 86.2021 142.952 87.8083 140.571 90.5618C138.592 92.8707 136.914 95.5454 135.538 98.5857C134.276 101.354 133.487 104.351 133.171 107.578C132.741 112.009 132.562 116.462 132.634 120.937" stroke="#97DCF9" stroke-width="2"/>
<path d="M132.633 120.937C132.224 108.332 132.224 100.48 137.172 90.3261C137.473 89.6951 137.932 89.2075 138.549 88.8633C139.725 88.2036 140.678 87.3503 141.41 86.3034C141.869 85.6437 142.5 85.2565 143.303 85.1418L150.982 84.1092C151.337 84.0625 151.675 83.9341 151.971 83.7339C152.267 83.5338 152.513 83.2673 152.69 82.9551C152.867 82.643 152.97 82.2936 152.991 81.9342C153.012 81.5747 152.95 81.2148 152.811 80.8825L151.671 78.1074" stroke="#D8E6FC" stroke-width="2"/>
<path d="M151.67 78.1071C139.093 78.9819 126.573 80.0933 114.11 81.4414C111.887 81.6852 110.174 81.3339 108.969 80.3873C107.506 79.2544 106.438 77.6912 105.764 75.6978" stroke="#717CF1" stroke-width="2"/>
<path d="M105.765 75.6987C98.2927 65.4017 89.6235 55.8433 79.7567 47.0234C79.1544 46.4785 78.2939 45.955 77.1753 45.4531C74.9166 44.4205 72.8944 42.2478 70.8723 41.2798C67.9324 39.903 64.9351 38.5621 61.8804 37.257C61.4835 37.0931 61.04 37.0814 60.6351 37.2243C60.2301 37.3673 59.8922 37.6547 59.6862 38.0315L53.835 48.981" stroke="#6B73E2" stroke-width="2"/>
<path d="M53.835 48.9805C52.028 51.0313 50.7516 53.1466 50.0059 55.3265" stroke="#686FC6" stroke-width="2"/>
<path d="M50.0059 55.3267C48.9447 58.4244 48.5503 61.8591 48.8228 65.6308" stroke="#6B73E2" stroke-width="2"/>
<path d="M48.8234 65.6304L48.5007 58.8111C48.4858 58.5081 48.3902 58.2146 48.2236 57.9611C48.057 57.7076 47.8256 57.5033 47.5534 57.3694C47.2812 57.2355 46.9782 57.1768 46.6757 57.1996C46.3732 57.2224 46.0823 57.3257 45.8332 57.4989C38.5479 62.461 30.2802 64.4974 21.0301 63.6083C16.3548 63.1493 13.0922 62.6115 11.2422 61.9949" stroke="#DDE5FE" stroke-width="2"/>
<path d="M11.2419 61.9953C-0.4032 56.646 -7.71722 48.5576 -10.7002 37.73" stroke="#7D859B" stroke-width="2"/>
<path d="M32.3025 28.8668C31.6714 32.911 30.9687 32.9254 30.1943 28.9098C29.6565 26.0703 28.0861 24.0266 27.8065 21.144C27.6344 19.2653 26.8169 17.9746 25.3541 17.2719C24.7823 16.9991 24.153 16.8683 23.5198 16.8906C22.8866 16.913 22.2682 17.0879 21.717 17.4004C21.1659 17.713 20.6983 18.1539 20.354 18.6858C20.0098 19.2177 19.799 19.8249 19.7395 20.4557C19.338 24.5859 18.3126 28.7592 16.6634 32.9755C16.1758 34.2089 15.8029 34.1802 15.5447 32.8895L12.5331 17.8742C12.361 16.9994 11.8232 16.5835 10.9197 16.6266L7.75746 16.7556C6.89699 16.7843 6.56714 17.2217 6.76791 18.0679C8.89042 26.9881 10.891 33.8002 12.7697 38.5041C13.034 39.1552 13.4921 39.7103 14.0818 40.0937C14.6714 40.4772 15.3638 40.6703 16.0647 40.6468C16.7656 40.6232 17.4408 40.3842 17.9983 39.9623C18.5558 39.5404 18.9686 38.9561 19.1802 38.289L21.7617 30.2005C23.0954 26.0272 24.422 26.0272 25.7413 30.2005L28.5594 39.1279C28.8032 39.888 29.3123 40.3326 30.0867 40.4617C31.105 40.6338 32.116 40.5477 33.1199 40.2035C33.8226 39.9741 34.2959 39.5008 34.5397 38.7837L41.2729 19.5091C41.3789 19.1916 41.4086 18.8534 41.3595 18.5225C41.3104 18.1916 41.1838 17.8776 40.9904 17.6063C40.797 17.3351 40.5422 17.1145 40.2472 16.9629C39.9521 16.8112 39.6253 16.7328 39.2938 16.7341L36.11 16.7126C35.0488 16.7126 34.511 17.2432 34.4967 18.3045L34.4752 21.7249C34.4752 22.528 34.2887 23.2881 33.9158 24.0051C33.0984 25.597 32.5606 27.2175 32.3025 28.8668Z" stroke="#717CF1" stroke-width="2"/>
<path d="M11.2432 61.9946C0.171766 82.7607 -5.1058 104.416 -4.58952 126.96C-4.56084 127.634 -4.28118 127.828 -3.75056 127.541" stroke="#95979D" stroke-width="2"/>
<path d="M-3.751 127.542C-4.58279 128.79 -4.99152 129.686 -4.97717 130.231C-4.24577 165.094 7.54271 195.118 30.3883 220.301C41.0581 232.061 54.4887 242.179 70.6799 250.654" stroke="#304D98" stroke-width="2"/>
<path d="M70.6787 250.654C81.7071 255.802 93.682 259.976 106.603 263.174C112.347 264.615 117.983 264.013 123.813 265.002C136.785 267.196 149.154 264.916 162.039 262.679C165.826 262.034 169.712 260.872 173.699 259.194C177.614 257.559 181.414 255.845 185.1 254.053" stroke="#847580" stroke-width="2"/>
<path d="M185.1 254.053L188.8 250.912" stroke="#745F90" stroke-width="2"/>
<path d="M188.8 250.912L194.328 246.136" stroke="#304D98" stroke-width="2"/>
<path d="M194.328 246.136C221.39 229.945 240.715 207.436 252.303 178.61C258.828 162.39 261.631 145.805 260.714 128.854" stroke="#5A6A9A" stroke-width="2"/>
<path d="M260.715 128.855C262.931 92.4997 248.259 57.9517 223.198 31.7933C220.416 28.8964 218.387 27.0177 217.11 26.1572" stroke="#68749B" stroke-width="2"/>
<path d="M260.714 128.854C260.886 132.01 258.864 133.021 254.647 131.888C252.238 131.257 250.252 130.948 248.689 130.963C233.616 131.163 221.189 130.97 211.409 130.382C209.372 130.267 204.654 129.643 197.254 128.51" stroke="#8CA8FA" stroke-width="2"/>
<path d="M197.254 128.51C199.039 123.304 201.406 116.377 205.773 112.85C210.269 109.193 210.505 101.771 210.312 96.4575C210.168 92.8436 210.541 89.1005 211.43 85.2284C214.428 72.1635 214.858 58.4533 212.721 44.0978C212.549 42.9648 211.925 42.1975 210.849 41.796C209.788 41.4088 208.333 41.294 206.482 41.4518" stroke="#5C6BF1" stroke-width="2"/>
<path d="M105.764 75.6978C104.703 76.9454 104.029 78.2577 103.742 79.6344C103.599 80.3371 103.276 80.9395 102.774 81.4414C101.01 83.2054 98.9018 84.3814 96.4495 84.9694C95.8902 85.0984 95.4743 85.4211 95.2018 85.9374C95.0153 86.3103 94.707 86.4895 94.2768 86.4752C92.3981 86.4035 90.5481 86.5397 88.7267 86.8839C88.0097 87.0273 87.4073 87.3643 86.9197 87.895C84.5247 90.5194 81.6135 92.3694 78.1859 93.445C76.9733 93.8241 75.9333 94.6186 75.2486 95.6889C74.564 96.7591 74.2787 98.0364 74.4429 99.2962C74.8588 102.423 73.4175 104.495 70.119 105.513C69.531 105.685 69.0147 105.556 68.5701 105.126L66.9352 103.491C66.7073 103.263 66.424 103.099 66.1142 103.016C65.8044 102.933 65.4791 102.934 65.1713 103.018C63.8806 103.362 62.7978 103.003 61.923 101.942C59.4706 98.9879 57.5919 96.0981 56.2869 93.2729C55.9857 92.6276 55.5196 92.4555 54.8886 92.7566L53.4043 93.4235" stroke="#171CD7" stroke-width="2"/>
<path d="M53.4053 93.4241L48.8232 65.6309" stroke="#8385E4" stroke-width="2"/>
<path d="M50.0059 55.3267C50.2783 58.869 51.6192 61.2568 54.0286 62.4902C54.9464 62.9491 55.6204 63.6518 56.0507 64.5983C56.5096 65.5879 57.2482 66.2261 58.2664 66.5129C58.8831 66.6993 59.134 67.1009 59.0193 67.7175C58.417 71.2455 59.6503 74.1711 62.7194 76.4944C63.4221 77.025 63.7161 77.7205 63.6013 78.581C63.1137 82.4531 63.7304 85.895 65.4514 88.9067C67.6169 92.6497 68.8359 96.8876 69.1084 101.62C69.1188 101.836 69.1938 102.043 69.3234 102.215C69.4531 102.387 69.6316 102.516 69.8356 102.586C70.0397 102.656 70.2599 102.662 70.4678 102.605C70.6757 102.548 70.8616 102.43 71.0014 102.266C72.4212 100.631 73.2673 98.587 73.5398 96.1347C73.8983 92.8218 75.5046 91.1224 78.3585 91.0364C78.9608 91.0077 79.3695 90.7065 79.5846 90.1329C79.8284 89.4158 80.3089 88.9354 81.0259 88.6916C83.3205 87.9315 84.2455 86.3826 83.8009 84.045C83.6432 83.1845 83.7866 82.3814 84.2312 81.6357C84.5754 81.062 85.063 80.682 85.694 80.4956C86.5114 80.2661 87.2572 80.4382 87.9312 81.0118C88.7343 81.7002 89.4801 82.4747 90.1684 83.3351C90.4018 83.6356 90.7167 83.8624 91.0756 83.9885C91.4345 84.1146 91.8222 84.1346 92.1921 84.0461C92.5621 83.9576 92.8987 83.7643 93.1617 83.4894C93.4246 83.2145 93.6028 82.8697 93.6749 82.4962L95.3528 73.8914C95.4195 73.5687 95.4116 73.2345 95.3296 72.914C95.2477 72.5936 95.0937 72.2952 94.8795 72.0414L87.2859 62.8128C86.7983 62.2248 86.1744 62.0097 85.4143 62.1675C84.3101 62.3969 83.4711 62.0312 82.8974 61.0704C82.7065 60.7481 82.4363 60.48 82.1125 60.2918C81.7886 60.1035 81.422 60.0012 81.0474 59.9948C79.7137 59.9804 78.6309 59.4928 77.7991 58.532C77.3689 58.0444 76.8239 57.8078 76.1642 57.8221C73.9844 57.8651 72.1702 57.0262 70.7217 55.3052C70.2915 54.7889 69.7394 54.538 69.0653 54.5523C67.0576 54.624 65.2506 54.3085 63.6444 53.6058C63.63 53.6058 62.2748 52.523 59.5786 50.3575C58.0011 49.0811 56.0865 48.6222 53.835 48.9807" stroke="#0E0FAC" stroke-width="2"/>
<path d="M197.256 128.51C195.979 132.483 195.226 136.663 194.997 141.052C194.911 143.074 193.728 144.881 193.018 146.709C191.684 150.259 193.039 155.938 193.276 159.767C193.749 167.963 191.297 177.536 189.855 185.624" stroke="#4E61F0" stroke-width="2"/>
<path d="M189.855 185.623C190.142 186.197 189.561 186.519 188.112 186.591" stroke="#2444EE" stroke-width="2"/>
<path d="M188.112 186.591C185.659 179.599 188.542 170.414 190.521 163.53C191.224 161.106 190.184 156.99 187.402 151.182" stroke="#6856E6" stroke-width="2"/>
<path d="M187.402 151.183C186.004 146.063 184.175 141.266 183.509 135.931C182.562 128.38 172.365 118.657 164.105 124.014C160.247 126.523 160.599 127.434 165.159 126.746C167.21 126.444 169.311 126.552 171.462 127.068C180.698 129.305 183.889 135.128 181.035 144.536" stroke="#7F6DE3" stroke-width="2"/>
<path d="M181.036 144.536C180.161 145.855 178.347 147.77 175.593 150.279C173.686 152.029 173.664 155.134 175.529 159.594" stroke="#2444EE" stroke-width="2"/>
<path d="M175.528 159.594C172.645 163.617 169.569 164.951 165.439 167.167C163.933 167.97 162.556 167.826 161.308 166.736C158.039 163.911 154.518 161.366 150.746 159.1" stroke="#7F6DE3" stroke-width="2"/>
<path d="M150.747 159.1C149.93 158.354 149.378 158.089 149.091 158.304" stroke="#848EF1" stroke-width="2"/>
<path d="M149.09 158.303C148.961 156.826 149.069 155.607 149.413 154.646C149.714 153.743 149.492 152.997 148.746 152.409L143.669 148.451C142.594 147.609 141.846 146.419 141.555 145.087C141.264 143.756 141.449 142.366 142.077 141.159C143.691 138.018 142.723 131.951 142.895 128.553C142.923 127.807 143.303 127.398 144.035 127.326C146.014 127.14 147.011 126.437 147.025 125.218" stroke="#1564EB" stroke-width="2"/>
<path d="M147.025 125.219C151.026 123.627 155.415 122.487 158.555 119.496C160.821 117.36 163.13 115.194 165.482 113C167.246 111.379 167.024 110.096 164.815 109.149L157.093 105.815C155.056 104.94 153.17 105.184 151.435 106.546C148.997 108.482 146.853 110.928 145.003 113.882" stroke="#6864EE" stroke-width="2"/>
<path d="M145.002 113.882C144.027 110.54 144.106 107.543 145.238 104.89C145.325 104.704 146.766 102.28 149.562 97.619C151.04 95.181 152.803 92.8003 154.854 90.4771" stroke="#1564EB" stroke-width="2"/>
<path d="M154.855 90.4758L167.612 91.8095C168.415 91.8955 168.788 91.537 168.73 90.7339C168.673 90.1889 168.293 89.8017 167.59 89.5723C161.768 87.6362 157.336 85.5997 154.296 83.4629" stroke="#4385EE" stroke-width="2"/>
<path d="M182.026 89.1C182.815 90.8639 183.948 92.3697 185.425 93.6174C187.648 95.4818 188.996 96.7797 189.469 97.5111C190.688 99.3754 191.642 101.369 192.33 103.491C192.516 104.079 192.832 104.545 193.277 104.89C193.865 105.32 194.488 105.377 195.148 105.062C195.908 104.689 196.31 104.079 196.353 103.233L196.718 95.3814C196.747 94.8888 196.91 94.4126 197.192 94.0046C199.572 90.5197 200.985 86.8484 201.43 82.9906C201.716 80.5382 202.763 78.5735 204.57 77.0963C205.043 76.6948 205.366 76.1928 205.538 75.5905C205.983 73.9556 206.521 72.3566 207.152 70.7934C207.811 69.1585 207.948 67.4806 207.56 65.7596C206.987 63.2069 206.614 60.7115 206.442 58.2735C206.384 57.4274 206.004 56.7748 205.302 56.3159C202.032 54.1934 199.178 54.5591 196.74 57.413C196.209 58.044 195.621 58.6177 194.976 59.134C194.173 59.808 193.284 60.1235 192.308 60.0805C190.329 60.0088 188.264 59.9729 186.113 59.9729C185.367 59.9729 184.715 60.2096 184.156 60.6828C182.377 62.1743 180.391 63.2571 178.197 63.9311C177.898 64.0195 177.62 64.168 177.38 64.3677C177.14 64.5673 176.942 64.814 176.798 65.0927C175.522 67.5738 173.88 69.8827 171.872 72.0196C169.793 74.2281 169.57 76.5442 171.205 78.9679C172.883 81.4417 175.701 81.8505 178.218 83.0981C178.518 83.2441 178.779 83.4583 178.981 83.7236C179.183 83.9888 179.319 84.2978 179.38 84.6255C179.581 85.8158 180.097 86.8054 180.929 87.5941C181.388 88.0244 181.753 88.5263 182.026 89.1Z" stroke="#1417BB" stroke-width="2"/>
<path d="M154.167 135.394C150.524 138.592 149.707 142.234 151.715 146.322C152.073 147.053 152.762 147.29 153.78 147.031" stroke="#898EF3" stroke-width="2"/>
<path d="M153.779 147.031C153.191 147.404 152.869 147.684 152.811 147.87C152.678 148.318 152.719 148.8 152.927 149.219C153.134 149.638 153.493 149.963 153.93 150.129C160.405 152.538 172.43 153.442 174.409 144.622C176.474 135.436 170.516 126.315 160.749 129.994C157.881 131.069 155.687 132.869 154.167 135.393" stroke="#0F1373" stroke-width="2"/>
<path d="M153.779 147.031C158.447 144.687 159.953 137.566 154.167 135.394" stroke="#7B7C80" stroke-width="2"/>
<path d="M53.405 93.4243C52.86 98.1856 53.5843 102.588 55.5777 106.633C57.1911 109.924 61.4719 111.645 62.6121 114.011C64.921 118.772 66.0324 123.297 65.9464 127.585" stroke="#898EF3" stroke-width="2"/>
<path d="M65.9474 127.585L-3.75098 127.542" stroke="#90AEFB" stroke-width="2"/>
<path d="M151.671 78.1074C145.633 79.4125 139.617 80.5454 133.622 81.5063C133.551 81.5206 128.732 81.8863 119.166 82.6034C112.741 83.091 106.783 84.855 101.29 87.8953" stroke="#848EF1" stroke-width="2"/>
<path d="M101.29 87.895L95.1592 90.541" stroke="#4385EE" stroke-width="2"/>
<path d="M95.1596 90.5405C93.8832 91.0281 93.2235 91.738 93.1805 92.6702C93.1641 92.985 93.2616 93.2953 93.4551 93.5441C93.6487 93.793 93.9254 93.9638 94.2346 94.0254C98.8381 94.9576 102.431 97.116 105.012 100.501C108.698 105.305 109.823 110.296 108.389 115.473" stroke="#1C6EEF" stroke-width="2"/>
<path d="M108.389 115.474C105.277 111.028 102.301 108.604 99.4618 108.203C98.8308 108.117 98.2786 108.289 97.8054 108.719L91.0076 114.936C90.7718 115.15 90.5807 115.408 90.4454 115.696C90.31 115.984 90.2331 116.297 90.2191 116.615C90.2051 116.933 90.2543 117.25 90.3638 117.549C90.4733 117.848 90.6409 118.122 90.8571 118.356C95.3745 123.261 100.903 126.524 107.443 128.144" stroke="#7272EF" stroke-width="2"/>
<path d="M107.442 128.144L111.336 131.134C111.938 131.607 112.29 132.224 112.39 132.984C112.792 136.469 113.344 139.731 114.046 142.772C114.491 144.665 114.419 146.73 113.831 148.967C113.358 150.774 112.533 152.366 111.357 153.743C109.852 155.521 108.396 157.292 106.991 159.056C105.872 160.476 104.366 161.666 102.473 162.627C99.6622 164.075 97.4106 166.298 95.7184 169.296C95.5321 169.625 95.2574 169.895 94.9261 170.074C94.5948 170.253 94.2206 170.334 93.8468 170.307L89.1357 169.963" stroke="#1C6EEF" stroke-width="2"/>
<path d="M89.1369 169.963C86.5698 167.884 84.1676 165.611 81.9304 163.144C80.1664 161.208 78.7251 158.454 77.6065 154.884C76.6026 151.671 75.3048 148.559 73.7129 145.547" stroke="#7F6DE3" stroke-width="2"/>
<path d="M73.7123 145.547C72.6367 141.761 77.1757 137.889 79.542 135.157C82.8979 131.285 87.5659 131.693 92.1049 132.188C92.3149 132.208 92.5267 132.169 92.716 132.076C92.9053 131.982 93.0643 131.838 93.1746 131.661C93.2849 131.483 93.342 131.278 93.3392 131.071C93.3365 130.864 93.274 130.662 93.159 130.489C90.6636 126.681 86.1677 125.799 82.1235 127.8C77.2618 130.209 74.3505 134.619 73.3896 141.03" stroke="#6864EE" stroke-width="2"/>
<path d="M73.3899 141.029C73.3039 140.699 73.2035 140.455 73.0888 140.298C72.9453 140.111 72.7589 140.018 72.5294 140.018C71.9414 140.004 71.4395 140.161 71.0236 140.491C70.6221 140.807 70.4069 141.223 70.3783 141.739L70.1201 146.751" stroke="#1417BB" stroke-width="2"/>
<path d="M70.1186 146.752L70.2262 136.082C70.2405 135.365 70.0684 134.691 69.7099 134.06L65.9453 127.585" stroke="#2444EE" stroke-width="2"/>
<path d="M103.571 149.032C105.063 146.393 104.554 143.46 102.044 140.233" stroke="#898EF3" stroke-width="2"/>
<path d="M102.043 140.234C102.416 138.613 101.792 137.602 100.171 137.201C99.4399 137.029 98.8591 136.627 98.4288 135.996C94.0189 129.801 87.0275 135.179 84.1665 139.266C75.6908 151.334 92.5776 163.875 102.925 152.861C105.363 150.251 105.578 148.975 103.57 149.032" stroke="#0F1373" stroke-width="2"/>
<path d="M102.043 140.234C100.465 139.101 99.1171 139.093 97.9985 140.212C97.2528 140.943 96.8799 141.99 96.8799 143.353C96.8799 147.397 99.1099 149.29 103.57 149.032" stroke="#7B7C80" stroke-width="2"/>
<path d="M132.633 120.938C132.074 121.756 131.952 122.652 132.267 123.627" stroke="#A9EFF9" stroke-width="2"/>
<path d="M132.268 123.627L132.139 148.193C132.124 150.244 133.143 151.377 135.193 151.592C139.697 152.051 144.329 154.288 149.09 158.304" stroke="#7BCEF6" stroke-width="2"/>
<path d="M150.745 159.1C151.118 161.107 152.272 162.355 154.208 162.843C154.308 162.87 154.401 162.919 154.48 162.987C154.559 163.054 154.622 163.138 154.665 163.232C154.708 163.326 154.73 163.429 154.729 163.533C154.728 163.636 154.705 163.739 154.66 163.832L154.337 164.542C153.95 165.345 153.319 165.639 152.444 165.424C148.744 164.542 145.281 162.606 141.387 162.8C136.124 163.058 130.854 163.316 125.576 163.574C124.687 163.617 123.877 163.882 123.145 164.37C121.797 165.273 120.37 165.826 118.864 166.026C113.027 166.772 107.865 169.167 103.376 173.211C102.573 173.943 101.662 174.136 100.644 173.792C99.181 173.305 97.7827 173.369 96.449 173.986C96.3295 174.027 96.1992 174.026 96.081 173.981C95.9628 173.936 95.8642 173.85 95.8026 173.74C95.7409 173.63 95.7202 173.501 95.744 173.377C95.7678 173.252 95.8346 173.141 95.9327 173.061C97.9978 171.713 99.6973 170.099 101.031 168.221C101.088 168.135 101.081 168.056 101.009 167.984C100.938 167.927 100.873 167.927 100.816 167.984C100.744 168.027 100.687 168.077 100.644 168.135C100.386 168.493 100.12 168.787 99.8478 169.017" stroke="#E6D7EE" stroke-width="2"/>
<path d="M99.85 169.017C99.6922 168.414 99.8858 167.869 100.431 167.382C106.11 162.219 111.753 157.651 117.361 153.679C118.537 152.832 119.827 152.323 121.233 152.151C121.456 152.122 121.671 152.049 121.866 151.935C122.06 151.821 122.23 151.67 122.364 151.489C122.499 151.308 122.595 151.102 122.649 150.884C122.702 150.665 122.711 150.437 122.674 150.215L120.738 138.47" stroke="#82D8FA" stroke-width="2"/>
<path d="M120.737 138.469C119.489 128.058 118.27 117.775 117.08 107.621C117.051 107.435 116.965 107.299 116.822 107.213C116.65 107.112 116.463 107.062 116.262 107.062C115.99 107.048 115.847 106.911 115.832 106.653C115.631 104.516 114.965 102.616 113.832 100.953C113.444 100.379 113.222 99.748 113.165 99.0597C112.605 91.9392 107.141 91.2509 101.441 91.1863C100.638 91.172 100.294 90.7704 100.408 89.9817C100.509 89.4224 100.803 88.7268 101.29 87.895" stroke="#A9EFF9" stroke-width="2"/>
<path d="M154.855 90.4774C149.362 87.6379 144.974 88.7278 141.69 93.7472C138.219 99.0535 136.032 104.353 135.129 109.644C134.397 113.947 133.888 118.471 133.601 123.218C133.573 123.663 133.343 123.921 132.913 123.993C132.655 124.022 132.44 123.9 132.268 123.627" stroke="#3AC4F3" stroke-width="2"/>
<path d="M120.737 138.469C118.7 129.176 116.965 119.947 115.531 110.783C113.796 99.6544 107.428 93.5092 96.4284 92.3475C95.8117 92.2902 95.446 91.9603 95.3313 91.358L95.1592 90.5405" stroke="#41CEF7" stroke-width="2"/>
<path d="M145.002 113.881L141.216 122.379C141.018 122.826 140.951 123.32 141.021 123.804C141.091 124.288 141.297 124.742 141.613 125.115C141.93 125.487 142.345 125.763 142.811 125.911C143.277 126.059 143.776 126.072 144.249 125.949L147.024 125.218" stroke="#5FA3F3" stroke-width="2"/>
<path d="M99.8486 169.016C95.5032 174.007 91.9323 174.322 89.1357 169.963" stroke="#7EB7EC" stroke-width="2"/>
<path d="M107.442 128.145C108.547 128.446 109.149 128.575 109.249 128.532C110.029 128.171 110.649 127.536 110.993 126.744C111.338 125.952 111.383 125.058 111.121 124.229L108.389 115.474" stroke="#70BCF8" stroke-width="2"/>
<path d="M187.402 151.182C187.201 153.735 186.269 155.528 184.605 156.56C184.06 156.89 183.652 157.349 183.379 157.937L178.56 167.875C178.312 168.388 177.884 168.793 177.356 169.015C175.807 169.646 175.212 170.779 175.57 172.414C175.594 172.533 175.652 172.642 175.736 172.727C175.821 172.811 175.928 172.867 176.044 172.888C177.578 173.117 178.625 173.977 179.184 175.469C179.916 177.448 179.421 179.047 177.7 180.266C174.789 182.331 171.361 183.952 167.417 185.128C166.657 185.357 165.947 185.25 165.288 184.805C164.427 184.217 163.703 183.522 163.115 182.718C162.527 181.887 162.14 181.973 161.953 182.977C161.781 183.923 161.853 184.841 162.168 185.73C164.492 192.585 165.209 200.236 164.32 208.683C163.646 215.151 161.007 219.41 156.403 221.461C155.371 221.92 155.392 222.329 156.468 222.687C158.289 223.304 160.017 223.197 161.652 222.365C162.34 222.021 162.807 221.483 163.05 220.751C163.94 217.969 165.739 216.119 168.45 215.201C168.952 215.029 169.375 214.742 169.719 214.341C169.891 214.154 170.02 213.939 170.106 213.695C170.239 213.319 170.502 213.003 170.846 212.805C171.189 212.608 171.592 212.542 171.978 212.62C172.824 212.792 173.598 213.136 174.301 213.652C174.817 214.068 175.054 214.606 175.011 215.266C174.437 221.949 174.523 228.847 175.269 235.96C175.613 239.259 174.839 241.898 172.946 243.877C167.977 249.082 160.813 245.447 156.081 251.771C155.65 252.331 155.098 252.732 154.424 252.976C152.316 253.751 150.193 254.324 148.057 254.697C144.722 255.256 142.098 257.451 139.646 259.709" stroke="#CA9FE3" stroke-width="2"/>
<path d="M139.646 259.711C137.94 260.729 136.405 260.987 135.043 260.485C130.052 258.678 124.76 255.236 119.081 253.322C112.455 251.099 105.909 248.625 99.4408 245.9C97.4617 245.061 95.3321 245.061 93.2669 245.04C92.3816 245.04 91.5213 244.746 90.8206 244.205C90.1199 243.664 89.6185 242.906 89.3948 242.049C87.932 236.413 87.4372 230.541 87.9105 224.431C87.9678 223.714 88.2188 223.076 88.6634 222.517C89.1653 221.871 89.7318 221.334 90.3628 220.903C90.9508 220.487 91.2305 219.928 91.2018 219.225C90.9867 214.815 92.471 210.943 92.2343 206.512C91.9762 201.923 92.4853 197.226 93.7617 192.422C93.8472 192.104 93.8651 191.773 93.8142 191.448C93.7633 191.124 93.6448 190.813 93.4663 190.537C93.2879 190.262 93.0534 190.026 92.7782 189.847C92.5029 189.668 92.1931 189.548 91.8686 189.496C87.6523 188.822 83.8089 186.886 80.3383 183.688C79.7503 183.143 79.4492 182.469 79.4348 181.666L79.2627 170.501C79.2484 169.655 78.9257 168.938 78.2947 168.35C74.0067 164.306 71.5185 160.276 70.8301 156.26" stroke="#DAB5D3" stroke-width="2"/>
<path d="M70.8301 156.26L72.8307 145.913" stroke="#7660B8" stroke-width="2"/>
<path d="M72.8301 145.913C72.9878 146.229 73.2818 146.107 73.7121 145.547" stroke="#CAADEB" stroke-width="2"/>
<path d="M175.529 159.594C182.528 154.876 184.363 149.856 181.036 144.536" stroke="#868DEB" stroke-width="2"/>
<path d="M137.84 224.539C141.138 223.765 144.099 222.546 146.724 220.882C149.542 219.096 148.509 215.87 148.94 213.138C150.345 204.189 150.84 196.021 150.424 188.636C150.051 181.881 147.556 177.213 142.938 174.632C129.17 166.909 102.947 171.813 104.066 191.906C104.295 196.107 104.69 200.582 105.249 205.329C105.851 210.492 106.848 215.49 108.239 220.323C108.885 222.56 109.86 223.987 111.165 224.603C115.876 226.798 123.642 226.561 128.611 226.088C131.45 225.815 134.527 225.299 137.84 224.539Z" stroke="#7F6479" stroke-width="2"/>
<path d="M72.8306 145.913C72.6155 143.833 72.8019 142.206 73.3899 141.03" stroke="#5F57C3" stroke-width="2"/>
<path d="M70.1186 146.752L67.9244 166.091C67.6829 168.15 67.8511 170.234 68.4191 172.222L72.9581 188.184" stroke="#1B37C3" stroke-width="2"/>
<path d="M72.959 188.183C72.7726 197.361 72.5001 206.418 72.1416 215.353C72.1416 215.424 71.6611 221.017 70.7003 232.132C70.184 238.083 70.1768 244.257 70.6788 250.653" stroke="#7E8CDE" stroke-width="2"/>
<path d="M194.33 246.136C195.535 239.611 196.266 233.286 196.524 227.162C196.739 221.978 194.244 217.912 193.9 213.804C192.838 201.542 191.49 192.148 189.855 185.623" stroke="#5481F8" stroke-width="2"/>
<path d="M70.8279 156.26C69.1213 162.47 68.6624 166.866 69.4511 169.447C71.4589 175.987 72.6277 182.232 72.9576 188.184" stroke="#6F5FAB" stroke-width="2"/>
<path d="M188.112 186.592C188.141 188.026 188.636 190.113 189.597 192.852C191.102 197.154 187.704 202.833 191.361 206.447C191.522 206.611 191.65 206.804 191.737 207.017C191.824 207.231 191.867 207.459 191.865 207.689C191.863 207.919 191.816 208.146 191.725 208.357C191.635 208.569 191.504 208.761 191.339 208.921C190.751 209.495 190.859 209.982 191.662 210.384C192.08 210.591 192.431 210.911 192.675 211.306C192.919 211.702 193.045 212.158 193.039 212.621C192.881 219.921 192.458 227.263 191.769 234.649C191.382 238.894 190.357 242.917 188.693 246.717C188.406 247.377 188.32 248.065 188.435 248.782L188.801 250.912" stroke="#6E76EE" stroke-width="2"/>
<path d="M185.1 254.052C184.541 252.503 184.541 251.449 185.1 250.89C185.548 250.435 185.871 249.874 186.041 249.259C186.21 248.644 186.22 247.996 186.07 247.375C185.919 246.753 185.613 246.179 185.18 245.707C184.747 245.234 184.202 244.879 183.595 244.673C182.261 244.228 181.307 244.687 180.734 246.05C180.447 246.738 179.973 247.254 179.314 247.598C176.747 248.932 174.137 249.219 171.483 248.459C171.11 248.361 170.713 248.4 170.365 248.566L155.823 255.558C155.695 255.629 155.585 255.724 155.5 255.838C154.489 257.257 153.736 258.333 152.015 259C148.86 260.219 145.741 261.108 142.658 261.667C140.291 262.112 139.287 261.459 139.646 259.71" stroke="#C29ED6" stroke-width="2"/>
<path d="M16.7565 -8.57617H31.5929C43.3214 -5.80791 51.9132 0.855885 57.3683 11.4152C57.6985 12.0431 58.1651 12.1786 58.768 11.8219C71.0133 4.55879 84.0122 -0.792228 97.7649 -4.23115C101.512 -5.17293 110.197 -6.62127 123.82 -8.57617H132.843C146.165 -6.57846 154.742 -5.14439 158.575 -4.27396C179.793 0.577632 199.28 10.8373 217.038 26.5051C217.469 30.2722 213.923 35.345 206.401 41.7234C197.988 43.8495 192.468 45.9971 189.841 48.166C184.731 52.3897 179.548 56.5207 174.294 60.5589C168.136 65.2821 161.425 72.9376 154.161 83.5255C153.213 84.4245 151.074 85.1808 147.744 85.7943C145.246 86.251 142.805 87.8491 140.422 90.5888C138.441 92.8862 136.762 95.5475 135.384 98.5726C134.12 101.327 133.331 104.309 133.015 107.519C132.584 111.929 132.405 116.359 132.477 120.811C132.067 108.269 132.067 100.456 137.02 90.3534C137.322 89.7255 137.781 89.2404 138.398 88.8979C139.575 88.2415 140.53 87.3925 141.262 86.3508C141.722 85.6944 142.353 85.3092 143.157 85.195L150.845 84.1676C151.199 84.1211 151.538 83.9933 151.834 83.7942C152.131 83.595 152.377 83.3299 152.554 83.0193C152.731 82.7087 152.834 82.3611 152.855 82.0035C152.876 81.6458 152.814 81.2877 152.675 80.957L151.534 78.1959C138.944 79.0663 126.411 80.1722 113.936 81.5135C111.711 81.7561 109.996 81.4065 108.79 80.4647C107.326 79.3374 106.256 77.7821 105.581 75.7986C98.1022 65.5532 89.4243 56.0427 79.5477 47.267C78.9447 46.7248 78.0834 46.204 76.9637 45.7045C74.7027 44.6771 72.6785 42.5153 70.6544 41.5521C67.7115 40.1823 64.7112 38.8481 61.6535 37.5496C61.2562 37.3864 60.8123 37.3748 60.4069 37.517C60.0016 37.6592 59.6633 37.9452 59.4571 38.3201L53.6 49.2148C51.7912 51.2553 50.5136 53.36 49.7671 55.529C48.7048 58.6112 48.31 62.0287 48.5827 65.7815L48.2597 58.9964C48.2449 58.695 48.1491 58.403 47.9824 58.1507C47.8156 57.8984 47.584 57.6951 47.3115 57.5619C47.0391 57.4287 46.7357 57.3704 46.4329 57.393C46.1301 57.4157 45.8389 57.5185 45.5896 57.6908C38.297 62.628 30.021 64.6543 20.7617 63.7696C16.0818 63.3129 12.8159 62.7778 10.964 62.1642C-0.692711 56.8418 -8.01404 48.7938 -11 38.0205V16.4024C-9.56444 10.081 -7.49007 5.95719 -4.77687 4.03082C-2.60918 2.47546 -0.678355 0.656113 1.0156 -1.42722C3.61396 -4.62356 8.86091 -7.00654 16.7565 -8.57617ZM32.0451 29.202C31.4135 33.226 30.7101 33.2402 29.9349 29.2448C29.3965 26.4195 27.8246 24.3861 27.5447 21.5179C27.3724 19.6487 26.5541 18.3644 25.0899 17.6652C24.5175 17.3937 23.8876 17.2636 23.2537 17.2858C22.6199 17.3081 22.0008 17.4821 21.4491 17.7931C20.8974 18.104 20.4294 18.5428 20.0848 19.072C19.7402 19.6013 19.5291 20.2054 19.4697 20.833C19.0677 24.9426 18.0413 29.095 16.3904 33.2902C15.9023 34.5173 15.5291 34.4888 15.2707 33.2046L12.256 18.2645C12.0837 17.3941 11.5454 16.9803 10.641 17.0231L7.4756 17.1515C6.61427 17.18 6.28409 17.6153 6.48507 18.4572C8.60969 27.3327 10.6123 34.1107 12.4929 38.791C12.7574 39.4389 13.216 39.9912 13.8062 40.3727C14.3965 40.7542 15.0896 40.9464 15.7912 40.923C16.4927 40.8996 17.1686 40.6617 17.7267 40.2419C18.2848 39.8221 18.6979 39.2407 18.9098 38.577L21.4938 30.529C22.8289 26.3767 24.1568 26.3767 25.4775 30.529L28.2983 39.4117C28.5424 40.168 29.052 40.6104 29.8272 40.7388C30.8464 40.91 31.8585 40.8244 32.8634 40.4819C33.5668 40.2536 34.0406 39.7827 34.2846 39.0693L41.0245 19.8912C41.1307 19.5753 41.1604 19.2388 41.1112 18.9095C41.062 18.5803 40.9354 18.2678 40.7418 17.998C40.5482 17.7281 40.2931 17.5086 39.9978 17.3577C39.7025 17.2068 39.3753 17.1288 39.0435 17.1301L35.8565 17.1087C34.7942 17.1087 34.2559 17.6367 34.2415 18.6926L34.22 22.0958C34.22 22.8949 34.0334 23.6512 33.6601 24.3647C32.8419 25.9486 32.3035 27.561 32.0451 29.202Z" fill="#C5D3FC"/>
<path d="M32.4429 28.9362C32.7042 27.2803 33.2484 25.6531 34.0757 24.0547C34.4531 23.3348 34.6417 22.5716 34.6417 21.7652L34.6635 18.3309C34.678 17.2653 35.2223 16.7325 36.2963 16.7325L39.5183 16.7541C39.8538 16.7528 40.1845 16.8315 40.4831 16.9838C40.7817 17.1361 41.0395 17.3576 41.2353 17.6299C41.431 17.9022 41.5591 18.2175 41.6088 18.5498C41.6585 18.882 41.6285 19.2216 41.5212 19.5404L34.7071 38.8936C34.4603 39.6136 33.9814 40.0888 33.2702 40.3192C32.2543 40.6648 31.2311 40.7512 30.2006 40.5784C29.4169 40.4488 28.9016 40.0024 28.6549 39.2392L25.803 30.2754C24.4678 26.0851 23.1253 26.0851 21.7755 30.2754L19.1631 38.3968C18.9488 39.0666 18.5312 39.6534 17.9669 40.077C17.4027 40.5006 16.7194 40.7406 16.0101 40.7642C15.3008 40.7879 14.6 40.594 14.0033 40.209C13.4066 39.824 12.9429 39.2666 12.6755 38.6128C10.7742 33.8897 8.74961 27.0499 6.60161 18.0933C6.39842 17.2437 6.73223 16.8045 7.60304 16.7757L10.8033 16.6461C11.7176 16.6029 12.2619 17.0205 12.436 17.8989L15.4839 32.9754C15.7451 34.2713 16.1225 34.3001 16.6159 33.0618C18.285 28.8282 19.3227 24.6379 19.7291 20.4908C19.7892 19.8574 20.0026 19.2478 20.351 18.7138C20.6994 18.1797 21.1726 17.7369 21.7303 17.4231C22.2881 17.1093 22.914 16.9337 23.5548 16.9113C24.1956 16.8888 24.8324 17.0201 25.4111 17.2941C26.8915 17.9997 27.7188 19.2956 27.893 21.182C28.176 24.0763 29.7652 26.1283 30.3095 28.9794C31.0932 33.0114 31.8043 32.997 32.4429 28.9362Z" fill="#1D24E6"/>
<path d="M217.166 26.5117C218.44 27.3737 220.467 29.2556 223.246 32.1574C248.274 58.3605 262.926 92.9675 260.714 129.385C260.885 132.545 258.866 133.558 254.655 132.423C252.249 131.791 250.265 131.482 248.704 131.496C233.651 131.697 221.24 131.503 211.472 130.914C209.439 130.8 204.726 130.175 197.336 129.04C199.119 123.825 201.482 116.886 205.844 113.352C210.334 109.689 210.57 102.255 210.377 96.9324C210.233 93.3123 210.606 89.5628 211.494 85.6841C214.487 72.5969 214.917 58.8633 212.783 44.4832C212.611 43.3483 211.988 42.5798 210.914 42.1775C209.854 41.7897 208.4 41.6747 206.553 41.8327C214.058 35.4113 217.595 30.3043 217.166 26.5117Z" fill="#9AB2FB"/>
<path d="M105.229 75.7805C104.168 77.0195 103.494 78.3225 103.207 79.6896C103.064 80.3874 102.741 80.9856 102.239 81.484C100.476 83.2356 98.3678 84.4033 95.9157 84.9872C95.3565 85.1154 94.9406 85.4358 94.6682 85.9485C94.4818 86.3187 94.1735 86.4967 93.7433 86.4825C91.8648 86.4113 90.015 86.5466 88.1939 86.8883C87.477 87.0308 86.8747 87.3654 86.3872 87.8923C83.9925 90.4984 81.0816 92.3354 77.6544 93.4035C76.442 93.7799 75.4021 94.5689 74.7175 95.6316C74.033 96.6943 73.7477 97.9627 73.9118 99.2137C74.3277 102.318 72.8866 104.376 69.5885 105.387C69.0006 105.558 68.4844 105.43 68.0398 105.003L66.4051 103.379C66.1772 103.153 65.894 102.99 65.5842 102.908C65.2744 102.825 64.9491 102.826 64.6414 102.909C63.3508 103.251 62.2682 102.895 61.3935 101.841C58.9415 98.9076 57.063 96.038 55.7581 93.2326C55.457 92.5918 54.9909 92.4209 54.36 92.7199L52.8759 93.3821L48.2944 65.7835C48.022 62.0382 48.4163 58.6275 49.4774 55.5515C49.7499 59.069 51.0906 61.4401 53.4996 62.6648C54.4174 63.1205 55.0913 63.8183 55.5215 64.7582C55.9804 65.7408 56.7189 66.3745 57.737 66.6593C58.3536 66.8445 58.6045 67.2432 58.4898 67.8556C57.8875 71.3588 59.1207 74.2639 62.1894 76.5709C62.892 77.0978 63.1859 77.7885 63.0712 78.6429C62.5837 82.488 63.2003 85.9057 64.921 88.8963C67.0863 92.6131 68.3051 96.8213 68.5776 101.521C68.588 101.735 68.663 101.94 68.7926 102.111C68.9223 102.282 69.1007 102.411 69.3047 102.48C69.5088 102.549 69.729 102.555 69.9368 102.499C70.1447 102.442 70.3306 102.325 70.4704 102.162C71.89 100.538 72.736 98.5088 73.0085 96.0736C73.3669 92.784 74.973 91.0965 77.8265 91.0111C78.4288 90.9826 78.8374 90.6835 79.0525 90.1139C79.2963 89.4018 79.7767 88.9248 80.4936 88.6827C82.788 87.9279 83.7129 86.3899 83.2683 84.0687C83.1106 83.2142 83.254 82.4168 83.6985 81.6762C84.0427 81.1066 84.5302 80.7292 85.1611 80.5441C85.9785 80.3162 86.7241 80.4871 87.3981 81.0568C88.2011 81.7403 88.9467 82.5093 89.635 83.3638C89.8683 83.6621 90.1832 83.8874 90.5421 84.0126C90.901 84.1378 91.2886 84.1576 91.6585 84.0697C92.0284 83.9818 92.365 83.7899 92.6279 83.517C92.8908 83.244 93.069 82.9016 93.141 82.5307L94.8187 73.9862C94.8855 73.6658 94.8776 73.3339 94.7956 73.0157C94.7136 72.6974 94.5597 72.4011 94.3456 72.1492L86.7528 62.9852C86.2653 62.4014 85.6415 62.1877 84.8815 62.3444C83.7774 62.5722 82.9385 62.2091 82.3649 61.255C82.1741 60.9349 81.9038 60.6688 81.5801 60.4818C81.2563 60.2948 80.8897 60.1933 80.5152 60.1869C79.1816 60.1727 78.099 59.6885 77.2673 58.7344C76.8371 58.2502 76.2922 58.0152 75.6326 58.0294C73.453 58.0722 71.639 57.2391 70.1908 55.5302C69.7606 55.0175 69.2085 54.7683 68.5346 54.7825C66.527 54.8537 64.7203 54.5404 63.1142 53.8426C63.0999 53.8426 61.7448 52.7675 59.049 50.6171C57.4717 49.3497 55.5574 48.894 53.3061 49.25L59.1566 38.3772C59.3626 38.003 59.7004 37.7176 60.1053 37.5757C60.5102 37.4338 60.9537 37.4453 61.3505 37.6082C64.4048 38.9041 67.4017 40.2356 70.3413 41.6027C72.3632 42.564 74.385 44.7214 76.6435 45.7468C77.762 46.2452 78.6223 46.765 79.2246 47.3061C89.0901 56.0642 97.7583 65.5557 105.229 75.7805Z" fill="#1113C8"/>
<path d="M206.239 41.9311C208.082 41.7738 209.532 41.8882 210.59 42.2741C211.661 42.6744 212.283 43.4392 212.454 44.5685C214.583 58.8775 214.155 72.5433 211.168 85.5659C210.282 89.4255 209.911 93.1564 210.054 96.7587C210.247 102.055 210.011 109.452 205.531 113.098C201.18 116.614 198.823 123.519 197.044 128.708C195.772 132.667 195.022 136.834 194.793 141.208C194.708 143.224 193.529 145.025 192.822 146.848C191.493 150.386 192.843 156.046 193.079 159.863C193.55 168.032 191.107 177.574 189.671 185.637C189.957 186.208 189.378 186.53 187.935 186.601C185.491 179.633 188.363 170.477 190.335 163.615C191.035 161.2 190 157.097 187.228 151.308C185.834 146.204 184.013 141.423 183.348 136.105C182.405 128.579 172.246 118.887 164.016 124.226C160.172 126.728 160.522 127.635 165.066 126.949C167.109 126.649 169.202 126.756 171.346 127.271C180.548 129.501 183.727 135.305 180.883 144.682C180.012 145.997 178.204 147.905 175.461 150.407C173.56 152.151 173.539 155.246 175.396 159.691C172.524 163.701 169.459 165.031 165.344 167.239C163.844 168.04 162.472 167.897 161.229 166.81C157.971 163.994 154.464 161.457 150.706 159.198C149.891 158.455 149.341 158.191 149.055 158.405C148.927 156.933 149.034 155.718 149.377 154.76C149.677 153.859 149.455 153.116 148.712 152.53L143.654 148.584C142.583 147.745 141.838 146.559 141.548 145.232C141.258 143.904 141.442 142.519 142.068 141.316C143.676 138.185 142.711 132.138 142.883 128.75C142.911 128.007 143.29 127.6 144.018 127.528C145.99 127.342 146.983 126.642 146.998 125.427C150.984 123.84 155.357 122.704 158.486 119.723C160.743 117.593 163.044 115.435 165.387 113.248C167.145 111.632 166.923 110.353 164.723 109.41L157.028 106.086C154.999 105.214 153.12 105.457 151.391 106.815C148.962 108.745 146.826 111.182 144.983 114.127C144.011 110.796 144.09 107.809 145.219 105.164C145.304 104.978 146.74 102.562 149.527 97.9166C150.998 95.4865 152.756 93.1135 154.799 90.7978L167.509 92.1272C168.309 92.213 168.681 91.8556 168.624 91.0551C168.566 90.5119 168.188 90.1259 167.488 89.8972C161.686 87.9674 157.271 85.9376 154.242 83.8076C161.472 73.2009 168.152 65.5318 174.282 60.8002C179.512 56.7548 184.67 52.6164 189.757 48.3852C192.371 46.2124 197.865 44.061 206.239 41.9311ZM181.869 89.4255C182.655 91.1837 183.784 92.6847 185.256 93.9283C187.47 95.7867 188.814 97.0803 189.285 97.8094C190.5 99.6677 191.45 101.655 192.136 103.77C192.321 104.356 192.636 104.821 193.079 105.164C193.665 105.593 194.286 105.65 194.943 105.336C195.701 104.964 196.101 104.356 196.144 103.513L196.508 95.6866C196.536 95.1956 196.699 94.7209 196.98 94.3143C199.351 90.8407 200.759 87.1812 201.202 83.3359C201.488 80.8915 202.531 78.9331 204.331 77.4608C204.803 77.0605 205.124 76.5602 205.296 75.9598C205.739 74.3302 206.274 72.7363 206.903 71.1782C207.56 69.5486 207.696 67.8761 207.31 66.1607C206.739 63.6163 206.367 61.129 206.196 58.6988C206.139 57.8555 205.76 57.205 205.06 56.7476C201.802 54.632 198.959 54.9965 196.529 57.8412C196.001 58.4701 195.415 59.0419 194.772 59.5565C193.972 60.2284 193.086 60.5429 192.114 60.5C190.142 60.4285 188.085 60.3928 185.942 60.3928C185.199 60.3928 184.548 60.6286 183.991 61.1004C182.219 62.587 180.24 63.6663 178.054 64.3381C177.757 64.4263 177.48 64.5743 177.24 64.7733C177.001 64.9723 176.804 65.2182 176.661 65.496C175.389 67.969 173.753 70.2705 171.753 72.4004C169.681 74.6018 169.459 76.9104 171.088 79.3262C172.76 81.7921 175.568 82.1995 178.076 83.4431C178.374 83.5886 178.634 83.8021 178.835 84.0665C179.036 84.3309 179.173 84.6389 179.233 84.9655C179.433 86.152 179.947 87.1383 180.776 87.9245C181.233 88.3534 181.598 88.8537 181.869 89.4255ZM154.113 135.569C150.484 138.757 149.67 142.388 151.67 146.462C152.027 147.191 152.713 147.427 153.728 147.169C153.142 147.541 152.82 147.82 152.763 148.006C152.63 148.452 152.671 148.933 152.878 149.35C153.085 149.768 153.442 150.092 153.878 150.257C160.329 152.658 172.31 153.559 174.282 144.768C176.34 135.612 170.403 126.52 160.672 130.187C157.814 131.259 155.628 133.053 154.113 135.569Z" fill="#1D24E6"/>
<path d="M50.4043 54.8996C51.1429 52.7218 52.407 50.6085 54.1967 48.5597C56.4267 48.2015 58.3229 48.66 59.8853 49.9351C62.5556 52.0986 63.8979 53.1803 63.9121 53.1803C65.5029 53.8823 67.2926 54.1975 69.2811 54.1259C69.9487 54.1116 70.4955 54.3623 70.9216 54.8781C72.3562 56.5974 74.153 57.4355 76.312 57.3925C76.9653 57.3782 77.5051 57.6146 77.9312 58.1017C78.755 59.0617 79.8274 59.5488 81.1484 59.5631C81.5193 59.5696 81.8824 59.6717 82.2032 59.8598C82.5239 60.0479 82.7916 60.3157 82.9806 60.6377C83.5488 61.5976 84.3797 61.963 85.4734 61.7337C86.2262 61.5761 86.8441 61.791 87.327 62.3784L94.8479 71.5981C95.0601 71.8516 95.2125 72.1497 95.2937 72.4699C95.3749 72.7901 95.3827 73.1239 95.3166 73.4463L93.6548 82.0427C93.5834 82.4159 93.4069 82.7604 93.1465 83.035C92.8861 83.3096 92.5527 83.5027 92.1863 83.5911C91.8198 83.6796 91.4359 83.6596 91.0804 83.5336C90.725 83.4077 90.413 83.181 90.182 82.8809C89.5002 82.0212 88.7616 81.2476 87.9662 80.5598C87.2986 79.9867 86.56 79.8148 85.7504 80.0441C85.1254 80.2303 84.6425 80.61 84.3016 81.1831C83.8613 81.9281 83.7192 82.7304 83.8755 83.5901C84.3158 85.9254 83.3997 87.4728 81.1271 88.2321C80.4169 88.4757 79.941 88.9557 79.6996 89.672C79.4865 90.2451 79.0817 90.546 78.4852 90.5747C75.6586 90.6606 74.0678 92.3584 73.7127 95.668C73.4428 98.118 72.6048 100.16 71.1986 101.793C71.0601 101.957 70.876 102.075 70.6701 102.132C70.4643 102.189 70.2461 102.183 70.044 102.113C69.8419 102.044 69.6652 101.915 69.5367 101.742C69.4083 101.57 69.3341 101.363 69.3237 101.148C69.0538 96.4202 67.8465 92.1865 65.7018 88.447C63.9973 85.4383 63.3865 81.9997 63.8695 78.1314C63.9831 77.2717 63.6919 76.5768 62.9959 76.0467C59.9563 73.7257 58.7348 70.8029 59.3314 67.2784C59.445 66.6623 59.1964 66.2612 58.5857 66.0749C57.5772 65.7884 56.8457 65.1508 56.3912 64.1622C55.9651 63.2166 55.2975 62.5145 54.3885 62.0561C52.0022 60.8239 50.6742 58.4384 50.4043 54.8996Z" fill="#0B0A90"/>
<path d="M180.935 87.7449C180.087 86.954 179.56 85.9618 179.356 84.7683C179.294 84.4397 179.155 84.1299 178.949 83.8639C178.743 83.5979 178.477 83.3831 178.172 83.2368C175.606 81.9858 172.734 81.5759 171.023 79.0954C169.357 76.6652 169.583 74.3429 171.703 72.1284C173.75 69.9858 175.423 67.6707 176.724 65.183C176.871 64.9035 177.072 64.6561 177.317 64.4559C177.562 64.2558 177.845 64.1069 178.15 64.0182C180.386 63.3424 182.411 62.2567 184.224 60.7612C184.794 60.2867 185.459 60.0494 186.219 60.0494C188.412 60.0494 190.517 60.0854 192.535 60.1573C193.529 60.2004 194.435 59.884 195.254 59.2082C195.911 58.6905 196.511 58.1153 197.052 57.4826C199.537 54.621 202.446 54.2544 205.779 56.3826C206.495 56.8427 206.883 57.497 206.941 58.3454C207.117 60.79 207.497 63.292 208.082 65.8516C208.476 67.5772 208.337 69.2597 207.665 70.899C207.022 72.4663 206.473 74.0697 206.02 75.709C205.845 76.3129 205.516 76.8162 205.034 77.2189C203.192 78.7 202.124 80.67 201.832 83.129C201.379 86.9971 199.939 90.6783 197.512 94.1726C197.226 94.5817 197.059 95.0592 197.03 95.5531L196.657 103.426C196.613 104.274 196.204 104.886 195.429 105.259C194.757 105.576 194.121 105.518 193.521 105.087C193.068 104.742 192.747 104.274 192.556 103.685C191.855 101.557 190.883 99.5579 189.64 97.6885C189.158 96.9551 187.783 95.6538 185.518 93.7844C184.012 92.5333 182.857 91.0235 182.053 89.2548C181.775 88.6796 181.402 88.1763 180.935 87.7449Z" fill="#0B0A90"/>
<path d="M48.7245 65.6137L53.2805 93.2891C52.7386 98.0302 53.4587 102.414 55.4409 106.441C57.0451 109.719 61.3017 111.432 62.4354 113.789C64.7312 118.53 65.8364 123.035 65.7508 127.305L-3.55238 127.262C-4.08 127.548 -4.35807 127.355 -4.38659 126.684C-4.89995 104.235 0.347701 82.6716 11.3564 61.9936C13.1959 62.6076 16.44 63.1431 21.0887 63.6001C30.2864 64.4855 38.5072 62.4577 45.7513 57.5166C45.9989 57.3442 46.2882 57.2413 46.5889 57.2186C46.8897 57.196 47.1911 57.2543 47.4617 57.3877C47.7324 57.521 47.9625 57.7244 48.1281 57.9769C48.2937 58.2294 48.3888 58.5216 48.4036 58.8233L48.7245 65.6137Z" fill="#F5F7FF"/>
<path d="M105.774 75.8545C106.442 77.8413 107.501 79.3993 108.951 80.5285C110.145 81.4718 111.844 81.822 114.048 81.5791C126.403 80.2355 138.814 79.1277 151.282 78.2558C145.297 79.5565 139.333 80.6857 133.39 81.6434C133.319 81.6577 128.542 82.0222 119.059 82.7368C112.69 83.2228 106.783 84.9809 101.338 88.0111L95.2602 90.6483C93.9948 91.1343 93.3409 91.8418 93.2982 92.7709C93.2819 93.0847 93.3786 93.3939 93.5705 93.6419C93.7623 93.8899 94.0366 94.0602 94.3432 94.1216C98.9068 95.0507 102.468 97.2019 105.027 100.575C108.681 105.363 109.797 110.338 108.375 115.498C105.29 111.067 102.34 108.651 99.5253 108.251C98.8997 108.165 98.3524 108.337 97.8832 108.765L91.1443 114.962C90.9105 115.175 90.7211 115.432 90.5869 115.72C90.4528 116.007 90.3765 116.318 90.3626 116.635C90.3488 116.952 90.3975 117.268 90.5061 117.566C90.6146 117.864 90.7808 118.138 90.9951 118.371C95.4734 123.259 100.954 126.511 107.437 128.126L111.297 131.106C111.894 131.578 112.242 132.192 112.342 132.95C112.74 136.423 113.287 139.675 113.984 142.705C114.425 144.592 114.354 146.65 113.771 148.88C113.302 150.681 112.484 152.268 111.318 153.64C109.825 155.412 108.382 157.177 106.989 158.936C105.88 160.351 104.387 161.537 102.511 162.495C99.7243 163.938 97.4922 166.154 95.8146 169.141C95.63 169.469 95.3576 169.738 95.0292 169.917C94.7008 170.095 94.3298 170.176 93.9593 170.149L89.289 169.806C86.7442 167.733 84.3628 165.468 82.145 163.009C80.3963 161.08 78.9675 158.335 77.8585 154.776C76.8633 151.574 75.5767 148.473 73.9986 145.471C72.9324 141.698 77.432 137.838 79.7778 135.115C83.1046 131.256 87.7323 131.664 92.2319 132.157C92.44 132.177 92.6501 132.138 92.8377 132.045C93.0254 131.952 93.183 131.808 93.2924 131.631C93.4017 131.454 93.4583 131.25 93.4555 131.043C93.4528 130.837 93.3908 130.635 93.2769 130.463C90.8031 126.668 86.3461 125.789 82.3369 127.783C77.5173 130.184 74.6313 134.579 73.6787 140.969C73.5934 140.64 73.4939 140.397 73.3802 140.24C73.238 140.054 73.0532 139.961 72.8257 139.961C72.2428 139.947 71.7452 140.104 71.3329 140.433C70.9349 140.747 70.7216 141.162 70.6932 141.676L70.4373 146.672L70.5439 136.037C70.5581 135.323 70.3875 134.651 70.0321 134.022L66.3001 127.568C66.3854 123.295 65.2836 118.785 62.9947 114.04C61.8644 111.681 57.6206 109.966 56.0212 106.686C54.0451 102.655 53.3271 98.2667 53.8673 93.5213L55.3388 92.8566C55.9643 92.5565 56.4264 92.728 56.725 93.3712C58.0187 96.187 59.8811 99.0672 62.3122 102.012C63.1795 103.069 64.2529 103.427 65.5324 103.084C65.8375 103 66.16 102.999 66.4671 103.082C66.7743 103.165 67.0551 103.328 67.2811 103.555L68.9018 105.185C69.3425 105.614 69.8544 105.742 70.4373 105.571C73.7072 104.556 75.136 102.49 74.7237 99.3745C74.5609 98.1189 74.8438 96.8458 75.5225 95.7791C76.2012 94.7125 77.2322 93.9206 78.4343 93.5427C81.8322 92.4707 84.7182 90.6269 87.0925 88.0111C87.5759 87.4823 88.173 87.1464 88.8838 87.0034C90.6894 86.6604 92.5234 86.5246 94.3858 86.5961C94.8123 86.6104 95.118 86.4317 95.3028 86.0601C95.5729 85.5455 95.9852 85.2239 96.5397 85.0953C98.9708 84.5092 101.061 83.3372 102.809 81.5791C103.307 81.0788 103.627 80.4785 103.769 79.7781C104.053 78.4059 104.722 77.098 105.774 75.8545ZM103.598 148.944C105.077 146.314 104.572 143.391 102.084 140.175C102.454 138.56 101.836 137.552 100.229 137.152C99.5039 136.981 98.9281 136.581 98.5016 135.952C94.1299 129.777 87.1991 135.137 84.3628 139.211C75.9606 151.239 92.7011 163.738 102.959 152.761C105.376 150.159 105.589 148.887 103.598 148.944Z" fill="#1D24E6"/>
<path d="M151.501 78.0479L152.646 80.8398C152.785 81.1742 152.847 81.5362 152.826 81.8979C152.805 82.2596 152.702 82.6111 152.524 82.9251C152.347 83.2391 152.1 83.5072 151.802 83.7086C151.505 83.91 151.166 84.0392 150.81 84.0862L143.102 85.1251C142.296 85.2405 141.663 85.6301 141.202 86.2938C140.468 87.3471 139.511 88.2056 138.331 88.8693C137.712 89.2156 137.251 89.7062 136.949 90.341C131.983 100.556 131.983 108.456 132.393 121.139C131.832 121.961 131.71 122.863 132.026 123.844L131.897 148.56C131.882 150.624 132.904 151.764 134.963 151.98C139.482 152.442 144.132 154.693 148.91 158.733C149.198 158.516 149.752 158.783 150.573 159.533C150.947 161.553 152.106 162.809 154.049 163.299C154.149 163.327 154.242 163.376 154.321 163.444C154.401 163.512 154.464 163.596 154.507 163.691C154.55 163.786 154.572 163.889 154.572 163.993C154.571 164.098 154.547 164.201 154.502 164.295L154.178 165.009C153.79 165.817 153.157 166.113 152.278 165.896C148.565 165.009 145.089 163.061 141.181 163.256C135.898 163.516 130.608 163.775 125.312 164.035C124.419 164.078 123.606 164.345 122.872 164.836C121.519 165.745 120.087 166.3 118.575 166.502C112.717 167.253 107.535 169.662 103.03 173.731C102.224 174.467 101.31 174.662 100.288 174.315C98.8196 173.825 97.4162 173.89 96.0776 174.51C95.9577 174.552 95.8269 174.55 95.7083 174.505C95.5896 174.46 95.4907 174.374 95.4288 174.263C95.3669 174.152 95.3461 174.022 95.37 173.897C95.3939 173.772 95.4609 173.66 95.5594 173.58C97.6321 172.223 99.3378 170.6 100.676 168.71C100.734 168.623 100.727 168.544 100.655 168.472C100.583 168.414 100.518 168.414 100.461 168.472C100.389 168.515 100.331 168.566 100.288 168.623C100.029 168.984 99.7624 169.28 99.4889 169.511C99.3306 168.905 99.5249 168.356 100.072 167.866C105.772 162.672 111.436 158.076 117.064 154.079C118.244 153.228 119.54 152.716 120.95 152.543C121.174 152.514 121.391 152.44 121.586 152.325C121.781 152.211 121.951 152.058 122.086 151.876C122.221 151.695 122.318 151.488 122.371 151.267C122.425 151.047 122.433 150.818 122.397 150.595L120.454 138.778C119.201 128.303 117.978 117.957 116.783 107.742C116.754 107.554 116.668 107.417 116.524 107.331C116.351 107.23 116.164 107.179 115.963 107.179C115.689 107.165 115.545 107.028 115.531 106.768C115.329 104.618 114.66 102.706 113.523 101.033C113.134 100.455 112.911 99.8206 112.854 99.128C112.292 91.9642 106.808 91.2717 101.087 91.2067C100.281 91.1923 99.9351 90.7883 100.05 89.9947C100.151 89.432 100.446 88.7322 100.936 87.8954C106.448 84.8365 112.429 83.0618 118.877 82.5712C128.478 81.8498 133.315 81.4819 133.387 81.4674C139.403 80.5007 145.441 79.3609 151.501 78.0479Z" fill="#EAF8FB"/>
<path d="M154.565 83.5303C157.568 85.6691 161.944 87.7075 167.695 89.6454C168.389 89.8751 168.764 90.2627 168.821 90.8081C168.877 91.612 168.509 91.9709 167.716 91.8848L155.118 90.5498C149.693 87.7075 145.359 88.7985 142.116 93.8226C138.688 99.1339 136.528 104.438 135.636 109.735C134.913 114.041 134.411 118.57 134.127 123.322C134.099 123.767 133.872 124.025 133.448 124.097C133.193 124.126 132.98 124.004 132.81 123.731C132.499 122.755 132.619 121.858 133.171 121.039C133.101 116.561 133.278 112.103 133.702 107.668C134.014 104.438 134.793 101.438 136.039 98.6674C137.399 95.6242 139.056 92.947 141.011 90.6359C143.362 87.8798 145.77 86.272 148.234 85.8127C151.52 85.1954 153.63 84.4346 154.565 83.5303Z" fill="#68E5F6"/>
<path d="M101.405 87.916C100.925 88.7456 100.635 89.4393 100.536 89.9971C100.423 90.7838 100.762 91.1842 101.554 91.1985C107.175 91.2629 112.562 91.9494 113.114 99.0508C113.17 99.7374 113.39 100.367 113.771 100.939C114.888 102.598 115.546 104.493 115.744 106.624C115.758 106.882 115.899 107.018 116.168 107.032C116.366 107.032 116.55 107.082 116.72 107.182C116.861 107.268 116.946 107.404 116.974 107.59C118.148 117.716 119.35 127.971 120.58 138.355C118.572 129.087 116.861 119.883 115.447 110.743C113.736 99.6444 107.458 93.5156 96.6118 92.3571C96.0037 92.2999 95.6432 91.9709 95.53 91.3702L95.3604 90.5549L101.405 87.916Z" fill="#68E5F6"/>
<path d="M154.572 90.5453C152.592 92.859 150.889 95.2298 149.463 97.6578C146.763 102.299 145.372 104.713 145.289 104.899C144.195 107.541 144.119 110.526 145.06 113.854L141.405 122.316C141.215 122.761 141.15 123.253 141.218 123.735C141.285 124.217 141.484 124.669 141.789 125.041C142.095 125.412 142.495 125.687 142.945 125.834C143.396 125.981 143.877 125.994 144.334 125.872L147.013 125.144C146.999 126.358 146.036 127.057 144.126 127.243C143.42 127.315 143.053 127.722 143.025 128.464C142.859 131.849 143.794 137.89 142.236 141.018C141.63 142.22 141.451 143.605 141.732 144.931C142.013 146.257 142.735 147.442 143.773 148.281L148.674 152.223C149.394 152.808 149.608 153.551 149.318 154.451C148.985 155.407 148.882 156.621 149.006 158.092C144.41 154.094 139.938 151.865 135.591 151.408C133.611 151.194 132.628 150.066 132.642 148.024L132.766 123.558C132.932 123.83 133.14 123.951 133.389 123.923C133.805 123.851 134.026 123.594 134.054 123.151C134.331 118.424 134.822 113.918 135.528 109.633C136.401 104.363 138.512 99.086 141.862 93.8016C145.033 88.8029 149.269 87.7175 154.572 90.5453Z" fill="#0CA3F0"/>
<path d="M94.8822 90.1094L95.0565 90.9354C95.1727 91.544 95.5431 91.8773 96.1677 91.9353C107.309 93.1091 113.759 99.3187 115.516 110.564C116.969 119.824 118.727 129.149 120.789 138.54L122.75 150.408C122.787 150.633 122.779 150.862 122.725 151.083C122.671 151.305 122.573 151.513 122.437 151.695C122.3 151.878 122.129 152.031 121.932 152.146C121.735 152.261 121.517 152.335 121.291 152.364C119.867 152.538 118.56 153.053 117.369 153.908C111.689 157.922 105.973 162.537 100.221 167.754C99.6685 168.247 99.4724 168.798 99.6322 169.406C95.2308 174.449 91.6138 174.768 88.7812 170.363L93.5531 170.71C93.9316 170.738 94.3107 170.656 94.6462 170.475C94.9818 170.294 95.2601 170.022 95.4487 169.689C97.1628 166.66 99.4434 164.414 102.29 162.95C104.208 161.979 105.733 160.777 106.866 159.342C108.29 157.56 109.764 155.77 111.289 153.973C112.481 152.582 113.316 150.973 113.795 149.147C114.391 146.887 114.463 144.8 114.013 142.887C113.301 139.815 112.742 136.518 112.335 132.997C112.234 132.229 111.878 131.605 111.268 131.127L107.324 128.106C108.442 128.41 109.052 128.541 109.154 128.497C109.943 128.133 110.571 127.491 110.92 126.69C111.269 125.89 111.315 124.987 111.05 124.15L108.282 115.303C109.735 110.071 108.595 105.028 104.862 100.174C102.247 96.7537 98.6081 94.5727 93.9453 93.6308C93.6321 93.5685 93.3518 93.3959 93.1558 93.1444C92.9597 92.893 92.861 92.5795 92.8776 92.2613C92.9212 91.3194 93.5894 90.6021 94.8822 90.1094Z" fill="#1AB7F8"/>
<path d="M147.34 125.476L144.613 126.211C144.148 126.334 143.658 126.32 143.2 126.172C142.742 126.024 142.334 125.746 142.022 125.372C141.711 124.997 141.51 124.541 141.441 124.054C141.372 123.568 141.438 123.072 141.632 122.622L145.353 114.083C147.171 111.114 149.278 108.657 151.674 106.711C153.379 105.342 155.233 105.097 157.234 105.976L164.824 109.327C166.994 110.278 167.213 111.568 165.479 113.197C163.168 115.402 160.898 117.578 158.672 119.725C155.585 122.73 151.272 123.876 147.34 125.476Z" fill="#B2A3F5"/>
<path d="M108.791 115.116L111.634 124.076C111.907 124.924 111.859 125.838 111.501 126.649C111.142 127.459 110.497 128.11 109.686 128.479C109.582 128.523 108.955 128.391 107.806 128.082C101 126.424 95.2465 123.085 90.5452 118.066C90.3203 117.827 90.1458 117.546 90.0319 117.24C89.9179 116.934 89.8668 116.609 89.8813 116.284C89.8959 115.958 89.9759 115.639 90.1168 115.344C90.2576 115.049 90.4565 114.785 90.7019 114.566L97.7763 108.204C98.2688 107.763 98.8434 107.587 99.5001 107.675C102.455 108.086 105.552 110.567 108.791 115.116Z" fill="#C6C0F7"/>
<path d="M187.467 151.695C187.267 154.246 186.337 156.037 184.679 157.069C184.135 157.398 183.728 157.857 183.456 158.445L178.651 168.376C178.404 168.888 177.977 169.292 177.45 169.515C175.906 170.146 175.313 171.278 175.67 172.911C175.694 173.03 175.752 173.139 175.836 173.224C175.92 173.308 176.027 173.364 176.142 173.384C177.672 173.614 178.716 174.473 179.273 175.964C180.003 177.941 179.509 179.539 177.794 180.757C174.891 182.821 171.473 184.44 167.541 185.615C166.783 185.845 166.075 185.737 165.418 185.293C164.56 184.705 163.838 184.01 163.251 183.208C162.665 182.377 162.279 182.463 162.093 183.466C161.922 184.412 161.993 185.329 162.308 186.217C164.624 193.067 165.339 200.713 164.453 209.153C163.781 215.617 161.149 219.873 156.56 221.922C155.53 222.381 155.551 222.789 156.624 223.147C158.44 223.763 160.163 223.656 161.793 222.825C162.479 222.481 162.944 221.944 163.187 221.213C164.074 218.433 165.868 216.584 168.571 215.667C169.071 215.495 169.493 215.208 169.836 214.807C170.008 214.621 170.136 214.406 170.222 214.162C170.355 213.786 170.617 213.47 170.959 213.272C171.302 213.075 171.703 213.009 172.088 213.087C172.932 213.259 173.704 213.603 174.405 214.119C174.919 214.535 175.155 215.072 175.112 215.731C174.541 222.409 174.626 229.302 175.37 236.41C175.713 239.706 174.941 242.343 173.053 244.321C168.099 249.523 160.956 245.89 156.238 252.21C155.809 252.769 155.258 253.17 154.586 253.414C152.484 254.187 150.368 254.761 148.237 255.133C144.913 255.692 142.296 257.885 139.851 260.142C138.15 261.159 136.62 261.417 135.261 260.916C130.285 259.11 125.009 255.671 119.346 253.757C112.74 251.536 106.213 249.064 99.7638 246.341C97.7906 245.503 95.6672 245.503 93.6081 245.482C92.7254 245.482 91.8676 245.188 91.169 244.648C90.4704 244.107 89.9704 243.35 89.7474 242.494C88.2889 236.862 87.7956 230.993 88.2674 224.888C88.3246 224.172 88.5748 223.534 89.0181 222.975C89.5186 222.33 90.0834 221.793 90.7126 221.363C91.2988 220.948 91.5776 220.389 91.549 219.686C91.3346 215.28 92.8145 211.411 92.5786 206.982C92.3212 202.397 92.8288 197.703 94.1014 192.903C94.1867 192.586 94.2045 192.254 94.1538 191.93C94.1031 191.605 93.9849 191.295 93.8069 191.02C93.629 190.744 93.3952 190.509 93.1208 190.33C92.8464 190.151 92.5374 190.031 92.214 189.979C88.01 189.306 84.1779 187.371 80.7175 184.175C80.1313 183.631 79.831 182.957 79.8167 182.155L79.6451 170.998C79.6308 170.153 79.3091 169.436 78.6799 168.849C74.4045 164.807 71.9237 160.781 71.2373 156.768L73.232 146.428C73.3893 146.744 73.6824 146.622 74.1114 146.063C75.6986 149.072 76.9927 152.182 77.9936 155.392C79.1089 158.961 80.546 161.712 82.3047 163.647C84.5354 166.111 86.9305 168.383 89.49 170.461C92.2783 174.817 95.8387 174.502 100.171 169.515C100.443 169.286 100.708 168.992 100.965 168.634C101.008 168.576 101.065 168.526 101.137 168.483C101.194 168.426 101.258 168.426 101.33 168.483C101.401 168.555 101.408 168.634 101.351 168.72C100.021 170.597 98.3268 172.209 96.2677 173.556C96.1699 173.636 96.1033 173.748 96.0796 173.872C96.0558 173.996 96.0765 174.125 96.138 174.235C96.1994 174.345 96.2977 174.43 96.4156 174.475C96.5335 174.52 96.6634 174.522 96.7825 174.481C98.1123 173.864 99.5064 173.8 100.965 174.287C101.98 174.631 102.888 174.438 103.689 173.707C108.164 169.665 113.312 167.272 119.132 166.527C120.633 166.326 122.056 165.775 123.4 164.872C124.129 164.385 124.937 164.12 125.824 164.077C131.086 163.819 136.341 163.561 141.588 163.303C145.471 163.109 148.924 165.044 152.613 165.925C153.485 166.14 154.114 165.846 154.5 165.044L154.822 164.334C154.867 164.241 154.89 164.139 154.891 164.035C154.892 163.932 154.87 163.829 154.827 163.735C154.784 163.641 154.721 163.557 154.642 163.49C154.564 163.422 154.471 163.373 154.372 163.346C152.441 162.858 151.29 161.612 150.919 159.605C154.679 161.87 158.19 164.413 161.45 167.236C162.694 168.326 164.066 168.469 165.568 167.666C169.686 165.452 172.753 164.12 175.627 160.1C182.605 155.385 184.435 150.369 181.118 145.053C183.964 135.652 180.782 129.834 171.573 127.598C169.429 127.082 167.334 126.975 165.289 127.276C160.742 127.963 160.392 127.053 164.238 124.546C172.474 119.193 182.641 128.909 183.585 136.454C184.25 141.785 186.073 146.579 187.467 151.695ZM138.049 224.996C141.338 224.222 144.291 223.004 146.908 221.342C149.717 219.557 148.688 216.333 149.117 213.603C150.518 204.661 151.011 196.5 150.597 189.119C150.225 182.37 147.737 177.705 143.133 175.125C129.406 167.408 103.26 172.309 104.375 192.387C104.604 196.586 104.997 201.057 105.555 205.8C106.155 210.959 107.149 215.953 108.536 220.783C109.18 223.018 110.152 224.444 111.453 225.06C116.15 227.253 123.893 227.017 128.848 226.544C131.679 226.271 134.746 225.755 138.049 224.996Z" fill="#E1B6E0"/>
<path d="M73.3146 145.483C72.8794 146.054 72.582 146.179 72.4224 145.857C72.2048 143.733 72.3934 142.07 72.9882 140.869C73.9601 134.321 76.9051 129.817 81.823 127.356C85.914 125.312 90.4619 126.213 92.9862 130.102C93.1025 130.279 93.1657 130.485 93.1685 130.697C93.1712 130.909 93.1135 131.118 93.002 131.299C92.8904 131.481 92.7296 131.628 92.5381 131.723C92.3466 131.819 92.1322 131.859 91.9199 131.838C87.3284 131.333 82.6064 130.915 79.2117 134.87C76.818 137.661 72.2265 141.616 73.3146 145.483Z" fill="#B2A3F5"/>
<path d="M-4.27513 127.391L66.327 127.434L70.1404 133.893C70.5035 134.522 70.6779 135.194 70.6633 135.91L70.5544 146.553L68.3317 165.845C68.0871 167.899 68.2575 169.977 68.8329 171.96L73.4308 187.883C73.2419 197.039 72.9659 206.073 72.6027 214.985C72.6027 215.057 72.1161 220.636 71.1427 231.723C70.6198 237.66 70.6125 243.819 71.1209 250.199C54.7198 241.744 41.115 231.652 30.3068 219.921C7.16502 194.8 -4.77632 164.85 -5.51721 130.073C-5.53174 129.529 -5.11771 128.635 -4.27513 127.391Z" fill="#2A64F6"/>
<path d="M197.086 128.487C204.511 129.617 209.245 130.239 211.289 130.354C221.103 130.94 233.572 131.133 248.696 130.933C250.265 130.919 252.258 131.226 254.676 131.856C258.906 132.986 260.935 131.977 260.763 128.83C261.684 145.738 258.87 162.281 252.323 178.46C240.695 207.212 221.304 229.663 194.15 245.813C195.359 239.304 196.093 232.996 196.352 226.888C196.567 221.717 194.064 217.661 193.718 213.563C192.653 201.333 191.301 191.963 189.66 185.455C191.106 177.387 193.567 167.839 193.092 159.664C192.855 155.844 191.495 150.18 192.833 146.639C193.546 144.815 194.733 143.013 194.819 140.996C195.049 136.619 195.805 132.449 197.086 128.487Z" fill="#7E9EF9"/>
<path d="M153.417 146.915C158.052 144.641 159.548 137.736 153.801 135.63C155.311 133.182 157.49 131.437 160.338 130.394C170.037 126.826 175.955 135.671 173.904 144.579C171.938 153.132 159.996 152.255 153.566 149.919C153.132 149.759 152.776 149.444 152.57 149.037C152.364 148.631 152.323 148.163 152.455 147.729C152.512 147.548 152.833 147.277 153.417 146.915Z" fill="#010100"/>
<path d="M102.346 139.985C100.772 138.842 99.4259 138.835 98.3092 139.963C97.5648 140.701 97.1926 141.756 97.1926 143.13C97.1926 147.208 99.4187 149.117 103.871 148.857C105.875 148.799 105.661 150.086 103.227 152.718C92.8977 163.824 76.0405 151.178 84.5013 139.009C87.3574 134.887 94.3365 129.464 98.7387 135.711C99.1682 136.348 99.748 136.753 100.478 136.926C102.096 137.331 102.719 138.351 102.346 139.985Z" fill="#010100"/>
<path d="M153.899 135.066C159.999 137.298 158.412 144.614 153.491 147.024C152.417 147.289 151.692 147.046 151.314 146.294C149.197 142.095 150.059 138.352 153.899 135.066Z" fill="#F5F7FF"/>
<path d="M101.725 140.324C104.285 143.615 104.804 146.606 103.283 149.297C98.7329 149.56 96.458 147.63 96.458 143.505C96.458 142.116 96.8384 141.048 97.5991 140.302C98.7403 139.162 100.115 139.169 101.725 140.324Z" fill="#F5F7FF"/>
<path d="M73.4308 141.539C72.8521 142.69 72.6686 144.283 72.8803 146.319L70.9115 156.448C69.232 162.527 68.7804 166.83 69.5566 169.357C71.5325 175.758 72.6828 181.872 73.0074 187.698L68.5404 172.073C67.9814 170.127 67.8159 168.087 68.0535 166.072L70.2129 147.14L70.4669 142.234C70.4952 141.728 70.7069 141.321 71.102 141.012C71.5113 140.69 72.0053 140.535 72.584 140.549C72.8098 140.549 72.9933 140.64 73.1344 140.823C73.2473 140.977 73.3461 141.216 73.4308 141.539Z" fill="#0B0A90"/>
<path d="M181.421 144.935C184.855 149.971 182.96 154.723 175.736 159.189C173.811 154.967 173.833 152.028 175.802 150.372C178.645 147.996 180.517 146.184 181.421 144.935Z" fill="#2A64F6"/>
<path d="M187.285 151.514C190.081 157.329 191.126 161.449 190.42 163.876C188.431 170.767 185.534 179.963 187.999 186.963C188.027 188.399 188.525 190.488 189.49 193.23C191.004 197.537 187.588 203.223 191.263 206.841C191.426 207.005 191.554 207.199 191.641 207.412C191.728 207.625 191.772 207.854 191.77 208.084C191.768 208.314 191.72 208.542 191.629 208.753C191.539 208.965 191.407 209.157 191.241 209.318C190.65 209.892 190.759 210.38 191.566 210.782C191.986 210.989 192.339 211.31 192.584 211.706C192.829 212.102 192.955 212.559 192.949 213.022C192.791 220.33 192.366 227.681 191.674 235.075C191.285 239.325 190.254 243.353 188.582 247.157C188.294 247.818 188.208 248.507 188.323 249.225L188.69 251.357L184.972 254.501C184.41 252.951 184.41 251.896 184.972 251.336C185.421 250.88 185.746 250.319 185.917 249.703C186.087 249.088 186.097 248.438 185.946 247.816C185.795 247.194 185.487 246.62 185.052 246.147C184.617 245.674 184.069 245.317 183.459 245.112C182.118 244.666 181.16 245.126 180.583 246.49C180.295 247.179 179.82 247.696 179.157 248.04C176.577 249.376 173.954 249.663 171.287 248.902C170.912 248.804 170.513 248.843 170.163 249.01L155.549 256.009C155.421 256.08 155.31 256.175 155.225 256.289C154.209 257.71 153.452 258.787 151.723 259.455C148.552 260.675 145.417 261.565 142.318 262.125C139.94 262.57 138.932 261.917 139.292 260.166C141.756 257.904 144.394 255.707 147.745 255.148C149.892 254.774 152.025 254.2 154.144 253.425C154.821 253.181 155.376 252.779 155.808 252.219C160.565 245.887 167.764 249.526 172.757 244.315C174.66 242.333 175.438 239.691 175.092 236.389C174.343 229.268 174.256 222.362 174.833 215.671C174.876 215.011 174.638 214.472 174.119 214.056C173.413 213.539 172.635 213.194 171.785 213.022C171.396 212.944 170.992 213.01 170.647 213.208C170.301 213.406 170.037 213.722 169.904 214.099C169.817 214.343 169.688 214.558 169.515 214.745C169.169 215.147 168.744 215.434 168.239 215.606C165.515 216.525 163.706 218.377 162.813 221.163C162.568 221.895 162.099 222.434 161.408 222.778C159.765 223.611 158.028 223.719 156.198 223.101C155.117 222.742 155.095 222.333 156.133 221.874C160.759 219.82 163.411 215.556 164.088 209.081C164.982 200.624 164.261 192.964 161.927 186.101C161.609 185.211 161.537 184.292 161.71 183.345C161.898 182.34 162.287 182.253 162.878 183.086C163.469 183.89 164.196 184.587 165.061 185.175C165.724 185.62 166.438 185.728 167.201 185.498C171.165 184.321 174.609 182.699 177.535 180.631C179.265 179.411 179.762 177.81 179.027 175.828C178.465 174.335 177.413 173.474 175.871 173.244C175.754 173.224 175.647 173.168 175.562 173.083C175.477 172.999 175.419 172.889 175.395 172.77C175.035 171.133 175.633 169.999 177.189 169.367C177.72 169.145 178.15 168.739 178.4 168.226L183.242 158.276C183.516 157.687 183.927 157.228 184.475 156.898C186.147 155.864 187.083 154.069 187.285 151.514Z" fill="#B287E5"/>
<path d="M70.7991 155.899C71.4888 159.916 73.9819 163.946 78.2783 167.991C78.9106 168.579 79.2339 169.296 79.2483 170.143L79.4207 181.309C79.4351 182.112 79.7368 182.786 80.326 183.331C83.8033 186.53 87.6543 188.466 91.8789 189.141C92.2039 189.193 92.5144 189.312 92.7902 189.492C93.066 189.671 93.3009 189.906 93.4797 190.182C93.6585 190.458 93.7773 190.768 93.8283 191.093C93.8793 191.418 93.8613 191.749 93.7756 192.067C92.4968 196.872 91.9866 201.569 92.2453 206.159C92.4824 210.591 90.9952 214.464 91.2107 218.875C91.2394 219.578 90.9592 220.137 90.3701 220.553C89.7379 220.983 89.1703 221.521 88.6673 222.167C88.2219 222.726 87.9704 223.364 87.9129 224.081C87.4388 230.192 87.9345 236.066 89.4002 241.703C89.6243 242.559 90.1267 243.318 90.8288 243.859C91.5309 244.4 92.3929 244.693 93.2799 244.693C95.3491 244.715 97.4829 244.715 99.4659 245.554C105.946 248.279 112.506 250.753 119.145 252.977C124.835 254.891 130.137 258.334 135.138 260.141C136.503 260.643 138.04 260.385 139.75 259.367C139.391 261.117 140.397 261.769 142.768 261.325C145.857 260.765 148.983 259.876 152.144 258.657C153.868 257.99 154.622 256.914 155.636 255.494C155.721 255.38 155.831 255.285 155.959 255.214L170.529 248.222C170.878 248.055 171.276 248.017 171.65 248.114C174.308 248.874 176.924 248.587 179.496 247.254C180.157 246.909 180.631 246.393 180.918 245.704C181.493 244.342 182.449 243.883 183.785 244.327C184.393 244.533 184.94 244.889 185.374 245.362C185.807 245.834 186.114 246.408 186.265 247.03C186.416 247.651 186.406 248.3 186.236 248.915C186.066 249.53 185.742 250.091 185.294 250.545C184.733 251.105 184.733 252.159 185.294 253.708C181.601 255.501 177.793 257.215 173.87 258.85C169.876 260.528 165.981 261.69 162.188 262.336C149.277 264.573 136.884 266.854 123.887 264.659C118.045 263.67 112.398 264.272 106.643 262.831C93.6966 259.632 81.6982 255.458 70.6482 250.309C70.1453 243.911 70.1525 237.737 70.6698 231.784C71.6325 220.668 72.1139 215.074 72.1139 215.002C72.4731 206.066 72.7461 197.008 72.9329 187.828C72.6024 181.876 71.4313 175.629 69.4196 169.088C68.6293 166.506 69.0891 162.11 70.7991 155.899Z" fill="#D2B4C6"/>
<path d="M128.458 225.761C123.54 226.231 115.855 226.466 111.193 224.288C109.901 223.676 108.936 222.26 108.297 220.04C106.921 215.244 105.934 210.284 105.338 205.16C104.785 200.449 104.394 196.009 104.167 191.839C103.06 171.9 129.011 167.032 142.636 174.696C147.206 177.258 149.676 181.891 150.045 188.594C150.457 195.924 149.967 204.029 148.576 212.91C148.15 215.621 149.172 218.823 146.383 220.595C143.786 222.246 140.855 223.456 137.591 224.224C134.312 224.978 131.268 225.491 128.458 225.761Z" fill="#1C1111"/>
<path d="M190.152 185.505C191.642 192.081 192.87 201.547 193.837 213.903C194.15 218.043 196.424 222.14 196.228 227.364C195.993 233.535 195.326 239.908 194.229 246.483L189.192 251.296L188.858 249.15C188.754 248.427 188.832 247.733 189.094 247.069C190.609 243.239 191.544 239.185 191.896 234.908C192.524 227.465 192.909 220.066 193.053 212.71C193.058 212.244 192.944 211.784 192.722 211.386C192.5 210.987 192.18 210.664 191.798 210.456C191.067 210.051 190.969 209.56 191.504 208.982C191.654 208.82 191.774 208.627 191.856 208.414C191.939 208.201 191.982 207.972 191.984 207.74C191.985 207.508 191.946 207.278 191.867 207.064C191.788 206.849 191.672 206.654 191.524 206.489C188.192 202.847 191.289 197.124 189.917 192.789C189.041 190.029 188.591 187.926 188.564 186.481C189.884 186.409 190.413 186.083 190.152 185.505Z" fill="#2A64F6"/>
</g>
</svg>
