<svg width="256" height="256" viewBox="0 0 256 256" fill="none" xmlns="http://www.w3.org/2000/svg">
<g clip-path="url(#clip0_1939_1748)">
<path d="M128 256C57.3028 256 0 198.839 0 128.318V127.682C0 57.1749 57.3028 0 128 0C198.697 0 256 57.1604 256 127.682V128.318C256 198.839 198.697 256 128 256Z" fill="#0000FF"/>
<path d="M149.715 191.239C149.759 191.153 149.802 191.066 149.846 190.994C150.354 189.634 151.643 189.33 152.789 188.94C156.079 187.813 158.891 185.918 161.486 183.648C162.356 182.982 163.139 182.217 163.864 181.406C165.574 179.527 166.458 177.474 166.053 174.798C165.11 168.696 164.154 162.609 163.429 156.478C162.718 150.477 162.008 144.476 161.574 138.446C161.167 132.937 160.79 127.442 160.587 121.918C160.428 117.898 160.356 113.864 160.124 109.844C159.921 106.345 159.878 102.831 159.312 99.3608C158.993 97.3792 158.674 97.1768 156.746 97.8856C153.948 98.8976 151.382 100.33 148.933 101.992C145.729 104.162 142.99 106.836 140.467 109.728C140.394 109.83 140.307 109.931 140.235 110.018C140.192 110.061 140.148 110.104 140.119 110.148C139.96 110.306 139.786 110.466 139.641 110.625C139.539 110.755 139.452 110.87 139.351 111.001C139.293 111.088 139.235 111.174 139.162 111.246C139.032 111.406 138.887 111.565 138.771 111.724C138.423 112.245 137.988 112.722 137.655 113.257C137.539 113.43 137.423 113.604 137.322 113.777C137.075 114.095 136.858 114.442 136.683 114.804C136.51 115.107 136.292 115.397 136.133 115.715C135.915 116.12 135.654 116.496 135.422 116.886C135.263 117.146 135.133 117.435 135.002 117.71C134.958 117.811 134.915 117.913 134.857 117.999C134.262 118.939 133.712 119.908 133.335 120.964C133.306 121.065 133.262 121.166 133.205 121.282C133.132 121.441 133.059 121.6 132.987 121.745C132.871 122.034 132.741 122.309 132.639 122.598C130.059 128.7 128.334 135.048 127.71 141.627C127.276 146.11 126.971 150.607 127.261 155.133C127.507 158.907 127.653 162.695 127.826 166.484C127.87 167.539 128.16 168.566 128.087 169.622C128.087 171.024 127.986 172.442 128.189 173.844C128.305 174.682 128.378 175.782 127.522 176.114C126.594 176.476 126.203 175.406 125.811 174.741C124.13 171.892 123.13 168.798 122.405 165.602C121.115 159.948 120.666 154.222 120.839 148.423C120.883 147.137 121.173 145.864 121.071 144.562C121.028 143.681 121.346 142.827 121.318 141.946C121.318 141.815 121.318 141.67 121.332 141.54C121.332 141.41 121.346 141.266 121.362 141.135C121.956 136.638 122.753 132.185 124.058 127.832C124.811 125.577 125.478 123.292 126.493 121.123C128.189 117.146 130.175 113.314 132.596 109.728C134.524 106.866 136.727 104.248 139.25 101.906C140.09 101.125 140.337 100.33 140.003 99.216C139.264 96.772 138.67 94.3136 136.727 92.4488C135.234 91.0312 133.494 90.1928 131.494 89.8456C129.769 89.5424 128.406 90.2072 127.29 91.4656C126.189 92.7088 125.304 94.1112 124.434 95.5144C123.565 96.9168 122.695 98.3336 121.448 99.4616C119.564 101.154 117.447 101.804 114.954 101.139C113.736 100.821 112.562 100.344 111.446 99.7944C108.678 98.4352 106.097 99.6784 104.27 101.674C102.023 104.132 101.806 107.097 102.183 110.191C102.255 110.755 102.43 111.29 102.473 111.854C102.487 112.172 102.458 112.505 102.618 112.808C102.719 112.953 102.778 112.664 102.662 112.779C102.662 112.779 102.618 112.765 102.574 112.707C102.487 112.577 102.487 112.418 102.487 112.259C102.98 108.166 106.227 105.13 110.374 104.898C111.185 104.855 111.997 104.812 112.794 104.957C113.461 105.072 114.026 105.376 114.273 106.055C114.505 106.721 114.128 107.212 113.693 107.661C112.794 108.615 111.663 109.237 110.562 109.931C109.025 110.914 107.706 112.086 107.532 114.052C107.43 115.223 107.691 116.38 107.691 117.537C107.691 118.231 108.3 118.144 108.778 118.187C111.185 118.404 113.606 118.491 115.998 118.882C117.752 119.17 119.477 119.619 121.158 120.212C121.97 120.486 122.753 120.79 123.478 121.238C123.854 121.47 124.275 121.73 124.159 122.265C124.058 122.771 123.622 122.988 123.188 123.061C121.796 123.292 120.39 123.437 118.984 123.48C113.359 123.682 107.721 123.769 102.11 124.42C99.4864 124.622 96.9064 125.085 94.3264 125.62C93.7464 125.736 93.3696 126.082 93.3552 126.69C93.3408 128.498 93.0936 130.334 93.9344 132.04C94.4856 133.096 95.4424 133.27 96.4864 133.168C96.9648 133.11 97.428 132.98 97.9064 132.908C100.226 132.416 102.517 132.069 104.749 133.327C106.198 134.137 107.213 135.279 107.807 136.783C108.518 138.605 108.894 140.485 108.88 142.451C108.837 146.399 108.909 150.346 109.387 154.266C109.619 156.174 110.258 157.953 111.229 159.601C111.461 159.991 111.693 160.598 112.243 160.469C112.722 160.353 112.678 159.731 112.722 159.326C112.997 157.07 112.693 154.829 112.418 152.588C112.098 149.927 112.446 147.44 114.098 145.242C115.258 144.317 115.838 144.534 116.36 146.095C116.346 149.132 116.969 152.11 117.244 155.118C117.476 157.62 117.592 160.122 116.708 162.536C116.374 163.462 115.926 164.301 115.142 164.937C113.2 166.513 110.837 166.354 108.794 164.402C106.343 162.074 105.227 159.051 104.59 155.842C103.951 152.631 103.806 149.363 103.821 146.095C103.821 144.071 103.749 142.061 103.299 140.08C102.879 138.258 102.371 137.926 100.502 137.983C99.6024 138.012 98.7328 138.186 97.8488 138.316C90.456 139.386 87.948 133.573 88.6144 128.946C88.6872 128.483 89.0784 127.862 88.6728 127.586C88.2232 127.283 87.716 127.832 87.2664 128.05C86.556 128.382 86.02 128.931 85.5128 129.524C84.8168 130.334 85.02 131.259 85.136 132.17C85.324 133.501 85.8312 134.73 86.2376 135.988C87.252 138.981 88.7744 141.743 90.34 144.476C98.3416 158.401 107.141 171.849 115.78 185.383C116.665 186.771 117.738 188.058 118.665 189.418C120.491 192.107 123.13 193.119 126.232 193.278C127.855 193.365 129.45 193.076 131.059 192.917C133.987 192.628 136.915 192.281 139.873 192.324C140.873 192.338 141.902 192.41 142.714 193.134C142.801 193.191 142.888 193.264 142.946 193.336C143.294 193.64 143.12 193.929 142.902 194.175C142.351 194.768 141.742 195.317 140.989 195.635C137.365 197.168 133.683 198.498 129.783 199.062C126.58 199.539 123.406 199.207 120.332 198.137C118.418 197.472 116.824 196.344 115.462 194.854C114.186 193.452 113.07 191.919 111.982 190.358C109.069 186.178 106.286 181.927 103.647 177.574C100.443 172.297 97.1384 167.077 93.7896 161.886C89.9632 155.942 86.3392 149.884 83.1064 143.594C81.6128 140.687 80.2944 137.694 79.5403 134.484C78.9604 132.011 78.685 129.538 79.8302 127.138C80.004 126.777 79.9027 126.531 79.6127 126.299C79.4243 126.155 79.2503 125.982 79.0763 125.808C74.8725 121.89 71.6689 117.262 69.567 111.941C67.9579 107.863 67.4505 103.67 68.6972 99.3752C69.1321 97.8424 69.8134 96.44 70.8136 95.1816C73.1475 92.2752 76.554 91.3208 80.0624 92.5936C80.2792 92.68 80.5112 92.7664 80.8016 92.868C80.9608 92.3912 80.656 92.0584 80.5256 91.7256C79.0908 88.1248 77.8587 84.452 77.0759 80.6496C76.728 78.943 76.5395 77.2222 76.6845 75.4726C76.9309 72.5806 78.2935 70.4116 81.004 69.2548C84.0048 67.9823 87.1648 67.3027 90.3976 66.9701C91.4704 66.8545 92.456 67.2593 93.4712 67.5341C94.8048 67.8955 96.0944 68.3438 97.356 68.8933C99.4432 69.8043 100.502 71.4237 100.762 73.6506C100.994 75.6605 100.994 77.6705 101.038 79.6949C101.067 81.1408 101.154 82.6016 101.212 84.0472C101.226 84.3944 101.27 84.6544 101.734 84.684C103.024 84.7272 104.314 84.8568 105.604 84.872C107.155 84.8864 107.851 84.3368 108.33 82.8184C108.822 81.2712 108.953 79.6515 109.228 78.0609C109.533 76.2968 110.04 74.6049 110.997 73.0722C112.895 70.0356 115.694 68.9222 119.172 69.1969C119.65 69.2403 120.129 69.3126 120.622 69.356C120.651 69.356 120.68 69.3126 120.796 69.2403C120.709 68.0401 120.782 66.811 121.13 65.6109C121.622 63.948 122.449 62.502 123.826 61.403C126.014 59.6389 128.826 59.5377 131.146 61.1138C131.914 61.6344 132.596 62.2706 133.262 62.9213C133.669 63.3261 134.06 63.7166 134.48 64.107C135.292 64.8589 136.19 64.9313 137.162 64.4107C138.018 63.948 138.771 63.3261 139.51 62.7044C140.714 61.6777 141.888 60.6366 143.192 59.7401C144.874 58.5689 146.671 57.6868 148.701 57.3397C150.382 57.065 152.006 57.2385 153.528 58.0627C156.108 59.4798 157.311 62.1549 156.761 65.2783C156.543 66.5073 156.166 67.7076 155.76 68.8933C155.456 69.7753 155.181 70.6574 155.021 71.5684C154.905 72.248 154.89 72.9276 155.021 73.6073C155.21 74.6773 155.76 75.4581 156.775 75.9064C157.732 76.3402 158.703 76.7595 159.646 77.2222C164.791 79.7528 167.198 85.392 165.473 90.8584C165.198 91.7544 164.82 92.5936 164.182 93.3016C163.922 93.5912 163.777 93.8368 164.009 94.256C165.125 96.3384 165.357 98.6376 165.589 100.922C165.994 104.986 166.154 109.049 166.27 113.126C166.502 121.514 166.922 129.9 167.574 138.273C168.169 145.792 169.054 153.296 170.097 160.758C170.706 165.11 171.314 169.462 172.01 173.815C172.721 178.197 171.518 181.956 168.488 185.166C164.806 189.056 160.602 192.208 155.572 194.16C155.006 194.378 154.426 194.536 153.832 194.681C152.948 194.898 152.064 194.826 151.209 194.507C149.715 193.958 149.208 192.946 149.614 191.355C149.658 191.384 149.701 191.312 149.715 191.239Z" fill="#212121"/>
<path d="M142.704 193.182C139.674 192.256 136.602 192.863 133.558 193.037C131.542 193.153 129.541 193.456 127.527 193.644C126.309 193.76 125.106 193.572 123.903 193.355C121.772 192.965 120.076 191.895 118.8 190.159C117.829 188.815 116.829 187.499 115.886 186.139C111.857 180.371 108.29 174.326 104.565 168.354C101.492 163.423 98.3031 158.55 95.2439 153.605C92.1567 148.587 89.1703 143.497 86.7063 138.132C86.4159 137.511 86.0967 136.903 85.9663 136.224C85.9375 134.923 85.2415 133.78 85.0679 132.493C84.9231 131.438 84.8359 130.425 85.1551 129.399C86.1119 127.967 87.6919 127.504 89.0975 126.782C89.4599 127.158 89.2431 127.461 89.1847 127.751C88.8367 129.254 88.7495 130.772 89.0255 132.305C89.6919 135.834 92.1423 137.988 95.7367 138.132C96.9255 138.176 98.0711 137.988 99.2303 137.8C99.9551 137.684 100.666 137.612 101.405 137.598C102.333 137.583 102.927 138.046 103.275 138.87C103.608 139.695 103.768 140.562 103.884 141.459C104.116 143.309 104.116 145.16 104.159 147.011C104.232 149.874 104.318 152.737 104.855 155.557C105.377 158.29 106.261 160.849 107.986 163.076C108.682 163.987 109.508 164.754 110.552 165.245C112.48 166.156 114.466 165.621 115.654 163.857C116.568 162.512 116.858 160.965 116.974 159.389C117.133 157.321 116.916 155.282 116.64 153.243C116.322 150.887 115.959 148.529 116.017 146.143C116.177 145.623 116.263 145.044 116.727 144.698C117.09 144.437 117.118 144.249 116.684 144.061C117.481 143.483 118.409 143.266 119.366 143.092C120.395 143.83 120.685 144.307 120.946 145.667C121.004 145.232 120.583 144.625 121.337 144.451C121.322 145.131 121.366 145.825 121.308 146.505C121.004 150.135 121.062 153.764 121.395 157.379C121.772 161.529 122.497 165.607 123.816 169.569C124.468 171.535 125.323 173.4 126.425 175.15C126.657 175.511 126.874 176.075 127.367 175.975C127.918 175.859 127.758 175.223 127.773 174.832C127.802 173.704 127.73 172.576 127.715 171.448C127.701 170.841 127.715 170.248 127.715 169.641C128.382 169.815 128.252 170.379 128.252 170.812C128.252 173.444 129.44 175.714 130.542 177.984C130.832 178.591 131.325 179.112 131.673 179.705C133.76 183.349 137.152 184.463 141.081 184.563C144.4 184.651 147.691 184.361 150.967 183.913C152.257 183.739 153.547 183.826 154.838 183.855C155.084 183.855 155.432 183.87 155.518 184.058C155.982 185.186 156.736 184.578 157.403 184.404C158.389 184.159 159.374 183.956 160.36 183.783C160.752 183.711 161.157 183.58 161.491 183.942C159.041 186.125 156.359 187.933 153.228 189.003C151.953 189.437 150.764 189.957 149.821 190.94C149.546 190.738 149.285 190.926 149.025 190.999C147.009 191.635 144.994 192.271 142.98 192.922C142.878 193.008 142.791 193.11 142.704 193.182Z" fill="#C89D5D"/>
<path d="M149.703 191.25C149.746 191.365 149.703 191.423 149.588 191.452C149.53 191.322 149.573 191.25 149.703 191.25Z" fill="#C89D5D"/>
<path d="M142.98 193.394C142.836 193.394 142.75 193.337 142.75 193.193C142.909 193.163 142.952 193.264 142.98 193.394Z" fill="#C89D5D"/>
<path d="M161.512 183.992C159.511 184.209 157.569 184.758 155.641 185.293C155.453 185.351 155.279 185.452 155.075 185.293C155.091 184.874 155.743 184.961 155.699 184.498C155.612 184.354 155.496 184.238 155.322 184.238C153.756 184.252 152.191 184.122 150.611 184.354C149.539 184.512 148.451 184.614 147.379 184.729C145.117 184.946 142.87 184.975 140.609 184.932C138.739 184.888 136.912 184.498 135.231 183.702C134.259 183.24 133.361 182.618 132.723 181.678C132.172 180.839 131.534 180.058 130.925 179.249C129.461 177.311 128.867 174.998 128.055 172.77C127.852 172.192 127.997 171.57 127.939 170.963C127.895 170.53 128.084 170.066 127.722 169.69C127.272 164.514 126.968 159.323 126.823 154.132C126.519 143.474 127.852 133.078 132.027 123.158C132.172 122.826 132.244 122.464 132.506 122.204C132.81 122.074 132.81 121.756 132.911 121.495C132.926 121.394 132.955 121.293 132.983 121.206L132.969 121.221C133.535 120.223 133.926 119.138 134.593 118.198C134.68 118.01 134.854 117.866 134.868 117.634C134.984 117.462 135.071 117.274 135.158 117.086C135.448 116.724 135.666 116.319 135.868 115.899C136.173 115.538 136.376 115.133 136.579 114.728C136.782 114.497 136.912 114.222 137.071 113.962C137.332 113.759 137.419 113.456 137.594 113.195C137.869 112.747 138.231 112.357 138.492 111.894C138.551 111.75 138.651 111.634 138.753 111.533C138.898 111.388 138.999 111.229 139.043 111.041L139.029 111.055C139.174 110.983 139.231 110.824 139.347 110.723C139.551 110.55 139.681 110.318 139.811 110.101L139.797 110.115C139.927 110.029 140.029 109.913 140.058 109.754C142.739 106.37 145.929 103.536 149.539 101.179C151.539 99.8776 153.626 98.7065 155.859 97.8393C156.612 97.5497 157.381 97.2897 158.192 97.1881C159.004 97.0729 159.077 97.1161 159.308 97.9113C159.686 99.1553 159.816 100.442 159.932 101.729C160.338 106.558 160.511 111.402 160.657 116.232C160.903 124.546 161.382 132.832 162.092 141.118C162.991 151.457 164.339 161.723 165.977 171.961C166.165 173.118 166.295 174.274 166.441 175.446C166.643 177.109 166.339 178.656 165.368 180.044C164.31 181.562 163.048 182.907 161.512 183.992Z" fill="#DEB982"/>
<path d="M102.222 112.006C101.598 109.837 101.453 107.639 101.975 105.441C102.686 102.405 104.512 100.279 107.469 99.18C108.701 98.7176 109.918 98.8904 111.122 99.3824C112.499 99.9464 113.833 100.611 115.311 100.944C117.514 101.436 119.385 100.828 121.037 99.4256C122.356 98.312 123.241 96.852 124.11 95.4056C124.878 94.1192 125.719 92.8896 126.633 91.704C128.082 89.8536 129.88 89.0576 132.286 89.7088C135.75 90.6488 138.099 92.7456 139.331 96.0856C139.81 97.3728 140.129 98.7024 140.491 100.033C140.665 100.655 140.506 101.089 140.042 101.537C138.23 103.272 136.519 105.08 134.954 107.046C132.881 109.649 131.141 112.454 129.561 115.361C128.532 117.27 127.575 119.222 126.749 121.231C125.676 120.321 124.386 120.248 123.081 120.393C122.356 120.465 121.646 120.479 120.922 120.494C119.08 119.901 117.21 119.395 115.297 119.164C114.253 119.034 113.224 118.846 112.18 118.831C110.803 118.802 109.455 118.484 108.078 118.571C107.744 118.586 107.382 118.571 107.367 118.122C107.353 116.836 107.179 115.549 107.179 114.262C107.179 112.411 108.266 111.11 109.73 110.112C110.6 109.519 111.498 108.97 112.383 108.406C112.905 108.073 113.34 107.668 113.746 107.22C114.369 106.526 114.224 105.89 113.398 105.47C113.224 105.383 113.021 105.297 112.833 105.268C109.904 105.007 107.194 105.499 105.005 107.668C103.657 108.998 102.975 110.646 102.714 112.498C102.207 112.642 102.424 112.122 102.222 112.006Z" fill="#934948"/>
<path d="M159.697 91.1896C159.61 91.4208 159.422 91.4496 159.204 91.4496C156.725 91.4208 154.45 92.2448 152.231 93.2288C150.086 94.1824 148.071 95.3544 146.129 96.6552C145.824 96.8576 145.52 97.0312 145.215 97.2336C144.867 97.2192 144.679 96.9736 144.462 96.7568C144.128 95.9032 143.809 95.036 143.476 94.1824C141.345 88.9048 137.446 85.8536 131.835 84.9576C131.169 84.856 130.487 84.8704 129.734 84.8272C130.284 81.6456 129.342 78.7974 128.125 76.0066C127.313 74.1557 126.066 72.6518 124.471 71.4227C124.094 71.1335 123.805 70.8877 123.848 70.3527C123.964 68.5886 124.326 66.9257 125.37 65.4652C125.689 65.0314 126.066 64.6844 126.515 64.4096C127.226 63.9614 127.965 63.9325 128.675 64.4096C129.038 64.6554 129.4 64.9302 129.719 65.2338C130.255 65.7255 130.762 66.2461 131.27 66.7666C132.56 68.097 134.111 68.8633 135.982 68.9211C136.996 69.6152 138.083 69.8032 139.301 69.6442C141.968 69.2826 144.287 68.1258 146.506 66.6798C147.955 65.7255 148.622 66.0291 149.013 67.7499C149.202 68.5886 149.129 69.4273 148.926 70.2659C148.622 71.4806 148.303 72.6807 148.071 73.9098C147.549 76.7151 149.434 80.3592 152.043 81.5592C153.086 82.036 153.782 81.588 153.768 80.4168C153.768 80.0696 153.609 79.6938 153.884 79.3758C155.218 80.012 156.58 80.6192 157.885 81.2992C158.798 81.7904 159.682 82.3688 160.016 83.4536C158.465 83.8296 158.218 84.1184 158.131 85.8248C158.058 87.7768 158.726 89.5264 159.697 91.1896Z" fill="#81B375"/>
<path d="M118.222 73.9748C120.396 73.8735 121.889 75.0593 123.078 76.6643C124.136 78.0814 124.629 79.7588 125.006 81.4648C125.295 82.8096 125.586 84.1544 126.223 85.3696C126.426 85.7456 126.441 86.0056 126.02 86.2656C124.295 87.336 123.106 88.9264 121.976 90.5608C121.106 91.8184 120.323 93.1344 119.468 94.4064C118.047 96.532 117.235 96.764 114.902 95.7664C113.713 95.26 112.554 94.6672 111.292 94.3632C108.074 93.5968 105.174 94.392 102.594 96.3008C99.4344 98.6432 97.492 101.753 97.0568 105.714C96.9408 106.77 96.912 106.726 95.8832 107.002C92.6792 107.84 89.896 109.358 87.852 112.077C85.9384 114.607 85.5472 117.427 86.04 120.45C86.0832 120.681 86.0984 120.941 86.1848 121.158C86.4024 121.693 86.1848 121.953 85.692 122.17C84.5328 122.676 83.46 123.312 82.4736 124.078C82.0536 124.411 81.7928 124.354 81.5024 123.934C78.6906 119.842 75.9073 115.721 74.1678 111.022C73.7619 109.937 73.327 108.838 73.3125 107.652C74.0083 107.739 73.9648 108.375 74.1243 108.823C75.226 111.672 76.4727 114.463 77.9512 117.138C78.2267 117.644 78.5021 118.526 79.1109 118.324C79.7487 118.106 79.5168 117.225 79.4588 116.589C79.4008 115.88 79.0095 115.2 79.2704 114.463C79.6907 114.072 80.0968 114.419 80.5024 114.492C80.7776 114.55 81.0824 114.607 81.2712 114.333C81.4592 114.072 81.3576 113.783 81.2128 113.538C80.6472 112.612 80.1112 111.672 79.1979 111.036C78.7775 110.746 78.2991 110.486 78.1397 109.937C77.2555 106.524 76.1827 103.155 75.7479 99.6416C75.6754 99.0336 75.2985 98.528 75.2115 97.9208C76.1683 96.908 77.2989 96.9952 78.4296 97.472C79.3283 97.848 80.0384 98.5424 80.7344 99.2216C82.068 100.509 83.2424 101.955 84.6776 103.141C86.1272 104.341 87.7216 105.223 89.6208 105.541C92.7808 106.076 95.5208 104.514 96.5928 101.492C97.1296 99.988 97.2456 98.4264 97.3032 96.8504C97.3472 95.2312 97.5496 93.6552 98.0576 92.108C98.7528 89.9968 100 89.0712 102.218 89.288C103.146 89.3888 104.058 89.4472 104.986 89.4904C106.9 89.5912 108.668 89.2008 110.234 88.044C112.22 88.6664 113.945 88.0152 115.307 86.0488C116.786 83.9088 117.381 81.4504 117.642 78.9057C117.772 77.5897 117.99 76.2739 117.917 74.9436C117.888 74.6254 117.96 74.2784 118.222 73.9748Z" fill="#81B375"/>
<path d="M120.904 120.485C122.657 119.864 124.426 119.849 126.209 120.384C126.629 120.514 126.76 120.818 126.745 121.223C125.992 123.045 125.31 124.881 124.716 126.761C124.614 127.108 124.455 127.426 124.31 127.759C123.614 129.205 123.295 130.809 122.541 132.227C122.353 132.574 122.222 133.123 121.773 133.037C121.222 132.935 121.324 132.342 121.324 131.923C121.309 130.68 121.338 129.421 121.049 128.193C120.976 127.889 120.961 127.484 120.541 127.469C120.222 127.455 120.063 127.773 119.99 128.033C119.178 130.694 118.251 133.355 119.208 136.174C119.526 137.085 119.28 137.635 118.439 138.025C117.511 138.445 116.729 139.095 115.946 139.732C114.453 140.961 114.467 141.409 116.061 142.522C116.018 143.173 115.917 143.838 116.714 144.157C116.902 144.2 117.105 144.243 117.352 144.286C116.902 144.923 116.468 145.53 116.033 146.137C115.989 146.021 115.961 145.906 115.917 145.79C115.482 144.706 115.293 144.662 114.265 145.4C113.67 145.689 113.626 145.125 113.409 144.836C113.221 144.59 113.177 144.128 112.785 144.2C112.351 144.272 112.351 144.735 112.278 145.081C111.901 146.99 111.829 148.913 111.742 150.851C111.713 151.531 111.728 152.225 111.481 152.876C111.394 153.093 111.321 153.382 111.032 153.382C110.8 153.382 110.713 153.15 110.641 152.977C110.234 151.893 109.741 150.837 110.234 149.608C110.8 148.191 110.641 146.658 110.568 145.169C110.452 142.595 110.263 140.021 109.625 137.505C108.929 134.801 107.495 132.704 105.045 131.244C103.581 130.361 102.073 129.638 100.565 128.843C98.3191 127.657 98.2607 126.978 100.015 125.185C100.551 124.635 101.174 124.332 101.885 124.158C103.349 123.825 104.842 123.782 106.321 123.696C110.22 123.464 114.134 123.305 118.033 123.175C119.483 123.117 120.933 122.973 122.368 122.871C122.527 122.857 122.701 122.857 122.846 122.799C123.223 122.654 123.861 122.799 123.904 122.221C123.933 121.787 123.411 121.628 123.063 121.454C122.382 121.121 121.643 120.818 120.904 120.485Z" fill="#F2B476"/>
<path d="M81.1562 76.9604C81.1706 74.6323 81.7075 73.8514 83.5915 73.2297C85.6211 72.5501 87.7091 72.0873 89.8395 71.7981C90.7531 71.6825 90.8107 71.7113 90.8835 72.6224C91.0283 74.3865 91.1154 76.165 91.217 77.9292C91.4338 82.2528 92.0722 86.504 93.4202 90.6392C93.565 91.088 93.5219 91.5072 93.4059 91.9408C92.9851 93.5456 92.7971 95.18 92.7387 96.8432C92.7099 97.6528 92.6227 98.448 92.4491 99.2432C92.1011 100.776 91.3474 101.166 89.8682 100.559C88.825 100.14 88.0859 99.5032 87.7091 98.3176C86.6795 95.0936 85.1867 92.0424 84.1427 88.8176C83.1139 85.68 82.0554 82.5416 81.4754 79.274C81.3018 78.4064 81.2291 77.5098 81.1562 76.9604Z" fill="#ECD189"/>
<path d="M101.926 124.141C100.781 124.791 99.9112 125.717 99.1432 126.757C98.868 127.119 98.94 127.321 99.2448 127.553C100.129 128.189 101.013 128.811 102.057 129.187C103.985 129.881 105.638 131.067 107.159 132.368C108.971 133.915 109.769 136.099 110.218 138.398C110.813 141.536 111.001 144.688 110.958 147.869C110.943 148.607 110.74 149.301 110.508 149.981C110.29 150.573 110.233 151.109 110.566 151.701C110.813 152.149 110.899 152.67 111.088 153.234C111.363 152.497 111.45 151.802 111.45 151.08C111.45 149.113 111.668 147.146 111.943 145.209C112.001 144.775 112.146 144.341 112.32 143.951C112.566 143.387 112.972 143.343 113.291 143.864C113.523 144.24 113.697 144.645 113.857 145.064C113.943 145.281 114.074 145.382 114.291 145.425C112.755 147.681 112.407 150.169 112.77 152.829C113.03 154.753 113.248 156.676 113.132 158.613C113.088 159.423 112.958 160.218 112.697 160.985C112.552 161.418 112.32 161.476 111.986 161.173C111.436 160.681 111.03 160.073 110.682 159.437C109.435 157.153 108.942 154.68 108.769 152.121C108.537 148.781 108.653 145.425 108.522 142.071C108.45 140.336 108.189 138.615 107.536 136.995C106.652 134.826 105.043 133.453 102.738 132.946C101.709 132.715 100.65 132.773 99.5928 132.946C98.9984 133.048 98.404 133.149 97.8096 133.25C96.3744 133.25 94.9104 133.395 93.7072 132.353C93.2 131.645 93.0696 130.792 93.0256 129.968C92.968 128.768 93.0256 127.568 93.0256 126.367C93.0256 125.876 93.1856 125.514 93.7216 125.398C96.4472 124.849 99.1576 124.3 101.926 124.141Z" fill="#E69543"/>
<path d="M153.874 79.3623C153.932 79.6371 154.005 79.9118 154.062 80.1864C154.222 80.8664 154.106 81.4736 153.526 81.9216C152.903 82.3992 152.265 82.1528 151.729 81.8064C150.99 81.3144 150.279 80.7792 149.699 80.0856C148.119 78.1766 147.148 76.0799 147.8 73.5205C148.105 72.3203 148.38 71.0912 148.67 69.8766C148.873 68.9945 148.873 68.127 148.539 67.2594C148.496 67.1437 148.453 67.0279 148.409 66.9267C148.061 66.1893 147.902 66.1314 147.221 66.5508C146.466 67.0135 145.727 67.5196 144.974 67.9678C143.002 69.1536 140.857 69.8187 138.581 70.079C137.842 70.1658 137.146 69.9199 136.464 69.6597C136.146 69.5295 135.899 69.3271 135.942 68.9366C137.537 68.8644 138.914 68.2426 140.19 67.3461C141.248 66.6086 142.219 65.7554 143.19 64.9023C144.19 64.0202 145.307 63.2973 146.438 62.5742C147.394 61.9525 148.467 61.5621 149.626 61.5042C151.482 61.4174 152.627 62.6755 152.309 64.3529C152.091 65.5097 151.729 66.6086 151.366 67.722C150.902 69.1391 150.482 70.5706 150.438 72.0745C150.337 75.0966 151.265 77.6271 153.874 79.3623Z" fill="#DDD8AB"/>
<path d="M116.033 142.703C115.539 142.4 114.859 142.544 114.627 141.648C114.438 140.911 114.511 140.462 115.018 140.101C116.178 139.247 117.192 138.178 118.584 137.643C119.163 137.426 119.251 137.107 118.99 136.515C118.395 135.199 118.381 133.825 118.627 132.394C118.801 131.411 118.947 130.412 119.207 129.443C119.323 128.981 119.497 128.533 119.642 128.07C119.802 127.506 120.106 126.855 120.7 126.927C121.338 127 121.294 127.737 121.425 128.301C121.758 129.805 121.57 131.352 121.671 132.856C122.063 132.943 122.063 132.654 122.15 132.437C122.642 131.251 123.121 130.051 123.658 128.879C123.831 128.489 123.947 128.027 124.353 127.767C123.918 129.603 123.454 131.425 123.049 133.261C122.526 135.575 122.135 137.903 121.86 140.259C121.816 140.621 121.715 140.968 121.643 141.315C121.498 141.475 121.367 141.648 121.164 141.749C120.759 141.908 120.483 142.299 120.034 142.385C119.004 141.995 118.019 142.241 117.019 142.559C116.699 142.646 116.41 143.007 116.033 142.703Z" fill="#E69543"/>
<path d="M79.4086 114.377C79.5246 115.042 79.597 115.737 79.7565 116.387C79.9305 117.125 79.829 117.833 79.6261 118.527C79.4666 119.091 79.2346 119.149 78.7708 118.758C78.1474 118.224 77.7415 117.515 77.3791 116.792C75.9295 113.9 74.5379 111.008 73.5232 107.928C73.4942 107.827 73.3782 107.74 73.3058 107.639C72.7114 105.238 72.7694 102.867 73.5522 100.525C73.8856 99.5414 74.3205 98.587 75.2047 97.9214C75.973 98.3262 76.031 99.1222 76.118 99.8014C76.4949 102.969 77.4082 106.005 78.2634 109.056C78.3649 109.417 78.4084 109.765 78.4084 110.126C76.9733 111.008 76.9008 111.991 78.1474 113.133C78.5823 113.538 79.2637 113.683 79.4086 114.377Z" fill="#DCD8AA"/>
<path d="M97.1704 111.062C97.6928 112.566 98.0256 114.128 98.736 115.589C99.128 116.384 99.5768 117.136 100.012 117.917C100.142 118.163 100.374 118.35 100.331 118.77C96.7792 119.189 93.1992 119.579 89.6328 120.707C89.5168 117.179 90.6912 114.447 93.6048 112.581C94.5472 111.974 95.576 111.496 96.6488 111.12C96.8376 111.179 96.9968 111.15 97.1704 111.062Z" fill="#934948"/>
<path d="M118.224 73.9565C118.267 76.9063 118.122 79.8417 117.252 82.676C116.744 84.3824 116.049 86.016 114.715 87.2888C113.86 88.0984 112.86 88.5896 111.715 88.7056C111.149 88.7632 110.468 88.8504 110.25 88.0552C112.048 86.58 112.744 84.556 113.135 82.3576C113.367 81.0128 113.599 79.6537 113.86 78.3233C114.034 77.4557 114.368 76.6315 114.773 75.8362C115.498 74.4481 116.614 73.754 118.224 73.9565Z" fill="#DDD8AB"/>
<path d="M159.674 91.184C159.428 91.1552 159.21 91.0544 159.08 90.8224C158.109 88.8848 157.427 86.8896 157.978 84.6776C158.369 83.1008 158.514 83.0144 159.993 83.4336C161.08 85.14 161.196 86.976 160.703 88.8704C160.501 89.7096 160.094 90.4464 159.674 91.184Z" fill="#DCD7AA"/>
<path d="M96.0969 72.3594C96.8361 72.5907 97.0097 73.1981 97.0969 73.8632C97.2273 74.9911 97.3145 76.1045 97.3145 77.2469C97.3001 79.4592 97.3144 81.6864 97.3288 83.8984C96.6912 83.8552 96.7777 83.2912 96.6185 82.9152C96.6041 82.5248 96.3577 82.2208 96.3145 81.8448C96.2273 81.6568 96.2849 81.44 96.1545 81.252C95.7345 78.4181 95.6617 75.5551 95.5312 72.7064C95.5312 72.6052 95.5745 72.5184 95.6473 72.4462C95.7921 72.3883 95.9521 72.4172 96.0969 72.3594Z" fill="#C0A55E"/>
<path d="M120.087 142.311C120.189 141.762 120.653 141.66 121.073 141.516C121.116 141.531 121.174 141.545 121.218 141.545C121.362 141.603 121.478 141.689 121.551 141.819C121.624 142.716 121.421 143.583 121.348 144.466C120.899 144.871 121.276 145.463 121 145.97C120.537 144.971 120.102 144.003 119.377 143.207C119.348 142.702 119.681 142.485 120.087 142.311Z" fill="#D9B47F"/>
<path d="M85.1775 129.406C85.1047 131.43 85.3511 133.412 86.0615 135.32C86.1775 135.638 86.2359 135.942 85.9895 136.231C85.3655 134.843 84.9599 133.397 84.7567 131.893C84.6559 131.04 84.4671 130.129 85.1775 129.406Z" fill="#C4A06C"/>
<path d="M93.6875 132.359C95.0211 132.838 96.4275 132.968 97.7899 133.259C97.1235 133.418 96.4563 133.591 95.7611 133.534C94.9051 133.475 94.0643 133.316 93.6875 132.359Z" fill="#DB9B65"/>
<path d="M96.8185 82.7183C97.0073 83.0959 97.0361 83.5591 97.3401 83.8927C97.4129 84.3999 97.4857 84.9223 97.5433 85.4439C97.5721 85.6615 97.4273 85.8207 97.2241 85.8935C96.9345 85.9799 96.8913 85.7775 96.8473 85.5743C96.7313 84.9943 96.5289 84.4143 96.5721 83.8055C96.6009 83.4287 96.1953 82.9503 96.8185 82.7183Z" fill="#ECEAE7"/>
<path d="M134.722 118.082C134.143 119.124 133.795 120.295 132.969 121.191C133.331 119.948 133.954 118.82 134.679 117.75C134.824 117.837 134.838 117.953 134.722 118.082Z" fill="#C4BEA9"/>
<path d="M138.653 111.777C138.479 112.356 138.16 112.835 137.696 113.241C137.594 113.328 137.508 113.313 137.406 113.227C137.71 112.588 138.131 112.023 138.609 111.516C138.653 111.559 138.681 111.603 138.725 111.647C138.711 111.69 138.681 111.733 138.653 111.777Z" fill="#BBC2B8"/>
<path d="M96.828 82.7233C96.4944 83.0137 96.6832 83.4337 96.5816 83.7961C96.3352 83.3905 96.3784 82.9409 96.3352 82.5065C96.248 82.2601 96.176 82.0129 96.3936 81.7817C96.712 82.0129 96.6976 82.4049 96.828 82.7233Z" fill="#E4DFCD"/>
<path d="M135.941 115.913C135.839 116.406 135.666 116.841 135.216 117.131C135.1 117.029 135.1 116.927 135.187 116.811C135.361 116.363 135.578 115.942 135.912 115.594C136.042 115.681 136.057 115.797 135.941 115.913Z" fill="#C6C6B7"/>
<path d="M135.949 115.932C135.935 115.816 135.921 115.714 135.906 115.598C135.993 115.236 136.21 114.961 136.442 114.686C136.529 114.584 136.617 114.584 136.703 114.686C136.587 115.193 136.399 115.642 135.949 115.932Z" fill="#CFCEBE"/>
<path d="M144.438 96.7817C144.757 96.8249 145.061 96.9121 145.191 97.2601C145.032 97.4049 144.887 97.6073 144.625 97.4913C144.582 97.4193 144.525 97.3609 144.481 97.2889C144.466 97.1145 144.452 96.9409 144.438 96.7817Z" fill="#CFCBC8"/>
<path d="M136.698 114.7C136.611 114.7 136.525 114.7 136.438 114.7C136.582 114.309 136.785 113.946 137.119 113.656C137.249 113.757 137.278 113.873 137.162 114.004C137.133 114.323 136.973 114.555 136.698 114.7Z" fill="#BAC1B6"/>
<path d="M102.226 112C102.385 112.159 102.544 112.319 102.69 112.478C102.69 112.667 102.762 112.87 102.574 113.03C102.254 112.754 102.196 112.391 102.226 112Z" fill="#6B3A39"/>
<path d="M96.3825 81.7863C96.3681 82.0327 96.3393 82.2647 96.3249 82.5111C96.0929 82.1199 96.1073 81.6847 96.1505 81.2495C96.3393 81.3807 96.3681 81.5831 96.3825 81.7863Z" fill="#B0A795"/>
<path d="M137.169 113.987C137.154 113.871 137.139 113.755 137.125 113.639C137.154 113.45 137.255 113.334 137.401 113.218C137.502 113.218 137.589 113.233 137.691 113.233C137.632 113.566 137.459 113.813 137.169 113.987Z" fill="#CACBBC"/>
<path d="M133.053 121.48C132.981 121.798 133.038 122.205 132.531 122.205C132.546 121.93 132.676 121.698 132.836 121.494C132.894 121.393 132.966 121.407 133.053 121.48Z" fill="#D8C9AB"/>
<path d="M139.843 110.062C139.858 110.41 139.698 110.657 139.379 110.802C139.292 110.758 139.263 110.715 139.292 110.657C139.321 110.599 139.336 110.584 139.365 110.584C139.466 110.367 139.597 110.164 139.843 110.062Z" fill="#DCD6BF"/>
<path d="M135.199 116.797C135.213 116.898 135.213 117.014 135.228 117.116C135.213 117.304 135.17 117.464 134.996 117.58C134.924 117.696 134.836 117.696 134.75 117.594C134.822 117.275 134.952 117.014 135.199 116.797Z" fill="#B4BBB0"/>
<path d="M95.6762 72.4946C95.633 72.567 95.5898 72.6395 95.5602 72.712C95.4442 72.509 95.3426 72.2771 95.5898 72.1032C95.7346 72.0017 95.8794 72.1032 95.9522 72.2626C95.9226 72.4076 95.7778 72.4221 95.6762 72.4946Z" fill="#899E9D"/>
<path d="M139.058 111C139.116 111.218 139.072 111.406 138.869 111.522C138.811 111.58 138.754 111.609 138.667 111.594L138.594 111.507C138.695 111.29 138.811 111.087 139.058 111Z" fill="#BCC1B1"/>
<path d="M97.1474 111.062C97.0018 111.353 96.8138 111.251 96.625 111.121C96.7994 111.106 96.973 111.091 97.1474 111.062Z" fill="#B1CBCA"/>
<path d="M134.781 117.593C134.867 117.593 134.94 117.593 135.027 117.579C135.013 117.781 134.954 117.97 134.766 118.086C134.751 117.97 134.737 117.868 134.722 117.752C134.708 117.679 134.737 117.622 134.781 117.593Z" fill="#E0D5BE"/>
<path d="M121.094 141.514C121.224 141.355 121.413 141.311 121.601 141.297C121.587 141.384 121.587 141.471 121.572 141.543C121.442 141.702 121.297 141.688 121.138 141.572L121.094 141.514Z" fill="#D9B47F"/>
<path d="M121.156 141.576C121.302 141.562 121.447 141.562 121.591 141.547C121.591 141.634 121.577 141.735 121.577 141.823C121.403 141.794 121.2 141.808 121.156 141.576Z" fill="#F7EEE0"/>
<path d="M139.367 110.579C139.382 110.651 139.382 110.723 139.382 110.795C139.309 110.927 139.222 110.999 139.062 111.013C139.062 110.795 139.179 110.665 139.367 110.579Z" fill="#BCC1B1"/>
<path d="M95.6875 72.4819C95.7747 72.4094 95.8619 72.3225 95.9491 72.25C96.0067 72.279 96.0643 72.3225 96.1227 72.366C96.0067 72.453 95.8763 72.5544 95.6875 72.4819Z" fill="#F0E9D9"/>
<path d="M133.047 121.477C132.974 121.477 132.902 121.477 132.815 121.477C132.801 121.333 132.844 121.231 133.003 121.187C133.018 121.289 133.033 121.376 133.047 121.477Z" fill="#C4BEA9"/>
<path d="M140.073 109.718C140.044 109.878 139.972 110.009 139.812 110.081C139.812 109.907 139.928 109.791 140.073 109.718Z" fill="#B7C2B2"/>
<path d="M144.478 97.2656C144.579 97.2943 144.622 97.3668 144.622 97.468C144.492 97.468 144.448 97.3812 144.478 97.2656Z" fill="#81B375"/>
<path d="M120.101 142.31C119.985 142.701 119.623 142.904 119.391 143.208C118.565 143.702 117.637 143.962 116.709 144.18C116.593 144.165 116.477 144.18 116.361 144.15C115.448 143.948 115.39 143.818 115.825 142.977C115.883 142.875 115.955 142.788 116.013 142.686C116.926 142.006 117.999 141.933 119.072 141.831C119.507 141.802 119.84 141.976 120.101 142.31Z" fill="#272523"/>
<path d="M122.19 182.828C122.35 182.872 122.481 182.987 122.51 183.147C122.538 183.292 122.437 183.379 122.321 183.292C122.206 183.205 122.133 183.06 122.031 182.944C122.074 182.901 122.133 182.857 122.19 182.828Z" fill="#D6B077"/>
<path d="M138.669 111.604C138.726 111.56 138.799 111.546 138.87 111.531C138.784 111.618 138.712 111.705 138.625 111.777C138.625 111.719 138.639 111.661 138.669 111.604Z" fill="#E3DFCD"/>
<path d="M119.189 107.404C118.435 107.418 117.783 107.23 117.175 106.882C116.681 106.592 116.42 106.158 116.522 105.563C116.623 105.026 117.073 104.853 117.507 104.794C118.928 104.578 120.233 104.954 121.378 105.824C122.016 106.317 121.929 106.766 121.146 107.042C120.508 107.274 119.842 107.433 119.189 107.404Z" fill="#232222"/>
<path d="M146.102 80.8137C146.913 80.7849 147.421 81.2913 147.203 81.9561C146.652 83.6481 145.724 85.0937 144.058 85.8745C143.158 86.2945 142.231 85.8025 142.028 84.8337C141.926 84.3561 141.941 83.8649 142.187 83.4313C143.057 81.8545 144.594 81.2769 146.102 80.8137Z" fill="#222222"/>
<path d="M139.062 80.1904C139.15 78.9902 139.295 77.8479 139.846 76.7778C140.15 76.1706 140.628 75.7367 141.251 75.5054C142.281 75.1295 143.078 75.7078 142.962 76.7923C142.774 78.5998 141.86 80.0456 140.527 81.2312C140.266 81.4776 139.918 81.68 139.541 81.5208C139.091 81.3328 139.062 80.9136 139.062 80.5088C139.062 80.4072 139.062 80.292 139.062 80.1904Z" fill="#222222"/>
<path d="M79.3189 105.65C79.3189 105.447 79.3045 105.245 79.3189 105.042C79.3479 104.638 79.3624 104.204 79.8408 104.045C80.276 103.886 80.6816 104.059 80.9568 104.349C82.856 106.315 84.088 108.643 84.5088 111.347C84.6392 112.214 84.0304 112.562 83.2912 112.056C81.0008 110.538 79.4059 108.542 79.3189 105.65Z" fill="#212221"/>
<path d="M79.3897 114.377C78.8534 114.016 78.3025 113.683 77.8097 113.293C77.2878 112.888 76.9399 112.338 76.9109 111.645C76.8529 110.646 77.3313 110.169 78.4185 110.141C79.6941 110.907 80.6944 111.919 81.3904 113.235C81.5208 113.481 81.6656 113.741 81.724 114.001C81.8832 114.652 81.5352 115.042 80.8536 114.897C80.3464 114.797 79.8681 114.551 79.3897 114.377Z" fill="#222222"/>
<path d="M87.3978 91.8152C87.3978 92.3792 87.413 92.9424 87.3834 93.5064C87.3834 93.6944 87.297 93.9112 87.0506 93.9408C86.8618 93.9552 86.7746 93.796 86.7026 93.6512C85.9482 92.3496 85.4554 90.9472 85.0354 89.516C84.3538 87.2024 83.673 84.8888 83.049 82.5752C82.6434 81.0712 82.2378 79.5528 82.3242 77.9622C82.3394 77.8031 82.3242 77.6441 82.3394 77.485C82.3682 77.0367 82.4698 76.5451 82.8898 76.3427C83.3538 76.1258 83.7162 76.5306 84.0354 76.8198C84.905 77.6007 85.3834 78.6563 85.6874 79.7263C86.1954 81.5336 86.5578 83.3848 86.717 85.2648C86.8618 86.8552 87.181 88.4312 87.369 90.0216C87.4418 90.6144 87.3834 91.2224 87.3834 91.8296L87.3978 91.8152Z" fill="#F7E4AA"/>
</g>
<defs>
<clipPath id="clip0_1939_1748">
<rect width="256" height="256" fill="white"/>
</clipPath>
</defs>
</svg>
