<svg width="256" height="256" viewBox="0 0 256 256" fill="none" xmlns="http://www.w3.org/2000/svg">
<g clip-path="url(#clip0_2087_9333)">
<path fill-rule="evenodd" clip-rule="evenodd" d="M128 0C198.697 0 256 57.3026 256 128C256 198.697 198.697 256 128 256C57.3026 256 0 198.697 0 128C0 57.3026 57.3026 0 128 0Z" fill="white"/>
<path d="M70.3962 127.968L70.4885 161.814L99.2475 178.737V198.552L53.6577 171.814V118.07L70.3962 127.968ZM70.3962 94.1215V113.845L53.6475 103.937V84.2138L70.3962 74.3062L87.227 84.2138L70.3962 94.1215ZM111.258 84.2138L128.006 74.3062L144.837 84.2138L128.006 94.1215L111.258 84.2138Z" fill="black"/>
<path d="M82.499 154.798V134.983L99.2477 144.891V164.614L82.499 154.798ZM111.258 185.834L128.007 195.742L144.837 185.834V205.557L128.007 215.465L111.258 205.557V185.834ZM168.858 84.2138L185.607 74.3062L202.437 84.2138V103.937L185.607 113.845V94.1215L168.858 84.2138ZM185.607 161.814L185.699 127.968L202.448 118.06V171.804L156.858 198.542V178.727L185.607 161.814Z" fill="black"/>
<path d="M173.595 154.798L156.847 164.614V144.891L173.595 134.983V154.798Z" fill="black"/>
<path d="M173.596 101.137L173.689 120.953L144.848 137.876V171.804L128.099 181.619L111.35 171.804V137.876L82.5093 120.953V101.137L99.3298 91.2297L127.996 108.235L156.837 91.2297L173.668 101.137H173.596ZM82.499 67.3015L128.007 40.4707L173.596 67.3015L156.848 77.2092L128.007 60.204L99.2477 77.2092L82.499 67.3015Z" fill="black"/>
</g>
<defs>
<clipPath id="clip0_2087_9333">
<rect width="256" height="256" fill="white"/>
</clipPath>
</defs>
</svg>
