<svg width="256" height="256" viewBox="0 0 256 256" fill="none" xmlns="http://www.w3.org/2000/svg">
<g clip-path="url(#clip0_2569_3343)">
<mask id="mask0_2569_3343" style="mask-type:luminance" maskUnits="userSpaceOnUse" x="0" y="0" width="256" height="256">
<path d="M256 0H0V256H256V0Z" fill="white"/>
</mask>
<g mask="url(#mask0_2569_3343)">
<path d="M128 2C197.593 2 254 58.4071 254 128C254 197.593 197.593 254 128 254C58.4071 254 2 197.593 2 128C2 58.4071 58.4071 2 128 2Z" fill="white" stroke="#DF992F" stroke-width="4"/>
<path d="M125.957 198.841V214.179L89.4278 199.568L85.3448 197.935L70 191.796V68.2827L78.0947 72.5687L82.0974 74.6881L85.3448 76.4081V182.604L86.4918 183.063L89.4278 184.236L104.799 190.384L125.957 198.841Z" fill="#8B8C8F"/>
<path d="M185.997 176.47V191.796L159.429 202.422L130.04 214.179V198.841L159.429 187.093L185.997 176.47Z" fill="#56575B"/>
<path d="M185.998 64.1983L173.513 70.8104L171.548 71.8516L169.506 72.9323L167.465 72.117L127.999 56.3371L104.799 65.6121L89.4278 71.7597L86.4918 72.9323L85.3448 72.3249L82.4853 70.8104L70.0025 64.1996L70 64.1983L85.3448 58.0622L89.4278 56.429L127.999 41L167.465 56.7862L171.548 58.4182L185.998 64.1983Z" fill="#7F7F7F"/>
<path d="M125.957 61.2776V76.6249L107.441 84.028L104.799 85.0845V169.284L103.047 170.212L90.5646 176.824L89.4277 177.425V75.881L90.927 75.2813L104.799 69.736L125.957 61.2776Z" fill="#353537"/>
<path d="M185.998 68.2827V83.6492L171.548 91.3024V75.9347L173.901 74.6881L177.903 72.5687L185.998 68.2827Z" fill="#4D4F51"/>
<path d="M181.562 174.12L159.429 182.97L127.999 195.536L104.799 186.261L90.9268 180.714L94.9562 178.581L104.799 173.367L107.44 171.969L127.999 180.196L159.429 167.619L165.046 165.375H165.048L177.529 171.984L181.562 174.12Z" fill="#9FA1A2"/>
<path d="M167.464 76.2383V91.5881L152.95 85.785L148.557 84.028L130.04 76.6249V61.2776L165.07 75.2813L167.464 76.2383Z" fill="#5C5E61"/>
</g>
</g>
<defs>
<clipPath id="clip0_2569_3343">
<rect width="256" height="256" fill="white"/>
</clipPath>
</defs>
</svg>
