<svg width="256" height="256" viewBox="0 0 256 256" fill="none" xmlns="http://www.w3.org/2000/svg">
<path d="M128 0C198.699 0 256 57.3126 256 128C256 198.699 198.699 256 128 256C57.3126 256 0 198.693 0 128C0 57.3126 57.3126 0 128 0Z" fill="white"/>
<path d="M132.718 137.037H181.355C182.392 137.037 182.882 137.037 182.957 135.678C183.354 130.73 183.354 125.753 182.957 120.8C182.957 119.838 182.479 119.44 181.436 119.44H84.6383C83.4402 119.44 83.1177 119.838 83.1177 120.961V135.2C83.1177 137.037 83.1177 137.037 85.0358 137.037H132.718ZM177.525 102.799C177.663 102.436 177.663 102.039 177.525 101.682C176.713 99.9135 175.751 98.2258 174.633 96.6418C172.952 93.9346 170.97 91.4405 168.712 89.1998C167.647 87.8462 166.414 86.6309 165.031 85.5998C158.108 79.7073 149.877 75.537 141.029 73.4403C136.565 72.4381 132.003 71.96 127.43 72.0003H84.4713C83.2732 72.0003 83.1119 72.4784 83.1119 73.521V101.918C83.1119 103.116 83.1119 103.439 84.6326 103.439H176.949C176.949 103.439 177.75 103.277 177.911 102.799H177.519H177.525ZM177.525 153.678C176.166 153.528 174.795 153.528 173.435 153.678H84.719C83.5209 153.678 83.1177 153.678 83.1177 155.279V183.043C83.1177 184.321 83.1177 184.644 84.719 184.644H125.679C127.637 184.794 129.596 184.655 131.514 184.247C137.458 183.82 143.305 182.53 148.88 180.405C150.908 179.702 152.866 178.786 154.715 177.686H155.274C164.876 172.692 172.675 164.847 177.594 155.216C177.594 155.216 178.153 154.006 177.525 153.689V153.678ZM67.0413 199.038V198.56V179.921V173.602V154.801C67.0413 153.759 67.0413 153.603 65.7626 153.603H48.4018C47.4399 153.603 47.0424 153.603 47.0424 152.324V137.124H65.6013C66.6381 137.124 67.0413 137.124 67.0413 135.764V120.725C67.0413 119.763 67.0413 119.527 65.7626 119.527H48.4018C47.4399 119.527 47.0424 119.527 47.0424 118.248V104.17C47.0424 103.289 47.0424 103.053 48.3212 103.053H65.5207C66.7188 103.053 67.0413 103.053 67.0413 101.532V58.4123C67.0413 57.1336 67.0413 56.811 68.6426 56.811H128.639C132.994 56.9838 137.32 57.4619 141.6 58.251C150.418 59.8811 158.891 63.0319 166.638 67.5305C171.776 70.5545 176.505 74.2064 180.716 78.4113C183.884 81.7002 186.741 85.26 189.276 89.0501C191.793 92.892 193.884 96.999 195.525 101.29C195.727 102.408 196.798 103.162 197.916 102.972H212.235C214.073 102.972 214.073 102.972 214.153 104.735V117.856C214.153 119.135 213.675 119.457 212.391 119.457H201.349C200.231 119.457 199.909 119.457 199.989 120.897C200.427 125.77 200.427 130.661 199.989 135.534C199.989 136.893 199.989 137.054 201.516 137.054H214.147C214.706 137.774 214.147 138.494 214.147 139.22C214.228 140.148 214.228 141.086 214.147 142.014V151.696C214.147 153.056 213.75 153.459 212.546 153.459H197.426C196.372 153.257 195.347 153.931 195.105 154.98C191.505 164.34 185.745 172.732 178.303 179.46C175.584 181.908 172.727 184.212 169.743 186.337C166.541 188.181 163.424 190.099 160.141 191.619C154.099 194.338 147.763 196.343 141.26 197.616C135.085 198.722 128.824 199.223 122.539 199.136H67.0183V199.056L67.0413 199.038Z" fill="black"/>
</svg>
