<svg width="256" height="256" viewBox="0 0 256 256" fill="none" xmlns="http://www.w3.org/2000/svg">
<mask id="mask0_1984_893" style="mask-type:alpha" maskUnits="userSpaceOnUse" x="0" y="0" width="256" height="256">
<path d="M256 127.975C256 161.867 242.514 194.372 218.509 218.338C194.504 242.303 161.946 255.767 127.998 255.767C94.0514 255.766 61.495 242.302 37.491 218.338C13.487 194.373 0.00116778 161.871 0 127.979C-2.00871e-08 94.0875 13.4853 61.5833 37.4895 37.6176C61.4936 13.652 94.0505 0.187689 127.998 0.186523C161.946 0.186523 194.503 13.6498 218.508 37.6146C242.512 61.5793 255.999 94.0828 256 127.975Z" fill="#343C5E"/>
</mask>
<g mask="url(#mask0_1984_893)">
<mask id="mask1_1984_893" style="mask-type:alpha" maskUnits="userSpaceOnUse" x="0" y="0" width="256" height="256">
<path d="M0.0231018 0.0395508H255.994V255.591H0.0231018V0.0395508Z" fill="#D9D9D9"/>
</mask>
<g mask="url(#mask1_1984_893)">
<path d="M128.01 255.591C57.3251 255.591 0.0240784 198.384 0.0240784 127.815C0.0240784 57.2467 57.3251 0.0395508 128.01 0.0395508C198.694 0.0395508 255.995 57.2467 255.995 127.815C255.995 198.384 198.694 255.591 128.01 255.591Z" fill="#D9D9D9"/>
<path d="M255.994 255.591L0.0234375 255.591L0.0234639 0.0398254L255.995 0.0398518L255.994 255.591Z" fill="url(#paint0_radial_1984_893)"/>
<path d="M35.7981 373.885C33.5399 353.623 33.2152 327.047 34.2663 314.081C33.7139 310.148 34.1841 305.391 33.859 298.59C33.5597 292.329 33.6065 287.589 33.3131 280.766C33.0681 275.066 32.8164 266.07 32.461 261.126C31.9493 254.008 32.0399 246.336 32.1542 236.647L32.1594 236.21C32.2612 227.576 32.7616 220.116 33.3605 212.159C33.6727 208.011 33.1782 201.035 33.628 197.594C34.2856 192.563 35.1338 187.202 36.0898 184.621C38.6012 177.84 38.4706 173.8 43.3949 169.526C47.2152 166.209 50.2142 163.897 58.3799 161.649C62.8545 160.418 75.399 154.241 77.7853 153.246C85.3668 150.085 98.7085 142.187 101.675 119.604L142.027 148.203V151.67L136.927 155.489V160.279V163.51C139.028 167.802 151.818 171.976 157.87 174.221C162.479 175.931 166.159 181.858 168.511 188.224C170.02 192.307 170.981 196.57 171.289 200.016C171.565 203.095 170.898 210.124 171.045 213.318C171.35 219.965 171.335 226.607 171.23 233.413C170.443 246.11 171.254 254.773 170.638 265.636C170.2 273.367 169.815 280.291 169.713 285.879C171.453 303.385 166.022 356.98 164.08 372.339C159.975 404.789 157.075 428.793 155.528 442.238C153.981 455.682 138.517 503.729 134.895 521.404L77.9226 520.359L61.454 437.462L49.383 478.39C49.1429 478.101 48.4308 477.309 47.5034 476.446C46.3445 475.365 46.6504 471.546 46.6839 469.724C46.7174 467.896 46.4233 445.457 44.9843 444.132C43.5454 442.807 42.3674 436.131 41.656 430.599C40.9447 425.067 38.1614 395.09 35.7981 373.885Z" fill="#0054FF"/>
<path d="M61.454 437.462L49.3829 478.39C49.1429 478.101 48.4308 477.309 47.5033 476.446C46.3445 475.365 46.6504 471.546 46.6839 469.724C46.7174 467.896 46.4232 445.457 44.9843 444.132C43.5454 442.807 42.3674 436.131 41.656 430.599C40.9447 425.067 38.1613 395.09 35.798 373.885C33.5399 353.623 33.2151 327.047 34.2663 314.081C33.7139 310.148 34.184 305.391 33.859 298.59C33.5597 292.329 33.6064 287.589 33.3131 280.766C33.0681 275.066 32.8164 266.07 32.461 261.126C31.9416 253.901 32.0427 246.105 32.1594 236.21C32.2612 227.576 32.7615 220.116 33.3605 212.159C33.6727 208.011 33.1782 201.035 33.628 197.594C34.2856 192.563 35.1337 187.202 36.0898 184.621C38.6012 177.84 38.4705 173.8 43.3949 169.526C47.2152 166.209 50.2142 163.897 58.3798 161.649C62.8545 160.418 75.399 154.241 77.7853 153.246C85.3668 150.085 98.7085 142.187 101.675 119.604L142.027 148.203V151.67L136.927 155.489V160.279V163.51C139.028 167.802 151.818 171.976 157.87 174.221C162.479 175.931 166.159 181.858 168.511 188.224C170.02 192.307 170.981 196.57 171.289 200.016C171.565 203.095 170.898 210.124 171.045 213.318C171.35 219.965 171.335 226.607 171.23 233.413C170.443 246.11 171.254 254.773 170.638 265.636C170.2 273.367 169.815 280.291 169.713 285.879C171.453 303.385 166.022 356.98 164.08 372.339C159.975 404.789 157.075 428.793 155.528 442.238C153.981 455.682 138.517 503.729 134.895 521.404L77.9226 520.359L61.454 437.462ZM61.454 437.462C60.0119 425.142 58.8239 398.738 58.4092 390.164C57.8909 379.447 59.0373 322.52 57.9927 314.516C57.9703 308.062 58.8057 298.899 59.7588 289.831C60.9562 278.441 62.3992 268.605 62.501 263.08C62.5757 259 63.0599 250.609 63.7399 242.845C64.3362 236.034 64.2685 225.961 64.8494 219.389C65.4794 212.261 66.7374 208.78 66.7986 205.453" stroke="black" stroke-linecap="round" stroke-linejoin="round"/>
<path d="M116.23 213.11C116.478 214.64 116.887 217.981 116.535 219.1C116.095 220.5 115.99 226.207 115.958 227.927C115.926 229.647 116.314 232.938 115.845 234.103M113.866 223.412C113.86 223.756 113.841 224.75 113.818 225.985C113.796 227.22 113.468 229.042 113.307 229.8" stroke="black" stroke-linecap="round" stroke-linejoin="round"/>
<path d="M112.543 197.574C111.952 197.762 110.736 197.837 110.606 196.632C110.442 195.127 110.643 194.449 110.103 193.404C109.563 192.36 108.349 191.282 108.27 190.613C108.192 189.944 107.436 187.508 107.079 186.904M115.676 198.756C115.687 199.092 115.818 199.658 116.252 199.24C116.795 198.718 116.732 196.874 116.144 196.055C115.556 195.235 115.415 194.401 115.232 193.959C115.048 193.518 114.325 193.654 114.194 193.099C114.063 192.544 114.089 190.025 114.074 189.578M118.38 199.168C118.599 199.03 119.045 198.631 119.073 198.137C119.108 197.521 118.596 195.636 118.978 195.343C119.361 195.05 120.206 195.189 120.063 195.921C119.948 196.507 118.485 196.217 117.767 195.999M122.025 197.59C121.78 198.083 121.443 198.918 122.05 198.316C122.809 197.563 123.521 197.091 124.016 196.794C124.411 196.557 125.8 195.969 126.445 195.705M129.486 197.783C129.821 197.735 130.499 197.57 130.535 197.3M102.924 198.18C102.435 198.104 101.434 197.884 101.335 197.619M108.522 197.99C107.697 197.907 106.019 197.247 105.907 195.281C105.768 192.824 106.374 192.524 106.439 192.801C106.505 193.079 104.964 194.594 103.698 192.44M97.5978 193.971C97.0285 193.46 96.6699 193.202 96.5615 193.137M97.5487 199.532L97.0673 199.416M124.097 192.393C123.657 192.542 122.642 192.997 122.098 193.624M111.901 201.408C112.176 201.025 112.836 200.494 113.28 201.433C113.834 202.608 111.542 203.149 110.496 202.6C109.45 202.052 106.669 202.477 105.739 204.472C104.808 206.467 103.724 206.077 103.441 206.442M107.13 200.179C107.248 200.044 107.546 199.859 107.786 200.191C108.087 200.606 105.222 201.788 102.863 201.494C102.423 201.382 101.486 201.285 101.258 201.792M116.654 202.074C116.399 201.876 116.045 201.484 116.664 201.496C117.439 201.509 117.642 202.621 118.302 203.407C118.962 204.193 120.982 204.752 121.438 204.76C121.893 204.768 122.615 205.216 122.93 205.449M119.964 201.291C120.783 201.571 121.582 201.056 121.994 201.328C122.325 201.546 123.273 202.264 123.705 202.596M126.35 200.828L127.249 201.425M114.3 207.037C114.346 206.687 114.34 206.007 113.955 206.084C113.474 206.181 112.496 207.634 111.786 207.674C111.218 207.706 110.628 207.67 110.403 207.649M131.302 208.031L132.298 209.193" stroke="black" stroke-linecap="round"/>
<path d="M132.203 163.014C132.186 163.944 131.945 165.538 131.931 166.306C131.917 167.074 133.226 169.884 133.549 170.576M97.1064 163.231C96.6002 164.035 95.535 165.64 95.3267 165.636M125.872 182.16C124.837 181.834 122.847 182.009 122.187 182.736C121.526 183.462 119.855 184.436 119.225 185.156M108.365 181.84L110.651 183.267M81.8547 170.839C80.437 170.539 77.1284 169.815 75.4197 169.784C73.3505 169.746 70.8549 170.013 69.334 169.673M142.655 175.46C143.23 175.665 144.922 175.968 147.094 175.541C149.808 175.009 150.207 174.882 150.992 175.122M89.0626 156.093C88.7451 156.96 87.8349 158.889 86.7347 159.664C85.635 160.438 83.8301 161.809 83.0651 162.397M120.226 167.055C120.541 167.22 121.29 167.983 121.778 169.715C122.264 171.446 121.942 172.495 121.721 172.803" stroke="black" stroke-linecap="round" stroke-linejoin="round"/>
<path d="M65.2578 197.74C65.6996 198.903 66.366 203.709 66.7148 205.651M66.7148 205.651C66.882 206.584 66.7662 206.066 66.6947 206.745M66.7148 205.651C67.3279 205.114 68.622 201.061 68.7004 199.613" stroke="black" stroke-linecap="round" stroke-linejoin="round"/>
<path d="M152.528 202.592C152.974 203.252 154.094 206.148 154.596 207.307M154.596 207.307C154.837 207.864 154.689 207.558 154.744 207.992M154.596 207.307C154.899 206.883 155.111 204.169 154.947 203.256" stroke="black" stroke-linecap="round" stroke-linejoin="round"/>
<path d="M138.137 167.839C137.965 166.736 137.964 165.828 137.591 163.747L136.285 163.535C136.285 164.467 136.463 166.135 136.682 167.211C136.9 168.288 137.922 171.477 138.806 171.209C139.148 170.743 138.316 168.979 138.137 167.839Z" fill="black"/>
<path d="M139.924 235.864C139.895 237.461 140.858 238.522 142.365 238.55C144.157 238.583 145.309 237.56 145.339 235.964C145.368 234.367 144.747 233.018 142.307 232.974C140.516 232.941 139.954 234.268 139.924 235.864Z" fill="#0240BE"/>
<path d="M144.583 237.857C143.945 238.161 142.607 238.705 141.663 238.435C140.909 238.219 140.683 237.912 140.664 237.786M142.004 235.364C142.285 235.194 142.926 234.962 143.25 235.387C143.656 235.918 143.185 236.565 142.901 236.581C142.616 236.598 142 236.783 141.698 236.559M145.693 239.964C145.971 240.067 146.56 240.349 146.689 240.653M142.827 240.582C143.169 240.23 143.855 239.69 143.874 240.354C143.896 241.184 143.375 240.797 143.389 242.041C143.402 243.037 145.136 244.951 146.002 245.784M146.803 234.448C147.167 234.274 147.988 234.035 148.361 234.476C148.734 234.917 149.38 235.012 149.657 235.004M146.363 236.645L147.131 236.85M142.07 231.781L142.54 230.739M138.686 238.062L137.668 238.043" stroke="black" stroke-linecap="round" stroke-linejoin="round"/>
<path d="M132.62 240.556C131.845 240.542 128.42 240.479 126.176 240.438C124.652 240.41 122.87 240.086 122.301 239.875M102.66 238.391C102.069 238.731 100.488 239.402 98.8983 239.373C96.9098 239.337 91.6904 240.591 89.7043 240.438C87.7182 240.284 82.8985 240.313 80.8713 240.276C79.9355 240.259 77.206 239.911 76.0801 239.656" stroke="black" stroke-linecap="round" stroke-linejoin="round"/>
<path d="M92.8136 241.513C92.171 241.647 90.7761 241.914 90.3376 241.906C89.7889 241.896 87.8696 241.861 87.1565 241.848C86.5859 241.838 84.6106 242.057 83.6943 242.168" stroke="black" stroke-linecap="round" stroke-linejoin="round"/>
<path d="M154.575 206.686C154.969 211.144 154.768 212.115 154.576 217.774C154.333 224.887 153.956 236.498 153.107 238.894C152.073 241.809 151.566 245.013 151.296 248.568C151.067 251.568 151.814 255.982 151.749 259.52C151.688 262.864 151.559 267.99 151.482 274.032C151.381 281.95 150.513 289.744 150.307 292.955C149.945 298.618 149.881 316.142 149.786 321.294C149.692 326.446 150.933 337.65 150.259 340.583" stroke="black" stroke-linecap="round" stroke-linejoin="round"/>
<path d="M196.33 53.8096C191.805 54.9457 176.177 55.0562 168.929 54.9691C161.155 55.7789 172.579 73.8457 173.279 77.6226C173.979 81.3998 181.349 78.2058 183.618 77.0645C185.434 76.1512 195.071 74.9665 199.662 74.4882C196.853 73.3851 192.606 73.7898 191.986 72.1692C191.489 70.8727 201.039 66.7009 205.875 64.7773C202.211 65.3102 194.643 66.0818 193.688 64.9032C192.732 63.7251 202.794 59.5193 207.945 57.5635C198.526 58.9095 193.814 59.0004 192.555 57.8708C191.547 56.9673 194.652 54.7868 196.33 53.8096Z" fill="#6E4E2F" stroke="black" stroke-linejoin="round"/>
<path d="M175.213 89.1508C175.491 95.6433 177.369 100.621 179.516 105.251C183.772 114.431 178.634 133.479 177.954 136.544C176.898 141.31 174.355 147.213 169.647 151.784C164.939 156.355 158.725 156.083 144.501 156.722C130.276 157.361 124.768 152.492 116.168 149.552C107.569 146.611 105.716 143.614 103.999 141.248C102.282 138.883 100.767 121.767 100.905 117.447C101.041 113.127 98.7299 112.301 96.5248 106.013C94.7605 100.983 95.1453 96.0792 95.2084 92.6465C95.2943 87.9666 94.2118 85.0728 93.6585 78.7402C93.1051 72.4075 94.0848 67.8787 97.3289 62.2258C100.173 57.2704 103.87 52.7998 111.94 46.6327C120.831 39.8379 129.323 38.9298 140.231 39.6707C149.569 40.3049 155.728 41.2163 162.767 46.2115C165.419 48.0934 169.977 51.7504 172.616 55.4936C175.453 59.5166 177.122 64.6921 177.234 68.8204C177.437 76.2538 174.866 81.0353 175.213 89.1508Z" fill="#0054FF" stroke="black" stroke-linejoin="round"/>
<path d="M146.393 155.109C147.137 155.123 149.062 155.158 150.802 155.19" stroke="black" stroke-linecap="round"/>
<path d="M174.787 64.2668C172.93 60.4322 161.588 56.1831 157.043 64.8561" stroke="black" stroke-linecap="round"/>
<path d="M154.049 67.832C153.161 69.0027 151.297 71.8037 150.955 73.6448C150.613 75.4859 150.761 77.2016 150.878 77.8291M143.179 71.9627C143.375 72.6559 143.722 74.4071 143.541 75.8663C143.36 77.3256 142.678 79.1219 142.36 79.838M141.159 84.8676C141.147 85.5086 140.87 86.9982 139.852 87.8262C138.834 88.6542 137.676 89.1013 137.224 89.2216M166.605 97.89C165.8 97.9715 164.141 98.2009 163.944 98.4667C163.746 98.7324 163.267 99.4644 163.052 99.7973M160.851 98.9394L159.495 99.2993M155.995 98.3212C155.415 98.4065 154.101 98.5753 153.485 98.5636C152.714 98.5497 150.645 98.3674 150.108 98.7427M146.248 99.0569C145.743 98.5343 144.638 97.4876 144.252 97.4806C143.867 97.4736 143.546 97.4676 143.434 97.4657M135.898 98.4825C134.697 98.2681 132.113 97.7781 131.385 97.5338M173.614 88.8295C172.832 89.4085 171.047 90.5624 170.161 90.5461C169.275 90.5298 168.764 90.5205 168.619 90.5181M135.167 63.7955C133.793 61.7147 128.907 57.7249 120.352 58.4139C111.796 59.103 108.68 64.4202 108.192 66.9923M106.559 66.0492C106.381 66.8678 105.835 68.7798 105.075 69.8768M107.671 70.6302C106.971 71.2508 105.512 72.7296 105.277 73.6812C105.042 74.6322 104.968 75.7022 104.96 76.1185M103.252 80.2679C102.472 80.2898 100.596 80.3933 99.3301 80.6306M103.803 82.8297C102.03 84.6652 101.326 85.4448 101.197 85.6056" stroke="black" stroke-linecap="round"/>
<path d="M154.493 152.54C152.378 153.107 145.642 152.393 142.248 151.916C140.55 151.677 141.196 152.405 142.142 152.56C143.088 152.716 153.319 153.77 154.352 153.399C155.962 152.82 158 152.069 158.136 151.516C158.395 150.464 156.608 151.974 154.493 152.54Z" fill="black"/>
<path d="M108.068 72.1746C111.031 67.3832 116.839 63.8544 126.665 64.9985C131.693 65.5836 136.171 67.8303 137.602 71.9466C139.033 76.0628 139.449 81.6579 133.25 86.6758C129.438 89.7612 120.162 92.0163 113.037 88.6875C105.913 85.3587 104.428 78.061 108.068 72.1746Z" fill="white" stroke="black" stroke-linejoin="round"/>
<path d="M157.919 68.268C161.898 64.522 168.454 64.8269 174.187 67.4647C176.51 69.0681 178.435 71.0551 178.773 74.2869C179.11 77.5187 178.077 80.7277 175.669 84.2066C173.26 87.6855 170.219 88.0259 164.546 87.6375C158.873 87.2491 156.467 84.7651 154.583 80.3342C152.699 75.9037 153.939 72.0141 157.919 68.268Z" fill="white" stroke="black" stroke-linejoin="round"/>
<path d="M112.347 78.115C112.667 81.2312 116.611 82.9827 119.929 82.6555C123.246 82.3282 126.075 80.3817 125.622 75.9638C125.169 71.5464 121.205 69.6806 116.474 71.3511C112.848 72.6308 112.028 74.9992 112.347 78.115Z" fill="black"/>
<path d="M164.723 101.6C157.882 101.404 152.272 103.239 142.958 102.078C138.632 101.587 133.114 100.65 128.733 100.524C123.794 100.382 120.715 101.616 118.394 102.786C116.073 103.956 113.329 106.791 112.555 108.739C111.562 111.24 110.579 112.675 112.831 116.758C115.083 120.841 120.198 125.223 127.245 127.36C134.293 129.498 145.518 129.509 156.852 129.091C168.187 128.672 177.892 123.177 180.613 120.13C183.334 117.083 180.923 111.821 177.908 107.757C175.246 104.167 171.563 101.797 164.723 101.6Z" fill="#E25A2A" stroke="black"/>
<path d="M144.29 113.726C138.454 113.798 129.027 112.705 123.059 111.901C130.144 114.001 142.787 114.709 149.272 114.531C154.459 114.388 158.487 114.052 159.915 113.737C166.458 113.44 168.907 111.347 169.24 111.059C169.617 110.733 169.534 110.528 169.334 110.47C169.024 110.381 168.773 110.843 168.45 111.002C168.016 111.216 166.819 111.772 165.384 112.15C164.15 112.475 161.096 112.873 159.282 112.952C156.58 113.416 151.585 113.635 144.29 113.726Z" fill="black" stroke="black" stroke-linejoin="round"/>
<path d="M115.028 101.48C113.764 103.018 110.947 106.307 109.797 107.157C108.359 108.22 105.647 113.289 107.746 117.848C109.844 122.406 109.534 121.474 110.445 122.362C111.173 123.072 112.615 123.999 113.244 124.374" stroke="black" stroke-linecap="round"/>
<path d="M148.433 135.621C149.042 135.462 150.278 135.451 150.347 136.678C150.433 138.213 150.193 138.89 150.684 139.977C151.176 141.065 152.35 142.222 152.394 142.904C152.438 143.586 153.074 146.096 153.404 146.726M144.297 137.873C144.303 137.533 144.201 136.952 143.738 137.352C143.16 137.853 143.126 139.726 143.679 140.587C144.231 141.449 144.33 142.302 144.492 142.759C144.654 143.217 145.395 143.116 145.498 143.686C145.602 144.256 145.441 146.808 145.433 147.261M141.578 137.312C141.348 137.441 140.875 137.822 140.82 138.321C140.752 138.944 141.171 140.882 140.768 141.158C140.365 141.435 139.515 141.249 139.699 140.514C139.847 139.926 141.315 140.298 142.03 140.557M137.799 138.719C138.073 138.233 138.46 137.403 137.812 137.982C137.003 138.705 136.256 139.146 135.739 139.42C135.325 139.639 133.886 140.162 133.219 140.396M130.247 138.127C129.905 138.159 129.209 138.29 129.158 138.561M158.216 135.517C158.707 135.62 159.71 135.896 159.796 136.17M152.531 135.413C153.363 135.541 155.029 136.298 155.037 138.297C155.048 140.796 154.418 141.068 154.366 140.783C154.315 140.498 155.956 139.044 157.126 141.295M163.391 140.066C163.94 140.614 164.29 140.894 164.397 140.967M163.736 134.432L164.218 134.575" stroke="black" stroke-linecap="round"/>
<path d="M161.677 69.3335L160.404 69.3102M160.404 69.3102L159.995 68.4547L158.828 67.7265M160.404 69.3102L160.971 71.1108L162.995 72.122M158.079 69.9741L156.717 69.6198M158.027 72.7999L156.646 73.481L156.348 74.2764M156.348 74.2764L154.139 73.8591M156.348 74.2764L158.431 73.9379L160.294 75.268M154.063 77.9562L154.629 77.9665L155.776 79.7306M155.776 79.7306C156.042 79.8299 156.677 80.03 157.092 80.0374M155.776 79.7306L157.129 78.0126L158.356 78.035M160.785 81.2137L158.566 81.996L158.259 83.3L157.022 83.852M162.251 86.9155L162.438 85.6707C162.087 85.5462 161.386 85.1849 161.394 84.7327M167.768 84.5196C167.572 84.9322 167.094 85.756 166.755 85.7495L166.736 86.7267M166.736 86.7267L166.719 87.7039L166.958 83.6292M166.736 86.7267C166.27 86.4759 165.327 85.8805 165.289 85.5066M173.767 84.8297C173.857 85.48 173.869 85.487 173.612 86.2115M177.182 81.0822C176.985 80.4924 177.182 80.3521 176.61 80.16M178.343 72.9169C178.132 73.3206 177.589 74.1584 177.099 74.2796M177.099 74.2796C176.609 74.4008 175.837 74.6587 175.512 74.7724C175.435 74.937 175.247 75.3207 175.11 75.5393M177.099 74.2796C176.842 74.2186 176.277 74.0899 176.078 74.0642M176.541 69.9825C176.423 70.3793 176.125 71.2152 175.879 71.3835M173.957 67.4449C173.626 68.3792 172.909 70.2459 172.687 70.2417M172.687 70.2417C172.465 70.2375 171.666 70.555 171.294 70.714L170.946 71.5373M172.687 70.2417C172.737 70.5224 172.803 71.1322 172.667 71.3247M170.574 66.1665C170.384 66.3283 170.103 66.5856 169.856 66.8495M169.856 66.8495C169.579 67.1456 169.344 67.45 169.329 67.637M169.856 66.8495C169.364 66.7222 168.38 66.5386 168.374 66.822M165.045 65.6509C165.038 66.0523 165.026 66.6826 165.015 67.2812M165.015 67.2812C165.003 67.8994 164.993 68.4832 164.988 68.7461M165.015 67.2812C165.362 67.4999 166.054 68.0193 166.048 68.3512" stroke="#E25A2A" stroke-linecap="round" stroke-linejoin="round"/>
<path d="M177.562 76.9043L178.104 77.1761L178.329 78.0088" stroke="#D95F32" stroke-linecap="round"/>
<path d="M157.917 68.2678C161.897 64.5217 168.452 64.8271 174.185 67.4649C176.509 69.0678 178.433 71.0553 178.771 74.2871C179.108 77.5185 178.075 80.7274 175.667 84.2064C173.258 87.6857 170.217 88.0256 164.544 87.6372C158.871 87.2494 156.465 84.7649 154.581 80.3344C152.697 75.9035 153.937 72.0138 157.917 68.2678Z" stroke="black" stroke-linejoin="round"/>
<path d="M132.575 66.5812C132.354 66.8241 132.005 67.1943 131.647 67.5407C131.183 67.4279 130.112 67.2629 129.54 67.502M127.189 65.0026C126.901 65.3635 126.255 66.0833 125.971 66.0782M125.971 66.0782C125.616 66.0717 124.262 67.2405 124.297 67.7659M125.971 66.0782L126.345 67.4433L126.323 68.6144M121.243 64.894L121.223 65.9915L121.875 66.7192L121.857 67.7216M119.512 64.8623L119.492 65.9598" stroke="#D95F32" stroke-linecap="round" stroke-linejoin="round"/>
<path d="M113.663 66.8076L115.163 67.2645L116.074 67.8664L116.061 68.5531M111.187 68.6716L111.53 69.9168L112.111 70.5672M109.182 73.9916C108.515 74.2876 108.157 75.3305 107.987 75.725L107.97 76.6318L106.68 77.2285M107.188 80.9611C107.005 81.3014 106.717 81.6683 106.596 81.8091M107.188 80.9611L108.43 81.1713L109.53 80.6021M107.188 80.9611L107.9 80.4394M110.149 86.4703C110.615 86.0493 110.912 85.2787 110.92 84.8204C110.931 84.2479 112.678 84.1295 112.862 83.7509" stroke="#D95F32" stroke-linecap="round" stroke-linejoin="round"/>
<path d="M116.283 89.5414L116.304 88.3959L115.515 87.8089L115.136 86.5156M115.136 86.5156L115.563 85.2606M115.136 86.5156L117.111 86.1548L117.89 84.785M120.782 89.9927L120.803 88.8476M120.803 88.8476L120.335 87.7413L120.859 85.8415M120.803 88.8476L122.183 86.2475L122.519 84.8694M125.315 89.7064C125.549 89.0108 126.067 87.8942 126.287 87.5161L125.377 86.3063M130.324 88.0798C130.613 87.6238 130.097 86.9268 130.036 86.3916C130.007 86.1305 129.292 85.5743 129.308 84.9939M134.212 85.0839L133.636 83.7845L132.267 83.3775L130.95 81.9891L128.396 81.1583M137.51 80.2436L136.129 80.9182M136.129 80.9182L135.576 79.6669M136.129 80.9182L133.682 81.2553M138.069 74.3665C137.649 74.6933 136.692 75.4201 136.225 75.7171C135.967 75.8812 135.731 76.2784 135.528 76.6742C135.272 77.175 135.07 77.6743 134.946 77.6985L132.822 77.6598M132.822 77.6598L132.036 76.6104L130.183 76.3521M132.822 77.6598L132.007 78.1936M135.11 68.728C134.808 69.0567 134.203 69.7994 134.197 70.143M134.197 70.143C134.189 70.5724 134.176 71.288 134.168 71.7179C134.165 71.868 133.902 72.2247 133.545 72.6382L134.131 73.7217L134.114 74.6285M134.197 70.143C133.792 70.4381 132.814 70.9864 132.142 70.8213C131.471 70.6563 130.125 71.9151 129.536 72.565L127.392 72.8359" stroke="#D95F32" stroke-linecap="round" stroke-linejoin="round"/>
<path d="M108.066 72.1746C111.028 67.3838 116.834 63.8554 126.657 64.9995C131.682 65.5846 136.159 67.8313 137.589 71.948C139.02 76.0643 139.436 81.6594 133.24 86.6773C129.43 89.7622 120.156 92.0168 113.034 88.6881C105.912 85.3593 104.427 78.0611 108.066 72.1746Z" stroke="black" stroke-linejoin="round"/>
<path d="M164.23 77.2009C164.186 79.8668 165.867 82.4347 168.646 82.9918C172.969 83.8585 174.484 80.4854 174.529 77.8196C174.574 75.1538 172.094 72.6143 169.298 72.5672C166.5 72.5206 164.275 74.5351 164.23 77.2009Z" fill="black"/>
<path d="M75.4115 84.5171C75.462 86.0776 71.6631 88.3024 69.9548 88.9299C74.0535 89.3653 77.7633 88.9914 83.3521 89.0357C91.2063 89.0977 95.2429 98.803 97.0473 92.2769C97.4312 90.8889 95.9392 83.326 97.3228 77.3225C98.9264 70.3619 100.956 66.1365 99.5606 63.2637C98.4156 60.9056 94.4602 65.6013 87.752 66.8951C82.3854 67.9301 73.8709 69.0084 70.5213 68.7716C72.2216 70.7297 77.5965 70.7637 76.9035 72.5479C76.4711 73.6613 66.9699 73.9266 62.555 74.5392C66.0214 76.1299 73.1607 76.0474 72.9659 78.6759C72.845 80.2998 63.5702 81.8322 59.9287 82.808C63.8864 84.1041 75.3616 82.9563 75.4115 84.5171Z" fill="#6E4E2F" stroke="black" stroke-linecap="round" stroke-linejoin="round"/>
<g style="mix-blend-mode:darken">
<path d="M67.7849 317.845L67.3898 339.353L58.5186 339.191L58.7637 325.833L58.9958 313.2L59.2414 299.841L61.6455 279.84L63.3453 266.508L63.604 252.424L64.841 240.536L65.1049 226.161L65.3262 214.109L67.2292 205.574L69.7163 212.737C69.6169 215.495 69.4403 221.418 69.5267 223.046C69.6351 225.082 67.9325 238.559 69.2041 240.616C70.4757 242.673 70.2328 254.309 70.1903 256.632L69.8686 274.128C69.834 276.016 68.3649 286.307 68.306 289.501L68.1132 300.004C68.6138 304.419 67.8662 313.431 67.7849 317.845Z" fill="#0240BE"/>
</g>
<g style="mix-blend-mode:darken">
<path d="M71.8032 214.901V213.186L68.0454 217.795L66.6496 221.011L65.039 224.549L64.2871 236.876L65.039 238.29L66.1256 236.876L67.2935 234.622V233.339C67.5443 232.624 68.0454 231.131 68.0454 230.873V227.657V226.371V225.62V224.549V222.833L68.6894 221.869L69.9778 220.261V218.867V217.795L70.837 216.402L71.8032 214.901Z" fill="#C3C3C3"/>
</g>
<g style="mix-blend-mode:darken">
<path d="M65.9605 248.539L64.6847 233.437L62.8625 257.636L61.0399 279.288L58.853 297.665L58.124 313.859L58.853 326.777L58.124 342.607C59.7034 343.456 63.2267 345.227 64.6847 345.518C66.1426 345.809 65.2922 342.849 64.6847 341.333L67.4184 336.613L65.9605 329.089L67.4184 318.953L64.6847 305.489L65.9605 301.85L64.6847 288.022L65.9605 278.014L64.6847 266.188L65.9605 248.539Z" fill="#D0D0D0"/>
</g>
<path d="M84.6025 230.878L86.1384 230.38M84.2158 231.869C85.578 231.894 86.1136 231.746 86.1048 232.22C86.0978 232.598 87.5608 233.56 88.293 233.994" stroke="black" stroke-linecap="round"/>
<path d="M77.5579 230.047C77.493 229.527 77.2572 228.485 76.8294 228.477C76.4022 228.469 75.6825 227.893 75.3757 227.606L75.3888 226.895M76.7743 231.5C76.1957 231.475 74.9956 231.334 74.8242 230.975M76.744 233.145L76.3732 233.938" stroke="black" stroke-linecap="round" stroke-linejoin="round"/>
<path d="M77.8069 232.532C77.7775 234.128 78.251 235.125 79.7585 235.153C81.5493 235.186 83.1917 234.227 83.2211 232.631C83.2506 231.035 82.6299 229.686 80.189 229.641C78.3981 229.609 77.8364 230.935 77.8069 232.532Z" fill="#0240BE"/>
<path d="M82.7802 233.987C82.3637 234.571 81.2228 234.951 80.768 235.227M80.0414 232.019C80.4845 231.876 81.3671 231.775 81.3531 232.517C81.3363 233.445 80.2085 233.772 80.0138 233.536C79.8191 233.301 79.3801 233.467 79.4474 232.975" stroke="black" stroke-linecap="round" stroke-linejoin="round"/>
<path d="M144.902 167.598L149.311 170.213C150.083 170.634 147.965 176.936 147.984 181.059C147.995 183.593 148.507 187.638 148.369 189.828C148.154 193.227 148.868 196.816 148.915 200.761C148.969 205.158 149.783 208.32 149.783 210.672C149.783 213.025 151.038 215.805 152.175 218.595C153.193 221.09 154.92 225.363 154.92 228.29C154.92 234.488 154.053 238.376 153.282 244.761C152.84 248.425 152.366 253.334 151.838 261.136C151.531 265.674 151.945 271.23 151.838 275.982C151.709 281.691 151.376 288.597 150.836 293.059C150.352 297.065 150.471 301.069 150.836 306.213C151.196 311.265 150.84 315.132 151.106 320.342C151.287 323.903 150.762 327.243 150.836 330.519C150.925 334.461 150.985 337.917 150.836 340.98C150.836 344.526 147.218 346.755 141.558 347.715C137.719 348.366 133.215 348.583 128.915 348.583C124.836 348.583 118.902 349.022 112.492 349.497L112.449 349.5C107.354 349.877 101.959 350.276 96.9566 350.494C91.8408 350.717 87.1346 350.751 83.5761 350.379C79.1179 349.912 75.9354 349.496 73.3964 348.865C69.427 347.878 61.5051 345.471 58.2605 342.435V330.519L57.7959 313.55L59.0964 299.269L61.0933 279.1L62.858 258.329L63.2759 249.195L64.0184 239.515L64.8501 224.037C66.3183 222.216 66.7218 219.679 68.7569 216.237C70.8775 212.65 73.7826 211.409 74.4765 208.069C74.9197 205.936 75.5291 202.7 76.054 198.865C76.4556 195.929 76.8082 192.641 76.9987 189.227C77.2607 184.528 78.2231 178.758 77.5801 174.165C76.9595 169.735 75.5907 164.369 73.2063 161.378C71.7792 159.587 68.9675 156.882 66.4057 157.832C66.5416 157.536 66.4552 157.286 67.5899 156.665C68.558 156.135 74.0151 154.36 75.1574 154.182C76.2996 154.004 80.4969 157.095 84.0203 161.378C86.0852 163.888 87.3041 169.852 88.302 175.261C89.0067 179.082 89.7786 186.059 90.6589 190.674C91.117 193.075 95.4707 200.756 98.5182 201.982C102.212 203.467 107.18 204.538 111.694 205.059C115.284 205.473 121.187 205.703 124.33 205.598C127.349 205.496 129.569 203.905 131.11 202.751C133.198 201.188 136.412 194.149 137.428 191.444C138.296 189.134 139.466 183.617 139.662 181.059C139.977 176.966 140.587 174.136 140.587 172.213C140.587 170.309 140.635 166.526 139.662 166.074C141.29 165.565 144.17 167.385 144.902 167.598Z" fill="#E9E9E9"/>
<path d="M149.311 170.213L149.087 170.622L149.08 170.618L149.072 170.614L149.311 170.213ZM144.901 167.598L145.032 167.15L145.089 167.167L145.14 167.197L144.901 167.598ZM139.662 166.074L139.465 166.497L138.372 165.989L139.522 165.629L139.662 166.074ZM66.4053 157.832L66.5678 158.269L65.5115 158.661L65.9809 157.638L66.4053 157.832ZM63.2756 249.196L62.8091 249.174L62.8096 249.167L62.81 249.16L63.2756 249.196ZM62.8577 258.329L63.3242 258.351L63.3237 258.36L63.3228 258.369L62.8577 258.329ZM61.0929 279.101L61.5581 279.14V279.144L61.5576 279.147L61.0929 279.101ZM59.0961 299.27L58.631 299.227V299.226V299.224L59.0961 299.27ZM64.8498 224.038L64.3838 224.013L64.3917 223.863L64.486 223.745L64.8498 224.038ZM64.0181 239.515L64.4842 239.54V239.545L64.4837 239.551L64.0181 239.515ZM57.7956 313.55L57.3286 313.563L57.3281 313.535L57.3305 313.508L57.7956 313.55ZM58.2602 330.519L58.7267 330.507L58.7272 330.513V330.519H58.2602ZM58.2602 342.435L57.9408 342.775L57.7932 342.637V342.435H58.2602ZM150.836 340.98H150.369V340.969L150.369 340.958L150.836 340.98ZM149.072 170.614L144.663 167.998L145.14 167.197L149.549 169.812L149.072 170.614ZM144.771 168.045C144.54 167.978 144.175 167.8 143.799 167.618C143.4 167.425 142.932 167.199 142.439 166.996C141.945 166.793 141.441 166.619 140.972 166.525C140.498 166.43 140.102 166.425 139.802 166.519L139.522 165.629C140.036 165.469 140.61 165.501 141.156 165.61C141.708 165.721 142.275 165.92 142.796 166.134C143.318 166.349 143.809 166.587 144.206 166.779C144.627 166.982 144.897 167.111 145.032 167.15L144.771 168.045ZM139.859 165.651C140.094 165.761 140.261 165.952 140.38 166.147C140.5 166.344 140.592 166.578 140.665 166.824C140.81 167.316 140.898 167.927 140.954 168.558C141.066 169.824 141.053 171.269 141.053 172.213H140.12C140.12 171.253 140.131 169.855 140.024 168.64C139.97 168.031 139.888 167.492 139.769 167.088C139.71 166.886 139.646 166.735 139.582 166.632C139.518 166.527 139.473 166.5 139.465 166.497L139.859 165.651ZM83.6594 161.674C81.918 159.558 80.0118 157.738 78.4063 156.473C77.6027 155.84 76.883 155.354 76.3049 155.038C76.0149 154.881 75.7707 154.772 75.5755 154.707C75.3695 154.64 75.2631 154.638 75.229 154.643L75.0851 153.722C75.3364 153.683 75.611 153.738 75.8673 153.822C76.134 153.909 76.4324 154.046 76.7518 154.22C77.3916 154.569 78.156 155.088 78.9849 155.741C80.6441 157.048 82.598 158.915 84.3809 161.082L83.6594 161.674ZM75.229 154.643C74.7036 154.725 73.0939 155.198 71.4534 155.735C70.6427 156 69.8395 156.275 69.1806 156.516C68.5086 156.763 68.0197 156.961 67.8138 157.074L67.365 156.256C67.6433 156.104 68.2 155.882 68.8589 155.641C69.5309 155.395 70.3448 155.116 71.1625 154.849C72.7783 154.32 74.4683 153.818 75.0851 153.722L75.229 154.643ZM67.8138 157.074C67.2637 157.375 67.0699 157.556 66.9923 157.656C66.9587 157.699 66.9414 157.735 66.9242 157.779C66.9172 157.798 66.8691 157.941 66.8298 158.026L65.9809 157.638C66.0098 157.575 66.0019 157.577 66.0523 157.445C66.0925 157.34 66.1499 157.219 66.2536 157.085C66.4506 156.831 66.7808 156.576 67.365 156.256L67.8138 157.074ZM66.2428 157.395C67.7288 156.845 69.2348 157.374 70.4858 158.187C71.7458 159.006 72.8418 160.172 73.5717 161.088L72.8408 161.669C72.1436 160.794 71.1195 159.712 69.9764 158.969C68.8243 158.219 67.6438 157.871 66.5678 158.269L66.2428 157.395ZM152.818 244.705C153.593 238.281 154.453 234.451 154.453 228.29H155.387C155.387 234.525 154.511 238.472 153.746 244.817L152.818 244.705ZM63.7421 249.217L63.3242 258.351L62.3912 258.308L62.8091 249.174L63.7421 249.217ZM63.3228 258.369L61.5581 279.14L60.6278 279.062L62.3926 258.29L63.3228 258.369ZM61.5576 279.147L59.5608 299.316L58.631 299.224L60.6283 279.055L61.5576 279.147ZM131.39 203.125C129.847 204.28 127.524 205.957 124.345 206.064L124.314 205.132C127.175 205.036 129.29 203.531 130.829 202.379L131.39 203.125ZM124.345 206.064C121.179 206.17 115.253 205.939 111.64 205.522L111.747 204.596C115.315 205.008 121.195 205.237 124.314 205.132L124.345 206.064ZM111.64 205.522C107.101 204.999 102.088 203.921 98.3432 202.415L98.6921 201.55C102.335 203.015 107.258 204.078 111.747 204.596L111.64 205.522ZM98.3432 202.415C97.4802 202.068 96.579 201.293 95.7225 200.349C94.8563 199.394 93.9966 198.222 93.2242 197.021C92.4513 195.819 91.7597 194.579 91.2306 193.484C90.7076 192.401 90.3265 191.425 90.2 190.762L91.1176 190.588C91.2199 191.125 91.5552 192.009 92.0721 193.079C92.5835 194.138 93.2564 195.346 94.0101 196.517C94.7643 197.69 95.5932 198.818 96.4146 199.723C97.2463 200.639 98.0313 201.284 98.6921 201.55L98.3432 202.415ZM90.2 190.762C89.7573 188.441 89.3426 185.531 88.9517 182.735C88.5599 179.93 88.1924 177.243 87.8422 175.345L88.7607 175.176C89.1156 177.1 89.4864 179.812 89.8768 182.605C90.2682 185.406 90.6796 188.293 91.1176 190.588L90.2 190.762ZM87.8422 175.345C87.3435 172.641 86.7924 169.816 86.1111 167.357C85.4246 164.88 84.6237 162.847 83.6594 161.674L84.3809 161.082C85.4811 162.42 86.3222 164.623 87.011 167.108C87.7044 169.611 88.262 172.472 88.7607 175.176L87.8422 175.345ZM73.5717 161.088C74.8148 162.647 75.774 164.798 76.4996 167.092C77.2267 169.391 77.7292 171.867 78.0421 174.1L77.117 174.229C76.8092 172.033 76.317 169.611 75.6091 167.372C74.8988 165.127 73.9817 163.099 72.8408 161.669L73.5717 161.088ZM78.0421 174.1C78.3708 176.448 78.2877 179.079 78.0944 181.691C77.8983 184.333 77.5956 186.899 77.4644 189.253L76.5319 189.201C76.6626 186.857 76.9727 184.188 77.1628 181.622C77.3552 179.025 77.4317 176.475 77.117 174.229L78.0421 174.1ZM77.4644 189.253C77.273 192.683 76.9195 195.983 76.5165 198.929L75.5909 198.802C75.9916 195.876 76.3423 192.601 76.5319 189.201L77.4644 189.253ZM76.5165 198.929C75.9897 202.777 75.3784 206.023 74.9334 208.164L74.019 207.975C74.4603 205.85 75.0679 202.625 75.5909 198.802L76.5165 198.929ZM154.453 228.29C154.453 226.902 154.039 225.158 153.484 223.423C152.931 221.696 152.252 220.019 151.743 218.771L152.608 218.419C153.116 219.666 153.809 221.374 154.374 223.139C154.936 224.895 155.387 226.752 155.387 228.29H154.453ZM151.743 218.771C151.179 217.388 150.572 215.975 150.11 214.621C149.648 213.265 149.315 211.925 149.315 210.673H150.249C150.249 211.773 150.544 213 150.995 214.32C151.445 215.641 152.034 217.013 152.608 218.419L151.743 218.771ZM149.315 210.673C149.315 209.535 149.118 208.197 148.906 206.543C148.695 204.904 148.475 202.993 148.449 200.766L149.382 200.755C149.408 202.927 149.623 204.796 149.832 206.424C150.04 208.039 150.249 209.458 150.249 210.673H149.315ZM148.449 200.766C148.425 198.816 148.237 196.955 148.078 195.13C147.92 193.315 147.793 191.537 147.903 189.799L148.835 189.858C148.73 191.519 148.851 193.235 149.009 195.05C149.165 196.856 149.358 198.761 149.382 200.755L148.449 200.766ZM147.903 189.799C147.969 188.741 147.879 187.215 147.766 185.606C147.655 184.014 147.522 182.348 147.517 181.061L148.45 181.057C148.456 182.305 148.585 183.928 148.698 185.541C148.81 187.134 148.906 188.726 148.835 189.858L147.903 189.799ZM147.517 181.061C147.507 178.943 148.044 176.285 148.472 174.156C148.688 173.078 148.876 172.141 148.963 171.447C149.007 171.098 149.021 170.838 149.009 170.665C149.002 170.577 148.991 170.536 148.987 170.525C148.982 170.514 149.002 170.577 149.087 170.622L149.534 169.804C149.715 169.902 149.809 170.063 149.859 170.192C149.908 170.322 149.93 170.464 149.94 170.597C149.96 170.865 149.935 171.198 149.89 171.564C149.797 172.299 149.601 173.275 149.387 174.34C148.953 176.498 148.441 179.053 148.45 181.057L147.517 181.061ZM141.053 172.213C141.053 173.212 140.896 174.434 140.705 175.883C140.513 177.344 140.284 179.063 140.127 181.095L139.196 181.024C139.355 178.963 139.588 177.221 139.779 175.762C139.972 174.292 140.12 173.137 140.12 172.213H141.053ZM140.127 181.095C140.027 182.405 139.68 184.448 139.253 186.442C138.826 188.435 138.311 190.419 137.865 191.608L136.99 191.28C137.411 190.159 137.915 188.23 138.34 186.247C138.764 184.266 139.101 182.271 139.196 181.024L140.127 181.095ZM137.865 191.608C137.35 192.979 136.285 195.432 135.085 197.74C134.485 198.895 133.847 200.022 133.225 200.963C132.609 201.891 131.98 202.683 131.39 203.125L130.829 202.379C131.283 202.039 131.839 201.364 132.445 200.448C133.044 199.545 133.664 198.45 134.256 197.311C135.439 195.033 136.489 192.614 136.99 191.28L137.865 191.608ZM65.3163 224.063L64.4842 239.54L63.5516 239.49L64.3838 224.013L65.3163 224.063ZM64.4837 239.551L63.7412 249.231L62.81 249.16L63.5525 239.479L64.4837 239.551ZM74.9334 208.164C74.5598 209.963 73.5866 211.185 72.4957 212.376C71.3969 213.574 70.1874 214.734 69.1587 216.474L68.3545 216.001C69.4463 214.153 70.7497 212.899 71.8069 211.746C72.8721 210.584 73.6987 209.516 74.019 207.975L74.9334 208.164ZM69.1587 216.474C68.1598 218.164 67.5616 219.631 67.0218 220.925C66.4871 222.207 65.9963 223.359 65.2136 224.33L64.486 223.745C65.1716 222.895 65.6166 221.868 66.1597 220.566C66.6972 219.276 67.3183 217.753 68.3545 216.001L69.1587 216.474ZM151.371 261.105C151.9 253.298 152.375 248.379 152.818 244.705L153.746 244.817C153.304 248.47 152.831 253.372 152.304 261.168L151.371 261.105ZM150.372 293.003C150.909 288.565 151.242 281.677 151.371 275.972L152.305 275.993C152.176 281.706 151.842 288.63 151.3 293.115L150.372 293.003ZM151.371 275.972C151.424 273.609 151.348 271.046 151.296 268.489C151.244 265.939 151.216 263.397 151.371 261.105L152.304 261.168C152.151 263.414 152.177 265.919 152.229 268.47C152.281 271.013 152.358 273.604 152.305 275.993L151.371 275.972ZM59.5612 299.312L58.2607 313.592L57.3305 313.508L58.631 299.227L59.5612 299.312ZM58.2626 313.537L58.7267 330.507L57.7932 330.532L57.3286 313.563L58.2626 313.537ZM58.7272 330.519V342.435H57.7932V330.519H58.7272ZM150.37 306.246C150.004 301.096 149.882 297.055 150.372 293.003L151.3 293.115C150.821 297.075 150.936 301.043 151.302 306.18L150.37 306.246ZM150.639 320.366C150.505 317.746 150.528 315.462 150.539 313.216C150.55 310.968 150.548 308.753 150.37 306.246L151.302 306.18C151.483 308.725 151.484 310.97 151.473 313.22C151.462 315.473 151.44 317.729 151.571 320.319L150.639 320.366ZM150.369 340.958C150.517 337.914 150.459 334.474 150.369 330.53L151.303 330.509C151.392 334.449 151.452 337.921 151.302 341.003L150.369 340.958ZM150.369 330.53C150.331 328.869 150.446 327.193 150.544 325.51C150.644 323.821 150.728 322.118 150.639 320.366L151.571 320.319C151.664 322.127 151.576 323.875 151.477 325.565C151.377 327.263 151.266 328.895 151.303 330.509L150.369 330.53ZM128.914 348.117C133.204 348.117 137.677 347.9 141.479 347.256L141.635 348.175C137.759 348.832 133.227 349.05 128.914 349.05V348.117ZM141.479 347.256C144.276 346.781 146.52 346 148.052 344.935C149.571 343.879 150.369 342.566 150.369 340.98H151.303C151.303 342.941 150.292 344.514 148.586 345.7C146.895 346.876 144.499 347.689 141.635 348.175L141.479 347.256ZM112.414 349.035L112.458 349.032L112.526 349.962L112.483 349.965L112.414 349.035ZM112.457 349.032C118.86 348.558 124.814 348.117 128.914 348.117V349.05C124.857 349.05 118.945 349.487 112.526 349.962L112.457 349.032ZM83.6244 349.915C87.1464 350.283 91.8242 350.251 96.9362 350.028L96.9768 350.96C91.8568 351.183 87.1216 351.218 83.5273 350.842L83.6244 349.915ZM96.9362 350.028C101.931 349.811 107.317 349.412 112.414 349.035L112.483 349.965C107.389 350.342 101.988 350.742 96.9768 350.96L96.9362 350.028ZM58.5792 342.095C60.1305 343.546 62.8474 344.881 65.7235 345.984C68.5833 347.079 71.537 347.922 73.5086 348.412L73.2831 349.317C71.2858 348.821 68.2938 347.968 65.3892 346.854C62.5009 345.747 59.6341 344.36 57.9408 342.775L58.5792 342.095ZM73.5086 348.412C76.0126 349.035 79.1647 349.449 83.6244 349.915L83.5273 350.842C79.0704 350.377 75.858 349.957 73.2831 349.317L73.5086 348.412Z" fill="black"/>
</g>
<path d="M113.394 229.277L114.356 226.865M114.356 226.865L115.112 224.246L116.69 221.276L117.86 224.724L118.103 226.83M114.356 226.865L118.103 226.83M118.377 229.285L118.103 226.83M125.379 223.026L124.694 222.133C124.045 221.346 123.535 221.106 122.348 221.122C121.368 221.371 121.117 221.659 120.779 222.225L120.472 223.977C120.808 224.845 121.249 225.002 122.388 224.826L123.65 225.046C124.198 225.314 124.495 225.488 124.81 226.28L124.71 227.982L124.27 229.367L122.833 229.718L121.513 229.832C120.797 229.664 120.463 229.452 120.116 228.643L119.802 227.814M131.739 221.985L130.155 222.126L129.086 221.94L127.838 222.079L127.291 225.208M127.291 225.208L127.524 228.142L127.291 229.477L128.805 229.741L131.427 229.51M127.291 225.208L128.398 225.873L130.801 225.819M107.585 219.541C108.06 220.369 108.241 220.922 108.427 222.072L107.733 225.087M107.733 225.087L107.543 226.854C107.783 227.904 107.742 229.39 108.711 229.58C109.792 229.894 110.365 229.919 111.28 229.477L112.172 227.35C112.327 226.279 112.268 225.632 111.828 224.38C111.042 224.296 110.601 224.249 109.814 224.164L107.733 225.087Z" stroke="#0054FF" stroke-width="2" stroke-linecap="round" stroke-linejoin="round"/>
<path d="M95.3975 225.373L101.807 224.844L101.856 224.384L96.2516 224.249L96.2189 223.198L96.6882 221.751L98.5636 220.469L99.6461 219.922L101.089 219.623L102.658 220.447L103.947 221.407L104.662 222.985L104.889 224.709L104.601 226.359L103.817 227.82L103.077 229.012L101.906 230.06L100.323 230.254L98.6295 230.294L97.3368 229.733L96.6317 228.498L95.7379 227.187L95.3975 225.373Z" fill="#0054FF"/>
<g style="mix-blend-mode:darken">
<path d="M69.9615 227.563C69.9615 223.821 69.9615 216.138 69.9615 215.34L67.9628 217.335L64.8397 223.821L62.7158 255.999H69.0873L67.9628 249.638V242.654C67.9628 242.155 69.2951 232.385 69.9615 227.563Z" fill="#D9D9D9"/>
</g>
</g>
<defs>
<radialGradient id="paint0_radial_1984_893" cx="0" cy="0" r="1" gradientUnits="userSpaceOnUse" gradientTransform="translate(44.5767 394.343) rotate(-73.4457) scale(335.628 336.903)">
<stop stop-color="#2063F4"/>
<stop offset="1" stop-color="#DFEAFF"/>
</radialGradient>
</defs>
</svg>
