<svg width="256" height="256" viewBox="0 0 256 256" fill="none" xmlns="http://www.w3.org/2000/svg">
<g clip-path="url(#clip0_1497_53)">
<path d="M256 128C256 198.693 198.693 256 128 256C57.3075 256 0 198.693 0 128C0 57.3075 57.3075 0 128 0C198.693 0 256 57.3075 256 128Z" fill="white"/>
<g clip-path="url(#clip1_1497_53)">
<path d="M87.4649 218C133.849 218 133.849 217.312 141.713 214.988C151.991 211.95 112.695 184.862 87.4649 184.862C62.2347 184.862 41.7817 192.28 41.7817 201.431C41.7817 210.582 62.2358 218 87.4649 218Z" fill="black"/>
<path d="M192.789 77.101L194.922 79.3903L193.057 81.9016C132.564 163.351 97.7159 200.229 82.9302 195.283C73.9244 192.27 64.8927 183.21 55.8607 170.053C52.686 165.429 49.7049 160.559 46.9936 155.713C45.1881 152.486 43.6599 149.543 42.8664 147.885C41.8542 145.771 41.4269 144.468 41.0879 142.757C41.0672 142.652 41.0672 142.652 41.0475 142.552C40.906 141.825 40.8571 141.596 40.7513 141.199C38.931 134.367 38 127.289 38 120.092C38 74.754 74.9083 38 120.437 38C134.7 38 148.446 41.6149 160.627 48.4008L160.942 48.5968C170.915 55.5114 181.524 65.0126 192.789 77.101ZM156.774 54.8839C145.753 48.7805 133.336 45.5314 120.437 45.5314C79.0852 45.5314 45.563 78.9133 45.563 120.092C45.563 126.636 46.4086 133.064 48.0614 139.267C48.2248 139.881 48.2987 140.227 48.4721 141.117C48.4903 141.21 48.4903 141.21 48.5078 141.299C48.7266 142.403 48.9574 143.107 49.6935 144.645C50.4173 146.157 51.872 148.958 53.6003 152.047C56.2063 156.705 59.0699 161.383 62.1043 165.803C70.2643 177.689 78.3571 185.808 85.3387 188.143C94.6501 191.258 129.703 154.307 185.1 79.9458C175.043 69.3744 165.595 61.0204 156.774 54.8839Z" fill="black"/>
<path d="M156.773 54.8838C145.753 48.7804 133.336 45.5312 120.437 45.5312C79.0852 45.5312 45.563 78.9132 45.563 120.092C45.563 126.635 46.4086 133.064 48.0613 139.267C48.2248 139.881 48.2987 140.227 48.472 141.117C48.4902 141.21 48.4902 141.21 48.5077 141.299C48.7265 142.403 48.9574 143.107 49.6935 144.644C50.4173 146.157 51.8719 148.958 53.6003 152.047C56.2062 156.705 59.0699 161.383 62.1042 165.803C70.2643 177.689 78.3571 185.808 85.3386 188.143C94.65 191.258 129.703 154.307 185.1 79.9457C175.043 69.3743 165.595 61.0203 156.773 54.8838Z" fill="#EC1C79"/>
<path d="M135.563 217.247C90.0342 217.247 53.126 180.493 53.126 135.155C53.126 89.8164 90.0342 53.0625 135.563 53.0625C181.092 53.0625 218 89.8164 218 135.155C218 180.493 181.092 217.247 135.563 217.247ZM135.563 209.715C176.915 209.715 210.437 176.333 210.437 135.155C210.437 93.9759 176.915 60.5938 135.563 60.5938C94.2113 60.5938 60.689 93.9759 60.689 135.155C60.689 176.333 94.2113 209.715 135.563 209.715Z" fill="black"/>
<path d="M135.563 209.715C176.915 209.715 210.437 176.333 210.437 135.154C210.437 93.9759 176.915 60.5938 135.563 60.5938C94.211 60.5938 60.689 93.9759 60.689 135.154C60.689 176.333 94.211 209.715 135.563 209.715Z" fill="white"/>
<path fill-rule="evenodd" clip-rule="evenodd" d="M79.5541 150.428L69.6436 120.695H78.3261L83.493 137.776L89.2107 120.61H96.2836L102.001 137.776L107.168 120.695H115.681L105.771 150.428H98.613L92.6413 133.432L86.7118 150.428H79.5541ZM118.942 150.218V120.695H142.787V127.654H127.074V132.124H141.305V138.577H127.074V143.259H142.999V150.218H118.942ZM154.434 150.218V127.865H145.54V120.695H171.545V127.865H162.651V150.218H154.434ZM175.145 150.218V120.695H183.361V131.745H193.907V120.695H202.124V150.218H193.907V138.999H183.361V150.218H175.145Z" fill="black"/>
<path d="M42.9127 111.814C40.8206 110.772 39.9725 108.239 41.0186 106.156C42.0647 104.072 44.6087 103.228 46.7008 104.269L58.8017 110.294C60.8938 111.336 61.7418 113.87 60.6958 115.953C59.6497 118.036 57.1057 118.881 55.0135 117.839L42.9127 111.814Z" fill="black"/>
<path d="M41.5194 131.795C39.3956 130.819 38.4685 128.313 39.4487 126.198C40.4288 124.083 42.9451 123.16 45.0689 124.136L57.1698 129.698C59.2936 130.674 60.2207 133.179 59.2405 135.294C58.2604 137.409 55.7441 138.332 53.6203 137.356L41.5194 131.795Z" fill="black"/>
</g>
</g>
<defs>
<clipPath id="clip0_1497_53">
<rect width="256" height="256" fill="white"/>
</clipPath>
<clipPath id="clip1_1497_53">
<rect width="180" height="180" fill="white" transform="translate(38 38)"/>
</clipPath>
</defs>
</svg>
