<svg width="256" height="256" viewBox="0 0 256 256" fill="none" xmlns="http://www.w3.org/2000/svg">
<g clip-path="url(#clip0_1497_53)">
<path d="M128 256C198.692 256 256 198.692 256 128C256 57.3075 198.692 0 128 0C57.3075 0 0 57.3075 0 128C0 198.692 57.3075 256 128 256Z" fill="#33E6BF"/>
<path d="M236.686 101.862L238 101.862L238 103.176L238 113.172L238 114.486L236.686 114.486L228.004 114.486L228.004 123.162L228.004 133.152L228.004 134.466L226.69 134.466L218.015 134.466L218.015 143.147L218.015 144.461L216.7 144.461L208.025 144.461L208.025 153.137L208.025 154.451L206.71 154.451L196.715 154.451L186.725 154.451L176.729 154.451L166.74 154.451L156.744 154.451L155.43 154.451L155.43 153.137L155.43 144.461L146.754 144.461L145.44 144.461L145.44 143.147L145.44 134.466L136.759 134.466L135.444 134.466L135.444 133.152L135.444 123.162L135.444 114.486L129.748 114.486L126.769 114.486L121.066 114.486L121.066 123.162L121.066 133.152L121.066 134.466L119.752 134.466L111.077 134.466L111.077 143.147L111.077 144.461L109.762 144.461L101.081 144.461L101.081 153.137L101.081 154.451L99.7668 154.451L89.7769 154.451L79.7812 154.451L69.7913 154.451L59.8014 154.451L49.8053 154.451L48.492 154.451L48.492 153.137L48.492 144.461L39.8161 144.461L38.5011 144.461L38.5011 143.147L38.5011 134.466L29.8199 134.466L28.5066 134.466L28.5066 133.152L28.5066 123.162L28.5066 114.486L19.8307 114.486L18.5157 114.486L18.5157 113.172L18.5157 103.176L18.5157 101.862L19.8307 101.862L29.8199 101.862L39.8161 101.862L49.8053 101.862L59.8014 101.862L69.7913 101.862L79.7812 101.862L89.7769 101.862L99.7668 101.862L109.762 101.862L119.752 101.862L126.769 101.862L129.748 101.862L136.759 101.862L146.754 101.862L156.744 101.862L166.74 101.862L176.729 101.862L186.725 101.862L196.715 101.862L206.71 101.862L216.7 101.862L226.69 101.862L236.686 101.862Z" fill="black" stroke="#33E6BF" stroke-width="1.51514"/>
<path d="M206.711 113.172L216.701 113.172L216.701 123.162L206.711 123.162L206.711 113.172Z" fill="#33E6BF"/>
<path d="M166.739 133.153L176.729 133.153L176.729 143.143L166.739 143.143L166.739 133.153Z" fill="#33E6BF"/>
<path d="M176.734 123.162L186.724 123.162L186.724 133.152L176.734 133.152L176.734 123.162Z" fill="#33E6BF"/>
<path d="M196.722 123.162L206.712 123.162L206.712 133.152L196.722 133.152L196.722 123.162Z" fill="#33E6BF"/>
<path d="M186.727 133.153L196.717 133.153L196.717 143.143L186.727 143.143L186.727 133.153Z" fill="#33E6BF"/>
<path d="M156.75 123.162L166.74 123.162L166.74 133.152L156.75 133.152L156.75 123.162Z" fill="#33E6BF"/>
<path d="M146.754 113.172L156.744 113.172L156.744 123.162L146.754 123.162L146.754 113.172Z" fill="#33E6BF"/>
<path d="M39.8145 113.172L49.8037 113.172L49.8037 123.162L39.8145 123.162L39.8145 113.172Z" fill="#33E6BF"/>
<path d="M79.7867 133.153L89.7766 133.153L89.7766 143.143L79.7867 143.143L79.7867 133.153Z" fill="#33E6BF"/>
<path d="M69.7913 123.162L79.781 123.162L79.781 133.152L69.7913 133.152L69.7913 123.162Z" fill="#33E6BF"/>
<path d="M49.8106 123.162L59.7998 123.162L59.7998 133.152L49.8106 133.152L49.8106 123.162Z" fill="#33E6BF"/>
<path d="M59.8015 133.153L69.7917 133.153L69.7917 143.143L59.8015 143.143L59.8015 133.153Z" fill="#33E6BF"/>
<path d="M89.776 123.162L99.7659 123.162L99.7659 133.152L89.776 133.152L89.776 123.162Z" fill="#33E6BF"/>
<path d="M99.7749 113.172L109.765 113.172L109.765 123.162L99.7749 123.162L99.7749 113.172Z" fill="#33E6BF"/>
</g>
<defs>
<clipPath id="clip0_1497_53">
<rect width="256" height="256" fill="white"/>
</clipPath>
</defs>
</svg>
