<svg width="256" height="256" viewBox="0 0 256 256" fill="none" xmlns="http://www.w3.org/2000/svg">
<g clip-path="url(#clip0_741_46)">
<path d="M128 256C198.692 256 256 198.692 256 128C256 57.3075 198.692 0 128 0C57.3075 0 0 57.3075 0 128C0 198.692 57.3075 256 128 256Z" fill="white"/>
<path d="M120.21 40.7049C124.538 38.4317 131.123 38.4317 135.451 40.7049L179.613 63.9037C182.22 65.273 183.651 67.3132 183.908 69.4195H183.95V186.028C183.892 188.325 182.447 190.607 179.613 192.096L135.451 215.295C131.123 217.568 124.538 217.568 120.21 215.295L76.0485 192.096C73.2261 190.614 71.8718 188.316 71.8048 186.028C71.7975 185.832 71.7974 185.636 71.8046 185.44L71.8048 70.2047C71.7981 70.0434 71.798 69.8818 71.8046 69.7205L71.8048 69.4195H71.8244C72.0206 67.29 73.3872 65.3017 76.0485 63.9037L120.21 40.7049ZM176.925 134.25L135.438 156.115C131.116 158.393 124.541 158.393 120.219 156.115L78.8244 134.299V185.667L120.219 207.368C122.665 208.672 125.209 209.943 127.686 209.998L127.828 210C130.3 210.008 132.7 208.756 135.134 207.57L176.925 185.48V134.25ZM64.8806 183.5C64.8806 187.97 65.3974 190.908 66.4233 192.978C67.2739 194.694 68.5499 196.005 70.8797 197.6L71.0127 197.691C71.524 198.038 72.0873 198.401 72.773 198.827L73.5817 199.325L76.0645 200.831L72.5033 206.75L69.7244 205.063L69.2572 204.774C68.4538 204.276 67.7877 203.848 67.1665 203.426C60.526 198.926 58.0497 194.019 58.0008 183.811L58 183.5H64.8806ZM124.487 103.25C124.179 103.354 123.879 103.482 123.59 103.632L79.496 126.906C79.4496 126.93 79.4054 126.955 79.3635 126.978L79.3262 127L79.3954 127.04L79.496 127.094L123.59 150.368C123.879 150.518 124.179 150.646 124.487 150.75V103.25ZM131.513 103.25V150.75C131.821 150.646 132.121 150.518 132.41 150.368L176.504 127.094C176.55 127.07 176.595 127.046 176.636 127.022L176.674 127L176.605 126.96L176.504 126.906L132.41 103.632C132.121 103.482 131.821 103.354 131.513 103.25ZM176.925 77.75L137.283 98.5L176.925 119.25V77.75ZM78.8244 77.75V119.25L118.466 98.5L78.8244 77.75ZM132.371 46.9067C130.076 45.6977 125.924 45.6977 123.629 46.9067L79.496 70.156C79.4499 70.1805 79.4054 70.2045 79.3635 70.2285L79.3262 70.25L79.3954 70.2895L79.496 70.344L123.629 93.593C125.924 94.8022 130.076 94.8022 132.371 93.593L176.504 70.344C176.55 70.3195 176.594 70.2955 176.636 70.2717L176.674 70.25L176.605 70.2105L176.504 70.156L132.371 46.9067ZM183.497 49.2499L186.276 50.9372L186.743 51.2254C187.546 51.7242 188.212 52.1527 188.834 52.5737C195.474 57.0744 197.95 61.9812 197.999 72.189L198 72.5H191.119C191.119 68.0295 190.603 65.0917 189.577 63.0217C188.726 61.3062 187.45 59.9949 185.121 58.3997L184.987 58.3092C184.408 57.919 183.821 57.5401 183.227 57.1729L182.418 56.6749L179.935 55.1687L183.497 49.2499Z" fill="#1969FF"/>
</g>
<defs>
<clipPath id="clip0_741_46">
<rect width="256" height="256" fill="white"/>
</clipPath>
</defs>
</svg>
