<svg width="256" height="256" viewBox="0 0 256 256" fill="none" xmlns="http://www.w3.org/2000/svg">
<g clip-path="url(#clip0_1770_263)">
<path fill-rule="evenodd" clip-rule="evenodd" d="M128 256C198.693 256 256 198.693 256 128C256 57.3075 198.693 0 128 0C57.3075 0 0 57.3075 0 128C0 198.693 57.3075 256 128 256Z" fill="#FFD000"/>
<path fill-rule="evenodd" clip-rule="evenodd" d="M192 96C192 166.693 134.693 224 64 224C56.1718 224 48.5077 223.298 41.0674 221.951C15.8108 198.57 0 165.132 0 128C0 57.3075 57.3075 0 128 0C135.828 0 143.492 0.702746 150.933 2.04858C176.189 25.4295 192 58.8684 192 96Z" fill="#FFE714"/>
<path fill-rule="evenodd" clip-rule="evenodd" d="M128 234.666C186.91 234.666 234.666 186.91 234.666 128C234.666 69.0892 186.91 21.333 128 21.333C69.0892 21.333 21.333 69.0892 21.333 128C21.333 186.91 69.0892 234.666 128 234.666Z" fill="#DF9D07"/>
<path fill-rule="evenodd" clip-rule="evenodd" d="M21.464 133.333C24.2428 76.9004 70.8777 31.9996 128 31.9996C185.122 31.9996 231.757 76.9004 234.535 133.333C234.622 131.566 234.666 129.788 234.666 128C234.666 69.0892 186.91 21.333 128 21.333C69.0892 21.333 21.333 69.0892 21.333 128C21.333 129.788 21.377 131.566 21.464 133.333Z" fill="#CD8103"/>
<path fill-rule="evenodd" clip-rule="evenodd" d="M152.243 64.6086L129.951 51.7381C128.465 50.8803 126.634 50.8803 125.149 51.7381L102.856 64.6086C101.742 65.252 101.055 66.441 101.055 67.7278V94.1419C101.055 95.4395 101.753 96.6363 102.882 97.2763L125.183 109.907C126.651 110.739 128.448 110.739 129.917 109.907L152.218 97.2763C153.346 96.6363 154.044 95.4395 154.044 94.1419V67.7278C154.044 66.441 153.358 65.252 152.243 64.6086ZM131.92 59.0927C131.92 60.2995 129.963 61.2779 127.55 61.2779C125.136 61.2779 123.179 60.2995 123.179 59.0927C123.179 57.8858 125.136 56.9075 127.55 56.9075C129.963 56.9075 131.92 57.8858 131.92 59.0927ZM127.55 67.8335C129.963 67.8335 131.92 66.8552 131.92 65.6483C131.92 64.4415 129.963 63.4631 127.55 63.4631C125.136 63.4631 123.179 64.4415 123.179 65.6483C123.179 66.8552 125.136 67.8335 127.55 67.8335ZM131.92 72.2039C131.92 73.4108 129.963 74.3891 127.55 74.3891C125.136 74.3891 123.179 73.4108 123.179 72.2039C123.179 70.9971 125.136 70.0187 127.55 70.0187C129.963 70.0187 131.92 70.9971 131.92 72.2039ZM140.661 67.8335C143.074 67.8335 145.031 66.8552 145.031 65.6483C145.031 64.4415 143.074 63.4631 140.661 63.4631C138.247 63.4631 136.29 64.4415 136.29 65.6483C136.29 66.8552 138.247 67.8335 140.661 67.8335ZM118.809 65.6483C118.809 66.8552 116.852 67.8335 114.438 67.8335C112.025 67.8335 110.068 66.8552 110.068 65.6483C110.068 64.4415 112.025 63.4631 114.438 63.4631C116.852 63.4631 118.809 64.4415 118.809 65.6483ZM140.486 87.7595C140.141 90.6667 140.918 92.8515 142.221 92.6395C143.524 92.4275 144.839 90.1651 145.158 87.5867C145.477 85.0083 144.7 82.8235 143.423 82.7067C142.147 82.5899 140.832 84.8523 140.486 87.7595ZM107.565 86.4187C106.224 86.5635 105.054 84.9283 104.951 82.7659C104.848 80.6035 105.797 78.6991 107.071 78.513C108.346 78.3271 109.52 79.9622 109.69 82.1659C109.858 84.3699 108.906 86.2739 107.565 86.4187ZM110.145 88.1547C110.31 90.3611 111.569 92.0611 112.958 91.9507C114.348 91.8403 115.294 89.9251 115.069 87.6739C114.842 85.4251 113.576 83.7275 112.247 83.8819C110.918 84.0355 109.978 85.9483 110.145 88.1547ZM118.661 97.7403C117.23 97.8163 115.894 96.0475 115.675 93.7915C115.454 91.5379 116.389 89.6139 117.766 89.4923C119.144 89.3723 120.488 91.1355 120.764 93.4347C121.036 95.7355 120.093 97.6643 118.661 97.7403ZM128.861 78.8127C128.235 79.1002 127.518 79.106 126.888 78.8284L114.281 73.2695C113.958 73.1271 113.579 73.2537 113.407 73.5618C113.222 73.8918 113.34 74.3089 113.67 74.4935L125.139 80.9075C125.853 81.3075 126.314 82.0427 126.364 82.8595L127.178 96.4091C127.202 96.8155 127.529 97.1379 127.935 97.1571C128.375 97.1779 128.749 96.8387 128.77 96.3987L129.409 82.8499C129.447 82.0379 129.894 81.3011 130.594 80.8907L141.526 74.4935C141.83 74.3151 141.95 73.9345 141.802 73.6137C141.644 73.2691 141.236 73.1183 140.892 73.2768L128.861 78.8127ZM95.7896 176.119L116.727 130.647C116.884 130.309 117.122 130.021 117.416 129.806C117.629 129.567 117.898 129.372 118.214 129.243C118.342 129.191 118.474 129.151 118.609 129.124C121.736 128.503 124.705 128.192 127.515 128.192C127.699 128.192 127.883 128.194 128.068 128.196C128.254 128.194 128.438 128.192 128.622 128.192C131.432 128.192 134.401 128.503 137.528 129.124C137.663 129.151 137.795 129.191 137.922 129.243C138.239 129.372 138.508 129.567 138.721 129.806C139.014 130.021 139.253 130.309 139.41 130.647L160.347 176.119L173.822 111.504C173.994 110.686 174.621 110.039 175.434 109.844C178.551 109.096 183.194 108.723 189.361 108.723C194.665 108.723 198.558 108.999 201.042 109.552C202.206 109.811 202.94 110.963 202.683 112.127L183.858 197.344C183.482 199.042 182.126 200.35 180.416 200.663C174.745 201.702 169.073 202.008 163.401 201.58C158.859 201.237 154.318 200.424 149.776 199.141C145.932 198.055 142.804 195.258 141.295 191.559L128.068 159.128L114.842 191.559C113.333 195.258 110.205 198.055 106.361 199.141C101.819 200.424 97.2776 201.237 92.736 201.58C87.064 202.008 81.392 201.702 75.7205 200.663C74.0102 200.35 72.6542 199.042 72.2791 197.344L53.4537 112.127C53.1965 110.963 53.9306 109.811 55.0943 109.552C57.5786 108.999 61.4724 108.723 66.7758 108.723C72.943 108.723 77.5854 109.096 80.7024 109.844C81.516 110.039 82.1432 110.686 82.3144 111.504L95.7896 176.119Z" fill="#CD8103"/>
<path fill-rule="evenodd" clip-rule="evenodd" d="M152.243 53.9415L129.951 41.0711C128.465 40.2133 126.634 40.2133 125.149 41.0711L102.856 53.9415C101.742 54.585 101.055 55.774 101.055 57.0607V83.4752C101.055 84.772 101.753 85.9696 102.882 86.6088L125.183 99.2408C126.651 100.073 128.448 100.073 129.917 99.2408L152.218 86.6088C153.346 85.9696 154.044 84.772 154.044 83.4752V57.0607C154.044 55.774 153.358 54.585 152.243 53.9415ZM131.92 48.4257C131.92 49.6325 129.963 50.6109 127.55 50.6109C125.136 50.6109 123.179 49.6325 123.179 48.4257C123.179 47.2188 125.136 46.2405 127.55 46.2405C129.963 46.2405 131.92 47.2188 131.92 48.4257ZM127.55 57.1665C129.963 57.1665 131.92 56.1882 131.92 54.9813C131.92 53.7744 129.963 52.7961 127.55 52.7961C125.136 52.7961 123.179 53.7744 123.179 54.9813C123.179 56.1882 125.136 57.1665 127.55 57.1665ZM131.92 61.537C131.92 62.7438 129.963 63.7222 127.55 63.7222C125.136 63.7222 123.179 62.7438 123.179 61.537C123.179 60.3301 125.136 59.3517 127.55 59.3517C129.963 59.3517 131.92 60.3301 131.92 61.537ZM140.661 57.1665C143.074 57.1665 145.031 56.1882 145.031 54.9813C145.031 53.7744 143.074 52.7961 140.661 52.7961C138.247 52.7961 136.29 53.7744 136.29 54.9813C136.29 56.1882 138.247 57.1665 140.661 57.1665ZM118.809 54.9813C118.809 56.1882 116.852 57.1665 114.438 57.1665C112.025 57.1665 110.068 56.1882 110.068 54.9813C110.068 53.7744 112.025 52.7961 114.438 52.7961C116.852 52.7961 118.809 53.7744 118.809 54.9813ZM140.486 77.0925C140.141 79.9999 140.918 82.1848 142.221 81.9728C143.524 81.76 144.839 79.4981 145.158 76.9198C145.477 74.3415 144.7 72.1566 143.423 72.0397C142.147 71.9229 140.832 74.1851 140.486 77.0925ZM107.565 75.7515C106.224 75.8963 105.054 74.261 104.951 72.0986C104.848 69.9363 105.797 68.0321 107.071 67.8459C108.346 67.6601 109.52 69.2952 109.69 71.4985C109.858 73.7027 108.906 75.6071 107.565 75.7515ZM110.145 77.4874C110.31 79.6943 111.569 81.3944 112.958 81.284C114.348 81.1736 115.294 79.2579 115.069 77.0071C114.842 74.7582 113.576 73.0608 112.247 73.2146C110.918 73.3687 109.978 75.2815 110.145 77.4874ZM118.661 87.0736C117.23 87.1488 115.894 85.3808 115.675 83.1248C115.454 80.8704 116.389 78.9466 117.766 78.8256C119.144 78.705 120.488 80.4688 120.764 82.7672C121.036 85.0688 120.093 86.9976 118.661 87.0736ZM128.861 68.1457C128.235 68.4332 127.518 68.439 126.888 68.1614L114.281 62.6026C113.958 62.4601 113.579 62.5866 113.407 62.8948C113.222 63.2248 113.34 63.6419 113.67 63.8265L125.139 70.2406C125.853 70.6401 126.314 71.3756 126.364 72.1924L127.178 85.7416C127.202 86.148 127.529 86.4712 127.935 86.4904C128.375 86.5112 128.749 86.1712 128.77 85.7312L129.409 72.1828C129.447 71.3712 129.894 70.6341 130.594 70.2237L141.526 63.8265C141.83 63.6481 141.95 63.2675 141.802 62.9466C141.644 62.6021 141.236 62.4513 140.892 62.6098L128.861 68.1457ZM95.7896 165.452L116.727 119.981C116.884 119.642 117.122 119.354 117.416 119.139C117.629 118.9 117.898 118.705 118.214 118.576C118.342 118.524 118.474 118.484 118.609 118.458C121.736 117.836 124.705 117.526 127.515 117.526C127.699 117.526 127.883 117.527 128.068 117.53C128.254 117.527 128.438 117.526 128.622 117.526C131.432 117.526 134.401 117.836 137.528 118.458C137.663 118.484 137.795 118.524 137.922 118.576C138.239 118.705 138.508 118.9 138.721 119.139C139.014 119.354 139.253 119.642 139.41 119.981L160.347 165.452L173.822 100.838C173.994 100.019 174.621 99.372 175.434 99.1768C178.551 98.4296 183.194 98.0552 189.361 98.0552C194.665 98.0552 198.558 98.332 201.042 98.8848C202.206 99.144 202.94 100.297 202.683 101.461L183.858 186.677C183.482 188.375 182.126 189.682 180.416 189.996C174.745 191.035 169.073 191.341 163.401 190.913C158.859 190.57 154.318 189.758 149.776 188.474C145.932 187.388 142.804 184.591 141.295 180.893L128.068 148.461L114.842 180.893C113.333 184.591 110.205 187.388 106.361 188.474C101.819 189.758 97.2776 190.57 92.736 190.913C87.064 191.341 81.392 191.035 75.7205 189.996C74.0102 189.682 72.6542 188.375 72.2791 186.677L53.4537 101.461C53.1965 100.297 53.9306 99.144 55.0943 98.8848C57.5786 98.332 61.4724 98.0552 66.7758 98.0552C72.943 98.0552 77.5854 98.4296 80.7024 99.1768C81.516 99.372 82.1432 100.019 82.3144 100.838L95.7896 165.452Z" fill="#FFD000"/>
<path fill-rule="evenodd" clip-rule="evenodd" d="M191.983 98.08C191.151 98.064 190.277 98.0552 189.361 98.0552C183.194 98.0552 178.551 98.4296 175.434 99.1768C174.621 99.372 173.994 100.019 173.822 100.838L160.347 165.452L139.41 119.981C139.253 119.642 139.014 119.354 138.721 119.139C138.508 118.9 138.239 118.705 137.922 118.576C137.795 118.524 137.663 118.484 137.528 118.458C134.401 117.836 131.432 117.526 128.622 117.526C128.438 117.526 128.254 117.527 128.068 117.53C127.883 117.527 127.699 117.526 127.515 117.526C124.705 117.526 121.736 117.836 118.609 118.458C118.474 118.484 118.342 118.524 118.214 118.576C117.898 118.705 117.629 118.9 117.416 119.139C117.122 119.354 116.884 119.642 116.727 119.981L95.7896 165.452L82.3144 100.838C82.1432 100.019 81.516 99.372 80.7024 99.1768C77.5854 98.4296 72.943 98.0552 66.7758 98.0552C61.4724 98.0552 57.5786 98.332 55.0943 98.8848C53.9306 99.144 53.1965 100.297 53.4537 101.461L72.2791 186.677C72.6542 188.375 74.0102 189.682 75.7205 189.996C81.392 191.035 87.064 191.341 92.736 190.913C97.2776 190.57 101.819 189.758 106.361 188.474C110.205 187.388 113.333 184.591 114.842 180.893L128.068 148.461L141.295 180.893C142.804 184.591 145.932 187.388 149.776 188.474C150.486 188.674 151.195 188.864 151.906 189.042C176.126 166.149 191.413 133.902 191.983 98.08ZM129.951 41.0711L152.243 53.9415C153.358 54.585 154.044 55.774 154.044 57.0607V83.4752C154.044 84.772 153.346 85.9696 152.218 86.6088L129.917 99.2408C128.448 100.073 126.651 100.073 125.183 99.2408L102.882 86.6088C101.753 85.9696 101.055 84.772 101.055 83.4752V57.0607C101.055 55.774 101.742 54.585 102.856 53.9415L125.149 41.0711C126.634 40.2133 128.465 40.2133 129.951 41.0711ZM127.55 50.6109C129.963 50.6109 131.92 49.6325 131.92 48.4257C131.92 47.2188 129.963 46.2405 127.55 46.2405C125.136 46.2405 123.179 47.2188 123.179 48.4257C123.179 49.6325 125.136 50.6109 127.55 50.6109ZM131.92 54.9813C131.92 56.1882 129.963 57.1665 127.55 57.1665C125.136 57.1665 123.179 56.1882 123.179 54.9813C123.179 53.7744 125.136 52.7961 127.55 52.7961C129.963 52.7961 131.92 53.7744 131.92 54.9813ZM127.55 63.7222C129.963 63.7222 131.92 62.7438 131.92 61.537C131.92 60.3301 129.963 59.3517 127.55 59.3517C125.136 59.3517 123.179 60.3301 123.179 61.537C123.179 62.7438 125.136 63.7222 127.55 63.7222ZM145.031 54.9813C145.031 56.1882 143.074 57.1665 140.661 57.1665C138.247 57.1665 136.29 56.1882 136.29 54.9813C136.29 53.7744 138.247 52.7961 140.661 52.7961C143.074 52.7961 145.031 53.7744 145.031 54.9813ZM114.438 57.1665C116.852 57.1665 118.809 56.1882 118.809 54.9813C118.809 53.7744 116.852 52.7961 114.438 52.7961C112.025 52.7961 110.068 53.7744 110.068 54.9813C110.068 56.1882 112.025 57.1665 114.438 57.1665ZM142.221 81.9728C140.918 82.1848 140.141 79.9999 140.486 77.0925C140.832 74.1851 142.147 71.9229 143.423 72.0397C144.7 72.1566 145.477 74.3415 145.158 76.9198C144.839 79.4981 143.524 81.76 142.221 81.9728ZM104.951 72.0986C105.054 74.261 106.224 75.8962 107.565 75.7515C108.906 75.6071 109.858 73.7027 109.69 71.4985C109.52 69.2952 108.346 67.6601 107.071 67.8459C105.797 68.0321 104.848 69.9363 104.951 72.0986ZM112.958 81.284C111.569 81.3944 110.31 79.6943 110.145 77.4874C109.978 75.2815 110.918 73.3687 112.247 73.2146C113.576 73.0608 114.842 74.7582 115.069 77.0071C115.294 79.2579 114.348 81.1736 112.958 81.284ZM115.675 83.1248C115.894 85.3808 117.23 87.1488 118.661 87.0736C120.093 86.9976 121.036 85.0688 120.764 82.7672C120.488 80.4688 119.144 78.705 117.766 78.8256C116.389 78.9466 115.454 80.8704 115.675 83.1248ZM126.888 68.1614C127.518 68.439 128.235 68.4332 128.861 68.1457L140.892 62.6098C141.236 62.4513 141.644 62.6021 141.802 62.9466C141.95 63.2675 141.83 63.6481 141.526 63.8265L130.594 70.2237C129.894 70.6341 129.447 71.3712 129.409 72.1828L128.77 85.7312C128.749 86.1712 128.375 86.5112 127.935 86.4904C127.529 86.4712 127.202 86.148 127.178 85.7416L126.364 72.1924C126.314 71.3756 125.853 70.6401 125.139 70.2406L113.67 63.8265C113.34 63.6419 113.222 63.2248 113.407 62.8948C113.579 62.5866 113.958 62.4601 114.281 62.6026L126.888 68.1614Z" fill="#FFE714"/>
<path fill-rule="evenodd" clip-rule="evenodd" d="M58.4092 64.569C57.668 61.8158 55.5174 59.6653 52.7642 58.924L34.869 54.1058C34.0796 53.8933 34.0796 52.7734 34.869 52.5608L52.7642 47.7426C55.5174 47.0013 57.668 44.8507 58.4092 42.0976L63.2275 24.2023C63.44 23.413 64.5599 23.413 64.7724 24.2023L69.5907 42.0976C70.332 44.8507 72.4825 47.0013 75.2357 47.7426L93.1312 52.5608C93.92 52.7734 93.92 53.8933 93.1312 54.1058L75.2357 58.924C72.4825 59.6653 70.332 61.8158 69.5907 64.569L64.7724 82.4638C64.56 83.2534 63.44 83.2534 63.2275 82.4638L58.4092 64.569Z" fill="white"/>
</g>
<defs>
<clipPath id="clip0_1770_263">
<rect width="256" height="256" fill="white"/>
</clipPath>
</defs>
</svg>
