<svg width="256" height="256" viewBox="0 0 256 256" fill="none" xmlns="http://www.w3.org/2000/svg">
<path d="M254 128C254 197.588 197.588 254 128 254C58.4121 254 2 197.588 2 128C2 58.4121 58.4121 2 128 2C197.588 2 254 58.4121 254 128Z" fill="#100342"/>
<path d="M39 76.4341L128 127.8V162.044L68.6667 127.8V196.288L39 179.166V76.4341Z" fill="#2891F9"/>
<path d="M68.6666 196.287V127.8L98.3333 144.922V179.166L68.6666 196.287Z" fill="#2BBDF7"/>
<path d="M39 76.4344L68.6667 59.3125L157.667 110.678L128 127.8L39 76.4344Z" fill="#2B6DEF"/>
<path d="M128 127.8L157.667 110.678V144.922L128 162.044V127.8Z" fill="#2BBDF7"/>
<path d="M157.667 76.4341V179.166L187.333 196.288V93.5562L157.667 76.4341Z" fill="#2891F9"/>
<path d="M217 76.4341L187.333 93.5562V196.288L217 179.166V76.4341Z" fill="#2BBDF7"/>
<path d="M187.333 59.3125L217 76.4344L187.333 93.5564L157.667 76.4344L187.333 59.3125Z" fill="#2B6DEF"/>
</svg>
