<svg width="256" height="256" viewBox="0 0 256 256" fill="none" xmlns="http://www.w3.org/2000/svg">
<g clip-path="url(#clip0_741_46)">
<circle cx="128" cy="128" r="128" fill="white"/>
<path d="M128 212C174.392 212 212 174.392 212 128C212 81.6081 174.392 44 128 44C81.6081 44 44 81.6081 44 128C44 174.392 81.6081 212 128 212Z" fill="white"/>
<path d="M81.6571 171.093L85.8373 82.3471H112.798L150.817 143.204L153.372 73.8196L180 62.0652C165.699 50.7508 147.639 44 128.001 44C81.6096 44 44 81.6933 44 128.188C44 147.727 50.6467 165.715 61.7939 180L81.6571 171.093Z" fill="#00B1B1"/>
<path d="M194.134 76.006L174.894 84.6328L170.716 173.3H143.787L143.733 173.217L105.797 112.497L103.244 181.82L76 193.844C90.3121 205.208 108.403 212 128.077 212C174.426 212 212 174.34 212 127.886C212 108.311 205.324 90.2911 194.134 76V76.006Z" fill="#00B1B1"/>
<path fill-rule="evenodd" clip-rule="evenodd" d="M128 14.5869C65.4961 14.5869 14.7126 65.301 14.7126 128C14.7126 190.7 65.4961 241.413 128 241.413C190.503 241.413 241.287 190.7 241.287 128C241.287 65.301 190.503 14.5869 128 14.5869ZM0 128C0 57.3703 57.2445 0 128 0C198.755 0 256 57.3703 256 128C256 198.63 198.755 256 128 256C57.2445 256 0 198.63 0 128Z" fill="#00B1B1"/>
</g>
<defs>
<clipPath id="clip0_741_46">
<rect width="256" height="256" fill="white"/>
</clipPath>
</defs>
</svg>
