<svg width="256" height="256" viewBox="0 0 256 256" fill="none" xmlns="http://www.w3.org/2000/svg">
<path d="M128.836 4.50066C153.223 4.66575 177.016 12.0477 197.214 25.7157C217.414 39.3853 233.115 58.7302 242.335 81.311C251.556 103.892 253.883 128.697 249.025 152.599C244.167 176.501 232.34 198.43 215.035 215.619C197.731 232.808 175.724 244.488 151.791 249.187C127.857 253.885 103.068 251.392 80.5493 242.02C58.0308 232.649 38.7915 216.82 25.2574 196.528C11.7247 176.239 4.50204 152.397 4.5 128.009C4.61277 95.1439 17.775 63.6689 41.0919 40.5071C64.4089 17.3453 95.9709 4.3937 128.836 4.50066Z" fill="#708C97" stroke="white" stroke-width="9"/>
<path fill-rule="evenodd" clip-rule="evenodd" d="M141.918 177.924L141.918 184H190V166.95H166.256C180.542 156.303 189.72 139.751 189.72 121.163C189.72 89.0403 162.311 63 128.5 63C94.6887 63 67.2795 89.0403 67.2795 121.163C67.2795 139.751 76.4578 156.303 90.7438 166.95H67V184H115.082V183.725L115.081 161.084C97.5623 155.66 84.8907 139.898 84.8907 121.3C84.8907 98.2146 104.415 79.5001 128.5 79.5001C152.584 79.5001 172.109 98.2146 172.109 121.3C172.109 139.898 159.437 155.66 141.918 161.084V177.924Z" fill="white"/>
</svg>
