<svg width="123" height="123" viewBox="0 0 123 123" fill="none" xmlns="http://www.w3.org/2000/svg">
<circle cx="61.5" cy="61.5" r="61.5" fill="#00A3FF"/>
<path d="M114.659 52.3341C112.299 37.8295 98.662 28.019 84.2911 30.3398C84.0813 30.3925 83.8715 30.3925 83.6616 30.4453C74.6404 32.0803 66.0915 39.0426 58.9059 50.6991C45.007 40.0975 34.9367 39.0953 28.8526 40.203C14.4816 42.7347 4.88345 56.6064 7.401 71.0057C9.6563 83.875 20.8279 93 33.4681 93C34.9891 93 36.5101 92.8418 38.0836 92.5779C47.1047 90.9956 55.654 83.9806 62.8396 72.3242C76.6859 82.9259 86.7563 83.928 92.8404 82.873L93.1548 82.8203C107.316 80.2886 116.967 66.6278 114.659 52.3341ZM98.5571 63.9378C96.6166 66.7334 93.7317 68.5792 90.4275 69.1595C85.4972 70.0563 77.7351 66.5751 69.5529 59.9293C76.2665 48.1673 82.2457 44.8972 86.0745 44.2115C89.3787 43.6313 92.7355 44.3697 95.4628 46.3213C98.2423 48.2728 100.078 51.1738 100.655 54.4966C101.232 57.7668 100.498 61.1424 98.5571 63.9378ZM20.8279 68.7904C20.1985 65.4675 20.8803 62.0919 22.7685 59.2964C24.6567 56.5009 27.5414 54.6021 30.8457 53.9692L31.6324 53.811C31.9995 53.7582 32.4191 53.7582 32.8387 53.7582C37.7689 53.7582 44.7971 57.1339 52.1399 63.094C45.4263 74.856 39.4471 78.1259 35.6185 78.8118H35.5661C28.7477 80.183 22.1391 75.6471 20.8279 68.7904Z" fill="white"/>
</svg>
