<svg width="256" height="256" viewBox="0 0 256 256" fill="none" xmlns="http://www.w3.org/2000/svg">
<g clip-path="url(#clip0_2546_1849)">
<mask id="mask0_2546_1849" style="mask-type:luminance" maskUnits="userSpaceOnUse" x="0" y="0" width="256" height="256">
<path d="M256 0H0V256H256V0Z" fill="white"/>
</mask>
<g mask="url(#mask0_2546_1849)">
<path d="M256 128C256 57.3075 198.692 0 128 0C57.3075 0 0 57.3075 0 128C0 198.692 57.3075 256 128 256C198.692 256 256 198.692 256 128Z" fill="white"/>
</g>
<path d="M139.916 29.4403C161.203 31.569 182.507 40.4555 197.948 55.4915C214.471 70.2742 226.466 91.8653 228.341 114.081C225.604 105.212 223.864 96.4268 219.607 88.0809C210.839 68.8888 195.346 52.9743 177.067 42.6349C165.899 36.5698 152.333 32.1096 139.764 30.3526C129.053 29.5079 118.189 30.285 107.428 30.0654C118.037 28.2915 129.154 29.6768 139.916 29.4403Z" fill="#CE9495"/>
<path d="M107.428 30.0652C118.19 30.2849 129.053 29.5077 139.764 30.3524C152.334 32.1095 165.9 36.5696 177.067 42.6347C195.347 52.9741 210.839 68.8886 219.607 88.0807C223.865 96.4266 225.605 105.212 228.342 114.081C228.426 127.242 229.203 139.811 225.453 152.617C220.739 168.566 212.394 183.855 200.517 195.597C181.798 214.823 155.088 225.939 128.327 226.48C120.91 226.531 113.443 225.162 106.043 224.554C89.1317 220.499 72.0852 212.981 59.4144 200.817C44.3446 188.045 33.9545 170.745 28.9706 151.705C26.2337 141.248 26.4364 130.739 26.7068 120.011C27.1122 109.233 29.9505 98.6735 34.7654 89.0437C36.8265 84.9215 38.6342 80.7148 40.3744 76.4574C45.9326 78.6536 50.9841 80.7654 57.1336 79.5153C65.2599 78.3157 71.8487 72.2169 74.7883 64.7157C76.5116 58.0255 75.954 51.3691 72.8286 45.1858C75.8527 43.4118 78.8599 41.6041 81.8333 39.712C89.4696 34.7281 98.5588 31.8729 107.428 30.0652Z" fill="#FD1616"/>
<path d="M42.2148 48.514C43.2623 48.3282 44.3266 48.1423 45.391 47.9903C46.4047 52.4335 47.638 56.7923 48.8713 61.1848C49.3274 56.6233 50.3242 52.197 51.5068 47.8044C52.4191 48.0748 53.3314 48.362 54.2437 48.6492C55.2067 52.4842 56.2203 56.3192 57.2678 60.1374C58.1125 56.032 59.2444 52.0112 60.0723 47.9058C61.2211 48.0579 62.3699 48.2268 63.5187 48.3789C61.6603 54.4609 60.2243 60.5091 59.1262 66.7938C57.9774 66.7938 56.8116 66.8107 55.6459 66.8276C54.8519 62.5195 53.7706 58.3973 52.5205 54.2074C51.4561 58.431 50.4931 62.6884 49.4795 66.9289C48.5672 66.9627 47.6717 66.9965 46.7594 67.0472C45.0869 60.9314 43.144 54.7818 42.2148 48.514Z" fill="#1F1F1F"/>
<path d="M89.2667 51.5212C93.3045 54.9846 97.0551 58.6338 100.687 62.5195C100.231 70.7978 105.283 77.0318 106.11 85.2256C110.03 86.0704 113.966 86.8137 117.886 87.6247C118.595 90.5643 119.271 93.5208 119.998 96.4435C114.608 95.0582 107.462 93.3519 102.174 95.5988C99.7413 97.812 97.6295 101.613 97.072 104.857C97.5957 108.455 101.38 111.817 103.407 114.723C101.448 118.17 99.4879 121.633 97.545 125.097C93.1018 123.018 88.7092 120.924 83.9957 119.504C81.7318 115.213 79.4342 111.412 79.0456 106.445C78.5894 100.38 77.9475 94.4331 77.0352 88.4187C77.4068 87.1009 77.7785 85.8507 78.1164 84.533C81.7487 82.0157 85.1952 79.3802 88.591 76.5588C89.2498 79.7518 89.9087 82.9111 90.7196 86.0535C92.2739 84.5499 93.7944 83.0125 95.3825 81.5258C95.5852 75.1734 96.0752 68.365 94.8588 62.1141C93.3214 57.9242 88.2531 56.1841 84.6377 54.2412C86.175 53.3121 87.7293 52.4166 89.2667 51.5212Z" fill="#F8D589"/>
<path d="M84.6372 54.2413C88.2526 56.1842 93.3209 57.9243 94.8583 62.1141C96.0747 68.3651 95.5848 75.1735 95.3821 81.5258C93.794 83.0126 92.2735 84.5499 90.7192 86.0536C89.9083 82.9112 89.2494 79.7519 88.5905 76.5589C88.6243 74.8525 88.675 73.1293 88.6919 71.4061C86.2422 69.3619 83.8094 67.3176 81.3428 65.3072C82.1875 61.5735 83.1505 57.7723 84.6372 54.2413Z" fill="#7E6435"/>
<path d="M175.867 54.8158C179.466 64.6821 178.25 74.3288 178.756 84.5331C179.432 94.7711 186.595 101.343 189.197 111.682C189.873 116.227 189.315 120.603 188.403 125.063C187.271 117.68 183.757 111.581 179.939 105.33C178.013 97.0181 177.996 88.0978 177.067 79.5661C175.276 79.8364 173.502 80.1574 171.728 80.5122C170.884 82.6409 170.039 84.7696 169.194 86.9152C168.096 85.8339 167.015 84.7527 165.967 83.6377C167.961 78.4849 170.309 75.5621 174.414 71.9636C175.783 69.5308 176.932 66.9966 178.081 64.4625C177.455 62.6041 176.813 60.7626 176.171 58.9042C174.093 57.975 172.015 57.0627 169.921 56.1842C168.552 59.3604 167.184 62.5196 165.815 65.6958C163.839 70.2742 163.467 74.8695 162.96 79.7688C161.558 76.39 160.274 73.1124 160.612 69.3619C160.426 66.2195 161.693 62.5027 159.632 59.9686C165.139 57.4851 169.566 54.1062 175.867 54.8158Z" fill="#D3B271"/>
<path d="M169.921 56.1843C172.016 57.0628 174.094 57.9751 176.172 58.9043C176.814 60.7627 177.456 62.6042 178.081 64.4626C176.932 66.9968 175.783 69.5309 174.415 71.9637C171.56 69.8688 168.721 67.7401 165.815 65.6959C167.184 62.5197 168.552 59.3605 169.921 56.1843Z" fill="#7A6033"/>
<path d="M157.672 60.9315C156.996 66.0843 156.067 71.5581 156.675 76.7278C158.01 79.9715 160.51 82.8267 162.555 85.6481C157.385 89.2635 152.165 92.7775 146.877 96.2071C146.184 94.3487 145.474 92.5241 144.748 90.6826C137.821 96.3929 142.602 106.192 140.305 113.558C137.078 115.838 129.982 114.538 125.944 114.74C125.725 108.253 128.58 102.424 122.481 97.981L119.998 96.4436C119.271 93.5209 118.595 90.5644 117.886 87.6247C113.966 86.8138 110.03 86.0704 106.11 85.2257C105.283 77.0319 100.231 70.7979 100.687 62.5196C103.847 65.4592 108.222 70.2066 112.868 70.0207C119.187 69.7504 125.37 68.5509 131.739 68.6692C141.099 69.2605 149.242 64.53 157.672 60.9315Z" fill="#FCE896"/>
<path d="M157.673 60.9315L159.633 59.9685C161.694 62.5027 160.427 66.2194 160.613 69.3618C160.275 73.1124 161.559 76.3899 162.961 79.7688C163.941 81.0697 164.938 82.3705 165.968 83.6376C167.016 84.7526 168.097 85.8339 169.195 86.9151C170.04 84.7695 170.884 82.6408 171.729 80.5121C173.503 80.1574 175.277 79.8364 177.068 79.5661C177.997 88.0977 178.014 97.018 179.94 105.33C177.49 106.935 175.125 108.624 172.591 110.111C169.482 111.378 165.478 111.986 162.859 114.149C161.052 116.599 161.086 120.535 160.494 123.424C160.038 126.769 159.582 130.131 159.058 133.459C155.51 133.848 151.979 134.22 148.449 134.591C147.3 133.831 146.151 133.088 145.002 132.327C144.259 129.658 143.566 126.921 142.603 124.319C141.691 122.799 140.728 121.329 139.731 119.876C136.386 115.99 129.29 116.143 125.911 119.961L123.85 121.785C120.826 119.724 118.072 117.393 115.589 114.706C117.734 112.071 119.965 109.452 121.958 106.665C122.211 103.776 122.33 100.887 122.482 97.981C128.581 102.424 125.726 108.253 125.945 114.74C129.983 114.538 137.079 115.838 140.305 113.558C142.603 106.192 137.822 96.3929 144.749 90.6826C145.475 92.5241 146.185 94.3487 146.877 96.2071C152.165 92.7775 157.386 89.2635 162.555 85.6481C160.511 82.8267 158.011 79.9715 156.676 76.7278C156.068 71.5581 156.997 66.0843 157.673 60.9315Z" fill="#F8D78A"/>
<path d="M81.344 65.3073C83.8106 67.3177 86.2434 69.3619 88.6931 71.4061C88.6762 73.1294 88.6255 74.8526 88.5917 76.5589C85.196 79.3803 81.7495 82.0159 78.1172 84.5331C79.3167 78.1301 80.0263 71.6765 81.344 65.3073Z" fill="#A2804B"/>
<path d="M165.816 65.6958C168.722 67.74 171.56 69.8687 174.415 71.9636C170.31 75.5622 167.962 78.4849 165.968 83.6377C164.938 82.3706 163.941 81.0697 162.961 79.7689C163.468 74.8695 163.839 70.2742 165.816 65.6958Z" fill="#8B7545"/>
<path d="M138.007 77.6909C137.72 79.7013 137.45 81.7118 137.197 83.7222C141.133 84.2966 146.235 86.4084 149.952 84.3304C151.641 83.5871 153.297 82.793 154.919 81.9483C154.986 83.2154 155.071 84.4994 155.138 85.7664C149.884 86.8139 144.613 87.8782 139.376 88.9764C137.619 93.4365 135.761 97.8629 133.767 102.222C130.878 98.8427 128.361 95.2442 125.911 91.5443C122.566 86.2564 115.234 83.6208 110.03 80.4785C112.581 78.8059 115.2 76.4069 118.224 75.8494C125.134 74.1937 130.794 79.2283 138.007 77.6909Z" fill="#FEF6AF"/>
<path d="M147.873 77.0321C150.441 78.1978 152.704 80.2589 154.918 81.9483C153.296 82.7931 151.64 83.5871 149.951 84.3305C146.234 86.4085 141.132 84.2967 137.195 83.7223C137.449 81.7118 137.719 79.7014 138.006 77.6909C141.182 77.3699 144.696 76.4745 147.873 77.0321Z" fill="#FFFFDF"/>
<path d="M77.0356 88.4188C77.9479 94.4332 78.5899 100.38 79.046 106.445C79.4346 111.412 81.7322 115.213 83.9961 119.505C82.2391 121.228 80.5496 123.036 78.8433 124.826C76.005 123.103 72.9809 121.768 69.8892 120.535C68.9938 111.716 71.8828 104.131 74.3832 95.8693C75.2617 93.3858 76.174 90.9192 77.0356 88.4188Z" fill="#D7BC7E"/>
<path d="M102.174 95.5989C107.462 93.3519 114.609 95.0583 119.998 96.4436L122.481 97.981C122.329 100.887 122.211 103.776 121.958 106.665C116.214 110.55 110.047 112.865 103.408 114.723C101.38 111.818 97.596 108.456 97.0723 104.857C97.6298 101.613 99.7416 97.8121 102.174 95.5989Z" fill="#D2B474"/>
<path d="M74.3825 95.8691C71.8821 104.131 68.9931 111.716 69.8885 120.535C71.7638 127.715 76.8153 130.283 82.8297 133.476C90.6349 137.396 94.7572 143.832 100.214 150.286C103.694 149.475 107.191 148.698 110.689 147.972C110.216 143.613 110.216 139.254 110.249 134.878C114.051 134.388 117.835 133.915 121.484 132.682C122.684 132.192 123.883 131.702 125.066 131.195C127.87 132.31 130.658 133.459 133.445 134.591C132.584 137.396 132.871 140.335 129.898 141.805C126.434 143.292 121.822 142.616 118.071 142.819C115.841 140.977 113.594 139.119 111.364 137.294C112.26 143.579 114.946 145.995 119.406 149.864C113.375 151.401 106.313 153.749 100.096 152.719C94.4193 148.478 90.1957 139.389 83.4041 136.314C79.1636 135.453 74.3994 137.277 70.0913 136.99C68.0977 136.112 66.29 134.76 64.4316 133.628C64.6175 127.394 64.3979 120.366 66.4421 114.453C68.6046 108.118 71.8483 102.086 74.3825 95.8691Z" fill="#A1936D"/>
<path d="M108.037 96.8661C108.256 100.971 108.577 105.06 108.966 109.148C108.02 109.824 107.057 110.5 106.111 111.159C103.019 108.135 99.015 106.547 100.637 101.428C102.985 99.6875 105.519 98.3021 108.037 96.8661Z" fill="#6C6657"/>
<path d="M108.037 96.8661C110.267 98.961 113.393 99.8057 113.629 103.168C113.916 106.58 111.112 107.239 108.966 109.148C108.578 105.06 108.257 100.971 108.037 96.8661Z" fill="#93876A"/>
<path d="M161.405 100.769C161.355 102.864 161.304 104.959 161.22 107.053C160.105 108.371 159.006 109.706 157.891 111.024C155.577 111.041 153.262 111.041 150.948 111.057C149.444 107.408 145.947 104.063 149.393 100.363C152.198 96.6803 157.993 99.4847 161.405 100.769Z" fill="#6D6552"/>
<path d="M152.436 101.884C153.28 102.695 153.28 102.695 152.436 101.884Z" fill="#A9A89C"/>
<path d="M156.591 101.698C158.483 99.9408 160.612 103.472 159.733 105.212C158.044 107.087 155.78 103.269 156.591 101.698Z" fill="#B3B1A7"/>
<path d="M179.939 105.33C183.757 111.581 187.271 117.68 188.403 125.063L188.336 125.485C184.298 128.644 181.139 132.412 178.081 136.483C175.057 140.589 170.968 142.532 166.694 145.015C163.974 141.281 161.423 137.446 159.058 133.459C159.581 130.131 160.037 126.769 160.494 123.424C162.757 125.603 165.021 127.783 167.251 129.979C170.884 127.293 176.053 124.303 177.895 120.028C178.081 117.849 178.165 115.686 178.165 113.507C176.307 112.392 174.448 111.26 172.59 110.111C175.124 108.624 177.489 106.935 179.939 105.33Z" fill="#DCD6AF"/>
<path d="M121.957 106.665C119.964 109.452 117.734 112.071 115.588 114.706C118.072 117.393 120.825 119.724 123.85 121.785C123.444 122.157 123.039 122.562 122.633 122.951C115.892 121.447 110.283 118.964 103.424 121.616C103.661 123.627 103.914 125.637 104.184 127.648C101.904 126.989 99.7243 126.076 97.5449 125.097C99.4878 121.633 101.448 118.17 103.407 114.723C110.047 112.865 116.213 110.55 121.957 106.665Z" fill="#EEC97F"/>
<path d="M172.59 110.111C174.448 111.26 176.306 112.392 178.165 113.507C178.165 115.686 178.08 117.849 177.894 120.028C176.053 124.302 170.883 127.293 167.251 129.979C165.021 127.783 162.757 125.603 160.493 123.424C161.084 120.535 161.051 116.599 162.858 114.149C165.477 111.986 169.481 111.378 172.59 110.111Z" fill="#F9F1C2"/>
<path d="M189.197 111.682C190.144 116.396 190.397 121.211 189.569 125.975C187.508 137.412 184.585 148.546 179.787 159.173C167.691 166.234 156.76 176.962 143.481 181.152C146.218 172.266 153.5 166.37 155.645 157.365C146.471 154.138 137.771 155.675 128.31 156.047C120.572 156.537 112.497 156.554 104.877 158.074C102.428 158.48 101.279 160.288 99.5725 161.876C101.684 166.927 107.226 173.364 102.495 178.517C94.8251 181 86.209 181.304 81.4616 173.634C77.0353 168.329 82.3908 163.65 84.6378 158.683C80.769 158.277 76.8663 157.821 72.9806 157.618C71.2067 157.534 69.4328 157.466 67.6589 157.415C64.7192 149.712 64.2969 141.771 64.432 133.628C66.2904 134.76 68.0981 136.112 70.0917 136.99C74.3998 137.277 79.164 135.453 83.4045 136.314C90.1961 139.389 94.4197 148.478 100.096 152.719C106.313 153.749 113.375 151.401 119.407 149.864C125.472 148.208 131.469 146.029 137.636 144.88C143.532 144.441 149.428 144.795 155.307 143.917C153.314 145.268 151.388 146.671 149.293 147.853C145.323 148.36 141.183 146.823 137.281 147.448C134.307 148.698 131.756 151.148 129.256 153.158C136.74 153.564 144.191 153.141 151.692 152.922C154.057 153.057 156.186 152.617 157.96 154.543C158.956 159.274 157.318 164.528 156.186 169.14C164.701 163.379 175.395 157.77 181.122 149.087C183.808 145.268 184.974 140.977 186.021 136.483C186.9 132.851 187.626 129.168 188.336 125.485L188.403 125.063C189.316 120.603 189.873 116.227 189.197 111.682Z" fill="#847B61"/>
<path d="M228.342 114.082C230.673 122.715 230.166 131.432 229.119 140.217C226.585 162.535 215.789 184.193 199.435 199.618C185.954 212.407 168.62 221.142 150.526 225.129C139.511 227.73 128.09 226.852 116.45 226.903C112.733 226.97 109.523 225.636 106.043 224.554C113.443 225.162 120.91 226.531 128.327 226.48C155.088 225.94 181.798 214.823 200.517 195.597C212.393 183.856 220.739 168.566 225.453 152.618C229.203 139.812 228.426 127.242 228.342 114.082Z" fill="#CD9FA0"/>
<path d="M139.731 119.876C134.798 121.447 130.878 120.94 125.911 119.961C129.29 116.142 136.386 115.99 139.731 119.876Z" fill="#8D7E5B"/>
<path d="M78.8417 124.826C85.0082 130.79 91.2929 136.078 98.6758 140.487C101.396 138.241 104.133 135.977 106.903 133.78C106.768 131.787 106.633 129.793 106.498 127.817C112.022 127.85 116.381 130.182 121.551 132.26L121.483 132.682C117.834 133.916 114.05 134.389 110.249 134.879C110.215 139.254 110.215 143.613 110.688 147.972C107.191 148.698 103.693 149.475 100.213 150.286C94.7563 143.833 90.6341 137.396 82.8288 133.476C76.8144 130.283 71.763 127.715 69.8877 120.535C72.9794 121.768 76.0035 123.103 78.8417 124.826Z" fill="#BBB492"/>
<path d="M83.9956 119.504C88.7091 120.924 93.1017 123.018 97.5449 125.096C99.7243 126.076 101.904 126.989 104.184 127.648L106.499 127.816C106.634 129.793 106.769 131.787 106.904 133.78C104.134 135.976 101.397 138.24 98.6768 140.487C91.294 136.078 85.0092 130.79 78.8428 124.826C80.5491 123.035 82.2386 121.228 83.9956 119.504Z" fill="#DFD7AF"/>
<path d="M122.633 122.951C122.43 126.11 122.278 129.168 121.552 132.26C116.382 130.182 112.023 127.85 106.499 127.817L104.184 127.648C103.914 125.637 103.66 123.627 103.424 121.616C110.283 118.964 115.892 121.447 122.633 122.951Z" fill="#D5B97A"/>
<path d="M123.85 121.785L125.911 119.961C130.878 120.941 134.797 121.447 139.73 119.876C140.727 121.329 141.69 122.799 142.602 124.319C141.217 128.222 140.305 132.192 139.68 136.281C138.075 132.209 137.365 127.986 136.706 123.677C133.192 124.928 129.678 126.161 126.147 127.394C125.792 128.661 125.421 129.928 125.066 131.195C123.883 131.702 122.684 132.192 121.484 132.682L121.552 132.26C122.278 129.168 122.43 126.11 122.633 122.951C123.039 122.562 123.444 122.157 123.85 121.785Z" fill="#554931"/>
<path d="M136.706 123.677C137.365 127.986 138.074 132.209 139.679 136.281L141.115 139.71C144.511 139.44 147.907 139.288 151.32 139.136C152.637 140.741 153.972 142.329 155.307 143.917C149.427 144.796 143.531 144.441 137.635 144.88C131.469 146.029 125.471 148.208 119.406 149.864C114.946 145.995 112.26 143.579 111.364 137.294C113.594 139.119 115.841 140.977 118.071 142.819C121.822 142.616 126.434 143.292 129.897 141.805C132.871 140.335 132.584 137.396 133.445 134.591C130.658 133.459 127.87 132.311 125.066 131.196C125.42 129.928 125.792 128.661 126.147 127.394C129.678 126.161 133.192 124.928 136.706 123.677Z" fill="#30260D"/>
<path d="M142.602 124.319C143.565 126.921 144.258 129.658 145.001 132.327C146.15 133.088 147.299 133.831 148.448 134.591C155.594 138.528 157.537 145.049 162.386 151.3C166.745 149.965 171.424 148.85 175.428 146.671C179.551 144.137 182.946 140.166 186.021 136.483C184.974 140.977 183.808 145.268 181.122 149.087C175.395 157.77 164.7 163.379 156.186 169.14C157.318 164.528 158.956 159.274 157.96 154.543C156.186 152.618 154.057 153.057 151.692 152.922C144.191 153.141 136.74 153.564 129.256 153.158C131.756 151.148 134.307 148.698 137.281 147.448C141.183 146.823 145.322 148.36 149.293 147.853C151.388 146.671 153.314 145.268 155.307 143.917C153.972 142.329 152.638 140.741 151.32 139.136C147.907 139.288 144.512 139.44 141.116 139.71L139.68 136.281C140.305 132.192 141.217 128.222 142.602 124.319Z" fill="#9C9679"/>
<path d="M188.335 125.485C187.625 129.168 186.899 132.851 186.02 136.484C182.946 140.167 179.55 144.137 175.428 146.671C171.424 148.85 166.744 149.965 162.385 151.3C157.536 145.049 155.594 138.528 148.447 134.591C151.978 134.22 155.509 133.848 159.057 133.46C161.422 137.447 163.973 141.282 166.693 145.015C170.968 142.532 175.056 140.589 178.08 136.484C181.138 132.412 184.297 128.645 188.335 125.485Z" fill="#BDB795"/>
<path d="M72.98 157.618C76.8657 157.821 80.7683 158.277 84.6371 158.683C82.3902 163.65 77.0346 168.33 81.461 173.634C86.2083 181.304 94.8245 181 102.495 178.517C107.225 173.364 101.684 166.927 99.5718 161.876C101.278 160.288 102.427 158.48 104.877 158.075C112.496 156.554 120.572 156.537 128.309 156.047C137.77 155.676 146.471 154.138 155.644 157.365C153.499 166.37 146.217 172.266 143.48 181.152C156.759 176.963 167.69 166.235 179.787 159.173C173.384 171.86 163.179 184.464 150.086 190.613C144.579 188.13 139.544 186.508 133.411 187.538C120.656 189.448 108.644 187.116 96.2098 190.85C83.1842 183.703 73.2165 171.033 67.6582 157.416C69.4321 157.466 71.206 157.534 72.98 157.618Z" fill="#766D55"/>
<path d="M133.412 187.538C139.544 186.508 144.579 188.13 150.086 190.613C138.547 197.354 126.062 197.844 113.054 196.898C106.803 196.492 101.582 193.857 96.21 190.85C108.644 187.116 120.656 189.447 133.412 187.538Z" fill="#695F4A"/>
</g>
<defs>
<clipPath id="clip0_2546_1849">
<rect width="256" height="256" fill="white"/>
</clipPath>
</defs>
</svg>
