<svg width="256" height="256" viewBox="0 0 256 256" fill="none" xmlns="http://www.w3.org/2000/svg">
<g clip-path="url(#clip0_1885_5578)">
<path d="M15.1318 80.1561C9.07973 95.0687 6.05371 111.224 6.05371 128.001C6.05371 144.777 8.47453 160.933 15.1318 175.845C21.1837 190.758 29.6565 203.807 40.5502 214.37C50.8386 224.933 64.1531 233.632 78.6781 239.845C93.8077 246.059 110.148 249.165 127.699 249.165C145.25 249.165 161.59 246.059 176.721 239.845C191.85 233.632 204.559 224.933 215.453 214.37C226.347 203.807 234.82 190.758 240.872 175.845C246.924 160.933 249.949 144.777 249.949 128.001C249.949 111.224 247.529 95.0687 240.872 80.1561C234.82 65.2435 226.347 52.1949 215.453 41.6318C204.559 31.0687 191.245 22.3697 176.721 16.1561C162.196 9.32116 145.25 6.21436 127.699 6.21436C110.148 6.21436 93.8077 9.32116 78.6781 15.5348C63.5479 21.7483 51.4438 30.4474 40.5502 41.0105C29.6565 52.1949 21.1837 65.2435 15.1318 80.1561Z" fill="#F3BA2F"/>
<path d="M127.698 256C108.331 256 91.3853 252.893 76.2551 246.058C60.5201 239.223 46.6005 229.903 36.3121 218.718C24.8132 207.534 16.3404 194.486 9.6832 178.33C3.6312 162.796 0 146.641 0 128C0 109.359 3.02599 93.2041 9.6832 77.6698C16.3404 61.5144 25.4184 47.8446 36.3121 36.6602C48.4161 24.8544 61.1255 16.1554 76.2551 9.94176C91.9906 3.1068 108.936 0 127.698 0C147.064 0 164.009 3.1068 179.14 9.94176C194.875 16.7767 208.794 25.4757 219.688 36.6602C231.187 47.8446 239.659 60.8932 246.317 77.6698C252.368 93.2041 256 109.359 256 128C256 146.641 252.974 162.796 246.317 178.33C239.659 194.486 230.582 208.155 219.688 219.34C208.189 230.524 194.269 239.845 179.14 246.058C164.009 252.893 147.064 256 127.698 256ZM127.698 12.4272C110.146 12.4272 95.0168 15.534 81.0971 21.1262C67.1775 26.7184 55.6785 34.7961 44.7849 45.3592C34.4965 55.3009 26.6289 67.1067 20.5769 82.0194C15.13 95.6891 12.104 110.602 12.104 127.379C12.104 144.155 15.13 159.068 20.5769 172.738C26.6289 187.65 34.4965 199.456 44.7849 209.398C54.4681 219.34 66.5722 227.418 81.0971 233.631C95.0168 239.845 110.146 242.33 127.698 242.33C145.248 242.33 160.379 239.223 174.298 233.631C188.823 227.418 200.926 219.34 211.215 209.398C221.503 199.456 229.371 187.65 235.423 172.738C240.87 159.068 243.896 144.155 243.896 127.379C243.896 110.602 240.87 95.6891 235.423 82.0194C229.371 67.1067 221.503 55.3009 211.215 45.3592C200.926 35.4175 188.217 26.7184 174.298 21.1262C160.983 15.534 145.854 12.4272 127.698 12.4272Z" fill="black"/>
<path d="M95.0194 106.251C104.097 106.251 111.36 96.3095 111.36 84.5037C111.36 72.6978 104.097 62.7559 95.0194 62.7559C85.9412 62.7559 78.6787 72.6978 78.6787 84.5037C78.6787 96.3095 85.9412 106.251 95.0194 106.251Z" fill="black"/>
<path d="M159.772 106.251C168.85 106.251 176.112 96.3095 176.112 84.5037C176.112 72.6978 168.85 62.7559 159.772 62.7559C150.694 62.7559 143.432 72.6978 143.432 84.5037C143.432 96.3095 150.694 106.251 159.772 106.251Z" fill="black"/>
<path d="M129.511 218.098C154.324 218.098 174.296 196.351 174.296 169.633C174.296 142.914 154.324 121.167 129.511 121.167C104.698 121.167 84.7266 142.914 84.7266 169.633C84.7266 196.351 104.698 218.098 129.511 218.098Z" fill="black"/>
</g>
<defs>
<clipPath id="clip0_1885_5578">
<rect width="256" height="256" fill="white"/>
</clipPath>
</defs>
</svg>
