<svg width="256" height="256" viewBox="0 0 256 256" fill="none" xmlns="http://www.w3.org/2000/svg">
<g clip-path="url(#clip0_741_46)">
<circle cx="128" cy="128" r="128" fill="url(#paint0_linear_741_46)"/>
<path d="M152.441 121.132L151.389 122.747C139.519 140.955 142.17 164.801 157.762 180.079C166.935 189.067 178.957 193.561 190.979 193.562C190.979 193.562 190.979 193.562 152.441 121.132Z" fill="white"/>
<path opacity="0.6" d="M190.976 143.145L152.438 121.132C190.976 193.562 190.976 193.562 190.976 193.562C190.976 177.788 190.976 159.712 190.976 143.145Z" fill="white"/>
<path opacity="0.6" d="M229.559 121.132L230.611 122.747C242.481 140.955 239.83 164.801 224.238 180.079C215.065 189.067 203.043 193.561 191.021 193.562C191.021 193.562 191.021 193.562 229.559 121.132Z" fill="white"/>
<path opacity="0.2" d="M191.016 143.145L229.555 121.132C191.017 193.562 191.016 193.562 191.016 193.562C191.016 177.788 191.016 159.712 191.016 143.145Z" fill="white"/>
<path opacity="0.2" d="M191.023 93.9602V131.927L224.219 112.956L191.023 93.9602Z" fill="white"/>
<path opacity="0.6" d="M191.028 93.9602L157.808 112.956L191.028 131.927V93.9602Z" fill="white"/>
<path d="M191.028 62.03L157.808 112.968L191.028 93.9192V62.03Z" fill="white"/>
<path opacity="0.6" d="M191.023 93.9137L224.245 112.963L191.023 62V93.9137Z" fill="white"/>
<path d="M128 256C198.692 256 128 198.692 128 128C128 57.3075 198.692 0 128 0C57.3075 0 0 57.3075 0 128C0 198.692 57.3075 256 128 256Z" fill="#932AE9"/>
<path d="M79 117.5C79 115.567 80.5918 114 82.5555 114H94.4858C97.6716 114 100.495 114.45 102.954 115.35C105.455 116.25 107.411 117.583 108.822 119.35C110.274 121.117 111 123.233 111 125.7C111 128.2 110.274 130.333 108.822 132.1C107.411 133.833 105.455 135.15 102.954 136.05C100.495 136.95 97.6716 137.4 94.4858 137.4H93.2625C91.2989 137.4 89.707 138.967 89.707 140.9V145.5C89.707 147.433 88.115 149 86.1513 149H82.5555C80.5918 149 79 147.433 79 145.5V117.5ZM94.4858 129.7C96.1795 129.7 97.571 129.367 98.6597 128.7C99.789 128 100.353 127 100.353 125.7C100.353 124.4 99.789 123.417 98.6597 122.75C97.571 122.05 96.1795 121.7 94.4858 121.7H93.2625C91.2989 121.7 89.707 123.267 89.707 125.2V126.2C89.707 128.133 91.2989 129.7 93.2625 129.7H94.4858Z" fill="white"/>
<path fill-rule="evenodd" clip-rule="evenodd" d="M98.1884 123.154C99.3265 123.828 99.8953 124.822 99.8953 126.136C99.8953 127.451 99.3265 128.462 98.1884 129.169C97.0911 129.843 95.6888 130.18 93.9819 130.18H92.7491C90.7701 130.18 89.1658 128.596 89.1658 126.642V125.631C89.1658 123.676 90.7701 122.092 92.7491 122.092H93.9819C95.6888 122.092 97.0911 122.446 98.1884 123.154ZM81.9584 109H93.9819C97.6942 109 101.188 109.525 104.376 110.692C107.658 111.88 110.502 113.744 112.633 116.407C114.921 119.215 116 122.551 116 126.136C116 129.745 114.927 133.111 112.617 135.936C110.481 138.562 107.641 140.399 104.376 141.58C101.349 142.689 98.045 143.218 94.5407 143.268V146.154C94.5407 151.039 90.53 155 85.5823 155H81.9584C77.0109 155 73 151.039 73 146.154V117.846C73 112.96 77.0109 109 81.9584 109ZM102.517 136.6C105.037 135.69 107.008 134.359 108.43 132.607C109.893 130.82 110.625 128.664 110.625 126.136C110.625 123.642 109.893 121.503 108.43 119.716C107.008 117.93 105.037 116.582 102.517 115.673C100.038 114.763 97.1926 114.308 93.9819 114.308H81.9584C79.9794 114.308 78.3751 115.892 78.3751 117.846V146.154C78.3751 148.108 79.9794 149.692 81.9584 149.692H85.5823C87.5613 149.692 89.1658 148.108 89.1658 146.154V141.503C89.1658 139.549 90.7701 137.965 92.7491 137.965H93.9819C97.1926 137.965 100.038 137.51 102.517 136.6Z" fill="white"/>
<path d="M20.1725 118.571C19.4379 116.312 21.1419 114 23.5417 114H26.2579C27.8125 114 29.1851 115.003 29.6412 116.473L32.1824 124.66C33.1984 127.934 37.8733 127.966 38.9347 124.706L41.6306 116.427C42.1016 114.981 43.4628 114 44.9996 114H49.0503C50.5892 114 51.9515 114.983 52.4209 116.432L55.0907 124.676C56.146 127.935 60.8164 127.913 61.8414 124.645L64.4078 116.463C64.8673 114.998 66.2375 114 67.7883 114H70.4582C72.858 114 74.562 116.312 73.8276 118.571L64.7237 146.571C64.2532 148.019 62.8916 149 61.3544 149H56.3811C54.8435 149 53.4818 148.018 53.0113 146.571L50.3966 138.522C49.3443 135.283 44.7098 135.283 43.6575 138.522L41.0428 146.571C40.5723 148.018 39.2106 149 37.6732 149H32.6456C31.1084 149 29.7467 148.019 29.2762 146.571L20.1725 118.571Z" fill="white"/>
<path fill-rule="evenodd" clip-rule="evenodd" d="M22.9058 109H25.6377C29.5467 109 32.9983 111.536 34.1453 115.25L35.0403 118.149L36.0168 115.134C37.2013 111.479 40.6239 109 44.488 109H48.5622C52.4314 109 55.8575 111.485 57.0377 115.148L58.0006 118.137L58.909 115.225C60.0642 111.523 63.5093 109 67.4089 109H70.0943C76.1286 109 80.4136 114.844 78.5663 120.554L69.4099 148.862C68.2267 152.52 64.8032 155 60.9376 155H55.9356C52.0691 155 48.6452 152.519 47.4627 148.86L46.5273 145.966L45.5918 148.86C44.4093 152.519 40.9854 155 37.1192 155H32.0624C28.1968 155 24.7734 152.52 23.5902 148.862L14.4336 120.554C12.5865 114.843 16.8714 109 22.9058 109ZM22.9058 114.308C20.492 114.308 18.7781 116.645 19.517 118.929L28.6735 147.237C29.1468 148.7 30.5163 149.692 32.0624 149.692H37.1192C38.6655 149.692 40.035 148.7 40.5083 147.236L43.1382 139.099C44.1966 135.824 48.8579 135.824 49.9164 139.099L52.5462 147.236C53.0195 148.7 54.389 149.692 55.9356 149.692H60.9376C62.4838 149.692 63.8533 148.7 64.3265 147.237L73.4832 118.929C74.2219 116.645 72.508 114.308 70.0943 114.308H67.4089C65.8491 114.308 64.4709 115.317 64.0087 116.798L61.4275 125.07C60.3965 128.374 55.6991 128.395 54.6376 125.101L51.9524 116.767C51.4802 115.302 50.1101 114.308 48.5622 114.308H44.488C42.9423 114.308 41.5732 115.299 41.0995 116.761L38.3879 125.131C37.3204 128.427 32.6184 128.395 31.5965 125.085L29.0406 116.808C28.5819 115.322 27.2013 114.308 25.6377 114.308H22.9058Z" fill="white"/>
<path d="M79 116H94.0019C97.0883 116 99.823 116.411 102.206 117.234C104.628 118.057 106.523 119.276 107.89 120.891C109.297 122.507 110 124.442 110 126.697C110 128.983 109.297 130.933 107.89 132.549C106.523 134.133 104.628 135.337 102.206 136.16C99.823 136.983 97.0883 137.394 94.0019 137.394H89.3724V148H79V116ZM94.0019 130.354C95.6429 130.354 96.9906 130.049 98.0453 129.44C99.1392 128.8 99.6863 127.886 99.6863 126.697C99.6863 125.509 99.1392 124.61 98.0453 124C96.9906 123.36 95.6429 123.04 94.0019 123.04H89.3724V130.354H94.0019Z" fill="#932AE9"/>
<path d="M20 116H29.5348L35.7224 135.474L42.2143 116H50.8363L57.2776 135.429L63.5158 116H73L62.3494 148H52.865L46.5254 128.937L40.1857 148H30.6506L20 116Z" fill="#932AE9"/>
</g>
<defs>
<linearGradient id="paint0_linear_741_46" x1="37.5" y1="37.5" x2="218.5" y2="218.5" gradientUnits="userSpaceOnUse">
<stop stop-color="#5A55D9"/>
<stop offset="1" stop-color="#01F6FA"/>
</linearGradient>
<clipPath id="clip0_741_46">
<rect width="256" height="256" fill="white"/>
</clipPath>
</defs>
</svg>
