<svg width="256" height="256" viewBox="0 0 256 256" fill="none" xmlns="http://www.w3.org/2000/svg">
<g clip-path="url(#clip0_2586_2)">
<path fill-rule="evenodd" clip-rule="evenodd" d="M128 0C198.697 0 256 57.3026 256 128C256 198.697 198.697 256 128 256C57.3026 256 0 198.697 0 128C0 57.3026 57.3026 0 128 0Z" fill="white"/>
<mask id="mask0_2586_2" style="mask-type:luminance" maskUnits="userSpaceOnUse" x="39" y="40" width="177" height="177">
<path d="M216 40H39V217H216V40Z" fill="white"/>
</mask>
<g mask="url(#mask0_2586_2)">
<path fill-rule="evenodd" clip-rule="evenodd" d="M198.023 75.1234C184.61 57.9766 164.974 47.0523 143.264 47.0523C101.227 47.0523 70.3898 86.1859 70.3898 128.5C70.3898 157.954 90.0258 180.079 111.736 180.079C113.81 180.079 115.746 179.941 117.82 179.526C103.162 168.878 93.8977 149.519 93.8977 128.5C93.8977 95.0359 116.576 68.9008 143.264 68.9008C172.441 68.9008 192.63 97.8016 192.63 128.5C192.492 151.178 184.472 173.718 170.229 190.312C157.784 204.831 141.743 213.958 124.043 216.862C124.043 216.862 125.564 217 127.5 217C176.313 217 216 177.313 216 128.5C216 108.449 209.362 89.9195 198.023 75.1234ZM184.61 128.5C184.61 99.0461 164.974 76.9211 143.264 76.9211C141.19 76.9211 139.254 77.0594 137.18 77.4742C151.838 88.1219 161.102 107.481 161.102 128.5C161.102 161.964 138.424 188.099 111.736 188.099C82.5586 188.099 62.3695 159.198 62.3695 128.5C62.5078 105.822 70.5281 83.282 84.7711 66.6883C97.2164 52.1687 113.257 43.0422 130.957 40.1383C130.957 40.1383 129.436 40 127.5 40C78.6867 40 39 79.6867 39 128.5C39 148.551 45.6375 167.08 56.9766 181.877C70.3898 199.023 90.0258 209.809 111.736 209.809C153.773 209.948 184.61 170.814 184.61 128.5Z" fill="black"/>
</g>
</g>
<defs>
<clipPath id="clip0_2586_2">
<rect width="256" height="256" fill="white"/>
</clipPath>
</defs>
</svg>
