<svg width="256" height="256" viewBox="0 0 256 256" fill="none" xmlns="http://www.w3.org/2000/svg">
<g clip-path="url(#clip0_2573_4351)">
<mask id="mask0_2573_4351" style="mask-type:luminance" maskUnits="userSpaceOnUse" x="0" y="0" width="256" height="256">
<path d="M256 0H0V256H256V0Z" fill="white"/>
</mask>
<g mask="url(#mask0_2573_4351)">
<path d="M128 256C198.693 256 256 198.693 256 128C256 57.3075 198.693 0 128 0C57.3075 0 0 57.3075 0 128C0 198.693 57.3075 256 128 256Z" fill="#075A5A"/>
<g style="mix-blend-mode:screen" opacity="0.3">
<path opacity="0.8" d="M131.982 13.4133V98.1134L203.571 130.105L131.982 13.4133Z" fill="white"/>
<path d="M131.983 13.4133L60.3813 130.105L131.983 98.1134V13.4133Z" fill="white"/>
<path opacity="0.8" d="M131.982 184.994V242.548L203.621 143.433L131.982 184.994Z" fill="white"/>
<path d="M131.983 242.548V184.986L60.3813 143.433L131.983 242.548Z" fill="white"/>
<path opacity="0.5" d="M131.982 171.674L203.571 130.105L131.982 98.1344V171.674Z" fill="white"/>
<path d="M60.3818 130.105L131.983 171.674V98.1344L60.3818 130.105Z" fill="white" fill-opacity="0.3"/>
</g>
<g style="mix-blend-mode:screen" opacity="0.3">
<path opacity="0.8" d="M131.984 17.6777V96.1833L198.337 125.835L131.984 17.6777Z" fill="white"/>
<path d="M131.984 17.6777L65.6191 125.835L131.984 96.1833V17.6777Z" fill="white"/>
<path opacity="0.8" d="M131.986 188.859V236.416L191.181 154.517L131.986 188.859Z" fill="white"/>
<path d="M131.986 236.416V188.851L72.8213 154.517L131.986 236.416Z" fill="white"/>
<path opacity="0.5" d="M131.984 168.99L198.337 130.461L131.984 100.829V168.99Z" fill="white"/>
<path d="M65.6191 130.461L131.984 168.99V100.829L65.6191 130.461Z" fill="white" fill-opacity="0.3"/>
</g>
<path d="M131.987 38.5494V104.667L187.869 129.639L131.987 38.5494Z" fill="#C1DCDC"/>
<path d="M131.987 38.5494L76.0947 129.639L131.987 104.667V38.5494Z" fill="white"/>
<path d="M131.987 172.485V217.412L187.908 140.043L131.987 172.485Z" fill="#C1DCDC"/>
<path d="M131.987 217.412V172.478L76.0947 140.043L131.987 217.412Z" fill="white"/>
<path opacity="0.5" d="M131.987 162.087L187.869 129.639L131.987 104.682V162.087Z" fill="white"/>
<path d="M76.0947 129.639L131.987 162.087V104.682L76.0947 129.639Z" fill="white" fill-opacity="0.3"/>
</g>
</g>
<defs>
<clipPath id="clip0_2573_4351">
<rect width="256" height="256" fill="white"/>
</clipPath>
</defs>
</svg>
