<svg width="256" height="256" viewBox="0 0 256 256" fill="none" xmlns="http://www.w3.org/2000/svg">
<g clip-path="url(#clip0_2254_51)">
<path d="M128 256C198.692 256 256 198.692 256 128C256 57.3075 198.692 0 128 0C57.3075 0 0 57.3075 0 128C0 198.692 57.3075 256 128 256Z" fill="white"/>
<path d="M71.3101 162.88C72.3238 161.859 73.7175 161.264 75.1957 161.264H209.246C211.696 161.264 212.92 164.24 211.189 165.983L184.708 192.637C183.694 193.657 182.301 194.252 180.823 194.252H46.7723C44.3227 194.252 43.0979 191.277 44.8295 189.534L71.3101 162.88Z" fill="black"/>
<path d="M71.3101 63.363C72.366 62.3427 73.7597 61.7476 75.1957 61.7476H209.246C211.696 61.7476 212.92 64.7233 211.189 66.4662L184.708 93.1203C183.694 94.1405 182.301 94.7357 180.823 94.7357H46.7723C44.3227 94.7357 43.0979 91.7599 44.8295 90.017L71.3101 63.363Z" fill="black"/>
<path d="M184.708 112.802C183.694 111.782 182.301 111.187 180.823 111.187H46.7723C44.3227 111.187 43.0979 114.163 44.8295 115.906L71.3101 142.56C72.3238 143.58 73.7175 144.175 75.1957 144.175H209.246C211.696 144.175 212.92 141.199 211.189 139.456L184.708 112.802Z" fill="black"/>
</g>
<defs>
<clipPath id="clip0_2254_51">
<rect width="256" height="256" fill="white"/>
</clipPath>
</defs>
</svg>
