<svg width="256" height="256" viewBox="0 0 256 256" fill="none" xmlns="http://www.w3.org/2000/svg">
<g clip-path="url(#clip0_776_320)">
<path d="M128 256C198.692 256 256 198.692 256 128C256 57.3076 198.692 0 128 0C57.3076 0 0 57.3076 0 128C0 198.692 57.3076 256 128 256Z" fill="black"/>
<path fill-rule="evenodd" clip-rule="evenodd" d="M62.2399 174.538C87.8465 210.957 138.128 219.723 174.548 194.117C210.968 168.509 219.733 118.228 194.126 81.808C168.52 45.3885 118.238 36.6229 81.8182 62.2297C45.3988 87.8363 36.6332 138.119 62.2399 174.538ZM187.406 212.402C140.887 245.111 76.6607 233.914 43.9531 187.396C11.2455 140.876 22.4417 76.6506 68.9607 43.9428C115.48 11.2352 179.706 22.4315 212.413 68.9505C245.121 115.469 233.924 179.695 187.406 212.402Z" fill="#388080"/>
<path fill-rule="evenodd" clip-rule="evenodd" d="M208.472 120.989C204.506 76.6457 165.343 43.9134 121 47.8797C76.6558 51.846 43.9237 91.0088 47.89 135.352C51.8561 179.695 91.019 212.428 135.362 208.462C179.706 204.495 212.439 165.333 208.472 120.989ZM119.008 25.6141C175.648 20.548 225.672 62.3571 230.737 118.998C235.804 175.638 193.995 225.661 137.354 230.728C80.7136 235.793 30.6905 193.984 25.6244 137.344C20.5581 80.7034 62.3674 30.6802 119.008 25.6141Z" fill="#388080"/>
<path fill-rule="evenodd" clip-rule="evenodd" d="M201.303 162.094C220.039 121.707 202.49 73.7795 162.105 55.0427C121.718 36.3058 73.7902 53.8557 55.0534 94.2414C36.3165 134.627 53.8664 182.555 94.2522 201.292C134.638 220.03 182.566 202.48 201.303 162.094ZM171.513 34.7643C223.098 58.697 245.515 119.916 221.582 171.502C197.649 223.087 136.429 245.504 84.8441 221.571C33.2589 197.638 10.8423 136.419 34.7751 84.8334C58.7079 33.2482 119.927 10.8316 171.513 34.7643Z" fill="#24A35F"/>
<path fill-rule="evenodd" clip-rule="evenodd" d="M100.872 55.8095C110.395 45.8225 122.667 38.8838 136.133 35.8708C149.6 32.8579 163.658 33.906 176.529 38.8825C189.401 43.8592 200.507 52.5408 208.444 63.8295L190.157 76.687C184.763 69.015 177.215 63.115 168.467 59.7328C159.719 56.3506 150.166 55.6384 141.013 57.686C131.861 59.7336 123.522 64.4493 117.05 71.2365C110.577 78.0238 106.263 86.5778 104.653 95.8171C103.042 105.056 104.207 114.565 108.001 123.142C111.795 131.719 118.047 138.978 125.967 144.002C133.886 149.026 143.118 151.588 152.493 151.365C161.869 151.142 170.969 148.145 178.64 142.751L191.498 161.038C180.209 168.975 166.82 173.386 153.024 173.714C139.229 174.042 125.645 170.271 113.993 162.879C102.339 155.487 93.1397 144.805 87.5574 132.186C81.9751 119.565 80.2605 105.573 82.6304 91.9779C85.0003 78.3831 91.3484 65.7965 100.872 55.8095Z" fill="url(#paint0_radial_776_320)"/>
<path fill-rule="evenodd" clip-rule="evenodd" d="M79.1745 188.004C65.7639 184.751 53.6193 177.594 44.2765 167.437C34.9338 157.281 28.8125 144.582 26.6869 130.947C24.5611 117.312 26.5263 103.353 32.3341 90.8346L52.6124 100.243C48.6654 108.75 47.3297 118.237 48.7744 127.504C50.2191 136.77 54.3792 145.401 60.7287 152.303C67.0781 159.204 75.3317 164.069 84.4457 166.281C93.5598 168.492 103.125 167.951 111.932 164.726C120.738 161.502 128.391 155.738 133.922 148.164C139.453 140.59 142.613 131.546 143.005 122.176C143.395 112.805 140.999 103.529 136.118 95.5211C131.237 87.5128 124.092 81.1316 115.584 77.1845L124.992 56.9062C137.51 62.714 148.024 72.1035 155.206 83.8872C162.388 95.6708 165.914 109.319 165.34 123.107C164.765 136.895 160.114 150.203 151.975 161.347C143.837 172.492 132.577 180.973 119.618 185.718C106.66 190.463 92.5852 191.259 79.1745 188.004Z" fill="url(#paint1_radial_776_320)"/>
<path fill-rule="evenodd" clip-rule="evenodd" d="M204.502 140.692C208.389 153.933 208.262 168.029 204.139 181.198C200.015 194.367 192.078 206.017 181.332 214.677C170.587 223.335 157.516 228.613 143.771 229.841L141.779 207.576C151.12 206.741 160.003 203.154 167.307 197.27C174.609 191.385 180.003 183.467 182.805 174.518C185.609 165.567 185.695 155.988 183.053 146.989C180.411 137.99 175.159 129.977 167.964 123.963C160.768 117.948 151.95 114.203 142.625 113.199C133.3 112.197 123.888 113.981 115.578 118.328C107.267 122.674 100.432 129.388 95.937 137.62C91.442 145.85 89.4887 155.229 90.3242 164.571L68.0587 166.562C66.8293 152.817 69.7033 139.017 76.3174 126.905C82.9315 114.794 92.9885 104.915 105.217 98.5195C117.445 92.1238 131.295 89.4977 145.015 90.9734C158.736 92.4491 171.711 97.9603 182.3 106.81C192.889 115.66 200.614 127.451 204.502 140.692Z" fill="url(#paint2_radial_776_320)"/>
</g>
<defs>
<radialGradient id="paint0_radial_776_320" cx="0" cy="0" r="1" gradientUnits="userSpaceOnUse" gradientTransform="translate(151.367 103.961) rotate(-35.1112) scale(58.5958 58.5958)">
<stop offset="0.25" stop-color="#85F1B5" stop-opacity="0"/>
<stop offset="0.402606" stop-color="#70E295" stop-opacity="0"/>
<stop offset="0.47" stop-color="#69DC98" stop-opacity="0.353258"/>
<stop offset="0.65" stop-color="#6EFFC2"/>
<stop offset="1" stop-color="#24A35F"/>
</radialGradient>
<radialGradient id="paint1_radial_776_320" cx="0" cy="0" r="1" gradientUnits="userSpaceOnUse" gradientTransform="translate(95.6268 120.199) rotate(-155.111) scale(58.5958 58.5958)">
<stop offset="0.25" stop-color="#85F1B5" stop-opacity="0"/>
<stop offset="0.402606" stop-color="#70E295" stop-opacity="0"/>
<stop offset="0.47" stop-color="#69DC98" stop-opacity="0.353258"/>
<stop offset="0.65" stop-color="#6EFFC2"/>
<stop offset="1" stop-color="#24A35F"/>
</radialGradient>
<radialGradient id="paint2_radial_776_320" cx="0" cy="0" r="1" gradientUnits="userSpaceOnUse" gradientTransform="translate(137.554 160.346) rotate(84.8888) scale(58.5958 58.5958)">
<stop offset="0.25" stop-color="#85F1B5" stop-opacity="0"/>
<stop offset="0.402606" stop-color="#70E295" stop-opacity="0"/>
<stop offset="0.47" stop-color="#69DC98" stop-opacity="0.353258"/>
<stop offset="0.65" stop-color="#6EFFC2"/>
<stop offset="1" stop-color="#24A35F"/>
</radialGradient>
<clipPath id="clip0_776_320">
<rect width="256" height="256" fill="white"/>
</clipPath>
</defs>
</svg>
