<svg width="238" height="238" viewBox="0 0 238 238" fill="none" xmlns="http://www.w3.org/2000/svg">
<g clip-path="url(#clip0_2697_21)">
<mask id="mask0_2697_21" style="mask-type:alpha" maskUnits="userSpaceOnUse" x="0" y="0" width="238" height="238">
<path d="M119 238C184.722 238 238 184.722 238 119C238 53.2781 184.722 0 119 0C53.2781 0 0 53.2781 0 119C0 184.722 53.2781 238 119 238Z" fill="#D9D9D9"/>
</mask>
<g mask="url(#mask0_2697_21)">
<path d="M254.395 -16.3955H-16.3965V254.396H254.395V-16.3955Z" fill="#00A3FF"/>
<path d="M63.4589 109.392L61.9431 111.718C44.8463 137.944 48.6649 172.292 71.1235 194.298C84.3357 207.243 101.652 213.717 118.969 213.719C118.969 213.719 118.969 213.719 63.4589 109.392Z" fill="white"/>
<path opacity="0.6" d="M118.965 141.1L63.4551 109.392C118.965 213.719 118.965 213.719 118.965 213.719C118.965 190.998 118.965 164.961 118.965 141.1Z" fill="white"/>
<path opacity="0.6" d="M174.539 109.392L176.055 111.718C193.152 137.944 189.333 172.292 166.875 194.298C153.663 207.243 136.346 213.717 119.029 213.719C119.029 213.719 119.029 213.719 174.539 109.392Z" fill="white"/>
<path opacity="0.2" d="M119.021 141.1L174.532 109.392C119.022 213.719 119.021 213.719 119.021 213.719C119.021 190.998 119.021 164.961 119.021 141.1Z" fill="white"/>
<path opacity="0.2" d="M119.031 70.2544V124.941L166.847 97.6154L119.031 70.2544Z" fill="white"/>
<path opacity="0.6" d="M119.04 70.2544L71.1895 97.6149L119.04 124.941V70.2544Z" fill="white"/>
<path d="M119.04 24.2627L71.1895 97.6323L119.04 70.1951V24.2627Z" fill="white"/>
<path opacity="0.6" d="M119.031 70.1871L166.884 97.6253L119.031 24.2192V70.1871Z" fill="white"/>
</g>
</g>
<defs>
<clipPath id="clip0_2697_21">
<rect width="238" height="238" fill="white"/>
</clipPath>
</defs>
</svg>
