<svg width="256" height="256" viewBox="0 0 256 256" fill="none" xmlns="http://www.w3.org/2000/svg">
<g clip-path="url(#clip0_1739_199)">
<path d="M256 128C256 57.3076 198.692 0 128 0C57.3076 0 0 57.3076 0 128C0 198.692 57.3076 256 128 256C198.692 256 256 198.692 256 128Z" fill="#232364"/>
<mask id="mask0_1739_199" style="mask-type:luminance" maskUnits="userSpaceOnUse" x="32" y="32" width="192" height="192">
<path d="M224 32H32V224H224V32Z" fill="white"/>
</mask>
<g mask="url(#mask0_1739_199)">
<path d="M127.982 223.729C102.561 223.713 78.1856 213.614 60.2028 195.647C42.2198 177.68 32.0984 153.313 32.0594 127.893C32.0984 102.471 42.2193 78.1032 60.2019 60.1345C78.1843 42.1657 102.561 32.0634 127.982 32.0439C153.404 32.0634 177.779 42.1657 195.761 60.1345C213.744 78.1032 223.865 102.471 223.904 127.893C223.865 153.313 213.744 177.68 195.761 195.647C177.778 213.614 153.402 223.713 127.982 223.729ZM127.982 39.4226C104.516 39.4388 82.0154 48.7627 65.4157 65.3486C48.8163 81.9342 39.4738 104.427 39.438 127.893C39.4609 151.361 48.7996 173.861 65.4022 190.447C82.0051 207.034 104.513 216.35 127.982 216.35C151.45 216.35 173.958 207.034 190.561 190.447C207.164 173.861 216.502 151.361 216.525 127.893C216.49 104.427 207.148 81.9342 190.548 65.3486C173.948 48.7627 151.447 39.4388 127.982 39.4226Z" fill="white"/>
<path d="M140.109 208.566C119.048 208.55 98.8537 200.181 83.9558 185.294C69.0579 170.408 60.6732 150.22 60.6406 129.159C60.6732 108.099 69.0579 87.9115 83.9558 73.0251C98.8537 58.1385 119.048 49.7692 140.109 49.7529C161.169 49.7692 181.363 58.1385 196.261 73.0251C211.159 87.9115 219.544 108.099 219.576 129.159C219.544 150.22 211.159 170.408 196.261 185.294C181.363 200.181 161.169 208.55 140.109 208.566ZM140.109 55.4837C120.569 55.5 101.834 63.2659 88.0121 77.0775C74.1913 90.89 66.4128 109.62 66.384 129.159C66.416 148.697 74.1965 167.424 88.0166 181.233C101.838 195.043 120.571 202.807 140.109 202.823C159.646 202.807 178.38 195.043 192.2 181.233C206.021 167.424 213.801 148.697 213.834 129.159C213.801 109.622 206.021 90.8951 192.2 77.0859C178.38 63.2764 159.646 55.5123 140.109 55.496V55.4837Z" fill="white"/>
<path d="M152.232 193.416C135.533 193.403 119.52 186.767 107.707 174.963C95.8938 163.159 89.2448 147.151 89.2186 130.452C89.2448 113.752 95.8938 97.7446 107.707 85.9404C119.52 74.1369 135.533 67.5007 152.232 67.4873C168.933 67.4969 184.947 74.1324 196.762 85.9372C208.575 97.7414 215.223 113.751 215.246 130.452C215.22 147.151 208.571 163.159 196.758 174.963C184.945 186.767 168.932 193.403 152.232 193.416ZM152.232 71.5827C136.618 71.5923 121.644 77.7958 110.598 88.8326C99.5526 99.8694 93.3363 114.837 93.3133 130.452C93.3395 146.065 99.5578 161.029 110.604 172.063C121.649 183.097 136.62 189.299 152.232 189.309C167.845 189.299 182.816 183.097 193.862 172.063C204.908 161.029 211.125 146.065 211.151 130.452C211.128 114.837 204.912 99.8694 193.866 88.8326C182.82 77.7958 167.847 71.5923 152.232 71.5827Z" fill="white"/>
<path d="M164.359 178.252C152.02 178.242 140.189 173.339 131.46 164.617C122.732 155.896 117.82 144.068 117.8 131.73C117.816 119.389 122.728 107.558 131.457 98.8344C140.185 90.1099 152.019 85.2049 164.359 85.1953C176.7 85.2049 188.534 90.1099 197.262 98.8344C205.991 107.558 210.902 119.389 210.918 131.73C210.899 144.068 205.987 155.896 197.258 164.617C188.53 173.339 176.698 178.242 164.359 178.252ZM164.359 87.6548C152.671 87.6644 141.463 92.3102 133.196 100.573C124.928 108.836 120.276 120.041 120.26 131.73C120.279 143.416 124.932 154.618 133.2 162.878C141.467 171.138 152.673 175.783 164.359 175.792C176.045 175.783 187.251 171.138 195.519 162.878C203.786 154.618 208.44 143.416 208.459 131.73C208.442 120.041 203.791 108.836 195.523 100.573C187.256 92.3102 176.048 87.6644 164.359 87.6548Z" fill="white"/>
</g>
</g>
<defs>
<clipPath id="clip0_1739_199">
<rect width="256" height="256" fill="white"/>
</clipPath>
</defs>
</svg>
