<svg width="256" height="256" viewBox="0 0 256 256" fill="none" xmlns="http://www.w3.org/2000/svg">
<g clip-path="url(#clip0_1987_1056)">
<path d="M256 128C256 57.3075 198.692 0 128 0C57.3075 0 0 57.3075 0 128C0 198.692 57.3075 256 128 256C198.692 256 256 198.692 256 128Z" fill="white"/>
<path fill-rule="evenodd" clip-rule="evenodd" d="M139.175 70.3888C138.693 70.3888 136.604 70.5495 134.675 70.7102C131.3 71.0317 126.479 71.5138 125.675 71.8352C125.514 71.8352 124.55 71.9959 123.747 72.1567C117.318 73.1209 109.282 75.6924 104.782 78.2638C103.979 78.7459 103.014 79.2281 102.854 79.2281C101.889 79.5495 95.1395 84.3709 92.5681 86.4602C74.086 101.567 64.2825 125.192 68.461 144.799C68.9432 147.21 69.1039 147.21 70.711 145.924C73.4432 143.996 75.8539 142.388 79.0681 140.46C80.9967 139.335 89.3538 135.317 89.6752 135.317C89.6752 135.317 90.3181 134.996 91.1217 134.674C98.5145 131.299 119.889 123.906 130.657 121.174C130.979 121.014 132.907 120.531 134.675 120.049C144.8 117.317 146.568 116.835 146.568 117.317C146.568 117.478 145.925 117.639 145.282 117.96C141.746 119.246 132.264 123.103 131.782 123.424C131.621 123.585 131.461 123.585 131.3 123.585C131.139 123.585 130.336 123.906 129.371 124.389C128.407 124.871 127.764 125.192 127.604 125.192C127.443 125.192 126.639 125.514 125.675 125.996C124.711 126.478 123.747 126.799 123.747 126.799C123.747 126.799 122.622 127.281 121.497 127.764C120.372 128.246 119.247 128.728 119.247 128.728C118.122 128.728 94.3359 141.263 86.7824 145.763C85.0145 146.728 83.5681 147.692 83.5681 147.692C83.5681 147.692 81.1574 149.138 73.6039 153.96C65.2468 159.263 51.2647 169.067 42.7469 175.817C41.7826 176.62 40.4969 177.585 40.0147 177.906C32.6219 183.692 31.6576 184.817 35.8362 182.567C45.3183 177.585 55.9254 172.603 63.4789 169.549C68.1396 167.621 73.1217 166.335 76.336 165.853L77.7824 165.692L81.3181 169.228C90.3181 178.228 99.9609 182.888 114.264 184.817C117.639 185.299 128.568 185.138 131.139 184.656C131.943 184.495 133.55 184.174 134.836 184.013C136.121 183.853 137.568 183.531 137.889 183.37C138.211 183.21 139.336 183.049 140.3 182.728C156.693 178.388 170.836 168.263 183.371 151.549C183.693 151.228 184.818 149.781 185.782 148.335C186.907 146.888 188.032 145.442 188.353 144.96C188.675 144.638 189.318 143.513 189.961 142.71C196.389 133.549 205.71 118.442 211.496 107.353C212.139 106.067 213.264 104.139 213.746 103.014C214.228 101.889 216.318 97.8708 218.246 94.1744C220.175 90.478 221.782 87.103 221.782 86.9423C222.264 85.978 222.103 85.6566 219.693 84.6923C219.371 84.5316 217.603 83.8888 215.675 83.4066C213.746 82.7638 211.496 82.1209 210.693 81.7995C207.478 80.6745 202.014 79.2281 195.425 77.4602C189.639 76.0138 188.193 75.5316 185.943 75.0495C184.818 74.8888 183.693 74.5674 183.371 74.4067C183.05 74.2459 182.086 74.0852 181.282 73.9245C179.032 73.4424 177.907 73.2817 175.818 72.7995C167.782 71.0317 160.871 70.3888 149.139 70.3888C144.318 70.2281 139.818 70.3888 139.175 70.3888Z" fill="#5ECE71"/>
</g>
<defs>
<clipPath id="clip0_1987_1056">
<rect width="256" height="256" fill="white"/>
</clipPath>
</defs>
</svg>
