<svg width="256" height="256" viewBox="0 0 256 256" fill="none" xmlns="http://www.w3.org/2000/svg">
<g clip-path="url(#clip0_2472_665)">
<path d="M128.001 239C66.8873 239 17 189.063 17 128.001C17 66.8873 66.9377 17 128.001 17C189.114 17 239 66.9377 239 128.001C239 189.114 189.114 239 128.001 239Z" fill="#F9BB00"/>
<path d="M128 256C57.6 256 0 198.4 0 128C0 57.6 57.6 0 128 0C198.4 0 256 57.6 256 128C256 198.4 198.4 256 128 256ZM128 28.4611C73.2611 28.4611 28.4611 73.2611 28.4611 128C28.4611 182.739 73.2611 227.539 128 227.539C182.739 227.539 227.539 182.739 227.539 128C227.539 73.2611 182.739 28.4611 128 28.4611Z" fill="#F9BB00"/>
<path d="M120.309 159.875H175.776V187.609H143.049V211.075H114.588V188.336H80.4546C80.4546 179.075 79.0487 169.863 81.1817 161.33C81.9087 157.063 86.8546 152.796 90.4417 148.53C101.109 135.73 111.776 122.93 123.17 110.13C127.436 105.136 131.703 100.869 136.697 95.1969H83.3638V67.4629H114.636V44H142.37V66.7328H176.503C176.503 75.9928 177.909 85.2058 175.776 93.7388C175.049 98.0058 170.103 102.272 166.515 106.539C155.849 119.339 145.182 132.139 133.788 144.939C129.52 149.936 125.255 154.881 120.309 159.875Z" fill="black"/>
</g>
<defs>
<clipPath id="clip0_2472_665">
<rect width="256" height="256" fill="white"/>
</clipPath>
</defs>
</svg>
