<svg width="256" height="256" viewBox="0 0 256 256" fill="none" xmlns="http://www.w3.org/2000/svg">
<path d="M256 127.998C256 161.946 242.514 194.504 218.509 218.509C194.504 242.514 161.946 256 127.998 256C94.0514 255.999 61.495 242.513 37.491 218.509C13.487 194.505 0.00116778 161.95 0 128.002C-2.00871e-08 94.0551 13.4853 61.4975 37.4895 37.4926C61.4936 13.4876 94.0505 0.00116783 127.998 0C161.946 -2.00871e-08 194.503 13.4853 218.508 37.4895C242.512 61.4935 255.999 94.0505 256 127.998Z" fill="#F6E8F6"/>
<path fill-rule="evenodd" clip-rule="evenodd" d="M64.7891 62H89.8818C91.7745 62 94.4051 63.5438 95.7282 65.4317L105.472 79.3358V79.3219L140.053 128.628L102.109 182.523V182.467L95.731 191.569C94.4084 193.456 91.7771 195 89.8845 195H64.7917C62.948 195 62.4584 193.534 63.6581 191.713L108.077 128.5L63.6184 65.2315C62.4654 63.4363 62.9635 62 64.7891 62ZM166.118 62H191.211C193.104 62 193.57 63.5438 192.247 65.4317L190.728 67.5986L147.932 128.5L190.69 189.347L192.247 191.569C193.57 193.456 193.104 195 191.211 195H166.118C164.225 195 161.595 193.456 160.272 191.569L155.401 184.618H155.356L130.124 148.778L144.311 128.628L130.124 108.399L158.741 67.5986H158.753L160.272 65.4317C161.595 63.5438 164.225 62 166.118 62Z" fill="#626262"/>
</svg>
