<svg width="256" height="256" viewBox="0 0 256 256" fill="none" xmlns="http://www.w3.org/2000/svg">
<circle cx="128" cy="128" r="127" fill="black"/>
<path d="M204.515 75.041C186.696 92.9594 169.109 110.646 151.38 128.47C168.983 146.063 186.633 163.702 204.362 181.426C195.761 193.588 185.04 203.183 171.996 210.139C131.642 231.664 81.6621 220.586 54.0589 184.108C52.5447 182.105 52.4921 181.016 54.3639 179.16C70.6839 163.014 86.8778 146.741 103.124 130.521C103.803 129.843 104.581 129.264 105.196 128.744C87.351 110.846 69.7481 93.1855 51.9243 75.3091C69.7481 51.1129 93.2187 37.2903 122.978 35.7603C157.011 34.0095 184.015 47.8899 204.51 75.041H204.515ZM158.567 182.157C148.425 172.015 138.251 161.836 128.309 151.894C118.298 161.904 108.119 172.083 97.9875 182.215C115.254 193.167 142.163 192.809 158.573 182.152L158.567 182.157ZM158.788 74.4836C140.312 62.8587 113.135 64.1627 98.366 74.2628C108.45 84.3472 118.624 94.5209 128.682 104.574C138.488 94.7733 148.578 84.6942 158.788 74.4836Z" fill="white"/>
<path d="M206.975 79.6205C225.172 106.545 226.077 148.203 207.249 176.642C199.835 169.234 192.375 161.778 184.719 154.123C188.41 145.958 190.445 136.909 190.293 127.413C190.161 119.196 188.489 111.293 185.224 103.743C184.761 102.67 184.409 101.84 185.503 100.767C192.496 93.8953 199.399 86.9288 206.339 79.9991C206.507 79.8308 206.765 79.7414 206.975 79.6152V79.6205Z" fill="white"/>
<path d="M49.6897 177.073C31.8975 151.02 29.9364 109.437 49.7423 79.1206C50.8938 80.4035 51.9243 81.6601 53.06 82.801C58.9224 88.7002 64.79 94.6047 70.726 100.43C71.7565 101.445 71.9563 102.234 71.3885 103.58C64.4377 120.036 64.5061 136.514 71.3569 153.003C71.6461 153.702 71.6303 155 71.1834 155.458C64.0855 162.708 56.8876 169.864 49.6897 177.062V177.073Z" fill="white"/>
</svg>
