<svg width="256" height="256" viewBox="0 0 256 256" fill="none" xmlns="http://www.w3.org/2000/svg">
<g clip-path="url(#clip0_1799_248)">
<path d="M128.002 256.003C198.695 256.003 256.003 198.695 256.003 128.002C256.003 57.3083 198.695 0 128.002 0C57.3083 0 0 57.3083 0 128.002C0 198.695 57.3083 256.003 128.002 256.003Z" fill="#00EBAB"/>
<path d="M206.971 53.4961H186.832V73.6353H207.744V53.4961H206.971Z" fill="black"/>
<path d="M176.261 83.415H156.122V103.554H177.035V83.415H176.261Z" fill="black"/>
<path d="M92.3663 163.837H72.2271V183.976H93.1395V163.837H92.3663Z" fill="black"/>
<path d="M113.389 143.753H93.25V163.892H114.162V143.753H113.389Z" fill="black"/>
<path d="M134.392 123.604H114.252V143.743H135.165V123.604H134.392Z" fill="black"/>
<path d="M155.394 103.593H135.254V123.732H156.167V103.593H155.394Z" fill="black"/>
<path d="M176.261 163.837H156.122V183.976H177.035V163.837H176.261Z" fill="black"/>
<path d="M155.394 143.753H135.254V163.892H156.167V143.753H155.394Z" fill="black"/>
<path d="M113.389 103.593H93.25V123.732H114.162V103.593H113.389Z" fill="black"/>
<path d="M92.3663 83.415H72.2271V103.554H93.1395V83.415H92.3663Z" fill="black"/>
</g>
<defs>
<clipPath id="clip0_1799_248">
<rect width="256" height="256" fill="white"/>
</clipPath>
</defs>
</svg>
