<svg width="256" height="256" viewBox="0 0 256 256" fill="none" xmlns="http://www.w3.org/2000/svg">
<path d="M256 127.998C256 161.946 242.514 194.504 218.509 218.509C194.504 242.514 161.946 256 127.998 256C94.0514 255.999 61.495 242.513 37.491 218.509C13.487 194.505 0.00116778 161.95 0 128.002C-2.00871e-08 94.0551 13.4853 61.4975 37.4895 37.4926C61.4936 13.4876 94.0505 0.00116783 127.998 0C161.946 -2.00871e-08 194.503 13.4853 218.508 37.4895C242.512 61.4935 255.999 94.0505 256 127.998Z" fill="#2B1301"/>
<path d="M94.295 168.444L86.3848 160.534L70.455 178.553L66.0372 174.135C61.9876 178.185 61.9876 184.742 66.0372 188.781C70.0868 192.831 76.6438 192.831 80.6835 188.781L76.2657 184.364L94.295 168.434V168.444Z" fill="#C3A053"/>
<path d="M161.076 168.446L168.987 160.536L184.916 178.565L189.334 174.147C193.383 178.197 193.383 184.753 189.334 188.793C185.284 192.843 178.728 192.843 174.688 188.793L179.106 184.375L161.076 168.446Z" fill="#C3A053"/>
<path d="M180.479 144.773L171.594 142.913C171.594 142.913 169.922 148.992 164.639 155.828L73.3088 67.1243L64.543 64L67.6672 72.7659L156.371 164.086C149.535 169.38 143.456 171.041 143.456 171.041L145.316 179.926L151.515 173.728L162.888 162.355L174.261 150.982L180.46 144.783L180.479 144.773ZM161.366 159.599C161.166 159.808 160.967 160.007 160.759 160.216C160.55 160.425 160.351 160.624 160.142 160.822L69.1896 69.4725L66.9508 66.4079L70.0154 68.6367L161.366 159.609V159.599Z" fill="#C3A053"/>
<path d="M95.2193 160.824C95.0103 160.625 94.8113 160.426 94.6024 160.217C94.3934 160.008 94.1944 159.809 93.9954 159.6L122.442 131.273L119.318 128.059L90.7319 155.829C85.4385 148.994 83.7769 142.914 83.7769 142.914L74.8916 144.775L81.0904 150.973L92.4631 162.346L103.836 173.719L110.035 179.918L111.895 171.032C111.895 171.032 105.816 169.361 98.9803 164.077L126.641 135.601L123.517 132.377L95.1994 160.814L95.2193 160.824Z" fill="#C3A053"/>
<path d="M190.818 64.002L182.062 67.1262L128.741 118.916L131.845 121.93L185.346 68.6485L188.411 66.4098L186.182 69.4744L132.91 122.965L136.015 125.98L187.704 72.7678L190.818 64.002Z" fill="#C3A053"/>
</svg>
