<svg width="257" height="257" viewBox="0 0 257 257" fill="none" xmlns="http://www.w3.org/2000/svg">
<path d="M256.021 128.001C256.021 198.691 198.713 256.001 128.01 256.001C57.3074 256.001 0 198.691 0 128.001C0 57.3102 57.3088 0 128.01 0C198.712 0 256.021 57.3047 256.021 128.001Z" fill="white"/>
<path d="M128.01 0C57.3328 0 -0.0761978 57.3913 0.0137775 127.997C0.0314999 142.123 2.28429 155.711 6.51244 168.421H44.8119V60.7439L128.01 143.933L211.205 60.7439V168.423H249.512C253.747 155.714 255.988 142.125 256.013 127.999C256.134 57.3197 198.695 0.017039 128.01 0.017039V0Z" fill="#F26822"/>
<path d="M108.877 163.057L72.569 126.751V194.507H44.8096L18.6152 194.512C41.0838 231.371 81.6899 256.027 128.011 256.027C174.332 256.027 214.94 231.365 237.413 194.506H183.444V126.751L147.134 163.057L128.007 182.183L108.879 163.057H108.877Z" fill="#4D4D4D"/>
</svg>
