<svg width="256" height="256" viewBox="0 0 256 256" fill="none" xmlns="http://www.w3.org/2000/svg">
<g clip-path="url(#clip0_2546_1942)">
<mask id="mask0_2546_1942" style="mask-type:luminance" maskUnits="userSpaceOnUse" x="0" y="0" width="256" height="256">
<path d="M256 0H0V256H256V0Z" fill="white"/>
</mask>
<g mask="url(#mask0_2546_1942)">
<path d="M256 128C256 57.3075 198.692 0 128 0C57.3075 0 0 57.3075 0 128C0 198.692 57.3075 256 128 256C198.692 256 256 198.692 256 128Z" fill="white"/>
</g>
<path d="M43 56.1538C43.8558 56.5465 44.5845 57.2348 45.3048 57.8277C45.5352 58.0154 45.7661 58.2025 45.9973 58.3893C46.058 58.4384 46.1187 58.4875 46.1812 58.5381C46.5638 58.8467 46.9495 59.1509 47.338 59.452C47.8701 59.8644 48.3908 60.2897 48.9103 60.7175C49.3069 61.0433 49.7075 61.3627 50.1137 61.6765C50.5706 62.0298 51.015 62.395 51.4552 62.7685C51.8089 63.0684 52.1689 63.3589 52.5331 63.646C52.9342 63.9636 53.3295 64.2881 53.726 64.6114C53.8885 64.7435 54.051 64.8757 54.2135 65.0078C54.3352 65.1068 54.3352 65.1068 54.4593 65.2077C54.6149 65.3342 54.7705 65.4606 54.9261 65.587C55.1763 65.7902 55.4263 65.9936 55.6761 66.1971C55.7326 66.2432 55.7891 66.2892 55.8474 66.3366C56.547 66.907 57.2444 67.4794 57.9337 68.062C58.3056 68.3759 58.6829 68.6827 59.0612 68.9888C59.3886 69.2563 59.7115 69.529 60.0344 69.8018C60.3352 70.0555 60.6387 70.3054 60.9449 70.5526C61.4256 70.9415 61.8955 71.3422 62.3653 71.744C62.6606 71.9964 62.9576 72.2466 63.2552 72.4962C63.8113 72.963 64.3641 73.4335 64.9163 73.9048C65.0707 74.0365 65.2253 74.1681 65.3799 74.2995C67.3831 76.0031 67.3831 76.0031 68.1085 76.6589C68.3928 76.9156 68.6837 77.1587 68.9839 77.3968C69.4806 77.7956 69.9434 78.2265 70.4058 78.6639C70.7484 78.9876 71.0973 79.3011 71.4542 79.609C71.758 79.8744 72.0525 80.1495 72.3468 80.4252C72.4115 80.4857 72.4761 80.5461 72.5428 80.6084C73.0416 81.0772 73.5297 81.5556 74.0101 82.043C74.2614 82.2964 74.5161 82.5389 74.7888 82.7696C75.2248 83.1469 75.63 83.5521 76.0366 83.9602C76.1565 84.0799 76.1565 84.0799 76.2789 84.202C76.5754 84.498 76.8716 84.7943 77.1677 85.0907C77.4589 85.3822 77.7505 85.6734 78.0422 85.9644C78.1177 86.0403 78.1933 86.1161 78.2711 86.1942C78.6512 86.5734 79.0375 86.9369 79.4459 87.2858C79.7082 87.5147 79.9525 87.7602 80.1974 88.0072C80.276 88.0859 80.276 88.0859 80.3562 88.1661C80.5768 88.3868 80.797 88.6081 81.0171 88.8293C81.1795 88.9923 81.3422 89.155 81.5049 89.3177C81.5533 89.3666 81.6017 89.4154 81.6515 89.4657C81.906 89.7202 82.1661 89.9626 82.4394 90.197C82.8118 90.5172 83.1589 90.8583 83.5049 91.2064C83.6012 91.3026 83.6012 91.3026 83.6995 91.4008C83.971 91.672 84.2419 91.9438 84.513 92.2155C84.7123 92.4153 84.9119 92.6147 85.1116 92.8142C85.1716 92.8746 85.2316 92.935 85.2935 92.9972C85.5743 93.2777 85.8581 93.5487 86.1601 93.8067C86.5889 94.1745 86.9847 94.5728 87.3831 94.9726C87.503 95.0923 87.503 95.0923 87.6254 95.2144C87.9219 95.5104 88.2181 95.8068 88.5142 96.1032C88.8054 96.3946 89.097 96.6858 89.3887 96.9769C89.4642 97.0527 89.5398 97.1285 89.6176 97.2066C89.9292 97.5175 90.24 97.8236 90.5765 98.1079C91.0925 98.5489 91.5647 99.0363 92.0441 99.5158C92.2258 99.6975 92.4079 99.879 92.59 100.06C93.042 100.511 93.4935 100.962 93.945 101.412C94.3275 101.794 94.7102 102.176 95.0931 102.558C95.2715 102.735 95.4495 102.913 95.6275 103.092C95.7381 103.202 95.8487 103.312 95.9592 103.422C96.0078 103.471 96.0563 103.519 96.1064 103.57C96.3514 103.813 96.6014 104.046 96.8648 104.269C97.273 104.623 97.6558 104.999 98.0381 105.38C98.1143 105.456 98.1905 105.531 98.269 105.609C98.4786 105.817 98.688 106.026 98.8973 106.234C99.1238 106.459 99.3505 106.684 99.5773 106.909C100.021 107.35 100.464 107.79 100.907 108.231C101.267 108.589 101.627 108.947 101.988 109.305C102.039 109.356 102.091 109.407 102.144 109.46C102.248 109.564 102.352 109.667 102.457 109.771C103.435 110.743 104.412 111.715 105.39 112.687C106.228 113.52 107.066 114.353 107.904 115.186C108.879 116.154 109.854 117.122 110.828 118.091C110.932 118.194 111.036 118.298 111.14 118.401C111.191 118.452 111.242 118.503 111.295 118.555C111.655 118.913 112.014 119.27 112.374 119.627C112.813 120.063 113.252 120.499 113.69 120.935C113.913 121.158 114.137 121.38 114.361 121.602C114.604 121.843 114.846 122.085 115.089 122.326C115.194 122.431 115.194 122.431 115.302 122.537C115.665 122.899 116.013 123.268 116.347 123.657C116.59 123.933 116.853 124.188 117.116 124.446C117.173 124.502 117.231 124.559 117.29 124.617C117.47 124.796 117.651 124.974 117.832 125.152C118.072 125.388 118.312 125.624 118.551 125.861C118.605 125.914 118.66 125.967 118.716 126.022C118.998 126.301 119.259 126.582 119.5 126.898C119.377 127.173 119.235 127.359 119.02 127.571C118.96 127.631 118.9 127.69 118.838 127.752C118.775 127.813 118.712 127.875 118.647 127.938C118.586 127.999 118.525 128.059 118.462 128.122C118.103 128.475 117.734 128.812 117.352 129.14C117.158 129.309 116.976 129.488 116.796 129.673C116.555 129.916 116.31 130.15 116.048 130.372C115.767 130.612 115.505 130.865 115.245 131.126C114.931 131.442 114.609 131.739 114.27 132.027C113.998 132.267 113.747 132.527 113.492 132.784C113.259 133.012 113.014 133.222 112.766 133.433C112.494 133.675 112.241 133.935 111.985 134.193C111.75 134.423 111.503 134.636 111.253 134.849C111.014 135.06 110.791 135.286 110.569 135.515C110.396 135.682 110.22 135.839 110.038 135.996C109.661 136.321 109.297 136.66 108.935 137.002C108.294 137.603 107.65 138.199 107.001 138.791C106.909 138.875 106.817 138.959 106.725 139.044C106.245 139.482 105.764 139.916 105.279 140.349C105.02 140.58 104.764 140.814 104.508 141.049C104.165 141.362 103.819 141.67 103.466 141.974C103.223 142.187 102.985 142.405 102.746 142.623C102.4 142.941 102.05 143.253 101.694 143.559C101.45 143.773 101.212 143.991 100.973 144.209C100.623 144.53 100.269 144.847 99.9089 145.157C99.7004 145.338 99.4947 145.522 99.2891 145.707C98.9685 145.994 98.6452 146.278 98.3196 146.56C98.1093 146.744 97.9013 146.93 97.6935 147.116C97.3729 147.404 97.0496 147.688 96.724 147.97C96.5137 148.154 96.3057 148.34 96.0979 148.526C95.6249 148.95 95.148 149.368 94.663 149.778C94.0567 150.291 93.4612 150.813 92.8763 151.35C92.4746 151.718 92.0621 152.072 91.6467 152.424C91.0665 152.916 90.4937 153.413 89.9313 153.925C89.3869 154.419 88.8248 154.892 88.2646 155.369C87.9262 155.656 87.5894 155.946 87.2536 156.237C86.7432 156.678 86.2287 157.112 85.7026 157.536C85.4814 157.716 85.2632 157.899 85.0458 158.083C84.4499 158.589 83.8398 159.074 83.221 159.551C83.073 159.666 82.9256 159.782 82.7784 159.897C80.9739 161.317 79.1376 162.689 77.2278 163.965C77.1355 164.028 77.0432 164.09 76.948 164.154C76.8614 164.211 76.7748 164.268 76.6855 164.327C76.5698 164.404 76.5698 164.404 76.4518 164.483C76.2584 164.594 76.1055 164.653 75.887 164.692C76.0101 163.885 76.6188 163.193 77.0837 162.539C77.1372 162.464 77.1906 162.388 77.2457 162.311C78.105 161.103 78.9889 159.919 79.9262 158.77C80.1393 158.507 80.3482 158.241 80.5575 157.975C80.973 157.447 81.3975 156.928 81.8262 156.411C81.95 156.26 82.0737 156.11 82.1974 155.959C82.3395 155.787 82.4817 155.614 82.624 155.442C82.6703 155.386 82.7166 155.33 82.7644 155.272C83.3383 154.576 83.9142 153.883 84.5006 153.198C84.7484 152.908 84.9921 152.615 85.2335 152.32C85.7565 151.682 86.2993 151.06 86.84 150.437C86.9768 150.279 87.1135 150.121 87.2501 149.963C87.3166 149.886 87.3166 149.886 87.3845 149.808C87.6547 149.494 87.9194 149.177 88.1809 148.856C88.4957 148.471 88.8254 148.102 89.1618 147.736C89.3664 147.507 89.5609 147.272 89.7543 147.034C90.0968 146.613 90.4583 146.214 90.827 145.816C91.0372 145.583 91.236 145.345 91.433 145.101C91.7758 144.679 92.1399 144.282 92.513 143.886C92.7893 143.592 93.0517 143.29 93.3056 142.976C93.6444 142.556 94.0052 142.164 94.3749 141.772C94.6477 141.481 94.9062 141.183 95.1561 140.872C95.5315 140.407 95.9382 139.977 96.3503 139.544C96.6488 139.229 96.9342 138.909 97.206 138.571C97.6293 138.044 98.0944 137.559 98.5595 137.068C98.8202 136.793 99.0732 136.513 99.3213 136.226C99.5 136.021 99.6826 135.821 99.8653 135.619C100.104 135.357 100.341 135.093 100.574 134.827C101.006 134.334 101.448 133.851 101.889 133.366C102.242 132.976 102.593 132.585 102.94 132.189C103.192 131.904 103.449 131.623 103.705 131.341C103.873 131.155 104.039 130.968 104.203 130.78C104.527 130.41 104.86 130.049 105.192 129.687C105.42 129.436 105.645 129.182 105.868 128.927C106.054 128.716 106.245 128.509 106.436 128.302C107.007 127.746 107.007 127.746 107.265 127.046C107.144 126.714 106.921 126.508 106.671 126.268C106.62 126.217 106.569 126.166 106.516 126.114C106.351 125.952 106.186 125.792 106.021 125.631C105.912 125.524 105.803 125.417 105.694 125.309C105.588 125.205 105.481 125.1 105.375 124.996C105.326 124.948 105.278 124.901 105.228 124.852C104.988 124.62 104.745 124.396 104.489 124.181C103.911 123.679 103.376 123.131 102.833 122.591C102.709 122.467 102.584 122.343 102.459 122.219C102.121 121.884 101.784 121.549 101.447 121.213C101.093 120.861 100.739 120.51 100.385 120.158C99.7908 119.568 99.1968 118.977 98.6028 118.386C97.9171 117.704 97.2312 117.023 96.545 116.341C95.9548 115.755 95.3647 115.169 94.7748 114.582C94.423 114.232 94.0711 113.883 93.719 113.533C93.388 113.204 93.0572 112.875 92.7265 112.546C92.6055 112.426 92.4844 112.305 92.3632 112.185C91.2764 111.107 91.2764 111.107 90.807 110.558C90.6606 110.388 90.5053 110.229 90.3452 110.071C90.2851 110.012 90.2251 109.952 90.1632 109.891C90.1005 109.83 90.0378 109.768 89.9732 109.704C89.9066 109.639 89.8401 109.573 89.7716 109.505C89.5611 109.297 89.3502 109.089 89.1393 108.881C88.8611 108.607 88.5832 108.333 88.3055 108.058C88.2428 107.997 88.1801 107.935 88.1155 107.871C87.7647 107.525 87.4325 107.168 87.1094 106.796C86.9161 106.576 86.7109 106.371 86.5022 106.167C86.4612 106.126 86.4203 106.086 86.3781 106.044C86.2498 105.918 86.1212 105.792 85.9925 105.666C85.4945 105.178 85.0028 104.69 84.5478 104.161C84.262 103.84 83.9511 103.543 83.6434 103.243C83.218 102.828 82.8088 102.408 82.4199 101.958C82.1755 101.684 81.9124 101.429 81.6489 101.173C81.2717 100.802 80.9075 100.429 80.5647 100.026C80.3194 99.7523 80.0543 99.4979 79.7917 99.2404C79.5037 98.9565 79.2356 98.6623 78.9726 98.3558C78.7083 98.0614 78.4222 97.7889 78.1398 97.5117C77.9004 97.2706 77.6785 97.0187 77.457 96.7614C77.2393 96.5175 77.0047 96.2919 76.771 96.0632C76.5454 95.8353 76.3373 95.5946 76.1277 95.3522C75.9313 95.1321 75.7213 94.9281 75.5103 94.7221C75.2925 94.5018 75.0925 94.2677 74.8898 94.0338C74.6948 93.8158 74.4871 93.6131 74.2777 93.4089C74.1196 93.2491 73.9717 93.0845 73.8247 92.9147C73.5087 92.5535 73.1818 92.2039 72.851 91.8561C72.3724 91.3509 71.8975 90.8429 71.4268 90.3305C71.1675 90.0489 70.9068 89.7686 70.6459 89.4884C70.2722 89.0867 69.9025 88.6818 69.5351 88.2743C69.2906 88.0054 69.0432 87.7391 68.7955 87.4731C68.3479 86.9925 67.9055 86.5074 67.4658 86.0195C67.3329 85.8726 67.1999 85.7258 67.0669 85.579C65.4713 83.817 65.4713 83.817 65.2726 83.5975C65.1374 83.4482 65.0021 83.2991 64.8667 83.1501C64.3756 82.609 63.8886 82.065 63.4135 81.5099C62.979 81.0029 62.5424 80.5002 62.0862 80.0122C61.7137 79.6136 61.3656 79.1999 61.0225 78.7761C60.7998 78.5099 60.5672 78.2558 60.33 78.0025C59.9479 77.5943 59.5897 77.1725 59.2378 76.7381C59.0466 76.5072 58.8484 76.2853 58.6457 76.0643C58.3069 75.6945 57.9884 75.3122 57.672 74.9235C57.411 74.6088 57.1426 74.3012 56.8728 73.9939C56.4745 73.5398 56.0853 73.0802 55.7038 72.6119C55.4607 72.318 55.2115 72.0299 54.9614 71.7419C54.607 71.3331 54.2611 70.9198 53.9244 70.4965C53.6641 70.1728 53.3986 69.8534 53.1331 69.5339C52.321 68.5555 51.5121 67.575 50.7267 66.5751C50.4147 66.1789 50.0961 65.7884 49.7757 65.3987C49.3592 64.8915 48.9523 64.3787 48.5527 63.858C48.3316 63.5699 48.1071 63.2845 47.8825 62.999C47.328 62.2939 46.7838 61.5819 46.2456 60.8644C45.8739 60.37 45.4946 59.8822 45.1108 59.397C44.5275 58.6578 43.9779 57.8974 43.4432 57.1229C43.4083 57.0731 43.3733 57.0233 43.3373 56.972C43.1477 56.6978 43.0394 56.4871 43 56.1538Z" fill="black"/>
<path d="M129.439 133.308C130.249 133.702 130.87 134.462 131.499 135.094C131.652 135.248 131.805 135.401 131.959 135.554C132.405 136.001 132.842 136.449 133.252 136.931C133.624 137.349 134.03 137.736 134.428 138.129C134.941 138.636 135.45 139.141 135.918 139.69C136.173 139.98 136.449 140.247 136.724 140.517C137.113 140.903 137.492 141.29 137.845 141.71C138.108 142.006 138.393 142.28 138.675 142.558C138.975 142.857 139.257 143.164 139.531 143.487C139.769 143.756 140.027 144.004 140.283 144.257C140.515 144.493 140.731 144.742 140.946 144.994C141.138 145.211 141.344 145.412 141.55 145.615C141.707 145.774 141.853 145.939 141.998 146.108C142.328 146.488 142.67 146.854 143.015 147.218C143.588 147.825 144.154 148.437 144.715 149.054C144.797 149.144 144.88 149.234 144.962 149.324C145.403 149.804 145.841 150.287 146.276 150.773C146.508 151.03 146.743 151.286 146.978 151.542C147.294 151.886 147.605 152.234 147.911 152.587C148.108 152.812 148.31 153.034 148.512 153.256C148.817 153.591 149.118 153.929 149.415 154.272C149.594 154.475 149.776 154.675 149.958 154.876C150.231 155.178 150.492 155.487 150.747 155.804C151.09 156.23 151.455 156.63 151.828 157.029C152.176 157.404 152.5 157.794 152.82 158.194C153.025 158.442 153.239 158.68 153.457 158.917C153.811 159.304 154.145 159.702 154.474 160.111C154.73 160.422 154.992 160.726 155.256 161.029C155.985 161.868 156.702 162.716 157.403 163.579C157.626 163.851 157.853 164.118 158.081 164.385C158.461 164.832 158.825 165.289 159.185 165.753C159.46 166.106 159.744 166.45 160.035 166.79C160.407 167.226 160.764 167.67 161.115 168.122C161.43 168.527 161.752 168.925 162.077 169.323C162.465 169.8 162.843 170.282 163.209 170.777C163.446 171.098 163.688 171.415 163.93 171.731C164.61 172.622 165.279 173.519 165.94 174.423C166.082 174.617 166.226 174.811 166.37 175.003C166.415 175.064 166.46 175.124 166.506 175.186C166.589 175.298 166.673 175.41 166.757 175.521C166.963 175.799 167.12 176.059 167.231 176.388C166.709 176.432 166.474 176.34 166.061 176.023C166.009 175.984 165.957 175.945 165.903 175.905C165.789 175.818 165.675 175.732 165.561 175.644C165.3 175.445 165.036 175.251 164.772 175.057C164.557 174.899 164.342 174.74 164.128 174.581C163.79 174.331 163.45 174.085 163.11 173.841C161.768 172.877 160.459 171.869 159.165 170.842C159.012 170.721 158.858 170.6 158.703 170.479C158.156 170.05 157.612 169.617 157.075 169.174C156.753 168.909 156.429 168.646 156.106 168.383C155.621 167.989 155.137 167.594 154.654 167.197C154.501 167.071 154.347 166.946 154.193 166.82C153.702 166.42 153.217 166.014 152.736 165.604C152.436 165.349 152.134 165.098 151.829 164.85C151.399 164.5 150.979 164.139 150.559 163.777C150.25 163.511 149.938 163.249 149.621 162.992C149.119 162.583 148.631 162.158 148.143 161.733C147.824 161.454 147.503 161.178 147.182 160.902C147.131 160.859 147.08 160.815 147.028 160.77C146.875 160.639 146.722 160.508 146.569 160.377C145.879 159.785 145.19 159.192 144.505 158.596C144.125 158.266 143.745 157.939 143.363 157.612C143.009 157.309 142.659 157.003 142.314 156.689C142.02 156.421 141.719 156.166 141.409 155.915C140.988 155.573 140.588 155.213 140.189 154.845C139.954 154.633 139.713 154.433 139.467 154.234C139.066 153.911 138.688 153.57 138.312 153.219C138.026 152.955 137.733 152.704 137.43 152.46C137.031 152.138 136.655 151.799 136.281 151.45C135.995 151.185 135.703 150.935 135.399 150.69C135.001 150.369 134.624 150.03 134.25 149.681C133.964 149.416 133.672 149.165 133.369 148.921C133.017 148.638 132.683 148.344 132.353 148.036C131.87 147.586 131.37 147.164 130.852 146.754C130.789 146.702 130.725 146.65 130.66 146.597C130.503 146.464 130.503 146.464 130.3 146.522C129.732 146.858 129.28 147.351 128.82 147.819C128.655 147.982 128.484 148.134 128.308 148.285C128.009 148.543 127.729 148.817 127.453 149.098C127.129 149.427 126.796 149.738 126.445 150.038C126.213 150.247 125.994 150.468 125.775 150.69C125.505 150.964 125.234 151.232 124.942 151.481C124.629 151.748 124.341 152.034 124.053 152.327C123.713 152.672 123.367 153 122.999 153.314C122.722 153.562 122.465 153.828 122.205 154.092C121.922 154.377 121.629 154.643 121.324 154.903C121.047 155.152 120.788 155.419 120.527 155.684C120.241 155.973 119.944 156.243 119.635 156.507C119.365 156.747 119.116 157.007 118.863 157.264C118.631 157.493 118.387 157.704 118.14 157.917C117.869 158.159 117.617 158.42 117.362 158.679C117.128 158.91 116.882 159.124 116.633 159.338C116.394 159.55 116.173 159.777 115.952 160.006C115.78 160.174 115.604 160.332 115.423 160.489C115.047 160.816 114.685 161.156 114.324 161.499C113.731 162.06 113.135 162.617 112.535 163.17C112.301 163.385 112.068 163.6 111.835 163.816C111.788 163.859 111.741 163.902 111.693 163.947C111.321 164.291 110.951 164.636 110.582 164.982C110.099 165.434 109.614 165.883 109.127 166.33C108.849 166.584 108.573 166.839 108.297 167.094C108.249 167.139 108.202 167.183 108.153 167.228C108.056 167.318 107.959 167.407 107.863 167.497C107.623 167.718 107.383 167.94 107.144 168.161C107.048 168.25 106.952 168.338 106.857 168.427C106.665 168.604 106.474 168.781 106.283 168.958C106.235 169.001 106.188 169.045 106.139 169.09C106.044 169.179 105.948 169.267 105.853 169.356C105.612 169.578 105.372 169.8 105.132 170.022C104.627 170.49 104.121 170.956 103.613 171.422C103.288 171.72 102.964 172.019 102.64 172.319C102.23 172.699 101.818 173.078 101.406 173.456C101.081 173.755 100.757 174.054 100.433 174.354C99.9336 174.816 99.4328 175.277 98.9313 175.737C98.797 175.86 98.6628 175.983 98.5287 176.107C98.1222 176.481 97.7149 176.854 97.3039 177.223C96.8655 177.617 96.4329 178.018 96.0005 178.419C95.3351 179.035 94.6663 179.647 93.992 180.254C93.5611 180.643 93.1342 181.037 92.7068 181.431C92.1375 181.955 91.5668 182.477 90.9912 182.995C90.7339 183.227 90.4786 183.462 90.2234 183.698C89.9376 183.961 89.6507 184.222 89.357 184.477C89.0398 184.752 88.732 185.037 88.4243 185.323C88.0618 185.66 87.6966 185.992 87.3227 186.316C87.0985 186.513 86.8785 186.714 86.6584 186.915C86.324 187.221 85.9869 187.522 85.6453 187.82C85.4368 188.003 85.2307 188.189 85.0248 188.375C84.7052 188.664 84.3829 188.95 84.058 189.233C83.8539 189.413 83.6531 189.596 83.452 189.779C83.15 190.053 82.8421 190.314 82.5249 190.57C82.0998 190.914 81.7004 191.279 81.3018 191.653C80.9319 191.998 80.5462 192.318 80.1518 192.635C79.8683 192.872 79.5988 193.12 79.3295 193.373C78.9092 193.767 78.4762 194.137 78.0268 194.498C77.7611 194.719 77.5071 194.951 77.2545 195.186C76.8475 195.566 76.4265 195.921 75.9931 196.27C75.744 196.477 75.5057 196.692 75.2678 196.911C74.8751 197.274 74.4689 197.612 74.0537 197.948C73.8037 198.156 73.5642 198.372 73.3252 198.592C72.9393 198.948 72.5416 199.282 72.1339 199.612C71.8235 199.868 71.52 200.13 71.2171 200.395C70.3992 201.108 69.5777 201.815 68.7281 202.49C68.504 202.669 68.282 202.85 68.0604 203.032C67.8875 203.174 67.7145 203.316 67.5416 203.458C67.4613 203.524 67.4613 203.524 67.3793 203.591C66.5898 204.238 65.7927 204.873 64.9809 205.492C64.8043 205.629 64.6277 205.765 64.4512 205.901C64.3043 206.014 64.1573 206.127 64.0104 206.24C63.8798 206.341 63.7493 206.442 63.6188 206.542C61.8174 207.934 61.8174 207.934 60.9192 208.5C60.7881 208.369 60.7881 208.369 60.6543 208.235C61.112 207.555 61.6085 206.913 62.117 206.272C62.2802 206.065 62.4422 205.858 62.6042 205.651C63.0257 205.112 63.4514 204.576 63.8791 204.042C64.1734 203.674 64.4648 203.304 64.7547 202.932C65.2919 202.245 65.8422 201.568 66.3937 200.892C66.4668 200.803 66.5399 200.713 66.6152 200.621C66.7444 200.462 66.8737 200.304 67.0032 200.146C67.128 199.993 67.2523 199.84 67.3764 199.687C67.7931 199.173 68.2191 198.668 68.6505 198.167C68.9181 197.855 69.1813 197.54 69.44 197.221C69.8703 196.691 70.3149 196.173 70.7603 195.655C70.9829 195.396 71.2048 195.136 71.4268 194.877C71.5151 194.774 71.6034 194.67 71.6917 194.567C71.7354 194.516 71.7791 194.465 71.8241 194.412C71.9566 194.258 72.089 194.103 72.2215 193.948C72.2652 193.897 72.3089 193.846 72.354 193.793C72.4421 193.69 72.5301 193.587 72.6182 193.484C72.8426 193.222 73.0667 192.96 73.2904 192.697C73.7516 192.156 74.2167 191.619 74.6938 191.092C75.0454 190.702 75.3887 190.306 75.7283 189.906C76.2421 189.302 76.7643 188.708 77.3025 188.125C77.534 187.872 77.7596 187.616 77.9837 187.357C78.1653 187.149 78.3499 186.944 78.5348 186.738C78.7724 186.475 79.0084 186.21 79.2412 185.942C79.6042 185.525 79.9748 185.115 80.345 184.704C80.4775 184.556 80.6099 184.409 80.7423 184.261C81.537 183.377 81.537 183.377 81.7364 183.155C81.8666 183.01 81.9968 182.865 82.1268 182.72C82.4907 182.314 82.857 181.91 83.2257 181.508C83.4886 181.222 83.7497 180.934 84.0039 180.64C84.3202 180.275 84.6486 179.921 84.9769 179.566C85.2453 179.275 85.5117 178.983 85.7754 178.688C86.1264 178.296 86.4828 177.909 86.8401 177.522C87.1055 177.235 87.3688 176.945 87.6296 176.654C88.0215 176.216 88.4196 175.784 88.8182 175.352C89.0704 175.079 89.3215 174.805 89.5722 174.531C90.0415 174.017 90.5128 173.506 90.9844 172.994C91.1152 172.852 91.2459 172.71 91.3765 172.568C91.9 171.999 92.4258 171.432 92.9533 170.867C93.2827 170.514 93.6107 170.159 93.9375 169.804C94.497 169.195 95.0621 168.592 95.6275 167.989C95.85 167.751 96.0724 167.514 96.2947 167.276C96.4043 167.159 96.5139 167.042 96.6235 166.925C96.9086 166.62 97.1934 166.316 97.4777 166.01C97.5364 165.948 97.5951 165.885 97.6556 165.82C97.7666 165.701 97.8775 165.582 97.9884 165.463C98.2937 165.135 98.6045 164.816 98.9234 164.502C99.0714 164.35 99.209 164.193 99.3458 164.031C99.6203 163.712 99.913 163.415 100.212 163.119C100.5 162.834 100.783 162.55 101.046 162.24C101.368 161.86 101.721 161.514 102.077 161.166C102.332 160.914 102.575 160.657 102.809 160.385C103.187 159.946 103.599 159.544 104.013 159.138C104.299 158.854 104.577 158.569 104.84 158.262C105.27 157.762 105.745 157.307 106.214 156.844C106.529 156.532 106.839 156.22 107.127 155.882C107.618 155.309 108.169 154.79 108.704 154.259C108.849 154.116 108.994 153.972 109.139 153.828C109.182 153.785 109.225 153.743 109.27 153.699C109.508 153.462 109.733 153.218 109.952 152.963C110.306 152.554 110.686 152.174 111.07 151.793C111.144 151.719 111.218 151.646 111.295 151.569C111.609 151.256 111.923 150.943 112.238 150.631C112.469 150.401 112.699 150.171 112.93 149.941C113 149.872 113.07 149.802 113.143 149.73C113.21 149.664 113.277 149.597 113.346 149.528C113.432 149.442 113.432 149.442 113.521 149.354C113.686 149.18 113.843 149.003 113.999 148.821C114.39 148.37 114.812 147.951 115.235 147.529C115.324 147.44 115.413 147.352 115.501 147.263C115.691 147.073 115.881 146.883 116.071 146.694C116.372 146.394 116.672 146.093 116.973 145.792C117.665 145.1 118.358 144.408 119.05 143.716C119.685 143.082 120.32 142.447 120.955 141.812C121.253 141.514 121.552 141.216 121.85 140.918C122.036 140.732 122.223 140.546 122.409 140.36C122.535 140.233 122.661 140.107 122.788 139.981C123.179 139.59 123.556 139.192 123.917 138.772C124.116 138.543 124.327 138.329 124.542 138.114C124.586 138.07 124.631 138.025 124.677 137.979C124.822 137.833 124.967 137.688 125.112 137.542C125.215 137.44 125.317 137.337 125.419 137.235C125.633 137.02 125.846 136.807 126.06 136.593C126.333 136.32 126.605 136.048 126.876 135.775C127.087 135.563 127.298 135.352 127.51 135.14C127.61 135.04 127.71 134.94 127.81 134.839C128.338 134.31 128.867 133.788 129.439 133.308Z" fill="black"/>
<path d="M181.862 88.8462C181.92 88.9044 181.978 88.9626 182.038 89.0226C181.815 89.4863 181.577 89.92 181.288 90.346C181.25 90.4025 181.212 90.459 181.173 90.5172C180.433 91.6062 179.613 92.6384 178.803 93.6759C178.549 94.0004 178.297 94.326 178.047 94.6526C177.977 94.7438 177.907 94.835 177.834 94.929C177.766 95.0179 177.698 95.1068 177.628 95.1985C176.926 96.1132 176.22 97.0243 175.511 97.9335C175.467 97.9891 175.424 98.0448 175.379 98.1021C174.867 98.7591 174.347 99.4088 173.82 100.054C173.51 100.435 173.205 100.82 172.903 101.209C172.529 101.689 172.14 102.152 171.741 102.612C171.432 102.97 171.134 103.336 170.84 103.707C170.584 104.026 170.319 104.337 170.054 104.649C169.796 104.951 169.543 105.257 169.292 105.565C168.961 105.971 168.624 106.372 168.285 106.771C168.031 107.07 167.78 107.372 167.533 107.677C167.184 108.106 166.825 108.526 166.464 108.945C166.198 109.254 165.937 109.566 165.681 109.883C165.315 110.333 164.936 110.77 164.555 111.206C164.268 111.536 163.987 111.87 163.712 112.21C163.401 112.594 163.075 112.961 162.742 113.326C162.537 113.557 162.341 113.794 162.147 114.035C161.828 114.429 161.495 114.805 161.154 115.18C160.952 115.407 160.76 115.64 160.57 115.876C160.245 116.278 159.904 116.658 159.552 117.036C159.288 117.321 159.038 117.614 158.795 117.917C158.474 118.315 158.136 118.691 157.788 119.065C157.525 119.349 157.277 119.639 157.036 119.94C156.697 120.362 156.336 120.757 155.966 121.152C155.693 121.445 155.434 121.745 155.183 122.058C154.779 122.562 154.34 123.03 153.899 123.501C153.596 123.823 153.304 124.153 153.017 124.489C152.887 124.64 152.758 124.792 152.628 124.943C152.535 125.052 152.442 125.161 152.349 125.27C152.056 125.613 151.758 125.949 151.447 126.276C151.308 126.477 151.276 126.629 151.253 126.872C151.342 127.044 151.342 127.044 151.497 127.193C151.554 127.253 151.612 127.314 151.671 127.377C151.737 127.443 151.802 127.509 151.87 127.577C151.94 127.649 152.01 127.721 152.082 127.795C152.282 127.997 152.482 128.198 152.684 128.398C152.819 128.532 152.953 128.666 153.087 128.799C153.372 129.083 153.658 129.367 153.943 129.651C154.274 129.98 154.605 130.309 154.936 130.639C155.067 130.769 155.198 130.9 155.33 131.03C155.729 131.428 156.115 131.83 156.481 132.258C156.774 132.589 157.091 132.897 157.405 133.207C157.513 133.315 157.513 133.315 157.624 133.425C157.852 133.652 158.081 133.879 158.309 134.106C158.611 134.405 158.912 134.705 159.214 135.005C159.282 135.072 159.35 135.14 159.42 135.209C159.782 135.569 160.125 135.937 160.458 136.323C160.682 136.578 160.921 136.816 161.163 137.053C161.213 137.104 161.264 137.154 161.316 137.206C161.475 137.364 161.634 137.521 161.794 137.679C162.981 138.854 162.981 138.854 163.446 139.4C163.802 139.801 164.191 140.171 164.572 140.547C165.066 141.033 165.553 141.52 166.004 142.047C166.319 142.401 166.661 142.729 166.998 143.061C167.45 143.506 167.889 143.952 168.302 144.433C168.573 144.74 168.867 145.024 169.159 145.311C169.569 145.712 169.96 146.12 170.334 146.554C170.563 146.813 170.809 147.054 171.056 147.296C171.414 147.649 171.756 148.007 172.082 148.391C172.347 148.688 172.634 148.964 172.917 149.244C173.213 149.537 173.49 149.84 173.761 150.158C174.007 150.434 174.272 150.691 174.536 150.951C174.824 151.237 175.093 151.534 175.357 151.843C175.596 152.112 175.855 152.361 176.112 152.614C176.34 152.846 176.55 153.09 176.762 153.337C177.004 153.608 177.264 153.859 177.523 154.114C177.753 154.348 177.966 154.593 178.179 154.842C178.397 155.087 178.631 155.315 178.865 155.545C179.09 155.773 179.297 156.014 179.505 156.257C179.698 156.474 179.904 156.676 180.111 156.879C180.268 157.039 180.414 157.203 180.56 157.372C180.887 157.748 181.226 158.111 181.57 158.473C182.039 158.97 182.506 159.469 182.969 159.972C183.309 160.342 183.652 160.709 183.995 161.076C184.395 161.502 184.789 161.933 185.178 162.369C185.451 162.67 185.729 162.968 186.008 163.265C186.416 163.701 186.82 164.14 187.219 164.586C187.46 164.854 187.704 165.118 187.948 165.382C188.326 165.79 188.7 166.201 189.071 166.615C189.298 166.867 189.527 167.117 189.757 167.367C190.186 167.835 190.612 168.306 191.036 168.779C191.168 168.926 191.3 169.073 191.433 169.22C193.814 171.867 193.814 171.867 194.012 172.087C194.147 172.236 194.281 172.385 194.416 172.535C194.768 172.925 195.118 173.318 195.463 173.714C195.647 173.923 195.833 174.13 196.02 174.337C196.308 174.657 196.593 174.978 196.875 175.303C197.054 175.507 197.237 175.708 197.42 175.909C197.693 176.21 197.954 176.518 198.208 176.835C198.552 177.26 198.916 177.659 199.288 178.057C199.635 178.428 199.956 178.816 200.273 179.212C200.494 179.477 200.725 179.731 200.96 179.984C201.331 180.383 201.681 180.796 202.024 181.221C202.277 181.53 202.538 181.832 202.801 182.134C203.529 182.971 204.245 183.815 204.945 184.676C205.174 184.954 205.407 185.229 205.64 185.503C205.977 185.9 206.307 186.301 206.63 186.708C206.83 186.959 207.032 187.207 207.234 187.455C207.772 188.115 208.302 188.78 208.825 189.45C208.981 189.649 209.137 189.847 209.293 190.045C209.455 190.252 209.618 190.459 209.78 190.666C209.872 190.784 209.965 190.901 210.057 191.019C210.786 191.944 211.491 192.882 212.173 193.842C212.281 193.992 212.39 194.14 212.5 194.289C212.584 194.403 212.584 194.403 212.67 194.519C212.738 194.611 212.738 194.611 212.809 194.705C212.938 194.941 212.969 195.158 213 195.423C212.534 195.278 212.178 194.985 211.793 194.695C211.682 194.613 211.682 194.613 211.569 194.529C210.87 194.006 210.18 193.47 209.493 192.931C209.294 192.775 209.093 192.62 208.893 192.464C208.068 191.826 207.254 191.177 206.447 190.517C206.242 190.35 206.035 190.184 205.828 190.019C205.446 189.714 205.067 189.405 204.689 189.095C204.529 188.964 204.368 188.833 204.207 188.702C203.718 188.303 203.234 187.899 202.753 187.49C202.456 187.238 202.156 186.989 201.853 186.744C201.401 186.376 200.962 185.996 200.524 185.613C200.194 185.326 199.861 185.045 199.521 184.77C199.136 184.458 198.769 184.132 198.403 183.799C198.176 183.597 197.943 183.405 197.707 183.215C197.305 182.89 196.925 182.548 196.547 182.197C196.262 181.933 195.97 181.683 195.667 181.439C195.268 181.118 194.892 180.78 194.518 180.432C194.237 180.172 193.948 179.925 193.649 179.686C193.144 179.279 192.675 178.839 192.202 178.396C191.934 178.145 191.66 177.901 191.382 177.661C191.176 177.482 190.974 177.299 190.771 177.116C190.508 176.879 190.244 176.643 189.977 176.41C189.633 176.111 189.295 175.805 188.957 175.5C188.773 175.335 188.587 175.172 188.4 175.01C188.05 174.705 187.709 174.391 187.368 174.077C187.123 173.851 186.877 173.629 186.625 173.411C186.283 173.114 185.95 172.808 185.616 172.501C185.337 172.244 185.056 171.988 184.773 171.734C184.402 171.401 184.034 171.065 183.667 170.727C183.39 170.473 183.112 170.221 182.832 169.97C182.374 169.559 181.921 169.143 181.468 168.727C181.246 168.523 181.025 168.32 180.803 168.117C180.715 168.036 180.627 167.955 180.538 167.874C180.363 167.714 180.188 167.553 180.012 167.392C179.411 166.842 178.812 166.289 178.213 165.736C178.071 165.605 177.93 165.474 177.788 165.344C177.22 164.821 176.655 164.296 176.091 163.768C175.739 163.439 175.386 163.112 175.031 162.785C174.483 162.28 173.94 161.771 173.397 161.261C173.058 160.943 172.719 160.626 172.379 160.309C171.807 159.775 171.236 159.24 170.665 158.705C170.419 158.474 170.172 158.243 169.925 158.012C169.862 157.954 169.8 157.895 169.735 157.835C169.617 157.724 169.498 157.613 169.379 157.502C169.103 157.244 168.832 156.984 168.566 156.716C168.364 156.513 168.16 156.319 167.941 156.135C167.658 155.891 167.393 155.634 167.131 155.369C166.875 155.11 166.619 154.86 166.342 154.624C166.047 154.371 165.772 154.101 165.499 153.825C165.231 153.553 164.962 153.288 164.672 153.042C164.291 152.718 163.944 152.363 163.595 152.005C163.344 151.75 163.088 151.508 162.816 151.274C162.379 150.896 161.978 150.484 161.573 150.072C161.289 149.784 161.003 149.506 160.697 149.242C160.219 148.831 159.784 148.378 159.342 147.929C159.04 147.623 158.738 147.324 158.411 147.045C157.877 146.586 157.392 146.074 156.897 145.573C156.766 145.44 156.635 145.308 156.504 145.176C156.427 145.098 156.35 145.02 156.271 144.94C156.079 144.749 155.878 144.571 155.673 144.394C155.322 144.09 154.994 143.769 154.668 143.439C154.61 143.38 154.552 143.322 154.492 143.262C154.247 143.016 154.003 142.769 153.759 142.522C153.579 142.34 153.398 142.159 153.218 141.977C153.164 141.923 153.11 141.868 153.054 141.812C152.795 141.551 152.533 141.301 152.253 141.062C151.779 140.653 151.343 140.206 150.902 139.762C150.742 139.6 150.582 139.439 150.421 139.278C150.023 138.879 149.625 138.479 149.227 138.079C148.89 137.74 148.553 137.401 148.215 137.063C148.058 136.905 147.902 136.748 147.745 136.59C147.181 136.02 147.181 136.02 146.587 135.483C146.007 134.988 145.48 134.433 144.942 133.894C144.818 133.77 144.694 133.646 144.57 133.522C144.311 133.263 144.052 133.004 143.793 132.745C143.463 132.414 143.132 132.083 142.801 131.753C142.545 131.497 142.29 131.241 142.034 130.985C141.912 130.863 141.79 130.742 141.668 130.62C140.542 129.495 140.542 129.495 140.076 128.946C139.931 128.777 139.777 128.621 139.618 128.467C139.561 128.411 139.504 128.355 139.446 128.297C139.328 128.183 139.211 128.07 139.094 127.956C139.038 127.901 138.981 127.845 138.923 127.788C138.873 127.739 138.822 127.69 138.77 127.639C138.631 127.481 138.547 127.328 138.462 127.136C138.87 126.667 139.277 126.223 139.753 125.823C140.094 125.518 140.412 125.19 140.731 124.863C140.994 124.597 141.26 124.342 141.544 124.098C141.917 123.776 142.263 123.43 142.608 123.078C142.95 122.729 143.293 122.385 143.664 122.066C144.052 121.731 144.41 121.37 144.769 121.005C145.185 120.581 145.605 120.174 146.055 119.787C146.33 119.544 146.585 119.282 146.842 119.019C147.213 118.644 147.587 118.282 147.99 117.94C148.264 117.696 148.519 117.433 148.776 117.171C149.064 116.881 149.363 116.61 149.674 116.344C149.91 116.135 150.129 115.91 150.348 115.683C150.52 115.516 150.695 115.359 150.876 115.202C151.254 114.874 151.618 114.533 151.98 114.189C152.585 113.617 153.195 113.052 153.811 112.491C153.9 112.408 153.99 112.326 154.08 112.244C154.704 111.67 155.333 111.101 155.965 110.535C156.37 110.171 156.773 109.805 157.174 109.436C157.517 109.12 157.864 108.809 158.216 108.504C158.441 108.306 158.662 108.105 158.883 107.903C159.217 107.598 159.554 107.298 159.895 107.001C160.103 106.818 160.309 106.633 160.515 106.447C160.834 106.159 161.156 105.874 161.481 105.592C161.684 105.412 161.885 105.23 162.086 105.047C162.386 104.776 162.691 104.516 163.007 104.264C163.454 103.902 163.872 103.515 164.29 103.121C164.673 102.763 165.071 102.429 165.48 102.101C165.745 101.883 165.997 101.652 166.248 101.418C166.653 101.042 167.072 100.69 167.503 100.343C167.769 100.121 168.024 99.8899 168.277 99.6539C168.678 99.2818 169.091 98.9314 169.516 98.5886C169.818 98.3411 170.112 98.0855 170.405 97.8287C171.125 97.2015 171.86 96.5957 172.6 95.9925C172.66 95.9429 172.721 95.8932 172.783 95.8421C173.547 95.2173 174.317 94.6009 175.094 93.9935C175.351 93.7928 175.607 93.5913 175.863 93.3898C175.966 93.3089 176.069 93.2281 176.172 93.1472C176.223 93.1072 176.274 93.0671 176.327 93.0259C176.79 92.662 176.79 92.662 176.944 92.5407C177.047 92.4597 177.15 92.3787 177.253 92.2976C177.508 92.0973 177.763 91.8972 178.018 91.6977C178.12 91.6184 178.221 91.5392 178.322 91.4599C178.373 91.4204 178.423 91.3809 178.475 91.3401C178.813 91.0749 179.146 90.8045 179.477 90.5318C179.992 90.1093 180.51 89.6975 181.051 89.3094C181.103 89.2725 181.154 89.2356 181.207 89.1975C181.425 89.0435 181.607 88.9312 181.862 88.8462Z" fill="black"/>
<path d="M197.307 47C197.276 47.478 196.997 47.7515 196.7 48.1C196.595 48.2266 196.489 48.3533 196.384 48.48C196.331 48.5434 196.278 48.6067 196.224 48.672C196.001 48.9413 195.788 49.2168 195.574 49.493C195.218 49.9508 194.85 50.3964 194.473 50.8375C194.237 51.115 194.006 51.3956 193.78 51.6819C193.45 52.0989 193.105 52.5015 192.758 52.9042C192.488 53.2174 192.224 53.5334 191.964 53.8543C191.616 54.2827 191.259 54.7013 190.899 55.119C190.625 55.438 190.356 55.7605 190.092 56.0875C189.779 56.4745 189.45 56.8442 189.115 57.2124C188.909 57.4441 188.714 57.6817 188.519 57.9227C188.2 58.3175 187.866 58.6948 187.525 59.07C187.321 59.2997 187.127 59.5354 186.934 59.7745C186.593 60.1967 186.233 60.5967 185.866 60.9961C185.653 61.2338 185.451 61.4772 185.251 61.7258C184.912 62.1466 184.553 62.5448 184.187 62.9425C183.978 63.1762 183.78 63.4156 183.584 63.6604C183.242 64.0847 182.879 64.4827 182.507 64.8801C182.234 65.1742 181.974 65.4746 181.723 65.7886C181.367 66.2328 180.985 66.6456 180.595 67.0598C180.311 67.3641 180.04 67.6735 179.78 67.9997C179.356 68.5305 178.891 69.0196 178.425 69.5139C178.168 69.788 177.918 70.0678 177.673 70.3531C177.478 70.5759 177.279 70.7939 177.08 71.0123C176.829 71.2881 176.579 71.5648 176.335 71.8469C176.032 72.1962 175.719 72.5362 175.406 72.8765C175.181 73.122 174.958 73.3692 174.74 73.6213C174.443 73.9645 174.136 74.2987 173.829 74.6329C173.571 74.9133 173.316 75.1951 173.062 75.4786C172.728 75.8507 172.391 76.2195 172.053 76.5876C171.799 76.8651 171.546 77.144 171.295 77.4244C170.883 77.8834 170.467 78.3381 170.05 78.7924C169.847 79.0143 169.643 79.2364 169.44 79.4586C169.359 79.547 169.278 79.6355 169.197 79.7239C169.137 79.7896 169.137 79.7896 169.076 79.8566C168.954 79.9892 168.833 80.1219 168.711 80.2545C168.651 80.3202 168.651 80.3202 168.59 80.3872C168.509 80.4757 168.428 80.5642 168.347 80.6527C168.146 80.8727 167.944 81.0927 167.743 81.3128C167.192 81.9156 166.638 82.5168 166.084 83.1172C165.954 83.2591 165.823 83.4011 165.692 83.5432C165.068 84.2211 164.441 84.8958 163.812 85.5693C163.553 85.8465 163.295 86.1239 163.036 86.4013C162.933 86.512 162.83 86.6227 162.727 86.7333C162.522 86.9533 162.317 87.1732 162.112 87.3932C161.856 87.6683 161.6 87.9433 161.343 88.2182C161.231 88.3378 161.12 88.4575 161.008 88.5772C160.833 88.7659 160.657 88.9545 160.481 89.1431C160.427 89.2002 160.374 89.2574 160.319 89.3163C160.059 89.5944 159.796 89.8683 159.527 90.1367C159.325 90.3368 159.133 90.539 158.951 90.7572C158.692 91.0586 158.417 91.3403 158.134 91.6195C157.865 91.8859 157.601 92.1533 157.356 92.4431C157.013 92.8467 156.634 93.2146 156.256 93.5852C155.99 93.8474 155.736 94.1139 155.493 94.3971C155.097 94.8563 154.664 95.2758 154.232 95.7006C153.937 95.9922 153.65 96.2846 153.381 96.5999C152.92 97.1363 152.407 97.6242 151.905 98.1208C151.772 98.2521 151.639 98.3837 151.507 98.5153C151.39 98.6308 151.39 98.6308 151.271 98.7486C151.085 98.9366 150.912 99.1323 150.74 99.3328C150.354 99.7791 149.936 100.192 149.517 100.607C149.432 100.692 149.347 100.777 149.263 100.861C148.951 101.172 148.639 101.482 148.327 101.792C148.063 102.055 147.798 102.319 147.534 102.583C147.412 102.705 147.289 102.826 147.166 102.948C146.845 103.269 146.527 103.588 146.233 103.934C145.737 104.512 145.186 105.039 144.648 105.577C144.526 105.7 144.404 105.822 144.282 105.945C144.027 106.2 143.771 106.456 143.516 106.711C143.19 107.037 142.864 107.363 142.539 107.689C142.287 107.942 142.035 108.194 141.783 108.447C141.663 108.567 141.543 108.687 141.423 108.807C140.346 109.887 140.346 109.887 139.794 110.357C139.445 110.665 139.121 111.002 138.794 111.334C138.716 111.412 138.638 111.49 138.558 111.571C138.312 111.819 138.065 112.067 137.819 112.315C137.495 112.642 137.17 112.969 136.845 113.296C136.771 113.37 136.698 113.445 136.623 113.521C136.246 113.899 135.863 114.262 135.459 114.61C135.24 114.801 135.036 115.005 134.833 115.212C134.792 115.252 134.752 115.293 134.71 115.335C134.583 115.463 134.457 115.592 134.33 115.72C133.839 116.219 133.348 116.711 132.817 117.167C132.527 117.422 132.26 117.7 131.99 117.975C131.603 118.367 131.217 118.749 130.794 119.102C130.647 119.234 130.511 119.37 130.375 119.514C130.332 119.559 130.288 119.604 130.243 119.651C130.158 119.741 130.073 119.832 129.989 119.924C129.871 120.048 129.871 120.048 129.649 120.231C129.286 120.214 129.085 119.976 128.831 119.737C128.783 119.692 128.734 119.646 128.685 119.599C127.882 118.837 127.103 118.048 126.321 117.264C126.085 117.027 125.848 116.79 125.611 116.553C125.426 116.368 125.241 116.183 125.057 115.998C124.97 115.911 124.882 115.824 124.795 115.736C124.35 115.292 123.914 114.845 123.507 114.365C123.299 114.126 123.074 113.907 122.848 113.686C122.501 113.348 122.178 112.998 121.861 112.632C121.587 112.32 121.301 112.02 121.015 111.718C120.442 111.112 119.876 110.5 119.315 109.883C119.232 109.793 119.15 109.703 119.067 109.613C118.557 109.058 118.051 108.499 117.548 107.937C117.481 107.862 117.413 107.788 117.344 107.711C117.043 107.377 116.744 107.043 116.45 106.705C116.201 106.419 115.948 106.138 115.693 105.859C115.388 105.524 115.087 105.186 114.79 104.843C114.611 104.64 114.429 104.439 114.247 104.239C113.976 103.939 113.716 103.632 113.463 103.316C113.101 102.867 112.714 102.449 112.319 102.029C111.96 101.645 111.627 101.247 111.298 100.836C111.079 100.571 110.849 100.318 110.614 100.066C110.236 99.6581 109.881 99.2364 109.532 98.8023C109.326 98.5528 109.111 98.3141 108.892 98.0758C108.529 97.6805 108.188 97.2718 107.851 96.8538C107.659 96.6212 107.461 96.3972 107.258 96.1743C106.92 95.8031 106.603 95.4192 106.288 95.029C106.028 94.7132 105.76 94.4044 105.492 94.0959C105.094 93.6399 104.707 93.1783 104.326 92.7081C104.086 92.4152 103.84 92.1277 103.592 91.8406C103.142 91.3169 102.702 90.7855 102.268 90.2486C101.798 89.6725 101.327 89.0979 100.854 88.524C100.382 87.95 99.9105 87.3756 99.4411 86.7993C99.3985 86.7471 99.3558 86.6948 99.3119 86.6409C98.7645 85.9699 98.2211 85.2963 97.6887 84.6133C97.3837 84.2229 97.0718 83.8386 96.7582 83.4551C96.3082 82.9039 95.8724 82.3433 95.4424 81.7764C95.1504 81.3914 94.8551 81.0095 94.5555 80.6304C94.1402 80.1036 93.7315 79.5718 93.3245 79.0385C93.2368 78.9239 93.2368 78.9239 93.1474 78.8071C92.9768 78.583 92.8083 78.3576 92.6399 78.1319C92.5492 78.0142 92.5492 78.0142 92.4566 77.8941C92.3991 77.817 92.3417 77.74 92.2825 77.6607C92.2303 77.5919 92.178 77.5231 92.1242 77.4523C91.9966 77.1974 92.0272 77.0725 92.11 76.8053C92.6974 77.0726 93.1768 77.4135 93.6833 77.8113C93.8485 77.9393 94.0138 78.0671 94.1791 78.1948C94.303 78.2907 94.303 78.2907 94.4295 78.3885C94.786 78.662 95.1479 78.9279 95.5106 79.1932C96.3373 79.7998 97.1524 80.4212 97.9663 81.045C98.3711 81.355 98.7764 81.6644 99.1817 81.9737C99.2987 82.063 99.2987 82.063 99.4181 82.1542C99.8221 82.4623 100.227 82.7692 100.634 83.0737C101.72 83.8873 102.788 84.7257 103.857 85.5611C103.913 85.6046 103.969 85.6481 104.026 85.6928C104.684 86.2062 105.334 86.7276 105.98 87.2557C106.364 87.5689 106.751 87.8767 107.142 88.1812C107.591 88.5317 108.028 88.8942 108.46 89.2651C108.799 89.5548 109.147 89.8317 109.499 90.1049C110.007 90.4989 110.494 90.9129 110.977 91.3364C111.372 91.683 111.775 92.019 112.184 92.3505C112.603 92.6935 113.014 93.0455 113.427 93.3965C113.667 93.6005 113.907 93.8039 114.148 94.0074C114.243 94.0886 114.339 94.1698 114.435 94.251C114.625 94.4121 114.815 94.5731 115.006 94.734C117.754 97.0581 117.754 97.0581 118.895 98.0979C119.182 98.3589 119.476 98.6067 119.778 98.8497C120.287 99.2615 120.761 99.7057 121.238 100.154C121.507 100.406 121.782 100.65 122.06 100.891C122.416 101.201 122.763 101.519 123.113 101.835C123.26 101.967 123.407 102.1 123.554 102.233C124.438 103.029 124.438 103.029 124.659 103.228C124.804 103.359 124.949 103.489 125.094 103.619C125.855 104.304 126.61 104.995 127.356 105.697C127.537 105.867 127.719 106.038 127.901 106.208C128.105 106.398 128.306 106.59 128.507 106.784C128.583 106.856 128.659 106.928 128.738 107.003C128.802 107.065 128.866 107.127 128.932 107.191C129.173 107.355 129.272 107.361 129.561 107.318C129.751 107.176 129.908 107.04 130.075 106.875C130.124 106.828 130.174 106.78 130.224 106.732C130.387 106.575 130.548 106.416 130.709 106.257C130.764 106.202 130.82 106.147 130.877 106.091C131.289 105.683 131.698 105.271 132.106 104.858C132.343 104.618 132.581 104.378 132.819 104.138C132.898 104.058 132.898 104.058 132.979 103.976C133.243 103.71 133.511 103.456 133.794 103.211C134.172 102.884 134.523 102.535 134.874 102.18C134.973 102.081 134.973 102.081 135.074 101.979C135.283 101.769 135.491 101.559 135.699 101.348C135.974 101.071 136.249 100.793 136.525 100.516C136.617 100.422 136.617 100.422 136.712 100.327C137.057 99.979 137.412 99.6502 137.783 99.33C138.046 99.0981 138.291 98.8506 138.537 98.6009C138.589 98.5483 138.641 98.4957 138.695 98.4415C138.86 98.2756 139.024 98.1094 139.188 97.9431C140.416 96.7002 140.416 96.7002 140.96 96.2382C141.344 95.8972 141.698 95.5233 142.059 95.1572C142.535 94.6732 143.011 94.1982 143.527 93.7561C143.817 93.5001 144.085 93.2224 144.355 92.9461C144.741 92.556 145.127 92.1769 145.546 91.823C145.842 91.5591 146.116 91.2738 146.394 90.9919C146.688 90.6951 146.991 90.4169 147.309 90.146C147.585 89.8987 147.843 89.6328 148.103 89.3687C148.39 89.0794 148.687 88.8097 148.996 88.5454C149.266 88.3056 149.515 88.0461 149.768 87.7891C150.002 87.5581 150.248 87.3448 150.497 87.1306C150.743 86.9122 150.97 86.6774 151.2 86.4431C151.429 86.218 151.67 86.0104 151.913 85.8012C152.134 85.6053 152.338 85.3958 152.545 85.1852C152.766 84.968 153 84.7684 153.235 84.5661C153.454 84.3716 153.657 84.1643 153.861 83.9554C154.022 83.7977 154.187 83.6501 154.357 83.5034C154.719 83.1882 155.07 82.862 155.418 82.532C155.925 82.0543 156.435 81.5803 156.948 81.1103C157.227 80.8554 157.504 80.5993 157.781 80.343C158.541 79.6403 159.302 78.9397 160.072 78.248C160.325 78.0191 160.577 77.7882 160.828 77.557C161.297 77.1264 161.768 76.6997 162.242 76.2746C162.389 76.142 162.536 76.0093 162.683 75.8766C163.566 75.0806 163.566 75.0806 163.787 74.8823C163.936 74.7475 164.086 74.6125 164.235 74.4774C164.568 74.1769 164.901 73.8771 165.239 73.5826C165.524 73.334 165.804 73.0804 166.084 72.8253C166.568 72.3834 167.058 71.9495 167.557 71.5243C168.066 71.0907 168.57 70.6549 169.059 70.1997C169.381 69.9001 169.71 69.6132 170.053 69.3374C170.423 69.0397 170.772 68.7276 171.118 68.4032C171.541 68.007 171.976 67.6351 172.427 67.2721C172.676 67.0669 172.913 66.8527 173.15 66.6343C173.543 66.2723 173.949 65.9335 174.364 65.5979C174.614 65.3902 174.854 65.1742 175.093 64.9539C175.479 64.5985 175.877 64.2643 176.285 63.9344C176.595 63.6789 176.899 63.4162 177.202 63.1519C177.758 62.6669 178.319 62.1877 178.883 61.7118C179.073 61.551 179.264 61.3899 179.454 61.2286C179.55 61.1474 179.646 61.0662 179.742 60.985C179.98 60.783 180.218 60.5805 180.456 60.377C180.99 59.9197 181.533 59.4771 182.089 59.0455C182.46 58.7551 182.819 58.4531 183.175 58.1438C183.63 57.7481 184.096 57.3705 184.572 57.0006C184.924 56.7267 185.266 56.4439 185.604 56.1538C186.036 55.7832 186.479 55.4279 186.928 55.078C187.346 54.751 187.757 54.4146 188.165 54.0754C188.666 53.6604 189.171 53.2531 189.684 52.8535C190.096 52.5308 190.501 52.1987 190.904 51.8644C191.406 51.4474 191.914 51.0378 192.429 50.6358C192.818 50.3311 193.203 50.0211 193.587 49.7086C193.645 49.6606 193.704 49.6127 193.765 49.5633C194.005 49.367 194.246 49.1706 194.486 48.9739C196.897 47 196.897 47 197.307 47Z" fill="black"/>
</g>
<defs>
<clipPath id="clip0_2546_1942">
<rect width="256" height="256" fill="white"/>
</clipPath>
</defs>
</svg>
