<svg width="256" height="256" viewBox="0 0 256 256" fill="none" xmlns="http://www.w3.org/2000/svg">
<g clip-path="url(#clip0_2004_1529)">
<path d="M256 128C256 57.3076 198.692 0 128 0C57.3076 0 0 57.3076 0 128C0 198.692 57.3076 256 128 256C198.692 256 256 198.692 256 128Z" fill="#63C3D1"/>
<path fill-rule="evenodd" clip-rule="evenodd" d="M171.7 90.2408L132.446 112.945L128 115.538L106.473 127.99L102.007 130.563L73.5464 147.061L52 159.533V171.985L62.7732 178.231L67.2196 180.804L90 193.983L128 216L166 193.983L188.78 180.804L193.227 178.231L204 171.985V159.533L182.473 147.061L153.993 130.563L132.446 143.035L171.7 165.759L167.254 168.332L155.227 175.285L128 191.056L100.773 175.285L88.766 168.332L84.3196 165.759L123.554 143.035L128 140.462L149.546 127.99L153.993 125.417L182.473 108.939L204 96.4669V83.9951L193.227 77.769L188.78 75.1961L166 61.9975L128 40L90 61.9975L67.2196 75.1961L62.7732 77.769L52 83.9951V96.4669L73.5464 108.939L102.007 125.417L123.554 112.945L84.3196 90.2408L88.766 87.6679L100.773 80.7151L128 64.9436L155.227 80.7151L167.254 87.6679L171.7 90.2408Z" fill="white"/>
</g>
<defs>
<clipPath id="clip0_2004_1529">
<rect width="256" height="256" fill="white"/>
</clipPath>
</defs>
</svg>
