<svg width="256" height="265" viewBox="0 0 256 265" fill="none" xmlns="http://www.w3.org/2000/svg">
<path d="M128 260.392C198.692 260.392 256 202.983 256 132.166C256 61.3486 198.692 3.93994 128 3.93994C57.3076 3.93994 0 61.3486 0 132.166C0 202.983 57.3076 260.392 128 260.392Z" fill="black"/>
<path d="M172.872 136.222C172.872 142.733 171.362 148.709 168.343 154.151C165.323 159.488 160.686 163.81 154.431 167.118C148.177 170.428 140.413 172.082 131.139 172.082H113.992V212.423H86.332V100.043H131.139C140.197 100.043 147.854 101.591 154.108 104.685C160.363 107.781 165.054 112.049 168.181 117.493C171.309 122.935 172.872 129.178 172.872 136.222ZM129.036 150.31C134.32 150.31 138.256 149.082 140.844 146.628C143.432 144.173 144.726 140.705 144.726 136.222C144.726 131.74 143.432 128.271 140.844 125.817C138.256 123.362 134.32 122.134 129.036 122.134H113.992V150.31H129.036Z" fill="white"/>
<path d="M172.872 71.1587H86.332V90.424H172.872V71.1587Z" fill="#E59636"/>
</svg>
