<svg width="256" height="256" viewBox="0 0 256 256" fill="none" xmlns="http://www.w3.org/2000/svg">
<path d="M128 219C178.258 219 219 178.258 219 128C219 77.7421 178.258 37 128 37C77.7421 37 37 77.7421 37 128C37 178.258 77.7421 219 128 219Z" fill="white"/>
<path d="M176.5 230L103.5 135L145 121.5L219.5 205.5L176.5 230Z" fill="white"/>
<path d="M128.004 254C98.8523 254 70.6021 243.894 48.0678 225.401C25.5334 206.908 10.1083 181.174 4.42118 152.583C-1.26589 123.993 3.13688 94.3123 16.8789 68.6034C30.6209 42.8946 52.8497 22.7444 79.7821 11.5892C106.715 0.433951 136.683 -1.03553 164.579 7.42723C192.475 15.89 216.576 33.7651 232.77 58.0039C248.965 82.2426 256.251 111.345 253.392 140.356C250.534 169.366 237.708 196.488 217.094 217.1C205.422 228.836 191.536 238.14 176.244 244.474C160.951 250.808 144.556 254.045 128.004 254ZM113.904 136.832L113.955 136.93L113.904 136.996L141.531 174.069L156.382 194.057L157.339 195.371C157.531 195.621 157.732 195.843 157.963 196.122L158.024 196.192L158.254 196.46C159.02 197.329 159.837 198.149 160.703 198.918L161.923 199.988L162.627 200.514L163.317 201.053C163.813 201.44 164.334 201.795 164.875 202.118C171.24 206.269 178.696 208.43 186.294 208.326H207.245L207.193 208.26L207.245 208.162L179.617 171.08L164.757 151.101L163.8 149.759C163.531 149.442 163.261 149.112 162.838 148.689C162.076 147.816 161.259 146.995 160.389 146.23L159.741 145.672L159.465 145.433L159.164 145.175L159.023 145.057L158.953 145.001L158.887 144.954C158.757 144.836 158.619 144.726 158.475 144.626C158.3 144.524 158.138 144.403 157.987 144.269L157.785 144.095C157.287 143.709 156.767 143.355 156.227 143.03C149.867 138.868 142.407 136.706 134.807 136.823L113.904 136.832ZM128.158 47.6389C116.649 47.613 105.265 50.0586 94.783 54.8132C84.3015 59.5678 74.9659 66.519 67.4042 75.1959C59.8425 83.8728 54.2305 94.0706 50.9534 105.104C47.6764 116.137 46.8112 127.747 48.4103 139.145C50.0093 150.543 54.0386 161.464 60.2252 171.169C66.4118 180.874 74.6104 189.138 84.2678 195.399C93.9253 201.66 104.813 205.771 116.198 207.458C127.583 209.145 139.201 208.365 150.259 205.173C149.471 204.318 128.454 176.347 128.243 176.04H128.069C118.564 176.051 109.27 173.242 101.361 167.969C93.4524 162.696 87.2846 155.197 83.6391 146.418C79.9936 137.639 79.0327 127.979 80.8801 118.655C82.7275 109.33 87.3009 100.76 94.0182 94.0349C100.735 87.3095 109.297 82.732 118.619 80.8734C127.941 79.0148 137.605 79.9599 146.387 83.5948C155.17 87.2298 162.675 93.391 167.957 101.294C173.24 109.196 176.061 118.487 176.061 127.992C176.048 133.179 175.22 138.331 173.602 143.26L195.191 172.225C203.167 160.116 207.723 146.072 208.366 131.586C209.01 117.1 205.722 102.712 198.851 89.9433C191.98 77.1746 181.781 66.5027 169.337 59.0596C156.893 51.6165 142.668 47.681 128.168 47.6671L128.158 47.6389Z" fill="#6969E7"/>
</svg>
