<svg width="256" height="256" viewBox="0 0 256 256" fill="none" xmlns="http://www.w3.org/2000/svg">
<circle cx="127" cy="128" r="125" fill="white"/>
<g clip-path="url(#clip0_741_46)">
<path d="M183.148 64H205.695L158.773 110.032C141.781 126.693 114.231 126.693 97.2266 110.032L50.2864 64H72.8516L108.5 98.9675C113.694 104.04 120.694 106.883 127.986 106.883C135.279 106.883 142.279 104.04 147.473 98.9675L183.148 64Z" fill="#23292F"/>
<path d="M72.5621 192H50L97.2266 145.684C114.219 129.023 141.769 129.023 158.773 145.684L206 192H183.453L147.5 156.748C142.306 151.676 135.306 148.833 128.014 148.833C120.721 148.833 113.721 151.676 108.527 156.748L72.5621 192Z" fill="#23292F"/>
</g>
<defs>
<clipPath id="clip0_741_46">
<rect width="156" height="128" fill="white" transform="translate(50 64)"/>
</clipPath>
</defs>
</svg>
