<svg width="256" height="256" viewBox="0 0 256 256" fill="none" xmlns="http://www.w3.org/2000/svg">
<path d="M252 128.5C252 60.2928 196.707 5 128.5 5C60.2928 5 5 60.2928 5 128.5C5 196.707 60.2928 252 128.5 252C196.707 252 252 196.707 252 128.5Z" fill="#212227"/>
<path d="M181.96 52.8877H203.816L158.331 107.272C141.859 126.955 115.152 126.955 98.6681 107.272L53.1646 52.8877H75.0393L109.597 94.1997C114.631 100.192 121.417 103.551 128.486 103.551C135.555 103.551 142.341 100.192 147.376 94.1997L181.96 52.8877Z" fill="white"/>
<path d="M74.7594 204.114H52.8878L98.6685 149.395C115.141 129.71 141.848 129.71 158.332 149.395L204.112 204.114H182.256L147.403 162.466C142.368 156.474 135.583 153.115 128.513 153.115C121.444 153.115 114.658 156.474 109.624 162.466L74.7594 204.114Z" fill="white"/>
<path d="M252 128.5C252 60.2928 196.707 5 128.5 5C60.2928 5 5 60.2928 5 128.5C5 196.707 60.2928 252 128.5 252C196.707 252 252 196.707 252 128.5Z" stroke="#222937"/>
</svg>
