<svg width="256" height="256" viewBox="0 0 256 256" fill="none" xmlns="http://www.w3.org/2000/svg">
<g clip-path="url(#clip0_776_336)">
<path d="M252.168 158.965C235.07 227.536 165.611 269.268 97.0242 252.168C28.465 235.072 -13.2716 165.617 3.83424 97.0494C20.924 28.47 90.3836 -13.2655 158.951 3.83035C227.534 20.9262 269.266 90.3894 252.168 158.965Z" fill="#E5A441"/>
<path d="M194.071 206.236C176.238 221.312 153.181 230.4 128 230.4C100.437 230.4 75.4163 219.51 57.0081 201.796L49.7661 209.038C70.0285 228.604 97.6087 240.64 128 240.64C156.009 240.64 181.63 230.418 201.336 213.5L194.071 206.236Z" fill="#F4EDFF"/>
<path d="M201.796 57.0086C219.51 75.4168 230.4 100.437 230.4 128.001C230.4 155.688 219.412 180.809 201.558 199.24L208.798 206.482C228.506 186.197 240.64 158.516 240.64 128.001C240.64 97.6092 228.604 70.029 209.038 49.7666L201.796 57.0086Z" fill="#F4EDFF"/>
<path d="M201.598 42.7263C181.857 25.6739 156.133 15.3604 128 15.3604C97.4846 15.3604 69.8036 27.4949 49.5186 47.2017L56.7602 54.4433C75.1914 36.5891 100.312 25.6005 128 25.6005C153.305 25.6005 176.466 34.7789 194.335 49.9885L201.598 42.7263Z" fill="#F4EDFF"/>
<path d="M49.7645 61.929L42.5007 54.665C25.5829 74.3708 15.3601 99.9918 15.3601 128C15.3601 156.133 25.6737 181.857 42.7261 201.598L49.9883 194.335C34.7787 176.466 25.6001 153.305 25.6001 128C25.6001 102.82 34.6887 79.7624 49.7645 61.929Z" fill="#F4EDFF"/>
<path fill-rule="evenodd" clip-rule="evenodd" d="M144.413 72.3771C145.324 68.9759 148.82 66.9575 152.221 67.8689C155.622 68.7803 157.641 72.2761 156.729 75.6773L154.031 85.7481L155.717 86.1997C167.775 89.4309 174.931 101.826 171.7 113.884L171.55 114.444C169.033 123.838 160.809 130.178 151.607 130.734L151.605 130.743L151.458 130.744C150.739 130.748 150.588 131.761 151.275 131.975L151.271 131.987C162.863 136.59 169.424 149.251 166.117 161.592C162.555 174.887 148.889 182.778 135.594 179.215L131.652 178.159L128.948 188.251C128.036 191.653 124.54 193.671 121.139 192.76C117.738 191.848 115.72 188.352 116.631 184.951L119.335 174.859L108.146 171.861L105.441 181.956C104.53 185.357 101.034 187.375 97.6325 186.464C94.2313 185.552 92.2129 182.057 93.1243 178.655L95.8293 168.56L84.6473 165.564L109.249 73.7489L118.209 76.1495L120.906 66.0825C121.817 62.6813 125.313 60.6629 128.715 61.5743C132.116 62.4855 134.134 65.9815 133.223 69.3827L130.525 79.4499L141.714 82.4479L144.413 72.3771ZM100.031 85.6885C96.3203 84.6943 94.1183 80.8805 95.1125 77.1703C96.1067 73.4599 99.9205 71.2579 103.631 72.2521L109.229 73.7523L105.629 87.1887L100.031 85.6885ZM78.4763 163.917C74.7659 162.923 72.5641 159.109 73.5583 155.399C74.5525 151.689 78.3663 149.487 82.0765 150.481L88.2349 152.131L84.6347 165.568L78.4763 163.917ZM114.199 115.411C113.027 111.039 115.622 106.545 119.994 105.374L142.926 99.2289C147.298 98.0573 151.792 100.652 152.963 105.024C154.135 109.396 151.54 113.89 147.168 115.061L124.236 121.206C119.864 122.377 115.37 119.783 114.199 115.411ZM103.68 152.484C102.509 148.113 105.104 143.619 109.475 142.447L132.408 136.303C136.78 135.131 141.274 137.726 142.445 142.098C143.617 146.469 141.022 150.963 136.65 152.135L113.718 158.279C109.346 159.451 104.852 156.856 103.68 152.484Z" fill="#F4EDFF"/>
</g>
<defs>
<clipPath id="clip0_776_336">
<rect width="256" height="256" fill="white"/>
</clipPath>
</defs>
</svg>
