<svg width="256" height="256" viewBox="0 0 256 256" fill="none" xmlns="http://www.w3.org/2000/svg">
<g clip-path="url(#clip0_1099_35)">
<path d="M255.498 128.02C255.498 198.622 198.344 255.856 127.841 255.856C57.3371 255.856 0.182617 198.622 0.182617 128.02C0.182617 57.4176 57.3371 0.183105 127.841 0.183105C198.344 0.183105 255.498 57.4176 255.498 128.02Z" fill="#B8BFFB"/>
<path d="M248.828 128.019C248.828 61.0793 194.639 6.84544 127.838 6.84544C61.0384 6.8464 6.85461 61.0799 6.85419 128.019C6.85419 194.958 61.0384 249.191 127.838 249.192V256.038C57.2352 256.037 0 198.722 0 128.019C0.000427665 57.3167 57.2352 0.000974494 127.838 0C198.443 0 255.682 57.3161 255.682 128.019L255.641 131.322C253.892 200.499 197.34 256.038 127.838 256.038V249.192C194.64 249.192 248.828 194.958 248.828 128.019Z" fill="black"/>
<path d="M72.6599 64.3521H72.6599C70.767 64.3521 69.2325 65.8846 69.2325 67.775V86.2592C69.2325 88.1496 70.767 89.6822 72.6599 89.6822C74.5528 89.6822 76.0873 88.1496 76.0873 86.2592V67.775C76.0873 65.8846 74.5528 64.3521 72.6599 64.3521Z" fill="black"/>
<path d="M72.6599 165.672H72.6599C70.767 165.672 69.2325 167.205 69.2325 169.095V187.579C69.2325 189.47 70.767 191.002 72.6599 191.002C74.5528 191.002 76.0873 189.47 76.0873 187.579V169.095C76.0873 167.205 74.5528 165.672 72.6599 165.672Z" fill="black"/>
<path d="M84.3127 64.3521H84.3127C82.4199 64.3521 80.8854 65.8846 80.8854 67.775V86.2592C80.8854 88.1496 82.4199 89.6822 84.3127 89.6822C86.2056 89.6822 87.7401 88.1496 87.7401 86.2592V67.775C87.7401 65.8846 86.2056 64.3521 84.3127 64.3521Z" fill="black"/>
<path d="M84.3127 165.672H84.3127C82.4199 165.672 80.8854 167.205 80.8854 169.095V187.579C80.8854 189.47 82.4199 191.002 84.3127 191.002C86.2056 191.002 87.7401 189.47 87.7401 187.579V169.095C87.7401 167.205 86.2056 165.672 84.3127 165.672Z" fill="black"/>
<path d="M95.9661 64.3521H95.9661C94.0732 64.3521 92.5387 65.8846 92.5387 67.775V187.58C92.5387 189.47 94.0732 191.003 95.9661 191.003C97.8589 191.003 99.3934 189.47 99.3934 187.58V67.775C99.3934 65.8846 97.8589 64.3521 95.9661 64.3521Z" fill="black"/>
<path d="M95.9661 34.23H95.9661C94.0732 34.23 92.5387 35.7625 92.5387 37.653V56.1371C92.5387 58.0276 94.0732 59.5601 95.9661 59.5601C97.8589 59.5601 99.3934 58.0276 99.3934 56.1371V37.653C99.3934 35.7625 97.8589 34.23 95.9661 34.23Z" fill="black"/>
<path d="M95.9661 195.795H95.9661C94.0732 195.795 92.5387 197.327 92.5387 199.218V217.702C92.5387 219.593 94.0732 221.125 95.9661 221.125C97.8589 221.125 99.3934 219.593 99.3934 217.702V199.218C99.3934 197.327 97.8589 195.795 95.9661 195.795Z" fill="black"/>
<path d="M107.619 64.3521H107.619C105.726 64.3521 104.191 65.8846 104.191 67.775V187.58C104.191 189.47 105.726 191.003 107.619 191.003C109.512 191.003 111.046 189.47 111.046 187.58V67.775C111.046 65.8846 109.512 64.3521 107.619 64.3521Z" fill="black"/>
<path d="M107.619 34.23H107.619C105.726 34.23 104.191 35.7625 104.191 37.653V56.1371C104.191 58.0276 105.726 59.5601 107.619 59.5601C109.512 59.5601 111.046 58.0276 111.046 56.1371V37.653C111.046 35.7625 109.512 34.23 107.619 34.23Z" fill="black"/>
<path d="M107.619 195.795H107.619C105.726 195.795 104.191 197.327 104.191 199.218V217.702C104.191 219.593 105.726 221.125 107.619 221.125C109.512 221.125 111.046 219.593 111.046 217.702V199.218C111.046 197.327 109.512 195.795 107.619 195.795Z" fill="black"/>
<path d="M119.272 64.3521H119.272C117.379 64.3521 115.845 65.8846 115.845 67.775V86.2592C115.845 88.1496 117.379 89.6822 119.272 89.6822C121.165 89.6822 122.7 88.1496 122.7 86.2592V67.775C122.7 65.8846 121.165 64.3521 119.272 64.3521Z" fill="black"/>
<path d="M119.272 165.672H119.272C117.379 165.672 115.845 167.205 115.845 169.095V187.579C115.845 189.47 117.379 191.002 119.272 191.002C121.165 191.002 122.7 189.47 122.7 187.579V169.095C122.7 167.205 121.165 165.672 119.272 165.672Z" fill="black"/>
<path d="M119.272 94.4746H119.272C117.379 94.4746 115.845 96.0071 115.845 97.8976V116.382C115.845 118.272 117.379 119.805 119.272 119.805C121.165 119.805 122.7 118.272 122.7 116.382V97.8976C122.7 96.0071 121.165 94.4746 119.272 94.4746Z" fill="black"/>
<path d="M119.272 136.005H119.272C117.379 136.005 115.845 137.537 115.845 139.428V157.912C115.845 159.802 117.379 161.335 119.272 161.335C121.165 161.335 122.7 159.802 122.7 157.912V139.428C122.7 137.537 121.165 136.005 119.272 136.005Z" fill="black"/>
<path d="M154.231 94.4746H154.231C152.338 94.4746 150.804 96.0071 150.804 97.8976V116.382C150.804 118.272 152.338 119.805 154.231 119.805C156.124 119.805 157.658 118.272 157.658 116.382V97.8976C157.658 96.0071 156.124 94.4746 154.231 94.4746Z" fill="black"/>
<path d="M154.231 136.005H154.231C152.338 136.005 150.804 137.537 150.804 139.428V157.912C150.804 159.802 152.338 161.335 154.231 161.335C156.124 161.335 157.658 159.802 157.658 157.912V139.428C157.658 137.537 156.124 136.005 154.231 136.005Z" fill="black"/>
<path d="M130.925 64.3521H130.925C129.032 64.3521 127.498 65.8846 127.498 67.775V86.2592C127.498 88.1496 129.032 89.6822 130.925 89.6822C132.818 89.6822 134.352 88.1496 134.352 86.2592V67.775C134.352 65.8846 132.818 64.3521 130.925 64.3521Z" fill="black"/>
<path d="M130.925 165.672H130.925C129.032 165.672 127.498 167.205 127.498 169.095V187.579C127.498 189.47 129.032 191.002 130.925 191.002C132.818 191.002 134.352 189.47 134.352 187.579V169.095C134.352 167.205 132.818 165.672 130.925 165.672Z" fill="black"/>
<path d="M130.925 115.012H130.925C129.032 115.012 127.498 116.545 127.498 118.435V136.919C127.498 138.81 129.032 140.342 130.925 140.342C132.818 140.342 134.352 138.81 134.352 136.919V118.435C134.352 116.545 132.818 115.012 130.925 115.012Z" fill="black"/>
<path d="M142.578 34.23H142.578C140.685 34.23 139.15 35.7625 139.15 37.653V56.1371C139.15 58.0276 140.685 59.5601 142.578 59.5601C144.471 59.5601 146.005 58.0276 146.005 56.1371V37.653C146.005 35.7625 144.471 34.23 142.578 34.23Z" fill="black"/>
<path d="M142.578 195.795H142.578C140.685 195.795 139.15 197.327 139.15 199.218V217.702C139.15 219.593 140.685 221.125 142.578 221.125C144.471 221.125 146.005 219.593 146.005 217.702V199.218C146.005 197.327 144.471 195.795 142.578 195.795Z" fill="black"/>
<path d="M142.578 64.3521H142.578C140.685 64.3521 139.15 65.8846 139.15 67.775V86.2592C139.15 88.1496 140.685 89.6822 142.578 89.6822C144.471 89.6822 146.005 88.1496 146.005 86.2592V67.775C146.005 65.8846 144.471 64.3521 142.578 64.3521Z" fill="black"/>
<path d="M142.578 165.672H142.578C140.685 165.672 139.15 167.205 139.15 169.095V187.579C139.15 189.47 140.685 191.002 142.578 191.002C144.471 191.002 146.005 189.47 146.005 187.579V169.095C146.005 167.205 144.471 165.672 142.578 165.672Z" fill="black"/>
<path d="M142.578 115.012H142.578C140.685 115.012 139.15 116.545 139.15 118.435V136.919C139.15 138.81 140.685 140.342 142.578 140.342C144.471 140.342 146.005 138.81 146.005 136.919V118.435C146.005 116.545 144.471 115.012 142.578 115.012Z" fill="black"/>
<path d="M154.231 64.3521H154.231C152.338 64.3521 150.804 65.8846 150.804 67.775V86.2592C150.804 88.1496 152.338 89.6822 154.231 89.6822C156.124 89.6822 157.658 88.1496 157.658 86.2592V67.775C157.658 65.8846 156.124 64.3521 154.231 64.3521Z" fill="black"/>
<path d="M154.231 165.672H154.231C152.338 165.672 150.804 167.205 150.804 169.095V187.579C150.804 189.47 152.338 191.002 154.231 191.002C156.124 191.002 157.658 189.47 157.658 187.579V169.095C157.658 167.205 156.124 165.672 154.231 165.672Z" fill="black"/>
<path d="M154.231 34.23H154.231C152.338 34.23 150.804 35.7625 150.804 37.653V56.1371C150.804 58.0276 152.338 59.5601 154.231 59.5601C156.124 59.5601 157.658 58.0276 157.658 56.1371V37.653C157.658 35.7625 156.124 34.23 154.231 34.23Z" fill="black"/>
<path d="M154.231 195.795H154.231C152.338 195.795 150.804 197.327 150.804 199.218V217.702C150.804 219.593 152.338 221.125 154.231 221.125C156.124 221.125 157.658 219.593 157.658 217.702V199.218C157.658 197.327 156.124 195.795 154.231 195.795Z" fill="black"/>
<path d="M165.884 64.3521H165.884C163.991 64.3521 162.457 65.8846 162.457 67.775V187.58C162.457 189.47 163.991 191.003 165.884 191.003C167.777 191.003 169.311 189.47 169.311 187.58V67.775C169.311 65.8846 167.777 64.3521 165.884 64.3521Z" fill="black"/>
<path d="M180.965 80.4406C180.965 78.5501 179.43 77.0176 177.537 77.0176C175.644 77.0176 174.11 78.5501 174.11 80.4406V174.915C174.11 176.805 175.644 178.338 177.537 178.338C179.43 178.338 180.965 176.805 180.965 174.915V80.4406Z" fill="black"/>
<path d="M192.617 93.1051C192.617 91.2146 191.083 89.6821 189.19 89.6821C187.297 89.6821 185.763 91.2146 185.763 93.1051V111.589C185.763 113.48 187.297 115.012 189.19 115.012C191.083 115.012 192.617 113.48 192.617 111.589V93.1051Z" fill="black"/>
<path d="M192.617 143.765C192.617 141.875 191.083 140.342 189.19 140.342C187.297 140.342 185.763 141.875 185.763 143.765V162.249C185.763 164.14 187.297 165.672 189.19 165.672C191.083 165.672 192.617 164.14 192.617 162.249V143.765Z" fill="black"/>
</g>
<defs>
<clipPath id="clip0_1099_35">
<rect width="256" height="256" fill="white"/>
</clipPath>
</defs>
</svg>
