<svg width="256" height="256" viewBox="0 0 256 256" fill="none" xmlns="http://www.w3.org/2000/svg">
<g clip-path="url(#clip0_2659_2)">
<path d="M128.029 256.058C198.737 256.058 256.058 198.737 256.058 128.029C256.058 57.3205 198.737 0 128.029 0C57.3205 0 0 57.3205 0 128.029C0 198.737 57.3205 256.058 128.029 256.058Z" fill="#301748"/>
<path d="M246.409 171.823C246.409 172.805 246.409 173.729 246.409 174.654C246.403 174.839 246.339 175.017 246.224 175.162C246.11 175.308 245.952 175.413 245.774 175.462L244.965 175.809L227.055 181.933H226.188C226.188 181.933 225.726 181.933 225.726 181.529V181.009C225.726 180.142 225.726 179.333 225.726 178.524L226.246 174.134C226.246 173.036 226.246 171.938 226.65 170.84C227.055 169.743 226.65 167.894 227.112 166.392C227.574 164.89 227.459 163.387 227.69 161.885C227.69 161.885 227.69 161.365 227.69 161.134C227.69 159.401 227.69 159.459 226.477 158.303L209.433 144.553L208.393 143.86L207.989 144.437C207.989 144.437 207.989 146.459 207.584 147.442C207.584 149.579 207.18 151.775 206.949 153.97C206.718 156.166 206.949 156.974 206.544 158.534L205.851 165.178C205.851 166.969 205.562 168.703 205.389 170.494L204.869 175.925C204.869 177.484 204.522 178.987 204.407 180.489C204.291 181.991 204.118 183.435 204.002 184.88C203.998 185.117 203.917 185.347 203.771 185.534C203.625 185.722 203.423 185.857 203.194 185.92L201.98 186.324L176.386 194.355L163.907 198.283L162.058 198.977C162.058 198.977 161.769 199.439 162.058 199.554L163.387 200.768L168.76 205.101L179.448 213.767L180.835 214.807C181.035 214.93 181.265 214.994 181.499 214.994C181.734 214.994 181.964 214.93 182.164 214.807L185.572 213.709L203.309 207.932H204.002C205.562 207.47 205.793 207.354 205.62 209.318C205.62 210.301 205.62 211.283 205.273 212.265L204.753 216.829C204.753 218.1 204.753 219.313 204.291 220.527C203.829 221.74 204.291 223.589 203.829 225.091C203.367 226.593 203.425 228.846 203.194 230.868C203.063 230.987 202.904 231.071 202.732 231.111C202.561 231.151 202.381 231.147 202.211 231.099L201.229 231.504C199.043 232.183 196.8 232.667 194.527 232.948C192.614 233.229 190.684 233.384 188.75 233.41H184.532C183.417 233.497 182.297 233.497 181.181 233.41C180.585 233.38 179.987 233.38 179.39 233.41C175.394 233.155 171.43 232.537 167.547 231.562C162.127 230.247 156.93 228.145 152.121 225.322C144.613 220.968 137.813 215.493 131.957 209.087C129.588 206.545 127.277 203.945 125.14 201.172C122.02 197.301 118.727 193.661 115.376 189.964C110.523 184.591 105.554 179.333 100.47 174.134L88.2218 161.77L76.0891 149.348C75.7894 149.068 75.5185 148.758 75.2802 148.424C75.081 148.186 74.9493 147.899 74.8987 147.593C74.8481 147.287 74.8806 146.973 74.9927 146.684C75.1049 146.395 75.2925 146.141 75.5362 145.949C75.7798 145.757 76.0705 145.634 76.3779 145.593H76.8979C78.2538 145.463 79.6211 145.661 80.8844 146.171L91.3994 150.388L112.198 158.823L115.954 160.325C116.733 160.627 117.549 160.821 118.38 160.903H119.593C120.131 160.878 120.648 160.687 121.072 160.356C121.496 160.024 121.807 159.57 121.962 159.054C122.248 158.034 122.248 156.955 121.962 155.934C121.616 154.143 121.327 152.295 120.922 150.561L119.189 143.686L118.842 142.3C118.635 141.499 118.589 140.665 118.707 139.847C118.825 139.028 119.104 138.241 119.529 137.532C119.954 136.822 120.515 136.204 121.181 135.713C121.846 135.222 122.603 134.869 123.407 134.673C124.161 134.469 124.936 134.353 125.718 134.327L129.762 133.98C130.279 133.954 130.788 133.837 131.264 133.633C131.75 133.476 132.192 133.205 132.554 132.844C132.915 132.482 133.186 132.04 133.344 131.554C133.564 130.947 133.641 130.299 133.571 129.658C133.501 129.017 133.285 128.4 132.939 127.856C132.683 127.466 132.393 127.098 132.073 126.758L130.917 125.603L107.807 102.955L78.2267 73.721L52.6325 47.8379C52.1526 47.3301 51.7086 46.7896 51.3037 46.2202C51.1302 45.9793 51.0118 45.7031 50.957 45.4114C50.9601 45.1063 51.0636 44.8108 51.2516 44.5705C51.4396 44.3303 51.7016 44.1588 51.997 44.0825C52.7381 43.91 53.509 43.91 54.2502 44.0825C55.1054 44.309 55.9229 44.6594 56.6767 45.1225C57.4278 45.5847 58.1789 46.0469 58.8722 46.5669C62.2809 49.1667 65.8051 51.4777 69.445 53.7309L94.057 69.3301C96.1947 70.6589 98.2746 71.93 100.354 73.3166C108.058 78.4007 115.761 83.3501 123.464 88.1647C132.593 93.9422 141.548 99.7196 150.561 105.497L154.721 108.155C155.162 108.458 155.626 108.729 156.107 108.964C156.588 109.172 157.115 109.254 157.637 109.201C158.159 109.148 158.658 108.962 159.087 108.66C159.516 108.359 159.861 107.952 160.088 107.479C160.314 107.006 160.416 106.483 160.382 105.959C160.303 105.37 160.167 104.79 159.978 104.226C159.513 103.028 158.953 101.868 158.303 100.76L156.396 97.3509C155.992 96.542 155.645 95.7332 155.298 94.9243C154.952 94.1155 154.778 93.48 154.547 92.7867C154.403 92.1398 154.403 91.4691 154.547 90.8223C154.515 90.6117 154.515 90.3974 154.547 90.1868C154.816 89.6899 155.233 89.2892 155.741 89.0406C156.248 88.7921 156.821 88.7081 157.378 88.8002L158.88 89.378C162.636 91.2267 166.391 93.0178 170.031 95.1554L173.208 97.1198C176.213 99.0841 179.333 100.875 182.51 102.551C185.688 104.226 187.132 104.919 189.501 106.017C197.82 109.888 205.851 114.337 213.824 118.959L220.179 122.772C223.751 124.849 226.969 127.482 229.712 130.571C236.373 137.807 241.224 146.519 243.867 155.992C244.746 159.24 245.421 162.54 245.889 165.872C246.247 167.835 246.421 169.827 246.409 171.823Z" fill="url(#paint0_linear_2659_2)"/>
<path d="M102.493 123.985C102.446 124.792 102.29 125.588 102.031 126.354C101.709 127.137 101.206 127.834 100.563 128.386C99.9205 128.938 99.1564 129.331 98.3332 129.531C97.5326 129.744 96.6958 129.782 95.8792 129.643C95.0627 129.504 94.2857 129.191 93.6007 128.725C92.9158 128.259 92.339 127.652 91.9095 126.943C91.48 126.235 91.2078 125.443 91.1113 124.62C90.9055 123.157 91.2116 121.667 91.9779 120.403C92.3885 119.726 92.9337 119.141 93.5797 118.684C94.2257 118.227 94.9587 117.907 95.7333 117.745C96.8584 117.569 98.0104 117.751 99.0264 118.265C100.144 118.805 101.07 119.671 101.684 120.749C102.266 121.725 102.547 122.85 102.493 123.985Z" fill="url(#paint1_linear_2659_2)"/>
<path d="M121.326 42.4065C121.425 43.0963 121.425 43.7966 121.326 44.4864C121.123 45.0707 120.803 45.6076 120.386 46.0645C119.969 46.5213 119.463 46.8886 118.9 47.144C117.634 47.735 116.213 47.9079 114.842 47.6379C113.471 47.3679 112.221 46.6688 111.274 45.6419C110.486 44.8113 109.964 43.7657 109.772 42.6376C109.714 42.274 109.714 41.9036 109.772 41.5399C109.865 41.1415 110.001 40.7541 110.176 40.3844C110.681 39.4552 111.365 38.6349 112.188 37.9706C113.01 37.3064 113.956 36.8112 114.971 36.5135C115.54 36.3692 116.136 36.3692 116.704 36.5135C117.75 36.7106 118.726 37.1765 119.536 37.8654C120.347 38.5542 120.964 39.4423 121.326 40.4422C121.427 41.0931 121.427 41.7556 121.326 42.4065Z" fill="url(#paint2_linear_2659_2)"/>
<path d="M45.8734 106.306C44.5299 106.336 43.2179 105.896 42.1634 105.063C41.1089 104.23 40.3778 103.055 40.0959 101.741C40.0383 101.455 40.0383 101.161 40.0959 100.875C40.2502 99.7943 40.6903 98.7747 41.3709 97.9215C42.0515 97.0682 42.9477 96.4123 43.9668 96.0217C45.0015 95.6775 46.1187 95.6711 47.1572 96.0034C48.1957 96.3357 49.1017 96.9896 49.7443 97.8705C50.5224 99.0655 50.831 100.506 50.6109 101.915C50.5504 102.389 50.4341 102.854 50.2643 103.301C49.9568 104.066 49.453 104.735 48.8037 105.243C48.1544 105.75 47.3828 106.077 46.5667 106.19L45.8734 106.306Z" fill="url(#paint3_linear_2659_2)"/>
</g>
<defs>
<linearGradient id="paint0_linear_2659_2" x1="-0.462513" y1="138.949" x2="194.99" y2="138.949" gradientUnits="userSpaceOnUse">
<stop stop-color="#301748"/>
<stop offset="1" stop-color="#FFC000"/>
</linearGradient>
<linearGradient id="paint1_linear_2659_2" x1="91.1113" y1="123.754" x2="102.493" y2="123.754" gradientUnits="userSpaceOnUse">
<stop stop-color="#301748"/>
<stop offset="1" stop-color="#FFC000"/>
</linearGradient>
<linearGradient id="paint2_linear_2659_2" x1="109.656" y1="42.0599" x2="121.5" y2="42.0599" gradientUnits="userSpaceOnUse">
<stop stop-color="#301748"/>
<stop offset="1" stop-color="#FFC000"/>
</linearGradient>
<linearGradient id="paint3_linear_2659_2" x1="40.327" y1="101.048" x2="50.9576" y2="101.048" gradientUnits="userSpaceOnUse">
<stop stop-color="#301748"/>
<stop offset="1" stop-color="#FFC000"/>
</linearGradient>
<clipPath id="clip0_2659_2">
<rect width="256" height="256" fill="white"/>
</clipPath>
</defs>
</svg>
