<svg width="256" height="256" viewBox="0 0 256 256" fill="none" xmlns="http://www.w3.org/2000/svg">
<g clip-path="url(#clip0_2286_493)">
<path fill-rule="evenodd" clip-rule="evenodd" d="M128 0C198.697 0 256 57.3026 256 128C256 198.697 198.697 256 128 256C57.3026 256 0 198.697 0 128C0 57.3026 57.3026 0 128 0Z" fill="#2C7DF7"/>
<path d="M145.161 209.757C133.385 209.757 124.808 206.947 119.42 201.328C114.037 195.711 111.342 189.653 111.342 183.161C111.342 180.787 111.811 178.79 112.75 177.168C113.667 175.566 114.998 174.24 116.604 173.326C118.232 172.389 120.235 171.922 122.616 171.922C124.997 171.922 126.998 172.389 128.628 173.326C130.256 174.262 131.54 175.545 132.48 177.168C133.419 178.79 133.887 180.787 133.887 183.161C133.887 186.033 133.199 188.373 131.822 190.184C130.443 191.995 128.815 193.18 126.936 193.745C128.566 195.989 131.134 197.581 134.641 198.518C138.148 199.519 141.654 200.017 145.161 200.017C150.045 200.017 154.46 198.706 158.407 196.085C162.352 193.461 165.266 189.591 167.145 184.472C169.024 179.353 169.963 173.545 169.963 167.051C169.963 159.997 168.928 153.97 166.863 148.977C164.857 143.92 161.883 140.174 157.936 137.738C154.111 135.339 149.681 134.073 145.161 134.088C142.154 134.088 138.399 135.336 133.887 137.834L125.621 141.954V137.834L162.823 88.3864H111.342V139.705C111.342 143.951 112.282 147.447 114.161 150.195C116.04 152.943 118.92 154.316 122.805 154.316C125.807 154.316 128.691 153.317 131.447 151.318C134.221 149.301 136.634 146.832 138.585 144.016C138.836 143.451 139.149 143.046 139.524 142.795C139.862 142.498 140.296 142.333 140.746 142.328C141.434 142.328 142.247 142.672 143.189 143.361C144.067 144.356 144.504 145.512 144.504 146.823C144.396 147.706 144.239 148.582 144.033 149.447C141.905 154.192 138.96 157.812 135.202 160.309C131.544 162.776 127.222 164.082 122.805 164.055C111.655 164.055 103.951 161.87 99.6932 157.502C95.4357 153.129 93.3057 147.197 93.3057 139.707V88.3864H67V78.8323H93.3057V57.1079L87.2935 51.1092V46.2432H104.766L111.34 49.6128V78.8323L179.356 78.6466L186.121 85.3884L144.411 126.969C146.936 125.966 149.594 125.335 152.302 125.096C156.811 125.096 161.883 126.533 167.52 129.405C173.219 132.215 177.604 136.087 180.67 141.015C183.74 145.886 185.712 150.569 186.589 155.064C187.529 159.561 188 163.555 188 167.051C188 175.044 186.307 182.472 182.927 189.343C179.545 196.209 174.41 201.328 167.52 204.7C160.631 208.072 153.177 209.757 145.161 209.757Z" fill="white"/>
</g>
<defs>
<clipPath id="clip0_2286_493">
<rect width="256" height="256" fill="white"/>
</clipPath>
</defs>
</svg>
