<svg width="256" height="256" viewBox="0 0 256 256" fill="none" xmlns="http://www.w3.org/2000/svg">
<g clip-path="url(#clip0_2472_680)">
<path d="M128 256C198.692 256 256 198.692 256 128C256 57.3076 198.692 0 128 0C57.3076 0 0 57.3076 0 128C0 198.692 57.3076 256 128 256Z" fill="#16163D"/>
<path d="M79.1457 42.8152L29.8701 128.17L79.1457 213.525H177.715L179.345 210.747L227 128.207L177.715 42.8152H79.1457ZM88.5452 54.1224H161.546L113.549 69.3004C114.426 70.7269 115.052 72.293 115.401 73.9307L170.649 56.5116L181.679 110.112C183.293 109.648 184.963 109.405 186.643 109.39L177.382 65.0221L212.452 125.707H205.395C205.487 126.531 205.534 127.359 205.534 128.188C205.536 129.018 205.489 129.846 205.395 130.67H212.452L176.243 193.411L186.355 146.987C184.703 146.947 183.062 146.692 181.475 146.228L169.547 200.866L115.493 182.78C115.204 184.393 114.674 185.954 113.919 187.41L157.907 202.153H88.5452L92.2494 195.809C90.6942 195.223 89.2243 194.432 87.8784 193.457L84.239 199.736L49.6692 139.866L83.9334 170.111C84.8772 168.735 85.9981 167.49 87.2672 166.407L44.1314 128.318L88.8693 88.618C87.6841 87.4449 86.6875 86.0954 85.9152 84.6175L49.3729 117.029L84.239 56.6042L89.3879 65.5777C90.6474 64.4661 92.072 63.557 93.6107 62.8829L88.5452 54.1224ZM114.697 82.9876C114.115 84.5481 113.276 86.0004 112.215 87.2845L169.631 120.447C170.31 118.933 171.191 117.518 172.252 116.242L114.697 82.9876ZM96.1759 92.7205V162.48C96.934 162.379 97.6983 162.329 98.4632 162.332C99.3592 162.322 100.255 162.387 101.14 162.527V93.0724C100.742 93.0953 100.343 93.0953 99.9449 93.0724C98.6759 93.0748 97.411 92.9287 96.1759 92.6371V92.7205ZM169.649 135.903L112.16 169.065C113.195 170.38 114.031 171.84 114.641 173.399L172.27 140.061C171.21 138.788 170.328 137.376 169.649 135.866V135.903Z" fill="#8D8FC6"/>
<path d="M99.982 61.5679C96.8526 61.5569 93.7905 62.4755 91.1839 64.2072C88.5773 65.939 86.5438 68.4058 85.3412 71.2949C84.1385 74.1839 83.821 77.3651 84.4288 80.4349C85.0366 83.5047 86.5424 86.3248 88.7552 88.5376C90.968 90.7504 93.7882 92.2562 96.8579 92.864C99.9277 93.4718 103.109 93.1543 105.998 91.9517C108.887 90.749 111.354 88.7155 113.086 86.1089C114.817 83.5024 115.736 80.4402 115.725 77.3109C115.705 73.1416 114.041 69.1486 111.092 66.2004C108.144 63.2522 104.151 61.5874 99.982 61.5679ZM99.982 66.5315C102.125 66.5315 104.22 67.1672 106.002 68.3582C107.784 69.5492 109.173 71.2419 109.993 73.2222C110.813 75.2026 111.027 77.3816 110.608 79.4836C110.189 81.5856 109.156 83.5162 107.64 85.0311C106.124 86.546 104.192 87.5772 102.09 87.9943C99.9877 88.4113 97.8089 88.1954 95.8292 87.3739C93.8496 86.5524 92.158 85.1622 90.9686 83.3792C89.7791 81.5962 89.1452 79.5005 89.1471 77.3572C89.1422 75.9334 89.4191 74.5227 89.962 73.2064C90.5049 71.8902 91.303 70.6944 92.3102 69.6881C93.3174 68.6817 94.5138 67.8847 95.8305 67.343C97.1472 66.8012 98.5582 66.5254 99.982 66.5315Z" fill="#579FD6"/>
<path d="M98.4725 162.332C95.0396 162.327 91.6822 163.34 88.8256 165.244C85.969 167.148 83.7415 169.856 82.4253 173.027C81.109 176.197 80.7632 179.687 81.4315 183.054C82.0999 186.422 83.7525 189.515 86.1799 191.942C88.6073 194.37 91.7004 196.022 95.0676 196.69C98.4348 197.359 101.925 197.013 105.095 195.697C108.266 194.38 110.974 192.153 112.878 189.296C114.782 186.44 115.795 183.082 115.79 179.65C115.78 175.06 113.952 170.661 110.707 167.415C107.461 164.17 103.062 162.342 98.4725 162.332ZM98.4725 167.25C100.928 167.244 103.331 167.967 105.375 169.328C107.42 170.689 109.015 172.625 109.958 174.893C110.901 177.16 111.15 179.657 110.674 182.066C110.197 184.475 109.017 186.689 107.281 188.427C105.546 190.165 103.334 191.349 100.926 191.829C98.5172 192.309 96.0204 192.063 93.7515 191.123C91.4825 190.184 89.5435 188.592 88.1798 186.549C86.8162 184.507 86.0892 182.105 86.0911 179.65C86.0886 178.02 86.408 176.405 87.0309 174.899C87.6537 173.393 88.5678 172.025 89.7207 170.873C90.8736 169.721 92.2427 168.808 93.7493 168.186C95.2559 167.564 96.8704 167.246 98.5002 167.25H98.4725Z" fill="#F27046"/>
<path d="M186.782 109.371C183.063 109.365 179.425 110.463 176.33 112.526C173.235 114.588 170.821 117.522 169.394 120.957C167.967 124.391 167.591 128.172 168.313 131.82C169.035 135.469 170.823 138.821 173.451 141.453C176.079 144.085 179.429 145.878 183.076 146.606C186.724 147.333 190.505 146.963 193.942 145.541C197.378 144.119 200.316 141.709 202.383 138.617C204.45 135.525 205.553 131.889 205.553 128.17C205.543 123.187 203.56 118.411 200.036 114.888C196.513 111.365 191.737 109.381 186.754 109.371H186.782ZM186.782 114.335C189.518 114.335 192.193 115.146 194.468 116.666C196.744 118.187 198.517 120.347 199.564 122.875C200.611 125.404 200.885 128.185 200.351 130.869C199.817 133.553 198.5 136.018 196.565 137.953C194.63 139.888 192.165 141.206 189.481 141.739C186.797 142.273 184.015 141.999 181.487 140.952C178.959 139.905 176.798 138.132 175.278 135.856C173.758 133.581 172.947 130.906 172.947 128.17C172.939 126.351 173.292 124.549 173.985 122.867C174.677 121.185 175.696 119.657 176.982 118.371C178.269 117.084 179.797 116.066 181.479 115.373C183.161 114.68 184.963 114.327 186.782 114.335Z" fill="#EB407A"/>
</g>
<defs>
<clipPath id="clip0_2472_680">
<rect width="256" height="256" fill="white"/>
</clipPath>
</defs>
</svg>
