<svg width="256" height="256" viewBox="0 0 256 256" fill="none" xmlns="http://www.w3.org/2000/svg">
<g clip-path="url(#clip0_776_379)">
<path d="M256 128C256 57.3076 198.692 0 128 0C57.3076 0 0 57.3076 0 128C0 198.692 57.3076 256 128 256C198.692 256 256 198.692 256 128Z" fill="white"/>
<path d="M128.127 222.484L56.8926 157.312L90.2364 67.1329L128.127 34.5469L165.26 61.8283L202.393 157.312L128.127 222.484Z" fill="white"/>
<path fill-rule="evenodd" clip-rule="evenodd" d="M213.072 157.113L216 165.004H207.734H205.4L215.74 165.005L129.87 238L44 165.005H52.7269L52.3031 165.004L44 165.005L47.028 157.113L84.2794 59.9828L130 20L174.088 51.9862L213.072 157.113ZM168.493 59.1883L204.807 157.113H202.589L185.85 146.262L128.907 155.26C130.445 146.86 133.769 128.54 133.769 128.54C133.769 128.54 163.451 88.1059 168.527 81.1663C168.834 80.758 168.537 80.1718 168.035 80.1718H151.394C151.066 80.1718 150.758 80.3289 150.574 80.6011C147.147 85.3526 143.718 90.1088 140.272 94.8893L140.238 94.9363C136.27 100.439 132.28 105.974 128.242 111.573C124.079 101.116 120.029 90.9215 116.031 80.8523C115.877 80.4545 115.498 80.2033 115.087 80.2033H100.661C100.231 80.2033 99.9332 80.6325 100.087 81.051C101.594 85.06 107.951 101.797 107.951 101.797C107.951 101.797 114.329 118.523 117.456 126.75C117.486 126.833 117.517 126.927 117.548 127.021L117.927 128.027C117.927 128.027 114.229 148.541 112.808 156.47L87.4846 133.439L55.407 157.113H55.3295L90.2572 66.0416L124.548 81.7969L126.296 82.6002L127.98 81.6657L168.493 59.1883ZM162.712 53.4142L130.444 30.0031L96.0732 60.0601L125.973 73.7977L162.712 53.4142ZM128.513 157.814L112.945 159.737L122.467 228.727L129.516 234.548L128.513 157.814Z" fill="black"/>
</g>
<defs>
<clipPath id="clip0_776_379">
<rect width="256" height="256" fill="white"/>
</clipPath>
</defs>
</svg>
