<svg width="256" height="256" viewBox="0 0 256 256" fill="none" xmlns="http://www.w3.org/2000/svg">
<path d="M1.26148 110.188C11.0988 40.1923 75.8164 -8.57578 145.812 1.26146C215.808 11.0987 264.577 75.8162 254.738 145.812C244.902 215.807 180.184 264.576 110.188 254.739C40.1924 244.901 -8.57585 180.184 1.26148 110.188Z" fill="#151517"/>
<path fill-rule="evenodd" clip-rule="evenodd" d="M124.816 111.328L115.269 116.923C115.21 116.963 115.141 117.003 115.072 117.043L114.844 117.182V117.192C113.113 118.354 112.084 120.293 112.084 122.41V133.74C112.084 135.867 113.113 137.805 114.844 138.968V139.028L118.207 141.006L124.875 144.872L124.915 144.892C125.884 145.418 126.992 145.707 128.1 145.697C129.208 145.707 130.316 145.418 131.285 144.892L131.315 144.872L137.973 141.015L141.356 139.028V138.968C143.087 137.805 144.116 135.867 144.116 133.74V122.41C144.116 120.293 143.087 118.354 141.356 117.192V117.182L141.128 117.043C141.059 117.003 140.99 116.963 140.921 116.923L131.384 111.328C130.395 110.731 129.247 110.443 128.1 110.463C126.942 110.443 125.805 110.731 124.816 111.328Z" fill="#FEFEFE"/>
<path fill-rule="evenodd" clip-rule="evenodd" d="M165.873 208.96C188.643 208.96 198.182 193.901 207.414 176.666C218.968 155.127 238.522 134.498 223.613 108.453L196.827 63.1055C189.427 53.5392 178.058 48 165.873 48H138.441H118.379H90.947C76.577 48 63.9126 55.4987 56.8046 67.9194L33.4349 108.067C26.1884 120.41 26.1884 136.534 33.4349 148.893L59.2356 192.821C66.6052 203.02 78.3309 208.96 90.947 208.96C115.933 208.96 140.902 208.96 165.873 208.96ZM88.9758 189.349L59.0222 159.617C53.0373 153.738 50.5587 144.45 52.8049 136.365L63.9594 95.569C66.4211 88.348 72.2529 82.9015 79.6994 80.8956C102.147 74.8627 124.608 68.8298 147.056 62.7969C154.502 60.791 162.274 62.5808 168.012 67.6108L168.211 67.5645L198.306 97.652C203.967 103.561 206.322 112.372 204.291 120.318L193.26 161.329L193.059 161.376C190.597 168.612 184.765 174.059 177.334 176.065C154.871 182.082 132.41 188.13 109.947 194.163C102.516 196.154 94.7472 194.364 89.0238 189.349H88.9758Z" fill="url(#paint0_linear_3077_211)"/>
<defs>
<linearGradient id="paint0_linear_3077_211" x1="438.627" y1="-70.776" x2="-97.1205" y2="477.045" gradientUnits="userSpaceOnUse">
<stop stop-color="#00F6D6"/>
<stop offset="1" stop-color="#DCFE86"/>
</linearGradient>
</defs>
</svg>
