<svg width="256" height="256" viewBox="0 0 256 256" fill="none" xmlns="http://www.w3.org/2000/svg">
<g clip-path="url(#clip0_2472_688)">
<path d="M128 230C71.8424 230 26 184.112 26 128C26 71.8424 71.8887 26 128 26C184.159 26 230 71.8887 230 128C230 184.159 184.159 230 128 230Z" fill="white"/>
<path d="M128 256C57.6 256 0 198.4 0 128C0 57.6 57.6 0 128 0C198.4 0 256 57.6 256 128C256 198.4 198.4 256 128 256ZM128 28.4611C73.2611 28.4611 28.4611 73.2611 28.4611 128C28.4611 182.739 73.2611 227.539 128 227.539C182.739 227.539 227.539 182.739 227.539 128C227.539 73.2611 182.739 28.4611 128 28.4611Z" fill="black"/>
<path d="M155 133.712L143.864 144.848H133.624V178H120.952V144.848H110.712L99.704 133.712V89.552H112.376V133.712H142.328V89.552H155V133.712Z" fill="black"/>
</g>
<defs>
<clipPath id="clip0_2472_688">
<rect width="256" height="256" fill="white"/>
</clipPath>
</defs>
</svg>
