<svg width="256" height="256" viewBox="0 0 256 256" fill="none" xmlns="http://www.w3.org/2000/svg">
<g clip-path="url(#clip0_1468_80)">
<mask id="mask0_1468_80" style="mask-type:luminance" maskUnits="userSpaceOnUse" x="0" y="0" width="256" height="256">
<path d="M256 0H0V256H256V0Z" fill="white"/>
</mask>
<g mask="url(#mask0_1468_80)">
<mask id="mask1_1468_80" style="mask-type:luminance" maskUnits="userSpaceOnUse" x="0" y="0" width="256" height="256">
<path d="M256 0H0V256H256V0Z" fill="white"/>
</mask>
<g mask="url(#mask1_1468_80)">
<mask id="mask2_1468_80" style="mask-type:luminance" maskUnits="userSpaceOnUse" x="0" y="0" width="256" height="256">
<path d="M256 0H0V256H256V0Z" fill="white"/>
</mask>
<g mask="url(#mask2_1468_80)">
<path d="M128 256C198.692 256 256 198.692 256 128C256 57.3075 198.692 0 128 0C57.3075 0 0 57.3075 0 128C0 198.692 57.3075 256 128 256Z" fill="#1E1E1E"/>
<path d="M90.3463 36.8887L52.65 58.5345V72.9645L40.0847 80.1803V181.194L128.042 231.7L216 181.194V80.1803L203.435 72.9645V58.5345L165.738 36.8887H90.3463Z" fill="black"/>
<path d="M52.5896 61.1924L90.285 39.5469H165.676L203.371 61.1924V162.203L127.981 205.494L52.5896 162.203V61.1924Z" fill="black"/>
<path fill-rule="evenodd" clip-rule="evenodd" d="M52.5896 46.7606L90.2851 25.1152H165.676L203.372 46.7606V61.191L165.676 39.5455H90.2851L52.5896 61.191V46.7606ZM215.937 68.406V169.418L127.981 219.924L40.0251 169.418V68.406L52.5896 61.191L52.5903 162.203L127.981 205.493L203.372 162.203V61.191L215.937 68.406ZM102.851 75.6214L90.2861 68.4064V111.697L127.982 133.342L165.677 111.697V68.4064L153.112 75.6214V104.482L127.982 118.912L102.851 104.482V75.6214ZM153.112 133.342V147.772L115.416 169.418V154.988L153.112 133.342Z" fill="url(#paint0_linear_1468_80)"/>
</g>
</g>
</g>
</g>
<defs>
<linearGradient id="paint0_linear_1468_80" x1="42.7127" y1="59.9372" x2="109.65" y2="229.724" gradientUnits="userSpaceOnUse">
<stop stop-color="#FFE600"/>
<stop offset="0.21875" stop-color="#FDFF85"/>
<stop offset="0.479167" stop-color="#66F6FF"/>
<stop offset="1" stop-color="#CD9BFF"/>
</linearGradient>
<clipPath id="clip0_1468_80">
<rect width="256" height="256" fill="white"/>
</clipPath>
</defs>
</svg>
