<svg width="256" height="257" viewBox="0 0 256 257" fill="none" xmlns="http://www.w3.org/2000/svg">
<mask id="mask0_2472_705" style="mask-type:luminance" maskUnits="userSpaceOnUse" x="0" y="0" width="256" height="257">
<path d="M0 0H256V256.033H0V0Z" fill="white"/>
</mask>
<g mask="url(#mask0_2472_705)">
<path d="M256 128.016C256 198.729 198.696 256.033 128 256.033C57.304 256.033 0 198.713 0 128.016C0 57.3193 57.304 0 128 0C198.696 0 256 57.3193 256 128.016Z" fill="#104499"/>
<path fill-rule="evenodd" clip-rule="evenodd" d="M165.729 84.2587L111.809 132.185C105.489 136.765 97.8768 139.216 90.0725 139.186C80.2234 139.186 70.7778 135.273 63.8134 128.307C56.8491 121.342 52.9365 111.895 52.9365 102.045C52.9365 92.1947 56.8491 82.7478 63.8134 75.7825C70.7778 68.8173 80.2234 64.9043 90.0725 64.9043C108.553 64.9043 117.961 75.3616 122.585 83.9947L107.785 96.1563C104.049 87.4511 98.7045 83.4826 90.0725 83.4826C85.1459 83.4826 80.421 85.44 76.9373 88.9241C73.4536 92.4082 71.4965 97.1337 71.4965 102.061C71.4965 106.988 73.4536 111.714 76.9373 115.198C80.421 118.682 85.1459 120.639 90.0725 120.639C94.4005 120.639 99.4805 118.199 102.633 115.703L151.785 71.5531C166.825 59.6876 180.792 61.5758 189.344 64.8082L171.305 79.6901C169.529 81.0503 167.689 82.5305 165.729 84.2587ZM89.5365 171.782L143.457 123.856C149.774 119.278 157.383 116.826 165.185 116.855C175.034 116.855 184.479 120.768 191.444 127.733C198.408 134.698 202.321 144.145 202.321 153.996C202.321 163.846 198.408 173.293 191.444 180.258C184.479 187.223 175.034 191.136 165.185 191.136C146.697 191.136 137.289 180.679 132.673 172.054L147.473 159.884C151.201 168.59 156.553 172.558 165.185 172.558C170.111 172.558 174.836 170.601 178.32 167.117C181.803 163.632 183.76 158.907 183.76 153.98C183.76 149.052 181.803 144.327 178.32 140.843C174.836 137.359 170.111 135.401 165.185 135.401C160.849 135.401 155.776 137.842 152.624 140.338L103.489 184.488C88.4405 196.353 74.4805 194.465 65.9285 191.232L83.9685 176.351C85.7445 174.99 87.5845 173.51 89.5365 171.782Z" fill="white"/>
</g>
</svg>
