<svg width="256" height="256" viewBox="0 0 256 256" fill="none" xmlns="http://www.w3.org/2000/svg">
<g clip-path="url(#clip0_741_46)">
<circle cx="128" cy="128" r="128" fill="white"/>
<path d="M117.195 152.473L119.509 217.604C77.407 213.79 50.0477 179.907 56.8875 126.492C58.4932 113.934 61.9131 101.713 66.6676 90.5874C66.6676 90.5874 91.6704 129.758 117.195 152.473Z" fill="#47DBA7"/>
<path d="M171.287 65.7441C157.107 91.5351 142.531 113.259 127.746 130.538C112.815 115.809 96.8626 95.1173 79.3669 67.8091C91.7954 50.4887 107.915 39.026 124.701 38.4149C139.32 37.8882 156.794 48.6765 171.287 65.7441Z" fill="#47DBA7"/>
<path d="M142.532 216.78L140.217 151.418C155.773 134.181 171.058 112.605 185.864 86.9614C191.641 97.5393 196.124 109.212 198.564 121.371C209.157 174.154 184.238 209.953 142.532 216.78Z" fill="#47DBA7"/>
</g>
<defs>
<clipPath id="clip0_741_46">
<rect width="256" height="256" fill="white"/>
</clipPath>
</defs>
</svg>
