<svg width="1133" height="1133" viewBox="0 0 1133 1133" fill="none" xmlns="http://www.w3.org/2000/svg">
<circle cx="566.5" cy="566.5" r="566.5" fill="url(#paint0_linear_484_7)"/>
<g clip-path="url(#clip0_484_7)">
<path d="M-23.1582 182.045C268.93 404.239 868.149 404.239 1160.24 182.045V78.8594C868.149 375.044 268.93 375.044 -23.1582 78.8594C-23.1582 113.18 -23.1582 147.501 -23.1582 182.045Z" fill="white"/>
<path d="M-23.1582 400.102C268.93 492.813 868.149 492.813 1160.24 400.102V296.917C868.149 463.395 268.93 463.395 -23.1582 296.917C-23.1582 331.237 -23.1582 365.558 -23.1582 400.102Z" fill="white"/>
<path d="M-23.1582 618.035C268.93 581.039 868.149 581.039 1160.24 618.035V514.849C868.149 551.845 268.93 551.845 -23.1582 514.849C-23.1582 549.17 -23.1582 583.491 -23.1582 618.035Z" fill="white"/>
<path d="M-23.1582 836.175C268.93 669.697 868.149 669.697 1160.24 836.175V732.99C868.149 640.279 268.93 640.279 -23.1582 732.99C-23.1582 767.311 -23.1582 801.632 -23.1582 836.175Z" fill="white"/>
<path d="M-23.1582 1054.14C268.93 757.956 868.149 757.956 1160.24 1054.14V950.955C868.149 728.761 268.93 728.761 -23.1582 950.955C-23.1582 985.276 -23.1582 1019.6 -23.1582 1054.14Z" fill="white"/>
<path fill-rule="evenodd" clip-rule="evenodd" d="M238.607 433.202H303.494V592.514H238.607V433.202ZM887.476 719.963H822.589V592.514H887.476V719.963Z" fill="white"/>
<path fill-rule="evenodd" clip-rule="evenodd" d="M-25.1582 183.037V73.9834L-21.7342 77.4554C123.843 225.075 346.103 298.998 568.539 298.998C790.976 298.998 1013.24 225.075 1158.81 77.4554L1162.24 73.9834V183.037L1161.45 183.637C1014.94 295.09 791.624 350.691 568.539 350.691C345.455 350.691 122.143 295.09 -24.3691 183.637L-25.1582 183.037ZM-25.1582 401.566V293.475L-22.1679 295.179C123.452 378.177 345.885 419.776 568.539 419.776C791.194 419.776 1013.63 378.177 1159.25 295.179L1162.24 293.475V401.566L1160.84 402.009C1014.51 448.455 791.449 471.636 568.539 471.636C478.529 471.636 388.493 467.856 303.494 460.291V458.283C598.756 484.582 955.181 465.189 1160.24 400.102V296.917C1159.57 297.296 1158.91 297.674 1158.24 298.052C866.09 463.017 270.989 463.017 -21.1582 298.052C-21.8265 297.674 -22.4931 297.296 -23.1582 296.917V400.102C48.5971 422.878 138.888 440.059 238.607 451.644V453.657C138.692 442.06 48.1882 424.847 -23.7633 402.009L-25.1582 401.566ZM238.607 533.415C237.94 533.384 237.273 533.353 236.607 533.322ZM236.607 537.326V533.322C137.773 528.703 48.2968 521.884 -22.9069 512.866L-25.1582 512.58V620.304L-22.9069 620.019C179.056 594.439 528.024 586.556 820.589 596.371V671.678C739.436 664.863 653.977 661.457 568.539 661.457C345.63 661.457 122.567 684.638 -23.7633 731.084L-25.1582 731.527V839.618L-22.1679 837.913C123.452 754.916 345.885 713.317 568.539 713.317C791.194 713.317 1013.63 754.916 1159.25 837.913L1162.24 839.618V731.527L1160.84 731.084C1086.74 707.563 992.954 690.008 889.476 678.409V599.06C992.668 603.681 1086.15 610.668 1159.99 620.019L1162.24 620.304V512.58L1159.99 512.866C955.486 538.767 600.266 546.524 305.494 536.136M305.494 540.138V536.136C304.827 536.112 304.161 536.089 303.494 536.065V538.066C597.798 548.526 952.87 540.872 1158.24 515.102C1158.91 515.018 1159.57 514.934 1160.24 514.85V618.035C1159.57 617.951 1158.91 617.867 1158.24 617.783C1084.17 608.488 990.621 601.551 887.476 596.969V598.971C888.143 599 888.81 599.03 889.476 599.06V595.057C991.805 599.636 1084.61 606.54 1158.24 615.767M238.607 533.415V535.417C139.812 530.837 50.2717 524.065 -21.1582 515.102C-21.8265 515.018 -22.4931 514.934 -23.1582 514.85V618.035C-22.4931 617.951 -21.8265 617.867 -21.1582 617.783C181.658 592.333 530.482 584.551 822.589 594.437V596.438C821.923 596.416 821.256 596.393 820.589 596.371M820.589 675.692V671.678C821.256 671.734 821.923 671.79 822.589 671.847V673.854C529.52 648.998 179.359 668.71 -23.1582 732.99V836.176C-22.4931 835.797 -21.8265 835.419 -21.1582 835.041C270.989 670.076 866.09 670.076 1158.24 835.041C1158.91 835.419 1159.57 835.797 1160.24 836.176V732.99C1085.85 709.38 991.552 691.783 887.476 680.198V678.186C888.143 678.26 888.81 678.335 889.476 678.409V682.434M889.476 595.057C888.145 594.997 886.811 594.938 885.476 594.879ZM236.607 537.326C237.939 537.388 239.272 537.45 240.607 537.511ZM-25.1582 1059.02V1054.14H-23.1582L-21.7342 1055.55L-25.1582 1059.02ZM1160.24 1054.14L1158.81 1055.55L1162.24 1059.02V1054.14H1160.24ZM1162.24 950.955H1160.24L1161.45 949.364L1162.24 949.964V950.955ZM-24.3691 949.364L-23.1582 950.955H-25.1582V949.964L-24.3691 949.364ZM-23.1582 182.045C268.93 404.239 868.149 404.239 1160.24 182.045V78.8598C1159.57 79.5342 1158.91 80.207 1158.24 80.8784C866.09 374.371 270.989 374.371 -21.1582 80.8784C-21.8265 80.207 -22.4931 79.5342 -23.1582 78.8598V182.045Z" fill="white"/>
</g>
<defs>
<linearGradient id="paint0_linear_484_7" x1="919.971" y1="954.687" x2="-128.237" y2="382.056" gradientUnits="userSpaceOnUse">
<stop stop-color="#00F3FA"/>
<stop offset="1" stop-color="#6C40DE"/>
</linearGradient>
<clipPath id="clip0_484_7">
<rect x="246.167" y="100.991" width="640.666" height="931.017" fill="white"/>
</clipPath>
</defs>
</svg>
