<svg width="256" height="256" viewBox="0 0 256 256" fill="none" xmlns="http://www.w3.org/2000/svg">
<g clip-path="url(#clip0_741_46)">
<path d="M256 128C256 198.692 198.692 256 128 256C57.3075 256 0 198.692 0 128C0 57.3075 57.3075 0 128 0C198.692 0 256 57.3075 256 128Z" fill="black"/>
<path d="M92.783 106.964C77.6207 107.36 65.1342 96.1546 63.5736 81.4637C63.4249 79.7562 64.7627 78.3075 66.3978 78.2647L71.6006 78.1284C73.3099 78.0836 74.6478 79.3134 74.945 80.9426C76.3572 89.4622 83.7896 95.8896 92.783 95.6541C101.776 95.4185 109.208 88.6764 110.621 80.0083C110.918 78.3636 112.256 77.0639 113.965 77.0191L119.168 76.8828C120.877 76.8381 122.215 78.2912 121.992 79.9337C120.431 94.7068 107.871 106.568 92.783 106.964Z" fill="url(#paint0_linear_741_46)"/>
<path d="M189.257 98.7091L184.055 98.8451C182.344 98.8899 181.006 97.6601 180.71 96.0311C179.298 87.5116 171.865 81.0842 162.872 81.3197C153.878 81.5552 146.446 88.2974 145.034 96.9652C144.737 98.6099 143.399 99.9099 141.689 99.9547L136.486 100.091C134.777 100.135 133.439 98.6826 133.662 97.0398C135.223 82.2668 147.709 70.4072 162.872 70.0102C178.034 69.613 190.52 80.8189 192.082 95.5101C192.228 97.1429 190.891 98.6663 189.257 98.7091Z" fill="url(#paint1_linear_741_46)"/>
<path d="M60.527 130.429C59.4122 130.459 58.5945 131.447 58.6689 132.487C60.9728 153.483 72.7163 171.33 89.5136 182.051V129.67L60.527 130.429Z" fill="#FF0B4A"/>
<path d="M89.5146 129.672V182.052C99.9946 188.772 112.481 192.612 125.934 192.632V128.718L89.5146 129.672Z" fill="#FF9C00"/>
<path d="M125.933 192.63C126.527 192.615 127.196 192.672 127.791 192.656C140.352 192.327 152.169 188.67 162.277 182.527V127.765L125.858 128.719V192.632L125.933 192.63Z" fill="#F6C900"/>
<path d="M197.025 128.705C197.174 127.577 196.278 126.701 195.153 126.731L162.153 127.595V182.741C181.161 171.304 194.556 151.472 197.025 128.705Z" fill="#00E586"/>
<path d="M129.202 203.928C84.0133 205.855 47 169.027 47 123.715V122.375C47 120.813 48.2635 119.515 49.8242 119.474L205.757 115.391C207.318 115.35 208.582 116.582 208.582 118.144V120.972C208.656 165.091 173.128 202.033 129.202 203.928ZM60.5269 130.429C59.4121 130.458 58.5945 131.447 58.6688 132.486C62.5338 167.132 92.0403 193.517 127.79 192.581C163.54 191.644 193.047 163.714 196.911 128.866C197.06 127.746 196.168 126.877 195.054 126.906L60.5269 130.429Z" fill="url(#paint2_linear_741_46)"/>
</g>
<defs>
<linearGradient id="paint0_linear_741_46" x1="122.017" y1="76.8082" x2="86.0444" y2="114.81" gradientUnits="userSpaceOnUse">
<stop stop-color="white"/>
<stop offset="0.394547" stop-color="#EAEAEA"/>
<stop offset="0.458988" stop-color="#ECE9DD"/>
<stop offset="0.589717" stop-color="#EEEEEB"/>
<stop offset="1" stop-color="#EBEAE6"/>
</linearGradient>
<linearGradient id="paint1_linear_741_46" x1="192.093" y1="69.2451" x2="156.12" y2="107.247" gradientUnits="userSpaceOnUse">
<stop stop-color="white"/>
<stop offset="0.394547" stop-color="#EAEAEA"/>
<stop offset="0.458988" stop-color="#ECE9DD"/>
<stop offset="0.589717" stop-color="#EEEEEB"/>
<stop offset="1" stop-color="#EBEAE6"/>
</linearGradient>
<linearGradient id="paint2_linear_741_46" x1="208.582" y1="115.317" x2="102.5" y2="220.338" gradientUnits="userSpaceOnUse">
<stop stop-color="white"/>
<stop offset="0.394547" stop-color="#EAEAEA"/>
<stop offset="0.458988" stop-color="#ECE9DD"/>
<stop offset="0.589717" stop-color="#EEEEEB"/>
<stop offset="1" stop-color="#EBEAE6"/>
</linearGradient>
<clipPath id="clip0_741_46">
<rect width="256" height="256" fill="white"/>
</clipPath>
</defs>
</svg>
