<svg width="256" height="256" viewBox="0 0 256 256" fill="none" xmlns="http://www.w3.org/2000/svg">
<path d="M1.26148 110.188C11.0988 40.1923 75.8164 -8.57578 145.812 1.26146C215.808 11.0987 264.577 75.8162 254.738 145.812C244.902 215.807 180.184 264.576 110.188 254.739C40.1924 244.901 -8.57585 180.184 1.26148 110.188Z" fill="#00493D"/>
<path d="M94.4785 169.415V149.618L134.864 108.21V103.748H96.1354V84.6187H161.842V106.725L123.609 145.659V150.268H163.499V169.405L94.4785 169.415Z" fill="#FFE400"/>
<path d="M186.318 193.507H196.835C213.032 175.618 221.999 152.348 221.999 128.217C221.999 104.086 213.032 80.8164 196.835 62.9268H186.318C187.095 64.8534 199.852 97.5906 199.852 128.217C199.852 158.844 187.095 191.581 186.318 193.507Z" fill="#FFE400"/>
<path d="M70.0117 62.9268H59.4947C43.3001 80.8164 34.332 104.086 34.332 128.217C34.332 152.348 43.3001 175.618 59.4947 193.507H70.0117C69.2347 191.581 56.4785 158.844 56.4785 128.217C56.4785 97.5906 69.224 64.8534 70.0117 62.9268Z" fill="#FFE400"/>
</svg>
