<svg width="256" height="256" viewBox="0 0 256 256" fill="none" xmlns="http://www.w3.org/2000/svg">
<g clip-path="url(#clip0_2286_507)">
<path d="M128 0C153.316 0 178.064 7.50707 199.113 21.5719C220.162 35.6367 236.569 55.6276 246.257 79.0165C255.945 102.405 258.479 128.142 253.541 152.972C248.602 177.801 236.411 200.609 218.51 218.51C200.609 236.411 177.801 248.602 152.972 253.541C128.142 258.479 102.405 255.945 79.0165 246.257C55.6276 236.569 35.6367 220.162 21.5719 199.113C7.50707 178.064 0 153.316 0 128C0 94.0523 13.4857 61.495 37.4903 37.4903C61.495 13.4857 94.0523 0 128 0Z" fill="#F3B724"/>
<path d="M116.543 51.2V71.4673H82.708V95.8857H135.208L82.708 165.313V183.694H116.543V203.831H137.334V183.694H171.166V159.275H118.67L171.166 89.8481V71.4673H137.334V51.2H116.543Z" fill="white"/>
</g>
<defs>
<clipPath id="clip0_2286_507">
<rect width="256" height="256" fill="white"/>
</clipPath>
</defs>
</svg>
