<svg width="256" height="256" viewBox="0 0 256 256" fill="none" xmlns="http://www.w3.org/2000/svg">
<g clip-path="url(#clip0_2297_640)">
<path d="M128 256C198.692 256 256 198.692 256 128C256 57.3076 198.692 0 128 0C57.3076 0 0 57.3076 0 128C0 198.692 57.3076 256 128 256Z" fill="#005741"/>
<path d="M161.236 156.293V173.581H89.9206C90.9044 162.203 94.5757 154.198 107.272 142.941L161.236 96.9044V137.303H180.662V62.979H70.2027V100.027H89.6283V82.4047H148.311L94.6114 128.235L94.4829 128.356C71.9777 148.282 70.1885 164.363 70.1885 183.311V193.02H180.668V156.308H161.243L161.236 156.293Z" fill="white"/>
</g>
<defs>
<clipPath id="clip0_2297_640">
<rect width="256" height="256" fill="white"/>
</clipPath>
</defs>
</svg>
