<svg width="256" height="256" viewBox="0 0 256 256" fill="none" xmlns="http://www.w3.org/2000/svg">
<g clip-path="url(#clip0_1636_226)">
<path d="M0 128C0 198.692 57.3075 256 128 256C198.692 256 256 198.692 256 128C256 57.3075 198.692 0 128 0C57.3075 0 0 57.3075 0 128Z" fill="black"/>
<path d="M127.999 49C122.059 49.0295 116.184 50.2289 110.708 52.5299C105.232 54.8309 100.263 58.1887 96.0841 62.4109C91.9055 66.6331 88.5994 71.6373 86.3545 77.1376C84.1096 82.638 82.97 88.5269 83.0006 94.4679V109.486H119.562V87.7277C119.561 86.7058 119.762 85.6939 120.153 84.7497C120.544 83.8056 121.117 82.9477 121.839 82.2251C122.561 81.5024 123.419 80.9295 124.363 80.5385C125.306 80.1475 126.318 79.9464 127.34 79.9466H128.658C129.679 79.9464 130.691 80.1475 131.635 80.5385C132.579 80.9295 133.436 81.5024 134.159 82.2251C134.881 82.9477 135.454 83.8056 135.845 84.7497C136.236 85.6939 136.437 86.7058 136.437 87.7277V146.057C141.238 146.057 145.993 145.111 150.429 143.274C154.864 141.436 158.895 138.742 162.29 135.346C165.685 131.95 168.378 127.919 170.216 123.482C172.053 119.045 172.998 114.289 172.998 109.486V94.4679C173.024 82.4307 168.285 70.8724 159.818 62.3195C155.663 58.0988 150.71 54.7475 145.247 52.4607C139.784 50.174 133.921 48.9975 127.999 49Z" fill="#F2F2F2"/>
<path d="M128.658 176.129H127.34C126.318 176.129 125.307 175.927 124.363 175.535C123.419 175.144 122.562 174.569 121.84 173.845C121.117 173.121 120.544 172.262 120.154 171.316C119.763 170.37 119.562 169.356 119.562 168.332V109.881C114.761 109.88 110.007 110.828 105.571 112.669C101.135 114.511 97.1045 117.21 93.7095 120.613C90.3146 124.016 87.6216 128.057 85.7844 132.503C83.9473 136.949 83.0019 141.715 83.0024 146.528V161.368C82.9415 167.331 84.0604 173.246 86.2944 178.772C88.5283 184.298 91.8331 189.325 96.0175 193.563C100.202 197.8 105.183 201.164 110.672 203.46C116.162 205.756 122.051 206.938 127.999 206.938C133.948 206.938 139.837 205.756 145.326 203.46C150.816 201.164 155.797 197.8 159.981 193.563C164.166 189.325 167.47 184.298 169.704 178.772C171.939 173.246 173.057 167.331 172.996 161.368V146.528H136.437V168.332C136.437 169.356 136.235 170.37 135.845 171.316C135.454 172.262 134.88 173.122 134.158 173.845C133.436 174.57 132.578 175.144 131.634 175.535C130.691 175.927 129.679 176.129 128.658 176.129Z" fill="#F2F2F2"/>
</g>
<defs>
<clipPath id="clip0_1636_226">
<rect width="256" height="256" fill="white"/>
</clipPath>
</defs>
</svg>
