<svg width="256" height="256" viewBox="0 0 256 256" fill="none" xmlns="http://www.w3.org/2000/svg">
<g clip-path="url(#clip0_741_46)">
<path d="M256 128C256 198.692 198.692 256 128 256C57.3075 256 0 198.692 0 128C0 57.3075 57.3075 0 128 0C198.692 0 256 57.3075 256 128Z" fill="black"/>
<mask id="mask0_741_46" style="mask-type:luminance" maskUnits="userSpaceOnUse" x="14" y="11" width="229" height="233">
<path d="M243 11.8589H14V243.553H243V11.8589Z" fill="white"/>
</mask>
<g mask="url(#mask0_741_46)">
<path d="M128.519 11.8591C101.605 11.8148 75.5372 21.3778 54.9052 38.8647H202.114C181.491 21.3748 155.428 11.8111 128.519 11.8591ZM128.519 243.553C155.18 243.603 181.017 234.215 201.555 217.016H55.4646C76.0114 234.212 101.854 243.6 128.519 243.553ZM183.175 70.6704H228.343C224.622 64.038 220.268 57.7901 215.344 52.0163H41.7716C34.5295 60.4607 28.5397 69.9259 23.99 80.1146H176.522L183.175 70.6704ZM127.42 134.516H14.0193C14.5631 144.061 16.2799 153.499 19.13 162.614H116.812L123.544 153.033H240.435C241.782 146.941 242.64 140.749 243 134.516H127.42ZM152.935 111.842H242.132C241.288 105.519 239.921 99.2793 238.044 93.1879H18.9758C16.1726 102.309 14.5012 111.748 14 121.286H146.301L152.935 111.842ZM42.0995 203.864H87.5175L94.152 194.42H222.268C226.38 188.553 229.938 182.308 232.894 175.766H24.1443C28.7508 185.964 34.7992 195.429 42.0995 203.864Z" fill="white"/>
</g>
</g>
<defs>
<clipPath id="clip0_741_46">
<rect width="256" height="256" fill="white"/>
</clipPath>
</defs>
</svg>
