<svg width="256" height="256" viewBox="0 0 256 256" fill="none" xmlns="http://www.w3.org/2000/svg">
<g clip-path="url(#clip0_1958_3356)">
<path d="M128 256C198.692 256 256 198.692 256 128C256 57.3076 198.692 0 128 0C57.3076 0 0 57.3076 0 128C0 198.692 57.3076 256 128 256Z" fill="url(#paint0_linear_1958_3356)"/>
<path d="M195.119 18.9043C209.471 27.7528 221.88 39.299 231.7 52.8955C241.52 66.492 248.642 81.923 252.526 98.3251C256.411 114.727 257.059 131.669 254.361 148.287C251.663 164.905 245.836 180.767 236.987 195.119C228.139 209.471 216.593 221.881 202.996 231.7C189.4 241.52 173.969 248.642 157.567 252.527C141.165 256.411 124.223 257.059 107.605 254.361C90.9869 251.664 75.1243 245.729 60.7725 236.988L127.892 127.892L195.119 18.9043Z" fill="url(#paint1_linear_1958_3356)"/>
<path d="M60.8808 237.096C46.5289 228.247 34.1194 216.701 24.2997 203.105C14.48 189.508 7.35801 174.077 3.47328 157.675C-0.411439 141.273 -1.05889 124.331 1.63883 107.713C4.33654 91.0952 10.2715 75.2326 19.0121 60.8808C27.8606 46.5289 39.4069 34.1194 53.0034 24.2997C66.5999 14.48 82.0308 7.35801 98.433 3.47328C114.835 -0.411439 131.777 -1.05889 148.395 1.63883C165.013 4.33654 180.875 10.2715 195.227 19.0121L128.108 128.108L60.8808 237.096Z" fill="url(#paint2_linear_1958_3356)"/>
<path d="M204.459 153.285C202.733 148.321 197.445 145.624 192.481 147.458L152.447 161.702L140.901 124.689L179.424 63.6131C181.583 60.16 181.367 55.7358 178.993 52.6064C176.511 49.3691 172.41 48.1821 168.633 49.477L122.341 65.1238L115.327 42.5709C113.708 37.4992 108.42 34.8015 103.457 36.4201C98.4927 38.0387 95.795 43.4342 97.3058 48.5059L104.428 71.2746L74.1054 81.526C69.1416 83.2525 66.4439 88.648 68.0625 93.6118C69.6812 98.5756 74.9687 101.381 79.9325 99.6546L110.039 89.4033L120.182 121.992L76.911 190.514C74.7529 193.967 74.9687 198.391 77.4506 201.628C78.9613 203.571 81.0116 204.758 83.1697 205.082C84.6805 205.297 86.2991 205.189 87.9177 204.65L140.146 186.09L144.678 200.549C145.757 204.11 148.67 206.484 152.016 207.024C153.418 207.24 155.037 207.24 156.548 206.7C161.512 205.081 164.209 199.686 162.699 194.614L158.058 179.723L198.524 165.371C203.596 163.752 206.186 158.249 204.459 153.285ZM127.952 83.3604L149.21 76.1305L133.563 101.057L127.952 83.3604ZM107.557 177.565L127.628 145.732L134.534 167.961L107.557 177.565Z" fill="white"/>
</g>
<defs>
<linearGradient id="paint0_linear_1958_3356" x1="189.421" y1="25.0374" x2="97.1858" y2="179.655" gradientUnits="userSpaceOnUse">
<stop stop-color="#FAC20D"/>
<stop offset="1" stop-color="#FDA803"/>
</linearGradient>
<linearGradient id="paint1_linear_1958_3356" x1="244.786" y1="61.2386" x2="149.286" y2="213.39" gradientUnits="userSpaceOnUse">
<stop stop-color="#FAC207"/>
<stop offset="1" stop-color="#FC9408"/>
</linearGradient>
<linearGradient id="paint2_linear_1958_3356" x1="139.418" y1="-10.372" x2="33.668" y2="159.045" gradientUnits="userSpaceOnUse">
<stop stop-color="#FD7103"/>
<stop offset="1" stop-color="#FC9404"/>
</linearGradient>
<clipPath id="clip0_1958_3356">
<rect width="256" height="256" fill="white"/>
</clipPath>
</defs>
</svg>
