<svg width="785" height="141" viewBox="0 0 785 141" fill="none" xmlns="http://www.w3.org/2000/svg">
<path d="M6.44781 101.5H12.9827C12.6342 97.7533 12.5471 94.0937 12.5471 90.1728V73.3562H27.7081C39.2968 73.3562 47.9229 66.2985 47.9229 55.9297C47.9229 46.0837 39.7324 39.2002 28.0567 39.2002H6.44781V101.5ZM12.5471 68.4768V44.1668H27.2725C35.3758 44.1668 41.3008 48.8719 41.3008 55.9297C41.3008 63.3359 35.2887 68.4768 26.924 68.4768H12.5471ZM71.4276 102.72C84.4975 102.72 91.7295 91.2184 91.7295 77.7128C91.7295 64.4687 84.2361 52.88 71.4276 52.88C58.2706 52.88 51.0386 64.2073 51.0386 77.7128C51.0386 91.2184 58.1834 102.72 71.4276 102.72ZM57.0507 77.8C57.0507 66.647 62.1915 57.4981 71.4276 57.4981C80.5765 57.4981 85.7173 66.647 85.7173 77.7128C85.7173 88.9529 80.4894 98.1018 71.4276 98.1018C62.1915 98.1018 57.0507 89.1272 57.0507 77.8ZM108.572 101.5H114.758L126.521 62.2904L138.11 101.5H144.471L157.366 54.0999H151.703C151.441 57.0624 151.005 59.3279 150.221 62.4646L144.209 84.9448L141.682 94.7908C141.682 94.7908 140.55 90.4342 138.981 85.1191L129.658 54.0999H124.43L115.107 84.7706C113.451 90.0856 112.231 94.5294 112.231 94.5294C112.231 94.5294 111.186 90.0856 109.705 84.7706L101.427 54.0999H95.6763L108.572 101.5ZM181.528 102.72C189.893 102.72 196.428 97.7533 200.959 89.3886L196.428 85.729C194.598 92.264 189.196 98.1018 181.528 98.1018C173.512 98.1018 167.326 90.8698 167.326 78.6713V78.0613H200.349C200.349 62.5518 193.466 52.88 181.703 52.88C169.853 52.88 161.401 63.5102 161.401 78.8455C161.401 94.9651 170.985 102.72 181.528 102.72ZM167.674 73.4433C169.068 63.6845 174.296 57.4981 181.703 57.4981C189.37 57.4981 194.075 64.4687 194.598 73.4433H167.674ZM209.202 101.5H215.127C214.865 97.7533 214.778 94.0066 214.778 90.1728V77.0158C214.778 67.344 219.832 58.5437 224.014 58.5437C226.106 58.5437 227.325 59.3279 228.807 61.1576L231.159 55.494C229.591 53.49 228.11 52.88 225.844 52.88C221.662 52.88 217.218 57.9337 214.778 65.1657V54.0999H209.202V101.5ZM252.409 102.72C260.773 102.72 267.308 97.7533 271.839 89.3886L267.308 85.729C265.479 92.264 260.076 98.1018 252.409 98.1018C244.392 98.1018 238.206 90.8698 238.206 78.6713V78.0613H271.229C271.229 62.5518 264.346 52.88 252.583 52.88C240.733 52.88 232.281 63.5102 232.281 78.8455C232.281 94.9651 241.866 102.72 252.409 102.72ZM238.555 73.4433C239.949 63.6845 245.177 57.4981 252.583 57.4981C260.251 57.4981 264.956 64.4687 265.479 73.4433H238.555ZM296.55 102.72C303.172 102.72 308.836 98.1018 311.711 91.1312V101.5H317.636C317.375 97.7533 317.288 94.0066 317.288 90.1728V39.2002H311.711V64.3815C308.836 57.4981 303.259 52.88 296.637 52.88C285.31 52.88 277.294 63.1617 277.294 77.8C277.294 92.5253 285.223 102.72 296.55 102.72ZM283.306 77.8C283.306 66.0371 289.231 57.6723 297.596 57.6723C305.438 57.6723 311.711 65.4271 311.711 75.0988V80.3268C311.711 90.0856 305.525 97.8404 297.596 97.8404C289.231 97.8404 283.306 89.65 283.306 77.8ZM367.526 102.72C378.854 102.72 386.87 92.4382 386.87 77.8C386.87 63.0746 378.941 52.88 367.613 52.88C360.991 52.88 355.328 57.4981 352.54 64.4687V39.2002H346.963V101.5H352.54V91.2184C355.328 98.1018 360.991 102.72 367.526 102.72ZM352.54 80.5011V75.2731C352.54 65.5143 358.726 57.6723 366.568 57.6723C374.933 57.6723 380.858 65.9499 380.858 77.8C380.858 89.5628 374.933 97.8404 366.568 97.8404C358.726 97.8404 352.54 90.1728 352.54 80.5011ZM396.964 119.711C403.586 119.711 407.594 114.57 409.947 107.948L429.029 54.0999H423.278C422.581 57.4109 422.058 59.2407 420.926 62.4646L412.91 85.032C411.08 90.2599 409.511 94.5294 409.511 94.5294C409.511 94.5294 408.379 90.2599 406.549 85.032L396.006 54.0999H390.081L406.723 102.458L405.068 107.251C403.586 111.346 401.059 114.831 396.877 114.831C394.176 114.831 392.695 113.96 391.126 112.566L389.819 117.707C392.172 119.101 394.612 119.711 396.964 119.711Z" fill="white"/>
<g clip-path="url(#clip0_1046_5674)">
<path d="M610.216 59.9673L610.202 59.8771L609.813 59.8912C609.813 59.8912 609.804 60.0096 609.802 60.0209L609.672 60.0265C609.503 62.2148 609.144 64.2932 608.609 66.2023C607.295 70.9033 605.092 75.6521 602.41 79.5748C599.444 83.9176 595.989 87.1352 592.419 88.8808C590.191 89.9721 587.983 90.773 585.857 91.2608C584.207 91.6331 582.58 91.8192 581.026 91.8192C575.64 91.8192 570.705 89.5519 566.751 85.2655C560.64 78.6357 557.101 67.2401 557.945 56.9048C558.238 53.2895 558.816 49.9253 559.374 46.6738C560.561 39.7705 561.585 33.809 559.67 27.5768C558.644 24.2379 556.475 21.6491 553.559 20.2843C551.574 19.3537 549.501 18.8827 547.395 18.8827C540.624 18.8827 535.038 23.6513 532.314 27.7347C528.154 33.9697 526.081 41.8206 526.631 49.271C527.144 56.2449 529.561 60.8415 533.188 67.0652C535.007 70.1842 536.902 72.9393 538.577 75.373C541.408 79.4902 543.853 83.0462 545.06 86.9462C546.732 92.3522 545.57 94.9522 544.992 95.8208C544.279 96.8924 543.134 97.51 541.586 97.6566C541.388 97.6763 541.194 97.6848 541.005 97.6848C536.278 97.6848 536.188 91.2326 536.135 87.3749V87.2875C536.132 87.0337 536.126 86.7911 536.123 86.5599C535.963 79.0051 533.061 74.4903 529.384 68.7713C527.077 65.1843 524.463 61.1207 522.167 55.585C518.496 46.7415 517.573 38.211 519.429 30.2332C519.494 29.9484 519.564 29.6636 519.638 29.3759C521.891 20.4958 527.46 9.1227 541.188 5.37492C543.788 4.66428 546.459 4.30332 549.124 4.30332C557.194 4.30332 564.225 7.62528 568.41 13.4147C571.796 18.0988 573.542 23.4088 573.751 29.6467C573.801 31.13 573.762 32.6838 573.635 34.2658C573.339 37.8331 572.583 41.7445 571.328 46.2198C568.79 55.2664 568.175 62.9311 569.504 68.9969C570.522 73.6499 572.747 77.1947 575.606 78.7203C577.924 79.9555 580.395 80.5815 582.947 80.5815C589.466 80.5815 595.405 76.422 598.4 72.302C603.11 65.8216 605.591 54.395 605.185 47.5226C605.036 45.0016 604.821 42.8668 604.525 40.9774L604.517 40.9492L604.511 40.9351C598.939 28.8853 590.101 18.6712 578.954 11.3984C567.518 3.94518 554.219 0 540.5 0C521.668 0 503.964 7.332 490.648 20.648C477.335 33.9641 470 51.668 470 70.5C470 75.9736 470.632 81.4331 471.881 86.7319L471.904 86.825L472.295 86.7686C472.295 86.7686 472.29 86.653 472.287 86.6445L472.417 86.6248C472.174 82.4286 472.555 78.3875 473.519 74.9387C474.833 70.2406 477.036 65.4889 479.718 61.5662C482.684 57.2263 486.139 54.0058 489.709 52.2602C491.92 51.1774 494.117 50.3793 496.234 49.8886C497.898 49.5107 499.539 49.3218 501.107 49.3218C506.494 49.3218 511.431 51.5863 515.382 55.8727C521.493 62.4997 525.032 73.8981 524.189 84.2362C523.896 87.8543 523.318 91.2157 522.757 94.4672C521.569 101.371 520.546 107.332 522.46 113.564C523.484 116.903 525.656 119.492 528.571 120.857C530.557 121.787 532.629 122.258 534.736 122.258C541.507 122.258 547.093 117.49 549.817 113.403C553.977 107.168 556.049 99.3176 555.5 91.8671C554.986 84.8961 552.57 80.2967 548.943 74.0729C547.13 70.9625 545.232 68.2017 543.557 65.7652C540.726 61.648 538.281 58.092 537.074 54.1891C535.401 48.7832 536.563 46.1831 537.139 45.3174C537.852 44.2458 538.997 43.6282 540.545 43.4816C540.743 43.4618 540.94 43.4534 541.126 43.4534C545.852 43.4534 545.943 49.8999 545.996 53.7492L545.999 53.8592C546.002 54.1102 546.007 54.347 546.01 54.5755C546.171 62.1302 549.073 66.6451 552.75 72.364C555.057 75.9511 557.671 80.0175 559.966 85.5503C563.522 94.1119 564.498 102.389 562.871 110.149C562.826 110.364 562.778 110.578 562.73 110.792C560.576 120.059 555.046 131.914 540.943 135.766C538.343 136.477 535.672 136.835 533.007 136.838C524.936 136.838 517.906 133.516 513.721 127.726C510.334 123.042 508.589 117.732 508.38 111.494C508.349 110.589 508.352 109.653 508.386 108.717C508.549 104.656 509.342 100.144 510.805 94.9212C513.343 85.8746 513.958 78.2099 512.63 72.1441C511.612 67.4882 509.387 63.9463 506.527 62.4207C504.209 61.1855 501.742 60.5595 499.187 60.5595C492.67 60.5595 486.728 64.719 483.733 68.839C479.024 75.3194 476.542 86.746 476.948 93.6184C477.199 97.8878 477.634 101.027 478.361 103.81L478.37 103.832L478.375 103.844C490.693 126.759 514.502 141 540.5 141C559.332 141 577.036 133.668 590.352 120.352C603.668 107.036 611 89.332 611 70.5C611 66.9806 610.738 63.4359 610.216 59.9673Z" fill="white"/>
</g>
<g clip-path="url(#clip1_1046_5674)">
<g filter="url(#filter0_d_1046_5674)">
<path d="M722.026 59.29L765.249 16.306L748.851 0L713.828 34.83L678.805 0L662.408 16.306L705.63 59.29C707.894 61.541 710.861 62.667 713.828 62.667C716.795 62.667 719.762 61.542 722.026 59.29V59.29ZM784.596 105.209L749.573 70.379L784.596 35.548L768.199 19.242L724.978 62.226C720.451 66.729 720.451 74.029 724.978 78.532L768.199 121.516L784.596 105.21V105.209ZM713.768 105.986L748.791 140.816L765.187 124.51L721.966 81.526C717.437 77.023 710.098 77.023 705.569 81.526L662.348 124.51L678.745 140.816L713.768 105.986ZM702.618 78.591C704.793 76.428 706.014 73.496 706.014 70.438C706.014 67.38 704.793 64.447 702.618 62.285L659.397 19.301L643 35.608L678.023 70.438L643 105.269L659.397 121.575L702.619 78.591H702.618Z" fill="white"/>
</g>
</g>
<defs>
<filter id="filter0_d_1046_5674" x="640.018" y="-2.982" width="147.56" height="146.78" filterUnits="userSpaceOnUse" color-interpolation-filters="sRGB">
<feFlood flood-opacity="0" result="BackgroundImageFix"/>
<feColorMatrix in="SourceAlpha" type="matrix" values="0 0 0 0 0 0 0 0 0 0 0 0 0 0 0 0 0 0 127 0" result="hardAlpha"/>
<feOffset/>
<feGaussianBlur stdDeviation="1.491"/>
<feColorMatrix type="matrix" values="0 0 0 0 0 0 0 0 0 0 0 0 0 0 0 0 0 0 0.13 0"/>
<feBlend mode="normal" in2="BackgroundImageFix" result="effect1_dropShadow_1046_5674"/>
<feBlend mode="normal" in="SourceGraphic" in2="effect1_dropShadow_1046_5674" result="shape"/>
</filter>
<clipPath id="clip0_1046_5674">
<rect width="141" height="141" fill="white" transform="translate(470)"/>
</clipPath>
<clipPath id="clip1_1046_5674">
<rect width="141.596" height="140.816" fill="white" transform="translate(643)"/>
</clipPath>
</defs>
</svg>
