<?xml version="1.0" encoding="utf-8"?>
<!-- Generator: Adobe Illustrator 26.1.0, SVG Export Plug-In . SVG Version: 6.00 Build 0)  -->
<svg version="1.1" id="Layer_1" xmlns="http://www.w3.org/2000/svg" xmlns:xlink="http://www.w3.org/1999/xlink" x="0px" y="0px"
	 viewBox="0 0 500 500" style="enable-background:new 0 0 500 500;" xml:space="preserve">
<style type="text/css">
	.st0{fill:#FFFFFF;}
</style>
<path class="st0" d="M497.69,215.99c-0.68,6.48-1.85,12.84-3.56,18.97c-9.18,32.79-30.76,68.12-58.35,81.63
	c-85.92,42.06-130.58-48.81-125.18-115.05c3.24-39.78,16.14-71.41,6.2-103.76c-3.17-10.32-9.91-19.87-20.95-25.04
	c-30.29-14.19-59.93,5.32-73.71,25.99c-14.87,22.29-21.85,50.18-19.96,75.67c1.81,24.56,10.31,40.66,23.13,62.65
	c17.13,29.38,35.37,48.46,42.35,71.02c4.5,14.54,7.06,38.01-13.61,39.98c-21.83,2.09-20.73-26.53-21.04-40.89
	c-0.93-43.64-28.65-59.36-49.52-109.63c-12.19-29.36-16.94-60.41-9.81-91.06c10.03-43.13,34.47-77.9,78.53-89.93
	c35.23-9.62,76.03-1.73,98.33,29.12c26.51,36.68,21.34,79.95,10.56,118.4c-19.95,71.13-2.13,105.04,14.5,113.91
	c31.49,16.79,64.53-2.23,79.19-22.39c15.88-21.84,25.35-61.68,23.85-87.18c-0.57-9.74-1.43-18.12-2.74-25.64
	C435.73,58.35,349.68,0,250,0C111.93,0,0,111.93,0,250c0,18.24,1.97,36.02,5.68,53.15c-0.38-12.91,0.89-25.69,4.23-37.61
	c9.18-32.79,30.76-68.12,58.35-81.63c85.92-42.06,130.58,48.81,125.18,115.05c-3.24,39.78-16.14,71.41-6.2,103.76
	c3.17,10.32,9.91,19.87,20.95,25.04c30.29,14.19,59.93-5.32,73.71-25.99c14.87-22.29,21.85-50.18,19.96-75.67
	c-1.81-24.56-10.31-40.66-23.12-62.65c-17.13-29.38-35.37-48.46-42.35-71.02c-4.5-14.54-7.06-38.01,13.61-39.98
	c21.83-2.09,20.73,26.53,21.04,40.89c0.93,43.64,28.65,59.36,49.52,109.63c12.19,29.36,16.94,60.41,9.81,91.06
	c-10.03,43.13-34.47,77.9-78.53,89.93c-35.23,9.62-76.03,1.73-98.33-29.12c-26.51-36.68-21.34-79.95-10.56-118.4
	c19.95-71.13,2.13-105.04-14.5-113.91c-31.49-16.78-64.53,2.23-79.19,22.39c-15.88,21.84-25.35,61.68-23.85,87.18
	c0.93,15.82,2.63,28.06,5.77,38.86C73.81,447.91,155.82,500,250,500c138.07,0,250-111.93,250-250
	C500,238.46,499.2,227.11,497.69,215.99z"/>
</svg>
