<?xml version="1.0" encoding="UTF-8"?>
<!-- Generator: visioncortex VTracer -->
<svg id="svg" version="1.1" xmlns="http://www.w3.org/2000/svg" style="display: block;" viewBox="0 0 2000 2000"><path d="M0 0 C660 0 1320 0 2000 0 C2000 660 2000 1320 2000 2000 C1340 2000 680 2000 0 2000 C0 1340 0 680 0 0 Z " transform="translate(0,0)" style="fill: #000000;"/><path d="M0 0 C2.42906855 -0.00436016 4.85813573 -0.00954759 7.28720093 -0.01548767 C13.14402765 -0.02738094 19.00080092 -0.03004593 24.85763825 -0.02768741 C29.63089621 -0.02588778 34.40414044 -0.02768861 39.17739677 -0.03191185 C39.8626587 -0.03250704 40.54792063 -0.03310223 41.25394807 -0.03371545 C42.64711512 -0.0349275 44.04028216 -0.03614163 45.4334492 -0.03735783 C58.43596731 -0.04818039 71.43845935 -0.04609647 84.44097888 -0.03997298 C96.26346502 -0.03481209 108.08586856 -0.0460469 119.90833838 -0.0650712 C132.12574669 -0.08457615 144.34311619 -0.09268342 156.56054014 -0.08894795 C163.38829411 -0.08705447 170.21597726 -0.08942092 177.04371834 -0.10366249 C230.56383406 -0.20447709 230.56383406 -0.20447709 252.2131176 2.89388466 C256.00188818 3.42652506 259.80105674 3.85258886 263.60273838 4.2816267 C276.62551799 5.83049239 289.24833049 8.97841778 301.92163086 12.2746582 C302.86538574 12.51587402 303.80914063 12.75708984 304.78149414 13.00561523 C351.71279121 25.04670803 396.60683328 44.75765726 435.92163086 73.2746582 C436.92250732 73.99951416 436.92250732 73.99951416 437.94360352 74.73901367 C447.27613901 81.53656797 456.21114418 88.69979669 464.92163086 96.2746582 C465.63448242 96.88696289 466.34733398 97.49926758 467.08178711 98.13012695 C478.57992855 108.06999871 490.03482848 118.34852395 499.90991211 129.92700195 C501.49186989 131.77313133 503.09361512 133.59212908 504.71459961 135.40356445 C529.51903213 163.2950115 549.22923909 194.99093259 565.92163086 228.2746582 C566.54231445 229.50998291 566.54231445 229.50998291 567.17553711 230.77026367 C581.26442792 259.04685351 591.96515275 289.64297829 599.23608398 320.38110352 C599.69804199 322.33093483 600.17093813 324.27820308 600.65405273 326.22290039 C604.63263075 342.32839088 607.09406155 358.52663509 609.23413086 374.9621582 C609.36327881 375.9320166 609.49242676 376.901875 609.62548828 377.90112305 C611.02312499 388.50951777 612.08622862 399.0744845 612.48651123 409.76980591 C612.52768594 410.84416968 612.56886064 411.91853344 612.61128306 413.02545369 C613.05889506 425.71236978 613.07755413 438.39720344 613.08276367 451.09057617 C613.0874068 453.77589051 613.0924147 456.46120216 613.09780884 459.14651489 C613.11119928 466.35628529 613.11738234 473.56605001 613.1218195 480.77583075 C613.12460757 485.28926678 613.12884843 489.80270077 613.13332367 494.31613541 C613.1454768 506.85525565 613.15579296 519.39437429 613.15919876 531.93350029 C613.15941833 532.73048057 613.15963789 533.52746085 613.15986411 534.34859205 C613.16008239 535.14721524 613.16030067 535.94583844 613.16052556 536.76866233 C613.160969 538.38638361 613.16141556 540.00410489 613.16186523 541.62182617 C613.16208666 542.42423167 613.16230809 543.22663716 613.16253623 544.05335797 C613.16649775 557.1002799 613.1840105 570.14714647 613.20722476 583.19404696 C613.23095936 596.64317131 613.24340108 610.0922678 613.24456668 623.54141343 C613.24548072 631.07166537 613.25116714 638.60184448 613.26938629 646.13207626 C613.28481382 652.52957625 613.28989102 658.92698072 613.28164819 665.32449578 C613.27775495 668.58274345 613.28025601 671.84075961 613.29270554 675.09899139 C613.30543679 678.63882082 613.29954185 682.17816068 613.28912354 685.71798706 C613.29717994 686.73501264 613.30523634 687.75203823 613.31353688 688.79988277 C613.22390299 701.87034245 609.17338085 712.71716892 600.42163086 722.4621582 C592.00500325 730.45714358 579.68210236 735.52290016 568.13903302 735.5265072 C567.16500031 735.5309005 567.16500031 735.5309005 566.17129017 735.53538255 C564.00002483 735.54274658 561.82904252 735.53591691 559.65777874 735.5291338 C558.07682952 735.53152423 556.49588143 735.53478979 554.91493562 735.5388504 C550.55791347 735.54748643 546.20097725 735.5436373 541.84395373 735.53779467 C537.10857499 735.53363149 532.37321214 735.54102228 527.63783723 735.54694718 C519.33418256 735.55572193 511.03055254 735.55701677 502.72689438 735.55344391 C490.37908232 735.54814492 478.03129421 735.5542241 465.68348475 735.56252684 C442.34908522 735.57778508 419.01469652 735.57947003 395.68029305 735.57700381 C377.66376105 735.57517268 359.64723261 735.57692698 341.63070107 735.58122826 C339.04423831 735.58183065 336.45777556 735.58243185 333.8713128 735.58303186 C329.97397613 735.58393909 326.07663945 735.58484776 322.17930278 735.58576421 C285.93317244 735.59419656 249.68704424 735.59854618 213.4409132 735.59435749 C212.75760154 735.59427943 212.07428987 735.59420138 211.3702718 735.59412095 C203.75055231 735.59324815 196.13083284 735.59231889 188.51111337 735.59137032 C187.82315981 735.59128481 187.13520626 735.5911993 186.42640563 735.5911112 C180.70996103 735.59040039 180.70996103 735.59040039 178.07998308 735.59006898 C134.07561197 735.58453312 90.07126185 735.59207517 46.06689453 735.61083984 C34.9793228 735.61556203 23.89175105 735.62024252 12.80417919 735.6246767 C11.78013238 735.62508669 11.78013238 735.62508669 10.73539775 735.62550495 C-10.30435252 735.6338757 -31.34410104 735.63855586 -52.38385296 735.63938427 C-53.04437047 735.63941064 -53.70488797 735.639437 -54.38542116 735.63946417 C-69.53552284 735.6400292 -84.68562433 735.63951694 -99.83572596 735.63826436 C-105.01914799 735.637869 -110.20257002 735.63750745 -115.38599205 735.63716698 C-116.66232336 735.63707625 -117.93865467 735.63698551 -119.25366269 735.63689203 C-138.54044465 735.63572494 -157.8272139 735.64238286 -177.11399269 735.6529789 C-199.04294929 735.66501409 -220.97187783 735.66660928 -242.90083484 735.65418873 C-255.17859761 735.64754626 -267.45629338 735.6492231 -279.73405083 735.66277724 C-287.93058032 735.67099793 -296.1270594 735.66835527 -304.32358475 735.65680198 C-308.99677952 735.65052189 -313.66984316 735.64900555 -318.34303055 735.66066531 C-322.59505677 735.67117687 -326.84684034 735.6678626 -331.09885345 735.65356078 C-332.62681232 735.6508341 -334.15479058 735.65312143 -335.68273122 735.66106793 C-350.75667933 735.73410844 -363.53600781 732.66624118 -374.89086914 722.1496582 C-384.89609529 711.49893359 -387.39405272 699.09394578 -387.33233643 684.99455261 C-387.33545641 683.88928626 -387.33857639 682.78401991 -387.34179091 681.64526063 C-387.3497412 677.95681153 -387.34345825 674.26852833 -387.3371582 670.58007812 C-387.3398698 667.92783124 -387.34335997 665.27559559 -387.34777832 662.62335205 C-387.35665951 656.16949663 -387.35475366 649.71568782 -387.34895304 643.26183059 C-387.34442099 637.99871584 -387.34383034 632.73561408 -387.34600067 627.47249794 C-387.34646037 626.34508158 -387.34646037 626.34508158 -387.34692936 625.19488913 C-387.34756891 623.66725426 -387.34821734 622.13961939 -387.34887454 620.61198453 C-387.35457685 606.28545505 -387.34802699 591.95895116 -387.33727381 577.63242588 C-387.32838761 565.4178608 -387.32984949 553.20333388 -387.33911133 540.98876953 C-387.3499014 526.75246454 -387.35397603 512.51618218 -387.3478868 498.27987367 C-387.34724986 496.74986383 -387.34662111 495.21985398 -387.34600067 493.68984413 C-387.34569212 492.93743433 -387.34538357 492.18502454 -387.34506567 491.40981444 C-387.34336096 486.18478115 -387.34624634 480.9597627 -387.35095978 475.73473167 C-387.39542926 421.49399986 -387.39542926 421.49399986 -386.18286133 400.41259766 C-386.12422496 399.39163862 -386.12422496 399.39163862 -386.06440401 398.35005414 C-385.13853011 382.93058212 -383.27646637 367.56056708 -381.07836914 352.2746582 C-380.97404572 351.54184631 -380.86972229 350.80903442 -380.76223755 350.05401611 C-379.0443216 338.14239971 -376.71926366 326.46989044 -373.89086914 314.7746582 C-373.69450867 313.95594238 -373.49814819 313.13722656 -373.2958374 312.29370117 C-365.13691083 278.36097265 -354.32455832 245.70897933 -339.07836914 214.2746582 C-338.72178223 213.53119141 -338.36519531 212.78772461 -337.99780273 212.02172852 C-335.77341402 207.39508676 -333.45280458 202.82584353 -331.07836914 198.2746582 C-330.52391113 197.19547119 -330.52391113 197.19547119 -329.95825195 196.09448242 C-319.43334525 175.72579448 -306.59990622 156.03197256 -292.07836914 138.2746582 C-291.32555664 137.33235352 -290.57274414 136.39004883 -289.79711914 135.41918945 C-284.7661492 129.1735504 -279.48009795 123.1997379 -274.07836914 117.2746582 C-272.53638885 115.54577121 -270.99472013 113.81660626 -269.45336914 112.0871582 C-264.03102755 106.07277585 -258.4197582 100.47685624 -252.27758789 95.20043945 C-250.73525742 93.84987299 -249.21889414 92.46934581 -247.72290039 91.06762695 C-239.64135911 83.49958754 -230.97464217 76.85059365 -222.07836914 70.2746582 C-221.39500488 69.76644531 -220.71164062 69.25823242 -220.00756836 68.73461914 C-204.04252346 56.92717808 -186.96122075 46.71159227 -169.02026367 38.19848633 C-166.98972132 37.23248529 -164.96956581 36.24666006 -162.94946289 35.2590332 C-131.96824034 20.23577247 -98.82732665 10.76808743 -64.95336914 5.0246582 C-64.22652924 4.899599 -63.49968933 4.77453979 -62.75082397 4.64569092 C-41.87466195 1.08952535 -21.15547334 -0.02549535 0 0 Z " transform="translate(887.078369140625,491.725341796875)" style="fill: #E23D3E;"/><path d="M0 0 C0.97068106 -0.00266251 0.97068106 -0.00266251 1.96097183 -0.00537882 C4.13661326 -0.01012231 6.31218849 -0.00774496 8.48783302 -0.00541991 C10.06724787 -0.00737289 11.64666223 -0.00976176 13.22607583 -0.01254788 C17.58816174 -0.01895773 21.95022927 -0.01910872 26.312319 -0.01827047 C31.04977665 -0.01843978 35.78722768 -0.02434373 40.52468204 -0.02951133 C49.93075608 -0.03884649 59.33682541 -0.04276092 68.7429035 -0.0450303 C80.00550411 -0.04798998 91.26809845 -0.05668599 102.53069577 -0.06544458 C129.75478083 -0.08629925 156.97886697 -0.09676024 184.20295815 -0.10557419 C197.07835937 -0.10977909 209.95376012 -0.11500128 222.82916095 -0.12025872 C266.20047403 -0.13786904 309.57178714 -0.15292229 352.9431032 -0.16022895 C356.40050056 -0.16081292 359.85789792 -0.16141019 363.31529528 -0.16200657 C364.00113225 -0.16212469 364.68696922 -0.16224281 365.39358913 -0.16236451 C372.34206639 -0.16356189 379.29054366 -0.16477065 386.23902092 -0.16599704 C387.63220955 -0.16624227 389.02539818 -0.16648613 390.41858681 -0.16672861 C435.1596872 -0.17451781 479.90076136 -0.1968999 524.64185028 -0.22940504 C556.78894562 -0.25275256 588.93603575 -0.27430332 621.08313942 -0.28141135 C622.07495003 -0.28163188 622.07495003 -0.28163188 623.08679722 -0.28185687 C638.25371702 -0.28518469 653.42063673 -0.28716652 668.58755684 -0.28822315 C673.77696165 -0.2886407 678.96636645 -0.28912026 684.15577126 -0.28964633 C685.43357645 -0.28976952 686.71138164 -0.28989271 688.02790821 -0.29001964 C708.60507658 -0.29235318 729.18221422 -0.30802171 749.75937163 -0.32848817 C770.43690542 -0.34872843 791.11440223 -0.35423199 811.79194409 -0.34471754 C824.08019751 -0.33949564 836.36832794 -0.34541265 848.6565637 -0.36725221 C856.86398066 -0.38073814 865.07131275 -0.37970281 873.27873051 -0.36685025 C877.95575198 -0.359939 882.63253796 -0.35933402 887.3095386 -0.37641034 C891.56859849 -0.39183398 895.82723399 -0.38867228 900.08628146 -0.37100006 C901.61340696 -0.36786314 903.1405651 -0.37135661 904.66765323 -0.38249181 C918.71945062 -0.47823897 931.33709925 2.0306494 942.46283913 11.12880117 C953.22206888 22.23218137 956.78060574 33.49305526 956.71680641 48.67793447 C956.71992639 49.82378129 956.72304637 50.96962811 956.7262609 52.15019757 C956.734223 55.98068323 956.72792403 59.8110097 956.72162819 63.64149648 C956.72323891 66.39164731 956.72782815 69.14179143 956.73224831 71.89193898 C956.74113024 78.58185405 956.73922531 85.27172417 956.73342302 91.96164098 C956.72890031 97.40233132 956.72829627 102.84300909 956.73047066 108.28370076 C956.73077712 109.05902868 956.73108359 109.83435659 956.73139934 110.63317929 C956.73203882 112.20845525 956.73268725 113.7837312 956.73334453 115.35900715 C956.7390447 130.12354626 956.73249562 144.88806052 956.72174379 159.65259555 C956.71281564 172.304019 956.71435486 184.95540573 956.72358131 197.60682851 C956.73430168 212.31350566 956.73848797 227.020161 956.73235679 241.72684151 C956.73171972 243.29744051 956.73109098 244.86803951 956.73047066 246.43863851 C956.73016211 247.21130505 956.72985356 247.98397158 956.72953565 248.78005226 C956.72781348 254.20820961 956.73071364 259.63635306 956.73542976 265.06450826 C956.74105856 271.68855693 956.73948062 278.31255825 956.72886828 284.93660155 C956.72363722 288.31228269 956.72259995 291.68782032 956.72816658 295.06351072 C956.73365829 298.73299596 956.72674376 302.40226189 956.71680641 306.0717333 C956.72126786 307.12467871 956.7257293 308.17762413 956.73032594 309.26247698 C956.6784122 319.19426214 955.42926041 328.85196846 951.77533913 338.12880117 C951.51478737 338.80249746 951.25423561 339.47619375 950.98578835 340.17030507 C946.80111936 350.63569834 940.85714739 359.65276043 933.46283913 368.12880117 C932.6681321 369.04919179 932.6681321 369.04919179 931.85737038 369.98817617 C917.41707918 385.5337736 894.23878467 396.11922046 873.1957918 397.31435236 C869.4871543 397.38436218 865.7831701 397.39373927 862.07388687 397.38048345 C860.63755579 397.38257324 859.20122576 397.38553835 857.76489806 397.38929218 C853.82803608 397.39705546 849.89127265 397.39243346 845.95441233 397.38573628 C841.66750314 397.38065255 837.38060879 397.38718681 833.09370172 397.39222294 C825.58356411 397.39944146 818.07345527 397.39923016 810.56331635 397.39412862 C799.39535785 397.38656301 788.22742361 397.39043151 777.05946528 397.39654524 C757.11282536 397.40707819 737.16619826 397.40616329 717.21955712 397.40038741 C699.76272022 397.39535729 682.30588801 397.39404243 664.84905052 397.3964327 C663.69132102 397.39658547 662.53359153 397.39673824 661.34077932 397.39689564 C656.641215 397.39751831 651.94165069 397.39815511 647.24208638 397.39881517 C603.14980512 397.40493414 559.05753201 397.39938483 514.96525201 397.38862137 C475.79159178 397.37913132 436.61794455 397.37997825 397.44428444 397.38954335 C353.43592071 397.40025303 309.4275642 397.40449894 265.41919935 397.39831883 C260.72755265 397.39767739 256.03590596 397.39705171 251.34425926 397.3964327 C249.61144584 397.39619547 249.61144584 397.39619547 247.84362608 397.39595344 C230.39911521 397.39367854 212.95460956 397.39633899 195.51009941 397.4013918 C175.67325959 397.40710889 155.83643459 397.40568375 135.99959661 397.39483032 C124.89778155 397.38895648 113.79599857 397.38857623 102.69418434 397.39612267 C95.27782077 397.40060789 87.86148293 397.39781543 80.44512318 397.38911313 C76.22007433 397.38435726 71.99508921 397.38272542 67.77004237 397.38992509 C63.92121263 397.39641672 60.07250279 397.39359641 56.22368167 397.38356377 C54.1982155 397.38062109 52.17274218 397.38740803 50.14728689 397.39467233 C25.09608075 397.29237602 3.41740695 389.32195387 -15.53716087 373.12880117 C-16.21134056 372.55645742 -16.88552025 371.98411367 -17.58012962 371.39442617 C-32.55093271 357.55414139 -42.07546009 336.17645302 -43.53716087 316.12880117 C-43.67146014 312.21910248 -43.68083199 308.31338508 -43.67760277 304.40162832 C-43.68057389 303.26082862 -43.68354501 302.12002892 -43.68660617 300.94465953 C-43.69523912 297.14340231 -43.69679679 293.34217677 -43.69829369 289.54091054 C-43.70239186 286.80692532 -43.70793057 284.07294337 -43.71333885 281.33896047 C-43.72686555 273.92796215 -43.7329371 266.51696927 -43.73734951 259.10596067 C-43.74011972 254.47418398 -43.74435829 249.84240935 -43.74885368 245.21063405 C-43.76103549 232.37187756 -43.77133919 219.5331227 -43.77472878 206.69436055 C-43.77494834 205.87426384 -43.77516791 205.05416713 -43.77539413 204.20921901 C-43.7756124 203.38724411 -43.77583068 202.56526922 -43.77605557 201.71838599 C-43.77649903 200.05294496 -43.77694559 198.38750392 -43.77739525 196.72206289 C-43.77761668 195.89595948 -43.77783811 195.06985608 -43.77806625 194.21871924 C-43.78201682 180.82420947 -43.79948361 167.429754 -43.82275477 154.03526521 C-43.84648558 140.26456706 -43.85893129 126.49389617 -43.86009669 112.72317725 C-43.86101211 104.99879186 -43.8667314 97.2744774 -43.88491631 89.55011159 C-43.90034018 82.97581872 -43.90542403 76.40161875 -43.8971782 69.82731122 C-43.89328066 66.47609969 -43.89580083 63.12522673 -43.90823555 59.77401334 C-43.92094691 56.13450667 -43.91508216 52.49547754 -43.90465355 48.85597402 C-43.91673816 47.28153657 -43.91673816 47.28153657 -43.9290669 45.67529231 C-43.84160181 32.59356646 -39.34201348 22.09718042 -30.53716087 12.44130117 C-22.15414704 4.41470799 -11.56697468 0.00742915 0 0 Z " transform="translate(543.5371608734131,1329.8711988329887)" style="fill: #E23D3E;"/><path d="M0 0 C0.74443359 0.29390625 1.48886719 0.5878125 2.25585938 0.890625 C17.54851159 7.04419009 31.52797468 15.1667903 44 26 C44.81726562 26.70769531 45.63453125 27.41539062 46.4765625 28.14453125 C49.02062006 30.39322609 51.51689729 32.68425374 54 35 C54.80179688 35.73605469 55.60359375 36.47210937 56.4296875 37.23046875 C68.43222302 48.67697627 77.46455192 62.31195024 85 77 C85.32339355 77.62229492 85.64678711 78.24458984 85.97998047 78.88574219 C90.65144651 87.97991212 93.87452503 97.20123346 96.48876953 107.07519531 C96.94198445 108.78156894 97.42034612 110.48121966 97.90234375 112.1796875 C108.35929561 150.57386896 100.80229094 191.54188492 82 226 C81.43539063 227.05574219 80.87078125 228.11148438 80.2890625 229.19921875 C59.19612607 267.07737925 22.07798461 292.27900904 -19 304 C-60.39255591 314.55726513 -104.32493364 306.60249304 -140.7578125 285.0625 C-149.05334372 279.78534279 -156.54270041 273.71656416 -163.7578125 267.0546875 C-165.69106313 265.28310243 -167.66289334 263.60217659 -169.6875 261.9375 C-190.33740169 244.21020621 -204.41037835 216.01077757 -211.43261719 190.09277344 C-211.80700192 188.71186728 -212.19541995 187.33467956 -212.59863281 185.96191406 C-223.35255093 148.4904056 -215.41474326 105.49794045 -197.05029297 71.86572266 C-175.92482965 34.33880712 -141.6301702 6.71293587 -100.109375 -5.1953125 C-67.38356049 -13.66455595 -31.54345876 -12.53759878 0 0 Z " transform="translate(1057,627)" style="fill: #000000;"/><path d="M0 0 C1.63737625 0.00140488 1.63737625 0.00140488 3.30783081 0.00283813 C39.31394057 0.06977196 74.87172745 2.7010257 109.5 13.1875 C110.39750977 13.45820313 111.29501953 13.72890625 112.21972656 14.0078125 C166.93943002 30.79035143 211.10180519 65.64792521 238.36621094 116.18164062 C245.5 129.63392857 245.5 129.63392857 245.5 134.1875 C238.17039057 132.80264292 230.89958247 131.31279941 223.66552734 129.49267578 C197.58939612 122.99291105 171.24467161 119.39630989 144.51953125 116.94921875 C143.48513412 116.85432159 143.48513412 116.85432159 142.42984009 116.75750732 C140.12083575 116.55411498 137.81067005 116.37108402 135.5 116.1875 C134.52132147 116.1043904 133.54264294 116.0212808 132.53430748 115.93565273 C121.05254302 115.05295462 109.60365153 115.04623126 98.09301758 115.05810547 C95.86712618 115.0567478 93.641235 115.05496582 91.41534424 115.05279541 C85.40887718 115.04826327 79.40242743 115.04999355 73.39596009 115.0531745 C67.08059791 115.05572157 60.76523712 115.0533539 54.44987488 115.05178833 C43.16457389 115.04985677 31.87928161 115.05294934 20.59398236 115.05804767 C10.40404101 115.06250908 0.21411106 115.06174281 -9.97583008 115.05712891 C-21.8571342 115.05175155 -33.73843282 115.04979945 -45.6197384 115.05274117 C-51.89116553 115.0542906 -58.16258485 115.05453477 -64.43401146 115.05120468 C-70.33812099 115.04828831 -76.24220927 115.05036993 -82.14631653 115.05609894 C-84.29714231 115.05740683 -86.44796992 115.05706654 -88.59879494 115.05483627 C-122.65072501 115.02281789 -156.01210031 118.04663831 -189.5 124.1875 C-190.43344238 124.35362793 -191.36688477 124.51975586 -192.32861328 124.69091797 C-206.17785435 127.16633556 -219.66668734 130.79834409 -233.20361328 134.60839844 C-235.5 135.1875 -235.5 135.1875 -237.5 135.1875 C-235.58715469 128.86082714 -233.16901997 123.07951132 -230.0625 117.25 C-229.63146973 116.43732666 -229.20043945 115.62465332 -228.75634766 114.78735352 C-221.92549278 102.17158037 -213.88639321 90.05191423 -204.5 79.1875 C-203.81808594 78.39601563 -203.13617187 77.60453125 -202.43359375 76.7890625 C-192.37797938 65.38430488 -181.78630705 55.15925231 -169.5 46.1875 C-168.93506836 45.77290527 -168.37013672 45.35831055 -167.78808594 44.93115234 C-129.27496357 17.05719717 -83.05443076 5.89091219 -36.5 1.1875 C-35.59024414 1.09106201 -34.68048828 0.99462402 -33.74316406 0.89526367 C-22.52257451 -0.14063916 -11.25780727 -0.01242056 0 0 Z " transform="translate(996.5,271.8125)" style="fill: #E23D3E;"/></svg>