<svg width="256" height="256" viewBox="0 0 256 256" fill="none" xmlns="http://www.w3.org/2000/svg">
<g clip-path="url(#clip0_2824_278)">
<path d="M256 0H0V256H256V0Z" fill="#121D33"/>
<path d="M59.9719 106.288L52.5344 113.725C50.4625 115.691 48.8156 118.081 47.7 120.684C46.5844 123.288 46 126.156 46 129.025C46 131.894 46.5844 134.709 47.7 137.313C48.8156 139.916 50.4625 142.306 52.5344 144.272L112.459 204.834C113.894 206.269 115.541 207.491 117.347 208.394V135.028L59.9719 106.288Z" fill="#3D89F5"/>
<path d="M195.121 106.288L202.559 113.725C204.63 115.691 206.277 118.081 207.393 120.684C208.509 123.288 209.093 126.156 209.093 128.972C209.093 131.788 208.509 134.656 207.393 137.259C206.277 139.863 204.63 142.253 202.559 144.219L142.634 204.781C141.199 206.216 139.552 207.438 137.746 208.341V135.028L195.121 106.288Z" fill="#1656B9"/>
<path d="M180.724 91.0938L143.218 53.4812C141.252 51.4094 138.862 49.8156 136.205 48.7C133.549 47.5844 130.787 47 127.918 47C125.049 47 122.234 47.5844 119.63 48.7C117.027 49.8156 114.637 51.4625 112.618 53.4812L75.0586 91.0938L127.759 117.391L180.724 91.0938Z" fill="#85B5F8"/>
</g>
<defs>
<clipPath id="clip0_2824_278">
<rect width="256" height="256" fill="white"/>
</clipPath>
</defs>
</svg>
