<svg width="256" height="256" viewBox="0 0 256 256" fill="none" xmlns="http://www.w3.org/2000/svg">
<g clip-path="url(#clip0_2826_2)">
<path d="M256 0H0V256H256V0Z" fill="url(#paint0_linear_2826_2)"/>
<path fill-rule="evenodd" clip-rule="evenodd" d="M203.308 78.3828L207.784 67.415C207.784 67.415 202.088 61.3195 195.172 54.4125C188.259 47.5054 173.615 51.5691 173.615 51.5691L156.94 32.6709H98.3687L81.6933 51.5691C81.6933 51.5691 67.0497 47.5054 60.1367 54.4125C53.2207 61.3195 47.528 67.415 47.528 67.415L52.0034 78.3828L46.3047 94.6345C46.3047 94.6345 63.0547 157.994 65.0179 165.734C68.8817 180.968 71.5251 186.858 82.5078 194.579C93.4875 202.298 113.418 215.703 116.67 217.738C119.925 219.767 123.995 223.228 127.656 223.228C131.317 223.228 135.383 219.767 138.635 217.738C141.891 215.706 161.818 202.298 172.804 194.579C183.783 186.861 186.43 180.968 190.294 165.734C192.254 157.994 209.001 94.6345 209.001 94.6345L203.308 78.3828Z" fill="white"/>
<path fill-rule="evenodd" clip-rule="evenodd" d="M148.397 67.0063C150.838 67.0063 168.939 63.5543 168.939 63.5543C168.939 63.5543 190.389 89.452 190.389 94.9896C190.389 99.5664 188.542 101.357 186.37 103.469C185.916 103.911 185.445 104.364 184.976 104.865L168.895 121.923C168.722 122.104 168.547 122.283 168.37 122.46C166.764 124.071 164.401 126.446 166.066 130.39L166.409 131.193C168.238 135.465 170.497 140.74 167.624 146.081C164.565 151.768 159.329 155.563 155.973 154.933C152.619 154.307 144.736 150.192 141.839 148.316C138.942 146.436 129.756 138.87 129.756 135.972C129.756 133.559 136.361 129.543 139.572 127.588C140.21 127.201 140.715 126.896 141.004 126.699C141.335 126.476 141.89 126.132 142.573 125.709C145.5 123.889 150.79 120.607 150.924 119.154C151.089 117.358 151.026 116.833 148.663 112.399C148.162 111.456 147.574 110.448 146.968 109.403C144.719 105.54 142.2 101.213 142.761 98.1134C143.388 94.6136 148.878 92.6087 153.526 90.908C154.105 90.6991 154.675 90.4903 155.218 90.2844L160.06 88.4674C164.703 86.7309 169.858 84.8005 170.712 84.4097C171.887 83.8697 171.583 83.3505 168.018 83.0134C167.44 82.9568 166.864 82.8971 166.287 82.8344C161.871 82.3659 153.729 81.5037 149.773 82.6046C148.994 82.8224 148.123 83.0581 147.207 83.3058C142.761 84.5082 137.31 85.9821 136.785 86.8324C136.696 86.9816 136.606 87.1099 136.52 87.2292C136.018 87.9393 135.693 88.4047 136.248 91.4242C136.412 92.3252 136.752 94.0945 137.173 96.2845C138.396 102.693 140.315 112.688 140.556 114.932C140.589 115.248 140.628 115.55 140.664 115.842C140.971 118.348 141.174 120.016 138.262 120.681L137.501 120.854C134.213 121.606 129.395 122.713 127.655 122.713C125.913 122.713 121.091 121.609 117.803 120.854L117.046 120.681C114.134 120.016 114.339 118.348 114.647 115.842C114.683 115.55 114.718 115.245 114.751 114.932C114.993 112.685 116.914 102.663 118.144 96.2576C118.561 94.0796 118.898 92.3192 119.062 91.4242C119.614 88.4047 119.289 87.9393 118.788 87.2292C118.696 87.0989 118.606 86.9666 118.519 86.8324C118 85.9821 112.552 84.5082 108.104 83.3058C107.188 83.0581 106.313 82.8224 105.538 82.6046C101.579 81.5007 93.4392 82.3659 89.0235 82.8344C88.3492 82.906 87.7644 82.9686 87.293 83.0134C83.7246 83.3505 83.4232 83.8697 84.5988 84.4097C85.4491 84.8005 90.6048 86.7309 95.2443 88.4674C97.0255 89.1328 98.7351 89.7712 100.09 90.2844C100.636 90.4903 101.203 90.6962 101.784 90.911C106.433 92.6116 111.923 94.6136 112.549 98.1134C113.107 101.213 110.589 105.54 108.342 109.403C107.734 110.448 107.149 111.456 106.645 112.399C104.285 116.833 104.222 117.358 104.386 119.154C104.517 120.61 109.804 123.889 112.734 125.709C113.417 126.132 113.972 126.476 114.304 126.699C114.596 126.896 115.097 127.201 115.736 127.588C118.946 129.54 125.552 133.556 125.552 135.972C125.552 138.867 116.368 146.436 113.468 148.316C110.574 150.195 102.691 154.307 99.3348 154.933C95.9813 155.56 90.742 151.768 87.6868 146.084C84.8136 140.74 87.0692 135.465 88.8982 131.196L89.2413 130.39C90.9091 126.446 88.5461 124.071 86.9379 122.46C86.7615 122.283 86.5874 122.104 86.4158 121.923L70.3341 104.865C69.8627 104.367 69.3913 103.911 68.9378 103.469C66.7657 101.36 64.9219 99.5664 64.9219 94.9896C64.9219 89.455 86.371 63.5543 86.371 63.5543C86.371 63.5543 104.47 67.0063 106.91 67.0063C108.859 67.0063 112.618 65.7144 116.538 64.3658C117.532 64.0257 118.534 63.6796 119.522 63.3514C124.4 61.7253 127.655 61.7134 127.655 61.7134C127.655 61.7134 130.907 61.7253 135.789 63.3514C136.773 63.6796 137.779 64.0257 138.772 64.3658C142.69 65.7144 146.452 67.0063 148.397 67.0063ZM145.291 158.621C149.116 160.59 151.831 161.987 152.858 162.628C154.186 163.457 153.377 165.024 152.166 165.88C150.957 166.73 134.703 179.303 133.127 180.694L132.486 181.264C130.967 182.633 129.028 184.379 127.652 184.379C126.28 184.379 124.34 182.63 122.819 181.264L122.183 180.694C120.602 179.303 104.35 166.73 103.142 165.877C101.934 165.024 101.122 163.46 102.45 162.625C103.476 161.987 106.194 160.587 110.025 158.615L113.665 156.738C119.394 153.779 126.539 151.257 127.655 151.257C128.768 151.257 135.911 153.776 141.645 156.738C142.946 157.413 144.167 158.045 145.291 158.621Z" fill="url(#paint1_linear_2826_2)"/>
<path fill-rule="evenodd" clip-rule="evenodd" d="M173.615 51.5691L156.94 32.6709H98.3687L81.6933 51.5691C81.6933 51.5691 67.0497 47.5054 60.1367 54.4125C60.1367 54.4125 79.6615 52.6521 86.3716 63.5542C86.3716 63.5542 104.47 67.0063 106.911 67.0063C109.351 67.0063 114.638 64.9774 119.52 63.3514C124.401 61.7253 127.656 61.7134 127.656 61.7134C127.656 61.7134 130.908 61.7253 135.789 63.3514C140.67 64.9774 145.957 67.0063 148.398 67.0063C150.838 67.0063 168.94 63.5542 168.94 63.5542C175.65 52.6521 195.172 54.4125 195.172 54.4125C188.259 47.5054 173.615 51.5691 173.615 51.5691Z" fill="white"/>
</g>
<defs>
<linearGradient id="paint0_linear_2826_2" x1="0.00469466" y1="257.808" x2="256" y2="257.808" gradientUnits="userSpaceOnUse">
<stop stop-color="#FF5500"/>
<stop offset="0.41" stop-color="#FF5500"/>
<stop offset="0.582" stop-color="#FF2000"/>
<stop offset="1" stop-color="#FF2000"/>
</linearGradient>
<linearGradient id="paint1_linear_2826_2" x1="64.9242" y1="185.245" x2="190.389" y2="185.245" gradientUnits="userSpaceOnUse">
<stop stop-color="#FF5500"/>
<stop offset="0.41" stop-color="#FF5500"/>
<stop offset="0.582" stop-color="#FF2000"/>
<stop offset="1" stop-color="#FF2000"/>
</linearGradient>
<clipPath id="clip0_2826_2">
<rect width="256" height="256" fill="white"/>
</clipPath>
</defs>
</svg>
