<svg width="256" height="251" viewBox="0 0 256 251" fill="none" xmlns="http://www.w3.org/2000/svg">
<g clip-path="url(#clip0_2812_2)">
<circle cx="128" cy="125" r="104" fill="white"/>
<path d="M209.455 0H46.5455C20.7568 0 0 20.7075 0 45.8075V205.193C0 230.293 20.7568 251 46.5455 251H209.455C235.243 251 256 230.293 256 205.193V45.8075C256 20.7075 235.243 0 209.455 0ZM169.828 62.75C188.698 62.75 204.423 77.81 204.423 96.635C204.423 102.282 203.165 107.93 200.649 112.95C196.246 109.813 191.214 106.675 186.182 104.793C187.44 102.283 188.069 99.145 188.069 96.635C188.069 87.2225 179.892 79.065 170.457 79.065C160.393 79.065 152.845 87.2225 152.845 96.635C152.845 99.7725 153.474 102.283 154.732 104.793C149.7 106.675 144.668 109.185 140.265 112.95C137.12 107.93 136.491 102.282 136.491 96.635C135.862 77.81 150.958 62.75 169.828 62.75ZM86.172 188.25C67.3022 188.25 51.5774 173.19 51.5774 154.365H67.9312C67.9312 163.778 76.1081 171.935 85.543 171.935C94.9779 171.935 103.155 163.778 103.155 154.365H119.509C120.767 173.19 105.042 188.25 86.172 188.25ZM86.172 141.188C64.1572 141.188 46.5455 123.617 46.5455 102.282C46.5455 80.9475 64.1572 62.75 86.172 62.75C108.187 62.75 126.428 80.32 126.428 102.282C126.428 123.617 108.187 141.188 86.172 141.188ZM169.828 188.25C147.813 188.25 129.572 170.68 129.572 149.345C129.572 127.382 147.184 109.813 169.828 109.813C191.843 109.813 209.455 127.382 209.455 149.345C210.084 170.68 191.843 188.25 169.828 188.25ZM193.73 148.718C193.73 161.895 183.037 171.935 169.828 171.935C156.619 171.935 145.926 161.268 145.926 148.718C145.926 135.54 156.619 125.5 169.828 125.5C183.037 126.128 193.73 136.168 193.73 148.718ZM109.445 102.282C109.445 115.46 98.7518 125.5 85.543 125.5C72.3342 125.5 61.6413 114.832 61.6413 102.282C61.6413 89.105 72.3342 79.065 85.543 79.065C99.3808 79.065 109.445 89.105 109.445 102.282Z" fill="#D9B432"/>
</g>
<defs>
<clipPath id="clip0_2812_2">
<rect width="256" height="251" fill="white"/>
</clipPath>
</defs>
</svg>
