<svg xmlns="http://www.w3.org/2000/svg" width="48" height="48" fill="none" viewBox="0 0 48 48"><script/><g clip-path="url(#clip0_19683_8605)"><path fill="#40fb50" d="M0 0h48v48H0z"/><path fill="#122023" d="m10.285 39.773 9-31.543h4.196l-9 31.543zm19.773-3.433q-2.403 0-4.179-.768-1.775-.768-2.796-2.142-1.024-1.374-1.2-3.162h4.304q.178.753.646 1.374.464.625 1.274.984.807.358 1.917.357c.74 0 1.302-.102 1.758-.304q.68-.303 1.005-.805c.216-.333.32-.69.32-1.07 0-.573-.155-1.01-.466-1.32q-.466-.464-1.345-.732a24 24 0 0 0-2.1-.518 22 22 0 0 1-2.492-.626 9.8 9.8 0 0 1-2.15-.947 4.4 4.4 0 0 1-1.505-1.465q-.556-.892-.554-2.179 0-1.57.842-2.822c.56-.832 1.376-1.495 2.437-1.984q1.596-.731 3.82-.73 3.156 0 5.039 1.444 1.883 1.446 2.204 4.055H32.75q-.177-1-1.004-1.553-.824-.551-2.187-.552c-.91 0-1.643.172-2.134.519q-.734.52-.733 1.374-.002.57.45 1 .446.43 1.308.731.86.302 2.116.59 2.01.393 3.55.929t2.438 1.573q.897 1.035.896 2.93.035 1.713-.879 3.037t-2.563 2.055q-1.648.731-3.945.73z"/></g><defs><clipPath id="clip0_19683_8605"><path fill="#fff" d="M0 0h48v48H0z"/></clipPath></defs></svg>