<svg xmlns="http://www.w3.org/2000/svg" width="44" height="44" fill="none" viewBox="0 0 44 44"><g clip-path="url(#j0vqb9sjh88__clip0_3868_718)"><g clip-path="url(#j0vqb9sjh88__clip1_3868_718)"><path fill="#f3ff97" d="M0 0h44v44H0z"/><path fill="#0f0f0f" d="M17.93 21.954a.23.23 0 0 1 .322-.056l5.09 3.68c.058.042.094.11.094.182v.66c0 .072-.036.14-.094.182l-5.09 3.68a.23.23 0 0 1-.321-.056l-.408-.6a.224.224 0 0 1 .054-.308l4.458-3.225-4.458-3.232a.224.224 0 0 1-.07-.279l.016-.027z"/><path fill="#0f0f0f" d="M17.283 18.519a.23.23 0 0 1 .322.055l.407.6c.068.1.044.236-.055.307L13.5 22.707l4.457 3.232c.09.064.118.183.071.279l-.016.028-.407.6a.23.23 0 0 1-.322.055l-5.09-3.68a.22.22 0 0 1-.093-.181v-.66c0-.072.034-.14.092-.182z"/><path fill="#0f0f0f" fill-rule="evenodd" d="M26.615 10c.828 0 1.581.34 2.126.886s.883 1.3.883 2.13v1.796l.001-.003h1.947c.942 0 1.8.387 2.421 1.01A3.43 3.43 0 0 1 35 18.244v12.319c0 .945-.386 1.804-1.007 2.427a3.4 3.4 0 0 1-2.42 1.01H12.427a3.42 3.42 0 0 1-2.421-1.009A3.43 3.43 0 0 1 9 30.564V13.017c0-.83.338-1.584.883-2.131A3 3 0 0 1 12.009 10zM10.221 30.56c0 .607.25 1.161.65 1.562s.951.65 1.558.65h19.144c.607 0 1.159-.249 1.56-.65.4-.4.648-.955.648-1.562v-2.261h-5.575a1.93 1.93 0 0 1-1.37-.572v.003a1.94 1.94 0 0 1-.568-1.375v-3.909c0-.532.217-1.018.568-1.37l.004-.004a1.93 1.93 0 0 1 1.367-.57h5.573v-2.26a2.2 2.2 0 0 0-.648-1.562 2.2 2.2 0 0 0-1.56-.65H12.011c-.67 0-1.29-.223-1.79-.596zm17.985-8.835a.72.72 0 0 0-.509.21l-.002.003a.72.72 0 0 0-.209.51v3.907c0 .198.08.38.212.511l-.002.002.002.002c.13.13.31.211.509.211h5.573v-5.356zM12.01 11.218c-.492 0-.94.2-1.265.527a1.793 1.793 0 0 0 1.265 3.064l16.397-.001v-1.795a1.8 1.8 0 0 0-.526-1.268 1.78 1.78 0 0 0-1.265-.527z" clip-rule="evenodd"/></g></g><defs><clipPath id="j0vqb9sjh88__clip0_3868_718"><path fill="#fff" d="M0 0h258v44H0z"/></clipPath><clipPath id="j0vqb9sjh88__clip1_3868_718"><path fill="#fff" d="M0 0h44v44H0z"/></clipPath></defs></svg>