<svg width="256" height="256" viewBox="0 0 256 256" fill="none" xmlns="http://www.w3.org/2000/svg">
<g clip-path="url(#clip0_34_2)">
<path d="M251.059 216.645C249.083 233.33 233.3 249.074 216.645 251.059C157.555 257.65 98.4548 257.65 39.3551 251.059C22.6805 249.083 6.94614 233.318 4.95057 216.645C-1.65019 157.555 -1.65019 98.4548 4.95057 39.3551C6.91735 22.6901 22.6805 6.92696 39.3551 4.95057C98.4548 -1.65019 157.555 -1.65019 216.645 4.95057C233.309 6.92696 249.074 22.6901 251.059 39.3551C257.65 98.4548 257.65 157.555 251.059 216.645Z" fill="white"/>
<mask id="mask0_34_2" style="mask-type:luminance" maskUnits="userSpaceOnUse" x="0" y="0" width="257" height="257">
<path d="M251.059 216.645C249.083 233.33 233.3 249.074 216.645 251.059C157.555 257.65 98.4548 257.65 39.3551 251.059C22.6805 249.083 6.94614 233.318 4.95057 216.645C-1.65019 157.555 -1.65019 98.4548 4.95057 39.3551C6.91735 22.6901 22.6805 6.92696 39.3551 4.95057C98.4548 -1.65019 157.555 -1.65019 216.645 4.95057C233.309 6.92696 249.074 22.6901 251.059 39.3551C257.65 98.4548 257.65 157.555 251.059 216.645Z" fill="white"/>
</mask>
<g mask="url(#mask0_34_2)">
<path d="M251.059 216.645L253.37 216.919L253.373 216.903L251.059 216.645ZM216.645 251.059L216.903 253.373L216.92 253.37L216.645 251.059ZM39.3551 251.059L39.0812 253.37L39.0972 253.373L39.3551 251.059ZM4.95057 216.645L2.63761 216.903L2.63978 216.921L4.95057 216.645ZM4.95057 39.3552L2.63929 39.0825L2.63768 39.0969L4.95057 39.3552ZM39.3551 4.9507L39.0968 2.63774L39.0812 2.6396L39.3551 4.9507ZM216.645 4.9507L216.919 2.63955L216.903 2.63781L216.645 4.9507ZM251.059 39.3552L253.373 39.0974L253.37 39.0799L251.059 39.3552ZM248.748 216.371C247.834 224.099 243.691 231.743 237.712 237.717C231.733 243.691 224.085 247.829 216.369 248.748L216.92 253.37C225.86 252.304 234.431 247.575 241.001 241.01C247.573 234.445 252.309 225.875 253.37 216.919L248.748 216.371ZM216.387 248.746C157.468 255.318 98.5414 255.318 39.613 248.746L39.0972 253.373C98.3685 259.982 157.641 259.982 216.903 253.373L216.387 248.746ZM39.629 248.748C31.906 247.834 24.266 243.696 18.2945 237.719C12.323 231.743 8.18599 224.095 7.26135 216.369L2.63978 216.921C3.71072 225.87 8.43864 234.44 15.0019 241.008C21.5652 247.578 30.1298 252.309 39.0812 253.37L39.629 248.748ZM7.26346 216.387C0.681879 157.468 0.681874 98.5417 7.26346 39.6136L2.63768 39.0969C-3.98224 98.3684 -3.98234 157.641 2.63761 216.903L7.26346 216.387ZM7.26179 39.628C8.17268 31.9101 12.308 24.2654 18.283 18.2904C24.2581 12.3154 31.9053 8.17725 39.629 7.26179L39.0812 2.6396C30.1303 3.70051 21.5587 8.43216 14.9918 14.9991C8.42489 21.566 3.6952 30.1355 2.63929 39.0825L7.26179 39.628ZM39.6134 7.26359C98.5416 0.681996 157.468 0.682001 216.387 7.26359L216.903 2.63781C157.641 -3.98214 98.3682 -3.98219 39.0968 2.63774L39.6134 7.26359ZM216.371 7.26177C224.089 8.17716 231.735 12.3151 237.712 18.2905C243.689 24.2659 247.829 31.9114 248.748 39.6305L253.37 39.0799C252.304 30.1341 247.571 21.5655 241.003 14.9989C234.433 8.43243 225.865 3.70053 216.919 2.63955L216.371 7.26177ZM248.746 39.6131C255.318 98.5415 255.318 157.468 248.746 216.387L253.373 216.903C259.982 157.641 259.982 98.3686 253.373 39.0974L248.746 39.6131Z" fill="white"/>
</g>
<mask id="mask1_34_2" style="mask-type:luminance" maskUnits="userSpaceOnUse" x="44" y="41" width="171" height="172">
<path d="M214.412 41.8909H44.2182V212.085H214.412V41.8909Z" fill="white"/>
</mask>
<g mask="url(#mask1_34_2)">
<path d="M100.95 165.865V201.567C100.95 207.386 105.664 212.085 111.467 212.085H147.165C152.982 212.085 157.681 207.371 157.681 201.567V183.716C157.681 175.874 160.852 168.781 165.99 163.657C171.128 158.518 178.22 155.347 186.047 155.347H203.896C209.713 155.347 214.413 150.633 214.413 144.829V109.141C214.413 103.322 209.699 98.6228 203.896 98.6228H168.212C162.395 98.6228 157.696 103.337 157.696 109.141V127.855C157.696 143.045 145.381 155.347 130.207 155.347H111.495C105.677 155.347 100.978 160.061 100.978 165.865H100.95Z" fill="#001405"/>
<path d="M44.2182 109.139V144.837C44.2182 150.654 48.9316 155.354 54.7349 155.354H90.4327C96.2502 155.354 100.949 150.64 100.949 144.837V126.988C100.949 119.146 104.12 112.055 109.258 106.931C114.396 101.793 121.488 98.6221 129.315 98.6221H147.164C152.981 98.6221 157.681 93.9087 157.681 88.1054V52.4076C157.681 46.5901 152.967 41.8909 147.164 41.8909H111.481C105.663 41.8909 100.964 46.6043 100.964 52.4076V71.12C100.964 86.3078 88.6493 98.6081 73.4755 98.6081H54.7349C48.9174 98.6081 44.2182 103.322 44.2182 109.125V109.139Z" fill="#001405"/>
</g>
</g>
<defs>
<clipPath id="clip0_34_2">
<rect width="256" height="256" fill="white"/>
</clipPath>
</defs>
</svg>
