<svg width="256" height="256" viewBox="0 0 256 256" fill="none" xmlns="http://www.w3.org/2000/svg">
<g clip-path="url(#clip0_3172_20)">
<mask id="mask0_3172_20" style="mask-type:luminance" maskUnits="userSpaceOnUse" x="0" y="0" width="256" height="256">
<path d="M256 0H0V256H256V0Z" fill="white"/>
</mask>
<g mask="url(#mask0_3172_20)">
<path d="M256 0H0V256H256V0Z" fill="#202127"/>
</g>
<path d="M134.839 87.9666L128.378 62.619H120.426L126.191 85.4814L114.76 82.1019L107.007 51.2871H98.9549L106.112 79.6168L71.2217 69.4777L93.289 120.074L70.5259 113.513L82.9513 141.942L48.2598 205.162H149.65L162.374 151.485H192.493L207.999 111.624L134.839 87.9666Z" fill="#34D98F"/>
<path d="M126.491 120.571C130.389 120.571 133.549 117.411 133.549 113.513C133.549 109.615 130.389 106.456 126.491 106.456C122.593 106.456 119.434 109.615 119.434 113.513C119.434 117.411 122.593 120.571 126.491 120.571Z" fill="#202127"/>
</g>
<defs>
<clipPath id="clip0_3172_20">
<rect width="256" height="256" fill="white"/>
</clipPath>
</defs>
</svg>
