<svg width="256" height="256" viewBox="0 0 256 256" fill="none" xmlns="http://www.w3.org/2000/svg">
<rect width="256" height="256" fill="#282C30"/>
<path d="M107.529 41.583C107.487 40.5129 108.622 39.8444 109.543 40.3914C110.382 40.8902 111.192 41.3792 112.033 41.8526C116.674 44.3924 121.047 47.3972 125.085 50.8215C131.365 56.3029 136.643 62.8447 140.68 70.152C144.93 77.5744 148.181 85.5295 150.35 93.8099C151.839 99.4165 152.441 105.224 152.132 111.019C152.051 111.793 152.221 112.572 152.617 113.241C153.012 113.91 153.612 114.433 154.327 114.732C155.045 115.015 155.834 115.06 156.58 114.861C157.325 114.661 157.987 114.226 158.469 113.621C163.304 108.447 169.164 96.7587 171.129 92.6926C171.496 91.9334 172.423 91.6694 173.091 92.1839C176.229 94.6011 184.551 102.054 191.619 117.586C194.028 122.586 195.466 127.998 196.528 133.438C197.571 138.341 197.732 143.309 197.611 148.321C197.212 164.833 190.526 180.759 179.039 193.218C168.893 204.222 155.603 211.702 140.894 214.271C128.256 216.676 115.202 215.529 103.171 210.956C99.1219 209.275 95.2144 207.267 91.4877 204.953C85.8947 201.867 81.0674 197.527 76.629 192.921C69.4508 184.915 64.1084 175.774 60.9593 165.314C59.5771 160.113 58.7149 154.788 58.3851 149.415C57.9621 140.661 59.0826 131.415 62.0079 123.408C66.47 111.196 74.0208 99.409 84.3506 91.5653C93.8379 84.4081 101.757 76.0397 105.745 64.8138C107.323 60.0617 108.049 55.0661 107.89 50.0589C107.89 47.2299 107.639 44.4077 107.529 41.583Z" fill="#1D1F20"/>
<path fill-rule="evenodd" clip-rule="evenodd" d="M104.075 41.1923C103.937 37.6625 107.743 35.4662 110.739 37.2421C110.907 37.342 111.072 37.4398 111.234 37.536C111.904 37.9342 112.525 38.3037 113.17 38.6662C118.021 41.3164 122.593 44.451 126.815 48.0224L126.832 48.0366L126.848 48.051C133.439 53.7901 138.978 60.638 143.216 68.2861C147.625 75.9729 150.999 84.2107 153.25 92.7846C154.833 98.7278 155.471 104.884 155.143 111.026L155.139 111.103L155.131 111.181C155.118 111.306 155.145 111.431 155.209 111.538C155.266 111.635 155.349 111.71 155.445 111.757C155.548 111.791 155.658 111.794 155.763 111.766C155.878 111.735 155.982 111.668 156.061 111.57L156.136 111.476L156.219 111.387C158.387 109.073 160.931 105.112 163.254 101.031C165.539 97.015 167.478 93.1229 168.452 91.1104C169.586 88.7698 172.701 87.6879 175.066 89.5054C178.572 92.2001 187.29 100.065 194.639 116.164C197.215 121.51 198.723 127.218 199.813 132.785C200.93 138.042 201.088 143.301 200.965 148.429C200.544 165.808 193.493 182.518 181.442 195.557C170.789 207.082 156.811 214.948 141.308 217.654C128.024 220.172 114.305 218.967 101.661 214.171L101.618 214.155L101.575 214.137C97.3662 212.395 93.3041 210.315 89.4285 207.919C83.4304 204.602 78.3398 200.006 73.8014 195.307L73.7633 195.267L73.7264 195.226C66.2162 186.869 60.5978 177.293 57.2862 166.318L57.2717 166.269L57.2589 166.222C55.8142 160.798 54.9129 155.244 54.5683 149.642L54.5671 149.622L54.5661 149.602C54.1237 140.471 55.2875 130.76 58.3988 122.264C63.0414 109.587 70.9473 97.1946 81.9348 88.8708L81.9386 88.8679L81.9424 88.8649C91.2474 81.8615 98.7015 73.9049 102.442 63.4268C103.911 59.0017 104.587 54.3508 104.438 49.6891L104.437 49.6405V49.5919C104.437 47.8427 104.342 46.1888 104.241 44.4419C104.181 43.4047 104.12 42.3347 104.075 41.1923ZM110.374 44.1223C110.474 45.8992 110.575 47.7635 110.576 49.5433C110.742 54.92 109.957 60.2837 108.259 65.3871L108.249 65.4174L108.238 65.4473C103.939 77.519 95.444 86.3752 85.6433 93.7522C75.8195 101.196 68.5126 112.496 64.1655 124.366C61.3846 131.959 60.2901 140.827 60.6976 149.287C61.0172 154.461 61.8485 159.59 63.1796 164.6C66.2095 174.615 71.3376 183.382 78.2611 191.097C82.6366 195.623 87.2392 199.718 92.4649 202.594L92.5339 202.633L92.6008 202.674C96.2013 204.904 99.9753 206.841 103.886 208.462C115.464 212.844 128.023 213.941 140.182 211.633L140.205 211.629L140.228 211.625C154.352 209.164 167.142 201.992 176.928 191.405C188.024 179.4 194.444 164.094 194.827 148.281C194.946 143.344 194.78 138.621 193.802 134.034L193.797 134.009L193.792 133.984C192.744 128.633 191.357 123.482 189.093 118.792L189.078 118.762L189.064 118.732C183.257 106 176.63 98.9495 173.007 95.7541C171.909 97.9502 170.354 100.96 168.593 104.055C166.272 108.133 163.458 112.603 160.778 115.491C159.892 116.556 158.697 117.323 157.353 117.682C155.966 118.053 154.498 117.969 153.162 117.444L153.133 117.433L153.104 117.42C151.771 116.864 150.657 115.892 149.923 114.654C149.205 113.442 148.888 112.036 149.015 110.635C149.302 105.152 148.728 99.6572 147.315 94.3523L147.314 94.3472L147.313 94.342C145.196 86.2799 142.022 78.5349 137.876 71.3093L137.864 71.289L137.853 71.2685C133.962 64.242 128.877 57.9515 122.828 52.6801C118.97 49.4192 114.798 46.5525 110.374 44.1223Z" fill="#FABA0D"/>
<path d="M118.472 128.169C119.322 128.639 120.045 129.1 120.819 129.535C123.21 130.844 125.462 132.392 127.543 134.156C130.778 136.98 133.498 140.35 135.577 144.114C137.766 147.938 139.442 152.037 140.559 156.303C141.326 159.191 141.636 162.183 141.477 165.168C141.436 165.567 141.523 165.968 141.727 166.313C141.931 166.658 142.239 166.928 142.608 167.082C142.978 167.228 143.384 167.251 143.769 167.148C144.152 167.045 144.494 166.821 144.741 166.509C147.784 163.254 149.757 159.044 151.382 155.031C155.937 158.715 159.462 163.266 161.82 168.552C163.061 171.128 163.802 173.916 164.349 176.719C164.886 179.244 164.969 181.804 164.907 184.386C164.701 192.893 161.257 201.098 155.34 207.516C150.112 213.185 143.266 217.039 135.687 218.363C129.177 219.601 122.451 219.01 116.253 216.654C114.167 215.789 112.154 214.754 110.234 213.563C107.353 211.972 104.866 209.736 102.579 207.363C98.8811 203.238 96.1287 198.53 94.5065 193.141C93.7943 190.461 93.3501 187.718 93.1802 184.95C92.9622 180.44 93.5396 175.676 95.0469 171.551C97.3455 165.26 101.235 159.188 106.557 155.147C111.445 151.459 115.524 147.148 117.58 141.364C118.393 138.916 118.767 136.343 118.685 133.763C118.685 131.896 118.472 130.034 118.472 128.169Z" fill="#FABA0D"/>
</svg>
