<svg width="166" height="166" viewBox="0 0 166 166" fill="none" xmlns="http://www.w3.org/2000/svg">
<path d="M138.614 100.445C138.614 120.217 114.483 128.252 84.5216 128.252C54.5603 128.252 30.0784 120.217 30.0784 100.445C30.0784 80.6724 54.3846 64.673 84.346 64.673C114.307 64.673 138.614 80.7074 138.614 100.445Z" fill="#24A95A"/>
<path d="M133.103 57.3472C133.103 46.937 124.603 38.4832 114.136 38.4832C108.693 38.4832 103.787 40.7719 100.33 44.4171C99.7944 44.9818 99.0118 45.2569 98.249 45.1029C93.869 44.2185 89.2355 43.7232 84.4555 43.7232C79.676 43.7232 75.043 44.1893 70.6634 45.095C69.8998 45.2529 69.1138 44.9823 68.575 44.4186C65.09 40.7725 60.1867 38.4832 54.7752 38.4832C44.308 38.4832 35.8079 46.937 35.8079 57.3472C35.8079 60.3834 36.5262 63.2273 37.7913 65.757C38.0943 66.3628 38.1248 67.0721 37.8627 67.6966C36.6353 70.6212 35.9835 73.7091 35.9835 76.9098C35.9835 95.2498 57.6905 110.096 84.4555 110.096C111.221 110.096 132.928 95.2498 132.928 76.9098C132.928 73.7091 132.276 70.6212 131.048 67.6966C130.786 67.0721 130.817 66.3628 131.12 65.757C132.385 63.2273 133.103 60.3834 133.103 57.3472Z" fill="#32DA6D"/>
<path d="M53.2271 67.8119C59.6287 67.8119 64.8183 62.6506 64.8183 56.2839C64.8183 49.9171 59.6287 44.7559 53.2271 44.7559C46.8255 44.7559 41.636 49.9171 41.636 56.2839C41.636 62.6506 46.8255 67.8119 53.2271 67.8119Z" fill="white"/>
<path d="M115.065 67.8119C121.466 67.8119 126.656 62.6506 126.656 56.2839C126.656 49.9171 121.466 44.7559 115.065 44.7559C108.663 44.7559 103.474 49.9171 103.474 56.2839C103.474 62.6506 108.663 67.8119 115.065 67.8119Z" fill="white"/>
<path d="M47.0759 126.829C49.5698 126.829 51.5368 124.663 51.2558 122.218C50.2372 113.554 45.9168 94.795 26.9144 83.5115C6.08368 71.1387 15.9941 104.034 20.1365 116.019C20.9744 118.443 20.0027 121.135 17.7783 122.411L16.4121 123.196C14.6559 124.209 15.3935 126.829 17.3956 126.829H47.0759Z" fill="#32DA6D"/>
<path d="M122.566 126.829C120.318 126.829 118.562 124.663 118.808 122.218C119.686 113.589 123.62 94.795 140.761 83.5115C159.741 71.0426 150.503 104.547 146.815 116.294C146.092 118.598 146.982 121.106 149.022 122.399L150.28 123.196C151.86 124.209 151.193 126.829 149.402 126.829H122.566Z" fill="#32DA6D"/>
<path d="M53.2428 63.1787C57.0617 63.1787 60.1576 60.0828 60.1576 56.2639C60.1576 52.445 57.0617 49.3491 53.2428 49.3491C49.4239 49.3491 46.328 52.445 46.328 56.2639C46.328 60.0828 49.4239 63.1787 53.2428 63.1787Z" fill="#092511"/>
<path d="M115.081 63.1787C118.9 63.1787 121.995 60.0828 121.995 56.2639C121.995 52.445 118.9 49.3491 115.081 49.3491C111.262 49.3491 108.166 52.445 108.166 56.2639C108.166 60.0828 111.262 63.1787 115.081 63.1787Z" fill="#092511"/>
<path d="M99.7995 83.0176C101.514 83.1651 102.81 84.6862 102.378 86.3518C102.029 87.6979 101.529 89.0039 100.886 90.2442C99.763 92.409 98.2246 94.3315 96.3586 95.9018C94.4927 97.4722 92.3357 98.6596 90.0108 99.3963C87.686 100.133 85.2388 100.405 82.809 100.196C80.3791 99.9866 78.0143 99.301 75.8494 98.178C73.6846 97.0551 71.7621 95.5167 70.1917 93.6507C68.6214 91.7848 67.434 89.6278 66.6972 87.3029C66.1701 85.6396 65.8811 83.9135 65.8359 82.1761C65.806 81.0294 66.8244 80.1808 67.9673 80.2791L84.4007 81.6928L99.7995 83.0176Z" fill="#092511"/>
</svg>
