<svg width="256" height="256" viewBox="0 0 256 256" fill="none" xmlns="http://www.w3.org/2000/svg">
<g clip-path="url(#clip0_2818_139)">
<mask id="mask0_2818_139" style="mask-type:luminance" maskUnits="userSpaceOnUse" x="0" y="0" width="256" height="256">
<path d="M256 0H0V256H256V0Z" fill="white"/>
</mask>
<g mask="url(#mask0_2818_139)">
<path d="M256 0H0V256H256V0Z" fill="white"/>
</g>
<path d="M200.504 128.308L208.168 119.311L204.836 116.867L210.168 111.98L206.058 108.87L211.39 104.871L207.946 102.205L213.5 75.1029L205.058 50M205.058 50L150.854 70.1046H105.646L51.4417 50L43 75.1029L48.6648 102.205L45.1104 104.871L50.5531 108.87L46.4433 111.98L51.7749 116.867L48.4427 119.311L56.1068 128.308L44.444 164.296L55.2182 201.062L93.0948 190.621L100.426 196.619L115.421 206.838H141.079L156.074 196.619L163.405 190.621L201.393 201.062L212.278 164.296L200.504 128.308" fill="#F5841F"/>
<path d="M205.059 50L138.525 98.984L150.855 70.1046L205.059 50Z" fill="#E27625"/>
<path d="M51.4414 50L117.42 99.4283L105.646 70.1046L51.4414 50Z" fill="#E27625"/>
<path d="M181.178 163.629L163.406 190.51L201.394 200.951L212.279 164.185L181.178 163.629Z" fill="#E27625"/>
<path d="M44.4453 164.185L55.2196 200.951L93.0961 190.51L75.4352 163.629L44.4453 164.185Z" fill="#E27625"/>
<path d="M91.097 118.089L80.5449 133.973L118.088 135.639L116.866 95.4297L91.097 118.089Z" fill="#E27625"/>
<path d="M165.517 118.089L139.303 94.9854L138.525 135.639L176.069 133.973L165.517 118.089Z" fill="#E27625"/>
<path d="M93.0938 190.51L115.864 179.624L96.2039 164.518L93.0938 190.51Z" fill="#E27625"/>
<path d="M140.746 179.624L163.405 190.51L160.295 164.518L140.746 179.624Z" fill="#E27625"/>
<path d="M163.405 190.51L140.746 179.625L142.634 194.286L142.412 200.507L163.405 190.51Z" fill="#D7C1B3"/>
<path d="M93.0938 190.51L114.198 200.507L114.087 194.286L115.864 179.625L93.0938 190.51Z" fill="#D7C1B3"/>
<path d="M114.531 154.744L95.7598 149.301L109.089 143.192L114.531 154.744Z" fill="#2F343B"/>
<path d="M141.967 154.744L147.521 143.192L160.85 149.301L141.967 154.744Z" fill="#2F343B"/>
<path d="M93.0945 190.51L96.4267 163.629L75.4336 164.185L93.0945 190.51Z" fill="#CC6228"/>
<path d="M160.184 163.629L163.405 190.51L181.177 164.185L160.184 163.629Z" fill="#CC6228"/>
<path d="M176.069 133.973L138.525 135.639L141.969 154.744L147.522 143.192L160.851 149.301L176.069 133.973Z" fill="#CC6228"/>
<path d="M95.7622 149.301L109.091 143.192L114.534 154.744L118.088 135.639L80.5449 133.973L95.7622 149.301Z" fill="#CC6228"/>
<path d="M80.5449 133.973L96.2065 164.518L95.7622 149.301L80.5449 133.973Z" fill="#E27625"/>
<path d="M160.85 149.301L160.295 164.518L176.068 133.973L160.85 149.301Z" fill="#E27625"/>
<path d="M118.088 135.639L114.533 154.744L118.976 177.403L119.976 147.635L118.088 135.639Z" fill="#E27625"/>
<path d="M138.525 135.639L136.637 147.524L137.525 177.403L141.968 154.744L138.525 135.639Z" fill="#E27625"/>
<path d="M141.966 154.743L137.523 177.403L140.745 179.624L160.294 164.518L160.849 149.301L141.966 154.743Z" fill="#F5841F"/>
<path d="M95.7598 149.301L96.2041 164.518L115.864 179.624L118.974 177.403L114.531 154.743L95.7598 149.301Z" fill="#F5841F"/>
<path d="M142.411 200.507L142.633 194.286L140.856 192.842H115.642L114.087 194.286L114.198 200.507L93.0938 190.51L100.425 196.508L115.42 206.838H141.078L156.073 196.508L163.404 190.51L142.411 200.507Z" fill="#C0AD9E"/>
<path d="M140.746 179.625L137.525 177.403H118.975L115.865 179.625L114.088 194.287L115.643 192.843H140.857L142.634 194.287L140.746 179.625Z" fill="#2F343B"/>
<path d="M207.946 102.205L213.5 75.1029L205.058 50L140.746 97.3179L165.516 118.089L200.504 128.308L208.169 119.311L204.836 116.867L210.168 112.091L206.058 108.87L211.39 104.871L207.946 102.205Z" fill="#763E1A"/>
<path d="M43 75.1029L48.6648 102.205L45.1104 104.871L50.442 108.981L46.3322 112.091L51.6638 116.867L48.3316 119.311L56.1068 128.308L91.0954 118.089L115.865 97.3179L51.4417 50L43 75.1029Z" fill="#763E1A"/>
<path d="M200.504 128.308L165.515 118.089L176.068 133.973L160.295 164.518L181.177 164.185H212.278L200.504 128.308Z" fill="#F5841F"/>
<path d="M91.0968 118.089L56.1082 128.308L44.4453 164.185H75.4352L96.2062 164.518L80.5447 133.973L91.0968 118.089Z" fill="#F5841F"/>
<path d="M138.525 135.639L140.746 97.3178L150.854 70.1045H105.646L115.865 97.3178L118.087 135.639L118.975 147.635V177.403H137.525L137.636 147.635L138.525 135.639Z" fill="#F5841F"/>
</g>
<defs>
<clipPath id="clip0_2818_139">
<rect width="256" height="256" fill="white"/>
</clipPath>
</defs>
</svg>
