<svg width="256" height="256" viewBox="0 0 256 256" fill="none" xmlns="http://www.w3.org/2000/svg">
<g clip-path="url(#clip0_2819_221)">
<path d="M256 0H0V256H256V0Z" fill="#8697FF"/>
<path d="M219.06 138.977C226.287 122.847 190.559 77.7831 156.427 59.0083C134.913 44.4637 112.495 46.4619 107.955 52.848C97.9908 66.863 140.949 78.7389 169.679 92.5964C163.503 95.2767 157.683 100.086 154.261 106.236C143.55 94.553 120.041 84.493 92.4571 92.5964C73.8678 98.0578 58.4194 110.932 52.4485 130.378C50.9974 129.734 49.3911 129.376 47.7012 129.376C41.2391 129.376 36 134.61 36 141.066C36 147.523 41.2391 152.757 47.7012 152.757C48.8992 152.757 52.6445 151.954 52.6445 151.954L112.495 152.388C88.5598 190.325 69.6438 195.87 69.6438 202.443C69.6438 209.015 87.7426 207.234 94.5389 204.784C127.071 193.056 162.012 156.506 168.008 145.984C193.187 149.123 214.348 149.495 219.06 138.977Z" fill="url(#paint0_linear_2819_221)"/>
<path fill-rule="evenodd" clip-rule="evenodd" d="M169.974 92.9981C169.976 92.9987 169.977 92.9994 169.979 93C171.301 92.4656 171.087 90.4628 170.724 88.8897C169.89 85.2735 155.497 70.6897 141.982 64.1575C123.566 55.2567 110.005 55.715 108 59.8168C111.751 67.7067 129.143 75.1144 147.307 82.8517C155.056 86.1522 162.947 89.5127 169.978 92.9962C169.977 92.9968 169.975 92.9974 169.974 92.9981Z" fill="url(#paint1_linear_2819_221)"/>
<path fill-rule="evenodd" clip-rule="evenodd" d="M146 171.007C142.271 169.569 138.06 168.249 133.272 167.053C138.377 157.833 139.448 144.185 134.627 135.556C127.86 123.446 119.365 117 99.6262 117C88.7695 117 59.5389 120.691 59.0202 145.315C58.9659 147.898 59.019 150.266 59.2043 152.444L112.581 152.835C105.385 164.355 98.6456 172.899 92.7454 179.396C99.8297 181.228 105.676 182.766 111.043 184.178C116.135 185.518 120.797 186.744 125.675 188C133.035 182.589 139.954 176.688 146 171.007Z" fill="url(#paint2_linear_2819_221)"/>
<path d="M52.2769 149.344C54.4672 167.967 65.0506 175.265 86.6768 177.425C108.303 179.584 120.708 178.136 137.223 179.638C151.016 180.894 163.332 187.923 167.902 185.493C172.013 183.307 169.713 175.409 164.211 170.342C157.079 163.773 147.208 159.207 129.839 157.586C133.3 148.108 132.33 134.819 126.955 127.59C119.182 117.136 104.835 112.41 86.6768 114.475C67.7055 116.632 49.5273 125.972 52.2769 149.344Z" fill="url(#paint3_linear_2819_221)"/>
</g>
<defs>
<linearGradient id="paint0_linear_2819_221" x1="90.2924" y1="124.693" x2="217.486" y2="160.796" gradientUnits="userSpaceOnUse">
<stop stop-color="white"/>
<stop offset="1" stop-color="white"/>
</linearGradient>
<linearGradient id="paint1_linear_2819_221" x1="196.184" y1="123.253" x2="102.723" y2="31.952" gradientUnits="userSpaceOnUse">
<stop stop-color="#8697FF"/>
<stop offset="1" stop-color="#8697FF" stop-opacity="0"/>
</linearGradient>
<linearGradient id="paint2_linear_2819_221" x1="148.537" y1="174.221" x2="60.5345" y2="124.084" gradientUnits="userSpaceOnUse">
<stop stop-color="#8697FF"/>
<stop offset="1" stop-color="#8697FF" stop-opacity="0"/>
</linearGradient>
<linearGradient id="paint3_linear_2819_221" x1="98.3481" y1="123.634" x2="157.842" y2="199.223" gradientUnits="userSpaceOnUse">
<stop stop-color="white"/>
<stop offset="0.983895" stop-color="#D1D8FF"/>
</linearGradient>
<clipPath id="clip0_2819_221">
<rect width="256" height="256" fill="white"/>
</clipPath>
</defs>
</svg>
