<svg width="256" height="256" viewBox="0 0 256 256" fill="none" xmlns="http://www.w3.org/2000/svg">
<g clip-path="url(#clip0_2825_362)">
<path d="M256 0H0V256H256V0Z" fill="url(#paint0_linear_2825_362)"/>
<path d="M42.666 81.0665H55.466C121.446 81.0665 174.933 134.554 174.933 200.533V213.333H200.533C207.602 213.333 213.333 207.602 213.333 200.533C213.333 113.346 142.653 42.6665 55.466 42.6665C48.3968 42.6665 42.666 48.3973 42.666 55.4665V81.0665Z" fill="url(#paint1_radial_2825_362)"/>
<path d="M179.199 200.533H213.333C213.333 207.602 207.602 213.333 200.533 213.333H179.199V200.533Z" fill="url(#paint2_linear_2825_362)"/>
<path d="M55.466 42.6665V76.7998H42.666V55.4665C42.666 48.3973 48.3968 42.6665 55.466 42.6665Z" fill="url(#paint3_linear_2825_362)"/>
<path d="M42.666 76.7998H55.466C123.802 76.7998 179.199 132.197 179.199 200.533V213.333H140.799V200.533C140.799 153.405 102.594 115.2 55.466 115.2H42.666V76.7998Z" fill="url(#paint4_radial_2825_362)"/>
<path d="M145.066 200.533H179.2V213.333H145.066V200.533Z" fill="url(#paint5_linear_2825_362)"/>
<path d="M42.666 110.933V76.7998H55.466V110.933H42.666Z" fill="url(#paint6_linear_2825_362)"/>
<path d="M42.666 132.266C42.666 139.336 48.3968 145.066 55.466 145.066C86.0994 145.066 110.933 169.9 110.933 200.533C110.933 207.602 116.663 213.333 123.733 213.333H145.066V200.533C145.066 151.048 104.951 110.933 55.466 110.933H42.666V132.266Z" fill="url(#paint7_radial_2825_362)"/>
<path d="M110.934 200.533H145.067V213.333H123.734C116.664 213.333 110.934 207.602 110.934 200.533Z" fill="url(#paint8_radial_2825_362)"/>
<path d="M55.466 145.066C48.3968 145.066 42.666 139.336 42.666 132.266V110.933H55.466V145.066Z" fill="url(#paint9_radial_2825_362)"/>
</g>
<defs>
<linearGradient id="paint0_linear_2825_362" x1="128" y1="0" x2="128" y2="256" gradientUnits="userSpaceOnUse">
<stop stop-color="#174299"/>
<stop offset="1" stop-color="#001E59"/>
</linearGradient>
<radialGradient id="paint1_radial_2825_362" cx="0" cy="0" r="1" gradientUnits="userSpaceOnUse" gradientTransform="translate(55.466 200.533) rotate(-90) scale(157.867)">
<stop offset="0.770277" stop-color="#FF4000"/>
<stop offset="1" stop-color="#8754C9"/>
</radialGradient>
<linearGradient id="paint2_linear_2825_362" x1="177.066" y1="206.933" x2="213.333" y2="206.933" gradientUnits="userSpaceOnUse">
<stop stop-color="#FF4000"/>
<stop offset="1" stop-color="#8754C9"/>
</linearGradient>
<linearGradient id="paint3_linear_2825_362" x1="49.066" y1="42.6665" x2="49.066" y2="78.9332" gradientUnits="userSpaceOnUse">
<stop stop-color="#8754C9"/>
<stop offset="1" stop-color="#FF4000"/>
</linearGradient>
<radialGradient id="paint4_radial_2825_362" cx="0" cy="0" r="1" gradientUnits="userSpaceOnUse" gradientTransform="translate(55.466 200.533) rotate(-90) scale(123.733)">
<stop offset="0.723929" stop-color="#FFF700"/>
<stop offset="1" stop-color="#FF9901"/>
</radialGradient>
<linearGradient id="paint5_linear_2825_362" x1="145.066" y1="206.933" x2="179.2" y2="206.933" gradientUnits="userSpaceOnUse">
<stop stop-color="#FFF700"/>
<stop offset="1" stop-color="#FF9901"/>
</linearGradient>
<linearGradient id="paint6_linear_2825_362" x1="49.066" y1="110.933" x2="49.066" y2="76.7998" gradientUnits="userSpaceOnUse">
<stop stop-color="#FFF700"/>
<stop offset="1" stop-color="#FF9901"/>
</linearGradient>
<radialGradient id="paint7_radial_2825_362" cx="0" cy="0" r="1" gradientUnits="userSpaceOnUse" gradientTransform="translate(55.466 200.533) rotate(-90) scale(89.6)">
<stop offset="0.59513" stop-color="#00AAFF"/>
<stop offset="1" stop-color="#01DA40"/>
</radialGradient>
<radialGradient id="paint8_radial_2825_362" cx="0" cy="0" r="1" gradientUnits="userSpaceOnUse" gradientTransform="translate(108.8 206.933) scale(36.2667 96.711)">
<stop stop-color="#00AAFF"/>
<stop offset="1" stop-color="#01DA40"/>
</radialGradient>
<radialGradient id="paint9_radial_2825_362" cx="0" cy="0" r="1" gradientUnits="userSpaceOnUse" gradientTransform="translate(49.066 147.2) rotate(-90) scale(36.2667 687.723)">
<stop stop-color="#00AAFF"/>
<stop offset="1" stop-color="#01DA40"/>
</radialGradient>
<clipPath id="clip0_2825_362">
<rect width="256" height="256" fill="white"/>
</clipPath>
</defs>
</svg>
