<svg xmlns="http://www.w3.org/2000/svg" width="56" height="56" fill="none">
  <rect width="56" height="56" fill="#519DE9"/>
  <path fill="#000" d="M18.353 35.064c.921 3.438 4.363 6.551 11.483 4.644 6.794-1.821 11.052-7.41 9.948-11.53-.381-1.423-1.53-2.387-3.3-2.23l-15.832 1.32c-.997.076-1.454-.088-1.718-.716-.256-.599-.11-1.241 1.094-1.85l12.048-6.183c.924-.47 1.539-.666 2.101-.468.352.128.584.638.371 1.267l-.781 2.306c-.959 2.83 1.094 3.488 2.25 3.178 1.751-.469 2.163-2.136 1.599-4.24-1.43-5.337-7.09-6.17-12.223-4.796-5.222 1.4-9.748 5.63-8.366 10.789.325 1.215 1.444 2.186 2.74 2.157l1.978-.005c.407-.01.26.024 1.046-.041.784-.065 2.88-.323 2.88-.323l10.286-1.164.265-.038c.602-.103 1.056.053 1.44.715.576.991-.302 1.738-1.352 2.633l-.085.072-9.041 7.792c-1.55 1.337-2.639.834-3.02-.589l-1.35-5.04c-.334-1.244-1.55-2.221-2.974-1.84-1.78.477-1.924 2.55-1.487 4.18Z"/>
</svg>