<svg xmlns="http://www.w3.org/2000/svg" width="36" height="36" viewBox="0 0 36 36" fill="none">
<rect width="36" height="36" fill="#4CA3FF"/>
<path fill-rule="evenodd" clip-rule="evenodd" d="M23.726 16.0095L23.7256 16.0105C24.7136 17.2382 25.304 18.7932 25.304 20.4845C25.304 22.2009 24.6959 23.777 23.6812 25.013L23.5939 25.1195L23.5707 24.9842C23.551 24.8692 23.5278 24.7531 23.501 24.636C22.9932 22.4249 21.3387 20.529 18.6158 18.9938C16.777 17.96 15.7244 16.7151 15.4481 15.3007C15.2696 14.3861 15.4023 13.4675 15.6587 12.6806C15.9151 11.894 16.2964 11.235 16.6204 10.8382L16.6206 10.8379L17.6798 9.55433C17.8656 9.32923 18.2132 9.32923 18.399 9.55433L23.726 16.0095ZM25.4014 14.727L25.4016 14.7266L18.3018 6.1232C18.1663 5.95893 17.9125 5.95893 17.7769 6.1232L10.6771 14.7267L10.6773 14.7271L10.6542 14.7555C9.34765 16.3622 8.5658 18.4041 8.5658 20.6268C8.5658 25.8034 12.8072 30 18.0394 30C23.2716 30 27.5129 25.8034 27.5129 20.6268C27.5129 18.4041 26.7311 16.3623 25.4246 14.7555L25.4014 14.727ZM12.3758 15.9818L12.3761 15.9814L13.0112 15.2119L13.0304 15.354C13.0456 15.4665 13.064 15.5796 13.0859 15.6932C13.4968 17.8297 14.9646 19.6112 17.4186 20.991C19.5518 22.1942 20.7938 23.5777 21.1517 25.0951C21.301 25.7284 21.3276 26.3514 21.2629 26.8962L21.2589 26.9299L21.2281 26.9448C20.2654 27.4109 19.1831 27.6726 18.0392 27.6726C14.027 27.6726 10.7743 24.4544 10.7743 20.4845C10.7743 18.78 11.3739 17.2139 12.3758 15.9818Z" fill="white"/>
</svg>