<svg width="512" height="512" fill="none" xmlns="http://www.w3.org/2000/svg"><rect width="512" height="512" fill="white"></rect><path d="M470 400c-11 8-23 14-35 15-47 4-106-42-144-47s-60 21-69 36c-5 9-6 22-6 33 0 4 0 9 2 15 2 11 30 55 94 49 69-6 109-43 150-92l6-6 2-3z" fill="#58C5F3"/><path d="M254 327c11-6 22-11 33-11 42 0 92 46 125 53 34 7 56-15 64-27 7-12 8-23 8-31l-1-12c-2-7-22-50-79-50-63 0-102 30-142 70l-5 5-3 3z" fill="#9DE2FF"/><path d="M33 296v2c0 58 47 103 104 103 24 0 45-7 63-21l1-1 1-1 1-1v-1l11-10 40-39 3-2 5-6c40-40 79-70 141-70 58 0 77 43 80 51-5-99-75-181-168-206l-3-1c-10-2-36-12-36-27V18s2-13-12-4c-36 24-67 76-95 91-69 30-120 90-134 166l-2 19v6z" fill="#58C5F3"/><path d="M255 271l-43 36-44 38c-6 6-15 4-18-7s3-52 34-72 62-20 74-13c9 7 6 11 4 13l-7 5z" fill="#fff"/></svg>