<svg width="256" height="256" viewBox="0 0 256 256" fill="none" xmlns="http://www.w3.org/2000/svg">
<rect width="256" height="256" fill="#202020"/>
<path d="M105.302 89.6223C107.973 84.9952 111.077 83.0677 114.228 82.8806C120.619 82.4577 134.908 92.9814 130.387 99.2303L138.856 114.005C144.267 118.539 149.746 122.11 155.36 124.482C154.311 128.875 156.754 130.45 159.218 131.999C155.931 126.245 162.368 123.049 165.837 128.758C169.42 133.785 170.38 139 168.234 143.064C165.06 149.148 156.547 153.657 152.688 159.319C160.543 152.202 171.11 153.001 175.288 144.731C177.889 139.609 171.384 124.436 168.349 119.314C163.646 111.445 157.78 113.723 157.117 116.261C150.885 112.854 145.338 107.451 139.677 102.94C142.325 100.616 143.832 97.2565 140.935 95.4471C134.999 91.6897 128.106 80.4612 119.158 78.2753C118.267 78.055 117.359 77.9355 116.458 77.9355C111.794 77.9355 107.232 81.0989 105.302 89.6223Z" fill="#4E4B66"/>
<path d="M120.573 223.661C127.599 223.661 134.449 222.717 140.941 220.966C100.975 231.709 76.5464 185.952 106.923 153.776C95.737 150.746 88.5484 139.47 89.2546 126.01C28.9019 170.266 57.527 223.661 120.573 223.661ZM140.953 220.963C141.015 220.946 141.077 220.93 141.14 220.913C141.078 220.929 141.014 220.947 140.953 220.963ZM140.941 220.966C140.946 220.965 140.948 220.964 140.953 220.963C140.949 220.964 140.944 220.965 140.941 220.966Z" fill="#C19CFC"/>
<path d="M128.036 77.4076C130.64 79.099 133.082 81.3539 135.341 83.6321C156.502 79.0049 143.125 58.5199 154.127 50.5107C140.227 55.3495 148.969 78.0407 128.036 77.4076Z" fill="#C19CFC"/>
<path d="M93.4097 94.0159L105.302 89.6227C102.403 65.6619 135.364 55.9368 124.225 32C123.746 59.1073 90.7382 59.7186 93.4097 94.0159Z" fill="#C19CFC"/>
<path d="M123.518 146.025C129.429 143.3 135.319 139.61 141.231 141.349C134.747 137.098 126.782 139.142 118.746 139.705C107.95 140.457 96.994 139.516 89.2549 126.01C92.5431 143.088 107.768 153.283 123.518 146.025Z" fill="#C19CFC"/>
<path d="M119.181 59.06C112.446 68.0813 103.75 76.82 105.302 89.6218C107.607 79.4497 113.657 76.9127 119.158 78.2747C128.106 80.4607 134.999 91.6892 140.935 95.4466C143.833 97.256 142.325 100.615 139.677 102.94C145.339 107.451 150.886 112.854 157.117 116.26C157.78 113.723 163.646 111.445 168.349 119.314C171.385 124.435 177.89 139.609 175.288 144.73C171.11 153 160.544 152.201 152.689 159.318C147.896 150.44 138.31 148.183 128.608 146.751C132.557 143.721 136.574 140.996 141.231 141.348C135.319 139.609 129.429 143.298 123.518 146.023C107.768 153.281 92.543 143.087 89.2548 126.008C88.5485 139.469 95.7372 150.745 106.923 153.775C76.4957 186.005 101.057 231.859 141.14 220.912C175.334 211.562 200.558 179.498 200.558 141.348C200.558 107.522 180.72 78.4637 152.37 65.8018C153.672 73.2952 155.315 80.5297 142.19 90.4434C138.058 86.8722 133.447 80.9076 128.037 77.4068C140.249 77.7829 142.349 70.2182 144.769 62.8892C136.972 60.3408 128.831 59.0469 120.65 59.0469C120.16 59.0469 119.67 59.0514 119.181 59.06ZM118.61 99.5586C120.116 99.8629 121.646 101.132 123.039 102.565C125.298 104.891 127.445 105.291 130.183 102.847L138.856 114.004L130.387 99.2298C130.274 100.405 129.338 100.686 128.197 100.615C126.212 100.49 123.707 99.0654 121.08 99.064C120.264 99.064 119.437 99.2017 118.61 99.5586ZM159.218 131.999C160.611 129.579 162.504 128.005 165.837 128.758C164.557 126.65 162.872 125.756 161.421 125.756C158.94 125.756 157.144 128.368 159.218 131.999Z" fill="#C19CFC"/>
<path d="M113.018 67.0947C108.201 73.6008 104.229 80.6032 105.302 89.6231C107.607 79.451 113.657 76.9135 119.158 78.276C128.106 80.4619 134.999 91.6905 140.935 95.4478C143.833 97.2573 142.325 100.617 139.677 102.941C145.339 107.452 150.886 112.855 157.117 116.262C157.78 113.724 163.646 111.446 168.349 119.315C171.385 124.436 177.89 139.61 175.288 144.731C171.11 153.002 160.544 152.203 152.689 159.32C147.896 150.441 138.31 148.185 128.608 146.753C132.557 143.722 136.574 140.997 141.231 141.349C135.319 139.61 129.429 143.299 123.518 146.025C107.768 153.283 92.543 143.088 89.2548 126.01C88.5485 139.47 95.7372 150.747 106.923 153.776C87.1097 174.754 90.6023 201.509 106.511 214.617C151.115 223.637 193.116 188.612 193.116 141.349C193.116 112.174 176.863 86.9212 153.146 74.6358C152.712 79.3574 150.202 84.4078 142.19 90.4447C138.058 86.8735 133.447 80.9089 128.037 77.4081C136.14 77.6429 139.815 74.4019 142.052 70.0305C135.092 67.8123 127.815 66.6982 120.533 66.6982C118.024 66.6982 115.515 66.8295 113.018 67.0947Z" fill="#202020"/>
<path d="M106.923 153.776C76.4957 186.006 101.057 231.861 141.14 220.913C95.2821 222.979 99.8238 169.375 128.905 154.129C139.359 155.585 150.132 157.442 155.315 167.025C163.144 159.932 173.712 160.707 177.912 152.437C179.602 149.126 177.457 141.586 174.923 135.288C175.927 139.166 176.314 142.736 175.288 144.732C171.11 153.002 160.544 152.203 152.689 159.32C147.896 150.441 138.31 148.185 128.608 146.753C132.557 143.722 136.574 140.997 141.231 141.349C135.319 139.61 129.429 143.3 123.518 146.025C107.768 153.283 92.543 143.088 89.2548 126.01C88.5485 139.471 95.7372 150.747 106.923 153.776Z" fill="#262338"/>
<path d="M99.666 91.7229L108.522 88.5437C105.624 64.5825 137.797 60.6943 126.554 38.4961C126.554 60.6943 95.7642 59.4848 99.666 91.7229Z" fill="#202020"/>
</svg>
