<svg width="170" height="170" viewBox="0 0 170 170" fill="none" xmlns="http://www.w3.org/2000/svg">
<rect width="170" height="170" fill="#BC8EE4"/>
<path d="M140.831 79.9619C140.831 79.9619 142.406 47.1883 101.247 46.0152C98.537 45.9785 95.8273 46.0152 93.1175 46.0518C69.1691 46.7117 31.9283 53.5671 24.8975 76.5893C24.4581 78.0557 24.1652 79.522 24.0553 80.9151C23.0666 93.7093 35.4802 103.461 49.2121 108.117C55.5471 110.243 62.1384 111.563 68.8762 112.369C75.7238 113.176 82.3517 115.448 87.4783 119.334C90.1148 121.314 93.3006 122.854 96.7793 123.77C98.3539 124.173 99.4159 125.64 99.4159 127.289V135.904H114.32V125.64C114.32 124.173 115.125 122.817 116.443 122.23C121.973 119.774 126.294 115.705 128.454 110.719C129.626 108.007 131.201 105.367 133.361 103.094C142.882 93.2327 140.831 79.9619 140.831 79.9619Z" fill="#E6FA36" stroke="black" stroke-width="3" stroke-linejoin="round"/>
<path d="M121.041 58.8553L123.555 73.0959L135.991 80.0306L123.429 87.0398L120.637 101.29L110.36 91.3841L96.1991 93.2654L102.398 80.1342L96.4364 67.0427L110.562 68.8297L121.041 58.8553Z" fill="#E6FA36" stroke="black" stroke-width="3" stroke-linecap="round" stroke-linejoin="round"/>
<path d="M80.3499 45.494L82.8781 59.7392L95.3057 66.6713L82.7531 73.6835L79.9618 87.9336L69.6689 78.0228L55.5164 79.9067L61.7158 66.7758L55.7514 53.6833L69.8813 55.4716L80.3499 45.494Z" fill="#E6FA36" stroke="black" stroke-width="3" stroke-linecap="round" stroke-linejoin="round"/>
<path d="M144.955 85.8164C146.314 84.9451 146.93 83.228 146.322 81.6637C145.742 80.1642 144.228 79.2912 142.704 79.459L135.926 80.029" stroke="black" stroke-width="3" stroke-linecap="round" stroke-linejoin="round"/>
<path d="M45.1733 52.389C44.6596 50.8591 45.2543 49.1343 46.7076 48.2952C48.0985 47.4889 49.8258 47.7564 50.9096 48.8419L55.8372 53.5302" stroke="black" stroke-width="3" stroke-linecap="round" stroke-linejoin="round"/>
<path d="M42.4403 74.3477C34.5307 81.2763 37.4968 91.8709 45.8091 96.3801C54.1215 100.889 63.4958 98.8729 69.428 92.4941" stroke="black" stroke-width="3" stroke-linecap="round" stroke-linejoin="round"/>
<path d="M74.2617 95.1694C71.1858 94.1429 68.5859 91.2468 68.0366 87.8008" stroke="black" stroke-width="3" stroke-linecap="round" stroke-linejoin="round"/>
<path d="M107.743 74C106.98 77.8111 108.966 81.7383 112.68 83.2674C116.393 84.7966 120.556 83.422 122.722 80.2197" stroke="black" stroke-width="3" stroke-linecap="round" stroke-linejoin="round"/>
<path d="M66.7427 60C65.9801 63.8111 67.9665 67.7383 71.6796 69.2674C75.3927 70.7966 79.5565 69.422 81.7224 66.2197" stroke="black" stroke-width="3" stroke-linecap="round" stroke-linejoin="round"/>
</svg>
