<svg width="170" height="170" viewBox="0 0 170 170" fill="none" xmlns="http://www.w3.org/2000/svg">
<rect width="170" height="170" fill="#BC8EE4"/>
<path d="M33.0184 83.5117C24.8405 87.6117 20 92.6953 20 98.1989C20 104.211 25.7688 109.703 35.3392 113.98C34.5766 111.969 33.9025 109.913 33.372 107.769C31.3276 99.5361 31.3165 91.2808 33.0074 83.5117H33.0184Z" fill="black" stroke="black" stroke-width="3" stroke-linecap="round" stroke-linejoin="round"/>
<path d="M151.565 98.1877C151.565 92.4521 146.294 87.1696 137.475 82.9922C139.95 93.8777 138.912 104.763 135.088 114.455C145.332 110.123 151.565 104.432 151.565 98.1877Z" fill="black" stroke="black" stroke-width="3" stroke-linecap="round" stroke-linejoin="round"/>
<path d="M137.475 82.9925C137.398 82.6388 137.331 82.2852 137.243 81.9426C130.104 53.2645 101.083 35.7925 72.4051 42.9205C51.9492 48.0041 37.2178 64.2274 33.0183 83.5119C31.3275 91.2809 31.3385 99.5362 33.383 107.769C33.9135 109.902 34.5766 111.969 35.3502 113.98C47.4182 119.362 65.5312 122.788 85.7882 122.788C106.045 122.788 123.042 119.572 135.099 114.467C138.923 104.775 139.962 93.889 137.486 83.0035L137.475 82.9925Z" fill="#E8FB3F" stroke="black" stroke-width="3" stroke-linecap="round" stroke-linejoin="round"/>
<path d="M95.8194 40.5898L103.18 50.5133L115.333 51.0634L108.41 61.2186L111.719 73.1759L100.081 69.5308L89.9768 76.3775L89.6988 63.9738L80.1419 56.2454L91.6206 52.2155L95.8194 40.5898Z" fill="#E6FA36" stroke="black" stroke-width="3" stroke-linecap="round" stroke-linejoin="round"/>
<path d="M59.6168 45.9207L66.9902 55.8423L79.1362 56.3934L72.2209 66.5474L75.5307 78.5047L63.8784 74.8616L53.7815 81.7073L53.5041 69.3035L43.9447 61.5755L55.427 57.5451L59.6168 45.9207Z" fill="#E6FA36" stroke="black" stroke-width="3" stroke-linecap="round" stroke-linejoin="round"/>
<path d="M104.862 59.4201C103.757 56.6421 100.826 54.931 97.7706 55.4674C94.7156 56.0037 92.7135 58.4431 92.4903 61.2902" stroke="black" stroke-width="3" stroke-linecap="round" stroke-linejoin="round"/>
<path d="M68.4707 64.8843C67.4793 62.0639 64.6194 60.2358 61.5452 60.6483C58.5861 61.0528 56.3719 63.4172 56.0339 66.2529" stroke="black" stroke-width="3" stroke-linecap="round" stroke-linejoin="round"/>
<path d="M72.6189 94.2794C72.2321 92.5775 72.0221 90.8425 72 89.1074" stroke="black" stroke-width="3" stroke-linecap="round" stroke-linejoin="round"/>
<path d="M72.8179 91.7047C82.1894 91.3953 91.4945 89.2071 100.026 85.3281" stroke="black" stroke-width="3" stroke-linecap="round" stroke-linejoin="round"/>
<path d="M124.395 52.0615C125.1 50.8767 124.915 49.3289 123.854 48.3655C122.838 47.4409 121.347 47.3521 120.246 48.0627L115.283 51.0872" stroke="black" stroke-width="3" stroke-linecap="round" stroke-linejoin="round"/>
<path d="M35.3662 64.6284C34.3891 63.6553 34.1849 62.1099 34.975 60.9135C35.7302 59.766 37.1525 59.3106 38.3954 59.7263L43.9522 61.4273" stroke="black" stroke-width="3" stroke-linecap="round" stroke-linejoin="round"/>
</svg>
