<svg width="170" height="170" viewBox="0 0 170 170" fill="none" xmlns="http://www.w3.org/2000/svg">
<rect width="170" height="170" fill="#BC8EE4"/>
<path d="M97.3124 136.11L97.3106 136.108C95.8597 137.402 94.4378 138.696 93.0508 139.958C92.9118 140.084 92.7732 140.21 92.635 140.336L92.6319 140.339C91.3936 141.471 90.18 142.574 88.882 143.284C87.631 143.968 86.4485 144.206 85.2044 143.791L85.1962 143.788C83.7226 143.306 82.4831 142.299 81.0394 141.065L81.0346 141.061C69.5929 131.371 58.7435 121.336 49.1096 109.98L49.109 109.98C39.8183 99.0424 32.6009 86.0985 32.5004 71.5956C32.435 59.9718 39.9237 47.9576 52.0083 44.1665L52.0118 44.1654C59.6614 41.7448 67.6117 43.1541 72.9858 48.5952L72.9882 48.5976C77.4581 53.1028 79.2436 57.9958 80.1639 63.2751C80.6183 65.8815 80.8581 68.5585 81.1085 71.3546L81.1254 71.5428C81.3764 74.3446 81.6426 77.2572 82.1587 80.2068V80.2761L82.1815 80.4054C83.0002 85.0478 89.5839 84.9103 90.3873 80.4084L90.4107 80.2777V80.2068C90.9267 77.2572 91.1929 74.3445 91.444 71.5428L91.4608 71.3549C91.7113 68.5587 91.951 65.8816 92.4054 63.2751C93.3256 57.996 95.1111 53.1034 99.5804 48.5983C104.952 43.192 112.903 41.8112 120.562 44.2012C132.646 47.9925 140.134 60.0067 140.069 71.6303C139.985 85.2034 134.247 96.921 126.008 107.483C118.29 117.377 108.468 126.147 99.2045 134.419C98.5709 134.985 97.94 135.549 97.3124 136.11Z" fill="#E6FA36" stroke="black" stroke-width="3"/>
<path d="M108.191 96.9258C105.91 106.883 96.8575 114.213 86.2498 113.971C75.6421 113.729 67.5914 106.503 65.3455 96.9604" stroke="black" stroke-width="3" stroke-linecap="round" stroke-linejoin="round"/>
<path d="M59.126 96.926C62.7195 97.6521 66.8658 96.2691 69.319 93.2266" stroke="black" stroke-width="3" stroke-linecap="round" stroke-linejoin="round"/>
<path d="M58.732 39.6897L67.7071 55.5875L85.4032 58.6344L73.398 72.2382L76.0432 90.3695L59.6407 82.883L43.5835 91.0524L45.4638 72.8259L32.8811 59.7394L50.4494 55.9506L58.732 39.6897Z" fill="#E6FA36" stroke="black" stroke-width="3" stroke-linecap="round" stroke-linejoin="round"/>
<path d="M112.763 38.5528L121.719 54.451L139.426 57.4977L127.409 71.1017L130.053 89.2331L113.672 81.7461L97.6034 89.9158L99.483 71.6892L86.9041 58.6027L104.467 54.8139L112.763 38.5528Z" fill="#E6FA36" stroke="black" stroke-width="3" stroke-linecap="round" stroke-linejoin="round"/>
<path d="M152.521 60.6302C153.773 59.0241 153.787 56.7221 152.409 55.1146C151.091 53.5724 148.923 53.1674 147.178 54.0057L139.349 57.5226" stroke="black" stroke-width="3" stroke-linecap="round" stroke-linejoin="round"/>
<path d="M19.7483 62.6302C18.496 61.0241 18.4816 58.7221 19.8601 57.1146C21.1781 55.5724 23.3462 55.1674 25.0908 56.0057L32.9197 59.5226" stroke="black" stroke-width="3" stroke-linecap="round" stroke-linejoin="round"/>
<path d="M65 66.5254C64.3592 63.1151 61.4507 60.5254 58 60.5254C54.5493 60.5254 51.6408 63.0895 51 66.5254" fill="#E6FA36"/>
<path d="M65 66.5254C64.3592 63.1151 61.4507 60.5254 58 60.5254C54.5493 60.5254 51.6408 63.0895 51 66.5254" stroke="black" stroke-width="3" stroke-linecap="round" stroke-linejoin="round"/>
<path d="M122 66.5254C121.359 63.1151 118.451 60.5254 115 60.5254C111.549 60.5254 108.641 63.0895 108 66.5254" fill="#E6FA36"/>
<path d="M122 66.5254C121.359 63.1151 118.451 60.5254 115 60.5254C111.549 60.5254 108.641 63.0895 108 66.5254" stroke="black" stroke-width="3" stroke-linecap="round" stroke-linejoin="round"/>
</svg>
