<svg width="170" height="170" viewBox="0 0 170 170" fill="none" xmlns="http://www.w3.org/2000/svg">
<rect width="170" height="170" fill="#BC8EE4"/>
<path d="M139.186 78.9434C138.556 76.6078 137.541 74.4466 136.281 72.5293C137.296 68.8342 137.401 64.7906 136.281 60.8166C133.936 52.2413 126.901 46.2455 118.676 44.7466C113.321 37.7747 104.081 34.3237 95.0505 36.7987C92.9155 37.3913 90.9205 38.2628 89.1005 39.3783C83.9905 36.2409 77.6905 35.1254 71.4605 36.7987C66.7005 38.0885 62.7105 40.8423 59.8405 44.4328C57.8805 44.4328 55.8855 44.642 53.8905 45.1997C44.8255 47.6747 38.5605 55.3438 37.5455 64.0934C30.0205 69.3223 26.2405 78.8388 28.7955 88.1462C31.8755 99.3709 43.0405 106.238 54.3105 104.251C59.5255 111.885 69.2205 115.79 78.6705 113.21C79.9655 112.861 81.1555 112.408 82.3105 111.85C85.0755 117.567 89.9055 121.855 95.6105 124.086C98.2005 125.097 100.056 127.467 100.056 130.256V134.997H114.091V128.234C114.091 125.759 115.456 123.493 117.591 122.204C124.241 118.195 128.581 111.293 129.421 103.693C137.611 98.6388 141.846 88.6343 139.186 78.9085V78.9434Z" fill="#E6FA36" stroke="black" stroke-width="3" stroke-linecap="round" stroke-linejoin="round"/>
<path d="M68.9104 64.8248C68.2104 61.1995 64.9904 58.4805 61.1754 58.4805C57.3604 58.4805 54.1404 61.1995 53.4404 64.8248" stroke="black" stroke-width="3" stroke-linecap="round" stroke-linejoin="round"/>
<path d="M120.68 64.8248C119.98 61.1995 116.76 58.4805 112.945 58.4805C109.13 58.4805 105.91 61.1995 105.21 64.8248" stroke="black" stroke-width="3" stroke-linecap="round" stroke-linejoin="round"/>
<path d="M64.0508 88.9526C67.6908 89.6846 71.8908 88.2903 74.3758 85.2227" stroke="black" stroke-width="3" stroke-linecap="round" stroke-linejoin="round"/>
<path d="M70.2808 89.3711C70.2808 89.3711 73.0108 97.7373 80.9208 97.7373H97.9658" stroke="black" stroke-width="3" stroke-linecap="round" stroke-linejoin="round"/>
<path d="M96.4021 65.6637C95.5302 61.0236 91.5729 57.5 86.8778 57.5C82.1827 57.5 78.2255 60.9888 77.3535 65.6637" stroke="black" stroke-width="3" stroke-linecap="round" stroke-linejoin="round"/>
<path d="M140.414 63.9435C141.55 62.4867 141.563 60.3985 140.313 58.9404C139.117 57.5415 137.151 57.1742 135.568 57.9346L128.467 61.1247" stroke="black" stroke-width="3" stroke-linecap="round" stroke-linejoin="round"/>
<path d="M33.5856 65.758C32.4497 64.3012 32.4367 62.213 33.687 60.7549C34.8826 59.356 36.8492 58.9886 38.4317 59.749L45.5331 62.9392" stroke="black" stroke-width="3" stroke-linecap="round" stroke-linejoin="round"/>
<circle cx="112.73" cy="66.5704" r="15.7345" stroke="black" stroke-width="3"/>
<circle cx="61.0265" cy="66.5704" r="15.7345" stroke="black" stroke-width="3"/>
</svg>
