<svg width="170" height="170" viewBox="0 0 170 170" fill="none" xmlns="http://www.w3.org/2000/svg">
<rect width="170" height="170" fill="#BC8EE4"/>
<path d="M138.186 80.9434C137.556 78.6078 136.541 76.4466 135.281 74.5293C136.296 70.8342 136.401 66.7906 135.281 62.8166C132.936 54.2413 125.901 48.2455 117.676 46.7466C112.321 39.7747 103.081 36.3237 94.0505 38.7987C91.9155 39.3913 89.9205 40.2628 88.1005 41.3783C82.9905 38.2409 76.6905 37.1254 70.4605 38.7987C65.7005 40.0885 61.7105 42.8423 58.8405 46.4328C56.8805 46.4328 54.8855 46.642 52.8905 47.1997C43.8255 49.6747 37.5605 57.3438 36.5455 66.0934C29.0205 71.3223 25.2405 80.8388 27.7955 90.1462C30.8755 101.371 42.0405 108.238 53.3105 106.251C58.5255 113.885 68.2205 117.79 77.6705 115.21C78.9655 114.861 80.1555 114.408 81.3105 113.85C84.0755 119.567 88.9055 123.855 94.6105 126.086C97.2005 127.097 99.0555 129.467 99.0555 132.256V136.997H113.091V130.234C113.091 127.759 114.456 125.493 116.591 124.204C123.241 120.195 127.581 113.293 128.421 105.693C136.611 100.639 140.846 90.6343 138.186 80.9085V80.9434Z" fill="#E6FA36" stroke="black" stroke-width="3" stroke-linecap="round" stroke-linejoin="round"/>
<path d="M107.249 46.5787L114.244 59.2355L128.256 61.7651L118.644 72.4676L120.622 86.8531L107.688 80.8134L94.9019 87.183L96.51 72.7515L86.6269 62.2991L100.569 59.4109L107.249 46.5787Z" fill="#E6FA36" stroke="black" stroke-width="3" stroke-linecap="round" stroke-linejoin="round"/>
<path d="M64.4247 47.1276L71.4336 59.7843L85.4372 62.314L75.8351 73.0163L77.8134 87.4018L64.8638 81.3623L52.086 87.7318L53.6946 73.3003L43.8086 62.8479L57.7553 59.9597L64.4247 47.1276Z" fill="#E6FA36" stroke="black" stroke-width="3" stroke-linecap="round" stroke-linejoin="round"/>
<path d="M138.611 64.3315C139.614 63.0669 139.64 61.2427 138.559 59.9599C137.524 58.7291 135.809 58.3941 134.421 59.047L128.194 61.7831" stroke="black" stroke-width="3" stroke-linecap="round" stroke-linejoin="round"/>
<path d="M33.3817 65.0534C32.3998 63.7725 32.4034 61.9481 33.5062 60.6832C34.5607 59.4697 36.2815 59.1629 37.6585 59.8385L43.8397 62.6765" stroke="black" stroke-width="3" stroke-linecap="round" stroke-linejoin="round"/>
<path d="M71.9104 68.8248C71.2104 65.1995 67.9904 62.4805 64.1754 62.4805C60.3604 62.4805 57.1404 65.1995 56.4404 68.8248" stroke="black" stroke-width="3" stroke-linecap="round" stroke-linejoin="round"/>
<path d="M114.68 68.8248C113.98 65.1995 110.76 62.4805 106.945 62.4805C103.13 62.4805 99.9104 65.1995 99.2104 68.8248" stroke="black" stroke-width="3" stroke-linecap="round" stroke-linejoin="round"/>
<path d="M59.0508 93.9526C62.6908 94.6846 66.8908 93.2903 69.3758 90.2227" stroke="black" stroke-width="3" stroke-linecap="round" stroke-linejoin="round"/>
<path d="M65.2808 94.3711C65.2808 94.3711 68.0108 102.737 75.9208 102.737H92.9658" stroke="black" stroke-width="3" stroke-linecap="round" stroke-linejoin="round"/>
</svg>
