<svg width="170" height="170" viewBox="0 0 170 170" fill="none" xmlns="http://www.w3.org/2000/svg">
<circle cx="85" cy="85" r="85" fill="#BC8EE4"/>
<path d="M97.3124 136.11L97.3106 136.108C95.8597 137.402 94.4378 138.696 93.0508 139.958C92.9118 140.084 92.7732 140.21 92.635 140.336L92.6319 140.339C91.3936 141.471 90.18 142.574 88.882 143.284C87.631 143.968 86.4485 144.206 85.2044 143.791L85.1962 143.788C83.7226 143.306 82.4831 142.299 81.0394 141.065L81.0346 141.061C69.5929 131.371 58.7435 121.336 49.1096 109.98L49.109 109.98C39.8183 99.0424 32.6009 86.0985 32.5004 71.5956C32.435 59.9718 39.9237 47.9576 52.0083 44.1665L52.0118 44.1654C59.6614 41.7448 67.6117 43.1541 72.9858 48.5952L72.9882 48.5976C77.4581 53.1028 79.2436 57.9958 80.1639 63.2751C80.6183 65.8815 80.8581 68.5585 81.1085 71.3546L81.1254 71.5428C81.3764 74.3446 81.6426 77.2572 82.1587 80.2068V80.2761L82.1815 80.4054C83.0002 85.0478 89.5839 84.9103 90.3873 80.4084L90.4107 80.2777V80.2068C90.9267 77.2572 91.1929 74.3445 91.444 71.5428L91.4608 71.3549C91.7113 68.5587 91.951 65.8816 92.4054 63.2751C93.3256 57.996 95.1111 53.1034 99.5804 48.5983C104.952 43.192 112.903 41.8112 120.562 44.2012C132.646 47.9925 140.134 60.0067 140.069 71.6303C139.985 85.2034 134.247 96.921 126.008 107.483C118.29 117.377 108.468 126.147 99.2045 134.419C98.5709 134.985 97.94 135.549 97.3124 136.11Z" fill="#E6FA36" stroke="black" stroke-width="3"/>
<path d="M108.189 96.9258C105.909 106.883 96.8558 114.213 86.2481 113.971C75.6404 113.729 67.5897 106.503 65.3438 96.9604" stroke="black" stroke-width="3" stroke-linecap="round" stroke-linejoin="round"/>
<path d="M59.125 96.926C62.7185 97.6521 66.8648 96.2691 69.318 93.2266" stroke="black" stroke-width="3" stroke-linecap="round" stroke-linejoin="round"/>
<path d="M58.7337 39.6897L67.7088 55.5875L85.4049 58.6344L73.3997 72.2382L76.0449 90.3695L59.6424 82.883L43.5852 91.0524L45.4655 72.8259L32.8828 59.7394L50.4511 55.9506L58.7337 39.6897Z" fill="#E6FA36" stroke="black" stroke-width="3" stroke-linecap="round" stroke-linejoin="round"/>
<path d="M112.761 38.5528L121.718 54.451L139.424 57.4977L127.407 71.1017L130.052 89.2331L113.67 81.7461L97.6016 89.9158L99.4813 71.6892L86.9024 58.6027L104.465 54.8139L112.761 38.5528Z" fill="#E6FA36" stroke="black" stroke-width="3" stroke-linecap="round" stroke-linejoin="round"/>
<path d="M152.52 60.6302C153.772 59.0241 153.786 56.7221 152.408 55.1146C151.09 53.5724 148.922 53.1674 147.177 54.0057L139.348 57.5226" stroke="black" stroke-width="3" stroke-linecap="round" stroke-linejoin="round"/>
<path d="M19.7497 62.6302C18.4975 61.0241 18.4831 58.7221 19.8615 57.1146C21.1796 55.5724 23.3477 55.1674 25.0923 56.0057L32.9212 59.5226" stroke="black" stroke-width="3" stroke-linecap="round" stroke-linejoin="round"/>
<path d="M65 66.5254C64.3592 63.1151 61.4507 60.5254 58 60.5254C54.5493 60.5254 51.6408 63.0895 51 66.5254" fill="#E6FA36"/>
<path d="M65 66.5254C64.3592 63.1151 61.4507 60.5254 58 60.5254C54.5493 60.5254 51.6408 63.0895 51 66.5254" stroke="black" stroke-width="3" stroke-linecap="round" stroke-linejoin="round"/>
<path d="M122 66.5254C121.359 63.1151 118.451 60.5254 115 60.5254C111.549 60.5254 108.641 63.0895 108 66.5254" fill="#E6FA36"/>
<path d="M122 66.5254C121.359 63.1151 118.451 60.5254 115 60.5254C111.549 60.5254 108.641 63.0895 108 66.5254" stroke="black" stroke-width="3" stroke-linecap="round" stroke-linejoin="round"/>
</svg>
