<svg width="170" height="170" viewBox="0 0 170 170" fill="none" xmlns="http://www.w3.org/2000/svg">
<rect width="170" height="170" fill="#BC8EE4"/>
<path d="M77.5497 36.7694L74.5985 39.3909C73.9538 39.9634 73.3056 40.5383 72.6545 41.1155C63.3253 49.3874 53.4335 58.1581 45.6603 68.0528C37.3628 78.6148 31.5848 90.3307 31.5004 103.9L77.5497 36.7694ZM77.5497 36.7694H77.4932M77.5497 36.7694H77.4932M77.4932 36.7694C77.95 36.3576 78.4033 35.9481 78.8529 35.5418C78.9925 35.4157 79.1318 35.2899 79.2707 35.1644L79.2738 35.1616C80.5205 34.0291 81.7437 32.9252 83.0524 32.2146C84.3145 31.5293 85.5115 31.2893 86.7715 31.7066L86.7797 31.7093C88.2672 32.1925 89.5173 33.2019 90.9706 34.4346L90.9754 34.4387C102.499 44.1291 113.425 54.1649 123.128 65.5204L123.128 65.5211C132.486 76.4594 139.753 89.4024 139.854 103.902L139.854 103.905C139.953 115.517 132.418 127.534 120.204 131.329L120.2 131.33C112.489 133.753 104.472 132.342 99.0568 126.93C94.5547 122.424 92.7571 117.532 91.8306 112.254C91.3731 109.648 91.1317 106.972 90.8794 104.176L90.8625 103.988C90.6096 101.186 90.3415 98.2733 89.8219 95.3235V95.2542L89.7988 95.1241C88.9747 90.4847 82.365 90.621 81.5562 95.1211L81.5326 95.2527V95.3235C81.0129 98.2733 80.7448 101.186 80.492 103.988L80.475 104.175C80.2228 106.972 79.9813 109.648 79.5238 112.254C78.5973 117.532 76.7998 122.424 72.2977 126.93C66.885 132.339 58.8689 133.721 51.1494 131.329C38.9715 127.534 31.4345 115.517 31.5004 103.901L77.4932 36.7694Z" fill="#E6FA36" stroke="black" stroke-width="3"/>
<path d="M63.6152 97.1077C65.9119 87.1502 75.029 79.8204 85.712 80.0625C96.3949 80.3045 104.503 87.5306 106.765 97.0731" stroke="black" stroke-width="3" stroke-linecap="round" stroke-linejoin="round"/>
<path d="M113.029 97.1078C109.41 96.3817 105.234 97.7647 102.763 100.807" stroke="black" stroke-width="3" stroke-linecap="round" stroke-linejoin="round"/>
<path d="M57.0005 69.0059C57.6413 72.4161 60.5498 75.0059 64.0005 75.0059C67.4512 75.0059 70.3596 72.4418 71.0005 69.0059" fill="#E6FA36"/>
<path d="M57.0005 69.0059C57.6413 72.4161 60.5498 75.0059 64.0005 75.0059C67.4512 75.0059 70.3596 72.4418 71.0005 69.0059" stroke="black" stroke-width="3" stroke-linecap="round" stroke-linejoin="round"/>
<path d="M100 69.0059C100.641 72.4161 103.549 75.0059 107 75.0059C110.451 75.0059 113.359 72.4418 114 69.0059" fill="#E6FA36"/>
<path d="M100 69.0059C100.641 72.4161 103.549 75.0059 107 75.0059C110.451 75.0059 113.359 72.4418 114 69.0059" stroke="black" stroke-width="3" stroke-linecap="round" stroke-linejoin="round"/>
<path d="M93.5607 67.2356C92.8256 63.324 89.4896 60.3535 85.5315 60.3535C81.5735 60.3535 78.2375 63.2946 77.5024 67.2356" stroke="black" stroke-width="3" stroke-linecap="round" stroke-linejoin="round"/>
<path d="M130.663 65.7847C131.621 64.5566 131.632 62.7963 130.578 61.5671C129.57 60.3878 127.912 60.0781 126.578 60.7191L120.591 63.4085" stroke="black" stroke-width="3" stroke-linecap="round" stroke-linejoin="round"/>
<path d="M40.6052 67.314C39.6477 66.0859 39.6367 64.3256 40.6907 63.0964C41.6986 61.9171 43.3565 61.6074 44.6906 62.2484L50.6771 64.9378" stroke="black" stroke-width="3" stroke-linecap="round" stroke-linejoin="round"/>
<circle cx="107.325" cy="67.9996" r="13.0289" stroke="black" stroke-width="3"/>
<circle cx="63.7381" cy="67.9996" r="13.0289" stroke="black" stroke-width="3"/>
</svg>
