<svg width="170" height="170" viewBox="0 0 170 170" fill="none" xmlns="http://www.w3.org/2000/svg">
<rect width="170" height="170" fill="#BC8EE4"/>
<path d="M76.5497 36.7694L73.5985 39.3909C72.9538 39.9634 72.3056 40.5383 71.6545 41.1155C62.3253 49.3874 52.4335 58.1581 44.6603 68.0528C36.3628 78.6148 30.5848 90.3307 30.5004 103.9L76.5497 36.7694ZM76.5497 36.7694H76.4932M76.5497 36.7694H76.4932M76.4932 36.7694C76.95 36.3576 77.4033 35.9481 77.8529 35.5418C77.9925 35.4157 78.1318 35.2899 78.2707 35.1644L78.2738 35.1616C79.5205 34.0291 80.7437 32.9252 82.0524 32.2146C83.3145 31.5293 84.5115 31.2893 85.7715 31.7066L85.7797 31.7093C87.2672 32.1925 88.5173 33.2019 89.9706 34.4346L89.9754 34.4387C101.499 44.1291 112.425 54.1649 122.128 65.5204L122.128 65.5211C131.486 76.4594 138.753 89.4024 138.854 103.902L138.854 103.905C138.953 115.517 131.418 127.534 119.204 131.329L119.2 131.33C111.489 133.753 103.472 132.342 98.0568 126.93C93.5547 122.424 91.7571 117.532 90.8306 112.254C90.3731 109.648 90.1317 106.972 89.8794 104.176L89.8625 103.988C89.6096 101.186 89.3415 98.2733 88.8219 95.3235V95.2542L88.7988 95.1241C87.9747 90.4847 81.365 90.621 80.5562 95.1211L80.5326 95.2527V95.3235C80.0129 98.2733 79.7448 101.186 79.492 103.988L79.475 104.175C79.2228 106.972 78.9813 109.648 78.5238 112.254C77.5973 117.532 75.7998 122.424 71.2977 126.93C65.885 132.339 57.8689 133.721 50.1494 131.329C37.9715 127.534 30.4345 115.517 30.5004 103.901L76.4932 36.7694Z" fill="#E6FA36" stroke="black" stroke-width="3"/>
<path d="M62.6152 97.1077C64.9119 87.1502 74.029 79.8204 84.712 80.0625C95.3949 80.3045 103.503 87.5306 105.765 97.0731" stroke="black" stroke-width="3" stroke-linecap="round" stroke-linejoin="round"/>
<path d="M112.029 97.1078C108.41 96.3817 104.234 97.7647 101.763 100.807" stroke="black" stroke-width="3" stroke-linecap="round" stroke-linejoin="round"/>
<path d="M102.896 41.8777L108.96 52.6425L120.95 54.7055L112.813 63.9169L114.603 76.1938L103.511 71.1243L92.6312 76.6561L93.9039 64.3147L85.3866 55.4537L97.2786 52.8883L102.896 41.8777Z" fill="#E6FA36" stroke="black" stroke-width="3" stroke-linecap="round" stroke-linejoin="round"/>
<path d="M66.3111 42.6474L72.3883 53.4119L84.3705 55.475L76.2416 64.6863L78.0327 76.9632L66.9264 71.8939L56.0539 77.4256L57.3271 65.0842L48.8073 56.2232L60.7029 53.6578L66.3111 42.6474Z" fill="#E6FA36" stroke="black" stroke-width="3" stroke-linecap="round" stroke-linejoin="round"/>
<path d="M60.0005 59.0059C60.6413 62.4161 63.5498 65.0059 67.0005 65.0059C70.4512 65.0059 73.3596 62.4418 74.0005 59.0059" fill="#E6FA36"/>
<path d="M60.0005 59.0059C60.6413 62.4161 63.5498 65.0059 67.0005 65.0059C70.4512 65.0059 73.3596 62.4418 74.0005 59.0059" stroke="black" stroke-width="3" stroke-linecap="round" stroke-linejoin="round"/>
<path d="M96 59.0059C96.6408 62.4161 99.5493 65.0059 103 65.0059C106.451 65.0059 109.359 62.4418 110 59.0059" fill="#E6FA36"/>
<path d="M96 59.0059C96.6408 62.4161 99.5493 65.0059 103 65.0059C106.451 65.0059 109.359 62.4418 110 59.0059" stroke="black" stroke-width="3" stroke-linecap="round" stroke-linejoin="round"/>
<path d="M129.816 56.8265C130.664 55.7391 130.674 54.1803 129.741 53.0919C128.848 52.0476 127.38 51.7734 126.199 52.341L120.898 54.7224" stroke="black" stroke-width="3" stroke-linecap="round" stroke-linejoin="round"/>
<path d="M39.915 58.1801C39.0671 57.0926 39.0573 55.5338 39.9907 54.4454C40.8831 53.4012 42.3512 53.1269 43.5325 53.6945L48.8335 56.0759" stroke="black" stroke-width="3" stroke-linecap="round" stroke-linejoin="round"/>
</svg>
