<svg width="170" height="170" viewBox="0 0 170 170" fill="none" xmlns="http://www.w3.org/2000/svg">
<rect width="170" height="170" fill="#BC8EE4"/>
<path d="M85.5097 138C114.216 138 137.487 114.719 137.487 86C137.487 57.2812 114.216 34 85.5097 34C56.8033 34 33.5322 57.2812 33.5322 86C33.5322 114.719 56.8033 138 85.5097 138Z" fill="#E6FA36" stroke="black" stroke-width="3" stroke-linecap="round" stroke-linejoin="round"/>
<path d="M58.4733 72.477L68.8277 80.2278L81.1732 77.1574L77.2668 89.4035L84.1529 100.408L71.3803 100.23L63.2962 110.108L59.318 97.7508L47.4257 92.8519L57.7389 85.3847L58.4733 72.477Z" fill="#E6FA36" stroke="black" stroke-width="3" stroke-linecap="round" stroke-linejoin="round"/>
<path d="M93.1904 56.332L103.533 64.0884L115.885 61.0148L111.971 73.2646L118.857 84.2693L106.097 84.0853L98.0062 93.9659L94.0275 81.6093L82.1376 76.7093L92.4474 69.2437L93.1904 56.332Z" fill="#E6FA36" stroke="black" stroke-width="3" stroke-linecap="round" stroke-linejoin="round"/>
<path d="M30.9727 106.387C28.0891 104.986 26.4718 101.743 27.3046 98.5156C28.0973 95.4221 30.88 93.3458 33.9268 93.3202L47.4292 92.8592" stroke="black" stroke-width="3" stroke-linecap="round" stroke-linejoin="round"/>
<path d="M136.335 57.3872C137.122 54.2795 135.684 50.953 132.679 49.5101C129.803 48.123 126.422 48.9131 124.439 51.2265L115.386 61.255" stroke="black" stroke-width="3" stroke-linecap="round" stroke-linejoin="round"/>
<path d="M72.313 110.425C77.88 118.779 88.7299 122.331 98.3869 118.409C107.703 114.602 112.929 105.054 111.623 95.5352" fill="#E6FA36"/>
<path d="M72.313 110.425C77.88 118.779 88.7299 122.331 98.3869 118.409C107.703 114.602 112.929 105.054 111.623 95.5352" stroke="black" stroke-width="3" stroke-linecap="round" stroke-linejoin="round"/>
<path d="M60.2053 91.8983C61.7675 94.342 64.8634 95.4502 67.6753 94.3704C70.402 93.3474 71.9642 90.6196 71.6517 87.8633" fill="#E6FA36"/>
<path d="M60.2053 91.8983C61.7675 94.342 64.8634 95.4502 67.6753 94.3704C70.402 93.3474 71.9642 90.6196 71.6517 87.8633" stroke="black" stroke-width="3" stroke-linecap="round" stroke-linejoin="round"/>
<path d="M94.3489 75.2205C95.911 77.6642 99.007 78.7724 101.819 77.6926C104.631 76.6129 106.108 73.9418 105.795 71.1855" fill="#E6FA36"/>
<path d="M94.3489 75.2205C95.911 77.6642 99.007 78.7724 101.819 77.6926C104.631 76.6129 106.108 73.9418 105.795 71.1855" stroke="black" stroke-width="3" stroke-linecap="round" stroke-linejoin="round"/>
<path d="M114.69 94.8809C112.532 95.3923 110.231 95.4492 108.044 94.9945Z" fill="#E6FA36"/>
<path d="M114.69 94.8809C112.532 95.3923 110.231 95.4492 108.044 94.9945" stroke="black" stroke-width="3" stroke-linecap="round" stroke-linejoin="round"/>
</svg>
