<svg width="170" height="170" viewBox="0 0 170 170" fill="none" xmlns="http://www.w3.org/2000/svg">
<rect width="170" height="170" fill="#BC8EE4"/>
<path d="M62.3617 26.9994L145 63.377L108.638 146.051L26 109.674L62.3617 26.9994Z" fill="#E6FA36" stroke="black" stroke-width="3" stroke-linecap="round" stroke-linejoin="round"/>
<path d="M80.6621 53.1449L81.5606 65.2747L91.3627 72.1332L80.2657 76.9264L76.7148 88.6062L68.9522 79.4387L56.9549 79.8062L63.2608 69.3533L59.39 57.8943L71.055 60.5961L80.6621 53.1449Z" fill="#E6FA36" stroke="black" stroke-width="3" stroke-linecap="round" stroke-linejoin="round"/>
<path d="M113.553 67.7916L114.44 79.9164L124.249 86.7777L113.144 91.5676L109.593 103.247L101.843 94.0854L89.8391 94.4499L96.1445 83.9968L92.276 72.5388L103.938 75.2391L113.553 67.7916Z" fill="#E6FA36" stroke="black" stroke-width="3" stroke-linecap="round" stroke-linejoin="round"/>
<path d="M100.757 106.295C94.4887 114.598 83.0708 117.63 73.3302 113.008C63.9427 108.533 59.0871 98.3465 60.9999 88.5723" fill="#E6FA36"/>
<path d="M100.757 106.295C94.4887 114.598 83.0708 117.63 73.3302 113.008C63.9427 108.533 59.0871 98.3465 60.9999 88.5723" stroke="black" stroke-width="3" stroke-linecap="round" stroke-linejoin="round"/>
<path d="M112.742 84.9632C110.977 87.4067 107.71 88.3783 104.856 87.0829C102.001 85.7875 100.647 82.9318 101.118 80.1055" stroke="black" stroke-width="3" stroke-linecap="round" stroke-linejoin="round"/>
<path d="M79.615 70.6721C77.8493 73.1157 74.5828 74.0872 71.7284 72.7919C68.9916 71.5554 67.5202 68.6407 67.991 65.8145" stroke="black" stroke-width="3" stroke-linecap="round" stroke-linejoin="round"/>
<path d="M39.6297 54.5862C38.8422 51.6761 40.1431 48.5263 42.9464 47.1234C45.6298 45.775 48.8207 46.4661 50.7207 48.6108L59.3868 57.9013" stroke="black" stroke-width="3" stroke-linecap="round" stroke-linejoin="round"/>
<path d="M139.451 99.0404C142.141 97.679 143.612 94.6048 142.779 91.5828C141.986 88.6862 139.338 86.7767 136.473 86.7993L123.77 86.5732" stroke="black" stroke-width="3" stroke-linecap="round" stroke-linejoin="round"/>
<path d="M57.8511 87.6895C60.0582 88.3666 62.4124 88.5432 64.7078 88.1899Z" fill="#E6FA36"/>
<path d="M57.8511 87.6895C60.0582 88.3666 62.4124 88.5432 64.7078 88.1899" stroke="black" stroke-width="3" stroke-linecap="round" stroke-linejoin="round"/>
</svg>
