<svg width="170" height="170" viewBox="0 0 170 170" fill="none" xmlns="http://www.w3.org/2000/svg">
<rect width="170" height="170" fill="#BC8EE4"/>
<path d="M61.3617 24.9994L144 61.377L107.638 144.051L25 107.674L61.3617 24.9994Z" fill="#E6FA36" stroke="black" stroke-width="3" stroke-linecap="round" stroke-linejoin="round"/>
<path d="M100.064 101.149C93.7956 109.451 82.3776 112.484 72.6371 107.861C63.2496 103.386 58.394 93.2 60.3068 83.4258" fill="#E6FA36"/>
<path d="M100.064 101.149C93.7956 109.451 82.3776 112.484 72.6371 107.861C63.2496 103.386 58.394 93.2 60.3068 83.4258" stroke="black" stroke-width="3" stroke-linecap="round" stroke-linejoin="round"/>
<path d="M102.3 82.0413C100.535 84.4848 97.2681 85.4564 94.4137 84.161C91.5592 82.8656 90.2055 80.0099 90.6763 77.1836" fill="#E6FA36"/>
<path d="M102.3 82.0413C100.535 84.4848 97.2681 85.4564 94.4137 84.161C91.5592 82.8656 90.2055 80.0099 90.6763 77.1836" stroke="black" stroke-width="3" stroke-linecap="round" stroke-linejoin="round"/>
<path d="M82.9075 74.0042C81.1418 76.4477 77.8753 77.4193 75.0208 76.1239C72.2841 74.8874 70.8127 71.9728 71.2835 69.1465" fill="#E6FA36"/>
<path d="M82.9075 74.0042C81.1418 76.4477 77.8753 77.4193 75.0208 76.1239C72.2841 74.8874 70.8127 71.9728 71.2835 69.1465" stroke="black" stroke-width="3" stroke-linecap="round" stroke-linejoin="round"/>
<path d="M57.1582 82.541C59.3653 83.2181 61.7195 83.3948 64.0149 83.0415Z" fill="#E6FA36"/>
<path d="M57.1582 82.541C59.3653 83.2181 61.7195 83.3948 64.0149 83.0415" stroke="black" stroke-width="3" stroke-linecap="round" stroke-linejoin="round"/>
</svg>
