<svg width="171" height="170" viewBox="0 0 171 170" fill="none" xmlns="http://www.w3.org/2000/svg">
<rect width="170" height="170" fill="#BC8EE4"/>
<path d="M59.3617 29.4311L142 65.8086L105.638 148.483L23 112.105L59.3617 29.4311Z" fill="#E6FA36" stroke="black" stroke-width="3" stroke-linecap="round" stroke-linejoin="round"/>
<path d="M98.0637 105.581C91.7956 113.883 80.3776 116.915 70.6371 112.293C61.2496 107.818 56.394 97.6317 58.3068 87.8574" fill="#E6FA36"/>
<path d="M98.0637 105.581C91.7956 113.883 80.3776 116.915 70.6371 112.293C61.2496 107.818 56.394 97.6317 58.3068 87.8574" stroke="black" stroke-width="3" stroke-linecap="round" stroke-linejoin="round"/>
<path d="M100.3 86.4729C98.5346 88.9165 95.2681 89.888 92.4137 88.5926C89.5592 87.2973 88.2055 84.4415 88.6763 81.6152" fill="#E6FA36"/>
<path d="M100.3 86.4729C98.5346 88.9165 95.2681 89.888 92.4137 88.5926C89.5592 87.2973 88.2055 84.4415 88.6763 81.6152" stroke="black" stroke-width="3" stroke-linecap="round" stroke-linejoin="round"/>
<path d="M80.9075 78.4358C79.1418 80.8794 75.8753 81.8509 73.0208 80.5555C70.2841 79.319 68.8127 76.4044 69.2835 73.5781" fill="#E6FA36"/>
<path d="M80.9075 78.4358C79.1418 80.8794 75.8753 81.8509 73.0208 80.5555C70.2841 79.319 68.8127 76.4044 69.2835 73.5781" stroke="black" stroke-width="3" stroke-linecap="round" stroke-linejoin="round"/>
<path d="M55.1582 86.9727C57.3653 87.6498 59.7195 87.8264 62.0149 87.4731Z" fill="#E6FA36"/>
<path d="M55.1582 86.9727C57.3653 87.6498 59.7195 87.8264 62.0149 87.4731" stroke="black" stroke-width="3" stroke-linecap="round" stroke-linejoin="round"/>
<path d="M94.762 22.668C89.3698 27.2596 88.7209 35.3501 93.3122 40.7419L137.139 92.2091C141.73 97.6009 149.821 98.2494 155.213 93.6577" stroke="black" stroke-width="3" stroke-linecap="round" stroke-linejoin="round"/>
<path d="M132.886 86.7467C132.886 86.7467 149.146 71.6083 149.434 57.108C149.116 47.9809 132.875 56.3027 130.478 53.4878C128.081 50.6729 138.884 35.9649 129.924 34.1963C115.563 32.1711 98.0274 45.811 98.0274 45.811L132.886 86.7467Z" fill="#E6FA36" stroke="black" stroke-width="3" stroke-linecap="round" stroke-linejoin="round"/>
</svg>
