<svg width="170" height="170" viewBox="0 0 170 170" fill="none" xmlns="http://www.w3.org/2000/svg">
<rect width="170" height="170" fill="#BC8EE4"/>
<path d="M89.9774 147.432C118.684 147.432 141.955 124.15 141.955 95.4316C141.955 66.7128 118.684 43.4316 89.9774 43.4316C61.2711 43.4316 38 66.7128 38 95.4316C38 124.15 61.2711 147.432 89.9774 147.432Z" fill="#E6FA36" stroke="black" stroke-width="3" stroke-linecap="round" stroke-linejoin="round"/>
<path d="M79.7808 116.856C85.3477 125.211 96.1977 128.762 105.855 124.841C115.171 121.033 120.397 111.486 119.09 101.967" fill="#E6FA36"/>
<path d="M79.7808 116.856C85.3477 125.211 96.1977 128.762 105.855 124.841C115.171 121.033 120.397 111.486 119.09 101.967" stroke="black" stroke-width="3" stroke-linecap="round" stroke-linejoin="round"/>
<path d="M78.6731 98.3299C80.2353 100.774 83.3312 101.882 86.1431 100.802C88.8698 99.7791 90.4319 97.0512 90.1195 94.2949" fill="#E6FA36"/>
<path d="M78.6731 98.3299C80.2353 100.774 83.3312 101.882 86.1431 100.802C88.8698 99.7791 90.4319 97.0512 90.1195 94.2949" stroke="black" stroke-width="3" stroke-linecap="round" stroke-linejoin="round"/>
<path d="M97.8167 91.6522C99.3788 94.0959 102.475 95.2041 105.287 94.1243C108.099 93.0445 109.575 90.3735 109.263 87.6172" fill="#E6FA36"/>
<path d="M97.8167 91.6522C99.3788 94.0959 102.475 95.2041 105.287 94.1243C108.099 93.0445 109.575 90.3735 109.263 87.6172" stroke="black" stroke-width="3" stroke-linecap="round" stroke-linejoin="round"/>
<path d="M122.158 101.312C119.999 101.824 117.699 101.881 115.512 101.426Z" fill="#E6FA36"/>
<path d="M122.158 101.312C119.999 101.824 117.699 101.881 115.512 101.426" stroke="black" stroke-width="3" stroke-linecap="round" stroke-linejoin="round"/>
<path d="M24.7012 60.1816C27.3713 66.7413 34.8507 69.8934 41.4099 67.2234L104.021 41.737C110.58 39.067 113.731 31.5874 111.061 25.0277" stroke="black" stroke-width="3" stroke-linecap="round" stroke-linejoin="round"/>
<path d="M97.5003 44.0642C97.5003 44.0642 88.2211 23.8789 74.5421 19.0597C65.7751 16.5013 68.587 34.5327 65.1625 35.9266C61.7381 37.3206 51.1575 22.4516 46.6697 30.4055C40.2452 43.4081 47.7015 64.3355 47.7015 64.3355L97.5003 44.0642Z" fill="#E6FA36" stroke="black" stroke-width="3" stroke-linecap="round" stroke-linejoin="round"/>
</svg>
