<svg width="170" height="170" viewBox="0 0 170 170" fill="none" xmlns="http://www.w3.org/2000/svg">
<rect width="170" height="170" fill="#BC8EE4"/>
<path d="M77.5497 44.3866L74.5985 47.008C73.9538 47.5806 73.3056 48.1554 72.6545 48.7327C63.3253 57.0046 53.4335 65.7753 45.6603 75.6699C37.3628 86.2319 31.5848 97.9479 31.5004 111.517L77.5497 44.3866ZM77.5497 44.3866H77.4932M77.5497 44.3866H77.4932M77.4932 44.3866C77.95 43.9748 78.4033 43.5653 78.8529 43.159C78.9925 43.0329 79.1318 42.9071 79.2707 42.7816L79.2738 42.7788C80.5205 41.6463 81.7437 40.5424 83.0524 39.8318C84.3145 39.1465 85.5115 38.9065 86.7715 39.3238L86.7797 39.3265C88.2672 39.8097 89.5173 40.8191 90.9706 42.0518L90.9754 42.0559C102.499 51.7463 113.425 61.7821 123.128 73.1376L123.128 73.1383C132.486 84.0766 139.753 97.0196 139.854 111.519L139.854 111.522C139.953 123.134 132.418 135.152 120.204 138.946L120.2 138.948C112.489 141.37 104.472 139.959 99.0568 134.547C94.5547 130.041 92.7571 125.149 91.8306 119.872C91.3731 117.266 91.1317 114.589 90.8794 111.793L90.8625 111.605C90.6096 108.803 90.3415 105.891 89.8219 102.941V102.871L89.7988 102.741C88.9747 98.1019 82.365 98.2381 81.5562 102.738L81.5326 102.87V102.941C81.0129 105.891 80.7448 108.803 80.492 111.605L80.475 111.793C80.2228 114.589 79.9813 117.266 79.5238 119.872C78.5973 125.149 76.7998 130.041 72.2977 134.547C66.885 139.956 58.8689 141.339 51.1494 138.946C38.9715 135.151 31.4345 123.134 31.5004 111.518L77.4932 44.3866Z" fill="#E6FA36" stroke="black" stroke-width="3"/>
<path d="M63.6152 101.725C65.9119 91.7674 75.029 84.4376 85.712 84.6797C96.3949 84.9217 104.503 92.1477 106.765 101.69" stroke="black" stroke-width="3" stroke-linecap="round" stroke-linejoin="round"/>
<path d="M113.029 101.725C109.41 100.999 105.234 102.382 102.763 105.424" stroke="black" stroke-width="3" stroke-linecap="round" stroke-linejoin="round"/>
<path d="M90.0005 68.623C90.6413 72.0333 93.5498 74.623 97.0005 74.623C100.451 74.623 103.36 72.0589 104 68.623" fill="#E6FA36"/>
<path d="M90.0005 68.623C90.6413 72.0333 93.5498 74.623 97.0005 74.623C100.451 74.623 103.36 72.0589 104 68.623" stroke="black" stroke-width="3" stroke-linecap="round" stroke-linejoin="round"/>
<path d="M67.0005 68.623C67.6413 72.0333 70.5498 74.623 74.0005 74.623C77.4512 74.623 80.3596 72.0589 81.0005 68.623" fill="#E6FA36"/>
<path d="M67.0005 68.623C67.6413 72.0333 70.5498 74.623 74.0005 74.623C77.4512 74.623 80.3596 72.0589 81.0005 68.623" stroke="black" stroke-width="3" stroke-linecap="round" stroke-linejoin="round"/>
<path d="M38.3794 46.416C38.3794 53.4983 44.1184 59.2377 51.2002 59.2377H118.799C125.881 59.2377 131.62 53.4983 131.62 46.416" stroke="black" stroke-width="3" stroke-linecap="round" stroke-linejoin="round"/>
<path d="M111.883 58.9338C111.883 58.9338 110.899 36.7396 100.047 27.1188C92.8912 21.4438 88.6973 39.2046 85 39.2046C81.3027 39.2046 77.1088 21.4438 69.9535 27.1188C59.1008 36.7396 58.1167 58.9338 58.1167 58.9338H111.883Z" fill="#E6FA36" stroke="black" stroke-width="3" stroke-linecap="round" stroke-linejoin="round"/>
</svg>
