<svg width="170" height="170" viewBox="0 0 170 170" fill="none" xmlns="http://www.w3.org/2000/svg">
<rect width="170" height="170" fill="#BC8EE4"/>
<path d="M61.3617 23.9994L144 60.377L107.638 143.051L25 106.674L61.3617 23.9994Z" fill="#E6FA36" stroke="black" stroke-width="3" stroke-linecap="round" stroke-linejoin="round"/>
<path d="M100.064 100.149C93.7956 108.451 82.3776 111.484 72.6371 106.861C63.2496 102.386 58.394 92.2 60.3068 82.4258" fill="#E6FA36"/>
<path d="M100.064 100.149C93.7956 108.451 82.3776 111.484 72.6371 106.861C63.2496 102.386 58.394 92.2 60.3068 82.4258" stroke="black" stroke-width="3" stroke-linecap="round" stroke-linejoin="round"/>
<path d="M102.3 81.0413C100.535 83.4848 97.2681 84.4564 94.4137 83.161C91.5592 81.8656 90.2055 79.0099 90.6763 76.1836" fill="#E6FA36"/>
<path d="M102.3 81.0413C100.535 83.4848 97.2681 84.4564 94.4137 83.161C91.5592 81.8656 90.2055 79.0099 90.6763 76.1836" stroke="black" stroke-width="3" stroke-linecap="round" stroke-linejoin="round"/>
<path d="M82.9075 73.0042C81.1418 75.4477 77.8753 76.4193 75.0208 75.1239C72.2841 73.8874 70.8127 70.9728 71.2835 68.1465" fill="#E6FA36"/>
<path d="M82.9075 73.0042C81.1418 75.4477 77.8753 76.4193 75.0208 75.1239C72.2841 73.8874 70.8127 70.9728 71.2835 68.1465" stroke="black" stroke-width="3" stroke-linecap="round" stroke-linejoin="round"/>
<path d="M57.1582 81.541C59.3653 82.2181 61.7195 82.3948 64.0149 82.0415Z" fill="#E6FA36"/>
<path d="M57.1582 81.541C59.3653 82.2181 61.7195 82.3948 64.0149 82.0415" stroke="black" stroke-width="3" stroke-linecap="round" stroke-linejoin="round"/>
<path d="M142.495 120.461L139.895 130.978L139.86 130.949L128.863 121.734L131.464 111.216L141.364 106.817L152.361 116.032L152.396 116.062L142.495 120.461Z" fill="#E6FA36" stroke="black" stroke-width="3" stroke-linecap="round" stroke-linejoin="round"/>
<path d="M117.139 100.023L142.5 120.5" stroke="black" stroke-width="3" stroke-linecap="round" stroke-linejoin="round"/>
<path d="M41.3145 44.4648L59.2449 60.0137" stroke="black" stroke-width="3" stroke-linecap="round" stroke-linejoin="round"/>
<path d="M37.2392 52.6492C37.5386 49.4257 38.7883 46.2494 41.0307 43.5736C43.2732 40.8978 46.182 39.1119 49.3034 38.2535L27.9669 32.6256L37.2392 52.6492Z" fill="#E6FA36" stroke="black" stroke-width="3" stroke-linecap="round" stroke-linejoin="round"/>
</svg>
