<svg width="170" height="170" viewBox="0 0 170 170" fill="none" xmlns="http://www.w3.org/2000/svg">
<rect width="170" height="170" fill="#BC8EE4"/>
<path d="M93.3124 139.016L93.3106 139.014C91.8597 140.308 90.4378 141.602 89.0508 142.864C88.9118 142.99 88.7732 143.116 88.635 143.242L88.6319 143.245C87.3936 144.378 86.18 145.481 84.882 146.191C83.631 146.875 82.4485 147.112 81.2044 146.697L81.1962 146.695C79.7226 146.213 78.4831 145.205 77.0394 143.972L77.0346 143.968C65.5929 134.277 54.7435 124.242 45.1096 112.887L45.109 112.886C35.8183 101.949 28.6009 89.0048 28.5004 74.5018C28.435 62.8781 35.9237 50.8638 48.0083 47.0728L48.0118 47.0717C55.6614 44.651 63.6117 46.0603 68.9858 51.5015L68.9882 51.5039C73.4581 56.0091 75.2436 60.902 76.1639 66.1814C76.6183 68.7878 76.8581 71.4647 77.1085 74.2608L77.1254 74.449C77.3764 77.2508 77.6426 80.1634 78.1587 83.1131V83.1824L78.1815 83.3116C79.0002 87.954 85.5839 87.8166 86.3873 83.3146L86.4107 83.1839V83.1131C86.9267 80.1634 87.1929 77.2508 87.444 74.449L87.4608 74.2611C87.7113 71.4649 87.951 68.7878 88.4054 66.1814C89.3256 60.9023 91.1111 56.0096 95.5804 51.5046C100.952 46.0983 108.903 44.7174 116.562 47.1075C128.646 50.8987 136.134 62.9129 136.069 74.5366C135.985 88.1096 130.247 99.8272 122.008 110.389C114.29 120.283 104.468 129.054 95.2045 137.326C94.5709 137.891 93.94 138.455 93.3124 139.016Z" fill="#E6FA36" stroke="black" stroke-width="3"/>
<path d="M104.19 91.834C101.91 101.791 92.8572 109.121 82.2496 108.879C71.6419 108.637 63.5911 101.411 61.3452 91.8686" stroke="black" stroke-width="3" stroke-linecap="round" stroke-linejoin="round"/>
<path d="M55.126 91.8323C58.7195 92.5583 62.8658 91.1754 65.319 88.1328" stroke="black" stroke-width="3" stroke-linecap="round" stroke-linejoin="round"/>
<path d="M61 69.4316C60.3592 66.0214 57.4507 63.4316 54 63.4316C50.5493 63.4316 47.6408 65.9957 47 69.4316" fill="#E6FA36"/>
<path d="M61 69.4316C60.3592 66.0214 57.4507 63.4316 54 63.4316C50.5493 63.4316 47.6408 65.9957 47 69.4316" stroke="black" stroke-width="3" stroke-linecap="round" stroke-linejoin="round"/>
<path d="M118 69.4316C117.359 66.0214 114.451 63.4316 111 63.4316C107.549 63.4316 104.641 65.9957 104 69.4316" fill="#E6FA36"/>
<path d="M118 69.4316C117.359 66.0214 114.451 63.4316 111 63.4316C107.549 63.4316 104.641 65.9957 104 69.4316" stroke="black" stroke-width="3" stroke-linecap="round" stroke-linejoin="round"/>
<path d="M74.7144 38.418C72.1102 45.0041 75.3369 52.4516 81.9226 55.0556L144.786 79.9116C151.372 82.5156 158.819 79.2885 161.423 72.7023" stroke="black" stroke-width="3" stroke-linecap="round" stroke-linejoin="round"/>
<path d="M138.466 77.0859C138.466 77.0859 145.712 56.0847 139.157 43.1474C134.589 35.2389 124.159 50.2134 120.72 48.854C117.282 47.4945 119.913 29.4358 111.172 32.0822C97.5419 37.0386 88.466 57.3161 88.466 57.3161L138.466 77.0859Z" fill="#E6FA36" stroke="black" stroke-width="3" stroke-linecap="round" stroke-linejoin="round"/>
</svg>
