<svg width="170" height="170" viewBox="0 0 170 170" fill="none" xmlns="http://www.w3.org/2000/svg">
<rect width="170" height="170" fill="#BC8EE4"/>
<path d="M84.9774 137C113.684 137 136.955 113.719 136.955 85C136.955 56.2812 113.684 33 84.9774 33C56.2711 33 33 56.2812 33 85C33 113.719 56.2711 137 84.9774 137Z" fill="#E6FA36" stroke="black" stroke-width="3" stroke-linecap="round" stroke-linejoin="round"/>
<path d="M74.7808 106.425C80.3477 114.779 91.1977 118.331 100.855 114.409C110.171 110.602 115.397 101.054 114.09 91.5352" fill="#E6FA36"/>
<path d="M74.7808 106.425C80.3477 114.779 91.1977 118.331 100.855 114.409C110.171 110.602 115.397 101.054 114.09 91.5352" stroke="black" stroke-width="3" stroke-linecap="round" stroke-linejoin="round"/>
<path d="M73.6731 87.8983C75.2353 90.342 78.3312 91.4502 81.1431 90.3704C83.8698 89.3474 85.4319 86.6196 85.1195 83.8633" fill="#E6FA36"/>
<path d="M73.6731 87.8983C75.2353 90.342 78.3312 91.4502 81.1431 90.3704C83.8698 89.3474 85.4319 86.6196 85.1195 83.8633" stroke="black" stroke-width="3" stroke-linecap="round" stroke-linejoin="round"/>
<path d="M92.8167 81.2205C94.3788 83.6642 97.4747 84.7724 100.287 83.6926C103.099 82.6129 104.575 79.9418 104.263 77.1855" fill="#E6FA36"/>
<path d="M92.8167 81.2205C94.3788 83.6642 97.4747 84.7724 100.287 83.6926C103.099 82.6129 104.575 79.9418 104.263 77.1855" stroke="black" stroke-width="3" stroke-linecap="round" stroke-linejoin="round"/>
<path d="M117.158 90.8809C114.999 91.3923 112.699 91.4492 110.512 90.9945Z" fill="#E6FA36"/>
<path d="M117.158 90.8809C114.999 91.3923 112.699 91.4492 110.512 90.9945" stroke="black" stroke-width="3" stroke-linecap="round" stroke-linejoin="round"/>
</svg>
