<svg width="170" height="170" viewBox="0 0 170 170" fill="none" xmlns="http://www.w3.org/2000/svg">
<rect width="170" height="170" fill="#BC8EE4"/>
<path d="M141.066 89.375C140.436 87.0395 139.421 84.8782 138.161 82.961C139.176 79.2659 139.281 75.2222 138.161 71.2483C135.816 62.6729 128.781 56.6772 120.556 55.1782C115.201 48.2064 105.961 44.7553 96.9309 47.2303C94.7959 47.8229 92.8009 48.6944 90.9809 49.8099C85.8709 46.6726 79.5709 45.5571 73.3409 47.2303C68.5809 48.5201 64.5909 51.274 61.7209 54.8645C59.7609 54.8645 57.7659 55.0736 55.7709 55.6314C46.7059 58.1064 40.4409 65.7754 39.4259 74.525C31.9009 79.7539 28.1209 89.2705 30.6759 98.5779C33.7559 109.803 44.9209 116.67 56.1909 114.683C61.4059 122.317 71.1009 126.221 80.5509 123.642C81.8459 123.293 83.0359 122.84 84.1909 122.282C86.9559 127.999 91.7859 132.287 97.4909 134.518C100.081 135.529 101.936 137.899 101.936 140.688V145.429H115.971V138.666C115.971 136.191 117.336 133.925 119.471 132.635C126.121 128.626 130.461 121.724 131.301 114.125C139.491 109.07 143.726 99.0659 141.066 89.3402V89.375Z" fill="#E6FA36" stroke="black" stroke-width="3" stroke-linecap="round" stroke-linejoin="round"/>
<path d="M23.2642 54.7656C25.0902 61.6084 32.1151 65.674 38.9574 63.848L104.271 46.4183C111.113 44.5924 115.178 37.5673 113.352 30.7245" stroke="black" stroke-width="3" stroke-linecap="round" stroke-linejoin="round"/>
<path d="M97.5101 47.9083C97.5101 47.9083 90.8368 26.7183 77.8704 20.221C69.4937 16.5828 70.0211 34.8245 66.4488 35.7778C62.8766 36.7311 54.245 20.6521 48.7948 27.9802C40.7897 40.0739 45.5615 61.7714 45.5615 61.7714L97.5101 47.9083Z" fill="#E6FA36" stroke="black" stroke-width="3" stroke-linecap="round" stroke-linejoin="round"/>
<path d="M82.7908 75.2565C82.0908 71.6311 78.8708 68.9121 75.0558 68.9121C71.2408 68.9121 68.0208 71.6311 67.3208 75.2565" stroke="black" stroke-width="3" stroke-linecap="round" stroke-linejoin="round"/>
<path d="M111.561 75.2565C110.861 71.6311 107.641 68.9121 103.826 68.9121C100.011 68.9121 96.7908 71.6311 96.0908 75.2565" stroke="black" stroke-width="3" stroke-linecap="round" stroke-linejoin="round"/>
<path d="M68.9307 93.3842C72.5707 94.1163 76.7707 92.7219 79.2557 89.6543" stroke="black" stroke-width="3" stroke-linecap="round" stroke-linejoin="round"/>
<path d="M75.1606 93.8027C75.1606 93.8027 77.8906 102.169 85.8006 102.169H102.846" stroke="black" stroke-width="3" stroke-linecap="round" stroke-linejoin="round"/>
</svg>
