<svg width="170" height="170" viewBox="0 0 170 170" fill="none" xmlns="http://www.w3.org/2000/svg">
<rect width="170" height="170" fill="#BC8EE4"/>
<circle cx="85" cy="85" r="85" fill="#BC8EE4"/>
<path d="M96.3124 131.584L96.3106 131.582C94.8597 132.876 93.4378 134.17 92.0508 135.432C91.9118 135.559 91.7732 135.685 91.635 135.81L91.6319 135.813C90.3936 136.946 89.18 138.049 87.882 138.759C86.631 139.443 85.4485 139.681 84.2044 139.266L84.1962 139.263C82.7226 138.781 81.4831 137.773 80.0394 136.54L80.0346 136.536C68.5929 126.846 57.7435 116.81 48.1096 105.455L48.109 105.454C38.8183 94.517 31.6009 81.5731 31.5004 67.0702C31.435 55.4465 38.9237 43.4322 51.0083 39.6411L51.0118 39.64C58.6614 37.2194 66.6117 38.6287 71.9858 44.0698L71.9882 44.0722C76.4581 48.5774 78.2436 53.4704 79.1639 58.7497C79.6183 61.3561 79.8581 64.0331 80.1085 66.8292L80.1254 67.0174C80.3764 69.8192 80.6426 72.7318 81.1587 75.6814V75.7507L81.1815 75.88C82.0002 80.5224 88.5839 80.3849 89.3873 75.883L89.4107 75.7523V75.6814C89.9267 72.7318 90.1929 69.8192 90.444 67.0174L90.4608 66.8295C90.7113 64.0333 90.951 61.3562 91.4054 58.7497C92.3256 53.4706 94.1111 48.578 98.5804 44.0729C103.952 38.6666 111.903 37.2858 119.562 39.6759C131.646 43.4671 139.134 55.4813 139.069 67.1049C138.985 80.678 133.247 92.3956 125.008 102.957C117.29 112.852 107.468 121.622 98.2045 129.894C97.5709 130.46 96.94 131.023 96.3124 131.584Z" fill="#E6FA36" stroke="black" stroke-width="3"/>
<path d="M107.189 84.4023C104.909 94.3598 95.8558 101.69 85.2481 101.448C74.6404 101.206 66.5897 93.9795 64.3438 84.4369" stroke="black" stroke-width="3" stroke-linecap="round" stroke-linejoin="round"/>
<path d="M58.125 84.4006C61.7185 85.1267 65.8648 83.7437 68.318 80.7012" stroke="black" stroke-width="3" stroke-linecap="round" stroke-linejoin="round"/>
<path d="M64 62C63.3592 58.5897 60.4507 56 57 56C53.5493 56 50.6408 58.5641 50 62" fill="#E6FA36"/>
<path d="M64 62C63.3592 58.5897 60.4507 56 57 56C53.5493 56 50.6408 58.5641 50 62" stroke="black" stroke-width="3" stroke-linecap="round" stroke-linejoin="round"/>
<path d="M121 62C120.359 58.5897 117.451 56 114 56C110.549 56 107.641 58.5641 107 62" fill="#E6FA36"/>
<path d="M121 62C120.359 58.5897 117.451 56 114 56C110.549 56 107.641 58.5641 107 62" stroke="black" stroke-width="3" stroke-linecap="round" stroke-linejoin="round"/>
</svg>
