<svg width="170" height="170" viewBox="0 0 170 170" fill="none" xmlns="http://www.w3.org/2000/svg">
<rect width="170" height="170" fill="#BC8EE4"/>
<path d="M84.9774 137.963C113.684 137.963 136.955 114.682 136.955 85.9629C136.955 57.2441 113.684 33.9629 84.9774 33.9629C56.2711 33.9629 33 57.2441 33 85.9629C33 114.682 56.2711 137.963 84.9774 137.963Z" fill="#E6FA36" stroke="black" stroke-width="3" stroke-linecap="round" stroke-linejoin="round"/>
<path d="M74.7808 107.388C80.3477 115.742 91.1977 119.294 100.855 115.372C110.171 111.565 115.397 102.017 114.09 92.498" fill="#E6FA36"/>
<path d="M74.7808 107.388C80.3477 115.742 91.1977 119.294 100.855 115.372C110.171 111.565 115.397 102.017 114.09 92.498" stroke="black" stroke-width="3" stroke-linecap="round" stroke-linejoin="round"/>
<path d="M73.6731 88.8611C75.2353 91.3049 78.3312 92.4131 81.1431 91.3333C83.8698 90.3103 85.4319 87.5825 85.1195 84.8262" fill="#E6FA36"/>
<path d="M73.6731 88.8611C75.2353 91.3049 78.3312 92.4131 81.1431 91.3333C83.8698 90.3103 85.4319 87.5825 85.1195 84.8262" stroke="black" stroke-width="3" stroke-linecap="round" stroke-linejoin="round"/>
<path d="M92.8167 82.1834C94.3788 84.6271 97.4747 85.7353 100.287 84.6555C103.099 83.5758 104.575 80.9047 104.263 78.1484" fill="#E6FA36"/>
<path d="M92.8167 82.1834C94.3788 84.6271 97.4747 85.7353 100.287 84.6555C103.099 83.5758 104.575 80.9047 104.263 78.1484" stroke="black" stroke-width="3" stroke-linecap="round" stroke-linejoin="round"/>
<path d="M117.158 91.8438C114.999 92.3552 112.699 92.4121 110.512 91.9574Z" fill="#E6FA36"/>
<path d="M117.158 91.8438C114.999 92.3552 112.699 92.4121 110.512 91.9574" stroke="black" stroke-width="3" stroke-linecap="round" stroke-linejoin="round"/>
<path d="M127.025 24.4865L137.522 27.1715L137.492 27.2061L128.188 38.1282L117.692 35.4432L113.372 25.5075L122.676 14.5854L122.706 14.5508L127.025 24.4865Z" fill="#E6FA36" stroke="black" stroke-width="3" stroke-linecap="round" stroke-linejoin="round"/>
<path d="M106.385 49.6777L127.065 24.4825" stroke="black" stroke-width="3" stroke-linecap="round" stroke-linejoin="round"/>
<path d="M46.217 133.051L61.9099 115.246" stroke="black" stroke-width="3" stroke-linecap="round" stroke-linejoin="round"/>
<path d="M54.369 137.192C51.148 136.867 47.9819 135.592 45.3242 133.328C42.6666 131.064 40.9042 128.141 40.0709 125.012L34.2713 146.303L54.369 137.192Z" fill="#E6FA36" stroke="black" stroke-width="3" stroke-linecap="round" stroke-linejoin="round"/>
</svg>
