<svg width="170" height="170" viewBox="0 0 170 170" fill="none" xmlns="http://www.w3.org/2000/svg">
<rect width="170" height="170" fill="#BC8EE4"/>
<path d="M139.186 78.9434C138.556 76.6078 137.541 74.4466 136.281 72.5293C137.296 68.8342 137.401 64.7906 136.281 60.8166C133.936 52.2413 126.901 46.2455 118.676 44.7466C113.321 37.7747 104.081 34.3237 95.0505 36.7987C92.9155 37.3913 90.9205 38.2628 89.1005 39.3783C83.9905 36.2409 77.6905 35.1254 71.4605 36.7987C66.7005 38.0885 62.7105 40.8423 59.8405 44.4328C57.8805 44.4328 55.8855 44.642 53.8905 45.1997C44.8255 47.6747 38.5605 55.3438 37.5455 64.0934C30.0205 69.3223 26.2405 78.8388 28.7955 88.1462C31.8755 99.3709 43.0405 106.238 54.3105 104.251C59.5255 111.885 69.2205 115.79 78.6705 113.21C79.9655 112.861 81.1555 112.408 82.3105 111.85C85.0755 117.567 89.9055 121.855 95.6105 124.086C98.2005 125.097 100.056 127.467 100.056 130.256V134.997H114.091V128.234C114.091 125.759 115.456 123.493 117.591 122.204C124.241 118.195 128.581 111.293 129.421 103.693C137.611 98.6388 141.846 88.6343 139.186 78.9085V78.9434Z" fill="#E6FA36" stroke="black" stroke-width="3" stroke-linecap="round" stroke-linejoin="round"/>
<path d="M80.9104 64.8248C80.2104 61.1995 76.9904 58.4805 73.1754 58.4805C69.3604 58.4805 66.1404 61.1995 65.4404 64.8248" stroke="black" stroke-width="3" stroke-linecap="round" stroke-linejoin="round"/>
<path d="M113.68 64.8248C112.98 61.1995 109.76 58.4805 105.945 58.4805C102.13 58.4805 98.9104 61.1995 98.2104 64.8248" stroke="black" stroke-width="3" stroke-linecap="round" stroke-linejoin="round"/>
<path d="M72.0508 82.9526C75.6908 83.6846 79.8908 82.2903 82.3758 79.2227" stroke="black" stroke-width="3" stroke-linecap="round" stroke-linejoin="round"/>
<path d="M78.2808 83.3711C78.2808 83.3711 81.0108 91.7373 88.9208 91.7373H105.966" stroke="black" stroke-width="3" stroke-linecap="round" stroke-linejoin="round"/>
<circle cx="69" cy="62" r="14" fill="black"/>
<line x1="37.9093" y1="63.5027" x2="70.9093" y2="61.5027" stroke="black" stroke-width="3"/>
<line x1="75.5257" y1="58.577" x2="117.526" y2="44.577" stroke="black" stroke-width="3"/>
</svg>
