<svg width="170" height="170" viewBox="0 0 170 170" fill="none" xmlns="http://www.w3.org/2000/svg">
<rect width="170" height="170" fill="#BC8EE4"/>
<path d="M62.3617 27.9994L145 64.377L108.638 147.051L26 110.674L62.3617 27.9994Z" fill="#E6FA36" stroke="black" stroke-width="3" stroke-linecap="round" stroke-linejoin="round"/>
<path d="M99.0637 111.147C92.7956 119.449 81.3776 122.482 71.6371 117.859C62.2496 113.385 57.394 103.198 59.3068 93.4238" fill="#E6FA36"/>
<path d="M99.0637 111.147C92.7956 119.449 81.3776 122.482 71.6371 117.859C62.2496 113.385 57.394 103.198 59.3068 93.4238" stroke="black" stroke-width="3" stroke-linecap="round" stroke-linejoin="round"/>
<path d="M115.3 85.0413C113.535 87.4848 110.268 88.4564 107.414 87.161C104.559 85.8656 103.205 83.0099 103.676 80.1836" fill="#E6FA36"/>
<path d="M115.3 85.0413C113.535 87.4848 110.268 88.4564 107.414 87.161C104.559 85.8656 103.205 83.0099 103.676 80.1836" stroke="black" stroke-width="3" stroke-linecap="round" stroke-linejoin="round"/>
<path d="M77.9072 69.0042C76.1416 71.4477 72.8751 72.4193 70.0206 71.1239C67.2838 69.8874 65.8124 66.9728 66.2833 64.1465" fill="#E6FA36"/>
<path d="M77.9072 69.0042C76.1416 71.4477 72.8751 72.4193 70.0206 71.1239C67.2838 69.8874 65.8124 66.9728 66.2833 64.1465" stroke="black" stroke-width="3" stroke-linecap="round" stroke-linejoin="round"/>
<path d="M56.158 92.541C58.3651 93.2181 60.7193 93.3948 63.0146 93.0415Z" fill="#E6FA36"/>
<path d="M56.158 92.541C58.3651 93.2181 60.7193 93.3948 63.0146 93.0415" stroke="black" stroke-width="3" stroke-linecap="round" stroke-linejoin="round"/>
<path d="M84.0342 77.2301C80.4322 85.4606 71.0625 89.3101 63.1064 85.8282C55.1502 82.3463 51.6205 72.8516 55.2224 64.6211C62.0016 67.5879 61.6721 67.4437 69.6283 70.9256C77.5844 74.4075 70.8994 71.4819 84.0342 77.2301Z" fill="black" stroke="black" stroke-width="3" stroke-linejoin="round"/>
<path d="M121.788 93.7536C118.186 101.984 108.816 105.834 100.86 102.352C92.9036 98.8698 89.3739 89.375 92.9758 81.1445C99.7551 84.1114 99.4256 83.9672 107.382 87.449C115.338 90.9309 108.653 88.0053 121.788 93.7536Z" fill="black" stroke="black" stroke-width="3" stroke-linejoin="round"/>
<line x1="82.8963" y1="79.8309" x2="90.8444" y2="83.3093" stroke="black" stroke-width="3"/>
<path d="M127.585 108.36C129.719 108.207 131.524 106.598 131.808 104.392C132.084 102.279 130.874 100.303 128.993 99.5318L120.741 95.9001" stroke="black" stroke-width="3" stroke-linecap="round" stroke-linejoin="round"/>
<path d="M40.6819 70.3272C39.3467 68.6558 39.3031 66.238 40.7311 64.5325C42.0964 62.8963 44.3687 62.4441 46.2115 63.303L54.4781 66.9002" stroke="black" stroke-width="3" stroke-linecap="round" stroke-linejoin="round"/>
</svg>
