<svg width="170" height="170" viewBox="0 0 170 170" fill="none" xmlns="http://www.w3.org/2000/svg">
<rect width="170" height="170" fill="#BC8EE4"/>
<path d="M140.831 77.9619C140.831 77.9619 142.406 45.1883 101.247 44.0152C98.537 43.9785 95.8273 44.0152 93.1175 44.0518C69.1691 44.7117 31.9283 51.5671 24.8975 74.5893C24.4581 76.0557 24.1652 77.522 24.0553 78.9151C23.0666 91.7093 35.4802 101.461 49.2121 106.117C55.5471 108.243 62.1384 109.563 68.8762 110.369C75.7238 111.176 82.3517 113.448 87.4783 117.334C90.1148 119.314 93.3006 120.854 96.7793 121.77C98.3539 122.173 99.4159 123.64 99.4159 125.289V133.904H114.32V123.64C114.32 122.173 115.125 120.817 116.443 120.23C121.973 117.774 126.294 113.705 128.454 108.719C129.626 106.007 131.201 103.367 133.361 101.094C142.882 91.2327 140.831 77.9619 140.831 77.9619Z" fill="#E6FA36" stroke="black" stroke-width="3" stroke-linejoin="round"/>
<path d="M45.4403 69.3477C37.5307 76.2763 40.4968 86.8709 48.8091 91.3801C57.1215 95.8892 66.4958 93.8729 72.428 87.4941" stroke="black" stroke-width="3" stroke-linecap="round" stroke-linejoin="round"/>
<path d="M77.2617 90.1694C74.1858 89.1429 71.5859 86.2468 71.0366 82.8008" stroke="black" stroke-width="3" stroke-linecap="round" stroke-linejoin="round"/>
<path d="M96.7061 63.4805C96.7793 67.3664 99.5623 70.7757 103.517 71.4723C107.472 72.1688 111.244 69.9326 112.672 66.3399" stroke="black" stroke-width="3" stroke-linecap="round" stroke-linejoin="round"/>
<path d="M67.375 58.2383C67.4482 62.1242 70.2312 65.5335 74.186 66.2301C78.1408 66.9266 81.9125 64.6904 83.3406 61.0977" stroke="black" stroke-width="3" stroke-linecap="round" stroke-linejoin="round"/>
<path d="M148.742 115.845L146.871 126.516L146.835 126.489L135.23 118.052L137.101 107.38L146.676 102.31L158.28 110.748L158.317 110.775L148.742 115.845Z" fill="#E6FA36" stroke="black" stroke-width="3" stroke-linecap="round" stroke-linejoin="round"/>
<path d="M122.041 97.1992L148.75 115.884" stroke="black" stroke-width="3" stroke-linecap="round" stroke-linejoin="round"/>
<path d="M40.5532 41.6562L59.5104 55.9355" stroke="black" stroke-width="3" stroke-linecap="round" stroke-linejoin="round"/>
<path d="M36.1115 50.2465C36.4125 47.0232 37.6638 43.8476 39.9076 41.1729C42.1515 38.4982 45.0612 36.7139 48.1831 35.857L26.8495 30.2182L36.1115 50.2465Z" fill="#E6FA36" stroke="black" stroke-width="3" stroke-linecap="round" stroke-linejoin="round"/>
</svg>
