<svg width="170" height="170" viewBox="0 0 170 170" fill="none" xmlns="http://www.w3.org/2000/svg">
<rect width="170" height="170" fill="#BC8EE4"/>
<path d="M85.9828 137.814C114.689 137.814 137.96 114.533 137.96 85.8145C137.96 57.0956 114.689 33.8145 85.9828 33.8145C57.2765 33.8145 34.0054 57.0956 34.0054 85.8145C34.0054 114.533 57.2765 137.814 85.9828 137.814Z" fill="#E6FA36" stroke="black" stroke-width="3" stroke-linecap="round" stroke-linejoin="round"/>
<path d="M75.7861 108.239C81.3531 116.593 92.203 120.145 101.86 116.224C111.176 112.416 116.402 102.869 115.096 93.3496" fill="#E6FA36"/>
<path d="M75.7861 108.239C81.3531 116.593 92.203 120.145 101.86 116.224C111.176 112.416 116.402 102.869 115.096 93.3496" stroke="black" stroke-width="3" stroke-linecap="round" stroke-linejoin="round"/>
<path d="M52.7851 87.3804C54.6222 89.6247 57.8264 90.3635 60.4928 88.9625C63.0812 87.6278 64.3139 84.736 63.6814 82.0352" fill="#E6FA36"/>
<path d="M52.7851 87.3804C54.6222 89.6247 57.8264 90.3635 60.4928 88.9625C63.0812 87.6278 64.3139 84.736 63.6814 82.0352" stroke="black" stroke-width="3" stroke-linecap="round" stroke-linejoin="round"/>
<path d="M95.0673 65.2943C96.8145 67.6094 99.9871 68.4739 102.707 67.1791C105.426 65.8843 106.691 63.1067 106.166 60.383" fill="#E6FA36"/>
<path d="M95.0673 65.2943C96.8145 67.6094 99.9871 68.4739 102.707 67.1791C105.426 65.8843 106.691 63.1067 106.166 60.383" stroke="black" stroke-width="3" stroke-linecap="round" stroke-linejoin="round"/>
<path d="M118.163 92.6953C116.005 93.2068 113.704 93.2636 111.517 92.809Z" fill="#E6FA36"/>
<path d="M118.163 92.6953C116.005 93.2068 113.704 93.2636 111.517 92.809" stroke="black" stroke-width="3" stroke-linecap="round" stroke-linejoin="round"/>
<path d="M77.0623 81.3965C81.653 90.4778 78.258 101.437 69.4794 105.875C60.7007 110.313 49.8627 106.548 45.272 97.4668C52.752 93.6855 52.3885 93.8693 61.1671 89.4316C69.9458 84.9939 62.5696 88.7226 77.0623 81.3965Z" fill="black" stroke="black" stroke-width="3" stroke-linejoin="round"/>
<path d="M118.719 60.3379C123.309 69.4192 119.914 80.3786 111.136 84.8163C102.357 89.254 91.5189 85.4896 86.9282 76.4082C94.4083 72.6269 94.0447 72.8107 102.823 68.373C111.602 63.9353 104.226 67.664 118.719 60.3379Z" fill="black" stroke="black" stroke-width="3" stroke-linejoin="round"/>
<line x1="78.5986" y1="84.4443" x2="90.3252" y2="78.4779" stroke="black" stroke-width="3"/>
<path d="M135.656 65.8082C137.061 63.8341 136.958 61.097 135.236 59.2581C133.589 57.4936 130.991 57.125 128.961 58.2122L119.838 62.7998" stroke="black" stroke-width="3" stroke-linecap="round" stroke-linejoin="round"/>
<path d="M39.7687 114.28C37.346 114.24 35.2029 112.535 34.7432 110.058C34.2988 107.685 35.5425 105.375 37.6216 104.385L46.7249 99.759" stroke="black" stroke-width="3" stroke-linecap="round" stroke-linejoin="round"/>
</svg>
