<svg width="170" height="170" viewBox="0 0 170 170" fill="none" xmlns="http://www.w3.org/2000/svg">
<rect width="170" height="170" fill="#BC8EE4"/>
<path d="M32.0184 90.1836C23.8405 94.2836 19 99.3672 19 104.871C19 110.883 24.7688 116.375 34.3392 120.652C33.5766 118.641 32.9025 116.585 32.372 114.441C30.3276 106.208 30.3165 97.9526 32.0074 90.1836H32.0184Z" fill="black" stroke="black" stroke-width="3" stroke-linecap="round" stroke-linejoin="round"/>
<path d="M150.565 104.86C150.565 99.124 145.294 93.8414 136.475 89.6641C138.95 100.55 137.912 111.435 134.088 121.127C144.332 116.795 150.565 111.104 150.565 104.86Z" fill="black" stroke="black" stroke-width="3" stroke-linecap="round" stroke-linejoin="round"/>
<path d="M136.475 89.6644C136.398 89.3107 136.331 88.9571 136.243 88.6145C129.104 59.9364 100.083 42.4643 71.4051 49.5924C50.9492 54.676 36.2178 70.8993 32.0183 90.1838C30.3275 97.9528 30.3385 106.208 32.383 114.441C32.9135 116.574 33.5766 118.641 34.3502 120.652C46.4182 126.034 64.5312 129.46 84.7882 129.46C105.045 129.46 122.042 126.244 134.099 121.138C137.923 111.446 138.962 100.561 136.486 89.6754L136.475 89.6644Z" fill="#E8FB3F" stroke="black" stroke-width="3" stroke-linecap="round" stroke-linejoin="round"/>
<path d="M99.6523 64.6878C98.0609 62.157 94.8671 61.0077 91.9606 62.0907C89.0541 63.1738 87.529 65.9366 87.8274 68.7768" stroke="black" stroke-width="3" stroke-linecap="round" stroke-linejoin="round"/>
<path d="M79.9369 71.4632C78.3455 68.9324 75.1517 67.7831 72.2452 68.8661C69.4492 69.916 67.8137 72.712 68.112 75.5522" stroke="black" stroke-width="3" stroke-linecap="round" stroke-linejoin="round"/>
<path d="M76.4997 93.3556C76.1129 91.6537 75.903 89.9186 75.8809 88.1836" stroke="black" stroke-width="3" stroke-linecap="round" stroke-linejoin="round"/>
<path d="M76.6987 90.7809C86.0702 90.4715 95.3754 88.2833 103.907 84.4043" stroke="black" stroke-width="3" stroke-linecap="round" stroke-linejoin="round"/>
<path d="M156.028 75.92L160.301 85.8756L160.256 85.8733L145.926 85.1611L141.652 75.2055L146.892 65.7227L161.222 66.4349L161.267 66.4372L156.028 75.92Z" fill="#E6FA36" stroke="black" stroke-width="3" stroke-linecap="round" stroke-linejoin="round"/>
<path d="M123.476 74.9258L156.055 75.9488" stroke="black" stroke-width="3" stroke-linecap="round" stroke-linejoin="round"/>
<path d="M25.8848 70.5137L49.5656 72.0915" stroke="black" stroke-width="3" stroke-linecap="round" stroke-linejoin="round"/>
<path d="M27.5746 79.5005C25.868 76.7495 24.9477 73.4626 25.121 69.9757C25.2943 66.4888 26.536 63.3094 28.5069 60.7412L8.09732 69.1297L27.5746 79.5005Z" fill="#E6FA36" stroke="black" stroke-width="3" stroke-linecap="round" stroke-linejoin="round"/>
</svg>
