<svg width="170" height="170" viewBox="0 0 170 170" fill="none" xmlns="http://www.w3.org/2000/svg">
<rect width="170" height="170" fill="#BC8EE4"/>
<path d="M96.3124 133.584L96.3106 133.582C94.8597 134.876 93.4378 136.17 92.0508 137.432C91.9118 137.559 91.7732 137.685 91.635 137.81L91.6319 137.813C90.3936 138.946 89.18 140.049 87.882 140.759C86.631 141.443 85.4485 141.681 84.2044 141.266L84.1962 141.263C82.7226 140.781 81.4831 139.773 80.0394 138.54L80.0346 138.536C68.5929 128.846 57.7435 118.81 48.1096 107.455L48.109 107.454C38.8183 96.517 31.6009 83.5731 31.5004 69.0702C31.435 57.4465 38.9237 45.4322 51.0083 41.6411L51.0118 41.64C58.6614 39.2194 66.6117 40.6287 71.9858 46.0698L71.9882 46.0722C76.4581 50.5774 78.2436 55.4704 79.1639 60.7497C79.6183 63.3561 79.8581 66.0331 80.1085 68.8292L80.1254 69.0174C80.3764 71.8192 80.6426 74.7318 81.1587 77.6814V77.7507L81.1815 77.88C82.0002 82.5224 88.5839 82.3849 89.3873 77.883L89.4107 77.7523V77.6814C89.9267 74.7318 90.1929 71.8192 90.444 69.0174L90.4608 68.8295C90.7113 66.0333 90.951 63.3562 91.4054 60.7497C92.3256 55.4706 94.1111 50.578 98.5804 46.0729C103.952 40.6666 111.903 39.2858 119.562 41.6759C131.646 45.4671 139.134 57.4813 139.069 69.1049C138.985 82.678 133.247 94.3956 125.008 104.957C117.29 114.852 107.468 123.622 98.2045 131.894C97.5709 132.46 96.94 133.023 96.3124 133.584Z" fill="#E6FA36" stroke="black" stroke-width="3"/>
<path d="M107.19 86.4023C104.91 96.3598 95.8572 103.69 85.2496 103.448C74.6419 103.206 66.5911 95.9795 64.3452 86.4369" stroke="black" stroke-width="3" stroke-linecap="round" stroke-linejoin="round"/>
<path d="M58.126 86.4006C61.7195 87.1267 65.8658 85.7437 68.319 82.7012" stroke="black" stroke-width="3" stroke-linecap="round" stroke-linejoin="round"/>
<path d="M64 64C63.3592 60.5897 60.4507 58 57 58C53.5493 58 50.6408 60.5641 50 64" fill="#E6FA36"/>
<path d="M64 64C63.3592 60.5897 60.4507 58 57 58C53.5493 58 50.6408 60.5641 50 64" stroke="black" stroke-width="3" stroke-linecap="round" stroke-linejoin="round"/>
<path d="M121 64C120.359 60.5897 117.451 58 114 58C110.549 58 107.641 60.5641 107 64" fill="#E6FA36"/>
<path d="M121 64C120.359 60.5897 117.451 58 114 58C110.549 58 107.641 60.5641 107 64" stroke="black" stroke-width="3" stroke-linecap="round" stroke-linejoin="round"/>
<circle cx="56" cy="64" r="14" fill="black"/>
<line x1="32.0713" y1="61.5017" x2="53.0714" y2="62.5017" stroke="black" stroke-width="3"/>
<path d="M58.5 62L77.3908 55.6293" stroke="black" stroke-width="3"/>
</svg>
