<svg width="170" height="170" viewBox="0 0 170 170" fill="none" xmlns="http://www.w3.org/2000/svg">
<rect width="170" height="170" fill="#BC8EE4"/>
<path d="M96.3124 134.905L96.3106 134.903C94.8597 136.197 93.4378 137.49 92.0508 138.752C91.9118 138.879 91.7732 139.005 91.635 139.131L91.6319 139.134C90.3936 140.266 89.18 141.369 87.882 142.079C86.631 142.763 85.4485 143.001 84.2044 142.586L84.1962 142.583C82.7226 142.101 81.4831 141.094 80.0394 139.86L80.0346 139.856C68.5929 130.166 57.7435 120.131 48.1096 108.775L48.109 108.775C38.8183 97.8373 31.6009 84.8934 31.5004 70.3905C31.435 58.7668 38.9237 46.7525 51.0083 42.9614L51.0118 42.9603C58.6614 40.5397 66.6117 41.949 71.9858 47.3901L71.9882 47.3925C76.4581 51.8978 78.2436 56.7907 79.1639 62.0701C79.6183 64.6764 79.8581 67.3534 80.1085 70.1495L80.1254 70.3377C80.3764 73.1395 80.6426 76.0521 81.1587 79.0018V79.071L81.1815 79.2003C82.0002 83.8427 88.5839 83.7053 89.3873 79.2033L89.4107 79.0726V79.0017C89.9267 76.0521 90.1929 73.1395 90.444 70.3377L90.4608 70.1498C90.7113 67.3536 90.951 64.6765 91.4054 62.0701C92.3256 56.791 94.1111 51.8983 98.5804 47.3933C103.952 41.987 111.903 40.6061 119.562 42.9962C131.646 46.7874 139.134 58.8016 139.069 70.4252C138.985 83.9983 133.247 95.7159 125.008 106.278C117.29 116.172 107.468 124.942 98.2045 133.214C97.5709 133.78 96.94 134.343 96.3124 134.905Z" fill="#E6FA36" stroke="black" stroke-width="3"/>
<path d="M107.19 97.7227C104.91 107.68 95.8572 115.01 85.2496 114.768C74.6419 114.526 66.5911 107.3 64.3452 97.7572" stroke="black" stroke-width="3" stroke-linecap="round" stroke-linejoin="round"/>
<path d="M58.126 97.7229C61.7195 98.449 65.8658 97.066 68.319 94.0234" stroke="black" stroke-width="3" stroke-linecap="round" stroke-linejoin="round"/>
<path d="M68 66.3203C67.3592 62.9101 64.4507 60.3203 61 60.3203C57.5493 60.3203 54.6408 62.8844 54 66.3203" fill="#E6FA36"/>
<path d="M68 66.3203C67.3592 62.9101 64.4507 60.3203 61 60.3203C57.5493 60.3203 54.6408 62.8844 54 66.3203" stroke="black" stroke-width="3" stroke-linecap="round" stroke-linejoin="round"/>
<path d="M117 67.3203C116.359 63.9101 113.451 61.3203 110 61.3203C106.549 61.3203 103.641 63.8844 103 67.3203" fill="#E6FA36"/>
<path d="M117 67.3203C116.359 63.9101 113.451 61.3203 110 61.3203C106.549 61.3203 103.641 63.8844 103 67.3203" stroke="black" stroke-width="3" stroke-linecap="round" stroke-linejoin="round"/>
<path d="M79.619 68.3376C79.5348 78.8312 71.2434 87.272 61.0996 87.1906C50.9558 87.1093 42.8008 78.5366 42.885 68.043C51.5283 68.1123 51.1082 68.1089 61.252 68.1903C71.3958 68.2716 62.8726 68.2032 79.619 68.3376Z" fill="black" stroke="black" stroke-width="3" stroke-linejoin="round"/>
<path d="M127.754 68.7224C127.669 79.2159 119.378 87.6567 109.234 87.5754C99.0903 87.494 90.9354 78.9213 91.0195 68.4277C99.6628 68.4971 99.2427 68.4937 109.387 68.575C119.53 68.6564 111.007 68.588 127.754 68.7224Z" fill="black" stroke="black" stroke-width="3" stroke-linejoin="round"/>
<line x1="79.5867" y1="71.9043" x2="93.1551" y2="71.9777" stroke="black" stroke-width="3"/>
<path d="M140.693 81.7406C142.914 80.5951 144.113 78.0378 143.404 75.5384C142.728 73.1427 140.521 71.577 138.147 71.614L127.617 71.5075" stroke="black" stroke-width="3" stroke-linecap="round" stroke-linejoin="round"/>
<path d="M29.8944 80.8529C27.6924 79.6719 26.5341 77.0957 27.2834 74.608C27.9974 72.2234 30.2294 70.6933 32.603 70.7684L43.1333 70.8309" stroke="black" stroke-width="3" stroke-linecap="round" stroke-linejoin="round"/>
</svg>
