<svg width="170" height="170" viewBox="0 0 170 170" fill="none" xmlns="http://www.w3.org/2000/svg">
<rect width="170" height="170" fill="#BC8EE4"/>
<path d="M33.0184 83.1836C24.8405 87.2836 20 92.3672 20 97.8707C20 103.883 25.7688 109.375 35.3392 113.652C34.5766 111.641 33.9025 109.585 33.372 107.441C31.3276 99.208 31.3165 90.9526 33.0074 83.1836H33.0184Z" fill="black" stroke="black" stroke-width="3" stroke-linecap="round" stroke-linejoin="round"/>
<path d="M151.565 97.8596C151.565 92.124 146.294 86.8414 137.475 82.6641C139.95 93.5496 138.912 104.435 135.088 114.127C145.332 109.795 151.565 104.104 151.565 97.8596Z" fill="black" stroke="black" stroke-width="3" stroke-linecap="round" stroke-linejoin="round"/>
<path d="M137.475 82.6644C137.398 82.3107 137.331 81.9571 137.243 81.6145C130.104 52.9364 101.083 35.4643 72.4051 42.5924C51.9492 47.676 37.2178 63.8993 33.0183 83.1838C31.3275 90.9528 31.3385 99.2081 33.383 107.441C33.9135 109.574 34.5766 111.641 35.3502 113.652C47.4182 119.034 65.5312 122.46 85.7882 122.46C106.045 122.46 123.042 119.244 135.099 114.138C138.923 104.446 139.962 93.5609 137.486 82.6754L137.475 82.6644Z" fill="#E8FB3F" stroke="black" stroke-width="3" stroke-linecap="round" stroke-linejoin="round"/>
<path d="M100.652 57.6878C99.0609 55.157 95.8671 54.0077 92.9606 55.0907C90.0541 56.1738 88.529 58.9366 88.8274 61.7768" stroke="black" stroke-width="3" stroke-linecap="round" stroke-linejoin="round"/>
<path d="M80.9369 64.4632C79.3455 61.9324 76.1517 60.7831 73.2452 61.8661C70.4492 62.916 68.8137 65.712 69.112 68.5522" stroke="black" stroke-width="3" stroke-linecap="round" stroke-linejoin="round"/>
<path d="M77.4997 86.3556C77.1129 84.6537 76.903 82.9186 76.8809 81.1836" stroke="black" stroke-width="3" stroke-linecap="round" stroke-linejoin="round"/>
<path d="M77.6987 83.7809C87.0702 83.4715 96.3754 81.2833 104.907 77.4043" stroke="black" stroke-width="3" stroke-linecap="round" stroke-linejoin="round"/>
</svg>
