<svg width="170" height="170" viewBox="0 0 170 170" fill="none" xmlns="http://www.w3.org/2000/svg">
<rect width="170" height="170" fill="#BC8EE4"/>
<path d="M134.186 93.2129C133.556 90.8774 132.541 88.7161 131.281 86.7989C132.296 83.1038 132.401 79.0601 131.281 75.0862C128.936 66.5108 121.901 60.515 113.676 59.0161C108.321 52.0443 99.0805 48.5932 90.0505 51.0682C87.9155 51.6608 85.9205 52.5323 84.1005 53.6478C78.9905 50.5105 72.6905 49.395 66.4605 51.0682C61.7005 52.358 57.7105 55.1119 54.8405 58.7024C52.8805 58.7024 50.8855 58.9115 48.8905 59.4693C39.8255 61.9443 33.5605 69.6133 32.5455 78.3629C25.0205 83.5918 21.2405 93.1084 23.7955 102.416C26.8755 113.64 38.0405 120.508 49.3105 118.521C54.5255 126.155 64.2205 130.059 73.6705 127.479C74.9655 127.131 76.1555 126.678 77.3105 126.12C80.0755 131.837 84.9055 136.125 90.6105 138.356C93.2005 139.366 95.0555 141.737 95.0555 144.526V149.266H109.091V142.504C109.091 140.029 110.456 137.763 112.591 136.473C119.241 132.464 123.581 125.562 124.421 117.963C132.611 112.908 136.846 102.904 134.186 93.1781V93.2129Z" fill="#E6FA36" stroke="black" stroke-width="3" stroke-linecap="round" stroke-linejoin="round"/>
<path d="M75.9104 79.0944C75.2104 75.469 71.9904 72.75 68.1754 72.75C64.3604 72.75 61.1404 75.469 60.4404 79.0944" stroke="black" stroke-width="3" stroke-linecap="round" stroke-linejoin="round"/>
<path d="M104.68 79.0944C103.98 75.469 100.76 72.75 96.9454 72.75C93.1304 72.75 89.9104 75.469 89.2104 79.0944" stroke="black" stroke-width="3" stroke-linecap="round" stroke-linejoin="round"/>
<path d="M62.0508 97.2221C65.6908 97.9542 69.8908 96.5598 72.3758 93.4922" stroke="black" stroke-width="3" stroke-linecap="round" stroke-linejoin="round"/>
<path d="M68.2808 97.6406C68.2808 97.6406 71.0108 106.007 78.9208 106.007H95.9658" stroke="black" stroke-width="3" stroke-linecap="round" stroke-linejoin="round"/>
<path d="M114.772 47.2313L110.605 19.3603L92.4526 40.7615L83.1115 16.3036L77.2954 36.3678L77.186 36.7455L73.023 51.1068L125.647 66.3612L129.81 51.9999L129.92 51.6223L135.736 31.5581L114.772 47.2313Z" fill="#E8FB3F" stroke="black" stroke-width="3" stroke-linecap="round" stroke-linejoin="round"/>
<path d="M110.121 21.5255C112.323 22.1637 114.625 20.8962 115.264 18.6944C115.902 16.4927 114.634 14.1904 112.432 13.5521C110.231 12.9139 107.928 14.1814 107.29 16.3832C106.652 18.585 107.919 20.8872 110.121 21.5255Z" fill="#E8FB3F" stroke="black" stroke-width="3" stroke-linecap="round" stroke-linejoin="round"/>
<path d="M135.313 34.013C136.927 34.481 138.616 33.5515 139.084 31.9369C139.552 30.3222 138.622 28.6339 137.008 28.1658C135.393 27.6978 133.705 28.6273 133.237 30.2419C132.768 31.8566 133.698 33.5449 135.313 34.013Z" fill="#E8FB3F" stroke="black" stroke-width="3" stroke-linecap="round" stroke-linejoin="round"/>
<path d="M82.1569 18.6048C83.7715 19.0728 85.4598 18.1433 85.9279 16.5287C86.3959 14.914 85.4664 13.2257 83.8518 12.7576C82.2371 12.2896 80.5488 13.2191 80.0808 14.8337C79.6127 16.4484 80.5422 18.1367 82.1569 18.6048Z" fill="#E8FB3F" stroke="black" stroke-width="3" stroke-linecap="round" stroke-linejoin="round"/>
<path d="M106.07 36.5352L108.265 48.4728L101.284 53.0456L97.8311 45.4481L106.07 36.5352Z" fill="#E8FB3F" stroke="black" stroke-width="3" stroke-linejoin="round"/>
</svg>
