<svg width="170" height="170" viewBox="0 0 170 170" fill="none" xmlns="http://www.w3.org/2000/svg">
<rect width="170" height="170" fill="#BC8EE4"/>
<circle cx="85" cy="85" r="85" fill="#BC8EE4"/>
<path d="M33.0184 83.1836C24.8405 87.2836 20 92.3672 20 97.8707C20 103.883 25.7688 109.375 35.3392 113.652C34.5766 111.641 33.9025 109.585 33.372 107.441C31.3276 99.208 31.3165 90.9526 33.0074 83.1836H33.0184Z" fill="black" stroke="black" stroke-width="3" stroke-linecap="round" stroke-linejoin="round"/>
<path d="M151.567 97.8596C151.567 92.124 146.296 86.8414 137.477 82.6641C139.952 93.5496 138.914 104.435 135.09 114.127C145.334 109.795 151.567 104.104 151.567 97.8596Z" fill="black" stroke="black" stroke-width="3" stroke-linecap="round" stroke-linejoin="round"/>
<path d="M137.476 82.6644C137.398 82.3107 137.332 81.9571 137.243 81.6145C130.104 52.9364 101.084 35.4643 72.4056 42.5924C51.9497 47.676 37.2183 63.8993 33.0188 83.1838C31.328 90.9528 31.339 99.2081 33.3835 107.441C33.914 109.574 34.5771 111.641 35.3506 113.652C47.4186 119.034 65.5317 122.46 85.7887 122.46C106.046 122.46 123.043 119.244 135.1 114.138C138.923 104.446 139.962 93.5609 137.487 82.6754L137.476 82.6644Z" fill="#E8FB3F" stroke="black" stroke-width="3" stroke-linecap="round" stroke-linejoin="round"/>
<path d="M100.651 57.6878C99.0594 55.157 95.8656 54.0077 92.9591 55.0907C90.0526 56.1738 88.5275 58.9366 88.8259 61.7768" stroke="black" stroke-width="3" stroke-linecap="round" stroke-linejoin="round"/>
<path d="M80.9379 64.4632C79.3465 61.9324 76.1527 60.7831 73.2462 61.8661C70.4502 62.916 68.8146 65.712 69.113 68.5522" stroke="black" stroke-width="3" stroke-linecap="round" stroke-linejoin="round"/>
<path d="M77.5017 86.3556C77.1149 84.6537 76.9049 82.9186 76.8828 81.1836" stroke="black" stroke-width="3" stroke-linecap="round" stroke-linejoin="round"/>
<path d="M77.6992 83.7809C87.0707 83.4715 96.3759 81.2833 104.907 77.4043" stroke="black" stroke-width="3" stroke-linecap="round" stroke-linejoin="round"/>
</svg>
