<svg width="170" height="170" viewBox="0 0 170 170" fill="none" xmlns="http://www.w3.org/2000/svg">
<rect width="170" height="170" fill="#BC8EE4"/>
<path d="M141.831 77.9619C141.831 77.9619 143.406 45.1883 102.247 44.0152C99.537 43.9785 96.8273 44.0152 94.1175 44.0518C70.1691 44.7117 32.9283 51.5671 25.8975 74.5893C25.4581 76.0557 25.1652 77.522 25.0553 78.9151C24.0666 91.7093 36.4802 101.461 50.2121 106.117C56.5471 108.243 63.1384 109.563 69.8762 110.369C76.7238 111.176 83.3517 113.448 88.4783 117.334C91.1148 119.314 94.3006 120.854 97.7793 121.77C99.3539 122.173 100.416 123.64 100.416 125.289V133.904H115.32V123.64C115.32 122.173 116.125 120.817 117.443 120.23C122.973 117.774 127.294 113.705 129.454 108.719C130.626 106.007 132.201 103.367 134.361 101.094C143.882 91.2327 141.831 77.9619 141.831 77.9619Z" fill="#E6FA36" stroke="black" stroke-width="3" stroke-linejoin="round"/>
<path d="M46.4403 69.3477C38.5307 76.2763 41.4968 86.8709 49.8091 91.3801C58.1215 95.8892 67.4958 93.8729 73.428 87.4941" stroke="black" stroke-width="3" stroke-linecap="round" stroke-linejoin="round"/>
<path d="M78.2617 90.1694C75.1858 89.1429 72.5859 86.2468 72.0366 82.8008" stroke="black" stroke-width="3" stroke-linecap="round" stroke-linejoin="round"/>
<path d="M88.5243 57.4461C85.6401 67.4982 75.4248 73.3868 65.7078 70.5988C55.9908 67.8107 50.4517 57.4017 53.3359 47.3496C61.6156 49.7253 61.2131 49.6098 70.9301 52.3979C80.6471 55.186 72.4826 52.8433 88.5243 57.4461Z" fill="black" stroke="black" stroke-width="3" stroke-linejoin="round"/>
<path d="M134.633 70.6766C131.749 80.7287 121.534 86.6173 111.817 83.8292C102.1 81.0411 96.5606 70.6321 99.4448 60.5801C107.724 62.9557 107.322 62.8403 117.039 65.6283C126.756 68.4164 118.591 66.0738 134.633 70.6766Z" fill="black" stroke="black" stroke-width="3" stroke-linejoin="round"/>
<line x1="87.5418" y1="60.8579" x2="100.549" y2="64.5532" stroke="black" stroke-width="3"/>
<path d="M143.578 86.6314C146.016 86.1249 147.851 83.9902 147.838 81.4011C147.829 78.9205 146.128 76.8277 143.839 76.2289L133.758 73.3135" stroke="black" stroke-width="3" stroke-linecap="round" stroke-linejoin="round"/>
<path d="M37.4417 56.1773C35.6431 54.4552 35.2193 51.6724 36.6034 49.4842C37.9258 47.3856 40.4775 46.5129 42.7363 47.2192L52.8293 50.0923" stroke="black" stroke-width="3" stroke-linecap="round" stroke-linejoin="round"/>
</svg>
