<svg width="170" height="170" viewBox="0 0 170 170" fill="none" xmlns="http://www.w3.org/2000/svg">
<rect width="170" height="170" fill="#BC8EE4"/>
<path d="M139.38 81.4063C138.75 79.0707 137.735 76.9095 136.475 74.9922C137.49 71.2971 137.595 67.2535 136.475 63.2795C134.13 54.7042 127.095 48.7084 118.87 47.2095C113.515 40.2376 104.275 36.7866 95.2449 39.2616C93.1099 39.8542 91.1149 40.7257 89.2949 41.8412C84.1849 38.7038 77.8849 37.5883 71.6549 39.2616C66.8949 40.5514 62.9049 43.3052 60.0349 46.8957C58.0749 46.8957 56.0799 47.1049 54.0849 47.6626C45.0199 50.1376 38.7549 57.8066 37.7399 66.5563C30.2149 71.7852 26.4349 81.3017 28.9899 90.6091C32.0699 101.834 43.2349 108.701 54.5049 106.714C59.7199 114.348 69.4149 118.252 78.8649 115.673C80.1599 115.324 81.3499 114.871 82.5049 114.313C85.2699 120.03 90.0999 124.318 95.8049 126.549C98.3949 127.56 100.25 129.93 100.25 132.719V137.46H114.285V130.697C114.285 128.222 115.65 125.956 117.785 124.667C124.435 120.658 128.775 113.756 129.615 106.156C137.805 101.102 142.04 91.0971 139.38 81.3714V81.4063Z" fill="#E6FA36" stroke="black" stroke-width="3" stroke-linecap="round" stroke-linejoin="round"/>
<path d="M68.1048 65.2877C67.4048 61.6624 64.1848 58.9434 60.3698 58.9434C56.5548 58.9434 53.3348 61.6624 52.6348 65.2877" stroke="black" stroke-width="3" stroke-linecap="round" stroke-linejoin="round"/>
<path d="M115.875 66.2877C115.175 62.6624 111.955 59.9434 108.14 59.9434C104.325 59.9434 101.105 62.6624 100.405 66.2877" stroke="black" stroke-width="3" stroke-linecap="round" stroke-linejoin="round"/>
<path d="M63.2451 91.4155C66.8851 92.1475 71.0851 90.7532 73.5701 87.6855" stroke="black" stroke-width="3" stroke-linecap="round" stroke-linejoin="round"/>
<path d="M69.4751 91.834C69.4751 91.834 72.2051 100.2 80.1151 100.2H97.1601" stroke="black" stroke-width="3" stroke-linecap="round" stroke-linejoin="round"/>
<path d="M78.4673 66.7254C78.2751 77.1813 69.9257 85.5069 59.8183 85.3211C49.711 85.1354 41.6731 76.5086 41.8652 66.0527C50.4775 66.211 50.0589 66.2033 60.1662 66.3891C70.2736 66.5748 61.781 66.4187 78.4673 66.7254Z" fill="black" stroke="black" stroke-width="3" stroke-linejoin="round"/>
<path d="M126.429 67.6062C126.237 78.0621 117.887 86.3877 107.78 86.202C97.6724 86.0163 89.6345 77.3895 89.8267 66.9336C98.4389 67.0919 98.0203 67.0842 108.128 67.2699C118.235 67.4557 109.742 67.2996 126.429 67.6062Z" fill="black" stroke="black" stroke-width="3" stroke-linejoin="round"/>
<line x1="78.3986" y1="70.2736" x2="91.9186" y2="70.4867" stroke="black" stroke-width="3"/>
<path d="M139.188 80.7126C141.413 79.594 142.635 77.0581 141.954 74.5601C141.305 72.1658 139.122 70.5828 136.755 70.5952L126.263 70.3805" stroke="black" stroke-width="3" stroke-linecap="round" stroke-linejoin="round"/>
<path d="M28.7884 78.6827C26.6063 77.4831 25.4786 74.904 26.251 72.4327C26.987 70.0639 29.227 68.5622 31.5915 68.6615L42.0842 68.8324" stroke="black" stroke-width="3" stroke-linecap="round" stroke-linejoin="round"/>
</svg>
