<svg width="170" height="170" viewBox="0 0 170 170" fill="none" xmlns="http://www.w3.org/2000/svg">
<rect width="170" height="170" fill="#BC8EE4"/>
<path d="M33.0184 93.0039C24.8405 97.1039 20 102.188 20 107.691C20 113.703 25.7688 119.195 35.3392 123.472C34.5766 121.461 33.9025 119.405 33.372 117.261C31.3276 109.028 31.3165 100.773 33.0074 93.0039H33.0184Z" fill="black" stroke="black" stroke-width="3" stroke-linecap="round" stroke-linejoin="round"/>
<path d="M151.565 107.68C151.565 101.944 146.294 96.6618 137.475 92.4844C139.95 103.37 138.912 114.255 135.088 123.947C145.332 119.615 151.565 113.924 151.565 107.68Z" fill="black" stroke="black" stroke-width="3" stroke-linecap="round" stroke-linejoin="round"/>
<path d="M137.475 92.4847C137.398 92.131 137.331 91.7774 137.243 91.4348C130.104 62.7567 101.083 45.2846 72.4051 52.4127C51.9492 57.4963 37.2178 73.7196 33.0183 93.0041C31.3275 100.773 31.3385 109.028 33.383 117.262C33.9135 119.395 34.5766 121.461 35.3502 123.472C47.4182 128.854 65.5312 132.28 85.7882 132.28C106.045 132.28 123.042 129.064 135.099 123.959C138.923 114.267 139.962 103.381 137.486 92.4957L137.475 92.4847Z" fill="#E8FB3F" stroke="black" stroke-width="3" stroke-linecap="round" stroke-linejoin="round"/>
<path d="M103.665 68.432C102.483 65.6857 99.5056 64.0566 96.4667 64.6775C93.4278 65.2984 91.4941 67.7924 91.35 70.6445" stroke="black" stroke-width="3" stroke-linecap="round" stroke-linejoin="round"/>
<path d="M68.9244 74.4882C67.8755 71.6888 64.9787 69.9195 61.9137 70.3948C58.9635 70.8598 56.7981 73.269 56.5182 76.111" stroke="black" stroke-width="3" stroke-linecap="round" stroke-linejoin="round"/>
<path d="M72.6189 105.772C72.2321 104.07 72.0221 102.335 72 100.6" stroke="black" stroke-width="3" stroke-linecap="round" stroke-linejoin="round"/>
<path d="M72.8179 103.197C82.1894 102.887 91.4945 100.699 100.026 96.8203" stroke="black" stroke-width="3" stroke-linecap="round" stroke-linejoin="round"/>
<path d="M74.8287 74.0937C76.4288 83.637 70.2475 92.6273 61.0224 94.1742C51.7972 95.721 43.0216 89.2386 41.4214 79.6953C49.2819 78.3773 48.8999 78.4414 58.125 76.8945C67.3502 75.3477 59.5989 76.6474 74.8287 74.0937Z" fill="black" stroke="black" stroke-width="3" stroke-linejoin="round"/>
<path d="M118.604 66.7539C120.204 76.2972 114.023 85.2875 104.798 86.8343C95.5726 88.3811 86.7969 81.8987 85.1968 72.3555C93.0573 71.0375 92.6753 71.1015 101.9 69.5547C111.126 68.0079 103.374 69.3075 118.604 66.7539Z" fill="black" stroke="black" stroke-width="3" stroke-linejoin="round"/>
<line x1="75.3496" y1="77.2225" x2="87.6836" y2="75.1212" stroke="black" stroke-width="3"/>
<path d="M132.435 76.5092C134.269 75.1141 134.949 72.6 133.906 70.4435C132.909 68.3758 130.655 67.3065 128.504 67.7195L118.925 69.3052" stroke="black" stroke-width="3" stroke-linecap="round" stroke-linejoin="round"/>
<path d="M31.671 93.4046C29.4825 92.6839 28.019 90.5294 28.302 88.1504C28.5694 85.8708 30.352 84.1246 32.5196 83.8136L42.0927 82.1878" stroke="black" stroke-width="3" stroke-linecap="round" stroke-linejoin="round"/>
</svg>
