<svg width="170" height="170" viewBox="0 0 170 170" fill="none" xmlns="http://www.w3.org/2000/svg">
<rect width="170" height="170" fill="#BC8EE4"/>
<path d="M140.831 75.9619C140.831 75.9619 142.406 43.1883 101.247 42.0152C98.537 41.9785 95.8273 42.0152 93.1175 42.0518C69.1691 42.7117 31.9283 49.5671 24.8975 72.5893C24.4581 74.0557 24.1652 75.522 24.0553 76.9151C23.0666 89.7093 35.4802 99.4607 49.2121 104.117C55.5471 106.243 62.1384 107.563 68.8762 108.369C75.7238 109.176 82.3517 111.448 87.4783 115.334C90.1148 117.314 93.3006 118.854 96.7793 119.77C98.3539 120.173 99.4159 121.64 99.4159 123.289V131.904H114.32V121.64C114.32 120.173 115.125 118.817 116.443 118.23C121.973 115.774 126.294 111.705 128.454 106.719C129.626 104.007 131.201 101.367 133.361 99.0941C142.882 89.2327 140.831 75.9619 140.831 75.9619Z" fill="#E6FA36" stroke="black" stroke-width="3" stroke-linejoin="round"/>
<path d="M45.4403 67.3477C37.5307 74.2763 40.4968 84.8709 48.8091 89.3801C57.1215 93.8892 66.4958 91.8729 72.428 85.4941" stroke="black" stroke-width="3" stroke-linecap="round" stroke-linejoin="round"/>
<path d="M77.2617 88.1694C74.1858 87.1429 71.5859 84.2468 71.0366 80.8008" stroke="black" stroke-width="3" stroke-linecap="round" stroke-linejoin="round"/>
<path d="M96.7061 61.4805C96.7793 65.3664 99.5623 68.7757 103.517 69.4723C107.472 70.1688 111.244 67.9326 112.672 64.3399" stroke="black" stroke-width="3" stroke-linecap="round" stroke-linejoin="round"/>
<path d="M67.375 56.2383C67.4482 60.1242 70.2312 63.5335 74.186 64.2301C78.1408 64.9266 81.9125 62.6904 83.3406 59.0977" stroke="black" stroke-width="3" stroke-linecap="round" stroke-linejoin="round"/>
<circle cx="105" cy="66" r="14" fill="black"/>
<line x1="71.8413" y1="43.7581" x2="102.841" y2="64.7581" stroke="black" stroke-width="3"/>
<line x1="116.062" y1="67.5013" x2="140.062" y2="68.5013" stroke="black" stroke-width="3"/>
</svg>
