<svg width="170" height="170" viewBox="0 0 170 170" fill="none" xmlns="http://www.w3.org/2000/svg">
<rect width="170" height="170" fill="#BC8EE4"/>
<path d="M32.0184 98.1836C23.8405 102.284 19 107.367 19 112.871C19 118.883 24.7688 124.375 34.3392 128.652C33.5766 126.641 32.9025 124.585 32.372 122.441C30.3276 114.208 30.3165 105.953 32.0074 98.1836H32.0184Z" fill="black" stroke="black" stroke-width="3" stroke-linecap="round" stroke-linejoin="round"/>
<path d="M150.565 112.86C150.565 107.124 145.294 101.841 136.475 97.6641C138.95 108.55 137.912 119.435 134.088 129.127C144.332 124.795 150.565 119.104 150.565 112.86Z" fill="black" stroke="black" stroke-width="3" stroke-linecap="round" stroke-linejoin="round"/>
<path d="M136.475 97.6644C136.398 97.3107 136.331 96.9571 136.243 96.6145C129.104 67.9364 100.083 50.4643 71.4051 57.5924C50.9492 62.676 36.2178 78.8993 32.0183 98.1838C30.3275 105.953 30.3385 114.208 32.383 122.441C32.9135 124.574 33.5766 126.641 34.3502 128.652C46.4182 134.034 64.5312 137.46 84.7882 137.46C105.045 137.46 122.042 134.244 134.099 129.138C137.923 119.446 138.962 108.561 136.486 97.6754L136.475 97.6644Z" fill="#E8FB3F" stroke="black" stroke-width="3" stroke-linecap="round" stroke-linejoin="round"/>
<path d="M99.6523 72.6878C98.0609 70.157 94.8671 69.0077 91.9606 70.0907C89.0541 71.1738 87.529 73.9366 87.8274 76.7768" stroke="black" stroke-width="3" stroke-linecap="round" stroke-linejoin="round"/>
<path d="M79.9369 79.4632C78.3455 76.9324 75.1517 75.7831 72.2452 76.8661C69.4492 77.916 67.8137 80.712 68.112 83.5522" stroke="black" stroke-width="3" stroke-linecap="round" stroke-linejoin="round"/>
<path d="M76.4997 101.356C76.1129 99.6537 75.903 97.9186 75.8809 96.1836" stroke="black" stroke-width="3" stroke-linecap="round" stroke-linejoin="round"/>
<path d="M76.6987 98.7809C86.0702 98.4715 95.3754 96.2833 103.907 92.4043" stroke="black" stroke-width="3" stroke-linecap="round" stroke-linejoin="round"/>
<path d="M57.8788 53.8835L33.397 39.9265L38.9941 67.4254L13.9959 59.6452L26.1695 76.6218L26.3987 76.9413L35.1121 89.0925L79.638 57.1637L70.9246 45.0125L70.6954 44.6929L58.5218 27.7164L57.8788 53.8835Z" fill="#E8FB3F" stroke="black" stroke-width="3" stroke-linecap="round" stroke-linejoin="round"/>
<path d="M34.7993 41.6459C36.6622 40.31 37.0895 37.7168 35.7536 35.8538C34.4177 33.9909 31.8245 33.5636 29.9616 34.8995C28.0986 36.2354 27.6713 38.8286 29.0072 40.6915C30.3431 42.5545 32.9363 42.9817 34.7993 41.6459Z" fill="#E8FB3F" stroke="black" stroke-width="3" stroke-linecap="round" stroke-linejoin="round"/>
<path d="M60.1898 29.568C61.5559 28.5884 61.8693 26.6867 60.8896 25.3205C59.9099 23.9544 58.0083 23.641 56.6421 24.6207C55.276 25.6004 54.9626 27.502 55.9423 28.8682C56.9219 30.2344 58.8236 30.5477 60.1898 29.568Z" fill="#E8FB3F" stroke="black" stroke-width="3" stroke-linecap="round" stroke-linejoin="round"/>
<path d="M15.2142 61.82C16.5803 60.8403 16.8937 58.9387 15.914 57.5725C14.9344 56.2063 13.0327 55.893 11.6665 56.8727C10.3004 57.8523 9.98704 59.754 10.9667 61.1201C11.9464 62.4863 13.848 62.7996 15.2142 61.82Z" fill="#E8FB3F" stroke="black" stroke-width="3" stroke-linecap="round" stroke-linejoin="round"/>
<path d="M44.0913 54.1094L54.831 59.7649L54.1088 68.0791L46.0024 66.0957L44.0913 54.1094Z" fill="#E8FB3F" stroke="black" stroke-width="3" stroke-linejoin="round"/>
</svg>
