<svg width="170" height="170" viewBox="0 0 170 170" fill="none" xmlns="http://www.w3.org/2000/svg">
<circle cx="85" cy="85" r="85" fill="#BC8EE4"/>
<path d="M139.381 81.4063C138.751 79.0707 137.736 76.9095 136.476 74.9922C137.491 71.2971 137.596 67.2535 136.476 63.2795C134.131 54.7042 127.096 48.7084 118.871 47.2095C113.516 40.2376 104.276 36.7866 95.2458 39.2616C93.1108 39.8542 91.1158 40.7257 89.2958 41.8412C84.1858 38.7038 77.8858 37.5883 71.6558 39.2616C66.8958 40.5514 62.9058 43.3052 60.0358 46.8957C58.0758 46.8957 56.0808 47.1049 54.0858 47.6626C45.0208 50.1376 38.7558 57.8066 37.7408 66.5563C30.2158 71.7852 26.4358 81.3017 28.9908 90.6091C32.0708 101.834 43.2358 108.701 54.5058 106.714C59.7208 114.348 69.4158 118.252 78.8658 115.673C80.1608 115.324 81.3508 114.871 82.5058 114.313C85.2708 120.03 90.1008 124.318 95.8058 126.549C98.3958 127.56 100.251 129.93 100.251 132.719V137.46H114.286V130.697C114.286 128.222 115.651 125.956 117.786 124.667C124.436 120.658 128.776 113.756 129.616 106.156C137.806 101.102 142.041 91.0971 139.381 81.3714V81.4063Z" fill="#E6FA36" stroke="black" stroke-width="3" stroke-linecap="round" stroke-linejoin="round"/>
<path d="M68.1067 65.2877C67.4067 61.6624 64.1867 58.9434 60.3717 58.9434C56.5567 58.9434 53.3367 61.6624 52.6367 65.2877" stroke="black" stroke-width="3" stroke-linecap="round" stroke-linejoin="round"/>
<path d="M115.876 66.2877C115.176 62.6624 111.956 59.9434 108.141 59.9434C104.326 59.9434 101.106 62.6624 100.406 66.2877" stroke="black" stroke-width="3" stroke-linecap="round" stroke-linejoin="round"/>
<path d="M63.2461 91.4155C66.8861 92.1475 71.0861 90.7532 73.5711 87.6855" stroke="black" stroke-width="3" stroke-linecap="round" stroke-linejoin="round"/>
<path d="M69.4766 91.834C69.4766 91.834 72.2066 100.2 80.1166 100.2H97.1616" stroke="black" stroke-width="3" stroke-linecap="round" stroke-linejoin="round"/>
<path d="M78.4692 66.7254C78.2771 77.1813 69.9277 85.5069 59.8203 85.3211C49.7129 85.1354 41.675 76.5086 41.8672 66.0527C50.4794 66.211 50.0608 66.2033 60.1682 66.3891C70.2756 66.5748 61.783 66.4187 78.4692 66.7254Z" fill="black" stroke="black" stroke-width="3" stroke-linejoin="round"/>
<path d="M126.43 67.6062C126.238 78.0621 117.889 86.3877 107.781 86.202C97.6739 86.0163 89.636 77.3895 89.8281 66.9336C98.4404 67.0919 98.0218 67.0842 108.129 67.2699C118.237 67.4557 109.744 67.2996 126.43 67.6062Z" fill="black" stroke="black" stroke-width="3" stroke-linejoin="round"/>
<line x1="78.3986" y1="70.2736" x2="91.9186" y2="70.4867" stroke="black" stroke-width="3"/>
<path d="M139.19 80.7126C141.414 79.594 142.636 77.0581 141.955 74.5601C141.307 72.1658 139.123 70.5828 136.757 70.5952L126.265 70.3805" stroke="black" stroke-width="3" stroke-linecap="round" stroke-linejoin="round"/>
<path d="M28.7864 78.6827C26.6043 77.4831 25.4766 74.904 26.249 72.4327C26.9851 70.0639 29.225 68.5622 31.5896 68.6615L42.0822 68.8324" stroke="black" stroke-width="3" stroke-linecap="round" stroke-linejoin="round"/>
</svg>
