<svg width="170" height="170" viewBox="0 0 170 170" fill="none" xmlns="http://www.w3.org/2000/svg">
<rect width="170" height="170" fill="#BC8EE4"/>
<path d="M89.3124 143.555L89.3106 143.553C87.8597 144.847 86.4378 146.141 85.0508 147.403C84.9118 147.529 84.7732 147.655 84.635 147.781L84.6319 147.784C83.3936 148.917 82.18 150.02 80.882 150.73C79.631 151.414 78.4485 151.651 77.2044 151.236L77.1962 151.234C75.7226 150.752 74.4831 149.744 73.0394 148.511L73.0346 148.507C61.5929 138.816 50.7435 128.781 41.1096 117.426L41.109 117.425C31.8183 106.488 24.6009 93.5438 24.5004 79.0409C24.435 67.4172 31.9237 55.4029 44.0083 51.6118L44.0118 51.6107C51.6614 49.1901 59.6117 50.5994 64.9858 56.0405L64.9882 56.0429C69.4581 60.5482 71.2436 65.4411 72.1639 70.7204C72.6183 73.3268 72.8581 76.0038 73.1085 78.7999L73.1254 78.9881C73.3764 81.7899 73.6426 84.7025 74.1587 87.6522V87.7214L74.1815 87.8507C75.0002 92.4931 81.5839 92.3556 82.3873 87.8537L82.4107 87.723V87.6521C82.9267 84.7025 83.1929 81.7899 83.444 78.9881L83.4608 78.8002C83.7113 76.004 83.951 73.3269 84.4054 70.7204C85.3256 65.4414 87.1111 60.5487 91.5804 56.0437C96.9515 50.6373 104.903 49.2565 112.562 51.6466C124.646 55.4378 132.134 67.452 132.069 79.0756C131.985 92.6487 126.247 104.366 118.008 114.928C110.29 124.822 100.468 133.593 91.2045 141.865C90.5709 142.43 89.94 142.994 89.3124 143.555Z" fill="#E6FA36" stroke="black" stroke-width="3"/>
<path d="M100.19 96.373C97.91 106.33 88.8572 113.66 78.2496 113.418C67.6419 113.176 59.5911 105.95 57.3452 96.4076" stroke="black" stroke-width="3" stroke-linecap="round" stroke-linejoin="round"/>
<path d="M51.126 96.3713C54.7195 97.0974 58.8658 95.7144 61.319 92.6719" stroke="black" stroke-width="3" stroke-linecap="round" stroke-linejoin="round"/>
<path d="M57 73.9707C56.3592 70.5604 53.4507 67.9707 50 67.9707C46.5493 67.9707 43.6408 70.5348 43 73.9707" fill="#E6FA36"/>
<path d="M57 73.9707C56.3592 70.5604 53.4507 67.9707 50 67.9707C46.5493 67.9707 43.6408 70.5348 43 73.9707" stroke="black" stroke-width="3" stroke-linecap="round" stroke-linejoin="round"/>
<path d="M114 73.9707C113.359 70.5604 110.451 67.9707 107 67.9707C103.549 67.9707 100.641 70.5348 100 73.9707" fill="#E6FA36"/>
<path d="M114 73.9707C113.359 70.5604 110.451 67.9707 107 67.9707C103.549 67.9707 100.641 70.5348 100 73.9707" stroke="black" stroke-width="3" stroke-linecap="round" stroke-linejoin="round"/>
<path d="M124.117 56.7634L118.707 29.1068L101.531 51.299L91.1043 27.2837L86.192 47.5881L86.0995 47.9703L82.5835 62.5035L135.838 75.3874L139.354 60.8542L139.446 60.472L144.358 40.1676L124.117 56.7634Z" fill="#E8FB3F" stroke="black" stroke-width="3" stroke-linecap="round" stroke-linejoin="round"/>
<path d="M118.32 31.291C120.548 31.83 122.792 30.4608 123.331 28.2326C123.87 26.0045 122.501 23.7612 120.272 23.2221C118.044 22.6831 115.801 24.0524 115.262 26.2805C114.723 28.5086 116.092 30.7519 118.32 31.291Z" fill="#E8FB3F" stroke="black" stroke-width="3" stroke-linecap="round" stroke-linejoin="round"/>
<path d="M144.045 42.6407C145.679 43.036 147.324 42.0319 147.72 40.3979C148.115 38.764 147.111 37.1189 145.477 36.7236C143.843 36.3283 142.198 37.3324 141.803 38.9664C141.407 40.6004 142.411 42.2454 144.045 42.6407Z" fill="#E8FB3F" stroke="black" stroke-width="3" stroke-linecap="round" stroke-linejoin="round"/>
<path d="M90.2531 29.6251C91.8871 30.0204 93.5321 29.0163 93.9274 27.3823C94.3227 25.7483 93.3186 24.1033 91.6846 23.708C90.0507 23.3127 88.4056 24.3168 88.0103 25.9508C87.615 27.5847 88.6191 29.2298 90.2531 29.6251Z" fill="#E8FB3F" stroke="black" stroke-width="3" stroke-linecap="round" stroke-linejoin="round"/>
<path d="M114.945 46.4668L117.673 58.2942L110.903 63.1749L107.113 55.7396L114.945 46.4668Z" fill="#E8FB3F" stroke="black" stroke-width="3" stroke-linejoin="round"/>
</svg>
