<svg width="170" height="170" viewBox="0 0 170 170" fill="none" xmlns="http://www.w3.org/2000/svg">
<rect width="170" height="170" fill="#BC8EE4"/>
<path d="M77.5497 36.7694L74.5985 39.3909C73.9538 39.9634 73.3056 40.5383 72.6545 41.1155C63.3253 49.3874 53.4335 58.1581 45.6603 68.0528C37.3628 78.6148 31.5848 90.3307 31.5004 103.9L77.5497 36.7694ZM77.5497 36.7694H77.4932M77.5497 36.7694H77.4932M77.4932 36.7694C77.95 36.3576 78.4033 35.9481 78.8529 35.5418C78.9925 35.4157 79.1318 35.2899 79.2707 35.1644L79.2738 35.1616C80.5205 34.0291 81.7437 32.9252 83.0524 32.2146C84.3145 31.5293 85.5115 31.2893 86.7715 31.7066L86.7797 31.7093C88.2672 32.1925 89.5173 33.2019 90.9706 34.4346L90.9754 34.4387C102.499 44.1291 113.425 54.1649 123.128 65.5204L123.128 65.5211C132.486 76.4594 139.753 89.4024 139.854 103.902L139.854 103.905C139.953 115.517 132.418 127.534 120.204 131.329L120.2 131.33C112.489 133.753 104.472 132.342 99.0568 126.93C94.5547 122.424 92.7571 117.532 91.8306 112.254C91.3731 109.648 91.1317 106.972 90.8794 104.176L90.8625 103.988C90.6096 101.186 90.3415 98.2733 89.8219 95.3235V95.2542L89.7988 95.1241C88.9747 90.4847 82.365 90.621 81.5562 95.1211L81.5326 95.2527V95.3235C81.0129 98.2733 80.7448 101.186 80.492 103.988L80.475 104.175C80.2228 106.972 79.9813 109.648 79.5238 112.254C78.5973 117.532 76.7998 122.424 72.2977 126.93C66.885 132.339 58.8689 133.721 51.1494 131.329C38.9715 127.534 31.4345 115.517 31.5004 103.901L77.4932 36.7694Z" fill="#E6FA36" stroke="black" stroke-width="3"/>
<path d="M63.6152 98.1077C65.9119 88.1502 75.029 80.8204 85.712 81.0625C96.3949 81.3045 104.503 88.5306 106.765 98.0731" stroke="black" stroke-width="3" stroke-linecap="round" stroke-linejoin="round"/>
<path d="M113.029 98.1078C109.41 97.3817 105.234 98.7647 102.763 101.807" stroke="black" stroke-width="3" stroke-linecap="round" stroke-linejoin="round"/>
<path d="M93.0005 59.0059C93.6413 62.4161 96.5498 65.0059 100 65.0059C103.451 65.0059 106.36 62.4418 107 59.0059" fill="#E6FA36"/>
<path d="M93.0005 59.0059C93.6413 62.4161 96.5498 65.0059 100 65.0059C103.451 65.0059 106.36 62.4418 107 59.0059" stroke="black" stroke-width="3" stroke-linecap="round" stroke-linejoin="round"/>
<path d="M64.0005 59.0059C64.6413 62.4161 67.5498 65.0059 71.0005 65.0059C74.4512 65.0059 77.3596 62.4418 78.0005 59.0059" fill="#E6FA36"/>
<path d="M64.0005 59.0059C64.6413 62.4161 67.5498 65.0059 71.0005 65.0059C74.4512 65.0059 77.3596 62.4418 78.0005 59.0059" stroke="black" stroke-width="3" stroke-linecap="round" stroke-linejoin="round"/>
<path d="M80.6478 65.6655C80.5776 74.4121 73.6666 81.4477 65.2115 81.3798C56.7565 81.312 49.9591 74.1665 50.0293 65.4199C57.2336 65.4777 56.8835 65.4749 65.3385 65.5427C73.7936 65.6105 66.6893 65.5535 80.6478 65.6655Z" fill="black" stroke="black" stroke-width="3" stroke-linejoin="round"/>
<path d="M120.768 65.9878C120.698 74.7344 113.787 81.7699 105.332 81.7021C96.8771 81.6343 90.0798 74.4888 90.1499 65.7422C97.3542 65.8 97.0041 65.7972 105.459 65.865C113.914 65.9328 106.81 65.8758 120.768 65.9878Z" fill="black" stroke="black" stroke-width="3" stroke-linejoin="round"/>
<line x1="80.6219" y1="68.3887" x2="91.9314" y2="68.4498" stroke="black" stroke-width="3"/>
<path d="M131.554 76.8393C133.405 75.8845 134.405 73.7529 133.813 71.6696C133.25 69.6727 131.411 68.3677 129.431 68.3985L120.654 68.3098" stroke="black" stroke-width="3" stroke-linecap="round" stroke-linejoin="round"/>
<path d="M39.2013 76.0971C37.3659 75.1128 36.4004 72.9655 37.025 70.8919C37.6201 68.9043 39.4805 67.629 41.459 67.6916L50.2361 67.7436" stroke="black" stroke-width="3" stroke-linecap="round" stroke-linejoin="round"/>
</svg>
