<svg width="170" height="170" viewBox="0 0 170 170" fill="none" xmlns="http://www.w3.org/2000/svg">
<rect width="170" height="170" fill="#BC8EE4"/>
<path d="M54.3617 29.9994L137 66.377L100.638 149.051L18 112.674L54.3617 29.9994Z" fill="#E6FA36" stroke="black" stroke-width="3" stroke-linecap="round" stroke-linejoin="round"/>
<path d="M93.0637 106.149C86.7956 114.451 75.3776 117.484 65.6371 112.861C56.2496 108.386 51.394 98.2 53.3068 88.4258" fill="#E6FA36"/>
<path d="M93.0637 106.149C86.7956 114.451 75.3776 117.484 65.6371 112.861C56.2496 108.386 51.394 98.2 53.3068 88.4258" stroke="black" stroke-width="3" stroke-linecap="round" stroke-linejoin="round"/>
<path d="M95.3003 87.0413C93.5346 89.4848 90.2681 90.4564 87.4137 89.161C84.5592 87.8656 83.2055 85.0099 83.6763 82.1836" fill="#E6FA36"/>
<path d="M95.3003 87.0413C93.5346 89.4848 90.2681 90.4564 87.4137 89.161C84.5592 87.8656 83.2055 85.0099 83.6763 82.1836" stroke="black" stroke-width="3" stroke-linecap="round" stroke-linejoin="round"/>
<path d="M75.9075 79.0042C74.1418 81.4477 70.8753 82.4193 68.0208 81.1239C65.2841 79.8874 63.8127 76.9728 64.2835 74.1465" fill="#E6FA36"/>
<path d="M75.9075 79.0042C74.1418 81.4477 70.8753 82.4193 68.0208 81.1239C65.2841 79.8874 63.8127 76.9728 64.2835 74.1465" stroke="black" stroke-width="3" stroke-linecap="round" stroke-linejoin="round"/>
<path d="M50.1582 87.541C52.3653 88.2181 54.7195 88.3948 57.0149 88.0415Z" fill="#E6FA36"/>
<path d="M50.1582 87.541C52.3653 88.2181 54.7195 88.3948 57.0149 88.0415" stroke="black" stroke-width="3" stroke-linecap="round" stroke-linejoin="round"/>
<path d="M134.121 51.5197C124.97 38.8356 107.234 35.9979 94.5119 45.1764C92.0184 46.9753 97.418 58.7132 106.569 71.3973C115.72 84.0814 125.156 92.9072 127.649 91.1082C140.379 81.9248 143.279 64.1988 134.128 51.5147L134.121 51.5197Z" fill="#E8FB3F" stroke="black" stroke-width="3" stroke-linecap="round" stroke-linejoin="round"/>
<path d="M141.937 45.8809L129.076 55.1594" stroke="black" stroke-width="3" stroke-linecap="round" stroke-linejoin="round"/>
<path d="M143.002 52.6252L140.684 46.7839L144.757 49.9229C149.182 53.3393 152.532 57.9833 154.379 63.2601C154.868 64.6622 153.271 65.7479 152.139 64.7962L151.269 64.0672C147.617 60.9979 144.771 57.0536 143.004 52.6104L143.002 52.6252Z" fill="#E8FB3F" stroke="black" stroke-width="3" stroke-linecap="round" stroke-linejoin="round"/>
<path d="M127.626 31.2818L127.208 30.2268C126.661 28.8525 128.207 27.6842 129.368 28.589C133.791 32.0081 137.142 36.6529 138.991 41.9286L140.689 46.7821L135.879 42.738C132.227 39.6666 129.381 35.7216 127.611 31.2791L127.626 31.2818Z" fill="#E8FB3F" stroke="black" stroke-width="3" stroke-linecap="round" stroke-linejoin="round"/>
<path d="M141.018 46.5437C142.006 47.9131 143.917 48.2224 145.286 47.2344C146.656 46.2464 146.965 44.3353 145.977 42.9659C144.989 41.5965 143.078 41.2872 141.708 42.2752C140.339 43.2632 140.03 45.1743 141.018 46.5437Z" fill="#E8FB3F" stroke="black" stroke-width="3" stroke-linecap="round" stroke-linejoin="round"/>
<path d="M85.3655 24.3793C85.0227 23.6251 84.1335 23.2916 83.3793 23.6345C82.6251 23.9773 82.2916 24.8665 82.6345 25.6207L85.3655 24.3793ZM95.3655 46.3793L85.3655 24.3793L82.6345 25.6207L92.6345 47.6207L95.3655 46.3793Z" fill="black"/>
</svg>
