<svg width="170" height="170" viewBox="0 0 170 170" fill="none" xmlns="http://www.w3.org/2000/svg">
<rect width="170" height="170" fill="#BC8EE4"/>
<path d="M52.3617 33.9994L135 70.377L98.6383 153.051L16 116.674L52.3617 33.9994Z" fill="#E6FA36" stroke="black" stroke-width="3" stroke-linecap="round" stroke-linejoin="round"/>
<path d="M91.0637 110.149C84.7956 118.451 73.3776 121.484 63.6371 116.861C54.2496 112.386 49.394 102.2 51.3068 92.4258" fill="#E6FA36"/>
<path d="M91.0637 110.149C84.7956 118.451 73.3776 121.484 63.6371 116.861C54.2496 112.386 49.394 102.2 51.3068 92.4258" stroke="black" stroke-width="3" stroke-linecap="round" stroke-linejoin="round"/>
<path d="M93.3003 91.0413C91.5346 93.4848 88.2681 94.4564 85.4137 93.161C82.5592 91.8656 81.2055 89.0099 81.6763 86.1836" fill="#E6FA36"/>
<path d="M93.3003 91.0413C91.5346 93.4848 88.2681 94.4564 85.4137 93.161C82.5592 91.8656 81.2055 89.0099 81.6763 86.1836" stroke="black" stroke-width="3" stroke-linecap="round" stroke-linejoin="round"/>
<path d="M73.9075 83.0042C72.1418 85.4477 68.8753 86.4193 66.0208 85.1239C63.2841 83.8874 61.8127 80.9728 62.2835 78.1465" fill="#E6FA36"/>
<path d="M73.9075 83.0042C72.1418 85.4477 68.8753 86.4193 66.0208 85.1239C63.2841 83.8874 61.8127 80.9728 62.2835 78.1465" stroke="black" stroke-width="3" stroke-linecap="round" stroke-linejoin="round"/>
<path d="M48.1582 91.541C50.3653 92.2181 52.7195 92.3948 55.0149 92.0415Z" fill="#E6FA36"/>
<path d="M48.1582 91.541C50.3653 92.2181 52.7195 92.3948 55.0149 92.0415" stroke="black" stroke-width="3" stroke-linecap="round" stroke-linejoin="round"/>
<path d="M126.687 65.4011L136.525 37.1529L108.905 48.3064L112.197 20.7123L96.8296 36.6974L96.5403 36.9983L85.5409 48.4398L127.466 88.7453L138.466 77.3038L138.755 77.0029L154.123 61.0178L126.687 65.4011Z" fill="#E8FB3F" stroke="black" stroke-width="3" stroke-linecap="round" stroke-linejoin="round"/>
<path d="M135.003 38.9488C136.757 40.6351 139.546 40.5802 141.232 38.826C142.919 37.0719 142.864 34.2828 141.11 32.5964C139.355 30.91 136.566 30.965 134.88 32.7191C133.194 34.4733 133.248 37.2624 135.003 38.9488Z" fill="#E8FB3F" stroke="black" stroke-width="3" stroke-linecap="round" stroke-linejoin="round"/>
<path d="M152.513 63.1163C153.799 64.353 155.845 64.3127 157.081 63.0263C158.318 61.74 158.278 59.6946 156.991 58.4579C155.705 57.2213 153.66 57.2616 152.423 58.5479C151.186 59.8343 151.227 61.8797 152.513 63.1163Z" fill="#E8FB3F" stroke="black" stroke-width="3" stroke-linecap="round" stroke-linejoin="round"/>
<path d="M110.164 22.4034C111.45 23.6401 113.496 23.5998 114.732 22.3134C115.969 21.0271 115.929 18.9817 114.642 17.7451C113.356 16.5084 111.31 16.5487 110.074 17.8351C108.837 19.1214 108.877 21.1668 110.164 22.4034Z" fill="#E8FB3F" stroke="black" stroke-width="3" stroke-linecap="round" stroke-linejoin="round"/>
<path d="M123.789 51.0547L119.96 63.3564L111.143 64.2085L111.647 55.3646L123.789 51.0547Z" fill="#E8FB3F" stroke="black" stroke-width="3" stroke-linejoin="round"/>
</svg>
