<svg width="170" height="170" viewBox="0 0 170 170" fill="none" xmlns="http://www.w3.org/2000/svg">
<rect width="170" height="170" fill="#BC8EE4"/>
<path d="M77.5497 49.7694L74.5985 52.3909C73.9538 52.9634 73.3056 53.5383 72.6545 54.1155C63.3253 62.3874 53.4335 71.1581 45.6603 81.0528C37.3628 91.6148 31.5848 103.331 31.5004 116.9L77.5497 49.7694ZM77.5497 49.7694H77.4932M77.5497 49.7694H77.4932M77.4932 49.7694C77.95 49.3576 78.4033 48.9481 78.8529 48.5418C78.9925 48.4157 79.1318 48.2899 79.2707 48.1644L79.2738 48.1616C80.5205 47.0291 81.7437 45.9252 83.0524 45.2146C84.3145 44.5293 85.5115 44.2893 86.7715 44.7066L86.7797 44.7093C88.2672 45.1925 89.5173 46.2019 90.9706 47.4346L90.9754 47.4387C102.499 57.1291 113.425 67.1649 123.128 78.5204L123.128 78.5211C132.486 89.4594 139.753 102.402 139.854 116.902L139.854 116.905C139.953 128.517 132.418 140.534 120.204 144.329L120.2 144.33C112.489 146.753 104.472 145.342 99.0568 139.93C94.5547 135.424 92.7571 130.532 91.8306 125.254C91.3731 122.648 91.1317 119.972 90.8794 117.176L90.8625 116.988C90.6096 114.186 90.3415 111.273 89.8219 108.324V108.254L89.7988 108.124C88.9747 103.485 82.365 103.621 81.5562 108.121L81.5326 108.253V108.324C81.0129 111.273 80.7448 114.186 80.492 116.988L80.475 117.175C80.2228 119.972 79.9813 122.648 79.5238 125.254C78.5973 130.532 76.7998 135.424 72.2977 139.93C66.885 145.339 58.8689 146.721 51.1494 144.329C38.9715 140.534 31.4345 128.517 31.5004 116.901L77.4932 49.7694Z" fill="#E6FA36" stroke="black" stroke-width="3"/>
<path d="M63.6152 107.108C65.9119 97.1502 75.029 89.8204 85.712 90.0625C96.3949 90.3045 104.503 97.5306 106.765 107.073" stroke="black" stroke-width="3" stroke-linecap="round" stroke-linejoin="round"/>
<path d="M113.029 107.108C109.41 106.382 105.234 107.765 102.763 110.807" stroke="black" stroke-width="3" stroke-linecap="round" stroke-linejoin="round"/>
<path d="M90.0005 74.0059C90.6413 77.4161 93.5498 80.0059 97.0005 80.0059C100.451 80.0059 103.36 77.4418 104 74.0059" fill="#E6FA36"/>
<path d="M90.0005 74.0059C90.6413 77.4161 93.5498 80.0059 97.0005 80.0059C100.451 80.0059 103.36 77.4418 104 74.0059" stroke="black" stroke-width="3" stroke-linecap="round" stroke-linejoin="round"/>
<path d="M67.0005 74.0059C67.6413 77.4161 70.5498 80.0059 74.0005 80.0059C77.4512 80.0059 80.3596 77.4418 81.0005 74.0059" fill="#E6FA36"/>
<path d="M67.0005 74.0059C67.6413 77.4161 70.5498 80.0059 74.0005 80.0059C77.4512 80.0059 80.3596 77.4418 81.0005 74.0059" stroke="black" stroke-width="3" stroke-linecap="round" stroke-linejoin="round"/>
<path d="M96.6124 46.8603L84.6294 21.3541L73.375 47.0613L57.4139 26.3084L57.5945 47.1978L57.5979 47.591L57.7272 62.5429L112.516 62.069L112.386 47.1172L112.383 46.7239L112.202 25.8345L96.6124 46.8603Z" fill="#E8FB3F" stroke="black" stroke-width="3" stroke-linecap="round" stroke-linejoin="round"/>
<path d="M84.7864 23.5662C87.0787 23.5464 88.921 21.672 88.9012 19.3796C88.8813 17.0873 87.007 15.2451 84.7146 15.2649C82.4223 15.2847 80.58 17.1591 80.5999 19.4514C80.6197 21.7438 82.4941 23.586 84.7864 23.5662Z" fill="#E8FB3F" stroke="black" stroke-width="3" stroke-linecap="round" stroke-linejoin="round"/>
<path d="M112.501 28.3074C114.182 28.2928 115.533 26.9183 115.518 25.2373C115.503 23.5562 114.129 22.2052 112.448 22.2198C110.767 22.2343 109.416 23.6089 109.43 25.2899C109.445 26.9709 110.819 28.3219 112.501 28.3074Z" fill="#E8FB3F" stroke="black" stroke-width="3" stroke-linecap="round" stroke-linejoin="round"/>
<path d="M57.1587 28.7879C58.8398 28.7733 60.1907 27.3988 60.1762 25.7177C60.1617 24.0367 58.7871 22.6857 57.1061 22.7002C55.425 22.7148 54.074 24.0893 54.0886 25.7704C54.1031 27.4514 55.4777 28.8024 57.1587 28.7879Z" fill="#E8FB3F" stroke="black" stroke-width="3" stroke-linecap="round" stroke-linejoin="round"/>
<path d="M85.209 39.1074L90.7346 49.9145L85.3577 56.2969L79.8711 50.0085L85.209 39.1074Z" fill="#E8FB3F" stroke="black" stroke-width="3" stroke-linejoin="round"/>
</svg>
