<svg width="170" height="171" viewBox="0 0 170 171" fill="none" xmlns="http://www.w3.org/2000/svg">
<rect y="1" width="170" height="170" fill="#BC8EE4"/>
<path d="M81.9774 158C110.684 158 133.955 134.719 133.955 106C133.955 77.2812 110.684 54 81.9774 54C53.2711 54 30 77.2812 30 106C30 134.719 53.2711 158 81.9774 158Z" fill="#E6FA36" stroke="black" stroke-width="3" stroke-linecap="round" stroke-linejoin="round"/>
<path d="M71.7808 127.425C77.3477 135.779 88.1977 139.331 97.8547 135.409C107.171 131.602 112.397 122.054 111.09 112.535" fill="#E6FA36"/>
<path d="M71.7808 127.425C77.3477 135.779 88.1977 139.331 97.8547 135.409C107.171 131.602 112.397 122.054 111.09 112.535" stroke="black" stroke-width="3" stroke-linecap="round" stroke-linejoin="round"/>
<path d="M70.6731 108.898C72.2353 111.342 75.3312 112.45 78.1431 111.37C80.8698 110.347 82.4319 107.62 82.1195 104.863" fill="#E6FA36"/>
<path d="M70.6731 108.898C72.2353 111.342 75.3312 112.45 78.1431 111.37C80.8698 110.347 82.4319 107.62 82.1195 104.863" stroke="black" stroke-width="3" stroke-linecap="round" stroke-linejoin="round"/>
<path d="M89.8167 102.221C91.3788 104.664 94.4747 105.772 97.2866 104.693C100.099 103.613 101.575 100.942 101.263 98.1855" fill="#E6FA36"/>
<path d="M89.8167 102.221C91.3788 104.664 94.4747 105.772 97.2866 104.693C100.099 103.613 101.575 100.942 101.263 98.1855" stroke="black" stroke-width="3" stroke-linecap="round" stroke-linejoin="round"/>
<path d="M114.158 111.881C111.999 112.392 109.699 112.449 107.512 111.995Z" fill="#E6FA36"/>
<path d="M114.158 111.881C111.999 112.392 109.699 112.449 107.512 111.995" stroke="black" stroke-width="3" stroke-linecap="round" stroke-linejoin="round"/>
<path d="M99.7838 39.6864C85.8666 36.1077 71.674 44.5282 68.0845 58.4872C67.381 61.2231 78.0929 66.3384 92.0101 69.9171C105.927 73.4958 117.778 74.1824 118.482 71.4465C122.073 57.4799 113.703 43.2576 99.7857 39.6789L99.7838 39.6864Z" fill="#E8FB3F" stroke="black" stroke-width="3" stroke-linecap="round" stroke-linejoin="round"/>
<path d="M101.989 31.1133L98.3602 45.2245" stroke="black" stroke-width="3" stroke-linecap="round" stroke-linejoin="round"/>
<path d="M106.705 35.2494L101.636 32.4865L106.356 32.3098C111.489 32.1214 116.585 33.4317 120.99 36.0727C122.16 36.7751 121.67 38.4806 120.311 38.4739L119.269 38.4702C114.885 38.4497 110.557 37.3369 106.698 35.2378L106.705 35.2494Z" fill="#E8FB3F" stroke="black" stroke-width="3" stroke-linecap="round" stroke-linejoin="round"/>
<path d="M83.3019 29.2132L82.3866 28.7139C81.1926 28.0648 81.5974 26.3314 82.949 26.288C88.0821 26.1028 93.1784 27.4133 97.5854 30.0517L101.637 32.4814L95.8629 32.4529C91.4791 32.4301 87.1506 31.317 83.29 29.2199L83.3019 29.2132Z" fill="#E8FB3F" stroke="black" stroke-width="3" stroke-linecap="round" stroke-linejoin="round"/>
<path d="M101.729 32.1213C103.232 32.5077 104.763 31.6029 105.15 30.1003C105.536 28.5977 104.631 27.0664 103.129 26.6801C101.626 26.2937 100.095 27.1985 99.7084 28.7011C99.322 30.2037 100.227 31.735 101.729 32.1213Z" fill="#E8FB3F" stroke="black" stroke-width="3" stroke-linecap="round" stroke-linejoin="round"/>
<path d="M49.4558 49.0692C48.7098 48.7088 47.813 49.0214 47.4526 49.7673C47.0922 50.5132 47.4048 51.4101 48.1507 51.7705L49.4558 49.0692ZM69.4479 58.7275L49.4558 49.0692L48.1507 51.7705L68.1429 61.4288L69.4479 58.7275Z" fill="black"/>
</svg>
