<svg width="170" height="170" viewBox="0 0 170 170" fill="none" xmlns="http://www.w3.org/2000/svg">
<rect width="170" height="170" fill="#BC8EE4"/>
<path d="M128.186 92.9434C127.556 90.6078 126.541 88.4466 125.281 86.5293C126.296 82.8342 126.401 78.7906 125.281 74.8166C122.936 66.2413 115.901 60.2455 107.676 58.7466C102.321 51.7747 93.0805 48.3237 84.0505 50.7987C81.9155 51.3913 79.9205 52.2628 78.1005 53.3783C72.9905 50.2409 66.6905 49.1254 60.4605 50.7987C55.7005 52.0885 51.7105 54.8423 48.8405 58.4328C46.8805 58.4328 44.8855 58.642 42.8905 59.1997C33.8255 61.6747 27.5605 69.3438 26.5455 78.0934C19.0205 83.3223 15.2405 92.8388 17.7955 102.146C20.8755 113.371 32.0405 120.238 43.3105 118.251C48.5255 125.885 58.2205 129.79 67.6705 127.21C68.9655 126.861 70.1555 126.408 71.3105 125.85C74.0755 131.567 78.9055 135.855 84.6105 138.086C87.2005 139.097 89.0555 141.467 89.0555 144.256V148.997H103.091V142.234C103.091 139.759 104.456 137.493 106.591 136.204C113.241 132.195 117.581 125.293 118.421 117.693C126.611 112.639 130.846 102.634 128.186 92.9085V92.9434Z" fill="#E6FA36" stroke="black" stroke-width="3" stroke-linecap="round" stroke-linejoin="round"/>
<path d="M69.9104 78.8248C69.2104 75.1995 65.9904 72.4805 62.1754 72.4805C58.3604 72.4805 55.1404 75.1995 54.4404 78.8248" stroke="black" stroke-width="3" stroke-linecap="round" stroke-linejoin="round"/>
<path d="M98.6804 78.8248C97.9804 75.1995 94.7604 72.4805 90.9454 72.4805C87.1304 72.4805 83.9104 75.1995 83.2104 78.8248" stroke="black" stroke-width="3" stroke-linecap="round" stroke-linejoin="round"/>
<path d="M56.0508 96.9526C59.6908 97.6846 63.8908 96.2903 66.3758 93.2227" stroke="black" stroke-width="3" stroke-linecap="round" stroke-linejoin="round"/>
<path d="M62.2808 97.3711C62.2808 97.3711 65.0108 105.737 72.9208 105.737H89.9658" stroke="black" stroke-width="3" stroke-linecap="round" stroke-linejoin="round"/>
<path d="M117.508 41.6527C104.514 34.0871 87.8267 38.5244 80.2383 51.5571C78.7511 54.1115 88.08 62.3117 101.074 69.8773C114.067 77.443 125.804 81.5083 127.291 78.954C134.884 65.9142 130.505 49.2113 117.512 41.6457L117.508 41.6527Z" fill="#E8FB3F" stroke="black" stroke-width="3" stroke-linecap="round" stroke-linejoin="round"/>
<path d="M122.169 33.6445L114.498 46.8193" stroke="black" stroke-width="3" stroke-linecap="round" stroke-linejoin="round"/>
<path d="M125.74 39.1525L121.423 34.9272L126.226 36.0933C131.448 37.3651 136.205 40.1351 139.889 44.0485C140.867 45.0887 139.888 46.6664 138.522 46.2728L137.473 45.9723C133.065 44.7036 129.025 42.3509 125.736 39.1387L125.74 39.1525Z" fill="#E8FB3F" stroke="black" stroke-width="3" stroke-linecap="round" stroke-linejoin="round"/>
<path d="M103.895 26.4122L103.115 25.649C102.098 24.6555 102.999 23.0255 104.372 23.3666C109.593 24.6416 114.351 27.412 118.037 31.3232L121.425 34.923L115.619 33.2505C111.212 31.9794 107.171 29.6263 103.881 26.4156L103.895 26.4122Z" fill="#E8FB3F" stroke="black" stroke-width="3" stroke-linecap="round" stroke-linejoin="round"/>
<path d="M121.621 34.5865C123.024 35.4033 124.823 34.9283 125.64 33.5254C126.457 32.1226 125.982 30.3232 124.579 29.5063C123.176 28.6895 121.377 29.1646 120.56 30.5674C119.743 31.9703 120.218 33.7697 121.621 34.5865Z" fill="#E8FB3F" stroke="black" stroke-width="3" stroke-linecap="round" stroke-linejoin="round"/>
<path d="M64.1181 36.8207C63.4983 36.271 62.5503 36.3277 62.0005 36.9474C61.4508 37.5672 61.5075 38.5152 62.1273 39.065L64.1181 36.8207ZM81.4974 52.2372L64.1181 36.8207L62.1273 39.065L79.5066 54.4815L81.4974 52.2372Z" fill="black"/>
</svg>
