<svg width="170" height="170" viewBox="0 0 170 170" fill="none" xmlns="http://www.w3.org/2000/svg">
<rect width="170" height="170" fill="#BC8EE4"/>
<path d="M31.1239 98.4766C22.9459 102.577 18.1055 107.66 18.1055 113.164C18.1055 119.176 23.8742 124.668 33.4446 128.945C32.6821 126.934 32.008 124.878 31.4775 122.734C29.433 114.501 29.422 106.246 31.1128 98.4766H31.1239Z" fill="black" stroke="black" stroke-width="3" stroke-linecap="round" stroke-linejoin="round"/>
<path d="M149.671 113.153C149.671 107.417 144.399 102.134 135.58 97.957C138.056 108.843 137.017 119.728 133.193 129.42C143.438 125.088 149.671 119.397 149.671 113.153Z" fill="black" stroke="black" stroke-width="3" stroke-linecap="round" stroke-linejoin="round"/>
<path d="M135.581 97.9573C135.503 97.6037 135.437 97.25 135.348 96.9074C128.209 68.2294 99.1886 50.7573 70.5106 57.8854C50.0546 62.969 35.3233 79.1922 31.1238 98.4767C29.433 106.246 29.444 114.501 31.4885 122.734C32.019 124.867 32.682 126.934 33.4556 128.945C45.5236 134.327 63.6367 137.753 83.8937 137.753C104.151 137.753 121.148 134.537 133.204 129.431C137.028 119.739 138.067 108.854 135.592 97.9684L135.581 97.9573Z" fill="#E8FB3F" stroke="black" stroke-width="3" stroke-linecap="round" stroke-linejoin="round"/>
<path d="M98.7577 72.9808C97.1664 70.45 93.9725 69.3007 91.066 70.3837C88.1596 71.4667 86.6345 74.2296 86.9329 77.0697" stroke="black" stroke-width="3" stroke-linecap="round" stroke-linejoin="round"/>
<path d="M79.0424 79.7562C77.451 77.2254 74.2572 76.0761 71.3507 77.1591C68.5547 78.209 66.9191 81.0049 67.2175 83.8451" stroke="black" stroke-width="3" stroke-linecap="round" stroke-linejoin="round"/>
<path d="M75.6052 101.649C75.2184 99.9467 75.0084 98.2116 74.9863 96.4766" stroke="black" stroke-width="3" stroke-linecap="round" stroke-linejoin="round"/>
<path d="M75.8042 99.0739C85.1757 98.7644 94.4809 96.5763 103.012 92.6973" stroke="black" stroke-width="3" stroke-linecap="round" stroke-linejoin="round"/>
<path d="M49.1215 41.0959C35.1384 48.103 29.5038 65.158 36.532 79.1831C37.9094 81.9319 50.3591 78.4768 64.3422 71.4697C78.3253 64.4626 88.5452 56.5577 87.1677 53.8089C80.1357 39.7761 63.1008 34.0811 49.1177 41.0883L49.1215 41.0959Z" fill="#E8FB3F" stroke="black" stroke-width="3" stroke-linecap="round" stroke-linejoin="round"/>
<path d="M44.8042 32.4805L51.909 46.6585" stroke="black" stroke-width="3" stroke-linecap="round" stroke-linejoin="round"/>
<path d="M51.6322 32.5065L45.4957 33.861L49.245 30.3425C53.3244 26.5199 58.444 23.9544 63.948 22.9746C65.4103 22.7153 66.227 24.4654 65.1066 25.431L64.248 26.173C60.6345 29.2886 56.2863 31.4676 51.6179 32.5021L51.6322 32.5065Z" fill="#E8FB3F" stroke="black" stroke-width="3" stroke-linecap="round" stroke-linejoin="round"/>
<path d="M28.1053 44.2745L26.9971 44.5187C25.553 44.839 24.6467 43.1266 25.7253 42.1252C29.8071 38.3051 34.9276 35.7391 40.431 34.7559L45.4934 33.8555L40.7327 37.9582C37.1174 41.0721 32.7684 43.2515 28.1003 44.2885L28.1053 44.2745Z" fill="#E8FB3F" stroke="black" stroke-width="3" stroke-linecap="round" stroke-linejoin="round"/>
<path d="M45.3115 33.4937C46.8212 32.7372 47.4317 30.9001 46.6752 29.3904C45.9187 27.8807 44.0816 27.2702 42.5719 28.0267C41.0622 28.7832 40.4517 30.6203 41.2082 32.13C41.9647 33.6397 43.8018 34.2502 45.3115 33.4937Z" fill="#E8FB3F" stroke="black" stroke-width="3" stroke-linecap="round" stroke-linejoin="round"/>
<path d="M14.5414 84.8884C13.7422 85.1063 13.2709 85.9309 13.4888 86.7301C13.7067 87.5294 14.5313 88.0006 15.3306 87.7827L14.5414 84.8884ZM37.8564 78.5313L14.5414 84.8884L15.3306 87.7827L38.6456 81.4257L37.8564 78.5313Z" fill="black"/>
</svg>
