<svg width="170" height="170" viewBox="0 0 170 170" fill="none" xmlns="http://www.w3.org/2000/svg">
<rect width="170" height="170" fill="#BC8EE4"/>
<path d="M93.3124 135.584L93.3106 135.582C91.8597 136.876 90.4378 138.17 89.0508 139.432C88.9118 139.559 88.7732 139.685 88.635 139.81L88.6319 139.813C87.3936 140.946 86.18 142.049 84.882 142.759C83.631 143.443 82.4485 143.681 81.2044 143.266L81.1962 143.263C79.7226 142.781 78.4831 141.773 77.0394 140.54L77.0346 140.536C65.5929 130.846 54.7435 120.81 45.1096 109.455L45.109 109.454C35.8183 98.517 28.6009 85.5731 28.5004 71.0702C28.435 59.4465 35.9237 47.4322 48.0083 43.6411L48.0118 43.64C55.6614 41.2194 63.6117 42.6287 68.9858 48.0698L68.9882 48.0722C73.4581 52.5774 75.2436 57.4704 76.1639 62.7497C76.6183 65.3561 76.8581 68.0331 77.1085 70.8292L77.1254 71.0174C77.3764 73.8192 77.6426 76.7318 78.1587 79.6814V79.7507L78.1815 79.88C79.0002 84.5224 85.5839 84.3849 86.3873 79.883L86.4107 79.7523V79.6814C86.9267 76.7318 87.1929 73.8192 87.444 71.0174L87.4608 70.8295C87.7113 68.0333 87.951 65.3562 88.4054 62.7497C89.3256 57.4706 91.1111 52.578 95.5804 48.0729C100.952 42.6666 108.903 41.2858 116.562 43.6759C128.646 47.4671 136.134 59.4813 136.069 71.1049C135.985 84.678 130.247 96.3956 122.008 106.957C114.29 116.852 104.468 125.622 95.2045 133.894C94.5709 134.46 93.94 135.023 93.3124 135.584Z" fill="#E6FA36" stroke="black" stroke-width="3"/>
<path d="M104.19 88.4023C101.91 98.3598 92.8572 105.69 82.2496 105.448C71.6419 105.206 63.5911 97.9795 61.3452 88.4369" stroke="black" stroke-width="3" stroke-linecap="round" stroke-linejoin="round"/>
<path d="M55.126 88.4006C58.7195 89.1267 62.8658 87.7437 65.319 84.7012" stroke="black" stroke-width="3" stroke-linecap="round" stroke-linejoin="round"/>
<path d="M61 66C60.3592 62.5897 57.4507 60 54 60C50.5493 60 47.6408 62.5641 47 66" fill="#E6FA36"/>
<path d="M61 66C60.3592 62.5897 57.4507 60 54 60C50.5493 60 47.6408 62.5641 47 66" stroke="black" stroke-width="3" stroke-linecap="round" stroke-linejoin="round"/>
<path d="M118 66C117.359 62.5897 114.451 60 111 60C107.549 60 104.641 62.5641 104 66" fill="#E6FA36"/>
<path d="M118 66C117.359 62.5897 114.451 60 111 60C107.549 60 104.641 62.5641 104 66" stroke="black" stroke-width="3" stroke-linecap="round" stroke-linejoin="round"/>
<mask id="path-9-inside-1_10197_1173" fill="white">
<path fill-rule="evenodd" clip-rule="evenodd" d="M108 58.9474C130.091 58.9474 148 52.915 148 45.4737C148 38.0324 130.091 32 108 32C85.9086 32 68 38.0324 68 45.4737C68 52.915 85.9086 58.9474 108 58.9474ZM108 51.3684C122.65 51.3684 134.526 48.7293 134.526 45.4737C134.526 42.2181 122.65 39.5789 108 39.5789C93.3499 39.5789 81.4737 42.2181 81.4737 45.4737C81.4737 48.7293 93.3499 51.3684 108 51.3684Z"/>
</mask>
<path fill-rule="evenodd" clip-rule="evenodd" d="M108 58.9474C130.091 58.9474 148 52.915 148 45.4737C148 38.0324 130.091 32 108 32C85.9086 32 68 38.0324 68 45.4737C68 52.915 85.9086 58.9474 108 58.9474ZM108 51.3684C122.65 51.3684 134.526 48.7293 134.526 45.4737C134.526 42.2181 122.65 39.5789 108 39.5789C93.3499 39.5789 81.4737 42.2181 81.4737 45.4737C81.4737 48.7293 93.3499 51.3684 108 51.3684Z" fill="#E6FA36"/>
<path d="M145 45.4737C145 46.0344 144.666 47.0346 142.988 48.3715C141.339 49.6842 138.769 50.9983 135.327 52.158C128.472 54.4669 118.81 55.9474 108 55.9474V61.9474C119.281 61.9474 129.619 60.4116 137.242 57.8441C141.038 56.5654 144.326 54.9762 146.726 53.065C149.095 51.178 151 48.6336 151 45.4737H145ZM108 35C118.81 35 128.472 36.4804 135.327 38.7894C138.769 39.949 141.339 41.2631 142.988 42.5759C144.666 43.9128 145 44.913 145 45.4737H151C151 42.3137 149.095 39.7694 146.726 37.8824C144.326 35.9712 141.038 34.3819 137.242 33.1033C129.619 30.5358 119.281 29 108 29V35ZM71 45.4737C71 44.913 71.3336 43.9128 73.0123 42.5759C74.6607 41.2631 77.2307 39.949 80.6734 38.7894C87.5281 36.4804 97.1897 35 108 35V29C96.7189 29 86.3805 30.5358 78.7581 33.1033C74.9622 34.3819 71.6743 35.9712 69.2745 37.8824C66.905 39.7694 65 42.3137 65 45.4737H71ZM108 55.9474C97.1897 55.9474 87.5281 54.4669 80.6734 52.158C77.2307 50.9983 74.6607 49.6843 73.0123 48.3715C71.3336 47.0346 71 46.0344 71 45.4737H65C65 48.6336 66.905 51.178 69.2745 53.065C71.6743 54.9762 74.9622 56.5654 78.7581 57.8441C86.3805 60.4116 96.7189 61.9474 108 61.9474V55.9474ZM131.526 45.4737C131.526 44.9026 131.8 44.6082 131.781 44.6295C131.746 44.667 131.551 44.8473 131.046 45.1124C130.044 45.6393 128.395 46.2046 126.106 46.7133C121.576 47.7199 115.173 48.3684 108 48.3684V54.3684C115.477 54.3684 122.337 53.6973 127.408 52.5705C129.919 52.0124 132.155 51.3075 133.837 50.4239C134.675 49.9838 135.522 49.4239 136.194 48.6938C136.881 47.9477 137.526 46.8587 137.526 45.4737H131.526ZM108 42.5789C115.173 42.5789 121.576 43.2274 126.106 44.234C128.395 44.7427 130.044 45.3081 131.046 45.835C131.551 46.1 131.746 46.2804 131.781 46.3179C131.8 46.3392 131.526 46.0448 131.526 45.4737H137.526C137.526 44.0887 136.881 42.9996 136.194 42.2535C135.522 41.5235 134.675 40.9636 133.837 40.5234C132.155 39.6398 129.919 38.9349 127.408 38.3769C122.337 37.25 115.477 36.5789 108 36.5789V42.5789ZM84.4737 45.4737C84.4737 46.0448 84.1998 46.3392 84.2195 46.3179C84.254 46.2804 84.449 46.1 84.9536 45.835C85.9564 45.3081 87.6047 44.7427 89.8939 44.234C94.4235 43.2274 100.827 42.5789 108 42.5789V36.5789C100.523 36.5789 93.6632 37.25 88.5923 38.3769C86.0811 38.9349 83.8447 39.6398 82.1629 40.5234C81.3252 40.9636 80.4779 41.5235 79.8057 42.2535C79.1187 42.9996 78.4737 44.0887 78.4737 45.4737H84.4737ZM108 48.3684C100.827 48.3684 94.4235 47.7199 89.8939 46.7133C87.6047 46.2046 85.9564 45.6393 84.9536 45.1124C84.449 44.8473 84.254 44.667 84.2195 44.6295C84.1998 44.6082 84.4737 44.9026 84.4737 45.4737H78.4737C78.4737 46.8587 79.1187 47.9477 79.8057 48.6938C80.4779 49.4239 81.3252 49.9838 82.1629 50.4239C83.8447 51.3075 86.0811 52.0124 88.5923 52.5705C93.6632 53.6973 100.523 54.3684 108 54.3684V48.3684Z" fill="black" mask="url(#path-9-inside-1_10197_1173)"/>
</svg>
