<svg width="170" height="170" viewBox="0 0 170 170" fill="none" xmlns="http://www.w3.org/2000/svg">
<rect width="170" height="170" fill="#BC8EE4"/>
<path d="M133.831 91.0205C133.831 91.0205 135.406 58.2469 94.2468 57.0738C91.537 57.0371 88.8273 57.0738 86.1175 57.1104C62.1691 57.7703 24.9283 64.6257 17.8975 87.6479C17.4581 89.1142 17.1652 90.5806 17.0553 91.9737C16.0666 104.768 28.4802 114.519 42.2121 119.175C48.5471 121.301 55.1384 122.621 61.8762 123.428C68.7238 124.234 75.3517 126.507 80.4783 130.393C83.1148 132.373 86.3006 133.912 89.7793 134.829C91.3539 135.232 92.4159 136.698 92.4159 138.348V146.963H107.32V136.698C107.32 135.232 108.125 133.876 109.443 133.289C114.973 130.833 119.294 126.764 121.454 121.778C122.626 119.065 124.201 116.426 126.361 114.153C135.882 104.291 133.831 91.0205 133.831 91.0205Z" fill="#E6FA36" stroke="black" stroke-width="3" stroke-linejoin="round"/>
<path d="M38.4403 82.4062C30.5307 89.3349 33.4968 99.9295 41.8091 104.439C50.1215 108.948 59.4958 106.932 65.428 100.553" stroke="black" stroke-width="3" stroke-linecap="round" stroke-linejoin="round"/>
<path d="M70.2617 103.228C67.1858 102.201 64.5859 99.3054 64.0366 95.8594" stroke="black" stroke-width="3" stroke-linecap="round" stroke-linejoin="round"/>
<path d="M89.7061 76.5391C89.7793 80.425 92.5623 83.8343 96.5171 84.5308C100.472 85.2274 104.244 82.9911 105.672 79.3985" stroke="black" stroke-width="3" stroke-linecap="round" stroke-linejoin="round"/>
<path d="M60.375 71.2969C60.4482 75.1828 63.2312 78.5921 67.186 79.2887C71.1408 79.9852 74.9125 77.749 76.3406 74.1563" stroke="black" stroke-width="3" stroke-linecap="round" stroke-linejoin="round"/>
<path d="M117.938 54.2313L113.771 26.3603L95.6186 47.7615L86.2776 23.3036L80.4614 43.3678L80.352 43.7455L76.189 58.1068L128.813 73.3612L132.976 58.9999L133.086 58.6223L138.902 38.5581L117.938 54.2313Z" fill="#E8FB3F" stroke="black" stroke-width="3" stroke-linecap="round" stroke-linejoin="round"/>
<path d="M113.287 28.5255C115.489 29.1637 117.791 27.8962 118.43 25.6944C119.068 23.4927 117.8 21.1904 115.599 20.5521C113.397 19.9139 111.094 21.1814 110.456 23.3832C109.818 25.585 111.085 27.8872 113.287 28.5255Z" fill="#E8FB3F" stroke="black" stroke-width="3" stroke-linecap="round" stroke-linejoin="round"/>
<path d="M138.479 41.013C140.093 41.481 141.782 40.5515 142.25 38.9369C142.718 37.3222 141.788 35.6339 140.174 35.1658C138.559 34.6978 136.871 35.6273 136.403 37.2419C135.934 38.8566 136.864 40.5449 138.479 41.013Z" fill="#E8FB3F" stroke="black" stroke-width="3" stroke-linecap="round" stroke-linejoin="round"/>
<path d="M85.3229 25.6048C86.9375 26.0728 88.6259 25.1433 89.0939 23.5287C89.562 21.914 88.6324 20.2257 87.0178 19.7576C85.4032 19.2896 83.7148 20.2191 83.2468 21.8337C82.7787 23.4484 83.7082 25.1367 85.3229 25.6048Z" fill="#E8FB3F" stroke="black" stroke-width="3" stroke-linecap="round" stroke-linejoin="round"/>
<path d="M109.236 43.5352L111.431 55.4728L104.45 60.0456L100.997 52.4481L109.236 43.5352Z" fill="#E8FB3F" stroke="black" stroke-width="3" stroke-linejoin="round"/>
</svg>
