<svg width="170" height="170" viewBox="0 0 170 170" fill="none" xmlns="http://www.w3.org/2000/svg">
<rect width="170" height="170" fill="#BC8EE4"/>
<path d="M88.3124 142.584L88.3106 142.582C86.8597 143.876 85.4378 145.17 84.0508 146.432C83.9118 146.559 83.7732 146.685 83.635 146.81L83.6319 146.813C82.3936 147.946 81.18 149.049 79.882 149.759C78.631 150.443 77.4485 150.681 76.2044 150.266L76.1962 150.263C74.7226 149.781 73.4831 148.773 72.0394 147.54L72.0346 147.536C60.5929 137.846 49.7435 127.81 40.1096 116.455L40.109 116.454C30.8183 105.517 23.6009 92.5731 23.5004 78.0702C23.435 66.4465 30.9237 54.4322 43.0083 50.6411L43.0118 50.64C50.6614 48.2194 58.6117 49.6287 63.9858 55.0698L63.9882 55.0722C68.4581 59.5774 70.2436 64.4704 71.1639 69.7497C71.6183 72.3561 71.8581 75.0331 72.1085 77.8292L72.1254 78.0174C72.3764 80.8192 72.6426 83.7318 73.1587 86.6814V86.7507L73.1815 86.88C74.0002 91.5224 80.5839 91.3849 81.3873 86.883L81.4107 86.7523V86.6814C81.9267 83.7318 82.1929 80.8192 82.444 78.0174L82.4608 77.8295C82.7113 75.0333 82.951 72.3562 83.4054 69.7497C84.3256 64.4706 86.1111 59.578 90.5804 55.0729C95.9515 49.6666 103.903 48.2858 111.562 50.6759C123.646 54.4671 131.134 66.4813 131.069 78.1049C130.985 91.678 125.247 103.396 117.008 113.957C109.29 123.852 99.468 132.622 90.2045 140.894C89.5709 141.46 88.94 142.023 88.3124 142.584Z" fill="#E6FA36" stroke="black" stroke-width="3"/>
<path d="M99.1905 95.4023C96.91 105.36 87.8572 112.69 77.2496 112.448C66.6419 112.206 58.5911 104.979 56.3452 95.4369" stroke="black" stroke-width="3" stroke-linecap="round" stroke-linejoin="round"/>
<path d="M50.126 95.4006C53.7195 96.1267 57.8658 94.7437 60.319 91.7012" stroke="black" stroke-width="3" stroke-linecap="round" stroke-linejoin="round"/>
<path d="M56 73C55.3592 69.5897 52.4507 67 49 67C45.5493 67 42.6408 69.5641 42 73" fill="#E6FA36"/>
<path d="M56 73C55.3592 69.5897 52.4507 67 49 67C45.5493 67 42.6408 69.5641 42 73" stroke="black" stroke-width="3" stroke-linecap="round" stroke-linejoin="round"/>
<path d="M113 73C112.359 69.5897 109.451 67 106 67C102.549 67 99.6408 69.5641 99 73" fill="#E6FA36"/>
<path d="M113 73C112.359 69.5897 109.451 67 106 67C102.549 67 99.6408 69.5641 99 73" stroke="black" stroke-width="3" stroke-linecap="round" stroke-linejoin="round"/>
<path d="M121.177 38.4251C108.289 32.6355 93.1329 38.4262 87.326 51.3523C86.1879 53.8858 95.7133 60.6293 108.601 66.4188C121.488 72.2083 132.856 74.8508 133.994 72.3174C139.804 59.3842 134.067 44.2076 121.18 38.4181L121.177 38.4251Z" fill="#E8FB3F" stroke="black" stroke-width="3" stroke-linecap="round" stroke-linejoin="round"/>
<path d="M124.744 30.4844L118.873 43.5514" stroke="black" stroke-width="3" stroke-linecap="round" stroke-linejoin="round"/>
<path d="M128.624 35.2797L124.173 31.7568L128.776 32.3732C133.781 33.0471 138.499 35.1668 142.327 38.4608C143.343 39.3364 142.584 40.9072 141.269 40.674L140.259 40.4965C136.015 39.7452 132.008 37.9449 128.619 35.2672L128.624 35.2797Z" fill="#E8FB3F" stroke="black" stroke-width="3" stroke-linecap="round" stroke-linejoin="round"/>
<path d="M106.955 25.5265L106.151 24.8901C105.103 24.0619 105.784 22.45 107.101 22.6335C112.105 23.3104 116.825 25.4305 120.654 28.7222L124.174 31.7522L118.585 30.7613C114.341 30.0078 110.333 28.2071 106.942 25.531L106.955 25.5265Z" fill="#E8FB3F" stroke="black" stroke-width="3" stroke-linecap="round" stroke-linejoin="round"/>
<path d="M124.324 31.4204C125.716 32.0455 127.35 31.4243 127.975 30.0329C128.601 28.6415 127.979 27.0068 126.588 26.3818C125.197 25.7567 123.562 26.3779 122.937 27.7693C122.312 29.1607 122.933 30.7954 124.324 31.4204Z" fill="#E8FB3F" stroke="black" stroke-width="3" stroke-linecap="round" stroke-linejoin="round"/>
<path d="M70.8629 39.0977C70.1889 38.616 69.2521 38.7718 68.7703 39.4458C68.2886 40.1198 68.4444 41.0566 69.1184 41.5384L70.8629 39.0977ZM88.622 51.7914L70.8629 39.0977L69.1184 41.5384L86.8775 54.232L88.622 51.7914Z" fill="black"/>
</svg>
