<svg width="170" height="170" viewBox="0 0 170 170" fill="none" xmlns="http://www.w3.org/2000/svg">
<rect width="170" height="170" fill="#BC8EE4"/>
<path d="M140.186 77.9434C139.556 75.6078 138.541 73.4466 137.281 71.5293C138.296 67.8342 138.401 63.7906 137.281 59.8166C134.936 51.2413 127.901 45.2455 119.676 43.7466C114.321 36.7747 105.081 33.3237 96.0505 35.7987C93.9155 36.3913 91.9205 37.2628 90.1005 38.3783C84.9905 35.2409 78.6905 34.1254 72.4605 35.7987C67.7005 37.0885 63.7105 39.8423 60.8405 43.4328C58.8805 43.4328 56.8855 43.642 54.8905 44.1997C45.8255 46.6747 39.5605 54.3438 38.5455 63.0934C31.0205 68.3223 27.2405 77.8388 29.7955 87.1462C32.8755 98.3709 44.0405 105.238 55.3105 103.251C60.5255 110.885 70.2205 114.79 79.6705 112.21C80.9655 111.861 82.1555 111.408 83.3105 110.85C86.0755 116.567 90.9055 120.855 96.6105 123.086C99.2005 124.097 101.056 126.467 101.056 129.256V133.997H115.091V127.234C115.091 124.759 116.456 122.493 118.591 121.204C125.241 117.195 129.581 110.293 130.421 102.693C138.611 97.6388 142.846 87.6343 140.186 77.9085V77.9434Z" fill="#E6FA36" stroke="black" stroke-width="3" stroke-linecap="round" stroke-linejoin="round"/>
<path d="M81.9104 63.8248C81.2104 60.1995 77.9904 57.4805 74.1754 57.4805C70.3604 57.4805 67.1404 60.1995 66.4404 63.8248" stroke="black" stroke-width="3" stroke-linecap="round" stroke-linejoin="round"/>
<path d="M110.68 63.8248C109.98 60.1995 106.76 57.4805 102.945 57.4805C99.1304 57.4805 95.9104 60.1995 95.2104 63.8248" stroke="black" stroke-width="3" stroke-linecap="round" stroke-linejoin="round"/>
<path d="M68.0508 81.9526C71.6908 82.6846 75.8908 81.2903 78.3758 78.2227" stroke="black" stroke-width="3" stroke-linecap="round" stroke-linejoin="round"/>
<path d="M74.2808 82.3711C74.2808 82.3711 77.0108 90.7373 84.9208 90.7373H101.966" stroke="black" stroke-width="3" stroke-linecap="round" stroke-linejoin="round"/>
</svg>
