<svg width="170" height="170" viewBox="0 0 170 170" fill="none" xmlns="http://www.w3.org/2000/svg">
<rect width="170" height="170" fill="#BC8EE4"/>
<path d="M84.9774 140C113.684 140 136.955 116.719 136.955 88C136.955 59.2812 113.684 36 84.9774 36C56.2711 36 33 59.2812 33 88C33 116.719 56.2711 140 84.9774 140Z" fill="#E6FA36" stroke="black" stroke-width="3" stroke-linecap="round" stroke-linejoin="round"/>
<path d="M74.7808 109.425C80.3477 117.779 91.1977 121.331 100.855 117.409C110.171 113.602 115.397 104.054 114.09 94.5352" fill="#E6FA36"/>
<path d="M74.7808 109.425C80.3477 117.779 91.1977 121.331 100.855 117.409C110.171 113.602 115.397 104.054 114.09 94.5352" stroke="black" stroke-width="3" stroke-linecap="round" stroke-linejoin="round"/>
<path d="M73.6731 90.8983C75.2353 93.342 78.3312 94.4502 81.1431 93.3704C83.8698 92.3474 85.4319 89.6196 85.1195 86.8633" fill="#E6FA36"/>
<path d="M73.6731 90.8983C75.2353 93.342 78.3312 94.4502 81.1431 93.3704C83.8698 92.3474 85.4319 89.6196 85.1195 86.8633" stroke="black" stroke-width="3" stroke-linecap="round" stroke-linejoin="round"/>
<path d="M92.8167 84.2205C94.3788 86.6642 97.4747 87.7724 100.287 86.6926C103.099 85.6129 104.575 82.9418 104.263 80.1855" fill="#E6FA36"/>
<path d="M92.8167 84.2205C94.3788 86.6642 97.4747 87.7724 100.287 86.6926C103.099 85.6129 104.575 82.9418 104.263 80.1855" stroke="black" stroke-width="3" stroke-linecap="round" stroke-linejoin="round"/>
<path d="M117.158 93.8809C114.999 94.3923 112.699 94.4492 110.512 93.9945Z" fill="#E6FA36"/>
<path d="M117.158 93.8809C114.999 94.3923 112.699 94.4492 110.512 93.9945" stroke="black" stroke-width="3" stroke-linecap="round" stroke-linejoin="round"/>
<mask id="path-11-inside-1_10197_1174" fill="white">
<path fill-rule="evenodd" clip-rule="evenodd" d="M84.5 56C110.734 56 132 48.8366 132 40C132 31.1634 110.734 24 84.5 24C58.2665 24 37 31.1634 37 40C37 48.8366 58.2665 56 84.5 56ZM84.5 47C101.897 47 116 43.866 116 40C116 36.134 101.897 33 84.5 33C67.103 33 53 36.134 53 40C53 43.866 67.103 47 84.5 47Z"/>
</mask>
<path fill-rule="evenodd" clip-rule="evenodd" d="M84.5 56C110.734 56 132 48.8366 132 40C132 31.1634 110.734 24 84.5 24C58.2665 24 37 31.1634 37 40C37 48.8366 58.2665 56 84.5 56ZM84.5 47C101.897 47 116 43.866 116 40C116 36.134 101.897 33 84.5 33C67.103 33 53 36.134 53 40C53 43.866 67.103 47 84.5 47Z" fill="#E6FA36"/>
<path d="M129 40C129 40.9095 128.457 42.242 126.398 43.8812C124.37 45.4962 121.251 47.0824 117.13 48.4707C108.918 51.2368 97.3814 53 84.5 53V59C97.8521 59 110.066 57.1815 119.045 54.1568C123.52 52.6495 127.357 50.7881 130.136 48.5747C132.885 46.3854 135 43.5088 135 40H129ZM84.5 27C97.3814 27 108.918 28.7632 117.13 31.5293C121.251 32.9176 124.37 34.5038 126.398 36.1188C128.457 37.758 129 39.0905 129 40H135C135 36.4912 132.885 33.6146 130.136 31.4253C127.357 29.2119 123.52 27.3505 119.045 25.8432C110.066 22.8185 97.8521 21 84.5 21V27ZM40 40C40 39.0905 40.5434 37.758 42.6017 36.1188C44.6296 34.5038 47.7488 32.9176 51.8701 31.5293C60.082 28.7632 71.6186 27 84.5 27V21C71.1479 21 58.9344 22.8185 49.9548 25.8432C45.4802 27.3505 41.6432 29.2119 38.8639 31.4253C36.1149 33.6146 34 36.4912 34 40H40ZM84.5 53C71.6186 53 60.082 51.2368 51.8701 48.4707C47.7488 47.0824 44.6296 45.4962 42.6017 43.8812C40.5434 42.242 40 40.9095 40 40H34C34 43.5088 36.1149 46.3854 38.8639 48.5747C41.6432 50.7881 45.4802 52.6495 49.9548 54.1568C58.9344 57.1815 71.1479 59 84.5 59V53ZM113 40C113 39.5052 113.239 39.2853 113.153 39.3786C113.052 39.488 112.76 39.7378 112.129 40.069C110.875 40.7281 108.862 41.4125 106.123 42.0212C100.693 43.2278 93.0469 44 84.5 44V50C93.3501 50 101.454 49.2052 107.425 47.8783C110.386 47.2203 112.986 46.3963 114.92 45.3805C115.884 44.8742 116.828 44.2449 117.567 43.4429C118.32 42.6249 119 41.4613 119 40H113ZM84.5 36C93.0469 36 100.693 36.7722 106.123 37.9788C108.862 38.5875 110.875 39.2719 112.129 39.931C112.76 40.2622 113.052 40.512 113.153 40.6214C113.239 40.7147 113 40.4948 113 40H119C119 38.5387 118.32 37.3751 117.567 36.5571C116.828 35.7551 115.884 35.1258 114.92 34.6195C112.986 33.6037 110.386 32.7797 107.425 32.1217C101.454 30.7948 93.3501 30 84.5 30V36ZM56 40C56 40.4948 55.7609 40.7147 55.8468 40.6214C55.9476 40.512 56.2404 40.2622 56.8707 39.931C58.1253 39.2719 60.1377 38.5875 62.8769 37.9788C68.3066 36.7722 75.9531 36 84.5 36V30C75.6499 30 67.5464 30.7948 61.5753 32.1217C58.6142 32.7797 56.0135 33.6037 54.0801 34.6195C53.1165 35.1258 52.1716 35.7551 51.4331 36.5571C50.6798 37.3751 50 38.5387 50 40H56ZM84.5 44C75.9531 44 68.3066 43.2278 62.8769 42.0212C60.1377 41.4125 58.1253 40.7281 56.8707 40.069C56.2404 39.7378 55.9476 39.488 55.8468 39.3786C55.7609 39.2853 56 39.5052 56 40H50C50 41.4613 50.6798 42.6249 51.4331 43.4429C52.1716 44.2449 53.1165 44.8742 54.0801 45.3805C56.0135 46.3963 58.6142 47.2203 61.5753 47.8783C67.5464 49.2052 75.6499 50 84.5 50V44Z" fill="black" mask="url(#path-11-inside-1_10197_1174)"/>
</svg>
