<svg width="170" height="170" viewBox="0 0 170 170" fill="none" xmlns="http://www.w3.org/2000/svg">
<rect width="170" height="170" fill="#BC8EE4"/>
<path d="M76.5497 42.7694L73.5985 45.3909C72.9538 45.9634 72.3056 46.5383 71.6545 47.1155C62.3253 55.3874 52.4335 64.1581 44.6603 74.0528C36.3628 84.6148 30.5848 96.3307 30.5004 109.9L76.5497 42.7694ZM76.5497 42.7694H76.4932M76.5497 42.7694H76.4932M76.4932 42.7694C76.95 42.3576 77.4033 41.9481 77.8529 41.5418C77.9925 41.4157 78.1318 41.2899 78.2707 41.1644L78.2738 41.1616C79.5205 40.0291 80.7437 38.9252 82.0524 38.2146C83.3145 37.5293 84.5115 37.2893 85.7715 37.7066L85.7797 37.7093C87.2672 38.1925 88.5173 39.2019 89.9706 40.4346L89.9754 40.4387C101.499 50.1291 112.425 60.1649 122.128 71.5204L122.128 71.5211C131.486 82.4594 138.753 95.4024 138.854 109.902L138.854 109.905C138.953 121.517 131.418 133.534 119.204 137.329L119.2 137.33C111.489 139.753 103.472 138.342 98.0568 132.93C93.5547 128.424 91.7571 123.532 90.8306 118.254C90.3731 115.648 90.1317 112.972 89.8794 110.176L89.8625 109.988C89.6096 107.186 89.3415 104.273 88.8219 101.324V101.254L88.7988 101.124C87.9747 96.4847 81.365 96.621 80.5562 101.121L80.5326 101.253V101.324C80.0129 104.273 79.7448 107.186 79.492 109.988L79.475 110.175C79.2228 112.972 78.9813 115.648 78.5238 118.254C77.5973 123.532 75.7998 128.424 71.2977 132.93C65.885 138.339 57.8689 139.721 50.1494 137.329C37.9715 133.534 30.4345 121.517 30.5004 109.901L76.4932 42.7694Z" fill="#E6FA36" stroke="black" stroke-width="3"/>
<path d="M62.6152 100.108C64.9119 90.1502 74.029 82.8204 84.712 83.0625C95.3949 83.3045 103.503 90.5306 105.765 100.073" stroke="black" stroke-width="3" stroke-linecap="round" stroke-linejoin="round"/>
<path d="M112.029 100.108C108.41 99.3817 104.234 100.765 101.763 103.807" stroke="black" stroke-width="3" stroke-linecap="round" stroke-linejoin="round"/>
<path d="M89.0005 67.0059C89.6413 70.4161 92.5498 73.0059 96.0005 73.0059C99.4512 73.0059 102.36 70.4418 103 67.0059" fill="#E6FA36"/>
<path d="M89.0005 67.0059C89.6413 70.4161 92.5498 73.0059 96.0005 73.0059C99.4512 73.0059 102.36 70.4418 103 67.0059" stroke="black" stroke-width="3" stroke-linecap="round" stroke-linejoin="round"/>
<path d="M66.0005 67.0059C66.6413 70.4161 69.5498 73.0059 73.0005 73.0059C76.4512 73.0059 79.3596 70.4418 80.0005 67.0059" fill="#E6FA36"/>
<path d="M66.0005 67.0059C66.6413 70.4161 69.5498 73.0059 73.0005 73.0059C76.4512 73.0059 79.3596 70.4418 80.0005 67.0059" stroke="black" stroke-width="3" stroke-linecap="round" stroke-linejoin="round"/>
<mask id="path-9-inside-1_10197_1172" fill="white">
<path fill-rule="evenodd" clip-rule="evenodd" d="M84.5 58C110.734 58 132 50.8366 132 42C132 33.1634 110.734 26 84.5 26C58.2665 26 37 33.1634 37 42C37 50.8366 58.2665 58 84.5 58ZM84.5 49C101.897 49 116 45.866 116 42C116 38.134 101.897 35 84.5 35C67.103 35 53 38.134 53 42C53 45.866 67.103 49 84.5 49Z"/>
</mask>
<path fill-rule="evenodd" clip-rule="evenodd" d="M84.5 58C110.734 58 132 50.8366 132 42C132 33.1634 110.734 26 84.5 26C58.2665 26 37 33.1634 37 42C37 50.8366 58.2665 58 84.5 58ZM84.5 49C101.897 49 116 45.866 116 42C116 38.134 101.897 35 84.5 35C67.103 35 53 38.134 53 42C53 45.866 67.103 49 84.5 49Z" fill="#E6FA36"/>
<path d="M129 42C129 42.9095 128.457 44.242 126.398 45.8812C124.37 47.4962 121.251 49.0824 117.13 50.4707C108.918 53.2368 97.3814 55 84.5 55V61C97.8521 61 110.066 59.1815 119.045 56.1568C123.52 54.6495 127.357 52.7881 130.136 50.5747C132.885 48.3854 135 45.5088 135 42H129ZM84.5 29C97.3814 29 108.918 30.7632 117.13 33.5293C121.251 34.9176 124.37 36.5038 126.398 38.1188C128.457 39.758 129 41.0905 129 42H135C135 38.4912 132.885 35.6146 130.136 33.4253C127.357 31.2119 123.52 29.3505 119.045 27.8432C110.066 24.8185 97.8521 23 84.5 23V29ZM40 42C40 41.0905 40.5434 39.758 42.6017 38.1188C44.6296 36.5038 47.7488 34.9176 51.8701 33.5293C60.082 30.7632 71.6186 29 84.5 29V23C71.1479 23 58.9344 24.8185 49.9548 27.8432C45.4802 29.3505 41.6432 31.2119 38.8639 33.4253C36.1149 35.6146 34 38.4912 34 42H40ZM84.5 55C71.6186 55 60.082 53.2368 51.8701 50.4707C47.7488 49.0824 44.6296 47.4962 42.6017 45.8812C40.5434 44.242 40 42.9095 40 42H34C34 45.5088 36.1149 48.3854 38.8639 50.5747C41.6432 52.7881 45.4802 54.6495 49.9548 56.1568C58.9344 59.1815 71.1479 61 84.5 61V55ZM113 42C113 41.5052 113.239 41.2853 113.153 41.3786C113.052 41.488 112.76 41.7378 112.129 42.069C110.875 42.7281 108.862 43.4125 106.123 44.0212C100.693 45.2278 93.0469 46 84.5 46V52C93.3501 52 101.454 51.2052 107.425 49.8783C110.386 49.2203 112.986 48.3963 114.92 47.3805C115.884 46.8742 116.828 46.2449 117.567 45.4429C118.32 44.6249 119 43.4613 119 42H113ZM84.5 38C93.0469 38 100.693 38.7722 106.123 39.9788C108.862 40.5875 110.875 41.2719 112.129 41.931C112.76 42.2622 113.052 42.512 113.153 42.6214C113.239 42.7147 113 42.4948 113 42H119C119 40.5387 118.32 39.3751 117.567 38.5571C116.828 37.7551 115.884 37.1258 114.92 36.6195C112.986 35.6037 110.386 34.7797 107.425 34.1217C101.454 32.7948 93.3501 32 84.5 32V38ZM56 42C56 42.4948 55.7609 42.7147 55.8468 42.6214C55.9476 42.512 56.2404 42.2622 56.8707 41.931C58.1253 41.2719 60.1377 40.5875 62.8769 39.9788C68.3066 38.7722 75.9531 38 84.5 38V32C75.6499 32 67.5464 32.7948 61.5753 34.1217C58.6142 34.7797 56.0135 35.6037 54.0801 36.6195C53.1165 37.1258 52.1716 37.7551 51.4331 38.5571C50.6798 39.3751 50 40.5387 50 42H56ZM84.5 46C75.9531 46 68.3066 45.2278 62.8769 44.0212C60.1377 43.4125 58.1253 42.7281 56.8707 42.069C56.2404 41.7378 55.9476 41.488 55.8468 41.3786C55.7609 41.2853 56 41.5052 56 42H50C50 43.4613 50.6798 44.6249 51.4331 45.4429C52.1716 46.2449 53.1165 46.8742 54.0801 47.3805C56.0135 48.3963 58.6142 49.2203 61.5753 49.8783C67.5464 51.2052 75.6499 52 84.5 52V46Z" fill="black" mask="url(#path-9-inside-1_10197_1172)"/>
</svg>
