<svg width="170" height="170" viewBox="0 0 170 170" fill="none" xmlns="http://www.w3.org/2000/svg">
<rect width="170" height="170" fill="#BC8EE4"/>
<path d="M137.831 81.0205C137.831 81.0205 139.406 48.2469 98.2468 47.0738C95.537 47.0371 92.8273 47.0738 90.1175 47.1104C66.1691 47.7703 28.9283 54.6257 21.8975 77.6479C21.4581 79.1142 21.1652 80.5806 21.0553 81.9737C20.0666 94.7679 32.4802 104.519 46.2121 109.175C52.5471 111.301 59.1384 112.621 65.8762 113.428C72.7238 114.234 79.3517 116.507 84.4783 120.393C87.1148 122.373 90.3006 123.912 93.7793 124.829C95.3539 125.232 96.4159 126.698 96.4159 128.348V136.963H111.32V126.698C111.32 125.232 112.125 123.876 113.443 123.289C118.973 120.833 123.294 116.764 125.454 111.778C126.626 109.065 128.201 106.426 130.361 104.153C139.882 94.2913 137.831 81.0205 137.831 81.0205Z" fill="#E6FA36" stroke="black" stroke-width="3" stroke-linejoin="round"/>
<path d="M42.4403 72.4062C34.5307 79.3349 37.4968 89.9295 45.8091 94.4387C54.1215 98.9478 63.4958 96.9315 69.428 90.5527" stroke="black" stroke-width="3" stroke-linecap="round" stroke-linejoin="round"/>
<path d="M74.2617 93.228C71.1858 92.2015 68.5859 89.3054 68.0366 85.8594" stroke="black" stroke-width="3" stroke-linecap="round" stroke-linejoin="round"/>
<path d="M93.7061 66.5391C93.7793 70.425 96.5623 73.8343 100.517 74.5308C104.472 75.2274 108.244 72.9911 109.672 69.3985" stroke="black" stroke-width="3" stroke-linecap="round" stroke-linejoin="round"/>
<path d="M64.375 61.2969C64.4482 65.1828 67.2312 68.5921 71.186 69.2887C75.1408 69.9852 78.9125 67.749 80.3406 64.1563" stroke="black" stroke-width="3" stroke-linecap="round" stroke-linejoin="round"/>
<mask id="path-7-inside-1_10197_1169" fill="white">
<path fill-rule="evenodd" clip-rule="evenodd" d="M96.5 61C122.734 61 144 53.8366 144 45C144 36.1634 122.734 29 96.5 29C70.2665 29 49 36.1634 49 45C49 53.8366 70.2665 61 96.5 61ZM96.5 52C113.897 52 128 48.866 128 45C128 41.134 113.897 38 96.5 38C79.103 38 65 41.134 65 45C65 48.866 79.103 52 96.5 52Z"/>
</mask>
<path fill-rule="evenodd" clip-rule="evenodd" d="M96.5 61C122.734 61 144 53.8366 144 45C144 36.1634 122.734 29 96.5 29C70.2665 29 49 36.1634 49 45C49 53.8366 70.2665 61 96.5 61ZM96.5 52C113.897 52 128 48.866 128 45C128 41.134 113.897 38 96.5 38C79.103 38 65 41.134 65 45C65 48.866 79.103 52 96.5 52Z" fill="#E6FA36"/>
<path d="M141 45C141 45.9095 140.457 47.242 138.398 48.8812C136.37 50.4962 133.251 52.0824 129.13 53.4707C120.918 56.2368 109.381 58 96.5 58V64C109.852 64 122.066 62.1815 131.045 59.1568C135.52 57.6495 139.357 55.7881 142.136 53.5747C144.885 51.3854 147 48.5088 147 45H141ZM96.5 32C109.381 32 120.918 33.7632 129.13 36.5293C133.251 37.9176 136.37 39.5038 138.398 41.1188C140.457 42.758 141 44.0905 141 45H147C147 41.4912 144.885 38.6146 142.136 36.4253C139.357 34.2119 135.52 32.3505 131.045 30.8432C122.066 27.8185 109.852 26 96.5 26V32ZM52 45C52 44.0905 52.5434 42.758 54.6017 41.1188C56.6296 39.5038 59.7488 37.9176 63.8701 36.5293C72.082 33.7632 83.6186 32 96.5 32V26C83.1479 26 70.9344 27.8185 61.9548 30.8432C57.4802 32.3505 53.6432 34.2119 50.8639 36.4253C48.1149 38.6146 46 41.4912 46 45H52ZM96.5 58C83.6186 58 72.082 56.2368 63.8701 53.4707C59.7488 52.0824 56.6296 50.4962 54.6017 48.8812C52.5434 47.242 52 45.9095 52 45H46C46 48.5088 48.1149 51.3854 50.8639 53.5747C53.6432 55.7881 57.4802 57.6495 61.9548 59.1568C70.9344 62.1815 83.1479 64 96.5 64V58ZM125 45C125 44.5052 125.239 44.2853 125.153 44.3786C125.052 44.488 124.76 44.7378 124.129 45.069C122.875 45.7281 120.862 46.4125 118.123 47.0212C112.693 48.2278 105.047 49 96.5 49V55C105.35 55 113.454 54.2052 119.425 52.8783C122.386 52.2203 124.986 51.3963 126.92 50.3805C127.884 49.8742 128.828 49.2449 129.567 48.4429C130.32 47.6249 131 46.4613 131 45H125ZM96.5 41C105.047 41 112.693 41.7722 118.123 42.9788C120.862 43.5875 122.875 44.2719 124.129 44.931C124.76 45.2622 125.052 45.512 125.153 45.6214C125.239 45.7147 125 45.4948 125 45H131C131 43.5387 130.32 42.3751 129.567 41.5571C128.828 40.7551 127.884 40.1258 126.92 39.6195C124.986 38.6037 122.386 37.7797 119.425 37.1217C113.454 35.7948 105.35 35 96.5 35V41ZM68 45C68 45.4948 67.7609 45.7147 67.8468 45.6214C67.9476 45.512 68.2404 45.2622 68.8707 44.931C70.1253 44.2719 72.1377 43.5875 74.8769 42.9788C80.3066 41.7722 87.9531 41 96.5 41V35C87.6499 35 79.5464 35.7948 73.5753 37.1217C70.6142 37.7797 68.0135 38.6037 66.0801 39.6195C65.1165 40.1258 64.1716 40.7551 63.4331 41.5571C62.6798 42.3751 62 43.5387 62 45H68ZM96.5 49C87.9531 49 80.3066 48.2278 74.8769 47.0212C72.1377 46.4125 70.1253 45.7281 68.8707 45.069C68.2404 44.7378 67.9476 44.488 67.8468 44.3786C67.7609 44.2853 68 44.5052 68 45H62C62 46.4613 62.6798 47.6249 63.4331 48.4429C64.1716 49.2449 65.1165 49.8742 66.0801 50.3805C68.0135 51.3963 70.6142 52.2203 73.5753 52.8783C79.5464 54.2052 87.6499 55 96.5 55V49Z" fill="black" mask="url(#path-7-inside-1_10197_1169)"/>
</svg>
