<svg width="170" height="170" viewBox="0 0 170 170" fill="none" xmlns="http://www.w3.org/2000/svg">
<rect width="170" height="170" fill="#BC8EE4"/>
<path d="M137.186 82.9434C136.556 80.6078 135.541 78.4466 134.281 76.5293C135.296 72.8342 135.401 68.7906 134.281 64.8166C131.936 56.2413 124.901 50.2455 116.676 48.7466C111.321 41.7747 102.081 38.3237 93.0505 40.7987C90.9155 41.3913 88.9205 42.2628 87.1005 43.3783C81.9905 40.2409 75.6905 39.1254 69.4605 40.7987C64.7005 42.0885 60.7105 44.8423 57.8405 48.4328C55.8805 48.4328 53.8855 48.642 51.8905 49.1997C42.8255 51.6747 36.5605 59.3438 35.5455 68.0934C28.0205 73.3223 24.2405 82.8388 26.7955 92.1462C29.8755 103.371 41.0405 110.238 52.3105 108.251C57.5255 115.885 67.2205 119.79 76.6705 117.21C77.9655 116.861 79.1555 116.408 80.3105 115.85C83.0755 121.567 87.9055 125.855 93.6105 128.086C96.2005 129.097 98.0555 131.467 98.0555 134.256V138.997H112.091V132.234C112.091 129.759 113.456 127.493 115.591 126.204C122.241 122.195 126.581 115.293 127.421 107.693C135.611 102.639 139.846 92.6343 137.186 82.9085V82.9434Z" fill="#E6FA36" stroke="black" stroke-width="3" stroke-linecap="round" stroke-linejoin="round"/>
<path d="M78.9104 68.8248C78.2104 65.1995 74.9904 62.4805 71.1754 62.4805C67.3604 62.4805 64.1404 65.1995 63.4404 68.8248" stroke="black" stroke-width="3" stroke-linecap="round" stroke-linejoin="round"/>
<path d="M107.68 68.8248C106.98 65.1995 103.76 62.4805 99.9454 62.4805C96.1304 62.4805 92.9104 65.1995 92.2104 68.8248" stroke="black" stroke-width="3" stroke-linecap="round" stroke-linejoin="round"/>
<path d="M65.0508 86.9526C68.6908 87.6846 72.8908 86.2903 75.3758 83.2227" stroke="black" stroke-width="3" stroke-linecap="round" stroke-linejoin="round"/>
<path d="M71.2808 87.3711C71.2808 87.3711 74.0108 95.7373 81.9208 95.7373H98.9658" stroke="black" stroke-width="3" stroke-linecap="round" stroke-linejoin="round"/>
<mask id="path-7-inside-1_10197_1170" fill="white">
<path fill-rule="evenodd" clip-rule="evenodd" d="M85.5 56C111.734 56 133 48.8366 133 40C133 31.1634 111.734 24 85.5 24C59.2665 24 38 31.1634 38 40C38 48.8366 59.2665 56 85.5 56ZM85.5 47C102.897 47 117 43.866 117 40C117 36.134 102.897 33 85.5 33C68.103 33 54 36.134 54 40C54 43.866 68.103 47 85.5 47Z"/>
</mask>
<path fill-rule="evenodd" clip-rule="evenodd" d="M85.5 56C111.734 56 133 48.8366 133 40C133 31.1634 111.734 24 85.5 24C59.2665 24 38 31.1634 38 40C38 48.8366 59.2665 56 85.5 56ZM85.5 47C102.897 47 117 43.866 117 40C117 36.134 102.897 33 85.5 33C68.103 33 54 36.134 54 40C54 43.866 68.103 47 85.5 47Z" fill="#E6FA36"/>
<path d="M130 40C130 40.9095 129.457 42.242 127.398 43.8812C125.37 45.4962 122.251 47.0824 118.13 48.4707C109.918 51.2368 98.3814 53 85.5 53V59C98.8521 59 111.066 57.1815 120.045 54.1568C124.52 52.6495 128.357 50.7881 131.136 48.5747C133.885 46.3854 136 43.5088 136 40H130ZM85.5 27C98.3814 27 109.918 28.7632 118.13 31.5293C122.251 32.9176 125.37 34.5038 127.398 36.1188C129.457 37.758 130 39.0905 130 40H136C136 36.4912 133.885 33.6146 131.136 31.4253C128.357 29.2119 124.52 27.3505 120.045 25.8432C111.066 22.8185 98.8521 21 85.5 21V27ZM41 40C41 39.0905 41.5434 37.758 43.6017 36.1188C45.6296 34.5038 48.7488 32.9176 52.8701 31.5293C61.082 28.7632 72.6186 27 85.5 27V21C72.1479 21 59.9344 22.8185 50.9548 25.8432C46.4802 27.3505 42.6432 29.2119 39.8639 31.4253C37.1149 33.6146 35 36.4912 35 40H41ZM85.5 53C72.6186 53 61.082 51.2368 52.8701 48.4707C48.7488 47.0824 45.6296 45.4962 43.6017 43.8812C41.5434 42.242 41 40.9095 41 40H35C35 43.5088 37.1149 46.3854 39.8639 48.5747C42.6432 50.7881 46.4802 52.6495 50.9548 54.1568C59.9344 57.1815 72.1479 59 85.5 59V53ZM114 40C114 39.5052 114.239 39.2853 114.153 39.3786C114.052 39.488 113.76 39.7378 113.129 40.069C111.875 40.7281 109.862 41.4125 107.123 42.0212C101.693 43.2278 94.0469 44 85.5 44V50C94.3501 50 102.454 49.2052 108.425 47.8783C111.386 47.2203 113.986 46.3963 115.92 45.3805C116.884 44.8742 117.828 44.2449 118.567 43.4429C119.32 42.6249 120 41.4613 120 40H114ZM85.5 36C94.0469 36 101.693 36.7722 107.123 37.9788C109.862 38.5875 111.875 39.2719 113.129 39.931C113.76 40.2622 114.052 40.512 114.153 40.6214C114.239 40.7147 114 40.4948 114 40H120C120 38.5387 119.32 37.3751 118.567 36.5571C117.828 35.7551 116.884 35.1258 115.92 34.6195C113.986 33.6037 111.386 32.7797 108.425 32.1217C102.454 30.7948 94.3501 30 85.5 30V36ZM57 40C57 40.4948 56.7609 40.7147 56.8468 40.6214C56.9476 40.512 57.2404 40.2622 57.8707 39.931C59.1253 39.2719 61.1377 38.5875 63.8769 37.9788C69.3066 36.7722 76.9531 36 85.5 36V30C76.6499 30 68.5464 30.7948 62.5753 32.1217C59.6142 32.7797 57.0135 33.6037 55.0801 34.6195C54.1165 35.1258 53.1716 35.7551 52.4331 36.5571C51.6798 37.3751 51 38.5387 51 40H57ZM85.5 44C76.9531 44 69.3066 43.2278 63.8769 42.0212C61.1377 41.4125 59.1253 40.7281 57.8707 40.069C57.2404 39.7378 56.9476 39.488 56.8468 39.3786C56.7609 39.2853 57 39.5052 57 40H51C51 41.4613 51.6798 42.6249 52.4331 43.4429C53.1716 44.2449 54.1165 44.8742 55.0801 45.3805C57.0135 46.3963 59.6142 47.2203 62.5753 47.8783C68.5464 49.2052 76.6499 50 85.5 50V44Z" fill="black" mask="url(#path-7-inside-1_10197_1170)"/>
</svg>
