<svg width="170" height="171" viewBox="0 0 170 171" fill="none" xmlns="http://www.w3.org/2000/svg">
<rect y="1" width="170" height="170" fill="#BC8EE4"/>
<path d="M76.5497 48.7694L73.5985 51.3909C72.9538 51.9634 72.3056 52.5383 71.6545 53.1155C62.3253 61.3874 52.4335 70.1581 44.6603 80.0528C36.3628 90.6148 30.5848 102.331 30.5004 115.9L76.5497 48.7694ZM76.5497 48.7694H76.4932M76.5497 48.7694H76.4932M76.4932 48.7694C76.95 48.3576 77.4033 47.9481 77.8529 47.5418C77.9925 47.4157 78.1318 47.2899 78.2707 47.1644L78.2738 47.1616C79.5205 46.0291 80.7437 44.9252 82.0524 44.2146C83.3145 43.5293 84.5115 43.2893 85.7715 43.7066L85.7797 43.7093C87.2672 44.1925 88.5173 45.2019 89.9706 46.4346L89.9754 46.4387C101.499 56.1291 112.425 66.1649 122.128 77.5204L122.128 77.5211C131.486 88.4594 138.753 101.402 138.854 115.902L138.854 115.905C138.953 127.517 131.418 139.534 119.204 143.329L119.2 143.33C111.489 145.753 103.472 144.342 98.0568 138.93C93.5547 134.424 91.7571 129.532 90.8306 124.254C90.3731 121.648 90.1317 118.972 89.8794 116.176L89.8625 115.988C89.6096 113.186 89.3415 110.273 88.8219 107.324V107.254L88.7988 107.124C87.9747 102.485 81.365 102.621 80.5562 107.121L80.5326 107.253V107.324C80.0129 110.273 79.7448 113.186 79.492 115.988L79.475 116.175C79.2228 118.972 78.9813 121.648 78.5238 124.254C77.5973 129.532 75.7998 134.424 71.2977 138.93C65.885 144.339 57.8689 145.721 50.1494 143.329C37.9715 139.534 30.4345 127.517 30.5004 115.901L76.4932 48.7694Z" fill="#E6FA36" stroke="black" stroke-width="3"/>
<path d="M62.6152 106.108C64.9119 96.1502 74.029 88.8204 84.712 89.0625C95.3949 89.3045 103.503 96.5306 105.765 106.073" stroke="black" stroke-width="3" stroke-linecap="round" stroke-linejoin="round"/>
<path d="M112.029 106.108C108.41 105.382 104.234 106.765 101.763 109.807" stroke="black" stroke-width="3" stroke-linecap="round" stroke-linejoin="round"/>
<path d="M89.0005 73.0059C89.6413 76.4161 92.5498 79.0059 96.0005 79.0059C99.4512 79.0059 102.36 76.4418 103 73.0059" fill="#E6FA36"/>
<path d="M89.0005 73.0059C89.6413 76.4161 92.5498 79.0059 96.0005 79.0059C99.4512 79.0059 102.36 76.4418 103 73.0059" stroke="black" stroke-width="3" stroke-linecap="round" stroke-linejoin="round"/>
<path d="M66.0005 73.0059C66.6413 76.4161 69.5498 79.0059 73.0005 79.0059C76.4512 79.0059 79.3596 76.4418 80.0005 73.0059" fill="#E6FA36"/>
<path d="M66.0005 73.0059C66.6413 76.4161 69.5498 79.0059 73.0005 79.0059C76.4512 79.0059 79.3596 76.4418 80.0005 73.0059" stroke="black" stroke-width="3" stroke-linecap="round" stroke-linejoin="round"/>
<path d="M84.2986 36.658C70.7337 36.9847 60.0037 48.2843 60.3314 61.89C60.3956 64.5566 71.4434 66.4501 85.0083 66.1234C98.5731 65.7967 109.517 63.3736 109.453 60.707C109.125 47.0939 97.8633 36.324 84.2984 36.6507L84.2986 36.658Z" fill="#E8FB3F" stroke="black" stroke-width="3" stroke-linecap="round" stroke-linejoin="round"/>
<path d="M84.0972 28.2988L84.4284 42.0528" stroke="black" stroke-width="3" stroke-linecap="round" stroke-linejoin="round"/>
<path d="M89.4458 30.8444L84.1293 29.6376L88.3729 28.2632C92.9882 26.7724 97.9546 26.6528 102.636 27.9197C103.88 28.2571 103.873 29.9325 102.637 30.2759L101.689 30.5406C97.7006 31.649 93.4824 31.7506 89.4362 30.8357L89.4458 30.8444Z" fill="#E8FB3F" stroke="black" stroke-width="3" stroke-linecap="round" stroke-linejoin="round"/>
<path d="M66.6302 31.3781L65.6702 31.1599C64.4185 30.8771 64.3407 29.1981 65.5575 28.8112C70.1737 27.3232 75.141 27.2035 79.8234 28.4676L84.1291 29.6335L78.8757 31.0922C74.8869 32.1985 70.6679 32.3001 66.6211 31.3873L66.6302 31.3781Z" fill="#E8FB3F" stroke="black" stroke-width="3" stroke-linecap="round" stroke-linejoin="round"/>
<path d="M84.121 29.2807C85.5856 29.2454 86.7442 28.0296 86.7089 26.565C86.6737 25.1005 85.4578 23.9419 83.9933 23.9772C82.5288 24.0124 81.3701 25.2283 81.4054 26.6928C81.4407 28.1573 82.6565 29.3159 84.121 29.2807Z" fill="#E8FB3F" stroke="black" stroke-width="3" stroke-linecap="round" stroke-linejoin="round"/>
<path d="M40.9983 58.038C40.1824 57.8943 39.4046 58.4393 39.2609 59.2552C39.1173 60.0711 39.6623 60.8489 40.4781 60.9925L40.9983 58.038ZM61.6458 61.6731L40.9983 58.038L40.4781 60.9925L61.1257 64.6277L61.6458 61.6731Z" fill="black"/>
</svg>
