<svg width="170" height="170" viewBox="0 0 170 170" fill="none" xmlns="http://www.w3.org/2000/svg">
<circle cx="85" cy="85" r="85" fill="#BC8EE4"/>
<path d="M142.831 75.0205C142.831 75.0205 144.406 42.2469 103.247 41.0738C100.537 41.0371 97.8273 41.0738 95.1175 41.1104C71.1691 41.7703 33.9283 48.6257 26.8975 71.6479C26.4581 73.1142 26.1652 74.5806 26.0553 75.9737C25.0666 88.7679 37.4802 98.5193 51.2121 103.175C57.5471 105.301 64.1384 106.621 70.8762 107.428C77.7238 108.234 84.3517 110.507 89.4783 114.393C92.1148 116.373 95.3006 117.912 98.7793 118.829C100.354 119.232 101.416 120.698 101.416 122.348V130.963H116.32V120.698C116.32 119.232 117.125 117.876 118.443 117.289C123.973 114.833 128.294 110.764 130.454 105.778C131.626 103.065 133.201 100.426 135.361 98.1527C144.882 88.2913 142.831 75.0205 142.831 75.0205Z" fill="#E6FA36" stroke="black" stroke-width="3" stroke-linejoin="round"/>
<path d="M47.4422 66.4062C39.5326 73.3349 42.4987 83.9295 50.8111 88.4387C59.1235 92.9478 68.4978 90.9315 74.4299 84.5527" stroke="black" stroke-width="3" stroke-linecap="round" stroke-linejoin="round"/>
<path d="M79.2642 87.228C76.1882 86.2015 73.5883 83.3054 73.0391 79.8594" stroke="black" stroke-width="3" stroke-linecap="round" stroke-linejoin="round"/>
<path d="M98.707 60.5391C98.7803 64.425 101.563 67.8343 105.518 68.5308C109.473 69.2274 113.245 66.9911 114.673 63.3985" stroke="black" stroke-width="3" stroke-linecap="round" stroke-linejoin="round"/>
<path d="M69.375 55.2969C69.4482 59.1828 72.2312 62.5921 76.186 63.2887C80.1408 63.9852 83.9125 61.749 85.3406 58.1563" stroke="black" stroke-width="3" stroke-linecap="round" stroke-linejoin="round"/>
</svg>
