<svg width="170" height="170" viewBox="0 0 170 170" fill="none" xmlns="http://www.w3.org/2000/svg">
<rect width="170" height="170" fill="#BC8EE4"/>
<path d="M65.3617 29.9994L148 66.377L111.638 149.051L29 112.674L65.3617 29.9994Z" fill="#E6FA36" stroke="black" stroke-width="3" stroke-linecap="round" stroke-linejoin="round"/>
<path d="M104.064 106.149C97.7956 114.451 86.3776 117.484 76.6371 112.861C67.2496 108.386 62.394 98.2 64.3068 88.4258" fill="#E6FA36"/>
<path d="M104.064 106.149C97.7956 114.451 86.3776 117.484 76.6371 112.861C67.2496 108.386 62.394 98.2 64.3068 88.4258" stroke="black" stroke-width="3" stroke-linecap="round" stroke-linejoin="round"/>
<path d="M106.3 87.0413C104.535 89.4848 101.268 90.4564 98.4137 89.161C95.5592 87.8656 94.2055 85.0099 94.6763 82.1836" fill="#E6FA36"/>
<path d="M106.3 87.0413C104.535 89.4848 101.268 90.4564 98.4137 89.161C95.5592 87.8656 94.2055 85.0099 94.6763 82.1836" stroke="black" stroke-width="3" stroke-linecap="round" stroke-linejoin="round"/>
<path d="M86.9075 79.0042C85.1418 81.4477 81.8753 82.4193 79.0208 81.1239C76.2841 79.8874 74.8127 76.9728 75.2835 74.1465" fill="#E6FA36"/>
<path d="M86.9075 79.0042C85.1418 81.4477 81.8753 82.4193 79.0208 81.1239C76.2841 79.8874 74.8127 76.9728 75.2835 74.1465" stroke="black" stroke-width="3" stroke-linecap="round" stroke-linejoin="round"/>
<path d="M61.1582 87.541C63.3653 88.2181 65.7195 88.3948 68.0149 88.0415Z" fill="#E6FA36"/>
<path d="M61.1582 87.541C63.3653 88.2181 65.7195 88.3948 68.0149 88.0415" stroke="black" stroke-width="3" stroke-linecap="round" stroke-linejoin="round"/>
<mask id="path-11-inside-1_10197_1175" fill="white">
<path fill-rule="evenodd" clip-rule="evenodd" d="M72 46.9474C94.0914 46.9474 112 40.915 112 33.4737C112 26.0324 94.0914 20 72 20C49.9086 20 32 26.0324 32 33.4737C32 40.915 49.9086 46.9474 72 46.9474ZM72 39.3684C86.6501 39.3684 98.5263 36.7293 98.5263 33.4737C98.5263 30.2181 86.6501 27.5789 72 27.5789C57.3499 27.5789 45.4737 30.2181 45.4737 33.4737C45.4737 36.7293 57.3499 39.3684 72 39.3684Z"/>
</mask>
<path fill-rule="evenodd" clip-rule="evenodd" d="M72 46.9474C94.0914 46.9474 112 40.915 112 33.4737C112 26.0324 94.0914 20 72 20C49.9086 20 32 26.0324 32 33.4737C32 40.915 49.9086 46.9474 72 46.9474ZM72 39.3684C86.6501 39.3684 98.5263 36.7293 98.5263 33.4737C98.5263 30.2181 86.6501 27.5789 72 27.5789C57.3499 27.5789 45.4737 30.2181 45.4737 33.4737C45.4737 36.7293 57.3499 39.3684 72 39.3684Z" fill="#E6FA36"/>
<path d="M109 33.4737C109 34.0344 108.666 35.0346 106.988 36.3715C105.339 37.6842 102.769 38.9983 99.3266 40.158C92.4719 42.4669 82.8103 43.9474 72 43.9474V49.9474C83.2811 49.9474 93.6195 48.4116 101.242 45.8441C105.038 44.5654 108.326 42.9762 110.726 41.065C113.095 39.178 115 36.6336 115 33.4737H109ZM72 23C82.8103 23 92.4719 24.4804 99.3266 26.7894C102.769 27.949 105.339 29.2631 106.988 30.5759C108.666 31.9128 109 32.913 109 33.4737H115C115 30.3137 113.095 27.7694 110.726 25.8824C108.326 23.9712 105.038 22.3819 101.242 21.1033C93.6195 18.5358 83.2811 17 72 17V23ZM35 33.4737C35 32.913 35.3336 31.9128 37.0123 30.5759C38.6607 29.2631 41.2307 27.949 44.6734 26.7894C51.5281 24.4804 61.1897 23 72 23V17C60.7189 17 50.3805 18.5358 42.7581 21.1033C38.9622 22.3819 35.6743 23.9712 33.2745 25.8824C30.905 27.7694 29 30.3137 29 33.4737H35ZM72 43.9474C61.1897 43.9474 51.5281 42.4669 44.6734 40.158C41.2307 38.9983 38.6607 37.6843 37.0123 36.3715C35.3336 35.0346 35 34.0344 35 33.4737H29C29 36.6336 30.905 39.178 33.2745 41.065C35.6743 42.9762 38.9622 44.5654 42.7581 45.8441C50.3805 48.4116 60.7189 49.9474 72 49.9474V43.9474ZM95.5263 33.4737C95.5263 32.9026 95.8002 32.6082 95.7805 32.6295C95.746 32.667 95.551 32.8473 95.0464 33.1124C94.0436 33.6393 92.3953 34.2046 90.1061 34.7133C85.5765 35.7199 79.1735 36.3684 72 36.3684V42.3684C79.4766 42.3684 86.3368 41.6973 91.4077 40.5705C93.9189 40.0124 96.1553 39.3075 97.8371 38.4239C98.6748 37.9838 99.522 37.4239 100.194 36.6938C100.881 35.9477 101.526 34.8587 101.526 33.4737H95.5263ZM72 30.5789C79.1735 30.5789 85.5765 31.2274 90.1061 32.234C92.3953 32.7427 94.0436 33.3081 95.0464 33.835C95.551 34.1 95.746 34.2804 95.7805 34.3179C95.8002 34.3392 95.5263 34.0448 95.5263 33.4737H101.526C101.526 32.0887 100.881 30.9996 100.194 30.2535C99.522 29.5235 98.6748 28.9636 97.8371 28.5234C96.1553 27.6398 93.9189 26.9349 91.4077 26.3769C86.3368 25.25 79.4766 24.5789 72 24.5789V30.5789ZM48.4737 33.4737C48.4737 34.0448 48.1998 34.3392 48.2195 34.3179C48.254 34.2804 48.449 34.1 48.9536 33.835C49.9564 33.3081 51.6047 32.7427 53.8939 32.234C58.4235 31.2274 64.8265 30.5789 72 30.5789V24.5789C64.5234 24.5789 57.6632 25.25 52.5923 26.3769C50.0811 26.9349 47.8447 27.6398 46.1629 28.5234C45.3252 28.9636 44.4779 29.5235 43.8057 30.2535C43.1187 30.9996 42.4737 32.0887 42.4737 33.4737H48.4737ZM72 36.3684C64.8265 36.3684 58.4235 35.7199 53.8939 34.7133C51.6047 34.2046 49.9564 33.6393 48.9536 33.1124C48.449 32.8473 48.254 32.667 48.2195 32.6295C48.1998 32.6082 48.4737 32.9026 48.4737 33.4737H42.4737C42.4737 34.8587 43.1187 35.9477 43.8057 36.6938C44.4779 37.4239 45.3252 37.9838 46.1629 38.4239C47.8447 39.3075 50.0811 40.0124 52.5923 40.5705C57.6632 41.6973 64.5234 42.3684 72 42.3684V36.3684Z" fill="black" mask="url(#path-11-inside-1_10197_1175)"/>
</svg>
