<svg width="170" height="170" viewBox="0 0 170 170" fill="none" xmlns="http://www.w3.org/2000/svg">
<rect width="170" height="170" fill="#BC8EE4"/>
<path d="M133.831 90.0205C133.831 90.0205 135.406 57.2469 94.2468 56.0738C91.537 56.0371 88.8273 56.0738 86.1175 56.1104C62.1691 56.7703 24.9283 63.6257 17.8975 86.6479C17.4581 88.1142 17.1652 89.5806 17.0553 90.9737C16.0666 103.768 28.4802 113.519 42.2121 118.175C48.5471 120.301 55.1384 121.621 61.8762 122.428C68.7238 123.234 75.3517 125.507 80.4783 129.393C83.1148 131.373 86.3006 132.912 89.7793 133.829C91.3539 134.232 92.4159 135.698 92.4159 137.348V145.963H107.32V135.698C107.32 134.232 108.125 132.876 109.443 132.289C114.973 129.833 119.294 125.764 121.454 120.778C122.626 118.065 124.201 115.426 126.361 113.153C135.882 103.291 133.831 90.0205 133.831 90.0205Z" fill="#E6FA36" stroke="black" stroke-width="3" stroke-linejoin="round"/>
<path d="M38.4403 81.4062C30.5307 88.3349 33.4968 98.9295 41.8091 103.439C50.1215 107.948 59.4958 105.932 65.428 99.5527" stroke="black" stroke-width="3" stroke-linecap="round" stroke-linejoin="round"/>
<path d="M70.2617 102.228C67.1858 101.201 64.5859 98.3054 64.0366 94.8594" stroke="black" stroke-width="3" stroke-linecap="round" stroke-linejoin="round"/>
<path d="M89.7061 75.5391C89.7793 79.425 92.5623 82.8343 96.5171 83.5308C100.472 84.2274 104.244 81.9911 105.672 78.3985" stroke="black" stroke-width="3" stroke-linecap="round" stroke-linejoin="round"/>
<path d="M60.375 70.2969C60.4482 74.1828 63.2312 77.5921 67.186 78.2887C71.1408 78.9852 74.9125 76.749 76.3406 73.1563" stroke="black" stroke-width="3" stroke-linecap="round" stroke-linejoin="round"/>
<path d="M124.605 44.3524C111.088 36.4825 93.7299 41.0983 85.8363 54.6552C84.2892 57.3123 93.9933 65.8424 107.51 73.7123C121.026 81.5823 133.235 85.8111 134.782 83.154C142.68 69.5898 138.125 52.2151 124.609 44.3451L124.605 44.3524Z" fill="#E8FB3F" stroke="black" stroke-width="3" stroke-linecap="round" stroke-linejoin="round"/>
<path d="M129.454 36.0234L121.474 49.7281" stroke="black" stroke-width="3" stroke-linecap="round" stroke-linejoin="round"/>
<path d="M133.169 41.7531L128.678 37.3579L133.674 38.5708C139.106 39.8938 144.055 42.7752 147.886 46.846C148.904 47.928 147.886 49.5692 146.464 49.1598L145.373 48.8472C140.788 47.5274 136.585 45.0802 133.165 41.7387L133.169 41.7531Z" fill="#E8FB3F" stroke="black" stroke-width="3" stroke-linecap="round" stroke-linejoin="round"/>
<path d="M110.445 28.499L109.634 27.705C108.576 26.6715 109.513 24.976 110.941 25.3308C116.372 26.6571 121.322 29.539 125.156 33.6075L128.68 37.3521L122.641 35.6122C118.056 34.29 113.853 31.8423 110.43 28.5024L110.445 28.499Z" fill="#E8FB3F" stroke="black" stroke-width="3" stroke-linecap="round" stroke-linejoin="round"/>
<path d="M128.884 37.0027C130.343 37.8524 132.215 37.3582 133.065 35.8989C133.915 34.4396 133.42 32.5678 131.961 31.7182C130.502 30.8685 128.63 31.3627 127.78 32.822C126.931 34.2812 127.425 36.153 128.884 37.0027Z" fill="#E8FB3F" stroke="black" stroke-width="3" stroke-linecap="round" stroke-linejoin="round"/>
<path d="M69.0274 39.3705C68.4077 38.8208 67.4596 38.8775 66.9099 39.4973C66.3601 40.117 66.4169 41.0651 67.0366 41.6148L69.0274 39.3705ZM87.1058 55.4072L69.0274 39.3705L67.0366 41.6148L85.115 57.6514L87.1058 55.4072Z" fill="black"/>
</svg>
