<svg width="170" height="170" viewBox="0 0 170 170" fill="none" xmlns="http://www.w3.org/2000/svg">
<rect width="170" height="170" fill="#BC8EE4"/>
<path d="M61.3617 24.9994L144 61.377L107.638 144.051L25 107.674L61.3617 24.9994Z" fill="#E6FA36" stroke="black" stroke-width="3" stroke-linecap="round" stroke-linejoin="round"/>
<path d="M98.6184 74.5012C99.5436 70.2006 97.4155 65.7458 93.3823 64.0518C89.3491 62.3577 84.6909 63.9268 82.2551 67.6281" stroke="black" stroke-width="3" stroke-linecap="round" stroke-linejoin="round"/>
<path d="M137.046 88.9044C138.548 88.0628 139.312 86.2737 138.764 84.57C138.242 82.9369 136.685 81.9118 135.052 81.9939L127.8 82.1721" stroke="black" stroke-width="3" stroke-linecap="round" stroke-linejoin="round"/>
<path d="M44.6229 51.9172C44.1728 50.256 44.915 48.4574 46.5152 47.656C48.047 46.8857 49.8689 47.2798 50.954 48.5039L55.9032 53.8067" stroke="black" stroke-width="3" stroke-linecap="round" stroke-linejoin="round"/>
<circle cx="112.317" cy="81.1718" r="14.5579" transform="rotate(22.7839 112.317 81.1718)" stroke="black" stroke-width="3"/>
<circle cx="67.9023" cy="62.5156" r="14.5579" transform="rotate(22.7839 67.9023 62.5156)" stroke="black" stroke-width="3"/>
<path d="M99.064 105.149C92.7959 113.451 81.3779 116.484 71.6373 111.861C62.2499 107.386 57.3943 97.2 59.3071 87.4258" stroke="black" stroke-width="3" stroke-linecap="round" stroke-linejoin="round"/>
<path d="M117.3 85.0413C115.535 87.4848 112.268 88.4564 109.414 87.161C106.559 85.8656 105.205 83.0099 105.676 80.1836" stroke="black" stroke-width="3" stroke-linecap="round" stroke-linejoin="round"/>
<path d="M72.9072 67.0042C71.1416 69.4477 67.8751 70.4193 65.0206 69.1239C62.2838 67.8874 60.8124 64.9728 61.2833 62.1465" stroke="black" stroke-width="3" stroke-linecap="round" stroke-linejoin="round"/>
<path d="M56.158 86.541C58.3651 87.2181 60.7193 87.3948 63.0146 87.0415" stroke="black" stroke-width="3" stroke-linecap="round" stroke-linejoin="round"/>
</svg>
