<svg width="170" height="170" viewBox="0 0 170 170" fill="none" xmlns="http://www.w3.org/2000/svg">
<circle cx="85" cy="85" r="85" fill="#BC8EE4"/>
<rect width="170" height="170" fill="#BC8EE4"/>
<path d="M84.7938 138C113.5 138 136.771 114.719 136.771 86C136.771 57.2812 113.5 34 84.7938 34C56.0875 34 32.8164 57.2812 32.8164 86C32.8164 114.719 56.0875 138 84.7938 138Z" fill="#E6FA36" stroke="black" stroke-width="3" stroke-linecap="round" stroke-linejoin="round"/>
<path d="M71.6016 110.425C77.1685 118.779 88.0185 122.331 97.6755 118.409C106.992 114.602 112.218 105.054 110.911 95.5352" fill="#E6FA36"/>
<path d="M71.6016 110.425C77.1685 118.779 88.0185 122.331 97.6755 118.409C106.992 114.602 112.218 105.054 110.911 95.5352" stroke="black" stroke-width="3" stroke-linecap="round" stroke-linejoin="round"/>
<path d="M52.4922 94.8983C54.0544 97.342 57.1503 98.4502 59.9622 97.3704C62.6889 96.3474 64.251 93.6196 63.9386 90.8633" fill="#E6FA36"/>
<path d="M52.4922 94.8983C54.0544 97.342 57.1503 98.4502 59.9622 97.3704C62.6889 96.3474 64.251 93.6196 63.9386 90.8633" stroke="black" stroke-width="3" stroke-linecap="round" stroke-linejoin="round"/>
<path d="M104.637 77.2205C106.199 79.6642 109.295 80.7724 112.107 79.6926C114.919 78.6129 116.396 75.9418 116.083 73.1855" fill="#E6FA36"/>
<path d="M104.637 77.2205C106.199 79.6642 109.295 80.7724 112.107 79.6926C114.919 78.6129 116.396 75.9418 116.083 73.1855" stroke="black" stroke-width="3" stroke-linecap="round" stroke-linejoin="round"/>
<path d="M113.978 94.8809C111.82 95.3923 109.519 95.4492 107.332 94.9945Z" fill="#E6FA36"/>
<path d="M113.978 94.8809C111.82 95.3923 109.519 95.4492 107.332 94.9945" stroke="black" stroke-width="3" stroke-linecap="round" stroke-linejoin="round"/>
<path d="M91.6838 75.7728C89.1795 71.3973 83.9537 69.2283 79.2174 70.8722C74.481 72.5161 71.7105 77.4211 72.4678 82.4425" stroke="black" stroke-width="3" stroke-linecap="round" stroke-linejoin="round"/>
<path d="M135.483 58.629C136.119 56.7617 135.401 54.6506 133.629 53.6175C131.933 52.6249 129.821 52.9429 128.491 54.2641L122.444 59.9687" stroke="black" stroke-width="3" stroke-linecap="round" stroke-linejoin="round"/>
<path d="M28.3502 97.8638C26.6942 96.7919 25.9499 94.6899 26.7007 92.7812C27.417 90.9514 29.2722 89.8923 31.1349 90.1052L39.4157 90.8369" stroke="black" stroke-width="3" stroke-linecap="round" stroke-linejoin="round"/>
<circle cx="108.475" cy="70.9706" r="16.9034" transform="rotate(-19.1413 108.475 70.9706)" stroke="black" stroke-width="3"/>
<circle cx="56.3149" cy="89.0741" r="16.9034" transform="rotate(-19.1413 56.3149 89.0741)" stroke="black" stroke-width="3"/>
</svg>
