<svg width="170" height="170" viewBox="0 0 170 170" fill="none" xmlns="http://www.w3.org/2000/svg">
<rect width="170" height="170" fill="#BC8EE4"/>
<path d="M97.3124 133.584L97.3106 133.582C95.8597 134.876 94.4378 136.17 93.0508 137.432C92.9118 137.559 92.7732 137.685 92.635 137.81L92.6319 137.813C91.3936 138.946 90.18 140.049 88.882 140.759C87.631 141.443 86.4485 141.681 85.2044 141.266L85.1962 141.263C83.7226 140.781 82.4831 139.773 81.0394 138.54L81.0346 138.536C69.5929 128.846 58.7435 118.81 49.1096 107.455L49.109 107.454C39.8183 96.517 32.6009 83.5731 32.5004 69.0702C32.435 57.4465 39.9237 45.4322 52.0083 41.6411L52.0118 41.64C59.6614 39.2194 67.6117 40.6287 72.9858 46.0698L72.9882 46.0722C77.4581 50.5774 79.2436 55.4704 80.1639 60.7497C80.6183 63.3561 80.8581 66.0331 81.1085 68.8292L81.1254 69.0174C81.3764 71.8192 81.6426 74.7318 82.1587 77.6814V77.7507L82.1815 77.88C83.0002 82.5224 89.5839 82.3849 90.3873 77.883L90.4107 77.7523V77.6814C90.9267 74.7318 91.1929 71.8192 91.444 69.0174L91.4608 68.8295C91.7113 66.0333 91.951 63.3562 92.4054 60.7497C93.3256 55.4706 95.1111 50.578 99.5804 46.0729C104.952 40.6666 112.903 39.2858 120.562 41.6759C132.646 45.4671 140.134 57.4813 140.069 69.1049C139.985 82.678 134.247 94.3956 126.008 104.957C118.29 114.852 108.468 123.622 99.2045 131.894C98.5709 132.46 97.94 133.023 97.3124 133.584Z" fill="#E6FA36" stroke="black" stroke-width="3"/>
<path d="M108.19 94.4023C105.91 104.36 96.8572 111.69 86.2496 111.448C75.6419 111.206 67.5911 103.979 65.3452 94.4369" stroke="black" stroke-width="3" stroke-linecap="round" stroke-linejoin="round"/>
<path d="M59.1257 94.4026C62.7192 95.1287 66.8655 93.7457 69.3188 90.7031" stroke="black" stroke-width="3" stroke-linecap="round" stroke-linejoin="round"/>
<path d="M65 64C64.3592 60.5897 61.4507 58 58 58C54.5493 58 51.6408 60.5641 51 64" fill="#E6FA36"/>
<path d="M65 64C64.3592 60.5897 61.4507 58 58 58C54.5493 58 51.6408 60.5641 51 64" stroke="black" stroke-width="3" stroke-linecap="round" stroke-linejoin="round"/>
<path d="M122 64C121.359 60.5897 118.451 58 115 58C111.549 58 108.641 60.5641 108 64" fill="#E6FA36"/>
<path d="M122 64C121.359 60.5897 118.451 58 115 58C111.549 58 108.641 60.5641 108 64" stroke="black" stroke-width="3" stroke-linecap="round" stroke-linejoin="round"/>
<path d="M97 65C96.0387 59.8846 91.6761 56 86.5 56C81.3239 56 76.9613 59.8462 76 65" stroke="black" stroke-width="3" stroke-linecap="round" stroke-linejoin="round"/>
<path d="M145.521 63.1048C146.773 61.4988 146.787 59.1967 145.409 57.5892C144.091 56.047 141.923 55.642 140.178 56.4803L132.349 59.9972" stroke="black" stroke-width="3" stroke-linecap="round" stroke-linejoin="round"/>
<path d="M27.7483 65.1048C26.496 63.4988 26.4816 61.1967 27.8601 59.5892C29.1781 58.047 31.3462 57.642 33.0908 58.4803L40.9197 61.9972" stroke="black" stroke-width="3" stroke-linecap="round" stroke-linejoin="round"/>
<circle cx="115" cy="66" r="17.5" stroke="black" stroke-width="3"/>
<circle cx="58" cy="66" r="17.5" stroke="black" stroke-width="3"/>
</svg>
