<svg width="256" height="256" viewBox="0 0 256 256" fill="none" xmlns="http://www.w3.org/2000/svg">
<path d="M128 256C198.692 256 256 198.692 256 128C256 57.3076 198.692 0 128 0C57.3076 0 0 57.3076 0 128C0 198.692 57.3076 256 128 256Z" fill="#AB3313"/>
<path d="M128 248.471C194.534 248.471 248.471 194.535 248.471 128.001C248.471 61.4668 194.534 7.53027 128 7.53027C61.4659 7.53027 7.52936 61.4668 7.52936 128.001C7.52936 194.535 61.4659 248.471 128 248.471Z" fill="#EBA75A"/>
<path d="M41.7129 170.314C69.8729 185.599 96.527 201.938 117.308 194.785C115.125 196.14 113.543 197.044 112.339 197.345C108.875 198.249 105.186 199.378 101.421 200.733C96.1505 202.54 92.4611 203.67 90.5788 204.046C81.3176 205.627 72.5082 206.154 65.0541 201.787C60.2352 198.851 56.0188 196.216 50.2964 196.818C45.1764 197.27 39.7552 197.872 37.4964 192.3C35.9905 188.686 35.3129 184.771 35.6141 180.404C35.9152 175.886 37.9482 172.498 41.7129 170.314Z" fill="#8A5D35"/>
<path d="M198.776 41.411C194.161 40.0267 189.364 39.3415 184.546 39.378C180.372 39.1786 176.279 40.5789 173.101 43.2933C178.372 55.0392 180.631 48.7145 167.153 61.3639L161.506 66.7851C157.741 70.3239 155.256 74.3898 153.901 78.9074L151.416 87.491C149.198 95.5389 146.039 103.297 142.005 110.606C137.008 118.917 130.702 126.366 123.332 132.667C116.555 138.39 112.339 142.456 105.788 146.07C97.1292 149.388 88.1056 151.663 78.9082 152.846C74.8665 154 70.9357 155.512 67.1623 157.364C62.6446 159.547 60.2352 162.333 56.094 166.474C55.1905 167.453 54.2117 168.131 53.0823 169.034C53.0241 169.093 52.9529 169.138 52.8744 169.164C52.7959 169.19 52.7123 169.197 52.6305 169.185C49.2423 168.282 49.6188 168.131 46.0046 165.646C44.9505 164.893 44.2729 165.044 43.9717 166.098C43.7617 166.977 43.3196 167.783 42.6917 168.432C42.6021 168.506 42.529 168.598 42.4771 168.701C42.4252 168.805 42.3957 168.919 42.3905 169.034C42.3112 169.524 42.0731 169.974 41.7129 170.314C37.9482 172.498 35.9152 175.886 35.614 180.404C35.3129 184.696 35.9152 188.686 37.4211 192.3C39.7552 197.872 45.1764 197.27 50.2964 196.818C55.9435 196.216 60.2352 198.851 65.054 201.712C72.5082 206.23 81.3176 205.627 90.5788 203.971C92.4611 203.67 96.0752 202.54 101.421 200.733C105.186 199.378 108.875 198.249 112.339 197.345C113.543 196.969 115.125 196.14 117.308 194.785C119.266 194.409 121.148 193.731 122.955 192.827C125.816 191.472 128.376 190.87 131.012 189.289C133.17 188.01 135.438 186.926 137.788 186.051C137.945 185.849 138.153 185.693 138.391 185.599L139.143 185.223C142.758 182.964 146.598 180.705 150.588 178.522C152.019 177.769 152.922 176.79 153.976 175.736L156.687 173.778C158.042 172.799 159.322 171.82 160.452 170.691C163.765 167.679 166.852 165.42 169.713 162.409C174.231 157.891 178.447 153.373 182.212 149.082C183.718 147.425 184.998 145.618 186.278 143.585L190.042 137.938C191.473 135.83 192.678 133.872 193.732 131.915L197.045 125.891C198.325 123.632 198.927 121.373 200.132 119.265C200.885 117.985 201.638 116.253 202.391 114.296C203.715 110.714 204.945 107.099 206.08 103.453C207.962 97.3545 209.318 91.1051 210.071 84.7051L210.221 81.6933C210.221 80.5639 210.296 79.5851 210.522 78.6063C210.974 81.8439 210.899 85.2321 210.522 88.6957L208.941 98.5592C207.653 106.695 205.352 114.638 202.089 122.202C196.095 136.058 187.965 148.888 177.995 160.225C164.894 175.284 149.383 187.406 131.689 196.592C116.926 204.636 100.636 209.485 83.8776 210.823C80.0376 211.049 76.3482 210.823 72.6587 210.22C71.0023 209.919 67.3882 209.016 61.8917 207.434C56.1605 205.842 50.3857 204.411 44.574 203.143C42.056 202.692 39.672 201.68 37.5994 200.18C35.5267 198.681 33.8186 196.734 32.6023 194.484C30.1929 189.966 29.5905 183.416 30.5693 178.22C31.6235 172.799 34.7105 168.809 39.8305 166.324C41.3364 165.571 44.7999 164.065 50.1458 161.957C51.5011 161.354 55.9435 158.794 63.3223 154.126C64.3011 153.524 66.5599 152.545 70.0987 150.964C77.2517 148.027 85.9105 146.446 93.5152 143.736C104.779 139.601 115.02 133.091 123.543 124.646C132.066 116.201 138.671 106.02 142.908 94.7945C143.134 94.1921 145.092 88.771 148.631 78.3804C150.498 73.7887 152.872 69.4197 155.708 65.3545C159.172 60.5357 163.012 54.4368 167.228 47.1333C168.583 44.7992 170.541 42.691 173.101 40.8839C180.706 35.3874 190.946 38.0227 198.701 41.411H198.776Z" fill="#C7844A"/>
<path d="M198.776 41.4123C201.261 41.9394 203.746 42.7676 206.08 43.9723C206.306 44.0476 206.381 44.1982 206.306 44.4241L202.918 50.9747L199.002 59.0311C198.927 59.257 199.002 59.4076 199.153 59.5582C201.035 60.6876 202.692 62.1182 204.122 63.6994C207.887 68.3676 209.543 72.7347 210.522 78.6076C210.296 79.5864 210.221 80.5653 210.221 81.6194C210.221 83.1253 210.221 84.1794 210.071 84.7064C206.857 108.317 197.161 130.575 182.061 149.008C178.296 153.375 174.231 157.892 169.713 162.485C164.518 167.756 157.365 174.833 150.588 178.523C141.509 183.542 132.295 188.313 122.955 192.829C121.148 193.732 119.191 194.335 117.308 194.786C107.294 198.25 97.5811 200.509 87.9435 201.488C79.8117 202.316 70.6258 200.961 64.527 193.732C64.3426 193.524 64.2362 193.258 64.2258 192.979C64.2328 192.898 64.223 192.816 64.1971 192.738C64.1712 192.66 64.1297 192.589 64.0753 192.528L61.8917 190.57C61.6644 190.382 61.3961 190.25 61.1084 190.184C60.8206 190.119 60.5215 190.122 60.2352 190.193C54.9647 191.398 51.5764 194.485 46.3811 196.142H45.9294C44.927 194.219 44.1199 192.201 43.52 190.118C43.2123 188.532 42.7844 186.971 42.24 185.45C41.7882 184.321 41.487 182.965 41.487 181.384C41.487 177.619 41.487 173.93 41.7129 170.316C42.101 169.986 42.3663 169.535 42.4658 169.036C42.4658 168.81 42.4658 168.584 42.6917 168.433C43.3081 167.805 43.7494 167.026 43.9717 166.175C44.2729 165.045 44.9505 164.895 46.0047 165.648C48.7153 167.455 49.8447 168.433 50.8235 168.659L52.6305 169.186C52.7124 169.199 52.7959 169.191 52.8744 169.165C52.9529 169.139 53.0241 169.095 53.0823 169.036C54.2117 168.132 55.1905 167.455 56.0941 166.476C60.2353 162.335 62.5694 159.549 67.1623 157.365C70.9357 155.514 74.8665 154.002 78.9082 152.848C83.8776 151.492 80.7153 152.848 84.7058 152.095C93.0284 150.547 101.158 148.098 108.951 144.791C117.685 139.897 125.365 135.003 132.894 128.377C134.325 127.097 135.68 125.591 137.111 123.935C145.078 114.331 151.62 103.63 156.536 92.1605C158.042 88.8476 158.419 85.0076 158.946 81.3935C159.247 79.3605 159.548 77.7794 159.849 76.7253C162.936 65.9582 167.755 61.6664 174.155 59.0311C176.64 58.0523 179.802 57.5253 182.287 56.8476C180.405 55.3417 179.878 55.3417 179.878 54.0617C179.125 52.1794 178.372 50.5229 177.619 49.017C176.715 47.21 175.209 45.2523 173.101 43.2194C176.29 40.5321 180.382 39.1591 184.546 39.3794C189.365 39.3794 194.108 39.9817 198.701 41.337L198.776 41.4123Z" fill="#4C230A"/>
<path d="M190.344 41.9377C189.892 42.3142 189.816 42.6907 190.042 42.9165C190.344 43.3683 190.795 43.6695 191.247 43.7448C194.861 44.7989 198.024 45.1754 201.638 47.3589C199.605 50.2201 197.948 53.2318 196.668 56.4695C196.619 56.6281 196.518 56.7659 196.382 56.8612C196.245 56.9566 196.081 57.0041 195.915 56.9965H195.614C195.162 56.6953 194.936 56.2436 195.087 55.7918L196.593 50.5212C196.744 49.7683 196.593 49.5424 195.915 49.9942C195.673 50.1799 195.469 50.4099 195.313 50.6718L192.452 51.6506C192.282 51.7141 192.095 51.7141 191.925 51.6506L188.913 50.7471L187.784 49.3918C187.558 49.1659 187.407 49.1659 187.332 49.3918C187.181 49.6177 187.181 50.0695 187.332 50.6718C187.558 52.253 186.955 52.9306 185.675 52.6295C185.532 52.5941 185.397 52.5289 185.28 52.438C185.164 52.3472 185.067 52.2329 184.998 52.1024L183.567 49.693C183.447 49.5332 183.269 49.4276 183.071 49.3994C182.873 49.3711 182.673 49.4226 182.513 49.5424C182.411 49.6195 182.332 49.7239 182.287 49.8436L181.986 51.0483C181.911 51.2742 181.76 51.4248 181.459 51.4248C181.158 51.4248 180.856 51.1989 180.555 50.6718L178.296 44.4977C178.232 44.3053 178.234 44.0966 178.302 43.9053C178.37 43.7141 178.501 43.5514 178.673 43.4436C178.785 43.3655 178.914 43.314 179.049 43.293L185.374 42.3895C185.553 42.3662 185.734 42.3968 185.895 42.4773C186.056 42.5578 186.189 42.6845 186.278 42.8412L188.386 47.133C188.461 47.2836 188.536 47.2836 188.687 47.2083L188.762 46.9824C188.744 45.3537 188.516 43.7341 188.085 42.1636C188.094 42.0788 188.128 41.9984 188.181 41.9318C188.234 41.8652 188.305 41.815 188.386 41.7871H188.612L190.344 41.9377Z" fill="#E7613A"/>
<path d="M190.343 41.9385L192.602 42.2397C194.711 42.4655 196.367 43.2185 198.4 43.5197C199.898 43.8429 201.342 44.3752 202.692 45.1008C202.725 45.1428 202.749 45.1914 202.762 45.2433C202.775 45.2952 202.777 45.3493 202.767 45.402V45.5526L201.638 47.3597C198.023 45.1008 194.861 44.7997 191.247 43.7455C190.775 43.6307 190.352 43.3666 190.042 42.9926C189.816 42.6914 189.892 42.3149 190.343 41.9385Z" fill="#EF9D57"/>
<path d="M182.287 56.846C178.673 57.7495 174.833 58.9543 171.746 61.0625C167.002 64.3001 170.692 60.6107 166.551 65.0531C162.349 69.5481 159.709 75.2777 159.021 81.3919C158.268 86.6625 157.139 92.2342 154.654 97.0531C150.438 105.185 148.48 112.94 141.628 120.018C135.605 126.117 131.087 131.161 124.16 136.432C122.503 137.712 118.814 139.444 115.953 140.95L108.951 144.79C108.198 145.241 107.143 145.618 105.788 146.07C112.339 142.455 116.631 138.39 123.332 132.667C130.786 126.192 137.035 118.888 142.005 110.531C146.034 103.246 149.193 95.5132 151.416 87.4907L153.901 78.9072C155.256 74.3895 157.816 70.3237 161.506 66.7848L167.153 61.439C169.412 59.3307 174.231 57.9001 173.101 43.2178C175.209 45.326 176.715 47.2084 177.619 49.0154C178.372 50.5213 179.125 52.1778 179.878 54.0601L180.329 54.6625C181.76 55.4154 180.405 54.5872 182.287 56.9213V56.846Z" fill="#8A5D35"/>
<path d="M187.332 50.6727V54.8139C187.332 55.0398 187.332 55.2657 187.181 55.4163C187.049 55.594 186.865 55.7257 186.654 55.7927H185.901C185.694 55.7177 185.512 55.5875 185.374 55.4163L183.868 53.8351C183.833 53.7883 183.788 53.7504 183.735 53.7243C183.683 53.6981 183.625 53.6845 183.567 53.6845L183.416 53.7598L183.341 53.9104L182.287 56.9222C180.555 55.0398 179.802 53.6845 180.555 50.6727C180.856 51.1998 181.158 51.4257 181.459 51.4257C181.76 51.4257 181.911 51.2751 181.986 51.0492L182.287 49.8445C182.287 49.6939 182.438 49.5433 182.513 49.468C182.621 49.3901 182.747 49.3422 182.879 49.3289C183.011 49.3157 183.145 49.3377 183.266 49.3927C183.416 49.3927 183.492 49.5433 183.567 49.6939L185.073 52.1033C185.211 52.3229 185.426 52.4838 185.675 52.5551C186.955 52.9316 187.558 52.2539 187.332 50.6727ZM195.313 50.6727L192.828 55.7174C192.678 55.868 192.527 55.9433 192.301 55.7927C189.892 54.2116 192 51.3504 190.343 54.588C190.118 55.0398 189.816 55.2657 189.365 55.1151C189.272 55.0826 189.193 55.021 189.139 54.9395C189.084 54.858 189.058 54.7611 189.063 54.6633L188.838 50.748L191.925 51.6516C192.095 51.7151 192.282 51.7151 192.452 51.6516L195.313 50.6727Z" fill="#A92D1B"/>
<path d="M202.918 50.9736L204.122 63.7736C202.616 62.1172 201.035 60.6866 199.153 59.5572C198.927 59.4066 198.927 59.256 199.002 59.0301L202.918 50.9736Z" fill="#C7844A"/>
<path d="M191.849 60.311C195.765 64.0004 195.765 64.0004 197.873 63.3228C199.906 64.6781 201.638 66.4851 203.144 68.8193C201.318 78.4064 198.955 87.8833 196.066 97.2051C192.873 107.717 188.37 117.785 182.664 127.172C180.631 130.41 178.824 134.099 176.489 137.111C172.499 142.382 169.562 146.146 167.755 148.33C162.334 154.956 156.311 160.603 149.534 165.346C147.501 166.777 147.351 166.551 149.007 164.819C153.292 160.229 157.435 155.508 161.431 150.664H160.904C157.064 154.579 153.675 157.44 150.739 159.473C146.372 162.485 143.586 164.443 142.456 165.346C131.991 173.779 116.48 179.652 103.755 183.342C99.4635 184.546 92.0847 186.353 81.6188 188.612C77.6282 189.44 72.3576 190.118 65.807 190.419C64.3012 188.462 63.1717 186.052 62.4941 183.342L63.0964 183.567C63.1963 183.567 63.2921 183.528 63.3627 183.457C63.4333 183.387 63.4729 183.291 63.4729 183.191C63.5171 178.264 64.9453 173.449 67.5947 169.296C70.2441 165.142 74.0078 161.817 78.4565 159.699C78.6895 159.582 78.9577 159.555 79.2094 159.624C79.36 159.624 79.5859 159.85 79.7365 160C81.9882 163.444 84.5868 166.649 87.4918 169.563C89.7506 171.822 92.6118 173.704 95.5482 175.135C96.3012 175.511 97.2047 174.231 97.2047 174.08L97.1294 173.855C95.6379 172.075 94.4429 170.066 93.5906 167.906C92.8376 165.798 91.7082 163.163 91.2565 160.603L90.5788 156.612C96.2629 154.997 101.935 153.34 107.595 151.643C108.348 151.342 109.101 151.342 109.478 151.718C112.565 154.203 115.878 156.462 119.416 158.645C120.546 159.323 121.976 159.925 123.558 160.452C124.009 160.603 125.44 159.925 125.214 159.549C123.181 156.311 121.299 153.073 119.492 149.836C118.814 148.64 118.259 147.379 117.835 146.071C122.57 143.692 127.038 140.814 131.162 137.487C131.915 136.885 132.593 136.735 133.12 137.111C137.336 140.047 141.628 141.855 145.995 142.683C146.974 142.909 147.727 142.683 148.104 142.156L150.136 142.08H150.212C150.272 142.08 150.329 142.057 150.371 142.014C150.414 141.972 150.438 141.914 150.438 141.855C150.438 141.795 150.414 141.737 150.371 141.695C150.329 141.652 150.272 141.629 150.212 141.629C146.3 138.292 142.719 134.586 139.52 130.56C140.649 129.657 141.704 128.603 142.532 127.473L145.242 124.085C149.007 119.793 150.513 118.513 152.32 115.05C152.373 114.965 152.443 114.891 152.526 114.834C152.608 114.776 152.701 114.736 152.799 114.715C152.898 114.694 152.999 114.692 153.098 114.711C153.197 114.73 153.29 114.768 153.374 114.824C155.332 116.179 157.515 117.535 159.925 118.815C161.958 119.869 163.915 120.17 165.798 119.567H166.626C166.776 119.567 166.852 119.567 166.927 119.417C166.979 119.355 167.013 119.281 167.026 119.201C167.039 119.122 167.031 119.04 167.002 118.965C162.435 115.22 158.406 110.862 155.031 106.015C156.838 105.036 158.193 103.229 159.247 100.744C160.151 98.2593 161.28 95.6993 162.56 92.9134C162.765 92.4293 162.916 91.9244 163.012 91.4075L163.087 91.3322C163.122 91.2854 163.168 91.2475 163.22 91.2214C163.272 91.1952 163.33 91.1816 163.388 91.1816H163.614L169.562 93.591C171.294 94.2687 172.951 94.344 174.833 94.5698C175.059 94.5698 175.285 94.5699 175.511 94.4193C175.615 94.3419 175.698 94.2388 175.75 94.1201C175.803 94.0013 175.824 93.871 175.812 93.7416C176.64 93.8922 177.318 93.8922 177.619 93.6663C177.697 93.6221 177.761 93.5554 177.801 93.475C177.841 93.3945 177.856 93.3038 177.845 93.2145C177.842 93.1378 177.82 93.0629 177.781 92.997C177.741 92.9312 177.685 92.8765 177.619 92.8381C172.581 90.5855 168.106 87.2423 164.518 83.0499C164.969 82.2216 165.271 81.2428 165.572 80.264L166.475 77.3275C168.775 72.3466 172.495 68.1558 177.167 65.2804C179.662 63.6755 182.172 62.0943 184.696 60.5369C184.689 60.4713 184.664 60.4089 184.624 60.3561C184.584 60.3032 184.531 60.2617 184.471 60.2357C184.31 60.143 184.129 60.0913 183.944 60.0851C186.504 59.5581 189.139 59.6334 191.849 60.311Z" fill="#E7613A"/>
<path d="M183.943 60.084C184.094 60.084 184.245 60.084 184.471 60.2346C184.517 60.2696 184.555 60.3151 184.581 60.3674C184.608 60.4197 184.621 60.4773 184.621 60.5358V60.6863L184.471 60.8369L177.167 65.3546C172.348 68.3663 168.734 72.4322 166.475 77.3263L165.572 80.2628C165.346 81.2416 164.969 82.2205 164.518 83.124C163.765 82.3711 163.388 81.6181 163.463 81.0911C163.463 79.5852 163.689 78.2299 163.991 76.7993C164.292 75.2934 164.743 73.9381 165.496 72.8087C167.605 69.3452 169.713 66.7852 171.972 65.2793C173.628 64.0746 175.661 62.9452 177.995 61.7405C179.802 60.7616 181.835 60.4605 183.943 60.084Z" fill="#FDB93D"/>
<path d="M197.948 63.3976C197.421 63.3976 197.195 63.5482 197.12 63.8494C195.84 70.2494 193.807 77.5529 191.096 85.8352C187.732 96.1226 183.023 105.92 177.092 114.974C175.545 117.164 174.064 119.398 172.649 121.675H172.423C172.273 121.675 172.273 121.6 172.348 121.525C172.8 120.245 173.176 119.416 173.402 119.115C174.758 117.082 176.489 114.598 177.619 111.962C184.395 95.8494 190.569 81.8447 192.452 63.7741C192.6 62.5853 192.39 61.3795 191.849 60.3105C194.108 60.5364 196.141 61.5905 197.873 63.3223L197.948 63.3976Z" fill="#A92D1B"/>
<path d="M65.7318 190.494C72.3576 190.042 77.6282 189.44 81.6188 188.611C92.0847 186.352 99.4635 184.545 103.755 183.341C105.186 182.889 109.553 181.383 116.856 178.672C117.986 178.296 119.642 177.543 121.751 176.489C123.934 175.51 126.268 174.757 128.301 173.628L135.755 169.562C138.391 168.282 140.649 166.851 142.532 165.421C143.586 164.442 146.372 162.484 150.814 159.472C154.516 156.832 157.969 153.858 161.129 150.588L161.431 150.663V150.814C157.432 155.607 153.289 160.277 149.007 164.818C147.351 166.55 147.501 166.776 149.534 165.345C156.311 160.602 162.334 154.955 167.755 148.329C180.192 133.13 189.783 115.811 196.066 97.2042C198.927 87.8678 201.336 78.3807 203.068 68.8184C204.122 69.6058 204.889 70.7165 205.252 71.9807C206.08 75.5195 206.607 78.0042 206.758 79.5101C206.833 81.016 206.682 83.1995 206.155 85.9101C205.704 88.696 204.8 92.6866 203.671 97.5807C202.692 101.571 201.562 105.336 200.207 108.95C195.002 121.806 188.359 134.031 180.405 145.392C178.824 147.802 176.715 150.287 174.155 152.922C167.228 159.924 161.656 165.195 157.515 168.734C155.256 170.691 153.374 172.122 151.642 173.251L141.478 179.651C139.219 181.157 136.96 182.437 134.701 183.491L127.624 186.88C119.793 190.515 111.621 193.365 103.228 195.388C97.7317 196.592 92.8376 197.571 88.5459 198.249C82.0106 199.477 75.2542 198.099 69.7223 194.409C68.4423 193.505 67.1623 192.15 65.7318 190.494Z" fill="#A92D1B"/>
<path d="M175.812 93.7414C175.824 93.8707 175.803 94.0011 175.75 94.1198C175.698 94.2386 175.615 94.3417 175.511 94.419C175.402 94.4936 175.279 94.5453 175.149 94.5712C175.02 94.5971 174.887 94.5965 174.758 94.5696C172.951 94.3437 171.294 94.2684 169.562 93.5908C167.43 92.8532 165.32 92.0497 163.238 91.1814C163.177 91.2073 163.124 91.2488 163.084 91.3017C163.045 91.3546 163.02 91.4169 163.012 91.4825C162.916 91.9994 162.765 92.5044 162.56 92.9884C161.28 95.699 160.151 98.259 159.247 100.668C158.193 103.228 156.838 105.035 155.106 106.014C157.139 100.744 159.096 95.4731 160.903 89.9014C161.299 88.8248 161.601 87.7165 161.807 86.5884C161.873 86.5174 161.956 86.4658 162.049 86.4392C162.142 86.4127 162.241 86.4122 162.334 86.4378L162.56 86.5884C166.021 90.4281 170.702 92.9548 175.812 93.7414ZM165.798 119.643C163.915 120.17 162.033 119.868 159.925 118.89C157.547 117.684 155.28 116.274 153.148 114.673C153.037 114.631 152.918 114.617 152.8 114.63C152.683 114.643 152.57 114.683 152.471 114.748C152.398 114.836 152.347 114.939 152.32 115.05C150.513 118.513 149.007 119.793 145.242 124.085L142.607 127.473C141.696 128.614 140.661 129.649 139.52 130.56C138.315 129.657 138.089 128.678 138.918 127.774C142.47 123.744 145.861 119.574 149.082 115.275C150.251 113.747 151.308 112.137 152.245 110.457C152.357 110.395 152.487 110.377 152.612 110.405C152.736 110.432 152.847 110.504 152.922 110.607C155.934 114.899 160.226 117.911 165.798 119.643ZM148.103 142.155C147.727 142.683 146.974 142.908 145.995 142.683C141.386 141.74 137.026 139.842 133.195 137.111C132.593 136.734 131.915 136.885 131.162 137.487C127.038 140.814 122.57 143.691 117.835 146.071C117.233 145.318 117.308 144.791 117.986 144.339C123.106 140.951 128 137.412 132.668 133.723C132.85 133.548 133.093 133.45 133.346 133.45C133.598 133.45 133.841 133.548 134.023 133.723C135.831 135.68 137.788 137.337 139.821 138.767C142.08 140.273 144.791 141.403 148.103 142.155ZM124.235 159.85L124.085 160.301L123.859 160.452H123.558C122.114 160.005 120.725 159.399 119.416 158.645C115.878 156.461 112.64 154.203 109.478 151.718C109.026 151.341 108.423 151.341 107.595 151.643L104.583 152.621L90.5788 156.612C90.2776 156.085 90.2776 155.633 90.4282 155.257C90.4605 155.15 90.5187 155.053 90.5975 154.974C90.6763 154.895 90.7733 154.837 90.8799 154.805L98.4094 152.772C101.421 151.868 104.132 150.513 106.993 149.685C108.348 149.233 109.628 148.48 111.059 147.652C111.178 147.602 111.306 147.577 111.435 147.577C111.564 147.577 111.692 147.602 111.812 147.652C111.962 147.652 112.188 147.803 112.339 148.028C114.372 151.341 117.082 154.353 120.471 157.064L124.235 159.85ZM96.3764 174.381V174.984C96.2795 175.099 96.147 175.178 95.9999 175.21C92.8513 173.773 89.9534 171.841 87.4164 169.487C84.5552 166.551 81.9199 163.464 79.7364 160C79.5899 159.804 79.3749 159.669 79.1341 159.624H78.3811C74.3152 161.581 71.0023 164.443 68.367 168.207C65.1548 172.658 63.4171 178.003 63.3976 183.492C63.3556 183.525 63.3071 183.549 63.2551 183.562C63.2032 183.575 63.1491 183.577 63.0964 183.567L62.4941 183.341C62.1347 181.965 61.9575 180.547 61.967 179.125C61.967 177.92 62.1929 176.565 62.5694 175.21C63.0964 173.252 63.3976 171.746 64.2258 170.09C65.6564 167.304 67.2376 164.894 69.0447 162.937C71.3035 160.452 74.1647 158.946 77.4776 157.365C78.7576 156.687 80.1882 156.386 81.8447 156.386C82.2211 156.386 82.5223 156.537 82.6729 156.838C84.4047 160.151 86.3623 163.614 88.6964 167.379C90.2776 170.014 92.9129 172.348 96.3764 174.381Z" fill="#FDB93D"/>
<path d="M55.2658 185.674C46.3811 187.933 51.8023 184.018 50.2211 179.952C49.2423 179.5 49.2423 179.124 50.2211 178.747C51.3502 178.337 52.5078 178.01 53.6846 177.768C53.7496 177.699 53.7972 177.615 53.8234 177.523C53.8495 177.431 53.8536 177.335 53.8352 177.241C53.8352 177.091 53.8352 177.015 53.6846 176.94C52.538 175.588 51.5291 174.125 50.6729 172.573C50.2211 171.895 49.3176 171.368 47.887 171.067C47.6908 171.008 47.5106 170.905 47.3599 170.766C46.9082 170.39 46.4564 170.239 46.0047 170.39C45.8922 170.423 45.7941 170.493 45.7259 170.588C45.6577 170.684 45.6233 170.799 45.6282 170.917L45.2517 177.467C44.6906 176.597 44.4509 175.559 44.5741 174.531L45.327 169.637C45.327 169.26 45.5529 169.185 45.9294 169.335C49.9199 170.841 53.7599 172.197 57.4493 173.326C57.9011 173.477 57.9764 173.627 57.8258 173.778V174.004C57.8258 174.154 57.8258 174.23 57.6752 174.23L55.4164 174.531L55.1152 174.681C55.0296 174.753 54.9689 174.85 54.9418 174.958C54.9148 175.066 54.9228 175.18 54.9646 175.284L55.1905 175.51C55.6766 175.907 56.179 176.284 56.6964 176.639C57.5999 177.241 57.7505 177.844 57.7505 178.747L57.6752 178.973L57.4493 179.124C53.3835 179.124 55.4164 181.684 57.2235 182.888C57.3741 182.888 57.5246 183.114 57.5999 183.34C57.6617 183.478 57.6951 183.627 57.6981 183.779C57.7011 183.93 57.6737 184.08 57.6175 184.221C57.5613 184.361 57.4775 184.489 57.371 184.596C57.2645 184.704 57.1375 184.789 56.9976 184.846L55.2658 185.599V185.674Z" fill="#A92D1B"/>
<path d="M57.8258 186.504H58.0517C59.0305 186.955 59.0305 187.482 58.2023 188.01C56.6964 188.913 55.1905 189.591 53.8352 189.967C53.5341 190.118 53.2329 190.344 52.9317 190.72C52.6305 191.172 52.4047 191.398 52.1788 191.473C51.8776 191.473 51.5011 191.473 51.0494 191.322L48.1882 192.377C47.9623 192.527 47.8117 192.377 47.7364 192.151C47.7364 191.699 47.4352 191.548 46.9835 191.624H46.7576C46.681 191.57 46.6274 191.489 46.607 191.398C44.5741 186.127 44.6493 186.654 44.2729 186.127L43.8964 180.179C43.8839 180.05 43.905 179.919 43.9578 179.8C44.0106 179.682 44.0932 179.579 44.1976 179.501C44.3121 179.435 44.4419 179.4 44.5741 179.4C44.7062 179.4 44.8361 179.435 44.9505 179.501C46.3058 180.104 47.5858 180.254 48.7152 179.953C49.6188 179.652 49.6188 179.351 48.7152 179.125C47.5105 178.748 46.4564 178.221 45.2517 177.468L45.6282 170.918C45.6282 170.617 45.7788 170.466 46.0047 170.391C46.4564 170.24 46.9082 170.391 47.36 170.767L47.887 171.068C49.3176 171.37 50.1458 171.897 50.5976 172.574C51.5074 174.241 52.5928 175.806 53.8352 177.242V177.544C53.7984 177.64 53.7375 177.725 53.6584 177.791C53.5793 177.857 53.4847 177.901 53.3835 177.92C52.1788 178.146 51.1247 178.447 50.2964 178.748C49.2423 179.125 49.2423 179.501 50.2964 179.953C51.9529 180.555 52.8564 181.76 53.007 183.567C53.6847 182.362 51.8023 185.6 57.8258 186.504Z" fill="#E7613A"/>
<path d="M45.1764 186.728L45.9294 189.665L46.607 191.397C46.607 191.472 46.607 191.547 46.7576 191.623H47.0588C47.4353 191.547 47.6612 191.623 47.8117 192.15C47.8117 192.451 47.9623 192.526 48.1882 192.375L51.0494 191.321C50.8791 191.639 50.6434 191.918 50.358 192.138C50.0725 192.359 49.7436 192.517 49.3929 192.601C49.1944 192.655 49.013 192.759 48.8659 192.903C48.5698 193.131 48.2297 193.296 47.8669 193.387C47.5041 193.477 47.1264 193.492 46.7576 193.43C46.5064 193.418 46.2663 193.323 46.0753 193.159C45.8844 192.995 45.7535 192.773 45.7035 192.526L45.1012 188.46C45.0983 188.262 45.0171 188.072 44.8753 187.933C44.2729 187.557 44.1223 186.954 44.2729 186.051C44.4988 186.427 44.8 186.653 45.1764 186.804V186.728Z" fill="#8A5D35"/>
<path d="M185.073 112.189C184.772 113.093 184.395 114.674 183.868 115.954L181.534 121.375C179.727 126.269 175.812 131.163 172.499 135.003C170.24 137.864 169.261 139.521 167.228 141.027C166.776 141.253 166.701 141.177 167.002 140.725C169.863 136.208 172.122 133.045 173.628 131.238C177.092 127.022 180.405 121.45 182.513 116.405C183.193 114.766 183.947 113.158 184.772 111.587C185.148 111.21 185.223 111.436 185.073 112.114V112.189ZM104.207 177.093C105.713 176.34 107.143 176.114 108.725 175.21C110.983 173.855 113.242 172.725 115.351 171.822C118.588 170.467 121.525 167.831 124.386 166.325C126.419 165.196 128.452 164.067 130.409 162.561C134.174 159.549 137.713 157.064 140.8 154.881C144.038 152.622 146.974 150.288 149.609 147.728L161.054 136.735C161.28 136.509 161.431 136.584 161.506 136.81L161.431 137.413C156.007 145.278 149.404 152.262 141.854 158.118C139.746 159.624 137.562 161.281 135.454 163.088C132.216 165.798 127.021 167.907 124.085 169.864C122.88 170.617 121.525 171.37 120.019 171.822C119.191 172.048 117.76 172.65 115.802 173.629C114.221 174.382 112.339 175.135 110.231 175.737C108.222 176.364 106.238 177.067 104.282 177.845L104.132 177.695V177.469L104.056 177.243L104.207 177.093Z" fill="#A92D1B"/>
</svg>
