<svg width="256" height="256" viewBox="0 0 256 256" fill="none" xmlns="http://www.w3.org/2000/svg">
<g clip-path="url(#clip0_2615_121)">
<mask id="mask0_2615_121" style="mask-type:luminance" maskUnits="userSpaceOnUse" x="0" y="0" width="256" height="256">
<path d="M256 0H0V256H256V0Z" fill="white"/>
</mask>
<g mask="url(#mask0_2615_121)">
<path d="M256 0H0V256H256V0Z" fill="#303035"/>
</g>
<path d="M206.969 202.251H188.594C185.001 202.251 181.709 200.207 180.095 197.001C168.046 177.119 152.683 171.289 142.807 171.31V151.171C151.414 151.106 158.385 157.152 164.302 165.415L128.004 92.7755L91.6414 165.522C97.5584 157.217 104.573 151.106 113.201 151.171V171.31C103.303 171.289 87.876 177.141 75.8054 197.194C74.2562 200.293 71.0933 202.251 67.6292 202.251H49.0391C48.5872 202.251 48.286 201.756 48.4796 201.347L115.374 67.4938L123.83 50.582C125.551 47.1393 130.457 47.1393 132.178 50.582L140.634 67.4938L207.528 201.347C207.743 201.777 207.442 202.251 206.969 202.251ZM134.717 145.534C133.555 146.308 132.286 146.889 131.231 147.771C129.446 149.234 128.456 151.386 127.982 153.688C127.036 149.643 123.722 146.114 122.711 141.725C122.259 139.767 122.087 137.723 121.205 135.916C120.043 133.527 117.762 131.871 115.481 130.494C117.289 132.968 117.267 136.303 116.859 139.315C116.471 142.349 115.783 145.447 116.536 148.417C117.504 152.268 120.688 155.087 123.679 157.669C123.916 157.862 124.153 158.056 124.389 158.271V177.033C126.519 178.884 128.606 180.799 130.78 182.585V159.282C137.622 154.269 139.73 148.955 140.419 146.824C141.43 143.705 140.118 141.252 142.592 136.303C138.289 138.476 137.945 143.382 134.717 145.534Z" fill="url(#paint0_linear_2615_121)"/>
</g>
<defs>
<linearGradient id="paint0_linear_2615_121" x1="60.1761" y1="111.307" x2="218.839" y2="187.465" gradientUnits="userSpaceOnUse">
<stop stop-color="#13577A"/>
<stop offset="0.3173" stop-color="#5AB8AA"/>
<stop offset="0.8563" stop-color="#8DC121"/>
</linearGradient>
<clipPath id="clip0_2615_121">
<rect width="256" height="256" fill="white"/>
</clipPath>
</defs>
</svg>
