<svg width="256" height="256" viewBox="0 0 256 256" fill="none" xmlns="http://www.w3.org/2000/svg">
<rect width="256" height="256" fill="black"/>
<path d="M182.524 56.0124C184.67 56.9655 186.651 58.2701 188.355 59.8996C193.818 65.1339 196.049 73.5312 193.797 80.7518C190.815 90.2993 181.353 96.1833 172.21 100.251C163.067 104.32 153.104 107.728 146.555 115.289C144.004 118.234 142.034 121.934 142.188 125.822C142.343 129.709 145.149 133.644 149.015 134.096C152.721 134.528 155.98 131.913 159.35 130.316C167.215 126.583 177.529 128.793 182.998 135.571C188.467 142.35 188.36 153.08 182.588 159.597C176.816 166.115 165.98 167.457 158.919 162.356C155.032 159.544 152.087 155.023 147.401 153.995C142.013 152.819 137.002 156.775 132.774 160.305C125.607 166.291 117.635 171.994 108.402 173.389C97.4167 175.055 85.6807 169.794 79.6156 160.481C68.9552 144.123 78.0182 119.991 97.0812 115.22C103.391 113.644 110.101 114.283 116.395 112.637C126.704 109.937 134.568 101.407 139.686 92.0618C143.493 85.1075 146.113 77.5409 150.08 70.6718C154.041 63.8027 159.723 57.4395 167.284 55.0486C172.253 53.4778 177.785 53.8824 182.535 56.0017L182.524 56.0124Z" fill="#FFC640"/>
<path d="M86.6058 56.758C91.3982 43.9197 105.232 37.7801 118.331 42.6843C130.483 47.2318 136.756 61.5078 132.112 74.0372C127.442 86.6359 113.241 93.1003 100.578 88.3186C88.2512 83.6646 81.2916 69.2448 86.6058 56.758Z" fill="#FFC640"/>
<path d="M158.46 171.536C169.951 175.992 175.728 188.975 171.288 200.37C166.942 211.515 153.95 217.314 142.778 213.096C131.527 208.847 125.515 195.561 129.823 184.448C134.221 173.106 147.304 167.206 158.46 171.536Z" fill="#FFC640"/>
<path d="M74.5137 89.5484C79.6149 91.4707 81.9153 96.5027 80.0249 101.577C78.2145 106.428 72.9056 108.947 68.1451 107.211C63.3847 105.475 60.7542 99.7029 62.5859 95.0117C64.4763 90.1661 69.7532 87.7486 74.519 89.5484H74.5137Z" fill="#FFC640"/>
</svg>
