<svg width="256" height="256" viewBox="0 0 256 256" fill="none" xmlns="http://www.w3.org/2000/svg">
<g clip-path="url(#clip0_1239_2)">
<rect width="256" height="256" fill="#1B1E36"/>
<path d="M128 256C198.692 256 256 198.692 256 128C256 57.3075 198.692 0 128 0C57.3075 0 0 57.3075 0 128C0 198.692 57.3075 256 128 256Z" fill="#2E3148"/>
<path d="M128 202.272C169.019 202.272 202.272 169.019 202.272 128C202.272 86.9806 169.019 53.728 128 53.728C86.9809 53.728 53.7283 86.9806 53.7283 128C53.7283 169.019 86.9809 202.272 128 202.272Z" fill="#1B1E36"/>
<path d="M128.263 16.3296C114.446 16.3296 103.243 66.4441 103.243 128.264C103.243 190.084 114.446 240.199 128.263 240.199C142.08 240.199 153.284 190.084 153.284 128.264C153.284 66.4441 142.08 16.3296 128.263 16.3296ZM129.991 233.881C128.411 235.989 126.831 234.408 126.831 234.408C120.468 227.035 117.286 213.338 117.286 213.338C106.156 177.519 108.805 100.614 108.805 100.614C114.036 39.559 123.551 25.136 126.789 21.9339C127.119 21.6071 127.555 21.4074 128.018 21.37C128.481 21.3325 128.943 21.4597 129.322 21.7291C134.02 25.0582 137.96 38.9805 137.96 38.9805C149.596 82.1738 148.543 122.733 148.543 122.733C149.596 158.026 142.712 197.532 142.712 197.532C137.413 227.555 129.991 233.881 129.991 233.881Z" fill="#6F7390"/>
<path d="M225.354 72.5595C218.474 60.5705 169.434 75.7933 115.786 106.556C62.1373 137.319 24.2944 171.979 31.1685 183.963C38.0426 195.946 87.0881 180.729 140.736 149.966C194.385 119.203 232.228 84.5434 225.354 72.5595ZM37.5152 182.318C34.8815 181.986 35.4765 179.821 35.4765 179.821C38.7072 170.635 48.9881 161.059 48.9881 161.059C74.5298 133.579 142.56 97.6066 142.56 97.6066C198.116 71.7588 215.373 72.8493 219.75 74.0546C220.2 74.18 220.59 74.4604 220.853 74.8461C221.115 75.2318 221.232 75.698 221.184 76.162C220.658 81.8964 210.517 92.2388 210.517 92.2388C178.863 123.838 143.155 143.112 143.155 143.112C113.067 161.595 75.3735 175.275 75.3735 175.275C46.6923 185.61 37.5163 182.318 37.5163 182.318H37.5152Z" fill="#6F7390"/>
<path d="M225.111 184.362C232.043 172.405 194.296 137.587 140.836 106.592C87.3758 75.5977 38.3416 60.1865 31.4152 72.1642C24.4889 84.1419 62.2305 118.939 115.721 149.934C169.212 180.928 218.185 196.341 225.111 184.362ZM36.0089 76.7845C34.9849 74.3566 37.1466 73.7719 37.1466 73.7719C46.7169 71.9645 60.1599 76.083 60.1599 76.083C96.7321 84.4112 161.946 125.261 161.946 125.261C212.155 160.395 219.856 175.871 221.01 180.264C221.127 180.714 221.082 181.192 220.881 181.612C220.681 182.032 220.338 182.368 219.914 182.561C214.678 184.958 200.656 181.386 200.656 181.386C157.436 169.797 122.871 148.565 122.871 148.565C91.8138 131.814 61.1041 106.04 61.1041 106.04C37.7691 86.3927 36.0161 76.8111 36.0161 76.8111L36.0089 76.7845Z" fill="#6F7390"/>
<path d="M128 141.168C135.273 141.168 141.169 135.273 141.169 128C141.169 120.727 135.273 114.831 128 114.831C120.727 114.831 114.831 120.727 114.831 128C114.831 135.273 120.727 141.168 128 141.168Z" fill="#B7B9C8"/>
<path d="M181.992 85.3331C186.21 85.3331 189.63 81.7956 189.63 77.4319C189.63 73.0682 186.21 69.5308 181.992 69.5308C177.773 69.5308 174.354 73.0682 174.354 77.4319C174.354 81.7956 177.773 85.3331 181.992 85.3331Z" fill="#B7B9C8"/>
<path d="M56.6252 112.198C60.8436 112.198 64.2632 108.66 64.2632 104.297C64.2632 99.933 60.8436 96.3955 56.6252 96.3955C52.4068 96.3955 48.9872 99.933 48.9872 104.297C48.9872 108.66 52.4068 112.198 56.6252 112.198Z" fill="#B7B9C8"/>
<path d="M112.461 209.119C116.679 209.119 120.099 205.582 120.099 201.218C120.099 196.854 116.679 193.317 112.461 193.317C108.243 193.317 104.823 196.854 104.823 201.218C104.823 205.582 108.243 209.119 112.461 209.119Z" fill="#B7B9C8"/>
</g>
<defs>
<clipPath id="clip0_1239_2">
<rect width="256" height="256" fill="white"/>
</clipPath>
</defs>
</svg>
