<svg width="256" height="256" viewBox="0 0 256 256" fill="none" xmlns="http://www.w3.org/2000/svg">
<g clip-path="url(#clip0_1239_2)">
<circle cx="128" cy="128" r="98" fill="black"/>
<rect width="256" height="256" fill="white"/>
<path d="M128 231C184.885 231 231 184.885 231 128C231 71.1147 184.885 25 128 25C71.1147 25 25 71.1147 25 128C25 184.885 71.1147 231 128 231Z" fill="white"/>
<g filter="url(#filter0_d_1239_2)">
<path d="M135.654 117.662L175.852 77.6867L160.602 62.5186L128.027 94.9148L95.4519 62.5186L80.2025 77.6867L120.4 117.662C122.503 119.754 125.268 120.8 128.022 120.8C130.776 120.8 133.54 119.754 135.644 117.662H135.654Z" fill="black"/>
</g>
<g filter="url(#filter1_d_1239_2)">
<path d="M193.844 160.362L161.269 127.966L193.844 95.57L178.595 80.4019L138.397 120.377C134.185 124.567 134.185 131.354 138.397 135.545L178.595 175.52L193.844 160.352V160.362Z" fill="black"/>
</g>
<g filter="url(#filter2_d_1239_2)">
<path d="M127.973 161.091L160.548 193.487L175.797 178.319L135.6 138.344C131.388 134.159 124.563 134.159 120.351 138.344L80.1536 178.319L95.403 193.487L127.973 161.091Z" fill="black"/>
</g>
<g filter="url(#filter3_d_1239_2)">
<path d="M117.602 135.611C119.624 133.6 120.763 130.873 120.763 128.027C120.763 125.181 119.63 122.454 117.602 120.443L77.4053 80.4678L62.1559 95.6359L94.731 128.032L62.1559 160.428L77.4053 175.596L117.602 135.622V135.611Z" fill="black"/>
</g>
</g>
<defs>
<filter id="filter0_d_1239_2" x="79.6905" y="62.0066" width="96.673" height="59.3057" filterUnits="userSpaceOnUse" color-interpolation-filters="sRGB">
<feFlood flood-opacity="0" result="BackgroundImageFix"/>
<feColorMatrix in="SourceAlpha" type="matrix" values="0 0 0 0 0 0 0 0 0 0 0 0 0 0 0 0 0 0 127 0" result="hardAlpha"/>
<feOffset/>
<feGaussianBlur stdDeviation="0.256"/>
<feColorMatrix type="matrix" values="0 0 0 0 0 0 0 0 0 0 0 0 0 0 0 0 0 0 0.13 0"/>
<feBlend mode="normal" in2="BackgroundImageFix" result="effect1_dropShadow_1239_2"/>
<feBlend mode="normal" in="SourceGraphic" in2="effect1_dropShadow_1239_2" result="shape"/>
</filter>
<filter id="filter1_d_1239_2" x="134.726" y="79.8899" width="59.6297" height="96.1417" filterUnits="userSpaceOnUse" color-interpolation-filters="sRGB">
<feFlood flood-opacity="0" result="BackgroundImageFix"/>
<feColorMatrix in="SourceAlpha" type="matrix" values="0 0 0 0 0 0 0 0 0 0 0 0 0 0 0 0 0 0 127 0" result="hardAlpha"/>
<feOffset/>
<feGaussianBlur stdDeviation="0.256"/>
<feColorMatrix type="matrix" values="0 0 0 0 0 0 0 0 0 0 0 0 0 0 0 0 0 0 0.13 0"/>
<feBlend mode="normal" in2="BackgroundImageFix" result="effect1_dropShadow_1239_2"/>
<feBlend mode="normal" in="SourceGraphic" in2="effect1_dropShadow_1239_2" result="shape"/>
</filter>
<filter id="filter2_d_1239_2" x="79.6416" y="134.693" width="96.6676" height="59.3057" filterUnits="userSpaceOnUse" color-interpolation-filters="sRGB">
<feFlood flood-opacity="0" result="BackgroundImageFix"/>
<feColorMatrix in="SourceAlpha" type="matrix" values="0 0 0 0 0 0 0 0 0 0 0 0 0 0 0 0 0 0 127 0" result="hardAlpha"/>
<feOffset/>
<feGaussianBlur stdDeviation="0.256"/>
<feColorMatrix type="matrix" values="0 0 0 0 0 0 0 0 0 0 0 0 0 0 0 0 0 0 0.13 0"/>
<feBlend mode="normal" in2="BackgroundImageFix" result="effect1_dropShadow_1239_2"/>
<feBlend mode="normal" in="SourceGraphic" in2="effect1_dropShadow_1239_2" result="shape"/>
</filter>
<filter id="filter3_d_1239_2" x="61.6439" y="79.9558" width="59.6311" height="96.1524" filterUnits="userSpaceOnUse" color-interpolation-filters="sRGB">
<feFlood flood-opacity="0" result="BackgroundImageFix"/>
<feColorMatrix in="SourceAlpha" type="matrix" values="0 0 0 0 0 0 0 0 0 0 0 0 0 0 0 0 0 0 127 0" result="hardAlpha"/>
<feOffset/>
<feGaussianBlur stdDeviation="0.256"/>
<feColorMatrix type="matrix" values="0 0 0 0 0 0 0 0 0 0 0 0 0 0 0 0 0 0 0.13 0"/>
<feBlend mode="normal" in2="BackgroundImageFix" result="effect1_dropShadow_1239_2"/>
<feBlend mode="normal" in="SourceGraphic" in2="effect1_dropShadow_1239_2" result="shape"/>
</filter>
<clipPath id="clip0_1239_2">
<rect width="256" height="256" fill="white"/>
</clipPath>
</defs>
</svg>
