<svg width="256" height="256" viewBox="0 0 256 256" fill="none" xmlns="http://www.w3.org/2000/svg">
<rect width="256" height="256" fill="#1E1E1E"/>
<path fill-rule="evenodd" clip-rule="evenodd" d="M46.3652 79.0976C45.9747 78.04 45.8954 76.8928 46.1367 75.7915C46.3779 74.6903 46.9297 73.6813 47.7265 72.8839L69.883 50.7274C70.68 49.9307 71.6885 49.379 72.7892 49.1373C73.8899 48.8956 75.0368 48.9742 76.0942 49.3637L123.337 66.719C123.904 66.9273 124.393 67.3045 124.739 67.7997C125.084 68.2948 125.269 68.8842 125.269 69.488V79.8319C125.269 80.615 124.96 81.364 124.406 81.9178L112.905 93.4156C112.093 94.2304 110.881 94.4963 109.8 94.0963L97.109 89.4171L83.1642 84.272C81.9859 83.8353 80.8344 84.9843 81.2711 86.1651L91.0954 112.801C91.493 113.881 91.2295 115.094 90.4147 115.906L80.1903 126.126C79.0388 127.277 79.0388 129.146 80.1903 130.298L90.4684 140.576C91.2832 141.39 91.5491 142.603 91.149 143.681L81.3247 170.314C80.8881 171.495 82.0371 172.644 83.2179 172.207L109.853 162.381C110.934 161.983 112.147 162.249 112.959 163.061L124.403 174.506C124.957 175.059 125.267 175.808 125.267 176.591V186.938C125.267 188.172 124.498 189.277 123.34 189.704L76.1528 207.113C75.095 207.504 73.9476 207.582 72.8464 207.341C71.7452 207.099 70.7362 206.547 69.9391 205.75L47.7802 183.591C46.9831 182.793 46.4312 181.784 46.1899 180.683C45.9487 179.582 46.0281 178.434 46.4189 177.377L63.7669 130.349C64.2524 129.031 64.2524 127.582 63.7669 126.265L46.3652 79.0976ZM209.087 177.384C209.477 178.442 209.557 179.589 209.315 180.69C209.074 181.792 208.522 182.801 207.725 183.598L185.569 205.757C184.772 206.554 183.764 207.106 182.663 207.347C181.562 207.589 180.415 207.51 179.358 207.121L132.115 189.765C131.548 189.557 131.059 189.18 130.713 188.685C130.368 188.189 130.183 187.6 130.183 186.996V176.652C130.183 175.869 130.493 175.12 131.046 174.567L142.547 163.069C143.359 162.254 144.571 161.988 145.652 162.388L158.343 167.067L172.288 172.212C173.466 172.649 174.615 171.5 174.181 170.319L164.357 143.684C163.959 142.603 164.222 141.39 165.037 140.578L175.262 130.359C176.413 129.207 176.413 127.338 175.262 126.187L164.984 115.909C164.585 115.511 164.309 115.006 164.188 114.456C164.067 113.905 164.107 113.332 164.303 112.803L174.127 86.17C174.564 84.9892 173.415 83.8402 172.234 84.2768L145.599 94.1036C144.518 94.5012 143.305 94.2353 142.493 93.4229L131.049 81.9787C130.775 81.7049 130.557 81.3797 130.409 81.0218C130.261 80.6639 130.185 80.2803 130.185 79.8929V69.5465C130.185 68.3121 130.954 67.2069 132.112 66.78L179.299 49.371C181.458 48.5733 183.883 49.1075 185.513 50.7347L207.669 72.8937C208.467 73.6904 209.02 74.6993 209.262 75.8007C209.503 76.9021 209.424 78.0497 209.033 79.1073L191.685 126.136C191.197 127.453 191.197 128.902 191.685 130.219L209.089 177.394L209.087 177.384Z" fill="#CE6533"/>
</svg>
