<svg width="256" height="256" viewBox="0 0 256 256" fill="none" xmlns="http://www.w3.org/2000/svg">
<g clip-path="url(#clip0_82_2)">
<rect width="256" height="256" fill="#814625"/>
<path d="M128 256C198.692 256 256 198.692 256 128C256 57.3075 198.692 0 128 0C57.3075 0 0 57.3075 0 128C0 198.692 57.3075 256 128 256Z" fill="#814625"/>
<path d="M123.226 121.518C123.086 121.093 122.987 120.657 122.911 120.217C122.876 120.013 122.836 119.81 122.79 119.608C122.689 119.17 122.578 118.734 122.457 118.301C124.453 115.391 133.995 100.21 123.137 90.4668C111.086 79.6532 97.0048 93.8268 97.0048 93.8268L97.0484 93.8896C90.7196 92.0372 83.8572 91.82 77.1808 93.826C77.0984 93.7432 63.0636 79.6848 51.048 90.4668C39.0282 101.252 52.0076 118.701 52.0752 118.792C51.9372 119.202 51.8256 119.622 51.752 120.047C50.4516 127.514 41.5996 129.818 41.5996 142.824C41.5996 155.83 50.86 166.528 69.7616 166.528H77.5176C77.5524 166.576 80.7468 170.936 87.304 170.931C93.3912 170.926 97.4112 166.566 97.446 166.528H104.847C123.748 166.528 133.009 156.082 133.009 142.824C133.009 130.712 125.332 127.881 123.226 121.518Z" fill="white"/>
<path d="M213.554 106.658C213.554 106.658 214.96 94.122 204.275 91.4284V86.4008H196V91.3028C184.728 93.7044 186.18 106.658 186.18 106.658V108.807C186.18 108.807 184.727 121.763 196.004 124.162L196.002 134.923C184.122 137.008 185.623 150.386 185.623 150.386V152.536C185.623 152.536 184.17 165.489 195.442 167.89V172.792H203.717V167.765C214.403 165.071 212.996 152.536 212.996 152.536C213.464 152.536 213.842 152.171 213.842 151.721V151.201C213.842 150.751 213.464 150.386 212.996 150.386C212.996 150.386 214.391 137.96 203.855 135.194V124.162H203.731C215.007 121.763 213.554 108.807 213.554 108.807C214.021 108.807 214.4 108.442 214.4 107.992V107.472C214.4 107.022 214.021 106.658 213.554 106.658ZM206.811 150.386H206.054C205.587 150.386 205.208 150.751 205.208 151.201V151.721C205.208 152.171 205.587 152.536 206.054 152.536H206.811C206.811 160.312 204.13 161.62 203.228 161.84C203.079 161.876 202.935 161.77 202.935 161.623V159.145C202.935 157.774 202.029 157.024 201.122 156.616C199.976 156.1 198.642 156.1 197.496 156.616C196.59 157.024 195.683 157.774 195.683 159.145V161.623C195.683 161.768 195.542 161.877 195.396 161.841C194.499 161.625 191.808 160.327 191.808 152.536V150.386C191.808 142.61 194.489 141.302 195.391 141.082C195.539 141.046 195.683 141.152 195.683 141.299V143.778C195.683 145.148 196.59 145.898 197.496 146.307C198.642 146.822 199.976 146.822 201.122 146.307C202.029 145.898 202.935 145.148 202.935 143.778V141.299C202.935 141.154 203.076 141.045 203.222 141.081C204.12 141.297 206.811 142.596 206.811 150.386ZM206.612 108.807H207.368C207.368 116.598 204.678 117.896 203.78 118.112C203.634 118.148 203.493 118.039 203.493 117.894V115.416C203.493 114.046 202.587 113.295 201.68 112.886C200.534 112.371 199.2 112.371 198.054 112.886C197.148 113.295 196.241 114.046 196.241 115.416V117.894C196.241 118.042 196.097 118.147 195.949 118.111C195.047 117.891 192.366 116.583 192.366 108.807V106.658C192.366 98.8664 195.057 97.5676 195.954 97.3516C196.1 97.3164 196.241 97.4256 196.241 97.57V100.048C196.241 101.419 197.148 102.169 198.054 102.578C199.2 103.094 200.534 103.094 201.68 102.578C202.587 102.169 203.493 101.419 203.493 100.048V97.57C203.493 97.4228 203.637 97.3168 203.786 97.3528C204.688 97.5732 207.368 98.8816 207.368 106.658H206.612C206.144 106.658 205.766 107.022 205.766 107.472V107.992C205.766 108.442 206.144 108.807 206.612 108.807Z" fill="white"/>
<path d="M172.144 128.795C172.144 128.795 173.605 115.766 162.226 113.42V101.715C173.302 99.2152 171.865 86.4008 171.865 86.4008C171.865 86.4008 165.654 86.4008 165.679 86.4008C165.679 94.192 162.988 95.4904 162.091 95.7064C161.945 95.742 161.804 95.6328 161.804 95.4884V93.0096C161.804 91.6396 160.898 90.8892 159.991 90.4808C158.845 89.9648 157.511 89.9648 156.365 90.4808C155.458 90.8892 154.552 91.6396 154.552 93.0096V95.4884C154.552 95.6356 154.408 95.7416 154.26 95.7056C153.358 95.4852 150.677 94.1768 150.677 86.4008C150.703 86.4008 144.491 86.4008 144.491 86.4008C144.491 86.4008 143 99.6984 154.763 101.844V113.404C143.302 115.708 144.77 128.794 144.77 128.794V130.943C144.77 130.943 143.302 144.03 154.763 146.334V157.356C143 159.502 144.491 172.799 144.491 172.799C144.491 172.799 150.702 172.799 150.677 172.799C150.677 165.008 153.368 163.71 154.265 163.494C154.411 163.458 154.552 163.567 154.552 163.712V166.19C154.552 167.56 155.458 168.311 156.365 168.72C157.511 169.235 158.845 169.235 159.991 168.72C160.898 168.311 161.804 167.56 161.804 166.19V163.712C161.804 163.564 161.948 163.459 162.096 163.495C162.998 163.715 165.679 165.023 165.679 172.799C165.653 172.799 171.865 172.799 171.865 172.799C171.865 172.799 173.302 159.985 162.226 157.485V146.318C173.605 143.971 172.144 130.943 172.144 130.943C172.611 130.943 172.99 130.578 172.99 130.128V129.608C172.99 129.158 172.611 128.795 172.144 128.795ZM165.201 130.944H165.958C165.958 138.735 163.267 140.034 162.37 140.25C162.224 140.285 162.083 140.176 162.083 140.032V137.553C162.083 136.183 161.176 135.432 160.27 135.024C159.124 134.508 157.79 134.508 156.644 135.024C155.737 135.432 154.831 136.183 154.831 137.553V140.032C154.831 140.179 154.687 140.284 154.538 140.248C153.636 140.028 150.956 138.72 150.956 130.944V128.795C150.956 121.004 153.646 119.705 154.544 119.489C154.69 119.454 154.831 119.562 154.831 119.707V122.186C154.831 123.556 155.737 124.306 156.644 124.715C157.79 125.231 159.124 125.231 160.27 124.715C161.176 124.306 162.083 123.556 162.083 122.186V119.707C162.083 119.56 162.227 119.454 162.375 119.49C163.277 119.71 165.958 121.019 165.958 128.795H165.201C164.734 128.795 164.356 129.16 164.356 129.609V130.129C164.356 130.579 164.734 130.944 165.201 130.944Z" fill="white"/>
</g>
<defs>
<clipPath id="clip0_82_2">
<rect width="256" height="256" fill="white"/>
</clipPath>
</defs>
</svg>
