<svg width="256" height="256" viewBox="0 0 256 256" fill="none" xmlns="http://www.w3.org/2000/svg">
<g clip-path="url(#clip0_2615_121)">
<mask id="mask0_2615_121" style="mask-type:luminance" maskUnits="userSpaceOnUse" x="0" y="0" width="256" height="256">
<path d="M256 0H0V256H256V0Z" fill="white"/>
</mask>
<g mask="url(#mask0_2615_121)">
<path d="M256 0H0V256H256V0Z" fill="#061508"/>
</g>
<path d="M181.532 154.245L181.206 154.571C179.254 156.686 176.813 158.151 174.047 159.29H173.884C171.443 160.266 168.839 160.754 166.073 160.754C162.168 160.754 158.425 159.941 154.845 158.313H154.683L154.194 157.988L154.032 157.825C150.777 156.035 148.174 153.432 146.384 150.177L146.058 149.526L138.899 157.174C138.899 157.174 137.434 164.497 136.783 168.077V168.239L136.946 168.402L137.109 168.565C144.431 176.538 154.683 181.094 165.422 181.094H166.073H166.561C173.558 181.094 180.555 179.304 186.739 175.887L186.902 175.725C190.319 173.772 193.41 171.331 196.177 168.565L196.502 168.239L181.532 154.245Z" fill="#37BE72"/>
<path d="M80.4797 118.609L83.4087 129.674L84.0596 128.698C87.1513 124.142 92.033 121.05 97.4028 119.911H97.5655C99.5182 119.585 101.471 119.423 103.424 119.423C106.353 119.585 109.282 120.399 111.722 121.864L111.885 122.026C115.465 123.979 118.557 126.745 121.16 129.837L121.648 130.325L128.483 120.725L130.598 110.473L130.435 110.31L129.622 109.659C125.066 105.591 119.858 102.337 114 100.547C110.909 99.5707 107.654 99.0825 104.4 99.0825H104.237C96.9147 99.0825 89.7549 101.035 83.246 104.452L83.0833 104.615L80.1543 117.47L80.4797 118.609Z" fill="#37BE72"/>
<path d="M144.754 146.435V146.272C144.754 145.459 144.592 142.367 144.592 140.414V139.926C144.429 135.044 146.056 130.325 149.148 126.583L149.311 126.42C149.799 125.932 150.287 125.281 150.775 124.793C154.68 120.725 160.05 118.447 165.746 118.447C166.722 118.447 167.536 118.447 168.512 118.609H168.675C173.393 119.26 177.624 121.376 181.041 124.63L181.367 124.956L195.849 110.311L195.524 109.985C188.201 102.825 178.601 98.5947 168.349 97.9438H168.186C167.21 97.9438 166.396 97.7811 165.42 97.7811C159.237 97.7811 153.216 98.9201 147.521 101.198C143.778 102.825 140.361 104.941 137.432 107.707L137.269 107.87H137.107V108.033L136.944 108.195L136.781 108.358C135.805 109.334 134.828 110.473 133.852 111.612V111.775L131.574 122.027L123.926 132.766V140.251C123.926 148.55 119.044 156.036 111.722 159.453H111.559C108.793 160.754 105.864 161.243 102.935 161.243C91.2189 161.405 81.6183 151.967 81.1302 140.251L80.9675 133.254V132.766L77.2249 117.796L80.4793 103.964L80.1538 82.1598L59 75L59.8136 123.003V123.166L59.9763 140.414C59.9763 141.065 59.9763 141.553 59.9763 142.204C59.9763 142.367 59.9763 142.367 59.9763 142.53C60.7899 154.246 66.4852 165.148 75.7604 172.47L75.9231 172.633C83.571 178.654 93.0089 181.908 102.772 181.908H104.237H104.562C115.302 181.583 124.089 178.003 130.923 171.657L131.086 171.494C132.062 170.518 133.038 169.541 133.852 168.565V168.402L136.13 156.361L144.429 146.923L144.754 146.435Z" fill="#37BE72"/>
</g>
<defs>
<clipPath id="clip0_2615_121">
<rect width="256" height="256" fill="white"/>
</clipPath>
</defs>
</svg>
