<svg width="256" height="256" viewBox="0 0 256 256" fill="none" xmlns="http://www.w3.org/2000/svg">
<g clip-path="url(#clip0_1239_2)">
<rect width="256" height="256" fill="#1E1E1E"/>
<rect width="256" height="256" fill="#F1E1D4"/>
<mask id="mask0_1239_2" style="mask-type:luminance" maskUnits="userSpaceOnUse" x="35" y="35" width="186" height="186">
<path d="M221 35.0522H35.054V220.948H221V35.0522Z" fill="white"/>
</mask>
<g mask="url(#mask0_1239_2)">
<path d="M45.1393 150.984C40.9799 146.826 38.1905 142.022 36.771 136.576C35.3845 131.096 35.3845 125.617 36.771 120.138C38.1905 114.625 40.9634 109.806 45.0898 105.68C49.2823 101.487 54.1185 98.6982 59.5985 97.3118C65.0784 95.9254 70.5584 95.9254 76.0383 97.3118C81.5182 98.6982 86.3379 101.471 90.4974 105.63L100.797 115.929L116.049 100.679L105.748 90.3798C101.589 86.2207 98.7996 81.4178 97.3801 75.9712C95.9936 70.4917 95.9773 65.0286 97.3308 59.5821C98.7173 54.1025 101.507 49.2666 105.699 45.0744C109.858 40.9153 114.679 38.1425 120.158 36.7561C125.638 35.3697 131.102 35.3862 136.548 36.8056C142.029 38.192 146.848 40.9648 151.008 45.124C155.168 49.2832 157.94 54.1025 159.327 59.5821C160.746 65.0286 160.762 70.4917 159.376 75.9712C158.023 81.4838 155.266 86.3197 151.107 90.4789L140.857 100.728L156.058 115.929L166.308 105.68C170.468 101.52 175.271 98.7312 180.718 97.3118C186.198 95.9254 191.662 95.9418 197.109 97.3612C202.589 98.7476 207.425 101.537 211.617 105.729C215.776 109.888 218.55 114.708 219.936 120.187C221.356 125.634 221.356 131.08 219.936 136.526C218.55 142.007 215.776 146.826 211.617 150.984C207.425 155.177 202.589 157.966 197.109 159.352C191.662 160.706 186.198 160.689 180.718 159.303C175.304 157.916 170.518 155.144 166.358 150.984L156.108 140.735L140.857 155.986L151.107 166.235C155.266 170.394 158.023 175.197 159.376 180.643C160.762 186.123 160.762 191.603 159.376 197.082C157.99 202.562 155.2 207.397 151.008 211.59C146.881 215.716 142.061 218.489 136.548 219.908C131.069 221.295 125.589 221.295 120.109 219.908C114.694 218.522 109.909 215.749 105.748 211.59C101.556 207.397 98.7503 202.578 97.3308 197.132C95.9443 191.652 95.9443 186.173 97.3308 180.693C98.7833 175.213 101.573 170.41 105.699 166.285L116.049 155.936L100.847 140.735L90.4974 151.084C86.3709 155.21 81.5347 157.966 75.9887 159.352C70.5088 160.739 65.0289 160.739 59.549 159.352C54.102 157.933 49.2988 155.144 45.1393 150.984ZM57.5187 138.606C59.4003 140.488 61.5791 141.742 64.055 142.369C66.5639 143.029 69.0563 143.046 71.5322 142.418C74.008 141.792 76.1868 140.537 78.0685 138.656L88.4176 128.307L78.118 118.008C76.2363 116.127 74.041 114.889 71.5322 114.295C69.0563 113.668 66.5805 113.668 64.1045 114.295C61.6287 114.922 59.4333 116.193 57.5187 118.108C55.6371 119.989 54.3661 122.151 53.7059 124.594C53.0787 127.07 53.0787 129.545 53.7059 132.021C54.3661 134.53 55.6371 136.724 57.5187 138.606ZM118.128 78.0013L128.428 88.3002L138.678 78.0508C140.593 76.1363 141.847 73.9577 142.441 71.515C143.069 69.0393 143.052 66.547 142.392 64.0383C141.765 61.5626 140.51 59.384 138.629 57.5025C136.746 55.6209 134.568 54.3666 132.092 53.7394C129.616 53.1123 127.14 53.1123 124.664 53.7394C122.221 54.3336 120.043 55.5879 118.128 57.5025C116.247 59.384 114.959 61.5626 114.266 64.0383C113.639 66.514 113.639 68.9897 114.266 71.4654C114.959 73.9411 116.247 76.1197 118.128 78.0013ZM165.587 128.357L175.837 138.606C177.719 140.488 179.882 141.758 182.324 142.418C184.8 143.046 190.16 143.029 192.602 142.369C195.079 141.742 197.273 140.471 199.188 138.556C201.103 136.642 202.357 134.464 202.951 132.021C203.612 129.578 203.629 127.119 203.001 124.644C202.374 122.168 201.119 119.989 199.238 118.108C197.323 116.193 195.128 114.922 192.652 114.295C190.176 113.668 184.8 113.668 182.324 114.295C179.914 114.922 177.752 116.193 175.837 118.108L165.587 128.357ZM118.128 199.211C120.01 201.093 122.189 202.347 124.664 202.975C127.14 203.601 129.6 203.584 132.042 202.925C134.518 202.297 136.697 201.043 138.578 199.162C140.493 197.247 141.765 195.052 142.392 192.577C143.052 190.134 143.069 187.675 142.441 185.198C141.847 182.69 140.609 180.495 138.727 178.613L128.478 168.364L118.128 178.713C116.247 180.594 114.975 182.756 114.315 185.198C113.688 187.675 113.688 190.15 114.315 192.626C114.943 195.101 116.213 197.297 118.128 199.211ZM113.226 128.357L128.428 143.558L143.679 128.307L128.478 113.107L113.226 128.357Z" fill="#24201F"/>
</g>
</g>
<defs>
<clipPath id="clip0_1239_2">
<rect width="256" height="256" fill="white"/>
</clipPath>
</defs>
</svg>
