<svg width="256" height="256" viewBox="0 0 256 256" fill="none" xmlns="http://www.w3.org/2000/svg">
<rect width="256" height="256" fill="black"/>
<path fill-rule="evenodd" clip-rule="evenodd" d="M74.5463 170.724L74.3658 156.588H74.5463L84.2193 150.852L130.403 177.423L175.85 150.882L185.899 156.588L130.222 188.864H130.403V203L74.5463 170.724ZM43 117.929L43.0301 103.793L52.8836 98.0572L130.403 141.729L204.146 101.023L214 106.728L130.403 153.156V167.291L43 117.929ZM74.5614 99.4121V85.2762L130.403 53L185.899 85.2762L130.403 117.552V131.703L74.5614 99.4121ZM109.974 86.6913C109.974 97.711 118.895 103.943 129.907 103.943H129.922C140.933 103.943 149.854 97.726 149.854 86.6913C149.854 75.6716 140.918 66.7294 129.907 66.7294C118.895 66.7294 109.974 75.6716 109.974 86.6913Z" fill="white"/>
</svg>
