<svg width="64" height="64" viewBox="0 0 64 64" fill="none" xmlns="http://www.w3.org/2000/svg">
<g clip-path="url(#clip0_628_537)">
<rect width="64" height="64" fill="#131313"/>
<path d="M30.7615 12.2223C31.6502 11.7869 32.5866 11.8167 33.4485 12.3058C36.4368 14.0087 39.4161 15.7265 42.3805 17.4622C43.3348 18.0229 43.8239 18.9206 43.8269 20.024C43.8448 23.892 43.8388 27.7571 43.8269 31.6251C43.8269 31.7683 43.7344 31.977 43.6181 32.0456C42.4699 32.7316 41.3068 33.3906 40.0453 34.1183V33.5099C40.0453 29.5316 40.0334 25.5562 40.0543 21.5778C40.0573 20.8143 39.7948 20.3222 39.1178 19.9375C35.6494 17.9662 32.1989 15.9591 28.7425 13.964C28.5933 13.8775 28.4472 13.7851 28.2206 13.6479C29.1093 13.1439 29.9085 12.6369 30.7555 12.2223H30.7615ZM30.1262 51.7944C29.9324 51.696 29.7892 51.6274 29.6491 51.5468C25.0713 48.9075 20.4994 46.2503 15.9067 43.6318C14.6183 42.8982 14.0308 41.8514 14.0457 40.3811C14.0726 37.2557 14.0636 34.1303 14.0487 31.0018C14.0427 29.5912 14.6153 28.5683 15.856 27.8645C19.0798 26.0303 22.2858 24.1694 25.4918 22.3055C25.7691 22.1444 25.9719 22.1176 26.2612 22.2906C27.3676 22.9556 28.4949 23.5908 29.6729 24.2708C29.4493 24.405 29.2793 24.5064 29.1063 24.6078C25.6349 26.6119 22.1695 28.622 18.6891 30.6141C18.1195 30.9392 17.8541 31.3627 17.8601 32.0248C17.878 34.4881 17.8809 36.9515 17.8601 39.4149C17.8541 40.0948 18.1255 40.5273 18.71 40.8613C22.3812 42.9608 26.0375 45.0842 29.7057 47.1897C30.0159 47.3686 30.1471 47.5536 30.1411 47.9234C30.1143 49.1849 30.1322 50.4494 30.1322 51.7974L30.1262 51.7944ZM30.1262 44.7383C29.8071 44.5564 29.5775 44.4281 29.3479 44.2939C26.4371 42.6149 23.5294 40.9299 20.6127 39.2628C20.2966 39.0838 20.1803 38.89 20.1833 38.5232C20.2041 36.6294 20.1952 34.7357 20.1892 32.8419C20.1892 32.5854 20.228 32.4095 20.4815 32.2663C21.5551 31.6669 22.6168 31.0406 23.6815 30.4292C23.759 30.3845 23.8425 30.3517 23.9827 30.2831V32.4095C23.9827 33.5606 24.0006 34.7148 23.9767 35.8659C23.9618 36.5221 24.2153 36.9664 24.7879 37.2885C26.4371 38.219 28.0655 39.1852 29.7147 40.1127C30.0398 40.2947 30.1382 40.4974 30.1322 40.8553C30.1113 42.1139 30.1233 43.3754 30.1233 44.7353L30.1262 44.7383ZM26.7652 19.8809C26.1479 19.517 25.62 19.52 25.0027 19.8809C21.5432 21.9029 18.0688 23.898 14.5974 25.9021C14.4513 25.9886 14.2992 26.0661 14.0398 26.2063C14.1322 24.8881 13.8489 23.6445 14.2992 22.4397C14.5438 21.7806 15.003 21.2855 15.6114 20.9336C18.5072 19.2605 21.4 17.5845 24.3018 15.9204C25.3605 15.312 26.4401 15.3269 27.4988 15.9383C30.7943 17.835 34.0867 19.7377 37.3732 21.6464C37.5134 21.7269 37.6893 21.9088 37.6893 22.046C37.7132 23.4 37.7042 24.7569 37.7042 26.2093C36.5083 25.5204 35.4049 24.8822 34.3014 24.244C31.7874 22.7916 29.2673 21.3541 26.7652 19.8809ZM49.9227 41.1714C49.8362 42.2361 49.2129 42.9906 48.2914 43.5215C44.7633 45.5494 41.2383 47.5893 37.7132 49.6233C36.6068 50.2615 35.5003 50.8997 34.3909 51.5379C34.2567 51.6154 34.1195 51.681 33.9376 51.7765C33.9257 51.5916 33.9108 51.4574 33.9108 51.3232C33.9108 50.1541 33.9167 48.988 33.9048 47.819C33.9048 47.5536 33.9674 47.3925 34.212 47.2523C39.3535 44.2939 44.4919 41.3265 49.6274 38.3621C49.705 38.3174 49.7915 38.2816 49.9376 38.213C49.9376 39.2509 49.9972 40.2171 49.9227 41.1714ZM49.9495 33.8111C49.9406 35.022 49.2875 35.8719 48.2526 36.4684C44.2325 38.7796 40.2153 41.1029 36.1982 43.4231C35.4645 43.8466 34.7279 44.2671 33.9406 44.7204C33.9287 44.5206 33.9137 44.3893 33.9137 44.2551C33.9137 43.104 33.9257 41.9498 33.9048 40.7987C33.8988 40.4706 34.0092 40.2976 34.2925 40.1336C37.9458 38.0371 41.5872 35.9166 45.2465 33.832C45.8966 33.4622 46.1829 33.0059 46.1769 32.2425C46.1501 28.2641 46.165 24.2857 46.165 20.3073V19.6125C47.1193 20.188 48.014 20.6622 48.8312 21.2408C49.5768 21.7687 49.9525 22.5679 49.9555 23.4894C49.9674 26.931 49.9764 30.3726 49.9525 33.8141L49.9495 33.8111Z" fill="url(#paint0_radial_628_537)"/>
<path d="M30.7615 12.2223C31.6502 11.7869 32.5866 11.8167 33.4485 12.3058C36.4368 14.0087 39.4161 15.7265 42.3805 17.4622C43.3348 18.0229 43.8239 18.9206 43.8269 20.024C43.8448 23.892 43.8388 27.7571 43.8269 31.6251C43.8269 31.7683 43.7344 31.977 43.6181 32.0456C42.4699 32.7316 41.3068 33.3906 40.0453 34.1183V33.5099C40.0453 29.5316 40.0334 25.5562 40.0543 21.5778C40.0573 20.8143 39.7948 20.3222 39.1178 19.9375C35.6494 17.9662 32.1989 15.9591 28.7425 13.964C28.5933 13.8775 28.4472 13.7851 28.2206 13.6479C29.1093 13.1439 29.9085 12.6369 30.7555 12.2223H30.7615ZM30.1262 51.7944C29.9324 51.696 29.7892 51.6274 29.6491 51.5468C25.0713 48.9075 20.4994 46.2503 15.9067 43.6318C14.6183 42.8982 14.0308 41.8514 14.0457 40.3811C14.0726 37.2557 14.0636 34.1303 14.0487 31.0018C14.0427 29.5912 14.6153 28.5683 15.856 27.8645C19.0798 26.0303 22.2858 24.1694 25.4918 22.3055C25.7691 22.1444 25.9719 22.1176 26.2612 22.2906C27.3676 22.9556 28.4949 23.5908 29.6729 24.2708C29.4493 24.405 29.2793 24.5064 29.1063 24.6078C25.6349 26.6119 22.1695 28.622 18.6891 30.6141C18.1195 30.9392 17.8541 31.3627 17.8601 32.0248C17.878 34.4881 17.8809 36.9515 17.8601 39.4149C17.8541 40.0948 18.1255 40.5273 18.71 40.8613C22.3812 42.9608 26.0375 45.0842 29.7057 47.1897C30.0159 47.3686 30.1471 47.5536 30.1411 47.9234C30.1143 49.1849 30.1322 50.4494 30.1322 51.7974L30.1262 51.7944ZM30.1262 44.7383C29.8071 44.5564 29.5775 44.4281 29.3479 44.2939C26.4371 42.6149 23.5294 40.9299 20.6127 39.2628C20.2966 39.0838 20.1803 38.89 20.1833 38.5232C20.2041 36.6294 20.1952 34.7357 20.1892 32.8419C20.1892 32.5854 20.228 32.4095 20.4815 32.2663C21.5551 31.6669 22.6168 31.0406 23.6815 30.4292C23.759 30.3845 23.8425 30.3517 23.9827 30.2831V32.4095C23.9827 33.5606 24.0006 34.7148 23.9767 35.8659C23.9618 36.5221 24.2153 36.9664 24.7879 37.2885C26.4371 38.219 28.0655 39.1852 29.7147 40.1127C30.0398 40.2947 30.1382 40.4974 30.1322 40.8553C30.1113 42.1139 30.1233 43.3754 30.1233 44.7353L30.1262 44.7383ZM26.7652 19.8809C26.1479 19.517 25.62 19.52 25.0027 19.8809C21.5432 21.9029 18.0688 23.898 14.5974 25.9021C14.4513 25.9886 14.2992 26.0661 14.0398 26.2063C14.1322 24.8881 13.8489 23.6445 14.2992 22.4397C14.5438 21.7806 15.003 21.2855 15.6114 20.9336C18.5072 19.2605 21.4 17.5845 24.3018 15.9204C25.3605 15.312 26.4401 15.3269 27.4988 15.9383C30.7943 17.835 34.0867 19.7377 37.3732 21.6464C37.5134 21.7269 37.6893 21.9088 37.6893 22.046C37.7132 23.4 37.7042 24.7569 37.7042 26.2093C36.5083 25.5204 35.4049 24.8822 34.3014 24.244C31.7874 22.7916 29.2673 21.3541 26.7652 19.8809ZM49.9227 41.1714C49.8362 42.2361 49.2129 42.9906 48.2914 43.5215C44.7633 45.5494 41.2383 47.5893 37.7132 49.6233C36.6068 50.2615 35.5003 50.8997 34.3909 51.5379C34.2567 51.6154 34.1195 51.681 33.9376 51.7765C33.9257 51.5916 33.9108 51.4574 33.9108 51.3232C33.9108 50.1541 33.9167 48.988 33.9048 47.819C33.9048 47.5536 33.9674 47.3925 34.212 47.2523C39.3535 44.2939 44.4919 41.3265 49.6274 38.3621C49.705 38.3174 49.7915 38.2816 49.9376 38.213C49.9376 39.2509 49.9972 40.2171 49.9227 41.1714ZM49.9495 33.8111C49.9406 35.022 49.2875 35.8719 48.2526 36.4684C44.2325 38.7796 40.2153 41.1029 36.1982 43.4231C35.4645 43.8466 34.7279 44.2671 33.9406 44.7204C33.9287 44.5206 33.9137 44.3893 33.9137 44.2551C33.9137 43.104 33.9257 41.9498 33.9048 40.7987C33.8988 40.4706 34.0092 40.2976 34.2925 40.1336C37.9458 38.0371 41.5872 35.9166 45.2465 33.832C45.8966 33.4622 46.1829 33.0059 46.1769 32.2425C46.1501 28.2641 46.165 24.2857 46.165 20.3073V19.6125C47.1193 20.188 48.014 20.6622 48.8312 21.2408C49.5768 21.7687 49.9525 22.5679 49.9555 23.4894C49.9674 26.931 49.9764 30.3726 49.9525 33.8141L49.9495 33.8111Z" fill="url(#paint1_radial_628_537)"/>
</g>
<defs>
<radialGradient id="paint0_radial_628_537" cx="0" cy="0" r="1" gradientUnits="userSpaceOnUse" gradientTransform="translate(23.5726 22.4535) rotate(47.9634) scale(39.432 83.1793)">
<stop stop-color="#A3EEF8"/>
<stop offset="0.177083" stop-color="#A4DCF5"/>
<stop offset="0.380208" stop-color="#A6AEEC"/>
<stop offset="1" stop-color="#ECBEE1"/>
</radialGradient>
<radialGradient id="paint1_radial_628_537" cx="0" cy="0" r="1" gradientUnits="userSpaceOnUse" gradientTransform="translate(33.5596 49.3219) rotate(84.8296) scale(21.4393 37.0224)">
<stop stop-color="#FCF5EE"/>
<stop offset="0.715135" stop-color="#ECBEE1" stop-opacity="0"/>
</radialGradient>
<clipPath id="clip0_628_537">
<rect width="64" height="64" fill="white"/>
</clipPath>
</defs>
</svg>
