<svg width="256" height="256" viewBox="0 0 256 256" fill="none" xmlns="http://www.w3.org/2000/svg">
<g clip-path="url(#clip0_2626_97)">
<mask id="mask0_2626_97" style="mask-type:luminance" maskUnits="userSpaceOnUse" x="0" y="0" width="256" height="256">
<path d="M256 0H0V256H256V0Z" fill="white"/>
</mask>
<g mask="url(#mask0_2626_97)">
<path d="M256 0H0V256H256V0Z" fill="#131313"/>
<path d="M123.046 48.889C126.601 47.1474 130.346 47.2666 133.794 49.223C145.747 56.0346 157.664 62.9058 169.522 69.8486C173.339 72.0914 175.296 75.6822 175.308 80.0958C175.379 95.5678 175.355 111.028 175.308 126.5C175.308 127.073 174.938 127.908 174.472 128.182C169.88 130.926 165.227 133.562 160.181 136.473V134.039C160.181 118.126 160.134 102.225 160.217 86.311C160.229 83.257 159.179 81.2886 156.471 79.7498C142.598 71.8646 128.796 63.8362 114.97 55.8558C114.373 55.5098 113.789 55.1402 112.882 54.5914C116.437 52.5754 119.634 50.5474 123.022 48.889H123.046ZM120.505 207.177C119.73 206.784 119.157 206.509 118.596 206.187C100.285 195.63 81.9977 185.001 63.6269 174.527C58.4733 171.593 56.1233 167.405 56.1829 161.524C56.2905 149.023 56.2545 136.521 56.1949 124.007C56.1709 118.365 58.4613 114.273 63.4241 111.458C76.3193 104.121 89.1433 96.6774 101.967 89.2218C103.076 88.5774 103.888 88.4702 105.045 89.1622C109.47 91.8222 113.98 94.363 118.692 97.083C117.797 97.6198 117.117 98.0254 116.425 98.431C102.54 106.447 88.6781 114.488 74.7565 122.456C72.4781 123.757 71.4165 125.451 71.4405 128.099C71.5121 137.952 71.5237 147.806 71.4405 157.659C71.4165 160.379 72.502 162.109 74.84 163.445C89.5248 171.843 104.15 180.337 118.823 188.759C120.064 189.474 120.588 190.214 120.564 191.693C120.457 196.739 120.529 201.797 120.529 207.189L120.505 207.177ZM120.505 178.953C119.228 178.225 118.31 177.712 117.392 177.175C105.748 170.459 94.1176 163.719 82.4509 157.051C81.1865 156.335 80.7213 155.56 80.7333 154.093C80.8165 146.517 80.7809 138.943 80.7569 131.367C80.7569 130.341 80.9121 129.638 81.9261 129.065C86.2205 126.667 90.4672 124.162 94.726 121.717C95.036 121.538 95.3701 121.407 95.9309 121.132V129.638C95.9309 134.242 96.0024 138.859 95.9068 143.463C95.8472 146.088 96.8613 147.865 99.1517 149.154C105.748 152.876 112.262 156.741 118.859 160.451C120.159 161.179 120.553 161.989 120.529 163.421C120.445 168.455 120.493 173.501 120.493 178.941L120.505 178.953ZM107.061 79.5234C104.592 78.0678 102.48 78.0798 100.011 79.5234C86.1729 87.6114 72.2753 95.5918 58.3897 103.608C57.8053 103.954 57.1969 104.264 56.1593 104.825C56.5289 99.5522 55.3957 94.5778 57.1969 89.7586C58.1753 87.1222 60.0121 85.1418 62.4457 83.7342C74.0289 77.0418 85.6 70.3378 97.2072 63.6814C101.442 61.2478 105.76 61.3074 109.995 63.753C123.177 71.3398 136.347 78.9506 149.493 86.5854C150.054 86.9074 150.757 87.635 150.757 88.1838C150.853 93.5998 150.817 99.0274 150.817 104.837C146.033 102.081 141.62 99.5286 137.206 96.9758C127.15 91.1662 117.069 85.4162 107.061 79.5234ZM199.691 164.685C199.345 168.944 196.852 171.962 193.166 174.086C179.053 182.197 164.953 190.357 150.853 198.493C146.427 201.046 142.001 203.599 137.564 206.151C137.027 206.461 136.478 206.724 135.75 207.106C135.703 206.366 135.643 205.829 135.643 205.293C135.643 200.616 135.667 195.952 135.619 191.276C135.619 190.214 135.87 189.57 136.848 189.009C157.414 177.175 177.968 165.306 198.51 153.448C198.82 153.269 199.166 153.126 199.75 152.852C199.75 157.003 199.989 160.868 199.691 164.685ZM199.798 135.244C199.762 140.088 197.15 143.487 193.01 145.873C176.93 155.118 160.861 164.411 144.793 173.692C141.858 175.386 138.912 177.068 135.762 178.881C135.715 178.082 135.655 177.557 135.655 177.02C135.655 172.416 135.703 167.799 135.619 163.195C135.595 161.882 136.037 161.19 137.17 160.534C151.783 152.148 166.349 143.666 180.986 135.328C183.586 133.849 184.732 132.023 184.708 128.97C184.6 113.056 184.66 97.1426 184.66 81.229V78.4498C188.477 80.7518 192.056 82.6486 195.325 84.963C198.307 87.0746 199.81 90.2714 199.822 93.9574C199.87 107.724 199.906 121.49 199.81 135.256L199.798 135.244Z" fill="url(#paint0_radial_2626_97)"/>
<path d="M123.046 48.889C126.601 47.1474 130.346 47.2666 133.794 49.223C145.747 56.0346 157.664 62.9058 169.522 69.8486C173.339 72.0914 175.296 75.6822 175.308 80.0958C175.379 95.5678 175.355 111.028 175.308 126.5C175.308 127.073 174.938 127.908 174.472 128.182C169.88 130.926 165.227 133.562 160.181 136.473V134.039C160.181 118.126 160.134 102.225 160.217 86.311C160.229 83.257 159.179 81.2886 156.471 79.7498C142.598 71.8646 128.796 63.8362 114.97 55.8558C114.373 55.5098 113.789 55.1402 112.882 54.5914C116.437 52.5754 119.634 50.5474 123.022 48.889H123.046ZM120.505 207.177C119.73 206.784 119.157 206.509 118.596 206.187C100.285 195.63 81.9977 185.001 63.6269 174.527C58.4733 171.593 56.1233 167.405 56.1829 161.524C56.2905 149.023 56.2545 136.521 56.1949 124.007C56.1709 118.365 58.4613 114.273 63.4241 111.458C76.3193 104.121 89.1433 96.6774 101.967 89.2218C103.076 88.5774 103.888 88.4702 105.045 89.1622C109.47 91.8222 113.98 94.363 118.692 97.083C117.797 97.6198 117.117 98.0254 116.425 98.431C102.54 106.447 88.6781 114.488 74.7565 122.456C72.4781 123.757 71.4165 125.451 71.4405 128.099C71.5121 137.952 71.5237 147.806 71.4405 157.659C71.4165 160.379 72.502 162.109 74.84 163.445C89.5248 171.843 104.15 180.337 118.823 188.759C120.064 189.474 120.588 190.214 120.564 191.693C120.457 196.739 120.529 201.797 120.529 207.189L120.505 207.177ZM120.505 178.953C119.228 178.225 118.31 177.712 117.392 177.175C105.748 170.459 94.1176 163.719 82.4509 157.051C81.1865 156.335 80.7213 155.56 80.7333 154.093C80.8165 146.517 80.7809 138.943 80.7569 131.367C80.7569 130.341 80.9121 129.638 81.9261 129.065C86.2205 126.667 90.4672 124.162 94.726 121.717C95.036 121.538 95.3701 121.407 95.9309 121.132V129.638C95.9309 134.242 96.0024 138.859 95.9068 143.463C95.8472 146.088 96.8613 147.865 99.1517 149.154C105.748 152.876 112.262 156.741 118.859 160.451C120.159 161.179 120.553 161.989 120.529 163.421C120.445 168.455 120.493 173.501 120.493 178.941L120.505 178.953ZM107.061 79.5234C104.592 78.0678 102.48 78.0798 100.011 79.5234C86.1729 87.6114 72.2753 95.5918 58.3897 103.608C57.8053 103.954 57.1969 104.264 56.1593 104.825C56.5289 99.5522 55.3957 94.5778 57.1969 89.7586C58.1753 87.1222 60.0121 85.1418 62.4457 83.7342C74.0289 77.0418 85.6 70.3378 97.2072 63.6814C101.442 61.2478 105.76 61.3074 109.995 63.753C123.177 71.3398 136.347 78.9506 149.493 86.5854C150.054 86.9074 150.757 87.635 150.757 88.1838C150.853 93.5998 150.817 99.0274 150.817 104.837C146.033 102.081 141.62 99.5286 137.206 96.9758C127.15 91.1662 117.069 85.4162 107.061 79.5234ZM199.691 164.685C199.345 168.944 196.852 171.962 193.166 174.086C179.053 182.197 164.953 190.357 150.853 198.493C146.427 201.046 142.001 203.599 137.564 206.151C137.027 206.461 136.478 206.724 135.75 207.106C135.703 206.366 135.643 205.829 135.643 205.293C135.643 200.616 135.667 195.952 135.619 191.276C135.619 190.214 135.87 189.57 136.848 189.009C157.414 177.175 177.968 165.306 198.51 153.448C198.82 153.269 199.166 153.126 199.75 152.852C199.75 157.003 199.989 160.868 199.691 164.685ZM199.798 135.244C199.762 140.088 197.15 143.487 193.01 145.873C176.93 155.118 160.861 164.411 144.793 173.692C141.858 175.386 138.912 177.068 135.762 178.881C135.715 178.082 135.655 177.557 135.655 177.02C135.655 172.416 135.703 167.799 135.619 163.195C135.595 161.882 136.037 161.19 137.17 160.534C151.783 152.148 166.349 143.666 180.986 135.328C183.586 133.849 184.732 132.023 184.708 128.97C184.6 113.056 184.66 97.1426 184.66 81.229V78.4498C188.477 80.7518 192.056 82.6486 195.325 84.963C198.307 87.0746 199.81 90.2714 199.822 93.9574C199.87 107.724 199.906 121.49 199.81 135.256L199.798 135.244Z" fill="url(#paint1_radial_2626_97)"/>
</g>
</g>
<defs>
<radialGradient id="paint0_radial_2626_97" cx="0" cy="0" r="1" gradientUnits="userSpaceOnUse" gradientTransform="translate(94.2905 89.8138) rotate(47.9634) scale(157.728 332.717)">
<stop stop-color="#A3EEF8"/>
<stop offset="0.177083" stop-color="#A4DCF5"/>
<stop offset="0.380208" stop-color="#A6AEEC"/>
<stop offset="1" stop-color="#ECBEE1"/>
</radialGradient>
<radialGradient id="paint1_radial_2626_97" cx="0" cy="0" r="1" gradientUnits="userSpaceOnUse" gradientTransform="translate(134.238 197.287) rotate(84.8296) scale(85.7572 148.09)">
<stop stop-color="#FCF5EE"/>
<stop offset="0.715135" stop-color="#ECBEE1" stop-opacity="0"/>
</radialGradient>
<clipPath id="clip0_2626_97">
<rect width="256" height="256" fill="white"/>
</clipPath>
</defs>
</svg>
