<svg width="256" height="256" viewBox="0 0 256 256" fill="none" xmlns="http://www.w3.org/2000/svg">
<g clip-path="url(#clip0_93_11)">
<rect width="256" height="256" fill="#4D3DFF"/>
<path d="M128 256C198.692 256 256 198.692 256 128C256 57.3075 198.692 0 128 0C57.3075 0 0 57.3075 0 128C0 198.692 57.3075 256 128 256Z" fill="#4D3DFF"/>
<mask id="mask0_93_11" style="mask-type:luminance" maskUnits="userSpaceOnUse" x="41" y="41" width="174" height="175">
<path d="M215 41H41V215.622H215V41Z" fill="white"/>
</mask>
<g mask="url(#mask0_93_11)">
<path d="M146.27 43.0957L145.748 44.1434C163.844 52.0014 174.11 68.2412 174.11 86.0526C174.11 105.261 161.582 122.723 137.222 137.566L133.22 140.011C114.95 151.187 105.728 163.759 105.728 178.951C105.728 198.509 121.04 212.828 142.094 212.828C175.85 212.828 215 176.681 215 128.486C215 120.628 213.956 112.944 212.042 105.61L210.824 105.959C211.346 109.976 211.52 112.944 211.52 115.738C211.52 144.202 195.512 168.649 168.716 184.888L166.106 186.46C160.364 189.778 155.492 191.699 150.62 191.699C144.182 191.699 139.31 187.508 139.31 181.396C139.31 176.157 142.79 170.919 154.1 164.283L157.406 162.362C182.462 147.694 196.382 127.089 196.382 104.213C196.382 75.2261 174.806 51.3029 146.27 43.0957ZM109.73 213.701L110.252 212.653C92.156 204.795 81.89 188.556 81.89 170.744C81.89 151.536 94.418 134.074 118.778 119.231L122.78 116.786C141.05 105.61 150.272 93.0375 150.272 77.8454C150.272 58.2878 134.96 43.9688 113.906 43.9688C80.15 43.9688 41 80.1155 41 128.311C41 136.169 42.044 143.852 43.958 151.187L45.176 150.837C44.654 146.821 44.48 143.852 44.48 141.058C44.48 112.595 60.488 88.1481 87.284 71.9083L89.894 70.3367C95.636 67.0189 100.508 65.098 105.38 65.098C111.818 65.098 116.69 69.2889 116.69 75.4007C116.69 80.6394 113.21 85.878 101.9 92.5136L98.594 94.4345C73.538 109.103 59.618 129.708 59.618 152.583C59.618 181.571 81.194 205.494 109.73 213.701Z" fill="white"/>
</g>
</g>
<defs>
<clipPath id="clip0_93_11">
<rect width="256" height="256" fill="white"/>
</clipPath>
</defs>
</svg>
