<svg width="256" height="256" viewBox="0 0 256 256" fill="none" xmlns="http://www.w3.org/2000/svg">
<g clip-path="url(#clip0_1239_2)">
<rect width="256" height="256" fill="black"/>
<path d="M89.879 171.592L45.3754 176.597L71.5072 116.302L44.7546 79.8302L109.803 72.4194L127.476 31.7764L166.199 84.4086L210.702 79.4034L184.687 139.408L211.245 175.627L146.527 182.999L128.582 224.224L89.879 171.592ZM108.367 167.596C106.66 168.43 104.836 169.128 102.955 169.652L101.247 170.118L126.332 204.223L135.236 183.737L133.626 183.523C124.857 182.417 116.884 177.684 111.743 170.583L109.24 167.13L108.367 167.596ZM99.6372 136.672L119.871 164.666C123.984 170.351 130.638 173.746 137.661 173.746C138.476 173.746 139.291 173.707 140.086 173.61L192.893 167.596L171.863 138.903C170.816 137.487 169.613 136.207 168.274 135.081L167.033 134.053L151.978 168.061L125.788 133.394L99.6372 136.672ZM100.51 102.586C92.6726 103.421 85.8438 108.445 82.701 115.701L61.4968 164.647L96.7272 160.689C98.4732 160.495 100.18 160.088 101.829 159.487L103.343 158.924L81.537 128.815L124.527 123.364L134.751 98.9392L100.51 102.586ZM133.781 127.283L149.709 148.37L159.428 126.429L163.696 116.768C166.897 109.532 165.985 101.093 161.29 94.7294L129.727 51.7778L115.526 84.4086C114.827 86.0188 114.323 87.7066 114.013 89.4526L113.741 91.0434L150.582 87.144L133.781 127.283ZM172.484 93.837L173.105 95.3308C176.519 103.498 176.442 112.81 172.872 120.861L171.146 124.741L171.98 125.304C173.571 126.371 175.064 127.612 176.442 128.99L177.703 130.231L194.561 91.3344L172.484 93.837ZM63.107 87.8618L76.5318 106.175L77.5212 104.895C82.8562 97.9692 90.8684 93.4684 99.4626 92.5566L103.672 92.1104L103.75 91.0822C103.886 88.9676 104.254 86.853 104.817 84.7966L105.302 83.0506L63.107 87.8618Z" fill="url(#paint0_linear_1239_2)"/>
<path d="M118.61 225C90.6744 222.303 65.5708 207.773 49.139 184.745L60.391 183.484C62.2534 185.773 64.2322 187.965 66.2692 190.022C78.4718 202.282 93.7396 210.547 110.482 213.961L118.61 225Z" fill="url(#paint1_linear_1239_2)"/>
<path d="M142.046 214.583C160.165 211.653 176.636 203.175 189.731 190.022C190.895 188.839 192.078 187.578 193.262 186.259L206.9 184.707C190.526 207.715 165.461 222.265 137.525 225L142.046 214.583Z" fill="url(#paint2_linear_1239_2)"/>
<path d="M209.674 159.098C213.399 149.185 215.3 138.728 215.3 128C215.3 118.533 213.806 109.221 210.877 100.336L216.347 87.7256C222.09 100.394 225 113.935 225 128C225 142.046 222.09 155.567 216.367 168.236L209.674 159.098Z" fill="url(#paint3_linear_1239_2)"/>
<path d="M39.6912 168.371C33.9294 155.664 31 142.103 31 127.999C31 113.818 33.9488 100.18 39.7882 87.4341L46.4618 96.5521C42.64 106.562 40.7 117.135 40.7 127.999C40.7 137.505 42.1938 146.837 45.1426 155.761L39.6912 168.371Z" fill="url(#paint4_linear_1239_2)"/>
<path d="M49.5464 70.6924C65.9588 48.0332 90.8684 33.6772 118.552 31L114.032 41.3984C95.893 44.3084 79.3836 52.8056 66.2692 65.9782C65.2798 66.9676 64.2904 68.0346 63.301 69.121L49.5464 70.6924Z" fill="url(#paint5_linear_1239_2)"/>
<path d="M195.628 72.516C193.766 70.2268 191.787 68.0346 189.731 65.9782C177.548 53.7368 162.299 45.4724 145.596 42.058L137.467 31C165.384 33.716 190.449 48.2466 206.861 71.255L195.628 72.516Z" fill="url(#paint6_linear_1239_2)"/>
</g>
<defs>
<linearGradient id="paint0_linear_1239_2" x1="49.6429" y1="206.086" x2="200.959" y2="54.7697" gradientUnits="userSpaceOnUse">
<stop stop-color="#009DDE"/>
<stop offset="0.5" stop-color="#694D9F"/>
<stop offset="1" stop-color="#ED3554"/>
</linearGradient>
<linearGradient id="paint1_linear_1239_2" x1="66.1523" y1="222.595" x2="217.468" y2="71.2787" gradientUnits="userSpaceOnUse">
<stop stop-color="#009DDE"/>
<stop offset="0.5" stop-color="#694D9F"/>
<stop offset="1" stop-color="#ED3554"/>
</linearGradient>
<linearGradient id="paint2_linear_1239_2" x1="109.323" y1="265.766" x2="260.639" y2="114.45" gradientUnits="userSpaceOnUse">
<stop stop-color="#009DDE"/>
<stop offset="0.5" stop-color="#694D9F"/>
<stop offset="1" stop-color="#ED3554"/>
</linearGradient>
<linearGradient id="paint3_linear_1239_2" x1="93.9475" y1="250.39" x2="245.264" y2="99.0741" gradientUnits="userSpaceOnUse">
<stop stop-color="#009DDE"/>
<stop offset="0.5" stop-color="#694D9F"/>
<stop offset="1" stop-color="#ED3554"/>
</linearGradient>
<linearGradient id="paint4_linear_1239_2" x1="5.60005" y1="162.042" x2="156.916" y2="10.726" gradientUnits="userSpaceOnUse">
<stop stop-color="#009DDE"/>
<stop offset="0.5" stop-color="#694D9F"/>
<stop offset="1" stop-color="#ED3554"/>
</linearGradient>
<linearGradient id="paint5_linear_1239_2" x1="-9.74333" y1="146.699" x2="141.573" y2="-4.61686" gradientUnits="userSpaceOnUse">
<stop stop-color="#009DDE"/>
<stop offset="0.5" stop-color="#694D9F"/>
<stop offset="1" stop-color="#ED3554"/>
</linearGradient>
<linearGradient id="paint6_linear_1239_2" x1="33.4244" y1="189.867" x2="184.741" y2="38.551" gradientUnits="userSpaceOnUse">
<stop stop-color="#009DDE"/>
<stop offset="0.5" stop-color="#694D9F"/>
<stop offset="1" stop-color="#ED3554"/>
</linearGradient>
<clipPath id="clip0_1239_2">
<rect width="256" height="256" fill="white"/>
</clipPath>
</defs>
</svg>
