<svg width="256" height="256" viewBox="0 0 256 256" fill="none" xmlns="http://www.w3.org/2000/svg">
<g clip-path="url(#clip0_2615_121)">
<mask id="mask0_2615_121" style="mask-type:luminance" maskUnits="userSpaceOnUse" x="0" y="0" width="256" height="256">
<path d="M256 0H0V256H256V0Z" fill="white"/>
</mask>
<g mask="url(#mask0_2615_121)">
<path d="M256 0H0V256H256V0Z" fill="black"/>
<path d="M92.7391 168.319L51.5742 172.949L75.7456 117.18L51 83.4463L111.168 76.5918L127.515 39L163.333 87.681L204.498 83.0515L180.434 138.551L205 172.051L145.137 178.87L128.539 217L92.7391 168.319ZM109.84 164.623C108.261 165.395 106.574 166.04 104.834 166.525L103.254 166.956L126.457 198.501L134.693 179.552L133.204 179.355C125.093 178.332 117.718 173.954 112.963 167.386L110.648 164.192L109.84 164.623ZM101.765 136.021L120.481 161.913C124.285 167.171 130.44 170.312 136.936 170.312C137.69 170.312 138.444 170.275 139.179 170.186L188.025 164.623L168.573 138.084C167.604 136.775 166.491 135.591 165.253 134.549L164.105 133.598L150.179 165.053L125.954 132.989L101.765 136.021ZM102.573 104.494C95.3231 105.266 89.0066 109.913 86.0996 116.624L66.4862 161.896L99.0735 158.235C100.689 158.055 102.267 157.679 103.793 157.123L105.193 156.602L85.0229 128.754L124.788 123.712L134.245 101.121L102.573 104.494ZM133.347 127.337L148.081 146.841L157.07 126.547L161.018 117.611C163.979 110.918 163.135 103.113 158.793 97.2269L129.598 57.4998L116.462 87.681C115.815 89.1703 115.349 90.7314 115.063 92.3463L114.811 93.8177L148.888 90.211L133.347 127.337ZM169.147 96.4015L169.721 97.7832C172.879 105.337 172.808 113.95 169.506 121.397L167.909 124.985L168.681 125.506C170.152 126.493 171.533 127.641 172.808 128.916L173.974 130.063L189.568 94.0868L169.147 96.4015ZM67.9756 90.8749L80.3932 107.813L81.3084 106.629C86.2432 100.224 93.6543 96.0606 101.604 95.2173L105.497 94.8046L105.569 93.8535C105.695 91.8977 106.036 89.9418 106.556 88.0398L107.005 86.4249L67.9756 90.8749Z" fill="white"/>
<path d="M119 218C93.2644 215.466 70.1378 201.817 55 180.185L65.3659 179C67.0816 181.15 68.9046 183.209 70.7812 185.142C82.0228 196.659 96.0882 204.423 111.512 207.63L119 218Z" fill="white"/>
<path d="M141.171 208.434C157.886 205.744 173.081 197.959 185.161 185.881C186.235 184.794 187.326 183.636 188.419 182.425L201 181C185.895 202.128 162.772 215.489 137 218L141.171 208.434Z" fill="white"/>
<path d="M204 156.601C207.403 147.49 209.139 137.878 209.139 128.018C209.139 119.316 207.775 110.757 205.099 102.591L210.096 91C215.342 102.644 218 115.09 218 128.018C218 140.928 215.342 153.355 210.114 165L204 156.601Z" fill="white"/>
<path d="M45.8695 165C40.6524 153.225 38 140.659 38 127.589C38 114.449 40.67 101.811 45.9573 90L52 98.4492C48.5395 107.725 46.7829 117.522 46.7829 127.589C46.7829 136.398 48.1355 145.046 50.8055 153.315L45.8695 165Z" fill="white"/>
<path d="M55 75C70.2219 53.8778 93.3245 40.4956 119 38L114.808 47.6931C97.9847 50.4057 82.6728 58.3265 70.5097 70.6056C69.5921 71.5279 68.6745 72.5225 67.7569 73.5352L55 75Z" fill="white"/>
<path d="M190.64 77C188.923 74.8495 187.098 72.7902 185.202 70.8584C173.966 59.3589 159.902 51.5953 144.497 48.3878L137 38C162.747 40.5514 185.864 54.2014 201 75.8154L190.64 77Z" fill="white"/>
</g>
</g>
<defs>
<clipPath id="clip0_2615_121">
<rect width="256" height="256" fill="white"/>
</clipPath>
</defs>
</svg>
