<svg width="256" height="256" viewBox="0 0 256 256" fill="none" xmlns="http://www.w3.org/2000/svg">
<g clip-path="url(#clip0_1239_2)">
<rect width="256" height="256" fill="#1E1E1E"/>
<rect width="256" height="256" fill="#0000FF"/>
<path d="M128 256C198.692 256 256 198.692 256 128C256 57.3075 198.692 0 128 0C57.3075 0 0 57.3075 0 128C0 198.692 57.3075 256 128 256Z" fill="#0000FF"/>
<path d="M182.4 161.6H150.4L117.6 117.6V161.6H91.2V68H117.6V109.6L148.8 68H176.8L144.8 112L182.4 161.6Z" fill="white"/>
<path d="M103.2 201.6C111.153 201.6 117.6 195.153 117.6 187.2C117.6 179.247 111.153 172.8 103.2 172.8C95.2469 172.8 88.7998 179.247 88.7998 187.2C88.7998 195.153 95.2469 201.6 103.2 201.6Z" fill="white"/>
</g>
<defs>
<clipPath id="clip0_1239_2">
<rect width="256" height="256" fill="white"/>
</clipPath>
</defs>
</svg>
