<svg width="256" height="256" viewBox="0 0 256 256" fill="none" xmlns="http://www.w3.org/2000/svg">
<g clip-path="url(#clip0_1239_2)">
<circle cx="128" cy="128" r="98" fill="#22242F"/>
<rect width="256" height="256" fill="#22242F"/>
<path d="M128 244C192.065 244 244 192.065 244 128C244 63.935 192.065 12 128 12C63.935 12 12 63.935 12 128C12 192.065 63.935 244 128 244Z" fill="#22242F"/>
<path d="M128 16.6401C189.502 16.6401 239.36 66.4977 239.36 128C239.36 189.503 189.502 239.36 128 239.36C66.4976 239.36 16.64 189.503 16.64 128C16.64 66.4977 66.4976 16.6401 128 16.6401ZM128 24.5008C70.8389 24.5008 24.5007 70.8391 24.5007 128C24.5007 185.161 70.8389 231.499 128 231.499C185.161 231.499 231.499 185.161 231.499 128C231.499 70.8391 185.161 24.5008 128 24.5008Z" fill="#E53935"/>
<path d="M198.182 84.1138V73.998H166.139C164.419 67.4616 162.7 61.7034 160.824 56.4121L150.039 58.2796C151.915 62.9485 153.79 68.2398 155.51 73.998H121.591V84.1138H198.182ZM116.12 159.282V94.6964H100.334C103.616 89.872 106.898 83.9581 110.181 76.7993V69.3292H84.3902C85.797 66.2166 87.0474 63.1041 88.2979 59.8359L78.2942 56.7234C73.605 71.9748 66.2586 84.2694 56.4113 93.7627L58.7559 104.812C60.7878 102.945 62.8198 101.077 64.6955 99.054V159.282H116.12ZM89.5483 94.6964H68.6032C72.6672 89.7164 76.5748 84.1138 80.0136 78.1999H99.7083C96.2695 84.425 92.9871 90.0276 89.5483 94.6964ZM153.947 199.589C161.762 199.589 165.826 195.232 165.826 186.672V142.318H190.679V98.1202H129.876V142.318H154.885V184.027C154.885 187.917 153.322 189.94 150.195 189.94C146.6 189.94 142.849 189.629 139.098 189.162L141.286 199.589H153.947ZM85.9533 122.398H74.3866V103.878H85.9533V122.398ZM106.429 122.398H95.0191V103.878H106.429V122.398ZM180.05 132.514H140.504V108.08H180.05V132.514ZM106.429 149.944H95.0191V131.424H106.429V149.944ZM85.9533 149.944H74.3866V131.424H85.9533V149.944ZM191.304 192.43L199.588 186.672C195.368 176.712 189.428 165.196 181.613 151.967L173.329 156.947C180.832 169.864 186.928 181.692 191.304 192.43ZM125.812 195.076C132.689 184.338 138.629 171.576 143.631 156.947L134.565 152.59C129.719 166.596 123.936 178.735 117.371 189.007L125.812 195.076ZM112.838 184.493L120.497 182.626C118.309 175.156 116.12 168.619 113.62 163.017L106.273 165.196C108.774 171.421 110.962 177.801 112.838 184.493ZM96.2695 193.52L104.397 192.586C103.46 180.758 101.74 171.421 99.2394 164.573L91.424 165.507C93.9249 172.043 95.488 181.381 96.2695 193.52ZM66.4149 197.722C69.6973 188.54 71.7293 178.113 72.6672 166.285L64.2266 165.196C63.4451 176.401 61.2568 186.361 57.818 195.076L66.4149 197.722ZM79.5447 195.854L87.6726 194.92C87.36 182.626 86.5785 172.821 85.4843 165.662L77.9816 166.596C78.7631 173.444 79.2321 183.248 79.5447 195.854Z" fill="#E53935"/>
</g>
<defs>
<clipPath id="clip0_1239_2">
<rect width="256" height="256" fill="white"/>
</clipPath>
</defs>
</svg>
