<svg width="256" height="256" viewBox="0 0 256 256" fill="none" xmlns="http://www.w3.org/2000/svg"><style type="text/css">
	.st0{fill:#22242F;}
	.st1{fill:#E53935;}
	.st2{fill-rule:evenodd;clip-rule:evenodd;fill:#E53935;}
</style>
<rect x="0" y="0" class="st0" width="256" height="256"/>
<path id="Oval-Copy-3" class="st1" d="M128,16.8c61.4,0,111.2,49.8,111.2,111.2S189.4,239.2,128,239.2S16.8,189.4,16.8,128  S66.6,16.8,128,16.8z M128,27.9C72.7,27.9,27.9,72.7,27.9,128S72.7,228.1,128,228.1S228.1,183.3,228.1,128S183.3,27.9,128,27.9z"/>
<g id="Group-Copy" transform="translate(14.9895, 18)">
	<rect id="Rectangle" x="49.1" y="78.8" class="st2" width="61.5" height="11.2"/>
	<rect id="Rectangle-Copy-5" x="121.8" y="78.8" class="st2" width="55.9" height="11.2"/>
	<rect id="Rectangle-Copy-9" x="121.8" y="59.2" class="st2" width="55.9" height="11.2"/>
	<rect id="Rectangle-Copy-11" x="60.2" y="59.2" class="st2" width="36.3" height="11.2"/>
	<polygon id="Rectangle-Copy-10" class="st2" points="140,41.6 157.8,59.4 149.9,67.3 132.1,49.5  "/>
	<polygon id="Rectangle-Copy-14" class="st2" points="96.6,70.4 83.8,88.7 74.6,82.3 87.4,63.9  "/>
	<polygon id="Rectangle-Copy-13" class="st2" points="78,45.3 44.3,93.4 35.2,87 68.8,38.8  "/>
	<polygon id="Rectangle-Copy-15" class="st2" points="136.9,139.5 126.3,162.3 116.2,157.6 126.8,134.7  "/>
	<polygon id="Rectangle-Copy-16" class="st2" points="160.9,139.5 176.3,172.4 186.4,167.7 171,134.7  "/>
	<rect id="Rectangle-Copy-6" x="121.8" y="115.2" class="st2" width="55.9" height="11.2"/>
	<rect id="Rectangle-Copy-17" x="130.1" y="165.5" class="st2" width="25.2" height="11.2"/>
	<rect id="Rectangle-Copy" x="51.9" y="126.3" class="st2" width="55.9" height="11.2"/>
	<rect id="Rectangle-Copy-4" x="54.7" y="104" class="st2" width="50.3" height="8.4"/>
	
		<rect id="Rectangle_00000069393399155872414020000013222780787418105987_" x="49.1" y="87.2" class="st2" width="11.2" height="50.4"/>
	<rect id="Rectangle-Copy-2" x="74.2" y="87.2" class="st2" width="11.2" height="50.4"/>
	<rect id="Rectangle-Copy-7" x="121.8" y="87.2" class="st2" width="11.2" height="30.8"/>
	<rect id="Rectangle-Copy-12" x="144.1" y="120.7" class="st2" width="11.2" height="56"/>
	<rect id="Rectangle-Copy-18" x="49.1" y="145.9" class="st2" width="11.2" height="25.2"/>
	<rect id="Rectangle-Copy-19" x="65.8" y="145.9" class="st2" width="11.2" height="25.2"/>
	<rect id="Rectangle-Copy-20" x="82.6" y="145.9" class="st2" width="11.2" height="25.2"/>
	<rect id="Rectangle-Copy-21" x="99.4" y="145.9" class="st2" width="11.2" height="11.2"/>
	<rect id="Rectangle-Copy-8" x="166.5" y="87.2" class="st2" width="11.2" height="30.8"/>
	<rect id="Rectangle-Copy-3" x="99.4" y="87.2" class="st2" width="11.2" height="50.4"/>
</g>
</svg>
