<svg width="256" height="256" viewBox="0 0 256 256" fill="none" xmlns="http://www.w3.org/2000/svg">
<g clip-path="url(#clip0_1239_2)">
<rect width="256" height="256" fill="#1E1E1E"/>
<rect width="256" height="256" fill="#28646E"/>
<path d="M128 234C186.542 234 234 186.542 234 128C234 69.4578 186.542 22 128 22C69.4578 22 22 69.4578 22 128C22 186.542 69.4578 234 128 234Z" fill="url(#paint0_linear_1239_2)"/>
<path d="M128 227C73.4369 227 29 182.563 29 128C29 73.4369 73.4369 29 128 29C182.563 29 227 73.4369 227 128C227 182.563 182.563 227 128 227ZM128 37.4026C78.0691 37.4026 37.4026 78.0152 37.4026 128C37.4026 177.985 78.0691 218.597 128 218.597C177.931 218.597 218.597 177.931 218.597 128C218.597 78.0691 177.931 37.4026 128 37.4026Z" fill="#28646E"/>
<path d="M121.849 110C120.26 110 119 108.738 119 107.146C119 106.323 119.329 105.555 119.986 105.006C128.096 97.8716 131.657 91.9995 132.315 90.8471C134.671 86.6762 138.506 84.5359 142.506 85.0847C144.095 85.3042 145.191 86.7311 144.972 88.3226C144.753 89.9141 143.328 91.0117 141.739 90.7922C139.383 90.4629 137.849 92.713 137.246 93.7008C136.534 94.963 132.534 101.549 123.767 109.287C123.219 109.78 122.507 110 121.849 110Z" fill="#28646E"/>
<path d="M73.9247 158C72.2936 158 71 156.675 71 155.004C71 154.14 71.3937 153.276 72.0686 152.7C75.4995 149.935 79.0991 147.458 82.8674 145.269C84.3297 144.578 86.0733 145.269 86.7482 146.767C87.3669 148.207 86.8044 149.878 85.5108 150.626C82.1362 152.585 78.8741 154.832 75.8369 157.251C75.2745 157.77 74.5996 158 73.9247 158Z" fill="#28646E"/>
<path d="M145.104 130.873C146.246 131.913 147.551 131.475 148.747 130.326C156.955 122.445 165.707 110.022 168.588 103.565C169.186 102.196 170.491 101.43 171.796 101.977C173.372 102.634 173.372 105.371 171.904 108.326C168.099 116.207 162.826 124.908 152.389 135.744C151.519 136.565 151.465 137.933 152.28 138.863C152.334 138.918 152.389 138.973 152.443 139.028C153.367 139.849 154.835 139.794 156.248 138.371C161.685 132.844 165.272 128.52 168.425 124.087C169.241 122.938 170.165 122.445 171.143 122.664C172.502 122.938 172.72 124.251 172.285 125.838C171.633 128.411 164.403 137.878 161.576 141.107C153.857 149.754 146.137 154.515 131.297 162.287C126.133 165.023 122.219 167.595 119.881 171.59C117.761 175.202 117.109 176.406 116.891 176.844C116.021 178.595 116.728 180.784 118.468 181.66C120.207 182.481 122.273 181.769 123.143 180.018C123.197 179.963 123.197 179.909 123.197 179.854C123.197 179.799 123.088 179.909 125.861 175.148C127.981 171.754 131.025 169.073 134.613 167.376C149.453 160.535 155.542 155.172 164.185 146.471C168.099 142.53 173.535 133.993 175.057 131.53C179.189 124.47 177.014 118.45 173.263 117.411C172.992 117.356 172.829 117.082 172.937 116.809C172.937 116.754 172.992 116.699 172.992 116.699C175.873 111.719 177.232 108.216 177.775 105.535C178.536 101.868 177.504 97.4899 172.502 96.3953C172.231 96.3406 172.068 96.067 172.176 95.7933C172.502 94.6441 172.774 93.1664 172.992 92.2361C174.024 87.5295 171.089 83.2061 167.501 82.4399C165.164 81.8927 162.717 82.4399 160.815 83.8628C160.543 84.027 160.162 84.027 159.945 83.7534C159.021 82.7136 157.662 82.0568 156.248 82.0021C153.15 81.9474 150.051 82.9325 147.823 87.7484C146.192 91.1963 143.854 95.7933 136.842 103.619C130.373 110.843 121.349 117.903 115.75 121.624C114.771 122.281 113.412 122.117 113.575 120.804C113.847 118.724 116.076 104.604 116.456 100.445C117.054 93.7137 113.466 90.5943 109.444 90.047C106.128 89.6092 101.072 90.5395 98.2997 98.2013C96.6689 102.689 93.2985 110.022 90.4174 121.843C88.4061 130.162 88.0799 139.849 89.9282 151.013C90.0369 151.67 89.9282 152.381 89.5476 152.983C87.3188 156.65 84.1115 161.466 82.3176 165.625C81.5566 167.322 82.2089 169.292 83.7854 170.222C85.4706 171.152 87.5906 170.55 88.5148 168.799C88.5691 168.744 88.5691 168.69 88.6235 168.635C89.7107 166.336 91.8852 162.068 92.7549 160.316C94.277 157.252 95.2555 155.172 95.6361 153.913C96.0166 152.764 96.234 151.396 95.5817 148.277C94.4401 143.077 94.0596 133.336 96.1797 124.744C98.4628 115.823 101.29 107.067 104.551 98.4749C105.421 96.3406 106.617 95.7386 107.813 95.7933C109.009 95.8481 111.292 96.5048 110.64 100.773C109.444 108.49 107.813 118.286 107.269 121.57C106.997 123.212 106.671 126.988 109.661 128.684C111.944 130.052 114.499 129.286 117.326 127.371C123.632 123.102 134.558 114.455 141.408 106.739C148.584 98.5844 150.867 93.7684 152.715 89.3903C153.53 87.4201 155.705 87.4201 156.466 87.639C157.227 87.8579 158.151 88.8977 157.499 91.0868C155.922 96.45 149.345 108.654 136.679 120.147C135.265 121.46 135.428 122.993 136.189 123.814C136.95 124.634 138.201 125.127 139.668 123.814C151.03 114.072 157.499 102.415 160.434 96.1764C161.413 94.0968 162.228 91.9624 162.935 89.7734C163.533 87.9674 164.946 87.3106 165.925 87.5295C167.284 87.8032 168.208 89.2261 167.773 91.5793C167.066 94.5893 166.033 97.4899 164.674 100.281C161.032 108.052 153.313 118.45 145.05 127.426C144.072 128.301 144.017 129.779 144.833 130.764C144.996 130.764 145.05 130.819 145.104 130.873Z" fill="#28646E"/>
<path d="M93.7188 92.7507C94.1473 92.373 93.9866 91.8872 93.8795 91.4555C93.2904 89.5127 89.8627 81.4175 88.9522 79.7985C88.4702 78.989 87.9346 78.8811 87.292 79.0969C86.4886 79.4207 85.471 80.1763 83.9714 81.5255C82.4718 82.8747 81.5613 83.7921 81.1864 84.5477C80.8651 85.1413 80.9187 85.7349 81.6685 86.2746C83.1681 87.4079 90.6661 91.8873 92.5406 92.7507C92.8084 92.9666 93.2904 93.1825 93.7188 92.7507Z" fill="#28646E"/>
<path d="M157.06 164.004C156.459 164.058 156.295 164.543 156.186 164.921C155.476 166.809 153.292 175.384 153.019 177.218C152.909 178.135 153.292 178.566 153.892 178.782C154.711 179.051 156.022 179.051 158.097 178.89C160.172 178.728 161.428 178.566 162.247 178.188C162.848 177.919 163.176 177.433 162.903 176.517C162.357 174.737 159.025 166.539 158.097 164.759C157.879 164.436 157.66 163.95 157.06 164.004Z" fill="#28646E"/>
<path d="M161.102 160.457C160.831 160.987 161.156 161.359 161.428 161.678C162.731 163.217 168.92 169.427 170.331 170.595C171.037 171.179 171.634 171.073 172.123 170.648C172.774 170.064 173.426 169.003 174.403 167.251C175.38 165.499 175.869 164.332 175.977 163.482C176.086 162.845 175.815 162.314 174.892 162.049C173.1 161.571 164.305 160.138 162.296 160.032C161.916 159.979 161.374 159.926 161.102 160.457Z" fill="#28646E"/>
<path d="M90.9833 98.5822C90.8764 97.9789 90.3954 97.8692 89.9679 97.8143C87.9904 97.3206 79.3857 96.059 77.5152 96.0042C76.6066 95.9493 76.179 96.443 76.0722 97.1012C75.9118 97.9789 76.0187 99.2405 76.3928 101.27C76.7669 103.3 77.0342 104.561 77.5152 105.329C77.8358 105.932 78.3703 106.207 79.2254 105.823C80.9356 105.11 88.6317 100.886 90.2885 99.7341C90.6627 99.4599 91.0902 99.1856 90.9833 98.5822Z" fill="#28646E"/>
<path d="M128 212C129.657 212 131 210.433 131 208.5C131 206.567 129.657 205 128 205C126.343 205 125 206.567 125 208.5C125 210.433 126.343 212 128 212Z" fill="#28646E"/>
<path d="M128 51C129.657 51 131 49.433 131 47.5C131 45.567 129.657 44 128 44C126.343 44 125 45.567 125 47.5C125 49.433 126.343 51 128 51Z" fill="#28646E"/>
<path d="M148.5 208C150.433 208 152 206.881 152 205.5C152 204.119 150.433 203 148.5 203C146.567 203 145 204.119 145 205.5C145 206.881 146.567 208 148.5 208Z" fill="#28646E"/>
<path d="M107.5 53C109.433 53 111 51.8807 111 50.5C111 49.1193 109.433 48 107.5 48C105.567 48 104 49.1193 104 50.5C104 51.8807 105.567 53 107.5 53Z" fill="#28646E"/>
<path d="M168 201C169.657 201 171 199.433 171 197.5C171 195.567 169.657 194 168 194C166.343 194 165 195.567 165 197.5C165 199.433 166.343 201 168 201Z" fill="#28646E"/>
<path d="M91.0493 59.1026C91.3268 57.3926 90.1655 55.7813 88.4555 55.5038C86.7455 55.2263 85.1343 56.3876 84.8568 58.0976C84.5792 59.8076 85.7405 61.4188 87.4505 61.6964C89.1605 61.9739 90.7718 60.8126 91.0493 59.1026Z" fill="#28646E"/>
<path d="M185 188C186.657 188 188 186.657 188 185C188 183.343 186.657 182 185 182C183.343 182 182 183.343 182 185C182 186.657 183.343 188 185 188Z" fill="#28646E"/>
<path d="M71 74C72.6569 74 74 72.6569 74 71C74 69.3431 72.6569 68 71 68C69.3431 68 68 69.3431 68 71C68 72.6569 69.3431 74 71 74Z" fill="#28646E"/>
<path d="M197.5 171C199.433 171 201 169.657 201 168C201 166.343 199.433 165 197.5 165C195.567 165 194 166.343 194 168C194 169.657 195.567 171 197.5 171Z" fill="#28646E"/>
<path d="M58.5 91C60.433 91 62 89.6569 62 88C62 86.3431 60.433 85 58.5 85C56.567 85 55 86.3431 55 88C55 89.6569 56.567 91 58.5 91Z" fill="#28646E"/>
<path d="M205.5 152C206.881 152 208 150.433 208 148.5C208 146.567 206.881 145 205.5 145C204.119 145 203 146.567 203 148.5C203 150.433 204.119 152 205.5 152Z" fill="#28646E"/>
<path d="M50.5 111C51.8807 111 53 109.433 53 107.5C53 105.567 51.8807 104 50.5 104C49.1193 104 48 105.567 48 107.5C48 109.433 49.1193 111 50.5 111Z" fill="#28646E"/>
<path d="M208.5 131C210.433 131 212 129.657 212 128C212 126.343 210.433 125 208.5 125C206.567 125 205 126.343 205 128C205 129.657 206.567 131 208.5 131Z" fill="#28646E"/>
<path d="M47.5 131C49.433 131 51 129.657 51 128C51 126.343 49.433 125 47.5 125C45.567 125 44 126.343 44 128C44 129.657 45.567 131 47.5 131Z" fill="#28646E"/>
<path d="M205.5 111C206.881 111 208 109.433 208 107.5C208 105.567 206.881 104 205.5 104C204.119 104 203 105.567 203 107.5C203 109.433 204.119 111 205.5 111Z" fill="#28646E"/>
<path d="M50.5 152C51.8807 152 53 150.433 53 148.5C53 146.567 51.8807 145 50.5 145C49.1193 145 48 146.567 48 148.5C48 150.433 49.1193 152 50.5 152Z" fill="#28646E"/>
<path d="M197.5 91C199.433 91 201 89.6569 201 88C201 86.3431 199.433 85 197.5 85C195.567 85 194 86.3431 194 88C194 89.6569 195.567 91 197.5 91Z" fill="#28646E"/>
<path d="M58.5 171C60.433 171 62 169.657 62 168C62 166.343 60.433 165 58.5 165C56.567 165 55 166.343 55 168C55 169.657 56.567 171 58.5 171Z" fill="#28646E"/>
<path d="M185 74C186.657 74 188 72.6569 188 71C188 69.3431 186.657 68 185 68C183.343 68 182 69.3431 182 71C182 72.6569 183.343 74 185 74Z" fill="#28646E"/>
<path d="M71 188C72.6569 188 74 186.657 74 185C74 183.343 72.6569 182 71 182C69.3431 182 68 183.343 68 185C68 186.657 69.3431 188 71 188Z" fill="#28646E"/>
<path d="M168 62C169.657 62 171 60.433 171 58.5C171 56.567 169.657 55 168 55C166.343 55 165 56.567 165 58.5C165 60.433 166.343 62 168 62Z" fill="#28646E"/>
<path d="M88 201C89.6569 201 91 199.433 91 197.5C91 195.567 89.6569 194 88 194C86.3431 194 85 195.567 85 197.5C85 199.433 86.3431 201 88 201Z" fill="#28646E"/>
<path d="M148.5 53C150.433 53 152 51.8807 152 50.5C152 49.1193 150.433 48 148.5 48C146.567 48 145 49.1193 145 50.5C145 51.8807 146.567 53 148.5 53Z" fill="#28646E"/>
<path d="M107.5 208C109.433 208 111 206.881 111 205.5C111 204.119 109.433 203 107.5 203C105.567 203 104 204.119 104 205.5C104 206.881 105.567 208 107.5 208Z" fill="#28646E"/>
</g>
<defs>
<linearGradient id="paint0_linear_1239_2" x1="22" y1="128" x2="234" y2="128" gradientUnits="userSpaceOnUse">
<stop stop-color="#D2F0F0"/>
<stop offset="1" stop-color="#F0E6B4"/>
</linearGradient>
<clipPath id="clip0_1239_2">
<rect width="256" height="256" fill="white"/>
</clipPath>
</defs>
</svg>
