<svg width="256" height="256" viewBox="0 0 256 256" fill="none" xmlns="http://www.w3.org/2000/svg">
<g clip-path="url(#clip0_1239_2)">
<circle cx="128" cy="128" r="98" fill="black"/>
<rect width="256" height="256" fill="black"/>
<g clip-path="url(#clip1_1239_2)">
<path fill-rule="evenodd" clip-rule="evenodd" d="M165.039 66.9528C163.4 67.1915 162.521 67.4629 161.825 67.9448C161.299 68.3096 160.771 68.6078 160.653 68.6078C159.625 68.6078 154.704 73.1282 153.757 74.9426C151.014 80.195 151.04 80.1016 151.04 84.5093C151.04 88.197 151.086 88.5848 151.637 89.6254C151.966 90.245 152.313 91.0654 152.408 91.4494C152.504 91.8328 152.869 92.5688 153.219 93.0846C153.569 93.6011 153.856 94.147 153.856 94.2987C153.856 94.8216 158.373 99.3278 158.897 99.3278C159.082 99.3278 159.444 99.5294 159.703 99.7758C162.296 102.24 172.947 103.327 175.621 101.401C175.976 101.145 176.523 100.854 176.837 100.754C177.429 100.567 179.999 98.9112 180.224 98.5726C180.294 98.467 180.593 98.2539 180.887 98.099C181.181 97.9448 181.93 97.1499 182.551 96.3326C183.172 95.516 183.765 94.8101 183.869 94.7634C183.973 94.7173 184.291 94.1528 184.575 93.5102C184.86 92.867 185.249 92.2142 185.442 92.0587C185.776 91.788 186.014 90.7909 186.764 86.5278C187.052 84.8894 187.045 84.2885 186.716 82.4318C186.504 81.235 186.217 79.5646 186.077 78.7198C185.939 77.875 185.612 76.9534 185.353 76.6718C185.093 76.3902 184.703 75.7278 184.486 75.1998C184.268 74.6718 183.972 74.2398 183.828 74.2398C183.683 74.2398 183.398 73.923 183.193 73.5358C182.436 72.1042 178.23 68.6277 177.236 68.6123C177.071 68.6098 176.591 68.3186 176.171 67.9646C174.76 66.7781 169.517 66.3013 165.039 66.9528ZM78.7629 85.4187C78.5498 85.6318 78.5345 179.008 78.7476 179.563C78.8884 179.93 83.0945 179.968 123.785 179.968H168.667L168.826 178.624C168.914 177.885 168.951 173.997 168.909 169.984L168.832 162.688L134.016 162.56C106.311 162.458 99.0823 162.365 98.6241 162.103L98.0481 161.774V123.818C98.0481 94.6379 97.977 85.7912 97.7409 85.555C97.4068 85.221 79.0919 85.0891 78.7629 85.4187Z" fill="#F9F9F9"/>
<path fill-rule="evenodd" clip-rule="evenodd" d="M164.751 64.9573C164.179 65.0162 163.423 65.3298 163.004 65.6824C162.584 66.0351 161.936 66.3039 161.504 66.3039C161.029 66.3039 160.529 66.5356 160.171 66.9221C159.855 67.262 159.161 67.6223 158.627 67.7221C157.965 67.8463 157.569 68.094 157.385 68.4991C157.236 68.8261 156.87 69.1282 156.573 69.1704C156.246 69.2172 156.001 69.4661 155.953 69.7996C155.906 70.1349 155.63 70.4133 155.253 70.5074C154.883 70.6008 154.57 70.9119 154.477 71.2773C154.387 71.6421 154.072 71.9544 153.706 72.0466C153.366 72.1317 153.088 72.373 153.088 72.5823C153.088 72.7922 152.801 73.2127 152.451 73.5173C152.006 73.9039 151.764 74.4434 151.65 75.3074C151.547 76.0863 151.359 76.5439 151.144 76.5439C150.668 76.5439 150.369 77.2204 150.176 78.734C150.086 79.4456 149.782 80.478 149.502 81.0284C148.644 82.7096 148.867 88.5759 149.788 88.5759C149.9 88.5759 150.071 89.2895 150.17 90.1624C150.299 91.3029 150.511 91.9103 150.926 92.325C151.243 92.6424 151.581 93.3682 151.677 93.9378C151.786 94.5816 152.086 95.1577 152.47 95.4597C152.81 95.7273 153.088 96.133 153.088 96.3621C153.088 96.5912 153.363 96.9042 153.7 97.0578C154.036 97.2108 154.433 97.6018 154.58 97.9256C154.728 98.2501 155.074 98.5868 155.348 98.6744C155.624 98.7615 155.908 99.0578 155.98 99.333C156.052 99.6082 156.381 99.9397 156.711 100.07C157.042 100.199 157.507 100.539 157.745 100.826C157.983 101.113 158.584 101.423 159.08 101.516C159.643 101.622 160.04 101.868 160.136 102.17C160.289 102.651 160.516 102.739 162.368 103.037C162.896 103.122 163.328 103.287 163.328 103.405C163.328 104.564 173.325 104.698 174.588 103.556C174.861 103.308 175.637 103.003 176.311 102.877C176.985 102.752 177.709 102.433 177.92 102.17C178.131 101.906 178.712 101.561 179.21 101.403C179.709 101.245 180.713 100.546 181.443 99.8508C182.172 99.1551 183.002 98.4613 183.288 98.3084C183.574 98.1548 183.808 97.9071 183.808 97.7573C183.808 97.6076 184.154 97.1628 184.576 96.7679C185.003 96.3692 185.346 95.7836 185.348 95.4495C185.352 94.7295 185.583 94.3519 186.143 94.1458C186.371 94.062 186.639 93.6671 186.738 93.2684C186.837 92.8703 187.143 92.3026 187.418 92.0082C188.77 90.5592 188.818 78.9349 187.48 77.116C187.196 76.7308 186.883 76.0869 186.783 75.685C186.682 75.2831 186.397 74.9004 186.149 74.8357C185.869 74.7628 185.579 74.2757 185.387 73.557C185.193 72.8332 184.905 72.3519 184.62 72.2776C184.369 72.2117 184.036 71.82 183.88 71.4072C183.702 70.9343 183.414 70.6559 183.103 70.6559C182.831 70.6559 182.484 70.38 182.329 70.0383C182.174 69.6984 181.81 69.3452 181.519 69.253C181.229 69.1608 180.992 68.9247 180.992 68.7276C180.992 68.2808 180.367 67.9378 179.132 67.7061C178.587 67.6037 178.176 67.3778 178.176 67.1807C178.176 66.702 177.348 66.3039 176.353 66.3039C175.857 66.3039 175.287 66.0844 174.942 65.7599C174.005 64.8799 169.201 64.5016 164.751 64.9573ZM173.734 65.8277C173.995 66.0594 174.694 66.3282 175.29 66.4255C175.884 66.5228 176.863 66.9362 177.466 67.3445C178.067 67.7528 178.735 68.0888 178.95 68.0914C179.164 68.094 180.02 68.7295 180.852 69.5039C181.684 70.2783 182.453 70.9119 182.56 70.9119C182.828 70.9119 185.344 74.2808 185.344 74.6392C185.344 74.7986 185.57 75.1333 185.846 75.3829C186.123 75.6332 186.48 76.2559 186.64 76.7666C186.8 77.278 187.177 78.2143 187.478 78.8479C188.889 81.8213 187.997 90.8741 186.077 93.0591C185.828 93.3426 185.443 94.0082 185.222 94.5375C184.775 95.6069 184.593 95.8444 182.847 97.621C180.84 99.6639 180.358 100.096 180.091 100.096C179.95 100.096 179.698 100.316 179.53 100.585C179.362 100.854 178.879 101.15 178.456 101.243C178.034 101.336 177.392 101.645 177.03 101.929C175.156 103.403 167.36 104.329 165.066 103.352C164.543 103.128 163.599 102.868 162.967 102.774C162.335 102.679 161.444 102.326 160.988 101.989C160.531 101.652 160.006 101.376 159.822 101.376C159.638 101.376 159.264 101.152 158.989 100.877C158.716 100.603 158.161 100.209 157.757 99.9999C156.728 99.4674 153.456 96.1196 153.081 95.2159C152.91 94.8024 152.678 94.4639 152.566 94.4639C152.453 94.4639 152.162 93.8591 151.919 93.1199C151.676 92.3807 151.269 91.5084 151.015 91.182C150.762 90.8549 150.479 90.0485 150.388 89.39C150.297 88.7308 150.056 87.3573 149.853 86.3372C149.575 84.9407 149.55 84.2348 149.753 83.4821C149.901 82.9324 150.136 81.5781 150.276 80.4728C150.428 79.2684 150.718 78.2079 151.001 77.8239C151.26 77.4719 151.635 76.7231 151.832 76.1599C152.586 74.0152 154.111 72.0485 156.889 69.6408C158.368 68.3596 159.167 67.8623 159.768 67.8488C159.993 67.8437 160.385 67.6088 160.641 67.3266C160.897 67.0444 161.576 66.6949 162.153 66.5503C162.729 66.405 163.488 66.1503 163.84 65.9839C165.153 65.3637 165.591 65.3144 169.382 65.3605C172.568 65.3996 173.345 65.4828 173.734 65.8277ZM77.8752 83.7631C77.6384 83.9999 77.568 95.1743 77.568 132.502V180.933L78.199 181.346C79.2704 182.049 168.299 181.961 169.216 181.257L169.856 180.766L169.935 171.846C169.985 166.134 169.919 162.677 169.749 162.232L169.485 161.536H134.79H100.096V123.409C100.096 85.3656 100.07 84.1804 99.248 83.6569C98.7059 83.3125 78.224 83.4143 77.8752 83.7631ZM98.2886 84.0882C99.6243 84.7788 99.584 83.5455 99.584 123.787C99.584 157.923 99.6224 161.496 99.9891 161.636C100.212 161.722 115.875 161.792 134.796 161.792C168.964 161.792 169.2 161.795 169.473 162.305C169.911 163.125 169.704 180.02 169.249 180.569C168.654 181.284 78.4723 181.213 78.089 180.497C77.6006 179.585 77.7318 84.981 78.2227 84.2808L78.6208 83.7119H88.0915C95.9213 83.7119 97.6877 83.7772 98.2886 84.0882Z" fill="#242424"/>
<path fill-rule="evenodd" clip-rule="evenodd" d="M164.864 66.4164C159.166 67.7822 155.128 71.0968 152.283 76.7435L150.656 79.9748V84.467C150.656 88.7012 150.691 89.0257 151.264 90.1118C151.598 90.7454 152.023 91.69 152.208 92.2116C153.649 96.2692 159.531 101.417 163.84 102.392C167.748 103.277 174.625 102.801 176.52 101.515C177.048 101.157 177.62 100.864 177.793 100.864C178.07 100.864 179.442 99.9115 180.462 99.011C180.663 98.8331 181.084 98.5137 181.398 98.3019C182.146 97.795 184.832 94.5118 184.832 94.1041C184.832 93.93 185.174 93.3342 185.593 92.7812C186.011 92.2283 186.358 91.603 186.364 91.3918C186.37 91.1806 186.607 90.2654 186.891 89.3579C188.018 85.7643 187.271 78.5803 185.489 75.8756C182.982 72.0689 180.65 69.7259 178.089 68.4433C177.363 68.0792 176.587 67.6228 176.367 67.4296C174.85 66.0984 168.518 65.5409 164.864 66.4164ZM172.76 66.9457C174.874 67.2459 175.561 67.4513 176.171 67.9646C176.591 68.3185 177.071 68.6097 177.236 68.6123C178.23 68.6276 182.436 72.1041 183.193 73.5358C183.398 73.923 183.683 74.2398 183.828 74.2398C183.972 74.2398 184.268 74.6718 184.486 75.1998C184.703 75.7278 185.093 76.3902 185.353 76.6718C185.612 76.9534 185.939 77.875 186.077 78.7198C186.217 79.5646 186.504 81.235 186.716 82.4318C187.044 84.2884 187.051 84.8894 186.763 86.5278C186.014 90.7908 185.776 91.788 185.442 92.0587C185.249 92.2142 184.859 92.867 184.575 93.5102C184.291 94.1528 183.973 94.7172 183.869 94.7633C183.765 94.81 183.172 95.516 182.551 96.3326C181.93 97.1499 181.181 97.9448 180.887 98.099C180.593 98.2539 180.294 98.467 180.224 98.5726C179.999 98.9112 177.428 100.567 176.836 100.754C176.523 100.854 175.976 101.145 175.621 101.401C172.947 103.327 162.296 102.24 159.703 99.7758C159.444 99.5294 159.082 99.3278 158.897 99.3278C158.373 99.3278 153.856 94.8216 153.856 94.2987C153.856 94.147 153.569 93.6011 153.219 93.0846C152.869 92.5688 152.504 91.8328 152.408 91.4494C152.313 91.0654 151.966 90.2449 151.637 89.6254C151.085 88.5848 151.04 88.1969 151.04 84.5093C151.04 80.1016 151.014 80.195 153.757 74.9425C154.704 73.1281 159.625 68.6078 160.653 68.6078C160.771 68.6078 161.299 68.3096 161.825 67.9448C163.563 66.7403 168.282 66.3089 172.76 66.9457ZM78.4473 85.3758C78.0211 86.3966 78.0012 179.161 78.4275 180.032C78.7884 180.77 168.556 180.723 168.951 179.984C169.35 179.239 169.31 162.756 168.909 162.355C168.673 162.119 160.624 162.048 134.237 162.048C112.529 162.048 99.6313 161.956 99.2166 161.798L98.56 161.549V123.574C98.56 85.7125 98.5587 85.5985 98.0377 85.0398C97.5193 84.4836 97.4547 84.4798 88.1689 84.4798H78.8217L78.4473 85.3758ZM97.7408 85.555C97.9769 85.7912 98.048 94.6379 98.048 123.818V161.774L98.624 162.103C99.0822 162.365 106.311 162.458 134.016 162.56L168.832 162.688L168.909 169.984C168.951 173.997 168.914 177.885 168.826 178.624L168.667 179.968H123.785C83.0944 179.968 78.8883 179.93 78.7475 179.563C78.5344 179.008 78.5497 85.6318 78.7628 85.4187C79.0918 85.0891 97.4067 85.2209 97.7408 85.555Z" fill="#8C8C8C"/>
<path fill-rule="evenodd" clip-rule="evenodd" d="M187.452 83.7119C187.452 84.2047 187.504 84.4062 187.569 84.1598C187.633 83.9134 187.633 83.5103 187.569 83.2639C187.504 83.0175 187.452 83.2191 187.452 83.7119ZM187.457 85.6319C187.459 86.1951 187.512 86.3954 187.573 86.0766C187.635 85.7586 187.632 85.2978 187.568 85.0527C187.504 84.8082 187.453 85.0687 187.457 85.6319ZM98.6214 123.696C98.5875 144.491 98.6464 161.559 98.752 161.624C98.9254 161.732 98.9248 135.884 98.7494 99.5839C98.7129 92.0511 98.6553 102.902 98.6214 123.696Z" fill="#848484"/>
<path fill-rule="evenodd" clip-rule="evenodd" d="M0 128V256H128H256V128V0H128H0V128ZM175.193 65.584C175.617 66.1133 176.01 66.2899 176.896 66.352C177.802 66.4147 178.102 66.5549 178.301 67.008C178.452 67.3542 178.778 67.584 179.116 67.584C180.04 67.584 181.033 68.0691 181.169 68.5875C181.238 68.8544 181.524 69.1322 181.803 69.2051C182.082 69.2781 182.371 69.5699 182.445 69.8528C182.518 70.1363 182.913 70.4845 183.322 70.6266C183.773 70.784 184.064 71.0675 184.064 71.3498C184.064 71.6058 184.323 71.9283 184.64 72.0672C185.031 72.2387 185.304 72.6822 185.488 73.4483C185.676 74.2278 185.933 74.6413 186.32 74.7846C186.691 74.9216 186.88 75.207 186.88 75.6307C186.88 76.0045 187.089 76.3821 187.383 76.5395C188.895 77.3485 188.929 90.8858 187.423 92.521C187.153 92.8154 186.89 93.2864 186.84 93.568C186.79 93.8496 186.5 94.1894 186.196 94.3232C185.799 94.4979 185.596 94.8819 185.476 95.6813C185.351 96.5101 185.155 96.8653 184.706 97.0694C184.374 97.2205 184.035 97.6179 183.951 97.952C183.853 98.3392 183.612 98.56 183.284 98.56C182.972 98.56 182.676 98.8115 182.525 99.2064C182.39 99.5622 182.076 99.9258 181.828 100.014C181.58 100.103 181.145 100.452 180.863 100.792C180.534 101.187 179.976 101.458 179.311 101.547C178.582 101.645 178.202 101.848 178.033 102.23C177.864 102.612 177.455 102.831 176.666 102.964C176.045 103.069 175.328 103.38 175.071 103.657C174.069 104.732 163.932 104.815 163.121 103.754C162.84 103.388 162.282 103.128 161.536 103.017C160.827 102.912 160.187 102.626 159.872 102.273C159.59 101.958 158.981 101.618 158.519 101.516C158.057 101.414 157.496 101.053 157.274 100.714C157.052 100.374 156.664 100.096 156.414 100.096C156.156 100.096 155.897 99.847 155.814 99.52C155.734 99.2032 155.405 98.8288 155.083 98.688C154.76 98.5472 154.459 98.1728 154.414 97.856C154.361 97.4822 154.156 97.28 153.83 97.28C153.554 97.28 153.256 97.0784 153.169 96.832C153.082 96.5856 152.683 96.0736 152.282 95.6947C151.727 95.1706 151.552 94.7699 151.552 94.0269C151.552 93.2589 151.428 92.9952 150.976 92.7968C150.518 92.5958 150.348 92.2208 150.144 90.9664C149.994 90.0422 149.676 89.1565 149.376 88.8275C148.915 88.3206 148.864 87.9078 148.864 84.633C148.864 81.424 148.924 80.9126 149.376 80.2445C149.658 79.8285 150.003 78.8544 150.144 78.08C150.339 77.0054 150.536 76.6125 150.976 76.4192C151.443 76.2144 151.552 75.961 151.552 75.0842C151.552 74.2266 151.711 73.8381 152.32 73.216C152.742 72.784 153.088 72.327 153.088 72.201C153.088 72.0749 153.347 71.9347 153.664 71.8899C154.039 71.8368 154.269 71.6019 154.324 71.2179C154.371 70.8838 154.666 70.5299 155.005 70.4006C155.335 70.2758 155.679 69.9366 155.772 69.6467C155.863 69.3568 156.078 69.12 156.248 69.12C156.419 69.12 156.861 68.7744 157.232 68.352C157.603 67.9296 158.141 67.584 158.428 67.584C158.715 67.584 159.26 67.296 159.64 66.944C160.032 66.5805 160.638 66.304 161.042 66.304C161.433 66.304 162.078 66.0333 162.476 65.7024C163.571 64.7923 163.587 64.7904 169.305 64.8448L174.641 64.896L175.193 65.584ZM99.673 83.6794C100.063 84.0032 100.096 87.0605 100.096 122.783V161.536H134.884C166.371 161.536 169.688 161.574 169.828 161.941C170.298 163.165 169.982 180.608 169.475 181.44L168.968 182.272H123.789H78.6118L78.0902 181.712C77.8029 181.404 77.568 181.014 77.568 180.847C77.568 180.68 77.3952 180.399 77.184 180.224C76.4979 179.654 76.6144 85.8483 77.303 84.5638C77.5795 84.048 77.9539 83.529 78.135 83.4106C78.7334 83.0195 99.1859 83.2749 99.673 83.6794Z" fill="#141414"/>
<path fill-rule="evenodd" clip-rule="evenodd" d="M168 65.7221C168.528 65.7777 169.392 65.7777 169.92 65.7221C170.448 65.667 170.016 65.6216 168.96 65.6216C167.904 65.6216 167.472 65.667 168 65.7221ZM165.248 66.0478C164.596 66.3281 165.268 66.3281 166.144 66.0478C166.659 65.8833 166.684 65.8411 166.272 65.8353C165.99 65.8315 165.53 65.9269 165.248 66.0478ZM171.285 65.8833C171.344 65.9333 171.795 66.0485 172.288 66.1387C172.918 66.2545 173.07 66.2283 172.8 66.0517C172.453 65.8238 171.032 65.6657 171.285 65.8833ZM175.637 66.8933C175.696 66.9361 176.09 67.1729 176.512 67.4206L177.28 67.8699L176.676 67.3432C176.343 67.0533 175.949 66.8158 175.801 66.8158C175.652 66.8158 175.579 66.8504 175.637 66.8933ZM158.08 69.2702L157.312 69.9301L158.144 69.3797C158.602 69.0769 158.976 68.7793 158.976 68.7185C158.976 68.5265 158.868 68.5937 158.08 69.2702ZM155.904 71.0398C155.282 71.6734 154.831 72.1918 154.901 72.1918C154.972 72.1918 155.538 71.6734 156.16 71.0398C156.782 70.4062 157.233 69.8878 157.163 69.8878C157.092 69.8878 156.526 70.4062 155.904 71.0398ZM180.864 70.3185C181.861 71.3233 183.587 72.7134 182.912 71.9691C182.49 71.5025 181.798 70.8824 181.376 70.5912C180.954 70.2993 180.723 70.1771 180.864 70.3185ZM184.086 73.6299C184.426 74.0689 184.755 74.3825 184.819 74.3262C184.881 74.2699 184.604 73.9109 184.2 73.5281L183.468 72.8318L184.086 73.6299ZM187.457 82.0478C187.459 82.611 187.512 82.8113 187.573 82.4926C187.635 82.1745 187.632 81.7137 187.568 81.4686C187.504 81.2241 187.453 81.4846 187.457 82.0478ZM150.337 83.0718C150.339 83.635 150.392 83.8353 150.453 83.5166C150.515 83.1985 150.512 82.7377 150.448 82.4926C150.384 82.2481 150.333 82.5086 150.337 83.0718ZM88.1338 84.4158L97.8035 84.4862L98.3085 85.315C98.5869 85.7707 98.8147 86.0152 98.8154 85.8584C98.8154 85.7016 98.5773 85.2696 98.2854 84.8984L97.7549 84.2238L88.1094 84.2846L78.464 84.3454L88.1338 84.4158ZM150.337 86.1438C150.339 86.707 150.392 86.9073 150.453 86.5886C150.515 86.2705 150.512 85.8097 150.448 85.5646C150.384 85.3201 150.333 85.5806 150.337 86.1438ZM187.452 87.2958C187.452 87.7886 187.504 87.9902 187.569 87.7438C187.633 87.4974 187.633 87.0942 187.569 86.8478C187.504 86.6014 187.452 86.803 187.452 87.2958ZM182.896 96.8318L182.144 97.6638L182.976 96.9118C183.434 96.4984 183.808 96.124 183.808 96.0798C183.808 95.8821 183.597 96.0561 182.896 96.8318ZM155.904 97.9198C156.669 98.6942 157.352 99.3278 157.423 99.3278C157.493 99.3278 156.925 98.6942 156.16 97.9198C155.395 97.1454 154.712 96.5118 154.641 96.5118C154.571 96.5118 155.139 97.1454 155.904 97.9198ZM157.702 99.4085C158.086 99.8232 159.805 100.862 159.5 100.494C159.302 100.256 158.787 99.8821 158.355 99.6625C157.922 99.4424 157.629 99.3285 157.702 99.4085ZM178.458 100.502C177.98 100.841 177.714 101.12 177.868 101.12C178.022 101.12 178.47 100.836 178.866 100.488C179.77 99.692 179.589 99.6984 178.458 100.502ZM161.207 101.634C161.941 102.056 162.632 102.398 162.743 102.395C163.034 102.389 160.433 100.873 160.128 100.871C159.987 100.87 160.473 101.213 161.207 101.634ZM167.744 103.1C168.413 103.152 169.507 103.152 170.176 103.1C170.845 103.047 170.298 103.004 168.96 103.004C167.622 103.004 167.075 103.047 167.744 103.1ZM169.33 170.88C169.331 175.385 169.365 177.193 169.407 174.896C169.45 172.599 169.45 168.912 169.407 166.704C169.365 164.495 169.33 166.374 169.33 170.88ZM168.805 180.225C168.634 180.397 153.432 180.461 123.466 180.417C98.6714 180.381 78.4384 180.438 78.5037 180.544C78.761 180.96 168.613 180.77 168.96 180.352C169.317 179.921 169.203 179.828 168.805 180.225Z" fill="#7C7C7C"/>
<path fill-rule="evenodd" clip-rule="evenodd" d="M164.992 65.4975C164.71 65.5987 164.192 65.8175 163.84 65.9839C163.488 66.1503 162.729 66.4051 162.153 66.5503C161.576 66.695 160.897 67.0444 160.641 67.3267C160.385 67.6089 159.993 67.8438 159.768 67.8489C159.167 67.8623 158.368 68.3596 156.889 69.6409C154.111 72.0486 152.586 74.0153 151.832 76.1599C151.635 76.7231 151.26 77.4719 151.001 77.8239C150.718 78.2079 150.428 79.2684 150.276 80.4729C150.136 81.5782 149.901 82.9324 149.753 83.4822C149.55 84.2348 149.575 84.9407 149.853 86.3372C150.056 87.3574 150.297 88.7308 150.388 89.39C150.479 90.0486 150.762 90.855 151.015 91.182C151.269 91.5084 151.676 92.3807 151.919 93.1199C152.162 93.8591 152.453 94.4639 152.566 94.4639C152.678 94.4639 152.91 94.8025 153.081 95.2159C153.456 96.1196 156.728 99.4675 157.757 99.9999C158.161 100.209 158.716 100.603 158.989 100.877C159.264 101.152 159.638 101.376 159.822 101.376C160.006 101.376 160.531 101.652 160.988 101.989C161.444 102.326 162.335 102.679 162.967 102.774C163.599 102.868 164.543 103.128 165.066 103.352C167.36 104.33 175.156 103.403 177.03 101.93C177.392 101.645 178.034 101.336 178.456 101.243C178.879 101.15 179.362 100.854 179.53 100.585C179.698 100.316 179.95 100.096 180.091 100.096C180.358 100.096 180.84 99.6639 182.847 97.6211C184.593 95.8444 184.775 95.607 185.222 94.5375C185.443 94.0083 185.828 93.3427 186.077 93.0591C187.997 90.8742 188.889 81.8214 187.478 78.8479C187.177 78.2143 186.8 77.278 186.64 76.7667C186.48 76.2559 186.123 75.6332 185.846 75.383C185.57 75.1334 185.344 74.7987 185.344 74.6393C185.344 74.2809 182.828 70.9119 182.56 70.9119C182.453 70.9119 181.684 70.2783 180.852 69.5039C180.02 68.7295 179.164 68.094 178.95 68.0915C178.735 68.0889 178.067 67.7529 177.466 67.3446C176.863 66.9363 175.884 66.5228 175.29 66.4255C174.694 66.3283 173.995 66.0595 173.734 65.8278C173.224 65.3766 166.079 65.1065 164.992 65.4975ZM171.52 65.7945C173.917 66.2681 176.34 67.0233 177.053 67.5174C177.459 67.7996 178.368 68.3551 179.072 68.7513C180.415 69.5084 184.832 73.7887 184.832 74.334C184.832 74.5087 185.167 75.1059 185.576 75.662C186.238 76.5631 186.6 77.5487 187.403 80.6399C188.276 83.9999 187.338 90.512 185.604 93.1289C185.18 93.7708 184.832 94.407 184.832 94.5427C184.832 94.8665 182.079 98.1011 181.522 98.4319C181.285 98.5727 180.867 98.8966 180.593 99.1519C179.644 100.038 178.104 101.12 177.793 101.12C177.62 101.12 177.069 101.398 176.567 101.739C173.887 103.558 164.525 103.527 161.28 101.69C156.452 98.9567 153.151 95.6031 151.958 92.2214C151.754 91.6441 151.397 90.8812 151.164 90.526C150.477 89.4764 150.121 85.2294 150.449 81.9871C150.966 76.8793 155.023 70.6252 159.155 68.5663C159.863 68.2137 160.833 67.6863 161.309 67.3951C162.03 66.9548 164.525 66.1843 166.784 65.7043C167.696 65.5103 170.338 65.5603 171.52 65.7945ZM78.2227 84.2809C77.7318 84.9811 77.6006 179.585 78.0889 180.497C78.4723 181.213 168.654 181.284 169.249 180.569C169.704 180.02 169.911 163.125 169.473 162.305C169.2 161.795 168.964 161.792 134.796 161.792C115.875 161.792 100.212 161.722 99.9891 161.636C99.6224 161.496 99.584 157.923 99.584 123.787C99.584 96.8595 99.5027 85.8598 99.3005 85.2787C98.7648 83.7414 98.5529 83.7119 88.0915 83.7119H78.6208L78.2227 84.2809ZM98.2854 84.8985L98.816 85.5731V123.53V161.486L99.6224 161.767C100.192 161.965 110.472 162.048 134.685 162.048H168.942L169.223 162.573C169.666 163.401 169.454 179.758 168.993 180.313C168.398 181.028 78.7283 180.957 78.3449 180.241C77.9462 179.496 77.9782 85.7523 78.3769 84.8761L78.6739 84.224H88.2144H97.7549L98.2854 84.8985Z" fill="#606060"/>
<path fill-rule="evenodd" clip-rule="evenodd" d="M164.291 64.9492C164.609 65.0106 165.07 65.0081 165.315 64.9441C165.56 64.8801 165.299 64.8295 164.736 64.8327C164.173 64.8353 163.973 64.8877 164.291 64.9492ZM173.382 65.0138C173.912 65.1169 174.648 65.4785 175.016 65.8164L175.686 66.4321L175.379 65.8439C175.031 65.1757 174.115 64.754 173.103 64.7975C172.556 64.8212 172.613 64.8653 173.382 65.0138ZM162.482 65.6724C162.086 66.0199 161.878 66.3041 162.019 66.3041C162.16 66.3041 162.598 66.0199 162.994 65.6724C163.389 65.3249 163.597 65.0401 163.456 65.0401C163.315 65.0401 162.877 65.3249 162.482 65.6724ZM159.748 66.8046C159.398 67.0734 159.195 67.3767 159.297 67.4785C159.4 67.5809 159.766 67.3581 160.113 66.9844C160.847 66.1927 160.662 66.1018 159.748 66.8046ZM177.728 66.5805C177.974 66.7239 178.185 67.0375 178.197 67.2769C178.209 67.5572 178.264 67.5949 178.348 67.3837C178.502 67.0023 177.991 66.3002 177.569 66.3117C177.41 66.3162 177.482 66.4372 177.728 66.5805ZM157.08 68.4801C156.849 68.8321 156.76 69.1201 156.881 69.1201C157.002 69.1201 157.233 68.8321 157.393 68.4801C157.554 68.1281 157.643 67.8401 157.592 67.8401C157.541 67.8401 157.31 68.1281 157.08 68.4801ZM180.544 68.1165C180.79 68.2599 181.001 68.5735 181.013 68.8129C181.025 69.0932 181.08 69.1309 181.164 68.9197C181.318 68.5383 180.807 67.8362 180.385 67.8477C180.226 67.8522 180.298 67.9732 180.544 68.1165ZM184.512 72.1997C184.829 72.3271 185.088 72.5697 185.088 72.7386C185.088 72.9076 185.162 72.9716 185.253 72.8807C185.502 72.6311 184.826 71.9341 184.353 71.9521C184.07 71.9636 184.122 72.0436 184.512 72.1997ZM152.256 73.2442C151.869 73.6628 151.565 74.2593 151.581 74.5703C151.609 75.0893 151.622 75.0938 151.733 74.6241C151.8 74.3425 152.133 73.8484 152.472 73.5258C152.811 73.2033 153.088 72.8289 153.088 72.6938C153.088 72.3578 153.057 72.3783 152.256 73.2442ZM150.523 76.6785C150.345 76.8929 150.273 77.1425 150.364 77.2327C150.454 77.3236 150.528 77.2596 150.528 77.0906C150.528 76.9217 150.787 76.6791 151.104 76.5517C151.494 76.3956 151.546 76.3156 151.263 76.3041C151.034 76.2951 150.701 76.4634 150.523 76.6785ZM187.465 77.1489C187.777 77.6269 188.071 77.9834 188.12 77.9405C188.335 77.7485 187.823 76.7745 187.384 76.5396C186.945 76.3047 186.952 76.3629 187.465 77.1489ZM188.225 79.2321C188.227 79.7953 188.28 79.9956 188.341 79.6769C188.403 79.3588 188.4 78.898 188.336 78.6529C188.272 78.4084 188.221 78.6689 188.225 79.2321ZM149.333 80.2861C148.556 81.4708 148.639 88.0794 149.44 88.8813C149.933 89.3741 150.016 89.394 150.016 89.017C150.016 88.7745 149.919 88.5761 149.801 88.5761C148.846 88.5761 148.643 82.8026 149.533 80.9633C150.157 79.6749 150.025 79.2295 149.333 80.2861ZM83.2468 83.3914C86.0186 83.433 90.6266 83.433 93.4868 83.3921C96.3476 83.3505 94.0801 83.3166 88.4481 83.3166C82.8161 83.3166 80.4756 83.3505 83.2468 83.3914ZM99.2513 83.6589C99.4202 83.7665 99.6724 84.1396 99.8113 84.4871C100.034 85.0458 100.065 85.0586 100.08 84.5953C100.097 84.034 99.6538 83.4535 99.2129 83.4599C99.0573 83.4625 99.074 83.5463 99.2513 83.6589ZM77.065 84.9754C76.5889 85.8644 76.7066 179.828 77.1841 180.224C77.5252 180.507 77.5681 175.177 77.5681 132.511C77.5681 106.094 77.5143 84.4801 77.449 84.4801C77.3837 84.4801 77.2109 84.7028 77.065 84.9754ZM188.22 89.8561C188.22 90.3489 188.272 90.5505 188.337 90.3041C188.401 90.0577 188.401 89.6545 188.337 89.4081C188.272 89.1617 188.22 89.3633 188.22 89.8561ZM187.904 91.2244C187.904 91.4138 187.674 91.7773 187.392 92.0321C187.11 92.2868 186.884 92.6215 186.888 92.7758C186.9 93.1924 188.16 91.6813 188.16 91.25C188.16 91.0465 188.102 90.8801 188.032 90.8801C187.962 90.8801 187.904 91.0349 187.904 91.2244ZM150.272 92.0097C150.272 92.4097 150.93 93.017 151.224 92.8884C151.334 92.8397 151.165 92.5447 150.848 92.233C150.477 91.8682 150.272 91.7889 150.272 92.0097ZM186.645 93.5124C186.633 93.7633 186.365 94.073 186.048 94.2004C185.658 94.3565 185.606 94.4365 185.889 94.4481C186.415 94.4685 186.97 93.8177 186.796 93.3844C186.715 93.1815 186.657 93.2302 186.645 93.5124ZM151.587 94.4122C151.553 94.9741 152.764 96.409 153.039 96.1345C153.109 96.0641 152.869 95.7729 152.504 95.4868C152.14 95.2001 151.793 94.7092 151.732 94.395L151.622 93.8241L151.587 94.4122ZM184.512 96.7713C184.125 97.1597 183.808 97.6001 183.808 97.7498C183.808 97.8996 183.606 98.1402 183.36 98.2836C182.938 98.5293 182.938 98.5447 183.355 98.5524C183.612 98.5569 183.862 98.3041 183.951 97.9521C184.035 97.618 184.383 97.2173 184.724 97.0618C185.065 96.9063 185.344 96.6036 185.344 96.3898C185.344 95.9181 185.379 95.9021 184.512 96.7713ZM181.504 99.7658C180.87 100.404 180.006 101.09 179.584 101.292L178.816 101.658L179.584 101.506C180.006 101.422 180.561 101.107 180.817 100.805C181.072 100.502 181.521 100.133 181.814 99.9834C182.204 99.7844 183.068 98.4365 182.712 98.5831C182.681 98.5953 182.138 99.1277 181.504 99.7658ZM157.158 100.53C157.441 101.087 157.915 101.51 158.064 101.338C158.106 101.288 157.856 100.96 157.507 100.608C156.927 100.023 156.897 100.017 157.158 100.53ZM159.488 101.757C159.488 101.988 160.367 102.912 160.587 102.912C160.707 102.912 160.623 102.731 160.403 102.51C160.181 102.289 160 102.001 160 101.87C160 101.739 159.885 101.632 159.744 101.632C159.603 101.632 159.488 101.688 159.488 101.757ZM177.92 102.11C177.92 102.278 177.661 102.521 177.344 102.648C176.954 102.805 176.902 102.885 177.185 102.896C177.658 102.914 178.334 102.217 178.085 101.967C177.994 101.877 177.92 101.941 177.92 102.11ZM174.714 103.475C174.202 103.877 173.483 104.085 172.184 104.205C170.39 104.371 170.385 104.373 171.776 104.409C173.335 104.449 175.104 104.051 175.104 103.66C175.104 103.521 175.363 103.303 175.68 103.176C176.064 103.022 176.118 102.939 175.843 102.928C175.615 102.919 175.107 103.166 174.714 103.475ZM163.064 103.665C163.365 104.228 164.908 104.547 166.528 104.383C167.374 104.296 167.299 104.271 166.092 104.235C164.634 104.192 163.328 103.79 163.328 103.383C163.328 103.265 163.209 103.168 163.063 103.168C162.881 103.168 162.881 103.323 163.064 103.665ZM77.8535 181.461C78.3866 182.324 76.2401 182.289 124.129 182.214L169.025 182.144L169.441 181.504L169.856 180.864L169.161 181.312C168.098 181.997 79.2097 182.009 78.1645 181.324C77.5009 180.889 77.4996 180.89 77.8535 181.461Z" fill="#1C1C1C"/>
</g>
</g>
<defs>
<clipPath id="clip0_1239_2">
<rect width="256" height="256" fill="white"/>
</clipPath>
<clipPath id="clip1_1239_2">
<rect width="256" height="256" fill="white"/>
</clipPath>
</defs>
</svg>
