<svg width="314" height="311" viewBox="0 0 314 311" fill="none" xmlns="http://www.w3.org/2000/svg">
<g clip-path="url(#clip0_1240_49)">
<path d="M314 0H0V311H314V0Z" fill="black"/>
<path d="M155.5 289.1V243.4C150.9 243.4 146.2 243 141.6 242.3L134.4 287.4C141.4 288.6 148.5 289.1 155.5 289.1ZM176.5 287.5C183.5 286.4 190.4 284.8 197.1 282.6L183 239.1C178.6 240.5 174 241.6 169.4 242.3L176.5 287.5ZM113.9 282.6L128 239.2C123.6 237.8 119.3 236 115.1 233.9L94.3 274.6C100.6 277.7 107.2 280.4 113.9 282.6ZM216.6 274.6C222.9 271.4 228.9 267.7 234.6 263.6L207.6 226.7C203.9 229.4 199.9 231.9 195.7 233.9L216.6 274.6ZM76.3001 263.5L103.3 226.6C99.6 223.9 96 220.9 92.7 217.6L60.3 249.9C65.3 254.8 70.7001 259.4 76.3001 263.5ZM250.5 250.1L250.8 249.8C255.8 244.9 260.4 239.5 264.5 233.9L227.5 207C224.8 210.7 221.7 214.3 218.5 217.5L218 218L233.6 232.7L250.5 250.1ZM46.6 233.8L83.6 206.9C80.9 203.2 78.4001 199.2 76.3001 195.1L35.5 215.8C38.7 222.1 42.4 228.1 46.6 233.8ZM275.5 215.9C278.7 209.7 281.4 203.1 283.6 196.4L240 182.4C238.6 186.8 236.8 191.1 234.7 195.2L275.5 215.9ZM27.4 196.4L71 182.3C69.6 177.9 68.5001 173.4 67.8001 168.8L22.5 175.9C23.6 182.8 25.3 189.7 27.4 196.4ZM288.5 176C289.6 169.1 290.2 162 290.2 155H244.4C244.4 159.6 244 164.3 243.3 168.9L288.5 176ZM66.7 154.9C66.7 150.3 67.1001 145.6 67.8001 141L22.5 133.9C21.4 140.8 20.9 147.9 20.8 154.9H66.7ZM243.3 141.1L288.6 134C287.5 127.1 285.9 120.2 283.7 113.5L240.1 127.5C241.5 132 242.6 136.5 243.3 141.1ZM71 127.5C72.4 123.1 74.2001 118.8 76.3001 114.7L35.5 94.0002C32.3 100.2 29.6 106.8 27.4 113.5L71 127.5ZM234.8 114.8L275.7 94.1002C272.5 87.8002 268.8 81.8002 264.6 76.1002L227.5 103C230.2 106.7 232.7 110.7 234.8 114.8ZM83.6 102.9C86.3 99.2002 89.4 95.6002 92.7 92.3002L92.8 92.2002L60.4001 59.9002L60.3 60.0002C55.3 65.0002 50.7 70.3002 46.6 76.0002L83.6 102.9ZM218.5 92.5002L228.3 82.6002L250.8 60.2002L250.7 60.1002C245.7 55.2002 240.4 50.6002 234.8 46.5002L207.8 83.4002C211.5 86.1002 215.1 89.1002 218.3 92.4002L218.5 92.5002ZM103.4 83.2002C107.1 80.5002 111.1 78.1002 115.3 76.0002L94.5 35.3002C88.2 38.5002 82.2 42.2002 76.5 46.3002L103.4 83.2002ZM196 76.1002L216.9 35.4002C210.6 32.2002 204.1 29.5002 197.4 27.3002L183.2 70.7002C187.5 72.2002 191.8 74.0002 196 76.1002ZM128.2 70.7002C132.6 69.3002 137.2 68.2002 141.8 67.5002L134.7 22.4002C127.8 23.5002 120.8 25.1002 114.1 27.3002L128.2 70.7002ZM169.5 67.5002L176.7 22.4002C169.8 21.3002 162.7 20.7002 155.7 20.7002V66.4002C160.3 66.4002 165 66.8002 169.5 67.5002Z" fill="white"/>
<path d="M155.5 245.5V199.6C151.6 199.6 147.8 199.1 144 198.1L132 242.4C139.7 244.4 147.6 245.5 155.5 245.5ZM179 242.4C186.7 240.4 194 237.4 200.9 233.4L177.7 193.7C174.4 195.6 170.8 197.1 167.1 198.1L179 242.4ZM110.2 233.4L133.4 193.7C130.1 191.8 127 189.4 124.2 186.7L123.8 186.3L109.2 201.6L91.1999 218.9L91.4999 219.2C97.0999 224.7 103.4 229.5 110.2 233.4ZM219.6 219.2C225.2 213.6 230.1 207.4 234 200.6L193.9 177.6C192 180.9 189.6 183.9 186.8 186.7L219.6 219.2ZM76.9999 200.5L117.1 177.6C115.2 174.3 113.7 170.8 112.7 167.1L67.9999 178.9C69.9999 186.4 73.0999 193.7 76.9999 200.5ZM243.1 179C245.1 171.4 246.2 163.6 246.2 155.8H199.9C199.9 159.6 199.4 163.5 198.4 167.2L243.1 179ZM111.3 155.7C111.3 151.9 111.8 148 112.8 144.3L67.9999 132.5C65.9999 140.1 64.8999 147.9 64.8999 155.7H111.3ZM198.3 144.4L243.1 132.6C241.1 125 238 117.7 234.1 110.9L194 133.8C195.8 137.2 197.3 140.7 198.3 144.4ZM117.2 133.8C119.1 130.6 121.4 127.5 124.2 124.8L124.3 124.7L107.7 108.3L91.7999 92L91.4999 92.3C85.8999 97.8 81.0999 104.1 77.0999 110.8L117.2 133.8ZM186.8 124.8L203.2 108.5L220 92.7L219.6 92.3C214 86.7 207.7 82 200.9 78L177.7 117.7C181 119.6 184 121.9 186.8 124.6V124.8ZM133.4 117.7C136.7 115.8 140.3 114.3 144 113.3L132.2 69C124.5 71 117.2 74 110.3 78L133.4 117.7ZM167 113.4L179 69.1C171.4 67.1 163.5 66 155.6 66V111.9C159.4 111.9 163.3 112.4 167 113.4Z" fill="white"/>
</g>
<defs>
<clipPath id="clip0_1240_49">
<rect width="314" height="311" fill="white"/>
</clipPath>
</defs>
</svg>
