<svg width="256" height="256" viewBox="0 0 256 256" fill="none" xmlns="http://www.w3.org/2000/svg">
<g clip-path="url(#clip0_1239_2)">
<rect width="256" height="256" fill="white"/>
<path d="M136.285 32.2549C144.523 32.2549 147.344 33.2463 152.898 35.1862C154.283 35.6648 155.838 36.2117 157.693 36.8099C195.782 49.2015 224.009 85.7439 224.009 127.91C224.009 134.951 223.009 142.574 221.556 149.283C215.002 175.912 198.055 198.533 175.237 211.651C163.871 218.18 150.685 222.991 136.994 223.914C134.704 224.068 127.269 224 122.219 223.949C120.398 223.932 118.894 223.914 118.04 223.914C68.5672 216.907 31.7257 180.356 31.7257 127.91C31.7257 114.595 34.2638 101.263 39.4427 89.017C44.8181 76.3177 54.0477 65.473 63.6533 56.081C72.1138 47.8256 82.574 43.2621 92.8804 38.7669C94.3759 38.1175 95.8629 37.468 97.3413 36.8099C102.657 34.4427 106.238 33.9299 110.741 33.2805C112.604 33.007 114.621 32.7164 116.988 32.2549C121.15 31.4602 125.526 31.7251 129.867 31.99C132.021 32.1268 134.174 32.2549 136.285 32.2549Z" fill="url(#paint0_linear_1239_2)"/>
<path d="M136.285 32.2549C144.523 32.2549 147.344 33.2463 152.898 35.1862C154.283 35.6648 155.838 36.2117 157.693 36.8099C195.782 49.2015 224.009 85.7439 224.009 127.91C224.009 134.951 223.009 142.574 221.556 149.283C215.002 175.912 198.055 198.533 175.237 211.651C163.871 218.18 150.685 222.991 136.994 223.914C134.704 224.068 127.269 224 122.219 223.949C120.398 223.932 118.894 223.914 118.04 223.914C68.5672 216.907 31.7257 180.356 31.7257 127.91C31.7257 114.595 34.2638 101.263 39.4427 89.017C44.8181 76.3177 54.0477 65.473 63.6533 56.081C72.1138 47.8256 82.574 43.2621 92.8804 38.7669C94.3759 38.1175 95.8629 37.468 97.3413 36.8099C102.657 34.4427 106.238 33.9299 110.741 33.2805C112.604 33.007 114.621 32.7164 116.988 32.2549C121.15 31.4602 125.526 31.7251 129.867 31.99C132.021 32.1268 134.174 32.2549 136.285 32.2549Z" stroke="white"/>
<path fill-rule="evenodd" clip-rule="evenodd" d="M127.859 26.7349L159.111 31.6915L187.304 46.0487L209.678 68.4219L224.043 96.6064L229 127.859L224.043 159.111L209.678 187.304L187.304 209.678L159.111 224.043L127.859 229L96.615 224.043L68.422 209.678L46.0488 187.304L31.6916 159.111L26.735 127.859L31.6916 96.6149L46.0488 68.4219L68.422 46.0487L96.615 31.6915L127.859 26.7349ZM98.3755 37.1182L71.772 50.6635L50.6721 71.7719L37.1183 98.3754L32.4437 127.859L37.1183 157.351L50.6721 183.946L71.772 205.054L98.3755 218.617L127.859 223.291L157.351 218.617L183.946 205.054L205.054 183.946L218.617 157.351L223.291 127.859L218.617 98.3754L205.054 71.7719L183.946 50.6635L157.351 37.1182L127.859 32.4435L98.3755 37.1182Z" fill="white"/>
<path fill-rule="evenodd" clip-rule="evenodd" d="M127.141 58.8845C127.807 58.4828 128.671 58.705 129.072 59.3716L151.266 96.6148C151.668 97.2813 151.446 98.153 150.779 98.5461C150.112 98.9478 149.241 98.7256 148.848 98.059L126.645 60.8159C126.252 60.1493 126.466 59.2861 127.141 58.8845Z" fill="white"/>
<path fill-rule="evenodd" clip-rule="evenodd" d="M127.859 58.6797L173.674 63.6363L173.375 66.4394L127.859 61.5169L82.352 66.4394L82.0529 63.6363L127.859 58.6797Z" fill="white"/>
<path fill-rule="evenodd" clip-rule="evenodd" d="M104.255 97.3241C104.255 96.5379 104.888 95.9141 105.665 95.9141H150.053C150.831 95.9141 151.463 96.5379 151.463 97.3241C151.463 98.1018 150.831 98.7342 150.053 98.7342H105.665C104.888 98.7342 104.255 98.1018 104.255 97.3241Z" fill="white"/>
<path fill-rule="evenodd" clip-rule="evenodd" d="M128.577 58.8845C129.243 59.2861 129.465 60.1493 129.064 60.8159L106.879 98.059C106.477 98.7256 105.614 98.9478 104.947 98.5461C104.281 98.153 104.058 97.2813 104.46 96.6148L126.645 59.3716C127.038 58.705 127.902 58.4828 128.577 58.8845Z" fill="white"/>
<path fill-rule="evenodd" clip-rule="evenodd" d="M97.0339 32.1782L127.859 58.2433L158.684 32.1782L174.785 64.3964L172.264 65.6612L157.77 36.6477L127.859 61.9351L97.9483 36.6477L83.4629 65.6612L80.9419 64.3964L97.0339 32.1782Z" fill="white"/>
<path fill-rule="evenodd" clip-rule="evenodd" d="M69.2682 47.2195C69.9006 46.758 70.7809 46.8947 71.2423 47.5271L127.859 125.466L184.484 47.5271C184.946 46.8947 185.826 46.758 186.459 47.2195C187.082 47.6724 187.228 48.5527 186.766 49.185L129.004 128.696C128.739 129.064 128.312 129.277 127.859 129.277C127.415 129.277 126.987 129.064 126.722 128.696L68.9606 49.185C68.4991 48.5527 68.6444 47.6724 69.2682 47.2195Z" fill="white"/>
<path fill-rule="evenodd" clip-rule="evenodd" d="M106.716 96.3662C107.058 96.7422 107.169 97.2721 107.016 97.7506L93.6155 139.002L128.56 164.392L168.264 181.415C168.982 181.723 169.315 182.552 169.008 183.261C168.7 183.979 167.871 184.312 167.153 184.005L127.304 166.921C127.21 166.879 127.116 166.827 127.03 166.768L91.1286 140.677C90.633 140.318 90.4279 139.685 90.6159 139.104L103.563 99.2462L63.7133 108.288C62.9527 108.459 62.1921 107.989 62.0212 107.228C61.8503 106.467 62.3288 105.715 63.0894 105.536L105.366 95.9474C105.853 95.8278 106.375 95.9902 106.716 96.3662Z" fill="white"/>
<path fill-rule="evenodd" clip-rule="evenodd" d="M62.4652 105.87C63.0549 105.357 63.9437 105.417 64.4564 106.007L93.0169 138.626C93.5297 139.216 93.4699 140.105 92.8887 140.618C92.2991 141.13 91.4103 141.07 90.8975 140.489L62.337 107.861C61.8243 107.28 61.8841 106.383 62.4652 105.87Z" fill="white"/>
<path fill-rule="evenodd" clip-rule="evenodd" d="M84.5481 63.252L64.9267 106.956L65.1489 107.494L64.6532 107.802L55.5176 151.378L88.8553 181.57L128.534 204.337L157.283 219.275L166.623 181.228L205.678 184.108L200.345 152.112L203.131 151.651L209.045 187.185L168.794 184.211L159.163 223.428L127.158 206.798L87.1888 183.869L52.988 152.89L27.316 127.62L61.6365 106.358L46.3735 68.9777L84.5481 63.252ZM61.3374 109.861L31.8539 128.124L53.1247 149.062L61.3374 109.861ZM63.4568 103.349L79.8564 66.8071L50.3388 71.2338L63.4568 103.349Z" fill="white"/>
<path fill-rule="evenodd" clip-rule="evenodd" d="M92.0944 138.14C92.8635 138.217 93.4361 138.9 93.3677 139.678L89.428 182.844C89.3597 183.621 88.676 184.194 87.8983 184.125C87.1206 184.049 86.5481 183.365 86.625 182.587L90.5561 139.422C90.6245 138.644 91.3167 138.071 92.0944 138.14Z" fill="white"/>
<path fill-rule="evenodd" clip-rule="evenodd" d="M129.158 165.068C129.466 165.777 129.132 166.606 128.423 166.913L88.582 184.005C87.8641 184.304 87.0352 183.98 86.7275 183.262C86.4198 182.544 86.7531 181.715 87.471 181.407L127.312 164.324C128.021 164.016 128.85 164.35 129.158 165.068Z" fill="white"/>
<path fill-rule="evenodd" clip-rule="evenodd" d="M50.0396 184.108L55.3722 152.112L52.5863 151.65L46.6725 187.184L86.9409 184.219L96.5551 223.428L128.508 206.831L127.209 204.327L98.4352 219.274L89.1116 181.228L50.0396 184.108Z" fill="white"/>
<path fill-rule="evenodd" clip-rule="evenodd" d="M128.696 126.714C129.064 126.979 129.277 127.406 129.277 127.85V226.146C129.277 226.923 128.645 227.556 127.867 227.556C127.09 227.556 126.457 226.923 126.457 226.146V129.799L34.845 159.564C34.11 159.804 33.3152 159.402 33.0759 158.659C32.8281 157.924 33.2383 157.12 33.9733 156.881L127.432 126.517C127.859 126.372 128.329 126.449 128.696 126.714Z" fill="white"/>
<path fill-rule="evenodd" clip-rule="evenodd" d="M172.409 64.1744C172.717 63.7642 173.229 63.5591 173.742 63.6361L207.575 68.7123C208.003 68.7722 208.379 69.0285 208.592 69.4045C208.806 69.7806 208.832 70.2335 208.669 70.6352L194.09 106.357L226.889 126.679C227.257 126.902 227.496 127.286 227.547 127.713C227.59 128.149 227.445 128.577 227.137 128.876L202.747 152.873L202.696 152.924H202.687L202.67 152.941L168.657 183.766C168.264 184.125 167.7 184.228 167.196 184.031C166.7 183.843 166.358 183.382 166.307 182.852L162.384 139.832L148.72 97.7685C148.557 97.2814 148.677 96.7515 149.019 96.3755C149.361 96.008 149.873 95.8456 150.369 95.9567L189.894 104.921L172.247 65.6102C172.033 65.1316 172.093 64.5846 172.409 64.1744ZM189.714 107.776L152.164 99.2555L164.35 136.755L189.714 107.776ZM165.23 140.02L168.862 179.775L200.2 151.377L191.535 109.981L165.23 140.02ZM194.389 109.861L202.593 149.061L223.872 128.124L194.389 109.861ZM192.27 103.34L205.379 71.2334L175.87 66.8066L192.27 103.34Z" fill="white"/>
<path fill-rule="evenodd" clip-rule="evenodd" d="M126.517 127.415C126.757 126.68 127.551 126.269 128.295 126.517L221.762 156.881C222.505 157.12 222.907 157.924 222.668 158.658C222.428 159.402 221.633 159.804 220.89 159.564L127.423 129.192C126.68 128.953 126.278 128.158 126.517 127.415Z" fill="white"/>
<path fill-rule="evenodd" clip-rule="evenodd" d="M164.914 138.721C165.375 139.345 165.23 140.234 164.598 140.686L128.688 166.769C128.055 167.23 127.175 167.093 126.722 166.461C126.261 165.829 126.397 164.948 127.03 164.487L162.94 138.405C163.572 137.952 164.452 138.089 164.914 138.721Z" fill="white"/>
<path fill-rule="evenodd" clip-rule="evenodd" d="M167.008 181.501C167.632 181.142 168.426 181.313 168.854 181.894L186.766 206.558C187.219 207.19 187.082 208.071 186.45 208.532C185.826 208.985 184.937 208.848 184.484 208.216L167.315 184.578L128.56 206.806C127.885 207.19 127.021 206.96 126.637 206.284C126.244 205.609 126.483 204.746 127.158 204.362L167.008 181.501Z" fill="white"/>
<path fill-rule="evenodd" clip-rule="evenodd" d="M127.859 28.1792C128.637 28.1792 129.269 28.8116 129.269 29.5893V60.0811C129.269 60.8588 128.637 61.4912 127.859 61.4912C127.081 61.4912 126.449 60.8588 126.449 60.0811V29.5893C126.449 28.8116 127.081 28.1792 127.859 28.1792Z" fill="white"/>
<path fill-rule="evenodd" clip-rule="evenodd" d="M222.667 97.0672C222.907 97.8107 222.496 98.6055 221.761 98.8448L192.765 108.262C192.022 108.51 191.227 108.1 190.988 107.365C190.748 106.622 191.15 105.827 191.893 105.588L220.89 96.1614C221.625 95.9221 222.419 96.3237 222.667 97.0672Z" fill="white"/>
<path fill-rule="evenodd" clip-rule="evenodd" d="M88.8552 181.587C89.4876 182.049 89.6244 182.929 89.1629 183.553L71.2421 208.216C70.7806 208.849 69.9004 208.985 69.268 208.532C68.6356 208.071 68.4988 207.191 68.9603 206.558L86.8811 181.895C87.3426 181.271 88.2228 181.126 88.8552 181.587Z" fill="white"/>
<path fill-rule="evenodd" clip-rule="evenodd" d="M33.0759 97.0672C33.3152 96.3237 34.11 95.9221 34.845 96.1614L63.8413 105.588C64.5848 105.827 64.9864 106.622 64.7472 107.365C64.5079 108.1 63.7131 108.51 62.9696 108.262L33.9733 98.8448C33.2383 98.6055 32.8281 97.8107 33.0759 97.0672Z" fill="white"/>
</g>
<defs>
<linearGradient id="paint0_linear_1239_2" x1="199.862" y1="169.778" x2="72.8068" y2="43.3228" gradientUnits="userSpaceOnUse">
<stop stop-color="#EF4136"/>
<stop offset="0.01" stop-color="#EF4136"/>
<stop offset="0.32" stop-color="#DF5153"/>
<stop offset="1" stop-color="#AC0B1B"/>
</linearGradient>
<clipPath id="clip0_1239_2">
<rect width="256" height="256" fill="white"/>
</clipPath>
</defs>
</svg>
