<svg width="256" height="256" viewBox="0 0 256 256" fill="none" xmlns="http://www.w3.org/2000/svg">
<rect width="256" height="256" fill="#200D28"/>
<path fill-rule="evenodd" clip-rule="evenodd" d="M127.804 43L154.01 47.1652L177.652 59.2322L196.412 78.0343L208.463 101.73L212.619 127.995L208.463 154.26L196.412 177.955L177.652 196.757L154.01 208.835L127.804 213L101.598 208.835L77.9557 196.757L59.1958 177.955L47.1558 154.26L43 127.995L47.1558 101.73L59.1958 78.0346L77.956 59.2322L101.598 47.1652L127.804 43ZM115.682 109.95L127.805 126.672L139.927 109.95H115.682ZM114.422 110.856L126.55 127.586L106.932 133.975L114.422 110.856ZM104.328 134.823L87.311 116.287L81.4671 142.268L104.328 134.823ZM80.0338 141.573L85.8272 115.815L66.051 122.044L80.0338 141.573ZM52.022 126.462L63.886 122.726L61.0361 146.711L52.022 126.462ZM46.1888 128.3L50.0873 127.072L48.675 144.012L46.1888 128.3ZM50.0195 152.51L49.6943 150.454L51.4782 129.056L60.4126 149.125L50.0195 152.51ZM60.883 150.606L65.4262 172.097L51.4375 155.836L50.4987 153.988L60.883 150.606ZM62.8554 149.964L79.7806 168.277L79.6412 144.497L62.8554 149.964ZM81.9429 143.748L101.902 161.331L104.812 136.3L81.9429 143.748ZM100.971 162.58L81.196 145.159L81.3368 169.186L100.971 162.58ZM79.1772 169.912L62.8044 152.196L67.3881 173.878L79.1772 169.912ZM65.4667 174.524L54.3924 161.651L61.5953 175.827L65.4667 174.524ZM106.339 136.603L103.432 161.603L126.275 151.119L106.339 136.603ZM127.029 152.483L104.171 162.974L127.029 176.578V152.483ZM103.064 185.014L103.265 164.242L125.923 177.728L103.064 185.014ZM102.922 199.759L103.042 187.286L124.928 197.425L102.922 199.759ZM102.862 205.888L102.902 201.783L118.611 208.391L102.862 205.888ZM127.029 209.729L125.053 209.415L105.231 201.077L127.029 198.765V209.729ZM128.58 196.696L151.179 186.222L128.58 179.007V196.696ZM128.58 198.775V209.729L130.597 209.408L150.379 201.088L128.58 198.775ZM137.038 208.385L152.735 205.89L152.696 201.799L137.038 208.385ZM152.676 199.768L152.556 187.297L130.68 197.435L152.676 199.768ZM152.534 185.023L152.333 164.253L129.685 177.729L152.534 185.023ZM151.428 162.984L128.58 176.579V152.484L151.428 162.984ZM129.333 151.12L149.269 136.603L152.166 161.613L129.333 151.12ZM150.796 136.298L153.695 161.332L173.667 143.746L150.796 136.298ZM174.262 169.198L154.619 162.588L174.412 145.159L174.262 169.198ZM188.21 173.892L176.412 169.922L192.794 152.196L188.21 173.892ZM194.005 175.842L190.13 174.538L201.233 161.631L194.005 175.842ZM205.12 153.988L204.194 155.808L190.172 172.108L194.717 150.601L205.12 153.988ZM193.231 148.483L176.45 143.018L190.278 123.704L193.231 148.483ZM174.141 142.266L151.282 134.822L168.3 116.295L174.141 142.266ZM169.784 115.827L189.552 122.053L175.575 141.573L169.784 115.827ZM191.725 122.737L203.587 126.473L194.582 146.712L191.725 122.737ZM205.521 127.082L206.932 144.085L209.428 128.313L205.521 127.082ZM205.911 150.537L205.599 152.51L195.206 149.126L204.13 129.07L205.911 150.537ZM150.214 133.689L142.603 110.197L167.226 115.169L150.214 133.689ZM142.787 108.649L156.923 89.1501L167.432 113.625L142.787 108.649ZM168.715 72.8827L158.343 87.1915L180.867 94.67L168.715 72.8827ZM188.929 82.1762L169.934 71.2021L176.362 62.3354L177.789 63.7656L188.929 82.1762ZM158.495 88.8797L168.908 113.132L181.257 96.4368L158.495 88.8797ZM182.397 68.3846L193.658 79.6708L191.221 82.9664L182.397 68.3846ZM170.851 73.5262L190.014 84.5975L182.609 94.6087L170.851 73.5262ZM170.079 114.159L182.245 97.7109L189.613 120.443L170.127 114.305L170.233 114.191L170.079 114.159ZM209.262 126.631L205.485 125.442L206.853 111.406L209.262 126.631ZM205.601 103.49L205.889 105.313L204.242 122.205L198.887 105.679L205.601 103.49ZM191.862 121.151L197.807 107.377L203.452 124.802L191.862 121.151ZM192.154 84.3149L201.489 94.8621L194.507 81.1334L192.154 84.3149ZM204.289 100.369L205.124 102.011L198.408 104.2L193.045 87.6642L204.289 100.369ZM190.884 86.0313L196.537 103.461L183.653 95.8075L190.884 86.0313ZM192.747 149.959L175.967 144.495L175.819 168.276L192.747 149.959ZM153.882 164.112L154.024 164.177L154.007 164.022L173.355 170.532L154.08 184.571L153.882 164.112ZM154.28 205.208L154.242 201.255L167.94 198.229L154.28 205.208ZM175.094 194.575L173.429 195.425L156.916 199.073L170.948 188.856L175.094 194.575ZM154.103 186.944L169.003 188.351L154.221 199.113L154.103 186.944ZM187.116 175.163L175.598 171.287L172.325 185.932L187.116 175.163ZM177.662 192.351L176.351 193.665L172.203 187.942L186.236 177.725L177.662 192.351ZM182.024 187.98L189.138 175.843L192.877 177.102L182.024 187.98ZM127.029 196.685V179.007L104.421 186.212L127.029 196.685ZM101.591 164.011L101.573 164.166L101.716 164.101L101.518 184.561L82.2325 170.524L101.591 164.011ZM62.7181 177.089L66.4495 175.833L73.564 187.959L62.7181 177.089ZM79.246 193.654L77.9317 192.337L69.3538 177.717L83.3856 187.933L79.246 193.654ZM79.9968 171.276L83.2641 185.923L68.4714 175.153L79.9968 171.276ZM101.377 199.102L101.495 186.933L86.5865 188.341L101.377 199.102ZM82.1495 195.41L80.5002 194.568L84.6407 188.845L98.6812 199.062L82.1495 195.41ZM87.6384 198.214L101.356 201.244L101.318 205.203L87.6384 198.214ZM62.3876 148.482L79.1602 143.02L65.3315 123.705L62.3876 148.482ZM105.394 133.689L113.005 110.197L88.3823 115.159L105.394 133.689ZM97.2607 87.183L74.7417 94.6691L86.89 72.8776L97.2607 87.183ZM98.6827 89.145L88.1655 113.617L112.821 108.648L98.6827 89.145ZM86.6934 113.113L97.1122 88.8703L74.357 96.4346L86.6934 113.113ZM73.0022 94.6026L65.5941 84.5872L84.758 73.5153L73.0022 94.6026ZM64.3877 82.9561L61.9544 79.6663L73.1951 68.4003L64.3877 82.9561ZM77.8039 63.7813L66.6798 82.1659L85.6697 71.1943L79.2472 62.3347L77.8039 63.7813ZM85.5288 114.148L73.3663 97.7048L66.0004 120.43L85.4816 114.295L85.3756 114.179L85.5288 114.148ZM61.1049 81.128L63.4551 84.3051L54.1461 94.823L61.1049 81.128ZM50.4972 102.004L51.3515 100.323L62.5648 87.6535L57.2012 104.19L50.4972 102.004ZM64.7248 86.0218L59.0713 103.452L71.9605 95.8044L64.7248 86.0218ZM50.019 103.483L56.7219 105.668L51.367 122.195L49.724 105.348L50.019 103.483ZM48.7599 111.44L50.1243 125.431L46.3586 126.617L48.7599 111.44ZM52.1564 124.791L57.802 107.367L63.7435 121.141L52.1564 124.791ZM98.5195 86.275L88.15 71.971L112.576 67.1214L98.5195 86.275ZM114.073 107.73L99.9406 88.2358L126.403 85.7763L114.073 107.73ZM114.372 67.2983L126.391 84.2165L100.167 86.6536L114.372 67.2983ZM105.842 55.2924L113.053 65.4421L89.4146 70.1353L105.842 55.2924ZM102.294 50.2986L104.665 53.6363L88.1255 57.5304L102.294 50.2986ZM103.213 55.5749L82.3185 60.4942L80.5021 61.4214L86.9297 70.2879L103.213 55.5749ZM129.206 85.7763L141.536 107.731L155.669 88.2349L129.206 85.7763ZM168.68 70.2876L175.107 61.4218L173.287 60.4931L152.405 55.5749L168.68 70.2876ZM167.478 57.5282L153.314 50.2986L150.944 53.634L167.478 57.5282ZM149.771 55.2861L142.555 65.4419L166.196 70.1356L149.771 55.2861ZM141.237 67.2972L129.217 84.2162L155.452 86.6536L141.237 67.2972ZM167.459 71.971L157.095 86.268L143.034 67.1216L167.459 71.971ZM140.13 108.396L127.804 86.4499L115.479 108.396H140.13ZM127.881 83.4175L127.804 83.2809L127.727 83.4178L115.884 66.7475H139.724L127.881 83.4175ZM151.665 49.94L149.377 53.1609L136.503 47.5302L151.665 49.94ZM128.58 46.271L130.411 46.5621L145.93 53.3494H128.58V46.271ZM141.095 64.8185L129.859 54.9038H148.138L141.095 64.8185ZM107.47 54.9038L114.514 64.8193L125.751 54.9038H107.47ZM106.234 53.1647L103.943 49.94L119.114 47.5289L106.234 53.1647ZM125.2 46.5614L109.688 53.3494H127.029V46.2708L125.2 46.5614ZM141.186 110.857L129.059 127.586L148.676 133.974L141.186 110.857ZM148.207 135.455L128.58 129.064V149.747L148.207 135.455ZM127.029 149.747V129.064L107.402 135.456L127.029 149.747ZM116.438 65.1931L127.805 55.1621L139.172 65.1931H116.438ZM71.7197 97.7537L58.6817 105.489L64.6945 119.429L71.7197 97.7537ZM81.7721 172.11L85.076 186.922L100.166 185.498L81.7721 172.11ZM155.432 185.508L170.512 186.932L173.825 172.112L155.432 185.508ZM183.89 97.7552L196.928 105.499L190.915 119.429L183.89 97.7552Z" fill="white"/>
</svg>
