<svg width="256" height="256" viewBox="0 0 256 256" fill="none" xmlns="http://www.w3.org/2000/svg">
<g clip-path="url(#clip0_1239_2)">
<rect width="256" height="256" fill="#1E1E1E"/>
<rect width="256" height="256" fill="black"/>
<path d="M136.55 32.5201C144.788 32.5201 147.609 33.5114 153.163 35.4513C154.548 35.9299 156.103 36.4768 157.958 37.0751C196.047 49.4667 224.274 86.009 224.274 128.175C224.274 135.216 223.274 142.839 221.821 149.548C215.267 176.177 198.32 198.798 175.502 211.916C164.136 218.445 150.95 223.257 137.259 224.18C134.969 224.333 127.534 224.265 122.484 224.214C120.663 224.197 119.159 224.18 118.305 224.18C68.8322 217.172 31.9907 180.621 31.9907 128.175C31.9907 114.86 34.5289 101.528 39.7077 89.2821C45.0831 76.5829 54.3127 65.7381 63.9183 56.3461C72.3788 48.0908 82.839 43.5272 93.1454 39.0321C94.6409 38.3826 96.1279 37.7331 97.6064 37.0751C102.922 34.7078 106.503 34.1951 111.006 33.5456C112.869 33.2721 114.886 32.9816 117.253 32.5201C121.415 31.7253 125.791 31.9902 130.132 32.2552C132.286 32.3919 134.439 32.5201 136.55 32.5201Z" fill="url(#paint0_linear_1239_2)"/>
<path d="M136.55 32.5201C144.788 32.5201 147.609 33.5114 153.163 35.4513C154.548 35.9299 156.103 36.4768 157.958 37.0751C196.047 49.4667 224.274 86.009 224.274 128.175C224.274 135.216 223.274 142.839 221.821 149.548C215.267 176.177 198.32 198.798 175.502 211.916C164.136 218.445 150.95 223.257 137.259 224.18C134.969 224.333 127.534 224.265 122.484 224.214C120.663 224.197 119.159 224.18 118.305 224.18C68.8322 217.172 31.9907 180.621 31.9907 128.175C31.9907 114.86 34.5289 101.528 39.7077 89.2821C45.0831 76.5829 54.3127 65.7381 63.9183 56.3461C72.3788 48.0908 82.839 43.5272 93.1454 39.0321C94.6409 38.3826 96.1279 37.7331 97.6064 37.0751C102.922 34.7078 106.503 34.1951 111.006 33.5456C112.869 33.2721 114.886 32.9816 117.253 32.5201C121.415 31.7253 125.791 31.9902 130.132 32.2552C132.286 32.3919 134.439 32.5201 136.55 32.5201Z" stroke="black"/>
<path fill-rule="evenodd" clip-rule="evenodd" d="M128.124 27L159.376 31.9566L187.569 46.3138L209.943 68.687L224.308 96.8715L229.265 128.124L224.308 159.376L209.943 187.569L187.569 209.943L159.376 224.308L128.124 229.265L96.88 224.308L68.687 209.943L46.3138 187.569L31.9566 159.376L27 128.124L31.9566 96.88L46.3138 68.687L68.687 46.3138L96.88 31.9566L128.124 27ZM98.6405 37.3833L72.037 50.9286L50.9371 72.037L37.3833 98.6405L32.7087 128.124L37.3833 157.616L50.9371 184.211L72.037 205.319L98.6405 218.882L128.124 223.556L157.616 218.882L184.211 205.319L205.319 184.211L218.882 157.616L223.556 128.124L218.882 98.6405L205.319 72.037L184.211 50.9286L157.616 37.3833L128.124 32.7087L98.6405 37.3833Z" fill="black"/>
<path fill-rule="evenodd" clip-rule="evenodd" d="M127.406 59.1496C128.073 58.748 128.936 58.9702 129.337 59.6367L151.531 96.8799C151.933 97.5465 151.711 98.4182 151.044 98.8113C150.377 99.2129 149.506 98.9907 149.113 98.3241L126.91 61.081C126.517 60.4144 126.731 59.5513 127.406 59.1496Z" fill="black"/>
<path fill-rule="evenodd" clip-rule="evenodd" d="M128.124 58.9448L173.939 63.9015L173.64 66.7045L128.124 61.7821L82.617 66.7045L82.3179 63.9015L128.124 58.9448Z" fill="black"/>
<path fill-rule="evenodd" clip-rule="evenodd" d="M104.52 97.5893C104.52 96.8031 105.153 96.1792 105.93 96.1792H150.318C151.096 96.1792 151.728 96.8031 151.728 97.5893C151.728 98.367 151.096 98.9994 150.318 98.9994H105.93C105.153 98.9994 104.52 98.367 104.52 97.5893Z" fill="black"/>
<path fill-rule="evenodd" clip-rule="evenodd" d="M128.842 59.1496C129.508 59.5513 129.73 60.4144 129.329 61.081L107.144 98.3241C106.742 98.9907 105.879 99.2129 105.212 98.8113C104.546 98.4182 104.323 97.5465 104.725 96.8799L126.91 59.6367C127.303 58.9702 128.167 58.748 128.842 59.1496Z" fill="black"/>
<path fill-rule="evenodd" clip-rule="evenodd" d="M97.299 32.4434L128.124 58.5084L158.949 32.4434L175.05 64.6615L172.529 65.9263L158.035 36.9129L128.124 62.2003L98.2134 36.9129L83.7281 65.9263L81.207 64.6615L97.299 32.4434Z" fill="black"/>
<path fill-rule="evenodd" clip-rule="evenodd" d="M69.5332 47.4846C70.1656 47.0231 71.0459 47.1599 71.5073 47.7923L128.124 125.731L184.749 47.7923C185.211 47.1599 186.091 47.0231 186.724 47.4846C187.347 47.9376 187.493 48.8178 187.031 49.4502L129.269 128.961C129.004 129.329 128.577 129.543 128.124 129.543C127.68 129.543 127.252 129.329 126.988 128.961L69.2256 49.4502C68.7641 48.8178 68.9094 47.9376 69.5332 47.4846Z" fill="black"/>
<path fill-rule="evenodd" clip-rule="evenodd" d="M106.981 96.6313C107.323 97.0073 107.434 97.5372 107.28 98.0158L93.8804 139.267L128.825 164.657L168.529 181.68C169.247 181.988 169.58 182.817 169.273 183.526C168.965 184.244 168.136 184.577 167.418 184.27L127.568 167.186C127.474 167.144 127.38 167.092 127.295 167.033L91.3935 140.942C90.8979 140.583 90.6927 139.951 90.8808 139.37L103.828 99.5113L63.9782 108.553C63.2176 108.724 62.457 108.254 62.2861 107.493C62.1152 106.733 62.5937 105.981 63.3543 105.801L105.631 96.2126C106.118 96.0929 106.639 96.2553 106.981 96.6313Z" fill="black"/>
<path fill-rule="evenodd" clip-rule="evenodd" d="M62.7303 106.135C63.3199 105.622 64.2087 105.682 64.7215 106.272L93.2819 138.891C93.7947 139.481 93.7349 140.37 93.1538 140.883C92.5641 141.395 91.6753 141.336 91.1626 140.754L62.6021 108.126C62.0893 107.545 62.1491 106.648 62.7303 106.135Z" fill="black"/>
<path fill-rule="evenodd" clip-rule="evenodd" d="M84.8131 63.5171L65.1917 107.221L65.4139 107.759L64.9182 108.067L55.7826 151.643L89.1203 181.835L128.799 204.602L157.548 219.54L166.888 181.494L205.943 184.374L200.61 152.378L203.396 151.916L209.31 187.45L169.059 184.476L159.428 223.693L127.423 207.063L87.4538 184.134L53.253 153.155L27.5811 127.885L61.9015 106.623L46.6385 69.2429L84.8131 63.5171ZM61.6024 110.127L32.1189 128.389L53.3898 149.327L61.6024 110.127ZM63.7218 103.615L80.1214 67.0722L50.6038 71.499L63.7218 103.615Z" fill="black"/>
<path fill-rule="evenodd" clip-rule="evenodd" d="M92.3594 138.405C93.1285 138.482 93.7011 139.166 93.6327 139.943L89.693 183.109C89.6247 183.886 88.941 184.459 88.1633 184.391C87.3856 184.314 86.8131 183.63 86.89 182.852L90.8211 139.687C90.8895 138.909 91.5817 138.337 92.3594 138.405Z" fill="black"/>
<path fill-rule="evenodd" clip-rule="evenodd" d="M129.423 165.333C129.731 166.042 129.397 166.871 128.688 167.179L88.847 184.27C88.1291 184.57 87.3002 184.245 86.9925 183.527C86.6849 182.809 87.0181 181.98 87.736 181.672L127.577 164.589C128.286 164.282 129.115 164.615 129.423 165.333Z" fill="black"/>
<path fill-rule="evenodd" clip-rule="evenodd" d="M50.3046 184.373L55.6373 152.377L52.8513 151.916L46.9375 187.449L87.2059 184.484L96.8201 223.693L128.773 207.097L127.474 204.593L98.7002 219.539L89.3766 181.493L50.3046 184.373Z" fill="black"/>
<path fill-rule="evenodd" clip-rule="evenodd" d="M128.961 126.979C129.329 127.244 129.542 127.671 129.542 128.116V226.411C129.542 227.189 128.91 227.821 128.132 227.821C127.355 227.821 126.722 227.189 126.722 226.411V130.064L35.11 159.83C34.375 160.069 33.5802 159.667 33.341 158.924C33.0931 158.189 33.5033 157.385 34.2383 157.146L127.697 126.782C128.124 126.637 128.594 126.714 128.961 126.979Z" fill="black"/>
<path fill-rule="evenodd" clip-rule="evenodd" d="M172.674 64.4396C172.981 64.0294 173.494 63.8243 174.007 63.9012L207.84 68.9775C208.268 69.0373 208.644 69.2937 208.857 69.6697C209.071 70.0457 209.097 70.4986 208.934 70.9003L194.355 106.622L227.154 126.944C227.522 127.167 227.761 127.551 227.812 127.979C227.855 128.414 227.71 128.842 227.402 129.141L203.012 153.138L202.961 153.189H202.952L202.935 153.206L168.922 184.031C168.529 184.39 167.965 184.493 167.461 184.296C166.965 184.108 166.623 183.647 166.572 183.117L162.649 140.097L148.984 98.0336C148.822 97.5465 148.942 97.0166 149.284 96.6406C149.625 96.2732 150.138 96.1108 150.634 96.2219L190.159 105.187L172.511 65.8753C172.298 65.3967 172.358 64.8498 172.674 64.4396ZM189.979 108.041L152.428 99.5206L164.615 137.02L189.979 108.041ZM165.495 140.285L169.127 180.04L200.465 151.642L191.8 110.246L165.495 140.285ZM194.654 110.126L202.858 149.326L224.137 128.389L194.654 110.126ZM192.534 103.606L205.644 71.4985L176.135 67.0717L192.534 103.606Z" fill="black"/>
<path fill-rule="evenodd" clip-rule="evenodd" d="M126.782 127.68C127.022 126.945 127.816 126.535 128.56 126.782L222.027 157.146C222.77 157.385 223.172 158.189 222.932 158.924C222.693 159.667 221.898 160.069 221.155 159.829L127.688 129.457C126.945 129.218 126.543 128.423 126.782 127.68Z" fill="black"/>
<path fill-rule="evenodd" clip-rule="evenodd" d="M165.179 138.986C165.641 139.61 165.495 140.499 164.863 140.952L128.953 167.034C128.32 167.495 127.44 167.359 126.987 166.726C126.526 166.094 126.663 165.213 127.295 164.752L163.205 138.67C163.837 138.217 164.718 138.354 165.179 138.986Z" fill="black"/>
<path fill-rule="evenodd" clip-rule="evenodd" d="M167.273 181.766C167.897 181.407 168.691 181.578 169.119 182.16L187.031 206.823C187.484 207.455 187.347 208.336 186.715 208.797C186.091 209.25 185.202 209.113 184.749 208.481L167.58 184.843L128.825 207.071C128.15 207.455 127.286 207.225 126.902 206.55C126.509 205.874 126.748 205.011 127.423 204.627L167.273 181.766Z" fill="black"/>
<path fill-rule="evenodd" clip-rule="evenodd" d="M128.124 28.4443C128.902 28.4443 129.534 29.0767 129.534 29.8544V60.3463C129.534 61.124 128.902 61.7564 128.124 61.7564C127.347 61.7564 126.714 61.124 126.714 60.3463V29.8544C126.714 29.0767 127.347 28.4443 128.124 28.4443Z" fill="black"/>
<path fill-rule="evenodd" clip-rule="evenodd" d="M222.932 97.3324C223.172 98.0759 222.762 98.8706 222.027 99.1099L193.03 108.528C192.287 108.775 191.492 108.365 191.253 107.63C191.013 106.887 191.415 106.092 192.159 105.853L221.155 96.4265C221.89 96.1872 222.685 96.5889 222.932 97.3324Z" fill="black"/>
<path fill-rule="evenodd" clip-rule="evenodd" d="M89.1203 181.852C89.7527 182.314 89.8894 183.194 89.4279 183.818L71.5071 208.481C71.0456 209.114 70.1654 209.251 69.533 208.798C68.9006 208.336 68.7639 207.456 69.2253 206.823L87.1462 182.16C87.6076 181.536 88.4879 181.391 89.1203 181.852Z" fill="black"/>
<path fill-rule="evenodd" clip-rule="evenodd" d="M33.341 97.3324C33.5802 96.5889 34.375 96.1872 35.11 96.4265L64.1063 105.853C64.8498 106.092 65.2515 106.887 65.0122 107.63C64.7729 108.365 63.9781 108.775 63.2346 108.528L34.2383 99.1099C33.5033 98.8706 33.0931 98.0759 33.341 97.3324Z" fill="black"/>
</g>
<defs>
<linearGradient id="paint0_linear_1239_2" x1="200.127" y1="170.043" x2="73.0718" y2="43.5879" gradientUnits="userSpaceOnUse">
<stop stop-color="#EF4136"/>
<stop offset="0.01" stop-color="#EF4136"/>
<stop offset="0.32" stop-color="#DF5153"/>
<stop offset="1" stop-color="#AC0B1B"/>
</linearGradient>
<clipPath id="clip0_1239_2">
<rect width="256" height="256" fill="white"/>
</clipPath>
</defs>
</svg>
