<svg width="256" height="256" viewBox="0 0 256 256" fill="none" xmlns="http://www.w3.org/2000/svg">
<g clip-path="url(#clip0_1239_2)">
<rect width="256" height="256" fill="#191919"/>
<path d="M204.235 87C204.235 87 202.328 94.8337 188.978 94.8337C184.499 94.8337 182.972 96.1635 181.956 97.3727C181.223 98.2415 180.749 99.0517 179.637 99.2637C177.864 98.9226 177.718 97.0733 175.558 95.8768C174.471 95.2739 172.873 94.8337 170.296 94.8337C156.946 94.8337 154.186 87 154.186 87C151.181 98.4199 160.692 106.661 166.65 110.821C169.643 112.911 170.75 116.817 169.293 120.163C162.353 136.1 154.394 141.071 143.584 141.071C141.623 141.071 139.596 140.917 137.49 140.655C136.915 140.584 136.336 140.501 135.75 140.414C135.358 140.356 134.967 140.294 134.572 140.227C134.176 140.16 133.781 140.094 133.377 140.023C129.772 139.379 125.963 138.502 121.929 137.563C121.534 137.472 121.134 137.376 120.734 137.285C114.794 135.897 108.375 134.413 101.428 133.362C100.741 133.258 100.063 133.162 99.3966 133.071C99.2301 133.046 99.0636 133.025 98.8971 133.004C98.5681 132.963 98.2392 132.921 97.9103 132.884C97.7479 132.863 97.5854 132.846 97.4235 132.825C97.0987 132.788 96.7779 132.755 96.4576 132.718C95.8207 132.651 95.1918 132.588 94.5717 132.535C91.7911 132.294 89.202 132.181 86.7956 132.181C82.121 132.181 78.1331 132.601 74.7533 133.27C74.3953 133.341 74.0496 133.411 73.7085 133.486C73.3668 133.561 73.0297 133.64 72.7008 133.723C72.2054 133.844 71.7268 133.969 71.2604 134.101C70.9523 134.189 70.6443 134.276 70.349 134.368C70.0491 134.459 69.7578 134.55 69.4747 134.646C69.1875 134.741 68.9085 134.837 68.6341 134.932C68.4966 134.983 68.3632 135.028 68.2303 135.082C67.9635 135.182 67.7013 135.282 67.4477 135.381C67.3184 135.431 67.1936 135.481 67.0689 135.535C66.8189 135.639 66.5735 135.743 66.3362 135.847C66.2196 135.901 66.0989 135.955 65.9823 136.005C65.7491 136.113 65.5241 136.217 65.3037 136.321C63.4263 137.226 61.9485 138.174 60.8079 139.039C60.6747 139.138 60.5457 139.238 60.4208 139.337C60.2127 139.504 60.0129 139.67 59.8297 139.828C59.7964 139.862 59.7631 139.886 59.7298 139.915C59.7256 139.919 59.7173 139.924 59.7131 139.928C59.7006 139.936 59.6923 139.948 59.6798 139.957C59.6549 139.978 59.634 139.998 59.609 140.019C59.5424 140.082 59.4717 140.14 59.4092 140.198C58.3977 141.112 57.69 141.902 57.1281 142.887C56.2789 144.37 56 145.397 56 145.397C59.3218 152.96 64.0673 159.917 70.0867 165.931C70.1198 165.964 70.1575 165.997 70.1906 166.03C70.1906 166.03 70.1947 166.034 70.1993 166.038C70.2324 166.076 70.2655 166.109 70.2991 166.143C82.4876 178.319 98.5305 185.251 115.677 185.816C116.922 188.571 119.432 192.323 123.774 191.846C123.774 191.846 126.537 199.513 134.026 197.809C134.026 197.809 134.68 205.103 151.135 204.999C151.135 204.999 140.666 199.455 140.612 189.88C140.595 187.158 140.129 184.694 139.171 182.466C148.875 179.262 157.774 173.847 165.251 166.475C165.363 166.363 165.476 166.254 165.588 166.143C169.901 161.837 173.556 157.045 176.507 151.896C181.673 142.878 184.67 132.751 185.228 122.175C185.236 122.029 185.245 121.883 185.249 121.738C185.398 120.624 185.515 119.614 185.611 118.725C185.852 116.439 187.134 114.407 189.062 113.152C195.955 108.664 208.202 97.5888 204.222 87.0041H204.226L204.235 87Z" fill="white"/>
<path d="M55.5162 118.143C55.5162 101.675 61.9623 86.1964 73.6659 74.5486C76.9931 71.2368 80.6375 68.3477 84.5232 65.91C97.2236 57.9432 114.06 66.4779 114.498 81.4005C114.506 81.6865 114.51 81.977 114.51 82.2711V128.755L120.443 129.841V82.2711C120.443 81.9729 120.448 81.6784 120.456 81.3843C120.906 66.4657 137.726 57.9349 150.431 65.8938C154.325 68.3351 157.973 71.2286 161.309 74.5446C165.449 78.6646 168.931 83.2658 171.703 88.2194C174.184 88.3934 176.273 88.945 178.058 89.8815C178.395 90.0599 178.708 90.2465 179 90.4372C175.689 83.1665 171.049 76.4763 165.207 70.6648C158.448 63.9412 150.505 58.8178 141.85 55.4892C141.416 55.3234 140.982 55.1617 140.549 55.0043C139.398 54.5897 138.234 54.2042 137.059 53.8519C134.807 53.1762 132.523 52.6207 130.2 52.1814C126.969 51.572 123.675 51.1948 120.339 51.0622C119.393 51.0207 118.442 51 117.487 51C116.533 51 115.569 51.0207 114.614 51.0622C111.291 51.199 108.014 51.572 104.8 52.1772C102.473 52.6125 100.18 53.1721 97.9284 53.8477C96.7442 54.2001 95.5723 54.5856 94.4135 55.0084C93.9795 55.1659 93.542 55.3276 93.1125 55.4934C84.461 58.8219 76.5224 63.9412 69.7634 70.6648C57.0214 83.349 50 100.212 50 118.143C50 124.618 50.9131 130.948 52.6851 137C53.2272 136.362 53.9818 135.566 54.9826 134.695C55.708 134.065 56.4752 133.464 57.2924 132.892C56.1208 128.121 55.5162 123.18 55.5162 118.147V118.143Z" fill="#3CCD64"/>
</g>
<defs>
<clipPath id="clip0_1239_2">
<rect width="256" height="256" fill="white"/>
</clipPath>
</defs>
</svg>
