<svg width="256" height="256" viewBox="0 0 256 256" fill="none" xmlns="http://www.w3.org/2000/svg">
<g clip-path="url(#clip0_1239_2)">
<circle cx="128" cy="128" r="98" fill="#0D1126"/>
<rect width="256" height="256" fill="#0D1126"/>
<path d="M164.787 57.2522C185.44 66.2691 199.638 88.1674 198.347 110.066C160.915 110.066 123.482 110.066 87.3403 110.066C87.3403 95.8962 92.5034 80.4386 102.83 70.1335C117.028 52.0996 144.135 46.9471 164.787 57.2522Z" fill="#5FC0C1"/>
<path d="M162.206 197.659C164.787 197.659 166.078 198.947 166.078 200.235C166.078 201.524 164.787 202.812 162.206 202.812H102.83C100.248 202.812 98.9575 201.524 98.9575 200.235C98.9575 198.947 100.248 197.659 102.83 197.659H162.206Z" fill="#E1177C"/>
<path d="M89.9219 204.099C92.5035 204.099 93.7942 202.811 93.7942 200.235C93.7942 197.659 92.5035 196.371 89.9219 196.371C87.3403 196.371 86.0496 197.659 86.0496 200.235C86.0496 202.811 87.3403 204.099 89.9219 204.099Z" fill="#E1177C"/>
<path d="M126.064 188.642C128.645 188.642 129.936 187.354 129.936 184.777C129.936 182.201 128.645 180.913 126.064 180.913C123.482 180.913 122.191 182.201 122.191 184.777C122.191 187.354 123.482 188.642 126.064 188.642Z" fill="#E1177C"/>
<path d="M195.766 180.913C198.348 180.913 199.638 182.201 199.638 184.777C199.638 187.354 198.348 188.642 195.766 188.642H137.681C135.099 188.642 133.809 187.354 133.809 184.777C133.809 182.201 135.099 180.913 137.681 180.913H195.766Z" fill="#E1177C"/>
<path d="M48.617 173.184C51.1985 173.184 52.4893 171.896 52.4893 169.32C52.4893 166.744 51.1985 165.456 48.617 165.456C46.0354 165.456 44.7446 166.744 44.7446 169.32C44.7446 171.896 47.3262 173.184 48.617 173.184Z" fill="#E1177C"/>
<path d="M106.702 165.456C109.284 165.456 110.574 166.744 110.574 169.32C110.574 171.896 109.284 173.184 106.702 173.184H58.9431C56.3616 173.184 55.0708 171.896 55.0708 169.32C55.0708 166.744 56.3616 165.456 58.9431 165.456H106.702Z" fill="#E1177C"/>
<path d="M215.128 165.456C217.709 165.456 219 166.744 219 169.32C219 171.896 217.709 173.184 215.128 173.184H119.61C117.028 173.184 115.738 171.896 115.738 169.32C115.738 166.744 117.028 165.456 119.61 165.456H215.128Z" fill="#E1177C"/>
<path d="M197.057 149.998C199.638 149.998 200.929 151.286 200.929 153.862C200.929 156.439 199.638 157.727 197.057 157.727H79.5957C78.3049 159.015 75.7234 156.439 75.7234 153.862C75.7234 151.286 77.0142 149.998 79.5957 149.998H197.057Z" fill="#E1177C"/>
<path d="M66.688 159.015C69.2696 159.015 70.5604 157.727 70.5604 155.151C70.5604 152.574 69.2696 149.998 66.688 149.998C64.1065 149.998 62.8157 152.574 62.8157 153.862C62.8157 155.151 64.1065 159.015 66.688 159.015Z" fill="#E1177C"/>
<path d="M172.532 135.829C175.113 135.829 176.404 137.117 176.404 139.693C176.404 142.269 175.113 143.557 172.532 143.557H55.0708C53.78 143.557 51.1985 142.269 51.1985 139.693C51.1985 137.117 52.4893 135.829 55.0708 135.829H172.532Z" fill="#E1177C"/>
<path d="M40.8723 143.557C43.4539 143.557 44.7447 142.269 44.7447 139.693C44.7447 137.117 43.4539 135.829 40.8723 135.829C38.2908 135.829 37 137.117 37 139.693C37 142.269 38.2908 143.557 40.8723 143.557Z" fill="#E1177C"/>
<path d="M66.688 128.099C69.2696 128.099 70.5604 126.811 70.5604 124.235C70.5604 121.659 69.2696 120.371 66.688 120.371C64.1065 120.371 62.8157 122.947 62.8157 124.235C62.8157 126.811 64.1065 128.099 66.688 128.099Z" fill="#E1177C"/>
<path d="M208.674 120.371C211.255 120.371 212.546 121.659 212.546 124.235C212.546 126.811 211.255 128.099 208.674 128.099H80.8865C78.3049 128.099 77.0142 126.811 77.0142 124.235C77.0142 121.659 78.3049 120.371 80.8865 120.371H208.674Z" fill="#E1177C"/>
</g>
<defs>
<clipPath id="clip0_1239_2">
<rect width="256" height="256" fill="white"/>
</clipPath>
</defs>
</svg>
