<svg width="500" height="500" viewBox="0 0 500 500" fill="none" xmlns="http://www.w3.org/2000/svg">
<g clip-path="url(#clip0_538_458)">
<rect y="-1" width="500" height="500" fill="#FF0420"/>
<path d="M177.1 316.4C162.2 316.4 150 312.9 140.5 305.9C131.1 298.8 126.4 288.6 126.4 275.5C126.4 272.7 126.7 269.4 127.3 265.4C128.9 256.4 131.2 245.6 134.2 232.9C142.7 198.5 164.7 181.3 200.1 181.3C209.7 181.3 218.4 182.9 226 186.2C233.6 189.3 239.6 194.1 244 200.5C248.4 206.8 250.6 214.3 250.6 223C250.6 225.6 250.3 228.9 249.7 232.9C247.8 244 245.6 254.9 242.9 265.4C238.5 282.5 231 295.4 220.2 303.9C209.5 312.3 195.1 316.4 177.1 316.4ZM179.8 289.4C186.8 289.4 192.7 287.3 197.6 283.2C202.6 279.1 206.2 272.8 208.3 264.2C211.2 252.4 213.4 242.2 214.9 233.4C215.4 230.8 215.7 228.1 215.7 225.3C215.7 213.9 209.8 208.2 197.9 208.2C190.9 208.2 184.9 210.3 179.9 214.4C175 218.5 171.5 224.8 169.4 233.4C167.1 241.8 164.9 252 162.6 264.2C162.1 266.7 161.8 269.3 161.8 272.1C161.7 283.7 167.8 289.4 179.8 289.4Z" fill="white"/>
<path d="M259.301 314.6C257.901 314.6 256.901 314.2 256.101 313.3C255.501 312.3 255.301 311.2 255.501 309.9L281.401 187.9C281.601 186.5 282.301 185.4 283.501 184.5C284.601 183.6 285.801 183.2 287.101 183.2H337.001C350.901 183.2 362.001 186.1 370.401 191.8C378.901 197.6 383.201 205.9 383.201 216.8C383.201 219.9 382.801 223.2 382.101 226.6C379.001 241 372.701 251.6 363.101 258.5C353.701 265.4 340.801 268.8 324.401 268.8H299.101L290.501 309.9C290.201 311.3 289.601 312.4 288.401 313.3C287.301 314.2 286.101 314.6 284.801 314.6H259.301ZM325.701 242.9C331.001 242.9 335.501 241.5 339.401 238.6C343.401 235.7 346.001 231.6 347.301 226.2C347.701 224.1 347.901 222.2 347.901 220.6C347.901 217 346.801 214.2 344.701 212.3C342.601 210.3 338.901 209.3 333.801 209.3H311.301L304.201 242.9H325.701Z" fill="white"/>
</g>
<defs>
<clipPath id="clip0_538_458">
<rect width="500" height="500" fill="white"/>
</clipPath>
</defs>
</svg>
