<svg width="256" height="256" viewBox="0 0 256 256" fill="none" xmlns="http://www.w3.org/2000/svg">
<g clip-path="url(#clip0_666_10)">
<path d="M256 0H0V256H256V0Z" fill="#311777"/>
<path d="M176.744 84.1128H175.162C153.469 84.1128 140.589 97.7665 131.777 109.615C128.387 114.241 125.223 118.981 122.286 123.607C116.637 132.409 111.213 140.646 104.886 146.626C98.2203 152.946 89.7466 156.331 80.5949 156.331C73.1379 156.105 66.133 152.946 60.9357 147.642C55.7385 142.226 52.9139 135.117 52.9139 127.669C52.9139 120.222 56.0774 112.549 61.3876 107.245C66.8109 101.829 74.0418 98.7821 81.8377 98.7821C85.0012 98.7821 88.6167 99.4591 92.2322 100.588C92.9101 100.813 93.475 101.377 93.701 102.054C93.927 102.844 93.814 103.634 93.362 104.198L74.6067 130.942C74.0418 131.732 73.9288 132.747 74.3808 133.65C74.8327 134.553 75.7366 135.004 76.6404 135.004H87.2609C88.7297 135.004 90.0855 134.327 90.8764 133.086L110.197 105.327C110.988 104.198 111.439 102.957 111.778 101.603C112.004 100.249 112.004 98.8949 111.778 97.6537C111.439 96.2996 110.875 95.0584 110.197 94.0428C109.406 92.9144 108.389 92.0117 107.259 91.3346C106.468 90.8833 105.677 90.4319 104.773 89.9805C97.6554 86.144 89.6336 84.1128 81.4987 84.1128C69.8614 84.1128 59.015 88.6265 50.7672 96.8638C42.6323 104.988 38 116.16 38 127.669C38 139.179 42.2934 149.673 50.2022 157.798C58.1111 166.035 68.7316 170.661 80.03 171C92.2322 171 103.079 166.825 113.021 158.136C121.834 150.463 128.726 140.42 134.375 131.619C138.782 124.735 142.962 118.304 147.481 113C149.063 111.082 150.645 109.502 152.227 108.035C159.119 101.603 166.463 98.6693 175.162 98.6693H176.292C183.749 98.8949 190.754 101.942 195.951 107.358C200.358 111.984 203.295 118.191 203.86 124.623C203.973 125.638 204.086 126.541 204.086 127.556C204.086 135.23 201.036 142.451 195.612 147.868C190.189 153.284 182.958 156.331 175.162 156.331C171.208 156.331 167.366 155.315 164.768 154.525C164.09 154.3 163.525 153.735 163.299 153.058C163.073 152.268 163.186 151.479 163.638 150.802L182.393 124.284C182.958 123.494 183.071 122.479 182.619 121.576C182.167 120.673 181.263 120.222 180.36 120.222H169.739C168.27 120.222 167.027 120.899 166.124 122.14L146.803 149.673C146.012 150.802 145.561 152.043 145.222 153.397C144.996 154.751 144.996 156.105 145.222 157.346C145.561 158.7 146.125 159.942 146.803 160.957C147.594 162.086 148.611 162.988 149.741 163.665C150.532 164.117 151.323 164.568 152.114 165.019C159.232 168.856 167.253 170.887 175.388 170.887C187.026 170.887 197.985 166.374 206.233 158.136C214.481 149.899 219 139.066 219 127.556C219 116.047 214.594 105.214 206.798 97.2023C198.889 88.965 188.268 84.3385 176.97 84L176.744 84.1128Z" fill="#6666FE"/>
</g>
<defs>
<clipPath id="clip0_666_10">
<rect width="256" height="256" fill="white"/>
</clipPath>
</defs>
</svg>
