<svg width="256" height="256" viewBox="0 0 256 256" fill="none" xmlns="http://www.w3.org/2000/svg">
<g clip-path="url(#clip0_1239_2)">
<rect width="256" height="256" fill="#1E1E1E"/>
<rect width="256" height="256" fill="black"/>
<path d="M160.793 73H96V87.2226H160.793V73Z" fill="#E50913"/>
<path d="M162.033 123.368C162.033 128.381 160.883 132.983 158.581 137.174C156.281 141.283 152.747 144.611 147.981 147.158C143.215 149.706 137.298 150.979 130.231 150.979H117.165V182.042H96.0862V95.5103H130.231C137.133 95.5103 142.968 96.7019 147.734 99.0849C152.5 101.468 156.075 104.755 158.458 108.946C160.841 113.137 162.033 117.945 162.033 123.368ZM128.628 134.216C132.655 134.216 135.654 133.271 137.626 131.38C139.599 129.49 140.585 126.82 140.585 123.368C140.585 119.917 139.599 117.246 137.626 115.356C135.654 113.466 132.655 112.521 128.628 112.521H117.165V134.216H128.628Z" fill="white"/>
</g>
<defs>
<clipPath id="clip0_1239_2">
<rect width="256" height="256" fill="white"/>
</clipPath>
</defs>
</svg>
