<svg width="256" height="256" viewBox="0 0 256 256" fill="none" xmlns="http://www.w3.org/2000/svg">
<g clip-path="url(#clip0_1239_2)">
<rect width="256" height="256" fill="white"/>
<path d="M173.122 97.9473C169.895 96.107 165.745 96.107 162.057 97.9473L136.238 113.13L118.718 122.791L93.3598 137.973C90.1325 139.814 85.983 139.814 82.2946 137.973L62.4693 126.012C59.2419 124.171 56.9366 120.491 56.9366 116.35V93.3466C56.9366 89.666 58.7809 85.9855 62.4693 83.6851L82.2946 72.1834C85.5219 70.3431 89.6714 70.3431 93.3598 72.1834L113.185 84.1452C116.412 85.9855 118.718 89.666 118.718 93.8066V108.989L136.238 98.8674V83.225C136.238 79.5445 134.394 75.8639 130.705 73.5636L93.8209 51.9403C90.5935 50.1 86.444 50.1 82.7556 51.9403L44.9493 74.0236C41.2608 75.8639 39.4166 79.5445 39.4166 83.225V126.472C39.4166 130.152 41.2608 133.833 44.9493 136.133L82.2946 157.756C85.5219 159.597 89.6714 159.597 93.3598 157.756L118.718 143.034L136.238 132.913L161.596 118.19C164.823 116.35 168.973 116.35 172.661 118.19L192.486 129.692C195.714 131.532 198.019 135.213 198.019 139.354V162.357C198.019 166.038 196.175 169.718 192.486 172.019L173.122 183.52C169.895 185.361 165.745 185.361 162.057 183.52L142.231 172.019C139.004 170.178 136.699 166.498 136.699 162.357V147.635L119.179 157.756V172.939C119.179 176.619 121.023 180.3 124.711 182.6L162.057 204.223C165.284 206.064 169.434 206.064 173.122 204.223L210.467 182.6C213.695 180.76 216 177.079 216 172.939V129.232C216 125.551 214.156 121.871 210.467 119.571L173.122 97.9473Z" fill="#8247E5"/>
</g>
<defs>
<clipPath id="clip0_1239_2">
<rect width="256" height="256" fill="white"/>
</clipPath>
</defs>
</svg>
