<svg width="256" height="256" viewBox="0 0 256 256" fill="none" xmlns="http://www.w3.org/2000/svg">
<rect width="256" height="256" fill="black"/>
<path fill-rule="evenodd" clip-rule="evenodd" d="M147.483 50.0699C136.723 39.31 119.277 39.31 108.517 50.0699L50.0699 108.517C39.31 119.277 39.31 136.723 50.0699 147.483L108.517 205.93C119.277 216.69 136.723 216.69 147.483 205.93L205.93 147.483C216.69 136.723 216.69 119.277 205.93 108.517L147.483 50.0699ZM183.105 100.571C183.105 85.3537 170.769 73.0182 155.553 73.0182H100.447C85.2308 73.0182 72.8951 85.3537 72.8951 100.571V155.676C72.8951 170.892 85.2308 183.228 100.447 183.228H155.553C170.769 183.228 183.105 170.892 183.105 155.676V100.571Z" fill="white"/>
<path d="M120.209 81.3622C124.513 77.0583 131.491 77.0583 135.795 81.3622L174.76 120.327C179.064 124.631 179.064 131.609 174.76 135.913L135.795 174.878C131.491 179.182 124.513 179.182 120.209 174.878L81.2435 135.913C76.9397 131.609 76.9397 124.631 81.2435 120.327L120.209 81.3622Z" fill="white"/>
</svg>
