<svg version="1.1" id="Layer_1" xmlns="http://www.w3.org/2000/svg" xmlns:xlink="http://www.w3.org/1999/xlink" x="0px" y="0px"
	 width="100%" viewBox="0 0 1080 1080" enable-background="new 0 0 1080 1080" xml:space="preserve">
<path fill="#000000" opacity="1.000000" stroke="none" 
	d="
M580.000000,1081.000000 
	C386.688904,1081.000000 193.877838,1081.000000 1.033378,1081.000000 
	C1.033378,721.063782 1.033378,361.127594 1.033378,1.095691 
	C360.894623,1.095691 720.789307,1.095691 1080.842041,1.095691 
	C1080.842041,360.999939 1080.842041,720.999939 1080.842041,1081.000000 
	C914.127136,1081.000000 747.313538,1081.000000 580.000000,1081.000000 
M823.251587,298.248749 
	C755.613586,230.610764 687.979065,162.969376 620.336426,95.335983 
	C577.348999,52.354393 504.708740,52.298988 461.777863,95.223061 
	C380.575378,176.412567 299.378815,257.608032 218.190079,338.811279 
	C175.280838,381.728210 175.365204,454.366547 218.363403,497.368896 
	C299.437653,578.450989 380.516144,659.528748 461.597656,740.603577 
	C504.772064,783.774353 577.281250,783.722900 620.511719,740.494690 
	C701.474243,659.536560 782.433838,578.575623 863.392944,497.614044 
	C904.631897,456.373871 907.297424,387.971771 868.638855,344.328705 
	C854.519409,328.388763 838.761841,313.899750 823.251587,298.248749 
M656.741211,966.939575 
	C664.387878,966.939575 672.034546,966.939575 679.784363,966.939575 
	C689.794495,932.264160 699.720276,897.880981 709.646057,863.497742 
	C709.807251,863.492554 709.968384,863.487427 710.129517,863.482239 
	C710.129517,897.813049 710.129517,932.143799 710.129517,966.656799 
	C719.543457,966.656799 728.430664,966.656799 737.335327,966.656799 
	C737.335327,918.179993 737.335327,869.987000 737.335327,821.729431 
	C723.179993,821.729431 709.405151,821.729431 695.143860,821.729431 
	C685.195007,858.483826 675.276855,895.124695 665.831848,930.017822 
	C656.265747,894.851074 646.290405,858.179688 636.394165,821.799072 
	C622.011414,821.799072 608.432007,821.799072 594.847534,821.799072 
	C594.847534,870.330444 594.847534,918.535583 594.847534,966.584717 
	C603.965698,966.584717 612.706177,966.584717 620.893799,966.584717 
	C620.893799,930.246765 620.893799,894.264587 620.893799,858.347839 
	C631.029053,894.506531 641.164124,930.664612 651.331909,966.939575 
	C653.174255,966.939575 654.492188,966.939575 656.741211,966.939575 
M406.500061,942.158691 
	C395.223297,942.158691 383.946533,942.158691 372.802429,942.158691 
	C372.802429,928.782349 372.802429,916.036926 372.802429,902.989502 
	C395.368439,902.989502 417.653870,902.989502 440.125488,902.989502 
	C440.125488,894.893799 440.125488,887.105469 440.125488,878.810913 
	C417.565582,878.810913 395.163544,878.810913 372.852905,878.810913 
	C372.852905,867.716980 372.852905,857.132080 372.852905,846.161194 
	C398.610046,846.161194 424.037415,846.161194 449.698364,846.161194 
	C449.698364,837.849426 449.698364,829.929810 449.698364,821.744385 
	C414.172913,821.744385 378.755493,821.744385 343.275543,821.744385 
	C343.275543,870.187012 343.275543,918.419067 343.275543,966.603394 
	C379.102448,966.603394 414.646301,966.603394 450.220276,966.603394 
	C450.220276,958.337158 450.220276,950.406555 450.220276,942.158691 
	C435.782318,942.158691 421.641174,942.158691 406.500061,942.158691 
M566.522400,870.160156 
	C571.904419,854.179016 577.286438,838.197815 582.916260,821.480896 
	C573.785156,821.480896 565.188538,821.623474 556.601257,821.402344 
	C553.651489,821.326416 552.670288,822.456848 551.888794,825.089355 
	C545.701294,845.932129 539.315186,866.715942 533.073364,887.542786 
	C529.081238,900.863281 525.230652,914.226257 521.214600,927.917847 
	C510.399689,892.118225 499.718964,856.762878 489.149719,821.776489 
	C478.506775,821.776489 468.589050,821.776489 458.172363,821.776489 
	C474.568939,870.414917 490.824158,918.633972 507.046326,966.755066 
	C516.205017,966.755066 524.985718,966.755066 533.971436,966.755066 
	C544.742310,934.734985 555.479797,902.813965 566.522400,870.160156 
M225.521439,868.500366 
	C225.521439,857.529175 225.521439,846.558044 225.521439,835.152039 
	C236.087799,835.152039 246.334793,835.152039 256.789581,835.152039 
	C256.789581,827.815857 256.789581,820.917542 256.789581,813.873169 
	C237.474289,813.873169 218.365524,813.873169 199.196609,813.873169 
	C199.196609,873.760620 199.196609,933.458801 199.196609,993.265869 
	C218.557922,993.265869 237.641434,993.265869 256.770111,993.265869 
	C256.770111,986.085083 256.770111,979.162292 256.770111,971.813843 
	C246.290665,971.813843 236.040314,971.813843 225.521408,971.813843 
	C225.521408,937.423401 225.521408,903.461914 225.521439,868.500366 
M823.906799,972.630859 
	C823.906799,979.435486 823.906799,986.240173 823.906799,993.111206 
	C843.388977,993.111206 862.573669,993.111206 881.664795,993.111206 
	C881.664795,933.141785 881.664795,873.581177 881.664795,813.937622 
	C862.305176,813.937622 843.217468,813.937622 824.149231,813.937622 
	C824.149231,821.090881 824.149231,827.987610 824.149231,835.214844 
	C834.568115,835.214844 844.665466,835.214844 854.853394,835.214844 
	C854.853394,880.917480 854.853394,926.278442 854.853394,971.982483 
	C844.581360,971.982483 834.612244,971.982483 823.906799,972.630859 
z"/>
<path fill="#FEFEFE" opacity="1.000000" stroke="none" 
	d="
M823.501587,298.498779 
	C838.761841,313.899750 854.519409,328.388763 868.638855,344.328705 
	C907.297424,387.971771 904.631897,456.373871 863.392944,497.614044 
	C782.433838,578.575623 701.474243,659.536560 620.511719,740.494690 
	C577.281250,783.722900 504.772064,783.774353 461.597656,740.603577 
	C380.516144,659.528748 299.437653,578.450989 218.363403,497.368896 
	C175.365204,454.366547 175.280838,381.728210 218.190079,338.811279 
	C299.378815,257.608032 380.575378,176.412567 461.777863,95.223061 
	C504.708740,52.298988 577.348999,52.354393 620.336426,95.335983 
	C687.979065,162.969376 755.613586,230.610764 823.501587,298.498779 
M690.537598,640.168396 
	C737.410706,624.791443 768.449097,581.325134 768.478821,530.833069 
	C768.522827,456.004822 768.544739,381.176422 768.405579,306.348389 
	C768.391724,298.894531 767.893066,291.304626 766.442139,284.012085 
	C755.373657,228.378204 709.621887,191.018555 652.906860,191.005753 
	C578.245239,190.988907 503.583557,190.970169 428.922028,191.058380 
	C422.612610,191.065826 416.223572,191.378403 410.007782,192.388214 
	C353.736053,201.530182 313.755829,248.014206 313.570557,305.029480 
	C313.324707,380.690216 313.286438,456.353241 313.578522,532.013672 
	C313.825989,596.130493 364.354675,645.987061 428.447418,645.996033 
	C503.442352,646.006592 578.437256,645.982117 653.432190,646.014526 
	C665.852539,646.019897 677.973450,644.276611 690.537598,640.168396 
z"/>
<path fill="#FAFAFA" opacity="1.000000" stroke="none" 
	d="
M656.275696,966.939575 
	C654.492188,966.939575 653.174255,966.939575 651.331909,966.939575 
	C641.164124,930.664612 631.029053,894.506531 620.893799,858.347839 
	C620.893799,894.264587 620.893799,930.246765 620.893799,966.584717 
	C612.706177,966.584717 603.965698,966.584717 594.847534,966.584717 
	C594.847534,918.535583 594.847534,870.330444 594.847534,821.799072 
	C608.432007,821.799072 622.011414,821.799072 636.394165,821.799072 
	C646.290405,858.179688 656.265747,894.851074 665.831848,930.017822 
	C675.276855,895.124695 685.195007,858.483826 695.143860,821.729431 
	C709.405151,821.729431 723.179993,821.729431 737.335327,821.729431 
	C737.335327,869.987000 737.335327,918.179993 737.335327,966.656799 
	C728.430664,966.656799 719.543457,966.656799 710.129517,966.656799 
	C710.129517,932.143799 710.129517,897.813049 710.129517,863.482239 
	C709.968384,863.487427 709.807251,863.492554 709.646057,863.497742 
	C699.720276,897.880981 689.794495,932.264160 679.784363,966.939575 
	C672.034546,966.939575 664.387878,966.939575 656.275696,966.939575 
z"/>
<path fill="#FBFBFB" opacity="1.000000" stroke="none" 
	d="
M407.000061,942.158691 
	C421.641174,942.158691 435.782318,942.158691 450.220276,942.158691 
	C450.220276,950.406555 450.220276,958.337158 450.220276,966.603394 
	C414.646301,966.603394 379.102448,966.603394 343.275543,966.603394 
	C343.275543,918.419067 343.275543,870.187012 343.275543,821.744385 
	C378.755493,821.744385 414.172913,821.744385 449.698364,821.744385 
	C449.698364,829.929810 449.698364,837.849426 449.698364,846.161194 
	C424.037415,846.161194 398.610046,846.161194 372.852905,846.161194 
	C372.852905,857.132080 372.852905,867.716980 372.852905,878.810913 
	C395.163544,878.810913 417.565582,878.810913 440.125488,878.810913 
	C440.125488,887.105469 440.125488,894.893799 440.125488,902.989502 
	C417.653870,902.989502 395.368439,902.989502 372.802429,902.989502 
	C372.802429,916.036926 372.802429,928.782349 372.802429,942.158691 
	C383.946533,942.158691 395.223297,942.158691 407.000061,942.158691 
z"/>
<path fill="#FCFCFC" opacity="1.000000" stroke="none" 
	d="
M566.369873,870.526611 
	C555.479797,902.813965 544.742310,934.734985 533.971436,966.755066 
	C524.985718,966.755066 516.205017,966.755066 507.046326,966.755066 
	C490.824158,918.633972 474.568939,870.414917 458.172363,821.776489 
	C468.589050,821.776489 478.506775,821.776489 489.149719,821.776489 
	C499.718964,856.762878 510.399689,892.118225 521.214600,927.917847 
	C525.230652,914.226257 529.081238,900.863281 533.073364,887.542786 
	C539.315186,866.715942 545.701294,845.932129 551.888794,825.089355 
	C552.670288,822.456848 553.651489,821.326416 556.601257,821.402344 
	C565.188538,821.623474 573.785156,821.480896 582.916260,821.480896 
	C577.286438,838.197815 571.904419,854.179016 566.369873,870.526611 
z"/>
<path fill="#FBFBFB" opacity="1.000000" stroke="none" 
	d="
M225.521423,869.000366 
	C225.521408,903.461914 225.521408,937.423401 225.521408,971.813843 
	C236.040314,971.813843 246.290665,971.813843 256.770111,971.813843 
	C256.770111,979.162292 256.770111,986.085083 256.770111,993.265869 
	C237.641434,993.265869 218.557922,993.265869 199.196609,993.265869 
	C199.196609,933.458801 199.196609,873.760620 199.196609,813.873169 
	C218.365524,813.873169 237.474289,813.873169 256.789581,813.873169 
	C256.789581,820.917542 256.789581,827.815857 256.789581,835.152039 
	C246.334793,835.152039 236.087799,835.152039 225.521439,835.152039 
	C225.521439,846.558044 225.521439,857.529175 225.521423,869.000366 
z"/>
<path fill="#FBFBFB" opacity="1.000000" stroke="none" 
	d="
M824.274902,972.306641 
	C834.612244,971.982483 844.581360,971.982483 854.853394,971.982483 
	C854.853394,926.278442 854.853394,880.917480 854.853394,835.214844 
	C844.665466,835.214844 834.568115,835.214844 824.149231,835.214844 
	C824.149231,827.987610 824.149231,821.090881 824.149231,813.937622 
	C843.217468,813.937622 862.305176,813.937622 881.664795,813.937622 
	C881.664795,873.581177 881.664795,933.141785 881.664795,993.111206 
	C862.573669,993.111206 843.388977,993.111206 823.906799,993.111206 
	C823.906799,986.240173 823.906799,979.435486 824.274902,972.306641 
z"/>
<path fill="#010101" opacity="1.000000" stroke="none" 
	d="
M690.164551,640.309204 
	C677.973450,644.276611 665.852539,646.019897 653.432190,646.014526 
	C578.437256,645.982117 503.442352,646.006592 428.447418,645.996033 
	C364.354675,645.987061 313.825989,596.130493 313.578522,532.013672 
	C313.286438,456.353241 313.324707,380.690216 313.570557,305.029480 
	C313.755829,248.014206 353.736053,201.530182 410.007782,192.388214 
	C416.223572,191.378403 422.612610,191.065826 428.922028,191.058380 
	C503.583557,190.970169 578.245239,190.988907 652.906860,191.005753 
	C709.621887,191.018555 755.373657,228.378204 766.442139,284.012085 
	C767.893066,291.304626 768.391724,298.894531 768.405579,306.348389 
	C768.544739,381.176422 768.522827,456.004822 768.478821,530.833069 
	C768.449097,581.325134 737.410706,624.791443 690.164551,640.309204 
M341.670227,442.740784 
	C343.983704,445.565613 346.110229,448.572205 348.646301,451.180603 
	C355.730682,458.467194 362.984772,465.588776 370.171661,472.775726 
	C416.120728,518.724915 462.054810,564.689148 508.027588,610.614563 
	C522.419189,624.991394 541.190186,628.892395 559.326294,620.850830 
	C564.083557,618.741577 568.743896,615.657227 572.426025,611.993103 
	C626.518616,558.164795 680.512695,504.236847 734.355896,450.158997 
	C751.897278,432.541138 751.804504,404.309692 734.326416,386.779785 
	C680.680969,332.975281 626.955994,279.249664 573.151733,225.603912 
	C555.020752,207.526337 527.028198,207.458191 509.059204,225.383255 
	C455.386383,278.924896 401.787323,332.540649 348.235870,386.203674 
	C332.962280,401.509094 330.387299,423.290497 341.670227,442.740784 
z"/>
<path fill="#FFFFFF" opacity="1.000000" stroke="none" 
	d="
M341.462524,442.437744 
	C330.387299,423.290497 332.962280,401.509094 348.235870,386.203674 
	C401.787323,332.540649 455.386383,278.924896 509.059204,225.383255 
	C527.028198,207.458191 555.020752,207.526337 573.151733,225.603912 
	C626.955994,279.249664 680.680969,332.975281 734.326416,386.779785 
	C751.804504,404.309692 751.897278,432.541138 734.355896,450.158997 
	C680.512695,504.236847 626.518616,558.164795 572.426025,611.993103 
	C568.743896,615.657227 564.083557,618.741577 559.326294,620.850830 
	C541.190186,628.892395 522.419189,624.991394 508.027588,610.614563 
	C462.054810,564.689148 416.120728,518.724915 370.171661,472.775726 
	C362.984772,465.588776 355.730682,458.467194 348.646301,451.180603 
	C346.110229,448.572205 343.983704,445.565613 341.462524,442.437744 
z"/>
</svg>