<svg width="256" height="256" viewBox="0 0 256 256" fill="none" xmlns="http://www.w3.org/2000/svg">
<g clip-path="url(#clip0_2622_55)">
<mask id="mask0_2622_55" style="mask-type:luminance" maskUnits="userSpaceOnUse" x="0" y="0" width="256" height="256">
<path d="M256 0H0V256H256V0Z" fill="white"/>
</mask>
<g mask="url(#mask0_2622_55)">
<path d="M256 0H0V256H256V0Z" fill="#1E1E1E"/>
<path d="M256 0H0V256H256V0Z" fill="#805B2D"/>
<path d="M190.646 153.613V69.2937C190.489 62.2344 184.92 56.5869 177.861 56.5869H89.8549C70.8732 56.9007 55.5781 72.4311 55.5781 91.4912C55.5781 97.923 57.3037 103.414 59.9705 108.277C62.1667 112.277 65.6964 116.042 69.1476 118.944C70.0888 119.728 69.6182 119.415 72.5988 121.297C76.756 123.807 81.4622 125.062 81.4622 125.062V175.497C81.5406 177.85 81.8544 180.203 82.4034 182.321C84.3643 189.38 89.3058 194.871 95.973 197.538C98.7967 198.636 101.934 199.42 105.307 199.42L175.586 199.655C189.627 199.655 201 188.282 201 174.242C201 165.692 196.921 158.241 190.646 153.613Z" fill="#FFEEDA"/>
<path d="M192.294 174.634C191.98 183.654 184.607 190.87 175.587 190.87L127.191 190.714C131.035 186.243 133.388 180.438 133.388 174.163C133.388 164.202 127.426 157.378 127.426 157.378H175.587C184.842 157.378 192.294 164.908 192.294 174.163V174.634Z" fill="#EBC28E"/>
<path d="M73.6189 111.649C68.0499 106.394 64.128 99.57 64.128 91.4126V90.5498C64.5987 76.745 75.972 65.607 89.7768 65.1363H177.783C180.057 65.2148 181.94 66.8619 181.94 69.215V143.651C183.979 144.044 184.92 144.279 186.881 144.985C188.372 145.534 190.568 146.789 190.568 146.789V69.215C190.411 62.1557 184.842 56.5083 177.783 56.5083H89.7768C70.7951 56.822 55.5 72.3525 55.5 91.4126C55.5 102.472 60.5199 111.963 68.8342 118.63C69.3833 119.101 69.9323 119.65 71.4226 119.65C74.011 119.65 75.8151 117.61 75.7367 115.336C75.6582 113.453 74.8739 112.747 73.6189 111.649Z" fill="#190602"/>
<path d="M175.586 148.671H106.562C101.934 148.671 98.1691 152.515 98.1691 157.143V167.026C98.3259 171.575 102.248 175.575 106.797 175.575H111.896V167.026H106.797V157.3C106.797 157.3 108.052 157.3 109.621 157.3C118.328 157.3 124.759 165.379 124.759 174.085C124.759 181.772 117.779 191.576 106.092 190.792C95.6591 190.086 90.0901 180.831 90.0901 174.085V89.9224C90.0901 86.1575 87.0311 83.02 83.1877 83.02H76.2852V91.6481H81.3836V174.085C81.1483 190.87 93.306 199.342 106.013 199.342L175.586 199.577C189.627 199.577 201 188.204 201 174.163C201 160.123 189.627 148.671 175.586 148.671ZM192.293 174.634C191.98 183.654 184.607 190.87 175.586 190.87L127.191 190.714C131.034 186.243 133.388 180.438 133.388 174.163C133.388 164.202 127.426 157.378 127.426 157.378H175.586C184.842 157.378 192.293 164.908 192.293 174.163V174.634Z" fill="#190602"/>
<path d="M157.545 93.138H104.992V84.5884H157.545C159.663 84.5884 161.31 86.314 161.31 88.3533V89.373C161.31 91.4908 159.584 93.138 157.545 93.138Z" fill="#190602"/>
<path d="M157.545 133.69H104.992V125.14H157.545C159.663 125.14 161.31 126.866 161.31 128.905V129.925C161.31 131.964 159.584 133.69 157.545 133.69Z" fill="#190602"/>
<path d="M166.644 113.453H104.914V104.903H166.644C168.761 104.903 170.409 106.629 170.409 108.668V109.688C170.487 111.727 168.761 113.453 166.644 113.453Z" fill="#190602"/>
</g>
</g>
<defs>
<clipPath id="clip0_2622_55">
<rect width="256" height="256" fill="white"/>
</clipPath>
</defs>
</svg>
