<svg width="256" height="256" viewBox="0 0 256 256" fill="none" xmlns="http://www.w3.org/2000/svg">
<g clip-path="url(#clip0_1239_2)">
<circle cx="128" cy="128" r="98" fill="black"/>
<rect width="256" height="256" fill="#1F1F2D"/>
<path d="M231 128C231 71.1147 184.885 25 128 25C71.1147 25 25 71.1147 25 128C25 184.885 71.1147 231 128 231C184.885 231 231 184.885 231 128Z" fill="#1F1F2D"/>
<path d="M128 153.75C113.773 153.75 102.25 142.227 102.25 128C102.25 113.773 113.773 102.25 128 102.25C142.227 102.25 153.75 113.773 153.75 128C153.75 142.227 142.227 153.75 128 153.75Z" fill="#F26057"/>
<path d="M128 153.75C142.221 153.75 153.75 142.221 153.75 128C153.75 113.779 142.221 102.25 128 102.25C113.779 102.25 102.25 113.779 102.25 128C102.25 142.221 113.779 153.75 128 153.75Z" fill="#F26057"/>
<path d="M164.05 128C164.05 142.227 175.573 153.75 189.8 153.75V102.25C175.573 102.25 164.05 113.773 164.05 128Z" fill="#F26057"/>
<path d="M91.9499 128C91.9499 113.773 80.4268 102.25 66.2 102.25V153.75C80.4268 153.75 91.9499 142.227 91.9499 128Z" fill="#F26057"/>
<path d="M128 91.9502C142.227 91.9502 153.75 80.427 153.75 66.2002H102.25C102.25 80.427 113.773 91.9502 128 91.9502Z" fill="#F26057"/>
<path d="M189.8 91.9502V66.2002H164.05C164.05 80.427 175.573 91.9502 189.8 91.9502Z" fill="#F26057"/>
<path d="M91.9499 66.2002H66.2V91.9502C80.4268 91.9502 91.9499 80.427 91.9499 66.2002Z" fill="#F26057"/>
<path d="M128 164.05C113.773 164.05 102.25 175.573 102.25 189.8H153.75C153.75 175.573 142.227 164.05 128 164.05Z" fill="#F26057"/>
<path d="M189.8 164.05C175.573 164.05 164.05 175.573 164.05 189.8H189.8V164.05Z" fill="#F26057"/>
<path d="M66.2 164.05V189.8H91.9499C91.9499 175.573 80.4268 164.05 66.2 164.05Z" fill="#F26057"/>
</g>
<defs>
<clipPath id="clip0_1239_2">
<rect width="256" height="256" fill="white"/>
</clipPath>
</defs>
</svg>
