<svg width="256" height="256" viewBox="0 0 256 256" fill="none" xmlns="http://www.w3.org/2000/svg">
<g clip-path="url(#clip0_1239_2)">
<circle cx="128" cy="128" r="98" fill="black"/>
<rect width="256" height="256" fill="black"/>
<path d="M127.337 227.058C181.482 227.058 225.375 183.165 225.375 129.02C225.375 74.875 181.482 30.9819 127.337 30.9819C73.192 30.9819 29.299 74.875 29.299 129.02C29.299 183.165 73.192 227.058 127.337 227.058Z" fill="black"/>
<path fill-rule="evenodd" clip-rule="evenodd" d="M127.5 223.711C180.083 223.711 222.711 181.083 222.711 128.5C222.711 75.9169 180.083 33.2889 127.5 33.2889C74.9169 33.2889 32.2889 75.9169 32.2889 128.5C32.2889 181.083 74.9169 223.711 127.5 223.711ZM232 128.5C232 186.214 185.214 233 127.5 233C69.7859 233 23 186.214 23 128.5C23 70.7859 69.7859 24 127.5 24C185.214 24 232 70.7859 232 128.5Z" fill="url(#paint0_linear_1239_2)"/>
<path d="M146.879 50.0908L151.094 108.623L208.059 122.696L153.695 144.792L157.911 203.324L120.105 158.446L65.7423 180.553L96.7327 130.719L58.915 85.8413L115.879 99.9252L146.881 50.0908H146.879Z" fill="url(#paint1_linear_1239_2)"/>
</g>
<defs>
<linearGradient id="paint0_linear_1239_2" x1="23" y1="128.5" x2="232" y2="128.5" gradientUnits="userSpaceOnUse">
<stop stop-color="#FCF29F"/>
<stop offset="0.64" stop-color="#91CEC7"/>
<stop offset="1" stop-color="#6F98D0"/>
</linearGradient>
<linearGradient id="paint1_linear_1239_2" x1="58.9136" y1="126.706" x2="208.059" y2="126.706" gradientUnits="userSpaceOnUse">
<stop stop-color="#FCF29F"/>
<stop offset="0.64" stop-color="#91CEC7"/>
<stop offset="1" stop-color="#6F98D0"/>
</linearGradient>
<clipPath id="clip0_1239_2">
<rect width="256" height="256" fill="white"/>
</clipPath>
</defs>
</svg>
