<svg width="256" height="256" viewBox="0 0 256 256" fill="none" xmlns="http://www.w3.org/2000/svg">
<g clip-path="url(#clip0_1239_2)">
<rect width="256" height="256" fill="#1E1E1E"/>
<rect width="256" height="256" fill="black"/>
<path d="M195 51H62V123.844C62 145.761 71.6793 192.789 128.5 205C185.321 192.789 195 145.761 195 123.844V51Z" fill="black"/>
<g opacity="0.25">
<path d="M103.969 195.006C103.289 194.401 102.864 193.557 102.779 192.646L96.0197 120.149H120.074V201.369C120.074 204.466 116.449 206.115 114.146 204.064L103.969 195.006Z" fill="black"/>
<path d="M120.074 118.71V108.59L94.7362 106.383L95.8855 118.71H120.074Z" fill="black"/>
<path d="M120.074 107.146L94.6005 104.927L90.619 62.2217C90.4223 60.1118 92.0686 58.2886 94.1705 58.2886H116.507C118.477 58.2886 120.074 59.8989 120.074 61.8851V107.146Z" fill="black"/>
<path d="M167.089 118.71H185.425C186.41 118.71 187.208 117.905 187.208 116.912V106.306C187.208 105.244 186.301 104.413 185.252 104.516L168.225 106.193L167.089 118.71Z" fill="black"/>
<path d="M166.779 106.335L141.406 108.833V118.71H165.656L166.779 106.335Z" fill="black"/>
<path d="M139.979 108.974V118.71H72.4164C71.4313 118.71 70.6328 117.905 70.6328 116.912V106.283C70.6328 105.229 71.5271 104.401 72.5684 104.491L132.614 109.669C132.722 109.678 132.831 109.678 132.939 109.667L139.979 108.974Z" fill="black"/>
<path d="M147.513 203.821C145.272 206.11 141.406 204.51 141.406 201.295V89.7227H168.32L158.958 190.966C158.881 191.792 158.524 192.567 157.945 193.158L147.513 203.821Z" fill="black"/>
<path d="M168.454 88.2843H141.406V72.778L170.054 70.9761L168.454 88.2843Z" fill="black"/>
<path d="M141.406 61.8855V71.3361L170.188 69.5259L170.864 62.2195C171.059 60.1104 169.413 58.2891 167.313 58.2891H144.973C143.004 58.2891 141.406 59.8992 141.406 61.8855Z" fill="black"/>
<path d="M120.074 88.2839V72.8226L91.4612 71.4028L93.0266 88.2839H120.074Z" fill="black"/>
<path d="M121.501 88.2842H193.63C194.418 88.2842 195.056 87.64 195.056 86.8455V70.8634C195.056 70.033 194.361 69.3751 193.539 69.4278L131.597 73.3946L121.501 72.8937V88.2842Z" fill="black"/>
<path d="M89.9037 71.326L91.6129 88.2842H62.7136C61.9256 88.2842 61.2867 87.6401 61.2867 86.8456V71.4172C61.2867 70.595 61.9692 69.9399 62.7837 69.9803L89.9037 71.326Z" fill="black"/>
</g>
<path d="M103.682 194.718C103.002 194.112 102.577 193.268 102.492 192.359L95.7327 119.861H119.787V201.08C119.787 204.179 116.162 205.826 113.859 203.777L103.682 194.718Z" fill="url(#paint0_linear_1239_2)"/>
<path d="M119.787 118.422V108.301L94.4495 106.094L95.5987 118.422H119.787Z" fill="url(#paint1_linear_1239_2)"/>
<path d="M119.787 106.858L94.3135 104.639L90.332 61.9331C90.1353 59.8231 91.7816 58 93.8836 58H116.22C118.19 58 119.787 59.6102 119.787 61.5965V106.858Z" fill="url(#paint2_linear_1239_2)"/>
<path d="M166.802 118.422H185.138C186.123 118.422 186.921 117.617 186.921 116.624V106.018C186.921 104.956 186.014 104.125 184.965 104.228L167.938 105.905L166.802 118.422Z" fill="url(#paint3_linear_1239_2)"/>
<path d="M166.493 106.047L141.119 108.545V118.422H165.369L166.493 106.047Z" fill="url(#paint4_linear_1239_2)"/>
<path d="M139.693 108.685V118.422H72.1296C71.1447 118.422 70.3461 117.617 70.3461 116.623V105.994C70.3461 104.941 71.2404 104.113 72.2816 104.202L132.328 109.38C132.436 109.39 132.545 109.389 132.653 109.378L139.693 108.685Z" fill="url(#paint5_linear_1239_2)"/>
<path d="M147.226 203.532C144.985 205.821 141.119 204.222 141.119 201.005V89.4336H168.034L158.671 190.677C158.595 191.504 158.237 192.278 157.658 192.869L147.226 203.532Z" fill="url(#paint6_linear_1239_2)"/>
<path d="M168.167 87.9952H141.119V72.4888L169.767 70.687L168.167 87.9952Z" fill="url(#paint7_linear_1239_2)"/>
<path d="M141.119 61.5971V71.0477L169.902 69.2374L170.577 61.9309C170.772 59.8219 169.127 58.0005 167.025 58.0005H144.686C142.716 58.0005 141.119 59.6108 141.119 61.5971Z" fill="url(#paint8_linear_1239_2)"/>
<path d="M119.787 87.9953V72.534L91.1743 71.1143L92.7398 87.9953H119.787Z" fill="url(#paint9_linear_1239_2)"/>
<path d="M121.214 87.9957H193.343C194.131 87.9957 194.769 87.3516 194.769 86.557V70.575C194.769 69.7446 194.074 69.0866 193.253 69.1392L131.309 73.1062L121.214 72.6052V87.9957Z" fill="url(#paint10_linear_1239_2)"/>
<path d="M89.6171 71.0373L91.3261 87.9957H62.4268C61.6388 87.9957 61 87.3515 61 86.557V71.1285C61 70.3063 61.6824 69.6513 62.497 69.6917L89.6171 71.0373Z" fill="url(#paint11_linear_1239_2)"/>
<path d="M95.6203 104.753L94.3135 104.639L92.7619 87.9955H92.7397L91.1742 71.1145L91.1882 71.1152L90.332 61.9331C90.1353 59.8231 91.7816 58 93.8836 58H116.22C117.573 58 118.75 58.7591 119.354 59.8779C118.848 59.5999 118.267 59.4419 117.65 59.4419H95.3142C93.2121 59.4419 91.5659 61.265 91.7627 63.375L92.6187 72.5571L92.6048 72.5564L94.1703 89.4375H94.1925L95.6203 104.753Z" fill="black"/>
<path d="M121.218 87.9957H122.645V74.0471L132.74 74.5481L194.683 70.5811C194.712 70.5792 194.741 70.5783 194.769 70.5782V70.575C194.769 69.7446 194.074 69.0866 193.253 69.1392L171.345 70.5422L171.332 70.6795L142.55 72.4897V72.3862L131.309 73.1062L121.218 72.6054L121.218 87.9957Z" fill="black"/>
<path d="M170.159 59.8778C169.655 59.6007 169.076 59.4424 168.456 59.4424H146.117C144.147 59.4424 142.55 61.0527 142.55 63.039V70.9577L141.119 71.0477V61.5971C141.119 59.6108 142.716 58.0005 144.686 58.0005H167.025C168.387 58.0005 169.557 58.7654 170.159 59.8778Z" fill="black"/>
<path d="M141.119 89.4375H168.034L167.9 90.8759H142.55V202.448C142.55 203.088 142.703 203.663 142.965 204.157C141.901 203.571 141.119 202.453 141.119 201.006V119.864H141.122V110.127L141.119 110.128V89.4375Z" fill="black"/>
<path d="M139.693 110.268V108.685L132.653 109.378C132.545 109.389 132.436 109.39 132.328 109.38L94.4494 106.094L94.4513 106.114L72.2816 104.202C71.2404 104.113 70.3461 104.94 70.3461 105.994V116.623C70.3461 117.505 70.9755 118.239 71.8061 118.392C71.7867 118.286 71.7766 118.177 71.7766 118.065V107.436C71.7766 106.382 72.6711 105.555 73.7123 105.644L95.8818 107.556L95.88 107.536L133.759 110.822C133.866 110.832 133.976 110.831 134.083 110.82L139.693 110.268Z" fill="black"/>
<path d="M95.7332 119.863L102.492 192.358C102.577 193.268 103.002 194.111 103.682 194.717L104.494 195.439C104.176 194.952 103.977 194.39 103.922 193.799L97.1634 121.302H119.787V119.864L95.7332 119.863Z" fill="black"/>
<path d="M166.93 118.422H168.363L169.368 107.347L186.396 105.67C186.566 105.654 186.732 105.662 186.892 105.691C186.729 104.791 185.903 104.136 184.965 104.228L168.076 105.891L167.636 110.636L166.93 118.422Z" fill="black"/>
<path d="M89.7559 72.4152L89.6171 71.0373L62.497 69.6917C61.6824 69.6513 61 70.3063 61 71.1285V86.557C61 87.3515 61.6388 87.9957 62.4268 87.9957H62.4306V72.5705C62.4306 71.7482 63.113 71.0933 63.9276 71.1336L89.7559 72.4152Z" fill="black"/>
</g>
<defs>
<linearGradient id="paint0_linear_1239_2" x1="60.9999" y1="131.342" x2="194.769" y2="131.342" gradientUnits="userSpaceOnUse">
<stop stop-color="#5433FF"/>
<stop offset="0.5" stop-color="#20BDFF"/>
<stop offset="1" stop-color="#A5FECB"/>
</linearGradient>
<linearGradient id="paint1_linear_1239_2" x1="61.0001" y1="131.341" x2="194.769" y2="131.341" gradientUnits="userSpaceOnUse">
<stop stop-color="#5433FF"/>
<stop offset="0.5" stop-color="#20BDFF"/>
<stop offset="1" stop-color="#A5FECB"/>
</linearGradient>
<linearGradient id="paint2_linear_1239_2" x1="60.9999" y1="131.342" x2="194.769" y2="131.342" gradientUnits="userSpaceOnUse">
<stop stop-color="#5433FF"/>
<stop offset="0.5" stop-color="#20BDFF"/>
<stop offset="1" stop-color="#A5FECB"/>
</linearGradient>
<linearGradient id="paint3_linear_1239_2" x1="60.9999" y1="131.342" x2="194.769" y2="131.342" gradientUnits="userSpaceOnUse">
<stop stop-color="#5433FF"/>
<stop offset="0.5" stop-color="#20BDFF"/>
<stop offset="1" stop-color="#A5FECB"/>
</linearGradient>
<linearGradient id="paint4_linear_1239_2" x1="61.0001" y1="131.342" x2="194.769" y2="131.342" gradientUnits="userSpaceOnUse">
<stop stop-color="#5433FF"/>
<stop offset="0.5" stop-color="#20BDFF"/>
<stop offset="1" stop-color="#A5FECB"/>
</linearGradient>
<linearGradient id="paint5_linear_1239_2" x1="61" y1="131.342" x2="194.769" y2="131.342" gradientUnits="userSpaceOnUse">
<stop stop-color="#5433FF"/>
<stop offset="0.5" stop-color="#20BDFF"/>
<stop offset="1" stop-color="#A5FECB"/>
</linearGradient>
<linearGradient id="paint6_linear_1239_2" x1="61.0001" y1="131.341" x2="194.769" y2="131.341" gradientUnits="userSpaceOnUse">
<stop stop-color="#5433FF"/>
<stop offset="0.5" stop-color="#20BDFF"/>
<stop offset="1" stop-color="#A5FECB"/>
</linearGradient>
<linearGradient id="paint7_linear_1239_2" x1="61.0001" y1="131.342" x2="194.769" y2="131.342" gradientUnits="userSpaceOnUse">
<stop stop-color="#5433FF"/>
<stop offset="0.5" stop-color="#20BDFF"/>
<stop offset="1" stop-color="#A5FECB"/>
</linearGradient>
<linearGradient id="paint8_linear_1239_2" x1="61.0001" y1="131.342" x2="194.769" y2="131.342" gradientUnits="userSpaceOnUse">
<stop stop-color="#5433FF"/>
<stop offset="0.5" stop-color="#20BDFF"/>
<stop offset="1" stop-color="#A5FECB"/>
</linearGradient>
<linearGradient id="paint9_linear_1239_2" x1="61" y1="131.341" x2="194.769" y2="131.341" gradientUnits="userSpaceOnUse">
<stop stop-color="#5433FF"/>
<stop offset="0.5" stop-color="#20BDFF"/>
<stop offset="1" stop-color="#A5FECB"/>
</linearGradient>
<linearGradient id="paint10_linear_1239_2" x1="61" y1="131.342" x2="194.769" y2="131.342" gradientUnits="userSpaceOnUse">
<stop stop-color="#5433FF"/>
<stop offset="0.5" stop-color="#20BDFF"/>
<stop offset="1" stop-color="#A5FECB"/>
</linearGradient>
<linearGradient id="paint11_linear_1239_2" x1="61" y1="131.342" x2="194.769" y2="131.342" gradientUnits="userSpaceOnUse">
<stop stop-color="#5433FF"/>
<stop offset="0.5" stop-color="#20BDFF"/>
<stop offset="1" stop-color="#A5FECB"/>
</linearGradient>
<clipPath id="clip0_1239_2">
<rect width="256" height="256" fill="white"/>
</clipPath>
</defs>
</svg>
