<svg width="256" height="256" viewBox="0 0 256 256" fill="none" xmlns="http://www.w3.org/2000/svg">
<g clip-path="url(#clip0_660_2)">
<path d="M256 0H0V256H256V0Z" fill="black"/>
<path fill-rule="evenodd" clip-rule="evenodd" d="M32 130.428V121.218C40.304 119.832 45.284 115.073 46.94 106.955C46.964 97.7329 47.162 88.5166 47.546 79.3123C49.538 69.232 55.322 62.1458 64.904 58.0597C69.533 56.3573 74.4807 55.6976 79.394 56.1276V65.3379C70.304 64.4919 63.416 67.858 58.718 75.4482C57.5928 77.6808 56.8775 80.0972 56.606 82.5824L56.306 107.843C55.13 115.361 51.458 121.356 45.284 125.826C51.458 130.302 55.13 136.296 56.3 143.808L56.6 172.645C58.04 181.88 63.32 187.772 72.452 190.328C73.952 190.64 75.452 190.79 76.982 190.772V199.988C66.02 199.814 57.518 195.158 51.47 186.02C49.0571 182.16 47.6083 177.777 47.246 173.239C47.294 163.673 47.0419 154.108 46.49 144.558C46.7179 143.4 46.5599 142.198 46.04 141.138C43.436 135.18 38.756 131.604 32 130.428ZM224 121.218V130.428C215.834 131.784 210.854 136.44 209.06 144.396C209.04 154.703 208.838 165.009 208.454 175.309C205.406 189.308 196.802 197.486 182.642 199.832C181.334 199.982 180.032 200.03 178.718 199.982V190.76C188.03 190.46 194.522 186.098 198.188 177.679C198.782 175.939 199.184 174.157 199.394 172.333C199.406 162.115 199.61 151.915 200 141.72C201.374 135.231 205.217 129.529 210.716 125.82C204.476 121.512 200.804 115.619 199.7 108.131L199.4 82.5705C198.032 73.1922 192.548 67.498 182.942 65.4759C180.883 65.2347 178.801 65.2852 176.756 65.6259C176.606 62.4578 176.552 59.2837 176.606 56.1156C190.154 55.2756 200.066 60.7238 206.342 72.4601C207.35 74.7522 208.052 77.1283 208.454 79.6004C208.838 88.8046 209.036 98.0209 209.054 107.237C210.854 115.199 215.834 119.856 224 121.206V121.218ZM116.828 123C114.02 121.575 111.386 119.829 108.98 117.798C99.921 109.174 90.7645 100.653 81.512 92.2368C86.1379 92.0388 90.7701 92.0388 95.396 92.2368C102.837 98.8682 110.184 105.605 117.434 112.445C122.3 115.925 127.634 116.814 133.436 115.121C134.924 114.581 136.334 113.891 137.66 113.039L160.604 92.2368C165.23 91.9875 169.868 92.0356 174.488 92.3807C166.644 99.5117 158.896 106.747 151.244 114.083C148.565 116.574 145.742 118.906 142.79 121.068C134.348 125.664 125.69 126.306 116.828 123ZM116.816 123C116.636 123.18 116.636 123.18 116.816 123ZM125.282 130.728C132.031 130.227 138.747 132.064 144.302 135.93C154.561 145.138 164.726 154.45 174.794 163.867C170.066 164.065 165.332 164.065 160.604 163.867L138.566 143.358C131.726 138.96 124.934 138.81 118.19 142.914C110.497 149.795 102.898 156.779 95.396 163.867C90.668 164.065 85.94 164.065 81.206 163.867L110.186 137.118C114.53 133.633 119.756 131.421 125.282 130.728Z" fill="white"/>
</g>
<defs>
<clipPath id="clip0_660_2">
<rect width="256" height="256" fill="white"/>
</clipPath>
</defs>
</svg>
