<svg xmlns="http://www.w3.org/2000/svg" xmlns:xlink="http://www.w3.org/1999/xlink" version="1.1" id="Layer_1" x="0px" y="0px" viewBox="0 0 2500 2500" style="enable-background:new 0 0 2500 2500;" xml:space="preserve">
  <g id="Layer_x0020_1">
  	<rect y="0" fill="none" width="2500" height="2500"></rect>
  	<rect y="0" fill="none" width="2500" height="2500"></rect>
  	<g id="_1942031601280">
  		<path fill="#3D89F5" d="M214.9,919.8l-114.3,114.4c-130.7,124.2-133.9,330-9.8,460.7l0,0c3.3,3.3,6.5,6.5,9.8,9.8l918.1,927.9    c22.9,22.9,45.7,42.5,75.1,55.5V1360.9L214.9,919.8L214.9,919.8z"></path>
  		<path fill="#1656B9" d="M2286.3,919.8l114.4,114.4c127.4,124.2,133.9,330,9.8,460.7c-3.3,3.3-6.5,6.5-9.8,9.8l-921.4,924.6    c-22.9,22.9-45.7,42.5-75.1,55.6V1360.9L2286.3,919.8L2286.3,919.8z"></path>
  		<path fill="#85B5F8" d="M2064.1,684.6l-575-575c-127.4-127.4-333.3-130.7-460.7-6.5c-3.3,3.3-6.5,3.3-6.5,6.5l-578.3,575l807,401.9    L2064.1,684.6L2064.1,684.6z"></path>
  	</g>
  </g>
</svg>
