<svg width="256" height="256" viewBox="0 0 256 256" fill="none" xmlns="http://www.w3.org/2000/svg">
<g clip-path="url(#clip0_2823_250)">
<path d="M256 0H0V256H256V0Z" fill="#0052FF"/>
<path d="M128.5 256C198.92 256 256 198.92 256 128.5C256 58.0802 198.92 1 128.5 1C58.0802 1 1 58.0802 1 128.5C1 198.92 58.0802 256 128.5 256Z" fill="#0052FF"/>
<path fill-rule="evenodd" clip-rule="evenodd" d="M39 128.25C39 177.545 78.9553 217.5 128.25 217.5C177.537 217.5 217.5 177.545 217.5 128.25C217.5 78.9553 177.537 39 128.25 39C78.9553 39 39 78.9553 39 128.25ZM105.443 99.4908C103.865 99.4908 102.351 100.118 101.234 101.234C100.118 102.351 99.4908 103.865 99.4908 105.443V151.057C99.4908 154.348 102.152 157.009 105.443 157.009H151.057C152.635 157.009 154.149 156.382 155.266 155.266C156.382 154.149 157.009 152.635 157.009 151.057V105.443C157.009 103.865 156.382 102.351 155.266 101.234C154.149 100.118 152.635 99.4908 151.057 99.4908H105.443Z" fill="white"/>
</g>
<defs>
<clipPath id="clip0_2823_250">
<rect width="256" height="256" fill="white"/>
</clipPath>
</defs>
</svg>
