<svg width="256" height="256" viewBox="0 0 256 256" fill="none" xmlns="http://www.w3.org/2000/svg">
<g clip-path="url(#clip0_2824_317)">
<path d="M256 0H0V256H256V0Z" fill="white"/>
<path fill-rule="evenodd" clip-rule="evenodd" d="M41.8145 78.2503L128.404 28.251V71.488H94.2201L86.3134 106.235H128.404V111.48H106.424L113.854 130.888L111.588 152.649H128.404V228.261L41.8145 178.255V78.2503ZM121.599 175.58V168.694L106.343 154.061V130.968L86.1524 118.137L63.3117 135.117L94.4492 189.278H106.888L121.599 175.58Z" fill="url(#paint0_linear_2824_317)"/>
<path fill-rule="evenodd" clip-rule="evenodd" d="M162.514 189.124L193.509 135.118L170.736 117.983L150.787 130.969V154.061L135.531 168.694V175.58L150.236 189.124H162.514ZM128.404 28.2515L215 78.2508V178.256L128.404 228.261V152.649L145.388 152.569L143.276 130.888L150.552 111.48H128.404V106.235H170.581L162.365 71.4885H128.404V28.2515Z" fill="url(#paint1_linear_2824_317)"/>
</g>
<defs>
<linearGradient id="paint0_linear_2824_317" x1="63.4618" y1="28.251" x2="63.4618" y2="128.256" gradientUnits="userSpaceOnUse">
<stop stop-color="#022045"/>
<stop offset="1" stop-color="#002A67"/>
</linearGradient>
<linearGradient id="paint1_linear_2824_317" x1="192.162" y1="222.77" x2="192.162" y2="128.256" gradientUnits="userSpaceOnUse">
<stop stop-color="#021E3F"/>
<stop offset="1" stop-color="#002A67"/>
</linearGradient>
<clipPath id="clip0_2824_317">
<rect width="256" height="256" fill="white"/>
</clipPath>
</defs>
</svg>
