<svg width="256" height="256" viewBox="0 0 256 256" fill="none" xmlns="http://www.w3.org/2000/svg">
<g clip-path="url(#clip0_2812_20)">
<mask id="mask0_2812_20" style="mask-type:luminance" maskUnits="userSpaceOnUse" x="0" y="0" width="256" height="256">
<path d="M256 0H0V256H256V0Z" fill="white"/>
</mask>
<g mask="url(#mask0_2812_20)">
<path d="M197.818 0H58.1818C26.0489 0 0 26.0489 0 58.1818V197.818C0 229.951 26.0489 256 58.1818 256H197.818C229.951 256 256 229.951 256 197.818V58.1818C256 26.0489 229.951 0 197.818 0Z" fill="url(#paint0_linear_2812_20)"/>
<path d="M197.818 0H58.1818C26.0489 0 0 26.0489 0 58.1818V197.818C0 229.951 26.0489 256 58.1818 256H197.818C229.951 256 256 229.951 256 197.818V58.1818C256 26.0489 229.951 0 197.818 0Z" fill="url(#paint1_radial_2812_20)"/>
<path d="M197.818 0H58.1818C26.0489 0 0 26.0489 0 58.1818V197.818C0 229.951 26.0489 256 58.1818 256H197.818C229.951 256 256 229.951 256 197.818V58.1818C256 26.0489 229.951 0 197.818 0Z" fill="url(#paint2_radial_2812_20)"/>
<path d="M197.818 0H58.1818C26.0489 0 0 26.0489 0 58.1818V197.818C0 229.951 26.0489 256 58.1818 256H197.818C229.951 256 256 229.951 256 197.818V58.1818C256 26.0489 229.951 0 197.818 0Z" fill="url(#paint3_radial_2812_20)"/>
<path d="M105.159 196.641V137.26L162.856 196.641H194.956V195.096L128.588 127.465L189.848 63.3035V62.5459H157.54L105.159 119.244V62.5459H79.1465V196.641H105.159Z" fill="white"/>
</g>
</g>
<defs>
<linearGradient id="paint0_linear_2812_20" x1="128" y1="0" x2="128" y2="256" gradientUnits="userSpaceOnUse">
<stop stop-color="#1FD1FF"/>
<stop offset="1" stop-color="#1BB8FF"/>
</linearGradient>
<radialGradient id="paint1_radial_2812_20" cx="0" cy="0" r="1" gradientUnits="userSpaceOnUse" gradientTransform="translate(12.2284 246.3) rotate(-45.1556) scale(410.543 416.685)">
<stop stop-color="#232DE3"/>
<stop offset="1" stop-color="#232DE3" stop-opacity="0"/>
</radialGradient>
<radialGradient id="paint2_radial_2812_20" cx="0" cy="0" r="1" gradientUnits="userSpaceOnUse" gradientTransform="translate(242.212 254.538) rotate(-138.45) scale(256.693 391.385)">
<stop stop-color="#8B4DFF"/>
<stop offset="1" stop-color="#8B4DFF" stop-opacity="0"/>
</radialGradient>
<radialGradient id="paint3_radial_2812_20" cx="0" cy="0" r="1" gradientUnits="userSpaceOnUse" gradientTransform="translate(125.867 1.89866) rotate(90) scale(201.835 489.705)">
<stop stop-color="#24D5FF"/>
<stop offset="1" stop-color="#1BB8FF" stop-opacity="0"/>
</radialGradient>
<clipPath id="clip0_2812_20">
<rect width="256" height="256" fill="white"/>
</clipPath>
</defs>
</svg>
