<svg width="256" height="256" viewBox="0 0 256 256" fill="none" xmlns="http://www.w3.org/2000/svg">
<g clip-path="url(#clip0_2818_7)">
<mask id="mask0_2818_7" style="mask-type:luminance" maskUnits="userSpaceOnUse" x="0" y="0" width="256" height="256">
<path d="M256 0H0V256H256V0Z" fill="white"/>
</mask>
<g mask="url(#mask0_2818_7)">
<path d="M256 0H0V256H256V0Z" fill="#092511"/>
<path d="M203 151.824C203 178.258 170.539 189 130.236 189C89.9326 189 57 178.258 57 151.824C57 125.39 89.6962 104 130 104C170.303 104 203 125.437 203 151.824Z" fill="#24A95A"/>
<path d="M195 93.288C195 79.3327 183.643 68 169.657 68C162.385 68 155.83 71.0681 151.211 75.9546C150.495 76.7116 149.449 77.0804 148.43 76.874C142.578 75.6884 136.387 75.0244 130 75.0244C123.614 75.0244 117.424 75.6493 111.572 76.8634C110.552 77.0751 109.501 76.7123 108.781 75.9567C104.125 71.0689 97.5735 68 90.343 68C76.3573 68 65 79.3327 65 93.288C65 97.3581 65.9598 101.171 67.6501 104.562C68.055 105.374 68.0957 106.325 67.7455 107.162C66.1055 111.082 65.2346 115.222 65.2346 119.512C65.2346 144.098 94.2382 164 130 164C165.763 164 194.766 144.098 194.766 119.512C194.766 115.222 193.895 111.082 192.254 107.162C191.904 106.325 191.946 105.374 192.35 104.562C194.041 101.171 195 97.3581 195 93.288Z" fill="#32DA6D"/>
<path d="M88.4999 108C97.0603 108 104 101.06 104 92.5C104 83.9395 97.0603 77 88.4999 77C79.9395 77 73 83.9395 73 92.5C73 101.06 79.9395 108 88.4999 108Z" fill="white"/>
<path d="M171 108C179.836 108 187 101.06 187 92.5C187 83.9395 179.836 77 171 77C162.163 77 155 83.9395 155 92.5C155 101.06 162.163 108 171 108Z" fill="white"/>
<path d="M80.3394 187C83.6953 187 86.3421 184.084 85.964 180.793C84.5933 169.129 78.7797 143.875 53.2099 128.685C25.1798 112.028 38.5154 156.313 44.0895 172.447C45.217 175.711 43.9094 179.335 40.9163 181.052L39.0779 182.109C36.7147 183.473 37.7072 187 40.4013 187H80.3394Z" fill="#32DA6D"/>
<path d="M181.072 187C178.057 187 175.701 184.084 176.031 180.793C177.209 169.176 182.486 143.875 205.481 128.685C230.943 111.899 218.55 157.003 213.603 172.818C212.633 175.919 213.827 179.296 216.564 181.036L218.251 182.109C220.371 183.473 219.476 187 217.073 187H181.072Z" fill="#32DA6D"/>
<path d="M88 101C92.9705 101 97 96.9705 97 92C97 87.0295 92.9705 83 88 83C83.0295 83 79 87.0295 79 92C79 96.9705 83.0295 101 88 101Z" fill="#092511"/>
<path d="M171.001 101C175.972 101 180 96.9705 180 92C180 87.0295 175.972 83 171.001 83C166.03 83 162 87.0295 162 92C162 96.9705 166.03 101 171.001 101Z" fill="#092511"/>
<path d="M150.438 127.709C152.732 127.908 154.466 129.962 153.888 132.212C153.421 134.029 152.752 135.793 151.892 137.468C150.39 140.392 148.331 142.988 145.835 145.109C143.339 147.229 140.453 148.833 137.343 149.828C134.233 150.823 130.959 151.19 127.708 150.908C124.457 150.625 121.293 149.699 118.397 148.183C115.501 146.666 112.929 144.589 110.828 142.069C108.727 139.549 107.139 136.636 106.153 133.496C105.448 131.25 105.061 128.919 105.001 126.572C104.961 125.024 106.323 123.878 107.852 124.01L129.837 125.92L150.438 127.709Z" fill="#092511"/>
</g>
</g>
<defs>
<clipPath id="clip0_2818_7">
<rect width="256" height="256" fill="white"/>
</clipPath>
</defs>
</svg>
