<svg width="256" height="256" viewBox="0 0 256 256" fill="none" xmlns="http://www.w3.org/2000/svg">
<g clip-path="url(#clip0_2818_139)">
<mask id="mask0_2818_139" style="mask-type:luminance" maskUnits="userSpaceOnUse" x="0" y="0" width="256" height="256">
<path d="M256 0H0V256H256V0Z" fill="white"/>
</mask>
<g mask="url(#mask0_2818_139)">
<path d="M256 0H0V256H256V0Z" fill="white"/>
</g>
<path d="M200.504 128.308L208.168 119.311L204.836 116.867L210.168 111.98L206.058 108.87L211.39 104.871L207.946 102.205L213.5 75.1029L205.058 50M205.058 50L150.854 70.1046H105.646L51.4417 50L43 75.1029L48.6648 102.205L45.1104 104.871L50.5531 108.87L46.4433 111.98L51.7749 116.867L48.4427 119.311L56.1068 128.308L44.444 164.296L55.2182 201.062L93.0948 190.621L100.426 196.619L115.421 206.838H141.079L156.074 196.619L163.405 190.621L201.393 201.062L212.278 164.296L200.504 128.308" fill="#F5841F"/>
<path d="M205.059 50L138.525 98.984L150.855 70.1046L205.059 50Z" fill="#E27625"/>
<path d="M51.4414 50L117.42 99.4283L105.646 70.1046L51.4414 50Z" fill="#E27625"/>
<path d="M181.178 163.629L163.406 190.51L201.394 200.951L212.279 164.185L181.178 163.629Z" fill="#E27625"/>
<path d="M44.4453 164.185L55.2196 200.951L93.0961 190.51L75.4352 163.629L44.4453 164.185Z" fill="#E27625"/>
<path d="M91.097 118.089L80.5449 133.973L118.088 135.639L116.866 95.4297L91.097 118.089Z" fill="#E27625"/>
<path d="M165.517 118.089L139.303 94.9854L138.525 135.639L176.069 133.973L165.517 118.089Z" fill="#E27625"/>
<path d="M93.0938 190.51L115.864 179.624L96.2039 164.518L93.0938 190.51Z" fill="#E27625"/>
<path d="M140.746 179.624L163.405 190.51L160.295 164.518L140.746 179.624Z" fill="#E27625"/>
<path d="M163.405 190.51L140.746 179.625L142.634 194.286L142.412 200.507L163.405 190.51Z" fill="#D7C1B3"/>
<path d="M93.0938 190.51L114.198 200.507L114.087 194.286L115.864 179.625L93.0938 190.51Z" fill="#D7C1B3"/>
<path d="M114.531 154.744L95.7598 149.301L109.089 143.192L114.531 154.744Z" fill="#2F343B"/>
<path d="M141.967 154.744L147.521 143.192L160.85 149.301L141.967 154.744Z" fill="#2F343B"/>
<path d="M93.0945 190.51L96.4267 163.629L75.4336 164.185L93.0945 190.51Z" fill="#CC6228"/>
<path d="M160.184 163.629L163.405 190.51L181.177 164.185L160.184 163.629Z" fill="#CC6228"/>
<path d="M176.069 133.973L138.525 135.639L141.969 154.744L147.522 143.192L160.851 149.301L176.069 133.973Z" fill="#CC6228"/>
<path d="M95.7622 149.301L109.091 143.192L114.534 154.744L118.088 135.639L80.5449 133.973L95.7622 149.301Z" fill="#CC6228"/>
<path d="M80.5449 133.973L96.2065 164.518L95.7622 149.301L80.5449 133.973Z" fill="#E27625"/>
<path d="M160.85 149.301L160.295 164.518L176.068 133.973L160.85 149.301Z" fill="#E27625"/>
<path d="M118.088 135.639L114.533 154.744L118.976 177.403L119.976 147.635L118.088 135.639Z" fill="#E27625"/>
<path d="M138.525 135.639L136.637 147.524L137.525 177.403L141.968 154.744L138.525 135.639Z" fill="#E27625"/>
<path d="M141.966 154.743L137.523 177.403L140.745 179.624L160.294 164.518L160.849 149.301L141.966 154.743Z" fill="#F5841F"/>
<path d="M95.7598 149.301L96.2041 164.518L115.864 179.624L118.974 177.403L114.531 154.743L95.7598 149.301Z" fill="#F5841F"/>
<path d="M142.411 200.507L142.633 194.286L140.856 192.842H115.642L114.087 194.286L114.198 200.507L93.0938 190.51L100.425 196.508L115.42 206.838H141.078L156.073 196.508L163.404 190.51L142.411 200.507Z" fill="#C0AD9E"/>
<path d="M140.746 179.625L137.525 177.403H118.975L115.865 179.625L114.088 194.287L115.643 192.843H140.857L142.634 194.287L140.746 179.625Z" fill="#2F343B"/>
<path d="M207.946 102.205L213.5 75.1029L205.058 50L140.746 97.3179L165.516 118.089L200.504 128.308L208.169 119.311L204.836 116.867L210.168 112.091L206.058 108.87L211.39 104.871L207.946 102.205Z" fill="#763E1A"/>
<path d="M43 75.1029L48.6648 102.205L45.1104 104.871L50.442 108.981L46.3322 112.091L51.6638 116.867L48.3316 119.311L56.1068 128.308L91.0954 118.089L115.865 97.3179L51.4417 50L43 75.1029Z" fill="#763E1A"/>
<path d="M200.504 128.308L165.515 118.089L176.068 133.973L160.295 164.518L181.177 164.185H212.278L200.504 128.308Z" fill="#F5841F"/>
<path d="M91.0968 118.089L56.1082 128.308L44.4453 164.185H75.4352L96.2062 164.518L80.5447 133.973L91.0968 118.089Z" fill="#F5841F"/>
<path d="M138.525 135.639L140.746 97.3178L150.854 70.1045H105.646L115.865 97.3178L118.087 135.639L118.975 147.635V177.403H137.525L137.636 147.635L138.525 135.639Z" fill="#F5841F"/>
<path d="M196.276 249.553C225.7 249.553 249.553 225.7 249.553 196.276C249.553 166.853 225.7 143 196.276 143C166.853 143 143 166.853 143 196.276C143 225.7 166.853 249.553 196.276 249.553Z" fill="#092511"/>
<path d="M224.114 204.909C224.114 214.747 212.107 218.745 197.199 218.745C182.291 218.745 170.109 214.747 170.109 204.909C170.109 195.07 182.204 187.109 197.112 187.109C212.02 187.109 224.114 195.088 224.114 204.909Z" fill="#24A95A"/>
<path d="M221.371 183.464C221.371 178.285 217.141 174.078 211.933 174.078C209.225 174.078 206.784 175.217 205.064 177.031C204.797 177.312 204.408 177.449 204.028 177.372C201.849 176.932 199.543 176.685 197.165 176.685C194.787 176.685 192.481 176.917 190.302 177.368C189.922 177.447 189.531 177.312 189.263 177.031C187.529 175.217 185.089 174.078 182.397 174.078C177.188 174.078 172.959 178.285 172.959 183.464C172.959 184.975 173.316 186.39 173.946 187.649C174.097 187.95 174.112 188.303 173.981 188.614C173.371 190.069 173.046 191.606 173.046 193.198C173.046 202.324 183.847 209.711 197.165 209.711C210.483 209.711 221.284 202.324 221.284 193.198C221.284 191.606 220.959 190.069 220.348 188.614C220.218 188.303 220.233 187.95 220.384 187.649C221.014 186.39 221.371 184.975 221.371 183.464Z" fill="#32DA6D"/>
<path d="M181.625 188.671C184.81 188.671 187.392 186.103 187.392 182.935C187.392 179.767 184.81 177.199 181.625 177.199C178.44 177.199 175.857 179.767 175.857 182.935C175.857 186.103 178.44 188.671 181.625 188.671Z" fill="white"/>
<path d="M212.396 188.671C215.581 188.671 218.164 186.103 218.164 182.935C218.164 179.767 215.581 177.199 212.396 177.199C209.211 177.199 206.629 179.767 206.629 182.935C206.629 186.103 209.211 188.671 212.396 188.671Z" fill="white"/>
<path d="M178.566 218.036C179.807 218.036 180.785 216.959 180.646 215.742C180.139 211.431 177.989 202.097 168.534 196.483C158.169 190.326 163.1 206.694 165.161 212.658C165.578 213.864 165.095 215.203 163.988 215.838L163.308 216.229C162.434 216.733 162.801 218.036 163.797 218.036H178.566Z" fill="#32DA6D"/>
<path d="M216.129 218.036C215.011 218.036 214.137 216.959 214.26 215.742C214.696 211.448 216.654 202.097 225.183 196.483C234.627 190.278 230.03 206.949 228.195 212.794C227.835 213.941 228.278 215.189 229.293 215.832L229.919 216.229C230.705 216.733 230.374 218.036 229.482 218.036H216.129Z" fill="#32DA6D"/>
<path d="M181.634 186.366C183.534 186.366 185.075 184.826 185.075 182.926C185.075 181.025 183.534 179.485 181.634 179.485C179.734 179.485 178.193 181.025 178.193 182.926C178.193 184.826 179.734 186.366 181.634 186.366Z" fill="#092511"/>
<path d="M212.404 186.366C214.304 186.366 215.844 184.826 215.844 182.926C215.844 181.025 214.304 179.485 212.404 179.485C210.503 179.485 208.963 181.025 208.963 182.926C208.963 184.826 210.503 186.366 212.404 186.366Z" fill="#092511"/>
<path d="M204.8 196.237C205.653 196.31 206.298 197.067 206.083 197.896C205.91 198.566 205.661 199.216 205.341 199.833C204.782 200.91 204.017 201.867 203.088 202.648C202.16 203.429 201.086 204.02 199.93 204.387C198.773 204.753 197.555 204.889 196.346 204.785C195.137 204.68 193.96 204.339 192.883 203.781C191.806 203.222 190.849 202.456 190.068 201.528C189.287 200.599 188.696 199.526 188.329 198.369C188.067 197.542 187.923 196.683 187.901 195.818C187.886 195.248 188.393 194.826 188.961 194.874L197.138 195.578L204.8 196.237Z" fill="#092511"/>
</g>
<defs>
<clipPath id="clip0_2818_139">
<rect width="256" height="256" fill="white"/>
</clipPath>
</defs>
</svg>
