<svg xmlns="http://www.w3.org/2000/svg" xmlns:xlink="http://www.w3.org/1999/xlink" viewBox="0 0 163.46 162.46"><defs><style>.cls-1{fill:#fcfcfc;}.cls-2{fill:url(#linear-gradient);}</style><linearGradient id="linear-gradient" x1="23.94" y1="142.64" x2="139.56" y2="26.94" gradientTransform="matrix(1, 0, 0, -1, 0, 165.96)" gradientUnits="userSpaceOnUse"><stop offset="0" stop-color="#f99f1b"/><stop offset="0.2" stop-color="#f79022"/><stop offset="0.37" stop-color="#f5812a"/><stop offset="0.6" stop-color="#f15e32"/><stop offset="0.75" stop-color="#e2483a"/><stop offset="0.86" stop-color="#c53345"/><stop offset="1" stop-color="#bb2c4a"/></linearGradient></defs><g id="Layer_2" data-name="Layer 2"><g id="Layer_1-2" data-name="Layer 1"><ellipse class="cls-1" cx="81.11" cy="81.1" rx="81.11" ry="81.1"/><path class="cls-2" d="M81.66,120.08A38.84,38.84,0,0,1,61.91,115a40.31,40.31,0,0,1-14.13-14.12A38.74,38.74,0,0,1,42.67,81.1a37.72,37.72,0,0,1,5.11-19.55A39.13,39.13,0,0,1,61.91,47.74a37.62,37.62,0,0,1,19.75-5.29,39.25,39.25,0,0,1,19.89,5.11,37.79,37.79,0,0,1,14,14,37.13,37.13,0,0,1,5.29,19.55,37.83,37.83,0,0,1-5.29,19.75,38,38,0,0,1-33.88,19.23Zm0-16.47a21.71,21.71,0,0,0,11.19-2.81,19.56,19.56,0,0,0,7.59-8.1,23.67,23.67,0,0,0,2.81-11.64,22.91,22.91,0,0,0-2.81-11.51A21.05,21.05,0,0,0,81.66,58.83a21.13,21.13,0,0,0-11.18,3,20.13,20.13,0,0,0-7.6,7.77,24.28,24.28,0,0,0-2.62,11.51A25.07,25.07,0,0,0,62.88,92.7a21.86,21.86,0,0,0,7.6,8.1A22.13,22.13,0,0,0,81.66,103.61Zm-.09,58.85a81.25,81.25,0,0,1-41.29-10.72A84,84,0,0,1,10.73,122.2,80.94,80.94,0,0,1,0,80.92C0,65.73,3.59,52.11,10.73,40a81.86,81.86,0,0,1,29.55-28.9A79.18,79.18,0,0,1,81.57,0a82.36,82.36,0,0,1,41.61,10.73A78.66,78.66,0,0,1,152.41,40c7.37,12.14,11.05,25.76,11.05,41a79.06,79.06,0,0,1-11.05,41.28,81.31,81.31,0,0,1-29.23,29.54Q104.67,162.44,81.57,162.46Zm.18-30.74q14.5,0,25.41-6.35A44.58,44.58,0,0,0,124.47,107a54.3,54.3,0,0,0,6.35-26.46q0-14.83-6.35-26.09a46.08,46.08,0,0,0-17.31-17.62q-10.9-6.71-25.41-6.72a48.25,48.25,0,0,0-25.41,6.72A46.4,46.4,0,0,0,39,54.46q-6,11.32-6,26.09A56.93,56.93,0,0,0,39,107a47.72,47.72,0,0,0,17.3,18.36A51,51,0,0,0,81.75,131.72Z"/></g></g></svg>