<svg width="256" height="256" viewBox="0 0 256 256" fill="none" xmlns="http://www.w3.org/2000/svg">
<g clip-path="url(#clip0_2825_334)">
<path d="M256 0H0V256H256V0Z" fill="url(#paint0_linear_2825_334)"/>
<path d="M127.028 255.58C197.765 255.58 255.109 198.148 255.109 127.302C255.109 56.4555 197.765 -0.976562 127.028 -0.976562C56.291 -0.976562 -1.05273 56.4555 -1.05273 127.302C-1.05273 198.148 56.291 255.58 127.028 255.58Z" fill="#FCFCFC"/>
<path d="M127.897 188.958C116.972 189.11 106.205 186.336 96.7094 180.923C87.5189 175.471 79.8457 167.79 74.3967 158.589C68.9607 149.071 66.174 138.266 66.3274 127.302C66.1595 116.451 68.9494 105.76 74.3967 96.3792C79.8464 87.3061 87.5288 79.7851 96.7094 74.5355C106.135 68.9159 116.929 66.0199 127.897 66.1682C138.897 66.0226 149.737 68.8123 159.305 74.2508C168.508 79.5331 176.139 87.1768 181.412 96.395C187.004 105.728 189.896 116.434 189.766 127.318C189.897 138.301 187.007 149.109 181.412 158.557C176.065 167.991 168.269 175.8 158.85 181.155C149.431 186.51 138.74 189.212 127.912 188.974L127.897 188.958ZM127.897 162.907C134.079 163.049 140.185 161.513 145.567 158.462C150.713 155.44 154.876 150.99 157.552 145.65C160.582 139.995 162.11 133.655 161.989 127.239C162.13 120.885 160.599 114.607 157.552 109.033C154.602 103.784 150.287 99.4351 145.064 96.4491C139.842 93.4631 133.909 91.952 127.897 92.0769C121.686 91.9817 115.571 93.6251 110.242 96.8221C105.193 99.739 101.041 103.991 98.2411 109.112C95.3878 114.747 93.9667 121.001 94.1038 127.318C93.9964 133.672 95.4153 139.96 98.2411 145.65C101.074 150.884 105.207 155.298 110.242 158.462C115.632 161.48 121.723 163.013 127.897 162.907ZM127.754 255.991C104.901 256.257 82.3914 250.403 62.5534 239.035C43.3187 227.646 27.268 211.574 15.891 192.311C4.5167 172.455 -1.33437 149.908 -1.0528 127.017C-1.0528 102.991 4.61618 81.4477 15.891 62.293C27.2854 43.3084 43.3517 27.5694 62.5534 16.581C82.2686 4.85045 104.825 -1.2234 127.754 -0.976164C150.77 -1.24257 173.444 4.61409 193.461 15.9958C212.695 27.027 228.631 43.0121 239.618 62.293C251.256 81.4951 257.067 103.038 257.067 127.144C257.345 150.1 251.308 172.69 239.618 192.438C228.533 211.754 212.627 227.855 193.461 239.162C173.975 250.36 152.073 255.97 127.754 255.991ZM128.039 207.369C143.303 207.369 156.678 204.021 168.164 197.325C179.879 190.48 189.371 180.39 195.498 168.269C202.333 155.397 205.783 140.993 205.525 126.416C205.525 110.778 202.183 97.0224 195.498 85.1489C189.088 73.5404 179.637 63.9042 168.164 57.2789C156.689 50.2033 143.314 46.6602 128.039 46.6497C113.939 46.4052 100.049 50.0848 87.9138 57.2789C76.4363 63.922 66.973 73.5596 60.5322 85.1648C54.2157 97.1015 51.0575 110.857 51.0575 126.432C50.8048 140.939 54.0553 155.291 60.5322 168.269C66.8728 180.228 76.3087 190.259 87.8506 197.309C100.142 204.115 113.996 207.583 128.039 207.369Z" fill="url(#paint1_linear_2825_334)"/>
</g>
<defs>
<linearGradient id="paint0_linear_2825_334" x1="37.5001" y1="36.7532" x2="219.676" y2="217.939" gradientUnits="userSpaceOnUse">
<stop stop-color="#F99F1B"/>
<stop offset="0.2" stop-color="#F79022"/>
<stop offset="0.37" stop-color="#F5812A"/>
<stop offset="0.6" stop-color="#F15E32"/>
<stop offset="0.75" stop-color="#E2483A"/>
<stop offset="0.86" stop-color="#C53345"/>
<stop offset="1" stop-color="#BB2C4A"/>
</linearGradient>
<linearGradient id="paint1_linear_2825_334" x1="36.7509" y1="35.9097" x2="219.63" y2="218.612" gradientUnits="userSpaceOnUse">
<stop stop-color="#F99F1B"/>
<stop offset="0.2" stop-color="#F79022"/>
<stop offset="0.37" stop-color="#F5812A"/>
<stop offset="0.6" stop-color="#F15E32"/>
<stop offset="0.75" stop-color="#E2483A"/>
<stop offset="0.86" stop-color="#C53345"/>
<stop offset="1" stop-color="#BB2C4A"/>
</linearGradient>
<clipPath id="clip0_2825_334">
<rect width="256" height="256" fill="white"/>
</clipPath>
</defs>
</svg>
