<svg width="256" height="256" viewBox="0 0 256 256" fill="none" xmlns="http://www.w3.org/2000/svg">
<g clip-path="url(#clip0_2812_30)">
<path d="M256 0H0V256H256V0Z" fill="black"/>
<path d="M149.812 103.936H108.442C106.701 103.936 105.268 105.37 105.268 107.11V148.48C105.268 150.221 106.701 151.654 108.442 151.654H149.812C151.552 151.654 152.986 150.221 152.986 148.48V107.11C152.986 105.37 151.552 103.936 149.812 103.936Z" fill="white"/>
<path d="M101.991 56.2178H60.6217C58.8809 56.2178 57.4473 57.6514 57.4473 59.3922V100.762C57.4473 102.503 58.8809 103.936 60.6217 103.936H101.991C103.732 103.936 105.166 102.503 105.166 100.762V59.3922C105.166 57.6514 103.732 56.2178 101.991 56.2178Z" fill="white"/>
<path d="M197.634 56.2178H156.264C154.523 56.2178 153.09 57.6514 153.09 59.3922V100.762C153.09 102.503 154.523 103.936 156.264 103.936H197.634C199.375 103.936 200.808 102.503 200.808 100.762V59.3922C200.808 57.6514 199.375 56.2178 197.634 56.2178Z" fill="white"/>
<path d="M101.991 151.757H60.6217C58.8809 151.757 57.4473 153.19 57.4473 154.931V196.301C57.4473 198.042 58.8809 199.475 60.6217 199.475H101.991C103.732 199.475 105.166 198.042 105.166 196.301V154.931C105.166 153.19 103.732 151.757 101.991 151.757Z" fill="white"/>
<path d="M197.634 151.757H156.264C154.523 151.757 153.09 153.19 153.09 154.931V196.301C153.09 198.042 154.523 199.475 156.264 199.475H197.634C199.375 199.475 200.808 198.042 200.808 196.301V154.931C200.808 153.19 199.375 151.757 197.634 151.757Z" fill="white"/>
</g>
<defs>
<clipPath id="clip0_2812_30">
<rect width="256" height="256" fill="white"/>
</clipPath>
</defs>
</svg>
