<svg width="256" height="256" viewBox="0 0 256 256" fill="none" xmlns="http://www.w3.org/2000/svg">
<g clip-path="url(#clip0_1239_2)">
<rect width="256" height="256" fill="#18181B"/>
<g filter="url(#filter0_d_1239_2)">
<path d="M137.03 115.944L185.365 67.8757L167.028 49.6367L127.858 88.5917L88.6881 49.6367L70.3513 67.8757L118.687 115.944C121.216 118.46 124.54 119.718 127.852 119.718C131.163 119.718 134.488 118.46 137.017 115.944H137.03Z" fill="white"/>
</g>
<g filter="url(#filter1_d_1239_2)">
<path d="M207 167.29L167.83 128.335L207 89.3796L188.663 71.1406L140.328 119.209C135.263 124.247 135.263 132.409 140.328 137.448L188.663 185.516L207 167.277V167.29Z" fill="white"/>
</g>
<g filter="url(#filter2_d_1239_2)">
<path d="M127.793 168.165L166.963 207.12L185.3 188.881L136.964 140.813C131.9 135.781 123.693 135.781 118.628 140.813L70.2925 188.881L88.6292 207.12L127.793 168.165Z" fill="white"/>
</g>
<g filter="url(#filter3_d_1239_2)">
<path d="M115.323 137.527C117.755 135.108 119.123 131.829 119.123 128.407C119.123 124.985 117.761 121.706 115.323 119.288L66.9879 71.2197L48.6511 89.4587L87.8213 128.414L48.6511 167.369L66.9879 185.608L115.323 137.54V137.527Z" fill="white"/>
</g>
</g>
<defs>
<filter id="filter0_d_1239_2" x="69.8393" y="49.1247" width="116.038" height="71.1051" filterUnits="userSpaceOnUse" color-interpolation-filters="sRGB">
<feFlood flood-opacity="0" result="BackgroundImageFix"/>
<feColorMatrix in="SourceAlpha" type="matrix" values="0 0 0 0 0 0 0 0 0 0 0 0 0 0 0 0 0 0 127 0" result="hardAlpha"/>
<feOffset/>
<feGaussianBlur stdDeviation="0.256"/>
<feColorMatrix type="matrix" values="0 0 0 0 0 0 0 0 0 0 0 0 0 0 0 0 0 0 0.13 0"/>
<feBlend mode="normal" in2="BackgroundImageFix" result="effect1_dropShadow_1239_2"/>
<feBlend mode="normal" in="SourceGraphic" in2="effect1_dropShadow_1239_2" result="shape"/>
</filter>
<filter id="filter1_d_1239_2" x="136.018" y="70.6286" width="71.4947" height="115.399" filterUnits="userSpaceOnUse" color-interpolation-filters="sRGB">
<feFlood flood-opacity="0" result="BackgroundImageFix"/>
<feColorMatrix in="SourceAlpha" type="matrix" values="0 0 0 0 0 0 0 0 0 0 0 0 0 0 0 0 0 0 127 0" result="hardAlpha"/>
<feOffset/>
<feGaussianBlur stdDeviation="0.256"/>
<feColorMatrix type="matrix" values="0 0 0 0 0 0 0 0 0 0 0 0 0 0 0 0 0 0 0.13 0"/>
<feBlend mode="normal" in2="BackgroundImageFix" result="effect1_dropShadow_1239_2"/>
<feBlend mode="normal" in="SourceGraphic" in2="effect1_dropShadow_1239_2" result="shape"/>
</filter>
<filter id="filter2_d_1239_2" x="69.7805" y="136.527" width="116.031" height="71.1051" filterUnits="userSpaceOnUse" color-interpolation-filters="sRGB">
<feFlood flood-opacity="0" result="BackgroundImageFix"/>
<feColorMatrix in="SourceAlpha" type="matrix" values="0 0 0 0 0 0 0 0 0 0 0 0 0 0 0 0 0 0 127 0" result="hardAlpha"/>
<feOffset/>
<feGaussianBlur stdDeviation="0.256"/>
<feColorMatrix type="matrix" values="0 0 0 0 0 0 0 0 0 0 0 0 0 0 0 0 0 0 0.13 0"/>
<feBlend mode="normal" in2="BackgroundImageFix" result="effect1_dropShadow_1239_2"/>
<feBlend mode="normal" in="SourceGraphic" in2="effect1_dropShadow_1239_2" result="shape"/>
</filter>
<filter id="filter3_d_1239_2" x="48.1391" y="70.7077" width="71.4964" height="115.412" filterUnits="userSpaceOnUse" color-interpolation-filters="sRGB">
<feFlood flood-opacity="0" result="BackgroundImageFix"/>
<feColorMatrix in="SourceAlpha" type="matrix" values="0 0 0 0 0 0 0 0 0 0 0 0 0 0 0 0 0 0 127 0" result="hardAlpha"/>
<feOffset/>
<feGaussianBlur stdDeviation="0.256"/>
<feColorMatrix type="matrix" values="0 0 0 0 0 0 0 0 0 0 0 0 0 0 0 0 0 0 0.13 0"/>
<feBlend mode="normal" in2="BackgroundImageFix" result="effect1_dropShadow_1239_2"/>
<feBlend mode="normal" in="SourceGraphic" in2="effect1_dropShadow_1239_2" result="shape"/>
</filter>
<clipPath id="clip0_1239_2">
<rect width="256" height="256" fill="white"/>
</clipPath>
</defs>
</svg>
