<svg width="256" height="256" viewBox="0 0 256 256" fill="none" xmlns="http://www.w3.org/2000/svg">
<g clip-path="url(#clip0_1239_2)">
<rect width="256" height="256" fill="#05113B"/>
<path fill-rule="evenodd" clip-rule="evenodd" d="M128.018 160.801L213 157.107L128.018 153.412L43 157.107L128.018 160.801Z" fill="#8817D1"/>
<path fill-rule="evenodd" clip-rule="evenodd" d="M126.17 175.579L183.435 171.885L126.17 168.19L68.8696 171.885L126.17 175.579Z" fill="#8817D1"/>
<path fill-rule="evenodd" clip-rule="evenodd" d="M128.018 190.358L157.565 186.663L128.018 182.969L98.4348 186.663L128.018 190.358Z" fill="#8817D1"/>
<path fill-rule="evenodd" clip-rule="evenodd" d="M213 142.327V142.181C212.993 139.113 212.792 136.172 212.419 133.23L211.421 127.37C210.57 123.375 209.392 119.491 207.901 115.746L206.626 112.551L204.836 109.047C201.181 102.005 196.402 95.5537 190.709 89.8831L132.187 87.5701L185.879 85.4498C170.704 72.5823 150.363 64.7388 128 64.7388C109.826 64.7388 92.9863 69.9195 79.1687 78.767L132.187 80.8615L72.8829 83.2063C67.9564 87.0322 63.5169 91.3612 59.6613 96.1126L57.2508 99.1394L55.0714 102.645C51.971 107.129 49.4917 111.988 47.5795 117.092L46.6682 119.855L45.5858 123.214C43.9011 129.329 43 135.773 43 142.327H213Z" fill="url(#paint0_linear_1239_2)"/>
<path d="M153.636 108.064C163.303 102.577 170.303 100.521 181.467 103.636C192.63 106.75 193.533 128.884 198.217 138.374C191.564 129.791 187.755 113.39 176.116 112.645C164.475 111.901 152.697 116.158 145.162 123.833C146.937 125.331 148.712 126.828 150.486 128.324C135.492 137.412 115.215 139.454 97.8779 133.622C104.105 132.934 110.03 130.55 114.648 126.875C107.64 116.127 91.2675 112.89 77.6469 115.069C64.0248 117.25 63.4911 134.8 50.3914 138.633C61.6697 125.204 67.5075 108.271 84.4176 103.232C90.9131 101.295 94.3511 100.948 100.683 103.528C108.326 106.644 118.971 117.809 127.228 119.029C134.581 120.118 147.461 111.57 153.636 108.064Z" fill="black"/>
</g>
<defs>
<linearGradient id="paint0_linear_1239_2" x1="128" y1="142.328" x2="128" y2="64.7374" gradientUnits="userSpaceOnUse">
<stop stop-color="#9900CC"/>
<stop offset="1" stop-color="#00CCFF"/>
</linearGradient>
<clipPath id="clip0_1239_2">
<rect width="256" height="256" fill="white"/>
</clipPath>
</defs>
</svg>
