<svg width="256" height="256" viewBox="0 0 256 256" fill="none" xmlns="http://www.w3.org/2000/svg">
<g clip-path="url(#clip0_1239_2)">
<rect width="256" height="256" fill="#11151C"/>
<path d="M141.867 208V142.24C157.578 143.92 168.239 151.12 168.239 151.12L178.258 139.84C161.826 128.16 137.458 127.68 137.458 127.68L133.451 83.52C136.096 81.76 137.859 78.8 137.859 75.36C137.859 70 133.451 65.6 128.08 65.6C122.71 65.6 118.301 70 118.301 75.36C118.301 78.8 120.064 81.84 122.71 83.52L118.702 127.68C118.702 127.68 94.3341 128.08 77.902 139.84L87.9216 151.12C87.9216 151.12 98.5825 143.92 114.293 142.24V208C52.8931 162.56 47.8432 96.56 48.0035 74.64C48.0035 70.08 50.7289 65.92 54.897 64.08C67.161 58.64 95.1357 48 128 48C160.864 48 188.839 58.64 201.103 64.08C205.271 65.92 207.996 70.08 207.996 74.64C208.157 96.56 203.107 162.56 141.867 208Z" fill="#FFAF1D"/>
</g>
<defs>
<clipPath id="clip0_1239_2">
<rect width="256" height="256" fill="white"/>
</clipPath>
</defs>
</svg>
