<?xml version="1.0" encoding="utf-8"?>
<!-- Generator: Adobe Illustrator 19.0.0, SVG Export Plug-In . SVG Version: 6.00 Build 0)  -->
<svg version="1.1" id="Layer_1" xmlns="http://www.w3.org/2000/svg" xmlns:xlink="http://www.w3.org/1999/xlink" x="0px" y="0px"
	 viewBox="0 0 1200 1200" style="enable-background:new 0 0 1200 1200;" xml:space="preserve">
<style type="text/css">
	.st0{clip-path:url(#SVGID_2_);fill-rule:evenodd;clip-rule:evenodd;}
	.st1{clip-path:url(#SVGID_4_);fill:url(#SVGID_5_);}
	.st2{clip-path:url(#SVGID_7_);fill:url(#SVGID_8_);}
	.st3{clip-path:url(#SVGID_10_);fill:url(#SVGID_11_);}
	.st4{clip-path:url(#SVGID_13_);fill:url(#SVGID_14_);}
	.st5{clip-path:url(#SVGID_16_);fill:url(#SVGID_17_);}
	.st6{clip-path:url(#SVGID_19_);fill:url(#SVGID_20_);}
	.st7{clip-path:url(#SVGID_22_);fill:url(#SVGID_23_);}
</style>
<g>
	<defs>
		<rect id="SVGID_1_" width="1200" height="1200"/>
	</defs>
	<clipPath id="SVGID_2_">
		<use xlink:href="#SVGID_1_"  style="overflow:visible;"/>
	</clipPath>
	<path class="st0" d="M897.8,591.5c0,185.7-150.5,336.2-336.2,336.2c-185.7,0-336.2-150.5-336.2-336.2
		c0-185.7,150.5-336.2,336.2-336.2C747.2,255.3,897.8,405.8,897.8,591.5"/>
</g>
<g>
	<defs>
		<path id="SVGID_3_" d="M269.7,669.8c-7.4-30.5-11.2-55.7-11.2-79.9c0-167.6,136.4-304.3,304.3-304.3
			c129.1,0,243.4,82.6,284.3,205.3c12.1,33.5,17.7,66,17.7,99c0,168.1-135.4,304.3-302,304.3C426.2,894.2,305.5,801.8,269.7,669.8
			 M223.6,589.9c0,26.9,3.8,55.2,12.3,88.8c40.1,147.6,174.6,250.5,327,250.5c185.8,0,337.1-152,337.1-339.3
			c0-37.1-6.6-73.3-19.7-110.4c-45.5-136.9-173.2-228.8-317.4-228.8C375.8,250.7,223.6,403.1,223.6,589.9"/>
	</defs>
	<clipPath id="SVGID_4_">
		<use xlink:href="#SVGID_3_"  style="overflow:visible;"/>
	</clipPath>
	
		<linearGradient id="SVGID_5_" gradientUnits="userSpaceOnUse" x1="2.707120e-007" y1="1200" x2="1" y2="1200" gradientTransform="matrix(676.3852 0 0 -676.3852 223.6148 812252.25)">
		<stop  offset="0" style="stop-color:#0056D4"/>
		<stop  offset="1" style="stop-color:#2EFFEF"/>
	</linearGradient>
	<rect x="223.6" y="250.7" class="st1" width="676.4" height="678.5"/>
</g>
<g>
	<defs>
		<path id="SVGID_6_" d="M342.5,454.2l196.7-49.8c14.5-3.6,29.5-5.4,44.4-5.4l0.4,0c4.3-0.3,101.2-6.2,176,50.9l15.1-3.8
			c-54.1-77.4-150-114.9-242.4-94.6l0-0.1l-90.9,22.9l3.1-33.9L342.5,454.2z"/>
	</defs>
	<clipPath id="SVGID_7_">
		<use xlink:href="#SVGID_6_"  style="overflow:visible;"/>
	</clipPath>
	
		<linearGradient id="SVGID_8_" gradientUnits="userSpaceOnUse" x1="-1.904817e-006" y1="1200.0106" x2="1" y2="1200.0106" gradientTransform="matrix(432.5744 0 0 -432.5744 342.5448 519486.5938)">
		<stop  offset="0" style="stop-color:#0056D4"/>
		<stop  offset="1" style="stop-color:#2EFFEF"/>
	</linearGradient>
	<rect x="342.5" y="331.1" class="st2" width="432.6" height="123.1"/>
</g>
<g>
	<defs>
		<path id="SVGID_9_" d="M584.4,772.3c-14.5,3.6-29.5,5.4-44.4,5.4l-0.4,0c-4.3,0.3-101.2,6.2-176-50.9l-15.1,3.8
			c54.1,77.4,150,114.9,242.4,94.6l0,0.1l90.9-22.9l-3.1,33.9l102.3-113.9L584.4,772.3z"/>
	</defs>
	<clipPath id="SVGID_10_">
		<use xlink:href="#SVGID_9_"  style="overflow:visible;"/>
	</clipPath>
	
		<linearGradient id="SVGID_11_" gradientUnits="userSpaceOnUse" x1="-1.552072e-006" y1="1199.9894" x2="1" y2="1199.9894" gradientTransform="matrix(432.5743 0 0 -432.5743 348.4957 519868.625)">
		<stop  offset="0" style="stop-color:#0056D4"/>
		<stop  offset="1" style="stop-color:#2EFFEF"/>
	</linearGradient>
	<rect x="348.5" y="722.5" class="st3" width="432.6" height="123.1"/>
</g>
<g>
	<defs>
		<path id="SVGID_12_" d="M498.6,446.3c-30.6,0-55.5,22.7-55.5,50.7v191.2c0,28,24.8,50.7,55.5,50.7h181.9c0-32.3-28.7-58.5-64-58.5
			h-36c-35.6,0-64.4-26.4-64.4-58.9v0h94.2c17.7,0,32-13.1,32-29.3c0-16.2-14.3-29.3-32-29.3h-94.2c0-32.1,28.5-58.2,63.6-58.2h36.8
			c35.4,0,64-26.2,64-58.5H498.6z"/>
	</defs>
	<clipPath id="SVGID_13_">
		<use xlink:href="#SVGID_12_"  style="overflow:visible;"/>
	</clipPath>
	
		<linearGradient id="SVGID_14_" gradientUnits="userSpaceOnUse" x1="-4.172553e-007" y1="1200" x2="1" y2="1200" gradientTransform="matrix(0 -292.5553 -292.5553 0 351628.1563 738.8359)">
		<stop  offset="0" style="stop-color:#0056D4"/>
		<stop  offset="1" style="stop-color:#2EFFEF"/>
	</linearGradient>
	<rect x="443.1" y="446.3" class="st4" width="237.4" height="292.6"/>
</g>
<g>
	<defs>
		<path id="SVGID_15_" d="M498.6,446.3c-30.6,0-55.5,22.7-55.5,50.7v58.7c0-28,24.8-50.7,55.5-50.7l17.5-0.2h100.4
			c35.4,0,64-26.2,64-58.5H498.6z"/>
	</defs>
	<clipPath id="SVGID_16_">
		<use xlink:href="#SVGID_15_"  style="overflow:visible;"/>
	</clipPath>
	
		<linearGradient id="SVGID_17_" gradientUnits="userSpaceOnUse" x1="-2.313849e-006" y1="1200" x2="1" y2="1200" gradientTransform="matrix(237.4037 0 0 -237.4037 443.1056 285385.4063)">
		<stop  offset="0" style="stop-color:#0056D4"/>
		<stop  offset="1" style="stop-color:#2EFFEF"/>
	</linearGradient>
	<rect x="443.1" y="446.3" class="st5" width="237.4" height="109.4"/>
</g>
<g>
	<defs>
		<path id="SVGID_18_" d="M443.1,688.1c0,28,24.8,50.7,55.5,50.7h181.9c0-32.3-28.7-58.5-64-58.5H516.1l-17.5-0.2
			c-30.6,0-55.5-22.7-55.5-50.7V688.1z"/>
	</defs>
	<clipPath id="SVGID_19_">
		<use xlink:href="#SVGID_18_"  style="overflow:visible;"/>
	</clipPath>
	
		<linearGradient id="SVGID_20_" gradientUnits="userSpaceOnUse" x1="-2.313849e-006" y1="1200" x2="1" y2="1200" gradientTransform="matrix(237.4037 0 0 -237.4037 443.1056 285568.5625)">
		<stop  offset="0" style="stop-color:#0056D4"/>
		<stop  offset="1" style="stop-color:#2EFFEF"/>
	</linearGradient>
	<rect x="443.1" y="629.5" class="st6" width="237.4" height="109.4"/>
</g>
<g>
	<defs>
		<path id="SVGID_21_" d="M443.1,571.2c0,28,24.8,50.7,55.5,50.7h178.7c0-32.3-28.7-58.5-64-58.5h1.3l-115.9-0.2
			c-30.6,0-55.5-22.7-55.5-50.7V571.2z"/>
	</defs>
	<clipPath id="SVGID_22_">
		<use xlink:href="#SVGID_21_"  style="overflow:visible;"/>
	</clipPath>
	
		<linearGradient id="SVGID_23_" gradientUnits="userSpaceOnUse" x1="-2.476516e-006" y1="1200" x2="1" y2="1200" gradientTransform="matrix(234.133 0 0 -234.133 443.1056 281526.8125)">
		<stop  offset="0" style="stop-color:#0056D4"/>
		<stop  offset="1" style="stop-color:#2EFFEF"/>
	</linearGradient>
	<rect x="443.1" y="512.5" class="st7" width="234.1" height="109.4"/>
</g>
</svg>
