<svg width="256" height="256" viewBox="0 0 256 256" fill="none" xmlns="http://www.w3.org/2000/svg">
<g clip-path="url(#clip0_1239_2)">
<rect width="256" height="256" fill="black"/>
<mask id="mask0_1239_2" style="mask-type:luminance" maskUnits="userSpaceOnUse" x="36" y="35" width="184" height="185">
<path d="M49.2082 149.282C47.203 141.017 46.1734 134.189 46.1734 127.631C46.1734 82.217 83.1335 45.1756 128.629 45.1756C163.611 45.1756 194.583 67.5576 205.666 100.805C208.944 109.883 210.462 118.689 210.462 127.631C210.462 173.181 173.773 210.087 128.629 210.087C91.6148 210.087 58.9089 185.05 49.2082 149.282ZM36.7166 127.631C36.7166 134.92 37.7462 142.589 40.0495 151.693C50.9153 191.688 87.3606 219.571 128.656 219.571C179.002 219.571 220 178.384 220 127.631C220 117.578 218.211 107.769 214.662 97.7164C202.333 60.6208 167.73 35.7188 128.656 35.7188C77.958 35.7188 36.7166 77.0144 36.7166 127.631Z" fill="white"/>
</mask>
<g mask="url(#mask0_1239_2)">
<path d="M220 35.7188H36.7166V219.571H220V35.7188Z" fill="url(#paint0_linear_1239_2)"/>
</g>
<mask id="mask1_1239_2" style="mask-type:luminance" maskUnits="userSpaceOnUse" x="68" y="60" width="119" height="31">
<path d="M68.9348 90.8612L122.234 77.3669C126.163 76.3914 130.228 75.9037 134.265 75.9037H134.374C135.539 75.8224 161.796 74.2237 182.064 89.696L186.156 88.6663C171.497 67.6933 145.511 57.532 120.473 63.0327V63.0056L95.842 69.2107L96.682 60.0249L68.9348 90.8612Z" fill="white"/>
</mask>
<g mask="url(#mask1_1239_2)">
<path d="M186.156 57.5049H68.9348V90.8611H186.156V57.5049Z" fill="url(#paint1_linear_1239_2)"/>
</g>
<mask id="mask2_1239_2" style="mask-type:luminance" maskUnits="userSpaceOnUse" x="70" y="163" width="118" height="32">
<path d="M134.482 177.056C130.553 178.032 126.489 178.52 122.451 178.52H122.343C121.178 178.601 94.9206 180.2 74.6522 164.727L70.5605 165.757C85.22 186.73 111.206 196.891 136.243 191.391V191.418L160.874 185.213L160.034 194.398L187.755 163.535L134.482 177.056Z" fill="white"/>
</mask>
<g mask="url(#mask2_1239_2)">
<path d="M187.782 163.562H70.5605V196.919H187.782V163.562Z" fill="url(#paint2_linear_1239_2)"/>
</g>
<mask id="mask3_1239_2" style="mask-type:luminance" maskUnits="userSpaceOnUse" x="96" y="88" width="65" height="81">
<path d="M111.233 88.7204C102.941 88.7204 96.1943 94.8714 96.1943 102.459V154.268C96.1943 161.855 102.914 168.006 111.233 168.006H160.522C160.522 159.254 152.746 152.154 143.18 152.154H133.425C123.779 152.154 115.975 145.001 115.975 136.194H141.5C146.296 136.194 150.171 132.645 150.171 128.255C150.171 123.865 146.296 120.315 141.5 120.315H115.975C115.975 111.617 123.698 104.545 133.209 104.545H143.18C152.773 104.545 160.522 97.4457 160.522 88.6934H111.233V88.7204Z" fill="white"/>
</mask>
<g mask="url(#mask3_1239_2)">
<path d="M160.522 88.7202H96.1943V168.006H160.522V88.7202Z" fill="url(#paint3_linear_1239_2)"/>
</g>
<mask id="mask4_1239_2" style="mask-type:luminance" maskUnits="userSpaceOnUse" x="96" y="88" width="65" height="31">
<path d="M111.233 88.7207C102.941 88.7207 96.1943 94.8717 96.1943 102.459V118.365C96.1943 110.778 102.914 104.627 111.233 104.627L115.975 104.572H143.18C152.773 104.572 160.522 97.473 160.522 88.7207H111.233V88.7207Z" fill="white"/>
</mask>
<g mask="url(#mask4_1239_2)">
<path d="M160.522 88.7207H96.1943V118.365H160.522V88.7207Z" fill="url(#paint4_linear_1239_2)"/>
</g>
<mask id="mask5_1239_2" style="mask-type:luminance" maskUnits="userSpaceOnUse" x="96" y="138" width="65" height="30">
<path d="M96.1943 154.241C96.1943 161.828 102.914 167.979 111.233 167.979H160.522C160.522 159.227 152.746 152.127 143.18 152.127H115.975L111.233 152.073C102.941 152.073 96.1943 145.922 96.1943 138.335V154.241Z" fill="white"/>
</mask>
<g mask="url(#mask5_1239_2)">
<path d="M160.522 138.362H96.1943V168.006H160.522V138.362Z" fill="url(#paint5_linear_1239_2)"/>
</g>
<mask id="mask6_1239_2" style="mask-type:luminance" maskUnits="userSpaceOnUse" x="96" y="106" width="64" height="31">
<path d="M96.1943 122.565C96.1943 130.152 102.914 136.303 111.233 136.303H159.655C159.655 127.55 151.878 120.451 142.313 120.451H142.665L111.26 120.397C102.969 120.397 96.2214 114.246 96.2214 106.659V122.565H96.1943Z" fill="white"/>
</mask>
<g mask="url(#mask6_1239_2)">
<path d="M159.628 106.659H96.1943V136.303H159.628V106.659Z" fill="url(#paint6_linear_1239_2)"/>
</g>
</g>
<defs>
<linearGradient id="paint0_linear_1239_2" x1="36.7206" y1="127.661" x2="220" y2="127.661" gradientUnits="userSpaceOnUse">
<stop stop-color="#0056D4"/>
<stop offset="1" stop-color="#2EFFEF"/>
</linearGradient>
<linearGradient id="paint1_linear_1239_2" x1="68.9467" y1="74.2043" x2="186.161" y2="74.2043" gradientUnits="userSpaceOnUse">
<stop stop-color="#0056D4"/>
<stop offset="1" stop-color="#2EFFEF"/>
</linearGradient>
<linearGradient id="paint2_linear_1239_2" x1="70.5592" y1="180.241" x2="187.774" y2="180.241" gradientUnits="userSpaceOnUse">
<stop stop-color="#0056D4"/>
<stop offset="1" stop-color="#2EFFEF"/>
</linearGradient>
<linearGradient id="paint3_linear_1239_2" x1="128.357" y1="167.988" x2="128.357" y2="88.715" gradientUnits="userSpaceOnUse">
<stop stop-color="#0056D4"/>
<stop offset="1" stop-color="#2EFFEF"/>
</linearGradient>
<linearGradient id="paint4_linear_1239_2" x1="96.1957" y1="103.534" x2="160.525" y2="103.534" gradientUnits="userSpaceOnUse">
<stop stop-color="#0056D4"/>
<stop offset="1" stop-color="#2EFFEF"/>
</linearGradient>
<linearGradient id="paint5_linear_1239_2" x1="96.1957" y1="153.163" x2="160.525" y2="153.163" gradientUnits="userSpaceOnUse">
<stop stop-color="#0056D4"/>
<stop offset="1" stop-color="#2EFFEF"/>
</linearGradient>
<linearGradient id="paint6_linear_1239_2" x1="96.1957" y1="121.484" x2="159.639" y2="121.484" gradientUnits="userSpaceOnUse">
<stop stop-color="#0056D4"/>
<stop offset="1" stop-color="#2EFFEF"/>
</linearGradient>
<clipPath id="clip0_1239_2">
<rect width="256" height="256" fill="white"/>
</clipPath>
</defs>
</svg>
