<svg width="256" height="256" viewBox="0 0 256 256" fill="none" xmlns="http://www.w3.org/2000/svg">
<g clip-path="url(#clip0_3135_14)">
<path d="M256 0H0V256H256V0Z" fill="black"/>
<path d="M191.941 128.09C191.941 115.103 188.039 103.019 181.356 92.9222L201.18 73.0986L183.352 55.2709L163.583 75.0403C153.432 68.2217 141.221 64.2389 128.099 64.2389C115.112 64.2389 103.028 68.1404 92.9313 74.8236L73.0987 55L55.271 72.8277L75.0404 92.5971C68.2218 102.748 64.239 114.959 64.239 128.081C64.239 141.068 68.1405 153.152 74.8236 163.249L55 183.081L72.8277 200.909L92.5972 181.14C102.748 187.958 114.959 191.941 128.081 191.941C141.068 191.941 153.152 188.04 163.249 181.356L183.081 201.189L200.909 183.361L181.14 163.592C187.958 153.423 191.941 141.213 191.941 128.09ZM89.4633 128.09C89.4633 106.785 106.794 89.4542 128.099 89.4542C149.404 89.4542 166.735 106.785 166.735 128.09C166.735 149.395 149.404 166.726 128.099 166.726C106.794 166.726 89.4633 149.395 89.4633 128.09Z" fill="white"/>
</g>
<defs>
<clipPath id="clip0_3135_14">
<rect width="256" height="256" fill="white"/>
</clipPath>
</defs>
</svg>
