<svg width="256" height="256" viewBox="0 0 256 256" fill="none" xmlns="http://www.w3.org/2000/svg">
<g clip-path="url(#clip0_1239_2)">
<rect width="256" height="256" fill="black"/>
<path fill-rule="evenodd" clip-rule="evenodd" d="M189.141 111.651H130.293C119.999 111.651 111.653 119.998 111.653 130.292V189.139C111.653 199.434 119.999 207.78 130.293 207.78H189.141C199.436 207.78 207.781 199.434 207.781 189.139V130.292C207.781 119.998 199.436 111.651 189.141 111.651ZM130.293 106.433C117.116 106.433 106.434 117.115 106.434 130.292V189.139C106.434 202.316 117.116 212.999 130.293 212.999H189.141C202.318 212.999 213 202.316 213 189.139V130.292C213 117.115 202.318 106.433 189.141 106.433H130.293Z" fill="#CA61FF"/>
<path fill-rule="evenodd" clip-rule="evenodd" d="M157.424 79.9361H98.5764C88.2817 79.9361 79.9363 88.2816 79.9363 98.5759V157.424C79.9363 167.718 88.2817 176.063 98.5764 176.063H157.424C167.719 176.063 176.064 167.718 176.064 157.424V98.5759C176.064 88.2816 167.719 79.9361 157.424 79.9361ZM98.5764 74.7168C85.3994 74.7168 74.717 85.399 74.717 98.5759V157.424C74.717 170.601 85.3994 181.283 98.5764 181.283H157.424C170.601 181.283 181.283 170.601 181.283 157.424V98.5759C181.283 85.399 170.601 74.7168 157.424 74.7168H98.5764Z" fill="#616EFF"/>
<path fill-rule="evenodd" clip-rule="evenodd" d="M125.706 48.2197H66.8596C56.5649 48.2197 48.2194 56.5653 48.2194 66.8599V125.707C48.2194 136.002 56.5649 144.347 66.8597 144.347H125.706C136.001 144.347 144.347 136.002 144.347 125.707V66.8599C144.347 56.5652 136.001 48.2197 125.706 48.2197ZM66.8596 43.0005C53.6824 43.0005 43.0002 53.6827 43.0002 66.8599V125.707C43.0002 138.885 53.6825 149.566 66.8597 149.566H125.706C138.884 149.566 149.567 138.885 149.567 125.707V66.8599C149.567 53.6827 138.884 43.0005 125.706 43.0005H66.8596Z" fill="#61DFFF"/>
</g>
<defs>
<clipPath id="clip0_1239_2">
<rect width="256" height="256" fill="white"/>
</clipPath>
</defs>
</svg>
