<svg width="256" height="256" viewBox="0 0 256 256" fill="none" xmlns="http://www.w3.org/2000/svg">
<g clip-path="url(#clip0_1239_2)">
<rect width="256" height="256" fill="#006AFF"/>
<mask id="mask0_1239_2" style="mask-type:luminance" maskUnits="userSpaceOnUse" x="42" y="80" width="173" height="97">
<path d="M214.444 80H42V177H214.444V80Z" fill="white"/>
</mask>
<g mask="url(#mask0_1239_2)">
<mask id="mask1_1239_2" style="mask-type:luminance" maskUnits="userSpaceOnUse" x="42" y="80" width="173" height="97">
<path d="M214.444 80H42V177H214.444V80Z" fill="white"/>
</mask>
<g mask="url(#mask1_1239_2)">
<path d="M55.2489 81.8057H42V175.304H55.2489V81.8057Z" fill="white"/>
<path d="M104.57 141.197H97.749C83.6572 141.197 72.1948 130.451 72.1948 117.24V81.7769H111.4C125.492 81.7769 136.954 92.5224 136.954 105.733V115.007H123.706V105.733C123.706 99.3743 118.183 94.1973 111.4 94.1973H85.4438V117.24C85.4438 123.599 90.966 128.776 97.749 128.776H104.57V141.197ZM138.277 151.268V140.109C138.277 126.898 126.815 116.153 112.723 116.153H104.57V128.573H112.723C119.506 128.573 125.028 133.75 125.028 140.109V151.268C125.028 157.626 119.506 162.803 112.723 162.803H85.4438V142.009H72.1948V175.224H112.723C126.815 175.224 138.277 164.478 138.277 151.268Z" fill="white"/>
<path d="M183.399 177H181.195C164.078 177 150.148 163.942 150.148 147.895V109.097C150.148 93.0512 164.078 79.9927 181.195 79.9927H183.399C200.515 79.9927 214.444 93.0512 214.444 109.097H201.196C201.196 99.9032 193.214 92.4204 183.406 92.4204H181.202C171.395 92.4204 163.413 99.9032 163.413 109.097V147.895C163.413 157.09 171.395 164.572 181.202 164.572H183.406C193.214 164.572 201.196 157.09 201.196 147.895H214.444C214.444 163.942 200.515 177 183.399 177Z" fill="white"/>
<path d="M183.399 177H181.195C164.078 177 150.148 163.942 150.148 147.895V109.097C150.148 93.0512 164.078 79.9927 181.195 79.9927H183.399C200.515 79.9927 214.444 93.0512 214.444 109.097H201.196C201.196 99.9032 193.214 92.4204 183.406 92.4204H181.202C171.395 92.4204 163.413 99.9032 163.413 109.097V147.895C163.413 157.09 171.395 164.572 181.202 164.572H183.406C193.214 164.572 201.196 157.09 201.196 147.895H214.444C214.444 163.942 200.515 177 183.399 177Z" fill="white"/>
</g>
</g>
</g>
<defs>
<clipPath id="clip0_1239_2">
<rect width="256" height="256" fill="white"/>
</clipPath>
</defs>
</svg>
