<svg width="256" height="256" viewBox="0 0 256 256" fill="none" xmlns="http://www.w3.org/2000/svg">
<g clip-path="url(#clip0_1239_2)">
<rect width="256" height="256" fill="#131415"/>
<path d="M197.744 200H161.445C159.064 200 156.809 199.062 155.118 197.373L89.3154 131.659C87.5615 129.907 87.5615 127.093 89.3154 125.341L155.118 59.6273C156.809 57.9383 159.064 57 161.445 57H197.744C199.749 57 200.751 59.4084 199.342 60.8158L133.163 126.905C132.286 127.781 132.286 129.188 133.163 130.064L199.342 196.153C200.751 197.56 199.749 199.969 197.744 199.969V200Z" fill="#FFF7EF"/>
<path d="M93.3938 95.3773L63.6706 125.341C61.9332 127.093 61.9332 129.907 63.6706 131.659L93.3938 161.623C95.0692 163.312 96 165.564 96 167.941V195.527C96 197.998 94.0143 200 91.5632 200H61.4368C58.9857 200 57 197.998 57 195.527V61.4727C57 59.0017 58.9857 57 61.4368 57H91.5632C94.0143 57 96 59.0017 96 61.4727V89.0593C96 91.4363 95.0692 93.6883 93.3938 95.3773Z" fill="#FFF7EF"/>
</g>
<defs>
<clipPath id="clip0_1239_2">
<rect width="256" height="256" fill="white"/>
</clipPath>
</defs>
</svg>
