<svg width="256" height="256" viewBox="0 0 256 256" fill="none" xmlns="http://www.w3.org/2000/svg">
<g clip-path="url(#clip0_1239_2)">
<rect width="256" height="256" fill="#33CB9F"/>
<path d="M63.5772 85.1995C65.4778 82.6076 66.8902 79.3511 69.36 77.533C83.2707 67.2981 97.39 57.3444 111.573 47.4908C113.179 46.3755 115.638 46.4886 117.702 46.0317C118.055 48.0294 119.06 50.1691 118.659 52.0009C115.569 66.1408 112.212 80.2227 108.927 94.3198C106.651 104.086 104.239 113.822 102.151 123.627C101.614 126.15 101.592 128.99 102.148 131.504C105.876 148.365 109.828 165.177 113.7 182.006C115.379 189.304 117.176 196.58 118.604 203.927C118.908 205.497 118.363 208.079 117.271 208.831C116.197 209.571 113.523 209.157 112.246 208.26C97.39 197.818 82.6084 187.267 67.9758 176.516C66.1057 175.142 65.1928 172.466 63.7804 169.811C63.7437 148.566 63.7827 127.903 63.7727 107.241C63.7689 99.8933 63.6459 92.5468 63.5772 85.1995Z" fill="#FCFEFE"/>
<path d="M147.618 112.071C160.484 105.136 173.087 98.3082 185.703 91.501C190.239 89.0534 192.905 90.4728 192.93 95.6895C193.027 116.928 193.019 138.168 192.933 159.407C192.914 164.223 190.035 165.946 185.91 163.733C164.447 152.221 143.021 140.64 121.591 129.067C121.074 128.787 120.657 128.321 119.414 127.308C129.063 122.086 138.213 117.135 147.618 112.07V112.071ZM156.465 160.279C165.089 164.93 173.503 169.38 181.858 173.938C185.608 175.983 185.785 178.369 182.311 180.882C167.896 191.307 153.436 201.672 138.957 212.01C135.44 214.521 133.022 213.762 131.937 209.459C129.485 199.733 127.315 189.933 125.082 180.153C122.225 167.643 119.414 155.124 116.602 142.603C116.364 141.545 116.268 140.455 115.98 138.542C129.887 145.998 143.059 153.06 156.465 160.279ZM130.401 51.9818C130.945 49.6977 131.272 47.681 131.848 45.7407C133.132 41.4299 135.489 40.6447 139.205 43.2862C149.863 50.8604 160.492 58.475 171.132 66.0736C174.644 68.5823 178.182 71.0558 181.661 73.6088C185.922 76.7354 185.817 78.8415 181.115 81.3991C164.072 90.6691 146.993 99.8719 129.921 109.088C125.515 111.466 121.086 113.802 115.671 116.689C120.71 94.5008 125.503 73.3926 130.401 51.9818Z" fill="#FBFEFD"/>
</g>
<defs>
<clipPath id="clip0_1239_2">
<rect width="256" height="256" fill="white"/>
</clipPath>
</defs>
</svg>
