<svg width="256" height="256" viewBox="0 0 256 256" fill="none" xmlns="http://www.w3.org/2000/svg">
<g clip-path="url(#clip0_1239_2)">
<rect width="256" height="256" fill="#141414"/>
<path d="M118.067 101.938L80.7469 126.576C79.6449 127.304 79.6449 128.922 80.7469 129.65L118.406 154.513C120.323 155.781 121.476 157.926 121.476 160.22V199.268C121.476 200.847 119.701 201.771 118.41 200.866L51.7473 154.356C50.0273 153.155 49 151.191 49 149.093V107.137C49 105.039 50.0233 103.075 51.7473 101.875L118.41 55.3641C119.701 54.4628 121.476 55.3877 121.476 56.9621V95.6047C121.476 98.1551 120.197 100.536 118.067 101.941V101.938Z" fill="#FAF0F0"/>
<path d="M207.707 107.133V149.089C207.707 151.187 206.684 153.151 204.96 154.352L138.298 200.862C137.007 201.764 135.232 200.839 135.232 199.264V160.216C135.232 157.918 136.385 155.773 138.302 154.509L175.961 129.646C177.063 128.918 177.063 127.3 175.961 126.572L138.64 101.934C136.511 100.528 135.232 98.1472 135.232 95.5967V56.9541C135.232 55.3758 137.007 54.4509 138.298 55.3562L204.96 101.867C206.68 103.067 207.707 105.031 207.707 107.129V107.133Z" fill="#FAF0F0"/>
</g>
<defs>
<clipPath id="clip0_1239_2">
<rect width="256" height="256" fill="white"/>
</clipPath>
</defs>
</svg>
