<svg width="256" height="256" viewBox="0 0 256 256" fill="none" xmlns="http://www.w3.org/2000/svg">
<g clip-path="url(#clip0_1239_2)">
<rect width="256" height="256" fill="#0C00FF"/>
<path d="M207.712 89.2015C207.615 92.3672 206.226 95.5885 203.56 98.2822C194.369 107.599 185.204 116.93 176.013 126.246C174.652 127.621 174.652 127.621 175.985 128.982C185.246 138.437 194.507 147.879 203.755 157.349C207.406 161.097 208.892 165.541 207.462 170.72C204.741 180.62 192.786 183.716 185.51 176.385C175.36 166.152 165.28 155.849 155.158 145.574C150.659 141.006 146.146 136.424 141.648 131.856C138.843 128.996 138.829 126.274 141.648 123.442C156.157 108.765 170.667 94.0889 185.191 79.4265C189.189 75.386 194.66 74.2752 199.673 76.3996C204.477 78.4129 207.712 83.3281 207.712 89.2015Z" fill="#F6F6F6"/>
<path d="M130.693 115.069C129.068 116.693 126.472 116.707 124.847 115.069C119.557 109.737 112.976 103.169 108.144 98.3097C105.478 95.6161 104.075 92.4087 103.964 89.2429C103.937 83.3557 107.158 78.4405 111.948 76.3994C116.947 74.2611 122.417 75.358 126.43 79.3846C131.095 84.0638 137.843 91.0757 143.189 96.5186C144.814 98.1709 144.814 100.851 143.175 102.503L130.693 115.069Z" fill="#F6F6F6"/>
<path d="M47.8415 89.2015C47.9387 92.3672 49.3272 95.5885 51.9931 98.2822C61.1849 107.599 70.3489 116.93 79.5407 126.246C80.9014 127.621 80.9014 127.621 79.5685 128.982C70.3072 138.437 61.046 147.879 51.7987 157.349C48.147 161.097 46.6613 165.541 48.0914 170.72C50.8129 180.62 62.7677 183.716 70.0434 176.385C80.1933 166.152 90.2737 155.849 100.396 145.574C104.895 141.006 109.407 136.424 113.906 131.856C116.711 128.996 116.724 126.274 113.906 123.442C99.3961 108.765 84.8864 94.0889 70.3628 79.4265C66.3639 75.386 60.8933 74.2752 55.8808 76.3996C51.0767 78.4129 47.8415 83.3281 47.8415 89.2015Z" fill="#F6F6F6"/>
<path d="M130.609 140.395C128.985 138.77 126.388 138.757 124.764 140.395C119.474 145.727 112.892 152.294 108.06 157.154C105.394 159.848 103.992 163.055 103.881 166.221C103.853 172.108 107.075 177.023 111.865 179.064C116.863 181.203 122.334 180.106 126.347 176.079C131.012 171.4 137.76 164.388 143.106 158.945C144.73 157.293 144.73 154.613 143.092 152.961L130.609 140.395Z" fill="#F6F6F6"/>
</g>
<defs>
<clipPath id="clip0_1239_2">
<rect width="256" height="256" fill="white"/>
</clipPath>
</defs>
</svg>
