<svg width="256" height="256" viewBox="0 0 256 256" fill="none" xmlns="http://www.w3.org/2000/svg">
<g clip-path="url(#clip0_1239_2)">
<rect width="256" height="256" fill="#295B7D"/>
<path d="M128.369 69.1396L111.698 86.1049L128.369 103.07L145.041 86.1049L128.369 69.1396Z" fill="#B7EEFA"/>
<path d="M72.6843 104.298L54.9248 87.022V172.26H75.9356V135.503C88.3468 145.484 101.673 154.254 115.74 161.687C118.418 163.107 121.163 164.494 123.975 165.846C144.852 175.897 166.997 182.948 189.775 186.8L192.143 172.26H202V108.027H180.989V163.26C164.427 159.506 148.314 153.883 132.95 146.486L132.945 146.484C130.369 145.245 127.865 143.981 125.434 142.691L125.427 142.687L125.419 142.683C106.144 132.499 88.3886 119.575 72.6843 104.298Z" fill="#B7EEFA"/>
</g>
<defs>
<clipPath id="clip0_1239_2">
<rect width="256" height="256" fill="white"/>
</clipPath>
</defs>
</svg>
