<svg version="1.1" id="Layer_1" xmlns="http://www.w3.org/2000/svg" xmlns:xlink="http://www.w3.org/1999/xlink" x="0px" y="0px"
	 width="100%" viewBox="0 0 400 400" enable-background="new 0 0 400 400" xml:space="preserve">
<path fill="#000000" opacity="1.000000" stroke="none" 
	d="
M220.000000,401.000000 
	C146.666672,401.000000 73.833336,401.000000 1.000000,401.000000 
	C1.000000,267.666656 1.000000,134.333328 1.000000,1.000000 
	C134.333328,1.000000 267.666656,1.000000 401.000000,1.000000 
	C401.000000,134.333328 401.000000,267.666656 401.000000,401.000000 
	C340.833344,401.000000 280.666656,401.000000 220.000000,401.000000 
M191.350281,82.109833 
	C165.327759,83.817993 142.110413,92.860100 121.519669,108.791679 
	C80.018600,140.902100 63.128555,197.771347 85.645630,248.258636 
	C105.884445,293.637665 155.003098,324.484833 208.512695,320.881775 
	C237.038849,318.961029 262.534271,309.385132 284.059387,290.560089 
	C317.050659,261.707214 331.105804,225.119141 324.219269,181.826447 
	C318.941986,148.650284 300.969940,122.608467 273.160248,103.758766 
	C248.786301,87.237823 221.724884,79.973373 191.350281,82.109833 
z"/>
<path fill="#000000" opacity="1.000000" stroke="none" 
	d="
M173.584961,224.346924 
	C174.705368,226.366623 176.002197,227.928772 176.222916,230.364731 
	C169.756897,232.786743 163.064926,233.018951 156.552841,232.970215 
	C133.110352,232.794800 114.321762,222.590561 98.988037,205.284607 
	C95.489655,201.336258 96.423210,196.755478 96.906006,192.439804 
	C102.019760,146.728424 136.764694,110.345512 182.693375,103.692581 
	C228.090240,97.116676 264.463928,112.462334 290.423279,150.835403 
	C295.829590,158.827026 299.964752,169.397980 300.479614,175.168060 
	C300.046295,175.251282 299.501648,175.548126 299.162903,175.393600 
	C273.785828,163.817581 247.341400,165.401703 220.682648,168.774124 
	C207.462036,170.446548 194.435974,173.158737 181.320435,175.389679 
	C173.685028,176.688431 170.385406,180.290695 169.306610,187.926910 
	C167.555038,200.325134 167.604248,212.501434 173.584961,224.346924 
z"/>
<path fill="#000000" opacity="1.000000" stroke="none" 
	d="
M199.549164,224.448074 
	C191.978622,217.413071 188.748276,209.087997 189.435791,199.097092 
	C189.639038,196.143494 190.600113,194.483963 193.571335,193.956345 
	C218.156982,189.590378 242.694244,184.571274 267.895660,187.658447 
	C274.845642,188.509796 281.685608,190.010269 287.991455,193.262726 
	C299.969513,199.440811 305.435516,211.740387 302.018890,224.746155 
	C290.526672,268.492462 250.066605,299.772064 204.679489,300.503052 
	C167.424377,301.103088 137.288635,287.307648 114.783127,257.421082 
	C110.685600,251.979706 107.218605,246.138947 104.823067,239.465607 
	C107.356720,238.338898 108.768219,240.121277 110.352608,241.006210 
	C137.988144,256.441681 166.493713,256.544128 195.677643,246.048019 
	C208.105652,241.578217 208.945755,231.611588 199.549164,224.448074 
z"/>
</svg>