<svg width="256" height="256" viewBox="0 0 256 256" fill="none" xmlns="http://www.w3.org/2000/svg">
<g clip-path="url(#clip0_1239_2)">
<rect width="256" height="256" fill="white"/>
<mask id="mask0_1239_2" style="mask-type:luminance" maskUnits="userSpaceOnUse" x="32" y="32" width="192" height="192">
<path d="M224 32H32V224H224V32Z" fill="white"/>
</mask>
<g mask="url(#mask0_1239_2)">
<path d="M134.808 224H128C74.9808 224 32 181.019 32 128C32 74.9808 74.9808 32 128 32C181.019 32 224 74.9808 224 128C224 132.747 223.655 137.417 222.988 141.985H209.55C210.323 137.443 210.726 132.77 210.726 128C210.726 82.3116 173.688 45.2741 128 45.2741C82.3116 45.2741 45.2741 82.3116 45.2741 128C45.2741 173.688 82.3116 210.726 128 210.726H177.202C164.638 218.215 150.223 222.923 134.808 224Z" fill="#06070A"/>
<path d="M195.593 196.503H128C90.1662 196.503 59.4961 165.833 59.4961 128C59.4961 90.1662 90.1662 59.4961 128 59.4961C165.833 59.4961 196.503 90.1662 196.503 128C196.503 132.789 196.011 137.467 195.073 141.985H181.445C182.609 137.523 183.229 132.837 183.229 128C183.229 97.4974 158.502 72.7702 128 72.7702C97.4974 72.7702 72.7702 97.4974 72.7702 128C72.7702 158.502 97.4974 183.229 128 183.229H206.821C203.481 187.988 199.72 192.431 195.593 196.503Z" fill="#06070A"/>
<path d="M215.088 169.007H128C105.352 169.007 86.9924 150.647 86.9924 128C86.9924 105.352 105.352 86.9922 128 86.9922C150.648 86.9922 169.007 105.352 169.007 128C169.007 132.907 168.143 137.618 166.559 141.985H151.956C154.358 137.882 155.733 133.108 155.733 128C155.733 112.683 143.317 100.267 128 100.267C112.683 100.267 100.267 112.683 100.267 128C100.267 143.317 112.683 155.733 128 155.733H220.181C218.806 160.311 217.099 164.745 215.088 169.007Z" fill="#06070A"/>
</g>
</g>
<defs>
<clipPath id="clip0_1239_2">
<rect width="256" height="256" fill="white"/>
</clipPath>
</defs>
</svg>
