<svg width="256" height="256" viewBox="0 0 256 256" fill="none" xmlns="http://www.w3.org/2000/svg">
<g clip-path="url(#clip0_1239_2)">
<rect width="256" height="256" fill="white"/>
<path d="M106.911 47.5057C88.9177 50.3913 72.8726 59.0477 59.7026 73.0097C45.4197 88.0887 38 106.704 38 127.647C38 149.242 45.3269 168.137 59.7026 183.216C70.9249 195.131 83.5384 202.763 99.0268 206.952C109.229 209.744 128.242 209.651 138.63 206.859C162.465 200.436 182.406 183.775 192.33 161.901L195.483 154.92L202.347 154.362C206.056 154.082 210.786 153.337 212.826 152.593L216.537 151.383V142.541V133.698L211.435 134.07C199.471 134.908 199.842 135.001 199.564 131.464C199.378 129.788 199.564 128.02 200.027 127.555C200.399 127.182 203.83 126.158 207.633 125.413C211.343 124.576 214.96 123.459 215.702 122.9C216.629 122.156 217 119.549 217 114.151C217 104.843 216.258 103.912 210.322 105.215C208.19 105.681 204.294 106.332 201.883 106.612C196.874 107.17 197.523 107.915 193.443 96.8381C191.402 91.2534 186.115 82.4108 180.829 75.8952C171.276 64.074 153.098 52.8113 137.702 48.9951C130.19 47.2265 113.959 46.3888 106.911 47.5057ZM135.384 69.5657C144.009 72.0789 153.098 77.4776 160.239 84.2724C166.825 90.5087 174.059 100.747 173.038 102.423C172.76 102.795 169.885 102.609 166.732 101.772C160.333 100.189 139.186 99.6305 133.343 100.934C127.779 102.144 127.036 103.447 127.036 112.196C127.036 122.063 127.593 122.715 135.105 121.039C138.073 120.387 145.308 119.922 151.151 119.922C159.869 120.015 163.393 120.481 170.163 122.528C174.708 123.832 178.789 125.507 179.16 126.065C179.716 126.996 179.253 130.813 178.418 132.488C178.232 132.767 174.986 132.302 171.369 131.277C156.437 127.462 137.331 127.182 130.004 130.626C127.593 131.836 127.5 132.209 127.222 139.934C126.851 150.639 127.315 151.104 136.497 149.335C149.666 146.729 173.41 149.428 173.41 153.524C173.41 156.409 166.176 166.369 159.498 172.605C147.904 183.682 130.468 190.011 114.98 188.801C106.632 188.15 95.1314 184.612 88.3612 180.703C77.8809 174.653 67.4006 162.46 62.3923 150.452C57.4767 138.817 57.1057 120.666 61.4648 108.287C68.699 87.5302 88.3612 71.055 109.878 67.7042C115.072 66.9595 130.283 67.9834 135.384 69.5657Z" fill="black"/>
</g>
<defs>
<clipPath id="clip0_1239_2">
<rect width="256" height="256" fill="white"/>
</clipPath>
</defs>
</svg>
