<svg width="256" height="256" viewBox="0 0 256 256" fill="none" xmlns="http://www.w3.org/2000/svg">
<g clip-path="url(#clip0_1239_2)">
<rect width="256" height="256" fill="#072C75"/>
<path fill-rule="evenodd" clip-rule="evenodd" d="M184.983 71.0168H82.1357V46H184.983C198.797 46 209.997 57.1974 210 71.011H184.989V71.0168H184.983ZM184.989 79.3559H184.983V184.983V184.989H184.989V210C198.803 209.997 210 198.797 210 184.983V82.1295H184.989V79.3559ZM176.644 184.983V184.989H173.87V210H71.0168C57.2005 210 46 198.799 46 184.983H71.0168H176.644ZM71.0168 46V71.0168V173.864H46V71.0168C46 57.2005 57.2005 46 71.0168 46Z" fill="url(#paint0_linear_1239_2)"/>
<path fill-rule="evenodd" clip-rule="evenodd" d="M123.451 96.0356C122.13 96.0356 121.06 97.1064 121.06 98.4273V118.271H101.217C99.8957 118.271 98.825 119.341 98.825 120.662V132.557C98.825 133.878 99.8957 134.949 101.217 134.949H121.06V154.796C121.06 156.117 122.13 157.188 123.451 157.188H135.346C136.667 157.188 137.738 156.117 137.738 154.796V134.949H157.586C158.907 134.949 159.977 133.878 159.977 132.557V120.662C159.977 119.341 158.907 118.271 157.586 118.271H137.738V98.4273C137.738 97.1064 136.667 96.0356 135.346 96.0356H123.451Z" fill="url(#paint1_linear_1239_2)"/>
</g>
<defs>
<linearGradient id="paint0_linear_1239_2" x1="46" y1="46" x2="213.519" y2="49.6767" gradientUnits="userSpaceOnUse">
<stop stop-color="#3EB1FE"/>
<stop offset="1" stop-color="#0678C4" stop-opacity="0.9917"/>
</linearGradient>
<linearGradient id="paint1_linear_1239_2" x1="98.825" y1="96.0356" x2="161.29" y2="97.4068" gradientUnits="userSpaceOnUse">
<stop stop-color="#3EB1FE"/>
<stop offset="1" stop-color="#0678C4" stop-opacity="0.9917"/>
</linearGradient>
<clipPath id="clip0_1239_2">
<rect width="256" height="256" fill="white"/>
</clipPath>
</defs>
</svg>
