<svg width="256" height="256" viewBox="0 0 256 256" fill="none" xmlns="http://www.w3.org/2000/svg">
<g clip-path="url(#clip0_1239_2)">
<rect width="256" height="256" fill="black"/>
<path d="M119.912 57H120.809C123.634 57.1143 126.454 57.1143 129.273 57C129.293 57.0026 129.312 57.0026 129.333 57H130.296H131.086L128.641 203.707C128.64 203.717 128.636 203.728 128.628 203.735C128.62 203.743 128.61 203.747 128.599 203.747H122.415C122.377 203.747 122.359 203.729 122.359 203.692L119.912 57Z" fill="white"/>
<path d="M111.068 130.345L107.238 78.2114C107.237 78.198 107.242 78.1845 107.249 78.1733L111.765 71.623C111.772 71.6133 111.781 71.6059 111.793 71.6019C111.805 71.5979 111.816 71.5976 111.828 71.601C111.84 71.6042 111.85 71.611 111.859 71.6205C111.867 71.6299 111.87 71.6415 111.871 71.6535L119.217 203.683C119.217 203.692 119.216 203.7 119.214 203.708C119.21 203.715 119.207 203.722 119.201 203.728C119.196 203.734 119.189 203.738 119.182 203.742C119.174 203.745 119.166 203.747 119.158 203.747H113.989C113.975 203.747 113.96 203.741 113.949 203.731C113.939 203.722 113.932 203.708 113.93 203.694L107.766 136.916C107.765 136.905 107.768 136.893 107.772 136.884L111.063 130.377C111.068 130.367 111.069 130.356 111.068 130.345Z" fill="white"/>
<path d="M141.441 128.2C142.128 129.632 142.893 131.02 143.592 132.444C143.619 132.499 143.63 132.558 143.625 132.619L137.067 203.665C137.062 203.72 137.031 203.747 136.975 203.747H131.842C131.832 203.747 131.825 203.746 131.817 203.742C131.809 203.739 131.802 203.734 131.796 203.728C131.79 203.721 131.785 203.714 131.782 203.706C131.779 203.698 131.778 203.69 131.778 203.68L139.126 71.6141C139.126 71.6049 139.129 71.5959 139.135 71.5886C139.14 71.5812 139.149 71.576 139.157 71.5734C139.166 71.5709 139.177 71.5713 139.186 71.5744C139.194 71.5777 139.203 71.5836 139.208 71.5913L144.775 79.6605C144.806 79.7037 144.818 79.7507 144.815 79.8015C143.645 95.6922 142.474 111.58 141.303 127.462C141.284 127.721 141.329 127.967 141.441 128.2Z" fill="white"/>
<path d="M97.4609 96.66L110.747 203.674C110.748 203.683 110.747 203.693 110.745 203.702C110.742 203.71 110.738 203.717 110.732 203.724C110.726 203.731 110.719 203.737 110.711 203.742C110.702 203.745 110.693 203.747 110.685 203.748H105.463C105.447 203.748 105.432 203.742 105.42 203.731C105.409 203.722 105.4 203.707 105.398 203.692L96.2791 148.023C96.2768 148.012 96.2779 147.999 96.2838 147.987L98.7808 142.245C98.7855 142.234 98.7878 142.222 98.7855 142.211L93.4863 102.088C93.4844 102.071 93.4887 102.055 93.498 102.042L97.3437 96.6295C97.3508 96.6184 97.3613 96.61 97.3742 96.6053C97.3871 96.6005 97.4 96.5998 97.4128 96.6032C97.4257 96.6065 97.4374 96.6137 97.4456 96.6239C97.455 96.6341 97.4597 96.6468 97.4609 96.66Z" fill="white"/>
<path d="M153.692 140.009C154.201 141.224 154.742 142.419 155.257 143.632C155.438 144.057 155.324 144.382 155.253 144.812C152.032 164.44 148.816 184.063 145.603 203.678C145.6 203.698 145.59 203.714 145.574 203.727C145.56 203.74 145.54 203.747 145.52 203.747H140.291C140.285 203.747 140.279 203.746 140.273 203.744C140.267 203.741 140.263 203.736 140.259 203.732C140.254 203.727 140.251 203.722 140.25 203.715C140.247 203.71 140.246 203.704 140.247 203.698L153.543 96.6824C153.558 96.5566 153.602 96.5451 153.676 96.6481L158.283 103.141C158.346 103.231 158.373 103.34 158.359 103.448C156.766 115.498 155.184 127.48 153.612 139.393C153.584 139.606 153.61 139.812 153.692 140.009Z" fill="white"/>
<path d="M85.4547 117.475L102.126 203.667C102.128 203.677 102.128 203.687 102.126 203.695C102.124 203.706 102.119 203.714 102.113 203.722C102.107 203.731 102.099 203.736 102.09 203.74C102.08 203.745 102.071 203.747 102.061 203.747H96.7431C96.7278 203.747 96.7126 203.742 96.7009 203.733C96.6892 203.724 96.681 203.711 96.6775 203.695L87.0199 162.993C87.0167 162.981 87.0174 162.967 87.0217 162.955L89.6048 155.529C89.6086 155.517 89.6097 155.504 89.6067 155.492L82.4479 121.443C82.4461 121.434 82.4461 121.424 82.4479 121.415C82.4504 121.406 82.4541 121.397 82.4597 121.389L85.3365 117.448C85.3439 117.438 85.3544 117.431 85.3668 117.426C85.3785 117.422 85.3915 117.421 85.404 117.424C85.4163 117.427 85.4281 117.433 85.4367 117.442C85.446 117.452 85.4521 117.462 85.4547 117.475Z" fill="white"/>
<path d="M165.655 117.44L169.187 122.271C169.192 122.278 169.195 122.286 169.197 122.294C169.198 122.303 169.198 122.312 169.196 122.32L162.741 153.004C162.739 153.015 162.739 153.025 162.743 153.036L164.88 159.164C164.884 159.174 164.885 159.186 164.882 159.198L154.322 203.697C154.319 203.712 154.311 203.724 154.302 203.733C154.291 203.741 154.277 203.745 154.263 203.745H148.933C148.924 203.747 148.914 203.744 148.907 203.741C148.899 203.737 148.891 203.731 148.885 203.724C148.879 203.717 148.876 203.709 148.873 203.701C148.871 203.692 148.87 203.682 148.872 203.673L165.548 117.464C165.55 117.453 165.555 117.442 165.564 117.434C165.572 117.426 165.583 117.42 165.595 117.416C165.605 117.414 165.618 117.415 165.629 117.419C165.639 117.423 165.65 117.43 165.655 117.44Z" fill="white"/>
<path d="M73.2552 137.652L75.0887 135.203C75.0962 135.194 75.1061 135.186 75.1179 135.182C75.129 135.178 75.1413 135.177 75.1537 135.179C75.1654 135.181 75.1766 135.187 75.1852 135.195C75.1939 135.203 75.2001 135.214 75.2032 135.226L93.259 203.664C93.2621 203.673 93.2621 203.684 93.2603 203.693C93.2584 203.704 93.254 203.713 93.2478 203.72C93.2423 203.728 93.2343 203.735 93.225 203.739C93.2163 203.743 93.2065 203.746 93.1965 203.746H87.7212C87.7075 203.746 87.6939 203.741 87.6834 203.733C87.6722 203.725 87.6643 203.713 87.6599 203.7L78.4387 174.264C78.435 174.253 78.435 174.24 78.4387 174.227L80.8387 165.829C80.8425 165.819 80.8431 165.807 80.8406 165.795L73.2434 137.708C73.2409 137.698 73.2409 137.689 73.2428 137.678C73.2453 137.669 73.249 137.66 73.2552 137.652Z" fill="white"/>
<path d="M163.281 203.747L157.804 203.746C157.794 203.746 157.785 203.743 157.776 203.739C157.768 203.735 157.76 203.728 157.754 203.721C157.749 203.714 157.745 203.706 157.743 203.696C157.742 203.687 157.742 203.678 157.744 203.668L175.8 135.222C175.803 135.21 175.808 135.2 175.817 135.192C175.825 135.183 175.835 135.179 175.847 135.176C175.859 135.174 175.871 135.175 175.881 135.18C175.892 135.183 175.902 135.192 175.908 135.201L178.247 138.316C178.253 138.325 178.256 138.333 178.257 138.342C178.26 138.35 178.259 138.36 178.257 138.368L171.518 163.299C171.515 163.311 171.515 163.323 171.518 163.334L173.638 170.788C173.641 170.8 173.641 170.811 173.638 170.822L163.341 203.705C163.336 203.717 163.329 203.728 163.319 203.736C163.308 203.743 163.295 203.747 163.281 203.747Z" fill="white"/>
<path d="M71.3753 178.656C68.888 170.346 66.415 162.028 63.9555 153.705C63.934 153.634 63.9457 153.568 63.9915 153.508L66.159 150.681C66.167 150.67 66.1769 150.663 66.1881 150.66C66.1992 150.655 66.2115 150.654 66.2233 150.656C66.235 150.658 66.2456 150.662 66.2548 150.67C66.2635 150.679 66.2703 150.688 66.2734 150.7L84.0454 203.661C84.0485 203.672 84.0491 203.681 84.0472 203.692C84.0459 203.702 84.0417 203.712 84.0361 203.72C84.0299 203.729 84.0219 203.735 84.0133 203.74C84.0046 203.745 83.9946 203.747 83.9842 203.747H78.3603C78.3287 203.747 78.2978 203.738 78.2718 203.72C78.2459 203.702 78.2254 203.677 78.2137 203.646L70.3989 183.735C70.3586 183.629 70.3531 183.514 70.384 183.409C70.7588 182.097 71.0982 180.766 71.4019 179.412C71.4594 179.158 71.4501 178.906 71.3753 178.656Z" fill="white"/>
<path d="M172.7 203.747H167.014C167.003 203.747 166.994 203.745 166.985 203.74C166.976 203.735 166.969 203.729 166.964 203.721C166.958 203.713 166.954 203.704 166.952 203.694C166.951 203.685 166.951 203.674 166.954 203.665L184.726 150.697C184.73 150.686 184.737 150.676 184.745 150.668C184.753 150.66 184.763 150.655 184.775 150.654C184.787 150.652 184.799 150.653 184.81 150.658C184.82 150.661 184.829 150.668 184.837 150.677L187.498 154.15C187.504 154.158 187.508 154.168 187.509 154.177C187.511 154.186 187.51 154.197 187.508 154.206L180.854 176.634C180.851 176.644 180.849 176.656 180.853 176.668L181.85 180.517C181.853 180.53 181.852 180.543 181.847 180.555L172.758 203.707C172.753 203.719 172.745 203.728 172.735 203.736C172.725 203.742 172.713 203.747 172.7 203.747Z" fill="white"/>
<path d="M64.7542 196.237L65.7301 189.262C65.7319 189.251 65.7307 189.241 65.7264 189.23L56.2496 166.997C56.2456 166.987 56.2444 166.976 56.2461 166.965C56.2477 166.954 56.2523 166.944 56.2591 166.936L58.2513 164.399C58.258 164.391 58.2668 164.384 58.2767 164.381C58.2867 164.376 58.2976 164.375 58.3082 164.376C58.3188 164.377 58.3288 164.382 58.3373 164.389C58.3457 164.396 58.3523 164.404 58.3561 164.415L74.3762 203.663C74.3798 203.672 74.3811 203.683 74.3798 203.692C74.3792 203.702 74.3754 203.711 74.3699 203.72C74.3643 203.728 74.3564 203.735 74.3477 203.74C74.3384 203.743 74.3285 203.747 74.3186 203.747H68.3571C68.346 203.747 68.3342 203.743 68.3249 203.738C68.3151 203.731 68.307 203.722 68.3021 203.712L64.7598 196.274C64.7542 196.263 64.7524 196.25 64.7542 196.237Z" fill="white"/>
<path d="M186.966 185.944C186.798 186.339 186.61 186.628 186.674 187.086C186.958 189.151 187.252 191.25 187.557 193.38C187.567 193.454 187.557 193.529 187.524 193.598L182.717 203.674C182.707 203.696 182.692 203.715 182.67 203.728C182.649 203.741 182.626 203.748 182.601 203.748H176.703C176.629 203.748 176.606 203.714 176.634 203.645L192.633 164.446C192.669 164.362 192.715 164.355 192.772 164.428L194.888 167.116C194.908 167.143 194.921 167.174 194.926 167.205C194.931 167.238 194.926 167.271 194.913 167.301C192.28 173.512 189.631 179.727 186.966 185.944Z" fill="white"/>
<path d="M196.906 191.801L197.537 196.26C197.538 196.274 197.535 196.288 197.528 196.3L193.311 203.714C193.306 203.723 193.298 203.731 193.289 203.737C193.28 203.743 193.27 203.747 193.258 203.747H186.959C186.949 203.747 186.938 203.743 186.929 203.738C186.921 203.733 186.913 203.725 186.908 203.716C186.902 203.708 186.898 203.697 186.898 203.687C186.897 203.677 186.9 203.667 186.904 203.656L199.781 176.789C199.784 176.78 199.792 176.77 199.8 176.764C199.809 176.759 199.819 176.754 199.83 176.753C199.84 176.752 199.852 176.754 199.861 176.759C199.872 176.762 199.88 176.769 199.887 176.777L202.096 179.525C202.103 179.534 202.107 179.545 202.109 179.555C202.11 179.567 202.109 179.578 202.104 179.588L196.913 191.769C196.908 191.779 196.906 191.79 196.906 191.801Z" fill="white"/>
<path d="M51.2324 176.818L64.1138 203.69C64.1169 203.697 64.1181 203.702 64.1181 203.71C64.1174 203.715 64.115 203.722 64.1119 203.728C64.1082 203.734 64.1033 203.739 64.0971 203.742C64.0916 203.745 64.0848 203.747 64.0779 203.747H57.8304C57.7516 203.747 57.6932 203.713 57.6551 203.644L54.9022 198.801C54.8516 198.712 54.8327 198.609 54.8488 198.508C55.0482 197.232 55.2276 195.933 55.3864 194.614C55.4182 194.352 55.3813 194.097 55.2758 193.853C53.2194 189.036 51.1649 184.218 49.1124 179.402C49.1008 179.375 49.0969 179.346 49.1009 179.318C49.1049 179.289 49.1168 179.262 49.1352 179.238L51.095 176.802C51.1038 176.792 51.1152 176.784 51.1281 176.778C51.141 176.772 51.1551 176.771 51.1689 176.772C51.1826 176.773 51.1957 176.779 51.2068 176.786C51.2179 176.794 51.2267 176.806 51.2324 176.818Z" fill="white"/>
<path d="M44.6756 188.066L53.0599 203.663C53.0645 203.672 53.0667 203.682 53.0665 203.692C53.0664 203.701 53.0637 203.711 53.0587 203.72C53.0537 203.727 53.0466 203.734 53.0382 203.739C53.0297 203.745 53.0201 203.747 53.0104 203.747H46.4428C46.3688 203.747 46.2957 203.732 46.2283 203.7C46.1611 203.67 46.1011 203.625 46.0525 203.569C46.004 203.513 45.9679 203.447 45.9468 203.376C45.9256 203.306 45.92 203.231 45.9299 203.157L46.6791 197.796C46.6928 197.704 46.6803 197.609 46.6429 197.521L43.3391 189.788C43.3074 189.713 43.3174 189.642 43.3697 189.578L44.6088 188.059C44.613 188.054 44.6185 188.05 44.6247 188.047C44.6309 188.045 44.6376 188.044 44.6443 188.045C44.6508 188.045 44.6572 188.048 44.6627 188.052C44.6681 188.055 44.6725 188.061 44.6756 188.066Z" fill="white"/>
<path d="M205.66 195.202L206.498 201.141C206.499 201.157 206.495 201.174 206.486 201.188L204.784 203.717C204.777 203.727 204.769 203.734 204.758 203.74C204.748 203.744 204.737 203.748 204.726 203.748H198.012C197.999 203.748 197.988 203.744 197.978 203.74C197.968 203.733 197.958 203.724 197.952 203.714C197.947 203.705 197.943 203.693 197.943 203.681C197.942 203.668 197.945 203.657 197.95 203.646L206.302 188.103C206.308 188.092 206.316 188.084 206.325 188.077C206.335 188.071 206.345 188.068 206.357 188.068C206.369 188.065 206.38 188.068 206.39 188.072C206.4 188.077 206.41 188.084 206.417 188.094L207.874 189.877C207.881 189.887 207.887 189.898 207.888 189.911C207.89 189.924 207.888 189.936 207.883 189.948L205.666 195.165C205.66 195.177 205.659 195.19 205.66 195.202Z" fill="white"/>
<path d="M212.454 197.119L213.609 198.729C213.616 198.739 213.621 198.749 213.622 198.761C213.623 198.771 213.621 198.783 213.617 198.794L212.658 201.042C212.653 201.054 212.651 201.066 212.652 201.078L213.02 203.673C213.021 203.682 213.021 203.692 213.019 203.701C213.015 203.709 213.011 203.719 213.005 203.724C212.999 203.733 212.991 203.737 212.983 203.742C212.974 203.746 212.965 203.747 212.956 203.747H208.561C208.55 203.747 208.539 203.744 208.53 203.739C208.519 203.733 208.511 203.725 208.506 203.714C208.5 203.705 208.497 203.693 208.497 203.682C208.497 203.671 208.5 203.66 208.506 203.65L212.345 197.122C212.351 197.113 212.358 197.106 212.368 197.1C212.377 197.094 212.388 197.092 212.399 197.091C212.409 197.091 212.42 197.093 212.43 197.098C212.439 197.103 212.447 197.111 212.454 197.119Z" fill="white"/>
</g>
<defs>
<clipPath id="clip0_1239_2">
<rect width="256" height="256" fill="white"/>
</clipPath>
</defs>
</svg>
