<svg width="256" height="256" viewBox="0 0 256 256" fill="none" xmlns="http://www.w3.org/2000/svg">
<g clip-path="url(#clip0_1239_2)">
<rect width="256" height="256" fill="white"/>
<path d="M122.618 34.1302C168.942 31.423 210.227 62.9321 219.928 108.278C222.56 120.686 222.711 133.621 220.229 146.104C214.138 176.937 193.081 202.655 164.129 214.838C144.351 223.11 121.791 224.313 101.261 218.147C73.1361 209.799 50.5007 188.743 40.0478 161.295C32.5277 141.592 32.0013 119.408 38.3933 99.4045C50.1999 62.3305 83.7395 36.3862 122.543 34.1302H122.618Z" fill="white"/>
<path d="M70.2034 121.137C70.5795 122.867 70.8051 124.596 71.1811 126.326C71.4067 127.379 71.7075 127.153 72.3091 126.702C73.3619 125.875 74.3395 124.897 75.4675 124.22C75.7683 124.296 75.9939 124.521 76.1443 124.747C79.2276 128.733 83.2132 131.139 88.0261 132.493C90.2069 133.094 92.4629 133.545 94.7941 133.771C94.0421 132.944 93.5157 132.117 93.0645 131.064C92.3125 129.334 92.5381 127.83 93.8917 126.476C95.4709 124.822 97.5014 124.145 99.6822 123.619C104.119 122.491 108.631 122.34 113.143 122.716C116.753 122.942 120.362 123.544 123.897 124.596C126.83 125.424 129.687 126.401 132.319 128.056C132.695 128.357 132.921 128.733 133.297 129.033C136.606 132.643 138.561 136.854 138.711 141.742C138.787 145.126 137.884 148.36 136.155 151.293C133.071 156.632 128.635 160.542 123.295 163.551C117.881 166.559 111.94 168.439 105.773 169.115C94.7189 170.319 84.4916 167.912 75.0915 162.046C67.2706 157.158 61.2545 150.541 56.3665 142.795C54.1105 139.11 52.08 135.275 50.3504 131.365C50.1248 130.913 50.0496 130.312 49.8992 129.936C50.0496 130.387 50.2752 130.913 49.824 131.44C49.6736 129.409 49.824 127.454 49.9744 125.499C50.2752 120.009 51.1024 114.595 52.5312 109.331C58.9985 85.492 76.2947 66.0902 99.231 56.9157C106.149 54.1333 113.369 52.4789 120.738 51.802C132.395 50.7492 143.675 52.2532 154.729 56.1637C153.075 59.3221 143.524 67.895 136.079 72.7831C135.854 70.6775 135.403 68.4966 134.651 66.4662C134.651 65.9398 135.102 65.7894 135.403 65.4886C136.982 64.135 138.486 62.8566 140.065 61.503C140.215 61.3526 140.366 61.2021 140.516 61.1269C140.667 60.9765 140.967 60.7509 140.892 60.4501C140.817 60.1493 140.516 60.1493 140.215 60.0741C139.463 59.9237 138.787 59.8485 138.035 59.7733C136.982 59.6981 136.004 59.3973 134.951 59.3973C134.124 59.3221 133.372 59.1717 132.62 59.2469C132.244 59.2469 131.793 59.2469 131.417 59.1717C130.74 58.9461 130.063 59.0965 129.387 59.0965C129.011 59.0965 128.559 59.0965 128.183 59.0965C126.98 59.1717 125.852 58.9461 124.649 59.1717C124.348 59.2469 124.122 59.2469 123.822 59.2469C123.446 59.2469 123.145 59.2469 122.769 59.2469C122.318 59.1717 121.866 59.2469 121.49 59.3973C120.287 59.4725 119.009 59.6229 117.806 59.8485C116.302 60.1493 114.798 60.2245 113.369 60.6005C112.015 60.9765 110.662 61.1269 109.383 61.5782C107.653 62.0294 105.924 62.631 104.194 63.1574C101.713 64.135 99.1558 65.0374 96.7494 66.3158C91.3349 68.9478 86.3716 72.2567 81.8596 76.1671C77.6483 79.7768 73.9635 83.8376 70.7299 88.3497C69.1506 90.6057 67.6466 92.9369 66.293 95.3433C65.4658 96.9226 64.6386 98.5018 63.8866 100.156C63.3602 101.435 62.6834 102.638 62.3074 103.991C61.781 105.27 61.3297 106.623 60.8785 107.977C60.3521 109.331 60.0513 110.76 59.6753 112.113C59.5249 112.64 59.3745 113.241 59.2993 113.768C59.1489 114.444 58.9985 115.121 58.9233 115.798C58.6977 116.926 58.5473 118.054 58.3969 119.257C58.1713 120.46 58.0209 121.588 57.9457 122.792C57.7953 123.544 57.8705 124.371 57.7953 125.198C57.5697 126.176 57.7201 127.228 57.6449 128.206C57.6449 128.883 57.5697 129.635 57.6449 130.312C57.6449 130.613 57.4945 130.989 57.7953 131.139C58.1713 131.289 58.3969 130.913 58.6225 130.763C59.4497 130.086 60.2769 129.334 61.1041 128.657C63.8866 126.251 66.7442 123.844 69.5266 121.438C69.7522 121.288 70.053 120.761 70.4291 121.288L70.2034 121.137Z" fill="#4189C9"/>
<path d="M132.094 128.207C128.785 126.251 125.175 125.123 121.415 124.221C116.527 123.093 111.488 122.567 106.525 122.867C102.991 123.018 99.4564 123.544 96.2227 125.123C95.8467 125.274 95.4707 125.499 95.0947 125.8C92.4627 127.53 92.0115 129.936 93.9667 132.493C94.3427 133.02 94.7939 133.546 95.3203 134.148C93.5907 134.148 92.0867 133.847 90.5827 133.546C86.5218 132.719 82.7618 131.365 79.4529 128.733C77.8737 127.455 76.4449 126.101 75.3921 124.296C75.8433 123.619 76.5201 123.243 77.1969 122.867C78.4753 122.341 79.6785 121.589 80.957 120.987C86.6722 118.355 92.7635 116.776 99.0052 116.175C101.487 115.949 103.968 115.723 106.525 115.799C113.895 116.099 121.265 117.378 128.258 119.634C130.063 120.16 131.868 120.837 133.748 121.439C133.748 120.912 133.447 120.611 133.222 120.235C132.47 118.957 131.567 117.754 130.59 116.551C130.214 116.099 129.762 115.799 129.762 115.122C130.74 115.347 131.793 115.573 132.77 115.799C133.071 115.874 133.372 116.024 133.522 115.799C133.748 115.498 133.447 115.272 133.222 115.047C131.718 112.866 129.913 110.986 127.957 109.256C129.01 108.654 130.063 109.181 131.116 109.256C141.494 110.61 150.969 114.295 159.241 120.762C170.22 129.335 177.289 140.464 180.222 154.076C181.2 158.663 181.5 163.325 181.124 167.913C180.523 175.959 177.966 183.404 173.228 190.022C172.928 190.473 172.476 190.774 172.251 191.3C171.198 192.879 169.544 194.007 168.115 195.211C160.219 201.603 150.969 204.987 141.042 206.566C133.297 207.769 125.476 207.92 117.655 206.942C105.397 205.438 93.7411 201.001 83.589 194.083C81.1074 192.428 78.7009 190.623 76.5201 188.593C76.4449 188.518 76.4449 188.443 76.5201 188.367C76.9713 188.217 77.2721 188.518 77.5729 188.743C82.7618 192.654 88.7026 195.511 94.9443 197.166C97.0499 197.692 99.1556 198.143 101.336 198.444C101.788 198.595 102.389 198.519 102.84 198.595C102.916 198.595 103.066 198.595 103.141 198.67C108.029 199.272 112.917 198.895 117.73 198.068C128.333 196.188 137.734 191.751 145.78 184.607C151.27 179.794 155.631 174.004 157.887 166.935C160.219 159.866 159.843 153.023 156.609 146.18C155.932 149.263 154.353 151.745 152.323 154.076C150.292 156.332 147.961 158.287 145.329 159.716C145.028 159.866 144.652 160.242 144.351 159.941C144.05 159.716 144.201 159.265 144.351 159.039C145.028 156.933 145.404 154.753 145.63 152.572C146.532 143.322 142.998 136.103 135.628 130.688C134.425 129.786 133.146 128.959 131.793 128.282L132.094 128.207Z" fill="#262F71"/>
<path d="M101.562 198.444C98.8549 198.144 96.1477 197.617 93.5909 196.79C88.7028 195.286 84.0404 193.105 79.6787 190.323C78.6259 189.646 77.7987 188.744 76.6707 188.217C75.9939 188.142 75.7683 187.465 75.2419 187.24C64.413 177.614 57.0433 165.807 52.832 152.046C50.8016 145.353 49.6736 138.434 49.5232 131.365C49.5232 130.839 49.5984 130.313 49.5984 129.485C50.1248 130.689 50.5008 131.591 50.952 132.493C54.8625 141.066 59.8257 148.812 66.669 155.279C73.9635 162.122 82.4612 166.785 92.3877 168.364C104.119 170.244 115.023 168.214 125.1 161.897C130.139 158.738 134.199 154.678 136.606 149.188C139.463 142.495 138.411 136.253 133.974 130.463C133.598 129.937 133.147 129.485 132.771 128.959C133.297 128.508 133.598 129.034 133.899 129.26C136.531 131.441 138.561 134.148 139.915 137.231C141.268 140.239 141.945 143.397 142.02 146.631C142.095 149.94 141.343 153.249 139.915 156.257C140.215 156.257 140.516 156.182 140.742 155.956C142.171 155.129 143.449 154.226 144.652 153.174C145.028 152.873 145.404 152.346 146.006 152.422C145.705 154.903 145.103 157.46 144.351 159.866C145.931 158.964 147.51 157.911 149.014 156.783C150.142 155.881 151.12 154.753 152.248 153.775C152.699 154.001 152.699 154.452 152.849 154.903C154.729 161.596 153.376 167.838 150.067 173.703C146.081 180.847 140.14 186.187 133.297 190.473C127.732 193.932 121.716 196.414 115.249 197.843C111.263 198.745 107.127 198.971 102.991 198.595C102.465 198.294 101.863 198.595 101.412 198.369L101.562 198.444Z" fill="#161F42"/>
<path d="M202.783 148.886C202.407 141.216 200.526 133.771 197.218 126.853C195.037 122.341 192.33 118.129 189.096 114.369C186.163 110.91 182.854 107.977 179.32 105.195C179.621 104.894 180.072 104.894 180.448 104.969C185.336 105.496 190.224 106.699 194.811 108.428C195.939 108.88 197.067 109.331 198.12 110.008C198.496 110.158 198.872 110.384 199.248 110.684C199.323 110.76 199.398 110.835 199.549 110.835C199.474 110.76 199.474 110.609 199.474 110.459C196.315 106.323 192.48 102.864 188.419 99.6299C183.606 95.7195 178.417 92.4106 172.853 89.7786C165.107 85.9434 156.91 83.4617 148.337 82.4089C147.585 82.3337 146.758 82.4089 146.081 82.1081C146.006 81.5817 146.457 81.4313 146.758 81.2057C151.796 76.9945 155.782 72.1064 158.64 66.2407C159.467 64.5111 160.219 62.6311 160.82 60.7511C160.971 60.2247 161.121 59.6231 161.648 59.3223C170.597 63.6087 178.643 69.6248 185.336 76.9945C203.083 96.5467 209.776 123.694 203.159 149.262C203.008 149.338 202.933 149.187 202.858 149.037L202.783 148.886Z" fill="#4189C9"/>
<path d="M172.402 191.224C172.402 190.472 173.003 190.021 173.454 189.42C177.139 184.231 179.32 178.44 180.523 172.123C181.275 168.213 181.275 164.303 181.05 160.467C180.674 154.526 179.094 148.736 176.688 143.246C174.958 139.185 172.702 135.35 170.07 131.816C167.288 128.131 163.979 124.672 160.369 121.739C154.805 117.152 148.412 113.692 141.494 111.512C137.809 110.308 134.049 109.556 130.214 109.18C129.537 109.105 128.86 108.955 128.108 109.03C125.702 107.225 123.22 105.496 120.363 104.217V103.916C121.34 103.916 122.393 103.916 123.371 103.916C137.358 103.691 150.368 107.075 161.648 115.648C173.379 124.521 180.674 136.177 183.381 150.616C185.712 162.949 183.907 174.605 177.064 185.208C175.71 187.389 174.282 189.42 172.326 191.074L172.402 191.224Z" fill="#161F42"/>
<path d="M161.648 59.1717C160.219 63.4581 158.489 67.5941 155.932 71.3542C153.376 75.1894 150.292 78.5735 146.758 81.4311C146.532 81.5815 146.382 81.8071 146.156 81.9575C144.953 82.5591 143.9 83.5367 142.772 84.2887C138.636 86.996 134.199 89.3272 129.537 91.132C129.462 91.132 129.311 91.2072 129.161 91.2072C128.935 90.9064 129.161 90.8312 129.311 90.6808C131.943 88.1992 133.598 85.1159 134.651 81.6567C134.726 81.2055 135.102 80.8295 135.478 80.6791C143.675 77.4455 150.142 72.1062 155.481 65.1877C155.932 64.5861 156.459 63.9093 157.06 63.1573C155.406 63.1573 154.128 63.9845 152.774 64.2101C152.473 64.2101 152.172 64.4357 152.097 63.9093C157.136 57.9684 160.971 51.1252 163.302 43.6803C163.452 43.2291 163.302 42.5523 163.979 42.3267C164.054 42.3267 164.054 42.4019 164.054 42.4771C164.054 42.5523 164.054 42.5523 164.054 42.5523C163.979 47.8163 163.227 53.1556 161.798 58.2692C161.723 58.57 161.648 58.8708 161.648 59.2469V59.1717Z" fill="#161F42"/>
<path d="M129.913 115.046C131.567 116.851 132.996 118.881 134.199 121.062C134.274 121.288 134.575 121.513 134.35 121.739C134.124 121.889 133.898 121.664 133.673 121.589C128.258 119.558 122.618 118.054 116.903 117.001C114.045 116.475 111.113 116.249 108.18 116.099C105.548 115.949 102.916 115.949 100.284 116.174C94.2676 116.625 88.4771 117.904 82.9123 120.385C81.1827 121.137 79.453 121.814 77.8738 122.792C77.7234 122.867 77.4978 123.093 77.2722 122.792C82.0851 119.408 87.4243 116.851 93.1396 115.197C100.96 112.865 108.932 112.339 116.978 112.941C121.114 113.241 125.175 113.918 129.236 114.821C129.537 114.821 129.687 114.896 129.913 114.971V115.046Z" fill="#161F42"/>
<path d="M127.882 58.7959H129.086C129.762 59.0967 130.439 58.7207 131.116 58.9463H132.319C132.394 59.5479 131.943 59.7735 131.642 60.0743C126.077 64.812 120.588 69.5496 115.023 74.2121C113.143 75.7913 111.338 77.2953 109.533 78.8745C109.233 79.0249 109.007 79.3257 108.856 79.6265C106.45 80.5289 104.194 81.657 102.464 83.6122C101.637 84.5146 101.036 85.6426 100.509 86.6954C98.8548 87.7482 97.426 89.177 95.922 90.4555C91.9363 93.7643 88.0259 97.1483 84.1154 100.457C83.8146 100.758 83.589 101.134 83.213 101.36C82.5362 100.307 82.6866 99.254 82.837 98.1259C83.3634 97.2987 84.1154 96.7723 84.7922 96.1707C88.6275 92.9371 92.4627 89.6282 96.298 86.3946C100.058 83.2362 103.743 80.0025 107.503 76.8441C111.789 73.2345 116.076 69.5496 120.437 65.8648C122.844 63.8344 125.175 61.8039 127.657 59.7735C128.033 59.5479 128.258 59.3223 128.033 58.7959H127.882Z" fill="#5C94CE"/>
<path d="M198.346 110.158C193.608 107.902 188.645 106.473 183.456 105.646C182.027 105.421 180.673 105.12 179.32 105.12C177.515 103.992 175.785 102.789 173.905 101.736C167.964 98.2765 161.422 95.9453 154.579 94.8173C154.428 94.742 154.278 94.742 154.127 94.6668C156.158 94.2908 163.152 95.3437 167.964 96.6973C172.476 97.9005 176.763 99.6301 180.974 101.811C180.523 100.533 179.771 99.6301 179.245 98.5773C179.169 98.2765 178.793 98.0509 179.094 97.7501C179.32 97.4493 179.621 97.7501 179.921 97.9005C180.598 98.2013 181.275 98.5773 181.952 98.9533C187.817 101.961 193.307 105.646 198.421 109.782C198.722 110.158 198.722 110.158 198.346 110.233V110.158Z" fill="#161F42"/>
<path d="M127.882 58.796C128.033 59.0969 128.409 58.8713 128.559 59.1721C127.431 60.1497 126.303 61.1273 125.175 62.1049C123.145 63.8345 121.039 65.5641 119.009 67.2937C116.076 69.7754 113.143 72.257 110.21 74.7386C108.18 76.4682 106.225 78.1979 104.194 79.9275C101.713 82.0331 99.2309 84.0635 96.8245 86.1692C94.8693 87.8236 92.9141 89.478 90.9589 91.2076C88.9284 92.9372 86.8228 94.6668 84.7924 96.3965L82.762 98.1261L83.3636 95.4941C83.0628 94.6668 83.7396 94.2908 84.1908 93.8396C86.0708 92.2604 87.8756 90.6812 89.7556 89.102C94.1173 85.4171 98.4037 81.7323 102.765 78.0475C106.45 74.889 110.21 71.7306 113.895 68.5722C117.354 65.6393 120.814 62.7065 124.273 59.6985C124.574 59.4729 125.025 59.1721 124.273 58.8713C125.476 58.42 126.679 58.796 127.882 58.6456V58.796Z" fill="#6497D0"/>
<path d="M124.273 58.9463C124.573 59.0215 124.874 58.8711 125.175 59.0967C124.498 60.1495 123.445 60.8263 122.468 61.5783C119.836 63.9095 117.204 66.0904 114.497 68.3464C112.09 70.3768 109.609 72.4072 107.127 74.5129C104.72 76.5433 102.239 78.7241 99.7572 80.8297C97.2756 82.9354 94.8691 84.8906 92.3875 86.9962C89.9811 89.0266 87.4995 91.2075 85.0178 93.3131C84.2658 93.9899 83.2882 94.3659 83.1378 95.4939C81.8594 95.6443 81.1826 96.6971 80.205 97.4491C78.701 98.5019 77.573 100.006 76.2193 101.209C74.7905 102.187 73.5873 103.39 72.3089 104.443C68.4736 107.676 64.6384 110.985 60.8032 114.219C60.2768 114.67 59.7503 115.197 59.2239 115.573C58.9231 115.723 58.6975 116.024 58.3215 115.798C58.3215 115.121 58.3967 114.369 58.6975 113.768C60.6528 112.564 62.232 110.91 63.9616 109.481C68.7745 105.496 73.5121 101.435 78.2498 97.3739C82.9874 93.3131 87.7251 89.3274 92.4627 85.2666C97.1252 81.3561 101.712 77.3705 106.375 73.4601C111.113 69.4744 115.85 65.4136 120.588 61.3527C121.49 60.5255 122.543 59.7735 123.37 58.9463H124.197H124.273Z" fill="#689AD1"/>
<path d="M134.726 59.1724C135.854 59.1724 136.831 59.4732 137.959 59.5484C138.26 60.2252 137.658 60.4508 137.358 60.7516C136.004 61.9548 134.65 63.0076 133.297 64.2108C133.146 64.0604 132.996 63.8348 132.846 63.6844C132.545 63.2332 132.319 63.3836 132.169 63.7596C130.589 67.1437 127.882 69.5501 124.949 71.5805C121.641 73.9117 118.031 75.867 114.271 77.4462C114.045 77.0702 114.045 77.0702 114.421 76.6942C115.173 75.9422 116.001 75.3405 116.753 74.6637C122.468 69.8509 128.183 65.038 133.823 60.0748C134.124 59.774 134.425 59.4732 134.726 59.1724Z" fill="#4E8FCC"/>
<path d="M134.726 59.1717C134.726 59.4726 134.5 59.8486 134.274 59.999C130.589 63.0822 126.905 66.2406 123.295 69.3239C120.513 71.7303 117.73 74.1367 114.872 76.5431C114.647 76.7687 114.12 76.9191 114.271 77.4456C112.541 78.2728 110.661 79.0248 108.856 79.6264C108.255 79.476 108.781 79.2504 108.856 79.1C109.984 78.1224 111.037 77.1448 112.165 76.2423C114.196 74.5127 116.226 72.7831 118.332 71.0535C120.362 69.3239 122.393 67.5942 124.423 65.9398C126.453 64.2102 128.484 62.4806 130.439 60.751C131.116 60.2246 131.868 59.7734 132.319 59.0213C133.146 58.9461 133.974 59.2469 134.726 59.2469V59.1717Z" fill="#5591CD"/>
<path d="M120.437 83.3113C122.543 82.2585 124.799 81.3561 126.604 79.8521C126.98 79.8521 126.98 80.0777 126.829 80.3033C125.1 87.3721 119.761 92.0346 112.541 92.7114C111.113 92.8618 109.759 93.0122 108.33 92.8618C108.48 92.3354 109.007 92.4106 109.383 92.2602C110.962 91.809 112.541 91.3578 113.97 90.6058C116.677 89.177 118.708 87.0713 119.836 84.2137C119.911 83.8377 120.137 83.4617 120.362 83.2361L120.437 83.3113Z" fill="#161F42"/>
<path d="M120.437 83.312C119.535 86.6961 117.429 89.0273 114.421 90.6817C112.541 91.7345 110.436 92.2609 108.33 92.8625C107.804 91.3585 108.405 90.0801 109.232 88.9521C110.285 87.5985 111.714 86.7713 113.218 86.0944C115.549 85.0416 117.956 84.1392 120.362 83.312H120.437Z" fill="#418AC9"/>
<path d="M58.397 115.798C59.6002 115.347 60.3522 114.369 61.2546 113.542C64.2627 111.06 67.2707 108.503 70.2036 106.022C71.7828 104.668 73.2868 103.315 74.866 101.961C75.3172 101.585 75.6932 101.209 76.2948 101.134C74.7156 103.164 73.1364 105.195 72.0084 107.526C68.9251 110.158 65.8419 112.715 62.8339 115.347C61.4051 116.55 59.9762 117.753 58.5474 118.956C58.3218 119.107 58.0962 119.408 57.7954 119.107C57.8706 117.979 58.021 116.851 58.397 115.723V115.798Z" fill="#6497D0"/>
<path d="M70.2036 121.137C69.3012 121.212 68.85 122.04 68.1732 122.566C65.5412 124.672 62.9843 126.928 60.4275 129.108C59.6003 129.861 58.7731 130.613 57.7955 131.289C57.1939 131.741 56.9683 131.59 56.9683 130.838C56.9683 130.011 56.9683 129.184 56.9683 128.356C57.8707 127.304 58.9987 126.552 60.0515 125.649C63.0595 123.092 65.9924 120.536 69.0756 118.054C69.3764 117.828 69.5268 117.452 69.978 117.678L70.1284 121.062L70.2036 121.137Z" fill="#468CCA"/>
<path d="M83.0625 101.36C83.0625 100.984 83.2881 100.683 83.5889 100.533C85.9953 98.5022 88.4018 96.4718 90.8082 94.4413C92.7634 92.7869 94.7186 91.0573 96.7491 89.4029C97.8019 88.5005 98.7795 87.5981 99.8323 86.6956C99.9827 86.5452 100.208 86.3948 100.359 86.6956C100.133 87.5981 99.9075 88.5005 99.9075 89.4781C98.8547 90.6813 97.5011 91.5837 96.2979 92.6365C92.5378 95.8701 88.7778 99.0286 85.0929 102.187C84.9425 102.337 84.7921 102.488 84.7169 102.638C83.9649 102.488 83.3633 102.037 83.1377 101.36H83.0625Z" fill="#5591CD"/>
<path d="M57.7951 119.182C58.6223 118.881 59.1487 118.129 59.8255 117.603C63.3599 114.67 66.8192 111.737 70.3536 108.729C70.88 108.278 71.256 107.601 72.0832 107.526C71.4064 109.105 70.88 110.684 70.504 112.339C69.9024 112.264 69.6016 112.79 69.1504 113.091C65.5408 116.249 61.8559 119.332 58.1711 122.416C57.9455 122.566 57.7199 122.867 57.4191 122.792C57.3439 121.588 57.4943 120.385 57.7951 119.182Z" fill="#5C94CE"/>
<path d="M84.717 102.638C84.4914 102.187 84.8674 102.037 85.093 101.886C88.1763 99.2541 91.2595 96.6221 94.3427 94.0653C96.0724 92.5613 97.802 91.1324 99.6068 89.6284C99.682 89.5532 99.8324 89.5532 99.9828 89.478C99.9828 90.3052 100.133 91.1324 100.359 91.8845C99.306 93.0877 97.9524 93.9901 96.7492 95.0429C94.0419 97.3741 91.3347 99.7053 88.5523 101.961C88.4019 102.112 88.1763 102.262 88.1763 102.488C87.0483 102.939 85.845 103.089 84.717 102.563V102.638Z" fill="#4E8FCC"/>
<path d="M69.9774 117.828C68.8494 118.505 67.947 119.407 66.9694 120.235C64.3373 122.34 61.7805 124.596 59.2237 126.777C58.5469 127.379 57.8701 128.055 56.9677 128.431C57.0429 127.379 56.7421 126.251 57.1181 125.198C61.1037 121.814 65.0141 118.43 68.9998 115.046C69.3006 114.82 69.5262 114.519 69.9774 114.745L69.9022 117.753L69.9774 117.828Z" fill="#4E8FCC"/>
<path d="M70.0529 114.746C68.7745 115.423 67.7969 116.475 66.7441 117.378C64.112 119.483 61.6304 121.739 59.0736 123.845C58.5472 124.296 58.096 125.048 57.2688 125.123C57.344 124.296 57.0431 123.469 57.4944 122.717C59.976 120.611 62.5328 118.431 65.0144 116.325C66.6689 114.896 68.3985 113.467 70.1281 112.038C70.6545 111.587 70.5041 112.114 70.5793 112.339C70.3537 113.091 70.2785 113.919 70.1281 114.746H70.0529Z" fill="#5591CD"/>
<path d="M88.1764 102.563C87.8004 102.262 88.1012 102.112 88.2516 101.886C90.5829 99.9308 92.9893 97.9004 95.3205 95.9451C96.8245 94.7419 98.2534 93.4635 99.6822 92.1851C99.8326 92.0347 100.058 91.8843 100.284 91.8091L100.885 93.0123C100.434 93.7643 99.6822 94.1403 99.1558 94.8171C96.2981 98.0508 92.9893 100.758 88.9285 102.262C88.7028 102.337 88.4772 102.412 88.1764 102.412V102.563Z" fill="#488DCA"/>
<path d="M133.297 64.2108C133.673 63.0828 134.876 62.7068 135.553 61.9548C136.305 61.1276 137.508 60.7516 137.959 59.5483C138.862 59.5483 139.689 59.7739 140.516 59.9243C141.268 60.0747 141.268 60.3755 140.817 60.8268C139.689 61.8044 138.636 62.782 137.508 63.6844C136.455 64.5868 135.402 65.414 134.35 66.3164C133.974 65.5644 133.598 64.8876 133.297 64.2108Z" fill="#468CCA"/>
<path d="M83.7395 110.008C83.8899 110.459 83.3635 110.685 83.4387 111.061C83.1379 109.858 82.5363 109.406 81.2579 109.632C79.9795 109.933 78.7763 110.61 77.8739 111.587C77.6483 111.888 77.3475 112.114 77.0467 112.339C76.8211 112.038 77.0467 111.813 77.1219 111.587C77.6483 109.858 78.8515 108.654 80.2803 107.602C80.5811 107.376 80.9571 107.226 81.4083 107.075C83.1379 106.699 84.0403 107.526 83.8147 109.256C83.8147 109.482 83.8147 109.707 83.6643 109.933L83.7395 110.008Z" fill="#428AC9"/>
<path d="M83.7397 110.008C83.7397 109.707 83.7397 109.481 83.7397 109.181C83.7397 107.451 82.7621 106.774 81.1077 107.526C79.2277 108.353 78.0245 109.933 77.1973 111.737C77.0469 111.737 76.8965 111.737 76.9717 111.512C77.5733 109.331 78.7013 107.526 80.5813 106.248C81.0325 105.947 81.6341 105.721 82.1605 105.646C83.0629 105.496 83.8901 106.022 84.1157 106.849C84.4165 107.902 84.2661 109.03 83.6645 110.008H83.7397Z" fill="#182144"/>
<path d="M99.1557 94.8927C98.7797 94.5919 99.1557 94.5167 99.3061 94.3663C99.8325 93.9903 100.208 93.2383 100.885 93.0879C101.788 94.5167 103.217 95.1935 104.796 95.7199C105.097 95.7951 105.397 95.8703 105.924 96.0207C103.593 96.6223 101.562 96.3967 99.7573 95.1183C99.6069 94.9679 99.4565 94.8927 99.2309 94.8927H99.1557Z" fill="#458CCA"/>
<path d="M181.877 98.8781C181.125 98.8029 180.598 98.2765 179.921 98.0508C179.621 97.9756 179.395 97.5996 179.169 97.8252C178.944 97.9756 179.32 98.2765 179.245 98.5773C178.869 98.2012 178.718 97.6748 178.493 97.1484C179.696 97.5996 180.899 98.126 181.952 98.8781H181.877Z" fill="#63657D"/>
<path d="M198.346 110.158C198.571 110.008 198.346 109.857 198.346 109.707L199.474 110.384L200.075 111.211C199.323 110.985 198.797 110.534 198.271 110.233L198.346 110.158Z" fill="#263154"/>
<path d="M152.172 94.2909C152.699 94.2157 153.3 94.2909 153.752 94.3661C153.075 94.7421 152.699 94.6669 152.172 94.2909Z" fill="#A09AA9"/>
<path d="M75.3169 187.239C75.9185 187.314 76.2193 187.991 76.7457 188.217V188.442C76.2193 188.142 75.6929 187.766 75.3169 187.239Z" fill="#424A7F"/>
<path d="M202.783 148.887L203.159 149.112C203.234 149.488 203.008 149.864 202.783 150.316V148.887Z" fill="#8CB7DE"/>
<path d="M152.172 63.9849C152.323 64.2857 152.623 64.1353 152.849 64.2857L151.796 64.7369C151.721 64.2857 151.947 64.2105 152.172 64.0601V63.9849Z" fill="#5A5D76"/>
<path d="M77.0467 111.512L77.2723 111.737C77.1971 111.888 77.1219 112.113 77.1219 112.339L76.6707 112.865C76.7459 112.189 76.8211 111.813 77.0467 111.437V111.512Z" fill="#4F668A"/>
<path d="M126.905 80.3041C126.83 80.1537 126.905 79.9281 126.679 79.8528C126.755 79.7024 126.905 79.4768 126.98 79.552C127.206 79.7776 127.131 80.0785 126.905 80.3041Z" fill="#555A73"/>
<path d="M59.2239 112.114C59.5247 110.685 59.7503 109.256 60.4271 107.903C62.7583 106.248 64.8639 104.293 67.0448 102.413C70.88 99.1792 74.6401 96.0208 78.4001 92.7871C81.8593 89.8543 85.3186 86.9215 88.7778 83.9886C92.5379 80.8302 96.2979 77.5966 99.9827 74.4381C103.367 71.5805 106.826 68.6477 110.21 65.7148C112.616 63.6844 115.023 61.654 117.354 59.5484C118.633 59.2476 119.836 59.0972 121.189 59.1724C121.265 59.0972 121.49 59.0972 121.565 59.0972C121.866 59.5484 121.49 59.8492 121.189 60.15C117.956 62.8572 114.722 65.6396 111.488 68.4221C108.029 71.3549 104.645 74.2877 101.186 77.2206C98.0275 79.9278 94.8691 82.635 91.6354 85.3423C87.8002 88.6511 83.8898 91.8847 80.0545 95.1936C75.2417 99.2544 70.4288 103.39 65.6159 107.451C63.7359 109.031 61.9311 110.61 60.0511 112.189C59.9007 112.415 59.5999 113.016 59.2239 112.264V112.114Z" fill="#6D9CD2"/>
<path d="M117.429 59.5483C117.053 60.6764 116 61.1276 115.248 61.8044C112.692 64.0604 110.06 66.2412 107.503 68.422C104.645 70.8285 101.712 73.3101 98.7795 75.7917C96.2978 77.8973 93.8162 80.0782 91.2594 82.259C88.8529 84.2894 86.3713 86.3198 83.8897 88.4255C81.4833 90.5311 79.0768 92.6367 76.5952 94.6671C74.1888 96.6976 71.7071 98.8032 69.2255 100.834C67.1951 102.563 65.2399 104.293 63.2094 105.947C62.3822 106.624 61.555 107.301 60.7278 107.978C60.5774 108.128 60.3518 108.203 60.2014 107.978C60.5022 106.549 60.9534 105.195 61.6302 103.992C63.5103 102.789 65.0143 101.285 66.6687 99.9312C70.5039 96.6976 74.264 93.5391 78.024 90.3055C81.9345 86.9966 85.8449 83.6126 89.7553 80.3038C92.989 77.5213 96.2226 74.8141 99.4563 72.0317C103.668 68.4972 107.804 64.8876 112.09 61.3532C112.391 61.1276 112.616 60.8268 112.767 60.526C114.271 59.9243 115.775 59.9995 117.204 59.6987L117.429 59.5483Z" fill="#729FD4"/>
<path d="M112.993 60.3755C113.594 60.5259 113.068 60.7515 112.993 60.9019C111.865 61.9547 110.737 62.9323 109.534 63.9099C107.503 65.6396 105.473 67.3692 103.442 69.0236C100.434 71.5052 97.5014 74.062 94.4934 76.5437C92.087 78.5741 89.6805 80.7549 87.1989 82.7853C84.7173 84.891 82.1604 87.0718 79.6788 89.1774C77.2724 91.2078 74.866 93.3135 72.3843 95.4191C69.9779 97.4495 67.4963 99.5551 65.0898 101.586C64.1874 102.338 63.3602 103.09 62.3826 103.842C62.2322 103.992 62.0066 104.293 61.7058 103.917C62.0066 102.563 62.6834 101.36 63.285 100.082C66.5939 97.2991 69.9027 94.4415 73.2115 91.659C76.5956 88.7262 80.0548 85.8686 83.4389 82.9358C86.6725 80.1533 89.9061 77.3709 93.215 74.6637C96.6742 71.7308 100.058 68.798 103.517 65.8652C105.247 64.3611 107.052 62.7819 108.857 61.2779C110.135 60.6763 111.489 60.5259 112.842 60.3003L112.993 60.3755Z" fill="#78A2D5"/>
<path d="M109.007 61.353C107.729 63.0074 105.999 64.1355 104.42 65.5643C102.389 67.2939 100.359 69.0987 98.2533 70.8283C96.2229 72.4828 94.2677 74.2124 92.2372 75.942C90.2068 77.6716 88.2516 79.4012 86.2212 81.0556C84.1907 82.7853 82.1603 84.5149 80.1299 86.1693C78.1747 87.8237 76.2195 89.5533 74.189 91.2078C71.7074 93.3134 69.1506 95.4942 66.6689 97.5998C65.7665 98.3518 64.8641 99.1038 63.9617 99.8559C63.8113 100.006 63.5857 100.157 63.3601 100.157C64.0369 98.5022 64.7889 96.8478 65.7665 95.3438C70.3538 91.659 74.7906 87.7485 79.3027 83.9133C84.4915 79.4764 89.7556 75.1148 94.9445 70.6027C97.8773 68.1211 100.885 65.7147 103.743 63.0074C105.397 62.3306 107.127 61.8042 108.932 61.4282L109.007 61.353Z" fill="#7DA5D6"/>
<path d="M103.818 63.0073C104.044 63.3833 103.668 63.4585 103.517 63.6089C101.261 65.5642 99.0806 67.5194 96.8245 69.3994C94.8693 71.0538 92.8389 72.7082 90.8837 74.4379C88.402 76.5435 85.9956 78.6491 83.514 80.6795C81.4836 82.4091 79.5283 84.1388 77.4979 85.7932C75.0163 87.8988 72.4595 90.0796 69.9778 92.1853C68.925 93.0877 67.8722 93.9901 66.8946 94.8925C66.5938 95.1933 66.293 95.3437 65.917 95.3437C67.1202 92.8621 68.6242 90.5308 70.3538 88.35C71.9331 87.222 73.3619 85.8684 74.7907 84.6652C78.6259 81.4315 82.386 78.1979 86.2212 74.9643C89.1541 72.4826 92.0869 69.9258 95.0197 67.4442C95.4709 67.0682 96.0725 66.7674 96.3733 66.3162C98.7046 64.8121 101.261 63.9849 103.818 63.0825V63.0073Z" fill="#81A7D8"/>
<path d="M146.156 152.497C144.126 154.151 142.171 155.806 139.463 157.009C140.215 155.43 140.817 153.851 141.193 152.121C142.772 145.127 141.268 138.81 137.207 133.095C136.155 131.666 134.801 130.613 133.598 129.335C133.447 129.109 133.222 128.884 132.846 129.034C132.47 128.884 132.319 128.508 132.019 128.207C132.169 127.981 132.395 128.132 132.545 128.207C137.358 130.989 141.419 134.524 143.9 139.638C145.104 142.119 145.856 144.902 146.081 147.684C146.232 149.263 146.232 150.918 146.006 152.497H146.156Z" fill="#0E1F66"/>
<path d="M59.2241 112.113C60.0514 112.414 60.277 111.587 60.7282 111.286C64.789 107.902 68.7747 104.518 72.8355 101.059C76.6707 97.8251 80.3556 94.5915 84.1908 91.2827C88.4021 87.673 92.6885 84.1386 96.8998 80.5289C100.735 77.2953 104.495 74.0617 108.255 70.7528C112.316 67.2936 116.452 63.7591 120.588 60.2247C121.039 59.8487 121.641 59.6983 121.716 59.0215C121.942 58.7959 122.242 59.0215 122.543 58.8711H123.596C123.295 59.9239 122.242 60.2999 121.566 60.9767C119.46 62.8567 117.279 64.5864 115.174 66.3912C112.767 68.4216 110.286 70.5272 107.804 72.5576C105.849 74.2121 103.893 75.9417 101.863 77.5961C98.9302 80.0777 95.9974 82.4842 93.1397 85.041C91.1845 86.6954 89.2293 88.425 87.1989 90.0794C84.7172 92.1851 82.1604 94.3659 79.6788 96.4715C77.7236 98.1259 75.7683 99.8556 73.7379 101.51C71.7075 103.24 69.6771 104.969 67.6466 106.624C65.6162 108.353 63.5858 110.083 61.5554 111.812C60.8786 112.414 60.1266 113.016 59.3746 113.542C59.2241 113.693 59.0737 113.768 58.8481 113.542C58.8481 113.016 58.9985 112.489 59.2241 111.963V112.113Z" fill="#699AD1"/>
<path d="M96.3733 66.1655C96.2229 67.1431 95.2452 67.3687 94.7188 67.8951C92.6884 69.7752 90.5076 71.5048 88.402 73.3096C85.9203 75.4152 83.5139 77.4457 81.0323 79.5513C79.0771 81.2057 77.1218 82.9353 75.0914 84.5897C73.6626 85.793 72.2338 87.0714 70.805 88.2746C70.6546 88.425 70.5042 88.5002 70.2786 88.2746C71.3314 86.6954 72.5346 85.1161 73.813 83.6873C78.5507 78.1977 83.8899 73.46 90.0564 69.6248C92.0868 68.3464 94.1172 67.0679 96.3733 66.1655Z" fill="#88ABD9"/>
<path d="M131.116 58.9462C130.439 58.871 129.762 59.1718 129.085 58.7958C129.762 58.871 130.439 58.5702 131.116 58.9462Z" fill="#5591CD"/>
<path d="M122.468 58.9465C122.242 59.2473 121.941 59.0969 121.641 59.0969H121.265C121.641 58.7209 122.092 58.9465 122.468 58.9465Z" fill="#689AD1"/>
<path d="M103.142 198.67C109.684 198.971 116.227 197.918 122.393 195.662C128.334 193.481 133.899 190.398 138.862 186.412C143.675 182.502 147.886 177.99 150.669 172.35C152.173 169.342 153.075 166.033 153.376 162.724C153.677 159.716 153.15 156.858 152.323 154.001C152.398 153.324 153.075 152.948 153.451 152.497C154.88 150.617 155.933 148.586 156.384 146.18C156.459 145.879 156.534 145.578 156.685 145.277C157.587 147.082 158.339 148.962 158.79 150.917C159.467 153.7 159.918 156.482 159.693 159.34C159.317 164.228 157.813 169.041 155.406 173.327C152.925 177.689 149.766 181.374 146.156 184.683C142.923 187.54 139.388 190.022 135.628 192.052C131.041 194.534 126.153 196.414 121.115 197.617C117.956 198.369 114.723 198.82 111.489 199.046C109.91 199.121 108.33 199.272 106.826 199.196C105.698 199.121 104.42 199.196 103.217 198.82L103.142 198.67Z" fill="#0E1F66"/>
<path d="M132.093 128.206C128.785 126.251 125.175 125.123 121.415 124.221C116.527 123.093 111.488 122.566 106.525 122.867C102.991 123.017 99.4563 123.544 96.2227 125.123C95.8467 125.273 95.4707 125.499 95.0947 125.8C92.4627 127.529 92.0114 129.936 93.9667 132.493C94.3427 133.019 94.7939 133.545 95.3203 134.147C93.5907 134.147 92.0866 133.846 90.5826 133.545C86.5218 132.718 82.7617 131.365 79.4529 128.733C77.8737 127.454 76.8209 126.552 75.7681 124.822C76.2193 124.145 76.8209 123.544 77.4977 123.168C78.7761 122.641 79.6785 121.664 80.9569 121.062C86.6722 118.43 92.7635 116.851 99.0051 116.249C101.487 116.024 103.968 115.798 106.525 115.873C113.895 116.174 121.265 117.452 128.258 119.709C130.063 120.235 131.868 120.912 133.748 121.513C133.748 120.987 133.447 120.686 133.222 120.31C132.47 119.032 131.567 117.828 130.589 116.625C130.213 116.174 129.762 115.873 129.762 115.196C130.74 115.422 131.793 115.648 132.77 115.873C133.071 115.948 133.372 116.099 133.522 115.873C133.748 115.572 133.447 115.347 133.222 115.121C131.717 112.94 129.913 111.06 127.957 109.331C129.01 108.729 130.063 109.256 131.116 109.331C141.494 110.684 150.969 114.369 159.241 120.837C170.22 129.409 177.289 140.539 180.222 154.15C181.2 158.738 181.5 163.4 181.124 167.987C180.523 176.034 177.966 183.479 173.228 190.097C172.928 190.548 172.476 190.849 172.251 191.375C171.198 192.954 169.544 194.082 168.115 195.285C160.219 201.677 150.969 205.061 141.042 206.641C133.297 207.844 125.476 207.994 117.655 207.017C105.397 205.513 93.7411 201.076 83.589 194.157C81.1073 192.503 78.7009 190.698 76.5201 188.668C76.4449 188.592 76.4449 188.517 76.5201 188.442C76.9713 188.292 77.2721 188.592 77.5729 188.818C82.7617 192.729 88.7026 195.586 94.9443 197.241C97.0499 197.767 99.1555 198.218 101.336 198.519C101.788 198.669 102.389 198.594 102.84 198.669C102.916 198.669 103.066 198.669 103.141 198.745C108.029 199.346 112.917 198.97 117.73 198.143C128.333 196.263 137.734 191.826 145.78 184.682C151.27 179.869 155.631 174.079 157.887 167.01C160.219 159.941 159.843 153.098 156.609 146.254C155.932 149.338 154.353 151.819 152.323 154.15C150.292 156.407 147.961 158.362 145.329 159.791C145.028 159.941 144.652 160.317 144.351 160.016C144.05 159.791 144.201 159.339 144.351 159.114C145.028 157.008 145.404 154.827 145.63 152.646C146.532 143.397 142.998 136.177 135.628 130.763C134.425 129.861 133.146 129.033 131.793 128.357L132.093 128.206Z" fill="#262F71"/>
<path d="M101.562 198.444C98.8549 198.143 96.1477 197.616 93.5909 196.789C88.7028 195.285 84.0404 193.104 79.6787 190.322C78.6259 189.645 77.7987 188.743 76.6707 188.216C75.9939 188.141 75.7683 187.464 75.2419 187.239C64.413 177.613 57.0433 165.806 52.832 152.045C50.8016 145.352 49.6736 138.433 49.5232 131.364C49.5232 130.838 49.5984 130.312 49.5984 129.484C50.1248 130.688 50.5008 131.59 50.952 132.492C54.8625 141.065 59.8257 148.811 66.669 155.278C73.9635 162.121 82.4612 166.784 92.3877 168.363C104.119 170.243 115.023 168.213 125.1 161.896C130.139 158.737 134.199 154.677 136.606 149.187C139.463 142.494 138.411 136.252 133.974 130.462C133.598 129.936 133.147 129.484 132.771 128.958C133.297 128.507 133.598 129.033 133.899 129.259C136.531 131.44 138.561 134.147 139.915 137.23C141.268 140.238 141.945 143.396 142.02 146.63C142.095 149.939 141.343 153.248 139.915 156.256C140.215 156.256 140.516 156.181 140.742 155.955C142.171 155.128 143.449 154.225 144.652 153.173C145.028 152.872 145.404 152.345 146.006 152.421C145.705 154.902 145.103 157.459 144.351 159.865C145.931 158.963 147.51 157.91 149.014 156.782C150.142 155.88 151.12 154.752 152.248 153.774C152.699 154 152.699 154.451 152.849 154.902C154.729 161.595 153.376 167.837 150.067 173.702C146.081 180.847 140.14 186.186 133.297 190.472C127.732 193.931 121.716 196.413 115.249 197.842C111.263 198.744 107.127 198.97 102.991 198.594C102.465 198.293 101.863 198.594 101.412 198.368L101.562 198.444Z" fill="#161F42"/>
<path d="M202.783 148.886C202.407 141.216 200.526 133.771 197.218 126.853C195.037 122.341 192.33 118.129 189.096 114.369C186.163 110.91 182.854 107.977 179.32 105.195C179.621 104.894 180.072 104.894 180.448 104.969C185.336 105.496 190.224 106.699 194.811 108.428C195.939 108.88 197.067 109.331 198.12 110.008C198.496 110.158 198.872 110.384 199.248 110.684C199.323 110.76 199.398 110.835 199.549 110.835C199.474 110.76 199.474 110.609 199.474 110.459C196.315 106.323 192.48 102.864 188.419 99.6299C183.606 95.7195 178.417 92.4106 172.853 89.7786C165.107 85.9434 156.91 83.4617 148.337 82.4089C147.585 82.3337 146.758 82.4089 146.081 82.1081C146.006 81.5817 146.457 81.4313 146.758 81.2057C151.796 76.9945 155.782 72.1064 158.64 66.2407C159.467 64.5111 160.219 62.6311 160.82 60.7511C160.971 60.2247 161.121 59.6231 161.648 59.3223C170.597 63.6087 178.643 69.6248 185.336 76.9945C203.083 96.5467 209.776 123.694 203.159 149.262C203.008 149.338 202.933 149.187 202.858 149.037L202.783 148.886Z" fill="#4189C9"/>
<path d="M172.402 191.224C172.402 190.472 173.003 190.021 173.454 189.42C177.139 184.231 179.32 178.44 180.523 172.123C181.275 168.213 181.275 164.303 181.05 160.467C180.674 154.526 179.094 148.736 176.688 143.246C174.958 139.185 172.702 135.35 170.07 131.816C167.288 128.131 163.979 124.672 160.369 121.739C154.805 117.152 148.412 113.692 141.494 111.512C137.809 110.308 134.049 109.556 130.214 109.18C129.537 109.105 128.86 108.955 128.108 109.03C125.702 107.225 123.22 105.496 120.363 104.217V103.916C121.34 103.916 122.393 103.916 123.371 103.916C137.358 103.691 150.368 107.075 161.648 115.648C173.379 124.521 180.674 136.177 183.381 150.616C185.712 162.949 183.907 174.605 177.064 185.208C175.71 187.389 174.282 189.42 172.326 191.074L172.402 191.224Z" fill="#161F42"/>
<path d="M161.648 59.1717C160.219 63.4581 158.489 67.5941 155.932 71.3542C153.376 75.1894 150.292 78.5735 146.758 81.4311C146.532 81.5815 146.382 81.8071 146.156 81.9575C144.953 82.5591 143.9 83.5367 142.772 84.2887C138.636 86.996 134.199 89.3272 129.537 91.132C129.462 91.132 129.311 91.2072 129.161 91.2072C128.935 90.9064 129.161 90.8312 129.311 90.6808C131.943 88.1992 133.598 85.1159 134.651 81.6567C134.726 81.2055 135.102 80.8295 135.478 80.6791C143.675 77.4455 150.142 72.1062 155.481 65.1877C155.932 64.5861 156.459 63.9093 157.06 63.1573C155.406 63.1573 154.128 63.9845 152.774 64.2101C152.473 64.2101 152.172 64.4357 152.097 63.9093C157.136 57.9684 160.971 51.1252 163.302 43.6803C163.452 43.2291 163.302 42.5523 163.979 42.3267C164.054 42.3267 164.054 42.4019 164.054 42.4771C164.054 42.5523 164.054 42.5523 164.054 42.5523C163.979 47.8163 163.227 53.1556 161.798 58.2692C161.723 58.57 161.648 58.8708 161.648 59.2469V59.1717Z" fill="#161F42"/>
<path d="M129.913 115.046C131.567 116.851 132.996 118.881 134.199 121.062C134.274 121.288 134.575 121.513 134.35 121.739C134.124 121.889 133.898 121.664 133.673 121.589C128.258 119.558 122.618 118.054 116.903 117.001C114.045 116.475 111.113 116.249 108.18 116.099C105.548 115.949 102.916 115.949 100.284 116.174C94.2676 116.625 88.4771 117.904 82.9123 120.385C81.1827 121.137 79.453 122.04 77.8738 123.093C77.7234 123.168 77.6482 123.393 77.4226 123.168C82.2355 119.784 87.4243 116.926 93.1396 115.272C100.96 112.941 108.932 112.414 116.978 113.016C121.114 113.317 125.175 113.993 129.236 114.896C129.537 114.896 129.687 114.971 129.913 115.046Z" fill="#161F42"/>
<path d="M198.346 110.158C193.608 107.902 188.645 106.473 183.456 105.646C182.027 105.421 180.673 105.12 179.32 105.12C177.515 103.992 175.785 102.789 173.905 101.736C167.964 98.2765 161.422 95.9453 154.579 94.8173C154.428 94.742 154.278 94.742 154.127 94.6668C156.158 94.2908 163.152 95.3437 167.964 96.6973C172.476 97.9005 176.763 99.6301 180.974 101.811C180.523 100.533 179.771 99.6301 179.245 98.5773C179.169 98.2765 178.793 98.0509 179.094 97.7501C179.32 97.4493 179.621 97.7501 179.921 97.9005C180.598 98.2013 181.275 98.5773 181.952 98.9533C187.817 101.961 193.307 105.646 198.421 109.782C198.722 110.158 198.722 110.158 198.346 110.233V110.158Z" fill="#161F42"/>
<path d="M120.437 83.3113C122.543 82.2585 124.799 81.3561 126.604 79.8521C126.98 79.8521 126.98 80.0777 126.829 80.3033C125.1 87.3721 119.761 92.0346 112.541 92.7114C111.113 92.8618 109.759 93.0122 108.33 92.8618C108.48 92.3354 109.007 92.4106 109.383 92.2602C110.962 91.809 112.541 91.3578 113.97 90.6058C116.677 89.177 118.708 87.0713 119.836 84.2137C119.911 83.8377 120.137 83.4617 120.362 83.2361L120.437 83.3113Z" fill="#161F42"/>
<path d="M120.437 83.311C119.535 86.6951 117.429 89.0263 114.421 90.6807C112.541 91.7335 110.436 92.2599 108.33 92.8615C107.804 91.3575 108.405 90.0791 109.232 88.9511C110.285 87.5975 111.714 86.7703 113.218 86.0935C115.549 85.0407 117.956 84.1382 120.362 83.311H120.437Z" fill="#418AC9"/>
<path d="M83.7395 110.008C83.8899 110.459 83.3635 110.685 83.4387 111.061C83.1379 109.858 82.5363 109.406 81.2579 109.632C79.9795 109.933 78.7763 110.61 77.8739 111.587C77.6483 111.888 77.3475 112.114 77.0467 112.339C76.8211 112.038 77.0467 111.813 77.1219 111.587C77.6483 109.858 78.8515 108.654 80.2803 107.602C80.5811 107.376 80.9571 107.226 81.4083 107.075C83.1379 106.699 84.0403 107.526 83.8147 109.256C83.8147 109.482 83.8147 109.707 83.6643 109.933L83.7395 110.008Z" fill="#428AC9"/>
<path d="M83.7397 110.008C83.7397 109.707 83.7397 109.481 83.7397 109.181C83.7397 107.451 82.7621 106.774 81.1077 107.526C79.2277 108.353 78.0245 109.933 77.1973 111.737C77.0469 111.737 76.8965 111.737 76.9717 111.512C77.5733 109.331 78.7013 107.526 80.5813 106.248C81.0325 105.947 81.6341 105.721 82.1605 105.646C83.0629 105.496 83.8901 106.022 84.1157 106.849C84.4165 107.902 84.2661 109.03 83.6645 110.008H83.7397Z" fill="#182144"/>
<path d="M181.877 98.8781C181.125 98.8029 180.598 98.2765 179.921 98.0508C179.621 97.9756 179.395 97.5996 179.169 97.8252C178.944 97.9756 179.32 98.2765 179.245 98.5773C178.869 98.2012 178.718 97.6748 178.493 97.1484C179.696 97.5996 180.899 98.126 181.952 98.8781H181.877Z" fill="#63657D"/>
<path d="M198.346 110.158C198.571 110.007 198.346 109.857 198.346 109.707L199.474 110.383L200.075 111.211C199.323 110.985 198.797 110.534 198.271 110.233L198.346 110.158Z" fill="#263154"/>
<path d="M75.3169 187.239C75.9185 187.314 76.2193 187.991 76.7457 188.217V188.442C76.2193 188.142 75.6929 187.766 75.3169 187.239Z" fill="#424A7F"/>
<path d="M202.783 148.887L203.159 149.112C203.234 149.488 203.008 149.864 202.783 150.316V148.887Z" fill="#8CB7DE"/>
<path d="M152.172 63.9849C152.323 64.2857 152.623 64.1353 152.849 64.2857L151.796 64.7369C151.721 64.2857 151.947 64.2105 152.172 64.0601V63.9849Z" fill="#5A5D76"/>
<path d="M77.0467 111.512L77.2723 111.737C77.1971 111.888 77.1219 112.113 77.1219 112.339L76.6707 112.865C76.7459 112.189 76.8211 111.813 77.0467 111.437V111.512Z" fill="#4F668A"/>
<path d="M126.905 80.3036C126.83 80.1532 126.905 79.9276 126.679 79.8524C126.755 79.702 126.905 79.4764 126.98 79.5516C127.206 79.7772 127.131 80.078 126.905 80.3036Z" fill="#555A73"/>
<path d="M146.156 152.496C144.126 154.151 142.171 155.805 139.463 157.008C140.215 155.429 140.817 153.85 141.193 152.12C142.772 145.127 141.268 138.81 137.207 133.095C136.155 131.666 134.801 130.613 133.598 129.335C133.447 129.109 133.222 128.883 132.846 129.034C132.47 128.883 132.319 128.507 132.019 128.207C132.169 127.981 132.395 128.131 132.545 128.207C137.358 130.989 141.419 134.523 143.9 139.637C145.104 142.119 145.856 144.901 146.081 147.684C146.232 149.263 146.232 150.917 146.006 152.496H146.156Z" fill="#0E1F66"/>
<path d="M103.141 198.669C109.684 198.97 116.226 197.917 122.393 195.661C128.333 193.48 133.898 190.397 138.862 186.411C143.674 182.501 147.886 177.989 150.668 172.349C152.172 169.341 153.074 166.032 153.375 162.723C153.676 159.715 153.15 156.857 152.322 154C152.398 153.323 153.074 152.947 153.45 152.496C154.879 150.616 155.932 148.585 156.383 146.179C156.459 145.878 156.534 145.577 156.684 145.276C157.587 147.081 158.339 148.961 158.79 150.916C159.467 153.699 159.918 156.481 159.692 159.339C159.316 164.227 157.812 169.04 155.406 173.326C152.924 177.688 149.766 181.373 146.156 184.682C142.922 187.539 139.388 190.021 135.628 192.051C131.041 194.533 126.153 196.413 121.114 197.616C117.956 198.368 114.722 198.819 111.488 199.045C109.909 199.12 108.33 199.271 106.826 199.195C105.698 199.12 104.42 199.195 103.216 198.819L103.141 198.669Z" fill="#0E1F66"/>
<path d="M100.359 89.7785L100.284 89.8537H100.359C100.359 93.9145 102.54 95.3433 106.525 96.3962C101.487 97.9754 100.133 94.5913 99.607 95.2681C97.5013 97.5994 89.53 104.894 85.0932 103.014C81.9348 102.412 83.2132 97.9002 83.6644 95.8697V95.7945C82.386 95.945 81.7092 96.9978 80.7315 97.7498C71.0306 104.668 69.0002 115.347 71.4818 126.777C71.7074 127.83 72.0082 127.605 72.6098 127.153C73.6627 126.326 74.6403 125.348 75.7683 124.672C76.0691 124.747 76.2947 124.972 76.4451 125.198C79.5283 129.184 83.5892 131.665 88.402 132.944C90.5829 133.545 92.3125 133.47 94.5685 133.771C93.8165 132.944 93.8165 132.568 93.3653 131.515C92.6133 129.785 92.4629 127.83 93.7413 126.476C95.3205 124.822 97.8021 124.22 99.9078 123.694C104.345 122.566 108.857 122.34 113.369 122.641C117.054 122.867 120.588 123.844 124.198 124.897C127.13 125.724 129.988 126.702 132.62 128.357C132.996 128.657 133.222 129.033 133.598 129.334C136.982 132.944 138.937 137.155 139.012 142.118C139.087 145.502 138.185 148.736 136.455 151.744C133.372 157.083 128.935 161.069 123.596 164.002C118.182 167.01 112.165 168.89 105.999 169.567C94.9445 170.77 84.642 168.363 75.2419 162.498C67.421 157.61 61.3297 150.917 56.4417 143.171C54.1856 139.486 50.1248 132.041 49.5984 129.485C49.5984 128.206 49.7488 128.657 49.8992 125.724C50.2 120.235 51.0272 114.745 52.456 109.481C58.9233 85.5672 76.2947 66.0902 99.3061 56.9157C106.225 54.1333 113.519 52.4037 120.889 51.7268C132.62 50.674 143.9 52.1781 155.03 56.0885C153.3 59.2469 143.75 67.8198 136.305 72.7831C135.177 66.8422 134.801 67.6694 132.846 63.4582C132.846 63.9094 128.033 70.6023 122.017 74.3623C115.926 78.1976 100.058 80.6792 100.284 89.6281L100.359 89.7785Z" fill="#5591CD"/>
<path d="M100.735 93.6137C100.735 93.6137 100.735 93.6137 100.81 93.6137C100.81 94.5913 100.961 95.3433 101.261 96.0201C100.359 95.4937 99.9078 94.8921 99.6822 95.1929C97.8022 97.2233 91.4853 103.089 86.8981 103.239C86.2965 101.886 86.8981 99.705 87.1989 98.5017C87.1989 98.5017 87.1989 98.5017 87.1989 98.4265C86.1461 98.5769 85.5445 99.4042 84.7924 100.006C84.266 100.382 83.7396 100.758 83.2884 101.209C82.762 99.5546 83.4388 97.0729 83.7396 95.7193V95.6441C82.4612 95.7945 81.7844 96.8473 80.8068 97.5993C71.1059 104.518 69.0755 115.196 71.5571 126.627C70.2787 137.531 58.7729 147.683 57.1185 143.998C56.9681 143.622 59.8258 126.777 59.6754 126.476C59.7506 126.852 59.9762 127.304 59.6002 127.68C59.4498 126.025 59.6002 124.446 59.6754 122.792C59.901 118.28 60.5778 113.843 61.781 109.556C67.045 90.0792 81.1828 74.2119 99.983 66.6918C105.623 64.4358 111.564 63.0069 117.58 62.4805C127.055 61.5781 136.23 62.8565 145.254 66.015C142.396 68.4214 139.238 70.8278 136.38 72.7079C135.252 66.767 134.876 67.5942 132.921 63.3829C132.921 63.8342 128.108 70.527 122.092 74.2871C116.001 78.1223 100.133 80.6039 100.359 89.5528L100.284 89.628H100.359C100.359 90.6809 100.509 91.5833 100.81 92.3353C100.735 92.7113 100.735 93.0873 100.735 93.4633V93.6137ZM76.8964 122.115C76.8964 122.19 76.8964 122.265 76.9716 122.34C76.9716 122.265 76.9716 122.19 76.8964 122.115Z" fill="url(#paint0_linear_1239_2)"/>
</g>
<defs>
<linearGradient id="paint0_linear_1239_2" x1="101.62" y1="144.977" x2="100.718" y2="62.3311" gradientUnits="userSpaceOnUse">
<stop stop-color="#5591CD"/>
<stop offset="1" stop-color="#5DA0D3"/>
</linearGradient>
<clipPath id="clip0_1239_2">
<rect width="256" height="256" fill="white"/>
</clipPath>
</defs>
</svg>
