<svg width="256" height="256" viewBox="0 0 256 256" fill="none" xmlns="http://www.w3.org/2000/svg">
<g clip-path="url(#clip0_1239_2)">
<rect width="256" height="256" fill="#0C192B"/>
<mask id="mask0_1239_2" style="mask-type:luminance" maskUnits="userSpaceOnUse" x="51" y="51" width="154" height="154">
<path d="M205 51.3999H51.3999V205H205V51.3999Z" fill="white"/>
</mask>
<g mask="url(#mask0_1239_2)">
<path d="M83.3995 66.1191L202.439 147.399L172.999 190.919L53.9595 108.999L83.3995 66.1191Z" fill="url(#paint0_linear_1239_2)"/>
<path d="M202.442 147.4C192.202 162.12 157.642 156.36 125.002 133.32C91.722 110.92 73.802 80.8399 83.402 66.1199C93.642 51.3999 128.202 57.1599 160.842 80.1999C194.122 101.96 212.042 132.68 202.442 147.4Z" fill="url(#paint1_linear_1239_2)"/>
<path d="M173.001 190.279C162.761 204.999 128.201 199.239 95.5608 176.199C62.9208 153.159 44.3608 123.719 54.6008 108.359C64.8408 93.639 99.4006 99.3993 132.041 122.439C164.681 145.479 182.601 175.559 173.001 190.279Z" fill="url(#paint2_linear_1239_2)"/>
<path d="M202.441 147.4L173.001 190.92C162.761 205.64 128.201 199.24 95.5606 176.84C89.1606 172.36 83.4006 167.88 77.6406 162.76C82.1206 162.12 87.8806 159.56 93.6406 153.16C103.881 142.28 109.001 139.72 113.481 140.36C117.961 140.36 123.081 144.84 131.401 155.72C139.721 166.6 151.241 169.8 158.281 164.04C158.921 163.4 159.561 163.4 160.201 162.76C165.961 158.28 167.881 156.36 178.761 135.88C181.321 130.76 190.281 122.44 202.441 126.28C205.641 134.6 205.641 141.64 202.441 147.4Z" fill="#0E0F23"/>
<path fill-rule="evenodd" clip-rule="evenodd" d="M197.962 144.84C189.002 157.64 157.642 151.24 127.562 130.12C96.8418 109 78.9216 82.1201 87.8816 69.3201C96.8418 56.5201 128.202 62.9201 158.282 84.0401C188.362 105.16 206.282 132.04 197.962 144.84ZM169.802 125.64C165.322 132.04 149.962 128.84 134.602 118.6C119.882 108.36 110.922 94.9201 115.402 88.5201C119.882 82.1201 135.242 85.3201 150.602 95.5601C165.322 105.8 174.282 119.24 169.802 125.64Z" fill="white"/>
<path d="M80.8413 80.8397C80.8413 80.1997 80.2012 79.5597 79.5612 80.1997C78.9212 80.8397 78.2812 80.8397 78.2812 81.4797C78.9212 83.3997 79.5612 84.6797 79.5612 85.9597C79.5612 86.5997 80.2013 87.2397 80.8413 86.5997C81.4813 86.5997 82.1212 85.9597 81.4812 85.3197C81.4812 84.0397 81.4813 82.7597 80.8413 80.8397Z" fill="white"/>
<path d="M84.0418 91.0804C84.0418 90.4404 83.4018 89.8004 82.7618 90.4404C82.1218 91.0804 82.1218 91.0804 82.1218 91.7204C89.1618 107.72 103.882 125 123.082 137.8C123.722 138.44 124.362 137.8 125.002 137.8C125.642 137.16 125.002 136.52 125.002 135.88C105.162 123.08 91.0818 106.44 84.0418 91.0804Z" fill="white"/>
<path d="M161.48 153.8C160.84 153.8 160.2 153.8 160.2 154.44C160.2 155.08 160.2 155.72 160.84 155.72C162.76 156.36 165.32 157 167.24 157.64C167.88 157.64 168.52 157.64 168.52 157C168.52 156.36 168.52 155.72 167.88 155.72C165.96 155.08 163.4 154.44 161.48 153.8Z" fill="white"/>
<path d="M173.002 156.36C172.362 156.36 171.722 157 171.722 157.64C171.722 158.28 172.362 158.92 173.002 158.92C178.122 159.56 183.882 160.2 188.362 159.56C189.002 159.56 189.642 158.92 189.642 158.28C189.642 157.64 189.002 157 188.362 157C183.242 157.64 178.122 157 173.002 156.36Z" fill="white"/>
</g>
</g>
<defs>
<linearGradient id="paint0_linear_1239_2" x1="106.722" y1="54.5627" x2="130.329" y2="135.626" gradientUnits="userSpaceOnUse">
<stop stop-color="#03B8FF"/>
<stop offset="1" stop-color="#FA52A0"/>
</linearGradient>
<linearGradient id="paint1_linear_1239_2" x1="126.165" y1="48.9014" x2="149.773" y2="129.966" gradientUnits="userSpaceOnUse">
<stop stop-color="#03B8FF"/>
<stop offset="1" stop-color="#FA52A0"/>
</linearGradient>
<linearGradient id="paint2_linear_1239_2" x1="87.3432" y1="60.2061" x2="110.951" y2="141.271" gradientUnits="userSpaceOnUse">
<stop stop-color="#03B8FF"/>
<stop offset="1" stop-color="#FA52A0"/>
</linearGradient>
<clipPath id="clip0_1239_2">
<rect width="256" height="256" fill="white"/>
</clipPath>
</defs>
</svg>
