<svg width="256" height="256" viewBox="0 0 256 256" fill="none" xmlns="http://www.w3.org/2000/svg">
<g clip-path="url(#clip0_1239_2)">
<rect width="256" height="256" fill="black"/>
<mask id="mask0_1239_2" style="mask-type:luminance" maskUnits="userSpaceOnUse" x="43" y="75" width="171" height="122">
<path d="M213.576 75H43V196.558H213.576V75Z" fill="white"/>
</mask>
<g mask="url(#mask0_1239_2)">
<path d="M174.47 87.1285C169.519 84.2802 159.285 82.9127 153.741 87.8971C149.802 91.4461 148.728 95.8313 149.926 103.528C150.441 106.857 151.175 111.135 151.882 115.26C152.673 119.872 153.43 124.291 153.815 126.986C154.007 128.326 153.735 129.292 152.978 129.931C150.492 132.033 143.693 130.773 141.5 130.072C140.382 129.716 139.087 129.671 137.72 129.626C135.685 129.558 133.589 129.49 132.628 128.303C131.718 127.179 131.69 125.28 132.549 123.466C132.854 122.821 132.577 122.047 131.933 121.742C131.3 121.437 130.52 121.708 130.209 122.358C128.904 125.105 129.062 128.009 130.616 129.925C132.317 132.027 135.143 132.123 137.629 132.208C138.811 132.248 139.93 132.287 140.709 132.536C140.766 132.553 144.501 133.66 148.327 133.66C150.673 133.66 153.057 133.242 154.64 131.903C155.645 131.05 156.764 129.439 156.363 126.619C155.979 123.912 155.216 119.459 154.419 114.825C153.713 110.711 152.984 106.45 152.469 103.133C152.396 102.658 152.351 102.24 152.3 101.793C154.08 103.003 156.832 104.257 160.782 104.483C161.206 104.506 161.607 104.517 162.003 104.517C168.971 104.517 171.847 100.991 171.972 100.833C172.413 100.279 172.316 99.4764 171.763 99.0299C171.215 98.5834 170.401 98.6683 169.949 99.2164C169.847 99.3408 167.383 102.245 160.924 101.901C155.42 101.59 152.786 99.0412 152.046 98.188C152.063 94.4129 153.114 91.9208 155.459 89.8184C159.923 85.8004 168.779 86.846 173.164 89.3721C173.775 89.7224 174.571 89.5133 174.927 88.8974C175.283 88.2813 175.069 87.4901 174.453 87.1341L174.47 87.1285Z" fill="url(#paint0_linear_1239_2)"/>
<path d="M154.295 145.489C153.131 145.766 151.899 145.043 150.69 144.336C149.853 143.845 149.062 143.381 148.248 143.234C147.084 143.025 145.988 143.319 145.016 143.579C144.315 143.765 143.665 143.935 143.072 143.912C142.614 143.89 141.975 143.664 141.297 143.426C139.947 142.952 138.268 142.347 136.364 142.72L135.607 142.867C133.278 143.336 130.882 143.816 127.085 143.195C126.395 143.076 125.717 143.556 125.598 144.263C125.48 144.969 125.96 145.63 126.666 145.749C130.922 146.444 133.798 145.868 136.115 145.404L136.85 145.257C138.065 145.026 139.269 145.45 140.427 145.862C141.292 146.167 142.105 146.456 142.948 146.495C143.92 146.54 144.858 146.297 145.671 146.077C146.451 145.873 147.197 145.681 147.791 145.783C148.147 145.845 148.768 146.212 149.373 146.568C150.537 147.252 152.052 148.145 153.758 148.145C154.137 148.145 154.516 148.1 154.911 148.004C155.601 147.829 156.025 147.128 155.855 146.438C155.68 145.743 154.985 145.32 154.29 145.5L154.295 145.489Z" fill="url(#paint1_linear_1239_2)"/>
<path d="M123.411 85.0375C132.504 85.5066 135.951 90.2761 136.511 92.0789C136.686 92.6328 137.194 92.9888 137.743 92.9888C137.867 92.9888 138.003 92.9719 138.127 92.9266C138.811 92.7119 139.189 91.9885 138.975 91.3104C138.093 88.4792 133.725 82.9861 123.536 82.4605C114.002 81.9745 102.338 87.2189 101.857 87.4393C101.208 87.7387 100.925 88.5017 101.219 89.1517C101.518 89.8014 102.281 90.0841 102.931 89.7902C103.044 89.7393 114.392 84.5797 123.406 85.0432L123.411 85.0375Z" fill="url(#paint2_linear_1239_2)"/>
<path d="M133.86 97.4923C133.527 96.8707 132.747 96.622 132.114 96.9555C132.075 96.9782 127.915 99.1143 120.151 98.6735C112.42 98.2213 108.232 95.2262 108.193 95.1924C107.622 94.7742 106.808 94.8986 106.39 95.4692C105.966 96.0457 106.09 96.8482 106.661 97.272C106.853 97.4132 111.448 100.747 120.004 101.251C120.806 101.296 121.575 101.318 122.309 101.318C129.368 101.318 133.165 99.3291 133.341 99.2329C133.968 98.8938 134.199 98.1197 133.866 97.4867L133.86 97.4923Z" fill="url(#paint3_linear_1239_2)"/>
<path d="M148.428 150.201C145.902 152.167 143.224 152.783 139.771 152.207C136.911 151.732 134.413 150.415 132.735 148.5C132.266 147.963 131.447 147.912 130.915 148.381C130.379 148.85 130.322 149.67 130.797 150.206C132.865 152.569 135.905 154.185 139.353 154.761C140.313 154.92 141.234 155.004 142.122 155.004C145.077 155.004 147.637 154.106 150.022 152.247C150.587 151.806 150.689 150.998 150.248 150.433C149.807 149.867 148.994 149.766 148.434 150.206L148.428 150.201Z" fill="url(#paint4_linear_1239_2)"/>
<path d="M90.9404 162.782H90.9064C90.1945 162.799 89.6293 163.392 89.6464 164.11L90.1211 183.176C90.138 183.878 90.7145 184.438 91.4151 184.438H91.4491C92.1611 184.42 92.7263 183.826 92.7092 183.11L92.2345 164.042C92.2176 163.341 91.6411 162.782 90.9404 162.782Z" fill="url(#paint5_linear_1239_2)"/>
<path d="M201.871 85.8851C203.635 82.6074 203.59 76.5436 198.023 70.0164C200.791 65.8063 201.363 60.2061 199.407 55.9507C198.135 53.1873 196.486 51.8252 194.887 50.5086C194.599 50.2712 194.315 50.0339 194.033 49.7909C195.305 43.3258 193.841 33.6171 188.428 27.4912C187.806 26.7848 187.139 26.1631 186.483 25.5189C186.381 20.3989 184.731 14.1375 174.322 9.79732C172.581 9.07393 171.095 8.53708 169.722 8.03968C166.195 6.7738 163.415 5.76789 158.696 2.26422C150.915 -3.51705 141.155 -3.31361 135.572 0.19023C130.423 -4.59077 119.771 -8.12274 107.236 -0.668777C103.461 1.57482 99.5564 2.60891 95.4197 3.69954C92.6054 4.43984 89.7008 5.20848 86.7734 6.39528C83.4279 7.75152 81.0712 10.6562 78.5791 13.7362C75.2958 17.7937 71.905 21.9869 65.943 22.7554C61.8741 23.2753 58.5117 25.9767 56.9406 29.9664C55.46 33.7302 55.85 37.912 57.8787 41.3028C52.3292 43.3429 48.1247 50.6555 48.1247 56.3915C48.1247 63.2972 51.3233 66.3488 54.1376 67.6995C51.7189 69.1067 49.7805 71.3106 48.5487 74.1871C46.339 79.3297 46.6837 85.676 49.4019 89.9765C50.5887 91.8585 52.2105 93.4804 54.2394 94.8084C49.2606 100.132 50.0631 109.23 53.1204 113.729C54.1772 115.283 55.5165 116.594 57.0368 117.622C55.9969 123.98 56.8841 138.402 65.378 142.623C68.4973 144.177 73.6174 145.952 77.5901 146.511C77.6184 146.929 77.641 147.331 77.6692 147.755C78.5056 160.781 79.585 177.526 78.9182 186.33C79.7772 186.33 80.6362 186.33 81.5008 186.33C82.1111 178.317 81.3483 164.652 80.2518 147.591C79.8393 141.222 79.4606 135.232 79.2572 130.287C79.7546 130.196 80.2349 130.066 80.7209 129.942C81.8964 138.515 83.8121 147.02 88.4292 152.75C97.2508 163.685 120.963 174.417 136.301 174.417C146.733 174.417 153.198 171.218 157.967 165.16C157.515 175.332 157.481 182.526 160.804 188.324C161.804 188.324 162.805 188.301 163.805 188.235C163.726 188.12 163.647 188.014 163.573 187.9C159.759 182.125 160.12 174.327 160.674 162.515L160.742 161.018C162.613 157.768 164.24 153.965 165.811 149.608C167.167 145.833 168.857 141.691 170.485 137.678C174.333 128.213 177.961 119.272 178.091 113.859C179.996 115.305 182.448 115.972 184.686 115.972C184.929 115.972 185.166 115.966 185.404 115.95C188.89 115.729 191.835 113.288 193.102 111.118C194.411 108.857 194.763 106.687 194.852 105.664C197.379 104.517 199.531 102.11 200.369 99.4593C201.809 94.8762 200.554 90.9655 199.419 88.6768C200.418 87.9365 201.279 86.9926 201.882 85.8682L201.871 85.8851ZM197.056 57.03C198.593 60.3755 198.135 64.9643 195.988 68.3889C193.034 66.3602 190.896 62.6077 188.829 58.9515C187.065 55.8319 185.234 52.6108 182.838 50.3108C179.052 46.677 173.683 45.2869 169.428 44.473C168.518 44.2979 167.597 44.1396 166.681 43.9814C162.918 43.3258 159.363 42.7043 156.102 41.1784C153.644 40.0256 151.028 37.8555 149.536 35.1882C149.423 32.8656 149.072 30.2207 148.405 27.2539C152.943 31.6562 159.109 33.4362 167.337 32.6508C178.023 31.6449 185.212 39.2062 188.104 45.9989C189.585 49.48 191.53 51.0849 193.243 52.4979C194.74 53.7354 196.033 54.7978 197.056 57.03ZM184.358 27.0448C185.082 27.7342 185.805 28.4293 186.489 29.2035C191.021 34.3349 192.225 42.06 191.772 47.3382C191.314 46.6828 190.885 45.9311 190.484 44.993C187.257 37.3922 179.176 28.9323 167.094 30.0851C159.448 30.8085 153.989 29.2544 149.948 25.1742C148.462 23.6709 146.812 20.9019 145.359 17.5393C145.252 17.2624 145.133 16.9856 145.02 16.7087C149.863 19.4495 156.08 19.1613 159.188 18.777C168.767 17.5846 177.362 20.4216 184.24 26.9261C184.279 26.9714 184.319 27.0108 184.364 27.0505L184.358 27.0448ZM157.153 4.34948C162.177 8.0793 165.122 9.14174 168.846 10.4811C170.185 10.9614 171.632 11.4813 173.327 12.1876C180.674 15.2506 183.002 19.2008 183.669 23.0268C176.65 17.4321 168.202 15.0472 158.871 16.2056C155 16.6918 145.625 17.0646 142.279 10.2436C141.884 9.43554 141.562 8.74614 141.279 8.13584C140.245 5.89788 139.606 4.53036 137.442 2.13987C142.257 -0.550065 150.576 -0.538791 157.153 4.34384V4.34948ZM59.3367 30.9216C60.5573 27.8189 63.1456 25.728 66.2595 25.3268C73.25 24.4283 77.1438 19.6191 80.5796 15.3693C82.857 12.5551 85.0045 9.89895 87.734 8.79704C90.5089 7.67243 93.3401 6.9265 96.0696 6.20311C100.195 5.11232 104.456 3.98787 108.548 1.55774C121.534 -6.16172 131.039 -0.770578 134.368 2.6371C134.368 2.6371 134.368 2.64854 134.373 2.65418C134.385 2.66545 134.402 2.67673 134.413 2.688C134.424 2.69927 134.43 2.71071 134.447 2.72199C134.458 2.7389 134.464 2.75581 134.481 2.77272C134.554 2.85198 134.611 2.91415 134.684 2.9876C134.78 3.09487 134.888 3.20231 134.967 3.30395C134.989 3.3323 135.023 3.34357 135.052 3.37176C135.713 4.07823 136.238 4.6829 136.662 5.2254C136.77 5.42883 137.233 6.29911 137.9 7.59898C138.815 10.2155 138.629 12.4985 137.256 14.3747C135.328 16.9968 131.593 18.1384 128.892 17.9349C127.321 17.8106 125.462 17.4659 123.495 17.0986C118.595 16.1887 112.492 15.0585 107.05 16.7312C100.54 18.7318 96.6065 22.9081 92.0516 27.7399C90.294 29.6048 88.4743 31.5319 86.3834 33.4646C80.54 38.8615 68.4522 44.9364 60.8457 41.0541C58.5908 38.1947 58.003 34.3405 59.348 30.9216H59.3367ZM50.7017 56.4028C50.7017 51.2942 54.9684 44.3205 59.8398 43.4389C61.8516 44.4223 64.0668 44.8742 66.3895 44.8742C74.222 44.8742 83.0888 40.0143 88.1296 35.3633C90.2883 33.3741 92.1364 31.4131 93.9278 29.5144C98.234 24.9481 101.947 21.0092 107.807 19.2064C112.639 17.7202 118.154 18.743 123.015 19.6417C125.049 20.0204 126.976 20.3763 128.683 20.5119C132.74 20.851 137.109 18.9352 139.335 15.9006C139.855 15.1941 140.353 14.3069 140.68 13.2332C141.138 14.1995 141.579 15.1659 141.974 16.07C142.308 16.9574 142.658 17.8049 143.014 18.6301C143.195 19.0935 143.37 19.5513 143.54 19.9976C144.241 22.5294 143.952 24.9933 142.652 26.977C140.889 29.6726 137.408 31.3679 132.588 31.8766C129.44 32.2043 125.88 32.1704 122.421 32.1309C120.471 32.1082 118.561 32.0913 116.753 32.1309C107.417 32.3625 99.6129 37.3695 92.8766 47.4456C90.2036 51.4467 86.2138 51.9439 81.9811 52.4695C78.9972 52.8369 75.9061 53.2211 73.2218 54.8769C69.4863 57.1827 67.4067 59.7312 65.7339 61.7826C63.4903 64.5291 62.1341 66.1906 58.2799 66.1906C57.9692 66.1906 50.6961 66.0041 50.6961 56.3971L50.7017 56.4028ZM51.5776 88.6034C49.3284 85.0486 49.0572 79.5444 50.9164 75.2156C51.9676 72.7572 54.1432 69.6548 58.489 68.7676C63.4169 68.6942 65.4287 66.2584 67.7401 63.4216C69.3732 61.4267 71.2212 59.1605 74.5837 57.0809C76.7876 55.719 79.4663 55.3912 82.3033 55.0409C86.7056 54.4926 91.7011 53.8767 95.0297 48.8924C101.348 39.4378 108.27 34.9339 116.821 34.7248C118.595 34.6796 120.483 34.7021 122.399 34.7248C125.925 34.7643 129.57 34.7983 132.859 34.4536C139.957 33.7075 143.28 30.7519 144.822 28.4011C145.122 27.9433 145.32 27.4461 145.54 26.9599C146.817 36.5332 141.81 40.3138 136.64 42.7268C132.034 44.88 128.236 44.5635 124.224 44.2301C119.703 43.8571 115.035 43.4671 109.503 46.824C106.259 48.7906 104.236 52.0514 102.275 55.2104C100.15 58.6349 98.1436 61.8674 94.8037 63.1616C93.3344 63.7323 91.7295 63.9188 90.0342 64.1166C88.819 64.2579 87.5646 64.4048 86.3213 64.6987C80.5571 66.0775 75.827 71.2541 73.9339 78.3576C72.6736 83.0764 71.4869 87.5353 66.3724 91.152C61.8007 94.3845 57.5623 93.582 56.805 93.4013C54.6294 92.2427 52.8266 90.5868 51.5833 88.609L51.5776 88.6034ZM55.2453 112.282C53.0188 109.004 51.6567 100.488 56.7146 96.0065C57.2289 96.0968 57.9749 96.1928 58.9242 96.1928C61.1791 96.1928 64.4681 95.656 67.8645 93.2542C73.7417 89.095 75.1092 83.9693 76.4655 78.8607C77.7257 74.1306 81.1334 68.5867 86.9147 67.2021C88.0053 66.9422 89.1299 66.8122 90.3223 66.6709C92.1082 66.4618 93.9504 66.2471 95.7306 65.5634C99.8729 63.9584 102.207 60.2003 104.467 56.5666C106.349 53.5376 108.124 50.6724 110.836 49.0337C115.657 46.1119 119.709 46.451 124.004 46.807C128.18 47.1518 132.509 47.5134 137.73 45.072C140.002 44.0098 144.681 41.7944 146.981 36.5388C147.06 41.9358 145.874 45.3095 145.292 46.9313C142.692 54.1819 134.933 55.6116 123.987 55.4703C118.889 55.3912 113.961 57.1771 110.305 60.2964C107.717 62.5004 106.016 65.4165 104.371 68.242C103.981 68.9089 103.591 69.5757 103.196 70.2313C101.608 72.8421 99.0648 76.4362 95.4028 77.527C94.2443 77.8717 92.967 77.9847 91.6108 78.1033C89.0508 78.3294 86.3947 78.5667 84.3489 80.4543C81.4103 83.1724 81.7155 87.5522 81.9586 91.0671L81.9755 91.3271C82.4106 97.6396 81.6646 102.822 79.7037 107.173C77.381 112.327 73.1878 116.125 68.486 117.328C63.5694 118.583 58.1274 116.509 55.2509 112.276L55.2453 112.282ZM66.5251 140.318C60.1732 137.158 58.6417 125.494 59.4498 118.945C61.3825 119.798 63.4734 120.284 65.587 120.284C65.7565 120.284 65.9205 120.261 66.0899 120.256C66.9771 121.064 68.5878 122.663 69.102 123.827L69.3563 124.409C70.1362 126.201 71.0178 128.235 72.8714 129.456C74.0468 130.23 75.3467 130.518 76.6747 130.541C76.8385 134.463 77.1098 139.012 77.4206 143.895C73.8999 143.313 69.3507 141.73 66.5251 140.323V140.318ZM175.537 93.9098C175.13 95.5713 175.215 98.0521 175.345 101.805C175.452 104.924 175.588 108.812 175.503 113.746C175.412 118.673 171.688 127.845 168.077 136.718C166.438 140.753 164.743 144.923 163.364 148.744C157.057 166.228 150.479 171.846 136.289 171.846C120.585 171.846 97.9458 160.458 90.4296 151.14C84.756 144.104 83.4392 131.948 82.2807 121.222L82.0208 118.82C81.9415 118.108 81.2861 117.594 80.5965 117.679C79.8846 117.758 79.3759 118.397 79.455 119.108L79.715 121.505C79.9241 123.432 80.1502 125.41 80.3931 127.393C79.5397 127.614 78.6865 127.806 77.8613 127.902C76.5335 128.054 75.2958 127.964 74.3011 127.308C73.0918 126.506 72.4306 124.991 71.7355 123.386L71.4756 122.787C71.0291 121.782 70.1419 120.691 69.3054 119.798C74.6855 118.351 79.4494 114.056 82.0715 108.258C84.2133 103.506 85.0328 97.9165 84.5694 91.169L84.5523 90.9033C84.3376 87.7782 84.0891 84.2405 86.1178 82.3643C87.5137 81.0759 89.6215 80.8894 91.8482 80.6916C93.2722 80.5672 94.7416 80.4372 96.1487 80.0191C100.664 78.6741 103.597 74.5656 105.411 71.5932C105.818 70.9207 106.219 70.2426 106.615 69.5588C108.22 66.8009 109.74 64.2013 111.995 62.28C115.188 59.5561 119.596 57.9852 123.975 58.0755C134.357 58.1999 144.444 57.0244 147.739 47.8187C147.835 47.5473 147.953 47.2196 148.072 46.8579C149.592 53.4076 152.474 56.8775 155.017 58.6971C158.001 60.8276 161.375 62.2744 164.636 63.6757L166.681 64.5631C170.456 66.2246 175.045 69.2649 175.904 70.152C175.995 70.2482 176.108 70.3104 176.221 70.3669C176.232 70.4629 176.221 70.5533 176.255 70.6494C178.215 76.5267 178.741 81.8162 177.837 86.3654C177.492 88.1003 177.057 89.321 176.594 90.6095C176.232 91.6155 175.859 92.661 175.554 93.9269L175.537 93.9098ZM190.852 109.829C189.918 111.44 187.63 113.231 185.229 113.384C182.68 113.542 179.453 112.553 178.114 110.038C178.102 106.772 178.012 104.037 177.933 101.72C177.814 98.3121 177.73 95.8481 178.052 94.5315C178.334 93.3729 178.679 92.4236 179.018 91.4628C179.069 91.3271 179.114 91.1802 179.165 91.0446C180.419 91.0446 181.685 92.1298 182.307 93.2769C182.985 94.5201 183.279 95.9781 183.584 97.5153L183.771 98.4195C184.183 100.38 184.816 102.601 186.415 104.235C187.783 105.63 189.728 106.376 191.699 106.376C191.847 106.376 191.992 106.342 192.14 106.331C191.971 107.235 191.619 108.513 190.857 109.829H190.852ZM197.887 98.6964C197.26 100.686 195.565 102.568 193.665 103.387C191.847 104.172 189.568 103.766 188.257 102.421C187.128 101.262 186.63 99.4763 186.297 97.8827L186.121 97.0068C185.788 95.3453 185.449 93.6273 184.584 92.0336C183.522 90.0896 181.815 88.8068 179.973 88.5072C180.109 87.9929 180.244 87.456 180.369 86.8514C181.188 82.7487 180.9 78.1204 179.623 73.1078C182.109 75.4134 183.72 77.9791 185.37 81.2454C185.607 81.7144 185.833 82.1893 186.054 82.6639C186.687 84.0033 187.342 85.3821 188.257 86.6479C189.824 88.8068 191.863 90.1122 193.999 90.3156C194.214 90.3381 194.43 90.3496 194.649 90.3496C195.486 90.3496 196.321 90.1856 197.131 89.9031C198.187 92.0392 199.024 95.1191 197.898 98.6964H197.887ZM199.588 84.6587C198.52 86.6423 196.248 87.9478 194.231 87.7444C192.863 87.6144 191.445 86.6592 190.343 85.1335C189.568 84.0654 188.993 82.8447 188.381 81.5619C188.144 81.0646 187.912 80.5729 187.67 80.0869C185.251 75.3003 182.912 71.8926 178.103 68.6264C178.035 68.5811 177.956 68.5642 177.876 68.5302C177.831 68.468 177.809 68.3946 177.752 68.338C176.599 67.14 171.643 63.9075 167.71 62.1782L165.642 61.2854C162.505 59.9404 159.261 58.5502 156.509 56.578C154.141 54.8882 150.316 50.4746 149.677 39.6187C151.287 41.3028 153.181 42.6703 155.012 43.5236C158.589 45.1964 162.477 45.8745 166.241 46.5301C167.145 46.6884 168.049 46.8466 168.947 47.0162C173.096 47.8072 177.775 49.0337 181.052 52.1814C183.172 54.2157 184.827 57.1374 186.579 60.2286C189.038 64.5631 191.586 69.0276 195.672 71.2088C200.81 76.9336 201.007 82.0309 199.594 84.6587H199.588Z" fill="url(#paint6_linear_1239_2)"/>
<path d="M197.184 167.122C201.295 152.989 191.755 137.786 175.875 133.167C159.995 128.547 143.788 136.259 139.677 150.392C135.565 164.526 145.106 179.728 160.986 184.347C176.866 188.968 193.073 181.255 197.184 167.122Z" fill="url(#paint7_linear_1239_2)"/>
</g>
</g>
<defs>
<linearGradient id="paint0_linear_1239_2" x1="129.333" y1="109.112" x2="175.114" y2="109.112" gradientUnits="userSpaceOnUse">
<stop stop-color="#2BF1FF"/>
<stop offset="0.24" stop-color="#56C7FF"/>
<stop offset="0.78" stop-color="#C25FFF"/>
<stop offset="1" stop-color="#F133FF"/>
</linearGradient>
<linearGradient id="paint1_linear_1239_2" x1="125.587" y1="145.37" x2="155.9" y2="145.37" gradientUnits="userSpaceOnUse">
<stop stop-color="#2BF1FF"/>
<stop offset="0.24" stop-color="#56C7FF"/>
<stop offset="0.78" stop-color="#C25FFF"/>
<stop offset="1" stop-color="#F133FF"/>
</linearGradient>
<linearGradient id="paint2_linear_1239_2" x1="101.106" y1="87.7049" x2="139.037" y2="87.7049" gradientUnits="userSpaceOnUse">
<stop stop-color="#2BF1FF"/>
<stop offset="0.24" stop-color="#56C7FF"/>
<stop offset="0.78" stop-color="#C25FFF"/>
<stop offset="1" stop-color="#F133FF"/>
</linearGradient>
<linearGradient id="paint3_linear_1239_2" x1="106.136" y1="98.131" x2="134.013" y2="98.131" gradientUnits="userSpaceOnUse">
<stop stop-color="#2BF1FF"/>
<stop offset="0.24" stop-color="#56C7FF"/>
<stop offset="0.78" stop-color="#C25FFF"/>
<stop offset="1" stop-color="#F133FF"/>
</linearGradient>
<linearGradient id="paint4_linear_1239_2" x1="130.469" y1="151.529" x2="150.514" y2="151.529" gradientUnits="userSpaceOnUse">
<stop stop-color="#2BF1FF"/>
<stop offset="0.24" stop-color="#56C7FF"/>
<stop offset="0.78" stop-color="#C25FFF"/>
<stop offset="1" stop-color="#F133FF"/>
</linearGradient>
<linearGradient id="paint5_linear_1239_2" x1="89.652" y1="173.609" x2="92.7148" y2="173.609" gradientUnits="userSpaceOnUse">
<stop stop-color="#2BF1FF"/>
<stop offset="0.24" stop-color="#56C7FF"/>
<stop offset="0.78" stop-color="#C25FFF"/>
<stop offset="1" stop-color="#F133FF"/>
</linearGradient>
<linearGradient id="paint6_linear_1239_2" x1="47.0906" y1="91.6833" x2="202.894" y2="91.6833" gradientUnits="userSpaceOnUse">
<stop stop-color="#2BF1FF"/>
<stop offset="0.24" stop-color="#56C7FF"/>
<stop offset="0.78" stop-color="#C25FFF"/>
<stop offset="1" stop-color="#F133FF"/>
</linearGradient>
<linearGradient id="paint7_linear_1239_2" x1="138.719" y1="158.767" x2="198.135" y2="158.767" gradientUnits="userSpaceOnUse">
<stop stop-color="#2BF1FF"/>
<stop offset="0.24" stop-color="#56C7FF"/>
<stop offset="0.78" stop-color="#C25FFF"/>
<stop offset="1" stop-color="#F133FF"/>
</linearGradient>
<clipPath id="clip0_1239_2">
<rect width="256" height="256" fill="white"/>
</clipPath>
</defs>
</svg>
