<svg width="256" height="256" viewBox="0 0 256 256" fill="none" xmlns="http://www.w3.org/2000/svg">
<g clip-path="url(#clip0_2809_2)">
<path d="M256 1H0V257H256V1Z" fill="#374EF5"/>
<path d="M186.089 128.636H200.489V55H127.671V69.4H175.707C147.689 99.0178 104.489 111.036 65.2356 99.0178L58.0178 96.6L54 111L61.2178 113.418C106.053 127.036 154.053 113.418 186.089 79.8178V128.636Z" fill="white"/>
<path d="M69.2529 128.636H54.0352V201.454H127.671V187.054H79.6352C107.653 157.436 150.853 145.418 190.106 157.436L197.324 159.854L201.342 145.454L194.124 143.036C149.289 129.418 101.288 143.036 69.2529 176.636V128.636Z" fill="white"/>
</g>
<defs>
<clipPath id="clip0_2809_2">
<rect width="256" height="256" fill="white"/>
</clipPath>
</defs>
</svg>
