<svg width="256" height="256" viewBox="0 0 256 256" fill="none" xmlns="http://www.w3.org/2000/svg">
<g clip-path="url(#clip0_1239_2)">
<rect width="256" height="256" fill="white"/>
<path d="M73.6849 207.423L68.2749 202.013V184.517H74.9511V199.366L76.3324 200.747L77.7137 199.366V184.517H84.3898V199.366L85.7711 200.632L87.1524 199.251V184.402H93.8286V201.898L88.4186 207.308H83.0086L80.9366 205.236L78.8647 207.308L73.6849 207.423Z" fill="#352B1B"/>
<path d="M95.6702 207.423V184.517H111.9V207.423H95.6702ZM105.109 200.747V191.308H102.461V200.747H105.109Z" fill="#352B1B"/>
<path d="M113.512 207.423V184.517H118.922L123.756 189.352L128.591 184.517H134.001V207.423H127.209V195.337L123.641 198.905L120.073 195.337V207.423H113.512Z" fill="#352B1B"/>
<path d="M135.727 207.423V184.517H149.195L151.842 187.165V193.956L149.195 196.603L151.842 199.251V204.661L149.195 207.308L135.727 207.423ZM145.166 193.956V191.308H142.519V193.956H145.166ZM145.166 200.747V197.985H142.519V200.747H145.166Z" fill="#352B1B"/>
<path d="M153.569 207.423V184.517H169.799V207.423H163.008V202.819H160.36V207.423H153.569ZM163.008 196.718V191.308H160.36V196.718H163.008Z" fill="#352B1B"/>
<path d="M175.554 207.423V191.308H171.525V184.517H187.64V191.308H183.612V207.423H175.554Z" fill="#352B1B"/>
<path d="M187.64 58.9355H68.3899V164.373H187.64V58.9355Z" fill="#B7A38E"/>
<path d="M89.4544 146.762H68.3899V153.898H89.4544V146.762Z" fill="#6A5C52"/>
<path d="M187.525 146.762H166.576V153.898H187.525V146.762Z" fill="#6A5C52"/>
<path d="M166.461 157.352H89.3394V164.374H166.461V157.352Z" fill="#6A5C52"/>
<path d="M156.101 58.9355H99.9292V69.18H156.101V58.9355Z" fill="#312A1D"/>
<path d="M177.051 90.5901H187.525V58.9358V48.5762H177.051H156.101V58.9358H177.051V90.5901Z" fill="#312A1D"/>
<path d="M198 90.5903H187.525V153.784H198V90.5903Z" fill="#312A1D"/>
<path d="M78.8646 58.9358H99.9291V48.5762H78.8646H68.3899V58.9358V90.5901H78.8646V58.9358Z" fill="#312A1D"/>
<path d="M78.8646 153.899H68.3899V164.374H78.8646H89.3393V153.899H78.8646Z" fill="#312A1D"/>
<path d="M166.461 164.374H89.3394V174.848H166.461V164.374Z" fill="#312A1D"/>
<path d="M166.576 153.899V164.374H177.051H187.525V153.899H177.051H166.576Z" fill="#312A1D"/>
<path d="M68.2748 90.5903H57.8V153.784H68.2748V90.5903Z" fill="#312A1D"/>
<path d="M166.576 62.5044H163.123V69.641H166.576V73.0942H173.597V69.641V62.5044H166.576Z" fill="#6A5C52"/>
<path d="M93.0226 62.5044H89.5694H82.5479V69.641V73.0942H89.5694V69.641H93.0226V62.5044Z" fill="#6A5C52"/>
<path d="M110.634 108.201H99.9292V118.906H110.634V108.201Z" fill="#312A1D"/>
<path d="M120.994 118.676H113.857V125.813H120.994V118.676Z" fill="#312A1D"/>
<path d="M142.173 118.676H135.037V125.813H142.173V118.676Z" fill="#312A1D"/>
<path d="M142.058 139.741H135.037V136.288H120.879V139.741H113.857V125.813H106.72V150.216H113.857V153.899H120.879V157.352H124.332V160.69H131.353V157.352H135.037V153.899H142.058V150.216H149.195V125.813H142.058V139.741Z" fill="#312A1D"/>
<path d="M155.986 108.201H145.281V118.906H155.986V108.201Z" fill="#312A1D"/>
</g>
<defs>
<clipPath id="clip0_1239_2">
<rect width="256" height="256" fill="white"/>
</clipPath>
</defs>
</svg>
