<?xml version="1.0" encoding="UTF-8"?><svg id="a" xmlns="http://www.w3.org/2000/svg" viewBox="0 0 1920 1080"><defs><style>.b{fill:#fff;}</style></defs><path class="b" d="M408.7,958.86c-20.08,0-39.98-5.98-57.54-17.27-18.1-11.64-33.83-29.04-45.47-50.32-17.35-31.71-25.16-72.21-21.41-111.1,4.01-41.66-13.09-71.9-23.64-86.22-4.08-5.54-8.66-10.83-13.1-15.95-8.28-9.57-16.85-19.46-22.06-30.99-3.96-8.76-5.19-19.09-3.36-28.34,1.95-9.9,7.24-17.33,14.89-20.93,3.4-1.6,7.06-2.41,10.86-2.41,14.96,0,29.97,12.35,39.03,23.91,19.6,25,31.99,50.79,36.83,76.65,2.84,15.2,3.55,28.83,4.23,42,1.63,31.51,3.04,58.72,34.31,88.9,19.68,19,44.61,29.89,68.39,29.89,28.4,0,54.6-14.47,77.87-43,19.82-24.29,30.72-55.09,32.41-91.54,1.42-30.79-3.96-65.27-15.55-99.71-18.4-54.62-54.07-103.87-112.27-154.98-7.15-6.28-14.54-12.55-21.69-18.61-22.58-19.15-45.94-38.95-65.02-62-28.57-34.51-47.63-68.39-56.64-100.71-7.68-27.52-8.11-53.88-1.29-78.35,12.54-44.96,47.99-75.81,75.62-85.44,10.01-3.49,19.91-5.25,29.44-5.25,20.57,0,38.87,7.95,54.4,23.64,18.17,18.35,29.88,44.52,32.97,73.69,.38,3.55,.74,7.09,1.1,10.62,3.61,35.33,7.02,68.71,23.11,101.31,1.57,3.17,3.59,6.83,5.94,11.07,9.59,17.3,24.08,43.45,18.27,60.76-2.15,6.41-6.81,11.13-14.25,14.43-4.44,1.97-8.85,2.97-13.11,2.97-13.23,0-25.26-9.67-33-26.54-12.69-27.67-15.39-55.91-18.25-85.82-1.45-15.21-2.96-30.94-5.91-46.42-3.36-17.61-13.66-28.12-27.55-28.12-8.62,0-17.39,4.15-24.08,11.39-8.05,8.72-11.94,20.52-10.93,33.22,3.16,39.9,26.42,74.72,51.09,106.42,42.42,54.5,72.35,107.73,104.04,164.1l1.39,2.48c20.05,35.66,33.41,70.41,40.82,106.24,11.67,56.38,8.23,114.14-10.23,171.69-13.93,43.44-35.17,78.77-61.41,102.17-23.83,21.25-51.23,32.49-79.22,32.49h-.02Z"/><path class="b" d="M1210.69,254.75c-8.34,0-16.52-3.39-23.65-9.79-10.06-9.04-15.98-23.73-15.82-39.28,.13-13.18,4.3-27.35,12.4-42.13,9.97-18.21,22.96-31.78,37.57-39.24,8.45-4.31,17.81-6.59,27.07-6.59s17.78,2.3,24.9,6.65c15.99,9.77,23.3,30.47,16.29,46.15-4.53,10.13-12.24,14.4-20.42,18.93-4.85,2.69-9.86,5.46-14.49,9.56-8.64,7.66-9.3,12.32-10.3,19.37-.34,2.4-.73,5.13-1.5,8.43-3.91,16.71-16.79,27.93-32.06,27.93Z"/><path class="b" d="M1242.65,959.16c-4.14,0-8.16-.82-11.95-2.43-9.23-3.94-15.82-12.51-18.56-24.15-2.55-10.84-1.55-23.08,2.75-33.59,6.12-14.96,16.2-27.96,25.96-40.53,9.42-12.14,19.16-24.7,25.59-39.21,25.41-57.44,26.76-122.09,3.78-182.05-2.65-6.92-5.35-13.86-8.06-20.8-21.6-55.44-43.94-112.77-44.06-173.32-.1-51.63,16.05-100.95,46.71-142.61,10.53-14.31,28.19-29.59,46.17-29.59,4.16,0,8.2,.84,12,2.49,19.76,8.57,23.95,36.84,15.46,57.86-3.91,9.69-11.17,19.73-19.58,31.35-32.81,45.37-82.39,113.93-23.66,281.99,7.41,21.21,20.97,72.07,24.76,128.12,4.52,66.88-6.29,121.04-31.25,156.62-9.67,13.78-27.52,29.87-46.03,29.87h0Z"/><path class="b" d="M690.49,959.71c-10.79,0-27.2-6.48-44.15-37.36-23.03-41.95-33.64-98.35-27.03-143.68,8.75-60,25.69-108.18,53.33-151.64,24.65-38.76,54.71-68.95,86.54-100.91,12.49-12.54,25.41-25.51,38.22-39.25,8.32-8.92,35.33-39.51,33.54-58.36-.42-4.47-2.41-8.04-5.9-10.58-2.1-1.54-4.27-2.32-6.43-2.32-6.53,0-12.12,6.9-19.19,15.62-7.03,8.68-15.79,19.48-28.32,27.3-13.13,8.2-32.69,13.09-52.32,13.09-17.35,0-43.06-3.84-67.05-22.15-23.85-18.21-40.85-46.67-50.52-84.61-11.95-46.9-11.17-97.26,2.13-138.17,7.93-24.38,20.16-45.35,36.35-62.33,18.18-19.06,41.43-33.11,69.11-41.77,9.13-2.86,19.83-4.37,30.92-4.37,18.11,0,53.65,4.25,88.12,32.72,33.6,27.75,57.28,70.71,70.39,127.67,5.57,24.22,11.03,53.42,9.22,86.33-2.27,41.4-15.85,78.88-40.37,111.37-15.95,21.15-40.65,39.18-66.79,58.27-31.77,23.2-67.79,49.49-93.48,86.06-29.46,41.93-41.14,91.29-35.7,150.89,3.39,37.21,27.06,79.45,39.78,102.14,2.72,4.86,4.88,8.71,6.04,11.12,2.61,5.43,8.71,19.69,9.07,34.66,.41,17.24-6.88,29.64-21.68,36.85-4.61,2.25-9.26,3.39-13.81,3.39h0Zm18.71-773.81c-17.24,0-34.7,8.9-46.73,23.82-11.2,13.88-18.06,33-19.86,55.29-1.46,18.09,.7,33.94,6.42,47.09,6.89,15.85,19.64,28.09,34.09,32.75,4.81,1.55,9.52,2.33,14.02,2.33,10.45,0,19.85-4.34,26.47-12.24,8.18-9.75,11.54-24.18,9-38.6-2-11.36-1.66-17.99,1.32-25.34,1.14-2.8,2.73-5.87,4.88-9.37,1.2-1.95,2.48-3.92,3.73-5.81,5.6-8.53,11.38-17.36,11.38-28.7,0-19.78-17.29-38.1-38.52-40.83-2.04-.26-4.12-.4-6.2-.4Z"/><path class="b" d="M1534.95,959.71c-11.1,0-21.79-1.51-30.92-4.37-27.68-8.66-50.93-22.71-69.11-41.77-16.19-16.98-28.42-37.95-36.35-62.33-13.3-40.91-14.08-91.27-2.13-138.17,9.67-37.94,26.66-66.41,50.52-84.61,23.99-18.31,49.71-22.15,67.05-22.15,19.63,0,39.2,4.89,52.32,13.09,12.53,7.83,21.29,18.62,28.32,27.3,7.08,8.73,12.66,15.62,19.19,15.62,2.17,0,4.33-.78,6.43-2.32,3.49-2.55,5.47-6.11,5.9-10.58,1.79-18.86-25.22-49.44-33.54-58.36-12.81-13.74-25.73-26.71-38.22-39.25-31.83-31.96-61.9-62.14-86.54-100.9-27.63-43.46-44.58-91.65-53.33-151.64-6.61-45.33,4-101.72,27.03-143.68,16.95-30.88,33.37-37.36,44.15-37.36,4.55,0,9.2,1.14,13.81,3.39,14.8,7.21,22.09,19.61,21.68,36.85-.36,14.98-6.46,29.23-9.07,34.66-.97,2.01-2.53,4.97-4.51,8.73-11.29,21.4-34.79,65.92-38.31,104.53-5.45,59.76,6.01,109.2,35.02,151.16,25.32,36.61,60.88,62.93,92.25,86.15,25.63,18.97,49.85,36.89,65.7,57.91,24.51,32.5,38.09,69.97,40.36,111.37,1.81,32.92-3.65,62.11-9.22,86.33-13.11,56.96-36.79,99.92-70.39,127.67-34.46,28.46-69.99,32.71-88.11,32.71h0Zm-42.56-228.95c-4.5,0-9.22,.79-14.02,2.33-14.46,4.66-27.2,16.9-34.09,32.75-5.72,13.15-7.88,29-6.42,47.09,1.79,22.29,8.66,41.4,19.86,55.29,12.03,14.92,29.5,23.82,46.73,23.82,2.08,0,4.17-.13,6.2-.4,21.23-2.74,38.51-21.05,38.52-40.83,0-11.34-5.78-20.17-11.38-28.7-1.25-1.9-2.53-3.86-3.73-5.82-2.14-3.5-3.74-6.56-4.88-9.37-2.98-7.35-3.32-13.98-1.32-25.34,2.54-14.42-.82-28.85-9-38.6-6.62-7.89-16.02-12.24-26.47-12.24Z"/><path class="b" d="M975.54,958.83c-36.8,0-71.18-14.14-94.33-38.78-33.58-35.75-56.72-86.88-63.49-140.27-7.47-58.89-7.33-111.56,.41-161,2.5-15.93,8.05-30.84,15.64-41.99,9.06-13.31,20.25-20.52,33.27-21.43,1.21-.08,2.41-.13,3.58-.13,12.36,0,22.52,4.72,30.2,14.02,14.71,17.81,17.1,48.3,13.1,69.08-2.64,13.72-6.5,27.87-10.24,41.55-9.34,34.24-19,69.64-12.18,105.16,4.76,24.82,19.36,49.95,37.19,64.04,11.25,8.88,27.28,14.67,41.84,15.11,1.32,.04,2.62,.06,3.92,.06,21.76,0,42.16-5.57,60.64-16.55,16.49-9.8,31.54-23.95,44.71-42.06,29.8-40.95,42.03-90.18,46.66-115.87,10.66-59.13,5.73-111.89-15.54-166.05-10-25.48-27.82-55.34-45.04-84.22-13.11-21.99-25.5-42.75-34.2-61.01-11.04-23.16-18.03-43.93-16.26-70.02,.62-9.15,5.26-39.02,38.83-39.02,.51,0,1.04,0,1.56,.02,11.16,.3,20.38,5.63,26.66,15.42,6.11,9.52,9.27,22.71,9.13,38.14-.18,19.21,1.36,41.93,4,59.28,4.2,27.59,11.26,51.2,18.74,76.19,2.54,8.5,5.17,17.29,7.74,26.41,5.84,20.77,12.02,41.81,17.99,62.16,3.41,11.64,6.83,23.28,10.2,34.94,18.64,64.36,19.64,137.66,2.76,201.09-19.22,72.21-60.89,131.74-111.46,159.25-19.8,10.77-42.63,16.47-66,16.47h0Z"/></svg>