<?xml version="1.0" encoding="UTF-8"?><svg id="a" xmlns="http://www.w3.org/2000/svg" viewBox="0 0 1920 1080"><path d="M520.49,545.29c-32.3-57.44-62.47-111.41-105.6-166.82-24.42-31.37-47.54-65.71-50.67-105.34-3.32-41.97,49.76-62.3,58.6-15.96,8.53,44.72,4.74,90.05,24.3,132.69,9.34,20.35,26.96,34.22,48.74,24.57,37.62-16.69,1.76-67.2-8.97-88.97-17.55-35.57-19.94-72.86-24.01-111.26-2.93-27.61-13.82-54.96-33.54-74.88-23.7-23.94-54.09-29.95-85.92-18.86-49.94,17.4-145.73,114.09-18.57,267.66,25.26,30.5,57.18,54.7,86.94,80.83,49.93,43.85,91.16,93.12,111.7,154.12,21.21,62.98,25.5,137.86-16.51,189.35-52.82,64.76-111.71,43.44-143.32,12.93-43.42-41.91-28.18-77.49-37.97-129.83-5.31-28.38-19.41-54.8-37.22-77.52-12.64-16.12-33.78-30.79-52.31-22.07-17.87,8.41-20.64,33.91-12.5,51.91,8.14,18,23.66,31.41,35.37,47.31,8.94,12.13,27.33,42.56,23.26,84.85-3.64,37.82,3.22,78.58,21.65,112.25,56.96,104.09,194.88,96.03,247.31-67.42,42.8-133.43-5.13-233.94-30.76-279.52Z"/><path d="M1185.71,246.45c-11.24-10.1-16.64-25.67-16.48-40.79,.15-15.11,5.38-29.81,12.64-43.07,9.02-16.48,21.69-31.52,38.42-40.06,16.73-8.54,37.9-9.66,53.93,.14,16.03,9.79,24.74,31.52,17.08,48.67-7.53,16.84-23.09,18.26-35.41,29.17-10.95,9.71-8.15,13.78-11.18,26.77-6.53,27.95-36.34,39.53-58.99,19.17Z"/><path d="M1323.76,271.52c-22.05-9.56-46.33,8.39-60.58,27.76-30.93,42.02-47.21,91.55-47.1,143.8,.14,68.48,28.2,132.06,52.26,194.84,22.54,58.83,21.99,122.36-3.74,180.53-12.99,29.37-39.45,50.15-51.57,79.79-8.77,21.45-4.44,51.25,16.88,60.34,22.11,9.43,46.6-8.45,60.41-28.13,59.37-84.61,22.68-240.95,6.74-286.56-73.59-210.57,23.82-263.94,43.21-311.93,8.68-21.49,4.75-51.22-16.51-60.44Z"/><path d="M900.16,278.17c-35.84-155.73-143.41-172.67-191.98-157.48-118.5,37.07-129.89,162.41-108.93,244.67,32.1,125.99,136.88,117.36,172.89,94.88,28.85-18.01,37.7-50.93,51.71-40.69,19.25,14.07-21.04,58.58-27.92,65.97-77.33,82.93-155.54,134.72-178.6,292.87-6.81,46.68,4.52,103.51,27.25,144.93,6.99,12.74,29.37,50.02,60.59,34.81,36.32-17.7,19.98-60.76,13.53-74.18s-41.52-67.49-45.63-112.58c-17.03-186.71,139.92-220.04,195.58-293.84,57.13-75.74,41.08-157.72,31.5-199.36Zm-163.05-17.57c-2.16,3.52-3.81,6.66-5.03,9.66-3.35,8.28-3.37,15.46-1.44,26.44,5.18,29.35-14.8,56.59-46.91,46.25-14.92-4.81-26.62-17.27-32.87-31.65-6.25-14.38-7.52-30.51-6.26-46.14,1.56-19.42,7.19-39.03,19.42-54.19,12.23-15.17,31.8-25.19,51.12-22.7,19.32,2.49,36.77,19.37,36.77,38.85,0,13.2-8.29,22.83-14.81,33.47Z"/><path d="M1663.91,600.41c-55.66-73.79-209.61-107.12-192.58-293.84,4.11-45.08,36.18-99.16,42.63-112.58,6.44-13.42,22.79-56.47-13.53-74.18-31.22-15.21-53.6,22.07-60.59,34.81-22.74,41.42-34.06,98.25-27.25,144.93,23.06,158.16,101.28,209.94,178.6,292.87,6.89,7.39,47.17,51.9,27.92,65.97-14.01,10.24-22.86-22.68-51.71-40.69-36.02-22.48-140.79-31.11-172.89,94.88-20.96,82.26-9.57,207.6,108.93,244.67,48.56,15.19,156.14-1.75,191.98-157.48,9.58-41.64,25.63-123.62-31.5-199.36Zm-116.75,250.4c0,19.48-17.45,36.36-36.77,38.85-19.32,2.49-38.89-7.53-51.12-22.7-12.23-15.16-17.86-34.78-19.42-54.19-1.26-15.63,.01-31.76,6.26-46.14s17.95-26.84,32.87-31.65c32.1-10.34,52.08,16.9,46.91,46.25-1.94,10.97-1.92,18.16,1.44,26.44,1.22,3,2.87,6.14,5.03,9.66,6.52,10.64,14.82,20.27,14.81,33.47Z"/><path d="M1097.57,382.02c-2.73-17.93-4.14-40.62-3.97-58.96,.29-31.2-12.89-54.91-37.74-55.58-35.01-.93-41.6,28.51-42.44,40.86-1.77,26.1,5.19,47.41,16.45,71.02,20.37,42.73,61.77,100.73,79.19,145.1,21.54,54.84,25.71,107.98,15.43,164.96-13.97,77.45-61.01,175.57-153.9,172.77-14.17-.43-29.7-6.03-40.66-14.68-18.25-14.41-32.07-39.93-36.47-62.84-9.48-49.38,13.26-98.37,22.42-145.96,6.36-33.02-3.33-88.54-48.98-85.34-29.71,2.08-46.14,35.69-50.75,65.11-8.38,53.52-7.23,107.87-.42,161.56,6.62,52.24,29.27,104.38,64.02,141.38,40.64,43.27,110.7,51.02,162.75,22.7,52.1-28.34,93.43-89.07,112.44-160.5,17-63.86,15.72-138.33-2.77-202.16-9.37-32.37-19.06-64.64-28.18-97.08-10.07-35.79-20.82-65.5-26.43-102.36Z"/></svg>