<svg width="256" height="256" viewBox="0 0 256 256" fill="none" xmlns="http://www.w3.org/2000/svg">
<g clip-path="url(#clip0_1253_704)">
<mask id="mask0_1253_704" style="mask-type:luminance" maskUnits="userSpaceOnUse" x="0" y="0" width="256" height="256">
<path d="M256 0H0V256H256V0Z" fill="white"/>
</mask>
<g mask="url(#mask0_1253_704)">
<path d="M128 252.16C196.572 252.16 252.16 196.572 252.16 128C252.16 59.4282 196.572 3.83984 128 3.83984C59.4284 3.83984 3.84009 59.4282 3.84009 128C3.84009 196.572 59.4284 252.16 128 252.16Z" fill="url(#paint0_linear_1253_704)"/>
<path d="M182.336 177.472L140.352 75.9682C137.984 70.7202 134.464 68.1602 129.824 68.1602H126.112C121.472 68.1602 117.952 70.7202 115.584 75.9682L97.3122 120.192H83.4882C79.3602 120.224 76.0002 123.552 75.9682 127.712V127.808C76.0002 131.936 79.3602 135.296 83.4882 135.328H90.9122L73.4722 177.472C73.1522 178.4 72.9602 179.36 72.9602 180.352C72.9602 182.72 73.6962 184.576 75.0082 186.016C76.3202 187.456 78.2082 188.16 80.5762 188.16C82.1442 188.128 83.6482 187.648 84.8962 186.72C86.2402 185.792 87.1682 184.448 87.9042 182.912L107.104 135.296H120.416C124.544 135.264 127.904 131.936 127.936 127.776V127.584C127.904 123.456 124.544 120.096 120.416 120.064H113.312L127.968 83.5522L167.904 182.88C168.64 184.416 169.568 185.76 170.912 186.688C172.16 187.616 173.696 188.096 175.232 188.128C177.6 188.128 179.456 187.424 180.8 185.984C182.144 184.544 182.848 182.688 182.848 180.32C182.88 179.36 182.72 178.368 182.336 177.472Z" fill="white"/>
</g>
</g>
<defs>
<linearGradient id="paint0_linear_1253_704" x1="220.578" y1="50.1131" x2="35.8275" y2="205.561" gradientUnits="userSpaceOnUse">
<stop stop-color="#B6509E"/>
<stop offset="1" stop-color="#2EBAC6"/>
</linearGradient>
<clipPath id="clip0_1253_704">
<rect width="256" height="256" fill="white"/>
</clipPath>
</defs>
</svg>
