<svg width="256" height="256" viewBox="0 0 256 256" fill="none" xmlns="http://www.w3.org/2000/svg">
<g clip-path="url(#clip0_2676_8)">
<path d="M256 128.067C256 57.2472 198.753 0 128.067 0C57.3816 0 0 57.2472 0 128.067C0 198.887 57.2472 256.134 128.067 256.134C198.887 256.134 256 198.753 256 128.067Z" fill="#9391F7"/>
<path d="M104.147 134.249C115.166 132.502 122.557 122.154 120.81 111.135C119.063 100.115 108.716 92.7244 97.6964 94.4713C86.677 96.2183 79.2859 106.566 81.0329 117.585C82.9142 128.605 93.2617 135.996 104.147 134.249ZM156.825 134.249C167.844 132.502 175.235 122.154 173.489 111.135C171.742 100.115 161.394 92.7244 150.375 94.4713C139.355 96.2183 131.964 106.566 133.711 117.585C135.458 128.605 145.806 135.996 156.825 134.249Z" fill="white"/>
<path d="M127.261 31.3115C72.5672 31.3115 28.2207 76.4643 28.2207 132.099H53.4847C53.4847 90.3057 86.2742 56.5756 127.127 56.5756C168.114 56.5756 200.769 90.4401 200.769 132.099H226.033C226.302 76.4643 181.955 31.3115 127.261 31.3115Z" fill="white"/>
</g>
<defs>
<clipPath id="clip0_2676_8">
<rect width="256" height="256" fill="white"/>
</clipPath>
</defs>
</svg>
