<svg width="256" height="256" viewBox="0 0 256 256" fill="none" xmlns="http://www.w3.org/2000/svg">
<path d="M250.044 128.337C250.044 195.975 195.212 250.805 127.574 250.805C59.9365 250.805 5.10498 195.975 5.10498 128.337C5.10498 60.6986 59.9365 5.86719 127.574 5.86719C195.212 5.86719 250.044 60.6986 250.044 128.337Z" fill="url(#paint0_linear_1350_14)"/>
<path d="M250.044 128.337C250.044 195.975 195.212 250.805 127.574 250.805C59.9365 250.805 5.10498 195.975 5.10498 128.337C5.10498 60.6986 59.9365 5.86719 127.574 5.86719C195.212 5.86719 250.044 60.6986 250.044 128.337Z" stroke="url(#paint1_linear_1350_14)" stroke-width="0.956393"/>
<path d="M250.044 128.337C250.044 195.975 195.212 250.805 127.574 250.805C59.9365 250.805 5.10498 195.975 5.10498 128.337C5.10498 60.6986 59.9365 5.86719 127.574 5.86719C195.212 5.86719 250.044 60.6986 250.044 128.337Z" stroke="url(#paint2_linear_1350_14)" stroke-opacity="0.2" stroke-width="0.956393"/>
<path d="M65.052 102.057C64.6817 103.271 64.1695 105.185 64.1695 105.185C64.1695 105.201 64.1616 105.225 64.1538 105.24C62.759 110.386 62.0183 115.634 62.0183 120.85C62.0183 121.22 62.0183 121.583 62.0183 121.945C62.0972 128.328 61.3091 134.671 59.883 140.88L59.2448 143.425C55.9746 142.149 52.6258 139.722 49.4266 135.672C40.5542 124.427 43.509 106.391 54.4539 102.144C58.7404 100.481 62.2942 100.907 65.0442 102.049L65.052 102.057Z" fill="white"/>
<path d="M205.73 135.678C202.555 139.697 199.23 142.124 195.983 143.4L195.361 140.879C193.943 134.662 193.154 128.327 193.226 121.944C193.226 121.582 193.226 121.219 193.226 120.849C193.226 115.609 192.485 110.337 191.075 105.176L190.121 102.048C192.863 100.913 196.417 100.496 200.696 102.15C211.641 106.397 214.595 124.434 205.722 135.678H205.73Z" fill="white"/>
<path d="M188.046 139.374C186.777 133.826 186.076 128.177 186.139 122.48C186.139 122.157 186.139 121.834 186.139 121.503C186.139 116.83 185.476 112.126 184.217 107.524L183.097 103.868C182.412 101.851 181.615 99.8652 180.725 97.911C180.071 96.4847 179.37 95.0823 178.605 93.6955C171.86 81.3637 161.121 70.8523 148.584 65.0686C146.74 64.2176 142.635 54.7936 142.635 54.7936L132.975 60.5931C132.589 60.5457 132.202 60.5064 131.808 60.4748C131.092 60.4118 130.39 60.3646 129.665 60.3329L126.427 52.54C114.521 56.598 107.492 64.6196 105.191 65.7543C93.2771 71.6561 83.0886 81.8366 76.6037 93.6955C75.8473 95.0823 75.1382 96.4847 74.484 97.911C73.5858 99.8652 72.79 101.859 72.1045 103.876C71.9862 103.805 70.9934 107.532 70.9934 107.532C70.9934 107.548 70.9856 107.564 70.9776 107.587C69.7326 112.173 69.0708 116.862 69.0708 121.511C69.0708 121.841 69.0708 122.165 69.0708 122.488C69.1417 128.185 68.4326 133.834 67.1639 139.382L66.1001 143.668C66.0529 143.873 66.0056 144.07 65.9662 144.275C65.328 147.182 64.9971 150.161 64.9971 153.21C64.9971 174.052 80.3703 191.97 102.394 199.859C107.413 201.662 112.771 202.938 118.382 203.608C121.171 203.94 124.016 204.129 126.915 204.152C127.136 204.152 127.364 204.152 127.593 204.152C162.153 204.152 190.173 181.341 190.173 153.202C190.173 150.153 189.85 147.167 189.211 144.267C189.165 144.062 189.125 143.865 189.078 143.668L188.014 139.374H188.046Z" fill="white"/>
<defs>
<linearGradient id="paint0_linear_1350_14" x1="-1956.46" y1="-508.274" x2="450.93" y2="-1345.68" gradientUnits="userSpaceOnUse">
<stop offset="0.639638" stop-color="#6560C5"/>
</linearGradient>
<linearGradient id="paint1_linear_1350_14" x1="127.574" y1="5.10682" x2="127.574" y2="251.567" gradientUnits="userSpaceOnUse">
<stop stop-color="white" stop-opacity="0.17"/>
<stop offset="1" stop-color="white" stop-opacity="0"/>
</linearGradient>
<linearGradient id="paint2_linear_1350_14" x1="184.619" y1="243.338" x2="91.9342" y2="16.776" gradientUnits="userSpaceOnUse">
<stop/>
<stop offset="1" stop-opacity="0"/>
</linearGradient>
</defs>
</svg>
