<svg width="161" height="161" viewBox="0 0 161 161" fill="none" xmlns="http://www.w3.org/2000/svg">
<path d="M157.254 80.7117C157.254 123.25 122.77 157.733 80.2324 157.733C37.6945 157.733 3.21062 123.25 3.21062 80.7117C3.21062 38.1737 37.6945 3.68987 80.2324 3.68987C122.77 3.68987 157.254 38.1737 157.254 80.7117Z" fill="url(#paint0_linear_1354_4194)"/>
<path d="M157.254 80.7117C157.254 123.25 122.77 157.733 80.2324 157.733C37.6945 157.733 3.21062 123.25 3.21062 80.7117C3.21062 38.1737 37.6945 3.68987 80.2324 3.68987C122.77 3.68987 157.254 38.1737 157.254 80.7117Z" stroke="url(#paint1_linear_1354_4194)" stroke-width="0.956393"/>
<path d="M157.254 80.7117C157.254 123.25 122.77 157.733 80.2324 157.733C37.6945 157.733 3.21062 123.25 3.21062 80.7117C3.21062 38.1737 37.6945 3.68987 80.2324 3.68987C122.77 3.68987 157.254 38.1737 157.254 80.7117Z" stroke="url(#paint2_linear_1354_4194)" stroke-opacity="0.2" stroke-width="0.956393"/>
<path d="M40.9116 64.1845C40.6787 64.9476 40.3566 66.1518 40.3566 66.1518C40.3566 66.1617 40.3516 66.1766 40.3467 66.1865C39.4695 69.4225 39.0037 72.7229 39.0037 76.0035C39.0037 76.2364 39.0037 76.4644 39.0037 76.6923C39.0533 80.7063 38.5577 84.6956 37.6608 88.6005L37.2594 90.2012C35.2028 89.3984 33.0967 87.872 31.0847 85.3249C25.5048 78.2533 27.3631 66.91 34.2464 64.239C36.9422 63.1934 39.1772 63.461 40.9067 64.1795L40.9116 64.1845Z" fill="white"/>
<path d="M129.385 85.3291C127.388 87.8564 125.297 89.3827 123.255 90.1855L122.864 88.5998C121.972 84.6898 121.476 80.7055 121.521 76.6915C121.521 76.4636 121.521 76.2356 121.521 76.0027C121.521 72.7073 121.055 69.392 120.168 66.1461L119.568 64.1787C121.293 63.4651 123.528 63.2025 126.219 64.2432C133.102 66.9142 134.96 78.2575 129.38 85.3291H129.385Z" fill="white"/>
<path d="M118.263 87.6527C117.465 84.164 117.024 80.6109 117.064 77.028C117.064 76.8248 117.064 76.6217 117.064 76.4135C117.064 73.4749 116.647 70.5164 115.855 67.6224L115.151 65.323C114.72 64.0544 114.219 62.8056 113.659 61.5766C113.248 60.6796 112.807 59.7976 112.326 58.9254C108.084 51.1699 101.33 44.5592 93.4455 40.9218C92.2859 40.3866 89.7041 34.4598 89.7041 34.4598L83.6286 38.1071C83.3858 38.0773 83.1429 38.0526 82.8951 38.0327C82.4442 37.9931 82.0031 37.9634 81.5472 37.9435L79.5105 33.0425C72.0226 35.5946 67.6023 40.6394 66.1553 41.353C58.6625 45.0647 52.2549 51.4673 48.1765 58.9254C47.7008 59.7976 47.2548 60.6796 46.8434 61.5766C46.2785 62.8056 45.778 64.0593 45.3469 65.328C45.2725 65.2834 44.6481 67.6273 44.6481 67.6273C44.6481 67.6373 44.6432 67.6472 44.6382 67.662C43.8552 70.5462 43.439 73.4947 43.439 76.4185C43.439 76.6266 43.439 76.8298 43.439 77.033C43.4836 80.6158 43.0376 84.169 42.2397 87.6577L41.5707 90.3535C41.541 90.4824 41.5113 90.6063 41.4865 90.7351C41.0851 92.5637 40.877 94.4369 40.877 96.3547C40.877 109.462 50.5453 120.731 64.396 125.692C67.5527 126.826 70.9225 127.629 74.4509 128.05C76.2051 128.259 77.9941 128.378 79.8177 128.392C79.9565 128.392 80.1002 128.392 80.2439 128.392C101.979 128.392 119.601 114.046 119.601 96.3497C119.601 94.4319 119.398 92.5538 118.996 90.7302C118.967 90.6013 118.942 90.4774 118.912 90.3535L118.243 87.6527H118.263Z" fill="white"/>
<defs>
<linearGradient id="paint0_linear_1354_4194" x1="-1230.43" y1="-319.657" x2="283.593" y2="-846.308" gradientUnits="userSpaceOnUse">
<stop stop-color="#1B1A1D"/>
<stop offset="0.300869" stop-color="#3E3B7A"/>
<stop offset="0.639638" stop-color="#6560C5"/>
<stop offset="1" stop-color="#E07753"/>
</linearGradient>
<linearGradient id="paint1_linear_1354_4194" x1="80.2324" y1="3.21167" x2="80.2324" y2="158.212" gradientUnits="userSpaceOnUse">
<stop stop-color="white" stop-opacity="0.17"/>
<stop offset="1" stop-color="white" stop-opacity="0"/>
</linearGradient>
<linearGradient id="paint2_linear_1354_4194" x1="116.108" y1="153.037" x2="57.8181" y2="10.5505" gradientUnits="userSpaceOnUse">
<stop/>
<stop offset="1" stop-opacity="0"/>
</linearGradient>
</defs>
</svg>
