<svg width="256" height="256" viewBox="0 0 256 256" fill="none" xmlns="http://www.w3.org/2000/svg">
<mask id="mask0_1253_804" style="mask-type:luminance" maskUnits="userSpaceOnUse" x="1" y="1" width="255" height="255">
<path d="M256 1H1V256H256V1Z" fill="white"/>
</mask>
<g mask="url(#mask0_1253_804)">
<path d="M128.022 255.072C198.188 255.072 255.068 198.191 255.068 128.025C255.068 57.8601 198.188 0.979492 128.022 0.979492C57.8561 0.979492 0.975586 57.8601 0.975586 128.025C0.975586 198.191 57.8561 255.072 128.022 255.072Z" fill="#5B8FFF"/>
<path d="M197.325 110.529L127.93 39.668L58.5293 110.529L93.2263 145.957L127.93 110.529L162.628 145.957L197.325 110.529Z" fill="white"/>
<path d="M125.134 209.968C121.684 209.968 118.716 209.346 116.229 208.102C113.783 206.819 111.898 205.014 110.574 202.688C109.29 200.321 108.649 197.534 108.649 194.325V167.01H116.59V194.565C116.59 197.132 117.312 199.158 118.756 200.642C120.24 202.126 122.366 202.868 125.134 202.868C127.901 202.868 130.007 202.126 131.451 200.642C132.935 199.158 133.677 197.132 133.677 194.565V167.01H141.619V194.325C141.619 197.534 140.957 200.321 139.634 202.688C138.35 205.014 136.465 206.819 133.978 208.102C131.531 209.346 128.583 209.968 125.134 209.968Z" fill="#1F2333"/>
<path d="M159.776 209.125V167.01H178.066C180.714 167.01 183.02 167.471 184.985 168.393C186.951 169.316 188.475 170.62 189.558 172.304C190.641 173.989 191.182 175.974 191.182 178.261V178.983C191.182 181.51 190.581 183.555 189.377 185.119C188.174 186.684 186.69 187.827 184.925 188.549V189.632C186.53 189.712 187.773 190.274 188.655 191.316C189.538 192.319 189.979 193.663 189.979 195.347V209.125H182.037V196.491C182.037 195.528 181.776 194.746 181.255 194.144C180.774 193.542 179.951 193.242 178.788 193.242H167.718V209.125H159.776ZM167.718 186.022H177.224C179.109 186.022 180.573 185.521 181.616 184.518C182.699 183.475 183.241 182.111 183.241 180.427V179.825C183.241 178.14 182.719 176.796 181.676 175.794C180.633 174.751 179.149 174.23 177.224 174.23H167.718V186.022Z" fill="#1F2333"/>
<path fill-rule="evenodd" clip-rule="evenodd" d="M64.1199 210.116V166.018H93.177V175.221H74.0445V183.285H91.4925V192.488H74.0445V200.914H93.538V210.116H64.1199ZM115.777 208.985L115.768 208.98C113.159 207.611 111.132 205.675 109.712 203.178L109.707 203.169L109.702 203.16C108.326 200.623 107.657 197.667 107.657 194.324V166.018H117.581V194.565C117.581 196.936 118.242 198.689 119.462 199.946C120.706 201.187 122.545 201.876 125.133 201.876C127.727 201.876 129.539 201.185 130.74 199.95L130.75 199.941C132.008 198.682 132.685 196.932 132.685 194.565V166.018H142.61V194.324C142.61 197.67 141.919 200.63 140.5 203.168C139.117 205.675 137.083 207.615 134.432 208.983L134.427 208.986C131.81 210.316 128.7 210.959 125.133 210.959C121.566 210.959 118.439 210.316 115.786 208.989L115.777 208.985ZM139.634 202.687C140.957 200.321 141.619 197.533 141.619 194.324V167.009H133.677V194.565C133.677 197.132 132.935 199.158 131.451 200.642C130.007 202.126 127.901 202.868 125.134 202.868C122.366 202.868 120.24 202.126 118.756 200.642C117.312 199.158 116.59 197.132 116.59 194.565V167.009H108.649V194.324C108.649 197.533 109.29 200.321 110.574 202.687C111.898 205.014 113.783 206.819 116.229 208.102C118.716 209.345 121.684 209.967 125.134 209.967C128.583 209.967 131.531 209.345 133.978 208.102C136.465 206.819 138.35 205.014 139.634 202.687ZM158.784 210.116V166.018H178.066C180.828 166.018 183.283 166.499 185.406 167.496C187.526 168.491 189.199 169.913 190.391 171.768C191.591 173.634 192.173 175.812 192.173 178.26V178.982C192.173 181.666 191.533 183.943 190.163 185.724C189.144 187.048 187.932 188.102 186.531 188.877C187.67 189.181 188.643 189.77 189.406 190.668C190.481 191.895 190.97 193.49 190.97 195.347V210.116H181.045V196.49C181.045 195.714 180.84 195.179 180.505 194.793L180.493 194.779L180.481 194.763C180.267 194.497 179.807 194.233 178.788 194.233H168.709V210.116H158.784ZM167.718 193.241H178.788C179.952 193.241 180.774 193.542 181.255 194.144C181.776 194.746 182.037 195.528 182.037 196.49V209.125H189.979V195.347C189.979 193.663 189.538 192.319 188.655 191.316C187.773 190.273 186.53 189.712 184.925 189.632V188.549C186.69 187.827 188.174 186.683 189.377 185.119C190.581 183.555 191.182 181.509 191.182 178.982V178.26C191.182 175.974 190.641 173.989 189.558 172.304C188.475 170.619 186.951 169.316 184.985 168.393C183.02 167.471 180.714 167.009 178.066 167.009H159.776V209.125H167.718V193.241ZM180.982 176.501L180.975 176.495C180.17 175.689 178.97 175.221 177.224 175.221H168.709V185.03H177.224C178.933 185.03 180.121 184.579 180.928 183.803C181.793 182.97 182.249 181.877 182.249 180.426V179.825C182.249 178.361 181.805 177.293 180.989 176.508L180.982 176.501ZM181.616 184.517C180.573 185.52 179.109 186.022 177.224 186.022H167.718V174.229H177.224C179.149 174.229 180.633 174.751 181.676 175.793C182.719 176.796 183.241 178.14 183.241 179.825V180.426C183.241 182.111 182.699 183.475 181.616 184.517Z" fill="#1F2333"/>
</g>
</svg>
