<svg width="256" height="256" viewBox="0 0 256 256" fill="none" xmlns="http://www.w3.org/2000/svg">
<mask id="mask0_741_46" style="mask-type:luminance" maskUnits="userSpaceOnUse" x="1" y="1" width="255" height="255">
<path d="M256 1H1V256H256V1Z" fill="white"/>
</mask>
<g mask="url(#mask0_741_46)">
<path d="M128.022 255.072C198.188 255.072 255.068 198.191 255.068 128.025C255.068 57.8596 198.188 0.979004 128.022 0.979004C57.8562 0.979004 0.975647 57.8596 0.975647 128.025C0.975647 198.191 57.8562 255.072 128.022 255.072Z" fill="url(#paint0_linear_741_46)"/>
<path d="M197.325 110.529L127.93 39.6675L58.5294 110.529L93.2264 145.957L127.93 110.529L162.628 145.957L197.325 110.529Z" fill="white"/>
<path d="M125.134 209.967C121.684 209.967 118.716 209.345 116.229 208.101C113.783 206.818 111.898 205.013 110.574 202.687C109.29 200.32 108.649 197.533 108.649 194.324V167.009H116.59V194.564C116.59 197.131 117.312 199.157 118.756 200.641C120.24 202.125 122.366 202.867 125.134 202.867C127.901 202.867 130.007 202.125 131.451 200.641C132.935 199.157 133.677 197.131 133.677 194.564V167.009H141.619V194.324C141.619 197.533 140.957 200.32 139.634 202.687C138.35 205.013 136.465 206.818 133.978 208.101C131.531 209.345 128.583 209.967 125.134 209.967Z" fill="#1F2333"/>
<path d="M159.776 209.124V167.009H178.066C180.714 167.009 183.02 167.47 184.985 168.392C186.951 169.315 188.475 170.619 189.558 172.303C190.641 173.988 191.182 175.973 191.182 178.26V178.982C191.182 181.509 190.581 183.554 189.377 185.118C188.174 186.683 186.69 187.826 184.925 188.548V189.631C186.53 189.711 187.773 190.273 188.655 191.315C189.538 192.318 189.979 193.662 189.979 195.346V209.124H182.037V196.49C182.037 195.527 181.776 194.745 181.255 194.143C180.774 193.541 179.951 193.241 178.788 193.241H167.718V209.124H159.776ZM167.718 186.021H177.224C179.109 186.021 180.573 185.52 181.616 184.517C182.699 183.474 183.241 182.11 183.241 180.426V179.824C183.241 178.139 182.719 176.795 181.676 175.793C180.633 174.75 179.149 174.229 177.224 174.229H167.718V186.021Z" fill="#1F2333"/>
<path fill-rule="evenodd" clip-rule="evenodd" d="M64.1199 210.115V166.017H93.177V175.22H74.0445V183.284H91.4925V192.487H74.0445V200.913H93.538V210.115H64.1199ZM115.777 208.984L115.768 208.979C113.159 207.61 111.132 205.674 109.712 203.177L109.707 203.168L109.702 203.159C108.326 200.622 107.657 197.666 107.657 194.323V166.017H117.581V194.564C117.581 196.935 118.242 198.688 119.462 199.945C120.706 201.186 122.545 201.875 125.133 201.875C127.727 201.875 129.539 201.184 130.74 199.949L130.75 199.94C132.008 198.681 132.685 196.931 132.685 194.564V166.017H142.61V194.323C142.61 197.669 141.919 200.629 140.5 203.167C139.117 205.674 137.083 207.614 134.432 208.982L134.427 208.985C131.81 210.315 128.7 210.958 125.133 210.958C121.566 210.958 118.439 210.315 115.786 208.988L115.777 208.984ZM139.634 202.686C140.957 200.32 141.619 197.532 141.619 194.323V167.008H133.677V194.564C133.677 197.131 132.935 199.157 131.451 200.641C130.007 202.125 127.901 202.867 125.134 202.867C122.366 202.867 120.24 202.125 118.756 200.641C117.312 199.157 116.59 197.131 116.59 194.564V167.008H108.649V194.323C108.649 197.532 109.29 200.32 110.574 202.686C111.898 205.013 113.783 206.818 116.229 208.101C118.716 209.344 121.684 209.966 125.134 209.966C128.583 209.966 131.531 209.344 133.978 208.101C136.465 206.818 138.35 205.013 139.634 202.686ZM158.784 210.115V166.017H178.066C180.828 166.017 183.283 166.498 185.406 167.495C187.526 168.49 189.199 169.912 190.391 171.767C191.591 173.633 192.173 175.811 192.173 178.259V178.981C192.173 181.665 191.533 183.942 190.163 185.723C189.144 187.047 187.932 188.101 186.531 188.876C187.67 189.18 188.643 189.769 189.406 190.667C190.481 191.894 190.97 193.489 190.97 195.346V210.115H181.045V196.489C181.045 195.713 180.84 195.178 180.505 194.792L180.493 194.778L180.481 194.762C180.267 194.496 179.807 194.232 178.788 194.232H168.709V210.115H158.784ZM167.718 193.24H178.788C179.952 193.24 180.774 193.541 181.255 194.143C181.776 194.745 182.037 195.527 182.037 196.489V209.124H189.979V195.346C189.979 193.662 189.538 192.318 188.655 191.315C187.773 190.272 186.53 189.711 184.925 189.631V188.548C186.69 187.826 188.174 186.682 189.377 185.118C190.581 183.554 191.182 181.508 191.182 178.981V178.259C191.182 175.973 190.641 173.988 189.558 172.303C188.475 170.618 186.951 169.315 184.985 168.392C183.02 167.47 180.714 167.008 178.066 167.008H159.776V209.124H167.718V193.24ZM180.982 176.5L180.975 176.494C180.17 175.688 178.97 175.22 177.224 175.22H168.709V185.029H177.224C178.933 185.029 180.121 184.578 180.928 183.802C181.793 182.969 182.249 181.876 182.249 180.425V179.824C182.249 178.36 181.805 177.292 180.989 176.507L180.982 176.5ZM181.616 184.516C180.573 185.519 179.109 186.021 177.224 186.021H167.718V174.228H177.224C179.149 174.228 180.633 174.75 181.676 175.792C182.719 176.795 183.241 178.139 183.241 179.824V180.425C183.241 182.11 182.699 183.474 181.616 184.516Z" fill="#1F2333"/>
</g>
<defs>
<linearGradient id="paint0_linear_741_46" x1="42.1757" y1="205.017" x2="184.087" y2="78.8015" gradientUnits="userSpaceOnUse">
<stop offset="0.0729167" stop-color="#AAC4FD"/>
<stop offset="1" stop-color="#76A0FC"/>
</linearGradient>
</defs>
</svg>
