<svg width="188" height="188" viewBox="0 0 188 188" fill="none" xmlns="http://www.w3.org/2000/svg">
<g clip-path="url(#clip0_1546_34)">
<mask id="mask0_1546_34" style="mask-type:luminance" maskUnits="userSpaceOnUse" x="0" y="0" width="188" height="188">
<path d="M188 0H0V188H188V0Z" fill="white"/>
</mask>
<g mask="url(#mask0_1546_34)">
<path d="M94 188C145.915 188 188 145.915 188 94C188 42.0852 145.915 0 94 0C42.0852 0 0 42.0852 0 94C0 145.915 42.0852 188 94 188Z" fill="#4B35B5"/>
<mask id="mask1_1546_34" style="mask-type:luminance" maskUnits="userSpaceOnUse" x="23" y="17" width="142" height="153">
<path d="M164.5 17.625H23.5V169.08H164.5V17.625Z" fill="white"/>
</mask>
<g mask="url(#mask1_1546_34)">
<path d="M94 168.865C132.922 168.865 164.5 137.314 164.5 98.3655C164.5 59.416 132.949 27.8652 94 27.8652C55.0507 27.8652 23.5 59.443 23.5 98.3655C23.5 137.288 55.0507 168.865 94 168.865Z" fill="url(#paint0_linear_1546_34)"/>
<path d="M29.6916 101.53C32.5599 101.53 34.8652 99.1979 34.8652 96.3561C34.8652 93.488 32.533 91.1826 29.6916 91.1826C26.8501 91.1826 24.4912 93.488 24.4912 96.3561C24.4912 99.2243 26.8234 101.53 29.6916 101.53Z" fill="#19A9FC"/>
<path d="M29.6918 101.289C32.426 101.289 34.6241 99.0637 34.6241 96.3565C34.6241 93.6223 32.3993 91.4238 29.6918 91.4238C26.9844 91.4238 24.7595 93.6487 24.7595 96.3565C24.7327 99.0907 26.9576 101.289 29.6918 101.289Z" fill="white"/>
<path d="M29.6915 100.401C31.9432 100.401 33.766 98.5781 33.766 96.3532C33.766 94.1013 31.9432 92.2783 29.6915 92.2783C27.4398 92.2783 25.6169 94.1013 25.6169 96.3532C25.6169 98.5781 27.4398 100.401 29.6915 100.401Z" fill="#E1F6FE"/>
<path d="M29.6917 99.8387C31.6217 99.8387 33.1764 98.2841 33.1764 96.3542C33.1764 94.4243 31.6217 92.8691 29.6917 92.8691C27.7616 92.8691 26.2069 94.4243 26.2069 96.3542C26.1801 98.2841 27.7616 99.8387 29.6917 99.8387Z" fill="white"/>
<path d="M29.6926 99.1698C31.2473 99.1698 32.5072 97.9102 32.5072 96.3557C32.5072 94.8006 31.2473 93.541 29.6926 93.541C28.1378 93.541 26.8779 94.8006 26.8779 96.3557C26.8779 97.9102 28.1378 99.1698 29.6926 99.1698Z" fill="#2BF3FD"/>
<path d="M29.6929 98.6889C30.9796 98.6889 32.0518 97.6432 32.0518 96.3295C32.0518 95.0429 31.0064 93.9707 29.6929 93.9707C28.3794 93.9707 27.334 95.0165 27.334 96.3295C27.334 97.6432 28.3794 98.6889 29.6929 98.6889Z" fill="#37FCFF"/>
<path d="M29.6926 98.0677C30.4163 98.0677 31.0061 97.2905 31.0061 96.3522C31.0061 95.3875 30.4163 94.6367 29.6926 94.6367C28.9688 94.6367 28.3791 95.414 28.3791 96.3522C28.3523 97.2905 28.942 98.0677 29.6926 98.0677Z" fill="#0BB0E8"/>
<path d="M158.281 101.53C161.149 101.53 163.454 99.1979 163.454 96.3561C163.454 93.488 161.122 91.1826 158.281 91.1826C155.439 91.1826 153.107 93.515 153.107 96.3561C153.107 99.2243 155.439 101.53 158.281 101.53Z" fill="#19A9FC"/>
<path d="M158.281 101.289C161.014 101.289 163.213 99.0637 163.213 96.3565C163.213 93.6223 160.988 91.4238 158.281 91.4238C155.547 91.4238 153.348 93.6487 153.348 96.3565C153.348 99.0907 155.547 101.289 158.281 101.289Z" fill="white"/>
<path d="M158.281 100.401C160.533 100.401 162.356 98.5781 162.356 96.3532C162.356 94.1013 160.533 92.2783 158.281 92.2783C156.029 92.2783 154.233 94.1013 154.233 96.3532C154.233 98.5781 156.056 100.401 158.281 100.401Z" fill="#E1F6FE"/>
<path d="M158.281 99.8387C160.212 99.8387 161.766 98.2841 161.766 96.3542C161.766 94.4243 160.212 92.8691 158.281 92.8691C156.351 92.8691 154.797 94.4243 154.797 96.3542C154.797 98.2841 156.351 99.8387 158.281 99.8387Z" fill="white"/>
<path d="M158.281 99.1698C159.836 99.1698 161.096 97.9102 161.096 96.3557C161.096 94.8006 159.836 93.541 158.281 93.541C156.727 93.541 155.467 94.8006 155.467 96.3557C155.467 97.9102 156.727 99.1698 158.281 99.1698Z" fill="#2BF3FD"/>
<path d="M158.282 98.6889C159.569 98.6889 160.641 97.6432 160.641 96.3295C160.641 95.0429 159.595 93.9707 158.282 93.9707C156.995 93.9707 155.923 95.0165 155.923 96.3295C155.95 97.6432 156.995 98.6889 158.282 98.6889Z" fill="#37FCFF"/>
<path d="M158.28 98.0677C159.004 98.0677 159.594 97.2905 159.594 96.3522C159.594 95.3875 159.004 94.6367 158.28 94.6367C157.557 94.6367 156.967 95.414 156.967 96.3522C156.967 97.2905 157.557 98.0677 158.28 98.0677Z" fill="#0BB0E8"/>
<path d="M34.0623 100.94C33.9818 100.94 33.8746 100.914 33.7942 100.861C33.5261 100.726 33.4457 100.378 33.5797 100.137L35.2685 97.134V91.0493L33.4725 88.5829H26.8782L25.5647 91.6121C25.4575 91.88 25.1358 92.0139 24.8678 91.88C24.5997 91.7731 24.4657 91.4511 24.5997 91.1832L26.1812 87.5107H34.0355L36.3675 90.7009V97.4025L34.5448 100.673C34.4376 100.86 34.2499 100.94 34.0623 100.94Z" fill="white"/>
<path d="M41.54 92.8173H35.8034C35.5086 92.8173 35.2673 92.5764 35.2673 92.2815C35.2673 91.9866 35.5086 91.7451 35.8034 91.7451H41.54C41.8348 91.7451 42.076 91.9866 42.076 92.2815C42.076 92.5764 41.8348 92.8173 41.54 92.8173Z" fill="white"/>
<path d="M28.8077 85.684H27.8159V80.135C27.8159 79.8401 28.0571 79.5986 28.352 79.5986C28.6469 79.5986 28.8882 79.8401 28.8882 80.135V84.6118C29.1562 84.6382 29.3439 84.8797 29.3439 85.1476C29.3439 85.4425 29.1294 85.684 28.8077 85.684Z" fill="white"/>
<path d="M33.1775 86.1116H30.7649V73.1643C30.7649 72.8694 31.0062 72.6279 31.301 72.6279C31.5959 72.6279 31.8371 72.8694 31.8371 73.1643V85.0395H33.1775C33.4723 85.0395 33.7136 85.2803 33.7136 85.5753C33.7136 85.8702 33.4723 86.1116 33.1775 86.1116Z" fill="white"/>
<path d="M32.5073 83.5683H31.301C31.0062 83.5683 30.7649 83.3268 30.7649 83.0319C30.7649 82.7376 31.0062 82.4961 31.301 82.4961H32.5073C32.8022 82.4961 33.0434 82.7376 33.0434 83.0319C33.0434 83.3268 32.8022 83.5683 32.5073 83.5683Z" fill="white"/>
<path d="M32.5064 75.1246C32.3724 75.1246 32.2384 75.0711 32.1311 74.9642L31.1661 73.9989H30.2011L29.4773 74.7227C29.2629 74.9372 28.9412 74.9372 28.7267 74.7227C28.5123 74.5083 28.5123 74.1864 28.7267 73.9719L29.7722 72.9268H31.6218L32.8817 74.1864C33.0962 74.4008 33.0962 74.7227 32.8817 74.9372C32.7744 75.0711 32.6404 75.1246 32.5064 75.1246Z" fill="white"/>
<path d="M27.7353 107.291C27.4404 107.291 27.1992 107.05 27.1992 106.756V103.807C27.1992 103.512 27.4404 103.271 27.7353 103.271C28.0302 103.271 28.2715 103.512 28.2715 103.807V106.756C28.2715 107.05 28.0302 107.291 27.7353 107.291Z" fill="white"/>
<path d="M29.0764 107.294C28.7815 107.294 28.5403 107.052 28.5403 106.757V104.157C28.5403 103.863 28.7815 103.621 29.0764 103.621C29.3713 103.621 29.6125 103.863 29.6125 104.157V106.757C29.6125 107.052 29.3713 107.294 29.0764 107.294Z" fill="white"/>
<path d="M29.9602 112.358H25.9929V103.807C25.9929 103.512 26.2341 103.271 26.529 103.271C26.8239 103.271 27.0652 103.512 27.0652 103.807V111.286H29.9602C30.2551 111.286 30.4963 111.527 30.4963 111.822C30.4963 112.116 30.2551 112.358 29.9602 112.358Z" fill="white"/>
<path d="M40.039 142.195C39.8514 142.195 39.6906 142.115 39.5833 141.954L31.4879 129.408V122.922L29.4238 119.115V116.997C29.4238 116.702 29.6651 116.461 29.96 116.461C30.2548 116.461 30.4961 116.702 30.4961 116.997V118.847L32.5601 122.653V129.087L40.4679 141.364C40.6288 141.605 40.5484 141.954 40.3071 142.115C40.2267 142.168 40.1463 142.195 40.039 142.195Z" fill="white"/>
<path d="M33.2844 131.847C33.0967 131.847 32.9091 131.739 32.8019 131.552C32.6678 131.283 32.7751 130.962 33.0431 130.828L38.9673 127.799C39.2353 127.665 39.557 127.772 39.691 128.04C39.8251 128.308 39.7178 128.63 39.4498 128.764L33.5256 131.793C33.4452 131.847 33.3648 131.847 33.2844 131.847Z" fill="white"/>
<path d="M34.3832 133.372C34.1956 133.372 34.0079 133.265 33.9007 133.077C33.7667 132.809 33.8739 132.488 34.1419 132.353L40.0661 129.325C40.3342 129.19 40.6558 129.298 40.7899 129.565C40.9239 129.833 40.8167 130.155 40.5486 130.289L34.6244 133.318C34.5441 133.345 34.4636 133.372 34.3832 133.372Z" fill="white"/>
<path d="M35.3757 134.875C35.188 134.875 35.0004 134.768 34.8931 134.58C34.7591 134.312 34.8663 133.99 35.1344 133.856L41.0585 130.827C41.3266 130.693 41.6483 130.8 41.7823 131.069C41.9163 131.337 41.8091 131.659 41.5411 131.792L35.6169 134.822C35.5633 134.875 35.4561 134.875 35.3757 134.875Z" fill="white"/>
<path d="M36.2333 136.401C36.0457 136.401 35.858 136.294 35.7508 136.107C35.6168 135.838 35.724 135.517 35.9921 135.383L41.8894 132.354C42.1575 132.22 42.4791 132.327 42.6132 132.594C42.7472 132.863 42.6399 133.184 42.3719 133.318L36.4478 136.347C36.3942 136.374 36.3137 136.401 36.2333 136.401Z" fill="white"/>
<path d="M40.817 142.917C40.6829 142.917 40.5221 142.864 40.4149 142.73C40.2273 142.516 40.2273 142.167 40.4417 141.979L46.7143 136.243C46.9287 136.055 47.2773 136.055 47.4649 136.27C47.6525 136.484 47.6525 136.833 47.4381 137.02L41.1922 142.783C41.085 142.864 40.951 142.917 40.817 142.917Z" fill="white"/>
<path d="M33.9538 122.303C33.8198 122.303 33.6857 122.249 33.5785 122.142L30.8711 119.435V116.968C30.8711 116.673 31.1123 116.433 31.4072 116.433C31.7021 116.433 31.9433 116.673 31.9433 116.968V118.979L34.3291 121.365C34.5435 121.579 34.5435 121.901 34.3291 122.116C34.2486 122.276 34.1146 122.303 33.9538 122.303Z" fill="white"/>
<path d="M35.8041 122.327C35.5897 122.327 35.3753 122.193 35.2948 121.978L33.4452 117.207C33.338 116.939 33.4721 116.617 33.7401 116.51C34.0082 116.402 34.3298 116.537 34.4371 116.805L36.2867 121.576C36.3939 121.844 36.2599 122.166 35.9918 122.273C35.9382 122.3 35.8846 122.327 35.8041 122.327Z" fill="white"/>
<path d="M34.6247 119.245L31.9977 119.165C31.7028 119.165 31.4616 118.897 31.4884 118.602C31.4884 118.307 31.7564 118.066 32.0513 118.093L34.6515 118.173C34.9463 118.173 35.1876 118.441 35.1608 118.736C35.1608 119.031 34.9195 119.245 34.6247 119.245Z" fill="white"/>
<path d="M38.6719 88.5826H37.2244L35.1335 86.4917H34.0881V75.0989L39.1813 70.0059H41.1381C41.433 70.0059 41.6742 70.2473 41.6742 70.5422C41.6742 70.8372 41.433 71.078 41.1381 71.078H39.637L35.1604 75.5548V85.4465H35.5893L37.6801 87.5369H38.6988C38.9936 87.5369 39.2349 87.7783 39.2349 88.0732C39.2349 88.3682 38.9668 88.5826 38.6719 88.5826Z" fill="white"/>
<path d="M37.6265 79.2002H34.6242C34.3294 79.2002 34.0881 78.9593 34.0881 78.6644C34.0881 78.3695 34.3294 78.128 34.6242 78.128H37.1708L39.3153 75.9837L39.0741 75.7422H37.2512V74.2946C37.2512 74.0003 37.4925 73.7588 37.7873 73.7588C38.0822 73.7588 38.3235 74.0003 38.3235 74.2946V74.67H39.5297L40.8433 75.9837L37.6265 79.2002Z" fill="white"/>
<path d="M37.5729 83.7814C37.4389 83.7814 37.3048 83.7279 37.1976 83.621L36.313 82.7362H34.6242C34.3294 82.7362 34.0881 82.4948 34.0881 82.1999C34.0881 81.9055 34.3294 81.6641 34.6242 81.6641H36.7687L37.975 82.8438C38.1894 83.0582 38.1894 83.3796 37.975 83.594C37.8678 83.7279 37.7337 83.7814 37.5729 83.7814Z" fill="white"/>
<path d="M36.4746 74.0265C36.1797 74.0265 35.9385 73.7851 35.9385 73.4901V69.6837L40.4687 65.1535V62.6608L36.7694 58.9613C36.555 58.7468 36.555 58.4251 36.7694 58.2107C36.9839 57.9962 37.3056 57.9962 37.52 58.2107L41.5409 62.2313V65.6359L37.0107 70.1661V73.5436C37.0107 73.7851 36.7694 74.0265 36.4746 74.0265Z" fill="white"/>
<path d="M36.8761 66.7864H34.9192L33.2305 65.0979L34.678 63.6503C34.8924 63.4359 35.2141 63.4359 35.4285 63.6503C35.643 63.8648 35.643 64.1867 35.4285 64.4012L34.7584 65.0709L35.375 65.6878H36.4472L36.9029 65.2319V63.7308L35.0533 61.8814C34.8388 61.6669 34.8388 61.345 35.0533 61.1306C35.2677 60.9161 35.5894 60.9161 35.8038 61.1306L37.9483 63.302V65.6878L36.8761 66.7864Z" fill="white"/>
<path d="M41.0308 139.969C40.8968 139.969 40.7628 139.915 40.6555 139.808C40.4411 139.594 40.4411 139.272 40.6555 139.057L41.2185 138.495L40.4411 137.717C40.2267 137.503 40.2267 137.181 40.4411 136.966C40.6555 136.752 40.9772 136.752 41.1916 136.966L42.7464 138.521L41.4329 139.835C41.3257 139.915 41.1916 139.969 41.0308 139.969Z" fill="white"/>
<path d="M44.489 137.904L41.8353 135.25L42.5322 134.553L41.7548 133.776C41.5404 133.561 41.5404 133.24 41.7548 133.025C41.9693 132.811 42.291 132.811 42.5054 133.025L44.0333 134.553L43.3364 135.25L44.4623 136.376L45.2932 135.545C45.5077 135.33 45.8294 135.33 46.0438 135.545C46.2582 135.759 46.2582 136.081 46.0438 136.296L44.489 137.904Z" fill="white"/>
<path d="M29.1824 83.6735C29.0484 83.6735 28.9143 83.6195 28.8071 83.5126C28.5926 83.2981 28.5926 82.9762 28.8071 82.7617L29.1556 82.4133V80.135C29.1556 79.8401 29.3968 79.5986 29.6917 79.5986C29.9865 79.5986 30.2278 79.8401 30.2278 80.135V82.8692L29.5844 83.5126C29.4504 83.6195 29.3164 83.6735 29.1824 83.6735Z" fill="white"/>
<path d="M32.6414 103.804H30.2556V101.418H32.6414V103.804ZM31.3011 102.732H31.5423V102.49H31.3011V102.732Z" fill="white"/>
<path d="M153.429 100.94C153.242 100.94 153.054 100.833 152.973 100.673L151.151 97.4025V90.7009L153.483 87.5107H161.337L162.919 91.1832C163.026 91.4511 162.919 91.7731 162.651 91.88C162.383 91.9875 162.061 91.88 161.954 91.6121L160.64 88.5829H154.046L152.25 91.0493V97.134L153.939 100.137C154.073 100.405 153.992 100.726 153.724 100.861C153.617 100.94 153.51 100.94 153.429 100.94Z" fill="white"/>
<path d="M151.686 92.8173H145.95C145.655 92.8173 145.413 92.5764 145.413 92.2815C145.413 91.9866 145.655 91.7451 145.95 91.7451H151.686C151.981 91.7451 152.222 91.9866 152.222 92.2815C152.222 92.5764 151.981 92.8173 151.686 92.8173Z" fill="white"/>
<path d="M159.676 85.684H158.684C158.389 85.684 158.147 85.4425 158.147 85.1476C158.147 84.8797 158.362 84.6652 158.603 84.6118V80.135C158.603 79.8401 158.844 79.5986 159.139 79.5986C159.434 79.5986 159.676 79.8401 159.676 80.135V85.684Z" fill="white"/>
<path d="M156.726 86.1116H154.313C154.018 86.1116 153.777 85.8702 153.777 85.5753C153.777 85.2803 154.018 85.0395 154.313 85.0395H155.653V73.1643C155.653 72.8694 155.895 72.6279 156.19 72.6279C156.484 72.6279 156.726 72.8694 156.726 73.1643V86.1116Z" fill="white"/>
<path d="M156.19 83.5683H154.984C154.689 83.5683 154.448 83.3268 154.448 83.0319C154.448 82.7376 154.689 82.4961 154.984 82.4961H156.19C156.485 82.4961 156.727 82.7376 156.727 83.0319C156.727 83.3268 156.485 83.5683 156.19 83.5683Z" fill="white"/>
<path d="M154.984 75.1265C154.85 75.1265 154.716 75.0724 154.609 74.9655C154.394 74.7511 154.394 74.4291 154.609 74.2147L155.869 72.9551H157.718L158.764 74.0002C158.979 74.2147 158.979 74.5366 158.764 74.7511C158.55 74.9655 158.228 74.9655 158.013 74.7511L157.29 74.0273H156.325L155.387 74.9919C155.279 75.0724 155.118 75.1265 154.984 75.1265Z" fill="white"/>
<path d="M159.755 107.291C159.46 107.291 159.219 107.05 159.219 106.756V103.807C159.219 103.512 159.46 103.271 159.755 103.271C160.05 103.271 160.291 103.512 160.291 103.807V106.756C160.291 107.05 160.05 107.291 159.755 107.291Z" fill="white"/>
<path d="M158.415 107.294C158.12 107.294 157.879 107.052 157.879 106.757V104.157C157.879 103.863 158.12 103.621 158.415 103.621C158.71 103.621 158.952 103.863 158.952 104.157V106.757C158.952 107.052 158.71 107.294 158.415 107.294Z" fill="white"/>
<path d="M161.498 112.358H157.531C157.236 112.358 156.994 112.116 156.994 111.822C156.994 111.527 157.236 111.286 157.531 111.286H160.425V103.807C160.425 103.512 160.667 103.271 160.962 103.271C161.256 103.271 161.498 103.512 161.498 103.807V112.358Z" fill="white"/>
<path d="M147.452 142.195C147.344 142.195 147.264 142.168 147.157 142.115C146.916 141.954 146.835 141.632 146.996 141.364L154.904 129.087V122.653L156.968 118.847V116.997C156.968 116.702 157.209 116.461 157.504 116.461C157.799 116.461 158.04 116.702 158.04 116.997V119.115L155.976 122.922V129.408L155.896 129.543L147.881 141.954C147.8 142.115 147.639 142.195 147.452 142.195Z" fill="white"/>
<path d="M154.233 131.847C154.152 131.847 154.072 131.82 153.992 131.793L148.068 128.764C147.8 128.63 147.692 128.308 147.826 128.04C147.96 127.772 148.282 127.665 148.55 127.799L154.474 130.828C154.742 130.962 154.85 131.283 154.715 131.552C154.608 131.739 154.421 131.847 154.233 131.847Z" fill="white"/>
<path d="M153.134 133.372C153.054 133.372 152.973 133.345 152.893 133.318L146.969 130.289C146.701 130.155 146.594 129.833 146.728 129.565C146.862 129.298 147.184 129.19 147.451 129.325L153.376 132.353C153.644 132.488 153.751 132.809 153.617 133.077C153.51 133.265 153.322 133.372 153.134 133.372Z" fill="white"/>
<path d="M152.116 134.875C152.036 134.875 151.955 134.848 151.875 134.822L145.95 131.792C145.682 131.659 145.575 131.337 145.709 131.069C145.843 130.8 146.165 130.693 146.433 130.827L152.357 133.856C152.625 133.99 152.732 134.312 152.598 134.58C152.491 134.768 152.303 134.875 152.116 134.875Z" fill="white"/>
<path d="M151.258 136.401C151.178 136.401 151.097 136.374 151.017 136.347L145.093 133.318C144.825 133.184 144.718 132.863 144.852 132.594C144.986 132.327 145.307 132.22 145.575 132.354L151.499 135.383C151.768 135.517 151.875 135.838 151.741 136.107C151.633 136.294 151.446 136.401 151.258 136.401Z" fill="white"/>
<path d="M146.674 142.919C146.54 142.919 146.406 142.866 146.326 142.785L140.053 137.048C139.838 136.861 139.812 136.512 140.026 136.298C140.214 136.084 140.562 136.057 140.777 136.271L147.049 142.007C147.264 142.195 147.291 142.544 147.076 142.758C146.969 142.866 146.808 142.919 146.674 142.919Z" fill="white"/>
<path d="M153.535 122.305C153.401 122.305 153.268 122.251 153.161 122.144C152.946 121.929 152.946 121.608 153.161 121.394L155.546 119.008V116.997C155.546 116.702 155.787 116.461 156.082 116.461C156.377 116.461 156.618 116.702 156.618 116.997V119.464L153.911 122.171C153.804 122.278 153.669 122.305 153.535 122.305Z" fill="white"/>
<path d="M151.686 122.328C151.633 122.328 151.552 122.328 151.499 122.302C151.23 122.194 151.096 121.873 151.204 121.604L153.053 116.833C153.16 116.565 153.482 116.431 153.75 116.538C154.018 116.645 154.152 116.967 154.045 117.235L152.195 122.007C152.088 122.194 151.9 122.328 151.686 122.328Z" fill="white"/>
<path d="M152.866 119.249C152.571 119.249 152.33 119.008 152.33 118.74C152.33 118.445 152.544 118.204 152.839 118.177L155.439 118.097C155.734 118.097 155.975 118.311 156.002 118.606C156.002 118.9 155.788 119.142 155.493 119.169L152.866 119.249Z" fill="white"/>
<path d="M150.266 88.5813H148.818C148.523 88.5813 148.282 88.3398 148.282 88.0449C148.282 87.75 148.523 87.5091 148.818 87.5091H149.837L151.928 85.4182H152.356V75.5265L147.88 71.0497H146.379C146.084 71.0497 145.842 70.8089 145.842 70.5139C145.842 70.219 146.084 69.9775 146.379 69.9775H148.336L153.429 75.0712V86.4634H152.383L150.266 88.5813Z" fill="white"/>
<path d="M152.866 79.2002H149.864L146.647 75.9837L147.961 74.67H149.167V74.2946C149.167 74.0003 149.408 73.7588 149.703 73.7588C149.997 73.7588 150.239 74.0003 150.239 74.2946V75.7422H148.416L148.175 75.9837L150.319 78.128H152.866C153.161 78.128 153.402 78.3695 153.402 78.6644C153.402 78.9593 153.161 79.2002 152.866 79.2002Z" fill="white"/>
<path d="M149.917 83.7843C149.783 83.7843 149.649 83.7302 149.542 83.6233C149.327 83.4089 149.327 83.0869 149.542 82.8725L150.721 81.6934H152.866C153.161 81.6934 153.402 81.9342 153.402 82.2292C153.402 82.5241 153.161 82.7655 152.866 82.7655H151.177L150.292 83.6503C150.185 83.7302 150.051 83.7843 149.917 83.7843Z" fill="white"/>
<path d="M151.016 74.0222C150.721 74.0222 150.48 73.7807 150.48 73.4864V70.1088L145.95 65.578V62.174L149.971 58.153C150.185 57.9386 150.507 57.9386 150.721 58.153C150.936 58.3675 150.936 58.6892 150.721 58.9034L147.022 62.6029V65.0957L151.552 69.6259V73.4323C151.552 73.7807 151.311 74.0222 151.016 74.0222Z" fill="white"/>
<path d="M152.571 66.7864H150.614L149.516 65.6878V63.302L151.66 61.1306C151.875 60.9161 152.196 60.9161 152.41 61.1306C152.625 61.345 152.625 61.6669 152.41 61.8814L150.561 63.7308V65.2319L151.017 65.6878H152.062L152.679 65.0709L152.009 64.4012C151.794 64.1867 151.794 63.8648 152.009 63.6503C152.223 63.4359 152.545 63.4359 152.759 63.6503L154.206 65.0979L152.571 66.7864Z" fill="white"/>
<path d="M146.46 139.966C146.326 139.966 146.192 139.913 146.084 139.805L144.771 138.492L146.326 136.937C146.54 136.723 146.861 136.723 147.076 136.937C147.29 137.152 147.29 137.474 147.076 137.688L146.299 138.465L146.861 139.028C147.076 139.243 147.076 139.564 146.861 139.779C146.727 139.913 146.594 139.966 146.46 139.966Z" fill="white"/>
<path d="M143.002 137.905L141.421 136.323C141.206 136.109 141.206 135.788 141.421 135.573C141.635 135.359 141.956 135.359 142.171 135.573L143.002 136.404L144.128 135.278L143.431 134.582L144.959 133.053C145.173 132.839 145.495 132.839 145.709 133.053C145.924 133.268 145.924 133.589 145.709 133.804L144.932 134.582L145.629 135.278L143.002 137.905Z" fill="white"/>
<path d="M158.308 83.6735C158.174 83.6735 158.04 83.6195 157.933 83.5126L157.29 82.8692V80.135C157.29 79.8401 157.531 79.5986 157.826 79.5986C158.12 79.5986 158.362 79.8401 158.362 80.135V82.4133L158.71 82.7617C158.925 82.9762 158.925 83.2981 158.71 83.5126C158.576 83.6195 158.442 83.6735 158.308 83.6735Z" fill="white"/>
<path d="M157.262 103.804H154.85V101.418H157.235V103.804H157.262ZM155.922 102.732H156.163V102.49H155.922V102.732Z" fill="white"/>
<path d="M93.7591 38.4511C95.0727 38.4511 96.1713 37.3789 96.1713 36.0385C96.1713 34.725 95.0991 33.626 93.7591 33.626C92.4454 33.626 91.3462 34.6982 91.3462 36.0385C91.3462 37.3789 92.4184 38.4511 93.7591 38.4511Z" fill="white"/>
<path d="M103.838 37.2461H83.519C83.224 37.2461 82.9832 37.0048 82.9832 36.7099C82.9832 36.4151 83.224 36.1738 83.519 36.1738H103.838C104.133 36.1738 104.374 36.4151 104.374 36.7099C104.374 37.0048 104.133 37.2461 103.838 37.2461Z" fill="white"/>
<path d="M85.53 34.1895H83.9485V28.6943C83.9485 28.3994 84.1894 28.1582 84.4843 28.1582C84.7792 28.1582 85.0207 28.3994 85.0207 28.6943V33.1173H85.53C85.825 33.1173 86.0658 33.3586 86.0658 33.6534C86.0658 33.9483 85.825 34.1895 85.53 34.1895Z" fill="white"/>
<path d="M87.5669 33.6253C87.272 33.6253 87.0305 33.3841 87.0305 33.0892V31.6953C87.0305 31.4005 87.272 31.1592 87.5669 31.1592C87.8618 31.1592 88.1027 31.4005 88.1027 31.6953V33.0892C88.1027 33.4109 87.8618 33.6253 87.5669 33.6253Z" fill="white"/>
<path d="M89.6036 32.9601C89.4691 32.9601 89.3351 32.9065 89.2282 32.7993C89.0138 32.5848 89.0138 32.2631 89.2282 32.0487L90.1124 31.1641V29.931L89.8715 29.6897C89.6571 29.4753 89.6571 29.1536 89.8715 28.9391C90.086 28.7247 90.4073 28.7247 90.6218 28.9391L91.1852 29.5021V31.6198L89.9784 32.826C89.8715 32.9065 89.7376 32.9601 89.6036 32.9601Z" fill="white"/>
<path d="M85.9319 42.8466C85.637 42.8466 85.3955 42.6053 85.3955 42.3104V40.9433C85.3955 40.6485 85.637 40.4072 85.9319 40.4072C86.2262 40.4072 86.4677 40.6485 86.4677 40.9433V42.3104C86.4677 42.6053 86.2262 42.8466 85.9319 42.8466Z" fill="white"/>
<path d="M87.0305 42.8466C86.7356 42.8466 86.4941 42.6053 86.4941 42.3104V40.9433C86.4941 40.6485 86.7356 40.4072 87.0305 40.4072C87.3255 40.4072 87.5663 40.6485 87.5663 40.9433V42.3104C87.5663 42.6053 87.3255 42.8466 87.0305 42.8466Z" fill="white"/>
<path d="M88.4246 42.5523C88.1296 42.5523 87.8882 42.3111 87.8882 42.0163V41.0244C87.8882 40.7296 88.1296 40.4883 88.4246 40.4883C88.7195 40.4883 88.9604 40.7296 88.9604 41.0244V42.0163C88.9604 42.3111 88.7195 42.5523 88.4246 42.5523Z" fill="white"/>
<path d="M90.3275 42.6864C90.0332 42.6864 89.7917 42.4451 89.7917 42.1503V41.0244C89.7917 40.7296 90.0332 40.4883 90.3275 40.4883C90.6225 40.4883 90.8639 40.7296 90.8639 41.0244V42.1503C90.8639 42.4451 90.6225 42.6864 90.3275 42.6864Z" fill="white"/>
<path d="M81.428 44.4558C81.1331 44.4558 80.8916 44.2145 80.8916 43.9196V37.6738C80.8916 37.3789 81.1331 37.1377 81.428 37.1377C81.7223 37.1377 81.9638 37.3789 81.9638 37.6738V43.9196C81.9638 44.2145 81.7223 44.4558 81.428 44.4558Z" fill="white"/>
<path d="M80.6239 37.5689C80.4894 37.5689 80.3554 37.5154 80.2485 37.4081L78.7204 35.8802C78.506 35.6657 78.506 35.3441 78.7204 35.1296C78.9348 34.9151 79.2568 34.9151 79.4712 35.1296L80.9987 36.6576C81.2132 36.872 81.2132 37.1937 80.9987 37.4081C80.8918 37.5154 80.7578 37.5689 80.6239 37.5689Z" fill="white"/>
<path d="M76.4955 36.8163C76.3609 36.8163 76.227 36.7627 76.1201 36.6555C75.9056 36.441 75.9056 36.1193 76.1201 35.9049L79.873 32.152C80.0874 31.9376 80.4088 31.9376 80.6232 32.152C80.8377 32.3665 80.8377 32.6881 80.6232 32.9026L76.8703 36.6555C76.7898 36.7627 76.6294 36.8163 76.4955 36.8163Z" fill="white"/>
<path d="M75.5043 35.9314C75.3697 35.9314 75.2358 35.8777 75.1288 35.7705C74.9144 35.5561 74.9144 35.2344 75.1288 35.02L79.2302 30.9186C79.4446 30.7042 79.766 30.7042 79.9804 30.9186C80.1949 31.1331 80.1949 31.4547 79.9804 31.6692L75.8791 35.7705C75.7722 35.8777 75.6382 35.9314 75.5043 35.9314Z" fill="white"/>
<path d="M74.4309 35.4537C74.297 35.4537 74.163 35.4001 74.0561 35.2929C73.8417 35.0784 73.8417 34.7568 74.0561 34.5423L78.7203 29.8513C78.9347 29.6368 79.2561 29.6368 79.4705 29.8513C79.6849 30.0657 79.6849 30.3874 79.4705 30.6018L74.7799 35.2929C74.6994 35.4001 74.5649 35.4537 74.4309 35.4537Z" fill="white"/>
<path d="M103.543 34.1895H101.962C101.667 34.1895 101.425 33.9483 101.425 33.6534C101.425 33.3586 101.667 33.1173 101.962 33.1173H102.471V28.6943C102.471 28.3994 102.712 28.1582 103.007 28.1582C103.302 28.1582 103.543 28.3994 103.543 28.6943V34.1895Z" fill="white"/>
<path d="M99.9233 33.6253C99.6289 33.6253 99.3875 33.3841 99.3875 33.0892V31.6953C99.3875 31.4005 99.6289 31.1592 99.9233 31.1592C100.218 31.1592 100.46 31.4005 100.46 31.6953V33.0892C100.46 33.4109 100.218 33.6253 99.9233 33.6253Z" fill="white"/>
<path d="M97.9138 32.9576C97.7799 32.9576 97.6453 32.904 97.5384 32.7968L96.3323 31.5904V29.4728L96.8951 28.9099C97.1095 28.6954 97.4309 28.6954 97.6453 28.9099C97.8598 29.1243 97.8598 29.446 97.6453 29.6604L97.4045 29.9017V31.1348L98.2892 32.0194C98.5037 32.2338 98.5037 32.5555 98.2892 32.77C98.1817 32.904 98.0478 32.9576 97.9138 32.9576Z" fill="white"/>
<path d="M101.56 42.8466C101.265 42.8466 101.024 42.6053 101.024 42.3104V40.9433C101.024 40.6485 101.265 40.4072 101.56 40.4072C101.855 40.4072 102.096 40.6485 102.096 40.9433V42.3104C102.096 42.6053 101.855 42.8466 101.56 42.8466Z" fill="white"/>
<path d="M100.46 42.8466C100.165 42.8466 99.9238 42.6053 99.9238 42.3104V40.9433C99.9238 40.6485 100.165 40.4072 100.46 40.4072C100.755 40.4072 100.996 40.6485 100.996 40.9433V42.3104C100.996 42.6053 100.755 42.8466 100.46 42.8466Z" fill="white"/>
<path d="M99.0659 42.5523C98.771 42.5523 98.5295 42.3111 98.5295 42.0163V41.0244C98.5295 40.7296 98.771 40.4883 99.0659 40.4883C99.3603 40.4883 99.6017 40.7296 99.6017 41.0244V42.0163C99.6017 42.3111 99.3603 42.5523 99.0659 42.5523Z" fill="white"/>
<path d="M97.1896 42.6864C96.8947 42.6864 96.6538 42.4451 96.6538 42.1503V41.0244C96.6538 40.7296 96.8947 40.4883 97.1896 40.4883C97.4845 40.4883 97.726 40.7296 97.726 41.0244V42.1503C97.726 42.4451 97.4845 42.6864 97.1896 42.6864Z" fill="white"/>
<path d="M106.063 44.4558C105.768 44.4558 105.526 44.2145 105.526 43.9196V37.6738C105.526 37.3789 105.768 37.1377 106.063 37.1377C106.357 37.1377 106.598 37.3789 106.598 37.6738V43.9196C106.598 44.2145 106.357 44.4558 106.063 44.4558Z" fill="white"/>
<path d="M106.867 37.5689C106.733 37.5689 106.599 37.5154 106.492 37.4081C106.278 37.1937 106.278 36.872 106.492 36.6576L108.02 35.1296C108.234 34.9151 108.556 34.9151 108.77 35.1296C108.985 35.3441 108.985 35.6657 108.77 35.8802L107.242 37.4081C107.135 37.5154 107.001 37.5689 106.867 37.5689Z" fill="white"/>
<path d="M110.996 36.8163C110.862 36.8163 110.728 36.7627 110.62 36.6555L106.867 32.9026C106.653 32.6881 106.653 32.3665 106.867 32.152C107.082 31.9376 107.404 31.9376 107.618 32.152L111.371 35.9049C111.586 36.1193 111.586 36.441 111.371 36.6555C111.264 36.7627 111.13 36.8163 110.996 36.8163Z" fill="white"/>
<path d="M111.987 35.9314C111.853 35.9314 111.718 35.8777 111.612 35.7705L107.51 31.6692C107.296 31.4547 107.296 31.1331 107.51 30.9186C107.725 30.7042 108.046 30.7042 108.261 30.9186L112.362 35.02C112.577 35.2344 112.577 35.5561 112.362 35.7705C112.255 35.8777 112.121 35.9314 111.987 35.9314Z" fill="white"/>
<path d="M113.085 35.4537C112.952 35.4537 112.818 35.4001 112.71 35.2929L108.019 30.6018C107.805 30.3874 107.805 30.0657 108.019 29.8513C108.234 29.6368 108.555 29.6368 108.77 29.8513L113.461 34.5423C113.675 34.7568 113.675 35.0784 113.461 35.2929C113.353 35.4001 113.219 35.4537 113.085 35.4537Z" fill="white"/>
<path d="M96.8675 31.164H90.6218C90.3269 31.164 90.0854 30.9228 90.0854 30.6279C90.0854 30.333 90.3269 30.0918 90.6218 30.0918H96.8675C97.1625 30.0918 97.4039 30.333 97.4039 30.6279C97.4039 30.9228 97.1625 31.164 96.8675 31.164Z" fill="white"/>
<path d="M49.5013 133.156L45.8825 142.861C45.2928 145.809 45.8289 148.007 47.7053 149.321L50.8952 134.416L49.5013 133.156Z" fill="black"/>
<path d="M138.283 133.156L141.902 142.861C142.492 145.809 141.956 148.007 140.079 149.321L136.889 134.416L138.283 133.156Z" fill="black"/>
<path d="M50.4406 135.652L47.4919 150.208C47.6528 151.093 48.0817 151.683 48.9663 151.843L51.6201 135.652H50.4406Z" fill="#FFFFDC"/>
<path d="M137.346 135.652L140.294 150.208C140.133 151.093 139.705 151.683 138.82 151.843L136.166 135.652H137.346Z" fill="#FFFFDC"/>
<path d="M51.0572 135.922L48.2693 151.496C58.3216 161.683 73.1455 167.794 93.7326 168.974L93.7591 148.226L51.0572 135.922Z" fill="url(#paint1_linear_1546_34)"/>
<path d="M136.434 135.922L139.222 151.496C129.169 161.683 114.346 167.794 93.7585 168.974L93.7314 148.226L136.434 135.922Z" fill="url(#paint2_linear_1546_34)"/>
<path d="M121.503 162.78C127.239 157.687 131.367 151.923 133.27 145.168C131.099 149.108 128.687 152.165 125.979 154.283C129.544 151.065 131.903 145.677 133.699 139.324C130.724 145.195 126.73 149.886 121.047 152.566L93.7849 150.02L66.5232 152.566C60.8403 149.886 56.8463 145.195 53.8709 139.324C55.6669 145.677 58.0258 151.065 61.5911 154.283C58.8833 152.192 56.4711 149.108 54.2998 145.168C56.1762 151.923 60.3309 157.687 66.0679 162.78C60.7063 158.678 56.4978 153.398 53.4688 146.857C55.2379 153.21 58.267 158.303 62.7438 161.976C72.0186 166.56 82.3387 168.972 93.812 169.026C105.285 168.972 115.605 166.533 124.88 161.976C129.357 158.33 132.386 153.21 134.155 146.857C131.099 153.398 126.864 158.678 121.503 162.78Z" fill="#E2EDFF"/>
<path d="M131.555 141.172L93.7585 149.241L55.9617 141.172C57.9722 146.372 62.0465 150.179 67.5419 153.047L63.8425 151.465C68.6141 155.218 73.7342 158.167 79.6045 159.588L73.2248 158.14C78.5593 161.33 85.2339 163.18 93.7585 163.207C102.31 163.18 108.984 161.33 114.292 158.14L107.912 159.588C113.782 158.167 118.902 155.218 123.674 151.465L119.975 153.047C125.47 150.179 129.544 146.345 131.555 141.172Z" fill="#8B9CFF"/>
<path d="M93.7591 163.69C86.4947 163.851 79.6327 162.189 73.092 159.268C79.4987 162.645 86.2538 164.896 93.7591 164.629C101.265 164.896 108.02 162.645 114.427 159.268C107.886 162.189 101.051 163.851 93.7591 163.69Z" fill="#8B9CFF"/>
<path d="M99.7628 151.305C130.724 144.737 151.579 130.289 152.946 109.246C153.053 107.477 152.624 105.708 152.088 103.966C152.034 103.751 149.595 96.674 147.183 92.7066C147.022 92.4658 146.888 92.2513 146.754 92.0099C146.593 58.7167 123.513 45.7962 95.3935 43.9734C94.2943 43.893 93.1951 43.893 92.0965 43.9734C63.977 45.823 40.8967 58.7167 40.7358 92.0099C40.6018 92.2243 40.4678 92.4658 40.307 92.7066C37.8676 96.674 35.4282 103.751 35.4015 103.966C34.8653 105.708 34.4364 107.477 34.5436 109.246C35.9375 130.289 56.7659 144.737 87.7267 151.305C91.6941 152.163 95.6885 152.163 99.7628 151.305Z" fill="#270751"/>
<path d="M93.7045 153.557C91.6406 153.557 89.6032 153.343 87.5663 152.913H84.4032L85.9848 152.565C70.5441 149.134 58.133 143.907 49.0458 136.964C39.0471 129.324 33.6055 120.023 32.9085 109.327C32.7745 107.209 33.3106 105.172 33.8467 103.457C34.1684 102.438 36.5005 95.7902 38.9131 91.8228C38.9667 91.7153 39.0471 91.6084 39.1007 91.5009C39.2615 75.6584 44.5692 63.3279 54.8627 54.9107C63.816 47.5926 76.281 43.3572 91.9355 42.3386C93.0882 42.2582 94.2679 42.2582 95.447 42.3386C111.102 43.3572 123.567 47.5926 132.52 54.9107C142.814 63.3543 148.121 75.6584 148.282 91.5009C148.336 91.6084 148.416 91.7153 148.469 91.8228C150.882 95.7632 153.241 102.465 153.536 103.457C154.072 105.172 154.608 107.209 154.474 109.327C153.777 120.023 148.336 129.324 138.337 136.964C131.501 142.165 122.789 146.427 112.308 149.67H115.257L99.9772 152.86C97.9668 153.316 95.8224 153.557 93.7045 153.557ZM36.9562 104.368L36.9294 104.448C36.4737 105.869 36.0448 107.558 36.1521 109.139C36.7954 118.87 41.8081 127.394 51.0294 134.418C60.0096 141.253 72.474 146.427 88.0757 149.724C91.7481 150.501 95.5275 150.528 99.3069 149.75L99.4144 149.724C115.015 146.4 127.48 141.253 136.46 134.418C145.682 127.368 150.694 118.87 151.338 109.139C151.445 107.558 150.989 105.896 150.56 104.448L150.533 104.368C150.293 103.59 148.014 97.1573 145.816 93.5383C145.708 93.3503 145.601 93.1899 145.494 93.0019L145.172 92.4661V92.0102C145.092 72.3078 136.353 48.2628 95.3401 45.5822C94.3214 45.5285 93.2756 45.5285 92.2569 45.5822C51.2171 48.2628 42.5051 72.3078 42.4247 92.0102V92.4661L42.1834 92.868C42.0494 93.0824 41.9154 93.2969 41.7813 93.5383C39.5028 97.1033 37.1975 103.617 36.9562 104.368ZM150.507 104.341C150.533 104.341 150.533 104.341 150.507 104.341Z" fill="black"/>
<path d="M45.6151 71.7733C39.3692 68.1549 43.2025 30.1706 49.6896 21.1101C56.2839 13.8725 63.7625 19.1265 72.3946 33.6822L81.8034 50.4092L45.6151 71.7733Z" fill="#371B72"/>
<path d="M46.0176 65.1756C46.2857 29.0145 54.113 11.1884 68.1325 51.2635C64.594 57.7238 60.7341 64.3984 46.2321 71.1L46.0176 65.1756Z" fill="#4B35B5"/>
<path d="M51.2449 70.3531C49.6901 68.4502 47.358 65.555 46.393 63.5176C45.3476 65.8229 46.393 70.5411 48.9664 73.8382L51.2449 70.3531Z" fill="#3B0D75"/>
<path d="M53.4152 64.4546C53.4152 64.4276 53.3884 64.4012 53.3884 64.3477C52.3162 61.533 50.8151 58.9327 49.0191 56.5469L50.7346 60.2464C50.8151 60.7287 50.7078 60.9161 50.2789 60.6752L48.188 58.5037C49.5015 60.4872 50.6542 62.3907 51.1367 63.8383C51.378 64.5886 51.1099 64.5886 50.6274 64.2672L46.8746 60.5407L49.7696 64.3477C49.8232 64.8565 49.716 65.1784 49.1531 64.964L46.2312 61.372L49.7428 67.5643L50.3593 70.5664L55.6133 66.599L53.3616 64.3207" fill="#300751"/>
<path d="M46.0176 72.4408C43.9267 70.5102 42.5864 66.8113 42.3988 62.1472C42.1575 55.7135 42.7741 46.653 44.0071 39.0669C45.1061 32.2045 47.2238 23.2781 50.9499 19.5253C52.2098 18.2654 53.6037 17.6489 55.078 17.7024C60.1178 17.8901 65.8806 22.6884 72.2338 31.9633C77.0055 38.9597 80.49 46.1437 80.9729 47.2695L78.3726 47.9933C77.8903 46.8943 74.4857 39.8442 69.7945 32.9819C63.8702 24.3236 59.34 20.7852 54.9976 20.6243C54.0326 20.5975 53.148 20.9996 52.2366 21.911C46.1516 28.0228 43.7659 50.9152 44.1947 62.0667C44.3556 66.2749 45.6423 69.626 47.2238 71.0736L46.0176 72.4408Z" fill="black"/>
<path d="M53.1742 64.7791C52.4504 57.4613 52.5845 49.339 53.7371 44.916C56.0424 49.0442 58.0797 53.4135 59.8487 58.0242L63.3067 53.4404L63.7896 50.6257L64.2719 52.797L65.6391 50.8669C67.6225 41.0559 64.5134 33.6575 59.4198 27.224C53.2814 19.209 47.8934 26.8487 44.0869 54.0837C44.3818 41.9137 46.9551 28.1354 51.9679 23.1227C56.2569 18.8337 62.5564 26.393 66.9527 36.9278C67.2741 37.6784 67.5155 38.4289 67.6765 39.2331C68.3198 42.3695 68.3198 45.8542 68.3463 49.205C70.8396 47.5698 72.7695 47.8379 74.1367 49.9823L65.8535 59.7665L56.927 65.9858L53.1742 64.7791Z" fill="#17001B"/>
<path d="M141.875 71.7745C148.121 68.1555 144.261 30.466 137.801 21.4056C131.207 14.1679 123.754 19.127 115.123 33.656L105.714 50.383L141.875 71.7745Z" fill="#371B72"/>
<path d="M141.474 65.1756C141.206 29.0145 133.378 11.1884 119.359 51.2635C122.897 57.7238 126.757 64.3984 141.26 71.1L141.474 65.1756Z" fill="#4B35B5"/>
<path d="M136.247 70.3531C137.802 68.4502 140.133 65.555 141.099 63.5176C142.144 65.8229 141.099 70.5411 138.525 73.8382L136.247 70.3531Z" fill="#3B0D75"/>
<path d="M134.075 64.4546C134.075 64.4276 134.102 64.4012 134.102 64.3477C135.174 61.533 136.675 58.9327 138.471 56.5469L136.756 60.2464C136.675 60.7287 136.783 60.9161 137.212 60.6752L139.303 58.5037C137.989 60.4872 136.836 62.3907 136.354 63.8383C136.113 64.5886 136.381 64.5886 136.863 64.2672L140.589 60.5407L137.694 64.3741C137.641 64.8835 137.748 65.2054 138.31 64.991L141.233 61.399L137.721 67.5907L137.104 70.5934L131.85 66.626L134.102 64.3477" fill="#300751"/>
<path d="M141.474 72.4408C143.564 70.5102 144.905 66.8113 145.093 62.1472C145.333 55.7135 144.717 46.653 143.484 39.0669C142.385 32.2045 140.267 23.2781 136.541 19.5253C135.281 18.2654 133.887 17.6489 132.413 17.7024C127.374 17.8901 121.61 22.7152 115.257 31.9901C110.486 38.9865 107.001 46.1705 106.491 47.2964L109.092 48.0201C109.574 46.9211 112.979 39.8711 117.67 33.0087C123.594 24.3503 128.124 20.812 132.467 20.6511C133.432 20.6243 134.316 21.0264 135.228 21.9378C141.313 28.0496 143.698 50.942 143.27 62.0931C143.109 66.302 141.822 69.6525 140.24 71.1001L141.474 72.4408Z" fill="black"/>
<path d="M134.316 64.7791C135.013 57.4613 134.905 49.339 133.753 44.916C131.447 49.0442 129.41 53.4136 127.641 58.0242L124.183 53.4404L123.701 50.6257L123.218 52.797L121.878 50.867C119.894 41.0559 123.004 33.6575 128.097 27.224C134.209 19.209 139.597 26.8487 143.403 54.0837C143.108 41.9137 140.535 28.1354 135.522 23.1227C131.233 18.8337 124.934 26.393 120.537 36.9278C120.216 37.6784 119.975 38.4289 119.814 39.2331C119.17 42.3695 119.17 45.8542 119.143 49.205C116.651 47.5698 114.721 47.8379 113.354 49.9823L121.61 59.7401L130.536 65.9588L134.316 64.7791Z" fill="#17001B"/>
<path d="M47.9468 34.6182C47.5448 36.0121 47.1427 37.5132 46.7406 39.202C45.0786 56.4651 43.8991 68.6351 47.0355 71.5033L47.5448 72.0127L47.3035 71.0474C44.3549 65.6865 45.5879 51.372 47.9468 34.6182Z" fill="#FFFFDC"/>
<path d="M139.544 34.6182C141.903 51.3452 143.136 65.6865 140.16 71.0474L139.92 72.0127L140.429 71.5033C143.565 68.6351 142.385 56.4651 140.724 39.202C140.348 37.5132 139.946 36.0121 139.544 34.6182Z" fill="#FFFFDC"/>
<path d="M132.467 21.941C133.566 21.8337 134.611 22.209 135.55 23.1472C137.346 24.9433 138.847 27.9187 140.026 31.5107C139.999 31.1354 139.946 30.7602 139.92 30.3849C139.785 28.8569 139.464 27.4362 138.767 26.0691C132.414 13.2558 122.228 22.3967 109.36 46.5758C103.597 44.8602 98.9867 44.3776 93.7591 44.4313C88.5051 44.4045 83.9214 44.8602 78.158 46.5758C65.3182 22.3967 55.1049 13.2558 48.7518 26.0691C48.0549 27.4362 47.7332 28.8569 47.5992 30.3849C47.5724 30.7602 47.5187 31.1354 47.4919 31.5107C48.6714 27.8919 50.1725 24.9433 51.9686 23.1472C52.9068 22.209 53.9522 21.8337 55.0512 21.941C57.571 21.8337 60.5195 23.8978 63.8971 27.8651C67.7305 32.5562 72.5022 38.3195 76.5495 49.1759C87.6473 45.2087 99.1206 45.0478 111.103 49.1759C115.124 38.3195 119.842 32.5562 123.675 27.8651C126.999 23.871 129.947 21.8337 132.467 21.941Z" fill="#FFFFDC"/>
<path d="M67.3529 26.9189L61.9919 30.8951L63.2692 32.6175L68.6301 28.6414L67.3529 26.9189Z" fill="black"/>
<path d="M68.305 28.5596L62.9441 32.5357L64.2213 34.2581L69.5823 30.282L68.305 28.5596Z" fill="black"/>
<path d="M120.13 26.9121L118.853 28.6348L124.215 32.6103L125.492 30.8876L120.13 26.9121Z" fill="black"/>
<path d="M119.176 28.582L117.899 30.3045L123.26 34.2806L124.537 32.5582L119.176 28.582Z" fill="black"/>
<path d="M151.928 103.299C151.124 100.19 149.596 96.6783 147.184 92.7109C145.388 89.7892 144.422 88.7171 143.404 86.3042C142.948 85.2056 142.626 84.0529 142.466 82.8732C140.08 65.6906 122.576 47.4088 93.7592 46.1221C63.9507 47.3819 47.4381 65.6906 45.0524 82.8732C44.8916 84.0529 44.5699 85.2056 44.1142 86.3042C43.0956 88.7171 42.1306 89.7622 40.3345 92.7109C37.8951 96.6783 36.394 100.217 35.5899 103.299C34.7588 106.435 34.732 109.116 35.1609 112.333C36.9033 131.687 64.46 148.629 93.3033 151.121C93.4643 151.121 93.5983 151.121 93.7592 151.121C93.9196 151.121 94.0542 151.121 94.2145 151.121C123.085 148.602 150.615 131.687 152.357 112.333C152.76 109.143 152.732 106.462 151.928 103.299Z" fill="url(#paint3_linear_1546_34)"/>
<path fill-rule="evenodd" clip-rule="evenodd" d="M45.6148 84.883C44.3281 89.5477 41.7547 93.8635 39.4226 97.7504C38.0823 100.002 37.3853 101.798 36.8492 103.943C36.3667 105.873 35.777 107.722 35.9646 109.17C36.7688 113.432 37.975 117.265 39.6638 120.589C41.3258 122.385 41.2454 121.93 40.4144 120.455C37.4121 115.523 36.7419 108.767 36.7419 108.767C36.7419 108.767 38.5648 118.337 45.5343 125.655C52.0215 132.437 60.4384 138.71 66.1483 142.356C51.2441 135.735 39.5566 126.513 36.045 114.182C34.0881 108.633 34.946 103.004 38.1627 97.2945C41.0309 92.1474 43.9528 86.9204 45.1055 84.3201L45.4539 82.7656L45.6148 84.883Z" fill="#FFFFDC"/>
<path fill-rule="evenodd" clip-rule="evenodd" d="M141.876 84.883C143.163 89.5477 145.736 93.8635 148.068 97.7504C149.408 100.002 150.106 101.798 150.641 103.943C151.124 105.873 151.714 107.722 151.526 109.17C150.722 113.432 149.516 117.265 147.827 120.589C146.165 122.385 146.245 121.93 147.076 120.455C150.079 115.523 150.749 108.767 150.749 108.767C150.749 108.767 148.926 118.337 141.956 125.655C135.469 132.437 127.052 138.71 121.343 142.356C136.246 135.735 147.934 126.513 151.446 114.182C153.403 108.633 152.545 103.004 149.328 97.2945C146.46 92.1474 143.538 86.9204 142.385 84.3201L142.037 82.7656L141.876 84.883Z" fill="#FFFFDC"/>
<path d="M143.51 98.9789C138.551 94.2079 132.332 93.3501 128.284 95.0656C127.159 95.5479 126.488 96.4057 125.738 97.2634C123.138 100.694 125.363 102.785 119.653 106.163C118.152 107.048 113.648 106.19 111.424 105.225C110.914 104.984 109.413 104.179 108.127 103.322C107.644 103 107.134 102.946 106.813 102.785C106.705 105.975 106.143 109.192 105.124 112.382C102.068 109.273 98.1813 107.932 93.7316 107.852C89.2819 107.959 85.395 109.3 82.3388 112.382C81.3201 109.166 80.7573 105.975 80.6503 102.785C80.3284 102.946 79.819 103 79.3367 103.322C78.0501 104.179 76.549 105.01 76.0396 105.225C73.8412 106.19 69.311 107.048 67.8099 106.163C62.1 102.785 64.3255 100.694 61.7252 97.2634C60.9744 96.4327 60.304 95.5479 59.1784 95.0656C55.1307 93.3501 48.8849 94.2079 43.9526 98.9789C41.8885 100.963 40.6018 103.67 40.5482 106.538C40.3337 116.564 53.5223 125.973 71.161 135.167C74.6185 136.937 79.2562 138.572 83.438 139.858C90.1396 141.922 97.3236 141.922 104.025 139.858C108.207 138.572 112.844 136.937 116.302 135.167C133.941 125.973 147.102 116.59 146.914 106.538C146.861 103.67 145.574 100.963 143.51 98.9789Z" fill="white"/>
<path d="M77.3267 104.29C69.4724 106.408 65.9339 105.416 64.5133 102.869C67.0865 105.416 70.8125 105.711 75.3162 104.397C69.2045 105.497 66.2024 104.531 64.8352 102.495C66.5507 103.996 68.99 104.773 72.5286 104.505C69.6598 104.478 67.4349 103.727 65.6125 102.414C67.14 103.03 68.6951 103.406 70.2767 103.567C68.7756 103.245 67.1136 102.414 65.6389 101.127C64.2989 99.9477 62.7978 98.634 61.6716 96.8381C61.1087 95.9533 60.0636 95.498 59.2058 95.0156C57.7582 96.6506 57.6242 98.5001 59.5007 100.618C61.6181 103.433 64.1913 105.336 67.1941 106.488C67.5695 106.622 67.9713 106.703 68.3732 106.73C72.3676 106.944 76.0935 106.059 79.3641 103.218C76.013 105.389 72.743 106.354 69.4994 106.274C68.6417 106.247 67.8103 106.059 67.0331 105.711L65.5585 105.068C69.151 106.783 73.0914 106.301 77.3267 104.29Z" fill="#FFE6BA"/>
<path d="M110.164 104.29C118.018 106.408 121.557 105.416 122.977 102.869C120.404 105.416 116.678 105.711 112.174 104.397C118.286 105.497 121.288 104.531 122.655 102.495C120.94 103.996 118.501 104.773 114.962 104.505C117.831 104.478 120.056 103.727 121.878 102.414C120.35 103.03 118.795 103.406 117.214 103.567C118.715 103.245 120.377 102.414 121.852 101.127C123.192 99.9477 124.693 98.634 125.818 96.8381C126.382 95.9533 127.427 95.498 128.285 95.0156C129.732 96.6506 129.866 98.5001 127.99 100.618C125.872 103.433 123.299 105.336 120.297 106.488C119.921 106.622 119.519 106.703 119.117 106.73C115.123 106.944 111.397 106.059 108.126 103.218C111.478 105.389 114.748 106.354 117.991 106.274C118.849 106.247 119.68 106.059 120.458 105.711L121.932 105.068C118.34 106.783 114.399 106.301 110.164 104.29Z" fill="#FFE6BA"/>
<path opacity="0.8" d="M117.429 123.616C117.188 122.892 116.223 122.705 115.713 123.294C99.5224 136.027 99.1206 124.581 99.1206 124.581H88.4245C88.4245 124.581 87.9957 136.001 71.8318 123.294C71.3224 122.705 70.3577 122.892 70.1163 123.616C69.8484 124.42 70.1433 125.599 70.9206 127.047C73.5473 132.006 80.142 136.912 86.0928 137.126C88.2101 137.207 90.328 136.751 92.1775 135.732C92.7673 135.411 93.3037 135.062 93.7861 134.66C94.242 135.062 94.7778 135.411 95.3946 135.732C97.2711 136.724 99.3614 137.18 101.479 137.126C107.43 136.939 114.025 132.006 116.652 127.047C117.429 125.599 117.697 124.447 117.429 123.616Z" fill="url(#paint4_linear_1546_34)"/>
<path d="M114.668 125.923C114.427 125.575 114.132 125.575 113.757 126.245C112.926 127.719 112.524 128.765 111.532 130.024C110.862 130.882 109.602 131.954 108.663 132.517C104.375 135.037 99.8979 135.466 95.1268 132.785C94.8318 132.625 94.6709 132.33 94.6709 132.008V127.371L93.7597 126.781L92.8479 127.371V132.008C92.8479 132.33 92.6605 132.625 92.3926 132.785C87.6209 135.466 83.1441 135.037 78.8554 132.517C77.9171 131.981 76.657 130.882 75.9872 130.024C74.9949 128.765 74.566 127.719 73.7618 126.245C73.3869 125.575 73.092 125.547 72.8505 125.923C72.6361 126.245 72.6097 126.647 72.7436 127.022C74.2447 131.043 77.0594 134.26 82.5813 135.68C83.1441 135.841 83.734 135.922 84.3238 135.949C87.6209 136.109 90.784 136.029 92.7674 134.233C93.0088 134.019 93.3302 133.911 93.6522 133.911H93.8666C94.1885 133.911 94.5099 134.019 94.7514 134.233C96.7348 136.029 99.8979 136.109 103.195 135.949C103.785 135.922 104.375 135.841 104.937 135.68C110.459 134.26 113.274 131.043 114.775 127.022C114.91 126.674 114.883 126.245 114.668 125.923Z" fill="#1A0033"/>
<path d="M104.187 115.896C103.382 112.385 99.4954 111.045 93.7591 111.045C88.0221 111.071 84.1352 112.412 83.3315 115.896C83.0366 117.344 82.9021 119.543 83.358 120.561C85.4489 125.895 89.0409 127.638 93.7321 127.745C98.4497 127.638 102.015 125.869 104.106 120.561C104.615 119.515 104.482 117.344 104.187 115.896Z" fill="#1A0033"/>
<path d="M99.6024 122.73C97.5115 123.132 95.5281 123.212 93.7585 122.73C91.9896 123.212 90.0062 123.132 87.9153 122.73C87.2984 122.676 86.8431 122.864 86.8695 123.668C88.8265 125.786 91.1318 126.992 93.7856 127.287C96.4393 126.992 98.7446 125.786 100.702 123.668C100.675 122.837 100.219 122.676 99.6024 122.73Z" fill="#260366"/>
<path d="M97.1902 114.717H93.7322H90.2742C89.4429 114.851 89.2555 115.521 89.2819 116.405H98.1549C98.2354 115.548 98.021 114.851 97.1902 114.717Z" fill="white"/>
<path d="M97.2172 111.821C99.4685 112.009 100.89 113.001 101.774 114.421C99.3081 113.859 96.6808 113.591 93.7592 113.831C90.8369 113.591 88.2102 113.859 85.7439 114.421C86.6557 112.974 88.0492 112.009 90.3011 111.821C92.6599 111.526 94.9653 111.5 97.2172 111.821Z" fill="white"/>
<path d="M85.7438 120.024C86.1991 119.944 86.6815 119.917 87.1374 119.917L87.0569 119.944C87.4593 119.649 87.9417 119.462 88.3976 119.354C88.6384 119.301 88.8799 119.274 89.1478 119.301C89.8181 119.408 90.247 120.051 90.381 120.668C90.4614 121.043 90.4344 121.418 90.408 121.793C90.381 122.035 90.3539 122.276 90.3275 122.517C90.3275 122.544 90.3005 122.544 90.3005 122.517C90.22 122.035 90.1935 121.552 90.1395 121.097C90.0326 120.158 89.3358 119.086 88.263 119.515C87.8882 119.676 87.5662 119.944 87.2179 120.185L87.1644 120.212H87.1109C86.655 120.212 86.1727 120.185 85.7168 120.078C85.7168 120.051 85.7168 120.024 85.7438 120.024Z" fill="white"/>
<path d="M101.774 120.049C101.292 120.129 100.809 120.156 100.327 120.183L100.273 120.156C99.925 119.914 99.63 119.647 99.2276 119.486C98.1554 119.057 97.4586 120.129 97.3517 121.067C97.2977 121.55 97.2977 122.032 97.1907 122.488C97.1907 122.515 97.1637 122.515 97.1637 122.488C97.1373 122.247 97.0832 122.005 97.0832 121.765C97.0568 121.416 97.0298 121.014 97.1103 120.638C97.2712 120.022 97.6731 119.379 98.3434 119.271C98.6113 119.218 98.8528 119.271 99.0937 119.325C99.5766 119.432 100.059 119.62 100.434 119.914L100.354 119.888C100.809 119.888 101.292 119.914 101.747 119.995C101.774 120.022 101.774 120.049 101.774 120.049Z" fill="white"/>
<path d="M96.0111 126.216C95.8501 126.296 95.5822 126.456 95.3942 126.456L93.7592 126.617L92.1242 126.456C91.9367 126.456 91.6683 126.296 91.5073 126.216C90.8375 125.867 90.864 125.921 91.2664 126.483C91.4538 126.725 91.6953 126.885 92.0166 126.939C92.6335 127.046 93.2498 127.127 93.7862 127.127C94.349 127.127 94.9389 127.046 95.5552 126.939C95.8501 126.885 96.118 126.725 96.306 126.483C96.6544 125.947 96.6814 125.867 96.0111 126.216Z" fill="white"/>
<path d="M69.4719 77.4802C70.1153 76.4351 71.2409 75.0145 73.0639 74.4247C77.1382 73.111 81.9634 76.8105 82.9016 80.6433C83.0356 81.2602 83.5449 83.2706 82.3388 84.7182C81.615 85.6024 80.3554 86.1388 79.2027 85.9514C78.2909 85.7904 78.1305 85.254 76.9238 84.3428C74.9134 82.8418 74.1097 83.3776 71.5899 81.6621C70.2228 80.7238 69.7669 80.0805 69.5524 79.4108C69.2575 78.6599 69.365 77.9361 69.4719 77.4802Z" fill="white"/>
<path d="M118.019 77.4802C117.375 76.4351 116.249 75.0145 114.427 74.4247C110.352 73.111 105.527 76.8105 104.589 80.6433C104.455 81.2602 103.945 83.2706 105.151 84.7182C105.875 85.6024 107.135 86.1388 108.288 85.9514C109.199 85.7904 109.36 85.254 110.566 84.3428C112.577 82.8418 113.381 83.3776 115.901 81.6621C117.268 80.7238 117.724 80.0805 117.938 79.4108C118.233 78.6599 118.126 77.9361 118.019 77.4802Z" fill="white"/>
<path d="M80.9716 99.4344C81.1326 100.56 80.9181 101.337 80.0874 101.445C75.3157 104.179 70.5981 104.179 66.6307 101.713C65.9874 101.311 65.3976 100.774 64.9152 100.185C62.3414 96.8876 60.1165 94.9847 57.4629 93.6176C57.1144 93.1082 57.1949 92.6523 57.6505 92.2505L59.3128 91.6606C60.0096 91.4191 60.6259 90.9903 61.1088 90.4539C69.9007 80.2678 79.8459 83.8868 80.8376 98.2547C80.8917 98.6566 80.9181 99.059 80.9716 99.4344Z" fill="#15001C"/>
<path d="M106.518 99.4344C106.357 100.56 106.572 101.337 107.403 101.445C112.174 104.179 116.892 104.179 120.859 101.713C121.503 101.311 122.092 100.774 122.575 100.185C125.148 96.8876 127.373 94.9847 130.027 93.6176C130.376 93.1082 130.295 92.6523 129.839 92.2505L128.177 91.6606C127.48 91.4191 126.864 90.9903 126.381 90.4539C117.589 80.2678 107.644 83.8868 106.652 98.2547C106.625 98.6566 106.572 99.059 106.518 99.4344Z" fill="#15001C"/>
<path d="M66.2031 89.5735C65.5328 89.681 65.1574 91.6379 65.2108 93.139C65.2379 93.9967 65.3718 98.366 69.0713 100.189C71.5641 101.395 74.6202 100.966 76.5766 99.2508C77.5419 98.393 78.7216 97.1328 78.3996 96.57C78.0512 95.9267 76.3622 97.0259 74.0034 96.57C71.2157 96.0336 69.3122 93.6484 68.6154 92.7906C67.0873 90.9676 66.8194 89.493 66.2031 89.5735Z" fill="url(#paint5_linear_1546_34)"/>
<path d="M77.1663 100.883C76.9519 101.123 76.684 101.338 76.3891 101.499C73.5744 103.054 70.7062 102.786 67.5966 100.588C64.7818 98.6578 63.5216 96.5398 63.8436 93.0818C63.9511 92.0096 64.4064 90.9644 65.1837 90.2136C65.4786 89.9187 65.7735 89.6772 66.0685 89.5703C65.5056 93.4302 66.0955 96.7272 68.3203 98.7383C70.0358 100.266 72.4752 100.775 74.6466 99.9978C76.2816 99.435 77.2198 98.3088 78.0775 96.9152C78.158 96.7813 78.319 96.6473 78.48 96.6203C78.7209 96.5933 78.8548 96.7543 78.9089 97.0762C78.9353 97.2102 78.9353 97.3171 78.9353 97.451C78.6139 98.7917 78.0241 99.9174 77.1663 100.883Z" fill="url(#paint6_linear_1546_34)"/>
<path d="M121.288 89.5735C121.959 89.681 122.334 91.6379 122.28 93.139C122.253 93.9967 122.12 98.366 118.42 100.189C115.927 101.395 112.871 100.966 110.914 99.2508C109.949 98.393 108.77 97.1328 109.092 96.57C109.44 95.9267 111.129 97.0259 113.488 96.57C116.276 96.0336 118.206 93.6484 118.876 92.7906C120.403 90.9676 120.672 89.493 121.288 89.5735Z" fill="url(#paint7_linear_1546_34)"/>
<path d="M110.325 100.883C110.539 101.123 110.807 101.338 111.102 101.499C113.917 103.054 116.785 102.786 119.895 100.588C122.709 98.6578 123.969 96.5398 123.648 93.0818C123.54 92.0096 123.084 90.9644 122.307 90.2136C122.012 89.9187 121.717 89.6772 121.423 89.5703C121.986 93.4302 121.396 96.7272 119.171 98.7383C117.455 100.266 115.016 100.775 112.845 99.9978C111.21 99.435 110.272 98.3088 109.413 96.9152C109.333 96.7813 109.172 96.6473 109.011 96.6203C108.77 96.5933 108.636 96.7543 108.582 97.0762C108.555 97.2102 108.555 97.3171 108.555 97.451C108.877 98.7917 109.467 99.9174 110.325 100.883Z" fill="url(#paint8_linear_1546_34)"/>
<path d="M67.811 89.4931C68.6958 89.1982 69.7409 90.5118 69.9554 90.2974C70.0899 90.1634 69.6604 89.6805 69.473 89.4931C68.8297 88.9033 68.8027 88.6624 68.7492 88.3404C68.6687 87.7776 69.634 87.0003 70.4113 86.7589C71.5105 86.4105 73.0386 86.9199 73.4674 88.0185C73.8423 88.9837 73.1989 89.949 72.931 90.3779C72.7971 90.5653 71.9393 91.8255 70.3578 92.0129C70.1163 92.0399 69.2051 92.1198 68.3203 91.584C68.1059 91.4501 67.0872 90.8602 67.1947 90.1634C67.2211 89.895 67.4896 89.6 67.811 89.4931Z" fill="white"/>
<path d="M119.681 89.4931C118.796 89.1982 117.751 90.5118 117.536 90.2974C117.402 90.1634 117.831 89.6805 118.019 89.4931C118.662 88.9033 118.689 88.6624 118.743 88.3404C118.823 87.7776 117.858 87.0003 117.081 86.7589C115.981 86.4105 114.453 86.9199 114.024 88.0185C113.65 88.9837 114.293 89.949 114.561 90.3779C114.695 90.5653 115.552 91.8255 117.134 92.0129C117.375 92.0399 118.287 92.1198 119.171 91.584C119.386 91.4501 120.405 90.8602 120.297 90.1634C120.27 89.895 120.002 89.6 119.681 89.4931Z" fill="white"/>
<path opacity="0.75" d="M68.5073 96.7819C68.8287 96.1386 69.445 95.6563 70.0889 95.4953C72.0452 95.013 74.1902 97.8277 74.753 97.3453C74.9939 97.1309 74.726 96.4335 74.9404 96.353C75.1014 96.2996 75.3963 96.5945 75.5573 96.9164C75.9057 97.6397 75.6372 98.7124 74.9674 99.3557C74.3776 99.9186 73.6808 99.945 72.93 99.9991C71.3214 100.106 70.1688 99.4627 69.499 99.0873C68.5608 98.5515 68.3998 98.1761 68.3463 97.9616C68.1583 97.4523 68.3998 96.9699 68.5073 96.7819Z" fill="url(#paint9_linear_1546_34)"/>
<path opacity="0.75" d="M118.983 96.7819C118.662 96.1386 118.045 95.6563 117.401 95.4953C115.444 95.013 113.3 97.8277 112.737 97.3453C112.496 97.1309 112.764 96.4335 112.549 96.353C112.389 96.2996 112.094 96.5945 111.933 96.9164C111.585 97.6397 111.852 98.7124 112.523 99.3557C113.113 99.9186 113.809 99.945 114.56 99.9991C116.168 100.106 117.321 99.4627 117.991 99.0873C118.929 98.5515 119.09 98.1761 119.144 97.9616C119.331 97.4523 119.09 96.9699 118.983 96.7819Z" fill="url(#paint10_linear_1546_34)"/>
<path d="M94.2145 151.683H93.2222C79.0958 150.449 64.7009 145.651 53.7371 138.52C42.2372 131.041 35.4285 121.766 34.5975 112.385C34.1418 108.819 34.2758 106.139 35.0532 103.163C35.911 99.8392 37.5462 96.2202 39.8783 92.4137C40.468 91.4755 40.9505 90.7253 41.3795 90.0549C42.2909 88.6614 42.9342 87.6691 43.6043 86.0876C44.0333 85.0424 44.3549 83.9432 44.5158 82.7905C46.7943 66.2782 57.8652 57.8073 66.0145 52.875L66.5773 53.7864C58.6426 58.6115 47.8129 66.8675 45.588 82.9245C45.4272 84.1576 45.0787 85.3637 44.5962 86.49C43.8724 88.1785 43.2023 89.1972 42.2641 90.6178C41.8351 91.2611 41.3526 92.0119 40.7897 92.9501C38.5112 96.7031 36.9296 100.215 36.0987 103.431C35.3481 106.273 35.2409 108.846 35.6697 112.277C36.4739 121.338 43.1218 130.317 54.3268 137.609C65.1562 144.659 79.3637 149.377 93.3027 150.61H94.1605C108.099 149.404 122.307 144.659 133.136 137.609C144.368 130.317 150.989 121.311 151.794 112.277C152.25 108.819 152.116 106.273 151.365 103.405C150.534 100.161 148.952 96.6496 146.674 92.9501C146.111 92.0119 145.628 91.2881 145.2 90.6178C144.261 89.1972 143.591 88.152 142.867 86.49C142.385 85.3637 142.063 84.1576 141.875 82.9245C139.409 65.0715 126.06 56.9763 121.047 53.9472L121.61 53.0359C126.757 56.1453 140.401 64.4282 142.948 82.7905C143.109 83.9432 143.404 85.0688 143.859 86.0876C144.529 87.6691 145.2 88.6878 146.111 90.0549C146.54 90.7253 147.022 91.4755 147.612 92.4137C149.944 96.2202 151.552 99.8127 152.437 103.163C153.214 106.165 153.348 108.846 152.893 112.411C152.062 121.766 145.253 131.041 133.753 138.52C122.763 145.651 108.368 150.449 94.2145 151.683Z" fill="black"/>
<path d="M86.8162 56.6017L80.5975 51.0261L75.7723 50.3023L72.8237 47.4072H70.0895L65.8271 52.4735L66.7918 54.6449L70.1699 56.8965L70.5718 58.8268L80.9723 64.0808L86.8162 56.6017Z" fill="url(#paint11_linear_1546_34)"/>
<path d="M100.675 56.6017L106.895 51.0261L111.72 50.3023L114.695 47.4072H117.429L121.691 52.4735L120.727 54.6449L117.349 56.8965L116.947 58.8268L106.546 64.0808L100.675 56.6017Z" fill="url(#paint12_linear_1546_34)"/>
<path d="M82.6612 58.234L77.5141 53.9719L74.646 57.5639C74.4045 57.8856 74.0831 58.0732 73.8147 57.7783L73.5203 57.5639C73.2789 57.3226 73.2789 56.9473 73.4933 56.6793L76.7903 52.7656L77.5946 52.8728L83.0096 57.7247L82.6612 58.234Z" fill="#B7F9FF"/>
<path d="M77.5146 55.8226L76.6833 56.8412C76.4689 57.1361 76.4959 57.5382 76.7908 57.7526L79.9804 60.3263C80.2753 60.5407 80.6777 60.5137 80.8922 60.2188L81.7229 59.2C81.9373 58.9051 81.9103 58.5032 81.616 58.2887L78.3988 55.7153C78.1579 55.5009 77.7555 55.5545 77.5146 55.8226Z" fill="#B7F9FF"/>
<path d="M75.986 58.0471C75.9056 57.9935 75.7716 57.9935 75.7181 58.074C75.6647 58.1543 75.6647 58.2884 75.7452 58.342L79.6585 61.5052C79.739 61.5587 79.8729 61.5587 79.9264 61.4782C79.9805 61.3977 79.9805 61.2638 79.9 61.2103L75.986 58.0471Z" fill="#B7F9FF"/>
<path d="M70.5452 49.3108L68.3474 52.045C68.1329 52.3399 68.1594 52.742 68.4543 52.9565L71.1885 55.1546C71.4834 55.369 71.8853 55.3422 72.1003 55.0473L74.2982 52.3131C74.5126 52.0183 74.4856 51.6162 74.1906 51.4017L71.4564 49.2036C71.1885 48.9892 70.7596 49.0428 70.5452 49.3108Z" fill="url(#paint13_radial_1546_34)"/>
<path d="M70.6787 50.4632L69.5266 51.9107C69.3115 52.2056 69.3386 52.6077 69.6335 52.8221L71.0811 53.9748C71.376 54.1892 71.7779 54.1624 71.9923 53.8675L73.145 52.42C73.3594 52.1251 73.333 51.7231 73.0381 51.5086L71.5905 50.3559C71.3226 50.1415 70.8937 50.1951 70.6787 50.4632Z" fill="#B7F9FF"/>
<path d="M67.2205 53.6777L66.5771 54.3479L70.0352 57.1625L70.3031 58.6637H71.2948V57.0553L67.2205 53.6777Z" fill="white"/>
<path d="M72.3683 47.434L72.3142 47.8361L75.2364 50.7312L75.9867 50.9188L75.8527 50.1146L72.8236 47.4072L72.3683 47.434Z" fill="white"/>
<path d="M75.5571 58.5862C75.4766 58.5326 75.3426 58.5326 75.2892 58.613C75.2357 58.6934 75.2357 58.8272 75.3162 58.8813L79.2295 62.0444C79.31 62.0978 79.444 62.0978 79.4974 62.0173C79.5515 61.9368 79.5515 61.8029 79.471 61.7494L75.5571 58.5862Z" fill="#B7F9FF"/>
<path d="M104.829 58.2355L109.976 53.9734L112.844 57.5922C113.086 57.9139 113.407 58.1015 113.675 57.8067L113.97 57.5922C114.211 57.3509 114.211 56.9757 113.997 56.7076L110.7 52.7939L109.895 52.9012L104.48 57.753L104.829 58.2355Z" fill="#B7F9FF"/>
<path d="M105.741 59.2253L106.572 60.244C106.786 60.5383 107.215 60.5653 107.483 60.3509L110.673 57.7775C110.968 57.5631 110.995 57.1342 110.78 56.8662L109.949 55.8475C109.735 55.5527 109.306 55.5258 109.038 55.7403L105.821 58.3137C105.58 58.5281 105.527 58.9303 105.741 59.2253Z" fill="#B7F9FF"/>
<path d="M107.591 61.2095C107.511 61.2635 107.484 61.3975 107.564 61.478C107.618 61.5585 107.752 61.5849 107.832 61.5044L111.746 58.3415C111.826 58.2878 111.853 58.1538 111.773 58.0734C111.719 57.993 111.585 57.9662 111.505 58.0466L107.591 61.2095Z" fill="#B7F9FF"/>
<path d="M113.193 52.3381L115.391 55.0723C115.605 55.3672 116.034 55.394 116.302 55.1795L119.036 52.9814C119.331 52.767 119.358 52.3381 119.144 52.07L116.946 49.3358C116.731 49.041 116.302 49.0141 116.034 49.2286L113.3 51.3999C113.005 51.6411 112.979 52.0432 113.193 52.3381Z" fill="url(#paint14_radial_1546_34)"/>
<path d="M114.346 52.446L115.499 53.8935C115.713 54.1883 116.142 54.2152 116.41 54.0008L117.858 52.8481C118.153 52.6336 118.18 52.2047 117.965 51.9366L116.813 50.4891C116.598 50.1943 116.169 50.1674 115.901 50.3819L114.453 51.5345C114.185 51.749 114.132 52.1779 114.346 52.446Z" fill="#B7F9FF"/>
<path d="M120.27 53.6777L120.913 54.3479L117.455 57.1625L117.161 58.6637H116.169V57.0553L120.27 53.6777Z" fill="white"/>
<path d="M115.123 47.4316L115.176 47.8337L112.228 50.7287L111.478 50.9163L111.611 50.1122L114.667 47.3779L115.123 47.4316Z" fill="white"/>
<path d="M108.02 61.7208C107.94 61.7742 107.913 61.9082 107.993 61.9887C108.074 62.0691 108.181 62.0956 108.261 62.0151L112.175 58.852C112.255 58.7985 112.282 58.6646 112.201 58.5842C112.148 58.5037 112.014 58.4769 111.933 58.5574L108.02 61.7208Z" fill="#B7F9FF"/>
<path d="M56.096 64.4521C55.0774 64.4521 53.4691 64.8005 52.7989 65.4979C51.2977 67.0254 49.9306 69.0358 49.2605 71.5556H62.9582C62.9318 67.6423 59.8756 64.4521 56.096 64.4521Z" fill="black"/>
<path d="M131.394 64.4521C132.412 64.4521 134.021 64.8005 134.691 65.4979C136.192 67.0254 137.559 69.0358 138.229 71.5556H124.558C124.558 67.6423 127.614 64.4521 131.394 64.4521Z" fill="black"/>
<path fill-rule="evenodd" clip-rule="evenodd" d="M81.9111 66.3836L56.5527 68.7425V66.3836L82.9298 63.6494L81.9111 66.3836Z" fill="black"/>
<path fill-rule="evenodd" clip-rule="evenodd" d="M105.58 66.3836L130.938 68.7425V66.3836L104.561 63.6494L105.58 66.3836Z" fill="black"/>
<path fill-rule="evenodd" clip-rule="evenodd" d="M81.6965 73.7059L79.793 64.9404L61.0024 67.3533C59.7957 66.0126 58.0267 65.1549 56.0967 65.1549C52.451 65.1549 49.4756 68.1035 49.4756 71.776C49.4756 75.4214 52.451 78.3971 56.0967 78.3971C58.8845 78.3971 61.2703 76.6816 62.235 74.2423L81.6965 73.7059Z" fill="white"/>
<path fill-rule="evenodd" clip-rule="evenodd" d="M105.795 73.7059L107.698 64.9404L126.489 67.3533C127.695 66.0126 129.464 65.1549 131.394 65.1549C135.04 65.1549 138.016 68.1035 138.016 71.776C138.016 75.4214 135.067 78.3971 131.394 78.3971C128.607 78.3971 126.221 76.6816 125.256 74.2423L105.795 73.7059Z" fill="white"/>
<path d="M68.8291 73.7588L61.6716 73.9462V74.4556L68.8291 74.2682V73.7588Z" fill="white"/>
<path fill-rule="evenodd" clip-rule="evenodd" d="M82.0443 71.1309L56.3374 72.0156V74.3744L83.09 73.8651L82.0443 71.1309Z" fill="url(#paint15_linear_1546_34)"/>
<path fill-rule="evenodd" clip-rule="evenodd" d="M105.446 71.1309L131.153 72.0156V74.3744L104.4 73.8651L105.446 71.1309Z" fill="url(#paint16_linear_1546_34)"/>
<path fill-rule="evenodd" clip-rule="evenodd" d="M79.4182 71.2355L61.1094 72.7365L60.1711 68.0183L79.3107 65.6865C79.1503 66.7851 78.9894 68.7157 79.4182 71.2355Z" fill="url(#paint17_linear_1546_34)"/>
<path fill-rule="evenodd" clip-rule="evenodd" d="M108.073 71.2355L126.355 72.7365L127.294 68.0183L108.154 65.6865C108.341 66.7851 108.502 68.7157 108.073 71.2355Z" fill="url(#paint18_linear_1546_34)"/>
<path d="M79.659 70.7005H75.6382L75.3967 67.5908H79.659V70.7005Z" fill="black"/>
<path d="M79.4716 65.6631L75.2363 66.1725L75.5577 68.7992L79.793 68.2898L79.4716 65.6631Z" fill="#00007B"/>
<path d="M107.698 68.2898L111.933 68.7992L112.255 66.1725L108.019 65.6631L107.698 68.2898Z" fill="#00007B"/>
<path d="M79.5221 67.0508L75.3708 67.556L75.5653 69.1529L79.7166 68.6476L79.5221 67.0508Z" fill="white"/>
<path d="M79.5474 69.6865L75.5559 70.1724L75.7504 71.7692L79.7418 71.2833L79.5474 69.6865Z" fill="white"/>
<path d="M107.833 70.7005H111.854L112.095 67.5908H107.833V70.7005Z" fill="black"/>
<path d="M107.958 67.0439L107.764 68.6408L111.915 69.146L112.109 67.5492L107.958 67.0439Z" fill="white"/>
<path d="M107.953 69.6777L107.758 71.274L111.75 71.7604L111.944 70.1636L107.953 69.6777Z" fill="white"/>
<path d="M67.4415 67.2471L59.1072 67.4586L59.1477 69.0666L67.482 68.8551L67.4415 67.2471Z" fill="black"/>
<path d="M56.0966 77.8866C59.4744 77.8866 62.2086 75.1524 62.2086 71.7749C62.2086 68.3973 59.4744 65.6631 56.0966 65.6631C52.7191 65.6631 49.9849 68.3973 49.9849 71.7749C49.9849 75.1524 52.7191 77.8866 56.0966 77.8866Z" fill="#0B2F72"/>
<path d="M131.394 77.8866C134.772 77.8866 137.506 75.1524 137.506 71.7749C137.506 68.3973 134.772 65.6631 131.394 65.6631C128.017 65.6631 125.283 68.3973 125.283 71.7749C125.283 75.1524 128.044 77.8866 131.394 77.8866Z" fill="#0B2F72"/>
<path d="M56.0961 76.1956C58.5354 76.1956 60.519 74.2116 60.519 71.7723C60.519 69.333 58.5354 67.3496 56.0961 67.3496C53.6567 67.3496 51.6731 69.333 51.6731 71.7723C51.6731 74.2386 53.6299 76.1956 56.0961 76.1956Z" fill="white"/>
<path d="M131.394 76.1956C133.833 76.1956 135.817 74.2116 135.817 71.7723C135.817 69.333 133.833 67.3496 131.394 67.3496C128.955 67.3496 126.971 69.333 126.971 71.7723C126.971 74.2386 128.955 76.1956 131.394 76.1956Z" fill="white"/>
<path d="M56.0966 74.3444C57.5173 74.3444 58.67 73.1917 58.67 71.7705C58.67 70.3499 57.5173 69.1973 56.0966 69.1973C54.6759 69.1973 53.5232 70.3499 53.5232 71.7705C53.5232 73.1917 54.6759 74.3444 56.0966 74.3444Z" fill="#369ACB"/>
<path d="M131.394 74.3444C132.815 74.3444 133.968 73.1917 133.968 71.7705C133.968 70.3499 132.815 69.1973 131.394 69.1973C129.974 69.1973 128.821 70.3499 128.821 71.7705C128.821 73.1917 129.974 74.3444 131.394 74.3444Z" fill="#369ACB"/>
<path fill-rule="evenodd" clip-rule="evenodd" d="M54.8901 69.278C55.5334 70.7796 55.6675 71.6908 56.5521 71.6638C55.9087 70.9136 56.0428 70.0558 55.9355 69.0371L54.8901 69.278Z" fill="white"/>
<path fill-rule="evenodd" clip-rule="evenodd" d="M132.6 69.278C131.957 70.7796 131.823 71.6908 130.938 71.6638C131.582 70.9136 131.447 70.0558 131.555 69.0371L132.6 69.278Z" fill="white"/>
<path fill-rule="evenodd" clip-rule="evenodd" d="M68.9907 72.0937L67.811 72.2012L67.0608 66.0089L68.2399 65.875L68.9907 72.0937Z" fill="black"/>
<path fill-rule="evenodd" clip-rule="evenodd" d="M118.501 72.0937L119.681 72.2012L120.431 66.0089L119.252 65.875L118.501 72.0937Z" fill="black"/>
<path d="M93.7585 82.5438C101.666 82.5438 108.1 76.1101 108.1 68.2024C108.1 60.2946 101.666 53.8613 93.7585 53.8613C85.8507 53.8613 79.417 60.2946 79.417 68.2024C79.417 76.1101 85.8237 82.5438 93.7585 82.5438Z" fill="#81F7FE"/>
<path d="M93.7579 83.0829C85.5552 83.0829 78.8806 76.4084 78.8806 68.2057C78.8806 60.003 85.5552 53.3281 93.7579 53.3281C101.961 53.3281 108.636 60.003 108.636 68.2057C108.636 76.4084 101.961 83.0829 93.7579 83.0829ZM93.7579 54.4004C86.1451 54.4004 79.9528 60.5929 79.9528 68.2057C79.9528 75.8185 86.1451 82.0108 93.7579 82.0108C101.371 82.0108 107.563 75.8185 107.563 68.2057C107.563 60.5929 101.371 54.4004 93.7579 54.4004Z" fill="#001270"/>
<path d="M93.7591 77.1603C98.6917 77.1603 102.713 73.1395 102.713 68.2074C102.713 63.2748 98.6917 59.2539 93.7591 59.2539C88.827 59.2539 84.8062 63.2748 84.8062 68.2074C84.8062 73.1395 88.8 77.1603 93.7591 77.1603Z" fill="url(#paint19_radial_1546_34)"/>
<path d="M93.7591 79.9234C100.219 79.9234 105.473 74.6694 105.473 68.2092C105.473 61.7491 100.219 56.4951 93.7591 56.4951C87.2989 56.4951 82.0449 61.7491 82.0449 68.2092C82.0449 74.6694 87.2719 79.9234 93.7591 79.9234Z" fill="#99FAFE"/>
<path d="M93.7585 76.5972C98.3962 76.5972 102.149 72.8442 102.149 68.2071C102.149 63.5694 98.3962 59.8164 93.7585 59.8164C89.1208 59.8164 85.3684 63.5694 85.3684 68.2071C85.3684 72.8442 89.1208 76.5972 93.7585 76.5972Z" fill="white"/>
<path d="M93.7586 77.1052C88.853 77.1052 84.8591 73.1107 84.8591 68.2057C84.8591 63.3001 88.853 59.3057 93.7586 59.3057C98.6642 59.3057 102.658 63.3001 102.658 68.2057C102.658 73.1107 98.6372 77.1052 93.7586 77.1052ZM93.7586 60.6463C89.6038 60.6463 86.1992 64.0239 86.1992 68.2057C86.1992 72.3869 89.5768 75.7645 93.7586 75.7645C97.9404 75.7645 101.318 72.3869 101.318 68.2057C101.318 64.0239 97.9134 60.6463 93.7586 60.6463Z" fill="#0074F6"/>
<path d="M93.7579 79.8923C87.3248 79.8923 82.0708 74.6653 82.0708 68.2052C82.0708 61.7715 87.2978 56.5176 93.7579 56.5176C100.219 56.5176 105.446 61.745 105.446 68.2052C105.419 74.6383 100.192 79.8923 93.7579 79.8923ZM93.7579 57.5898C87.9147 57.5898 83.143 62.3613 83.143 68.2052C83.143 74.0485 87.9147 78.8201 93.7579 78.8201C99.6018 78.8201 104.373 74.0485 104.373 68.2052C104.346 62.3613 99.6018 57.5898 93.7579 57.5898Z" fill="#005CD1"/>
<path d="M93.7586 81.3422C86.5206 81.3422 80.6233 75.4449 80.6233 68.2075C80.6233 60.9695 86.5206 55.0723 93.7586 55.0723C100.996 55.0723 106.893 60.9695 106.893 68.2075C106.893 75.4449 100.996 81.3422 93.7586 81.3422ZM93.7586 57.2168C87.7003 57.2168 82.7683 62.1492 82.7683 68.2075C82.7683 74.2652 87.7003 79.1978 93.7586 79.1978C99.8169 79.1978 104.749 74.2652 104.749 68.2075C104.749 62.1492 99.8169 57.2168 93.7586 57.2168Z" fill="#0D43B0"/>
<path d="M93.7585 73.3265C96.5732 73.3265 98.8786 71.0481 98.8786 68.207C98.8786 65.3923 96.5996 63.0869 93.7585 63.0869C90.9438 63.0869 88.6384 65.3652 88.6384 68.207C88.6384 71.0217 90.9168 73.3265 93.7585 73.3265Z" fill="#16FFFF"/>
<path d="M93.2762 53.8672L91.0784 53.9476L92.1776 56.1725L93.2762 56.1457V53.8672Z" fill="url(#paint20_linear_1546_34)"/>
<path d="M94.2151 53.8672L96.4135 53.9476L95.3143 56.1725L94.2151 56.1457V53.8672Z" fill="url(#paint21_linear_1546_34)"/>
<path d="M93.7591 72.7633C91.2394 72.7633 89.2019 70.7259 89.2019 68.2061C89.2019 65.6869 91.2394 63.6494 93.7591 63.6494C96.2789 63.6494 98.3164 65.6869 98.3164 68.2061C98.3164 70.7259 96.2519 72.7633 93.7591 72.7633ZM93.7591 64.9895C91.9902 64.9895 90.5426 66.4371 90.5426 68.2061C90.5426 69.9756 91.9902 71.4232 93.7591 71.4232C95.5287 71.4232 96.9757 69.9756 96.9757 68.2061C96.9757 66.4371 95.5287 64.9895 93.7591 64.9895Z" fill="white"/>
<path fill-rule="evenodd" clip-rule="evenodd" d="M63.9512 69.8674L67.4891 69.4385L67.8111 72.1727L64.2455 72.4412L63.9512 69.8674Z" fill="url(#paint22_linear_1546_34)"/>
<path fill-rule="evenodd" clip-rule="evenodd" d="M123.54 69.8674L120.001 69.4385L119.653 72.1727L123.218 72.4412L123.54 69.8674Z" fill="url(#paint23_linear_1546_34)"/>
<path fill-rule="evenodd" clip-rule="evenodd" d="M93.893 81.1826H90.8374L91.2122 98.4721H93.893H96.5738L96.9221 81.1826H93.893Z" fill="#81F7FE"/>
<path fill-rule="evenodd" clip-rule="evenodd" d="M93.8924 79.9199H91.2117L91.694 98.4967H93.8924H96.0903L96.5726 79.9199H93.8924Z" fill="url(#paint24_linear_1546_34)"/>
<path fill-rule="evenodd" clip-rule="evenodd" d="M91.3991 107.398L90.0854 106.487V99.0882C90.0854 98.6323 90.4609 98.2568 90.9168 98.2568H96.5462C97.0015 98.2568 97.3769 98.6323 97.3769 99.0882V106.487L96.0633 107.398H91.3991Z" fill="#1D2572"/>
<path d="M96.5733 98.4715C96.9223 98.4715 97.1902 98.7394 97.1902 99.0878V106.352L96.0105 107.157H91.4803L90.3276 106.352V99.0878C90.3276 98.7394 90.5961 98.4715 90.9445 98.4715H96.5733ZM96.5733 98.0156H90.9445C90.3547 98.0156 89.8723 98.498 89.8723 99.0878V106.594L90.0597 106.728L91.2394 107.532L91.3463 107.612H96.1715L96.279 107.532L97.4581 106.728L97.6461 106.594V99.0878C97.6461 98.498 97.1632 98.0156 96.5733 98.0156Z" fill="white"/>
<path d="M95.0987 102.09H92.418V105.199H95.0987V102.09Z" fill="#1D2572"/>
<path d="M94.3214 102.866V104.448H93.1687V102.866H94.3214ZM95.8489 101.338H91.6406V105.547L92.0695 105.976H95.447L95.8759 105.547L95.8489 101.338Z" fill="white"/>
<path fill-rule="evenodd" clip-rule="evenodd" d="M93.7586 100.104H91.6677V100.533H93.7586H95.8496V100.104H93.7586Z" fill="white"/>
<path d="M93.7591 80.0811H92.553V82.5204H93.7591H94.9653V80.0811H93.7591Z" fill="white"/>
<path fill-rule="evenodd" clip-rule="evenodd" d="M73.1977 66.4375L68.3726 67.0003L68.9894 72.0669L74.029 71.6645L73.1977 66.4375Z" fill="#4A3A98"/>
<path fill-rule="evenodd" clip-rule="evenodd" d="M114.292 66.4375L119.117 67.0003L118.501 72.0669L113.461 71.6645L114.292 66.4375Z" fill="#4A3A98"/>
<path d="M73.7073 66.3595C73.8947 68.5574 74.1361 70.5414 74.6185 71.6135L75.8252 71.506C75.4762 70.7288 75.0744 68.3429 74.7524 66.2256L73.7073 66.3595Z" fill="#07ADF7"/>
<path d="M72.9299 66.4933L73.7072 66.3857C73.7877 68.2352 74.0826 69.9777 74.6184 71.6127L73.8411 71.6932C73.4657 70.1922 73.1978 68.4232 72.9299 66.4933Z" fill="black"/>
<path d="M74.7529 66.2524L75.5302 66.1455C75.6107 67.995 75.9591 69.818 76.5219 71.48L75.8516 71.5335C75.4497 70.6487 74.8599 68.5314 74.7529 66.2524Z" fill="black"/>
<path d="M113.783 66.3595C113.596 68.5574 113.354 70.5414 112.872 71.6135L111.665 71.506C112.014 70.7288 112.416 68.3429 112.737 66.2256L113.783 66.3595Z" fill="#07ADF7"/>
<path d="M114.56 66.4933L113.783 66.3857C113.702 68.2352 113.407 69.9777 112.872 71.6127L113.649 71.6932C114.024 70.1922 114.319 68.4232 114.56 66.4933Z" fill="black"/>
<path d="M112.737 66.2524L111.96 66.1455C111.879 67.995 111.531 69.818 110.968 71.48L111.639 71.5335C112.04 70.6487 112.63 68.5314 112.737 66.2524Z" fill="black"/>
<path d="M93.7591 85.3359H92.553L92.7134 93.0827H93.7591H94.8043L94.9653 85.3359H93.7591Z" fill="white"/>
<path d="M93.7585 96.4893H92.6863L92.8202 96.9722H93.7585H94.6967L94.8307 96.4893H93.7585Z" fill="white"/>
<path d="M44.6495 71.0215C42.7462 75.7121 40.1996 85.5233 40.7626 93.2971L42.8535 91.3936C41.7008 87.0244 41.0039 83.5934 45.5341 72.4691L44.6495 71.0215Z" fill="#FFFFDC"/>
<path d="M142.841 71.0215C144.745 75.7121 147.291 85.5233 146.728 93.2971L144.637 91.3936C145.79 87.0244 146.487 83.5934 141.957 72.4691L142.841 71.0215Z" fill="#FFFFDC"/>
</g>
</g>
</g>
<defs>
<linearGradient id="paint0_linear_1546_34" x1="93.9877" y1="168.864" x2="93.9877" y2="27.8888" gradientUnits="userSpaceOnUse">
<stop offset="0.06" stop-color="#1932A7"/>
<stop offset="0.26" stop-color="#1833A8"/>
<stop offset="0.33" stop-color="#1838AF"/>
<stop offset="0.38" stop-color="#1740BB"/>
<stop offset="0.42" stop-color="#174CCC"/>
<stop offset="0.46" stop-color="#165CE1"/>
<stop offset="0.53" stop-color="#1662E2"/>
<stop offset="0.63" stop-color="#1975E6"/>
<stop offset="0.75" stop-color="#1D94EC"/>
<stop offset="0.88" stop-color="#24BFF6"/>
<stop offset="1" stop-color="#2AEAFF"/>
</linearGradient>
<linearGradient id="paint1_linear_1546_34" x1="48.2748" y1="152.47" x2="93.7773" y2="152.47" gradientUnits="userSpaceOnUse">
<stop offset="0.11" stop-color="#230330"/>
<stop offset="0.29" stop-color="#4248BD"/>
<stop offset="0.65" stop-color="#BBCFFF"/>
</linearGradient>
<linearGradient id="paint2_linear_1546_34" x1="139.22" y1="152.47" x2="93.7173" y2="152.47" gradientUnits="userSpaceOnUse">
<stop offset="0.11" stop-color="#230330"/>
<stop offset="0.29" stop-color="#4248BD"/>
<stop offset="0.65" stop-color="#BBCFFF"/>
</linearGradient>
<linearGradient id="paint3_linear_1546_34" x1="93.7463" y1="151.152" x2="93.7463" y2="46.1371" gradientUnits="userSpaceOnUse">
<stop offset="0.35" stop-color="#BBCFFF"/>
<stop offset="0.53" stop-color="#694AB7"/>
<stop offset="0.7" stop-color="#381679"/>
<stop offset="1" stop-color="#3D1D7B"/>
</linearGradient>
<linearGradient id="paint4_linear_1546_34" x1="93.7761" y1="137.13" x2="93.7761" y2="122.878" gradientUnits="userSpaceOnUse">
<stop offset="0.19" stop-color="#5C14E3" stop-opacity="0.75"/>
<stop offset="0.23" stop-color="#6D32E8" stop-opacity="0.7"/>
<stop offset="0.35" stop-color="#9D84F5" stop-opacity="0.55"/>
<stop offset="0.41" stop-color="#B0A4FB" stop-opacity="0.5"/>
<stop offset="0.69" stop-color="#F6F7FE" stop-opacity="0"/>
</linearGradient>
<linearGradient id="paint5_linear_1546_34" x1="72.3778" y1="93.052" x2="68.4491" y2="99.8559" gradientUnits="userSpaceOnUse">
<stop stop-color="#170024"/>
<stop offset="0.48" stop-color="#19003B"/>
<stop offset="0.72" stop-color="#1D1185"/>
<stop offset="1" stop-color="#131AAB"/>
</linearGradient>
<linearGradient id="paint6_linear_1546_34" x1="63.789" y1="96.0393" x2="78.9476" y2="96.0393" gradientUnits="userSpaceOnUse">
<stop stop-color="#20229E"/>
<stop offset="0.04" stop-color="#3A5DB8"/>
<stop offset="0.08" stop-color="#AFFFFC"/>
<stop offset="0.81" stop-color="#7CFFFE"/>
<stop offset="0.9" stop-color="#22A8F0"/>
<stop offset="0.97" stop-color="#172FB2"/>
</linearGradient>
<linearGradient id="paint7_linear_1546_34" x1="115.117" y1="93.052" x2="119.046" y2="99.8559" gradientUnits="userSpaceOnUse">
<stop stop-color="#170024"/>
<stop offset="0.48" stop-color="#19003B"/>
<stop offset="0.72" stop-color="#1D1185"/>
<stop offset="1" stop-color="#131AAB"/>
</linearGradient>
<linearGradient id="paint8_linear_1546_34" x1="123.705" y1="96.0393" x2="108.545" y2="96.0393" gradientUnits="userSpaceOnUse">
<stop stop-color="#20229E"/>
<stop offset="0.04" stop-color="#3A5DB8"/>
<stop offset="0.08" stop-color="#AFFFFC"/>
<stop offset="0.81" stop-color="#7CFFFE"/>
<stop offset="0.9" stop-color="#22A8F0"/>
<stop offset="0.97" stop-color="#172FB2"/>
</linearGradient>
<linearGradient id="paint9_linear_1546_34" x1="70.9272" y1="99.8581" x2="73.0892" y2="95.4448" gradientUnits="userSpaceOnUse">
<stop offset="0.09" stop-color="#B2BBFF"/>
<stop offset="0.85" stop-color="#0E09B7" stop-opacity="0.5"/>
</linearGradient>
<linearGradient id="paint10_linear_1546_34" x1="116.565" y1="99.8581" x2="114.403" y2="95.4448" gradientUnits="userSpaceOnUse">
<stop offset="0.09" stop-color="#B2BBFF"/>
<stop offset="0.85" stop-color="#0E09B7" stop-opacity="0.5"/>
</linearGradient>
<linearGradient id="paint11_linear_1546_34" x1="69.2329" y1="48.2516" x2="83.0098" y2="62.0281" gradientUnits="userSpaceOnUse">
<stop offset="0.35" stop-color="#170222"/>
<stop offset="1" stop-color="#3D1D7B"/>
</linearGradient>
<linearGradient id="paint12_linear_1546_34" x1="118.261" y1="48.2515" x2="104.484" y2="62.0281" gradientUnits="userSpaceOnUse">
<stop offset="0.35" stop-color="#170222"/>
<stop offset="1" stop-color="#3D1D7B"/>
</linearGradient>
<radialGradient id="paint13_radial_1546_34" cx="0" cy="0" r="1" gradientUnits="userSpaceOnUse" gradientTransform="translate(71.3225 52.1902) scale(3.1197 3.1197)">
<stop stop-color="#0B3E7D"/>
<stop offset="1" stop-color="#011561"/>
</radialGradient>
<radialGradient id="paint14_radial_1546_34" cx="0" cy="0" r="1" gradientUnits="userSpaceOnUse" gradientTransform="translate(116.173 52.1886) rotate(180) scale(3.1197)">
<stop stop-color="#0B3E7D"/>
<stop offset="1" stop-color="#011561"/>
</radialGradient>
<linearGradient id="paint15_linear_1546_34" x1="56.328" y1="72.74" x2="83.0812" y2="72.74" gradientUnits="userSpaceOnUse">
<stop offset="0.31"/>
<stop offset="0.42" stop-color="#000103"/>
<stop offset="0.5" stop-color="#00040C"/>
<stop offset="0.57" stop-color="#020B1C"/>
<stop offset="0.64" stop-color="#031333"/>
<stop offset="0.71" stop-color="#061F51"/>
<stop offset="0.77" stop-color="#082C76"/>
<stop offset="0.83" stop-color="#0B3DA0"/>
<stop offset="0.85" stop-color="#0D43B0"/>
<stop offset="1" stop-color="#0D43B0"/>
</linearGradient>
<linearGradient id="paint16_linear_1546_34" x1="131.166" y1="72.74" x2="104.411" y2="72.74" gradientUnits="userSpaceOnUse">
<stop offset="0.31"/>
<stop offset="0.42" stop-color="#000103"/>
<stop offset="0.5" stop-color="#00040C"/>
<stop offset="0.57" stop-color="#020B1C"/>
<stop offset="0.64" stop-color="#031333"/>
<stop offset="0.71" stop-color="#061F51"/>
<stop offset="0.77" stop-color="#082C76"/>
<stop offset="0.83" stop-color="#0B3DA0"/>
<stop offset="0.85" stop-color="#0D43B0"/>
<stop offset="1" stop-color="#0D43B0"/>
</linearGradient>
<linearGradient id="paint17_linear_1546_34" x1="70.1904" y1="72.0321" x2="69.7086" y2="66.5243" gradientUnits="userSpaceOnUse">
<stop stop-color="#0D43B0"/>
<stop offset="0.15" stop-color="#0D43B0"/>
<stop offset="0.17" stop-color="#0B3DA0"/>
<stop offset="0.23" stop-color="#082C76"/>
<stop offset="0.29" stop-color="#061F51"/>
<stop offset="0.36" stop-color="#031333"/>
<stop offset="0.43" stop-color="#020B1C"/>
<stop offset="0.5" stop-color="#00040C"/>
<stop offset="0.58" stop-color="#000103"/>
<stop offset="0.69"/>
</linearGradient>
<linearGradient id="paint18_linear_1546_34" x1="117.304" y1="72.0321" x2="117.785" y2="66.5243" gradientUnits="userSpaceOnUse">
<stop stop-color="#0D43B0"/>
<stop offset="0.15" stop-color="#0D43B0"/>
<stop offset="0.17" stop-color="#0B3DA0"/>
<stop offset="0.23" stop-color="#082C76"/>
<stop offset="0.29" stop-color="#061F51"/>
<stop offset="0.36" stop-color="#031333"/>
<stop offset="0.43" stop-color="#020B1C"/>
<stop offset="0.5" stop-color="#00040C"/>
<stop offset="0.58" stop-color="#000103"/>
<stop offset="0.69"/>
</linearGradient>
<radialGradient id="paint19_radial_1546_34" cx="0" cy="0" r="1" gradientUnits="userSpaceOnUse" gradientTransform="translate(93.7473 68.2045) scale(8.95327 8.95326)">
<stop stop-color="#381679"/>
<stop offset="1" stop-color="#290851"/>
</radialGradient>
<linearGradient id="paint20_linear_1546_34" x1="92.187" y1="56.168" x2="92.187" y2="53.8658" gradientUnits="userSpaceOnUse">
<stop stop-color="#0D43B0"/>
<stop offset="0.15" stop-color="#0D43B0"/>
<stop offset="0.36" stop-color="#09349C"/>
<stop offset="0.77" stop-color="#021B7C"/>
<stop offset="1" stop-color="#001270"/>
</linearGradient>
<linearGradient id="paint21_linear_1546_34" x1="95.3067" y1="56.168" x2="95.3067" y2="53.8658" gradientUnits="userSpaceOnUse">
<stop stop-color="#0D43B0"/>
<stop offset="0.15" stop-color="#0D43B0"/>
<stop offset="0.36" stop-color="#09349C"/>
<stop offset="0.77" stop-color="#021B7C"/>
<stop offset="1" stop-color="#001270"/>
</linearGradient>
<linearGradient id="paint22_linear_1546_34" x1="66.0045" y1="72.3472" x2="65.7636" y2="69.5948" gradientUnits="userSpaceOnUse">
<stop offset="0.12" stop-color="#0D43B0"/>
<stop offset="0.18" stop-color="#1D4FB5"/>
<stop offset="0.3" stop-color="#4971C3"/>
<stop offset="0.47" stop-color="#8FA8DA"/>
<stop offset="0.68" stop-color="#EFF2F9"/>
<stop offset="0.72" stop-color="white"/>
</linearGradient>
<linearGradient id="paint23_linear_1546_34" x1="121.488" y1="72.3466" x2="121.729" y2="69.5942" gradientUnits="userSpaceOnUse">
<stop offset="0.12" stop-color="#0D43B0"/>
<stop offset="0.18" stop-color="#1D4FB5"/>
<stop offset="0.3" stop-color="#4971C3"/>
<stop offset="0.47" stop-color="#8FA8DA"/>
<stop offset="0.68" stop-color="#EFF2F9"/>
<stop offset="0.72" stop-color="white"/>
</linearGradient>
<linearGradient id="paint24_linear_1546_34" x1="93.8936" y1="98.4785" x2="93.8936" y2="79.9105" gradientUnits="userSpaceOnUse">
<stop stop-color="#181B7D"/>
<stop offset="0.69" stop-color="#270D4A"/>
<stop offset="1" stop-color="#0D43B0"/>
</linearGradient>
<clipPath id="clip0_1546_34">
<rect width="188" height="188" fill="white"/>
</clipPath>
</defs>
</svg>
