<svg width="256" height="256" viewBox="0 0 256 256" fill="none" xmlns="http://www.w3.org/2000/svg">
<path d="M1.26148 110.188C11.0988 40.1923 75.8164 -8.57578 145.812 1.26146C215.808 11.0987 264.577 75.8162 254.738 145.812C244.902 215.807 180.184 264.576 110.188 254.739C40.1924 244.901 -8.57585 180.184 1.26148 110.188Z" fill="#FEE033"/>
<path d="M136.442 65.6401C145.312 65.6401 154.183 65.6401 163.322 65.6401C163.322 100.699 163.322 135.759 163.322 171.88C154.663 171.88 146.003 171.88 137.082 171.88C137.082 167.445 137.082 163.01 137.082 158.44C113.576 155.567 113.576 155.567 92.5318 163.863C90.3919 165.767 88.4164 167.769 86.4818 169.88C85.781 170.637 85.781 170.637 85.066 171.409C83.7414 172.881 82.4689 174.379 81.2193 175.915C80.8505 176.367 80.4817 176.819 80.1017 177.284C77.3814 180.959 77.0527 183.978 76.9218 188.52C73.965 188.52 71.0083 188.52 67.9619 188.52C67.9619 185.986 67.9619 183.451 67.9619 180.84C70.4963 180.84 73.0306 180.84 75.6418 180.84C76.0642 179.995 76.4866 179.151 76.9218 178.28C78.1971 176.893 79.4843 175.563 80.825 174.242C81.2247 173.843 81.6245 173.444 82.0364 173.033C83.3586 171.715 84.6853 170.401 86.0118 169.088C86.9338 168.17 87.8555 167.251 88.7768 166.333C91.2052 163.913 93.6371 161.497 96.0701 159.081C99.9558 155.223 103.837 151.361 107.717 147.496C109.069 146.151 110.423 144.808 111.777 143.465C112.614 142.632 113.451 141.8 114.287 140.967C114.661 140.598 115.034 140.229 115.418 139.849C117.583 137.69 119.584 135.466 121.496 133.079C122.362 132.2 122.362 132.2 124.149 131.692C124.746 131.715 125.342 131.738 125.957 131.763C126.545 131.774 127.133 131.785 127.739 131.797C128.473 131.837 129.206 131.878 129.962 131.92C132.311 132.013 134.661 132.105 137.082 132.2C136.871 123.752 136.659 115.304 136.442 106.6C134.605 108.578 132.768 110.555 130.876 112.593C124.748 119.169 118.544 125.669 112.3 132.135C108.521 136.051 104.771 139.989 101.08 143.99C74.1905 173.094 74.1905 173.094 61.0864 174.063C55.3607 174.186 49.7989 173.366 44.2819 171.88C44.2225 170.189 44.1634 168.497 44.1057 166.805C44.0586 165.503 44.0003 164.202 43.9359 162.901C43.8588 158.371 43.8588 158.371 45.0961 156.701C46.1144 155.868 46.1144 155.868 48.1219 154.6C49.204 153.333 50.2712 152.053 51.3218 150.76C52.9706 149.027 54.6275 147.474 56.4819 145.96C58.2418 144.462 59.5128 142.978 60.9219 141.16C62.6341 139.355 64.4108 137.707 66.3219 136.12C68.2817 134.466 69.9088 132.675 71.5443 130.705C73.2597 128.67 75.0931 126.862 77.2018 125.24C78.9434 123.796 80.2938 122.24 81.7393 120.51C83.489 118.45 85.3459 116.615 87.4818 114.96C89.3527 113.417 90.7497 111.677 92.2818 109.8C93.9306 108.067 95.5875 106.514 97.4418 105C99.2018 103.502 100.473 102.018 101.882 100.2C103.719 98.2606 105.656 96.4967 107.682 94.7601C109.622 93.0815 111.202 91.3643 112.762 89.3201C114.499 87.4887 116.307 85.8165 118.242 84.2001C120.085 82.6437 121.528 80.9966 123.002 79.0801C124.727 77.262 126.519 75.6018 128.442 74.0001C130.536 72.2334 132.166 70.333 133.882 68.2001C134.727 67.3553 135.571 66.5105 136.442 65.6401Z" fill="#010000"/>
<path d="M174.201 65.6401C183.072 65.6401 191.942 65.6401 201.081 65.6401C201.081 100.699 201.081 135.759 201.081 171.88C192.211 171.88 183.34 171.88 174.201 171.88C174.201 136.821 174.201 101.762 174.201 65.6401Z" fill="#050401"/>
<path d="M137.082 105.96C137.082 114.619 137.082 123.278 137.082 132.2C132.224 132.2 127.367 132.2 122.362 132.2C121.939 133.045 121.517 133.89 121.082 134.76C120.045 135.856 118.973 136.918 117.882 137.96C117.227 138.61 116.574 139.262 115.922 139.915C115.185 140.651 114.447 141.386 113.71 142.122C109.599 146.223 105.489 150.325 101.38 154.428C98.897 156.908 96.4131 159.388 93.9278 161.866C91.5201 164.267 89.1139 166.669 86.7088 169.072C85.7917 169.988 84.8741 170.904 83.9559 171.818C82.6766 173.093 81.3993 174.37 80.1225 175.647C79.7408 176.026 79.3592 176.405 78.9659 176.796C77.0712 178.641 77.0712 178.641 75.6419 180.84C73.1075 180.84 70.5731 180.84 67.9619 180.84C67.9619 183.374 67.9619 185.909 67.9619 188.52C67.7507 187.675 67.5395 186.83 67.3219 185.96C66.8995 185.96 66.4771 185.96 66.0419 185.96C66.2531 184.482 66.4643 183.003 66.6819 181.48C66.2595 181.48 65.8371 181.48 65.4019 181.48C65.4019 181.058 65.4019 180.635 65.4019 180.2C65.8243 179.989 66.2467 179.778 66.6819 179.56C66.6819 179.138 66.6819 178.715 66.6819 178.28C67.1455 178.241 67.6092 178.202 68.0869 178.162C71.2714 177.886 74.4174 177.595 77.5619 177C77.3507 176.155 77.1395 175.31 76.9219 174.44C77.3047 174.4 77.6875 174.361 78.0819 174.32C80.0501 173.589 80.4129 172.406 81.4019 170.6C81.7451 170.283 82.0883 169.966 82.4419 169.64C83.4666 168.701 83.4666 168.701 83.5619 167.12C84.1152 164.851 85.254 164.176 87.1619 162.92C87.5843 162.92 88.0067 162.92 88.4419 162.92C88.6531 162.498 88.8643 162.075 89.0819 161.64C88.4483 161.64 87.8147 161.64 87.1619 161.64C87.1619 161.218 87.1619 160.795 87.1619 160.36C86.1059 160.782 85.0499 161.205 83.9619 161.64C83.9619 162.696 83.9619 163.752 83.9619 164.84C82.3779 165.157 82.3779 165.157 80.7619 165.48C80.7619 165.058 80.7619 164.635 80.7619 164.2C80.3395 164.2 79.9171 164.2 79.4819 164.2C79.2707 165.678 79.0595 167.157 78.8419 168.68C78.2083 168.891 77.5747 169.102 76.9219 169.32C76.9219 169.742 76.9219 170.165 76.9219 170.6C76.4071 170.679 75.8923 170.758 75.3619 170.84C74.5501 171.038 74.5501 171.038 73.7219 171.24C73.5107 171.662 73.2995 172.085 73.0819 172.52C63.7891 172.52 54.4963 172.52 44.9219 172.52C44.9219 172.309 44.9219 172.098 44.9219 171.88C45.8452 172.108 45.8452 172.108 46.7873 172.34C55.5249 174.254 65.2982 174.772 73.2065 170.008C78.5815 166.142 83.322 161.585 87.9819 156.897C88.3373 156.54 88.6928 156.182 89.059 155.814C93.4929 151.333 97.8094 146.746 102.09 142.119C105.789 138.127 109.562 134.208 113.343 130.293C117.952 125.519 122.55 120.736 127.089 115.897C127.407 115.558 127.725 115.219 128.053 114.87C129.542 113.281 131.028 111.69 132.511 110.096C133.023 109.547 133.535 108.999 134.063 108.434C134.51 107.953 134.957 107.473 135.417 106.978C136.442 105.96 136.442 105.96 137.082 105.96Z" fill="#F9E037"/>
<path d="M103.801 151.4C103.801 153.737 103.015 154.398 101.488 156.075C100.545 157.153 100.545 157.153 99.8845 158.535C98.2137 161.069 96.0988 162.973 93.8959 165.045C92.9418 165.965 91.9885 166.885 91.0359 167.805C89.5404 169.246 88.0409 170.68 86.5272 172.102C85.0617 173.481 83.6179 174.881 82.1759 176.285C81.7233 176.701 81.2706 177.117 80.8043 177.545C77.3024 181.008 76.9692 183.631 76.9209 188.52C73.9641 188.52 71.0073 188.52 67.9609 188.52C67.9609 185.986 67.9609 183.452 67.9609 180.84C70.4953 180.84 73.0297 180.84 75.6409 180.84C76.0633 179.996 76.4857 179.151 76.9209 178.28C77.7598 177.332 78.6356 176.415 79.5337 175.522C80.0718 174.984 80.6099 174.446 81.1642 173.892C81.7456 173.317 82.327 172.743 82.9259 172.15C83.5208 171.557 84.1156 170.964 84.7284 170.353C86.3059 168.781 87.8872 167.212 89.4694 165.644C91.0847 164.042 92.6964 162.436 94.3084 160.83C97.4691 157.683 100.634 154.541 103.801 151.4Z" fill="#2D1E03"/>
<path d="M136.441 65.6401C145.311 65.6401 154.182 65.6401 163.321 65.6401C163.321 100.699 163.321 135.759 163.321 171.88C154.662 171.88 146.002 171.88 137.081 171.88C137.081 167.656 137.081 163.432 137.081 159.08C137.292 159.08 137.503 159.08 137.721 159.08C137.721 163.093 137.721 167.106 137.721 171.24C145.958 171.029 154.194 170.818 162.681 170.6C162.47 136.386 162.258 102.171 162.041 66.9201C153.382 66.9201 144.722 66.9201 135.801 66.9201C136.012 66.4977 136.223 66.0753 136.441 65.6401Z" fill="#0E0600"/>
<path d="M163.96 66.9204C164.171 66.9204 164.382 66.9204 164.6 66.9204C164.63 80.6668 164.653 94.4132 164.666 108.16C164.673 114.542 164.682 120.924 164.697 127.307C164.709 132.868 164.718 138.429 164.721 143.99C164.722 146.936 164.726 149.882 164.735 152.828C164.744 155.599 164.747 158.369 164.745 161.14C164.745 162.159 164.748 163.178 164.753 164.197C164.759 165.584 164.758 166.971 164.754 168.357C164.755 169.135 164.756 169.913 164.758 170.714C164.6 172.52 164.6 172.52 163.32 173.8C161.343 173.867 159.428 173.857 157.455 173.785C156.874 173.769 156.294 173.753 155.696 173.737C153.837 173.684 151.979 173.622 150.12 173.56C148.862 173.523 147.603 173.486 146.345 173.45C143.256 173.361 140.168 173.263 137.08 173.16C137.08 172.738 137.08 172.316 137.08 171.88C145.95 171.88 154.821 171.88 163.96 171.88C163.96 137.244 163.96 102.607 163.96 66.9204Z" fill="#F4E05E"/>
<path d="M201.081 66.9204C201.292 66.9204 201.504 66.9204 201.721 66.9204C201.835 80.6668 201.941 94.4132 202.038 108.16C202.083 114.542 202.131 120.924 202.184 127.307C202.231 132.868 202.273 138.429 202.309 143.99C202.329 146.936 202.351 149.882 202.378 152.828C202.403 155.599 202.423 158.369 202.438 161.14C202.444 162.159 202.453 163.178 202.464 164.197C202.479 165.584 202.486 166.971 202.491 168.358C202.497 169.135 202.503 169.913 202.509 170.714C202.361 172.52 202.361 172.52 201.081 173.8C199.432 173.875 197.859 173.873 196.214 173.808C195.729 173.793 195.244 173.779 194.745 173.764C193.717 173.732 192.688 173.697 191.66 173.659C190.099 173.601 188.537 173.553 186.975 173.507C185.974 173.474 184.974 173.441 183.974 173.408C183.511 173.393 183.048 173.378 182.571 173.363C179.734 173.255 176.999 172.967 174.201 172.52C174.201 172.309 174.201 172.098 174.201 171.88C183.072 171.88 191.942 171.88 201.081 171.88C201.081 137.244 201.081 102.607 201.081 66.9204Z" fill="#F1E357"/>
<path d="M107.754 158.705C108.983 158.713 108.983 158.713 110.237 158.722C112.408 158.736 114.578 158.774 116.748 158.817C118.966 158.856 121.184 158.873 123.402 158.893C127.749 158.935 132.095 158.999 136.441 159.08C136.441 159.291 136.441 159.503 136.441 159.72C133.484 159.72 130.527 159.72 127.481 159.72C127.27 160.354 127.059 160.987 126.841 161.64C126.253 161.656 125.666 161.672 125.06 161.689C122.875 161.75 120.69 161.813 118.505 161.879C117.56 161.906 116.616 161.933 115.671 161.959C114.311 161.996 112.951 162.036 111.591 162.078C110.773 162.101 109.956 162.125 109.113 162.149C107.437 162.253 106.035 162.427 104.441 162.92C104.441 162.287 104.441 161.653 104.441 161C104.019 161.317 103.596 161.634 103.161 161.96C100.623 163.229 98.9352 163.063 96.1211 162.92C98.9116 157.988 102.49 158.574 107.754 158.705Z" fill="#FBDF3B"/>
<path d="M136.441 105.96C136.652 105.96 136.863 105.96 137.081 105.96C137.081 114.619 137.081 123.278 137.081 132.2C132.223 132.2 127.366 132.2 122.361 132.2C121.939 133.045 121.516 133.89 121.081 134.76C118.905 137.117 116.523 139.14 114.041 141.16C114.252 140.104 114.463 139.048 114.681 137.96C115.315 137.96 115.948 137.96 116.601 137.96C116.601 137.326 116.601 136.693 116.601 136.04C117.481 134.96 117.481 134.96 118.521 134.12C118.943 134.12 119.366 134.12 119.801 134.12C119.801 133.486 119.801 132.853 119.801 132.2C120.435 132.2 121.068 132.2 121.721 132.2C121.721 131.778 121.721 131.355 121.721 130.92C128.057 130.603 128.057 130.603 134.521 130.28C135.15 124.069 135.227 117.953 135.161 111.72C133.567 110.923 132.978 111.223 131.321 111.72C131.934 110.999 132.547 110.28 133.161 109.56C133.503 109.159 133.844 108.758 134.196 108.345C134.914 107.523 135.669 106.732 136.441 105.96Z" fill="#DDC848"/>
<path d="M78.2009 179.56C77.9897 180.194 77.7785 180.827 77.5609 181.48C77.419 182.691 77.301 183.905 77.2009 185.12C77.1085 186.242 77.0161 187.364 76.9209 188.52C73.9641 188.52 71.0073 188.52 67.9609 188.52C67.9609 185.986 67.9609 183.451 67.9609 180.84C69.9193 180.694 71.8776 180.548 73.8359 180.403C75.472 180.219 76.5976 179.56 78.2009 179.56Z" fill="#1C1304"/>
<path d="M112.121 143.08C112.811 145.485 112.811 145.485 112.361 146.88C110.595 149.529 108.593 151.346 105.721 152.68C105.51 153.102 105.299 153.525 105.081 153.96C104.659 153.96 104.236 153.96 103.801 153.96C103.603 154.356 103.405 154.752 103.201 155.16C102.761 156.04 102.321 156.92 101.881 157.8C102.303 157.589 102.726 157.378 103.161 157.16C104.867 157.097 106.557 157.071 108.263 157.075C108.774 157.074 109.284 157.074 109.809 157.073C110.892 157.073 111.975 157.074 113.058 157.077C114.699 157.08 116.339 157.077 117.98 157.073C119.034 157.073 120.089 157.074 121.143 157.075C121.628 157.074 122.112 157.072 122.611 157.071C125.983 157.086 129.254 157.383 132.601 157.8C132.601 158.011 132.601 158.222 132.601 158.44C121.83 158.44 111.059 158.44 99.9609 158.44C101.149 155.469 101.669 154.747 103.801 152.68C104.076 152.196 104.352 151.712 104.636 151.213C105.891 149.208 107.348 147.729 109.041 146.08C109.618 145.515 110.194 144.95 110.788 144.368C111.228 143.943 111.668 143.518 112.121 143.08Z" fill="#0C0401"/>
<path d="M172.921 66.2803C173.132 66.2803 173.343 66.2803 173.561 66.2803C173.561 101.128 173.561 135.976 173.561 171.88C172.927 171.88 172.293 171.88 171.641 171.88C171.852 171.247 172.063 170.613 172.281 169.96C172.347 168.572 172.374 167.183 172.382 165.793C172.385 165.368 172.388 164.943 172.391 164.505C172.401 163.078 172.407 161.652 172.412 160.225C172.418 159.203 172.425 158.181 172.431 157.16C172.449 154.383 172.462 151.606 172.475 148.83C172.489 145.929 172.506 143.028 172.523 140.127C172.555 134.633 172.584 129.139 172.612 123.645C172.643 117.39 172.679 111.136 172.714 104.881C172.787 92.0144 172.855 79.1473 172.921 66.2803Z" fill="#F8E156"/>
<path d="M90.3609 168.04C90.6777 169.307 90.6777 169.307 91.0009 170.6C90.3673 170.811 89.7337 171.022 89.0809 171.24C89.0809 171.662 89.0809 172.085 89.0809 172.52C87.8121 173.6 86.5317 174.666 85.2409 175.72C85.0297 176.142 84.8185 176.565 84.6009 177C83.9673 177 83.3337 177 82.6809 177C82.6281 177.488 82.5753 177.977 82.5209 178.48C81.9432 180.55 81.3139 181.065 79.4809 182.12C79.0585 182.12 78.6361 182.12 78.2009 182.12C77.9897 183.81 77.7785 185.499 77.5609 187.24C78.1153 186.587 78.1153 186.587 78.6809 185.92C79.1561 185.511 79.6313 185.102 80.1209 184.68C81.4409 184.8 81.4409 184.8 82.6809 185.32C83.3145 185.531 83.9481 185.742 84.6009 185.96C84.3897 186.594 84.1785 187.227 83.9609 187.88C82.6937 187.669 81.4265 187.458 80.1209 187.24C79.9097 188.507 79.6985 189.774 79.4809 191.08C78.2137 191.08 76.9465 191.08 75.6409 191.08C75.6409 190.658 75.6409 190.235 75.6409 189.8C75.1938 189.815 74.7466 189.83 74.2859 189.845C73.7035 189.857 73.121 189.868 72.5209 189.88C71.9418 189.895 71.3626 189.91 70.7659 189.925C69.2409 189.8 69.2409 189.8 67.9609 188.52C70.9177 188.52 73.8745 188.52 76.9209 188.52C76.7823 187.506 76.6437 186.492 76.5009 185.448C76.5009 181.931 77.4717 180.393 79.8609 177.853C81.1074 176.653 82.3604 175.481 83.6409 174.32C84.29 173.706 84.9376 173.091 85.5834 172.474C87.1612 170.979 88.7529 169.502 90.3609 168.04Z" fill="#FCE03C"/>
<path d="M62.2006 136.04C62.8342 136.251 63.4678 136.462 64.1206 136.68C63.9812 139.12 63.5685 139.8 61.7206 141.48C61.3741 141.746 61.0276 142.011 60.6706 142.285C58.327 144.094 56.4108 146.299 54.5206 148.56C52.9642 150.403 51.3171 151.846 49.4006 153.32C48.3215 154.374 47.253 155.439 46.2006 156.52C45.7782 156.942 45.3558 157.365 44.9206 157.8C44.6835 159.288 44.6835 159.288 44.6556 161.005C44.6309 161.636 44.6061 162.267 44.5806 162.918C44.5608 163.578 44.541 164.239 44.5206 164.92C44.4835 165.919 44.4835 165.919 44.4456 166.938C44.3852 168.585 44.3304 170.232 44.2806 171.88C44.0694 171.88 43.8582 171.88 43.6406 171.88C43.6406 166.811 43.6406 161.742 43.6406 156.52C44.063 156.52 44.4854 156.52 44.9206 156.52C44.8678 156.032 44.815 155.543 44.7606 155.04C44.9206 153.32 44.9206 153.32 46.0806 152.12C46.5426 151.882 47.0046 151.645 47.4806 151.4C48.1142 151.611 48.7478 151.822 49.4006 152.04C49.4006 151.195 49.4006 150.35 49.4006 149.48C50.0342 149.48 50.6678 149.48 51.3206 149.48C51.5318 148.846 51.743 148.213 51.9606 147.56C52.1718 147.771 52.383 147.982 52.6006 148.2C53.353 147.408 53.353 147.408 54.1206 146.6C55.8006 145 55.8006 145 57.0806 145C57.0806 144.578 57.0806 144.155 57.0806 143.72C56.6582 143.509 56.2358 143.298 55.8006 143.08C56.6454 143.08 57.4902 143.08 58.3606 143.08C58.3606 142.658 58.3606 142.235 58.3606 141.8C58.783 141.8 59.2054 141.8 59.6406 141.8C59.8518 140.955 60.063 140.11 60.2806 139.24C60.9142 139.24 61.5478 139.24 62.2006 139.24C62.0818 138.831 61.963 138.422 61.8406 138C61.7482 137.564 61.6558 137.129 61.5606 136.68C61.7718 136.469 61.983 136.258 62.2006 136.04Z" fill="#E3D14C"/>
<path d="M82.6819 159.72C84.0591 161.786 84.0904 162.462 83.9619 164.84C82.9059 165.051 81.8499 165.263 80.7619 165.48C80.7619 165.058 80.7619 164.635 80.7619 164.2C80.3395 164.2 79.9171 164.2 79.4819 164.2C79.2707 165.679 79.0595 167.157 78.8419 168.68C78.2083 168.891 77.5747 169.103 76.9219 169.32C76.9219 169.743 76.9219 170.165 76.9219 170.6C76.4071 170.679 75.8923 170.759 75.3619 170.84C74.8207 170.972 74.2795 171.104 73.7219 171.24C73.5107 171.663 73.2995 172.085 73.0819 172.52C63.7891 172.52 54.4963 172.52 44.9219 172.52C44.9219 172.309 44.9219 172.098 44.9219 171.88C45.6564 171.921 46.391 171.962 47.1478 172.004C62.0026 173.366 62.0026 173.366 75.4694 168.633C78.2933 165.979 80.6596 163.024 82.6819 159.72Z" fill="#DECB45"/>
<path d="M124.281 74.6001C124.704 74.8113 125.126 75.0225 125.561 75.2401C125.377 77.4487 125.151 78.2419 123.441 79.7201C122.874 80.1425 122.306 80.5649 121.721 81.0001C121.088 81.8119 121.088 81.8119 120.441 82.6401C119.09 84.2877 117.833 85.1323 115.961 86.1201C115.91 82.4512 116.12 79.7857 118.721 77.0401C119.874 75.9326 119.874 75.9326 121.081 75.2401C122.509 75.4476 122.509 75.4476 123.641 75.8801C123.853 75.4577 124.064 75.0353 124.281 74.6001Z" fill="#F2DC37"/>
<path d="M48.7605 155.24C48.3381 156.507 47.9157 157.775 47.4805 159.08C47.0581 159.08 46.6357 159.08 46.2005 159.08C44.9117 162.947 45.1748 167.172 44.9205 171.24C53.1573 171.029 61.3941 170.818 69.8805 170.6C70.0917 170.178 70.3029 169.755 70.5205 169.32C70.9429 169.32 71.3653 169.32 71.8005 169.32C72.1173 168.37 72.1173 168.37 72.4405 167.4C73.0741 167.823 73.7077 168.245 74.3605 168.68C72.0518 171.688 72.0518 171.688 69.8311 172.166C68.2017 172.25 66.5989 172.24 64.968 172.193C64.3759 172.188 63.7838 172.184 63.1738 172.179C61.2888 172.161 59.4051 172.121 57.5205 172.08C56.2401 172.064 54.9597 172.05 53.6793 172.036C50.5459 172.001 47.4134 171.946 44.2805 171.88C44.1875 169.587 44.1307 167.295 44.0805 165C44.0537 164.35 44.0269 163.7 43.9993 163.03C43.92 158.207 43.92 158.207 45.813 156.07C47.4805 155.24 47.4805 155.24 48.7605 155.24Z" fill="#180E00"/>
<path d="M93.5612 105.32C93.9836 105.532 94.406 105.743 94.8412 105.96C94.7018 108.4 94.2891 109.08 92.4412 110.76C92.0956 111.025 91.7499 111.29 91.3937 111.563C89.1758 113.276 87.3626 115.312 85.6012 117.48C83.8874 119.487 82.1681 120.945 80.1212 122.6C79.2566 123.442 78.3983 124.291 77.5612 125.16C77.5612 124.527 77.5612 123.893 77.5612 123.24C77.1388 123.029 76.7164 122.818 76.2812 122.6C76.9148 122.6 77.5484 122.6 78.2012 122.6C78.4124 122.178 78.6236 121.756 78.8412 121.32C79.2636 121.32 79.686 121.32 80.1212 121.32C80.3324 120.476 80.5436 119.631 80.7612 118.76C81.606 118.76 82.4508 118.76 83.3212 118.76C83.11 117.704 82.8988 116.648 82.6812 115.56C83.7372 115.56 84.7932 115.56 85.8812 115.56C85.8812 114.504 85.8812 113.448 85.8812 112.36C86.5148 112.149 87.1484 111.938 87.8012 111.72C88.2236 111.932 88.646 112.143 89.0812 112.36C89.0812 111.938 89.0812 111.516 89.0812 111.08C89.5036 111.08 89.926 111.08 90.3612 111.08C90.5724 110.236 90.7836 109.391 91.0012 108.52C91.846 108.309 92.6908 108.098 93.5612 107.88C93.5612 107.036 93.5612 106.191 93.5612 105.32Z" fill="#EAD64D"/>
<path d="M136.441 65.6401C145.311 65.6401 154.182 65.6401 163.321 65.6401C163.321 68.1745 163.321 70.7089 163.321 73.3201C163.11 73.3201 162.898 73.3201 162.681 73.3201C162.47 71.2081 162.258 69.0961 162.041 66.9201C153.382 66.9201 144.722 66.9201 135.801 66.9201C136.012 66.4977 136.223 66.0753 136.441 65.6401Z" fill="#281A00"/>
<path d="M137.08 171.88C146.162 171.88 155.243 171.88 164.6 171.88C164.178 172.514 163.755 173.148 163.32 173.8C161.318 173.925 159.451 173.932 157.455 173.848C156.584 173.822 156.584 173.822 155.696 173.797C153.837 173.74 151.979 173.67 150.12 173.6C148.862 173.56 147.603 173.52 146.345 173.482C143.256 173.385 140.168 173.276 137.08 173.16C137.08 172.738 137.08 172.316 137.08 171.88Z" fill="#E5CF46"/>
<path d="M201.721 166.76C201.932 166.76 202.144 166.76 202.361 166.76C202.396 167.693 202.421 168.627 202.441 169.56C202.456 170.08 202.471 170.6 202.486 171.135C202.361 172.52 202.361 172.52 201.081 173.8C199.432 173.875 197.859 173.873 196.214 173.808C195.487 173.786 195.487 173.786 194.745 173.764C193.717 173.732 192.688 173.697 191.66 173.659C190.099 173.601 188.537 173.553 186.975 173.507C185.974 173.474 184.974 173.441 183.974 173.408C183.279 173.386 183.279 173.386 182.571 173.363C179.734 173.255 176.999 172.967 174.201 172.52C174.201 172.309 174.201 172.098 174.201 171.88C183.283 171.88 192.364 171.88 201.721 171.88C201.721 170.191 201.721 168.501 201.721 166.76Z" fill="#E4CE48"/>
<path d="M135.801 111.08C135.82 113.32 135.831 115.56 135.841 117.8C135.847 118.429 135.852 119.057 135.857 119.705C135.869 123.296 135.698 126.729 135.161 130.28C134.95 130.28 134.739 130.28 134.521 130.28C134.31 125 134.099 119.72 133.881 114.28C132.297 113.647 132.297 113.647 130.681 113C130.628 113.489 130.576 113.977 130.521 114.48C130.041 116.2 130.041 116.2 128.921 117.32C127.362 118.187 126.041 118.516 124.281 118.76C131.86 109.766 131.86 109.766 135.801 111.08Z" fill="#FAE03F"/>
<path d="M123.641 118.76C123.852 119.394 124.063 120.027 124.281 120.68C124.915 120.68 125.548 120.68 126.201 120.68C125.834 122.515 125.65 123.152 124.281 124.52C123.436 124.52 122.591 124.52 121.721 124.52C121.721 124.943 121.721 125.365 121.721 125.8C120.684 126.353 119.643 126.898 118.601 127.44C117.732 127.897 117.732 127.897 116.846 128.363C116.343 128.573 115.84 128.784 115.321 129C114.899 128.789 114.476 128.578 114.041 128.36C117.209 125.192 120.377 122.024 123.641 118.76Z" fill="#F0DA3F"/>
<path d="M107.754 158.768C108.573 158.772 109.392 158.777 110.237 158.782C112.407 158.794 114.578 158.825 116.748 158.861C118.966 158.894 121.184 158.908 123.402 158.924C127.749 158.959 132.095 159.013 136.441 159.08C136.441 159.292 136.441 159.503 136.441 159.72C124.614 159.932 112.787 160.143 100.601 160.36C100.601 160.783 100.601 161.205 100.601 161.64C99.4411 162.32 99.4411 162.32 98.0411 162.92C97.4075 162.709 96.7739 162.498 96.1211 162.28C99.05 157.966 102.918 158.668 107.754 158.768Z" fill="#F2E359"/>
<path d="M129.562 132.04C130.222 132.052 130.882 132.063 131.562 132.075C133.189 132.105 134.815 132.147 136.442 132.2C136.442 132.411 136.442 132.622 136.442 132.84C136.071 132.839 135.7 132.839 135.317 132.838C133.625 132.846 131.934 132.883 130.242 132.92C129.658 132.918 129.074 132.917 128.473 132.915C125.309 132.956 125.309 132.956 122.539 134.297C121.143 135.915 120.413 137.411 119.762 139.44C119.564 140.008 119.366 140.575 119.162 141.16C118.042 141.64 118.042 141.64 116.602 141.8C115.319 142.219 114.039 142.645 112.762 143.08C113.002 142.801 113.242 142.522 113.489 142.235C115.103 140.356 116.71 138.474 118.282 136.56C118.783 135.966 119.285 135.372 119.802 134.76C120.107 134.304 120.412 133.848 120.727 133.377C123.419 131.439 126.341 131.934 129.562 132.04Z" fill="#221602"/>
<path d="M90.3619 168.04C90.5731 168.885 90.7843 169.73 91.0019 170.6C90.3683 170.811 89.7347 171.022 89.0819 171.24C89.0819 171.662 89.0819 172.085 89.0819 172.52C87.813 173.6 86.5326 174.666 85.2419 175.72C85.0307 176.142 84.8195 176.565 84.6019 177C83.9683 177 83.3347 177 82.6819 177C82.6291 177.488 82.5763 177.977 82.5219 178.48C82.0419 180.2 82.0419 180.2 80.8819 181.4C79.4819 182.12 79.4819 182.12 76.9219 181.48C81.3571 177.045 85.7923 172.61 90.3619 168.04Z" fill="#DACC4B"/>
<path d="M107.642 139.88C107.642 140.303 107.642 140.725 107.642 141.16C108.064 141.372 108.486 141.583 108.922 141.8C108.288 142.012 107.654 142.223 107.002 142.44C105.987 143.544 105.097 144.712 104.184 145.9C103.01 147.071 102.218 147.309 100.602 147.56C100.602 145.871 100.602 144.181 100.602 142.44C101.658 142.229 102.714 142.018 103.802 141.8C103.802 141.378 103.802 140.956 103.802 140.52C105.082 139.88 105.082 139.88 107.642 139.88Z" fill="#FBE02B"/>
<path d="M113.402 141.16C112.469 143.313 111.282 144.709 109.617 146.35C109.13 146.833 108.643 147.315 108.142 147.813C107.633 148.31 107.125 148.808 106.602 149.32C106.088 149.828 105.575 150.335 105.047 150.858C103.781 152.108 102.513 153.355 101.242 154.6C101.03 153.755 100.819 152.911 100.602 152.04C101.024 152.04 101.446 152.04 101.882 152.04C101.882 151.618 101.882 151.195 101.882 150.76C102.515 150.76 103.149 150.76 103.802 150.76C104.013 150.127 104.224 149.493 104.442 148.84C104.864 148.84 105.286 148.84 105.722 148.84C105.722 148.207 105.722 147.573 105.722 146.92C106.566 146.709 107.411 146.498 108.282 146.28C108.07 145.435 107.859 144.591 107.642 143.72C108.275 143.72 108.909 143.72 109.562 143.72C109.773 143.087 109.984 142.453 110.202 141.8C112.122 141.16 112.122 141.16 113.402 141.16Z" fill="#E4D252"/>
<path d="M114.041 84.8403C114.464 85.0515 114.886 85.2627 115.321 85.4803C115.14 87.6537 114.925 88.4705 113.241 89.9203C112.661 90.3559 112.08 90.7915 111.481 91.2403C110.353 92.479 109.325 93.7677 108.281 95.0803C107.648 94.6579 107.014 94.2355 106.361 93.8003C106.361 93.3779 106.361 92.9555 106.361 92.5203C106.784 92.5203 107.206 92.5203 107.641 92.5203C107.853 91.6755 108.064 90.8307 108.281 89.9603C109.126 89.7491 109.971 89.5379 110.841 89.3203C110.841 88.8979 110.841 88.4755 110.841 88.0403C111.475 88.0403 112.109 88.0403 112.761 88.0403C112.973 87.4067 113.184 86.7731 113.401 86.1203C113.613 85.6979 113.824 85.2755 114.041 84.8403Z" fill="#EBD943"/>
<path d="M64.7602 137.32C64.9714 137.32 65.1826 137.32 65.4002 137.32C65.6002 138.8 65.6002 138.8 65.4002 140.52C63.9602 141.48 63.9602 141.48 62.2002 142.44C60.7843 144.023 59.7326 145.451 58.8002 147.36C57.2822 149.441 55.6952 149.611 53.2402 150.12C54.6024 147.539 56.0778 146.142 58.3602 144.36C59.2267 143.304 60.0798 142.237 60.9202 141.16C61.9746 140.081 63.0391 139.012 64.1202 137.96C64.3314 137.749 64.5426 137.538 64.7602 137.32Z" fill="#281C08"/>
<path d="M43 159.72C43.2112 159.72 43.4224 159.72 43.64 159.72C43.64 163.733 43.64 167.746 43.64 171.88C50.8208 172.091 58.0016 172.303 65.4 172.52C65.4 172.731 65.4 172.943 65.4 173.16C62.5185 173.252 59.637 173.343 56.7555 173.434C55.7753 173.465 54.795 173.496 53.8148 173.527C52.4057 173.572 50.9966 173.616 49.5875 173.66C48.9304 173.681 48.9304 173.681 48.26 173.703C46.5056 173.757 44.7555 173.8 43 173.8C43 169.154 43 164.507 43 159.72Z" fill="#F7E04F"/>
<path d="M103.8 95.0801C104.223 95.2913 104.645 95.5025 105.08 95.7201C104.941 98.1598 104.528 98.8402 102.68 100.52C102.336 100.782 101.992 101.043 101.638 101.313C100.435 102.214 100.435 102.214 98.8805 103.84C97.4005 105.32 97.4005 105.32 95.4805 106.6C95.6805 104.44 95.6805 104.44 96.1205 102.12C98.0405 100.84 98.0405 100.84 100.6 100.84C100.812 99.9953 101.023 99.1505 101.24 98.2801C101.663 98.2801 102.085 98.2801 102.52 98.2801C102.732 97.6465 102.943 97.0129 103.16 96.3601C103.372 95.9377 103.583 95.5153 103.8 95.0801Z" fill="#EBD84C"/>
<path d="M72.4404 125.8C73.074 125.8 73.7076 125.8 74.3604 125.8C74.5716 126.434 74.7828 127.067 75.0004 127.72C74.5648 128.143 74.1292 128.565 73.6804 129C71.4373 131.237 69.3862 133.641 67.3204 136.04C66.6868 135.407 66.0532 134.773 65.4004 134.12C65.8228 133.275 66.2452 132.431 66.6804 131.56C67.7471 131.56 68.8137 131.56 69.8804 131.56C70.3028 130.715 70.7252 129.871 71.1604 129C71.5828 129 72.0052 129 72.4404 129C72.2622 128.386 72.2622 128.386 72.0804 127.76C71.988 127.325 71.8956 126.889 71.8004 126.44C72.0116 126.229 72.2228 126.018 72.4404 125.8Z" fill="#E7D347"/>
<path d="M110.202 132.2C110.413 133.045 110.624 133.89 110.842 134.76C110.208 134.971 109.574 135.183 108.922 135.4C108.842 135.783 108.763 136.166 108.682 136.56C108.092 138.625 106.812 139.338 105.082 140.52C104.659 140.52 104.237 140.52 103.802 140.52C103.802 140.943 103.802 141.365 103.802 141.8C102.746 142.011 101.69 142.223 100.602 142.44C103.608 138.817 106.84 135.495 110.202 132.2Z" fill="#E6D44D"/>
<path d="M46.8406 151.4C47.263 151.612 47.6854 151.823 48.1206 152.04C48.5206 153.36 48.5206 153.36 48.7606 154.6C48.1386 154.979 47.5165 155.358 46.8756 155.748C45.4617 156.926 44.9743 157.575 44.5437 159.384C44.3992 161.277 44.3558 163.142 44.3606 165.04C44.3474 165.698 44.3342 166.355 44.3206 167.032C44.2905 168.648 44.2778 170.263 44.2806 171.88C44.0694 171.88 43.8582 171.88 43.6406 171.88C43.6406 166.812 43.6406 161.743 43.6406 156.52C44.063 156.52 44.4854 156.52 44.9206 156.52C44.8612 155.788 44.8612 155.788 44.8006 155.04C44.9206 153.32 44.9206 153.32 45.8806 152.16C46.1974 151.91 46.5142 151.659 46.8406 151.4Z" fill="#D5C247"/>
<path d="M136.442 105.32C135.38 108.088 133.324 109.861 131.242 111.88C130.881 112.235 130.521 112.59 130.149 112.955C129.263 113.827 128.373 114.694 127.482 115.56C127.082 114.373 127.082 114.373 126.842 113C128.122 111.52 128.122 111.52 129.017 110.72C130.595 109.304 132.013 107.731 133.467 106.188C134.522 105.32 134.522 105.32 136.442 105.32Z" fill="#170B01"/>
<path d="M174.842 66.2803C183.29 66.2803 191.738 66.2803 200.442 66.2803C200.231 66.9139 200.019 67.5475 199.802 68.2003C199.379 67.9891 198.957 67.7779 198.522 67.5603C195.633 67.4243 192.742 67.4414 189.851 67.4417C188.414 67.4403 186.977 67.4287 185.541 67.4165C184.623 67.4146 183.706 67.4134 182.789 67.4128C181.956 67.4101 181.123 67.4075 180.265 67.4048C178.157 67.5522 176.729 67.9268 174.842 68.8403C174.842 67.9955 174.842 67.1507 174.842 66.2803ZM198.522 68.2003C199.802 68.8403 199.802 68.8403 199.802 68.8403L198.522 68.2003Z" fill="#0D0400"/>
<path d="M76.2804 125.8C76.2804 128.705 76.2804 128.705 75.6404 130.28C74.0004 131.4 74.0004 131.4 72.4404 132.2C72.6516 132.623 72.8628 133.045 73.0804 133.48C72.1498 133.916 72.1498 133.916 71.2004 134.36C69.1951 135.181 69.1951 135.181 68.6004 136.68C66.9604 137.08 66.9604 137.08 65.4004 137.32C67.6347 134.554 69.9458 132.172 72.6879 129.91C74.0802 128.683 75.1836 127.292 76.2804 125.8Z" fill="#2B210B"/>
<path d="M66.6804 178.28C67.0335 178.483 67.3866 178.686 67.7504 178.895C69.4226 179.642 70.7801 179.817 72.6004 179.96C73.1713 180.008 73.7422 180.056 74.3304 180.105C74.9788 180.152 74.9788 180.152 75.6404 180.2C75.6404 180.411 75.6404 180.623 75.6404 180.84C73.106 180.84 70.5716 180.84 67.9604 180.84C67.9604 183.375 67.9604 185.909 67.9604 188.52C67.7492 187.675 67.538 186.831 67.3204 185.96C66.898 185.96 66.4756 185.96 66.0404 185.96C66.2516 184.482 66.4628 183.003 66.6804 181.48C66.258 181.48 65.8356 181.48 65.4004 181.48C65.4004 181.058 65.4004 180.635 65.4004 180.2C65.8228 179.989 66.2452 179.778 66.6804 179.56C66.6804 179.138 66.6804 178.715 66.6804 178.28Z" fill="#E4D146"/>
<path d="M48.7605 155.24C48.3381 156.507 47.9157 157.775 47.4805 159.08C47.0581 159.08 46.6357 159.08 46.2005 159.08C45.6474 160.739 45.448 161.858 45.358 163.568C45.3312 164.052 45.3044 164.537 45.2768 165.036C45.2516 165.539 45.2265 166.042 45.2005 166.56C45.1591 167.326 45.1591 167.326 45.1168 168.106C45.049 169.364 44.9844 170.622 44.9205 171.88C44.7093 171.88 44.4981 171.88 44.2805 171.88C44.1875 169.587 44.1307 167.295 44.0805 165C44.0537 164.35 44.0269 163.7 43.9993 163.03C43.92 158.207 43.92 158.207 45.813 156.07C47.4805 155.24 47.4805 155.24 48.7605 155.24Z" fill="#211604"/>
<path d="M76.9209 182.12C77.1321 182.12 77.3433 182.12 77.5609 182.12C77.7721 184.443 77.9833 186.767 78.2009 189.16C75.6364 190.442 75.0385 190.584 72.3609 190.28C71.8049 190.224 71.2488 190.168 70.6759 190.11C69.2409 189.8 69.2409 189.8 67.9609 188.52C70.9177 188.52 73.8745 188.52 76.9209 188.52C76.9209 186.408 76.9209 184.296 76.9209 182.12Z" fill="#ECDD55"/>
<path d="M89.7203 152.68C90.3603 154.6 90.3603 154.6 90.3603 156.52C89.7267 156.52 89.0931 156.52 88.4403 156.52C88.3083 156.929 88.1763 157.339 88.0403 157.76C87.1603 159.08 87.1603 159.08 85.1603 159.56C84.2495 159.639 84.2495 159.639 83.3203 159.72C85.3732 157.284 87.4211 154.891 89.7203 152.68Z" fill="#E2D04D"/>
<path d="M123.002 79.0801C123.002 81.7244 122.591 82.6675 120.802 84.6401C119.162 86.1201 119.162 86.1201 117.882 86.1201C117.459 87.1761 117.037 88.2321 116.602 89.3201C115.968 88.8977 115.334 88.4753 114.682 88.0401C116.706 85.5528 118.78 83.2409 121.082 81.0001C121.464 80.6173 121.847 80.2345 122.242 79.8401C122.492 79.5893 122.743 79.3385 123.002 79.0801Z" fill="#31260B"/>
<path d="M77.5608 164.84C77.9608 166 77.9608 166 78.2008 167.4C77.5672 168.351 77.5672 168.351 76.9208 169.32C76.9208 169.743 76.9208 170.165 76.9208 170.6C76.406 170.68 75.8912 170.759 75.3608 170.84C74.8196 170.972 74.2784 171.104 73.7208 171.24C73.5096 171.663 73.2984 172.085 73.0808 172.52C72.6584 172.52 72.236 172.52 71.8008 172.52C72.1527 170.04 73.2571 168.939 75.0408 167.24C75.5102 166.788 75.9796 166.336 76.4633 165.87C76.8255 165.53 77.1876 165.191 77.5608 164.84Z" fill="#E6D250"/>
<path d="M55.8011 145C56.2235 145.211 56.6459 145.422 57.0811 145.64C54.362 148.971 51.7267 151.605 48.1211 153.96C48.1211 153.326 48.1211 152.693 48.1211 152.04C48.5435 152.04 48.9659 152.04 49.4011 152.04C49.4011 151.195 49.4011 150.35 49.4011 149.48C50.0347 149.48 50.6683 149.48 51.3211 149.48C51.5323 148.846 51.7435 148.213 51.9611 147.56C52.1723 147.771 52.3835 147.982 52.6011 148.2C53.6571 147.144 54.7131 146.088 55.8011 145Z" fill="#E8D651"/>
<path d="M112.121 143.08C112.506 144.255 112.506 144.255 112.761 145.64C111.192 148.176 109.803 149.209 107.001 150.12C106.144 150.538 105.29 150.963 104.441 151.4C106.876 148.481 109.401 145.736 112.121 143.08Z" fill="#211501"/>
<path d="M119.801 132.2C120.646 132.2 121.491 132.2 122.361 132.2C120.772 136.101 117.219 138.573 114.041 141.16C114.252 140.104 114.463 139.048 114.681 137.96C115.315 137.96 115.948 137.96 116.601 137.96C116.601 137.327 116.601 136.693 116.601 136.04C117.481 134.96 117.481 134.96 118.521 134.12C118.943 134.12 119.366 134.12 119.801 134.12C119.801 133.487 119.801 132.853 119.801 132.2Z" fill="#DECD57"/>
<path d="M93.5602 105.32C93.9826 105.532 94.405 105.743 94.8402 105.96C94.699 108.431 94.2733 109.094 92.4002 110.8C92.0578 111.061 91.7154 111.322 91.3627 111.59C90.0598 112.591 88.9381 113.739 87.8002 114.92C87.589 113.864 87.3778 112.808 87.1602 111.72C87.7938 111.932 88.4274 112.143 89.0802 112.36C89.0802 111.938 89.0802 111.516 89.0802 111.08C89.5026 111.08 89.925 111.08 90.3602 111.08C90.5714 110.236 90.7826 109.391 91.0002 108.52C91.845 108.309 92.6898 108.098 93.5602 107.88C93.5602 107.036 93.5602 106.191 93.5602 105.32Z" fill="#E1D04A"/>
<path d="M113.402 129C113.613 129.634 113.824 130.267 114.042 130.92C114.464 130.92 114.887 130.92 115.322 130.92C114.955 132.755 114.77 133.391 113.402 134.76C112.042 134.52 112.042 134.52 110.842 134.12C111.161 131.76 111.546 130.533 113.402 129Z" fill="#F0D941"/>
<path d="M85.2418 116.84C85.453 117.685 85.6642 118.53 85.8818 119.4C84.8258 120.245 83.7698 121.09 82.6818 121.96C82.893 122.383 83.1042 122.805 83.3218 123.24C81.8434 123.663 80.365 124.085 78.8418 124.52C80.1979 121.951 81.6741 120.52 83.9618 118.76C84.3842 118.127 84.8066 117.493 85.2418 116.84Z" fill="#2E2209"/>
<path d="M130.681 111.72C130.892 112.143 131.104 112.565 131.321 113C130.409 115.522 129.73 116.632 127.441 118.08C126.821 118.305 126.2 118.529 125.561 118.76C125.139 118.549 124.716 118.338 124.281 118.12C126.393 116.008 128.505 113.896 130.681 111.72Z" fill="#E0CD4E"/>
<path d="M75.6416 177.64C75.6416 178.485 75.6416 179.33 75.6416 180.2C73.3184 180.2 70.9952 180.2 68.6016 180.2C68.8128 179.567 69.024 178.933 69.2416 178.28C73.4816 177.64 73.4816 177.64 75.6416 177.64Z" fill="#F7E145"/>
<path d="M101.882 100.2C102.304 100.623 102.727 101.045 103.162 101.48C101.144 104.305 98.9668 105.965 96.1218 107.88C95.6994 107.669 95.277 107.458 94.8418 107.24C95.1355 107 95.4292 106.76 95.7318 106.513C98.0629 104.568 100.072 102.662 101.882 100.2Z" fill="#31260B"/>
<path d="M105.082 141.16C104.962 142.32 104.962 142.32 104.442 143.72C101.699 145.64 101.699 145.64 100.602 145.64C100.602 144.584 100.602 143.528 100.602 142.44C103.642 141.16 103.642 141.16 105.082 141.16Z" fill="#FAE13B"/>
<path d="M112.76 89.3203C112.971 89.9539 113.182 90.5875 113.4 91.2403C111.164 93.542 108.849 95.6144 106.36 97.6403C105.938 97.4291 105.515 97.2179 105.08 97.0003C105.42 96.714 105.76 96.4278 106.11 96.1328C108.587 94.0133 110.831 91.9727 112.76 89.3203Z" fill="#32260B"/>
<path d="M136.44 107.24C136.56 108.76 136.56 108.76 136.44 110.44C134.52 111.72 134.52 111.72 132.6 111.72C132.178 111.509 131.756 111.298 131.32 111.08C131.93 110.436 132.544 109.797 133.16 109.16C133.502 108.804 133.843 108.447 134.195 108.08C135.16 107.24 135.16 107.24 136.44 107.24Z" fill="#E4D253"/>
<path d="M80.1205 180.2C80.7541 180.2 81.3877 180.2 82.0405 180.2C82.0405 180.834 82.0405 181.467 82.0405 182.12C81.6181 182.12 81.1957 182.12 80.7605 182.12C80.7605 182.543 80.7605 182.965 80.7605 183.4C79.9157 183.4 79.0709 183.4 78.2005 183.4C78.2005 184.667 78.2005 185.935 78.2005 187.24C77.9893 187.24 77.7781 187.24 77.5605 187.24C77.5605 185.551 77.5605 183.861 77.5605 182.12C78.4053 181.698 79.2501 181.275 80.1205 180.84C80.1205 180.629 80.1205 180.418 80.1205 180.2Z" fill="#F6E03B"/>
<path d="M103.8 136.04C104.645 136.251 105.49 136.462 106.36 136.68C104.882 138.158 103.403 139.637 101.88 141.16C101.669 140.315 101.458 139.47 101.24 138.6C101.874 138.389 102.507 138.178 103.16 137.96C103.371 137.326 103.583 136.693 103.8 136.04Z" fill="#190C00"/>
<path d="M123.001 133.48C124.057 133.48 125.113 133.48 126.201 133.48C125.401 134.76 125.401 134.76 124.281 136.04C123.436 136.04 122.591 136.04 121.721 136.04C122.143 135.195 122.566 134.35 123.001 133.48ZM121.081 136.04C121.292 136.462 121.503 136.885 121.721 137.32C121.087 137.954 120.454 138.587 119.801 139.24C120.361 136.76 120.361 136.76 121.081 136.04Z" fill="#09030A"/>
<path d="M119.161 123.88C119.161 124.936 119.161 125.992 119.161 127.08C117.904 127.764 116.621 128.402 115.321 129C114.899 128.789 114.476 128.578 114.041 128.36C114.772 127.612 115.506 126.866 116.241 126.12C116.649 125.705 117.058 125.289 117.479 124.86C118.521 123.88 118.521 123.88 119.161 123.88Z" fill="#DECC52"/>
<path d="M67.3204 130.92C67.954 131.765 68.5876 132.61 69.2404 133.48C68.3956 134.325 67.5508 135.17 66.6804 136.04C66.258 134.984 65.8356 133.928 65.4004 132.84C66.034 132.207 66.6676 131.573 67.3204 130.92Z" fill="#E1CE40"/>
<path d="M110.201 90.6001C110.624 90.8113 111.046 91.0225 111.481 91.2401C110.425 92.5073 109.369 93.7745 108.281 95.0801C107.648 94.6577 107.014 94.2353 106.361 93.8001C106.361 93.3777 106.361 92.9553 106.361 92.5201C106.784 92.5201 107.206 92.5201 107.641 92.5201C107.853 92.0977 108.064 91.6753 108.281 91.2401C108.915 91.4513 109.549 91.6625 110.201 91.8801C110.201 91.4577 110.201 91.0353 110.201 90.6001Z" fill="#D9C648"/>
<path d="M128.122 73.96C128.544 73.96 128.967 73.96 129.402 73.96C129.402 74.5936 129.402 75.2272 129.402 75.88C128.979 75.88 128.557 75.88 128.122 75.88C127.699 76.936 127.277 77.992 126.842 79.08C126.208 78.6576 125.575 78.2352 124.922 77.8C125.956 76.4936 127.025 75.2139 128.122 73.96Z" fill="#261E0A"/>
<path d="M134.521 65C134.943 65.8448 135.366 66.6896 135.801 67.56C134.843 68.3517 133.884 69.1433 132.926 69.935C132.146 70.6016 131.406 71.3146 130.681 72.04C130.47 70.984 130.259 69.928 130.041 68.84C130.886 68.84 131.731 68.84 132.601 68.84C132.601 68.4176 132.601 67.9952 132.601 67.56C133.235 67.56 133.868 67.56 134.521 67.56C134.521 66.7152 134.521 65.8704 134.521 65Z" fill="#E2D14F"/>
<path d="M101.121 159.2C101.583 159.372 102.045 159.543 102.521 159.72C101.887 159.931 101.254 160.143 100.601 160.36C100.601 160.783 100.601 161.205 100.601 161.64C99.4411 162.32 99.4411 162.32 98.0411 162.92C97.4075 162.709 96.7739 162.498 96.1211 162.28C98.878 159.051 98.878 159.051 101.121 159.2Z" fill="#E4D34F"/>
<path d="M93.56 146.28C94.4048 146.491 95.2496 146.703 96.12 146.92C93.9024 148.821 93.9024 148.821 91.64 150.76C91.4288 150.127 91.2176 149.493 91 148.84C92.12 147.52 92.12 147.52 93.56 146.28Z" fill="#180C01"/>
<path d="M99.9605 142.44C100.172 143.285 100.383 144.13 100.6 145C99.9669 145.211 99.3333 145.422 98.6805 145.64C98.6805 146.062 98.6805 146.485 98.6805 146.92C97.6245 147.131 96.5685 147.342 95.4805 147.56C96.1068 146.826 96.7336 146.093 97.3605 145.36C97.7094 144.952 98.0584 144.543 98.418 144.122C98.916 143.547 99.4225 142.978 99.9605 142.44Z" fill="#DDCC50"/>
<path d="M110.201 132.2C110.412 133.045 110.623 133.89 110.841 134.76C110.207 134.971 109.574 135.183 108.921 135.4C108.921 135.823 108.921 136.245 108.921 136.68C107.865 136.891 106.809 137.103 105.721 137.32C106.347 136.587 106.974 135.853 107.601 135.12C107.95 134.712 108.299 134.303 108.658 133.883C109.156 133.307 109.663 132.738 110.201 132.2Z" fill="#DCCB50"/>
<path d="M94.8413 147.56C95.2813 148.72 95.2813 148.72 95.4813 150.12C94.4285 151.699 93.6874 152.008 91.8413 152.48C91.1087 152.579 91.1087 152.579 90.3613 152.68C90.9877 151.946 91.6144 151.213 92.2413 150.48C92.5903 150.072 92.9393 149.663 93.2988 149.243C93.7968 148.667 94.3033 148.098 94.8413 147.56Z" fill="#DACB4E"/>
<path d="M62.2019 136.04C62.8355 136.251 63.4691 136.462 64.1219 136.68C63.9219 138.2 63.9219 138.2 63.4819 139.88C62.8483 140.302 62.2147 140.725 61.5619 141.16C61.3507 140.526 61.1395 139.893 60.9219 139.24C61.3443 139.24 61.7667 139.24 62.2019 139.24C62.0237 138.626 62.0237 138.626 61.8419 138C61.7033 137.347 61.7033 137.347 61.5619 136.68C61.7731 136.469 61.9843 136.258 62.2019 136.04Z" fill="#DDCB46"/>
<path d="M118.52 79.7202C119.576 79.9314 120.632 80.1426 121.72 80.3602C119.96 83.4802 119.96 83.4802 118.52 84.2002C118.52 83.7778 118.52 83.3554 118.52 82.9202C118.098 82.709 117.675 82.4978 117.24 82.2802C117.663 82.069 118.085 81.8578 118.52 81.6402C118.52 81.0066 118.52 80.373 118.52 79.7202Z" fill="#DDCC49"/>
<path d="M201.721 68.2002C202.354 68.2002 202.988 68.2002 203.641 68.2002C203.641 69.6786 203.641 71.157 203.641 72.6802C203.007 72.6802 202.374 72.6802 201.721 72.6802C201.721 71.2018 201.721 69.7234 201.721 68.2002Z" fill="#F9E140"/>
<path d="M82.6817 169.32C83.1041 169.532 83.5265 169.743 83.9617 169.96C83.7505 170.805 83.5393 171.65 83.3217 172.52C82.4769 172.732 81.6321 172.943 80.7617 173.16C80.7617 171.24 80.7617 171.24 81.7217 170.16C82.1969 169.745 82.1969 169.745 82.6817 169.32Z" fill="#F5DE44"/>
<path d="M95.48 162.92C95.48 164.84 95.48 164.84 94.84 166.76C92.88 167.52 92.88 167.52 91 168.04C91.6263 167.307 92.2531 166.574 92.88 165.84C93.229 165.432 93.5779 165.024 93.9375 164.603C94.4355 164.028 94.942 163.458 95.48 162.92Z" fill="#DACC51"/>
<path d="M92.2813 167.4C92.4925 167.823 92.7037 168.245 92.9213 168.68C93.3437 168.892 93.7661 169.103 94.2013 169.32C93.3565 169.954 92.5117 170.588 91.6413 171.24C91.2189 171.029 90.7965 170.818 90.3613 170.6C90.6013 169.36 90.6013 169.36 91.0013 168.04C91.4237 167.829 91.8461 167.618 92.2813 167.4Z" fill="#FBE342"/>
<path d="M103.801 95.0801C104.224 95.2913 104.646 95.5025 105.081 95.7201C104.881 97.2401 104.881 97.2401 104.441 98.9201C103.808 99.3425 103.174 99.7649 102.521 100.2C102.521 98.1792 102.903 96.8773 103.801 95.0801Z" fill="#D6C543"/>
<path d="M117.241 81C117.875 81.2112 118.508 81.4224 119.161 81.64C118.361 83.978 118.092 84.6996 115.961 86.12C116.521 81.72 116.521 81.72 117.241 81Z" fill="#F4DF4C"/>
<path d="M133.881 68.2002C134.092 68.8338 134.303 69.4674 134.521 70.1202C133.465 71.1762 132.409 72.2322 131.321 73.3202C130.899 73.109 130.476 72.8978 130.041 72.6802C131.308 71.2018 132.575 69.7234 133.881 68.2002Z" fill="#34260A"/>
<path d="M96.1205 162.92C97.1765 163.132 98.2325 163.343 99.3205 163.56C99.5317 164.194 99.7429 164.828 99.9605 165.48C98.4821 165.269 97.0037 165.058 95.4805 164.84C95.6917 164.207 95.9029 163.573 96.1205 162.92Z" fill="#FAE042"/>
<path d="M57.7202 146.92C57.7202 147.554 57.7202 148.188 57.7202 148.84C56.2418 149.263 54.7634 149.685 53.2402 150.12C53.7602 148.88 53.7602 148.88 54.5202 147.56C56.4402 146.92 56.4402 146.92 57.7202 146.92Z" fill="#1A1404"/>
<path d="M113.401 141.16C112.524 143.183 112.128 143.715 110.201 145C110.201 143.944 110.201 142.888 110.201 141.8C112.121 141.16 112.121 141.16 113.401 141.16Z" fill="#DED146"/>
<path d="M71.1616 129C71.7952 129.211 72.4288 129.422 73.0816 129.64C70.864 131.541 70.864 131.541 68.6016 133.48C68.6016 132.846 68.6016 132.213 68.6016 131.56C69.024 131.56 69.4464 131.56 69.8816 131.56C70.304 130.715 70.7264 129.87 71.1616 129Z" fill="#F1E159"/>
<path d="M85.2416 116.84C85.6816 118 85.6816 118 85.8816 119.4C85.0416 120.52 85.0416 120.52 83.9616 121.32C83.5392 121.32 83.1168 121.32 82.6816 121.32C82.6816 119.4 82.6816 119.4 83.9616 118C84.384 117.618 84.8064 117.235 85.2416 116.84Z" fill="#251907"/>
<path d="M94.8406 107.88C95.263 108.092 95.6854 108.303 96.1206 108.52C95.0646 109.365 94.0086 110.21 92.9206 111.08C94.1206 108.6 94.1206 108.6 94.8406 107.88ZM92.2806 111.08C92.703 111.292 93.1254 111.503 93.5606 111.72C93.5606 112.143 93.5606 112.565 93.5606 113C92.927 112.789 92.2934 112.578 91.6406 112.36C91.8518 111.938 92.063 111.516 92.2806 111.08Z" fill="#0E0501"/>
<path d="M117.882 85.48C119.162 86.12 119.162 86.12 119.162 86.12L117.882 85.48ZM115.962 86.12C116.595 86.12 117.229 86.12 117.882 86.12C117.459 87.176 117.037 88.232 116.602 89.32C115.968 88.8976 115.334 88.4752 114.682 88.04C115.104 87.4064 115.526 86.7728 115.962 86.12Z" fill="#1B1304"/>
</svg>
