<svg width="48" height="48" viewBox="0 0 48 48" fill="none" xmlns="http://www.w3.org/2000/svg">
<rect width="48" height="48" rx="24" fill="black"/>
<path d="M22.9691 3.59521C23.6071 3.22689 24.3931 3.22689 25.031 3.59521L31.8972 7.55943C32.5352 7.92775 32.9282 8.60842 32.9282 9.34505V17.2735C32.9282 18.0101 32.5352 18.6908 31.8972 19.0591L25.031 23.0233C24.3931 23.3917 23.6071 23.3917 22.9691 23.0233L16.1029 19.0591C15.465 18.6908 15.072 18.0101 15.072 17.2735V9.34505C15.072 8.60842 15.465 7.92775 16.1029 7.55943L22.9691 3.59521Z" fill="#FFFF00"/>
<path d="M13.2783 20.2963C13.9163 19.9279 14.7023 19.9279 15.3402 20.2963L22.2064 24.2605C22.8444 24.6288 23.2374 25.3095 23.2374 26.0461V33.9746C23.2374 34.7112 22.8444 35.3919 22.2064 35.7602L15.3402 39.7244C14.7023 40.0927 13.9163 40.0927 13.2784 39.7244L6.41211 35.7602C5.77417 35.3919 5.38118 34.7112 5.38118 33.9746V26.0461C5.38118 25.3095 5.77417 24.6288 6.41211 24.2605L13.2783 20.2963Z" fill="#009BED"/>
<path d="M32.6598 20.2963C33.2978 19.9279 34.0837 19.9279 34.7217 20.2963L41.5879 24.2605C42.2259 24.6288 42.6188 25.3095 42.6188 26.0461V33.9746C42.6188 34.7112 42.2259 35.3919 41.5879 35.7602L34.7217 39.7244C34.0837 40.0927 33.2978 40.0927 32.6598 39.7244L25.7936 35.7602C25.1556 35.3919 24.7627 34.7112 24.7627 33.9746V26.0461C24.7627 25.3095 25.1556 24.6288 25.7936 24.2605L32.6598 20.2963Z" fill="#FF331F"/>
</svg>
