<svg width="256" height="256" viewBox="0 0 256 256" fill="none" xmlns="http://www.w3.org/2000/svg">
<g clip-path="url(#clip0_1253_847)">
<path d="M252.5 128C252.5 196.759 196.759 252.5 128 252.5C59.2405 252.5 3.5 196.759 3.5 128C3.5 59.2405 59.2405 3.5 128 3.5C196.759 3.5 252.5 59.2405 252.5 128Z" fill="black" stroke="#FCFC03" stroke-width="7"/>
<path d="M79.5676 50.304L85.5464 45.0286C89.0636 41.9252 92.9845 39.3119 97.2025 37.2599L103.12 34.3809L108.676 32.1586C112.694 30.5514 116.911 29.4944 121.212 29.0165C124.841 28.6133 128.504 28.6251 132.13 29.0517L137.952 29.7367L145.982 31.6262C148.145 32.135 150.267 32.8048 152.329 33.6299C156.868 35.4452 161.076 37.9942 164.787 41.175L177.76 52.2944L187.974 74.1482C190.652 79.8771 192.262 86.0463 192.726 92.353L193.319 100.417C193.561 103.713 193.488 107.024 193.102 110.306L192.118 118.677C191.398 124.796 189.596 130.739 186.796 136.229L178.423 152.643L162.927 172.28C160.439 175.433 158.325 178.864 156.627 182.503L145.25 206.881L135.295 218.68C131.24 223.486 123.757 223.231 120.039 218.16L110.134 202.754C108.777 200.643 107.575 198.436 106.537 196.152L101.199 184.408C99.1728 179.951 96.5274 175.802 93.3411 172.085L82.4067 159.328C79.6398 156.1 77.2792 152.545 75.3778 148.742L70.2563 138.499C67.2052 132.397 65.3847 125.754 64.8987 118.949L63.8272 103.948C63.2703 96.1511 64.4783 88.3289 67.3615 81.0633L79.5676 50.304Z" fill="#E1E4E4"/>
<path d="M196.998 100.834C196.727 120.109 190.448 138.571 178.645 155.092C173.443 162.371 167.773 169.31 162.344 176.419C157.047 183.358 153.648 191.323 150.146 199.244C147.003 206.346 143.413 213.234 137.427 218.401C129.756 225.023 126.042 224.653 118.781 218.703C112.525 213.565 108.744 206.567 105.499 199.289C101.798 190.984 98.1427 182.664 92.6112 175.371C87.424 168.535 81.9952 161.869 77.0573 154.863C64.5438 137.117 58.0086 117.325 59.1223 95.4889C60.463 69.3786 72.5222 49.4027 94.8826 36.0264C107.52 28.4671 121.36 25.78 135.918 27.5001C151.699 29.3604 165.186 36.2404 176.286 47.6384C190.045 61.7751 197.137 79.898 196.998 100.834ZM191.115 109.544C190.58 105.034 190.375 100.457 189.437 96.0281C188.104 89.7312 186.074 83.5892 184.623 77.3142C181.634 64.4031 176.14 52.9387 165.912 44.2869C151.039 31.7079 133.874 27.6403 115.045 31.8481C96.0402 36.1002 82.1636 47.2619 74.9692 65.6359C71.5845 74.273 69.5184 83.4636 67.2619 92.5069C64.1115 105.13 64.705 117.731 68.3828 130.207C72.5589 144.373 80.2956 156.377 91.0798 166.172C98.7068 173.097 104.238 181.062 107.271 190.888C108.377 194.461 109.638 197.996 111.001 201.481C113.536 207.963 116.979 213.92 122.386 218.393C127.683 222.771 128.328 222.653 133.346 218.526C137.925 214.769 141.2 209.897 143.486 204.486C145.947 198.676 147.984 192.682 150.175 186.754C152.732 179.844 156.571 173.917 162.088 168.904C166.506 164.888 170.623 160.437 174.301 155.719C184.821 142.218 190.566 126.863 191.115 109.53V109.544Z" fill="black"/>
<path d="M136.225 165.926C136.766 161.277 136.977 157.02 137.789 152.876C140.806 137.456 146.8 123.322 156.782 111.054C162.326 104.24 168.914 98.7411 177.467 96.0332C182.657 94.3857 183.951 95.0629 185.613 100.185C187.771 106.849 187.162 113.559 185.763 120.246C183.537 130.867 179.588 140.735 172.63 149.22C165.447 157.968 155.924 162.571 145.017 164.647C142.317 165.158 139.579 165.452 136.225 165.933V165.926ZM182.755 102.75C175.481 103.796 169.133 106.864 163.491 111.423C152.735 120.111 145.807 131.386 141.497 144.383C141.151 145.436 140.933 146.535 140.663 147.61C148.387 126.692 163.807 113.093 182.755 102.743V102.75Z" fill="black"/>
<path d="M122.873 165.716C117.345 165.339 112.095 164.369 106.965 162.684C93.2605 158.171 84.6328 148.392 78.9989 135.591C75.569 127.805 73.3425 119.667 72.8461 111.137C72.5678 106.338 73.1244 101.645 75.238 97.2217C75.93 95.77 76.9079 95.2059 78.51 95.3788C82.6096 95.8303 86.1971 97.553 89.6271 99.6665C99.0596 105.496 105.731 113.845 111.004 123.405C117.676 135.5 121.903 148.378 122.866 162.233C122.941 163.331 122.873 164.444 122.873 165.708V165.716ZM118.797 147.55C118.714 147.144 118.654 146.723 118.533 146.324C116.465 139.314 113.539 132.687 109.523 126.579C102.73 116.274 94.0653 108.204 82.1955 104.067C80.3679 103.427 78.4573 103.059 76.5769 102.562C95.4267 113.183 110.794 126.843 118.797 147.55Z" fill="black"/>
<path d="M129.753 166.491C135.846 172.982 135.846 182.79 129.851 188.62C123.834 183.693 123.744 173.471 129.753 166.491Z" fill="black"/>
<path d="M139.501 200.683C132.965 203.03 126.692 203.075 120.313 200.751C124.849 197.524 133.725 197.291 139.501 200.683Z" fill="black"/>
</g>
<defs>
<clipPath id="clip0_1253_847">
<rect width="256" height="256" fill="white"/>
</clipPath>
</defs>
</svg>
