<svg width="256" height="256" viewBox="0 0 256 256" fill="none" xmlns="http://www.w3.org/2000/svg">
<g clip-path="url(#clip0_741_46)">
<circle cx="128" cy="128" r="126" fill="black" stroke="#FCFC03" stroke-width="4"/>
<path d="M79.5673 50.3051L85.5461 45.0297C89.0633 41.9263 92.9842 39.3131 97.2022 37.2611L103.12 34.382L108.676 32.1597C112.694 30.5525 116.911 29.4956 121.212 29.0177V29.0177C124.841 28.6145 128.504 28.6263 132.13 29.0529L137.952 29.7378L145.982 31.6273C148.145 32.1362 150.267 32.806 152.329 33.6311V33.6311C156.867 35.4463 161.076 37.9953 164.787 41.1761L177.76 52.2955L187.974 74.1493C190.652 79.8782 192.262 86.0474 192.725 92.3542L193.318 100.418C193.561 103.713 193.488 107.025 193.102 110.307L192.117 118.678C191.397 124.797 189.596 130.74 186.796 136.229L178.423 152.644L162.927 172.281C160.439 175.434 158.325 178.864 156.627 182.504L145.25 206.882L135.295 218.681C131.24 223.486 123.757 223.232 120.038 218.161V218.161L110.134 202.754C108.777 200.644 107.575 198.437 106.537 196.153L101.198 184.409C99.1725 179.952 96.5271 175.803 93.3408 172.086L82.4064 159.329C79.6395 156.101 77.2789 152.546 75.3776 148.743L70.256 138.5C67.2049 132.398 65.3845 125.755 64.8984 118.95L63.8269 103.949C63.27 96.1522 64.4781 88.33 67.3613 81.0644L79.5673 50.3051Z" fill="#E1E4E4"/>
<path d="M196.998 100.834C196.727 120.109 190.448 138.571 178.645 155.092C173.443 162.371 167.773 169.31 162.344 176.419C157.047 183.358 153.648 191.323 150.146 199.244C147.003 206.346 143.413 213.234 137.427 218.401C129.756 225.023 126.042 224.653 118.781 218.703C112.525 213.565 108.744 206.567 105.499 199.289C101.798 190.984 98.1427 182.664 92.6112 175.371C87.424 168.535 81.9952 161.869 77.0573 154.863C64.5438 137.117 58.0086 117.325 59.1223 95.4889C60.463 69.3786 72.5222 49.4027 94.8826 36.0264C107.52 28.4671 121.36 25.78 135.918 27.5001C151.699 29.3604 165.186 36.2404 176.286 47.6384C190.045 61.7751 197.137 79.898 196.998 100.834ZM191.115 109.544C190.58 105.034 190.375 100.457 189.437 96.0281C188.104 89.7312 186.074 83.5892 184.623 77.3142C181.634 64.4031 176.14 52.9387 165.912 44.2869C151.039 31.7079 133.874 27.6403 115.045 31.8481C96.0402 36.1002 82.1636 47.2619 74.9692 65.6359C71.5845 74.273 69.5184 83.4636 67.2619 92.5069C64.1115 105.13 64.705 117.731 68.3828 130.207C72.5589 144.373 80.2956 156.377 91.0798 166.172C98.7068 173.097 104.238 181.062 107.271 190.888C108.377 194.461 109.638 197.996 111.001 201.481C113.536 207.963 116.979 213.92 122.386 218.393C127.683 222.771 128.328 222.653 133.346 218.526C137.925 214.769 141.2 209.897 143.486 204.486C145.947 198.676 147.984 192.682 150.175 186.754C152.732 179.844 156.571 173.917 162.088 168.904C166.506 164.888 170.623 160.437 174.301 155.719C184.821 142.218 190.566 126.863 191.115 109.53V109.544Z" fill="black"/>
<path d="M136.225 165.926C136.766 161.278 136.977 157.02 137.789 152.876C140.805 137.456 146.8 123.323 156.782 111.055C162.325 104.24 168.914 98.7413 177.467 96.0334C182.656 94.3859 183.951 95.0631 185.613 100.186C187.771 106.85 187.162 113.559 185.763 120.246C183.537 130.867 179.588 140.735 172.63 149.22C165.447 157.968 155.924 162.571 145.017 164.647C142.317 165.159 139.579 165.452 136.225 165.934V165.926ZM182.755 102.75C175.481 103.796 169.133 106.865 163.491 111.423C152.735 120.111 145.807 131.386 141.497 144.384C141.151 145.437 140.933 146.535 140.662 147.61C148.387 126.692 163.807 113.093 182.755 102.743V102.75Z" fill="black"/>
<path d="M122.873 165.716C117.345 165.34 112.095 164.37 106.965 162.685C93.2605 158.172 84.6328 148.393 78.9989 135.591C75.569 127.806 73.3425 119.668 72.8461 111.138C72.5678 106.339 73.1244 101.645 75.238 97.2221C75.93 95.7705 76.9079 95.2064 78.51 95.3793C82.6096 95.8308 86.1971 97.5535 89.6271 99.667C99.0596 105.496 105.731 113.846 111.004 123.406C117.676 135.501 121.903 148.378 122.866 162.233C122.941 163.332 122.873 164.445 122.873 165.709V165.716ZM118.797 147.551C118.714 147.145 118.654 146.724 118.533 146.325C116.465 139.314 113.539 132.688 109.523 126.58C102.73 116.275 94.0653 108.204 82.1955 104.067C80.3679 103.428 78.4573 103.059 76.5769 102.563C95.4267 113.184 110.794 126.843 118.797 147.551Z" fill="black"/>
<path d="M129.753 166.491C135.846 172.982 135.846 182.79 129.851 188.62C123.834 183.693 123.744 173.471 129.753 166.491Z" fill="black"/>
<path d="M139.501 200.684C132.965 203.03 126.692 203.076 120.314 200.751C124.849 197.525 133.725 197.291 139.501 200.684Z" fill="black"/>
</g>
<defs>
<clipPath id="clip0_741_46">
<rect width="256" height="256" fill="white"/>
</clipPath>
</defs>
</svg>
