<svg width="256" height="256" viewBox="0 0 256 256" fill="none" xmlns="http://www.w3.org/2000/svg">
<g clip-path="url(#clip0_1253_950)">
<mask id="mask0_1253_950" style="mask-type:luminance" maskUnits="userSpaceOnUse" x="0" y="0" width="256" height="256">
<path d="M256 0H0V256H256V0Z" fill="white"/>
</mask>
<g mask="url(#mask0_1253_950)">
<path d="M127.94 250C195.352 250 250 195.352 250 127.94C250 60.528 195.352 5.87988 127.94 5.87988C60.528 5.87988 5.87988 60.528 5.87988 127.94C5.87988 195.352 60.528 250 127.94 250Z" fill="#10151B" stroke="#F5C09A" stroke-width="4" stroke-linecap="round" stroke-linejoin="round"/>
<path d="M127.94 5.87988V31.5985" stroke="#F5C09A" stroke-width="4" stroke-linecap="round" stroke-linejoin="round"/>
<path d="M127.94 224.777V250" stroke="#F5C09A" stroke-width="4" stroke-linecap="round" stroke-linejoin="round"/>
<path d="M91.9668 60.0462L127.94 31.5986L211.133 97.425" stroke="#F5C09A" stroke-width="4" stroke-linecap="round" stroke-linejoin="round"/>
<path d="M44.7471 97.4247L91.9668 60.0459" stroke="#F5C09A" stroke-width="4" stroke-linecap="round" stroke-linejoin="round"/>
<path d="M211.133 158.869V97.4248" stroke="#F5C09A" stroke-width="4" stroke-linecap="round" stroke-linejoin="round"/>
<path d="M44.7471 97.4248V158.869L127.94 224.778L211.133 158.869" stroke="#F5C09A" stroke-width="4" stroke-linecap="round" stroke-linejoin="round"/>
<mask id="mask1_1253_950" style="mask-type:luminance" maskUnits="userSpaceOnUse" x="44" y="31" width="168" height="194">
<path d="M211.133 97.425L127.94 31.5986L46.4838 98.1692L44.7471 158.868L127.94 224.777L211.133 158.868V97.425Z" fill="white"/>
</mask>
<g mask="url(#mask1_1253_950)">
<path d="M135.052 80.6372C134.06 83.5316 135.962 85.0201 139.021 86.0125C141.089 86.7567 143.073 87.6664 144.975 88.7414C150.516 91.8012 153.493 96.763 155.147 102.718C155.395 103.875 155.313 105.116 154.982 106.191C154.816 107.183 153.907 107.927 152.914 107.927C150.351 108.258 147.704 108.424 145.141 108.341C143.9 108.341 142.825 107.762 142.164 106.77C141.668 106.108 141.171 105.364 140.675 104.62C136.21 97.59 129.925 94.9437 121.738 96.6803C113.882 98.3342 112.145 103.214 112.807 110.326C113.055 112.724 115.039 113.964 116.941 114.957C119.836 116.362 122.978 117.272 126.121 117.768C132.488 118.843 138.773 120.415 144.893 122.317C155.726 125.955 159.034 135.879 158.62 143.983C158.372 149.358 156.801 154.486 153.162 158.538C148.945 163.499 143.322 166.973 136.954 168.544C136.044 168.709 135.383 169.454 135.3 170.446C134.804 173.092 135.217 175.904 134.804 178.55C134.225 182.023 133.977 182.437 130.504 183.099C127.857 183.512 125.211 183.429 122.565 182.933C121.076 182.768 119.836 181.527 119.67 179.956C119.257 177.144 119.009 174.333 119.174 171.521C119.174 169.123 119.174 169.04 116.859 168.544C112.062 167.386 107.514 165.65 103.627 162.342C98.8307 158.29 95.6882 152.666 94.6959 146.464C94.3651 144.479 94.8613 143.322 96.7633 142.495C99.9885 141.171 103.545 141.006 106.852 141.998C107.514 142.246 108.093 142.66 108.506 143.322C109.747 144.893 110.739 146.629 111.483 148.449C113.799 153.741 117.934 156.305 123.64 156.553C126.948 156.801 130.173 156.636 133.398 156.057C138.36 155.147 142.081 151.095 142.743 146.133C142.991 144.727 142.991 143.404 142.743 141.998C142.412 139.931 141.171 138.112 139.352 137.119C134.556 134.556 129.346 132.902 123.971 132.24C117.189 131.496 110.739 129.346 104.95 125.707C100.071 122.647 97.673 117.686 96.9287 112.062C95.2748 99.7401 102.469 88.9068 114.46 85.4336C116.032 85.0201 118.182 85.1855 118.926 83.8623C119.67 82.5392 119.091 80.8026 119.091 79.1486C119.091 76.9985 119.34 74.8484 119.753 72.781C120.001 71.6233 120.911 70.6309 122.069 70.4655C125.376 69.7212 128.684 69.7212 131.992 70.4655C133.15 70.7136 134.142 71.6233 134.308 72.781C135.052 75.4273 135.217 78.0736 135.052 80.6372Z" fill="#F5C09A" stroke="#F5C09A" stroke-width="4" stroke-miterlimit="10"/>
<path d="M106.77 52.6036C107.101 56.1595 105.529 58.6404 102.47 60.2943C98.8307 62.279 95.0266 64.0157 91.5534 66.2485C73.0294 78.2395 60.6249 94.6134 57.7305 116.859C54.2572 143.818 63.7673 165.898 85.103 182.85C89.4033 186.158 94.0343 188.97 98.9133 191.368C100.402 192.113 101.725 193.105 103.131 193.849C105.198 194.924 106.522 197.074 106.604 199.472C106.77 201.292 106.687 203.028 106.356 204.848C105.86 207.577 103.958 208.735 101.312 208.156C97.094 207.163 93.0419 205.509 89.2379 203.442C65.9174 190.872 50.6186 171.935 44.0029 146.133C41.8528 137.698 42.0182 129.098 42.4317 120.497C42.597 113.137 44.0029 105.943 46.5665 99.079C52.5206 83.7801 61.2864 70.3833 74.2698 60.1289C81.9606 54.0921 90.6437 49.7092 99.6576 45.9051C100.154 45.6571 100.733 45.4917 101.229 45.409C103.131 44.7474 105.281 45.7398 105.943 47.6418V47.7245C106.522 49.213 106.852 50.9496 106.77 52.6036Z" fill="#F5C09A" stroke="#F5C09A" stroke-width="4" stroke-miterlimit="10"/>
<path d="M212.952 128.932C213.117 166.476 187.978 193.684 164.988 204.599C161.515 206.336 157.876 207.742 154.155 208.817C151.012 209.644 149.441 208.486 148.697 205.344C148.366 203.442 148.283 201.54 148.614 199.72C148.78 197.818 149.855 196.082 151.426 195.089C153.907 193.435 156.553 192.03 159.117 190.624C172.017 183.595 182.437 173.919 189.714 161.184C195.172 151.756 196.909 140.51 197.24 129.594C197.653 115.535 195.338 103.048 187.895 91.1399C180.7 79.5624 170.446 70.2177 158.29 64.1809C156.305 63.1885 154.403 61.948 152.418 60.873C148.366 58.5575 147.953 55.6631 148.531 50.9494C148.697 50.2051 148.945 49.4609 149.276 48.7993C150.516 46.153 152.005 45.4915 154.816 46.4011C158.538 47.807 162.176 49.4609 165.65 51.4456C174.085 55.9939 182.189 60.873 188.722 67.9849C199.969 80.224 208.073 94.1997 211.546 110.574C212.869 116.445 213.035 122.482 212.952 128.932Z" fill="#F5C09A" stroke="#F5C09A" stroke-width="4" stroke-miterlimit="10"/>
</g>
<path d="M211.133 97.425L127.94 31.5986L46.4838 98.1692L44.7471 158.868L127.94 224.777L211.133 158.868V97.425Z" stroke="#F5C09A" stroke-width="4" stroke-miterlimit="10"/>
</g>
</g>
<defs>
<clipPath id="clip0_1253_950">
<rect width="256" height="256" fill="white"/>
</clipPath>
</defs>
</svg>
