<?xml version="1.0" encoding="UTF-8"?>
<svg id="Capa_1" data-name="Capa 1" xmlns="http://www.w3.org/2000/svg" xmlns:xlink="http://www.w3.org/1999/xlink" viewBox="0 0 47.43 47.43">
  <defs>
    <style>
      .cls-1 {
        fill: #010100;
      }

      .cls-2 {
        fill: #fece00;
      }

      .cls-3 {
        fill: #f1345e;
      }

      .cls-4 {
        fill: #fe6a7b;
      }

      .cls-5 {
        fill: #fbfbfb;
      }

      .cls-6 {
        fill: #fdce00;
      }

      .cls-7 {
        clip-path: url(#clippath);
      }

      .cls-8 {
        fill: none;
      }

      .cls-9 {
        fill: #fefefe;
      }
    </style>
    <clipPath id="clippath">
      <circle class="cls-8" cx="23.71" cy="23.71" r="23.71"/>
    </clipPath>
  </defs>
  <g class="cls-7">
    <g>
      <path class="cls-5" d="M23.7,54.48c-10.2,0-20.41,0-30.61,0-.12,0-.14-.03-.14-.14,0-20.42,0-40.83,0-61.25,0-.12,.03-.14,.14-.14,20.42,0,40.83,0,61.25,0,.12,0,.14,.03,.14,.14,0,20.42,0,40.83,0,61.25,0,.12-.03,.14-.14,.14-10.21,0-20.43,0-30.64,0Z"/>
      <path d="M15.74,31.02c-.07,.22-.12,.41-.18,.6-.32,.92-.85,1.67-1.63,2.27-.85,.64-1.8,.92-2.83,1.04-.78,.09-1.55,.13-2.33,.03-1.35-.17-2.66-.48-3.85-1.17-.87-.5-1.36-1.26-1.45-2.26-.04-.52,.12-1,.37-1.44,.67-1.23,1.11-2.55,1.45-3.91,.29-1.18,.27-2.35,0-3.53-.23-1.02-.43-2.05-.55-3.1-.13-1.06-.1-2.12,0-3.19,.08-.87,.31-1.69,.69-2.47,.65-1.36,1.62-2.37,3.05-2.92,.78-.3,1.57-.4,2.39-.38,.25,0,.49,0,.74,.04,.04,0,.08,.02,.1-.04,.17-.54,.57-.89,.98-1.23,.71-.58,1.46-1.09,2.27-1.51,.74-.38,1.53-.53,2.35-.59,1.12-.09,2.22-.05,3.31,.21,.94,.23,1.82,.58,2.67,1.03,.18,.09,.29,.09,.47-.03,.88-.6,1.86-.96,2.92-1.14,1.4-.24,2.74-.02,4.08,.36,1.16,.33,2.22,.83,3.15,1.6,.08,.07,.18,.13,.24,.22,.13,.18,.3,.22,.52,.2,.66-.07,1.3,.09,1.94,.26,.53,.15,1.04,.34,1.55,.55,1.32,.56,2.3,1.48,2.98,2.72,1,1.81,1.5,3.76,1.54,5.82,.02,1.1,0,2.19,.07,3.29,.06,.84,.14,1.67,.28,2.5,.13,.71,.44,1.35,.81,1.96,.27,.45,.56,.89,.87,1.32,.26,.36,.51,.74,.61,1.18,.14,.62-.03,1.2-.35,1.72-.37,.6-.8,1.16-1.33,1.65-.72,.66-1.59,1.01-2.51,1.27-1.22,.35-2.45,.39-3.68,.14-1.08-.22-1.93-.83-2.56-1.73-.07-.1-.11-.11-.21-.04-1.57,1.01-3.28,1.68-5.13,1.99-1.21,.2-2.43,.29-3.66,.28-1.95-.03-3.84-.41-5.7-1-1.34-.43-2.56-1.09-3.69-1.91-.26-.19-.49-.42-.74-.65Z"/>
      <path class="cls-6" d="M23.69,8.73c1.4-.95,2.92-1.38,4.57-1.31,.81,.03,1.6,.23,2.38,.44,1.13,.31,2.16,.79,3.07,1.53,.67,.54,1.19,1.21,1.62,1.95,.26,.45,.34,.96,.47,1.46,.03,.1-.05,.08-.1,.08-.46-.02-.93,0-1.37,.12-.94,.26-1.82,.62-2.52,1.34-.02,.02-.03,.04-.06,.07,.07,0,.1-.04,.14-.06,.73-.55,1.54-.95,2.43-1.15,1.69-.38,3.16,.08,4.36,1.35,.31,.33,.51,.74,.65,1.21-.07-.04-.12-.07-.16-.1-.91-.51-1.87-.84-2.93-.8-1.08,.04-2.1,.34-3.04,.89-.3,.17-.61,.32-.9,.58,.14-.04,.25-.07,.35-.11,.1-.04,.2-.08,.29-.14,.52-.27,1.03-.56,1.59-.73,.91-.27,1.83-.42,2.77-.2,1.13,.26,2.12,.78,2.94,1.61,.23,.23,.42,.49,.57,.78,.02,.04,.05,.07,.05,.14-.02-.02-.04-.02-.05-.04-.73-.78-1.65-1.16-2.69-1.29-1.56-.2-3.04,.12-4.48,.66-1.22,.46-2.34,1.1-3.41,1.85-.25,.17-.25,.24-.03,.44,1.08,.97,2.34,1.61,3.76,1.93,1.5,.35,2.98,.31,4.43-.24,.1-.04,.19-.11,.28-.11,.09,0,.11,.15,.18,.21,.14,.12,.28,.25,.43,.38,.36,.31,.68,.65,1.08,.91,.1,.07,.18,.15,.25,.25,.1,.14,.09,.24-.04,.35-.08,.07-.17,.14-.26,.2-.65,.44-1.3,.88-1.99,1.26-1.27,.69-2.63,1.07-4.05,1.26-1.2,.15-2.4,.19-3.6,.23-2.22,.08-4.41-.15-6.57-.68-.88-.21-1.76-.39-2.66-.47-.49-.04-.99-.02-1.47,.04-.85,.11-1.25,1.05-.74,1.73,.22,.29,.48,.53,.77,.74,.86,.64,1.8,1.14,2.82,1.48,1.31,.45,2.61,.93,3.94,1.29,.87,.24,1.74,.49,2.64,.59,.32,.03,.63,.05,.95,.06,1.37,.05,2.75,.05,4.11-.14,.7-.1,1.38-.25,2.03-.52,.41-.17,.78-.39,1.11-.68,.17-.15,.31-.32,.42-.51,.41-.71,.62-1.47,.5-2.28-.09-.62-.4-1.14-.93-1.52-.01,0-.03-.01-.07-.04,.35-.14,.64-.29,.93-.46,.06-.03,.1,0,.13,.05,.08,.09,.14,.19,.18,.3,.24,.6,.45,1.21,.55,1.85,.12,.75-.02,1.47-.29,2.17-.51,1.31-1.55,2.06-2.81,2.57-.7,.28-1.46,.37-2.2,.48-.77,.12-1.55,.19-2.33,.16-1.05-.04-2.09-.23-3.1-.53-1.04-.31-2.08-.61-3.11-.95-.02,0-.04,0-.06,0,.23,.13,.47,.22,.72,.3,1.1,.37,2.17,.8,3.3,1.08,1.29,.32,2.59,.42,3.9,.25,.44-.06,.87-.12,1.31-.18,0,.04-.04,.05-.06,.06-1.57,.97-3.25,1.63-5.08,1.92-1.41,.23-2.82,.32-4.24,.23-2.22-.14-4.37-.59-6.4-1.51-1.11-.5-2.12-1.15-3.02-1.99-.04-.04-.06-.07-.05-.13,.24-1.03,.2-2.08,.18-3.12-.02-1.07-.06-2.13-.19-3.19-.14-1.14-.42-2.24-.71-3.35-.2-.77-.44-1.53-.72-2.27-.09-.23-.08-.49-.09-.74-.02-.5-.11-.99-.24-1.47,0-.03-.01-.06-.03-.09-.04-.06-.03-.2-.13-.17-.07,.02,0,.13,.02,.19,.11,.55,.21,1.11,.23,1.67-.05-.03-.06-.09-.08-.14-.2-.49-.49-.92-.71-1.4-.02-.03-.03-.07-.08-.06-.05,.02-.04,.07-.03,.1,.04,.1,.07,.2,.11,.29,.88,1.67,1.39,3.46,1.83,5.29,.36,1.5,.55,3.01,.59,4.55,.02,.81,.05,1.62,.02,2.43-.02,.83-.17,1.63-.45,2.41-.58,1.58-1.74,2.54-3.37,2.92-1.33,.31-2.68,.31-4.03,.06-1.01-.19-1.97-.49-2.88-.98-.83-.45-1.3-1.14-1.41-2.07-.05-.44,.1-.85,.27-1.25,.11-.26,.26-.5,.38-.76,.65-1.33,1.07-2.72,1.31-4.18,.15-.92,.04-1.84-.15-2.75-.21-1.01-.42-2.02-.55-3.04-.13-1.08-.1-2.16,0-3.24,.08-.99,.37-1.9,.85-2.75,1.01-1.81,2.58-2.74,4.64-2.81,.43-.02,.87-.01,1.3,.06,.04,0,.08,0,.12,0,.08-.02,.14-.06,.04-.13-.08-.06-.06-.11-.03-.18,.14-.29,.34-.55,.58-.77,.75-.68,1.59-1.24,2.48-1.73,.71-.39,1.48-.56,2.28-.63,1.05-.09,2.1-.07,3.14,.14,.5,.1,.98,.25,1.45,.44,1.03,.41,2.01,.93,2.93,1.54,.02,.01,.03,.02,.05,.03,.06,.03,.12,.06,.17,0,.05-.06,0-.11-.06-.15-.18-.14-.37-.27-.58-.38-.19-.1-.38-.21-.59-.33Z"/>
      <path class="cls-2" d="M38.65,24.49c.49-.29,.95-.61,1.42-.92,.2-.13,.4-.27,.58-.42,.22-.18,.25-.42,.08-.65-.07-.09-.14-.18-.23-.24-.48-.36-.9-.79-1.37-1.17-.32-.25-.31-.26,.03-.45,.82-.47,1.47-1.1,1.9-1.96,.05-.11,.09-.22,.14-.33,.03-.08,.06-.17-.03-.24-.02-.01-.02-.04-.03-.07-.06-.52-.35-.92-.67-1.3-.27-.31-.58-.58-.92-.82-.06-.04-.09-.09-.1-.17-.05-.41-.21-.77-.45-1.1-.72-.96-1.68-1.51-2.85-1.72-.15-.03-.22-.07-.23-.23-.12-1.04-.61-1.9-1.29-2.67-.05-.05-.09-.11-.16-.18,.45-.03,.86,0,1.26,.09,.86,.16,1.68,.44,2.48,.79,1.27,.56,2.18,1.5,2.82,2.72,.92,1.76,1.39,3.63,1.41,5.61,.01,1.22,0,2.44,.09,3.66,.06,.74,.13,1.47,.26,2.2,.13,.72,.44,1.36,.8,1.98,.27,.46,.57,.91,.89,1.34,.19,.25,.36,.52,.49,.81,.15,.34,.2,.69,.11,1.05-.1,.43-.27,.84-.54,1.19-.33,.42-.64,.86-1.04,1.23-.68,.62-1.49,.96-2.35,1.21-1.22,.36-2.46,.4-3.69,.16-1.04-.21-1.88-.77-2.48-1.66-.09-.13-.08-.15,.08-.18,.97-.17,1.84-.54,2.64-1.11,1-.71,1.55-1.69,1.78-2.88,.18-.92-.02-1.78-.33-2.63-.12-.34-.24-.68-.5-.95Z"/>
      <path class="cls-3" d="M33.44,25.99c.61-.09,1.2-.11,1.77-.23,.61-.13,1.22-.28,1.8-.51,.15-.06,.26-.11,.41,.03,.14,.12,.29,.23,.41,.38,.5,.63,.59,1.33,.41,2.09-.05,.23-.12,.45-.21,.67-.26,.64-.74,1.05-1.35,1.35-.82,.4-1.71,.57-2.6,.68-1.42,.17-2.85,.14-4.28,.06-.78-.04-1.54-.24-2.29-.43-1.74-.45-3.44-1.04-5.13-1.66-.92-.34-1.75-.85-2.51-1.46-.21-.17-.39-.36-.54-.58-.25-.37-.22-.69,.1-1.01,.21-.22,.45-.33,.77-.35,.55-.03,1.09-.03,1.64,.04,.23,.03,.43,.11,.62,.25,.66,.5,1.32,1,2,1.49,1.14,.83,2.23,1.73,3.39,2.52,.63,.43,1.3,.79,2.05,.95,.74,.16,1.5,.19,2.24,.06,.96-.18,1.6-.76,1.89-1.69,.29-.94,.1-1.8-.54-2.56-.02-.02-.03-.04-.06-.07Z"/>
      <path class="cls-4" d="M22.62,25.16c.4,.08,.8,.16,1.2,.25,1.22,.27,2.44,.52,3.69,.64,1.17,.11,2.34,.11,3.52,.07,.71-.03,1.41-.07,2.12-.1,.09,0,.15,.03,.2,.09,.66,.75,.99,2.12,.18,3.19-.41,.54-.97,.81-1.63,.87-.55,.06-1.1,.05-1.65-.03-.68-.1-1.28-.38-1.87-.72-.68-.39-1.3-.88-1.92-1.36-1.22-.94-2.47-1.84-3.71-2.76-.04-.03-.09-.07-.13-.1,0-.01,0-.03,0-.04Z"/>
      <path class="cls-9" d="M39.16,16.81c.76,.28,1.36,.72,1.85,1.33,.06,.08,.03,.13,0,.19-.41,.88-1.05,1.56-1.89,2.04-1.1,.64-2.3,.88-3.56,.84-1.91-.07-3.61-.71-5.09-1.93-.03-.02-.05-.05-.08-.07-.1-.07-.08-.11,.01-.17,.63-.46,1.3-.86,1.99-1.22,.39-.2,.79-.39,1.22-.56-.02,.28-.02,.55,.03,.81,.24,1.28,1.33,2.35,2.63,2.59,.91,.16,1.75,0,2.44-.65,.82-.76,1.02-1.95,.53-3.01-.02-.05-.05-.1-.09-.18Z"/>
      <path class="cls-9" d="M34.85,17.26c.37,0,.66,.31,.65,.69,0,.32-.24,.51-.62,.51-.34,0-.61-.28-.61-.64,0-.31,.25-.56,.57-.56Z"/>
      <path d="M28.12,18.6c-.07-1.32-.66-2.28-1.98-2.81-.59-.24-1.21-.33-1.85-.36-1.52-.06-2.95,.28-4.27,1.03-.6,.34-1.19,.69-1.71,1.15,.05-.12,.16-.26,.35-.42,1.22-.96,2.57-1.64,4.12-1.87,.91-.14,1.82-.13,2.72,.06,.59,.12,1.13,.37,1.62,.72,.04,.03,.07,.07,.14,.08,0-.11-.02-.21-.04-.32-.28-1.23-1.02-2.02-2.23-2.38-1.49-.45-2.92-.28-4.35,.26-.59,.22-1.13,.55-1.68,.87-.06,.04-.12,.07-.2,.08,.06-.05,.13-.1,.19-.15,.94-.67,1.95-1.21,3.11-1.39,1.16-.18,2.3-.17,3.41,.29,1.13,.47,1.71,1.35,1.94,2.5,.02,.12,.03,.25,.03,.38,0,.06,.02,.09,.06,.13,.51,.57,.75,1.24,.79,2,0,.19-.03,.4,.13,.57,.05,.05,0,.13-.03,.19-.24,.64-.64,1.18-1.15,1.63-.87,.78-1.91,1.21-3.06,1.36-2.57,.34-4.83-.38-6.79-2.07-.04-.04-.08-.08-.11-.12-.07-.08-.06-.16,.03-.23,.11-.08,.22-.16,.33-.23,1.41-.95,2.9-1.72,4.56-2.13,1.09-.27,2.2-.39,3.32-.21,.99,.17,1.87,.56,2.55,1.33,0,.01,.02,.02,.05,.04Z"/>
      <path class="cls-1" d="M18.48,27.44c-.21-.08-.35-.23-.48-.38-.37-.43-.65-.89-.66-1.48,0-.31,.08-.59,.26-.84,.74-1,1.86-1.39,3.1-.83,.07,.03,.14,.07,.19,.13,.02,.03,.04,.06,.01,.1-.03,.04-.06,0-.09-.01-.81-.38-1.83-.44-2.63,.24-.23,.19-.42,.41-.53,.7-.16,.4-.12,.79,.07,1.17,.16,.31,.35,.6,.59,.86,.09,.09,.16,.19,.17,.34Z"/>
      <path class="cls-9" d="M20.82,18.13c-.03,.4,0,.77,.11,1.13,.46,1.55,2.15,2.57,3.73,2.26,1.6-.32,2.48-1.97,1.86-3.51-.04-.1-.09-.2-.14-.31,.06-.02,.1,.02,.14,.04,.65,.27,1.2,.67,1.65,1.22,.08,.1,.08,.16,.03,.27-.55,1.15-1.46,1.91-2.62,2.38-1.49,.59-3.02,.61-4.56,.23-1.24-.3-2.36-.87-3.34-1.69-.19-.16-.19-.16,0-.3,.93-.66,1.92-1.22,2.97-1.66,.05-.02,.09-.04,.16-.06Z"/>
      <path class="cls-9" d="M21.96,18.19c.37,0,.66,.3,.66,.68,0,.32-.23,.52-.61,.52-.35,0-.61-.27-.61-.63,0-.31,.25-.57,.56-.57Z"/>
    </g>
  </g>
</svg>