<svg width="256" height="256" viewBox="0 0 256 256" fill="none" xmlns="http://www.w3.org/2000/svg">
<path d="M256 128.5C256 198.917 198.917 256 128.5 256C58.0837 256 1 198.917 1 128.5C1 58.0837 58.0837 1 128.5 1C198.917 1 256 58.0837 256 128.5Z" fill="#202020"/>
<path d="M163.111 80.4902C150.656 80.4902 139.64 85.3603 131.322 99.8365C131.235 99.9856 131.178 100.151 131.155 100.322C131.133 100.493 131.145 100.667 131.191 100.834C131.237 101 131.316 101.156 131.424 101.291C131.531 101.427 131.665 101.54 131.817 101.624C132.025 101.666 132.239 101.666 132.446 101.624H155.153C155.59 101.635 156.007 101.813 156.317 102.12C156.626 102.428 156.805 102.842 156.816 103.277V119.764C156.805 120.194 156.624 120.603 156.313 120.904C156.003 121.204 155.586 121.372 155.153 121.372H124.533C123.923 121.403 123.333 121.599 122.827 121.937C122.32 122.275 121.915 122.744 121.655 123.293C108.166 153.899 84.3358 160.511 70.6221 161.673C63.5319 162.195 56.4031 161.622 49.4894 159.975C49.2689 159.918 49.0349 159.946 48.8346 160.054C48.6343 160.162 48.4827 160.341 48.4103 160.556C48.3434 160.68 48.3083 160.818 48.3083 160.958C48.3083 161.099 48.3434 161.237 48.4103 161.36C64.7319 182.762 86.2243 195.406 119.767 195.406C159.289 195.406 195.485 159.171 195.485 120.523C195.395 93.6707 180.107 80.4902 163.111 80.4902Z" fill="url(#paint0_linear_1497_53)"/>
<path d="M182.805 61.5908C166.393 40.4126 145.081 27.9023 111.718 27.9023C71.9707 27.9023 36.0002 64.1375 36.0002 102.785C36.0002 129.593 51.3776 142.729 68.3287 142.729C74.9069 142.924 81.4017 141.227 87.0329 137.843C92.6641 134.459 97.1921 129.53 100.073 123.651C100.159 123.499 100.213 123.331 100.232 123.158C100.252 122.985 100.236 122.81 100.185 122.643C100.135 122.476 100.051 122.321 99.9391 122.187C99.827 122.053 99.689 121.943 99.5331 121.864C99.3559 121.762 99.1525 121.716 98.9486 121.729H76.4671C76.2471 121.742 76.0269 121.709 75.82 121.634C75.6131 121.558 75.4239 121.442 75.2639 121.291C75.1039 121.141 74.9766 120.959 74.8897 120.758C74.8028 120.557 74.7581 120.34 74.7585 120.121V103.411C74.7698 102.976 74.9488 102.562 75.2583 102.254C75.5679 101.947 75.9845 101.769 76.4221 101.758H107.132C107.738 101.735 108.327 101.549 108.834 101.218C109.341 100.887 109.748 100.425 110.01 99.8812C123.498 69.2756 147.284 62.6631 160.998 61.5461C168.011 60.9992 175.067 61.5571 181.906 63.1992C182.038 63.247 182.18 63.2661 182.32 63.2552C182.461 63.2442 182.597 63.2036 182.721 63.1359C182.844 63.0682 182.952 62.975 183.036 62.8626C183.12 62.7503 183.18 62.6213 183.21 62.4843C183.232 62.3128 183.205 62.1386 183.134 61.9809C183.063 61.8232 182.949 61.6882 182.805 61.5908Z" fill="url(#paint1_linear_1497_53)"/>
<path d="M168.641 228.649C196.454 228.649 219 206.244 219 178.608C219 150.971 196.454 128.566 168.641 128.566C140.829 128.566 118.283 150.971 118.283 178.608C118.283 206.244 140.829 228.649 168.641 228.649Z" fill="white"/>
<path opacity="0.8" d="M127.01 160.206L126.942 160.371L156.199 172.378L156.268 172.213L127.01 160.206Z" fill="#0021DB"/>
<path opacity="0.8" d="M127.01 160.206L126.942 160.371L156.199 172.378L156.268 172.213L127.01 160.206Z" fill="#0021DB"/>
<path opacity="0.8" d="M172.576 197.128L171.951 228.136L172.176 228.14L172.8 197.133L172.576 197.128Z" fill="#0021DB"/>
<path opacity="0.8" d="M140.79 143.666L140.557 143.875L160.881 166.273L161.114 166.064L140.79 143.666Z" fill="#0021DB"/>
<path opacity="0.8" d="M164.769 194.854L151.434 221.548L151.716 221.687L165.051 194.994L164.769 194.854Z" fill="#0021DB"/>
<path opacity="0.8" d="M159.154 134.599L159.514 134.51L167.967 162.479L167.562 162.613L159.154 134.599Z" fill="#0021DB"/>
<path opacity="0.8" d="M136.268 208.052L135.998 207.739L158.884 189.867L159.154 190.18L136.268 208.052Z" fill="#0021DB"/>
<path opacity="0.8" d="M179.542 133.958L175.243 162.006L175.687 162.073L179.986 134.025L179.542 133.958Z" fill="#0021DB"/>
<path opacity="0.8" d="M128.175 189.598L128.085 189.152L155.692 182.896L155.782 183.343L128.175 189.598Z" fill="#0021DB"/>
<path opacity="0.8" d="M198.722 216.496L198.317 216.764L182.445 193.709L182.85 193.441L198.722 216.496Z" fill="#0021DB"/>
<path opacity="0.8" d="M197.957 141.837L198.362 142.105L182.805 165.026L182.355 164.758L197.957 141.837Z" fill="#0021DB"/>
<path opacity="0.8" d="M128.759 169.806L128.849 169.27L155.827 175.257L155.737 175.748L128.759 169.806Z" fill="#0021DB"/>
<path opacity="0.8" d="M175.76 196.299L175.228 196.384L179.561 223.296L180.093 223.211L175.76 196.299Z" fill="#0021DB"/>
<path opacity="0.8" d="M137.572 152.426L137.931 151.935L159.244 168.421L158.884 168.868L137.572 152.426Z" fill="#0021DB"/>
<path opacity="0.8" d="M160.683 221.455L160.098 221.276L167.607 195.72L168.192 195.898L160.683 221.455Z" fill="#0021DB"/>
<path opacity="0.8" d="M152.814 140.585L153.354 140.317L165.269 163.729L164.685 163.998L152.814 140.585Z" fill="#0021DB"/>
<path opacity="0.8" d="M144.092 211.76L143.597 211.358L161.043 191.922L161.492 192.324L144.092 211.76Z" fill="#0021DB"/>
<path opacity="0.8" d="M171.384 136.43L172.059 136.386L172.688 162.077H172.014L171.384 136.43Z" fill="#0021DB"/>
<path opacity="0.8" d="M133.39 196.211L133.121 195.586L156.726 185.667L156.996 186.293L133.39 196.211Z" fill="#0021DB"/>
<path opacity="0.8" d="M189.729 140.451L190.403 140.764L180.107 163.729L179.477 163.416L189.729 140.451Z" fill="#0021DB"/>
<path opacity="0.8" d="M130.423 177.849L130.468 177.134L155.557 178.161V178.921L130.423 177.849Z" fill="#0021DB"/>
<path opacity="0.8" d="M186.986 218.729L186.267 218.998L178.084 195.541L178.803 195.317L186.986 218.729Z" fill="#0021DB"/>
<path opacity="0.8" d="M135.594 160.244L135.953 159.574L157.715 170.968L157.356 171.638L135.594 160.244Z" fill="#0021DB"/>
<path opacity="0.8" d="M168.686 220.427L167.922 220.383L170.53 196.211L171.339 196.3L168.686 220.427Z" fill="#0021DB"/>
<path opacity="0.8" d="M147.644 146.707L148.318 146.216L162.796 165.339L162.122 165.83L147.644 146.707Z" fill="#0021DB"/>
<path opacity="0.8" d="M151.6 214.307L150.926 213.86L163.426 193.575L164.145 194.022L151.6 214.307Z" fill="#0021DB"/>
<path opacity="0.8" d="M164.19 139.603L165.044 139.424L169.765 162.479L168.956 162.657L164.19 139.603Z" fill="#0021DB"/>
<path opacity="0.8" d="M139.011 201.662L138.516 200.948L158.21 188.214L158.66 188.929L139.011 201.662Z" fill="#0021DB"/>
<path opacity="0.8" d="M181.995 140.272L182.85 140.451L177.319 162.836L176.42 162.612L181.995 140.272Z" fill="#0021DB"/>
<path opacity="0.8" d="M133.076 185.086L132.941 184.192L155.782 181.109L155.917 182.003L133.076 185.086Z" fill="#0021DB"/>
<path opacity="0.8" d="M192.742 213.681L191.977 214.128L180.781 194.291L181.591 193.844L192.742 213.681Z" fill="#0021DB"/>
<path opacity="0.8" d="M197.598 148.271L198.317 148.851L183.974 166.41L183.209 165.785L197.598 148.271Z" fill="#0021DB"/>
<path opacity="0.8" d="M134.829 167.795L135.144 166.901L156.681 173.693L156.367 174.586L134.829 167.795Z" fill="#0021DB"/>
<path opacity="0.8" d="M176.015 218.417L175.026 218.462L173.498 196.212L174.442 196.167L176.015 218.417Z" fill="#0021DB"/>
<path opacity="0.8" d="M143.777 153.051L144.451 152.336L160.638 167.348L159.964 168.063L143.777 153.051Z" fill="#0022DB"/>
<path opacity="0.8" d="M159.019 215.557L158.075 215.2L166.124 194.826L167.023 195.184L159.019 215.557Z" fill="#0022DB"/>
<path opacity="0.8" d="M157.985 143.669L158.929 143.267L166.978 163.372L166.034 163.73L157.985 143.669Z" fill="#0022DB"/>
<path opacity="0.8" d="M145.036 205.907L144.316 205.148L160.053 190.448L160.773 191.208L145.036 205.907Z" fill="#0022DB"/>
<path opacity="0.8" d="M174.711 141.211L175.791 141.3L174.397 162.434L173.363 162.389L174.711 141.211Z" fill="#0023DB"/>
<path opacity="0.8" d="M136.628 191.386L136.313 190.403L156.456 183.925L156.816 184.952L136.628 191.386Z" fill="#0023DC"/>
<path opacity="0.8" d="M197.373 208.096L196.519 208.766L183.165 192.637L183.974 191.922L197.373 208.096Z" fill="#0023DC"/>
<path opacity="0.8" d="M190.674 146.081L191.663 146.617L181.501 164.802L180.557 164.266L190.674 146.081Z" fill="#0024DC"/>
<path opacity="0.8" d="M135.324 174.944L135.459 173.827L156.052 176.508L155.917 177.625L135.324 174.944Z" fill="#0024DC"/>
<path opacity="0.8" d="M182.49 215.335L181.411 215.647L176.375 195.72L177.454 195.452L182.49 215.335Z" fill="#0025DC"/>
<path opacity="0.8" d="M141.124 159.619L141.753 158.681L158.884 169.672L158.255 170.61L141.124 159.619Z" fill="#0025DC"/>
<path opacity="0.8" d="M166.078 215.603L164.954 215.379L168.911 195.631L170.035 195.854L166.078 215.603Z" fill="#0026DC"/>
<path opacity="0.8" d="M152.859 148.404L153.849 147.778L164.37 164.667L163.381 165.293L152.859 148.404Z" fill="#0027DC"/>
<path opacity="0.8" d="M151.331 208.901L150.386 208.23L162.257 192.369L163.201 193.084L151.331 208.901Z" fill="#0027DD"/>
<path opacity="0.8" d="M168.102 143.311L169.271 143.177L171.474 162.523L170.305 162.657L168.102 143.311Z" fill="#0028DD"/>
<path opacity="0.8" d="M140.989 196.748L140.404 195.675L157.625 186.605L158.21 187.678L140.989 196.748Z" fill="#0029DD"/>
<path opacity="0.8" d="M183.884 145.144L185.053 145.546L178.848 163.641L177.634 163.239L183.884 145.144Z" fill="#0029DD"/>
<path opacity="0.8" d="M136.897 181.512L136.852 180.306L155.962 179.412L156.007 180.663L136.897 181.512Z" fill="#002ADD"/>
<path opacity="0.8" d="M188.065 211.447L186.896 211.983L179.118 194.737L180.287 194.245L188.065 211.447Z" fill="#002BDE"/>
<path opacity="0.8" d="M139.73 166.232L140.225 165.025L157.536 172.219L157.041 173.38L139.73 166.232Z" fill="#002CDE"/>
<path opacity="0.8" d="M172.733 214.485L171.429 214.441L171.789 195.943H173.093L172.733 214.485Z" fill="#002DDE"/>
<path opacity="0.8" d="M148.813 153.722L149.757 152.828L162.077 166.411L161.088 167.304L148.813 153.722Z" fill="#002EDE"/>
<path opacity="0.8" d="M157.76 210.687L156.591 210.106L164.73 193.888L165.899 194.469L157.76 210.687Z" fill="#002FDE"/>
<path opacity="0.8" d="M162.212 146.305L163.516 145.947L168.641 163.104L167.382 163.506L162.212 146.305Z" fill="#0030DF"/>
<path opacity="0.8" d="M145.935 201.037L145.126 200.01L159.199 189.019L160.053 190.046L145.935 201.037Z" fill="#0031DF"/>
<path opacity="0.8" d="M177.364 145.366L178.713 145.59L176.015 162.925L174.667 162.747L177.364 145.366Z" fill="#0032DF"/>
<path opacity="0.8" d="M139.505 187.454L139.191 186.114L156.322 182.271L156.636 183.612L139.505 187.454Z" fill="#0033DF"/>
<path opacity="0.8" d="M192.652 206.89L191.483 207.65L181.636 193.352L182.805 192.593L192.652 206.89Z" fill="#0034E0"/>
<path opacity="0.8" d="M191.303 150.862L192.472 151.667L182.76 165.919L181.591 165.115L191.303 150.862Z" fill="#0035E0"/>
<path opacity="0.8" d="M139.55 172.621L139.865 171.236L156.636 174.989L156.366 176.33L139.55 172.621Z" fill="#0036E0"/>
<path opacity="0.8" d="M178.758 212.296L177.364 212.519L174.711 195.764L176.105 195.541L178.758 212.296Z" fill="#0037E1"/>
<path opacity="0.8" d="M145.89 159.351L146.789 158.189L160.098 168.51L159.199 169.627L145.89 159.351Z" fill="#0039E1"/>
<path opacity="0.8" d="M164.055 211.313L162.661 210.911L167.427 194.96L168.776 195.362L164.055 211.313Z" fill="#003AE1"/>
<path opacity="0.8" d="M157.221 150.147L158.525 149.477L165.944 164.176L164.64 164.802L157.221 150.147Z" fill="#003BE1"/>
<path opacity="0.8" d="M151.331 204.254L150.251 203.316L161.178 191.118L162.257 192.101L151.331 204.254Z" fill="#003CE2"/>
<path opacity="0.8" d="M171.249 146.662L172.733 146.617L173.138 162.747H171.654L171.249 146.662Z" fill="#003EE2"/>
<path opacity="0.8" d="M142.968 192.593L142.383 191.252L157.176 184.997L157.76 186.382L142.968 192.593Z" fill="#003FE2"/>
<path opacity="0.8" d="M185.278 149.477L186.672 150.102L180.242 164.489L178.848 163.863L185.278 149.477Z" fill="#0040E3"/>
<path opacity="0.8" d="M140.449 178.653L140.494 177.134L156.232 177.804L156.187 179.323L140.449 178.653Z" fill="#0042E3"/>
<path opacity="0.8" d="M184.064 209.258L182.625 209.75L177.499 195.095L178.938 194.559L184.064 209.258Z" fill="#0043E3"/>
<path opacity="0.8" d="M144.136 165.114L144.856 163.773L158.48 170.922L157.76 172.263L144.136 165.114Z" fill="#0045E4"/>
<path opacity="0.8" d="M170.08 210.866L168.551 210.687L170.215 195.541L171.789 195.675L170.08 210.866Z" fill="#0046E4"/>
<path opacity="0.8" d="M153.174 154.57L154.433 153.632L163.516 165.651L162.212 166.589L153.174 154.57Z" fill="#0047E5"/>
<path opacity="0.8" d="M156.951 206.353L155.602 205.549L163.426 192.815L164.82 193.664L156.951 206.353Z" fill="#0049E5"/>
<path opacity="0.8" d="M165.764 148.94L167.337 148.583L170.305 163.015L168.731 163.327L165.764 148.94Z" fill="#004AE5"/>
<path opacity="0.8" d="M147.059 196.836L146.205 195.496L158.524 187.543L159.379 188.883L147.059 196.836Z" fill="#004CE6"/>
<path opacity="0.8" d="M179.432 149.164L181.006 149.566L177.544 163.551L175.97 163.149L179.432 149.164Z" fill="#004DE6"/>
<path opacity="0.8" d="M142.293 184.193L142.068 182.54L156.322 180.663L156.546 182.272L142.293 184.193Z" fill="#004FE6"/>
<path opacity="0.8" d="M188.56 205.55L187.076 206.354L180.107 193.933L181.591 193.129L188.56 205.55Z" fill="#0051E7"/>
<path opacity="0.8" d="M191.528 155.151L192.831 156.179L183.839 167.081L182.58 166.053L191.528 155.151Z" fill="#0052E7"/>
<path opacity="0.8" d="M143.462 170.833L143.957 169.27L157.356 173.514L156.861 175.078L143.462 170.833Z" fill="#0054E8"/>
<path opacity="0.8" d="M175.701 209.347L174.037 209.481L173.093 195.63L174.756 195.541L175.701 209.347Z" fill="#0055E8"/>
<path opacity="0.8" d="M150.116 159.396L151.285 158.145L161.357 167.483L160.188 168.734L150.116 159.396Z" fill="#0057E8"/>
<path opacity="0.8" d="M162.571 207.381L160.998 206.801L165.988 194.156L167.562 194.782L162.571 207.381Z" fill="#0058E9"/>
<path opacity="0.8" d="M160.998 151.979L162.571 151.354L167.517 163.774L165.944 164.4L160.998 151.979Z" fill="#005AE9"/>
<path opacity="0.8" d="M151.69 200.143L150.476 198.892L160.233 189.777L161.402 191.073L151.69 200.143Z" fill="#005CEA"/>
<path opacity="0.8" d="M173.857 149.879L175.566 150.013L174.712 163.059L173.003 162.925L173.857 149.879Z" fill="#005DEA"/>
<path opacity="0.8" d="M145.036 189.062L144.496 187.409L156.906 183.433L157.445 185.086L145.036 189.062Z" fill="#005FEA"/>
<path opacity="0.8" d="M192.112 201.26L190.718 202.377L182.535 192.414L183.884 191.297L192.112 201.26Z" fill="#0061EB"/>
<path opacity="0.8" d="M186.222 153.408L187.795 154.302L181.546 165.472L179.972 164.578L186.222 153.408Z" fill="#0062EB"/>
<path opacity="0.8" d="M143.777 176.328L144.002 174.586L156.681 176.239L156.456 177.982L143.777 176.328Z" fill="#0064EC"/>
<path opacity="0.8" d="M180.691 207.024L178.983 207.47L175.88 195.273L177.634 194.826L180.691 207.024Z" fill="#0066EC"/>
<path opacity="0.8" d="M148.093 164.489L149.082 162.97L159.559 169.672L158.57 171.191L148.093 164.489Z" fill="#0067EC"/>
<path opacity="0.8" d="M168.057 207.426L166.259 207.068L168.687 195.005L170.485 195.362L168.057 207.426Z" fill="#0069ED"/>
<path opacity="0.8" d="M156.996 155.642L158.57 154.704L164.954 164.98L163.426 165.919L156.996 155.642Z" fill="#006BED"/>
<path opacity="0.8" d="M156.546 202.422L155.062 201.349L162.302 191.743L163.785 192.815L156.546 202.422Z" fill="#006CEE"/>
<path opacity="0.8" d="M168.731 151.532L170.575 151.309L171.879 163.059L170.035 163.238L168.731 151.532Z" fill="#006EEE"/>
<path opacity="0.8" d="M148.408 193.173L147.554 191.52L157.94 186.069L158.839 187.678L148.408 193.173Z" fill="#0070EE"/>
<path opacity="0.8" d="M180.961 152.738L182.715 153.319L178.983 164.266L177.185 163.64L180.961 152.738Z" fill="#0071EF"/>
<path opacity="0.8" d="M145.081 181.467L144.991 179.591L156.457 179.055L156.546 180.931L145.081 181.467Z" fill="#0073EF"/>
<path opacity="0.8" d="M185.008 203.986L183.254 204.745L178.578 194.424L180.332 193.62L185.008 203.986Z" fill="#0074F0"/>
<path opacity="0.8" d="M147.059 169.582L147.778 167.84L158.165 172.129L157.401 173.872L147.059 169.582Z" fill="#0076F0"/>
<path opacity="0.8" d="M173.183 206.488L171.249 206.443L171.519 195.407H173.407L173.183 206.488Z" fill="#0078F1"/>
<path opacity="0.8" d="M153.938 159.798L155.332 158.502L162.661 166.589L161.223 167.885L153.938 159.798Z" fill="#0079F1"/>
<path opacity="0.8" d="M161.537 203.762L159.829 202.913L164.685 193.263L166.393 194.112L161.537 203.762Z" fill="#007BF1"/>
<path opacity="0.8" d="M164.19 153.9L166.078 153.364L169.091 163.507L167.247 164.087L164.19 153.9Z" fill="#007DF2"/>
<path opacity="0.8" d="M152.32 196.434L151.106 194.915L159.424 188.437L160.638 189.956L152.32 196.434Z" fill="#007EF2"/>
<path opacity="0.8" d="M175.88 153.007L177.859 153.275L176.24 163.507L174.307 163.194L175.88 153.007Z" fill="#0080F3"/>
<path opacity="0.8" d="M147.149 186.024L146.699 184.103L156.771 181.869L157.221 183.79L147.149 186.024Z" fill="#0081F3"/>
<path opacity="0.8" d="M188.515 200.367L186.851 201.484L181.096 193.129L182.76 192.012L188.515 200.367Z" fill="#0083F3"/>
<path opacity="0.8" d="M186.717 157.072L188.38 158.189L182.715 166.5L181.051 165.383L186.717 157.072Z" fill="#0084F4"/>
<path opacity="0.8" d="M146.969 174.542L147.419 172.576L157.221 174.765L156.771 176.731L146.969 174.542Z" fill="#0086F4"/>
<path opacity="0.8" d="M177.859 204.745L175.88 205.058L174.307 195.273L176.285 194.96L177.859 204.745Z" fill="#0087F4"/>
<path opacity="0.8" d="M151.735 164.221L152.949 162.612L160.683 168.599L159.424 170.163L151.735 164.221Z" fill="#0089F5"/>
<path opacity="0.8" d="M166.483 204.165L164.505 203.629L167.247 194.38L169.226 194.961L166.483 204.165Z" fill="#008AF5"/>
<path opacity="0.8" d="M160.368 156.938L162.212 156L166.438 164.489L164.64 165.383L160.368 156.938Z" fill="#008CF6"/>
<path opacity="0.8" d="M156.546 198.892L155.018 197.507L161.267 190.537L162.796 191.877L156.546 198.892Z" fill="#008DF6"/>
<path opacity="0.8" d="M171.159 154.079L173.227 154.034L173.452 163.193L171.384 163.283L171.159 154.079Z" fill="#008FF6"/>
<path opacity="0.8" d="M149.892 189.957L149.083 188.08L157.536 184.551L158.345 186.427L149.892 189.957Z" fill="#0090F7"/>
<path opacity="0.8" d="M182.04 156.045L183.974 156.894L180.332 165.07L178.398 164.221L182.04 156.045Z" fill="#0092F7"/>
<path opacity="0.8" d="M147.778 179.234L147.868 177.134L156.771 177.536L156.681 179.591L147.778 179.234Z" fill="#0093F7"/>
<path opacity="0.8" d="M181.906 202.288L179.927 203.003L177.05 194.737L179.073 194.022L181.906 202.288Z" fill="#0094F8"/>
<path opacity="0.8" d="M150.431 168.734L151.421 166.857L159.064 170.879L158.075 172.71L150.431 168.734Z" fill="#0096F8"/>
<path opacity="0.8" d="M171.159 203.717L169.046 203.494L169.99 195.005L172.103 195.273L171.159 203.717Z" fill="#0097F8"/>
<path opacity="0.8" d="M157.266 160.424L159.019 159.173L164.01 165.83L162.302 167.126L157.266 160.424Z" fill="#0098F9"/>
<path opacity="0.8" d="M160.953 200.456L159.109 199.294L163.426 192.279L165.269 193.396L160.953 200.456Z" fill="#0099F9"/>
<path opacity="0.8" d="M166.933 155.911L169.046 155.464L170.665 163.417L168.552 163.864L166.933 155.911Z" fill="#009BF9"/>
<path opacity="0.8" d="M153.174 193.219L152.005 191.387L158.75 187.053L159.919 188.84L153.174 193.219Z" fill="#009CFA"/>
<path opacity="0.8" d="M177.454 155.91L179.612 156.446L177.724 164.042L175.566 163.55L177.454 155.91Z" fill="#009DFA"/>
<path opacity="0.8" d="M149.307 183.478L149.038 181.333L156.771 180.306L157.041 182.45L149.307 183.478Z" fill="#009EFA"/>
<path opacity="0.8" d="M185.323 199.339L183.434 200.411L179.657 193.664L181.591 192.637L185.323 199.339Z" fill="#009FFA"/>
<path opacity="0.8" d="M186.897 160.334L188.605 161.719L183.794 167.617L182.085 166.232L186.897 160.334Z" fill="#00A0FB"/>
<path opacity="0.8" d="M149.982 173.202L150.656 171.102L157.895 173.38L157.221 175.48L149.982 173.202Z" fill="#00A2FB"/>
<path opacity="0.8" d="M175.476 202.467L173.272 202.645L172.778 195.184L174.981 195.05L175.476 202.467Z" fill="#00A3FB"/>
<path opacity="0.8" d="M154.972 164.265L156.501 162.612L161.897 167.616L160.368 169.225L154.972 164.265Z" fill="#00A4FB"/>
<path opacity="0.8" d="M165.314 201.126L163.246 200.322L165.899 193.62L167.967 194.424L165.314 201.126Z" fill="#00A5FC"/>
<path opacity="0.8" d="M163.246 158.367L165.359 157.519L167.967 164.086L165.854 164.891L163.246 158.367Z" fill="#00A6FC"/>
<path opacity="0.8" d="M156.816 195.675L155.242 194.067L160.368 189.286L161.897 190.939L156.816 195.675Z" fill="#00A6FC"/>
<path opacity="0.8" d="M173.138 156.581L175.431 156.715L174.981 163.506L172.688 163.372L173.138 156.581Z" fill="#00A7FC"/>
<path opacity="0.8" d="M151.51 187.231L150.791 185.087L157.266 183.031L157.94 185.176L151.51 187.231Z" fill="#00A8FD"/>
<path opacity="0.8" d="M188.021 195.944L186.267 197.374L181.996 192.235L183.794 190.806L188.021 195.944Z" fill="#00A9FD"/>
<path opacity="0.8" d="M182.76 159.127L184.783 160.199L181.546 165.963L179.567 164.891L182.76 159.127Z" fill="#00AAFD"/>
<path opacity="0.8" d="M150.341 177.447L150.656 175.168L157.131 176.062L156.861 178.296L150.341 177.447Z" fill="#00ABFD"/>
<path opacity="0.8" d="M179.343 200.59L177.094 201.126L175.521 194.916L177.769 194.335L179.343 200.59Z" fill="#00ABFD"/>
<path opacity="0.8" d="M153.489 168.198L154.748 166.276L160.053 169.672L158.794 171.638L153.489 168.198Z" fill="#00ACFD"/>
<path opacity="0.8" d="M169.586 201.082L167.292 200.635L168.506 194.514L170.8 195.005L169.586 201.082Z" fill="#00ADFE"/>
<path opacity="0.8" d="M160.233 161.273L162.212 160.066L165.404 165.205L163.426 166.411L160.233 161.273Z" fill="#00ADFE"/>
<path opacity="0.8" d="M160.638 197.417L158.75 196.032L162.347 191.207L164.235 192.637L160.638 197.417Z" fill="#00AEFE"/>
<path opacity="0.8" d="M169.226 157.876L171.564 157.608L172.193 163.461L169.855 163.685L169.226 157.876Z" fill="#00AEFE"/>
<path opacity="0.8" d="M154.163 190.404L153.084 188.304L158.21 185.623L159.334 187.678L154.163 190.404Z" fill="#00AFFE"/>
<path opacity="0.8" d="M178.668 158.637L180.916 159.396L179.073 164.713L176.825 163.954L178.668 158.637Z" fill="#00AFFE"/>
<path opacity="0.8" d="M151.421 181.378L151.286 179.01L156.906 178.786L156.996 181.154L151.421 181.378Z" fill="#00B0FE"/>
<path opacity="0.8" d="M182.625 198.177L180.467 199.16L178.174 194.111L180.377 193.173L182.625 198.177Z" fill="#00B0FF"/>
<path opacity="0.8" d="M152.769 172.174L153.669 169.984L158.659 172.084L157.715 174.274L152.769 172.174Z" fill="#00B0FF"/>
<path opacity="0.8" d="M173.542 200.322L171.114 200.277L171.249 194.96L173.632 195.005L173.542 200.322Z" fill="#00B1FF"/>
<path opacity="0.8" d="M157.895 164.488L159.649 162.88L163.111 166.722L161.312 168.331L157.895 164.488Z" fill="#00B1FF"/>
<path opacity="0.8" d="M164.505 198.401L162.346 197.329L164.64 192.771L166.798 193.844L164.505 198.401Z" fill="#00B1FF"/>
<path opacity="0.8" d="M165.719 159.798L168.057 159.083L169.451 163.819L167.113 164.534L165.719 159.798Z" fill="#00B2FF"/>
<path opacity="0.8" d="M157.221 192.905L155.737 190.984L159.604 187.99L161.088 189.911L157.221 192.905Z" fill="#00B2FF"/>
<path opacity="0.8" d="M174.757 158.859L177.185 159.217L176.42 163.908L174.037 163.551L174.757 158.859Z" fill="#00B2FF"/>
<path opacity="0.8" d="M153.039 184.907L152.5 182.539L157.086 181.512L157.671 183.88L153.039 184.907Z" fill="#00B2FF"/>
<path opacity="0.8" d="M185.323 195.362L183.3 196.747L180.692 192.95L182.715 191.564L185.323 195.362Z" fill="#00B2FF"/>
<path opacity="0.8" d="M183.21 161.808L185.278 163.193L182.715 166.946L180.647 165.605L183.21 161.808Z" fill="#00B2FF"/>
<path opacity="0.8" d="M152.679 176.016L153.219 173.648L157.67 174.631L157.131 176.999L152.679 176.016Z" fill="#00B2FF"/>
<path opacity="0.8" d="M177.14 198.937L174.712 199.339L173.992 194.961L176.465 194.559L177.14 198.937Z" fill="#00B2FF"/>
<path opacity="0.8" d="M156.187 167.93L157.715 165.964L161.132 168.645L159.604 170.566L156.187 167.93Z" fill="#00B2FF"/>
<path opacity="0.8" d="M168.326 198.713L165.898 197.998L167.112 193.933L169.54 194.647L168.326 198.713Z" fill="#00B2FF"/>
<path opacity="0.8" d="M162.751 162.121L164.954 161.004L166.843 164.712L164.64 165.829L162.751 162.121Z" fill="#00B2FF"/>
<path opacity="0.8" d="M160.503 194.782L158.615 193.129L161.357 190.091L163.246 191.744L160.503 194.782Z" fill="#00B2FF"/>
<path opacity="0.8" d="M171.114 159.664L173.632 159.619L173.722 163.596L171.204 163.64L171.114 159.664Z" fill="#00B2FF"/>
<path opacity="0.8" d="M155.153 187.991L154.163 185.712L157.805 184.193L158.75 186.472L155.153 187.991Z" fill="#00B2FF"/>
<path opacity="0.8" d="M179.613 161.004L181.906 162.032L180.377 165.472L178.039 164.489L179.613 161.004Z" fill="#00B2FF"/>
<path opacity="0.8" d="M153.264 179.681L153.354 177.134L157.131 177.312L156.996 179.815L153.264 179.681Z" fill="#00B2FF"/>
<path opacity="0.8" d="M180.332 197.105L177.949 197.954L176.735 194.469L179.118 193.62L180.332 197.105Z" fill="#00B2FF"/>
<path opacity="0.8" d="M155.107 171.37L156.276 169.136L159.469 170.834L158.3 173.068L155.107 171.37Z" fill="#00B2FF"/>
<path opacity="0.8" d="M171.923 198.445L169.406 198.177L169.765 194.647L172.328 194.916L171.923 198.445Z" fill="#00B2FF"/>
<path opacity="0.8" d="M160.278 164.756L162.301 163.237L164.415 165.963L162.391 167.527L160.278 164.756Z" fill="#00B2FF"/>
<path opacity="0.8" d="M163.83 196.122L161.672 194.782L163.426 191.878L165.629 193.218L163.83 196.122Z" fill="#00B2FF"/>
<path opacity="0.8" d="M167.787 160.96L170.26 160.424L170.935 163.685L168.417 164.222L167.787 160.96Z" fill="#00B2FF"/>
<path opacity="0.8" d="M157.535 190.582L156.142 188.482L158.929 186.695L160.323 188.84L157.535 190.582Z" fill="#00B2FF"/>
<path opacity="0.8" d="M176.105 160.691L178.578 161.317L177.814 164.4L175.341 163.819L176.105 160.691Z" fill="#00B2FF"/>
<path opacity="0.8" d="M154.253 183.031L153.894 180.484L157.041 180.037L157.401 182.584L154.253 183.031Z" fill="#00B2FF"/>
<path opacity="0.8" d="M183.119 195.005L180.871 196.257L179.343 193.531L181.591 192.235L183.119 195.005Z" fill="#00B2FF"/>
<path opacity="0.8" d="M183.739 163.969L181.776 166.356L183.795 167.996L185.758 165.609L183.739 163.969Z" fill="#00B2FF"/>
<path opacity="0.8" d="M155.291 172.323L154.497 174.791L157.41 175.716L158.203 173.247L155.291 172.323Z" fill="#00B2FF"/>
<path opacity="0.8" d="M175.162 194.754L172.56 194.927L172.764 197.958L175.366 197.786L175.162 194.754Z" fill="#00B2FF"/>
<path opacity="0.8" d="M160.058 165.608L158.277 167.5L160.477 169.545L162.258 167.653L160.058 165.608Z" fill="#00B2FF"/>
<path opacity="0.8" d="M165.784 193.279L164.694 196.021L167.119 196.973L168.209 194.231L165.784 193.279Z" fill="#00B2FF"/>
<defs>
<linearGradient id="paint0_linear_1497_53" x1="157.536" y1="183.343" x2="121.782" y2="131.749" gradientUnits="userSpaceOnUse">
<stop offset="0.12" stop-color="#B52CAD"/>
<stop offset="0.93" stop-color="#EC35C1"/>
</linearGradient>
<linearGradient id="paint1_linear_1497_53" x1="82.0425" y1="68.9182" x2="138.757" y2="116.9" gradientUnits="userSpaceOnUse">
<stop stop-color="#461483"/>
<stop offset="0.41" stop-color="#711D93"/>
</linearGradient>
</defs>
</svg>
