<svg width="300" height="300" viewBox="0 0 300 300" fill="none" xmlns="http://www.w3.org/2000/svg">
<circle cx="150" cy="150" r="150" fill="white"/>
<g clip-path="url(#clip0_437_2384)">
<path d="M299.5 140.001C294 57.5009 222.5 -4.99905 139.5 0.500947C98.5004 3.00095 62.5004 22.5009 37.5004 51.0009L37.0004 51.5009C12.0004 80.5009 -1.9996 119.001 0.500396 160.001C1.0004 164.001 1.0004 168.001 2.0004 171.501V172.001C2.5004 174.501 3.0004 177.001 3.5004 179.501C4.0004 182.001 4.5004 184.001 5.0004 186.501C22.0004 255.501 86.5004 304.501 160 299.501C243 294.001 305.5 222.501 299.5 140.001ZM267 142.001C267.5 152.001 267 162.001 265 171.501C254 145.001 232.5 125.501 213.5 115.001C217.5 70.0009 202 51.0009 184.5 48.0009C171 45.5009 158 54.5009 155.5 68.0009C155.5 68.5009 155.5 69.0009 155.5 69.5009C153.5 83.0009 163.5 96.0009 177 97.5009C178 97.5009 179.5 97.5009 180.5 97.5009C180.5 99.0009 180.5 100.501 180.5 102.501C164.5 98.5009 149.5 97.5009 136 99.0009C131 99.5009 126 100.001 120.5 101.001C122 86.0009 128 68.5009 139 56.0009C149.5 44.0009 165.5 37.0009 183 39.0009C186.5 39.5009 190 40.0009 193 41.0009H193.5C234 58.0009 264 96.0009 267 142.001ZM162.5 165.001C158.5 170.501 154.5 175.501 149.5 180.001C142.5 172.501 136 164.001 131.5 154.501C131.5 154.001 131 153.501 131 153.001C128 147.001 126 140.501 124.5 134.501C135 132.001 145.5 131.001 155.5 131.501H157C163.5 132.001 170 133.001 176.5 135.001C173 145.501 168.5 156.001 162.5 165.001ZM111 39.5009C93.5004 62.5009 87.5004 90.5009 87.5004 112.001C46.5004 131.001 38.0004 154.001 44.0004 170.501C44.0004 171.001 44.5004 171.501 44.5004 172.001C50.0004 185.001 64.5004 191.001 77.5004 185.501C90.5004 180.001 96.5004 165.501 91.0004 152.501C90.5004 151.501 90.0004 150.501 89.5004 149.501C91.0004 148.501 92.0004 148.001 93.5004 147.001C98.0004 163.001 105 176.001 112.5 187.501C115.5 191.501 118.5 196.001 122 199.501C108 205.501 90.5004 209.001 74.0004 206.001C58.0004 203.001 44.5004 192.501 37.0004 176.501C35.5004 173.501 34.5004 170.001 34.0004 167.001C33.5004 164.001 33.5004 161.001 33.0004 158.501C29.5004 104.001 62.5004 56.5009 111 39.5009ZM158 267.001C126 269.001 96.5004 258.501 73.5004 239.001C102 243.001 129.5 234.001 148 223.001C185 249.001 209 245.001 220.5 231.501C229.5 221.001 228.5 205.001 218 196.001C217.5 195.501 217 195.501 217 195.001C206 186.501 190.5 188.501 182 199.501C181.5 200.501 180.5 201.501 180 202.501C178.5 202.001 177 201.001 175.5 200.001C186 189.001 194.5 177.001 201 163.001C203.5 158.501 205.5 153.501 207 149.001C219.5 158.001 231.5 171.501 236.5 187.501C241.5 203.001 239.5 220.001 229.5 234.001C227.5 236.501 225 239.501 222.5 241.501C204 257.001 181.5 265.501 158 267.001Z" fill="url(#paint0_linear_437_2384)"/>
<path opacity="0.9" d="M185 48C182 47.5 179.5 47.5 176.5 48C191 56 201.5 77.5 196 120.5C194 134.5 190 148 184 160.5C178.5 172 171.5 182.5 163.5 192.5C167.5 195.5 171.5 198 176 200.5C186.5 189.5 195 177.5 201.5 163.5C207.5 151 212 137.5 213.5 123.5C219.5 72.5 203.5 51.5 185 48Z" fill="url(#paint1_radial_437_2384)"/>
<path opacity="0.8" d="M196 120.5C201.5 77.5 191 56 176.5 48C176 48 175.5 48 175 48.5C189 56.5 199 78.5 193.5 120.5C191.5 134.5 187.5 148 181.5 160.5C176.5 171.5 169.5 182 161.5 191.5C162 192 162.5 192 163 192.5C171.5 183 178.5 172 183.5 160.5C190 148 194 134.5 196 120.5Z" fill="white"/>
<path opacity="0.5" d="M141.5 218C140 217 139 216 137.5 215C116.5 224 87 229.5 58 222.5C62.5 228.5 68 234 74 239C102.5 243 130 234 148.5 223C146 221 143.5 219.5 141.5 218Z" fill="url(#paint2_radial_437_2384)"/>
<path opacity="0.6" d="M137.5 214.5C137 214 136 213.5 135.5 213C114 221.5 84.5 226.5 55.5 219.5C56 220.5 57 221.5 57.5 222.5C87 229 116 223.5 137.5 214.5Z" fill="url(#paint3_linear_437_2384)"/>
<path opacity="0.9" d="M43.9999 170.499C43.9999 170.999 44.4999 171.499 44.4999 171.999C45.4999 174.499 46.4999 176.499 47.9999 177.999C47.4999 161.499 60.9999 141.499 101 124.999C114 119.499 128 116.499 142 115.499C154.5 114.499 167.5 114.999 180 117.499C180.5 111.999 181 106.999 181 102.499C166.5 98.9991 151.5 97.4991 136.5 98.9991C122.5 99.9991 108.5 102.999 95.4999 108.499C47.9999 128.499 37.9999 152.999 43.9999 170.499Z" fill="url(#paint4_radial_437_2384)"/>
<path opacity="0.8" d="M101.5 125C61.4996 141.5 47.9997 161.5 48.4997 178C48.9997 178.5 48.9996 179 49.4996 179.5C49.4996 163.5 62.9997 143.5 102.5 127C115.5 121.5 129.5 118.5 143.5 117.5C155.5 116.5 168 117 180 119.5C180 119 180 118.5 180 118C167.5 115.5 155 115 142 116C128.5 116.5 114.5 119.5 101.5 125Z" fill="white"/>
<path opacity="0.4" d="M213 123.5C213 125 212.5 127 212 128.5C230 142.5 249.5 165 258.5 193.5C261.5 186.5 263.5 179 265 171.5C254 145 232.5 126 213.5 115C213.5 118 213.5 120.5 213 123.5Z" fill="url(#paint5_radial_437_2384)"/>
<path opacity="0.5" d="M212 128.5C212 129.5 211.5 130 211.5 131C229.5 145 248.5 168 257 197C257.5 196 258 195 258.5 193.5C250 165 230.5 142.5 212 128.5Z" fill="url(#paint6_linear_437_2384)"/>
<path opacity="0.9" d="M220.5 231.5C222.5 229.5 224 227 225 224C211 232.5 187 230.5 152.5 204.5C141.5 196 131.5 185.5 124 174C116.5 163.5 111 152 107 140C102 142 97.5 144.5 93.5 146.5C97.5 161 104 174.5 113 187C120.5 198.5 130.5 209 141.5 217.5C182.5 249 208.5 245.5 220.5 231.5Z" fill="url(#paint7_radial_437_2384)"/>
<path opacity="0.8" d="M152.5 204.5C187 230.5 211 232.5 225 224C225 223.5 225.5 223 225.5 222.5C211.5 230.5 187.5 228.5 153.5 202.5C142.5 194 132.5 183.5 125 172C118 162 112.5 151 108.5 139.5C108 139.5 107.5 140 107 140C111 152 117 163.5 124 174C131.5 185.5 141 196 152.5 204.5Z" fill="white"/>
<path opacity="0.3" d="M95.5002 108.5C97.0002 108 98.5002 107.5 100 106.5C103 84 113 55.5 133 33.5C125.5 34.5 118 36.5 110.5 39C93.0002 61.5 87.0002 90 87.5002 111.5C90.5002 111 93.0002 109.5 95.5002 108.5Z" fill="url(#paint8_radial_437_2384)"/>
<path opacity="0.4" d="M100.5 107C101.5 106.5 102 106.5 103 106C106.5 83 116.5 55 137.5 33.5C136.5 33.5 135 34 134 34C113 56 103 84 100.5 107Z" fill="url(#paint9_linear_437_2384)"/>
<path opacity="0.4" d="M140 0.500277C98.5 3.00028 62.5 22.5003 37.5 51.0003L37 51.5003C42 56.5003 58 66.0003 64.5 70.0003C77.5 56.0003 93.5 45.5003 111.5 39.0003C113 37.5003 114 35.5003 115.5 34.0003C132.5 15.0003 155.5 5.00028 182.5 5.00028C185.5 5.00028 191.5 5.50028 191.5 5.50028C174.5 1.00028 157 -0.999723 140 0.500277Z" fill="url(#paint10_linear_437_2384)"/>
<path opacity="0.4" d="M158 267C126 269 96.5 258.5 73.5 239C71.5 238.5 69.5 238.5 67 238C42 233 21.5 218 8 194.5C6.5 192 5 189.5 4 186.5C22 255.5 86.5 304.5 160 299.5C160.5 292 158.5 274.5 158 267Z" fill="url(#paint11_linear_437_2384)"/>
<path opacity="0.4" d="M299.5 139.999C295 139.499 272.5 141.499 267 141.999C267.5 151.999 267 161.999 265 171.499C266 173.499 266.5 175.499 267 177.499C275 201.499 272.5 226.999 259 249.999C257.5 252.499 256 254.999 254 257.499C285 227.999 302.5 185.499 299.5 139.999Z" fill="url(#paint12_linear_437_2384)"/>
<path opacity="0.5" d="M183.5 39.0008C187 39.5008 190.5 40.0008 193.5 41.0008H194C207 46.5008 218.5 53.5008 229 63.0008C234 57.5008 243.5 51.0008 243.5 51.0008C243.5 51.0008 229 36.0008 207 31.5008C191.5 28.5008 156.5 25.0008 134.5 63.0008C136 60.5008 138 58.0008 140 56.0008C150.5 44.0008 166.5 37.0008 183.5 39.0008Z" fill="url(#paint13_linear_437_2384)"/>
<path opacity="0.5" d="M229.5 234.5C227.5 237 225 240 222.5 242C222.5 242 222.5 242 222 242.5C211 251 198.5 257.5 185.5 261.5C188 268.5 188.5 280 188.5 280C188.5 280 208.5 275 223.5 258C234 246 254.5 217.5 233 179.5C233 179.5 233 179.5 233 180C234.5 182.5 235.5 185.5 236.5 188C241.5 203 239.5 220.5 229.5 234.5Z" fill="url(#paint14_linear_437_2384)"/>
<path opacity="0.5" d="M37.0003 176.5C35.5003 173.5 34.5003 170 34.0003 167V166.5C32.0003 152.5 32.5003 138.5 35.5003 125C28.0003 123.5 18.0003 118.5 18.0003 118.5C18.0003 118.5 12.5003 138.5 19.5003 160C24.5003 175 39.5003 207 83.0003 207.5C83.0003 207.5 83.0003 207.5 82.5003 207.5C79.5003 207.5 76.5003 207 73.5003 206.5C58.0003 202.5 44.0003 192.5 37.0003 176.5Z" fill="url(#paint15_linear_437_2384)"/>
<path opacity="0.6" d="M177.5 97.4991C178.5 97.4991 180 97.4991 181 97.4991C181 97.4991 180 81.9991 178.5 73.9991C176.5 65.9991 173.5 60.4991 170.5 57.4991C168.5 55.4991 161.5 52.4991 156 68.9991C154 82.9991 163.5 95.9991 177.5 97.4991Z" fill="url(#paint16_linear_437_2384)"/>
<path opacity="0.5" d="M91.0004 152.5C90.5004 151.5 90.0004 150.5 89.5004 149.5C89.5004 149.5 76.5004 158 70.5004 163.5C64.5004 169 61.5004 174.5 60.5004 178.5C60.0004 181.5 61.0004 189 78.0004 185.5C90.5004 180 96.5004 165.5 91.0004 152.5Z" fill="url(#paint17_linear_437_2384)"/>
<path opacity="0.6" d="M181.5 199.999C181 200.999 180 201.999 179.5 202.999C179.5 202.999 193.5 209.999 201.5 212.499C209.5 214.999 215.5 214.999 219.5 213.999C222.5 212.999 228.5 208.499 217 195.499C206 186.499 190 188.999 181.5 199.999Z" fill="url(#paint18_linear_437_2384)"/>
<path opacity="0.3" d="M176.5 135C173.5 145.5 169 155 163.5 163.5C163 164 163 164.5 162.5 165C158.5 170.5 154.5 175.5 149.5 180C153 183.5 156.5 187 160.5 190.5C165 194 170 197.5 175 200.5C185.5 189.5 194 177.5 200.5 163.5C203 159 204.5 154 206.5 149.5C201 145.5 196 142.5 191 140.5C186.5 138.5 181.5 136.5 176.5 135Z" fill="url(#paint19_linear_437_2384)"/>
<path opacity="0.3" d="M73.5 239C102 243 129.5 234 148 223C145.5 221.5 143.5 220 141 218C134 212.5 127.5 206.5 121.5 199.5C107.5 205.5 90 209 73.5 206C57.5 203 44 192.5 36.5 176.5C35 173.5 34 170 33.5 167C38 195.5 52.5 221 73.5 239Z" fill="url(#paint20_linear_437_2384)"/>
<path opacity="0.3" d="M149.5 180C142.5 172.5 136 164 131.5 154.5C131.5 154 131 153.5 131 153C128 147 126 140.5 124.5 134.5C119.5 135.5 114.5 137 110 139C104.5 141 99 144 94 146.5C98.5 162.5 105.5 175.5 113 187C116 191 119 195.5 122.5 199C128.5 196.5 134 193.5 138 190C142 187.5 146 184 149.5 180Z" fill="url(#paint21_linear_437_2384)"/>
<path opacity="0.3" d="M111 39.499C93.5002 61.999 87.5002 90.499 88.0002 111.999C90.5002 110.999 93.0002 109.499 95.5002 108.499C103.5 104.999 112.5 102.499 121 100.999C122.5 85.999 128.5 68.499 139.5 55.999C150 43.999 166 36.999 183.5 38.999C187 39.499 190.5 39.999 193.5 40.999H194C177.5 34.499 159.5 31.499 142 32.499C131 33.499 121 35.999 111 39.499Z" fill="url(#paint22_linear_437_2384)"/>
<path opacity="0.3" d="M265 171.5C254.5 145 233 126 214 115C214 117.5 213.5 120.5 213 123.5C212 132.5 210 141 207 149.5C219.5 158.5 231.5 172 236.5 188C241.5 203.5 239.5 220.5 229.5 234.5C227.5 237 225 240 222.5 242C244.5 225 260 200 265 171.5Z" fill="url(#paint23_linear_437_2384)"/>
<path opacity="0.3" d="M121 119C121.5 124 122.5 129.5 124 134.5C134.5 132 145 131 155 131.5H156.5C163 132 169.5 133 176 135C177.5 130 178.5 125 179.5 120C180.5 113.5 180.5 107.5 180.5 102.5C164.5 98.5 149.5 97.5 136 99C131 99.5 126 100 120.5 101C120.5 107.5 120.5 113.5 121 119Z" fill="url(#paint24_linear_437_2384)"/>
</g>
<defs>
<linearGradient id="paint0_linear_437_2384" x1="47.6304" y1="252.365" x2="238.875" y2="61.0955" gradientUnits="userSpaceOnUse">
<stop stop-color="#E6007A"/>
<stop offset="0.21" stop-color="#703AC2"/>
<stop offset="0.46" stop-color="#0070EB"/>
<stop offset="0.77" stop-color="#0297FB"/>
<stop offset="1" stop-color="#0AE2FF"/>
</linearGradient>
<radialGradient id="paint1_radial_437_2384" cx="0" cy="0" r="1" gradientUnits="userSpaceOnUse" gradientTransform="translate(192.751 119.625) scale(57.04)">
<stop stop-color="white"/>
<stop offset="1" stop-color="white" stop-opacity="0"/>
</radialGradient>
<radialGradient id="paint2_radial_437_2384" cx="0" cy="0" r="1" gradientUnits="userSpaceOnUse" gradientTransform="translate(108.433 225.423) scale(33.192 33.192)">
<stop stop-color="white"/>
<stop offset="1" stop-color="white" stop-opacity="0"/>
</radialGradient>
<linearGradient id="paint3_linear_437_2384" x1="58.6465" y1="219.821" x2="90.6365" y2="219.381" gradientUnits="userSpaceOnUse">
<stop stop-color="white" stop-opacity="0"/>
<stop offset="1" stop-color="white"/>
</linearGradient>
<radialGradient id="paint4_radial_437_2384" cx="0" cy="0" r="1" gradientUnits="userSpaceOnUse" gradientTransform="translate(102.36 128.12) rotate(-120) scale(57.0399 57.0399)">
<stop stop-color="white"/>
<stop offset="1" stop-color="white" stop-opacity="0"/>
</radialGradient>
<radialGradient id="paint5_radial_437_2384" cx="0" cy="0" r="1" gradientUnits="userSpaceOnUse" gradientTransform="translate(236.141 148.261) rotate(-120) scale(33.1919 33.1919)">
<stop stop-color="white"/>
<stop offset="1" stop-color="white" stop-opacity="0"/>
</radialGradient>
<linearGradient id="paint6_linear_437_2384" x1="256.113" y1="194.18" x2="239.738" y2="166.7" gradientUnits="userSpaceOnUse">
<stop stop-color="white" stop-opacity="0"/>
<stop offset="1" stop-color="white"/>
</linearGradient>
<radialGradient id="paint7_radial_437_2384" cx="0" cy="0" r="1" gradientUnits="userSpaceOnUse" gradientTransform="translate(152.165 199.576) rotate(120) scale(57.0399 57.0399)">
<stop stop-color="white"/>
<stop offset="1" stop-color="white" stop-opacity="0"/>
</radialGradient>
<radialGradient id="paint8_radial_437_2384" cx="0" cy="0" r="1" gradientUnits="userSpaceOnUse" gradientTransform="translate(105.409 76.3362) rotate(120) scale(33.1919 33.1919)">
<stop stop-color="white"/>
<stop offset="1" stop-color="white" stop-opacity="0"/>
</radialGradient>
<linearGradient id="paint9_linear_437_2384" x1="135.128" y1="35.952" x2="119.533" y2="63.887" gradientUnits="userSpaceOnUse">
<stop stop-color="white" stop-opacity="0"/>
<stop offset="1" stop-color="white"/>
</linearGradient>
<linearGradient id="paint10_linear_437_2384" x1="142.133" y1="21.7783" x2="93.2535" y2="35.9983" gradientUnits="userSpaceOnUse">
<stop stop-color="#231F20"/>
<stop offset="1" stop-color="white"/>
</linearGradient>
<linearGradient id="paint11_linear_437_2384" x1="49.783" y1="208.149" x2="90.653" y2="250.809" gradientUnits="userSpaceOnUse">
<stop stop-color="#231F20"/>
<stop offset="1" stop-color="white"/>
</linearGradient>
<linearGradient id="paint12_linear_437_2384" x1="269.123" y1="201.719" x2="283.343" y2="158.489" gradientUnits="userSpaceOnUse">
<stop stop-color="#231F20"/>
<stop offset="1" stop-color="white"/>
</linearGradient>
<linearGradient id="paint13_linear_437_2384" x1="164.389" y1="46.5078" x2="229.904" y2="61.5028" gradientUnits="userSpaceOnUse">
<stop stop-color="#231F20"/>
<stop offset="1" stop-color="white"/>
</linearGradient>
<linearGradient id="paint14_linear_437_2384" x1="232.429" y1="214.203" x2="186.654" y2="263.453" gradientUnits="userSpaceOnUse">
<stop stop-color="#231F20"/>
<stop offset="1" stop-color="white"/>
</linearGradient>
<linearGradient id="paint15_linear_437_2384" x1="53.1603" y1="189.312" x2="33.4103" y2="125.067" gradientUnits="userSpaceOnUse">
<stop stop-color="#231F20"/>
<stop offset="1" stop-color="white"/>
</linearGradient>
<linearGradient id="paint16_linear_437_2384" x1="178.703" y1="70.6616" x2="157.988" y2="91.4066" gradientUnits="userSpaceOnUse">
<stop stop-color="#231F20"/>
<stop offset="1" stop-color="white"/>
</linearGradient>
<linearGradient id="paint17_linear_437_2384" x1="66.9389" y1="164.79" x2="95.2489" y2="172.395" gradientUnits="userSpaceOnUse">
<stop stop-color="#231F20"/>
<stop offset="1" stop-color="white"/>
</linearGradient>
<linearGradient id="paint18_linear_437_2384" x1="204.311" y1="214.519" x2="196.726" y2="186.219" gradientUnits="userSpaceOnUse">
<stop stop-color="#231F20"/>
<stop offset="1" stop-color="white"/>
</linearGradient>
<linearGradient id="paint19_linear_437_2384" x1="161.189" y1="189.33" x2="173.639" y2="172.16" gradientUnits="userSpaceOnUse">
<stop stop-color="#231F20"/>
<stop offset="1" stop-color="white"/>
</linearGradient>
<linearGradient id="paint20_linear_437_2384" x1="118.386" y1="181.894" x2="93.511" y2="193.754" gradientUnits="userSpaceOnUse">
<stop stop-color="#231F20"/>
<stop offset="1" stop-color="white"/>
</linearGradient>
<linearGradient id="paint21_linear_437_2384" x1="109.38" y1="140.482" x2="117.08" y2="156.477" gradientUnits="userSpaceOnUse">
<stop stop-color="#231F20"/>
<stop offset="1" stop-color="white"/>
</linearGradient>
<linearGradient id="paint22_linear_437_2384" x1="145.148" y1="91.11" x2="139.833" y2="72.755" gradientUnits="userSpaceOnUse">
<stop stop-color="#231F20"/>
<stop offset="1" stop-color="white"/>
</linearGradient>
<linearGradient id="paint23_linear_437_2384" x1="202.618" y1="175.166" x2="218.018" y2="178.711" gradientUnits="userSpaceOnUse">
<stop stop-color="#231F20"/>
<stop offset="1" stop-color="white"/>
</linearGradient>
<linearGradient id="paint24_linear_437_2384" x1="178.458" y1="123.136" x2="158.923" y2="119.591" gradientUnits="userSpaceOnUse">
<stop stop-color="#231F20"/>
<stop offset="1" stop-color="white"/>
</linearGradient>
<clipPath id="clip0_437_2384">
<rect width="300" height="300" fill="white"/>
</clipPath>
</defs>
</svg>
