<svg width="500" height="500" viewBox="0 0 500 500" fill="none" xmlns="http://www.w3.org/2000/svg">
<rect x="0.5" y="0.5" width="499" height="499" fill="#1C2925" stroke="#D7FE51"/>
<g clip-path="url(#clip0_946_629)">
<path d="M284.688 121H215.424C207.445 121 200.176 125.565 196.715 132.741L161.304 206.161C156.873 215.343 163.571 225.995 173.782 225.995H221.568C228.214 225.995 234.272 222.19 237.162 216.208L250.056 189.475L316.118 326.424L226.864 261.892C223.316 259.333 219.058 257.949 214.68 257.949H149.345C141.366 257.949 134.097 262.514 130.635 269.69L87.3843 359.417C82.9537 368.598 89.6516 379.25 99.8629 379.25H147.648C154.294 379.25 160.352 375.446 163.242 369.463L198.359 296.665L295.107 370.206C302.826 376.068 312.241 379.25 321.933 379.25H400.266C410.477 379.25 417.175 368.598 412.745 359.417L303.397 132.741C299.935 125.565 292.666 121 284.688 121Z" fill="#D7FE51"/>
</g>
<defs>
<clipPath id="clip0_946_629">
<rect width="328.129" height="258.25" fill="white" transform="translate(86 121)"/>
</clipPath>
</defs>
</svg>
