<svg width="256" height="256" viewBox="0 0 256 256" fill="none" xmlns="http://www.w3.org/2000/svg">
<g clip-path="url(#clip0_741_46)">
<circle cx="128" cy="128" r="128" fill="#1C2925"/>
<mask id="mask0_741_46" style="mask-type:luminance" maskUnits="userSpaceOnUse" x="43" y="61" width="171" height="135">
<path d="M213.627 61H43V195.29H213.627V61Z" fill="white"/>
</mask>
<g mask="url(#mask0_741_46)">
<path d="M146.318 61H110.3C106.151 61 102.371 63.3738 100.572 67.1053L82.1578 105.284C79.8537 110.058 83.3367 115.597 88.6464 115.597H113.495C116.951 115.597 120.101 113.619 121.604 110.508L128.309 96.607L162.661 167.82L116.249 134.264C114.404 132.933 112.19 132.213 109.913 132.213H75.9392C71.7901 132.213 68.0102 134.587 66.21 138.319L43.7196 184.977C41.4157 189.751 44.8986 195.29 50.2085 195.29H75.0567C78.5126 195.29 81.6628 193.312 83.1656 190.201L101.426 152.346L151.735 190.587C155.749 193.635 160.645 195.29 165.685 195.29H206.418C211.728 195.29 215.211 189.751 212.907 184.977L156.046 67.1053C154.246 63.3738 150.466 61 146.318 61Z" fill="#D7FE51"/>
</g>
</g>
<defs>
<clipPath id="clip0_741_46">
<rect width="256" height="256" fill="white"/>
</clipPath>
</defs>
</svg>
