<svg width="256" height="256" viewBox="0 0 256 256" fill="none" xmlns="http://www.w3.org/2000/svg">
<g clip-path="url(#clip0_741_46)">
<path d="M256 128C256 198.692 198.692 256 128 256C57.3075 256 0 198.692 0 128C0 57.3075 57.3075 0 128 0C198.692 0 256 57.3075 256 128Z" fill="#EA6A24"/>
<path d="M128.24 95.26C128.333 95.1667 129.173 95.12 130.76 95.12C132.44 95.3067 133.607 95.4467 134.26 95.54C137.34 96.4733 139.86 98.06 141.82 100.3L142.52 101.28L143.5 100.3C146.02 97.9667 148.633 97.3133 151.34 98.34C152.74 98.8067 153.673 99.6933 154.14 101C154.513 102.12 154.28 104.453 153.44 108C152.88 110.427 151.573 115.7 149.52 123.82C146.253 136.607 144.527 143.653 144.34 144.96C143.967 147.013 144.013 148.693 144.48 150C145.04 151.493 146.113 152.147 147.7 151.96C148.82 151.867 149.987 150.98 151.2 149.3C152.507 147.34 153.86 143.7 155.26 138.38C155.633 136.793 156.053 135.907 156.52 135.72C156.8 135.627 157.687 135.58 159.18 135.58C160.953 135.58 161.933 135.673 162.12 135.86C162.68 136.233 162.68 137.307 162.12 139.08C159.693 147.76 156.567 153.5 152.74 156.3C151.247 157.42 149.753 158.12 148.26 158.4C146.3 158.68 144.2 158.54 141.96 157.98C137.76 157.047 134.773 154.853 133 151.4L132.58 150.42L131.74 151.12C124.367 157.467 117.087 159.707 109.9 157.84C107.847 157.28 105.933 156.44 104.16 155.32C98.84 151.587 95.8067 146.033 95.06 138.66C94.6867 136.14 94.7333 133.433 95.2 130.54C96.4133 122.7 99.6333 115.513 104.86 108.98C106.633 106.833 108.593 104.873 110.74 103.1C116.06 98.7133 121.427 96.1467 126.84 95.4C127.213 95.3067 127.68 95.26 128.24 95.26ZM132.3 102.12C130.433 101.653 128.893 101.56 127.68 101.84C124.787 102.4 121.987 104.033 119.28 106.74C116.573 109.633 114.193 114.767 112.14 122.14C111.673 123.82 111.16 125.78 110.6 128.02C109.013 134.367 108.22 139.08 108.22 142.16C108.22 145.053 108.827 147.34 110.04 149.02C111.813 151.353 114.287 152.287 117.46 151.82C121.007 151.447 124.647 149.393 128.38 145.66C130.06 143.98 131.32 142.44 132.16 141.04C132.16 141.32 133.42 136.42 135.94 126.34L139.44 111.92L139.3 110.94C138.087 106.273 135.753 103.333 132.3 102.12Z" fill="white"/>
</g>
<defs>
<clipPath id="clip0_741_46">
<rect width="256" height="256" fill="white"/>
</clipPath>
</defs>
</svg>
