<svg width="256" height="256" viewBox="0 0 256 256" fill="none" xmlns="http://www.w3.org/2000/svg">
<g clip-path="url(#clip0_1426_2348)">
<mask id="mask0_1426_2348" style="mask-type:luminance" maskUnits="userSpaceOnUse" x="0" y="0" width="256" height="256">
<path d="M256 0H0V256H256V0Z" fill="white"/>
</mask>
<g mask="url(#mask0_1426_2348)">
<path d="M128 256C198.692 256 256 198.692 256 128C256 57.3075 198.692 0 128 0C57.3075 0 0 57.3075 0 128C0 198.692 57.3075 256 128 256Z" fill="url(#paint0_linear_1426_2348)"/>
<path d="M199.269 119.795C197.466 119.41 195.581 119.043 193.628 118.689C193.071 114.227 192.094 109.896 190.742 105.751C216.141 109.809 232.562 116.259 232.562 123.524C232.562 123.605 232.562 123.685 232.555 123.766C231.948 135.934 185.27 145.759 127.781 145.759C69.9094 145.759 23 135.803 23 123.524C23 123.449 23 123.375 23.0063 123.3C23.3443 116.042 40.0722 109.616 65.7087 105.608C64.3502 109.753 63.3673 114.072 62.7976 118.534C60.5313 118.931 58.3652 119.354 56.2867 119.795C53.576 120.373 51.0906 120.963 48.8368 121.572C46.4328 122.219 44.2917 122.871 42.4073 123.524C46.0509 124.785 50.6774 126.059 56.2867 127.252C58.1899 127.65 60.1744 128.042 62.2404 128.414C79.5818 131.54 102.464 133.491 127.781 133.491C153.511 133.491 176.731 131.472 194.173 128.265C195.932 127.942 197.635 127.6 199.269 127.252C204.884 126.059 209.517 124.785 213.154 123.524C209.517 122.256 204.884 120.988 199.269 119.795Z" fill="white"/>
<path d="M206.731 85.1753C206.731 85.1194 206.731 85.0573 206.731 85.0013C206.731 78.4452 189.196 72.7654 163.616 70C169.701 74.002 175.11 79.0107 179.623 84.7963C179.955 84.8646 180.281 84.933 180.606 85.0013C180.368 85.051 180.131 85.1008 179.893 85.1505C166.858 87.8102 148.672 89.5378 128.269 89.5378C107.81 89.5378 89.5859 87.804 76.5454 85.1318C76.3388 85.0883 76.1322 85.0448 75.9319 85.0013C76.2136 84.9392 76.4953 84.8833 76.7833 84.8273C81.2971 79.0356 86.6998 74.0207 92.7912 70.0124C67.28 72.784 49.8008 78.4577 49.8008 85.0013C49.8008 93.1918 87.7891 99.6982 113.394 101.5C119.123 101.904 128.094 101.929 128.094 101.929C131.262 102.066 137.027 101.91 142.737 101.519C168.48 99.7541 206.355 93.3161 206.731 85.1753Z" fill="white"/>
<path d="M49.8008 169.982C49.8008 165.694 57.2883 161.791 69.6151 158.821C71.5809 162.736 73.9035 166.427 76.5391 169.851C76.3388 169.895 76.1322 169.938 75.9319 169.982C76.2073 170.038 76.4891 170.1 76.777 170.156C76.7958 170.181 76.8146 170.199 76.8334 170.224H77.1151C90.1118 172.828 108.104 174.512 128.269 174.512C148.428 174.512 166.426 172.828 179.423 170.224H179.592C179.605 170.212 179.617 170.193 179.63 170.181C179.955 170.119 180.287 170.05 180.606 169.982C180.375 169.932 180.137 169.882 179.899 169.833C182.535 166.409 184.857 162.711 186.823 158.796C199.206 161.767 206.731 165.688 206.731 169.982C206.731 170.063 206.731 170.143 206.725 170.224C206.118 179.39 171.228 186.779 128.269 186.779C85.31 186.779 50.4144 179.39 49.8071 170.224C49.8071 170.143 49.8008 170.063 49.8008 169.982Z" fill="white"/>
</g>
</g>
<defs>
<linearGradient id="paint0_linear_1426_2348" x1="218" y1="38" x2="37" y2="219" gradientUnits="userSpaceOnUse">
<stop offset="1" stop-color="#984BD5"/>
</linearGradient>
<clipPath id="clip0_1426_2348">
<rect width="256" height="256" fill="white"/>
</clipPath>
</defs>
</svg>
