<svg width="256" height="256" viewBox="0 0 256 256" fill="none" xmlns="http://www.w3.org/2000/svg">
<circle cx="128" cy="128" r="127" fill="#16191F"/>
<mask id="mask0_741_46" style="mask-type:luminance" maskUnits="userSpaceOnUse" x="2" y="2" width="253" height="253">
<path d="M255 2H2V255H255V2Z" fill="white"/>
</mask>
<g mask="url(#mask0_741_46)">
<mask id="mask1_741_46" style="mask-type:luminance" maskUnits="userSpaceOnUse" x="2" y="2" width="253" height="253">
<path d="M255 2.79834H2.7981V255H255V2.79834Z" fill="white"/>
</mask>
<g mask="url(#mask1_741_46)">
<mask id="mask2_741_46" style="mask-type:luminance" maskUnits="userSpaceOnUse" x="2" y="2" width="253" height="253">
<path d="M255 2.79834H2.7981V255H255V2.79834Z" fill="white"/>
</mask>
<g mask="url(#mask2_741_46)">
<mask id="mask3_741_46" style="mask-type:luminance" maskUnits="userSpaceOnUse" x="2" y="2" width="253" height="253">
<path d="M255 2.79834H2.7981V255H255V2.79834Z" fill="white"/>
</mask>
<g mask="url(#mask3_741_46)">
<path d="M255 128.902C255 162.345 241.715 194.418 218.066 218.067C194.417 241.715 162.343 255 128.899 255C125.26 255 121.657 254.844 118.09 254.532C93.7009 252.433 70.4489 243.281 51.1722 228.192C31.8955 213.103 17.4274 192.731 9.53414 169.559C1.64006 146.386 0.661568 121.418 6.7184 97.6995C12.7744 73.9813 25.604 52.5386 43.6412 35.9875C61.6777 19.4363 84.142 8.49346 108.293 4.49334C132.444 0.49323 157.237 3.60904 179.647 13.4601C202.058 23.3119 221.116 39.4728 234.496 59.9722C247.876 80.4716 255.001 104.421 255 128.902Z" fill="#FAF4E6"/>
<path d="M123.096 145.005C123.096 145.005 124.051 131.586 106.896 116.843C82.3527 95.7654 79.5353 91.13 99.8759 94.4246C120.216 97.7184 135.031 114.765 135.031 114.765" fill="#FFCA28"/>
<path d="M80.2632 182.096L79.6423 173.519L62.7128 174.76C61.8724 174.823 61.091 175.215 60.5411 175.854C59.9913 176.492 59.7167 177.322 59.7782 178.163L59.9139 180.368C59.9761 181.208 60.3688 181.99 61.0064 182.542C61.6441 183.094 62.475 183.37 63.3154 183.311L80.2632 182.096Z" fill="#AC752C"/>
<path d="M80.2624 182.096L79.9471 177.812L59.8588 179.278L59.913 180.368C59.9753 181.208 60.368 181.99 61.0057 182.542C61.6433 183.093 62.4742 183.37 63.3154 183.31L80.2624 182.096Z" fill="#7D551F"/>
<path d="M155.037 152.791C152.074 149.657 148.691 146.949 144.983 144.745C141.383 142.531 137.531 140.776 133.751 138.931C130.412 137.302 127.379 135.448 123.743 134.737L123.248 135.439C123.077 135.673 122.896 135.898 122.734 136.132C122.366 136.663 121.96 137.184 121.556 137.716L121.403 137.914L120.889 138.579C120.71 138.813 120.512 139.038 120.323 139.273C119.918 139.795 119.495 140.299 119.062 140.794C117.803 142.297 116.47 143.764 115.085 145.186C114.851 145.432 114.617 145.666 114.383 145.888C114.014 146.276 113.635 146.653 113.248 147.013L112.429 147.796C112.151 148.066 111.88 148.318 111.602 148.57L111.421 148.741C111.007 149.128 110.575 149.515 110.135 149.884L109.838 150.145C109.672 150.308 109.498 150.461 109.316 150.604L108.794 151.045C108.343 151.414 107.894 151.792 107.461 152.152C106.84 152.665 106.183 153.178 105.535 153.673C104.887 154.168 104.491 154.474 103.951 154.852L103.654 155.06L102.34 155.959C101.638 156.455 100.909 156.941 100.171 157.408C98.6715 158.387 97.1232 159.322 95.527 160.216C92.6458 161.847 89.6673 163.298 86.6074 164.563C85.3024 165.121 83.9704 165.643 82.6296 166.13C81.9544 166.372 81.2704 166.615 80.5872 166.841C79.9024 167.065 79.3901 167.246 78.7867 167.434C77.9583 167.686 77.1394 167.92 76.3205 168.154C76.1106 168.241 75.9063 168.34 75.7084 168.452C75.6006 168.515 75.4746 168.587 75.3397 168.65L75.1322 168.776L74.9254 168.911C73.0331 170.097 71.555 171.844 70.6955 173.906C70.6955 173.969 70.6955 174.031 70.6236 174.103C70.1224 175.497 69.9293 176.984 70.0562 178.46C70.1096 179.302 70.2486 180.138 70.4704 180.953C70.6173 181.542 70.8376 182.111 71.1273 182.644C72.1919 184.484 73.8248 185.927 75.7802 186.758C79.7588 188.63 84.9433 188.981 88.0663 188.99C101.336 188.774 114.379 185.518 126.193 179.471C138.008 173.426 148.279 164.75 156.216 154.115C155.838 153.682 155.451 153.241 155.037 152.791Z" fill="#FFB300"/>
<path d="M133.716 138.967C130.376 137.338 127.344 135.484 123.707 134.772L123.213 135.475C123.042 135.709 122.861 135.934 122.699 136.168C122.537 136.401 122.348 136.635 122.168 136.86C121.989 137.086 121.737 137.454 121.52 137.761L121.367 137.959L120.854 138.624C120.675 138.858 120.476 139.084 120.287 139.318C120.098 139.552 119.892 139.786 119.693 140.029L119.027 140.839C118.64 141.298 118.235 141.739 117.84 142.198C117.767 142.279 117.695 142.369 117.615 142.449L117.047 143.089C116.624 143.557 116.201 143.988 115.76 144.475L115.049 145.231C114.815 145.477 114.581 145.711 114.347 145.932C113.97 146.32 113.591 146.689 113.213 147.058L112.394 147.841C112.115 148.11 111.845 148.363 111.566 148.615L111.385 148.786C110.973 149.173 110.54 149.551 110.099 149.929L109.802 150.19L109.28 150.648L108.758 151.091C108.308 151.459 107.858 151.837 107.426 152.197L106.21 153.097L105.499 153.673C104.977 154.06 104.455 154.474 103.916 154.852L103.619 155.059L102.305 155.959C101.962 156.202 101.612 156.418 101.252 156.652L100.135 157.408C99.5957 157.76 99.0562 158.083 98.5159 158.425L97.6156 158.947C96.9133 159.379 96.1934 159.803 95.4823 160.216L94.0241 161.008L91.8373 162.142L90.3257 162.871C89.5755 163.231 88.8101 163.583 88.0304 163.924L86.5635 164.563C85.6632 164.923 84.8355 165.275 83.9624 165.599L82.9632 165.976C82.8371 166.03 82.6934 166.075 82.5849 166.129C81.9104 166.372 81.2257 166.615 80.5425 166.84L78.7428 167.434C77.9144 167.686 77.0955 167.92 76.2758 168.154C76.0659 168.241 75.8616 168.34 75.6645 168.452C75.556 168.515 75.4298 168.587 75.295 168.65L75.0883 168.776L74.8808 168.911C72.9876 170.097 71.5104 171.843 70.6508 173.906C70.6508 173.968 70.6508 174.031 70.5789 174.103C70.0777 175.497 69.8846 176.984 70.0115 178.46C70.0658 179.302 70.2038 180.138 70.4257 180.953H70.5702C73.7858 180.979 77.0005 180.826 80.2001 180.494C84.8467 180.016 89.4462 179.158 93.9523 177.929C94.9875 177.659 96.0226 177.353 97.0578 177.028C115.014 171.461 130.662 160.187 141.626 144.916C142.005 144.394 142.366 143.854 142.725 143.323C139.773 141.801 136.731 140.389 133.716 138.967Z" fill="#FFD54F"/>
<path d="M158.467 150.946L141.583 145.006L121.405 137.914L121.557 137.716C121.773 137.419 121.999 137.121 122.205 136.816C122.413 136.51 122.557 136.357 122.736 136.123C122.916 135.889 123.078 135.664 123.249 135.43C123.693 134.829 124.126 134.23 124.545 133.63C124.825 133.234 125.085 132.819 125.355 132.424C125.887 131.605 126.409 130.795 126.895 129.967C127.074 129.687 127.245 129.408 127.417 129.13L127.569 128.868L128.47 127.356C128.77 126.816 129.069 126.285 129.37 125.763L130.324 123.882C130.585 123.36 130.854 122.83 131.107 122.299C131.359 121.767 131.637 121.164 131.917 120.597C131.997 120.408 132.088 120.229 132.159 120.048C132.33 119.67 132.493 119.292 132.655 118.905V118.825C132.88 118.266 133.123 117.718 133.348 117.15C133.407 117.027 133.458 116.901 133.5 116.773L133.626 116.457C133.779 116.052 133.914 115.665 134.059 115.269C134.203 114.873 134.319 114.63 134.428 114.315C134.536 114 134.671 113.666 134.788 113.343L134.878 113.1C134.941 112.902 135.013 112.695 135.076 112.488C135.139 112.281 135.21 112.083 135.274 111.858C135.724 110.478 136.147 109.092 136.543 107.7C136.732 106.989 136.921 106.295 137.1 105.585C137.362 104.577 137.596 103.569 137.803 102.534L137.875 102.219C137.875 102.128 137.875 102.048 137.875 101.967C138.118 100.779 138.325 99.5815 138.531 98.3667C138.594 97.9613 138.658 97.5567 138.703 97.152C138.748 96.7466 138.811 96.3507 138.874 95.9365C138.937 95.5223 138.99 95.037 139.045 94.5055C139.045 94.2086 139.108 93.9293 139.135 93.6053C139.207 93.0929 139.243 92.5621 139.288 92.0306C139.333 91.4998 139.369 91.1303 139.405 90.6084C139.459 89.7807 139.495 88.9435 139.54 88.1063C139.54 87.6833 139.54 87.206 139.54 86.8189C139.54 86.6577 139.54 86.4957 139.54 86.3425C139.549 86.1805 139.549 86.0176 139.54 85.8556C139.54 85.5412 139.54 85.2171 139.54 84.9027C139.54 84.5874 139.54 84.1644 139.54 83.8037C139.54 82.5802 139.486 81.3735 139.423 80.15C139.423 80.0869 139.423 80.0239 139.423 79.9608C139.36 78.8538 139.278 77.7381 139.171 76.6127C138.937 72.014 137.182 61.3122 138.019 53.6983C138.405 50.2329 139.333 47.398 141.205 46.1649C141.436 46.0013 141.683 45.8625 141.943 45.7507C142.216 45.6589 142.496 45.5871 142.78 45.5352H142.824C145.394 45.2024 148.001 45.738 150.232 47.0564C153.461 48.9312 156.306 51.3989 158.621 54.328C168.17 68.65 173.242 85.4901 173.19 102.704C173.139 119.917 167.966 136.726 158.332 150.992L158.467 150.946Z" fill="#FFD770"/>
<path d="M141.583 145.006C151.504 131.235 157.168 114.858 157.874 97.8995C158.579 80.9422 154.295 64.15 145.552 49.6029C145.03 48.7569 144.499 47.9021 143.959 47.0649C143.617 46.5342 143.248 46.0026 142.906 45.4902C142.622 45.5421 142.342 45.6139 142.069 45.7057C141.809 45.8174 141.562 45.9563 141.331 46.1199C139.459 47.3714 138.531 50.1879 138.145 53.6533C137.308 61.2313 139.045 71.969 139.297 76.5677C139.405 77.6931 139.486 78.8088 139.549 79.9166C139.549 79.9789 139.549 80.0419 139.549 80.1049C139.612 81.3292 139.657 82.5352 139.666 83.7587C139.666 83.8664 139.666 83.9925 139.666 84.0923V84.9654C139.666 85.2807 139.666 85.6039 139.666 85.9192C139.675 86.0812 139.675 86.2432 139.666 86.4052C139.666 86.5584 139.666 86.7205 139.666 86.8817C139.666 87.3142 139.666 87.7819 139.666 88.169C139.621 89.0062 139.585 89.8434 139.531 90.6711C139.531 91.1483 139.468 91.6256 139.414 92.0933C139.36 92.5618 139.315 93.1556 139.261 93.668C139.261 93.9657 139.198 94.2442 139.171 94.5682C139.116 95.0551 139.063 95.5308 139 96C138.937 96.4677 138.883 96.8189 138.829 97.2148C138.775 97.6106 138.721 98.024 138.658 98.4295C138.451 99.6179 138.244 100.815 138.001 102.03C138.001 102.111 138.001 102.191 138.001 102.282L137.929 102.597C137.722 103.632 137.488 104.64 137.227 105.648C137.047 106.359 136.858 107.051 136.669 107.763C136.273 109.161 135.85 110.547 135.4 111.921C135.337 112.146 135.274 112.344 135.202 112.551C135.13 112.758 135.067 112.965 135.004 113.163L134.914 113.406C134.796 113.73 134.68 114.054 134.554 114.378C134.428 114.702 134.311 115.017 134.185 115.332C134.059 115.647 133.906 116.115 133.752 116.52L133.626 116.835C133.584 116.964 133.533 117.09 133.474 117.213C133.249 117.78 133.006 118.329 132.781 118.887V118.968C132.618 119.355 132.456 119.733 132.285 120.111C132.214 120.291 132.123 120.471 132.043 120.66C131.763 121.227 131.502 121.804 131.233 122.362C130.963 122.919 130.711 123.423 130.45 123.945L129.495 125.826C129.195 126.348 128.896 126.879 128.596 127.419L127.696 128.932L127.417 129.066C127.245 129.346 127.074 129.624 126.895 129.904C126.409 130.731 125.887 131.541 125.355 132.36C125.085 132.757 124.825 133.171 124.545 133.567C124.126 134.166 123.693 134.767 123.249 135.367C123.078 135.601 122.898 135.826 122.736 136.06C122.574 136.294 122.385 136.528 122.205 136.753C122.025 136.978 121.773 137.347 121.557 137.652L121.405 137.85L141.583 145.006Z" fill="#FFEA8C"/>
<path d="M121.405 137.915C121.405 137.915 139.549 144.727 146.767 151.937C158.125 163.295 162.491 166.787 155.884 201.006C155.65 202.257 155.443 203.508 155.299 204.777C154.66 210.466 154.031 224.884 176.432 191.512C203.37 151.37 165.163 140.084 165.163 140.084C151.123 136.025 136.21 135.583 121.405 137.915Z" fill="#FFCA28"/>
</g>
</g>
</g>
</g>
</svg>
