<svg width="256" height="256" viewBox="0 0 256 256" fill="none" xmlns="http://www.w3.org/2000/svg">
<path d="M256 128.5C256 198.917 198.917 256 128.5 256C58.0837 256 1 198.917 1 128.5C1 58.0837 58.0837 1 128.5 1C198.917 1 256 58.0837 256 128.5Z" fill="#1A1A1A"/>
<path d="M106.275 34C100.775 34 97.75 35.3712 97.75 37.8394C97.75 40.3076 99.95 41.1303 104.625 40.0333C108.475 39.4848 112.325 37.8394 113.15 36.4682C113.975 35.097 110.675 34 106.275 34ZM145.875 34C140.65 34 139 35.3712 139 40.0333C139 45.2439 141.75 47.1636 152.75 50.7288C164.025 54.2939 166.5 54.2939 166.5 51.2773C166.5 49.0833 163.475 44.4212 159.625 40.8561C156.05 37.0167 149.725 34 145.875 34ZM127.725 37.2909C125.25 37.0167 121.95 38.1136 120.3 40.0333C118.65 42.2273 118.375 45.2439 119.475 47.4379C120.85 49.3576 124.15 50.4545 126.9 49.9061C129.925 49.3576 132.125 46.6152 132.125 43.5985C132.125 40.5818 130.2 37.8394 127.725 37.2909ZM108.2 45.5182C105.45 44.9697 100.225 47.7121 96.375 51.5515C92.525 55.3909 89.5 60.053 89.5 62.247C89.5 64.1667 91.15 68.0061 93.075 70.7485C96.375 75.4106 96.925 75.1364 99.675 68.8288C101.6 64.9894 105.45 61.15 108.75 60.053C112.875 58.6818 114.25 56.4879 113.7 52.3742C113.15 49.0833 110.675 46.0667 108.2 45.5182ZM143.95 54.8424C139.825 54.0197 135.7 54.2939 134.875 55.9394C134.05 57.3106 135.425 58.6818 138.45 58.6818C141.475 58.6818 146.975 61.15 151.1 64.4409C154.95 67.4576 158.25 71.8455 158.25 74.0394C158.25 76.2333 159.35 77.8788 161 77.8788C162.65 77.8788 163.75 74.0394 163.75 69.6515C163.75 63.6182 162.1 60.6015 157.7 58.9561C154.125 57.8591 148.075 55.9394 143.95 54.8424ZM127.45 64.7152C118.925 64.7152 109.85 66.0864 107.1 68.0061C103.25 71.0227 102.7 74.3136 104.075 86.3803C104.9 94.6076 107.1 104.755 108.75 109.417C112.05 117.37 112.05 117.644 114.525 111.336C116.45 106.4 118.925 105.303 127.725 105.303C134.875 105.303 139.55 106.948 141.2 109.691C143.125 113.256 143.95 113.256 146.7 110.239C148.35 108.045 150.825 101.189 152.475 94.6076C153.85 88.0258 154.125 80.0727 152.75 76.7818C151.65 73.4909 148.9 69.3773 146.975 67.7318C144.775 66.0864 135.975 64.7152 127.45 64.7152ZM113.975 75.1364C115.35 75.1364 117.825 77.0561 119.75 79.25C122.5 82.5409 122.225 83.6379 118.375 85.0091C115.9 86.1061 112.6 85.5576 110.95 83.9121C109.3 82.2667 109.025 79.7985 109.85 78.153C110.95 76.5076 112.875 75.1364 113.975 75.1364ZM145.6 75.9591C146.975 76.5076 148.9 78.4273 149.45 80.0727C150 81.9924 148.625 84.1864 146.15 85.0091C143.675 85.8318 139.55 85.8318 136.8 84.7348C132.4 83.0894 132.4 82.8152 137.625 78.9758C140.375 76.7818 144.225 75.4106 145.6 75.9591ZM163.75 97.0758C160.725 95.4303 158.525 97.35 155.225 105.029C151.375 114.079 151.375 115.998 154.675 120.661C156.875 123.677 157.975 128.888 157.15 133.276C156.325 137.664 156.875 140.955 158.25 140.955C159.9 140.955 165.95 136.567 171.725 131.082C179.15 124.5 182.175 119.838 181.075 116.821C180.25 114.353 176.95 109.142 173.65 105.852C170.35 102.286 165.95 98.447 163.75 97.0758ZM95.55 97.0758C93.075 97.0758 89.5 98.1727 87.575 99.2697C85.925 100.367 83.175 104.48 81.525 108.594C79.05 115.176 79.875 117.095 90.325 127.517C101.875 139.035 101.875 139.035 102.7 129.711C103.25 124.774 102.975 115.176 101.875 108.868C100.775 100.367 98.85 97.0758 95.55 97.0758ZM129.925 110.788C126.35 110.788 122.5 111.611 121.675 112.708C120.575 113.53 119.75 116.273 119.75 118.467C119.75 121.758 120.575 121.758 123.875 119.015C127.175 116.273 128.825 116.273 132.125 119.015C135.7 121.758 136.25 121.483 136.25 116.547C136.25 112.433 134.6 110.788 129.925 110.788ZM115.625 126.145C108.75 121.758 108.75 121.758 108.75 131.63C108.75 140.955 109.025 141.229 117.55 140.68C122.5 140.406 128.55 140.406 131.3 140.68C133.775 140.68 136.8 144.245 138.45 148.633C140.925 156.038 140.925 156.038 146.975 144.245C150.55 137.389 152.2 130.259 151.375 126.968C150.275 124.226 148.625 121.758 147.25 121.758C145.875 121.758 142.575 124.774 140.1 128.614C137.35 132.727 132.95 135.47 129.1 135.47C125.525 135.47 122.5 134.373 122.5 133.002C122.5 131.63 119.475 128.614 115.625 126.145ZM85.65 144.245C84 144.52 77.95 145.068 72.45 145.617C65.575 146.439 62 148.085 62 150.827C62 153.021 63.65 154.667 65.85 154.667C68.325 154.667 69.975 159.877 71.075 170.847C72.175 179.623 72.175 193.061 71.075 201.014C69.425 215 69.425 215 82.075 215C88.95 215 97.75 213.629 101.325 211.983C105.175 210.338 109.575 205.95 111.225 202.111C112.875 198.545 114.25 193.609 114.25 191.141C114.25 188.673 111.775 183.736 108.475 180.445C103.8 175.235 103.25 173.315 106 168.379C107.65 165.088 108.475 159.603 107.65 156.038C106.55 152.198 102.7 148.633 97.475 146.714C92.525 145.068 87.3 143.971 85.65 144.245ZM85.1 149.182C88.675 149.182 93.9 151.102 96.1 153.57C98.575 155.764 100.5 159.603 100.5 161.797C100.5 163.991 98.025 168.105 94.725 171.395C91.7 174.412 87.025 176.606 84.55 176.058C80.975 175.509 79.6 171.67 79.05 162.071C78.225 150.005 78.5 149.182 85.1 149.182ZM89.5 182.091C91.975 182.091 96.375 184.559 99.125 187.576C103.8 192.512 103.8 193.335 99.4 199.917C96.65 204.305 92.25 206.773 88.125 206.773C84 206.773 81.25 205.127 81.25 202.933C81.25 201.014 82.075 195.255 82.9 190.592C84 185.108 86.2 182.091 89.5 182.091ZM175.575 143.697C171.45 143.971 164.025 145.617 159.075 147.811C154.4 149.73 148.35 155.215 146.15 159.877C143.675 164.265 141.75 172.218 141.75 177.429C141.75 182.639 142.575 190.867 143.4 195.803C144.775 201.562 148.075 206.224 153.85 209.789C158.525 212.806 167.325 215 173.925 215C180.25 215 187.125 214.177 189.6 213.355C192.9 212.258 194 207.87 194 198.271C194 184.833 194 184.833 184.65 184.833C179.425 184.833 174.475 185.93 173.65 187.302C172.825 188.673 174.475 190.318 177.5 191.141C180.8 191.964 183 194.98 183 198.271C183 201.562 181.075 204.853 178.875 205.676C176.675 206.773 171.725 206.498 167.875 205.676C163.75 204.579 159.625 200.739 157.975 196.352C156.325 192.238 154.675 182.914 154.4 175.783C154.125 164.814 155.225 161.523 160.725 157.135C164.575 154.118 170.625 151.924 174.475 152.473C179.15 153.021 183 156.038 185.2 160.974C187.125 165.088 189.875 167.83 191.525 167.008C192.9 165.911 194 161.797 194 157.409C194 152.198 192.075 148.359 188.775 146.439C185.75 145.068 179.975 143.697 175.575 143.697ZM123.325 146.988C118.65 146.439 113.975 147.536 112.875 149.182C111.775 151.102 113.425 153.021 117 153.844C122.775 155.215 122.775 156.586 122.225 184.559C121.4 211.709 121.675 213.629 126.9 213.629C131.85 213.629 132.125 211.435 132.125 180.72C132.125 147.811 132.125 147.811 123.325 146.988Z" fill="#8E0028"/>
</svg>
