<svg width="256" height="256" viewBox="0 0 256 256" fill="none" xmlns="http://www.w3.org/2000/svg">
<g clip-path="url(#clip0_2752_2)">
<path d="M128 256C198.692 256 256 198.692 256 128C256 57.3076 198.692 0 128 0C57.3076 0 0 57.3076 0 128C0 198.692 57.3076 256 128 256Z" fill="url(#paint0_linear_2752_2)"/>
<path d="M168.121 180.981L149.354 199.737L149.206 199.796L149.117 199.559C148.526 197.846 145.157 187.537 142.231 175.191C141.137 170.554 140.251 166.212 139.542 162.165C139.512 162.046 139.512 161.929 139.482 161.81C137.355 149.316 137.207 139.745 139.009 132.716C141.463 122.999 148.703 108.672 155.471 96.5032C143.295 103.267 128.961 110.504 119.238 112.956C111.908 114.816 101.83 114.581 88.5895 112.217C88.4714 112.188 88.3531 112.188 88.2349 112.158C84.6291 111.509 80.8166 110.711 76.7381 109.736C64.3547 106.812 54.0401 103.415 52.3555 102.854C52.2373 102.824 52.1487 102.795 52.1191 102.765L52.1781 102.588L70.9454 83.8317C71.0636 83.8612 71.1523 83.8908 71.2705 83.9203C84.836 87.7306 100.766 91.0387 109.839 90.5366C109.987 90.5366 110.135 90.5071 110.283 90.5071C111.465 90.4186 112.528 90.2708 113.416 90.0344C126.271 86.7854 155.501 69.4175 165.668 62.9783L166.495 62.4466L167.412 62.0626C172.643 59.8769 180.475 60.2017 186.09 65.8139C191.735 71.4555 192.03 79.2533 189.844 84.4815L189.46 85.3971L188.927 86.2242C182.515 96.3851 165.136 125.597 161.855 138.446C161.767 138.8 161.678 139.156 161.62 139.568C161.59 139.717 161.56 139.894 161.56 140.071C160.348 148.607 163.895 166.005 167.974 180.597C168.062 180.774 168.091 180.891 168.121 180.981Z" fill="#FFFF3B"/>
<path d="M79.1623 172.768L71.5371 129.82L114.51 137.442L122.164 180.418L79.1623 172.768Z" fill="#FFFF3B"/>
</g>
<defs>
<linearGradient id="paint0_linear_2752_2" x1="128" y1="0" x2="128" y2="256" gradientUnits="userSpaceOnUse">
<stop stop-color="#3C3F45"/>
<stop offset="1" stop-color="#212225"/>
</linearGradient>
<clipPath id="clip0_2752_2">
<rect width="256" height="256" fill="white"/>
</clipPath>
</defs>
</svg>
