<svg width="96" height="96" viewBox="0 0 96 96" fill="none" xmlns="http://www.w3.org/2000/svg">
<rect width="96" height="96" rx="48" fill="black"/>
<path d="M29.3363 34.0925C39.644 23.8431 56.356 23.8431 66.6637 34.0925L75.5676 42.946L66.6637 51.7994C56.356 62.0488 39.644 62.0488 29.3363 51.7995L20.4324 42.946L29.3363 34.0925Z" fill="black"/>
<path fill-rule="evenodd" clip-rule="evenodd" d="M14 42.9599L34.2162 22.7297H61.7838L82 42.9599L48 76.946L14 42.9599ZM63.6216 35.5945C55.0319 26.9671 40.9681 26.9671 32.3784 35.5945L25.027 42.946L32.3784 50.2974C40.9681 58.9248 55.0319 58.9248 63.6216 50.2974L70.973 42.946L63.6216 35.5945Z" fill="#0CE466"/>
<path d="M48 49.3784C44.4489 49.3784 41.5676 46.4999 41.5676 42.946C41.5676 39.392 44.4489 36.5135 48 36.5135C51.5511 36.5135 54.4324 39.392 54.4324 42.946C54.4324 46.4999 51.5511 49.3784 48 49.3784Z" fill="black"/>
<path fill-rule="evenodd" clip-rule="evenodd" d="M37.4324 42.946C37.4324 48.7846 42.1661 53.5135 48 53.5135C53.8339 53.5135 58.5676 48.7846 58.5676 42.946C58.5676 37.1073 53.8339 32.3784 48 32.3784C42.1661 32.3784 37.4324 37.1073 37.4324 42.946ZM43.4054 42.946C43.4054 45.4845 45.4635 47.5406 48 47.5406C50.5365 47.5406 52.5946 45.4845 52.5946 42.946C52.5946 40.4074 50.5365 38.3514 48 38.3514C45.4635 38.3514 43.4054 40.4074 43.4054 42.946Z" fill="white"/>
</svg>