<?xml version="1.0" encoding="utf-8"?>
<!-- Generator: Adobe Illustrator 28.0.0, SVG Export Plug-In . SVG Version: 6.00 Build 0)  -->
<svg version="1.1" id="Layer_1" xmlns="http://www.w3.org/2000/svg" xmlns:xlink="http://www.w3.org/1999/xlink" x="0px" y="0px"
	 viewBox="0 0 36 36" style="enable-background:new 0 0 36 36;" xml:space="preserve">
<style type="text/css">
	.st0{clip-path:url(#SVGID_00000033362805840600796390000012563087079856778378_);}
	
		.st1{clip-path:url(#SVGID_00000047750161539574573910000002600736128755572639_);fill:url(#SVGID_00000162343102002281754930000002549709336800829600_);}
	.st2{clip-path:url(#SVGID_00000047750161539574573910000002600736128755572639_);}
	.st3{fill:none;stroke:#FAFAFD;stroke-width:0.2;}
	.st4{opacity:0.8;clip-path:url(#SVGID_00000047750161539574573910000002600736128755572639_);}
	.st5{fill:#FAFAFD;}
</style>
<g>
	<g>
		<defs>
			<circle id="SVGID_1_" cx="18" cy="18" r="18"/>
		</defs>
		<clipPath id="SVGID_00000016769955505333132010000012736456652513477544_">
			<use xlink:href="#SVGID_1_"  style="overflow:visible;"/>
		</clipPath>
		<g style="clip-path:url(#SVGID_00000016769955505333132010000012736456652513477544_);">
			<g>
				<defs>
					<rect id="SVGID_00000071546884534274290040000011270991583946996139_" width="36" height="36"/>
				</defs>
				<clipPath id="SVGID_00000114073849649534153350000011034535482491024295_">
					<use xlink:href="#SVGID_00000071546884534274290040000011270991583946996139_"  style="overflow:visible;"/>
				</clipPath>
				
					<linearGradient id="SVGID_00000035511911729915465530000006563899985531562383_" gradientUnits="userSpaceOnUse" x1="30.8772" y1="13.9725" x2="1.7817" y2="-22.1166" gradientTransform="matrix(1 0 0 1 0 20)">
					<stop  offset="0" style="stop-color:#A953FF"/>
					<stop  offset="0.56" style="stop-color:#6945FE"/>
					<stop  offset="1" style="stop-color:#6048FF"/>
				</linearGradient>
				
					<rect style="clip-path:url(#SVGID_00000114073849649534153350000011034535482491024295_);fill:url(#SVGID_00000035511911729915465530000006563899985531562383_);" width="36" height="36"/>
				<g style="clip-path:url(#SVGID_00000114073849649534153350000011034535482491024295_);">
					<g>
						<path shape-rendering="crispEdges" class="st3" d="M18,22.1c2.3,0,4.1-1.8,4.1-4.1s-1.8-4.1-4.1-4.1s-4.1,1.8-4.1,4.1
							S15.7,22.1,18,22.1z"/>
					</g>
					<g>
						<path shape-rendering="crispEdges" class="st3" d="M10.1,8.8V6V5.9H10H6H5.9V6v12c0,0.2,0,0.5,0,0.7v0.2l0.2-0.2l6.3-6.3l0,0
							l0,0l0,0l0,0c3.1-3.1,8.1-3.1,11.2,0c1.4,1.4,2.2,3.3,2.3,5.1v0.2l0.2-0.2l3.4-3.4l0,0V14C27.9,9.3,23.3,5.9,18,5.9
							C15,5.9,12.2,7,10.1,8.8z"/>
					</g>
					<g>
						<path shape-rendering="crispEdges" class="st3" d="M30.1,17.3v-0.2l-0.2,0.2l-6.3,6.3l0,0l0,0l0,0l0,0
							c-3.1,3.1-8.1,3.1-11.2,0c-1.4-1.4-2.2-3.3-2.3-5.1v-0.2l-0.2,0.2l-3.4,3.4l0,0V22c1.6,4.8,6.1,8.2,11.5,8.2
							c6.7,0,12.1-5.4,12.1-12.1C30.1,17.8,30.1,17.5,30.1,17.3z"/>
					</g>
				</g>
				<g style="opacity:0.8;clip-path:url(#SVGID_00000114073849649534153350000011034535482491024295_);">
					<g>
						<g>
							<path shape-rendering="crispEdges" class="st5" d="M18,22.1c2.3,0,4.1-1.8,4.1-4.1s-1.8-4.1-4.1-4.1s-4.1,1.8-4.1,4.1
								S15.7,22.1,18,22.1z"/>
						</g>
						<g>
							<path shape-rendering="crispEdges" class="st5" d="M10.1,8.8V6V5.9H10H6H5.9V6v12c0,0.2,0,0.5,0,0.7v0.2l0.2-0.2l6.3-6.3l0,0
								l0,0l0,0l0,0c3.1-3.1,8.1-3.1,11.2,0c1.4,1.4,2.2,3.3,2.3,5.1v0.2l0.2-0.2l3.4-3.4l0,0V14C27.9,9.3,23.3,5.9,18,5.9
								C15,5.9,12.2,7,10.1,8.8z"/>
						</g>
						<g>
							<path shape-rendering="crispEdges" class="st5" d="M30.1,17.3v-0.2l-0.2,0.2l-6.3,6.3l0,0l0,0l0,0l0,0
								c-3.1,3.1-8.1,3.1-11.2,0c-1.4-1.4-2.2-3.3-2.3-5.1v-0.2l-0.2,0.2l-3.4,3.4l0,0V22c1.6,4.8,6.1,8.2,11.5,8.2
								c6.7,0,12.1-5.4,12.1-12.1C30.1,17.8,30.1,17.5,30.1,17.3z"/>
						</g>
					</g>
				</g>
			</g>
		</g>
	</g>
</g>
</svg>
