<svg width="400" height="400" viewBox="0 0 400 400" fill="none" xmlns="http://www.w3.org/2000/svg">
<g clip-path="url(#clip0_3260_11459)">
<path d="M400 1H1V402H400V1Z" fill="#36BA9D"/>
<path d="M305.5 181.3C305.9 181.5 306.4 181.5 307 181.7C309 169.6 313.7 158.5 318.9 147C317.8 146.8 316.9 146.5 315.9 146.4C308.1 145.5 300.7 147.6 293.5 150.2C288.7 151.9 283.8 152.7 278.7 152.2C278.1 152.1 277.1 152.3 276.7 152.8C274.6 155.5 272.5 158.1 270.5 161C269.4 162.7 269.9 164.5 271.4 165.6C273.8 167.4 276.3 169.4 279 170.5C287.9 174.4 296.7 177.8 305.5 181.3Z" fill="#F4DA0D"/>
<path d="M319.8 172C320.4 172.3 321.7 171.6 323.4 171.1C322.3 169.7 321.9 168.4 321.1 168.2C320.4 168 318.8 168.8 318.7 169.4C318.6 170.1 319.1 171.6 319.8 172Z" fill="#F4DA0D"/>
<path d="M292.2 132.7C292.4 132.8 292.6 133 292.8 133.1C292.6 132.9 292.4 132.8 292.2 132.7Z" fill="#F4DA0D"/>
<path d="M300.6 252.4C298.9 251.6 297.7 252.2 296.7 253.8C293 260.1 288.3 265.4 281 267.7C280.5 267.8 280 268.3 279.8 268.8C278.7 271.2 278.8 271.2 276 271.8C276 271.1 275.9 270.4 275.9 269.4C275.4 270.9 274.9 272.2 274.5 273.4C274.2 273.3 273.9 273.3 273.6 273.2C273.5 271.9 273.4 270.6 273.2 269C260.2 268.5 248.9 264 240 254.4C238.9 255.3 238.1 255.9 237.3 256.5C237.1 256.4 237 256.2 236.8 256.1C237.2 255.2 237.5 254.3 238 253.1C236.9 253.9 236.1 254.5 235.3 255C235.2 254.9 235 254.8 234.9 254.6C235.3 253.5 235.6 252.3 236 251.2C235.8 251.1 235.6 251 235.4 250.8C234.2 252.2 233.1 253.7 231.9 255.2C234.5 257.1 237.1 258.6 239.3 260.5C249.2 269.3 260.3 274.7 273.8 275C282.1 275.2 289.5 273.3 295.8 267.8C299.3 264.7 301.7 261 302.3 256.2C302.7 254.7 302.4 253.2 300.6 252.4Z" fill="#F4DA0D"/>
<path d="M221.7 251.6C224.8 252.3 227.6 253.9 230.7 255.1C231.1 254 231.3 253.3 231.5 252.7C233.3 249 233.3 248.9 229.5 247.2C229 247 228.6 246.8 228.1 246.6C220.6 243.4 212.6 242.9 204.7 241.7C193.1 239.8 182.5 235.5 173.6 227.6C167.7 222.3 165.2 215.8 167.3 208C169.1 201.4 173.4 196.6 179.5 193.5C187.4 189.5 195.8 188.2 204.5 189.6C218.7 191.8 230.8 197.6 238 210.9C238.2 211.4 238.7 211.7 239.1 212.1C240 211.3 240.7 210.7 241.5 210.1C241.7 210.2 241.8 210.4 242 210.5C241.3 211.7 240.6 212.9 239.9 214.1C240 214.2 240.1 214.3 240.2 214.4C241.1 213.5 242 212.6 242.8 211.7C243 211.8 243.2 212 243.3 212.1C242.4 213.8 241.5 215.4 240.6 217.1C240.7 217.2 240.9 217.2 241 217.3C241.7 216.6 242.5 215.8 243.2 215.1C243.4 215.2 243.5 215.4 243.7 215.5C243.3 216.3 242.8 217 242.6 217.8C242.3 218.7 242.4 219.7 242.3 220.7C243.4 220.6 244.6 220.9 245.4 220.4C247.3 219.4 249 218 250.8 217C255.2 214.5 259.3 215.2 262.5 219.1C263.6 220.4 264.3 222.2 265.5 224.2C266.6 223.6 268 223.1 269.2 222.3C271.3 220.9 273.4 220.7 275.8 221.5C279.5 222.8 281.3 225.7 282.9 229C284.2 231.6 285.8 232.3 288.5 231.3C289.3 231 290.1 230.5 290.9 230.1C293.5 228.4 296.3 228.2 299.2 229C303.5 230.1 306.2 233.1 308.6 236.6C309.3 237.7 310.1 238.7 310.8 239.7C311.9 238.7 312.8 237.9 313.7 237.1C313.9 237.2 314.1 237.3 314.2 237.5C313.9 238.7 313.6 239.9 313.2 241.2C314.6 240.6 314.6 237.5 317 239.1C317.9 238.4 318.8 237.6 319.7 236.9C319.9 237 320 237.2 320.2 237.3C319.5 238.8 318.8 240.3 318.1 241.9C320.5 242.1 322.4 241.5 323.1 239.6C323.4 238.7 322.6 237.2 321.8 236.3C321.3 235.7 320 235.5 319.1 235.5C313.4 235.4 309.3 233 306.5 227.9C304 223.4 298.4 220.2 292.8 223.4C292 223.9 290.9 224.1 290 224.3C285.4 225.2 283.6 224.2 281.4 220.1C280.4 218.3 279.3 216.5 277.8 215.2C276.2 213.7 274.3 213 271.9 214.3C267.5 216.9 264.5 216.1 261.3 212C259.3 209.5 257.1 208.7 254.7 209.6C249.3 211.6 244.8 210.3 241.4 205.7C239.7 203.4 238.2 200.9 236.2 198.8C227.7 189.7 216.7 185.6 204.7 183.8C195.6 182.5 186.5 182.6 177.6 185.8C175.2 186.7 172.7 187.3 173 190.7C173 190.7 172.7 190.8 172.5 190.9C172.3 190.3 172 189.6 171.7 188.6C171.2 190.6 170.8 192.1 170.4 193.7C170.1 193.7 169.9 193.7 169.6 193.6C169.4 192.7 169.2 191.7 168.8 190.2C168.3 193.4 167.9 196 167.5 198.5C167.2 198.5 166.8 198.5 166.5 198.4C166.4 196.6 166.3 194.8 166.3 192.9C166.2 192.9 166.1 192.9 165.9 192.9C165.4 196.4 164.8 199.9 164.3 203.4C163.9 203.4 163.6 203.3 163.2 203.3C163.3 200.8 163.4 198.3 163.5 195.8C163.3 195.8 163.1 195.8 162.9 195.8C162.6 200.2 162.3 204.7 162 209.1C161.6 209.1 161.2 209.1 160.8 209.1C160.7 205.8 160.6 202.6 160.6 199.3C159.2 201.8 157.8 204.3 157.2 207C155.3 215.8 158 223.4 164.1 229.9C174 240.6 186.7 245.5 200.5 248.2C207.9 249.4 214.9 250.2 221.7 251.6Z" fill="#F4DA0D"/>
<path d="M324.3 164C325 162.5 324.1 161.1 322.6 160.8C321.7 160.6 319.8 161.5 319.7 162.1C319.5 163.2 320.4 164.4 321.1 166.4C322.7 165.3 324 164.9 324.3 164Z" fill="#F4DA0D"/>
<path d="M203.5 239.5C209 240.5 214.5 241.3 220.1 242.1C220.8 242.2 221.6 241.9 222.4 241.7C221.5 240.9 220.5 240.1 219.6 239.2C216.5 236.2 213.8 232.5 210.2 230.3C200 223.9 188.5 221.9 176.6 222.6C175.4 222.7 174.3 223 173 223.2C173.5 225 174.4 225.3 175.9 225.1C178.5 224.8 181 224.7 183.6 224.5C183.6 224.8 183.7 225.1 183.7 225.4C181.1 225.7 178.5 225.9 175.9 226.2C175.9 226.5 175.9 226.7 175.9 227C178.9 227 181.9 227 184.9 227C184.9 227.2 184.9 227.5 184.9 227.7C182.8 227.9 180.6 228.1 178.5 228.3C178.5 228.6 178.5 228.9 178.4 229.1C180 229.4 181.5 229.6 183.2 229.9C182.7 230.3 182.3 230.7 181.5 231.5C183.3 231.6 184.6 231.6 185.9 231.6C185.6 232.1 185.3 232.5 184.8 233.3C186.6 233.3 188.1 233.3 189.8 233.3C189.3 233.9 189 234.3 188.7 234.6C188.7 234.9 188.8 235.1 188.8 235.4C192.4 235.3 196.1 235.3 199.7 235.2C199.7 235.4 199.7 235.6 199.8 235.8C198.2 236.1 196.6 236.4 194.5 236.8C197.9 238.1 200.6 239 203.5 239.5Z" fill="#F4DA0D"/>
<path d="M342.3 183.2C345.2 176.1 343.9 169 340.8 162.2C340.6 161.8 340.2 161.4 340.1 161.3C336.1 170.4 332.1 179.5 328 188.7C334.3 191.3 339.1 191.2 342.3 183.2Z" fill="#F4DA0D"/>
<path d="M327.4 173.1C328.6 173.5 330.3 173.3 331.5 172.8C332.4 172.4 333 171.2 333.7 170.3C334.9 166.7 334 163.6 331.5 162.9C329.5 162.3 327.4 163.9 326.2 167C324.9 169.8 325.3 172.5 327.4 173.1Z" fill="#F4DA0D"/>
<path d="M222.3 241.8C223.2 242.4 224.1 243.1 225.1 243.5C226.7 244.2 228.3 244.7 229.9 245.4C235.8 248 240.7 251.9 245.2 256.4C248.1 259.3 251.5 261.5 255.7 263C255 256.4 252.4 251.2 248 246.8C240.8 239.6 231.6 236 222 233.4C220.1 232.9 218.1 232.8 216.2 232.5C216.2 232.8 216.1 233.1 216.1 233.5C217.7 233.6 219.2 233.8 221.3 234C220.5 234.5 220.1 234.8 219.7 235C220.5 235.2 221.2 235.4 222.6 235.7C221.1 236.1 220.3 236.4 219.4 236.6C219.4 236.7 219.4 236.9 219.5 237C221.5 237.2 223.5 237.4 225.5 237.6C225.5 237.8 225.5 238 225.5 238.2C224 238.3 222.5 238.4 221 238.5C221 238.7 221 239 221 239.2C222.6 239.4 224.2 239.5 225.8 239.7C225.8 239.9 225.8 240 225.8 240.2C224.7 240.4 223.6 240.5 222.5 240.7C222.5 240.8 222.5 240.9 222.6 241C223.5 241.2 224.5 241.3 225.4 241.5C225.4 241.7 225.4 241.9 225.3 242.1C224.4 241.9 223.3 241.9 222.3 241.8Z" fill="#F4DA0D"/>
<path d="M257.2 153.5C255.2 151.4 253.3 149.5 251.6 147.5C250 145.4 248.6 143.1 247.2 141C245 146.3 243 151.5 240.9 156.6C249.8 160.1 255.7 158.7 257.2 153.5Z" fill="#F4DA0D"/>
<path d="M191.8 109.8C185.6 112.5 179.6 115.3 175.3 120.7C171.7 125.3 172.2 128.4 177 131.4C177.1 131.5 177.3 131.6 177.4 131.6C189.7 137.1 202 142.6 214.6 148.3C215.2 146.1 215.5 144.6 216 143.2C219.1 135.2 222.2 127.2 225.4 119.3C226 117.8 225.7 117 224.4 116.4C220.1 114.3 215.9 112 211.5 110.2C205.1 107.4 198.6 106.8 191.8 109.8Z" fill="#F4DA0D"/>
<path d="M231 134.2C231.3 133.7 230.8 132.7 230.6 131.3C229.4 132 228.3 132.3 228.1 132.9C227.9 133.5 228.6 134.4 228.8 135.2C229.5 134.9 230.6 134.8 231 134.2Z" fill="#F4DA0D"/>
<path d="M240.3 136.2C238.4 135.5 236.6 136.7 235.6 139.4C234.6 141.9 235.2 144.1 237.1 144.9C238.9 145.6 241.3 144.3 242.2 142.1C243.2 139.6 242.3 136.9 240.3 136.2Z" fill="#F4DA0D"/>
<path d="M227.8 139.3C227.3 139.1 226.6 139.6 226 139.9C226.2 140.5 226.3 141.4 226.7 141.7C227.1 142 227.9 141.5 229.1 141.3C228.5 140.3 228.3 139.5 227.8 139.3Z" fill="#F4DA0D"/>
<path d="M342.1 205.1C344.6 196.4 347.7 187.9 349.8 179.1C353.7 162.9 353.7 146.5 349.8 130.2C346.3 115.4 330.5 101.1 313 102.3C304.6 102.9 297.4 106 290.6 110.6C289.4 111.5 288.4 111.5 287 111C281.9 109.2 276.8 107.3 271.6 105.9C269.7 105.4 269.1 104.6 268.6 102.8C262.3 78.1 246.8 62.6 221.8 57.4C203.6 53.6 186 56.2 169.3 64.6C154.2 72.2 143.2 83.9 135.2 98.5C133 102.5 129.9 104.3 126 105.6C120.8 107.2 115.5 108.5 110.4 110.4C99.8 114.2 90.5 120.2 85 130.2C77.1 144.8 76.6 160.2 85 174.6C90.1 183.2 97 190.8 103.4 198.6C106.8 202.8 110.8 206.5 114.6 210.4C114.4 210.6 114.3 210.7 114.2 210.8C113.6 210.9 112.9 211 112.3 211.1C87.2 214.7 62.9 221.2 40.3 233C25.6 240.7 12.4 250.2 1.09998 262.2V402H11.6C13.2 398.8 14.7 395.5 16.5 392.4C21.1 384.5 25.5 376.3 31.3 369.4C41.6 357.2 53 345.8 64 334.1C65.1 332.9 66.6 332 67.9 330.9C68 331 68.2 331.2 68.3 331.3C48.8 352.8 31.8 376.1 18.2 401.9H294.3C295.3 398.6 296.3 395.3 297.2 392C299.3 384.9 301 377.6 301.6 370.3C302.9 354.5 297.9 340.1 290.8 326.3C283.8 312.8 274.7 300.9 264.6 289.6C263.3 288.1 262 286.6 260.3 284.7C261.4 284.8 262 284.8 262.5 284.8C274.1 286.5 285.7 286.4 297.4 284.5C312 282 325.7 277.3 337 267.3C344.5 260.6 350.2 252.7 351.3 242.4C352.7 230 349.6 218.6 342.8 208.1C342.1 207.3 341.8 206 342.1 205.1ZM264.4 378.4C264.3 378.6 264.1 378.7 264 378.9C264.2 378.7 264.3 378.5 264.4 378.4ZM295.9 267.9C289.6 273.4 282.2 275.3 273.9 275.1C260.4 274.7 249.3 269.3 239.4 260.6C237.2 258.7 234.6 257.2 232 255.3C233.2 253.8 234.3 252.4 235.5 250.9C235.7 251 235.9 251.1 236.1 251.3C235.7 252.4 235.4 253.6 235 254.7C235.1 254.8 235.3 254.9 235.4 255.1C236.2 254.5 237 254 238.1 253.2C237.6 254.4 237.3 255.3 236.9 256.2C237.1 256.3 237.2 256.5 237.4 256.6C238.2 256 239 255.4 240.1 254.5C249 264.1 260.3 268.6 273.3 269.1C273.4 270.7 273.5 272 273.7 273.3C274 273.4 274.3 273.4 274.6 273.5C275 272.2 275.5 271 276 269.5C276 270.5 276.1 271.2 276.1 271.9C278.8 271.3 278.8 271.3 279.9 268.9C280.1 268.4 280.6 268 281.1 267.8C288.4 265.5 293.1 260.3 296.8 253.9C297.8 252.2 299 251.7 300.7 252.5C302.4 253.3 302.7 254.7 302.5 256.4C301.8 261.1 299.4 264.8 295.9 267.9ZM164.6 229.8C158.5 223.3 155.8 215.7 157.7 206.9C158.3 204.2 159.7 201.8 161.1 199.2C161.2 202.5 161.3 205.7 161.3 209C161.7 209 162.1 209 162.5 209C162.8 204.6 163.1 200.1 163.4 195.7C163.6 195.7 163.8 195.7 164 195.7C163.9 198.2 163.8 200.7 163.7 203.2C164.1 203.2 164.4 203.3 164.8 203.3C165.3 199.8 165.9 196.3 166.4 192.8C166.5 192.8 166.6 192.8 166.8 192.8C166.9 194.6 167 196.4 167 198.3C167.3 198.3 167.7 198.3 168 198.4C168.4 195.8 168.8 193.3 169.3 190.1C169.7 191.6 169.9 192.6 170.1 193.5C170.4 193.5 170.6 193.5 170.9 193.6C171.3 192 171.7 190.5 172.2 188.5C172.6 189.5 172.8 190.1 173 190.8C173.3 190.7 173.6 190.6 173.5 190.6C173.2 187.2 175.7 186.5 178.1 185.7C187 182.5 196.1 182.4 205.2 183.7C217.2 185.4 228.2 189.5 236.7 198.7C238.6 200.8 240.2 203.3 241.9 205.6C245.3 210.2 249.8 211.5 255.2 209.5C257.7 208.6 259.9 209.4 261.8 211.9C265 216 268 216.7 272.4 214.2C274.7 212.8 276.7 213.6 278.3 215.1C279.8 216.5 281 218.2 281.9 220C284.1 224.1 285.9 225.1 290.5 224.2C291.5 224 292.5 223.8 293.3 223.3C298.9 220.1 304.5 223.4 307 227.8C309.8 232.9 313.9 235.3 319.6 235.4C320.5 235.4 321.8 235.6 322.3 236.2C323.1 237.1 323.9 238.7 323.6 239.5C322.9 241.4 321 242 318.6 241.8C319.4 240.1 320.1 238.7 320.7 237.2C320.5 237.1 320.4 236.9 320.2 236.8C319.3 237.5 318.4 238.2 317.5 239C315.1 237.4 315.1 240.4 313.7 241.1C314 239.8 314.4 238.6 314.7 237.4C314.5 237.3 314.3 237.2 314.2 237C313.3 237.8 312.4 238.6 311.3 239.6C310.5 238.5 309.8 237.5 309.1 236.5C306.7 233 304 230 299.7 228.9C296.8 228.2 294 228.4 291.4 230C290.6 230.5 289.8 230.9 289 231.2C286.3 232.2 284.7 231.5 283.4 228.9C281.8 225.7 280 222.7 276.3 221.4C273.9 220.6 271.8 220.8 269.7 222.2C268.5 223 267.2 223.5 266 224.1C264.8 222 264.1 220.3 263 219C259.7 215.1 255.7 214.5 251.3 216.9C249.4 217.9 247.8 219.4 245.9 220.3C245 220.7 243.8 220.5 242.8 220.6C242.9 219.6 242.9 218.6 243.1 217.7C243.3 216.9 243.8 216.2 244.2 215.4C244 215.3 243.9 215.1 243.7 215C243 215.7 242.2 216.5 241.5 217.2C241.4 217.1 241.2 217.1 241.1 217C242 215.3 242.9 213.7 243.8 212C243.6 211.9 243.4 211.7 243.3 211.6C242.4 212.5 241.5 213.4 240.7 214.3C240.6 214.2 240.5 214.1 240.4 214C241.1 212.8 241.8 211.6 242.5 210.4C242.3 210.3 242.2 210.1 242 210C241.3 210.6 240.5 211.3 239.6 212C239.2 211.6 238.8 211.2 238.5 210.8C231.3 197.5 219.2 191.7 205 189.5C196.3 188.2 187.9 189.4 180 193.4C173.9 196.5 169.6 201.3 167.8 207.9C165.7 215.7 168.2 222.2 174.1 227.5C183 235.4 193.5 239.7 205.2 241.6C213.1 242.9 221.1 243.3 228.6 246.5C229.1 246.7 229.5 246.9 230 247.1C233.8 248.8 233.8 248.9 232 252.6C231.7 253.2 231.6 253.8 231.2 255C228.1 253.8 225.3 252.1 222.2 251.5C215.4 250 208.4 249.2 201.5 247.9C187.2 245.4 174.5 240.4 164.6 229.8ZM271.6 165.7C270 164.6 269.5 162.8 270.7 161.1C272.6 158.3 274.7 155.6 276.9 152.9C277.3 152.5 278.2 152.3 278.9 152.3C284 152.8 288.9 152 293.7 150.3C300.9 147.7 308.3 145.6 316.1 146.5C317 146.6 318 146.9 319.1 147.1C313.9 158.5 309.2 169.6 307.2 181.8C306.6 181.6 306.1 181.6 305.7 181.4C296.9 177.9 288.1 174.4 279.4 170.7C276.5 169.4 274 167.5 271.6 165.7ZM273.7 203.4C272.8 203.1 272.1 202.2 271.8 201.1C272.2 202.2 272.9 203.1 273.7 203.4ZM292.2 132.7C292.4 132.8 292.6 133 292.8 133.1C292.6 132.9 292.4 132.8 292.2 132.7ZM318.7 169.3C318.8 168.7 320.4 167.9 321.1 168.1C321.9 168.3 322.3 169.6 323.4 171C321.7 171.5 320.5 172.2 319.8 171.9C319.1 171.6 318.6 170.1 318.7 169.3ZM321.1 166.4C320.4 164.4 319.5 163.2 319.7 162.1C319.8 161.5 321.7 160.7 322.6 160.8C324.1 161 325 162.5 324.3 164C324 164.9 322.7 165.3 321.1 166.4ZM247.2 141C248.6 143.1 249.9 145.4 251.6 147.5C253.3 149.6 255.2 151.4 257.2 153.5C255.7 158.7 249.8 160 240.9 156.6C243 151.5 245 146.3 247.2 141ZM237.1 144.9C235.2 144.1 234.6 141.9 235.6 139.4C236.7 136.7 238.4 135.5 240.3 136.2C242.3 136.9 243.1 139.7 242.2 142.1C241.4 144.3 239 145.6 237.1 144.9ZM228.8 135.2C228.5 134.4 227.9 133.5 228.1 132.9C228.3 132.3 229.4 132.1 230.6 131.3C230.8 132.7 231.3 133.7 231 134.2C230.6 134.8 229.5 134.9 228.8 135.2ZM229.1 141.3C228 141.5 227.1 141.9 226.7 141.7C226.3 141.4 226.2 140.5 226 139.9C226.6 139.7 227.4 139.2 227.8 139.3C228.3 139.5 228.5 140.3 229.1 141.3ZM225.5 119.4C222.3 127.3 219.2 135.3 216.1 143.3C215.6 144.7 215.3 146.1 214.7 148.4C202.1 142.8 189.8 137.2 177.5 131.7C177.3 131.6 177.2 131.6 177.1 131.5C172.2 128.4 171.8 125.3 175.4 120.8C179.7 115.3 185.7 112.6 191.9 109.9C198.7 106.9 205.2 107.5 211.7 110.3C216.1 112.2 220.3 114.4 224.6 116.5C225.8 117.1 226.1 117.8 225.5 119.4ZM222.6 241C222.6 240.9 222.6 240.8 222.5 240.7C223.6 240.5 224.7 240.4 225.8 240.2C225.8 240 225.8 239.9 225.8 239.7C224.2 239.5 222.6 239.4 221 239.2C221 239 221 238.7 221 238.5C222.5 238.4 224 238.3 225.5 238.2C225.5 238 225.5 237.8 225.5 237.6C223.5 237.4 221.5 237.2 219.5 237C219.5 236.9 219.5 236.7 219.4 236.6C220.2 236.4 221.1 236.1 222.6 235.7C221.2 235.3 220.5 235.2 219.7 235C220.1 234.7 220.5 234.5 221.3 234C219.2 233.8 217.7 233.7 216.1 233.5C216.1 233.2 216.2 232.9 216.2 232.5C218.1 232.8 220.1 232.9 222 233.4C231.6 236 240.8 239.6 248 246.8C252.4 251.2 255 256.4 255.7 263C251.5 261.5 248.1 259.3 245.2 256.4C240.7 251.9 235.7 248 229.9 245.4C228.3 244.7 226.7 244.2 225.1 243.5C224.1 243 223.2 242.3 222.3 241.8C223.3 241.9 224.3 241.9 225.4 242C225.4 241.8 225.4 241.6 225.5 241.4C224.5 241.3 223.6 241.1 222.6 241ZM199.7 235.6C196.1 235.7 192.4 235.7 188.8 235.8C188.8 235.5 188.7 235.3 188.7 235C189 234.6 189.3 234.3 189.8 233.7C188.1 233.7 186.6 233.7 184.8 233.7C185.3 232.9 185.6 232.5 185.9 232C184.6 232 183.3 231.9 181.5 231.9C182.3 231.1 182.7 230.7 183.2 230.3C181.5 230 180 229.7 178.4 229.5C178.4 229.2 178.4 228.9 178.5 228.7C180.6 228.5 182.8 228.3 184.9 228.1C184.9 227.9 184.9 227.6 184.9 227.4C181.9 227.4 178.9 227.4 175.9 227.4C175.9 227.1 175.9 226.9 175.9 226.6C178.5 226.3 181.1 226.1 183.7 225.8C183.7 225.5 183.6 225.2 183.6 224.9C181 225.1 178.4 225.1 175.9 225.5C174.4 225.7 173.5 225.4 173 223.6C174.2 223.4 175.4 223.1 176.6 223C188.6 222.3 200 224.3 210.2 230.7C213.8 233 216.5 236.6 219.6 239.6C220.5 240.5 221.5 241.3 222.4 242.1C221.6 242.2 220.8 242.6 220.1 242.5C214.6 241.7 209 240.9 203.5 239.9C200.7 239.4 197.9 238.5 194.5 237.5C196.6 237.1 198.2 236.8 199.8 236.5C199.7 236 199.7 235.8 199.7 235.6ZM326.1 166.9C327.3 163.8 329.4 162.2 331.4 162.8C334 163.5 334.8 166.6 333.6 170.2C332.9 171.1 332.4 172.3 331.4 172.7C330.2 173.2 328.5 173.4 327.3 173C325.3 172.5 324.9 169.8 326.1 166.9ZM340.1 161.3C340.2 161.4 340.6 161.7 340.8 162.2C344 169 345.2 176.1 342.3 183.2C339 191.3 334.3 191.4 327.9 188.7C332.1 179.4 336.1 170.4 340.1 161.3Z" fill="black"/>
</g>
<defs>
<clipPath id="clip0_3260_11459">
<rect width="400" height="400" rx="200" fill="white"/>
</clipPath>
</defs>
</svg>
