<svg width="256" height="256" viewBox="0 0 256 256" fill="none" xmlns="http://www.w3.org/2000/svg">
<circle cx="128" cy="128" r="128" fill="white"/>
<path d="M141.857 0V37.3596C141.857 48.3941 149.059 58.0099 159.393 61.4778C168.318 64.4729 176.616 68.7291 184.132 73.6158L169.571 99.3104C157.045 91.1133 142.013 84.8079 129.018 84.8079C118.527 84.8079 110.385 90.0099 110.385 97.8916C110.385 105.458 118.214 107.665 136.846 112.867C161.272 119.172 188.046 127.369 188.046 158.108C188.046 177.813 176.616 192.315 157.984 199.251C148.276 202.877 142.013 212.493 142.013 222.897V256C206.053 249.064 256 194.365 256 128C256 61.6355 205.896 6.93596 141.857 0Z" fill="url(#paint0_linear_1255_3)"/>
<path d="M96.9199 197.99C86.2728 194.365 76.252 189.163 67.7969 182.384L83.7676 157.32C98.3291 167.724 116.805 174.502 131.68 174.502C144.988 174.502 152.034 169.616 152.034 161.419C152.034 152.433 140.604 148.65 125.573 144.867C96.6067 137.773 74.3731 129.892 74.3731 102.148C74.3731 84.6503 83.611 70.6207 99.2685 62.8966C108.193 58.4828 114.143 49.8128 114.143 39.7241V0C49.9474 6.93596 0 61.6355 0 128C0 194.365 49.9474 249.064 113.987 256V221.951C113.987 211.074 107.097 201.458 96.9199 197.99Z" fill="url(#paint1_linear_1255_3)"/>
<defs>
<linearGradient id="paint0_linear_1255_3" x1="94.7676" y1="261.281" x2="209.293" y2="66.0025" gradientUnits="userSpaceOnUse">
<stop stop-color="#0A4BEF"/>
<stop offset="1" stop-color="#007DDE"/>
</linearGradient>
<linearGradient id="paint1_linear_1255_3" x1="29.1192" y1="222.78" x2="143.644" y2="27.5016" gradientUnits="userSpaceOnUse">
<stop stop-color="#0A4BEF"/>
<stop offset="1" stop-color="#007DDE"/>
</linearGradient>
</defs>
</svg>
