<svg width="48" height="48" viewBox="0 0 48 48" fill="none" xmlns="http://www.w3.org/2000/svg">
<g clip-path="url(#clip0_16693_13909)">
<path d="M0 21.75V0H48V21.75H36.788C35.024 21.75 33.259 21.747 31.495 21.746L31.5 20.25H32.233V17.25H31.501V12.017H29.25V12.75H28.5V13.5H27.75V14.25H24V13.5H23.25V12.75H22.5V12.021H20.24V16.505H19.5V17.256H18.77V19.507H19.504V20.251H20.25L20.245 21.753H12.007L12 21H12.75V18H13.511V16.494H14.25V15.75H14.982V15H14.25V14.25H13.5V13.488H12.744V11.999H12V11.267H10.498V12H9V11.268H6.749V12H6V13.5H5.25V14.25H4.5V15H3.737V15.76H0.766V17.252H1.5V18.75H0.744V21.754L0 21.75Z" fill="#381D4C"/>
<path d="M48 31.5001V42.7501L47.252 42.7481V42.0081H46.497L45.751 41.9961V40.4941H45.004V39.7661H43.496V40.4991H42.744V41.2461L42.003 41.2581H41.258V42.7601H40.508V44.2471L40.494 44.9941H39.764V46.5061H40.494V47.2561H41.244L41.25 48.0001H12V47.2401H12.732V46.4851H11.992V45.7631H11.246V46.5061H10.508V47.2471L10.5 48.0001H4.5L4.506 47.2541L5.247 47.2421H6.002V45.7521H6.742V42.7481H6.002V42.0081H5.247L4.501 41.9961L4.506 39.7541L5.247 39.7421H6.002V38.2521H6.742V35.2481H6.002V34.5081H5.247L4.501 34.4961V32.9941H3.754V32.2661H2.246V32.9991H1.494V33.7461L0.753 33.7581L0 33.7501V31.5001L17.245 31.5021L17.256 31.4971V32.2571H17.996V33.0101H17.258V34.5021H17.998L18.008 35.2521V36.7421H20.251V36.0041L20.997 35.9921L21.746 36.0061V36.7421H23.242V35.9971L23.254 35.2571H23.981V34.5071H23.247L22.501 34.4971L22.492 33.7471L22.504 33.0071H23.242V32.2471L23.256 31.4971C23.372 31.4991 23.489 31.5001 23.606 31.5001L38.992 31.5011L39.008 32.2471V35.2521H39.748V35.9831H41.252V35.2521H41.992V33.7531L42.002 32.2521L42.746 32.2511V33.0041H43.494L43.498 33.7481H42.767V35.2521H43.498V35.9831H45.002V35.2521H45.736V34.4941H45.004L44.992 33.7531V32.2471L45.006 31.4971L48 31.5001ZM14.247 41.2421H15.006V40.5061H15.756V39.7561H16.486V38.2441H15.756L15.742 37.4971V35.9931H14.992V34.5081H14.247L13.507 34.4961V33.7491H12.754V33.0141H11.246V33.7441H10.499V35.2461L9.753 35.2581H8.998V35.9981H8.258V39.0021H8.998V40.4921H9.753L10.493 40.5041V41.2421H14.248H14.247ZM36.007 34.4971V35.2521H36.748V35.9821H38.242V32.9871H37.492V32.2631H36.746V32.9931H36.008L36.007 34.4971ZM13.507 44.9971V45.7421H14.984V44.2651H13.508V44.9971H13.507ZM11.242 44.2471V43.5071H9.762V44.9841H11.242V44.2471ZM32.242 35.9971V34.4941H31.504V33.0081H28.508V33.7531L28.496 34.4991H27.758V36.0091H28.508V36.7421H32.242V35.9971Z" fill="#77464C"/>
<path d="M0 21.7501L0.744 21.7531V22.4991H1.5V23.2331H4.5V22.4971L4.496 22.5001H5.257V23.2291H8.26V21.7641H9.004V23.2341H12.005V21.7531H20.243L20.249 22.5001H19.499V23.2501H18.75V24.0011H18V25.5011H17.25V27.0011H16.486V28.5111H15.75V29.2511H14.25V30.0011H13.503V30.7451C13.395 30.7461 13.287 30.7501 13.179 30.7501H0V21.7501ZM31.495 21.7461C33.259 21.7471 35.024 21.7501 36.788 21.7501H48V30.7501L45.747 30.7471L45.742 29.9971V29.2401H44.989V28.5081H42.758V30.7461H42L41.991 29.9971V28.5031L42.001 27.7521H42.741V26.2421H41.991V24.7441H41.253V24.0111H39.748V24.7551H39.007V29.2591H38.257V29.9971L38.252 30.7471L31.495 30.7451L31.499 28.5001H32.233V24.7501H31.5V23.2501H30.75V21.7501L31.495 21.7461Z" fill="#53306F"/>
<path d="M0 30.7501H13.18C13.288 30.7501 13.396 30.7461 13.504 30.7451L14.246 30.7471L15.004 30.7461H15.746L16.504 30.7471H17.244V31.5021L0 31.5001V30.7501Z" fill="#935C59"/>
<path d="M45.75 48H42.75C42.742 47.763 42.825 47.427 42.703 47.316C42.563 47.189 42.242 47.262 41.999 47.249L42.001 47.251L42 46.5H42.76V45.752H43.502L43.5 45.75V47.233H44.254V46.523H45.012V47.255H45.757L45.75 48ZM4.50602 47.254L4.50002 48H1.50002C1.49202 47.763 1.57502 47.427 1.45302 47.316C1.31302 47.189 0.992023 47.262 0.749023 47.249L0.751023 47.251V46.499L0.750023 46.5H1.51002V45.75H2.25202L2.25002 45.748V47.231H3.00402V46.521H3.76202V47.253H4.50702L4.50602 47.254Z" fill="#D3D3D3"/>
<path d="M45.75 41.996L46.497 42.008V42.748H47.252V43.511H46.518V44.25H48V45C47.763 45.008 47.426 44.925 47.316 45.047C47.189 45.187 47.264 45.509 47.252 45.752L46.499 45.749L46.501 45.751V44.988H45.751L45.75 41.996ZM0 37.5V34.5L0.751 34.501L0.749 34.499V36.012H1.481V36.755H0.751V37.501L0 37.5ZM0 45V42L0.751 41.999V43.512H1.481V44.255H0.749V45H0ZM10.508 47.247V46.506H11.246V45.763H11.992V46.485H12.732V47.24H12V48H11.25V47.247H10.508Z" fill="#FEFEFE"/>
<path d="M45.75 48L45.756 47.254L46.497 47.242H47.252V45.752L48 45.75V48H45.75Z" fill="#77464C"/>
<path d="M45.7472 30.7471L48.0002 30.7501V31.5001L45.0062 31.4981L44.9912 31.5051V30.7471H45.7472Z" fill="#935C59"/>
<path d="M48 44.25H46.518V43.51H47.252V42.748L48 42.75V44.25ZM0 37.5L0.751 37.501L0.749 37.499V39H0V37.5Z" fill="#D3D3D3"/>
<path d="M0 41.2499V40.4999L0.753 40.4919L1.499 40.5039L1.494 41.2459L0.753 41.2579L0 41.2499Z" fill="#77464C"/>
<path d="M0 45L0.751 44.999L0.749 46.501L0.751 46.499L0 46.5V45ZM0.751 34.501L0 34.5V33.75L0.753 33.758L0.751 34.501Z" fill="#D3D3D3"/>
<path d="M0 39L0.751 38.999V39.751L0 39.75V39Z" fill="#FEFEFE"/>
<path d="M0 39.75L0.751 39.751L0.749 39.749L0.753 40.492L0 40.5V39.75ZM0 41.25L0.753 41.258L0.749 42H0V41.25ZM48 45.75L47.252 45.752C47.264 45.509 47.189 45.188 47.316 45.047C47.426 44.925 47.763 45.007 48 45V45.75Z" fill="#D3D3D3"/>
<path d="M0 46.5L0.751 46.499V47.251L0 47.25V46.5Z" fill="#FEFEFE"/>
<path d="M0 47.25C0.249667 47.2497 0.499333 47.2494 0.749 47.249L0.75 48H0V47.25Z" fill="#D3D3D3"/>
<path d="M0.750023 48L0.749023 47.249C0.992023 47.262 1.31302 47.189 1.45302 47.316C1.57502 47.426 1.49302 47.763 1.50002 48H0.750023Z" fill="#FEFEFE"/>
<path d="M10.508 47.247H11.25V48H10.5L10.508 47.247ZM41.25 48L41.244 47.256L41.26 47.24L42.001 47.251L42 47.25V48H41.25Z" fill="#D3D3D3"/>
<path d="M42 48L41.999 47.249C42.242 47.262 42.563 47.189 42.703 47.316C42.825 47.426 42.743 47.763 42.75 48H42Z" fill="#FEFEFE"/>
<path d="M29.2496 12.7501V12.0171H31.4996V17.2491L31.4986 17.2511H30.7406V18.7541H29.9996V18.0021H29.2476V17.2621H28.5156V17.9981H29.2516V18.7511H30.0026V19.5091H28.4906V21.0091H27.7386V21.7611H27.0166V22.5031H29.2526L29.2466 22.4971L29.2516 23.2531H24.0026V22.4971L23.9966 22.5031H26.2366V21.7441H25.4936V20.9931H24.7426V19.4931H23.2426V18.7421H22.4916V17.2581H20.2576V18.7521L20.2506 20.2491L20.2486 20.2511H19.5026V19.5071H18.7696V17.2571H19.4986V16.5051H20.2406V12.0211H22.5006V12.7501H21.0076V16.4931H22.5036L25.4976 16.4921H30.7416V12.7501H29.2496ZM24.7476 18.0021V17.2621H24.0156V17.9981H24.7516V18.7491H25.5016L25.5076 19.4971V20.2331H27.7416V18.7361H26.9916V17.2641H26.2426V18.7531H25.4976V18.0021H24.7476ZM12.0056 21.7531V23.2351H9.00565V21.7651H8.25965V23.2291H5.25765V22.5001H4.49665V21.7661H3.76665V22.4961H4.49965V23.2331H1.49965V22.4991L1.49865 22.5011H3.00065V21.0011L3.74665 20.9921H5.25065L5.99665 21.0041L6.00665 21.7471V22.4921H7.50965V20.9921H9.00365L9.74965 21.0021L9.75865 21.7471V22.4921H11.2546V21.0061L11.9996 21.0001L12.0056 21.7531ZM1.49965 17.2501H0.764648V15.7601H3.73465V15.0001H4.49965L4.50165 15.0021V15.7431H5.99965V16.4971L5.25265 16.5091H2.99865V17.2491L2.99365 17.2461L2.24765 17.2491L2.25165 17.2531V16.5161H1.50165V17.2501L1.49865 17.2521L1.49965 17.2501Z" fill="black"/>
<path d="M24.0001 14.2501H27.7501V14.9851H24.0001V14.2501ZM1.50012 22.5001H0.745117V18.7491H1.50012L1.50212 18.7511L1.50912 19.4981C1.50912 19.9981 1.50912 20.4981 1.50912 20.9981V21.7521L1.50012 22.5001ZM14.2501 15.7501V16.4941H13.5111V18.0001H12.7501L12.7431 16.4971L12.7451 15.7501H14.2501ZM31.5001 17.2501H32.2331V20.2501H31.5001L31.4921 19.4981L31.4991 17.2511L31.5011 17.2491L31.5001 17.2501ZM12.7501 18.0001V21.0001H12.0001L11.9921 20.2481V18.7531L12.0061 18.0061L12.7501 18.0001ZM12.0001 12.0001H12.7441V13.4881H13.5011V14.2491L13.4991 14.2511L12.7531 14.2581L12.0031 14.2481L11.9991 12.0011L12.0001 12.0001ZM6.75012 12.0001V11.2671H9.00012V11.9991V12.0011L8.25012 12.0081H7.50312L6.75312 12.0011L6.74812 12.0001H6.75012ZM20.2501 22.5001L20.2441 21.7531L20.2491 20.2511L20.2511 20.2491H21.0081V20.9991L21.0041 21.7441L21.0021 22.4951L20.2481 22.4981L20.2501 22.5001Z" fill="black"/>
<path d="M5.99902 13.499V11.999H6.74902L6.75102 12.001L6.75802 12.751V13.501H6.00202L5.99902 13.499ZM31.495 21.746L30.75 21.75L30.752 21.752L30.742 20.998L30.753 20.256L31.499 20.249L31.5 20.25L31.495 21.746ZM9.00002 12L10.499 11.999L10.502 12.002L10.497 12.744L9.74802 12.758L9.00602 12.747L9.00002 12Z" fill="black"/>
<path d="M10.499 11.9991V11.2671H12V12.0001L11.998 12.0021L11.248 12.0091L10.501 12.0031L10.498 12.0001L10.499 11.9991ZM1.5 18.7501V17.2501L1.501 17.2491L2.252 17.2521L2.248 17.2481L2.258 18.0031V18.7511L1.5 18.7501ZM5.25 14.2501V13.4991H5.999L6.002 13.5021L5.994 14.2491L5.996 14.2421L5.251 14.2521L5.249 14.2491L5.25 14.2501ZM22.5 12.7501H23.25V13.5001H22.5V12.7501ZM28.5 13.5001V12.7501H29.25V13.5001H28.5ZM14.25 15.0001H14.982V15.7501H14.25V15.0001ZM13.5 14.2501H14.25V15.0001H13.504L13.499 14.2511L13.501 14.2491L13.5 14.2501Z" fill="black"/>
<path d="M4.5 15V14.25H5.25L5.251 14.251L5.243 14.997L5.247 14.993L4.501 15.001L4.5 15ZM27.75 14.25V13.5H28.5V14.25H27.75ZM23.25 13.5H24V14.25H23.25V13.5Z" fill="black"/>
<path d="M17.2451 31.5021V30.7471L17.2531 30.7511C17.4891 30.7431 17.8251 30.8241 17.9351 30.7021C18.0621 30.5621 17.9881 30.2411 18.0011 29.9981L18.7501 29.9971V30.7471H19.5001L19.5011 31.5011H18.7711V32.2321H19.4991V31.5001H20.2511V32.9801H21.7311V32.2461H21.0001V31.5001C21.2381 31.4921 21.5601 31.5731 21.6891 31.4511C21.8131 31.3331 21.7391 31.0051 21.7531 30.7691L21.7541 30.7451L22.5021 30.7541V31.5061H23.2421L23.2571 31.4991L23.2431 32.2491C23.0711 32.2491 22.8981 32.2591 22.7261 32.2491C22.5611 32.2391 22.4841 32.2861 22.4981 32.4661C22.5121 32.6461 22.5041 32.8261 22.5051 33.0071L22.4931 33.7481H21.7501V35.2521L21.7521 35.2501H20.9981V35.9931L20.2521 36.0051V35.2691H19.4981V36.7431H18.7541V35.9981H18.0091V35.2541H18.7491V34.5001H20.9791V33.7401H19.4941V33.0181H18.7521V34.5021H17.9991V33.7481H17.2591V33.0111H17.9971V32.2571C17.9981 32.0771 17.9891 31.8951 18.0041 31.7151C18.0181 31.5351 17.9391 31.4881 17.7741 31.4981C17.6031 31.5081 17.4301 31.4981 17.2571 31.4981L17.2461 31.5031L17.2451 31.5021Z" fill="#FEFEFE"/>
<path d="M0.751023 39.751V38.999L0.749023 39.001H1.50902V38.251H2.25102L2.24902 38.249V40.512H3.00902V41.232H3.75102V39.75L3.74902 39.752L4.50602 39.755L4.50102 41.997V45.007H5.25102V45.752L2.24902 45.75L2.25102 45.752V45L2.24902 45.002H3.73202V43.5H3.00002V42.75H3.73002V42.019H3.00202V42.752L2.25002 42.75L2.25202 42.752V41.247H1.49502L1.50002 40.505C1.48702 40.261 1.56202 39.939 1.43502 39.798C1.32502 39.676 0.987023 39.758 0.750023 39.75L0.752023 39.752L0.751023 39.751Z" fill="#D3D3D3"/>
<path d="M31.4962 30.7451L38.2532 30.7471L38.9972 30.7511L38.9922 31.5011L23.6052 31.5001L23.2552 31.4981L23.2412 31.5051L23.2532 30.7511L23.9962 30.7461H26.2462C27.2462 30.7464 28.2462 30.7468 29.2462 30.7471H30.7542L31.4962 30.7451Z" fill="#935C59"/>
<path d="M45.75 41.9959V44.9879H46.501V45.7509L43.499 45.7489L43.501 45.7509L43.5 44.9999H44.983V43.5019H44.25V42.7499H44.98V42.0189H44.252V42.7519H43.5V41.2469H42.745V40.4999H44.262V41.2319H45.005V40.4949H45.752V41.9969L45.75 41.9959ZM10.5 35.2459V33.7439H11.246V34.4799H12.006V33.7499H13.506V34.4959H12.751V35.9999H11.999V35.2699H11.268V35.9979H12V36.7499H11.268V38.2479H12.75L12.748 38.9999L12.75 38.9979L9.75 38.9999V38.2369H10.5V35.2459Z" fill="#D3D3D3"/>
<path d="M30.7528 33.0081H31.5038V34.4941C31.5028 34.6741 31.5108 34.8561 31.4968 35.0351C31.4828 35.2151 31.5598 35.2631 31.7248 35.2531C31.8968 35.2421 32.0698 35.2521 32.2418 35.2531V35.9971H31.4968V36.7421H30.7528V36.0231H29.2468V36.7431H28.5088V36.0091H27.7578V35.2531H29.2298V34.4991H28.4958L28.5078 33.7531H29.2528V33.0081H29.9968V33.7271H30.7528V33.0081ZM30.0218 34.5151V35.2311H30.7318V34.5151H30.0218Z" fill="#FEFEFE"/>
<path d="M1.49414 33.7459V32.9989H3.01014V33.7309H3.75314V32.9939H4.50014V37.5059H5.25014V38.2509L2.24814 38.2489L2.25014 38.2509V37.4999L2.24814 37.5019H3.73114V35.9999H3.00014V35.2499H3.73014V34.5189H3.00214V35.2519L2.25014 35.2499L2.25214 35.2519V33.7469H1.49514L1.49414 33.7459Z" fill="#D3D3D3"/>
<path d="M2.24905 38.249L5.25105 38.251L5.24905 38.249L5.24705 39.742L4.50705 39.754C4.25405 39.754 4.00105 39.752 3.74905 39.751V39.021H3.01805V39.749H3.75105V41.233H3.00805V40.512H2.24805V38.249H2.24905Z" fill="#FEFEFE"/>
<path d="M13.5032 41.242H10.4932V40.504H11.2572V39.765H12.0062V40.481H12.7512V38.999L12.7502 39H13.5102V39.748H14.2522L14.2502 40.5L14.2522 40.498H13.5042V41.241L13.5032 41.242Z" fill="#D3D3D3"/>
<path d="M5.25098 45.7511V45.0061H4.50098V41.9961L5.24698 42.0081V42.7481H6.00198V43.5091H5.26598V44.2531H6.74198V44.9971H6.00198V45.7521L5.24898 45.7491L5.25098 45.7511ZM5.25098 38.2511V37.5061H4.50098V34.4961L5.24698 34.5081V35.2481H6.00198V36.0091H5.26598V36.7531H6.74198V37.4971H6.00198V38.2521L5.24898 38.2491L5.25098 38.2511ZM10.5 35.2461V38.2381H9.74898C9.74964 38.4914 9.75031 38.7448 9.75098 38.9981L8.99798 39.0021V38.2471H8.25798V37.5031H9.72798V36.7421H8.99798V35.9981H9.75298V35.2581L10.499 35.2461H10.5ZM12.751 38.9991V40.4811H12.006V39.7651H11.257V40.5051H10.494L9.75298 40.4921L9.74998 39.0001L12.752 38.9981L12.751 38.9991ZM40.508 44.2471V42.7601H41.258V42.0031L42 42.0001V43.5131H42.732V44.2561H42V45.0001H41.25V44.2461H40.509L40.508 44.2471Z" fill="#FEFEFE"/>
<path d="M2.24905 45.749C3.24905 45.749 4.24905 45.749 5.24905 45.749L5.24705 47.242L4.50705 47.254H3.76005V46.522H3.00205V47.232H2.24805V45.749H2.24905ZM38.992 31.501L38.997 30.751H39.751L39.749 30.749V31.499H42V32.252H41.238V32.983H39.74V32.247H39.007L38.992 31.501ZM14.992 35.253V35.993H15.742V37.497H15.001V38.251L14.249 38.249L14.251 38.251V37.487H13.519V36.744H14.251V35.25L14.249 35.252L14.992 35.254V35.253ZM41.992 33.753V34.497H41.252V35.252H39.748V34.497H39.008V33.753H41.992Z" fill="#FEFEFE"/>
<path d="M41.9918 33.7531H39.0078V32.2471H39.7408V32.9831H41.2388V32.2521H42.0018L41.9918 33.7531Z" fill="#D3D3D3"/>
<path d="M45.0061 31.498L44.9921 32.248H44.2781C44.2531 32.513 44.3141 32.841 44.1861 32.953C44.0461 33.075 43.7321 32.996 43.4941 33.004H42.7461V32.251C42.9841 32.243 43.3211 32.327 43.4331 32.204C43.5601 32.065 43.4871 31.742 43.5011 31.499L43.4991 31.501L44.9911 31.505L45.0061 31.498ZM44.9921 33.753L45.0041 34.493L45.0021 35.253L43.4981 35.252V33.748L44.9921 33.753ZM23.2541 35.256L23.2421 35.997H22.4971V36.742H21.7461V36.006L21.7511 35.249L21.7491 35.251C21.9861 35.243 22.3241 35.325 22.4341 35.203C22.5611 35.062 22.4871 34.74 22.5011 34.496L23.2471 34.508L23.2541 35.256Z" fill="#FEFEFE"/>
<path d="M11.2416 44.247V44.984H9.76163V43.508H10.5016V44.248L11.2416 44.247ZM8.99763 35.998V36.742H9.72762V37.502H8.25763V35.998H8.99763ZM6.74163 36.753H5.26562V36.009H6.00163V35.248H6.74163V36.753Z" fill="#D3D3D3"/>
<path d="M13.508 44.9971V44.2651H14.984V45.7421H14.253V44.9971H13.508ZM12.751 36.0011V34.4961H13.506L14.247 34.5081L14.249 35.2511L14.251 35.2491H13.491V35.9991H12.749L12.751 36.0011Z" fill="#FEFEFE"/>
<path d="M6.74163 44.253H5.26562V43.509H6.00163V42.748H6.74163V44.253Z" fill="#D3D3D3"/>
<path d="M42.744 41.2459H43.499V42.7509L43.501 42.7489H42.741V41.9989H42L42.002 41.2569L42.742 41.2449L42.744 41.2459ZM3.754 32.9939V33.7309H3.011V32.9999H2.246V32.2669H3.754V32.9939ZM36.746 32.9939V32.2629H37.493V32.9869H38.243V33.7469L36.749 33.7509L36.746 32.9939ZM1.494 33.7459H2.251V35.2509H1.491V34.4989H0.75L0.752 34.5009L0.754 33.7579L1.494 33.7459ZM45.004 40.4939V41.2309H44.261V40.4999H43.496V39.7669H45.004V40.4939ZM12.754 33.7499H12.006V34.4799H11.246V33.0139H12.754V33.7499Z" fill="#FEFEFE"/>
<path d="M44.992 33.753L43.498 33.748L43.494 33.004C43.732 32.996 44.047 33.074 44.186 32.954C44.314 32.841 44.253 32.514 44.278 32.247H44.992V33.753ZM22.5 34.496C22.487 34.74 22.561 35.062 22.434 35.203C22.324 35.325 21.986 35.243 21.749 35.251V33.747H22.492L22.501 34.497L22.5 34.496ZM36.749 33.751L38.242 33.747V34.503L36.75 34.5L36.752 33.748L36.75 33.75L36.749 33.751ZM43.498 33.748V35.252H42.767V33.748H43.498ZM43.501 31.499C43.487 31.742 43.561 32.065 43.433 32.204C43.321 32.327 42.983 32.244 42.746 32.251L42.002 32.252C42.001 32.002 42 31.752 41.999 31.502C42.499 31.5 43 31.5 43.501 31.499ZM28.496 34.5H29.23V35.253H27.758V34.499L28.496 34.5Z" fill="#D3D3D3"/>
<path d="M36.749 34.501L38.242 34.503V35.247L36.748 35.252L36.751 34.499L36.749 34.501Z" fill="#FEFEFE"/>
<path d="M19.4971 36.7419V35.2679H20.2511V36.7419H19.4971ZM36.7481 35.2519L38.2421 35.2469V35.9819H36.7481V35.2519ZM39.7481 35.2519H41.2521V35.9829H39.7481V35.2519ZM43.4981 35.2519H45.0021V35.9829H43.4981V35.2519ZM29.2471 36.7419V36.0229H30.7531V36.7429L29.2471 36.7419ZM5.24907 38.2489L6.00207 38.2519V39.7419H5.24707L5.24907 38.2489ZM15.7561 38.2439H16.4861V39.7559H15.7561L15.7401 39.7399V38.2599L15.7561 38.2439ZM9.75107 38.9989L9.75307 40.4919H8.99807V39.0019L9.75107 38.9989ZM40.4941 46.5059H39.7641V44.9939H40.4941L40.5101 45.0099V46.4899L40.4941 46.5059ZM5.24707 47.2419L5.24907 45.7489L6.00207 45.7519V47.2419H5.24707ZM17.2561 31.4969C17.4291 31.4969 17.6021 31.5069 17.7741 31.4969C17.9381 31.4869 18.0171 31.5329 18.0031 31.7139C17.9881 31.8939 17.9971 32.0759 17.9961 32.2559H17.2561V31.4969ZM22.5041 33.0059C22.5031 32.8259 22.5111 32.6439 22.4971 32.4649C22.4831 32.2849 22.5601 32.2369 22.7251 32.2469C22.8971 32.2579 23.0701 32.2479 23.2421 32.2469V33.0069L22.5041 33.0059ZM29.2531 33.0079V33.7529H28.5081V33.0079H29.2531ZM30.7531 33.0079V33.7269H29.9971V33.0069L30.7531 33.0079ZM36.7461 32.9939L36.7491 33.7509L36.7511 33.7489L36.0081 33.7529V32.9929L36.7461 32.9939ZM17.2581 33.7469H17.9981V34.5019H17.2581V33.7469Z" fill="#D3D3D3"/>
<path d="M36.0078 33.753L36.7508 33.749C36.7508 33.999 36.7508 34.249 36.7508 34.499L36.0078 34.497V33.753Z" fill="#FEFEFE"/>
<path d="M6.00207 35.2479H5.24707V34.5079H6.00207V35.2479ZM14.2491 35.2509L14.2471 34.5079H14.9921V35.2529L14.2491 35.2509ZM17.9981 34.5019H18.7511L18.7491 34.4989V35.2529H18.0081L17.9981 34.5019ZM23.2541 35.2559L23.2471 34.5079H23.9811V35.2559H23.2541ZM32.2421 35.2529C32.0701 35.2519 31.8971 35.2419 31.7251 35.2529C31.5601 35.2629 31.4831 35.2149 31.4971 35.0349C31.5111 34.8549 31.5031 34.6749 31.5041 34.4939H32.2421V35.2529ZM36.0081 34.4969L36.7511 34.4989L36.7481 35.2519H36.0081V34.4969ZM39.0081 34.4969H39.7481V35.2519H39.0081V34.4969ZM41.2521 35.2519V34.4969H41.9921V35.2519H41.2521ZM45.0021 35.2519L45.0041 34.4939H45.7361V35.2519H45.0021ZM9.75307 35.2579V35.9979H8.99807V35.2579H9.75307ZM21.7511 35.2489L21.7461 36.0059L20.9971 35.9919V35.2489H21.7511ZM18.0081 35.9969H18.7531V36.7419H18.0081V35.9969ZM22.4971 36.7419V35.9969H23.2421V36.7419H22.4971ZM31.4971 36.7419V35.9969H32.2421V36.7419H31.4971ZM6.00207 38.2519V37.4969H6.74207V38.2519H6.00207ZM15.0011 38.2509V37.4969H15.7421L15.7561 38.2439L15.7401 38.2599L14.9991 38.2489L15.0011 38.2509ZM8.25807 38.2469H8.99807V39.0019H8.25807V38.2469ZM15.7561 39.7559V40.5059H15.0061L14.9901 40.4899C14.9931 40.2436 14.9961 39.9972 14.9991 39.7509L15.7391 39.7399L15.7561 39.7559Z" fill="#D3D3D3"/>
<path d="M13.5029 41.242V40.5H14.2509L14.2469 41.243L13.5029 41.242Z" fill="#FEFEFE"/>
<path d="M14.2471 41.242L14.2511 40.499L14.2491 40.501L14.9891 40.49L15.0061 40.506V41.242H14.2471ZM42.0031 41.258L42.0001 42L41.2571 42.002V41.257H42.0021L42.0031 41.258ZM6.00207 42.748H5.24707V42.008H6.00207V42.748ZM47.2521 42.748H46.4971V42.008H47.2521V42.748Z" fill="#D3D3D3"/>
<path d="M11.242 44.2471H10.502V43.5071H11.242V44.2471Z" fill="#FEFEFE"/>
<path d="M40.508 44.2471H41.249C41.2496 44.4977 41.2503 44.7484 41.251 44.9991L40.511 45.0101L40.494 44.9941L40.508 44.2471ZM6.00195 45.7521V44.9971H6.74195V45.7521H6.00195ZM13.508 44.9971H14.253V45.7421H13.508V44.9971ZM41.244 47.2561H40.494V46.5061L40.51 46.4901L41.251 46.5011L41.249 46.4991L41.26 47.2391L41.244 47.2561Z" fill="#D3D3D3"/>
<path d="M18.75 29.9971L18.001 29.9981L18.007 29.9941L17.992 29.2541V26.9971H17.248L17.251 27.0001V25.5001H18.001L17.998 25.4971V26.2491H18.753L18.758 29.2521L18.75 29.9971Z" fill="black"/>
<path d="M17.245 30.747H16.504L16.493 30.003V29.248H15.748L15.751 29.251V28.511H16.487V27.001H17.251L17.248 26.998L17.258 27.753V30.002L17.253 30.751L17.245 30.747ZM18.001 25.501V24.001H18.751L18.748 23.998L18.758 24.753L18.753 25.5C18.501 25.5 18.25 25.5 17.998 25.498L18.001 25.501Z" fill="black"/>
<path d="M14.25 30V29.251H15.751L15.748 29.248L15.742 29.991L15.751 30.001L15.003 30.008L14.248 29.998L14.25 30Z" fill="black"/>
<path d="M14.2459 30.747L13.5039 30.745V30H14.2499L14.2479 29.998L14.2459 30.747ZM18.7509 24.001V23.251H19.5009L19.4979 23.248C19.4979 23.497 19.4959 23.745 19.4949 23.994L18.7479 23.998L18.7509 24.001Z" fill="black"/>
<path d="M19.5 23.25V22.5H20.25L20.248 22.498L20.247 23.25L19.498 23.248L19.5 23.25Z" fill="black"/>
<path d="M41.992 25.503V26.241H42.742V26.997H42.002V27.752C41.765 27.759 41.445 27.676 41.314 27.798C41.19 27.913 41.264 28.242 41.249 28.476V28.501L41.251 28.499H40.488V27.742H39.751V26.25L39.749 26.252H41.251V25.5L41.249 25.502L41.992 25.503Z" fill="#FEFEFE"/>
<path d="M41.9918 28.503V29.997H41.2448V30.749H39.7488L39.7508 30.751V29.997H38.2578V29.259H39.0078V28.503H39.7578V29.232H41.2508V28.499L41.2488 28.501L41.9918 28.503ZM39.0078 26.247V24.755H39.7478V24.011H41.2538V24.744L41.2488 25.501L41.2508 25.499H39.7498V26.251L39.7518 26.249L39.0078 26.247Z" fill="#FEFEFE"/>
<path d="M39.0078 26.2471L39.7508 26.2491V27.7421H40.4878V28.4991H41.2508V29.2321H39.7568V28.5021H39.0068L39.0078 26.2471Z" fill="#D3D3D3"/>
<path d="M31.5002 24.75H32.2342V28.5H31.5002L31.5022 28.502L31.4922 26.253L31.5022 24.748L31.5002 24.75Z" fill="black"/>
<path d="M39.749 30.7491H41.245V29.9971H41.992L42.001 30.7471L41.999 31.5011L42 31.5001H39.748V30.7501L39.749 30.7491Z" fill="#D3D3D3"/>
<path d="M41.999 31.501L42.001 30.746H42.758V30.003L44.25 30V30.76H43.5V31.502L43.502 31.5L42 31.502L41.999 31.501Z" fill="#FEFEFE"/>
<path d="M43.499 31.501V30.759H44.249V29.999L45.742 29.998L45.747 30.747H44.991V31.505L43.5 31.5L43.499 31.501Z" fill="#D3D3D3"/>
<path d="M45.7419 29.9981L44.2489 29.9991L44.2509 30.0011C44.2509 29.8031 44.2609 29.6041 44.2419 29.4091C44.2369 29.3511 44.1469 29.2641 44.0889 29.2581C43.9039 29.2381 43.7159 29.2501 43.5029 29.2501V28.5081H44.9889V29.2401H45.7419V29.9981Z" fill="#FEFEFE"/>
<path d="M30.7501 21.7499V23.2499L30.7521 23.2479L29.9991 23.2519V22.4969H29.2471L29.2531 22.5029V21.0029H29.9931V21.7519H30.7521L30.7501 21.7499Z" fill="black"/>
<path d="M43.5028 28.5081V29.2501C43.7158 29.2501 43.9038 29.2381 44.0888 29.2581C44.1468 29.2641 44.2368 29.3511 44.2418 29.4081C44.2618 29.6041 44.2508 29.8031 44.2518 30.0011L42.7578 30.0031V28.5081H43.5028Z" fill="#D3D3D3"/>
<path d="M31.4962 30.745L30.7542 30.747L30.7422 29.997L30.7572 28.502L30.7522 28.507L31.5022 28.502L31.5002 28.5L31.4962 30.745ZM30.7502 23.25H31.5002V24.75L31.5022 24.748H30.7422V23.997L30.7522 23.248L30.7502 23.25Z" fill="black"/>
<path d="M38.2579 29.9969H39.7509V30.7509H38.9969L38.2529 30.7469L38.2579 29.9969ZM41.9919 28.5029L41.2489 28.5009V28.4759C41.2629 28.2419 41.1899 27.9129 41.3139 27.7979C41.4449 27.6759 41.7649 27.7579 42.0019 27.7519L41.9919 28.5029ZM42.0019 27.7519V26.9969H42.7419V27.7519H42.0019ZM41.2489 25.5009L41.2539 24.7439H41.9919V25.5029L41.2489 25.5009Z" fill="#D3D3D3"/>
<path d="M14.2461 30.747L14.2481 29.998L15.0031 30.008L15.0041 30.746L14.2461 30.747Z" fill="#7C7C7C"/>
<path d="M15.0039 30.746V30.008L15.7509 30.002L15.7459 30.746H15.0039Z" fill="#B2B2B2"/>
<path d="M15.7462 30.746L15.7512 30.002L15.7422 29.991L16.4922 30.003L16.5042 30.747L15.7462 30.746Z" fill="#7C7C7C"/>
<path d="M43.499 45.749L46.501 45.751L46.499 45.749L46.497 47.242L45.757 47.254H45.011V46.522H44.253V47.232H43.499V45.749Z" fill="#FEFEFE"/>
<path d="M43.499 44.999L43.501 45.751H42.759V46.499H41.999L42.001 46.501V45H43.5L43.499 44.999ZM41.26 47.24L41.249 46.499L42.001 46.501L42 46.5L42.002 47.252L41.262 47.241L41.26 47.24ZM2.25101 44.999V45.751H1.51001V46.501H0.750006C0.749998 46.001 0.749998 45.501 0.750006 45.001L2.25001 45L2.25101 44.999Z" fill="#FEFEFE"/>
<path d="M46.497 47.242L46.499 45.749L47.252 45.752V47.242H46.497ZM0.749023 34.499H1.49102V35.251C1.74369 35.2504 1.99636 35.2497 2.24902 35.249C2.25702 35.486 2.17402 35.822 2.29702 35.934C2.43702 36.061 2.75802 35.987 3.00102 36.001L3.00002 36V36.76H2.25002V37.502L2.25202 37.5H0.750023L0.752023 37.502V36.756H1.48202V36.013H0.749023V34.499ZM2.25102 44.999L0.749023 45.001V44.255H1.48102V43.512H0.751023V41.999L0.749023 42.001H1.50902V42.751H2.25102L2.24902 42.749C2.25702 42.986 2.17402 43.322 2.29702 43.434C2.43702 43.561 2.75802 43.487 3.00102 43.501L3.00002 43.5V44.26H2.25002V45L2.25102 44.999Z" fill="#D3D3D3"/>
<path d="M0.749023 37.499H2.25002V38.251H1.51002V39.001H0.750023V37.5L0.749023 37.499ZM2.25102 42.751H1.51002V42.001H0.750023L0.754023 41.258L1.49402 41.246H2.25202V42.751H2.25102ZM0.749023 39.749C0.986023 39.757 1.32402 39.675 1.43402 39.797C1.56102 39.938 1.48602 40.26 1.49902 40.504L0.753023 40.492L0.749023 39.749Z" fill="#FEFEFE"/>
<path d="M21.008 20.998V20.248H20.251L20.258 18.752C20.448 18.751 20.638 18.745 20.828 18.752C20.958 18.756 21.005 18.704 21.002 18.577C20.997 18.387 21.004 18.197 21.006 18.007C21.196 18.004 21.386 17.997 21.576 18.002C21.703 18.005 21.756 17.959 21.752 17.829C21.745 17.639 21.751 17.449 21.752 17.259H22.492V18.742H23.242V19.492H24.742V20.992H25.494V21.744H26.237V22.504H23.997V21.014H22.515V21.759H23.26V22.497H24.003V23.253H29.253L29.247 23.247V24.001L29.25 23.997H28.497V24.751L28.501 24.747H27.756V25.496C27.566 25.497 27.375 25.494 27.184 25.503C27.126 25.506 27.021 25.539 27.019 25.563C27.0052 25.7691 27.0049 25.9759 27.018 26.182C27.02 26.208 27.122 26.244 27.179 26.247C27.369 26.255 27.56 26.249 27.751 26.249L27.744 27.744C27.562 27.746 27.379 27.756 27.197 27.747C27.043 27.74 26.995 27.799 26.997 27.949C27.003 28.381 26.996 28.812 26.994 29.244L26.249 29.251C26.242 29.014 26.325 28.678 26.203 28.567C26.063 28.44 25.742 28.514 25.499 28.501C25.492 28.264 25.575 27.927 25.453 27.817C25.313 27.69 24.991 27.763 24.748 27.75L24.745 27.005C24.747 26.939 24.75 26.872 24.75 26.805C24.752 26.265 24.752 26.267 25.288 26.248C25.356 26.245 25.477 26.213 25.478 26.188C25.495 25.982 25.495 25.774 25.482 25.568C25.48 25.542 25.377 25.506 25.32 25.503C25.129 25.495 24.938 25.5 24.746 25.499V24.753H23.997V24.002H23.247V23.252H22.497V22.502H21.747V21.756C21.747 21.576 21.739 21.395 21.753 21.216C21.767 21.036 21.69 20.986 21.524 20.997C21.353 21.008 21.18 20.999 21.008 20.998Z" fill="#D3D3D3"/>
<path d="M23.2498 13.5V14.25H23.9998V14.985H27.7498V14.251H28.4998V13.501H29.2498V12.751H30.7418V13.497H29.9918V14.262H29.2418V15.002H28.5048V15.745C28.2468 15.747 27.9878 15.745 27.7298 15.751C27.4988 15.756 27.1678 15.681 27.0628 15.801C26.9398 15.941 27.0128 16.254 27.0018 16.491H25.4978C25.4978 16.351 25.4858 16.207 25.5028 16.067C25.5328 15.824 25.4608 15.734 25.1948 15.743C24.5448 15.763 23.8948 15.747 23.2448 15.745V14.994H22.4898V14.244H21.7398V13.497H21.0078V12.751H22.4988V13.501H23.2488L23.2498 13.5Z" fill="#B2B2B2"/>
<path d="M29.9936 21.003H29.2526V22.503H27.0166V21.761H27.7386V21.01H28.4906V19.51H30.0026V18.75L29.9996 18.754H30.7396V17.251H31.4986L31.4916 19.498C31.3196 19.498 31.1466 19.508 30.9756 19.498C30.8096 19.487 30.7326 19.535 30.7466 19.715C30.7606 19.895 30.7516 20.075 30.7526 20.256L30.7416 20.998L29.9936 21.003Z" fill="#D3D3D3"/>
<path d="M21.0078 13.4971H21.7408V14.2451H22.4898V14.9941H23.2448V15.7461H22.5048V16.4931H21.0078V13.4971ZM28.5048 15.7451V15.0031H29.2428V14.2631H29.9918V13.4971H30.7418V15.7531L29.9958 15.7561L28.5058 15.7461L28.5048 15.7451Z" fill="#7C7C7C"/>
<path d="M25.508 19.4969L25.502 18.7489L25.498 18.7529H26.243V17.2629H26.991V18.7359H27.742V19.4959L25.508 19.4969Z" fill="#B2B2B2"/>
<path d="M22.5039 16.493V15.746H23.2439C23.8939 15.747 24.5449 15.763 25.1939 15.743C25.4609 15.734 25.5319 15.824 25.5029 16.067C25.4859 16.207 25.4989 16.35 25.4979 16.492L22.5039 16.493ZM28.5049 15.745L29.9959 15.756L29.9979 16.492H27.0019C27.0129 16.254 26.9399 15.941 27.0619 15.8C27.1679 15.68 27.4989 15.756 27.7299 15.75C27.9879 15.745 28.2469 15.747 28.5049 15.745Z" fill="#D3D3D3"/>
<path d="M25.5078 19.4971H27.7418V20.2331H25.5078V19.4971Z" fill="#7C7C7C"/>
<path d="M29.2471 22.4971H30.0001V23.2521L30.0021 23.2471H29.2481L29.2531 23.2531L29.2471 22.4971Z" fill="#D3D3D3"/>
<path d="M29.248 18.002H30V18.754L30.003 18.751H29.252V17.998L29.248 18.002ZM24.748 18.002H25.498V18.752L25.502 18.749H24.752V18L24.748 18.002Z" fill="#7C7C7C"/>
<path d="M21.0058 18.0059C21.0038 18.1959 20.9958 18.3859 21.0018 18.5759C21.0048 18.7039 20.9578 18.7559 20.8288 18.7519C20.6388 18.7449 20.4488 18.7509 20.2588 18.7519L20.2578 18.0029L20.9938 17.9939L21.0058 18.0059Z" fill="#B2B2B2"/>
<path d="M29.2516 17.9979H28.5156V17.2629H29.2476V18.0019L29.2516 17.9979ZM24.7516 17.9979H24.0156V17.2629H24.7476V18.0019L24.7516 17.9979Z" fill="#7C7C7C"/>
<path d="M21.7521 17.2581C21.7511 17.4481 21.7451 17.6381 21.7521 17.8281C21.7561 17.9581 21.7031 18.0051 21.5761 18.0021C21.3861 17.9971 21.1961 18.0041 21.0061 18.0061L20.9941 17.9941L21.0041 17.2581H21.7521Z" fill="#B2B2B2"/>
<path d="M21.0028 17.2581L20.9938 17.9941L20.2578 18.0041V17.2581H21.0028Z" fill="#7C7C7C"/>
<path d="M29.9981 16.4919L29.9961 15.7559C30.2451 15.7559 30.4941 15.7539 30.7421 15.7529V16.4919H29.9981Z" fill="#B2B2B2"/>
<path d="M1.50102 18.7511H2.25802V18.0031C2.43002 18.0021 2.60302 17.9921 2.77402 18.0031C2.93902 18.0131 3.01802 17.9671 3.00302 17.7861C2.98802 17.6061 2.99602 17.4261 2.99302 17.2461L3.00002 17.2481H3.74802L3.75202 17.2521C3.75902 17.4881 3.67602 17.8241 3.79702 17.9341C3.93702 18.0601 4.25702 17.9861 4.50002 17.9991C4.50002 18.1971 4.48802 18.3971 4.50802 18.5931C4.51402 18.6501 4.61802 18.7491 4.66302 18.7411C4.85702 18.7061 5.08902 18.8691 5.24502 18.6411C5.26502 18.6131 5.25002 18.5611 5.25002 18.5201V18.0001C5.50002 18.0001 5.74802 18.0001 5.99702 18.0021V18.7601H6.73902V19.5031H7.49902C7.50702 19.7391 7.42602 20.0751 7.54802 20.1851C7.68802 20.3111 8.00802 20.2371 8.25102 20.2491L8.24702 20.9921H7.51002V22.4921H6.75402V21.7471H6.00902L5.99902 21.0041C6.00702 20.4908 5.75902 20.2408 5.25502 20.2541L5.24702 20.2461V19.5191H4.50002V20.2511L4.50202 20.2491H3.75002L3.75202 20.2511C3.75202 20.0521 3.76202 19.8521 3.74302 19.6561C3.73702 19.5991 3.63302 19.5011 3.58802 19.5091C3.39402 19.5441 3.16202 19.3811 3.00602 19.6071C2.98602 19.6361 3.00102 19.6881 3.00102 19.7301V20.2501H2.25102V19.4981H1.50902L1.50102 18.7511ZM9.75802 21.7471L9.74802 21.0011L9.75102 20.9991C9.98802 20.9921 10.325 21.0751 10.434 20.9531C10.561 20.8131 10.486 20.4921 10.499 20.2491C10.749 20.2491 10.999 20.2491 11.249 20.2491L11.254 21.0061V22.4921H10.503V21.7471H9.75802ZM1.49902 22.5011L1.50902 21.7511H2.25002V21.0001H3.00002V22.5001H1.50002L1.49902 22.5011Z" fill="#DEBDA6"/>
<path d="M9.7576 21.747H10.5026V22.492H9.7576V21.747ZM6.0076 21.747H6.7526V22.492H6.0076V21.747ZM4.4996 22.497H3.7666V21.767H4.4966V22.5L4.4996 22.497ZM11.2536 21.006L11.2486 20.249L11.9916 20.248L11.9996 21L11.2536 21.006Z" fill="#B18C73"/>
<path d="M9.74902 21.001L9.00302 20.992L8.99902 20.251H9.75102V20.999L9.74902 21.001Z" fill="#DEBDA6"/>
<path d="M8.99907 20.25L9.00307 20.992H8.24707L8.25107 20.249L8.24907 20.251H9.00007L8.99907 20.25Z" fill="#B18C73"/>
<path d="M5.25398 20.2539C5.75798 20.2406 6.00564 20.4906 5.99698 21.0039L5.25098 20.9919L5.25398 20.2539Z" fill="#D3D3D3"/>
<path d="M5.25405 20.2541L5.25105 20.9921H4.50305L4.50005 20.2501L4.49805 20.2521L5.24505 20.2471L5.25305 20.2551L5.25405 20.2541Z" fill="#DEBDA6"/>
<path d="M4.50107 20.249L4.50307 20.992H3.74707L3.74907 20.249H4.50107Z" fill="#B18C73"/>
<path d="M3.75 20.25L3.747 20.992L3.001 21.002L3 20.998L3.002 20.248L3 20.25H3.752L3.75 20.248V20.25Z" fill="#DEBDA6"/>
<path d="M6.73905 18.7599H5.99705V17.2479L6.00005 16.4959V15.7419H5.24805V14.9919L5.24405 14.9969H5.99705V14.2419L5.99605 14.2489L6.74905 14.2579L6.75405 15.0019L6.75205 18.0039L6.75705 18.7439L6.73905 18.7599ZM2.99405 17.2449C2.99605 17.4249 2.98805 17.6069 3.00305 17.7859C3.01805 17.9659 2.93905 18.0129 2.77405 18.0029C2.60305 17.9919 2.43005 18.0019 2.25805 18.0029L2.24805 17.2479L2.99405 17.2449Z" fill="#B18C73"/>
<path d="M6.00002 16.4961L5.99702 17.2481L5.24902 17.2511C5.24902 17.0031 5.25102 16.7561 5.25202 16.5081L6.00002 16.4961Z" fill="#DEBDA6"/>
<path d="M5.25205 16.5081L5.24905 17.2511L5.25105 17.2491H4.49905L4.50105 17.2511C4.50105 17.0031 4.49905 16.7561 4.49805 16.5081H5.25205Z" fill="#9F9F9F"/>
<path d="M4.49805 16.5081L4.50105 17.2511H3.75105L3.74805 17.2481L3.74905 16.5081H4.49805Z" fill="#DEBDA6"/>
<path d="M3.75 16.5081L3.748 17.2481H3V16.5081H3.75Z" fill="#D3D3D3"/>
<path d="M2.25195 17.2519L1.50195 17.2489V16.5149H2.25195V17.2519ZM5.24695 14.9929V15.7429H4.50095V14.9999L5.24695 14.9919V14.9929Z" fill="#DEBDA6"/>
<path d="M2.24981 21V21.752H1.50781V20.998L2.24981 21Z" fill="#9F9F9F"/>
<path d="M2.24981 21L1.50781 20.998V20.252L2.25081 20.251L2.24881 20.249V21.001L2.24981 21Z" fill="#DEBDA6"/>
<path d="M2.24981 20.25L1.50781 20.252V19.498H2.25081V20.251L2.24981 20.25Z" fill="#9F9F9F"/>
<path d="M12.7503 18L12.0063 18.006L11.9893 17.989L12.0043 16.493L12.7433 16.497L12.7503 18ZM13.5043 15H14.2503V15.75H12.7453L12.7503 15.754L12.7443 15.006L12.7613 14.989L13.5043 14.999V15Z" fill="#B18C73"/>
<path d="M12.743 16.497L12.003 16.493L12.001 16.498V15.754H12.75L12.745 15.75L12.743 16.497Z" fill="#FEFEFE"/>
<path d="M30.7527 20.256C30.7527 20.076 30.7607 19.895 30.7467 19.716C30.7327 19.536 30.8097 19.486 30.9757 19.497C31.1467 19.508 31.3197 19.499 31.4917 19.498L31.4987 20.249L30.7527 20.256Z" fill="#B2B2B2"/>
<path d="M11.9921 20.248L11.2491 20.249L11.2511 20.251L11.2461 19.499L11.2491 18.749L11.9921 18.753V20.248Z" fill="#DEBDA6"/>
<path d="M11.992 18.753L11.249 18.749L11.251 18.751V17.989H11.989L12.006 18.006L11.992 18.753Z" fill="#B18C73"/>
<path d="M11.2481 12.008L11.9981 12.001L12.0021 14.248L11.2451 14.255L10.5021 14.251L10.4941 13.506L10.5071 13.493H11.2481V12.008Z" fill="#D3D3D3"/>
<path d="M11.2451 14.255L12.0021 14.248L12.7521 14.258L12.7611 14.989L12.7441 15.006H11.2451V14.255Z" fill="#B18C73"/>
<path d="M12.7609 14.989L12.7529 14.258L13.4989 14.251L13.5039 14.999L12.7609 14.989Z" fill="#DEBDA6"/>
<path d="M8.99902 12.001L9.00602 12.747L8.24902 12.751V12.008L8.99902 12.001Z" fill="#D3D3D3"/>
<path d="M8.248 12.0081L8.249 12.7511L8.251 12.7491H7.5L7.502 12.7511V12.0081H8.248Z" fill="#FEFEFE"/>
<path d="M7.50198 12.008L7.50098 12.751H6.75798L6.75098 12.001L7.50198 12.008Z" fill="#D3D3D3"/>
<path d="M20.2471 23.2501L20.2481 22.4981C20.5001 22.4981 20.7511 22.4961 21.0021 22.4951L20.9941 22.5101L21.0011 23.2511L20.2471 23.2501Z" fill="#B2B2B2"/>
<path d="M21.7471 21.7559V22.5029L21.7511 22.4989L20.9941 22.5089L21.0021 22.4949L21.0041 21.7439L21.7471 21.7559Z" fill="#262626"/>
<path d="M21.7469 21.756L21.0039 21.744L21.0079 20.998C21.1799 20.998 21.3529 21.008 21.5239 20.998C21.6899 20.987 21.7669 21.036 21.7529 21.215C21.7389 21.395 21.7479 21.576 21.7469 21.756Z" fill="#B2B2B2"/>
<path d="M6.75812 12.752L7.50112 12.751L7.49912 12.749L7.50512 13.505L7.49512 14.245L6.74812 14.258L5.99512 14.248L6.00212 13.502H6.75812V12.752Z" fill="#FEFEFE"/>
<path d="M29.9941 21.003L30.7421 20.998L30.7521 21.752H29.9941V21.003Z" fill="#B2B2B2"/>
<path d="M8.24912 12.751L9.00612 12.747L9.74812 12.758L9.75512 13.505L9.74912 14.25L9.00412 14.256L8.25512 14.246L8.24512 13.505L8.25112 12.749L8.24912 12.751ZM11.2481 12.008V13.493H10.5071L10.4971 12.743L10.5021 12.002L11.2481 12.008Z" fill="#FEFEFE"/>
<path d="M10.497 12.7439L10.507 13.4939L10.494 13.5059L9.75505 13.5049L9.74805 12.7579L10.497 12.7439Z" fill="#D3D3D3"/>
<path d="M5.99616 14.242V14.997H5.24316L5.25116 14.251L5.99616 14.242Z" fill="#DEBDA6"/>
<path d="M18.751 34.501V33.017H19.493V33.74H20.978V34.499H18.748L18.751 34.501ZM20.999 31.499V32.245H21.731V32.979H20.251V31.5L20.249 31.502H21V31.5L20.999 31.499Z" fill="#D3D3D3"/>
<path d="M18.75 29.9969L18.758 29.2529L19.504 29.2559V30.0049L19.497 30.7499L19.499 30.7469H18.749L18.75 29.9969Z" fill="#B2B2B2"/>
<path d="M17.2529 30.7499L17.2579 30.0019L18.0079 29.9939L18.0009 29.9979C17.9879 30.2409 18.0609 30.5619 17.9349 30.7019C17.8249 30.8239 17.4889 30.7409 17.2529 30.7499Z" fill="#D3D3D3"/>
<path d="M22.5011 30.753L21.7531 30.743L21.7551 30.748L21.7441 30.002H22.4931V30.741L22.5011 30.753Z" fill="#7C7C7C"/>
<path d="M20.2505 31.4989H19.4985L19.5005 31.5009L19.4985 30.7469L19.4965 30.7499C19.7335 30.7569 20.0715 30.6739 20.1825 30.7959C20.3095 30.9359 20.2355 31.2579 20.2485 31.5009L20.2505 31.4989ZM21.7525 30.7439V30.7679C21.7385 31.0039 21.8125 31.3319 21.6875 31.4499C21.5575 31.5719 21.2365 31.4909 20.9985 31.4989L21.0005 31.5009C21.0085 31.2639 20.9265 30.9419 21.0495 30.8129C21.1665 30.6879 21.4945 30.7629 21.7295 30.7489H21.7545L21.7525 30.7439ZM23.2525 30.7499L23.2405 31.5049H22.5005V30.7529L22.4925 30.7409L23.2525 30.7499ZM19.4985 31.4989V32.2319H18.7695V31.5019H19.5005L19.4985 31.4989Z" fill="#D3D3D3"/>
<path d="M2.24902 45.0011V44.2591H2.99902V43.4991H3.73202V45.0001H2.25002L2.24902 45.0011ZM3.00102 42.7511V42.0181H3.73002V42.7481H2.99902L3.00102 42.7511Z" fill="#FEFEFE"/>
<path d="M3.00054 43.501C2.75754 43.487 2.43554 43.561 2.29654 43.434C2.17354 43.322 2.25654 42.986 2.24854 42.749C2.49854 42.749 2.74854 42.749 2.99854 42.749L2.99954 43.5L3.00054 43.501Z" fill="#FEFEFE"/>
<path d="M25.504 30.7461H23.996V29.9921H23.237V29.2421H22.495V28.4991H21.748V27.7471L22.497 27.7501H23.259V28.5041H24.007V29.2301H24.756V28.5001H25.499V29.2501H26.249V30.0011L26.25 30.0001H25.503V30.7471L25.504 30.7461Z" fill="#7C7C7C"/>
<path d="M21.7482 28.499H22.4952V29.241H23.2372V29.992H23.9962V30.746C23.7485 30.7477 23.5008 30.7494 23.2532 30.751L22.4932 30.741V30.002H21.7432L21.7492 30.005V28.498L21.7482 28.499Z" fill="#B2B2B2"/>
<path d="M30.7421 29.997L30.7541 30.747H29.2471L29.2451 30.005L29.2501 29.249V28.5H30.0001V29.998H30.7431L30.7421 29.997Z" fill="#7C7C7C"/>
<path d="M28.4999 30.7481L27.0039 30.7461L27.0009 29.9991L26.9999 30.0001H27.7519V29.2481L27.7499 29.2501H28.5019L28.4989 29.2471L28.5089 30.0031L28.5009 30.7471L28.4999 30.7481ZM25.5039 30.7461V29.9991H26.2509L26.2459 30.7461H25.5039Z" fill="#B2B2B2"/>
<path d="M26.2461 30.746L26.2501 30H27.0001L27.0031 30.747H26.2451L26.2461 30.746Z" fill="#7C7C7C"/>
<path d="M28.5 30.7479L28.507 30.0039H29.245L29.247 30.7469L28.5 30.7479Z" fill="#262626"/>
<path d="M44.25 43.5011H44.982V44.9991H43.5L43.502 45.0011V44.2411H44.252V43.5001L44.25 43.5011ZM44.251 42.7511V42.0181H44.98V42.7481H44.249L44.251 42.7511Z" fill="#FEFEFE"/>
<path d="M43.4986 42.75L44.2506 42.751L44.2486 42.749V43.501L44.2506 43.499C44.0136 43.492 43.6766 43.575 43.5656 43.453C43.4396 43.313 43.5136 42.992 43.5006 42.749L43.4986 42.75ZM12.7506 38.249H11.2686V36.751H12.0006L11.9986 36.749V37.509H12.7486V38.251L12.7506 38.249ZM14.2506 39.749H13.5086V39.001H12.7486C12.7486 38.751 12.7486 38.501 12.7486 38.251H14.2506L14.2486 38.249V39.751L14.2506 39.749ZM12.0006 35.999H11.2676V35.27H11.9976V36.001L12.0006 35.999Z" fill="#FEFEFE"/>
<path d="M12.001 36.751V35.999L12 36H12.752L12.75 35.998C12.743 36.235 12.826 36.572 12.704 36.683C12.564 36.809 12.243 36.735 12 36.748L12.002 36.75L12.001 36.751Z" fill="#FEFEFE"/>
<path d="M30.0225 34.5149H30.7325V35.2309H30.0225V34.5149Z" fill="#D3D3D3"/>
<path d="M2.24902 37.5011V36.7591H2.99902V35.9991H3.73202V37.5001H2.25002L2.24902 37.5011ZM3.00102 35.2511V34.5181H3.73002V35.2481H2.99902L3.00102 35.2511Z" fill="#FEFEFE"/>
<path d="M3.00054 36.001C2.75754 35.987 2.43554 36.061 2.29654 35.934C2.17354 35.822 2.25654 35.486 2.24854 35.249C2.49854 35.249 2.74854 35.249 2.99854 35.249L2.99954 36L3.00054 36.001Z" fill="#FEFEFE"/>
<path d="M3.75058 39.749H3.01758V39.02H3.74758V39.751L3.75058 39.749Z" fill="#D3D3D3"/>
<path d="M14.99 40.49L14.249 40.501L14.251 39.749L14.249 39.751L15.001 39.749L14.99 40.489V40.49Z" fill="#FEFEFE"/>
<path d="M43.501 42.749C43.514 42.992 43.44 43.314 43.566 43.453C43.677 43.575 44.014 43.492 44.251 43.499V44.241H43.501V45.001H42V44.255H42.732V43.512H42V41.999H42.742V42.749H43.501Z" fill="#D3D3D3"/>
<path d="M42.001 46.501L41.249 46.499L41.251 46.501V45L42.002 44.998V46.5L42.001 46.501ZM11.999 36.749C12.242 36.736 12.564 36.81 12.703 36.684C12.825 36.573 12.742 36.236 12.749 35.999H13.491V35.249H14.251V36.744H13.519V37.487H14.251V38.251H12.75V37.509H12V36.749H11.999Z" fill="#D3D3D3"/>
<path d="M15.001 39.749L14.249 39.751V38.25C14.499 38.25 14.749 38.25 14.999 38.25V39.752L15 39.75L15.001 39.749Z" fill="#D3D3D3"/>
<path d="M14.999 39.751V38.25L15.739 38.261V39.741L14.999 39.751ZM41.251 44.999V46.5L40.511 46.489V45.009L41.251 44.999Z" fill="#FEFEFE"/>
<path d="M19.5038 29.256C19.2538 29.256 19.0058 29.254 18.7578 29.253L18.7528 26.25L18.7498 26.253L19.5028 26.258V26.978H20.2468V26.258H21.0028C21.0028 26.505 21.0008 26.752 20.9998 26.998L20.9978 27.747L21.0018 27.753L20.2548 27.755C20.1808 27.753 20.1058 27.75 20.0318 27.75C19.4618 27.749 19.4648 27.748 19.4968 28.328C19.5038 28.455 19.5428 28.505 19.6718 28.502C19.8608 28.496 20.0508 28.504 20.2398 28.506L20.2538 28.498C20.2538 28.747 20.2518 28.995 20.2498 29.244L20.2608 29.252L20.2558 29.264C20.0051 29.2613 19.7545 29.2587 19.5038 29.256ZM17.2578 29.253V27.753H17.9928V29.253H17.2578Z" fill="#7C7C7C"/>
<path d="M17.2578 29.2529H17.9918L18.0068 29.9929L17.2578 30.0019V29.2529Z" fill="#B2B2B2"/>
<path d="M17.9932 27.7531H17.2572L17.2482 26.9981H17.9932V27.7531ZM17.9982 25.4981L18.7532 25.5001L18.7502 25.4971V26.2531L18.7532 26.2501H17.9982V25.4981ZM16.4932 30.0031L15.7432 29.9911L15.7482 29.2481H16.4932V30.0031Z" fill="#545454"/>
<path d="M20.247 23.25L21.001 23.251L21 23.25V24.755H20.254V25.493L18.751 25.498L18.754 25.501L18.758 24.754C18.931 24.754 19.104 24.744 19.275 24.754C19.44 24.764 19.518 24.716 19.504 24.536C19.489 24.356 19.498 24.176 19.496 23.995L19.499 23.249L20.248 23.251L20.247 23.25Z" fill="#7C7C7C"/>
<path d="M19.495 23.9939C19.497 24.1739 19.488 24.3559 19.503 24.5349C19.517 24.7149 19.439 24.7629 19.274 24.7529C19.103 24.7429 18.93 24.7529 18.757 24.7529L18.748 23.9979L19.495 23.9939Z" fill="#545454"/>
<path d="M39.749 26.251V25.5H41.251V26.252H39.75L39.749 26.251Z" fill="#D3D3D3"/>
<path d="M30.742 23.9971V24.7481H31.502L31.492 26.2531H30.752V28.5071L30.757 28.5021L29.999 28.4991L30.001 28.5011V27.0011H29.249V25.4911H29.999V24.0001L30.742 23.9971Z" fill="#7C7C7C"/>
<path d="M30.752 28.5071V26.2531H31.492L31.502 28.5021L30.752 28.5071ZM30.742 23.9971L30 24.0001L30.001 23.2471L29.999 23.2521L30.752 23.2481L30.742 23.9971Z" fill="#B2B2B2"/>
<path d="M29.9991 28.499L30.7571 28.502L30.7421 29.997H30.0001L29.9991 28.499ZM25.5001 28.5H24.7561V29.23H24.0071V28.504H23.2591V27.75H22.4971L22.5001 26.25H23.2601V27H24.0001V27.75H24.7501C24.9921 27.764 25.3141 27.69 25.4541 27.818C25.5761 27.928 25.4931 28.265 25.5001 28.502V28.5ZM30.0001 24V25.491H29.2491V27.001L29.2501 27H28.5001V27.752L28.5021 27.75L27.7571 27.757L27.7451 27.745L27.7521 26.25L27.7501 26.252C27.9871 26.243 28.3251 26.326 28.4351 26.203C28.5621 26.063 28.4871 25.741 28.5001 25.497L28.5021 24.748L28.4981 24.752H29.2511V23.998L29.2481 24.002H30.0021L30.0001 24Z" fill="#B2B2B2"/>
<path d="M24.0026 22.4969H23.2596V21.7589H22.5146V21.0139H23.9966V22.5039L24.0026 22.4969Z" fill="black"/>
<path d="M24.746 25.5001C24.938 25.5001 25.129 25.4951 25.32 25.5031C25.377 25.5061 25.48 25.5431 25.482 25.5681C25.495 25.7741 25.495 25.9821 25.479 26.1881C25.477 26.2131 25.356 26.2451 25.289 26.2481C24.752 26.2681 24.752 26.2651 24.749 26.8061C24.749 26.8721 24.747 26.9391 24.745 27.0061L24 26.9981V27.0001V25.4951L24.745 25.4981L24.746 25.5001ZM26.994 29.2441C26.996 28.8121 27.004 28.3811 26.997 27.9491C26.995 27.7991 27.043 27.7391 27.197 27.7471C27.379 27.7571 27.562 27.7461 27.744 27.7441L27.756 27.7561L27.749 29.2511L27.751 29.2491L27.006 29.2561L26.994 29.2441ZM26.25 29.2501H25.5V28.5001C25.742 28.5141 26.063 28.4401 26.203 28.5671C26.325 28.6771 26.242 29.0141 26.249 29.2511L26.25 29.2501Z" fill="#B2B2B2"/>
<path d="M23.999 26.999L24.745 27.005L24.748 27.75H23.998V26.999H23.999Z" fill="#7C7C7C"/>
<path d="M27.001 29.9989L26.25 29.9999V29.2499L26.995 29.2429L27.007 29.2549L27 29.9999L27.001 29.9989ZM27.75 26.2499C27.56 26.2499 27.37 26.2549 27.18 26.2469C27.122 26.2439 27.02 26.2069 27.018 26.1819C27.0049 25.9758 27.0052 25.769 27.019 25.5629C27.021 25.5389 27.126 25.5059 27.184 25.5029C27.374 25.4929 27.565 25.4969 27.756 25.4959L27.752 25.4939C27.752 25.7469 27.75 25.9989 27.749 26.2509L27.751 26.2489L27.75 26.2499Z" fill="#B2B2B2"/>
<path d="M28.5001 24.7471V25.4971L27.7521 25.4941L27.7561 25.4961V24.7471H28.5001ZM24.7461 25.5001L24.0011 25.4961L24.0031 25.5001C24.0031 25.2501 24.0031 24.9991 24.0011 24.7491L23.9971 24.7531H24.7471V25.4991L24.7461 25.5001Z" fill="#545454"/>
<path d="M29.2501 23.9971V24.7511H28.4971V23.9971H29.2501ZM23.2471 24.0021H23.9971V24.7521L24.0011 24.7491L23.2511 24.7471L23.2531 24.7501L23.2501 23.9971L23.2471 24.0021Z" fill="#545454"/>
<path d="M30.0001 24.0001L29.2471 24.0011V23.2471H30.0011L30.0001 24.0001ZM22.4971 23.2531H23.2471V24.0021L23.2501 23.9971L22.5001 23.9981L22.5011 23.2481L22.4971 23.2531Z" fill="#262626"/>
<path d="M21.7471 22.503H22.4971V23.253L22.5011 23.249H21.7511V22.499L21.7471 22.503Z" fill="#262626"/>
<path d="M11.249 18.7489L11.246 19.4989L10.498 19.5029L9.748 19.5059H9.003L8.252 19.5029H6.738V18.7599L6.756 18.7439C8.25438 18.7462 9.75262 18.7486 11.251 18.7509L11.249 18.7489ZM2.25 20.9999V20.2499H3V20.9999H2.25Z" fill="#B18C73"/>
<path d="M7.49759 19.5029H8.25159L8.24859 20.2519L8.25059 20.2489C8.00859 20.2369 7.68759 20.3109 7.54759 20.1849C7.42559 20.0749 7.50659 19.7389 7.49759 19.5029Z" fill="#9F9F9F"/>
<path d="M5.24602 20.246L4.49902 20.251V19.519H5.24602V20.246Z" fill="#B18C73"/>
<path d="M3.75009 20.2501H3.00009V19.7301C3.00009 19.6881 2.98609 19.6361 3.00509 19.6071C3.16109 19.3811 3.39309 19.5441 3.58709 19.5091C3.63109 19.5011 3.73709 19.5991 3.74209 19.6561C3.76209 19.8521 3.75009 20.0521 3.75109 20.2511L3.75009 20.2501Z" fill="#9F9F9F"/>
<path d="M5.24966 18V18.52C5.24966 18.561 5.26366 18.613 5.24466 18.642C5.08866 18.869 4.85666 18.706 4.66266 18.741C4.61866 18.749 4.51266 18.651 4.50766 18.593C4.48766 18.397 4.49966 18.197 4.49966 17.999L5.24966 18Z" fill="#D3D3D3"/>
<path d="M5.24978 17.25C5.49778 17.25 5.74778 17.25 5.99678 17.248V18.002C5.74811 18.0014 5.49944 18.0007 5.25077 18V17.249L5.24878 17.251L5.24978 17.25ZM3.75178 17.252C4.00078 17.251 4.24978 17.25 4.49878 17.249V18C4.25678 17.986 3.93678 18.06 3.79678 17.934C3.67578 17.824 3.75878 17.488 3.75178 17.252Z" fill="#9F9F9F"/>
<path d="M9.75 21C9.75 20.7504 9.75 20.5007 9.75 20.251H10.5L10.499 20.249C10.486 20.492 10.561 20.813 10.434 20.953C10.324 21.075 9.988 20.992 9.751 20.999L9.75 21Z" fill="#B18C73"/>
<path d="M10.498 19.503L11.246 19.499L11.251 20.251C11.001 20.251 10.751 20.251 10.501 20.251L10.498 19.503Z" fill="#9F9F9F"/>
<path d="M9.00302 19.5061H9.74702L9.75102 20.2511H8.99902L9.00302 19.5061Z" fill="#D3D3D3"/>
<path d="M9.00298 19.506L8.99898 20.251H8.24898L8.25198 19.503L9.00198 19.506H9.00298ZM11.251 18.751L9.74598 18.749V17.991H8.98998V17.265H7.49098V18.004H6.75098L6.75298 15.002H7.50298L7.50198 15.747V16.498H8.99698L9.75298 16.502V17.235H10.497V16.5L11.253 16.497H12.001L12.004 16.492L11.989 17.988H11.251V18.751Z" fill="#DEBDA6"/>
<path d="M6.75 18.0039H7.491V17.2639H8.991V17.9909H9.746V18.7489L6.756 18.7439L6.75 18.0039Z" fill="black"/>
<path d="M7.50205 15.0021H6.75205C6.75205 14.7541 6.75005 14.5061 6.74805 14.2581L7.49505 14.2451L7.50505 14.2551V15.0081L7.50205 15.0021Z" fill="#9F9F9F"/>
<path d="M4.50002 18L4.49902 17.249H5.25102V18H4.50002Z" fill="#DEBDA6"/>
<path d="M12.0012 16.498H11.2532V15.747H10.5022L10.4922 15.003L10.5082 14.257L10.5022 14.251L11.2452 14.255V15.005H12.7452L12.7502 15.755H12.0012V16.498Z" fill="black"/>
<path d="M9.75521 13.5049L10.4942 13.5059L10.5022 14.2509L10.5082 14.2569L9.74121 14.2599L9.74921 14.2499L9.75521 13.5049Z" fill="#9F9F9F"/>
<path d="M8.25102 12.749L8.24502 13.505H7.50502L7.49902 12.749H8.25102Z" fill="#D3D3D3"/>
<path d="M21.7511 22.499V23.249H20.9991L21.0011 23.251L20.9941 22.51L21.7511 22.499Z" fill="#7C7C7C"/>
<path d="M7.50512 13.5049H8.24512L8.25512 14.2459L7.50612 14.2559L7.49512 14.2459L7.50512 13.5049Z" fill="#9F9F9F"/>
<path d="M8.99695 16.498H8.25295V15.747H7.50195V15.002L7.50495 15.008H9.00495V14.256L9.74895 14.25L9.74095 14.26L9.75795 15.003L9.74795 15.747H8.99695V16.498Z" fill="black"/>
<path d="M9.00388 14.2561V15.0081H7.50488V14.2561L8.25488 14.2461L9.00488 14.2561H9.00388Z" fill="#B18C73"/>
<path d="M21.7551 30.7479L21.7301 30.7489C21.4951 30.7619 21.1671 30.6889 21.0501 30.8129C20.9271 30.9429 21.0091 31.2629 21.0011 31.5009H20.2491C20.2361 31.2579 20.3091 30.9349 20.1831 30.7959C20.0721 30.6739 19.7341 30.7569 19.4971 30.7499L19.5041 30.0049H20.2561V29.2649L20.2611 29.2519L20.2511 29.2439L21.0001 29.2499V30.0049H21.7491L21.7441 30.0019L21.7551 30.7479Z" fill="#FEFEFE"/>
<path d="M20.2559 29.2641V30.0041H19.5039V29.2561L20.2559 29.2641Z" fill="#D3D3D3"/>
<path d="M22.5 26.25L22.497 27.75L21.747 27.747L21.751 27.751L21.744 26.995L21.752 26.248L21.748 26.252C21.998 26.252 22.248 26.252 22.5 26.25ZM21.747 27.747L21.748 28.499L21 28.5L21.002 27.753L20.998 27.747L21.751 27.751L21.747 27.747Z" fill="black"/>
<path d="M21 28.5L21.749 28.498V30.005H21V28.5Z" fill="#7C7C7C"/>
<path d="M29.2491 27.001H30.0001V28.501H29.2491V29.249H28.4971L28.5001 29.251V27.749L28.4981 27.751H29.2501V27L29.2491 27.001Z" fill="#B2B2B2"/>
<path d="M28.498 29.248H29.25L29.245 30.005L28.507 30.004L28.498 29.248Z" fill="#545454"/>
<path d="M28.501 27.749V29.251H27.749L27.756 27.756L28.501 27.749Z" fill="#7C7C7C"/>
<path d="M26.999 30.001L27.006 29.256L27.751 29.249V30H27L26.999 30.001Z" fill="#7C7C7C"/>
<path d="M18.75 25.4969L20.253 25.4919H21.748V26.2519L21.752 26.2479L21.003 26.2579H19.503L18.75 26.2529V25.4969ZM21 28.4999V29.2499L20.25 29.2439L20.254 28.4979L21 28.4999Z" fill="black"/>
<path d="M21.0002 28.4999L20.2542 28.4979L20.2402 28.5059L20.2552 27.7559L21.0022 27.7529L21.0002 28.4999Z" fill="#262626"/>
<path d="M20.2548 27.7551L20.2398 28.5061C20.0498 28.5041 19.8598 28.4961 19.6718 28.5021C19.5428 28.5051 19.5038 28.4551 19.4968 28.3281C19.4648 27.7481 19.4608 27.7481 20.0318 27.7501C20.1058 27.7501 20.1808 27.7531 20.2548 27.7551ZM21.7508 27.7511L20.9978 27.7471L20.9998 26.9991L21.7438 26.9951L21.7508 27.7511Z" fill="#545454"/>
<path d="M21.7439 26.995L20.9999 26.999L21.0029 26.258L21.7529 26.248L21.7439 26.995ZM19.5029 26.258H20.2469V26.978H19.5029V26.258Z" fill="#B2B2B2"/>
<path d="M21.7479 26.252V25.492H20.2529V24.754H20.9999V23.249H21.7519V24.751H22.5019L22.4999 24.749L22.5009 26.249L21.7489 26.252H21.7479Z" fill="#B2B2B2"/>
<path d="M22.5 26.2501L22.499 24.7491H23.253L23.25 24.7471V25.5001H24.003L24.001 25.4961V27.0011H23.259V26.2501H22.5ZM29.251 26.9991V27.7511H28.5V27.0001H29.252L29.251 26.9991Z" fill="#7C7C7C"/>
<path d="M27.752 25.4939L28.499 25.4959C28.486 25.7399 28.561 26.0609 28.434 26.2019C28.324 26.3249 27.986 26.2419 27.749 26.2509L27.752 25.4939Z" fill="#D3D3D3"/>
<path d="M24.003 25.5001H23.25V24.7471C23.5 24.7471 23.751 24.7471 24.001 24.7491L24.003 25.5001Z" fill="#B2B2B2"/>
<path d="M23.253 24.75L22.499 24.749L22.501 24.751V23.998H23.251L23.253 24.75Z" fill="#B2B2B2"/>
<path d="M22.5 23.998L22.501 24.751H21.751V23.25H22.501V24L22.5 23.998Z" fill="#7C7C7C"/>
<path d="M9.75007 20.2509L9.74707 19.5059L10.4981 19.5029L10.5011 20.2509H9.75107H9.75007Z" fill="#DEBDA6"/>
<path d="M10.497 16.501V17.235H9.753V16.502H9.75H10.498H10.496L10.497 16.501Z" fill="black"/>
<path d="M10.502 15.7471H11.253V16.4981L10.497 16.5011L10.499 16.5031L10.502 15.7471ZM8.99695 16.4981V15.7471H9.74795L9.75095 16.5031L9.75295 16.5021L8.99695 16.4981ZM7.50195 15.7471H8.25295V16.4981H7.50195V15.7471Z" fill="#FEFEFE"/>
<path d="M9.75105 16.5029L9.74805 15.7469L9.75805 15.0029H10.492L10.502 15.7469L10.499 16.5029H9.75005H9.75105Z" fill="#DEBDA6"/>
<path d="M10.4922 15.0031H9.75821L9.74121 14.2601L10.5082 14.2571L10.4922 15.0031Z" fill="#B18C73"/>
</g>
<defs>
<clipPath id="clip0_16693_13909">
<rect width="48" height="48" rx="24" fill="white"/>
</clipPath>
</defs>
</svg>
