<svg width="255" height="255" viewBox="0 0 255 255" fill="none" xmlns="http://www.w3.org/2000/svg">
<g clip-path="url(#clip0_1313_260)">
<path d="M127.5 255C197.916 255 255 197.916 255 127.5C255 57.0837 197.916 0 127.5 0C57.0837 0 0 57.0837 0 127.5C0 197.916 57.0837 255 127.5 255Z" fill="url(#paint0_linear_1313_260)"/>
<path fill-rule="evenodd" clip-rule="evenodd" d="M127.123 212.168C102.309 212.149 82.3212 206.195 68.3554 195.5C54.222 184.676 46.7242 169.317 46.7242 151.938C46.7242 135.192 54.2056 123.116 62.6705 114.954C69.3045 108.558 76.6251 104.461 81.7225 102.105C80.5699 98.567 79.1316 93.9356 77.8449 89.1522C76.1233 82.7512 74.4342 75.2412 74.4342 69.7379C74.4342 63.224 75.8545 56.6822 79.6838 51.599C83.7295 46.2285 89.82 43.3516 97.1473 43.3516C102.874 43.3516 107.736 45.4755 111.542 49.1401C115.18 52.6426 117.601 57.2945 119.273 62.1435C122.211 70.6639 123.355 81.3689 123.676 92.0518H130.694C131.015 81.3689 132.159 70.6639 135.097 62.1435C136.769 57.2945 139.19 52.6426 142.829 49.1401C146.635 45.4755 151.497 43.3516 157.223 43.3516C164.55 43.3516 170.641 46.2285 174.687 51.599C178.516 56.6822 179.936 63.224 179.936 69.7379C179.936 75.2412 178.247 82.7512 176.525 89.1522C175.239 93.9356 173.801 98.567 172.648 102.105C177.745 104.461 185.066 108.558 191.7 114.954C200.165 123.116 207.646 135.192 207.646 151.938C207.646 169.317 200.148 184.676 186.015 195.5C172.049 206.195 152.061 212.149 127.247 212.168H127.123Z" fill="#633001"/>
<path d="M97.147 49.5464C86.415 49.5464 81.4749 57.6344 81.4749 68.8201C81.4749 77.7109 87.215 95.517 89.5701 102.449C90.0997 104.008 89.2672 105.716 87.7495 106.321C79.1483 109.747 53.7651 122.291 53.7651 151.02C53.7651 181.283 79.56 204.101 127.128 204.137C127.147 204.137 127.166 204.137 127.185 204.137C127.204 204.137 127.223 204.137 127.242 204.137C174.81 204.101 200.605 181.283 200.605 151.02C200.605 122.291 175.222 109.747 166.62 106.321C165.102 105.716 164.27 104.008 164.8 102.449C167.155 95.517 172.895 77.7109 172.895 68.8201C172.895 57.6344 167.955 49.5464 157.223 49.5464C141.775 49.5464 137.924 71.6525 137.649 95.3779C137.631 96.9618 136.363 98.2469 134.795 98.2469H119.575C118.006 98.2469 116.739 96.9618 116.721 95.3779C116.446 71.6525 112.595 49.5464 97.147 49.5464Z" fill="#D1884F"/>
<path d="M127.242 194.443C92.2911 194.443 53.8254 175.543 53.7651 151.077C53.7651 151.116 53.7651 151.154 53.7651 151.192C53.7651 181.479 79.6012 204.309 127.242 204.309C174.882 204.309 200.718 181.479 200.718 151.192C200.718 151.154 200.718 151.116 200.718 151.077C200.658 175.543 162.192 194.443 127.242 194.443Z" fill="#FEDC90"/>
<path d="M107.822 143.563C107.822 151.823 103.958 156.125 99.1913 156.125C94.4244 156.125 90.5603 151.823 90.5603 143.563C90.5603 135.303 94.4244 131.001 99.1913 131.001C103.958 131.001 107.822 135.303 107.822 143.563Z" fill="#633001"/>
<path d="M163.923 143.563C163.923 151.823 160.059 156.125 155.292 156.125C150.525 156.125 146.661 151.823 146.661 143.563C146.661 135.303 150.525 131.001 155.292 131.001C160.059 131.001 163.923 135.303 163.923 143.563Z" fill="#633001"/>
</g>
<defs>
<linearGradient id="paint0_linear_1313_260" x1="127.5" y1="0" x2="127.5" y2="255" gradientUnits="userSpaceOnUse">
<stop stop-color="#53DEE9"/>
<stop offset="1" stop-color="#1FC7D4"/>
</linearGradient>
<clipPath id="clip0_1313_260">
<rect width="255" height="255" fill="white"/>
</clipPath>
</defs>
</svg>
