<svg width="256" height="256" viewBox="0 0 256 256" fill="none" xmlns="http://www.w3.org/2000/svg">
<g clip-path="url(#clip0_741_46)">
<path d="M256 128C256 198.692 198.692 256 128 256C57.3075 256 0 198.692 0 128C0 57.3075 57.3075 0 128 0C198.692 0 256 57.3075 256 128Z" fill="white"/>
<mask id="mask0_741_46" style="mask-type:alpha" maskUnits="userSpaceOnUse" x="35" y="37" width="187" height="151">
<path fill-rule="evenodd" clip-rule="evenodd" d="M35 37H221.662V187.373H35V37Z" fill="white"/>
</mask>
<g mask="url(#mask0_741_46)">
<path fill-rule="evenodd" clip-rule="evenodd" d="M56.8569 181.789C51.31 169.914 48.2118 156.666 48.2118 142.695C48.2118 91.6177 89.6177 50.2119 140.695 50.2119C169.135 50.2119 194.576 63.0504 211.541 83.2472L221.662 74.7549C202.274 51.6727 173.198 37 140.695 37C82.3211 37 35 84.3211 35 142.695C35 158.662 38.5408 173.802 44.8801 187.374L56.8569 181.789Z" fill="black"/>
</g>
<path fill-rule="evenodd" clip-rule="evenodd" d="M140.695 205.451C106.035 205.451 77.9384 177.354 77.9384 142.695C77.9384 108.035 106.035 79.9383 140.695 79.9383C159.994 79.9383 177.255 88.6524 188.767 102.357L198.89 93.8628C184.955 77.2726 164.056 66.7266 140.695 66.7266C98.7387 66.7266 64.7265 100.738 64.7265 142.695C64.7265 184.65 98.7387 218.662 140.695 218.662V205.451Z" fill="black"/>
<path fill-rule="evenodd" clip-rule="evenodd" d="M163.465 161.802C158.012 168.294 149.836 172.421 140.695 172.421C124.277 172.421 110.968 159.113 110.968 142.695C110.968 126.277 124.277 112.968 140.695 112.968C149.836 112.968 158.012 117.096 163.465 123.588L174.851 114.034C166.672 104.297 154.407 98.105 140.695 98.105C116.068 98.105 96.1043 118.068 96.1043 142.695C96.1043 167.321 116.068 187.285 140.695 187.285C153.261 187.285 164.609 182.082 172.714 173.718L163.465 161.802Z" fill="black"/>
</g>
<defs>
<clipPath id="clip0_741_46">
<rect width="256" height="256" fill="white"/>
</clipPath>
</defs>
</svg>
