<svg width="256" height="256" viewBox="0 0 256 256" fill="none" xmlns="http://www.w3.org/2000/svg">
<g clip-path="url(#clip0_741_46)">
<path d="M256 128C256 198.692 198.692 256 128 256C57.3075 256 0 198.692 0 128C0 57.3075 57.3075 0 128 0C198.692 0 256 57.3075 256 128Z" fill="black"/>
<path d="M211.178 176.231L212.116 174.354C215.581 166.041 212.343 156.356 204.556 151.786C201.771 150.147 198.605 149.281 195.397 149.281C188.992 149.281 182.99 152.705 179.751 158.233L179.246 159.027L169.283 176.303C168.891 177.149 168.416 177.953 167.89 178.717L167.849 178.779L167.777 178.902L167.695 179.016C167.416 179.408 167.117 179.789 166.807 180.151H200.534C205.402 180.151 209.166 178.758 211.188 176.21L211.178 176.231Z" fill="url(#paint0_linear_741_46)"/>
<path d="M129.615 222.469H130.812C137.753 222.377 144.21 220.798 148.995 218.024L198.512 189.444C200.111 188.526 201.689 187.36 203.215 186.009C202.349 186.091 201.451 186.133 200.523 186.133H106.182C105.265 186.122 104.357 186.03 103.47 185.875L120.364 215.136C122.942 219.612 126.222 222.211 129.605 222.479L129.615 222.469Z" fill="url(#paint1_linear_741_46)"/>
<path d="M48.2703 174.86C48.4766 175.21 48.6726 175.571 48.8891 175.922C52.4371 181.873 57.0268 186.679 61.8227 189.454L111.329 218.034C112.938 218.962 114.723 219.757 116.661 220.406C116.156 219.695 115.671 218.932 115.207 218.127L92.4447 178.697C91.9493 177.985 91.4956 177.211 91.104 176.376L69.0837 138.234C68.2689 137.13 67.5881 135.944 67.0725 134.717C66.99 134.511 66.9075 134.294 66.8249 134.078L50.0134 163.205C47.4349 167.671 46.8161 171.796 48.2703 174.849V174.86Z" fill="url(#paint2_linear_741_46)"/>
<path d="M64.1743 126.744L67.155 121.587C67.6501 120.432 68.2999 119.308 69.0837 118.245L92.3826 77.8866L92.4757 77.7213L92.548 77.5977L92.6303 77.4843C92.9192 77.0718 93.2183 76.6796 93.5377 76.3083H59.8116C54.665 76.3083 50.787 77.8347 48.8583 80.6199C48.6417 80.9912 48.4251 81.3625 48.2188 81.7338C44.8565 87.7675 43 94.1415 43 99.6595V156.831C43 158.687 43.2063 160.626 43.6188 162.627C43.9798 161.833 44.4027 161.028 44.8565 160.234L64.1847 126.755L64.1743 126.744Z" fill="url(#paint3_linear_741_46)"/>
<path d="M98.4575 70.3366H154.503C155.297 70.3675 156.081 70.4603 156.854 70.5944L139.961 41.3333C137.361 36.8364 134.071 34.2372 130.678 34H130.627C130.523 34 130.348 34 130.162 34C129.945 34 129.729 34 129.523 34C122.571 34.0928 116.125 35.6709 111.339 38.435L61.8228 67.0257C60.2241 67.954 58.6461 69.0988 57.1196 70.45C57.986 70.3675 58.8833 70.3262 59.8115 70.3262H98.4575V70.3366Z" fill="url(#paint4_linear_741_46)"/>
<path d="M164.456 71.8216L179.782 98.6177C183.021 104.136 189.054 107.581 195.49 107.581C198.708 107.581 201.895 106.714 204.69 105.064C213.354 99.9686 216.262 88.7881 211.178 80.1244L210.435 78.9179C207.083 73.7607 202.834 69.5216 198.512 67.0256L148.995 38.4349C147.397 37.5066 145.612 36.7228 143.684 36.073C144.189 36.7847 144.674 37.5479 145.138 38.3421L164.466 71.8216H164.456Z" fill="url(#paint5_linear_741_46)"/>
</g>
<defs>
<linearGradient id="paint0_linear_741_46" x1="42.9999" y1="129.689" x2="213.681" y2="129.689" gradientUnits="userSpaceOnUse">
<stop stop-color="#FE5000"/>
<stop offset="1" stop-color="#FF8412"/>
</linearGradient>
<linearGradient id="paint1_linear_741_46" x1="43" y1="129.69" x2="213.681" y2="129.69" gradientUnits="userSpaceOnUse">
<stop stop-color="#FE5000"/>
<stop offset="1" stop-color="#FF8412"/>
</linearGradient>
<linearGradient id="paint2_linear_741_46" x1="43" y1="129.69" x2="213.681" y2="129.69" gradientUnits="userSpaceOnUse">
<stop stop-color="#FE5000"/>
<stop offset="1" stop-color="#FF8412"/>
</linearGradient>
<linearGradient id="paint3_linear_741_46" x1="43" y1="129.69" x2="213.681" y2="129.69" gradientUnits="userSpaceOnUse">
<stop stop-color="#FE5000"/>
<stop offset="1" stop-color="#FF8412"/>
</linearGradient>
<linearGradient id="paint4_linear_741_46" x1="43" y1="129.69" x2="213.681" y2="129.69" gradientUnits="userSpaceOnUse">
<stop stop-color="#FE5000"/>
<stop offset="1" stop-color="#FF8412"/>
</linearGradient>
<linearGradient id="paint5_linear_741_46" x1="43" y1="129.689" x2="213.681" y2="129.689" gradientUnits="userSpaceOnUse">
<stop stop-color="#FE5000"/>
<stop offset="1" stop-color="#FF8412"/>
</linearGradient>
<clipPath id="clip0_741_46">
<rect width="256" height="256" fill="white"/>
</clipPath>
</defs>
</svg>
