<svg width="256" height="256" viewBox="0 0 256 256" fill="none" xmlns="http://www.w3.org/2000/svg">
<path d="M256 128.5C256 198.917 198.917 256 128.5 256C58.0837 256 1 198.917 1 128.5C1 58.0837 58.0837 1 128.5 1C198.917 1 256 58.0837 256 128.5Z" fill="black"/>
<path fill-rule="evenodd" clip-rule="evenodd" d="M207.678 156.02C201.962 156.02 196.387 154.327 191.659 151.186C186.895 148.011 183.225 143.494 181.038 138.236C178.85 132.943 178.285 127.156 179.379 121.546C180.508 115.971 183.261 110.819 187.283 106.796C191.306 102.739 196.458 99.9862 202.033 98.8924C207.643 97.7632 213.43 98.3631 218.723 100.516C223.981 102.703 228.497 106.408 231.673 111.172C234.849 115.9 236.507 121.475 236.507 127.192C236.507 134.849 233.473 142.153 228.074 147.587C222.675 152.986 215.336 156.02 207.678 156.02ZM207.678 102.174C202.738 102.174 197.904 103.656 193.776 106.408C189.683 109.125 186.472 113.042 184.566 117.629C182.696 122.181 182.202 127.227 183.155 132.061C184.107 136.895 186.507 141.377 190 144.87C193.493 148.363 197.94 150.728 202.809 151.716C207.643 152.668 212.689 152.174 217.241 150.269C221.828 148.399 225.71 145.188 228.462 141.059C231.214 136.966 232.661 132.132 232.661 127.192C232.661 120.558 230.015 114.207 225.357 109.513C220.664 104.82 214.312 102.209 207.678 102.174Z" fill="#FAFA01"/>
<path d="M201.61 153.338C197.446 158.49 192.082 161.595 186.225 161.595C172.922 161.595 162.054 145.399 162.054 125.498C162.054 105.596 172.922 89.3649 186.225 89.3649C193.176 89.3649 199.422 93.7403 203.833 100.762C204.962 99.986 206.232 99.5978 207.573 99.5625C202.456 90.988 194.764 85.4834 186.225 85.4834C170.84 85.4834 158.208 103.409 158.208 125.463C158.208 147.481 170.805 165.406 186.225 165.406C193.917 165.406 200.904 160.996 205.985 153.797C204.503 154.044 203.021 153.903 201.61 153.338Z" fill="#FAFA01"/>
<path d="M219.076 150.481L216.888 151.928C216.182 152.422 215.371 152.739 214.559 152.88C207.855 164.842 196.74 172.711 184.178 172.711C163.783 172.711 147.198 151.998 147.198 126.557C147.198 101.08 163.783 80.4028 184.178 80.4028C197.022 80.4028 208.42 88.6598 215.053 101.116C216.182 101.186 217.276 101.574 218.194 102.245C219.111 102.845 219.923 103.515 220.664 104.044C213.924 87.7423 200.127 76.5566 184.178 76.5566C161.666 76.5566 143.352 98.9633 143.352 126.557C143.352 154.115 161.666 176.557 184.178 176.557C199.704 176.557 213.254 165.901 220.134 150.234C219.782 150.352 219.429 150.434 219.076 150.481Z" fill="#FAFA01"/>
<path d="M214.383 152.316C210.149 160.009 203.903 166.395 196.387 170.877C188.836 175.358 180.226 177.757 171.44 177.828C144.058 177.828 121.757 154.821 121.757 126.557C121.757 98.258 144.058 75.2515 171.44 75.2515C180.508 75.322 189.4 77.8626 197.093 82.591C204.82 87.3546 211.101 94.1295 215.23 102.175C216.677 101.716 218.229 101.787 219.641 102.386C215.371 93.1768 208.561 85.3786 200.022 79.9092C191.518 74.4399 181.602 71.4758 171.44 71.4053C141.976 71.4053 117.911 96.1408 117.911 126.557C117.911 156.939 141.941 181.674 171.44 181.674C181.637 181.604 191.588 178.604 200.127 173.064C208.702 167.524 215.477 159.656 219.711 150.375C218.123 151.469 216.288 152.104 214.383 152.316Z" fill="#FAFA01"/>
<path d="M169.252 179.592C169.005 179.592 168.723 179.663 168.44 179.663C167.17 179.698 165.9 179.31 164.841 178.604C159.548 182.979 152.95 185.414 146.069 185.555C123.874 185.555 105.843 158.879 105.843 126.063C105.843 93.2823 123.874 66.6061 146.069 66.6061C153.373 66.7119 160.36 69.4642 165.829 74.2984C166.994 73.381 168.44 72.887 169.922 72.887C163.042 66.4649 154.855 62.7246 146.069 62.7246C121.722 62.7246 101.997 91.1299 101.997 126.028C101.997 160.926 121.757 189.366 146.069 189.366C154.679 189.366 162.724 185.767 169.499 179.592H169.252Z" fill="#FAFA01"/>
<path d="M195.152 172.534C194.87 172.628 194.611 172.746 194.376 172.887C193.317 173.522 192.153 173.805 190.918 173.805C179.803 191.73 162.301 203.445 142.647 203.445C109.089 203.445 81.7781 169.5 81.7781 127.792C81.7781 86.0835 109.089 52.1383 142.647 52.1383C161.136 52.1383 177.686 62.4065 188.801 78.6028C190.106 77.9324 191.553 77.7207 193 77.9324C181.144 59.8307 163.007 48.2568 142.647 48.2568C106.972 48.2568 77.9319 83.931 77.9319 127.756C77.9319 171.582 106.972 207.256 142.647 207.256C164.947 207.256 184.602 193.353 196.246 172.252C195.87 172.37 195.505 172.464 195.152 172.534Z" fill="#FAFA01"/>
<path d="M188.307 176.804H188.165C173.381 197.94 149.351 211.702 122.216 211.702C77.3672 211.702 40.8462 174.052 40.8462 127.756C40.8462 81.4964 77.3672 43.8462 122.216 43.8462C149.633 43.8462 173.91 57.9606 188.659 79.4851C190.177 79.2028 191.729 79.3087 193.211 79.7674L193.564 79.9085C178.321 55.914 152.033 40 122.216 40C75.2501 40 37 79.3792 37 127.756C37 176.169 75.2501 215.548 122.216 215.548C151.856 215.548 178.003 199.846 193.282 176.098C191.659 176.557 190 176.804 188.307 176.804Z" fill="#FAFA01"/>
<path d="M205.738 100.905C205.738 100.905 200.621 88.0957 187.813 88.0957C174.969 88.0957 160.889 98.3287 160.889 131.674C160.889 165.019 189.083 163.714 189.083 163.714C189.083 163.714 200.621 158.597 203.197 153.481C203.197 153.481 195.505 154.751 190.353 149.635C185.237 144.483 167.276 108.597 205.738 100.905Z" fill="#FAFA01"/>
<path d="M166.676 73.7685C166.676 73.7685 162.16 65.0176 141.659 65.0176C121.122 65.0176 98.045 103.479 103.197 132.943C108.313 162.442 121.863 185.061 143.282 187.213C143.282 187.213 158.031 185.343 168.441 179.662C168.441 179.662 119.817 173.981 119.817 127.192C119.817 80.4023 166.676 73.7685 166.676 73.7685Z" fill="#FAFA01"/>
</svg>
