<svg width="256" height="256" viewBox="0 0 256 256" fill="none" xmlns="http://www.w3.org/2000/svg">
<g clip-path="url(#clip0_741_46)">
<g clip-path="url(#clip1_741_46)">
<path d="M128 256C198.692 256 256 198.692 256 128C256 57.3076 198.692 0 128 0C57.3076 0 0 57.3076 0 128C0 198.692 57.3076 256 128 256Z" fill="#45CD85"/>
<path d="M111.36 199.424C136.448 199.424 157.696 183.296 165.632 161.024H150.016C143.104 175.36 128.256 185.088 111.36 185.088C87.552 185.088 68.096 165.632 68.096 141.824C68.096 124.928 77.824 110.08 92.16 103.168V87.552C69.888 95.488 53.76 116.736 53.76 141.824C53.76 173.568 79.616 199.424 111.36 199.424ZM107.52 142.592H120.32V110.592H121.344C123.136 110.592 125.184 110.336 126.72 110.336L137.472 142.592H151.552L137.216 107.008C143.872 103.424 148.736 95.232 148.736 84.992C148.736 69.888 139.264 61.696 121.088 61.696H107.52V142.592ZM120.32 99.84V72.704H122.368C131.84 72.704 135.936 76.8 135.936 86.272C135.936 95.488 131.84 99.84 122.368 99.84H120.32ZM175.616 130.048L178.176 109.312C182.272 111.36 184.832 114.432 184.832 119.296C184.832 125.184 181.76 129.536 175.616 130.048ZM165.632 150.016H174.336L175.36 141.312C187.648 140.544 196.096 131.072 196.096 118.528C196.096 109.056 191.488 101.12 180.224 97.024L182.784 74.752C185.856 75.52 189.184 77.056 192.512 79.36V66.56C189.952 65.024 187.136 64 184.32 63.488L185.6 54.272H176.896L176.128 62.976C163.84 64 156.16 72.96 156.16 85.248C156.16 97.28 163.328 104.192 171.264 107.264L168.704 129.024C165.12 128 161.024 126.208 156.416 123.392V136.448C160 138.24 163.584 139.776 166.912 140.544L165.632 150.016ZM173.312 94.72C169.216 92.672 167.424 89.344 167.424 84.736C167.424 78.592 170.24 74.752 175.872 73.984L173.312 94.72Z" fill="white"/>
</g>
</g>
<defs>
<clipPath id="clip0_741_46">
<rect width="256" height="256" fill="white"/>
</clipPath>
<clipPath id="clip1_741_46">
<rect width="256" height="256" fill="white"/>
</clipPath>
</defs>
</svg>
