<svg width="256" height="256" viewBox="0 0 256 256" fill="none" xmlns="http://www.w3.org/2000/svg">
<path d="M128 255C198.14 255 255 198.14 255 128C255 57.8598 198.14 1 128 1C57.8598 1 1 57.8598 1 128C1 198.14 57.8598 255 128 255Z" fill="url(#paint0_linear_1313_7890)"/>
<path fill-rule="evenodd" clip-rule="evenodd" d="M193.229 103.984L131.004 134.103C128.326 135.435 126.738 138.004 126.738 141.007V207.5C126.738 208.193 127.072 208.789 127.66 209.148C128.252 209.507 128.934 209.527 129.545 209.208L191.875 176.538C194.476 175.174 196 172.65 196 169.705V105.71C196.004 105.381 195.923 105.058 195.764 104.77C195.605 104.483 195.374 104.243 195.094 104.073C194.817 103.897 194.5 103.797 194.173 103.781C193.846 103.766 193.521 103.836 193.229 103.984ZM60.3629 163.286V102.217C60.3629 101.492 60.7326 100.869 61.3681 100.524C61.671 100.355 62.0144 100.273 62.3607 100.287C62.7069 100.302 63.0425 100.411 63.3306 100.605L117.873 135.867C120.118 137.319 121.351 139.64 121.351 142.32V209.067C121.356 209.425 121.259 209.778 121.071 210.083C120.884 210.388 120.613 210.633 120.292 210.789C119.975 210.954 119.618 211.024 119.262 210.993C118.906 210.961 118.567 210.829 118.284 210.611L63.4445 169.458C61.4407 167.956 60.3629 165.796 60.3629 163.286ZM178.465 90.2466L169.002 94.3258C168.413 94.5803 168.053 95.1219 168.042 95.7621C168.032 96.0695 168.113 96.3729 168.274 96.6343C168.435 96.8957 168.67 97.1033 168.949 97.231L180.579 102.743C182.231 103.526 183.967 103.53 185.625 102.758L195.081 98.3511C195.659 98.082 196.007 97.5292 196 96.8879C196 96.5801 195.909 96.2792 195.74 96.0229C195.57 95.7666 195.329 95.5663 195.046 95.447L183.19 90.2601C181.627 89.5761 180.03 89.5716 178.465 90.2466ZM177.612 103.612L165.675 97.9553C164.078 97.1962 162.409 97.1671 160.787 97.8667L149.969 102.531C149.39 102.78 149.031 103.307 149.008 103.938C148.986 104.572 149.31 105.122 149.868 105.412L161.54 111.44C163.229 112.311 165.049 112.348 166.769 111.545L177.603 106.497C178.177 106.23 178.52 105.69 178.522 105.056C178.527 104.753 178.444 104.454 178.282 104.198C178.12 103.941 177.887 103.737 177.612 103.612ZM165.281 68.6343L156.159 72.2941C155.87 72.4061 155.62 72.6021 155.442 72.8572C155.265 73.1123 155.167 73.4148 155.161 73.726C155.144 74.3729 155.486 74.9369 156.072 75.2139L165.912 79.8783C167.509 80.6363 169.178 80.6643 170.8 79.9658L179.926 76.0324C180.521 75.7756 180.887 75.2206 180.887 74.5714C180.891 74.2599 180.803 73.9542 180.634 73.6933C180.464 73.4324 180.221 73.2283 179.935 73.107L169.868 68.7027C168.354 68.0412 166.816 68.0188 165.282 68.6355L165.281 68.6343ZM164.36 45.394L155.597 48.6882C154.986 48.9181 154.592 49.4608 154.566 50.1134C154.55 50.4268 154.627 50.7381 154.789 51.0067C154.951 51.2754 155.189 51.4892 155.473 51.6203L163.743 55.538C165.295 56.2724 166.902 56.3229 168.492 55.6838L177.263 52.1653C177.872 51.9197 178.252 51.3669 178.261 50.7087C178.27 50.3938 178.183 50.0836 178.014 49.8187C177.844 49.5538 177.598 49.3465 177.309 49.2242L168.822 45.5139C167.352 44.8703 165.864 44.8322 164.36 45.394ZM147.814 79.1921L139.292 75.1556C137.784 74.4402 136.228 74.3763 134.666 74.9627L124.645 78.7268C124.041 78.9544 123.653 79.4837 123.616 80.125C123.594 80.4338 123.663 80.7421 123.816 81.0112C123.968 81.2802 124.197 81.4978 124.473 81.6365L132.747 85.9096C134.333 86.7281 136.022 86.81 137.678 86.1451L147.726 82.113C148.326 81.8731 148.701 81.3304 148.723 80.6812C148.735 80.3706 148.655 80.0634 148.494 79.7983C148.332 79.5333 148.095 79.3224 147.814 79.1921ZM126.288 60.7552L133.157 64.0114C134.667 64.7267 136.223 64.7929 137.785 64.2065L146.185 61.0512C146.801 60.8169 147.195 60.2641 147.212 59.5992C147.224 59.2814 147.14 58.9674 146.97 58.699C146.8 58.4307 146.552 58.2206 146.261 58.0967L139.187 55.0043C137.754 54.3775 136.308 54.3248 134.833 54.8451L126.438 57.813C126.14 57.9147 125.878 58.1049 125.689 58.3585C125.5 58.6121 125.392 58.9172 125.38 59.2337C125.346 59.893 125.693 60.4727 126.288 60.7552ZM120.442 73.3324L113.341 69.9686C111.869 69.269 110.359 69.1916 108.824 69.7343L99.212 73.1295C98.9177 73.2297 98.6599 73.4162 98.472 73.6648C98.2841 73.9134 98.1746 74.2127 98.1577 74.5243C98.113 75.1724 98.4391 75.7532 99.0143 76.0504L105.887 79.598C107.434 80.3964 109.067 80.4939 110.695 79.8828L120.321 76.2645C120.932 76.0358 121.325 75.492 121.351 74.8371C121.368 74.5236 121.29 74.2123 121.128 73.9439C120.965 73.6754 120.726 73.4623 120.442 73.3324ZM141.02 87.7608L130.59 91.9453C129.998 92.1842 129.623 92.7112 129.595 93.3514C129.576 93.6572 129.648 93.9618 129.8 94.227C129.953 94.4922 130.18 94.7064 130.454 94.8427L140.314 99.9332C141.949 100.776 143.696 100.838 145.385 100.11L155.838 95.6051C156.425 95.3517 156.788 94.8113 156.799 94.1699C156.808 93.8623 156.727 93.5588 156.565 93.2976C156.403 93.0363 156.167 92.8288 155.889 92.7011L145.769 87.9066C144.22 87.1721 142.61 87.1228 141.02 87.7608ZM104.526 84.3096L97.4372 80.6498C95.9294 79.8705 94.34 79.7628 92.7405 80.3268L81.8147 84.1885C81.2116 84.3993 80.8139 84.9139 80.7592 85.5508C80.7045 86.1899 81.0049 86.7618 81.5589 87.078L88.3811 90.9429C89.965 91.8399 91.6873 91.9779 93.3917 91.3376L104.357 87.217C104.958 86.9927 105.346 86.4624 105.384 85.8188C105.406 85.5102 105.336 85.2021 105.183 84.9335C105.031 84.6648 104.802 84.4477 104.526 84.3096ZM141.853 106.026L129.541 111.335C129.267 111.449 129.032 111.639 128.862 111.883C128.693 112.127 128.596 112.415 128.584 112.712C128.551 113.332 128.85 113.882 129.388 114.186L141.038 120.79C142.76 121.769 144.675 121.844 146.469 121.007L158.832 115.244C159.395 114.982 159.736 114.457 159.75 113.832C159.759 113.534 159.682 113.239 159.53 112.982C159.377 112.725 159.155 112.518 158.889 112.384L146.923 106.206C145.29 105.361 143.543 105.302 141.852 106.027L141.853 106.026ZM124.016 96.686L112.154 101.445C111.573 101.678 111.202 102.193 111.161 102.818C111.138 103.118 111.201 103.419 111.343 103.684C111.485 103.948 111.7 104.167 111.963 104.312L121.782 109.875C123.452 110.823 125.294 110.924 127.056 110.162L138.969 105.029C139.548 104.779 139.907 104.25 139.93 103.62C139.944 103.317 139.87 103.017 139.718 102.755C139.565 102.494 139.339 102.283 139.069 102.148L128.946 96.9226C127.36 96.1007 125.674 96.0211 124.016 96.686ZM103.999 104.718L90.5804 110.103C90.3054 110.208 90.066 110.39 89.89 110.627C89.714 110.864 89.6087 111.146 89.5863 111.441C89.5349 112.054 89.8097 112.607 90.328 112.934L100.027 119.02C101.733 120.09 103.68 120.24 105.531 119.444L119.042 113.617C119.612 113.373 119.967 112.861 120.003 112.241C120.023 111.944 119.958 111.647 119.815 111.386C119.673 111.125 119.459 110.91 119.198 110.767L109.133 105.062C107.509 104.142 105.73 104.024 103.999 104.718ZM107.707 88.1521L96.3091 92.432C95.7183 92.6551 95.334 93.1686 95.286 93.8021C95.2581 94.1046 95.3189 94.4087 95.461 94.6769C95.6031 94.945 95.8203 95.1656 96.0857 95.3114L104.309 99.9724C105.935 100.892 107.711 101.014 109.444 100.32L120.887 95.7262C121.479 95.4908 121.854 94.9604 121.884 94.3224C121.902 94.0167 121.831 93.7123 121.678 93.447C121.526 93.1818 121.299 92.9676 121.026 92.8311L112.515 88.4347C110.97 87.6363 109.336 87.541 107.707 88.1521ZM121.527 114.789L107.575 120.803C107.306 120.915 107.074 121.099 106.905 121.336C106.736 121.573 106.637 121.853 106.618 122.144C106.592 122.435 106.648 122.727 106.778 122.987C106.909 123.248 107.111 123.466 107.359 123.618L118.906 130.861C120.662 131.964 122.685 132.09 124.564 131.213L138.613 124.668C138.88 124.548 139.107 124.354 139.269 124.11C139.431 123.866 139.521 123.58 139.529 123.287C139.544 122.994 139.477 122.702 139.335 122.445C139.193 122.188 138.981 121.977 138.725 121.836L126.8 115.077C125.13 114.131 123.291 114.031 121.528 114.79L121.527 114.789ZM74.8562 103.23L82.9618 108.314C84.6227 109.356 86.5058 109.524 88.3231 108.793L101.29 103.592C101.87 103.358 102.241 102.846 102.284 102.219C102.307 101.919 102.244 101.618 102.101 101.353C101.959 101.088 101.743 100.871 101.479 100.726L93.0354 95.9415C91.4505 95.0411 89.7293 94.9066 88.0248 95.5457L75.1421 100.386C74.5613 100.605 74.1816 101.102 74.1201 101.719C74.0587 102.336 74.3324 102.899 74.8562 103.23ZM73.4087 87.1609L61.0621 91.5249C60.4701 91.7312 60.0792 92.2279 60.0122 92.8502C59.9747 93.1489 60.0242 93.4522 60.1549 93.7232C60.2855 93.9943 60.4916 94.2215 60.7482 94.3774L67.4532 98.5843C69.0772 99.6013 70.9011 99.7863 72.6938 99.1136L85.1041 94.4525C85.696 94.2282 86.0814 93.7147 86.1305 93.0845C86.1589 92.7815 86.098 92.4767 85.9554 92.208C85.8129 91.9393 85.5949 91.7186 85.3286 91.5731L78.3109 87.5926C76.7617 86.7147 75.0885 86.5667 73.4087 87.1609Z" fill="white"/>
<defs>
<linearGradient id="paint0_linear_1313_7890" x1="38" y1="38" x2="218" y2="218" gradientUnits="userSpaceOnUse">
<stop stop-color="#454545"/>
</linearGradient>
</defs>
</svg>
