<svg width="256" height="256" viewBox="0 0 256 256" fill="none" xmlns="http://www.w3.org/2000/svg">
<g clip-path="url(#clip0_741_46)">
<path d="M128 1C198.147 1 255 57.8648 255 128C255 198.147 198.147 255 128 255C57.8648 255 1 198.141 1 128C1 57.8648 57.8648 1 128 1Z" fill="#F5AC37"/>
<path d="M132.681 136.967H180.939C181.967 136.967 182.453 136.967 182.527 135.618C182.922 130.709 182.922 125.771 182.527 120.856C182.527 119.902 182.053 119.507 181.019 119.507H84.977C83.7883 119.507 83.4683 119.902 83.4683 121.016V135.144C83.4683 136.967 83.4683 136.967 85.3714 136.967H132.681ZM177.138 102.997C177.275 102.637 177.275 102.242 177.138 101.888C176.332 100.133 175.378 98.4589 174.269 96.8873C172.6 94.2012 170.634 91.7266 168.394 89.5034C167.337 88.1604 166.114 86.9545 164.742 85.9315C157.873 80.085 149.706 75.9473 140.927 73.867C136.498 72.8726 131.972 72.3983 127.434 72.4383H84.8113C83.6226 72.4383 83.4626 72.9126 83.4626 73.9471V102.122C83.4626 103.311 83.4626 103.631 84.9713 103.631H176.567C176.567 103.631 177.361 103.471 177.521 102.997H177.132H177.138ZM177.138 153.478C175.789 153.329 174.429 153.329 173.08 153.478H85.0571C83.8683 153.478 83.4683 153.478 83.4683 155.067V182.613C83.4683 183.882 83.4683 184.202 85.0571 184.202H125.697C127.64 184.351 129.583 184.213 131.486 183.808C137.384 183.385 143.185 182.105 148.717 179.996C150.729 179.298 152.672 178.39 154.506 177.298H155.061C164.588 172.343 172.326 164.559 177.207 155.004C177.207 155.004 177.761 153.804 177.138 153.489V153.478ZM67.5175 198.484V198.01V179.516V173.246V154.592C67.5175 153.558 67.5175 153.404 66.2488 153.404H49.0236C48.0692 153.404 47.6749 153.404 47.6749 152.135V137.053H66.0888C67.1175 137.053 67.5175 137.053 67.5175 135.704V120.782C67.5175 119.828 67.5175 119.593 66.2488 119.593H49.0236C48.0692 119.593 47.6749 119.593 47.6749 118.324V104.357C47.6749 103.482 47.6749 103.248 48.9436 103.248H66.0088C67.1975 103.248 67.5175 103.248 67.5175 101.739V58.9565C67.5175 57.6877 67.5175 57.3677 69.1063 57.3677H128.634C132.955 57.5391 137.247 58.0135 141.493 58.7964C150.243 60.4138 158.65 63.5399 166.337 68.0034C171.434 71.0038 176.126 74.6272 180.304 78.7991C183.447 82.0624 186.282 85.5943 188.797 89.3549C191.294 93.1668 193.369 97.2416 194.998 101.499C195.198 102.608 196.261 103.357 197.369 103.168H211.577C213.4 103.168 213.4 103.168 213.48 104.917V117.936C213.48 119.205 213.006 119.525 211.731 119.525H200.776C199.667 119.525 199.347 119.525 199.427 120.953C199.861 125.788 199.861 130.64 199.427 135.475C199.427 136.824 199.427 136.984 200.941 136.984H213.474C214.029 137.699 213.474 138.413 213.474 139.133C213.554 140.053 213.554 140.985 213.474 141.905V151.512C213.474 152.861 213.08 153.261 211.886 153.261H196.884C195.838 153.061 194.82 153.729 194.58 154.769C191.008 164.056 185.293 172.383 177.91 179.058C175.212 181.487 172.377 183.773 169.417 185.882C166.239 187.711 163.148 189.614 159.89 191.123C153.895 193.82 147.608 195.809 141.156 197.072C135.03 198.17 128.817 198.667 122.582 198.581H67.4947V198.501L67.5175 198.484Z" fill="#FEFEFD"/>
</g>
<defs>
<clipPath id="clip0_741_46">
<rect width="254" height="254" fill="white" transform="translate(1 1)"/>
</clipPath>
</defs>
</svg>
