<svg width="256" height="256" viewBox="0 0 256 256" fill="none" xmlns="http://www.w3.org/2000/svg">
<mask id="mask0_741_46" style="mask-type:luminance" maskUnits="userSpaceOnUse" x="1" y="1" width="254" height="255">
<path d="M1 1H254.781V255.666H1V1Z" fill="white"/>
</mask>
<g mask="url(#mask0_741_46)">
<path d="M254.781 128.333C254.781 198.657 197.971 255.666 127.891 255.666C57.8107 255.666 1 198.657 1 128.333C1 58.0086 57.8107 1 127.891 1C197.971 1 254.781 58.0086 254.781 128.333Z" fill="#8150E6"/>
</g>
<path d="M250.039 162.927L159.7 73.7185L108.221 64.0732L78.0933 177.836L154.113 252.937C200.364 243.184 237.342 208.163 250.039 162.927Z" fill="#3C176B"/>
<path d="M116.937 167.863V97.4694H134.666C140.625 97.4694 146.097 98.2281 151.084 99.7463C156.068 101.264 160.385 103.626 164.033 106.831C164.534 107.27 165.016 107.732 165.487 108.209C165.548 98.6671 162.104 89.1581 157.231 80.5591C151.823 79.024 146.256 78.2422 140.524 78.2422H97.5116V167.775C104.049 167.85 110.432 168.383 116.937 167.863Z" fill="#6B42BD"/>
<path d="M191.398 111.553C188.315 104.077 184.203 97.8653 179.065 92.9162C173.924 87.9698 168.016 84.2887 161.336 81.8694C159.979 81.3779 158.609 80.9505 157.231 80.5596C162.104 89.1585 165.548 98.6675 165.487 108.209C168.445 111.208 170.335 122.833 172.11 127.294L116.936 177.838V167.864C110.432 168.384 104.048 167.85 97.5123 167.775V197.065H138.211C144.787 197.065 151.493 195.858 158.329 193.439C165.164 191.022 171.38 187.367 176.983 182.476C182.584 177.585 187.158 171.402 190.704 163.923C194.25 156.447 196.023 147.593 196.023 137.36C196.023 127.24 194.482 119.032 191.398 111.553Z" fill="#9B74EC"/>
<path d="M112.007 158.584C118.07 158.584 123.8 157.825 129.195 156.307C134.591 154.788 139.293 152.427 143.302 149.223C147.31 146.019 150.47 141.86 152.783 136.742C155.095 131.627 156.251 125.416 156.251 118.105C156.251 110.911 155.223 105.315 153.168 100.141C151.111 94.9705 148.259 90.781 144.612 87.5763C140.962 84.3716 136.646 82.0102 131.662 80.4929C126.676 78.9747 121.203 78.216 115.244 78.216H97.5153V158.584H112.007ZM78.0903 58.9888H121.102C128.295 58.9888 135.232 60.198 141.915 62.6146C148.594 65.034 154.502 68.715 159.643 73.6623C164.782 78.6114 168.894 84.8222 171.976 92.2983C175.06 99.7771 176.601 107.986 176.601 118.105C176.601 128.338 174.828 137.192 171.282 144.669C167.736 152.148 163.162 158.33 157.562 163.222C151.959 168.113 145.742 171.767 138.908 174.184C132.071 176.603 125.366 177.811 118.789 177.811H78.0903V58.9888Z" fill="white"/>
</svg>
