<svg width="256" height="256" viewBox="0 0 256 256" fill="none" xmlns="http://www.w3.org/2000/svg">
<g clip-path="url(#clip0_741_46)">
<path d="M256 128C256 198.692 198.692 256 128 256C57.3075 256 0 198.692 0 128C0 57.3075 57.3075 0 128 0C198.692 0 256 57.3075 256 128Z" fill="#1B1B28"/>
<path d="M163.408 53L56 203.74H88.7667L196.55 53H163.408Z" fill="white"/>
<path d="M92.41 53L124.084 97.425L107.336 121.448L58.9036 53H92.41Z" fill="url(#paint0_linear_741_46)"/>
<path d="M166.323 203.74L131.37 154.59L147.753 130.92L199.454 203.74H166.323Z" fill="url(#paint1_linear_741_46)"/>
</g>
<defs>
<linearGradient id="paint0_linear_741_46" x1="80.6989" y1="64.2725" x2="125.121" y2="117.434" gradientUnits="userSpaceOnUse">
<stop stop-color="white"/>
<stop offset="1" stop-color="white" stop-opacity="0.549"/>
</linearGradient>
<linearGradient id="paint1_linear_741_46" x1="174.462" y1="191.094" x2="119.48" y2="116.085" gradientUnits="userSpaceOnUse">
<stop stop-color="#6966FF"/>
<stop offset="1" stop-color="#6966FF" stop-opacity="0.3608"/>
</linearGradient>
<clipPath id="clip0_741_46">
<rect width="256" height="256" fill="white"/>
</clipPath>
</defs>
</svg>
