<svg width="216" height="216" viewBox="0 0 216 216" fill="none" xmlns="http://www.w3.org/2000/svg">
<circle cx="108" cy="108" r="108" fill="#24201F"/>
<mask id="mask0_65_805" style="mask-type:luminance" maskUnits="userSpaceOnUse" x="8" y="8" width="201" height="200">
<path d="M208.054 8H8V208H208.054V8Z" fill="white"/>
</mask>
<g mask="url(#mask0_65_805)">
<path d="M18.8506 132.728C14.3756 128.254 11.3745 123.086 9.84728 117.226C8.35559 111.331 8.35559 105.436 9.84728 99.541C11.3745 93.6102 14.3578 88.4252 18.7973 83.986C23.3079 79.4757 28.511 76.4748 34.4068 74.9832C40.3025 73.4916 46.1982 73.4916 52.0939 74.9832C57.9896 76.4748 63.175 79.458 67.65 83.9328L78.7311 95.0131L95.1396 78.6056L84.0584 67.5253C79.5834 63.0506 76.5822 57.8833 75.055 52.0235C73.5633 46.1282 73.5457 40.2507 75.0019 34.3909C76.4936 28.4956 79.4947 23.2928 84.0053 18.7825C88.4803 14.3078 93.6657 11.3247 99.5614 9.83309C105.457 8.34151 111.335 8.35922 117.195 9.88631C123.091 11.3779 128.276 14.3611 132.752 18.8359C137.227 23.3106 140.21 28.4956 141.702 34.3909C143.229 40.2507 143.246 46.1282 141.755 52.0235C140.299 57.9543 137.333 63.1571 132.858 67.6319L121.83 78.6589L138.185 95.0131L149.213 83.986C153.688 79.5112 158.856 76.5103 164.716 74.9832C170.612 73.4916 176.49 73.5093 182.35 75.0364C188.246 76.528 193.449 79.529 197.959 84.0393C202.434 88.514 205.418 93.699 206.909 99.5943C208.437 105.454 208.437 111.313 206.909 117.173C205.418 123.069 202.434 128.254 197.959 132.728C193.449 137.239 188.246 140.239 182.35 141.731C176.49 143.187 170.612 143.169 164.716 141.678C158.891 140.186 153.742 137.203 149.266 132.728L138.239 121.701L121.83 138.109L132.858 149.136C137.333 153.61 140.299 158.778 141.755 164.637C143.246 170.533 143.246 176.428 141.755 182.323C140.263 188.219 137.262 193.421 132.752 197.932C128.312 202.371 123.126 205.354 117.195 206.881C111.3 208.373 105.404 208.373 99.5081 206.881C93.6834 205.39 88.5335 202.406 84.0584 197.932C79.5478 193.421 76.5291 188.236 75.0019 182.377C73.5102 176.481 73.5102 170.586 75.0019 164.691C76.5646 158.795 79.5657 153.628 84.0053 149.189L95.1396 138.055L78.7844 121.701L67.65 132.835C63.2105 137.274 58.0073 140.239 52.0406 141.731C46.1449 143.223 40.2492 143.223 34.3535 141.731C28.4933 140.204 23.3257 137.203 18.8506 132.728ZM32.1692 119.411C34.1936 121.435 36.5377 122.784 39.2014 123.459C41.9007 124.169 44.5822 124.187 47.2459 123.512C49.9096 122.838 52.2537 121.488 54.2781 119.464L65.4125 108.33L54.3314 97.2504C52.3069 95.2261 49.9451 93.8944 47.2459 93.2551C44.5822 92.5804 41.9185 92.5804 39.2547 93.2551C36.591 93.9299 34.2291 95.2971 32.1692 97.3569C30.1448 99.3812 28.7774 101.707 28.0671 104.335C27.3923 106.999 27.3923 109.662 28.0671 112.326C28.7774 115.025 30.1448 117.386 32.1692 119.411ZM97.3772 54.2076L108.458 65.2879L119.486 54.2609C121.546 52.2011 122.896 49.8572 123.535 47.2292C124.21 44.5656 124.192 41.8843 123.482 39.1852C122.807 36.5217 121.457 34.1778 119.433 32.1535C117.408 30.1292 115.064 28.7797 112.401 28.1049C109.737 27.4302 107.073 27.4302 104.409 28.1049C101.781 28.7442 99.4371 30.0937 97.3772 32.1535C95.3527 34.1778 93.9676 36.5217 93.2218 39.1852C92.5469 41.8488 92.5469 44.5123 93.2218 47.1758C93.9676 49.8394 95.3527 52.1833 97.3772 54.2076ZM148.437 108.384L159.465 119.411C161.489 121.435 163.816 122.802 166.444 123.512C169.108 124.187 174.874 124.169 177.502 123.459C180.166 122.784 182.527 121.417 184.587 119.357C186.647 117.298 187.997 114.954 188.636 112.326C189.347 109.698 189.365 107.052 188.69 104.389C188.015 101.725 186.665 99.3812 184.641 97.3569C182.581 95.2971 180.219 93.9299 177.555 93.2551C174.891 92.5804 169.108 92.5804 166.444 93.2551C163.851 93.9299 161.525 95.2971 159.465 97.3569L148.437 108.384ZM97.3772 184.614C99.4016 186.638 101.746 187.988 104.409 188.663C107.073 189.337 109.719 189.319 112.347 188.609C115.011 187.934 117.355 186.585 119.379 184.561C121.439 182.501 122.807 180.139 123.482 177.476C124.192 174.848 124.21 172.202 123.535 169.538C122.896 166.839 121.564 164.478 119.539 162.453L108.512 151.426L97.3772 162.56C95.3527 164.584 93.9852 166.91 93.2749 169.538C92.6001 172.202 92.6001 174.865 93.2749 177.529C93.9497 180.192 95.3172 182.554 97.3772 184.614ZM92.103 108.384L108.458 124.738L124.867 108.33L108.512 91.9766L92.103 108.384Z" fill="#F1E1D4"/>
</g>
</svg>
