<svg width="201" height="200" viewBox="0 0 201 200" fill="none" xmlns="http://www.w3.org/2000/svg">
<circle cx="100" cy="100" r="100" fill="black"/>
<mask id="mask0_65_805" style="mask-type:luminance" maskUnits="userSpaceOnUse" x="0" y="0" width="201" height="200">
<path d="M200.054 0H0V200H200.054V0Z" fill="white"/>
</mask>
<g mask="url(#mask0_65_805)">
<path d="M10.8506 124.728C6.37562 120.254 3.37448 115.086 1.84728 109.226C0.355595 103.331 0.355594 97.4363 1.84728 91.541C3.37448 85.6102 6.35781 80.4252 10.7973 75.986C15.3079 71.4757 20.511 68.4748 26.4068 66.9832C32.3025 65.4916 38.1982 65.4916 44.0939 66.9832C49.9896 68.4748 55.175 71.458 59.65 75.9328L70.7311 87.0131L87.1396 70.6056L76.0584 59.5253C71.5834 55.0506 68.5822 49.8833 67.055 44.0235C65.5633 38.1282 65.5457 32.2507 67.0019 26.3909C68.4936 20.4956 71.4947 15.2928 76.0053 10.7825C80.4803 6.30779 85.6657 3.32467 91.5614 1.83309C97.4571 0.341507 103.335 0.359215 109.195 1.88631C115.091 3.37789 120.276 6.36111 124.752 10.8359C129.227 15.3106 132.21 20.4956 133.702 26.3909C135.229 32.2507 135.246 38.1282 133.755 44.0235C132.299 49.9543 129.333 55.1571 124.858 59.6319L113.83 70.6589L130.185 87.0131L141.213 75.986C145.688 71.5112 150.856 68.5103 156.716 66.9832C162.612 65.4916 168.49 65.5093 174.35 67.0364C180.246 68.528 185.449 71.529 189.959 76.0393C194.434 80.514 197.418 85.699 198.909 91.5943C200.437 97.4541 200.437 103.313 198.909 109.173C197.418 115.069 194.434 120.254 189.959 124.728C185.449 129.239 180.246 132.239 174.35 133.731C168.49 135.187 162.612 135.169 156.716 133.678C150.891 132.186 145.742 129.203 141.266 124.728L130.239 113.701L113.83 130.109L124.858 141.136C129.333 145.61 132.299 150.778 133.755 156.637C135.246 162.533 135.246 168.428 133.755 174.323C132.263 180.219 129.262 185.421 124.752 189.932C120.312 194.371 115.126 197.354 109.195 198.881C103.3 200.373 97.4038 200.373 91.5081 198.881C85.6834 197.39 80.5335 194.406 76.0584 189.932C71.5478 185.421 68.5291 180.236 67.0019 174.377C65.5102 168.481 65.5102 162.586 67.0019 156.691C68.5646 150.795 71.5657 145.628 76.0053 141.189L87.1396 130.055L70.7844 113.701L59.65 124.835C55.2105 129.274 50.0073 132.239 44.0406 133.731C38.1449 135.223 32.2492 135.223 26.3535 133.731C20.4933 132.204 15.3257 129.203 10.8506 124.728ZM24.1692 111.411C26.1936 113.435 28.5377 114.784 31.2014 115.459C33.9007 116.169 36.5822 116.187 39.2459 115.512C41.9096 114.838 44.2537 113.488 46.2781 111.464L57.4125 100.33L46.3314 89.2504C44.3069 87.2261 41.9451 85.8944 39.2459 85.2551C36.5822 84.5804 33.9185 84.5804 31.2547 85.2551C28.591 85.9299 26.2291 87.2971 24.1692 89.3569C22.1448 91.3812 20.7774 93.7074 20.0671 96.3355C19.3923 98.999 19.3923 101.662 20.0671 104.326C20.7774 107.025 22.1448 109.386 24.1692 111.411ZM89.3772 46.2076L100.458 57.2879L111.486 46.2609C113.546 44.2011 114.896 41.8572 115.535 39.2292C116.21 36.5656 116.192 33.8843 115.482 31.1852C114.807 28.5217 113.457 26.1778 111.433 24.1535C109.408 22.1292 107.064 20.7797 104.401 20.1049C101.737 19.4302 99.0731 19.4302 96.4094 20.1049C93.7812 20.7442 91.4371 22.0937 89.3772 24.1535C87.3527 26.1778 85.9676 28.5217 85.2218 31.1852C84.5469 33.8488 84.5469 36.5123 85.2218 39.1758C85.9676 41.8394 87.3527 44.1833 89.3772 46.2076ZM140.437 100.384L151.465 111.411C153.489 113.435 155.816 114.802 158.444 115.512C161.108 116.187 166.874 116.169 169.502 115.459C172.166 114.784 174.527 113.417 176.587 111.357C178.647 109.298 179.997 106.954 180.636 104.326C181.347 101.698 181.365 99.0522 180.69 96.3887C180.015 93.7251 178.665 91.3812 176.641 89.3569C174.581 87.2971 172.219 85.9299 169.555 85.2551C166.891 84.5804 161.108 84.5804 158.444 85.2551C155.851 85.9299 153.525 87.2971 151.465 89.3569L140.437 100.384ZM89.3772 176.614C91.4016 178.638 93.7457 179.988 96.4094 180.663C99.0731 181.337 101.719 181.319 104.347 180.609C107.011 179.934 109.355 178.585 111.379 176.561C113.439 174.501 114.807 172.139 115.482 169.476C116.192 166.848 116.21 164.202 115.535 161.538C114.896 158.839 113.564 156.478 111.539 154.453L100.512 143.426L89.3772 154.56C87.3527 156.584 85.9852 158.91 85.2749 161.538C84.6001 164.202 84.6001 166.865 85.2749 169.529C85.9497 172.192 87.3172 174.554 89.3772 176.614ZM84.103 100.384L100.458 116.738L116.867 100.33L100.512 83.9766L84.103 100.384Z" fill="#F1E1D4"/>
</g>
</svg>
