<svg width="256" height="256" viewBox="0 0 256 256" fill="none" xmlns="http://www.w3.org/2000/svg">
<g clip-path="url(#clip0_1320_47)">
<path d="M128 256C198.692 256 256 198.692 256 128C256 57.3075 198.692 0 128 0C57.3075 0 0 57.3075 0 128C0 198.692 57.3075 256 128 256Z" fill="#7B5BFC"/>
<path d="M128 256C198.692 256 256 198.692 256 128C256 57.3075 198.692 0 128 0C57.3075 0 0 57.3075 0 128C0 198.692 57.3075 256 128 256Z" fill="url(#paint0_linear_1320_47)"/>
<path d="M125.428 60.9531C102.189 60.9531 81.5624 71.9032 68.625 88.8344C77.436 82.408 88.3536 78.6007 100.185 78.6007C129.414 78.6007 153.104 101.825 153.104 130.474C153.104 159.121 129.414 182.346 100.185 182.346C88.3536 182.346 77.436 178.541 68.625 172.113C81.5616 189.039 102.188 199.994 125.428 199.994C164.6 199.994 196.358 168.862 196.358 130.475C196.358 92.08 164.6 60.9531 125.428 60.9531Z" fill="white"/>
<path d="M89.588 130.597C89.588 114.571 102.844 101.58 119.189 101.58C121.622 101.58 123.986 101.873 126.247 102.417C119.31 96.1482 110.047 92.313 99.8648 92.313C78.3647 92.313 60.9375 109.396 60.9375 130.469C60.9375 151.539 78.3647 168.624 99.8648 168.624C109.865 168.624 118.978 164.928 125.873 158.855C123.722 159.342 121.489 159.605 119.189 159.605C102.844 159.606 89.588 146.623 89.588 130.597Z" fill="white"/>
</g>
<defs>
<linearGradient id="paint0_linear_1320_47" x1="18.4971" y1="-9.84616" x2="287.721" y2="30.4892" gradientUnits="userSpaceOnUse">
<stop offset="0.242717" stop-color="#7A5AFB"/>
</linearGradient>
<clipPath id="clip0_1320_47">
<rect width="256" height="256" fill="white"/>
</clipPath>
</defs>
</svg>
