<svg width="256" height="256" viewBox="0 0 256 256" fill="none" xmlns="http://www.w3.org/2000/svg">
<g clip-path="url(#clip0_2853_14)">
<path d="M128 256C198.692 256 256 198.692 256 128C256 57.3075 198.692 0 128 0C57.3075 0 0 57.3075 0 128C0 198.692 57.3075 256 128 256Z" fill="white"/>
<path d="M138.568 70.2V51H119.368V70.2H138.568Z" fill="#1A0C6D"/>
<path d="M99.4004 127.8V51H61.0004L61.0004 127.8H99.4004Z" fill="#1A0C6D"/>
<path d="M99.4004 204.6V127.8H61.0004L61.0004 204.6H99.4004Z" fill="#1A0C6D"/>
<path d="M176.199 127.8V89.3999H156.999V127.8H176.199Z" fill="#1A0C6D"/>
<path d="M157 204.6V166.2H137.8V204.6H157Z" fill="#1A0C6D"/>
<path d="M176.199 204.6V166.2H156.999V204.6H176.199Z" fill="#1A0C6D"/>
<path d="M118.6 204.6V166.2H99.3996V204.6H118.6Z" fill="#1A0C6D"/>
<path d="M195.4 89.4V51H176.2V89.4H195.4Z" fill="#1A0C6D"/>
<path d="M157 127.8V51H137.8V127.8H157Z" fill="#1A0C6D"/>
<path d="M137.801 204.6V127.8H118.601V204.6H137.801Z" fill="#1A0C6D"/>
</g>
<defs>
<clipPath id="clip0_2853_14">
<rect width="256" height="256" fill="white"/>
</clipPath>
</defs>
</svg>
