<svg width="256" height="256" viewBox="0 0 256 256" fill="none" xmlns="http://www.w3.org/2000/svg">
<g clip-path="url(#clip0_741_46)">
<path d="M256 128C256 198.692 198.692 256 128 256C57.3075 256 0 198.692 0 128C0 57.3075 57.3075 0 128 0C198.692 0 256 57.3075 256 128Z" fill="#171717"/>
<path fill-rule="evenodd" clip-rule="evenodd" d="M155.064 97C146.563 97 138.839 100.465 133.272 106.04L103.255 136.098H114.263L124.344 126.003L138.789 111.539C142.976 107.371 148.719 104.784 155.089 104.784C167.803 104.784 178.159 115.155 178.159 127.887C178.159 140.618 167.803 150.989 155.089 150.989C145.986 150.989 138.137 145.69 134.375 138.006L128.633 143.757C134.024 152.747 143.829 158.798 155.064 158.798C172.091 158.798 185.908 144.962 185.908 127.912C185.908 110.861 172.116 97 155.064 97ZM122.636 149.734C117.07 155.308 109.346 158.774 100.845 158.774C83.8174 158.774 70 144.937 70 127.887C70 110.836 83.8174 97 100.845 97C112.079 97 121.884 103.027 127.301 112.016L121.558 117.767C117.797 110.083 109.948 104.784 100.845 104.784C88.1306 104.784 77.7488 115.155 77.7488 127.887C77.7488 140.618 88.1056 150.989 100.819 150.989C107.189 150.989 112.932 148.402 117.12 144.234L131.564 129.77L141.645 119.675H152.654L122.636 149.734Z" fill="url(#paint0_linear_741_46)"/>
</g>
<defs>
<linearGradient id="paint0_linear_741_46" x1="70" y1="128.458" x2="523.884" y2="280.461" gradientUnits="userSpaceOnUse">
<stop stop-color="#00E8C2"/>
<stop offset="1" stop-color="#6A2AFF"/>
</linearGradient>
<clipPath id="clip0_741_46">
<rect width="256" height="256" fill="white"/>
</clipPath>
</defs>
</svg>
