<svg width="48" height="48" viewBox="0 0 48 48" fill="none" xmlns="http://www.w3.org/2000/svg">
<g clip-path="url(#clip0_5941_7943)">
<path fill-rule="evenodd" clip-rule="evenodd" d="M0 24C0 37.2549 10.7452 48 24 48V0C10.7452 0 0 10.7452 0 24Z" fill="#10B981"/>
<path d="M24 48C37.2549 48 48 37.2549 48 24C48 10.7452 37.2549 0 24 0V48Z" fill="#6366F1"/>
<path d="M23.997 6V19.305L35.2426 24.33L23.997 6Z" fill="white" fill-opacity="0.602"/>
<path d="M23.997 6L12.75 24.33L23.997 19.305V6Z" fill="white"/>
<path d="M23.997 32.952V41.9924L35.2498 26.424L23.997 32.952Z" fill="white" fill-opacity="0.602"/>
<path d="M23.997 41.9924V32.9504L12.75 26.424L23.997 41.9924Z" fill="white"/>
<path d="M23.997 30.8595L35.2426 24.33L23.997 19.308V30.8595Z" fill="white" fill-opacity="0.2"/>
<path d="M12.75 24.33L23.997 30.8595V19.308L12.75 24.33Z" fill="white" fill-opacity="0.602"/>
</g>
<defs>
<clipPath id="clip0_5941_7943">
<rect width="48" height="48" fill="white"/>
</clipPath>
</defs>
</svg>
