<svg width="256" height="256" viewBox="0 0 256 256" fill="none" xmlns="http://www.w3.org/2000/svg">
<g clip-path="url(#clip0_2815_2)">
<path fill-rule="evenodd" clip-rule="evenodd" d="M128 0C198.693 0 256 57.3074 256 128C256 198.693 198.693 256 128 256C57.3074 256 0 198.693 0 128C0 57.3074 57.3074 0 128 0Z" fill="#2775CA"/>
<path fill-rule="evenodd" clip-rule="evenodd" d="M157.246 37.8702C154.36 36.9481 152 38.6612 152 41.6916V49.1442C152 51.1761 153.531 53.4887 155.439 54.1879C186.076 65.4092 208 94.8573 208 129.334C208 163.811 186.076 193.258 155.439 204.479C153.347 205.246 152 207.295 152 209.524V216.976C152 220.006 154.36 221.719 157.246 220.797C195.964 208.427 224 172.155 224 129.334C224 86.5132 195.964 50.2405 157.246 37.8702Z" fill="white"/>
<path fill-rule="evenodd" clip-rule="evenodd" d="M104 41.6916C104 38.6612 101.64 36.9481 98.7537 37.8702C60.036 50.2405 32 86.5127 32 129.334C32 172.155 60.036 208.427 98.7537 220.797C101.64 221.719 104 220.006 104 216.976V209.524C104 207.491 102.469 205.178 100.561 204.479C69.9241 193.258 48 163.81 48 129.334C48 94.8578 69.9241 65.4092 100.561 54.1879C102.469 53.4887 104 51.1761 104 49.1442V41.6916Z" fill="white"/>
<path d="M160.735 154.313L153.413 151.042C151.801 150.322 149.899 150.996 149.119 152.58C145.663 159.594 139.919 164.063 132.332 164.063C125.462 164.063 119.952 160.7 115.73 153.902C114.079 151.271 112.768 148.335 111.769 145.119H131.431C132.678 145.119 133.818 144.417 134.38 143.305L139.071 136.972C140.181 134.775 138.584 132.18 136.123 132.18H109.556C109.479 130.818 109.433 129.429 109.433 127.998C109.418 126.578 109.458 125.189 109.532 123.819H131.431C132.678 123.819 133.818 123.118 134.38 122.005L139.072 115.673C140.181 113.476 138.584 110.881 136.123 110.881H111.745C115.311 99.2558 122.754 91.6394 132.332 91.789C139.629 91.789 145.295 95.7846 148.929 102.328C149.744 103.795 151.577 104.357 153.112 103.68L160.471 100.43C162.232 99.653 162.981 97.5236 162.049 95.8393C155.255 83.5691 145.35 77.4058 132.332 77.4058C120.453 77.4058 110.935 82.1286 103.708 91.5029C99.4837 97.024 96.5432 103.502 94.7982 110.881H84.1067C82.8604 110.881 81.7201 111.583 81.1584 112.695L76.4664 119.027C75.3569 121.224 76.9536 123.819 79.4148 123.819H93.0316C92.9659 125.195 92.9031 126.572 92.9031 127.998C92.8856 129.411 92.9189 130.802 92.9787 132.18H84.1067C82.8604 132.18 81.7201 132.882 81.1584 133.994L76.4664 140.326C75.3569 142.523 76.9536 145.119 79.4148 145.119H94.7671C99.6224 165.187 113.6 178.873 132.332 178.589C145.63 178.589 155.654 171.978 162.346 158.813C163.198 157.137 162.451 155.08 160.735 154.313Z" fill="white"/>
</g>
<defs>
<clipPath id="clip0_2815_2">
<rect width="256" height="256" fill="white"/>
</clipPath>
</defs>
</svg>
