<svg width="256" height="256" viewBox="0 0 256 256" fill="none" xmlns="http://www.w3.org/2000/svg">
<circle cx="128" cy="128" r="127" fill="#02B1FF"/>
<path d="M128 252C196.483 252 252 196.483 252 128C252 59.5167 196.483 4 128 4C59.5167 4 4 59.5167 4 128C4 196.483 59.5167 252 128 252Z" fill="#A5E5F7"/>
<path d="M197.836 75.7517C195.916 74.1199 170.594 75.9824 170.594 75.9824C166.562 76.7695 166.447 74.0622 166.447 74.0622L166.139 72.718C166.139 72.718 160.111 36.638 132.869 35.0059C132.869 35.0059 113.67 34.1418 96.3916 53.3628C96.3916 53.3628 84.4502 66.6501 82.0121 72.1228C81.0834 73.3645 79.7045 74.192 78.1723 74.4271C78.1723 74.4271 53.8093 84.0278 50.4689 86.5047C47.1285 88.9817 48.1457 91.7851 48.1457 91.7851C48.2218 95.396 49.5566 98.8668 51.919 101.598C54.2818 104.329 57.5241 106.149 61.0855 106.743C61.0855 106.743 63.6005 107.646 71.4719 98.8708L81.0713 89.8649C81.0713 89.8649 88.5971 111.966 89.7297 113.042C90.8622 114.117 91.899 115.499 97.5818 114.847C103.265 114.194 110.291 109.796 110.81 103.326C110.81 103.326 111.405 101.905 108.026 98.6212C108.026 98.6212 92.36 79.6114 91.9567 79.1888C91.5534 78.7666 90.8238 77.9026 92.2831 76.0974C93.742 74.2925 108.141 51.884 126.84 50.3672C126.84 50.3672 137.841 48.9849 139.876 62.3491C139.876 62.3491 134.443 60.525 132.926 61.4274C131.409 62.3298 130.334 63.2899 130.833 67.3991V74.1007C130.828 74.1579 130.828 74.216 130.833 74.2733C130.833 75.0031 130.526 76.731 126.686 75.9824C126.686 75.9824 101.287 74.0622 99.444 75.7517C97.601 77.4416 98.0808 77.9791 99.7704 80.2258L124.92 113.31C123.204 114.545 121.868 116.235 121.064 118.19C120.26 120.145 120.019 122.286 120.37 124.371C121.123 128.901 124.741 131.028 127.364 131.988C129.175 132.651 131.38 131.959 133.024 132.966C133.456 133.232 133.782 133.669 133.848 134.375C134.078 136.852 136.151 144.974 136.036 146.433C135.921 147.893 136.439 148.353 132.869 148.853C129.298 149.352 109.446 150.619 107.911 156.821L128.769 157.575C131.483 157.674 134.386 158.007 136.253 159.98C137.198 160.978 137.904 162.176 138.321 163.484L138.974 171.991C138.974 171.991 138.998 172.469 138.974 172.743C138.949 173.017 138.853 173.28 138.697 173.506C138.54 173.733 138.328 173.915 138.08 174.034C137.833 174.154 137.418 174.237 137.418 174.237L135.134 174.353C135.134 174.353 121.042 175.121 118.546 182.033L130.713 182.407C134.259 182.516 139.047 182.499 139.952 185.93C140.004 186.126 140.037 186.331 140.049 186.546C140.202 189.349 140.183 193.785 140.183 193.785C140.183 193.785 140.183 195.091 137.649 195.091C135.115 195.091 125.515 197.28 124.747 202.771C124.747 202.771 137.975 202.925 138.187 203.021C138.969 203.289 139.656 203.782 140.161 204.437C141.162 205.737 141.343 207.523 141.184 209.157C141.14 209.606 141.058 210.052 140.935 210.488C140.714 211.276 140.132 212.15 139.659 212.817C139.322 213.291 139.147 213.612 138.946 214.157C138.548 215.233 138.028 217.126 138.782 218.209C140.471 220.129 144.541 221.09 148.592 220.993C152.643 220.897 156.694 220.168 158.383 218.209C159.478 216.635 157.884 213.351 157.884 213.351C157.884 213.351 156.924 211.988 156.655 211.642C155.941 210.1 155.759 208.364 156.137 206.708C156.198 205.882 156.499 205.093 157.004 204.437C157.509 203.782 158.196 203.289 158.979 203.021C159.286 202.925 172.513 202.771 172.513 202.771C171.745 197.241 162.108 195.091 159.612 195.091C157.116 195.091 157.174 193.862 157.174 193.862C157.174 193.862 157.174 189.426 157.308 186.623C157.375 185.22 158.375 184.225 159.358 183.582C160.558 182.796 162.029 182.628 163.463 182.591L178.829 182.187C176.334 175.197 162.242 174.506 162.242 174.506L159.957 174.391C159.957 174.391 159.543 174.302 159.296 174.182C159.048 174.063 158.836 173.881 158.679 173.655C158.523 173.428 158.427 173.166 158.402 172.892C158.377 172.618 158.402 172.145 158.402 172.145L158.741 167.728C158.95 165.011 159.252 162.116 161.125 160.137C162.993 158.164 165.892 157.827 168.606 157.729L189.465 156.975C187.872 150.773 168.021 149.544 164.508 149.006C160.994 148.469 161.455 148.046 161.34 146.587C161.224 145.128 163.26 136.986 163.548 134.528C163.59 134.162 163.702 133.868 163.861 133.633C165.208 131.644 168.482 132.811 170.695 131.877C173.223 130.811 176.315 128.678 177.006 124.524C177.361 122.441 177.125 120.3 176.324 118.345C175.523 116.39 174.189 114.699 172.475 113.464L197.433 80.3796C199.199 77.9791 199.66 77.3839 197.836 75.7517Z" fill="black"/>
</svg>
