<svg width="256" height="256" viewBox="0 0 256 256" fill="none" xmlns="http://www.w3.org/2000/svg">
<g clip-path="url(#clip0_2571_3802)">
<path d="M256 128C256 198.693 198.693 256 128 256C57.3075 256 0 198.693 0 128C0 57.3072 57.3075 0 128 0C198.693 0 256 57.3072 256 128Z" fill="#080B1B"/>
<g filter="url(#filter0_di_2571_3802)">
<path d="M127.987 40L126.762 44.1626V164.942L127.987 166.163L183.966 133.024L127.987 40Z" fill="#6B6B6B"/>
<path d="M127.983 40L72 133.024L127.983 166.163V107.542V40Z" fill="#A2A2A2"/>
<path d="M127.983 176.779L127.293 177.621V220.645L127.983 222.662L183.998 143.656L127.983 176.779Z" fill="#4F4E4E"/>
<path d="M127.983 222.662V176.779L72 143.656L127.983 222.662Z" fill="#A2A2A2"/>
<path d="M127.984 166.169L183.963 133.03L127.984 107.547V166.169Z" fill="#797979"/>
<path d="M72 133.03L127.983 166.169V107.547L72 133.03Z" fill="#D4D4D4"/>
<g style="mix-blend-mode:overlay">
<path d="M127.985 40L126.762 44.1626V164.942L127.985 166.163L183.966 133.024L127.985 40Z" fill="#ACE730"/>
<path d="M127.982 40L72 133.024L127.982 166.163V107.542V40Z" fill="#ACE730"/>
<path d="M127.983 176.779L127.293 177.621V220.645L127.983 222.662L183.998 143.656L127.983 176.779Z" fill="#ACE730"/>
<path d="M127.983 222.662V176.779L72 143.656L127.983 222.662Z" fill="#ACE730"/>
<path d="M127.984 166.169L183.965 133.03L127.984 107.547V166.169Z" fill="#ACE730"/>
<path d="M72 133.03L127.982 166.169V107.547L72 133.03Z" fill="#ACE730"/>
</g>
</g>
</g>
<defs>
<filter id="filter0_di_2571_3802" x="63.92" y="31.92" width="128.157" height="198.822" filterUnits="userSpaceOnUse" color-interpolation-filters="sRGB">
<feFlood flood-opacity="0" result="BackgroundImageFix"/>
<feColorMatrix in="SourceAlpha" type="matrix" values="0 0 0 0 0 0 0 0 0 0 0 0 0 0 0 0 0 0 127 0" result="hardAlpha"/>
<feOffset/>
<feGaussianBlur stdDeviation="4.03998"/>
<feComposite in2="hardAlpha" operator="out"/>
<feColorMatrix type="matrix" values="0 0 0 0 0.67451 0 0 0 0 0.905882 0 0 0 0 0.188235 0 0 0 1 0"/>
<feBlend mode="normal" in2="BackgroundImageFix" result="effect1_dropShadow_2571_3802"/>
<feBlend mode="normal" in="SourceGraphic" in2="effect1_dropShadow_2571_3802" result="shape"/>
<feColorMatrix in="SourceAlpha" type="matrix" values="0 0 0 0 0 0 0 0 0 0 0 0 0 0 0 0 0 0 127 0" result="hardAlpha"/>
<feOffset/>
<feGaussianBlur stdDeviation="1.95857"/>
<feComposite in2="hardAlpha" operator="arithmetic" k2="-1" k3="1"/>
<feColorMatrix type="matrix" values="0 0 0 0 0.67451 0 0 0 0 0.905882 0 0 0 0 0.188235 0 0 0 0.5 0"/>
<feBlend mode="normal" in2="shape" result="effect2_innerShadow_2571_3802"/>
</filter>
<clipPath id="clip0_2571_3802">
<rect width="256" height="256" fill="white"/>
</clipPath>
</defs>
</svg>
