<svg width="256" height="256" viewBox="0 0 256 256" fill="none" xmlns="http://www.w3.org/2000/svg">
<path d="M256 128.5C256 198.917 198.917 256 128.5 256C58.0837 256 1 198.917 1 128.5C1 58.0837 58.0837 1 128.5 1C198.917 1 256 58.0837 256 128.5Z" fill="#0E1204"/>
<path d="M230 137.709C230 137.908 230 138.108 230 138.307C225.615 186.947 186.942 225.022 139.698 229.806C139.299 229.806 139.1 229.806 138.701 229.806L230 137.709Z" fill="#ACE730"/>
<path d="M173.177 37.031C170.586 35.8349 167.994 34.6388 165.403 33.6421C160.22 31.6487 154.838 30.0539 149.256 28.8578C142.479 27.4624 135.701 26.665 128.525 26.665C125.136 26.665 121.747 26.8643 118.358 27.0637C94.8355 29.4558 73.9044 39.6224 57.7575 55.1714C56.7608 56.168 55.5648 57.3641 54.568 58.3609C39.2185 74.5078 29.2514 95.8377 27.0586 119.161C26.8593 122.151 26.6599 125.141 26.6599 128.331C26.6599 135.906 27.4573 143.281 29.0521 150.458C30.2481 155.841 31.8429 161.023 33.8363 166.206C35.0324 168.997 36.2285 171.788 37.4245 174.38C39.8166 178.964 42.4082 183.35 45.3983 187.537L62.1431 170.592L169.788 61.7497L186.534 44.8054C182.547 42.0145 177.962 39.4231 173.177 37.031ZM52.3753 147.668C52.176 147.069 51.9766 146.272 51.9766 145.674C50.7805 140.093 50.1825 134.311 50.1825 128.53C50.1825 108.396 57.7575 89.4586 71.5123 74.9064L74.3031 72.1156C89.0546 57.9621 108.191 50.1877 128.724 50.1877C134.106 50.1877 139.488 50.7857 144.671 51.7825C145.469 51.9817 146.266 52.1811 147.064 52.3805L52.3753 147.668Z" fill="#ACE730"/>
<path d="M93.4536 224.239C90.8621 223.241 88.47 222.245 86.0779 221.249C81.0943 218.856 76.31 216.265 71.7251 213.075L212.462 70.9424C215.452 75.3279 218.242 79.9129 220.436 84.8965C221.631 87.488 222.827 90.0795 223.825 92.6709L93.4536 224.239Z" fill="#ACE730"/>
</svg>
