<svg width="256" height="256" viewBox="0 0 256 256" fill="none" xmlns="http://www.w3.org/2000/svg">
<g clip-path="url(#clip0_1323_156)">
<path d="M128 256C198.692 256 256 198.692 256 128C256 57.3076 198.692 0 128 0C57.3076 0 0 57.3076 0 128C0 198.692 57.3076 256 128 256Z" fill="url(#paint0_linear_1323_156)"/>
<path d="M62.152 62.1519H78.424V78.4239H62.152V62.1519Z" fill="white"/>
<path d="M102.832 62.1519H119.104V78.4239H102.832V62.1519Z" fill="white"/>
<path d="M143.504 62.1519H159.776V78.4239H143.504V62.1519Z" fill="white"/>
<path d="M62.152 102.832H78.424V119.104H62.152V102.832Z" fill="white"/>
<path d="M102.832 102.832H119.104V119.104H102.832V102.832Z" fill="white"/>
<path d="M62.152 143.472H78.424V159.744H62.152V143.472Z" fill="white"/>
<path d="M192.312 74.3438C194.556 74.3438 196.376 72.5243 196.376 70.2798C196.376 68.0353 194.556 66.2158 192.312 66.2158C190.067 66.2158 188.248 68.0353 188.248 70.2798C188.248 72.5243 190.067 74.3438 192.312 74.3438Z" fill="white"/>
<path d="M192.312 115.024C194.556 115.024 196.376 113.204 196.376 110.96C196.376 108.716 194.556 106.896 192.312 106.896C190.067 106.896 188.248 108.716 188.248 110.96C188.248 113.204 190.067 115.024 192.312 115.024Z" fill="white"/>
<path d="M192.312 155.672C194.556 155.672 196.376 153.852 196.376 151.608C196.376 149.363 194.556 147.544 192.312 147.544C190.067 147.544 188.248 149.363 188.248 151.608C188.248 153.852 190.067 155.672 192.312 155.672Z" fill="white"/>
<path d="M192.312 196.344C194.556 196.344 196.376 194.524 196.376 192.28C196.376 190.035 194.556 188.216 192.312 188.216C190.067 188.216 188.248 190.035 188.248 192.28C188.248 194.524 190.067 196.344 192.312 196.344Z" fill="white"/>
<path d="M151.64 115.024C153.884 115.024 155.704 113.204 155.704 110.96C155.704 108.716 153.884 106.896 151.64 106.896C149.395 106.896 147.576 108.716 147.576 110.96C147.576 113.204 149.395 115.024 151.64 115.024Z" fill="white"/>
<path d="M151.64 155.672C153.884 155.672 155.704 153.852 155.704 151.608C155.704 149.363 153.884 147.544 151.64 147.544C149.395 147.544 147.576 149.363 147.576 151.608C147.576 153.852 149.395 155.672 151.64 155.672Z" fill="white"/>
<path d="M151.64 196.344C153.884 196.344 155.704 194.524 155.704 192.28C155.704 190.035 153.884 188.216 151.64 188.216C149.395 188.216 147.576 190.035 147.576 192.28C147.576 194.524 149.395 196.344 151.64 196.344Z" fill="white"/>
<path d="M110.96 155.672C113.204 155.672 115.024 153.852 115.024 151.608C115.024 149.363 113.204 147.544 110.96 147.544C108.716 147.544 106.896 149.363 106.896 151.608C106.896 153.852 108.716 155.672 110.96 155.672Z" fill="white"/>
<path d="M110.96 196.344C113.204 196.344 115.024 194.524 115.024 192.28C115.024 190.035 113.204 188.216 110.96 188.216C108.716 188.216 106.896 190.035 106.896 192.28C106.896 194.524 108.716 196.344 110.96 196.344Z" fill="white"/>
<path d="M70.2799 196.344C72.5244 196.344 74.3439 194.524 74.3439 192.28C74.3439 190.035 72.5244 188.216 70.2799 188.216C68.0355 188.216 66.2159 190.035 66.2159 192.28C66.2159 194.524 68.0355 196.344 70.2799 196.344Z" fill="white"/>
</g>
<defs>
<linearGradient id="paint0_linear_1323_156" x1="128" y1="0" x2="128" y2="256" gradientUnits="userSpaceOnUse">
<stop stop-color="#222D53"/>
</linearGradient>
<clipPath id="clip0_1323_156">
<rect width="256" height="256" fill="white"/>
</clipPath>
</defs>
</svg>
