<svg width="256" height="256" viewBox="0 0 256 256" fill="none" xmlns="http://www.w3.org/2000/svg">
<g clip-path="url(#clip0_741_46)">
<path fill-rule="evenodd" clip-rule="evenodd" d="M128 256C57.6 256 0 198.401 0 127.363C0.64 56.9641 57.6 -0.634705 128.64 0.00528218C199.04 0.645269 256 57.6041 256 129.283C255.36 199.041 198.4 256 128 256Z" fill="#0090FF"/>
<path fill-rule="evenodd" clip-rule="evenodd" d="M140.128 112.486L136.313 133L172.559 138.129L170.015 147.745L134.405 142.616C131.862 150.95 130.59 159.925 127.41 167.618C124.231 176.593 121.051 185.568 117.236 193.902C112.149 204.801 103.246 212.493 91.1641 214.417C84.1692 215.699 76.5385 215.058 70.8154 210.57C68.9077 209.288 67 206.724 67 204.801C67 202.236 68.2718 199.031 70.1795 197.749C71.4513 197.108 74.6308 197.749 76.5385 198.39C78.4462 200.313 80.3538 202.877 81.6256 205.442C85.441 210.57 90.5282 211.211 95.6154 207.365C101.338 202.236 104.518 195.184 106.426 188.133C110.241 172.747 114.056 158.002 117.236 142.616V140.052L83.5333 134.923L84.8051 125.307L119.779 130.436L124.231 110.562L87.9846 104.793L89.2564 94.5355L126.774 99.6641C128.046 95.8176 128.682 92.6122 129.954 89.4069C133.133 77.8675 136.313 66.3281 143.944 56.0709C151.574 45.8137 160.477 39.4029 173.831 40.044C179.554 40.044 185.277 41.9672 189.092 46.4548C189.728 47.0958 191 48.378 191 49.6602C191 52.2245 191 55.4298 189.092 57.3531C186.549 59.2763 183.369 58.6352 180.826 56.0709C178.918 54.1477 177.646 52.2245 175.738 50.3012C171.923 45.1726 166.2 44.5315 161.749 49.0191C158.569 52.2245 155.39 56.712 153.482 61.1995C149.031 74.6621 145.851 88.7658 141.4 102.869L176.374 107.998L173.831 117.614L140.128 112.486Z" fill="white"/>
</g>
<defs>
<clipPath id="clip0_741_46">
<rect width="256" height="256" fill="white"/>
</clipPath>
</defs>
</svg>
