<svg width="256" height="256" viewBox="0 0 256 256" fill="none" xmlns="http://www.w3.org/2000/svg">
<path d="M65.7352 27.9817L67.0609 26.7444C71.4798 22.6568 75.8988 18.3704 80.5829 13.9956L86.0846 8.78125C79.8353 10.9885 73.7699 13.6851 67.9447 16.8459L62.5093 21.8835L61.1836 23.1208C48.5233 34.8532 37.3211 45.2157 26.5609 52.7943C23.5738 56.8332 20.8292 61.046 18.3416 65.4104C33.6092 57.7214 48.6779 43.7574 65.7352 27.9817Z" fill="#DA00FF"/>
<path d="M62.1337 44.7731C42.6681 60.9245 27.2238 73.7174 11.8016 78.4678C10.7189 80.9866 9.74677 83.5276 8.84088 86.1127C27.3785 82.224 44.8997 67.6855 66.2876 49.877C72.916 44.3091 79.7875 38.3435 86.9684 32.0244C98.4577 21.9933 110.411 11.4982 123.182 1.66602C119.116 1.82068 115.117 2.19629 111.162 2.72657C101.242 10.7912 91.7851 19.0768 82.7041 27.0309C75.5232 33.328 68.7622 39.2273 62.1337 44.7731Z" fill="#CE00FF"/>
<path d="M61.7802 67.6631C39.2214 84.2342 22.7386 95.4584 5.74763 96.1875C5.17316 98.4118 4.65025 100.621 4.17889 102.816C23.6003 102.816 41.7402 90.465 65.691 72.8995C74.7941 66.2711 84.0961 58.6262 93.9725 50.5616C113.085 34.9405 133.743 17.9938 157.12 4.69264C153.894 3.94141 150.602 3.27857 147.287 2.79248C126.253 15.6296 107.34 31.0739 89.8408 45.4135C79.9864 53.5444 70.7287 61.1009 61.7802 67.6631Z" fill="#C100FF"/>
<path d="M61.4488 90.5534C36.7688 106.241 20.286 114.814 2.74268 111.941C2.46281 114.136 2.24186 116.345 2.07983 118.57C22.4071 121.773 40.7459 111.588 65.0282 96.1434C76.6722 88.7416 88.6918 79.5281 101.396 69.7842C126.651 50.4512 154.932 28.8203 187.566 16.1157C184.944 14.7311 182.264 13.4349 179.524 12.2271C148.591 25.484 121.591 46.0101 97.4413 64.5256C84.7589 74.1811 72.8497 83.3063 61.4488 90.5534Z" fill="#B500FF"/>
<path d="M64.299 119.277C78.6607 111.522 93.5085 100.761 109.24 89.3383C134.958 70.6902 164.124 49.5675 196.957 37.9677C202.149 36.1338 207.231 34.5872 212.291 33.2836C210.331 31.4866 208.247 29.7852 206.038 28.1797C202.304 29.2402 198.57 30.3892 194.747 31.7812C161.008 43.6461 131.423 65.056 105.351 83.9693C89.8849 95.2377 75.1255 105.887 61.1616 113.444C35.8629 127.098 19.579 132.887 1.66003 127.054C1.66003 127.452 1.66003 127.828 1.66003 128.225C1.66003 130.17 1.66003 132.114 1.8147 134.036C22.9153 140.002 41.2099 131.738 64.299 119.277Z" fill="#A900FF"/>
<path d="M63.5257 142.388C80.7376 134.721 98.5461 122.37 117.393 109.246C141.697 92.3873 166.753 74.9544 195.255 63.7302C206.735 59.136 218.666 55.7591 230.85 53.655C229.37 51.6443 227.867 49.6558 226.277 47.7114C214.841 49.9282 203.641 53.2202 192.825 57.5436C163.616 69.033 137.057 87.5043 113.615 103.766C95.0551 116.736 77.5118 128.932 60.8523 136.334C36.57 147.138 20.8826 151.005 2.49966 142.631C2.7869 145.194 3.16251 147.713 3.60441 150.232C22.5839 157.346 39.7958 152.971 63.5257 142.388Z" fill="#9C00FF"/>
<path d="M62.7966 165.5C83.0355 158.408 103.805 144.4 125.811 129.552C147.199 115.124 169.316 100.188 193.598 89.5601C209.471 82.4487 226.266 77.6067 243.489 75.1763C242.516 72.9668 241.478 70.9562 240.395 68.9014C223.328 71.4968 206.688 76.3795 190.925 83.4177C166.09 94.4651 143.73 109.468 122.099 124.05C100.468 138.633 80.119 152.442 60.6092 159.247C36.7909 167.599 21.7885 168.085 5.52664 159.38C6.25577 162.296 7.11747 165.169 8.04546 167.997C23.9759 174.78 39.7737 173.565 62.7966 165.5Z" fill="#9000FF"/>
<path d="M62.0011 188.589C85.3775 182.601 109.107 166.803 134.229 150.1C152.612 137.859 171.636 125.199 191.919 115.366C210.531 105.975 230.557 99.6978 251.2 96.7846C250.64 94.6193 250.036 92.4761 249.388 90.355C228.384 93.4621 208.008 99.8911 189.025 109.401C168.322 119.432 149.121 132.203 130.562 144.576C105.926 160.97 82.6599 176.459 60.3661 182.137C40.304 187.263 26.6493 186.843 12.1551 178.735C13.6281 181.99 15.1747 185.179 16.795 188.302C30.1182 193.56 43.6403 193.273 62.0011 188.589Z" fill="#8400FF"/>
<path d="M142.515 170.824C157.849 160.572 173.735 149.989 190.24 141.151C211.429 129.816 230.165 122.878 249.123 119.365C251.001 119.012 252.813 118.769 254.624 118.503C254.462 116.279 254.234 114.07 253.939 111.875C251.951 112.162 249.94 112.472 247.885 112.847C228.265 116.559 208.91 123.629 187.102 135.296C170.31 144.288 154.291 154.96 138.825 165.3C111.295 183.661 85.3112 201.028 60.1452 205.071C46.2475 207.281 35.5536 206.441 25.8097 202.552C28.0929 205.705 30.5233 208.739 33.101 211.655C42.3901 213.378 51.9167 213.378 61.2057 211.655C87.8301 207.347 114.344 189.605 142.515 170.824Z" fill="#7700FF"/>
<path d="M188.561 166.936C209.993 154.319 228.199 146.432 245.853 142.123C248.813 141.394 251.708 140.82 254.536 140.333C254.742 138.094 254.897 135.833 255 133.55C251.487 134.081 247.93 134.788 244.284 135.76C225.967 140.179 207.187 148.332 185.202 161.301C171.945 169.057 159.197 177.784 146.801 186.224C116.576 206.795 88.0069 226.216 59.9464 228.205C56.8362 228.43 53.7156 228.474 50.6003 228.337C53.5462 230.635 56.6027 232.845 59.7696 234.966H60.4104C90.2606 232.889 119.536 212.871 150.535 191.881C162.842 183.242 175.569 174.58 188.561 166.936Z" fill="#6B00FF"/>
<path d="M186.881 192.699C208.822 178.425 225.967 169.919 242.494 164.881C245.168 164.064 247.753 163.379 250.316 162.782C250.979 160.425 251.583 158.039 252.128 155.624C248.222 156.4 244.357 157.373 240.55 158.54C223.426 163.754 205.75 172.57 183.258 187.131C173.448 193.472 163.726 200.388 154.314 207.016C130.363 223.897 107.384 240.159 84.6705 247.273C88.0731 248.51 91.542 249.593 95.0551 250.565C115.869 242.191 136.638 227.609 158.136 212.452C167.504 205.801 177.182 198.974 186.881 192.699Z" fill="#5F00FF"/>
<path d="M236.838 181.408C216.953 188.744 197.62 201.537 181.358 213.07C174.729 217.754 168.101 222.682 161.738 227.432C148.481 237.264 135.511 246.875 122.696 254.83C124.596 254.83 126.496 254.984 128.418 254.984C130.341 254.984 132.837 254.984 135.047 254.808C145.188 248.024 155.396 240.446 165.781 232.713C172.166 227.984 178.773 223.079 185.291 218.439C201.199 207.149 220.068 194.665 239.224 187.507L240.705 186.998C242.178 184.303 243.503 181.548 244.682 178.735C242.075 179.545 239.46 180.436 236.838 181.408Z" fill="#5200FF"/>
<path d="M168.233 247.803L166.62 249.063C175.22 246.334 183.502 242.69 191.323 238.192C198.194 232.956 205.043 228.006 211.827 223.543C217.624 218.461 222.949 212.862 227.735 206.817C207.562 216.76 187.743 232.403 168.233 247.803Z" fill="#4600FF"/>
</svg>
