<svg width="256" height="256" viewBox="0 0 256 256" fill="none" xmlns="http://www.w3.org/2000/svg">
<g clip-path="url(#clip0_1323_204)">
<path d="M128 256C110.723 256 93.9612 252.613 78.1746 245.939C62.9298 239.491 49.2474 230.261 37.4887 218.511C25.7391 206.762 16.5091 193.07 10.0608 177.825C3.38672 162.039 0 145.277 0 128C0 110.723 3.38672 93.9612 10.0608 78.1746C16.5091 62.9298 25.7391 49.2474 37.4887 37.4887C49.2474 25.7391 62.9298 16.5091 78.1746 10.0608C93.9612 3.38672 110.723 0 128 0C145.277 0 162.039 3.38672 177.825 10.0608C193.07 16.5091 206.753 25.7391 218.511 37.4887C230.261 49.2384 239.491 62.9298 245.939 78.1746C252.613 93.9612 256 110.723 256 128C256 145.277 252.613 162.039 245.939 177.825C239.491 193.07 230.261 206.753 218.511 218.511C206.762 230.261 193.07 239.491 177.825 245.939C162.039 252.622 145.277 256 128 256Z" fill="white"/>
<path d="M128 249.218C194.947 249.218 249.218 194.947 249.218 128C249.218 61.0536 194.947 6.78271 128 6.78271C61.0534 6.78271 6.78247 61.0536 6.78247 128C6.78247 194.947 61.0534 249.218 128 249.218Z" fill="black"/>
<path d="M203.79 128C203.79 121.642 202.255 115.645 199.455 110.443L217.373 92.5251L202.291 77.4429L184.021 95.7131C183.885 95.6499 183.759 95.5867 183.624 95.5234C177.04 92.4799 169.643 91.5226 162.21 92.7599C154.588 94.0333 147.101 97.6368 140.572 103.182C136.327 106.794 131.594 110.831 127.928 113.965C124.144 110.732 119.402 106.686 115.284 103.182C108.754 97.6368 101.277 94.0333 93.6451 92.7599C86.2214 91.5226 78.8158 92.4799 72.232 95.5234C72.1327 95.5686 72.0333 95.6228 71.934 95.6679L53.7179 77.4429L38.6357 92.5251L56.4634 110.353C53.6276 115.582 52.0743 121.606 52.0743 128C52.0743 134.394 53.6276 140.427 56.4634 145.647L38.6357 163.475L53.7179 178.557L71.943 160.332C72.0424 160.377 72.1417 160.431 72.241 160.476C78.8248 163.52 86.2214 164.477 93.6542 163.24C101.277 161.966 108.763 158.363 115.293 152.818C119.294 149.413 124.044 145.367 127.937 142.034C131.721 145.268 136.462 149.314 140.581 152.818C147.11 158.363 154.588 161.966 162.219 163.24C164.333 163.592 166.437 163.764 168.523 163.764C173.789 163.764 178.918 162.653 183.633 160.476C183.768 160.413 183.894 160.35 184.03 160.287L202.3 178.557L217.382 163.475L199.464 145.557C202.255 140.355 203.79 134.367 203.79 128ZM101.475 136.571C94.8282 142.215 87.251 143.922 81.2001 141.122C76.2419 138.828 73.4061 134.051 73.4061 128.009C73.4061 121.967 76.2509 117.18 81.2001 114.895C83.1147 114.01 85.1919 113.577 87.3413 113.577C91.9653 113.577 96.9415 115.591 101.475 119.447C104.699 122.184 108.303 125.254 111.527 128.009C108.231 130.809 104.618 133.888 101.475 136.571ZM154.389 136.571C151.165 133.834 147.562 130.763 144.338 128.009C147.489 125.318 151.084 122.247 154.389 119.447C161.036 113.803 168.614 112.096 174.665 114.895C179.623 117.189 182.459 121.967 182.459 128.009C182.459 134.051 179.614 138.837 174.665 141.122C168.614 143.922 161.036 142.215 154.389 136.571Z" fill="white"/>
</g>
<defs>
<clipPath id="clip0_1323_204">
<rect width="256" height="256" fill="white"/>
</clipPath>
</defs>
</svg>
