<svg width="256" height="256" viewBox="0 0 256 256" fill="none" xmlns="http://www.w3.org/2000/svg">
<g clip-path="url(#clip0_1323_211)">
<path d="M128 256C110.723 256 93.9612 252.613 78.1746 245.939C62.9298 239.491 49.2474 230.261 37.4887 218.511C25.7391 206.762 16.5091 193.07 10.0608 177.825C3.38672 162.039 0 145.277 0 128C0 110.723 3.38672 93.9612 10.0608 78.1746C16.5091 62.9298 25.7391 49.2474 37.4887 37.4887C49.2474 25.7391 62.9298 16.5091 78.1746 10.0608C93.9612 3.38672 110.723 0 128 0C145.277 0 162.039 3.38672 177.825 10.0608C193.07 16.5091 206.753 25.7391 218.511 37.4887C230.261 49.2384 239.491 62.9298 245.939 78.1746C252.613 93.9612 256 110.723 256 128C256 145.277 252.613 162.039 245.939 177.825C239.491 193.07 230.261 206.753 218.511 218.511C206.762 230.261 193.07 239.491 177.825 245.939C162.039 252.622 145.277 256 128 256Z" fill="white"/>
<path d="M128 249.218C194.947 249.218 249.218 194.947 249.218 128C249.218 61.0536 194.947 6.78271 128 6.78271C61.0534 6.78271 6.78247 61.0536 6.78247 128C6.78247 194.947 61.0534 249.218 128 249.218Z" fill="black"/>
<path d="M198.245 69.6851L180.417 51.8574L160.196 72.0784C152.818 68.1047 144.094 65.9642 134.855 65.9642C125.182 65.9642 116.006 68.1498 108.321 72.2048L87.9735 51.8574L70.1458 69.6851L90.43 89.9693C87.4677 95.7674 85.9053 102.333 85.9053 109.368V207.728H111.121V155.031H134.846C149.205 155.031 160.711 151.382 169.047 144.184C175.288 138.792 182.729 128.65 182.729 110.931C182.729 103.327 181.059 96.228 177.898 90.0145L198.245 69.6851ZM134.855 129.815H111.13V109.368C111.13 92.0465 130.899 91.1705 134.855 91.1705C138.639 91.1705 157.523 92.1188 157.523 110.931C157.523 120.739 154.778 129.815 134.855 129.815Z" fill="white"/>
</g>
<defs>
<clipPath id="clip0_1323_211">
<rect width="256" height="256" fill="white"/>
</clipPath>
</defs>
</svg>
