<svg width="256" height="256" viewBox="0 0 256 256" fill="none" xmlns="http://www.w3.org/2000/svg">
<g clip-path="url(#clip0_1323_231)">
<path d="M128 256C110.723 256 93.9612 252.613 78.1746 245.939C62.9298 239.491 49.2474 230.261 37.4887 218.511C25.7391 206.762 16.5091 193.07 10.0608 177.825C3.38672 162.039 0 145.277 0 128C0 110.723 3.38672 93.9612 10.0608 78.1746C16.5091 62.9298 25.7391 49.2474 37.4887 37.4887C49.2474 25.7391 62.9298 16.5091 78.1746 10.0608C93.9612 3.38672 110.723 0 128 0C145.277 0 162.039 3.38672 177.825 10.0608C193.07 16.5091 206.753 25.7391 218.511 37.4887C230.261 49.2384 239.491 62.9298 245.939 78.1746C252.613 93.9612 256 110.723 256 128C256 145.277 252.613 162.039 245.939 177.825C239.491 193.07 230.261 206.753 218.511 218.511C206.762 230.261 193.07 239.491 177.825 245.939C162.039 252.622 145.277 256 128 256Z" fill="white"/>
<path d="M128 249.218C194.947 249.218 249.218 194.947 249.218 128C249.218 61.0536 194.947 6.78271 128 6.78271C61.0534 6.78271 6.78247 61.0536 6.78247 128C6.78247 194.947 61.0534 249.218 128 249.218Z" fill="black"/>
<path d="M130.98 105.232V161.081L185.655 127.946L130.98 105.232Z" fill="white"/>
<path d="M130.98 98.9282L185.159 121.443L172.208 100.328L199.744 72.7917L183.289 56.3278L159.7 79.9264L130.98 33.1084V98.9282Z" fill="white"/>
<path d="M125.164 161.081V105.232L70.4889 127.946L125.164 161.081Z" fill="white"/>
<path d="M70.9856 121.443L125.164 98.9282V33.1084L96.4538 79.9264L72.8551 56.3278L56.4001 72.7917L83.9365 100.319L70.9856 121.443Z" fill="white"/>
<path d="M185.041 145.331L130.98 178.096V221.491L153.224 190.144L176.444 213.363L192.899 196.908L166.888 170.898L185.041 145.331Z" fill="white"/>
<path d="M125.164 178.096L71.103 145.331L89.2559 170.898L63.2458 196.908L79.7008 213.363L102.92 190.153L125.164 221.482V178.096Z" fill="white"/>
</g>
<defs>
<clipPath id="clip0_1323_231">
<rect width="256" height="256" fill="white"/>
</clipPath>
</defs>
</svg>
