<svg width="256" height="256" viewBox="0 0 256 256" fill="none" xmlns="http://www.w3.org/2000/svg">
<g clip-path="url(#clip0_2854_27)">
<path d="M128 256C198.692 256 256 198.692 256 128C256 57.3075 198.692 0 128 0C57.3075 0 0 57.3075 0 128C0 198.692 57.3075 256 128 256Z" fill="#FF008C"/>
<path d="M128 241C190.408 241 241 190.408 241 128C241 65.5918 190.408 15 128 15C65.5918 15 15 65.5918 15 128C15 190.408 65.5918 241 128 241Z" fill="white"/>
<path d="M178.243 19.1948C146.015 13.6017 112.386 13.6017 80.1573 19.1948C65.4444 21.2922 51.4321 28.9828 40.2222 39.4699C29.0124 49.9568 22.0062 63.9396 19.2037 79.3207C13.5988 111.481 13.5988 145.039 19.2037 177.199C22.0062 191.882 29.0122 205.865 39.5215 217.051C50.0308 227.537 64.0431 235.228 79.4567 237.326C95.5709 240.123 112.386 241.521 128.5 240.822C145.314 240.822 161.428 239.423 177.542 236.627C192.256 233.83 206.268 226.838 217.478 216.351C227.987 205.865 235.694 191.882 237.796 176.5C240.599 160.42 242 143.641 242 127.561C242 110.782 240.599 94.7017 237.796 78.6215C234.993 63.2404 227.987 49.9568 217.478 38.7707C206.969 28.2836 192.957 21.2922 178.243 19.1948ZM106.781 203.068C103.978 203.068 101.176 201.67 99.0739 199.572C95.5708 196.076 94.8703 189.785 97.6728 185.59L125.697 147.137L79.4567 142.942C74.5524 142.242 70.3487 139.447 68.9475 134.553C67.5462 129.659 68.9475 124.765 72.4506 121.269L143.913 56.9482C146.015 54.8508 148.818 54.1517 151.62 54.1517C154.423 54.1517 157.225 55.55 159.326 57.6474C162.83 61.1431 163.53 67.4353 160.728 71.6302L132.704 110.083L178.944 114.277C183.848 114.977 188.052 117.773 189.454 122.667C190.855 127.561 189.454 132.455 185.95 135.951L114.488 200.271C111.685 201.67 109.583 203.068 106.781 203.068Z" fill="#FF008C"/>
</g>
<defs>
<clipPath id="clip0_2854_27">
<rect width="256" height="256" fill="white"/>
</clipPath>
</defs>
</svg>
