<svg width="256" height="256" viewBox="0 0 256 256" fill="none" xmlns="http://www.w3.org/2000/svg">
<circle cx="128" cy="128" r="127" fill="url(#paint0_radial_741_46)"/>
<path d="M94.5359 61.0084C131.352 60.9972 168.171 60.9972 204.992 61.0084C205.003 72.8537 205.003 84.6969 204.992 96.5381C168.174 96.5494 131.356 96.5494 94.5359 96.5381C94.5241 84.6928 94.5241 72.8496 94.5359 61.0084Z" fill="#02A6C2"/>
<path d="M51.0462 109.905C62.924 109.844 74.8039 109.844 86.6859 109.905C86.7475 121.728 86.7475 133.552 86.6859 145.379C74.8044 145.44 62.9246 145.441 51.0462 145.382C50.9846 133.558 50.9846 121.732 51.0462 109.905Z" fill="#5FCADE"/>
<path d="M94.5636 109.905C121.137 109.849 147.709 109.849 174.278 109.905C174.335 121.728 174.335 133.553 174.278 145.38C147.705 145.435 121.134 145.435 94.5636 145.38C94.5082 133.557 94.5082 121.732 94.5636 109.905Z" fill="#5FCADE"/>
<path d="M94.5967 158.813C106.455 158.685 118.31 158.685 130.164 158.813C130.287 170.608 130.289 182.409 130.169 194.215C118.312 194.332 106.456 194.33 94.6029 194.209C94.4797 182.415 94.4777 170.616 94.5967 158.813Z" fill="#ABEBF4"/>
<defs>
<radialGradient id="paint0_radial_741_46" cx="0" cy="0" r="1" gradientUnits="userSpaceOnUse" gradientTransform="translate(128 128) rotate(90) scale(127)">
<stop stop-color="#8C8C8C"/>
<stop offset="1" stop-color="white" stop-opacity="0"/>
</radialGradient>
</defs>
</svg>
