<svg width="256" height="256" viewBox="0 0 256 256" fill="none" xmlns="http://www.w3.org/2000/svg">
<g clip-path="url(#clip0_2909_46)">
<path d="M2.23718 109.756C12.0373 40.0252 76.51 -8.55848 146.241 1.24156C215.972 11.0416 264.556 75.5143 254.755 145.245C244.956 214.976 180.483 263.56 110.752 253.76C41.0208 243.96 -7.56293 179.487 2.23718 109.756Z" fill="white"/>
<path d="M30.9423 74.8784C31.9753 71.8826 33.8258 69.482 36.5157 67.8553C41.4122 64.8941 46.3693 62.0315 51.3299 59.1779C59.4356 54.5151 67.5703 49.9028 75.6817 45.25C83.8487 40.5653 92.0027 35.858 100.162 31.1592C106.98 27.2325 113.789 23.2906 120.618 19.3809C125.057 16.8387 129.602 16.6748 134.279 18.785C138.848 20.8465 143.039 23.5768 147.372 26.0522C158.044 32.1487 168.667 38.3293 179.31 44.476C191.865 51.7273 204.429 58.9625 216.967 66.2436C219.333 67.6172 221.648 69.0811 223.271 71.4138C224.869 73.7115 225.772 76.2166 225.891 79.0858C225.814 79.2436 225.777 79.3167 225.763 79.3439C225.559 79.0114 225.358 78.6603 225.136 78.3232C223.997 76.5957 222.41 75.7876 220.321 75.7669C218.808 75.7519 217.572 76.3703 216.334 77.0707C214.442 78.1414 212.558 79.2257 210.673 80.3095C209.003 81.2698 207.338 82.2402 205.668 83.2007C204.432 83.912 203.191 84.6169 201.95 85.3204C200.464 86.1624 198.975 86.9983 197.489 87.8401C196.46 88.4232 195.436 89.0149 194.406 89.5973C192.996 90.3952 191.578 91.1787 190.173 91.9862C189.148 92.5755 188.149 93.2105 187.121 93.7948C185.673 94.6173 184.205 95.4026 182.755 96.2208C181.273 97.0576 179.803 97.9176 178.324 98.762C177.336 99.3266 176.336 99.8712 175.352 100.444C174.311 101.05 173.293 101.696 172.247 102.293C170.801 103.117 169.326 103.892 167.884 104.723C166.068 105.77 164.283 106.872 162.465 107.915C160.639 108.962 158.781 109.951 156.951 110.991C154.233 112.536 151.529 114.107 148.816 115.66C146.524 116.972 144.23 118.279 141.933 119.581C140.693 120.283 139.445 120.969 138.202 121.665C136.982 122.348 135.759 123.024 134.546 123.72C133.389 124.384 132.268 125.119 131.087 125.736C129.212 126.715 127.946 128.149 127.401 130.192C127.312 130.065 127.238 129.973 127.211 129.87C126.744 128.029 125.525 126.798 123.941 125.885C121.711 124.601 119.456 123.359 117.23 122.069C115.736 121.203 114.287 120.261 112.792 119.397C111.111 118.427 109.401 117.509 107.705 116.566C106.737 116.028 105.762 115.502 104.807 114.941C103.68 114.28 102.58 113.573 101.452 112.913C100.353 112.27 99.2302 111.668 98.1246 111.037C96.3061 109.998 94.4899 108.955 92.6792 107.903C91.6501 107.305 90.6292 106.693 89.6133 106.072C88.7702 105.558 87.9596 104.987 87.0996 104.503C85.6426 103.684 84.1421 102.943 82.689 102.117C80.8436 101.069 79.0336 99.9588 77.1969 98.8952C75.1765 97.7251 73.1423 96.5789 71.1156 95.4197C69.6176 94.5628 68.1211 93.7031 66.6256 92.8418C64.9239 91.8617 63.2231 90.8801 61.5237 89.896C60.0885 89.0649 58.6557 88.2297 57.222 87.396C56.1647 86.7811 55.1062 86.1684 54.0512 85.5497C52.9033 84.8765 51.7655 84.1861 50.6115 83.5237C48.8867 82.5335 47.1466 81.5702 45.4232 80.5777C44.5396 80.0688 43.6889 79.5027 42.804 78.9961C41.6489 78.3349 40.4162 77.7932 39.3202 77.0479C36.6207 75.2124 32.9369 75.5746 30.879 78.3135C30.7577 78.475 30.5656 78.5833 30.4061 78.6546C30.3411 77.5588 30.4747 76.5646 30.918 75.6116C31.0129 75.4076 30.9386 75.1248 30.9423 74.8784ZM98.0552 70.9927C104.72 74.79 111.383 78.5903 118.05 82.3826C119.817 83.3874 121.527 84.5326 123.385 85.3274C128.169 87.3733 133.173 87.7579 138.274 86.8095C142.545 86.0154 146.4 84.3317 149.407 81.1049C152.357 77.939 153.5 74.2334 152.242 69.976C151.172 66.3519 148.855 63.812 145.547 61.9741C139.771 58.7654 134.092 55.3842 128.37 52.0785C126.418 50.9507 124.488 49.7808 122.498 48.7245C120.561 47.6966 118.173 48.5186 117.152 50.454C116.154 52.3475 116.816 54.6709 118.68 55.7496C126.025 60.001 133.379 64.2387 140.717 68.5027C141.684 69.0648 142.711 69.6221 143.477 70.4091C144.468 71.4279 145.07 72.7202 144.439 74.2202C143.938 75.4102 143.006 76.2213 141.95 76.8991C139.577 78.4224 136.927 79.0466 134.154 79.202C131.491 79.3512 128.837 79.1057 126.462 77.8642C122.999 76.0533 119.647 74.028 116.248 72.0939C110.561 68.8581 104.883 65.6064 99.1826 62.3946C97.2133 61.285 94.8601 62.0108 93.7577 63.9737C92.6945 65.8668 93.3581 68.2584 95.2699 69.3888C96.1641 69.9175 97.07 70.4265 98.0552 70.9927Z" fill="#EC1966"/>
<path d="M127.439 130.221C127.946 128.149 129.213 126.715 131.087 125.736C132.269 125.119 133.389 124.384 134.547 123.72C135.759 123.024 136.982 122.348 138.202 121.665C139.445 120.969 140.693 120.283 141.933 119.581C144.23 118.279 146.525 116.972 148.816 115.66C151.529 114.107 154.233 112.536 156.952 110.991C158.781 109.951 160.639 108.962 162.465 107.915C164.283 106.872 166.068 105.77 167.884 104.723C169.326 103.892 170.801 103.117 172.247 102.293C173.293 101.696 174.311 101.05 175.352 100.444C176.336 99.8712 177.336 99.3266 178.325 98.762C179.803 97.9176 181.273 97.0576 182.756 96.2208C184.205 95.4026 185.674 94.6173 187.121 93.7948C188.149 93.2105 189.148 92.5755 190.173 91.9862C191.578 91.1787 192.996 90.3952 194.407 89.5973C195.436 89.0149 196.46 88.4232 197.489 87.8401C198.975 86.9983 200.464 86.1625 201.95 85.3204C203.191 84.6169 204.432 83.912 205.668 83.2007C207.339 82.2402 209.003 81.2698 210.673 80.3095C212.558 79.2257 214.442 78.1414 216.335 77.0707C217.573 76.3703 218.809 75.7519 220.321 75.7669C222.41 75.7876 223.997 76.5957 225.136 78.3232C225.358 78.6603 225.56 79.0114 225.763 79.3439C225.777 79.3167 225.814 79.2436 225.88 79.1434C225.92 79.3026 225.932 79.4887 225.895 79.769C225.83 80.0598 225.801 80.2565 225.801 80.4532C225.799 112.38 225.798 144.306 225.803 176.233C225.803 176.466 225.87 176.7 225.905 176.934C225.604 181.238 223.788 184.796 220.302 187.307C217.98 188.98 215.427 190.339 212.941 191.774C199.792 199.364 186.633 206.935 173.475 214.509C165.223 219.258 156.966 223.998 148.713 228.745C144.75 231.025 140.793 233.315 136.829 235.595C136.259 235.923 135.668 236.215 135 236.512C134.737 236.427 134.553 236.277 134.385 236.293C133.165 236.41 132.064 236.013 131.107 235.359C129.715 234.408 128.733 233.114 128.495 231.314C128.453 230.976 128.379 230.695 128.372 230.413C128.32 228.162 128.273 225.911 128.237 223.66C128.186 220.503 128.138 217.345 128.105 214.187C128.053 209.326 128.008 204.465 127.971 199.603C127.921 192.972 127.888 186.341 127.835 179.711C127.803 175.778 127.753 171.846 127.703 167.914C127.666 164.978 127.599 162.041 127.575 159.105C127.52 152.319 127.478 145.533 127.441 138.748C127.426 135.905 127.439 133.063 127.439 130.221ZM176.984 156.933C179.859 160.234 182.732 163.536 185.608 166.836C187.046 168.485 188.473 170.146 189.933 171.775C190.946 172.903 192.252 173.303 193.723 173.008C195.816 172.589 197.035 170.993 197.03 168.75C197.006 157.934 196.98 147.117 196.947 136.301C196.941 134.267 196.999 132.225 196.849 130.2C196.651 127.53 193.794 125.867 191.319 126.866C189.568 127.573 188.673 128.982 188.679 131.05C188.708 139.765 188.741 148.48 188.772 157.195C188.773 157.381 188.772 157.566 188.772 157.932C188.198 157.281 187.748 156.776 187.304 156.266C182.677 150.943 178.062 145.611 173.411 140.309C172.87 139.693 172.207 139.081 171.472 138.758C168.718 137.547 165.773 139.589 165.786 142.643C165.834 153.636 165.892 164.629 165.952 175.622C165.965 177.943 165.92 180.27 166.057 182.585C166.185 184.742 168.013 186.259 170.201 186.239C172.282 186.219 174.04 184.587 174.185 182.464C174.255 181.452 174.202 180.431 174.197 179.414C174.159 171.982 174.118 164.551 174.08 157.119C174.074 156.005 174.079 154.892 174.079 153.605C175.101 154.775 176.011 155.819 176.984 156.933Z" fill="#BC1452"/>
<path d="M127.4 130.191C127.437 133.063 127.425 135.905 127.44 138.747C127.476 145.533 127.519 152.319 127.574 159.104C127.598 162.041 127.664 164.978 127.702 167.914C127.751 171.846 127.802 175.778 127.834 179.71C127.886 186.341 127.92 192.972 127.97 199.603C128.007 204.464 128.052 209.326 128.103 214.187C128.137 217.345 128.185 220.502 128.236 223.66C128.272 225.911 128.318 228.162 128.371 230.412C128.378 230.695 128.452 230.976 128.443 231.314C128.295 231.465 128.142 231.542 128.108 231.654C127.651 233.188 126.89 234.478 125.441 235.299C124.41 235.883 123.361 236.297 122.147 236.157C121.781 236.114 121.406 236.15 121.011 236.15C121.256 236.443 121.428 236.648 121.6 236.854C119.388 235.606 117.167 234.373 114.964 233.107C102.968 226.214 90.9745 219.315 78.9827 212.413C65.9179 204.893 52.8561 197.369 39.7931 189.846C39.5634 189.714 39.3347 189.58 39.0685 189.387C38.9865 189.314 38.9416 189.301 38.8966 189.288C38.826 189.259 38.7554 189.229 38.6642 189.127C38.6342 188.281 37.9524 188.088 37.4591 187.856C36.4687 187.388 36.064 186.474 35.4372 185.739C35.1485 185.582 34.8087 185.443 34.6336 185.189C33.5419 183.609 32.4398 182.029 31.8645 180.162C31.7622 179.83 31.3435 179.486 31.9448 179.189C31.9942 179.165 31.8717 178.792 31.829 178.582C31.7805 178.587 31.732 178.592 31.6835 178.597C31.6235 178.778 31.5636 178.959 31.4573 179.28C31.384 179.055 31.3572 178.981 31.3354 178.905C30.6682 176.588 30.7721 174.189 30.7015 171.828C30.553 166.862 30.5857 161.89 30.5351 156.921C30.4993 153.411 30.4489 149.9 30.4048 146.39C30.3599 142.814 30.3 139.238 30.2743 135.661C30.2527 132.654 30.2708 129.647 30.271 126.577C30.2709 110.844 30.2711 95.1749 30.2708 79.4546C30.3153 79.1745 30.3603 78.9453 30.4054 78.7161C30.5645 78.5831 30.7566 78.4748 30.8779 78.3133C32.9358 75.5744 36.6197 75.2121 39.3191 77.0477C40.4151 77.7929 41.6478 78.3347 42.8029 78.9959C43.6878 79.5025 44.5385 80.0686 45.4221 80.5775C47.1455 81.57 48.8856 82.5333 50.6104 83.5234C51.7644 84.1859 52.9023 84.8763 54.0501 85.5495C55.1051 86.1682 56.1636 86.7809 57.2209 87.3957C58.6546 88.2295 60.0874 89.0647 61.5226 89.8958C63.2221 90.8798 64.9228 91.8615 66.6246 92.8416C68.12 93.7029 69.6165 94.5625 71.1145 95.4194C73.1412 96.5787 75.1754 97.7249 77.1958 98.8949C79.0325 99.9586 80.8426 101.069 82.6879 102.117C84.141 102.942 85.6415 103.684 87.0985 104.503C87.9586 104.987 88.7692 105.557 89.6122 106.072C90.6281 106.692 91.649 107.305 92.6781 107.903C94.4888 108.955 96.3051 109.998 98.1235 111.037C99.2291 111.668 100.352 112.27 101.451 112.913C102.579 113.573 103.679 114.28 104.806 114.941C105.761 115.501 106.736 116.027 107.704 116.565C109.4 117.508 111.11 118.427 112.791 119.397C114.286 120.26 115.735 121.203 117.229 122.069C119.455 123.359 121.71 124.6 123.94 125.885C125.524 126.798 126.743 128.029 127.21 129.869C127.237 129.973 127.31 130.065 127.4 130.191ZM69.0522 139.398C69.087 139.398 69.1218 139.398 69.2472 139.412C77.484 144.062 85.7199 148.714 93.9602 153.358C94.3809 153.595 94.8238 153.819 95.2842 153.954C97.4752 154.599 99.783 153.514 100.672 151.452C101.622 149.25 100.821 146.824 98.6973 145.621C90.2736 140.852 81.8406 136.098 73.4139 131.334C70.3938 129.627 67.3816 127.905 64.3366 126.149C64.3099 126.126 64.2789 126.114 64.251 126.103C64.251 126.103 64.2425 126.112 64.2359 126.014C63.9711 125.915 63.7063 125.815 63.4512 125.711C63.4512 125.711 63.4525 125.721 63.4058 125.638C62.9425 125.238 62.45 125.032 61.7638 125.423C61.6212 125.417 61.4785 125.412 61.314 125.321C60.1578 125.232 59.2578 125.803 58.4041 126.473C58.3388 126.524 58.3754 126.705 58.3503 126.825C58.3503 126.825 58.3507 126.84 58.2614 126.822C58.2273 126.898 58.1932 126.974 58.1518 127.037C58.1518 127.037 58.1648 127.044 58.066 127.043C57.3457 127.711 56.9633 128.565 56.9657 129.518C56.9739 132.74 57.05 135.961 57.0787 139.183C57.0983 141.382 57.0817 143.582 57.082 145.781C57.0826 149.682 57.0839 153.583 57.0844 157.484C57.0851 162.943 57.0829 168.402 57.0949 173.861C57.0954 174.091 57.2269 174.32 57.3252 174.672C57.3207 176.759 57.3163 178.847 57.2511 181.023C57.2399 181.57 57.2299 182.117 57.2173 182.663C57.2053 183.179 57.7807 184.023 58.2796 184.243C58.2796 184.243 58.2884 184.233 58.2909 184.321C58.3528 184.365 58.4148 184.41 58.4591 184.494C58.4591 184.494 58.4694 184.452 58.462 184.533C58.5076 184.554 58.5532 184.575 58.5607 184.595C58.5607 184.595 58.5983 184.589 58.5754 184.689C58.6735 184.738 58.7716 184.788 58.8459 184.844C58.8459 184.844 58.8704 184.846 58.8622 184.929C58.9094 184.944 58.9565 184.96 58.9943 184.966C58.9943 184.966 59.0068 184.97 58.9918 185.071C59.2423 185.673 59.7222 185.791 60.4088 185.694C61.0409 185.765 61.6877 185.958 62.3025 185.884C64.8041 185.584 66.3865 183.76 66.387 181.239C66.388 176.085 66.3707 170.931 66.361 165.777C66.3606 165.548 66.361 165.319 66.361 165.023C66.6007 165.134 66.7421 165.19 66.8741 165.263C71.6748 167.905 76.4736 170.551 81.2748 173.193C83.5986 174.471 85.8916 175.812 88.2627 176.996C90.6213 178.174 93.4709 176.97 94.3988 174.541C95.2631 172.278 94.3116 170.01 91.9513 168.711C86.027 165.452 80.1005 162.196 74.1787 158.933C71.878 157.665 69.5877 156.378 67.2651 155.01C67.1808 154.983 67.0966 154.956 67.0262 154.928C67.0262 154.928 67.0196 154.94 67.0233 154.838C66.8511 154.563 66.5303 154.288 66.5287 154.012C66.4994 148.903 66.5047 143.795 66.5221 138.686C66.5228 138.492 66.7178 138.298 66.8276 138.115C66.8276 138.115 66.8354 138.106 66.8229 138.211C67.0297 138.289 67.2365 138.368 67.4387 138.449C67.4387 138.449 67.4383 138.444 67.4732 138.523C67.5686 138.557 67.664 138.591 67.7812 138.63C67.7812 138.63 67.8029 138.636 67.7484 138.736C67.8927 139.328 68.4071 139.137 68.774 139.233C68.774 139.233 68.773 139.218 68.8087 139.298C68.8911 139.318 68.9734 139.337 69.0415 139.362C69.0415 139.362 69.0486 139.348 69.0522 139.398Z" fill="#D3155B"/>
<path d="M121.626 236.89C121.429 236.649 121.257 236.443 121.012 236.15C121.407 236.15 121.782 236.115 122.148 236.157C123.362 236.298 124.411 235.884 125.442 235.299C126.891 234.478 127.652 233.188 128.109 231.655C128.143 231.542 128.296 231.465 128.444 231.371C128.733 233.114 129.714 234.408 131.107 235.359C132.064 236.013 133.165 236.41 134.385 236.293C134.552 236.277 134.736 236.427 134.953 236.526C133.286 237.635 131.394 238.175 129.403 238.373C126.684 238.644 124.093 238.172 121.626 236.89Z" fill="#E91C66"/>
<path d="M30.2724 126.64C30.2718 129.647 30.2537 132.654 30.2753 135.661C30.301 139.238 30.3609 142.814 30.4058 146.39C30.4499 149.901 30.5004 153.411 30.5362 156.921C30.5868 161.891 30.5541 166.862 30.7026 171.829C30.7732 174.19 30.6692 176.589 31.3364 178.905C31.3583 178.981 31.385 179.056 31.4584 179.28C31.5646 178.959 31.6246 178.778 31.6846 178.597C31.7331 178.592 31.7816 178.587 31.8301 178.582C31.8727 178.793 31.9953 179.165 31.9459 179.19C31.3445 179.487 31.7632 179.83 31.8656 180.162C32.4409 182.029 33.543 183.609 34.6347 185.19C34.8097 185.443 35.1496 185.582 35.4383 185.739C36.065 186.474 36.4697 187.389 37.4602 187.856C37.9535 188.088 38.6352 188.281 38.641 189.096C36.3435 187.963 34.5454 186.234 33.092 184.133C30.9736 181.071 30.0378 177.656 30.0391 173.948C30.0466 151.342 30.0414 128.737 30.041 106.131C30.0409 104.207 30.0444 102.283 30.0871 100.348C30.1334 100.58 30.1433 100.822 30.1434 101.065C30.1462 109.337 30.147 117.608 30.1553 125.88C30.1555 126.133 30.2316 126.386 30.2724 126.64ZM30.2727 155.505C30.2727 150.63 30.2727 145.755 30.2727 140.88C30.2425 140.88 30.2123 140.88 30.1821 140.88C30.1821 152.232 30.1821 163.584 30.1821 174.935C30.2123 174.935 30.2425 174.935 30.2727 174.935C30.2727 168.503 30.2727 162.07 30.2727 155.505Z" fill="#E41F67"/>
<path d="M225.919 176.875C225.869 176.7 225.802 176.466 225.802 176.233C225.798 144.306 225.798 112.38 225.8 80.4531C225.8 80.2564 225.83 80.0597 225.883 79.8237C225.948 80.4464 225.998 81.1084 225.998 81.7704C226.002 112.458 226.002 143.146 225.998 173.834C225.998 174.829 225.956 175.823 225.919 176.875Z" fill="#9E1C48"/>
<path d="M30.2723 126.577C30.2319 126.387 30.1558 126.133 30.1556 125.88C30.1473 117.608 30.1465 109.337 30.1437 101.066C30.1436 100.823 30.1337 100.58 30.1058 100.29C30.0726 98.058 30.062 95.873 30.086 93.5947C30.1073 93.3566 30.0941 93.2118 30.0809 93.0669C30.0671 91.4554 30.0441 89.844 30.0417 88.2325C30.038 85.6699 30.0481 83.1073 30.0889 80.4411C30.1746 80.0602 30.2237 79.783 30.2727 79.5059C30.2725 95.1754 30.2722 110.845 30.2723 126.577Z" fill="#B91851"/>
<path d="M30.2716 79.4551C30.2232 79.7831 30.1741 80.0603 30.1037 80.3796C29.9377 78.5378 30.2597 76.7221 30.9124 74.9146C30.9384 75.1251 31.0127 75.4078 30.9178 75.6118C30.4745 76.5648 30.3409 77.5591 30.4059 78.6549C30.3612 78.9458 30.3161 79.175 30.2716 79.4551Z" fill="#E41F67"/>
<path d="M30.0621 93.1143C30.0938 93.2113 30.1071 93.3562 30.1004 93.5327C30.0681 93.4302 30.0559 93.2961 30.0621 93.1143Z" fill="#E41F67"/>
<path d="M38.9082 189.318C38.9417 189.302 38.9869 189.315 39.0335 189.357C38.9894 189.394 38.951 189.381 38.9082 189.318Z" fill="#E41F67"/>
<path d="M98.013 70.9685C97.0701 70.4265 96.1643 69.9175 95.2701 69.3887C93.3582 68.2583 92.6947 65.8667 93.7578 63.9736C94.8603 62.0107 97.2134 61.2849 99.1827 62.3945C104.883 65.6063 110.561 68.858 116.248 72.0939C119.647 74.028 122.999 76.0533 126.462 77.8641C128.837 79.1056 131.492 79.3511 134.154 79.2019C136.928 79.0466 139.577 78.4223 141.95 76.8991C143.006 76.2212 143.938 75.4102 144.439 74.2201C145.071 72.7201 144.468 71.4278 143.477 70.4091C142.711 69.6221 141.684 69.0647 140.717 68.5026C133.379 64.2386 126.025 60.0009 118.68 55.7496C116.816 54.6708 116.154 52.3475 117.152 50.454C118.173 48.5186 120.561 47.6965 122.498 48.7245C124.488 49.7807 126.418 50.9507 128.37 52.0784C134.092 55.3842 139.772 58.7653 145.547 61.974C148.855 63.8119 151.172 66.3518 152.243 69.9759C153.5 74.2334 152.357 77.9389 149.407 81.1048C146.4 84.3316 142.545 86.0153 138.274 86.8094C133.173 87.7579 128.169 87.3732 123.385 85.3273C121.527 84.5325 119.817 83.3873 118.05 82.3826C111.383 78.5902 104.72 74.7899 98.013 70.9685Z" fill="#FEFCFE"/>
<path d="M176.952 156.897C176.01 155.819 175.1 154.775 174.078 153.605C174.078 154.892 174.073 156.005 174.078 157.119C174.117 164.551 174.158 171.982 174.196 179.414C174.201 180.431 174.254 181.452 174.184 182.464C174.038 184.587 172.28 186.219 170.2 186.239C168.012 186.259 166.184 184.742 166.056 182.585C165.918 180.27 165.963 177.943 165.951 175.622C165.89 164.629 165.833 153.636 165.785 142.643C165.772 139.589 168.717 137.547 171.471 138.758C172.206 139.081 172.869 139.693 173.41 140.309C178.061 145.611 182.676 150.943 187.303 156.266C187.747 156.776 188.197 157.281 188.771 157.932C188.771 157.566 188.771 157.381 188.771 157.195C188.74 148.48 188.707 139.765 188.678 131.05C188.671 128.982 189.567 127.573 191.318 126.866C193.793 125.867 196.65 127.53 196.848 130.2C196.998 132.225 196.94 134.267 196.946 136.301C196.979 147.117 197.005 157.934 197.029 168.75C197.034 170.993 195.815 172.589 193.721 173.008C192.251 173.303 190.945 172.903 189.932 171.775C188.471 170.146 187.045 168.485 185.607 166.836C182.731 163.536 179.857 160.234 176.952 156.897Z" fill="#FEFDFE"/>
<path d="M67.2935 155.1C69.5886 156.378 71.8789 157.665 74.1796 158.933C80.1014 162.197 86.0279 165.452 91.9522 168.711C94.3125 170.01 95.264 172.279 94.3997 174.541C93.4718 176.97 90.6222 178.174 88.2636 176.996C85.8925 175.812 83.5995 174.472 81.2757 173.193C76.4745 170.552 71.6757 167.906 66.875 165.263C66.743 165.19 66.6016 165.135 66.3619 165.023C66.3619 165.319 66.3615 165.548 66.3619 165.778C66.3716 170.932 66.3889 176.086 66.3879 181.24C66.3874 183.761 64.805 185.585 62.3034 185.884C61.6886 185.958 61.0418 185.765 60.3254 185.659C59.8299 185.406 59.4188 185.188 59.0077 184.971C59.0077 184.971 58.9952 184.966 58.9885 184.94C58.9556 184.874 58.9188 184.851 58.8713 184.847C58.8713 184.847 58.8468 184.844 58.8414 184.807C58.7571 184.71 58.6781 184.649 58.5992 184.589C58.5992 184.589 58.5616 184.595 58.5706 184.563C58.5432 184.504 58.5067 184.478 58.4703 184.452C58.4703 184.452 58.46 184.495 58.4561 184.439C58.3979 184.334 58.3436 184.283 58.2893 184.233C58.2893 184.233 58.2805 184.243 58.2712 184.195C57.5473 183.194 57.3197 182.097 57.3127 180.935C57.3172 178.847 57.3216 176.76 57.3247 174.55C57.303 169.614 57.2792 164.799 57.2631 159.984C57.2377 152.364 57.2175 144.744 57.2097 137.063C57.2124 136.067 57.2005 135.132 57.1932 134.135C57.1955 132.93 57.2391 131.784 57.1786 130.643C57.1084 129.32 57.3798 128.119 58.1657 127.044C58.1657 127.044 58.1527 127.037 58.1897 127.027C58.2683 126.958 58.31 126.899 58.3516 126.84C58.3516 126.84 58.3512 126.826 58.3947 126.805C59.2505 126.002 60.2256 125.561 61.3367 125.407C61.4794 125.412 61.6221 125.418 61.8701 125.429C62.4681 125.531 62.9607 125.626 63.4534 125.722C63.4534 125.722 63.4521 125.711 63.4753 125.748C63.7469 125.895 63.9952 126.004 64.2434 126.112C64.2434 126.112 64.2519 126.103 64.2614 126.131C64.2964 126.189 64.3284 126.199 64.3668 126.19C67.3825 127.905 70.3947 129.627 73.4148 131.334C81.8415 136.099 90.2745 140.852 98.6982 145.622C100.822 146.824 101.623 149.25 100.673 151.452C99.7839 153.514 97.4761 154.6 95.2851 153.955C94.8247 153.819 94.3818 153.595 93.9611 153.358C85.7208 148.714 77.4849 144.062 69.1797 139.384C69.1113 139.357 69.0495 139.349 69.0495 139.349C69.0495 139.349 69.0424 139.362 69.0263 139.325C68.9314 139.264 68.8526 139.241 68.7739 139.218C68.7739 139.218 68.7749 139.233 68.7586 139.191C68.4294 138.978 68.1166 138.807 67.8038 138.636C67.8038 138.636 67.7821 138.63 67.7512 138.596C67.6266 138.523 67.5329 138.483 67.4392 138.444C67.4392 138.444 67.4396 138.449 67.4165 138.411C67.2077 138.283 67.022 138.195 66.8363 138.106C66.8363 138.106 66.8285 138.115 66.8021 138.074C66.6297 137.964 66.4837 137.895 66.2886 137.803C66.2801 137.988 66.2706 138.095 66.2709 138.201C66.2888 143.494 66.3159 148.787 66.3138 154.08C66.3136 154.629 66.5928 154.812 67.0205 154.941C67.0205 154.941 67.0271 154.928 67.0407 154.967C67.134 155.037 67.2138 155.068 67.2935 155.1Z" fill="#FEFDFE"/>
<path d="M57.1953 137.124C57.2177 144.744 57.2379 152.364 57.2633 159.984C57.2793 164.799 57.3032 169.614 57.311 174.489C57.228 174.32 57.0965 174.091 57.096 173.861C57.084 168.402 57.0862 162.943 57.0855 157.484C57.085 153.583 57.0836 149.682 57.0831 145.781C57.0828 143.582 57.0994 141.382 57.0798 139.183C57.0511 135.961 56.975 132.74 56.9668 129.518C56.9644 128.565 57.3468 127.711 58.1165 127.043C57.38 128.118 57.1086 129.319 57.1788 130.643C57.2393 131.783 57.1957 132.93 57.1624 134.18C57.1497 135.233 57.1725 136.178 57.1953 137.124Z" fill="#B5265B"/>
<path d="M67.0209 154.89C66.5914 154.812 66.3122 154.629 66.3124 154.08C66.3145 148.787 66.2874 143.494 66.2695 138.201C66.2692 138.095 66.2787 137.988 66.2872 137.803C66.4823 137.895 66.6283 137.964 66.798 138.069C66.7173 138.299 66.5223 138.492 66.5216 138.686C66.5042 143.795 66.4989 148.904 66.5282 154.012C66.5298 154.289 66.8506 154.563 67.0209 154.89Z" fill="#B21951"/>
<path d="M57.2811 180.979C57.3185 182.097 57.5461 183.194 58.2752 184.191C57.7804 184.024 57.205 183.179 57.217 182.664C57.2297 182.117 57.2396 181.57 57.2811 180.979Z" fill="#B5265B"/>
<path d="M61.3247 125.364C60.2245 125.561 59.2494 126.002 58.4008 126.805C58.3752 126.705 58.3386 126.524 58.4039 126.473C59.2576 125.803 60.1576 125.233 61.3247 125.364Z" fill="#B5265B"/>
<path d="M63.4308 125.68C62.9615 125.626 62.4689 125.531 61.9238 125.42C62.4517 125.032 62.9442 125.239 63.4308 125.68Z" fill="#B5265B"/>
<path d="M59 185.021C59.4186 185.188 59.8297 185.406 60.2731 185.658C59.7229 185.791 59.2429 185.673 59 185.021Z" fill="#B5265B"/>
<path d="M67.7773 138.687C68.1174 138.808 68.4302 138.979 68.7665 139.189C68.4088 139.137 67.8943 139.328 67.7773 138.687Z" fill="#B21951"/>
<path d="M64.2384 126.064C63.9934 126.004 63.7451 125.895 63.4688 125.751C63.7054 125.815 63.9703 125.915 64.2384 126.064Z" fill="#B5265B"/>
<path d="M66.8301 138.159C67.022 138.195 67.2077 138.283 67.4188 138.409C67.2374 138.368 67.0306 138.29 66.8301 138.159Z" fill="#B21951"/>
<path d="M58.5879 184.639C58.6783 184.649 58.7572 184.71 58.8535 184.804C58.7727 184.788 58.6746 184.739 58.5879 184.639Z" fill="#B5265B"/>
<path d="M67.4551 138.484C67.5313 138.483 67.6251 138.523 67.7387 138.593C67.6633 138.591 67.5679 138.557 67.4551 138.484Z" fill="#B21951"/>
<path d="M67.2792 155.055C67.2132 155.068 67.1335 155.036 67.0332 154.967C67.0969 154.956 67.1812 154.983 67.2792 155.055Z" fill="#B21951"/>
<path d="M58.2891 184.277C58.3421 184.283 58.3964 184.333 58.4634 184.419C58.4142 184.41 58.3522 184.366 58.2891 184.277Z" fill="#B5265B"/>
<path d="M68.791 139.258C68.8519 139.241 68.9307 139.265 69.0328 139.323C68.9736 139.338 68.8913 139.318 68.791 139.258Z" fill="#B21951"/>
<path d="M58.307 126.831C58.31 126.899 58.2684 126.958 58.1934 127.033C58.1941 126.974 58.2282 126.898 58.307 126.831Z" fill="#B5265B"/>
<path d="M64.3527 126.169C64.3288 126.199 64.2967 126.189 64.2578 126.136C64.28 126.114 64.3111 126.126 64.3527 126.169Z" fill="#B5265B"/>
<path d="M58.4668 184.493C58.5071 184.478 58.5437 184.504 58.5905 184.563C58.5548 184.575 58.5089 184.555 58.4668 184.493Z" fill="#B5265B"/>
<path d="M69.0508 139.374C69.049 139.349 69.1112 139.357 69.1344 139.378C69.1226 139.399 69.0876 139.399 69.0508 139.374Z" fill="#B21951"/>
<path d="M58.8672 184.888C58.919 184.851 58.956 184.874 58.9937 184.945C58.9578 184.96 58.9104 184.945 58.8672 184.888Z" fill="#B5265B"/>
<path d="M30.2723 155.571C30.2723 162.07 30.2723 168.503 30.2723 174.935C30.2421 174.935 30.2118 174.935 30.1816 174.935C30.1816 163.583 30.1816 152.232 30.1816 140.88C30.2118 140.88 30.2421 140.88 30.2723 140.879C30.2723 145.755 30.2723 150.63 30.2723 155.571Z" fill="#D3155B"/>
<path d="M57.21 137.063C57.1726 136.179 57.1498 135.233 57.1579 134.242C57.2007 135.132 57.2126 136.067 57.21 137.063Z" fill="#CF638C"/>
</g>
<defs>
<clipPath id="clip0_2909_46">
<rect width="256" height="256" fill="white"/>
</clipPath>
</defs>
</svg>
