<svg width="256" height="256" viewBox="0 0 256 256" fill="none" xmlns="http://www.w3.org/2000/svg">
<circle cx="128" cy="128" r="126" fill="black"/>
<path fill-rule="evenodd" clip-rule="evenodd" d="M60 196L190.675 87.1851C192.279 85.7897 193.579 84.0791 194.493 82.1598C195.408 80.2405 195.918 78.1535 195.991 76.0287C196.064 73.9039 195.699 71.7867 194.919 69.809C194.139 67.8312 192.96 66.0352 191.456 64.5326C189.952 63.0301 188.155 61.8531 186.176 61.075C184.197 60.2969 182.08 59.9343 179.955 60.0098C177.83 60.0852 175.744 60.5971 173.826 61.5136C171.907 62.4301 170.198 63.7316 168.804 65.3371L60 196ZM123.034 80.0895L68.0195 121.348L109.279 66.3346C110.124 65.2124 111.201 64.2847 112.436 63.6142C113.671 62.9437 115.036 62.5461 116.437 62.4481C117.839 62.3501 119.246 62.5541 120.562 63.0462C121.878 63.5384 123.074 64.3072 124.067 65.3009C125.061 66.2946 125.83 67.4899 126.322 68.8061C126.814 70.1224 127.018 71.5289 126.92 72.9307C126.822 74.3325 126.425 75.697 125.754 76.932C125.084 78.167 124.156 79.2437 123.034 80.0895ZM189.649 146.722L134.635 187.981L175.894 132.972C176.74 131.85 177.817 130.922 179.052 130.252C180.287 129.582 181.651 129.184 183.053 129.086C184.455 128.988 185.861 129.192 187.178 129.684C188.494 130.176 189.689 130.945 190.683 131.939C191.677 132.932 192.445 134.128 192.938 135.444C193.43 136.76 193.634 138.167 193.536 139.568C193.438 140.97 193.04 142.335 192.37 143.57C191.699 144.805 190.771 145.876 189.649 146.722Z" fill="white"/>
</svg>
