<svg width="256" height="256" viewBox="0 0 256 256" fill="none" xmlns="http://www.w3.org/2000/svg">
<g clip-path="url(#clip0_741_46)">
<path d="M128 256C198.692 256 256 198.692 256 128C256 57.3075 198.692 0 128 0C57.3075 0 0 57.3075 0 128C0 198.692 57.3075 256 128 256Z" fill="url(#paint0_linear_741_46)"/>
<path fill-rule="evenodd" clip-rule="evenodd" d="M119.293 99.1213L76.434 58.7786C43.8478 84.4863 23.6608 148.88 71.4633 197.728C66.1335 113.37 119.293 99.1213 119.293 99.1213Z" fill="white"/>
<path d="M174.442 114.833C175.712 97.7406 173.309 81.5041 165.798 67.8909C185.239 78.6601 199.13 97.6026 203.493 119.528C200.732 125.796 197.142 130.352 195.264 132.727C195.098 132.948 194.932 133.141 194.794 133.306C191.232 137.89 189.133 139.602 189.133 139.602C189.133 139.602 190.79 140.431 200.373 131.898C201.588 130.821 202.968 129.33 204.46 127.508C204.543 128.226 204.625 128.916 204.763 129.634C204.791 129.855 204.846 130.076 204.874 130.269C205.122 134.88 204.929 139.575 204.322 144.324C204.211 145.18 204.073 146.064 203.935 146.92C200.428 159.484 191.425 167.519 187.808 170.722C187.614 170.916 187.421 171.081 187.255 171.219C182.947 175.113 180.572 176.438 180.572 176.438C180.572 176.438 182.063 177.543 192.972 170.805C194.27 170.004 195.761 168.872 197.418 167.492C192.116 178.482 184.3 187.87 174.801 195.105C161.103 207.282 143.07 214.738 123.27 214.738C106.977 214.738 91.8713 209.685 79.3613 201.124C80.3555 199.468 167.842 204.438 174.442 114.833Z" fill="url(#paint1_linear_741_46)"/>
<path d="M168.366 52.7309C168.394 52.5929 168.421 52.4547 168.449 52.2892C168.78 48.6717 167.207 45.0269 164.666 42.4864C163.396 41.2162 161.904 40.1944 160.303 39.4214C158.673 38.6482 156.934 38.0959 155.166 37.7369C150.858 36.9084 146.191 37.2122 141.828 37.5437C139.812 37.7094 136.388 37.9854 134.178 38.2892C133.405 38.3997 133.212 39.4489 133.902 39.8079C136.802 41.3267 139.563 43.1767 141.358 45.9932C143.291 49.0584 144.285 52.6204 146.439 55.5749C149.67 60.0207 155.718 62.6439 161.076 60.9044C163.092 60.2417 164.887 59.0542 166.24 57.4527C184.963 68.0287 199.875 85.0107 206.973 105.196C217.522 134.135 212.247 167.105 193.137 191.266C148.207 247.045 60.9145 231.333 36.4195 163.957C38.8772 171.688 41.694 179.503 46.1952 186.406C47.797 189.499 51.1937 193.751 53.2097 196.596L57.3242 201.235C65.609 210.43 76.2962 217.72 87.5357 222.8C131.472 242.627 184.328 224.706 207.525 182.54C234.505 134.632 213.932 75.8707 168.366 52.7309Z" fill="white"/>
<path d="M174.442 114.833C175.712 97.7406 173.309 81.5041 165.798 67.8909C185.239 78.6601 199.13 97.6026 203.493 119.528C200.732 125.796 197.142 130.352 195.264 132.727C195.098 132.948 194.932 133.141 194.794 133.306C191.232 137.89 189.133 139.602 189.133 139.602C189.133 139.602 190.79 140.431 200.373 131.898C201.588 130.821 202.968 129.33 204.46 127.508C204.543 128.226 204.625 128.916 204.763 129.634C204.791 129.855 204.846 130.076 204.874 130.269C205.122 134.88 204.929 139.575 204.322 144.324C204.211 145.18 204.073 146.064 203.935 146.92C200.428 159.484 191.425 167.519 187.808 170.722C187.614 170.916 187.421 171.081 187.255 171.219C182.947 175.113 180.572 176.438 180.572 176.438C180.572 176.438 182.063 177.543 192.972 170.805C194.27 170.004 195.761 168.872 197.418 167.492C192.116 178.482 184.3 187.87 174.801 195.105C161.103 207.282 143.07 214.738 123.27 214.738C106.977 214.738 91.8713 209.685 79.3613 201.124C80.3555 199.468 167.842 204.438 174.442 114.833Z" fill="white"/>
<path fill-rule="evenodd" clip-rule="evenodd" d="M119.294 99.1221C119.294 99.1221 66.1063 113.37 71.4638 197.729C71.4638 197.729 36.6405 131.54 89.5795 83.5481C91.7335 81.5876 93.998 79.5718 96.3177 77.5286L119.294 99.1221Z" fill="url(#paint2_linear_741_46)"/>
<path fill-rule="evenodd" clip-rule="evenodd" d="M135.228 82.0828C139.48 62.2346 120.917 56.4493 99.0815 48.6676C77.2465 40.8861 72.5368 25.2676 72.5368 25.2676C72.5368 25.2676 69.0843 42.5506 76.4865 60.3656C80.9918 71.2086 90.426 82.2483 104.48 89.7088C104.48 89.7088 95.4965 93.0458 90.054 105.115C90.054 105.115 115.16 90.2511 137.65 107.693L135.641 116.348C135.624 116.383 157.169 106.125 135.228 82.0828Z" fill="white"/>
<path fill-rule="evenodd" clip-rule="evenodd" d="M98.5228 93.5378C95.7443 95.9228 92.5268 99.6118 90.028 105.126C90.028 105.126 115.134 90.2613 137.624 107.704C137.65 107.694 126.323 89.5328 98.5228 93.5378Z" fill="url(#paint3_linear_741_46)"/>
<path fill-rule="evenodd" clip-rule="evenodd" d="M72.5498 25.3176C72.5498 25.3176 63.107 68.5754 104.872 89.5694C114.343 85.6394 123.74 87.2876 123.74 87.2876C69.721 57.4441 72.5498 25.3176 72.5498 25.3176Z" fill="url(#paint4_linear_741_46)"/>
<path d="M168.366 52.7312C168.394 52.5932 168.421 52.4552 168.449 52.2895C168.78 48.6722 167.206 45.0272 164.666 42.4867C163.395 41.2165 161.904 40.195 160.302 39.4217C158.673 38.6485 156.933 38.0962 155.166 37.7372C150.858 36.909 146.191 37.2127 141.828 37.544C139.812 37.7097 136.387 37.986 134.178 38.2897C133.405 38.4 133.212 39.4495 133.902 39.8082C134.565 40.1397 135.2 40.5262 135.807 40.8852C136.774 40.8025 137.713 40.7472 138.431 40.692C142.794 40.3605 147.434 40.0567 151.769 40.8852C153.537 41.2165 155.276 41.769 156.906 42.5697C158.507 43.3427 159.999 44.3645 161.269 45.6347C163.81 48.1752 165.384 51.82 165.052 55.4375C165.025 55.5755 164.997 55.7135 164.969 55.8792C210.507 79.019 231.108 137.78 204.101 185.634C199.627 193.752 194.076 200.959 187.669 207.172C195.484 200.296 202.223 192.012 207.442 182.513C234.505 134.632 213.932 75.8712 168.366 52.7312Z" fill="url(#paint5_linear_741_46)"/>
<path d="M182.119 202.782C135.2 244.284 59.0365 226.17 36.4195 163.957C38.8772 171.689 41.694 179.504 46.1952 186.407C47.797 189.5 51.1937 193.752 53.2097 196.596L57.3242 201.235C64.5872 209.298 73.728 215.898 83.4762 220.841C115.538 234.564 154.558 229.704 182.119 202.782Z" fill="url(#paint6_linear_741_46)"/>
<path d="M198.191 120.052C195.512 126.155 191.978 130.628 190.155 132.948C189.989 133.169 189.851 133.334 189.713 133.528C186.234 138.001 184.19 139.685 184.19 139.685C184.19 139.685 185.792 140.486 195.153 132.147C196.01 131.401 196.948 130.352 197.97 129.22C199.738 126.735 201.809 123.476 203.521 119.555C199.158 97.6305 185.267 78.6877 165.826 67.9187C166.986 70.0172 167.98 72.2262 168.919 74.4355C183.914 85.315 194.518 101.579 198.191 120.052Z" fill="url(#paint7_linear_741_46)"/>
<path d="M204.847 130.297C204.819 130.076 204.792 129.883 204.736 129.662C204.626 128.944 204.516 128.226 204.433 127.536C202.941 129.358 201.561 130.849 200.346 131.926C200.069 132.175 199.793 132.395 199.517 132.644C199.6 136.482 199.434 140.376 198.91 144.297C198.799 145.153 198.661 145.981 198.523 146.81C195.099 159.07 186.289 166.912 182.782 170.06C182.589 170.226 182.395 170.391 182.23 170.557C178.005 174.34 175.713 175.665 175.713 175.665C175.713 175.665 177.149 176.742 187.836 170.17C188.554 169.728 189.355 169.176 190.183 168.541C194.436 164.482 201.008 157.303 203.88 146.975C204.018 146.119 204.156 145.263 204.267 144.38C204.902 139.602 205.095 134.908 204.847 130.297Z" fill="url(#paint8_linear_741_46)"/>
<path d="M170.134 193.835C156.74 205.736 139.149 212.998 119.818 212.998C106.397 212.998 93.8322 209.464 82.8965 203.361C94.6607 210.541 108.468 214.738 123.27 214.738C143.071 214.738 161.076 207.31 174.801 195.105C184.3 187.898 192.116 178.482 197.418 167.492C195.761 168.9 194.27 170.005 192.972 170.805C191.342 171.827 189.934 172.628 188.691 173.318C183.776 181.326 177.479 188.257 170.134 193.835Z" fill="url(#paint9_linear_741_46)"/>
</g>
<defs>
<linearGradient id="paint0_linear_741_46" x1="-247.711" y1="-208.118" x2="-285.783" y2="305.135" gradientUnits="userSpaceOnUse">
<stop stop-color="#2B9FEA"/>
<stop offset="1" stop-color="#2757FF"/>
</linearGradient>
<linearGradient id="paint1_linear_741_46" x1="71.4485" y1="71.0561" x2="303.643" y2="342.55" gradientUnits="userSpaceOnUse">
<stop stop-color="#27FFD8"/>
<stop offset="0.3658" stop-color="#2BA1E9"/>
<stop offset="1" stop-color="#2D59F5"/>
</linearGradient>
<linearGradient id="paint2_linear_741_46" x1="101.522" y1="188.37" x2="84.89" y2="104.686" gradientUnits="userSpaceOnUse">
<stop stop-color="#2972F8" stop-opacity="0.46"/>
<stop offset="1" stop-color="white"/>
</linearGradient>
<linearGradient id="paint3_linear_741_46" x1="152.807" y1="108.055" x2="100.951" y2="99.171" gradientUnits="userSpaceOnUse">
<stop stop-color="#2A78F6" stop-opacity="0.4"/>
<stop offset="1" stop-color="white"/>
</linearGradient>
<linearGradient id="paint4_linear_741_46" x1="61.3115" y1="2.46296" x2="100.744" y2="77.2684" gradientUnits="userSpaceOnUse">
<stop stop-color="#2972F8"/>
<stop offset="1" stop-color="white"/>
</linearGradient>
<linearGradient id="paint5_linear_741_46" x1="288.965" y1="223.245" x2="162.139" y2="112.522" gradientUnits="userSpaceOnUse">
<stop stop-color="#2973F8"/>
<stop offset="1" stop-color="white"/>
</linearGradient>
<linearGradient id="paint6_linear_741_46" x1="226.113" y1="295.24" x2="99.286" y2="184.517" gradientUnits="userSpaceOnUse">
<stop stop-color="#2970F9" stop-opacity="0.74"/>
<stop offset="1" stop-color="white"/>
</linearGradient>
<linearGradient id="paint7_linear_741_46" x1="114.235" y1="84.171" x2="212.48" y2="115.882" gradientUnits="userSpaceOnUse">
<stop stop-color="white"/>
<stop offset="0.832316" stop-color="#88B1FF" stop-opacity="0.284208"/>
<stop offset="1" stop-color="#71A1FF" stop-opacity="0"/>
</linearGradient>
<linearGradient id="paint8_linear_741_46" x1="101.687" y1="123.047" x2="199.932" y2="154.758" gradientUnits="userSpaceOnUse">
<stop stop-color="white"/>
<stop offset="1" stop-color="#D1E3FF"/>
</linearGradient>
<linearGradient id="paint9_linear_741_46" x1="86.746" y1="169.336" x2="184.99" y2="201.047" gradientUnits="userSpaceOnUse">
<stop stop-color="white"/>
<stop offset="1" stop-color="#AFCCFF"/>
</linearGradient>
<clipPath id="clip0_741_46">
<rect width="256" height="256" fill="white"/>
</clipPath>
</defs>
</svg>
