<svg width="46" height="34" viewBox="0 0 46 34" fill="none" xmlns="http://www.w3.org/2000/svg">
<path fill-rule="evenodd" clip-rule="evenodd" d="M23.005 26L46 25.0001L23.005 24L0 25.0001L23.005 26Z" fill="#8817D1"/>
<path fill-rule="evenodd" clip-rule="evenodd" d="M22.5047 30L38 29.0002L22.5047 28L7 29.0002L22.5047 30Z" fill="#8817D1"/>
<path fill-rule="evenodd" clip-rule="evenodd" d="M23.0049 34L31 32.9999L23.0049 32L15 32.9999L23.0049 34Z" fill="#8817D1"/>
<path fill-rule="evenodd" clip-rule="evenodd" d="M46 21V20.9604C45.9982 20.1301 45.9436 19.334 45.8429 18.5378L45.5728 16.9517C45.3425 15.8703 45.0236 14.8193 44.6203 13.8056L44.2754 12.9407L43.7908 11.9923C42.8018 10.0863 41.5089 8.34032 39.9683 6.80552L24.1329 6.17949L38.6613 5.60561C34.5552 2.12291 29.0512 0 22.9999 0C18.0824 0 13.5257 1.4022 9.78683 3.79685L24.1329 4.36376L8.08597 4.99839C6.7529 6.03392 5.55164 7.20559 4.50836 8.4916L3.8561 9.31084L3.26638 10.2597C2.42746 11.4733 1.75658 12.7885 1.23915 14.1698L0.992569 14.9178L0.69969 15.8268C0.243823 17.4818 0 19.2261 0 21H45.9998H46Z" fill="url(#paint0_linear_2_273)"/>
<path d="M29.9369 11.7262C32.5525 10.2411 34.4466 9.68479 37.4675 10.5277C40.488 11.3705 40.7325 17.3613 42 19.9299C40.1996 17.6068 39.1689 13.1679 36.0195 12.9661C32.8696 12.7647 29.6827 13.917 27.6437 15.9944C28.124 16.3997 28.6044 16.8049 29.0843 17.2097C25.0272 19.6696 19.5405 20.2221 14.8493 18.6437C16.5342 18.4575 18.1375 17.8123 19.3871 16.8177C17.4908 13.9085 13.0606 13.0324 9.37503 13.6223C5.68905 14.2126 5.54464 18.9627 2 20C5.0518 16.3654 6.63143 11.7824 11.2071 10.4184C12.9647 9.89406 13.895 9.80031 15.6084 10.4986C17.6763 11.3419 20.5569 14.3637 22.7912 14.694C24.7807 14.9887 28.2659 12.6752 29.937 11.7262H29.9369Z" fill="black"/>
<defs>
<linearGradient id="paint0_linear_2_273" x1="22.9999" y1="21.0002" x2="22.9999" y2="-0.000360499" gradientUnits="userSpaceOnUse">
<stop stop-color="#9900CC"/>
<stop offset="1" stop-color="#00CCFF"/>
</linearGradient>
</defs>
</svg>
