<svg width="300" height="300" viewBox="0 0 300 300" fill="none" xmlns="http://www.w3.org/2000/svg">
<circle cx="150" cy="150" r="150" fill="white"/>
<g clip-path="url(#clip0_3724_3418)">
<path d="M190.489 232.518C193.057 232.518 195.282 233.974 195.282 235.857C195.282 237.74 193.057 239.195 190.489 239.195H120.297C117.729 239.195 115.503 237.74 115.503 235.857C115.503 233.974 117.729 232.518 120.297 232.518H190.489Z" fill="#E1177C"/>
<path d="M105.06 239.11C107.707 239.11 109.854 236.964 109.854 234.316C109.854 231.669 107.707 229.523 105.06 229.523C102.413 229.523 100.266 231.669 100.266 234.316C100.266 236.964 102.413 239.11 105.06 239.11Z" fill="#E1177C"/>
<path d="M147.261 221.39C149.908 221.39 152.054 219.244 152.054 216.597C152.054 213.949 149.908 211.803 147.261 211.803C144.613 211.803 142.467 213.949 142.467 216.597C142.467 219.244 144.613 221.39 147.261 221.39Z" fill="#E1177C"/>
<path d="M229.608 211.803C232.176 211.803 234.402 214.029 234.402 216.597C234.402 219.165 232.176 221.39 229.608 221.39H160.871C158.303 221.39 156.078 219.165 156.078 216.597C156.078 214.029 158.303 211.803 160.871 211.803H229.608Z" fill="#E1177C"/>
<path d="M57.0384 203.671C59.6858 203.671 61.832 201.525 61.832 198.878C61.832 196.23 59.6858 194.084 57.0384 194.084C54.3909 194.084 52.2448 196.23 52.2448 198.878C52.2448 201.525 54.3909 203.671 57.0384 203.671Z" fill="#E1177C"/>
<path d="M125.433 194.084C128.001 194.084 130.226 196.31 130.226 198.878C130.226 201.446 128.001 203.671 125.433 203.671H68.8512C66.2832 203.671 64.0576 201.446 64.0576 198.878C64.0576 196.31 66.2832 194.084 68.8512 194.084H125.433Z" fill="#E1177C"/>
<path d="M252.206 194.084C254.774 194.084 257 196.31 257 198.878C257 201.446 254.774 203.671 252.206 203.671H139.814C137.246 203.671 135.02 201.446 135.02 198.878C135.02 196.31 137.246 194.084 139.814 194.084H252.206Z" fill="#E1177C"/>
<path d="M231.149 176.279C233.717 176.279 235.943 178.505 235.943 181.073C235.943 183.641 233.717 185.867 231.149 185.867H93.2472C90.6792 185.867 88.4536 183.641 88.4536 181.073C88.4536 178.505 90.6792 176.279 93.2472 176.279H231.149Z" fill="#E1177C"/>
<path d="M78.096 185.867C80.7434 185.867 82.8896 183.72 82.8896 181.073C82.8896 178.425 80.7434 176.279 78.096 176.279C75.4485 176.279 73.3024 178.425 73.3024 181.073C73.3024 183.72 75.4485 185.867 78.096 185.867Z" fill="#E1177C"/>
<path d="M202.302 158.902C204.87 158.902 207.095 161.128 207.095 163.696C207.095 166.264 204.87 168.49 202.302 168.49H64.4C61.832 168.49 59.6064 166.264 59.6064 163.696C59.6064 161.128 61.832 158.902 64.4 158.902H202.302Z" fill="#E1177C"/>
<path d="M47.7936 168.575C50.441 168.575 52.5872 166.429 52.5872 163.782C52.5872 161.134 50.441 158.988 47.7936 158.988C45.1462 158.988 43 161.134 43 163.782C43 166.429 45.1462 168.575 47.7936 168.575Z" fill="#E1177C"/>
<path d="M78.096 150.77C80.7434 150.77 82.8896 148.624 82.8896 145.977C82.8896 143.329 80.7434 141.183 78.096 141.183C75.4485 141.183 73.3024 143.329 73.3024 145.977C73.3024 148.624 75.4485 150.77 78.096 150.77Z" fill="#E1177C"/>
<path d="M244.417 141.183C246.985 141.183 249.21 143.409 249.21 145.977C249.21 148.545 246.985 150.77 244.417 150.77H94.36C91.792 150.77 89.5664 148.545 89.5664 145.977C89.5664 143.409 91.792 141.183 94.36 141.183H244.417Z" fill="#E1177C"/>
<path d="M192.287 66.1976C216.683 76.5552 232.947 102.064 231.063 127.915C187.407 127.915 143.837 128.258 100.181 127.573C100.181 110.196 106.087 92.4768 118.671 80.236C137.16 61.404 167.805 55.4976 192.201 66.1976H192.287Z" fill="#53CBC9"/>
</g>
<defs>
<clipPath id="clip0_3724_3418">
<rect width="214" height="214" fill="white" transform="translate(43 43)"/>
</clipPath>
</defs>
</svg>
