<svg width="48" height="48" viewBox="0 0 48 48" fill="none" xmlns="http://www.w3.org/2000/svg">
<g clip-path="url(#clip0_5941_7930)">
<path opacity="0.989" fill-rule="evenodd" clip-rule="evenodd" d="M21.936 -0.0479736C23.312 -0.0479736 24.688 -0.0479736 26.064 -0.0479736C31.8901 0.616353 36.9301 3.01636 41.184 7.15203C45.0759 11.3205 47.3319 16.2485 47.952 21.936C47.952 23.312 47.952 24.6881 47.952 26.064C46.678 35.5781 41.686 42.3141 32.976 46.272C32.0867 46.4863 31.2227 46.7743 30.384 47.136C28.9918 47.4583 27.5838 47.6824 26.16 47.808C26.1066 47.8448 26.0747 47.8928 26.064 47.952C24.688 47.952 23.312 47.952 21.936 47.952C13.0883 46.8981 6.57639 42.4502 2.4 34.608C1.76123 33.2356 1.21723 31.8276 0.767996 30.384C0.472235 28.9015 0.200236 27.4294 -0.0480042 25.968C-0.0480042 24.624 -0.0480042 23.28 -0.0480042 21.936C1.1976 12.3831 6.1896 5.61502 14.928 1.63203C15.9758 1.35704 16.9678 1.03705 17.904 0.672026C19.1731 0.408434 20.4532 0.216434 21.744 0.0960264C21.8319 0.069298 21.8959 0.021298 21.936 -0.0479736Z" fill="#BE994B"/>
<path fill-rule="evenodd" clip-rule="evenodd" d="M30.768 20.976C30.596 20.9888 30.436 20.9569 30.288 20.88C29.4862 20.0142 28.7182 19.1181 27.984 18.192C28.4036 17.7565 28.8677 17.3725 29.376 17.04C29.4537 16.4401 29.4376 15.848 29.328 15.264C26.5203 15.1056 23.7042 15.0736 20.88 15.168C17.1492 17.3651 15.8532 20.5492 16.992 24.72C17.3351 25.5027 17.7511 26.2387 18.24 26.928C19.0883 27.8083 19.9683 28.6563 20.88 29.472C21.328 29.792 21.776 30.112 22.224 30.432C22.3687 30.5123 22.4167 30.6244 22.368 30.768C21.6197 31.3562 20.8997 31.9802 20.208 32.64C19.2544 32.5537 18.3264 32.3296 17.424 31.968C15.2874 31.0464 13.4154 29.7504 11.808 28.08C9.96787 25.4083 9.32789 22.4643 9.888 19.248C11.0672 15.765 13.3232 13.253 16.656 11.712C17.454 11.3845 18.2859 11.1765 19.152 11.088C22.4953 11.0308 25.8233 10.9667 29.136 10.896C29.7398 10.4047 30.3318 9.89259 30.912 9.35999C32.103 10.2818 33.2389 11.2577 34.32 12.288C33.9213 12.7509 33.5213 13.2149 33.12 13.68C33.0503 14.6751 33.0824 15.6671 33.216 16.656C34.4144 17.1196 35.6144 17.5835 36.816 18.048C34.8395 19.1324 32.8235 20.1084 30.768 20.976Z" fill="#FEFEFD"/>
<path fill-rule="evenodd" clip-rule="evenodd" d="M29.136 10.896C25.8233 10.9668 22.4953 11.0308 19.152 11.088C19.3566 11.0099 19.5805 10.9619 19.824 10.944C22.9279 10.896 26.0318 10.88 29.136 10.896Z" fill="#EBE0C9"/>
<path fill-rule="evenodd" clip-rule="evenodd" d="M30.288 20.88C30.436 20.9569 30.596 20.9889 30.768 20.976C30.5514 21.2453 30.3914 21.2133 30.288 20.88Z" fill="#E8DABE"/>
<path fill-rule="evenodd" clip-rule="evenodd" d="M36.336 23.76C32.3203 23.6641 28.2883 23.6321 24.24 23.664C24.24 23.76 24.24 23.856 24.24 23.952C24.1503 23.8495 24.1183 23.7215 24.144 23.568C28.2405 23.536 32.3365 23.568 36.432 23.664C36.4201 23.7223 36.3881 23.7543 36.336 23.76Z" fill="#F5EFE4"/>
<path fill-rule="evenodd" clip-rule="evenodd" d="M36.336 23.76C34.6789 24.7913 33.031 25.8473 31.392 26.928C31.328 28.6241 31.328 30.32 31.392 32.016C32.0864 32.87 32.7423 33.75 33.36 34.656C32.614 35.6904 31.8301 36.6984 31.008 37.68C30.5269 38.2409 30.031 38.7849 29.52 39.312C28.2365 37.8523 27.0044 36.3482 25.824 34.8C25.7741 34.6283 25.8061 34.4683 25.92 34.32C26.4 33.7121 26.88 33.104 27.36 32.496C27.424 30.6401 27.424 28.784 27.36 26.928C26.3009 25.9488 25.261 24.9569 24.24 23.952C24.24 23.856 24.24 23.76 24.24 23.664C28.2883 23.6322 32.3203 23.6641 36.336 23.76Z" fill="#FEFEFD"/>
</g>
<defs>
<clipPath id="clip0_5941_7930">
<rect width="48" height="48" fill="white"/>
</clipPath>
</defs>
</svg>
