<svg width="256" height="256" viewBox="0 0 256 256" fill="none" xmlns="http://www.w3.org/2000/svg">
<circle cx="128" cy="128" r="127" fill="url(#paint0_linear_741_46)"/>
<path d="M194.827 134.155V197.934C194.827 198.709 194.521 199.277 193.858 199.69C193.195 200.103 192.583 200.103 191.92 199.69L183.048 195.197L173.409 190.343C171.624 191.376 169.737 192.305 167.8 193.08C165.862 193.854 163.924 194.577 162.038 195.249C152.4 198.347 142.405 199.948 132.001 199.948C119.151 199.948 107.932 197.883 98.2943 193.803C88.6564 189.723 80.6502 184.3 74.2249 177.638C67.7996 170.925 63.0061 163.282 59.7935 154.709C56.5808 146.136 55 137.408 55 128.474C55 119.54 56.5808 110.812 59.7935 102.24C63.0061 93.6665 67.7996 86.0235 74.2249 79.3099C80.6502 72.5962 88.6564 67.2254 98.2943 63.1455C107.932 59.0658 119.151 57 132.001 57C142.507 57 152.909 58.6526 163.108 61.9578C173.307 65.2629 182.282 70.6855 189.983 78.2253C190.391 78.6385 190.543 79.1549 190.543 79.7746C190.543 80.446 190.34 80.9624 189.983 81.3239L161.477 105.7C160.967 106.216 160.456 106.371 159.947 106.113C159.437 106.01 158.978 105.596 158.621 104.925C156.173 100.38 153.215 96.0941 149.748 92.169C146.28 88.1925 142.252 85.0422 137.611 82.7183C134.143 80.9108 130.472 79.723 126.546 79.2066C122.618 78.6901 118.743 79 114.919 80.1878C111.043 81.3756 107.677 83.2864 104.822 85.9202C101.915 88.6056 99.5692 91.7559 97.7844 95.3711C95.2346 100.329 93.7048 105.648 93.2459 111.38C92.787 117.113 92.8889 122.69 93.5518 128.164C95.0817 140.662 100.334 151.3 109.36 160.131C115.785 166.38 123.282 171.131 131.899 174.385C140.518 177.638 149.34 179.24 158.468 179.24V134L153.062 119.591C152.807 118.92 152.858 118.352 153.266 117.836C153.674 117.164 154.235 116.854 155 116.854H198.907C199.672 116.854 200.232 117.164 200.64 117.836C201.048 118.352 201.099 118.92 200.844 119.591L194.827 134.155Z" fill="white"/>
<defs>
<linearGradient id="paint0_linear_741_46" x1="128" y1="1" x2="128" y2="255" gradientUnits="userSpaceOnUse">
<stop stop-color="#292E35"/>
<stop offset="1" stop-color="#1E2429"/>
</linearGradient>
</defs>
</svg>
