<svg width="256" height="256" viewBox="0 0 256 256" fill="none" xmlns="http://www.w3.org/2000/svg">
<circle cx="129.5" cy="129.5" r="126.5" fill="white"/>
<path fill-rule="evenodd" clip-rule="evenodd" d="M147.59 195.212L147.591 204H216V179.342H182.218C202.543 163.942 215.601 140.003 215.601 113.12C215.601 66.6616 176.605 29 128.5 29C80.3944 29 41.3977 66.6616 41.3977 113.12C41.3977 140.003 54.4562 163.942 74.7818 179.342H41V204H109.409V203.603L109.409 170.858C84.4829 163.012 66.4542 140.216 66.4542 113.319C66.4542 79.9302 94.2327 52.8638 128.5 52.8638C162.766 52.8638 190.545 79.9302 190.545 113.319C190.545 140.216 172.516 163.012 147.59 170.858V195.212Z" fill="black"/>
</svg>
