<?xml version="1.0" encoding="UTF-8"?>
<svg xmlns="http://www.w3.org/2000/svg" viewBox="0 0 156.92 152.99">
  <defs>
    <style>
      .cls-1 {
        fill: none;
        stroke: #a02900;
        stroke-width: 4px;
      }

      .cls-1, .cls-2 {
        stroke-miterlimit: 10;
      }

      .cls-3 {
        fill: #fae25a;
      }

      .cls-3, .cls-4, .cls-2 {
        fill-rule: evenodd;
      }

      .cls-3, .cls-4, .cls-5, .cls-6 {
        stroke-width: 0px;
      }

      .cls-4 {
        fill: #fec33e;
      }

      .cls-2 {
        stroke: #ee7325;
        stroke-width: 3px;
      }

      .cls-2, .cls-5 {
        fill: #ee7325;
      }

      .cls-6 {
        fill: #ffef94;
      }
    </style>
  </defs>
  <g id="Layer_2" data-name="Layer 2">
    <g>
      <path class="cls-5" d="m77.65,2s-.03,0-.04,0c-.03,0-.05,0-.08,0-3.86,0-7.65.3-11.37.87-.19.03-.38.07-.57.1-1.03.17-2.05.34-3.07.55-.34.07-.67.15-1,.22-.86.19-1.72.38-2.56.59-.43.11-.86.23-1.29.35-.74.2-1.48.41-2.21.63-.49.15-.97.31-1.45.47-.67.22-1.33.44-1.99.68-.5.18-1,.37-1.5.57-.63.24-1.27.49-1.9.75-.49.2-.97.41-1.45.62-.64.28-1.28.57-1.91.87-.43.2-.86.42-1.29.63-.69.34-1.38.69-2.05,1.05-.34.18-.68.37-1.02.56-.78.43-1.55.88-2.32,1.33-.21.13-.43.26-.64.39-.92.56-1.83,1.14-2.72,1.74-.04.03-.08.06-.12.08C16.22,27.75,3.28,48.52,2.09,72c-.2,4.02-.04,7.96.44,11.79,3.89,38,35.76,67.19,75.47,67.19,41.91,0,77.83-36.46,76.91-74.61C153.92,35.31,119.57,2,77.65,2Z"/>
      <path class="cls-1" d="m77.65,2s-.03,0-.04,0c-.03,0-.05,0-.08,0-3.86,0-7.65.3-11.37.87-.19.03-.38.07-.57.1-1.03.17-2.05.34-3.07.55-.34.07-.67.15-1,.22-.86.19-1.72.38-2.56.59-.43.11-.86.23-1.29.35-.74.2-1.48.41-2.21.63-.49.15-.97.31-1.45.47-.67.22-1.33.44-1.99.68-.5.18-1,.37-1.5.57-.63.24-1.27.49-1.9.75-.49.2-.97.41-1.45.62-.64.28-1.28.57-1.91.87-.43.2-.86.42-1.29.63-.69.34-1.38.69-2.05,1.05-.34.18-.68.37-1.02.56-.78.43-1.55.88-2.32,1.33-.21.13-.43.26-.64.39-.92.56-1.83,1.14-2.72,1.74-.04.03-.08.06-.12.08C16.22,27.75,3.28,48.52,2.09,72c-.2,4.02-.04,7.96.44,11.79,3.89,38,35.76,67.19,75.47,67.19,41.91,0,77.83-36.46,76.91-74.61C153.92,35.31,119.57,2,77.65,2Z"/>
    </g>
  </g>
  <g id="Layer_10" data-name="Layer 10">
    <g>
      <path class="cls-4" d="m79.06,25.03c28.62,0,50.68,22.37,49.26,49.95-1.42,27.59-25.77,49.95-54.39,49.95s-50.68-22.37-49.26-49.95c1.42-27.59,25.77-49.95,54.39-49.95Z"/>
      <path class="cls-3" d="m78.19,2.54C38.49,2.54,4.7,33.88,2.74,72.54c-1.96,38.66,28.64,70,68.34,70s73.49-31.34,75.45-70C148.5,33.88,117.9,2.54,78.19,2.54Zm48.88,69c-1.46,28.45-26.57,51.5-56.08,51.5s-52.25-23.06-50.79-51.5c1.46-28.45,26.57-51.5,56.08-51.5s52.25,23.06,50.79,51.5Z"/>
      <path class="cls-2" d="m109.04,65.78c-.19-.06-.4-.11-.61-.12l-29.75-1.38c-1.07-.05-2.04.63-2.38,1.66l-2.71,8.28c-.09.26-.17.52-.25.77l-.18.55c-.06.19-.1.37-.11.56-.03.17-.06.33-.08.48-.29,2.18,4.63,6.25,6.13,6.44l2.17.28c-.15.18-.32.34-.53.49-2.02,1.37-4.84,2.55-8.5,2.45-2.59-.07-5.24-1.04-7.49-2.69-2.21-3.61-2.97-8.33-.93-13.49,5.63-14.26,23.41-9.78,28.21-8.28.76.24,1.59.09,2.22-.42l13.72-9.91c1.22-.99.91-2.6-.04-3.85-.88-1.14-1.96-2.47-3.47-3.76-.14-.19-.29-.37-.49-.53-4.1-3.13-15.02-8.89-28.62-9.04-20.07-.23-38.04,13.47-40.24,34.65-.35,3.33-.22,6.57.34,9.66,2.11,18.16,20.61,32.93,42.31,32.43,30.28-.7,35.91-29.43,36.93-38.34.15-1.35-2.5-6.22-5.62-6.89Z"/>
      <path class="cls-3" d="m90.27,57.07l13.72-9.91c1.22-.99,1.21-2.89-.04-3.85-4.1-3.13-15.02-8.89-28.62-9.04-20.07-.23-38.04,13.47-40.24,34.65-2.18,21.02,14.42,38.36,38.69,37.8,30.28-.7,35.91-29.43,36.93-38.34.16-1.41-.88-2.66-2.27-2.72l-29.75-1.38c-1.07-.05-2.04.63-2.38,1.66l-3.15,9.6c-.48,1.46.48,3,1.98,3.19l4.59.58c2.22.28,2.87,3.21,1.01,4.47-2.02,1.37-4.84,2.55-8.5,2.45-8.14-.21-16.79-9.31-12.38-20.47,5.63-14.26,23.41-9.78,28.21-8.28.76.24,1.59.09,2.22-.42Z"/>
      <g>
        <path class="cls-6" d="m78.19,4.54C39.6,4.54,6.65,35.09,4.74,72.64c-.93,18.25,5.48,35.23,18.06,48.06,3.45-3.57,6.97-7.13,10.5-10.61-10.37-10.09-15.85-24.06-15.1-38.65,1.51-29.45,27.56-53.4,58.08-53.4,18.36,0,34.84,8.62,44.5,23.15,4.37-2.61,8.81-5.13,13.23-7.51-12.15-18.29-32.85-29.14-55.82-29.14Z"/>
        <path class="cls-6" d="m78.86,65.89c-.39,0-.75.28-.88.69l-2.22,6.77c3.15-2.4,6.32-4.79,9.5-7.16l-6.36-.29h-.04Z"/>
        <path class="cls-6" d="m75.3,36.28c-.16,0-.32,0-.47,0-19.9,0-35.78,13.82-37.76,32.85-1.02,9.85,2.37,19.16,9.33,25.82,4.55-4.11,9.35-8.27,14.32-12.39-3.43-3.98-5.62-10.23-2.74-17.52,2.95-7.46,9.36-11.41,18.55-11.41,5.12,0,9.79,1.23,12.12,1.96.04.01.08.02.12.02.06,0,.15-.01.23-.08l.04-.04.05-.03,13.65-9.86c.13-.12.14-.27.14-.35,0-.1-.03-.24-.16-.34-4.11-3.14-14.51-8.49-27.43-8.63Z"/>
      </g>
    </g>
  </g>
</svg>