<svg width="256" height="256" viewBox="0 0 256 256" fill="none" xmlns="http://www.w3.org/2000/svg">
<circle cx="127" cy="128" r="125" fill="black"/>
<path d="M211 128.463C211 119.794 206.854 112.56 203.028 105.465C197.912 95.8903 194.82 85.3706 193.943 74.5565V118.138C189.372 97.367 172.324 84.5385 166.38 57.7891C165.562 54.005 164.613 45.8008 164.613 45.8008V96.2416C159.028 59.9339 144.302 34 127 34C109.698 34 94.9881 59.9339 89.3869 96.2333V45.8008C89.3869 45.8008 88.4629 54.005 87.6208 57.7891C81.676 84.5306 64.6276 97.3588 60.0567 118.138V74.5565C59.1799 85.3706 56.0881 95.8903 50.9724 105.465C47.1456 112.56 43.0327 119.794 43 128.463V128.569C43 137.238 47.1456 144.48 50.9724 151.567C56.087 161.143 59.1788 171.662 60.0567 182.476V138.894C64.6276 159.666 81.676 172.494 87.6208 199.244C88.4382 203.027 89.3869 211.232 89.3869 211.232V160.758C94.9716 197.058 109.698 223 127 223C144.302 223 159.02 197.058 164.613 160.758V211.191C164.613 211.191 165.537 202.987 166.38 199.203C172.324 172.461 189.372 159.633 193.943 138.853V182.435C194.821 171.622 197.913 161.102 203.028 151.527C206.854 144.44 210.967 137.198 211 128.529V128.463Z" fill="white"/>
</svg>
