<svg width="256" height="256" viewBox="0 0 256 256" fill="none" xmlns="http://www.w3.org/2000/svg">
<circle cx="127" cy="128" r="125" fill="#192D4F"/>
<g clip-path="url(#clip0_741_46)">
<path d="M71.7444 72.9424C63.9926 81.6031 58.2091 91.9407 54.8148 103.202H65.7924C68.4325 95.752 72.3034 88.8314 77.2332 82.7474L71.7444 72.9424Z" fill="white"/>
<path d="M65.7924 150.456H54.8148C58.2139 161.719 64.0021 172.056 71.7577 180.716L77.2058 170.868C72.2874 164.797 68.4256 157.891 65.7924 150.456Z" fill="white"/>
<path d="M128.268 195.553C124.438 195.553 120.615 195.214 116.841 194.54L111.393 204.388C122.533 206.956 134.084 206.956 145.224 204.388L139.776 194.54C135.976 195.218 132.125 195.557 128.268 195.553Z" fill="white"/>
<path d="M184.775 180.716C192.527 172.055 198.31 161.717 201.704 150.456H190.727C188.084 157.905 184.213 164.825 179.286 170.911L184.775 180.716Z" fill="white"/>
<path d="M179.286 82.784C184.216 88.8676 188.087 95.7882 190.727 103.238H201.704C198.305 91.9761 192.517 81.6384 184.761 72.9785L179.286 82.784Z" fill="white"/>
<path d="M128.242 58.1319C132.072 58.1322 135.895 58.4711 139.669 59.1447L145.117 49.2973C133.977 46.7284 122.426 46.7284 111.286 49.2973L116.733 59.1447C120.534 58.4593 124.385 58.1204 128.242 58.1319Z" fill="white"/>
<path d="M87.4793 169.736L66.287 207.719L91.4835 222.674L112.676 184.775C122.873 187.682 133.641 187.682 143.838 184.775L165.03 222.674L190.227 207.649L163.832 160.452C157.57 167.522 149.467 172.577 140.493 175.01C131.52 177.443 122.058 177.151 113.241 174.169C104.425 171.188 96.6277 165.643 90.7851 158.2C84.9426 150.756 81.3028 141.73 80.3018 132.203H103.85C105.038 137.976 108.109 143.153 112.549 146.867C116.989 150.581 122.529 152.607 128.243 152.607C133.957 152.607 139.497 150.581 143.937 146.867C148.378 143.153 151.449 137.976 152.636 132.203H164.894L174.251 141.868H227V111.805H184.629C181.982 101.224 176.59 91.588 169.034 83.9371L190.227 46.0244L165.03 31L143.838 68.8986C133.641 65.9918 122.873 65.9918 112.676 68.8986L91.4835 31L66.287 46.0244L92.6684 93.2218C98.9302 86.1517 107.034 81.097 116.007 78.6637C124.98 76.2308 134.442 76.5226 143.259 79.5041C152.076 82.4857 159.872 88.0306 165.715 95.4739C171.557 102.918 175.197 111.943 176.199 121.47H152.636C151.449 115.697 148.378 110.521 143.937 106.807C139.497 103.093 133.957 101.067 128.243 101.067C122.529 101.067 116.989 103.093 112.549 106.807C108.109 110.521 105.038 115.697 103.85 121.47H91.5924L82.2357 111.805H29.5136V141.868H71.8845C74.5316 152.45 79.9233 162.086 87.4793 169.736Z" fill="white"/>
</g>
<defs>
<clipPath id="clip0_741_46">
<rect width="198" height="195" fill="white" transform="translate(29 31)"/>
</clipPath>
</defs>
</svg>
