<?xml version="1.0" standalone="no"?>
<!DOCTYPE svg PUBLIC "-//W3C//DTD SVG 20010904//EN"
 "http://www.w3.org/TR/2001/REC-SVG-20010904/DTD/svg10.dtd">
<svg version="1.0" xmlns="http://www.w3.org/2000/svg"
 width="256.000000pt" height="256.000000pt" viewBox="0 0 256.000000 256.000000"
 preserveAspectRatio="xMidYMid meet">

<g transform="translate(0.000000,256.000000) scale(0.100000,-0.100000)"
fill="#000000" stroke="none">
<path d="M0 1280 l0 -1280 1280 0 1280 0 0 1280 0 1280 -1280 0 -1280 0 0
-1280z m946 330 c143 -166 260 -311 262 -323 2 -16 -58 -92 -234 -297 -130
-151 -247 -288 -260 -303 -23 -27 -26 -28 -105 -25 l-82 3 261 303 c144 167
262 310 262 317 0 16 -31 54 -305 370 -104 121 -196 228 -204 238 -13 16 -8
17 67 17 l80 0 258 -300z m140 163 c65 -76 153 -177 196 -224 43 -48 78 -91
78 -97 0 -6 -16 -29 -34 -51 l-35 -42 -216 251 c-120 137 -226 261 -237 275
l-19 25 75 0 75 0 117 -137z m648 105 c-15 -18 -88 -104 -163 -191 l-135 -159
-33 36 c-18 20 -33 42 -33 49 0 18 31 58 140 186 l95 111 78 0 79 0 -28 -32z
m290 -1 c-16 -18 -164 -187 -329 -375 -212 -242 -301 -351 -303 -370 -2 -22
27 -61 159 -212 88 -102 174 -202 190 -222 l31 -38 -84 0 -83 0 -130 152
c-220 257 -245 288 -245 308 0 11 146 189 331 405 l331 385 80 0 80 0 -28 -33z
m-218 -930 c120 -138 224 -260 232 -269 14 -17 10 -18 -61 -18 l-75 0 -189
221 c-116 136 -189 230 -191 246 -4 26 43 87 59 77 4 -2 106 -118 225 -257z
m-598 2 c-2 -10 -55 -80 -118 -154 l-115 -135 -78 0 -79 0 59 68 c32 37 105
123 163 190 l105 123 33 -36 c19 -21 32 -44 30 -56z"/>
</g>
</svg>
