<svg width="256" height="256" viewBox="0 0 256 256" fill="none" xmlns="http://www.w3.org/2000/svg">
<g clip-path="url(#clip0_2641_10183)">
<path d="M256 128C256 198.692 198.692 256 128 256C57.3075 256 0 198.692 0 128C0 57.3075 57.3075 0 128 0C198.692 0 256 57.3075 256 128Z" fill="#1A1A1A"/>
<path d="M163.712 131.794V131.723L128.004 95.5299L92.2881 131.729V97.0183H72V179.608H92.2881V159.566L128.003 123.365L163.712 159.56H184V76.4248H163.712V131.794Z" fill="#DFDCD8"/>
<path d="M72 50.4614V84.5448H92.2881V70.1449H184V50.4614H72Z" fill="#DFDCD8"/>
<path d="M163.712 182.971L160.866 185.856H72V205.539H174.452L184 195.862V172.075H163.712V182.971Z" fill="#DFDCD8"/>
</g>
<defs>
<clipPath id="clip0_2641_10183">
<rect width="256" height="256" fill="white"/>
</clipPath>
</defs>
</svg>
