<svg width="256" height="256" viewBox="0 0 256 256" fill="none" xmlns="http://www.w3.org/2000/svg">
<path d="M256 128.5C256 198.917 198.917 256 128.5 256C58.0837 256 1 198.917 1 128.5C1 58.0837 58.0837 1 128.5 1C198.917 1 256 58.0837 256 128.5Z" fill="#120404"/>
<path d="M166.335 65.7634C161.513 62.6673 155.05 64.486 152.563 69.6131L132.843 110.245C132.528 110.899 132.659 111.703 133.175 112.228L133.837 112.899C134.368 113.423 135.162 113.553 135.827 113.226L176.826 93.6882C181.996 91.2154 183.82 84.8108 180.705 80.0285C176.976 74.3137 172.071 69.4496 166.304 65.7634H166.337H166.335ZM147.393 102.039L142.886 103.94C142.388 104.152 141.908 103.661 142.107 103.171L144.014 98.7158C144.444 97.7169 145.455 97.1113 146.532 97.1752C147.826 97.2573 148.852 98.2715 148.934 99.5512C149.001 100.632 148.388 101.631 147.375 102.057L147.393 102.042V102.039Z" fill="url(#paint0_linear_1497_53)"/>
<path d="M136.77 115.418C136.074 115.663 135.595 116.32 135.595 117.056V117.988C135.595 118.724 136.059 119.381 136.77 119.626L179.71 134.545C185.129 136.428 190.995 133.17 192.206 127.617C193.647 120.967 193.647 114.09 192.206 107.44C190.997 101.872 185.147 98.6296 179.71 100.512L136.77 115.431V115.416V115.418ZM155.746 119.153C155.034 119.955 153.872 120.234 152.861 119.825L148.321 118.006C147.823 117.81 147.823 117.122 148.321 116.91L152.861 115.091C153.872 114.683 155.031 114.96 155.746 115.763C156.606 116.729 156.606 118.17 155.746 119.12V119.153Z" fill="url(#paint1_linear_1497_53)"/>
<path d="M176.859 141.377L135.86 121.839C135.198 121.527 134.386 121.657 133.87 122.165L133.208 122.837C132.678 123.361 132.546 124.148 132.876 124.82L152.596 165.452C155.083 170.578 161.544 172.395 166.368 169.302C172.136 165.618 177.04 160.754 180.769 155.036C183.885 150.254 182.063 143.852 176.891 141.379H176.857L176.859 141.377ZM148.934 135.416C148.852 136.694 147.823 137.708 146.532 137.79C145.439 137.856 144.427 137.233 144.014 136.249L142.107 131.794C141.891 131.304 142.388 130.811 142.886 131.025L147.393 132.926C148.388 133.353 149.017 134.351 148.95 135.432L148.934 135.416Z" fill="url(#paint2_linear_1497_53)"/>
<path d="M130.623 125.721C130.376 125.034 129.711 124.559 128.966 124.559H128.023C127.278 124.559 126.613 125.016 126.366 125.721L111.318 168.269C109.411 173.641 112.694 179.453 118.312 180.649C125.023 182.09 131.968 182.09 138.679 180.649C144.297 179.453 147.578 173.639 145.673 168.269L130.625 125.721H130.623ZM130.141 144.521C129.18 145.372 127.722 145.372 126.744 144.521C125.933 143.8 125.652 142.654 126.064 141.655L127.887 137.169C128.085 136.678 128.781 136.678 128.979 137.169L130.802 141.655C131.216 142.654 130.936 143.8 130.122 144.521H130.137H130.141Z" fill="url(#paint3_linear_1497_53)"/>
<path d="M120.232 119.628C120.928 119.383 121.407 118.726 121.407 117.99V117.058C121.407 116.322 120.943 115.665 120.232 115.42L77.2944 100.501C71.8748 98.6179 66.0092 101.877 64.7981 107.429C63.3573 114.079 63.3573 120.956 64.7981 127.606C66.0069 133.175 71.857 136.416 77.2944 134.533L120.232 119.615V119.63V119.628ZM101.141 115.795C101.854 114.993 103.014 114.715 104.025 115.124L108.55 116.943C109.047 117.139 109.047 117.827 108.55 118.041L104.025 119.86C103.014 120.268 101.854 119.99 101.141 119.188C100.28 118.222 100.28 116.781 101.141 115.831V115.798V115.795Z" fill="url(#paint4_linear_1497_53)"/>
<path d="M123.812 122.837L123.149 122.165C122.619 121.642 121.824 121.512 121.16 121.839L80.1605 141.376C74.9907 143.834 73.1663 150.254 76.282 155.034C80.0111 160.749 84.9155 165.613 90.683 169.299C95.5049 172.395 101.968 170.577 104.455 165.449L124.16 124.817C124.492 124.146 124.343 123.359 123.827 122.835H123.812V122.837ZM114.779 131.778L112.872 136.234C112.442 137.233 111.431 137.838 110.354 137.775C109.06 137.692 108.035 136.678 107.952 135.401C107.885 134.32 108.498 133.321 109.509 132.895L114.016 130.994C114.514 130.782 114.994 131.273 114.795 131.763L114.779 131.778Z" fill="url(#paint5_linear_1497_53)"/>
<path d="M214.812 117.597V117.524C214.812 105.98 212.531 94.7799 208.028 84.2317C203.679 74.0462 197.456 64.9015 189.532 57.0496C181.608 49.1955 172.379 43.0298 162.099 38.7226C151.454 34.2608 140.149 32 128.5 32C116.851 32 105.548 34.2608 94.9028 38.7226C84.6233 43.0298 75.3922 49.1955 67.4679 57.0496C59.5437 64.9015 53.3211 74.0462 48.9743 84.2317C44.4713 94.7799 42.1875 105.98 42.1875 117.524V117.597L42.1474 118.311C41.8463 123.593 42.0068 128.89 42.6269 134.143L42.8945 136.412L43.4543 145.798C43.8067 151.695 46.7395 157.144 51.4811 160.722C54.1084 163.319 55.9306 166.607 56.7313 170.198L57.7661 174.837C58.8857 179.851 62.9962 183.67 68.1169 184.452C72.466 185.117 76.146 187.988 77.8187 192.021L78.3562 193.319L79.2573 195.217C82.3686 201.776 89.4854 205.504 96.7071 204.359L98.2282 204.118C105.557 202.958 112.609 207.4 114.657 214.47C116.63 221.283 122.525 224.881 128.5 225C134.475 224.881 140.37 221.283 142.343 214.47C144.391 207.4 151.443 202.958 158.772 204.118L160.293 204.359C167.515 205.504 174.631 201.776 177.743 195.217L178.644 193.319L179.181 192.021C180.854 187.988 184.534 185.117 188.883 184.452C194.004 183.67 198.114 179.851 199.234 174.837L200.269 170.198C201.069 166.607 202.892 163.319 205.519 160.722C210.26 157.144 213.193 151.695 213.546 145.798L214.106 136.412L214.373 134.143C214.993 128.89 215.154 123.593 214.853 118.311L214.812 117.597ZM180.071 168.622C166.295 182.271 147.982 189.789 128.5 189.789C109.018 189.789 90.7054 182.271 76.9311 168.622C63.1568 154.974 55.5693 136.826 55.5693 117.524C55.5693 98.2228 63.1568 80.0727 76.9311 66.4241C90.7054 52.7756 109.021 45.2596 128.5 45.2596C147.979 45.2596 166.295 52.7756 180.071 66.4241C193.845 80.0727 201.431 98.2205 201.431 117.524C201.431 136.828 193.845 154.974 180.071 168.622Z" fill="url(#paint6_linear_1497_53)"/>
<path d="M126.379 109.328C126.626 110.015 127.291 110.491 128.036 110.491H128.981C129.726 110.491 130.391 110.033 130.639 109.328L145.686 66.7801C147.593 61.4078 144.31 55.5957 138.692 54.4001C131.981 52.9747 125.036 52.9747 118.325 54.4001C112.707 55.5957 109.426 61.41 111.331 66.7801L126.379 109.328ZM126.744 90.4289C127.706 89.5776 129.165 89.5776 130.141 90.4289C130.953 91.1335 131.234 92.296 130.822 93.295L129 97.7832C128.801 98.2739 128.105 98.2739 127.907 97.7832L126.084 93.295C125.67 92.296 125.953 91.1488 126.765 90.4289H126.749H126.744Z" fill="url(#paint7_linear_1497_53)"/>
<path d="M80.1426 93.6862L121.142 113.224C121.805 113.551 122.616 113.406 123.131 112.897L123.794 112.225C124.325 111.701 124.456 110.915 124.126 110.243L104.422 69.6112C101.935 64.4841 95.4737 62.6676 90.6496 65.7615C84.882 69.4454 79.9776 74.3095 76.2485 80.0266C73.1328 84.8089 74.955 91.2134 80.127 93.6862H80.1426ZM107.935 99.5339C108.017 98.2565 109.045 97.24 110.336 97.1579C111.429 97.0917 112.442 97.7148 112.855 98.6985L114.762 103.153C114.978 103.644 114.48 104.137 113.983 103.923L109.476 102.022C108.481 101.596 107.852 100.597 107.919 99.5158L107.935 99.5339Z" fill="url(#paint8_linear_1497_53)"/>
<defs>
<linearGradient id="paint0_linear_1497_53" x1="237.49" y1="-2.73993" x2="-50.6677" y2="74.6331" gradientUnits="userSpaceOnUse">
<stop stop-color="#D188FF"/>
<stop offset="1" stop-color="#831FD8"/>
</linearGradient>
<linearGradient id="paint1_linear_1497_53" x1="237.49" y1="-2.74013" x2="-50.6678" y2="74.6329" gradientUnits="userSpaceOnUse">
<stop stop-color="#D188FF"/>
<stop offset="1" stop-color="#831FD8"/>
</linearGradient>
<linearGradient id="paint2_linear_1497_53" x1="237.49" y1="-2.73956" x2="-50.6678" y2="74.6335" gradientUnits="userSpaceOnUse">
<stop stop-color="#D188FF"/>
<stop offset="1" stop-color="#831FD8"/>
</linearGradient>
<linearGradient id="paint3_linear_1497_53" x1="237.49" y1="-2.73993" x2="-50.6679" y2="74.6331" gradientUnits="userSpaceOnUse">
<stop stop-color="#D188FF"/>
<stop offset="1" stop-color="#831FD8"/>
</linearGradient>
<linearGradient id="paint4_linear_1497_53" x1="237.49" y1="-2.74047" x2="-50.6679" y2="74.6326" gradientUnits="userSpaceOnUse">
<stop stop-color="#D188FF"/>
<stop offset="1" stop-color="#831FD8"/>
</linearGradient>
<linearGradient id="paint5_linear_1497_53" x1="237.49" y1="-2.73968" x2="-50.6678" y2="74.6333" gradientUnits="userSpaceOnUse">
<stop stop-color="#D188FF"/>
<stop offset="1" stop-color="#831FD8"/>
</linearGradient>
<linearGradient id="paint6_linear_1497_53" x1="237.49" y1="-2.73999" x2="-50.6678" y2="74.633" gradientUnits="userSpaceOnUse">
<stop stop-color="#D188FF"/>
<stop offset="1" stop-color="#831FD8"/>
</linearGradient>
<linearGradient id="paint7_linear_1497_53" x1="237.49" y1="-2.73975" x2="-50.6679" y2="74.6333" gradientUnits="userSpaceOnUse">
<stop stop-color="#D188FF"/>
<stop offset="1" stop-color="#831FD8"/>
</linearGradient>
<linearGradient id="paint8_linear_1497_53" x1="237.49" y1="-2.73968" x2="-50.6678" y2="74.6333" gradientUnits="userSpaceOnUse">
<stop stop-color="#D188FF"/>
<stop offset="1" stop-color="#831FD8"/>
</linearGradient>
</defs>
</svg>
