<svg width="256" height="256" viewBox="0 0 256 256" fill="none" xmlns="http://www.w3.org/2000/svg">
<g clip-path="url(#clip0_1323_505)">
<path d="M128 256C198.692 256 256 198.692 256 128C256 57.3076 198.692 0 128 0C57.3076 0 0 57.3076 0 128C0 198.692 57.3076 256 128 256Z" fill="#22242F"/>
<path d="M128 5.12012C195.865 5.12012 250.88 60.1354 250.88 128C250.88 195.865 195.865 250.88 128 250.88C60.1352 250.88 5.12 195.865 5.12 128C5.12 60.1354 60.1352 5.12012 128 5.12012ZM128 13.794C64.9257 13.794 13.7939 64.9258 13.7939 128C13.7939 191.074 64.9257 242.206 128 242.206C191.074 242.206 242.206 191.074 242.206 128C242.206 64.9258 191.074 13.794 128 13.794Z" fill="#E53935"/>
<path d="M205.442 79.5732V68.411H170.084C168.187 61.1985 166.29 54.8446 164.22 49.0059L152.319 51.0666C154.389 56.2184 156.459 62.0571 158.356 68.411H120.928V79.5732H205.442ZM114.892 162.517V91.2506H97.4717C101.094 85.9271 104.716 79.4015 108.338 71.5021V63.2592H79.8791C81.4313 59.8246 82.8112 56.3901 84.191 52.7838L73.1525 49.3493C67.9782 66.1785 59.8718 79.7449 49.0057 90.2203L51.5929 102.413C53.8351 100.352 56.0773 98.2914 58.147 96.059V162.517H114.892ZM85.5708 91.2506H62.4589C66.9433 85.7554 71.2552 79.5732 75.0497 73.0476H96.7818C92.9873 79.9167 89.3653 86.0988 85.5708 91.2506ZM156.631 206.994C165.255 206.994 169.739 202.186 169.739 192.741V143.799H197.163V95.0286H130.07V143.799H157.666V189.822C157.666 194.115 155.941 196.347 152.492 196.347C148.525 196.347 144.385 196.004 140.246 195.489L142.661 206.994H156.631ZM81.6038 121.818H68.8405V101.383H81.6038V121.818ZM104.198 121.818H91.6075V101.383H104.198V121.818ZM185.435 132.98H141.798V106.019H185.435V132.98ZM104.198 152.214H91.6075V131.778H104.198V152.214ZM81.6038 152.214H68.8405V131.778H81.6038V152.214ZM197.853 199.095L206.994 192.741C202.337 181.751 195.783 169.043 187.16 154.446L178.018 159.941C186.297 174.195 193.024 187.246 197.853 199.095ZM125.585 202.014C133.174 190.165 139.728 176.084 145.248 159.941L135.244 155.133C129.897 170.588 123.516 183.983 116.272 195.317L125.585 202.014ZM111.27 190.337L119.721 188.276C117.306 180.033 114.892 172.821 112.132 166.639L104.026 169.043C106.785 175.912 109.2 182.953 111.27 190.337ZM92.9873 200.297L101.956 199.267C100.921 186.216 99.024 175.912 96.2643 168.356L87.6405 169.386C90.4001 176.599 92.1249 186.902 92.9873 200.297ZM60.0442 204.934C63.6663 194.802 65.9084 183.296 66.9433 170.245L57.6296 169.043C56.7672 181.407 54.3525 192.398 50.558 202.014L60.0442 204.934ZM74.5323 202.873L83.5011 201.843C83.1561 188.276 82.2937 177.457 81.0864 169.558L72.8075 170.588C73.6699 178.144 74.1873 188.963 74.5323 202.873Z" fill="#E53935"/>
</g>
<defs>
<clipPath id="clip0_1323_505">
<rect width="256" height="256" fill="white"/>
</clipPath>
</defs>
</svg>
