<svg width="256" height="256" viewBox="0 0 256 256" fill="none" xmlns="http://www.w3.org/2000/svg">
<g clip-path="url(#clip0_741_46)">
<path d="M256 128C256 198.692 198.692 256 128 256C57.3075 256 0 198.692 0 128C0 57.3075 57.3075 0 128 0C198.692 0 256 57.3075 256 128Z" fill="#141C1B"/>
<mask id="mask0_741_46" style="mask-type:luminance" maskUnits="userSpaceOnUse" x="8" y="8" width="241" height="241">
<path d="M128.5 249C195.05 249 249 195.05 249 128.5C249 61.9497 195.05 8 128.5 8C61.9497 8 8 61.9497 8 128.5C8 195.05 61.9497 249 128.5 249Z" fill="white"/>
</mask>
<g mask="url(#mask0_741_46)">
<path d="M253.194 3.80566H3.80579V253.194H253.194V3.80566Z" fill="#141C1B"/>
<path d="M128.217 377.321C234.178 377.321 320.076 315.277 320.076 238.741C320.076 162.205 234.178 100.16 128.217 100.16C22.2558 100.16 -63.6425 162.205 -63.6425 238.741C-63.6425 315.277 22.2558 377.321 128.217 377.321Z" fill="url(#paint0_linear_741_46)" fill-opacity="0.5"/>
<path d="M94.1637 195.382H68.9868L97.4058 62.1855H122.583L110.946 116.796H115.526L158.636 62.1855H188.013V64.4697L137.274 127.644V131.068L169.32 194.242V195.382H141.474L113.627 140.771H105.619L94.1751 195.382H94.1637Z" fill="white"/>
</g>
</g>
<defs>
<linearGradient id="paint0_linear_741_46" x1="128.217" y1="100.16" x2="128.217" y2="377.321" gradientUnits="userSpaceOnUse">
<stop stop-color="#58C6B2"/>
<stop offset="1" stop-color="#106757"/>
</linearGradient>
<clipPath id="clip0_741_46">
<rect width="256" height="256" fill="white"/>
</clipPath>
</defs>
</svg>
