<svg width="256" height="256" viewBox="0 0 256 256" fill="none" xmlns="http://www.w3.org/2000/svg">
<g clip-path="url(#clip0_741_46)">
<circle cx="128" cy="128" r="127" fill="url(#paint0_linear_741_46)"/>
<g clip-path="url(#clip1_741_46)">
<path d="M128.183 252.005C196.768 252.005 252.367 196.486 252.367 128C252.367 59.5134 196.768 3.99414 128.183 3.99414C59.5989 3.99414 4 59.5134 4 128C4 196.486 59.5989 252.005 128.183 252.005Z" fill="white"/>
<path d="M128.178 144.83L85.8845 120.706L84.7297 122.475C71.7034 142.429 74.6126 168.561 91.7243 185.303C111.86 205.005 144.507 205.005 164.642 185.303C181.754 168.561 184.663 142.429 171.637 122.475L170.481 120.706L128.178 144.83Z" fill="url(#paint1_radial_741_46)"/>
<path opacity="0.6" d="M128.233 90.9551L91.7756 111.771L128.233 132.562L164.663 111.772L128.233 90.9551Z" fill="url(#paint2_radial_741_46)"/>
<path d="M128.277 96.3901L85.9133 120.731L128.182 144.866L170.49 120.723L128.277 96.3901Z" fill="url(#paint3_radial_741_46)"/>
<path d="M128.233 55.9409L91.7756 111.762L128.233 132.551V55.9409Z" fill="url(#paint4_linear_741_46)"/>
<path d="M128.225 132.563L164.685 111.77L128.227 55.9219L128.225 132.563Z" fill="url(#paint5_linear_741_46)"/>
</g>
</g>
<defs>
<linearGradient id="paint0_linear_741_46" x1="37.5" y1="37.5" x2="218" y2="218" gradientUnits="userSpaceOnUse">
<stop stop-color="#FFE337"/>
<stop offset="0.34" stop-color="#58CFA7"/>
<stop offset="0.66" stop-color="#4B8DEB"/>
<stop offset="1" stop-color="#FF8073"/>
</linearGradient>
<radialGradient id="paint1_radial_741_46" cx="0" cy="0" r="1" gradientUnits="userSpaceOnUse" gradientTransform="translate(128.137 200.116) rotate(-90) scale(68.5314 89.6953)">
<stop offset="0.203695" stop-color="#56F2FF"/>
<stop offset="1" stop-color="#4A8CEA"/>
</radialGradient>
<radialGradient id="paint2_radial_741_46" cx="0" cy="0" r="1" gradientUnits="userSpaceOnUse" gradientTransform="translate(128.22 111.758) rotate(90.1609) scale(20.7469 39.335)">
<stop stop-color="#EEFF83"/>
<stop offset="0.689596" stop-color="#5699EC"/>
</radialGradient>
<radialGradient id="paint3_radial_741_46" cx="0" cy="0" r="1" gradientUnits="userSpaceOnUse" gradientTransform="translate(128.202 120.628) rotate(90.1602) scale(24.1721 45.643)">
<stop stop-color="#56F2FF"/>
<stop offset="1" stop-color="#5699EC"/>
</radialGradient>
<linearGradient id="paint4_linear_741_46" x1="110.004" y1="55.9409" x2="110.004" y2="132.551" gradientUnits="userSpaceOnUse">
<stop offset="0.377179" stop-color="#FFE336"/>
<stop offset="1" stop-color="#13C0B6" stop-opacity="0.7"/>
</linearGradient>
<linearGradient id="paint5_linear_741_46" x1="146.455" y1="55.9219" x2="146.455" y2="132.563" gradientUnits="userSpaceOnUse">
<stop offset="0.408817" stop-color="#FF7F72"/>
<stop offset="1" stop-color="#2978EF" stop-opacity="0.7"/>
</linearGradient>
<clipPath id="clip0_741_46">
<rect width="256" height="256" fill="white"/>
</clipPath>
<clipPath id="clip1_741_46">
<rect width="254" height="248" fill="white" transform="translate(4 4)"/>
</clipPath>
</defs>
</svg>
