<svg width="256" height="256" viewBox="0 0 256 256" fill="none" xmlns="http://www.w3.org/2000/svg">
<g clip-path="url(#clip0_1329_1705)">
<mask id="mask0_1329_1705" style="mask-type:luminance" maskUnits="userSpaceOnUse" x="0" y="0" width="256" height="256">
<path d="M128 0C198.656 0 256 57.344 256 128C256 198.656 198.656 256 128 256C57.344 256 0 198.656 0 128C0 57.344 57.344 0 128 0Z" fill="white"/>
</mask>
<g mask="url(#mask0_1329_1705)">
<path d="M0 0L256 256M256 0L0 256" stroke="black" stroke-miterlimit="22.9256"/>
</g>
<path d="M128 0C198.656 0 256 57.344 256 128C256 198.656 198.656 256 128 256C57.344 256 0 198.656 0 128C0 57.344 57.344 0 128 0Z" fill="url(#paint0_linear_1329_1705)"/>
<mask id="mask1_1329_1705" style="mask-type:luminance" maskUnits="userSpaceOnUse" x="58" y="118" width="140" height="108">
<path d="M127.898 150.733L70.8607 118.169L69.3247 120.525C51.8143 147.456 55.7055 182.681 78.7455 205.312C105.882 231.936 149.914 231.936 177.05 205.312C200.09 182.681 203.981 147.456 186.47 120.525L184.934 118.169L127.898 150.733Z" fill="white"/>
</mask>
<g mask="url(#mask1_1329_1705)">
<path d="M127.898 227.328C166.298 227.328 197.427 196.198 197.427 157.798C197.427 119.398 166.298 88.2686 127.898 88.2686C89.4974 88.2686 58.3679 119.398 58.3679 157.798C58.3679 196.198 89.4974 227.328 127.898 227.328Z" fill="url(#paint1_radial_1329_1705)"/>
</g>
<path d="M127.898 78.0288L78.7456 106.086L127.898 134.144L177.05 106.086L127.898 78.0288Z" fill="url(#paint2_radial_1329_1705)"/>
<path d="M128 85.2993L70.8608 118.17L127.898 150.733L184.832 118.17L128 85.2993Z" fill="url(#paint3_radial_1329_1705)"/>
<path d="M127.898 30.7202L78.7456 106.087L127.898 134.144V30.7202Z" fill="url(#paint4_linear_1329_1705)"/>
<path d="M127.898 134.144L177.05 106.087L127.898 30.7202V134.144Z" fill="url(#paint5_linear_1329_1705)"/>
</g>
<defs>
<linearGradient id="paint0_linear_1329_1705" x1="128" y1="0" x2="128" y2="256" gradientUnits="userSpaceOnUse">
<stop offset="1" stop-color="#F7C882"/>
<stop offset="1" stop-color="#F7C882"/>
</linearGradient>
<radialGradient id="paint1_radial_1329_1705" cx="0" cy="0" r="1" gradientUnits="userSpaceOnUse" gradientTransform="translate(127.766 214.708) rotate(-90.4664) scale(92.8534 110.676)">
<stop stop-color="#C5C6AB"/>
<stop offset="1" stop-color="#7985AB"/>
</radialGradient>
<radialGradient id="paint2_radial_1329_1705" cx="0" cy="0" r="1" gradientUnits="userSpaceOnUse" gradientTransform="translate(127.898 106.086) scale(2.4576)">
<stop stop-color="#0066FF" stop-opacity="0"/>
<stop offset="1" stop-color="#00C2FF" stop-opacity="0.4"/>
</radialGradient>
<radialGradient id="paint3_radial_1329_1705" cx="0" cy="0" r="1" gradientUnits="userSpaceOnUse" gradientTransform="translate(127.846 118.016) scale(2.86802)">
<stop stop-color="#AEE6F9" stop-opacity="0.8588"/>
<stop offset="1" stop-color="#C8D6DC"/>
</radialGradient>
<linearGradient id="paint4_linear_1329_1705" x1="103.322" y1="25.6002" x2="103.322" y2="128" gradientUnits="userSpaceOnUse">
<stop stop-color="#77D4FF"/>
<stop offset="1" stop-color="#93D6F2" stop-opacity="0.898"/>
</linearGradient>
<linearGradient id="paint5_linear_1329_1705" x1="152.474" y1="25.6002" x2="152.474" y2="128" gradientUnits="userSpaceOnUse">
<stop stop-color="#506AAC"/>
<stop offset="1" stop-color="#96CFEF" stop-opacity="0.8196"/>
</linearGradient>
<clipPath id="clip0_1329_1705">
<rect width="256" height="256" fill="white"/>
</clipPath>
</defs>
</svg>
