<svg width="256" height="256" viewBox="0 0 256 256" fill="none" xmlns="http://www.w3.org/2000/svg">
<g clip-path="url(#clip0_2761_22)">
<mask id="mask0_2761_22" style="mask-type:luminance" maskUnits="userSpaceOnUse" x="0" y="0" width="256" height="256">
<path d="M256 0H0V256H256V0Z" fill="white"/>
</mask>
<g mask="url(#mask0_2761_22)">
<path d="M128 239.213C189.422 239.213 239.213 189.421 239.213 128C239.213 66.5785 189.422 16.7866 128 16.7866C66.5789 16.7866 16.7871 66.5785 16.7871 128C16.7871 189.421 66.5789 239.213 128 239.213Z" fill="#D1490F"/>
<path d="M256 128C256 198.692 198.692 256 128 256C57.3075 256 0 198.692 0 128C0 57.3075 57.3075 0 128 0C198.692 0 256 57.3075 256 128ZM9.47589 128C9.47589 193.459 62.5409 246.524 128 246.524C193.459 246.524 246.524 193.459 246.524 128C246.524 62.5409 193.459 9.47589 128 9.47589C62.5409 9.47589 9.47589 62.5409 9.47589 128Z" fill="#F6CE86"/>
<path d="M74.8427 105.618L171.367 92.328C172.533 76.7069 176.264 43.7859 181.859 37.0712C177.662 37.5375 167.31 40.8482 159.477 50.3608C160.642 58.9873 159.897 76.2406 147.586 76.2406C141.991 77.4063 130.1 76.1007 127.302 61.5521C127.068 58.2879 127.721 50.7805 132.197 46.8634L113.313 25.8799L100.023 50.3608C103.287 52.6923 109.675 58.6143 109.116 63.6504C109.582 69.0128 107.857 80.4373 97.2252 83.235C92.0958 84.1676 80.9978 83.3749 77.6404 72.7432L76.2415 63.6504C72.0447 60.1532 60.7137 53.7181 48.9629 55.9564C57.5895 68.0802 74.8427 94.9859 74.8427 105.618Z" fill="#141414"/>
<path d="M168.57 215.432V202.141L188.854 184.655C190.719 185.355 193.61 188.992 190.252 197.946L193.75 208.436L187.455 216.831L168.57 215.432Z" fill="#141414"/>
<path fill-rule="evenodd" clip-rule="evenodd" d="M69.947 204.94C68.7812 186.988 68.1284 146.466 74.8432 128C89.0654 120.306 128.281 103.939 171.367 100.022H172.49L180.46 118.907L176.963 128L199.345 159.475L183.957 169.267V174.864L149.684 192.35L147.586 211.935L95.1272 187.454C88.8323 189.786 74.9832 196.547 69.947 204.94ZM168.57 141.989L135.696 134.295L166.471 125.202V134.295L168.57 141.989Z" fill="#141414"/>
</g>
</g>
<defs>
<clipPath id="clip0_2761_22">
<rect width="256" height="256" fill="white"/>
</clipPath>
</defs>
</svg>
