<svg width="256" height="256" viewBox="0 0 256 256" fill="none" xmlns="http://www.w3.org/2000/svg">
<g clip-path="url(#clip0_1492_255)">
<mask id="mask0_1492_255" style="mask-type:luminance" maskUnits="userSpaceOnUse" x="0" y="0" width="256" height="256">
<path d="M256 0H0V256H256V0Z" fill="white"/>
</mask>
<g mask="url(#mask0_1492_255)">
<path d="M236.268 109.553L227.442 98.2302L177 66C177.166 66.9475 177.345 67.8949 177.552 68.8342C177.954 70.5787 178.396 72.3139 178.878 74.0384C179.165 75.0887 179.461 76.1154 179.767 77.1184C179.863 77.4242 179.954 77.7355 180.042 78.044C190.011 109.75 209.904 124.814 236.608 145C238.347 134.223 238.457 123.251 236.936 112.442L236.268 109.553Z" fill="#EF7730"/>
<path d="M138.544 155.5C90.6547 134.099 60.7158 90.6606 58.9709 46.9449C58.9534 46.5292 58.8183 46.127 58.5813 45.785C58.3443 45.443 58.0151 45.1751 57.6319 45.0124C57.2487 44.8497 56.8272 44.799 56.4163 44.866C56.0054 44.933 55.6219 45.1151 55.3104 45.3911C42.7772 56.4297 32.9216 70.1727 26.4895 85.5798C20.0574 100.987 17.2175 117.654 18.1847 134.32C19.152 150.986 23.901 167.214 32.0723 181.775C40.2435 196.336 51.623 208.848 65.3491 218.365C79.0752 227.882 94.7882 234.154 111.299 236.706C127.809 239.258 144.684 238.024 160.647 233.096C176.609 228.169 191.241 219.677 203.433 208.264C215.626 196.851 225.06 182.816 231.022 167.221C231.169 166.846 231.21 166.438 231.141 166.042C231.072 165.646 230.895 165.276 230.63 164.973C230.366 164.67 230.023 164.445 229.639 164.323C229.255 164.201 228.846 164.186 228.454 164.281C198.344 171.476 166.69 168.384 138.544 155.5ZM237 112.766C233.106 103.768 233.106 103.768 128.683 66.0801C76.1201 47.1044 66.3552 28.7914 104.41 20.5026C106.264 20.1047 108.132 19.7509 110.017 19.4411C124.507 17.0764 139.323 17.6263 153.597 21.0584C167.872 24.4905 181.317 30.7357 193.144 39.428C204.971 48.1202 214.942 59.0845 222.473 71.6779C230.004 84.2713 234.943 98.2403 237 112.766Z" fill="#F9D85E"/>
<path d="M136.487 18.2124L135 18C137.019 18.228 139.006 18.6321 141 19C140.645 18.9326 140.303 18.8497 139.942 18.7824C138.813 18.5596 137.671 18.3886 136.487 18.2124Z" fill="#EF7730"/>
</g>
</g>
<defs>
<clipPath id="clip0_1492_255">
<rect width="256" height="256" fill="white"/>
</clipPath>
</defs>
</svg>
