<svg width="256" height="256" viewBox="0 0 256 256" fill="none" xmlns="http://www.w3.org/2000/svg">
<g clip-path="url(#clip0_1418_209)">
<path d="M256 128C256 57.3076 198.692 0 128 0C57.3076 0 0 57.3076 0 128C0 198.692 57.3076 256 128 256C198.692 256 256 198.692 256 128Z" fill="#4A126B"/>
<path d="M201.903 119.448C201.933 112.565 200.223 105.778 196.92 99.6749C196.92 102.133 196.342 104.758 195.994 107.383C195.298 112.578 194.487 117.996 193.212 123.805C191.59 130.955 189.737 137.49 187.767 143.356L189.737 142.518L193.734 140.786C193.734 141.847 193.271 143.356 192.808 145.087C192.453 146.118 192.027 147.127 191.533 148.104C191.069 149.165 190.547 150.17 190.026 151.176C189.505 152.18 189.041 152.962 188.52 153.857C187.226 155.985 185.774 158.02 184.174 159.945C176.282 169.39 165.065 175.711 152.657 177.707H151.266C150.193 177.88 149.108 177.993 148.022 178.043H146.689C138.14 178.075 129.704 176.16 122.065 172.457C114.936 169.038 108.779 163.996 104.125 157.768C99.4713 151.539 96.4615 144.311 95.3561 136.709C95.3561 135.145 95.0664 133.636 95.0084 132.128C95.0084 131.793 95.0084 131.457 95.0084 131.123C95.0484 125.375 96.2284 119.686 98.4848 114.365C101.012 107.914 105.264 102.222 110.809 97.8667C116.355 93.5111 122.997 90.647 130.061 89.5647C127.98 91.2772 126.043 93.1449 124.267 95.1505C123.593 95.6879 123.041 96.3534 122.645 97.1054L146.978 94.4242H147.848C157.11 94.7688 166.109 97.4875 173.92 102.3L180.119 96.3234L181.451 100.345L182.089 102.3C183.297 99.9877 184.343 97.599 185.217 95.1505C185.623 94.0891 186.029 92.9161 186.376 91.6873C187.19 89.0581 187.771 86.3674 188.114 83.6438C188.201 82.1927 188.201 80.7381 188.114 79.287C187.071 80.0451 185.893 80.6129 184.639 80.9626C183.863 81.1684 183.066 81.2809 182.263 81.2977C181.345 81.3403 180.427 81.2461 179.539 81.0185C177.126 80.3177 174.973 78.9599 173.34 77.1084C172.129 75.7622 171.063 74.3028 170.154 72.7515C168.299 67.1659 147.558 61.1333 131.625 52.2519C127.12 49.8749 122.952 46.9458 119.226 43.5381C116.173 40.7529 114.14 37.0875 113.433 33.0928C113.446 33.2227 113.446 33.3538 113.433 33.4838C113.433 33.4838 113.433 33.4838 113.433 33.8189C113.399 34.0411 113.399 34.2669 113.433 34.4891C113.398 34.6174 113.398 34.7519 113.433 34.8802C113.433 35.1595 113.433 35.4388 113.143 35.7181C113.17 35.922 113.17 36.1285 113.143 36.3326C113.143 36.6677 113.143 36.9469 113.143 37.2821C113.171 37.5234 113.171 37.7669 113.143 38.0082V39.0695C113.172 39.3481 113.172 39.6287 113.143 39.9074C113.143 40.2984 113.143 40.6336 113.143 41.0805C113.114 41.3777 113.114 41.6768 113.143 41.9741V43.2029C113.115 43.5374 113.115 43.8738 113.143 44.2084C113.143 44.5995 113.143 45.0462 113.143 45.493C113.143 45.94 113.143 46.1635 113.143 46.4986L113.491 47.8391L113.838 48.9005L114.36 50.2411C114.53 50.606 114.724 50.9604 114.939 51.3023C114.939 51.7492 115.345 52.196 115.634 52.6429L116.445 53.7041C116.721 54.154 117.031 54.5835 117.372 54.989C117.662 55.3799 118.068 55.715 118.415 56.106L119.574 57.2791L120.675 58.1169C121.14 58.533 121.645 58.907 122.181 59.2341L123.745 60.2395L125.136 61.0774L125.947 61.5241L112.332 55.4916L105.553 52.4753C106.166 55.1354 107.223 57.6822 108.682 60.016C109.366 61.1875 110.141 62.3079 110.999 63.3676C110.999 63.3676 82.0305 62.4738 66.0397 84.4817H67.0245C68.6719 84.3889 70.2915 84.9214 71.5367 85.9654C72.782 87.0093 73.554 88.4817 73.6875 90.0674C73.749 90.6431 73.749 91.2233 73.6875 91.799C73.7406 92.2444 73.7406 92.6941 73.6875 93.1395C72.8183 94.5918 72.0071 96.1 71.1961 97.6082C70.3849 99.1163 67.4301 102.188 65.0546 104.87C63.4903 106.601 61.9261 108.389 60.3616 110.455C55.0969 116.477 51.7206 123.821 50.6283 131.625C50.5705 132.462 50.5705 133.302 50.6283 134.139C51.4029 133.665 52.2169 133.254 53.0617 132.91H53.6409H54.1045C55.067 132.636 56.0908 132.632 57.0555 132.898C58.0203 133.166 58.8859 133.693 59.5506 134.418C60.5835 135.662 61.3157 137.112 61.6944 138.664C62.7362 143.973 63.3561 149.35 63.5483 154.751C63.8248 157.902 64.2891 161.034 64.9388 164.134C66.3613 172.234 70.4194 179.688 76.5264 185.416C76.5207 185.323 76.5207 185.23 76.5264 185.137C76.2845 184.224 76.1676 183.286 76.1787 182.344C76.1338 181.549 76.2656 180.754 76.5654 180.013C76.8652 179.27 77.3259 178.6 77.9168 178.043C78.4287 177.637 79.0197 177.332 79.6551 177.149H79.9446C80.8479 177.026 81.7645 177.026 82.6677 177.149C88.4615 177.485 91.8797 186.254 98.8902 193.627C103.176 198.374 108.919 201.681 115.287 203.067H115.634C115.308 201.82 115.308 200.516 115.634 199.269C115.777 198.735 116.052 198.242 116.436 197.834C116.819 197.426 117.299 197.113 117.836 196.923C119.781 196.539 121.802 196.733 123.63 197.481C128.066 198.98 132.646 200.046 137.303 200.666H138.23C139.794 200.666 141.591 201.056 143.155 201.112C145.381 201.167 147.61 201.056 149.818 200.777C155.113 200.12 160.261 198.63 165.055 196.365C164.23 195.558 163.754 194.479 163.722 193.348C163.732 192.672 163.891 192.006 164.186 191.393C164.864 190.434 165.755 189.633 166.793 189.047C168.426 187.97 170.199 187.108 172.065 186.478C173.823 185.924 175.544 185.271 177.222 184.522L178.149 184.019C181.558 182.117 184.662 179.746 187.361 176.982C193.887 169.998 198.488 161.547 200.745 152.404C201.696 149.466 202.28 146.428 202.483 143.356C202.483 142.518 202.483 141.679 202.483 140.842C203.127 133.713 202.932 126.536 201.903 119.448Z" fill="white"/>
</g>
<defs>
<clipPath id="clip0_1418_209">
<rect width="256" height="256" fill="white"/>
</clipPath>
</defs>
</svg>
