<svg width="256" height="256" viewBox="0 0 256 256" fill="none" xmlns="http://www.w3.org/2000/svg">
<g clip-path="url(#clip0_741_46)">
<path d="M128.14 256C198.755 256 256 198.755 256 128.14C256 57.5249 198.755 0.280029 128.14 0.280029C57.5249 0.280029 0.279999 57.5249 0.279999 128.14C0.279999 198.755 57.5249 256 128.14 256Z" fill="#3085E5"/>
<path d="M72.8498 56.0302C115.359 28.3851 162.32 39.0382 190.206 64.3133L198.167 58.9868C193.945 54.7647 189.332 50.9222 184.397 47.5169C168.659 36.6798 149.584 30.3408 129.026 30.3408C74.9206 30.3408 30.5711 75.254 31.2384 129.359C31.3304 137.309 32.3773 138.839 32.4003 131.027C32.4923 99.1832 47.2295 72.7001 72.8613 56.0302H72.8498Z" fill="#FAFEFF"/>
<path d="M79.81 91.7514C117.36 76.5886 143.061 99.8735 150.631 109.756C164.425 127.772 170.66 141.393 170.66 141.393C173.03 146.144 179.967 147.628 185.029 145.143L192.266 141.577L181.612 73.6089C178.909 71.147 169.924 62.5992 152.886 56.2718C126.921 46.6196 100.115 47.5054 75.0241 62.5187C50.0366 77.4744 37.3012 100.472 37.1631 130.889C37.1171 141.623 38.7277 151.436 40.4764 158.868C39.5445 139.495 43.7206 106.327 79.8215 91.7514H79.81Z" fill="#FAFEFF"/>
<path d="M224.639 124.85C223.868 129.336 211.363 164.022 180.658 164.022C140.024 164.022 143.268 102.036 91.8666 102.036C91.8666 102.036 134.41 120.294 126.759 159.696C120.731 190.701 75.1967 205.565 69.4215 207.302C81.0639 215.769 94.7657 221.786 109.905 224.455C163.09 233.831 213.813 198.317 223.189 145.132C224.397 138.31 224.858 131.522 224.639 124.85Z" fill="#FAFEFF"/>
<path d="M116.06 157.614C128.128 124.436 88.3808 104.614 88.3808 104.614C135.549 162.435 59.8958 183.028 46.7693 184.236C49.3463 187.963 54.4313 194.613 58.2162 198.478C68.7312 195.061 106.972 182.74 116.049 157.614H116.06Z" fill="#FAFEFF"/>
</g>
<defs>
<clipPath id="clip0_741_46">
<rect width="256" height="256" fill="white"/>
</clipPath>
</defs>
</svg>
