<svg width="256" height="256" viewBox="0 0 256 256" fill="none" xmlns="http://www.w3.org/2000/svg">
<path d="M256 128.5C256 198.917 198.917 256 128.5 256C58.0837 256 1 198.917 1 128.5C1 58.0837 58.0837 1 128.5 1C198.917 1 256 58.0837 256 128.5Z" fill="#8B2942"/>
<path d="M200.603 79.5977C200.603 88.0913 198.369 96.4367 194.124 103.79C189.88 111.143 183.774 117.254 176.421 121.503C169.068 125.753 160.728 127.987 152.239 127.987C143.75 127.987 135.405 125.753 128.052 121.509C128.052 130.002 130.286 138.348 134.531 145.706C138.775 153.064 144.886 159.17 152.239 163.419C159.592 167.669 167.938 169.903 176.426 169.903C184.92 169.903 193.26 167.669 200.613 163.419C207.967 159.17 214.072 153.064 218.322 145.706C222.566 138.348 224.801 130.002 224.801 121.509C224.801 113.015 222.561 104.67 218.317 97.3111C214.062 89.9526 207.956 83.8419 200.603 79.5977Z" fill="url(#paint0_radial_1497_53)"/>
<path d="M176.447 169.821C170.085 169.826 163.785 168.573 157.91 166.144C152.034 163.715 146.691 160.146 142.196 155.656C137.696 151.161 134.132 145.823 131.698 139.952C129.264 134.077 128.016 127.782 128.021 121.426C120.663 125.675 114.547 131.781 110.297 139.134C106.048 146.493 103.808 154.833 103.808 163.326C103.808 171.82 106.043 180.165 110.292 187.519C114.542 194.877 120.652 200.988 128.011 205.237C135.369 209.487 143.72 211.726 152.219 211.726C160.717 211.731 169.068 209.497 176.431 205.253C183.795 201.008 189.911 194.903 194.16 187.549C198.415 180.196 200.654 171.851 200.659 163.357C193.301 167.612 184.945 169.836 176.447 169.821Z" fill="url(#paint1_radial_1497_53)"/>
<path d="M152.249 31.2227C143.75 31.2125 135.4 33.442 128.047 37.6965C135.41 41.9407 141.521 48.0515 145.77 55.4048C150.02 62.7581 152.254 71.1035 152.249 79.5971C152.254 88.0908 150.02 96.431 145.77 103.789C141.521 111.143 135.41 117.253 128.047 121.498C135.405 125.742 143.756 127.977 152.249 127.977C160.748 127.977 169.093 125.742 176.452 121.493C183.81 117.248 189.921 111.143 194.17 103.789C198.42 96.4361 200.654 88.0959 200.654 79.6022C200.654 66.7723 195.551 54.469 186.474 45.3975C177.398 36.326 165.089 31.2227 152.249 31.2227Z" fill="url(#paint2_radial_1497_53)"/>
<path d="M103.844 163.408C103.839 154.904 106.074 146.554 110.323 139.19C114.573 131.827 120.683 125.716 128.047 121.466C120.688 117.217 112.338 114.982 103.839 114.982C95.3404 114.982 86.9951 117.222 79.6366 121.472C72.2782 125.721 66.1675 131.837 61.9181 139.195C57.6687 146.554 55.4341 154.909 55.4341 163.408C55.4341 171.907 57.6687 180.257 61.9181 187.621C66.1675 194.984 72.2782 201.095 79.6366 205.344C86.9951 209.594 95.3455 211.834 103.839 211.834C112.338 211.834 120.683 209.599 128.047 205.349C120.688 201.1 114.573 194.989 110.323 187.626C106.079 180.262 103.839 171.912 103.844 163.408Z" fill="url(#paint3_radial_1497_53)"/>
<path d="M127.995 37.599C120.642 33.3547 112.297 31.1201 103.808 31.1201C95.3144 31.1201 86.9741 33.3599 79.6208 37.6041C72.2675 41.8535 66.1619 47.9591 61.9176 55.3175C57.6734 62.676 55.4387 71.0162 55.4387 79.515C62.792 75.2707 71.1374 73.0361 79.6259 73.0361C88.1196 73.0361 96.4598 75.2758 103.813 79.5201C111.166 83.7695 117.272 89.8751 121.521 97.2335C125.766 104.592 128 112.932 128.005 121.426C135.359 117.182 141.469 111.071 145.714 103.712C149.958 96.354 152.193 88.0086 152.188 79.515C152.193 71.0213 149.958 62.6709 145.714 55.3124C141.459 47.954 135.354 41.8433 127.995 37.599Z" fill="url(#paint4_radial_1497_53)"/>
<path d="M103.839 79.5308C92.7119 73.1133 79.4934 71.3798 67.0878 74.7036C54.6823 78.0275 44.1023 86.1376 37.6848 97.2545C31.2621 108.371 29.5235 121.58 32.8525 133.975C36.1814 146.37 44.2966 156.94 55.4238 163.358C55.4187 154.864 57.6533 146.519 61.9027 139.16C66.152 131.802 72.2628 125.691 79.6212 121.442C86.9796 117.192 95.3301 114.953 103.834 114.953C112.333 114.953 120.688 117.187 128.052 121.431C128.057 112.938 125.817 104.592 121.568 97.2392C117.313 89.8858 111.203 83.7751 103.839 79.5308Z" fill="url(#paint5_radial_1497_53)"/>
<path d="M225 121.477C224.98 112.973 222.735 104.623 218.49 97.254C214.246 89.8853 208.146 83.7541 200.792 79.469C200.772 70.96 198.517 62.6095 194.252 55.246C189.987 47.8824 183.861 41.7717 176.493 37.5172C169.119 33.2627 160.763 31.023 152.249 31.0127C143.735 31.0025 135.374 33.2269 127.99 37.4661C120.611 33.232 112.246 31.0076 103.732 31.0178C95.2175 31.0281 86.8568 33.2729 79.4881 37.5223C72.1143 41.7768 65.9934 47.8926 61.7287 55.2511C57.4639 62.6095 55.2089 70.9651 55.1884 79.4741C47.83 83.7439 41.7192 89.87 37.4699 97.2437C33.2256 104.612 30.991 112.973 30.991 121.477C30.991 129.981 33.2256 138.342 37.475 145.71C41.7192 153.084 47.83 159.21 55.1935 163.48C55.214 171.989 57.4691 180.339 61.7338 187.703C65.9985 195.066 72.1246 201.177 79.4932 205.432C86.867 209.686 95.2277 211.931 103.737 211.936C112.251 211.946 120.617 209.722 127.995 205.483C135.379 209.717 143.74 211.946 152.254 211.936C160.768 211.926 169.129 209.681 176.498 205.432C183.871 201.177 189.992 195.066 194.257 187.703C198.522 180.339 200.777 171.989 200.797 163.48C208.146 159.195 214.246 153.064 218.496 145.7C222.735 138.331 224.98 129.981 225 121.477ZM152.203 31.386C164.992 31.386 177.26 36.4638 186.3 45.4995C195.346 54.5352 200.424 66.7924 200.424 79.5763C200.424 92.3603 195.341 104.618 186.3 113.653C177.26 122.689 164.992 127.767 152.203 127.767C151.676 127.767 151.155 127.767 150.628 127.741C150.444 127.741 150.255 127.721 150.086 127.716C149.738 127.716 149.401 127.69 149.058 127.664L148.388 127.608L147.494 127.537L146.788 127.455C146.501 127.424 146.215 127.393 145.934 127.358L145.208 127.25C144.932 127.209 144.655 127.173 144.384 127.127C144.108 127.081 143.888 127.035 143.633 126.995C143.377 126.948 143.101 126.902 142.835 126.851C142.569 126.8 142.339 126.749 142.083 126.693C141.828 126.637 141.557 126.585 141.301 126.524C141.04 126.463 140.8 126.401 140.549 126.34C140.299 126.279 140.033 126.217 139.777 126.151L139.025 125.941L138.274 125.721L137.522 125.491L136.77 125.251C136.525 125.169 136.285 125.077 136.044 124.99C135.799 124.903 135.543 124.816 135.293 124.724L134.582 124.448C134.336 124.351 134.081 124.259 133.83 124.156L133.135 123.86L132.383 123.538C132.153 123.435 131.928 123.328 131.703 123.221L130.951 122.878L130.353 122.525C130.107 122.403 129.867 122.28 129.627 122.152C129.386 122.019 129.192 121.912 128.977 121.779L128.399 121.462C128.594 121.349 128.773 121.226 128.977 121.109C129.182 120.991 129.417 120.848 129.632 120.71L130.332 120.255L130.987 119.825C131.212 119.677 131.432 119.518 131.657 119.365L132.301 118.91L132.94 118.434C133.15 118.271 133.37 118.117 133.579 117.949L134.193 117.463C134.403 117.294 134.618 117.125 134.822 116.951L135.41 116.45L136.034 115.913L136.586 115.407C136.791 115.218 137 115.034 137.2 114.84L137.727 114.328C137.931 114.129 138.136 113.955 138.335 113.73C138.535 113.51 138.667 113.387 138.836 113.208C139 113.034 139.235 112.799 139.429 112.59C139.624 112.38 139.746 112.232 139.905 112.058C140.063 111.884 140.278 111.633 140.478 111.419L140.933 110.877C141.122 110.657 141.306 110.432 141.49 110.207C141.674 109.982 141.777 109.833 141.92 109.665C142.063 109.496 142.293 109.204 142.462 108.969C142.631 108.739 142.733 108.596 142.871 108.417C143.004 108.243 143.224 107.946 143.398 107.706L143.771 107.149C143.94 106.903 144.113 106.658 144.277 106.397C144.4 106.208 144.517 106.024 144.65 105.835C144.814 105.584 144.973 105.333 145.131 105.083C145.254 104.894 145.366 104.71 145.479 104.505C145.632 104.249 145.791 103.994 145.939 103.738L146.261 103.155C146.409 102.894 146.558 102.628 146.696 102.368C146.803 102.168 146.9 101.969 147.003 101.774C147.136 101.503 147.279 101.237 147.412 100.966C147.509 100.767 147.601 100.568 147.698 100.368C147.831 100.092 147.959 99.8261 148.071 99.55C148.163 99.3454 148.245 99.1409 148.337 98.9363C148.46 98.6602 148.583 98.3892 148.711 98.113C148.797 97.9034 148.874 97.6886 148.961 97.479C149.069 97.2028 149.181 96.9318 149.288 96.6557C149.37 96.4358 149.447 96.221 149.524 96.0011C149.621 95.725 149.723 95.4489 149.82 95.1727C149.897 94.9529 149.963 94.7279 150.035 94.508C150.127 94.2318 150.219 93.9506 150.306 93.6694C150.372 93.4444 150.439 93.2142 150.5 92.9893C150.562 92.7591 150.664 92.437 150.741 92.1557C150.817 91.8745 150.858 91.6904 150.92 91.4552C150.981 91.22 151.063 90.9029 151.124 90.6268C151.186 90.3506 151.232 90.141 151.283 89.9007C151.334 89.6552 151.405 89.3586 151.462 89.0825C151.518 88.8063 151.554 88.5762 151.6 88.3308C151.646 88.0853 151.702 87.799 151.748 87.5331C151.794 87.2672 151.825 87.0064 151.871 86.7456C151.912 86.4848 151.953 86.224 151.988 85.9632C152.024 85.7024 152.055 85.4109 152.086 85.1399C152.116 84.8638 152.147 84.6337 152.178 84.3882C152.203 84.1428 152.229 83.7899 152.254 83.4933C152.254 83.2632 152.295 83.0229 152.316 82.7928C152.336 82.4451 152.351 82.0973 152.367 81.7445C152.367 81.5553 152.387 81.3712 152.392 81.1871C152.392 80.6502 152.418 80.1133 152.418 79.5763C152.418 79.0394 152.418 78.5025 152.392 77.9656C152.392 77.7815 152.372 77.5923 152.367 77.4133C152.367 77.0605 152.336 76.7127 152.316 76.365C152.295 76.1298 152.275 75.8997 152.254 75.6645C152.229 75.3679 152.208 75.0662 152.178 74.7696C152.147 74.473 152.116 74.2685 152.091 74.0179C152.065 73.7724 152.024 73.4605 151.988 73.1844C151.953 72.9082 151.912 72.6679 151.871 72.4071C151.83 72.1463 151.794 71.8804 151.748 71.6145C151.702 71.3486 151.656 71.0878 151.605 70.8321C151.554 70.5765 151.513 70.3157 151.462 70.0549C151.416 69.7941 151.344 69.5179 151.288 69.252C151.226 68.9861 151.18 68.756 151.124 68.5003C151.063 68.2447 150.986 67.9583 150.92 67.6873C150.853 67.4163 150.802 67.2066 150.736 66.9714C150.669 66.7362 150.582 66.4242 150.5 66.1532C150.424 65.8822 150.367 65.6828 150.296 65.4578C150.224 65.2277 150.117 64.9106 150.035 64.6396C149.948 64.3686 149.887 64.1845 149.815 63.9595C149.738 63.7345 149.621 63.4175 149.524 63.1515C149.426 62.8856 149.365 62.7016 149.283 62.4766C149.201 62.2516 149.069 61.9396 148.966 61.6686C148.859 61.3976 148.792 61.234 148.705 61.0141C148.613 60.7942 148.475 60.472 148.358 60.2061C148.24 59.9402 148.179 59.7817 148.087 59.572C147.964 59.301 147.836 59.0402 147.713 58.7743C147.616 58.5698 147.524 58.3601 147.422 58.1556C147.289 57.8897 147.156 57.6289 147.023 57.3681C146.916 57.1635 146.819 56.959 146.706 56.7545C146.568 56.4937 146.42 56.2431 146.276 55.9823C146.169 55.7829 146.057 55.5835 145.944 55.384C145.827 55.1846 145.648 54.8829 145.499 54.6323C145.351 54.3869 145.264 54.2335 145.141 54.0392C144.988 53.7886 144.824 53.5431 144.666 53.2875C144.507 53.0318 144.42 52.9142 144.292 52.7045C144.165 52.5 143.965 52.2187 143.802 51.9784L143.403 51.4057C143.234 51.1704 143.06 50.9352 142.886 50.7051C142.712 50.475 142.61 50.3318 142.472 50.1426C142.329 49.9534 142.114 49.6875 141.935 49.4574L141.5 48.9051C141.321 48.6852 141.127 48.4602 140.943 48.2455C140.764 48.0256 140.641 47.8722 140.483 47.6983C140.329 47.5245 140.11 47.2739 139.915 47.0591C139.721 46.8444 139.598 46.6858 139.429 46.5222C139.266 46.3586 139.056 46.1131 138.846 45.9086C138.637 45.704 138.514 45.5557 138.34 45.3819C138.166 45.208 137.941 44.983 137.737 44.7887C137.532 44.5944 137.389 44.4461 137.21 44.2773C137.031 44.1086 136.801 43.9041 136.596 43.7097C136.392 43.5205 136.223 43.3671 136.044 43.2035C135.865 43.0399 135.625 42.8302 135.415 42.6615L134.832 42.1705C134.623 41.9967 134.408 41.8279 134.193 41.6541L133.59 41.1683C133.375 41.0047 133.16 40.841 132.94 40.6825L132.311 40.212C132.091 40.0484 131.866 39.9001 131.652 39.7416L130.997 39.2865L130.302 38.8825C130.072 38.7342 129.847 38.5808 129.616 38.4376L128.941 38.0234C128.752 37.9109 128.568 37.7933 128.379 37.6808C135.64 33.5593 143.853 31.3911 152.203 31.386ZM103.793 31.386C110.129 31.3809 116.398 32.6286 122.253 35.0473C128.108 37.4661 133.421 41.02 137.9 45.4944C142.38 49.9687 145.929 55.2818 148.353 61.1317C150.776 66.9816 152.019 73.2457 152.019 79.5763C152.019 80.1082 152.019 80.64 151.993 81.1718C151.993 81.3405 151.973 81.5093 151.968 81.6831C151.968 82.0564 151.937 82.4042 151.917 82.7621C151.917 82.9666 151.881 83.1661 151.866 83.3706C151.84 83.6979 151.814 84.0252 151.784 84.3473C151.784 84.5621 151.733 84.7717 151.712 84.9814C151.676 85.2984 151.641 85.6052 151.6 85.9223C151.569 86.1422 151.538 86.3569 151.503 86.5768C151.457 86.8785 151.416 87.1802 151.37 87.4819L151.247 88.1518C151.191 88.4484 151.14 88.7399 151.083 89.0313C151.037 89.2512 150.986 89.4762 150.94 89.6961C150.874 89.9876 150.817 90.2791 150.751 90.5654C150.7 90.7853 150.638 91.0001 150.587 91.22C150.511 91.5114 150.444 91.8029 150.367 92.0893C150.306 92.3091 150.245 92.5188 150.178 92.7387C150.101 93.025 150.02 93.3063 149.933 93.5926C149.871 93.8074 149.8 94.0222 149.728 94.2318C149.636 94.5182 149.554 94.7995 149.452 95.0807C149.38 95.2904 149.304 95.5 149.227 95.7097C149.125 95.9909 149.028 96.2722 148.925 96.5483C148.849 96.758 148.762 96.9625 148.68 97.1722C148.572 97.4483 148.465 97.7244 148.353 97.9954C148.266 98.2 148.174 98.4045 148.082 98.6091C147.964 98.8852 147.851 99.1511 147.729 99.4221L147.442 100.031C147.315 100.297 147.192 100.568 147.069 100.833C146.972 101.038 146.865 101.232 146.762 101.432C146.629 101.693 146.496 101.958 146.358 102.219L146.031 102.807C145.888 103.068 145.745 103.324 145.602 103.579C145.489 103.774 145.371 103.953 145.254 104.157C145.105 104.413 144.957 104.669 144.799 104.909C144.681 105.098 144.558 105.282 144.425 105.477C144.267 105.722 144.108 105.978 143.945 106.228C143.781 106.479 143.689 106.602 143.571 106.791C143.449 106.98 143.239 107.277 143.07 107.517L142.666 108.069C142.492 108.304 142.324 108.54 142.145 108.775L141.72 109.317C141.541 109.547 141.362 109.772 141.178 110.002L140.733 110.529C140.544 110.749 140.36 110.974 140.171 111.199L139.711 111.715C139.516 111.93 139.337 112.145 139.123 112.359C138.913 112.574 138.806 112.697 138.642 112.866C138.483 113.034 138.243 113.285 138.044 113.49L137.537 113.986C137.333 114.19 137.128 114.39 136.924 114.584C136.719 114.778 136.576 114.911 136.397 115.07L135.763 115.647L135.216 116.133C135.001 116.317 134.786 116.507 134.572 116.686C134.352 116.859 134.198 116.992 133.999 117.146C133.804 117.299 133.559 117.504 133.334 117.672C133.109 117.846 132.961 117.969 132.746 118.117C132.531 118.266 132.301 118.46 132.071 118.624L131.457 119.053C131.227 119.217 130.997 119.375 130.767 119.534C130.537 119.692 130.348 119.81 130.133 119.948C129.918 120.086 129.668 120.255 129.432 120.403C129.197 120.551 128.998 120.669 128.778 120.802L128.205 121.145C128.205 120.925 128.205 120.71 128.205 120.49C128.205 120.27 128.205 119.963 128.185 119.697C128.164 119.437 128.159 119.155 128.144 118.884C128.128 118.613 128.118 118.358 128.098 118.097C128.077 117.836 128.052 117.555 128.031 117.289C128.011 117.018 127.985 116.762 127.96 116.507C127.934 116.246 127.898 115.97 127.868 115.704C127.837 115.438 127.806 115.182 127.77 114.921C127.735 114.661 127.694 114.39 127.653 114.124C127.612 113.858 127.576 113.607 127.53 113.352C127.484 113.096 127.438 112.825 127.382 112.559C127.331 112.293 127.29 112.048 127.234 111.807C127.182 111.567 127.121 111.281 127.06 111.02C126.998 110.759 126.952 110.513 126.891 110.268C126.83 110.023 126.758 109.746 126.692 109.486C126.625 109.225 126.564 108.985 126.497 108.734C126.431 108.488 126.349 108.217 126.277 107.962C126.201 107.706 126.134 107.466 126.057 107.21C125.981 106.954 125.894 106.699 125.812 106.458C125.725 106.218 125.653 105.967 125.572 105.707C125.49 105.446 125.393 105.206 125.295 104.955C125.203 104.71 125.122 104.469 125.035 104.229C124.943 103.989 124.835 103.728 124.733 103.477C124.631 103.227 124.544 103.002 124.447 102.766C124.349 102.531 124.232 102.27 124.124 102.015C124.017 101.759 123.92 101.544 123.818 101.319C123.71 101.089 123.588 100.828 123.47 100.568C123.352 100.307 123.255 100.112 123.143 99.8875C123.03 99.6625 122.897 99.4017 122.769 99.1613L122.422 98.4915C122.289 98.2511 122.161 98.021 122.048 97.7807L121.675 97.121C121.537 96.8858 121.394 96.6506 121.251 96.4153C121.107 96.1801 120.995 95.9858 120.877 95.7761C120.76 95.5614 120.581 95.3108 120.432 95.0807C120.284 94.8506 120.167 94.6614 120.029 94.4568C119.89 94.2523 119.717 94.0017 119.558 93.7767L119.134 93.1682C118.97 92.9432 118.801 92.7233 118.638 92.4983C118.474 92.2734 118.346 92.0995 118.198 91.9052L117.676 91.2455C117.523 91.0563 117.375 90.8722 117.216 90.6728C117.058 90.4734 116.843 90.2433 116.674 90.0336C116.51 89.8188 116.357 89.6603 116.198 89.4762C116.035 89.2921 115.825 89.0518 115.631 88.8421C115.442 88.6325 115.309 88.4689 115.145 88.3052C114.981 88.1416 114.746 87.891 114.547 87.6814L114.046 87.1649C113.841 86.9603 113.626 86.7558 113.417 86.5513L112.916 86.0604C112.696 85.8558 112.476 85.6615 112.256 85.4621C112.036 85.2626 111.918 85.145 111.739 84.9916C111.566 84.8382 111.284 84.6183 111.059 84.4087L110.533 83.9587C110.297 83.7695 110.062 83.5854 109.822 83.3911C109.643 83.253 109.469 83.1047 109.29 82.9666C109.045 82.7774 108.789 82.5934 108.538 82.4093C108.364 82.2763 108.191 82.1434 108.012 82.036C107.735 81.8365 107.454 81.6627 107.178 81.453L106.697 81.1206C106.375 80.9008 106.043 80.6962 105.716 80.4866L105.342 80.2462C104.882 79.9599 104.422 79.6837 103.957 79.4127C96.5674 75.1531 88.1914 72.9134 79.662 72.9185C79.1302 72.9185 78.5983 72.9185 78.0716 72.944C77.8927 72.944 77.6984 72.944 77.5347 72.9696C77.187 72.9696 76.8342 72.9952 76.4864 73.0207L75.8421 73.0719C75.5302 73.0974 75.2183 73.123 74.9063 73.1486C74.6762 73.169 74.4461 73.1997 74.2211 73.2253C73.9245 73.256 73.6331 73.2866 73.3365 73.3276C73.1012 73.3582 72.866 73.394 72.6257 73.4349C72.3905 73.4707 72.053 73.5116 71.7717 73.5577L71.0456 73.6906L70.2223 73.8389L69.4962 73.9923L68.6831 74.1662C68.4377 74.2224 68.1973 74.2838 67.9314 74.3452L67.1337 74.5497C66.8883 74.6111 66.6479 74.6827 66.4076 74.7542L65.6201 74.9792L64.894 75.2094L64.1167 75.4599C63.8764 75.5366 63.636 75.6236 63.4008 75.7105L62.6491 75.9866L61.9383 76.2628C61.6878 76.3599 61.4321 76.4571 61.1866 76.5644C60.9412 76.6718 60.7213 76.7588 60.4861 76.861C60.2508 76.9633 59.9849 77.0758 59.7344 77.1883C59.4889 77.3008 59.2793 77.398 59.0491 77.5053C58.819 77.6127 58.548 77.7355 58.2975 77.8531L57.6225 78.1957C57.377 78.3235 57.1316 78.4411 56.8708 78.569C56.61 78.6968 56.431 78.8093 56.2111 78.9423L55.6333 79.2593C55.7253 66.5367 60.8389 54.3664 69.8644 45.3972C78.8898 36.428 91.0959 31.3809 103.829 31.3605H103.793V31.386ZM31.3643 121.472C31.3643 113.014 33.5938 104.704 37.8278 97.3767C42.0619 90.0489 48.147 83.9689 55.4799 79.74C62.8127 75.5111 71.1274 73.2866 79.5904 73.2866C88.0533 73.2866 96.3731 75.5111 103.701 79.74C104.161 80.0059 104.621 80.282 105.076 80.5633L105.491 80.8343C105.797 81.0286 106.109 81.228 106.416 81.4326L106.907 81.7752L107.72 82.3428C107.894 82.4655 108.063 82.5985 108.237 82.7161L108.988 83.2837C109.157 83.4166 109.321 83.5496 109.489 83.6825C109.735 83.8717 109.985 84.0558 110.241 84.2655C110.41 84.4036 110.574 84.5467 110.737 84.6848C110.972 84.8893 111.208 85.0837 111.443 85.2882C111.606 85.4314 111.76 85.5746 111.918 85.7229C112.149 85.9274 112.379 86.1371 112.604 86.3467L113.069 86.8018C113.289 87.0166 113.514 87.2263 113.729 87.441C113.877 87.5944 114.025 87.7529 114.173 87.9115C114.388 88.1314 114.603 88.3512 114.813 88.5762C114.961 88.7296 115.104 88.8933 115.247 89.0518C115.452 89.2819 115.662 89.5069 115.861 89.737C115.999 89.8955 116.137 90.0592 116.275 90.2228C116.475 90.458 116.679 90.6933 116.873 90.9336C117.006 91.0972 117.134 91.266 117.272 91.4347C117.462 91.6751 117.646 91.9154 117.845 92.1608C117.978 92.3347 118.101 92.5035 118.218 92.6773C118.402 92.9228 118.592 93.1631 118.765 93.429C118.888 93.6029 119.011 93.7819 119.139 93.9557C119.313 94.2063 119.486 94.4568 119.655 94.7074C119.773 94.8813 119.89 95.0807 120.008 95.2494C120.172 95.5051 120.34 95.7608 120.504 96.0165L120.836 96.5688C120.995 96.8295 121.154 97.0903 121.307 97.3511L121.624 97.9187C121.772 98.1795 121.926 98.4454 122.069 98.7113L122.371 99.2892C122.509 99.5551 122.652 99.8261 122.785 100.097C122.882 100.291 122.974 100.491 123.066 100.69C123.199 100.961 123.327 101.232 123.439 101.503C123.531 101.703 123.618 101.907 123.71 102.112C123.828 102.383 123.951 102.654 124.068 102.935C124.155 103.14 124.232 103.349 124.319 103.554C124.426 103.83 124.539 104.106 124.646 104.382C124.728 104.592 124.805 104.807 124.876 105.016C124.978 105.293 125.081 105.574 125.178 105.85C125.255 106.07 125.321 106.285 125.393 106.499C125.485 106.781 125.582 107.057 125.669 107.338C125.735 107.558 125.802 107.783 125.863 108.008C125.945 108.284 126.027 108.565 126.103 108.846C126.165 109.071 126.221 109.302 126.277 109.527C126.334 109.752 126.426 110.084 126.492 110.365C126.559 110.641 126.599 110.831 126.651 111.061C126.702 111.291 126.778 111.618 126.835 111.899C126.891 112.18 126.927 112.37 126.968 112.61C127.014 112.85 127.075 113.167 127.121 113.444C127.172 113.72 127.198 113.929 127.239 114.17C127.274 114.415 127.326 114.727 127.361 115.003C127.397 115.279 127.423 115.494 127.453 115.755C127.484 116.016 127.52 116.307 127.551 116.583L127.617 117.335C127.638 117.611 127.668 117.887 127.684 118.163C127.704 118.44 127.714 118.675 127.73 118.915C127.745 119.155 127.76 119.462 127.77 119.738C127.781 120.014 127.77 120.26 127.791 120.521V121.175C127.602 121.068 127.418 120.966 127.213 120.858L126.553 120.485L125.827 120.112C125.597 119.999 125.372 119.882 125.142 119.769C124.912 119.662 124.656 119.539 124.39 119.421L123.695 119.099L122.943 118.782L122.232 118.48L121.481 118.189C121.24 118.092 120.995 117.995 120.755 117.903L120.003 117.637C119.757 117.55 119.517 117.463 119.251 117.376C118.99 117.294 118.75 117.212 118.5 117.13L117.748 116.895L116.996 116.675L116.244 116.466L115.472 116.271L114.721 116.082C114.46 116.021 114.194 115.97 113.933 115.913L113.181 115.75C112.916 115.699 112.645 115.653 112.373 115.601C112.102 115.55 111.877 115.509 111.622 115.469C111.366 115.428 111.075 115.387 110.799 115.346L110.047 115.238C109.76 115.203 109.474 115.172 109.188 115.141C108.896 115.111 108.717 115.08 108.477 115.059C108.17 115.029 107.863 115.008 107.551 114.983L106.897 114.932C106.549 114.911 106.196 114.896 105.849 114.88L105.307 114.855C104.78 114.834 104.248 114.829 103.721 114.829C95.1919 114.824 86.8107 117.069 79.4216 121.329C78.9563 121.6 78.4961 121.876 78.041 122.157L77.5501 122.474C77.2637 122.658 76.9722 122.847 76.691 123.031C76.4967 123.164 76.3177 123.297 76.1183 123.43C75.8728 123.604 75.6222 123.773 75.3666 123.947L74.8245 124.428C74.6046 124.591 74.3745 124.76 74.1546 124.929L73.5461 125.414C73.3365 125.583 73.1166 125.747 72.912 125.921L72.3138 126.432C72.1092 126.606 71.9047 126.775 71.7052 126.954C71.5058 127.127 71.332 127.327 71.1172 127.485L70.5291 128.022C70.3399 128.201 70.1558 128.396 69.9615 128.575C69.7723 128.748 69.5882 128.948 69.3939 129.127C69.2047 129.301 69.0206 129.5 68.8416 129.694C68.6627 129.889 68.4684 130.068 68.2996 130.262C68.1309 130.451 67.9468 130.656 67.7678 130.85C67.5888 131.044 67.415 131.223 67.2462 131.433C67.0775 131.638 66.8985 131.837 66.7297 132.042C66.561 132.246 66.3922 132.435 66.2286 132.64C66.065 132.844 65.8962 133.054 65.7326 133.259L65.2468 133.872C65.0832 134.082 64.9298 134.297 64.7764 134.506C64.6178 134.716 64.4644 134.921 64.3161 135.135L63.861 135.79C63.7127 136.005 63.5644 136.214 63.4213 136.429C63.2781 136.649 63.1298 136.874 62.9917 137.094C62.8485 137.314 62.7054 137.528 62.5724 137.748C62.4394 137.968 62.2963 138.198 62.1633 138.423C62.0304 138.648 61.8923 138.863 61.7593 139.093C61.6264 139.318 61.4986 139.553 61.3861 139.784C61.2684 140.014 61.1304 140.239 61.0128 140.469C60.8951 140.699 60.7724 140.934 60.6395 141.164C60.5065 141.394 60.394 141.624 60.2662 141.86C60.1332 142.095 60.0412 142.33 59.9287 142.56C59.8162 142.795 59.6986 143.036 59.5912 143.276C59.4838 143.516 59.3764 143.752 59.2741 143.992C59.1668 144.232 59.0645 144.473 58.9622 144.713C58.8599 144.953 58.7628 145.199 58.6656 145.439C58.5685 145.68 58.4713 145.925 58.3793 146.17C58.2872 146.416 58.2003 146.661 58.1082 146.922C58.0162 147.183 57.9242 147.413 57.8423 147.674C57.7605 147.935 57.6787 148.17 57.5969 148.426C57.5151 148.681 57.4333 148.927 57.3514 149.177C57.2747 149.428 57.2031 149.678 57.1316 149.929C57.0549 150.179 56.9833 150.44 56.9117 150.681C56.8401 150.921 56.7787 151.182 56.7174 151.432C56.656 151.678 56.5844 151.944 56.523 152.204C56.4617 152.465 56.4054 152.716 56.3492 152.956C56.2929 153.196 56.2316 153.478 56.1753 153.738C56.1242 153.999 56.0782 154.25 56.027 154.511C55.9759 154.771 55.9248 155.037 55.8787 155.298C55.8327 155.559 55.7969 155.815 55.756 156.075C55.7151 156.336 55.6742 156.602 55.6384 156.868C55.6026 157.134 55.577 157.39 55.5464 157.65C55.5157 157.911 55.4799 158.182 55.4492 158.448C55.4185 158.714 55.4032 158.975 55.3827 159.236C55.3623 159.496 55.3316 159.773 55.3162 160.044C55.2958 160.315 55.2804 160.57 55.2702 160.836C55.26 161.102 55.2344 161.378 55.2293 161.649C55.2242 161.925 55.2293 162.176 55.2293 162.442C55.2293 162.708 55.2293 162.876 55.2293 163.096C47.9834 158.832 41.9749 152.757 37.792 145.47C33.6091 138.183 31.4001 129.93 31.3796 121.528L31.3643 121.472ZM103.793 211.558C91.0039 211.558 78.7364 206.48 69.6956 197.444C60.6497 188.409 55.5719 176.151 55.5719 163.367C55.5719 150.589 60.6548 138.331 69.6956 129.291C78.7415 120.255 91.0039 115.177 103.793 115.177C104.32 115.177 104.841 115.177 105.368 115.203L105.895 115.228C106.242 115.228 106.595 115.254 106.938 115.279C107.147 115.279 107.362 115.315 107.572 115.33L108.508 115.407L109.178 115.484C109.474 115.52 109.771 115.545 110.062 115.586C110.297 115.617 110.527 115.653 110.758 115.688L111.617 115.816L112.317 115.944C112.598 115.995 112.875 116.041 113.156 116.097C113.432 116.154 113.626 116.195 113.867 116.246C114.102 116.297 114.414 116.358 114.69 116.42L115.401 116.594L116.214 116.798L116.925 116.997C117.19 117.074 117.456 117.146 117.722 117.222L118.433 117.447L119.215 117.698C119.451 117.775 119.686 117.862 119.926 117.943L120.678 118.22L121.384 118.496L122.135 118.792L122.841 119.094L123.572 119.411C123.807 119.518 124.043 119.631 124.273 119.738L124.989 120.076C125.219 120.188 125.449 120.306 125.684 120.429C125.919 120.546 126.155 120.664 126.385 120.802C126.615 120.94 126.845 121.053 127.075 121.175C127.305 121.298 127.448 121.375 127.617 121.477L127.075 121.809C126.84 121.953 126.605 122.091 126.374 122.239L125.715 122.663C125.485 122.812 125.255 122.965 125.03 123.118C124.805 123.272 124.605 123.41 124.396 123.558L123.731 124.029L123.127 124.484C122.902 124.653 122.677 124.816 122.457 124.99C122.238 125.164 122.084 125.302 121.875 125.455C121.67 125.609 121.43 125.808 121.215 125.987C120.995 126.166 120.842 126.304 120.652 126.468C120.463 126.626 120.223 126.841 120.013 127.02C119.804 127.199 119.64 127.352 119.471 127.511L118.842 128.094L118.326 128.595L117.712 129.198C117.548 129.367 117.385 129.541 117.221 129.71C117.058 129.884 116.817 130.124 116.623 130.339L116.152 130.86C115.958 131.08 115.779 131.29 115.569 131.515C115.365 131.735 115.268 131.868 115.119 132.047C114.971 132.226 114.746 132.492 114.557 132.717C114.368 132.942 114.271 133.09 114.127 133.259C113.979 133.427 113.754 133.719 113.585 133.954L113.176 134.527C112.997 134.762 112.823 134.997 112.65 135.243C112.517 135.427 112.394 135.616 112.276 135.805C112.159 135.994 111.939 136.291 111.775 136.557C111.647 136.746 111.53 136.93 111.402 137.13C111.238 137.375 111.08 137.626 110.926 137.881C110.809 138.076 110.691 138.255 110.574 138.464C110.425 138.72 110.272 138.97 110.124 139.216C109.975 139.461 109.904 139.615 109.791 139.814C109.648 140.075 109.5 140.331 109.362 140.592C109.224 140.852 109.152 141.001 109.045 141.2C108.912 141.461 108.774 141.722 108.641 141.982L108.339 142.611C108.216 142.872 108.088 143.138 107.966 143.404C107.843 143.67 107.782 143.834 107.689 144.043C107.597 144.258 107.454 144.57 107.342 144.841C107.25 145.056 107.168 145.276 107.081 145.495C106.989 145.71 106.866 146.032 106.764 146.303C106.657 146.574 106.6 146.748 106.524 146.973C106.447 147.193 106.324 147.515 106.232 147.786C106.14 148.057 106.084 148.241 106.012 148.472C105.936 148.702 105.833 149.014 105.751 149.279C105.67 149.55 105.618 149.755 105.547 149.99C105.475 150.225 105.388 150.527 105.317 150.793C105.245 151.059 105.194 151.284 105.128 151.545C105.066 151.806 104.989 152.071 104.928 152.343C104.867 152.614 104.816 152.844 104.764 153.094C104.713 153.34 104.647 153.621 104.591 153.887C104.54 154.153 104.493 154.413 104.442 154.674C104.391 154.935 104.34 155.186 104.299 155.446C104.258 155.707 104.217 155.983 104.176 156.254C104.136 156.525 104.1 156.766 104.064 157.006C104.028 157.246 103.997 157.563 103.962 157.845C103.926 158.126 103.9 158.341 103.875 158.596C103.849 158.852 103.824 159.2 103.798 159.502C103.778 159.737 103.757 159.962 103.737 160.192C103.716 160.545 103.701 160.898 103.686 161.25C103.686 161.434 103.686 161.624 103.66 161.797C103.66 162.334 103.634 162.871 103.634 163.408C103.634 163.945 103.634 164.482 103.66 165.019C103.66 165.203 103.68 165.392 103.686 165.566C103.706 165.919 103.716 166.272 103.737 166.625C103.757 166.855 103.778 167.08 103.798 167.315C103.818 167.617 103.844 167.918 103.875 168.22C103.905 168.522 103.936 168.716 103.962 168.972C103.987 169.228 104.023 169.534 104.064 169.81C104.1 170.087 104.141 170.322 104.176 170.578C104.212 170.838 104.253 171.114 104.299 171.38C104.345 171.646 104.391 171.897 104.442 172.158C104.493 172.418 104.534 172.684 104.586 172.94C104.637 173.201 104.703 173.467 104.759 173.733C104.821 173.993 104.867 174.239 104.923 174.484C104.984 174.73 105.056 175.016 105.122 175.282C105.189 175.548 105.24 175.773 105.312 176.034C105.378 176.294 105.465 176.565 105.542 176.831C105.618 177.097 105.675 177.312 105.746 177.547C105.818 177.783 105.92 178.089 106.007 178.355C106.099 178.621 106.155 178.815 106.227 179.046C106.304 179.276 106.421 179.588 106.518 179.854C106.616 180.125 106.677 180.298 106.759 180.523C106.841 180.748 106.974 181.06 107.076 181.326C107.183 181.592 107.25 181.766 107.337 181.981C107.429 182.201 107.567 182.513 107.679 182.778L107.96 183.428C108.078 183.689 108.206 183.95 108.334 184.21C108.462 184.471 108.533 184.635 108.635 184.844C108.738 185.054 108.901 185.361 109.034 185.622C109.167 185.882 109.244 186.036 109.351 186.24C109.489 186.501 109.633 186.757 109.776 187.007C109.919 187.263 109.996 187.411 110.113 187.611C110.231 187.81 110.41 188.112 110.558 188.363C110.706 188.608 110.793 188.761 110.916 188.956C111.034 189.15 111.228 189.447 111.387 189.707C111.545 189.968 111.632 190.081 111.76 190.295L112.251 191.016L112.645 191.538C112.813 191.773 112.987 192.008 113.161 192.239C113.335 192.469 113.437 192.612 113.575 192.801C113.718 192.99 113.933 193.256 114.107 193.481L114.547 194.039C114.726 194.264 114.92 194.483 115.099 194.698L115.559 195.245C115.748 195.46 115.933 195.67 116.132 195.885C116.326 196.099 116.449 196.258 116.618 196.422C116.781 196.585 116.991 196.831 117.201 197.035C117.41 197.24 117.538 197.408 117.712 197.562C117.886 197.715 118.111 197.956 118.31 198.15L118.842 198.661C119.047 198.85 119.246 199.035 119.456 199.219C119.66 199.403 119.829 199.561 120.013 199.73C120.197 199.899 120.427 200.088 120.632 200.262C120.836 200.436 121.005 200.599 121.22 200.763C121.43 200.927 121.639 201.106 121.849 201.274L122.463 201.76C122.672 201.924 122.892 202.082 123.102 202.246L123.741 202.721L124.385 203.177C124.605 203.335 124.83 203.494 125.055 203.642C125.285 203.79 125.485 203.928 125.699 204.071L126.4 204.527L127.055 204.925L127.638 205.283C120.376 209.41 112.164 211.578 103.813 211.578L103.793 211.558ZM152.203 211.558C145.873 211.563 139.598 210.315 133.748 207.896C127.898 205.478 122.58 201.929 118.106 197.449C113.626 192.975 110.078 187.662 107.654 181.817C105.23 175.972 103.987 169.703 103.987 163.378C103.987 162.846 103.987 162.314 104.013 161.777C104.013 161.608 104.033 161.445 104.038 161.276C104.038 160.903 104.069 160.55 104.09 160.187C104.09 159.982 104.125 159.783 104.141 159.588C104.166 159.261 104.192 158.934 104.222 158.607C104.243 158.392 104.274 158.177 104.299 157.967C104.335 157.656 104.366 157.344 104.407 157.037C104.437 156.817 104.468 156.597 104.504 156.377C104.55 156.075 104.591 155.774 104.642 155.472C104.678 155.252 104.718 155.032 104.759 154.817C104.811 154.521 104.867 154.219 104.923 153.923C104.969 153.703 105.015 153.483 105.066 153.263C105.128 152.971 105.189 152.68 105.255 152.389C105.307 152.169 105.368 151.954 105.419 151.734C105.496 151.443 105.562 151.156 105.639 150.87C105.7 150.65 105.762 150.435 105.828 150.215C105.91 149.929 105.992 149.648 106.074 149.366C106.135 149.147 106.212 148.932 106.283 148.717C106.37 148.436 106.457 148.154 106.554 147.878C106.626 147.664 106.708 147.454 106.784 147.239C106.882 146.963 106.979 146.682 107.086 146.406C107.163 146.196 107.25 145.991 107.332 145.777C107.439 145.506 107.546 145.224 107.659 144.953C107.746 144.749 107.838 144.544 107.93 144.34C108.047 144.069 108.165 143.798 108.283 143.527C108.375 143.322 108.472 143.118 108.569 142.913C108.692 142.647 108.814 142.381 108.942 142.115L109.249 141.512L109.653 140.735C109.76 140.53 109.873 140.336 109.985 140.136C110.093 139.932 110.267 139.625 110.415 139.385C110.527 139.19 110.65 139.011 110.763 138.802C110.911 138.551 111.059 138.301 111.213 138.05C111.366 137.805 111.458 137.677 111.586 137.467C111.719 137.263 111.898 136.981 112.056 136.736C112.22 136.49 112.317 136.363 112.43 136.163L112.921 135.452C113.054 135.263 113.197 135.079 113.33 134.895C113.463 134.711 113.672 134.425 113.846 134.2C114.02 133.969 114.133 133.826 114.276 133.652C114.419 133.479 114.634 133.192 114.813 132.972C114.992 132.752 115.114 132.614 115.258 132.435C115.406 132.256 115.631 131.99 115.815 131.776C115.999 131.561 116.127 131.423 116.285 131.249C116.444 131.075 116.659 130.819 116.858 130.61C117.058 130.4 117.185 130.267 117.349 130.093L117.942 129.475L118.454 128.979C118.658 128.779 118.858 128.575 119.067 128.38L119.599 127.889C119.804 127.7 120.013 127.516 120.228 127.322C120.443 127.127 120.601 127.005 120.78 126.841C120.954 126.683 121.205 126.468 121.419 126.294L121.992 125.829C122.212 125.655 122.427 125.476 122.647 125.302L123.245 124.857L123.915 124.356C124.119 124.208 124.324 124.07 124.528 123.926C124.733 123.783 124.984 123.604 125.214 123.446C125.449 123.287 125.638 123.17 125.848 123.031L126.548 122.576L127.203 122.178L127.77 121.835C127.77 122.055 127.77 122.27 127.77 122.489C127.77 122.709 127.77 123.016 127.791 123.282C127.811 123.548 127.816 123.824 127.832 124.095C127.847 124.366 127.857 124.622 127.878 124.883C127.898 125.143 127.924 125.425 127.944 125.691C127.965 125.962 127.99 126.217 128.016 126.473C128.041 126.734 128.082 127.01 128.108 127.276C128.139 127.542 128.174 127.797 128.205 128.058C128.241 128.319 128.282 128.59 128.323 128.856C128.364 129.122 128.399 129.372 128.445 129.628C128.491 129.884 128.538 130.155 128.594 130.421C128.645 130.681 128.686 130.932 128.742 131.188C128.793 131.443 128.855 131.709 128.911 131.97C128.967 132.231 129.023 132.481 129.085 132.722C129.146 132.962 129.218 133.238 129.284 133.499C129.351 133.76 129.412 134.005 129.478 134.251C129.545 134.496 129.627 134.762 129.698 135.018C129.775 135.273 129.841 135.519 129.918 135.769C129.995 136.02 130.077 136.276 130.164 136.521C130.245 136.767 130.327 137.017 130.409 137.273C130.491 137.528 130.588 137.774 130.68 138.024L130.946 138.776C131.043 139.022 131.145 139.272 131.243 139.528C131.34 139.784 131.432 140.014 131.534 140.249L131.851 140.98L132.194 141.67L132.536 142.391L132.869 143.087L133.242 143.798C133.36 144.023 133.472 144.253 133.595 144.478C133.718 144.703 133.856 144.948 133.989 145.183C134.122 145.419 134.234 145.628 134.362 145.853C134.495 146.073 134.638 146.308 134.776 146.544C134.914 146.779 135.037 146.983 135.149 147.198C135.262 147.413 135.441 147.653 135.589 147.878C135.737 148.103 135.86 148.308 136.003 148.518C136.147 148.727 136.31 148.962 136.464 149.187C136.617 149.407 136.75 149.607 136.893 149.811C137.041 150.016 137.215 150.246 137.379 150.466C137.537 150.681 137.681 150.875 137.834 151.074C137.987 151.274 138.171 151.504 138.34 151.719C138.509 151.933 138.647 152.092 138.811 152.307C138.969 152.521 139.184 152.736 139.348 152.946C139.511 153.156 139.665 153.319 139.828 153.508C139.992 153.698 140.202 153.928 140.391 154.137C140.58 154.342 140.718 154.511 140.882 154.685C141.045 154.858 141.275 155.088 141.47 155.298C141.664 155.503 141.802 155.651 141.976 155.825C142.15 155.999 142.39 156.229 142.595 156.423L143.111 156.924C143.326 157.124 143.541 157.298 143.761 157.512C143.975 157.727 144.103 157.834 144.287 157.993C144.466 158.152 144.737 158.366 144.962 158.571L145.494 159.026C145.729 159.22 145.975 159.399 146.215 159.599L146.737 160.018C146.987 160.207 147.243 160.391 147.488 160.586L148.01 160.959C148.281 161.153 148.557 161.332 148.833 161.532L149.324 161.874C149.641 162.084 149.953 162.288 150.275 162.488L150.679 162.749C151.134 163.035 151.6 163.311 152.065 163.582C159.454 167.842 167.83 170.081 176.36 170.081C176.891 170.081 177.423 170.081 177.95 170.056L178.482 170.03C178.835 170.03 179.182 170 179.53 169.979L180.169 169.928C180.486 169.908 180.798 169.882 181.11 169.851C181.335 169.831 181.56 169.8 181.785 169.775C182.082 169.739 182.383 169.708 182.68 169.667L183.365 169.57C183.657 169.524 183.953 169.488 184.245 169.437L184.94 169.314L185.794 169.156C186.024 169.11 186.26 169.059 186.49 169.008L187.333 168.829L188.034 168.655C188.31 168.588 188.591 168.522 188.867 168.445C189.144 168.368 189.333 168.312 189.568 168.251C189.798 168.189 190.115 168.103 190.386 168.021L191.082 167.801C191.353 167.714 191.624 167.632 191.89 167.54L192.58 167.295C192.846 167.203 193.112 167.111 193.373 167.013L194.058 166.747C194.319 166.645 194.584 166.543 194.84 166.436C195.101 166.328 195.29 166.246 195.515 166.149L196.292 165.812L196.957 165.505L197.709 165.132C197.929 165.024 198.149 164.912 198.363 164.799C198.583 164.692 198.864 164.543 199.115 164.426L199.759 164.073C199.959 163.966 200.158 163.858 200.353 163.746C200.25 176.458 195.132 188.618 186.106 197.577C177.127 206.505 164.926 211.542 152.203 211.558ZM200.526 163.214C193.194 167.438 184.879 169.662 176.416 169.662C167.953 169.662 159.638 167.438 152.305 163.214C151.845 162.948 151.385 162.672 150.93 162.391C150.756 162.283 150.577 162.161 150.403 162.048C150.132 161.869 149.861 161.7 149.595 161.521C149.334 161.342 149.191 161.245 148.992 161.107C148.792 160.969 148.521 160.785 148.291 160.616C148.061 160.448 147.882 160.315 147.678 160.161L147.018 159.67L146.404 159.179C146.2 159.016 145.99 158.852 145.786 158.683C145.581 158.515 145.387 158.346 145.187 158.177C144.988 158.008 144.783 157.834 144.584 157.661C144.384 157.487 144.211 157.313 144.011 157.139L143.423 156.602L142.876 156.065L142.288 155.523C142.114 155.344 141.945 155.15 141.771 154.981C141.598 154.817 141.398 154.608 141.204 154.393C141.01 154.178 140.866 154.02 140.703 153.836C140.539 153.652 140.329 153.437 140.156 153.227C139.982 153.023 139.833 152.854 139.67 152.66C139.506 152.465 139.317 152.245 139.143 152.036L138.688 151.458C138.514 151.238 138.34 151.028 138.177 150.808C138.013 150.594 137.885 150.435 137.742 150.225C137.599 150.016 137.41 149.781 137.246 149.556L136.832 148.957C136.673 148.727 136.515 148.502 136.356 148.272C136.203 148.042 136.095 147.868 135.962 147.669L135.507 146.963C135.385 146.758 135.262 146.554 135.134 146.349C135.001 146.145 134.843 145.869 134.699 145.628L134.352 145.01C134.214 144.764 134.076 144.514 133.937 144.258C133.804 144.002 133.723 143.844 133.61 143.629C133.503 143.419 133.349 143.128 133.237 142.877C133.124 142.632 133.032 142.448 132.935 142.238C132.833 142.028 132.69 141.727 132.562 141.471C132.434 141.215 132.373 141.042 132.276 140.822C132.178 140.607 132.045 140.305 131.938 140.044C131.831 139.784 131.759 139.605 131.672 139.39C131.585 139.175 131.457 138.863 131.355 138.592C131.253 138.326 131.191 138.152 131.11 137.932C131.028 137.713 130.915 137.396 130.818 137.125C130.721 136.853 130.67 136.675 130.598 136.455C130.522 136.235 130.419 135.913 130.337 135.642C130.256 135.371 130.205 135.181 130.133 134.956C130.066 134.726 129.969 134.414 129.898 134.138C129.821 133.862 129.78 133.673 129.719 133.443C129.657 133.213 129.576 132.901 129.509 132.619C129.443 132.343 129.402 132.149 129.345 131.909C129.289 131.673 129.223 131.362 129.166 131.085C129.11 130.809 129.074 130.61 129.034 130.369C128.988 130.129 128.926 129.817 128.88 129.541C128.834 129.265 128.803 129.055 128.763 128.81C128.727 128.564 128.676 128.258 128.64 127.981C128.604 127.705 128.573 127.485 128.548 127.23C128.517 126.974 128.481 126.683 128.456 126.406C128.43 126.13 128.405 125.9 128.384 125.655C128.364 125.409 128.338 125.108 128.318 124.831C128.297 124.56 128.287 124.32 128.272 124.08C128.256 123.845 128.241 123.533 128.231 123.256C128.22 122.98 128.231 122.735 128.21 122.474V121.835C128.399 121.942 128.584 122.045 128.793 122.152L129.448 122.525L130.199 122.899C130.419 123.011 130.644 123.129 130.869 123.236C131.094 123.343 131.37 123.476 131.621 123.594C131.872 123.712 132.066 123.809 132.296 123.911C132.526 124.013 132.802 124.131 133.048 124.238C133.293 124.346 133.503 124.438 133.733 124.53C133.963 124.622 134.244 124.734 134.505 124.831C134.766 124.934 134.965 125.016 135.2 125.102C135.436 125.189 135.722 125.292 135.983 125.384C136.244 125.476 136.448 125.552 136.683 125.629C136.919 125.706 137.215 125.798 137.476 125.885L138.187 126.105C138.453 126.187 138.724 126.258 138.99 126.335L139.706 126.534C139.977 126.606 140.248 126.667 140.524 126.739C140.8 126.805 140.999 126.862 141.24 126.913C141.48 126.964 141.792 127.03 142.068 127.092L142.779 127.245L143.623 127.393L144.333 127.526L145.198 127.654C145.428 127.69 145.663 127.726 145.898 127.756C146.19 127.792 146.486 127.823 146.783 127.859L147.468 127.935C147.775 127.966 148.087 127.987 148.399 128.012C148.613 128.033 148.828 128.053 149.043 128.063C149.391 128.084 149.738 128.099 150.091 128.114C150.27 128.114 150.465 128.135 150.633 128.14C151.16 128.14 151.692 128.166 152.218 128.166C160.753 128.155 169.139 125.9 176.523 121.62C176.994 121.349 177.454 121.073 177.909 120.792C178.062 120.695 178.211 120.592 178.364 120.5C178.666 120.306 178.962 120.127 179.259 119.917C179.433 119.8 179.602 119.677 179.77 119.559C180.041 119.375 180.312 119.186 180.578 119.002C180.752 118.874 180.926 118.741 181.105 118.608C181.356 118.419 181.611 118.235 181.857 118.046C182.036 117.908 182.21 117.765 182.389 117.621C182.629 117.432 182.869 117.248 183.104 117.054L183.631 116.609C183.861 116.415 184.091 116.236 184.316 116.026C184.541 115.816 184.664 115.709 184.838 115.555L185.487 114.962C185.661 114.799 185.835 114.63 186.004 114.461C186.178 114.292 186.418 114.062 186.617 113.863C186.822 113.658 186.95 113.515 187.119 113.341C187.287 113.167 187.523 112.932 187.712 112.723C187.901 112.513 188.034 112.349 188.198 112.186C188.361 112.022 188.571 111.766 188.765 111.552C188.959 111.337 189.082 111.178 189.241 110.994C189.399 110.81 189.614 110.565 189.783 110.355L190.238 109.777C190.412 109.557 190.586 109.337 190.754 109.117C190.923 108.898 191.046 108.724 191.194 108.529L191.695 107.86L192.12 107.246C192.278 107.016 192.437 106.796 192.59 106.566C192.744 106.336 192.861 106.152 192.994 105.942C193.127 105.732 193.296 105.487 193.439 105.252C193.587 105.021 193.7 104.822 193.812 104.612C193.93 104.398 194.099 104.142 194.232 103.907C194.365 103.672 194.482 103.472 194.605 103.252C194.733 103.032 194.876 102.782 195.004 102.541C195.132 102.301 195.239 102.097 195.351 101.872C195.469 101.647 195.602 101.391 195.725 101.145C195.847 100.9 195.945 100.69 196.057 100.465C196.165 100.24 196.292 99.9795 196.405 99.7136C196.517 99.4528 196.609 99.2483 196.707 99.0182C196.809 98.788 196.926 98.5272 197.034 98.2665C197.141 98.0057 197.223 97.796 197.32 97.5608C197.417 97.3256 197.525 97.0597 197.617 96.8091C197.709 96.5636 197.791 96.3284 197.878 96.0881C197.965 95.8477 198.067 95.5869 198.154 95.3364C198.246 95.0909 198.312 94.8506 198.394 94.6103C198.476 94.3699 198.563 94.0989 198.639 93.8381C198.716 93.5773 198.788 93.3523 198.859 93.0864C198.931 92.8256 199.013 92.5699 199.084 92.3091C199.156 92.0484 199.212 91.808 199.274 91.5575C199.34 91.3069 199.412 91.0359 199.473 90.7751C199.534 90.5143 199.591 90.2739 199.647 90.0234C199.703 89.7779 199.764 89.4967 199.821 89.2308C199.877 88.9649 199.918 88.7245 199.969 88.4791C200.015 88.2336 200.071 87.9524 200.117 87.6865C200.163 87.4206 200.199 87.1751 200.235 86.9348C200.271 86.6944 200.322 86.3979 200.358 86.1319C200.393 85.866 200.424 85.6155 200.45 85.3547C200.48 85.0939 200.516 84.8178 200.542 84.5467C200.567 84.2757 200.588 84.0252 200.613 83.7644C200.634 83.5036 200.664 83.2223 200.68 82.9564C200.7 82.6854 200.716 82.4297 200.726 82.1689C200.736 81.9081 200.762 81.6269 200.767 81.3508C200.772 81.0746 200.767 80.8241 200.787 80.5633C200.808 80.3025 200.787 80.1235 200.787 79.9036C208.064 84.1683 214.098 90.2637 218.281 97.5864C222.464 104.909 224.652 113.198 224.627 121.63C224.601 130.063 222.361 138.342 218.132 145.633C213.904 152.936 207.834 158.995 200.526 163.214Z" fill="#94FF0B"/>
<path d="M140.831 109.256H134.439V115.648H140.831V109.256Z" fill="#C26E80"/>
<path d="M121.655 109.256V115.648H128.047H134.438V109.256H128.047H121.655Z" fill="#6B473A"/>
<path d="M147.222 109.256H140.83V115.648H147.222V109.256Z" fill="#6B473A"/>
<path d="M179.182 109.256H172.79H166.398V115.648H172.79H179.182H185.574V109.256H179.182Z" fill="#6B473A"/>
<path d="M134.439 102.864V96.4717H128.047V102.864V109.256H134.439V102.864Z" fill="#FFB1BA"/>
<path d="M140.831 122.039H134.439V128.431H140.831V122.039Z" fill="#FFB1BA"/>
<path d="M140.83 128.431V134.823V141.215H147.222V134.823V128.431H140.83Z" fill="#FFB1BA"/>
<path d="M153.614 122.04V115.648V109.256H147.222V115.648V122.04V128.432V134.824H153.614V128.432V122.04Z" fill="#E0A27E"/>
<path d="M160.006 134.823H153.615V141.215H160.006H166.398V134.823H160.006Z" fill="#E0A27E"/>
<path d="M160.006 153.999H153.614H147.222V160.391H153.614H160.006H166.398V153.999H160.006Z" fill="#D5665F"/>
<path d="M179.182 83.6876V77.2957H172.79V70.9037H166.398V64.5117H160.006V70.9037H121.655V77.2957H115.263V83.6876H108.871V96.4716H102.479V102.864H96.0868V109.255H89.6948V134.823H108.871V128.431H115.263V141.215H121.655V147.607H128.047V160.391H134.439V153.999H140.831V147.607H172.79V153.999H185.574V115.647H179.182V122.039H172.79V115.647H166.398V109.255H185.574V83.6876H179.182ZM96.0868 128.431V115.647H102.479V128.431H96.0868ZM160.006 141.215H153.615V134.823H147.223V141.215H140.831V128.431H134.439V115.647H121.655V109.255H128.047V96.4716H134.439V109.255H153.615V134.823H166.398V141.215H160.006Z" fill="#FFD8C1"/>
<path d="M147.222 122.04V115.648H140.83V122.04V128.432H147.222V122.04Z" fill="#FFD8C1"/>
<path d="M140.831 166.784H147.223V160.392H140.831H134.439V166.784H140.831Z" fill="#FFD8C1"/>
<path d="M166.398 160.392V166.784H172.79H179.182V160.392H172.79H166.398Z" fill="#FFD8C1"/>
<path d="M160.006 58.1191H153.614H147.222H140.83H134.438H128.047H121.655H115.263H108.871V64.5111H115.263H121.655H128.047H134.438H140.83H147.222H153.614H160.006H166.398V58.1191H160.006Z" fill="#18141B"/>
<path d="M102.479 70.9037V77.2957H108.87V70.9037V64.5117H102.479V70.9037Z" fill="#18141B"/>
<path d="M172.79 64.5117H166.398V70.9037H172.79V64.5117Z" fill="#18141B"/>
<path d="M179.182 70.9033H172.791V77.2953H179.182V70.9033Z" fill="#18141B"/>
<path d="M102.479 77.2959H96.0869V83.6879H102.479V77.2959Z" fill="#18141B"/>
<path d="M185.574 77.2959H179.182V83.6879H185.574V77.2959Z" fill="#18141B"/>
<path d="M89.6948 90.0795V96.4714V102.863V109.255H96.0868V102.863V96.4714V90.0795V83.6875H89.6948V90.0795Z" fill="#18141B"/>
<path d="M185.574 83.6875V90.0795V96.4714V102.863V109.255V115.647V122.039V128.431V134.823V141.215V147.607V153.999V160.391H191.966V153.999V147.607V141.215V134.823V128.431V122.039V115.647V109.255V102.863V96.4714V90.0795V83.6875H185.574Z" fill="#18141B"/>
<path d="M83.3027 115.648V122.04V128.432V134.824H89.6947V128.432V122.04V115.648V109.256H83.3027V115.648Z" fill="#18141B"/>
<path d="M140.831 115.648H134.439V122.04H140.831V115.648Z" fill="#18141B"/>
<path d="M179.182 115.648H172.791V122.04H179.182V115.648Z" fill="#18141B"/>
<path d="M96.0868 134.823H89.6948V141.215H96.0868V134.823Z" fill="#18141B"/>
<path d="M96.0869 153.999V160.391V166.783V173.175H102.479V166.783V160.391V153.999V147.607V141.215H96.0869V147.607V153.999Z" fill="#18141B"/>
<path d="M102.479 185.96V179.568V173.176H96.0867H89.6947H83.3027V179.568H89.6947H96.0867V185.96V192.352H102.479H108.871V185.96H102.479Z" fill="#4E5458"/>
<path d="M115.263 192.352H108.871V198.744H115.263V192.352Z" fill="#4E5458"/>
<path d="M179.182 153.999H172.79V147.607H166.398H160.006H153.614H147.222H140.83V153.999H134.438V160.391H140.83H147.222V153.999H153.614H160.006H166.398V160.391H172.79H179.182V166.782H172.79H166.398V160.391H160.006H153.614H147.222V166.782H140.83H134.438V160.391H128.046V153.999V147.607H121.654V141.215H115.262V134.823V128.431H108.87V134.823H102.479V141.215V147.607V153.999H108.87V160.391V166.782H115.262V173.174H121.654V179.566H128.046V185.958H134.438V192.35H140.83V198.742H147.222H153.614H160.006H166.398H172.79V192.35V185.958H179.182V179.566H185.574V173.174V166.782V160.391V153.999H179.182Z" fill="#29231F"/>
<path d="M153.615 64.5117H147.223H140.831H134.439H128.047H121.655H115.263H108.871V70.9037V77.2957H102.479V83.6876H96.0869V90.0796V96.4716V102.864H102.479V96.4716H108.871V90.0796V83.6876H115.263V77.2957H121.655V70.9037H128.047H134.439H140.831H147.223H153.615H160.007V64.5117H153.615Z" fill="#FEC8A9"/>
<path d="M102.479 122.04V115.648H96.0869V122.04V128.432H102.479V122.04Z" fill="#FEC8A9"/>
<path d="M102.479 134.823H96.0869V141.215H102.479V134.823Z" fill="#FEC8A9"/>
<path d="M134.438 185.959H128.046V179.567H121.654V173.175H115.262V166.783H108.87V160.391V153.999H102.479V160.391V166.783V173.175V179.567V185.959H108.87V192.351H115.262V198.743H121.654V205.135H128.046H134.438H140.83V198.743V192.351H134.438V185.959Z" fill="#FEC8A9"/>
<path d="M134.438 205.135H128.047H121.655V211.527H128.047H134.438H140.83V205.135H134.438Z" fill="#1B4C3A"/>
<path d="M89.6948 192.352H83.3029H76.9109V198.744H83.3029V205.135H89.6948V198.744V192.352Z" fill="#FF0E4B"/>
<path d="M185.574 198.744V192.352H179.182H172.791V198.744H179.182H185.574Z" fill="#FF0E4B"/>
<path d="M76.9108 198.742H70.5188V205.134H76.9108V198.742Z" fill="#FF0E4B"/>
<path d="M102.479 198.742H96.0869V205.134H102.479V198.742Z" fill="#FF0E4B"/>
<path d="M160.006 198.742H153.615V205.134H160.006V198.742Z" fill="#FF0E4B"/>
<path d="M172.79 198.742H166.398V205.134H172.79V198.742Z" fill="#FF0E4B"/>
<path d="M191.966 198.742H185.574V205.134V211.526H191.966V205.134V198.742Z" fill="#FF0E4B"/>
<path d="M70.5189 205.135H64.127V211.527H70.5189V205.135Z" fill="#FF0E4B"/>
<path d="M83.3029 205.135H76.9109V211.527H83.3029V205.135Z" fill="#FF0E4B"/>
<path d="M96.0868 205.135H89.6948V211.527H96.0868V205.135Z" fill="#FF0E4B"/>
<path d="M108.87 205.135H102.479V211.527H108.87V205.135Z" fill="#FF0E4B"/>
<path d="M153.614 205.135H147.222V211.527H153.614V205.135Z" fill="#FF0E4B"/>
<path d="M179.182 205.135H172.791V211.527H179.182V205.135Z" fill="#FF0E4B"/>
<path d="M102.479 211.526H96.0869V217.918H102.479V211.526Z" fill="#FF0E4B"/>
<path d="M185.574 211.526H179.182V217.918H185.574V211.526Z" fill="#FF0E4B"/>
<path d="M198.358 211.526H191.966V217.918H198.358V211.526Z" fill="#FF0E4B"/>
<path d="M128.047 211.526H121.655V217.918V224.31H128.047H134.438V217.918V211.526H128.047Z" fill="#1FA673"/>
<path d="M108.87 198.742H102.479V205.134H108.87H115.262V211.526V217.918V224.31H121.654V217.918V211.526V205.134V198.742H115.262H108.87Z" fill="#5E3640"/>
<path d="M140.83 198.742V205.134V211.526H147.222V205.134V198.742H140.83Z" fill="#5E3640"/>
<path d="M134.439 217.918V224.31H140.831V217.918V211.526H134.439V217.918Z" fill="#5E3640"/>
<path d="M76.9108 192.352H70.5188V198.744H76.9108V192.352Z" fill="#32464E"/>
<path d="M96.0867 192.351V185.959V179.567H89.6947H83.3027V185.959V192.351H89.6947V198.743H96.0867H102.479H108.871V192.351H102.479H96.0867Z" fill="#32464E"/>
<path d="M70.5189 198.742H64.127V205.134H70.5189V198.742Z" fill="#32464E"/>
<path d="M64.1271 205.135H57.7351V211.527H64.1271V205.135Z" fill="#32464E"/>
<path d="M51.343 217.918V224.31H57.735V217.918V211.526H51.343V217.918Z" fill="#32464E"/>
<path d="M166.398 211.526H160.006H153.614H147.222V217.918H153.614H160.006V224.31H166.398V217.918H172.79V211.526H166.398Z" fill="#32464E"/>
<path d="M83.3029 198.742H76.9109V205.134H83.3029V198.742Z" fill="#8B2942"/>
<path d="M96.0868 198.742H89.6948V205.134H96.0868V198.742Z" fill="#8B2942"/>
<path d="M153.614 198.742H147.222V205.134H153.614V198.742Z" fill="#8B2942"/>
<path d="M102.479 205.135H96.0869V211.527H102.479V205.135Z" fill="#8B2942"/>
<path d="M108.871 211.527H102.479V217.919H96.0869V211.527H89.6949V205.135H83.303V211.527H76.911V205.135H70.519V211.527H64.1271H57.7351V217.919V224.311H64.1271H70.519H76.911H83.303H89.6949H96.0869H102.479H108.871H115.263V217.919V211.527V205.135H108.871V211.527Z" fill="#8B2942"/>
<path d="M166.398 205.134V198.742H160.006V205.134H153.615V211.526H160.006H166.398H172.79V205.134H166.398Z" fill="#8B2942"/>
<path d="M147.222 217.918V211.526H140.83V217.918V224.31H147.222H153.614H160.006V217.918H153.614H147.222Z" fill="#8B2942"/>
<path d="M179.182 217.918V211.526H172.79V217.918H166.398V224.31H172.79H179.182H185.574V217.918H179.182Z" fill="#8B2942"/>
<path d="M185.574 198.742H179.182H172.791V205.134H179.182V211.526H185.574V205.134V198.742Z" fill="#FD96AF"/>
<path d="M198.358 205.135H191.966V211.527H198.358V205.135Z" fill="#FD96AF"/>
<path d="M185.574 211.526V217.918V224.31H191.966H198.358V217.918H191.966V211.526H185.574Z" fill="#FD96AF"/>
<defs>
<radialGradient id="paint0_radial_1497_53" cx="0" cy="0" r="1" gradientUnits="userSpaceOnUse" gradientTransform="translate(176.553 121.471) scale(48.4307 48.4487)">
<stop stop-color="#94FF0B" stop-opacity="0"/>
<stop offset="0.7" stop-color="#94FF0B" stop-opacity="0.6"/>
<stop offset="1" stop-color="#94FF0B"/>
</radialGradient>
<radialGradient id="paint1_radial_1497_53" cx="0" cy="0" r="1" gradientUnits="userSpaceOnUse" gradientTransform="translate(152.346 163.076) scale(48.6921 48.6611)">
<stop stop-color="#94FF0B" stop-opacity="0"/>
<stop offset="0.7" stop-color="#94FF0B" stop-opacity="0.6"/>
<stop offset="1" stop-color="#94FF0B"/>
</radialGradient>
<radialGradient id="paint2_radial_1497_53" cx="0" cy="0" r="1" gradientUnits="userSpaceOnUse" gradientTransform="translate(152.247 79.5941) scale(48.4122 48.3766)">
<stop stop-color="#94FF0B" stop-opacity="0"/>
<stop offset="0.7" stop-color="#94FF0B" stop-opacity="0.6"/>
<stop offset="1" stop-color="#94FF0B"/>
</radialGradient>
<radialGradient id="paint3_radial_1497_53" cx="0" cy="0" r="1" gradientUnits="userSpaceOnUse" gradientTransform="translate(103.894 163.408) scale(48.5577 48.5715)">
<stop stop-color="#94FF0B" stop-opacity="0"/>
<stop offset="0.7" stop-color="#94FF0B" stop-opacity="0.6"/>
<stop offset="1" stop-color="#94FF0B"/>
</radialGradient>
<radialGradient id="paint4_radial_1497_53" cx="0" cy="0" r="1" gradientUnits="userSpaceOnUse" gradientTransform="translate(103.808 79.5198) scale(48.3163 48.3301)">
<stop stop-color="#94FF0B" stop-opacity="0"/>
<stop offset="0.7" stop-color="#94FF0B" stop-opacity="0.6"/>
<stop offset="1" stop-color="#94FF0B"/>
</radialGradient>
<radialGradient id="paint5_radial_1497_53" cx="0" cy="0" r="1" gradientUnits="userSpaceOnUse" gradientTransform="translate(79.6209 121.396) scale(48.3495 48.3089)">
<stop stop-color="#94FF0B" stop-opacity="0"/>
<stop offset="0.7" stop-color="#94FF0B" stop-opacity="0.6"/>
<stop offset="1" stop-color="#94FF0B"/>
</radialGradient>
</defs>
</svg>
