<svg width="256" height="256" viewBox="0 0 256 256" fill="none" xmlns="http://www.w3.org/2000/svg">
<g clip-path="url(#clip0_741_46)">
<path d="M256 128C256 198.692 198.692 256 128 256C57.3075 256 0 198.692 0 128C0 57.3075 57.3075 0 128 0C198.692 0 256 57.3075 256 128Z" fill="#D38EFF"/>
<path d="M7 128C7 194.826 61.1735 249 128 249C194.826 249 249 194.826 249 128C249 61.1735 194.826 7 128 7C61.1735 7 7 61.1735 7 128Z" fill="url(#paint0_radial_741_46)"/>
<path fill-rule="evenodd" clip-rule="evenodd" d="M27.5699 128C27.5699 72.5339 72.534 27.5698 128 27.5698C183.466 27.5698 228.43 72.5339 228.43 128C228.43 183.466 183.466 228.43 128 228.43C72.534 228.43 27.5699 183.466 27.5699 128ZM50.552 91.8562C50.2702 90.553 48.4904 90.3024 47.9368 91.5153C42.8639 102.63 40.0371 114.985 40.0371 128C40.0371 141.015 42.8637 153.37 47.9368 164.484C48.4904 165.697 50.2751 165.444 50.5736 164.145C51.4786 160.205 52.7527 156.15 54.3468 152.036C62.8053 130.209 77.766 110.656 94.2109 94.2108C101.041 87.381 108.092 81.2125 115.172 75.7855C115.955 75.1847 115.888 73.9794 115.031 73.4891C109.656 70.4148 104.426 67.8967 99.4582 65.9715C91.2597 62.7944 84.0559 61.3418 78.2402 61.4659C72.4675 61.5892 68.4597 63.2354 65.8477 65.8474C62.9382 68.7569 61.2121 73.4328 61.4871 80.3252C61.7453 86.8002 63.7763 94.7011 67.6546 103.525C68.1254 104.596 67.8985 105.85 67.0635 106.669L61.4627 112.661C60.2039 113.897 58.1353 113.65 57.3526 112.07C54.4755 106.259 51.8857 98.023 50.552 91.8562ZM91.5155 47.9365C90.3026 48.4902 90.5552 50.275 91.8547 50.5735C95.7942 51.4783 99.8495 52.7526 103.963 54.3466C122.307 61.4554 142.943 75.3652 161.789 94.2108C167.398 99.8187 173.461 109.948 175.279 121.865C175.478 123.162 177.213 123.612 177.931 122.513C183.148 114.511 187.22 106.706 190.028 99.458C193.206 91.2596 194.658 84.0558 194.534 78.2399C194.411 72.4674 192.764 68.4596 190.153 65.8474C187.177 62.8727 182.035 61.0624 174.887 61.4386C168.203 61.7904 161.873 63.3878 153.049 67.4204C151.877 67.9564 150.502 67.8233 149.471 67.0492L142.879 61.9346C141.715 61.0603 141.79 59.2894 143.038 58.5392C150.414 54.1043 156.632 51.3577 162.561 50.2814C163.99 50.0219 164.414 47.8912 163.081 47.3113C152.334 42.6319 140.47 40.0369 128 40.0369C114.985 40.0369 102.63 42.8636 91.5155 47.9365ZM152.947 153C166.283 139.283 166.759 116.812 152.973 103.026C147.855 97.9083 142.631 93.2082 137.396 88.9571C131.907 84.4994 124.093 84.4995 118.604 88.9571C113.361 93.2149 108.137 97.9163 103.027 103.026C89.9855 116.067 89.6813 136.828 101.173 150.912C113.851 166.451 138.849 167.048 152.947 153ZM134.049 175.204C132.74 175.386 132.272 177.136 133.378 177.859C141.419 183.112 149.261 187.206 156.541 190.028C164.74 193.206 171.945 194.658 177.76 194.534C183.533 194.411 187.54 192.764 190.153 190.153C193.062 187.243 194.788 182.567 194.512 175.675C194.257 169.246 192.272 161.552 188.45 152.825C187.92 151.615 188.093 150.207 188.926 149.182L194.823 141.922C195.697 140.848 197.356 140.914 198.063 142.104C202.143 148.963 204.484 157.23 205.596 163.567C205.834 164.929 207.722 165.248 208.288 163.988C213.219 153.002 215.963 140.821 215.963 128C215.963 114.985 213.136 102.63 208.063 91.5155C207.509 90.3026 205.724 90.5552 205.427 91.8547C204.522 95.7942 203.247 99.8494 201.654 103.963C194.544 122.307 180.635 142.943 161.789 161.789C154.499 169.079 144.32 173.783 134.049 175.204ZM164.484 208.063C165.697 207.509 165.445 205.724 164.145 205.427C160.205 204.521 156.151 203.247 152.037 201.653C133.693 194.544 113.057 180.635 94.2109 161.789C88.3328 155.911 82.4502 145.913 80.6998 134.174C80.5059 132.874 78.7661 132.419 78.048 133.521C72.84 141.511 68.7765 149.303 65.9716 156.541C62.7946 164.74 61.3419 171.943 61.4662 177.76C61.5895 183.533 63.2355 187.54 65.8477 190.153C68.7242 193.029 73.3242 194.747 80.0894 194.522C86.4056 194.31 94.1064 192.395 102.72 188.695C103.909 188.184 105.286 188.347 106.302 189.148L112.549 194.071C113.671 194.955 113.585 196.678 112.346 197.388C105.522 201.302 97.878 203.962 91.8478 205.402C90.5511 205.712 90.3026 207.509 91.5157 208.063C102.63 213.135 114.985 215.963 128 215.963C141.015 215.963 153.37 213.135 164.484 208.063Z" fill="white"/>
<path d="M124.226 104.326C124.283 104.276 124.336 104.227 124.391 104.176C126.6 102.158 129.998 102.195 132.162 104.262C132.208 104.307 132.252 104.348 132.299 104.392C133.04 105.08 139.729 111.315 143.636 115.59C147.633 120.484 148.502 127.714 145.806 133.653C138.389 149.998 117.924 150.154 110.292 133.937C107.437 127.87 108.344 120.391 112.539 115.438C115.705 111.884 123.351 105.101 124.226 104.326Z" fill="white"/>
</g>
<defs>
<radialGradient id="paint0_radial_741_46" cx="0" cy="0" r="1" gradientUnits="userSpaceOnUse" gradientTransform="translate(249 1.55501) rotate(134.363) scale(346.111 231.56)">
<stop stop-color="#5278FF"/>
<stop offset="0.361196" stop-color="#BE7CFF"/>
<stop offset="0.756992" stop-color="#E69EFE"/>
<stop offset="1" stop-color="#F7D4F5"/>
</radialGradient>
<clipPath id="clip0_741_46">
<rect width="256" height="256" fill="white"/>
</clipPath>
</defs>
</svg>
