<svg width="256" height="256" viewBox="0 0 256 256" fill="none" xmlns="http://www.w3.org/2000/svg">
<circle cx="128.5" cy="128.5" r="126.5" fill="#5552FD"/>
<g clip-path="url(#clip0_741_46)">
<path d="M54 109.5H72.5V91H54V109.5Z" fill="#FED955"/>
<path d="M54 146.5H72.5V128H54V146.5Z" fill="#FED955"/>
<path d="M54 128H72.5V109.5H54V128Z" fill="#FED955"/>
<path d="M54 165H72.5V146.5H54V165Z" fill="#FED955"/>
<path d="M128 72.5H146.5V54H128V72.5Z" fill="#FED955"/>
<path d="M128 183.5L146.5 183.5L146.5 202L128 202L128 183.5Z" fill="#FED955"/>
<path d="M146.5 72.5H165V54H146.5V72.5Z" fill="#FED955"/>
<path d="M165 72.5H183.5V54H165V72.5Z" fill="#9695F8"/>
<path d="M91 72.5L72.5 72.5L72.5 54L91 54L91 72.5Z" fill="#9695F8"/>
<path d="M202 183.5L183.5 183.5L183.5 165L202 165L202 183.5Z" fill="#9695F8"/>
<path d="M54 183.5H72.5V165H54V183.5Z" fill="#9695F8"/>
<path d="M146.5 54H165V35.5H146.5V54Z" fill="#9695F8"/>
<path d="M146.5 35.5H165V17L146.5 17V35.5Z" fill="#5552FD"/>
<path d="M146.5 239H165V220.5H146.5V239Z" fill="#5552FD"/>
<path d="M146.5 220.5H165V202H146.5V220.5Z" fill="#9695F8"/>
<path d="M109.5 54H128V35.5H109.5V54Z" fill="#9695F8"/>
<path d="M109.5 35.5H128V17L109.5 17V35.5Z" fill="#5552FD"/>
<path d="M109.5 239H128V220.5H109.5V239Z" fill="#5552FD"/>
<path d="M109.5 220.5H128V202H109.5V220.5Z" fill="#9695F8"/>
<path d="M128 54H146.5V35.5H128V54Z" fill="#9695F8"/>
<path d="M128 35.5H146.5V17L128 17V35.5Z" fill="#5552FD"/>
<path d="M128 239H146.5V220.5H128V239Z" fill="#5552FD"/>
<path d="M128 220.5H146.5V202H128V220.5Z" fill="#9695F8"/>
<path d="M91 54H109.5V35.5H91V54Z" fill="#9695F8"/>
<path d="M91 35.5H109.5V17L91 17V35.5Z" fill="#5552FD"/>
<path d="M91 239H109.5V220.5H91V239Z" fill="#5552FD"/>
<path d="M91 220.5H109.5V202H91V220.5Z" fill="#9695F8"/>
<path d="M183.5 91H202V72.5H183.5V91Z" fill="#9695F8"/>
<path d="M72.5 91L54 91L54 72.5L72.5 72.5L72.5 91Z" fill="#9695F8"/>
<path d="M183.5 202L165 202L165 183.5L183.5 183.5L183.5 202Z" fill="#9695F8"/>
<path d="M72.5 202H91V183.5H72.5V202Z" fill="#9695F8"/>
<path d="M202 109.5H220.5V91H202V109.5Z" fill="#9695F8"/>
<path d="M35.5 109.5H54V91H35.5V109.5Z" fill="#9695F8"/>
<path d="M17 109.5H35.5V91H17L17 109.5Z" fill="#5552FD"/>
<path d="M35.5 91H54V72.5H35.5V91Z" fill="#5552FD"/>
<path d="M220.5 91L202 91L202 72.5L220.5 72.5L220.5 91Z" fill="#5552FD"/>
<path d="M165 220.5H183.5V202H165V220.5Z" fill="#5552FD"/>
<path d="M35.5 165V183.5H54V165H35.5Z" fill="#5552FD"/>
<path d="M54 72.5H72.5V54H54V72.5Z" fill="#5552FD"/>
<path d="M202 72.5L183.5 72.5L183.5 54L202 54L202 72.5Z" fill="#5552FD"/>
<path d="M183.5 202H202V183.5H183.5V202Z" fill="#5552FD"/>
<path d="M54 183.5V202H72.5V183.5H54Z" fill="#5552FD"/>
<path d="M72.5 54H91V35.5H72.5V54Z" fill="#5552FD"/>
<path d="M183.5 54L165 54L165 35.5L183.5 35.5L183.5 54Z" fill="#5552FD"/>
<path d="M202 183.5H220.5V165H202V183.5Z" fill="#5552FD"/>
<path d="M72.5 202V220.5H91V202H72.5Z" fill="#5552FD"/>
<path d="M220.5 109.5H239V91H220.5V109.5Z" fill="#5552FD"/>
<path d="M202 128H220.5V109.5H202V128Z" fill="#9695F8"/>
<path d="M35.5 128H54V109.5H35.5V128Z" fill="#9695F8"/>
<path d="M17 128H35.5V109.5H17L17 128Z" fill="#5552FD"/>
<path d="M220.5 128H239V109.5H220.5V128Z" fill="#5552FD"/>
<path d="M202 146.5H220.5V128H202V146.5Z" fill="#9695F8"/>
<path d="M35.5 146.5H54V128H35.5V146.5Z" fill="#9695F8"/>
<path d="M17 146.5H35.5V128H17L17 146.5Z" fill="#5552FD"/>
<path d="M220.5 146.5H239V128H220.5V146.5Z" fill="#5552FD"/>
<path d="M202 165H220.5V146.5H202V165Z" fill="#9695F8"/>
<path d="M35.5 165H54V146.5H35.5V165Z" fill="#9695F8"/>
<path d="M17 165H35.5V146.5H17L17 165Z" fill="#5552FD"/>
<path d="M220.5 165H239V146.5H220.5V165Z" fill="#5552FD"/>
<path d="M146.5 183.5L165 183.5L165 202L146.5 202L146.5 183.5Z" fill="#FED955"/>
<path d="M128 109.5H146.5V91H128V109.5Z" fill="#FED955"/>
<path d="M128 146.5H146.5V128H128V146.5Z" fill="#FED955"/>
<path d="M128 165H146.5V146.5H128V165Z" fill="#FED955"/>
<path d="M128 91H146.5V72.5H128V91Z" fill="#FED955"/>
<path d="M128 165L146.5 165L146.5 183.5L128 183.5L128 165Z" fill="#FED955"/>
<path d="M91 146.5H109.5V128H91V146.5Z" fill="#FED955"/>
<path d="M91 128H109.5V109.5H91V128Z" fill="#FED955"/>
<path d="M91 165H109.5V146.5H91V165Z" fill="#FED955"/>
<path d="M91 91H109.5V72.5H91V91Z" fill="#FED955"/>
<path d="M91 165L109.5 165L109.5 183.5L91 183.5L91 165Z" fill="#FED955"/>
<path d="M146.5 146.5H165V128H146.5V146.5Z" fill="#FED955"/>
<path d="M146.5 128H165V109.5H146.5V128Z" fill="#FED955"/>
<path d="M146.5 165H165V146.5H146.5V165Z" fill="#FED955"/>
<path d="M146.5 91H165V72.5H146.5V91Z" fill="#FED955"/>
<path d="M146.5 165L165 165L165 183.5L146.5 183.5L146.5 165Z" fill="#FED955"/>
<path d="M109.5 72.5H128V54H109.5V72.5Z" fill="#FED955"/>
<path d="M109.5 183.5L128 183.5L128 202L109.5 202L109.5 183.5Z" fill="#FED955"/>
<path d="M91 72.5H109.5V54H91V72.5Z" fill="#FED955"/>
<path d="M91 183.5L109.5 183.5L109.5 202L91 202L91 183.5Z" fill="#FED955"/>
<path d="M109.5 109.5H128V91H109.5V109.5Z" fill="#FED955"/>
<path d="M109.5 146.5H128V128H109.5V146.5Z" fill="#FED955"/>
<path d="M91 109.5H109.5V91H91V109.5Z" fill="#5552FD"/>
<path d="M128 128H146.5V109.5H128V128Z" fill="#5552FD"/>
<path d="M165 109.5H183.5V91H165V109.5Z" fill="#5552FD"/>
<path d="M165 146.5H183.5V128H165V146.5Z" fill="#5552FD"/>
<path d="M165 128H183.5V109.5H165V128Z" fill="#5552FD"/>
<path d="M165 165H183.5V146.5H165V165Z" fill="#5552FD"/>
<path d="M165 91H183.5V72.5H165V91Z" fill="#5552FD"/>
<path d="M165 165L183.5 165L183.5 183.5L165 183.5L165 165Z" fill="#5552FD"/>
<path d="M72.5 109.5H91V91H72.5V109.5Z" fill="#5552FD"/>
<path d="M72.5 146.5H91V128H72.5V146.5Z" fill="#5552FD"/>
<path d="M72.5 128H91V109.5H72.5V128Z" fill="#5552FD"/>
<path d="M72.5 165H91V146.5H72.5V165Z" fill="#5552FD"/>
<path d="M72.5 91H91V72.5H72.5V91Z" fill="#5552FD"/>
<path d="M72.5 165L91 165L91 183.5L72.5 183.5L72.5 165Z" fill="#5552FD"/>
<path d="M146.5 109.5H165V91H146.5V109.5Z" fill="#5552FD"/>
<path d="M109.5 128H128V109.5H109.5V128Z" fill="#5552FD"/>
<path d="M109.5 165H128V146.5H109.5V165Z" fill="#FED955"/>
<path d="M109.5 91H128V72.5H109.5V91Z" fill="#FED955"/>
<path d="M109.5 165L128 165L128 183.5L109.5 183.5L109.5 165Z" fill="#FED955"/>
<path d="M183.5 109.5H202V91H183.5V109.5Z" fill="#FED955"/>
<path d="M183.5 146.5H202V128H183.5V146.5Z" fill="#FED955"/>
<path d="M183.5 128H202V109.5H183.5V128Z" fill="#FED955"/>
<path d="M183.5 165H202V146.5H183.5V165Z" fill="#FED955"/>
</g>
<defs>
<clipPath id="clip0_741_46">
<rect width="222" height="222" fill="white" transform="translate(17 17)"/>
</clipPath>
</defs>
</svg>
