<svg width="123" height="123" viewBox="0 0 123 123" fill="none" xmlns="http://www.w3.org/2000/svg">
<circle cx="61.5" cy="61.5" r="61.5" fill="#5552FD"/>
<g clip-path="url(#clip0_748_149)">
<path d="M23.8333 52.0835H33.25V42.6668H23.8333V52.0835Z" fill="#FED955"/>
<path d="M23.8333 70.9165H33.25V61.4998H23.8333V70.9165Z" fill="#FED955"/>
<path d="M23.8333 61.5H33.25V52.0833H23.8333V61.5Z" fill="#FED955"/>
<path d="M23.8333 80.3335H33.25V70.9168H23.8333V80.3335Z" fill="#FED955"/>
<path d="M61.5 33.25H70.9167V23.8333H61.5V33.25Z" fill="#FED955"/>
<path d="M61.5 89.75L70.9167 89.75L70.9167 99.1667L61.5 99.1667L61.5 89.75Z" fill="#FED955"/>
<path d="M70.9166 33.25H80.3333V23.8333H70.9166V33.25Z" fill="#FED955"/>
<path d="M80.3333 33.25H89.75V23.8333H80.3333V33.25Z" fill="#9695F8"/>
<path d="M42.6667 33.25L33.25 33.25L33.25 23.8333L42.6667 23.8333L42.6667 33.25Z" fill="#9695F8"/>
<path d="M99.1667 89.75L89.75 89.75L89.75 80.3333L99.1667 80.3333L99.1667 89.75Z" fill="#9695F8"/>
<path d="M23.8333 89.75H33.25V80.3333H23.8333V89.75Z" fill="#9695F8"/>
<path d="M70.9166 23.8335H80.3333V14.4168L70.9166 14.4168V23.8335Z" fill="#9695F8"/>
<path d="M70.9166 14.4165L80.3333 14.4165V4.99984L70.9166 4.99984V14.4165Z" fill="#5552FD"/>
<path d="M70.9166 118H80.3333V108.583H70.9166V118Z" fill="#5552FD"/>
<path d="M70.9166 108.583H80.3333V99.1668H70.9166V108.583Z" fill="#9695F8"/>
<path d="M52.0833 23.8335H61.5V14.4168L52.0833 14.4168V23.8335Z" fill="#9695F8"/>
<path d="M52.0833 14.4165L61.5 14.4165V4.99984L52.0833 4.99984V14.4165Z" fill="#5552FD"/>
<path d="M52.0833 118H61.5V108.583H52.0833V118Z" fill="#5552FD"/>
<path d="M52.0833 108.583H61.5V99.1668H52.0833V108.583Z" fill="#9695F8"/>
<path d="M61.5 23.8335H70.9167V14.4168L61.5 14.4168V23.8335Z" fill="#9695F8"/>
<path d="M61.5 14.4165L70.9167 14.4165V4.99984L61.5 4.99984V14.4165Z" fill="#5552FD"/>
<path d="M61.5 118H70.9167V108.583H61.5V118Z" fill="#5552FD"/>
<path d="M61.5 108.583H70.9167V99.1668H61.5V108.583Z" fill="#9695F8"/>
<path d="M42.6666 23.8335H52.0833V14.4168L42.6666 14.4168V23.8335Z" fill="#9695F8"/>
<path d="M42.6666 14.4165L52.0833 14.4165V4.99984L42.6666 4.99984V14.4165Z" fill="#5552FD"/>
<path d="M42.6666 118H52.0833V108.583H42.6666V118Z" fill="#5552FD"/>
<path d="M42.6666 108.583H52.0833V99.1668H42.6666V108.583Z" fill="#9695F8"/>
<path d="M89.75 42.6665H99.1667V33.2498H89.75V42.6665Z" fill="#9695F8"/>
<path d="M33.25 42.6665L23.8333 42.6665L23.8333 33.2498L33.25 33.2498L33.25 42.6665Z" fill="#9695F8"/>
<path d="M89.75 99.1665L80.3333 99.1665L80.3333 89.7498L89.75 89.7498L89.75 99.1665Z" fill="#9695F8"/>
<path d="M33.25 99.1665H42.6667V89.7498H33.25V99.1665Z" fill="#9695F8"/>
<path d="M99.1666 52.0835H108.583V42.6668H99.1666V52.0835Z" fill="#9695F8"/>
<path d="M14.4166 52.0835H23.8333V42.6668H14.4166L14.4166 52.0835Z" fill="#9695F8"/>
<path d="M5.00002 52.0835H14.4167L14.4167 42.6668H5.00002L5.00002 52.0835Z" fill="#5552FD"/>
<path d="M14.4166 42.6665H23.8333V33.2498H14.4166L14.4166 42.6665Z" fill="#5552FD"/>
<path d="M108.583 42.6665L99.1667 42.6665L99.1667 33.2498L108.583 33.2498L108.583 42.6665Z" fill="#5552FD"/>
<path d="M80.3333 108.583H89.75V99.1668H80.3333V108.583Z" fill="#5552FD"/>
<path d="M14.4167 80.3333V89.75H23.8334V80.3333H14.4167Z" fill="#5552FD"/>
<path d="M23.8333 33.25H33.25V23.8333H23.8333V33.25Z" fill="#5552FD"/>
<path d="M99.1667 33.25L89.75 33.25L89.75 23.8333L99.1667 23.8333L99.1667 33.25Z" fill="#5552FD"/>
<path d="M89.75 99.1665H99.1667V89.7498H89.75V99.1665Z" fill="#5552FD"/>
<path d="M23.8333 89.7498V99.1665H33.25V89.7498H23.8333Z" fill="#5552FD"/>
<path d="M33.25 23.8335H42.6667V14.4168L33.25 14.4168V23.8335Z" fill="#5552FD"/>
<path d="M89.75 23.8335L80.3333 23.8335L80.3333 14.4168L89.75 14.4168L89.75 23.8335Z" fill="#5552FD"/>
<path d="M99.1666 89.75H108.583V80.3333H99.1666V89.75Z" fill="#5552FD"/>
<path d="M33.25 99.1668V108.583H42.6667V99.1668H33.25Z" fill="#5552FD"/>
<path d="M108.583 52.0835H118V42.6668H108.583V52.0835Z" fill="#5552FD"/>
<path d="M99.1666 61.5H108.583V52.0833H99.1666V61.5Z" fill="#9695F8"/>
<path d="M14.4166 61.5H23.8333V52.0833H14.4166L14.4166 61.5Z" fill="#9695F8"/>
<path d="M5.00002 61.5H14.4167L14.4167 52.0833H5.00002L5.00002 61.5Z" fill="#5552FD"/>
<path d="M108.583 61.5H118V52.0833H108.583V61.5Z" fill="#5552FD"/>
<path d="M99.1666 70.9165H108.583V61.4998H99.1666V70.9165Z" fill="#9695F8"/>
<path d="M14.4166 70.9165H23.8333V61.4998H14.4166L14.4166 70.9165Z" fill="#9695F8"/>
<path d="M5.00002 70.9165H14.4167L14.4167 61.4998H5.00002L5.00002 70.9165Z" fill="#5552FD"/>
<path d="M108.583 70.9165H118V61.4998H108.583V70.9165Z" fill="#5552FD"/>
<path d="M99.1666 80.3335H108.583V70.9168H99.1666V80.3335Z" fill="#9695F8"/>
<path d="M14.4166 80.3335H23.8333V70.9168H14.4166L14.4166 80.3335Z" fill="#9695F8"/>
<path d="M5.00002 80.3335H14.4167L14.4167 70.9168H5.00002L5.00002 80.3335Z" fill="#5552FD"/>
<path d="M108.583 80.3335H118V70.9168H108.583V80.3335Z" fill="#5552FD"/>
<path d="M70.9166 89.75L80.3333 89.75L80.3333 99.1667L70.9166 99.1667L70.9166 89.75Z" fill="#FED955"/>
<path d="M61.5 52.0835H70.9167V42.6668H61.5V52.0835Z" fill="#FED955"/>
<path d="M61.5 70.9165H70.9167V61.4998H61.5V70.9165Z" fill="#FED955"/>
<path d="M61.5 80.3335H70.9167V70.9168H61.5V80.3335Z" fill="#FED955"/>
<path d="M61.5 42.6665H70.9167V33.2498H61.5V42.6665Z" fill="#FED955"/>
<path d="M61.5 80.3335L70.9167 80.3335L70.9167 89.7502L61.5 89.7502L61.5 80.3335Z" fill="#FED955"/>
<path d="M42.6666 70.9165H52.0833V61.4998H42.6666V70.9165Z" fill="#FED955"/>
<path d="M42.6666 61.5H52.0833V52.0833H42.6666V61.5Z" fill="#FED955"/>
<path d="M42.6666 80.3335H52.0833V70.9168H42.6666V80.3335Z" fill="#FED955"/>
<path d="M42.6666 42.6665H52.0833V33.2498H42.6666V42.6665Z" fill="#FED955"/>
<path d="M42.6666 80.3335L52.0833 80.3335L52.0833 89.7502L42.6666 89.7502L42.6666 80.3335Z" fill="#FED955"/>
<path d="M70.9166 70.9165H80.3333V61.4998H70.9166V70.9165Z" fill="#FED955"/>
<path d="M70.9166 61.5H80.3333V52.0833H70.9166V61.5Z" fill="#FED955"/>
<path d="M70.9166 80.3335H80.3333V70.9168H70.9166V80.3335Z" fill="#FED955"/>
<path d="M70.9166 42.6665H80.3333V33.2498H70.9166V42.6665Z" fill="#FED955"/>
<path d="M70.9166 80.3335L80.3333 80.3335L80.3333 89.7502L70.9166 89.7502L70.9166 80.3335Z" fill="#FED955"/>
<path d="M52.0833 33.25H61.5V23.8333H52.0833V33.25Z" fill="#FED955"/>
<path d="M52.0833 89.75L61.5 89.75L61.5 99.1667L52.0833 99.1667L52.0833 89.75Z" fill="#FED955"/>
<path d="M42.6666 33.25H52.0833V23.8333H42.6666V33.25Z" fill="#FED955"/>
<path d="M42.6666 89.75L52.0833 89.75L52.0833 99.1667L42.6666 99.1667L42.6666 89.75Z" fill="#FED955"/>
<path d="M52.0833 52.0835H61.5V42.6668H52.0833V52.0835Z" fill="#FED955"/>
<path d="M52.0833 70.9165H61.5V61.4998H52.0833V70.9165Z" fill="#FED955"/>
<path d="M42.6666 52.0835H52.0833V42.6668H42.6666V52.0835Z" fill="#5552FD"/>
<path d="M61.5 61.5H70.9167V52.0833H61.5V61.5Z" fill="#5552FD"/>
<path d="M80.3333 52.0835H89.75V42.6668H80.3333V52.0835Z" fill="#5552FD"/>
<path d="M80.3333 70.9165H89.75V61.4998H80.3333V70.9165Z" fill="#5552FD"/>
<path d="M80.3333 61.5H89.75V52.0833H80.3333V61.5Z" fill="#5552FD"/>
<path d="M80.3333 80.3335H89.75V70.9168H80.3333V80.3335Z" fill="#5552FD"/>
<path d="M80.3333 42.6665H89.75V33.2498H80.3333V42.6665Z" fill="#5552FD"/>
<path d="M80.3333 80.3335L89.75 80.3335L89.75 89.7502L80.3333 89.7502L80.3333 80.3335Z" fill="#5552FD"/>
<path d="M33.25 52.0835H42.6667V42.6668H33.25V52.0835Z" fill="#5552FD"/>
<path d="M33.25 70.9165H42.6667V61.4998H33.25V70.9165Z" fill="#5552FD"/>
<path d="M33.25 61.5H42.6667V52.0833H33.25V61.5Z" fill="#5552FD"/>
<path d="M33.25 80.3335H42.6667V70.9168H33.25V80.3335Z" fill="#5552FD"/>
<path d="M33.25 42.6665H42.6667V33.2498H33.25V42.6665Z" fill="#5552FD"/>
<path d="M33.25 80.3335L42.6667 80.3335L42.6667 89.7502L33.25 89.7502L33.25 80.3335Z" fill="#5552FD"/>
<path d="M70.9166 52.0835H80.3333V42.6668H70.9166V52.0835Z" fill="#5552FD"/>
<path d="M52.0833 61.5H61.5V52.0833H52.0833V61.5Z" fill="#5552FD"/>
<path d="M52.0833 80.3335H61.5V70.9168H52.0833V80.3335Z" fill="#FED955"/>
<path d="M52.0833 42.6665H61.5V33.2498H52.0833V42.6665Z" fill="#FED955"/>
<path d="M52.0833 80.3335L61.5 80.3335L61.5 89.7502L52.0833 89.7502L52.0833 80.3335Z" fill="#FED955"/>
<path d="M89.75 52.0835H99.1667V42.6668H89.75V52.0835Z" fill="#FED955"/>
<path d="M89.75 70.9165H99.1667V61.4998H89.75V70.9165Z" fill="#FED955"/>
<path d="M89.75 61.5H99.1667V52.0833H89.75V61.5Z" fill="#FED955"/>
<path d="M89.75 80.3335H99.1667V70.9168H89.75V80.3335Z" fill="#FED955"/>
</g>
<defs>
<clipPath id="clip0_748_149">
<rect width="113" height="113" fill="white" transform="translate(5 5)"/>
</clipPath>
</defs>
</svg>
