<?xml version="1.0" encoding="utf-8"?>
<!-- Generator: Adobe Illustrator 26.0.3, SVG Export Plug-In . SVG Version: 6.00 Build 0)  -->
<svg version="1.0" id="katman_1" xmlns="http://www.w3.org/2000/svg" xmlns:xlink="http://www.w3.org/1999/xlink" x="0px" y="0px"
	 viewBox="0 0 600 450" style="enable-background:new 0 0 600 450;" xml:space="preserve">
<style type="text/css">
	.st0{fill:#FED955;}
	.st1{fill:#9090C7;}
	.st2{fill:#4956A2;}
</style>
<rect x="203.2" y="176.9" class="st0" width="24.2" height="24.2"/>
<rect x="203.2" y="225.4" class="st0" width="24.2" height="24.2"/>
<rect x="203.2" y="201.1" class="st0" width="24.2" height="24.2"/>
<rect x="203.2" y="249.6" class="st0" width="24.2" height="24.2"/>
<rect x="300.1" y="128.5" class="st0" width="24.2" height="24.2"/>
<rect x="300.1" y="298.1" class="st0" width="24.2" height="24.2"/>
<rect x="324.4" y="128.5" class="st0" width="24.2" height="24.2"/>
<rect x="348.6" y="128.5" class="st1" width="24.2" height="24.2"/>
<rect x="227.4" y="128.5" class="st1" width="24.2" height="24.2"/>
<rect x="372.8" y="273.8" class="st1" width="24.2" height="24.2"/>
<rect x="203.2" y="273.8" class="st1" width="24.2" height="24.2"/>
<rect x="324.4" y="104.2" class="st1" width="24.2" height="24.2"/>
<rect x="324.4" y="80" class="st2" width="24.2" height="24.2"/>
<rect x="324.4" y="346.5" class="st2" width="24.2" height="24.2"/>
<rect x="324.4" y="322.3" class="st1" width="24.2" height="24.2"/>
<rect x="275.9" y="104.2" class="st1" width="24.2" height="24.2"/>
<rect x="275.9" y="80" class="st2" width="24.2" height="24.2"/>
<rect x="275.9" y="346.5" class="st2" width="24.2" height="24.2"/>
<rect x="275.9" y="322.3" class="st1" width="24.2" height="24.2"/>
<rect x="300.1" y="104.2" class="st1" width="24.2" height="24.2"/>
<rect x="300.1" y="80" class="st2" width="24.2" height="24.2"/>
<rect x="300.1" y="346.5" class="st2" width="24.2" height="24.2"/>
<rect x="300.1" y="322.3" class="st1" width="24.2" height="24.2"/>
<rect x="251.7" y="104.2" class="st1" width="24.2" height="24.2"/>
<rect x="251.7" y="80" class="st2" width="24.2" height="24.2"/>
<rect x="251.7" y="346.5" class="st2" width="24.2" height="24.2"/>
<rect x="251.7" y="322.3" class="st1" width="24.2" height="24.2"/>
<rect x="372.8" y="152.7" class="st1" width="24.2" height="24.2"/>
<rect x="203.2" y="152.7" class="st1" width="24.2" height="24.2"/>
<rect x="348.6" y="298.1" class="st1" width="24.2" height="24.2"/>
<rect x="227.4" y="298.1" class="st1" width="24.2" height="24.2"/>
<rect x="397" y="176.9" class="st1" width="24.2" height="24.2"/>
<rect x="179" y="176.9" class="st1" width="24.2" height="24.2"/>
<rect x="154.8" y="176.9" class="st2" width="24.2" height="24.2"/>
<rect x="179" y="152.7" class="st2" width="24.2" height="24.2"/>
<rect x="397" y="152.7" class="st2" width="24.2" height="24.2"/>
<rect x="348.6" y="322.3" class="st2" width="24.2" height="24.2"/>
<rect x="179" y="273.8" class="st2" width="24.2" height="24.2"/>
<rect x="203.2" y="128.5" class="st2" width="24.2" height="24.2"/>
<rect x="372.8" y="128.5" class="st2" width="24.2" height="24.2"/>
<rect x="372.8" y="298.1" class="st2" width="24.2" height="24.2"/>
<rect x="203.2" y="298.1" class="st2" width="24.2" height="24.2"/>
<rect x="227.4" y="104.2" class="st2" width="24.2" height="24.2"/>
<rect x="348.6" y="104.2" class="st2" width="24.2" height="24.2"/>
<rect x="397" y="273.8" class="st2" width="24.2" height="24.2"/>
<rect x="227.4" y="322.3" class="st2" width="24.2" height="24.2"/>
<rect x="421.3" y="176.9" class="st2" width="24.2" height="24.2"/>
<rect x="397" y="201.1" class="st1" width="24.2" height="24.2"/>
<rect x="179" y="201.1" class="st1" width="24.2" height="24.2"/>
<rect x="154.8" y="201.1" class="st2" width="24.2" height="24.2"/>
<rect x="421.3" y="201.1" class="st2" width="24.2" height="24.2"/>
<rect x="397" y="225.4" class="st1" width="24.2" height="24.2"/>
<rect x="179" y="225.4" class="st1" width="24.2" height="24.2"/>
<rect x="154.8" y="225.4" class="st2" width="24.2" height="24.2"/>
<rect x="421.3" y="225.4" class="st2" width="24.2" height="24.2"/>
<rect x="397" y="249.6" class="st1" width="24.2" height="24.2"/>
<rect x="179" y="249.6" class="st1" width="24.2" height="24.2"/>
<rect x="154.8" y="249.6" class="st2" width="24.2" height="24.2"/>
<rect x="421.3" y="249.6" class="st2" width="24.2" height="24.2"/>
<rect x="324.4" y="298.1" class="st0" width="24.2" height="24.2"/>
<rect x="300.1" y="176.9" class="st0" width="24.2" height="24.2"/>
<rect x="300.1" y="225.4" class="st0" width="24.2" height="24.2"/>
<rect x="300.1" y="249.6" class="st0" width="24.2" height="24.2"/>
<rect x="300.1" y="152.7" class="st0" width="24.2" height="24.2"/>
<rect x="300.1" y="273.8" class="st0" width="24.2" height="24.2"/>
<rect x="251.7" y="225.4" class="st0" width="24.2" height="24.2"/>
<rect x="251.7" y="201.1" class="st0" width="24.2" height="24.2"/>
<rect x="251.7" y="249.6" class="st0" width="24.2" height="24.2"/>
<rect x="251.7" y="152.7" class="st0" width="24.2" height="24.2"/>
<rect x="251.7" y="273.8" class="st0" width="24.2" height="24.2"/>
<rect x="324.4" y="225.4" class="st0" width="24.2" height="24.2"/>
<rect x="324.4" y="201.1" class="st0" width="24.2" height="24.2"/>
<rect x="324.4" y="249.6" class="st0" width="24.2" height="24.2"/>
<rect x="324.4" y="152.7" class="st0" width="24.2" height="24.2"/>
<rect x="324.4" y="273.8" class="st0" width="24.2" height="24.2"/>
<rect x="275.9" y="128.5" class="st0" width="24.2" height="24.2"/>
<rect x="275.9" y="298.1" class="st0" width="24.2" height="24.2"/>
<rect x="251.7" y="128.5" class="st0" width="24.2" height="24.2"/>
<rect x="251.7" y="298.1" class="st0" width="24.2" height="24.2"/>
<rect x="275.9" y="176.9" class="st0" width="24.2" height="24.2"/>
<rect x="275.9" y="225.4" class="st0" width="24.2" height="24.2"/>
<rect x="251.7" y="176.9" class="st2" width="24.2" height="24.2"/>
<rect x="300.1" y="201.1" class="st2" width="24.2" height="24.2"/>
<rect x="348.6" y="176.9" class="st2" width="24.2" height="24.2"/>
<rect x="348.6" y="225.4" class="st2" width="24.2" height="24.2"/>
<rect x="348.6" y="201.1" class="st2" width="24.2" height="24.2"/>
<rect x="348.6" y="249.6" class="st2" width="24.2" height="24.2"/>
<rect x="348.6" y="152.7" class="st2" width="24.2" height="24.2"/>
<rect x="348.6" y="273.8" class="st2" width="24.2" height="24.2"/>
<rect x="227.4" y="176.9" class="st2" width="24.2" height="24.2"/>
<rect x="227.4" y="225.4" class="st2" width="24.2" height="24.2"/>
<rect x="227.4" y="201.1" class="st2" width="24.2" height="24.2"/>
<rect x="227.4" y="249.6" class="st2" width="24.2" height="24.2"/>
<rect x="227.4" y="152.7" class="st2" width="24.2" height="24.2"/>
<rect x="227.4" y="273.8" class="st2" width="24.2" height="24.2"/>
<rect x="324.4" y="176.9" class="st2" width="24.2" height="24.2"/>
<rect x="275.9" y="201.1" class="st2" width="24.2" height="24.2"/>
<rect x="275.9" y="249.6" class="st0" width="24.2" height="24.2"/>
<rect x="275.9" y="152.7" class="st0" width="24.2" height="24.2"/>
<rect x="275.9" y="273.8" class="st0" width="24.2" height="24.2"/>
<rect x="372.8" y="176.9" class="st0" width="24.2" height="24.2"/>
<rect x="372.8" y="225.4" class="st0" width="24.2" height="24.2"/>
<rect x="372.8" y="201.1" class="st0" width="24.2" height="24.2"/>
<rect x="372.8" y="249.6" class="st0" width="24.2" height="24.2"/>
</svg>
