<svg width="303" height="302" viewBox="0 0 303 302" fill="none" xmlns="http://www.w3.org/2000/svg">
<rect x="1.93445" y="1" width="300" height="300" fill="black"/>
<path d="M63.0894 105.897L17.2964 82.5813C13.7144 89.6187 10.6639 96.9976 8.23645 104.513L57.1336 120.324C58.7315 115.381 60.7307 110.527 63.0894 105.897Z" fill="white"/>
<path d="M101.988 64.8053L127.353 108.509C131.057 106.36 135.022 104.708 139.146 103.6L126.019 54.8009C129.359 53.9025 132.754 53.1609 136.168 52.6218L128.102 1.86548C120.3 3.10404 112.547 4.97349 105.054 7.41629L120.74 55.489C115.75 57.1176 110.892 59.1398 106.213 61.533L83.1576 16.53C76.1466 20.1235 69.3651 24.2981 62.9924 28.9506L93.2876 70.4597C96.0782 68.4257 98.9986 66.5448 101.988 64.8053Z" fill="white"/>
<path d="M238.097 101.015L194.41 126.403C196.562 130.103 198.214 134.071 199.326 138.189L248.12 125.037C249.019 128.379 249.76 131.77 250.303 135.18L301.05 127.098C299.808 119.3 297.935 111.543 295.485 104.047L247.42 119.762C245.788 114.774 243.766 109.918 241.369 105.239L286.356 82.1531C282.762 75.1495 278.58 68.3676 273.928 61.9985L232.432 92.3144C234.469 95.105 236.358 98.0214 238.097 101.015Z" fill="white"/>
<path d="M220.282 16.3242C213.236 12.746 205.858 9.69909 198.351 7.27539L182.566 56.1816C187.505 57.7757 192.36 59.7788 196.997 62.1337L220.282 16.3242Z" fill="white"/>
<path d="M202.035 63.9098L176.381 108.435C180.097 110.576 183.521 113.199 186.568 116.233L258.521 44.0346C252.939 38.4723 246.876 33.3076 240.5 28.6819L210.824 69.6097C207.995 67.5606 205.062 65.6568 202.035 63.9098Z" fill="white"/>
<path d="M64.874 100.853L109.386 126.536C111.527 122.824 114.157 119.395 117.197 116.344L45.03 44.363C39.464 49.9444 34.2956 56.0037 29.67 62.3764L70.5814 92.0728C68.5324 94.8974 66.621 97.8261 64.874 100.853Z" fill="white"/>
<path d="M167.511 51.758L175.275 1.79677C167.603 0.604022 159.751 0 151.934 0H151.815V101.933H151.934C156.231 101.933 160.481 102.484 164.572 103.57L177.753 53.8988C174.381 53.0043 170.963 52.2971 167.511 51.758Z" fill="white"/>
<path d="M104.505 138.335L54.8433 125.119C53.9449 128.491 53.2339 131.909 52.6949 135.361L2.74262 127.573C1.54227 135.273 0.934448 143.155 0.934448 150.997H102.865C102.865 146.692 103.416 142.429 104.505 138.335Z" fill="white"/>
<path d="M240.779 196.111L286.572 219.427C290.154 212.389 293.204 205.011 295.632 197.495L246.735 181.683C245.137 186.626 243.138 191.482 240.779 196.111Z" fill="white"/>
<path d="M201.878 237.192L176.514 193.49C172.81 195.638 168.846 197.289 164.721 198.398L177.848 247.197C174.503 248.095 171.112 248.837 167.699 249.376L175.761 300.128C183.564 298.89 191.316 297.02 198.809 294.578L183.124 246.505C188.116 244.877 192.971 242.854 197.65 240.461L220.705 285.464C227.716 281.87 234.498 277.695 240.87 273.044L210.575 231.534C207.784 233.568 204.868 235.453 201.878 237.192Z" fill="white"/>
<path d="M65.7738 200.996L109.465 175.609C107.312 171.908 105.66 167.939 104.548 163.823L55.7543 176.973C54.8559 173.632 54.1143 170.241 53.5715 166.831L2.82031 174.912C4.06272 182.711 5.93588 190.468 8.38628 197.964L56.4501 182.248C58.0823 187.238 60.1046 192.093 62.5016 196.772L17.5151 219.858C21.1085 226.862 25.2906 233.644 29.9429 240.012L71.4392 209.697C69.4016 206.906 67.5131 203.989 65.7738 200.996Z" fill="white"/>
<path d="M83.5865 285.68C90.6316 289.259 98.0095 292.305 105.518 294.73L121.302 245.823C116.363 244.229 111.509 242.226 106.871 239.871L83.5865 285.68Z" fill="white"/>
<path d="M101.833 238.101L127.488 193.576C123.772 191.435 120.347 188.812 117.3 185.778L45.3479 257.976C50.9292 263.538 56.9921 268.703 63.3685 273.329L93.0445 232.401C95.874 234.45 98.8051 236.353 101.833 238.101Z" fill="white"/>
<path d="M238.993 201.156L194.48 175.474C192.34 179.186 189.709 182.615 186.671 185.665L258.833 257.65C264.4 252.069 269.567 246.01 274.193 239.637L233.281 209.941C235.331 207.116 237.246 204.184 238.993 201.156Z" fill="white"/>
<path d="M139.296 198.431L126.115 248.102C129.487 248.996 132.905 249.704 136.357 250.243L128.597 300.203C136.269 301.397 144.121 302 151.939 302H152.057V200.067H151.939C147.641 200.067 143.387 199.516 139.296 198.431Z" fill="white"/>
<path d="M201.004 151.008C201.004 155.312 200.45 159.571 199.36 163.668L249.022 176.884C249.921 173.512 250.632 170.095 251.17 166.643L301.127 174.434C302.327 166.734 302.934 158.852 302.934 151.011L201.004 151.008Z" fill="white"/>
</svg>
