<svg width="274" height="274" viewBox="0 0 274 274" fill="none" xmlns="http://www.w3.org/2000/svg">
<path d="M56.3788 96.0897L14.8414 74.9412C11.5923 81.3244 8.82528 88.0174 6.62341 94.8342L50.9764 109.176C52.4259 104.692 54.2393 100.289 56.3788 96.0897Z" fill="white"/>
<path d="M91.6628 58.8174L114.67 98.4583C118.03 96.5098 121.626 95.0113 125.367 94.0055L113.46 49.743C116.49 48.9281 119.57 48.2554 122.666 47.7665L115.349 1.72827C108.272 2.8517 101.24 4.54737 94.4438 6.7631L108.671 50.3671C104.146 51.8443 99.7388 53.6786 95.4945 55.8493L74.5819 15.0297C68.2225 18.2891 62.0712 22.0756 56.2908 26.2956L83.7705 63.9462C86.3018 62.1012 88.9508 60.3952 91.6628 58.8174Z" fill="white"/>
<path d="M215.122 91.661L175.495 114.689C177.448 118.045 178.945 121.645 179.955 125.38L224.214 113.451C225.029 116.482 225.702 119.557 226.194 122.65L272.225 115.32C271.099 108.247 269.399 101.211 267.177 94.4113L223.579 108.666C222.099 104.141 220.264 99.737 218.09 95.4928L258.896 74.5528C255.637 68.2003 251.843 62.0488 247.624 56.2717L209.983 83.7695C211.831 86.3008 213.545 88.946 215.122 91.661Z" fill="white"/>
<path d="M198.963 14.8431C192.572 11.5976 185.88 8.8339 179.07 6.6355L164.752 50.9955C169.232 52.4414 173.636 54.2584 177.842 56.3944L198.963 14.8431Z" fill="white"/>
<path d="M182.412 58.0052L159.142 98.3915C162.512 100.333 165.619 102.712 168.382 105.465L233.648 39.9776C228.586 34.9323 223.086 30.2477 217.302 26.052L190.384 63.1753C187.818 61.3167 185.158 59.5899 182.412 58.0052Z" fill="white"/>
<path d="M57.9974 91.5147L98.373 114.81C100.315 111.443 102.701 108.333 105.458 105.565L39.9976 40.2756C34.9489 45.3382 30.2608 50.8342 26.0651 56.6145L63.1745 83.5505C61.3159 86.1125 59.5821 88.769 57.9974 91.5147Z" fill="white"/>
<path d="M151.097 46.9832L158.139 1.66613C151.18 0.584251 144.058 0.036377 136.966 0.036377H136.859V92.4943H136.966C140.864 92.4943 144.72 92.9938 148.43 93.9785L160.386 48.9249C157.328 48.1136 154.228 47.4721 151.097 46.9832Z" fill="white"/>
<path d="M93.9458 125.512L48.8989 113.525C48.0841 116.583 47.4391 119.683 46.9502 122.814L1.64014 115.751C0.551336 122.735 0 129.885 0 136.997H92.4577C92.4577 133.092 92.958 129.226 93.9458 125.512Z" fill="white"/>
<path d="M217.556 177.918L259.093 199.066C262.342 192.682 265.108 185.99 267.31 179.173L222.958 164.831C221.508 169.315 219.695 173.719 217.556 177.918Z" fill="white"/>
<path d="M182.269 215.18L159.262 175.54C155.902 177.488 152.307 178.986 148.565 179.992L160.473 224.254C157.438 225.07 154.363 225.742 151.267 226.231L158.579 272.266C165.657 271.142 172.689 269.446 179.485 267.231L165.258 223.627C169.786 222.15 174.19 220.315 178.435 218.145L199.347 258.964C205.706 255.705 211.858 251.918 217.638 247.699L190.158 210.048C187.627 211.893 184.981 213.602 182.269 215.18Z" fill="white"/>
<path d="M58.8138 182.348L98.4443 159.321C96.492 155.964 94.9935 152.365 93.9848 148.63L49.7254 160.558C48.9105 157.528 48.2379 154.452 47.7455 151.359L1.71069 158.689C2.83764 165.763 4.53672 172.799 6.7594 179.599L50.3565 165.343C51.8371 169.869 53.6715 174.273 55.8456 178.517L15.0399 199.457C18.2993 205.81 22.0928 211.961 26.3127 217.738L63.9527 190.24C62.1045 187.709 60.3915 185.063 58.8138 182.348Z" fill="white"/>
<path d="M74.9711 259.161C81.3614 262.407 88.0537 265.17 94.8644 267.369L109.182 223.009C104.701 221.563 100.298 219.745 96.0914 217.609L74.9711 259.161Z" fill="white"/>
<path d="M91.5218 216.004L114.793 175.618C111.422 173.676 108.315 171.297 105.551 168.545L40.286 234.032C45.3486 239.077 50.8481 243.762 56.6319 247.958L83.5501 210.834C86.1166 212.693 88.7753 214.419 91.5218 216.004Z" fill="white"/>
<path d="M215.935 182.493L175.559 159.199C173.617 162.566 171.232 165.676 168.475 168.443L233.932 233.736C238.981 228.674 243.668 223.178 247.864 217.398L210.754 190.462C212.614 187.899 214.351 185.24 215.935 182.493Z" fill="white"/>
<path d="M125.503 180.021L113.548 225.075C116.606 225.886 119.706 226.528 122.837 227.017L115.798 272.334C122.758 273.416 129.88 273.964 136.971 273.964H137.078V181.506H136.971C133.073 181.506 129.214 181.006 125.503 180.021Z" fill="white"/>
<path d="M181.477 137.007C181.477 140.911 180.974 144.774 179.986 148.491L225.032 160.478C225.847 157.42 226.492 154.32 226.981 151.189L272.295 158.256C273.383 151.272 273.934 144.122 273.934 137.01L181.477 137.007Z" fill="white"/>
</svg>
