<svg width="256" height="256" viewBox="0 0 256 256" fill="none" xmlns="http://www.w3.org/2000/svg">
<g clip-path="url(#clip0_2641_9991)">
<path d="M128 256C198.692 256 256 198.692 256 128C256 57.3075 198.692 0 128 0C57.3075 0 0 57.3075 0 128C0 198.692 57.3075 256 128 256Z" fill="black"/>
<path fill-rule="evenodd" clip-rule="evenodd" d="M138.217 62.9305L143.305 30.1748C138.275 29.396 133.127 29 127.999 29H127.921V95.825H127.999C130.817 95.825 133.603 96.188 136.289 96.9005L144.935 64.3365C142.724 63.749 140.48 63.287 138.223 62.9305H138.217ZM111.889 100.142L95.257 71.4905H95.2505C93.29 72.6325 91.376 73.8665 89.548 75.2L69.6885 47.9881C73.8665 44.9389 78.315 42.1999 82.9085 39.8438L98.0225 69.3455C101.091 67.7815 104.272 66.455 107.546 65.3855L97.2635 33.8708C102.18 32.267 107.263 31.0394 112.378 30.2276L117.664 63.498C115.427 63.8545 113.203 64.343 111.011 64.9305L119.618 96.9205C116.918 97.6465 114.317 98.7355 111.889 100.142ZM39.7252 83.1405L69.7485 98.426C68.204 101.462 66.891 104.644 65.8415 107.884L33.7852 97.5155C35.3758 92.592 37.3756 87.754 39.7252 83.1405ZM184.49 95.224L155.846 111.869C157.258 114.298 158.34 116.898 159.066 119.598L191.057 110.979C191.644 113.17 192.132 115.394 192.488 117.624L225.76 112.325C224.948 107.21 223.72 102.128 222.109 97.211L190.601 107.513C189.532 104.24 188.206 101.059 186.635 97.9895L216.13 82.856C213.774 78.262 211.035 73.8205 207.979 69.6425L180.774 89.515C182.107 91.3435 183.348 93.2575 184.483 95.2175L184.49 95.224ZM172.805 39.6974L172.807 39.6987V39.6922L172.805 39.6974ZM158.426 33.7654C163.348 35.3557 168.186 37.3484 172.805 39.6974L157.542 69.7285C154.499 68.1845 151.317 66.871 148.077 65.828L158.426 33.7654ZM160.848 70.904L144.024 100.096C146.46 101.502 148.704 103.217 150.704 105.211L197.88 57.8755C194.224 54.226 190.244 50.84 186.066 47.8106L166.609 74.6395C164.755 73.293 162.834 72.046 160.848 70.904ZM100.108 111.956L70.923 95.119H70.9165C72.065 93.139 73.3125 91.2185 74.659 89.364L47.8364 69.894C50.8725 65.716 54.258 61.743 57.908 58.0865L105.23 105.276C103.237 107.276 101.514 109.521 100.108 111.956ZM64.3495 111.032L96.9075 119.698H96.9005C96.188 122.384 95.825 125.176 95.825 128.001H29C29 122.86 29.4026 117.692 30.188 112.643L62.944 117.744C63.2935 115.487 63.762 113.243 64.3495 111.032ZM186.251 157.574L216.275 172.859C218.625 168.246 220.624 163.408 222.214 158.484L190.158 148.116C189.109 151.357 187.795 154.538 186.251 157.574ZM144.11 155.859L160.742 184.51L160.749 184.516C162.709 183.374 164.623 182.14 166.451 180.807L186.311 208.018C182.133 211.067 177.684 213.806 173.09 216.163L157.977 186.661C154.908 188.225 151.727 189.552 148.453 190.621L158.736 222.136C153.819 223.74 148.737 224.967 143.622 225.779L138.335 192.502C140.573 192.145 142.797 191.657 144.988 191.07L136.382 159.079C139.081 158.353 141.681 157.265 144.11 155.859ZM71.5105 160.775L100.155 144.13C98.742 141.701 97.66 139.101 96.934 136.402L64.9435 145.021C64.356 142.83 63.868 140.606 63.5115 138.375L30.2343 143.675C31.0461 148.79 32.2737 153.872 33.884 158.789L65.3925 148.486C66.4615 151.76 67.788 154.941 69.359 158.01L39.8637 173.144C42.2199 177.737 44.9588 182.179 48.0146 186.357L75.22 166.484C73.8865 164.656 72.646 162.742 71.5105 160.782V160.775ZM83.1945 216.303L83.192 216.301V216.307L83.1945 216.303ZM83.1945 216.303C87.814 218.652 92.6505 220.644 97.5735 222.234L107.922 190.171C104.681 189.128 101.5 187.815 98.4575 186.271L83.1945 216.303ZM95.1515 185.096L95.153 185.094L95.158 185.096H95.1515ZM95.153 185.094L111.975 155.904C109.539 154.498 107.296 152.783 105.296 150.79L58.1255 198.124C61.782 201.774 65.7615 205.16 69.9395 208.189L89.396 181.361C91.2495 182.706 93.168 183.953 95.153 185.094ZM155.898 144.044L185.083 160.88V160.887C183.934 162.867 182.688 164.788 181.341 166.643L208.163 186.113C205.127 190.29 201.742 194.263 198.092 197.919L150.777 150.723C152.77 148.724 154.492 146.48 155.898 144.044ZM119.71 159.099V159.101L119.703 159.099H119.71ZM119.71 159.101L111.064 191.663C113.275 192.251 115.519 192.713 117.776 193.07L112.688 225.825C117.717 226.604 122.865 227 127.993 227H128.072V160.175H127.993C125.177 160.175 122.394 159.812 119.71 159.101ZM159.099 136.303C159.811 133.619 160.174 130.829 160.174 128.007H226.999C226.999 133.148 226.597 138.316 225.811 143.365L193.062 138.256C192.713 140.513 192.244 142.758 191.656 144.969L159.099 136.303Z" fill="white"/>
</g>
<defs>
<clipPath id="clip0_2641_9991">
<rect width="256" height="256" fill="white"/>
</clipPath>
</defs>
</svg>
