<svg width="256" height="256" viewBox="0 0 256 256" fill="none" xmlns="http://www.w3.org/2000/svg">
<path d="M1 128C1 57.8599 57.8599 1 128 1C198.14 1 255 57.8599 255 128C255 198.14 198.14 255 128 255C57.8599 255 1 198.14 1 128Z" fill="#3488EC"/>
<path d="M138.847 128.864C136.812 128.282 135.591 126.015 136.126 123.797L138.847 128.864ZM138.847 128.864L138.862 128.869ZM138.847 128.864L138.862 128.869ZM138.862 128.869C139.174 128.955 139.494 129 139.817 129ZM138.862 128.869L139.817 129ZM154.874 123.796C155.409 126.012 154.191 128.283 152.151 128.863C150.115 129.446 148.03 128.121 147.495 125.904C147.289 125.052 146.482 124.335 145.433 124.299C144.492 124.329 143.72 125.016 143.506 125.903L154.874 123.796ZM154.874 123.796C153.757 119.171 149.906 116 145.504 116H145.497H145.491H145.484H145.478H145.471H145.465H145.458H145.452H145.445H145.438H145.432H145.425H145.418H145.412H145.405H145.398H145.392H145.385H145.379H145.372H145.366M154.874 123.796L145.366 116ZM145.366 116L145.334 116.001ZM145.366 116L145.334 116.001ZM145.334 116.001C141.01 116.08 137.217 119.268 136.126 123.797L145.334 116.001ZM139.817 129C141.508 129 143.056 127.771 143.506 125.903L139.817 129Z" fill="white"/>
<path d="M138.847 128.864C136.812 128.282 135.591 126.015 136.126 123.797M138.847 128.864L136.126 123.797M138.847 128.864L138.862 128.869M136.126 123.797C137.217 119.268 141.01 116.08 145.334 116.001M136.126 123.797L145.334 116.001M138.862 128.869C139.174 128.955 139.494 129 139.817 129M138.862 128.869L139.817 129M139.817 129C141.508 129 143.056 127.771 143.506 125.903M139.817 129L143.506 125.903M154.874 123.796C155.409 126.012 154.191 128.283 152.151 128.863M154.874 123.796L143.506 125.903M154.874 123.796C153.757 119.171 149.906 116 145.504 116H145.497H145.491H145.484H145.478H145.471H145.465H145.458H145.452H145.445H145.438H145.432H145.425H145.418H145.412H145.405H145.398H145.392H145.385H145.379H145.372H145.366M154.874 123.796L145.366 116M152.151 128.863L151.757 127.221M152.151 128.863C150.115 129.446 148.03 128.121 147.495 125.904C147.289 125.052 146.482 124.335 145.433 124.299C144.492 124.329 143.72 125.016 143.506 125.903M145.366 116L145.334 116.001" stroke="white" stroke-width="0.5"/>
<path d="M103.847 128.865C101.812 128.282 100.591 126.015 101.126 123.797L103.847 128.865ZM103.847 128.865L103.862 128.869ZM103.847 128.865L103.862 128.869ZM103.862 128.869C104.174 128.955 104.493 129 104.817 129ZM103.862 128.869L104.817 129ZM112.496 125.905C112.293 125.065 111.454 124.336 110.433 124.3C109.492 124.329 108.719 125.017 108.505 125.903L112.496 125.905ZM112.496 125.905C113.031 128.119 115.112 129.446 117.153 128.863ZM112.496 125.905L119.874 123.796ZM119.874 123.796C120.409 126.011 119.192 128.282 117.153 128.863ZM119.874 123.796C118.758 119.171 114.907 116 110.504 116H110.498H110.491H110.485H110.478H110.472H110.465H110.459H110.452H110.446H110.439H110.433H110.426H110.419H110.413H110.406H110.399H110.393H110.386H110.38H110.373H110.367H110.36M119.874 123.796L110.36 116ZM117.153 128.863C117.153 128.863 117.152 128.863 117.153 128.863ZM110.36 116L110.334 116.001ZM110.36 116L110.334 116.001ZM110.334 116.001C106.01 116.08 102.217 119.268 101.126 123.797L110.334 116.001ZM104.817 129C106.507 129 108.055 127.771 108.505 125.903L104.817 129Z" fill="white"/>
<path d="M103.847 128.865C101.812 128.282 100.591 126.015 101.126 123.797M103.847 128.865L101.126 123.797M103.847 128.865L103.862 128.869M101.126 123.797C102.217 119.268 106.01 116.08 110.334 116.001M101.126 123.797L110.334 116.001M103.862 128.869C104.174 128.955 104.493 129 104.817 129M103.862 128.869L104.817 129M104.817 129C106.507 129 108.055 127.771 108.505 125.903M104.817 129L108.505 125.903M112.496 125.905C112.293 125.065 111.454 124.336 110.433 124.3C109.492 124.329 108.719 125.017 108.505 125.903M112.496 125.905L108.505 125.903M112.496 125.905C113.031 128.119 115.112 129.446 117.153 128.863M112.496 125.905L119.874 123.796M117.153 128.863C119.192 128.282 120.409 126.011 119.874 123.796M117.153 128.863L116.757 127.221M117.153 128.863C117.152 128.863 117.153 128.863 117.153 128.863ZM119.874 123.796C118.758 119.171 114.907 116 110.504 116H110.498H110.491H110.485H110.478H110.472H110.465H110.459H110.452H110.446H110.439H110.433H110.426H110.419H110.413H110.406H110.399H110.393H110.386H110.38H110.373H110.367H110.36M119.874 123.796L110.36 116M110.36 116L110.334 116.001" stroke="white" stroke-width="0.5"/>
<path d="M143 161C138.575 161 135 164.824 135 169.499C135 174.175 138.575 178 143 178C147.425 178 151 174.175 151 169.499C151 164.824 147.425 161 143 161ZM143 170.03C142.798 170.03 142.555 169.835 142.555 169.499C142.555 169.165 142.796 168.97 143 168.97C143.203 168.97 143.444 169.165 143.444 169.499C143.444 169.835 143.202 170.03 143 170.03Z" fill="white" stroke="white" stroke-width="0.5"/>
<path d="M113 161C108.575 161 105 164.824 105 169.499C105 174.175 108.575 178 113 178C117.427 178 121 174.174 121 169.499C121 164.825 117.426 161 113 161ZM113 170.03C112.799 170.03 112.556 169.835 112.556 169.499C112.556 169.165 112.797 168.97 113 168.97C113.202 168.97 113.444 169.164 113.444 169.499C113.444 169.835 113.201 170.03 113 170.03Z" fill="white" stroke="white" stroke-width="0.5"/>
<path d="M182.643 106.802L164.011 100.169C163.992 100.162 163.971 100.16 163.951 100.153C163.732 99.0802 163.51 98.0051 163.283 96.9203C177.784 87.6977 182.103 65.688 184.2 54.9069L184.37 54.0333C184.472 53.556 184.522 53.0629 184.522 52.5271C184.522 49.2759 182.454 46.4007 179.361 45.3695C175.959 44.255 172.252 45.7297 170.534 48.8751C167.353 54.7172 160.152 62.3178 156.056 66.4108C153.534 62.6009 148.941 59.0064 140.629 58.8448C140.425 58.8201 140.232 58.8111 139.95 58.8155C135.986 58.9258 131.262 61.3575 128.217 63.8229C128.19 63.8477 128.163 63.8725 128.134 63.8972C128.084 63.8522 128.022 63.7959 127.939 63.7216C125.124 61.4363 120.288 58.9258 116.26 58.8155C116.027 58.8155 115.849 58.8201 115.859 58.8291C107.392 59.0176 102.773 62.5964 100.248 66.3808C96.3713 62.5277 89.0308 54.8467 85.782 48.8728C84.0693 45.7365 80.3598 44.2685 76.9381 45.374C73.8693 46.4052 71.8081 49.2803 71.8081 52.5271C71.8081 53.0561 71.8579 53.547 71.9523 53.9838L72.1144 54.8236C74.1986 65.6121 78.4945 87.6403 92.9981 96.8986C92.7684 97.9706 92.5425 99.033 92.323 100.081C92.2094 100.117 92.0971 100.131 91.9828 100.171L73.3575 106.802C67.6372 108.842 64.6156 115.209 66.6187 121C68.1522 125.467 72.3314 128.466 77.021 128.466C78.2699 128.466 79.5008 128.252 80.6699 127.831L87.7162 125.325C85.8644 138.07 85.4004 147.875 86.216 156.063C86.3902 157.866 86.6556 159.607 86.9728 161.29C82.9366 166.274 80.7848 171.936 80.7848 177.745C80.7848 196.082 102.023 211 128.127 211C154.233 211 175.47 196.082 175.47 177.745C175.47 171.952 173.326 166.298 169.3 161.311C169.61 159.687 169.871 157.969 170.056 156.025C170.808 148.433 170.445 139.264 168.941 127.978C168.823 127.135 168.679 126.273 168.554 125.422L175.322 127.829C176.499 128.252 177.73 128.466 178.979 128.466C183.669 128.466 187.848 125.467 189.381 121C191.384 115.209 188.363 108.842 182.643 106.802ZM174.58 51.0838C175.231 49.8905 176.633 49.3277 177.916 49.7464C179.11 50.1472 179.914 51.264 179.914 52.5271C179.914 52.7319 179.898 52.9053 179.855 53.1012L179.675 54.0265C177.779 63.7801 173.97 83.3658 162.25 92.0974C162.118 91.4966 161.985 90.8952 161.851 90.2937C161.649 89.3373 161.398 88.416 161.117 87.5202C160.851 86.6481 160.532 85.7862 160.181 84.9319C160.068 84.6574 159.934 84.3911 159.813 84.1192C159.618 83.6831 159.439 83.2426 159.223 82.8141C159.271 82.5281 159.293 82.2268 159.328 81.9331C159.354 81.7243 159.385 81.52 159.403 81.3074C159.462 80.637 159.496 79.9526 159.49 79.249C159.49 79.24 159.491 79.2317 159.491 79.2234C159.491 79.219 159.491 79.2164 159.491 79.2145C159.477 78.3404 159.426 77.4958 159.352 76.6702C159.328 76.4091 159.291 76.1595 159.261 75.9028C159.197 75.3473 159.123 74.7995 159.029 74.2677C158.979 73.9797 158.922 73.6988 158.862 73.4179C158.761 72.9346 158.647 72.464 158.521 72.0031C158.446 71.7285 158.371 71.454 158.287 71.1871C158.247 71.0607 158.218 70.9247 158.176 70.8002C162.544 66.52 170.847 57.9374 174.58 51.0838ZM101.55 76.7717C101.774 74.6106 102.233 72.6933 102.935 71.0594C105.058 66.0788 109.321 63.5865 115.963 63.4402C116.035 63.4379 116.125 63.4334 116.196 63.4267C118.594 63.4919 122.395 65.1581 124.919 67.1999C125.109 67.3755 125.286 67.5358 125.472 67.6801C125.796 67.9814 126.091 68.2789 126.331 68.5669C126.663 68.9653 127.127 69.2264 127.63 69.3298C128.468 69.5437 129.371 69.2558 129.942 68.5669C130.201 68.2585 130.521 67.9367 130.767 67.7043C130.951 67.5562 131.153 67.387 131.233 67.3059C133.891 65.16 137.693 63.4919 140.078 63.4267L140.315 63.4402C146.971 63.5775 151.238 66.0813 153.367 71.1041C153.687 71.8537 153.938 72.6779 154.157 73.536C154.595 75.2509 154.851 77.1587 154.882 79.2777C154.883 79.3575 154.873 79.4309 154.872 79.5101C154.87 80.63 154.769 81.7051 154.534 82.7963C154.464 83.224 154.344 83.6499 154.21 84.0821C153.356 86.9214 151.697 89.2243 149.526 90.5734C148.186 91.4155 146.64 91.888 145.054 91.9761H144.779C142.463 91.9761 140.121 90.9494 138.915 89.4114C138.881 89.3552 138.847 89.3054 138.822 89.2696C138.389 88.6637 138.157 88.038 138.114 87.3581C138.039 86.1559 137.05 85.2122 135.846 85.1962C135.834 85.1962 135.825 85.1962 135.815 85.1962C134.624 85.1962 133.627 86.1061 133.519 87.2949C133.511 87.3874 133.506 87.4704 133.489 87.5649C133.096 89.7536 131.383 91.5145 129.172 91.9512C129.132 91.9556 128.974 91.9761 128.934 91.985C128.846 92.0003 128.75 92.0074 128.738 92.0099C128.323 92.0342 127.903 92.0342 127.596 92.0144C127.511 92.0054 127.424 92.0003 127.278 91.9735L127.03 91.9467C124.885 91.5145 123.178 89.7517 122.784 87.5649C122.772 87.4998 122.756 87.3581 122.739 87.2949C122.631 86.1041 121.634 85.1962 120.444 85.1962C120.428 85.1962 120.412 85.1962 120.396 85.1962C119.187 85.2211 118.201 86.1782 118.141 87.3894C118.109 88.0495 117.884 88.6593 117.378 89.3552C117.36 89.382 117.334 89.4273 117.307 89.4765C116.103 90.9762 113.792 91.9761 111.495 91.9761L111.328 91.978C109.629 91.888 108.088 91.4155 106.74 90.5689C104.575 89.2243 102.914 86.9303 102.063 84.1115C101.923 83.6454 101.81 83.1793 101.707 82.7005C101.473 81.5519 101.367 80.4078 101.392 79.293C101.408 78.4164 101.466 77.58 101.55 76.7717ZM76.6388 53.9478L76.4678 53.0629C76.4339 52.903 76.4167 52.7297 76.4167 52.5271C76.4167 51.264 77.2157 50.145 78.3835 49.7532C78.6827 49.6564 78.9846 49.6091 79.2813 49.6091C80.2877 49.6091 81.2257 50.1472 81.7356 51.0793C85.5906 58.1693 94.231 66.9752 98.1204 70.76C98.0777 70.887 98.0477 71.0262 98.0069 71.1552C97.9271 71.408 97.8569 71.6692 97.7848 71.9297C97.654 72.4021 97.5353 72.8861 97.43 73.3822C97.3713 73.658 97.3145 73.9351 97.2641 74.2179C97.1683 74.7542 97.0918 75.3065 97.0254 75.8683C96.9948 76.125 96.9571 76.3753 96.9329 76.637C96.855 77.4683 96.7995 78.3187 96.7829 79.2004C96.7682 79.8702 96.7989 80.5489 96.8563 81.2308C96.8735 81.4408 96.9067 81.6528 96.931 81.8635C96.9673 82.1808 96.9909 82.4968 97.0426 82.8141C96.9941 82.9125 96.9629 83.0191 96.915 83.118C96.4102 84.1658 95.952 85.2371 95.5609 86.3378C95.5162 86.4649 95.4786 86.5945 95.4352 86.7222C95.037 87.8886 94.6885 89.0762 94.4212 90.2918L94.0338 92.075C82.3131 83.3121 78.5258 63.7103 76.6388 53.9478ZM94.79 111.206C94.8047 111.152 94.8168 111.098 94.827 111.042C95.6949 106.476 96.7076 101.515 97.8416 96.2876C98.0407 95.3305 98.2513 94.369 98.4625 93.403L98.9251 91.2686C99.0591 90.6608 99.2716 90.0798 99.4439 89.4848C99.6481 89.8213 99.876 90.136 100.101 90.4533C100.177 90.5606 100.244 90.6749 100.322 90.7796C100.817 91.4417 101.362 92.0463 101.943 92.6088C102.077 92.7384 102.214 92.861 102.353 92.9855C102.966 93.5365 103.607 94.0511 104.299 94.482C106.31 95.7424 108.59 96.4498 111.203 96.587H111.495C114.879 96.587 118.238 95.1933 120.369 92.9689C121.809 94.7342 123.828 96.0041 126.119 96.4676C126.178 96.4791 126.449 96.513 126.508 96.5194C126.742 96.5621 126.975 96.589 127.237 96.6094C127.509 96.6298 127.782 96.6458 128.071 96.6458C128.376 96.6458 128.681 96.6298 129.096 96.6049C129.301 96.587 129.542 96.5602 129.761 96.5238C129.814 96.5174 130.084 96.4791 130.136 96.4676C132.474 95.9971 134.491 94.7451 135.924 92.9848C138.063 95.2003 141.414 96.587 144.779 96.587L145.178 96.5845C147.676 96.4498 149.963 95.7424 151.967 94.4865C152.659 94.0555 153.298 93.5409 153.912 92.9893C154.053 92.8629 154.192 92.7384 154.329 92.6056C154.91 92.0418 155.457 91.4359 155.95 90.7726C156.027 90.6704 156.091 90.5587 156.166 90.454C156.404 90.1181 156.645 89.7855 156.859 89.428C157.036 90.0307 157.211 90.6308 157.348 91.2757C157.725 92.9663 158.088 94.6416 158.45 96.317C158.449 96.3157 158.45 96.3182 158.45 96.317L158.599 97.0263C158.982 98.8523 159.363 100.667 159.737 102.531C159.786 102.738 159.834 102.947 159.885 103.226C160.435 105.865 160.955 108.477 161.446 111.046C161.454 111.087 161.465 111.136 161.479 111.188C162.094 114.396 162.613 117.305 163.06 120.037C163.186 120.808 163.308 121.569 163.422 122.311C163.424 122.322 163.426 122.334 163.428 122.344C163.787 124.474 164.088 126.562 164.375 128.601C165.829 139.517 166.187 148.34 165.47 155.572C165.47 155.575 165.469 155.579 165.469 155.581C165.419 156.101 165.366 156.608 165.307 157.099C165.277 157.072 165.242 157.05 165.212 157.023C164.219 156.142 163.159 155.31 162.057 154.513C161.872 154.378 161.689 154.243 161.501 154.111C160.406 153.344 159.262 152.619 158.073 151.937C157.866 151.818 157.655 151.703 157.444 151.586C156.218 150.907 154.956 150.264 153.644 149.676C153.497 149.611 153.345 149.552 153.197 149.487C151.859 148.902 150.485 148.361 149.069 147.873C148.992 147.847 148.918 147.817 148.841 147.79C147.411 147.305 145.937 146.884 144.438 146.502C144.206 146.443 143.976 146.379 143.742 146.323C142.289 145.971 140.806 145.671 139.298 145.419C139.021 145.373 138.743 145.33 138.464 145.286C136.94 145.051 135.397 144.862 133.831 144.732C133.603 144.713 133.373 144.702 133.145 144.686C131.491 144.565 129.823 144.488 128.132 144.488C126.439 144.488 124.763 144.565 123.107 144.686C122.882 144.702 122.657 144.712 122.434 144.731C120.864 144.861 119.318 145.051 117.793 145.286C117.515 145.328 117.24 145.372 116.964 145.418C115.457 145.67 113.975 145.968 112.522 146.32C112.285 146.377 112.054 146.441 111.819 146.501C110.324 146.881 108.853 147.301 107.427 147.785C107.344 147.813 107.265 147.845 107.183 147.873C105.776 148.358 104.41 148.896 103.08 149.476C102.926 149.543 102.769 149.604 102.616 149.673C101.308 150.259 100.05 150.898 98.8281 151.575C98.6144 151.693 98.4006 151.81 98.19 151.931C97.0024 152.612 95.8608 153.335 94.767 154.1C94.5788 154.232 94.3963 154.367 94.2112 154.502C93.1085 155.299 92.0486 156.131 91.055 157.012C91.0263 157.038 90.9918 157.06 90.9631 157.085C90.905 156.599 90.8508 156.108 90.8035 155.613C89.7379 144.925 90.9669 131.227 94.79 111.206ZM79.1186 123.488C78.4434 123.731 77.7377 123.855 77.021 123.855C74.2994 123.855 71.8713 122.106 70.9779 119.503C70.9766 119.501 70.9766 119.498 70.9753 119.496C69.7941 116.085 71.556 112.341 74.9037 111.148L90.9599 105.431C90.6459 106.987 90.3434 108.531 90.0499 110.062C90.0359 110.114 90.0237 110.168 90.0135 110.222C89.3084 113.892 88.7245 117.188 88.2357 120.246L79.1186 123.488ZM170.862 177.745C170.862 193.539 151.691 206.389 128.127 206.389C104.564 206.389 85.3934 193.539 85.3934 177.745C85.3934 172.721 87.3876 167.771 91.1622 163.429C91.1609 163.43 91.1635 163.428 91.1622 163.429C98.8269 154.592 112.994 149.099 128.128 149.099C143.266 149.099 157.435 154.595 165.105 163.441C168.871 167.786 170.862 172.733 170.862 177.745ZM185.025 119.496C185.023 119.498 185.023 119.501 185.022 119.503C183.894 122.792 180.148 124.663 176.874 123.486L167.764 120.246C167.72 119.968 167.671 119.678 167.625 119.395C167.581 119.127 167.537 118.856 167.491 118.584C167.393 117.992 167.29 117.388 167.184 116.777C167.134 116.489 167.085 116.202 167.034 115.908C166.919 115.259 166.799 114.593 166.677 113.919C166.629 113.657 166.584 113.402 166.535 113.135C166.36 112.188 166.179 111.222 165.986 110.222C165.979 110.179 165.967 110.13 165.954 110.08C165.658 108.54 165.353 106.984 165.04 105.431L181.096 111.148C184.444 112.341 186.206 116.085 185.025 119.496Z" fill="white"/>
<mask id="mask0_741_46" style="mask-type:luminance" maskUnits="userSpaceOnUse" x="59" y="39" width="135" height="178">
<path d="M193.311 39.0996H59.9608V216.9H193.311V39.0996Z" fill="white"/>
<path d="M182.38 106.916L163.84 100.32C163.82 100.312 163.8 100.311 163.78 100.304C163.562 99.2367 163.342 98.1674 163.115 97.0885C177.545 87.9159 181.843 66.0256 183.929 55.3029L184.098 54.434C184.2 53.9593 184.25 53.4689 184.25 52.936C184.25 49.7024 182.192 46.8428 179.114 45.8172C175.729 44.7088 172.04 46.1755 170.331 49.3038C167.166 55.1143 160 62.6736 155.924 66.7444C153.414 62.9552 148.844 59.3801 140.573 59.2195C140.369 59.1948 140.177 59.1859 139.897 59.1903C135.952 59.3001 131.252 61.7185 128.222 64.1706C128.195 64.1952 128.168 64.2198 128.139 64.2445C128.09 64.1996 128.028 64.1437 127.945 64.0698C125.144 61.7969 120.332 59.3001 116.323 59.1903C116.091 59.1903 115.915 59.1948 115.925 59.2038C107.499 59.3913 102.903 62.9507 100.39 66.7146C96.5326 62.8824 89.2282 55.243 85.9954 49.3015C84.2911 46.1822 80.5998 44.7222 77.1949 45.8217C74.1412 46.8473 72.0902 49.7068 72.0902 52.936C72.0902 53.4622 72.1397 53.9504 72.2337 54.3848L72.395 55.22C74.4689 65.95 78.7437 87.8588 93.176 97.0669C92.9474 98.1331 92.7226 99.1897 92.5042 100.232C92.3911 100.268 92.2794 100.282 92.1657 100.322L73.632 106.916C67.9398 108.945 64.9331 115.278 66.9264 121.038C68.4523 125.481 72.6109 128.463 77.2775 128.463C78.5202 128.463 79.7451 128.251 80.9084 127.832L87.9201 125.34C86.0773 138.015 85.6157 147.767 86.4272 155.91C86.6006 157.704 86.8647 159.435 87.1803 161.109C83.164 166.067 81.0227 171.698 81.0227 177.475C81.0227 195.712 102.156 210.55 128.132 210.55C154.109 210.55 175.243 195.712 175.243 177.475C175.243 171.713 173.109 166.09 169.103 161.13C169.412 159.515 169.671 157.806 169.855 155.872C170.603 148.322 170.241 139.203 168.745 127.977C168.628 127.139 168.485 126.282 168.361 125.436L175.095 127.83C176.266 128.251 177.491 128.463 178.734 128.463C183.401 128.463 187.559 125.481 189.085 121.038C191.078 115.278 188.072 108.945 182.38 106.916ZM174.356 51.5005C175.005 50.3137 176.4 49.7539 177.676 50.1704C178.865 50.569 179.664 51.6797 179.664 52.936C179.664 53.1397 179.648 53.3122 179.606 53.507L179.427 54.4273C177.54 64.128 173.749 83.6075 162.087 92.2917C161.956 91.6942 161.824 91.096 161.691 90.4979C161.489 89.5466 161.239 88.6303 160.96 87.7394C160.696 86.872 160.378 86.0148 160.029 85.1651C159.916 84.8921 159.783 84.6273 159.662 84.3568C159.469 83.9231 159.29 83.4849 159.075 83.0588C159.123 82.7743 159.145 82.4746 159.18 82.1825C159.205 81.9749 159.236 81.7717 159.255 81.5602C159.313 80.8935 159.347 80.2128 159.34 79.513C159.34 79.5041 159.342 79.4958 159.342 79.4876C159.342 79.4831 159.342 79.4806 159.342 79.4787C159.328 78.6094 159.278 77.7693 159.203 76.9482C159.18 76.6885 159.143 76.4402 159.113 76.185C159.049 75.6325 158.976 75.0877 158.883 74.5587C158.832 74.2723 158.775 73.9929 158.716 73.7135C158.616 73.2328 158.502 72.7648 158.377 72.3064C158.302 72.0333 158.227 71.7603 158.144 71.4948C158.104 71.3691 158.076 71.2339 158.034 71.11C162.38 66.853 170.642 58.317 174.356 51.5005ZM101.686 77.0492C101.909 74.8997 102.366 72.9928 103.064 71.3678C105.177 66.4142 109.419 63.9354 116.028 63.7899C116.099 63.7877 116.189 63.7832 116.26 63.7765C118.646 63.8414 122.429 65.4985 124.94 67.5293C125.129 67.7039 125.305 67.8633 125.49 68.0068C125.812 68.3065 126.106 68.6024 126.345 68.8888C126.675 69.285 127.137 69.5448 127.637 69.6476C128.472 69.8604 129.37 69.574 129.938 68.8888C130.196 68.5821 130.514 68.2621 130.759 68.0309C130.943 67.8836 131.143 67.7153 131.223 67.6347C133.867 65.5004 137.651 63.8414 140.024 63.7765L140.261 63.7899C146.883 63.9265 151.13 66.4167 153.248 71.4123C153.566 72.1578 153.816 72.9776 154.034 73.831C154.47 75.5366 154.725 77.434 154.755 79.5416C154.756 79.6209 154.746 79.694 154.746 79.7727C154.744 80.8865 154.643 81.9558 154.41 83.041C154.34 83.4665 154.22 83.89 154.087 84.3199C153.237 87.1438 151.586 89.4342 149.426 90.776C148.092 91.6135 146.554 92.0834 144.976 92.1711H144.702C142.398 92.1711 140.068 91.15 138.867 89.6203C138.833 89.5644 138.799 89.5149 138.775 89.4793C138.344 88.8767 138.113 88.2544 138.07 87.5781C137.996 86.3824 137.011 85.4439 135.813 85.428C135.802 85.428 135.792 85.428 135.782 85.428C134.597 85.428 133.605 86.3329 133.498 87.5153C133.49 87.6073 133.485 87.6899 133.467 87.7839C133.077 89.9606 131.373 91.712 129.172 92.1463C129.132 92.1508 128.975 92.1711 128.935 92.18C128.848 92.1952 128.753 92.2022 128.74 92.2047C128.327 92.2289 127.909 92.2289 127.604 92.2092C127.519 92.2003 127.432 92.1952 127.287 92.1685L127.041 92.1419C124.906 91.712 123.207 89.9587 122.816 87.7839C122.804 87.7191 122.787 87.5781 122.77 87.5153C122.663 86.331 121.671 85.428 120.487 85.428C120.471 85.428 120.455 85.428 120.439 85.428C119.236 85.4528 118.255 86.4046 118.196 87.6092C118.164 88.2658 117.939 88.8723 117.436 89.5644C117.418 89.5911 117.392 89.6362 117.366 89.6851C116.167 91.1767 113.868 92.1711 111.581 92.1711L111.416 92.173C109.725 92.0834 108.191 91.6135 106.85 90.7715C104.696 89.4342 103.043 87.1527 102.197 84.3491C102.057 83.8856 101.944 83.422 101.842 82.9458C101.609 81.8034 101.503 80.6655 101.528 79.5568C101.545 78.6849 101.602 77.8531 101.686 77.0492ZM76.8971 54.349L76.727 53.4689C76.6933 53.3099 76.6762 53.1375 76.6762 52.936C76.6762 51.6797 77.4712 50.5668 78.6332 50.1771C78.931 50.0809 79.2314 50.0338 79.5267 50.0338C80.5281 50.0338 81.4615 50.569 81.9689 51.4961C85.8049 58.5476 94.4028 67.3057 98.2731 71.07C98.2306 71.1964 98.2008 71.3348 98.1601 71.4631C98.0807 71.7145 98.0109 71.9743 97.9391 72.2333C97.809 72.7032 97.6908 73.1846 97.5861 73.678C97.5276 73.9523 97.4711 74.2279 97.421 74.5092C97.3257 75.0426 97.2495 75.5919 97.1835 76.1507C97.153 76.4059 97.1155 76.6549 97.0914 76.9152C97.0139 77.742 96.9587 78.5878 96.9422 79.4647C96.9276 80.1308 96.9581 80.8058 97.0152 81.484C97.0323 81.6929 97.0654 81.9038 97.0895 82.1133C97.1257 82.4289 97.1492 82.7432 97.2006 83.0588C97.1524 83.1566 97.1212 83.2627 97.0736 83.3611C96.5713 84.4031 96.1154 85.4687 95.7262 86.5634C95.6817 86.6898 95.6442 86.8187 95.6011 86.9457C95.2048 88.1058 94.8581 89.2869 94.592 90.4959L94.2066 92.2695C82.5436 83.5541 78.7748 64.0586 76.8971 54.349ZM94.9591 111.297C94.9737 111.243 94.9857 111.189 94.9959 111.133C95.8595 106.592 96.8673 101.659 97.9956 96.4592C98.1938 95.5074 98.4033 94.5511 98.6135 93.5903L99.0739 91.4675C99.2072 90.863 99.4187 90.2851 99.5901 89.6933C99.7933 90.028 100.02 90.341 100.244 90.6566C100.319 90.7633 100.386 90.8769 100.464 90.9811C100.956 91.6396 101.499 92.2409 102.077 92.8004C102.21 92.9293 102.347 93.0512 102.485 93.175C103.095 93.723 103.732 94.2348 104.421 94.6635C106.422 95.9169 108.692 96.6205 111.291 96.757H111.581C114.95 96.757 118.292 95.3708 120.412 93.1585C121.846 94.9143 123.854 96.1773 126.134 96.6383C126.193 96.6497 126.462 96.6834 126.521 96.6897C126.754 96.7323 126.986 96.759 127.247 96.7793C127.517 96.7996 127.789 96.8155 128.076 96.8155C128.38 96.8155 128.683 96.7996 129.096 96.7748C129.3 96.757 129.54 96.7304 129.758 96.6942C129.81 96.6878 130.08 96.6497 130.132 96.6383C132.458 96.1703 134.465 94.9251 135.891 93.1744C138.02 95.3778 141.354 96.757 144.702 96.757L145.099 96.7545C147.585 96.6205 149.861 95.9169 151.854 94.6679C152.543 94.2393 153.18 93.7275 153.79 93.1788C153.93 93.0531 154.069 92.9293 154.205 92.7972C154.784 92.2365 155.327 91.6339 155.819 90.9741C155.895 90.8725 155.959 90.7614 156.033 90.6572C156.27 90.3232 156.51 89.9924 156.723 89.6368C156.899 90.2362 157.073 90.8331 157.209 91.4745C157.585 93.156 157.945 94.8222 158.306 96.4884C158.305 96.4872 158.306 96.4897 158.306 96.4884L158.455 97.1939C158.836 99.01 159.214 100.815 159.587 102.669C159.635 102.875 159.683 103.083 159.734 103.36C160.281 105.985 160.798 108.583 161.287 111.138C161.296 111.178 161.306 111.227 161.32 111.279C161.932 114.469 162.448 117.363 162.893 120.08C163.018 120.846 163.14 121.603 163.253 122.341C163.255 122.352 163.258 122.364 163.259 122.375C163.617 124.493 163.916 126.569 164.202 128.598C165.649 139.454 166.005 148.23 165.292 155.422C165.292 155.425 165.29 155.429 165.29 155.431C165.241 155.949 165.188 156.453 165.129 156.94C165.099 156.914 165.064 156.892 165.034 156.866C164.046 155.989 162.992 155.162 161.896 154.369C161.712 154.235 161.529 154.1 161.342 153.969C160.252 153.206 159.114 152.485 157.931 151.806C157.724 151.688 157.515 151.574 157.305 151.458C156.085 150.782 154.829 150.143 153.523 149.559C153.377 149.493 153.226 149.435 153.079 149.37C151.748 148.788 150.38 148.25 148.972 147.765C148.895 147.739 148.821 147.709 148.744 147.682C147.321 147.2 145.854 146.781 144.363 146.401C144.132 146.342 143.904 146.279 143.671 146.224C142.224 145.873 140.748 145.575 139.248 145.324C138.972 145.278 138.696 145.235 138.418 145.192C136.902 144.959 135.367 144.77 133.808 144.64C133.581 144.622 133.352 144.611 133.125 144.595C131.48 144.475 129.819 144.399 128.137 144.399C126.453 144.399 124.784 144.475 123.137 144.595C122.913 144.611 122.689 144.621 122.467 144.64C120.905 144.769 119.367 144.958 117.849 145.192C117.573 145.234 117.298 145.277 117.024 145.323C115.525 145.574 114.05 145.87 112.604 146.22C112.368 146.277 112.138 146.34 111.904 146.4C110.416 146.779 108.953 147.196 107.534 147.677C107.451 147.705 107.373 147.737 107.291 147.765C105.891 148.247 104.532 148.782 103.208 149.359C103.055 149.426 102.898 149.487 102.747 149.555C101.445 150.138 100.193 150.774 98.9774 151.447C98.7646 151.565 98.5519 151.681 98.3424 151.801C97.1606 152.478 96.0246 153.197 94.9362 153.958C94.7489 154.089 94.5673 154.224 94.3831 154.358C93.2859 155.151 92.2311 155.978 91.2424 156.855C91.2138 156.88 91.1796 156.902 91.151 156.927C91.0932 156.443 91.0392 155.956 90.9922 155.463C89.9318 144.833 91.1548 131.209 94.9591 111.297ZM79.3647 123.512C78.6929 123.754 77.9906 123.877 77.2775 123.877C74.5692 123.877 72.153 122.137 71.264 119.548C71.2628 119.547 71.2628 119.544 71.2615 119.542C70.0861 116.149 71.8394 112.426 75.1706 111.239L91.1478 105.553C90.8354 107.101 90.5344 108.637 90.2423 110.159C90.2283 110.211 90.2163 110.265 90.2061 110.318C89.5044 113.968 88.9234 117.247 88.437 120.288L79.3647 123.512ZM170.657 177.475C170.657 193.184 151.58 205.964 128.132 205.964C104.685 205.964 85.6087 193.184 85.6087 177.475C85.6087 172.478 87.5931 167.555 91.3491 163.236C91.3478 163.237 91.3504 163.235 91.3491 163.236C98.9761 154.447 113.073 148.985 128.133 148.985C143.197 148.985 157.296 154.451 164.928 163.249C168.676 167.57 170.657 172.49 170.657 177.475ZM184.75 119.542C184.749 119.544 184.749 119.547 184.747 119.548C183.625 122.82 179.897 124.681 176.639 123.51L167.575 120.288C167.53 120.011 167.481 119.722 167.435 119.442C167.392 119.174 167.348 118.905 167.303 118.635C167.205 118.046 167.102 117.445 166.997 116.838C166.948 116.551 166.899 116.266 166.847 115.973C166.734 115.328 166.614 114.665 166.492 113.995C166.445 113.734 166.4 113.48 166.351 113.215C166.177 112.274 165.997 111.313 165.805 110.318C165.798 110.276 165.786 110.227 165.773 110.177C165.478 108.646 165.175 107.098 164.864 105.553L180.841 111.239C184.172 112.426 185.925 116.149 184.75 119.542Z" fill="black"/>
</mask>
<g mask="url(#mask0_741_46)">
<path d="M158.306 96.488C157.945 94.8217 157.585 93.1555 157.209 91.474C157.073 90.8326 156.899 90.2357 156.723 89.6363C156.51 89.9919 156.27 90.3227 156.033 90.6567C155.959 90.7609 155.895 90.872 155.819 90.9736C155.327 91.6334 154.784 92.236 154.205 92.7967C154.069 92.9288 153.93 93.0526 153.79 93.1783C153.18 93.727 152.543 94.2388 151.854 94.6674C149.861 95.9165 147.585 96.62 145.099 96.754L144.702 96.7566C141.354 96.7566 138.02 95.3773 135.891 93.1739C134.465 94.9246 132.458 96.1698 130.132 96.6378C130.08 96.6492 129.81 96.6873 129.758 96.6937C129.54 96.7299 129.3 96.7566 129.096 96.7743C128.683 96.7991 128.38 96.815 128.076 96.815C127.789 96.815 127.517 96.7991 127.247 96.7788C126.986 96.7585 126.754 96.7318 126.521 96.6892C126.462 96.6829 126.193 96.6492 126.134 96.6378C123.854 96.1768 121.846 94.9138 120.412 93.158C118.292 95.3704 114.95 96.7566 111.581 96.7566H111.291C108.692 96.62 106.422 95.9165 104.421 94.663C103.732 94.2343 103.095 93.7225 102.485 93.1745C102.347 93.0507 102.21 92.9288 102.077 92.7999C101.499 92.2404 100.956 91.6391 100.464 90.9806C100.386 90.8765 100.319 90.7628 100.244 90.6561C100.02 90.3405 99.7933 90.0275 99.5901 89.6928C99.4187 90.2846 99.2072 90.8625 99.0739 91.467L98.6135 93.5898C98.4033 94.5506 98.1938 95.5069 97.9956 96.4587C96.8673 101.658 95.8595 106.591 94.9959 111.133C94.9857 111.189 94.9737 111.243 94.9591 111.296C91.1548 131.208 89.9318 144.832 90.9922 155.462C91.0392 155.955 91.0932 156.443 91.151 156.927C91.1796 156.901 91.2138 156.88 91.2424 156.854C92.2311 155.978 93.2859 155.151 94.3831 154.357C94.5673 154.223 94.7489 154.089 94.9362 153.957C96.0246 153.197 97.1606 152.478 98.3424 151.8C98.5519 151.68 98.7646 151.564 98.9774 151.447C100.193 150.773 101.445 150.137 102.747 149.554C102.898 149.486 103.055 149.425 103.208 149.359C104.532 148.781 105.891 148.247 107.291 147.765C107.373 147.737 107.451 147.705 107.534 147.677C108.953 147.196 110.416 146.778 111.904 146.4C112.138 146.34 112.368 146.276 112.604 146.22C114.05 145.87 115.525 145.573 117.024 145.323C117.298 145.277 117.573 145.234 117.849 145.191C119.367 144.957 120.905 144.769 122.467 144.639C122.689 144.621 122.913 144.611 123.137 144.594C124.784 144.474 126.453 144.398 128.137 144.398M158.306 96.488C158.306 96.4892 158.305 96.4867 158.306 96.488ZM158.306 96.488L158.455 97.1934C158.836 99.0095 159.214 100.814 159.587 102.668C159.635 102.874 159.683 103.082 159.734 103.36C160.281 105.984 160.798 108.582 161.287 111.137C161.296 111.177 161.306 111.227 161.32 111.278C161.932 114.469 162.448 117.362 162.893 120.079C163.018 120.846 163.14 121.603 163.253 122.341C163.255 122.352 163.258 122.364 163.259 122.374C163.617 124.493 163.916 126.569 164.202 128.597C165.649 139.453 166.005 148.229 165.292 155.422C165.292 155.424 165.29 155.429 165.29 155.431C165.241 155.948 165.188 156.452 165.129 156.94C165.099 156.914 165.064 156.892 165.034 156.865C164.046 155.989 162.992 155.161 161.896 154.368C161.712 154.234 161.529 154.1 161.342 153.969C160.252 153.206 159.114 152.485 157.931 151.806C157.724 151.688 157.515 151.574 157.305 151.457C156.085 150.782 154.829 150.143 153.523 149.558C153.377 149.493 153.226 149.434 153.079 149.369C151.748 148.788 150.38 148.249 148.972 147.765C148.895 147.738 148.821 147.708 148.744 147.682C147.321 147.2 145.854 146.781 144.363 146.401C144.132 146.342 143.904 146.279 143.671 146.223C142.224 145.873 140.748 145.575 139.248 145.324C138.972 145.278 138.696 145.235 138.418 145.192C136.902 144.958 135.367 144.77 133.808 144.64C133.581 144.622 133.352 144.611 133.125 144.594C131.48 144.474 129.819 144.398 128.137 144.398M128.137 144.398C128.137 144.398 128.138 144.398 128.137 144.398ZM91.3491 163.236C87.5931 167.555 85.6087 172.478 85.6087 177.475C85.6087 193.183 104.685 205.963 128.132 205.963C151.58 205.963 170.657 193.183 170.657 177.475C170.657 172.49 168.676 167.57 164.928 163.248C157.296 154.45 143.197 148.984 128.133 148.984C113.073 148.984 98.9761 154.447 91.3491 163.236ZM91.3491 163.236C91.3504 163.235 91.3478 163.237 91.3491 163.236ZM182.38 106.916L163.84 100.32C163.82 100.312 163.8 100.31 163.78 100.303C163.562 99.2362 163.342 98.1669 163.115 97.088C177.545 87.9155 181.843 66.0251 183.929 55.3024L184.098 54.4336C184.2 53.9588 184.25 53.4684 184.25 52.9355C184.25 49.7019 182.192 46.8423 179.114 45.8167C175.729 44.7083 172.04 46.175 170.331 49.3033C167.166 55.1138 160 62.6731 155.924 66.7439C153.414 62.9547 148.844 59.3796 140.573 59.219C140.369 59.1943 140.177 59.1854 139.897 59.1898C135.952 59.2996 131.252 61.718 128.222 64.1701C128.195 64.1947 128.168 64.2194 128.139 64.244C128.09 64.1992 128.028 64.1432 127.945 64.0693C125.144 61.7964 120.332 59.2996 116.323 59.1898C116.091 59.1898 115.915 59.1943 115.925 59.2033C107.499 59.3908 102.903 62.9502 100.39 66.7141C96.5326 62.8819 89.2282 55.2425 85.9954 49.301C84.2911 46.1817 80.5998 44.7217 77.1949 45.8212C74.1412 46.8468 72.0902 49.7064 72.0902 52.9355C72.0902 53.4617 72.1397 53.9499 72.2337 54.3843L72.395 55.2196C74.4689 65.9495 78.7437 87.8583 93.176 97.0664C92.9474 98.1326 92.7226 99.1892 92.5042 100.231C92.3911 100.267 92.2794 100.281 92.1657 100.321L73.632 106.916C67.9398 108.945 64.9331 115.278 66.9264 121.037C68.4523 125.48 72.6109 128.463 77.2775 128.463C78.5202 128.463 79.7451 128.25 80.9084 127.832L87.9201 125.339C86.0773 138.014 85.6157 147.766 86.4272 155.91C86.6006 157.703 86.8647 159.435 87.1803 161.109C83.164 166.066 81.0227 171.697 81.0227 177.475C81.0227 195.712 102.156 210.549 128.132 210.549C154.109 210.549 175.243 195.712 175.243 177.475C175.243 171.713 173.109 166.09 169.103 161.13C169.412 159.514 169.671 157.805 169.855 155.872C170.603 148.321 170.241 139.202 168.745 127.977C168.628 127.139 168.485 126.282 168.361 125.435L175.095 127.829C176.266 128.25 177.491 128.463 178.734 128.463C183.401 128.463 187.559 125.48 189.085 121.037C191.078 115.278 188.072 108.945 182.38 106.916ZM174.356 51.5C175.005 50.3132 176.4 49.7534 177.676 50.1699C178.865 50.5685 179.664 51.6792 179.664 52.9355C179.664 53.1392 179.648 53.3117 179.606 53.5065L179.427 54.4268C177.54 64.1275 173.749 83.607 162.087 92.2912C161.956 91.6937 161.824 91.0955 161.691 90.4974C161.489 89.5461 161.239 88.6298 160.96 87.7389C160.696 86.8715 160.378 86.0143 160.029 85.1646C159.916 84.8916 159.783 84.6268 159.662 84.3563C159.469 83.9226 159.29 83.4844 159.075 83.0583C159.123 82.7739 159.145 82.4741 159.18 82.182C159.205 81.9744 159.236 81.7712 159.255 81.5597C159.313 80.893 159.347 80.2123 159.34 79.5125C159.34 79.5036 159.342 79.4954 159.342 79.4871C159.342 79.4827 159.342 79.4801 159.342 79.4782C159.328 78.6089 159.278 77.7688 159.203 76.9477C159.18 76.688 159.143 76.4397 159.113 76.1845C159.049 75.632 158.976 75.0872 158.883 74.5582C158.832 74.2718 158.775 73.9924 158.716 73.713C158.616 73.2324 158.502 72.7644 158.377 72.3059C158.302 72.0328 158.227 71.7598 158.144 71.4944C158.104 71.3686 158.076 71.2334 158.034 71.1095C162.38 66.8525 170.642 58.3165 174.356 51.5ZM101.686 77.0487C101.909 74.8992 102.366 72.9923 103.064 71.3674C105.177 66.4137 109.419 63.9349 116.028 63.7894C116.099 63.7872 116.189 63.7827 116.26 63.776C118.646 63.8409 122.429 65.4981 124.94 67.5288C125.129 67.7034 125.305 67.8628 125.49 68.0063C125.812 68.306 126.106 68.6019 126.345 68.8883C126.675 69.2846 127.137 69.5443 127.637 69.6471C128.472 69.8599 129.37 69.5735 129.938 68.8883C130.196 68.5816 130.514 68.2616 130.759 68.0304C130.943 67.8831 131.143 67.7148 131.223 67.6342C133.867 65.5 137.651 63.8409 140.024 63.776L140.261 63.7894C146.883 63.926 151.13 66.4163 153.248 71.4118C153.566 72.1573 153.816 72.9771 154.034 73.8305C154.47 75.5361 154.725 77.4335 154.755 79.5411C154.756 79.6205 154.746 79.6935 154.746 79.7722C154.744 80.886 154.643 81.9553 154.41 83.0406C154.34 83.466 154.22 83.8896 154.087 84.3194C153.237 87.1433 151.586 89.4337 149.426 90.7755C148.092 91.6131 146.554 92.083 144.976 92.1706H144.702C142.398 92.1706 140.068 91.1495 138.867 89.6198C138.833 89.5639 138.799 89.5144 138.775 89.4788C138.344 88.8762 138.113 88.2539 138.07 87.5776C137.996 86.3819 137.011 85.4434 135.813 85.4275C135.802 85.4275 135.792 85.4275 135.782 85.4275C134.597 85.4275 133.605 86.3324 133.498 87.5148C133.49 87.6068 133.485 87.6894 133.467 87.7834C133.077 89.9602 131.373 91.7115 129.172 92.1458C129.132 92.1503 128.975 92.1706 128.935 92.1795C128.848 92.1947 128.753 92.2017 128.74 92.2042C128.327 92.2284 127.909 92.2284 127.604 92.2087C127.519 92.1998 127.432 92.1947 127.287 92.168L127.041 92.1414C124.906 91.7115 123.207 89.9582 122.816 87.7834C122.804 87.7186 122.787 87.5776 122.77 87.5148C122.663 86.3305 121.671 85.4275 120.487 85.4275C120.471 85.4275 120.455 85.4275 120.439 85.4275C119.236 85.4523 118.255 86.4042 118.196 87.6088C118.164 88.2653 117.939 88.8718 117.436 89.5639C117.418 89.5906 117.392 89.6357 117.366 89.6846C116.167 91.1762 113.868 92.1706 111.581 92.1706L111.416 92.1725C109.725 92.083 108.191 91.6131 106.85 90.771C104.696 89.4337 103.043 87.1522 102.197 84.3487C102.057 83.8851 101.944 83.4216 101.842 82.9453C101.609 81.8029 101.503 80.665 101.528 79.5563C101.545 78.6845 101.602 77.8526 101.686 77.0487ZM76.8971 54.3485L76.727 53.4684C76.6933 53.3094 76.6762 53.137 76.6762 52.9355C76.6762 51.6792 77.4712 50.5663 78.6332 50.1766C78.931 50.0804 79.2314 50.0333 79.5267 50.0333C80.5281 50.0333 81.4615 50.5685 81.9689 51.4956C85.8049 58.5471 94.4028 67.3053 98.2731 71.0695C98.2306 71.1959 98.2008 71.3343 98.1601 71.4626C98.0807 71.7141 98.0109 71.9738 97.9391 72.2329C97.809 72.7028 97.6908 73.1841 97.5861 73.6775C97.5276 73.9518 97.4711 74.2274 97.421 74.5087C97.3257 75.0421 97.2495 75.5914 97.1835 76.1502C97.153 76.4054 97.1155 76.6544 97.0914 76.9147C97.0139 77.7415 96.9587 78.5873 96.9422 79.4642C96.9276 80.1304 96.9581 80.8054 97.0152 81.4835C97.0323 81.6925 97.0654 81.9033 97.0895 82.1128C97.1257 82.4284 97.1492 82.7427 97.2006 83.0583C97.1524 83.1561 97.1212 83.2622 97.0736 83.3606C96.5713 84.4026 96.1154 85.4682 95.7262 86.5629C95.6817 86.6893 95.6442 86.8182 95.6011 86.9452C95.2048 88.1053 94.8581 89.2864 94.592 90.4955L94.2066 92.269C82.5436 83.5536 78.7748 64.0581 76.8971 54.3485ZM79.3647 123.512C78.6929 123.754 77.9906 123.877 77.2775 123.877C74.5692 123.877 72.153 122.137 71.264 119.548C71.2628 119.546 71.2628 119.544 71.2615 119.542C70.0861 116.149 71.8394 112.425 75.1706 111.238L91.1478 105.553C90.8354 107.1 90.5344 108.636 90.2423 110.159C90.2283 110.21 90.2163 110.264 90.2061 110.318C89.5044 113.968 88.9234 117.246 88.437 120.287L79.3647 123.512ZM184.75 119.542C184.749 119.544 184.749 119.546 184.747 119.548C183.625 122.819 179.897 124.681 176.639 123.51L167.575 120.287C167.53 120.011 167.481 119.722 167.435 119.441C167.392 119.174 167.348 118.905 167.303 118.634C167.205 118.046 167.102 117.445 166.997 116.837C166.948 116.55 166.899 116.265 166.847 115.973C166.734 115.328 166.614 114.665 166.492 113.995C166.445 113.734 166.4 113.48 166.351 113.214C166.177 112.273 165.997 111.312 165.805 110.318C165.798 110.275 165.786 110.226 165.773 110.177C165.478 108.645 165.175 107.098 164.864 105.553L180.841 111.238C184.172 112.425 185.925 116.149 184.75 119.542Z" stroke="white"/>
</g>
</svg>
