<svg width="256" height="256" viewBox="0 0 256 256" fill="none" xmlns="http://www.w3.org/2000/svg">
<g clip-path="url(#clip0_741_46)">
<circle cx="128" cy="128" r="128" fill="#111570"/>
<path d="M256 128C256 57.3075 198.692 0 128 0C57.3075 0 0 57.3075 0 128C0 198.692 57.3075 256 128 256C198.692 256 256 198.692 256 128Z" fill="black"/>
<path d="M65.5593 86.3497C65.5593 81.3151 65.249 76.4433 64.7835 71.4087H87.2805L88.0562 81.6331C90.5774 78.1733 96.7059 69.6787 112.593 69.6787C130.839 69.6787 136.029 80.8419 137.596 84.6198C144.198 71.8819 154.888 69.8183 163.072 69.8183C179.107 69.8183 185.569 79.4145 187.283 82.5563C191.535 89.476 191.216 99.0722 191.216 105.992V149.496H167.789V104.122C167.789 95.589 166.524 86.1946 154.422 86.1946C140.42 86.1946 140.11 99.2428 140.11 111.019V149.489H116.674V103.649C116.674 97.5129 116.519 86.1946 103.618 86.1946C88.9949 86.1946 88.9949 98.7696 88.9949 104.122V149.512H65.5593V86.3497Z" fill="#F4F4F4"/>
<path d="M64.7758 166.974H191.224V186.322H64.7758V166.974Z" fill="#F4F4F4"/>
</g>
<defs>
<clipPath id="clip0_741_46">
<rect width="256" height="256" fill="white"/>
</clipPath>
</defs>
</svg>
