<svg width="2546" height="2546" viewBox="0 0 2546 2546" fill="none" xmlns="http://www.w3.org/2000/svg">
<g clip-path="url(#clip0_27859_78646)">
<circle cx="1273" cy="1273" r="1273" fill="#1E1E1E"/>
<circle cx="1273" cy="1273" r="1273" fill="#D9D9D9"/>
<circle cx="1273" cy="1273" r="1273" fill="url(#paint0_linear_27859_78646)"/>
<circle cx="1273" cy="1273" r="1273" fill="#060606"/>
<circle cx="1273" cy="1273" r="1273" fill="url(#paint1_linear_27859_78646)" fill-opacity="0.4"/>
<circle cx="1273" cy="1273" r="1273" fill="url(#paint2_linear_27859_78646)" fill-opacity="0.2"/>
<mask id="path-2-inside-1_27859_78646" fill="white">
<path d="M2206.74 974.702C2218.59 971.05 2231.17 977.683 2234.56 989.605C2268.35 1108.61 2279.79 1232.91 2268.22 1356.21C2255.95 1486.96 2218.05 1614.01 2156.68 1730.11C2095.31 1846.21 2011.68 1949.08 1910.55 2032.86C1815.18 2111.86 1706.03 2172.42 1588.66 2211.52C1576.9 2215.44 1564.33 2208.78 1560.68 2196.93C1557.03 2185.09 1563.68 2172.56 1575.43 2168.63C1687.17 2131.27 1791.09 2073.54 1881.92 1998.3C1978.51 1918.28 2058.39 1820.03 2117.01 1709.14C2175.62 1598.25 2211.82 1476.9 2223.54 1352.02C2234.56 1234.59 2223.73 1116.2 2191.66 1002.83C2188.29 990.909 2194.9 978.354 2206.74 974.702Z"/>
</mask>
<path d="M2206.74 974.702C2218.59 971.05 2231.17 977.683 2234.56 989.605C2268.35 1108.61 2279.79 1232.91 2268.22 1356.21C2255.95 1486.96 2218.05 1614.01 2156.68 1730.11C2095.31 1846.21 2011.68 1949.08 1910.55 2032.86C1815.18 2111.86 1706.03 2172.42 1588.66 2211.52C1576.9 2215.44 1564.33 2208.78 1560.68 2196.93C1557.03 2185.09 1563.68 2172.56 1575.43 2168.63C1687.17 2131.27 1791.09 2073.54 1881.92 1998.3C1978.51 1918.28 2058.39 1820.03 2117.01 1709.14C2175.62 1598.25 2211.82 1476.9 2223.54 1352.02C2234.56 1234.59 2223.73 1116.2 2191.66 1002.83C2188.29 990.909 2194.9 978.354 2206.74 974.702Z" stroke="white" stroke-width="80" mask="url(#path-2-inside-1_27859_78646)"/>
<mask id="path-3-inside-2_27859_78646" fill="white">
<path d="M666.812 496.766C659.124 487.046 660.756 472.912 670.646 465.443C846.153 332.907 1060.67 261.795 1281.01 263.5C1501.35 265.205 1714.73 339.628 1888.17 474.865C1897.94 482.485 1899.36 496.643 1891.52 506.243C1883.68 515.842 1869.56 517.247 1859.78 509.637C1694.27 380.862 1490.77 310.003 1280.66 308.377C1070.54 306.751 865.977 374.452 698.496 500.651C688.598 508.109 674.5 506.485 666.812 496.766Z"/>
</mask>
<path d="M666.812 496.766C659.124 487.046 660.756 472.912 670.646 465.443C846.153 332.907 1060.67 261.795 1281.01 263.5C1501.35 265.205 1714.73 339.628 1888.17 474.865C1897.94 482.485 1899.36 496.643 1891.52 506.243C1883.68 515.842 1869.56 517.247 1859.78 509.637C1694.27 380.862 1490.77 310.003 1280.66 308.377C1070.54 306.751 865.977 374.452 698.496 500.651C688.598 508.109 674.5 506.485 666.812 496.766Z" stroke="white" stroke-width="80" mask="url(#path-3-inside-2_27859_78646)"/>
<mask id="path-4-inside-3_27859_78646" fill="white">
<path d="M994.925 2200.57C991.396 2212.45 978.896 2219.25 967.098 2215.45C847.203 2176.9 735.604 2116.01 638.212 2035.95C535.04 1951.13 449.903 1846.51 387.827 1728.25C325.751 1609.99 287.994 1480.49 276.784 1347.4C266.203 1221.77 279.479 1095.34 315.84 974.762C319.418 962.897 332.11 956.468 343.892 960.311C355.674 964.154 362.083 976.814 358.517 988.683C324.007 1103.56 311.426 1223.98 321.505 1343.64C332.211 1470.75 368.274 1594.44 427.564 1707.39C486.854 1820.34 568.17 1920.27 666.712 2001.28C759.473 2077.54 865.729 2135.58 979.88 2172.42C991.674 2176.23 998.453 2188.69 994.925 2200.57Z"/>
</mask>
<path d="M994.925 2200.57C991.396 2212.45 978.896 2219.25 967.098 2215.45C847.203 2176.9 735.604 2116.01 638.212 2035.95C535.04 1951.13 449.903 1846.51 387.827 1728.25C325.751 1609.99 287.994 1480.49 276.784 1347.4C266.203 1221.77 279.479 1095.34 315.84 974.762C319.418 962.897 332.11 956.468 343.892 960.311C355.674 964.154 362.083 976.814 358.517 988.683C324.007 1103.56 311.426 1223.98 321.505 1343.64C332.211 1470.75 368.274 1594.44 427.564 1707.39C486.854 1820.34 568.17 1920.27 666.712 2001.28C759.473 2077.54 865.729 2135.58 979.88 2172.42C991.674 2176.23 998.453 2188.69 994.925 2200.57Z" stroke="white" stroke-width="80" mask="url(#path-4-inside-3_27859_78646)"/>
<circle cx="2046.74" cy="728.139" r="190" fill="#1E1E1E" stroke="white" stroke-width="40"/>
<mask id="path-6-outside-4_27859_78646" maskUnits="userSpaceOnUse" x="2001.86" y="663.845" width="91" height="144" fill="black">
<rect fill="white" x="2001.86" y="663.845" width="91" height="144"/>
<path d="M2003.4 746.445V665.845H2079.4V685.845H2023.4V722.245L2040 711.045H2055.4C2075.2 711.045 2091.4 727.045 2091.4 747.045V769.845C2091.4 789.845 2075.4 805.845 2055.4 805.845H2039.4C2019.6 805.845 2003.4 789.845 2003.4 769.845V767.845H2023.4V769.845C2023.4 778.645 2030.6 785.845 2039.4 785.845H2055.4C2064.4 785.845 2071.4 778.845 2071.4 769.845V747.045C2071.4 738.245 2064.2 731.045 2055.4 731.045H2046.2L2023.4 746.445H2003.4Z"/>
</mask>
<path d="M2003.4 746.445V665.845H2079.4V685.845H2023.4V722.245L2040 711.045H2055.4C2075.2 711.045 2091.4 727.045 2091.4 747.045V769.845C2091.4 789.845 2075.4 805.845 2055.4 805.845H2039.4C2019.6 805.845 2003.4 789.845 2003.4 769.845V767.845H2023.4V769.845C2023.4 778.645 2030.6 785.845 2039.4 785.845H2055.4C2064.4 785.845 2071.4 778.845 2071.4 769.845V747.045C2071.4 738.245 2064.2 731.045 2055.4 731.045H2046.2L2023.4 746.445H2003.4Z" fill="white"/>
<path d="M2003.4 746.445H2001.95V747.897H2003.4V746.445ZM2003.4 665.845V664.392H2001.95V665.845H2003.4ZM2079.4 665.845H2080.85V664.392H2079.4V665.845ZM2079.4 685.845V687.297H2080.85V685.845H2079.4ZM2023.4 685.845V684.392H2021.95V685.845H2023.4ZM2023.4 722.245H2021.95V724.977L2024.21 723.449L2023.4 722.245ZM2040 711.045V709.592H2039.55L2039.19 709.841L2040 711.045ZM2003.4 767.845V766.392H2001.95V767.845H2003.4ZM2023.4 767.845H2024.85V766.392H2023.4V767.845ZM2046.2 731.045V729.592H2045.75L2045.39 729.841L2046.2 731.045ZM2023.4 746.445V747.897H2023.84L2024.21 747.648L2023.4 746.445ZM2004.85 746.445V665.845H2001.95V746.445H2004.85ZM2003.4 667.297H2079.4V664.392H2003.4V667.297ZM2077.95 665.845V685.845H2080.85V665.845H2077.95ZM2079.4 684.392H2023.4V687.297H2079.4V684.392ZM2021.95 685.845V722.245H2024.85V685.845H2021.95ZM2024.21 723.449L2040.81 712.249L2039.19 709.841L2022.59 721.041L2024.21 723.449ZM2040 712.497H2055.4V709.592H2040V712.497ZM2055.4 712.497C2074.4 712.497 2089.95 727.852 2089.95 747.045H2092.85C2092.85 726.237 2076 709.592 2055.4 709.592V712.497ZM2089.95 747.045V769.845H2092.85V747.045H2089.95ZM2089.95 769.845C2089.95 789.043 2074.6 804.392 2055.4 804.392V807.297C2076.2 807.297 2092.85 790.647 2092.85 769.845H2089.95ZM2055.4 804.392H2039.4V807.297H2055.4V804.392ZM2039.4 804.392C2020.4 804.392 2004.85 789.037 2004.85 769.845H2001.95C2001.95 790.652 2018.8 807.297 2039.4 807.297V804.392ZM2004.85 769.845V767.845H2001.95V769.845H2004.85ZM2003.4 769.297H2023.4V766.392H2003.4V769.297ZM2021.95 767.845V769.845H2024.85V767.845H2021.95ZM2021.95 769.845C2021.95 779.447 2029.8 787.297 2039.4 787.297V784.392C2031.4 784.392 2024.85 777.843 2024.85 769.845H2021.95ZM2039.4 787.297H2055.4V784.392H2039.4V787.297ZM2055.4 787.297C2065.2 787.297 2072.85 779.647 2072.85 769.845H2069.95C2069.95 778.043 2063.6 784.392 2055.4 784.392V787.297ZM2072.85 769.845V747.045H2069.95V769.845H2072.85ZM2072.85 747.045C2072.85 737.443 2065 729.592 2055.4 729.592V732.497C2063.4 732.497 2069.95 739.047 2069.95 747.045H2072.85ZM2055.4 729.592H2046.2V732.497H2055.4V729.592ZM2045.39 729.841L2022.59 745.241L2024.21 747.648L2047.01 732.248L2045.39 729.841ZM2023.4 744.992H2003.4V747.897H2023.4V744.992Z" fill="white" mask="url(#path-6-outside-4_27859_78646)"/>
<circle cx="1276.49" cy="2247.24" r="202.967" fill="#1E1E1E" stroke="white" stroke-width="40"/>
<mask id="path-9-outside-5_27859_78646" maskUnits="userSpaceOnUse" x="1170.92" y="2182.1" width="216" height="144" fill="black">
<rect fill="white" x="1170.92" y="2182.1" width="216" height="144"/>
<path d="M1193.23 2288.1C1193.23 2296.9 1200.43 2304.1 1209.23 2304.1H1225.23C1234.23 2304.1 1241.23 2297.1 1241.23 2288.1V2271.3C1241.23 2262.5 1234.03 2255.3 1225.23 2255.3H1216.03L1193.23 2270.7V2288.1ZM1173.23 2288.1V2220.1C1173.23 2200.1 1189.23 2184.1 1209.23 2184.1H1225.23C1245.23 2184.1 1261.23 2200.1 1261.23 2220.1V2226.1H1241.23V2220.1C1241.23 2211.1 1234.23 2204.1 1225.23 2204.1H1209.23C1200.23 2204.1 1193.23 2211.1 1193.23 2220.1V2246.5L1209.83 2235.3H1225.23C1245.03 2235.3 1261.23 2251.3 1261.23 2271.3V2288.1C1261.23 2308.1 1245.23 2324.1 1225.23 2324.1H1209.23C1189.43 2324.1 1173.23 2308.1 1173.23 2288.1ZM1289.15 2222.1H1309.15V2233.7L1321.15 2222.1H1322.75C1333.35 2222.1 1340.75 2226.7 1344.55 2236.3L1359.15 2222.1H1360.75C1376.55 2222.1 1385.15 2232.1 1385.15 2254.1V2324.1H1365.15V2254.1C1365.15 2250.3 1365.15 2247.1 1364.75 2244.9L1347.15 2261.7V2324.1H1327.15V2254.1C1327.15 2250.3 1327.15 2247.1 1326.75 2244.9L1309.15 2261.7V2324.1H1289.15V2222.1ZM1320.55 2238.9H1321.75H1320.55ZM1358.55 2238.9H1359.75H1358.55Z"/>
</mask>
<path d="M1193.23 2288.1C1193.23 2296.9 1200.43 2304.1 1209.23 2304.1H1225.23C1234.23 2304.1 1241.23 2297.1 1241.23 2288.1V2271.3C1241.23 2262.5 1234.03 2255.3 1225.23 2255.3H1216.03L1193.23 2270.7V2288.1ZM1173.23 2288.1V2220.1C1173.23 2200.1 1189.23 2184.1 1209.23 2184.1H1225.23C1245.23 2184.1 1261.23 2200.1 1261.23 2220.1V2226.1H1241.23V2220.1C1241.23 2211.1 1234.23 2204.1 1225.23 2204.1H1209.23C1200.23 2204.1 1193.23 2211.1 1193.23 2220.1V2246.5L1209.83 2235.3H1225.23C1245.03 2235.3 1261.23 2251.3 1261.23 2271.3V2288.1C1261.23 2308.1 1245.23 2324.1 1225.23 2324.1H1209.23C1189.43 2324.1 1173.23 2308.1 1173.23 2288.1ZM1289.15 2222.1H1309.15V2233.7L1321.15 2222.1H1322.75C1333.35 2222.1 1340.75 2226.7 1344.55 2236.3L1359.15 2222.1H1360.75C1376.55 2222.1 1385.15 2232.1 1385.15 2254.1V2324.1H1365.15V2254.1C1365.15 2250.3 1365.15 2247.1 1364.75 2244.9L1347.15 2261.7V2324.1H1327.15V2254.1C1327.15 2250.3 1327.15 2247.1 1326.75 2244.9L1309.15 2261.7V2324.1H1289.15V2222.1ZM1320.55 2238.9H1321.75H1320.55ZM1358.55 2238.9H1359.75H1358.55Z" fill="white"/>
<path d="M1216.03 2255.3V2253.85H1215.58L1215.21 2254.09L1216.03 2255.3ZM1193.23 2270.7L1192.41 2269.49L1191.77 2269.93V2270.7H1193.23ZM1261.23 2226.1V2227.55H1262.68V2226.1H1261.23ZM1241.23 2226.1H1239.77V2227.55H1241.23V2226.1ZM1193.23 2246.5H1191.77V2249.23L1194.04 2247.7L1193.23 2246.5ZM1209.83 2235.3V2233.85H1209.38L1209.01 2234.09L1209.83 2235.3ZM1191.77 2288.1C1191.77 2297.7 1199.62 2305.55 1209.23 2305.55V2302.65C1201.23 2302.65 1194.68 2296.1 1194.68 2288.1H1191.77ZM1209.23 2305.55H1225.23V2302.65H1209.23V2305.55ZM1225.23 2305.55C1235.03 2305.55 1242.68 2297.9 1242.68 2288.1H1239.77C1239.77 2296.3 1233.42 2302.65 1225.23 2302.65V2305.55ZM1242.68 2288.1V2271.3H1239.77V2288.1H1242.68ZM1242.68 2271.3C1242.68 2261.7 1234.83 2253.85 1225.23 2253.85V2256.75C1233.22 2256.75 1239.77 2263.3 1239.77 2271.3H1242.68ZM1225.23 2253.85H1216.03V2256.75H1225.23V2253.85ZM1215.21 2254.09L1192.41 2269.49L1194.04 2271.9L1216.84 2256.5L1215.21 2254.09ZM1191.77 2270.7V2288.1H1194.68V2270.7H1191.77ZM1174.68 2288.1V2220.1H1171.77V2288.1H1174.68ZM1174.68 2220.1C1174.68 2200.9 1190.03 2185.55 1209.23 2185.55V2182.65C1188.42 2182.65 1171.77 2199.3 1171.77 2220.1H1174.68ZM1209.23 2185.55H1225.23V2182.65H1209.23V2185.55ZM1225.23 2185.55C1244.42 2185.55 1259.77 2200.9 1259.77 2220.1H1262.68C1262.68 2199.3 1246.03 2182.65 1225.23 2182.65V2185.55ZM1259.77 2220.1V2226.1H1262.68V2220.1H1259.77ZM1261.23 2224.65H1241.23V2227.55H1261.23V2224.65ZM1242.68 2226.1V2220.1H1239.77V2226.1H1242.68ZM1242.68 2220.1C1242.68 2210.3 1235.03 2202.65 1225.23 2202.65V2205.55C1233.42 2205.55 1239.77 2211.9 1239.77 2220.1H1242.68ZM1225.23 2202.65H1209.23V2205.55H1225.23V2202.65ZM1209.23 2202.65C1199.42 2202.65 1191.77 2210.3 1191.77 2220.1H1194.68C1194.68 2211.9 1201.03 2205.55 1209.23 2205.55V2202.65ZM1191.77 2220.1V2246.5H1194.68V2220.1H1191.77ZM1194.04 2247.7L1210.64 2236.5L1209.01 2234.09L1192.41 2245.29L1194.04 2247.7ZM1209.83 2236.75H1225.23V2233.85H1209.83V2236.75ZM1225.23 2236.75C1244.23 2236.75 1259.77 2252.11 1259.77 2271.3H1262.68C1262.68 2250.49 1245.82 2233.85 1225.23 2233.85V2236.75ZM1259.77 2271.3V2288.1H1262.68V2271.3H1259.77ZM1259.77 2288.1C1259.77 2307.3 1244.42 2322.65 1225.23 2322.65V2325.55C1246.03 2325.55 1262.68 2308.9 1262.68 2288.1H1259.77ZM1225.23 2322.65H1209.23V2325.55H1225.23V2322.65ZM1209.23 2322.65C1190.22 2322.65 1174.68 2307.29 1174.68 2288.1H1171.77C1171.77 2308.91 1188.63 2325.55 1209.23 2325.55V2322.65ZM1289.15 2222.1V2220.65H1287.69V2222.1H1289.15ZM1309.15 2222.1H1310.6V2220.65H1309.15V2222.1ZM1309.15 2233.7H1307.69V2237.12L1310.16 2234.74L1309.15 2233.7ZM1321.15 2222.1V2220.65H1320.56L1320.14 2221.05L1321.15 2222.1ZM1344.55 2236.3L1343.2 2236.83L1344 2238.86L1345.56 2237.34L1344.55 2236.3ZM1359.15 2222.1V2220.65H1358.56L1358.13 2221.06L1359.15 2222.1ZM1385.15 2324.1V2325.55H1386.6V2324.1H1385.15ZM1365.15 2324.1H1363.69V2325.55H1365.15V2324.1ZM1364.75 2244.9L1366.18 2244.64L1365.69 2241.99L1363.74 2243.85L1364.75 2244.9ZM1347.15 2261.7L1346.14 2260.65L1345.69 2261.08V2261.7H1347.15ZM1347.15 2324.1V2325.55H1348.6V2324.1H1347.15ZM1327.15 2324.1H1325.69V2325.55H1327.15V2324.1ZM1326.75 2244.9L1328.18 2244.64L1327.69 2241.99L1325.74 2243.85L1326.75 2244.9ZM1309.15 2261.7L1308.14 2260.65L1307.69 2261.08V2261.7H1309.15ZM1309.15 2324.1V2325.55H1310.6V2324.1H1309.15ZM1289.15 2324.1H1287.69V2325.55H1289.15V2324.1ZM1289.15 2223.55H1309.15V2220.65H1289.15V2223.55ZM1307.69 2222.1V2233.7H1310.6V2222.1H1307.69ZM1310.16 2234.74L1322.16 2223.14L1320.14 2221.05L1308.14 2232.65L1310.16 2234.74ZM1321.15 2223.55H1322.75V2220.65H1321.15V2223.55ZM1322.75 2223.55C1327.84 2223.55 1332.05 2224.65 1335.41 2226.82C1338.77 2228.98 1341.39 2232.27 1343.2 2236.83L1345.9 2235.76C1343.9 2230.73 1340.93 2226.92 1336.98 2224.38C1333.05 2221.84 1328.26 2220.65 1322.75 2220.65V2223.55ZM1345.56 2237.34L1360.16 2223.14L1358.13 2221.06L1343.53 2235.26L1345.56 2237.34ZM1359.15 2223.55H1360.75V2220.65H1359.15V2223.55ZM1360.75 2223.55C1368.32 2223.55 1373.95 2225.93 1377.73 2230.75C1381.57 2235.63 1383.69 2243.25 1383.69 2254.1H1386.6C1386.6 2242.95 1384.43 2234.57 1380.01 2228.95C1375.55 2223.27 1368.97 2220.65 1360.75 2220.65V2223.55ZM1383.69 2254.1V2324.1H1386.6V2254.1H1383.69ZM1385.15 2322.65H1365.15V2325.55H1385.15V2322.65ZM1366.6 2324.1V2254.1H1363.69V2324.1H1366.6ZM1366.6 2254.1C1366.6 2250.36 1366.61 2247 1366.18 2244.64L1363.32 2245.16C1363.69 2247.2 1363.69 2250.24 1363.69 2254.1H1366.6ZM1363.74 2243.85L1346.14 2260.65L1348.15 2262.75L1365.75 2245.95L1363.74 2243.85ZM1345.69 2261.7V2324.1H1348.6V2261.7H1345.69ZM1347.15 2322.65H1327.15V2325.55H1347.15V2322.65ZM1328.6 2324.1V2254.1H1325.69V2324.1H1328.6ZM1328.6 2254.1C1328.6 2250.36 1328.61 2247 1328.18 2244.64L1325.32 2245.16C1325.69 2247.2 1325.69 2250.24 1325.69 2254.1H1328.6ZM1325.74 2243.85L1308.14 2260.65L1310.15 2262.75L1327.75 2245.95L1325.74 2243.85ZM1307.69 2261.7V2324.1H1310.6V2261.7H1307.69ZM1309.15 2322.65H1289.15V2325.55H1309.15V2322.65ZM1290.6 2324.1V2222.1H1287.69V2324.1H1290.6ZM1320.55 2240.35H1321.75V2237.45H1320.55V2240.35ZM1321.75 2237.45H1320.55V2240.35H1321.75V2237.45ZM1358.55 2240.35H1359.75V2237.45H1358.55V2240.35ZM1359.75 2237.45H1358.55V2240.35H1359.75V2237.45Z" fill="white" mask="url(#path-9-outside-5_27859_78646)"/>
<circle cx="492.487" cy="705.359" r="202.967" fill="#1E1E1E" stroke="white" stroke-width="40"/>
<g clip-path="url(#clip1_27859_78646)">
<mask id="mask0_27859_78646" style="mask-type:luminance" maskUnits="userSpaceOnUse" x="359" y="576" width="283" height="236">
<path d="M642 576H359V811.393H642V576Z" fill="white"/>
</mask>
<g mask="url(#mask0_27859_78646)">
<path d="M640.869 714.574C640.324 709.989 636.709 693.416 621.587 681.092C615.685 676.225 607.975 671.872 597.953 668.859C594.716 651.551 587.251 635.306 576.219 621.56C554.652 594.453 520.248 576.683 481.401 576.064L481.311 576V576.064C479.929 576.064 478.547 576.064 477.165 576.064V576L477.1 576.064C444.053 576.644 412.464 589.83 390.109 612.443C369.653 633.137 358.611 659.871 358.998 687.737C359.269 705.122 359.592 710.453 361.736 745.299C362.188 752.601 362.717 761.19 363.337 771.466C363.417 773.114 363.895 774.718 364.732 776.141C378.254 798.225 449.644 800.994 484.526 800.994C495.303 800.994 502.981 800.762 504.292 800.698C507.275 801.953 529.016 811 539.161 811.386C540.633 811.437 542.103 811.245 543.513 810.819L563.763 804.677C564.498 804.453 565.136 803.991 565.576 803.363C566.016 802.735 566.233 801.978 566.191 801.213L565.48 787.099C565.445 786.309 565.71 785.535 566.222 784.931C566.735 784.327 567.457 783.938 568.244 783.841C594.525 780.686 611.004 788.065 616.983 790.486C617.425 790.663 617.898 790.746 618.374 790.731C618.85 790.715 619.317 790.601 619.747 790.396L638.989 781.214C639.547 780.945 640.02 780.532 640.359 780.018C640.7 779.503 640.896 778.907 640.927 778.291C641.435 768.839 643.115 732.216 640.869 714.574ZM610.048 722.159C605.011 720.781 595.752 718.939 582.095 718.791C585.751 716.228 589.948 714.536 594.363 713.846C599.529 713.318 603.61 714.67 606.916 717.954C608.157 719.215 609.229 720.63 610.106 722.165L610.048 722.159ZM607.032 679.309L599.8 709.764C597.823 709.446 595.812 709.394 593.821 709.61H593.705C590.631 710.106 587.639 711.011 584.807 712.301L574.023 688.677C579.32 684.621 585.348 681.613 591.78 679.818C596.749 678.433 601.977 678.248 607.032 679.277V679.309ZM424.1 712.211C406.019 710.344 391.065 707.948 380.255 705.927C380.087 700.183 379.855 681.653 383.148 666.187C393.48 668.028 407.944 670.256 425.288 672.046C423.79 691.407 423.945 706.332 424.1 712.179V712.211ZM402.855 664.474C405.051 645.287 411.896 635.809 414.169 633.118C423.17 634.611 433.837 636.054 445.886 637.045C442.554 647.296 441.896 662.581 441.78 668.724C427.07 667.558 413.884 666.013 402.855 664.442V664.474ZM430.673 630.639C432.068 626.209 436.265 614.89 445.809 602.514C456.344 604.009 466.964 604.831 477.604 604.974V633.614C461.915 633.544 446.244 632.551 430.673 630.639ZM446.687 669.052C446.816 663.064 447.488 646.89 450.949 637.399C459.782 638.043 469.287 638.391 479.36 638.391C489.821 638.391 500.876 637.992 512.434 637.039C516.657 646.89 516.154 663.734 515.831 669.567C492.795 670.836 469.702 670.664 446.687 669.052ZM517.393 602.399C523.933 610.719 529.02 620.079 532.439 630.085C515.887 632.304 499.212 633.482 482.512 633.614V604.974C494.185 604.922 505.84 604.061 517.393 602.399ZM517.535 636.601C528.849 635.532 540.626 633.923 552.727 631.656C558.44 641.786 562.643 652.692 565.202 664.03C550.49 666.533 535.657 668.278 520.764 669.258C521.113 662.923 521.449 647.238 517.535 636.588V636.601ZM483.493 675.233H485.998C504.074 675.259 522.138 674.305 540.11 672.374C539.128 672.928 538.173 673.495 537.217 674.1C523.786 682.728 513.803 696.507 507.591 714.703C499.365 715.076 491.306 715.256 483.493 715.269V675.233ZM536.933 679.457L567.501 688.677C555.878 699.134 547.678 713.788 542.77 728.249L510.277 720.433C514.965 704.388 523.128 689.373 536.933 679.419V679.457ZM570.549 691.549L580.997 714.381C573.674 719.004 568.896 726.202 565.809 733.993L546.955 729.537C551.5 716.016 559.081 701.658 570.549 691.51V691.549ZM600.95 674.396C597.46 674.363 593.983 674.814 590.618 675.736C583.654 677.688 577.14 680.978 571.44 685.419L541.608 676.405C550.997 670.958 562.038 668.434 573.674 669.091C584.523 669.696 593.498 671.615 600.95 674.358V674.396ZM592.749 667.43C589.273 666.618 585.755 665.995 582.211 665.562C585.439 664.867 588.629 664.146 591.819 663.36C592.194 664.738 592.491 666.09 592.749 667.43ZM590.541 658.737C583.709 660.411 576.869 661.875 570.02 663.129C567.508 651.787 563.399 640.858 557.816 630.664C563.252 629.583 568.793 628.334 574.333 626.969C581.549 636.55 587.041 647.308 590.566 658.763L590.541 658.737ZM571.053 622.809C559.546 625.591 548.285 627.728 537.359 629.338C535.977 624.831 532.013 613.885 522.869 601.484C528.896 600.467 535.073 599.179 541.401 597.621C552.679 604.254 562.72 612.785 571.079 622.835L571.053 622.809ZM477.953 582.812C478.35 582.601 478.794 582.49 479.244 582.49C479.695 582.49 480.138 582.601 480.536 582.812C491.539 588.762 497.919 594.672 501.56 599.372C486.777 600.598 471.913 600.495 457.148 599.063C460.854 594.402 467.182 588.62 477.953 582.812ZM469.907 581.202C469.968 581.199 470.028 581.216 470.078 581.25C470.128 581.285 470.164 581.335 470.182 581.393C470.2 581.451 470.198 581.513 470.176 581.57C470.154 581.626 470.114 581.674 470.062 581.705C461.836 586.804 455.611 592.419 451.517 598.445C442.449 597.381 433.459 595.734 424.603 593.513C438.772 586.549 454.154 582.369 469.907 581.202ZM393.531 615.804C400.921 608.355 409.304 601.955 418.443 596.784C425.618 598.868 432.916 600.502 440.294 601.678C430.776 614.645 426.889 626.003 425.727 630.008C412.826 628.316 400.046 625.813 387.462 622.513C389.386 620.208 391.388 617.968 393.531 615.804ZM363.828 687.66C363.713 679.312 364.681 670.984 366.708 662.884C368.451 663.283 372.442 664.172 378.331 665.266C375.102 680.513 375.167 698.052 375.335 704.954C370.35 703.95 366.592 703.113 364.19 702.546C363.996 697.898 363.906 693.455 363.815 687.66H363.828ZM364.396 707.762C369.394 708.908 378.37 710.814 390.509 712.797V748.326C377.311 745.145 369.265 742.054 366.282 740.831C365.287 724.567 364.719 715.282 364.383 707.762H364.396ZM419.244 758.692V792.456C406.717 790.795 394.978 788.4 385.796 785.013L385.111 752.06L386.932 752.523L388.101 752.813C388.617 752.942 389.134 753.071 389.67 753.193C390.206 753.315 390.735 753.451 391.284 753.573L393.221 754.011L394.687 754.333L397.218 754.874C398.161 755.073 399.156 755.266 400.105 755.46C402.533 755.945 405.081 756.415 407.75 756.87C409.902 757.235 412.141 757.593 414.466 757.945C416.164 758.196 417.907 758.447 419.696 758.685L419.244 758.692ZM406.497 751.673L405.019 751.403L403.553 751.133L402.126 750.856L400.731 750.579L399.356 750.302L396.773 749.761L395.384 749.459V713.569C407.808 715.501 423.034 717.381 440.365 718.669V755.962C433.418 755.421 427.089 754.738 421.407 753.991C416.06 753.29 411.076 752.504 406.484 751.673H406.497ZM477.617 796.101C462.494 795.933 442.748 795.225 424.151 793.049V759.245C441.497 761.293 458.95 762.29 476.416 762.233H477.617V796.101ZM482.524 796.101V762.169C488.194 762.104 494.096 761.937 500.23 761.667C500.042 773.11 500.72 784.552 502.258 795.894C499.546 796.023 492.327 796.204 482.512 796.152L482.524 796.101ZM500.837 748.969C500.631 751.596 500.476 754.197 500.372 756.747C482.022 757.624 463.637 757.465 445.305 756.271V719.017C457.044 719.776 469.675 720.227 482.976 720.227C490.441 720.227 498.138 720.072 505.99 719.738C503.294 729.303 501.564 739.112 500.824 749.021L500.837 748.969ZM537.217 757.765C537.178 760.095 537.139 763.34 537.127 767.075L504.647 758.344C504.966 746.954 506.481 735.629 509.167 724.554L541.453 732.319C538.914 740.576 537.49 749.133 537.217 757.765ZM542.383 806.699C542.383 800.955 541.337 784.421 541.375 771.556L560.398 770.449C560.45 771.157 560.515 773.539 560.515 773.578L561.909 800.801L542.383 806.699ZM560.321 766.302L541.414 767.448C541.414 763.212 541.479 760.366 541.517 757.79C541.634 751.661 542.925 742.981 545.702 733.581L564.337 738.049C561.473 747.198 560.104 756.746 560.282 766.328L560.321 766.302ZM582.844 778.729C581.978 778.729 581.087 778.729 580.196 778.729C575.156 778.726 570.124 779.135 565.151 779.952L564.815 773.269C564.815 773.237 564.815 773.044 564.776 772.715C564.773 772.657 564.773 772.599 564.776 772.541C564.776 772.477 564.776 772.413 564.776 772.342C564.78 772.316 564.78 772.29 564.776 772.264C564.776 772.207 564.776 772.142 564.776 772.071C564.776 771.807 564.738 771.505 564.725 771.163C564.712 770.822 564.725 770.52 564.686 770.178C564.686 770.024 564.686 769.857 564.686 769.683C564.686 768.736 564.641 767.616 564.647 766.367C564.647 766.032 564.647 765.684 564.647 765.33C564.647 765.105 564.647 764.873 564.647 764.641C564.647 764.042 564.647 763.418 564.699 762.774C564.699 762.452 564.712 762.124 564.738 761.789C564.738 761.454 564.738 761.145 564.789 760.778C564.841 760.411 564.822 760.089 564.848 759.735C564.873 759.381 564.893 759.027 564.918 758.666C564.944 758.305 564.97 757.945 565.003 757.578L565.06 756.934C565.06 756.625 565.119 756.29 565.151 755.994C565.151 755.775 565.196 755.55 565.215 755.35C565.254 754.97 565.3 754.59 565.345 754.21L565.442 753.419C565.474 753.148 565.506 752.878 565.545 752.607C565.584 752.337 565.616 752.105 565.654 751.854C565.706 751.461 565.764 751.062 565.835 750.656C565.907 750.251 565.977 749.742 566.062 749.285C566.119 748.924 566.184 748.564 566.249 748.203C571.803 748.104 577.358 748.345 582.882 748.924L582.844 778.729ZM615.969 756.67C615.872 759.419 615.711 761.248 615.679 761.615C615.676 761.628 615.676 761.641 615.679 761.654L614.503 784.704C605.687 781.53 596.474 779.58 587.125 778.909V749.407C604.559 751.777 615.808 756.632 615.963 756.709V756.67H615.969ZM567.133 743.87C568.967 736.324 572.092 728.752 577.297 723.008C598.49 722.609 610.229 726.498 612.527 727.348C613.25 729.385 613.837 731.467 614.284 733.581C615.489 739.692 616.062 745.91 615.995 752.137C610.545 750.012 592.013 743.638 567.095 743.896L567.133 743.87ZM636.749 777.544L618.707 786.159L619.934 761.975C619.972 761.667 620.153 759.657 620.27 756.619L637.703 748.313C637.46 761.435 636.905 773.707 636.709 777.57L636.749 777.544ZM637.73 743.561L620.334 751.867C620.334 744.552 619.598 734.547 616.576 726.112L635.365 709.281C635.937 711.197 636.368 713.151 636.659 715.128C637.563 721.914 637.783 732.744 637.69 743.587L637.73 743.561Z" fill="#00142D"/>
<path d="M592.749 667.429C589.273 666.618 585.755 665.994 582.211 665.562C585.44 664.867 588.629 664.146 591.819 663.36C592.194 664.738 592.491 666.09 592.749 667.429Z" fill="#F5FDFF"/>
<path d="M637.655 748.339C637.462 761.461 636.906 773.707 636.713 777.57L618.672 786.185L619.899 762.002C619.937 761.693 620.118 759.684 620.234 756.645L637.655 748.339Z" fill="#F5FDFF"/>
<path d="M637.697 743.587L620.301 751.893C620.301 744.578 619.565 734.572 616.543 726.138L635.372 709.281C635.94 711.197 636.374 713.151 636.662 715.127C637.567 721.914 637.786 732.744 637.697 743.587Z" fill="#F5FDFF"/>
<path d="M610.065 722.159C605.028 720.781 595.756 718.94 582.066 718.785C585.722 716.222 589.92 714.531 594.335 713.841C599.501 713.313 603.582 714.665 606.888 717.949C608.124 719.21 609.192 720.626 610.065 722.159Z" fill="#F5FDFF"/>
<path d="M615.993 752.139C610.543 750.014 592.011 743.639 567.086 743.897C568.92 736.351 572.045 728.779 577.25 723.036C598.442 722.636 610.181 726.525 612.48 727.375C615.347 735.295 615.993 745.056 615.993 752.139Z" fill="#F5FDFF"/>
<path d="M582.81 748.893V778.755C581.945 778.755 581.054 778.755 580.162 778.755C575.122 778.752 570.09 779.161 565.117 779.979L564.782 773.269C564.225 764.887 564.693 756.467 566.176 748.197C571.73 748.09 577.285 748.322 582.81 748.893Z" fill="#F5FDFF"/>
<path d="M615.929 756.669C615.825 759.669 615.645 761.575 615.632 761.678L614.457 784.755C605.64 781.581 596.427 779.631 587.078 778.96V749.406C604.513 751.776 615.761 756.63 615.916 756.708L615.929 756.669Z" fill="#F5FDFF"/>
<path d="M561.913 800.775L542.348 806.724C542.348 800.981 541.302 784.446 541.341 771.582L560.402 770.448C560.454 771.157 560.519 773.539 560.519 773.578L561.913 800.775Z" fill="#F5FDFF"/>
<path d="M560.29 766.329L541.383 767.475C541.383 763.239 541.447 760.392 541.486 757.817C541.602 751.687 542.894 743.008 545.67 733.607L564.345 738.05C561.481 747.199 560.112 756.747 560.29 766.329Z" fill="#F5FDFF"/>
<path d="M581.003 714.342C573.681 718.965 568.902 726.164 565.816 733.955L546.961 729.499C551.481 716.016 559.088 701.658 570.555 691.511L581.003 714.342Z" fill="#F5FDFF"/>
<path d="M607.04 679.278L599.808 709.733C597.831 709.415 595.82 709.363 593.829 709.579H593.713C590.639 710.075 587.647 710.98 584.815 712.27L574.031 688.679C579.329 684.622 585.356 681.614 591.789 679.819C596.757 678.435 601.986 678.249 607.04 679.278Z" fill="#F5FDFF"/>
<path d="M600.951 674.357C597.462 674.324 593.984 674.774 590.619 675.696C583.653 677.661 577.138 680.963 571.442 685.419L541.609 676.405C550.998 670.957 562.04 668.434 573.676 669.09C584.524 669.695 593.499 671.614 600.951 674.357Z" fill="#F5FDFF"/>
<path d="M567.509 688.677C555.886 699.133 547.685 713.788 542.778 728.249L510.285 720.432C514.973 704.387 523.135 689.372 536.941 679.418L567.509 688.677Z" fill="#F5FDFF"/>
<path d="M541.468 732.32C538.925 740.576 537.496 749.133 537.219 757.765C537.18 760.096 537.141 763.342 537.128 767.076L504.648 758.345C504.968 746.955 506.483 735.63 509.169 724.555L541.468 732.32Z" fill="#F5FDFF"/>
<path d="M502.245 795.947C499.546 796.024 492.327 796.204 482.512 796.153V762.221C488.181 762.156 494.083 761.989 500.217 761.719C500.029 773.163 500.707 784.604 502.245 795.947Z" fill="#F5FDFF"/>
<path d="M419.657 758.692H419.23V792.457C406.704 790.796 394.964 788.401 385.782 785.014L385.098 752.061C396.473 754.961 408.014 757.176 419.657 758.692Z" fill="#F5FDFF"/>
<path d="M477.602 762.248V796.129C462.48 795.961 442.734 795.253 424.137 793.077V759.273C441.482 761.321 458.935 762.318 476.401 762.261L477.602 762.248Z" fill="#F5FDFF"/>
<path d="M505.987 719.764C503.293 729.32 501.562 739.122 500.821 749.021C500.615 751.648 500.46 754.249 500.356 756.799C482.006 757.675 463.621 757.516 445.289 756.323V719.017C457.041 719.776 469.671 720.227 482.973 720.227C490.438 720.227 498.135 720.098 505.987 719.764Z" fill="#F5FDFF"/>
<path d="M440.356 718.669V755.962C433.408 755.421 427.08 754.738 421.398 753.992C411.376 752.704 402.711 751.081 395.375 749.484V713.569C407.825 715.488 423.051 717.381 440.356 718.669Z" fill="#F5FDFF"/>
<path d="M390.496 712.798V748.327C377.31 745.146 369.264 742.056 366.281 740.833C365.287 724.581 364.719 715.297 364.383 707.776C369.381 708.909 378.369 710.815 390.496 712.798Z" fill="#F5FDFF"/>
<path d="M375.308 704.955C370.323 703.951 366.565 703.114 364.163 702.547C363.995 697.898 363.904 693.456 363.814 687.661C363.699 679.313 364.667 670.985 366.694 662.885C368.437 663.284 372.428 664.173 378.317 665.267C375.088 680.514 375.14 698.053 375.308 704.955Z" fill="#F5FDFF"/>
<path d="M424.095 712.179C406.015 710.312 391.06 707.917 380.25 705.895C380.083 700.152 379.85 681.621 383.143 666.155C393.475 667.997 407.939 670.225 425.283 672.014C423.785 691.408 423.94 706.333 424.095 712.179Z" fill="#F5FDFF"/>
<path d="M540.109 672.336C539.128 672.89 538.172 673.456 537.216 674.062C523.785 682.69 513.802 696.468 507.591 714.664C499.364 715.037 491.305 715.218 483.492 715.231V675.195H485.998C504.073 675.221 522.137 674.266 540.109 672.336Z" fill="#F5FDFF"/>
<path d="M590.571 658.764C583.739 660.438 576.899 661.902 570.05 663.155C567.533 651.804 563.416 640.865 557.82 630.666C563.257 629.584 568.798 628.335 574.338 626.97C581.553 636.551 587.046 647.309 590.571 658.764Z" fill="#F5FDFF"/>
<path d="M571.082 622.836C559.575 625.617 548.314 627.755 537.388 629.364C536.006 624.857 532.042 613.912 522.898 601.511C528.925 600.493 535.102 599.206 541.43 597.647C552.697 604.275 562.729 612.797 571.082 622.836Z" fill="#F5FDFF"/>
<path d="M470.064 581.705C461.838 586.804 455.613 592.419 451.519 598.445C442.451 597.381 433.461 595.734 424.605 593.513C438.775 586.549 454.155 582.369 469.909 581.203C469.97 581.199 470.03 581.216 470.08 581.25C470.13 581.285 470.167 581.335 470.184 581.393C470.202 581.451 470.2 581.513 470.178 581.57C470.157 581.626 470.116 581.674 470.064 581.705Z" fill="#F5FDFF"/>
<path d="M501.561 599.373C486.777 600.6 471.913 600.496 457.148 599.064C460.842 594.403 467.17 588.621 477.94 582.813C478.338 582.602 478.782 582.491 479.232 582.491C479.682 582.491 480.126 582.602 480.523 582.813C491.54 588.763 497.919 594.673 501.561 599.373Z" fill="#F5FDFF"/>
<path d="M477.599 604.972V633.612C461.91 633.542 446.239 632.549 430.668 630.637C432.063 626.207 436.26 614.888 445.803 602.513C456.339 604.007 466.959 604.829 477.599 604.972Z" fill="#F5FDFF"/>
<path d="M440.294 601.678C430.776 614.645 426.889 626.003 425.727 630.008C412.826 628.316 400.045 625.813 387.461 622.513C389.398 620.208 391.387 617.967 393.531 615.804C400.921 608.355 409.303 601.955 418.443 596.784C425.617 598.868 432.915 600.502 440.294 601.678Z" fill="#F5FDFF"/>
<path d="M445.886 637.014C442.555 647.264 441.896 662.549 441.78 668.692C427.07 667.559 413.91 666.013 402.855 664.442C405.051 645.255 411.896 635.777 414.169 633.086C423.17 634.593 433.837 636.022 445.886 637.014Z" fill="#F5FDFF"/>
<path d="M515.827 669.567C492.791 670.836 469.698 670.664 446.684 669.052C446.813 663.064 447.484 646.89 450.946 637.4C459.779 638.044 469.284 638.391 479.357 638.391C489.818 638.391 500.873 637.992 512.431 637.039C516.654 646.89 516.15 663.734 515.827 669.567Z" fill="#F5FDFF"/>
<path d="M520.764 669.245C521.113 662.896 521.448 647.237 517.535 636.587C528.848 635.519 540.626 633.909 552.727 631.643C558.44 641.772 562.643 652.678 565.202 664.016C550.49 666.519 535.657 668.264 520.764 669.245Z" fill="#F5FDFF"/>
<path d="M532.439 630.085C515.887 632.304 499.212 633.482 482.512 633.614V604.975C494.181 604.909 505.833 604.035 517.381 602.36C523.929 610.691 529.02 620.064 532.439 630.085Z" fill="#F5FDFF"/>
<path d="M535.148 593.97C525.92 596.068 516.575 597.62 507.163 598.619C502.914 592.18 496.288 586.257 487.391 580.874C504.044 581.916 520.302 586.374 535.148 593.97Z" fill="#80ABFF"/>
<path d="M408.632 631.902C405.242 636.647 399.895 646.576 397.926 663.503C381.97 661.095 371.258 658.797 367.906 658.043C371.404 646.6 376.913 635.866 384.178 626.346C387.788 627.389 396.279 629.642 408.632 631.902Z" fill="#80ABFF"/>
<path d="M478.513 674.918V714.979C460.484 714.844 443.786 713.84 428.973 712.436C428.666 699.037 429.054 685.631 430.135 672.271C444.645 673.649 461.02 674.68 478.513 674.918Z" fill="#80ABFF"/>
<path d="M380.764 782.739C375.224 780.164 371.033 777.086 368.793 773.422C368.363 772.668 368.122 771.823 368.089 770.956C367.501 761.24 366.991 753.044 366.559 746.025C369.419 747.126 373.913 748.717 380.086 750.481L380.764 782.739Z" fill="#80ABFF"/>
<path d="M537.034 806.693C527.671 805.405 511.05 798.67 506.685 796.861C505.05 785.484 504.316 773.996 504.49 762.504L537.047 771.248C536.982 784.248 537.021 800.673 537.034 806.693Z" fill="#80ABFF"/>
<path d="M633.758 704.646L614.697 721.683C613.471 719.099 611.826 716.734 609.829 714.684C608.132 712.98 606.115 711.626 603.895 710.698L611.126 680.198C613.657 681.072 616.06 682.276 618.275 683.778C625.162 689.278 630.5 696.469 633.758 704.646Z" fill="#80ABFF"/>
<path d="M366.559 746.025C366.959 753.108 367.553 761.285 368.102 771.027C368.139 771.899 368.392 772.748 368.838 773.499C369.712 774.878 370.777 776.127 372.002 777.208C374.623 779.486 377.578 781.351 380.764 782.739L380.086 750.488C373.9 748.685 369.426 747.152 366.559 746.025Z" fill="#6691E5"/>
<path d="M395.403 749.459V742.003C398.839 745.177 402.538 748.441 406.484 751.661C402.506 750.959 398.806 750.212 395.403 749.459ZM502.244 795.946C495.59 795.11 488.998 793.839 482.511 792.141V796.152C492.326 796.203 499.545 796.023 502.244 795.946ZM385.782 785C394.964 788.387 406.703 790.795 419.23 792.443V761.499C417.59 760.327 416.002 759.136 414.42 757.945C404.549 756.499 394.761 754.534 385.098 752.06L385.782 785ZM477.604 796.114V790.763C457.496 784.859 439.506 775.387 424.138 764.918V793.061C442.735 795.251 462.481 795.959 477.604 796.126V796.114ZM390.496 748.325V737.38C373.707 721.064 364.383 707.762 364.383 707.762C364.719 715.282 365.287 724.567 366.281 740.818C369.264 742.054 377.31 745.145 390.496 748.325Z" fill="#DBE3E5"/>
<path d="M612.486 727.4C615.353 735.313 615.999 745.08 615.999 752.163C610.549 750.038 592.017 743.664 567.092 743.921C568.926 736.375 572.051 728.803 577.256 723.06C598.449 722.661 610.188 726.543 612.486 727.4ZM606.882 717.948C603.575 714.664 599.469 713.305 594.329 713.84C589.915 714.53 585.718 716.22 582.06 718.778C595.749 718.926 605.022 720.781 610.058 722.159C609.185 720.625 608.117 719.209 606.882 717.948ZM587.084 749.433V778.999C590.267 779.225 593.276 779.592 596.079 780.042C602.009 780.992 607.843 782.464 613.513 784.44L614.449 784.775L615.625 761.705C615.625 761.596 615.818 759.696 615.922 756.696V756.728C615.767 756.657 604.492 751.776 587.084 749.433ZM566.175 748.197C565.603 751.299 565.187 754.428 564.929 757.571C564.806 759.039 564.716 760.456 564.658 761.782C564.658 762.117 564.645 762.445 564.619 762.767C564.574 764.055 564.555 765.266 564.555 766.36C564.555 768.292 564.593 769.895 564.645 771.067C564.645 771.569 564.69 771.994 564.709 772.355C564.748 772.915 564.774 773.237 564.781 773.282L565.116 779.991C570.089 779.173 575.121 778.764 580.162 778.768C581.053 778.768 581.944 778.768 582.809 778.768V748.918C577.285 748.332 571.73 748.091 566.175 748.197Z" fill="#DBE3E5"/>
</g>
</g>
<path d="M1299 383V947.068L1775.76 1160.1L1299 383Z" fill="white"/>
<path d="M1246.82 383L770 1160.1L1246.82 947.068V383Z" fill="white"/>
<path d="M1272.93 1570.63V1953.91L1750 1293.88L1272.93 1570.63Z" fill="white"/>
<path d="M1272.82 1953.91V1570.57L796 1293.88L1272.82 1953.91Z" fill="white"/>
<path d="M1272.93 1481.94L1749.68 1205.12L1272.93 992.214V1481.94Z" fill="white"/>
<path d="M796 1205.12L1272.82 1481.94V992.214L796 1205.12Z" fill="white"/>
<circle cx="1272.91" cy="1123.91" r="253.913" fill="#1E1E1E"/>
<path fill-rule="evenodd" clip-rule="evenodd" d="M1279.62 964.384C1274.79 961.648 1268.88 961.648 1264.05 964.384L1130.88 1039.88C1123.83 1043.88 1126.67 1054.63 1134.77 1054.63H1408.9C1417 1054.63 1419.84 1043.88 1412.79 1039.88L1279.62 964.384ZM1229.45 1182.29C1218.27 1191.17 1203.82 1196.53 1188.03 1196.53C1152.62 1196.53 1123.91 1169.6 1123.91 1136.37C1123.91 1103.15 1152.62 1076.22 1188.03 1076.22H1358.98C1394.39 1076.22 1423.1 1103.15 1423.1 1136.37C1423.1 1169.6 1394.39 1196.53 1358.98 1196.53C1343.19 1196.53 1328.74 1191.17 1317.56 1182.29C1313.25 1178.86 1308.08 1176.48 1302.58 1176.48H1244.43C1238.93 1176.48 1233.76 1178.86 1229.45 1182.29ZM1349.58 1136.2C1349.58 1142.4 1344.22 1147.43 1337.62 1147.43C1331.01 1147.43 1325.65 1142.4 1325.65 1136.2C1325.65 1130 1331.01 1124.97 1337.62 1124.97C1344.22 1124.97 1349.58 1130 1349.58 1136.2ZM1385.48 1147.43C1392.09 1147.43 1397.45 1142.4 1397.45 1136.2C1397.45 1130 1392.09 1124.97 1385.48 1124.97C1378.87 1124.97 1373.52 1130 1373.52 1136.2C1373.52 1142.4 1378.87 1147.43 1385.48 1147.43ZM1361.55 1124.97C1354.94 1124.97 1349.58 1119.95 1349.58 1113.74C1349.58 1107.54 1354.94 1102.52 1361.55 1102.52C1368.16 1102.52 1373.52 1107.54 1373.52 1113.74C1373.52 1119.95 1368.16 1124.97 1361.55 1124.97ZM1349.58 1158.66C1349.58 1164.86 1354.94 1169.89 1361.55 1169.89C1368.16 1169.89 1373.52 1164.86 1373.52 1158.66C1373.52 1152.46 1368.16 1147.43 1361.55 1147.43C1354.94 1147.43 1349.58 1152.46 1349.58 1158.66ZM1137.06 1217.83H1409.18C1414.3 1217.83 1418.46 1221.73 1418.46 1226.55C1418.46 1231.38 1414.3 1235.28 1409.18 1235.28H1137.06C1131.93 1235.28 1127.78 1231.38 1127.78 1226.55C1127.78 1221.73 1131.93 1217.83 1137.06 1217.83ZM1426.96 1246.92H1119.28C1114.15 1246.92 1110 1250.83 1110 1255.65C1110 1260.47 1114.15 1264.38 1119.28 1264.38H1426.96C1432.09 1264.38 1436.24 1260.47 1436.24 1255.65C1436.24 1250.83 1432.09 1246.92 1426.96 1246.92ZM1195.59 1159.7C1195.59 1161.47 1194.15 1162.9 1192.38 1162.9H1179.18C1177.41 1162.9 1175.97 1161.47 1175.97 1159.7V1145.74H1162.02C1160.25 1145.74 1158.81 1144.31 1158.81 1142.54V1129.33C1158.81 1127.56 1160.25 1126.12 1162.02 1126.12H1175.97V1112.16C1175.97 1110.39 1177.41 1108.96 1179.18 1108.96H1192.38C1194.15 1108.96 1195.59 1110.39 1195.59 1112.16V1126.12H1209.55C1211.32 1126.12 1212.76 1127.56 1212.76 1129.33V1142.54C1212.76 1144.31 1211.32 1145.74 1209.55 1145.74H1195.59V1159.7Z" fill="white"/>
</g>
<defs>
<linearGradient id="paint0_linear_27859_78646" x1="445.55" y1="1062.96" x2="7027.06" y2="2709.68" gradientUnits="userSpaceOnUse">
<stop stop-color="#171717"/>
<stop offset="1" stop-color="#525252"/>
</linearGradient>
<linearGradient id="paint1_linear_27859_78646" x1="-514.7" y1="-761.245" x2="1922.27" y2="2546" gradientUnits="userSpaceOnUse">
<stop offset="0.181741" stop-opacity="0"/>
<stop offset="0.869305" stop-color="#6443FF"/>
</linearGradient>
<linearGradient id="paint2_linear_27859_78646" x1="1625.25" y1="2205.95" x2="-1390.41" y2="-163.76" gradientUnits="userSpaceOnUse">
<stop stop-color="#E90000" stop-opacity="0.51"/>
<stop offset="1" stop-opacity="0"/>
</linearGradient>
<clipPath id="clip0_27859_78646">
<rect width="2546" height="2546" fill="white"/>
</clipPath>
<clipPath id="clip1_27859_78646">
<rect width="283" height="235.393" fill="white" transform="translate(359 576)"/>
</clipPath>
</defs>
</svg>
