<svg width="161" height="161" viewBox="0 0 161 161" fill="none" xmlns="http://www.w3.org/2000/svg">
<g clip-path="url(#clip0_524_462)">
<mask id="mask0_524_462" style="mask-type:alpha" maskUnits="userSpaceOnUse" x="0" y="0" width="161" height="161">
<circle cx="80.5" cy="80.5" r="80.5" fill="black"/>
</mask>
<g mask="url(#mask0_524_462)">
<path d="M120.846 0.845703H40.8457C18.7543 0.845703 0.845703 18.7543 0.845703 40.8457V120.849C0.845703 142.94 18.7543 160.849 40.8457 160.849H120.846C142.937 160.849 160.846 142.94 160.846 120.849V40.8457C160.846 18.7543 142.937 0.845703 120.846 0.845703Z" fill="url(#paint0_linear_524_462)"/>
<path fill-rule="evenodd" clip-rule="evenodd" d="M44.3583 44.2739L81.7212 16.8447L119.084 44.2739V100.961L44.3583 44.2739ZM42.2812 60.7312L119.083 117.419L81.7199 144.848L42.2812 117.419V60.7312Z" fill="url(#paint1_linear_524_462)"/>
<path d="M81.7212 16.8452L82.6089 15.6361L81.7212 14.9844L80.8336 15.6361L81.7212 16.8452ZM44.3583 44.2744L43.4707 43.0652L41.8504 44.2547L43.4519 45.4694L44.3583 44.2744ZM119.084 44.2744H120.584V43.5147L119.972 43.0652L119.084 44.2744ZM119.084 100.961L118.177 102.156L120.584 103.982V100.961H119.084ZM119.083 117.419L119.97 118.628L121.613 117.422L119.973 116.212L119.083 117.419ZM42.2812 60.7317L43.1721 59.5248L40.7812 57.7602V60.7317H42.2812ZM81.7199 144.848L80.8634 146.079L81.7435 146.691L82.6075 146.057L81.7199 144.848ZM42.2812 117.419H40.7812V118.202L41.4249 118.65L42.2812 117.419ZM80.8336 15.6361L43.4707 43.0652L45.2461 45.4835L82.6089 18.0544L80.8336 15.6361ZM119.972 43.0652L82.6089 15.6361L80.8336 18.0544L118.196 45.4835L119.972 43.0652ZM120.584 100.961V44.2744H117.584V100.961H120.584ZM43.4519 45.4694L118.177 102.156L119.991 99.7662L45.2649 43.0793L43.4519 45.4694ZM119.973 116.212L43.1721 59.5248L41.3904 61.9385L118.192 118.625L119.973 116.212ZM82.6075 146.057L119.97 118.628L118.195 116.209L80.8321 143.639L82.6075 146.057ZM41.4249 118.65L80.8634 146.079L82.5764 143.616L43.1377 116.187L41.4249 118.65ZM40.7812 60.7317V117.419H43.7812V60.7317H40.7812Z" fill="black"/>
</g>
</g>
<defs>
<linearGradient id="paint0_linear_524_462" x1="52" y1="1.00049" x2="118" y2="183.5" gradientUnits="userSpaceOnUse">
<stop stop-color="#F0F0F0"/>
<stop offset="0.432292" stop-color="#A5BEF4" stop-opacity="0.8"/>
<stop offset="1" stop-color="#9D91F4" stop-opacity="0.8"/>
</linearGradient>
<linearGradient id="paint1_linear_524_462" x1="133" y1="201.922" x2="0.458283" y2="8.87972" gradientUnits="userSpaceOnUse">
<stop stop-color="#FEF3CC"/>
<stop offset="0.234375" stop-color="#D2BBC4"/>
<stop offset="0.473958" stop-color="#B689D3"/>
<stop offset="0.697917" stop-color="#9493FF"/>
<stop offset="1" stop-color="#4C1CB2"/>
</linearGradient>
<clipPath id="clip0_524_462">
<rect width="161" height="161" fill="white"/>
</clipPath>
</defs>
</svg>
