<svg width="256" height="256" viewBox="0 0 256 256" fill="none" xmlns="http://www.w3.org/2000/svg">
<g clip-path="url(#clip0_741_46)">
<circle cx="128" cy="128" r="128" fill="#FC0039"/>
<path d="M128.429 25C71.645 25 25.4532 71.2077 25.4532 128.004C25.4532 135.459 26.2482 142.734 27.7684 149.744L34.163 135.997C33.9329 133.36 33.8213 130.696 33.8213 128.004C33.8213 106.089 41.3107 85.8897 53.8489 69.834C54.4069 69.1223 54.9716 68.418 55.5435 67.7276C55.7594 67.4695 55.9686 67.2113 56.1849 66.9603C56.8822 66.1372 57.6005 65.3213 58.3326 64.5192C75.6477 45.4012 100.661 33.3697 128.429 33.3697C156.204 33.3697 181.218 45.4012 198.54 64.5192H209.474C190.604 40.477 161.288 25 128.429 25ZM223.539 88.5124L218.525 99.065C221.461 108.188 223.044 117.911 223.044 128.004C223.044 180.182 180.604 222.63 128.429 222.63C100.661 222.63 75.6406 210.599 58.3259 191.481H47.3915C66.2547 215.53 95.5707 231 128.429 231C185.214 231 231.412 184.799 231.412 128.004C231.412 114.019 228.609 100.683 223.539 88.5124ZM35.3485 145.015L29.6721 157.221C32.8101 167.822 37.6148 177.72 43.7863 186.599H54.1906C44.7904 174.707 38.1796 160.513 35.3485 145.015ZM213.079 69.4014H202.675C208.219 76.4112 212.786 84.216 216.189 92.6205L220.903 82.6955C218.623 78.0572 216.008 73.6141 213.079 69.4014Z" fill="white"/>
<path d="M55.5458 67.7398L55.1831 66.9724H56.1871C55.9709 67.2235 55.7617 67.4816 55.5458 67.7398Z" fill="white"/>
<path d="M227.224 69.4119L220.899 82.7056L216.185 92.6306L171.493 186.609H114.778L93.8229 142.556L72.7076 186.609H16L29.6678 157.231L35.3442 145.025L64.8487 81.6177L59.0396 69.4119H115.887L143.132 126.842L170.377 69.4119H227.224Z" fill="white"/>
</g>
<defs>
<clipPath id="clip0_741_46">
<rect width="256" height="256" fill="white"/>
</clipPath>
</defs>
</svg>
