<svg width="256" height="256" viewBox="0 0 256 256" fill="none" xmlns="http://www.w3.org/2000/svg">
<g clip-path="url(#clip0_741_46)">
<path d="M256 128C256 198.692 198.692 256 128 256C57.3075 256 0 198.692 0 128C0 57.3075 57.3075 0 128 0C198.692 0 256 57.3075 256 128Z" fill="#6000FF"/>
<path d="M235 64C219.609 68.6763 204.887 74.6888 190.165 81.0353C107.186 118.78 51.6432 175.564 66.3652 207.965C69.3766 213.977 74.0609 218.988 80.4181 221.994C100.159 232.014 122.577 235.355 144.325 231.346C166.074 227.338 186.149 216.649 201.206 200.282C216.263 183.915 225.966 163.205 228.308 141.16C230.65 119.114 225.966 96.7344 214.924 77.695L235 64Z" fill="white"/>
<path d="M208 67.3068C192.952 46.235 170.212 31.5182 144.797 26.1667C119.382 20.8151 92.6299 25.4977 70.5591 38.8766C48.1539 52.59 32.1024 73.6618 25.0799 98.7472C17.723 123.498 20.3982 150.256 32.4368 173C51.8324 144.904 94.9708 112.461 149.813 88.0441C168.54 80.0167 187.936 72.9928 208 67.3068Z" fill="white"/>
</g>
<defs>
<clipPath id="clip0_741_46">
<rect width="256" height="256" fill="white"/>
</clipPath>
</defs>
</svg>
