<svg width="256" height="256" viewBox="0 0 256 256" fill="none" xmlns="http://www.w3.org/2000/svg">
<g clip-path="url(#clip0_741_46)">
<circle cx="128" cy="128" r="128" fill="black"/>
<path d="M256 128C256 57.3076 198.692 0 128 0C57.3076 0 0 57.3076 0 128C0 198.692 57.3076 256 128 256C198.692 256 256 198.692 256 128Z" fill="#12140D"/>
<path d="M171.819 165.867H157.655L128.008 135.321L98.466 165.867H84.2495L120.979 127.975L84.2495 90.0825H98.466L171.819 165.867ZM171.819 90.0825L138.789 124.064L131.76 116.824L157.655 90.0825H171.819Z" fill="#9EFF00"/>
<path fill-rule="evenodd" clip-rule="evenodd" d="M189.982 179H164.58L127.964 141.188L91.4786 179H66L115.324 128L66 77H91.4777L189.982 179ZM119.013 128L72.2582 176.344H90.355L127.961 137.372L165.701 176.344H183.73L90.355 79.6555H72.2582L119.013 128ZM190 77L141.683 126.822L129.046 113.776L164.578 77H190ZM183.73 79.6555H165.701L132.737 113.773L141.684 123.01L183.73 79.6555Z" fill="#9EFF00"/>
</g>
<defs>
<clipPath id="clip0_741_46">
<rect width="256" height="256" fill="white"/>
</clipPath>
</defs>
</svg>
