<?xml version="1.0" encoding="UTF-8"?>
<!DOCTYPE svg PUBLIC "-//W3C//DTD SVG 1.1//EN" "http://www.w3.org/Graphics/SVG/1.1/DTD/svg11.dtd">
<svg xmlns="http://www.w3.org/2000/svg" version="1.1" width="464px" height="464px" style="shape-rendering:geometricPrecision; text-rendering:geometricPrecision; image-rendering:optimizeQuality; fill-rule:evenodd; clip-rule:evenodd" xmlns:xlink="http://www.w3.org/1999/xlink">
<g><path style="opacity:0.846" fill="#0e0e0e" d="M 197.5,-0.5 C 220.167,-0.5 242.833,-0.5 265.5,-0.5C 340.515,12.7428 397.348,52.0762 436,117.5C 449.49,142.806 458.656,169.472 463.5,197.5C 463.5,220.167 463.5,242.833 463.5,265.5C 450.257,340.515 410.924,397.348 345.5,436C 320.194,449.49 293.528,458.656 265.5,463.5C 242.833,463.5 220.167,463.5 197.5,463.5C 122.485,450.257 65.6516,410.924 27,345.5C 13.5103,320.194 4.34367,293.528 -0.5,265.5C -0.5,242.833 -0.5,220.167 -0.5,197.5C 12.7428,122.485 52.0762,65.6516 117.5,27C 142.806,13.5103 169.472,4.34367 197.5,-0.5 Z"/></g>
<g><path style="opacity:1" fill="#f7f7f7" d="M 207.5,1.5 C 294.525,-3.88649 364.691,27.4468 418,95.5C 464.698,163.071 474.364,235.737 447,313.5C 416.562,387.931 362.396,435.431 284.5,456C 194.137,473.766 117.97,448.933 56,381.5C 4.96897,317.704 -10.3644,246.037 10,166.5C 35.5,87.6667 87.6667,35.5 166.5,10C 180.171,6.50479 193.838,3.67146 207.5,1.5 Z"/></g>
<g><path style="opacity:1" fill="#000000" d="M 439.5,216.5 C 439.5,225.167 439.5,233.833 439.5,242.5C 405.663,242.168 371.996,242.502 338.5,243.5C 332.845,256.452 324.512,267.452 313.5,276.5C 321.636,300.242 329.97,323.909 338.5,347.5C 319.178,348.5 299.845,348.833 280.5,348.5C 275.365,331.761 270.031,315.094 264.5,298.5C 233.833,298.5 203.167,298.5 172.5,298.5C 172.5,315.167 172.5,331.833 172.5,348.5C 153.5,348.5 134.5,348.5 115.5,348.5C 115.5,313.5 115.5,278.5 115.5,243.5C 85.0045,242.502 54.3379,242.169 23.5,242.5C 23.5,233.833 23.5,225.167 23.5,216.5C 30.9255,141.772 66.9255,85.6054 131.5,48C 195.663,15.0709 260.329,14.0709 325.5,45C 387.214,78.2021 424.714,129.369 438,198.5C 439.072,204.455 439.572,210.455 439.5,216.5 Z"/></g>
<g><path style="opacity:1" fill="#f8f8f8" d="M 346.5,173.5 C 346.5,181.5 346.5,189.5 346.5,197.5C 369.397,196.86 392.064,197.527 414.5,199.5C 416.047,206.058 416.714,212.725 416.5,219.5C 374.5,219.5 332.5,219.5 290.5,219.5C 290.829,206.323 290.495,193.323 289.5,180.5C 286.478,163.644 276.478,153.477 259.5,150C 240.167,149.333 220.833,149.333 201.5,150C 185.646,154.347 176.313,164.514 173.5,180.5C 172.505,193.323 172.171,206.323 172.5,219.5C 130.33,219.832 88.33,219.499 46.5,218.5C 46.8747,212.128 47.5414,205.795 48.5,199.5C 70.7759,197.855 93.1092,196.855 115.5,196.5C 113.57,147.175 135.57,113.675 181.5,96C 187.427,94.3516 193.427,93.0183 199.5,92C 220.167,91.3333 240.833,91.3333 261.5,92C 300.957,97.4632 328.123,118.63 343,155.5C 345.124,161.326 346.291,167.326 346.5,173.5 Z"/></g>
<g><path style="opacity:1" fill="#7d7d7d" d="M 173.5,180.5 C 173.5,193.833 173.5,207.167 173.5,220.5C 130.828,220.833 88.1615,220.5 45.5,219.5C 45.6236,218.893 45.9569,218.56 46.5,218.5C 88.33,219.499 130.33,219.832 172.5,219.5C 172.171,206.323 172.505,193.323 173.5,180.5 Z"/></g>
<g><path style="opacity:1" fill="#7d7d7d" d="M 289.5,180.5 C 290.495,193.323 290.829,206.323 290.5,219.5C 332.5,219.5 374.5,219.5 416.5,219.5C 374.337,220.499 332.003,220.832 289.5,220.5C 289.5,207.167 289.5,193.833 289.5,180.5 Z"/></g>
<g><path style="opacity:1" fill="#7e7e7e" d="M 115.5,196.5 C 93.1092,196.855 70.7759,197.855 48.5,199.5C 48.5,198.5 48.5,197.5 48.5,196.5C 70.8333,196.5 93.1667,196.5 115.5,196.5 Z"/></g>
<g><path style="opacity:1" fill="#878787" d="M 346.5,173.5 C 347.492,180.982 347.825,188.648 347.5,196.5C 369.833,196.5 392.167,196.5 414.5,196.5C 414.5,197.5 414.5,198.5 414.5,199.5C 392.064,197.527 369.397,196.86 346.5,197.5C 346.5,189.5 346.5,181.5 346.5,173.5 Z"/></g>
<g><path style="opacity:1" fill="#777777" d="M 23.5,216.5 C 23.5,225.167 23.5,233.833 23.5,242.5C 54.3379,242.169 85.0045,242.502 115.5,243.5C 84.5,243.5 53.5,243.5 22.5,243.5C 22.1734,234.318 22.5067,225.318 23.5,216.5 Z"/></g>
<g><path style="opacity:1" fill="#767676" d="M 439.5,216.5 C 440.493,225.318 440.827,234.318 440.5,243.5C 406.5,243.5 372.5,243.5 338.5,243.5C 371.996,242.502 405.663,242.168 439.5,242.5C 439.5,233.833 439.5,225.167 439.5,216.5 Z"/></g>
<g><path style="opacity:1" fill="#7b7b7b" d="M 25.5,266.5 C 29.3188,265.834 33.3188,265.501 37.5,265.5C 41.893,265.509 45.893,266.176 49.5,267.5C 41.5856,266.533 33.5856,266.199 25.5,266.5 Z"/></g>
<g><path style="opacity:1" fill="#7b7b7b" d="M 437.5,266.5 C 429.414,266.199 421.414,266.533 413.5,267.5C 417.107,266.176 421.107,265.509 425.5,265.5C 429.681,265.501 433.681,265.834 437.5,266.5 Z"/></g>
<g><path style="opacity:1" fill="#030303" d="M 25.5,266.5 C 33.5856,266.199 41.5856,266.533 49.5,267.5C 64.4232,332.922 102.757,378.756 164.5,405C 231.046,427.685 292.38,418.018 348.5,376C 382.832,347.515 404.499,311.348 413.5,267.5C 421.414,266.533 429.414,266.199 437.5,266.5C 419.75,349.417 370.75,404.584 290.5,432C 204.981,453.262 132.481,431.762 73,367.5C 48.5648,337.959 32.7315,304.293 25.5,266.5 Z"/></g>
</svg>
