<svg width="512" height="512" viewBox="0 0 512 512" fill="none" xmlns="http://www.w3.org/2000/svg">
<circle cx="256" cy="256" r="256" fill="white"/>
<g clip-path="url(#clip0_516_181)">
<path d="M119.13 249.41C119.132 253.33 117.971 257.163 115.795 260.424C113.618 263.685 110.523 266.227 106.902 267.728C103.28 269.23 99.2948 269.624 95.4494 268.86C91.6041 268.097 88.0715 266.21 85.2987 263.438C82.5258 260.667 80.6371 257.135 79.8716 253.29C79.106 249.445 79.4979 245.46 80.9977 241.838C82.4976 238.215 85.0379 235.119 88.2975 232.941C91.5571 230.763 95.3895 229.6 99.31 229.6C104.565 229.6 109.605 231.687 113.321 235.402C117.038 239.116 119.127 244.155 119.13 249.41ZM434.04 249.41C434.042 253.331 432.881 257.164 430.704 260.425C428.527 263.686 425.431 266.228 421.809 267.729C418.187 269.231 414.201 269.624 410.356 268.86C406.51 268.095 402.978 266.207 400.205 263.435C397.433 260.662 395.545 257.13 394.78 253.284C394.016 249.439 394.409 245.453 395.911 241.831C397.412 238.209 399.954 235.113 403.215 232.936C406.476 230.759 410.309 229.598 414.23 229.6C419.476 229.613 424.503 231.706 428.209 235.419C431.915 239.133 433.997 244.164 434 249.41M276.59 327.6C276.592 331.521 275.431 335.354 273.254 338.615C271.077 341.876 267.981 344.418 264.359 345.919C260.737 347.421 256.751 347.814 252.906 347.05C249.06 346.285 245.528 344.397 242.755 341.625C239.983 338.852 238.095 335.32 237.33 331.474C236.566 327.629 236.959 323.643 238.461 320.021C239.962 316.399 242.504 313.303 245.765 311.126C249.026 308.949 252.859 307.788 256.78 307.79C262.033 307.793 267.07 309.881 270.785 313.595C274.499 317.31 276.587 322.347 276.59 327.6ZM197.32 289C197.32 292.92 196.158 296.752 193.98 300.011C191.802 303.271 188.706 305.811 185.085 307.311C181.463 308.811 177.478 309.204 173.633 308.439C169.789 307.674 166.257 305.787 163.485 303.015C160.713 300.243 158.826 296.711 158.061 292.867C157.296 289.022 157.689 285.037 159.189 281.415C160.689 277.794 163.229 274.698 166.489 272.52C169.748 270.342 173.58 269.18 177.5 269.18C182.757 269.18 187.798 271.268 191.515 274.985C195.232 278.702 197.32 283.743 197.32 289ZM354.78 289C354.79 292.924 353.635 296.762 351.461 300.029C349.288 303.296 346.193 305.844 342.57 307.351C338.947 308.857 334.958 309.255 331.109 308.492C327.26 307.73 323.724 305.842 320.949 303.068C318.173 300.294 316.284 296.759 315.52 292.911C314.755 289.062 315.151 285.073 316.655 281.449C318.16 277.825 320.707 274.73 323.973 272.554C327.238 270.379 331.076 269.222 335 269.23C340.241 269.241 345.264 271.327 348.971 275.032C352.678 278.737 354.767 283.759 354.78 289ZM112.7 309.4C112.698 312.048 111.911 314.637 110.438 316.837C108.965 319.038 106.872 320.753 104.425 321.765C101.977 322.776 99.2849 323.039 96.6879 322.521C94.0909 322.002 91.706 320.725 89.8348 318.851C87.9635 316.977 86.69 314.59 86.1753 311.992C85.6606 309.395 85.9278 306.703 86.9431 304.257C87.9584 301.811 89.6761 299.721 91.8792 298.251C94.0823 296.781 96.6717 295.998 99.32 296C101.078 296.001 102.819 296.349 104.443 297.023C106.067 297.697 107.543 298.685 108.785 299.929C110.028 301.173 111.013 302.65 111.685 304.275C112.356 305.9 112.701 307.642 112.7 309.4ZM427.61 309.4C427.608 312.048 426.821 314.637 425.348 316.837C423.875 319.038 421.782 320.753 419.335 321.765C416.887 322.776 414.195 323.039 411.598 322.521C409.001 322.002 406.616 320.725 404.745 318.851C402.874 316.977 401.6 314.59 401.085 311.992C400.571 309.395 400.838 306.703 401.853 304.257C402.868 301.811 404.586 299.721 406.789 298.251C408.992 296.781 411.582 295.998 414.23 296C417.78 296.003 421.185 297.414 423.695 299.925C426.206 302.435 427.617 305.84 427.62 309.39M270.16 388.65C270.162 391.299 269.378 393.889 267.908 396.093C266.437 398.296 264.346 400.014 261.899 401.029C259.452 402.044 256.759 402.31 254.16 401.793C251.562 401.277 249.175 400.001 247.302 398.128C245.429 396.255 244.153 393.868 243.637 391.27C243.12 388.671 243.386 385.978 244.401 383.531C245.416 381.084 247.134 378.993 249.337 377.522C251.541 376.052 254.131 375.268 256.78 375.27C260.327 375.275 263.727 376.687 266.235 379.195C268.743 381.703 270.155 385.103 270.16 388.65ZM190.9 349C190.9 351.649 190.114 354.238 188.643 356.44C187.171 358.642 185.079 360.359 182.632 361.372C180.185 362.385 177.492 362.649 174.894 362.132C172.296 361.615 169.911 360.338 168.038 358.465C166.166 356.591 164.892 354.204 164.376 351.606C163.861 349.008 164.127 346.315 165.142 343.869C166.157 341.422 167.875 339.332 170.078 337.862C172.281 336.392 174.871 335.608 177.52 335.61C179.278 335.61 181.019 335.956 182.643 336.629C184.267 337.302 185.742 338.289 186.985 339.532C188.227 340.776 189.213 342.252 189.884 343.877C190.556 345.501 190.901 347.242 190.9 349ZM348.36 349C348.366 351.651 347.585 354.244 346.116 356.45C344.647 358.657 342.556 360.378 340.108 361.395C337.66 362.412 334.965 362.68 332.365 362.164C329.765 361.648 327.376 360.373 325.502 358.498C323.627 356.624 322.352 354.235 321.836 351.635C321.32 349.035 321.588 346.34 322.605 343.892C323.622 341.444 325.343 339.353 327.55 337.884C329.756 336.415 332.349 335.634 335 335.64C338.539 335.651 341.93 337.062 344.432 339.565C346.933 342.069 348.342 345.461 348.35 349M106.28 356.52C106.28 357.904 105.869 359.258 105.1 360.409C104.331 361.56 103.238 362.457 101.959 362.987C100.68 363.517 99.2722 363.656 97.9144 363.385C96.5565 363.115 95.3092 362.449 94.3302 361.47C93.3513 360.491 92.6846 359.243 92.4145 357.886C92.1444 356.528 92.283 355.12 92.8128 353.841C93.3426 352.562 94.2398 351.469 95.391 350.7C96.5421 349.931 97.8955 349.52 99.28 349.52C101.136 349.52 102.917 350.257 104.23 351.57C105.542 352.883 106.28 354.663 106.28 356.52ZM421.19 356.52C421.19 357.904 420.779 359.258 420.01 360.409C419.241 361.56 418.148 362.457 416.869 362.987C415.59 363.517 414.182 363.656 412.824 363.385C411.466 363.115 410.219 362.449 409.24 361.47C408.261 360.491 407.595 359.243 407.324 357.886C407.054 356.528 407.193 355.12 407.723 353.841C408.253 352.562 409.15 351.469 410.301 350.7C411.452 349.931 412.806 349.52 414.19 349.52C416.046 349.52 417.827 350.257 419.14 351.57C420.452 352.883 421.19 354.663 421.19 356.52ZM263.73 435.79C263.73 437.174 263.319 438.528 262.55 439.679C261.781 440.83 260.688 441.727 259.409 442.257C258.13 442.787 256.722 442.926 255.364 442.655C254.006 442.385 252.759 441.719 251.78 440.74C250.801 439.761 250.135 438.514 249.864 437.156C249.594 435.798 249.733 434.39 250.263 433.111C250.793 431.832 251.69 430.739 252.841 429.97C253.992 429.201 255.346 428.79 256.73 428.79C258.586 428.79 260.367 429.527 261.68 430.84C262.992 432.153 263.73 433.933 263.73 435.79ZM184.47 396.16C184.47 397.544 184.059 398.898 183.29 400.049C182.521 401.2 181.428 402.097 180.149 402.627C178.87 403.157 177.462 403.296 176.104 403.025C174.746 402.755 173.499 402.089 172.52 401.11C171.541 400.131 170.875 398.884 170.604 397.526C170.334 396.168 170.473 394.76 171.003 393.481C171.533 392.202 172.43 391.109 173.581 390.34C174.732 389.571 176.086 389.16 177.47 389.16C179.327 389.16 181.107 389.898 182.42 391.21C183.732 392.523 184.47 394.303 184.47 396.16ZM341.93 396.16C341.93 397.544 341.519 398.898 340.75 400.049C339.981 401.2 338.888 402.097 337.609 402.627C336.33 403.157 334.922 403.296 333.564 403.025C332.206 402.755 330.959 402.089 329.98 401.11C329.001 400.131 328.335 398.884 328.064 397.526C327.794 396.168 327.933 394.76 328.463 393.481C328.993 392.202 329.89 391.109 331.041 390.34C332.192 389.571 333.545 389.16 334.93 389.16C336.786 389.16 338.567 389.898 339.88 391.21C341.192 392.523 341.93 394.303 341.93 396.16ZM283 96.78C283 102.077 281.429 107.256 278.485 111.66C275.542 116.065 271.358 119.497 266.464 121.523C261.569 123.55 256.183 124.079 250.988 123.044C245.793 122.009 241.021 119.456 237.277 115.709C233.532 111.962 230.983 107.188 229.952 101.992C228.921 96.7961 229.454 91.4109 231.484 86.5179C233.514 81.6248 236.95 77.4437 241.356 74.5035C245.763 71.5633 250.943 69.9961 256.24 70C263.339 70.0053 270.145 72.8291 275.163 77.8508C280.181 82.8724 283 89.681 283 96.78ZM283 176C283 181.297 281.429 186.475 278.486 190.879C275.543 195.283 271.36 198.716 266.466 200.742C261.572 202.769 256.187 203.299 250.992 202.265C245.797 201.231 241.025 198.679 237.28 194.933C233.535 191.187 230.986 186.414 229.953 181.218C228.921 176.023 229.453 170.638 231.481 165.745C233.51 160.852 236.944 156.67 241.349 153.728C245.754 150.787 250.933 149.218 256.23 149.22C263.331 149.223 270.14 152.045 275.16 157.067C280.18 162.089 283 168.899 283 176ZM283 254.2C283 259.497 281.429 264.675 278.486 269.079C275.543 273.483 271.36 276.916 266.466 278.942C261.572 280.969 256.187 281.499 250.992 280.465C245.797 279.431 241.025 276.879 237.28 273.133C233.535 269.387 230.986 264.614 229.953 259.418C228.921 254.223 229.453 248.838 231.481 243.945C233.51 239.052 236.944 234.87 241.349 231.928C245.754 228.987 250.933 227.418 256.23 227.42C259.749 227.421 263.234 228.116 266.484 229.465C269.735 230.814 272.688 232.79 275.174 235.281C277.66 237.772 279.631 240.729 280.974 243.982C282.317 247.235 283.005 250.721 283 254.24M440.47 176C440.47 181.297 438.899 186.474 435.957 190.878C433.014 195.282 428.832 198.715 423.938 200.742C419.045 202.768 413.66 203.299 408.465 202.265C403.271 201.232 398.499 198.682 394.754 194.936C391.008 191.191 388.458 186.419 387.425 181.225C386.391 176.03 386.922 170.645 388.948 165.752C390.975 160.858 394.408 156.676 398.812 153.733C403.216 150.791 408.393 149.22 413.69 149.22C420.792 149.22 427.604 152.041 432.626 157.064C437.649 162.086 440.47 168.898 440.47 176ZM125.56 176C125.568 181.298 124.004 186.48 121.066 190.889C118.128 195.298 113.949 198.737 109.056 200.77C104.163 202.803 98.7775 203.339 93.58 202.31C88.3826 201.282 83.6071 198.734 79.8579 194.99C76.1086 191.247 73.5541 186.475 72.5175 181.279C71.481 176.083 72.009 170.697 74.0347 165.801C76.0604 160.905 79.4929 156.72 83.8977 153.776C88.3025 150.832 93.4817 149.26 98.78 149.26C105.876 149.26 112.681 152.076 117.702 157.09C122.723 162.103 125.549 168.904 125.56 176ZM204.82 136.37C204.828 141.667 203.265 146.847 200.329 151.255C197.393 155.663 193.216 159.102 188.325 161.136C183.435 163.17 178.051 163.709 172.855 162.683C167.658 161.658 162.883 159.114 159.132 155.375C155.381 151.635 152.823 146.867 151.782 141.674C150.741 136.48 151.264 131.095 153.283 126.199C155.303 121.302 158.729 117.115 163.129 114.165C167.528 111.216 172.703 109.638 178 109.63C185.102 109.63 191.914 112.451 196.936 117.474C201.959 122.496 204.78 129.308 204.78 136.41M204.78 214.6C204.78 219.897 203.209 225.074 200.267 229.478C197.324 233.882 193.142 237.315 188.248 239.341C183.355 241.368 177.97 241.899 172.775 240.865C167.581 239.832 162.809 237.282 159.064 233.536C155.318 229.791 152.768 225.019 151.735 219.825C150.701 214.63 151.232 209.245 153.258 204.352C155.285 199.458 158.718 195.276 163.122 192.333C167.526 189.391 172.703 187.82 178 187.82C185.102 187.82 191.914 190.641 196.936 195.664C201.959 200.686 204.78 207.498 204.78 214.6ZM362.28 136.41C362.28 141.707 360.709 146.884 357.767 151.288C354.824 155.692 350.642 159.125 345.748 161.152C340.855 163.178 335.47 163.709 330.275 162.675C325.081 161.642 320.309 159.092 316.564 155.346C312.818 151.601 310.268 146.829 309.235 141.635C308.201 136.44 308.732 131.055 310.758 126.162C312.785 121.268 316.218 117.086 320.622 114.143C325.026 111.201 330.203 109.63 335.5 109.63C342.602 109.63 349.414 112.451 354.436 117.474C359.459 122.496 362.28 129.308 362.28 136.41ZM362.28 214.6C362.28 219.897 360.709 225.074 357.767 229.478C354.824 233.882 350.642 237.315 345.748 239.341C340.855 241.368 335.47 241.899 330.275 240.865C325.081 239.832 320.309 237.282 316.564 233.536C312.818 229.791 310.268 225.019 309.235 219.825C308.201 214.63 308.732 209.245 310.758 204.352C312.785 199.458 316.218 195.276 320.622 192.333C325.026 189.391 330.203 187.82 335.5 187.82C342.602 187.82 349.414 190.641 354.436 195.664C359.459 200.686 362.28 207.498 362.28 214.6Z" fill="#141414"/>
</g>
<defs>
<clipPath id="clip0_516_181">
<rect width="368.47" height="372.75" fill="white" transform="translate(72 70)"/>
</clipPath>
</defs>
</svg>
