<svg width="256" height="257" viewBox="0 0 256 257" fill="none" xmlns="http://www.w3.org/2000/svg">
<path d="M127.597 150.916L163.884 129.506L127.597 69.396L91.3105 129.506L127.597 150.916Z" fill="url(#paint0_linear_1831_623)"/>
<path d="M128.438 256.717C199.113 256.48 256.237 198.819 255.999 127.929C255.762 57.0371 198.254 -0.236672 127.58 0.000735406C56.8873 0.238143 -0.23667 57.8991 0.000737328 128.789C0.238145 199.679 57.7455 256.954 128.438 256.717Z" fill="#0074F0"/>
<path opacity="0.2" d="M208.006 208.077C251.89 163.772 251.671 92.1348 207.495 48.1248C163.319 4.11308 91.8776 4.33408 47.9937 48.6399L208.006 208.077Z" fill="white"/>
<path d="M122.777 77.6635C124.494 77.4882 126.229 77.3987 128 77.3987C156.051 77.3987 178.806 100.206 178.806 128.341C178.806 150.281 164.963 168.982 145.568 176.153L128.347 200.462C167.903 200.279 199.917 168.059 199.917 128.341C199.917 91.0442 171.683 60.3602 135.488 56.6055L122.777 77.6635Z" fill="white"/>
<path d="M126.375 56.2383C87.4035 57.1076 56.084 89.0554 56.084 128.341C56.084 165.093 83.4955 195.425 118.942 199.896L133.789 178.958C131.89 179.174 129.954 179.283 128 179.283C99.9496 179.283 77.1951 156.476 77.1951 128.341C77.1951 105.794 91.8048 86.6703 112.039 79.9608L126.375 56.2383Z" fill="white"/>
<path d="M145.568 176.152C164.962 168.98 178.805 150.28 178.805 128.34H199.916C199.916 168.058 167.902 200.278 128.347 200.461L145.568 176.152Z" fill="url(#paint1_linear_1831_623)"/>
<path d="M126.375 56.2383C87.4035 57.1076 56.084 89.0554 56.084 128.341C56.084 128.341 77.1951 128.646 77.1951 128.341C77.1951 105.794 91.8048 86.6703 112.039 79.9608L126.375 56.2383Z" fill="url(#paint2_linear_1831_623)"/>
<path d="M127.872 187.297L163.976 136.302L127.872 157.673L91.7856 136.302L127.872 187.297Z" fill="white"/>
<path opacity="0.1" d="M127.873 187.297L163.977 136.302L127.873 157.673V187.297Z" fill="#0074F0"/>
<path d="M127.762 150.906L164.049 129.495L127.762 69.3853L91.4756 129.495L127.762 150.906Z" fill="white"/>
<path opacity="0.1" d="M127.762 150.904L91.4756 129.495L127.762 69.3853V150.904Z" fill="#0074F0"/>
<path opacity="0.1" d="M127.762 150.904V112.433L91.4756 129.494L127.762 150.904Z" fill="#0074F0"/>
<path opacity="0.1" d="M127.763 150.904V112.433L164.05 129.494L127.763 150.904Z" fill="#0074F0"/>
<defs>
<linearGradient id="paint0_linear_1831_623" x1="50.3851" y1="91.1645" x2="114.065" y2="129.909" gradientUnits="userSpaceOnUse">
<stop stop-color="#1C313F"/>
<stop offset="1" stop-color="white"/>
</linearGradient>
<linearGradient id="paint1_linear_1831_623" x1="80.6461" y1="218.706" x2="159.995" y2="166.884" gradientUnits="userSpaceOnUse">
<stop stop-color="#1A82FF" stop-opacity="0.5"/>
<stop offset="1" stop-color="white"/>
</linearGradient>
<linearGradient id="paint2_linear_1831_623" x1="166.807" y1="23.0395" x2="90.8916" y2="77.7437" gradientUnits="userSpaceOnUse">
<stop stop-color="#1A82FF" stop-opacity="0.5"/>
<stop offset="1" stop-color="white"/>
</linearGradient>
</defs>
</svg>
