<svg width="256" height="256" viewBox="0 0 256 256" fill="none" xmlns="http://www.w3.org/2000/svg">
<path d="M256 128.5C256 198.917 198.917 256 128.5 256C58.0837 256 1 198.917 1 128.5C1 58.0837 58.0837 1 128.5 1C198.917 1 256 58.0837 256 128.5Z" fill="#E479FF"/>
<path d="M106.5 141C115.059 141 122 133.158 122 123.5C122 113.842 115.059 106 106.5 106C97.9413 106 91 113.842 91 123.5C91 133.158 97.9413 141 106.5 141Z" fill="black"/>
<path d="M190.5 141C199.059 141 206 133.158 206 123.5C206 113.842 199.059 106 190.5 106C181.941 106 175 113.842 175 123.5C175 133.158 181.941 141 190.5 141Z" fill="black"/>
<path d="M214 183.676L212.77 168L210.725 168.166C169.376 171.651 127.85 172.909 86.3816 171.94L84.3368 171.899L84 187.637L86.044 187.678C128.028 188.668 170.07 187.369 211.955 183.842L214 183.676Z" fill="black"/>
</svg>
