<svg width="256" height="256" viewBox="0 0 256 256" fill="none" xmlns="http://www.w3.org/2000/svg">
<circle cx="128" cy="128" r="127" fill="white"/>
<path d="M136.226 244H128C63.9351 244 12 192.065 12 128C12 63.935 63.9351 12 128 12C192.065 12 244 63.935 244 128C244 133.737 243.583 139.379 242.777 144.899H226.54C227.473 139.41 227.961 133.765 227.961 128C227.961 72.7935 183.207 28.0395 128 28.0395C72.7932 28.0395 28.0395 72.7935 28.0395 128C28.0395 183.207 72.7932 227.961 128 227.961H187.452C172.27 237.01 154.853 242.698 136.226 244Z" fill="black"/>
<path d="M209.434 211H127.767C82.056 211 45 173.839 45 128C45 82.1605 82.056 45 127.767 45C173.478 45 210.534 82.1605 210.534 128C210.534 133.802 209.939 139.47 208.806 144.944H192.34C193.746 139.539 194.496 133.861 194.496 128C194.496 91.0426 164.62 61.0828 127.767 61.0828C90.9136 61.0828 61.0379 91.0426 61.0379 128C61.0379 164.957 90.9136 194.917 127.767 194.917H223C218.964 200.683 214.42 206.066 209.434 211Z" fill="black"/>
<path d="M232.844 178H127.571C100.194 178 78 155.614 78 128C78 100.386 100.194 78 127.571 78C154.947 78 177.141 100.386 177.141 128C177.141 133.983 176.096 139.727 174.181 145.052H156.528C159.432 140.049 161.095 134.229 161.095 128C161.095 109.325 146.086 94.1849 127.571 94.1849C109.055 94.1849 94.0463 109.325 94.0463 128C94.0463 146.675 109.055 161.815 127.571 161.815H239C237.338 167.397 235.274 172.803 232.844 178Z" fill="black"/>
</svg>
