<svg width="256" height="256" viewBox="0 0 256 256" fill="none" xmlns="http://www.w3.org/2000/svg">
<path d="M256 128.5C256 198.917 198.917 256 128.5 256C58.0837 256 1 198.917 1 128.5C1 58.0837 58.0837 1 128.5 1C198.917 1 256 58.0837 256 128.5Z" fill="#1E1E1E"/>
<g filter="url(#filter0_d_1497_53)">
<path d="M127.745 206.079C169.859 206.079 204 171.935 204 129.816C204 87.6968 169.859 53.5527 127.745 53.5527C85.6302 53.5527 51.4895 87.6968 51.4895 129.816C51.4895 171.935 85.6302 206.079 127.745 206.079Z" stroke="#FD6A1C" stroke-width="3"/>
</g>
<g filter="url(#filter1_d_1497_53)">
<path d="M127.745 64.7696C136.415 64.7696 143.444 57.7399 143.444 49.0684C143.444 40.3969 136.415 33.3672 127.745 33.3672C119.074 33.3672 112.045 40.3969 112.045 49.0684C112.045 57.7399 119.074 64.7696 127.745 64.7696Z" fill="#FD6A1C"/>
</g>
<g filter="url(#filter2_d_1497_53)">
<path d="M127.745 221.781C136.415 221.781 143.444 214.752 143.444 206.08C143.444 197.409 136.415 190.379 127.745 190.379C119.074 190.379 112.045 197.409 112.045 206.08C112.045 214.752 119.074 221.781 127.745 221.781Z" fill="#FD6A1C"/>
</g>
<g filter="url(#filter3_d_1497_53)">
<path d="M127.745 158.975C143.847 158.975 156.901 145.92 156.901 129.816C156.901 113.711 143.847 100.656 127.745 100.656C111.642 100.656 98.5884 113.711 98.5884 129.816C98.5884 145.92 111.642 158.975 127.745 158.975Z" fill="#FD6A1C"/>
</g>
<defs>
<filter id="filter0_d_1497_53" x="44.9895" y="47.0527" width="165.511" height="165.526" filterUnits="userSpaceOnUse" color-interpolation-filters="sRGB">
<feFlood flood-opacity="0" result="BackgroundImageFix"/>
<feColorMatrix in="SourceAlpha" type="matrix" values="0 0 0 0 0 0 0 0 0 0 0 0 0 0 0 0 0 0 127 0" result="hardAlpha"/>
<feOffset/>
<feGaussianBlur stdDeviation="2.5"/>
<feComposite in2="hardAlpha" operator="out"/>
<feColorMatrix type="matrix" values="0 0 0 0 0.992157 0 0 0 0 0.415686 0 0 0 0 0.109804 0 0 0 0.25 0"/>
<feBlend mode="normal" in2="BackgroundImageFix" result="effect1_dropShadow_1497_53"/>
<feBlend mode="normal" in="SourceGraphic" in2="effect1_dropShadow_1497_53" result="shape"/>
</filter>
<filter id="filter1_d_1497_53" x="107.045" y="28.3672" width="41.3992" height="41.4023" filterUnits="userSpaceOnUse" color-interpolation-filters="sRGB">
<feFlood flood-opacity="0" result="BackgroundImageFix"/>
<feColorMatrix in="SourceAlpha" type="matrix" values="0 0 0 0 0 0 0 0 0 0 0 0 0 0 0 0 0 0 127 0" result="hardAlpha"/>
<feOffset/>
<feGaussianBlur stdDeviation="2.5"/>
<feComposite in2="hardAlpha" operator="out"/>
<feColorMatrix type="matrix" values="0 0 0 0 0.992157 0 0 0 0 0.415686 0 0 0 0 0.109804 0 0 0 0.25 0"/>
<feBlend mode="normal" in2="BackgroundImageFix" result="effect1_dropShadow_1497_53"/>
<feBlend mode="normal" in="SourceGraphic" in2="effect1_dropShadow_1497_53" result="shape"/>
</filter>
<filter id="filter2_d_1497_53" x="107.045" y="185.379" width="41.3992" height="41.4023" filterUnits="userSpaceOnUse" color-interpolation-filters="sRGB">
<feFlood flood-opacity="0" result="BackgroundImageFix"/>
<feColorMatrix in="SourceAlpha" type="matrix" values="0 0 0 0 0 0 0 0 0 0 0 0 0 0 0 0 0 0 127 0" result="hardAlpha"/>
<feOffset/>
<feGaussianBlur stdDeviation="2.5"/>
<feComposite in2="hardAlpha" operator="out"/>
<feColorMatrix type="matrix" values="0 0 0 0 0.992157 0 0 0 0 0.415686 0 0 0 0 0.109804 0 0 0 0.25 0"/>
<feBlend mode="normal" in2="BackgroundImageFix" result="effect1_dropShadow_1497_53"/>
<feBlend mode="normal" in="SourceGraphic" in2="effect1_dropShadow_1497_53" result="shape"/>
</filter>
<filter id="filter3_d_1497_53" x="93.5884" y="95.6562" width="68.313" height="68.3184" filterUnits="userSpaceOnUse" color-interpolation-filters="sRGB">
<feFlood flood-opacity="0" result="BackgroundImageFix"/>
<feColorMatrix in="SourceAlpha" type="matrix" values="0 0 0 0 0 0 0 0 0 0 0 0 0 0 0 0 0 0 127 0" result="hardAlpha"/>
<feOffset/>
<feGaussianBlur stdDeviation="2.5"/>
<feComposite in2="hardAlpha" operator="out"/>
<feColorMatrix type="matrix" values="0 0 0 0 0.992157 0 0 0 0 0.415686 0 0 0 0 0.109804 0 0 0 0.25 0"/>
<feBlend mode="normal" in2="BackgroundImageFix" result="effect1_dropShadow_1497_53"/>
<feBlend mode="normal" in="SourceGraphic" in2="effect1_dropShadow_1497_53" result="shape"/>
</filter>
</defs>
</svg>
