<svg width="256" height="256" viewBox="0 0 256 256" fill="none" xmlns="http://www.w3.org/2000/svg">
<g clip-path="url(#clip0_741_46)">
<circle cx="128" cy="128" r="128" fill="#242424"/>
<g clip-path="url(#clip1_741_46)">
<path d="M76.9063 161.506C76.8718 162.061 76.6673 162.591 76.3206 163.024C75.9739 163.458 75.502 163.774 74.969 163.93C74.436 164.086 73.868 164.074 73.3423 163.895C72.8166 163.716 72.3588 163.38 72.0313 162.931L33.1813 126.463C32.7185 126.132 32.3613 125.675 32.1529 125.146C31.9445 124.617 31.8937 124.039 32.0068 123.482C32.1198 122.924 32.3918 122.412 32.7899 122.006C33.188 121.6 33.6951 121.318 34.25 121.194L88.625 99.2751C91.1563 98.2626 92.675 99.6126 92 102.275L76.9063 161.506Z" fill="#3F4971"/>
<path d="M44.8062 196.175C42.725 198.05 40.6437 197.225 40.1562 194.506L29.5062 135.238C29.0187 132.538 30.2562 131.863 32.2437 133.738L69.2187 168.444C69.6906 168.867 70.0657 169.387 70.3184 169.968C70.5711 170.549 70.6954 171.178 70.683 171.811C70.6705 172.445 70.5215 173.068 70.2462 173.639C69.9708 174.21 69.5756 174.715 69.0875 175.119L44.8062 196.175ZM89.3937 87.4813C89.814 87.8884 90.1205 88.3982 90.283 88.9603C90.4454 89.5224 90.4581 90.1172 90.3198 90.6857C90.1815 91.2542 89.8969 91.7767 89.4944 92.2013C89.0918 92.6259 88.5853 92.9379 88.025 93.1063L33.8375 114.875C31.3062 115.906 30.0875 114.631 30.95 112.044L53.2062 51.9126C53.3018 51.3684 53.5621 50.8666 53.9519 50.475C54.3417 50.0834 54.8422 49.8209 55.386 49.7227C55.9297 49.6246 56.4905 49.6957 56.9926 49.9263C57.4947 50.157 57.9139 50.5361 58.1937 51.0126L89.3937 87.4813ZM32.6187 186.125C33.1062 188.825 32.3 189.163 30.7437 186.856L9.87495 154.25C9.14759 152.997 8.78659 151.564 8.83299 150.116C8.8794 148.667 9.33135 147.261 10.1375 146.056L19.5125 133.4C21.1437 131.188 22.8687 131.525 23.3562 134.319L32.6187 186.125ZM26.0187 108.388C25.0625 110.975 23.5625 110.938 22.7 108.388L15.5 86.7501C15.1038 85.3347 15.0895 83.8398 15.4583 82.4171C15.8272 80.9944 16.5661 79.6947 17.6 78.6501L43.2312 55.2313C45.2562 53.3563 46.1375 53.9751 45.1062 56.5626L26.0187 108.388ZM19.25 116.75C19.6526 118.225 19.7371 119.768 19.4979 121.277C19.2587 122.787 18.7012 124.229 17.8625 125.506L10.5125 135.5C8.86245 137.713 7.7562 137.375 8.03745 134.544L11.5625 100.044C11.8437 97.3063 12.7812 97.1938 13.6437 99.8188L19.25 116.75ZM48.1437 39.2751C49.0437 40.3438 48.1437 42.7251 46.1187 44.5626L34.5875 55.0813C32.5625 56.9563 32.2437 56.6188 33.875 54.4251L43.5125 41.3001C45.1437 39.1626 47.225 38.2251 48.1437 39.2751ZM120.781 222.369C120.576 222.896 120.22 223.352 119.759 223.68C119.298 224.008 118.752 224.195 118.186 224.216C117.621 224.238 117.061 224.095 116.576 223.803C116.091 223.512 115.702 223.085 115.456 222.575L85.3625 178.513C84.9698 178.119 84.7071 177.615 84.6097 177.068C84.5124 176.521 84.585 175.957 84.8179 175.452C85.0508 174.948 85.4328 174.527 85.9123 174.246C86.3918 173.965 86.9459 173.838 87.5 173.881L147.969 167.6C150.687 167.319 151.719 169.025 150.406 171.35L120.781 222.369ZM108.181 222.425C109.719 224.675 108.875 225.819 106.306 224.938L49.6062 205.55C47.0187 204.669 46.5875 202.475 48.6687 200.675L73.0437 179.619C73.5126 179.197 74.0673 178.882 74.6696 178.695C75.2719 178.508 75.9075 178.453 76.5328 178.535C77.1582 178.617 77.7583 178.834 78.2921 179.17C78.8258 179.506 79.2806 179.953 79.625 180.481L108.181 222.425Z" fill="#546095"/>
<path d="M149.225 157.363C151.1 159.444 150.238 161.375 147.519 161.656L86.15 168.031C85.5761 168.163 84.9772 168.136 84.4176 167.953C83.858 167.77 83.3587 167.438 82.9733 166.993C82.5879 166.548 82.331 166.006 82.23 165.426C82.129 164.846 82.1878 164.249 82.4 163.7L97.8125 103.625C98.4875 100.963 100.513 100.494 102.294 102.575L149.225 157.363Z" fill="#15F9FF"/>
<path d="M193.325 208.869C193.749 209.216 194.059 209.683 194.213 210.21C194.366 210.736 194.358 211.296 194.187 211.817C194.017 212.338 193.693 212.796 193.258 213.13C192.823 213.463 192.297 213.658 191.75 213.687L129.294 226.812C126.631 227.394 125.544 225.912 126.95 223.531L156.369 173C156.61 172.467 156.987 172.007 157.464 171.667C157.94 171.327 158.497 171.118 159.08 171.063C159.662 171.008 160.249 171.108 160.78 171.352C161.312 171.597 161.769 171.978 162.106 172.456L193.325 208.869ZM92.8812 242.675C91.5778 243.302 90.1232 243.547 88.6862 243.381C87.2492 243.215 85.8887 242.645 84.7625 241.737L55.7937 215.975C53.7312 214.1 54.1812 213.406 56.7687 214.287L106.381 231.162C108.969 232.062 109.119 233.844 106.7 235.137L92.8812 242.675ZM160.231 245.131C159.056 246 157.671 246.541 156.219 246.7C154.766 246.858 153.297 246.627 151.962 246.031L131.75 235.681C129.312 234.425 129.5 232.944 132.181 232.381L185.975 220.981C188.637 220.419 189.106 221.394 186.987 223.119L160.231 245.131ZM103.887 246.406C101.15 246.275 100.906 245.112 103.306 243.8L114.125 237.969C115.5 237.321 116.999 236.976 118.519 236.956C120.039 236.937 121.546 237.244 122.937 237.856L138.762 245.956C141.2 247.194 140.956 248.112 138.219 247.981L103.887 246.406ZM203.375 220.606C204.294 221.675 203.056 223.606 200.637 224.9L186.387 232.55C183.969 233.844 183.725 233.487 185.844 231.744L197.881 221.844C200 220.1 202.475 219.537 203.375 220.606Z" fill="#546095"/>
<path d="M167.375 156.725C164.844 157.737 163.325 156.406 164 153.744L179.131 94.4937C179.166 93.9395 179.37 93.4095 179.717 92.9757C180.064 92.542 180.536 92.2257 181.068 92.0699C181.601 91.9141 182.169 91.9264 182.695 92.1051C183.221 92.2839 183.679 92.6204 184.006 93.0687L222.856 129.537C223.319 129.861 223.679 130.311 223.893 130.834C224.107 131.357 224.167 131.93 224.064 132.486C223.961 133.041 223.701 133.555 223.314 133.967C222.927 134.378 222.429 134.67 221.881 134.806L167.375 156.725Z" fill="#3F4971"/>
<path d="M226.494 120.763C226.981 123.463 225.744 124.156 223.756 122.281L186.763 87.5563C186.293 87.1316 185.921 86.6113 185.67 86.0304C185.419 85.4495 185.296 84.8215 185.308 84.1889C185.321 83.5562 185.469 82.9336 185.742 82.363C186.016 81.7925 186.408 81.2872 186.894 80.8813L211.269 59.8438C213.35 57.9688 215.431 58.7938 215.919 61.4938L226.494 120.763ZM202.794 204.088C202.698 204.632 202.438 205.133 202.048 205.525C201.658 205.917 201.158 206.179 200.614 206.277C200.07 206.376 199.509 206.304 199.007 206.074C198.505 205.843 198.086 205.464 197.806 204.988L166.588 168.519C166.167 168.112 165.861 167.602 165.698 167.04C165.536 166.478 165.523 165.883 165.661 165.314C165.8 164.746 166.084 164.223 166.487 163.799C166.889 163.374 167.396 163.062 167.956 162.894L222.163 141.125C224.694 140.094 225.913 141.369 225.05 143.956L202.794 204.088ZM246.125 101.844C246.848 103.099 247.207 104.53 247.16 105.978C247.114 107.426 246.665 108.832 245.863 110.038L236.488 122.694C234.856 124.906 233.131 124.569 232.738 121.794L223.363 69.9125C222.894 67.2125 223.7 66.875 225.238 69.1813L246.125 101.844ZM240.5 169.344C240.89 170.76 240.902 172.253 240.533 173.675C240.165 175.096 239.429 176.396 238.4 177.444L212.806 200.769C210.781 202.644 209.9 202.025 210.931 199.438L230.094 147.613C231.05 145.025 232.55 145.063 233.413 147.613L240.5 169.344ZM244.438 155.956C244.156 158.694 243.219 158.788 242.356 156.181L236.731 139.306C236.329 137.832 236.244 136.289 236.483 134.779C236.723 133.269 237.28 131.828 238.119 130.55L245.469 120.65C247.1 118.438 248.225 118.888 247.944 121.606L244.438 155.956ZM212.469 214.644C210.838 216.856 208.719 217.794 207.856 216.725C206.994 215.656 207.856 213.275 209.881 211.438L221.394 200.938C223.419 199.063 223.756 199.381 222.125 201.594L212.469 214.644Z" fill="#546095"/>
<path d="M170.638 77.4873C171.027 77.8833 171.286 78.3882 171.382 78.9351C171.477 79.482 171.404 80.045 171.172 80.5494C170.94 81.0538 170.561 81.4758 170.083 81.7594C169.606 82.043 169.054 82.1748 168.5 82.1373L108.031 88.3998C105.313 88.6998 104.281 86.9748 105.594 84.6498L135.219 33.6685C135.426 33.1423 135.783 32.6881 136.245 32.3617C136.707 32.0353 137.255 31.8508 137.82 31.8309C138.385 31.811 138.944 31.9565 139.428 32.2496C139.912 32.5428 140.3 32.9707 140.544 33.481L170.638 77.4873Z" fill="#3F4971"/>
<path d="M183.05 76.3813C182.58 76.8021 182.024 77.1161 181.421 77.3017C180.818 77.4873 180.182 77.54 179.556 77.4562C178.931 77.3725 178.331 77.1543 177.798 76.8166C177.265 76.4789 176.812 76.0298 176.469 75.5L147.819 33.5938C146.263 31.325 147.125 30.1813 149.694 31.0813L206.375 50.45C208.963 51.3313 209.394 53.525 207.313 55.325L183.05 76.3813ZM158.188 152.375C157.513 155.038 155.488 155.525 153.706 153.425L106.831 98.6188C104.956 96.5188 105.8 94.5875 108.538 94.3063L169.888 87.9313C170.46 87.8065 171.056 87.8384 171.612 88.0235C172.169 88.2087 172.665 88.5403 173.049 88.9835C173.432 89.4267 173.689 89.9652 173.793 90.5422C173.897 91.1192 173.843 91.7135 173.638 92.2625L158.188 152.375ZM99.6313 83C99.3884 83.532 99.0092 83.9904 98.5322 84.3287C98.0551 84.667 97.4972 84.8732 96.9148 84.9265C96.3324 84.9798 95.7463 84.8782 95.2158 84.6321C94.6853 84.386 94.2292 84.0041 93.8938 83.525L62.6751 47.1313C62.2508 46.7841 61.9414 46.3167 61.7875 45.7905C61.6336 45.2642 61.6424 44.7038 61.8127 44.1827C61.9831 43.6616 62.307 43.2041 62.7419 42.8704C63.1769 42.5366 63.7026 42.3422 64.2501 42.3125L126.706 29.1875C129.369 28.625 130.456 30.1063 129.05 32.4688L99.6313 83ZM149.619 24.7625C147.031 23.8813 146.881 22.0813 149.3 20.7875L163.119 13.2875C164.423 12.6647 165.877 12.4222 167.313 12.588C168.749 12.7539 170.109 13.3212 171.238 14.225L200.206 39.9875C202.269 41.8625 201.819 42.5563 199.231 41.675L149.619 24.7625ZM70.0438 35.0188C67.3626 35.5813 66.9126 34.625 69.0313 32.8813L95.7688 10.8688C96.9438 9.99985 98.3286 9.45863 99.7815 9.30049C101.234 9.14236 102.703 9.37299 104.038 9.9688L124.25 20.3188C126.688 21.575 126.5 23.0563 123.819 23.6188L70.0438 35.0188ZM141.856 18.05C140.475 18.6762 138.976 19 137.459 19C135.943 19 134.444 18.6762 133.063 18.05L117.238 10.0438C114.875 8.8063 115.044 7.88755 117.763 8.00005L152.113 9.61255C154.85 9.72505 155.113 10.9063 152.694 12.2L141.856 18.05ZM58.1188 34.25C56.0001 35.9938 53.5251 36.5563 52.6251 35.4875C51.7251 34.4188 53.0001 32.375 55.3438 31.1188L69.6126 23.45C72.0313 22.1563 72.2751 22.5125 70.1563 24.2563L58.1188 34.25ZM39.8751 208.344C40.9251 207.425 43.2876 208.344 45.1251 210.388L55.5688 221.975C57.4438 224 57.1063 224.338 54.9126 222.688L41.9376 212.994C39.6876 211.344 38.7501 209.263 39.8751 208.344ZM220.044 52.175C221.094 51.2563 223.025 52.4938 224.3 54.9125L231.913 69.2563C233.206 71.6938 232.85 71.9375 231.106 69.8L221.263 57.7063C219.538 55.5688 218.994 53 220.044 52.175ZM214.119 43.0063C216.313 44.6563 217.25 46.7563 216.181 47.6563C215.113 48.5563 212.769 47.6563 210.931 45.6125L200.488 34.025C198.613 32 198.95 31.6625 201.144 33.3125L214.119 43.0063ZM34.7188 198.294C36.4626 200.431 37.0063 202.925 35.9563 203.919C34.9063 204.913 32.9751 203.581 31.7001 201.163L24.0688 186.744C22.7938 184.25 23.1501 184.063 24.8751 186.125L34.7188 198.294Z" fill="#546095"/>
</g>
</g>
<defs>
<clipPath id="clip0_741_46">
<rect width="256" height="256" fill="white"/>
</clipPath>
<clipPath id="clip1_741_46">
<rect width="240" height="240" fill="white" transform="translate(8 8)"/>
</clipPath>
</defs>
</svg>
