<svg width="300" height="300" viewBox="0 0 300 300" fill="none" xmlns="http://www.w3.org/2000/svg">
<path d="M259.128 72.3968C256.682 63.0012 248.839 53.5667 234.707 43.1228C223.37 34.7755 211.334 30 201.745 30C199.842 30 198.095 30.1941 196.348 30.5435C192 31.4365 188.156 34.6202 185.71 39.4344C182.759 45.1029 182.06 52.7514 183.963 57.3716C184.662 58.8081 185.516 60.5552 186.564 62.147C177.324 67.8154 172.082 69.4073 171.384 69.6014C195.455 77.7546 215.489 94.7988 228.029 117.007L228.184 114.871C228.689 109.009 230.436 102.253 232.882 95.3423C235.328 96.0411 237.774 96.3906 240.22 96.3906C246.665 96.3906 252.256 93.7117 255.75 88.9362C259.283 84.0831 260.681 77.7158 259.128 72.3968Z" fill="#5E12A0"/>
<path d="M234.008 90.1397C249.887 94.5657 256.332 82.1417 254.236 73.7944C251.984 65.447 244.646 56.9444 231.756 47.3546C218.866 37.7649 205.782 33.8824 197.396 35.6295C189.01 37.4155 186.603 50.383 188.699 55.3526C189.553 57.2938 191.495 60.128 194.096 63.3505C190.796 65.6412 187.651 67.4271 185.05 69.0189C201.084 76.2792 215.023 87.6549 225.505 101.865C226.709 97.0893 228.456 92.8186 230.048 89.0914C231.213 89.2467 232.61 89.5961 234.008 90.1397Z" fill="url(#paint0_radial_3834_3360)"/>
<path d="M143.197 264.114C197.008 264.114 240.647 219.698 240.647 164.878C240.647 110.057 197.008 65.6411 143.197 65.6411C89.3853 65.6411 45.7461 110.057 45.7461 164.878C45.7461 219.698 89.3853 264.114 143.197 264.114Z" fill="url(#paint1_radial_3834_3360)"/>
<path opacity="0.6" d="M246.199 65.6412C232.96 51.4313 221.778 47.7041 208.384 44.6757C197.94 42.1909 200.696 36.1731 213.431 37.4155C207.335 35.2801 201.589 34.7366 197.396 35.6295C189.01 37.4155 186.603 50.383 188.661 55.3526C189.515 57.2938 191.456 60.1281 194.057 63.3505C189.359 66.5342 185.36 68.8637 182.021 70.6108C183.574 71.3096 185.516 72.2026 187.768 73.445C193.708 76.6286 200.153 81.9476 200.153 81.9476C190.408 73.445 192.465 69.5237 205.899 59.9339C210.092 56.9056 217.74 57.255 224.884 60.9822C232.028 64.7094 240.414 74.105 240.414 74.105L232.377 89.7126C232.882 89.9068 233.426 90.0621 233.93 90.2562C238.978 91.6927 242.977 91.3045 246.121 90.0621C249.887 87.8102 259.477 80.0064 246.199 65.6412Z" fill="#A98698"/>
<path d="M208.228 53.2172C211.723 54.6537 216.265 57.1385 221.817 60.8657C228.456 65.2917 234.202 70.2613 237.852 74.1826C231.756 82.3359 227.757 93.5174 225.311 101.36C226.515 103.146 227.912 104.893 229.155 106.679C230.358 102.253 232.455 95.6528 235.25 89.0914C235.949 89.2855 236.803 89.2855 237.696 89.2855C239.793 89.2855 242.239 88.9361 244.141 87.3443C245.539 86.296 247.092 84.3159 246.937 80.7829C246.937 77.4051 244.335 73.1344 238.9 68.0095C235.056 64.2823 229.854 60.2057 224.612 56.4785C209.626 46.3452 199.143 43.511 194.445 48.3252C191.301 51.5089 191.65 55.4302 192.698 58.2644C187.108 61.9916 182.41 64.6705 179.265 66.4177C181.361 67.1165 183.264 68.0095 185.36 68.9024C190.951 65.7965 198.988 60.6716 208.228 53.2172ZM241.152 78.6087C241.657 79.5016 241.851 80.3946 241.851 80.8993C241.851 82.4912 241.346 83.0347 240.996 83.3841C240.298 83.9277 238.9 84.2771 237.696 84.2771C238.706 82.1417 239.948 80.3558 241.152 78.6087ZM198.095 52.1301C198.6 51.5865 199.997 51.2371 202.288 51.5865C200.541 53.0231 198.794 54.2655 197.047 55.5079C196.891 54.2655 197.047 53.0231 198.095 52.1301Z" fill="#5E12A0"/>
<path d="M143.197 59.7788C86.1628 59.7788 40 106.835 40 164.878C40 222.921 86.2016 269.977 143.197 269.977C200.192 269.977 246.393 222.921 246.393 164.878C246.393 106.835 199.997 59.7788 143.197 59.7788ZM143.197 264.114C89.3465 264.114 45.7461 219.737 45.7461 164.878C45.7461 110.018 89.3465 65.6414 143.197 65.6414C197.047 65.6414 240.647 110.018 240.647 164.878C240.647 219.737 196.891 264.114 143.197 264.114Z" fill="#5E12A0"/>
<path opacity="0.6" d="M143.197 264.114C197.008 264.114 240.647 219.698 240.647 164.878C240.647 110.057 197.008 65.6411 143.197 65.6411C89.3853 65.6411 45.7461 110.057 45.7461 164.878C45.7461 219.698 89.3853 264.114 143.197 264.114Z" fill="url(#paint2_linear_3834_3360)"/>
<path opacity="0.6" d="M142.498 252.039C89.3077 243.343 53.2394 192.366 61.9362 138.244C65.7799 114.289 77.6214 93.8667 94.355 79.1133C69.9729 93.5173 51.8417 118.521 46.9498 149.076C38.4083 203.236 74.4766 254.175 127.473 262.872C157.096 267.841 185.71 258.446 206.792 239.965C188.156 250.952 165.482 255.767 142.498 252.039Z" fill="#A98698"/>
<path opacity="0.6" d="M158.688 67.0387C134.112 62.9621 110.234 68.6306 90.7054 81.2486C90.356 81.5981 90.0065 81.9475 90.0065 81.9475C97.4997 77.3273 108.487 73.2507 108.487 73.2507C80.2615 89.9454 71.5259 108.931 71.5259 108.931C82.5133 87.2665 114.777 72.0083 140.052 70.96C165.327 69.9118 181.905 77.5215 202.094 94.022C222.322 110.717 234.513 144.805 233.309 171.788C232.261 198.772 218.323 220.591 218.323 220.591C227.913 207.973 233.659 198.772 237.308 189.337C238.007 186.503 238.706 183.669 239.055 180.64C247.791 126.713 211.878 75.7355 158.688 67.0387Z" fill="url(#paint3_linear_3834_3360)"/>
<path d="M235.755 163.985C235.755 216.01 194.251 258.252 143.197 258.252C92.103 258.252 50.4438 216.01 50.4438 163.985H235.755Z" fill="url(#paint4_linear_3834_3360)"/>
<g opacity="0.6">
<path opacity="0.6" d="M228.417 163.985C228.417 214.768 189.01 256.31 139.508 258.252C140.712 258.252 141.954 258.252 143.158 258.252C194.251 258.252 235.716 216.01 235.716 163.985H228.417Z" fill="url(#paint5_linear_3834_3360)"/>
</g>
<g opacity="0.7">
<path opacity="0.7" d="M63.5278 163.985H50.4438C50.4438 216.01 91.9477 258.252 143.002 258.252C145.254 258.252 147.351 258.252 149.447 258.058C101.537 254.525 63.5278 213.681 63.5278 163.985Z" fill="url(#paint6_linear_3834_3360)"/>
</g>
<path d="M235.561 164.878C235.561 154.046 217.08 147.834 192.504 145.698C174.722 144.262 156.785 146.048 136.208 152.454C118.426 157.773 102.392 156.88 90.7053 155.482C64.7314 152.454 50.4438 152.104 50.4438 164.878C50.4438 183.358 87.4051 206.42 142.847 198.422C170.918 194.346 185.399 185.999 201.939 180.33C219.876 174.273 235.561 174.468 235.561 164.878Z" fill="url(#paint7_linear_3834_3360)"/>
<path d="M173.519 120.113C182.177 120.113 189.204 112.969 189.204 104.156C189.204 95.3423 182.177 88.1597 173.519 88.1597C164.861 88.1597 157.833 95.3034 157.833 104.156C157.833 113.008 164.861 120.113 173.519 120.113Z" fill="white"/>
<path d="M199.143 132.032C202.793 132.032 205.782 129.004 205.782 125.277C205.782 121.549 202.832 118.521 199.143 118.521C195.494 118.521 192.504 121.549 192.504 125.277C192.504 129.004 195.494 132.032 199.143 132.032Z" fill="white"/>
<g opacity="0.6">
<path opacity="0.6" d="M222.865 91.3823C222.71 91.3823 222.516 91.3823 222.516 91.3823C221.468 91.1881 220.769 90.1399 220.963 88.8975C222.516 80.7442 229.155 72.9016 229.504 72.5522C230.203 71.6592 231.601 71.6592 232.3 72.3581C233.154 73.0569 233.154 74.4934 232.455 75.1923C232.3 75.3864 226.165 82.6467 224.768 89.7516C224.612 90.8387 223.719 91.3823 222.865 91.3823Z" fill="url(#paint8_linear_3834_3360)"/>
</g>
<path opacity="0.2" d="M136.752 238.878C139.43 238.878 141.643 236.665 141.643 233.909C141.643 231.152 139.469 228.939 136.752 228.939C134.073 228.939 131.86 231.152 131.86 233.909C131.86 236.665 134.034 238.878 136.752 238.878Z" fill="white"/>
<g opacity="0.4">
<path opacity="0.6" d="M133.956 237.131C132.054 235.19 132.054 231.967 133.956 230.026C134.306 229.676 134.655 229.482 135.005 229.133C134.306 229.327 133.801 229.676 133.257 230.181C131.355 232.122 131.355 235.345 133.257 237.286C134.81 238.878 137.256 239.227 139.198 238.179C137.45 238.917 135.354 238.528 133.956 237.131Z" fill="url(#paint9_linear_3834_3360)"/>
</g>
<path opacity="0.3" d="M138.46 232.511C139.042 232.511 139.508 232.045 139.508 231.462C139.508 230.88 139.042 230.414 138.46 230.414C137.878 230.414 137.412 230.88 137.412 231.462C137.45 232.045 137.916 232.511 138.46 232.511Z" fill="white"/>
<path opacity="0.2" d="M162.182 236.393C164.861 236.393 167.074 234.18 167.074 231.424C167.074 228.667 164.9 226.454 162.182 226.454C159.503 226.454 157.29 228.667 157.29 231.424C157.329 234.18 159.503 236.393 162.182 236.393Z" fill="white"/>
<g opacity="0.4">
<path opacity="0.6" d="M159.387 234.646C157.484 232.705 157.484 229.482 159.387 227.541C159.736 227.191 160.085 226.997 160.435 226.648C159.736 226.842 159.231 227.191 158.688 227.696C156.785 229.637 156.785 232.86 158.688 234.801C160.241 236.393 162.687 236.742 164.628 235.694C162.881 236.432 160.784 236.044 159.387 234.646Z" fill="url(#paint10_linear_3834_3360)"/>
</g>
<path opacity="0.3" d="M163.929 230.026C164.512 230.026 164.977 229.56 164.977 228.977C164.977 228.395 164.512 227.929 163.929 227.929C163.347 227.929 162.881 228.395 162.881 228.977C162.881 229.56 163.347 230.026 163.929 230.026Z" fill="white"/>
<path opacity="0.2" d="M149.641 247.963C151.66 247.963 153.291 246.294 153.291 244.236C153.291 242.178 151.66 240.509 149.641 240.509C147.623 240.509 145.992 242.178 145.992 244.236C145.992 246.294 147.623 247.963 149.641 247.963Z" fill="white"/>
<g opacity="0.4">
<path opacity="0.6" d="M147.545 246.527C146.147 245.09 146.147 242.605 147.545 241.208C147.7 241.013 148.05 240.858 148.244 240.664C147.739 240.858 147.39 241.208 147.04 241.557C145.643 242.994 145.643 245.478 147.04 246.876C148.244 248.118 149.991 248.313 151.583 247.42C150.146 247.963 148.593 247.614 147.545 246.527Z" fill="url(#paint11_linear_3834_3360)"/>
</g>
<path opacity="0.3" d="M150.845 242.993C151.233 242.993 151.544 242.683 151.544 242.295C151.544 241.906 151.233 241.596 150.845 241.596C150.457 241.596 150.146 241.906 150.146 242.295C150.146 242.644 150.457 242.993 150.845 242.993Z" fill="white"/>
<path opacity="0.2" d="M172.121 245.284C174.14 245.284 175.771 243.614 175.771 241.557C175.771 239.499 174.14 237.83 172.121 237.83C170.102 237.83 168.472 239.499 168.472 241.557C168.472 243.614 170.102 245.284 172.121 245.284Z" fill="white"/>
<g opacity="0.4">
<path opacity="0.6" d="M170.025 243.886C168.627 242.45 168.627 239.965 170.025 238.567C170.18 238.373 170.529 238.218 170.724 238.024C170.219 238.218 169.869 238.567 169.52 238.917C168.122 240.353 168.122 242.838 169.52 244.236C170.724 245.478 172.471 245.672 174.062 244.779C172.665 245.284 171.073 244.935 170.025 243.886Z" fill="url(#paint12_linear_3834_3360)"/>
</g>
<path opacity="0.3" d="M173.364 240.315C173.752 240.315 174.062 240.004 174.062 239.616C174.062 239.228 173.752 238.917 173.364 238.917C172.975 238.917 172.665 239.228 172.665 239.616C172.665 240.004 172.975 240.315 173.364 240.315Z" fill="white"/>
<path opacity="0.2" d="M115.98 237.131C120.406 237.131 124.017 233.481 124.017 228.977C124.017 224.474 120.445 220.824 115.98 220.824C111.515 220.824 107.944 224.474 107.944 228.977C107.982 233.481 111.554 237.131 115.98 237.131Z" fill="white"/>
<g opacity="0.4">
<path opacity="0.6" d="M111.477 234.102C108.332 230.919 108.332 225.755 111.477 222.572C111.981 222.028 112.525 221.679 113.224 221.329C112.176 221.679 111.321 222.377 110.428 223.115C107.284 226.299 107.284 231.462 110.428 234.646C113.03 237.325 117.067 237.83 120.173 235.888C117.223 237.131 113.729 236.587 111.477 234.102Z" fill="url(#paint13_linear_3834_3360)"/>
</g>
<path opacity="0.3" d="M118.776 226.454C119.746 226.454 120.523 225.678 120.523 224.668C120.523 223.698 119.746 222.882 118.776 222.882C117.805 222.882 117.029 223.659 117.029 224.668C117.029 225.678 117.805 226.454 118.776 226.454Z" fill="white"/>
<path opacity="0.2" d="M187.651 217.058C192.077 217.058 195.688 213.409 195.688 208.905C195.688 204.401 192.116 200.752 187.651 200.752C183.225 200.752 179.614 204.401 179.614 208.905C179.614 213.409 183.225 217.058 187.651 217.058Z" fill="white"/>
<g opacity="0.4">
<path opacity="0.6" d="M182.914 214.03C179.77 210.847 179.77 205.683 182.914 202.499C183.419 201.956 183.963 201.606 184.662 201.257C183.613 201.606 182.759 202.305 181.866 203.043C178.721 206.226 178.721 211.39 181.866 214.574C184.467 217.253 188.505 217.757 191.611 215.816C188.699 217.059 185.36 216.515 182.914 214.03Z" fill="url(#paint14_linear_3834_3360)"/>
</g>
<path opacity="0.3" d="M190.447 206.421C191.417 206.421 192.194 205.644 192.194 204.635C192.194 203.664 191.417 202.849 190.447 202.849C189.476 202.849 188.699 203.625 188.699 204.635C188.699 205.605 189.476 206.421 190.447 206.421Z" fill="white"/>
<defs>
<radialGradient id="paint0_radial_3834_3360" cx="0" cy="0" r="1" gradientUnits="userSpaceOnUse" gradientTransform="translate(251.054 62.6149) scale(77.915 79.3421)">
<stop stop-color="#FFEAFF" stop-opacity="0.6"/>
<stop offset="0.6807" stop-color="#A087C9"/>
<stop offset="1" stop-color="#10002F"/>
</radialGradient>
<radialGradient id="paint1_radial_3834_3360" cx="0" cy="0" r="1" gradientUnits="userSpaceOnUse" gradientTransform="translate(207.706 96.4537) scale(190.629 194.121)">
<stop stop-color="#FFEAFF" stop-opacity="0.6"/>
<stop offset="0.6807" stop-color="#A087C9"/>
<stop offset="1" stop-color="#10002F"/>
</radialGradient>
<linearGradient id="paint2_linear_3834_3360" x1="127.03" y1="262.745" x2="159.341" y2="66.9893" gradientUnits="userSpaceOnUse">
<stop stop-color="#81FFFF"/>
<stop offset="0.6202" stop-color="white" stop-opacity="0"/>
</linearGradient>
<linearGradient id="paint3_linear_3834_3360" x1="212.75" y1="98.4603" x2="130.834" y2="172.269" gradientUnits="userSpaceOnUse">
<stop offset="0.2888" stop-color="white"/>
<stop offset="0.7796" stop-color="white" stop-opacity="0"/>
</linearGradient>
<linearGradient id="paint4_linear_3834_3360" x1="50.4438" y1="211.111" x2="235.754" y2="211.111" gradientUnits="userSpaceOnUse">
<stop stop-color="#0002E9"/>
<stop offset="0.9952" stop-color="#FF00C7"/>
</linearGradient>
<linearGradient id="paint5_linear_3834_3360" x1="244.991" y1="172.807" x2="142.47" y2="267.952" gradientUnits="userSpaceOnUse">
<stop offset="0.2888" stop-color="white"/>
<stop offset="0.7796" stop-color="white" stop-opacity="0"/>
</linearGradient>
<linearGradient id="paint6_linear_3834_3360" x1="50.4438" y1="211.111" x2="149.462" y2="211.111" gradientUnits="userSpaceOnUse">
<stop stop-color="#000292"/>
<stop offset="0.9952" stop-color="#7D00C7"/>
</linearGradient>
<linearGradient id="paint7_linear_3834_3360" x1="50.6466" y1="172.64" x2="235.585" y2="172.64" gradientUnits="userSpaceOnUse">
<stop stop-color="#000292"/>
<stop offset="0.9952" stop-color="#BE00C7"/>
</linearGradient>
<linearGradient id="paint8_linear_3834_3360" x1="232.794" y1="71.8437" x2="219.149" y2="93.6174" gradientUnits="userSpaceOnUse">
<stop offset="0.2888" stop-color="white"/>
<stop offset="0.7796" stop-color="white" stop-opacity="0"/>
</linearGradient>
<linearGradient id="paint9_linear_3834_3360" x1="131.811" y1="233.966" x2="139.187" y2="233.966" gradientUnits="userSpaceOnUse">
<stop offset="0.2888" stop-color="white"/>
<stop offset="0.7796" stop-color="white" stop-opacity="0"/>
</linearGradient>
<linearGradient id="paint10_linear_3834_3360" x1="157.241" y1="231.48" x2="164.616" y2="231.48" gradientUnits="userSpaceOnUse">
<stop offset="0.2888" stop-color="white"/>
<stop offset="0.7796" stop-color="white" stop-opacity="0"/>
</linearGradient>
<linearGradient id="paint11_linear_3834_3360" x1="145.953" y1="244.324" x2="151.49" y2="244.324" gradientUnits="userSpaceOnUse">
<stop offset="0.2888" stop-color="white"/>
<stop offset="0.7796" stop-color="white" stop-opacity="0"/>
</linearGradient>
<linearGradient id="paint12_linear_3834_3360" x1="168.368" y1="241.661" x2="173.904" y2="241.661" gradientUnits="userSpaceOnUse">
<stop offset="0.2888" stop-color="white"/>
<stop offset="0.7796" stop-color="white" stop-opacity="0"/>
</linearGradient>
<linearGradient id="paint13_linear_3834_3360" x1="107.984" y1="229.185" x2="120.028" y2="229.185" gradientUnits="userSpaceOnUse">
<stop offset="0.2888" stop-color="white"/>
<stop offset="0.7796" stop-color="white" stop-opacity="0"/>
</linearGradient>
<linearGradient id="paint14_linear_3834_3360" x1="179.52" y1="209.124" x2="191.565" y2="209.124" gradientUnits="userSpaceOnUse">
<stop offset="0.2888" stop-color="white"/>
<stop offset="0.7796" stop-color="white" stop-opacity="0"/>
</linearGradient>
</defs>
</svg>
