<svg width="48" height="48" viewBox="0 0 48 48" fill="none" xmlns="http://www.w3.org/2000/svg">
<g clip-path="url(#clip0_5911_3012)">
<path fill-rule="evenodd" clip-rule="evenodd" d="M17.9464 -0.0535889C21.9464 -0.0535889 25.9465 -0.0535889 29.9464 -0.0535889C29.9464 0.446411 29.9464 0.946411 29.9464 1.44641C29.4464 1.44641 28.9465 1.44641 28.4464 1.44641C25.4464 1.44641 22.4464 1.44641 19.4464 1.44641C18.9464 1.44641 18.4465 1.44641 17.9464 1.44641C17.9464 0.946411 17.9464 0.446411 17.9464 -0.0535889Z" fill="#E18D02"/>
<path fill-rule="evenodd" clip-rule="evenodd" d="M17.9464 1.44641C17.9464 1.94641 17.9464 2.44641 17.9464 2.94641C17.4464 2.94641 16.9465 2.94641 16.4464 2.94641C15.9464 2.94641 15.4465 2.94641 14.9464 2.94641C14.9464 2.44641 14.9464 1.94641 14.9464 1.44641C15.9464 1.44641 16.9465 1.44641 17.9464 1.44641Z" fill="#E18D02"/>
<path fill-rule="evenodd" clip-rule="evenodd" d="M17.9464 1.44641C18.4465 1.44641 18.9464 1.44641 19.4464 1.44641C19.4464 1.94641 19.4464 2.44641 19.4464 2.94641C18.9464 2.94641 18.4465 2.94641 17.9464 2.94641C17.9464 2.44641 17.9464 1.94641 17.9464 1.44641Z" fill="#F7F335"/>
<path fill-rule="evenodd" clip-rule="evenodd" d="M19.4464 1.44641C22.4464 1.44641 25.4464 1.44641 28.4464 1.44641C28.4464 1.94641 28.4464 2.44641 28.4464 2.94641C28.9465 2.94641 29.4464 2.94641 29.9464 2.94641C30.9464 2.94641 31.9465 2.94641 32.9464 2.94641C32.9464 3.44641 32.9464 3.94641 32.9464 4.44641C33.4465 4.44641 33.9464 4.44641 34.4464 4.44641C34.9465 4.44641 35.4464 4.44641 35.9464 4.44641C35.9464 4.94641 35.9464 5.44641 35.9464 5.94641C35.9464 6.44641 35.9464 6.94641 35.9464 7.44641C35.4464 7.44641 34.9465 7.44641 34.4464 7.44641C34.4464 7.94641 34.4464 8.44641 34.4464 8.94641C33.9464 8.94641 33.4465 8.94641 32.9464 8.94641C31.9465 8.94641 30.9464 8.94641 29.9464 8.94641C29.9464 8.44641 29.9464 7.94641 29.9464 7.44641C25.9465 7.44641 21.9464 7.44641 17.9464 7.44641C17.9464 7.94641 17.9464 8.44641 17.9464 8.94641C16.9465 8.94641 15.9464 8.94641 14.9464 8.94641C14.9464 9.44641 14.9464 9.94641 14.9464 10.4464C13.9465 10.4464 12.9464 10.4464 11.9464 10.4464C11.9464 11.4464 11.9464 12.4464 11.9464 13.4464C11.4464 13.4464 10.9465 13.4464 10.4464 13.4464C10.4464 13.9464 10.4464 14.4464 10.4464 14.9464C9.94644 14.9464 9.44645 14.9464 8.94644 14.9464C8.94644 15.9464 8.94644 16.9464 8.94644 17.9464C8.44644 17.9464 7.94645 17.9464 7.44644 17.9464C7.44644 21.9464 7.44644 25.9464 7.44644 29.9464C7.94645 29.9464 8.44644 29.9464 8.94644 29.9464C8.94644 30.9464 8.94644 31.9464 8.94644 32.9464C8.94644 33.4464 8.94644 33.9464 8.94644 34.4464C8.44644 34.4464 7.94645 34.4464 7.44644 34.4464C7.44644 34.9464 7.44644 35.4464 7.44644 35.9464C6.94644 35.9464 6.44645 35.9464 5.94644 35.9464C5.44644 35.9464 4.94645 35.9464 4.44644 35.9464C4.44644 35.4464 4.44644 34.9464 4.44644 34.4464C3.94644 34.4464 3.44645 34.4464 2.94644 34.4464C2.94644 32.9464 2.94644 31.4464 2.94644 29.9464C2.44644 29.9464 1.94645 29.9464 1.44644 29.9464C1.44644 25.9464 1.44644 21.9464 1.44644 17.9464C1.94645 17.9464 2.44644 17.9464 2.94644 17.9464C2.94644 17.4464 2.94644 16.9464 2.94644 16.4464C3.44645 16.4464 3.94644 16.4464 4.44644 16.4464C4.44644 15.9464 4.44644 15.4464 4.44644 14.9464C4.94645 14.9464 5.44644 14.9464 5.94644 14.9464C5.94644 13.9464 5.94644 12.9464 5.94644 11.9464C6.94644 11.9464 7.94645 11.9464 8.94644 11.9464C8.94644 11.4464 8.94644 10.9464 8.94644 10.4464C9.44645 10.4464 9.94644 10.4464 10.4464 10.4464C10.4464 9.94641 10.4464 9.44641 10.4464 8.94641C10.9465 8.94641 11.4464 8.94641 11.9464 8.94641C11.9464 8.44641 11.9464 7.94641 11.9464 7.44641C12.4465 7.44641 12.9464 7.44641 13.4464 7.44641C13.4464 6.44641 13.4464 5.44641 13.4464 4.44641C13.9465 4.44641 14.4464 4.44641 14.9464 4.44641C15.4465 4.44641 15.9464 4.44641 16.4464 4.44641C16.4464 3.94641 16.4464 3.44641 16.4464 2.94641C16.9465 2.94641 17.4464 2.94641 17.9464 2.94641C18.4465 2.94641 18.9464 2.94641 19.4464 2.94641C19.4464 2.44641 19.4464 1.94641 19.4464 1.44641Z" fill="#FDD701"/>
<path fill-rule="evenodd" clip-rule="evenodd" d="M28.4464 1.44641C28.9465 1.44641 29.4464 1.44641 29.9464 1.44641C29.9464 1.94641 29.9464 2.44641 29.9464 2.94641C29.4464 2.94641 28.9465 2.94641 28.4464 2.94641C28.4464 2.44641 28.4464 1.94641 28.4464 1.44641Z" fill="#F7F335"/>
<path fill-rule="evenodd" clip-rule="evenodd" d="M29.9464 1.44641C31.4464 1.44641 32.9464 1.44641 34.4464 1.44641C34.4464 1.94641 34.4464 2.44641 34.4464 2.94641C33.9464 2.94641 33.4465 2.94641 32.9464 2.94641C31.9465 2.94641 30.9464 2.94641 29.9464 2.94641C29.9464 2.44641 29.9464 1.94641 29.9464 1.44641Z" fill="#E18D02"/>
<path fill-rule="evenodd" clip-rule="evenodd" d="M14.9464 2.94641C14.9464 3.44641 14.9464 3.94641 14.9464 4.44641C14.4464 4.44641 13.9465 4.44641 13.4464 4.44641C12.9464 4.44641 12.4465 4.44641 11.9464 4.44641C11.9464 3.94641 11.9464 3.44641 11.9464 2.94641C12.9464 2.94641 13.9465 2.94641 14.9464 2.94641Z" fill="#E18D02"/>
<path fill-rule="evenodd" clip-rule="evenodd" d="M14.9464 2.94641C15.4465 2.94641 15.9464 2.94641 16.4464 2.94641C16.4464 3.44641 16.4464 3.94641 16.4464 4.44641C15.9464 4.44641 15.4465 4.44641 14.9464 4.44641C14.9464 3.94641 14.9464 3.44641 14.9464 2.94641Z" fill="#F7F335"/>
<path fill-rule="evenodd" clip-rule="evenodd" d="M32.9464 2.94641C33.4465 2.94641 33.9464 2.94641 34.4464 2.94641C34.4464 3.44641 34.4464 3.94641 34.4464 4.44641C33.9464 4.44641 33.4465 4.44641 32.9464 4.44641C32.9464 3.94641 32.9464 3.44641 32.9464 2.94641Z" fill="#F7F335"/>
<path fill-rule="evenodd" clip-rule="evenodd" d="M34.4464 2.94641C34.9464 2.94641 35.4464 2.94641 35.9464 2.94641C35.9464 3.44641 35.9464 3.94641 35.9464 4.44641C35.4464 4.44641 34.9464 4.44641 34.4464 4.44641C34.4464 3.94641 34.4464 3.44641 34.4464 2.94641Z" fill="#E18D02"/>
<path fill-rule="evenodd" clip-rule="evenodd" d="M11.9464 4.44641C11.9464 4.94641 11.9464 5.44641 11.9464 5.94641C10.9465 5.94641 9.94644 5.94641 8.94644 5.94641C8.94644 5.44641 8.94644 4.94641 8.94644 4.44641C9.94644 4.44641 10.9465 4.44641 11.9464 4.44641Z" fill="#E18D02"/>
<path fill-rule="evenodd" clip-rule="evenodd" d="M11.9464 4.44641C12.4465 4.44641 12.9464 4.44641 13.4464 4.44641C13.4464 5.44641 13.4464 6.44641 13.4464 7.44641C12.9464 7.44641 12.4465 7.44641 11.9464 7.44641C11.9464 7.94641 11.9464 8.44641 11.9464 8.94641C11.4464 8.94641 10.9465 8.94641 10.4464 8.94641C10.4464 9.44641 10.4464 9.94641 10.4464 10.4464C9.94644 10.4464 9.44645 10.4464 8.94644 10.4464C8.94644 10.9464 8.94644 11.4464 8.94644 11.9464C7.94645 11.9464 6.94644 11.9464 5.94644 11.9464C5.94644 10.9464 5.94644 9.94641 5.94644 8.94641C6.44645 8.94641 6.94644 8.94641 7.44644 8.94641C7.44644 8.44641 7.44644 7.94641 7.44644 7.44641C7.94645 7.44641 8.44644 7.44641 8.94644 7.44641C8.94644 6.94641 8.94644 6.44641 8.94644 5.94641C9.94644 5.94641 10.9465 5.94641 11.9464 5.94641C11.9464 5.44641 11.9464 4.94641 11.9464 4.44641Z" fill="#F7F335"/>
<path fill-rule="evenodd" clip-rule="evenodd" d="M35.9464 4.44641C36.9464 4.44641 37.9464 4.44641 38.9464 4.44641C38.9464 4.94641 38.9464 5.44641 38.9464 5.94641C37.9464 5.94641 36.9464 5.94641 35.9464 5.94641C35.9464 5.44641 35.9464 4.94641 35.9464 4.44641Z" fill="#E18D02"/>
<path fill-rule="evenodd" clip-rule="evenodd" d="M8.94644 5.94641C8.94644 6.44641 8.94644 6.94641 8.94644 7.44641C8.44644 7.44641 7.94645 7.44641 7.44644 7.44641C7.44644 6.94641 7.44644 6.44641 7.44644 5.94641C7.94645 5.94641 8.44644 5.94641 8.94644 5.94641Z" fill="#E18D02"/>
<path fill-rule="evenodd" clip-rule="evenodd" d="M35.9464 5.94641C36.9464 5.94641 37.9465 5.94641 38.9464 5.94641C38.9464 6.44641 38.9464 6.94641 38.9464 7.44641C38.4464 7.44641 37.9465 7.44641 37.4464 7.44641C37.4464 7.94641 37.4464 8.44641 37.4464 8.94641C36.9464 8.94641 36.4465 8.94641 35.9464 8.94641C35.9464 9.44641 35.9464 9.94641 35.9464 10.4464C35.4464 10.4464 34.9465 10.4464 34.4464 10.4464C33.9464 10.4464 33.4465 10.4464 32.9464 10.4464C32.9464 9.94641 32.9464 9.44641 32.9464 8.94641C33.4465 8.94641 33.9464 8.94641 34.4464 8.94641C34.4464 8.44641 34.4464 7.94641 34.4464 7.44641C34.9465 7.44641 35.4464 7.44641 35.9464 7.44641C35.9464 6.94641 35.9464 6.44641 35.9464 5.94641Z" fill="#F7F335"/>
<path fill-rule="evenodd" clip-rule="evenodd" d="M38.9464 5.94641C39.4464 5.94641 39.9464 5.94641 40.4464 5.94641C40.4464 6.44641 40.4464 6.94641 40.4464 7.44641C39.9464 7.44641 39.4464 7.44641 38.9464 7.44641C38.9464 6.94641 38.9464 6.44641 38.9464 5.94641Z" fill="#E18D02"/>
<path fill-rule="evenodd" clip-rule="evenodd" d="M7.44644 7.44641C7.44644 7.94641 7.44644 8.44641 7.44644 8.94641C6.94644 8.94641 6.44645 8.94641 5.94644 8.94641C5.94644 8.44641 5.94644 7.94641 5.94644 7.44641C6.44645 7.44641 6.94644 7.44641 7.44644 7.44641Z" fill="#E18D02"/>
<path fill-rule="evenodd" clip-rule="evenodd" d="M32.9464 8.94641C32.9464 9.44641 32.9464 9.94641 32.9464 10.4464C33.4465 10.4464 33.9464 10.4464 34.4464 10.4464C34.4464 10.9464 34.4464 11.4464 34.4464 11.9464C34.9465 11.9464 35.4464 11.9464 35.9464 11.9464C35.9464 12.4464 35.9464 12.9464 35.9464 13.4464C36.4465 13.4464 36.9464 13.4464 37.4464 13.4464C37.4464 13.9464 37.4464 14.4464 37.4464 14.9464C37.4464 15.4464 37.4464 15.9464 37.4464 16.4464C37.9465 16.4464 38.4464 16.4464 38.9464 16.4464C38.9464 16.9464 38.9464 17.4464 38.9464 17.9464C38.9464 18.4464 38.9464 18.9464 38.9464 19.4464C39.4465 19.4464 39.9464 19.4464 40.4464 19.4464C40.4464 22.4464 40.4464 25.4464 40.4464 28.4464C39.9464 28.4464 39.4465 28.4464 38.9464 28.4464C38.9464 29.9464 38.9464 31.4464 38.9464 32.9464C38.4464 32.9464 37.9465 32.9464 37.4464 32.9464C37.4464 33.4464 37.4464 33.9464 37.4464 34.4464C36.9464 34.4464 36.4465 34.4464 35.9464 34.4464C35.9464 34.9464 35.9464 35.4464 35.9464 35.9464C35.4464 35.9464 34.9465 35.9464 34.4464 35.9464C34.4464 36.4464 34.4464 36.9464 34.4464 37.4464C33.4465 37.4464 32.4464 37.4464 31.4464 37.4464C31.4464 37.9464 31.4464 38.4464 31.4464 38.9464C30.4465 38.9464 29.4464 38.9464 28.4464 38.9464C28.4464 39.4464 28.4464 39.9464 28.4464 40.4464C25.4464 40.4464 22.4464 40.4464 19.4464 40.4464C19.4464 39.9464 19.4464 39.4464 19.4464 38.9464C18.9464 38.9464 18.4465 38.9464 17.9464 38.9464C17.4464 38.9464 16.9465 38.9464 16.4464 38.9464C16.4464 38.4464 16.4464 37.9464 16.4464 37.4464C15.9464 37.4464 15.4465 37.4464 14.9464 37.4464C14.4464 37.4464 13.9465 37.4464 13.4464 37.4464C13.4464 36.9464 13.4464 36.4464 13.4464 35.9464C12.9464 35.9464 12.4465 35.9464 11.9464 35.9464C11.9464 35.4464 11.9464 34.9464 11.9464 34.4464C11.4464 34.4464 10.9465 34.4464 10.4464 34.4464C10.4464 33.9464 10.4464 33.4464 10.4464 32.9464C9.94644 32.9464 9.44645 32.9464 8.94644 32.9464C8.94644 31.9464 8.94644 30.9464 8.94644 29.9464C8.44644 29.9464 7.94645 29.9464 7.44644 29.9464C7.44644 25.9464 7.44644 21.9464 7.44644 17.9464C7.94645 17.9464 8.44644 17.9464 8.94644 17.9464C8.94644 16.9464 8.94644 15.9464 8.94644 14.9464C9.44645 14.9464 9.94644 14.9464 10.4464 14.9464C10.4464 14.4464 10.4464 13.9464 10.4464 13.4464C10.9465 13.4464 11.4464 13.4464 11.9464 13.4464C11.9464 12.4464 11.9464 11.4464 11.9464 10.4464C12.9464 10.4464 13.9465 10.4464 14.9464 10.4464C14.9464 9.94641 14.9464 9.44641 14.9464 8.94641C15.9464 8.94641 16.9465 8.94641 17.9464 8.94641C17.9464 8.44641 17.9464 7.94641 17.9464 7.44641C21.9464 7.44641 25.9465 7.44641 29.9464 7.44641C29.9464 7.94641 29.9464 8.44641 29.9464 8.94641C30.9464 8.94641 31.9465 8.94641 32.9464 8.94641Z" fill="#FDA600"/>
<path fill-rule="evenodd" clip-rule="evenodd" d="M38.9464 7.44641C38.9464 8.44641 38.9464 9.44641 38.9464 10.4464C38.4464 10.4464 37.9464 10.4464 37.4464 10.4464C37.4464 10.9464 37.4464 11.4464 37.4464 11.9464C36.9464 11.9464 36.4464 11.9464 35.9464 11.9464C35.4464 11.9464 34.9464 11.9464 34.4464 11.9464C34.4464 11.4464 34.4464 10.9464 34.4464 10.4464C34.9464 10.4464 35.4464 10.4464 35.9464 10.4464C35.9464 9.94641 35.9464 9.44641 35.9464 8.94641C36.4464 8.94641 36.9464 8.94641 37.4464 8.94641C37.4464 8.44641 37.4464 7.94641 37.4464 7.44641C37.9464 7.44641 38.4464 7.44641 38.9464 7.44641Z" fill="#FDD701"/>
<path fill-rule="evenodd" clip-rule="evenodd" d="M38.9464 7.44641C39.4464 7.44641 39.9464 7.44641 40.4464 7.44641C40.4464 7.94641 40.4464 8.44641 40.4464 8.94641C40.9464 8.94641 41.4464 8.94641 41.9464 8.94641C41.9464 9.94641 41.9464 10.9464 41.9464 11.9464C42.4464 11.9464 42.9464 11.9464 43.4464 11.9464C43.4464 12.4464 43.4464 12.9464 43.4464 13.4464C43.9464 13.4464 44.4464 13.4464 44.9464 13.4464C44.9464 14.4464 44.9464 15.4464 44.9464 16.4464C44.4464 16.4464 43.9464 16.4464 43.4464 16.4464C43.4464 16.9464 43.4464 17.4464 43.4464 17.9464C42.9464 17.9464 42.4464 17.9464 41.9464 17.9464C41.9464 18.4464 41.9464 18.9464 41.9464 19.4464C41.4464 19.4464 40.9464 19.4464 40.4464 19.4464C39.9464 19.4464 39.4464 19.4464 38.9464 19.4464C38.9464 18.9464 38.9464 18.4464 38.9464 17.9464C38.9464 17.4464 38.9464 16.9464 38.9464 16.4464C38.4464 16.4464 37.9464 16.4464 37.4464 16.4464C37.4464 15.9464 37.4464 15.4464 37.4464 14.9464C37.4464 14.4464 37.4464 13.9464 37.4464 13.4464C36.9464 13.4464 36.4464 13.4464 35.9464 13.4464C35.9464 12.9464 35.9464 12.4464 35.9464 11.9464C36.4464 11.9464 36.9464 11.9464 37.4464 11.9464C37.4464 11.4464 37.4464 10.9464 37.4464 10.4464C37.9464 10.4464 38.4464 10.4464 38.9464 10.4464C38.9464 9.44641 38.9464 8.44641 38.9464 7.44641Z" fill="#F7F335"/>
<path fill-rule="evenodd" clip-rule="evenodd" d="M5.94644 8.94641C5.94644 9.94641 5.94644 10.9464 5.94644 11.9464C5.44644 11.9464 4.94645 11.9464 4.44644 11.9464C4.44644 10.9464 4.44644 9.94641 4.44644 8.94641C4.94645 8.94641 5.44644 8.94641 5.94644 8.94641Z" fill="#E18D02"/>
<path fill-rule="evenodd" clip-rule="evenodd" d="M41.9464 8.94641C42.4464 8.94641 42.9464 8.94641 43.4464 8.94641C43.4464 9.44641 43.4464 9.94641 43.4464 10.4464C43.9464 10.4464 44.4464 10.4464 44.9464 10.4464C44.9464 11.4464 44.9464 12.4464 44.9464 13.4464C44.4464 13.4464 43.9464 13.4464 43.4464 13.4464C43.4464 12.9464 43.4464 12.4464 43.4464 11.9464C42.9464 11.9464 42.4464 11.9464 41.9464 11.9464C41.9464 10.9464 41.9464 9.94641 41.9464 8.94641Z" fill="#E18D02"/>
<path fill-rule="evenodd" clip-rule="evenodd" d="M4.44644 11.9464C4.44644 12.9464 4.44644 13.9464 4.44644 14.9464C3.94644 14.9464 3.44645 14.9464 2.94644 14.9464C2.94644 13.9464 2.94644 12.9464 2.94644 11.9464C3.44645 11.9464 3.94644 11.9464 4.44644 11.9464Z" fill="#E18D02"/>
<path fill-rule="evenodd" clip-rule="evenodd" d="M4.44644 11.9464C4.94645 11.9464 5.44644 11.9464 5.94644 11.9464C5.94644 12.9464 5.94644 13.9464 5.94644 14.9464C5.44644 14.9464 4.94645 14.9464 4.44644 14.9464C4.44644 13.9464 4.44644 12.9464 4.44644 11.9464Z" fill="#F7F335"/>
<path fill-rule="evenodd" clip-rule="evenodd" d="M44.9464 13.4464C45.4464 13.4464 45.9464 13.4464 46.4464 13.4464C46.4464 14.9464 46.4464 16.4464 46.4464 17.9464C45.9464 17.9464 45.4464 17.9464 44.9464 17.9464C44.9464 17.4464 44.9464 16.9464 44.9464 16.4464C44.9464 15.4464 44.9464 14.4464 44.9464 13.4464Z" fill="#E18D02"/>
<path fill-rule="evenodd" clip-rule="evenodd" d="M2.94644 14.9464C2.94644 15.4464 2.94644 15.9464 2.94644 16.4464C2.94644 16.9464 2.94644 17.4464 2.94644 17.9464C2.44644 17.9464 1.94645 17.9464 1.44644 17.9464C1.44644 16.9464 1.44644 15.9464 1.44644 14.9464C1.94645 14.9464 2.44644 14.9464 2.94644 14.9464Z" fill="#E18D02"/>
<path fill-rule="evenodd" clip-rule="evenodd" d="M2.94644 14.9464C3.44645 14.9464 3.94644 14.9464 4.44644 14.9464C4.44644 15.4464 4.44644 15.9464 4.44644 16.4464C3.94644 16.4464 3.44645 16.4464 2.94644 16.4464C2.94644 15.9464 2.94644 15.4464 2.94644 14.9464Z" fill="#F7F335"/>
<path fill-rule="evenodd" clip-rule="evenodd" d="M19.4464 14.9464C22.4464 14.9464 25.4464 14.9464 28.4464 14.9464C28.4464 15.4464 28.4464 15.9464 28.4464 16.4464C28.9465 16.4464 29.4464 16.4464 29.9464 16.4464C29.9464 16.9464 29.9464 17.4464 29.9464 17.9464C29.4464 17.9464 28.9465 17.9464 28.4464 17.9464C28.4464 18.4464 28.4464 18.9464 28.4464 19.4464C27.9464 19.4464 27.4465 19.4464 26.9464 19.4464C26.9464 19.9464 26.9464 20.4464 26.9464 20.9464C26.4464 20.9464 25.9465 20.9464 25.4464 20.9464C25.4464 21.4464 25.4464 21.9464 25.4464 22.4464C24.9464 22.4464 24.4465 22.4464 23.9464 22.4464C23.9464 22.9464 23.9464 23.4464 23.9464 23.9464C23.4464 23.9464 22.9465 23.9464 22.4464 23.9464C22.4464 24.4464 22.4464 24.9464 22.4464 25.4464C22.9465 25.4464 23.4464 25.4464 23.9464 25.4464C23.9464 25.9464 23.9464 26.4464 23.9464 26.9464C24.4465 26.9464 24.9464 26.9464 25.4464 26.9464C25.4464 27.4464 25.4464 27.9464 25.4464 28.4464C25.9465 28.4464 26.4464 28.4464 26.9464 28.4464C26.9464 28.9464 26.9464 29.4464 26.9464 29.9464C27.9464 29.9464 28.9465 29.9464 29.9464 29.9464C29.9464 30.4464 29.9464 30.9464 29.9464 31.4464C29.4464 31.4464 28.9465 31.4464 28.4464 31.4464C28.4464 31.9464 28.4464 32.4464 28.4464 32.9464C25.4464 32.9464 22.4464 32.9464 19.4464 32.9464C19.4464 32.4464 19.4464 31.9464 19.4464 31.4464C18.9464 31.4464 18.4465 31.4464 17.9464 31.4464C17.9464 30.9464 17.9464 30.4464 17.9464 29.9464C17.4464 29.9464 16.9465 29.9464 16.4464 29.9464C16.4464 29.4464 16.4464 28.9464 16.4464 28.4464C15.9464 28.4464 15.4465 28.4464 14.9464 28.4464C14.9464 25.4464 14.9464 22.4464 14.9464 19.4464C15.4465 19.4464 15.9464 19.4464 16.4464 19.4464C16.4464 18.9464 16.4464 18.4464 16.4464 17.9464C16.9465 17.9464 17.4464 17.9464 17.9464 17.9464C17.9464 17.4464 17.9464 16.9464 17.9464 16.4464C18.4465 16.4464 18.9464 16.4464 19.4464 16.4464C19.4464 15.9464 19.4464 15.4464 19.4464 14.9464Z" fill="#FD7C01"/>
<path fill-rule="evenodd" clip-rule="evenodd" d="M44.9464 16.4464C44.9464 16.9464 44.9464 17.4464 44.9464 17.9464C45.4465 17.9464 45.9464 17.9464 46.4464 17.9464C46.4464 21.9464 46.4464 25.9464 46.4464 29.9464C45.9464 29.9464 45.4465 29.9464 44.9464 29.9464C44.9464 30.4464 44.9464 30.9464 44.9464 31.4464C44.4464 31.4464 43.9465 31.4464 43.4464 31.4464C43.4464 31.9464 43.4464 32.4464 43.4464 32.9464C42.9464 32.9464 42.4465 32.9464 41.9464 32.9464C41.9464 33.4464 41.9464 33.9464 41.9464 34.4464C41.4464 34.4464 40.9465 34.4464 40.4464 34.4464C40.4464 34.9464 40.4464 35.4464 40.4464 35.9464C39.9464 35.9464 39.4465 35.9464 38.9464 35.9464C38.9464 36.4464 38.9464 36.9464 38.9464 37.4464C38.4464 37.4464 37.9465 37.4464 37.4464 37.4464C37.4464 37.9464 37.4464 38.4464 37.4464 38.9464C36.9464 38.9464 36.4465 38.9464 35.9464 38.9464C35.9464 39.4464 35.9464 39.9464 35.9464 40.4464C35.4464 40.4464 34.9465 40.4464 34.4464 40.4464C34.4464 40.9464 34.4464 41.4464 34.4464 41.9464C33.9464 41.9464 33.4465 41.9464 32.9464 41.9464C32.9464 42.4464 32.9464 42.9464 32.9464 43.4464C32.4464 43.4464 31.9465 43.4464 31.4464 43.4464C31.4464 43.9464 31.4464 44.4464 31.4464 44.9464C30.9464 44.9464 30.4465 44.9464 29.9464 44.9464C29.9464 45.4464 29.9464 45.9464 29.9464 46.4464C25.9465 46.4464 21.9464 46.4464 17.9464 46.4464C17.9464 45.9464 17.9464 45.4464 17.9464 44.9464C17.4464 44.9464 16.9465 44.9464 16.4464 44.9464C16.4464 44.4464 16.4464 43.9464 16.4464 43.4464C16.9465 43.4464 17.4464 43.4464 17.9464 43.4464C17.9464 42.9464 17.9464 42.4464 17.9464 41.9464C18.4465 41.9464 18.9464 41.9464 19.4464 41.9464C19.4464 41.4464 19.4464 40.9464 19.4464 40.4464C22.4464 40.4464 25.4464 40.4464 28.4464 40.4464C28.4464 39.9464 28.4464 39.4464 28.4464 38.9464C29.4464 38.9464 30.4465 38.9464 31.4464 38.9464C31.4464 38.4464 31.4464 37.9464 31.4464 37.4464C32.4464 37.4464 33.4465 37.4464 34.4464 37.4464C34.4464 36.9464 34.4464 36.4464 34.4464 35.9464C34.9465 35.9464 35.4464 35.9464 35.9464 35.9464C35.9464 35.4464 35.9464 34.9464 35.9464 34.4464C36.4465 34.4464 36.9464 34.4464 37.4464 34.4464C37.4464 33.9464 37.4464 33.4464 37.4464 32.9464C37.9465 32.9464 38.4464 32.9464 38.9464 32.9464C38.9464 31.4464 38.9464 29.9464 38.9464 28.4464C39.4465 28.4464 39.9464 28.4464 40.4464 28.4464C40.4464 25.4464 40.4464 22.4464 40.4464 19.4464C40.9465 19.4464 41.4464 19.4464 41.9464 19.4464C41.9464 18.9464 41.9464 18.4464 41.9464 17.9464C42.4465 17.9464 42.9464 17.9464 43.4464 17.9464C43.4464 17.4464 43.4464 16.9464 43.4464 16.4464C43.9465 16.4464 44.4464 16.4464 44.9464 16.4464Z" fill="#FDD701"/>
<path fill-rule="evenodd" clip-rule="evenodd" d="M-0.0535583 17.9464C0.446442 17.9464 0.946441 17.9464 1.44644 17.9464C1.44644 21.9464 1.44644 25.9464 1.44644 29.9464C0.946441 29.9464 0.446442 29.9464 -0.0535583 29.9464C-0.0535583 25.9464 -0.0535583 21.9464 -0.0535583 17.9464Z" fill="#E18D02"/>
<path fill-rule="evenodd" clip-rule="evenodd" d="M46.4464 17.9464C46.9464 17.9464 47.4464 17.9464 47.9464 17.9464C47.9464 21.9464 47.9464 25.9464 47.9464 29.9464C47.4464 29.9464 46.9464 29.9464 46.4464 29.9464C46.4464 25.9464 46.4464 21.9464 46.4464 17.9464Z" fill="#E18D02"/>
<path fill-rule="evenodd" clip-rule="evenodd" d="M1.44644 29.9464C1.94645 29.9464 2.44644 29.9464 2.94644 29.9464C2.94644 31.4464 2.94644 32.9464 2.94644 34.4464C2.44644 34.4464 1.94645 34.4464 1.44644 34.4464C1.44644 32.9464 1.44644 31.4464 1.44644 29.9464Z" fill="#E19802"/>
<path fill-rule="evenodd" clip-rule="evenodd" d="M46.4464 29.9464C46.4464 31.4464 46.4464 32.9464 46.4464 34.4464C45.9464 34.4464 45.4464 34.4464 44.9464 34.4464C44.9464 33.4464 44.9464 32.4464 44.9464 31.4464C44.9464 30.9464 44.9464 30.4464 44.9464 29.9464C45.4464 29.9464 45.9464 29.9464 46.4464 29.9464Z" fill="#E18D02"/>
<path fill-rule="evenodd" clip-rule="evenodd" d="M44.9464 31.4464C44.9464 32.4464 44.9464 33.4464 44.9464 34.4464C44.4464 34.4464 43.9465 34.4464 43.4464 34.4464C43.4464 34.9464 43.4464 35.4464 43.4464 35.9464C42.9464 35.9464 42.4465 35.9464 41.9464 35.9464C41.9464 36.9464 41.9464 37.9464 41.9464 38.9464C41.4464 38.9464 40.9465 38.9464 40.4464 38.9464C40.4464 39.4464 40.4464 39.9464 40.4464 40.4464C39.9464 40.4464 39.4465 40.4464 38.9464 40.4464C38.9464 40.9464 38.9464 41.4464 38.9464 41.9464C37.9465 41.9464 36.9464 41.9464 35.9464 41.9464C35.9464 42.4464 35.9464 42.9464 35.9464 43.4464C35.4464 43.4464 34.9465 43.4464 34.4464 43.4464C34.4464 43.9464 34.4464 44.4464 34.4464 44.9464C33.4465 44.9464 32.4464 44.9464 31.4464 44.9464C31.4464 44.4464 31.4464 43.9464 31.4464 43.4464C31.9465 43.4464 32.4464 43.4464 32.9464 43.4464C32.9464 42.9464 32.9464 42.4464 32.9464 41.9464C33.4465 41.9464 33.9464 41.9464 34.4464 41.9464C34.4464 41.4464 34.4464 40.9464 34.4464 40.4464C34.9465 40.4464 35.4464 40.4464 35.9464 40.4464C35.9464 39.9464 35.9464 39.4464 35.9464 38.9464C36.4465 38.9464 36.9464 38.9464 37.4464 38.9464C37.4464 38.4464 37.4464 37.9464 37.4464 37.4464C37.9465 37.4464 38.4464 37.4464 38.9464 37.4464C38.9464 36.9464 38.9464 36.4464 38.9464 35.9464C39.4465 35.9464 39.9464 35.9464 40.4464 35.9464C40.4464 35.4464 40.4464 34.9464 40.4464 34.4464C40.9465 34.4464 41.4464 34.4464 41.9464 34.4464C41.9464 33.9464 41.9464 33.4464 41.9464 32.9464C42.4465 32.9464 42.9464 32.9464 43.4464 32.9464C43.4464 32.4464 43.4464 31.9464 43.4464 31.4464C43.9465 31.4464 44.4464 31.4464 44.9464 31.4464Z" fill="#F7F335"/>
<path fill-rule="evenodd" clip-rule="evenodd" d="M8.94644 32.9464C9.44645 32.9464 9.94644 32.9464 10.4464 32.9464C10.4464 33.4464 10.4464 33.9464 10.4464 34.4464C10.4464 34.9464 10.4464 35.4464 10.4464 35.9464C9.94644 35.9464 9.44645 35.9464 8.94644 35.9464C8.94644 36.4464 8.94644 36.9464 8.94644 37.4464C8.44644 37.4464 7.94645 37.4464 7.44644 37.4464C7.44644 37.9464 7.44644 38.4464 7.44644 38.9464C6.94644 38.9464 6.44645 38.9464 5.94644 38.9464C5.94644 37.9464 5.94644 36.9464 5.94644 35.9464C6.44645 35.9464 6.94644 35.9464 7.44644 35.9464C7.44644 35.4464 7.44644 34.9464 7.44644 34.4464C7.94645 34.4464 8.44644 34.4464 8.94644 34.4464C8.94644 33.9464 8.94644 33.4464 8.94644 32.9464Z" fill="#F7F335"/>
<path fill-rule="evenodd" clip-rule="evenodd" d="M2.94644 34.4464C3.44645 34.4464 3.94644 34.4464 4.44644 34.4464C4.44644 34.9464 4.44644 35.4464 4.44644 35.9464C3.94644 35.9464 3.44645 35.9464 2.94644 35.9464C2.94644 35.4464 2.94644 34.9464 2.94644 34.4464Z" fill="#E19802"/>
<path fill-rule="evenodd" clip-rule="evenodd" d="M10.4464 34.4464C10.9465 34.4464 11.4464 34.4464 11.9464 34.4464C11.9464 34.9464 11.9464 35.4464 11.9464 35.9464C11.9464 36.4464 11.9464 36.9464 11.9464 37.4464C11.4464 37.4464 10.9465 37.4464 10.4464 37.4464C10.4464 37.9464 10.4464 38.4464 10.4464 38.9464C9.44645 38.9464 8.44644 38.9464 7.44644 38.9464C7.44644 38.4464 7.44644 37.9464 7.44644 37.4464C7.94645 37.4464 8.44644 37.4464 8.94644 37.4464C8.94644 36.9464 8.94644 36.4464 8.94644 35.9464C9.44645 35.9464 9.94644 35.9464 10.4464 35.9464C10.4464 35.4464 10.4464 34.9464 10.4464 34.4464Z" fill="#FDD701"/>
<path fill-rule="evenodd" clip-rule="evenodd" d="M44.9464 34.4464C44.9464 34.9464 44.9464 35.4464 44.9464 35.9464C44.4464 35.9464 43.9464 35.9464 43.4464 35.9464C43.4464 35.4464 43.4464 34.9464 43.4464 34.4464C43.9464 34.4464 44.4464 34.4464 44.9464 34.4464Z" fill="#E18D02"/>
<path fill-rule="evenodd" clip-rule="evenodd" d="M4.44644 35.9464C4.94645 35.9464 5.44644 35.9464 5.94644 35.9464C5.94644 36.9464 5.94644 37.9464 5.94644 38.9464C5.44644 38.9464 4.94645 38.9464 4.44644 38.9464C4.44644 37.9464 4.44644 36.9464 4.44644 35.9464Z" fill="#E19802"/>
<path fill-rule="evenodd" clip-rule="evenodd" d="M11.9464 35.9464C12.4465 35.9464 12.9464 35.9464 13.4464 35.9464C13.4464 36.4464 13.4464 36.9464 13.4464 37.4464C13.9465 37.4464 14.4464 37.4464 14.9464 37.4464C15.4465 37.4464 15.9464 37.4464 16.4464 37.4464C16.4464 37.9464 16.4464 38.4464 16.4464 38.9464C16.9465 38.9464 17.4464 38.9464 17.9464 38.9464C18.4465 38.9464 18.9464 38.9464 19.4464 38.9464C19.4464 39.4464 19.4464 39.9464 19.4464 40.4464C19.4464 40.9464 19.4464 41.4464 19.4464 41.9464C18.9464 41.9464 18.4465 41.9464 17.9464 41.9464C17.9464 42.4464 17.9464 42.9464 17.9464 43.4464C17.4464 43.4464 16.9465 43.4464 16.4464 43.4464C16.4464 43.9464 16.4464 44.4464 16.4464 44.9464C15.4465 44.9464 14.4464 44.9464 13.4464 44.9464C13.4464 44.4464 13.4464 43.9464 13.4464 43.4464C12.9464 43.4464 12.4465 43.4464 11.9464 43.4464C11.9464 42.9464 11.9464 42.4464 11.9464 41.9464C10.9465 41.9464 9.94644 41.9464 8.94644 41.9464C8.94644 41.4464 8.94644 40.9464 8.94644 40.4464C8.44644 40.4464 7.94645 40.4464 7.44644 40.4464C7.44644 39.9464 7.44644 39.4464 7.44644 38.9464C8.44644 38.9464 9.44645 38.9464 10.4464 38.9464C10.4464 38.4464 10.4464 37.9464 10.4464 37.4464C10.9465 37.4464 11.4464 37.4464 11.9464 37.4464C11.9464 36.9464 11.9464 36.4464 11.9464 35.9464Z" fill="#F7F335"/>
<path fill-rule="evenodd" clip-rule="evenodd" d="M43.4464 35.9464C43.4464 36.9464 43.4464 37.9464 43.4464 38.9464C42.9464 38.9464 42.4464 38.9464 41.9464 38.9464C41.9464 37.9464 41.9464 36.9464 41.9464 35.9464C42.4464 35.9464 42.9464 35.9464 43.4464 35.9464Z" fill="#E18D02"/>
<path fill-rule="evenodd" clip-rule="evenodd" d="M14.9464 37.4464C15.4465 37.4464 15.9464 37.4464 16.4464 37.4464C16.4464 37.9464 16.4464 38.4464 16.4464 38.9464C15.9464 38.9464 15.4465 38.9464 14.9464 38.9464C14.9464 38.4464 14.9464 37.9464 14.9464 37.4464Z" fill="#FDD701"/>
<path fill-rule="evenodd" clip-rule="evenodd" d="M5.94644 38.9464C6.44645 38.9464 6.94644 38.9464 7.44644 38.9464C7.44644 39.4464 7.44644 39.9464 7.44644 40.4464C6.94644 40.4464 6.44645 40.4464 5.94644 40.4464C5.94644 39.9464 5.94644 39.4464 5.94644 38.9464Z" fill="#E19802"/>
<path fill-rule="evenodd" clip-rule="evenodd" d="M17.9464 38.9464C18.4465 38.9464 18.9464 38.9464 19.4464 38.9464C19.4464 39.4464 19.4464 39.9464 19.4464 40.4464C18.9464 40.4464 18.4465 40.4464 17.9464 40.4464C17.9464 39.9464 17.9464 39.4464 17.9464 38.9464Z" fill="#FDD701"/>
<path fill-rule="evenodd" clip-rule="evenodd" d="M41.9464 38.9464C41.9464 39.4464 41.9464 39.9464 41.9464 40.4464C41.4464 40.4464 40.9464 40.4464 40.4464 40.4464C40.4464 39.9464 40.4464 39.4464 40.4464 38.9464C40.9464 38.9464 41.4464 38.9464 41.9464 38.9464Z" fill="#E18D02"/>
<path fill-rule="evenodd" clip-rule="evenodd" d="M7.44644 40.4464C7.94645 40.4464 8.44644 40.4464 8.94644 40.4464C8.94644 40.9464 8.94644 41.4464 8.94644 41.9464C8.44644 41.9464 7.94645 41.9464 7.44644 41.9464C7.44644 41.4464 7.44644 40.9464 7.44644 40.4464Z" fill="#E19802"/>
<path fill-rule="evenodd" clip-rule="evenodd" d="M40.4464 40.4464C40.4464 40.9464 40.4464 41.4464 40.4464 41.9464C39.9464 41.9464 39.4464 41.9464 38.9464 41.9464C38.9464 41.4464 38.9464 40.9464 38.9464 40.4464C39.4464 40.4464 39.9464 40.4464 40.4464 40.4464Z" fill="#E18D02"/>
<path fill-rule="evenodd" clip-rule="evenodd" d="M8.94644 41.9464C9.94644 41.9464 10.9465 41.9464 11.9464 41.9464C11.9464 42.4464 11.9464 42.9464 11.9464 43.4464C10.9465 43.4464 9.94644 43.4464 8.94644 43.4464C8.94644 42.9464 8.94644 42.4464 8.94644 41.9464Z" fill="#E19802"/>
<path fill-rule="evenodd" clip-rule="evenodd" d="M38.9464 41.9464C38.9464 42.4464 38.9464 42.9464 38.9464 43.4464C37.9464 43.4464 36.9464 43.4464 35.9464 43.4464C35.9464 42.9464 35.9464 42.4464 35.9464 41.9464C36.9464 41.9464 37.9464 41.9464 38.9464 41.9464Z" fill="#E18D02"/>
<path fill-rule="evenodd" clip-rule="evenodd" d="M11.9464 43.4464C12.4465 43.4464 12.9464 43.4464 13.4464 43.4464C13.4464 43.9464 13.4464 44.4464 13.4464 44.9464C12.9464 44.9464 12.4465 44.9464 11.9464 44.9464C11.9464 44.4464 11.9464 43.9464 11.9464 43.4464Z" fill="#E18D02"/>
<path fill-rule="evenodd" clip-rule="evenodd" d="M35.9464 43.4464C35.9464 43.9464 35.9464 44.4464 35.9464 44.9464C35.4464 44.9464 34.9464 44.9464 34.4464 44.9464C34.4464 44.4464 34.4464 43.9464 34.4464 43.4464C34.9464 43.4464 35.4464 43.4464 35.9464 43.4464Z" fill="#E18D02"/>
<path fill-rule="evenodd" clip-rule="evenodd" d="M13.4464 44.9464C14.4464 44.9464 15.4465 44.9464 16.4464 44.9464C16.9465 44.9464 17.4464 44.9464 17.9464 44.9464C17.9464 45.4464 17.9464 45.9464 17.9464 46.4464C16.4464 46.4464 14.9464 46.4464 13.4464 46.4464C13.4464 45.9464 13.4464 45.4464 13.4464 44.9464Z" fill="#E18D02"/>
<path fill-rule="evenodd" clip-rule="evenodd" d="M31.4464 44.9464C32.4464 44.9464 33.4465 44.9464 34.4464 44.9464C34.4464 45.4464 34.4464 45.9464 34.4464 46.4464C32.9464 46.4464 31.4464 46.4464 29.9464 46.4464C29.9464 45.9464 29.9464 45.4464 29.9464 44.9464C30.4465 44.9464 30.9464 44.9464 31.4464 44.9464Z" fill="#E18D02"/>
<path fill-rule="evenodd" clip-rule="evenodd" d="M17.9464 46.4464C21.9464 46.4464 25.9465 46.4464 29.9464 46.4464C29.9464 46.9464 29.9464 47.4464 29.9464 47.9464C25.9465 47.9464 21.9464 47.9464 17.9464 47.9464C17.9464 47.4464 17.9464 46.9464 17.9464 46.4464Z" fill="#E18D02"/>
</g>
<defs>
<clipPath id="clip0_5911_3012">
<rect width="48" height="48" fill="white"/>
</clipPath>
</defs>
</svg>
