<svg width="256" height="256" viewBox="0 0 256 256" fill="none" xmlns="http://www.w3.org/2000/svg">
<path d="M127.5 251C196.29 251 252 195.933 252 128.002C252 60.0719 196.29 5 127.5 5C58.7102 5 3 60.0719 3 128.002C3 195.933 58.7102 251 127.5 251Z" fill="#490194"/>
<path d="M142.487 65.2409C149.142 65.2495 155.522 67.853 160.228 72.4803C164.933 77.1075 167.579 83.3806 167.586 89.9237V120.109C167.588 121.375 167.488 122.639 167.286 123.889C166.678 127.736 165.154 131.387 162.839 134.545C160.523 137.702 157.48 140.278 153.96 142.06C152.139 142.986 150.208 143.683 148.21 144.137C147.604 144.281 146.978 144.412 146.358 144.497C145.084 144.695 143.796 144.794 142.507 144.792C140.586 144.791 138.672 144.571 136.803 144.137C136.784 144.143 136.763 144.143 136.743 144.137C134.767 143.679 132.856 142.984 131.053 142.067C128.416 140.738 126.037 138.964 124.024 136.826C122.549 135.247 121.291 133.485 120.279 131.586C120.126 131.33 119.999 131.075 119.873 130.813C118.924 128.877 118.238 126.826 117.834 124.714C117.543 123.202 117.399 121.667 117.401 120.129V117.122C115.554 116.557 113.631 116.271 111.697 116.277C111.211 116.277 110.737 116.277 110.264 116.336C108.816 116.432 107.385 116.696 106 117.122V120.109C106 120.352 106 120.594 106 120.836C106.067 124.492 106.71 128.116 107.906 131.579C108.57 133.51 109.399 135.381 110.384 137.173C110.4 137.192 110.414 137.211 110.424 137.232C111.829 139.767 113.54 142.125 115.522 144.255C116.928 145.776 118.466 147.175 120.119 148.434C122.62 150.357 125.369 151.948 128.294 153.163C129.194 153.544 130.114 153.884 131.046 154.185C132.921 154.801 134.844 155.262 136.797 155.561C138.683 155.857 140.59 156.004 142.5 156C144.411 156.005 146.318 155.856 148.204 155.555C150.157 155.261 152.081 154.803 153.954 154.185C159.877 152.248 165.199 148.854 169.415 144.327C173.63 139.8 176.599 134.289 178.04 128.317C178.535 126.234 178.84 124.112 178.953 121.976C178.953 121.367 179 120.731 179 120.109V89.8975C178.99 80.3824 175.141 71.2597 168.299 64.5302C161.456 57.8008 152.178 54.0139 142.5 54C136.281 54.0032 130.166 55.5697 124.737 58.5506C119.307 61.5316 114.742 65.828 111.477 71.0317H126.376C130.878 67.2847 136.588 65.2324 142.487 65.2409Z" fill="white"/>
<path d="M112.007 190.818C105.445 190.808 99.1547 188.204 94.5154 183.578C89.8761 178.953 87.2663 172.683 87.2576 166.142V135.924C87.2569 134.656 87.3535 133.39 87.5467 132.137C88.148 128.291 89.6516 124.64 91.9355 121.483C94.2194 118.325 97.2192 115.75 100.69 113.966C102.488 113.038 104.395 112.341 106.368 111.89C106.96 111.745 107.571 111.627 108.182 111.529C109.441 111.334 110.713 111.238 111.987 111.241C113.881 111.241 115.769 111.461 117.612 111.896C117.623 111.891 117.634 111.889 117.645 111.889C117.657 111.889 117.667 111.891 117.678 111.896C119.624 112.351 121.507 113.044 123.284 113.96C125.885 115.279 128.227 117.054 130.197 119.2C131.669 120.771 132.921 122.534 133.917 124.44C134.061 124.689 134.193 124.951 134.318 125.207C135.253 127.145 135.926 129.198 136.322 131.312C136.608 132.824 136.752 134.359 136.749 135.898V138.898C138.57 139.465 140.467 139.752 142.375 139.749C142.854 139.749 143.321 139.749 143.794 139.69C145.223 139.591 146.634 139.326 148 138.898V135.898C148 135.655 148 135.399 148 135.157C147.926 131.504 147.295 127.884 146.127 124.421C145.462 122.496 144.645 120.628 143.682 118.833C143.666 118.813 143.653 118.791 143.643 118.767C142.252 116.237 140.564 113.88 138.616 111.745C137.225 110.222 135.704 108.823 134.068 107.566C131.608 105.639 128.901 104.048 126.017 102.836C125.124 102.457 124.23 102.116 123.297 101.815C121.448 101.201 119.551 100.741 117.626 100.439C115.765 100.146 113.884 99.9991 112 100C110.118 99.9996 108.24 100.146 106.381 100.439C104.454 100.741 102.555 101.201 100.703 101.815C94.8628 103.753 89.6154 107.145 85.4591 111.672C81.3026 116.197 78.3749 121.707 76.953 127.676C76.4612 129.761 76.1598 131.886 76.0526 134.024C76.0198 134.64 76 135.269 76 135.898V166.115C76.0104 175.629 79.8068 184.751 86.5558 191.478C93.3049 198.206 102.456 201.99 112 202C118.136 201.996 124.168 200.429 129.526 197.448C134.883 194.468 139.387 190.172 142.611 184.968H127.916C123.478 188.739 117.839 190.812 112.007 190.818Z" fill="white"/>
<path d="M88.6212 88.3363H119.439C120.729 88.3356 122.017 88.4328 123.292 88.6272C127.214 89.232 130.936 90.7446 134.156 93.0418C137.375 95.339 140.002 98.356 141.82 101.847C142.766 103.656 143.477 105.574 143.938 107.558C144.084 108.153 144.205 108.768 144.305 109.383C146.728 112.265 148.75 115.455 150.316 118.869C151.164 120.716 151.873 122.623 152.44 124.573C152.701 125.479 152.927 126.384 153.108 127.309C153.495 126.41 153.843 125.505 154.15 124.573C154.779 122.714 155.248 120.806 155.552 118.869C155.854 116.997 156.004 115.105 156 113.21C156.004 111.318 155.854 109.427 155.552 107.558C155.248 105.619 154.779 103.709 154.15 101.847C152.174 95.9728 148.714 90.6949 144.1 86.5143C139.485 82.3336 133.868 79.3886 127.781 77.9585C125.659 77.4716 123.497 77.1686 121.322 77.0529C120.654 77.0529 120.047 77 119.405 77H88.5879C78.888 77.0122 69.5888 80.8311 62.7299 87.6192C55.871 94.4073 52.0124 103.61 52 113.21C52.0041 119.381 53.6016 125.449 56.6408 130.838C59.68 136.226 64.0602 140.757 69.3656 144V129.227C65.5378 124.759 63.4423 119.088 63.4546 113.23C63.4634 106.628 66.118 100.3 70.8361 95.6325C75.5543 90.9655 81.9505 88.3416 88.6212 88.3363Z" fill="white"/>
<path d="M184.8 112V126.782C188.592 131.252 190.671 136.922 190.664 142.781C190.653 149.378 188.024 155.703 183.353 160.369C178.681 165.035 172.348 167.662 165.741 167.674H135.219C133.938 167.676 132.66 167.576 131.394 167.376C127.508 166.773 123.82 165.261 120.63 162.964C117.44 160.668 114.838 157.651 113.036 154.16C112.104 152.353 111.4 150.437 110.939 148.457C110.793 147.856 110.668 147.235 110.575 146.614C108.175 143.737 106.172 140.552 104.619 137.144C103.779 135.298 103.081 133.392 102.528 131.441C102.256 130.549 102.031 129.63 101.866 128.706C101.482 129.587 101.138 130.498 100.833 131.441C100.214 133.301 99.7492 135.208 99.4435 137.144C99.1477 139.015 98.9996 140.906 99 142.801C98.9974 144.696 99.1503 146.587 99.4569 148.457C99.7509 150.394 100.212 152.302 100.833 154.16C102.79 160.034 106.218 165.312 110.79 169.493C115.363 173.673 120.928 176.618 126.961 178.048C129.067 178.54 131.213 178.843 133.373 178.954C133.995 178.954 134.637 179 135.266 179H165.741C175.353 178.99 184.568 175.173 191.366 168.386C198.163 161.6 201.987 152.399 202 142.801C201.999 136.629 200.419 130.559 197.409 125.169C194.398 119.778 190.058 115.245 184.8 112Z" fill="white"/>
</svg>
