<svg width="256" height="256" viewBox="0 0 256 256" fill="none" xmlns="http://www.w3.org/2000/svg">
<path d="M127.423 0.503418C57.0664 0.50341 0.115349 57.3929 0.218646 127.57C0.321943 197.746 57.4404 254.635 127.796 254.635C198.152 254.635 255.103 197.746 255 127.57C254.897 57.3929 197.778 0.503426 127.423 0.503418Z" fill="#DBBA08"/>
<path d="M127.423 0.503418C57.0664 0.50341 0.115349 57.3929 0.218646 127.57C0.321943 197.746 57.4404 254.635 127.796 254.635C198.152 254.635 255.103 197.746 255 127.57C254.897 57.3929 197.778 0.503426 127.423 0.503418Z" fill="url(#paint0_radial_741_46)"/>
<path d="M127.423 0.503418C57.0664 0.50341 0.115349 57.3929 0.218646 127.57C0.321943 197.746 57.4404 254.635 127.796 254.635C198.152 254.635 255.103 197.746 255 127.57C254.897 57.3929 197.778 0.503426 127.423 0.503418Z" fill="url(#paint1_radial_741_46)"/>
<path fill-rule="evenodd" clip-rule="evenodd" d="M58.2493 96.6085L58.0502 96.5644H58.1387C62.2434 75.4122 65.2086 60.1169 93.8642 59.6765C93.7426 59.8086 93.621 59.9297 93.4994 60.0619C92.7804 60.8106 92.028 61.5925 91.2641 62.4073L90.8878 62.8147C90.7107 63.0019 90.5344 63.2002 90.3459 63.3983C90.1362 63.6296 89.9142 63.8608 89.693 64.1031L89.2948 64.5435C89.1846 64.6646 89.0736 64.7858 88.9626 64.9069C88.5423 65.3694 88.122 65.8429 87.6796 66.3384C86.7395 67.4065 85.7764 68.5187 84.8142 69.6639L84.7367 69.774C83.8071 70.8971 82.9216 71.9983 82.0925 73.0554L81.926 73.2756L81.8484 73.3857C80.9972 74.4979 80.2113 75.5109 79.5033 76.5017C79.4811 76.5237 79.4701 76.5572 79.459 76.5792C79.4369 76.6233 79.4148 76.6559 79.3815 76.7C79.3594 76.7335 79.3373 76.7661 79.3152 76.7996C79.2931 76.8216 79.282 76.8543 79.2599 76.8877C78.43 78.0327 77.7109 79.057 77.0692 80.0037L76.7926 80.4109C76.0292 81.5119 75.4318 82.448 74.8785 83.3073L74.7347 83.5269C74.7347 83.5269 74.6905 83.6044 74.6683 83.6485C74.6462 83.6926 74.624 83.7252 74.6019 83.7693L74.4802 83.9676C73.7168 85.1787 73.1083 86.1809 72.5772 87.0844L72.533 87.1497C72.4887 87.2272 72.4444 87.2933 72.4113 87.37C72.3559 87.4581 72.3006 87.5463 72.2453 87.6459C71.7585 88.4718 71.1389 89.5507 70.5304 90.6737C70.475 90.7724 70.4197 90.872 70.3644 90.9707C70.298 91.0589 70.2427 91.1584 70.1984 91.2572C70.11 91.4221 70.0214 91.5877 69.9219 91.764C69.5125 92.5344 69.0478 93.4044 68.6163 94.2638C68.561 94.3732 68.5056 94.4727 68.4614 94.5715L68.4172 94.6596C68.4172 94.6596 68.384 94.7371 68.3618 94.7698C68.3286 94.8473 68.2955 94.924 68.2512 94.9901C68.1406 95.2105 68.0299 95.4415 67.9193 95.6732C67.5652 96.389 67.2001 97.1374 66.8572 97.8866C66.7907 98.0294 66.7133 98.1836 66.6579 98.3159L66.6248 98.404C66.5806 98.4921 66.5474 98.5909 66.5031 98.679C66.4146 98.888 66.315 99.0977 66.2154 99.3287C65.9056 100.022 65.5626 100.772 65.2528 101.52C65.1644 101.685 65.0979 101.861 65.0427 102.037C64.9873 102.159 64.9209 102.312 64.8767 102.434C64.4673 103.403 64.1244 104.284 63.7814 105.175C63.7592 105.241 63.7371 105.308 63.7039 105.374C63.6597 105.506 63.6043 105.638 63.5711 105.76L63.4273 106.189L63.383 106.332L63.3056 106.552C63.029 107.301 62.7414 108.06 62.4869 108.82C62.4205 109.03 62.3541 109.217 62.2877 109.427C62.2656 109.492 62.2434 109.569 62.2213 109.635C62.1992 109.712 62.1771 109.778 62.1549 109.844L62.0774 110.12C61.8341 110.88 61.6017 111.639 61.3694 112.399L61.3473 112.465L61.314 112.575C61.2698 112.741 61.2145 112.906 61.1813 113.06C61.1481 113.225 61.1039 113.39 61.0596 113.555L61.0153 113.721C60.772 114.524 60.5617 115.306 60.3515 116.11C60.3294 116.22 60.2962 116.32 60.2741 116.418C60.2408 116.54 60.2077 116.661 60.1855 116.793C60.1745 116.859 60.1524 116.925 60.1413 116.991C60.1192 117.079 60.097 117.167 60.0749 117.256L60.0085 117.475C59.9532 117.685 59.9089 117.894 59.8536 118.114C59.7209 118.654 59.5991 119.193 59.4774 119.722C59.4553 119.854 59.4221 119.986 59.4 120.129C59.3779 120.239 59.3558 120.35 59.3447 120.448L59.3225 120.57C59.3004 120.691 59.2783 120.823 59.2451 120.945L59.2009 121.198C59.1676 121.384 59.1234 121.572 59.0902 121.759C58.9906 122.276 58.88 122.794 58.7915 123.311C58.7694 123.443 58.7473 123.587 58.7251 123.719C58.7029 123.852 58.6808 123.994 58.6587 124.127C58.6477 124.203 58.6366 124.291 58.6145 124.38C58.6034 124.468 58.5924 124.545 58.5813 124.622L58.5149 125.085C58.4817 125.305 58.4485 125.525 58.4042 125.745C58.3379 126.142 58.2715 126.527 58.2272 126.934C58.194 127.22 58.1609 127.496 58.1277 127.782C58.0944 127.958 58.0834 128.113 58.0612 128.299L57.9949 128.796L57.9728 128.993C57.9063 129.478 57.84 129.973 57.8068 130.469C57.7736 130.755 57.7625 131.031 57.7404 131.317C57.7404 131.482 57.7293 131.647 57.7072 131.823V131.845L57.6741 132.242V132.264C57.6297 132.836 57.5855 133.398 57.5523 133.96C57.5413 134.246 57.5192 134.554 57.5192 134.851L57.4859 135.821C57.4527 136.349 57.4417 136.866 57.4417 137.395C57.4417 137.549 57.4417 137.704 57.4417 137.858C57.4417 138.001 57.4417 138.155 57.4417 138.287C57.4527 138.463 57.4527 138.65 57.4527 138.849V139.311C57.4527 139.564 57.4638 139.807 57.4638 140.049C57.4638 140.292 57.4638 140.545 57.4748 140.787C57.4748 140.963 57.497 141.128 57.5081 141.293C57.5192 141.447 57.5302 141.601 57.5413 141.756L57.6076 142.714C57.6076 142.857 57.6297 143.011 57.6297 143.154C57.6519 143.484 57.663 143.815 57.6962 144.134C57.6962 144.344 57.7293 144.553 57.7515 144.773C57.7625 144.883 57.7736 144.982 57.7846 145.092L57.8953 146.05C57.9174 146.238 57.9395 146.425 57.9617 146.612C57.9949 146.876 58.0281 147.14 58.0612 147.405C58.0834 147.548 58.1055 147.691 58.1387 147.823C58.1719 148.01 58.2051 148.187 58.2272 148.374L58.3931 149.31C58.4485 149.574 58.4928 149.839 58.5259 150.092C58.5591 150.268 58.5813 150.444 58.6145 150.609C58.6477 150.752 58.6808 150.884 58.7029 151.028C58.7473 151.215 58.7915 151.391 58.8247 151.578L59.0238 152.503C59.0902 152.877 59.1787 153.241 59.2562 153.593L59.2893 153.758C59.3447 154.001 59.4111 154.242 59.4885 154.485C59.5107 154.573 59.5439 154.672 59.566 154.761L59.8094 155.641C59.8868 155.906 59.9532 156.17 60.0306 156.434C60.0638 156.566 60.1081 156.698 60.1413 156.82C60.2298 157.139 60.3404 157.458 60.44 157.756C60.4843 157.855 60.5174 157.953 60.5506 158.063C60.5728 158.13 60.5949 158.196 60.6171 158.251L60.783 158.713C60.8937 159.066 61.0264 159.451 61.1481 159.781C61.2145 159.958 61.2919 160.134 61.3584 160.299C61.4136 160.442 61.48 160.585 61.5354 160.728L61.8894 161.609C61.9226 161.686 61.9558 161.764 61.9779 161.852C62.0885 162.127 62.1992 162.413 62.3098 162.666C62.4537 162.985 62.6086 163.316 62.7745 163.635L63.1728 164.472C63.2392 164.605 63.3056 164.737 63.3609 164.869C63.4604 165.067 63.5601 165.265 63.6486 165.463C63.8035 165.76 63.9695 166.058 64.1354 166.355L64.1575 166.399L64.6222 167.247C64.7882 167.556 64.943 167.842 65.1422 168.161C65.2749 168.382 65.4077 168.591 65.5516 168.8C65.618 168.899 65.6733 168.987 65.7396 169.086L66.2376 169.868C66.3039 169.967 66.3703 170.077 66.4367 170.176C66.5584 170.375 66.6912 170.573 66.8128 170.76C66.9456 170.958 67.0895 171.157 67.2444 171.355C67.3108 171.443 67.3771 171.53 67.4435 171.618L67.7312 172.004C67.7312 172.004 67.8197 172.115 67.8639 172.181C67.9193 172.257 67.9746 172.334 68.0299 172.4C68.2069 172.654 68.384 172.885 68.5721 173.127C69.1252 174.383 69.7448 175.726 70.5193 177.224C70.5746 177.334 70.641 177.455 70.7074 177.565C70.7848 177.697 70.8513 177.829 70.9176 177.973L71.1611 178.402C71.7031 179.426 72.2564 180.417 72.8096 181.331C73.064 181.76 73.3406 182.212 73.6173 182.63L73.6504 182.674C74.2479 183.589 74.8343 184.491 75.5092 185.449C75.5534 185.515 75.5977 185.581 75.6419 185.658C75.6862 185.714 75.7305 185.78 75.7637 185.834L76.1287 186.363C60.8051 183.192 50.6484 177.191 45.913 168.492C40.5912 158.724 41.764 145.103 49.3982 127.98C54.2442 117.112 56.3574 106.222 58.2161 96.62L58.2493 96.6085ZM85.2011 191.428C89.3837 195.59 94.2299 199.026 99.551 201.603C126.006 214.332 136.605 204.741 152.625 190.239L152.681 190.184C162.638 181.165 173.934 170.936 191.781 163.294C202.17 158.835 208.775 152.481 211.408 144.398C214.794 134.025 210.944 123.08 207.027 115.592C207.005 115.626 206.994 115.658 206.982 115.692C206.982 115.725 206.96 115.747 206.95 115.78L206.916 115.846C206.861 115.967 206.806 116.088 206.75 116.209C206.462 116.914 206.153 117.629 205.843 118.345C205.411 119.337 204.991 120.272 204.56 121.198C204.228 121.924 203.874 122.651 203.509 123.377C203.398 123.587 203.298 123.796 203.188 124.016C202.822 124.743 202.446 125.481 202.048 126.23C201.672 126.956 201.273 127.694 200.865 128.432C200.267 129.478 199.68 130.524 199.216 131.317L199.094 131.537C198.707 132.187 198.32 132.836 197.922 133.497C197.49 134.202 197.048 134.895 196.604 135.6C196.427 135.875 196.25 136.151 196.085 136.426L195.797 136.867C195.443 137.429 195.077 138.001 194.701 138.562C193.994 139.608 193.253 140.677 192.6 141.601L192.112 142.295C191.957 142.505 191.803 142.724 191.659 142.945C191.504 143.165 191.349 143.385 191.206 143.594C190.508 144.564 189.778 145.522 189.07 146.469L188.705 146.954C188.55 147.14 188.417 147.327 188.273 147.526L188.196 147.636C188.03 147.845 187.875 148.065 187.72 148.275C187.632 148.396 187.543 148.516 187.455 148.638C186.116 150.378 184.744 152.04 183.417 153.626C174.344 164.461 164.098 173.292 152.968 179.878C141.771 187.101 128.34 191.45 114.123 192.408C112.009 192.551 109.874 192.629 107.794 192.629C106.123 192.629 104.342 192.617 102.207 192.563L101.111 192.529C99.3518 192.485 97.6257 192.408 95.9445 192.32C95.8556 192.32 95.7674 192.31 95.6679 192.31C95.5789 192.31 95.4793 192.31 95.3912 192.298H95.0264C93.2783 192.188 91.7072 192.078 90.2578 191.946L89.8595 191.913C88.388 191.759 86.8611 191.594 85.2125 191.396L85.2011 191.428ZM101.587 169.13C108.558 172.885 116.369 174.845 124.302 174.812C133.385 174.812 142.269 172.225 149.903 167.324C166.843 156.489 177.807 132.275 164.165 102.588C159.086 91.4996 149.76 83.6485 137.977 80.5105C124.888 77.0305 110.482 79.8935 98.4778 88.3942C76.505 103.942 70.4529 131.856 84.4045 153.318C88.7088 159.947 94.6281 165.387 101.598 169.141L101.587 169.13ZM82.4687 187.442L81.4396 187.299C81.0633 186.825 80.6651 186.363 80.2448 185.923L79.9458 185.526C79.8795 185.427 79.802 185.339 79.7356 185.251C79.6581 185.163 79.5918 185.064 79.5254 184.964C79.459 184.876 79.3815 184.788 79.3152 184.7C79.105 184.436 78.8947 184.172 78.7067 183.908C78.2752 183.302 77.8547 182.663 77.4565 182.047L77.1688 181.584C77.1024 181.485 77.036 181.397 76.9807 181.298C76.9143 181.199 76.8479 181.111 76.7926 181.011C76.5492 180.67 76.339 180.34 76.1287 179.988C75.7305 179.36 75.3764 178.699 75.0113 178.038C74.9006 177.829 74.79 177.631 74.6905 177.444L74.5687 177.191C74.5024 177.059 74.436 176.937 74.3586 176.816C74.3253 176.75 74.2811 176.684 74.2479 176.618C74.2037 176.54 74.1704 176.475 74.1262 176.398C74.0266 176.211 73.916 176.034 73.8164 175.836C73.0861 174.383 72.4002 172.919 71.7585 171.443C62.6528 150.158 64.2349 124.963 75.8964 105.704C76.4054 104.856 76.9697 103.976 77.5228 103.128C77.6887 102.885 77.8436 102.665 78.0096 102.445C78.0539 102.379 78.1092 102.302 78.1645 102.236C78.2199 102.159 78.2752 102.093 78.3194 102.027L78.5739 101.641L78.6403 101.542C78.8394 101.256 79.0386 100.958 79.2599 100.672C79.4148 100.474 79.5697 100.265 79.7246 100.066L79.8905 99.8461L80.488 99.0642C80.5761 98.9541 80.6536 98.8553 80.7426 98.7557C80.8528 98.6243 80.9638 98.4807 81.0854 98.3265C81.3065 98.04 81.5497 97.7544 81.7938 97.4785L82.4352 96.7081C82.6009 96.4983 82.7674 96.3008 82.9445 96.1025L82.9992 96.0364C83.2318 95.7606 83.497 95.4749 83.7516 95.2105L83.7737 95.1885L84.1058 94.8253C84.1613 94.7592 84.2274 94.6931 84.2829 94.627C84.3384 94.5715 84.3825 94.5168 84.438 94.4613C84.5041 94.3846 84.5702 94.3185 84.6371 94.2418C84.7473 94.1202 84.8583 93.9879 84.9799 93.8672C85.157 93.6909 85.3341 93.5146 85.5112 93.3383C85.5993 93.2502 85.6883 93.1735 85.7658 93.0853L86.4179 92.4357L87.0382 91.8187C87.1704 91.6865 87.3148 91.5657 87.4585 91.4335C87.6021 91.3013 87.7351 91.1805 87.8788 91.0483L88.5537 90.4313L89.1625 89.8592C89.4164 89.6388 89.693 89.4185 89.9697 89.1875L90.0138 89.1434L90.7336 88.5371C90.8772 88.4163 91.0094 88.2955 91.1539 88.1739C91.2314 88.1078 91.2975 88.0531 91.3751 87.987C91.5628 87.8107 91.7733 87.6679 91.9725 87.5136C92.0606 87.4475 92.1381 87.392 92.2271 87.3259L92.9126 86.7759L92.9902 86.7204C93.2113 86.5441 93.4325 86.3792 93.6545 86.2144C93.7981 86.1042 93.9418 86.0161 94.0748 85.9165C94.2184 85.8177 94.3515 85.7182 94.4951 85.6194L95.2476 85.08C95.4793 84.9037 95.7234 84.7274 95.9666 84.5625C96.1543 84.4303 96.3428 84.3087 96.5305 84.1879C96.6301 84.1218 96.7296 84.0557 96.8292 83.9896L97.5596 83.5048C97.8143 83.3294 98.0575 83.1751 98.3456 82.9874C98.4998 82.8887 98.6549 82.8005 98.8099 82.7018C98.9315 82.6242 99.0646 82.5475 99.1968 82.47L99.9713 82.0081L100.779 81.5233C101.056 81.3576 101.321 81.1928 101.598 81.0605L102.45 80.5978C102.704 80.455 102.948 80.3342 103.236 80.1685C103.523 80.0143 103.811 79.8715 104.098 79.7286L104.928 79.2985C105.106 79.2218 105.261 79.1337 105.438 79.057C105.537 79.0129 105.637 78.9574 105.736 78.9027L105.847 78.8472C106.101 78.7264 106.356 78.5942 106.621 78.4841L107.407 78.1209C107.694 77.9772 107.982 77.845 108.27 77.7242C108.425 77.6581 108.58 77.592 108.734 77.5373C108.878 77.4819 109.022 77.4272 109.155 77.3611L109.93 77.0411L110.836 76.6559L111.688 76.3368L112.496 76.0398C112.574 76.0063 112.651 75.9843 112.718 75.9516C112.961 75.8521 113.204 75.7639 113.425 75.6872C113.558 75.6431 113.691 75.5991 113.824 75.555C113.99 75.5003 114.156 75.4448 114.322 75.3901L115.097 75.1143C115.185 75.0816 115.273 75.0482 115.362 75.0155C115.594 74.9274 115.826 74.8503 116.025 74.7952C116.17 74.7621 116.313 74.7071 116.446 74.663C116.59 74.619 116.722 74.575 116.867 74.5309L117.707 74.2777C117.862 74.2446 118.017 74.1895 118.172 74.1455C118.327 74.1015 118.482 74.0464 118.637 74.0134C118.78 73.9804 118.924 73.9363 119.079 73.8923C119.234 73.8482 119.378 73.8042 119.544 73.7711L120.296 73.5619C120.451 73.5289 120.617 73.4738 120.783 73.4298C120.949 73.3857 121.115 73.3417 121.27 73.2977C121.447 73.2536 121.624 73.2095 121.801 73.1765C121.901 73.1545 122 73.1325 122.1 73.1104L122.918 72.9232C123.239 72.8352 123.583 72.758 123.881 72.703C123.969 72.681 124.069 72.67 124.158 72.6479C124.357 72.6039 124.545 72.5709 124.733 72.5379L125.552 72.3727C125.873 72.3066 126.193 72.2405 126.514 72.1855L127.366 72.0423L128.119 71.9212C128.196 71.9102 128.284 71.8881 128.362 71.8771C128.616 71.8331 128.871 71.7891 129.126 71.756C129.413 71.712 129.69 71.679 129.977 71.6459L130.729 71.5468C131.062 71.5028 131.438 71.4587 131.736 71.4257C131.88 71.4147 132.013 71.4037 132.146 71.3927C132.3 71.3817 132.467 71.3706 132.633 71.3486L133.385 71.2826C133.54 71.2716 133.706 71.2605 133.861 71.2495C134.016 71.2385 134.17 71.2275 134.337 71.2165L135.199 71.1724L135.941 71.0733L136.881 71.0293H136.925C137.213 71.0073 137.489 70.9963 137.766 70.9963H138.54C138.839 70.9853 139.183 70.9853 139.459 70.9632C139.636 70.9632 139.824 70.9632 140.001 70.9632C140.089 70.9632 140.178 70.9632 140.278 70.9632H141.008C141.329 70.9632 141.661 70.9632 141.982 70.9742C142.258 70.9742 142.513 70.9853 142.767 71.0072L143.575 71.0403L144.471 71.0843C144.603 71.0843 144.736 71.1064 144.87 71.1174C145.002 71.1284 145.135 71.1394 145.268 71.1504L145.998 71.2165C146.152 71.2275 146.297 71.2385 146.441 71.2495C146.584 71.2605 146.739 71.2716 146.883 71.2826L147.657 71.3817L148.376 71.4587H148.498C148.764 71.5028 149.051 71.5248 149.295 71.5689C149.428 71.5908 149.561 71.6129 149.694 71.6349C149.826 71.6569 149.959 71.679 150.092 71.701L150.689 71.7891C150.811 71.8111 150.921 71.8221 151.043 71.8442C151.198 71.8662 151.353 71.8881 151.496 71.9212C151.84 72.1084 152.149 72.2846 152.47 72.4607L152.603 72.5379C152.78 72.648 152.957 72.747 153.145 72.8572L153.688 73.1545C154.019 73.3306 154.363 73.5289 154.683 73.7161C154.794 73.7821 154.893 73.8372 155.004 73.9032C155.413 74.1345 155.779 74.3767 156.155 74.63C156.199 74.663 156.243 74.6961 156.287 74.7292C156.42 74.8282 156.553 74.916 156.697 75.0041C156.796 75.0596 156.884 75.1143 156.973 75.1804C157.062 75.2359 157.161 75.302 157.25 75.3567C157.394 75.4562 157.549 75.555 157.692 75.6537C157.925 75.808 158.158 75.9622 158.401 76.1279C158.788 76.4029 159.153 76.6674 159.518 76.9538L160.016 77.317C160.116 77.3831 160.204 77.4492 160.304 77.5153C160.381 77.57 160.47 77.6361 160.547 77.6916C160.613 77.7463 160.691 77.7904 160.757 77.845C161.023 78.0433 161.288 78.2311 161.576 78.4726C161.941 78.7705 162.295 79.079 162.65 79.3867C162.726 79.4528 162.804 79.5189 162.881 79.585C162.959 79.6511 163.036 79.7172 163.114 79.7833C163.202 79.8494 163.28 79.9155 163.369 79.9922C163.446 80.0584 163.524 80.1245 163.6 80.18L163.723 80.2787C163.999 80.5211 164.275 80.7521 164.541 80.9944C164.873 81.3144 165.194 81.6335 165.537 81.964L165.969 82.3933L166.4 82.8226C166.688 83.0976 166.964 83.362 167.23 83.6485C167.55 84.0117 167.871 84.3748 168.17 84.7388L168.546 85.1787C168.613 85.2562 168.679 85.333 168.745 85.4105C168.812 85.4872 168.878 85.5647 168.944 85.6415C169.199 85.9165 169.432 86.2029 169.675 86.4894C169.896 86.7538 170.095 87.0289 170.294 87.3039C170.383 87.4255 170.471 87.5577 170.571 87.6785L170.903 88.1412L171.268 88.6252C171.456 88.857 171.622 89.0994 171.788 89.3303L171.899 89.4846C172.186 89.8918 172.463 90.3325 172.717 90.7398L173.016 91.2352C173.094 91.3894 173.193 91.5322 173.282 91.6759L173.326 91.7526C173.47 91.9623 173.591 92.1598 173.724 92.3696C173.78 92.4463 173.824 92.5344 173.879 92.612C174.057 92.909 174.222 93.2175 174.388 93.526C174.465 93.6795 174.554 93.8337 174.632 93.9773L174.908 94.4948C174.953 94.5935 175.007 94.6817 175.063 94.7698C175.107 94.8579 175.152 94.9355 175.196 95.0236L175.273 95.1664C175.406 95.4088 175.539 95.6292 175.66 95.8822C175.837 96.2347 176.004 96.5979 176.158 96.9611C176.214 97.0827 176.269 97.2035 176.313 97.3357L176.556 97.8866C176.59 97.9739 176.634 98.062 176.679 98.1502C176.723 98.2497 176.778 98.3485 176.811 98.4481C176.855 98.5362 176.9 98.635 176.944 98.7231C177.032 98.9214 177.132 99.1197 177.199 99.3181C177.408 99.8575 177.607 100.43 177.807 100.991L177.984 101.487L178.051 101.652C178.095 101.784 178.139 101.905 178.183 102.027C178.294 102.312 178.393 102.599 178.482 102.885C178.615 103.282 178.736 103.711 178.847 104.13C178.902 104.35 178.969 104.57 179.024 104.78L179.146 105.264C179.146 105.264 179.179 105.374 179.201 105.429C179.245 105.561 179.278 105.682 179.312 105.804C179.4 106.067 179.477 106.332 179.533 106.607C179.699 107.279 179.843 107.984 179.975 108.667L179.998 108.788L180.075 109.195C180.108 109.382 180.142 109.558 180.186 109.756C180.219 109.9 180.241 110.043 180.274 110.186L180.307 110.362L180.329 110.483C180.451 111.254 180.573 112.047 180.661 112.829L180.705 113.225C180.717 113.313 180.728 113.401 180.739 113.479C180.75 113.577 180.761 113.666 180.783 113.765C180.805 113.908 180.816 114.051 180.839 114.205C180.849 114.305 180.861 114.403 180.872 114.503C180.994 115.516 181.071 116.595 181.126 117.619C181.126 117.74 181.126 117.828 181.148 117.938C181.148 117.938 181.148 118.026 181.159 118.082V118.169C181.181 118.335 181.193 118.511 181.203 118.676C181.27 120.085 181.292 121.528 181.292 122.982C181.181 144.894 170.151 164.539 151.054 176.849C138.662 184.844 123.693 189.072 107.783 189.072C106.521 189.072 105.271 189.061 104.054 189.039C103.921 189.039 103.789 189.039 103.656 189.039C103.523 189.039 103.39 189.039 103.258 189.039H102.505L100.425 188.972C100.126 188.972 99.817 188.962 99.5289 188.94L98.3562 188.896H98.3341C97.8583 188.884 97.3719 188.862 96.8961 188.83L95.9886 188.786L94.8493 188.719C94.4061 188.709 93.9532 188.675 93.51 188.643C93.3444 188.631 93.1673 188.621 93.0016 188.609C92.8245 188.599 92.6474 188.587 92.4817 188.565L91.4085 188.489L90.2243 188.389L89.1291 188.301L88.1554 188.213C87.7792 188.18 87.403 188.147 87.0488 188.102C86.8717 188.081 86.6946 188.059 86.5175 188.037C86.3412 188.015 86.1641 188.004 85.987 187.971L85.1235 187.861L84.0177 187.717C83.6635 187.673 83.3534 187.629 83.0106 187.574L82.4793 187.497L82.4687 187.442ZM99.0311 59.7426L98.9536 59.8086C98.3896 60.3371 97.8363 60.8768 97.2503 61.4494L97.0063 61.6916C96.8406 61.8568 96.675 62.0219 96.5085 62.1981C96.0661 62.6385 95.6124 63.101 95.17 63.5745C95.1366 63.6186 95.1031 63.6516 95.0705 63.6846C95.0705 63.6846 94.9929 63.7618 94.9595 63.7948C94.6502 64.1141 94.34 64.4444 94.0299 64.7858C93.6651 65.1712 93.2889 65.5786 92.902 65.975L92.7576 66.1402C92.4703 66.4595 92.1716 66.7899 91.8729 67.1202C91.4085 67.6268 90.9433 68.1443 90.4569 68.6839C89.6604 69.5757 88.8083 70.5668 87.9008 71.6679C87.8233 71.767 87.7351 71.8552 87.6576 71.9542C87.558 72.0754 87.4471 72.2075 87.3369 72.3286L87.0929 72.6369C86.5289 73.3196 85.9756 74.0024 85.4337 74.7071C85.3341 74.8392 85.2231 74.9821 85.1129 75.1143C84.9358 75.3346 84.7694 75.555 84.6037 75.7753L84.5376 75.8521C84.0838 76.4356 83.6415 77.0305 83.2097 77.6141L83.0547 77.8344C82.778 78.209 82.4907 78.5942 82.2247 78.9688L82.2026 79.0015C81.7048 79.7066 81.2184 80.3889 80.7312 81.094L80.5214 81.4017L80.4325 81.5233C80.2888 81.7322 80.1452 81.942 80.0011 82.1395C79.3594 83.0756 78.7398 84.0337 78.1424 84.9584C78.1092 85.0139 78.076 85.0685 78.0318 85.124L77.9433 85.2889C77.3016 86.2911 76.6599 87.3374 75.996 88.4603C75.9407 88.5591 75.8854 88.6472 75.83 88.7468C75.7747 88.8456 75.7194 88.9337 75.6641 89.0333L75.4096 89.4732C74.9781 90.2003 74.5577 90.9381 74.1483 91.6865C74.0598 91.8407 73.9713 92.0064 73.8828 92.1713C73.7943 92.3361 73.7057 92.5018 73.6173 92.656L73.5066 92.8756C73.2742 93.3163 73.0419 93.757 72.8096 94.1977C72.6768 94.4507 72.544 94.6931 72.4223 94.9461C72.2453 95.2872 72.0683 95.6512 71.8913 95.9923L71.8138 96.1572C71.5815 96.6199 71.3602 97.0827 71.1278 97.5446C71.0062 97.7984 70.8844 98.062 70.7517 98.3159L70.5525 98.7231L70.4971 98.8333C70.4087 99.0202 70.3091 99.2185 70.2317 99.4054C69.8223 100.297 69.4129 101.223 69.0146 102.159L68.9261 102.379C68.9261 102.379 68.8819 102.467 68.8708 102.522C68.8487 102.577 68.8265 102.621 68.8044 102.665C68.3618 103.711 67.9193 104.802 67.4878 105.913C67.4546 106.023 67.4103 106.133 67.3661 106.244C67.3329 106.321 67.3108 106.398 67.2775 106.475L67.1337 106.861C66.8461 107.631 66.5584 108.402 66.2818 109.162C66.1712 109.481 66.0605 109.8 65.961 110.109L65.8835 110.34C65.6401 111.045 65.4188 111.749 65.1976 112.443C65.0758 112.84 64.943 113.258 64.8324 113.655C64.6222 114.371 64.4231 115.097 64.2239 115.802L64.1465 116.121C64.1133 116.286 64.069 116.452 64.0137 116.617C63.9916 116.715 63.9584 116.815 63.9362 116.925C63.726 117.718 63.5379 118.543 63.3166 119.458L63.2945 119.546L63.2282 119.799C63.195 119.909 63.1728 120.03 63.1507 120.151C62.9073 121.22 62.686 122.298 62.4979 123.355C62.4647 123.521 62.4426 123.686 62.4205 123.852L62.3541 124.203L62.332 124.325C62.1771 125.205 62.0553 125.889 61.9669 126.549C61.9226 126.835 61.8894 127.11 61.8562 127.397L61.823 127.672C61.7234 128.355 61.646 129.037 61.5685 129.72C61.5243 130.061 61.4911 130.425 61.4689 130.777V130.887C61.4247 131.295 61.3915 131.713 61.3584 132.121C61.3362 132.396 61.314 132.66 61.2919 132.936L61.2588 133.288C61.2477 133.53 61.2256 133.772 61.2145 134.003C61.1813 134.719 61.1481 135.468 61.137 136.382C61.137 136.503 61.137 136.613 61.126 136.735C61.126 136.856 61.126 136.966 61.1149 137.087C61.1038 138.111 61.1149 139.135 61.1481 140.104C61.1481 140.17 61.1481 140.247 61.1481 140.314C61.1481 140.38 61.1481 140.434 61.1481 140.5C61.1481 140.567 61.1481 140.621 61.1481 140.677C61.1481 140.721 61.1481 140.765 61.1481 140.809C61.1813 141.69 61.2256 142.395 61.2698 143.066V143.165C61.2919 143.374 61.303 143.584 61.3362 143.782L61.3694 144.079V144.112C61.4247 144.74 61.4911 145.368 61.5796 145.995C61.6017 146.138 61.6128 146.27 61.6349 146.413C61.6681 146.634 61.6903 146.854 61.7234 147.085C61.7677 147.46 61.8341 147.845 61.9004 148.219C61.9447 148.462 61.9779 148.704 62.0111 148.947L62.0553 149.232C62.0775 149.354 62.0996 149.486 62.1218 149.607C62.1439 149.728 62.155 149.839 62.1771 149.959C62.2767 150.554 62.4205 151.182 62.5865 151.908L62.6086 152.008L62.6749 152.305L62.697 152.393C62.7192 152.503 62.7414 152.624 62.7745 152.724C62.9515 153.472 63.1617 154.21 63.372 154.914C63.206 153.869 63.0511 152.767 62.9294 151.633C62.9294 151.578 62.9184 151.523 62.9073 151.468C62.9073 151.468 62.8963 151.357 62.8852 151.303C62.8852 151.259 62.8741 151.192 62.863 151.138C62.863 151.06 62.8409 150.994 62.8298 150.917C62.686 149.64 62.5865 148.33 62.509 146.876C62.509 146.744 62.4979 146.623 62.4979 146.491C62.4979 146.359 62.4979 146.238 62.4869 146.106V145.675C62.4205 144.652 62.4094 143.66 62.4094 142.736C62.4094 142.273 62.4094 141.8 62.4205 141.326C62.4316 140.412 62.4647 139.466 62.509 138.43V138.045C62.5311 137.902 62.5421 137.758 62.5421 137.626C62.5421 137.483 62.5532 137.351 62.5643 137.208C62.6639 135.765 62.7856 134.455 62.9294 133.189L62.9736 132.87L63.0068 132.616C63.1507 131.438 63.3277 130.282 63.5379 129.159C63.6043 128.806 63.6597 128.465 63.7371 128.135L63.7814 127.86C63.9584 126.967 64.1465 126.043 64.3566 125.117C64.4452 124.732 64.5447 124.335 64.6333 123.939L64.6775 123.774C64.9209 122.816 65.1976 121.836 65.4963 120.746C65.5074 120.68 65.5295 120.614 65.5516 120.558C65.5737 120.492 65.5847 120.426 65.6069 120.372C65.6291 120.283 65.6512 120.207 65.6733 120.129C65.6954 120.041 65.7175 119.953 65.7507 119.865C66.1269 118.621 66.5695 117.354 67.0342 116.077C67.0784 115.967 67.1226 115.857 67.167 115.747C67.2001 115.658 67.2444 115.56 67.2775 115.472L67.4435 115.097C67.8418 114.073 68.218 113.17 68.5831 112.322C68.7601 111.915 68.9482 111.474 69.1474 111.067C69.5236 110.241 69.933 109.415 70.3755 108.523L70.5525 108.193C70.6742 107.918 70.8069 107.665 70.9508 107.411C71.6589 106.089 72.2895 104.944 72.9202 103.91C73.6504 102.687 74.5135 101.399 75.5092 99.9563L75.6862 99.7139L75.7305 99.6372C75.7747 99.571 75.83 99.4935 75.8743 99.4274C76.7041 98.2604 77.5892 97.1268 78.5628 95.9148C78.7177 95.7394 78.8616 95.5631 79.0054 95.3754L79.1271 95.2211C80.0565 94.1096 81.0193 93.0078 81.9929 91.9729C82.081 91.8742 82.1806 91.764 82.2802 91.6759C82.3357 91.6204 82.3912 91.5657 82.4352 91.5102L82.6123 91.3127C83.719 90.1448 84.7367 89.1434 85.7324 88.24C85.8319 88.1633 85.9201 88.0751 86.009 87.987C86.0866 87.9209 86.1747 87.8434 86.2522 87.7781C87.2373 86.8966 88.255 86.0267 89.2621 85.1787L89.3388 85.1126L89.5828 84.9037C89.5828 84.9037 89.6604 84.8376 89.693 84.8049C89.7599 84.7494 89.8261 84.6948 89.8922 84.6286C90.8993 83.8248 92.0059 82.9874 93.2668 82.0848L93.51 81.9085L94.185 81.4237C95.2582 80.6753 96.3869 79.9261 97.5817 79.1998C97.7588 79.079 97.9473 78.9688 98.135 78.8587C98.3121 78.7591 98.4778 78.6489 98.6443 78.5502C99.8717 77.823 101.034 77.1627 102.151 76.5572C102.372 76.4356 102.593 76.3148 102.838 76.2046L103.224 76.0177C104.419 75.4122 105.537 74.8719 106.632 74.3657L107.728 73.8813C108.823 73.3967 109.962 72.9453 111.157 72.4718L111.523 72.3286C111.766 72.2405 112.021 72.1415 112.252 72.0423C113.425 71.6129 114.665 71.1944 116.081 70.765C116.202 70.7319 116.335 70.688 116.457 70.6549C116.745 70.5668 117.032 70.4787 117.309 70.4017C118.593 70.0162 119.909 69.6859 121.214 69.3776C121.413 69.3225 121.613 69.2784 121.823 69.2344C121.934 69.2124 122.044 69.1904 122.144 69.1573L122.387 69.1133C123.892 68.783 125.231 68.5187 126.503 68.3094C126.58 68.2984 126.669 68.2874 126.747 68.2764C126.846 68.2655 126.934 68.2544 127.034 68.2324L127.366 68.1883C128.727 67.9791 130.076 67.814 131.404 67.6598C131.448 67.6598 131.504 67.6488 131.548 67.6488C131.593 67.6488 131.647 67.6488 131.692 67.6378C131.803 67.6157 131.924 67.6047 132.047 67.6047C133.385 67.4836 134.845 67.3955 136.494 67.3294H136.782C136.881 67.3184 136.969 67.3074 137.069 67.3074C137.169 67.3074 137.258 67.3074 137.357 67.3074C138.54 67.2743 139.758 67.2743 140.997 67.3074C139.902 66.911 138.884 66.5366 137.866 66.2063C137.821 66.1843 137.777 66.1732 137.733 66.1622C137.733 66.1622 137.644 66.1402 137.612 66.1292L137.401 66.0631C136.25 65.6997 135.044 65.3364 133.706 64.9509L133.407 64.8519C133.33 64.8298 133.263 64.8078 133.196 64.7968C133.064 64.7638 132.943 64.7307 132.798 64.6757C131.404 64.2903 130 63.9269 128.616 63.6076C128.539 63.5966 128.451 63.5745 128.373 63.5525C128.296 63.5305 128.218 63.5194 128.129 63.4975L127.798 63.4204C126.536 63.1341 125.22 62.8478 123.925 62.5945L123.593 62.5284L123.062 62.4404C121.635 62.1651 120.097 61.9008 118.515 61.6365L117.862 61.5374H117.453C115.948 61.3172 114.521 61.108 113.116 60.9318L112.507 60.8547C111.003 60.6785 109.387 60.5023 107.561 60.3371L106.388 60.2381C104.419 60.0619 102.771 59.9518 101.189 59.8637C100.669 59.8417 100.17 59.8086 99.6726 59.7866C99.4628 59.7866 99.2637 59.7645 99.0531 59.7535L99.0311 59.7426ZM163.745 75.7419C163.59 75.6097 163.424 75.4889 163.269 75.3567C163.568 75.4889 163.899 75.6097 164.187 75.6978C164.253 75.7198 164.309 75.7533 164.375 75.7753C164.486 75.8194 164.585 75.8635 164.707 75.9076C164.773 75.9296 164.84 75.9622 164.906 75.9843C165.117 76.0618 165.316 76.1499 165.515 76.2381C166.931 76.8763 168.192 77.5259 169.387 78.1976C170.272 78.6824 171.18 79.2324 172.076 79.7727C172.175 79.8274 172.275 79.8935 172.363 79.9596C172.441 80.0143 172.518 80.0584 172.607 80.1139L173.215 80.4884C173.702 80.7741 174.156 81.072 174.643 81.3797L174.742 81.4458C174.853 81.5119 174.963 81.5894 175.085 81.6661C175.196 81.7437 175.306 81.8204 175.417 81.8865L176.125 82.3378C176.534 82.6136 176.944 82.8887 177.342 83.1751C177.575 83.34 177.818 83.5048 178.061 83.6925L178.847 84.2647C178.947 84.3308 179.035 84.4083 179.134 84.4744C179.4 84.6613 179.654 84.849 179.909 85.0465C180.164 85.2448 180.396 85.4211 180.661 85.6194L181.469 86.225C181.58 86.3131 181.701 86.4013 181.812 86.4894C182.011 86.6437 182.221 86.7979 182.42 86.9628C182.575 87.095 182.72 87.2158 182.874 87.3374C182.973 87.4141 183.073 87.4916 183.173 87.5797L183.947 88.1959L184.047 88.2735C184.335 88.5044 184.622 88.7354 184.91 88.9778C185.065 89.1214 185.219 89.2536 185.375 89.385C185.463 89.4625 185.563 89.5507 185.663 89.6274L186.37 90.233C186.537 90.3872 186.713 90.5308 186.879 90.6737C187.023 90.8059 187.167 90.9267 187.311 91.0589C187.465 91.1911 187.61 91.3233 187.754 91.4661C187.875 91.5763 187.986 91.6865 188.108 91.7967L188.738 92.3696C189.036 92.6446 189.335 92.9196 189.634 93.2061C189.767 93.3383 189.9 93.4599 190.033 93.5913C190.165 93.7235 190.298 93.8451 190.431 93.9773L191.039 94.5715C191.327 94.8473 191.648 95.1444 191.903 95.4194C192.035 95.5516 192.157 95.6839 192.29 95.8161C192.423 95.9483 192.544 96.0805 192.677 96.2127L193.297 96.8509C193.462 97.0386 193.639 97.2255 193.817 97.4018C193.905 97.4899 193.994 97.5887 194.082 97.6768L194.967 98.6456L195.299 99.0096L196.162 99.9677C196.405 100.231 196.616 100.485 196.848 100.75L196.937 100.859L197.379 101.388C197.512 101.553 197.656 101.729 197.799 101.895C197.922 102.037 198.043 102.181 198.153 102.312C198.386 102.599 198.629 102.907 198.872 103.204L199.249 103.689C199.481 103.964 199.714 104.262 199.935 104.537L200.045 104.669C200.3 104.988 200.532 105.308 200.776 105.638L200.986 105.913H200.997C201.263 106.288 201.55 106.673 201.815 107.048L201.916 107.191C202.103 107.455 202.291 107.719 202.468 107.984L202.712 108.336L203.487 109.47L203.597 109.646C203.785 109.944 203.962 110.241 204.15 110.528L204.25 110.67C204.427 110.945 204.604 111.21 204.77 111.486C204.626 111.903 204.449 112.322 204.283 112.741C204.206 112.939 204.128 113.137 204.051 113.335L203.907 113.699L203.619 114.425C203.575 114.524 203.541 114.634 203.497 114.734C203.342 115.141 203.188 115.548 203.011 115.967C202.712 116.65 202.402 117.332 202.081 118.015L201.783 118.665C201.716 118.808 201.65 118.951 201.594 119.083C201.55 119.182 201.495 119.293 201.451 119.391C201.218 119.931 200.986 120.426 200.732 120.955C200.477 121.506 200.2 122.045 199.924 122.585C199.846 122.728 199.78 122.871 199.702 123.004L198.983 124.413L198.84 124.677C198.607 125.117 198.386 125.558 198.143 125.999C197.821 126.593 197.478 127.188 197.124 127.782L196.97 128.046L196.572 128.752C196.439 128.971 196.317 129.203 196.196 129.423L196.129 129.544C195.841 130.061 195.553 130.568 195.244 131.086C194.846 131.757 194.414 132.44 193.982 133.112L193.496 133.883C193.407 134.015 193.319 134.158 193.241 134.29C193.153 134.422 193.075 134.566 192.987 134.698C192.721 135.138 192.433 135.578 192.146 136.019L192.046 136.184L191.891 136.404C191.46 137.043 191.017 137.692 190.575 138.331L190.044 139.08C189.944 139.223 189.856 139.355 189.756 139.498C189.679 139.62 189.59 139.741 189.512 139.861C189.435 139.983 189.347 140.104 189.269 140.225C189.026 140.577 188.793 140.93 188.539 141.271C187.919 142.13 187.278 142.989 186.636 143.837L186.171 144.442C186.049 144.586 185.928 144.751 185.817 144.905C185.751 144.993 185.685 145.092 185.607 145.192C185.518 145.312 185.43 145.434 185.341 145.555C185.153 145.808 184.954 146.072 184.767 146.325C183.461 148.021 182.077 149.717 180.717 151.347C179.622 152.646 178.493 153.935 177.342 155.223C177.253 155.322 177.165 155.41 177.077 155.498C176.988 155.586 176.9 155.685 176.811 155.773L176.733 155.85C176.623 155.96 176.502 156.082 176.379 156.214L176.258 156.357C175.915 156.732 175.583 157.095 175.229 157.458C175.705 156.687 176.158 155.916 176.59 155.156C176.656 155.046 176.723 154.925 176.778 154.815L176.822 154.727L176.855 154.661L176.878 154.628C176.911 154.551 176.944 154.485 176.988 154.408C177.641 153.197 178.172 152.173 178.637 151.182C178.726 150.984 178.814 150.785 178.902 150.576C178.947 150.466 179.001 150.356 179.046 150.234C179.112 150.114 179.156 149.992 179.212 149.871V149.839L179.256 149.772L179.278 149.728C179.654 148.902 180.053 147.988 180.396 147.085C180.518 146.799 180.617 146.501 180.728 146.204C180.783 146.05 180.839 145.885 180.894 145.731L181.004 145.412C181.358 144.454 181.646 143.638 181.89 142.846C182.011 142.483 182.111 142.119 182.221 141.767C182.288 141.535 182.354 141.304 182.42 141.084C182.642 140.258 182.885 139.388 183.095 138.496L183.173 138.188C183.294 137.704 183.405 137.197 183.516 136.701C183.726 135.733 183.903 134.785 184.036 133.971L184.114 133.53C184.136 133.42 184.146 133.299 184.168 133.189C184.224 132.858 184.279 132.539 184.323 132.209C184.445 131.251 184.545 130.304 184.656 129.169C184.656 129.059 184.678 128.949 184.689 128.85C184.689 128.752 184.711 128.663 184.722 128.564C184.722 128.454 184.744 128.343 184.755 128.233C184.777 128.036 184.799 127.837 184.811 127.639C184.943 126.009 185.01 124.501 185.01 123.026C185.01 121.693 184.976 120.283 184.921 118.775C184.921 118.621 184.899 118.477 184.888 118.335C184.877 118.191 184.866 118.037 184.855 117.883L184.821 117.443C184.755 116.33 184.678 115.438 184.6 114.634C184.578 114.481 184.567 114.327 184.545 114.183C184.512 113.886 184.478 113.599 184.434 113.302V113.137C184.313 112.278 184.18 111.42 184.047 110.604C183.969 110.109 183.881 109.613 183.793 109.118C183.648 108.358 183.471 107.532 183.262 106.607L183.173 106.178L183.14 106.035C183.084 105.782 183.029 105.539 182.963 105.286C182.742 104.383 182.465 103.414 182.144 102.39C182.144 102.356 182.121 102.324 182.111 102.29C182.089 102.225 182.067 102.159 182.045 102.059C182.011 101.917 181.967 101.762 181.922 101.619C181.535 100.441 181.104 99.2405 180.639 98.0735C180.584 97.9519 180.54 97.8311 180.484 97.7103C180.451 97.6442 180.429 97.5781 180.396 97.512C180.329 97.4018 180.274 97.2802 180.23 97.1594C179.809 96.1686 179.455 95.3754 179.112 94.6596C178.969 94.3405 178.814 94.0434 178.648 93.735L178.504 93.4599C178.083 92.656 177.718 91.995 177.364 91.3674C177.132 90.9601 176.888 90.5529 176.645 90.1562C176.258 89.5172 175.837 88.8676 175.362 88.1633L175.196 87.9429C175.074 87.7781 174.963 87.6124 174.853 87.4475C174.764 87.3153 174.676 87.1831 174.587 87.0509C174.145 86.4119 173.647 85.7622 173.016 84.9584C172.983 84.9151 172.938 84.871 172.906 84.827C172.85 84.7494 172.784 84.6833 172.739 84.6172C172.618 84.4409 172.485 84.2647 172.341 84.0892C171.534 83.1196 170.726 82.1835 169.896 81.3029L169.697 81.1046C169.697 81.1046 169.641 81.0385 169.609 81.0165C169.609 81.0165 169.553 80.9618 169.531 80.9283C169.387 80.7855 169.243 80.6313 169.099 80.4884C168.48 79.8608 167.861 79.2324 167.218 78.6489L167.164 78.5942C166.975 78.4179 166.787 78.2417 166.577 78.0768L166.267 77.801C165.537 77.1513 164.906 76.6233 164.298 76.1279C164.143 75.9957 163.977 75.8741 163.822 75.7419H163.745ZM152.647 68.5407H152.615C152.581 68.5187 152.559 68.5077 152.526 68.4967L152.426 68.4526C150.833 67.6267 149.206 66.8449 147.591 66.1512L147.414 66.0742C145.688 65.3033 143.874 64.5986 142.104 63.9379C140.333 63.2882 138.441 62.6606 136.461 62.055L136.284 62.0109C134.447 61.4493 132.489 60.9318 130.42 60.4253L130.099 60.3482C128.229 59.9077 126.193 59.4563 124.047 59.0488L123.605 58.9497C121.657 58.5864 119.544 58.223 117.331 57.9036L116.767 57.8266C114.72 57.5403 112.54 57.265 110.272 57.0227L109.996 56.9897L109.597 56.9457C107.485 56.7254 105.216 56.5493 102.904 56.3841C116.335 45.714 129.789 45.3285 144.029 55.2169C156.498 63.8719 169.498 66.0742 184.556 68.5957C185.308 68.7279 186.105 68.86 186.913 68.9921C188.904 69.3335 191.039 69.6859 193.219 70.0933C199.061 71.1614 203.354 73.9804 205.954 78.4506C209.782 85.0359 209.859 95.2325 206.197 107.191L206.098 107.048C205.976 106.871 205.854 106.684 205.733 106.508L205.245 105.826C205.135 105.65 205.002 105.462 204.881 105.286C204.393 104.581 203.862 103.854 203.265 103.084L202.878 102.588L202.834 102.522L202.701 102.346C202.159 101.641 201.694 101.057 201.241 100.496C201.141 100.364 201.03 100.243 200.919 100.111C200.875 100.056 200.82 100 200.765 99.9342L200.234 99.296C199.913 98.8994 199.581 98.4921 199.238 98.1175C199.138 97.9959 199.027 97.8751 198.917 97.7544C198.828 97.6548 198.729 97.5446 198.641 97.4459L198.109 96.8509C197.789 96.4877 197.468 96.1352 197.147 95.7826C196.892 95.497 196.626 95.2211 196.373 94.9461L196.184 94.7371C195.797 94.3185 195.399 93.9112 195.011 93.5146L194.978 93.482C194.757 93.2281 194.513 92.9972 194.27 92.7548C194.181 92.6666 194.104 92.5899 194.016 92.5124L193.95 92.4463C193.54 92.039 193.13 91.6318 192.721 91.2352C192.467 90.9822 192.201 90.7284 191.947 90.4868C191.847 90.3986 191.748 90.2991 191.648 90.2109C191.515 90.0901 191.382 89.9694 191.25 89.8371C190.973 89.5613 190.685 89.2969 190.398 89.0439C190.232 88.9011 190.077 88.7574 189.922 88.6146C189.711 88.4277 189.502 88.24 189.291 88.0531C188.871 87.6679 188.439 87.2819 188.008 86.9187C187.742 86.6877 187.477 86.4674 187.2 86.2364C187.089 86.1483 186.979 86.0601 186.868 85.9606C186.559 85.6855 186.249 85.4325 185.928 85.1681C185.795 85.0685 185.673 84.9584 185.54 84.8596C185.253 84.6393 184.966 84.4083 184.678 84.1879C184.578 84.0998 184.467 84.0231 184.367 83.9455C183.903 83.5824 183.439 83.2298 182.973 82.8772L182.796 82.7344C182.597 82.6022 182.41 82.4594 182.221 82.3157C182.077 82.2056 181.945 82.1068 181.801 82.0081C181.591 81.8538 181.37 81.6882 181.148 81.5339C180.927 81.3797 180.705 81.2262 180.496 81.0605L180.097 80.7741C179.799 80.5546 179.499 80.3448 179.201 80.1359C179.057 80.0363 178.925 79.9482 178.78 79.8494C178.449 79.6291 178.127 79.3981 177.785 79.1778L177.32 78.8587C177.066 78.6824 176.8 78.5061 176.546 78.3412C176.357 78.2196 176.169 78.1094 175.981 77.9887H175.959V77.9666H175.948C175.561 77.7242 175.174 77.4819 174.786 77.2395L174.455 77.0305C174.355 76.9644 174.244 76.8983 174.145 76.8436C174.045 76.7881 173.957 76.7335 173.857 76.6674C173.647 76.5458 173.436 76.4135 173.227 76.2928C172.508 75.8635 171.821 75.4562 171.136 75.0702C169.786 74.3217 168.369 73.584 166.875 72.9232L166.809 72.8902C165.426 72.2626 163.955 71.6679 162.406 71.1174L162.262 71.0513C160.824 70.5338 159.286 70.0603 157.682 69.6308L157.471 69.5647C155.988 69.1683 154.395 68.805 152.758 68.4967H152.681L152.647 68.4746V68.5407Z" fill="white"/>
<defs>
<radialGradient id="paint0_radial_741_46" cx="0" cy="0" r="1" gradientUnits="userSpaceOnUse" gradientTransform="translate(246.533 86.985) rotate(-180) scale(203.806 203.287)">
<stop offset="0.09" stop-color="#EDE80A"/>
<stop offset="1" stop-color="#EDE80A" stop-opacity="0"/>
</radialGradient>
<radialGradient id="paint1_radial_741_46" cx="0" cy="0" r="1" gradientUnits="userSpaceOnUse" gradientTransform="translate(12.3749 172.97) rotate(-180) scale(203.806 203.287)">
<stop stop-color="#E6CF52"/>
<stop offset="1" stop-color="#E6CF52" stop-opacity="0"/>
</radialGradient>
</defs>
</svg>
