<svg width="256" height="256" viewBox="0 0 256 256" fill="none" xmlns="http://www.w3.org/2000/svg">
<g clip-path="url(#clip0_3095_20)">
<path d="M128.103 0.204102C198.686 0.204102 255.897 57.404 255.897 127.974C255.897 198.544 198.686 255.693 128.153 255.693C57.5687 255.693 0.408236 198.493 0.408236 127.974C0.357963 57.404 57.5687 0.204102 128.103 0.204102Z" fill="#8247E5"/>
<mask id="mask0_3095_20" style="mask-type:luminance" maskUnits="userSpaceOnUse" x="43" y="55" width="168" height="148">
<path d="M43.493 55.4551H210.953V202.203H43.493V55.4551Z" fill="white"/>
</mask>
<g mask="url(#mask0_3095_20)">
<path d="M84.4652 100.148C87.5316 98.3883 91.4529 98.3883 94.9219 100.148L119.355 114.627L135.945 123.826L159.925 138.255C162.992 140.015 166.913 140.015 170.382 138.255L189.134 126.843C192.201 125.083 194.362 121.564 194.362 117.643V95.7235C194.362 92.2044 192.603 88.7359 189.134 86.5239L170.382 75.5639C167.315 73.8046 163.394 73.8046 159.925 75.5639L141.173 86.9761C138.107 88.7359 135.945 92.255 135.945 96.1762V110.655L119.355 101.002V86.1212C119.355 82.6021 121.114 79.1336 124.583 76.9216L159.473 56.3092C162.54 54.5499 166.461 54.5499 169.929 56.3092L205.674 77.3738C209.143 79.1336 210.902 82.6527 210.902 86.1212V127.295C210.902 130.814 209.143 134.283 205.674 136.495L170.332 157.107C167.265 158.867 163.344 158.867 159.875 157.107L135.895 143.081L119.304 133.429L95.324 119.402C92.2571 117.643 88.3359 117.643 84.8674 119.402L66.115 130.362C63.0486 132.122 60.8867 135.641 60.8867 139.562V161.481C60.8867 165 62.6465 168.469 66.115 170.681L84.4146 181.641C87.4815 183.4 91.4028 183.4 94.8718 181.641L113.674 170.681C116.741 168.922 118.902 165.403 118.902 161.481V147.455L135.493 157.107V171.586C135.493 175.105 133.733 178.574 130.264 180.786L94.9219 201.398C91.855 203.158 87.9337 203.158 84.4652 201.398L49.1229 180.786C46.056 179.027 43.8946 175.508 43.8946 171.586V129.96C43.8946 126.44 45.6539 122.972 49.1229 120.76L84.4652 100.148Z" fill="white"/>
</g>
</g>
<defs>
<clipPath id="clip0_3095_20">
<rect width="256" height="256" fill="white"/>
</clipPath>
</defs>
</svg>
