<svg width="256" height="256" viewBox="0 0 256 256" fill="none" xmlns="http://www.w3.org/2000/svg">
<g clip-path="url(#clip0_1595_7)">
<path d="M128 256C198.692 256 256 198.692 256 128C256 57.3075 198.692 0 128 0C57.3075 0 0 57.3075 0 128C0 198.692 57.3075 256 128 256Z" fill="#191919"/>
<path d="M128 241.778C190.838 241.778 241.778 190.838 241.778 128C241.778 65.1627 190.838 14.2227 128 14.2227C65.1622 14.2227 14.2222 65.1627 14.2222 128C14.2222 190.838 65.1622 241.778 128 241.778Z" fill="#F0F0F0"/>
<path d="M128 208.5C172.459 208.5 208.5 172.459 208.5 128C208.5 83.5411 172.459 47.5 128 47.5C83.5411 47.5 47.5 83.5411 47.5 128C47.5 172.459 83.5411 208.5 128 208.5Z" fill="#191919"/>
</g>
<defs>
<clipPath id="clip0_1595_7">
<rect width="256" height="256" fill="white"/>
</clipPath>
</defs>
</svg>
