<svg width="256" height="256" viewBox="0 0 256 256" fill="none" xmlns="http://www.w3.org/2000/svg">
<path opacity="0.997" fill-rule="evenodd" clip-rule="evenodd" d="M116.48 2.30418C163.204 -0.202176 200.836 16.8645 229.376 53.5042C255.488 91.9032 260.267 132.863 243.712 176.384C223.154 221.326 188.253 246.841 139.008 252.928C92.2712 255.685 54.6392 238.703 26.1116 201.984C-0.000623149 163.585 -4.77929 122.625 11.7756 79.1042C32.4141 34.1564 67.3153 8.55642 116.48 2.30418Z" fill="#FEDA3F"/>
<path fill-rule="evenodd" clip-rule="evenodd" d="M126.721 31.9999C127.424 31.9196 128.107 32.005 128.769 32.2559C137.214 37.89 145.576 43.6073 153.857 49.4079C148.942 63.8954 144.078 78.4024 139.265 92.9279C134.879 95.6906 131.039 99.1036 127.745 103.168C124.12 98.9439 120.109 95.1894 115.713 91.9039C111.019 77.8239 106.326 63.7439 101.633 49.6639C101.707 49.2686 101.878 48.9272 102.145 48.6399C110.459 43.2082 118.651 37.6615 126.721 31.9999Z" fill="#010100"/>
<path fill-rule="evenodd" clip-rule="evenodd" d="M88.8319 53.5038C89.5886 53.3696 90.2711 53.5401 90.8799 54.0158C96.6824 65.6213 102.485 77.2263 108.288 88.8318C95.5248 87.5338 86.3088 92.6538 80.6399 104.192C71.7654 99.7543 62.8904 95.3173 54.0159 90.8798C53.8454 90.5383 53.6744 90.1973 53.5039 89.8558C55.8151 79.837 57.8631 69.7674 59.6479 59.6478C69.5561 58.1107 79.2841 56.0627 88.8319 53.5038Z" fill="#010100"/>
<path fill-rule="evenodd" clip-rule="evenodd" d="M164.607 54.0161C175.05 55.695 185.46 57.5725 195.839 59.6481C197.495 69.8021 199.543 79.8716 201.983 89.8561C201.813 90.1976 201.642 90.5386 201.471 90.8801C192.597 95.3176 183.722 99.7546 174.847 104.192C171.732 96.7261 166.27 91.8621 158.463 89.6001C154.64 88.957 150.886 88.701 147.199 88.8321C153.009 77.2133 158.811 65.6078 164.607 54.0161Z" fill="#010100"/>
<path fill-rule="evenodd" clip-rule="evenodd" d="M48.896 101.632C58.9343 104.978 69.0033 108.221 79.104 111.36C79.6242 118.038 81.7572 124.182 85.504 129.792C87.6099 133.093 89.9139 136.25 92.416 139.264C78.2587 144.324 64.0077 149.188 49.664 153.856C43.2986 145.518 37.4106 136.814 32 127.744C37.5025 118.958 43.1345 110.254 48.896 101.632Z" fill="#020100"/>
<path fill-rule="evenodd" clip-rule="evenodd" d="M205.056 101.632C205.733 101.545 206.331 101.715 206.848 102.144C212.53 110.61 218.076 119.143 223.488 127.744C218.054 136.474 212.422 145.093 206.592 153.6C192.035 149.146 177.528 144.367 163.072 139.264C170.28 131.277 174.888 121.976 176.896 111.36C186.371 108.202 195.758 104.959 205.056 101.632Z" fill="#010100"/>
<path fill-rule="evenodd" clip-rule="evenodd" d="M95.4878 143.616C100.787 149.257 105.907 155.06 110.848 161.024C104.332 174.567 97.676 188.05 90.8798 201.472C90.5383 201.643 90.1973 201.814 89.8558 201.984C79.8369 199.673 69.7674 197.625 59.6478 195.84C58.0216 186.43 56.2296 177.043 54.2718 167.68C53.9302 166.656 53.9302 165.632 54.2718 164.608C68.0814 157.661 81.8204 150.663 95.4878 143.616Z" fill="#010100"/>
<path fill-rule="evenodd" clip-rule="evenodd" d="M159.489 143.616C173.424 150.542 187.333 157.539 201.217 164.608C201.558 165.803 201.558 166.998 201.217 168.192C199.325 177.395 197.533 186.611 195.841 195.84C185.924 197.585 176.026 199.462 166.145 201.472C165.493 201.436 164.896 201.266 164.353 200.96C157.641 187.709 151.071 174.397 144.641 161.024C149.586 155.225 154.535 149.422 159.489 143.616Z" fill="#010100"/>
<path fill-rule="evenodd" clip-rule="evenodd" d="M114.945 165.632C118.585 168.671 122.169 171.829 125.697 175.104C127.062 175.445 128.427 175.445 129.793 175.104C133.19 172.219 136.433 169.147 139.521 165.888C139.947 165.536 140.288 165.621 140.545 166.144C145.032 179.351 149.47 192.578 153.857 205.824C145.519 212.189 136.815 218.077 127.745 223.488C118.778 218.067 110.074 212.264 101.633 206.08C106.279 192.654 110.716 179.172 114.945 165.632Z" fill="#010100"/>
</svg>
