<svg width="256" height="256" viewBox="0 0 256 256" fill="none" xmlns="http://www.w3.org/2000/svg">
<g clip-path="url(#clip0_1332_1768)">
<path d="M128 256C198.692 256 256 198.692 256 128C256 57.3077 198.692 0 128 0C57.3077 0 0 57.3077 0 128C0 198.692 57.3077 256 128 256Z" fill="#0071F3"/>
<path d="M148.332 51.229H134.277H103.298C98.3104 51.229 93.928 54.8558 93.1723 59.843L89.999 80.2441V80.3956H74.8864C70.8064 80.3956 67.6326 83.7204 67.6326 87.6494C67.6326 91.7294 70.9574 94.9033 74.8864 95.0542H87.7318L85.4651 109.109L85.3142 110.166H70.2016C66.1216 110.166 62.9478 113.491 62.9478 117.42C62.9478 121.349 66.2726 124.674 70.2016 124.674H83.047L76.0955 168.65L73.8288 183.309L72.6198 191.168C71.7131 197.364 76.3979 202.955 82.7451 202.955H92.4166H105.715H116.596C121.583 202.955 125.814 199.328 126.721 194.341L133.22 153.992H136.997H149.087C177.649 153.992 200.922 130.417 200.469 101.704C200.015 73.4441 176.44 51.229 148.332 51.229ZM102.542 95.0542L148.18 95.2052C152.261 95.2052 155.737 98.53 155.737 102.761C155.737 106.842 152.412 110.318 148.18 110.318H100.124L102.542 95.0542ZM148.483 139.182H140.775H137.149H129.442C124.454 139.182 120.223 142.809 119.316 147.796L112.818 188.296H88.0341L97.8571 124.825H148.18C160.421 124.825 170.244 114.851 170.244 102.761C170.244 90.6718 160.27 80.698 148.18 80.698L104.959 80.5465L107.227 66.0388H149.238C169.791 66.0388 186.414 82.9646 185.961 103.517C185.356 123.465 168.582 139.182 148.483 139.182Z" fill="white"/>
</g>
<defs>
<clipPath id="clip0_1332_1768">
<rect width="256" height="256" fill="white"/>
</clipPath>
</defs>
</svg>
