<svg width="256" height="256" viewBox="0 0 256 256" fill="none" xmlns="http://www.w3.org/2000/svg">
<g clip-path="url(#clip0_741_46)">
<path d="M128 256C198.692 256 256 198.692 256 128C256 57.3076 198.692 0 128 0C57.3076 0 0 57.3076 0 128C0 198.692 57.3076 256 128 256Z" fill="white"/>
<path d="M201.973 55.8403C193.06 46.8326 182.576 39.5272 171.04 34.283C172.61 31.1334 173.597 27.7249 173.952 24.2237L173.451 23.9998C171.818 27.1152 169.987 30.1223 167.968 33.0024C165.739 36.2298 163.343 39.3386 160.789 42.3149L166.709 42.3787C160.043 53.0663 149.828 61.0679 137.856 64.9815C137.802 69.8455 130.389 78.4425 130.389 78.4425C138.91 75.9599 146.946 72.0468 154.154 66.8695C205.258 69.2162 217.728 99.1466 221.227 104.8C221.728 105.611 221.333 106.358 221.227 106.23C218.142 100.72 213.975 95.8902 208.976 92.0317C203.977 88.1731 198.25 85.3648 192.139 83.7758L197.546 90.4425C184.044 83.9456 169.455 80.0072 154.517 78.8266C175.814 82.9945 195.127 94.1103 209.429 110.432C219.17 123.038 225.645 137.856 228.277 153.568C228.395 154.421 228.469 155.093 228.501 155.552C230.776 147 231.952 138.193 232 129.344C232.112 115.714 229.515 102.198 224.36 89.5798C219.206 76.9618 211.596 65.4936 201.973 55.8403ZM146.507 26.6775L145.024 26.4216L143.744 26.2185H143.563L141.28 25.8988H141.13L139.872 25.7491C139.052 25.6568 138.23 25.5755 137.408 25.5043H137.11L136.181 25.4294C135.207 25.3512 134.226 25.2872 133.237 25.2374C132.384 25.2374 131.52 25.1624 130.667 25.141H126.592C125.269 25.141 123.946 25.1946 122.634 25.2693L121.333 25.3442C99.6466 26.716 78.9326 34.8422 62.0984 48.5831C45.2643 62.324 33.154 80.99 27.4663 101.963C25.1425 110.787 23.9777 119.877 24.0001 129.002C23.9527 131.006 24.0593 133.01 24.3198 134.997C24.4537 135.882 24.6537 136.755 24.9175 137.61L25.0027 137.899C26.7593 143.18 29.1256 148.238 32.0535 152.97C33.8169 156.07 35.7833 159.049 37.9409 161.888C38.8381 163.117 39.8037 164.296 40.8322 165.418L41.1414 165.771L41.5249 166.187L42.5919 167.349L42.8263 167.595C48.1371 172.935 54.3156 177.335 61.0984 180.608C71.5107 185.656 82.8161 188.603 94.368 189.28C98.3822 189.554 102.411 189.526 106.421 189.194H107.018C111.349 188.863 115.617 187.963 119.712 186.517C123.16 185.445 126.39 183.765 129.248 181.557C132.854 178.892 135.947 175.596 138.378 171.829C141.977 166.389 143.974 160.046 144.139 153.525C143.11 144.371 138.829 135.891 132.076 129.627C125.322 123.362 116.544 119.73 107.339 119.392C106.629 119.325 105.917 119.275 105.205 119.243H101.173L99.9891 119.296L98.976 119.371L98.0906 119.456C97.4986 119.511 96.908 119.582 96.3198 119.669C94.8051 119.875 93.273 120.153 91.7228 120.501C77.4828 123.765 82.4317 135.179 82.6023 135.563C79.2401 135.26 75.9212 134.591 72.7039 133.568H72.5548L71.9253 133.344C68.4881 132.16 65.3247 130.295 62.6238 127.861L62.368 127.616C60.6023 125.882 59.0999 123.898 57.909 121.728C55.9423 122.966 54.0411 124.304 52.213 125.739C50.8266 118.437 50.5427 110.969 51.3706 103.584C53.0986 95.2211 66.4214 85.1521 66.4214 85.1521C66.4214 85.1521 64.7573 93.7386 72.3947 93.824C80.032 93.9093 88.9387 81.888 89.2801 82.9334C89.6214 83.9787 96.5867 84.0642 96.5867 84.0642C96.5867 84.0642 93.4506 84.064 90.7306 78.432C88.0106 72.8 96.4694 64.5652 110.475 59.5518C119.91 55.6955 128.417 49.8784 135.434 42.4854C138.912 42.8801 139.85 52.6189 139.85 52.6189C149.068 46.9916 157.385 40.0082 164.522 31.9041C158.692 29.611 152.666 27.8544 146.517 26.656L146.507 26.6775ZM110.325 70.8376C103.2 73.611 104.096 78.5173 104.096 78.5173C108.117 78.9947 112.187 78.1883 115.723 76.2133C119.924 73.3284 123.008 69.0888 124.458 64.2029C119.882 66.6651 115.167 68.8587 110.336 70.7732L110.325 70.8376ZM64.5757 98.0694C62.4423 97.3548 59.6478 99.8612 58.3465 103.691C57.7643 105.305 57.5669 107.032 57.7703 108.736C57.8831 107.974 58.0655 107.224 58.3146 106.496C59.6266 102.667 62.4104 100.149 64.5438 100.875C65.1514 101.165 65.667 101.617 66.034 102.182C66.401 102.747 66.6052 103.401 66.6238 104.075C67.0718 101.131 66.2934 98.6344 64.5867 98.0584L64.5757 98.0694ZM110.325 70.8376C103.2 73.611 104.096 78.5173 104.096 78.5173C108.117 78.9947 112.176 78.1883 115.712 76.2133C119.913 73.3284 123.008 69.0888 124.458 64.2029C119.882 66.6651 115.167 68.8587 110.336 70.7732L110.325 70.8376ZM64.5757 98.0694C62.4423 97.3548 59.6478 99.8612 58.3465 103.691C57.7643 105.305 57.5669 107.032 57.7703 108.736C57.8831 107.974 58.0655 107.224 58.3146 106.496C59.6266 102.667 62.4104 100.149 64.5438 100.875C65.1514 101.165 65.667 101.617 66.034 102.182C66.401 102.747 66.6052 103.401 66.6238 104.075C67.0718 101.131 66.2934 98.6344 64.5867 98.0584L64.5757 98.0694ZM110.325 70.8376C103.2 73.611 104.096 78.5173 104.096 78.5173C108.117 78.9947 112.176 78.1883 115.712 76.2133C119.913 73.3284 123.008 69.0888 124.458 64.2029C119.882 66.6651 115.167 68.8587 110.336 70.7732L110.325 70.8376ZM64.5757 98.0694C62.4423 97.3548 59.6478 99.8612 58.3465 103.691C57.7643 105.305 57.5669 107.032 57.7703 108.736C57.8831 107.974 58.0655 107.224 58.3146 106.496C59.6266 102.667 62.4104 100.149 64.5438 100.875C65.1514 101.165 65.667 101.617 66.034 102.182C66.401 102.747 66.6052 103.401 66.6238 104.075C67.0825 101.131 66.2934 98.6344 64.5867 98.0584L64.5757 98.0694Z" fill="#8045FF"/>
<path d="M189.962 205.963C180.677 218.126 167.375 226.597 152.427 229.867C149.803 230.422 147.161 230.862 144.501 231.189L143.434 231.318L142.368 231.424H142.059C123.53 233.135 104.856 230.55 87.4878 223.872C81.4099 221.534 75.6051 218.54 70.176 214.944C64.3837 211.046 58.9923 206.583 54.0803 201.622C37.2036 183.164 26.7684 159.729 24.3413 134.837C24.4781 135.721 24.6774 136.595 24.9383 137.451C26.6902 142.84 29.0863 147.996 32.0744 152.81C33.8361 155.908 35.7997 158.888 37.952 161.728C38.8512 162.957 39.8161 164.135 40.8426 165.259L41.1519 165.6L41.536 166.027L42.6024 167.189L42.8374 167.435C48.1482 172.772 54.3268 177.169 61.1096 180.437C71.5172 185.49 82.8188 188.441 94.368 189.12C98.3823 189.394 102.411 189.365 106.421 189.035H107.018C111.348 188.702 115.616 187.801 119.712 186.357C123.162 185.289 126.393 183.61 129.248 181.398C132.854 178.733 135.947 175.436 138.378 171.669C141.976 166.228 143.972 159.886 144.139 153.365C144.331 137.162 126.965 118.752 102.613 118.987H99.7971L98.6558 119.083C98.0265 119.083 97.3971 119.2 96.7678 119.286H96.6291C95.0398 119.499 93.4293 119.787 91.7867 120.16C83.4667 122.069 81.6962 126.763 81.6962 130.411C81.7053 132.069 82.0349 133.71 82.6669 135.243H82.592C79.2302 134.937 75.9115 134.268 72.6936 133.248H72.5438L71.9149 133.024C68.4801 131.841 65.3195 129.977 62.6239 127.542L62.368 127.296C61.4363 126.393 60.5802 125.416 59.8081 124.374C59.1154 123.425 58.4809 122.434 57.909 121.408C70.9615 113.18 85.9567 108.547 101.376 107.979L102.955 107.915C105.088 107.844 107.261 107.844 109.472 107.915C112.9 108.021 116.338 108.295 119.787 108.736C125.001 109.331 130.15 110.402 135.168 111.936H135.222C133.966 109.694 132.471 107.595 130.763 105.675C128.629 103.211 123.083 96.7361 119.403 96.8001L120.47 96.7363C122.724 96.6296 124.996 96.6296 127.285 96.7363C138.369 97.048 149.26 99.71 159.237 104.546C169.215 109.382 178.052 116.282 185.163 124.79L185.44 125.088L185.781 125.525C189.872 130.933 193.282 136.823 195.936 143.062C198.551 150.472 200.277 158.167 201.077 165.984C202.667 180.245 198.685 194.569 189.962 205.963Z" fill="#522F9E"/>
<path opacity="0.7" d="M189.963 205.963C180.678 218.126 167.376 226.597 152.427 229.867C149.803 230.422 147.161 230.862 144.501 231.189L143.435 231.317L142.368 231.424H142.058L139.925 231.616C132.863 232.169 125.765 232.073 118.72 231.328C107.958 230.694 97.3926 228.166 87.509 223.861L86.6984 223.435C88.0211 223.371 89.3974 223.435 90.7414 223.435C108.532 223.247 125.627 216.492 138.741 204.469C145.642 198.587 151.239 191.329 155.173 183.159C159.107 174.989 161.293 166.087 161.589 157.024C161.589 155.179 161.504 153.301 161.333 151.456L161.248 150.603L160.896 151.392C158.809 156.169 155.724 160.443 151.848 163.928C147.971 167.413 143.393 170.027 138.421 171.595L138.187 171.669C140.186 168.785 141.7 165.592 142.667 162.219C143.535 159.318 144.019 156.317 144.107 153.291C143.027 143.889 138.54 135.209 131.493 128.892C124.447 122.575 115.33 119.059 105.866 119.008H99.8189L98.6776 119.104C98.0518 119.154 97.4225 119.221 96.7896 119.306H96.6509C95.0403 119.52 93.4507 119.808 91.744 120.192C77.5147 123.445 82.4642 134.869 82.6242 135.253C77.6267 135.338 72.6963 134.093 68.3384 131.645C63.9806 129.197 60.3518 125.635 57.8241 121.323C70.8955 113.084 85.9139 108.451 101.355 107.893L102.944 107.829C105.077 107.758 107.25 107.758 109.461 107.829C112.868 107.943 116.285 108.217 119.712 108.651C124.946 109.233 130.113 110.304 135.146 111.851C133.886 109.612 132.391 107.513 130.688 105.59C128.555 103.147 123.072 96.7359 119.392 96.7146H119.296L120.448 96.6508C122.709 96.5441 124.982 96.5441 127.264 96.6508C138.337 96.9722 149.214 99.6386 159.18 104.474C169.146 109.31 177.973 116.205 185.077 124.704L185.355 125.002L185.76 125.44C190.267 130.56 193.717 136.519 195.915 142.976C198.53 150.386 200.256 158.081 201.056 165.899C202.675 180.185 198.699 194.543 189.963 205.963Z" fill="#391A7D"/>
</g>
<defs>
<clipPath id="clip0_741_46">
<rect width="256" height="256" fill="white"/>
</clipPath>
</defs>
</svg>
