<svg width="256" height="256" viewBox="0 0 256 256" fill="none" xmlns="http://www.w3.org/2000/svg">
<g clip-path="url(#clip0_1645_15)">
<mask id="mask0_1645_15" style="mask-type:luminance" maskUnits="userSpaceOnUse" x="0" y="0" width="256" height="256">
<path d="M256 0H0V256H256V0Z" fill="white"/>
</mask>
<g mask="url(#mask0_1645_15)">
<path d="M128 256C198.692 256 256 198.692 256 128C256 57.3075 198.692 0 128 0C57.3075 0 0 57.3075 0 128C0 198.692 57.3075 256 128 256Z" fill="#1B272E"/>
<path fill-rule="evenodd" clip-rule="evenodd" d="M65.2704 72.6719L66.9427 67.7388L70.7603 72.6719H65.2704ZM82.9325 88.4031L78.368 82.5042H61.9379L59.9381 88.4031H82.9325ZM92.2944 104.134L91.8938 99.9852L90.5395 98.2348H56.6053L54.6056 104.134H92.2944ZM93.8125 119.865L93.2435 113.966H51.2729L49.2732 119.865H93.8125ZM95.3312 135.595L94.7616 129.697H45.9405L43.9408 135.595H95.3312ZM96.8493 151.327L96.2797 145.428H40.6081L38.6084 151.327H96.8493ZM98.3674 167.057L97.7984 161.158H35.2756L34 164.921L36.1743 167.057H98.3674ZM46.1832 176.889L52.1872 182.788H99.8861L99.3165 176.889H46.1832Z" fill="#DDB557"/>
<path fill-rule="evenodd" clip-rule="evenodd" d="M190.53 72.6725L188.858 67.7388L185.04 72.6725H190.53ZM172.868 88.4031L177.432 82.5042H193.862L195.862 88.4031H172.868ZM163.506 104.134L163.907 99.9852L165.261 98.2348H199.195L201.195 104.134H163.506ZM161.988 119.865L162.557 113.966H204.527L206.527 119.865H161.988ZM160.47 135.596L161.039 129.697H209.86L211.86 135.596H160.47ZM158.951 151.327L159.521 145.428H215.192L217.192 151.327H158.951ZM157.433 167.058L158.002 161.159H220.525L221.8 164.921L219.626 167.058H157.433ZM209.617 176.89L203.613 182.788H155.915L156.484 176.89H209.617Z" fill="#DDB557"/>
<path d="M77.0362 63.8854C78.7648 63.2915 80.7008 62.6822 82.8461 62.0845L106.582 101.014H99.6742L77.0362 63.8854Z" fill="#DDB557"/>
<path d="M110.84 101.015L95.5469 59.2632C97.4375 58.9396 99.4221 58.6393 101.501 58.3691L117.122 101.015H110.84Z" fill="#DDB557"/>
<path d="M119.863 101.014L113.869 57.2351C115.784 57.1286 117.757 57.049 119.791 57L125.818 101.014H119.863Z" fill="#DDB557"/>
<path d="M128.643 101.014L134.643 57.1919C136.659 57.2928 138.627 57.4222 140.544 57.5765L134.597 101.014H128.643Z" fill="#DDB557"/>
<path d="M143.485 101.014H137.203L152.615 58.939C154.67 59.2393 156.647 59.5642 158.542 59.9069L143.485 101.014Z" fill="#DDB557"/>
<path d="M154.395 101.015H147.487L170.894 62.6235C173.04 63.1842 175.005 63.748 176.784 64.2946L154.395 101.015Z" fill="#DDB557"/>
</g>
</g>
<defs>
<clipPath id="clip0_1645_15">
<rect width="256" height="256" fill="white"/>
</clipPath>
</defs>
</svg>
