<?xml version="1.0" encoding="utf-8"?>
<!-- Generator: Adobe Illustrator 28.0.0, SVG Export Plug-In . SVG Version: 6.00 Build 0)  -->
<svg version="1.1" id="Layer_1" xmlns="http://www.w3.org/2000/svg" xmlns:xlink="http://www.w3.org/1999/xlink" x="0px" y="0px"
	 viewBox="0 0 691 691" style="enable-background:new 0 0 691 691;" xml:space="preserve">
<style type="text/css">
	.st0{clip-path:url(#SVGID_00000091733054021311551090000002024072263548060047_);fill:#303030;}
	.st1{clip-path:url(#SVGID_00000091733054021311551090000002024072263548060047_);fill:#E73746;}
	.st2{clip-path:url(#SVGID_00000091733054021311551090000002024072263548060047_);fill:#FFFFFF;}
</style>
<g>
	<defs>
		<circle id="SVGID_1_" cx="345.5" cy="345.5" r="345.5"/>
	</defs>
	<clipPath id="SVGID_00000121985542363221886110000000619777241045709699_">
		<use xlink:href="#SVGID_1_"  style="overflow:visible;"/>
	</clipPath>
	<path style="clip-path:url(#SVGID_00000121985542363221886110000000619777241045709699_);fill:#303030;" d="M0,691h691V0H0V691z"/>
	<path style="clip-path:url(#SVGID_00000121985542363221886110000000619777241045709699_);fill:#303030;" d="M0,0h691v691H0V0z"/>
	<path style="clip-path:url(#SVGID_00000121985542363221886110000000619777241045709699_);fill:#E73746;" d="M401.8,404
		c-4.5-9.6-9.6-19.4-10.1-30.1c-0.8-15,7.4-28.8,14.4-42.1c2.1-4.1,4.2-8.2,6.1-12.4c-19.8-19.3-35.9-42.4-47.1-67.6
		c-10.2,18.4-17.7,38.4-21.9,59h-7.8c-10.6-51.8-41.6-99.1-84.7-129.5c-15.8-11.2-12.1,15.4-11.8,23.7c0.6,14.8,2.3,29.6,5,44.1
		c5.4,28.8,15.1,56.7,28.6,82.7c7,13.3,15.2,27.1,14.4,42.1c-0.6,10.6-5.6,20.4-10.1,30.1c-8.2,17.5-14.8,35.8-19.9,54.5
		c-1,3.8-2,7.7-1.2,11.5c0.9,4.8,4.3,8.6,7.7,12c15.9,15.5,36.5,26.1,58.3,30c4.6,0.8,10.5,0.8,12.9-3.2c2.7-4.6-1.3-10.3-5.8-13.2
		c-4.4-2.9-12.2-7.7-11.9-10.1c0.8-4.9,13.2,4.9,21.3,5.8c0,0,0,0,0,0c0.2,0,0.5,0,0.7,0.1c0,0,0,0,0,0c0,0,0.1,0,0.1,0
		c0.1,0,0.1,0,0.2,0c0.1,0,0.1,0,0.2,0c0,0,0.1,0,0.1,0c0,0,0,0,0,0c0.2,0,0.5,0,0.7-0.1c0,0,0,0,0,0c8.1-0.9,20.5-10.7,21.3-5.8
		c0.3,2.4-7.5,7.2-11.9,10.1c-4.4,2.9-8.5,8.6-5.8,13.2c2.4,4.1,8.2,4,12.9,3.2c21.9-3.9,42.5-14.5,58.3-30c3.5-3.4,6.8-7.2,7.7-12
		c0.7-3.8-0.2-7.7-1.2-11.5C416.7,439.8,410,421.5,401.8,404z"/>
	<path style="clip-path:url(#SVGID_00000121985542363221886110000000619777241045709699_);fill:#FFFFFF;" d="M447.2,268.7
		c-1.2-6.6-2.7-13.1-4.4-19.6h-73.6c15.4,34.8,40.1,65.4,71.2,87.4c15.8,11.2,12.1-15.4,11.8-23.7C451.6,298,450,283.3,447.2,268.7z
		"/>
</g>
</svg>
