<svg width="256" height="256" viewBox="0 0 256 256" fill="none" xmlns="http://www.w3.org/2000/svg">
<circle cx="128.5" cy="128.5" r="126.5" fill="#002EFF"/>
<g clip-path="url(#clip0_741_46)">
<mask id="mask0_741_46" style="mask-type:luminance" maskUnits="userSpaceOnUse" x="32" y="26" width="193" height="204">
<path d="M32 26H225V230H32V26Z" fill="white"/>
</mask>
<g mask="url(#mask0_741_46)">
<path fill-rule="evenodd" clip-rule="evenodd" d="M54.7845 89.9679L95.6831 26L34.7136 87.1478C29.6401 92.2362 32.0278 100.929 38.9827 102.695L71.2981 110.9C68.4123 115.448 65.1452 121.185 62.6062 127.265C60.2786 132.835 58.3394 139.212 58.1475 145.528C57.951 151.995 59.6037 158.926 65.0574 164.394C73.2512 172.612 79.2007 175.48 83.9529 177.769C84.3065 177.939 84.6532 178.106 84.993 178.272C87.2038 179.349 88.838 180.232 90.5704 181.622C92.3201 183.024 94.4442 185.168 97.1717 188.93C97.657 189.6 98.1725 190.315 98.7145 191.071C104.664 199.35 114.001 212.345 126.049 220.971C132.773 225.783 140.752 229.564 149.876 230.305C159.118 231.055 168.769 228.62 178.592 222.275C188.001 216.196 194.201 209.426 197.118 201.541C200.056 193.6 199.185 185.817 197.049 178.758C195.092 172.292 191.826 165.699 188.778 159.546L188.773 159.534L188.713 159.414L188.204 158.386C184.87 151.644 181.725 145.128 179.632 138.305C175.547 124.988 178.318 119.218 180.06 116.932C180.897 115.833 181.959 114.928 183.176 114.278C183.629 114.035 183.992 113.892 184.192 113.82L184.299 113.783L184.491 113.737L184.82 113.63L186.267 113.154L190.079 111.896C193.235 110.852 197.452 109.455 201.69 108.038C205.921 106.624 210.196 105.182 213.459 104.054C215.083 103.493 216.498 102.996 217.544 102.612C218.056 102.425 218.546 102.239 218.95 102.076C219.142 101.998 219.408 101.887 219.683 101.757C219.899 101.656 220.111 101.546 220.318 101.429L220.331 101.422C220.984 101.053 221.583 100.596 222.114 100.066C225.4 96.7706 224.348 92.7323 224.241 92.3174L224.235 92.2977C224.064 91.6272 223.81 90.9808 223.479 90.3736C223.263 89.9798 223.02 89.6017 222.751 89.2423C222.466 88.8598 222.149 88.4854 221.909 88.2072C221.23 87.4351 220.538 86.6746 219.833 85.9262C218.834 84.8575 199.449 65.161 183.163 48.615C171.885 37.1574 162.094 27.2089 160.922 26C161.06 26.1426 171.491 42.6017 181.814 58.8927C191.931 74.8568 201.946 90.6599 202.077 90.7955C200.303 91.3947 198.439 92.0195 196.574 92.6431C191.459 94.3521 186.341 96.0498 181.219 97.7361L179.998 98.1383L179.898 98.1662L179.824 98.187C179.539 98.2705 179.179 98.3841 178.759 98.5347C177.921 98.8338 176.821 99.2882 175.577 99.9512C172.31 101.696 169.455 104.126 167.208 107.076C161.438 114.643 159.009 126.259 164.168 143.077C166.698 151.323 170.416 158.934 173.708 165.595L174.032 166.248C177.309 172.873 180.015 178.343 181.567 183.472C183.114 188.583 183.218 192.464 181.949 195.896C180.659 199.385 177.469 203.698 169.831 208.632C162.608 213.297 156.448 214.557 151.179 214.13C145.794 213.693 140.564 211.426 135.449 207.763C125.695 200.779 117.869 189.933 111.701 181.383C111.209 180.702 110.728 180.035 110.256 179.386C106.891 174.744 103.802 171.454 100.671 168.945C97.5241 166.423 94.6095 164.916 92.06 163.674C91.6925 163.495 91.3273 163.32 90.9633 163.145C86.7762 161.131 82.7533 159.195 76.4975 152.92C75.0564 151.474 74.2162 149.396 74.3191 146.023C74.4265 142.499 75.5788 138.203 77.5284 133.535C81.4162 124.229 87.5829 115.491 90.0468 112.19C94.0686 106.8 91.206 99.2151 84.8948 97.6121L54.7845 89.9679ZM122.99 156.308C122.99 156.308 110.52 156.308 102.208 148.638C93.8964 140.966 102.208 125.624 102.208 125.624C102.208 125.624 104.633 127.157 113.811 137.897C122.99 148.638 122.99 156.308 122.99 156.308Z" fill="url(#paint0_linear_741_46)"/>
</g>
</g>
<defs>
<linearGradient id="paint0_linear_741_46" x1="128.562" y1="118.09" x2="128.24" y2="230.436" gradientUnits="userSpaceOnUse">
<stop stop-color="white"/>
<stop offset="1" stop-color="white"/>
</linearGradient>
<clipPath id="clip0_741_46">
<rect width="193" height="204" fill="white" transform="translate(32 26)"/>
</clipPath>
</defs>
</svg>
