<svg width="256" height="256" viewBox="0 0 256 256" fill="none" xmlns="http://www.w3.org/2000/svg">
<g clip-path="url(#clip0_1332_1817)">
<path d="M128 256C198.692 256 256 198.692 256 128C256 57.3075 198.692 0 128 0C57.3075 0 0 57.3075 0 128C0 198.692 57.3075 256 128 256Z" fill="#3FAD6C"/>
<path fill-rule="evenodd" clip-rule="evenodd" d="M128 245.989C193.163 245.989 245.989 192.844 245.989 127.285C245.989 61.7267 193.163 8.58105 128 8.58105C62.8366 8.58105 10.0112 61.7267 10.0112 127.285C10.0112 192.844 62.8366 245.989 128 245.989ZM128 235.978C187.635 235.978 235.978 187.315 235.978 127.285C235.978 67.2557 187.635 18.5922 128 18.5922C68.3656 18.5922 20.0224 67.2557 20.0224 127.285C20.0224 187.315 68.3656 235.978 128 235.978Z" fill="white"/>
<path d="M117.083 101.065V101.16L108.121 53.8695L100.684 51.4858L96.0118 57.7786L117.083 101.065Z" fill="white"/>
<path d="M121.946 81.3288L125.759 99.6349L129.859 81.0427L125.855 78.373L121.946 81.3288Z" fill="white"/>
<path d="M150.263 84.5703L145.401 85.0471L139.679 103.162L152.266 88.9562L150.263 84.5703Z" fill="white"/>
<path d="M191.833 88.3844V80.6615L184.3 78.2778L149.023 111.362L191.833 88.3844Z" fill="white"/>
<path d="M105.641 107.93L95.1536 92.1982L90.3862 92.961L89.6235 97.7281L105.641 107.93Z" fill="white"/>
<path d="M173.145 123.948L154.362 127.666L173.145 131.766L176.005 127.857L173.145 123.948Z" fill="white"/>
<path d="M97.2514 127.762L49.0071 121.66L44.3352 127.952L49.0071 134.245L97.2514 127.762Z" fill="white"/>
<path d="M79.4219 138.25L77.9917 142.731L81.9008 145.591L98.5861 136.248L79.4219 138.25Z" fill="white"/>
<path d="M84.9519 151.502L84.7612 156.27L89.3378 157.891L102.686 143.875L84.9519 151.502Z" fill="white"/>
<path d="M108.979 150.358L94.7723 162.849L96.0119 167.426L100.874 167.616L108.979 150.358Z" fill="white"/>
<path d="M125.855 155.888L122.041 174.385L125.95 177.15L129.86 174.29L125.855 155.888Z" fill="white"/>
<path d="M191.928 167.139L149.023 144.351L184.492 177.245L191.928 174.862V167.139Z" fill="white"/>
<path d="M144.637 170.666L135.008 154.554L137.201 173.05L141.777 174.48L144.637 170.666Z" fill="white"/>
<path d="M117.179 154.554L96.2982 197.935L100.97 204.228L108.407 201.844L117.179 154.554Z" fill="white"/>
</g>
<defs>
<clipPath id="clip0_1332_1817">
<rect width="256" height="256" fill="white"/>
</clipPath>
</defs>
</svg>
