<svg width="256" height="256" viewBox="0 0 256 256" fill="none" xmlns="http://www.w3.org/2000/svg">
<g clip-path="url(#clip0_741_46)">
<path d="M256 128C256 198.692 198.692 256 128 256C57.3075 256 0 198.692 0 128C0 57.3075 57.3075 0 128 0C198.692 0 256 57.3075 256 128Z" fill="#F07547"/>
<mask id="mask0_741_46" style="mask-type:luminance" maskUnits="userSpaceOnUse" x="0" y="0" width="256" height="256">
<path d="M256 0H0V256H256V0Z" fill="white"/>
</mask>
<g mask="url(#mask0_741_46)">
<path d="M128 248.747C194.686 248.747 248.747 194.686 248.747 128C248.747 61.3137 194.686 7.25342 128 7.25342C61.3136 7.25342 7.2533 61.3137 7.2533 128C7.2533 194.686 61.3136 248.747 128 248.747Z" fill="url(#paint0_radial_741_46)"/>
<mask id="mask1_741_46" style="mask-type:alpha" maskUnits="userSpaceOnUse" x="7" y="7" width="242" height="242">
<path d="M128 248.747C194.686 248.747 248.747 194.686 248.747 128C248.747 61.3137 194.686 7.25342 128 7.25342C61.3136 7.25342 7.2533 61.3137 7.2533 128C7.2533 194.686 61.3136 248.747 128 248.747Z" fill="url(#paint1_radial_741_46)"/>
</mask>
<g mask="url(#mask1_741_46)">
<path opacity="0.2" d="M3.22839 73.6643C3.22839 70.997 5.3908 68.8345 8.05826 68.8345H74.0664C76.7337 68.8345 78.8963 70.997 78.8963 73.6643V185.959C78.8963 188.626 76.7337 190.789 74.0664 190.789H8.05826C5.3908 190.789 3.22839 188.626 3.22839 185.959V73.6643Z" fill="url(#paint2_linear_741_46)"/>
<path opacity="0.2" d="M152.954 171.067C152.954 168.399 155.117 166.237 157.784 166.237H243.917C246.584 166.237 248.747 168.399 248.747 171.067V212.926C248.747 215.593 246.584 217.755 243.917 217.755H157.784C155.117 217.755 152.954 215.593 152.954 212.926V171.067Z" fill="#E74310"/>
<path opacity="0.2" d="M208.9 183.946C211.567 183.946 213.73 186.109 213.73 188.776V270.079C213.73 272.746 211.567 274.909 208.9 274.909H177.104C174.436 274.909 172.274 272.746 172.274 270.079V188.776C172.274 186.109 174.436 183.946 177.104 183.946H208.9Z" fill="#DF3600"/>
<path opacity="0.1" d="M105.058 85.7393C107.725 85.7393 109.888 87.9018 109.888 90.5691V155.37C109.888 158.037 107.725 160.2 105.058 160.2H69.2366C66.5693 160.2 64.4067 158.037 64.4067 155.37V90.5691C64.4067 87.9018 66.5693 85.7393 69.2366 85.7393H105.058Z" fill="url(#paint3_linear_741_46)"/>
<path opacity="0.1" d="M30.1952 105.058C30.1952 102.391 32.3576 100.229 35.0251 100.229H93.7884C96.4557 100.229 98.6183 102.391 98.6183 105.058V166.639C98.6183 169.306 96.4557 171.469 93.7884 171.469H35.0251C32.3576 171.469 30.1952 169.306 30.1952 166.639V105.058Z" fill="url(#paint4_linear_741_46)"/>
<path opacity="0.2" d="M248.747 40.2578C251.414 40.2578 253.576 42.4202 253.576 45.0877V126.39C253.576 129.058 251.414 131.22 248.747 131.22H173.884C171.216 131.22 169.054 129.058 169.054 126.39V45.0877C169.054 42.4202 171.216 40.2578 173.884 40.2578H248.747Z" fill="#FF9776"/>
<path opacity="0.2" d="M203.265 -13.6758C205.933 -13.6758 208.095 -11.5134 208.095 -8.84591V80.5066C208.095 83.1739 205.933 85.3365 203.265 85.3365H161.407C158.739 85.3365 156.577 83.1739 156.577 80.5066V-8.84591C156.577 -11.5134 158.739 -13.6758 161.407 -13.6758H203.265Z" fill="#FFCA8C"/>
<path opacity="0.2" d="M225 2.42383C227.667 2.42383 229.83 4.58624 229.83 7.2537V106.668C229.83 109.336 227.667 111.498 225 111.498H134.037C131.37 111.498 129.207 109.336 129.207 106.668V7.2537C129.207 4.58624 131.37 2.42383 134.037 2.42383H225Z" fill="url(#paint5_linear_741_46)"/>
<path opacity="0.1" d="M92.581 -25.7505C95.2483 -25.7505 97.4108 -23.5881 97.4108 -20.9206V45.8925C97.4108 48.5598 95.2483 50.7224 92.581 50.7224H60.7843C58.117 50.7224 55.9545 48.5598 55.9545 45.8925V-20.9206C55.9545 -23.5881 58.117 -25.7505 60.7843 -25.7505H92.581Z" fill="#DF3600"/>
<path opacity="0.1" d="M96.2034 181.531C98.8707 181.531 101.033 183.694 101.033 186.361V243.917C101.033 246.584 98.8707 248.747 96.2034 248.747H15.3031C12.6357 248.747 10.4733 246.584 10.4733 243.917L10.4733 186.361C10.4733 183.694 12.6357 181.531 15.3031 181.531H96.2034Z" fill="#DF3600"/>
<path opacity="0.1" d="M167.444 149.332C170.111 149.332 172.274 151.495 172.274 154.162V243.917C172.274 246.584 170.111 248.747 167.444 248.747H74.8715C72.2042 248.747 70.0416 246.584 70.0416 243.917V154.162C70.0416 151.495 72.2042 149.332 74.8715 149.332H167.444Z" fill="#FFD494"/>
<path opacity="0.2" d="M136.855 7.25391C139.522 7.25391 141.685 9.41631 141.685 12.0838V35.4281C141.685 38.0956 139.522 40.258 136.855 40.258H40.2574C37.5899 40.258 35.4275 38.0956 35.4275 35.4281V12.0838C35.4275 9.41631 37.5899 7.25391 40.2574 7.25391L136.855 7.25391Z" fill="#FFD494"/>
<path opacity="0.1" d="M60.683 246.396L241.565 65.5137L235.361 59.3101L54.4794 240.192L60.683 246.396Z" fill="#DF3600"/>
<path opacity="0.1" d="M47.1143 233.229L227.996 52.3472L219.919 44.2703L39.0374 225.152L47.1143 233.229Z" fill="#DF3600"/>
<path opacity="0.1" d="M39.4794 224.789L220.361 43.9072L212.285 35.8303L31.4025 216.712L39.4794 224.789Z" fill="#F45C2C"/>
<path opacity="0.2" d="M32.2347 215.935L213.117 35.0527L206.469 28.4053L25.5872 209.287L32.2347 215.935Z" fill="#F45C2C"/>
<path opacity="0.1" d="M25.573 209.273L206.455 28.3906L199.808 21.7432L18.9256 202.625L25.573 209.273Z" fill="#FFBC6E"/>
<path opacity="0.1" d="M21.1457 200.418L202.028 19.5356L195.38 12.8882L14.4982 193.77L21.1457 200.418Z" fill="#DF3600"/>
<path opacity="0.09" d="M-0.186381 147.289L142.441 4.66211L135.793 -1.98535L-6.83384 140.642L-0.186381 147.289Z" fill="#FFD5A4"/>
<path opacity="0.08" d="M-7.8336 139.221L134.794 -3.40576L128.146 -10.0532L-14.4811 132.574L-7.8336 139.221Z" fill="#FFD5A4"/>
<path opacity="0.05" d="M-14.676 129.964L127.951 -12.6631L121.304 -19.3106L-21.3235 123.317L-14.676 129.964Z" fill="#FFD5A4"/>
<path opacity="0.2" d="M11.0831 166.674L176.736 1.02148L170.089 -5.62598L4.43565 160.027L11.0831 166.674Z" fill="#FFD5A4"/>
<path opacity="0.2" d="M15.5105 177.139L181.163 11.4863L174.516 4.83886L8.86302 170.492L15.5105 177.139Z" fill="#FFD5A4"/>
<path opacity="0.1" d="M8.2659 154.534L155.288 7.51172L148.641 0.864255L1.61844 147.887L8.2659 154.534Z" fill="#FFD5A4"/>
<path opacity="0.1" d="M60.4161 246.531L241.298 65.6489L228.036 52.3869L47.1541 233.269L60.4161 246.531Z" fill="#DF3600"/>
<path opacity="0.1" d="M60.4161 246.531L241.298 65.6489L227.969 52.3193L47.0865 233.201L60.4161 246.531Z" fill="#DF3600"/>
</g>
<path d="M127.821 154.054L81.8816 126.878L127.821 50.6689L173.72 126.878L127.821 154.054Z" fill="white"/>
<path d="M127.821 200.323L81.8816 135.62L127.821 162.755L173.761 135.62L127.821 200.323Z" fill="white"/>
</g>
</g>
<defs>
<radialGradient id="paint0_radial_741_46" cx="0" cy="0" r="1" gradientUnits="userSpaceOnUse" gradientTransform="translate(86.1411 65.0106) rotate(54.1675) scale(200.07)">
<stop stop-color="#FFD794"/>
<stop offset="1" stop-color="#ED5A37"/>
</radialGradient>
<radialGradient id="paint1_radial_741_46" cx="0" cy="0" r="1" gradientUnits="userSpaceOnUse" gradientTransform="translate(86.1411 65.0106) rotate(54.1675) scale(200.07)">
<stop stop-color="#FFD794"/>
<stop offset="1" stop-color="#ED5A37"/>
</radialGradient>
<linearGradient id="paint2_linear_741_46" x1="41.0623" y1="68.8345" x2="41.0623" y2="190.789" gradientUnits="userSpaceOnUse">
<stop stop-color="#FFE090"/>
<stop offset="1" stop-color="#FFE090" stop-opacity="0"/>
</linearGradient>
<linearGradient id="paint3_linear_741_46" x1="86.9461" y1="85.7393" x2="86.9461" y2="154.565" gradientUnits="userSpaceOnUse">
<stop stop-color="#DF3600"/>
<stop offset="1" stop-color="#DF3600" stop-opacity="0"/>
</linearGradient>
<linearGradient id="paint4_linear_741_46" x1="30.1952" y1="136.164" x2="93.4403" y2="136.164" gradientUnits="userSpaceOnUse">
<stop stop-color="#DF3600"/>
<stop offset="1" stop-color="#DF3600" stop-opacity="0"/>
</linearGradient>
<linearGradient id="paint5_linear_741_46" x1="179.519" y1="2.42383" x2="179.519" y2="111.498" gradientUnits="userSpaceOnUse">
<stop stop-color="#DF3600"/>
<stop offset="1" stop-color="#DF3600" stop-opacity="0"/>
</linearGradient>
<clipPath id="clip0_741_46">
<rect width="256" height="256" fill="white"/>
</clipPath>
</defs>
</svg>
