<svg width="256" height="256" viewBox="0 0 256 256" fill="none" xmlns="http://www.w3.org/2000/svg">
<g clip-path="url(#clip0_1413_2)">
<circle cx="128" cy="128" r="95" fill="#EB5F31"/>
<mask id="mask0_1413_2" style="mask-type:luminance" maskUnits="userSpaceOnUse" x="0" y="0" width="256" height="256">
<path d="M256 0H0V256H256V0Z" fill="white"/>
</mask>
<g mask="url(#mask0_1413_2)">
<mask id="mask1_1413_2" style="mask-type:luminance" maskUnits="userSpaceOnUse" x="0" y="0" width="256" height="256">
<path d="M256 0H0V256H256V0Z" fill="white"/>
</mask>
<g mask="url(#mask1_1413_2)">
<path d="M128 256C198.692 256 256 198.692 256 128C256 57.3077 198.692 0 128 0C57.3077 0 0 57.3077 0 128C0 198.692 57.3077 256 128 256Z" fill="url(#paint0_radial_1413_2)"/>
<mask id="mask2_1413_2" style="mask-type:alpha" maskUnits="userSpaceOnUse" x="0" y="0" width="256" height="256">
<path d="M128 256C198.692 256 256 198.692 256 128C256 57.3077 198.692 0 128 0C57.3077 0 0 57.3077 0 128C0 198.692 57.3077 256 128 256Z" fill="url(#paint1_radial_1413_2)"/>
</mask>
<g mask="url(#mask2_1413_2)">
<path opacity="0.2" d="M-4.2666 70.3998C-4.2666 67.5723 -1.9743 65.2798 0.853397 65.2798H70.8267C73.6543 65.2798 75.9467 67.5723 75.9467 70.3998V189.44C75.9467 192.267 73.6543 194.56 70.8267 194.56H0.853397C-1.9743 194.56 -4.2666 192.267 -4.2666 189.44V70.3998Z" fill="url(#paint2_linear_1413_2)"/>
<path opacity="0.2" d="M154.453 173.653C154.453 170.826 156.746 168.533 159.573 168.533H250.88C253.708 168.533 256 170.826 256 173.653V218.027C256 220.854 253.708 223.147 250.88 223.147H159.573C156.746 223.147 154.453 220.854 154.453 218.027V173.653Z" fill="#E74310"/>
<path opacity="0.2" d="M213.76 187.307C216.588 187.307 218.88 189.599 218.88 192.427V278.613C218.88 281.441 216.588 283.733 213.76 283.733H180.053C177.226 283.733 174.933 281.441 174.933 278.613V192.427C174.933 189.599 177.226 187.307 180.053 187.307H213.76Z" fill="#DF3600"/>
<path opacity="0.1" d="M103.68 83.1997C106.508 83.1997 108.8 85.4922 108.8 88.3197V157.013C108.8 159.841 106.508 162.133 103.68 162.133H65.7067C62.8792 162.133 60.5867 159.841 60.5867 157.013V88.3197C60.5867 85.4922 62.8792 83.1997 65.7067 83.1997H103.68Z" fill="url(#paint3_linear_1413_2)"/>
<path opacity="0.1" d="M24.3201 103.68C24.3201 100.853 26.6124 98.5601 29.4401 98.5601H91.7334C94.5609 98.5601 96.8534 100.853 96.8534 103.68V168.96C96.8534 171.788 94.5609 174.08 91.7334 174.08H29.4401C26.6124 174.08 24.3201 171.788 24.3201 168.96V103.68Z" fill="url(#paint4_linear_1413_2)"/>
<path opacity="0.2" d="M256 34.9863C258.828 34.9863 261.12 37.2786 261.12 40.1063V126.293C261.12 129.121 258.828 131.413 256 131.413H176.64C173.812 131.413 171.52 129.121 171.52 126.293V40.1063C171.52 37.2786 173.812 34.9863 176.64 34.9863H256Z" fill="#FF9776"/>
<path opacity="0.2" d="M207.787 -22.187C210.614 -22.187 212.907 -19.8947 212.907 -17.067V77.653C212.907 80.4805 210.614 82.773 207.787 82.773H163.413C160.586 82.773 158.293 80.4805 158.293 77.653V-17.067C158.293 -19.8947 160.586 -22.187 163.413 -22.187H207.787Z" fill="#FFCA8C"/>
<path opacity="0.2" d="M230.827 -5.12012C233.654 -5.12012 235.947 -2.82781 235.947 -0.000110149V105.387C235.947 108.214 233.654 110.507 230.827 110.507H134.4C131.573 110.507 129.28 108.214 129.28 105.387V-0.00011158C129.28 -2.82781 131.573 -5.12012 134.4 -5.12012H230.827Z" fill="url(#paint5_linear_1413_2)"/>
<path opacity="0.1" d="M90.4534 -34.9868C93.2809 -34.9868 95.5734 -32.6945 95.5734 -29.8668V40.9598C95.5734 43.7874 93.2809 46.0798 90.4534 46.0798H56.7467C53.9192 46.0798 51.6267 43.7874 51.6267 40.9598V-29.8668C51.6267 -32.6945 53.9192 -34.9868 56.7467 -34.9868H90.4534Z" fill="#DF3600"/>
<path opacity="0.1" d="M94.2933 184.747C97.1209 184.747 99.4133 187.039 99.4133 189.867V250.88C99.4133 253.707 97.1209 256 94.2933 256H8.53333C5.70564 256 3.41333 253.707 3.41333 250.88V189.867C3.41333 187.039 5.70564 184.747 8.53333 184.747H94.2933Z" fill="#DF3600"/>
<path opacity="0.1" d="M169.813 150.613C172.641 150.613 174.933 152.906 174.933 155.733V250.88C174.933 253.707 172.641 256 169.813 256H71.6801C68.8525 256 66.5601 253.707 66.5601 250.88V155.733C66.5601 152.906 68.8525 150.613 71.6801 150.613H169.813Z" fill="#FFD494"/>
<path opacity="0.2" d="M137.387 4.47603e-06C140.214 4.59964e-06 142.507 2.29231 142.507 5.12V29.8667C142.507 32.6944 140.214 34.9867 137.387 34.9867H34.9867C32.159 34.9867 29.8667 32.6944 29.8667 29.8667V5.12C29.8667 2.2923 32.159 -1.23603e-07 34.9867 0L137.387 4.47603e-06Z" fill="#FFD494"/>
<path opacity="0.1" d="M56.6393 253.507L248.387 61.7594L241.811 55.1831L50.0631 246.931L56.6393 253.507Z" fill="#DF3600"/>
<path opacity="0.1" d="M42.2555 239.55L234.003 47.8018L225.441 39.2397L33.6935 230.987L42.2555 239.55Z" fill="#DF3600"/>
<path opacity="0.1" d="M34.1622 230.603L225.91 38.8556L217.348 30.2935L25.6001 222.041L34.1622 230.603Z" fill="#F45C2C"/>
<path opacity="0.2" d="M26.4821 221.216L218.23 29.4687L211.183 22.4219L19.4353 214.17L26.4821 221.216Z" fill="#F45C2C"/>
<path opacity="0.1" d="M19.4202 214.154L211.168 22.4066L204.121 15.3599L12.3735 207.108L19.4202 214.154Z" fill="#FFBC6E"/>
<path opacity="0.1" d="M14.727 204.768L206.475 13.0199L199.428 5.97314L7.68018 197.721L14.727 204.768Z" fill="#DF3600"/>
<path opacity="0.09" d="M-7.88645 148.448L143.308 -2.74717L136.262 -9.79395L-14.9332 141.401L-7.88645 148.448Z" fill="#FFD5A4"/>
<path opacity="0.08" d="M-15.9931 139.895L135.202 -11.3004L128.155 -18.3472L-23.0399 132.848L-15.9931 139.895Z" fill="#FFD5A4"/>
<path opacity="0.05" d="M-23.2464 130.082L127.948 -21.1134L120.902 -28.1602L-30.2932 123.035L-23.2464 130.082Z" fill="#FFD5A4"/>
<path opacity="0.2" d="M4.05997 168.997L179.664 -6.60704L172.617 -13.6538L-2.98682 161.95L4.05997 168.997Z" fill="#FFD5A4"/>
<path opacity="0.2" d="M8.75333 180.09L184.357 4.48623L177.31 -2.56055L1.70654 173.043L8.75333 180.09Z" fill="#FFD5A4"/>
<path opacity="0.1" d="M1.07351 156.127L156.928 0.273341L149.881 -6.77344L-5.97327 149.081L1.07351 156.127Z" fill="#FFD5A4"/>
<path opacity="0.1" d="M56.3564 253.651L248.104 61.9028L234.046 47.8442L42.2977 239.592L56.3564 253.651Z" fill="#DF3600"/>
<path opacity="0.1" d="M56.3565 253.651L248.104 61.9028L233.974 47.7725L42.2262 239.52L56.3565 253.651Z" fill="#DF3600"/>
</g>
<path d="M127.811 155.619L79.1112 126.81L127.811 46.0234L176.466 126.81L127.811 155.619Z" fill="white"/>
<path d="M127.811 204.668L79.1112 136.078L127.811 164.843L176.51 136.078L127.811 204.668Z" fill="white"/>
</g>
</g>
</g>
<defs>
<radialGradient id="paint0_radial_1413_2" cx="0" cy="0" r="1" gradientUnits="userSpaceOnUse" gradientTransform="translate(83.6267 61.2267) rotate(54.1675) scale(212.088)">
<stop stop-color="#FFD794"/>
<stop offset="1" stop-color="#ED5A37"/>
</radialGradient>
<radialGradient id="paint1_radial_1413_2" cx="0" cy="0" r="1" gradientUnits="userSpaceOnUse" gradientTransform="translate(83.6267 61.2267) rotate(54.1675) scale(212.088)">
<stop stop-color="#FFD794"/>
<stop offset="1" stop-color="#ED5A37"/>
</radialGradient>
<linearGradient id="paint2_linear_1413_2" x1="35.8401" y1="65.2798" x2="35.8401" y2="194.56" gradientUnits="userSpaceOnUse">
<stop stop-color="#FFE090"/>
<stop offset="1" stop-color="#FFE090" stop-opacity="0"/>
</linearGradient>
<linearGradient id="paint3_linear_1413_2" x1="84.48" y1="83.1997" x2="84.48" y2="156.16" gradientUnits="userSpaceOnUse">
<stop stop-color="#DF3600"/>
<stop offset="1" stop-color="#DF3600" stop-opacity="0"/>
</linearGradient>
<linearGradient id="paint4_linear_1413_2" x1="24.3201" y1="136.654" x2="91.3643" y2="136.654" gradientUnits="userSpaceOnUse">
<stop stop-color="#DF3600"/>
<stop offset="1" stop-color="#DF3600" stop-opacity="0"/>
</linearGradient>
<linearGradient id="paint5_linear_1413_2" x1="182.613" y1="-5.12012" x2="182.613" y2="110.507" gradientUnits="userSpaceOnUse">
<stop stop-color="#DF3600"/>
<stop offset="1" stop-color="#DF3600" stop-opacity="0"/>
</linearGradient>
<clipPath id="clip0_1413_2">
<rect width="256" height="256" fill="white"/>
</clipPath>
</defs>
</svg>
