<svg width="256" height="256" viewBox="0 0 256 256" fill="none" xmlns="http://www.w3.org/2000/svg">
<circle cx="128.5" cy="128.5" r="126.5" fill="#0C0C0C"/>
<path d="M197.91 86.3697C191.547 77.0672 185.185 70.0903 178.243 65.439C164.94 56.7179 149.322 55.5551 129.077 62.532C115.774 66.6018 98.9994 78.23 83.9604 93.928C70.6566 107.3 60.245 122.999 53.8823 138.697C46.9413 154.976 46.3628 170.092 50.9902 181.139C56.196 192.768 68.3429 198 79.9114 198C83.382 198 87.4309 197.418 90.9015 196.256C106.519 192.186 122.137 179.976 132.548 170.674C133.127 170.092 133.705 168.93 133.705 167.767C133.705 166.604 133.127 166.023 132.548 164.86C131.391 163.116 129.077 162.534 126.764 164.278C112.303 175.325 99.5778 181.72 88.0094 182.302C84.5388 171.255 86.8525 157.301 94.372 142.185C98.421 134.627 103.627 127.068 109.99 120.091C116.352 113.115 123.293 107.3 131.391 102.649C133.705 101.486 133.705 98.5793 132.548 96.8351C131.969 95.6723 131.391 95.0908 130.234 95.0908C129.077 94.5094 127.921 95.0908 126.764 95.6723C118.088 100.905 109.99 106.719 103.048 114.277C95.5289 121.835 89.7446 129.975 84.5388 138.697C78.1761 150.325 74.1272 161.953 73.5487 172.418C72.9703 175.325 71.2351 176.488 70.0782 176.488C68.3429 177.069 66.0292 176.488 64.8724 174.744C59.6666 167.767 59.6666 156.139 64.8724 141.603C70.0782 128.231 79.333 113.696 91.4799 102.068C103.627 89.8582 117.509 80.5556 130.813 75.323C137.754 72.9973 144.116 71.2531 149.322 71.2531C157.42 71.2531 163.783 74.1601 167.253 79.3928C177.665 96.2537 171.881 115.44 159.734 138.115C159.155 139.278 159.155 140.441 159.155 141.603C159.734 142.767 160.313 143.347 160.891 143.929C162.626 145.092 164.94 145.092 166.675 142.767C173.038 134.045 178.243 124.743 181.714 116.021C182.292 115.44 182.292 114.277 183.449 114.277C184.028 113.696 185.185 113.696 185.763 113.696C188.077 113.696 189.234 114.859 190.39 116.603C191.547 118.929 192.126 122.999 192.126 127.649C192.126 131.719 191.547 136.371 190.39 141.603C186.341 159.627 174.194 179.395 160.313 191.604C159.155 192.186 159.155 193.349 159.155 194.512C159.155 195.674 159.734 196.256 160.313 196.837C160.891 197.418 162.048 198 162.626 198C163.783 198 164.94 198 165.518 197.418C184.028 182.883 198.488 161.953 204.273 142.185C209.478 121.835 207.164 100.324 197.91 86.3697Z" fill="url(#paint0_linear_741_46)"/>
<defs>
<linearGradient id="paint0_linear_741_46" x1="207" y1="128" x2="48" y2="128" gradientUnits="userSpaceOnUse">
<stop stop-color="#FF5D00"/>
<stop offset="1" stop-color="#EB0000"/>
</linearGradient>
</defs>
</svg>
