<svg width="256" height="256" viewBox="0 0 256 256" fill="none" xmlns="http://www.w3.org/2000/svg">
<g clip-path="url(#clip0_151_50)">
<circle cx="128" cy="128" r="128" fill="white"/>
<g clip-path="url(#clip1_151_50)">
<path d="M184.7 165.6H175.5L174.9 164.4C174.9 164.4 169.9 153.5 157.5 150.7C169.4 147.2 177.5 139.6 181.5 130.8H190.7C192.513 126.845 193.467 122.551 193.5 118.2C193.534 113.965 193.098 109.739 192.2 105.6C188.3 88.0999 175.4 75.8 150 73.4H149.8L147.1 73.2H68.2V130.9H59V165.7H68.2V194.5H103V169.7V165.6H129.3C140.7 165.6 144.3 172.3 151.6 188.9C152.4 190.567 153.2 192.367 154 194.3H197.9C193.3 183 186.7 169.6 184.7 165.6ZM103 105.6H138.2C145.4 105.6 152.1 111 152.1 118.2C152.1 125.4 145.4 130.8 138.2 130.8H103V105.6Z" fill="#EA328A"/>
<path d="M153 66.7V59H161.4V25H131.6V58.9H123.2V65.9H140.4C144.611 65.9546 148.816 66.2216 153 66.7Z" fill="#EA328A"/>
<path d="M110.9 66V59H119.3V44.7H89.5001V58.9H81.1001V66H103H110.9Z" fill="#EA328A"/>
<path d="M110 123.8H121.5V112.6H110V123.8Z" fill="#EA328A"/>
<path d="M147.6 197.2L146.5 194.8C137.7 174.9 136 172.7 129.2 172.7H110V201.5H94.3999V208.2H124.2V182.9H135.8V230.7H165.6V201.4H149.4L147.6 197.2Z" fill="#EA328A"/>
</g>
</g>
<defs>
<clipPath id="clip0_151_50">
<rect width="256" height="256" fill="white"/>
</clipPath>
<clipPath id="clip1_151_50">
<rect width="138.9" height="205.7" fill="white" transform="translate(59 25)"/>
</clipPath>
</defs>
</svg>
