<svg width="256" height="256" viewBox="0 0 256 256" fill="none" xmlns="http://www.w3.org/2000/svg">
<circle cx="127" cy="128" r="125" fill="white"/>
<mask id="mask0_741_46" style="mask-type:alpha" maskUnits="userSpaceOnUse" x="1" y="3" width="252" height="250">
<rect x="1.5" y="3.5" width="251" height="249" fill="white"/>
<rect x="1.5" y="3.5" width="251" height="249" stroke="black"/>
</mask>
<g mask="url(#mask0_741_46)">
<mask id="path-3-outside-1_741_46" maskUnits="userSpaceOnUse" x="2.00806" y="3" width="251" height="250" fill="black">
<rect fill="white" x="2.00806" y="3" width="251" height="250"/>
<path d="M127.504 4C102.881 4 78.8111 11.2725 58.3378 24.8978C37.8646 38.5231 21.9076 57.8892 12.4848 80.5472C3.062 103.205 0.596564 128.138 5.40027 152.191C10.204 176.245 22.0611 198.339 39.4721 215.681C56.8832 233.023 79.0663 244.833 103.216 249.617C127.366 254.402 152.398 251.946 175.147 242.561C197.895 233.176 217.339 217.282 231.019 196.891C244.698 176.499 252 152.525 252 128C252 95.1131 238.883 63.5733 215.536 40.3188C192.188 17.0642 160.522 4 127.504 4ZM155.611 176.579V179.803C155.611 180.252 155.535 180.7 155.535 181.12V181.339C155.535 181.711 155.458 182.083 155.41 182.455C155.37 182.558 155.354 182.669 155.362 182.779C155.315 183.199 155.238 183.6 155.19 183.991L155.142 184.267C155.094 184.611 155.018 184.935 154.941 185.221L154.893 185.498C154.817 185.87 154.721 186.242 154.615 186.614C154.578 186.709 154.553 186.808 154.539 186.91C154.462 187.234 154.366 187.529 154.261 187.863L154.184 188.083C154.06 188.426 153.964 188.779 153.84 189.122L153.744 189.399C153.648 189.695 153.524 190.019 153.418 190.353V190.505C153.294 190.83 153.141 191.154 153.016 191.545L152.94 191.746H151.982C150.124 191.792 148.28 191.427 146.581 190.677C145.887 190.355 145.242 189.938 144.665 189.437C143.578 188.486 142.835 187.206 142.549 185.794C142.473 185.425 142.422 185.052 142.396 184.678C142.362 184.181 142.378 183.683 142.444 183.189C142.569 182.077 142.863 180.99 143.315 179.965C143.559 179.382 143.834 178.813 144.139 178.258L153.074 162.911L153.227 163.33C153.428 163.95 153.629 164.542 153.801 165.143L153.897 165.467C154.05 165.992 154.194 166.507 154.319 167.003C154.362 167.124 154.394 167.248 154.414 167.375C154.568 167.918 154.692 168.462 154.817 169.034C154.854 169.156 154.88 169.28 154.893 169.406C154.989 169.902 155.094 170.36 155.171 170.847L155.219 171.142C155.315 171.686 155.391 172.211 155.439 172.726C155.48 172.855 155.496 172.991 155.487 173.126C155.535 173.594 155.583 174.08 155.64 174.519V174.738C155.688 175.234 155.736 175.692 155.736 176.226C155.667 176.333 155.624 176.454 155.611 176.579ZM157.527 90.3231C157.45 90.9908 157.354 91.6394 157.23 92.3071C156.972 93.6233 156.613 94.9179 156.157 96.1797C155.937 96.7997 155.659 97.4483 155.382 98.0874C155.286 98.2877 155.209 98.488 155.104 98.6787L149.3 108.599C148.582 108.007 147.835 107.435 147.088 106.863C141.238 102.231 137.316 95.6064 136.078 88.2656C134.841 80.9249 136.374 73.3876 140.385 67.1065C116.443 72.5625 109.308 100.014 121.758 120.35C124.454 124.024 126.314 128.239 127.209 132.701C128.104 137.163 128.012 141.766 126.939 146.19C126.636 147.406 126.166 148.574 125.541 149.662L125.091 150.434C124.469 151.526 123.688 152.519 122.773 153.382C121.082 154.952 119.067 156.135 116.868 156.847C114.669 157.559 112.341 157.782 110.046 157.502C93.2868 156.31 95.681 130.795 95.681 130.795C95.681 130.795 79.621 157.712 90.5 179.927C92.1798 183.427 94.3181 186.689 96.8589 189.628C96.4854 189.8 96.0832 189.952 95.6906 190.095L95.2692 190.248L94.4456 190.525L94.0242 190.649C93.6507 190.744 93.2772 190.868 92.9038 190.944H92.7697L91.496 191.221L91.0938 191.297L90.1361 191.45L89.7339 191.497C89.2961 191.563 88.8548 191.605 88.4123 191.622H47.9224C47.2013 191.573 46.4844 191.475 45.7773 191.326C44.5564 191.075 43.3976 190.585 42.368 189.886C42.1326 189.726 41.9086 189.551 41.6976 189.361C41.5252 189.208 41.372 189.065 41.1996 188.894C40.8834 188.582 40.6068 188.233 40.3761 187.854C40.2516 187.653 40.1271 187.434 40.0504 187.282C39.9685 187.123 39.9012 186.957 39.8493 186.786C39.7243 186.447 39.6251 186.099 39.5525 185.746C39.4769 185.378 39.4257 185.005 39.3992 184.63V184.058C39.4066 183.652 39.4385 183.248 39.495 182.846C39.7756 181.196 40.367 179.613 41.2379 178.182L119.546 40.828C119.824 40.3606 120.092 39.9314 120.369 39.5117C120.895 38.7519 121.505 38.0543 122.189 37.4323C122.783 36.8889 123.442 36.4211 124.152 36.0397C125.115 35.5404 126.18 35.2694 127.265 35.248C128.353 35.2456 129.423 35.518 130.377 36.0397C130.713 36.2188 131.034 36.4263 131.335 36.6597C132.042 37.1577 132.686 37.7408 133.25 38.3957C133.894 39.1535 134.467 39.9676 134.964 40.828L140.94 51.5683L155.056 76.2729C155.152 76.4732 155.228 76.6735 155.334 76.8643C155.631 77.5606 155.908 78.2569 156.157 78.9723C156.406 79.6877 156.627 80.4126 156.808 81.128C156.943 81.6083 157.052 82.0955 157.134 82.5874C157.259 83.236 157.354 83.9037 157.431 84.5714C157.538 85.5216 157.596 86.4767 157.603 87.4329C157.659 88.4004 157.627 89.3709 157.508 90.3326L157.527 90.3231ZM215.513 185.774C215.437 186.127 215.338 186.474 215.216 186.814C215.086 187.141 214.936 187.46 214.766 187.768C214.401 188.39 213.939 188.95 213.397 189.428C212.967 189.796 212.498 190.115 211.998 190.382L211.453 190.658C209.727 191.408 207.857 191.773 205.975 191.726H162.535L162.784 191.526L163.742 190.706L164.336 190.181L165.293 189.361L165.81 188.855L166.768 187.902L167.266 187.406C167.64 186.986 168.061 186.538 168.463 186.118L168.683 185.87C169.153 185.326 169.641 184.782 170.053 184.21L170.426 183.743C170.752 183.342 171.049 182.922 171.384 182.503C171.526 182.277 171.683 182.06 171.853 181.854C172.102 181.482 172.38 181.11 172.629 180.738C172.878 180.366 172.955 180.242 173.098 179.994C173.242 179.746 173.644 179.155 173.797 178.85C173.951 178.544 174.094 178.277 174.247 178.029C174.401 177.781 174.669 177.257 174.87 176.865C175.071 176.474 175.148 176.322 175.291 176.045C175.492 175.626 175.694 175.225 175.866 174.805C176.038 174.385 176.115 174.261 176.211 173.985C176.412 173.517 176.584 173.031 176.757 172.545C176.852 172.297 176.929 172.077 177.034 171.829C177.283 171.114 177.504 170.37 177.705 169.626C179.121 163.303 179.229 156.758 178.022 150.392C176.815 144.026 174.319 137.971 170.685 132.598L171.432 131.329C172.148 130.073 173.045 128.929 174.094 127.933C174.774 127.308 175.546 126.79 176.383 126.398C176.888 126.171 177.414 125.995 177.954 125.873C178.477 125.768 179.012 125.736 179.543 125.778C179.894 125.804 180.243 125.855 180.587 125.93C181.425 126.108 182.226 126.431 182.953 126.884C183.154 127.008 183.326 127.132 183.527 127.285C183.728 127.437 184.15 127.781 184.485 128.057C185.125 128.675 185.708 129.348 186.228 130.07C186.531 130.464 186.806 130.878 187.051 131.31L213.914 178.277C214.338 179.017 214.703 179.789 215.006 180.586C215.101 180.834 215.178 181.081 215.255 181.329C215.407 181.8 215.523 182.281 215.599 182.77C215.674 183.252 215.7 183.741 215.676 184.229C215.673 184.753 215.612 185.274 215.494 185.784L215.513 185.774Z"/>
</mask>
<path d="M127.504 4C102.881 4 78.8111 11.2725 58.3378 24.8978C37.8646 38.5231 21.9076 57.8892 12.4848 80.5472C3.062 103.205 0.596564 128.138 5.40027 152.191C10.204 176.245 22.0611 198.339 39.4721 215.681C56.8832 233.023 79.0663 244.833 103.216 249.617C127.366 254.402 152.398 251.946 175.147 242.561C197.895 233.176 217.339 217.282 231.019 196.891C244.698 176.499 252 152.525 252 128C252 95.1131 238.883 63.5733 215.536 40.3188C192.188 17.0642 160.522 4 127.504 4ZM155.611 176.579V179.803C155.611 180.252 155.535 180.7 155.535 181.12V181.339C155.535 181.711 155.458 182.083 155.41 182.455C155.37 182.558 155.354 182.669 155.362 182.779C155.315 183.199 155.238 183.6 155.19 183.991L155.142 184.267C155.094 184.611 155.018 184.935 154.941 185.221L154.893 185.498C154.817 185.87 154.721 186.242 154.615 186.614C154.578 186.709 154.553 186.808 154.539 186.91C154.462 187.234 154.366 187.529 154.261 187.863L154.184 188.083C154.06 188.426 153.964 188.779 153.84 189.122L153.744 189.399C153.648 189.695 153.524 190.019 153.418 190.353V190.505C153.294 190.83 153.141 191.154 153.016 191.545L152.94 191.746H151.982C150.124 191.792 148.28 191.427 146.581 190.677C145.887 190.355 145.242 189.938 144.665 189.437C143.578 188.486 142.835 187.206 142.549 185.794C142.473 185.425 142.422 185.052 142.396 184.678C142.362 184.181 142.378 183.683 142.444 183.189C142.569 182.077 142.863 180.99 143.315 179.965C143.559 179.382 143.834 178.813 144.139 178.258L153.074 162.911L153.227 163.33C153.428 163.95 153.629 164.542 153.801 165.143L153.897 165.467C154.05 165.992 154.194 166.507 154.319 167.003C154.362 167.124 154.394 167.248 154.414 167.375C154.568 167.918 154.692 168.462 154.817 169.034C154.854 169.156 154.88 169.28 154.893 169.406C154.989 169.902 155.094 170.36 155.171 170.847L155.219 171.142C155.315 171.686 155.391 172.211 155.439 172.726C155.48 172.855 155.496 172.991 155.487 173.126C155.535 173.594 155.583 174.08 155.64 174.519V174.738C155.688 175.234 155.736 175.692 155.736 176.226C155.667 176.333 155.624 176.454 155.611 176.579ZM157.527 90.3231C157.45 90.9908 157.354 91.6394 157.23 92.3071C156.972 93.6233 156.613 94.9179 156.157 96.1797C155.937 96.7997 155.659 97.4483 155.382 98.0874C155.286 98.2877 155.209 98.488 155.104 98.6787L149.3 108.599C148.582 108.007 147.835 107.435 147.088 106.863C141.238 102.231 137.316 95.6064 136.078 88.2656C134.841 80.9249 136.374 73.3876 140.385 67.1065C116.443 72.5625 109.308 100.014 121.758 120.35C124.454 124.024 126.314 128.239 127.209 132.701C128.104 137.163 128.012 141.766 126.939 146.19C126.636 147.406 126.166 148.574 125.541 149.662L125.091 150.434C124.469 151.526 123.688 152.519 122.773 153.382C121.082 154.952 119.067 156.135 116.868 156.847C114.669 157.559 112.341 157.782 110.046 157.502C93.2868 156.31 95.681 130.795 95.681 130.795C95.681 130.795 79.621 157.712 90.5 179.927C92.1798 183.427 94.3181 186.689 96.8589 189.628C96.4854 189.8 96.0832 189.952 95.6906 190.095L95.2692 190.248L94.4456 190.525L94.0242 190.649C93.6507 190.744 93.2772 190.868 92.9038 190.944H92.7697L91.496 191.221L91.0938 191.297L90.1361 191.45L89.7339 191.497C89.2961 191.563 88.8548 191.605 88.4123 191.622H47.9224C47.2013 191.573 46.4844 191.475 45.7773 191.326C44.5564 191.075 43.3976 190.585 42.368 189.886C42.1326 189.726 41.9086 189.551 41.6976 189.361C41.5252 189.208 41.372 189.065 41.1996 188.894C40.8834 188.582 40.6068 188.233 40.3761 187.854C40.2516 187.653 40.1271 187.434 40.0504 187.282C39.9685 187.123 39.9012 186.957 39.8493 186.786C39.7243 186.447 39.6251 186.099 39.5525 185.746C39.4769 185.378 39.4257 185.005 39.3992 184.63V184.058C39.4066 183.652 39.4385 183.248 39.495 182.846C39.7756 181.196 40.367 179.613 41.2379 178.182L119.546 40.828C119.824 40.3606 120.092 39.9314 120.369 39.5117C120.895 38.7519 121.505 38.0543 122.189 37.4323C122.783 36.8889 123.442 36.4211 124.152 36.0397C125.115 35.5404 126.18 35.2694 127.265 35.248C128.353 35.2456 129.423 35.518 130.377 36.0397C130.713 36.2188 131.034 36.4263 131.335 36.6597C132.042 37.1577 132.686 37.7408 133.25 38.3957C133.894 39.1535 134.467 39.9676 134.964 40.828L140.94 51.5683L155.056 76.2729C155.152 76.4732 155.228 76.6735 155.334 76.8643C155.631 77.5606 155.908 78.2569 156.157 78.9723C156.406 79.6877 156.627 80.4126 156.808 81.128C156.943 81.6083 157.052 82.0955 157.134 82.5874C157.259 83.236 157.354 83.9037 157.431 84.5714C157.538 85.5216 157.596 86.4767 157.603 87.4329C157.659 88.4004 157.627 89.3709 157.508 90.3326L157.527 90.3231ZM215.513 185.774C215.437 186.127 215.338 186.474 215.216 186.814C215.086 187.141 214.936 187.46 214.766 187.768C214.401 188.39 213.939 188.95 213.397 189.428C212.967 189.796 212.498 190.115 211.998 190.382L211.453 190.658C209.727 191.408 207.857 191.773 205.975 191.726H162.535L162.784 191.526L163.742 190.706L164.336 190.181L165.293 189.361L165.81 188.855L166.768 187.902L167.266 187.406C167.64 186.986 168.061 186.538 168.463 186.118L168.683 185.87C169.153 185.326 169.641 184.782 170.053 184.21L170.426 183.743C170.752 183.342 171.049 182.922 171.384 182.503C171.526 182.277 171.683 182.06 171.853 181.854C172.102 181.482 172.38 181.11 172.629 180.738C172.878 180.366 172.955 180.242 173.098 179.994C173.242 179.746 173.644 179.155 173.797 178.85C173.951 178.544 174.094 178.277 174.247 178.029C174.401 177.781 174.669 177.257 174.87 176.865C175.071 176.474 175.148 176.322 175.291 176.045C175.492 175.626 175.694 175.225 175.866 174.805C176.038 174.385 176.115 174.261 176.211 173.985C176.412 173.517 176.584 173.031 176.757 172.545C176.852 172.297 176.929 172.077 177.034 171.829C177.283 171.114 177.504 170.37 177.705 169.626C179.121 163.303 179.229 156.758 178.022 150.392C176.815 144.026 174.319 137.971 170.685 132.598L171.432 131.329C172.148 130.073 173.045 128.929 174.094 127.933C174.774 127.308 175.546 126.79 176.383 126.398C176.888 126.171 177.414 125.995 177.954 125.873C178.477 125.768 179.012 125.736 179.543 125.778C179.894 125.804 180.243 125.855 180.587 125.93C181.425 126.108 182.226 126.431 182.953 126.884C183.154 127.008 183.326 127.132 183.527 127.285C183.728 127.437 184.15 127.781 184.485 128.057C185.125 128.675 185.708 129.348 186.228 130.07C186.531 130.464 186.806 130.878 187.051 131.31L213.914 178.277C214.338 179.017 214.703 179.789 215.006 180.586C215.101 180.834 215.178 181.081 215.255 181.329C215.407 181.8 215.523 182.281 215.599 182.77C215.674 183.252 215.7 183.741 215.676 184.229C215.673 184.753 215.612 185.274 215.494 185.784L215.513 185.774Z" fill="#00B3ED"/>
<path d="M127.504 4C102.881 4 78.8111 11.2725 58.3378 24.8978C37.8646 38.5231 21.9076 57.8892 12.4848 80.5472C3.062 103.205 0.596564 128.138 5.40027 152.191C10.204 176.245 22.0611 198.339 39.4721 215.681C56.8832 233.023 79.0663 244.833 103.216 249.617C127.366 254.402 152.398 251.946 175.147 242.561C197.895 233.176 217.339 217.282 231.019 196.891C244.698 176.499 252 152.525 252 128C252 95.1131 238.883 63.5733 215.536 40.3188C192.188 17.0642 160.522 4 127.504 4ZM155.611 176.579V179.803C155.611 180.252 155.535 180.7 155.535 181.12V181.339C155.535 181.711 155.458 182.083 155.41 182.455C155.37 182.558 155.354 182.669 155.362 182.779C155.315 183.199 155.238 183.6 155.19 183.991L155.142 184.267C155.094 184.611 155.018 184.935 154.941 185.221L154.893 185.498C154.817 185.87 154.721 186.242 154.615 186.614C154.578 186.709 154.553 186.808 154.539 186.91C154.462 187.234 154.366 187.529 154.261 187.863L154.184 188.083C154.06 188.426 153.964 188.779 153.84 189.122L153.744 189.399C153.648 189.695 153.524 190.019 153.418 190.353V190.505C153.294 190.83 153.141 191.154 153.016 191.545L152.94 191.746H151.982C150.124 191.792 148.28 191.427 146.581 190.677C145.887 190.355 145.242 189.938 144.665 189.437C143.578 188.486 142.835 187.206 142.549 185.794C142.473 185.425 142.422 185.052 142.396 184.678C142.362 184.181 142.378 183.683 142.444 183.189C142.569 182.077 142.863 180.99 143.315 179.965C143.559 179.382 143.834 178.813 144.139 178.258L153.074 162.911L153.227 163.33C153.428 163.95 153.629 164.542 153.801 165.143L153.897 165.467C154.05 165.992 154.194 166.507 154.319 167.003C154.362 167.124 154.394 167.248 154.414 167.375C154.568 167.918 154.692 168.462 154.817 169.034C154.854 169.156 154.88 169.28 154.893 169.406C154.989 169.902 155.094 170.36 155.171 170.847L155.219 171.142C155.315 171.686 155.391 172.211 155.439 172.726C155.48 172.855 155.496 172.991 155.487 173.126C155.535 173.594 155.583 174.08 155.64 174.519V174.738C155.688 175.234 155.736 175.692 155.736 176.226C155.667 176.333 155.624 176.454 155.611 176.579ZM157.527 90.3231C157.45 90.9908 157.354 91.6394 157.23 92.3071C156.972 93.6233 156.613 94.9179 156.157 96.1797C155.937 96.7997 155.659 97.4483 155.382 98.0874C155.286 98.2877 155.209 98.488 155.104 98.6787L149.3 108.599C148.582 108.007 147.835 107.435 147.088 106.863C141.238 102.231 137.316 95.6064 136.078 88.2656C134.841 80.9249 136.374 73.3876 140.385 67.1065C116.443 72.5625 109.308 100.014 121.758 120.35C124.454 124.024 126.314 128.239 127.209 132.701C128.104 137.163 128.012 141.766 126.939 146.19C126.636 147.406 126.166 148.574 125.541 149.662L125.091 150.434C124.469 151.526 123.688 152.519 122.773 153.382C121.082 154.952 119.067 156.135 116.868 156.847C114.669 157.559 112.341 157.782 110.046 157.502C93.2868 156.31 95.681 130.795 95.681 130.795C95.681 130.795 79.621 157.712 90.5 179.927C92.1798 183.427 94.3181 186.689 96.8589 189.628C96.4854 189.8 96.0832 189.952 95.6906 190.095L95.2692 190.248L94.4456 190.525L94.0242 190.649C93.6507 190.744 93.2772 190.868 92.9038 190.944H92.7697L91.496 191.221L91.0938 191.297L90.1361 191.45L89.7339 191.497C89.2961 191.563 88.8548 191.605 88.4123 191.622H47.9224C47.2013 191.573 46.4844 191.475 45.7773 191.326C44.5564 191.075 43.3976 190.585 42.368 189.886C42.1326 189.726 41.9086 189.551 41.6976 189.361C41.5252 189.208 41.372 189.065 41.1996 188.894C40.8834 188.582 40.6068 188.233 40.3761 187.854C40.2516 187.653 40.1271 187.434 40.0504 187.282C39.9685 187.123 39.9012 186.957 39.8493 186.786C39.7243 186.447 39.6251 186.099 39.5525 185.746C39.4769 185.378 39.4257 185.005 39.3992 184.63V184.058C39.4066 183.652 39.4385 183.248 39.495 182.846C39.7756 181.196 40.367 179.613 41.2379 178.182L119.546 40.828C119.824 40.3606 120.092 39.9314 120.369 39.5117C120.895 38.7519 121.505 38.0543 122.189 37.4323C122.783 36.8889 123.442 36.4211 124.152 36.0397C125.115 35.5404 126.18 35.2694 127.265 35.248C128.353 35.2456 129.423 35.518 130.377 36.0397C130.713 36.2188 131.034 36.4263 131.335 36.6597C132.042 37.1577 132.686 37.7408 133.25 38.3957C133.894 39.1535 134.467 39.9676 134.964 40.828L140.94 51.5683L155.056 76.2729C155.152 76.4732 155.228 76.6735 155.334 76.8643C155.631 77.5606 155.908 78.2569 156.157 78.9723C156.406 79.6877 156.627 80.4126 156.808 81.128C156.943 81.6083 157.052 82.0955 157.134 82.5874C157.259 83.236 157.354 83.9037 157.431 84.5714C157.538 85.5216 157.596 86.4767 157.603 87.4329C157.659 88.4004 157.627 89.3709 157.508 90.3326L157.527 90.3231ZM215.513 185.774C215.437 186.127 215.338 186.474 215.216 186.814C215.086 187.141 214.936 187.46 214.766 187.768C214.401 188.39 213.939 188.95 213.397 189.428C212.967 189.796 212.498 190.115 211.998 190.382L211.453 190.658C209.727 191.408 207.857 191.773 205.975 191.726H162.535L162.784 191.526L163.742 190.706L164.336 190.181L165.293 189.361L165.81 188.855L166.768 187.902L167.266 187.406C167.64 186.986 168.061 186.538 168.463 186.118L168.683 185.87C169.153 185.326 169.641 184.782 170.053 184.21L170.426 183.743C170.752 183.342 171.049 182.922 171.384 182.503C171.526 182.277 171.683 182.06 171.853 181.854C172.102 181.482 172.38 181.11 172.629 180.738C172.878 180.366 172.955 180.242 173.098 179.994C173.242 179.746 173.644 179.155 173.797 178.85C173.951 178.544 174.094 178.277 174.247 178.029C174.401 177.781 174.669 177.257 174.87 176.865C175.071 176.474 175.148 176.322 175.291 176.045C175.492 175.626 175.694 175.225 175.866 174.805C176.038 174.385 176.115 174.261 176.211 173.985C176.412 173.517 176.584 173.031 176.757 172.545C176.852 172.297 176.929 172.077 177.034 171.829C177.283 171.114 177.504 170.37 177.705 169.626C179.121 163.303 179.229 156.758 178.022 150.392C176.815 144.026 174.319 137.971 170.685 132.598L171.432 131.329C172.148 130.073 173.045 128.929 174.094 127.933C174.774 127.308 175.546 126.79 176.383 126.398C176.888 126.171 177.414 125.995 177.954 125.873C178.477 125.768 179.012 125.736 179.543 125.778C179.894 125.804 180.243 125.855 180.587 125.93C181.425 126.108 182.226 126.431 182.953 126.884C183.154 127.008 183.326 127.132 183.527 127.285C183.728 127.437 184.15 127.781 184.485 128.057C185.125 128.675 185.708 129.348 186.228 130.07C186.531 130.464 186.806 130.878 187.051 131.31L213.914 178.277C214.338 179.017 214.703 179.789 215.006 180.586C215.101 180.834 215.178 181.081 215.255 181.329C215.407 181.8 215.523 182.281 215.599 182.77C215.674 183.252 215.7 183.741 215.676 184.229C215.673 184.753 215.612 185.274 215.494 185.784L215.513 185.774Z" stroke="#00B3ED" stroke-width="2" mask="url(#path-3-outside-1_741_46)"/>
</g>
</svg>
