<svg width="256" height="256" viewBox="0 0 256 256" fill="none" xmlns="http://www.w3.org/2000/svg">
<g clip-path="url(#clip0_1332_1919)">
<path d="M218.513 37.504C194.325 13.312 162.194 0 128.013 0C57.4213 0 0 57.4208 0 128C0 198.579 57.4213 256 128.013 256C162.194 256 194.351 242.688 218.513 218.496C242.702 194.304 256 162.176 256 128C256 93.824 242.702 61.6704 218.513 37.504ZM128.013 247.142C62.3153 247.142 8.86559 193.69 8.86559 128C8.86559 62.3104 62.3153 8.8576 128.013 8.8576C193.71 8.8576 247.16 62.3104 247.16 128C247.16 193.69 193.71 247.142 128.013 247.142Z" fill="#151A20"/>
<path d="M128.013 247.142C62.3151 247.142 8.86548 193.689 8.86548 128C8.86548 62.3102 62.3151 8.85742 128.013 8.85742C193.71 8.85742 247.16 62.3102 247.16 128C247.16 193.689 193.71 247.142 128.013 247.142Z" fill="#151A20"/>
<path d="M218.513 37.504C194.325 13.312 162.194 0 128.013 0C57.4213 0 0 57.4208 0 128C0 198.579 57.4213 256 128.013 256C162.194 256 194.351 242.688 218.513 218.496C242.702 194.304 256 162.176 256 128C256 93.824 242.702 61.6704 218.513 37.504ZM128.013 247.142C62.3153 247.142 8.86559 193.69 8.86559 128C8.86559 62.3104 62.3153 8.8576 128.013 8.8576C193.71 8.8576 247.16 62.3104 247.16 128C247.16 193.69 193.71 247.142 128.013 247.142Z" fill="white"/>
<path d="M169.953 130.996C161.763 123.676 151.04 118.788 140.65 114.054L140.573 114.028C122.248 105.659 106.407 98.4166 107.533 81.2951C108.019 74.7689 112.754 70.8278 116.644 68.7035C121.02 66.2979 126.83 64.8648 132.204 64.8648C132.844 64.8648 133.484 64.8904 134.098 64.916C149.735 65.9651 162.071 72.5937 174.125 86.3624L174.841 87.2069L175.686 86.4904L180.395 82.3957L181.239 81.6535L180.497 80.809C167.061 65.4021 152.473 57.6476 134.635 56.4447C133.868 56.3679 133.049 56.3423 132.153 56.3423C131.616 56.3423 131.027 56.3423 130.413 56.3679H129.645C117.949 56.3679 105.127 60.2069 95.3764 66.6563C83.7318 74.3596 77.2058 84.9549 77.0266 96.4972C76.5658 124.572 99.5224 134.016 119.766 142.385L119.817 142.41L120.022 142.487C137.937 149.909 153.395 156.307 153.062 173.454C152.909 184.766 136.734 191.01 125.627 191.01H125.166H124.066V191.036C107.507 190.55 92.7148 183.409 80.0976 169.871L79.3298 169.052L78.5109 169.794L73.9298 174.043L73.1108 174.81L73.8786 175.629C88.2105 191.062 105.895 199.354 125.038 199.584H125.908C138.269 199.584 151.706 196.257 161.84 190.652C174.534 183.716 181.931 173.607 182.698 162.193C183.568 149.653 179.397 139.441 169.953 130.996ZM110.527 106.58C117.821 112.825 127.7 117.304 137.246 121.629L137.425 121.706C147.534 126.364 157.106 130.766 164.041 136.882C171.719 143.639 174.969 151.47 174.278 161.528C173.638 171.483 166.242 178.137 159.511 182.155C160.817 179.494 161.533 176.602 161.61 173.531C161.763 163.191 157.797 154.925 149.453 148.22C142.16 142.359 132.486 138.392 123.119 134.527C103.643 126.517 85.2419 118.942 85.5745 96.574C85.6769 87.9747 90.8465 79.8364 100.137 73.6686C100.444 73.4638 100.751 73.259 101.084 73.0542C99.9832 75.4601 99.3688 77.9681 99.2154 80.6042C98.4733 90.9691 102.184 99.4657 110.527 106.58Z" fill="white"/>
</g>
<defs>
<clipPath id="clip0_1332_1919">
<rect width="256" height="256" fill="white"/>
</clipPath>
</defs>
</svg>
