<svg width="256" height="256" viewBox="0 0 256 256" fill="none" xmlns="http://www.w3.org/2000/svg">
<g clip-path="url(#clip0_741_46)">
<path d="M256 128C256 198.692 198.692 256 128 256C57.3075 256 0 198.692 0 128C0 57.3075 57.3075 0 128 0C198.692 0 256 57.3075 256 128Z" fill="#252525"/>
<path fill-rule="evenodd" clip-rule="evenodd" d="M128.19 246C162.696 246 193.738 231.142 215.283 207.464L209.551 201.127C202.455 193.284 190.361 192.614 182.441 199.625L170.211 210.451C153.573 225.179 128.285 224.25 112.774 208.341L105.127 200.498C97.7842 192.966 85.7516 192.704 78.086 199.909L55.6556 220.989C75.6524 236.66 100.832 246 128.19 246ZM226.124 186.168L228.909 189.246C239.754 171.392 246 150.427 246 128C246 100.806 236.816 75.7609 221.385 55.8059C218.516 56.5424 215.775 57.9519 213.407 60.0479L201.178 70.8739C184.541 85.6024 159.252 84.6741 143.741 68.7651L136.095 60.9215C128.751 53.3896 116.719 53.1271 109.053 60.3315L77.5874 89.9042L62.2797 73.6553L93.7453 44.0825C110.287 28.536 136.252 29.1026 152.098 45.3559L159.745 53.1995C166.933 60.5719 178.651 61.0021 186.362 54.1766L198.591 43.3506C200.644 41.5337 202.826 39.956 205.105 38.6153C184.465 20.783 157.585 10 128.19 10C69.0898 10 20.1537 53.5892 11.679 110.421C27.8061 101.123 48.7459 103.554 62.2916 117.448L71.1352 126.518C78.0092 133.57 89.0978 134.313 96.8539 128.243L123.07 107.729C138.805 95.4166 161.081 96.0122 176.133 109.148L211.83 140.3L197.134 157.101L161.436 125.95C154.461 119.862 144.137 119.587 136.846 125.293L110.63 145.808C93.8931 158.904 69.965 157.299 55.1317 142.085L46.2882 133.014C38.9448 125.482 26.9123 125.219 19.2467 132.424L11 140.174C13.5504 165.098 23.8455 187.724 39.4351 205.598L62.7784 183.659C79.32 168.113 105.285 168.679 121.131 184.933L128.778 192.776C135.966 200.148 147.685 200.579 155.395 193.754L167.625 182.928C184.714 167.799 210.815 169.245 226.124 186.168Z" fill="url(#paint0_linear_741_46)"/>
</g>
<defs>
<linearGradient id="paint0_linear_741_46" x1="128.5" y1="10" x2="175.076" y2="245.926" gradientUnits="userSpaceOnUse">
<stop stop-color="#780000"/>
<stop offset="1" stop-color="#C1121F"/>
</linearGradient>
<clipPath id="clip0_741_46">
<rect width="256" height="256" fill="white"/>
</clipPath>
</defs>
</svg>
