<svg width="256" height="256" viewBox="0 0 256 256" fill="none" xmlns="http://www.w3.org/2000/svg">
<path d="M126 253C195.036 253 251 197.036 251 128C251 58.9644 195.036 3 126 3C56.9644 3 1 58.9644 1 128C1 197.036 56.9644 253 126 253Z" fill="#9FF7D3"/>
<path d="M128 134.095V133.987L43.5982 183L39.2919 180.415C38.9693 180.307 38.6455 179.984 38.4303 179.66C38.3227 179.337 38.2151 179.015 38.2151 178.692L38 76.8928C38 76.4622 38.1076 76.1382 38.3227 75.8153C38.4303 75.4923 38.7541 75.2771 39.0768 75.0607L127.031 24.3229C127.353 24.1076 127.677 24 127.999 24V134.092H128V134.095Z" fill="#6D81D5"/>
<path d="M218 180.054C217.784 180.378 217.568 180.702 217.243 180.81L128.919 231.785C128.595 231.892 128.162 232 127.839 232C127.515 232 127.082 231.892 126.757 231.785L38.7573 180.81C38.4332 180.702 38.2171 180.379 38 180.054L127.946 128L218 180.054Z" fill="#2944AE"/>
<path d="M176.894 156.43V156.536L131.103 183.249C130.141 183.785 129.071 184 128.001 184C126.93 184 125.754 183.786 124.898 183.249L79 156.536V156.43L128 128L177 156.43H176.893H176.894Z" fill="#213993"/>
<path d="M217.999 180.054C217.784 180.378 217.568 180.702 217.246 180.81L129.302 231.785C128.979 231.892 128.547 232 128.226 232C127.903 232 127.472 231.892 127.149 231.785L118 226.384L194.641 182.106C194.964 181.89 195.18 181.566 195.395 181.242C195.61 181.026 195.718 180.594 195.718 180.271C195.718 179.838 195.61 179.514 195.395 179.19C195.18 178.866 194.965 178.65 194.641 178.434L118.108 133.94L128.333 128L217.999 180.054Z" fill="#213993"/>
<path d="M217.999 178.919C217.999 179.352 217.892 179.676 217.677 180L128 127.964V24C128.43 24 128.754 24.1079 129.077 24.3236L216.815 75.1725C217.031 75.3883 217.355 75.604 217.57 75.9287C217.677 76.2524 217.785 76.5771 217.785 77.0086L218 178.921L217.999 178.919Z" fill="#5169CD"/>
<path d="M217.998 178.919C217.998 179.352 217.891 179.676 217.676 180L205.08 172.767V83.3766L128 38.4666V24C128.431 24 128.754 24.1079 129.077 24.3236L216.815 75.1725C217.031 75.3883 217.355 75.604 217.57 75.9287C217.677 76.2524 217.785 76.5771 217.785 77.0086L218 178.921L217.998 178.919Z" fill="#3351C5"/>
<path d="M151.12 112.074C130.479 98.6289 127.362 84 127.362 84C127.362 84 125.427 98.6289 104.894 112.074C84.2536 125.519 75.0076 134.77 76.084 152.304C77.052 169.837 93.4996 175 93.4996 175H162.409C162.409 175 178.858 169.837 179.931 152.304C180.899 134.772 171.653 125.521 151.122 112.074H151.12Z" fill="#213993"/>
<path d="M96.9828 184C90.2639 183.676 82.3539 178.279 81.1617 170.725C80.2944 165.545 82.2456 155.723 103.917 147.304C105.651 146.548 107.384 146.009 109.118 145.47C107.492 143.851 105.975 142.124 104.567 140.397C96.8735 130.791 93.9476 121.943 96.2226 115.574C97.7397 111.581 100.232 108.882 103.808 107.588C105.325 107.047 106.842 106.724 108.359 106.616C104.783 101.004 102.183 95.4989 101.315 90.5346C100.123 84.9221 101.099 80.3892 103.916 76.827C107.492 72.6176 112.91 71.1066 119.737 72.5097C132.415 75.1003 146.502 86.8645 149.753 97.7648C152.895 108.449 141.517 116.329 141.084 116.653L139.459 114.17C139.567 114.062 149.427 107.154 146.827 98.6276C143.901 88.8068 130.682 77.7976 119.194 75.4239C115.185 74.6678 109.768 74.56 106.191 78.7693C103.916 81.5755 103.265 85.2445 104.133 89.9943C105.217 95.0664 107.926 100.787 112.042 106.616C123.854 107.479 139.242 115.79 150.186 121.726L150.837 122.05C162.54 128.524 170.234 138.131 167.417 143.203C166.117 145.686 161.566 148.6 145.636 140.18C131.767 132.734 118.762 121.185 110.31 109.529C108.468 109.421 106.626 109.745 104.892 110.285C102.074 111.365 100.124 113.415 99.0401 116.545C97.09 121.941 99.9075 129.712 106.95 138.454C108.684 140.613 110.527 142.771 112.477 144.714C133.065 140.18 151.378 148.276 158.965 155.399C162.54 158.744 163.949 162.09 163.083 164.788C162.54 166.407 160.916 168.566 155.823 169.213C143.253 170.94 124.615 160.47 111.61 147.951C109.335 148.491 107.168 149.247 105 150.109C90.3711 155.722 82.8942 162.954 84.0864 170.185C85.062 176.121 91.7799 180.762 97.09 181.086L96.9817 184H96.9828ZM115.187 147.197C127.541 158.529 144.337 167.811 155.497 166.3C158.206 165.977 159.941 165.005 160.265 163.817C160.806 162.306 159.506 160.039 156.905 157.558C149.645 150.758 133.066 144.174 115.187 147.197ZM114.428 109.853C122.664 120.43 134.584 130.899 147.044 137.484C159.398 144.067 164.058 143.204 164.816 141.801C166.117 139.535 161.674 131.44 149.429 124.748L148.779 124.424C139.46 119.352 125.372 111.69 114.428 109.853Z" fill="#9FF7D3"/>
<path d="M143.736 153.606C141.671 150.901 138.626 140.949 137.213 136.188C136.668 134.35 136.125 132.943 135.69 131.105C136.668 130.564 137.43 129.806 137.973 128.833C138.517 127.968 138.735 126.887 138.735 125.804H135.145C135.363 125.372 135.471 124.831 135.471 124.29C135.363 123.423 135.254 122.559 134.819 121.801L143.845 115.093L140.692 111.2L133.297 119.314C132.863 118.772 132.427 118.34 131.884 118.016C131.122 117.366 130.47 116.609 130.036 115.636C129.599 114.77 129.382 113.798 129.382 112.716C129.382 111.741 129.491 110.768 129.925 109.902C130.361 108.928 130.904 108.171 131.666 107.523C132.209 106.982 132.752 106.441 133.079 105.684C133.405 105.034 133.622 104.278 133.622 103.413C133.622 102.655 133.405 101.899 133.079 101.25C132.752 100.492 132.209 99.9516 131.666 99.4111C130.903 98.7614 130.36 98.0047 129.925 97.0307C129.491 96.1648 129.382 95.1919 129.382 94.2179V92.4872C129.382 91.5132 129.491 90.5403 129.925 89.6743C130.361 88.7003 130.904 87.9436 131.666 87.2939C132.209 86.7534 132.752 86.2118 133.079 85.4551C133.405 84.8065 133.622 83.9406 133.622 83.1839C133.622 82.4262 133.405 81.6694 133.079 81.0208C132.752 80.2631 132.209 79.6145 131.666 79.1821C130.903 78.5335 130.36 77.6675 129.925 76.8027C129.491 75.9368 129.382 74.9639 129.382 73.9899V67.4995H131.23V66.2012C131.23 65.7688 131.448 65.2282 131.774 64.9028C132.1 64.5785 132.644 64.3612 133.079 64.3612C134.601 64.3612 136.015 63.8207 137.103 62.7386C138.08 61.6565 138.734 60.2501 138.734 58.8437H130.469C131.339 58.3032 132.1 57.5454 132.643 56.6806C133.187 55.9228 133.621 54.9499 133.731 53.8677L134.493 49H126.446H118.509L119.162 53.8677C119.379 54.9499 119.705 55.9228 120.358 56.6806C120.901 57.5465 121.663 58.3032 122.532 58.8437H114.268C114.268 60.2501 114.811 61.6565 115.899 62.7386C116.987 63.8207 118.4 64.3612 119.814 64.3612C120.357 64.3612 120.791 64.5774 121.118 64.9028C121.554 65.2271 121.772 65.7688 121.772 66.2012V67.4995H123.62V73.9899C123.62 74.9639 123.403 75.9368 123.076 76.8027C122.641 77.6686 122.097 78.5335 121.336 79.1821C120.683 79.6156 120.248 80.2641 119.923 81.0208C119.596 81.6705 119.378 82.4272 119.378 83.1839C119.378 83.9417 119.595 84.8065 119.923 85.4551C120.248 86.2129 120.684 86.7534 121.336 87.2939C122.097 87.9436 122.641 88.7003 123.076 89.6743C123.402 90.5403 123.62 91.5132 123.62 92.4872V94.2179C123.62 95.1919 123.403 96.1648 123.076 97.0307C122.641 98.0047 122.097 98.7614 121.336 99.4111C120.683 99.9516 120.248 100.493 119.923 101.25C119.596 101.9 119.378 102.657 119.378 103.413C119.378 104.279 119.595 105.035 119.923 105.684C120.248 106.442 120.684 106.982 121.336 107.523C122.097 108.171 122.641 108.93 123.076 109.902C123.402 110.768 123.62 111.741 123.62 112.716C123.62 113.798 123.403 114.77 122.967 115.636C122.532 116.609 121.879 117.367 121.118 118.016C120.575 118.34 120.14 118.773 119.705 119.314C119.053 120.071 118.509 120.828 118.074 121.802C117.748 122.56 117.53 123.425 117.53 124.291C117.53 124.832 117.638 125.372 117.747 125.806H114.268C114.268 126.888 114.485 127.969 115.029 128.834C115.573 129.808 116.334 130.565 117.204 131.106C116.769 132.944 116.333 134.35 115.79 136.19C114.377 140.949 111.222 150.902 109.265 153.607C104.372 160.315 101 160.964 101 165.831C101 171.457 107.089 176 112.744 176H126.445H140.256C145.911 176 152 171.457 152 165.831C151.891 160.964 148.63 160.314 143.735 153.607L143.736 153.606Z" fill="#1EC186"/>
<path d="M105 180H96V184H105V180Z" fill="#26D192"/>
<path d="M113.271 185.957C113.813 185.957 114.353 185.847 114.893 185.736C115.974 185.293 117.163 185.404 118.352 185.736C119.001 185.957 119.758 186.067 120.406 185.957C121.163 185.847 121.811 185.626 122.351 185.183C123.324 184.52 124.405 184.188 125.594 184.188H126.676V183.414H129.487C129.487 183.635 129.595 183.857 129.703 184.077C129.918 184.188 130.134 184.298 130.351 184.298H131V180.1H130.351C130.135 180.1 129.918 180.21 129.703 180.321C129.595 180.431 129.487 180.651 129.487 180.985H126.676V180.1H125.594C124.405 179.99 123.324 179.657 122.351 178.995C121.594 178.441 120.729 178.11 119.757 178.11C119.324 178.11 118.783 178.22 118.243 178.331C117.162 178.773 115.973 178.773 114.784 178.331C114.351 178.11 113.81 178.11 113.379 178.11C112.838 178 112.297 178.11 111.865 178.331C110.676 178.773 109.378 178.773 108.189 178.331C107.757 178.11 107.216 178 106.675 178C105.703 178 104.838 178.331 104.081 178.884C103.757 179.105 103.54 179.326 103.324 179.658C103.108 179.99 103 180.322 103 180.763V183.082C103 183.414 103.108 183.857 103.324 184.188C103.54 184.52 103.756 184.741 104.081 184.962C104.621 185.403 105.27 185.736 106.027 185.847C106.783 185.957 107.432 185.847 108.188 185.626C109.377 185.184 110.566 185.184 111.755 185.626C112.296 185.847 112.836 185.957 113.269 185.957H113.271Z" fill="#26D192"/>
</svg>
