<svg width="256" height="256" viewBox="0 0 256 256" fill="none" xmlns="http://www.w3.org/2000/svg">
<circle cx="126" cy="128" r="125" fill="#9FF7D3"/>
<path d="M127.938 134.973V134.855L36.092 188.266L31.4059 185.449C31.0548 185.331 30.7024 184.979 30.4682 184.626C30.3512 184.274 30.2341 183.923 30.2341 183.571L30 72.6385C30 72.1693 30.1171 71.8162 30.3512 71.4643C30.4682 71.1124 30.8206 70.8778 31.1718 70.642L126.883 15.3519C127.234 15.1173 127.586 15 127.937 15V134.97H127.938V134.973Z" fill="#6D81D5"/>
<path d="M225.524 184.628C225.29 184.98 225.056 185.333 224.704 185.45L128.993 240.858C128.642 240.975 128.172 241.092 127.822 241.092C127.471 241.092 127.002 240.975 126.65 240.858L31.2901 185.45C30.9389 185.333 30.7048 184.981 30.4695 184.628L127.938 128.047L225.524 184.628Z" fill="#2944AE"/>
<path d="M181.475 159.155V159.272L131.334 188.501C130.281 189.088 129.109 189.323 127.937 189.323C126.765 189.323 125.477 189.089 124.54 188.501L74.2818 159.272V159.155L127.936 128.047L181.591 159.155H181.474H181.475Z" fill="#213993"/>
<path d="M225.524 184.628C225.29 184.98 225.055 185.333 224.704 185.45L128.993 240.858C128.642 240.975 128.172 241.092 127.822 241.092C127.471 241.092 127.002 240.975 126.65 240.858L116.693 234.988L200.103 186.859C200.455 186.624 200.69 186.272 200.924 185.919C201.158 185.685 201.275 185.215 201.275 184.864C201.275 184.393 201.158 184.041 200.924 183.689C200.69 183.337 200.456 183.102 200.103 182.867L116.81 134.504L127.939 128.047L225.525 184.628H225.524Z" fill="#213993"/>
<path d="M225.875 183.453C225.875 183.923 225.758 184.276 225.524 184.628L127.938 128.047V15.0024C128.406 15.0024 128.759 15.1197 129.11 15.3543L224.587 70.6445C224.821 70.8791 225.174 71.1137 225.408 71.4668C225.525 71.8187 225.642 72.1718 225.642 72.641L225.876 183.455L225.875 183.453Z" fill="#5169CD"/>
<path d="M225.875 183.453C225.875 183.923 225.758 184.276 225.524 184.628L211.818 176.763V79.5652L127.939 30.7326V15.0024C128.408 15.0024 128.76 15.1197 129.111 15.3543L224.588 70.6445C224.823 70.8791 225.175 71.1137 225.409 71.4668C225.526 71.8187 225.643 72.1718 225.643 72.641L225.877 183.455L225.875 183.453Z" fill="#3351C5"/>
<path d="M153.243 110.32C130.75 95.6469 127.353 79.6821 127.353 79.6821C127.353 79.6821 125.244 95.6469 102.869 110.32C80.3762 124.993 70.3005 135.088 71.4735 154.224C72.5283 173.358 90.4519 178.992 90.4519 178.992H165.545C165.545 178.992 183.47 173.358 184.64 154.224C185.695 135.09 175.619 124.995 153.245 110.32H153.243Z" fill="#213993"/>
<path d="M94.4332 188.735C87.1694 188.383 78.6179 182.513 77.329 174.296C76.3913 168.662 78.5008 157.98 101.93 148.823C103.804 148.001 105.678 147.414 107.553 146.828C105.795 145.067 104.155 143.189 102.632 141.311C94.315 130.863 91.1519 121.239 93.6114 114.312C95.2515 109.969 97.9463 107.033 101.812 105.626C103.452 105.038 105.092 104.686 106.732 104.569C102.866 98.4645 100.055 92.4774 99.1169 87.078C97.828 80.9736 98.8828 76.0434 101.929 72.169C105.795 67.5907 111.652 65.9473 119.033 67.4734C132.739 70.291 147.969 83.0862 151.483 94.9419C154.88 106.563 142.579 115.133 142.111 115.485L140.354 112.785C140.471 112.667 151.131 105.154 148.32 95.8803C145.157 85.1988 130.865 73.2247 118.446 70.6429C114.112 69.8206 108.255 69.7033 104.388 74.2816C101.929 77.3337 101.225 81.3243 102.163 86.4903C103.335 92.007 106.264 98.2287 110.714 104.569C123.484 105.508 140.12 114.547 151.951 121.003L152.655 121.355C165.307 128.397 173.625 138.846 170.58 144.362C169.174 147.063 164.254 150.232 147.032 141.075C132.038 132.976 117.979 120.415 108.841 107.737C106.85 107.62 104.858 107.972 102.984 108.559C99.9375 109.734 97.8292 111.964 96.6574 115.368C94.5491 121.237 97.5951 129.689 105.209 139.197C107.083 141.545 109.076 143.893 111.184 146.006C133.442 141.075 153.24 149.88 161.442 157.627C165.307 161.265 166.83 164.905 165.894 167.839C165.307 169.6 163.551 171.948 158.045 172.652C144.456 174.53 124.306 163.143 110.247 149.527C107.787 150.114 105.444 150.936 103.101 151.874C87.2853 157.979 79.202 165.844 80.4909 173.709C81.5456 180.165 88.8083 185.213 94.5491 185.566L94.432 188.735H94.4332ZM114.114 148.706C127.47 161.032 145.628 171.127 157.693 169.484C160.622 169.132 162.497 168.075 162.848 166.783C163.433 165.14 162.027 162.674 159.215 159.975C151.366 152.58 133.442 145.419 114.113 148.706H114.114ZM113.293 108.09C122.197 119.594 135.084 130.98 148.555 138.142C161.91 145.302 166.948 144.363 167.768 142.837C169.174 140.373 164.371 131.568 151.133 124.29L150.43 123.938C140.355 118.421 125.125 110.087 113.293 108.09Z" fill="#9FF7D3"/>
<path d="M145.042 155.985C142.817 153.05 139.537 142.251 138.014 137.085C137.427 135.09 136.842 133.564 136.374 131.569C137.427 130.982 138.248 130.16 138.833 129.104C139.419 128.165 139.654 126.992 139.654 125.817H135.787C136.021 125.348 136.138 124.761 136.138 124.174C136.021 123.234 135.904 122.296 135.435 121.474L145.159 114.195L141.762 109.97L133.796 118.775C133.328 118.187 132.858 117.718 132.273 117.366C131.452 116.661 130.75 115.84 130.282 114.784C129.812 113.844 129.578 112.789 129.578 111.615C129.578 110.558 129.695 109.502 130.163 108.562C130.633 107.505 131.218 106.684 132.038 105.981C132.624 105.393 133.209 104.806 133.561 103.985C133.912 103.28 134.146 102.459 134.146 101.521C134.146 100.698 133.912 99.8774 133.561 99.1736C133.209 98.3513 132.623 97.7648 132.038 97.1783C131.217 96.4733 130.632 95.6522 130.163 94.5953C129.695 93.6557 129.578 92.6 129.578 91.5431V89.6651C129.578 88.6082 129.695 87.5525 130.163 86.6129C130.633 85.556 131.218 84.7349 132.038 84.0299C132.624 83.4434 133.209 82.8557 133.561 82.0346C133.912 81.3308 134.146 80.3912 134.146 79.5701C134.146 78.7479 133.912 77.9267 133.561 77.2229C133.209 76.4007 132.623 75.6969 132.038 75.2277C131.217 74.5239 130.632 73.5843 130.163 72.6459C129.695 71.7063 129.578 70.6506 129.578 69.5937V62.5509H131.569V61.1421C131.569 60.6729 131.804 60.0864 132.155 59.7333C132.506 59.3814 133.092 59.1456 133.561 59.1456C135.201 59.1456 136.724 58.5591 137.896 57.3849C138.949 56.2107 139.653 54.6846 139.653 53.1585H130.749C131.686 52.572 132.506 51.7497 133.091 50.8113C133.677 49.989 134.145 48.9333 134.263 47.7591L135.084 42.4771H126.415H117.864L118.567 47.7591C118.801 48.9333 119.152 49.989 119.856 50.8113C120.441 51.7509 121.262 52.572 122.198 53.1585H113.295C113.295 54.6846 113.88 56.2107 115.052 57.3849C116.224 58.5591 117.747 59.1456 119.27 59.1456C119.855 59.1456 120.323 59.3802 120.675 59.7333C121.144 60.0852 121.379 60.6729 121.379 61.1421V62.5509H123.37V69.5937C123.37 70.6506 123.136 71.7063 122.784 72.6459C122.316 73.5855 121.729 74.5239 120.91 75.2277C120.206 75.6981 119.738 76.4018 119.387 77.2229C119.035 77.9279 118.8 78.749 118.8 79.5701C118.8 80.3924 119.034 81.3308 119.387 82.0346C119.738 82.8569 120.207 83.4434 120.91 84.0299C121.729 84.7349 122.316 85.556 122.784 86.6129C123.135 87.5525 123.37 88.6082 123.37 89.6651V91.5431C123.37 92.6 123.136 93.6557 122.784 94.5953C122.316 95.6522 121.729 96.4733 120.91 97.1783C120.206 97.7648 119.738 98.3525 119.387 99.1736C119.035 99.8786 118.8 100.7 118.8 101.521C118.8 102.46 119.034 103.281 119.387 103.985C119.738 104.808 120.207 105.394 120.91 105.981C121.729 106.684 122.316 107.507 122.784 108.562C123.135 109.502 123.37 110.558 123.37 111.615C123.37 112.789 123.136 113.844 122.667 114.784C122.198 115.84 121.495 116.662 120.675 117.366C120.09 117.718 119.621 118.188 119.152 118.775C118.45 119.596 117.864 120.418 117.395 121.475C117.044 122.297 116.809 123.236 116.809 124.175C116.809 124.762 116.926 125.349 117.043 125.819H113.295C113.295 126.993 113.529 128.166 114.115 129.105C114.701 130.162 115.521 130.983 116.458 131.57C115.989 133.565 115.52 135.091 114.935 137.087C113.412 142.251 110.014 153.051 107.905 155.986C102.634 163.265 99.001 163.969 99.001 169.251C99.001 175.355 105.561 180.285 111.653 180.285H126.414H141.293C147.385 180.285 153.945 175.355 153.945 169.251C153.828 163.969 150.314 163.264 145.041 155.986L145.042 155.985Z" fill="#1EC186"/>
<path d="M102.516 184.51H92.7932V189.323H102.516V184.51Z" fill="#26D192"/>
<path d="M111.653 191.084C112.24 191.084 112.825 190.967 113.41 190.849C114.582 190.379 115.87 190.497 117.159 190.849C117.862 191.084 118.682 191.201 119.384 191.084C120.205 190.967 120.907 190.732 121.492 190.262C122.547 189.557 123.718 189.205 125.007 189.205H126.179V188.382H129.225C129.225 188.617 129.342 188.853 129.459 189.087C129.693 189.205 129.927 189.322 130.162 189.322H130.865V184.861H130.162C129.928 184.861 129.693 184.978 129.459 185.096C129.342 185.213 129.225 185.447 129.225 185.801H126.179V184.861H125.007C123.718 184.744 122.547 184.391 121.492 183.687C120.672 183.099 119.735 182.747 118.681 182.747C118.212 182.747 117.626 182.864 117.041 182.982C115.869 183.451 114.581 183.451 113.292 182.982C112.823 182.747 112.237 182.747 111.769 182.747C111.183 182.63 110.597 182.747 110.129 182.982C108.84 183.451 107.434 183.451 106.145 182.982C105.677 182.747 105.091 182.63 104.505 182.63C103.451 182.63 102.514 182.982 101.693 183.569C101.342 183.804 101.107 184.039 100.873 184.392C100.639 184.744 100.522 185.097 100.522 185.566V188.03C100.522 188.382 100.639 188.853 100.873 189.205C101.107 189.557 101.341 189.792 101.693 190.027C102.279 190.496 102.982 190.849 103.802 190.967C104.622 191.084 105.325 190.967 106.144 190.732C107.433 190.263 108.721 190.263 110.01 190.732C110.596 190.967 111.181 191.084 111.65 191.084H111.653Z" fill="#26D192"/>
</svg>
