<svg width="256" height="256" viewBox="0 0 256 256" fill="none" xmlns="http://www.w3.org/2000/svg">
<g clip-path="url(#clip0_741_46)">
<mask id="mask0_741_46" style="mask-type:alpha" maskUnits="userSpaceOnUse" x="1" y="1" width="254" height="254">
<circle cx="128" cy="128" r="127" fill="#E9CA7D"/>
</mask>
<g mask="url(#mask0_741_46)">
<path fill-rule="evenodd" clip-rule="evenodd" d="M128.387 342L115.648 338.402C96.5329 333.023 56.7568 321.82 10.7817 272.765L10.3883 272.338C-13.223 246.428 -27.5452 220.783 -34.7136 191.558C-41.095 165.567 -41.0469 139.931 -40.9893 112.789V104.632V-27.4237L128.526 -85L297.989 -27.4237V112.798C298.047 139.931 298.095 165.577 291.714 191.563C284.516 220.788 270.213 246.443 246.612 272.304L246.223 272.736C217.273 303.333 180.966 326.004 140.766 338.584L128.387 342ZM-26.2978 -16.4698V104.647V112.803C-26.3505 139.024 -26.3985 163.797 -20.4441 188.051C-13.2112 216.024 1.14565 241.646 21.2271 262.42L21.5582 262.775C64.6976 308.803 101.815 319.257 119.65 324.286L128.435 326.762L136.851 324.425C174.469 312.638 208.434 291.398 235.499 262.737L235.821 262.386C255.889 241.622 270.236 216.013 277.463 188.056C283.422 163.802 283.37 139.029 283.317 112.808V104.651V-16.4698L128.526 -68.869L-26.2978 -16.4698ZM158.706 143.89C158.706 140.557 156.147 138.348 151.029 137.264C144.008 136.287 136.934 135.743 129.846 135.637C112.921 134.94 100.659 132.733 93.059 129.016C89.409 127.612 86.2788 125.12 84.0928 121.878C81.9068 118.635 80.7707 114.799 80.8384 110.889C80.837 106.785 81.9799 102.762 84.1387 99.2717C86.2974 95.7815 89.3865 92.9622 93.059 91.1306C101.505 86.6992 110.871 84.3067 120.408 84.1447V43.5055C99.3463 45.4765 79.7781 55.2368 65.534 70.876C51.2899 86.5152 43.3952 106.907 43.3952 128.061C43.3952 149.215 51.2899 169.607 65.534 185.246C79.7781 200.885 99.3463 210.646 120.408 212.617V171.661C104.696 170.474 89.567 165.198 76.525 156.355L87.6996 142.642C101.01 151.062 116.418 155.573 132.168 155.659C138.879 155.94 145.577 154.833 151.84 152.406C153.703 151.838 155.353 150.724 156.577 149.208C157.801 147.693 158.543 145.845 158.706 143.904V143.89ZM213.596 128.023C213.545 106.89 205.633 86.5321 191.401 70.9102C177.169 55.2884 157.634 45.5199 136.597 43.5055V84.2359C151.033 84.6118 165.118 88.7659 177.448 96.2837L165.807 109.718C154.457 103.517 141.725 100.279 128.79 100.304C111.018 100.304 102.134 103.249 102.137 109.138C102.137 112.016 104.581 114.03 109.469 115.178C114.105 116.134 118.822 116.641 123.556 116.694C132.941 117.158 138.876 117.505 141.361 117.736C151.601 118.049 161.651 120.587 170.812 125.173C173.918 126.973 176.465 129.598 178.17 132.756C179.876 135.915 180.674 139.485 180.475 143.069C180.548 147.466 179.401 151.797 177.162 155.581C174.922 159.365 171.678 162.455 167.789 164.507C158.169 169.535 147.456 172.113 136.602 172.011V212.573C157.64 210.556 177.176 200.784 191.408 185.159C205.639 169.533 213.548 149.172 213.596 128.037V128.023ZM265.65 97.4496V-5.46795L136.582 -48.7125V27.2594C161.942 29.256 185.618 40.7398 202.885 59.42C220.153 78.1002 229.743 102.603 229.743 128.042C229.743 153.48 220.153 177.983 202.885 196.664C185.618 215.344 161.942 226.828 136.582 228.824V305.362C168.901 293.362 198.078 274.192 221.921 249.293C268.136 198.616 265.65 160.169 265.65 97.464V97.4496ZM120.408 228.81C95.048 226.813 71.3728 215.329 54.1053 196.649C36.8379 177.969 27.2475 153.466 27.2475 128.027C27.2475 102.589 36.8379 78.0858 54.1053 59.4056C71.3728 40.7254 95.048 29.2416 120.408 27.245V-48.7125L-8.66008 -5.46795V97.464C-8.66008 160.169 -11.1454 198.616 35.0552 249.293C71.0887 287.734 101.269 299.864 120.398 305.717V228.824L120.408 228.81Z" fill="#54F626"/>
</g>
</g>
<defs>
<clipPath id="clip0_741_46">
<rect width="256" height="256" fill="white"/>
</clipPath>
</defs>
</svg>
