<svg width="490" height="503" viewBox="0 0 490 503" fill="none" xmlns="http://www.w3.org/2000/svg">
<path d="M244.6 0.5H245C379.9 0.5 489.3 109.9 489.3 244.8V258.4C489.3 393.3 379.9 502.7 245 502.7H244.6C109.7 502.7 0.299805 393.3 0.299805 258.4V244.8C0.299805 109.9 109.7 0.5 244.6 0.5Z" fill="#232323"/>
<path d="M349.3 189.5C348.5 190.4 347.5 191.1 346.4 191.5C345.3 192 344.1 192.2 342.9 192.2H116.4C108.4 192.2 104.3 182.2 109.9 176.2L147.1 136.7C147.9 135.8 148.9 135.1 150.1 134.6C151.2 134.1 152.4 133.9 153.6 133.9H381C389.1 133.9 393.1 144 387.4 150L349.3 189.5ZM349.3 366.1C347.6 367.8 345.3 368.8 342.9 368.8H116.4C108.4 368.8 104.3 359 109.9 353.2L147.1 314.6C147.9 313.7 149 313 150.1 312.6C151.2 312.1 152.4 311.9 153.6 311.9H381C389.1 311.9 393.1 321.8 387.4 327.6L349.3 366.1ZM349.3 225.6C347.6 223.9 345.3 222.9 342.9 222.9H116.4C108.4 222.9 104.3 232.7 109.9 238.5L147.1 277.1C147.9 278 149 278.7 150.1 279.1C151.2 279.6 152.4 279.8 153.6 279.8H381C389.1 279.8 393.1 269.9 387.4 264.1L349.3 225.6Z" fill="url(#paint0_linear_435_401)"/>
<defs>
<linearGradient id="paint0_linear_435_401" x1="124.604" y1="371.732" x2="372.039" y2="130.834" gradientUnits="userSpaceOnUse">
<stop stop-color="#CF41E8"/>
<stop offset="1" stop-color="#10F2B0"/>
</linearGradient>
</defs>
</svg>
