<svg width="256" height="256" viewBox="0 0 256 256" fill="none" xmlns="http://www.w3.org/2000/svg">
<mask id="mask0_741_46" style="mask-type:luminance" maskUnits="userSpaceOnUse" x="2" y="3" width="250" height="250">
<path d="M252 3H2V253H252V3Z" fill="white"/>
</mask>
<g mask="url(#mask0_741_46)">
<mask id="mask1_741_46" style="mask-type:luminance" maskUnits="userSpaceOnUse" x="2" y="3" width="250" height="250">
<path d="M252 3H2V253H252V3Z" fill="white"/>
</mask>
<g mask="url(#mask1_741_46)">
<path d="M127 248C103.266 248.001 80.064 240.964 60.3293 227.778C40.5945 214.592 25.2132 195.85 16.1303 173.923C7.04742 151.995 4.67102 127.866 9.3016 104.588C13.9322 81.3098 25.3618 59.9275 42.145 43.1452C64.6499 20.6402 95.1732 7.99707 127 7.99707C158.827 7.99707 189.35 20.6402 211.855 43.1452C234.36 65.6501 247.003 96.1734 247.003 128C247.003 159.827 234.36 190.35 211.855 212.855C200.737 224.032 187.512 232.893 172.947 238.926C158.382 244.958 142.765 248.043 127 248Z" fill="black"/>
<path d="M127 13C153.532 13.016 179.242 22.203 199.775 39.0045C220.309 55.8061 234.403 79.1892 239.671 105.193C244.938 131.196 241.055 158.221 228.678 181.689C216.302 205.157 196.194 223.625 171.76 233.965C143.706 245.563 112.204 245.602 84.122 234.072C56.0398 222.542 33.6537 200.378 21.8436 172.413C10.0334 144.447 9.75682 112.947 21.074 84.7781C32.3912 56.6094 54.3845 34.0563 82.26 22.035C96.4138 16.0446 111.631 12.9716 127 13ZM127 3C57.965 3 2 58.965 2 128C2 197.035 57.965 253 127 253C196.035 253 252 197.035 252 128C252 58.965 196.035 3 127 3Z" fill="#FBB400"/>
</g>
<mask id="mask2_741_46" style="mask-type:luminance" maskUnits="userSpaceOnUse" x="2" y="3" width="250" height="250">
<path d="M82.24 233.965C55.8636 222.864 34.5531 202.359 22.4459 176.429C10.3387 150.499 8.29863 120.995 16.7218 93.6459C25.145 66.2965 43.4305 43.0529 68.028 28.4276C92.6256 13.8023 121.78 8.83903 149.832 14.5013C177.883 20.1636 202.829 36.0474 219.828 59.069C236.826 82.0906 244.664 110.607 241.818 139.083C238.973 167.558 225.648 193.96 204.431 213.163C183.213 232.366 155.617 243 127 243C111.625 243.018 96.4038 239.946 82.24 233.965ZM127 3C57.965 3 2 58.965 2 128C2 197.035 57.965 253 127 253C196.035 253 252 197.035 252 128C252 58.965 196.035 3 127 3Z" fill="white"/>
</mask>
<g mask="url(#mask2_741_46)">
<path d="M127.005 -122.001L-122.996 128L127.005 378.001L377.006 128L127.005 -122.001Z" fill="url(#paint0_linear_741_46)"/>
</g>
<mask id="mask3_741_46" style="mask-type:luminance" maskUnits="userSpaceOnUse" x="67" y="64" width="120" height="128">
<path d="M186.83 64.4902H67.17V191.505H186.83V64.4902Z" fill="white"/>
</mask>
<g mask="url(#mask3_741_46)">
<path d="M111.03 161.475L96.04 190L95.245 191.51H127L111.125 161.3L111.03 161.475Z" fill="white"/>
<path d="M79.9699 144.5L79.3699 142.65L78.6049 145L67.1699 180.2C69.3429 183.662 72.36 186.515 75.9379 188.492C79.5158 190.468 83.5373 191.504 87.6249 191.5H95.2449L94.8849 190.385L79.9699 144.5Z" fill="white"/>
<path d="M142.97 161.475L142.875 161.3L127 191.51H158.755L157.96 190L142.97 161.475Z" fill="white"/>
<path d="M174.63 142.629L174.03 144.479L159.115 190.394L158.755 191.509H166.375C170.465 191.51 174.488 190.472 178.066 188.49C181.644 186.509 184.66 183.651 186.83 180.184L175.395 144.999L174.63 142.629Z" fill="white"/>
<path d="M111.03 94.5252L111.125 94.7002L127 64.4902H95.245L96.04 66.0002L111.03 94.5252Z" fill="white"/>
<path d="M142.97 94.5252L157.96 66.0002L158.755 64.4902H127L142.875 94.7002L142.97 94.5252Z" fill="white"/>
<path d="M79.37 113.37L79.97 111.52L94.885 65.6052L95.245 64.4902H87.625C83.535 64.4893 79.512 65.5281 75.9339 67.5092C72.3557 69.4902 69.34 72.3484 67.17 75.8152L78.605 111L79.37 113.37Z" fill="white"/>
<path d="M174.03 111.5L174.63 113.35L175.395 110.995L186.83 75.795C184.656 72.3338 181.639 69.4815 178.061 67.5058C174.483 65.5302 170.462 64.4959 166.375 64.5H158.755L159.115 65.615L174.03 111.5Z" fill="white"/>
</g>
</g>
<defs>
<linearGradient id="paint0_linear_741_46" x1="38.2032" y1="215.469" x2="214.98" y2="38.6924" gradientUnits="userSpaceOnUse">
<stop stop-color="#FFCF00"/>
<stop offset="1" stop-color="#FF6A00"/>
</linearGradient>
</defs>
</svg>
