<svg width="409" height="409" viewBox="0 0 409 409" fill="none" xmlns="http://www.w3.org/2000/svg">
<g clip-path="url(#clip0_1413_138)">
<path d="M204.181 397.372C310.139 397.372 396.035 311.476 396.035 205.518C396.035 99.5596 310.139 13.6636 204.181 13.6636C98.2227 13.6636 12.3267 99.5596 12.3267 205.518C12.3267 311.476 98.2227 397.372 204.181 397.372Z" fill="black"/>
<path fill-rule="evenodd" clip-rule="evenodd" d="M204.5 390.822C307.402 390.822 390.822 307.402 390.822 204.5C390.822 101.598 307.402 18.1778 204.5 18.1778C101.598 18.1778 18.1778 101.598 18.1778 204.5C18.1778 307.402 101.598 390.822 204.5 390.822ZM409 204.5C409 317.443 317.443 409 204.5 409C91.5572 409 0 317.443 0 204.5C0 91.5572 91.5572 0 204.5 0C317.443 0 409 91.5572 409 204.5Z" fill="#DB2877"/>
<path d="M242.424 51.0581L250.673 165.602L362.148 193.142L255.763 236.382L264.012 350.926L190.029 263.103L83.644 306.365L144.29 208.843L70.2834 121.02L181.759 148.581L242.427 51.0581H242.424Z" fill="#DB2877"/>
</g>
<defs>
<clipPath id="clip0_1413_138">
<rect width="409" height="409" fill="white"/>
</clipPath>
</defs>
</svg>
