<svg width="256" height="256" viewBox="0 0 256 256" fill="none" xmlns="http://www.w3.org/2000/svg">
<g clip-path="url(#clip0_741_46)">
<path d="M256 128C256 198.692 198.692 256 128 256C57.3075 256 0 198.692 0 128C0 57.3075 57.3075 0 128 0C198.692 0 256 57.3075 256 128Z" fill="#8C31DB"/>
<path d="M127.314 14.4474C128.357 13.8509 129.642 13.8509 130.686 14.4474L228.314 70.2777C229.357 70.8741 230 71.9767 230 73.1698V184.83C230 186.023 229.357 187.126 228.314 187.722L130.686 243.553C129.642 244.149 128.357 244.149 127.314 243.553L29.6858 187.722C28.6426 187.126 28 186.023 28 184.83V73.1698C28 71.9767 28.6426 70.8741 29.6858 70.2777L127.314 14.4474Z" fill="url(#paint0_linear_741_46)"/>
<path d="M105.185 76C113.439 101.27 121.704 126.528 130 151.915C129.413 151.948 128.986 151.99 128.569 151.99C111.485 151.99 94.4012 152.012 77.3173 151.99C64.8353 151.969 55.3322 142.061 56.0368 129.577C56.4748 121.891 60.1263 115.997 66.9601 112.337C78.9296 105.928 90.9417 99.6162 102.954 93.2829C103.701 92.8857 104 92.4347 104.032 91.5761C104.267 86.3912 104.588 81.2063 104.865 76.0217C104.972 76.0217 105.079 76.0217 105.175 76.0217L105.185 76ZM117.091 131.444C114.977 124.971 112.916 118.681 110.834 112.348C110.513 112.476 110.332 112.541 110.161 112.627C102.943 116.384 95.7571 120.227 88.486 123.877C83.6918 126.292 79.2604 129.823 73.4092 129.276C73.3665 129.276 73.2917 129.276 73.2704 129.297C72.9395 129.62 72.3308 130.006 72.3734 130.264C72.4483 130.682 72.8966 131.165 73.313 131.369C73.7187 131.562 74.2742 131.444 74.7761 131.444H117.091Z" fill="white"/>
<path d="M128 106H129.898C146.862 106 163.827 106 180.791 106C190.579 106 198.843 112.424 201.317 121.925C203.758 131.287 199.504 141.121 190.995 145.635C179.117 151.952 167.217 158.258 155.307 164.52C154.348 165.024 153.964 165.603 153.921 166.687C153.708 171.77 153.42 176.853 152.844 182C144.591 156.756 136.338 131.512 128.011 106H128ZM140.923 126.515C143.056 133.035 145.103 139.298 147.172 145.635C147.694 145.378 148.046 145.217 148.387 145.046C157.557 140.263 166.738 135.491 175.897 130.686C178.211 129.475 180.578 128.66 183.222 128.724C184.128 128.745 185.504 129.121 185.525 127.641C185.547 126.15 184.16 126.536 183.243 126.536C169.744 126.515 156.245 126.526 142.746 126.526H140.923V126.515Z" fill="white"/>
<path d="M136 86V72H146V86H136Z" fill="white"/>
<path d="M112 184V170H124V184H112Z" fill="white"/>
</g>
<defs>
<linearGradient id="paint0_linear_741_46" x1="129" y1="13.4834" x2="129" y2="244.517" gradientUnits="userSpaceOnUse">
<stop stop-color="#760CB7"/>
</linearGradient>
<clipPath id="clip0_741_46">
<rect width="256" height="256" fill="white"/>
</clipPath>
</defs>
</svg>
