<svg width="256" height="256" viewBox="0 0 256 256" fill="none" xmlns="http://www.w3.org/2000/svg">
<g clip-path="url(#clip0_741_46)">
<path d="M127.5 229C183.557 229 229 183.557 229 127.5C229 71.4429 183.557 26 127.5 26C71.4431 26 26 71.4429 26 127.5C26 183.557 71.4431 229 127.5 229Z" fill="#2E3148"/>
<path d="M127.5 185C159.809 185 186 158.585 186 126C186 93.4153 159.809 67 127.5 67C95.1913 67 69 93.4153 69 126C69 158.585 95.1913 185 127.5 185Z" fill="#1B1E36"/>
<path d="M256 127C256 143.94 252.676 160.715 246.219 176.365C239.761 192.017 230.296 206.237 218.364 218.216C206.431 230.195 192.266 239.698 176.675 246.18C161.085 252.664 144.375 256 127.5 256C110.625 256 93.9158 252.664 78.3255 246.18C62.735 239.698 48.5692 230.195 36.6369 218.216C24.7046 206.237 15.2392 192.017 8.7815 176.365C2.32376 160.715 -1 143.94 -1 127H29.7983C29.7983 139.88 32.3254 152.634 37.2354 164.534C42.1454 176.434 49.3421 187.246 58.4145 196.354C67.487 205.461 78.2577 212.687 90.1114 217.616C101.965 222.545 114.67 225.082 127.5 225.082C140.331 225.082 153.036 222.545 164.889 217.616C176.743 212.687 187.514 205.461 196.586 196.354C205.659 187.246 212.856 176.434 217.766 164.534C222.676 152.634 225.203 139.88 225.203 127H256Z" fill="#C73238"/>
<path d="M229 127C229 140.395 226.375 153.658 221.274 166.033C216.173 178.409 208.696 189.653 199.271 199.125C189.847 208.597 178.656 216.11 166.343 221.236C154.028 226.362 140.829 229 127.5 229C114.171 229 100.972 226.362 88.6577 221.236C76.3432 216.11 65.1539 208.597 55.7287 199.125C46.3036 189.653 38.8272 178.409 33.7262 166.033C28.6254 153.658 26 140.395 26 127H127.5H229Z" fill="#070B09"/>
<path d="M125.5 39C114.732 39 106 77.7273 106 125.5C106 173.272 114.732 212 125.5 212C136.268 212 145 173.272 145 125.5C145 77.7273 136.268 39 125.5 39ZM126.846 207.119C125.615 208.747 124.384 207.526 124.384 207.526C119.424 201.827 116.945 191.242 116.945 191.242C108.271 163.563 110.335 104.133 110.335 104.133C114.412 56.9512 121.827 45.8055 124.351 43.3309C124.608 43.0784 124.948 42.9241 125.309 42.8952C125.67 42.8662 126.03 42.9644 126.325 43.1727C129.987 45.7452 133.058 56.5041 133.058 56.5041C142.126 89.8827 141.305 121.226 141.305 121.226C142.126 148.499 136.761 179.028 136.761 179.028C132.631 202.23 126.846 207.119 126.846 207.119Z" fill="white"/>
<path d="M200.378 82.1511C195.073 72.9282 157.253 84.6388 115.879 108.304C74.5049 131.969 45.3204 158.632 50.6217 167.85C55.9231 177.07 93.7471 165.363 135.121 141.698C176.495 118.033 205.68 91.37 200.378 82.1511ZM55.5163 166.586C53.4853 166.331 53.944 164.665 53.944 164.665C56.4355 157.598 64.3643 150.231 64.3643 150.231C84.0621 129.092 136.527 101.419 136.527 101.419C179.372 81.5351 192.681 82.374 196.057 83.3012C196.403 83.3976 196.704 83.6133 196.907 83.9102C197.109 84.2069 197.199 84.5655 197.162 84.9224C196.756 89.3336 188.936 97.2898 188.936 97.2898C164.524 121.599 136.986 136.425 136.986 136.425C113.782 150.644 84.7128 161.168 84.7128 161.168C62.5938 169.118 55.5163 166.586 55.5163 166.586Z" fill="white"/>
<path d="M200.366 168.86C205.724 159.618 176.545 132.706 135.218 108.75C93.8925 84.7932 55.9878 72.8815 50.6335 82.1393C45.2793 91.3972 74.4544 118.293 115.804 142.25C157.154 166.206 195.011 178.119 200.366 168.86ZM54.1845 85.7106C53.3931 83.8339 55.064 83.382 55.064 83.382C62.4621 81.985 72.854 85.1684 72.854 85.1684C101.125 91.6054 151.537 123.179 151.537 123.179C190.35 150.335 196.303 162.297 197.194 165.692C197.286 166.041 197.25 166.41 197.096 166.734C196.94 167.06 196.676 167.319 196.347 167.468C192.3 169.321 181.461 166.56 181.461 166.56C148.05 157.603 121.331 141.191 121.331 141.191C97.3232 128.244 73.5838 108.323 73.5838 108.323C55.5453 93.137 54.1901 85.7311 54.1901 85.7311L54.1845 85.7106Z" fill="white"/>
<path d="M125.5 135C131.299 135 136 130.523 136 125C136 119.477 131.299 115 125.5 115C119.701 115 115 119.477 115 125C115 130.523 119.701 135 125.5 135Z" fill="white"/>
<path d="M167 92C170.314 92 173 89.3137 173 85.9999C173 82.6862 170.314 80 167 80C163.686 80 161 82.6862 161 85.9999C161 89.3137 163.686 92 167 92Z" fill="white"/>
<path d="M70 113C73.3136 113 76 110.09 76 106.5C76 102.91 73.3136 100 70 100C66.6863 100 64 102.91 64 106.5C64 110.09 66.6863 113 70 113Z" fill="white"/>
<path d="M113 188C116.314 188 119 185.09 119 181.5C119 177.91 116.314 175 113 175C109.686 175 107 177.91 107 181.5C107 185.09 109.686 188 113 188Z" fill="white"/>
</g>
<defs>
<clipPath id="clip0_741_46">
<rect width="256" height="256" fill="white"/>
</clipPath>
</defs>
</svg>
