<svg width="256" height="256" viewBox="0 0 256 256" fill="none" xmlns="http://www.w3.org/2000/svg">
<g clip-path="url(#clip0_2859_144)">
<path d="M128 256C198.692 256 256 198.692 256 128C256 57.3075 198.692 0 128 0C57.3075 0 0 57.3075 0 128C0 198.692 57.3075 256 128 256Z" fill="#00847B"/>
<path fill-rule="evenodd" clip-rule="evenodd" d="M153.881 168.939C153.881 182.784 142.686 193.987 128.903 193.987C115.12 193.987 103.925 182.784 103.925 168.939C103.925 164.973 104.84 161.236 106.466 157.915L95.9303 149.307L95.6853 149.162C92.2439 154.956 90.2693 161.727 90.2693 168.939C90.2693 190.307 107.554 207.65 128.903 207.65C150.251 207.65 167.536 190.307 167.536 168.939C167.536 147.57 150.251 130.227 128.903 130.227H35L59.8616 149.962V143.89H128.903C142.686 143.89 153.881 155.093 153.881 168.939Z" fill="white"/>
<path fill-rule="evenodd" clip-rule="evenodd" d="M101.662 87.7115C101.662 73.8659 112.856 62.6629 126.639 62.6629C140.423 62.6629 151.617 73.8659 151.617 87.7115C151.617 91.6778 150.703 95.4146 149.076 98.7354L159.612 107.343L159.857 107.488C163.298 101.694 165.273 94.9234 165.273 87.7115C165.273 66.3434 147.988 49 126.639 49C105.291 49 88.0059 66.3434 88.0059 87.7115C88.0059 109.08 105.291 126.423 126.639 126.423H220.542L195.681 106.688V112.76H126.639C112.856 112.76 101.662 101.557 101.662 87.7115Z" fill="white"/>
</g>
<defs>
<clipPath id="clip0_2859_144">
<rect width="256" height="256" fill="white"/>
</clipPath>
</defs>
</svg>
