<svg width="256" height="256" viewBox="0 0 256 256" fill="none" xmlns="http://www.w3.org/2000/svg">
<path d="M254 128C254 197.588 197.588 254 128 254C58.4121 254 2 197.588 2 128C2 58.4121 58.4121 2 128 2C197.588 2 254 58.4121 254 128Z" fill="black"/>
<path d="M10.5449 50.8457H75.7683V66.7539H10.5449V50.8457Z" fill="#00ECFA"/>
<path d="M7.36316 192.958H72.5867V208.866H7.36316V192.958Z" fill="#00ECFA"/>
<path d="M33.3466 218.941H98.5698V234.85H33.3466V218.941Z" fill="#00ECFA"/>
<path fill-rule="evenodd" clip-rule="evenodd" d="M147.885 2.5477C141.406 1.52897 134.765 1 128 1C57.8603 1 1 57.8598 1 128C1 198.14 57.8603 255 128 255C171.008 255 209.023 233.622 231.998 200.912H225.305V185.004H241.519C250.144 167.862 255 148.498 255 128C255 93.6931 241.396 62.5632 219.29 39.7098H175.459V23.8017H200.626C194.872 19.7841 188.77 16.2308 182.374 13.1963H147.885V2.5477ZM94.7419 99.6993C97.6708 101.86 99.3293 104.89 99.7152 108.792H119.756C119.66 102.892 118.082 97.7001 115.024 93.2179C111.966 88.7362 107.684 85.2377 102.178 82.7225C96.7059 80.2073 90.2989 78.9497 82.9592 78.9497C75.7474 78.9497 69.3086 80.2073 63.6432 82.7225C57.9774 85.2377 53.5185 88.7362 50.2666 93.2179C47.0477 97.7001 45.4537 102.94 45.4858 108.937C45.4537 116.257 47.8524 122.077 52.6816 126.398C57.51 130.719 64.0942 133.895 72.4325 135.926L83.2003 138.635C84.4112 138.927 85.5587 139.23 86.6422 139.544L87.3347 139.749C87.5966 139.828 87.8536 139.908 88.1076 139.988H90.593C92.1458 140.479 93.5522 140.995 94.8133 141.536C97.324 142.601 99.2236 143.89 100.511 145.406C101.346 146.364 101.917 147.465 102.224 148.707H99.739C99.9171 149.429 100.006 150.199 100.006 151.016C100.006 153.402 99.2816 155.514 97.8335 157.352C96.3844 159.19 94.34 160.626 91.7003 161.657C89.0924 162.689 86.0186 163.205 82.4764 163.205C78.8713 163.205 75.6358 162.657 72.7709 161.56C69.9372 160.432 67.6681 158.771 65.9615 156.579C64.3631 154.455 63.426 151.831 63.1472 148.707H65.6331C65.6197 148.559 65.6083 148.41 65.5979 148.259H45.3647L45.376 148.707H42.8914C43.1131 155.636 44.8313 161.469 48.0461 166.204C51.3624 171.008 55.9657 174.635 61.8568 177.086C67.7812 179.537 74.7344 180.762 82.7185 180.762C90.7672 180.762 97.6401 179.553 103.338 177.135C109.069 174.684 113.447 171.25 116.473 166.832C119.531 162.383 121.077 157.127 121.109 151.065C121.102 150.261 121.069 149.475 121.008 148.707H123.492C123.24 145.53 122.517 142.656 121.324 140.085L121.279 139.988H118.794C117.348 136.837 115.318 134.097 112.706 131.766C110.066 129.412 106.943 127.429 103.337 125.817C99.7321 124.205 95.7728 122.916 91.4577 121.948L82.5727 119.82C80.4152 119.336 78.3876 118.756 76.4881 118.079C74.5886 117.369 72.9147 116.547 71.4662 115.612C70.0171 114.645 68.8746 113.5 68.0381 112.178C67.233 110.856 66.8624 109.308 66.9264 107.535C66.9264 105.406 67.5386 103.504 68.7619 101.828C70.0171 100.151 71.8204 98.8446 74.1704 97.9099C76.5203 96.9425 79.4017 96.4589 82.8138 96.4589C87.8362 96.4589 91.8119 97.5389 94.7419 99.6993ZM157.186 180.742V166.243H149.925V144.425H142.706V122.606H135.485V100.768H128.265V78.9497H142.706V100.768H149.925V122.587H157.186V144.405H164.405V158.964H171.626V144.405H178.885V122.587H186.106V100.768H193.326V78.9497H207.806V100.768H200.546V122.587H193.326V144.405H186.106V166.223H178.885V180.742H157.186Z" fill="#00ECFA"/>
</svg>
