<svg width="256" height="256" viewBox="0 0 256 256" fill="none" xmlns="http://www.w3.org/2000/svg">
<g clip-path="url(#clip0_2854_85)">
<path d="M128 256C198.692 256 256 198.692 256 128C256 57.3075 198.692 0 128 0C57.3075 0 0 57.3075 0 128C0 198.692 57.3075 256 128 256Z" fill="white"/>
<path d="M142.211 174.259V115.354C142.165 108.259 139.319 101.47 134.292 96.4667C129.266 91.4636 122.467 88.6522 115.379 88.6455V182.784C115.34 186.133 115.983 189.454 117.269 192.546C118.555 195.638 120.457 198.435 122.858 200.767C125.26 203.099 128.111 204.916 131.238 206.109C134.365 207.301 137.702 207.843 141.045 207.702C147.562 208.146 154.026 206.271 159.296 202.408C143.806 200.767 142.218 191.425 142.218 174.259H142.211Z" fill="black"/>
<path d="M85.4671 64C78.9631 64.0428 72.7402 66.659 68.1563 71.2775C63.5724 75.896 60.9999 82.1419 61 88.652H170.489C176.993 88.6092 183.216 85.993 187.8 81.3745C192.384 76.756 194.957 70.5101 194.956 64H85.4671Z" fill="black"/>
</g>
<defs>
<clipPath id="clip0_2854_85">
<rect width="256" height="256" fill="white"/>
</clipPath>
</defs>
</svg>
