<svg width="256" height="256" viewBox="0 0 256 256" fill="none" xmlns="http://www.w3.org/2000/svg">
<g clip-path="url(#clip0_1552_517)">
<path d="M256 128C256 57.3075 198.692 0 128 0C57.3075 0 0 57.3075 0 128C0 198.692 57.3075 256 128 256C198.692 256 256 198.692 256 128Z" fill="#101828"/>
<path d="M123.001 89.7656V116.31C116.193 122.386 109.414 128.206 102.531 132.935V89.7656H123.001Z" fill="white"/>
<path d="M153.954 125.312V167.988H133.484V142.056C142.717 133.707 153.61 125.552 153.954 125.312Z" fill="white"/>
<path d="M90.8824 149.609C90.1344 150.043 89.3416 150.462 88.5184 150.851C84.224 152.826 79.1814 153.889 73.3906 153.993C79.4059 153.829 85.212 152.228 90.8824 149.624V149.609Z" fill="#FF0000"/>
<path d="M224 120.142V167.994H203.53V123.762C203.53 117.149 201.929 112.301 198.727 109.203C195.54 106.106 190.318 104.565 183.075 104.565C182.746 104.565 182.387 104.565 182.058 104.565C178.347 104.654 174.89 105.253 171.688 106.33H171.674C165.643 108.17 159.762 111.328 153.971 115.308C153.582 115.578 142.525 123.897 133.502 132.052C130.015 135.21 126.514 138.426 122.998 141.598C116.398 147.554 109.74 153.285 102.917 158.014C92.8912 164.957 82.492 169.715 71.3739 169.715C70.4911 169.715 69.6531 169.685 68.8451 169.64C67.8725 169.685 66.87 169.715 65.8525 169.715C58.0865 169.715 51.0238 168.009 44.6943 164.598C38.3349 161.186 33.3072 156.412 29.5813 150.278C25.8554 144.142 24 137.02 24 128.94C24 120.859 25.8854 113.468 29.6562 107.362C33.4269 101.287 38.5594 96.544 45.0086 93.1328C51.4427 89.7056 58.7898 88.0152 66.9598 88.0152C75.9826 88.0152 83.2552 89.8408 88.7616 93.4616C90.4672 94.584 92.0384 95.8256 93.46 97.2024V109.697C91.9632 108.605 90.2872 107.647 88.4472 106.839C83.9728 104.894 78.6611 103.936 72.4662 103.936C63.7726 103.936 56.9942 106.21 52.176 110.774C47.3428 115.338 44.9337 121.398 44.9337 128.94C44.9337 133.967 46.0859 138.366 48.3902 142.093C50.6946 145.803 53.9266 148.722 58.0566 150.831C62.2014 152.911 67.0046 153.974 72.4513 153.974C72.7655 153.974 73.0798 153.974 73.394 153.974C79.1848 153.869 84.2272 152.821 88.5216 150.831C89.3448 150.442 90.1376 150.023 90.8864 149.589C90.9008 149.574 90.9312 149.559 90.9456 149.544C94.8064 147.763 98.6224 145.504 102.393 142.901C102.438 142.886 102.468 142.856 102.528 142.81C109.41 138.082 116.189 132.262 122.998 126.186C126.484 123.074 129.986 119.902 133.502 116.79C140.175 110.864 146.954 105.148 153.971 100.374C164.715 93.0728 176.013 88.0296 188.358 88.0296C189.001 88.0152 189.659 88 190.318 88C195.15 88 199.61 88.6288 203.694 89.8856C207.794 91.1424 211.356 93.0728 214.394 95.7064C217.446 98.34 219.795 101.677 221.471 105.702C223.147 109.742 224 114.545 224 120.096V120.142Z" fill="#D0F500"/>
<path opacity="0.57" d="M182.057 104.578C178.541 104.683 175.084 105.296 171.687 106.344C174.905 105.266 178.346 104.668 182.057 104.578Z" fill="#FF0000"/>
</g>
<defs>
<clipPath id="clip0_1552_517">
<rect width="256" height="256" fill="white"/>
</clipPath>
</defs>
</svg>
