<svg width="256" height="256" viewBox="0 0 256 256" fill="none" xmlns="http://www.w3.org/2000/svg">
<circle cx="127" cy="128" r="125" fill="black"/>
<path d="M135 88.0093V196H151.206V94.502L169.637 76.6751H213V61H162.915L135 88.0093Z" fill="#F8F8F8"/>
<path d="M166 103.054V196H182.171V106.667H213V91H178.449L166 103.054Z" fill="#F8F8F8"/>
<path d="M43 76V91.6687H86.3673L104.786 109.488V196H121V102.998L93.0791 76H43Z" fill="#F8F8F8"/>
<path d="M43 106V121.656H73.7466V196H90V118.045L77.5541 106H43Z" fill="#F8F8F8"/>
<path d="M205 121C200.579 121 197 124.355 197 128.5C197 132.645 200.579 136 205 136C209.421 136 213 132.645 213 128.5C213 124.355 209.421 121 205 121Z" fill="#F8F8F8"/>
</svg>
