<svg width="256" height="256" viewBox="0 0 256 256" fill="none" xmlns="http://www.w3.org/2000/svg">
<g clip-path="url(#clip0_741_46)">
<circle cx="128" cy="128" r="128" fill="white"/>
<path d="M176.58 72C170.287 72 164.519 75.3487 161.416 80.7415L122.035 148.542H92.6777V183.335H132.179C138.426 183.335 144.199 180.016 147.32 174.629L186.631 106.792H215.909V72H176.58Z" fill="#1A5AFF"/>
<path d="M71.1815 183.335L41 165.982L90.2023 80.7415C93.2855 75.3487 99.0181 72 105.272 72H144.355V106.792H115.26L71.1815 183.335Z" fill="#1A5AFF"/>
<path d="M44.9752 72V107.786C64.7419 107.786 80.752 91.7718 80.752 72H44.9752Z" fill="#1A5AFF"/>
<path d="M198.021 163.454C207.9 163.454 215.909 155.443 215.909 145.561C215.909 135.678 207.9 127.667 198.021 127.667C188.141 127.667 180.132 135.678 180.132 145.561C180.132 155.443 188.141 163.454 198.021 163.454Z" fill="#1A5AFF"/>
</g>
<defs>
<clipPath id="clip0_741_46">
<rect width="256" height="256" fill="white"/>
</clipPath>
</defs>
</svg>
