<svg width="256" height="256" viewBox="0 0 256 256" fill="none" xmlns="http://www.w3.org/2000/svg">
<g clip-path="url(#clip0_741_46)">
<circle cx="128" cy="128" r="128" fill="url(#paint0_radial_741_46)"/>
<path d="M82.2886 100.721C82.0618 94.0559 81.5174 87.3 82.1525 80.6809C82.7875 74.0162 84.7379 67.3058 88.9564 62.1019C91.2697 59.226 94.218 56.9435 97.121 54.6611C101.657 51.1461 106.284 47.6312 111.681 45.5313C125.38 40.2361 141.528 45.8965 151.779 56.4414C153.956 58.6782 155.907 61.1432 157.494 63.8365C163.618 74.2444 163.436 87.0719 163.074 99.1685C162.302 126.375 161.667 153.582 161.123 180.789C141.573 181.793 121.978 181.656 102.473 180.332C96.3046 179.921 90.0904 179.419 84.1029 177.73C82.8329 177.365 82.1525 177.319 82.0164 175.95C81.8803 174.352 81.7442 172.754 81.6082 171.157C81.3814 167.961 81.2453 164.721 81.1999 161.525C81.0638 155.043 81.1999 148.561 81.4267 142.079C81.6535 135.597 81.971 129.114 82.1978 122.586C82.4246 116.059 82.5607 109.577 82.3793 103.049C82.3339 102.318 82.2886 101.542 82.2886 100.721Z" fill="white" stroke="black" stroke-width="0.5" stroke-miterlimit="10"/>
<path d="M70.8578 207.266C101.838 210.735 133 211.876 164.117 213.017C164.162 205.896 163.663 198.729 162.574 191.653C154.455 192.795 146.245 192.338 138.08 191.882C131.322 191.471 124.563 191.106 117.805 190.741C113.45 190.512 109.05 190.238 104.696 190.01C100.296 189.782 95.8961 189.554 91.4963 189.326C87.0965 189.097 82.6512 188.915 78.2514 188.778C76.0288 188.686 73.8516 188.641 71.6289 188.595C70.8578 188.595 70.1774 188.504 70.0414 189.371C69.9053 190.33 70.0867 191.425 70.1321 192.384C70.3589 196.812 70.5403 201.194 70.7671 205.622C70.7671 206.17 70.8125 206.718 70.8578 207.266Z" fill="#E0E3BD" stroke="black" stroke-width="0.5" stroke-miterlimit="10.0004"/>
<path d="M77.3894 180.972C78.2965 180.104 79.2491 179.191 80.4738 178.78C81.517 178.416 82.651 178.461 83.785 178.461C105.24 179.146 126.695 179.876 148.105 180.652C151.144 180.743 154.183 180.88 157.177 181.246C157.993 181.337 158.809 181.474 159.444 182.022C159.943 182.478 160.261 183.117 160.488 183.802C161.757 187.089 162.529 190.512 162.846 194.027C156.043 191.151 148.241 193.023 140.892 192.475C137.626 192.247 134.451 191.517 131.185 191.106C123.746 190.147 116.217 190.877 108.687 190.923C100.659 190.969 92.63 190.193 84.6014 189.462C81.2902 189.143 77.979 188.823 74.7131 188.549C73.942 188.458 71.1298 188.641 70.9937 187.545C70.903 186.541 72.808 185.263 73.3977 184.715C74.7585 183.437 76.0739 182.204 77.3894 180.972Z" fill="#E0E3BD" stroke="black" stroke-width="0.5" stroke-miterlimit="10.0004"/>
<path d="M162.756 92.687C163.073 87.9849 163.436 83.2832 162.71 78.627C161.486 70.958 157.358 64.0194 152.232 58.2676C147.107 52.5159 140.847 47.8141 134.724 43.2035C148.921 41.7884 164.57 46.0338 172.961 57.6286C180.899 68.5386 180.763 83.1919 180.355 96.7041C179.539 122.587 178.722 148.424 177.906 174.307C173.551 176.772 168.879 178.644 164.026 179.876C162.937 180.15 161.395 180.424 160.624 179.42C159.989 178.598 160.17 177.685 160.261 176.726C160.533 173.85 160.261 170.792 160.261 167.87C160.261 161.754 160.306 155.682 160.397 149.611C160.488 143.54 160.624 137.468 160.851 131.397C161.032 125.326 161.304 119.209 161.622 113.137C161.939 107.066 162.257 100.995 162.665 94.9694C162.665 94.1478 162.71 93.4172 162.756 92.687Z" fill="#847F88" stroke="black" stroke-width="0.5" stroke-miterlimit="10.0004"/>
<path d="M165.342 210.78C171.919 208.406 178.269 205.531 184.393 202.152C184.755 201.97 185.118 201.742 185.345 201.376C185.527 201.057 185.572 200.692 185.617 200.327C186.252 194.94 186.887 189.462 186.388 184.076C186.343 183.482 186.207 182.797 185.662 182.615C185.299 182.478 184.846 182.615 184.483 182.797C178.586 185.263 172.69 187.727 166.793 190.238C165.614 190.74 164.298 191.334 163.437 192.338C162.711 193.205 163.074 194.666 163.074 195.762C163.074 199.002 163.391 202.289 164.026 205.485C164.389 207.22 164.843 209 165.342 210.78Z" fill="#847F88" stroke="black" stroke-width="0.5" stroke-miterlimit="10.0004"/>
<path d="M162.983 191.333C163.209 191.699 163.482 192.018 163.89 192.11C164.253 192.201 164.661 191.973 164.979 191.79C171.873 187.91 178.768 184.076 185.662 180.195C183.077 178.415 180.537 176.589 177.951 174.809C177.679 174.626 177.362 174.398 177.044 174.352C176.591 174.261 176.182 174.398 175.729 174.581C171.284 176.133 166.884 177.685 162.438 179.237C161.259 179.647 159.944 180.149 159.354 181.291C159.263 181.474 160.034 181.884 160.125 182.021C160.261 182.295 160.216 182.751 160.216 183.071C160.261 184.03 160.443 185.034 160.669 185.947C161.123 187.91 161.894 189.736 162.983 191.333Z" fill="#847F88" stroke="black" stroke-width="0.5" stroke-miterlimit="10.0004"/>
<path d="M106.51 137.148C107.281 134.41 105.829 131.944 103.743 129.479C100.522 125.691 97.574 121.719 96.8936 116.424C95.3967 104.464 102.019 92.778 112.951 88.5327C124.426 84.059 137.127 88.076 143.977 98.3012C147.016 102.821 148.558 107.796 148.558 113.274C148.558 118.295 146.97 122.632 143.477 126.238C141.799 127.928 140.393 129.891 138.624 131.488C136.764 133.131 136.084 135.003 136.22 137.377C136.311 139.248 136.084 141.12 136.129 142.992C136.129 143.128 136.129 143.266 136.129 143.357C136.129 143.539 136.084 143.676 136.084 143.813C136.084 143.905 136.084 144.772 136.129 144.772C135.812 144.772 135.494 144.772 135.222 144.817C134.859 144.817 134.496 144.863 134.133 144.817C133.453 144.726 132.818 144.726 132.138 144.681C132.002 144.681 131.865 144.681 131.684 144.635C131.412 144.635 131.185 144.589 130.913 144.589C130.822 144.589 130.731 144.543 130.596 144.543C130.459 144.543 130.324 144.543 130.187 144.543C129.688 144.543 129.144 144.543 128.6 144.543C128.6 144.27 128.554 143.996 128.554 143.722C128.509 143.174 128.509 142.626 128.509 142.079C128.509 141.029 128.464 139.979 128.464 138.929C128.464 138.883 128.464 138.837 128.418 138.792C128.373 138.746 128.328 138.746 128.282 138.746C127.194 138.655 126.105 138.746 125.016 138.883C125.016 139.522 125.016 140.162 124.971 140.846C124.971 141.029 124.971 141.211 124.971 141.394C124.971 141.668 124.971 141.896 124.926 142.17C124.926 142.261 124.88 142.307 124.88 142.353C124.835 142.444 124.835 142.581 124.835 142.672C124.789 143.174 124.789 143.722 124.88 144.224C124.563 144.224 124.245 144.224 123.882 144.224C123.474 144.224 123.02 144.224 122.612 144.133C122.114 144.041 121.569 144.087 121.07 144.041C120.889 144.041 120.662 144.041 120.48 143.996C119.981 143.996 119.483 143.905 118.984 143.905C118.712 143.905 118.484 143.905 118.212 143.905C118.167 143.905 117.487 143.95 117.441 143.996C117.441 143.539 117.487 143.037 117.487 142.581C117.487 142.353 117.487 142.124 117.532 141.85C117.532 141.622 117.578 141.394 117.578 141.166C117.578 140.252 117.578 139.34 117.532 138.381C116.353 138.153 115.128 138.061 113.903 138.061C113.858 139.111 113.813 140.162 113.722 141.211C113.676 141.713 113.676 142.261 113.631 142.809C113.631 142.946 113.631 143.083 113.631 143.22C113.631 143.311 113.631 143.402 113.586 143.448C113.54 143.539 113.314 143.539 113.223 143.539C112.588 143.585 111.907 143.539 111.272 143.494C111 143.494 110.683 143.448 110.411 143.448C109.685 143.402 108.959 143.402 108.233 143.357C108.007 143.357 107.734 143.311 107.508 143.311C107.372 143.266 107.235 143.22 107.054 143.22C107.009 143.22 106.283 143.174 106.283 143.174C106.283 143.128 106.283 143.083 106.283 143.037C106.283 142.535 106.283 141.987 106.283 141.439C106.283 141.211 106.238 140.983 106.328 140.755C106.374 140.664 106.328 140.572 106.328 140.481C106.328 140.252 106.328 140.024 106.328 139.796C106.328 139.203 106.374 138.655 106.374 138.061C106.464 138.061 106.464 137.879 106.51 137.148ZM121.206 128.749C121.614 128.795 122.023 128.795 122.431 128.84C123.066 128.886 123.746 128.932 124.381 129.023C124.154 128.338 123.928 127.654 123.655 127.015C123.565 126.741 123.429 126.513 123.338 126.284C123.247 126.056 123.111 125.873 123.02 125.645C122.975 125.6 122.975 125.508 122.975 125.462C122.93 125.234 122.839 125.052 122.794 124.823C122.567 124.275 122.386 123.682 122.158 123.089C122.068 122.815 121.977 122.586 121.841 122.313C121.841 122.358 121.751 122.495 121.751 122.495C121.705 122.586 121.614 122.678 121.569 122.769C120.98 123.591 120.435 124.413 119.936 125.28C119.664 125.691 119.437 126.147 119.165 126.604C119.029 126.832 118.938 127.06 118.802 127.243C118.757 127.334 118.712 127.425 118.666 127.517C118.621 127.699 118.439 127.882 118.303 128.064C118.122 128.293 117.94 128.521 117.804 128.795C117.804 128.795 117.94 128.795 117.986 128.795C118.031 128.795 118.122 128.795 118.167 128.795C118.303 128.795 118.439 128.795 118.575 128.795C118.847 128.795 119.074 128.795 119.346 128.749C119.437 128.749 119.573 128.704 119.664 128.704C119.8 128.704 119.936 128.704 120.072 128.749C120.344 128.749 120.571 128.795 120.843 128.795C120.98 128.704 121.115 128.704 121.206 128.749Z" fill="#272F49"/>
<path d="M105.466 135.87C106.192 133.177 104.786 130.757 102.745 128.338C99.5696 124.595 96.6666 120.715 96.0316 115.556C94.5801 103.825 101.066 92.4128 111.771 88.2585C123.02 83.8762 135.449 87.8022 142.207 97.845C145.156 102.273 146.698 107.157 146.743 112.498C146.743 117.428 145.201 121.673 141.754 125.189C140.121 126.878 138.76 128.795 136.991 130.301C135.177 131.899 134.496 133.725 134.632 136.099C134.723 137.924 134.496 139.751 134.541 141.576C134.541 141.713 134.541 141.805 134.541 141.942C134.541 142.079 134.496 142.261 134.496 142.398C134.496 142.489 134.496 143.311 134.541 143.311C134.224 143.311 133.952 143.311 133.635 143.311C133.272 143.311 132.909 143.357 132.546 143.311C131.911 143.22 131.23 143.22 130.595 143.174C130.459 143.174 130.323 143.174 130.187 143.128C129.915 143.128 129.688 143.083 129.416 143.083C129.325 143.083 129.235 143.037 129.144 143.037C129.008 143.037 128.872 143.037 128.736 143.037C128.237 143.037 127.693 143.037 127.193 143.037C127.193 142.763 127.148 142.535 127.148 142.261C127.103 141.713 127.103 141.211 127.103 140.664C127.103 139.613 127.057 138.609 127.057 137.559C127.057 137.514 127.057 137.468 127.012 137.422C126.967 137.377 126.921 137.377 126.876 137.377C125.833 137.285 124.744 137.377 123.701 137.514C123.701 138.153 123.701 138.792 123.655 139.431C123.655 139.613 123.655 139.796 123.655 139.979C123.655 140.207 123.655 140.481 123.61 140.755C123.61 140.846 123.565 140.892 123.565 140.937C123.519 141.028 123.519 141.166 123.519 141.257C123.474 141.759 123.474 142.261 123.565 142.763C123.247 142.763 122.929 142.763 122.612 142.763C122.204 142.763 121.796 142.763 121.388 142.672C120.889 142.581 120.389 142.626 119.845 142.581C119.664 142.581 119.437 142.581 119.255 142.535C118.757 142.535 118.303 142.444 117.804 142.444C117.532 142.444 117.305 142.444 117.033 142.444C116.987 142.444 116.307 142.489 116.307 142.535C116.307 142.079 116.353 141.622 116.353 141.12C116.353 140.892 116.353 140.664 116.398 140.435C116.398 140.207 116.443 139.979 116.443 139.751C116.443 138.837 116.443 137.924 116.398 137.011C115.219 136.829 114.039 136.692 112.86 136.692C112.815 137.742 112.769 138.746 112.724 139.796C112.679 140.298 112.679 140.846 112.633 141.348C112.633 141.485 112.633 141.622 112.633 141.759C112.633 141.85 112.633 141.942 112.588 141.987C112.542 142.079 112.316 142.079 112.225 142.079C111.59 142.124 110.955 142.079 110.32 142.033C110.048 142.033 109.73 141.987 109.458 141.987C108.732 141.942 108.006 141.942 107.326 141.896C107.099 141.896 106.872 141.85 106.6 141.85C106.464 141.85 106.328 141.759 106.147 141.759C106.101 141.759 105.421 141.713 105.421 141.713C105.421 141.668 105.421 141.622 105.421 141.576C105.421 141.074 105.421 140.526 105.421 140.024C105.421 139.796 105.376 139.568 105.466 139.385C105.512 139.294 105.466 139.203 105.466 139.111C105.466 138.883 105.466 138.655 105.466 138.426C105.466 137.879 105.512 137.285 105.512 136.737C105.421 136.737 105.421 136.601 105.466 135.87ZM119.891 127.608C120.299 127.653 120.707 127.653 121.07 127.699C121.705 127.745 122.34 127.791 122.975 127.882C122.748 127.243 122.567 126.558 122.295 125.873C122.204 125.599 122.068 125.371 121.977 125.143C121.886 124.915 121.751 124.732 121.66 124.504C121.614 124.458 121.614 124.367 121.614 124.321C121.569 124.093 121.478 123.91 121.433 123.682C121.206 123.134 121.025 122.541 120.798 121.993C120.707 121.719 120.617 121.491 120.48 121.217C120.48 121.262 120.389 121.354 120.389 121.4C120.344 121.491 120.254 121.582 120.208 121.673C119.664 122.495 119.12 123.317 118.621 124.138C118.349 124.549 118.121 125.006 117.895 125.417C117.759 125.645 117.668 125.828 117.532 126.056C117.487 126.147 117.441 126.238 117.396 126.33C117.35 126.512 117.169 126.695 117.033 126.832C116.852 127.06 116.715 127.288 116.534 127.517C116.534 127.517 116.67 127.517 116.715 127.517C116.761 127.517 116.852 127.517 116.897 127.517C117.033 127.517 117.169 127.517 117.305 127.517C117.577 127.517 117.804 127.517 118.076 127.471C118.167 127.471 118.303 127.425 118.394 127.425C118.53 127.425 118.666 127.425 118.802 127.471C119.074 127.471 119.301 127.517 119.573 127.517C119.664 127.608 119.8 127.608 119.891 127.608Z" fill="#4300BF" stroke="black" stroke-width="0.5" stroke-miterlimit="10.0004"/>
<path d="M137.445 90.9063C129.144 84.2416 119.755 83.146 110.048 87.5284C94.4897 94.5582 90.3166 115.374 99.6607 125.736C100.976 127.197 101.974 128.886 103.335 130.347C104.559 131.671 104.968 133.086 104.877 134.866C104.741 137.331 104.514 139.842 104.877 142.535L112.86 142.9L112.996 137.194L116.081 137.286V137.331C116.081 137.377 116.081 137.422 116.081 137.468C116.081 137.514 116.081 137.605 116.081 137.651C116.081 137.742 116.081 137.834 116.081 137.879C116.081 137.97 116.081 138.062 116.081 138.153C116.081 138.244 116.081 138.381 116.081 138.472C116.081 138.609 116.081 138.701 116.081 138.838C116.081 138.975 116.081 139.111 116.081 139.249C116.081 139.385 116.081 139.523 116.081 139.659C116.081 139.796 116.081 139.933 116.081 140.07C116.081 140.207 116.081 140.344 116.081 140.481C116.081 140.618 116.081 140.755 116.081 140.892C116.081 141.029 116.081 141.12 116.081 141.257C116.081 141.348 116.081 141.485 116.081 141.622C116.081 141.713 116.081 141.85 116.081 141.942C116.081 142.033 116.081 142.125 116.081 142.216C116.081 142.261 116.081 142.353 116.081 142.444C116.081 142.489 116.081 142.535 116.081 142.581C116.081 142.718 116.035 142.855 116.035 143.037C116.081 143.037 116.081 143.037 116.126 143.037H116.171H116.217C116.262 143.037 116.353 143.037 116.398 143.037C116.534 143.037 116.67 143.037 116.807 143.037C117.351 143.037 117.85 143.083 118.394 143.083C119.029 143.129 119.71 143.129 120.39 143.174C120.98 143.22 121.615 143.22 122.204 143.266C122.567 143.266 122.93 143.311 123.338 143.311C123.384 143.311 123.429 143.311 123.474 143.311C123.565 143.311 123.61 143.311 123.701 143.266C123.701 143.129 123.746 142.946 123.746 142.809V142.763C123.746 142.718 123.746 142.627 123.792 142.581C123.792 142.444 123.837 142.307 123.837 142.216C123.837 142.125 123.837 142.033 123.837 141.942C123.837 141.85 123.837 141.759 123.837 141.713C123.837 141.622 123.837 141.576 123.837 141.485C123.837 141.394 123.837 141.302 123.837 141.211C123.837 141.12 123.837 140.983 123.837 140.846C123.837 140.709 123.837 140.572 123.837 140.481C123.837 140.344 123.837 140.207 123.837 140.07C123.837 139.933 123.837 139.796 123.837 139.659C123.837 139.523 123.837 139.385 123.837 139.249C123.837 139.111 123.837 138.975 123.837 138.838C123.837 138.746 123.837 138.609 123.837 138.472C123.837 138.381 123.837 138.29 123.837 138.198C123.837 138.107 123.837 138.062 123.837 137.97C123.837 137.925 123.837 137.879 123.837 137.834V137.788L126.922 137.879L126.786 143.54C127.285 143.54 135.177 143.904 135.177 143.904C135.177 142.261 135.177 140.618 135.177 138.929C135.177 138.153 135.177 137.377 135.177 136.601C135.177 136.373 135.177 136.145 135.132 135.962C135.132 135.414 135.132 134.866 135.222 134.364C135.313 133.816 135.495 133.223 135.858 132.766C135.948 132.675 136.039 132.538 136.13 132.447C136.266 132.31 136.356 132.218 136.492 132.082C136.719 131.854 136.946 131.579 137.173 131.351C137.626 130.849 138.08 130.393 138.534 129.89C138.987 129.388 139.395 128.932 139.849 128.43C140.303 127.927 140.711 127.471 141.119 126.969C141.527 126.467 141.981 126.01 142.389 125.508C142.797 125.006 143.206 124.549 143.614 124.047C143.84 123.819 144.022 123.545 144.249 123.317C145.791 121.4 146.88 119.254 147.242 116.789C148.876 106.244 145.655 97.4798 137.445 90.9063ZM111.726 135.688C111.636 135.688 111.545 135.688 111.409 135.688C111.363 135.688 111.318 135.688 111.273 135.688C111.273 135.916 111.273 136.144 111.273 136.373C111.273 136.829 111.227 137.331 111.227 137.788C111.182 138.746 111.137 139.751 111.137 140.709L107.1 140.527C107.1 140.116 107.145 139.705 107.145 139.294C107.19 138.381 107.236 137.468 107.236 136.509C107.281 135.551 107.326 134.547 107.326 133.588C107.326 133.223 107.372 132.858 107.372 132.492C107.372 132.31 107.326 132.127 107.326 131.99C107.326 131.808 107.281 131.625 107.281 131.443C107.281 131.351 107.236 131.305 107.236 131.214C107.19 131.169 107.19 131.077 107.145 131.031C107.1 130.895 107.054 130.758 106.964 130.621C106.827 130.347 106.691 130.073 106.555 129.799C106.419 129.525 106.238 129.297 106.056 129.023C105.966 128.886 105.83 128.704 105.693 128.567C103.788 126.238 101.974 123.819 100.16 121.4C97.5742 117.839 97.1206 113.685 97.6195 109.485C98.7535 100.036 103.652 93.1888 112.407 89.6737C121.07 86.2043 129.28 87.6651 136.175 93.919C143.206 100.264 145.791 108.344 143.523 117.794C142.979 120.213 141.437 121.947 139.894 123.682C137.989 125.828 136.039 127.927 134.088 130.027C133.998 130.119 133.907 130.164 133.862 130.256C133.862 130.301 133.862 130.301 133.816 130.347C133.771 130.393 133.771 130.438 133.725 130.484C133.68 130.575 133.59 130.667 133.544 130.758C133.499 130.803 133.499 130.849 133.453 130.895C133.408 130.94 133.408 130.94 133.408 130.986C133.317 131.169 133.227 131.351 133.136 131.534C132.954 131.945 132.864 132.401 132.773 132.858C132.728 133.086 132.728 133.314 132.728 133.543C132.728 133.634 132.728 133.771 132.728 133.862C132.728 133.907 132.728 133.953 132.728 134.045C132.728 134.136 132.728 134.227 132.728 134.318C132.728 134.455 132.728 134.638 132.728 134.775C132.728 135.049 132.728 135.277 132.728 135.551C132.728 136.053 132.728 136.601 132.728 137.103C132.728 137.605 132.728 138.153 132.728 138.655C132.728 139.157 132.728 139.705 132.728 140.207C132.728 140.481 132.728 140.709 132.728 140.983C132.728 141.12 132.728 141.257 132.728 141.394C132.728 141.44 132.728 141.485 132.728 141.531V141.576C132.682 141.622 132.637 141.576 132.637 141.576C132.591 141.576 132.501 141.576 132.456 141.576C132.228 141.576 131.956 141.576 131.73 141.531C130.732 141.485 129.734 141.44 128.736 141.394C128.782 140.527 128.782 139.659 128.827 138.838C128.827 138.564 128.872 138.244 128.872 137.97C128.872 137.605 128.872 137.285 128.872 136.92C128.872 136.783 128.872 136.692 128.872 136.555L128.282 136.464C128.056 136.418 127.829 136.373 127.602 136.373C127.103 136.327 126.649 136.281 126.151 136.236C125.652 136.19 125.152 136.19 124.654 136.19C124.155 136.19 123.656 136.19 123.157 136.19C122.749 136.19 122.295 136.19 121.887 136.19L121.705 141.44L117.668 141.257L117.85 136.099C117.623 136.053 117.351 136.007 117.124 135.962C116.625 135.87 116.171 135.825 115.673 135.779C115.174 135.734 114.674 135.734 114.176 135.688C113.677 135.688 113.178 135.688 112.679 135.642C112.452 135.642 112.18 135.642 111.953 135.642" fill="#E0E3BD"/>
<path d="M121.796 120.441C121.751 120.395 121.751 120.304 121.706 120.258C121.615 120.121 121.569 119.939 121.479 119.802C121.433 119.711 121.388 119.619 121.343 119.528C121.297 119.437 121.252 119.391 121.207 119.3C121.025 119.026 120.889 118.706 120.708 118.432C120.617 118.295 120.572 118.158 120.481 117.976C120.481 117.93 120.435 117.884 120.435 117.884C120.435 117.839 120.39 117.793 120.39 117.793C120.345 117.793 120.345 117.793 120.345 117.839C120.345 117.884 120.299 117.884 120.299 117.93C120.299 117.976 120.254 118.022 120.254 118.067C120.209 118.158 120.163 118.25 120.118 118.295C119.936 118.569 119.755 118.889 119.619 119.163C119.438 119.437 119.256 119.756 119.12 120.03C118.893 120.395 118.712 120.76 118.485 121.171C118.394 121.308 118.349 121.445 118.258 121.537C118.167 121.673 118.077 121.811 118.031 121.947C117.941 122.084 117.85 122.221 117.759 122.404C117.668 122.541 117.578 122.723 117.487 122.86C117.396 123.043 117.305 123.18 117.215 123.362C117.124 123.545 117.033 123.682 116.943 123.864C116.852 124.047 116.761 124.23 116.671 124.367C116.58 124.549 116.489 124.732 116.399 124.869C116.308 125.051 116.217 125.189 116.127 125.371C116.036 125.553 115.945 125.691 115.854 125.873C115.764 126.056 115.673 126.193 115.582 126.375C115.491 126.512 115.401 126.695 115.31 126.832C115.219 126.968 115.128 127.106 115.083 127.243C114.993 127.38 114.947 127.517 114.856 127.653C114.811 127.791 114.72 127.882 114.675 128.019C114.63 128.11 114.539 128.201 114.493 128.338C114.448 128.429 114.403 128.521 114.357 128.612C114.312 128.658 114.267 128.749 114.267 128.795C114.221 128.84 114.221 128.886 114.176 128.932L114.131 128.977H114.176C114.448 128.977 114.675 128.977 114.947 129.023C114.993 129.023 115.038 129.023 115.128 129.023C115.174 129.023 115.265 129.023 115.31 129.023C115.355 129.023 115.355 129.023 115.401 129.023C115.446 129.023 115.491 129.023 115.537 129.023C115.582 129.023 115.627 129.023 115.718 129.023C115.764 129.023 115.854 129.023 115.899 129.023C115.99 129.023 116.081 129.023 116.127 129.023C116.217 129.023 116.308 129.023 116.399 129.023C116.489 129.023 116.58 129.023 116.671 129.023C116.761 129.023 116.897 129.023 116.988 129.023C117.079 129.023 117.215 129.023 117.305 129.023C117.442 129.023 117.533 129.023 117.668 129.023C117.805 129.023 117.895 129.023 118.031 129.023C118.167 129.023 118.304 129.023 118.394 129.023C118.53 129.023 118.667 129.023 118.802 129.023C118.939 129.023 119.075 129.023 119.211 129.023C119.347 129.023 119.483 129.023 119.619 129.023C119.755 129.023 119.891 129.023 120.027 129.023C120.163 129.023 120.299 129.023 120.435 129.023C120.572 129.023 120.708 129.023 120.844 129.023C120.98 129.023 121.116 129.023 121.252 129.023C121.388 129.023 121.524 129.023 121.66 129.023C121.796 129.023 121.932 129.023 122.023 129.023C122.159 129.023 122.25 129.023 122.386 129.023C122.522 129.023 122.613 129.023 122.749 129.023C122.84 129.023 122.976 129.023 123.066 129.023C123.157 129.023 123.293 129.023 123.384 129.023C123.475 129.023 123.565 129.023 123.656 129.023C123.747 129.023 123.837 129.023 123.928 129.023C124.019 129.023 124.064 129.023 124.155 129.023L125.788 129.068C125.833 129.068 125.833 129.068 125.833 129.068C125.743 128.795 125.606 128.566 125.516 128.293C125.243 127.653 124.971 127.06 124.699 126.421C124.337 125.645 124.019 124.823 123.656 124.047C123.338 123.317 123.021 122.541 122.703 121.811C122.477 121.308 122.295 120.806 122.069 120.35C121.887 120.624 121.841 120.532 121.796 120.441C121.796 120.486 121.796 120.486 121.796 120.441ZM117.124 127.334C118.213 125.462 119.211 123.773 120.345 121.811C121.116 123.91 121.751 125.553 122.522 127.562C120.662 127.471 119.12 127.38 117.124 127.334Z" fill="#E0E3BD"/>
<path d="M180.264 173.074C182.85 175.539 185.481 178.05 188.066 180.469C188.247 187.864 187.658 194.94 187.522 201.97C187.068 202.837 186.342 203.203 185.616 203.613C178.994 207.356 172.417 211.1 165.795 214.843C164.706 215.482 163.663 215.802 162.438 215.71C154.137 215.163 145.791 214.706 137.49 214.158C129.688 213.656 121.887 213.063 114.13 212.561C101.384 211.693 88.5931 210.826 75.8471 209.958C74.1235 209.867 72.4452 209.822 70.7216 209.776C68.9979 209.73 68.0454 208.817 68.0454 207.128C68 200.327 68 193.479 68 186.678C68 185.445 68.7711 184.669 69.7237 183.939C72.9895 181.428 76.1647 178.872 79.8388 175.996C79.8388 167.688 79.7481 159.151 79.8388 150.615C80.1109 127.836 80.4738 105.058 80.882 82.2787C81.1996 65.4344 92.494 50.0507 108.506 44.8924C119.029 41.5143 129.825 39.4145 140.983 40.1449C155.226 41.1492 167.518 46.0792 175.955 58.3587C180.491 64.9779 182.941 72.373 182.986 80.4528C183.031 95.1516 182.305 109.805 181.852 124.504C181.353 139.933 180.854 155.362 180.355 170.792C180.264 171.431 180.264 172.024 180.264 173.074ZM83.9211 175.813C108.506 177 132.955 178.187 157.267 179.328C157.766 178.506 157.63 177.822 157.63 177.183C157.948 167.094 158.265 156.96 158.583 146.826C159.127 127.791 159.717 108.755 160.215 89.7651C160.306 86.0218 160.533 82.2331 160.079 78.5355C158.764 67.8081 152.913 59.6826 144.521 53.3831C133.635 45.2576 121.615 45.3032 109.458 49.5029C94.8073 54.5243 85.5994 67.6711 85.3272 83.3287C84.8283 111.722 84.3747 140.116 83.9211 168.509C83.9211 170.883 83.9211 173.211 83.9211 175.813ZM175.637 172.207C175.683 171.431 175.774 170.929 175.774 170.427C176.091 160.293 176.409 150.204 176.771 140.07C177.316 123.454 177.905 106.792 178.45 90.1761C178.631 84.4699 178.858 78.7638 177.452 73.1947C173.506 57.5828 163.028 48.9551 147.787 45.6228C146.698 45.3945 145.565 45.2575 144.476 45.1206C143.432 44.9837 142.435 44.8011 141.391 44.7554C140.394 44.7098 139.35 44.7554 138.307 44.7554C143.296 46.8553 147.651 49.5942 151.461 53.2461C160.306 61.7825 165.477 71.8252 164.978 84.5155C164.434 98.2104 164.253 111.95 163.89 125.645C163.527 137.56 163.028 149.474 162.756 161.388C162.619 166.957 162.71 172.572 162.71 178.278C166.793 176.315 171.147 174.307 175.637 172.207ZM160.986 211.145C160.986 205.667 160.986 200.463 160.986 195.123C131.458 193.616 102.065 192.11 72.6267 190.603C72.6267 195.534 72.6267 200.281 72.6267 205.211C102.11 207.174 131.458 209.183 160.986 211.145ZM158.174 184.03C155.543 183.528 152.867 183.756 150.236 183.619C127.874 182.523 105.467 181.428 83.1046 180.332C82.6057 180.332 81.9706 180.241 81.6078 180.515C79.3398 182.158 76.9811 183.665 74.8946 186.13C103.426 187.59 131.639 189.051 160.079 190.466C159.445 188.275 158.855 186.312 158.174 184.03ZM165.749 194.666C165.749 199.596 165.749 204.435 165.749 209.639C171.691 206.261 177.361 203.065 182.986 199.87C183.167 194.94 183.621 190.147 183.394 185.08C177.361 188.367 171.555 191.517 165.749 194.666ZM181.534 180.88C180.264 179.191 178.858 177.868 177.361 176.452C172.598 178.689 167.836 180.88 163.028 183.163C163.617 185.491 164.116 187.636 165.069 189.828C170.648 186.769 176.046 183.848 181.534 180.88Z" fill="#4300BF" stroke="white" stroke-width="2" stroke-miterlimit="10.0004"/>
<path d="M128.237 111.677C127.148 113.32 127.057 115.557 127.828 117.383C128.056 117.931 128.373 118.433 128.872 118.752C129.87 119.346 131.14 118.798 132.183 118.25C133.544 117.52 134.95 116.652 135.494 115.192C135.903 114.142 135.721 112.909 135.222 111.905C134.95 111.266 134.542 110.718 134.088 110.216C133.77 109.897 133.498 109.485 132.999 109.44C131.865 109.257 130.641 109.623 129.688 110.216C129.099 110.627 128.6 111.129 128.237 111.677Z" fill="white" stroke="black" stroke-width="0.5" stroke-miterlimit="10"/>
<path d="M107.599 111.996C107.236 112.635 106.964 113.32 106.918 114.05C106.828 115.283 107.417 116.424 107.961 117.52C108.052 117.748 108.188 117.976 108.37 118.113C108.551 118.25 108.778 118.295 109.005 118.341C111.273 118.661 113.631 117.748 115.083 115.967C115.355 115.602 115.582 115.237 115.718 114.826C115.899 114.187 115.899 113.548 115.854 112.909C115.808 111.996 115.718 110.946 115.038 110.307C114.72 109.987 114.312 109.759 113.904 109.577C113.405 109.303 112.815 108.983 112.271 108.8C111.862 108.709 111.363 108.846 111.001 108.983C110.048 109.303 109.232 109.942 108.551 110.672C108.37 110.9 108.188 111.083 108.007 111.311C107.916 111.448 107.825 111.54 107.78 111.676C107.735 111.722 107.689 111.904 107.599 111.996Z" fill="white" stroke="black" stroke-width="0.5" stroke-miterlimit="10"/>
<path d="M130.096 119.163C129.643 119.117 129.189 119.026 128.735 118.935C128.554 118.661 128.418 118.432 128.282 118.158C128.146 117.884 128.101 117.656 127.964 117.382C127.692 116.835 127.556 116.287 127.465 115.693C127.284 114.37 127.511 113 128.191 111.905C128.872 110.809 129.96 109.896 131.185 109.485C131.684 109.302 132.273 109.211 132.818 109.394C133.181 109.485 133.453 109.714 133.725 109.987C133.861 110.125 133.997 110.261 134.088 110.398C134.178 110.535 134.315 110.672 134.405 110.809C134.269 110.809 134.133 110.763 133.997 110.763C133.861 110.763 133.68 110.718 133.543 110.718C130.867 110.718 128.645 112.909 128.645 115.648C128.645 116.972 129.189 118.25 130.096 119.163Z" fill="#272F49"/>
<path d="M108.505 118.341C108.46 118.341 108.324 118.067 108.324 118.022C108.279 117.93 108.188 117.793 108.142 117.656C108.052 117.428 107.916 117.154 107.87 116.926C107.78 116.652 107.78 116.424 107.689 116.15C107.598 115.831 107.507 115.511 107.417 115.191C107.235 114.552 107.145 113.913 107.235 113.228C107.326 112.133 107.916 111.083 108.732 110.307C109.549 109.531 110.592 109.028 111.68 108.8C112.043 108.709 112.406 108.664 112.815 108.755C113.268 108.846 113.676 109.12 113.994 109.485C114.175 109.668 114.312 109.851 114.447 110.033C114.493 110.124 114.584 110.215 114.493 110.307C114.447 110.353 114.402 110.353 114.356 110.353C114.221 110.353 114.039 110.307 113.903 110.307C113.767 110.307 113.586 110.261 113.45 110.261C110.773 110.261 108.551 112.452 108.551 115.191C108.551 116.515 109.05 117.702 109.912 118.615C109.866 118.615 108.505 118.341 108.505 118.341Z" fill="#272F49"/>
<path d="M110.501 119.62C107.054 119.62 104.242 116.789 104.242 113.32C104.242 109.851 107.054 107.021 110.501 107.021C113.948 107.021 116.761 109.851 116.761 113.32C116.761 116.789 113.948 119.62 110.501 119.62ZM110.501 108.846C108.052 108.846 106.056 110.855 106.056 113.32C106.056 115.785 108.052 117.794 110.501 117.794C112.951 117.794 114.947 115.785 114.947 113.32C114.947 110.855 112.951 108.846 110.501 108.846Z" fill="#E0E3BD"/>
<path d="M130.641 120.076C127.194 120.076 124.381 117.246 124.381 113.777C124.381 110.308 127.194 107.478 130.641 107.478C134.088 107.478 136.901 110.308 136.901 113.777C136.901 117.246 134.088 120.076 130.641 120.076ZM130.641 109.303C128.191 109.303 126.196 111.312 126.196 113.777C126.196 116.242 128.191 118.251 130.641 118.251C133.09 118.251 135.086 116.242 135.086 113.777C135.086 111.312 133.09 109.303 130.641 109.303Z" fill="#E0E3BD"/>
<path d="M107.598 117.383C106.963 116.424 106.645 115.329 106.645 114.233C106.645 110.992 109.231 108.39 112.451 108.39C112.497 108.39 112.587 108.39 112.633 108.39C112.996 108.755 113.358 109.075 113.631 109.44C113.223 109.349 112.86 109.303 112.451 109.303C109.775 109.303 107.553 111.494 107.553 114.233C107.553 115.557 108.052 116.744 108.913 117.657L107.598 117.383Z" fill="#E0E3BD"/>
<path d="M129.19 118.204C128.736 118.158 128.282 118.067 127.829 117.976C127.194 117.017 126.831 115.876 126.831 114.689C126.831 111.585 129.28 109.029 132.319 108.846L133.499 109.805C133.227 109.759 132.909 109.714 132.592 109.714C129.915 109.714 127.693 111.905 127.693 114.644C127.738 116.059 128.282 117.291 129.19 118.204Z" fill="#E0E3BD"/>
</g>
<defs>
<radialGradient id="paint0_radial_741_46" cx="0" cy="0" r="1" gradientUnits="userSpaceOnUse" gradientTransform="translate(128 128) rotate(90) scale(128)">
<stop/>
<stop offset="1" stop-color="#666666"/>
</radialGradient>
<clipPath id="clip0_741_46">
<rect width="256" height="256" fill="white"/>
</clipPath>
</defs>
</svg>
