<?xml version="1.0" encoding="UTF-8"?>
<svg xmlns:xodm="http://www.corel.com/coreldraw/odm/2003" xmlns="http://www.w3.org/2000/svg" xmlns:xlink="http://www.w3.org/1999/xlink" version="1.1" id="Layer_1" x="0px" y="0px" viewBox="0 0 2500 2500" xml:space="preserve">
<g id="Layer_x0020_1">
	<g id="_1942304617904">
		<circle fill-rule="evenodd" clip-rule="evenodd" fill="#1B5AFE" cx="1250" cy="1250" r="1250"></circle>
		<g>
			<path fill-rule="evenodd" clip-rule="evenodd" fill="#FFFFFF" d="M615.1,646v425.9c235.2,0,425.9-190.7,425.9-425.8L615.1,646     L615.1,646z"></path>
			<path fill-rule="evenodd" clip-rule="evenodd" fill="#FFFFFF" d="M1041,1925.2v-857.4l0,0c0-3.6,0-7.2,0.1-10.8l0,0     c0.1-3.6,0.2-7.2,0.4-10.8c0.2-3.6,0.4-7.2,0.7-10.7c0.3-3.6,0.6-7.1,1-10.6c0.4-3.5,0.8-7.1,1.2-10.6v0c0.4-3.5,0.9-7,1.5-10.5     c0.5-3.5,1.1-7,1.7-10.4l0,0c0.6-3.5,1.3-6.9,2-10.3l0,0c0.7-3.4,1.4-6.8,2.2-10.2v0c0.8-3.4,1.6-6.8,2.5-10.1s1.8-6.7,2.7-10     c0.9-3.3,1.9-6.6,3-9.9l0,0c1-3.3,2.1-6.6,3.2-9.8l0,0c1.1-3.3,2.2-6.5,3.4-9.7c1.2-3.2,2.4-6.4,3.7-9.6v0     c1.3-3.2,2.6-6.3,3.9-9.5l0,0c1.3-3.2,2.7-6.3,4.1-9.4l0,0c1.4-3.1,2.9-6.2,4.3-9.3c1.5-3.1,3-6.1,4.6-9.2c1.6-3,3.2-6,4.8-9     c1.6-3,3.3-6,5-8.9c1.7-2.9,3.4-5.9,5.2-8.8c1.8-2.9,3.6-5.8,5.4-8.6c1.8-2.8,3.7-5.7,5.6-8.5l0,0c1.9-2.8,3.8-5.6,5.8-8.3     c2-2.8,4-5.5,6-8.2s4.1-5.4,6.2-8l0,0c2.1-2.7,4.2-5.3,6.4-7.9c2.2-2.6,4.3-5.2,6.6-7.7c2.2-2.5,4.5-5.1,6.7-7.6l0,0     c2.3-2.5,4.6-5,6.9-7.4c2.3-2.4,4.7-4.9,7.1-7.2c2.4-2.4,4.8-4.8,7.2-7.1l0,0c2.4-2.3,4.9-4.6,7.4-6.9c2.5-2.3,5-4.5,7.6-6.7     c2.6-2.2,5.1-4.4,7.7-6.5v0c2.6-2.2,5.2-4.3,7.9-6.4c2.7-2.1,5.3-4.2,8.1-6.2c2.7-2,5.4-4,8.2-6c2.8-2,5.5-3.9,8.3-5.8     c2.8-1.9,5.6-3.8,8.5-5.6c2.8-1.8,5.7-3.6,8.6-5.4c2.9-1.8,5.8-3.5,8.8-5.2c2.9-1.7,5.9-3.4,8.9-5s6-3.2,9-4.8     c3-1.6,6.1-3.1,9.2-4.6c3.1-1.5,6.2-2.9,9.3-4.3l0,0c3.1-1.4,6.2-2.8,9.4-4.1c3.2-1.3,6.3-2.6,9.5-3.9c3.2-1.3,6.4-2.5,9.6-3.7     c3.2-1.2,6.5-2.3,9.7-3.4s6.5-2.2,9.8-3.2c3.3-1,6.6-2,9.9-3c3.3-1,6.7-1.9,10-2.7c3.4-0.9,6.7-1.7,10.1-2.5     c3.4-0.8,6.8-1.5,10.2-2.2c3.4-0.7,6.9-1.4,10.3-2c3.4-0.6,6.9-1.2,10.4-1.7c3.5-0.5,7-1,10.5-1.5c3.5-0.5,7-0.9,10.6-1.2     c3.5-0.4,7.1-0.7,10.6-1c3.6-0.3,7.1-0.5,10.7-0.7c3.6-0.2,7.2-0.3,10.8-0.4c3.6-0.1,7.2-0.1,10.8-0.1h422.1v421.8h-422.1v857.4     L1041,1925.2L1041,1925.2z"></path>
		</g>
	</g>
</g>
</svg>
