<svg width="123" height="123" viewBox="0 0 123 123" fill="none" xmlns="http://www.w3.org/2000/svg">
<circle cx="61.5" cy="61.5" r="59" fill="white" stroke="url(#paint0_linear_963_85)" stroke-width="5"/>
<g clip-path="url(#clip0_963_85)">
<path d="M54.0588 39.9768C53.1978 39.8545 53.1569 39.8138 53.5668 39.773C54.3458 39.6507 56.1497 39.8138 57.4207 40.0991C60.3725 40.7921 63.0374 42.5857 65.8663 45.7245L66.6043 46.5805L67.6702 46.4175C72.221 45.6837 76.8948 46.2544 80.7896 48.048C81.8556 48.5372 83.5365 49.5155 83.7415 49.7601C83.8235 49.8416 83.9465 50.3716 84.0285 50.9015C84.3155 52.8174 84.1925 54.2441 83.5775 55.3447C83.2495 55.9562 83.2495 56.1192 83.4545 56.6492C83.6185 57.0568 84.1105 57.3422 84.5615 57.3422C85.5454 57.3422 86.5704 55.7931 87.0624 53.6327L87.2674 52.7766L87.6363 53.1843C89.7273 55.5078 91.3672 58.7281 91.6132 61.0109L91.6952 61.6223L91.3262 61.0924C90.7112 60.1549 90.1372 59.5434 89.3583 59.0135C87.9643 58.0759 86.4884 57.7906 82.5936 57.5867C79.0677 57.3829 77.0588 57.0976 75.0909 56.4454C71.729 55.3447 70.0071 53.918 66.0303 48.6595C64.2674 46.336 63.1604 45.0723 62.0535 44.0124C59.6346 41.6889 57.2157 40.466 54.0588 39.9768Z" fill="#FF007A"/>
<path d="M84.6025 45.1537C84.6845 43.6047 84.8895 42.5856 85.3405 41.6481C85.5045 41.2812 85.6685 40.9551 85.7095 40.9551C85.7505 40.9551 85.6685 41.2404 85.5455 41.5665C85.2175 42.4633 85.1765 43.727 85.3815 45.1537C85.6685 46.9881 85.7915 47.2327 87.7594 49.2301C88.6613 50.1677 89.7273 51.3498 90.1373 51.839L90.8342 52.7358L90.1373 52.0836C89.2763 51.2683 87.3084 49.7193 86.8574 49.5154C86.5704 49.3524 86.5294 49.3524 86.3244 49.5562C86.1604 49.7193 86.1194 49.9639 86.1194 51.146C86.0784 52.9804 85.8325 54.1217 85.2175 55.3039C84.8895 55.9153 84.8485 55.7931 85.1355 55.1001C85.3405 54.5701 85.3815 54.3256 85.3815 52.5727C85.3815 49.0263 84.9715 48.1702 82.4706 46.7435C81.8556 46.3766 80.7897 45.8467 80.1747 45.5614C79.5187 45.276 79.0268 45.0314 79.0678 45.0314C79.1498 44.9499 81.5686 45.6429 82.5116 46.0505C83.9465 46.6212 84.1925 46.662 84.3565 46.6212C84.4795 46.4989 84.5615 46.1728 84.6025 45.1537Z" fill="#FF007A"/>
<path d="M55.7397 51.2276C54.0178 48.8634 52.9109 45.1946 53.1569 42.4635L53.2389 41.6074L53.6488 41.6889C54.3868 41.8112 55.6578 42.3004 56.2727 42.6673C57.9127 43.6456 58.6506 44.9908 59.3476 48.3334C59.5526 49.3118 59.8396 50.4531 59.9626 50.82C60.1676 51.4315 60.9465 52.8582 61.6025 53.755C62.0535 54.4072 61.7665 54.7333 60.7415 54.6518C59.1836 54.4887 57.0927 53.062 55.7397 51.2276Z" fill="#FF007A"/>
<path d="M82.5116 68.9598C74.3939 65.6987 71.524 62.8861 71.524 58.1167C71.524 57.4237 71.565 56.853 71.565 56.853C71.606 56.853 71.893 57.0976 72.262 57.383C73.9019 58.6874 75.7469 59.2581 80.8716 59.9918C83.8645 60.4402 85.5864 60.7663 87.1444 61.2963C92.1052 62.9268 95.18 66.2694 95.918 70.7942C96.123 72.0986 96 74.5852 95.672 75.8897C95.385 76.9088 94.565 78.7839 94.3601 78.8246C94.3191 78.8246 94.2371 78.6208 94.2371 78.2947C94.1551 76.5826 93.2941 74.9521 91.8592 73.6884C90.1372 72.2209 87.9233 71.1203 82.5116 68.9598Z" fill="#FF007A"/>
<path d="M76.7718 70.305C76.6898 69.6935 76.4848 68.919 76.3618 68.5929L76.1569 67.9814L76.5258 68.4298C77.0588 69.0413 77.4688 69.775 77.8378 70.7941C78.1248 71.5686 78.1248 71.8132 78.1248 73.0769C78.1248 74.2998 78.0838 74.5852 77.8378 75.2781C77.4278 76.3788 76.9358 77.1533 76.1159 78.0093C74.6399 79.5176 72.713 80.3328 69.9661 80.6997C69.4741 80.7405 68.0802 80.8628 66.8503 80.9443C63.7754 81.1074 61.7255 81.4335 59.8806 82.0857C59.6346 82.1672 59.3886 82.2487 59.3476 82.208C59.2656 82.1264 60.5365 81.3927 61.5615 80.9035C62.9964 80.2105 64.4724 79.8437 67.7112 79.273C69.3102 79.0284 70.9501 78.7023 71.3601 78.5392C75.4189 77.2756 77.4278 74.1368 76.7718 70.305Z" fill="#FF007A"/>
<path d="M80.5027 76.8678C79.4367 74.5443 79.1907 72.343 79.7647 70.2641C79.8467 70.0603 79.9287 69.8564 80.0107 69.8564C80.0927 69.8564 80.3387 69.9787 80.5847 70.1418C81.0767 70.4679 82.1016 71.0386 84.7255 72.4653C88.0464 74.2589 89.9323 75.6449 91.2442 77.2347C92.3922 78.6206 93.0891 80.2104 93.4171 82.1671C93.6221 83.2677 93.4991 85.9173 93.2121 87.018C92.3102 90.4829 90.2603 93.2548 87.2674 94.8446C86.8164 95.0892 86.4474 95.2522 86.4064 95.2522C86.3654 95.2522 86.5294 94.8446 86.7754 94.3554C87.7594 92.2765 87.8824 90.279 87.1444 88.037C86.6934 86.6511 85.7505 84.9798 83.8645 82.1671C81.6096 78.906 81.0767 78.0499 80.5027 76.8678Z" fill="#FF007A"/>
<path d="M49.959 89.3415C52.9929 86.8142 56.7237 85.0206 60.1675 84.4499C61.6435 84.2053 64.1034 84.2868 65.4563 84.6537C67.6292 85.2244 69.5971 86.4473 70.6221 87.9555C71.606 89.423 72.057 90.6867 72.508 93.4994C72.672 94.6 72.877 95.7414 72.918 95.986C73.246 97.4535 73.9019 98.5949 74.7219 99.2063C75.9929 100.144 78.2068 100.185 80.3797 99.3694C80.7486 99.2471 81.0766 99.1248 81.0766 99.1656C81.1586 99.2471 80.0517 99.9808 79.3137 100.348C78.2887 100.878 77.4688 101.041 76.3618 101.041C74.3939 101.041 72.713 100.022 71.3601 97.9834C71.0731 97.5758 70.4991 96.3936 70.0071 95.293C68.5722 91.9911 67.8342 91.0128 66.1533 89.9122C64.6773 88.9746 62.7914 88.7708 61.3565 89.4638C59.4706 90.3606 58.9786 92.7657 60.2905 94.2331C60.8235 94.8446 61.8075 95.3338 62.6274 95.4561C64.1444 95.6599 65.4563 94.4777 65.4563 92.9695C65.4563 91.9911 65.0873 91.4205 64.1034 90.9721C62.7914 90.4014 61.3565 91.0536 61.3975 92.3173C61.3975 92.8472 61.6435 93.1733 62.1765 93.4179C62.5044 93.5809 62.5044 93.5809 62.2584 93.5402C61.0695 93.2956 60.7825 91.8281 61.7255 90.8905C62.8734 89.7491 65.2923 90.2383 66.1123 91.8281C66.4403 92.4803 66.4813 93.7848 66.1943 94.6C65.4973 96.3936 63.5294 97.3312 61.5205 96.8013C60.1675 96.4344 59.5936 96.0675 57.9536 94.3962C55.0838 91.4612 53.9768 90.8905 49.877 90.2791L49.098 90.1568L49.959 89.3415Z" fill="#FF007A"/>
<path fill-rule="evenodd" clip-rule="evenodd" d="M28.3938 23.7528C37.9464 35.289 52.6648 53.225 53.4027 54.2033C54.0177 55.0186 53.7717 55.7931 52.7467 56.3638C52.1728 56.6899 50.9838 57.016 50.4099 57.016C49.7539 57.016 48.9749 56.6899 48.4419 56.16C48.073 55.7931 46.474 53.4696 42.8662 47.8849C40.1193 43.6047 37.7824 40.0583 37.7414 40.0175C37.5774 39.936 37.5774 39.936 42.5792 48.8225C45.7361 54.4071 46.761 56.4045 46.761 56.6491C46.761 57.1791 46.597 57.4644 45.941 58.1981C44.8341 59.4211 44.3421 60.807 43.9731 63.7012C43.5632 66.9216 42.4562 69.2043 39.2993 73.0769C37.4544 75.3596 37.1674 75.7673 36.7164 76.7048C36.1425 77.8462 35.9785 78.4985 35.8965 79.9659C35.8145 81.515 35.9785 82.4933 36.4295 83.9608C36.8394 85.2652 37.2904 86.1213 38.3974 87.7926C39.3403 89.2601 39.9143 90.3607 39.9143 90.7683C39.9143 91.0944 39.9963 91.0944 41.4722 90.7683C44.9981 89.953 47.909 88.5671 49.5079 86.855C50.4918 85.7952 50.7378 85.2245 50.7378 83.757C50.7378 82.8194 50.6968 82.6156 50.4508 82.0449C50.0409 81.1481 49.2619 80.4143 47.581 79.273C45.3671 77.7647 44.4241 76.5418 44.1781 74.9112C43.9731 73.5253 44.2191 72.5877 45.4491 70.0196C46.72 67.37 47.048 66.2693 47.253 63.5789C47.376 61.8669 47.581 61.1739 48.073 60.644C48.6059 60.0733 49.0569 59.8695 50.3279 59.7064C52.4188 59.4211 53.7717 58.8911 54.8377 57.872C55.7806 57.016 56.1906 56.16 56.2316 54.8963L56.2726 53.9587L55.7396 53.388C53.8127 51.1868 27.1229 22 26.9999 22C26.9589 22 27.6148 22.7745 28.3938 23.7528ZM40.9803 81.7188C41.4312 80.9443 41.1853 79.9659 40.4473 79.4768C39.7503 79.0284 38.6844 79.2322 38.6844 79.8437C38.6844 80.0067 38.7664 80.1698 39.0123 80.2513C39.3813 80.4551 39.4223 80.6589 39.1353 81.1073C38.8484 81.5557 38.8484 81.9634 39.2173 82.2487C39.7913 82.6971 40.5703 82.4525 40.9803 81.7188Z" fill="#FF007A"/>
<path fill-rule="evenodd" clip-rule="evenodd" d="M57.5847 60.2769C56.6007 60.5622 55.6577 61.6221 55.3708 62.6819C55.2068 63.3342 55.2888 64.5163 55.5757 64.8832C56.0267 65.4539 56.4367 65.6169 57.5847 65.6169C59.8396 65.6169 61.7665 64.6386 61.9715 63.4565C62.1765 62.4781 61.3155 61.1329 60.1265 60.5215C59.5116 60.1954 58.2406 60.0731 57.5847 60.2769ZM60.2085 62.3151C60.5365 61.8259 60.4135 61.296 59.7986 60.9291C58.6916 60.2361 57.0107 60.8068 57.0107 61.8667C57.0107 62.3966 57.8716 62.9673 58.6916 62.9673C59.2246 62.9673 59.9626 62.6412 60.2085 62.3151Z" fill="#FF007A"/>
</g>
<defs>
<linearGradient id="paint0_linear_963_85" x1="0" y1="0" x2="123" y2="123" gradientUnits="userSpaceOnUse">
<stop stop-color="white"/>
<stop offset="0.83" stop-color="#F0BDD6"/>
</linearGradient>
<clipPath id="clip0_963_85">
<rect width="69" height="79" fill="white" transform="translate(27 22)"/>
</clipPath>
</defs>
</svg>
