<svg width="255" height="255" viewBox="0 0 255 255" fill="none" xmlns="http://www.w3.org/2000/svg">
<g clip-path="url(#clip0_1473_113)">
<mask id="mask0_1473_113" style="mask-type:luminance" maskUnits="userSpaceOnUse" x="0" y="0" width="255" height="255">
<path d="M255 0H0V255H255V0Z" fill="white"/>
</mask>
<g mask="url(#mask0_1473_113)">
<path d="M127.5 252.5C196.536 252.5 252.5 196.536 252.5 127.5C252.5 58.4644 196.536 2.5 127.5 2.5C58.4644 2.5 2.5 58.4644 2.5 127.5C2.5 196.536 58.4644 252.5 127.5 252.5Z" fill="white"/>
<mask id="mask1_1473_113" style="mask-type:luminance" maskUnits="userSpaceOnUse" x="55" y="45" width="145" height="165">
<path d="M199.024 45.6104H55.9756V209.39H199.024V45.6104Z" fill="white"/>
</mask>
<g mask="url(#mask1_1473_113)">
<path d="M112.073 82.8788C110.288 82.6253 110.203 82.5408 111.053 82.4563C112.668 82.2027 116.408 82.5408 119.043 83.1323C125.162 84.569 130.687 88.2875 136.552 94.7947L138.082 96.5694L140.292 96.2314C149.726 94.7102 159.416 95.8934 167.491 99.6118C169.701 100.626 173.185 102.654 173.61 103.161C173.78 103.33 174.035 104.429 174.205 105.528C174.8 109.499 174.545 112.457 173.27 114.739C172.59 116.007 172.59 116.345 173.015 117.443C173.355 118.289 174.375 118.88 175.31 118.88C177.35 118.88 179.475 115.669 180.495 111.19L180.92 109.415L181.685 110.26C186.02 115.077 189.42 121.753 189.93 126.486L190.1 127.754L189.335 126.655C188.06 124.711 186.87 123.444 185.255 122.345C182.365 120.401 179.305 119.81 171.23 119.387C163.921 118.965 159.756 118.373 155.676 117.021C148.706 114.739 145.137 111.781 136.892 100.879C133.237 96.0624 130.942 93.4426 128.647 91.2453C123.633 86.4282 118.618 83.8929 112.073 82.8788Z" fill="#FF007A"/>
<path d="M175.395 93.6118C175.565 90.4004 175.99 88.2876 176.925 86.3439C177.265 85.5833 177.605 84.9072 177.69 84.9072C177.775 84.9072 177.605 85.4988 177.35 86.1749C176.67 88.0341 176.585 90.6539 177.01 93.6118C177.605 97.4147 177.86 97.9218 181.94 102.063C183.81 104.006 186.02 106.457 186.87 107.471L188.315 109.331L186.87 107.978C185.085 106.288 181.005 103.077 180.07 102.654C179.475 102.316 179.39 102.316 178.965 102.739C178.625 103.077 178.54 103.584 178.54 106.035C178.455 109.838 177.945 112.204 176.67 114.655C175.99 115.922 175.905 115.669 176.5 114.232C176.925 113.134 177.01 112.627 177.01 108.993C177.01 101.64 176.16 99.8655 170.976 96.9077C169.701 96.1471 167.491 95.0484 166.216 94.4569C164.856 93.8653 163.836 93.3582 163.921 93.3582C164.091 93.1892 169.106 94.6259 171.061 95.471C174.035 96.6541 174.545 96.7386 174.885 96.6541C175.14 96.4006 175.31 95.7245 175.395 93.6118Z" fill="#FF007A"/>
<path d="M115.558 106.204C111.988 101.302 109.693 93.6967 110.203 88.0345L110.373 86.2598L111.223 86.4288C112.753 86.6823 115.388 87.6965 116.663 88.457C120.063 90.4853 121.593 93.2741 123.038 100.203C123.463 102.232 124.058 104.598 124.313 105.359C124.738 106.626 126.352 109.584 127.712 111.443C128.647 112.795 128.052 113.472 125.928 113.302C122.698 112.964 118.363 110.007 115.558 106.204Z" fill="#FF007A"/>
<path d="M171.06 142.965C154.231 136.204 148.281 130.373 148.281 120.486C148.281 119.049 148.366 117.866 148.366 117.866C148.451 117.866 149.046 118.373 149.811 118.964C153.211 121.669 157.036 122.852 167.661 124.373C173.865 125.303 177.435 125.979 180.665 127.077C190.95 130.458 197.324 137.388 198.854 146.768C199.279 149.472 199.024 154.628 198.344 157.332C197.749 159.445 196.049 163.332 195.624 163.417C195.539 163.417 195.369 162.994 195.369 162.318C195.199 158.769 193.415 155.388 190.44 152.768C186.87 149.726 182.28 147.444 171.06 142.965Z" fill="#FF007A"/>
<path d="M159.161 145.755C158.991 144.487 158.566 142.882 158.311 142.206L157.886 140.938L158.651 141.868C159.756 143.135 160.606 144.656 161.371 146.769C161.966 148.375 161.966 148.882 161.966 151.502C161.966 154.037 161.881 154.628 161.371 156.064C160.521 158.346 159.501 159.953 157.801 161.727C154.741 164.854 150.746 166.545 145.052 167.305C144.032 167.39 141.142 167.643 138.592 167.812C132.217 168.15 127.967 168.826 124.143 170.178C123.633 170.348 123.123 170.517 123.038 170.432C122.868 170.263 125.503 168.742 127.627 167.728C130.602 166.291 133.662 165.529 140.377 164.346C143.692 163.839 147.092 163.164 147.942 162.826C156.356 160.206 160.521 153.699 159.161 145.755Z" fill="#FF007A"/>
<path d="M166.896 159.36C164.686 154.543 164.176 149.98 165.366 145.67C165.536 145.247 165.706 144.825 165.876 144.825C166.046 144.825 166.556 145.078 167.066 145.416C168.086 146.092 170.211 147.275 175.65 150.233C182.535 153.952 186.445 156.825 189.165 160.121C191.545 162.994 192.99 166.29 193.67 170.347C194.095 172.629 193.84 178.122 193.245 180.403C191.375 187.587 187.125 193.333 180.92 196.629C179.985 197.136 179.22 197.474 179.135 197.474C179.05 197.474 179.39 196.629 179.9 195.615C181.94 191.305 182.195 187.164 180.665 182.516C179.73 179.643 177.775 176.178 173.865 170.347C169.191 163.586 168.086 161.811 166.896 159.36Z" fill="#FF007A"/>
<path d="M103.573 185.222C109.863 179.982 117.598 176.264 124.738 175.08C127.797 174.573 132.897 174.742 135.702 175.503C140.207 176.686 144.287 179.221 146.412 182.348C148.451 185.391 149.386 188.01 150.321 193.842C150.661 196.123 151.086 198.49 151.171 198.997C151.851 202.039 153.211 204.405 154.911 205.673C157.546 207.617 162.136 207.701 166.641 206.011C167.406 205.758 168.086 205.504 168.086 205.589C168.256 205.758 165.961 207.279 164.431 208.039C162.306 209.138 160.606 209.476 158.311 209.476C154.231 209.476 150.746 207.363 147.941 203.138C147.347 202.293 146.157 199.842 145.137 197.56C142.162 190.715 140.632 188.687 137.147 186.405C134.087 184.461 130.177 184.038 127.202 185.475C123.293 187.334 122.273 192.32 124.992 195.363C126.097 196.63 128.137 197.645 129.837 197.898C132.982 198.321 135.702 195.87 135.702 192.743C135.702 190.715 134.937 189.532 132.897 188.602C130.177 187.419 127.202 188.771 127.287 191.391C127.287 192.489 127.797 193.166 128.902 193.673C129.582 194.011 129.582 194.011 129.072 193.926C126.607 193.419 126.012 190.377 127.967 188.433C130.347 186.067 135.362 187.081 137.062 190.377C137.742 191.729 137.827 194.433 137.232 196.123C135.787 199.842 131.707 201.786 127.542 200.687C124.738 199.926 123.548 199.166 120.148 195.701C114.198 189.616 111.903 188.433 103.403 187.165L101.789 186.912L103.573 185.222Z" fill="#FF007A"/>
<path fill-rule="evenodd" clip-rule="evenodd" d="M58.8651 49.2443C78.6692 73.1606 109.183 110.345 110.713 112.373C111.988 114.063 111.478 115.669 109.353 116.852C108.163 117.528 105.698 118.204 104.508 118.204C103.148 118.204 101.533 117.528 100.428 116.429C99.6633 115.669 96.3484 110.852 88.8687 99.2743C83.174 90.4007 78.3292 83.0483 78.2442 82.9638C77.9042 82.7948 77.9042 82.7948 88.2738 101.217C94.8185 112.795 96.9434 116.936 96.9434 117.443C96.9434 118.542 96.6034 119.134 95.2435 120.655C92.9486 123.19 91.9286 126.063 91.1636 132.064C90.3137 138.74 88.0188 143.473 81.4741 151.501C77.6492 156.234 77.0543 157.079 76.1193 159.022C74.9294 161.389 74.5894 162.741 74.4194 165.783C74.2494 168.995 74.5894 171.023 75.5243 174.065C76.3743 176.769 77.3092 178.544 79.6041 182.009C81.5591 185.051 82.749 187.333 82.749 188.178C82.749 188.854 82.919 188.854 85.9789 188.178C93.2885 186.488 99.3233 183.615 102.638 180.065C104.678 177.868 105.188 176.685 105.188 173.643C105.188 171.699 105.103 171.276 104.593 170.093C103.743 168.234 102.128 166.713 98.6433 164.346C94.0535 161.22 92.0986 158.684 91.5886 155.304C91.1636 152.431 91.6736 150.487 94.2235 145.163C96.8584 139.67 97.5384 137.388 97.9633 131.81C98.2183 128.261 98.6433 126.824 99.6633 125.725C100.768 124.542 101.703 124.12 104.338 123.782C108.673 123.19 111.478 122.091 113.688 119.979C115.643 118.204 116.493 116.429 116.578 113.809L116.663 111.866L115.558 110.683C111.563 106.119 56.2302 45.6104 55.9752 45.6104C55.8902 45.6104 57.2501 47.2161 58.8651 49.2443ZM84.9589 169.417C85.8939 167.811 85.3839 165.783 83.854 164.769C82.409 163.839 80.1991 164.262 80.1991 165.53C80.1991 165.868 80.3691 166.206 80.8791 166.375C81.6441 166.797 81.7291 167.22 81.1341 168.149C80.5391 169.079 80.5391 169.924 81.3041 170.516C82.494 171.445 84.1089 170.938 84.9589 169.417Z" fill="#FF007A"/>
<path fill-rule="evenodd" clip-rule="evenodd" d="M119.383 124.966C117.343 125.557 115.388 127.755 114.793 129.952C114.453 131.304 114.623 133.755 115.218 134.516C116.153 135.699 117.003 136.037 119.383 136.037C124.058 136.037 128.052 134.008 128.477 131.558C128.902 129.529 127.117 126.741 124.653 125.473C123.378 124.797 120.743 124.543 119.383 124.966ZM124.823 129.191C125.503 128.177 125.248 127.079 123.973 126.318C121.678 124.881 118.193 126.065 118.193 128.262C118.193 129.36 119.978 130.544 121.678 130.544C122.783 130.544 124.313 129.867 124.823 129.191Z" fill="#FF007A"/>
</g>
</g>
</g>
<defs>
<clipPath id="clip0_1473_113">
<rect width="255" height="255" fill="white"/>
</clipPath>
</defs>
</svg>
