<svg width="255" height="255" viewBox="0 0 255 255" fill="none" xmlns="http://www.w3.org/2000/svg">
<g clip-path="url(#clip0_1333_2175)">
<path d="M127.5 252.5C196.536 252.5 252.5 196.536 252.5 127.5C252.5 58.4644 196.536 2.5 127.5 2.5C58.4644 2.5 2.5 58.4644 2.5 127.5C2.5 196.536 58.4644 252.5 127.5 252.5Z" fill="white" stroke="url(#paint0_linear_1333_2175)" stroke-width="5"/>
<mask id="mask0_1333_2175" style="mask-type:luminance" maskUnits="userSpaceOnUse" x="55" y="45" width="145" height="165">
<path d="M199.024 45.6099H55.9755V209.39H199.024V45.6099Z" fill="white"/>
</mask>
<g mask="url(#mask0_1333_2175)">
<path d="M112.073 82.8788C110.288 82.6253 110.203 82.5408 111.053 82.4563C112.668 82.2027 116.408 82.5408 119.043 83.1323C125.162 84.569 130.687 88.2875 136.552 94.7947L138.082 96.5694L140.292 96.2314C149.726 94.7102 159.416 95.8934 167.491 99.6118C169.701 100.626 173.185 102.654 173.61 103.161C173.78 103.33 174.035 104.429 174.205 105.528C174.8 109.499 174.545 112.457 173.27 114.739C172.59 116.007 172.59 116.345 173.015 117.443C173.355 118.289 174.375 118.88 175.31 118.88C177.35 118.88 179.475 115.669 180.495 111.19L180.92 109.415L181.685 110.26C186.02 115.077 189.42 121.753 189.93 126.486L190.1 127.754L189.335 126.655C188.06 124.711 186.87 123.444 185.255 122.345C182.365 120.401 179.305 119.81 171.23 119.387C163.921 118.965 159.756 118.373 155.676 117.021C148.706 114.739 145.137 111.781 136.892 100.879C133.237 96.0624 130.942 93.4426 128.647 91.2453C123.633 86.4282 118.618 83.8929 112.073 82.8788Z" fill="#FF007A"/>
<path d="M175.395 93.6118C175.565 90.4004 175.99 88.2876 176.925 86.3439C177.265 85.5833 177.605 84.9072 177.69 84.9072C177.775 84.9072 177.605 85.4988 177.35 86.1749C176.67 88.0341 176.585 90.6539 177.01 93.6118C177.605 97.4147 177.86 97.9218 181.94 102.063C183.81 104.006 186.02 106.457 186.87 107.471L188.315 109.331L186.87 107.978C185.085 106.288 181.005 103.077 180.07 102.654C179.475 102.316 179.39 102.316 178.965 102.739C178.625 103.077 178.54 103.584 178.54 106.035C178.455 109.838 177.945 112.204 176.67 114.655C175.99 115.922 175.905 115.669 176.5 114.232C176.925 113.134 177.01 112.627 177.01 108.993C177.01 101.64 176.16 99.8655 170.976 96.9077C169.701 96.1471 167.491 95.0484 166.216 94.4569C164.856 93.8653 163.836 93.3582 163.921 93.3582C164.091 93.1892 169.106 94.6259 171.061 95.471C174.035 96.6541 174.545 96.7386 174.885 96.6541C175.14 96.4006 175.31 95.7245 175.395 93.6118Z" fill="#FF007A"/>
<path d="M115.558 106.204C111.988 101.302 109.693 93.6962 110.203 88.034L110.373 86.2593L111.223 86.4283C112.753 86.6818 115.388 87.696 116.663 88.4565C120.063 90.4848 121.593 93.2736 123.038 100.203C123.463 102.232 124.058 104.598 124.313 105.359C124.738 106.626 126.352 109.584 127.712 111.443C128.647 112.795 128.052 113.472 125.928 113.302C122.698 112.964 118.363 110.007 115.558 106.204Z" fill="#FF007A"/>
<path d="M171.06 142.965C154.231 136.204 148.281 130.373 148.281 120.486C148.281 119.049 148.366 117.866 148.366 117.866C148.451 117.866 149.046 118.373 149.811 118.964C153.211 121.669 157.036 122.852 167.661 124.373C173.865 125.303 177.435 125.979 180.665 127.077C190.95 130.458 197.324 137.388 198.854 146.768C199.279 149.472 199.024 154.628 198.344 157.332C197.749 159.445 196.049 163.332 195.624 163.417C195.539 163.417 195.369 162.994 195.369 162.318C195.199 158.769 193.415 155.388 190.44 152.768C186.87 149.726 182.28 147.444 171.06 142.965Z" fill="#FF007A"/>
<path d="M159.161 145.754C158.991 144.486 158.566 142.881 158.311 142.205L157.886 140.937L158.651 141.867C159.756 143.134 160.606 144.655 161.371 146.768C161.966 148.374 161.966 148.881 161.966 151.501C161.966 154.036 161.881 154.628 161.371 156.064C160.521 158.346 159.501 159.952 157.801 161.726C154.741 164.853 150.746 166.544 145.052 167.304C144.032 167.389 141.142 167.642 138.592 167.811C132.217 168.149 127.967 168.825 124.143 170.177C123.633 170.347 123.123 170.516 123.038 170.431C122.868 170.262 125.503 168.741 127.627 167.727C130.602 166.29 133.662 165.529 140.377 164.346C143.692 163.839 147.092 163.163 147.942 162.825C156.356 160.205 160.521 153.698 159.161 145.754Z" fill="#FF007A"/>
<path d="M166.896 159.36C164.686 154.543 164.176 149.98 165.366 145.67C165.536 145.247 165.706 144.825 165.876 144.825C166.046 144.825 166.556 145.078 167.066 145.416C168.086 146.092 170.211 147.275 175.65 150.233C182.535 153.952 186.445 156.825 189.165 160.121C191.545 162.994 192.99 166.29 193.67 170.347C194.095 172.629 193.84 178.122 193.245 180.403C191.375 187.587 187.125 193.333 180.92 196.629C179.985 197.136 179.22 197.474 179.135 197.474C179.05 197.474 179.39 196.629 179.9 195.615C181.94 191.305 182.195 187.164 180.665 182.516C179.73 179.643 177.775 176.178 173.865 170.347C169.191 163.586 168.086 161.811 166.896 159.36Z" fill="#FF007A"/>
<path d="M103.573 185.221C109.863 179.981 117.598 176.263 124.738 175.079C127.797 174.572 132.897 174.741 135.702 175.502C140.207 176.685 144.287 179.22 146.412 182.347C148.451 185.39 149.386 188.009 150.321 193.841C150.661 196.122 151.086 198.489 151.171 198.996C151.851 202.038 153.211 204.404 154.911 205.672C157.546 207.616 162.136 207.7 166.641 206.01C167.406 205.757 168.086 205.503 168.086 205.588C168.256 205.757 165.961 207.278 164.431 208.038C162.306 209.137 160.606 209.475 158.311 209.475C154.231 209.475 150.746 207.362 147.941 203.137C147.347 202.292 146.157 199.841 145.137 197.559C142.162 190.714 140.632 188.686 137.147 186.404C134.087 184.46 130.177 184.037 127.202 185.474C123.293 187.333 122.273 192.319 124.992 195.362C126.097 196.629 128.137 197.644 129.837 197.897C132.982 198.32 135.702 195.869 135.702 192.742C135.702 190.714 134.937 189.531 132.897 188.601C130.177 187.418 127.202 188.77 127.287 191.39C127.287 192.488 127.797 193.165 128.902 193.672C129.582 194.01 129.582 194.01 129.072 193.925C126.607 193.418 126.012 190.376 127.967 188.432C130.347 186.066 135.362 187.08 137.062 190.376C137.742 191.728 137.827 194.432 137.232 196.122C135.787 199.841 131.707 201.785 127.542 200.686C124.738 199.925 123.548 199.165 120.148 195.7C114.198 189.615 111.903 188.432 103.403 187.164L101.789 186.911L103.573 185.221Z" fill="#FF007A"/>
<path fill-rule="evenodd" clip-rule="evenodd" d="M58.8651 49.2438C78.6692 73.1601 109.183 110.345 110.713 112.373C111.988 114.063 111.478 115.669 109.353 116.852C108.163 117.528 105.698 118.204 104.508 118.204C103.148 118.204 101.533 117.528 100.428 116.429C99.6633 115.669 96.3484 110.852 88.8687 99.2738C83.174 90.4002 78.3292 83.0478 78.2442 82.9633C77.9042 82.7943 77.9042 82.7943 88.2738 101.217C94.8185 112.795 96.9434 116.936 96.9434 117.443C96.9434 118.542 96.6034 119.134 95.2435 120.655C92.9486 123.19 91.9286 126.063 91.1636 132.064C90.3137 138.74 88.0188 143.473 81.4741 151.501C77.6492 156.234 77.0543 157.079 76.1193 159.022C74.9294 161.389 74.5894 162.741 74.4194 165.783C74.2494 168.995 74.5894 171.023 75.5243 174.065C76.3743 176.769 77.3092 178.544 79.6041 182.009C81.5591 185.051 82.749 187.333 82.749 188.178C82.749 188.854 82.919 188.854 85.9789 188.178C93.2885 186.488 99.3233 183.615 102.638 180.065C104.678 177.868 105.188 176.685 105.188 173.643C105.188 171.699 105.103 171.276 104.593 170.093C103.743 168.234 102.128 166.713 98.6433 164.346C94.0535 161.22 92.0986 158.684 91.5886 155.304C91.1636 152.431 91.6736 150.487 94.2235 145.163C96.8584 139.67 97.5384 137.388 97.9633 131.81C98.2183 128.261 98.6433 126.824 99.6633 125.725C100.768 124.542 101.703 124.12 104.338 123.782C108.673 123.19 111.478 122.091 113.688 119.979C115.643 118.204 116.493 116.429 116.578 113.809L116.663 111.866L115.558 110.683C111.563 106.119 56.2302 45.6099 55.9752 45.6099C55.8902 45.6099 57.2501 47.2156 58.8651 49.2438ZM84.9589 169.417C85.8939 167.811 85.3839 165.783 83.854 164.769C82.409 163.839 80.1991 164.262 80.1991 165.53C80.1991 165.868 80.3691 166.206 80.8791 166.375C81.6441 166.797 81.7291 167.22 81.1341 168.149C80.5391 169.079 80.5391 169.924 81.3041 170.516C82.494 171.445 84.1089 170.938 84.9589 169.417Z" fill="#FF007A"/>
<path fill-rule="evenodd" clip-rule="evenodd" d="M119.383 124.965C117.343 125.556 115.388 127.754 114.793 129.951C114.453 131.303 114.623 133.754 115.218 134.515C116.153 135.698 117.003 136.036 119.383 136.036C124.058 136.036 128.052 134.007 128.477 131.557C128.902 129.528 127.117 126.74 124.653 125.472C123.378 124.796 120.743 124.542 119.383 124.965ZM124.823 129.19C125.503 128.176 125.248 127.078 123.973 126.317C121.678 124.88 118.193 126.064 118.193 128.261C118.193 129.359 119.978 130.543 121.678 130.543C122.783 130.543 124.313 129.866 124.823 129.19Z" fill="#FF007A"/>
</g>
</g>
<defs>
<linearGradient id="paint0_linear_1333_2175" x1="-8.54954e-08" y1="-8.54954e-08" x2="255" y2="255" gradientUnits="userSpaceOnUse">
<stop offset="0.83" stop-color="#F0BDD6"/>
</linearGradient>
<clipPath id="clip0_1333_2175">
<rect width="255" height="255" fill="white"/>
</clipPath>
</defs>
</svg>
