<svg width="256" height="256" viewBox="0 0 256 256" fill="none" xmlns="http://www.w3.org/2000/svg">
<circle cx="128.5" cy="128.5" r="123" fill="white" stroke="url(#paint0_linear_741_46)" stroke-width="7"/>
<g clip-path="url(#clip0_741_46)">
<path d="M113.294 83.864C111.535 83.6132 111.451 83.5296 112.289 83.4461C113.881 83.1953 117.567 83.5297 120.164 84.1148C126.196 85.5358 131.642 89.2139 137.422 95.6504L138.93 97.4058L141.109 97.0714C150.408 95.5668 159.959 96.7371 167.918 100.415C170.096 101.418 173.531 103.424 173.95 103.926C174.118 104.093 174.369 105.18 174.537 106.266C175.123 110.195 174.872 113.121 173.615 115.378C172.945 116.632 172.945 116.966 173.364 118.053C173.699 118.889 174.704 119.474 175.626 119.474C177.636 119.474 179.731 116.297 180.736 111.867L181.155 110.112L181.909 110.948C186.182 115.712 189.533 122.316 190.036 126.997L190.203 128.251L189.449 127.164C188.192 125.242 187.02 123.988 185.428 122.901C182.579 120.979 179.563 120.393 171.604 119.975C164.399 119.558 160.294 118.972 156.273 117.635C149.403 115.378 145.884 112.452 137.758 101.669C134.155 96.9043 131.893 94.3129 129.631 92.1396C124.688 87.3749 119.745 84.8671 113.294 83.864Z" fill="#FF007A"/>
<path d="M175.709 94.48C175.877 91.3036 176.296 89.2138 177.217 87.2912C177.553 86.5388 177.888 85.8701 177.971 85.8701C178.055 85.8701 177.888 86.4553 177.636 87.124C176.966 88.963 176.882 91.5543 177.301 94.48C177.888 98.2416 178.139 98.7432 182.16 102.839C184.004 104.762 186.182 107.186 187.02 108.189L188.444 110.028L187.02 108.691C185.26 107.019 181.239 103.842 180.317 103.424C179.731 103.09 179.647 103.09 179.228 103.508C178.893 103.842 178.809 104.344 178.809 106.768C178.725 110.53 178.223 112.87 176.966 115.294C176.296 116.548 176.212 116.297 176.799 114.876C177.217 113.79 177.301 113.288 177.301 109.694C177.301 102.421 176.463 100.666 171.353 97.7401C170.096 96.9878 167.918 95.9011 166.661 95.3159C165.321 94.7308 164.316 94.2293 164.399 94.2293C164.567 94.0621 169.51 95.4831 171.437 96.319C174.369 97.4893 174.872 97.5729 175.207 97.4893C175.458 97.2385 175.626 96.5698 175.709 94.48Z" fill="#FF007A"/>
<path d="M116.729 106.935C113.21 102.087 110.948 94.5636 111.451 88.9629L111.619 87.2075L112.456 87.3747C113.964 87.6255 116.561 88.6286 117.818 89.3809C121.169 91.3871 122.677 94.1456 124.102 101C124.521 103.006 125.107 105.347 125.358 106.099C125.777 107.353 127.369 110.279 128.709 112.118C129.631 113.455 129.045 114.124 126.95 113.957C123.766 113.622 119.494 110.697 116.729 106.935Z" fill="#FF007A"/>
<path d="M171.437 143.297C154.848 136.61 148.984 130.842 148.984 121.062C148.984 119.641 149.068 118.471 149.068 118.471C149.152 118.471 149.738 118.972 150.492 119.557C153.843 122.232 157.613 123.403 168.086 124.907C174.201 125.827 177.72 126.495 180.904 127.582C191.041 130.926 197.324 137.78 198.832 147.059C199.251 149.734 199 154.833 198.33 157.508C197.743 159.598 196.068 163.443 195.649 163.526C195.565 163.526 195.397 163.108 195.397 162.44C195.23 158.929 193.471 155.585 190.538 152.994C187.02 149.985 182.496 147.728 171.437 143.297Z" fill="#FF007A"/>
<path d="M159.708 146.056C159.54 144.802 159.121 143.214 158.87 142.545L158.451 141.291L159.205 142.211C160.294 143.464 161.132 144.969 161.886 147.059C162.472 148.647 162.472 149.149 162.472 151.74C162.472 154.248 162.389 154.833 161.886 156.254C161.048 158.511 160.043 160.099 158.367 161.854C155.351 164.947 151.414 166.619 145.8 167.372C144.795 167.455 141.947 167.706 139.433 167.873C133.15 168.207 128.961 168.876 125.191 170.214C124.688 170.381 124.185 170.548 124.102 170.464C123.934 170.297 126.531 168.793 128.626 167.789C131.558 166.368 134.574 165.616 141.193 164.446C144.46 163.944 147.811 163.276 148.649 162.941C156.943 160.35 161.048 153.913 159.708 146.056Z" fill="#FF007A"/>
<path d="M167.332 159.514C165.153 154.749 164.651 150.235 165.824 145.972C165.991 145.554 166.159 145.136 166.326 145.136C166.494 145.136 166.996 145.387 167.499 145.721C168.504 146.39 170.599 147.56 175.961 150.486C182.747 154.164 186.601 157.006 189.282 160.266C191.627 163.108 193.052 166.368 193.722 170.381C194.141 172.638 193.889 178.071 193.303 180.328C191.46 187.433 187.271 193.118 181.155 196.378C180.234 196.879 179.48 197.214 179.396 197.214C179.312 197.214 179.647 196.378 180.15 195.375C182.16 191.111 182.412 187.015 180.904 182.418C179.982 179.576 178.055 176.149 174.201 170.381C169.594 163.694 168.504 161.938 167.332 159.514Z" fill="#FF007A"/>
<path d="M104.916 185.093C111.116 179.91 118.74 176.232 125.777 175.062C128.793 174.561 133.82 174.728 136.585 175.48C141.025 176.65 145.046 179.158 147.141 182.251C149.152 185.26 150.073 187.852 150.995 193.619C151.33 195.876 151.749 198.217 151.832 198.718C152.503 201.728 153.843 204.068 155.519 205.322C158.116 207.245 162.64 207.328 167.08 205.657C167.834 205.406 168.504 205.155 168.504 205.239C168.672 205.406 166.41 206.91 164.902 207.663C162.807 208.749 161.132 209.084 158.87 209.084C154.848 209.084 151.414 206.994 148.649 202.814C148.062 201.978 146.889 199.554 145.884 197.297C142.952 190.526 141.444 188.52 138.009 186.263C134.993 184.341 131.139 183.923 128.207 185.344C124.353 187.183 123.348 192.115 126.029 195.124C127.118 196.378 129.128 197.381 130.804 197.632C133.904 198.05 136.585 195.626 136.585 192.533C136.585 190.526 135.831 189.356 133.82 188.437C131.139 187.266 128.207 188.604 128.291 191.195C128.291 192.282 128.793 192.951 129.882 193.452C130.553 193.787 130.553 193.787 130.05 193.703C127.62 193.201 127.034 190.192 128.961 188.27C131.307 185.929 136.25 186.932 137.925 190.192C138.595 191.53 138.679 194.205 138.093 195.876C136.668 199.554 132.647 201.477 128.542 200.39C125.777 199.638 124.604 198.886 121.253 195.458C115.389 189.44 113.127 188.27 104.749 187.016L103.157 186.765L104.916 185.093Z" fill="#FF007A"/>
<path fill-rule="evenodd" clip-rule="evenodd" d="M60.8482 50.5944C80.3687 74.2508 110.445 111.031 111.953 113.037C113.21 114.709 112.707 116.297 110.613 117.467C109.44 118.136 107.01 118.805 105.838 118.805C104.497 118.805 102.905 118.136 101.816 117.05C101.062 116.297 97.7948 111.533 90.4222 100.08C84.809 91.3034 80.0336 84.031 79.9498 83.9474C79.6147 83.7802 79.6147 83.7802 89.8358 102.003C96.2867 113.455 98.3812 117.551 98.3812 118.053C98.3812 119.139 98.0461 119.724 96.7056 121.229C94.4436 123.737 93.4383 126.579 92.6843 132.514C91.8465 139.118 89.5844 143.799 83.1334 151.74C79.3634 156.421 78.7769 157.257 77.8554 159.18C76.6825 161.52 76.3474 162.858 76.1798 165.867C76.0122 169.043 76.3474 171.05 77.2689 174.059C78.1067 176.734 79.0283 178.489 81.2903 181.916C83.2172 184.926 84.3901 187.183 84.3901 188.019C84.3901 188.687 84.5577 188.687 87.5737 188.019C94.7787 186.347 100.727 183.505 103.994 179.994C106.005 177.82 106.508 176.65 106.508 173.641C106.508 171.718 106.424 171.3 105.921 170.13C105.084 168.291 103.492 166.786 100.057 164.446C95.5327 161.353 93.6058 158.845 93.1031 155.502C92.6843 152.659 93.1869 150.737 95.7003 145.471C98.2974 140.037 98.9677 137.78 99.3866 132.263C99.6379 128.752 100.057 127.331 101.062 126.245C102.151 125.074 103.073 124.656 105.67 124.322C109.943 123.737 112.707 122.65 114.886 120.56C116.813 118.805 117.65 117.05 117.734 114.458L117.818 112.536L116.729 111.365C112.791 106.851 58.2511 47 57.9998 47C57.916 47 59.2564 48.5882 60.8482 50.5944ZM86.5684 169.461C87.49 167.873 86.9873 165.867 85.4793 164.864C84.055 163.944 81.8768 164.362 81.8768 165.616C81.8768 165.95 82.0443 166.285 82.547 166.452C83.301 166.87 83.3848 167.288 82.7983 168.207C82.2119 169.127 82.2119 169.963 82.9659 170.548C84.1388 171.467 85.7306 170.966 86.5684 169.461Z" fill="#FF007A"/>
<path fill-rule="evenodd" clip-rule="evenodd" d="M120.499 125.492C118.488 126.078 116.562 128.251 115.975 130.424C115.64 131.762 115.808 134.186 116.394 134.938C117.316 136.109 118.153 136.443 120.499 136.443C125.107 136.443 129.045 134.437 129.463 132.013C129.882 130.006 128.123 127.248 125.693 125.994C124.437 125.325 121.84 125.074 120.499 125.492ZM125.861 129.672C126.531 128.669 126.28 127.582 125.023 126.83C122.761 125.409 119.326 126.579 119.326 128.752C119.326 129.839 121.086 131.009 122.761 131.009C123.85 131.009 125.358 130.341 125.861 129.672Z" fill="#FF007A"/>
</g>
<defs>
<linearGradient id="paint0_linear_741_46" x1="2" y1="2" x2="255" y2="255" gradientUnits="userSpaceOnUse">
<stop stop-color="white"/>
<stop offset="0.83" stop-color="#F0BDD6"/>
</linearGradient>
<clipPath id="clip0_741_46">
<rect width="141" height="162" fill="white" transform="translate(58 47)"/>
</clipPath>
</defs>
</svg>
