<svg width="48.000000" height="48.000000" viewBox="0 0 48 48" fill="none" xmlns="http://www.w3.org/2000/svg" xmlns:xlink="http://www.w3.org/1999/xlink">
	<desc>
	</desc>
	<defs/>
	<rect id="rectangle" rx="24.000000" width="48.000000" height="48.000000" fill="#D4FC46" fill-opacity="1.000000"/>
	<path id="path" d="M26.86 9.03C26.86 9.29 26.94 9.31 27.09 9.1C27.37 8.72 27.74 8.29 28.24 8.29C31.23 8.28 34.19 8.28 37.11 8.28C37.21 8.28 37.26 8.33 37.26 8.42C37.25 12.94 37.25 17.89 37.25 23.26C37.25 23.67 37.24 24.09 37.2 24.51C37.17 24.92 37.11 25.32 37.04 25.72C36.86 26.76 36.53 27.7 36.04 28.55C35.9 28.8 35.68 29.1 35.4 29.45C35.1 29.82 34.85 30.22 34.52 30.56C33.96 31.15 33.37 31.77 32.77 32.42C30.68 34.68 28.42 36.56 25.96 38.04C23.76 39.38 21.5 40.04 18.89 39.65C14.59 39 11.04 35.67 10.92 31.23C10.78 26.32 10.76 22.37 10.86 19.38C10.9 17.98 10.92 16.59 10.89 15.19C10.89 14.98 10.96 14.79 11.12 14.64C12.8 12.99 14.54 11.24 16.35 9.37C16.96 8.74 17.68 8.42 18.51 8.4C21.19 8.37 23.89 8.32 26.6 8.28C26.67 8.27 26.73 8.3 26.78 8.34C26.83 8.39 26.86 8.45 26.86 8.52L26.86 9.03ZM27.4 25.47C25.93 25.4 25.8 24.19 25.8 22.93C25.79 18.49 25.79 13.99 25.8 9.45C25.8 9.32 25.73 9.26 25.6 9.26L18.66 9.15C18.5 9.15 18.42 9.22 18.42 9.38C18.43 13.47 18.43 17.5 18.42 21.47C18.41 22.33 18.5 23.15 18.53 24C18.65 28.67 22.17 31.82 26.79 32.05C30.22 32.22 32.59 31.18 34.74 28.59C35.5 27.68 35.96 26.5 36.12 25.05C36.24 23.97 36.35 22.9 36.35 21.82C36.36 17.78 36.36 13.73 36.34 9.66C36.34 9.39 36.21 9.26 35.94 9.26L29.02 9.26C28.94 9.26 28.91 9.3 28.91 9.37C28.91 14.18 28.91 18.98 28.9 23.78C28.9 24.74 28.44 25.52 27.4 25.47Z" fill="#333333" fill-opacity="1.000000" fill-rule="nonzero"/>
	<path id="path" d="M27.4 25.47C28.44 25.52 28.9 24.74 28.9 23.78C28.91 18.98 28.91 14.18 28.91 9.37C28.91 9.3 28.94 9.26 29.02 9.26L35.94 9.26C36.21 9.26 36.34 9.39 36.34 9.66C36.36 13.73 36.36 17.78 36.35 21.82C36.35 22.9 36.24 23.97 36.12 25.05C35.96 26.5 35.5 27.68 34.74 28.59C32.59 31.18 30.22 32.22 26.79 32.05C22.17 31.82 18.65 28.67 18.53 24C18.5 23.15 18.41 22.33 18.42 21.47C18.43 17.5 18.43 13.47 18.42 9.38C18.42 9.22 18.5 9.15 18.66 9.15L25.6 9.26C25.73 9.26 25.8 9.32 25.8 9.45C25.79 13.99 25.79 18.49 25.8 22.93C25.8 24.19 25.93 25.4 27.4 25.47Z" fill="#D4FC46" fill-opacity="1.000000" fill-rule="nonzero"/>
</svg>
