<svg width="256" height="256" viewBox="0 0 256 256" fill="none" xmlns="http://www.w3.org/2000/svg">
<g clip-path="url(#clip0_2717_69)">
<path d="M128 256C198.692 256 256 198.692 256 128C256 57.3075 198.692 0 128 0C57.3075 0 0 57.3075 0 128C0 198.692 57.3075 256 128 256Z" fill="#2775CA"/>
<path d="M104 217C104 220 101.6 221.7 98.8 220.8C60 208.4 32 172.2 32 129.3C32 86.5 60 50.2 98.8 37.8C101.7 36.9 104 38.6 104 41.6V49.1C104 51.1 102.5 53.4 100.6 54.1C69.9 65.4 48 94.9 48 129.3C48 163.8 69.9 193.2 100.6 204.4C102.5 205.1 104 207.4 104 209.4V217Z" fill="white"/>
<path d="M136 189.3C136 191.5 134.2 193.3 132 193.3H124C121.8 193.3 120 191.5 120 189.3V176.7C102.5 174.3 94.0004 164.6 91.7004 151.2C91.3004 148.9 93.1004 146.9 95.4004 146.9H104.5C106.4 146.9 108 148.3 108.4 150.1C110.1 158 114.7 164.1 128.7 164.1C139 164.1 146.4 158.3 146.4 149.7C146.4 141.1 142.1 137.8 126.9 135.3C104.5 132.3 93.9004 125.5 93.9004 108C93.9004 94.4998 104.2 83.8998 120 81.6998V69.2998C120 67.0998 121.8 65.2998 124 65.2998H132C134.2 65.2998 136 67.0998 136 69.2998V81.9998C148.9 84.2998 157.1 91.5998 159.8 103.8C160.3 106.1 158.5 108.2 156.1 108.2H147.7C145.9 108.2 144.4 107 143.9 105.3C141.6 97.5998 136.1 94.1998 126.5 94.1998C115.9 94.1998 110.4 99.2998 110.4 106.5C110.4 114.1 113.5 117.9 129.8 120.2C151.8 123.2 163.2 129.5 163.2 148.2C163.2 162.4 152.6 173.9 136.1 176.5V189.3H136Z" fill="white"/>
<path d="M157.2 220.8C154.3 221.7 152 220 152 217V209.5C152 207.3 153.3 205.2 155.4 204.5C186 193.3 208 163.8 208 129.4C208 94.9001 186.1 65.5001 155.4 54.3001C153.5 53.6001 152 51.3001 152 49.3001V41.8001C152 38.8001 154.4 37.1002 157.2 38.0002C196 50.2002 224 86.5002 224 129.3C224 172.2 196 208.4 157.2 220.8Z" fill="white"/>
</g>
<defs>
<clipPath id="clip0_2717_69">
<rect width="256" height="256" fill="white"/>
</clipPath>
</defs>
</svg>
