<svg width="256" height="256" viewBox="0 0 256 256" fill="none" xmlns="http://www.w3.org/2000/svg">
<path d="M1.26148 110.188C11.0988 40.1923 75.8164 -8.57578 145.812 1.26146C215.808 11.0987 264.577 75.8162 254.738 145.812C244.902 215.807 180.184 264.576 110.188 254.739C40.1924 244.901 -8.57585 180.184 1.26148 110.188Z" fill="#1F7A55"/>
<path d="M213 46.015C194.616 46.015 176.726 46.0374 158.829 46C154.386 45.9926 150.945 47.689 148.277 51.321C140.379 62.0899 132.399 72.7915 124.448 83.523C120.742 88.5377 117.036 93.5445 113.278 98.6264C112.881 98.1182 112.571 97.7372 112.276 97.341C104.923 87.4015 97.5102 77.5071 90.245 67.5079C87.8208 64.1749 84.8812 62.5831 80.7475 62.6279C68.9141 62.7699 57.0807 62.6802 45.2547 62.6802H43C43.5968 63.5023 43.9726 64.0404 44.3631 64.571C59.7112 85.2047 75.0518 105.846 90.4439 126.442C91.3358 127.645 91.38 128.37 90.466 129.603C75.1255 150.244 59.8364 170.93 44.54 191.601C44.1937 192.079 43.8695 192.572 43.3463 193.327H45.601C57.427 193.327 69.2604 193.275 81.0865 193.364C84.8441 193.387 87.6515 191.982 89.8768 188.94C97.2966 178.814 104.783 168.748 112.247 158.659C112.556 158.248 112.91 157.867 113.3 157.396C113.706 157.919 114.015 158.3 114.31 158.689C125.59 173.949 136.901 189.194 148.13 204.484C150.878 208.221 154.371 210.015 158.961 210C175.82 209.94 192.679 209.977 209.537 209.977H212.631C192.273 182.468 172.15 155.281 151.991 128.049C172.313 100.734 192.561 73.5089 213 46.015ZM184.492 195.076C184.669 195.315 184.853 195.546 185.288 196.107C176.571 196.107 168.245 196.13 159.919 196.047C159.308 196.04 158.556 195.337 158.121 194.762C148.646 182.013 139.2 169.241 129.754 156.469C123.034 147.374 116.314 138.272 109.594 129.17C109.307 128.773 109.034 128.37 108.717 127.907C113.779 121.068 118.804 114.26 123.837 107.46C135.236 92.0649 146.656 76.6776 158.026 61.2528C158.814 60.1842 159.61 59.803 160.907 59.8105C168.982 59.8703 177.058 59.8404 185.428 59.8404C185.008 60.4906 184.75 60.9465 184.441 61.3649C168.326 83.0371 152.22 104.725 136.061 126.367C135.14 127.6 135.073 128.37 136.031 129.663C152.22 151.44 168.348 173.261 184.492 195.076Z" fill="white"/>
</svg>
