<svg width="256" height="256" viewBox="0 0 256 256" fill="none" xmlns="http://www.w3.org/2000/svg">
<g clip-path="url(#clip0_2087_9291)">
<path d="M128 256C198.692 256 256 198.692 256 128C256 57.3076 198.692 0 128 0C57.3076 0 0 57.3076 0 128C0 198.692 57.3076 256 128 256Z" fill="url(#paint0_linear_2087_9291)"/>
<path d="M111.308 131.444V133.069C111.308 156.36 111.308 179.651 111.308 202.941C111.308 204.773 111.306 204.776 109.454 204.777C102.885 204.778 96.3162 204.779 89.7475 204.776C88.2214 204.775 88.1707 204.725 88.1707 203.202C88.1685 188.72 88.1698 174.238 88.1685 159.756C88.1681 158.018 88.0851 157.96 86.4084 158.322C76.9316 160.369 67.3453 161.403 57.6496 161.471C56.5927 161.478 56.3169 161.116 56.3218 160.108C56.3568 153.315 56.3564 146.522 56.3227 139.729C56.3178 138.726 56.612 138.345 57.6537 138.336C68.0018 138.236 78.2038 136.919 88.1385 134.031C93.3193 132.525 98.3453 130.484 103.437 128.674C103.767 128.557 104.061 128.341 104.62 128.035C104.025 127.703 103.676 127.466 103.296 127.302C95.2457 123.848 86.9192 121.325 78.3011 119.72C71.4943 118.453 64.6359 117.815 57.7259 117.678C56.6559 117.657 56.3142 117.338 56.3204 116.264C56.3599 109.471 56.3555 102.678 56.3245 95.8843C56.3204 94.874 56.6442 94.487 57.6797 94.5125C64.1749 94.6735 70.6543 95.0363 77.0764 96.0637C80.4249 96.5991 83.7568 97.2395 87.0887 97.8709C88.0012 98.044 88.1811 97.6556 88.1775 96.8601C88.1586 92.2694 88.169 87.6783 88.1694 83.0872C88.1694 73.0095 88.1685 62.9318 88.1703 52.8545C88.1707 51.2347 88.1761 51.2311 89.7883 51.2307C96.4691 51.2298 103.149 51.2289 109.83 51.2311C111.3 51.232 111.307 51.2379 111.307 52.7437C111.308 69.8386 111.319 86.9335 111.283 104.028C111.281 105.14 111.673 105.641 112.65 106.115C117.515 108.475 122.351 110.897 127.153 113.38C128.083 113.86 128.687 113.893 129.529 113.227C149.539 97.3906 163.244 77.2759 170.527 52.8132C170.894 51.5818 171.415 51.1885 172.688 51.1999C179.555 51.2634 186.422 51.2289 193.289 51.232C194.783 51.2325 194.921 51.4074 194.562 52.85C187.254 82.2415 172.159 106.88 149.4 126.838C148.047 128.024 148.043 128.018 149.421 129.223C169.06 146.382 183.105 167.285 191.349 192.041C192.573 195.717 193.519 199.487 194.56 203.223C194.938 204.577 194.754 204.773 193.309 204.774C186.33 204.78 179.351 204.756 172.371 204.8C171.304 204.806 170.886 204.396 170.59 203.42C160.981 171.756 141.655 147.94 112.746 131.878C112.454 131.716 112.147 131.578 111.838 131.45C111.745 131.411 111.623 131.444 111.308 131.444Z" fill="url(#paint1_radial_2087_9291)"/>
</g>
<defs>
<linearGradient id="paint0_linear_2087_9291" x1="25070.3" y1="529.686" x2="1061.6" y2="24538.4" gradientUnits="userSpaceOnUse">
<stop stop-color="#282A2D"/>
<stop offset="1" stop-color="#354252"/>
</linearGradient>
<radialGradient id="paint1_radial_2087_9291" cx="0" cy="0" r="1" gradientUnits="userSpaceOnUse" gradientTransform="translate(18447.3 -6703.22) rotate(-91.6009) scale(15187.5 18935.4)">
<stop stop-color="#1E89DD"/>
<stop offset="1" stop-color="#60FBD0"/>
</radialGradient>
<clipPath id="clip0_2087_9291">
<rect width="256" height="256" fill="white"/>
</clipPath>
</defs>
</svg>
