<svg width="256" height="256" viewBox="0 0 256 256" fill="none" xmlns="http://www.w3.org/2000/svg">
<g clip-path="url(#clip0_741_46)">
<path d="M104.643 188.928C110.943 212.146 133.547 229.857 144.963 229.123C145.363 229.098 188.26 221.131 211.743 182.06C230.013 151.648 223.798 122.288 198.941 121.648C190.001 122.297 92.6444 144.705 104.649 188.934M196.623 39.8184L196.598 39.7964L196.632 39.7745C180.977 26.5115 161.878 17.9238 141.537 15.0006C121.195 12.0775 100.438 14.938 81.6572 23.2524C79.2816 24.2366 76.9675 25.3618 74.7272 26.6221C73.1963 27.4347 71.6654 28.241 70.1786 29.1321L70.5409 29.245C66.1448 32.2257 62.2576 35.8898 59.0276 40.0976C27.7418 81.2899 132.681 111.244 188.795 111.331C214.597 129.786 221.842 59.3713 196.623 39.8184Z" fill="#0E3CA5"/>
<path d="M87.995 40.6501C73.5774 62.2361 25.5557 77.4436 17.6586 75.0747L17.6051 74.9744C17.9201 74.3249 18.2571 73.6754 18.591 73.0322C26.7802 57.3216 38.4975 43.7043 52.8315 33.2393C55.7862 31.0807 58.8459 29.0633 62.0106 27.1871C66.8761 24.5114 72.3264 23.0656 77.8835 22.9766C99.2688 23.3844 88.1021 40.4838 87.9887 40.6564M76.1636 193.173C77.1999 199.954 76.1384 226.745 74.7461 228.997C73.5459 229.07 71.048 229.223 63.8124 225.179C40.7083 212.048 22.8832 191.353 13.3681 166.611C3.85306 141.869 3.23537 114.608 11.6201 89.4633C12.0044 88.3129 12.4065 87.1698 12.8265 86.034C21.1142 97.0153 30.7059 106.949 38.8581 118.037C46.6229 128.594 57.3045 145.807 59.478 149.487C72.9726 172.318 75.1241 186.406 76.1541 193.177M235.695 125.658C235.713 140.055 232.998 154.326 227.694 167.719C214.149 182.214 122.85 146.531 121.955 146.139C109.465 140.689 71.4575 124.108 68.0271 98.0663C63.11 60.5732 139.434 34.4567 172.982 33.4684C177.005 33.5154 189.245 33.6566 196.383 39.4296C208.745 50.1672 218.65 63.4204 225.432 78.2953C232.214 93.1702 235.713 109.321 235.695 125.658ZM173.889 227.225C163.938 231.853 152.979 228.48 155.827 218.829C161.292 200.289 209.018 181.282 219.558 180.237C220.859 180.109 221.41 180.99 220.834 181.998C209.853 201.23 193.564 216.921 173.899 227.209" fill="#5493F7"/>
<path d="M56.6084 245.387C56.4679 247.481 57.1578 249.545 58.5298 251.137C59.9017 252.729 61.8461 253.721 63.9448 253.899C160.65 254.558 254 250.134 254 235.702C254 192.015 56.6084 245.387 56.6084 245.387Z" fill="url(#paint0_linear_741_46)"/>
<path d="M56.6084 245.387C56.4658 247.487 57.1595 249.558 58.5392 251.151C59.919 252.744 61.8736 253.732 63.9794 253.899C160.659 254.631 253.883 251.606 254 235.702C254 192.015 56.6084 245.387 56.6084 245.387ZM63.9825 253.344C63.7247 253.344 63.467 253.329 63.2108 253.3C61.7371 253.095 60.357 252.46 59.2436 251.477C58.1302 250.494 57.3329 249.205 56.9517 247.772C57.3652 249.325 58.2729 250.703 59.5388 251.699C60.8046 252.695 62.3604 253.256 63.9731 253.297C160.587 252.695 252.485 223.064 252.485 236.11C252.485 249.425 160.593 254 63.9825 253.344Z" fill="url(#paint1_linear_741_46)"/>
<path d="M63.9889 121.666C63.0194 121.666 62.0594 121.857 61.1638 122.226C60.2681 122.596 59.4544 123.138 58.769 123.821C58.0836 124.504 57.54 125.314 57.1693 126.207C56.7986 127.099 56.608 128.055 56.6084 129.021V245.387C56.6059 247.331 57.3764 249.196 58.7513 250.575C60.1263 251.954 61.9936 252.734 63.9448 252.745C160.643 252.023 254.117 220.143 254 235.708V104.633C254.117 89.0709 160.675 120.948 63.9889 121.666Z" fill="url(#paint2_linear_741_46)"/>
<path d="M78.2458 201.983C81.6887 201.848 85.0624 201.704 88.3762 201.519C91.69 201.334 94.9345 201.124 98.1254 200.891C101.316 200.659 104.444 200.389 107.531 200.11C110.618 199.831 113.661 199.545 116.666 199.247C119.671 198.949 122.636 198.639 125.565 198.306C131.338 197.653 137.105 196.945 142.865 196.182C145.716 195.802 148.535 195.417 151.37 195.006C154.205 194.595 156.993 194.155 159.818 193.722C162.644 193.289 165.488 192.853 168.323 192.405C171.158 191.956 174.022 191.501 176.885 191.024C179.748 190.547 182.63 190.042 185.551 189.543C188.471 189.044 191.428 188.542 194.418 188.025C197.407 187.507 200.434 186.989 203.502 186.456C206.57 185.922 209.68 185.367 212.848 184.837C216.017 184.307 219.243 183.786 222.528 183.287C225.814 182.788 228.828 182.346 232.923 181.831C237.388 181.199 241.899 180.96 246.405 181.116C250.642 181.401 253.997 182.474 253.997 185.417V175.327C253.997 172.422 250.781 171.38 246.834 171.057C242.626 170.844 238.408 171.02 234.234 171.584C230.299 172.033 227.464 172.463 224.503 172.899C221.542 173.335 218.654 173.79 215.813 174.254C212.971 174.718 210.174 175.195 207.396 175.675C204.617 176.155 201.852 176.648 199.067 177.134C196.283 177.621 193.476 178.104 190.625 178.59L181.909 180.084C178.942 180.592 175.924 181.103 172.774 181.615C169.624 182.126 166.336 182.634 162.924 183.158C159.513 183.682 155.972 184.241 152.274 184.787V174.703C155.972 174.16 159.519 173.598 162.924 173.074C166.329 172.55 169.618 172.036 172.774 171.531C175.93 171.026 178.954 170.508 181.909 169.997C184.864 169.485 187.778 168.993 190.628 168.506L199.067 167.05L207.396 165.591C210.174 165.105 212.968 164.65 215.813 164.17C218.657 163.69 221.539 163.254 224.503 162.815C227.468 162.376 230.299 161.946 234.234 161.5C238.409 160.94 242.626 160.762 246.834 160.97C250.784 161.284 254 162.338 254 165.24V155.169C254 152.27 250.784 151.222 246.837 150.895C242.629 150.688 238.412 150.865 234.237 151.426C230.303 151.877 227.471 152.301 224.507 152.74C221.542 153.18 218.657 153.631 215.816 154.096C212.974 154.56 210.177 155.037 207.399 155.517C204.621 155.997 201.855 156.496 199.07 156.979L190.628 158.435C187.778 158.924 184.883 159.414 181.912 159.925C178.942 160.437 175.927 160.948 172.777 161.453C169.627 161.958 166.339 162.476 162.927 163C159.516 163.524 155.975 164.082 152.28 164.625V154.544C155.972 153.998 159.525 153.446 162.93 152.916C166.336 152.386 169.624 151.877 172.78 151.372C175.937 150.867 178.954 150.353 181.915 149.841L190.635 148.351C193.47 147.861 196.289 147.381 199.073 146.895L207.402 145.436C213.093 144.439 218.796 143.513 224.51 142.659C227.474 142.227 230.306 141.79 234.24 141.342C238.415 140.784 242.633 140.608 246.84 140.815C250.787 141.128 254.003 142.186 254.003 145.088V134.995C254.003 132.092 250.787 131.054 246.84 130.728C242.633 130.518 238.415 130.694 234.24 131.255C230.306 131.703 227.474 132.133 224.51 132.569C221.546 133.005 218.66 133.463 215.819 133.925C212.978 134.386 210.18 134.866 207.402 135.343L199.073 136.808L190.631 138.261C187.781 138.75 184.886 139.236 181.915 139.751C178.945 140.266 175.93 140.774 172.78 141.279C169.63 141.784 166.339 142.302 162.924 142.829C159.509 143.356 155.969 143.911 152.277 144.457V134.373C155.969 133.827 159.503 133.269 162.921 132.742C166.339 132.215 169.624 131.706 172.78 131.195C175.937 130.684 178.945 130.175 181.915 129.667L190.635 128.177C193.47 127.687 196.289 127.21 199.073 126.721C201.858 126.232 204.621 125.745 207.402 125.262C210.184 124.779 212.974 124.299 215.819 123.838C218.663 123.376 221.546 122.921 224.507 122.485C227.468 122.049 230.306 121.619 234.24 121.171C238.415 120.61 242.633 120.433 246.84 120.641C250.79 120.954 254.006 122.012 254.006 124.911V114.83C254.006 111.928 250.79 110.883 246.843 110.557C242.636 110.351 238.418 110.528 234.243 111.087C230.309 111.535 227.477 111.962 224.513 112.401C221.549 112.841 218.663 113.292 215.822 113.757C212.981 114.221 210.184 114.698 207.405 115.178C204.627 115.658 201.861 116.157 199.077 116.64C196.292 117.123 193.485 117.607 190.638 118.09L181.919 119.586C175.598 120.674 169.266 121.698 162.924 122.658C159.506 123.185 155.969 123.74 152.277 124.289V114.064C123.057 118.62 93.5568 121.16 63.9857 121.666C63.0162 121.666 62.0562 121.857 61.1606 122.226C60.265 122.596 59.4512 123.138 58.7658 123.821C58.0804 124.504 57.5369 125.314 57.1662 126.207C56.7954 127.099 56.6048 128.055 56.6053 129.021V202.438C60.3853 202.438 64.0645 202.391 67.6681 202.313C71.2717 202.234 74.7997 202.115 78.2458 201.983Z" fill="url(#paint3_linear_741_46)"/>
<path d="M78.23 222.151C81.6792 222.019 85.0497 221.869 88.3635 221.687C91.6773 221.505 94.925 221.288 98.1285 221.059C101.332 220.83 104.444 220.564 107.531 220.281C110.618 219.999 113.661 219.72 116.666 219.415C119.671 219.111 122.651 218.807 125.565 218.474C131.336 217.817 137.1 217.11 142.859 216.353C145.706 215.973 148.529 215.581 151.364 215.173C154.199 214.766 156.993 214.323 159.815 213.887C162.637 213.451 165.485 213.021 168.32 212.576C171.155 212.13 174.021 211.666 176.888 211.192C179.754 210.718 182.637 210.213 185.557 209.711L194.421 208.192C197.41 207.678 200.441 207.16 203.505 206.624C206.57 206.087 209.686 205.538 212.855 205.005C216.024 204.471 219.249 203.954 222.535 203.455C225.82 202.956 228.816 202.514 232.93 201.999C237.393 201.363 241.905 201.122 246.412 201.281C250.648 201.569 254.003 202.645 254.003 205.585V195.492C254.003 192.552 250.648 191.473 246.415 191.187C241.907 191.029 237.395 191.269 232.93 191.903C228.813 192.405 225.817 192.866 222.535 193.361C219.252 193.857 216.024 194.375 212.855 194.908C209.686 195.442 206.577 195.984 203.509 196.527C200.441 197.07 197.413 197.588 194.421 198.096C191.428 198.604 188.477 199.109 185.557 199.615C182.637 200.12 179.754 200.619 176.891 201.095C174.028 201.572 171.168 202.037 168.323 202.476L159.818 203.797C156.983 204.236 154.186 204.669 151.367 205.077C148.547 205.485 145.716 205.883 142.862 206.257C140.008 206.63 137.148 206.997 134.268 207.352C131.389 207.706 128.498 208.054 125.568 208.378C122.639 208.701 119.675 209.005 116.669 209.319C113.664 209.633 110.621 209.902 107.534 210.182C104.447 210.461 101.316 210.728 98.1285 210.963C94.9407 211.198 91.6868 211.412 88.3635 211.59C85.0403 211.769 81.6761 211.923 78.23 212.055C74.7839 212.186 71.2622 212.296 67.6554 212.368C64.0487 212.441 60.3726 212.5 56.5989 212.5V222.581C63.8112 222.559 71.0226 222.416 78.23 222.151Z" fill="url(#paint4_linear_741_46)"/>
<path d="M246.408 211.352C241.902 211.196 237.391 211.435 232.926 212.067C228.809 212.572 225.814 213.027 222.532 213.526C219.249 214.025 216.024 214.543 212.855 215.073C209.686 215.603 206.555 216.152 203.502 216.692C200.45 217.232 197.407 217.756 194.418 218.261L185.551 219.779C182.63 220.278 179.748 220.786 176.882 221.26C174.015 221.734 171.158 222.201 168.314 222.641C165.469 223.08 162.644 223.525 159.809 223.955C156.974 224.385 154.177 224.824 151.354 225.239C148.532 225.653 145.684 226.048 142.849 226.421C137.091 227.177 131.326 227.884 125.556 228.542C122.626 228.869 119.662 229.17 116.657 229.484C113.652 229.797 110.612 230.07 107.522 230.35C104.432 230.629 101.304 230.892 98.116 231.128C94.9282 231.363 91.6742 231.573 88.351 231.755C77.7725 232.332 67.1807 232.636 56.5864 232.665V242.768C60.3664 242.768 64.0519 242.726 67.6429 242.642C71.2339 242.559 74.7587 242.454 78.2174 242.329C81.6667 242.197 85.0372 242.046 88.351 241.864C91.6648 241.682 94.9124 241.466 98.116 241.237C101.32 241.008 104.435 240.735 107.522 240.459C110.609 240.182 113.649 239.897 116.657 239.596C119.665 239.295 122.642 238.987 125.556 238.655C128.469 238.322 131.38 237.983 134.259 237.625C137.138 237.268 139.998 236.913 142.846 236.534C145.694 236.154 148.516 235.765 151.351 235.354C154.186 234.943 156.98 234.5 159.806 234.071C162.631 233.641 165.476 233.198 168.311 232.753C171.146 232.307 174.009 231.849 176.879 231.369C179.748 230.889 182.634 230.39 185.554 229.888L194.418 228.373L203.499 226.804C206.567 226.268 209.683 225.715 212.855 225.185C216.027 224.655 219.246 224.134 222.532 223.635C225.817 223.136 228.831 222.694 232.926 222.183C237.391 221.552 241.902 221.313 246.408 221.467C250.645 221.747 254 222.823 254 225.766V215.653C254 212.711 250.645 211.644 246.408 211.352Z" fill="url(#paint5_linear_741_46)"/>
<path d="M77.6 191.928C80.813 191.808 83.9 191.673 86.9334 191.513C89.9669 191.353 92.9184 191.175 95.8164 190.971C98.7144 190.767 101.6 190.541 104.466 190.296C110.314 189.79 116.156 189.228 121.993 188.611C125.017 188.291 128.104 187.943 131.311 187.554C134.517 187.165 137.856 186.754 141.34 186.299C144.824 185.844 148.466 185.358 152.271 184.787V114.067C123.056 118.622 93.5609 121.161 63.9951 121.666C63.0257 121.666 62.0657 121.857 61.17 122.226C60.2744 122.596 59.4606 123.138 58.7753 123.821C58.0899 124.504 57.5463 125.314 57.1756 126.207C56.8049 127.099 56.6143 128.055 56.6147 129.021V192.351C60.4419 192.351 64.0802 192.307 67.5672 192.229C71.0543 192.15 74.3838 192.044 77.6 191.928Z" fill="url(#paint6_linear_741_46)"/>
<path d="M79.3829 124.641C79.0207 125.767 78.8443 126.332 78.4852 127.465L75.5746 127.572L77.9276 129.216L77.0267 132.039C77.9717 131.315 78.4411 130.96 79.3829 130.232C80.3279 130.888 80.7878 131.208 81.736 131.857C81.3706 130.759 81.1942 130.21 80.8351 129.109L83.1913 127.28C82.0258 127.336 81.4399 127.352 80.2775 127.405L79.3829 124.641Z" fill="url(#paint7_linear_741_46)"/>
<path d="M87.7934 159.43L86.8957 162.269L83.9788 162.413L86.335 164.023C85.9759 165.156 85.7963 165.724 85.4341 166.847C86.3791 166.116 86.8516 165.745 87.7934 165.002C88.7384 165.629 89.2109 165.943 90.1559 166.589L89.2519 163.854L91.6144 161.987C90.4457 162.062 89.863 162.097 88.6975 162.159L87.7934 159.43Z" fill="url(#paint8_linear_741_46)"/>
<path d="M88.6975 176.24L87.7934 173.501L86.8957 176.344L83.9788 176.485C84.9238 177.131 85.3931 177.457 86.335 178.094C85.9759 179.23 85.7963 179.795 85.4341 180.918C86.3791 180.181 86.8516 179.81 87.7934 179.067C88.7384 179.694 89.2109 180.027 90.1559 180.661L89.2519 177.925L91.6144 176.058C90.4457 176.143 89.863 176.19 88.6975 176.24Z" fill="url(#paint9_linear_741_46)"/>
<path d="M79.3798 152.784C79.0175 153.917 78.838 154.475 78.482 155.608C77.3165 155.655 76.7338 155.68 75.5714 155.715C76.5164 156.37 76.9795 156.703 77.9213 157.352L77.0267 160.176C77.9717 159.455 78.4379 159.087 79.3798 158.36C80.3248 159.012 80.7878 159.338 81.736 159.991C81.3706 158.89 81.191 158.341 80.8319 157.236L83.1913 155.41C82.0258 155.464 81.4399 155.492 80.2775 155.536L79.3798 152.784Z" fill="url(#paint10_linear_741_46)"/>
<path d="M79.3766 166.856L78.482 169.68C77.3165 169.717 76.7306 169.746 75.5682 169.786L77.9213 171.424L77.0235 174.248L79.3766 172.425L81.7359 174.053C81.3705 172.952 81.191 172.406 80.8319 171.302C81.7769 170.577 82.2462 170.204 83.1912 169.473L80.2775 169.598L79.3766 166.856Z" fill="url(#paint11_linear_741_46)"/>
<path d="M79.3829 138.712L78.482 141.536L75.5714 141.643L77.9245 143.284L77.0267 146.107C77.9717 145.386 78.4411 145.022 79.3829 144.294C80.3279 144.947 80.7878 145.273 81.736 145.922C81.3706 144.824 81.191 144.272 80.8319 143.171L83.1913 141.342C82.0258 141.395 81.443 141.423 80.2775 141.47C79.9216 140.363 79.7389 139.817 79.3829 138.712Z" fill="url(#paint12_linear_741_46)"/>
<path d="M104.633 172.315L103.736 175.177C102.567 175.277 101.981 175.321 100.815 175.418C101.76 176.046 102.233 176.36 103.175 176.953L102.277 179.817L104.633 177.897L106.989 179.412C106.688 178.509 106.387 177.606 106.089 176.702L108.445 174.763C107.276 174.872 106.693 174.92 105.531 175.023C105.172 173.938 105.005 173.401 104.633 172.315Z" fill="url(#paint13_linear_741_46)"/>
<path d="M87.7934 145.358L86.8957 148.197C85.727 148.26 85.1443 148.285 83.9788 148.342L86.335 149.948L85.4341 152.788L87.7934 150.94C88.7384 151.567 89.2109 151.881 90.1559 152.527C89.7968 151.435 89.611 150.886 89.2519 149.788L91.6144 147.928C90.4457 147.997 89.863 148.037 88.6975 148.097L87.7934 145.358Z" fill="url(#paint14_linear_741_46)"/>
<path d="M96.2196 165.94L95.3156 168.795L92.405 168.974L94.7675 170.543L93.8666 173.388L96.2259 171.506L98.5853 173.056L97.6844 170.332C98.6294 169.576 99.0987 169.194 100.041 168.431L97.1268 168.651C96.8178 167.749 96.5154 166.846 96.2196 165.94Z" fill="url(#paint15_linear_741_46)"/>
<path d="M97.13 182.738L96.2291 180.015L95.325 182.867C94.1627 182.948 93.5768 182.983 92.4081 183.058L94.7706 184.627L93.8697 187.482C94.8147 186.732 95.2841 186.346 96.2291 185.599C97.1741 186.227 97.6434 186.541 98.5884 187.152L97.6875 184.429C98.6325 183.67 99.1019 183.293 100.044 182.528L97.13 182.738Z" fill="url(#paint16_linear_741_46)"/>
<path d="M87.7934 131.286L86.8957 134.11C85.727 134.173 85.1443 134.198 83.9788 134.257L86.335 135.867C85.9759 137.003 85.7963 137.571 85.4341 138.691C86.3791 137.953 86.8516 137.586 87.7934 136.843C88.7384 137.47 89.2109 137.784 90.1559 138.433L89.2519 135.694C90.1969 134.954 90.6662 134.574 91.6144 133.828C90.4457 133.9 89.863 133.937 88.6975 134L87.7934 131.286Z" fill="url(#paint17_linear_741_46)"/>
<path d="M96.2134 151.871L95.3156 154.723C94.147 154.798 93.5705 154.842 92.4019 154.911L94.7612 156.48L93.8572 159.332L96.2197 157.45L98.579 158.999L97.6781 156.273L100.034 154.39L97.1206 154.61L96.2134 151.871Z" fill="url(#paint18_linear_741_46)"/>
<path d="M80.2775 183.685L79.3766 180.931L78.4788 183.754L75.5682 183.864C76.5132 184.514 76.9794 184.849 77.9213 185.502L77.0235 188.326L79.3766 186.509L81.7359 188.141L80.8319 185.389L83.1912 183.56L80.2775 183.685Z" fill="url(#paint19_linear_741_46)"/>
<path d="M62.5367 153.242L61.6326 156.044C60.464 156.044 59.8781 156.044 58.7126 156.063C59.6576 156.747 60.1301 157.092 61.0751 157.77L60.171 160.571L62.5335 158.818C63.4785 159.498 63.951 159.831 64.896 160.509L63.9983 157.735L66.3576 155.969C65.189 155.987 64.6062 156.006 63.4376 156.019L62.5367 153.242Z" fill="url(#paint20_linear_741_46)"/>
<path d="M62.5367 139.167L61.6326 141.966C60.464 141.966 59.8781 141.982 58.7126 141.985L61.0751 143.692L60.1742 146.494L62.5367 144.746L64.896 146.431L63.9983 143.654C64.9433 142.951 65.4126 142.603 66.3576 141.891C65.1921 141.913 64.6062 141.922 63.4376 141.938L62.5367 139.167Z" fill="url(#paint21_linear_741_46)"/>
<path d="M63.425 184.165L62.521 181.389L61.6169 184.184C60.4483 184.2 59.8655 184.203 58.7 184.209L61.0625 185.913L60.1616 188.718L62.521 186.967L64.8835 188.658C64.5817 187.731 64.2814 186.803 63.9826 185.875L66.3419 184.112C65.1859 184.14 64.6063 184.143 63.425 184.165Z" fill="url(#paint22_linear_741_46)"/>
<path d="M93.8571 145.261L96.2133 143.378C97.1583 144.006 97.634 144.319 98.5758 144.931L97.6781 142.205L100.034 140.3C98.8656 140.394 98.286 140.438 97.1205 140.523L96.2165 137.803L95.3156 140.648C94.1532 140.73 93.5673 140.765 92.3987 140.843L94.7612 142.412L93.8571 145.261Z" fill="url(#paint23_linear_741_46)"/>
<path d="M93.8571 131.186C94.8021 130.436 95.2746 130.059 96.2165 129.303C97.1615 129.931 97.634 130.245 98.5758 130.853L97.6781 128.13C98.6231 127.374 99.0924 126.991 100.034 126.229C98.8656 126.323 98.286 126.363 97.1205 126.448L96.2165 123.722L95.3156 126.574C94.1532 126.658 93.5673 126.696 92.3987 126.768L94.7612 128.337L93.8571 131.186Z" fill="url(#paint24_linear_741_46)"/>
<path d="M62.5367 167.314L61.6295 170.116H58.7126L61.0751 171.832L60.171 174.627L62.5335 172.877L64.896 174.565L63.9983 171.788L66.3545 170.025C65.189 170.047 64.6062 170.056 63.4376 170.072L62.5367 167.314Z" fill="url(#paint25_linear_741_46)"/>
<path d="M70.9661 131.951L70.0652 134.759C68.8997 134.787 68.3169 134.806 67.1451 134.831L69.5076 136.504L68.6067 139.327L70.9661 137.539L73.3286 139.196L72.4245 136.432L74.7839 134.631L71.8733 134.722C71.5079 133.617 71.3283 133.065 70.9661 131.951Z" fill="url(#paint26_linear_741_46)"/>
<path d="M70.9661 146.032L70.0652 148.856L67.1451 148.925C68.0901 149.596 68.5626 149.926 69.5076 150.591C69.1454 151.714 68.9658 152.282 68.6067 153.415C69.5517 152.699 70.0211 152.348 70.9629 151.63C71.9079 152.295 72.3836 152.621 73.3286 153.28L72.4245 150.519L74.7839 148.721L71.867 148.812C71.5047 147.689 71.3283 147.14 70.9661 146.032Z" fill="url(#paint27_linear_741_46)"/>
<path d="M71.8639 176.94L70.963 174.176L70.0621 177C68.8934 177.031 68.3075 177.043 67.1389 177.069L69.5045 178.738L68.6005 181.561L70.9598 179.776L73.3255 181.433L72.4214 178.669L74.7808 176.868L71.8639 176.94Z" fill="url(#paint28_linear_741_46)"/>
<path d="M70.9629 160.104L70.062 162.928C68.8965 162.956 68.3106 162.975 67.1451 162.994L69.5045 164.666C69.1422 165.789 68.9627 166.357 68.6036 167.49L70.9629 165.701L73.3254 167.358C72.9663 166.253 72.7868 165.701 72.4214 164.597C73.3664 163.882 73.842 163.514 74.7839 162.793C73.6152 162.83 73.0325 162.856 71.867 162.89L70.9629 160.104Z" fill="url(#paint29_linear_741_46)"/>
<path d="M62.5367 125.093L61.6358 127.895C60.4671 127.895 59.8781 127.913 58.7126 127.92C59.6576 128.604 60.1332 128.949 61.0751 129.623L60.1742 132.419L62.5367 130.678C63.4817 131.355 63.9542 131.688 64.8992 132.359L64.0014 129.586L66.3639 127.819C65.1953 127.844 64.6062 127.857 63.4376 127.873L62.5367 125.093Z" fill="url(#paint30_linear_741_46)"/>
<path d="M104.633 158.247L103.736 161.108C102.567 161.208 101.987 161.252 100.819 161.346C101.764 161.974 102.233 162.269 103.175 162.878L102.277 165.745C103.222 164.98 103.691 164.591 104.633 163.822L106.99 165.337L106.089 162.63L108.445 160.691C107.276 160.801 106.693 160.848 105.531 160.951C105.172 159.875 105.005 159.332 104.633 158.247Z" fill="url(#paint31_linear_741_46)"/>
<path d="M138.294 154.651L137.39 157.553L134.47 157.92L136.829 159.351L135.925 162.253L138.291 160.232C139.236 160.797 139.709 161.086 140.654 161.654L139.749 158.981L142.115 156.948L139.195 157.327L138.294 154.651Z" fill="url(#paint32_linear_741_46)"/>
<path d="M138.294 140.58C137.932 141.744 137.749 142.318 137.39 143.482C136.221 143.629 135.636 143.705 134.47 143.843C135.415 144.423 135.888 144.705 136.833 145.28L135.932 148.179C136.877 147.369 137.349 146.971 138.294 146.158L140.657 147.579L139.753 144.909L142.118 142.873C140.953 143.024 140.364 143.105 139.198 143.253L138.294 140.58Z" fill="url(#paint33_linear_741_46)"/>
<path d="M139.192 171.396L138.291 168.723L137.387 171.628C136.221 171.769 135.636 171.851 134.47 171.989L136.829 173.423L135.925 176.325L138.288 174.304C139.233 174.872 139.709 175.155 140.65 175.726L139.749 173.056L142.112 171.019L139.192 171.396Z" fill="url(#paint34_linear_741_46)"/>
<path d="M129.89 134.574C129.534 135.732 129.358 136.312 128.995 137.473L126.091 137.806L128.441 139.259L127.546 142.154C128.491 141.357 128.951 140.956 129.89 140.156L132.243 141.596L131.342 138.917L133.705 136.905L130.788 137.26C130.476 136.369 130.176 135.474 129.89 134.574Z" fill="url(#paint35_linear_741_46)"/>
<path d="M138.297 126.504L137.39 129.407C136.221 129.554 135.639 129.626 134.47 129.767L136.836 131.204L135.932 134.11C136.877 133.303 137.349 132.889 138.294 132.083L140.66 133.51C140.36 132.618 140.059 131.726 139.756 130.834C140.701 130.028 141.176 129.611 142.121 128.798L139.198 129.178L138.297 126.504Z" fill="url(#paint36_linear_741_46)"/>
<path d="M129.89 120.506C129.534 121.66 129.358 122.244 128.995 123.402L126.091 123.734C127.036 124.312 127.505 124.607 128.441 125.187L127.546 128.08C128.491 127.283 128.951 126.881 129.89 126.081L132.246 127.521L131.345 124.845C132.29 124.039 132.756 123.637 133.705 122.834L130.788 123.188C130.477 122.298 130.178 121.404 129.89 120.506Z" fill="url(#paint37_linear_741_46)"/>
<path d="M146.724 146.503L145.82 149.418C144.654 149.575 144.071 149.656 142.906 149.807L145.265 151.215L144.361 154.127L146.72 152.081L149.077 153.478C148.714 152.414 148.538 151.881 148.179 150.814C149.124 149.992 149.59 149.584 150.529 148.756C149.366 148.925 148.787 149 147.624 149.167L146.724 146.503Z" fill="url(#paint38_linear_741_46)"/>
<path d="M146.73 132.431L145.826 135.34C144.66 135.503 144.078 135.578 142.909 135.735C143.854 136.303 144.323 136.576 145.265 137.137L144.364 140.055L146.727 138.003L149.08 139.406C148.718 138.339 148.541 137.806 148.182 136.736C149.127 135.914 149.593 135.506 150.532 134.681L147.628 135.092L146.73 132.431Z" fill="url(#paint39_linear_741_46)"/>
<path d="M147.612 177.313L146.714 174.649L145.81 177.561C144.648 177.721 144.062 177.799 142.9 177.953L145.256 179.362L144.352 182.28C145.297 181.464 145.772 181.047 146.714 180.225L149.067 181.627L148.166 178.96L150.519 176.902C149.357 177.072 148.79 177.153 147.612 177.313Z" fill="url(#paint40_linear_741_46)"/>
<path d="M146.733 118.354L145.829 121.268C144.664 121.428 144.078 121.51 142.909 121.664L145.275 123.069L144.367 125.978L146.733 123.935C147.678 124.494 148.144 124.776 149.086 125.328C148.727 124.265 148.544 123.731 148.188 122.664C149.133 121.842 149.596 121.435 150.535 120.606C149.376 120.776 148.796 120.86 147.634 121.02L146.733 118.354Z" fill="url(#paint41_linear_741_46)"/>
<path d="M146.72 160.578L145.816 163.489L142.903 163.878L145.259 165.29L144.358 168.199L146.717 166.156L149.07 167.549L148.173 164.885C149.118 164.063 149.584 163.656 150.523 162.827C149.363 163 148.781 163.078 147.615 163.238L146.72 160.578Z" fill="url(#paint42_linear_741_46)"/>
<path d="M129.89 148.649C129.534 149.807 129.358 150.387 128.995 151.545L126.088 151.881C127.033 152.461 127.502 152.759 128.441 153.336L127.546 156.229L129.89 154.227L132.246 155.671L131.345 152.991C132.29 152.188 132.756 151.783 133.705 150.98C132.536 151.124 131.947 151.193 130.788 151.331L129.89 148.649Z" fill="url(#paint43_linear_741_46)"/>
<path d="M104.633 130.097L103.736 132.959C102.567 133.059 101.981 133.109 100.815 133.2L103.175 134.738L102.277 137.602C103.222 136.837 103.691 136.444 104.633 135.676C105.578 136.303 106.044 136.589 106.989 137.194L106.089 134.487C107.034 133.715 107.503 133.316 108.445 132.544L105.531 132.808C105.172 131.719 105.005 131.183 104.633 130.097Z" fill="url(#paint44_linear_741_46)"/>
<path d="M113.05 164.509L112.149 167.386C110.984 167.496 110.398 167.553 109.229 167.656L111.592 169.159L110.688 172.036L113.05 170.088C113.995 170.69 114.468 170.985 115.413 171.584L114.509 168.886C115.454 168.108 115.923 167.713 116.868 166.928L113.954 167.217C113.592 166.15 113.409 165.595 113.05 164.509Z" fill="url(#paint45_linear_741_46)"/>
<path d="M129.89 162.721L128.995 165.617C127.833 165.752 127.253 165.824 126.088 165.952C127.033 166.539 127.499 166.831 128.441 167.408L127.543 170.298C128.488 169.501 128.951 169.102 129.89 168.302L132.243 169.742L131.345 167.066C132.29 166.26 132.756 165.855 133.705 165.052C132.536 165.196 131.947 165.262 130.788 165.403C130.476 164.513 130.176 163.619 129.89 162.721Z" fill="url(#paint46_linear_741_46)"/>
<path d="M113.05 136.366L112.149 139.24L109.229 139.513L111.592 141.015L110.688 143.893C111.633 143.111 112.108 142.725 113.05 141.944C113.995 142.543 114.468 142.838 115.413 143.441C115.05 142.358 114.868 141.819 114.512 140.736C115.457 139.955 115.926 139.569 116.871 138.782L113.954 139.067L113.05 136.366Z" fill="url(#paint47_linear_741_46)"/>
<path d="M113.05 178.584L112.149 181.458C110.984 181.571 110.398 181.624 109.229 181.731L111.592 183.234L110.688 186.114L113.05 184.162L115.413 185.662L114.509 182.958C115.454 182.18 115.923 181.787 116.868 181.003L113.954 181.285L113.05 178.584Z" fill="url(#paint48_linear_741_46)"/>
<path d="M104.633 144.188L103.736 147.052C102.567 147.149 101.987 147.199 100.819 147.29C101.764 147.918 102.233 148.232 103.175 148.825L102.277 151.689L104.633 149.766C105.578 150.375 106.045 150.679 106.99 151.281L106.089 148.574L108.445 146.635C107.276 146.745 106.693 146.792 105.531 146.898L104.633 144.188Z" fill="url(#paint49_linear_741_46)"/>
<path d="M113.053 122.291L112.149 125.168C110.984 125.281 110.398 125.331 109.229 125.438L111.589 126.944L110.688 129.815L113.053 127.869C113.998 128.462 114.464 128.77 115.413 129.366L114.512 126.665C115.457 125.887 115.926 125.491 116.874 124.707C115.706 124.823 115.123 124.886 113.954 124.996L113.053 122.291Z" fill="url(#paint50_linear_741_46)"/>
<path d="M113.05 150.438L112.149 153.311L109.229 153.6L111.592 155.106L110.691 157.983L113.05 156.032L115.413 157.528L114.512 154.827L116.871 152.869C115.706 152.988 115.123 153.045 113.954 153.158C113.595 152.056 113.412 151.523 113.05 150.438Z" fill="url(#paint51_linear_741_46)"/>
<path d="M130.772 179.481C130.413 178.411 130.237 177.868 129.874 176.795L128.98 179.691C127.817 179.833 127.238 179.892 126.072 180.024L128.422 181.48L127.527 184.376C128.472 183.579 128.936 183.171 129.874 182.371C130.819 182.951 131.289 183.243 132.23 183.817L131.33 181.138L133.689 179.123L130.772 179.481Z" fill="url(#paint52_linear_741_46)"/>
<path d="M122.374 173.391L121.473 170.696L120.569 173.586L117.655 173.9L120.015 175.384L119.114 178.267L121.476 176.294L123.833 177.768L122.928 175.076C123.873 174.286 124.346 173.884 125.288 173.087C124.122 173.203 123.54 173.269 122.374 173.391Z" fill="url(#paint53_linear_741_46)"/>
<path d="M121.476 128.481L120.575 131.364C119.41 131.49 118.824 131.54 117.659 131.678L120.018 133.165L119.117 136.049L121.479 134.075L123.836 135.547L122.932 132.858L125.291 130.872L122.377 131.185L121.476 128.481Z" fill="url(#paint54_linear_741_46)"/>
<path d="M121.473 156.628L120.572 159.511L117.655 159.825L120.018 161.306L119.117 164.189L121.476 162.222L123.836 163.687L122.932 161.002L125.291 159.016C124.125 159.141 123.54 159.21 122.377 159.329L121.473 156.628Z" fill="url(#paint55_linear_741_46)"/>
<path d="M121.476 142.553C121.117 143.71 120.935 144.281 120.572 145.439C119.41 145.565 118.821 145.618 117.655 145.737L120.018 147.218L119.117 150.102L121.476 148.134L123.836 149.603L122.932 146.914C123.877 146.123 124.349 145.722 125.291 144.928C124.129 145.06 123.543 145.119 122.377 145.242L121.476 142.553Z" fill="url(#paint56_linear_741_46)"/>
</g>
<defs>
<linearGradient id="paint0_linear_741_46" x1="56.6084" y1="236.238" x2="254" y2="236.238" gradientUnits="userSpaceOnUse">
<stop stop-color="#600000"/>
<stop offset="0.327" stop-color="#630000"/>
<stop offset="0.59" stop-color="#6D0000"/>
<stop offset="0.83" stop-color="#7E0000"/>
<stop offset="1" stop-color="#8F0000"/>
</linearGradient>
<linearGradient id="paint1_linear_741_46" x1="155.304" y1="218.515" x2="155.304" y2="254" gradientUnits="userSpaceOnUse">
<stop offset="0.35" stop-color="#BF1010"/>
<stop offset="0.645" stop-color="#BD1010"/>
<stop offset="0.752" stop-color="#B60F0F"/>
<stop offset="0.828" stop-color="#AB0D0D"/>
<stop offset="0.889" stop-color="#9A0A0A"/>
<stop offset="0.941" stop-color="#840606"/>
<stop offset="0.987" stop-color="#690202"/>
<stop offset="1" stop-color="#600000"/>
</linearGradient>
<linearGradient id="paint2_linear_741_46" x1="56.6084" y1="176.548" x2="254" y2="176.548" gradientUnits="userSpaceOnUse">
<stop stop-color="#BF1010"/>
<stop offset="0.021" stop-color="#C11212"/>
<stop offset="0.244" stop-color="#D22323"/>
<stop offset="0.487" stop-color="#DC2D2D"/>
<stop offset="0.791" stop-color="#DF3030"/>
<stop offset="0.841" stop-color="#DC2E2E"/>
<stop offset="0.882" stop-color="#D22626"/>
<stop offset="0.919" stop-color="#C11919"/>
<stop offset="0.954" stop-color="#A90808"/>
<stop offset="0.966" stop-color="#9F0000"/>
<stop offset="1" stop-color="#DF3030"/>
</linearGradient>
<linearGradient id="paint3_linear_741_46" x1="56.6084" y1="156.439" x2="254" y2="156.439" gradientUnits="userSpaceOnUse">
<stop stop-color="#DFDFDF"/>
<stop offset="0.021" stop-color="#E1E1E1"/>
<stop offset="0.244" stop-color="#F2F2F2"/>
<stop offset="0.487" stop-color="#FCFCFC"/>
<stop offset="0.791" stop-color="white"/>
<stop offset="0.841" stop-color="#FCFCFC"/>
<stop offset="0.882" stop-color="#F2F2F2"/>
<stop offset="0.919" stop-color="#E1E1E1"/>
<stop offset="0.954" stop-color="#C9C9C9"/>
<stop offset="0.966" stop-color="#BFBFBF"/>
<stop offset="1" stop-color="white"/>
</linearGradient>
<linearGradient id="paint4_linear_741_46" x1="56.6084" y1="206.853" x2="254" y2="206.853" gradientUnits="userSpaceOnUse">
<stop stop-color="#DFDFDF"/>
<stop offset="0.021" stop-color="#E1E1E1"/>
<stop offset="0.244" stop-color="#F2F2F2"/>
<stop offset="0.487" stop-color="#FCFCFC"/>
<stop offset="0.791" stop-color="white"/>
<stop offset="0.841" stop-color="#FCFCFC"/>
<stop offset="0.882" stop-color="#F2F2F2"/>
<stop offset="0.919" stop-color="#E1E1E1"/>
<stop offset="0.954" stop-color="#C9C9C9"/>
<stop offset="0.966" stop-color="#BFBFBF"/>
<stop offset="1" stop-color="white"/>
</linearGradient>
<linearGradient id="paint5_linear_741_46" x1="56.6084" y1="227.021" x2="254" y2="227.021" gradientUnits="userSpaceOnUse">
<stop stop-color="#DFDFDF"/>
<stop offset="0.021" stop-color="#E1E1E1"/>
<stop offset="0.244" stop-color="#F2F2F2"/>
<stop offset="0.487" stop-color="#FCFCFC"/>
<stop offset="0.791" stop-color="white"/>
<stop offset="0.841" stop-color="#FCFCFC"/>
<stop offset="0.882" stop-color="#F2F2F2"/>
<stop offset="0.919" stop-color="#E1E1E1"/>
<stop offset="0.954" stop-color="#C9C9C9"/>
<stop offset="0.966" stop-color="#BFBFBF"/>
<stop offset="1" stop-color="white"/>
</linearGradient>
<linearGradient id="paint6_linear_741_46" x1="56.6084" y1="153.208" x2="254" y2="153.208" gradientUnits="userSpaceOnUse">
<stop stop-color="#00209F"/>
<stop offset="0.021" stop-color="#0222A1"/>
<stop offset="0.244" stop-color="#1333B2"/>
<stop offset="0.487" stop-color="#1D3DBC"/>
<stop offset="0.791" stop-color="#2040BF"/>
<stop offset="0.841" stop-color="#1E3DBC"/>
<stop offset="0.882" stop-color="#1933B2"/>
<stop offset="0.919" stop-color="#1122A1"/>
<stop offset="0.954" stop-color="#050A89"/>
<stop offset="0.966" stop-color="#00007F"/>
<stop offset="1" stop-color="#2040BF"/>
</linearGradient>
<linearGradient id="paint7_linear_741_46" x1="56.6116" y1="128.334" x2="253.99" y2="128.334" gradientUnits="userSpaceOnUse">
<stop stop-color="#DFDFDF"/>
<stop offset="0.021" stop-color="#E1E1E1"/>
<stop offset="0.244" stop-color="#F2F2F2"/>
<stop offset="0.487" stop-color="#FCFCFC"/>
<stop offset="0.791" stop-color="white"/>
<stop offset="0.841" stop-color="#FCFCFC"/>
<stop offset="0.882" stop-color="#F2F2F2"/>
<stop offset="0.919" stop-color="#E1E1E1"/>
<stop offset="0.954" stop-color="#C9C9C9"/>
<stop offset="0.966" stop-color="#BFBFBF"/>
<stop offset="1" stop-color="white"/>
</linearGradient>
<linearGradient id="paint8_linear_741_46" x1="56.6116" y1="163.144" x2="253.981" y2="163.144" gradientUnits="userSpaceOnUse">
<stop stop-color="#DFDFDF"/>
<stop offset="0.021" stop-color="#E1E1E1"/>
<stop offset="0.244" stop-color="#F2F2F2"/>
<stop offset="0.487" stop-color="#FCFCFC"/>
<stop offset="0.791" stop-color="white"/>
<stop offset="0.841" stop-color="#FCFCFC"/>
<stop offset="0.882" stop-color="#F2F2F2"/>
<stop offset="0.919" stop-color="#E1E1E1"/>
<stop offset="0.954" stop-color="#C9C9C9"/>
<stop offset="0.966" stop-color="#BFBFBF"/>
<stop offset="1" stop-color="white"/>
</linearGradient>
<linearGradient id="paint9_linear_741_46" x1="56.6116" y1="177.216" x2="253.981" y2="177.216" gradientUnits="userSpaceOnUse">
<stop stop-color="#DFDFDF"/>
<stop offset="0.021" stop-color="#E1E1E1"/>
<stop offset="0.244" stop-color="#F2F2F2"/>
<stop offset="0.487" stop-color="#FCFCFC"/>
<stop offset="0.791" stop-color="white"/>
<stop offset="0.841" stop-color="#FCFCFC"/>
<stop offset="0.882" stop-color="#F2F2F2"/>
<stop offset="0.919" stop-color="#E1E1E1"/>
<stop offset="0.954" stop-color="#C9C9C9"/>
<stop offset="0.966" stop-color="#BFBFBF"/>
<stop offset="1" stop-color="white"/>
</linearGradient>
<linearGradient id="paint10_linear_741_46" x1="56.6116" y1="156.483" x2="253.99" y2="156.483" gradientUnits="userSpaceOnUse">
<stop stop-color="#DFDFDF"/>
<stop offset="0.021" stop-color="#E1E1E1"/>
<stop offset="0.244" stop-color="#F2F2F2"/>
<stop offset="0.487" stop-color="#FCFCFC"/>
<stop offset="0.791" stop-color="white"/>
<stop offset="0.841" stop-color="#FCFCFC"/>
<stop offset="0.882" stop-color="#F2F2F2"/>
<stop offset="0.919" stop-color="#E1E1E1"/>
<stop offset="0.954" stop-color="#C9C9C9"/>
<stop offset="0.966" stop-color="#BFBFBF"/>
<stop offset="1" stop-color="white"/>
</linearGradient>
<linearGradient id="paint11_linear_741_46" x1="56.6115" y1="170.552" x2="253.991" y2="170.552" gradientUnits="userSpaceOnUse">
<stop stop-color="#DFDFDF"/>
<stop offset="0.021" stop-color="#E1E1E1"/>
<stop offset="0.244" stop-color="#F2F2F2"/>
<stop offset="0.487" stop-color="#FCFCFC"/>
<stop offset="0.791" stop-color="white"/>
<stop offset="0.841" stop-color="#FCFCFC"/>
<stop offset="0.882" stop-color="#F2F2F2"/>
<stop offset="0.919" stop-color="#E1E1E1"/>
<stop offset="0.954" stop-color="#C9C9C9"/>
<stop offset="0.966" stop-color="#BFBFBF"/>
<stop offset="1" stop-color="white"/>
</linearGradient>
<linearGradient id="paint12_linear_741_46" x1="56.6116" y1="142.408" x2="253.99" y2="142.408" gradientUnits="userSpaceOnUse">
<stop stop-color="#DFDFDF"/>
<stop offset="0.021" stop-color="#E1E1E1"/>
<stop offset="0.244" stop-color="#F2F2F2"/>
<stop offset="0.487" stop-color="#FCFCFC"/>
<stop offset="0.791" stop-color="white"/>
<stop offset="0.841" stop-color="#FCFCFC"/>
<stop offset="0.882" stop-color="#F2F2F2"/>
<stop offset="0.919" stop-color="#E1E1E1"/>
<stop offset="0.954" stop-color="#C9C9C9"/>
<stop offset="0.966" stop-color="#BFBFBF"/>
<stop offset="1" stop-color="white"/>
</linearGradient>
<linearGradient id="paint13_linear_741_46" x1="56.599" y1="176.068" x2="254.028" y2="176.068" gradientUnits="userSpaceOnUse">
<stop stop-color="#DFDFDF"/>
<stop offset="0.021" stop-color="#E1E1E1"/>
<stop offset="0.244" stop-color="#F2F2F2"/>
<stop offset="0.487" stop-color="#FCFCFC"/>
<stop offset="0.791" stop-color="white"/>
<stop offset="0.841" stop-color="#FCFCFC"/>
<stop offset="0.882" stop-color="#F2F2F2"/>
<stop offset="0.919" stop-color="#E1E1E1"/>
<stop offset="0.954" stop-color="#C9C9C9"/>
<stop offset="0.966" stop-color="#BFBFBF"/>
<stop offset="1" stop-color="white"/>
</linearGradient>
<linearGradient id="paint14_linear_741_46" x1="56.6116" y1="149.073" x2="253.981" y2="149.073" gradientUnits="userSpaceOnUse">
<stop stop-color="#DFDFDF"/>
<stop offset="0.021" stop-color="#E1E1E1"/>
<stop offset="0.244" stop-color="#F2F2F2"/>
<stop offset="0.487" stop-color="#FCFCFC"/>
<stop offset="0.791" stop-color="white"/>
<stop offset="0.841" stop-color="#FCFCFC"/>
<stop offset="0.882" stop-color="#F2F2F2"/>
<stop offset="0.919" stop-color="#E1E1E1"/>
<stop offset="0.954" stop-color="#C9C9C9"/>
<stop offset="0.966" stop-color="#BFBFBF"/>
<stop offset="1" stop-color="white"/>
</linearGradient>
<linearGradient id="paint15_linear_741_46" x1="56.6116" y1="169.674" x2="253.981" y2="169.674" gradientUnits="userSpaceOnUse">
<stop stop-color="#DFDFDF"/>
<stop offset="0.021" stop-color="#E1E1E1"/>
<stop offset="0.244" stop-color="#F2F2F2"/>
<stop offset="0.487" stop-color="#FCFCFC"/>
<stop offset="0.791" stop-color="white"/>
<stop offset="0.841" stop-color="#FCFCFC"/>
<stop offset="0.882" stop-color="#F2F2F2"/>
<stop offset="0.919" stop-color="#E1E1E1"/>
<stop offset="0.954" stop-color="#C9C9C9"/>
<stop offset="0.966" stop-color="#BFBFBF"/>
<stop offset="1" stop-color="white"/>
</linearGradient>
<linearGradient id="paint16_linear_741_46" x1="56.6115" y1="183.748" x2="253.981" y2="183.748" gradientUnits="userSpaceOnUse">
<stop stop-color="#DFDFDF"/>
<stop offset="0.021" stop-color="#E1E1E1"/>
<stop offset="0.244" stop-color="#F2F2F2"/>
<stop offset="0.487" stop-color="#FCFCFC"/>
<stop offset="0.791" stop-color="white"/>
<stop offset="0.841" stop-color="#FCFCFC"/>
<stop offset="0.882" stop-color="#F2F2F2"/>
<stop offset="0.919" stop-color="#E1E1E1"/>
<stop offset="0.954" stop-color="#C9C9C9"/>
<stop offset="0.966" stop-color="#BFBFBF"/>
<stop offset="1" stop-color="white"/>
</linearGradient>
<linearGradient id="paint17_linear_741_46" x1="56.6116" y1="134.998" x2="253.981" y2="134.998" gradientUnits="userSpaceOnUse">
<stop stop-color="#DFDFDF"/>
<stop offset="0.021" stop-color="#E1E1E1"/>
<stop offset="0.244" stop-color="#F2F2F2"/>
<stop offset="0.487" stop-color="#FCFCFC"/>
<stop offset="0.791" stop-color="white"/>
<stop offset="0.841" stop-color="#FCFCFC"/>
<stop offset="0.882" stop-color="#F2F2F2"/>
<stop offset="0.919" stop-color="#E1E1E1"/>
<stop offset="0.954" stop-color="#C9C9C9"/>
<stop offset="0.966" stop-color="#BFBFBF"/>
<stop offset="1" stop-color="white"/>
</linearGradient>
<linearGradient id="paint18_linear_741_46" x1="56.6115" y1="155.602" x2="253.987" y2="155.602" gradientUnits="userSpaceOnUse">
<stop stop-color="#DFDFDF"/>
<stop offset="0.021" stop-color="#E1E1E1"/>
<stop offset="0.244" stop-color="#F2F2F2"/>
<stop offset="0.487" stop-color="#FCFCFC"/>
<stop offset="0.791" stop-color="white"/>
<stop offset="0.841" stop-color="#FCFCFC"/>
<stop offset="0.882" stop-color="#F2F2F2"/>
<stop offset="0.919" stop-color="#E1E1E1"/>
<stop offset="0.954" stop-color="#C9C9C9"/>
<stop offset="0.966" stop-color="#BFBFBF"/>
<stop offset="1" stop-color="white"/>
</linearGradient>
<linearGradient id="paint19_linear_741_46" x1="56.6115" y1="184.63" x2="253.991" y2="184.63" gradientUnits="userSpaceOnUse">
<stop stop-color="#DFDFDF"/>
<stop offset="0.021" stop-color="#E1E1E1"/>
<stop offset="0.244" stop-color="#F2F2F2"/>
<stop offset="0.487" stop-color="#FCFCFC"/>
<stop offset="0.791" stop-color="white"/>
<stop offset="0.841" stop-color="#FCFCFC"/>
<stop offset="0.882" stop-color="#F2F2F2"/>
<stop offset="0.919" stop-color="#E1E1E1"/>
<stop offset="0.954" stop-color="#C9C9C9"/>
<stop offset="0.966" stop-color="#BFBFBF"/>
<stop offset="1" stop-color="white"/>
</linearGradient>
<linearGradient id="paint20_linear_741_46" x1="56.6084" y1="156.907" x2="254.025" y2="156.907" gradientUnits="userSpaceOnUse">
<stop stop-color="#DFDFDF"/>
<stop offset="0.021" stop-color="#E1E1E1"/>
<stop offset="0.244" stop-color="#F2F2F2"/>
<stop offset="0.487" stop-color="#FCFCFC"/>
<stop offset="0.791" stop-color="white"/>
<stop offset="0.841" stop-color="#FCFCFC"/>
<stop offset="0.882" stop-color="#F2F2F2"/>
<stop offset="0.919" stop-color="#E1E1E1"/>
<stop offset="0.954" stop-color="#C9C9C9"/>
<stop offset="0.966" stop-color="#BFBFBF"/>
<stop offset="1" stop-color="white"/>
</linearGradient>
<linearGradient id="paint21_linear_741_46" x1="56.6084" y1="142.832" x2="254.025" y2="142.832" gradientUnits="userSpaceOnUse">
<stop stop-color="#DFDFDF"/>
<stop offset="0.021" stop-color="#E1E1E1"/>
<stop offset="0.244" stop-color="#F2F2F2"/>
<stop offset="0.487" stop-color="#FCFCFC"/>
<stop offset="0.791" stop-color="white"/>
<stop offset="0.841" stop-color="#FCFCFC"/>
<stop offset="0.882" stop-color="#F2F2F2"/>
<stop offset="0.919" stop-color="#E1E1E1"/>
<stop offset="0.954" stop-color="#C9C9C9"/>
<stop offset="0.966" stop-color="#BFBFBF"/>
<stop offset="1" stop-color="white"/>
</linearGradient>
<linearGradient id="paint22_linear_741_46" x1="56.6084" y1="185.053" x2="253.972" y2="185.053" gradientUnits="userSpaceOnUse">
<stop stop-color="#DFDFDF"/>
<stop offset="0.021" stop-color="#E1E1E1"/>
<stop offset="0.244" stop-color="#F2F2F2"/>
<stop offset="0.487" stop-color="#FCFCFC"/>
<stop offset="0.791" stop-color="white"/>
<stop offset="0.841" stop-color="#FCFCFC"/>
<stop offset="0.882" stop-color="#F2F2F2"/>
<stop offset="0.919" stop-color="#E1E1E1"/>
<stop offset="0.954" stop-color="#C9C9C9"/>
<stop offset="0.966" stop-color="#BFBFBF"/>
<stop offset="1" stop-color="white"/>
</linearGradient>
<linearGradient id="paint23_linear_741_46" x1="56.6115" y1="141.53" x2="253.981" y2="141.53" gradientUnits="userSpaceOnUse">
<stop stop-color="#DFDFDF"/>
<stop offset="0.021" stop-color="#E1E1E1"/>
<stop offset="0.244" stop-color="#F2F2F2"/>
<stop offset="0.487" stop-color="#FCFCFC"/>
<stop offset="0.791" stop-color="white"/>
<stop offset="0.841" stop-color="#FCFCFC"/>
<stop offset="0.882" stop-color="#F2F2F2"/>
<stop offset="0.919" stop-color="#E1E1E1"/>
<stop offset="0.954" stop-color="#C9C9C9"/>
<stop offset="0.966" stop-color="#BFBFBF"/>
<stop offset="1" stop-color="white"/>
</linearGradient>
<linearGradient id="paint24_linear_741_46" x1="56.6115" y1="127.452" x2="253.981" y2="127.452" gradientUnits="userSpaceOnUse">
<stop stop-color="#DFDFDF"/>
<stop offset="0.021" stop-color="#E1E1E1"/>
<stop offset="0.244" stop-color="#F2F2F2"/>
<stop offset="0.487" stop-color="#FCFCFC"/>
<stop offset="0.791" stop-color="white"/>
<stop offset="0.841" stop-color="#FCFCFC"/>
<stop offset="0.882" stop-color="#F2F2F2"/>
<stop offset="0.919" stop-color="#E1E1E1"/>
<stop offset="0.954" stop-color="#C9C9C9"/>
<stop offset="0.966" stop-color="#BFBFBF"/>
<stop offset="1" stop-color="white"/>
</linearGradient>
<linearGradient id="paint25_linear_741_46" x1="56.6084" y1="170.979" x2="253.972" y2="170.979" gradientUnits="userSpaceOnUse">
<stop stop-color="#DFDFDF"/>
<stop offset="0.021" stop-color="#E1E1E1"/>
<stop offset="0.244" stop-color="#F2F2F2"/>
<stop offset="0.487" stop-color="#FCFCFC"/>
<stop offset="0.791" stop-color="white"/>
<stop offset="0.841" stop-color="#FCFCFC"/>
<stop offset="0.882" stop-color="#F2F2F2"/>
<stop offset="0.919" stop-color="#E1E1E1"/>
<stop offset="0.954" stop-color="#C9C9C9"/>
<stop offset="0.966" stop-color="#BFBFBF"/>
<stop offset="1" stop-color="white"/>
</linearGradient>
<linearGradient id="paint26_linear_741_46" x1="56.6084" y1="135.644" x2="253.978" y2="135.644" gradientUnits="userSpaceOnUse">
<stop stop-color="#DFDFDF"/>
<stop offset="0.021" stop-color="#E1E1E1"/>
<stop offset="0.244" stop-color="#F2F2F2"/>
<stop offset="0.487" stop-color="#FCFCFC"/>
<stop offset="0.791" stop-color="white"/>
<stop offset="0.841" stop-color="#FCFCFC"/>
<stop offset="0.882" stop-color="#F2F2F2"/>
<stop offset="0.919" stop-color="#E1E1E1"/>
<stop offset="0.954" stop-color="#C9C9C9"/>
<stop offset="0.966" stop-color="#BFBFBF"/>
<stop offset="1" stop-color="white"/>
</linearGradient>
<linearGradient id="paint27_linear_741_46" x1="56.6084" y1="149.716" x2="253.978" y2="149.716" gradientUnits="userSpaceOnUse">
<stop stop-color="#DFDFDF"/>
<stop offset="0.021" stop-color="#E1E1E1"/>
<stop offset="0.244" stop-color="#F2F2F2"/>
<stop offset="0.487" stop-color="#FCFCFC"/>
<stop offset="0.791" stop-color="white"/>
<stop offset="0.841" stop-color="#FCFCFC"/>
<stop offset="0.882" stop-color="#F2F2F2"/>
<stop offset="0.919" stop-color="#E1E1E1"/>
<stop offset="0.954" stop-color="#C9C9C9"/>
<stop offset="0.966" stop-color="#BFBFBF"/>
<stop offset="1" stop-color="white"/>
</linearGradient>
<linearGradient id="paint28_linear_741_46" x1="56.6084" y1="177.859" x2="253.978" y2="177.859" gradientUnits="userSpaceOnUse">
<stop stop-color="#DFDFDF"/>
<stop offset="0.021" stop-color="#E1E1E1"/>
<stop offset="0.244" stop-color="#F2F2F2"/>
<stop offset="0.487" stop-color="#FCFCFC"/>
<stop offset="0.791" stop-color="white"/>
<stop offset="0.841" stop-color="#FCFCFC"/>
<stop offset="0.882" stop-color="#F2F2F2"/>
<stop offset="0.919" stop-color="#E1E1E1"/>
<stop offset="0.954" stop-color="#C9C9C9"/>
<stop offset="0.966" stop-color="#BFBFBF"/>
<stop offset="1" stop-color="white"/>
</linearGradient>
<linearGradient id="paint29_linear_741_46" x1="56.6084" y1="163.787" x2="253.978" y2="163.787" gradientUnits="userSpaceOnUse">
<stop stop-color="#DFDFDF"/>
<stop offset="0.021" stop-color="#E1E1E1"/>
<stop offset="0.244" stop-color="#F2F2F2"/>
<stop offset="0.487" stop-color="#FCFCFC"/>
<stop offset="0.791" stop-color="white"/>
<stop offset="0.841" stop-color="#FCFCFC"/>
<stop offset="0.882" stop-color="#F2F2F2"/>
<stop offset="0.919" stop-color="#E1E1E1"/>
<stop offset="0.954" stop-color="#C9C9C9"/>
<stop offset="0.966" stop-color="#BFBFBF"/>
<stop offset="1" stop-color="white"/>
</linearGradient>
<linearGradient id="paint30_linear_741_46" x1="56.6084" y1="128.757" x2="254.019" y2="128.757" gradientUnits="userSpaceOnUse">
<stop stop-color="#DFDFDF"/>
<stop offset="0.021" stop-color="#E1E1E1"/>
<stop offset="0.244" stop-color="#F2F2F2"/>
<stop offset="0.487" stop-color="#FCFCFC"/>
<stop offset="0.791" stop-color="white"/>
<stop offset="0.841" stop-color="#FCFCFC"/>
<stop offset="0.882" stop-color="#F2F2F2"/>
<stop offset="0.919" stop-color="#E1E1E1"/>
<stop offset="0.954" stop-color="#C9C9C9"/>
<stop offset="0.966" stop-color="#BFBFBF"/>
<stop offset="1" stop-color="white"/>
</linearGradient>
<linearGradient id="paint31_linear_741_46" x1="56.599" y1="161.996" x2="254.028" y2="161.996" gradientUnits="userSpaceOnUse">
<stop stop-color="#DFDFDF"/>
<stop offset="0.021" stop-color="#E1E1E1"/>
<stop offset="0.244" stop-color="#F2F2F2"/>
<stop offset="0.487" stop-color="#FCFCFC"/>
<stop offset="0.791" stop-color="white"/>
<stop offset="0.841" stop-color="#FCFCFC"/>
<stop offset="0.882" stop-color="#F2F2F2"/>
<stop offset="0.919" stop-color="#E1E1E1"/>
<stop offset="0.954" stop-color="#C9C9C9"/>
<stop offset="0.966" stop-color="#BFBFBF"/>
<stop offset="1" stop-color="white"/>
</linearGradient>
<linearGradient id="paint32_linear_741_46" x1="56.6179" y1="158.45" x2="253.984" y2="158.45" gradientUnits="userSpaceOnUse">
<stop stop-color="#DFDFDF"/>
<stop offset="0.021" stop-color="#E1E1E1"/>
<stop offset="0.244" stop-color="#F2F2F2"/>
<stop offset="0.487" stop-color="#FCFCFC"/>
<stop offset="0.791" stop-color="white"/>
<stop offset="0.841" stop-color="#FCFCFC"/>
<stop offset="0.882" stop-color="#F2F2F2"/>
<stop offset="0.919" stop-color="#E1E1E1"/>
<stop offset="0.954" stop-color="#C9C9C9"/>
<stop offset="0.966" stop-color="#BFBFBF"/>
<stop offset="1" stop-color="white"/>
</linearGradient>
<linearGradient id="paint33_linear_741_46" x1="56.6179" y1="144.379" x2="253.984" y2="144.379" gradientUnits="userSpaceOnUse">
<stop stop-color="#DFDFDF"/>
<stop offset="0.021" stop-color="#E1E1E1"/>
<stop offset="0.244" stop-color="#F2F2F2"/>
<stop offset="0.487" stop-color="#FCFCFC"/>
<stop offset="0.791" stop-color="white"/>
<stop offset="0.841" stop-color="#FCFCFC"/>
<stop offset="0.882" stop-color="#F2F2F2"/>
<stop offset="0.919" stop-color="#E1E1E1"/>
<stop offset="0.954" stop-color="#C9C9C9"/>
<stop offset="0.966" stop-color="#BFBFBF"/>
<stop offset="1" stop-color="white"/>
</linearGradient>
<linearGradient id="paint34_linear_741_46" x1="56.6179" y1="172.525" x2="253.984" y2="172.525" gradientUnits="userSpaceOnUse">
<stop stop-color="#DFDFDF"/>
<stop offset="0.021" stop-color="#E1E1E1"/>
<stop offset="0.244" stop-color="#F2F2F2"/>
<stop offset="0.487" stop-color="#FCFCFC"/>
<stop offset="0.791" stop-color="white"/>
<stop offset="0.841" stop-color="#FCFCFC"/>
<stop offset="0.882" stop-color="#F2F2F2"/>
<stop offset="0.919" stop-color="#E1E1E1"/>
<stop offset="0.954" stop-color="#C9C9C9"/>
<stop offset="0.966" stop-color="#BFBFBF"/>
<stop offset="1" stop-color="white"/>
</linearGradient>
<linearGradient id="paint35_linear_741_46" x1="56.5801" y1="138.364" x2="254.047" y2="138.364" gradientUnits="userSpaceOnUse">
<stop stop-color="#DFDFDF"/>
<stop offset="0.021" stop-color="#E1E1E1"/>
<stop offset="0.244" stop-color="#F2F2F2"/>
<stop offset="0.487" stop-color="#FCFCFC"/>
<stop offset="0.791" stop-color="white"/>
<stop offset="0.841" stop-color="#FCFCFC"/>
<stop offset="0.882" stop-color="#F2F2F2"/>
<stop offset="0.919" stop-color="#E1E1E1"/>
<stop offset="0.954" stop-color="#C9C9C9"/>
<stop offset="0.966" stop-color="#BFBFBF"/>
<stop offset="1" stop-color="white"/>
</linearGradient>
<linearGradient id="paint36_linear_741_46" x1="56.621" y1="130.307" x2="253.981" y2="130.307" gradientUnits="userSpaceOnUse">
<stop stop-color="#DFDFDF"/>
<stop offset="0.021" stop-color="#E1E1E1"/>
<stop offset="0.244" stop-color="#F2F2F2"/>
<stop offset="0.487" stop-color="#FCFCFC"/>
<stop offset="0.791" stop-color="white"/>
<stop offset="0.841" stop-color="#FCFCFC"/>
<stop offset="0.882" stop-color="#F2F2F2"/>
<stop offset="0.919" stop-color="#E1E1E1"/>
<stop offset="0.954" stop-color="#C9C9C9"/>
<stop offset="0.966" stop-color="#BFBFBF"/>
<stop offset="1" stop-color="white"/>
</linearGradient>
<linearGradient id="paint37_linear_741_46" x1="56.5801" y1="124.293" x2="254.047" y2="124.293" gradientUnits="userSpaceOnUse">
<stop stop-color="#DFDFDF"/>
<stop offset="0.021" stop-color="#E1E1E1"/>
<stop offset="0.244" stop-color="#F2F2F2"/>
<stop offset="0.487" stop-color="#FCFCFC"/>
<stop offset="0.791" stop-color="white"/>
<stop offset="0.841" stop-color="#FCFCFC"/>
<stop offset="0.882" stop-color="#F2F2F2"/>
<stop offset="0.919" stop-color="#E1E1E1"/>
<stop offset="0.954" stop-color="#C9C9C9"/>
<stop offset="0.966" stop-color="#BFBFBF"/>
<stop offset="1" stop-color="white"/>
</linearGradient>
<linearGradient id="paint38_linear_741_46" x1="56.6146" y1="150.315" x2="253.994" y2="150.315" gradientUnits="userSpaceOnUse">
<stop stop-color="#DFDFDF"/>
<stop offset="0.021" stop-color="#E1E1E1"/>
<stop offset="0.244" stop-color="#F2F2F2"/>
<stop offset="0.487" stop-color="#FCFCFC"/>
<stop offset="0.791" stop-color="white"/>
<stop offset="0.841" stop-color="#FCFCFC"/>
<stop offset="0.882" stop-color="#F2F2F2"/>
<stop offset="0.919" stop-color="#E1E1E1"/>
<stop offset="0.954" stop-color="#C9C9C9"/>
<stop offset="0.966" stop-color="#BFBFBF"/>
<stop offset="1" stop-color="white"/>
</linearGradient>
<linearGradient id="paint39_linear_741_46" x1="56.6148" y1="136.243" x2="253.994" y2="136.243" gradientUnits="userSpaceOnUse">
<stop stop-color="#DFDFDF"/>
<stop offset="0.021" stop-color="#E1E1E1"/>
<stop offset="0.244" stop-color="#F2F2F2"/>
<stop offset="0.487" stop-color="#FCFCFC"/>
<stop offset="0.791" stop-color="white"/>
<stop offset="0.841" stop-color="#FCFCFC"/>
<stop offset="0.882" stop-color="#F2F2F2"/>
<stop offset="0.919" stop-color="#E1E1E1"/>
<stop offset="0.954" stop-color="#C9C9C9"/>
<stop offset="0.966" stop-color="#BFBFBF"/>
<stop offset="1" stop-color="white"/>
</linearGradient>
<linearGradient id="paint40_linear_741_46" x1="56.6179" y1="178.465" x2="253.99" y2="178.465" gradientUnits="userSpaceOnUse">
<stop stop-color="#DFDFDF"/>
<stop offset="0.021" stop-color="#E1E1E1"/>
<stop offset="0.244" stop-color="#F2F2F2"/>
<stop offset="0.487" stop-color="#FCFCFC"/>
<stop offset="0.791" stop-color="white"/>
<stop offset="0.841" stop-color="#FCFCFC"/>
<stop offset="0.882" stop-color="#F2F2F2"/>
<stop offset="0.919" stop-color="#E1E1E1"/>
<stop offset="0.954" stop-color="#C9C9C9"/>
<stop offset="0.966" stop-color="#BFBFBF"/>
<stop offset="1" stop-color="white"/>
</linearGradient>
<linearGradient id="paint41_linear_741_46" x1="56.6148" y1="122.166" x2="253.994" y2="122.166" gradientUnits="userSpaceOnUse">
<stop stop-color="#DFDFDF"/>
<stop offset="0.021" stop-color="#E1E1E1"/>
<stop offset="0.244" stop-color="#F2F2F2"/>
<stop offset="0.487" stop-color="#FCFCFC"/>
<stop offset="0.791" stop-color="white"/>
<stop offset="0.841" stop-color="#FCFCFC"/>
<stop offset="0.882" stop-color="#F2F2F2"/>
<stop offset="0.919" stop-color="#E1E1E1"/>
<stop offset="0.954" stop-color="#C9C9C9"/>
<stop offset="0.966" stop-color="#BFBFBF"/>
<stop offset="1" stop-color="white"/>
</linearGradient>
<linearGradient id="paint42_linear_741_46" x1="56.6146" y1="164.387" x2="253.994" y2="164.387" gradientUnits="userSpaceOnUse">
<stop stop-color="#DFDFDF"/>
<stop offset="0.021" stop-color="#E1E1E1"/>
<stop offset="0.244" stop-color="#F2F2F2"/>
<stop offset="0.487" stop-color="#FCFCFC"/>
<stop offset="0.791" stop-color="white"/>
<stop offset="0.841" stop-color="#FCFCFC"/>
<stop offset="0.882" stop-color="#F2F2F2"/>
<stop offset="0.919" stop-color="#E1E1E1"/>
<stop offset="0.954" stop-color="#C9C9C9"/>
<stop offset="0.966" stop-color="#BFBFBF"/>
<stop offset="1" stop-color="white"/>
</linearGradient>
<linearGradient id="paint43_linear_741_46" x1="56.5801" y1="152.439" x2="254.047" y2="152.439" gradientUnits="userSpaceOnUse">
<stop stop-color="#DFDFDF"/>
<stop offset="0.021" stop-color="#E1E1E1"/>
<stop offset="0.244" stop-color="#F2F2F2"/>
<stop offset="0.487" stop-color="#FCFCFC"/>
<stop offset="0.791" stop-color="white"/>
<stop offset="0.841" stop-color="#FCFCFC"/>
<stop offset="0.882" stop-color="#F2F2F2"/>
<stop offset="0.919" stop-color="#E1E1E1"/>
<stop offset="0.954" stop-color="#C9C9C9"/>
<stop offset="0.966" stop-color="#BFBFBF"/>
<stop offset="1" stop-color="white"/>
</linearGradient>
<linearGradient id="paint44_linear_741_46" x1="56.599" y1="133.85" x2="254.028" y2="133.85" gradientUnits="userSpaceOnUse">
<stop stop-color="#DFDFDF"/>
<stop offset="0.021" stop-color="#E1E1E1"/>
<stop offset="0.244" stop-color="#F2F2F2"/>
<stop offset="0.487" stop-color="#FCFCFC"/>
<stop offset="0.791" stop-color="white"/>
<stop offset="0.841" stop-color="#FCFCFC"/>
<stop offset="0.882" stop-color="#F2F2F2"/>
<stop offset="0.919" stop-color="#E1E1E1"/>
<stop offset="0.954" stop-color="#C9C9C9"/>
<stop offset="0.966" stop-color="#BFBFBF"/>
<stop offset="1" stop-color="white"/>
</linearGradient>
<linearGradient id="paint45_linear_741_46" x1="56.6147" y1="168.271" x2="253.984" y2="168.271" gradientUnits="userSpaceOnUse">
<stop stop-color="#DFDFDF"/>
<stop offset="0.021" stop-color="#E1E1E1"/>
<stop offset="0.244" stop-color="#F2F2F2"/>
<stop offset="0.487" stop-color="#FCFCFC"/>
<stop offset="0.791" stop-color="white"/>
<stop offset="0.841" stop-color="#FCFCFC"/>
<stop offset="0.882" stop-color="#F2F2F2"/>
<stop offset="0.919" stop-color="#E1E1E1"/>
<stop offset="0.954" stop-color="#C9C9C9"/>
<stop offset="0.966" stop-color="#BFBFBF"/>
<stop offset="1" stop-color="white"/>
</linearGradient>
<linearGradient id="paint46_linear_741_46" x1="56.5801" y1="166.511" x2="254.047" y2="166.511" gradientUnits="userSpaceOnUse">
<stop stop-color="#DFDFDF"/>
<stop offset="0.021" stop-color="#E1E1E1"/>
<stop offset="0.244" stop-color="#F2F2F2"/>
<stop offset="0.487" stop-color="#FCFCFC"/>
<stop offset="0.791" stop-color="white"/>
<stop offset="0.841" stop-color="#FCFCFC"/>
<stop offset="0.882" stop-color="#F2F2F2"/>
<stop offset="0.919" stop-color="#E1E1E1"/>
<stop offset="0.954" stop-color="#C9C9C9"/>
<stop offset="0.966" stop-color="#BFBFBF"/>
<stop offset="1" stop-color="white"/>
</linearGradient>
<linearGradient id="paint47_linear_741_46" x1="56.6147" y1="140.128" x2="253.984" y2="140.128" gradientUnits="userSpaceOnUse">
<stop stop-color="#DFDFDF"/>
<stop offset="0.021" stop-color="#E1E1E1"/>
<stop offset="0.244" stop-color="#F2F2F2"/>
<stop offset="0.487" stop-color="#FCFCFC"/>
<stop offset="0.791" stop-color="white"/>
<stop offset="0.841" stop-color="#FCFCFC"/>
<stop offset="0.882" stop-color="#F2F2F2"/>
<stop offset="0.919" stop-color="#E1E1E1"/>
<stop offset="0.954" stop-color="#C9C9C9"/>
<stop offset="0.966" stop-color="#BFBFBF"/>
<stop offset="1" stop-color="white"/>
</linearGradient>
<linearGradient id="paint48_linear_741_46" x1="56.6147" y1="182.349" x2="253.984" y2="182.349" gradientUnits="userSpaceOnUse">
<stop stop-color="#DFDFDF"/>
<stop offset="0.021" stop-color="#E1E1E1"/>
<stop offset="0.244" stop-color="#F2F2F2"/>
<stop offset="0.487" stop-color="#FCFCFC"/>
<stop offset="0.791" stop-color="white"/>
<stop offset="0.841" stop-color="#FCFCFC"/>
<stop offset="0.882" stop-color="#F2F2F2"/>
<stop offset="0.919" stop-color="#E1E1E1"/>
<stop offset="0.954" stop-color="#C9C9C9"/>
<stop offset="0.966" stop-color="#BFBFBF"/>
<stop offset="1" stop-color="white"/>
</linearGradient>
<linearGradient id="paint49_linear_741_46" x1="56.599" y1="147.921" x2="254.028" y2="147.921" gradientUnits="userSpaceOnUse">
<stop stop-color="#DFDFDF"/>
<stop offset="0.021" stop-color="#E1E1E1"/>
<stop offset="0.244" stop-color="#F2F2F2"/>
<stop offset="0.487" stop-color="#FCFCFC"/>
<stop offset="0.791" stop-color="white"/>
<stop offset="0.841" stop-color="#FCFCFC"/>
<stop offset="0.882" stop-color="#F2F2F2"/>
<stop offset="0.919" stop-color="#E1E1E1"/>
<stop offset="0.954" stop-color="#C9C9C9"/>
<stop offset="0.966" stop-color="#BFBFBF"/>
<stop offset="1" stop-color="white"/>
</linearGradient>
<linearGradient id="paint50_linear_741_46" x1="56.6021" y1="126.053" x2="254.019" y2="126.053" gradientUnits="userSpaceOnUse">
<stop stop-color="#DFDFDF"/>
<stop offset="0.021" stop-color="#E1E1E1"/>
<stop offset="0.244" stop-color="#F2F2F2"/>
<stop offset="0.487" stop-color="#FCFCFC"/>
<stop offset="0.791" stop-color="white"/>
<stop offset="0.841" stop-color="#FCFCFC"/>
<stop offset="0.882" stop-color="#F2F2F2"/>
<stop offset="0.919" stop-color="#E1E1E1"/>
<stop offset="0.954" stop-color="#C9C9C9"/>
<stop offset="0.966" stop-color="#BFBFBF"/>
<stop offset="1" stop-color="white"/>
</linearGradient>
<linearGradient id="paint51_linear_741_46" x1="56.6147" y1="154.202" x2="253.984" y2="154.202" gradientUnits="userSpaceOnUse">
<stop stop-color="#DFDFDF"/>
<stop offset="0.021" stop-color="#E1E1E1"/>
<stop offset="0.244" stop-color="#F2F2F2"/>
<stop offset="0.487" stop-color="#FCFCFC"/>
<stop offset="0.791" stop-color="white"/>
<stop offset="0.841" stop-color="#FCFCFC"/>
<stop offset="0.882" stop-color="#F2F2F2"/>
<stop offset="0.919" stop-color="#E1E1E1"/>
<stop offset="0.954" stop-color="#C9C9C9"/>
<stop offset="0.966" stop-color="#BFBFBF"/>
<stop offset="1" stop-color="white"/>
</linearGradient>
<linearGradient id="paint52_linear_741_46" x1="56.5801" y1="180.586" x2="254.047" y2="180.586" gradientUnits="userSpaceOnUse">
<stop stop-color="#DFDFDF"/>
<stop offset="0.021" stop-color="#E1E1E1"/>
<stop offset="0.244" stop-color="#F2F2F2"/>
<stop offset="0.487" stop-color="#FCFCFC"/>
<stop offset="0.791" stop-color="white"/>
<stop offset="0.841" stop-color="#FCFCFC"/>
<stop offset="0.882" stop-color="#F2F2F2"/>
<stop offset="0.919" stop-color="#E1E1E1"/>
<stop offset="0.954" stop-color="#C9C9C9"/>
<stop offset="0.966" stop-color="#BFBFBF"/>
<stop offset="1" stop-color="white"/>
</linearGradient>
<linearGradient id="paint53_linear_741_46" x1="56.6147" y1="174.474" x2="253.987" y2="174.474" gradientUnits="userSpaceOnUse">
<stop stop-color="#DFDFDF"/>
<stop offset="0.021" stop-color="#E1E1E1"/>
<stop offset="0.244" stop-color="#F2F2F2"/>
<stop offset="0.487" stop-color="#FCFCFC"/>
<stop offset="0.791" stop-color="white"/>
<stop offset="0.841" stop-color="#FCFCFC"/>
<stop offset="0.882" stop-color="#F2F2F2"/>
<stop offset="0.919" stop-color="#E1E1E1"/>
<stop offset="0.954" stop-color="#C9C9C9"/>
<stop offset="0.966" stop-color="#BFBFBF"/>
<stop offset="1" stop-color="white"/>
</linearGradient>
<linearGradient id="paint54_linear_741_46" x1="56.6147" y1="132.259" x2="253.987" y2="132.259" gradientUnits="userSpaceOnUse">
<stop stop-color="#DFDFDF"/>
<stop offset="0.021" stop-color="#E1E1E1"/>
<stop offset="0.244" stop-color="#F2F2F2"/>
<stop offset="0.487" stop-color="#FCFCFC"/>
<stop offset="0.791" stop-color="white"/>
<stop offset="0.841" stop-color="#FCFCFC"/>
<stop offset="0.882" stop-color="#F2F2F2"/>
<stop offset="0.919" stop-color="#E1E1E1"/>
<stop offset="0.954" stop-color="#C9C9C9"/>
<stop offset="0.966" stop-color="#BFBFBF"/>
<stop offset="1" stop-color="white"/>
</linearGradient>
<linearGradient id="paint55_linear_741_46" x1="56.6147" y1="160.402" x2="253.987" y2="160.402" gradientUnits="userSpaceOnUse">
<stop stop-color="#DFDFDF"/>
<stop offset="0.021" stop-color="#E1E1E1"/>
<stop offset="0.244" stop-color="#F2F2F2"/>
<stop offset="0.487" stop-color="#FCFCFC"/>
<stop offset="0.791" stop-color="white"/>
<stop offset="0.841" stop-color="#FCFCFC"/>
<stop offset="0.882" stop-color="#F2F2F2"/>
<stop offset="0.919" stop-color="#E1E1E1"/>
<stop offset="0.954" stop-color="#C9C9C9"/>
<stop offset="0.966" stop-color="#BFBFBF"/>
<stop offset="1" stop-color="white"/>
</linearGradient>
<linearGradient id="paint56_linear_741_46" x1="56.6147" y1="146.327" x2="253.987" y2="146.327" gradientUnits="userSpaceOnUse">
<stop stop-color="#DFDFDF"/>
<stop offset="0.021" stop-color="#E1E1E1"/>
<stop offset="0.244" stop-color="#F2F2F2"/>
<stop offset="0.487" stop-color="#FCFCFC"/>
<stop offset="0.791" stop-color="white"/>
<stop offset="0.841" stop-color="#FCFCFC"/>
<stop offset="0.882" stop-color="#F2F2F2"/>
<stop offset="0.919" stop-color="#E1E1E1"/>
<stop offset="0.954" stop-color="#C9C9C9"/>
<stop offset="0.966" stop-color="#BFBFBF"/>
<stop offset="1" stop-color="white"/>
</linearGradient>
<clipPath id="clip0_741_46">
<rect width="252" height="251" fill="white" transform="translate(2 3)"/>
</clipPath>
</defs>
</svg>
