<svg width="256" height="256" viewBox="0 0 256 256" fill="none" xmlns="http://www.w3.org/2000/svg">
<path d="M254 128C254 197.588 197.588 254 128 254C58.4121 254 2 197.588 2 128C2 58.4121 58.4121 2 128 2C197.588 2 254 58.4121 254 128Z" fill="#303030"/>
<mask id="mask0_741_46" style="mask-type:luminance" maskUnits="userSpaceOnUse" x="11" y="11" width="234" height="234">
<path d="M245 11H11V244.071H245V11Z" fill="white"/>
</mask>
<g mask="url(#mask0_741_46)">
<path d="M106.311 183.647C112.161 205.207 133.151 221.653 143.751 220.971C144.123 220.948 183.956 213.55 205.761 177.27C222.726 149.03 216.955 121.767 193.874 121.173C185.572 121.776 95.1697 142.583 106.317 183.653M191.721 45.1884L191.698 45.1679L191.73 45.1476C177.193 32.8319 159.458 24.8577 140.57 22.1433C121.681 19.4289 102.407 22.0851 84.9673 29.8056C82.7614 30.7195 80.6126 31.7644 78.5323 32.9346C77.1108 33.6892 75.6892 34.4379 74.3086 35.2654L74.645 35.3702C70.5629 38.138 66.9534 41.5404 63.9541 45.4476C34.903 83.6976 132.347 111.512 184.452 111.593C208.411 128.73 215.139 63.3446 191.721 45.1884Z" fill="#0E3CA5"/>
<path d="M90.8524 45.9609C77.4646 66.0051 32.873 80.1263 25.54 77.9266L25.4904 77.8335C25.7829 77.2304 26.0958 76.6273 26.4058 76.03C34.0101 61.4416 44.8904 48.797 58.2006 39.0795C60.9442 37.075 63.7854 35.2017 66.724 33.4596C71.242 30.975 76.303 29.6324 81.4631 29.5498C101.321 29.9285 90.9518 45.8065 90.8465 45.9668M79.8661 187.589C80.8284 193.886 79.8427 218.763 78.5498 220.854C77.4354 220.922 75.1159 221.064 68.3971 217.309C46.9433 205.116 30.3914 185.899 21.556 162.925C12.7206 139.95 12.147 114.636 19.9329 91.2875C20.2897 90.2192 20.6631 89.1578 21.0531 88.1031C28.7488 98.3 37.6554 107.524 45.2253 117.82C52.4355 127.623 62.3541 143.607 64.3723 147.024C76.903 168.224 78.9008 181.306 79.8573 187.593M228.002 124.897C228.019 138.265 225.498 151.517 220.573 163.953C207.995 177.413 123.218 144.279 122.387 143.915C110.789 138.854 75.4961 123.458 72.3108 99.276C67.7449 64.4609 138.617 40.2099 169.769 39.2922C173.505 39.3358 184.87 39.4669 191.498 44.8276C202.977 54.7982 212.175 67.1048 218.472 80.9172C224.77 94.7296 228.019 109.727 228.002 124.897ZM170.611 219.209C161.371 223.506 151.195 220.374 153.839 211.413C158.914 194.197 203.231 176.548 213.018 175.577C214.226 175.458 214.738 176.277 214.203 177.213C204.006 195.071 188.881 209.641 170.62 219.194" fill="#5493F7"/>
<path d="M61.7077 236.073C61.5772 238.018 62.2178 239.934 63.4918 241.412C64.7657 242.891 66.5713 243.812 68.5201 243.977C158.318 244.589 245 240.481 245 227.08C245 186.513 61.7077 236.073 61.7077 236.073Z" fill="url(#paint0_linear_741_46)"/>
<path d="M61.7076 236.073C61.5752 238.023 62.2193 239.946 63.5005 241.425C64.7817 242.905 66.5967 243.822 68.5521 243.977C158.326 244.657 244.891 241.848 245 227.08C245 186.513 61.7076 236.073 61.7076 236.073ZM68.555 243.462C68.3156 243.462 68.0763 243.448 67.8384 243.421C66.4699 243.231 65.1884 242.641 64.1545 241.728C63.1207 240.815 62.3803 239.618 62.0264 238.288C62.4103 239.73 63.2532 241.009 64.4287 241.934C65.604 242.859 67.0487 243.38 68.5462 243.418C158.259 242.859 243.593 215.345 243.593 227.459C243.593 239.823 158.265 244.071 68.555 243.462Z" fill="url(#paint1_linear_741_46)"/>
<path d="M68.5611 121.189C67.6608 121.189 66.7694 121.367 65.9378 121.709C65.1061 122.053 64.3505 122.556 63.714 123.19C63.0776 123.825 62.5728 124.577 62.2286 125.406C61.8844 126.234 61.7074 127.122 61.7078 128.019V236.073C61.7054 237.878 62.4209 239.61 63.6976 240.891C64.9744 242.171 66.7083 242.895 68.5201 242.906C158.311 242.235 245.109 212.632 245 227.086V105.373C245.109 90.9225 158.341 120.523 68.5611 121.189Z" fill="url(#paint2_linear_741_46)"/>
<path d="M81.7996 195.77C84.9966 195.645 88.1293 195.511 91.2064 195.339C94.2835 195.167 97.2962 194.972 100.259 194.756C103.222 194.541 106.126 194.29 108.993 194.031C111.859 193.772 114.685 193.506 117.475 193.23C120.266 192.953 123.019 192.665 125.739 192.356C131.099 191.749 136.455 191.092 141.803 190.383C144.45 190.031 147.068 189.673 149.701 189.291C152.333 188.91 154.922 188.501 157.545 188.099C160.169 187.697 162.81 187.292 165.443 186.876C168.075 186.459 170.735 186.037 173.393 185.594C176.052 185.151 178.728 184.682 181.44 184.219C184.152 183.755 186.897 183.289 189.674 182.809C192.449 182.328 195.26 181.847 198.109 181.352C200.958 180.856 203.846 180.341 206.787 179.849C209.73 179.357 212.726 178.873 215.776 178.41C218.827 177.946 221.626 177.536 225.428 177.058C229.574 176.471 233.763 176.249 237.947 176.394C241.882 176.658 244.997 177.655 244.997 180.387V171.018C244.997 168.321 242.011 167.353 238.346 167.053C234.438 166.855 230.522 167.019 226.646 167.542C222.992 167.959 220.359 168.359 217.61 168.764C214.86 169.168 212.179 169.591 209.541 170.022C206.902 170.453 204.304 170.896 201.725 171.341C199.144 171.787 196.577 172.245 193.991 172.696C191.406 173.148 188.799 173.597 186.152 174.048L178.058 175.435C175.303 175.907 172.501 176.382 169.576 176.857C166.651 177.331 163.598 177.803 160.429 178.29C157.262 178.776 153.974 179.295 150.54 179.802V170.439C153.974 169.934 157.268 169.413 160.429 168.926C163.591 168.439 166.645 167.962 169.576 167.493C172.506 167.024 175.314 166.543 178.058 166.069C180.802 165.593 183.508 165.137 186.154 164.684L193.991 163.332L201.725 161.978C204.304 161.526 206.899 161.104 209.541 160.658C212.181 160.212 214.858 159.807 217.61 159.4C220.363 158.992 222.992 158.593 226.646 158.179C230.523 157.659 234.438 157.493 238.346 157.687C242.014 157.978 245 158.957 245 161.652V152.3C245 149.608 242.014 148.635 238.349 148.331C234.441 148.139 230.525 148.303 226.649 148.824C222.996 149.243 220.366 149.637 217.614 150.044C214.86 150.453 212.181 150.872 209.543 151.304C206.904 151.734 204.307 152.177 201.728 152.623C199.148 153.069 196.58 153.532 193.993 153.981L186.154 155.333C183.508 155.787 180.82 156.242 178.061 156.716C175.303 157.192 172.504 157.666 169.579 158.135C166.654 158.604 163.6 159.085 160.432 159.572C157.265 160.058 153.977 160.576 150.546 161.081V151.72C153.974 151.213 157.273 150.7 160.435 150.208C163.598 149.716 166.651 149.243 169.581 148.774C172.513 148.305 175.314 147.828 178.064 147.353L186.161 145.969C188.793 145.514 191.411 145.068 193.996 144.617L201.73 143.262C207.015 142.336 212.31 141.477 217.616 140.684C220.369 140.282 222.998 139.877 226.651 139.461C230.528 138.942 234.445 138.779 238.351 138.971C242.016 139.262 245.003 140.244 245.003 142.939V133.567C245.003 130.871 242.016 129.907 238.351 129.605C234.445 129.41 230.528 129.573 226.651 130.094C222.998 130.51 220.369 130.909 217.616 131.314C214.864 131.719 212.184 132.144 209.546 132.573C206.908 133.001 204.31 133.447 201.73 133.89L193.996 135.25L186.157 136.6C183.511 137.054 180.823 137.505 178.064 137.983C175.306 138.461 172.506 138.933 169.581 139.402C166.656 139.871 163.6 140.352 160.429 140.841C157.258 141.331 153.971 141.846 150.543 142.353V132.989C153.971 132.482 157.253 131.964 160.427 131.475C163.6 130.986 166.651 130.513 169.581 130.038C172.513 129.564 175.306 129.091 178.064 128.62L186.161 127.236C188.793 126.781 191.411 126.338 193.996 125.884C196.582 125.43 199.148 124.978 201.73 124.529C204.314 124.081 206.904 123.635 209.546 123.207C212.187 122.778 214.864 122.355 217.614 121.951C220.363 121.546 222.998 121.146 226.651 120.73C230.528 120.209 234.445 120.045 238.351 120.238C242.019 120.529 245.005 121.511 245.005 124.203V114.842C245.005 112.148 242.019 111.177 238.354 110.875C234.448 110.683 230.531 110.848 226.654 111.367C223.001 111.783 220.371 112.179 217.619 112.587C214.867 112.995 212.187 113.414 209.549 113.846C206.911 114.277 204.314 114.72 201.733 115.165C199.154 115.611 196.585 116.075 194 116.523C191.414 116.972 188.807 117.421 186.164 117.869L178.068 119.259C172.198 120.269 166.318 121.22 160.429 122.111C157.255 122.601 153.971 123.116 150.543 123.626V114.131C123.41 118.362 96.0169 120.72 68.5581 121.19C67.6578 121.19 66.7664 121.367 65.9348 121.71C65.1031 122.054 64.3475 122.557 63.711 123.191C63.0746 123.825 62.5699 124.577 62.2257 125.407C61.8814 126.235 61.7044 127.123 61.7048 128.02V196.193C65.2148 196.193 68.6312 196.149 71.9774 196.077C75.3236 196.003 78.5996 195.893 81.7996 195.77Z" fill="url(#paint3_linear_741_46)"/>
<path d="M81.785 214.498C84.9878 214.376 88.1176 214.236 91.1947 214.067C94.2718 213.898 97.2875 213.697 100.262 213.484C103.237 213.272 106.127 213.025 108.993 212.762C111.86 212.5 114.685 212.241 117.476 211.958C120.266 211.675 123.033 211.393 125.739 211.084C131.098 210.474 136.45 209.817 141.798 209.114C144.441 208.761 147.063 208.397 149.695 208.019C152.328 207.641 154.922 207.229 157.542 206.824C160.163 206.42 162.808 206.02 165.44 205.607C168.073 205.193 170.734 204.762 173.396 204.322C176.057 203.882 178.734 203.413 181.446 202.947L189.677 201.536C192.452 201.059 195.267 200.578 198.112 200.08C200.958 199.582 203.851 199.072 206.794 198.577C209.737 198.081 212.731 197.601 215.782 197.138C218.833 196.674 221.615 196.264 225.435 195.786C229.579 195.195 233.769 194.971 237.954 195.119C241.887 195.386 245.003 196.385 245.003 199.115V189.743C245.003 187.013 241.887 186.011 237.957 185.746C233.771 185.599 229.581 185.822 225.435 186.411C221.612 186.877 218.83 187.305 215.782 187.765C212.734 188.225 209.737 188.706 206.794 189.201C203.851 189.697 200.964 190.2 198.115 190.704C195.267 191.209 192.455 191.69 189.677 192.161C186.897 192.633 184.157 193.102 181.446 193.572C178.734 194.041 176.057 194.504 173.399 194.946C170.74 195.389 168.085 195.821 165.443 196.229L157.545 197.455C154.913 197.863 152.316 198.265 149.698 198.644C147.079 199.023 144.451 199.392 141.8 199.739C139.15 200.086 136.495 200.427 133.82 200.756C131.147 201.085 128.462 201.408 125.742 201.709C123.022 202.009 120.27 202.291 117.478 202.583C114.688 202.874 111.862 203.124 108.996 203.384C106.129 203.643 103.222 203.891 100.262 204.109C97.3021 204.328 94.2806 204.526 91.1947 204.692C88.1088 204.858 84.9849 205.001 81.785 205.123C78.585 205.245 75.3149 205.347 71.9657 205.414C68.6166 205.482 65.2031 205.537 61.699 205.537V214.897C68.3961 214.877 75.0924 214.744 81.785 214.498Z" fill="url(#paint4_linear_741_46)"/>
<path d="M237.95 204.469C233.766 204.324 229.577 204.546 225.431 205.133C221.608 205.602 218.827 206.025 215.78 206.488C212.731 206.951 209.736 207.432 206.794 207.924C203.851 208.417 200.944 208.926 198.109 209.428C195.275 209.929 192.449 210.416 189.674 210.885L181.44 212.294C178.728 212.758 176.052 213.229 173.39 213.669C170.728 214.11 168.075 214.543 165.434 214.952C162.793 215.359 160.169 215.773 157.537 216.172C154.904 216.571 152.307 216.979 149.686 217.364C147.065 217.749 144.421 218.115 141.788 218.462C136.442 219.164 131.088 219.82 125.73 220.431C123.01 220.735 120.257 221.014 117.467 221.306C114.677 221.597 111.854 221.85 108.985 222.11C106.115 222.369 103.211 222.613 100.25 222.833C97.2904 223.051 94.2688 223.246 91.183 223.415C81.3601 223.951 71.5248 224.233 61.6873 224.26V233.641C65.1973 233.641 68.6195 233.602 71.954 233.524C75.2885 233.447 78.5615 233.35 81.7732 233.234C84.9761 233.111 88.1059 232.971 91.183 232.802C94.2601 232.633 97.2757 232.432 100.25 232.22C103.226 232.007 106.118 231.753 108.985 231.497C111.851 231.24 114.674 230.975 117.467 230.696C120.26 230.416 123.025 230.13 125.73 229.822C128.435 229.513 131.138 229.198 133.812 228.866C136.485 228.534 139.141 228.204 141.785 227.852C144.43 227.5 147.05 227.138 149.683 226.757C152.315 226.375 154.91 225.964 157.534 225.565C160.157 225.166 162.799 224.755 165.432 224.342C168.064 223.927 170.723 223.502 173.388 223.056C176.052 222.611 178.731 222.147 181.443 221.681L189.674 220.274L198.106 218.817C200.955 218.32 203.848 217.806 206.794 217.314C209.739 216.822 212.728 216.338 215.78 215.875C218.83 215.411 221.629 215.001 225.431 214.527C229.577 213.941 233.766 213.719 237.95 213.862C241.885 214.122 245 215.121 245 217.854V208.463C245 205.731 241.885 204.74 237.95 204.469Z" fill="url(#paint5_linear_741_46)"/>
<path d="M81.1998 186.433C84.1833 186.321 87.0499 186.196 89.8666 186.047C92.6834 185.899 95.4241 185.734 98.1151 185.544C100.806 185.355 103.486 185.145 106.147 184.917C111.577 184.448 117.002 183.926 122.422 183.353C125.23 183.056 128.096 182.732 131.074 182.371C134.051 182.01 137.152 181.628 140.387 181.206C143.622 180.783 147.004 180.332 150.537 179.802V114.133C123.409 118.363 96.0207 120.721 68.5667 121.19C67.6666 121.19 66.7751 121.367 65.9434 121.71C65.1118 122.053 64.3561 122.556 63.7198 123.191C63.0833 123.825 62.5786 124.577 62.2343 125.406C61.8901 126.234 61.7131 127.122 61.7135 128.019V186.826C65.2673 186.826 68.6458 186.785 71.8837 186.712C75.1217 186.639 78.2134 186.541 81.1998 186.433Z" fill="url(#paint6_linear_741_46)"/>
<path d="M82.8556 123.952C82.5193 124.998 82.3555 125.522 82.022 126.574L79.3193 126.674L81.5043 128.2L80.6677 130.822C81.5452 130.149 81.9811 129.82 82.8556 129.144C83.7331 129.753 84.1602 130.05 85.0406 130.653C84.7013 129.633 84.5375 129.123 84.2041 128.101L86.392 126.403C85.3097 126.455 84.7657 126.47 83.6863 126.519L82.8556 123.952Z" fill="url(#paint7_linear_741_46)"/>
<path d="M90.6652 156.256L89.8316 158.893L87.123 159.026L89.3109 160.521C88.9775 161.573 88.8107 162.101 88.4744 163.144C89.3519 162.465 89.7907 162.12 90.6652 161.43C91.5427 162.013 91.9814 162.304 92.8589 162.904L92.0195 160.364L94.2133 158.631C93.128 158.7 92.587 158.733 91.5047 158.79L90.6652 156.256Z" fill="url(#paint8_linear_741_46)"/>
<path d="M91.5047 171.866L90.6652 169.323L89.8316 171.963L87.123 172.094C88.0005 172.693 88.4363 172.996 89.3109 173.588C88.9775 174.643 88.8107 175.167 88.4744 176.21C89.3519 175.526 89.7907 175.181 90.6652 174.491C91.5427 175.073 91.9814 175.383 92.8589 175.971L92.0195 173.431L94.2133 171.697C93.128 171.776 92.587 171.82 91.5047 171.866Z" fill="url(#paint9_linear_741_46)"/>
<path d="M82.8525 150.086C82.5161 151.138 82.3494 151.656 82.0189 152.708C80.9366 152.752 80.3955 152.775 79.3162 152.808C80.1937 153.416 80.6237 153.725 81.4982 154.328L80.6675 156.95C81.545 156.28 81.9779 155.939 82.8525 155.264C83.73 155.869 84.16 156.172 85.0404 156.778C84.7011 155.756 84.5344 155.246 84.2009 154.22L86.3918 152.524C85.3095 152.575 84.7655 152.601 83.6861 152.641L82.8525 150.086Z" fill="url(#paint10_linear_741_46)"/>
<path d="M82.8497 163.152L82.019 165.774C80.9368 165.808 80.3927 165.835 79.3134 165.873L81.4984 167.394L80.6647 170.016L82.8497 168.323L85.0405 169.835C84.7012 168.812 84.5345 168.305 84.2011 167.28C85.0786 166.607 85.5144 166.261 86.3919 165.582L83.6863 165.698L82.8497 163.152Z" fill="url(#paint11_linear_741_46)"/>
<path d="M82.8554 137.019L82.0189 139.641L79.3162 139.74L81.5012 141.264L80.6675 143.885C81.545 143.216 81.9809 142.878 82.8554 142.202C83.7329 142.808 84.16 143.111 85.0404 143.714C84.7011 142.694 84.5344 142.181 84.2009 141.159L86.3918 139.461C85.3095 139.51 84.7684 139.536 83.6861 139.58C83.3556 138.552 83.186 138.045 82.8554 137.019Z" fill="url(#paint12_linear_741_46)"/>
<path d="M106.302 168.221L105.469 170.879C104.384 170.972 103.839 171.012 102.757 171.103C103.634 171.686 104.073 171.977 104.948 172.528L104.114 175.187L106.302 173.404L108.49 174.811C108.21 173.973 107.931 173.134 107.654 172.295L109.842 170.494C108.756 170.596 108.215 170.64 107.136 170.736C106.802 169.728 106.647 169.23 106.302 168.221Z" fill="url(#paint13_linear_741_46)"/>
<path d="M90.6652 143.189L89.8316 145.826C88.7464 145.884 88.2053 145.907 87.123 145.96L89.3109 147.452L88.4744 150.089L90.6652 148.373C91.5427 148.955 91.9814 149.247 92.8589 149.846C92.5255 148.832 92.3529 148.323 92.0195 147.303L94.2133 145.576C93.128 145.64 92.587 145.677 91.5047 145.733L90.6652 143.189Z" fill="url(#paint14_linear_741_46)"/>
<path d="M98.4896 162.301L97.6502 164.952L94.9475 165.119L97.1413 166.575L96.3047 169.217L98.4955 167.47L100.686 168.909L99.8498 166.38C100.727 165.678 101.163 165.323 102.038 164.614L99.332 164.819C99.0451 163.981 98.7643 163.143 98.4896 162.301Z" fill="url(#paint15_linear_741_46)"/>
<path d="M99.3349 177.9L98.4984 175.371L97.6589 178.019C96.5796 178.095 96.0355 178.127 94.9503 178.197L97.1441 179.654L96.3075 182.305C97.185 181.608 97.6209 181.25 98.4984 180.556C99.3759 181.139 99.8117 181.431 100.689 181.998L99.8526 179.47C100.73 178.765 101.166 178.415 102.041 177.705L99.3349 177.9Z" fill="url(#paint16_linear_741_46)"/>
<path d="M90.6652 130.122L89.8316 132.744C88.7464 132.803 88.2053 132.826 87.123 132.881L89.3109 134.376C88.9775 135.431 88.8107 135.958 88.4744 136.998C89.3519 136.313 89.7907 135.972 90.6652 135.282C91.5427 135.864 91.9814 136.156 92.8589 136.759L92.0195 134.215C92.897 133.528 93.3328 133.175 94.2133 132.483C93.128 132.549 92.587 132.584 91.5047 132.642L90.6652 130.122Z" fill="url(#paint17_linear_741_46)"/>
<path d="M98.4837 149.237L97.65 151.886C96.5649 151.955 96.0296 151.996 94.9445 152.06L97.1352 153.517L96.2958 156.165L98.4896 154.418L100.68 155.856L99.8438 153.325L102.031 151.576L99.3261 151.781L98.4837 149.237Z" fill="url(#paint18_linear_741_46)"/>
<path d="M83.6863 178.778L82.8497 176.221L82.0161 178.843L79.3134 178.945C80.1909 179.548 80.6238 179.859 81.4984 180.466L80.6647 183.088L82.8497 181.401L85.0405 182.916L84.2011 180.361L86.3919 178.662L83.6863 178.778Z" fill="url(#paint19_linear_741_46)"/>
<path d="M67.2124 150.511L66.3729 153.113C65.2878 153.113 64.7437 153.113 63.6615 153.13C64.539 153.765 64.9777 154.086 65.8552 154.715L65.0157 157.316L67.2095 155.688C68.087 156.32 68.5257 156.629 69.4032 157.259L68.5696 154.683L70.7604 153.043C69.6753 153.06 69.1341 153.077 68.049 153.089L67.2124 150.511Z" fill="url(#paint20_linear_741_46)"/>
<path d="M67.2124 137.44L66.3729 140.039C65.2878 140.039 64.7437 140.054 63.6615 140.057L65.8552 141.642L65.0187 144.244L67.2124 142.621L69.4032 144.186L68.5696 141.607C69.4471 140.954 69.8829 140.631 70.7604 139.97C69.6782 139.99 69.1341 139.999 68.049 140.013L67.2124 137.44Z" fill="url(#paint21_linear_741_46)"/>
<path d="M68.0374 179.225L67.198 176.647L66.3585 179.243C65.2733 179.258 64.7322 179.26 63.6499 179.266L65.8437 180.848L65.0071 183.453L67.198 181.827L69.3917 183.397C69.1115 182.536 68.8326 181.675 68.5552 180.813L70.746 179.176C69.6725 179.202 69.1343 179.205 68.0374 179.225Z" fill="url(#paint22_linear_741_46)"/>
<path d="M96.296 143.099L98.4839 141.351C99.3614 141.934 99.8031 142.224 100.678 142.793L99.8441 140.261L102.032 138.492C100.947 138.58 100.409 138.621 99.3263 138.7L98.4869 136.174L97.6503 138.816C96.571 138.892 96.0269 138.924 94.9418 138.997L97.1355 140.454L96.296 143.099Z" fill="url(#paint23_linear_741_46)"/>
<path d="M96.296 130.029C97.1735 129.333 97.6123 128.983 98.4869 128.281C99.3644 128.864 99.8031 129.156 100.678 129.72L99.8441 127.192C100.722 126.49 101.157 126.134 102.032 125.427C100.947 125.514 100.409 125.551 99.3263 125.63L98.4869 123.099L97.6503 125.747C96.571 125.825 96.0269 125.86 94.9418 125.927L97.1355 127.384L96.296 130.029Z" fill="url(#paint24_linear_741_46)"/>
<path d="M67.2124 163.578L66.37 166.179H63.6615L65.8552 167.773L65.0157 170.368L67.2095 168.743L69.4032 170.311L68.5696 167.732L70.7575 166.095C69.6753 166.115 69.1341 166.124 68.049 166.139L67.2124 163.578Z" fill="url(#paint25_linear_741_46)"/>
<path d="M75.0399 130.741L74.2033 133.348C73.1211 133.374 72.5799 133.392 71.4918 133.415L73.6856 134.969L72.849 137.59L75.0399 135.93L77.2336 137.468L76.3941 134.902L78.585 133.229L75.8823 133.314C75.543 132.288 75.3762 131.775 75.0399 130.741Z" fill="url(#paint26_linear_741_46)"/>
<path d="M75.0399 143.815L74.2033 146.438L71.4918 146.502C72.3693 147.125 72.8081 147.431 73.6856 148.049C73.3492 149.092 73.1825 149.619 72.849 150.671C73.7265 150.006 74.1624 149.68 75.0369 149.014C75.9144 149.631 76.3561 149.934 77.2336 150.546L76.3941 147.982L78.585 146.312L75.8764 146.397C75.54 145.354 75.3762 144.844 75.0399 143.815Z" fill="url(#paint27_linear_741_46)"/>
<path d="M75.8736 172.515L75.037 169.948L74.2005 172.571C73.1153 172.599 72.5712 172.61 71.4861 172.635L73.6827 174.184L72.8433 176.806L75.0341 175.148L77.2308 176.687L76.3913 174.12L78.5821 172.448L75.8736 172.515Z" fill="url(#paint28_linear_741_46)"/>
<path d="M75.0369 156.882L74.2004 159.505C73.1181 159.531 72.5741 159.548 71.4918 159.566L73.6827 161.118C73.3463 162.161 73.1796 162.689 72.8461 163.741L75.0369 162.08L77.2307 163.618C76.8972 162.592 76.7305 162.08 76.3912 161.054C77.2687 160.39 77.7104 160.049 78.585 159.379C77.4998 159.414 76.9587 159.438 75.8764 159.469L75.0369 156.882Z" fill="url(#paint29_linear_741_46)"/>
<path d="M67.2124 124.372L66.3759 126.974C65.2907 126.974 64.7437 126.991 63.6615 126.997C64.539 127.632 64.9806 127.953 65.8552 128.578L65.0187 131.175L67.2124 129.558C68.0899 130.187 68.5287 130.496 69.4062 131.119L68.5725 128.544L70.7663 126.903C69.6811 126.927 69.1341 126.939 68.049 126.953L67.2124 124.372Z" fill="url(#paint30_linear_741_46)"/>
<path d="M106.302 155.158L105.469 157.814C104.384 157.907 103.845 157.948 102.76 158.035C103.638 158.618 104.074 158.892 104.948 159.458L104.114 162.12C104.992 161.41 105.427 161.049 106.302 160.335L108.491 161.741L107.654 159.228L109.842 157.427C108.756 157.529 108.215 157.573 107.136 157.669C106.803 156.669 106.648 156.165 106.302 155.158Z" fill="url(#paint31_linear_741_46)"/>
<path d="M137.559 151.819L136.719 154.514L134.008 154.854L136.198 156.183L135.359 158.878L137.556 157.001C138.433 157.526 138.872 157.794 139.75 158.322L138.91 155.84L141.107 153.952L138.395 154.304L137.559 151.819Z" fill="url(#paint32_linear_741_46)"/>
<path d="M137.559 138.753C137.222 139.834 137.052 140.367 136.719 141.448C135.634 141.585 135.09 141.655 134.008 141.783C134.885 142.322 135.324 142.584 136.202 143.118L135.365 145.81C136.243 145.057 136.681 144.688 137.559 143.933L139.753 145.252L138.913 142.773L141.109 140.883C140.028 141.023 139.481 141.098 138.398 141.235L137.559 138.753Z" fill="url(#paint33_linear_741_46)"/>
<path d="M138.392 167.368L137.556 164.886L136.716 167.584C135.634 167.715 135.09 167.791 134.008 167.919L136.198 169.251L135.359 171.945L137.553 170.069C138.43 170.596 138.872 170.859 139.746 171.389L138.91 168.91L141.104 167.018L138.392 167.368Z" fill="url(#paint34_linear_741_46)"/>
<path d="M129.755 133.176C129.424 134.252 129.261 134.79 128.924 135.868L126.227 136.177L128.41 137.527L127.578 140.215C128.456 139.475 128.883 139.102 129.755 138.36L131.94 139.697L131.103 137.209L133.298 135.341L130.589 135.67C130.299 134.843 130.021 134.012 129.755 133.176Z" fill="url(#paint35_linear_741_46)"/>
<path d="M137.561 125.682L136.719 128.377C135.634 128.514 135.093 128.581 134.008 128.712L136.205 130.046L135.365 132.744C136.243 131.995 136.681 131.611 137.559 130.862L139.756 132.187C139.477 131.359 139.197 130.531 138.916 129.702C139.794 128.954 140.235 128.567 141.112 127.812L138.398 128.165L137.561 125.682Z" fill="url(#paint36_linear_741_46)"/>
<path d="M129.755 120.113C129.424 121.184 129.261 121.727 128.924 122.802L126.227 123.11C127.105 123.647 127.54 123.921 128.41 124.459L127.578 127.146C128.456 126.406 128.883 126.032 129.755 125.29L131.943 126.627L131.106 124.142C131.984 123.393 132.416 123.02 133.298 122.275L130.589 122.603C130.3 121.777 130.022 120.947 129.755 120.113Z" fill="url(#paint37_linear_741_46)"/>
<path d="M145.387 144.253L144.547 146.96C143.464 147.105 142.923 147.181 141.841 147.321L144.032 148.628L143.192 151.332L145.383 149.432L147.572 150.73C147.234 149.742 147.071 149.247 146.738 148.256C147.615 147.493 148.048 147.114 148.92 146.345C147.84 146.502 147.302 146.572 146.222 146.727L145.387 144.253Z" fill="url(#paint38_linear_741_46)"/>
<path d="M145.392 131.186L144.553 133.887C143.47 134.039 142.93 134.108 141.844 134.254C142.722 134.781 143.157 135.035 144.032 135.556L143.195 138.265L145.389 136.36L147.574 137.663C147.238 136.672 147.074 136.177 146.74 135.184C147.618 134.42 148.051 134.041 148.923 133.275L146.226 133.657L145.392 131.186Z" fill="url(#paint39_linear_741_46)"/>
<path d="M146.211 172.862L145.377 170.388L144.538 173.092C143.459 173.241 142.915 173.313 141.836 173.456L144.023 174.765L143.184 177.474C144.061 176.716 144.503 176.329 145.377 175.566L147.562 176.868L146.726 174.391L148.91 172.48C147.831 172.638 147.305 172.713 146.211 172.862Z" fill="url(#paint40_linear_741_46)"/>
<path d="M145.395 118.114L144.556 120.82C143.474 120.969 142.93 121.045 141.844 121.188L144.041 122.492L143.198 125.194L145.395 123.297C146.272 123.816 146.705 124.078 147.58 124.59C147.247 123.603 147.077 123.107 146.746 122.116C147.624 121.353 148.053 120.975 148.925 120.205C147.849 120.363 147.311 120.441 146.232 120.59L145.395 118.114Z" fill="url(#paint41_linear_741_46)"/>
<path d="M145.383 157.322L144.543 160.025L141.839 160.387L144.026 161.698L143.19 164.399L145.38 162.502L147.565 163.795L146.732 161.322C147.61 160.558 148.042 160.18 148.914 159.411C147.837 159.571 147.297 159.644 146.214 159.792L145.383 157.322Z" fill="url(#paint42_linear_741_46)"/>
<path d="M129.755 146.246C129.424 147.321 129.261 147.859 128.924 148.935L126.224 149.247C127.102 149.785 127.537 150.062 128.409 150.598L127.578 153.284L129.755 151.425L131.943 152.766L131.106 150.277C131.983 149.532 132.416 149.156 133.297 148.41C132.212 148.544 131.665 148.608 130.589 148.736L129.755 146.246Z" fill="url(#paint43_linear_741_46)"/>
<path d="M106.302 129.019L105.469 131.676C104.384 131.769 103.839 131.815 102.757 131.9L104.948 133.328L104.114 135.987C104.992 135.277 105.427 134.912 106.302 134.199C107.18 134.781 107.612 135.047 108.49 135.609L107.654 133.095C108.531 132.378 108.967 132.008 109.842 131.291L107.136 131.536C106.802 130.525 106.647 130.027 106.302 129.019Z" fill="url(#paint44_linear_741_46)"/>
<path d="M114.118 160.972L113.281 163.643C112.199 163.745 111.655 163.798 110.57 163.894L112.764 165.29L111.924 167.961L114.118 166.152C114.995 166.711 115.434 166.985 116.312 167.541L115.472 165.036C116.35 164.314 116.785 163.947 117.663 163.218L114.957 163.486C114.621 162.495 114.451 161.98 114.118 160.972Z" fill="url(#paint45_linear_741_46)"/>
<path d="M129.755 159.312L128.924 162.002C127.845 162.127 127.306 162.194 126.224 162.313C127.102 162.858 127.535 163.129 128.409 163.665L127.575 166.348C128.453 165.608 128.883 165.238 129.755 164.495L131.94 165.832L131.106 163.347C131.983 162.599 132.416 162.223 133.297 161.477C132.212 161.611 131.665 161.672 130.589 161.803C130.299 160.977 130.02 160.146 129.755 159.312Z" fill="url(#paint46_linear_741_46)"/>
<path d="M114.118 134.84L113.281 137.509L110.57 137.763L112.764 139.157L111.924 141.83C112.802 141.104 113.243 140.745 114.118 140.02C114.995 140.576 115.434 140.85 116.312 141.41C115.975 140.404 115.806 139.904 115.475 138.898C116.353 138.173 116.788 137.815 117.666 137.084L114.957 137.348L114.118 134.84Z" fill="url(#paint47_linear_741_46)"/>
<path d="M114.118 174.042L113.281 176.711C112.199 176.816 111.655 176.865 110.57 176.965L112.764 178.36L111.924 181.035L114.118 179.222L116.312 180.615L115.472 178.104C116.35 177.382 116.785 177.017 117.663 176.289L114.957 176.551L114.118 174.042Z" fill="url(#paint48_linear_741_46)"/>
<path d="M106.302 142.103L105.469 144.762C104.384 144.853 103.845 144.899 102.76 144.983C103.638 145.567 104.074 145.858 104.948 146.409L104.114 149.068L106.302 147.283C107.18 147.848 107.613 148.13 108.491 148.689L107.654 146.176L109.842 144.375C108.756 144.477 108.215 144.521 107.136 144.619L106.302 142.103Z" fill="url(#paint49_linear_741_46)"/>
<path d="M114.12 121.771L113.281 124.442C112.199 124.547 111.655 124.593 110.57 124.693L112.761 126.091L111.924 128.757L114.12 126.95C114.998 127.501 115.431 127.787 116.312 128.34L115.475 125.832C116.353 125.11 116.788 124.742 117.669 124.014C116.584 124.122 116.043 124.18 114.957 124.282L114.12 121.771Z" fill="url(#paint50_linear_741_46)"/>
<path d="M114.118 147.906L113.281 150.574L110.57 150.842L112.764 152.241L111.927 154.912L114.118 153.101L116.312 154.49L115.475 151.982L117.666 150.164C116.584 150.274 116.043 150.327 114.957 150.432C114.624 149.409 114.454 148.914 114.118 147.906Z" fill="url(#paint51_linear_741_46)"/>
<path d="M130.574 174.875C130.241 173.882 130.077 173.378 129.74 172.381L128.91 175.07C127.83 175.202 127.292 175.257 126.21 175.38L128.392 176.732L127.561 179.421C128.438 178.681 128.869 178.302 129.74 177.559C130.618 178.098 131.054 178.369 131.928 178.902L131.092 176.414L133.283 174.543L130.574 174.875Z" fill="url(#paint52_linear_741_46)"/>
<path d="M122.776 169.219L121.939 166.717L121.1 169.4L118.394 169.692L120.585 171.07L119.749 173.747L121.942 171.915L124.131 173.284L123.29 170.784C124.168 170.05 124.607 169.677 125.482 168.937C124.399 169.045 123.858 169.106 122.776 169.219Z" fill="url(#paint53_linear_741_46)"/>
<path d="M121.942 127.518L121.105 130.195C120.024 130.312 119.479 130.359 118.398 130.487L120.588 131.867L119.751 134.545L121.945 132.712L124.133 134.079L123.294 131.582L125.484 129.738L122.779 130.029L121.942 127.518Z" fill="url(#paint54_linear_741_46)"/>
<path d="M121.939 153.655L121.102 156.332L118.394 156.623L120.588 157.999L119.751 160.676L121.942 158.849L124.133 160.21L123.294 157.716L125.484 155.872C124.402 155.988 123.858 156.052 122.779 156.163L121.939 153.655Z" fill="url(#paint55_linear_741_46)"/>
<path d="M121.942 140.585C121.609 141.66 121.44 142.19 121.102 143.265C120.023 143.382 119.477 143.432 118.394 143.542L120.588 144.917L119.751 147.595L121.942 145.768L124.133 147.132L123.294 144.635C124.171 143.9 124.61 143.528 125.484 142.791C124.405 142.913 123.861 142.968 122.779 143.082L121.942 140.585Z" fill="url(#paint56_linear_741_46)"/>
</g>
<defs>
<linearGradient id="paint0_linear_741_46" x1="61.7077" y1="227.578" x2="245" y2="227.578" gradientUnits="userSpaceOnUse">
<stop stop-color="#600000"/>
<stop offset="0.327" stop-color="#630000"/>
<stop offset="0.59" stop-color="#6D0000"/>
<stop offset="0.83" stop-color="#7E0000"/>
<stop offset="1" stop-color="#8F0000"/>
</linearGradient>
<linearGradient id="paint1_linear_741_46" x1="153.353" y1="211.121" x2="153.353" y2="244.071" gradientUnits="userSpaceOnUse">
<stop offset="0.35" stop-color="#BF1010"/>
<stop offset="0.645" stop-color="#BD1010"/>
<stop offset="0.752" stop-color="#B60F0F"/>
<stop offset="0.828" stop-color="#AB0D0D"/>
<stop offset="0.889" stop-color="#9A0A0A"/>
<stop offset="0.941" stop-color="#840606"/>
<stop offset="0.987" stop-color="#690202"/>
<stop offset="1" stop-color="#600000"/>
</linearGradient>
<linearGradient id="paint2_linear_741_46" x1="61.7078" y1="172.151" x2="245" y2="172.151" gradientUnits="userSpaceOnUse">
<stop stop-color="#BF1010"/>
<stop offset="0.021" stop-color="#C11212"/>
<stop offset="0.244" stop-color="#D22323"/>
<stop offset="0.487" stop-color="#DC2D2D"/>
<stop offset="0.791" stop-color="#DF3030"/>
<stop offset="0.841" stop-color="#DC2E2E"/>
<stop offset="0.882" stop-color="#D22626"/>
<stop offset="0.919" stop-color="#C11919"/>
<stop offset="0.954" stop-color="#A90808"/>
<stop offset="0.966" stop-color="#9F0000"/>
<stop offset="1" stop-color="#DF3030"/>
</linearGradient>
<linearGradient id="paint3_linear_741_46" x1="61.7077" y1="153.479" x2="245" y2="153.479" gradientUnits="userSpaceOnUse">
<stop stop-color="#DFDFDF"/>
<stop offset="0.021" stop-color="#E1E1E1"/>
<stop offset="0.244" stop-color="#F2F2F2"/>
<stop offset="0.487" stop-color="#FCFCFC"/>
<stop offset="0.791" stop-color="white"/>
<stop offset="0.841" stop-color="#FCFCFC"/>
<stop offset="0.882" stop-color="#F2F2F2"/>
<stop offset="0.919" stop-color="#E1E1E1"/>
<stop offset="0.954" stop-color="#C9C9C9"/>
<stop offset="0.966" stop-color="#BFBFBF"/>
<stop offset="1" stop-color="white"/>
</linearGradient>
<linearGradient id="paint4_linear_741_46" x1="61.7078" y1="200.293" x2="245" y2="200.293" gradientUnits="userSpaceOnUse">
<stop stop-color="#DFDFDF"/>
<stop offset="0.021" stop-color="#E1E1E1"/>
<stop offset="0.244" stop-color="#F2F2F2"/>
<stop offset="0.487" stop-color="#FCFCFC"/>
<stop offset="0.791" stop-color="white"/>
<stop offset="0.841" stop-color="#FCFCFC"/>
<stop offset="0.882" stop-color="#F2F2F2"/>
<stop offset="0.919" stop-color="#E1E1E1"/>
<stop offset="0.954" stop-color="#C9C9C9"/>
<stop offset="0.966" stop-color="#BFBFBF"/>
<stop offset="1" stop-color="white"/>
</linearGradient>
<linearGradient id="paint5_linear_741_46" x1="61.7077" y1="219.019" x2="245" y2="219.019" gradientUnits="userSpaceOnUse">
<stop stop-color="#DFDFDF"/>
<stop offset="0.021" stop-color="#E1E1E1"/>
<stop offset="0.244" stop-color="#F2F2F2"/>
<stop offset="0.487" stop-color="#FCFCFC"/>
<stop offset="0.791" stop-color="white"/>
<stop offset="0.841" stop-color="#FCFCFC"/>
<stop offset="0.882" stop-color="#F2F2F2"/>
<stop offset="0.919" stop-color="#E1E1E1"/>
<stop offset="0.954" stop-color="#C9C9C9"/>
<stop offset="0.966" stop-color="#BFBFBF"/>
<stop offset="1" stop-color="white"/>
</linearGradient>
<linearGradient id="paint6_linear_741_46" x1="61.7077" y1="150.479" x2="245" y2="150.479" gradientUnits="userSpaceOnUse">
<stop stop-color="#00209F"/>
<stop offset="0.021" stop-color="#0222A1"/>
<stop offset="0.244" stop-color="#1333B2"/>
<stop offset="0.487" stop-color="#1D3DBC"/>
<stop offset="0.791" stop-color="#2040BF"/>
<stop offset="0.841" stop-color="#1E3DBC"/>
<stop offset="0.882" stop-color="#1933B2"/>
<stop offset="0.919" stop-color="#1122A1"/>
<stop offset="0.954" stop-color="#050A89"/>
<stop offset="0.966" stop-color="#00007F"/>
<stop offset="1" stop-color="#2040BF"/>
</linearGradient>
<linearGradient id="paint7_linear_741_46" x1="61.7108" y1="127.381" x2="244.991" y2="127.381" gradientUnits="userSpaceOnUse">
<stop stop-color="#DFDFDF"/>
<stop offset="0.021" stop-color="#E1E1E1"/>
<stop offset="0.244" stop-color="#F2F2F2"/>
<stop offset="0.487" stop-color="#FCFCFC"/>
<stop offset="0.791" stop-color="white"/>
<stop offset="0.841" stop-color="#FCFCFC"/>
<stop offset="0.882" stop-color="#F2F2F2"/>
<stop offset="0.919" stop-color="#E1E1E1"/>
<stop offset="0.954" stop-color="#C9C9C9"/>
<stop offset="0.966" stop-color="#BFBFBF"/>
<stop offset="1" stop-color="white"/>
</linearGradient>
<linearGradient id="paint8_linear_741_46" x1="61.7106" y1="159.705" x2="244.982" y2="159.705" gradientUnits="userSpaceOnUse">
<stop stop-color="#DFDFDF"/>
<stop offset="0.021" stop-color="#E1E1E1"/>
<stop offset="0.244" stop-color="#F2F2F2"/>
<stop offset="0.487" stop-color="#FCFCFC"/>
<stop offset="0.791" stop-color="white"/>
<stop offset="0.841" stop-color="#FCFCFC"/>
<stop offset="0.882" stop-color="#F2F2F2"/>
<stop offset="0.919" stop-color="#E1E1E1"/>
<stop offset="0.954" stop-color="#C9C9C9"/>
<stop offset="0.966" stop-color="#BFBFBF"/>
<stop offset="1" stop-color="white"/>
</linearGradient>
<linearGradient id="paint9_linear_741_46" x1="61.7106" y1="172.772" x2="244.982" y2="172.772" gradientUnits="userSpaceOnUse">
<stop stop-color="#DFDFDF"/>
<stop offset="0.021" stop-color="#E1E1E1"/>
<stop offset="0.244" stop-color="#F2F2F2"/>
<stop offset="0.487" stop-color="#FCFCFC"/>
<stop offset="0.791" stop-color="white"/>
<stop offset="0.841" stop-color="#FCFCFC"/>
<stop offset="0.882" stop-color="#F2F2F2"/>
<stop offset="0.919" stop-color="#E1E1E1"/>
<stop offset="0.954" stop-color="#C9C9C9"/>
<stop offset="0.966" stop-color="#BFBFBF"/>
<stop offset="1" stop-color="white"/>
</linearGradient>
<linearGradient id="paint10_linear_741_46" x1="61.7106" y1="153.521" x2="244.99" y2="153.521" gradientUnits="userSpaceOnUse">
<stop stop-color="#DFDFDF"/>
<stop offset="0.021" stop-color="#E1E1E1"/>
<stop offset="0.244" stop-color="#F2F2F2"/>
<stop offset="0.487" stop-color="#FCFCFC"/>
<stop offset="0.791" stop-color="white"/>
<stop offset="0.841" stop-color="#FCFCFC"/>
<stop offset="0.882" stop-color="#F2F2F2"/>
<stop offset="0.919" stop-color="#E1E1E1"/>
<stop offset="0.954" stop-color="#C9C9C9"/>
<stop offset="0.966" stop-color="#BFBFBF"/>
<stop offset="1" stop-color="white"/>
</linearGradient>
<linearGradient id="paint11_linear_741_46" x1="61.7107" y1="166.584" x2="244.992" y2="166.584" gradientUnits="userSpaceOnUse">
<stop stop-color="#DFDFDF"/>
<stop offset="0.021" stop-color="#E1E1E1"/>
<stop offset="0.244" stop-color="#F2F2F2"/>
<stop offset="0.487" stop-color="#FCFCFC"/>
<stop offset="0.791" stop-color="white"/>
<stop offset="0.841" stop-color="#FCFCFC"/>
<stop offset="0.882" stop-color="#F2F2F2"/>
<stop offset="0.919" stop-color="#E1E1E1"/>
<stop offset="0.954" stop-color="#C9C9C9"/>
<stop offset="0.966" stop-color="#BFBFBF"/>
<stop offset="1" stop-color="white"/>
</linearGradient>
<linearGradient id="paint12_linear_741_46" x1="61.7106" y1="140.451" x2="244.99" y2="140.451" gradientUnits="userSpaceOnUse">
<stop stop-color="#DFDFDF"/>
<stop offset="0.021" stop-color="#E1E1E1"/>
<stop offset="0.244" stop-color="#F2F2F2"/>
<stop offset="0.487" stop-color="#FCFCFC"/>
<stop offset="0.791" stop-color="white"/>
<stop offset="0.841" stop-color="#FCFCFC"/>
<stop offset="0.882" stop-color="#F2F2F2"/>
<stop offset="0.919" stop-color="#E1E1E1"/>
<stop offset="0.954" stop-color="#C9C9C9"/>
<stop offset="0.966" stop-color="#BFBFBF"/>
<stop offset="1" stop-color="white"/>
</linearGradient>
<linearGradient id="paint13_linear_741_46" x1="61.699" y1="171.706" x2="245.026" y2="171.706" gradientUnits="userSpaceOnUse">
<stop stop-color="#DFDFDF"/>
<stop offset="0.021" stop-color="#E1E1E1"/>
<stop offset="0.244" stop-color="#F2F2F2"/>
<stop offset="0.487" stop-color="#FCFCFC"/>
<stop offset="0.791" stop-color="white"/>
<stop offset="0.841" stop-color="#FCFCFC"/>
<stop offset="0.882" stop-color="#F2F2F2"/>
<stop offset="0.919" stop-color="#E1E1E1"/>
<stop offset="0.954" stop-color="#C9C9C9"/>
<stop offset="0.966" stop-color="#BFBFBF"/>
<stop offset="1" stop-color="white"/>
</linearGradient>
<linearGradient id="paint14_linear_741_46" x1="61.7106" y1="146.639" x2="244.982" y2="146.639" gradientUnits="userSpaceOnUse">
<stop stop-color="#DFDFDF"/>
<stop offset="0.021" stop-color="#E1E1E1"/>
<stop offset="0.244" stop-color="#F2F2F2"/>
<stop offset="0.487" stop-color="#FCFCFC"/>
<stop offset="0.791" stop-color="white"/>
<stop offset="0.841" stop-color="#FCFCFC"/>
<stop offset="0.882" stop-color="#F2F2F2"/>
<stop offset="0.919" stop-color="#E1E1E1"/>
<stop offset="0.954" stop-color="#C9C9C9"/>
<stop offset="0.966" stop-color="#BFBFBF"/>
<stop offset="1" stop-color="white"/>
</linearGradient>
<linearGradient id="paint15_linear_741_46" x1="61.7108" y1="165.769" x2="244.982" y2="165.769" gradientUnits="userSpaceOnUse">
<stop stop-color="#DFDFDF"/>
<stop offset="0.021" stop-color="#E1E1E1"/>
<stop offset="0.244" stop-color="#F2F2F2"/>
<stop offset="0.487" stop-color="#FCFCFC"/>
<stop offset="0.791" stop-color="white"/>
<stop offset="0.841" stop-color="#FCFCFC"/>
<stop offset="0.882" stop-color="#F2F2F2"/>
<stop offset="0.919" stop-color="#E1E1E1"/>
<stop offset="0.954" stop-color="#C9C9C9"/>
<stop offset="0.966" stop-color="#BFBFBF"/>
<stop offset="1" stop-color="white"/>
</linearGradient>
<linearGradient id="paint16_linear_741_46" x1="61.7106" y1="178.837" x2="244.982" y2="178.837" gradientUnits="userSpaceOnUse">
<stop stop-color="#DFDFDF"/>
<stop offset="0.021" stop-color="#E1E1E1"/>
<stop offset="0.244" stop-color="#F2F2F2"/>
<stop offset="0.487" stop-color="#FCFCFC"/>
<stop offset="0.791" stop-color="white"/>
<stop offset="0.841" stop-color="#FCFCFC"/>
<stop offset="0.882" stop-color="#F2F2F2"/>
<stop offset="0.919" stop-color="#E1E1E1"/>
<stop offset="0.954" stop-color="#C9C9C9"/>
<stop offset="0.966" stop-color="#BFBFBF"/>
<stop offset="1" stop-color="white"/>
</linearGradient>
<linearGradient id="paint17_linear_741_46" x1="61.7106" y1="133.569" x2="244.982" y2="133.569" gradientUnits="userSpaceOnUse">
<stop stop-color="#DFDFDF"/>
<stop offset="0.021" stop-color="#E1E1E1"/>
<stop offset="0.244" stop-color="#F2F2F2"/>
<stop offset="0.487" stop-color="#FCFCFC"/>
<stop offset="0.791" stop-color="white"/>
<stop offset="0.841" stop-color="#FCFCFC"/>
<stop offset="0.882" stop-color="#F2F2F2"/>
<stop offset="0.919" stop-color="#E1E1E1"/>
<stop offset="0.954" stop-color="#C9C9C9"/>
<stop offset="0.966" stop-color="#BFBFBF"/>
<stop offset="1" stop-color="white"/>
</linearGradient>
<linearGradient id="paint18_linear_741_46" x1="61.7105" y1="152.702" x2="244.988" y2="152.702" gradientUnits="userSpaceOnUse">
<stop stop-color="#DFDFDF"/>
<stop offset="0.021" stop-color="#E1E1E1"/>
<stop offset="0.244" stop-color="#F2F2F2"/>
<stop offset="0.487" stop-color="#FCFCFC"/>
<stop offset="0.791" stop-color="white"/>
<stop offset="0.841" stop-color="#FCFCFC"/>
<stop offset="0.882" stop-color="#F2F2F2"/>
<stop offset="0.919" stop-color="#E1E1E1"/>
<stop offset="0.954" stop-color="#C9C9C9"/>
<stop offset="0.966" stop-color="#BFBFBF"/>
<stop offset="1" stop-color="white"/>
</linearGradient>
<linearGradient id="paint19_linear_741_46" x1="61.7107" y1="179.656" x2="244.992" y2="179.656" gradientUnits="userSpaceOnUse">
<stop stop-color="#DFDFDF"/>
<stop offset="0.021" stop-color="#E1E1E1"/>
<stop offset="0.244" stop-color="#F2F2F2"/>
<stop offset="0.487" stop-color="#FCFCFC"/>
<stop offset="0.791" stop-color="white"/>
<stop offset="0.841" stop-color="#FCFCFC"/>
<stop offset="0.882" stop-color="#F2F2F2"/>
<stop offset="0.919" stop-color="#E1E1E1"/>
<stop offset="0.954" stop-color="#C9C9C9"/>
<stop offset="0.966" stop-color="#BFBFBF"/>
<stop offset="1" stop-color="white"/>
</linearGradient>
<linearGradient id="paint20_linear_741_46" x1="61.7076" y1="153.914" x2="245.023" y2="153.914" gradientUnits="userSpaceOnUse">
<stop stop-color="#DFDFDF"/>
<stop offset="0.021" stop-color="#E1E1E1"/>
<stop offset="0.244" stop-color="#F2F2F2"/>
<stop offset="0.487" stop-color="#FCFCFC"/>
<stop offset="0.791" stop-color="white"/>
<stop offset="0.841" stop-color="#FCFCFC"/>
<stop offset="0.882" stop-color="#F2F2F2"/>
<stop offset="0.919" stop-color="#E1E1E1"/>
<stop offset="0.954" stop-color="#C9C9C9"/>
<stop offset="0.966" stop-color="#BFBFBF"/>
<stop offset="1" stop-color="white"/>
</linearGradient>
<linearGradient id="paint21_linear_741_46" x1="61.7076" y1="140.844" x2="245.023" y2="140.844" gradientUnits="userSpaceOnUse">
<stop stop-color="#DFDFDF"/>
<stop offset="0.021" stop-color="#E1E1E1"/>
<stop offset="0.244" stop-color="#F2F2F2"/>
<stop offset="0.487" stop-color="#FCFCFC"/>
<stop offset="0.791" stop-color="white"/>
<stop offset="0.841" stop-color="#FCFCFC"/>
<stop offset="0.882" stop-color="#F2F2F2"/>
<stop offset="0.919" stop-color="#E1E1E1"/>
<stop offset="0.954" stop-color="#C9C9C9"/>
<stop offset="0.966" stop-color="#BFBFBF"/>
<stop offset="1" stop-color="white"/>
</linearGradient>
<linearGradient id="paint22_linear_741_46" x1="61.7077" y1="180.05" x2="244.974" y2="180.05" gradientUnits="userSpaceOnUse">
<stop stop-color="#DFDFDF"/>
<stop offset="0.021" stop-color="#E1E1E1"/>
<stop offset="0.244" stop-color="#F2F2F2"/>
<stop offset="0.487" stop-color="#FCFCFC"/>
<stop offset="0.791" stop-color="white"/>
<stop offset="0.841" stop-color="#FCFCFC"/>
<stop offset="0.882" stop-color="#F2F2F2"/>
<stop offset="0.919" stop-color="#E1E1E1"/>
<stop offset="0.954" stop-color="#C9C9C9"/>
<stop offset="0.966" stop-color="#BFBFBF"/>
<stop offset="1" stop-color="white"/>
</linearGradient>
<linearGradient id="paint23_linear_741_46" x1="61.7108" y1="139.635" x2="244.982" y2="139.635" gradientUnits="userSpaceOnUse">
<stop stop-color="#DFDFDF"/>
<stop offset="0.021" stop-color="#E1E1E1"/>
<stop offset="0.244" stop-color="#F2F2F2"/>
<stop offset="0.487" stop-color="#FCFCFC"/>
<stop offset="0.791" stop-color="white"/>
<stop offset="0.841" stop-color="#FCFCFC"/>
<stop offset="0.882" stop-color="#F2F2F2"/>
<stop offset="0.919" stop-color="#E1E1E1"/>
<stop offset="0.954" stop-color="#C9C9C9"/>
<stop offset="0.966" stop-color="#BFBFBF"/>
<stop offset="1" stop-color="white"/>
</linearGradient>
<linearGradient id="paint24_linear_741_46" x1="61.7108" y1="126.562" x2="244.982" y2="126.562" gradientUnits="userSpaceOnUse">
<stop stop-color="#DFDFDF"/>
<stop offset="0.021" stop-color="#E1E1E1"/>
<stop offset="0.244" stop-color="#F2F2F2"/>
<stop offset="0.487" stop-color="#FCFCFC"/>
<stop offset="0.791" stop-color="white"/>
<stop offset="0.841" stop-color="#FCFCFC"/>
<stop offset="0.882" stop-color="#F2F2F2"/>
<stop offset="0.919" stop-color="#E1E1E1"/>
<stop offset="0.954" stop-color="#C9C9C9"/>
<stop offset="0.966" stop-color="#BFBFBF"/>
<stop offset="1" stop-color="white"/>
</linearGradient>
<linearGradient id="paint25_linear_741_46" x1="61.7076" y1="166.981" x2="244.974" y2="166.981" gradientUnits="userSpaceOnUse">
<stop stop-color="#DFDFDF"/>
<stop offset="0.021" stop-color="#E1E1E1"/>
<stop offset="0.244" stop-color="#F2F2F2"/>
<stop offset="0.487" stop-color="#FCFCFC"/>
<stop offset="0.791" stop-color="white"/>
<stop offset="0.841" stop-color="#FCFCFC"/>
<stop offset="0.882" stop-color="#F2F2F2"/>
<stop offset="0.919" stop-color="#E1E1E1"/>
<stop offset="0.954" stop-color="#C9C9C9"/>
<stop offset="0.966" stop-color="#BFBFBF"/>
<stop offset="1" stop-color="white"/>
</linearGradient>
<linearGradient id="paint26_linear_741_46" x1="61.7078" y1="134.17" x2="244.979" y2="134.17" gradientUnits="userSpaceOnUse">
<stop stop-color="#DFDFDF"/>
<stop offset="0.021" stop-color="#E1E1E1"/>
<stop offset="0.244" stop-color="#F2F2F2"/>
<stop offset="0.487" stop-color="#FCFCFC"/>
<stop offset="0.791" stop-color="white"/>
<stop offset="0.841" stop-color="#FCFCFC"/>
<stop offset="0.882" stop-color="#F2F2F2"/>
<stop offset="0.919" stop-color="#E1E1E1"/>
<stop offset="0.954" stop-color="#C9C9C9"/>
<stop offset="0.966" stop-color="#BFBFBF"/>
<stop offset="1" stop-color="white"/>
</linearGradient>
<linearGradient id="paint27_linear_741_46" x1="61.7078" y1="147.236" x2="244.979" y2="147.236" gradientUnits="userSpaceOnUse">
<stop stop-color="#DFDFDF"/>
<stop offset="0.021" stop-color="#E1E1E1"/>
<stop offset="0.244" stop-color="#F2F2F2"/>
<stop offset="0.487" stop-color="#FCFCFC"/>
<stop offset="0.791" stop-color="white"/>
<stop offset="0.841" stop-color="#FCFCFC"/>
<stop offset="0.882" stop-color="#F2F2F2"/>
<stop offset="0.919" stop-color="#E1E1E1"/>
<stop offset="0.954" stop-color="#C9C9C9"/>
<stop offset="0.966" stop-color="#BFBFBF"/>
<stop offset="1" stop-color="white"/>
</linearGradient>
<linearGradient id="paint28_linear_741_46" x1="61.7078" y1="173.368" x2="244.98" y2="173.368" gradientUnits="userSpaceOnUse">
<stop stop-color="#DFDFDF"/>
<stop offset="0.021" stop-color="#E1E1E1"/>
<stop offset="0.244" stop-color="#F2F2F2"/>
<stop offset="0.487" stop-color="#FCFCFC"/>
<stop offset="0.791" stop-color="white"/>
<stop offset="0.841" stop-color="#FCFCFC"/>
<stop offset="0.882" stop-color="#F2F2F2"/>
<stop offset="0.919" stop-color="#E1E1E1"/>
<stop offset="0.954" stop-color="#C9C9C9"/>
<stop offset="0.966" stop-color="#BFBFBF"/>
<stop offset="1" stop-color="white"/>
</linearGradient>
<linearGradient id="paint29_linear_741_46" x1="61.7078" y1="160.302" x2="244.979" y2="160.302" gradientUnits="userSpaceOnUse">
<stop stop-color="#DFDFDF"/>
<stop offset="0.021" stop-color="#E1E1E1"/>
<stop offset="0.244" stop-color="#F2F2F2"/>
<stop offset="0.487" stop-color="#FCFCFC"/>
<stop offset="0.791" stop-color="white"/>
<stop offset="0.841" stop-color="#FCFCFC"/>
<stop offset="0.882" stop-color="#F2F2F2"/>
<stop offset="0.919" stop-color="#E1E1E1"/>
<stop offset="0.954" stop-color="#C9C9C9"/>
<stop offset="0.966" stop-color="#BFBFBF"/>
<stop offset="1" stop-color="white"/>
</linearGradient>
<linearGradient id="paint30_linear_741_46" x1="61.7076" y1="127.774" x2="245.017" y2="127.774" gradientUnits="userSpaceOnUse">
<stop stop-color="#DFDFDF"/>
<stop offset="0.021" stop-color="#E1E1E1"/>
<stop offset="0.244" stop-color="#F2F2F2"/>
<stop offset="0.487" stop-color="#FCFCFC"/>
<stop offset="0.791" stop-color="white"/>
<stop offset="0.841" stop-color="#FCFCFC"/>
<stop offset="0.882" stop-color="#F2F2F2"/>
<stop offset="0.919" stop-color="#E1E1E1"/>
<stop offset="0.954" stop-color="#C9C9C9"/>
<stop offset="0.966" stop-color="#BFBFBF"/>
<stop offset="1" stop-color="white"/>
</linearGradient>
<linearGradient id="paint31_linear_741_46" x1="61.6991" y1="158.639" x2="245.026" y2="158.639" gradientUnits="userSpaceOnUse">
<stop stop-color="#DFDFDF"/>
<stop offset="0.021" stop-color="#E1E1E1"/>
<stop offset="0.244" stop-color="#F2F2F2"/>
<stop offset="0.487" stop-color="#FCFCFC"/>
<stop offset="0.791" stop-color="white"/>
<stop offset="0.841" stop-color="#FCFCFC"/>
<stop offset="0.882" stop-color="#F2F2F2"/>
<stop offset="0.919" stop-color="#E1E1E1"/>
<stop offset="0.954" stop-color="#C9C9C9"/>
<stop offset="0.966" stop-color="#BFBFBF"/>
<stop offset="1" stop-color="white"/>
</linearGradient>
<linearGradient id="paint32_linear_741_46" x1="61.7164" y1="155.346" x2="244.985" y2="155.346" gradientUnits="userSpaceOnUse">
<stop stop-color="#DFDFDF"/>
<stop offset="0.021" stop-color="#E1E1E1"/>
<stop offset="0.244" stop-color="#F2F2F2"/>
<stop offset="0.487" stop-color="#FCFCFC"/>
<stop offset="0.791" stop-color="white"/>
<stop offset="0.841" stop-color="#FCFCFC"/>
<stop offset="0.882" stop-color="#F2F2F2"/>
<stop offset="0.919" stop-color="#E1E1E1"/>
<stop offset="0.954" stop-color="#C9C9C9"/>
<stop offset="0.966" stop-color="#BFBFBF"/>
<stop offset="1" stop-color="white"/>
</linearGradient>
<linearGradient id="paint33_linear_741_46" x1="61.7165" y1="142.281" x2="244.985" y2="142.281" gradientUnits="userSpaceOnUse">
<stop stop-color="#DFDFDF"/>
<stop offset="0.021" stop-color="#E1E1E1"/>
<stop offset="0.244" stop-color="#F2F2F2"/>
<stop offset="0.487" stop-color="#FCFCFC"/>
<stop offset="0.791" stop-color="white"/>
<stop offset="0.841" stop-color="#FCFCFC"/>
<stop offset="0.882" stop-color="#F2F2F2"/>
<stop offset="0.919" stop-color="#E1E1E1"/>
<stop offset="0.954" stop-color="#C9C9C9"/>
<stop offset="0.966" stop-color="#BFBFBF"/>
<stop offset="1" stop-color="white"/>
</linearGradient>
<linearGradient id="paint34_linear_741_46" x1="61.7165" y1="168.417" x2="244.985" y2="168.417" gradientUnits="userSpaceOnUse">
<stop stop-color="#DFDFDF"/>
<stop offset="0.021" stop-color="#E1E1E1"/>
<stop offset="0.244" stop-color="#F2F2F2"/>
<stop offset="0.487" stop-color="#FCFCFC"/>
<stop offset="0.791" stop-color="white"/>
<stop offset="0.841" stop-color="#FCFCFC"/>
<stop offset="0.882" stop-color="#F2F2F2"/>
<stop offset="0.919" stop-color="#E1E1E1"/>
<stop offset="0.954" stop-color="#C9C9C9"/>
<stop offset="0.966" stop-color="#BFBFBF"/>
<stop offset="1" stop-color="white"/>
</linearGradient>
<linearGradient id="paint35_linear_741_46" x1="61.6816" y1="136.696" x2="245.044" y2="136.696" gradientUnits="userSpaceOnUse">
<stop stop-color="#DFDFDF"/>
<stop offset="0.021" stop-color="#E1E1E1"/>
<stop offset="0.244" stop-color="#F2F2F2"/>
<stop offset="0.487" stop-color="#FCFCFC"/>
<stop offset="0.791" stop-color="white"/>
<stop offset="0.841" stop-color="#FCFCFC"/>
<stop offset="0.882" stop-color="#F2F2F2"/>
<stop offset="0.919" stop-color="#E1E1E1"/>
<stop offset="0.954" stop-color="#C9C9C9"/>
<stop offset="0.966" stop-color="#BFBFBF"/>
<stop offset="1" stop-color="white"/>
</linearGradient>
<linearGradient id="paint36_linear_741_46" x1="61.7193" y1="129.213" x2="244.982" y2="129.213" gradientUnits="userSpaceOnUse">
<stop stop-color="#DFDFDF"/>
<stop offset="0.021" stop-color="#E1E1E1"/>
<stop offset="0.244" stop-color="#F2F2F2"/>
<stop offset="0.487" stop-color="#FCFCFC"/>
<stop offset="0.791" stop-color="white"/>
<stop offset="0.841" stop-color="#FCFCFC"/>
<stop offset="0.882" stop-color="#F2F2F2"/>
<stop offset="0.919" stop-color="#E1E1E1"/>
<stop offset="0.954" stop-color="#C9C9C9"/>
<stop offset="0.966" stop-color="#BFBFBF"/>
<stop offset="1" stop-color="white"/>
</linearGradient>
<linearGradient id="paint37_linear_741_46" x1="61.6816" y1="123.629" x2="245.044" y2="123.629" gradientUnits="userSpaceOnUse">
<stop stop-color="#DFDFDF"/>
<stop offset="0.021" stop-color="#E1E1E1"/>
<stop offset="0.244" stop-color="#F2F2F2"/>
<stop offset="0.487" stop-color="#FCFCFC"/>
<stop offset="0.791" stop-color="white"/>
<stop offset="0.841" stop-color="#FCFCFC"/>
<stop offset="0.882" stop-color="#F2F2F2"/>
<stop offset="0.919" stop-color="#E1E1E1"/>
<stop offset="0.954" stop-color="#C9C9C9"/>
<stop offset="0.966" stop-color="#BFBFBF"/>
<stop offset="1" stop-color="white"/>
</linearGradient>
<linearGradient id="paint38_linear_741_46" x1="61.7136" y1="147.793" x2="244.994" y2="147.793" gradientUnits="userSpaceOnUse">
<stop stop-color="#DFDFDF"/>
<stop offset="0.021" stop-color="#E1E1E1"/>
<stop offset="0.244" stop-color="#F2F2F2"/>
<stop offset="0.487" stop-color="#FCFCFC"/>
<stop offset="0.791" stop-color="white"/>
<stop offset="0.841" stop-color="#FCFCFC"/>
<stop offset="0.882" stop-color="#F2F2F2"/>
<stop offset="0.919" stop-color="#E1E1E1"/>
<stop offset="0.954" stop-color="#C9C9C9"/>
<stop offset="0.966" stop-color="#BFBFBF"/>
<stop offset="1" stop-color="white"/>
</linearGradient>
<linearGradient id="paint39_linear_741_46" x1="61.7138" y1="134.726" x2="244.994" y2="134.726" gradientUnits="userSpaceOnUse">
<stop stop-color="#DFDFDF"/>
<stop offset="0.021" stop-color="#E1E1E1"/>
<stop offset="0.244" stop-color="#F2F2F2"/>
<stop offset="0.487" stop-color="#FCFCFC"/>
<stop offset="0.791" stop-color="white"/>
<stop offset="0.841" stop-color="#FCFCFC"/>
<stop offset="0.882" stop-color="#F2F2F2"/>
<stop offset="0.919" stop-color="#E1E1E1"/>
<stop offset="0.954" stop-color="#C9C9C9"/>
<stop offset="0.966" stop-color="#BFBFBF"/>
<stop offset="1" stop-color="white"/>
</linearGradient>
<linearGradient id="paint40_linear_741_46" x1="61.7166" y1="173.932" x2="244.991" y2="173.932" gradientUnits="userSpaceOnUse">
<stop stop-color="#DFDFDF"/>
<stop offset="0.021" stop-color="#E1E1E1"/>
<stop offset="0.244" stop-color="#F2F2F2"/>
<stop offset="0.487" stop-color="#FCFCFC"/>
<stop offset="0.791" stop-color="white"/>
<stop offset="0.841" stop-color="#FCFCFC"/>
<stop offset="0.882" stop-color="#F2F2F2"/>
<stop offset="0.919" stop-color="#E1E1E1"/>
<stop offset="0.954" stop-color="#C9C9C9"/>
<stop offset="0.966" stop-color="#BFBFBF"/>
<stop offset="1" stop-color="white"/>
</linearGradient>
<linearGradient id="paint41_linear_741_46" x1="61.7137" y1="121.654" x2="244.995" y2="121.654" gradientUnits="userSpaceOnUse">
<stop stop-color="#DFDFDF"/>
<stop offset="0.021" stop-color="#E1E1E1"/>
<stop offset="0.244" stop-color="#F2F2F2"/>
<stop offset="0.487" stop-color="#FCFCFC"/>
<stop offset="0.791" stop-color="white"/>
<stop offset="0.841" stop-color="#FCFCFC"/>
<stop offset="0.882" stop-color="#F2F2F2"/>
<stop offset="0.919" stop-color="#E1E1E1"/>
<stop offset="0.954" stop-color="#C9C9C9"/>
<stop offset="0.966" stop-color="#BFBFBF"/>
<stop offset="1" stop-color="white"/>
</linearGradient>
<linearGradient id="paint42_linear_741_46" x1="61.7136" y1="160.859" x2="244.994" y2="160.859" gradientUnits="userSpaceOnUse">
<stop stop-color="#DFDFDF"/>
<stop offset="0.021" stop-color="#E1E1E1"/>
<stop offset="0.244" stop-color="#F2F2F2"/>
<stop offset="0.487" stop-color="#FCFCFC"/>
<stop offset="0.791" stop-color="white"/>
<stop offset="0.841" stop-color="#FCFCFC"/>
<stop offset="0.882" stop-color="#F2F2F2"/>
<stop offset="0.919" stop-color="#E1E1E1"/>
<stop offset="0.954" stop-color="#C9C9C9"/>
<stop offset="0.966" stop-color="#BFBFBF"/>
<stop offset="1" stop-color="white"/>
</linearGradient>
<linearGradient id="paint43_linear_741_46" x1="61.6813" y1="149.765" x2="245.044" y2="149.765" gradientUnits="userSpaceOnUse">
<stop stop-color="#DFDFDF"/>
<stop offset="0.021" stop-color="#E1E1E1"/>
<stop offset="0.244" stop-color="#F2F2F2"/>
<stop offset="0.487" stop-color="#FCFCFC"/>
<stop offset="0.791" stop-color="white"/>
<stop offset="0.841" stop-color="#FCFCFC"/>
<stop offset="0.882" stop-color="#F2F2F2"/>
<stop offset="0.919" stop-color="#E1E1E1"/>
<stop offset="0.954" stop-color="#C9C9C9"/>
<stop offset="0.966" stop-color="#BFBFBF"/>
<stop offset="1" stop-color="white"/>
</linearGradient>
<linearGradient id="paint44_linear_741_46" x1="61.699" y1="132.503" x2="245.026" y2="132.503" gradientUnits="userSpaceOnUse">
<stop stop-color="#DFDFDF"/>
<stop offset="0.021" stop-color="#E1E1E1"/>
<stop offset="0.244" stop-color="#F2F2F2"/>
<stop offset="0.487" stop-color="#FCFCFC"/>
<stop offset="0.791" stop-color="white"/>
<stop offset="0.841" stop-color="#FCFCFC"/>
<stop offset="0.882" stop-color="#F2F2F2"/>
<stop offset="0.919" stop-color="#E1E1E1"/>
<stop offset="0.954" stop-color="#C9C9C9"/>
<stop offset="0.966" stop-color="#BFBFBF"/>
<stop offset="1" stop-color="white"/>
</linearGradient>
<linearGradient id="paint45_linear_741_46" x1="61.7134" y1="164.465" x2="244.985" y2="164.465" gradientUnits="userSpaceOnUse">
<stop stop-color="#DFDFDF"/>
<stop offset="0.021" stop-color="#E1E1E1"/>
<stop offset="0.244" stop-color="#F2F2F2"/>
<stop offset="0.487" stop-color="#FCFCFC"/>
<stop offset="0.791" stop-color="white"/>
<stop offset="0.841" stop-color="#FCFCFC"/>
<stop offset="0.882" stop-color="#F2F2F2"/>
<stop offset="0.919" stop-color="#E1E1E1"/>
<stop offset="0.954" stop-color="#C9C9C9"/>
<stop offset="0.966" stop-color="#BFBFBF"/>
<stop offset="1" stop-color="white"/>
</linearGradient>
<linearGradient id="paint46_linear_741_46" x1="61.6813" y1="162.832" x2="245.044" y2="162.832" gradientUnits="userSpaceOnUse">
<stop stop-color="#DFDFDF"/>
<stop offset="0.021" stop-color="#E1E1E1"/>
<stop offset="0.244" stop-color="#F2F2F2"/>
<stop offset="0.487" stop-color="#FCFCFC"/>
<stop offset="0.791" stop-color="white"/>
<stop offset="0.841" stop-color="#FCFCFC"/>
<stop offset="0.882" stop-color="#F2F2F2"/>
<stop offset="0.919" stop-color="#E1E1E1"/>
<stop offset="0.954" stop-color="#C9C9C9"/>
<stop offset="0.966" stop-color="#BFBFBF"/>
<stop offset="1" stop-color="white"/>
</linearGradient>
<linearGradient id="paint47_linear_741_46" x1="61.7134" y1="138.334" x2="244.985" y2="138.334" gradientUnits="userSpaceOnUse">
<stop stop-color="#DFDFDF"/>
<stop offset="0.021" stop-color="#E1E1E1"/>
<stop offset="0.244" stop-color="#F2F2F2"/>
<stop offset="0.487" stop-color="#FCFCFC"/>
<stop offset="0.791" stop-color="white"/>
<stop offset="0.841" stop-color="#FCFCFC"/>
<stop offset="0.882" stop-color="#F2F2F2"/>
<stop offset="0.919" stop-color="#E1E1E1"/>
<stop offset="0.954" stop-color="#C9C9C9"/>
<stop offset="0.966" stop-color="#BFBFBF"/>
<stop offset="1" stop-color="white"/>
</linearGradient>
<linearGradient id="paint48_linear_741_46" x1="61.7134" y1="177.539" x2="244.985" y2="177.539" gradientUnits="userSpaceOnUse">
<stop stop-color="#DFDFDF"/>
<stop offset="0.021" stop-color="#E1E1E1"/>
<stop offset="0.244" stop-color="#F2F2F2"/>
<stop offset="0.487" stop-color="#FCFCFC"/>
<stop offset="0.791" stop-color="white"/>
<stop offset="0.841" stop-color="#FCFCFC"/>
<stop offset="0.882" stop-color="#F2F2F2"/>
<stop offset="0.919" stop-color="#E1E1E1"/>
<stop offset="0.954" stop-color="#C9C9C9"/>
<stop offset="0.966" stop-color="#BFBFBF"/>
<stop offset="1" stop-color="white"/>
</linearGradient>
<linearGradient id="paint49_linear_741_46" x1="61.6991" y1="145.569" x2="245.026" y2="145.569" gradientUnits="userSpaceOnUse">
<stop stop-color="#DFDFDF"/>
<stop offset="0.021" stop-color="#E1E1E1"/>
<stop offset="0.244" stop-color="#F2F2F2"/>
<stop offset="0.487" stop-color="#FCFCFC"/>
<stop offset="0.791" stop-color="white"/>
<stop offset="0.841" stop-color="#FCFCFC"/>
<stop offset="0.882" stop-color="#F2F2F2"/>
<stop offset="0.919" stop-color="#E1E1E1"/>
<stop offset="0.954" stop-color="#C9C9C9"/>
<stop offset="0.966" stop-color="#BFBFBF"/>
<stop offset="1" stop-color="white"/>
</linearGradient>
<linearGradient id="paint50_linear_741_46" x1="61.7017" y1="125.264" x2="245.018" y2="125.264" gradientUnits="userSpaceOnUse">
<stop stop-color="#DFDFDF"/>
<stop offset="0.021" stop-color="#E1E1E1"/>
<stop offset="0.244" stop-color="#F2F2F2"/>
<stop offset="0.487" stop-color="#FCFCFC"/>
<stop offset="0.791" stop-color="white"/>
<stop offset="0.841" stop-color="#FCFCFC"/>
<stop offset="0.882" stop-color="#F2F2F2"/>
<stop offset="0.919" stop-color="#E1E1E1"/>
<stop offset="0.954" stop-color="#C9C9C9"/>
<stop offset="0.966" stop-color="#BFBFBF"/>
<stop offset="1" stop-color="white"/>
</linearGradient>
<linearGradient id="paint51_linear_741_46" x1="61.7134" y1="151.401" x2="244.985" y2="151.401" gradientUnits="userSpaceOnUse">
<stop stop-color="#DFDFDF"/>
<stop offset="0.021" stop-color="#E1E1E1"/>
<stop offset="0.244" stop-color="#F2F2F2"/>
<stop offset="0.487" stop-color="#FCFCFC"/>
<stop offset="0.791" stop-color="white"/>
<stop offset="0.841" stop-color="#FCFCFC"/>
<stop offset="0.882" stop-color="#F2F2F2"/>
<stop offset="0.919" stop-color="#E1E1E1"/>
<stop offset="0.954" stop-color="#C9C9C9"/>
<stop offset="0.966" stop-color="#BFBFBF"/>
<stop offset="1" stop-color="white"/>
</linearGradient>
<linearGradient id="paint52_linear_741_46" x1="61.6814" y1="175.902" x2="245.043" y2="175.902" gradientUnits="userSpaceOnUse">
<stop stop-color="#DFDFDF"/>
<stop offset="0.021" stop-color="#E1E1E1"/>
<stop offset="0.244" stop-color="#F2F2F2"/>
<stop offset="0.487" stop-color="#FCFCFC"/>
<stop offset="0.791" stop-color="white"/>
<stop offset="0.841" stop-color="#FCFCFC"/>
<stop offset="0.882" stop-color="#F2F2F2"/>
<stop offset="0.919" stop-color="#E1E1E1"/>
<stop offset="0.954" stop-color="#C9C9C9"/>
<stop offset="0.966" stop-color="#BFBFBF"/>
<stop offset="1" stop-color="white"/>
</linearGradient>
<linearGradient id="paint53_linear_741_46" x1="61.7135" y1="170.225" x2="244.988" y2="170.225" gradientUnits="userSpaceOnUse">
<stop stop-color="#DFDFDF"/>
<stop offset="0.021" stop-color="#E1E1E1"/>
<stop offset="0.244" stop-color="#F2F2F2"/>
<stop offset="0.487" stop-color="#FCFCFC"/>
<stop offset="0.791" stop-color="white"/>
<stop offset="0.841" stop-color="#FCFCFC"/>
<stop offset="0.882" stop-color="#F2F2F2"/>
<stop offset="0.919" stop-color="#E1E1E1"/>
<stop offset="0.954" stop-color="#C9C9C9"/>
<stop offset="0.966" stop-color="#BFBFBF"/>
<stop offset="1" stop-color="white"/>
</linearGradient>
<linearGradient id="paint54_linear_741_46" x1="61.7136" y1="131.026" x2="244.988" y2="131.026" gradientUnits="userSpaceOnUse">
<stop stop-color="#DFDFDF"/>
<stop offset="0.021" stop-color="#E1E1E1"/>
<stop offset="0.244" stop-color="#F2F2F2"/>
<stop offset="0.487" stop-color="#FCFCFC"/>
<stop offset="0.791" stop-color="white"/>
<stop offset="0.841" stop-color="#FCFCFC"/>
<stop offset="0.882" stop-color="#F2F2F2"/>
<stop offset="0.919" stop-color="#E1E1E1"/>
<stop offset="0.954" stop-color="#C9C9C9"/>
<stop offset="0.966" stop-color="#BFBFBF"/>
<stop offset="1" stop-color="white"/>
</linearGradient>
<linearGradient id="paint55_linear_741_46" x1="61.7135" y1="157.159" x2="244.988" y2="157.159" gradientUnits="userSpaceOnUse">
<stop stop-color="#DFDFDF"/>
<stop offset="0.021" stop-color="#E1E1E1"/>
<stop offset="0.244" stop-color="#F2F2F2"/>
<stop offset="0.487" stop-color="#FCFCFC"/>
<stop offset="0.791" stop-color="white"/>
<stop offset="0.841" stop-color="#FCFCFC"/>
<stop offset="0.882" stop-color="#F2F2F2"/>
<stop offset="0.919" stop-color="#E1E1E1"/>
<stop offset="0.954" stop-color="#C9C9C9"/>
<stop offset="0.966" stop-color="#BFBFBF"/>
<stop offset="1" stop-color="white"/>
</linearGradient>
<linearGradient id="paint56_linear_741_46" x1="61.7135" y1="144.09" x2="244.988" y2="144.09" gradientUnits="userSpaceOnUse">
<stop stop-color="#DFDFDF"/>
<stop offset="0.021" stop-color="#E1E1E1"/>
<stop offset="0.244" stop-color="#F2F2F2"/>
<stop offset="0.487" stop-color="#FCFCFC"/>
<stop offset="0.791" stop-color="white"/>
<stop offset="0.841" stop-color="#FCFCFC"/>
<stop offset="0.882" stop-color="#F2F2F2"/>
<stop offset="0.919" stop-color="#E1E1E1"/>
<stop offset="0.954" stop-color="#C9C9C9"/>
<stop offset="0.966" stop-color="#BFBFBF"/>
<stop offset="1" stop-color="white"/>
</linearGradient>
</defs>
</svg>
