<svg width="256" height="256" viewBox="0 0 256 256" fill="none" xmlns="http://www.w3.org/2000/svg">
<mask id="mask0_1430_27" style="mask-type:luminance" maskUnits="userSpaceOnUse" x="24" y="23" width="208" height="209">
<path d="M232 23.9482H24V231.122H232V23.9482Z" fill="white"/>
</mask>
<g mask="url(#mask0_1430_27)">
<path d="M108.721 177.412C113.921 196.577 132.578 211.196 142.001 210.589C142.331 210.569 177.738 203.993 197.121 171.744C212.201 146.642 207.071 122.408 186.554 121.88C179.175 122.416 98.8173 140.911 108.726 177.418M184.641 54.3382L184.62 54.3199L184.649 54.3019C171.727 43.3546 155.962 36.2664 139.173 33.8536C122.383 31.4408 105.25 33.8019 89.7485 40.6646C87.7877 41.4769 85.8777 42.4057 84.0285 43.4459C82.765 44.1166 81.5013 44.7822 80.2741 45.5177L80.5731 45.6109C76.9446 48.0711 73.7362 51.0955 71.0701 54.5686C45.2469 88.5686 131.864 113.292 178.179 113.364C199.476 128.597 205.457 70.477 184.641 54.3382Z" fill="#0E3CA5"/>
<path d="M94.9797 55.0251C83.0795 72.8422 43.4425 85.3944 36.9243 83.4391L36.8802 83.3563C37.1402 82.8203 37.4183 82.2842 37.6939 81.7532C44.4532 68.7858 54.1246 57.5461 65.9559 48.9083C68.3947 47.1266 70.9202 45.4614 73.5323 43.9129C77.5483 41.7043 82.0469 40.5109 86.6337 40.4375C104.285 40.7741 95.0681 54.8879 94.9745 55.0304M85.2141 180.917C86.0695 186.514 85.1933 208.627 84.0441 210.486C83.0535 210.546 80.9917 210.672 75.0195 207.335C55.9494 196.496 41.2366 179.415 33.3829 158.993C25.5292 138.571 25.0194 116.07 31.9402 95.3155C32.2573 94.3659 32.5892 93.4224 32.9359 92.4849C39.7765 101.549 47.6935 109.748 54.4223 118.9C60.8314 127.614 69.6479 141.822 71.4419 144.859C82.5803 163.703 84.3561 175.332 85.2063 180.92M216.89 125.191C216.906 137.073 214.665 148.853 210.287 159.907C199.106 171.871 123.749 142.419 123.01 142.095C112.701 137.597 81.3297 123.911 78.4983 102.416C74.4397 71.4696 137.437 49.9131 165.128 49.0974C168.449 49.1362 178.551 49.2527 184.442 54.0178C194.646 62.8805 202.822 73.8197 208.419 86.0974C214.018 98.3751 216.906 111.706 216.89 125.191ZM165.876 209.023C157.663 212.843 148.618 210.059 150.968 202.094C155.479 186.791 194.872 171.103 203.571 170.239C204.645 170.134 205.1 170.862 204.625 171.694C195.561 187.567 182.116 200.519 165.884 209.01" fill="#5493F7"/>
<path d="M69.0734 224.013C68.9574 225.742 69.5268 227.445 70.6593 228.759C71.7916 230.074 73.3966 230.893 75.1289 231.039C154.949 231.583 232 227.932 232 216.02C232 179.96 69.0734 224.013 69.0734 224.013Z" fill="url(#paint0_linear_1430_27)"/>
<path d="M69.0732 224.013C68.9555 225.747 69.5281 227.456 70.6669 228.771C71.8058 230.086 73.4191 230.901 75.1572 231.039C154.956 231.644 231.903 229.147 232 216.02C232 179.96 69.0732 224.013 69.0732 224.013ZM75.1598 230.581C74.947 230.581 74.7343 230.569 74.5228 230.545C73.3064 230.376 72.1673 229.852 71.2483 229.04C70.3293 228.229 69.6712 227.165 69.3566 225.982C69.6979 227.264 70.4471 228.401 71.492 229.223C72.5367 230.045 73.8209 230.509 75.152 230.542C154.897 230.045 230.749 205.589 230.749 216.357C230.749 227.347 154.902 231.123 75.1598 230.581Z" fill="url(#paint1_linear_1430_27)"/>
<path d="M75.1653 121.894C74.365 121.894 73.5727 122.052 72.8335 122.356C72.0942 122.662 71.4226 123.109 70.8568 123.673C70.2911 124.237 69.8424 124.905 69.5364 125.642C69.2305 126.378 69.0731 127.168 69.0735 127.965V224.013C69.0714 225.617 69.7074 227.157 70.8422 228.296C71.9771 229.433 73.5184 230.077 75.1289 230.087C154.943 229.49 232.097 203.177 232 216.025V107.835C232.097 94.9903 154.97 121.302 75.1653 121.894Z" fill="url(#paint2_linear_1430_27)"/>
<path d="M86.9328 188.188C89.7746 188.077 92.5592 187.958 95.2944 187.805C98.0296 187.652 100.708 187.479 103.341 187.287C105.975 187.096 108.556 186.873 111.105 186.643C113.652 186.412 116.164 186.176 118.644 185.931C121.125 185.684 123.572 185.428 125.99 185.154C130.755 184.614 135.515 184.03 140.269 183.4C142.622 183.087 144.949 182.769 147.29 182.429C149.629 182.091 151.931 181.727 154.262 181.37C156.595 181.012 158.942 180.652 161.283 180.283C163.622 179.912 165.987 179.537 168.349 179.143C170.713 178.749 173.091 178.332 175.502 177.921C177.913 177.508 180.353 177.094 182.821 176.667C185.288 176.24 187.787 175.812 190.319 175.372C192.851 174.931 195.419 174.474 198.033 174.036C200.649 173.599 203.312 173.169 206.023 172.757C208.735 172.345 211.223 171.98 214.603 171.555C218.288 171.034 222.011 170.836 225.731 170.965C229.228 171.2 231.997 172.086 231.997 174.515V166.187C231.997 163.789 229.343 162.929 226.085 162.662C222.611 162.486 219.131 162.632 215.685 163.097C212.437 163.467 210.097 163.823 207.653 164.183C205.209 164.542 202.826 164.918 200.481 165.301C198.135 165.684 195.826 166.078 193.533 166.474C191.239 166.87 188.957 167.277 186.659 167.678C184.361 168.08 182.043 168.479 179.691 168.88L172.496 170.113C170.047 170.532 167.556 170.955 164.956 171.377C162.356 171.798 159.643 172.218 156.826 172.651C154.011 173.083 151.088 173.544 148.035 173.995V165.672C151.088 165.223 154.016 164.76 156.826 164.327C159.636 163.894 162.351 163.47 164.956 163.053C167.561 162.636 170.057 162.209 172.496 161.787C174.935 161.364 177.34 160.959 179.692 160.556L186.659 159.355L193.533 158.151C195.826 157.749 198.132 157.374 200.481 156.978C202.827 156.581 205.207 156.221 207.653 155.859C210.1 155.497 212.437 155.142 215.685 154.774C219.131 154.312 222.611 154.164 226.085 154.337C229.346 154.595 232 155.466 232 157.861V149.548C232 147.155 229.346 146.291 226.088 146.02C222.614 145.85 219.133 145.995 215.688 146.459C212.441 146.831 210.103 147.181 207.657 147.543C205.209 147.907 202.827 148.279 200.483 148.663C198.137 149.045 195.828 149.439 193.536 149.835C191.243 150.232 188.96 150.643 186.66 151.043L179.692 152.244C177.34 152.648 174.951 153.052 172.499 153.474C170.047 153.897 167.559 154.318 164.959 154.735C162.359 155.152 159.644 155.579 156.828 156.012C154.013 156.444 151.091 156.905 148.041 157.354V149.033C151.088 148.582 154.02 148.126 156.831 147.689C159.643 147.251 162.356 146.831 164.961 146.414C167.567 145.997 170.057 145.573 172.501 145.151L179.699 143.921C182.038 143.516 184.365 143.12 186.663 142.719L193.538 141.515C198.235 140.691 202.942 139.928 207.659 139.223C210.106 138.866 212.443 138.506 215.69 138.136C219.136 137.675 222.618 137.53 226.09 137.7C229.347 137.959 232.003 138.832 232.003 141.227V132.897C232.003 130.5 229.347 129.643 226.09 129.375C222.618 129.202 219.136 129.347 215.69 129.81C212.443 130.179 210.106 130.534 207.659 130.894C205.212 131.254 202.83 131.632 200.485 132.013C198.14 132.394 195.831 132.79 193.538 133.184L186.663 134.393L179.695 135.593C177.343 135.996 174.954 136.397 172.501 136.822C170.05 137.247 167.561 137.667 164.961 138.083C162.361 138.5 159.644 138.928 156.826 139.363C154.007 139.798 151.085 140.256 148.038 140.707V132.383C151.085 131.932 154.003 131.472 156.824 131.037C159.644 130.603 162.356 130.182 164.961 129.76C167.567 129.339 170.05 128.918 172.501 128.499L179.699 127.269C182.038 126.865 184.365 126.471 186.663 126.067C188.962 125.664 191.243 125.262 193.538 124.863C195.835 124.465 198.137 124.068 200.485 123.688C202.833 123.307 205.212 122.931 207.657 122.571C210.1 122.211 212.443 121.856 215.69 121.486C219.136 121.023 222.618 120.877 226.09 121.049C229.35 121.307 232.004 122.18 232.004 124.573V116.252C232.004 113.858 229.35 112.995 226.092 112.726C222.62 112.555 219.139 112.702 215.692 113.163C212.445 113.533 210.107 113.885 207.661 114.248C205.215 114.611 202.833 114.983 200.488 115.367C198.143 115.75 195.835 116.144 193.54 116.539C191.248 116.936 188.964 117.348 186.667 117.747C184.368 118.146 182.051 118.545 179.701 118.943L172.505 120.179C167.287 121.076 162.06 121.922 156.826 122.714C154.004 123.149 151.085 123.607 148.038 124.06V115.62C123.92 119.381 99.5704 121.477 75.1626 121.895C74.3624 121.895 73.57 122.052 72.8308 122.357C72.0915 122.663 71.4199 123.11 70.8541 123.674C70.2884 124.237 69.8398 124.906 69.5338 125.643C69.2278 126.379 69.0704 127.169 69.0708 127.966V188.564C72.1908 188.564 75.2276 188.525 78.202 188.461C81.1764 188.395 84.0884 188.298 86.9328 188.188Z" fill="url(#paint3_linear_1430_27)"/>
<path d="M86.9199 204.836C89.7668 204.727 92.5489 204.603 95.2841 204.452C98.0193 204.302 100.7 204.124 103.344 203.934C105.988 203.746 108.557 203.526 111.105 203.292C113.653 203.06 116.164 202.829 118.645 202.578C121.125 202.326 123.585 202.076 125.99 201.801C130.754 201.259 135.511 200.675 140.265 200.05C142.614 199.736 144.945 199.412 147.284 199.076C149.625 198.74 151.931 198.374 154.259 198.014C156.589 197.655 158.94 197.3 161.28 196.932C163.62 196.564 165.986 196.181 168.352 195.79C170.717 195.399 173.097 194.982 175.507 194.568L182.824 193.314C185.291 192.89 187.793 192.462 190.322 192.02C192.851 191.577 195.423 191.124 198.039 190.684C200.655 190.243 203.316 189.816 206.028 189.404C208.74 188.992 211.213 188.628 214.609 188.203C218.292 187.677 222.017 187.478 225.737 187.61C229.233 187.847 232.003 188.735 232.003 191.162V182.831C232.003 180.404 229.233 179.514 225.739 179.278C222.019 179.148 218.294 179.346 214.609 179.869C211.211 180.284 208.738 180.664 206.028 181.073C203.319 181.482 200.655 181.909 198.039 182.349C195.423 182.79 192.857 183.237 190.324 183.685C187.793 184.134 185.293 184.562 182.824 184.98C180.353 185.4 177.917 185.817 175.507 186.235C173.097 186.652 170.717 187.063 168.355 187.456C165.991 187.85 163.631 188.234 161.283 188.596L154.262 189.686C151.923 190.049 149.614 190.406 147.287 190.743C144.959 191.08 142.623 191.408 140.267 191.716C137.911 192.025 135.551 192.328 133.173 192.62C130.797 192.913 128.411 193.2 125.993 193.468C123.575 193.734 121.129 193.985 118.647 194.244C116.167 194.503 113.655 194.725 111.107 194.956C108.559 195.187 105.975 195.407 103.344 195.601C100.713 195.796 98.0271 195.972 95.2841 196.119C92.5411 196.267 89.7643 196.394 86.9199 196.502C84.0755 196.611 81.1687 196.701 78.1916 196.761C75.2146 196.821 72.1804 196.87 69.0657 196.87V205.19C75.0187 205.172 80.9709 205.054 86.9199 204.836Z" fill="url(#paint4_linear_1430_27)"/>
<path d="M225.733 195.921C222.014 195.792 218.291 195.989 214.605 196.511C211.207 196.928 208.735 197.304 206.027 197.716C203.316 198.127 200.654 198.555 198.039 198.992C195.423 199.43 192.839 199.883 190.319 200.329C187.8 200.774 185.288 201.207 182.821 201.624L175.502 202.877C173.092 203.289 170.713 203.708 168.347 204.099C165.98 204.491 163.622 204.876 161.275 205.239C158.927 205.601 156.595 205.969 154.255 206.324C151.915 206.678 149.606 207.041 147.276 207.383C144.947 207.725 142.596 208.051 140.256 208.359C135.504 208.983 130.745 209.566 125.982 210.109C123.564 210.38 121.117 210.628 118.637 210.887C116.157 211.146 113.648 211.371 111.098 211.602C108.547 211.832 105.965 212.049 103.333 212.245C100.703 212.438 98.0168 212.612 95.2738 212.762C86.5424 213.238 77.7999 213.489 69.0554 213.513V221.852C72.1754 221.852 75.2174 221.817 78.1814 221.748C81.1454 221.679 84.0547 221.593 86.9096 221.49C89.7566 221.381 92.5386 221.256 95.2738 221.106C98.009 220.956 100.69 220.777 103.333 220.589C105.979 220.399 108.549 220.173 111.098 219.946C113.645 219.717 116.155 219.482 118.637 219.234C121.12 218.985 123.578 218.731 125.982 218.457C128.387 218.182 130.789 217.902 133.166 217.607C135.542 217.312 137.903 217.019 140.253 216.706C142.604 216.393 144.933 216.071 147.274 215.733C149.613 215.393 151.92 215.028 154.252 214.673C156.584 214.318 158.932 213.953 161.273 213.586C163.612 213.217 165.976 212.839 168.345 212.443C170.713 212.047 173.094 211.635 175.505 211.221L182.821 209.97L190.316 208.675C192.849 208.233 195.42 207.776 198.039 207.339C200.657 206.901 203.314 206.471 206.027 206.06C208.738 205.647 211.226 205.283 214.605 204.861C218.291 204.341 222.014 204.143 225.733 204.27C229.231 204.501 232 205.389 232 207.819V199.471C232 197.043 229.231 196.162 225.733 195.921Z" fill="url(#paint5_linear_1430_27)"/>
<path d="M86.3998 179.889C89.0518 179.789 91.5999 179.678 94.1036 179.546C96.6074 179.414 99.0436 179.267 101.436 179.099C103.827 178.931 106.21 178.744 108.575 178.541C113.402 178.124 118.224 177.66 123.042 177.151C125.538 176.887 128.085 176.599 130.732 176.278C133.379 175.957 136.135 175.618 139.011 175.243C141.886 174.867 144.892 174.466 148.033 173.995V115.622C123.919 119.382 99.5739 121.478 75.1703 121.895C74.3703 121.895 73.5778 122.052 72.8385 122.357C72.0993 122.662 71.4276 123.109 70.862 123.674C70.2962 124.237 69.8476 124.906 69.5415 125.643C69.2356 126.379 69.0783 127.168 69.0786 127.965V180.238C72.2375 180.238 75.2407 180.202 78.1188 180.137C80.997 180.072 83.7452 179.985 86.3998 179.889Z" fill="url(#paint6_linear_1430_27)"/>
<path d="M87.8714 124.351C87.5725 125.28 87.4269 125.746 87.1304 126.681L84.728 126.77L86.6703 128.127L85.9266 130.457C86.7066 129.859 87.0941 129.567 87.8714 128.966C88.6514 129.507 89.0311 129.771 89.8136 130.307C89.512 129.4 89.3664 128.947 89.0701 128.039L91.0149 126.529C90.0528 126.575 89.5693 126.589 88.6098 126.632L87.8714 124.351Z" fill="url(#paint7_linear_1430_27)"/>
<path d="M94.8134 153.064L94.0724 155.408L91.6648 155.527L93.6096 156.856C93.3132 157.791 93.165 158.26 92.866 159.187C93.646 158.584 94.0361 158.277 94.8134 157.664C95.5934 158.182 95.9834 158.44 96.7634 158.974L96.0172 156.716L97.9673 155.176C97.0026 155.237 96.5217 155.266 95.5596 155.317L94.8134 153.064Z" fill="url(#paint8_linear_1430_27)"/>
<path d="M95.5596 166.94L94.8134 164.68L94.0724 167.026L91.6648 167.143C92.4448 167.675 92.8322 167.945 93.6096 168.471C93.3132 169.409 93.165 169.874 92.866 170.801C93.646 170.193 94.0361 169.887 94.8134 169.273C95.5934 169.791 95.9834 170.066 96.7634 170.589L96.0172 168.331L97.9673 166.79C97.0026 166.86 96.5217 166.899 95.5596 166.94Z" fill="url(#paint9_linear_1430_27)"/>
<path d="M87.869 147.58C87.5699 148.515 87.4218 148.976 87.128 149.911C86.1659 149.95 85.685 149.97 84.7256 150C85.5056 150.54 85.8878 150.815 86.6651 151.351L85.9267 153.681C86.7067 153.086 87.0915 152.783 87.869 152.183C88.649 152.721 89.0312 152.99 89.8138 153.529C89.5122 152.62 89.364 152.167 89.0675 151.255L91.015 149.747C90.053 149.793 89.5694 149.816 88.6099 149.851L87.869 147.58Z" fill="url(#paint10_linear_1430_27)"/>
<path d="M87.8663 159.195L87.1279 161.526C86.1659 161.556 85.6823 161.58 84.7229 161.614L86.6651 162.966L85.9241 165.297L87.8663 163.792L89.8137 165.136C89.5121 164.226 89.3639 163.776 89.0675 162.865C89.8475 162.266 90.2349 161.959 91.0149 161.355L88.6099 161.458L87.8663 159.195Z" fill="url(#paint11_linear_1430_27)"/>
<path d="M87.8715 135.965L87.128 138.296L84.7256 138.384L86.6678 139.738L85.9267 142.068C86.7067 141.473 87.0942 141.173 87.8715 140.572C88.6515 141.111 89.0312 141.38 89.8138 141.916C89.5122 141.009 89.364 140.553 89.0675 139.645L91.015 138.136C90.053 138.179 89.572 138.202 88.6099 138.241C88.3162 137.328 88.1654 136.877 87.8715 135.965Z" fill="url(#paint12_linear_1430_27)"/>
<path d="M108.713 163.7L107.972 166.063C107.008 166.146 106.523 166.181 105.562 166.262C106.341 166.78 106.731 167.039 107.509 167.529L106.768 169.892L108.713 168.307L110.658 169.558C110.409 168.813 110.161 168.067 109.914 167.322L111.859 165.721C110.894 165.811 110.413 165.85 109.454 165.936C109.157 165.04 109.019 164.597 108.713 163.7Z" fill="url(#paint13_linear_1430_27)"/>
<path d="M94.8134 141.45L94.0724 143.794C93.1078 143.846 92.6268 143.866 91.6648 143.913L93.6096 145.24L92.866 147.584L94.8134 146.058C95.5934 146.576 95.9834 146.835 96.7634 147.368C96.467 146.466 96.3136 146.014 96.0172 145.107L97.9673 143.572C97.0026 143.629 96.5217 143.662 95.5596 143.712L94.8134 141.45Z" fill="url(#paint14_linear_1430_27)"/>
<path d="M101.768 158.438L101.022 160.794L98.6199 160.942L100.57 162.237L99.8263 164.585L101.774 163.032L103.721 164.311L102.977 162.063C103.757 161.439 104.145 161.124 104.923 160.494L102.517 160.676C102.262 159.931 102.013 159.186 101.768 158.438Z" fill="url(#paint15_linear_1430_27)"/>
<path d="M102.52 172.304L101.776 170.056L101.03 172.409C100.071 172.477 99.5869 172.505 98.6223 172.568L100.572 173.863L99.8287 176.219C100.609 175.6 100.996 175.281 101.776 174.665C102.556 175.183 102.944 175.442 103.723 175.946L102.98 173.699C103.76 173.073 104.147 172.761 104.925 172.13L102.52 172.304Z" fill="url(#paint16_linear_1430_27)"/>
<path d="M94.8134 129.835L94.0724 132.166C93.1078 132.218 92.6268 132.239 91.6648 132.287L93.6096 133.616C93.3132 134.554 93.165 135.023 92.866 135.947C93.646 135.338 94.0361 135.035 94.8134 134.422C95.5934 134.939 95.9834 135.199 96.7634 135.735L96.0172 133.473C96.7972 132.863 97.1846 132.549 97.9673 131.934C97.0026 131.992 96.5217 132.023 95.5596 132.075L94.8134 129.835Z" fill="url(#paint17_linear_1430_27)"/>
<path d="M101.763 146.826L101.022 149.181C100.058 149.242 99.5817 149.279 98.6172 149.336L100.564 150.631L99.8183 152.984L101.768 151.432L103.715 152.71L102.972 150.46L104.916 148.905L102.512 149.088L101.763 146.826Z" fill="url(#paint18_linear_1430_27)"/>
<path d="M88.6099 173.084L87.8663 170.812L87.1253 173.142L84.7229 173.233C85.5029 173.769 85.8877 174.045 86.6651 174.585L85.9241 176.916L87.8663 175.416L89.8137 176.763L89.0675 174.492L91.0149 172.981L88.6099 173.084Z" fill="url(#paint19_linear_1430_27)"/>
<path d="M73.9664 147.958L73.2202 150.271C72.2557 150.271 71.772 150.271 70.8101 150.286C71.5901 150.85 71.98 151.136 72.76 151.695L72.0138 154.007L73.9638 152.56C74.7438 153.122 75.1338 153.396 75.9138 153.956L75.1728 151.666L77.1202 150.209C76.1557 150.224 75.6746 150.239 74.7101 150.25L73.9664 147.958Z" fill="url(#paint20_linear_1430_27)"/>
<path d="M73.9664 136.34L73.2202 138.65C72.2557 138.65 71.772 138.663 70.8101 138.666L72.76 140.075L72.0165 142.388L73.9664 140.945L75.9138 142.336L75.1728 140.044C75.9528 139.463 76.3402 139.176 77.1202 138.589C76.1582 138.607 75.6746 138.615 74.7101 138.627L73.9664 136.34Z" fill="url(#paint21_linear_1430_27)"/>
<path d="M74.6998 173.482L73.9537 171.19L73.2074 173.498C72.2428 173.511 71.7618 173.513 70.7998 173.518L72.7498 174.925L72.0062 177.24L73.9537 175.795L75.9036 177.19C75.6546 176.425 75.4066 175.66 75.1601 174.894L77.1075 173.438C76.1532 173.462 75.6748 173.464 74.6998 173.482Z" fill="url(#paint22_linear_1430_27)"/>
<path d="M99.8185 141.369L101.763 139.816C102.543 140.334 102.936 140.592 103.714 141.097L102.972 138.847L104.917 137.274C103.953 137.353 103.474 137.389 102.512 137.459L101.766 135.214L101.022 137.562C100.063 137.63 99.5793 137.658 98.6147 137.723L100.565 139.018L99.8185 141.369Z" fill="url(#paint23_linear_1430_27)"/>
<path d="M99.8185 129.752C100.598 129.133 100.989 128.822 101.766 128.198C102.546 128.716 102.936 128.976 103.714 129.477L102.972 127.23C103.753 126.606 104.139 126.29 104.917 125.661C103.953 125.738 103.474 125.771 102.512 125.842L101.766 123.592L101.022 125.946C100.063 126.015 99.5793 126.046 98.6147 126.106L100.565 127.401L99.8185 129.752Z" fill="url(#paint24_linear_1430_27)"/>
<path d="M73.9664 159.573L73.2176 161.885H70.8101L72.76 163.302L72.0138 165.609L73.9638 164.164L75.9138 165.558L75.1728 163.266L77.1176 161.811C76.1557 161.828 75.6746 161.836 74.7101 161.85L73.9664 159.573Z" fill="url(#paint25_linear_1430_27)"/>
<path d="M80.9244 130.385L80.1807 132.702C79.2188 132.725 78.7377 132.741 77.7705 132.762L79.7206 134.143L78.9769 136.473L80.9244 134.997L82.8743 136.364L82.1281 134.083L84.0756 132.596L81.6732 132.672C81.3716 131.76 81.2233 131.304 80.9244 130.385Z" fill="url(#paint26_linear_1430_27)"/>
<path d="M80.9244 142.007L80.1807 144.338L77.7705 144.395C78.5505 144.949 78.9406 145.221 79.7206 145.77C79.4215 146.697 79.2734 147.166 78.9769 148.101C79.7569 147.51 80.1444 147.22 80.9217 146.628C81.7017 147.177 82.0943 147.446 82.8743 147.99L82.1281 145.711L84.0756 144.226L81.6679 144.302C81.3689 143.375 81.2233 142.922 80.9244 142.007Z" fill="url(#paint27_linear_1430_27)"/>
<path d="M81.6654 167.517L80.9217 165.235L80.1782 167.567C79.2136 167.592 78.7299 167.602 77.7654 167.624L79.7179 169.001L78.9718 171.331L80.9192 169.858L82.8718 171.226L82.1256 168.944L84.0729 167.458L81.6654 167.517Z" fill="url(#paint28_linear_1430_27)"/>
<path d="M80.9217 153.621L80.1782 155.953C79.2161 155.976 78.7326 155.991 77.7705 156.007L79.718 157.386C79.419 158.314 79.2708 158.783 78.9743 159.718L80.9217 158.242L82.8718 159.609C82.5753 158.697 82.4271 158.242 82.1255 157.33C82.9055 156.739 83.2982 156.436 84.0756 155.841C83.111 155.872 82.63 155.893 81.6679 155.921L80.9217 153.621Z" fill="url(#paint29_linear_1430_27)"/>
<path d="M73.9664 124.724L73.2229 127.037C72.2582 127.037 71.772 127.052 70.8101 127.057C71.5901 127.621 71.9826 127.907 72.76 128.462L72.0165 130.771L73.9664 129.333C74.7464 129.893 75.1365 130.167 75.9165 130.721L75.1754 128.432L77.1254 126.973C76.1608 126.995 75.6746 127.005 74.7101 127.018L73.9664 124.724Z" fill="url(#paint30_linear_1430_27)"/>
<path d="M108.713 152.089L107.972 154.45C107.008 154.532 106.529 154.569 105.564 154.646C106.345 155.164 106.732 155.408 107.509 155.911L106.768 158.277C107.548 157.646 107.935 157.325 108.713 156.691L110.658 157.94L109.914 155.707L111.859 154.106C110.894 154.196 110.413 154.236 109.454 154.321C109.158 153.432 109.02 152.984 108.713 152.089Z" fill="url(#paint31_linear_1430_27)"/>
<path d="M136.497 149.121L135.75 151.517L133.34 151.819L135.287 153L134.541 155.396L136.494 153.727C137.274 154.194 137.664 154.432 138.444 154.902L137.698 152.695L139.651 151.017L137.24 151.33L136.497 149.121Z" fill="url(#paint32_linear_1430_27)"/>
<path d="M136.497 137.507C136.197 138.468 136.046 138.941 135.75 139.902C134.786 140.024 134.302 140.086 133.34 140.2C134.12 140.679 134.51 140.912 135.291 141.387L134.547 143.78C135.327 143.11 135.716 142.782 136.497 142.111L138.447 143.284L137.7 141.08L139.652 139.4C138.691 139.525 138.205 139.591 137.243 139.713L136.497 137.507Z" fill="url(#paint33_linear_1430_27)"/>
<path d="M137.237 162.942L136.494 160.735L135.747 163.134C134.786 163.25 134.302 163.318 133.34 163.431L135.287 164.615L134.541 167.01L136.491 165.342C137.271 165.811 137.664 166.045 138.441 166.516L137.698 164.312L139.648 162.63L137.237 162.942Z" fill="url(#paint34_linear_1430_27)"/>
<path d="M129.56 132.549C129.266 133.505 129.121 133.983 128.821 134.942L126.424 135.216L128.364 136.416L127.625 138.806C128.405 138.148 128.785 137.816 129.56 137.157L131.502 138.345L130.758 136.134L132.709 134.473L130.301 134.766C130.043 134.031 129.796 133.292 129.56 132.549Z" fill="url(#paint35_linear_1430_27)"/>
<path d="M136.499 125.888L135.75 128.283C134.786 128.405 134.305 128.465 133.34 128.581L135.293 129.767L134.547 132.165C135.327 131.499 135.716 131.158 136.497 130.492L138.45 131.67C138.202 130.934 137.953 130.198 137.703 129.461C138.483 128.796 138.875 128.452 139.655 127.781L137.243 128.095L136.499 125.888Z" fill="url(#paint36_linear_1430_27)"/>
<path d="M129.56 120.938C129.266 121.889 129.121 122.372 128.821 123.328L126.424 123.602C127.204 124.079 127.591 124.322 128.364 124.801L127.625 127.189C128.405 126.531 128.785 126.199 129.56 125.539L131.505 126.728L130.761 124.519C131.541 123.853 131.925 123.522 132.709 122.859L130.301 123.151C130.044 122.417 129.797 121.679 129.56 120.938Z" fill="url(#paint37_linear_1430_27)"/>
<path d="M143.455 142.396L142.708 144.802C141.746 144.931 141.265 144.998 140.303 145.123L142.251 146.284L141.504 148.688L143.451 146.999L145.397 148.153C145.097 147.275 144.952 146.835 144.656 145.954C145.435 145.275 145.82 144.939 146.595 144.255C145.635 144.395 145.157 144.457 144.197 144.595L143.455 142.396Z" fill="url(#paint38_linear_1430_27)"/>
<path d="M143.459 130.78L142.714 133.181C141.751 133.316 141.271 133.378 140.306 133.507C141.086 133.976 141.473 134.202 142.251 134.665L141.507 137.073L143.457 135.379L145.399 136.538C145.1 135.657 144.955 135.217 144.658 134.334C145.438 133.655 145.823 133.318 146.598 132.637L144.201 132.977L143.459 130.78Z" fill="url(#paint39_linear_1430_27)"/>
<path d="M144.187 167.825L143.446 165.626L142.7 168.03C141.741 168.162 141.258 168.226 140.299 168.353L142.243 169.517L141.497 171.925C142.276 171.251 142.669 170.907 143.446 170.229L145.388 171.386L144.645 169.184L146.587 167.486C145.627 167.626 145.16 167.693 144.187 167.825Z" fill="url(#paint40_linear_1430_27)"/>
<path d="M143.462 119.161L142.716 121.566C141.755 121.699 141.271 121.766 140.306 121.894L142.259 123.053L141.509 125.454L143.462 123.768C144.242 124.23 144.627 124.462 145.404 124.918C145.108 124.04 144.957 123.599 144.663 122.718C145.443 122.04 145.825 121.704 146.6 121.02C145.643 121.16 145.165 121.23 144.206 121.362L143.462 119.161Z" fill="url(#paint41_linear_1430_27)"/>
<path d="M143.451 154.013L142.705 156.415L140.301 156.737L142.245 157.902L141.502 160.303L143.449 158.617L145.391 159.766L144.651 157.568C145.431 156.889 145.815 156.553 146.59 155.87C145.633 156.012 145.153 156.077 144.19 156.208L143.451 154.013Z" fill="url(#paint42_linear_1430_27)"/>
<path d="M129.56 144.167C129.266 145.123 129.121 145.601 128.821 146.557L126.421 146.835C127.202 147.313 127.588 147.559 128.363 148.035L127.625 150.423L129.56 148.771L131.505 149.963L130.761 147.75C131.54 147.088 131.925 146.754 132.708 146.091C131.744 146.21 131.258 146.267 130.301 146.38L129.56 144.167Z" fill="url(#paint43_linear_1430_27)"/>
<path d="M108.713 128.854L107.972 131.215C107.008 131.298 106.523 131.339 105.562 131.414L107.509 132.684L106.768 135.047C107.548 134.416 107.935 134.092 108.713 133.458C109.493 133.975 109.877 134.212 110.658 134.711L109.914 132.477C110.694 131.839 111.082 131.51 111.859 130.873L109.454 131.091C109.157 130.192 109.019 129.75 108.713 128.854Z" fill="url(#paint44_linear_1430_27)"/>
<path d="M115.66 157.257L114.916 159.631C113.955 159.722 113.471 159.769 112.507 159.854L114.457 161.095L113.71 163.469L115.66 161.861C116.44 162.358 116.83 162.602 117.611 163.096L116.864 160.869C117.644 160.227 118.031 159.901 118.811 159.253L116.406 159.491C116.107 158.611 115.956 158.153 115.66 157.257Z" fill="url(#paint45_linear_1430_27)"/>
<path d="M129.56 155.781L128.821 158.172C127.862 158.283 127.383 158.343 126.421 158.449C127.202 158.933 127.586 159.174 128.363 159.651L127.622 162.035C128.402 161.378 128.785 161.049 129.56 160.388L131.502 161.577L130.761 159.368C131.54 158.703 131.925 158.369 132.708 157.706C131.744 157.825 131.258 157.879 130.301 157.995C130.043 157.261 129.795 156.523 129.56 155.781Z" fill="url(#paint46_linear_1430_27)"/>
<path d="M115.66 134.028L114.916 136.401L112.507 136.627L114.457 137.866L113.71 140.242C114.491 139.596 114.883 139.277 115.66 138.633C116.44 139.127 116.83 139.371 117.611 139.868C117.311 138.974 117.161 138.53 116.867 137.635C117.647 136.991 118.034 136.673 118.814 136.023L116.406 136.258L115.66 134.028Z" fill="url(#paint47_linear_1430_27)"/>
<path d="M115.66 168.875L114.916 171.247C113.955 171.341 113.471 171.384 112.507 171.473L114.457 172.713L113.71 175.091L115.66 173.479L117.611 174.718L116.864 172.486C117.644 171.844 118.031 171.519 118.811 170.872L116.406 171.105L115.66 168.875Z" fill="url(#paint48_linear_1430_27)"/>
<path d="M108.713 140.484L107.972 142.848C107.008 142.929 106.529 142.97 105.564 143.044C106.345 143.563 106.732 143.822 107.509 144.312L106.768 146.675L108.713 145.089C109.493 145.591 109.878 145.842 110.658 146.339L109.914 144.105L111.859 142.504C110.894 142.595 110.413 142.634 109.454 142.721L108.713 140.484Z" fill="url(#paint49_linear_1430_27)"/>
<path d="M115.662 122.412L114.916 124.786C113.955 124.88 113.471 124.921 112.507 125.009L114.454 126.252L113.71 128.622L115.662 127.016C116.443 127.505 116.827 127.76 117.611 128.251L116.867 126.022C117.647 125.38 118.034 125.053 118.817 124.406C117.852 124.502 117.371 124.553 116.406 124.644L115.662 122.412Z" fill="url(#paint50_linear_1430_27)"/>
<path d="M115.66 145.643L114.916 148.014L112.507 148.252L114.457 149.496L113.713 151.87L115.66 150.26L117.611 151.495L116.867 149.266L118.814 147.65C117.852 147.747 117.371 147.795 116.406 147.888C116.11 146.979 115.959 146.539 115.66 145.643Z" fill="url(#paint51_linear_1430_27)"/>
<path d="M130.288 169.615C129.992 168.733 129.846 168.285 129.547 167.398L128.809 169.789C127.849 169.906 127.371 169.955 126.409 170.064L128.348 171.266L127.61 173.656C128.389 172.998 128.772 172.662 129.547 172.001C130.327 172.48 130.715 172.721 131.492 173.195L130.748 170.983L132.696 169.32L130.288 169.615Z" fill="url(#paint52_linear_1430_27)"/>
<path d="M123.356 164.587L122.612 162.363L121.867 164.748L119.461 165.008L121.409 166.233L120.666 168.612L122.615 166.984L124.561 168.201L123.813 165.978C124.594 165.326 124.984 164.994 125.762 164.337C124.799 164.433 124.318 164.487 123.356 164.587Z" fill="url(#paint53_linear_1430_27)"/>
<path d="M122.615 127.52L121.871 129.899C120.91 130.003 120.426 130.045 119.465 130.159L121.412 131.385L120.668 133.766L122.618 132.136L124.563 133.352L123.817 131.132L125.764 129.493L123.359 129.752L122.615 127.52Z" fill="url(#paint54_linear_1430_27)"/>
<path d="M122.612 150.753L121.868 153.132L119.461 153.391L121.411 154.614L120.667 156.994L122.615 155.37L124.563 156.58L123.817 154.363L125.763 152.724C124.802 152.827 124.318 152.884 123.359 152.982L122.612 150.753Z" fill="url(#paint55_linear_1430_27)"/>
<path d="M122.615 139.135C122.319 140.09 122.169 140.561 121.868 141.517C120.909 141.621 120.424 141.665 119.461 141.763L121.411 142.985L120.667 145.366L122.615 143.742L124.563 144.954L123.817 142.735C124.596 142.081 124.987 141.751 125.763 141.096C124.804 141.204 124.321 141.253 123.359 141.354L122.615 139.135Z" fill="url(#paint56_linear_1430_27)"/>
</g>
<defs>
<linearGradient id="paint0_linear_1430_27" x1="69.0734" y1="216.462" x2="232" y2="216.462" gradientUnits="userSpaceOnUse">
<stop stop-color="#600000"/>
<stop offset="0.327" stop-color="#630000"/>
<stop offset="0.59" stop-color="#6D0000"/>
<stop offset="0.83" stop-color="#7E0000"/>
<stop offset="1" stop-color="#8F0000"/>
</linearGradient>
<linearGradient id="paint1_linear_1430_27" x1="150.536" y1="201.834" x2="150.536" y2="231.123" gradientUnits="userSpaceOnUse">
<stop offset="0.35" stop-color="#BF1010"/>
<stop offset="0.645" stop-color="#BD1010"/>
<stop offset="0.752" stop-color="#B60F0F"/>
<stop offset="0.828" stop-color="#AB0D0D"/>
<stop offset="0.889" stop-color="#9A0A0A"/>
<stop offset="0.941" stop-color="#840606"/>
<stop offset="0.987" stop-color="#690202"/>
<stop offset="1" stop-color="#600000"/>
</linearGradient>
<linearGradient id="paint2_linear_1430_27" x1="69.0735" y1="167.193" x2="232" y2="167.193" gradientUnits="userSpaceOnUse">
<stop stop-color="#BF1010"/>
<stop offset="0.021" stop-color="#C11212"/>
<stop offset="0.244" stop-color="#D22323"/>
<stop offset="0.487" stop-color="#DC2D2D"/>
<stop offset="0.791" stop-color="#DF3030"/>
<stop offset="0.841" stop-color="#DC2E2E"/>
<stop offset="0.882" stop-color="#D22626"/>
<stop offset="0.919" stop-color="#C11919"/>
<stop offset="0.954" stop-color="#A90808"/>
<stop offset="0.966" stop-color="#9F0000"/>
<stop offset="1" stop-color="#DF3030"/>
</linearGradient>
<linearGradient id="paint3_linear_1430_27" x1="69.0734" y1="150.596" x2="232" y2="150.596" gradientUnits="userSpaceOnUse">
<stop stop-color="#DFDFDF"/>
<stop offset="0.021" stop-color="#E1E1E1"/>
<stop offset="0.244" stop-color="#F2F2F2"/>
<stop offset="0.487" stop-color="#FCFCFC"/>
<stop offset="0.791" stop-color="white"/>
<stop offset="0.841" stop-color="#FCFCFC"/>
<stop offset="0.882" stop-color="#F2F2F2"/>
<stop offset="0.919" stop-color="#E1E1E1"/>
<stop offset="0.954" stop-color="#C9C9C9"/>
<stop offset="0.966" stop-color="#BFBFBF"/>
<stop offset="1" stop-color="white"/>
</linearGradient>
<linearGradient id="paint4_linear_1430_27" x1="69.0735" y1="192.209" x2="232" y2="192.209" gradientUnits="userSpaceOnUse">
<stop stop-color="#DFDFDF"/>
<stop offset="0.021" stop-color="#E1E1E1"/>
<stop offset="0.244" stop-color="#F2F2F2"/>
<stop offset="0.487" stop-color="#FCFCFC"/>
<stop offset="0.791" stop-color="white"/>
<stop offset="0.841" stop-color="#FCFCFC"/>
<stop offset="0.882" stop-color="#F2F2F2"/>
<stop offset="0.919" stop-color="#E1E1E1"/>
<stop offset="0.954" stop-color="#C9C9C9"/>
<stop offset="0.966" stop-color="#BFBFBF"/>
<stop offset="1" stop-color="white"/>
</linearGradient>
<linearGradient id="paint5_linear_1430_27" x1="69.0736" y1="208.854" x2="232" y2="208.854" gradientUnits="userSpaceOnUse">
<stop stop-color="#DFDFDF"/>
<stop offset="0.021" stop-color="#E1E1E1"/>
<stop offset="0.244" stop-color="#F2F2F2"/>
<stop offset="0.487" stop-color="#FCFCFC"/>
<stop offset="0.791" stop-color="white"/>
<stop offset="0.841" stop-color="#FCFCFC"/>
<stop offset="0.882" stop-color="#F2F2F2"/>
<stop offset="0.919" stop-color="#E1E1E1"/>
<stop offset="0.954" stop-color="#C9C9C9"/>
<stop offset="0.966" stop-color="#BFBFBF"/>
<stop offset="1" stop-color="white"/>
</linearGradient>
<linearGradient id="paint6_linear_1430_27" x1="69.0735" y1="147.93" x2="232" y2="147.93" gradientUnits="userSpaceOnUse">
<stop stop-color="#00209F"/>
<stop offset="0.021" stop-color="#0222A1"/>
<stop offset="0.244" stop-color="#1333B2"/>
<stop offset="0.487" stop-color="#1D3DBC"/>
<stop offset="0.791" stop-color="#2040BF"/>
<stop offset="0.841" stop-color="#1E3DBC"/>
<stop offset="0.882" stop-color="#1933B2"/>
<stop offset="0.919" stop-color="#1122A1"/>
<stop offset="0.954" stop-color="#050A89"/>
<stop offset="0.966" stop-color="#00007F"/>
<stop offset="1" stop-color="#2040BF"/>
</linearGradient>
<linearGradient id="paint7_linear_1430_27" x1="69.076" y1="127.399" x2="231.992" y2="127.399" gradientUnits="userSpaceOnUse">
<stop stop-color="#DFDFDF"/>
<stop offset="0.021" stop-color="#E1E1E1"/>
<stop offset="0.244" stop-color="#F2F2F2"/>
<stop offset="0.487" stop-color="#FCFCFC"/>
<stop offset="0.791" stop-color="white"/>
<stop offset="0.841" stop-color="#FCFCFC"/>
<stop offset="0.882" stop-color="#F2F2F2"/>
<stop offset="0.919" stop-color="#E1E1E1"/>
<stop offset="0.954" stop-color="#C9C9C9"/>
<stop offset="0.966" stop-color="#BFBFBF"/>
<stop offset="1" stop-color="white"/>
</linearGradient>
<linearGradient id="paint8_linear_1430_27" x1="69.076" y1="156.13" x2="231.984" y2="156.13" gradientUnits="userSpaceOnUse">
<stop stop-color="#DFDFDF"/>
<stop offset="0.021" stop-color="#E1E1E1"/>
<stop offset="0.244" stop-color="#F2F2F2"/>
<stop offset="0.487" stop-color="#FCFCFC"/>
<stop offset="0.791" stop-color="white"/>
<stop offset="0.841" stop-color="#FCFCFC"/>
<stop offset="0.882" stop-color="#F2F2F2"/>
<stop offset="0.919" stop-color="#E1E1E1"/>
<stop offset="0.954" stop-color="#C9C9C9"/>
<stop offset="0.966" stop-color="#BFBFBF"/>
<stop offset="1" stop-color="white"/>
</linearGradient>
<linearGradient id="paint9_linear_1430_27" x1="69.076" y1="167.745" x2="231.984" y2="167.745" gradientUnits="userSpaceOnUse">
<stop stop-color="#DFDFDF"/>
<stop offset="0.021" stop-color="#E1E1E1"/>
<stop offset="0.244" stop-color="#F2F2F2"/>
<stop offset="0.487" stop-color="#FCFCFC"/>
<stop offset="0.791" stop-color="white"/>
<stop offset="0.841" stop-color="#FCFCFC"/>
<stop offset="0.882" stop-color="#F2F2F2"/>
<stop offset="0.919" stop-color="#E1E1E1"/>
<stop offset="0.954" stop-color="#C9C9C9"/>
<stop offset="0.966" stop-color="#BFBFBF"/>
<stop offset="1" stop-color="white"/>
</linearGradient>
<linearGradient id="paint10_linear_1430_27" x1="69.0762" y1="150.633" x2="231.991" y2="150.633" gradientUnits="userSpaceOnUse">
<stop stop-color="#DFDFDF"/>
<stop offset="0.021" stop-color="#E1E1E1"/>
<stop offset="0.244" stop-color="#F2F2F2"/>
<stop offset="0.487" stop-color="#FCFCFC"/>
<stop offset="0.791" stop-color="white"/>
<stop offset="0.841" stop-color="#FCFCFC"/>
<stop offset="0.882" stop-color="#F2F2F2"/>
<stop offset="0.919" stop-color="#E1E1E1"/>
<stop offset="0.954" stop-color="#C9C9C9"/>
<stop offset="0.966" stop-color="#BFBFBF"/>
<stop offset="1" stop-color="white"/>
</linearGradient>
<linearGradient id="paint11_linear_1430_27" x1="69.0761" y1="162.246" x2="231.993" y2="162.246" gradientUnits="userSpaceOnUse">
<stop stop-color="#DFDFDF"/>
<stop offset="0.021" stop-color="#E1E1E1"/>
<stop offset="0.244" stop-color="#F2F2F2"/>
<stop offset="0.487" stop-color="#FCFCFC"/>
<stop offset="0.791" stop-color="white"/>
<stop offset="0.841" stop-color="#FCFCFC"/>
<stop offset="0.882" stop-color="#F2F2F2"/>
<stop offset="0.919" stop-color="#E1E1E1"/>
<stop offset="0.954" stop-color="#C9C9C9"/>
<stop offset="0.966" stop-color="#BFBFBF"/>
<stop offset="1" stop-color="white"/>
</linearGradient>
<linearGradient id="paint12_linear_1430_27" x1="69.0762" y1="139.016" x2="231.991" y2="139.016" gradientUnits="userSpaceOnUse">
<stop stop-color="#DFDFDF"/>
<stop offset="0.021" stop-color="#E1E1E1"/>
<stop offset="0.244" stop-color="#F2F2F2"/>
<stop offset="0.487" stop-color="#FCFCFC"/>
<stop offset="0.791" stop-color="white"/>
<stop offset="0.841" stop-color="#FCFCFC"/>
<stop offset="0.882" stop-color="#F2F2F2"/>
<stop offset="0.919" stop-color="#E1E1E1"/>
<stop offset="0.954" stop-color="#C9C9C9"/>
<stop offset="0.966" stop-color="#BFBFBF"/>
<stop offset="1" stop-color="white"/>
</linearGradient>
<linearGradient id="paint13_linear_1430_27" x1="69.0655" y1="166.798" x2="232.023" y2="166.798" gradientUnits="userSpaceOnUse">
<stop stop-color="#DFDFDF"/>
<stop offset="0.021" stop-color="#E1E1E1"/>
<stop offset="0.244" stop-color="#F2F2F2"/>
<stop offset="0.487" stop-color="#FCFCFC"/>
<stop offset="0.791" stop-color="white"/>
<stop offset="0.841" stop-color="#FCFCFC"/>
<stop offset="0.882" stop-color="#F2F2F2"/>
<stop offset="0.919" stop-color="#E1E1E1"/>
<stop offset="0.954" stop-color="#C9C9C9"/>
<stop offset="0.966" stop-color="#BFBFBF"/>
<stop offset="1" stop-color="white"/>
</linearGradient>
<linearGradient id="paint14_linear_1430_27" x1="69.076" y1="144.517" x2="231.984" y2="144.517" gradientUnits="userSpaceOnUse">
<stop stop-color="#DFDFDF"/>
<stop offset="0.021" stop-color="#E1E1E1"/>
<stop offset="0.244" stop-color="#F2F2F2"/>
<stop offset="0.487" stop-color="#FCFCFC"/>
<stop offset="0.791" stop-color="white"/>
<stop offset="0.841" stop-color="#FCFCFC"/>
<stop offset="0.882" stop-color="#F2F2F2"/>
<stop offset="0.919" stop-color="#E1E1E1"/>
<stop offset="0.954" stop-color="#C9C9C9"/>
<stop offset="0.966" stop-color="#BFBFBF"/>
<stop offset="1" stop-color="white"/>
</linearGradient>
<linearGradient id="paint15_linear_1430_27" x1="69.0761" y1="161.52" x2="231.984" y2="161.52" gradientUnits="userSpaceOnUse">
<stop stop-color="#DFDFDF"/>
<stop offset="0.021" stop-color="#E1E1E1"/>
<stop offset="0.244" stop-color="#F2F2F2"/>
<stop offset="0.487" stop-color="#FCFCFC"/>
<stop offset="0.791" stop-color="white"/>
<stop offset="0.841" stop-color="#FCFCFC"/>
<stop offset="0.882" stop-color="#F2F2F2"/>
<stop offset="0.919" stop-color="#E1E1E1"/>
<stop offset="0.954" stop-color="#C9C9C9"/>
<stop offset="0.966" stop-color="#BFBFBF"/>
<stop offset="1" stop-color="white"/>
</linearGradient>
<linearGradient id="paint16_linear_1430_27" x1="69.0759" y1="173.137" x2="231.984" y2="173.137" gradientUnits="userSpaceOnUse">
<stop stop-color="#DFDFDF"/>
<stop offset="0.021" stop-color="#E1E1E1"/>
<stop offset="0.244" stop-color="#F2F2F2"/>
<stop offset="0.487" stop-color="#FCFCFC"/>
<stop offset="0.791" stop-color="white"/>
<stop offset="0.841" stop-color="#FCFCFC"/>
<stop offset="0.882" stop-color="#F2F2F2"/>
<stop offset="0.919" stop-color="#E1E1E1"/>
<stop offset="0.954" stop-color="#C9C9C9"/>
<stop offset="0.966" stop-color="#BFBFBF"/>
<stop offset="1" stop-color="white"/>
</linearGradient>
<linearGradient id="paint17_linear_1430_27" x1="69.076" y1="132.899" x2="231.984" y2="132.899" gradientUnits="userSpaceOnUse">
<stop stop-color="#DFDFDF"/>
<stop offset="0.021" stop-color="#E1E1E1"/>
<stop offset="0.244" stop-color="#F2F2F2"/>
<stop offset="0.487" stop-color="#FCFCFC"/>
<stop offset="0.791" stop-color="white"/>
<stop offset="0.841" stop-color="#FCFCFC"/>
<stop offset="0.882" stop-color="#F2F2F2"/>
<stop offset="0.919" stop-color="#E1E1E1"/>
<stop offset="0.954" stop-color="#C9C9C9"/>
<stop offset="0.966" stop-color="#BFBFBF"/>
<stop offset="1" stop-color="white"/>
</linearGradient>
<linearGradient id="paint18_linear_1430_27" x1="69.0759" y1="149.906" x2="231.989" y2="149.906" gradientUnits="userSpaceOnUse">
<stop stop-color="#DFDFDF"/>
<stop offset="0.021" stop-color="#E1E1E1"/>
<stop offset="0.244" stop-color="#F2F2F2"/>
<stop offset="0.487" stop-color="#FCFCFC"/>
<stop offset="0.791" stop-color="white"/>
<stop offset="0.841" stop-color="#FCFCFC"/>
<stop offset="0.882" stop-color="#F2F2F2"/>
<stop offset="0.919" stop-color="#E1E1E1"/>
<stop offset="0.954" stop-color="#C9C9C9"/>
<stop offset="0.966" stop-color="#BFBFBF"/>
<stop offset="1" stop-color="white"/>
</linearGradient>
<linearGradient id="paint19_linear_1430_27" x1="69.0761" y1="173.865" x2="231.993" y2="173.865" gradientUnits="userSpaceOnUse">
<stop stop-color="#DFDFDF"/>
<stop offset="0.021" stop-color="#E1E1E1"/>
<stop offset="0.244" stop-color="#F2F2F2"/>
<stop offset="0.487" stop-color="#FCFCFC"/>
<stop offset="0.791" stop-color="white"/>
<stop offset="0.841" stop-color="#FCFCFC"/>
<stop offset="0.882" stop-color="#F2F2F2"/>
<stop offset="0.919" stop-color="#E1E1E1"/>
<stop offset="0.954" stop-color="#C9C9C9"/>
<stop offset="0.966" stop-color="#BFBFBF"/>
<stop offset="1" stop-color="white"/>
</linearGradient>
<linearGradient id="paint20_linear_1430_27" x1="69.0733" y1="150.983" x2="232.02" y2="150.983" gradientUnits="userSpaceOnUse">
<stop stop-color="#DFDFDF"/>
<stop offset="0.021" stop-color="#E1E1E1"/>
<stop offset="0.244" stop-color="#F2F2F2"/>
<stop offset="0.487" stop-color="#FCFCFC"/>
<stop offset="0.791" stop-color="white"/>
<stop offset="0.841" stop-color="#FCFCFC"/>
<stop offset="0.882" stop-color="#F2F2F2"/>
<stop offset="0.919" stop-color="#E1E1E1"/>
<stop offset="0.954" stop-color="#C9C9C9"/>
<stop offset="0.966" stop-color="#BFBFBF"/>
<stop offset="1" stop-color="white"/>
</linearGradient>
<linearGradient id="paint21_linear_1430_27" x1="69.0733" y1="139.366" x2="232.02" y2="139.366" gradientUnits="userSpaceOnUse">
<stop stop-color="#DFDFDF"/>
<stop offset="0.021" stop-color="#E1E1E1"/>
<stop offset="0.244" stop-color="#F2F2F2"/>
<stop offset="0.487" stop-color="#FCFCFC"/>
<stop offset="0.791" stop-color="white"/>
<stop offset="0.841" stop-color="#FCFCFC"/>
<stop offset="0.882" stop-color="#F2F2F2"/>
<stop offset="0.919" stop-color="#E1E1E1"/>
<stop offset="0.954" stop-color="#C9C9C9"/>
<stop offset="0.966" stop-color="#BFBFBF"/>
<stop offset="1" stop-color="white"/>
</linearGradient>
<linearGradient id="paint22_linear_1430_27" x1="69.0734" y1="174.215" x2="231.977" y2="174.215" gradientUnits="userSpaceOnUse">
<stop stop-color="#DFDFDF"/>
<stop offset="0.021" stop-color="#E1E1E1"/>
<stop offset="0.244" stop-color="#F2F2F2"/>
<stop offset="0.487" stop-color="#FCFCFC"/>
<stop offset="0.791" stop-color="white"/>
<stop offset="0.841" stop-color="#FCFCFC"/>
<stop offset="0.882" stop-color="#F2F2F2"/>
<stop offset="0.919" stop-color="#E1E1E1"/>
<stop offset="0.954" stop-color="#C9C9C9"/>
<stop offset="0.966" stop-color="#BFBFBF"/>
<stop offset="1" stop-color="white"/>
</linearGradient>
<linearGradient id="paint23_linear_1430_27" x1="69.0761" y1="138.29" x2="231.984" y2="138.29" gradientUnits="userSpaceOnUse">
<stop stop-color="#DFDFDF"/>
<stop offset="0.021" stop-color="#E1E1E1"/>
<stop offset="0.244" stop-color="#F2F2F2"/>
<stop offset="0.487" stop-color="#FCFCFC"/>
<stop offset="0.791" stop-color="white"/>
<stop offset="0.841" stop-color="#FCFCFC"/>
<stop offset="0.882" stop-color="#F2F2F2"/>
<stop offset="0.919" stop-color="#E1E1E1"/>
<stop offset="0.954" stop-color="#C9C9C9"/>
<stop offset="0.966" stop-color="#BFBFBF"/>
<stop offset="1" stop-color="white"/>
</linearGradient>
<linearGradient id="paint24_linear_1430_27" x1="69.0761" y1="126.67" x2="231.984" y2="126.67" gradientUnits="userSpaceOnUse">
<stop stop-color="#DFDFDF"/>
<stop offset="0.021" stop-color="#E1E1E1"/>
<stop offset="0.244" stop-color="#F2F2F2"/>
<stop offset="0.487" stop-color="#FCFCFC"/>
<stop offset="0.791" stop-color="white"/>
<stop offset="0.841" stop-color="#FCFCFC"/>
<stop offset="0.882" stop-color="#F2F2F2"/>
<stop offset="0.919" stop-color="#E1E1E1"/>
<stop offset="0.954" stop-color="#C9C9C9"/>
<stop offset="0.966" stop-color="#BFBFBF"/>
<stop offset="1" stop-color="white"/>
</linearGradient>
<linearGradient id="paint25_linear_1430_27" x1="69.0733" y1="162.598" x2="231.977" y2="162.598" gradientUnits="userSpaceOnUse">
<stop stop-color="#DFDFDF"/>
<stop offset="0.021" stop-color="#E1E1E1"/>
<stop offset="0.244" stop-color="#F2F2F2"/>
<stop offset="0.487" stop-color="#FCFCFC"/>
<stop offset="0.791" stop-color="white"/>
<stop offset="0.841" stop-color="#FCFCFC"/>
<stop offset="0.882" stop-color="#F2F2F2"/>
<stop offset="0.919" stop-color="#E1E1E1"/>
<stop offset="0.954" stop-color="#C9C9C9"/>
<stop offset="0.966" stop-color="#BFBFBF"/>
<stop offset="1" stop-color="white"/>
</linearGradient>
<linearGradient id="paint26_linear_1430_27" x1="69.0736" y1="133.433" x2="231.981" y2="133.433" gradientUnits="userSpaceOnUse">
<stop stop-color="#DFDFDF"/>
<stop offset="0.021" stop-color="#E1E1E1"/>
<stop offset="0.244" stop-color="#F2F2F2"/>
<stop offset="0.487" stop-color="#FCFCFC"/>
<stop offset="0.791" stop-color="white"/>
<stop offset="0.841" stop-color="#FCFCFC"/>
<stop offset="0.882" stop-color="#F2F2F2"/>
<stop offset="0.919" stop-color="#E1E1E1"/>
<stop offset="0.954" stop-color="#C9C9C9"/>
<stop offset="0.966" stop-color="#BFBFBF"/>
<stop offset="1" stop-color="white"/>
</linearGradient>
<linearGradient id="paint27_linear_1430_27" x1="69.0736" y1="145.048" x2="231.981" y2="145.048" gradientUnits="userSpaceOnUse">
<stop stop-color="#DFDFDF"/>
<stop offset="0.021" stop-color="#E1E1E1"/>
<stop offset="0.244" stop-color="#F2F2F2"/>
<stop offset="0.487" stop-color="#FCFCFC"/>
<stop offset="0.791" stop-color="white"/>
<stop offset="0.841" stop-color="#FCFCFC"/>
<stop offset="0.882" stop-color="#F2F2F2"/>
<stop offset="0.919" stop-color="#E1E1E1"/>
<stop offset="0.954" stop-color="#C9C9C9"/>
<stop offset="0.966" stop-color="#BFBFBF"/>
<stop offset="1" stop-color="white"/>
</linearGradient>
<linearGradient id="paint28_linear_1430_27" x1="69.0736" y1="168.275" x2="231.982" y2="168.275" gradientUnits="userSpaceOnUse">
<stop stop-color="#DFDFDF"/>
<stop offset="0.021" stop-color="#E1E1E1"/>
<stop offset="0.244" stop-color="#F2F2F2"/>
<stop offset="0.487" stop-color="#FCFCFC"/>
<stop offset="0.791" stop-color="white"/>
<stop offset="0.841" stop-color="#FCFCFC"/>
<stop offset="0.882" stop-color="#F2F2F2"/>
<stop offset="0.919" stop-color="#E1E1E1"/>
<stop offset="0.954" stop-color="#C9C9C9"/>
<stop offset="0.966" stop-color="#BFBFBF"/>
<stop offset="1" stop-color="white"/>
</linearGradient>
<linearGradient id="paint29_linear_1430_27" x1="69.0736" y1="156.661" x2="231.981" y2="156.661" gradientUnits="userSpaceOnUse">
<stop stop-color="#DFDFDF"/>
<stop offset="0.021" stop-color="#E1E1E1"/>
<stop offset="0.244" stop-color="#F2F2F2"/>
<stop offset="0.487" stop-color="#FCFCFC"/>
<stop offset="0.791" stop-color="white"/>
<stop offset="0.841" stop-color="#FCFCFC"/>
<stop offset="0.882" stop-color="#F2F2F2"/>
<stop offset="0.919" stop-color="#E1E1E1"/>
<stop offset="0.954" stop-color="#C9C9C9"/>
<stop offset="0.966" stop-color="#BFBFBF"/>
<stop offset="1" stop-color="white"/>
</linearGradient>
<linearGradient id="paint30_linear_1430_27" x1="69.0733" y1="127.748" x2="232.015" y2="127.748" gradientUnits="userSpaceOnUse">
<stop stop-color="#DFDFDF"/>
<stop offset="0.021" stop-color="#E1E1E1"/>
<stop offset="0.244" stop-color="#F2F2F2"/>
<stop offset="0.487" stop-color="#FCFCFC"/>
<stop offset="0.791" stop-color="white"/>
<stop offset="0.841" stop-color="#FCFCFC"/>
<stop offset="0.882" stop-color="#F2F2F2"/>
<stop offset="0.919" stop-color="#E1E1E1"/>
<stop offset="0.954" stop-color="#C9C9C9"/>
<stop offset="0.966" stop-color="#BFBFBF"/>
<stop offset="1" stop-color="white"/>
</linearGradient>
<linearGradient id="paint31_linear_1430_27" x1="69.0656" y1="155.183" x2="232.023" y2="155.183" gradientUnits="userSpaceOnUse">
<stop stop-color="#DFDFDF"/>
<stop offset="0.021" stop-color="#E1E1E1"/>
<stop offset="0.244" stop-color="#F2F2F2"/>
<stop offset="0.487" stop-color="#FCFCFC"/>
<stop offset="0.791" stop-color="white"/>
<stop offset="0.841" stop-color="#FCFCFC"/>
<stop offset="0.882" stop-color="#F2F2F2"/>
<stop offset="0.919" stop-color="#E1E1E1"/>
<stop offset="0.954" stop-color="#C9C9C9"/>
<stop offset="0.966" stop-color="#BFBFBF"/>
<stop offset="1" stop-color="white"/>
</linearGradient>
<linearGradient id="paint32_linear_1430_27" x1="69.0811" y1="152.256" x2="231.987" y2="152.256" gradientUnits="userSpaceOnUse">
<stop stop-color="#DFDFDF"/>
<stop offset="0.021" stop-color="#E1E1E1"/>
<stop offset="0.244" stop-color="#F2F2F2"/>
<stop offset="0.487" stop-color="#FCFCFC"/>
<stop offset="0.791" stop-color="white"/>
<stop offset="0.841" stop-color="#FCFCFC"/>
<stop offset="0.882" stop-color="#F2F2F2"/>
<stop offset="0.919" stop-color="#E1E1E1"/>
<stop offset="0.954" stop-color="#C9C9C9"/>
<stop offset="0.966" stop-color="#BFBFBF"/>
<stop offset="1" stop-color="white"/>
</linearGradient>
<linearGradient id="paint33_linear_1430_27" x1="69.0812" y1="140.643" x2="231.987" y2="140.643" gradientUnits="userSpaceOnUse">
<stop stop-color="#DFDFDF"/>
<stop offset="0.021" stop-color="#E1E1E1"/>
<stop offset="0.244" stop-color="#F2F2F2"/>
<stop offset="0.487" stop-color="#FCFCFC"/>
<stop offset="0.791" stop-color="white"/>
<stop offset="0.841" stop-color="#FCFCFC"/>
<stop offset="0.882" stop-color="#F2F2F2"/>
<stop offset="0.919" stop-color="#E1E1E1"/>
<stop offset="0.954" stop-color="#C9C9C9"/>
<stop offset="0.966" stop-color="#BFBFBF"/>
<stop offset="1" stop-color="white"/>
</linearGradient>
<linearGradient id="paint34_linear_1430_27" x1="69.0811" y1="163.874" x2="231.987" y2="163.874" gradientUnits="userSpaceOnUse">
<stop stop-color="#DFDFDF"/>
<stop offset="0.021" stop-color="#E1E1E1"/>
<stop offset="0.244" stop-color="#F2F2F2"/>
<stop offset="0.487" stop-color="#FCFCFC"/>
<stop offset="0.791" stop-color="white"/>
<stop offset="0.841" stop-color="#FCFCFC"/>
<stop offset="0.882" stop-color="#F2F2F2"/>
<stop offset="0.919" stop-color="#E1E1E1"/>
<stop offset="0.954" stop-color="#C9C9C9"/>
<stop offset="0.966" stop-color="#BFBFBF"/>
<stop offset="1" stop-color="white"/>
</linearGradient>
<linearGradient id="paint35_linear_1430_27" x1="69.0501" y1="135.678" x2="232.039" y2="135.678" gradientUnits="userSpaceOnUse">
<stop stop-color="#DFDFDF"/>
<stop offset="0.021" stop-color="#E1E1E1"/>
<stop offset="0.244" stop-color="#F2F2F2"/>
<stop offset="0.487" stop-color="#FCFCFC"/>
<stop offset="0.791" stop-color="white"/>
<stop offset="0.841" stop-color="#FCFCFC"/>
<stop offset="0.882" stop-color="#F2F2F2"/>
<stop offset="0.919" stop-color="#E1E1E1"/>
<stop offset="0.954" stop-color="#C9C9C9"/>
<stop offset="0.966" stop-color="#BFBFBF"/>
<stop offset="1" stop-color="white"/>
</linearGradient>
<linearGradient id="paint36_linear_1430_27" x1="69.0837" y1="129.026" x2="231.984" y2="129.026" gradientUnits="userSpaceOnUse">
<stop stop-color="#DFDFDF"/>
<stop offset="0.021" stop-color="#E1E1E1"/>
<stop offset="0.244" stop-color="#F2F2F2"/>
<stop offset="0.487" stop-color="#FCFCFC"/>
<stop offset="0.791" stop-color="white"/>
<stop offset="0.841" stop-color="#FCFCFC"/>
<stop offset="0.882" stop-color="#F2F2F2"/>
<stop offset="0.919" stop-color="#E1E1E1"/>
<stop offset="0.954" stop-color="#C9C9C9"/>
<stop offset="0.966" stop-color="#BFBFBF"/>
<stop offset="1" stop-color="white"/>
</linearGradient>
<linearGradient id="paint37_linear_1430_27" x1="69.0501" y1="124.063" x2="232.039" y2="124.063" gradientUnits="userSpaceOnUse">
<stop stop-color="#DFDFDF"/>
<stop offset="0.021" stop-color="#E1E1E1"/>
<stop offset="0.244" stop-color="#F2F2F2"/>
<stop offset="0.487" stop-color="#FCFCFC"/>
<stop offset="0.791" stop-color="white"/>
<stop offset="0.841" stop-color="#FCFCFC"/>
<stop offset="0.882" stop-color="#F2F2F2"/>
<stop offset="0.919" stop-color="#E1E1E1"/>
<stop offset="0.954" stop-color="#C9C9C9"/>
<stop offset="0.966" stop-color="#BFBFBF"/>
<stop offset="1" stop-color="white"/>
</linearGradient>
<linearGradient id="paint38_linear_1430_27" x1="69.0787" y1="145.542" x2="231.994" y2="145.542" gradientUnits="userSpaceOnUse">
<stop stop-color="#DFDFDF"/>
<stop offset="0.021" stop-color="#E1E1E1"/>
<stop offset="0.244" stop-color="#F2F2F2"/>
<stop offset="0.487" stop-color="#FCFCFC"/>
<stop offset="0.791" stop-color="white"/>
<stop offset="0.841" stop-color="#FCFCFC"/>
<stop offset="0.882" stop-color="#F2F2F2"/>
<stop offset="0.919" stop-color="#E1E1E1"/>
<stop offset="0.954" stop-color="#C9C9C9"/>
<stop offset="0.966" stop-color="#BFBFBF"/>
<stop offset="1" stop-color="white"/>
</linearGradient>
<linearGradient id="paint39_linear_1430_27" x1="69.0787" y1="133.927" x2="231.995" y2="133.927" gradientUnits="userSpaceOnUse">
<stop stop-color="#DFDFDF"/>
<stop offset="0.021" stop-color="#E1E1E1"/>
<stop offset="0.244" stop-color="#F2F2F2"/>
<stop offset="0.487" stop-color="#FCFCFC"/>
<stop offset="0.791" stop-color="white"/>
<stop offset="0.841" stop-color="#FCFCFC"/>
<stop offset="0.882" stop-color="#F2F2F2"/>
<stop offset="0.919" stop-color="#E1E1E1"/>
<stop offset="0.954" stop-color="#C9C9C9"/>
<stop offset="0.966" stop-color="#BFBFBF"/>
<stop offset="1" stop-color="white"/>
</linearGradient>
<linearGradient id="paint40_linear_1430_27" x1="69.0813" y1="168.776" x2="231.992" y2="168.776" gradientUnits="userSpaceOnUse">
<stop stop-color="#DFDFDF"/>
<stop offset="0.021" stop-color="#E1E1E1"/>
<stop offset="0.244" stop-color="#F2F2F2"/>
<stop offset="0.487" stop-color="#FCFCFC"/>
<stop offset="0.791" stop-color="white"/>
<stop offset="0.841" stop-color="#FCFCFC"/>
<stop offset="0.882" stop-color="#F2F2F2"/>
<stop offset="0.919" stop-color="#E1E1E1"/>
<stop offset="0.954" stop-color="#C9C9C9"/>
<stop offset="0.966" stop-color="#BFBFBF"/>
<stop offset="1" stop-color="white"/>
</linearGradient>
<linearGradient id="paint41_linear_1430_27" x1="69.0786" y1="122.308" x2="231.996" y2="122.308" gradientUnits="userSpaceOnUse">
<stop stop-color="#DFDFDF"/>
<stop offset="0.021" stop-color="#E1E1E1"/>
<stop offset="0.244" stop-color="#F2F2F2"/>
<stop offset="0.487" stop-color="#FCFCFC"/>
<stop offset="0.791" stop-color="white"/>
<stop offset="0.841" stop-color="#FCFCFC"/>
<stop offset="0.882" stop-color="#F2F2F2"/>
<stop offset="0.919" stop-color="#E1E1E1"/>
<stop offset="0.954" stop-color="#C9C9C9"/>
<stop offset="0.966" stop-color="#BFBFBF"/>
<stop offset="1" stop-color="white"/>
</linearGradient>
<linearGradient id="paint42_linear_1430_27" x1="69.0787" y1="157.157" x2="231.995" y2="157.157" gradientUnits="userSpaceOnUse">
<stop stop-color="#DFDFDF"/>
<stop offset="0.021" stop-color="#E1E1E1"/>
<stop offset="0.244" stop-color="#F2F2F2"/>
<stop offset="0.487" stop-color="#FCFCFC"/>
<stop offset="0.791" stop-color="white"/>
<stop offset="0.841" stop-color="#FCFCFC"/>
<stop offset="0.882" stop-color="#F2F2F2"/>
<stop offset="0.919" stop-color="#E1E1E1"/>
<stop offset="0.954" stop-color="#C9C9C9"/>
<stop offset="0.966" stop-color="#BFBFBF"/>
<stop offset="1" stop-color="white"/>
</linearGradient>
<linearGradient id="paint43_linear_1430_27" x1="69.0499" y1="147.295" x2="232.039" y2="147.295" gradientUnits="userSpaceOnUse">
<stop stop-color="#DFDFDF"/>
<stop offset="0.021" stop-color="#E1E1E1"/>
<stop offset="0.244" stop-color="#F2F2F2"/>
<stop offset="0.487" stop-color="#FCFCFC"/>
<stop offset="0.791" stop-color="white"/>
<stop offset="0.841" stop-color="#FCFCFC"/>
<stop offset="0.882" stop-color="#F2F2F2"/>
<stop offset="0.919" stop-color="#E1E1E1"/>
<stop offset="0.954" stop-color="#C9C9C9"/>
<stop offset="0.966" stop-color="#BFBFBF"/>
<stop offset="1" stop-color="white"/>
</linearGradient>
<linearGradient id="paint44_linear_1430_27" x1="69.0655" y1="131.95" x2="232.023" y2="131.95" gradientUnits="userSpaceOnUse">
<stop stop-color="#DFDFDF"/>
<stop offset="0.021" stop-color="#E1E1E1"/>
<stop offset="0.244" stop-color="#F2F2F2"/>
<stop offset="0.487" stop-color="#FCFCFC"/>
<stop offset="0.791" stop-color="white"/>
<stop offset="0.841" stop-color="#FCFCFC"/>
<stop offset="0.882" stop-color="#F2F2F2"/>
<stop offset="0.919" stop-color="#E1E1E1"/>
<stop offset="0.954" stop-color="#C9C9C9"/>
<stop offset="0.966" stop-color="#BFBFBF"/>
<stop offset="1" stop-color="white"/>
</linearGradient>
<linearGradient id="paint45_linear_1430_27" x1="69.0785" y1="160.362" x2="231.987" y2="160.362" gradientUnits="userSpaceOnUse">
<stop stop-color="#DFDFDF"/>
<stop offset="0.021" stop-color="#E1E1E1"/>
<stop offset="0.244" stop-color="#F2F2F2"/>
<stop offset="0.487" stop-color="#FCFCFC"/>
<stop offset="0.791" stop-color="white"/>
<stop offset="0.841" stop-color="#FCFCFC"/>
<stop offset="0.882" stop-color="#F2F2F2"/>
<stop offset="0.919" stop-color="#E1E1E1"/>
<stop offset="0.954" stop-color="#C9C9C9"/>
<stop offset="0.966" stop-color="#BFBFBF"/>
<stop offset="1" stop-color="white"/>
</linearGradient>
<linearGradient id="paint46_linear_1430_27" x1="69.0499" y1="158.91" x2="232.039" y2="158.91" gradientUnits="userSpaceOnUse">
<stop stop-color="#DFDFDF"/>
<stop offset="0.021" stop-color="#E1E1E1"/>
<stop offset="0.244" stop-color="#F2F2F2"/>
<stop offset="0.487" stop-color="#FCFCFC"/>
<stop offset="0.791" stop-color="white"/>
<stop offset="0.841" stop-color="#FCFCFC"/>
<stop offset="0.882" stop-color="#F2F2F2"/>
<stop offset="0.919" stop-color="#E1E1E1"/>
<stop offset="0.954" stop-color="#C9C9C9"/>
<stop offset="0.966" stop-color="#BFBFBF"/>
<stop offset="1" stop-color="white"/>
</linearGradient>
<linearGradient id="paint47_linear_1430_27" x1="69.0785" y1="137.134" x2="231.987" y2="137.134" gradientUnits="userSpaceOnUse">
<stop stop-color="#DFDFDF"/>
<stop offset="0.021" stop-color="#E1E1E1"/>
<stop offset="0.244" stop-color="#F2F2F2"/>
<stop offset="0.487" stop-color="#FCFCFC"/>
<stop offset="0.791" stop-color="white"/>
<stop offset="0.841" stop-color="#FCFCFC"/>
<stop offset="0.882" stop-color="#F2F2F2"/>
<stop offset="0.919" stop-color="#E1E1E1"/>
<stop offset="0.954" stop-color="#C9C9C9"/>
<stop offset="0.966" stop-color="#BFBFBF"/>
<stop offset="1" stop-color="white"/>
</linearGradient>
<linearGradient id="paint48_linear_1430_27" x1="69.0785" y1="171.983" x2="231.987" y2="171.983" gradientUnits="userSpaceOnUse">
<stop stop-color="#DFDFDF"/>
<stop offset="0.021" stop-color="#E1E1E1"/>
<stop offset="0.244" stop-color="#F2F2F2"/>
<stop offset="0.487" stop-color="#FCFCFC"/>
<stop offset="0.791" stop-color="white"/>
<stop offset="0.841" stop-color="#FCFCFC"/>
<stop offset="0.882" stop-color="#F2F2F2"/>
<stop offset="0.919" stop-color="#E1E1E1"/>
<stop offset="0.954" stop-color="#C9C9C9"/>
<stop offset="0.966" stop-color="#BFBFBF"/>
<stop offset="1" stop-color="white"/>
</linearGradient>
<linearGradient id="paint49_linear_1430_27" x1="69.0656" y1="143.565" x2="232.023" y2="143.565" gradientUnits="userSpaceOnUse">
<stop stop-color="#DFDFDF"/>
<stop offset="0.021" stop-color="#E1E1E1"/>
<stop offset="0.244" stop-color="#F2F2F2"/>
<stop offset="0.487" stop-color="#FCFCFC"/>
<stop offset="0.791" stop-color="white"/>
<stop offset="0.841" stop-color="#FCFCFC"/>
<stop offset="0.882" stop-color="#F2F2F2"/>
<stop offset="0.919" stop-color="#E1E1E1"/>
<stop offset="0.954" stop-color="#C9C9C9"/>
<stop offset="0.966" stop-color="#BFBFBF"/>
<stop offset="1" stop-color="white"/>
</linearGradient>
<linearGradient id="paint50_linear_1430_27" x1="69.0681" y1="125.517" x2="232.016" y2="125.517" gradientUnits="userSpaceOnUse">
<stop stop-color="#DFDFDF"/>
<stop offset="0.021" stop-color="#E1E1E1"/>
<stop offset="0.244" stop-color="#F2F2F2"/>
<stop offset="0.487" stop-color="#FCFCFC"/>
<stop offset="0.791" stop-color="white"/>
<stop offset="0.841" stop-color="#FCFCFC"/>
<stop offset="0.882" stop-color="#F2F2F2"/>
<stop offset="0.919" stop-color="#E1E1E1"/>
<stop offset="0.954" stop-color="#C9C9C9"/>
<stop offset="0.966" stop-color="#BFBFBF"/>
<stop offset="1" stop-color="white"/>
</linearGradient>
<linearGradient id="paint51_linear_1430_27" x1="69.0785" y1="148.749" x2="231.987" y2="148.749" gradientUnits="userSpaceOnUse">
<stop stop-color="#DFDFDF"/>
<stop offset="0.021" stop-color="#E1E1E1"/>
<stop offset="0.244" stop-color="#F2F2F2"/>
<stop offset="0.487" stop-color="#FCFCFC"/>
<stop offset="0.791" stop-color="white"/>
<stop offset="0.841" stop-color="#FCFCFC"/>
<stop offset="0.882" stop-color="#F2F2F2"/>
<stop offset="0.919" stop-color="#E1E1E1"/>
<stop offset="0.954" stop-color="#C9C9C9"/>
<stop offset="0.966" stop-color="#BFBFBF"/>
<stop offset="1" stop-color="white"/>
</linearGradient>
<linearGradient id="paint52_linear_1430_27" x1="69.0501" y1="170.528" x2="232.038" y2="170.528" gradientUnits="userSpaceOnUse">
<stop stop-color="#DFDFDF"/>
<stop offset="0.021" stop-color="#E1E1E1"/>
<stop offset="0.244" stop-color="#F2F2F2"/>
<stop offset="0.487" stop-color="#FCFCFC"/>
<stop offset="0.791" stop-color="white"/>
<stop offset="0.841" stop-color="#FCFCFC"/>
<stop offset="0.882" stop-color="#F2F2F2"/>
<stop offset="0.919" stop-color="#E1E1E1"/>
<stop offset="0.954" stop-color="#C9C9C9"/>
<stop offset="0.966" stop-color="#BFBFBF"/>
<stop offset="1" stop-color="white"/>
</linearGradient>
<linearGradient id="paint53_linear_1430_27" x1="69.0785" y1="165.482" x2="231.989" y2="165.482" gradientUnits="userSpaceOnUse">
<stop stop-color="#DFDFDF"/>
<stop offset="0.021" stop-color="#E1E1E1"/>
<stop offset="0.244" stop-color="#F2F2F2"/>
<stop offset="0.487" stop-color="#FCFCFC"/>
<stop offset="0.791" stop-color="white"/>
<stop offset="0.841" stop-color="#FCFCFC"/>
<stop offset="0.882" stop-color="#F2F2F2"/>
<stop offset="0.919" stop-color="#E1E1E1"/>
<stop offset="0.954" stop-color="#C9C9C9"/>
<stop offset="0.966" stop-color="#BFBFBF"/>
<stop offset="1" stop-color="white"/>
</linearGradient>
<linearGradient id="paint54_linear_1430_27" x1="69.0787" y1="130.638" x2="231.989" y2="130.638" gradientUnits="userSpaceOnUse">
<stop stop-color="#DFDFDF"/>
<stop offset="0.021" stop-color="#E1E1E1"/>
<stop offset="0.244" stop-color="#F2F2F2"/>
<stop offset="0.487" stop-color="#FCFCFC"/>
<stop offset="0.791" stop-color="white"/>
<stop offset="0.841" stop-color="#FCFCFC"/>
<stop offset="0.882" stop-color="#F2F2F2"/>
<stop offset="0.919" stop-color="#E1E1E1"/>
<stop offset="0.954" stop-color="#C9C9C9"/>
<stop offset="0.966" stop-color="#BFBFBF"/>
<stop offset="1" stop-color="white"/>
</linearGradient>
<linearGradient id="paint55_linear_1430_27" x1="69.0785" y1="153.868" x2="231.989" y2="153.868" gradientUnits="userSpaceOnUse">
<stop stop-color="#DFDFDF"/>
<stop offset="0.021" stop-color="#E1E1E1"/>
<stop offset="0.244" stop-color="#F2F2F2"/>
<stop offset="0.487" stop-color="#FCFCFC"/>
<stop offset="0.791" stop-color="white"/>
<stop offset="0.841" stop-color="#FCFCFC"/>
<stop offset="0.882" stop-color="#F2F2F2"/>
<stop offset="0.919" stop-color="#E1E1E1"/>
<stop offset="0.954" stop-color="#C9C9C9"/>
<stop offset="0.966" stop-color="#BFBFBF"/>
<stop offset="1" stop-color="white"/>
</linearGradient>
<linearGradient id="paint56_linear_1430_27" x1="69.0785" y1="142.25" x2="231.989" y2="142.25" gradientUnits="userSpaceOnUse">
<stop stop-color="#DFDFDF"/>
<stop offset="0.021" stop-color="#E1E1E1"/>
<stop offset="0.244" stop-color="#F2F2F2"/>
<stop offset="0.487" stop-color="#FCFCFC"/>
<stop offset="0.791" stop-color="white"/>
<stop offset="0.841" stop-color="#FCFCFC"/>
<stop offset="0.882" stop-color="#F2F2F2"/>
<stop offset="0.919" stop-color="#E1E1E1"/>
<stop offset="0.954" stop-color="#C9C9C9"/>
<stop offset="0.966" stop-color="#BFBFBF"/>
<stop offset="1" stop-color="white"/>
</linearGradient>
</defs>
</svg>
