<svg width="256" height="256" viewBox="0 0 256 256" fill="none" xmlns="http://www.w3.org/2000/svg">
<path d="M254 128C254 197.588 197.588 254 128 254C58.4121 254 2 197.588 2 128C2 58.4121 58.4121 2 128 2C197.588 2 254 58.4121 254 128Z" fill="#303030"/>
<mask id="mask0_1420_252" style="mask-type:luminance" maskUnits="userSpaceOnUse" x="38" y="37" width="180" height="181">
<path d="M218 37.8926H38V217.178H218V37.8926Z" fill="white"/>
</mask>
<g mask="url(#mask0_1420_252)">
<path d="M111.316 170.698C115.816 187.283 131.962 199.933 140.116 199.409C140.402 199.391 171.043 193.7 187.816 165.793C200.866 144.069 196.427 123.098 178.672 122.641C172.286 123.105 102.746 139.11 111.321 170.703M177.016 64.1913L176.999 64.1755L177.023 64.1599C165.841 54.6863 152.199 48.5523 137.669 46.4643C123.139 44.3763 108.313 46.4195 94.898 52.3584C93.2011 53.0614 91.5482 53.8651 89.948 54.7653C88.8545 55.3457 87.761 55.9217 86.699 56.5582L86.9577 56.6388C83.8177 58.7679 81.0411 61.3851 78.734 64.3907C56.387 93.8137 131.344 115.209 171.425 115.272C189.855 128.454 195.03 78.1576 177.016 64.1913Z" fill="#0E3CA5"/>
<path d="M99.4249 64.7855C89.1266 80.2042 54.8254 91.0666 49.1846 89.3745L49.1464 89.3029C49.3714 88.839 49.6121 88.3751 49.8506 87.9156C55.7001 76.6938 64.0695 66.9672 74.3081 59.4922C76.4186 57.9502 78.6041 56.5092 80.8646 55.1692C84.34 53.2579 88.2331 52.2252 92.2024 52.1616C107.478 52.4529 99.5014 64.6668 99.4204 64.7901M90.9739 173.73C91.7141 178.574 90.9559 197.71 89.9614 199.319C89.1041 199.371 87.3199 199.48 82.1516 196.592C65.6487 187.213 52.9164 172.43 46.12 154.758C39.3235 137.085 38.8823 117.613 44.8714 99.6522C45.1459 98.8304 45.4331 98.0139 45.7331 97.2026C51.6529 105.046 58.5041 112.142 64.3271 120.062C69.8734 127.603 77.5031 139.898 79.0556 142.526C88.6946 158.834 90.2314 168.897 90.9671 173.733M204.925 125.506C204.938 135.789 202.998 145.983 199.21 155.549C189.535 165.903 124.322 140.415 123.682 140.135C114.761 136.242 87.6124 124.399 85.1621 105.797C81.6499 79.0163 136.167 60.3617 160.13 59.6558C163.004 59.6893 171.746 59.7902 176.845 63.9138C185.675 71.5835 192.75 81.0501 197.594 91.675C202.438 102.3 204.938 113.836 204.925 125.506ZM160.778 198.053C153.67 201.359 145.842 198.949 147.876 192.056C151.78 178.813 185.87 165.237 193.398 164.49C194.328 164.399 194.722 165.029 194.31 165.749C186.466 179.486 174.832 190.693 160.785 198.042" fill="#5493F7"/>
<path d="M77.006 211.026C76.9056 212.522 77.3984 213.996 78.3784 215.133C79.3583 216.271 80.7472 216.979 82.2463 217.106C151.322 217.577 218 214.417 218 204.108C218 172.903 77.006 211.026 77.006 211.026Z" fill="url(#paint0_linear_1420_252)"/>
<path d="M77.0059 211.026C76.904 212.526 77.3995 214.005 78.385 215.143C79.3706 216.281 80.7667 216.987 82.2709 217.106C151.328 217.629 217.916 215.468 218 204.108C218 172.903 77.0059 211.026 77.0059 211.026ZM82.2731 216.71C82.089 216.71 81.9049 216.699 81.7219 216.678C80.6692 216.532 79.6834 216.078 78.8881 215.376C78.0929 214.674 77.5234 213.753 77.2511 212.73C77.5464 213.839 78.1948 214.823 79.099 215.534C80.0031 216.246 81.1144 216.647 82.2664 216.676C151.276 216.246 216.918 195.081 216.918 204.4C216.918 213.911 151.281 217.178 82.2731 216.71Z" fill="url(#paint1_linear_1420_252)"/>
<path d="M82.2778 122.654C81.5852 122.654 80.8995 122.791 80.2598 123.054C79.6201 123.318 79.0388 123.705 78.5492 124.193C78.0597 124.682 77.6714 125.26 77.4066 125.898C77.1418 126.535 77.0057 127.218 77.006 127.908V211.026C77.0041 212.415 77.5545 213.747 78.5366 214.732C79.5188 215.717 80.8525 216.274 82.2462 216.282C151.316 215.766 218.084 192.995 218 204.113V110.488C218.084 99.3719 151.339 122.142 82.2778 122.654Z" fill="url(#paint2_linear_1420_252)"/>
<path d="M92.4613 180.024C94.9206 179.927 97.3303 179.824 99.6973 179.692C102.064 179.56 104.382 179.41 106.661 179.244C108.94 179.078 111.174 178.885 113.379 178.686C115.584 178.487 117.758 178.282 119.904 178.07C122.051 177.857 124.169 177.635 126.261 177.397C130.384 176.931 134.504 176.425 138.618 175.88C140.654 175.609 142.668 175.334 144.693 175.04C146.718 174.747 148.709 174.432 150.727 174.123C152.745 173.814 154.777 173.502 156.802 173.182C158.827 172.861 160.873 172.537 162.918 172.196C164.963 171.855 167.022 171.494 169.108 171.138C171.194 170.781 173.305 170.423 175.442 170.054C177.576 169.684 179.739 169.314 181.93 168.933C184.122 168.551 186.343 168.155 188.605 167.777C190.869 167.398 193.174 167.026 195.52 166.67C197.867 166.313 200.02 165.997 202.945 165.63C206.134 165.178 209.356 165.007 212.575 165.119C215.602 165.322 217.998 166.089 217.998 168.191V160.984C217.998 158.909 215.701 158.164 212.882 157.934C209.875 157.781 206.863 157.907 203.882 158.31C201.071 158.631 199.045 158.938 196.931 159.25C194.815 159.561 192.753 159.886 190.724 160.217C188.694 160.549 186.695 160.89 184.712 161.232C182.726 161.575 180.752 161.927 178.762 162.274C176.774 162.622 174.769 162.967 172.732 163.314L166.506 164.381C164.387 164.744 162.232 165.11 159.982 165.475C157.732 165.84 155.383 166.203 152.945 166.577C150.509 166.951 147.98 167.351 145.339 167.741V160.538C147.98 160.15 150.514 159.749 152.945 159.374C155.378 159 157.727 158.633 159.982 158.272C162.235 157.911 164.395 157.541 166.506 157.177C168.617 156.811 170.699 156.46 172.734 156.111L178.762 155.071L184.712 154.03C186.695 153.682 188.692 153.357 190.724 153.014C192.755 152.671 194.814 152.36 196.931 152.047C199.049 151.733 201.071 151.426 203.882 151.107C206.864 150.707 209.875 150.58 212.882 150.729C215.703 150.953 218 151.706 218 153.779V146.585C218 144.514 215.703 143.766 212.884 143.532C209.878 143.384 206.865 143.511 203.884 143.911C201.074 144.234 199.051 144.537 196.934 144.85C194.815 145.164 192.755 145.487 190.725 145.819C188.695 146.15 186.698 146.491 184.714 146.834C182.729 147.177 180.754 147.533 178.764 147.878L172.734 148.918C170.699 149.267 168.631 149.617 166.509 149.982C164.387 150.348 162.234 150.713 159.984 151.074C157.734 151.434 155.385 151.804 152.948 152.179C150.512 152.553 147.982 152.951 145.343 153.34V146.139C147.98 145.749 150.518 145.354 152.95 144.976C155.383 144.597 157.732 144.234 159.985 143.873C162.241 143.512 164.395 143.145 166.511 142.78L172.739 141.715C174.764 141.365 176.778 141.022 178.766 140.675L184.715 139.633C188.781 138.921 192.854 138.26 196.935 137.65C199.053 137.341 201.075 137.029 203.885 136.709C206.868 136.31 209.881 136.184 212.885 136.332C215.705 136.556 218.002 137.311 218.002 139.384V132.175C218.002 130.101 215.705 129.36 212.885 129.127C209.881 128.977 206.868 129.103 203.885 129.504C201.075 129.824 199.053 130.131 196.935 130.442C194.819 130.754 192.757 131.081 190.728 131.411C188.699 131.74 186.7 132.083 184.715 132.424L178.766 133.47L172.736 134.508C170.701 134.857 168.633 135.204 166.511 135.572C164.389 135.94 162.235 136.303 159.985 136.664C157.735 137.024 155.385 137.394 152.945 137.771C150.506 138.147 147.978 138.544 145.341 138.934V131.731C147.978 131.341 150.502 130.942 152.944 130.566C155.385 130.19 157.732 129.826 159.985 129.461C162.241 129.096 164.389 128.732 166.511 128.37L172.739 127.305C174.764 126.955 176.778 126.614 178.766 126.265C180.755 125.916 182.729 125.568 184.715 125.223C186.703 124.878 188.695 124.535 190.728 124.206C192.759 123.876 194.819 123.551 196.934 123.24C199.049 122.928 201.075 122.621 203.885 122.301C206.868 121.9 209.881 121.774 212.885 121.922C215.707 122.146 218.004 122.901 218.004 124.972V117.771C218.004 115.699 215.707 114.952 212.888 114.72C209.883 114.572 206.87 114.699 203.888 115.098C201.078 115.418 199.055 115.723 196.938 116.037C194.821 116.351 192.759 116.673 190.73 117.005C188.701 117.337 186.703 117.677 184.718 118.02C182.734 118.363 180.758 118.72 178.769 119.064C176.78 119.41 174.775 119.755 172.742 120.1L166.514 121.169C161.999 121.946 157.475 122.677 152.945 123.363C150.504 123.74 147.978 124.136 145.341 124.528V117.224C124.469 120.479 103.398 122.293 82.2756 122.654C81.583 122.654 80.8973 122.791 80.2576 123.054C79.6179 123.319 79.0366 123.706 78.547 124.194C78.0575 124.681 77.6692 125.26 77.4045 125.898C77.1396 126.535 77.0035 127.218 77.0038 127.908V180.349C79.7038 180.349 82.3318 180.315 84.9058 180.26C87.4798 180.203 89.9998 180.118 92.4613 180.024Z" fill="url(#paint3_linear_1420_252)"/>
<path d="M92.4499 194.43C94.9136 194.336 97.3211 194.228 99.6881 194.098C102.055 193.968 104.375 193.814 106.663 193.65C108.951 193.487 111.175 193.297 113.379 193.095C115.585 192.893 117.758 192.694 119.905 192.476C122.051 192.258 124.179 192.041 126.261 191.804C130.383 191.335 134.5 190.829 138.614 190.288C140.647 190.017 142.664 189.737 144.688 189.446C146.714 189.155 148.709 188.838 150.725 188.527C152.741 188.216 154.775 187.908 156.8 187.591C158.825 187.272 160.872 186.941 162.92 186.602C164.967 186.264 167.026 185.903 169.112 185.545L175.444 184.459C177.578 184.092 179.744 183.722 181.932 183.339C184.121 182.956 186.347 182.564 188.611 182.183C190.875 181.801 193.178 181.432 195.525 181.076C197.871 180.719 200.011 180.404 202.95 180.036C206.138 179.581 209.361 179.409 212.58 179.523C215.605 179.728 218.002 180.497 218.002 182.597V175.388C218.002 173.288 215.605 172.517 212.582 172.313C209.362 172.2 206.139 172.371 202.95 172.825C200.009 173.183 197.869 173.512 195.525 173.866C193.18 174.22 190.875 174.59 188.611 174.971C186.347 175.352 184.126 175.739 181.935 176.127C179.744 176.515 177.581 176.885 175.444 177.248C173.305 177.611 171.198 177.971 169.112 178.333C167.026 178.694 164.967 179.05 162.922 179.39C160.877 179.731 158.835 180.063 156.802 180.377L150.727 181.32C148.702 181.634 146.705 181.943 144.691 182.235C142.676 182.526 140.655 182.81 138.615 183.077C136.577 183.344 134.535 183.606 132.477 183.859C130.421 184.112 128.355 184.361 126.263 184.592C124.171 184.823 122.054 185.04 119.906 185.265C117.76 185.488 115.586 185.681 113.381 185.881C111.176 186.08 108.94 186.271 106.663 186.438C104.386 186.607 102.062 186.759 99.6881 186.887C97.3144 187.015 94.9114 187.125 92.4499 187.218C89.9884 187.312 87.4729 187.391 84.8966 187.442C82.3204 187.495 79.6946 187.537 76.9991 187.537V194.737C82.1508 194.721 87.3018 194.619 92.4499 194.43Z" fill="url(#paint4_linear_1420_252)"/>
<path d="M212.577 186.715C209.358 186.604 206.136 186.774 202.947 187.226C200.006 187.587 197.867 187.912 195.523 188.268C193.178 188.624 190.874 188.994 188.611 189.373C186.347 189.752 184.111 190.144 181.93 190.53C179.75 190.915 177.576 191.29 175.442 191.651L169.108 192.734C167.022 193.091 164.963 193.454 162.915 193.792C160.868 194.131 158.827 194.464 156.795 194.779C154.764 195.092 152.745 195.411 150.721 195.718C148.695 196.024 146.698 196.338 144.682 196.634C142.665 196.931 140.632 197.212 138.606 197.479C134.494 198.019 130.375 198.524 126.254 198.994C124.162 199.228 122.044 199.442 119.898 199.667C117.752 199.891 115.58 200.085 113.373 200.285C111.165 200.484 108.932 200.672 106.654 200.841C104.377 201.009 102.053 201.159 99.6792 201.289C92.1232 201.701 84.5575 201.918 76.9902 201.939V209.155C79.6902 209.155 82.3227 209.125 84.8877 209.065C87.4527 209.006 89.9704 208.931 92.4409 208.842C94.9047 208.747 97.3122 208.64 99.6792 208.51C102.046 208.38 104.366 208.225 106.654 208.062C108.943 207.898 111.168 207.703 113.373 207.506C115.578 207.308 117.749 207.104 119.898 206.89C122.046 206.674 124.173 206.454 126.254 206.218C128.335 205.98 130.414 205.738 132.471 205.482C134.527 205.227 136.57 204.973 138.604 204.702C140.638 204.431 142.654 204.153 144.679 203.86C146.704 203.566 148.7 203.25 150.718 202.943C152.736 202.636 154.768 202.32 156.794 202.002C158.818 201.683 160.864 201.356 162.914 201.013C164.963 200.671 167.024 200.314 169.11 199.955L175.442 198.873L181.928 197.752C184.119 197.37 186.345 196.974 188.611 196.596C190.876 196.218 193.175 195.845 195.523 195.489C197.869 195.132 200.022 194.817 202.947 194.452C206.136 194.001 209.358 193.831 212.577 193.941C215.604 194.141 218 194.909 218 197.011V189.788C218 187.686 215.604 186.924 212.577 186.715Z" fill="url(#paint5_linear_1420_252)"/>
<path d="M91.9998 172.841C94.2948 172.755 96.4999 172.659 98.6666 172.544C100.833 172.43 102.942 172.303 105.012 172.157C107.082 172.012 109.143 171.85 111.19 171.675C115.367 171.314 119.54 170.913 123.709 170.472C125.869 170.243 128.074 169.994 130.365 169.716C132.655 169.439 135.04 169.145 137.528 168.82C140.017 168.495 142.618 168.148 145.336 167.74V117.226C124.468 120.479 103.401 122.293 82.2821 122.654C81.5897 122.654 80.9039 122.79 80.2641 123.054C79.6245 123.318 79.0431 123.705 78.5537 124.193C78.0641 124.681 77.6758 125.259 77.411 125.897C77.1462 126.534 77.0101 127.217 77.0104 127.907V173.143C79.7441 173.143 82.3429 173.112 84.8336 173.056C87.3244 172.999 89.7026 172.924 91.9998 172.841Z" fill="url(#paint6_linear_1420_252)"/>
<path d="M93.2736 124.779C93.0149 125.584 92.8889 125.987 92.6323 126.796L90.5533 126.873L92.2341 128.047L91.5906 130.064C92.2656 129.546 92.6009 129.293 93.2736 128.773C93.9486 129.242 94.2771 129.47 94.9543 129.934C94.6933 129.149 94.5673 128.757 94.3109 127.971L95.9939 126.665C95.1613 126.705 94.7429 126.716 93.9126 126.754L93.2736 124.779Z" fill="url(#paint7_linear_1420_252)"/>
<path d="M99.281 149.628L98.6398 151.656L96.5563 151.759L98.2393 152.909C97.9828 153.718 97.8545 154.124 97.5958 154.926C98.2708 154.404 98.6083 154.139 99.281 153.608C99.956 154.056 100.294 154.28 100.969 154.742L100.323 152.788L102.01 151.455C101.176 151.508 100.759 151.533 99.9268 151.577L99.281 149.628Z" fill="url(#paint8_linear_1420_252)"/>
<path d="M99.9268 161.636L99.281 159.68L98.6398 161.71L96.5563 161.811C97.2313 162.272 97.5665 162.505 98.2393 162.96C97.9828 163.772 97.8545 164.175 97.5958 164.977C98.2708 164.451 98.6083 164.186 99.281 163.655C99.956 164.103 100.294 164.341 100.969 164.794L100.323 162.84L102.01 161.506C101.176 161.567 100.759 161.6 99.9268 161.636Z" fill="url(#paint9_linear_1420_252)"/>
<path d="M93.2711 144.882C93.0124 145.691 92.8841 146.09 92.6299 146.899C91.7974 146.933 91.3811 146.95 90.5509 146.976C91.2259 147.443 91.5567 147.681 92.2294 148.145L91.5904 150.162C92.2654 149.646 92.5984 149.384 93.2711 148.865C93.9461 149.33 94.2769 149.563 94.9541 150.03C94.6931 149.243 94.5649 148.851 94.3084 148.062L95.9937 146.757C95.1611 146.796 94.7427 146.816 93.9124 146.847L93.2711 144.882Z" fill="url(#paint10_linear_1420_252)"/>
<path d="M93.2689 154.933L92.6299 156.95C91.7975 156.976 91.3789 156.996 90.5487 157.026L92.2295 158.196L91.5882 160.213L93.2689 158.91L94.9542 160.073C94.6932 159.286 94.5649 158.896 94.3085 158.108C94.9835 157.59 95.3187 157.324 95.9937 156.802L93.9125 156.891L93.2689 154.933Z" fill="url(#paint11_linear_1420_252)"/>
<path d="M93.2734 134.831L92.6299 136.847L90.5509 136.924L92.2317 138.096L91.5904 140.112C92.2654 139.597 92.6007 139.337 93.2734 138.817C93.9484 139.284 94.2769 139.517 94.9541 139.981C94.6931 139.196 94.5649 138.801 94.3084 138.015L95.9937 136.709C95.1611 136.747 94.7449 136.767 93.9124 136.801C93.6581 136.01 93.5277 135.62 93.2734 134.831Z" fill="url(#paint12_linear_1420_252)"/>
<path d="M111.309 158.833L110.668 160.877C109.834 160.949 109.415 160.979 108.582 161.049C109.257 161.498 109.595 161.722 110.268 162.146L109.626 164.191L111.309 162.819L112.992 163.902C112.777 163.257 112.562 162.612 112.349 161.966L114.032 160.581C113.197 160.659 112.781 160.693 111.951 160.767C111.694 159.992 111.575 159.609 111.309 158.833Z" fill="url(#paint13_linear_1420_252)"/>
<path d="M99.281 139.577L98.6398 141.605C97.805 141.65 97.3888 141.667 96.5563 141.708L98.2393 142.856L97.5958 144.884L99.281 143.564C99.956 144.012 100.294 144.237 100.969 144.697C100.712 143.917 100.579 143.526 100.323 142.741L102.01 141.413C101.176 141.462 100.759 141.491 99.9268 141.534L99.281 139.577Z" fill="url(#paint14_linear_1420_252)"/>
<path d="M105.3 154.278L104.654 156.318L102.575 156.446L104.262 157.566L103.619 159.598L105.304 158.254L106.989 159.361L106.346 157.416C107.021 156.876 107.356 156.603 108.029 156.058L105.948 156.215C105.727 155.571 105.511 154.926 105.3 154.278Z" fill="url(#paint15_linear_1420_252)"/>
<path d="M105.95 166.277L105.306 164.332L104.661 166.369C103.83 166.427 103.412 166.452 102.577 166.506L104.265 167.627L103.621 169.666C104.296 169.13 104.631 168.854 105.306 168.32C105.981 168.769 106.317 168.994 106.992 169.43L106.348 167.485C107.023 166.943 107.358 166.674 108.032 166.127L105.95 166.277Z" fill="url(#paint16_linear_1420_252)"/>
<path d="M99.281 129.525L98.6398 131.542C97.805 131.588 97.3888 131.605 96.5563 131.648L98.2393 132.798C97.9828 133.609 97.8545 134.015 97.5958 134.815C98.2708 134.288 98.6083 134.025 99.281 133.495C99.956 133.942 100.294 134.167 100.969 134.631L100.323 132.674C100.998 132.145 101.333 131.874 102.01 131.342C101.176 131.392 100.759 131.419 99.9268 131.464L99.281 129.525Z" fill="url(#paint17_linear_1420_252)"/>
<path d="M105.295 144.229L104.654 146.267C103.819 146.32 103.407 146.351 102.573 146.401L104.258 147.521L103.612 149.558L105.3 148.214L106.985 149.321L106.341 147.374L108.024 146.028L105.943 146.186L105.295 144.229Z" fill="url(#paint18_linear_1420_252)"/>
<path d="M93.9125 166.953L93.2689 164.986L92.6277 167.003L90.5487 167.082C91.2237 167.546 91.5567 167.785 92.2295 168.252L91.5882 170.269L93.2689 168.971L94.9542 170.136L94.3085 168.171L95.9937 166.864L93.9125 166.953Z" fill="url(#paint19_linear_1420_252)"/>
<path d="M81.2404 145.209L80.5946 147.211C79.7599 147.211 79.3414 147.211 78.5089 147.224C79.1839 147.713 79.5214 147.959 80.1964 148.443L79.5506 150.444L81.2381 149.192C81.9131 149.678 82.2506 149.916 82.9256 150.4L82.2844 148.419L83.9696 147.157C83.1349 147.17 82.7186 147.183 81.8839 147.193L81.2404 145.209Z" fill="url(#paint20_linear_1420_252)"/>
<path d="M81.2404 135.154L80.5946 137.154C79.7599 137.154 79.3414 137.165 78.5089 137.167L80.1964 138.387L79.5529 140.388L81.2404 139.14L82.9256 140.344L82.2844 138.36C82.9594 137.857 83.2946 137.609 83.9696 137.1C83.1371 137.116 82.7186 137.123 81.8839 137.134L81.2404 135.154Z" fill="url(#paint21_linear_1420_252)"/>
<path d="M81.8749 167.297L81.2292 165.313L80.5834 167.31C79.7486 167.322 79.3324 167.323 78.4999 167.328L80.1874 168.545L79.5439 170.549L81.2292 169.298L82.9166 170.506C82.7011 169.843 82.4866 169.181 82.2732 168.518L83.9584 167.259C83.1327 167.279 82.7186 167.281 81.8749 167.297Z" fill="url(#paint22_linear_1420_252)"/>
<path d="M103.612 139.508L105.295 138.163C105.97 138.611 106.31 138.835 106.983 139.272L106.342 137.325L108.025 135.964C107.19 136.031 106.776 136.063 105.943 136.124L105.298 134.181L104.654 136.213C103.824 136.271 103.405 136.296 102.571 136.352L104.258 137.473L103.612 139.508Z" fill="url(#paint23_linear_1420_252)"/>
<path d="M103.612 129.454C104.287 128.918 104.625 128.649 105.298 128.109C105.973 128.558 106.31 128.782 106.983 129.216L106.342 127.272C107.017 126.732 107.351 126.458 108.025 125.914C107.19 125.981 106.776 126.009 105.943 126.07L105.298 124.123L104.654 126.16C103.824 126.22 103.405 126.247 102.571 126.298L104.258 127.419L103.612 129.454Z" fill="url(#paint24_linear_1420_252)"/>
<path d="M81.2404 155.261L80.5924 157.262H78.5089L80.1964 158.488L79.5506 160.484L81.2381 159.234L82.9256 160.44L82.2844 158.456L83.9674 157.197C83.1349 157.212 82.7186 157.219 81.8839 157.231L81.2404 155.261Z" fill="url(#paint25_linear_1420_252)"/>
<path d="M87.2614 130.001L86.6179 132.007C85.7854 132.027 85.3691 132.041 84.5321 132.058L86.2196 133.254L85.5761 135.27L87.2614 133.993L88.9489 135.176L88.3031 133.202L89.9884 131.915L87.9094 131.981C87.6484 131.191 87.5201 130.797 87.2614 130.001Z" fill="url(#paint26_linear_1420_252)"/>
<path d="M87.2614 140.058L86.6179 142.076L84.5321 142.125C85.2071 142.604 85.5446 142.84 86.2196 143.315C85.9609 144.117 85.8326 144.523 85.5761 145.332C86.2511 144.82 86.5864 144.57 87.2591 144.057C87.9341 144.532 88.2739 144.765 88.9489 145.236L88.3031 143.263L89.9884 141.979L87.9049 142.044C87.6461 141.242 87.5201 140.85 87.2614 140.058Z" fill="url(#paint27_linear_1420_252)"/>
<path d="M87.9027 162.135L87.2592 160.161L86.6157 162.178C85.7809 162.2 85.3624 162.208 84.5277 162.228L86.2174 163.419L85.5717 165.436L87.2569 164.161L88.9467 165.344L88.3009 163.37L89.9862 162.084L87.9027 162.135Z" fill="url(#paint28_linear_1420_252)"/>
<path d="M87.2591 150.109L86.6156 152.127C85.7831 152.147 85.3646 152.16 84.5321 152.174L86.2174 153.368C85.9586 154.17 85.8304 154.576 85.5739 155.386L87.2591 154.108L88.9466 155.291C88.6901 154.502 88.5619 154.108 88.3009 153.319C88.9759 152.808 89.3156 152.546 89.9884 152.03C89.1536 152.057 88.7374 152.076 87.9049 152.099L87.2591 150.109Z" fill="url(#paint29_linear_1420_252)"/>
<path d="M81.2404 125.102L80.5969 127.104C79.7621 127.104 79.3414 127.117 78.5089 127.121C79.1839 127.61 79.5236 127.857 80.1964 128.337L79.5529 130.335L81.2404 129.091C81.9154 129.575 82.2529 129.813 82.9279 130.292L82.2866 128.311L83.9741 127.049C83.1394 127.067 82.7186 127.077 81.8839 127.087L81.2404 125.102Z" fill="url(#paint30_linear_1420_252)"/>
<path d="M111.309 148.784L110.668 150.827C109.834 150.899 109.419 150.93 108.585 150.997C109.26 151.446 109.595 151.656 110.268 152.092L109.626 154.14C110.302 153.593 110.636 153.316 111.309 152.766L112.993 153.848L112.349 151.915L114.032 150.53C113.197 150.608 112.781 150.642 111.951 150.716C111.695 149.946 111.575 149.559 111.309 148.784Z" fill="url(#paint31_linear_1420_252)"/>
<path d="M135.353 146.215L134.707 148.288L132.622 148.549L134.306 149.572L133.661 151.645L135.351 150.201C136.025 150.605 136.363 150.811 137.039 151.217L136.392 149.308L138.082 147.856L135.996 148.126L135.353 146.215Z" fill="url(#paint32_linear_1420_252)"/>
<path d="M135.353 136.164C135.094 136.996 134.963 137.406 134.707 138.237C133.872 138.343 133.454 138.396 132.622 138.495C133.296 138.909 133.634 139.111 134.309 139.522L133.665 141.593C134.341 141.013 134.678 140.729 135.353 140.149L137.041 141.163L136.395 139.256L138.084 137.803C137.252 137.91 136.832 137.968 135.999 138.073L135.353 136.164Z" fill="url(#paint33_linear_1420_252)"/>
<path d="M135.994 158.176L135.351 156.267L134.705 158.342C133.872 158.443 133.454 158.501 132.622 158.6L134.306 159.624L133.661 161.697L135.349 160.254C136.023 160.659 136.363 160.861 137.035 161.269L136.392 159.362L138.08 157.907L135.994 158.176Z" fill="url(#paint34_linear_1420_252)"/>
<path d="M129.35 131.874C129.095 132.702 128.97 133.116 128.711 133.945L126.636 134.182L128.315 135.221L127.675 137.289C128.351 136.719 128.679 136.432 129.35 135.862L131.031 136.89L130.387 134.976L132.075 133.539L129.992 133.792C129.769 133.156 129.555 132.517 129.35 131.874Z" fill="url(#paint35_linear_1420_252)"/>
<path d="M135.355 126.11L134.707 128.183C133.872 128.288 133.456 128.34 132.622 128.441L134.312 129.467L133.665 131.542C134.341 130.966 134.678 130.671 135.353 130.094L137.043 131.114C136.829 130.477 136.613 129.84 136.397 129.202C137.072 128.627 137.412 128.329 138.086 127.748L135.999 128.02L135.355 126.11Z" fill="url(#paint36_linear_1420_252)"/>
<path d="M129.35 121.826C129.095 122.65 128.97 123.067 128.711 123.894L126.636 124.131C127.312 124.544 127.646 124.755 128.315 125.169L127.675 127.236C128.351 126.666 128.679 126.379 129.35 125.808L131.033 126.836L130.389 124.925C131.065 124.349 131.397 124.062 132.075 123.489L129.992 123.741C129.769 123.106 129.555 122.467 129.35 121.826Z" fill="url(#paint37_linear_1420_252)"/>
<path d="M141.375 140.395L140.729 142.477C139.895 142.589 139.479 142.647 138.647 142.755L140.332 143.76L139.686 145.84L141.372 144.379L143.055 145.377C142.795 144.617 142.67 144.237 142.414 143.474C143.089 142.887 143.422 142.596 144.092 142.004C143.262 142.125 142.848 142.179 142.017 142.298L141.375 140.395Z" fill="url(#paint38_linear_1420_252)"/>
<path d="M141.378 130.344L140.733 132.421C139.9 132.538 139.485 132.591 138.649 132.704C139.325 133.109 139.659 133.305 140.332 133.705L139.688 135.789L141.376 134.324L143.057 135.326C142.798 134.564 142.672 134.183 142.415 133.419C143.091 132.831 143.424 132.54 144.095 131.951L142.02 132.245L141.378 130.344Z" fill="url(#paint39_linear_1420_252)"/>
<path d="M142.008 162.402L141.367 160.499L140.722 162.579C139.892 162.694 139.473 162.749 138.643 162.859L140.325 163.866L139.68 165.95C140.355 165.367 140.695 165.069 141.367 164.482L143.048 165.484L142.405 163.578L144.085 162.108C143.255 162.23 142.85 162.287 142.008 162.402Z" fill="url(#paint40_linear_1420_252)"/>
<path d="M141.381 120.288L140.735 122.37C139.903 122.484 139.485 122.543 138.649 122.653L140.339 123.656L139.691 125.734L141.381 124.275C142.055 124.674 142.388 124.876 143.061 125.27C142.805 124.51 142.675 124.129 142.42 123.367C143.095 122.78 143.425 122.489 144.096 121.897C143.268 122.018 142.855 122.078 142.025 122.193L141.381 120.288Z" fill="url(#paint41_linear_1420_252)"/>
<path d="M141.372 150.448L140.725 152.527L138.645 152.805L140.328 153.814L139.685 155.892L141.369 154.432L143.05 155.427L142.409 153.525C143.085 152.937 143.417 152.646 144.088 152.055C143.259 152.178 142.844 152.234 142.011 152.348L141.372 150.448Z" fill="url(#paint42_linear_1420_252)"/>
<path d="M129.35 141.929C129.095 142.756 128.97 143.169 128.711 143.997L126.634 144.237C127.309 144.651 127.644 144.864 128.315 145.276L127.675 147.343L129.35 145.913L131.033 146.944L130.389 145.029C131.064 144.456 131.397 144.167 132.075 143.593C131.24 143.696 130.819 143.746 129.992 143.844L129.35 141.929Z" fill="url(#paint43_linear_1420_252)"/>
<path d="M111.309 128.677L110.668 130.721C109.834 130.792 109.415 130.828 108.582 130.893L110.268 131.991L109.626 134.037C110.302 133.491 110.636 133.21 111.309 132.661C111.985 133.109 112.317 133.314 112.992 133.746L112.349 131.812C113.024 131.261 113.359 130.976 114.032 130.424L111.951 130.613C111.694 129.835 111.575 129.452 111.309 128.677Z" fill="url(#paint44_linear_1420_252)"/>
<path d="M117.322 153.256L116.678 155.31C115.845 155.389 115.427 155.43 114.592 155.504L116.28 156.577L115.634 158.632L117.322 157.24C117.996 157.67 118.334 157.881 119.009 158.309L118.363 156.382C119.039 155.827 119.373 155.544 120.049 154.984L117.967 155.19C117.709 154.427 117.578 154.031 117.322 153.256Z" fill="url(#paint45_linear_1420_252)"/>
<path d="M129.35 151.979L128.711 154.048C127.881 154.144 127.466 154.196 126.634 154.287C127.309 154.707 127.642 154.915 128.315 155.327L127.673 157.391C128.349 156.822 128.679 156.537 129.35 155.966L131.031 156.994L130.389 155.083C131.064 154.507 131.397 154.218 132.075 153.644C131.24 153.747 130.819 153.794 129.992 153.895C129.769 153.26 129.554 152.621 129.35 151.979Z" fill="url(#paint46_linear_1420_252)"/>
<path d="M117.322 133.154L116.678 135.207L114.592 135.403L116.28 136.475L115.634 138.531C116.309 137.973 116.649 137.697 117.322 137.139C117.996 137.567 118.334 137.777 119.009 138.208C118.75 137.434 118.62 137.05 118.365 136.276C119.041 135.718 119.375 135.443 120.051 134.88L117.967 135.084L117.322 133.154Z" fill="url(#paint47_linear_1420_252)"/>
<path d="M117.322 163.31L116.678 165.363C115.845 165.443 115.427 165.481 114.592 165.558L116.28 166.631L115.634 168.689L117.322 167.294L119.009 168.366L118.363 166.434C119.039 165.879 119.373 165.598 120.049 165.038L117.967 165.24L117.322 163.31Z" fill="url(#paint48_linear_1420_252)"/>
<path d="M111.309 138.741L110.668 140.787C109.834 140.857 109.419 140.892 108.585 140.957C109.26 141.406 109.595 141.63 110.268 142.054L109.626 144.099L111.309 142.726C111.985 143.16 112.318 143.377 112.993 143.807L112.349 141.874L114.032 140.489C113.197 140.567 112.781 140.601 111.951 140.677L111.309 138.741Z" fill="url(#paint49_linear_1420_252)"/>
<path d="M117.323 123.101L116.678 125.156C115.845 125.236 115.427 125.272 114.592 125.349L116.278 126.424L115.634 128.475L117.323 127.085C117.999 127.509 118.332 127.729 119.009 128.154L118.365 126.225C119.041 125.67 119.375 125.386 120.053 124.826C119.219 124.91 118.802 124.954 117.967 125.033L117.323 123.101Z" fill="url(#paint50_linear_1420_252)"/>
<path d="M117.322 143.206L116.678 145.258L114.592 145.464L116.28 146.54L115.636 148.595L117.322 147.202L119.009 148.27L118.365 146.341L120.051 144.942C119.219 145.027 118.802 145.068 117.967 145.149C117.711 144.362 117.58 143.981 117.322 143.206Z" fill="url(#paint51_linear_1420_252)"/>
<path d="M129.98 163.95C129.724 163.186 129.598 162.799 129.338 162.032L128.7 164.1C127.869 164.202 127.455 164.244 126.623 164.339L128.302 165.379L127.662 167.447C128.337 166.878 128.668 166.586 129.338 166.015C130.014 166.429 130.349 166.638 131.022 167.048L130.378 165.134L132.064 163.695L129.98 163.95Z" fill="url(#paint52_linear_1420_252)"/>
<path d="M123.981 159.6L123.338 157.675L122.692 159.739L120.611 159.964L122.296 161.024L121.653 163.083L123.34 161.674L125.024 162.727L124.377 160.804C125.052 160.239 125.39 159.952 126.063 159.383C125.23 159.466 124.814 159.513 123.981 159.6Z" fill="url(#paint53_linear_1420_252)"/>
<path d="M123.34 127.522L122.696 129.581C121.865 129.671 121.445 129.707 120.614 129.806L122.298 130.867L121.655 132.927L123.342 131.517L125.025 132.569L124.38 130.648L126.065 129.23L123.984 129.454L123.34 127.522Z" fill="url(#paint54_linear_1420_252)"/>
<path d="M123.338 147.627L122.694 149.687L120.611 149.911L122.298 150.969L121.655 153.028L123.34 151.623L125.025 152.67L124.38 150.751L126.065 149.333C125.232 149.422 124.814 149.471 123.984 149.557L123.338 147.627Z" fill="url(#paint55_linear_1420_252)"/>
<path d="M123.34 137.573C123.084 138.4 122.954 138.808 122.694 139.635C121.864 139.725 121.444 139.763 120.611 139.848L122.298 140.906L121.655 142.966L123.34 141.56L125.025 142.609L124.38 140.689C125.055 140.123 125.392 139.837 126.065 139.27C125.235 139.364 124.816 139.406 123.984 139.494L123.34 137.573Z" fill="url(#paint56_linear_1420_252)"/>
</g>
<defs>
<linearGradient id="paint0_linear_1420_252" x1="77.006" y1="204.491" x2="218" y2="204.491" gradientUnits="userSpaceOnUse">
<stop stop-color="#600000"/>
<stop offset="0.327" stop-color="#630000"/>
<stop offset="0.59" stop-color="#6D0000"/>
<stop offset="0.83" stop-color="#7E0000"/>
<stop offset="1" stop-color="#8F0000"/>
</linearGradient>
<linearGradient id="paint1_linear_1420_252" x1="147.502" y1="191.832" x2="147.502" y2="217.178" gradientUnits="userSpaceOnUse">
<stop offset="0.35" stop-color="#BF1010"/>
<stop offset="0.645" stop-color="#BD1010"/>
<stop offset="0.752" stop-color="#B60F0F"/>
<stop offset="0.828" stop-color="#AB0D0D"/>
<stop offset="0.889" stop-color="#9A0A0A"/>
<stop offset="0.941" stop-color="#840606"/>
<stop offset="0.987" stop-color="#690202"/>
<stop offset="1" stop-color="#600000"/>
</linearGradient>
<linearGradient id="paint2_linear_1420_252" x1="77.006" y1="161.855" x2="218" y2="161.855" gradientUnits="userSpaceOnUse">
<stop stop-color="#BF1010"/>
<stop offset="0.021" stop-color="#C11212"/>
<stop offset="0.244" stop-color="#D22323"/>
<stop offset="0.487" stop-color="#DC2D2D"/>
<stop offset="0.791" stop-color="#DF3030"/>
<stop offset="0.841" stop-color="#DC2E2E"/>
<stop offset="0.882" stop-color="#D22626"/>
<stop offset="0.919" stop-color="#C11919"/>
<stop offset="0.954" stop-color="#A90808"/>
<stop offset="0.966" stop-color="#9F0000"/>
<stop offset="1" stop-color="#DF3030"/>
</linearGradient>
<linearGradient id="paint3_linear_1420_252" x1="77.006" y1="147.492" x2="218" y2="147.492" gradientUnits="userSpaceOnUse">
<stop stop-color="#DFDFDF"/>
<stop offset="0.021" stop-color="#E1E1E1"/>
<stop offset="0.244" stop-color="#F2F2F2"/>
<stop offset="0.487" stop-color="#FCFCFC"/>
<stop offset="0.791" stop-color="white"/>
<stop offset="0.841" stop-color="#FCFCFC"/>
<stop offset="0.882" stop-color="#F2F2F2"/>
<stop offset="0.919" stop-color="#E1E1E1"/>
<stop offset="0.954" stop-color="#C9C9C9"/>
<stop offset="0.966" stop-color="#BFBFBF"/>
<stop offset="1" stop-color="white"/>
</linearGradient>
<linearGradient id="paint4_linear_1420_252" x1="77.0059" y1="183.503" x2="218" y2="183.503" gradientUnits="userSpaceOnUse">
<stop stop-color="#DFDFDF"/>
<stop offset="0.021" stop-color="#E1E1E1"/>
<stop offset="0.244" stop-color="#F2F2F2"/>
<stop offset="0.487" stop-color="#FCFCFC"/>
<stop offset="0.791" stop-color="white"/>
<stop offset="0.841" stop-color="#FCFCFC"/>
<stop offset="0.882" stop-color="#F2F2F2"/>
<stop offset="0.919" stop-color="#E1E1E1"/>
<stop offset="0.954" stop-color="#C9C9C9"/>
<stop offset="0.966" stop-color="#BFBFBF"/>
<stop offset="1" stop-color="white"/>
</linearGradient>
<linearGradient id="paint5_linear_1420_252" x1="77.0059" y1="197.908" x2="218" y2="197.908" gradientUnits="userSpaceOnUse">
<stop stop-color="#DFDFDF"/>
<stop offset="0.021" stop-color="#E1E1E1"/>
<stop offset="0.244" stop-color="#F2F2F2"/>
<stop offset="0.487" stop-color="#FCFCFC"/>
<stop offset="0.791" stop-color="white"/>
<stop offset="0.841" stop-color="#FCFCFC"/>
<stop offset="0.882" stop-color="#F2F2F2"/>
<stop offset="0.919" stop-color="#E1E1E1"/>
<stop offset="0.954" stop-color="#C9C9C9"/>
<stop offset="0.966" stop-color="#BFBFBF"/>
<stop offset="1" stop-color="white"/>
</linearGradient>
<linearGradient id="paint6_linear_1420_252" x1="77.0059" y1="145.184" x2="218" y2="145.184" gradientUnits="userSpaceOnUse">
<stop stop-color="#00209F"/>
<stop offset="0.021" stop-color="#0222A1"/>
<stop offset="0.244" stop-color="#1333B2"/>
<stop offset="0.487" stop-color="#1D3DBC"/>
<stop offset="0.791" stop-color="#2040BF"/>
<stop offset="0.841" stop-color="#1E3DBC"/>
<stop offset="0.882" stop-color="#1933B2"/>
<stop offset="0.919" stop-color="#1122A1"/>
<stop offset="0.954" stop-color="#050A89"/>
<stop offset="0.966" stop-color="#00007F"/>
<stop offset="1" stop-color="#2040BF"/>
</linearGradient>
<linearGradient id="paint7_linear_1420_252" x1="77.0083" y1="127.417" x2="217.993" y2="127.417" gradientUnits="userSpaceOnUse">
<stop stop-color="#DFDFDF"/>
<stop offset="0.021" stop-color="#E1E1E1"/>
<stop offset="0.244" stop-color="#F2F2F2"/>
<stop offset="0.487" stop-color="#FCFCFC"/>
<stop offset="0.791" stop-color="white"/>
<stop offset="0.841" stop-color="#FCFCFC"/>
<stop offset="0.882" stop-color="#F2F2F2"/>
<stop offset="0.919" stop-color="#E1E1E1"/>
<stop offset="0.954" stop-color="#C9C9C9"/>
<stop offset="0.966" stop-color="#BFBFBF"/>
<stop offset="1" stop-color="white"/>
</linearGradient>
<linearGradient id="paint8_linear_1420_252" x1="77.0083" y1="152.281" x2="217.986" y2="152.281" gradientUnits="userSpaceOnUse">
<stop stop-color="#DFDFDF"/>
<stop offset="0.021" stop-color="#E1E1E1"/>
<stop offset="0.244" stop-color="#F2F2F2"/>
<stop offset="0.487" stop-color="#FCFCFC"/>
<stop offset="0.791" stop-color="white"/>
<stop offset="0.841" stop-color="#FCFCFC"/>
<stop offset="0.882" stop-color="#F2F2F2"/>
<stop offset="0.919" stop-color="#E1E1E1"/>
<stop offset="0.954" stop-color="#C9C9C9"/>
<stop offset="0.966" stop-color="#BFBFBF"/>
<stop offset="1" stop-color="white"/>
</linearGradient>
<linearGradient id="paint9_linear_1420_252" x1="77.0083" y1="162.333" x2="217.986" y2="162.333" gradientUnits="userSpaceOnUse">
<stop stop-color="#DFDFDF"/>
<stop offset="0.021" stop-color="#E1E1E1"/>
<stop offset="0.244" stop-color="#F2F2F2"/>
<stop offset="0.487" stop-color="#FCFCFC"/>
<stop offset="0.791" stop-color="white"/>
<stop offset="0.841" stop-color="#FCFCFC"/>
<stop offset="0.882" stop-color="#F2F2F2"/>
<stop offset="0.919" stop-color="#E1E1E1"/>
<stop offset="0.954" stop-color="#C9C9C9"/>
<stop offset="0.966" stop-color="#BFBFBF"/>
<stop offset="1" stop-color="white"/>
</linearGradient>
<linearGradient id="paint10_linear_1420_252" x1="77.0081" y1="147.524" x2="217.992" y2="147.524" gradientUnits="userSpaceOnUse">
<stop stop-color="#DFDFDF"/>
<stop offset="0.021" stop-color="#E1E1E1"/>
<stop offset="0.244" stop-color="#F2F2F2"/>
<stop offset="0.487" stop-color="#FCFCFC"/>
<stop offset="0.791" stop-color="white"/>
<stop offset="0.841" stop-color="#FCFCFC"/>
<stop offset="0.882" stop-color="#F2F2F2"/>
<stop offset="0.919" stop-color="#E1E1E1"/>
<stop offset="0.954" stop-color="#C9C9C9"/>
<stop offset="0.966" stop-color="#BFBFBF"/>
<stop offset="1" stop-color="white"/>
</linearGradient>
<linearGradient id="paint11_linear_1420_252" x1="77.0082" y1="157.573" x2="217.994" y2="157.573" gradientUnits="userSpaceOnUse">
<stop stop-color="#DFDFDF"/>
<stop offset="0.021" stop-color="#E1E1E1"/>
<stop offset="0.244" stop-color="#F2F2F2"/>
<stop offset="0.487" stop-color="#FCFCFC"/>
<stop offset="0.791" stop-color="white"/>
<stop offset="0.841" stop-color="#FCFCFC"/>
<stop offset="0.882" stop-color="#F2F2F2"/>
<stop offset="0.919" stop-color="#E1E1E1"/>
<stop offset="0.954" stop-color="#C9C9C9"/>
<stop offset="0.966" stop-color="#BFBFBF"/>
<stop offset="1" stop-color="white"/>
</linearGradient>
<linearGradient id="paint12_linear_1420_252" x1="77.0081" y1="137.471" x2="217.992" y2="137.471" gradientUnits="userSpaceOnUse">
<stop stop-color="#DFDFDF"/>
<stop offset="0.021" stop-color="#E1E1E1"/>
<stop offset="0.244" stop-color="#F2F2F2"/>
<stop offset="0.487" stop-color="#FCFCFC"/>
<stop offset="0.791" stop-color="white"/>
<stop offset="0.841" stop-color="#FCFCFC"/>
<stop offset="0.882" stop-color="#F2F2F2"/>
<stop offset="0.919" stop-color="#E1E1E1"/>
<stop offset="0.954" stop-color="#C9C9C9"/>
<stop offset="0.966" stop-color="#BFBFBF"/>
<stop offset="1" stop-color="white"/>
</linearGradient>
<linearGradient id="paint13_linear_1420_252" x1="76.9992" y1="161.513" x2="218.02" y2="161.513" gradientUnits="userSpaceOnUse">
<stop stop-color="#DFDFDF"/>
<stop offset="0.021" stop-color="#E1E1E1"/>
<stop offset="0.244" stop-color="#F2F2F2"/>
<stop offset="0.487" stop-color="#FCFCFC"/>
<stop offset="0.791" stop-color="white"/>
<stop offset="0.841" stop-color="#FCFCFC"/>
<stop offset="0.882" stop-color="#F2F2F2"/>
<stop offset="0.919" stop-color="#E1E1E1"/>
<stop offset="0.954" stop-color="#C9C9C9"/>
<stop offset="0.966" stop-color="#BFBFBF"/>
<stop offset="1" stop-color="white"/>
</linearGradient>
<linearGradient id="paint14_linear_1420_252" x1="77.0083" y1="142.231" x2="217.986" y2="142.231" gradientUnits="userSpaceOnUse">
<stop stop-color="#DFDFDF"/>
<stop offset="0.021" stop-color="#E1E1E1"/>
<stop offset="0.244" stop-color="#F2F2F2"/>
<stop offset="0.487" stop-color="#FCFCFC"/>
<stop offset="0.791" stop-color="white"/>
<stop offset="0.841" stop-color="#FCFCFC"/>
<stop offset="0.882" stop-color="#F2F2F2"/>
<stop offset="0.919" stop-color="#E1E1E1"/>
<stop offset="0.954" stop-color="#C9C9C9"/>
<stop offset="0.966" stop-color="#BFBFBF"/>
<stop offset="1" stop-color="white"/>
</linearGradient>
<linearGradient id="paint15_linear_1420_252" x1="77.0083" y1="156.946" x2="217.986" y2="156.946" gradientUnits="userSpaceOnUse">
<stop stop-color="#DFDFDF"/>
<stop offset="0.021" stop-color="#E1E1E1"/>
<stop offset="0.244" stop-color="#F2F2F2"/>
<stop offset="0.487" stop-color="#FCFCFC"/>
<stop offset="0.791" stop-color="white"/>
<stop offset="0.841" stop-color="#FCFCFC"/>
<stop offset="0.882" stop-color="#F2F2F2"/>
<stop offset="0.919" stop-color="#E1E1E1"/>
<stop offset="0.954" stop-color="#C9C9C9"/>
<stop offset="0.966" stop-color="#BFBFBF"/>
<stop offset="1" stop-color="white"/>
</linearGradient>
<linearGradient id="paint16_linear_1420_252" x1="77.0082" y1="166.998" x2="217.986" y2="166.998" gradientUnits="userSpaceOnUse">
<stop stop-color="#DFDFDF"/>
<stop offset="0.021" stop-color="#E1E1E1"/>
<stop offset="0.244" stop-color="#F2F2F2"/>
<stop offset="0.487" stop-color="#FCFCFC"/>
<stop offset="0.791" stop-color="white"/>
<stop offset="0.841" stop-color="#FCFCFC"/>
<stop offset="0.882" stop-color="#F2F2F2"/>
<stop offset="0.919" stop-color="#E1E1E1"/>
<stop offset="0.954" stop-color="#C9C9C9"/>
<stop offset="0.966" stop-color="#BFBFBF"/>
<stop offset="1" stop-color="white"/>
</linearGradient>
<linearGradient id="paint17_linear_1420_252" x1="77.0083" y1="132.177" x2="217.986" y2="132.177" gradientUnits="userSpaceOnUse">
<stop stop-color="#DFDFDF"/>
<stop offset="0.021" stop-color="#E1E1E1"/>
<stop offset="0.244" stop-color="#F2F2F2"/>
<stop offset="0.487" stop-color="#FCFCFC"/>
<stop offset="0.791" stop-color="white"/>
<stop offset="0.841" stop-color="#FCFCFC"/>
<stop offset="0.882" stop-color="#F2F2F2"/>
<stop offset="0.919" stop-color="#E1E1E1"/>
<stop offset="0.954" stop-color="#C9C9C9"/>
<stop offset="0.966" stop-color="#BFBFBF"/>
<stop offset="1" stop-color="white"/>
</linearGradient>
<linearGradient id="paint18_linear_1420_252" x1="77.0082" y1="146.894" x2="217.991" y2="146.894" gradientUnits="userSpaceOnUse">
<stop stop-color="#DFDFDF"/>
<stop offset="0.021" stop-color="#E1E1E1"/>
<stop offset="0.244" stop-color="#F2F2F2"/>
<stop offset="0.487" stop-color="#FCFCFC"/>
<stop offset="0.791" stop-color="white"/>
<stop offset="0.841" stop-color="#FCFCFC"/>
<stop offset="0.882" stop-color="#F2F2F2"/>
<stop offset="0.919" stop-color="#E1E1E1"/>
<stop offset="0.954" stop-color="#C9C9C9"/>
<stop offset="0.966" stop-color="#BFBFBF"/>
<stop offset="1" stop-color="white"/>
</linearGradient>
<linearGradient id="paint19_linear_1420_252" x1="77.0082" y1="167.629" x2="217.994" y2="167.629" gradientUnits="userSpaceOnUse">
<stop stop-color="#DFDFDF"/>
<stop offset="0.021" stop-color="#E1E1E1"/>
<stop offset="0.244" stop-color="#F2F2F2"/>
<stop offset="0.487" stop-color="#FCFCFC"/>
<stop offset="0.791" stop-color="white"/>
<stop offset="0.841" stop-color="#FCFCFC"/>
<stop offset="0.882" stop-color="#F2F2F2"/>
<stop offset="0.919" stop-color="#E1E1E1"/>
<stop offset="0.954" stop-color="#C9C9C9"/>
<stop offset="0.966" stop-color="#BFBFBF"/>
<stop offset="1" stop-color="white"/>
</linearGradient>
<linearGradient id="paint20_linear_1420_252" x1="77.0059" y1="147.827" x2="218.018" y2="147.827" gradientUnits="userSpaceOnUse">
<stop stop-color="#DFDFDF"/>
<stop offset="0.021" stop-color="#E1E1E1"/>
<stop offset="0.244" stop-color="#F2F2F2"/>
<stop offset="0.487" stop-color="#FCFCFC"/>
<stop offset="0.791" stop-color="white"/>
<stop offset="0.841" stop-color="#FCFCFC"/>
<stop offset="0.882" stop-color="#F2F2F2"/>
<stop offset="0.919" stop-color="#E1E1E1"/>
<stop offset="0.954" stop-color="#C9C9C9"/>
<stop offset="0.966" stop-color="#BFBFBF"/>
<stop offset="1" stop-color="white"/>
</linearGradient>
<linearGradient id="paint21_linear_1420_252" x1="77.0059" y1="137.773" x2="218.018" y2="137.773" gradientUnits="userSpaceOnUse">
<stop stop-color="#DFDFDF"/>
<stop offset="0.021" stop-color="#E1E1E1"/>
<stop offset="0.244" stop-color="#F2F2F2"/>
<stop offset="0.487" stop-color="#FCFCFC"/>
<stop offset="0.791" stop-color="white"/>
<stop offset="0.841" stop-color="#FCFCFC"/>
<stop offset="0.882" stop-color="#F2F2F2"/>
<stop offset="0.919" stop-color="#E1E1E1"/>
<stop offset="0.954" stop-color="#C9C9C9"/>
<stop offset="0.966" stop-color="#BFBFBF"/>
<stop offset="1" stop-color="white"/>
</linearGradient>
<linearGradient id="paint22_linear_1420_252" x1="77.0059" y1="167.931" x2="217.98" y2="167.931" gradientUnits="userSpaceOnUse">
<stop stop-color="#DFDFDF"/>
<stop offset="0.021" stop-color="#E1E1E1"/>
<stop offset="0.244" stop-color="#F2F2F2"/>
<stop offset="0.487" stop-color="#FCFCFC"/>
<stop offset="0.791" stop-color="white"/>
<stop offset="0.841" stop-color="#FCFCFC"/>
<stop offset="0.882" stop-color="#F2F2F2"/>
<stop offset="0.919" stop-color="#E1E1E1"/>
<stop offset="0.954" stop-color="#C9C9C9"/>
<stop offset="0.966" stop-color="#BFBFBF"/>
<stop offset="1" stop-color="white"/>
</linearGradient>
<linearGradient id="paint23_linear_1420_252" x1="77.0083" y1="136.843" x2="217.986" y2="136.843" gradientUnits="userSpaceOnUse">
<stop stop-color="#DFDFDF"/>
<stop offset="0.021" stop-color="#E1E1E1"/>
<stop offset="0.244" stop-color="#F2F2F2"/>
<stop offset="0.487" stop-color="#FCFCFC"/>
<stop offset="0.791" stop-color="white"/>
<stop offset="0.841" stop-color="#FCFCFC"/>
<stop offset="0.882" stop-color="#F2F2F2"/>
<stop offset="0.919" stop-color="#E1E1E1"/>
<stop offset="0.954" stop-color="#C9C9C9"/>
<stop offset="0.966" stop-color="#BFBFBF"/>
<stop offset="1" stop-color="white"/>
</linearGradient>
<linearGradient id="paint24_linear_1420_252" x1="77.0083" y1="126.787" x2="217.986" y2="126.787" gradientUnits="userSpaceOnUse">
<stop stop-color="#DFDFDF"/>
<stop offset="0.021" stop-color="#E1E1E1"/>
<stop offset="0.244" stop-color="#F2F2F2"/>
<stop offset="0.487" stop-color="#FCFCFC"/>
<stop offset="0.791" stop-color="white"/>
<stop offset="0.841" stop-color="#FCFCFC"/>
<stop offset="0.882" stop-color="#F2F2F2"/>
<stop offset="0.919" stop-color="#E1E1E1"/>
<stop offset="0.954" stop-color="#C9C9C9"/>
<stop offset="0.966" stop-color="#BFBFBF"/>
<stop offset="1" stop-color="white"/>
</linearGradient>
<linearGradient id="paint25_linear_1420_252" x1="77.0059" y1="157.878" x2="217.98" y2="157.878" gradientUnits="userSpaceOnUse">
<stop stop-color="#DFDFDF"/>
<stop offset="0.021" stop-color="#E1E1E1"/>
<stop offset="0.244" stop-color="#F2F2F2"/>
<stop offset="0.487" stop-color="#FCFCFC"/>
<stop offset="0.791" stop-color="white"/>
<stop offset="0.841" stop-color="#FCFCFC"/>
<stop offset="0.882" stop-color="#F2F2F2"/>
<stop offset="0.919" stop-color="#E1E1E1"/>
<stop offset="0.954" stop-color="#C9C9C9"/>
<stop offset="0.966" stop-color="#BFBFBF"/>
<stop offset="1" stop-color="white"/>
</linearGradient>
<linearGradient id="paint26_linear_1420_252" x1="77.0059" y1="132.639" x2="217.984" y2="132.639" gradientUnits="userSpaceOnUse">
<stop stop-color="#DFDFDF"/>
<stop offset="0.021" stop-color="#E1E1E1"/>
<stop offset="0.244" stop-color="#F2F2F2"/>
<stop offset="0.487" stop-color="#FCFCFC"/>
<stop offset="0.791" stop-color="white"/>
<stop offset="0.841" stop-color="#FCFCFC"/>
<stop offset="0.882" stop-color="#F2F2F2"/>
<stop offset="0.919" stop-color="#E1E1E1"/>
<stop offset="0.954" stop-color="#C9C9C9"/>
<stop offset="0.966" stop-color="#BFBFBF"/>
<stop offset="1" stop-color="white"/>
</linearGradient>
<linearGradient id="paint27_linear_1420_252" x1="77.0059" y1="142.69" x2="217.984" y2="142.69" gradientUnits="userSpaceOnUse">
<stop stop-color="#DFDFDF"/>
<stop offset="0.021" stop-color="#E1E1E1"/>
<stop offset="0.244" stop-color="#F2F2F2"/>
<stop offset="0.487" stop-color="#FCFCFC"/>
<stop offset="0.791" stop-color="white"/>
<stop offset="0.841" stop-color="#FCFCFC"/>
<stop offset="0.882" stop-color="#F2F2F2"/>
<stop offset="0.919" stop-color="#E1E1E1"/>
<stop offset="0.954" stop-color="#C9C9C9"/>
<stop offset="0.966" stop-color="#BFBFBF"/>
<stop offset="1" stop-color="white"/>
</linearGradient>
<linearGradient id="paint28_linear_1420_252" x1="77.0059" y1="162.791" x2="217.985" y2="162.791" gradientUnits="userSpaceOnUse">
<stop stop-color="#DFDFDF"/>
<stop offset="0.021" stop-color="#E1E1E1"/>
<stop offset="0.244" stop-color="#F2F2F2"/>
<stop offset="0.487" stop-color="#FCFCFC"/>
<stop offset="0.791" stop-color="white"/>
<stop offset="0.841" stop-color="#FCFCFC"/>
<stop offset="0.882" stop-color="#F2F2F2"/>
<stop offset="0.919" stop-color="#E1E1E1"/>
<stop offset="0.954" stop-color="#C9C9C9"/>
<stop offset="0.966" stop-color="#BFBFBF"/>
<stop offset="1" stop-color="white"/>
</linearGradient>
<linearGradient id="paint29_linear_1420_252" x1="77.0059" y1="152.74" x2="217.984" y2="152.74" gradientUnits="userSpaceOnUse">
<stop stop-color="#DFDFDF"/>
<stop offset="0.021" stop-color="#E1E1E1"/>
<stop offset="0.244" stop-color="#F2F2F2"/>
<stop offset="0.487" stop-color="#FCFCFC"/>
<stop offset="0.791" stop-color="white"/>
<stop offset="0.841" stop-color="#FCFCFC"/>
<stop offset="0.882" stop-color="#F2F2F2"/>
<stop offset="0.919" stop-color="#E1E1E1"/>
<stop offset="0.954" stop-color="#C9C9C9"/>
<stop offset="0.966" stop-color="#BFBFBF"/>
<stop offset="1" stop-color="white"/>
</linearGradient>
<linearGradient id="paint30_linear_1420_252" x1="77.0059" y1="127.719" x2="218.013" y2="127.719" gradientUnits="userSpaceOnUse">
<stop stop-color="#DFDFDF"/>
<stop offset="0.021" stop-color="#E1E1E1"/>
<stop offset="0.244" stop-color="#F2F2F2"/>
<stop offset="0.487" stop-color="#FCFCFC"/>
<stop offset="0.791" stop-color="white"/>
<stop offset="0.841" stop-color="#FCFCFC"/>
<stop offset="0.882" stop-color="#F2F2F2"/>
<stop offset="0.919" stop-color="#E1E1E1"/>
<stop offset="0.954" stop-color="#C9C9C9"/>
<stop offset="0.966" stop-color="#BFBFBF"/>
<stop offset="1" stop-color="white"/>
</linearGradient>
<linearGradient id="paint31_linear_1420_252" x1="76.9993" y1="151.462" x2="218.02" y2="151.462" gradientUnits="userSpaceOnUse">
<stop stop-color="#DFDFDF"/>
<stop offset="0.021" stop-color="#E1E1E1"/>
<stop offset="0.244" stop-color="#F2F2F2"/>
<stop offset="0.487" stop-color="#FCFCFC"/>
<stop offset="0.791" stop-color="white"/>
<stop offset="0.841" stop-color="#FCFCFC"/>
<stop offset="0.882" stop-color="#F2F2F2"/>
<stop offset="0.919" stop-color="#E1E1E1"/>
<stop offset="0.954" stop-color="#C9C9C9"/>
<stop offset="0.966" stop-color="#BFBFBF"/>
<stop offset="1" stop-color="white"/>
</linearGradient>
<linearGradient id="paint32_linear_1420_252" x1="77.0127" y1="148.928" x2="217.988" y2="148.928" gradientUnits="userSpaceOnUse">
<stop stop-color="#DFDFDF"/>
<stop offset="0.021" stop-color="#E1E1E1"/>
<stop offset="0.244" stop-color="#F2F2F2"/>
<stop offset="0.487" stop-color="#FCFCFC"/>
<stop offset="0.791" stop-color="white"/>
<stop offset="0.841" stop-color="#FCFCFC"/>
<stop offset="0.882" stop-color="#F2F2F2"/>
<stop offset="0.919" stop-color="#E1E1E1"/>
<stop offset="0.954" stop-color="#C9C9C9"/>
<stop offset="0.966" stop-color="#BFBFBF"/>
<stop offset="1" stop-color="white"/>
</linearGradient>
<linearGradient id="paint33_linear_1420_252" x1="77.0127" y1="138.878" x2="217.988" y2="138.878" gradientUnits="userSpaceOnUse">
<stop stop-color="#DFDFDF"/>
<stop offset="0.021" stop-color="#E1E1E1"/>
<stop offset="0.244" stop-color="#F2F2F2"/>
<stop offset="0.487" stop-color="#FCFCFC"/>
<stop offset="0.791" stop-color="white"/>
<stop offset="0.841" stop-color="#FCFCFC"/>
<stop offset="0.882" stop-color="#F2F2F2"/>
<stop offset="0.919" stop-color="#E1E1E1"/>
<stop offset="0.954" stop-color="#C9C9C9"/>
<stop offset="0.966" stop-color="#BFBFBF"/>
<stop offset="1" stop-color="white"/>
</linearGradient>
<linearGradient id="paint34_linear_1420_252" x1="77.0127" y1="158.983" x2="217.989" y2="158.983" gradientUnits="userSpaceOnUse">
<stop stop-color="#DFDFDF"/>
<stop offset="0.021" stop-color="#E1E1E1"/>
<stop offset="0.244" stop-color="#F2F2F2"/>
<stop offset="0.487" stop-color="#FCFCFC"/>
<stop offset="0.791" stop-color="white"/>
<stop offset="0.841" stop-color="#FCFCFC"/>
<stop offset="0.882" stop-color="#F2F2F2"/>
<stop offset="0.919" stop-color="#E1E1E1"/>
<stop offset="0.954" stop-color="#C9C9C9"/>
<stop offset="0.966" stop-color="#BFBFBF"/>
<stop offset="1" stop-color="white"/>
</linearGradient>
<linearGradient id="paint35_linear_1420_252" x1="76.9859" y1="134.582" x2="218.034" y2="134.582" gradientUnits="userSpaceOnUse">
<stop stop-color="#DFDFDF"/>
<stop offset="0.021" stop-color="#E1E1E1"/>
<stop offset="0.244" stop-color="#F2F2F2"/>
<stop offset="0.487" stop-color="#FCFCFC"/>
<stop offset="0.791" stop-color="white"/>
<stop offset="0.841" stop-color="#FCFCFC"/>
<stop offset="0.882" stop-color="#F2F2F2"/>
<stop offset="0.919" stop-color="#E1E1E1"/>
<stop offset="0.954" stop-color="#C9C9C9"/>
<stop offset="0.966" stop-color="#BFBFBF"/>
<stop offset="1" stop-color="white"/>
</linearGradient>
<linearGradient id="paint36_linear_1420_252" x1="77.0149" y1="128.826" x2="217.986" y2="128.826" gradientUnits="userSpaceOnUse">
<stop stop-color="#DFDFDF"/>
<stop offset="0.021" stop-color="#E1E1E1"/>
<stop offset="0.244" stop-color="#F2F2F2"/>
<stop offset="0.487" stop-color="#FCFCFC"/>
<stop offset="0.791" stop-color="white"/>
<stop offset="0.841" stop-color="#FCFCFC"/>
<stop offset="0.882" stop-color="#F2F2F2"/>
<stop offset="0.919" stop-color="#E1E1E1"/>
<stop offset="0.954" stop-color="#C9C9C9"/>
<stop offset="0.966" stop-color="#BFBFBF"/>
<stop offset="1" stop-color="white"/>
</linearGradient>
<linearGradient id="paint37_linear_1420_252" x1="76.9859" y1="124.53" x2="218.034" y2="124.53" gradientUnits="userSpaceOnUse">
<stop stop-color="#DFDFDF"/>
<stop offset="0.021" stop-color="#E1E1E1"/>
<stop offset="0.244" stop-color="#F2F2F2"/>
<stop offset="0.487" stop-color="#FCFCFC"/>
<stop offset="0.791" stop-color="white"/>
<stop offset="0.841" stop-color="#FCFCFC"/>
<stop offset="0.882" stop-color="#F2F2F2"/>
<stop offset="0.919" stop-color="#E1E1E1"/>
<stop offset="0.954" stop-color="#C9C9C9"/>
<stop offset="0.966" stop-color="#BFBFBF"/>
<stop offset="1" stop-color="white"/>
</linearGradient>
<linearGradient id="paint38_linear_1420_252" x1="77.0106" y1="143.118" x2="217.995" y2="143.118" gradientUnits="userSpaceOnUse">
<stop stop-color="#DFDFDF"/>
<stop offset="0.021" stop-color="#E1E1E1"/>
<stop offset="0.244" stop-color="#F2F2F2"/>
<stop offset="0.487" stop-color="#FCFCFC"/>
<stop offset="0.791" stop-color="white"/>
<stop offset="0.841" stop-color="#FCFCFC"/>
<stop offset="0.882" stop-color="#F2F2F2"/>
<stop offset="0.919" stop-color="#E1E1E1"/>
<stop offset="0.954" stop-color="#C9C9C9"/>
<stop offset="0.966" stop-color="#BFBFBF"/>
<stop offset="1" stop-color="white"/>
</linearGradient>
<linearGradient id="paint39_linear_1420_252" x1="77.0105" y1="133.067" x2="217.995" y2="133.067" gradientUnits="userSpaceOnUse">
<stop stop-color="#DFDFDF"/>
<stop offset="0.021" stop-color="#E1E1E1"/>
<stop offset="0.244" stop-color="#F2F2F2"/>
<stop offset="0.487" stop-color="#FCFCFC"/>
<stop offset="0.791" stop-color="white"/>
<stop offset="0.841" stop-color="#FCFCFC"/>
<stop offset="0.882" stop-color="#F2F2F2"/>
<stop offset="0.919" stop-color="#E1E1E1"/>
<stop offset="0.954" stop-color="#C9C9C9"/>
<stop offset="0.966" stop-color="#BFBFBF"/>
<stop offset="1" stop-color="white"/>
</linearGradient>
<linearGradient id="paint40_linear_1420_252" x1="77.0127" y1="163.225" x2="217.993" y2="163.225" gradientUnits="userSpaceOnUse">
<stop stop-color="#DFDFDF"/>
<stop offset="0.021" stop-color="#E1E1E1"/>
<stop offset="0.244" stop-color="#F2F2F2"/>
<stop offset="0.487" stop-color="#FCFCFC"/>
<stop offset="0.791" stop-color="white"/>
<stop offset="0.841" stop-color="#FCFCFC"/>
<stop offset="0.882" stop-color="#F2F2F2"/>
<stop offset="0.919" stop-color="#E1E1E1"/>
<stop offset="0.954" stop-color="#C9C9C9"/>
<stop offset="0.966" stop-color="#BFBFBF"/>
<stop offset="1" stop-color="white"/>
</linearGradient>
<linearGradient id="paint41_linear_1420_252" x1="77.0104" y1="123.011" x2="217.996" y2="123.011" gradientUnits="userSpaceOnUse">
<stop stop-color="#DFDFDF"/>
<stop offset="0.021" stop-color="#E1E1E1"/>
<stop offset="0.244" stop-color="#F2F2F2"/>
<stop offset="0.487" stop-color="#FCFCFC"/>
<stop offset="0.791" stop-color="white"/>
<stop offset="0.841" stop-color="#FCFCFC"/>
<stop offset="0.882" stop-color="#F2F2F2"/>
<stop offset="0.919" stop-color="#E1E1E1"/>
<stop offset="0.954" stop-color="#C9C9C9"/>
<stop offset="0.966" stop-color="#BFBFBF"/>
<stop offset="1" stop-color="white"/>
</linearGradient>
<linearGradient id="paint42_linear_1420_252" x1="77.0105" y1="153.169" x2="217.995" y2="153.169" gradientUnits="userSpaceOnUse">
<stop stop-color="#DFDFDF"/>
<stop offset="0.021" stop-color="#E1E1E1"/>
<stop offset="0.244" stop-color="#F2F2F2"/>
<stop offset="0.487" stop-color="#FCFCFC"/>
<stop offset="0.791" stop-color="white"/>
<stop offset="0.841" stop-color="#FCFCFC"/>
<stop offset="0.882" stop-color="#F2F2F2"/>
<stop offset="0.919" stop-color="#E1E1E1"/>
<stop offset="0.954" stop-color="#C9C9C9"/>
<stop offset="0.966" stop-color="#BFBFBF"/>
<stop offset="1" stop-color="white"/>
</linearGradient>
<linearGradient id="paint43_linear_1420_252" x1="76.9857" y1="144.636" x2="218.034" y2="144.636" gradientUnits="userSpaceOnUse">
<stop stop-color="#DFDFDF"/>
<stop offset="0.021" stop-color="#E1E1E1"/>
<stop offset="0.244" stop-color="#F2F2F2"/>
<stop offset="0.487" stop-color="#FCFCFC"/>
<stop offset="0.791" stop-color="white"/>
<stop offset="0.841" stop-color="#FCFCFC"/>
<stop offset="0.882" stop-color="#F2F2F2"/>
<stop offset="0.919" stop-color="#E1E1E1"/>
<stop offset="0.954" stop-color="#C9C9C9"/>
<stop offset="0.966" stop-color="#BFBFBF"/>
<stop offset="1" stop-color="white"/>
</linearGradient>
<linearGradient id="paint44_linear_1420_252" x1="76.9992" y1="131.357" x2="218.02" y2="131.357" gradientUnits="userSpaceOnUse">
<stop stop-color="#DFDFDF"/>
<stop offset="0.021" stop-color="#E1E1E1"/>
<stop offset="0.244" stop-color="#F2F2F2"/>
<stop offset="0.487" stop-color="#FCFCFC"/>
<stop offset="0.791" stop-color="white"/>
<stop offset="0.841" stop-color="#FCFCFC"/>
<stop offset="0.882" stop-color="#F2F2F2"/>
<stop offset="0.919" stop-color="#E1E1E1"/>
<stop offset="0.954" stop-color="#C9C9C9"/>
<stop offset="0.966" stop-color="#BFBFBF"/>
<stop offset="1" stop-color="white"/>
</linearGradient>
<linearGradient id="paint45_linear_1420_252" x1="77.0104" y1="155.943" x2="217.989" y2="155.943" gradientUnits="userSpaceOnUse">
<stop stop-color="#DFDFDF"/>
<stop offset="0.021" stop-color="#E1E1E1"/>
<stop offset="0.244" stop-color="#F2F2F2"/>
<stop offset="0.487" stop-color="#FCFCFC"/>
<stop offset="0.791" stop-color="white"/>
<stop offset="0.841" stop-color="#FCFCFC"/>
<stop offset="0.882" stop-color="#F2F2F2"/>
<stop offset="0.919" stop-color="#E1E1E1"/>
<stop offset="0.954" stop-color="#C9C9C9"/>
<stop offset="0.966" stop-color="#BFBFBF"/>
<stop offset="1" stop-color="white"/>
</linearGradient>
<linearGradient id="paint46_linear_1420_252" x1="76.9857" y1="154.687" x2="218.034" y2="154.687" gradientUnits="userSpaceOnUse">
<stop stop-color="#DFDFDF"/>
<stop offset="0.021" stop-color="#E1E1E1"/>
<stop offset="0.244" stop-color="#F2F2F2"/>
<stop offset="0.487" stop-color="#FCFCFC"/>
<stop offset="0.791" stop-color="white"/>
<stop offset="0.841" stop-color="#FCFCFC"/>
<stop offset="0.882" stop-color="#F2F2F2"/>
<stop offset="0.919" stop-color="#E1E1E1"/>
<stop offset="0.954" stop-color="#C9C9C9"/>
<stop offset="0.966" stop-color="#BFBFBF"/>
<stop offset="1" stop-color="white"/>
</linearGradient>
<linearGradient id="paint47_linear_1420_252" x1="77.0104" y1="135.842" x2="217.989" y2="135.842" gradientUnits="userSpaceOnUse">
<stop stop-color="#DFDFDF"/>
<stop offset="0.021" stop-color="#E1E1E1"/>
<stop offset="0.244" stop-color="#F2F2F2"/>
<stop offset="0.487" stop-color="#FCFCFC"/>
<stop offset="0.791" stop-color="white"/>
<stop offset="0.841" stop-color="#FCFCFC"/>
<stop offset="0.882" stop-color="#F2F2F2"/>
<stop offset="0.919" stop-color="#E1E1E1"/>
<stop offset="0.954" stop-color="#C9C9C9"/>
<stop offset="0.966" stop-color="#BFBFBF"/>
<stop offset="1" stop-color="white"/>
</linearGradient>
<linearGradient id="paint48_linear_1420_252" x1="77.0104" y1="166" x2="217.989" y2="166" gradientUnits="userSpaceOnUse">
<stop stop-color="#DFDFDF"/>
<stop offset="0.021" stop-color="#E1E1E1"/>
<stop offset="0.244" stop-color="#F2F2F2"/>
<stop offset="0.487" stop-color="#FCFCFC"/>
<stop offset="0.791" stop-color="white"/>
<stop offset="0.841" stop-color="#FCFCFC"/>
<stop offset="0.882" stop-color="#F2F2F2"/>
<stop offset="0.919" stop-color="#E1E1E1"/>
<stop offset="0.954" stop-color="#C9C9C9"/>
<stop offset="0.966" stop-color="#BFBFBF"/>
<stop offset="1" stop-color="white"/>
</linearGradient>
<linearGradient id="paint49_linear_1420_252" x1="76.9993" y1="141.407" x2="218.02" y2="141.407" gradientUnits="userSpaceOnUse">
<stop stop-color="#DFDFDF"/>
<stop offset="0.021" stop-color="#E1E1E1"/>
<stop offset="0.244" stop-color="#F2F2F2"/>
<stop offset="0.487" stop-color="#FCFCFC"/>
<stop offset="0.791" stop-color="white"/>
<stop offset="0.841" stop-color="#FCFCFC"/>
<stop offset="0.882" stop-color="#F2F2F2"/>
<stop offset="0.919" stop-color="#E1E1E1"/>
<stop offset="0.954" stop-color="#C9C9C9"/>
<stop offset="0.966" stop-color="#BFBFBF"/>
<stop offset="1" stop-color="white"/>
</linearGradient>
<linearGradient id="paint50_linear_1420_252" x1="77.0014" y1="125.788" x2="218.014" y2="125.788" gradientUnits="userSpaceOnUse">
<stop stop-color="#DFDFDF"/>
<stop offset="0.021" stop-color="#E1E1E1"/>
<stop offset="0.244" stop-color="#F2F2F2"/>
<stop offset="0.487" stop-color="#FCFCFC"/>
<stop offset="0.791" stop-color="white"/>
<stop offset="0.841" stop-color="#FCFCFC"/>
<stop offset="0.882" stop-color="#F2F2F2"/>
<stop offset="0.919" stop-color="#E1E1E1"/>
<stop offset="0.954" stop-color="#C9C9C9"/>
<stop offset="0.966" stop-color="#BFBFBF"/>
<stop offset="1" stop-color="white"/>
</linearGradient>
<linearGradient id="paint51_linear_1420_252" x1="77.0104" y1="145.894" x2="217.989" y2="145.894" gradientUnits="userSpaceOnUse">
<stop stop-color="#DFDFDF"/>
<stop offset="0.021" stop-color="#E1E1E1"/>
<stop offset="0.244" stop-color="#F2F2F2"/>
<stop offset="0.487" stop-color="#FCFCFC"/>
<stop offset="0.791" stop-color="white"/>
<stop offset="0.841" stop-color="#FCFCFC"/>
<stop offset="0.882" stop-color="#F2F2F2"/>
<stop offset="0.919" stop-color="#E1E1E1"/>
<stop offset="0.954" stop-color="#C9C9C9"/>
<stop offset="0.966" stop-color="#BFBFBF"/>
<stop offset="1" stop-color="white"/>
</linearGradient>
<linearGradient id="paint52_linear_1420_252" x1="76.9856" y1="164.74" x2="218.033" y2="164.74" gradientUnits="userSpaceOnUse">
<stop stop-color="#DFDFDF"/>
<stop offset="0.021" stop-color="#E1E1E1"/>
<stop offset="0.244" stop-color="#F2F2F2"/>
<stop offset="0.487" stop-color="#FCFCFC"/>
<stop offset="0.791" stop-color="white"/>
<stop offset="0.841" stop-color="#FCFCFC"/>
<stop offset="0.882" stop-color="#F2F2F2"/>
<stop offset="0.919" stop-color="#E1E1E1"/>
<stop offset="0.954" stop-color="#C9C9C9"/>
<stop offset="0.966" stop-color="#BFBFBF"/>
<stop offset="1" stop-color="white"/>
</linearGradient>
<linearGradient id="paint53_linear_1420_252" x1="77.0103" y1="160.374" x2="217.991" y2="160.374" gradientUnits="userSpaceOnUse">
<stop stop-color="#DFDFDF"/>
<stop offset="0.021" stop-color="#E1E1E1"/>
<stop offset="0.244" stop-color="#F2F2F2"/>
<stop offset="0.487" stop-color="#FCFCFC"/>
<stop offset="0.791" stop-color="white"/>
<stop offset="0.841" stop-color="#FCFCFC"/>
<stop offset="0.882" stop-color="#F2F2F2"/>
<stop offset="0.919" stop-color="#E1E1E1"/>
<stop offset="0.954" stop-color="#C9C9C9"/>
<stop offset="0.966" stop-color="#BFBFBF"/>
<stop offset="1" stop-color="white"/>
</linearGradient>
<linearGradient id="paint54_linear_1420_252" x1="77.0104" y1="130.22" x2="217.991" y2="130.22" gradientUnits="userSpaceOnUse">
<stop stop-color="#DFDFDF"/>
<stop offset="0.021" stop-color="#E1E1E1"/>
<stop offset="0.244" stop-color="#F2F2F2"/>
<stop offset="0.487" stop-color="#FCFCFC"/>
<stop offset="0.791" stop-color="white"/>
<stop offset="0.841" stop-color="#FCFCFC"/>
<stop offset="0.882" stop-color="#F2F2F2"/>
<stop offset="0.919" stop-color="#E1E1E1"/>
<stop offset="0.954" stop-color="#C9C9C9"/>
<stop offset="0.966" stop-color="#BFBFBF"/>
<stop offset="1" stop-color="white"/>
</linearGradient>
<linearGradient id="paint55_linear_1420_252" x1="77.0103" y1="150.323" x2="217.991" y2="150.323" gradientUnits="userSpaceOnUse">
<stop stop-color="#DFDFDF"/>
<stop offset="0.021" stop-color="#E1E1E1"/>
<stop offset="0.244" stop-color="#F2F2F2"/>
<stop offset="0.487" stop-color="#FCFCFC"/>
<stop offset="0.791" stop-color="white"/>
<stop offset="0.841" stop-color="#FCFCFC"/>
<stop offset="0.882" stop-color="#F2F2F2"/>
<stop offset="0.919" stop-color="#E1E1E1"/>
<stop offset="0.954" stop-color="#C9C9C9"/>
<stop offset="0.966" stop-color="#BFBFBF"/>
<stop offset="1" stop-color="white"/>
</linearGradient>
<linearGradient id="paint56_linear_1420_252" x1="77.0103" y1="140.269" x2="217.991" y2="140.269" gradientUnits="userSpaceOnUse">
<stop stop-color="#DFDFDF"/>
<stop offset="0.021" stop-color="#E1E1E1"/>
<stop offset="0.244" stop-color="#F2F2F2"/>
<stop offset="0.487" stop-color="#FCFCFC"/>
<stop offset="0.791" stop-color="white"/>
<stop offset="0.841" stop-color="#FCFCFC"/>
<stop offset="0.882" stop-color="#F2F2F2"/>
<stop offset="0.919" stop-color="#E1E1E1"/>
<stop offset="0.954" stop-color="#C9C9C9"/>
<stop offset="0.966" stop-color="#BFBFBF"/>
<stop offset="1" stop-color="white"/>
</linearGradient>
</defs>
</svg>
