<svg width="256" height="256" viewBox="0 0 256 256" fill="none" xmlns="http://www.w3.org/2000/svg">
<g clip-path="url(#clip0_741_46)">
<circle cx="128" cy="128" r="128" fill="black"/>
<mask id="mask0_741_46" style="mask-type:luminance" maskUnits="userSpaceOnUse" x="43" y="50" width="170" height="156">
<path d="M213 50.8291H43V205.171H213V50.8291Z" fill="white"/>
</mask>
<g mask="url(#mask0_741_46)">
<path d="M55.7913 198.298L55.2858 197.616C51.3979 192.371 48.8319 186.13 47.6655 179.089C46.363 171.23 46.363 163.021 47.6655 154.674C48.8888 146.843 51.1442 139.209 54.3722 131.974L54.0612 131.545V131.467C49.6095 123.959 46.2658 112.005 45.1189 99.4848C44.6718 94.746 43.6609 78.9498 49.0068 74.874C50.7175 73.5674 53.3224 72.9238 56.9382 72.9238C70.3905 72.9238 95.1761 82.148 101.494 84.6052C105.982 82.8121 110.648 81.5046 115.413 80.7049C118.882 80.124 122.393 79.824 125.91 79.8078C127.776 78.2477 134.852 72.3193 142.978 66.4884C155.827 57.2252 165.198 52.5059 170.796 52.5059C171.66 52.5085 172.518 52.64 173.343 52.8959C179.7 55.0411 183.822 70.3106 184.91 74.9325C187.748 86.7308 188.467 98.7048 186.893 107.207C199.529 120.176 207.926 136.147 210.57 152.256C212.165 161.85 210.843 170.742 206.663 178.7C202.853 185.973 196.651 192.468 188.234 198.025L187.806 198.298H55.7913Z" fill="#5959FF"/>
<path d="M170.796 54.2222C171.482 54.2028 172.166 54.3018 172.818 54.5147C180.594 57.1279 188.876 89.6953 185.065 107.773C197.312 120.137 206.137 135.816 208.899 152.548C212.067 171.777 202.969 186.285 187.281 196.622H56.6272C53.0114 191.727 50.4843 185.837 49.3373 178.817C46.7519 163.118 49.59 146.561 56.3551 131.662C56.0274 131.35 55.734 131.004 55.4802 130.629C46.0715 114.716 43.4665 81.2122 49.9788 76.2393C51.4757 75.0887 53.8862 74.6207 56.8994 74.6207C70.4877 74.6207 96.0314 84.2935 101.455 86.419C109.329 83.1386 117.774 81.4615 126.299 81.4852H126.493C126.493 81.4852 158.181 54.2027 170.777 54.2027L170.796 54.2222ZM170.777 50.8289C164.75 50.8289 155.322 55.4898 141.948 65.104C134.23 70.6423 127.64 76.1028 125.249 78.1115C117.097 78.2148 109.029 79.7938 101.436 82.7723C97.8976 81.4071 90.9771 78.8524 83.2207 76.4733C71.8484 73.0021 63.0034 71.2274 56.8994 71.2274C52.8948 71.2274 49.9594 71.988 47.9377 73.5286C45.5855 75.3423 44.1081 78.794 43.4082 84.1569C42.8639 88.4667 42.8445 93.8101 43.3888 99.641C44.5552 112.278 47.9377 124.408 52.4477 132.15C49.3715 139.272 47.2031 146.754 45.9937 154.421C44.6718 162.943 44.6718 171.348 45.9937 179.382C47.199 186.676 49.8622 193.17 53.9251 198.631L54.9359 199.995H188.312L189.147 199.43C197.817 193.735 204.214 187.008 208.159 179.499C212.513 171.211 213.875 161.948 212.242 152.002C210.843 143.441 207.888 134.997 203.533 126.904C199.519 119.518 194.529 112.71 188.7 106.662C190.119 98.0029 189.342 86.1656 186.562 74.5427C185.202 68.8677 183.471 63.7974 181.566 59.8971C179.195 55.0413 176.687 52.2331 173.888 51.297C172.888 50.9783 171.845 50.8203 170.796 50.8289H170.777Z" fill="black"/>
<path d="M141.792 181.957C140.088 181.953 138.419 181.474 136.971 180.573C135.678 179.775 134.599 178.672 133.83 177.36C133.06 176.047 132.624 174.565 132.559 173.044C132.582 172.704 132.729 172.386 132.972 172.147C133.216 171.909 133.538 171.771 133.877 171.756C134.216 171.741 134.549 171.852 134.811 172.069C135.074 172.285 135.248 172.59 135.3 172.927C135.345 174 135.653 175.044 136.195 175.969C136.738 176.894 137.498 177.67 138.41 178.232C139.14 178.685 139.953 178.987 140.8 179.121C141.648 179.255 142.514 179.218 143.348 179.012C144.181 178.817 144.967 178.455 145.658 177.95C146.349 177.444 146.932 176.803 147.372 176.068C147.823 175.337 148.125 174.524 148.262 173.676C148.398 172.829 148.366 171.962 148.167 171.125C147.969 170.29 147.607 169.502 147.104 168.807C146.6 168.112 145.964 167.524 145.233 167.077C145.078 166.985 144.942 166.862 144.834 166.716C144.726 166.571 144.648 166.405 144.604 166.23C144.561 166.053 144.553 165.87 144.581 165.691C144.609 165.512 144.672 165.34 144.767 165.185C144.862 165.03 144.987 164.896 145.135 164.788C145.282 164.682 145.449 164.606 145.626 164.563C145.803 164.522 145.987 164.516 146.166 164.546C146.346 164.576 146.517 164.641 146.672 164.737C148.232 165.7 149.473 167.105 150.239 168.773C151.004 170.443 151.259 172.303 150.972 174.118C150.685 175.932 149.869 177.622 148.626 178.972C147.383 180.322 145.77 181.272 143.989 181.703C143.268 181.864 142.532 181.949 141.792 181.957Z" fill="black"/>
<path d="M126.144 184.297C124.48 184.301 122.846 183.849 121.42 182.991C120.24 182.294 119.231 181.342 118.463 180.206C117.695 179.069 117.189 177.776 116.98 176.419C116.772 175.062 116.867 173.676 117.258 172.361C117.649 171.045 118.327 169.833 119.242 168.812C119.362 168.678 119.508 168.568 119.67 168.49C119.832 168.412 120.008 168.367 120.187 168.357C120.367 168.347 120.547 168.373 120.717 168.432C120.886 168.492 121.043 168.585 121.177 168.705C121.311 168.826 121.42 168.971 121.498 169.134C121.576 169.297 121.621 169.473 121.631 169.653C121.641 169.833 121.615 170.013 121.556 170.185C121.496 170.355 121.404 170.511 121.284 170.645C120.576 171.447 120.073 172.409 119.819 173.448C119.565 174.488 119.567 175.574 119.826 176.613C120.145 177.867 120.828 178.998 121.787 179.862C122.747 180.728 123.94 181.288 125.217 181.474C126.493 181.66 127.796 181.462 128.961 180.906C130.126 180.35 131.1 179.46 131.762 178.349C132.204 177.613 132.494 176.794 132.614 175.943C132.734 175.092 132.682 174.225 132.461 173.396C132.378 173.041 132.435 172.669 132.62 172.357C132.804 172.043 133.103 171.814 133.453 171.718C133.628 171.672 133.81 171.66 133.989 171.686C134.169 171.71 134.341 171.771 134.497 171.863C134.653 171.956 134.788 172.079 134.896 172.225C135.004 172.37 135.082 172.537 135.125 172.713C135.431 173.894 135.5 175.126 135.326 176.335C135.152 177.544 134.74 178.706 134.114 179.753C133.302 181.147 132.137 182.303 130.738 183.1C129.338 183.898 127.753 184.311 126.144 184.297Z" fill="black"/>
<path d="M151.707 154.147C148.879 154.132 146.149 153.104 144.011 151.248C141.872 149.392 140.465 146.831 140.043 144.026L138.896 136.284C138.86 136.064 138.868 135.84 138.919 135.624C138.97 135.408 139.063 135.204 139.193 135.025C139.324 134.845 139.488 134.693 139.677 134.578C139.867 134.463 140.077 134.386 140.296 134.353C140.739 134.286 141.191 134.398 141.552 134.665C141.913 134.932 142.153 135.332 142.22 135.777L143.367 143.538C143.757 145.71 144.976 147.643 146.764 148.928C148.552 150.214 150.768 150.749 152.943 150.422C155.118 150.095 157.081 148.93 158.414 147.175C159.747 145.42 160.347 143.213 160.085 141.022L158.938 133.28C158.905 133.061 158.915 132.838 158.968 132.623C159.021 132.408 159.116 132.205 159.246 132.027C159.377 131.849 159.542 131.698 159.731 131.583C159.92 131.469 160.129 131.393 160.348 131.359C160.566 131.326 160.789 131.336 161.002 131.389C161.217 131.442 161.42 131.537 161.597 131.669C161.775 131.8 161.925 131.965 162.039 132.155C162.153 132.344 162.229 132.554 162.263 132.773L163.429 140.515C163.891 143.629 163.103 146.799 161.236 149.329C159.371 151.86 156.579 153.543 153.476 154.01C152.89 154.095 152.299 154.14 151.707 154.147Z" fill="black"/>
<path d="M104.177 85.3657C104.177 85.3657 110.184 88.564 109.814 96.111C109.445 103.99 104.274 103.405 105.246 112.122C106.218 120.839 129.118 137.434 117.959 162.747C106.976 187.709 57.4048 181.157 48.5015 171.347C46.3631 144.943 63.2367 119.123 63.2367 119.123C63.2367 119.123 83.8039 90.1825 104.177 85.3657Z" fill="#6678FF"/>
<path d="M106.626 159.53C103.824 159.529 101.114 158.528 98.9803 156.705C96.8469 154.883 95.4294 152.359 94.9817 149.584L93.8153 141.842C93.7765 141.619 93.7825 141.391 93.8329 141.171C93.8832 140.95 93.977 140.742 94.1087 140.559C94.2403 140.375 94.4072 140.22 94.5995 140.102C94.7918 139.984 95.0057 139.906 95.2286 139.872C95.4514 139.839 95.6787 139.85 95.8972 139.905C96.1156 139.961 96.3207 140.06 96.5006 140.196C96.6804 140.332 96.8313 140.503 96.9443 140.699C97.0574 140.894 97.1303 141.111 97.159 141.335L98.3059 149.077C98.7037 151.239 99.923 153.162 101.707 154.44C103.49 155.718 105.699 156.251 107.867 155.928C110.034 155.604 111.992 154.448 113.328 152.705C114.663 150.961 115.271 148.766 115.024 146.581L113.877 138.839C113.841 138.621 113.849 138.398 113.901 138.183C113.952 137.968 114.045 137.766 114.176 137.587C114.306 137.409 114.471 137.259 114.66 137.146C114.849 137.033 115.059 136.958 115.277 136.928C115.497 136.892 115.721 136.9 115.938 136.953C116.154 137.005 116.358 137.1 116.538 137.233C116.717 137.366 116.868 137.533 116.982 137.725C117.096 137.917 117.17 138.13 117.201 138.351L118.368 146.113C118.777 149.173 117.98 152.273 116.147 154.753C114.314 157.233 111.589 158.898 108.551 159.393C107.913 159.487 107.27 159.533 106.626 159.53Z" fill="black"/>
<path d="M83.8817 99.602C83.8817 99.602 76.4557 89.2857 68.6215 83.8839C60.7873 78.482 54.8194 75.8688 51.534 77.4483C47.3934 79.4765 47.1601 92.3085 49.5512 105.472C51.9423 118.635 55.6358 124.817 57.3076 128.23C58.9794 131.643 83.8817 99.602 83.8817 99.602Z" fill="#6678FF"/>
<path opacity="0.2" d="M164.789 90.3193C163.288 95.4079 159.867 99.7084 155.255 102.306C150.642 104.904 145.201 105.594 140.089 104.23C134.976 102.866 130.596 99.5555 127.879 95.002C125.163 90.4485 124.324 85.0114 125.541 79.847C125.541 79.847 133.608 72.2804 161.874 55.9187C189.983 40.3761 187.786 105.745 187.786 105.745L164.789 90.3193Z" fill="black"/>
<path d="M150.054 84.6246C150.054 84.6246 152.64 75.4198 158.258 67.7168C163.876 60.0137 168.6 55.5284 172.235 55.9379C176.803 56.4645 181.275 68.4968 183.374 81.6993C185.473 94.9017 184.074 101.981 183.607 105.745C181.138 101.649 150.054 84.6246 150.054 84.6246Z" fill="#6678FF"/>
<path d="M189.089 199.995H54.3138L53.789 199.294C49.8233 193.911 47.199 187.554 46.0131 180.377C43.5249 165.204 45.741 148.882 52.4671 133.183C58.9211 118.109 69.3214 104.536 81.7627 94.9215C81.9414 94.7832 82.1455 94.6816 82.3634 94.6225C82.5813 94.5633 82.8085 94.5478 83.0324 94.5767C83.2562 94.6057 83.4722 94.6786 83.6679 94.7914C83.8636 94.904 84.0354 95.0543 84.1732 95.2336C84.3111 95.4129 84.4123 95.6175 84.4714 95.8361C84.5303 96.0546 84.5459 96.2828 84.5169 96.5072C84.4881 96.7318 84.4154 96.9485 84.3031 97.1449C84.1907 97.3413 84.0409 97.5135 83.8622 97.6517C58.8044 117.017 44.6329 150.813 49.4151 179.811C50.4648 186.13 52.7004 191.747 56.0635 196.524H188.059C204.757 185.349 211.794 170.899 208.937 153.562C203.999 123.667 179.214 95.9162 148.635 86.0874C148.233 85.9215 147.908 85.61 147.725 85.2147C147.541 84.8194 147.513 84.3692 147.645 83.954C147.777 83.5386 148.061 83.1884 148.439 82.9731C148.817 82.7577 149.262 82.693 149.685 82.7916C164.828 87.667 179.35 97.1837 190.606 109.606C196.16 115.712 200.88 122.532 204.641 129.888C208.372 137.149 210.969 144.943 212.339 152.997C213.953 162.767 212.592 171.854 208.334 179.986C204.446 187.397 198.109 194.028 189.517 199.703L189.089 199.995Z" fill="black"/>
<path d="M57.3659 203.175C56.5754 203.177 55.7923 203.023 55.0611 202.721C54.3301 202.42 53.6657 201.976 53.1058 201.417C52.546 200.856 52.1018 200.191 51.7987 199.46C51.4956 198.727 51.3396 197.942 51.3396 197.149C51.3362 196.58 51.4215 196.014 51.5923 195.471C52.9337 190.85 55.9856 187.085 60.4179 184.648C64.4226 182.406 69.574 181.216 75.2699 181.216C80.9657 181.216 86.1172 182.406 90.1412 184.628C94.5734 187.105 97.6255 190.85 98.9668 195.471C99.4052 197.01 99.2175 198.66 98.445 200.06C97.6724 201.46 96.3781 202.496 94.8456 202.94C94.3018 203.095 93.7392 203.175 93.1738 203.175H57.3659Z" fill="#5959FF"/>
<path d="M75.2699 182.931C85.8645 182.931 94.7679 187.105 97.3533 195.959C97.6653 197.066 97.5275 198.252 96.9701 199.256C96.4126 200.261 95.481 201.004 94.379 201.322C93.9879 201.439 93.5819 201.497 93.1738 201.497H57.3659C56.2161 201.497 55.1136 201.039 54.3006 200.223C53.4876 199.408 53.0309 198.302 53.0309 197.149C53.0319 196.745 53.0908 196.345 53.2058 195.959C55.7719 187.105 64.6752 182.931 75.2699 182.931ZM75.2699 179.538C62.2453 179.538 52.7782 185.311 49.9594 195.004C49.3946 196.973 49.6321 199.088 50.6198 200.883C51.6074 202.678 53.2645 204.007 55.2276 204.578C55.9239 204.772 56.6433 204.87 57.3659 204.87H93.1738C94.1864 204.874 95.1895 204.676 96.1258 204.289C97.062 203.902 97.9129 203.334 98.6298 202.616C99.3467 201.899 99.9154 201.046 100.304 200.108C100.692 199.17 100.891 198.164 100.891 197.149C100.894 196.422 100.79 195.699 100.58 195.004C97.781 185.311 88.3139 179.538 75.2699 179.538Z" fill="black"/>
<path d="M83.6095 195.686C83.6095 195.686 84.7953 198.455 84.3871 200.815L83.6095 195.686Z" fill="#5959FF"/>
<path d="M84.3871 202.511H84.1149C83.6747 202.434 83.2826 202.187 83.024 201.821C82.7655 201.456 82.6614 201.003 82.7347 200.561C82.9875 199.04 82.3265 197.012 82.0542 196.368C81.9004 195.959 81.9103 195.505 82.082 195.102C82.2537 194.7 82.5738 194.379 82.9754 194.208C83.377 194.037 83.8291 194.028 84.2371 194.184C84.6451 194.339 84.9775 194.647 85.1647 195.042C85.3007 195.374 86.5255 198.338 86.0589 201.107C85.9901 201.502 85.7845 201.858 85.4786 202.116C85.1727 202.373 84.7861 202.513 84.3871 202.511Z" fill="black"/>
<path d="M69.1075 195.686C69.1075 195.686 67.319 199.215 67.8634 201.497L69.1075 195.686Z" fill="#5959FF"/>
<path d="M67.8634 203.173C67.4855 203.179 67.1173 203.054 66.8201 202.82C66.523 202.586 66.3148 202.256 66.2304 201.887C65.5501 199.098 67.3968 195.334 67.6106 194.925C67.8117 194.527 68.1622 194.225 68.5851 194.086C69.008 193.946 69.4687 193.982 69.8656 194.183C70.2626 194.386 70.5635 194.737 70.7021 195.161C70.8405 195.586 70.8054 196.048 70.6043 196.446C69.9823 197.694 69.2241 199.956 69.4963 201.087C69.5512 201.303 69.5624 201.529 69.5293 201.749C69.4963 201.971 69.4195 202.182 69.3036 202.374C69.1877 202.565 69.0351 202.73 68.8544 202.86C68.6739 202.991 68.4691 203.085 68.2522 203.135C68.1252 203.167 67.9942 203.18 67.8634 203.173Z" fill="black"/>
<path d="M150.53 125.382C154.999 124.966 158.399 122.221 158.125 119.25C157.85 116.28 154.004 114.209 149.536 114.624C145.067 115.04 141.667 117.786 141.942 120.756C142.217 123.727 146.062 125.798 150.53 125.382Z" fill="#6678FF"/>
<path d="M102.035 132.655C106.478 131.889 109.67 128.874 109.164 125.921C108.659 122.967 104.647 121.193 100.204 121.959C95.7613 122.724 92.5694 125.739 93.075 128.692C93.5806 131.646 97.5921 133.42 102.035 132.655Z" fill="#5959FF"/>
<path opacity="0.2" d="M193.969 116.061C193.969 116.061 189.419 123.94 185.084 127.118C180.749 130.297 172.721 131.019 172.605 134.139C172.487 137.259 186.524 143.051 202.308 128.6L193.969 116.061Z" fill="black"/>
<path opacity="0.2" d="M203.086 129.771C203.086 129.771 197.177 136.694 192.336 139.014C187.496 141.335 179.466 140.574 178.786 143.617C178.105 146.659 190.838 154.927 208.995 143.636L203.086 129.771Z" fill="black"/>
<path d="M133.006 160.212C132.957 160.344 132.875 160.461 132.768 160.55C132.66 160.64 132.531 160.7 132.393 160.724C132.255 160.747 132.113 160.734 131.982 160.686C131.851 160.637 131.734 160.554 131.645 160.447C130.226 158.828 127.776 158.223 125.833 159.081C123.383 160.154 122.139 163.177 123.072 165.867C124.005 168.56 131.334 173.824 133.919 173.005C136.719 172.615 142.104 165.478 142.376 162.747C142.648 160.017 140.762 157.346 138.157 157.092C136.097 156.878 133.958 158.223 133.006 160.212Z" fill="black"/>
<path opacity="0.1" d="M185.901 108.026C185.979 108.221 205.71 151.671 185.823 178.797C179.622 187.26 169.553 192.995 158.608 196.855H188.117C203.785 186.52 212.903 172.03 209.734 152.802C206.974 136.069 198.148 120.371 185.901 108.026Z" fill="black"/>
<path d="M166.364 203.175C165.574 203.177 164.793 203.023 164.062 202.721C163.332 202.419 162.669 201.975 162.111 201.416C161.553 200.855 161.111 200.19 160.809 199.457C160.508 198.725 160.355 197.941 160.357 197.149C160.357 196.581 160.435 196.017 160.591 195.471C161.932 190.85 164.984 187.085 169.416 184.648C173.421 182.406 178.573 181.216 184.288 181.216C190.003 181.216 195.135 182.406 199.139 184.628C203.572 187.105 206.624 190.85 207.965 195.471C208.185 196.232 208.253 197.028 208.166 197.815C208.08 198.603 207.838 199.366 207.457 200.059C207.077 200.752 206.563 201.364 205.946 201.859C205.33 202.353 204.622 202.721 203.864 202.94C203.32 203.095 202.757 203.175 202.192 203.175H166.364Z" fill="#5959FF"/>
<path d="M184.288 182.931C194.883 182.931 203.785 187.105 206.352 195.959C206.509 196.507 206.557 197.081 206.492 197.648C206.427 198.213 206.251 198.762 205.975 199.26C205.699 199.758 205.328 200.198 204.881 200.551C204.435 200.904 203.924 201.166 203.377 201.322C202.992 201.438 202.593 201.497 202.192 201.497H166.364C165.217 201.492 164.116 201.032 163.304 200.218C162.492 199.403 162.035 198.3 162.029 197.149C162.03 196.745 162.089 196.345 162.205 195.959C164.77 187.105 173.674 182.931 184.268 182.931H184.288ZM184.268 179.538C171.244 179.538 161.776 185.311 158.958 195.004C158.399 196.973 158.638 199.086 159.626 200.88C160.612 202.674 162.266 204.002 164.226 204.578C164.922 204.772 165.642 204.87 166.364 204.87H202.192C204.233 204.87 206.191 204.057 207.635 202.609C209.079 201.161 209.89 199.197 209.89 197.149C209.89 196.423 209.791 195.702 209.598 195.004C206.779 185.311 197.312 179.538 184.288 179.538H184.268Z" fill="black"/>
<path d="M192.608 195.686C192.608 195.686 193.793 198.455 193.385 200.815L192.608 195.686Z" fill="#5959FF"/>
<path d="M193.385 202.511H193.093C192.654 202.434 192.261 202.187 192.003 201.821C191.744 201.456 191.64 201.003 191.713 200.561C191.986 199.04 191.325 197.012 191.052 196.368C190.899 195.959 190.909 195.505 191.08 195.102C191.252 194.7 191.572 194.379 191.974 194.208C192.375 194.037 192.827 194.028 193.235 194.184C193.643 194.339 193.976 194.647 194.162 195.042C194.299 195.374 195.524 198.338 195.057 201.127C194.981 201.515 194.773 201.866 194.468 202.119C194.164 202.371 193.781 202.509 193.385 202.511Z" fill="black"/>
<path d="M178.105 195.686C178.105 195.686 176.317 199.215 176.862 201.497L178.105 195.686Z" fill="#5959FF"/>
<path d="M176.862 203.174C176.484 203.179 176.116 203.054 175.818 202.82C175.522 202.585 175.313 202.257 175.229 201.887C174.549 199.098 176.395 195.335 176.609 194.925C176.708 194.727 176.845 194.551 177.011 194.406C177.179 194.262 177.373 194.152 177.583 194.083C177.792 194.015 178.014 193.988 178.233 194.005C178.453 194.023 178.668 194.083 178.864 194.184C179.063 194.281 179.24 194.418 179.386 194.584C179.532 194.752 179.643 194.945 179.715 195.156C179.785 195.367 179.813 195.589 179.797 195.81C179.781 196.031 179.721 196.248 179.622 196.446C178.981 197.695 178.242 199.956 178.513 201.088C178.62 201.525 178.547 201.986 178.314 202.37C178.081 202.753 177.705 203.029 177.27 203.136C177.137 203.167 176.999 203.18 176.862 203.174Z" fill="black"/>
</g>
</g>
<defs>
<clipPath id="clip0_741_46">
<rect width="256" height="256" fill="white"/>
</clipPath>
</defs>
</svg>
