<svg width="256" height="256" viewBox="0 0 256 256" fill="none" xmlns="http://www.w3.org/2000/svg">
<g clip-path="url(#clip0_2087_9308)">
<mask id="mask0_2087_9308" style="mask-type:luminance" maskUnits="userSpaceOnUse" x="0" y="0" width="256" height="256">
<path d="M256 0H0V256H256V0Z" fill="white"/>
</mask>
<g mask="url(#mask0_2087_9308)">
<path d="M128 256C198.692 256 256 198.692 256 128C256 57.3076 198.692 0 128 0C57.3076 0 0 57.3076 0 128C0 198.692 57.3076 256 128 256Z" fill="#000B11"/>
</g>
<path d="M182.992 120.793L161.177 158.66C154.428 170.38 141.946 177.601 128.445 177.601V177.586L139.353 158.66L150.261 139.734L161.169 120.801L172.084 101.867L182.992 120.793Z" fill="url(#paint0_linear_2087_9308)"/>
<path d="M182.992 120.793L161.177 158.66C154.428 170.38 141.946 177.601 128.445 177.601V177.586L139.353 158.66L150.261 139.734L161.169 120.801L172.084 101.867L182.992 120.793Z" fill="url(#paint1_linear_2087_9308)"/>
<path d="M215.726 101.867L204.818 120.801L193.903 139.734L182.995 158.66L182.987 158.676C176.243 170.388 163.769 177.601 150.276 177.601H128.445C141.946 177.601 154.428 170.38 161.177 158.66L182.992 120.793L172.084 101.867H215.726Z" fill="url(#paint2_linear_2087_9308)"/>
<path d="M172.094 101.868H84.8164L91.7288 89.8669L95.7164 82.9419L139.363 82.9341C152.732 82.9341 165.102 90.0072 171.895 101.52L172.094 101.868Z" fill="url(#paint3_linear_2087_9308)"/>
<path d="M172.094 101.868H84.8164L91.7288 89.8669L95.7164 82.9419L139.363 82.9341C152.732 82.9341 165.102 90.0072 171.895 101.52L172.094 101.868Z" fill="url(#paint4_linear_2087_9308)"/>
<path d="M171.894 101.519C165.098 90.0067 152.728 82.9335 139.362 82.9335L95.7156 82.9413L91.728 89.8664L84.8078 101.859L73.9 82.9335L63 64.0078L84.8078 64L106.623 64.0078H128.47C130.153 64.0078 131.823 64.1195 133.464 64.3325C134.291 64.4442 135.102 64.5766 135.917 64.7481C136.256 64.8156 136.596 64.8884 136.936 64.9689C137.815 65.1689 138.686 65.3975 139.541 65.665C140.309 65.9014 141.071 66.1612 141.823 66.4495C142.259 66.6131 142.686 66.782 143.114 66.9664C144.193 67.4184 145.248 67.9275 146.275 68.4756C146.283 68.4834 146.29 68.4912 146.298 68.4834C148.092 69.4523 149.798 70.5562 151.416 71.7901C151.748 72.0498 152.075 72.3018 152.391 72.5589C153.019 73.0836 153.633 73.6161 154.229 74.172C154.525 74.4525 154.821 74.7409 155.116 75.0292C157.442 77.3514 159.488 80.0009 161.173 82.9231H161.181L171.894 101.519Z" fill="url(#paint5_linear_2087_9308)"/>
<path d="M84.8086 139.734L106.64 177.601H106.632L84.8086 139.734Z" fill="url(#paint6_linear_2087_9308)"/>
<path d="M128.447 177.589V177.604H106.631L84.808 139.737C78.1238 128.137 78.059 113.871 84.6084 102.218L84.808 101.87L88.8035 108.8L95.7158 120.801L106.631 139.735L117.539 158.653L128.447 177.589Z" fill="url(#paint7_linear_2087_9308)"/>
<path d="M128.447 177.589V177.604H106.631L84.808 139.737C78.1238 128.137 78.059 113.871 84.6084 102.218L84.808 101.87L88.8035 108.8L95.7158 120.801L106.631 139.735L117.539 158.653L128.447 177.589Z" fill="url(#paint8_linear_2087_9308)"/>
<path d="M128.447 177.601L106.631 215.448L95.7234 196.53L89.047 184.95L84.8156 177.604L73.9 158.663L73.8922 158.655C73.257 157.559 72.6892 156.434 72.1706 155.296C71.6598 154.156 71.2035 152.995 70.812 151.818C70.7005 151.486 70.5916 151.153 70.4957 150.818C70.3635 150.389 70.2364 149.953 70.1197 149.524C69.6764 147.859 69.3445 146.166 69.1293 144.464C69.0852 144.108 69.0489 143.76 69.01 143.407C68.9737 143.038 68.9426 142.659 68.9219 142.29C68.9141 142.238 68.9141 142.178 68.9141 142.119C68.8856 141.734 68.8622 141.35 68.8545 140.965C68.8545 140.958 68.8545 140.95 68.8545 140.95C68.8389 140.573 68.8311 140.202 68.8311 139.825C68.8233 135.711 69.4819 131.599 70.8094 127.653C71.0765 126.869 71.3643 126.092 71.6806 125.323C71.8362 124.939 72.0047 124.554 72.1758 124.177C72.5232 123.416 72.8914 122.661 73.2829 121.92C73.4826 121.551 73.6822 121.18 73.8948 120.819V120.803L84.603 102.218C78.051 113.87 78.1185 128.136 84.8026 139.737L106.626 177.604H128.447V177.601Z" fill="url(#paint9_linear_2087_9308)"/>
</g>
<defs>
<linearGradient id="paint0_linear_2087_9308" x1="207.487" y1="95.8306" x2="123.074" y2="169.492" gradientUnits="userSpaceOnUse">
<stop stop-color="#02F0FE"/>
<stop offset="1" stop-color="#4D7EFE"/>
</linearGradient>
<linearGradient id="paint1_linear_2087_9308" x1="177.059" y1="114.463" x2="134.201" y2="179.414" gradientUnits="userSpaceOnUse">
<stop stop-color="#4D4AFE"/>
<stop offset="1" stop-color="#4D7EFE" stop-opacity="0"/>
</linearGradient>
<linearGradient id="paint2_linear_2087_9308" x1="212.215" y1="101.248" x2="127.801" y2="174.909" gradientUnits="userSpaceOnUse">
<stop stop-color="#02F0FE"/>
<stop offset="1" stop-color="#4D7EFE"/>
</linearGradient>
<linearGradient id="paint3_linear_2087_9308" x1="63.9161" y1="75.5016" x2="167.347" y2="109.51" gradientUnits="userSpaceOnUse">
<stop stop-color="#02F0FE"/>
<stop offset="1" stop-color="#4D7EFE"/>
</linearGradient>
<linearGradient id="paint4_linear_2087_9308" x1="83.7732" y1="92.5568" x2="169.79" y2="92.2967" gradientUnits="userSpaceOnUse">
<stop stop-color="#4D4AFE"/>
<stop offset="1" stop-color="#4D7EFE" stop-opacity="0"/>
</linearGradient>
<linearGradient id="paint5_linear_2087_9308" x1="66.1901" y1="68.5827" x2="169.621" y2="102.592" gradientUnits="userSpaceOnUse">
<stop stop-color="#02F0FE"/>
<stop offset="1" stop-color="#4D7EFE"/>
</linearGradient>
<linearGradient id="paint6_linear_2087_9308" x1="107.52" y1="215.224" x2="83.9784" y2="102.778" gradientUnits="userSpaceOnUse">
<stop stop-color="#02F0FE"/>
<stop offset="1" stop-color="#4D7EFE"/>
</linearGradient>
<linearGradient id="paint7_linear_2087_9308" x1="117.044" y1="213.23" x2="93.5024" y2="100.784" gradientUnits="userSpaceOnUse">
<stop stop-color="#02F0FE"/>
<stop offset="1" stop-color="#4D7EFE"/>
</linearGradient>
<linearGradient id="paint8_linear_2087_9308" x1="120.814" y1="183.342" x2="77.1336" y2="107.63" gradientUnits="userSpaceOnUse">
<stop stop-color="#4D4AFE"/>
<stop offset="1" stop-color="#4D7EFE" stop-opacity="0"/>
</linearGradient>
<linearGradient id="paint9_linear_2087_9308" x1="109.932" y1="214.757" x2="86.3897" y2="102.311" gradientUnits="userSpaceOnUse">
<stop stop-color="#02F0FE"/>
<stop offset="1" stop-color="#4D7EFE"/>
</linearGradient>
<clipPath id="clip0_2087_9308">
<rect width="256" height="256" fill="white"/>
</clipPath>
</defs>
</svg>
