<svg width="48" height="48" viewBox="0 0 48 48" fill="none" xmlns="http://www.w3.org/2000/svg">
<g clip-path="url(#clip0_5941_8024)">
<path d="M24 48C37.2549 48 48 37.2549 48 24C48 10.7452 37.2549 0 24 0C10.7452 0 0 10.7452 0 24C0 37.2549 10.7452 48 24 48Z" fill="#10B981"/>
<path fill-rule="evenodd" clip-rule="evenodd" d="M24 7.66663C24.7364 7.66663 25.3333 8.26358 25.3333 8.99996V39C25.3333 39.7363 24.7364 40.3333 24 40.3333C23.2636 40.3333 22.6667 39.7363 22.6667 39V8.99996C22.6667 8.26358 23.2636 7.66663 24 7.66663Z" fill="white"/>
<path d="M13.6667 18.75C13.6667 22.3858 16.6141 25.3333 20.25 25.3333H22.6667V22.6666H20.4203C18.1631 22.6666 16.3333 20.9131 16.3333 18.75C16.3333 16.5868 18.1631 14.8333 20.4203 14.8333H22.6667V12.1666H20.25C16.6141 12.1666 13.6667 15.1141 13.6667 18.75Z" fill="white"/>
<path d="M34.3333 29.25C34.3333 25.6141 31.3859 22.6666 27.75 22.6666L25.3333 22.6666V25.3333L27.5797 25.3333C29.8369 25.3333 31.6667 27.0868 31.6667 29.25C31.6667 31.4131 29.8369 33.1666 27.5797 33.1666H25.3333V35.8333H27.75C31.3859 35.8333 34.3333 32.8858 34.3333 29.25Z" fill="white"/>
<path d="M31.5 14.8333C32.2364 14.8333 32.8333 14.2363 32.8333 13.5C32.8333 12.7636 32.2364 12.1666 31.5 12.1666H25.3333V14.8333H31.5Z" fill="white"/>
<path d="M15 33.1666C14.2636 33.1666 13.6667 33.7636 13.6667 34.5C13.6667 35.2363 14.2636 35.8333 15 35.8333H22.6667V33.1666H15Z" fill="white"/>
</g>
<defs>
<clipPath id="clip0_5941_8024">
<rect width="48" height="48" fill="white"/>
</clipPath>
</defs>
</svg>
