<svg width="256" height="256" viewBox="0 0 256 256" fill="none" xmlns="http://www.w3.org/2000/svg">
<g clip-path="url(#clip0_741_46)">
<circle cx="128" cy="128" r="128" fill="#2474DA"/>
<path d="M108.66 181.021C102.724 183.145 96.3243 184.296 89.6405 184.296C58.3596 184.296 33 158.936 33 127.655C33 96.3746 58.3596 71 89.6555 71C96.3243 71 102.724 72.1514 108.675 74.2746C86.7397 82.0948 71.0395 103.029 71.0395 127.655C71.0395 152.282 86.7397 173.216 108.675 181.036L108.66 181.021ZM165.704 71C159.036 71 152.636 72.1514 146.685 74.2746C168.62 82.0948 184.321 103.029 184.321 127.655C184.321 152.282 168.62 173.216 146.685 181.036C152.621 183.16 159.021 184.311 165.704 184.311C196.985 184.311 222.36 158.951 222.36 127.655C222.36 96.3596 196.985 71 165.704 71Z" fill="#F2F2F2"/>
</g>
<defs>
<clipPath id="clip0_741_46">
<rect width="256" height="256" fill="white"/>
</clipPath>
</defs>
</svg>
