<svg width="256" height="256" viewBox="0 0 256 256" fill="none" xmlns="http://www.w3.org/2000/svg">
<g clip-path="url(#clip0_2087_9351)">
<mask id="mask0_2087_9351" style="mask-type:luminance" maskUnits="userSpaceOnUse" x="0" y="0" width="256" height="256">
<path d="M256 0H0V256H256V0Z" fill="white"/>
</mask>
<g mask="url(#mask0_2087_9351)">
<mask id="mask1_2087_9351" style="mask-type:luminance" maskUnits="userSpaceOnUse" x="0" y="0" width="256" height="256">
<path d="M256 0H0V256H256V0Z" fill="white"/>
</mask>
<g mask="url(#mask1_2087_9351)">
<mask id="mask2_2087_9351" style="mask-type:luminance" maskUnits="userSpaceOnUse" x="0" y="0" width="256" height="256">
<path d="M256 0H0V256H256V0Z" fill="white"/>
</mask>
<g mask="url(#mask2_2087_9351)">
<path d="M128 256C198.692 256 256 198.692 256 128C256 57.3076 198.692 0 128 0C57.3076 0 0 57.3076 0 128C0 198.692 57.3076 256 128 256Z" fill="white"/>
<path d="M217.459 128.109C217.459 79.2049 177.635 39.5615 128.516 39.5615C79.3983 39.5615 39.5635 79.2049 39.5635 128.109C39.5635 138.22 41.2697 147.932 44.4011 156.983C44.4213 157.023 44.5918 157.542 44.5918 157.542C45.8565 161.549 39.5837 163.117 39.5837 165.515C39.5837 169.272 52.8116 168.761 52.8116 173.128C52.8116 176.934 39.7241 178.114 39.7241 181.951C39.7241 187.254 68.6994 185.406 69.0707 189.963C69.3516 193.48 59.1045 193.698 59.0443 197.456C58.944 203.461 98.5878 201.491 98.5878 205.487C98.5878 208.515 80.5523 207.416 80.5523 210.993C80.5523 214.569 104.288 216.827 130.454 216.827C156.619 216.827 174.664 213.93 174.664 210.803C174.664 207.676 157.823 208.315 158.174 205.498C158.776 200.572 196.161 203.091 196.161 197.385C196.161 194.379 185.885 193.679 186.216 190.442C186.688 185.867 217.459 186.545 217.459 181.79C217.459 178.054 202.205 177.134 202.234 173.248C202.254 169.281 217.459 169.451 217.358 165.734C217.279 162.878 210.556 162.947 212.663 156.893C215.773 147.871 217.48 138.191 217.48 128.109H217.459ZM189.197 153.256C186.106 160.221 179.16 158.821 178.378 161.749C177.565 164.775 186.939 165.216 186.939 168.383C186.939 172.229 158.365 170.691 158.646 175.766C158.826 178.963 178.939 179.502 178.559 182.84C178.006 187.675 147.395 185.257 147.094 189.893C146.873 193.289 162.038 193.409 162.069 196.507C162.099 199.114 150.165 200.532 127.302 200.532C101.268 200.532 88.6016 199.134 90.0469 196.227C91.3916 193.509 114.445 194.01 114.214 189.733C113.984 185.467 73.276 186.715 72.0515 182.569C71.0278 179.122 85.43 178.413 85.3398 175.136C85.2494 171.8 66.9029 172.558 66.5014 168.512C66.2405 165.866 76.0862 166.023 75.6646 162.687C75.3535 160.261 71.2888 160.6 68.88 155.595C64.9958 147.232 62.808 137.921 62.808 128.099C62.808 91.9732 92.2349 62.6802 128.526 62.6802C164.818 62.6802 194.245 91.9732 194.245 128.099C194.245 137.011 192.448 145.503 189.206 153.246L189.197 153.256Z" fill="black"/>
</g>
</g>
</g>
</g>
<defs>
<clipPath id="clip0_2087_9351">
<rect width="256" height="256" fill="white"/>
</clipPath>
</defs>
</svg>
