<svg width="256" height="256" viewBox="0 0 256 256" fill="none" xmlns="http://www.w3.org/2000/svg">
<g clip-path="url(#clip0_741_46)">
<circle cx="128" cy="128" r="128" fill="white"/>
<path d="M231.928 84.083C226.21 70.6611 218.124 58.621 207.671 48.1598C197.22 37.6987 185.387 29.6061 171.977 23.8821C157.976 17.9607 143.185 15 128 15C112.618 15 97.8273 17.9607 84.0226 23.8821C70.6125 29.6061 58.5829 37.6987 48.1309 48.1598C37.6789 58.621 29.5934 70.6611 23.8743 84.083C17.9581 97.8996 15 112.703 15 128.099C15 143.297 17.9581 158.1 23.8743 172.114C29.5934 185.536 37.6789 197.576 48.1309 208.038C58.5829 218.499 70.6125 226.591 84.0226 232.118C98.0243 238.039 112.815 241 128 241C143.185 241 157.976 238.039 171.977 232.118C185.387 226.394 197.417 218.301 207.869 207.84C218.321 197.379 226.407 185.339 232.126 171.917C238.042 157.903 241 143.1 241 127.901C241 112.703 237.845 97.8996 231.928 84.083ZM90.5306 117.44C95.0662 99.281 111.632 86.0565 131.155 86.0565H209.644C214.771 95.7286 217.926 106.387 219.11 117.44H90.5306ZM219.11 138.757C217.926 149.81 214.574 160.469 209.644 170.141H131.155C111.632 170.141 95.2633 156.719 90.5306 138.757H219.11ZM63.1186 63.1607C80.4729 45.7913 103.546 36.317 128 36.317C152.454 36.317 175.527 45.7913 192.881 63.1607C193.473 63.7529 193.868 64.1476 194.459 64.7398H131.155C114.195 64.7398 98.4191 71.2533 86.389 83.2935C76.9231 92.768 70.8097 104.61 68.8376 117.44H36.89C39.2565 96.913 48.3281 77.9642 63.1186 63.1607ZM128 219.88C103.546 219.88 80.4729 210.406 63.1186 193.036C48.3281 178.233 39.2565 159.087 36.89 138.757H68.8376C71.007 151.587 77.1204 163.43 86.389 172.904C98.4191 184.944 114.195 191.458 131.155 191.458H194.459C193.868 192.05 193.473 192.445 192.881 193.036C175.527 210.406 152.454 219.88 128 219.88Z" fill="black"/>
</g>
<defs>
<clipPath id="clip0_741_46">
<rect width="256" height="256" fill="white"/>
</clipPath>
</defs>
</svg>
