<svg width="301" height="300" viewBox="0 0 301 300" fill="none" xmlns="http://www.w3.org/2000/svg">
<rect x="0.934448" width="300" height="300" fill="black"/>
<path d="M86.8013 117.442L53.7454 100.612C51.1598 105.692 48.9577 111.018 47.2054 116.443L82.502 127.856C83.6555 124.288 85.0987 120.784 86.8013 117.442Z" fill="white"/>
<path d="M114.881 87.7798L133.19 119.327C135.864 117.777 138.726 116.584 141.703 115.784L132.227 80.5581C134.638 79.9096 137.089 79.3742 139.554 78.9851L133.731 42.3464C128.099 43.2405 122.503 44.59 117.094 46.3533L128.416 81.0548C124.815 82.2304 121.308 83.6902 117.93 85.4177L101.287 52.9321C96.2266 55.5261 91.3313 58.5395 86.7312 61.8979L108.6 91.8615C110.614 90.3932 112.722 89.0355 114.881 87.7798Z" fill="white"/>
<path d="M213.131 113.918L181.596 132.244C183.149 134.915 184.341 137.78 185.145 140.752L220.366 131.259C221.015 133.671 221.551 136.119 221.942 138.58L258.574 132.746C257.678 127.117 256.325 121.518 254.557 116.107L219.861 127.451C218.683 123.85 217.223 120.345 215.493 116.967L247.967 100.303C245.373 95.247 242.354 90.3514 238.996 85.7539L209.042 107.638C210.512 109.652 211.876 111.757 213.131 113.918Z" fill="white"/>
<path d="M200.271 52.7836C195.186 50.2007 189.86 48.0013 184.44 46.2517L173.046 81.5548C176.611 82.7056 180.116 84.1515 183.463 85.8514L200.271 52.7836Z" fill="white"/>
<path d="M187.1 87.1335L168.581 119.274C171.263 120.82 173.736 122.713 175.935 124.903L227.874 72.7865C223.845 68.7713 219.469 65.0432 214.866 61.7041L193.444 91.248C191.402 89.7689 189.285 88.3946 187.1 87.1335Z" fill="white"/>
<path d="M88.0895 113.801L120.221 132.34C121.766 129.661 123.665 127.186 125.859 124.983L73.765 73.0237C69.7472 77.0526 66.0164 81.4265 62.6774 86.0267L92.2094 107.463C90.7304 109.502 89.3506 111.616 88.0895 113.801Z" fill="white"/>
<path d="M162.179 78.3618L167.783 42.297C162.245 41.436 156.577 41 150.934 41H150.848V114.581H150.934C154.036 114.581 157.104 114.978 160.057 115.762L169.571 79.9071C167.137 79.2614 164.67 78.7509 162.179 78.3618Z" fill="white"/>
<path d="M116.697 140.857L80.8488 131.318C80.2003 133.752 79.687 136.219 79.2979 138.711L43.2397 133.089C42.3732 138.647 41.9344 144.337 41.9344 149.997H115.513C115.513 146.89 115.911 143.813 116.697 140.857Z" fill="white"/>
<path d="M215.067 182.564L248.123 199.394C250.709 194.314 252.911 188.988 254.663 183.563L219.367 172.149C218.213 175.717 216.77 179.222 215.067 182.564Z" fill="white"/>
<path d="M186.986 212.219L168.677 180.671C166.003 182.222 163.142 183.414 160.164 184.214L169.641 219.44C167.226 220.089 164.778 220.624 162.314 221.014L168.133 257.649C173.766 256.755 179.362 255.405 184.771 253.642L173.449 218.941C177.052 217.765 180.557 216.305 183.935 214.578L200.577 247.063C205.638 244.469 210.533 241.456 215.133 238.098L193.264 208.134C191.25 209.602 189.145 210.963 186.986 212.219Z" fill="white"/>
<path d="M88.7391 186.089L120.277 167.763C118.724 165.092 117.531 162.227 116.729 159.256L81.5065 168.748C80.858 166.336 80.3227 163.889 79.9308 161.427L43.2958 167.261C44.1927 172.891 45.5448 178.49 47.3137 183.901L82.0087 172.556C83.187 176.158 84.6468 179.663 86.377 183.04L53.9033 199.705C56.4972 204.761 59.5161 209.656 62.8744 214.253L92.8287 192.37C91.3578 190.356 89.9946 188.25 88.7391 186.089Z" fill="white"/>
<path d="M101.597 247.219C106.683 249.803 112.009 252.002 117.429 253.752L128.823 218.448C125.257 217.297 121.753 215.851 118.405 214.151L101.597 247.219Z" fill="white"/>
<path d="M114.769 212.874L133.288 180.734C130.606 179.188 128.133 177.295 125.933 175.104L73.9945 227.221C78.0234 231.236 82.3999 234.964 87.0027 238.304L108.425 208.76C110.467 210.239 112.583 211.613 114.769 212.874Z" fill="white"/>
<path d="M213.778 186.205L181.646 167.667C180.101 170.346 178.202 172.822 176.009 175.023L228.1 226.986C232.118 222.957 235.848 218.583 239.188 213.983L209.655 192.547C211.135 190.508 212.517 188.391 213.778 186.205Z" fill="white"/>
<path d="M141.812 184.238L132.297 220.093C134.731 220.739 137.198 221.25 139.69 221.639L134.088 257.703C139.626 258.564 145.294 259 150.937 259H151.023V185.419H150.937C147.836 185.419 144.764 185.022 141.812 184.238Z" fill="white"/>
<path d="M186.356 150.006C186.356 153.113 185.956 156.187 185.169 159.145L221.018 168.685C221.666 166.251 222.18 163.784 222.568 161.292L258.63 166.916C259.496 161.358 259.934 155.668 259.934 150.008L186.356 150.006Z" fill="white"/>
</svg>
