<svg width="781" height="778" viewBox="0 0 781 778" fill="none" xmlns="http://www.w3.org/2000/svg">
<g clip-path="url(#clip0_2087_9369)">
<mask id="mask0_2087_9369" style="mask-type:luminance" maskUnits="userSpaceOnUse" x="0" y="0" width="781" height="778">
<path d="M781 0H0V778H781V0Z" fill="white"/>
</mask>
<g mask="url(#mask0_2087_9369)">
<path d="M2.4248 389C2.4248 603.839 176.677 778 391.626 778C606.578 778 780.829 603.839 780.829 389C780.829 174.161 606.578 0 391.626 0C176.677 0 2.4248 174.161 2.4248 389Z" fill="white"/>
<path d="M184 283.362L77.1416 229C68.7832 245.409 61.6646 262.612 56 280.135L170.102 317C173.831 305.475 178.496 294.157 184 283.362Z" fill="black"/>
<path d="M275.15 187.958L334.435 290C343.093 284.986 352.36 281.128 362 278.54L331.316 164.599C339.123 162.501 347.06 160.769 355.041 159.511L336.186 41C317.95 43.892 299.83 48.2571 282.315 53.9606L318.976 166.205C307.316 170.008 295.96 174.73 285.022 180.317L231.132 75.2402C214.746 83.6307 198.895 93.3778 184 104.241L254.812 201.16C261.333 196.411 268.159 192.019 275.15 187.958Z" fill="black"/>
<path d="M593.006 272.152L491 331.464C496.023 340.109 499.879 349.381 502.48 359L616.409 328.276C618.508 336.083 620.242 344.005 621.507 351.97L740 333.089C737.102 314.871 732.725 296.75 727.006 279.237L614.775 315.952C610.965 304.297 606.242 292.953 600.646 282.02L705.69 228.088C697.299 211.724 687.533 195.88 676.671 181L579.779 251.827C584.534 258.346 588.946 265.158 593.006 272.152Z" fill="black"/>
<path d="M551 75.1134C534.564 66.7645 517.348 59.6553 499.829 54L463 168.112C474.523 171.832 485.853 176.505 496.671 182L551 75.1134Z" fill="black"/>
<path d="M508.655 186.084L449 289.83C457.64 294.82 465.606 300.931 472.689 308L640 139.773C627.021 126.812 612.925 114.778 598.097 104L529.091 199.365C522.513 194.59 515.694 190.154 508.655 186.084Z" fill="black"/>
<path d="M188.452 271.991L292.707 332C297.72 323.328 303.881 315.317 311 308.186L141.975 140C128.939 153.041 116.834 167.199 106 182.089L201.82 251.476C197.021 258.076 192.544 264.919 188.452 271.991Z" fill="black"/>
<path d="M427.917 157.438L446.175 41.181C428.132 38.4055 409.665 37 391.28 37H391V274.193H391.28C401.387 274.193 411.382 275.473 421.003 278L452 162.419C444.07 160.338 436.032 158.692 427.917 157.438Z" fill="black"/>
<path d="M281 359.641L164.963 329C162.864 336.818 161.202 344.743 159.942 352.748L43.2251 334.689C40.4204 352.542 39 370.819 39 389H277.167C277.167 379.02 278.456 369.136 281 359.641Z" fill="black"/>
<path d="M599 494.64L705.858 549C714.218 532.592 721.336 515.389 727 497.867L612.9 461C609.17 472.524 604.505 483.845 599 494.64Z" fill="black"/>
<path d="M507.855 590.048L448.567 488C439.908 493.017 430.643 496.873 421 499.461L451.688 613.406C443.868 615.505 435.941 617.236 427.962 618.497L446.805 737C465.046 734.108 483.167 729.741 500.682 724.039L464.019 611.792C475.687 607.988 487.036 603.265 497.975 597.679L551.865 702.758C568.253 694.367 584.104 684.621 599 673.759L528.184 576.834C521.662 581.583 514.846 585.985 507.855 590.048Z" fill="black"/>
<path d="M190.989 505.846L293 446.533C287.977 437.888 284.118 428.616 281.524 419L167.595 449.721C165.497 441.915 163.766 433.995 162.498 426.027L44 444.909C46.9011 463.13 51.2745 481.252 56.9961 498.765L169.219 462.046C173.03 473.704 177.752 485.048 183.349 495.978L78.3106 549.915C86.7007 566.279 96.4655 582.122 107.328 597L204.217 526.175C199.459 519.656 195.05 512.84 190.989 505.846Z" fill="black"/>
<path d="M232 702.884C248.439 711.236 265.654 718.344 283.172 724L320 609.889C308.474 606.169 297.148 601.495 286.327 596L232 702.884Z" fill="black"/>
<path d="M275.033 591.916L335 488.173C326.315 483.182 318.307 477.072 311.184 470L143 638.226C156.046 651.186 170.218 663.219 185.122 674L254.49 578.636C261.103 583.41 267.955 587.845 275.033 591.916Z" fill="black"/>
<path d="M594.953 506.003L491.201 446C486.213 454.671 480.081 462.685 473 469.809L641.198 638C654.172 624.959 666.215 610.802 677 595.913L581.64 526.53C586.419 519.93 590.881 513.078 594.953 506.003Z" fill="black"/>
<path d="M361.995 500L331 615.581C338.929 617.663 346.965 619.311 355.083 620.564L336.834 736.819C354.874 739.595 373.338 741 391.72 741H392V503.807H391.72C381.618 503.807 371.611 502.527 361.995 500Z" fill="black"/>
<path d="M505.842 389C505.842 398.98 504.547 408.854 502 418.356L618.036 449C620.134 441.182 621.798 433.257 623.053 425.253L739.779 443.318C742.582 425.464 744 407.187 744 389.006L505.842 389Z" fill="black"/>
</g>
</g>
<defs>
<clipPath id="clip0_2087_9369">
<rect width="781" height="778" fill="white"/>
</clipPath>
</defs>
</svg>
