<svg id="Layer_1" data-name="Layer 1" xmlns="http://www.w3.org/2000/svg" viewBox="0 0 272.13 272.13"><defs><style>.cls-1{fill:none;}.cls-2{fill:#ffdd52;}.cls-3{fill:#f0ba15;}.cls-4{fill:#b6a28d;}.cls-5{fill:#6b5c53;}.cls-6{fill:#312a1d;}.cls-7{fill:#352b1c;}</style></defs><line class="cls-1" x1="224.75" y1="47.6" x2="224.75" y2="47.6"/><line class="cls-1" x1="29.65" y1="207.04" x2="29.65" y2="207.04"/><line class="cls-1" x1="224.65" y1="224.91" x2="224.65" y2="224.91"/><line class="cls-2" x1="207.02" y1="47.56" x2="207.02" y2="47.59"/><polygon class="cls-2" points="226.11 65.31 224.74 65.3 224.74 65.33 226.11 65.33 226.11 65.31"/><line class="cls-2" x1="171.57" y1="29.81" x2="171.57" y2="29.84"/><line class="cls-2" x1="100.56" y1="242.54" x2="100.56" y2="242.54"/><rect class="cls-2" x="29.67" y="171.58" transform="translate(-142.17 199.66) rotate(-89.47)"/><rect class="cls-2" x="46.02" y="207.05" width="1.37"/><line class="cls-2" x1="65.11" y1="224.79" x2="65.11" y2="224.79"/><polygon class="cls-2" points="242.41 171.7 242.45 100.8 224.72 100.79 224.73 83.06 224.74 65.33 207.01 65.32 207.02 47.59 171.56 47.57 171.57 29.84 100.68 29.77 100.67 47.5 65.21 47.48 65.2 65.21 47.47 65.2 47.45 100.66 29.72 100.65 29.71 118.38 29.68 171.57 47.41 171.59 47.38 207.05 65.12 207.06 65.11 224.79 100.57 224.81 100.56 242.54 171.45 242.6 171.46 224.88 206.92 224.87 206.93 207.16 224.66 207.15 224.68 171.71 242.41 171.7"/><polygon class="cls-3" points="171.57 29.84 171.57 29.81 171.58 12.11 100.69 12.04 100.68 29.77 171.57 29.84"/><polygon class="cls-3" points="100.56 242.54 100.56 242.54 100.55 260.27 171.44 260.34 171.45 242.6 100.56 242.54"/><polygon class="cls-3" points="100.67 47.5 100.68 29.77 100.68 29.77 65.22 29.75 65.21 47.48 100.67 47.5"/><polygon class="cls-3" points="100.56 224.81 65.11 224.79 65.11 224.79 65.09 242.52 100.56 242.54 100.56 224.81"/><polygon class="cls-3" points="65.2 65.21 65.21 47.48 65.21 47.48 53.42 47.47 47.48 47.47 47.47 53.41 47.47 65.2 65.2 65.21"/><polygon class="cls-3" points="47.38 207.05 47.38 207.05 47.38 224.78 65.11 224.79 65.12 207.06 47.38 207.05"/><polygon class="cls-3" points="47.45 100.66 47.47 65.2 47.47 65.2 29.74 65.19 29.72 100.65 47.45 100.66"/><polygon class="cls-3" points="29.72 100.65 29.72 100.65 11.99 100.64 11.94 171.56 29.68 171.57 29.68 171.57 29.72 100.65"/><polygon class="cls-3" points="207.02 47.59 207.02 47.56 207.03 29.86 207.03 29.86 171.57 29.84 171.56 47.57 207.02 47.59"/><polygon class="cls-3" points="171.45 224.88 171.45 242.58 171.45 242.6 206.91 242.63 206.92 224.9 171.45 224.88"/><polygon class="cls-3" points="207.01 65.32 224.74 65.33 224.74 65.3 224.75 47.6 207.02 47.59 207.01 65.32"/><polygon class="cls-3" points="206.92 207.16 206.92 224.87 206.92 224.9 224.65 224.91 224.65 224.91 224.66 207.18 206.92 207.16"/><rect class="cls-3" x="224.73" y="65.33" width="17.73" height="35.46"/><polygon class="cls-3" points="242.38 171.71 224.65 171.73 224.69 207.17 224.65 207.19 242.38 207.17 242.38 171.71"/><polygon class="cls-3" points="242.41 171.7 242.41 171.72 260.14 171.73 260.18 100.81 242.45 100.8 242.41 171.7"/><polygon class="cls-3" points="47.41 171.59 29.68 171.57 29.68 171.57 29.66 189.31 29.65 207.04 47.38 207.05 47.41 171.59"/><rect class="cls-4" x="76.2" y="83.73" width="119.74" height="105.96" transform="translate(-0.59 0.59) rotate(-0.25)"/><rect class="cls-5" x="76.36" y="172.24" width="21.11" height="7.11" transform="translate(-0.76 0.38) rotate(-0.25)"/><rect class="cls-5" x="175" y="171.81" width="21.11" height="7.11" transform="translate(-0.76 0.81) rotate(-0.25)"/><rect class="cls-5" x="97.51" y="182.58" width="77.53" height="7.11" transform="matrix(1, 0, 0, 1, -0.8, 0.59)"/><rect class="cls-6" x="107.65" y="83.73" width="56.42" height="10.34" transform="translate(-0.38 0.59) rotate(-0.25)"/><polygon class="cls-6" points="185.29 115.39 195.84 115.34 195.71 83.47 195.66 73.13 185.11 73.18 164 73.27 164.05 83.61 185.15 83.51 185.29 115.39"/><rect class="cls-6" x="195.98" y="115.32" width="10.55" height="63.53" transform="translate(-0.64 0.87) rotate(-0.25)"/><polygon class="cls-6" points="86.52 83.94 107.62 83.85 107.58 73.51 86.47 73.6 75.92 73.65 75.97 83.99 76.1 115.86 86.66 115.81 86.52 83.94"/><polygon class="cls-6" points="86.93 179.34 76.38 179.39 76.42 189.94 86.98 189.9 97.53 189.85 97.48 179.3 86.93 179.34"/><rect class="cls-6" x="97.55" y="189.68" width="77.53" height="10.55" transform="translate(-0.84 0.59) rotate(-0.25)"/><polygon class="cls-6" points="175.01 178.96 175.06 189.52 185.61 189.47 196.16 189.43 196.12 178.87 185.57 178.92 175.01 178.96"/><rect class="cls-6" x="65.69" y="115.88" width="10.55" height="63.53" transform="translate(-0.64 0.31) rotate(-0.25)"/><polygon class="cls-5" points="174.62 87.22 171.17 87.23 171.2 94.34 174.65 94.33 174.66 97.77 181.77 97.74 181.75 94.3 181.72 87.19 174.62 87.22"/><polygon class="cls-5" points="100.75 87.54 97.3 87.56 90.2 87.59 90.23 94.69 90.24 98.14 97.35 98.11 97.33 94.66 100.78 94.65 100.75 87.54"/><rect class="cls-6" x="107.86" y="133.36" width="10.77" height="10.77" transform="translate(-0.6 0.49) rotate(-0.25)"/><rect class="cls-6" x="121.9" y="143.86" width="7.11" height="7.11" transform="translate(-0.64 0.54) rotate(-0.25)"/><rect class="cls-6" x="143.22" y="143.77" width="7.11" height="7.11" transform="translate(-0.64 0.64) rotate(-0.25)"/><polygon class="cls-6" points="150.4 164.86 143.29 164.89 143.28 161.44 129.07 161.5 129.08 164.95 121.97 164.98 121.91 150.98 114.81 151.01 114.91 175.56 122.02 175.53 122.04 179.19 129.14 179.16 129.16 182.61 132.6 182.59 132.62 186.04 139.72 186.01 139.71 182.56 143.37 182.55 143.36 179.1 150.46 179.07 150.45 175.41 157.55 175.38 157.45 150.83 150.34 150.86 150.4 164.86"/><rect class="cls-6" x="153.52" y="133.16" width="10.77" height="10.77" transform="translate(-0.6 0.69) rotate(-0.25)"/><path class="cls-7" d="M271.91,100.56A11.8,11.8,0,0,0,260.2,88.78h-6l0-23.67a11.78,11.78,0,0,0-11.7-11.77h-6.05V47.41a11.78,11.78,0,0,0-11.7-11.77h-6V29.7a11.79,11.79,0,0,0-11.7-11.77h-.11l-23.67,0V12A11.78,11.78,0,0,0,171.43.25h-.1L100.44.32a11.78,11.78,0,0,0-11.78,11.8v6L65,18.1A11.8,11.8,0,0,0,53.22,29.9v5.94H47.29A11.79,11.79,0,0,0,35.52,47.66V53.6h-6a11.78,11.78,0,0,0-11.77,11.8l0,17.73h0v5.94H11.9A11.79,11.79,0,0,0,.13,100.9l.09,70.92a11.78,11.78,0,0,0,11.7,11.77h6l0,23.67A11.8,11.8,0,0,0,29.7,219h6.05V225a11.78,11.78,0,0,0,11.7,11.78h6v5.94a11.78,11.78,0,0,0,11.7,11.77h.11l23.67,0v5.94a11.78,11.78,0,0,0,11.7,11.78h.1l70.89-.07a11.81,11.81,0,0,0,11.78-11.81v-5.94h5.94l17.73,0a11.8,11.8,0,0,0,11.77-11.81v-5.94h5.94a11.78,11.78,0,0,0,11.77-11.8v-5.94h5.94A11.78,11.78,0,0,0,254.32,207l0-17.73v-5.94h5.94A11.78,11.78,0,0,0,272,171.48Zm-29.5,71.16,0,35.47-17.73,0v17.74H206.92v17.73l-35.46,0v17.73l-70.89-.07V242.54l-35.46,0V224.79H47.37l0-17.73H29.65l0-35.46h0l-17.73,0L12,100.64H29.72l0-35.46H47.47V47.47H65.21V29.75l35.46,0V12l70.89.07v17.7l35.46.05h0v17.7l17.73,0h0V65.3l17.73,0,0,35.46h17.73l0,70.92Z"/></svg>