<svg width="256" height="256" viewBox="0 0 256 256" fill="none" xmlns="http://www.w3.org/2000/svg">
<circle cx="127" cy="128" r="125" fill="black"/>
<path d="M46 74H73.6296L95.3401 144.987L110.138 108.352C112.083 103.553 116.734 100.425 121.892 100.425H132.419C137.598 100.425 142.249 103.553 144.173 108.352L158.971 144.987L167.11 118.393H194.739L177.447 174.942C175.819 180.269 170.893 183.926 165.313 183.926H155.631C150.451 183.926 145.8 180.798 143.877 175.999L127.156 134.629L110.434 175.999C108.489 180.798 103.838 183.926 98.6802 183.926H88.9982C83.4173 183.926 78.4917 180.29 76.864 174.942L46 74Z" fill="white"/>
<path d="M172.606 100.425L180.681 74H208.332L200.235 100.425H172.606Z" fill="white"/>
</svg>
