<svg width="501" height="501" viewBox="0 0 501 501" fill="none" xmlns="http://www.w3.org/2000/svg">
<g clip-path="url(#clip0_2642_10341)">
<path d="M250.703 0.399902C388.837 0.399902 500.801 112.342 500.801 250.449C500.801 388.557 388.837 500.4 250.801 500.4C112.666 500.4 0.800846 388.458 0.800846 250.449C0.702459 112.342 112.666 0.399902 250.703 0.399902Z" fill="#8247E5"/>
<mask id="mask0_2642_10341" style="mask-type:luminance" maskUnits="userSpaceOnUse" x="85" y="108" width="328" height="288">
<path d="M412.842 108.527H85.1172V395.717H412.842V108.527Z" fill="white"/>
</mask>
<g mask="url(#mask0_2642_10341)">
<path d="M332.656 195.992C326.655 192.549 318.981 192.549 312.192 195.992L264.376 224.328L231.909 242.332L184.978 270.569C178.977 274.013 171.303 274.013 164.514 270.569L127.816 248.235C121.814 244.792 117.584 237.905 117.584 230.231V187.334C117.584 180.447 121.027 173.659 127.816 169.33L164.514 147.881C170.516 144.438 178.19 144.438 184.978 147.881L221.677 170.215C227.678 173.659 231.909 180.546 231.909 188.22V216.555L264.376 197.665V168.542C264.376 161.655 260.933 154.867 254.144 150.538L185.864 110.199C179.862 106.756 172.188 106.756 165.4 110.199L95.447 151.423C88.6583 154.867 85.2148 161.754 85.2148 168.542V249.121C85.2148 256.008 88.6583 262.797 95.447 267.126L164.612 307.464C170.614 310.908 178.288 310.908 185.077 307.464L232.007 280.014L264.475 261.124L311.405 233.674C317.407 230.231 325.081 230.231 331.869 233.674L368.568 255.123C374.569 258.566 378.8 265.453 378.8 273.127V316.024C378.8 322.911 375.356 329.699 368.568 334.028L332.755 355.477C326.753 358.92 319.079 358.92 312.29 355.477L275.494 334.028C269.492 330.585 265.262 323.698 265.262 316.024V288.574L232.794 307.464V335.799C232.794 342.686 236.238 349.475 243.026 353.804L312.192 394.143C318.194 397.586 325.868 397.586 332.656 394.143L401.822 353.804C407.824 350.361 412.054 343.474 412.054 335.799V254.335C412.054 247.448 408.611 240.66 401.822 236.331L332.656 195.992Z" fill="white"/>
</g>
</g>
<defs>
<clipPath id="clip0_2642_10341">
<rect width="501" height="501" fill="white"/>
</clipPath>
</defs>
</svg>
