<svg width="256" height="256" viewBox="0 0 256 256" fill="none" xmlns="http://www.w3.org/2000/svg">
<path d="M254 128C254 197.588 197.588 254 128 254C58.4121 254 2 197.588 2 128C2 58.4121 58.4121 2 128 2C197.588 2 254 58.4121 254 128Z" fill="#57A6EF"/>
<path d="M128.421 152.988L65.7311 117.179L64.0191 119.805C44.7107 149.424 49.023 188.215 74.3864 213.067C104.233 242.311 152.624 242.311 182.471 213.067C207.835 188.215 212.147 149.424 192.838 119.805L191.126 117.178L128.421 152.988Z" fill="url(#paint0_radial_741_46)"/>
<path opacity="0.6" d="M128.501 73.0005L74.4617 103.9L128.501 134.761L182.501 103.9L128.501 73.0005Z" fill="url(#paint1_radial_741_46)"/>
<path d="M128.572 81.061L65.778 117.192L128.431 153.018L191.144 117.181L128.572 81.061Z" fill="url(#paint2_diamond_741_46)"/>
<path d="M128.501 21.041L74.4617 103.901L128.501 134.761V21.041Z" fill="url(#paint3_linear_741_46)"/>
<path d="M128.497 134.766L182.541 103.901L128.5 21L128.497 134.766Z" fill="url(#paint4_linear_741_46)"/>
<defs>
<radialGradient id="paint0_radial_741_46" cx="0" cy="0" r="1" gradientUnits="userSpaceOnUse" gradientTransform="translate(128.36 235.054) rotate(-90) scale(101.728 132.953)">
<stop offset="0.203695" stop-color="#56F2FF"/>
<stop offset="1" stop-color="#4A8CEA"/>
</radialGradient>
<radialGradient id="paint1_radial_741_46" cx="0" cy="0" r="1" gradientUnits="userSpaceOnUse" gradientTransform="translate(128.482 103.88) rotate(90.1607) scale(30.7966 58.305)">
<stop stop-color="#EEFF83"/>
<stop offset="0.689596" stop-color="#5699EC"/>
</radialGradient>
<radialGradient id="paint2_diamond_741_46" cx="0" cy="0" r="1" gradientUnits="userSpaceOnUse" gradientTransform="translate(128.461 117.039) rotate(90.16) scale(35.881 67.6553)">
<stop stop-color="#56F2FF"/>
<stop offset="1" stop-color="#5699EC"/>
</radialGradient>
<linearGradient id="paint3_linear_741_46" x1="101.481" y1="21.041" x2="101.481" y2="134.761" gradientUnits="userSpaceOnUse">
<stop offset="0.377179" stop-color="#FFE336"/>
<stop offset="1" stop-color="#13C0B6" stop-opacity="0.7"/>
</linearGradient>
<linearGradient id="paint4_linear_741_46" x1="155.519" y1="21" x2="155.519" y2="134.766" gradientUnits="userSpaceOnUse">
<stop offset="0.408817" stop-color="#FF7F72"/>
<stop offset="1" stop-color="#2978EF" stop-opacity="0.7"/>
</linearGradient>
</defs>
</svg>
