<svg width="256" height="256" viewBox="0 0 256 256" fill="none" xmlns="http://www.w3.org/2000/svg">
<circle cx="128.5" cy="128.5" r="126.5" fill="white"/>
<path d="M107.252 43.5475C116.203 26.8175 140.189 26.8175 149.14 43.5475L216.428 169.308C228.269 191.44 202.16 214.421 181.711 199.867L141.97 171.583C133.725 165.714 122.667 165.714 114.422 171.583L74.6817 199.867C54.2321 214.421 28.1226 191.44 39.964 169.308L107.252 43.5475Z" fill="url(#paint0_linear_741_46)"/>
<mask id="mask0_741_46" style="mask-type:alpha" maskUnits="userSpaceOnUse" x="37" y="31" width="183" height="174">
<path d="M107.252 43.5475C116.203 26.8175 140.189 26.8175 149.14 43.5475L216.428 169.308C228.269 191.44 202.16 214.421 181.711 199.867L141.97 171.583C133.725 165.714 122.667 165.714 114.422 171.583L74.6817 199.867C54.2321 214.421 28.1226 191.44 39.964 169.308L107.252 43.5475Z" fill="url(#paint1_linear_741_46)"/>
</mask>
<g mask="url(#mask0_741_46)">
<path d="M14.1773 99.514C14.1773 81.8934 24.6662 65.9642 40.853 59.0025C57.9749 51.6381 77.8775 55.8332 90.5708 69.4813L91.8837 70.8934C109.829 90.1888 140.153 90.8887 158.969 72.4419L163.221 68.2728C176.546 55.2094 196.394 51.385 213.619 58.5622C230.933 65.7763 242.212 82.6936 242.212 101.451V185.087H14.1773V99.514Z" fill="url(#paint2_linear_741_46)"/>
<path d="M14.1773 127.426C14.1773 109.806 24.6662 93.8767 40.853 86.9146C57.9749 79.5502 77.8775 83.7453 90.5708 97.3936L91.8837 98.8057C109.829 118.101 140.153 118.801 158.969 100.354L163.221 96.1854C176.546 83.1215 196.394 79.2971 213.619 86.4743C230.933 93.6888 242.212 110.606 242.212 129.363V212.999H14.1773V127.426Z" fill="url(#paint3_linear_741_46)"/>
<path d="M14.1773 155.336C14.1773 137.716 24.6662 121.787 40.853 114.825C57.9749 107.46 77.8775 111.655 90.5708 125.304L91.8837 126.716C109.829 146.011 140.153 146.711 158.969 128.264L163.221 124.096C176.546 111.032 196.394 107.207 213.619 114.384C230.933 121.599 242.212 138.516 242.212 157.274V240.909H14.1773V155.336Z" fill="url(#paint4_linear_741_46)"/>
</g>
<defs>
<linearGradient id="paint0_linear_741_46" x1="274.657" y1="4.40301" x2="23.0322" y2="294.399" gradientUnits="userSpaceOnUse">
<stop stop-color="#FF6746"/>
<stop offset="1" stop-color="#FF0546"/>
</linearGradient>
<linearGradient id="paint1_linear_741_46" x1="128.196" y1="51.6481" x2="128.196" y2="204.432" gradientUnits="userSpaceOnUse">
<stop stop-color="#FF6746"/>
<stop offset="1" stop-color="#FF0546"/>
</linearGradient>
<linearGradient id="paint2_linear_741_46" x1="128.195" y1="70.476" x2="128.195" y2="185.087" gradientUnits="userSpaceOnUse">
<stop stop-color="#FF6746"/>
<stop offset="1" stop-color="#FF0546"/>
</linearGradient>
<linearGradient id="paint3_linear_741_46" x1="128.195" y1="98.3881" x2="128.195" y2="212.999" gradientUnits="userSpaceOnUse">
<stop stop-color="#FF6746"/>
<stop offset="1" stop-color="#FF0546"/>
</linearGradient>
<linearGradient id="paint4_linear_741_46" x1="128.195" y1="126.298" x2="128.195" y2="240.909" gradientUnits="userSpaceOnUse">
<stop stop-color="#FF6746"/>
<stop offset="1" stop-color="#FF0546"/>
</linearGradient>
</defs>
</svg>
