<svg width="256" height="256" viewBox="0 0 256 256" fill="none" xmlns="http://www.w3.org/2000/svg">
<g clip-path="url(#clip0_2087_9391)">
<path d="M128 256C198.693 256 256 198.693 256 128C256 57.3076 198.693 0 128 0C57.3076 0 0 57.3076 0 128C0 198.693 57.3076 256 128 256Z" fill="black"/>
<path d="M176.874 68.2666H196.71L155.43 109.113C140.48 123.897 116.243 123.897 101.283 109.113L59.9863 68.2666H79.8384L111.2 99.2947C115.77 103.796 121.929 106.318 128.344 106.318C134.76 106.318 140.918 103.796 145.487 99.2947L176.874 68.2666Z" fill="white"/>
<path d="M79.5818 181.851H59.7324L101.28 140.753C116.23 125.968 140.467 125.968 155.428 140.753L196.976 181.851H177.14L145.509 150.571C140.94 146.07 134.782 143.547 128.366 143.547C121.951 143.547 115.792 146.07 111.223 150.571L79.5818 181.851Z" fill="white"/>
</g>
<defs>
<clipPath id="clip0_2087_9391">
<rect width="256" height="256" fill="white"/>
</clipPath>
</defs>
</svg>
