<svg width="256" height="256" viewBox="0 0 256 256" fill="none" xmlns="http://www.w3.org/2000/svg">
<circle cx="127" cy="128" r="125" fill="black"/>
<g clip-path="url(#clip0_741_46)">
<path d="M214.639 93.1373L148.629 207.655C146.634 211.109 143.766 213.977 140.314 215.97C136.863 217.963 132.949 219.012 128.965 219.012C124.98 219.012 121.067 217.963 117.615 215.97C114.164 213.977 111.296 211.109 109.3 207.655L97.7283 187.595C97.6912 187.546 97.6748 187.483 97.684 187.422C97.6927 187.36 97.7254 187.304 97.775 187.267C97.8246 187.23 97.8872 187.214 97.9489 187.222C98.0105 187.231 98.0659 187.264 98.103 187.314C100.167 189.355 102.67 190.896 105.421 191.819C108.171 192.742 111.095 193.024 113.97 192.641C116.846 192.259 119.596 191.222 122.01 189.612C124.424 188.001 126.439 185.859 127.899 183.349L183.157 87.3891C184.614 84.8556 185.469 82.0202 185.656 79.1026C185.843 76.185 185.358 73.2634 184.237 70.5639C183.116 67.8645 181.389 65.4597 179.191 63.5358C176.993 61.6119 174.383 60.2205 171.562 59.4693C171.5 59.4693 171.44 59.4445 171.396 59.4005C171.353 59.3565 171.328 59.2969 171.328 59.2346C171.328 59.1724 171.353 59.1127 171.396 59.0687C171.44 59.0247 171.5 59 171.562 59H194.987C198.973 59.0043 202.888 60.059 206.339 62.0582C209.789 64.0574 212.654 66.9308 214.646 70.3897C216.637 73.8487 217.685 77.7715 217.683 81.7643C217.682 85.7571 216.633 89.6794 214.639 93.1373ZM136.496 59H113.61C113.563 59.0154 113.522 59.0453 113.493 59.0853C113.464 59.1253 113.449 59.1735 113.449 59.2229C113.449 59.2723 113.464 59.3205 113.493 59.3605C113.522 59.4005 113.563 59.4304 113.61 59.4458C115.151 60.0421 116.546 60.9648 117.699 62.1507C118.851 63.3366 119.735 64.7578 120.288 66.3171C120.842 67.8764 121.054 69.5371 120.908 71.1857C120.762 72.8343 120.262 74.4319 119.443 75.8692L86.0866 133.656C85.2246 135.122 84.0495 136.378 82.6456 137.334C81.2417 138.291 79.6437 138.924 77.9664 139.189C76.2892 139.454 74.5742 139.343 72.9446 138.865C71.3151 138.387 69.8114 137.554 68.5415 136.425C68.5043 136.375 68.4487 136.342 68.3872 136.333C68.3257 136.325 68.2633 136.34 68.2136 136.378C68.1639 136.415 68.131 136.471 68.1222 136.532C68.1134 136.594 68.1294 136.656 68.1667 136.706L79.8789 157.072C81.194 159.356 83.0868 161.255 85.3671 162.575C87.6474 163.894 90.2344 164.589 92.8677 164.589C95.5015 164.589 98.0885 163.894 100.368 162.575C102.649 161.255 104.542 159.356 105.856 157.072L149.496 81.5236C150.813 79.2396 151.505 76.6486 151.505 74.0114C151.504 71.374 150.81 68.7835 149.492 66.5003C148.174 64.2171 146.279 62.3218 143.997 61.0052C141.716 59.6885 139.129 58.9969 136.496 59ZM57.0636 59C53.158 59 49.3402 60.16 46.0929 62.3333C42.8455 64.5066 40.3145 67.5956 38.8199 71.2096C37.3254 74.8236 36.9343 78.8004 37.6962 82.6371C38.4582 86.4738 40.3389 89.9979 43.1005 92.764C45.8621 95.5301 49.3807 97.4138 53.2112 98.1769C57.0417 98.9401 61.0121 98.5485 64.6203 97.0514C68.2285 95.5544 71.3126 93.0194 73.4824 89.7668C75.6522 86.5143 76.8103 82.6903 76.8103 78.7785C76.8134 76.1803 76.3047 73.607 75.3135 71.2059C74.3222 68.8049 72.8678 66.6233 71.0335 64.7861C69.1992 62.9489 67.0211 61.4921 64.624 60.4993C62.2268 59.5064 59.6576 58.9969 57.0636 59Z" fill="url(#paint0_linear_741_46)"/>
</g>
<defs>
<linearGradient id="paint0_linear_741_46" x1="215.376" y1="185.625" x2="8.9302" y2="45.655" gradientUnits="userSpaceOnUse">
<stop stop-color="#5433FF"/>
<stop offset="0.5" stop-color="#20BDFF"/>
<stop offset="1" stop-color="#5CFFA2"/>
</linearGradient>
<clipPath id="clip0_741_46">
<rect width="183" height="164" fill="white" transform="translate(36 59)"/>
</clipPath>
</defs>
</svg>
