<svg width="256" height="256" viewBox="0 0 256 256" fill="none" xmlns="http://www.w3.org/2000/svg">
<g clip-path="url(#clip0_1239_2)">
<rect width="256" height="256" fill="#1E1E1E"/>
<path d="M128.112 183.59C87.1776 183.59 54 171.763 54 155.916C54 147.648 63.0368 140.198 77.5008 134.95C88.7904 142.195 107.734 145.907 129.213 145.907C150.179 145.907 168.714 141.376 180.106 134.438C193.75 139.635 202.224 146.88 202.224 154.867C202.224 170.739 169.046 183.59 128.112 183.59Z" fill="white"/>
<path d="M128.547 142.349C97.52 142.349 72.3552 132.621 72.3552 120.615C72.3552 113.959 80.112 107.994 92.272 104.026C100.95 108.557 113.955 111.45 128.547 111.45C143.139 111.45 156.144 108.557 164.822 104.026C177.008 108.019 184.739 113.959 184.739 120.615C184.765 132.621 159.6 142.349 128.547 142.349Z" fill="white"/>
<path d="M128.342 107.84C104.355 107.84 84.8992 99.8016 84.8992 89.92C84.8992 80.0384 104.355 72 128.342 72C152.33 72 171.786 80.0384 171.786 89.92C171.786 99.8016 152.33 107.84 128.342 107.84Z" fill="white"/>
</g>
<defs>
<clipPath id="clip0_1239_2">
<rect width="256" height="256" fill="white"/>
</clipPath>
</defs>
</svg>
