<svg width="256" height="256" viewBox="0 0 256 256" fill="none" xmlns="http://www.w3.org/2000/svg">
<g clip-path="url(#clip0_1239_2)">
<rect width="256" height="256" fill="white"/>
<path d="M128.01 218.655C178.188 218.655 218.665 178.178 218.665 128C218.665 77.8215 177.854 37.3442 128.01 37.3442C77.8315 37.3442 37.3542 77.8215 37.3542 128C37.3542 177.844 77.8315 218.655 128.01 218.655Z" fill="white"/>
<path d="M197.925 71.4659C191.569 72.804 185.548 74.4766 180.865 75.4801C169.491 78.1563 159.121 86.5194 156.779 102.242C154.772 116.292 159.455 122.313 157.448 138.705C153.768 167.474 126.337 177.175 113.625 183.196C106.266 186.542 88.2018 194.57 74.4863 200.592C89.5398 211.631 107.939 218.321 128.344 218.321C178.523 218.321 219 177.844 219 127.666C219 106.256 211.641 86.8539 199.263 71.1313C198.594 71.4659 198.26 71.4659 197.925 71.4659Z" fill="url(#paint0_linear_1239_2)"/>
<path d="M117.64 114.619C124.665 99.5654 121.988 99.5654 127.341 85.181C134.031 67.1167 154.772 72.4691 160.459 73.1382C169.825 74.4762 172.501 71.131 192.238 67.7858C193.242 67.7858 194.245 67.4513 195.249 67.4513C178.523 49.0525 154.437 37.3442 127.675 37.3442C91.8814 37.3442 60.7708 58.4192 46.0518 88.8607C76.1589 96.2202 108.273 112.277 117.64 114.619ZM97.9028 53.0668C100.579 53.4013 113.291 69.4584 115.633 110.27C115.633 110.27 99.2409 106.256 95.5612 97.8928C92.885 90.8679 96.5647 81.5012 97.9028 53.0668ZM37.3542 128C37.3542 120.64 38.3578 113.615 39.6959 106.925C43.0411 109.601 46.3864 112.612 50.0661 116.292C73.8172 138.036 111.953 155.431 126.003 139.374C123.327 142.719 113.625 153.424 95.2267 150.078L66.1232 193.901C48.3935 177.509 37.3542 154.093 37.3542 128Z" fill="url(#paint1_linear_1239_2)"/>
</g>
<defs>
<linearGradient id="paint0_linear_1239_2" x1="160.394" y1="91.1646" x2="139.024" y2="208.89" gradientUnits="userSpaceOnUse">
<stop stop-color="#FF496A"/>
<stop offset="1" stop-color="#E42648"/>
</linearGradient>
<linearGradient id="paint1_linear_1239_2" x1="89.3789" y1="173.712" x2="136.626" y2="40.285" gradientUnits="userSpaceOnUse">
<stop offset="0.00181229" stop-color="#1158F1"/>
<stop offset="1" stop-color="#119BED"/>
</linearGradient>
<clipPath id="clip0_1239_2">
<rect width="256" height="256" fill="white"/>
</clipPath>
</defs>
</svg>
