<svg width="300" height="300" viewBox="0 0 300 300" fill="none" xmlns="http://www.w3.org/2000/svg">
<path d="M280.337 75.6267L273.866 64.265C273.358 63.3745 272.652 62.6134 271.801 62.0409C270.951 61.4685 269.98 61.1002 268.964 60.9649C267.948 60.8297 266.914 60.931 265.943 61.261C264.973 61.591 264.092 62.1408 263.369 62.8674L248.484 77.736C247.396 78.8295 246.719 80.2653 246.568 81.8005C246.417 83.3357 246.801 84.8758 247.656 86.1602C253.083 94.4522 257.433 103.401 260.599 112.792C266.515 130.346 268.167 149.055 265.418 167.374C262.67 185.693 255.6 203.095 244.794 218.141C233.987 233.188 219.754 245.446 203.27 253.905C186.787 262.363 168.527 266.777 149.999 266.783C130.926 266.835 112.135 262.172 95.3008 253.209L120.475 228.026C136.075 233.925 153.086 235.011 169.309 231.142C185.532 227.274 200.222 218.63 211.479 206.327C222.737 194.024 230.045 178.628 232.458 162.129C234.872 145.63 232.28 128.786 225.018 113.775C224.557 112.814 223.872 111.977 223.021 111.336C222.169 110.694 221.176 110.266 220.125 110.087C219.074 109.908 217.995 109.984 216.98 110.308C215.964 110.633 215.041 111.196 214.288 111.951L199.222 126.91C198.419 127.712 197.834 128.706 197.524 129.798C197.213 130.889 197.188 132.042 197.449 133.147L198.743 138.556C200.97 148.031 200.382 157.951 197.051 167.096C193.72 176.242 187.791 184.217 179.991 190.042C172.192 195.867 162.861 199.288 153.144 199.887C143.427 200.485 133.746 198.234 125.29 193.411L118.65 189.606C117.382 188.876 115.907 188.585 114.455 188.779C113.004 188.973 111.658 189.642 110.626 190.68L49.1322 252.147C48.461 252.819 47.9408 253.625 47.6067 254.514C47.2725 255.402 47.1319 256.351 47.1944 257.299C47.2569 258.246 47.521 259.168 47.969 260.005C48.4171 260.842 49.0387 261.573 49.7923 262.15L58.8526 269.099C84.9811 289.23 117.064 300.101 150.051 300.001C176.313 299.968 202.106 293.048 224.857 279.932C247.608 266.817 266.52 247.964 279.705 225.257C292.89 202.55 299.888 176.782 299.999 150.526C300.11 124.27 293.33 98.4444 280.337 75.6267Z" fill="url(#paint0_linear_5347_39058)"/>
<path d="M241.223 30.9184C215.098 10.7802 183.013 -0.09584 150.025 0.00360563C123.75 0.0240249 97.9411 6.93768 75.1759 20.0538C52.4108 33.1699 33.487 52.0291 20.2952 74.7472C7.1035 97.4653 0.10575 123.247 0.0011892 149.515C-0.103371 175.784 6.68891 201.621 19.6994 224.443L26.171 235.792C26.6807 236.681 27.3884 237.442 28.2393 238.014C29.0902 238.586 30.0614 238.954 31.0777 239.091C32.094 239.227 33.1281 239.128 34.0998 238.8C35.0714 238.473 35.9546 237.926 36.6809 237.202L51.5398 222.346C52.6206 221.251 53.2925 219.819 53.4433 218.287C53.5941 216.756 53.2146 215.22 52.3682 213.935C46.9357 205.646 42.586 196.696 39.4249 187.304C33.5092 169.75 31.8572 151.04 34.6055 132.721C37.3538 114.402 44.4235 97.0006 55.2301 81.9542C66.0368 66.9078 80.2701 54.6489 96.7535 46.1908C113.237 37.7327 131.497 33.3182 150.025 33.3123C169.098 33.2692 187.885 37.946 204.71 46.9257L179.523 72.0949C166.905 67.3139 153.315 65.6672 139.921 67.2965C126.526 68.9257 113.728 73.7822 102.625 81.4484C91.5222 89.1147 82.4473 99.3615 76.18 111.308C69.9127 123.255 66.6405 136.545 66.6446 150.035C66.6446 151.42 67.0199 157.735 67.1364 158.822C68.1571 168.379 70.8147 177.69 74.9929 186.346C75.4556 187.308 76.1419 188.144 76.9944 188.786C77.8469 189.427 78.8408 189.855 79.8928 190.034C80.9448 190.213 82.0243 190.137 83.0409 189.813C84.0575 189.488 84.9816 188.925 85.7358 188.171L100.802 173.095C101.604 172.295 102.189 171.304 102.502 170.214C102.814 169.125 102.844 167.975 102.588 166.871L101.294 161.449C99.0635 151.973 99.6496 142.053 102.98 132.906C106.311 123.759 112.241 115.783 120.042 109.959C127.843 104.134 137.176 100.714 146.894 100.119C156.612 99.5236 166.292 101.779 174.747 106.607L181.386 110.412C182.657 111.136 184.13 111.423 185.58 111.229C187.03 111.035 188.376 110.37 189.411 109.337L250.892 47.8703C251.564 47.1989 252.085 46.3919 252.42 45.503C252.756 44.6141 252.898 43.6639 252.836 42.7159C252.775 41.7679 252.512 40.8438 252.065 40.0055C251.618 39.1671 250.998 38.4338 250.244 37.8544L241.223 30.9184Z" fill="url(#paint1_linear_5347_39058)"/>
<defs>
<linearGradient id="paint0_linear_5347_39058" x1="97.0999" y1="309.603" x2="308.288" y2="98.3693" gradientUnits="userSpaceOnUse">
<stop stop-color="#B090F5"/>
<stop offset="1" stop-color="#5FBFFF"/>
</linearGradient>
<linearGradient id="paint1_linear_5347_39058" x1="-8.29684" y1="201.642" x2="202.904" y2="-9.59198" gradientUnits="userSpaceOnUse">
<stop stop-color="#68D7FA"/>
<stop offset="1" stop-color="#4EE498"/>
</linearGradient>
</defs>
</svg>
