<svg width="256" height="256" viewBox="0 0 256 256" fill="none" xmlns="http://www.w3.org/2000/svg">
<g clip-path="url(#clip0_1239_2)">
<rect width="256" height="256" fill="white"/>
<path d="M205.333 83.8696L201.494 77.1283C201.192 76.5999 200.773 76.1484 200.268 75.8087C199.764 75.469 199.188 75.2505 198.585 75.1702C197.982 75.09 197.369 75.1501 196.793 75.3459C196.217 75.5417 195.694 75.8679 195.265 76.2991L186.434 85.1211C185.788 85.7699 185.386 86.6218 185.297 87.5327C185.207 88.4436 185.435 89.3574 185.942 90.1195C189.162 95.0394 191.743 100.349 193.622 105.921C197.132 116.336 198.112 127.437 196.481 138.306C194.851 149.176 190.656 159.501 184.244 168.428C177.832 177.356 169.387 184.629 159.607 189.648C149.827 194.667 138.992 197.285 127.999 197.289C116.683 197.32 105.533 194.553 95.5449 189.235L110.482 174.293C119.738 177.793 129.831 178.438 139.456 176.142C149.082 173.847 157.798 168.718 164.477 161.418C171.157 154.119 175.493 144.984 176.925 135.194C178.357 125.405 176.819 115.411 172.51 106.504C172.237 105.934 171.83 105.437 171.326 105.057C170.82 104.676 170.231 104.422 169.607 104.316C168.984 104.21 168.343 104.255 167.741 104.447C167.138 104.64 166.591 104.974 166.144 105.422L157.205 114.298C156.728 114.774 156.381 115.363 156.197 116.011C156.013 116.659 155.998 117.343 156.153 117.998L156.921 121.208C158.242 126.829 157.893 132.715 155.917 138.141C153.94 143.568 150.422 148.3 145.794 151.756C141.167 155.212 135.631 157.242 129.865 157.597C124.1 157.952 118.356 156.617 113.338 153.755L109.399 151.497C108.646 151.064 107.771 150.892 106.91 151.007C106.049 151.122 105.25 151.519 104.638 152.135L68.1515 188.605C67.7533 189.004 67.4446 189.482 67.2464 190.009C67.0481 190.536 66.9647 191.099 67.0017 191.662C67.0388 192.224 67.1955 192.771 67.4613 193.267C67.7272 193.764 68.096 194.198 68.5432 194.54L73.9189 198.663C89.4219 210.608 108.458 217.058 128.03 216.998C143.612 216.979 158.916 212.873 172.415 205.091C185.914 197.309 197.135 186.123 204.958 172.65C212.781 159.177 216.933 143.888 216.999 128.31C217.065 112.731 213.042 97.4081 205.333 83.8696Z" fill="url(#paint0_linear_1239_2)"/>
<path d="M182.125 57.3427C166.625 45.394 147.588 38.9409 128.015 38.9999C112.425 39.012 97.1115 43.1141 83.6041 50.8964C70.0968 58.6786 58.8687 69.8684 51.0416 83.3478C43.2145 96.8272 39.0625 112.124 39.0005 127.71C38.9384 143.296 42.9685 158.626 50.6881 172.167L54.5279 178.901C54.8303 179.429 55.2502 179.88 55.7551 180.219C56.26 180.559 56.8362 180.777 57.4392 180.858C58.0422 180.939 58.6558 180.88 59.2323 180.686C59.8088 180.492 60.3328 180.167 60.7638 179.738L69.5801 170.923C70.2213 170.273 70.62 169.424 70.7095 168.515C70.7989 167.606 70.5738 166.695 70.0716 165.933C66.8483 161.014 64.2675 155.704 62.3919 150.132C58.8819 139.716 57.9017 128.615 59.5324 117.746C61.163 106.876 65.3577 96.5515 71.7696 87.624C78.1816 78.6964 86.6267 71.4228 96.4069 66.4043C106.187 61.3859 117.021 58.7666 128.015 58.7631C139.331 58.7375 150.478 61.5124 160.461 66.8404L145.517 81.7741C138.03 78.9374 129.967 77.9603 122.02 78.927C114.072 79.8937 106.478 82.7752 99.8906 87.3238C93.303 91.8725 87.9185 97.9523 84.1999 105.041C80.4813 112.129 78.5398 120.015 78.5422 128.019C78.5422 128.84 78.7649 132.587 78.834 133.232C79.4397 138.903 81.0165 144.427 83.4956 149.563C83.7701 150.134 84.1773 150.63 84.6831 151.011C85.1889 151.391 85.7787 151.645 86.4028 151.751C87.027 151.858 87.6675 151.812 88.2707 151.62C88.8739 151.427 89.4222 151.093 89.8697 150.646L98.809 141.701C99.2848 141.226 99.6319 140.638 99.8176 139.991C100.003 139.345 100.021 138.663 99.8687 138.008L99.1009 134.791C97.7775 129.168 98.1252 123.283 100.101 117.855C102.078 112.428 105.596 107.696 110.225 104.24C114.853 100.784 120.391 98.7548 126.157 98.4017C131.923 98.0485 137.666 99.3867 142.683 102.251L146.622 104.509C147.376 104.938 148.25 105.109 149.111 104.994C149.971 104.879 150.77 104.484 151.384 103.871L187.862 67.4008C188.261 67.0025 188.57 66.5236 188.769 65.9962C188.968 65.4688 189.053 64.905 189.016 64.3426C188.98 63.7801 188.824 63.2318 188.558 62.7344C188.293 62.2369 187.925 61.8018 187.478 61.4581L182.125 57.3427Z" fill="url(#paint1_linear_1239_2)"/>
</g>
<defs>
<linearGradient id="paint0_linear_1239_2" x1="96.6124" y1="222.696" x2="221.917" y2="97.3635" gradientUnits="userSpaceOnUse">
<stop stop-color="#B090F5"/>
<stop offset="1" stop-color="#5FBFFF"/>
</linearGradient>
<linearGradient id="paint1_linear_1239_2" x1="34.077" y1="158.639" x2="159.39" y2="33.3065" gradientUnits="userSpaceOnUse">
<stop stop-color="#68D7FA"/>
<stop offset="1" stop-color="#4EE498"/>
</linearGradient>
<clipPath id="clip0_1239_2">
<rect width="256" height="256" fill="white"/>
</clipPath>
</defs>
</svg>
