<svg width="256" height="256" viewBox="0 0 256 256" fill="none" xmlns="http://www.w3.org/2000/svg">
<g clip-path="url(#clip0_1239_2)">
<rect width="256" height="256" fill="black"/>
<path d="M128.544 41L41 128.476L128.597 216L216 128.593L128.544 41ZM195.492 124.169L174.15 126.647C172.558 124.322 170.269 122.563 167.614 121.624C164.958 120.684 162.073 120.613 159.374 121.419L141.712 103.745C141.79 103.174 141.83 102.599 141.835 102.023C141.834 99.5161 141.126 97.0601 139.793 94.9372C138.461 92.8142 136.557 91.1105 134.3 90.0216V62.9427L195.492 124.169ZM122.844 62.9427V89.9409C120.551 91.0157 118.61 92.7217 117.25 94.8595C115.89 96.9969 115.166 99.4779 115.163 102.012C115.167 102.63 115.215 103.247 115.307 103.859L97.7399 121.436C95.031 120.607 92.1288 120.663 89.4535 121.594C86.7785 122.526 84.4692 124.286 82.8601 126.619L61.6522 124.163L122.844 62.9427ZM64.901 136.082L81.0203 137.953C81.831 140.718 83.5144 143.147 85.8186 144.875C88.123 146.604 90.9246 147.54 93.8046 147.544H93.8269L109.39 180.613L64.901 136.082ZM128.572 194.429L104.19 142.6C105.694 140.75 106.673 138.529 107.024 136.171C107.376 133.812 107.087 131.402 106.189 129.194L121.819 113.555C123.862 114.748 126.187 115.372 128.552 115.362C130.917 115.353 133.237 114.709 135.27 113.499L150.847 129.088C149.919 131.331 149.619 133.786 149.981 136.187C150.343 138.588 151.353 140.844 152.901 142.714L128.572 194.429ZM147.721 180.613L163.284 147.538C166.141 147.511 168.913 146.566 171.193 144.843C173.473 143.121 175.14 140.712 175.95 137.97L192.23 136.082L147.721 180.613Z" fill="url(#paint0_linear_1239_2)"/>
</g>
<defs>
<linearGradient id="paint0_linear_1239_2" x1="128.5" y1="215.536" x2="128.5" y2="42.5322" gradientUnits="userSpaceOnUse">
<stop stop-color="#00B1FF"/>
<stop offset="0.93" stop-color="#00F5E4"/>
</linearGradient>
<clipPath id="clip0_1239_2">
<rect width="256" height="256" fill="white"/>
</clipPath>
</defs>
</svg>
