<svg width="256" height="256" viewBox="0 0 256 256" fill="none" xmlns="http://www.w3.org/2000/svg">
<g clip-path="url(#clip0_3181_87)">
<mask id="mask0_3181_87" style="mask-type:luminance" maskUnits="userSpaceOnUse" x="0" y="0" width="256" height="256">
<path d="M256 0H0V256H256V0Z" fill="white"/>
</mask>
<g mask="url(#mask0_3181_87)">
<path d="M256 0H0V256H256V0Z" fill="url(#paint0_linear_3181_87)"/>
</g>
<path d="M121.066 85.4971C120.201 85.497 119.371 85.1536 118.76 84.5426C118.148 83.9316 117.804 83.1029 117.804 82.2387C117.8 78.3356 116.246 74.5937 113.483 71.8337C110.721 69.0737 106.975 67.5211 103.068 67.5165C102.203 67.5165 101.374 67.1732 100.762 66.5621C100.15 65.9511 99.8066 65.1223 99.8066 64.2582C99.8066 63.394 100.15 62.5653 100.762 61.9542C101.374 61.3432 102.203 61 103.068 61C108.704 61.0069 114.107 63.2465 118.092 67.2277C122.077 71.2088 124.319 76.6064 124.326 82.2366C124.326 83.1008 123.983 83.9297 123.372 84.5412C122.761 85.1526 121.931 85.4965 121.066 85.4971Z" fill="white"/>
<path d="M134.599 85.4969C133.735 85.4969 132.905 85.1535 132.294 84.5425C131.682 83.9315 131.338 83.1027 131.338 82.2386C131.345 76.6079 133.587 71.21 137.573 67.2288C141.558 63.2476 146.962 61.0083 152.598 61.002C153.464 61.002 154.293 61.3454 154.905 61.9564C155.516 62.5674 155.86 63.3962 155.86 64.2603C155.86 65.1245 155.516 65.9532 154.905 66.5643C154.293 67.1753 153.464 67.5185 152.598 67.5185C148.691 67.5229 144.946 69.0754 142.183 71.8354C139.42 74.5954 137.866 78.3376 137.862 82.2409C137.861 83.1047 137.517 83.9328 136.905 84.5433C136.294 85.1539 135.464 85.4969 134.599 85.4969Z" fill="white"/>
<path d="M84.5566 170.912C72.6357 175.18 62.6315 174.747 56.002 173.465C46.8706 171.702 41.5506 167.823 40.7322 166.139C40.299 165.245 40.6517 164.99 40.9878 164.779L82.333 140.853V133.32L37.679 159.161L37.6033 159.204C34.1527 161.327 33.0519 165.256 34.8616 168.981C37.1194 173.625 45.1159 177.996 54.7614 179.86C58.2737 180.532 61.8422 180.868 65.4184 180.863C72.4394 180.863 80.9249 179.591 90.3068 175.657L88.6397 174.695C87.014 173.753 85.6186 172.461 84.5566 170.912Z" fill="white"/>
<path d="M217.654 159.208C217.628 159.193 217.603 159.178 217.578 159.166L172.924 133.325V140.858L214.268 164.784C214.607 164.993 214.961 165.252 214.526 166.144C213.708 167.827 208.388 171.706 199.257 173.47C192.628 174.75 182.625 175.183 170.706 170.916C169.652 172.461 168.267 173.752 166.652 174.696L164.963 175.67C174.34 179.601 182.82 180.871 189.839 180.871C193.415 180.876 196.983 180.54 200.495 179.868C210.141 178.004 218.138 173.633 220.395 168.988C222.205 165.26 221.103 161.332 217.654 159.208Z" fill="white"/>
<path d="M166.636 115.184L133.937 96.3305C132.024 95.223 129.852 94.6396 127.641 94.6392C125.43 94.6387 123.258 95.2211 121.344 96.3278L88.6369 115.185C86.7264 116.291 85.1391 117.877 84.0328 119.785C82.927 121.694 82.3417 123.859 82.334 126.065V163.798C82.3398 166.007 82.9246 168.176 84.0309 170.089C85.1372 172.002 86.7259 173.592 88.6388 174.7L121.329 193.548C123.243 194.658 125.416 195.243 127.629 195.245C129.842 195.246 132.016 194.663 133.93 193.556L166.648 174.693C168.552 173.579 170.133 171.989 171.233 170.078C172.333 168.167 172.914 166.002 172.92 163.798V126.065C172.912 123.862 172.328 121.698 171.226 119.79C170.124 117.881 168.541 116.294 166.636 115.184ZM91.9019 120.828L102.482 114.728H152.793L163.36 120.82C164.28 121.355 165.043 122.12 165.575 123.04C166.108 123.96 166.39 125.002 166.395 126.065V134.337H88.8577V126.067C88.863 125.004 89.1468 123.961 89.6807 123.041C90.215 122.122 90.9808 121.359 91.9019 120.828ZM163.376 169.057L152.904 175.094H102.373L91.9052 169.059C90.9813 168.524 90.2136 167.757 89.6792 166.834C89.1444 165.911 88.861 164.864 88.8577 163.798V155.486H166.397V163.798C166.395 164.861 166.115 165.906 165.585 166.828C165.055 167.75 164.294 168.518 163.376 169.057Z" fill="white"/>
</g>
<defs>
<linearGradient id="paint0_linear_3181_87" x1="128" y1="0" x2="128" y2="256" gradientUnits="userSpaceOnUse">
<stop stop-color="#384D4E"/>
<stop offset="1" stop-color="#23262B"/>
</linearGradient>
<clipPath id="clip0_3181_87">
<rect width="256" height="256" fill="white"/>
</clipPath>
</defs>
</svg>
