<svg width="256" height="256" viewBox="0 0 256 256" fill="none" xmlns="http://www.w3.org/2000/svg">
<g clip-path="url(#clip0_809_29)">
<path d="M256 0H0V256H256V0Z" fill="#4AFC38"/>
<path d="M102.314 63.3806C76.3212 55.9948 46.8894 78.9797 36.5802 114.72C26.2704 150.455 38.9862 185.41 64.9795 192.796C90.9727 200.182 120.404 177.196 130.714 141.456C141.023 105.721 128.308 70.7661 102.314 63.3806ZM97.9351 96.9505C97.32 104.347 90.7751 109.849 83.3206 109.233C75.8667 108.624 70.3213 102.129 70.9417 94.7329C71.5567 87.3367 78.1016 81.8344 85.5561 82.4499C93.0101 83.0602 98.5554 89.5544 97.9351 96.9505Z" fill="#0C0B0A"/>
<path d="M197.04 91.4937C176.749 85.6995 153.78 103.742 145.735 131.799C137.691 159.855 147.611 187.298 167.902 193.092C188.193 198.891 211.162 180.843 219.207 152.786C227.251 124.73 217.331 97.2872 197.04 91.4937ZM194.051 123.972C193.437 131.41 186.894 136.942 179.443 136.323C171.991 135.71 166.448 129.179 167.068 121.743C167.688 114.306 174.226 108.773 181.677 109.392C189.128 110.006 194.671 116.536 194.051 123.972Z" fill="#0C0B0A"/>
</g>
<defs>
<clipPath id="clip0_809_29">
<rect width="256" height="256" fill="white"/>
</clipPath>
</defs>
</svg>
