<svg width="2517" height="2517" viewBox="0 0 2517 2517" fill="none" xmlns="http://www.w3.org/2000/svg">
<g clip-path="url(#clip0_39_15598)">
<circle cx="1259" cy="1258" r="1259" fill="#006AFF"/>
<g clip-path="url(#clip1_39_15598)">
<mask id="mask0_39_15598" style="mask-type:luminance" maskUnits="userSpaceOnUse" x="340" y="718" width="1920" height="1080">
<path d="M2260 718H340V1798H2260V718Z" fill="white"/>
</mask>
<g mask="url(#mask0_39_15598)">
<path d="M487.513 738.102H340V1779.11H487.513V738.102Z" fill="white"/>
<path d="M1036.66 1399.36H960.71C803.811 1399.36 676.189 1279.72 676.189 1132.63V737.779H1112.7C1269.6 737.779 1397.22 857.42 1397.22 1004.51V1107.76H1249.71V1004.51C1249.71 933.709 1188.22 876.069 1112.7 876.069H823.703V1132.63C823.703 1203.43 885.188 1261.07 960.71 1261.07H1036.66V1399.36ZM1411.95 1511.49V1387.25C1411.95 1240.16 1284.33 1120.52 1127.43 1120.52H1036.66V1258.81H1127.43C1202.95 1258.81 1264.44 1316.45 1264.44 1387.25V1511.49C1264.44 1582.29 1202.95 1639.93 1127.43 1639.93H823.703V1408.4H676.189V1778.22H1127.43C1284.33 1778.22 1411.95 1658.58 1411.95 1511.49Z" fill="white"/>
<path d="M1914.34 1798H1889.8C1699.22 1798 1544.13 1652.61 1544.13 1473.95V1041.97C1544.13 863.313 1699.22 717.919 1889.8 717.919H1914.34C2104.91 717.919 2260 863.313 2260 1041.97H2112.49C2112.49 939.603 2023.62 856.29 1914.42 856.29H1889.88C1780.69 856.29 1691.82 939.603 1691.82 1041.97V1473.95C1691.82 1576.32 1780.69 1659.63 1889.88 1659.63H1914.42C2023.62 1659.63 2112.49 1576.32 2112.49 1473.95H2260C2260 1652.61 2104.91 1798 1914.34 1798Z" fill="white"/>
<path d="M1914.34 1798H1889.8C1699.22 1798 1544.13 1652.61 1544.13 1473.95V1041.97C1544.13 863.313 1699.22 717.919 1889.8 717.919H1914.34C2104.91 717.919 2260 863.313 2260 1041.97H2112.49C2112.49 939.603 2023.62 856.29 1914.42 856.29H1889.88C1780.69 856.29 1691.82 939.603 1691.82 1041.97V1473.95C1691.82 1576.32 1780.69 1659.63 1889.88 1659.63H1914.42C2023.62 1659.63 2112.49 1576.32 2112.49 1473.95H2260C2260 1652.61 2104.91 1798 1914.34 1798Z" fill="white"/>
</g>
</g>
</g>
<defs>
<clipPath id="clip0_39_15598">
<rect width="2517" height="2517" fill="white"/>
</clipPath>
<clipPath id="clip1_39_15598">
<rect width="1920" height="1080" fill="white" transform="translate(340 718)"/>
</clipPath>
</defs>
</svg>
