<svg width="256" height="256" viewBox="0 0 256 256" fill="none" xmlns="http://www.w3.org/2000/svg">
<g clip-path="url(#clip0_809_5)">
<path d="M256 0H0V256H256V0Z" fill="#00241B"/>
<mask id="mask0_809_5" style="mask-type:luminance" maskUnits="userSpaceOnUse" x="56" y="33" width="159" height="189">
<path d="M215 33H56V222H215V33Z" fill="white"/>
</mask>
<g mask="url(#mask0_809_5)">
<path d="M72.8365 96.1374L62.5762 74.583L64.7797 92.2106L72.8365 96.1374Z" fill="white"/>
<path d="M107.25 151.009C116.666 147.357 127.546 143.91 137.634 143.036C137.772 142.127 136.808 141.235 135.999 141.167L116.442 143.516L108.282 143.962L120.677 142.144L135.775 140.704L110.607 109.598C110.916 109.341 113.172 110.61 113.722 110.901C118.818 113.593 123.638 116.903 128.751 119.595L143.832 119.886L160.462 129.077L141.353 106.1L127.925 105.774L87.8307 54.383L85.2656 33.0343C89.6555 40.8879 105.666 69.2498 105.666 69.2498L135.448 73.2967L169.31 33L160.927 82.865C165.575 91.2844 172.306 98.5035 178.176 106.117L169.792 110.284L181.671 131.89C182.136 132.13 181.258 132.816 181.206 132.816H166.298C166.108 132.816 165.489 131.615 165.609 133.039L175.164 144.888L182.239 135.131C185.045 135.576 187.903 134.753 190.537 134.668C198.525 134.376 206.581 134.925 214.569 134.685C214.673 135.491 213.502 135.131 212.951 135.148C211.247 135.182 209.525 135.062 207.821 135.148C206.909 135.199 206.065 135.611 205.049 135.645C197.612 135.885 190.124 135.439 182.704 135.594L182.032 137.257C182.273 137.771 182.601 137.857 183.117 137.943C189.039 138.937 195.684 139.177 201.71 139.846C204.361 140.138 206.995 140.892 209.68 140.721L215.034 141.647H211.539L181.964 138.406L181.499 140.686C190.003 144.15 198.232 148.403 206.185 153.015L204.636 152.707C196.941 148.54 189.125 144.527 181.017 141.184L180.156 145.762C180.5 145.951 180.931 146.019 181.241 146.294C188.058 152.175 194.72 158.245 201.055 164.641L200.832 165.327C194.032 158.537 186.939 152.055 179.622 145.831C179.708 146.602 179.003 146.739 179.571 147.46C181.464 149.809 184.494 152.089 186.595 154.439C189.624 157.8 192.224 161.555 194.978 165.122C195.116 166.442 194.376 165.516 194.049 165.122C191.053 161.315 188.282 157.319 184.959 153.736C183.634 152.312 181.275 149.723 179.829 148.626C179.433 148.317 179.347 147.991 178.658 148.163L176.971 151.438C180.759 157.782 185.321 164.076 187.025 171.38L183.375 163.63L176.059 151.421L174.423 152.57C178.624 158.863 182.824 165.687 184.202 173.232L181.499 166.425C179.175 161.589 176.696 156.856 173.563 152.484L174.888 145.402L167.916 150.289C166.315 151.181 161.374 153.29 159.756 153.29H149.737L154.678 154.627C157.57 154.73 160.031 154.953 162.786 153.976C164.404 153.393 166.986 151.472 168.346 151.198C169.397 150.992 170.946 152.021 172.117 151.901C172.289 152.724 171.893 152.827 171.342 153.221C167.245 156.188 161.271 158.417 156.864 161.092C150.873 160.972 145.003 158.931 139.012 158.4C138.822 157.611 139.322 157.474 139.7 157.011C141.25 155.159 143.436 153.53 145.054 151.678L143.901 150.632C138.926 152.673 135.465 156.788 131.54 160.269C131.351 159.411 132.005 159.171 132.47 158.64C135.483 155.245 138.994 152.295 142.971 150.066L142.489 148.66C135.173 151.729 129.182 156.599 123.621 162.121C123.432 161.263 124.086 161.023 124.551 160.492C128.321 156.256 132.831 152.758 137.755 149.963L141.336 148.197C134.415 149.672 128.338 153.633 122.089 156.634C121.745 156.805 120.574 157.577 121.056 156.548C127.443 152.758 134.174 149.38 141.336 147.254L140.131 145.385C131.024 146.739 122.933 150.992 114.463 154.164C113.791 154.404 113.258 154.867 112.431 154.696L115.84 152.758C123.449 149.432 131.162 146.122 139.459 144.956L138.702 143.533C128.355 144.836 118.216 147.425 108.455 150.992" fill="white"/>
<path d="M97.1096 222H169.328L169.207 221.829L131.316 167.66C131.316 167.66 105.631 154.199 103.6 153.016L102.894 152.621L74.4888 137.926C74.0928 138.011 71.631 143.893 71.2179 144.888C67.3961 153.787 63.6432 162.824 60.028 171.809C58.9606 174.467 56.7399 178.925 56.1545 181.429C56.0512 181.875 55.8791 182.509 56.1373 182.869L97.1268 221.983L97.1096 222Z" fill="white"/>
<path d="M157.518 80.4986L135.448 73.2967L169.311 33L150.339 70.4159L157.518 80.4986Z" fill="#1BAA81"/>
<path d="M85.2659 33L62.5762 74.5827L72.8365 96.1371V74.7885L92.4102 90.5642L85.2659 33Z" fill="#1BAA81"/>
</g>
</g>
<defs>
<clipPath id="clip0_809_5">
<rect width="256" height="256" fill="white"/>
</clipPath>
</defs>
</svg>
