<svg width="256" height="256" viewBox="0 0 256 256" fill="none" xmlns="http://www.w3.org/2000/svg">
<g clip-path="url(#clip0_2834_137)">
<mask id="mask0_2834_137" style="mask-type:luminance" maskUnits="userSpaceOnUse" x="0" y="0" width="256" height="256">
<path d="M256 0H0V256H256V0Z" fill="white"/>
</mask>
<g mask="url(#mask0_2834_137)">
<path d="M256 0H0V256H256V0Z" fill="#3083DC"/>
</g>
<path d="M51.9214 107.13C51.7791 107.13 51.6426 107.072 51.542 106.971C51.4413 106.869 51.3848 106.73 51.3848 106.587C51.3832 104.269 50.4725 102.047 48.8528 100.409C47.2331 98.7707 45.0372 97.8505 42.7474 97.8505C42.6051 97.8505 42.4687 97.7932 42.3681 97.6914C42.2675 97.5895 42.2109 97.4515 42.2109 97.3072C42.2109 97.1633 42.2675 97.0254 42.3681 96.9235C42.4687 96.8217 42.6051 96.7644 42.7474 96.7644C45.0348 96.7618 47.2276 95.8408 48.8451 94.2039C50.4625 92.5669 51.3723 90.3473 51.375 88.0322C51.375 87.8883 51.4315 87.7502 51.5321 87.6483C51.6326 87.5464 51.7691 87.4893 51.9114 87.4893C52.0538 87.4893 52.1901 87.5464 52.2907 87.6483C52.3914 87.7502 52.4479 87.8883 52.4479 88.0322C52.4505 90.3473 53.3604 92.5669 54.9777 94.2039C56.5951 95.8408 58.788 96.7618 61.0754 96.7644C61.1458 96.7644 61.2157 96.7784 61.2808 96.8055C61.3459 96.8331 61.4049 96.873 61.4547 96.9235C61.5046 96.974 61.5441 97.0339 61.5711 97.0997C61.5979 97.1655 61.6119 97.2359 61.6119 97.3072C61.6119 97.3785 61.5979 97.4494 61.5711 97.5152C61.5441 97.581 61.5046 97.6408 61.4547 97.6914C61.4049 97.7419 61.3459 97.7818 61.2808 97.8089C61.2157 97.8361 61.1458 97.8505 61.0754 97.8505C58.788 97.8531 56.5951 98.7741 54.9777 100.411C53.3604 102.048 52.4505 104.267 52.4479 106.583C52.449 106.725 52.3942 106.863 52.2957 106.966C52.1971 107.068 52.0627 107.127 51.9214 107.13Z" fill="white"/>
<path d="M51.9244 88.0342C51.9244 90.4942 52.8899 92.8534 54.6086 94.5926C56.3272 96.3324 58.658 97.3095 61.0884 97.3095C58.658 97.3095 56.3272 98.2865 54.6086 100.026C52.8899 101.765 51.9244 104.125 51.9244 106.584C51.9244 104.125 50.9589 101.765 49.2403 100.026C47.5218 98.2865 45.1909 97.3095 42.7605 97.3095C45.1909 97.3095 47.5218 96.3324 49.2403 94.5926C50.9589 92.8534 51.9244 90.4942 51.9244 88.0342ZM51.9244 86.9482C51.6399 86.9482 51.3671 87.0627 51.1658 87.2664C50.9645 87.47 50.8515 87.7463 50.8515 88.0342C50.8489 90.2053 49.9955 92.2867 48.4789 93.8219C46.962 95.357 44.9055 96.2208 42.7605 96.2233C42.4759 96.2233 42.203 96.3379 42.0018 96.5412C41.8006 96.745 41.6875 97.0213 41.6875 97.3095C41.6875 97.5977 41.8006 97.8736 42.0018 98.0773C42.203 98.281 42.4759 98.3952 42.7605 98.3952C44.9055 98.3982 46.962 99.2619 48.4789 100.797C49.9955 102.332 50.8489 104.413 50.8515 106.584C50.8515 106.873 50.9645 107.149 51.1658 107.352C51.3671 107.556 51.6399 107.671 51.9244 107.671C52.209 107.671 52.4819 107.556 52.6832 107.352C52.8844 107.149 52.9975 106.873 52.9975 106.584C52.9996 104.413 53.8527 102.332 55.3697 100.796C56.8865 99.2611 58.9433 98.3973 61.0884 98.3952C61.373 98.3952 61.6459 98.281 61.8472 98.0773C62.0484 97.8736 62.1615 97.5977 62.1615 97.3095C62.1615 97.0213 62.0484 96.745 61.8472 96.5412C61.6459 96.3379 61.373 96.2233 61.0884 96.2233C58.9433 96.2212 56.8865 95.3579 55.3697 93.8225C53.8527 92.2872 52.9996 90.2055 52.9975 88.0342C52.9975 87.7463 52.8844 87.47 52.6832 87.2664C52.4819 87.0627 52.209 86.9482 51.9244 86.9482Z" fill="white"/>
<path d="M135.448 72.1812C135.306 72.1812 135.169 72.1241 135.069 72.0222C134.968 71.9203 134.912 71.7823 134.912 71.6383C134.91 69.323 134 67.1032 132.383 65.466C130.765 63.8289 128.572 62.9082 126.284 62.9061C126.142 62.9061 126.005 62.8489 125.905 62.7471C125.804 62.6452 125.748 62.5071 125.748 62.3631C125.748 62.2191 125.804 62.081 125.905 61.9792C126.005 61.8773 126.142 61.8201 126.284 61.8201C128.572 61.8175 130.765 60.8963 132.383 59.2589C134 57.6214 134.91 55.4014 134.912 53.086C134.912 53.0147 134.926 52.944 134.953 52.8782C134.98 52.8123 135.019 52.7524 135.069 52.702C135.119 52.6516 135.178 52.6116 135.243 52.5843C135.308 52.557 135.378 52.543 135.448 52.543C135.519 52.543 135.589 52.557 135.654 52.5843C135.718 52.6116 135.778 52.6516 135.828 52.702C135.878 52.7524 135.917 52.8123 135.944 52.8782C135.971 52.944 135.985 53.0147 135.985 53.086C135.987 55.4016 136.897 57.6216 138.515 59.259C140.133 60.8964 142.326 61.8175 144.615 61.8201C144.757 61.8201 144.893 61.8773 144.994 61.9792C145.094 62.081 145.151 62.2191 145.151 62.3631C145.151 62.5071 145.094 62.6452 144.994 62.7471C144.893 62.8489 144.757 62.9061 144.615 62.9061C142.326 62.9082 140.133 63.8289 138.515 65.4659C136.897 67.103 135.987 69.3229 135.985 71.6383C135.985 71.7823 135.928 71.9203 135.828 72.0222C135.727 72.1241 135.591 72.1812 135.448 72.1812Z" fill="white"/>
<path d="M135.446 53.086C135.446 54.3042 135.682 55.5105 136.143 56.636C136.603 57.7616 137.278 58.7843 138.13 59.6458C138.98 60.5073 139.991 61.1907 141.102 61.6569C142.215 62.1232 143.406 62.3631 144.61 62.3631C142.179 62.3631 139.849 63.3403 138.13 65.0798C136.411 66.8192 135.446 69.1783 135.446 71.6383C135.446 70.4202 135.209 69.214 134.749 68.0885C134.288 66.9631 133.614 65.9405 132.762 65.0792C131.911 64.2178 130.901 63.5347 129.789 63.0687C128.677 62.6026 127.486 62.3629 126.282 62.3631C127.486 62.3631 128.677 62.1232 129.789 61.6569C130.901 61.1907 131.911 60.5073 132.763 59.6458C133.614 58.7843 134.289 57.7616 134.749 56.636C135.209 55.5105 135.446 54.3042 135.446 53.086ZM135.446 52C135.161 52 134.889 52.1144 134.687 52.3181C134.486 52.5217 134.373 52.798 134.373 53.086C134.371 55.2574 133.518 57.3393 132.001 58.8749C130.484 60.4106 128.427 61.2745 126.282 61.2771C125.997 61.2771 125.725 61.3916 125.523 61.5952C125.322 61.7989 125.209 62.0751 125.209 62.3631C125.209 62.6512 125.322 62.9274 125.523 63.131C125.725 63.3347 125.997 63.4491 126.282 63.4491C128.429 63.4486 130.488 64.3109 132.007 65.8465C133.526 67.3821 134.381 69.4653 134.383 71.6383C134.383 71.9264 134.496 72.2025 134.697 72.4062C134.898 72.6098 135.171 72.7243 135.456 72.7243C135.74 72.7243 136.013 72.6098 136.214 72.4062C136.416 72.2025 136.529 71.9264 136.529 71.6383C136.534 69.4706 137.387 67.3929 138.901 65.8601C140.415 64.3272 142.468 63.464 144.61 63.4592C144.895 63.4592 145.168 63.3448 145.369 63.1411C145.57 62.9374 145.683 62.6612 145.683 62.3732C145.683 62.0852 145.57 61.8089 145.369 61.6053C145.168 61.4016 144.895 61.2872 144.61 61.2872C142.465 61.2846 140.408 60.4206 138.891 58.885C137.374 57.3494 136.521 55.2675 136.519 53.096C136.519 52.808 136.406 52.5318 136.205 52.3281C136.004 52.1245 135.731 52.0101 135.446 52.0101V52Z" fill="white"/>
<path d="M226.843 179.22L161.294 84.1357L142.398 98.531L165.477 127.817L101.798 64.0127L30 179.22H226.843Z" fill="white"/>
<path d="M100.127 140.404C100.127 140.404 104.586 152.579 101.559 179.218H114.405C114.405 179.218 121.634 154.964 119.435 150.32C117.235 145.676 100.127 140.404 100.127 140.404Z" fill="url(#paint0_linear_2834_137)"/>
<path d="M169.593 156.346C162.966 134.29 143.074 130.453 134.82 130.453C131.017 130.453 116.971 124.339 111.837 121.683C111.115 121.31 110.132 119.149 110.43 118.388L111.887 115.995C112.284 114.336 112.586 112.516 111.209 111.529L108.803 110.322C108.451 110.142 108.054 110.075 107.664 110.129C107.274 110.182 106.909 110.354 106.617 110.622L104.328 112.711C104.328 112.711 92.8352 110.141 90.8423 110.445C89.676 110.624 88.5872 112.584 87.8837 114.183C87.6906 114.597 87.355 114.925 86.9397 115.106C86.5244 115.287 86.0579 115.307 85.6287 115.164C81.5335 113.712 79.866 114.185 79.866 114.185C79.866 114.185 76.2695 118.917 79.866 122.557C107.714 151.517 117.154 145.739 120.685 179.332H133.402L139.327 166.663L149.403 166.753L154.209 179.334H172.997L169.593 156.346ZM92.0106 116.638C91.7596 116.638 91.5141 116.563 91.3054 116.422C91.0962 116.281 90.9337 116.08 90.8376 115.845C90.7415 115.61 90.7165 115.352 90.7656 115.103C90.8143 114.854 90.9354 114.624 91.1128 114.445C91.2905 114.265 91.5166 114.143 91.763 114.093C92.0093 114.043 92.2646 114.069 92.4966 114.166C92.7286 114.264 92.9271 114.428 93.0664 114.64C93.2056 114.851 93.2806 115.099 93.2806 115.354C93.2806 115.695 93.1468 116.021 92.9085 116.262C92.6706 116.504 92.3476 116.638 92.0106 116.638Z" fill="#3083DC"/>
</g>
<defs>
<linearGradient id="paint0_linear_2834_137" x1="104.201" y1="163.139" x2="117.844" y2="148.686" gradientUnits="userSpaceOnUse">
<stop stop-color="#3083DC"/>
<stop offset="0.1" stop-color="#2E7FD5"/>
<stop offset="0.24" stop-color="#2A72C0"/>
<stop offset="0.41" stop-color="#235F9F"/>
<stop offset="0.61" stop-color="#194370"/>
<stop offset="0.82" stop-color="#0C2036"/>
<stop offset="1"/>
</linearGradient>
<clipPath id="clip0_2834_137">
<rect width="256" height="256" fill="white"/>
</clipPath>
</defs>
</svg>
