<svg width="256" height="256" viewBox="0 0 256 256" fill="none" xmlns="http://www.w3.org/2000/svg">
<g clip-path="url(#clip0_1239_2)">
<rect width="256" height="256" fill="black"/>
<mask id="mask0_1239_2" style="mask-type:alpha" maskUnits="userSpaceOnUse" x="42" y="41" width="171" height="174">
<path d="M127.667 214.021L127.678 184.717C124.736 184.717 121.77 184.482 118.867 184.016L114.336 212.964C118.73 213.666 123.216 214.021 127.673 214.021H127.667ZM140.999 212.976C145.404 212.275 149.782 211.223 154.017 209.839L145.08 181.959C142.291 182.873 139.399 183.568 136.49 184.028L140.999 212.976ZM101.312 209.822L110.272 181.948C107.477 181.034 104.739 179.885 102.126 178.54L88.9317 204.644C92.899 206.69 97.0658 208.431 101.312 209.822ZM166.392 204.679C170.365 202.639 174.207 200.26 177.816 197.612L160.734 173.915C158.36 175.661 155.833 177.225 153.22 178.563L166.392 204.679ZM77.5129 197.565L94.6125 173.88C92.2503 172.145 89.996 170.191 87.9013 168.083L67.3579 188.791L67.375 188.809C70.5285 191.992 73.9383 194.94 77.5129 197.565ZM187.835 188.986L188.011 188.803C191.153 185.631 194.068 182.195 196.675 178.592L173.217 161.325C171.498 163.704 169.568 165.98 167.485 168.089L167.195 168.387L177.065 177.793L187.835 188.986ZM58.6716 178.534L82.1407 161.285C80.4104 158.889 78.8621 156.338 77.53 153.701L51.6644 167.003C53.6851 171.007 56.0417 174.886 58.6716 178.529V178.534ZM203.693 167.06C205.72 163.055 207.444 158.849 208.828 154.562L181.214 145.512C180.31 148.333 179.171 151.097 177.839 153.735L203.693 167.06ZM46.547 154.499L74.166 145.472C73.2608 142.657 72.5721 139.738 72.1109 136.802L43.4334 141.364C44.1278 145.812 45.1752 150.23 46.547 154.505V154.499ZM211.947 141.427C212.641 136.991 212.995 132.464 213 127.97L183.97 127.953C183.97 130.924 183.736 133.917 183.275 136.853L211.947 141.427ZM71.4222 127.907C71.4222 124.936 71.6556 121.937 72.1109 119.006L43.4334 114.444C42.7389 118.88 42.3917 123.408 42.386 127.901H71.4167L71.4222 127.907ZM183.286 119.053L211.964 114.507C211.275 110.06 210.228 105.641 208.862 101.366L181.237 110.376C182.142 113.197 182.831 116.11 183.286 119.047V119.053ZM74.166 110.341C75.0709 107.52 76.2094 104.75 77.5357 102.113L51.6701 88.8054C49.6493 92.8102 47.9246 97.0164 46.547 101.303L74.1602 110.341H74.166ZM177.873 102.153L203.75 88.8686C201.729 84.8578 199.373 80.9793 196.749 77.3364L173.268 94.5743C174.993 96.9705 176.542 99.5217 177.873 102.159V102.153ZM82.1522 94.5284C83.877 92.138 85.8122 89.8511 87.9071 87.7424L87.9639 87.6848L67.4376 66.9649L67.3808 67.0223C64.2273 70.2057 61.3014 73.659 58.6887 77.2732L82.1522 94.5284ZM167.587 87.8458L173.786 81.4621L188.056 67.0625L188.011 67.0166C184.875 63.8505 181.476 60.9144 177.913 58.2884L160.802 81.9618C163.159 83.6973 165.407 85.6394 167.485 87.7424L167.587 87.8458ZM94.6808 81.8986C97.0545 80.1577 99.5819 78.5947 102.195 77.2559L89.0398 51.1347C85.0665 53.1745 81.2243 55.5476 77.6155 58.1965L94.6808 81.8986ZM153.294 77.3018L166.505 51.2094C162.538 49.1638 158.377 47.417 154.131 46.0265L145.154 73.8945C147.949 74.8138 150.687 75.9573 153.3 77.3076L153.294 77.3018ZM110.346 73.8601C113.141 72.9522 116.033 72.2568 118.935 71.7972L114.444 42.8433C110.044 43.5385 105.661 44.59 101.426 45.9748L110.346 73.8601ZM136.564 71.8145L141.107 42.8662C136.713 42.1652 132.227 41.8032 127.776 41.8032L127.747 71.1077C130.69 71.1077 133.656 71.3491 136.564 71.8145Z" fill="black"/>
<path d="M127.684 186.013V156.56C125.232 156.56 122.785 156.237 120.419 155.607L112.845 184.061C117.68 185.355 122.67 186.013 127.684 186.013ZM142.524 184.061C147.377 182.761 152.045 180.827 156.386 178.309L141.695 152.807C139.583 154.031 137.315 154.973 134.955 155.602L142.524 184.061ZM98.977 178.303L113.673 152.807C111.567 151.582 109.615 150.076 107.865 148.325L107.595 148.06L98.3209 157.854L86.9406 168.982L87.1074 169.144C90.6648 172.713 94.6599 175.791 98.9828 178.303H98.977ZM168.261 169.156H168.267C171.818 165.581 174.887 161.579 177.385 157.248L151.976 142.499C150.756 144.612 149.254 146.57 147.509 148.319L168.261 169.156ZM77.9491 157.184L103.381 142.47C102.16 140.35 101.228 138.075 100.6 135.702L72.2272 143.272C73.5166 148.14 75.4449 152.824 77.9491 157.184ZM183.13 143.347C184.42 138.496 185.075 133.489 185.081 128.46L155.724 128.448C155.724 130.914 155.401 133.368 154.768 135.742L183.13 143.347ZM99.6563 128.414C99.6563 125.948 99.9788 123.493 100.618 121.12L72.2617 113.497C70.9665 118.348 70.3044 123.355 70.3044 128.385L99.6621 128.414H99.6563ZM154.774 121.154L183.141 113.572C181.846 108.703 179.918 104.02 177.414 99.6657L151.988 114.392C153.208 116.511 154.147 118.787 154.774 121.154ZM103.409 114.357C104.613 112.273 106.098 110.338 107.813 108.605L107.888 108.53L97.3883 97.9968L87.2916 87.5498L87.1074 87.7289C83.5614 91.2862 80.499 95.2768 78.0066 99.5964L103.409 114.357ZM147.526 108.565L157.923 98.1353L168.531 87.9946L168.267 87.7231C164.721 84.1657 160.732 81.0876 156.42 78.5813L141.712 104.072C143.791 105.279 145.725 106.769 147.452 108.49L147.526 108.565ZM113.69 104.055C115.797 102.83 118.065 101.895 120.431 101.26L112.879 72.8007C108.02 74.0999 103.358 76.0289 99.0117 78.5467L113.69 104.055ZM134.972 101.271L142.564 72.818C137.729 71.5185 132.739 70.8602 127.724 70.8545L127.707 100.307C130.165 100.307 132.612 100.63 134.978 101.265L134.972 101.271Z" fill="black"/>
</mask>
<g mask="url(#mask0_1239_2)">
<path d="M127.693 211.895C174.192 211.895 211.886 174.2 211.886 127.701C211.886 81.2025 174.192 43.5078 127.693 43.5078C81.1942 43.5078 43.4995 81.2025 43.4995 127.701C43.4995 174.2 81.1942 211.895 127.693 211.895Z" fill="white"/>
</g>
</g>
<defs>
<clipPath id="clip0_1239_2">
<rect width="256" height="256" fill="white"/>
</clipPath>
</defs>
</svg>
