<svg width="256" height="256" viewBox="0 0 256 256" fill="none" xmlns="http://www.w3.org/2000/svg">
<circle cx="128" cy="128" r="128" fill="black"/>
<g clip-path="url(#clip0_1103_30)">
<mask id="mask0_1103_30" style="mask-type:alpha" maskUnits="userSpaceOnUse" x="-3" y="-5" width="262" height="266">
<path d="M127.961 259.233L127.978 214.682C123.505 214.682 118.996 214.324 114.582 213.616L107.694 257.626C114.374 258.692 121.194 259.233 127.97 259.233H127.961ZM148.229 257.644C154.927 256.578 161.582 254.979 168.02 252.874L154.434 210.489C150.193 211.878 145.797 212.934 141.375 213.634L148.229 257.644ZM87.8934 252.848L101.515 210.471C97.2655 209.082 93.1028 207.335 89.1307 205.291L69.0709 244.977C75.1025 248.087 81.4373 250.734 87.8934 252.848ZM186.834 245.029C192.875 241.928 198.716 238.312 204.203 234.285L178.232 198.259C174.624 200.914 170.781 203.291 166.809 205.326L186.834 245.029ZM51.7109 234.215L77.7075 198.206C74.1163 195.568 70.6891 192.598 67.5045 189.392L36.2722 220.875L36.2981 220.902C41.0924 225.741 46.2763 230.223 51.7109 234.215ZM219.434 221.172L219.702 220.893C224.479 216.071 228.91 210.847 232.874 205.369L197.21 179.119C194.597 182.735 191.663 186.195 188.496 189.401L188.055 189.855L203.061 204.155L219.434 221.172ZM23.0662 205.282L58.7465 179.058C56.1159 175.415 53.762 171.536 51.7368 167.527L12.4131 187.75C15.4853 193.838 19.068 199.735 23.0662 205.273V205.282ZM243.544 187.837C246.625 181.748 249.247 175.354 251.35 168.837L209.369 155.078C207.994 159.367 206.263 163.569 204.238 167.579L243.544 187.837ZM4.63316 168.741L46.6225 155.017C45.2464 150.737 44.1993 146.299 43.4981 141.835L-0.100562 148.771C0.95521 155.533 2.54755 162.25 4.63316 168.75V168.741ZM256.092 148.867C257.148 142.123 257.685 135.24 257.693 128.408L213.558 128.382C213.558 132.899 213.203 137.45 212.502 141.914L256.092 148.867ZM42.4511 128.312C42.4511 123.796 42.806 119.236 43.4981 114.781L-0.100562 107.844C-1.15636 114.588 -1.68424 121.472 -1.6929 128.304H42.4427L42.4511 128.312ZM212.519 114.851L256.118 107.941C255.071 101.179 253.479 94.4615 251.402 87.962L209.404 101.66C210.78 105.949 211.827 110.378 212.519 114.842V114.851ZM46.6225 101.607C47.9983 97.318 49.7291 93.1074 51.7455 89.0977L12.4218 68.866C9.3496 74.9546 6.72744 81.3493 4.63316 87.8659L46.6138 101.607H46.6225ZM204.289 89.159L243.631 68.9621C240.558 62.8645 236.976 56.968 232.986 51.4296L197.288 77.6365C199.911 81.2795 202.265 85.1581 204.289 89.1678V89.159ZM58.764 77.5667C61.3862 73.9326 64.3284 70.4558 67.5132 67.25L67.5996 67.1624L36.3933 35.6617L36.3069 35.749C31.5126 40.5887 27.0644 45.8389 23.0922 51.3335L58.764 77.5667ZM188.652 67.4071L198.076 57.7019L219.771 35.8101L219.702 35.7403C214.934 30.9269 209.767 26.4631 204.35 22.4708L178.336 58.4617C181.919 61.1001 185.337 64.0527 188.496 67.25L188.652 67.4071ZM77.8114 58.3656C81.4201 55.7188 85.2625 53.3426 89.2346 51.3072L69.2353 11.5949C63.1946 14.6961 57.3533 18.3039 51.8669 22.3311L77.8114 58.3656ZM166.922 51.377L187.007 11.7085C180.976 8.5986 174.65 5.94295 168.194 3.82891L154.546 46.1969C158.796 47.5945 162.958 49.3329 166.93 51.3858L166.922 51.377ZM101.627 46.1446C105.876 44.7642 110.273 43.7071 114.686 43.0083L107.858 -1.01063C101.168 0.0463882 94.5049 1.64502 88.0662 3.7503L101.627 46.1446ZM141.487 43.0346L148.393 -0.975709C141.713 -2.04145 134.893 -2.5918 128.126 -2.5918L128.082 41.96C132.557 41.96 137.065 42.3271 141.487 43.0346Z" fill="black"/>
<path d="M127.987 216.651V171.874C124.259 171.874 120.539 171.382 116.942 170.425L105.426 213.683C112.777 215.65 120.364 216.651 127.987 216.651ZM150.548 213.683C157.926 211.707 165.023 208.766 171.622 204.939L149.288 166.167C146.076 168.029 142.628 169.46 139.04 170.417L150.548 213.683ZM84.343 204.93L106.686 166.167C103.483 164.306 100.516 162.015 97.8554 159.354L97.4443 158.95L83.3455 173.841L66.0439 190.759L66.2975 191.005C71.7059 196.431 77.7796 201.11 84.3517 204.93H84.343ZM189.676 191.023H189.685C195.084 185.588 199.749 179.504 203.547 172.919L164.918 150.496C163.063 153.709 160.779 156.685 158.127 159.345L189.676 191.023ZM52.374 172.822L91.038 150.452C89.1828 147.229 87.7649 143.77 86.8111 140.162L43.675 151.672C45.6353 159.073 48.5669 166.194 52.374 172.822ZM212.281 151.786C214.242 144.411 215.239 136.799 215.248 129.152L170.616 129.134C170.616 132.883 170.125 136.615 169.163 140.223L212.281 151.786ZM85.3757 129.082C85.3757 125.333 85.866 121.601 86.8373 117.993L43.7274 106.404C41.7583 113.779 40.7518 121.391 40.7518 129.038L85.3845 129.082H85.3757ZM169.171 118.046L212.299 106.518C210.33 99.1165 207.398 91.9962 203.591 85.3765L164.936 107.765C166.791 110.987 168.218 114.446 169.171 118.046ZM91.0817 107.712C92.9107 104.543 95.1686 101.601 97.7768 98.9672L97.8906 98.8533L81.9276 82.8392L66.5775 66.9565L66.2975 67.2288C60.9065 72.637 56.2507 78.704 52.4614 85.2711L91.0817 107.712ZM158.153 98.9059L173.959 83.0498L190.087 67.6328L189.685 67.22C184.294 61.8117 178.229 57.132 171.674 53.3216L149.314 92.0753C152.474 93.9104 155.414 96.1755 158.04 98.7917L158.153 98.9059ZM106.712 92.0491C109.915 90.1877 113.363 88.7654 116.96 87.7996L105.478 44.5333C98.0918 46.5086 91.0031 49.4412 84.3957 53.2691L106.712 92.0491ZM139.066 87.8171L150.609 44.5596C143.258 42.584 135.671 41.5832 128.048 41.5745L128.022 86.351C131.759 86.351 135.478 86.8426 139.075 87.8084L139.066 87.8171Z" fill="black"/>
</mask>
<g mask="url(#mask0_1103_30)">
<circle cx="128" cy="128" r="128" fill="white"/>
</g>
</g>
<defs>
<clipPath id="clip0_1103_30">
<rect width="256" height="256" fill="white"/>
</clipPath>
</defs>
</svg>
