<svg width="300" height="300" viewBox="0 0 300 300" fill="none" xmlns="http://www.w3.org/2000/svg">
<path d="M120.067 34.7244C94.2 38.8578 71.1333 51.2578 52.2 71.2578C31.6667 92.8578 21 119.524 21 149.524C21 180.458 31.5333 207.524 52.2 229.124C68.3333 246.191 86.4667 257.124 108.733 263.124C123.4 267.124 150.733 266.991 165.667 262.991C199.933 253.791 228.6 229.924 242.867 198.591L247.4 188.591L257.267 187.791C262.6 187.391 269.4 186.324 272.333 185.258L277.667 183.524V170.858V158.191L270.333 158.724C253.133 159.924 253.667 160.058 253.267 154.991C253 152.591 253.267 150.058 253.933 149.391C254.467 148.858 259.4 147.391 264.867 146.324C270.2 145.124 275.4 143.524 276.467 142.724C277.8 141.658 278.333 137.924 278.333 130.191C278.333 116.858 277.267 115.524 268.733 117.391C265.667 118.058 260.067 118.991 256.6 119.391C249.4 120.191 250.333 121.258 244.467 105.391C241.533 97.3911 233.933 84.7244 226.333 75.3911C212.6 58.4578 186.467 42.3244 164.333 36.8578C153.533 34.3244 130.2 33.1244 120.067 34.7244ZM161 66.3244C173.4 69.9244 186.467 77.6578 196.733 87.3911C206.2 96.3244 216.6 110.991 215.133 113.391C214.733 113.924 210.6 113.658 206.067 112.458C196.867 110.191 166.467 109.391 158.067 111.258C150.067 112.991 149 114.858 149 127.391C149 141.524 149.8 142.458 160.6 140.058C164.867 139.124 175.267 138.458 183.667 138.458C196.2 138.591 201.267 139.258 211 142.191C217.533 144.058 223.4 146.458 223.933 147.258C224.733 148.591 224.067 154.058 222.867 156.458C222.6 156.858 217.933 156.191 212.733 154.724C191.267 149.258 163.8 148.858 153.267 153.791C149.8 155.524 149.667 156.058 149.267 167.124C148.733 182.458 149.4 183.124 162.6 180.591C181.533 176.858 215.667 180.724 215.667 186.591C215.667 190.724 205.267 204.991 195.667 213.924C179 229.791 153.933 238.858 131.667 237.124C119.667 236.191 103.133 231.124 93.4 225.524C78.3333 216.858 63.2667 199.391 56.0667 182.191C49 165.524 48.4667 139.524 54.7333 121.791C65.1333 92.0578 93.4 68.4578 124.333 63.6578C131.8 62.5911 153.667 64.0578 161 66.3244Z" fill="black"/>
</svg>
