<svg width="300" height="301" viewBox="0 0 300 301" fill="none" xmlns="http://www.w3.org/2000/svg">
<path d="M267.291 69.701C264.539 59.1299 255.715 48.5151 239.814 36.7646C227.059 27.3729 213.518 22 202.728 22C200.588 22 198.622 22.2184 196.656 22.6116C191.764 23.6162 187.439 27.1982 184.687 32.6148C181.368 38.9924 180.581 47.5978 182.722 52.796C183.508 54.4122 184.469 56.3779 185.648 58.1689C175.252 64.5465 169.355 66.3374 168.569 66.5558C195.652 75.7291 218.192 94.9056 232.301 119.892L232.476 117.489C233.044 110.893 235.009 103.293 237.761 95.5171C240.513 96.3034 243.265 96.6966 246.017 96.6966C253.269 96.6966 259.559 93.6825 263.49 88.3096C267.465 82.8493 269.038 75.6854 267.291 69.701Z" fill="#5E12A0"/>
<path d="M239.028 89.6635C256.894 94.6433 264.145 80.6649 261.787 71.2733C259.253 61.8816 250.997 52.3152 236.495 41.5257C221.992 30.7362 207.271 26.368 197.836 28.3337C188.4 30.3431 185.692 44.9329 188.051 50.5242C189.012 52.7083 191.196 55.8971 194.123 59.5228C190.41 62.1 186.872 64.1094 183.945 65.9004C201.986 74.0689 217.667 86.8678 229.462 102.856C230.816 97.4826 232.782 92.6776 234.572 88.4841C235.883 88.6588 237.456 89.0519 239.028 89.6635Z" fill="url(#paint0_radial_3834_3360)"/>
<path d="M136.855 285.404C197.399 285.404 246.498 235.431 246.498 173.752C246.498 112.073 197.399 62.1001 136.855 62.1001C76.3119 62.1001 27.2131 112.073 27.2131 173.752C27.2131 235.431 76.3119 285.404 136.855 285.404Z" fill="url(#paint1_radial_3834_3360)"/>
<path opacity="0.6" d="M252.745 62.0997C237.849 46.1121 225.268 41.9186 210.198 38.5114C198.448 35.7157 201.549 28.945 215.877 30.3428C209.019 27.9403 202.554 27.3287 197.836 28.3334C188.401 30.3428 185.692 44.9326 188.007 50.524C188.968 52.7081 191.153 55.8969 194.079 59.5225C188.794 63.1044 184.295 65.7254 180.538 67.6911C182.285 68.4773 184.469 69.482 187.003 70.8799C193.686 74.4618 200.937 80.4463 200.937 80.4463C189.973 70.8799 192.288 66.468 207.402 55.6785C212.12 52.2713 220.725 52.6644 228.763 56.8579C236.801 61.0514 246.236 71.6225 246.236 71.6225L237.194 89.1827C237.762 89.4011 238.373 89.5759 238.941 89.7943C244.62 91.4105 249.119 90.9737 252.657 89.5759C256.894 87.0423 267.684 78.2622 252.745 62.0997Z" fill="#A98698"/>
<path d="M210.023 48.1218C213.954 49.738 219.065 52.5337 225.312 56.7271C232.782 61.7069 239.246 67.2982 243.353 71.7101C236.494 80.8834 231.995 93.4639 229.243 102.288C230.597 104.297 232.17 106.263 233.568 108.272C234.922 103.292 237.281 95.8664 240.426 88.4841C241.212 88.7025 242.173 88.7025 243.178 88.7025C245.537 88.7025 248.289 88.3094 250.429 86.5184C252.002 85.339 253.749 83.1112 253.574 79.1361C253.574 75.3358 250.648 70.5307 244.532 64.7647C240.207 60.5712 234.354 55.9846 228.457 51.7911C211.596 40.39 199.801 37.2012 194.516 42.6178C190.978 46.1997 191.371 50.6116 192.55 53.8004C186.26 57.9939 180.974 61.008 177.436 62.9737C179.795 63.76 181.935 64.7647 184.294 65.7694C190.584 62.2748 199.627 56.5087 210.023 48.1218ZM247.066 76.6899C247.633 77.6946 247.852 78.6993 247.852 79.2672C247.852 81.0581 247.284 81.6697 246.891 82.0628C246.105 82.6744 244.532 83.0675 243.178 83.0675C244.314 80.665 245.711 78.6556 247.066 76.6899ZM198.622 46.8987C199.19 46.2871 200.762 45.894 203.34 46.2871C201.374 47.9033 199.408 49.3012 197.443 50.699C197.268 49.3012 197.443 47.9033 198.622 46.8987Z" fill="#5E12A0"/>
<path d="M136.855 55.5049C72.6863 55.5049 20.7482 108.448 20.7482 173.753C20.7482 239.057 72.73 292 136.855 292C200.981 292 252.963 239.057 252.963 173.753C252.963 108.448 200.763 55.5049 136.855 55.5049ZM136.855 285.404C76.2683 285.404 27.2131 235.476 27.2131 173.753C27.2131 112.03 76.2683 62.1009 136.855 62.1009C197.443 62.1009 246.498 112.03 246.498 173.753C246.498 235.476 197.268 285.404 136.855 285.404Z" fill="#5E12A0"/>
<path opacity="0.6" d="M136.855 285.404C197.399 285.404 246.498 235.431 246.498 173.752C246.498 112.073 197.399 62.1001 136.855 62.1001C76.3119 62.1001 27.2131 112.073 27.2131 173.752C27.2131 235.431 76.3119 285.404 136.855 285.404Z" fill="url(#paint2_linear_3834_3360)"/>
<path opacity="0.6" d="M136.069 271.818C76.2246 262.033 35.6439 204.678 45.4287 143.785C49.7532 116.833 63.0763 93.8566 81.9033 77.2573C54.4709 93.4634 34.0713 121.595 28.5674 155.973C18.9573 216.909 59.538 274.22 119.164 284.005C152.494 289.597 184.688 279.025 208.407 258.233C187.44 270.595 161.929 276.011 136.069 271.818Z" fill="#A98698"/>
<path opacity="0.6" d="M154.285 63.6723C126.634 59.0857 99.7693 65.4633 77.7971 79.66C77.404 80.0531 77.0109 80.4463 77.0109 80.4463C85.4415 75.2481 97.8036 70.6615 97.8036 70.6615C66.0466 89.4448 56.2181 110.805 56.2181 110.805C68.5802 86.4307 104.88 69.2636 133.317 68.0842C161.754 66.9048 180.407 75.4665 203.121 94.0314C225.88 112.815 239.596 151.168 238.242 181.527C237.062 211.886 221.381 236.435 221.381 236.435C232.17 222.239 238.635 211.886 242.741 201.271C243.527 198.082 244.314 194.894 244.707 191.486C254.535 130.812 214.129 73.4571 154.285 63.6723Z" fill="url(#paint3_linear_3834_3360)"/>
<path d="M240.994 172.748C240.994 231.282 194.297 278.808 136.855 278.808C79.3695 278.808 32.4985 231.282 32.4985 172.748H240.994Z" fill="url(#paint4_linear_3834_3360)"/>
<g opacity="0.6">
<path opacity="0.6" d="M232.738 172.748C232.738 229.884 188.4 276.624 132.706 278.808C134.06 278.808 135.458 278.808 136.812 278.808C194.297 278.808 240.95 231.282 240.95 172.748H232.738Z" fill="url(#paint5_linear_3834_3360)"/>
</g>
<g opacity="0.7">
<path opacity="0.7" d="M47.2194 172.748H32.4985C32.4985 231.282 79.1948 278.808 136.637 278.808C139.17 278.808 141.529 278.808 143.888 278.59C89.9843 274.614 47.2194 228.661 47.2194 172.748Z" fill="url(#paint6_linear_3834_3360)"/>
</g>
<path d="M240.775 173.752C240.775 161.565 219.983 154.576 192.332 152.173C172.325 150.557 152.144 152.566 128.993 159.774C108.986 165.758 90.9453 164.754 77.797 163.181C48.5736 159.774 32.4985 159.381 32.4985 173.752C32.4985 194.545 74.084 220.492 136.462 211.493C168.044 206.907 184.338 197.515 202.946 191.138C223.128 184.323 240.775 184.542 240.775 173.752Z" fill="url(#paint7_linear_3834_3360)"/>
<path d="M170.971 123.386C180.712 123.386 188.619 115.349 188.619 105.433C188.619 95.5172 180.712 87.436 170.971 87.436C161.23 87.436 153.324 95.4736 153.324 105.433C153.324 115.393 161.23 123.386 170.971 123.386Z" fill="white"/>
<path d="M199.801 136.797C203.908 136.797 207.271 133.39 207.271 129.196C207.271 125.003 203.951 121.596 199.801 121.596C195.695 121.596 192.332 125.003 192.332 129.196C192.332 133.39 195.695 136.797 199.801 136.797Z" fill="white"/>
<g opacity="0.6">
<path opacity="0.6" d="M226.491 91.062C226.316 91.062 226.098 91.062 226.098 91.062C224.919 90.8436 224.132 89.6641 224.351 88.2663C226.098 79.093 233.568 70.2692 233.961 69.8761C234.747 68.8714 236.32 68.8714 237.106 69.6577C238.067 70.444 238.067 72.0602 237.281 72.8465C237.106 73.0649 230.204 81.2335 228.632 89.2273C228.457 90.4504 227.452 91.062 226.491 91.062Z" fill="url(#paint8_linear_3834_3360)"/>
</g>
<path opacity="0.2" d="M129.604 257.011C132.618 257.011 135.108 254.521 135.108 251.419C135.108 248.318 132.662 245.828 129.604 245.828C126.59 245.828 124.1 248.318 124.1 251.419C124.1 254.521 126.546 257.011 129.604 257.011Z" fill="white"/>
<g opacity="0.4">
<path opacity="0.6" d="M126.459 255.044C124.319 252.86 124.319 249.235 126.459 247.051C126.852 246.657 127.245 246.439 127.638 246.046C126.852 246.264 126.284 246.657 125.673 247.225C123.532 249.409 123.532 253.035 125.673 255.219C127.42 257.01 130.172 257.403 132.356 256.224C130.39 257.054 128.032 256.617 126.459 255.044Z" fill="url(#paint9_linear_3834_3360)"/>
</g>
<path opacity="0.3" d="M131.526 249.846C132.181 249.846 132.706 249.322 132.706 248.667C132.706 248.011 132.181 247.487 131.526 247.487C130.871 247.487 130.347 248.011 130.347 248.667C130.39 249.322 130.915 249.846 131.526 249.846Z" fill="white"/>
<path opacity="0.2" d="M158.216 254.215C161.23 254.215 163.72 251.725 163.72 248.624C163.72 245.522 161.274 243.032 158.216 243.032C155.202 243.032 152.712 245.522 152.712 248.624C152.756 251.725 155.202 254.215 158.216 254.215Z" fill="white"/>
<g opacity="0.4">
<path opacity="0.6" d="M155.071 252.249C152.93 250.065 152.93 246.439 155.071 244.255C155.464 243.862 155.857 243.644 156.25 243.25C155.464 243.469 154.896 243.862 154.285 244.43C152.144 246.614 152.144 250.24 154.285 252.424C156.032 254.215 158.784 254.608 160.968 253.428C159.002 254.258 156.643 253.822 155.071 252.249Z" fill="url(#paint10_linear_3834_3360)"/>
</g>
<path opacity="0.3" d="M160.182 247.05C160.837 247.05 161.361 246.526 161.361 245.871C161.361 245.216 160.837 244.691 160.182 244.691C159.527 244.691 159.002 245.216 159.002 245.871C159.002 246.526 159.527 247.05 160.182 247.05Z" fill="white"/>
<path opacity="0.2" d="M144.107 267.232C146.378 267.232 148.213 265.354 148.213 263.039C148.213 260.724 146.378 258.845 144.107 258.845C141.835 258.845 140.001 260.724 140.001 263.039C140.001 265.354 141.835 267.232 144.107 267.232Z" fill="white"/>
<g opacity="0.4">
<path opacity="0.6" d="M141.748 265.616C140.175 263.999 140.175 261.204 141.748 259.631C141.923 259.413 142.316 259.238 142.534 259.02C141.966 259.238 141.573 259.631 141.18 260.024C139.607 261.64 139.607 264.436 141.18 266.009C142.534 267.407 144.5 267.625 146.291 266.62C144.675 267.232 142.927 266.839 141.748 265.616Z" fill="url(#paint11_linear_3834_3360)"/>
</g>
<path opacity="0.3" d="M145.461 261.641C145.898 261.641 146.247 261.291 146.247 260.855C146.247 260.418 145.898 260.068 145.461 260.068C145.024 260.068 144.675 260.418 144.675 260.855C144.675 261.248 145.024 261.641 145.461 261.641Z" fill="white"/>
<path opacity="0.2" d="M169.399 264.218C171.67 264.218 173.505 262.339 173.505 260.024C173.505 257.709 171.67 255.831 169.399 255.831C167.127 255.831 165.292 257.709 165.292 260.024C165.292 262.339 167.127 264.218 169.399 264.218Z" fill="white"/>
<g opacity="0.4">
<path opacity="0.6" d="M167.04 262.645C165.467 261.029 165.467 258.233 167.04 256.661C167.214 256.442 167.608 256.268 167.826 256.049C167.258 256.268 166.865 256.661 166.472 257.054C164.899 258.67 164.899 261.466 166.472 263.038C167.826 264.436 169.792 264.655 171.583 263.65C170.01 264.218 168.219 263.825 167.04 262.645Z" fill="url(#paint12_linear_3834_3360)"/>
</g>
<path opacity="0.3" d="M170.797 258.627C171.233 258.627 171.583 258.278 171.583 257.841C171.583 257.404 171.233 257.055 170.797 257.055C170.36 257.055 170.01 257.404 170.01 257.841C170.01 258.278 170.36 258.627 170.797 258.627Z" fill="white"/>
<path opacity="0.2" d="M106.234 255.044C111.214 255.044 115.276 250.938 115.276 245.871C115.276 240.804 111.258 236.698 106.234 236.698C101.211 236.698 97.192 240.804 97.192 245.871C97.2357 250.938 101.254 255.044 106.234 255.044Z" fill="white"/>
<g opacity="0.4">
<path opacity="0.6" d="M101.167 251.638C97.6288 248.056 97.6288 242.246 101.167 238.664C101.735 238.052 102.347 237.659 103.133 237.266C101.953 237.659 100.992 238.446 99.9877 239.275C96.4494 242.857 96.4494 248.667 99.9877 252.249C102.914 255.263 107.457 255.831 110.952 253.647C107.632 255.045 103.701 254.433 101.167 251.638Z" fill="url(#paint13_linear_3834_3360)"/>
</g>
<path opacity="0.3" d="M109.379 243.032C110.471 243.032 111.345 242.158 111.345 241.023C111.345 239.93 110.471 239.013 109.379 239.013C108.287 239.013 107.414 239.887 107.414 241.023C107.414 242.158 108.287 243.032 109.379 243.032Z" fill="white"/>
<path opacity="0.2" d="M186.872 232.461C191.851 232.461 195.914 228.355 195.914 223.288C195.914 218.22 191.895 214.114 186.872 214.114C181.892 214.114 177.829 218.22 177.829 223.288C177.829 228.355 181.892 232.461 186.872 232.461Z" fill="white"/>
<g opacity="0.4">
<path opacity="0.6" d="M181.542 229.054C178.004 225.472 178.004 219.662 181.542 216.08C182.11 215.468 182.722 215.075 183.508 214.682C182.329 215.075 181.368 215.862 180.363 216.691C176.825 220.273 176.825 226.083 180.363 229.665C183.29 232.679 187.833 233.247 191.327 231.063C188.051 232.461 184.294 231.849 181.542 229.054Z" fill="url(#paint14_linear_3834_3360)"/>
</g>
<path opacity="0.3" d="M190.017 220.492C191.109 220.492 191.982 219.619 191.982 218.483C191.982 217.391 191.109 216.474 190.017 216.474C188.925 216.474 188.051 217.347 188.051 218.483C188.051 219.575 188.925 220.492 190.017 220.492Z" fill="white"/>
<defs>
<radialGradient id="paint0_radial_3834_3360" cx="0" cy="0" r="1" gradientUnits="userSpaceOnUse" gradientTransform="translate(258.206 58.6952) scale(87.6628 89.2685)">
<stop stop-color="#FFEAFF" stop-opacity="0.6"/>
<stop offset="0.6807" stop-color="#A087C9"/>
<stop offset="1" stop-color="#10002F"/>
</radialGradient>
<radialGradient id="paint1_radial_3834_3360" cx="0" cy="0" r="1" gradientUnits="userSpaceOnUse" gradientTransform="translate(209.436 96.7675) scale(214.479 218.407)">
<stop stop-color="#FFEAFF" stop-opacity="0.6"/>
<stop offset="0.6807" stop-color="#A087C9"/>
<stop offset="1" stop-color="#10002F"/>
</radialGradient>
<linearGradient id="paint2_linear_3834_3360" x1="118.666" y1="283.863" x2="155.02" y2="63.6169" gradientUnits="userSpaceOnUse">
<stop stop-color="#81FFFF"/>
<stop offset="0.6202" stop-color="white" stop-opacity="0"/>
</linearGradient>
<linearGradient id="paint3_linear_3834_3360" x1="215.111" y1="99.0249" x2="122.946" y2="182.068" gradientUnits="userSpaceOnUse">
<stop offset="0.2888" stop-color="white"/>
<stop offset="0.7796" stop-color="white" stop-opacity="0"/>
</linearGradient>
<linearGradient id="paint4_linear_3834_3360" x1="32.4985" y1="225.769" x2="240.993" y2="225.769" gradientUnits="userSpaceOnUse">
<stop stop-color="#0002E9"/>
<stop offset="0.9952" stop-color="#FF00C7"/>
</linearGradient>
<linearGradient id="paint5_linear_3834_3360" x1="251.385" y1="182.673" x2="136.037" y2="289.722" gradientUnits="userSpaceOnUse">
<stop offset="0.2888" stop-color="white"/>
<stop offset="0.7796" stop-color="white" stop-opacity="0"/>
</linearGradient>
<linearGradient id="paint6_linear_3834_3360" x1="32.4985" y1="225.769" x2="143.905" y2="225.769" gradientUnits="userSpaceOnUse">
<stop stop-color="#000292"/>
<stop offset="0.9952" stop-color="#7D00C7"/>
</linearGradient>
<linearGradient id="paint7_linear_3834_3360" x1="32.7266" y1="182.486" x2="240.802" y2="182.486" gradientUnits="userSpaceOnUse">
<stop stop-color="#000292"/>
<stop offset="0.9952" stop-color="#BE00C7"/>
</linearGradient>
<linearGradient id="paint8_linear_3834_3360" x1="237.662" y1="69.0789" x2="222.31" y2="93.5767" gradientUnits="userSpaceOnUse">
<stop offset="0.2888" stop-color="white"/>
<stop offset="0.7796" stop-color="white" stop-opacity="0"/>
</linearGradient>
<linearGradient id="paint9_linear_3834_3360" x1="124.046" y1="251.484" x2="132.344" y2="251.484" gradientUnits="userSpaceOnUse">
<stop offset="0.2888" stop-color="white"/>
<stop offset="0.7796" stop-color="white" stop-opacity="0"/>
</linearGradient>
<linearGradient id="paint10_linear_3834_3360" x1="152.656" y1="248.687" x2="160.955" y2="248.687" gradientUnits="userSpaceOnUse">
<stop offset="0.2888" stop-color="white"/>
<stop offset="0.7796" stop-color="white" stop-opacity="0"/>
</linearGradient>
<linearGradient id="paint11_linear_3834_3360" x1="139.956" y1="263.137" x2="146.186" y2="263.137" gradientUnits="userSpaceOnUse">
<stop offset="0.2888" stop-color="white"/>
<stop offset="0.7796" stop-color="white" stop-opacity="0"/>
</linearGradient>
<linearGradient id="paint12_linear_3834_3360" x1="165.175" y1="260.142" x2="171.405" y2="260.142" gradientUnits="userSpaceOnUse">
<stop offset="0.2888" stop-color="white"/>
<stop offset="0.7796" stop-color="white" stop-opacity="0"/>
</linearGradient>
<linearGradient id="paint13_linear_3834_3360" x1="97.237" y1="246.104" x2="110.788" y2="246.104" gradientUnits="userSpaceOnUse">
<stop offset="0.2888" stop-color="white"/>
<stop offset="0.7796" stop-color="white" stop-opacity="0"/>
</linearGradient>
<linearGradient id="paint14_linear_3834_3360" x1="177.723" y1="223.534" x2="191.275" y2="223.534" gradientUnits="userSpaceOnUse">
<stop offset="0.2888" stop-color="white"/>
<stop offset="0.7796" stop-color="white" stop-opacity="0"/>
</linearGradient>
</defs>
</svg>
