<svg width="256" height="256" viewBox="0 0 256 256" fill="none" xmlns="http://www.w3.org/2000/svg">
<g clip-path="url(#clip0_1239_2)">
<rect width="256" height="256" fill="#3BD3DF"/>
<path fill-rule="evenodd" clip-rule="evenodd" d="M128.438 213C103.612 212.981 83.6143 207.02 69.6417 196.314C55.5014 185.479 48 170.103 48 152.704C48 135.94 55.485 123.852 63.954 115.681C70.5912 109.277 77.9154 105.176 83.0152 102.817C81.8621 99.2756 80.4231 94.6391 79.1358 89.8506C77.4134 83.4425 75.7235 75.9243 75.7235 70.4151C75.7235 63.8941 77.1445 57.3452 80.9756 52.2564C85.0233 46.8801 91.1168 44 98.4476 44C104.177 44 109.041 46.1262 112.849 49.7948C116.489 53.3012 118.912 57.9581 120.584 62.8124C123.524 71.3421 124.668 82.0587 124.989 92.7533H132.011C132.332 82.0587 133.476 71.3421 136.416 62.8124C138.089 57.9581 140.511 53.3012 144.151 49.7948C147.959 46.1262 152.823 44 158.553 44C165.884 44 171.977 46.8801 176.025 52.2564C179.856 57.3452 181.277 63.8941 181.277 70.4151C181.277 75.9243 179.587 83.4425 177.864 89.8506C176.577 94.6391 175.138 99.2756 173.985 102.817C179.085 105.176 186.409 109.277 193.046 115.681C201.515 123.852 209 135.94 209 152.704C209 170.103 201.499 185.479 187.359 196.314C173.386 207.02 153.388 212.981 128.562 213H128.438Z" fill="#633001"/>
<path d="M98.4293 50C87.6855 50 82.74 58.1094 82.74 69.3248C82.74 78.2391 88.4864 96.0924 90.844 103.043C91.3743 104.606 90.5409 106.318 89.0214 106.925C80.4108 110.36 55 122.937 55 151.742C55 182.085 80.823 204.964 128.443 205C128.462 205 128.481 205 128.5 205C128.519 205 128.538 205 128.557 205C176.177 204.964 202 182.085 202 151.742C202 122.937 176.589 110.36 167.979 106.925C166.459 106.318 165.626 104.606 166.156 103.043C168.514 96.0924 174.26 78.2391 174.26 69.3248C174.26 58.1094 169.314 50 158.571 50C143.106 50 139.251 72.1647 138.976 95.9529C138.957 97.541 137.688 98.8295 136.119 98.8295H120.881C119.311 98.8295 118.043 97.541 118.024 95.9529C117.749 72.1647 113.894 50 98.4293 50Z" fill="#D1884F"/>
<path d="M128.5 195.177C93.5383 195.177 55.0603 176.359 55 152C55 152.038 55 152.076 55 152.114C55 182.269 80.8443 205 128.5 205C176.156 205 202 182.269 202 152.114C202 152.076 202 152.038 202 152C201.94 176.359 163.462 195.177 128.5 195.177Z" fill="#FEDC90"/>
<path d="M109 144C109 152.548 105.194 157 100.5 157C95.8054 157 92 152.548 92 144C92 135.452 95.8054 131 100.5 131C105.194 131 109 135.452 109 144Z" fill="#633001"/>
<path d="M165 144C165 152.548 161.195 157 156.5 157C151.806 157 148 152.548 148 144C148 135.452 151.806 131 156.5 131C161.195 131 165 135.452 165 144Z" fill="#633001"/>
</g>
<defs>
<clipPath id="clip0_1239_2">
<rect width="256" height="256" fill="white"/>
</clipPath>
</defs>
</svg>
