<svg width="256" height="256" viewBox="0 0 256 256" fill="none" xmlns="http://www.w3.org/2000/svg">
<g clip-path="url(#clip0_1239_2)">
<rect width="256" height="256" fill="#191919"/>
<path d="M195.904 51.0177L173.523 51L178.484 66.6362L180.157 71.9116L175.767 75.1637L138 103.173L171.372 128L211 98.6155L195.904 51.0177Z" fill="#FFC800"/>
<path d="M80.7208 75.1181L76.3977 71.8564L78.0543 66.5913L82.9476 51.0175L60.9528 51L46 98.5643L85.0394 128L118 103.225L80.7208 75.1181Z" fill="#E1AA00"/>
<path d="M124.978 75.9815L90.7728 51L85 68.7911L124.978 98L125 97.9826V75.9772L124.978 75.9815Z" fill="#E1AA00"/>
<path d="M166.248 51L132 75.97V98L172 68.837L166.248 51Z" fill="#FFC800"/>
<path d="M89.4122 134.122L85.0848 137.303L85 137.561L124.978 167L125 166.982V108L89.4122 134.122Z" fill="#E1AA00"/>
<path d="M171.903 137.345L167.553 134.141L132.045 108L132 108.033V167L172 137.647L171.903 137.345Z" fill="#FFC800"/>
<path d="M124.972 177.176L120.545 173.886L92.4301 153L85 176.295L124.978 206L125 205.982V177.154L124.972 177.176Z" fill="#E1AA00"/>
<path d="M164.592 153L136.405 173.889L132 177.155V206L172 176.357L164.592 153Z" fill="#FFC800"/>
</g>
<defs>
<clipPath id="clip0_1239_2">
<rect width="256" height="256" fill="white"/>
</clipPath>
</defs>
</svg>
