<?xml version="1.0" encoding="UTF-8" standalone="no"?>
<svg
   width="32"
   height="32"
   viewBox="0 0 32 32"
   fill="none"
   version="1.1"
   id="svg20"
   sodipodi:docname="DEX_yellowDark_Round.svg"
   xmlns:inkscape="http://www.inkscape.org/namespaces/inkscape"
   xmlns:sodipodi="http://sodipodi.sourceforge.net/DTD/sodipodi-0.dtd"
   xmlns="http://www.w3.org/2000/svg"
   xmlns:svg="http://www.w3.org/2000/svg">
  <defs
     id="defs24" />
  <sodipodi:namedview
     id="namedview22"
     pagecolor="#ffffff"
     bordercolor="#000000"
     borderopacity="0.25"
     inkscape:showpageshadow="2"
     inkscape:pageopacity="0.0"
     inkscape:pagecheckerboard="0"
     inkscape:deskcolor="#d1d1d1"
     showgrid="false" />
  <rect
     width="32"
     height="32"
     rx="8.7057581"
     fill="#1a1a1a"
     id="rect2"
     x="0"
     y="0"
     style="stroke-width:0.0169044" />
  <path
     d="m 23.280042,7.7045114 -2.39907,-0.00191 0.531812,1.691047 0.179355,0.5705399 -0.470618,0.3517127 -4.048431,3.029164 3.577306,2.685059 4.247903,-3.177923 z"
     fill="#ffc800"
     id="path4"
     style="stroke-width:0.0169044" />
  <path
     d="m 10.874979,10.309781 -0.469823,-0.3528787 0.180032,-0.5696102 0.531795,-1.6848769 -2.390348,-0.00189 -1.6250354,5.1458128 4.2427134,3.184549 3.58209,-2.680308 z"
     fill="#e1aa00"
     id="path6"
     style="stroke-width:0.0169044" />
  <path
     d="m 15.589088,10.427453 -3.630064,-2.7236516 -0.612632,1.9397105 4.242696,3.1845491 0.0023,-0.0019 v -2.399172 z"
     fill="#e1aa00"
     id="path8"
     style="stroke-width:0.0169044" />
  <path
     d="M 20.041331,7.7065568 16.4065,10.425931 v 2.399189 l 4.245249,-3.1760128 z"
     fill="#ffc800"
     id="path10"
     style="stroke-width:0.0169044" />
  <path
     d="m 11.814593,16.698388 -0.459242,0.344105 -0.009,0.02789 4.242696,3.184617 0.0023,-0.0019 v -6.380492 z"
     fill="#e1aa00"
     id="path12"
     style="stroke-width:0.0169044" />
  <path
     d="m 20.641437,17.044522 -0.461659,-0.346726 -3.768461,-2.828577 -0.0048,0.0036 v 6.380526 l 4.245249,-3.176165 z"
     fill="#ffc800"
     id="path14"
     style="stroke-width:0.0169044" />
  <path
     d="m 15.588412,21.274844 -0.469807,-0.352794 -2.983691,-2.238986 -0.788522,2.497285 4.242696,3.184448 0.0023,-0.0019 v -3.090459 z"
     fill="#e1aa00"
     id="path16"
     style="stroke-width:0.0169044" />
  <path
     d="m 19.865526,18.684585 -2.991519,2.238141 -0.467507,0.349921 v 3.090459 l 4.245249,-3.175996 z"
     fill="#ffc800"
     id="path18"
     style="stroke-width:0.0169044" />
</svg>
