<svg width="256" height="256" viewBox="0 0 256 256" fill="none" xmlns="http://www.w3.org/2000/svg">
<g clip-path="url(#clip0_1239_2)">
<rect width="256" height="256" fill="#040C15"/>
<path d="M127.5 214C174.721 214 213 175.721 213 128.5C213 81.2797 174.721 43 127.5 43C80.2797 43 42 81.2797 42 128.5C42 175.721 80.2797 214 127.5 214Z" fill="#040C15"/>
<path d="M127.518 45.8851C111.174 45.8816 95.1958 50.725 81.6047 59.8027C68.0136 68.8803 57.4197 81.7846 51.1628 96.8831C44.9059 111.982 43.267 128.597 46.4534 144.627C49.6399 160.658 57.5085 175.383 69.0641 186.941C80.6196 198.499 95.3435 206.371 111.373 209.56C127.403 212.75 144.018 211.115 159.118 204.861C174.218 198.608 187.125 188.016 196.205 174.427C205.286 160.838 210.132 144.861 210.132 128.517V128.517C210.109 106.612 201.399 85.6099 185.911 70.1188C170.423 54.6278 149.423 45.9126 127.518 45.8851ZM127.517 214C110.606 214.003 94.0724 208.991 80.0095 199.598C65.9465 190.204 54.9851 176.851 48.5116 161.227C42.0382 145.603 40.3436 128.411 43.6421 111.824C46.9406 95.2372 55.084 80.0008 67.0424 68.0424C79.001 56.084 94.2371 47.9405 110.824 44.6421C127.411 41.3436 144.604 43.0382 160.227 49.5116C175.851 55.985 189.204 66.9464 198.598 81.0095C207.991 95.0725 213.003 111.605 213 128.517C212.973 151.18 203.957 172.907 187.932 188.933C171.907 204.957 150.18 213.973 127.517 214Z" fill="#01A0CA" stroke="url(#paint0_linear_1239_2)"/>
<path fill-rule="evenodd" clip-rule="evenodd" d="M67.4248 156.66C67.3465 156.709 67.2569 156.736 67.165 156.739C62.1082 156.413 58.9433 150.876 61.5406 146.784L118.679 56.7606C119.13 56.1045 119.733 55.568 120.437 55.1973C121.142 54.8265 121.925 54.6328 122.722 54.6328C123.517 54.6328 124.301 54.8265 125.005 55.1973C125.71 55.568 126.313 56.1045 126.763 56.7606L143.344 82.791C144.624 84.7618 145.305 87.061 145.305 89.4105C145.305 91.7601 144.624 94.0593 143.344 96.0298L133.317 111.83C135.054 112.412 136.725 113.173 138.305 114.1C140.752 115.512 142.902 117.387 144.634 119.619C144.893 119.949 145.152 120.34 145.391 120.701L145.529 120.909L145.786 121.287C146.122 121.769 146.49 122.229 146.887 122.662C147.283 123.109 147.713 123.539 148.16 123.969L148.538 124.33L149.192 125.035L155.229 115.527C155.721 114.814 156.379 114.231 157.146 113.829C157.913 113.427 158.767 113.217 159.633 113.217C160.499 113.217 161.352 113.427 162.12 113.829C162.886 114.231 163.544 114.814 164.036 115.527L184.676 147.971C185.306 148.961 185.578 150.135 185.45 151.301C185.322 152.467 184.801 153.554 183.971 154.384C186.626 156.729 188.679 159.677 189.956 162.98C190.353 163.889 190.642 164.841 190.817 165.817C190.967 166.89 190.908 167.981 190.645 169.033C190.067 170.987 188.917 172.724 187.342 174.018C184.508 176.372 181.225 178.126 177.693 179.177C174.306 180.251 170.81 180.949 167.27 181.256C165.996 181.429 164.827 181.429 163.675 181.429H161.955C160.066 181.375 158.198 181.027 156.416 180.397C153.071 179.011 149.975 177.089 147.249 174.706C144.575 172.469 142.03 170.081 139.629 167.554C138.012 165.937 136.43 164.218 134.916 162.499L132.629 159.989C132.138 159.444 131.591 158.954 130.995 158.527C130.441 158.141 129.866 157.785 129.275 157.461L128.931 157.255C127.126 156.363 125.59 155.01 124.475 153.335C123.462 151.477 123.145 149.319 123.581 147.248C123.898 145.388 124.477 143.582 125.301 141.884C125.568 141.386 125.897 140.923 126.282 140.509C126.659 140.135 127.075 139.801 127.52 139.512C127.774 139.347 128.006 139.151 128.208 138.927C128.383 138.679 128.533 138.413 128.655 138.136C128.807 137.826 128.935 137.504 129.034 137.173C129.186 136.67 129.37 136.176 129.584 135.695C130.079 134.8 130.738 134.006 131.528 133.356C132.955 132.2 134.55 131.267 136.258 130.588C137.892 129.922 139.577 129.387 141.298 128.989C142.992 128.585 144.718 128.326 146.457 128.216H147.524L147.145 127.803C146.878 127.519 146.561 127.217 146.227 126.901L146.199 126.875L145.786 126.496C145.236 125.969 144.755 125.47 144.342 125C143.858 124.452 143.404 123.879 142.983 123.281L142.674 122.8C142.415 122.421 142.192 122.095 141.916 121.734C140.449 119.872 138.64 118.308 136.585 117.126C134.414 115.898 132.104 114.934 129.705 114.255C127.288 113.453 124.831 112.781 122.343 112.243C119.772 111.676 117.149 111.377 114.517 111.349C112.194 111.336 109.879 111.636 107.637 112.243C102.865 113.694 98.4678 116.17 94.7539 119.498C92.7954 121.111 90.9289 122.834 89.1639 124.657L87.6846 126.187C86.3947 127.476 85.0704 128.834 83.8664 130.227C80.4916 134.093 77.5287 138.299 75.0254 142.779C72.4454 147.214 69.9859 151.856 67.6122 156.361V156.464C67.5678 156.545 67.5032 156.612 67.4248 156.66ZM129.137 141.833C128.615 142.18 128.203 142.669 127.95 143.242C127.874 143.456 127.81 143.674 127.761 143.896C128.213 143.44 128.696 143.015 129.206 142.623C130.538 141.63 132.124 141.034 133.781 140.904H135.501H135.742C136.313 140.817 136.843 140.552 137.255 140.147C137.761 139.614 138.222 139.039 138.631 138.428C139.045 137.826 139.475 137.26 139.956 136.709C141.01 135.508 142.283 134.516 143.705 133.786C144.409 133.44 145.133 133.135 145.873 132.875L146.698 132.651C147.173 132.487 147.663 132.366 148.16 132.29C148.868 132.206 149.58 132.166 150.293 132.17C149.773 131.243 149.199 130.347 148.573 129.488C147.896 129.459 147.218 129.476 146.543 129.539C144.887 129.762 143.253 130.124 141.658 130.623C138.498 131.452 135.56 132.972 133.059 135.075C132.543 135.564 132.128 136.148 131.837 136.795C131.705 137.104 131.607 137.427 131.545 137.758C131.431 138.249 131.281 138.732 131.098 139.202C130.902 139.705 130.648 140.184 130.341 140.629C130.002 141.088 129.596 141.494 129.137 141.833ZM185.124 171.68C186.197 170.778 186.986 169.583 187.394 168.242C187.546 167.623 187.587 166.982 187.514 166.35C187.382 165.638 187.163 164.945 186.86 164.287C185.756 161.33 183.9 158.711 181.477 156.688C178.927 154.767 176.119 153.216 173.135 152.08L172.894 151.976C171.449 151.341 169.832 150.601 168.113 149.724C166.874 149.071 165.773 148.418 164.673 147.764L163.555 147.111L159.134 144.446L156.915 143.071L156.537 142.83C155.878 142.421 155.241 141.979 154.628 141.506L154.387 141.317C154.309 141.253 154.25 141.17 154.215 141.076L154.094 140.715C153.327 138.35 152.372 136.051 151.239 133.838L151.084 133.528H150.672C150.224 133.618 149.782 133.733 149.347 133.872L148.59 134.095C148.125 134.182 147.666 134.297 147.214 134.44L146.509 134.646C145.891 134.912 145.289 135.21 144.703 135.54C143.496 136.166 142.418 137.012 141.521 138.033C141.198 138.397 140.905 138.782 140.603 139.18C140.521 139.29 140.436 139.401 140.351 139.512C139.836 140.229 139.26 140.902 138.631 141.523C137.955 142.218 137.076 142.682 136.12 142.847C135.915 142.879 135.706 142.879 135.501 142.847H133.781C132.527 142.993 131.336 143.48 130.341 144.257C129.241 145.1 128.273 146.103 127.468 147.231C127.239 147.472 127.032 147.712 126.85 147.953C126.606 149.227 126.776 150.546 127.331 151.719C128.155 152.884 129.27 153.815 130.565 154.418L130.926 154.625C131.058 154.703 131.192 154.781 131.326 154.86C131.835 155.157 132.352 155.461 132.87 155.828C133.672 156.387 134.405 157.039 135.054 157.771C135.585 158.326 136.11 158.903 136.631 159.479C136.885 159.759 137.139 160.039 137.393 160.315L137.725 160.681C139.169 162.267 140.549 163.783 142.003 165.284C144.318 167.72 146.777 170.017 149.364 172.162C151.807 174.298 154.569 176.038 157.552 177.319C159.012 177.83 160.545 178.109 162.092 178.145H163.692C164.724 178.145 165.842 178.093 166.995 177.99C170.283 177.702 173.53 177.057 176.678 176.064C179.758 175.182 182.63 173.691 185.124 171.68ZM106.123 148.142C106.012 148.14 105.904 148.104 105.814 148.039L105.504 147.799C101.376 144.721 97.4545 141.626 93.8255 138.738C93.7631 138.685 93.7136 138.619 93.6809 138.545C93.6479 138.47 93.6327 138.389 93.636 138.308L94.7886 124.433C94.8009 124.308 94.8587 124.192 94.9503 124.107C95.0423 124.022 95.1621 123.972 95.2874 123.968L120.692 126.049C120.818 126.058 120.936 126.114 121.022 126.207C121.109 126.299 121.157 126.421 121.157 126.548L120.984 136.64C120.983 136.716 120.966 136.791 120.934 136.859C120.901 136.927 120.854 136.988 120.795 137.036L119.952 137.689C118.185 139.149 116.43 140.497 114.656 141.86L113.708 142.589C111.755 144.094 109.695 145.629 107.671 147.139L107.224 147.472L106.416 148.074C106.329 148.128 106.226 148.152 106.123 148.142ZM94.7886 138.084C97.405 139.813 99.8677 141.483 102.272 143.114C103.55 143.981 104.812 144.836 106.072 145.684C108.136 143.964 110.2 142.366 112.298 140.75L112.512 140.585C114.535 139.026 116.497 137.516 118.507 136.004L118.8 135.781L119.127 127.889L96.1647 125.533L94.7886 138.084ZM114.565 133.786C114.565 133.722 114.541 133.662 114.5 133.614C113.647 132.577 112.427 131.906 111.094 131.74C109.907 131.669 108.722 131.906 107.654 132.428C105.432 133.126 103.353 134.215 101.514 135.643C101.497 135.672 101.488 135.705 101.488 135.738C101.488 135.771 101.497 135.803 101.514 135.832C101.529 135.881 101.563 135.922 101.607 135.947C101.652 135.972 101.704 135.981 101.754 135.97C103.882 135.578 106.041 135.377 108.204 135.368C109.221 135.496 110.249 135.496 111.266 135.368C112.419 135.095 113.515 134.618 114.5 133.959C114.541 133.911 114.565 133.85 114.565 133.786ZM171.146 172.516C171.146 172.516 170.408 172.516 169.865 172.349C169.475 172.229 169.052 172.226 168.59 172.222C168.409 172.22 168.221 172.219 168.026 172.21C167.726 172.196 167.442 172.21 167.191 172.223C166.889 172.239 166.637 172.251 166.467 172.21C166.437 172.202 166.404 172.195 166.37 172.187C166.33 172.178 166.287 172.168 166.244 172.158C165.555 172.002 164.466 171.755 164.74 171.208C164.963 170.762 165.465 170.4 165.994 170.289C166.523 170.177 167.079 170.289 168.221 170.623C168.943 170.834 170.645 171.876 171.146 172.516ZM179.251 168.73C179.446 167.783 180.365 165.834 181.647 164.86C182.808 163.976 183.329 164.1 183.893 164.234C183.952 164.249 184.01 164.262 184.069 164.275C184.508 164.37 183.264 165.921 182.565 166.335C181.631 166.891 181.048 167.384 180.557 167.8C180.112 168.178 179.741 168.491 179.251 168.73Z" fill="url(#paint1_linear_1239_2)"/>
</g>
<defs>
<linearGradient id="paint0_linear_1239_2" x1="41.6528" y1="119.914" x2="215.747" y2="149.101" gradientUnits="userSpaceOnUse">
<stop offset="1" stop-color="#01B93B"/>
</linearGradient>
<linearGradient id="paint1_linear_1239_2" x1="37.0222" y1="53.7851" x2="194.393" y2="211.219" gradientUnits="userSpaceOnUse">
<stop offset="0.02" stop-color="#00F856"/>
<stop offset="0.53" stop-color="#0091DE"/>
<stop offset="0.6" stop-color="#0097E2"/>
<stop offset="0.7" stop-color="#00A7EE"/>
<stop offset="0.8" stop-color="#01BFFF"/>
<stop offset="1" stop-color="#00B5BF"/>
</linearGradient>
<clipPath id="clip0_1239_2">
<rect width="256" height="256" fill="white"/>
</clipPath>
</defs>
</svg>
