<?xml version="1.0" encoding="UTF-8"?>
<svg xmlns:xodm="http://www.corel.com/coreldraw/odm/2003" xmlns="http://www.w3.org/2000/svg" xmlns:xlink="http://www.w3.org/1999/xlink" version="1.1" id="Layer_1" x="0px" y="0px" viewBox="0 0 2500 2500" style="enable-background:new 0 0 2500 2500;" xml:space="preserve">
<style type="text/css">
	.st0{fill:#FFFFFF;}
	.st1{fill:#4189C9;}
	.st2{fill:#262F71;}
	.st3{fill:#161F42;}
	.st4{fill:#5C94CE;}
	.st5{fill:#6497D0;}
	.st6{fill:#689AD1;}
	.st7{fill:#4E8FCC;}
	.st8{fill:#5591CD;}
	.st9{fill:#418AC9;}
	.st10{fill:#468CCA;}
	.st11{fill:#488DCA;}
	.st12{fill:#428AC9;}
	.st13{fill:#182144;}
	.st14{fill:#458CCA;}
	.st15{fill:#63657D;}
	.st16{fill:#263154;}
	.st17{fill:#A09AA9;}
	.st18{fill:#424A7F;}
	.st19{fill:#8CB7DE;}
	.st20{fill:#5A5D76;}
	.st21{fill:#4F668A;}
	.st22{fill:#555A73;}
	.st23{fill:#6D9CD2;}
	.st24{fill:#729FD4;}
	.st25{fill:#78A2D5;}
	.st26{fill:#7DA5D6;}
	.st27{fill:#81A7D8;}
	.st28{fill:#0E1F66;}
	.st29{fill:#699AD1;}
	.st30{fill:#88ABD9;}
	.st31{fill:url(#SVGID_1_);}
</style>
<g id="Layer_x0020_1">
	<g id="_2806163276768">
		<g>
			<path class="st0" d="M1178,2c616-36,1165,383,1294,986c35,165,37,337,4,503c-81,410-361,752-746,914c-263,110-563,126-836,44     c-374-111-675-391-814-756c-100-262-107-557-22-823C215,377,661,32,1177,2H1178z"></path>
			<g>
				<path class="st1" d="M481,1159c5,23,8,46,13,69c3,14,7,11,15,5c14-11,27-24,42-33c4,1,7,4,9,7c41,53,94,85,158,103      c29,8,59,14,90,17c-10-11-17-22-23-36c-10-23-7-43,11-61c21-22,48-31,77-38c59-15,119-17,179-12c48,3,96,11,143,25      c39,11,77,24,112,46c5,4,8,9,13,13c44,48,70,104,72,169c1,45-11,88-34,127c-41,71-100,123-171,163c-72,40-151,65-233,74      c-147,16-283-16-408-94c-104-65-184-153-249-256c-30-49-57-100-80-152c-3-6-4-14-6-19c2,6,5,13-1,20c-2-27,0-53,2-79      c4-73,15-145,34-215c86-317,316-575,621-697c92-37,188-59,286-68c155-14,305,6,452,58c-22,42-149,156-248,221c-3-28-9-57-19-84      c0-7,6-9,10-13c21-18,41-35,62-53c2-2,4-4,6-5c2-2,6-5,5-9s-5-4-9-5c-10-2-19-3-29-4c-14-1-27-5-41-5c-11-1-21-3-31-2      c-5,0-11,0-16-1c-9-3-18-1-27-1c-5,0-11,0-16,0c-16,1-31-2-47,1c-4,1-7,1-11,1c-5,0-9,0-14,0c-6-1-12,0-17,2c-16,1-33,3-49,6      c-20,4-40,5-59,10c-18,5-36,7-53,13c-23,6-46,14-69,21c-33,13-67,25-99,42c-72,35-138,79-198,131c-56,48-105,102-148,162      c-21,30-41,61-59,93c-11,21-22,42-32,64c-7,17-16,33-21,51c-7,17-13,35-19,53c-7,18-11,37-16,55c-2,7-4,15-5,22c-2,9-4,18-5,27      c-3,15-5,30-7,46c-3,16-5,31-6,47c-2,10-1,21-2,32c-3,13-1,27-2,40c0,9-1,19,0,28c0,4-2,9,2,11c5,2,8-3,11-5c11-9,22-19,33-28      c37-32,75-64,112-96c3-2,7-9,12-2L481,1159z"></path>
				<path class="st2" d="M1304,1253c-44-26-92-41-142-53c-65-15-132-22-198-18c-47,2-94,9-137,30c-5,2-10,5-15,9c-35,23-41,55-15,89      c5,7,11,14,18,22c-23,0-43-4-63-8c-54-11-104-29-148-64c-21-17-40-35-54-59c6-9,15-14,24-19c17-7,33-17,50-25      c76-35,157-56,240-64c33-3,66-6,100-5c98,4,196,21,289,51c24,7,48,16,73,24c0-7-4-11-7-16c-10-17-22-33-35-49c-5-6-11-10-11-19      c13,3,27,6,40,9c4,1,8,3,10,0c3-4-1-7-4-10c-20-29-44-54-70-77c14-8,28-1,42,0c138,18,264,67,374,153c146,114,240,262,279,443      c13,61,17,123,12,184c-8,107-42,206-105,294c-4,6-10,10-13,17c-14,21-36,36-55,52c-105,85-228,130-360,151c-103,16-207,18-311,5      c-163-20-318-79-453-171c-33-22-65-46-94-73c-1-1-1-2,0-3l0,0c6-2,10,2,14,5c69,52,148,90,231,112c28,7,56,13,85,17      c6,2,14,1,20,2c1,0,3,0,4,1c65,8,130,3,194-8c141-25,266-84,373-179c73-64,131-141,161-235c31-94,26-185-17-276      c-9,41-30,74-57,105c-27,30-58,56-93,75c-4,2-9,7-13,3c-4-3-2-9,0-12c9-28,14-57,17-86c12-123-35-219-133-291      c-16-12-33-23-51-32L1304,1253z"></path>
				<path class="st3" d="M898,2187c-36-4-72-11-106-22c-65-20-127-49-185-86c-14-9-25-21-40-28c-9-1-12-10-19-13      c-144-128-242-285-298-468c-27-89-42-181-44-275c0-7,1-14,1-25c7,16,12,28,18,40c52,114,118,217,209,303c97,91,210,153,342,174      c156,25,301-2,435-86c67-42,121-96,153-169c38-89,24-172-35-249c-5-7-11-13-16-20c7-6,11,1,15,4c35,29,62,65,80,106      c18,40,27,82,28,125c1,44-9,88-28,128c4,0,8-1,11-4c19-11,36-23,52-37c5-4,10-11,18-10c-4,33-12,67-22,99c21-12,42-26,62-41      c15-12,28-27,43-40c6,3,6,9,8,15c25,89,7,172-37,250c-53,95-132,166-223,223c-74,46-154,79-240,98c-53,12-108,15-163,10l0,0      c-7-4-15,0-21-3L898,2187z"></path>
				<path class="st1" d="M2244,1528c-5-102-30-201-74-293c-29-60-65-116-108-166c-39-46-83-85-130-122c4-4,10-4,15-3      c65,7,130,23,191,46c15,6,30,12,44,21c5,2,10,5,15,9c1,1,2,2,4,2c-1-1-1-3-1-5c-42-55-93-101-147-144c-64-52-133-96-207-131      c-103-51-212-84-326-98c-10-1-21,0-30-4c-1-7,5-9,9-12c67-56,120-121,158-199c11-23,21-48,29-73c2-7,4-15,11-19      c119,57,226,137,315,235c236,260,325,621,237,961c-2,1-3-1-4-3L2244,1528z"></path>
				<path class="st3" d="M1840,2091c0-10,8-16,14-24c49-69,78-146,94-230c10-52,10-104,7-155c-5-79-26-156-58-229      c-23-54-53-105-88-152c-37-49-81-95-129-134c-74-61-159-107-251-136c-49-16-99-26-150-31c-9-1-18-3-28-2c-32-24-65-47-103-64v-4      c13,0,27,0,40,0c186-3,359,42,509,156c156,118,253,273,289,465c31,164,7,319-84,460c-18,29-37,56-63,78L1840,2091z"></path>
				<path class="st3" d="M1697,335c-19,57-42,112-76,162c-34,51-75,96-122,134c-3,2-5,5-8,7c-16,8-30,21-45,31c-55,36-114,67-176,91      c-1,0-3,1-5,1c-3-4,0-5,2-7c35-33,57-74,71-120c1-6,6-11,11-13c109-43,195-114,266-206c6-8,13-17,21-27c-22,0-39,11-57,14      c-4,0-8,3-9-4c67-79,118-170,149-269c2-6,0-15,9-18c1,0,1,1,1,2s0,1,0,1c-1,70-11,141-30,209c-1,4-2,8-2,13V335z"></path>
				<path class="st3" d="M1275,1078c22,24,41,51,57,80c1,3,5,6,2,9c-3,2-6-1-9-2c-72-27-147-47-223-61c-38-7-77-10-116-12      c-35-2-70-2-105,1c-80,6-157,23-231,56c-23,10-46,19-67,32c-2,1-5,4-8,0c64-45,135-79,211-101c104-31,210-38,317-30      c55,4,109,13,163,25c4,0,6,1,9,2V1078z"></path>
				<path class="st4" d="M1248,330h16c9,4,18-1,27,2h16c1,8-5,11-9,15c-74,63-147,126-221,188c-25,21-49,41-73,62c-4,2-7,6-9,10      c-32,12-62,27-85,53c-11,12-19,27-26,41c-22,14-41,33-61,50c-53,44-105,89-157,133c-4,4-7,9-12,12c-9-14-7-28-5-43      c7-11,17-18,26-26c51-43,102-87,153-130c50-42,99-85,149-127c57-48,114-97,172-146c32-27,63-54,96-81c5-3,8-6,5-13H1248z"></path>
				<path class="st3" d="M2185,1013c-63-30-129-49-198-60c-19-3-37-7-55-7c-24-15-47-31-72-45c-79-46-166-77-257-92c-2-1-4-1-6-2      c27-5,120,9,184,27c60,16,117,39,173,68c-6-17-16-29-23-43c-1-4-6-7-2-11c3-4,7,0,11,2c9,4,18,9,27,14c78,40,151,89,219,144      c4,5,4,5-1,6V1013z"></path>
				<path class="st5" d="M1248,330c2,4,7,1,9,5c-15,13-30,26-45,39c-27,23-55,46-82,69c-39,33-78,66-117,99c-27,23-53,46-80,69      c-33,28-66,55-98,83c-26,22-52,44-78,67c-27,23-55,46-82,69l-27,23l8-35c-4-11,5-16,11-22c25-21,49-42,74-63      c58-49,115-98,173-147c49-42,99-84,148-126c46-39,92-78,138-118c4-3,10-7,0-11c16-6,32-1,48-3V330z"></path>
				<path class="st6" d="M1200,332c4,1,8-1,12,2c-9,14-23,23-36,33c-35,31-70,60-106,90c-32,27-65,54-98,82c-32,27-65,56-98,84      s-65,54-98,82c-32,27-65,56-98,84c-10,9-23,14-25,29c-17,2-26,16-39,26c-20,14-35,34-53,50c-19,13-35,29-52,43      c-51,43-102,87-153,130c-7,6-14,13-21,18c-4,2-7,6-12,3c0-9,1-19,5-27c26-16,47-38,70-57c64-53,127-107,190-161s126-107,189-161      c62-52,123-105,185-157c63-53,126-107,189-161c12-11,26-21,37-32h11H1200z"></path>
				<path class="st7" d="M1339,335c15,0,28,4,43,5c4,9-4,12-8,16c-18,16-36,30-54,46c-2-2-4-5-6-7c-4-6-7-4-9,1c-21,45-57,77-96,104      c-44,31-92,57-142,78c-3-5-3-5,2-10c10-10,21-18,31-27c76-64,152-128,227-194C1331,343,1335,339,1339,335z"></path>
				<path class="st8" d="M1339,335c0,4-3,9-6,11c-49,41-98,83-146,124c-37,32-74,64-112,96c-3,3-10,5-8,12c-23,11-48,21-72,29      c-8-2-1-5,0-7c15-13,29-26,44-38c27-23,54-46,82-69c27-23,54-46,81-68c27-23,54-46,80-69c9-7,19-13,25-23c11-1,22,3,32,3V335z"></path>
				<path class="st3" d="M1149,656c28-14,58-26,82-46c5,0,5,3,3,6c-23,94-94,156-190,165c-19,2-37,4-56,2c2-7,9-6,14-8      c21-6,42-12,61-22c36-19,63-47,78-85c1-5,4-10,7-13L1149,656z"></path>
				<path class="st9" d="M1149,656c-12,45-40,76-80,98c-25,14-53,21-81,29c-7-20,1-37,12-52c14-18,33-29,53-38c31-14,63-26,95-37      H1149z"></path>
				<path class="st5" d="M324,1088c16-6,26-19,38-30c40-33,80-67,119-100c21-18,41-36,62-54c6-5,11-10,19-11c-21,27-42,54-57,85      c-41,35-82,69-122,104c-19,16-38,32-57,48c-3,2-6,6-10,2c1-15,3-30,8-45V1088z"></path>
				<path class="st10" d="M481,1159c-12,1-18,12-27,19c-35,28-69,58-103,87c-11,10-22,20-35,29c-8,6-11,4-11-6c0-11,0-22,0-33      c12-14,27-24,41-36c40-34,79-68,120-101c4-3,6-8,12-5l2,45L481,1159z"></path>
				<path class="st8" d="M652,896c0-5,3-9,7-11c32-27,64-54,96-81c26-22,52-45,79-67c14-12,27-24,41-36c2-2,5-4,7,0c-3,12-6,24-6,37      c-14,16-32,28-48,42c-50,43-100,85-149,127c-2,2-4,4-5,6c-10-2-18-8-21-17H652z"></path>
				<path class="st4" d="M316,1133c11-4,18-14,27-21c47-39,93-78,140-118c7-6,12-15,23-16c-9,21-16,42-21,64c-8-1-12,6-18,10      c-48,42-97,83-146,124c-3,2-6,6-10,5C310,1165,312,1149,316,1133z"></path>
				<path class="st7" d="M674,913c-3-6,2-8,5-10c41-35,82-70,123-104c23-20,46-39,70-59c1-1,3-1,5-2c0,11,2,22,5,32      c-14,16-32,28-48,42c-36,31-72,62-109,92c-2,2-5,4-5,7c-15,6-31,8-46,1V913z"></path>
				<path class="st7" d="M478,1115c-15,9-27,21-40,32c-35,28-69,58-103,87c-9,8-18,17-30,22c1-14-3-29,2-43c53-45,105-90,158-135      c4-3,7-7,13-4l-1,40L478,1115z"></path>
				<path class="st8" d="M479,1074c-17,9-30,23-44,35c-35,28-68,58-102,86c-7,6-13,16-24,17c1-11-3-22,3-32c33-28,67-57,100-85      c22-19,45-38,68-57c7-6,5,1,6,4c-3,10-4,21-6,32H479z"></path>
				<path class="st11" d="M720,912c-5-4-1-6,1-9c31-26,63-53,94-79c20-16,39-33,58-50c2-2,5-4,8-5l8,16c-6,10-16,15-23,24      c-38,43-82,79-136,99c-3,1-6,2-10,2V912z"></path>
				<path class="st10" d="M1320,402c5-15,21-20,30-30c10-11,26-16,32-32c12,0,23,3,34,5c10,2,10,6,4,12c-15,13-29,26-44,38      c-14,12-28,23-42,35C1329,420,1324,411,1320,402z"></path>
				<path class="st12" d="M661,1011c2,6-5,9-4,14c-4-16-12-22-29-19c-17,4-33,13-45,26c-3,4-7,7-11,10c-3-4,0-7,1-10      c7-23,23-39,42-53c4-3,9-5,15-7c23-5,35,6,32,29c0,3,0,6-2,9L661,1011z"></path>
				<path class="st13" d="M661,1011c0-4,0-7,0-11c0-23-13-32-35-22c-25,11-41,32-52,56c-2,0-4,0-3-3c8-29,23-53,48-70c6-4,14-7,21-8      c12-2,23,5,26,16c4,14,2,29-6,42H661z"></path>
				<path class="st14" d="M866,810c-5-4,0-5,2-7c7-5,12-15,21-17c12,19,31,28,52,35c4,1,8,2,15,4c-31,8-58,5-82-12c-2-2-4-3-7-3H866      z"></path>
				<path class="st15" d="M1966,863c-10-1-17-8-26-11c-4-1-7-6-10-3c-3,2,2,6,1,10c-5-5-7-12-10-19c16,6,32,13,46,23H1966z"></path>
				<path class="st16" d="M2185,1013c3-2,0-4,0-6l15,9l8,11c-10-3-17-9-24-13L2185,1013z"></path>
				<path class="st17" d="M1571,802c7-1,15,0,21,1C1583,808,1578,807,1571,802z"></path>
				<path class="st18" d="M549,2038c8,1,12,10,19,13v3C561,2050,554,2045,549,2038z"></path>
				<path class="st19" d="M2244,1528l5,3c1,5-2,10-5,16V1528z"></path>
				<path class="st20" d="M1571,399c2,4,6,2,9,4l-14,6c-1-6,2-7,5-9V399z"></path>
				<path class="st21" d="M572,1031l3,3c-1,2-2,5-2,8l-6,7c1-9,2-14,5-19V1031z"></path>
				<path class="st22" d="M1235,616c-1-2,0-5-3-6c1-2,3-5,4-4C1239,609,1238,613,1235,616z"></path>
				<path class="st23" d="M335,1039c4-19,7-38,16-56c31-22,59-48,88-73c51-43,101-85,151-128c46-39,92-78,138-117      c50-42,100-85,149-127c45-38,91-77,136-116c32-27,64-54,95-82c17-4,33-6,51-5c1-1,4-1,5-1c4,6-1,10-5,14c-43,36-86,73-129,110      c-46,39-91,78-137,117c-42,36-84,72-127,108c-51,44-103,87-154,131c-64,54-128,109-192,163c-25,21-49,42-74,63c-2,3-6,11-11,1      V1039z"></path>
				<path class="st24" d="M1109,340c-5,15-19,21-29,30c-34,30-69,59-103,88c-38,32-77,65-116,98c-33,28-66,57-100,86      c-32,27-65,54-98,82c-32,28-64,56-97,83c-32,27-65,55-98,82c-27,23-53,46-80,68c-11,9-22,18-33,27c-2,2-5,3-7,0      c4-19,10-37,19-53c25-16,45-36,67-54c51-43,101-85,151-128c52-44,104-89,156-133c43-37,86-73,129-110c56-47,111-95,168-142      c4-3,7-7,9-11c20-8,40-7,59-11L1109,340z"></path>
				<path class="st25" d="M1050,351c8,2,1,5,0,7c-15,14-30,27-46,40c-27,23-54,46-81,68c-40,33-79,67-119,100c-32,27-64,56-97,83      c-33,28-67,57-100,85c-32,27-64,55-97,83c-32,27-65,55-97,82c-12,10-23,20-36,30c-2,2-5,6-9,1c4-18,13-34,21-51      c44-37,88-75,132-112c45-39,91-77,136-116c43-37,86-74,130-110c46-39,91-78,137-117c23-20,47-41,71-61c17-8,35-10,53-13      L1050,351z"></path>
				<path class="st26" d="M997,364c-17,22-40,37-61,56c-27,23-54,47-82,70c-27,22-53,45-80,68s-53,46-80,68c-27,23-54,46-81,68      c-26,22-52,45-79,67c-33,28-67,57-100,85c-12,10-24,20-36,30c-2,2-5,4-8,4c9-22,19-44,32-64c61-49,120-101,180-152      c69-59,139-117,208-177c39-33,79-65,117-101c22-9,45-16,69-21L997,364z"></path>
				<path class="st27" d="M928,386c3,5-2,6-4,8c-30,26-59,52-89,77c-26,22-53,44-79,67c-33,28-65,56-98,83c-27,23-53,46-80,68      c-33,28-67,57-100,85c-14,12-28,24-41,36c-4,4-8,6-13,6c16-33,36-64,59-93c21-15,40-33,59-49c51-43,101-86,152-129      c39-33,78-67,117-100c6-5,14-9,18-15c31-20,65-31,99-43V386z"></path>
				<path class="st28" d="M1491,1576c-27,22-53,44-89,60c10-21,18-42,23-65c21-93,1-177-53-253c-14-19-32-33-48-50c-2-3-5-6-10-4      c-5-2-7-7-11-11c2-3,5-1,7,0c64,37,118,84,151,152c16,33,26,70,29,107c2,21,2,43-1,64H1491z"></path>
				<path class="st29" d="M335,1039c11,4,14-7,20-11c54-45,107-90,161-136c51-43,100-86,151-130c56-48,113-95,169-143      c51-43,101-86,151-130c54-46,109-93,164-140c6-5,14-7,15-16c3-3,7,0,11-2h14c-4,14-18,19-27,28c-28,25-57,48-85,72      c-32,27-65,55-98,82c-26,22-52,45-79,67c-39,33-78,65-116,99c-26,22-52,45-79,67c-33,28-67,57-100,85c-26,22-52,45-79,67      c-27,23-54,46-81,68c-27,23-54,46-81,69c-9,8-19,16-29,23c-2,2-4,3-7,0c0-7,2-14,5-21V1039z"></path>
				<path class="st30" d="M829,428c-2,13-15,16-22,23c-27,25-56,48-84,72c-33,28-65,55-98,83c-26,22-52,45-79,67c-19,16-38,33-57,49      c-2,2-4,3-7,0c14-21,30-42,47-61c63-73,134-136,216-187C772,457,799,440,829,428z"></path>
				<path class="st8" d="M1291,332c-9-1-18,3-27-2C1273,331,1282,327,1291,332z"></path>
				<path class="st6" d="M1176,332c-3,4-7,2-11,2h-5C1165,329,1171,332,1176,332z"></path>
				<path class="st28" d="M919,2190c87,4,174-10,256-40c79-29,153-70,219-123c64-52,120-112,157-187c20-40,32-84,36-128      c4-40-3-78-14-116c1-9,10-14,15-20c19-25,33-52,39-84c1-4,2-8,4-12c12,24,22,49,28,75c9,37,15,74,12,112c-5,65-25,129-57,186      c-33,58-75,107-123,151c-43,38-90,71-140,98c-61,33-126,58-193,74c-42,10-85,16-128,19c-21,1-42,3-62,2c-15-1-32,0-48-5      L919,2190z"></path>
			</g>
		</g>
		<path class="st0" d="M1178,2c616-36,1165,383,1294,986c35,165,37,337,4,503c-81,410-361,752-746,914c-263,110-563,126-836,44    c-374-111-675-391-814-756c-100-262-107-557-22-823C215,377,661,32,1177,2H1178z"></path>
		<path class="st2" d="M1304,1253c-44-26-92-41-142-53c-65-15-132-22-198-18c-47,2-94,9-137,30c-5,2-10,5-15,9c-35,23-41,55-15,89    c5,7,11,14,18,22c-23,0-43-4-63-8c-54-11-104-29-148-64c-21-17-35-29-49-52c6-9,14-17,23-22c17-7,29-20,46-28c76-35,157-56,240-64    c33-3,66-6,100-5c98,4,196,21,289,51c24,7,48,16,73,24c0-7-4-11-7-16c-10-17-22-33-35-49c-5-6-11-10-11-19c13,3,27,6,40,9    c4,1,8,3,10,0c3-4-1-7-4-10c-20-29-44-54-70-77c14-8,28-1,42,0c138,18,264,67,374,153c146,114,240,262,279,443    c13,61,17,123,12,184c-8,107-42,206-105,294c-4,6-10,10-13,17c-14,21-36,36-55,52c-105,85-228,130-360,151c-103,16-207,18-311,5    c-163-20-318-79-453-171c-33-22-65-46-94-73c-1-1-1-2,0-3l0,0c6-2,10,2,14,5c69,52,148,90,231,112c28,7,56,13,85,17c6,2,14,1,20,2    c1,0,3,0,4,1c65,8,130,3,194-8c141-25,266-84,373-179c73-64,131-141,161-235c31-94,26-185-17-276c-9,41-30,74-57,105    c-27,30-58,56-93,75c-4,2-9,7-13,3c-4-3-2-9,0-12c9-28,14-57,17-86c12-123-35-219-133-291c-16-12-33-23-51-32L1304,1253z"></path>
		<path class="st3" d="M898,2187c-36-4-72-11-106-22c-65-20-127-49-185-86c-14-9-25-21-40-28c-9-1-12-10-19-13    c-144-128-242-285-298-468c-27-89-42-181-44-275c0-7,1-14,1-25c7,16,12,28,18,40c52,114,118,217,209,303c97,91,210,153,342,174    c156,25,301-2,435-86c67-42,121-96,153-169c38-89,24-172-35-249c-5-7-11-13-16-20c7-6,11,1,15,4c35,29,62,65,80,106    c18,40,27,82,28,125c1,44-9,88-28,128c4,0,8-1,11-4c19-11,36-23,52-37c5-4,10-11,18-10c-4,33-12,67-22,99c21-12,42-26,62-41    c15-12,28-27,43-40c6,3,6,9,8,15c25,89,7,172-37,250c-53,95-132,166-223,223c-74,46-154,79-240,98c-53,12-108,15-163,10l0,0    c-7-4-15,0-21-3L898,2187z"></path>
		<path class="st1" d="M2244,1528c-5-102-30-201-74-293c-29-60-65-116-108-166c-39-46-83-85-130-122c4-4,10-4,15-3    c65,7,130,23,191,46c15,6,30,12,44,21c5,2,10,5,15,9c1,1,2,2,4,2c-1-1-1-3-1-5c-42-55-93-101-147-144c-64-52-133-96-207-131    c-103-51-212-84-326-98c-10-1-21,0-30-4c-1-7,5-9,9-12c67-56,120-121,158-199c11-23,21-48,29-73c2-7,4-15,11-19    c119,57,226,137,315,235c236,260,325,621,237,961c-2,1-3-1-4-3L2244,1528z"></path>
		<path class="st3" d="M1840,2091c0-10,8-16,14-24c49-69,78-146,94-230c10-52,10-104,7-155c-5-79-26-156-58-229    c-23-54-53-105-88-152c-37-49-81-95-129-134c-74-61-159-107-251-136c-49-16-99-26-150-31c-9-1-18-3-28-2c-32-24-65-47-103-64v-4    c13,0,27,0,40,0c186-3,359,42,509,156c156,118,253,273,289,465c31,164,7,319-84,460c-18,29-37,56-63,78L1840,2091z"></path>
		<path class="st3" d="M1697,335c-19,57-42,112-76,162c-34,51-75,96-122,134c-3,2-5,5-8,7c-16,8-30,21-45,31c-55,36-114,67-176,91    c-1,0-3,1-5,1c-3-4,0-5,2-7c35-33,57-74,71-120c1-6,6-11,11-13c109-43,195-114,266-206c6-8,13-17,21-27c-22,0-39,11-57,14    c-4,0-8,3-9-4c67-79,118-170,149-269c2-6,0-15,9-18c1,0,1,1,1,2s0,1,0,1c-1,70-11,141-30,209c-1,4-2,8-2,13V335z"></path>
		<path class="st3" d="M1275,1078c22,24,41,51,57,80c1,3,5,6,2,9c-3,2-6-1-9-2c-72-27-147-47-223-61c-38-7-77-10-116-12    c-35-2-70-2-105,1c-80,6-157,23-231,56c-23,10-46,22-67,36c-2,1-3,4-6,1c64-45,133-83,209-105c104-31,210-38,317-30    c55,4,109,13,163,25C1270,1076,1272,1077,1275,1078z"></path>
		<path class="st3" d="M2185,1013c-63-30-129-49-198-60c-19-3-37-7-55-7c-24-15-47-31-72-45c-79-46-166-77-257-92c-2-1-4-1-6-2    c27-5,120,9,184,27c60,16,117,39,173,68c-6-17-16-29-23-43c-1-4-6-7-2-11c3-4,7,0,11,2c9,4,18,9,27,14c78,40,151,89,219,144    c4,5,4,5-1,6V1013z"></path>
		<path class="st3" d="M1149,656c28-14,58-26,82-46c5,0,5,3,3,6c-23,94-94,156-190,165c-19,2-37,4-56,2c2-7,9-6,14-8    c21-6,42-12,61-22c36-19,63-47,78-85c1-5,4-10,7-13L1149,656z"></path>
		<path class="st9" d="M1149,656c-12,45-40,76-80,98c-25,14-53,21-81,29c-7-20,1-37,12-52c14-18,33-29,53-38c31-14,63-26,95-37H1149    z"></path>
		<path class="st12" d="M661,1011c2,6-5,9-4,14c-4-16-12-22-29-19c-17,4-33,13-45,26c-3,4-7,7-11,10c-3-4,0-7,1-10c7-23,23-39,42-53    c4-3,9-5,15-7c23-5,35,6,32,29c0,3,0,6-2,9L661,1011z"></path>
		<path class="st13" d="M661,1011c0-4,0-7,0-11c0-23-13-32-35-22c-25,11-41,32-52,56c-2,0-4,0-3-3c8-29,23-53,48-70c6-4,14-7,21-8    c12-2,23,5,26,16c4,14,2,29-6,42H661z"></path>
		<path class="st15" d="M1966,863c-10-1-17-8-26-11c-4-1-7-6-10-3c-3,2,2,6,1,10c-5-5-7-12-10-19c16,6,32,13,46,23H1966z"></path>
		<path class="st16" d="M2185,1013c3-2,0-4,0-6l15,9l8,11c-10-3-17-9-24-13L2185,1013z"></path>
		<path class="st18" d="M549,2038c8,1,12,10,19,13v3C561,2050,554,2045,549,2038z"></path>
		<path class="st19" d="M2244,1528l5,3c1,5-2,10-5,16V1528z"></path>
		<path class="st20" d="M1571,399c2,4,6,2,9,4l-14,6c-1-6,2-7,5-9V399z"></path>
		<path class="st21" d="M572,1031l3,3c-1,2-2,5-2,8l-6,7c1-9,2-14,5-19V1031z"></path>
		<path class="st22" d="M1235,616c-1-2,0-5-3-6c1-2,3-5,4-4C1239,609,1238,613,1235,616z"></path>
		<path class="st28" d="M1491,1576c-27,22-53,44-89,60c10-21,18-42,23-65c21-93,1-177-53-253c-14-19-32-33-48-50c-2-3-5-6-10-4    c-5-2-7-7-11-11c2-3,5-1,7,0c64,37,118,84,151,152c16,33,26,70,29,107c2,21,2,43-1,64H1491z"></path>
		<path class="st28" d="M919,2190c87,4,174-10,256-40c79-29,153-70,219-123c64-52,120-112,157-187c20-40,32-84,36-128    c4-40-3-78-14-116c1-9,10-14,15-20c19-25,33-52,39-84c1-4,2-8,4-12c12,24,22,49,28,75c9,37,15,74,12,112c-5,65-25,129-57,186    c-33,58-75,107-123,151c-43,38-90,71-140,98c-61,33-126,58-193,74c-42,10-85,16-128,19c-21,1-42,3-62,2c-15-1-32,0-48-5L919,2190z    "></path>
		<path class="st8" d="M882,742l-1,1h1c0,54,29,73,82,87c-67,21-85-24-92-15c-28,31-134,128-193,103c-42-8-25-68-19-95v-1l0,0    c-17,2-26,16-39,26c-129,92-156,234-123,386c3,14,7,11,15,5c14-11,27-24,42-33c4,1,7,4,9,7c41,53,95,86,159,103c29,8,52,7,82,11    c-10-11-10-16-16-30c-10-23-12-49,5-67c21-22,54-30,82-37c59-15,119-18,179-14c49,3,96,16,144,30c39,11,77,24,112,46    c5,4,8,9,13,13c45,48,71,104,72,170c1,45-11,88-34,128c-41,71-100,124-171,163c-72,40-152,65-234,74c-147,16-284-16-409-94    c-104-65-185-154-250-257c-30-49-84-148-91-182c0-17,2-11,4-50c4-73,15-146,34-216c86-318,317-577,623-699c92-37,189-60,287-69    c156-14,306,6,454,58c-23,42-150,156-249,222c-15-79-20-68-46-124c0,6-64,95-144,145c-81,51-292,84-289,203L882,742z"></path>
		
			<linearGradient id="SVGID_1_" gradientUnits="userSpaceOnUse" x1="898.7696" y1="1023.2621" x2="886.7696" y2="2122.2622" gradientTransform="matrix(1 0 0 -1 0 2499.2756)">
			<stop offset="0" style="stop-color:#5591CD"></stop>
			<stop offset="1" style="stop-color:#5DA0D3"></stop>
		</linearGradient>
		<path class="st31" d="M887,793L887,793c0,0,0,0,1,0c0,13,2,23,6,32c-12-7-18-15-21-11c-25,27-109,105-170,107c-8-18,0-47,4-63    c0,0,0,0,0-1l0,0c-14,2-22,13-32,21c-7,5-14,10-20,16l0,0c-7-22,2-55,6-73v-1l0,0c-17,2-26,16-39,26c-129,92-156,234-123,386    c-17,145-170,280-192,231c-2-5,36-229,34-233c1,5,4,11-1,16c-2-22,0-43,1-65c3-60,12-119,28-176c70-259,258-470,508-570    c75-30,154-49,234-56c126-12,248,5,368,47c-38,32-80,64-118,89c-15-79-20-68-46-124c0,6-64,95-144,145c-81,51-292,84-289,203l-1,1    h1c0,14,2,26,6,36l0,0c-1,5-1,10-1,15V793z M570,1172c0,1,0,2,1,3C571,1174,571,1173,570,1172z M573,1189c0,2,1,4,1,6    C574,1193,573,1191,573,1189z"></path>
	</g>
</g>
</svg>
