<?xml version="1.0" encoding="utf-8"?>
<!-- Generator: Adobe Illustrator 27.5.0, SVG Export Plug-In . SVG Version: 6.00 Build 0)  -->
<svg version="1.1" id="Layer_1" xmlns="http://www.w3.org/2000/svg" xmlns:xlink="http://www.w3.org/1999/xlink" x="0px" y="0px"
	 viewBox="0 0 1326.88 1436.17" style="enable-background:new 0 0 1326.88 1436.17;" xml:space="preserve">
<style type="text/css">
	.st0{fill:#063B2A;}
	.st1{fill:#02523C;}
	.st2{fill:url(#SVGID_1_);}
	.st3{fill:#03623A;}
	.st4{fill:url(#SVGID_00000145763791014282550040000006690118771670394552_);}
	.st5{fill:#218139;}
	.st6{fill:#05382A;}
	.st7{fill:#67FE57;}
	.st8{fill:#CAEFA3;}
	.st9{fill:#80D65A;}
	.st10{fill:none;}
	.st11{fill:#30A038;}
	.st12{fill:#1F7B31;}
	.st13{fill:#1F7C30;}
	.st14{fill:url(#SVGID_00000123423052424660303250000001827755942990003088_);}
	.st15{fill:url(#SVGID_00000046338538940799447600000007469067351468578694_);}
	.st16{fill:#FFFFFF;}
	.st17{fill:#33352F;}
	.st18{fill:#1B7A30;}
	.st19{fill:#203A2E;}
	.st20{fill:#141F1E;}
	.st21{fill:#42BA3A;}
	.st22{fill:#1E8A33;}
	.st23{fill:#234B35;}
	.st24{fill:#2F7245;}
</style>
<g id="_x32_">
	<path class="st0" d="M1312.87,121.7c-16.65,14.13-34.52,7.99-46.64,1.73c-5.01-2.58-9.05-5.2-11.61-6.38
		c-8.75-4.1-29.08,1.09-29.08,1.09c-40.11,5.83-106.47,43.39-109.93,56.15c-0.3,1.15-0.55,2.22-0.67,3.22
		c-1.55,10.27,4.5,13.92,4.5,13.92c114.49,136.36,109.2,202.63,109.2,202.63l3.01,21.88l-0.27,28.71l6.32,59.07
		c0,0,23.76,110.48,36.89,143.29c13.13,32.82,22.42,108.84,22.42,108.84c10.94,123.6-74.56,179.21-74.56,179.21l6.75,16.23
		l2.19,45.76c3.8,40.14-20.57,82.49-41.14,115.25c-37.77,60.1-82.65,113.82-131.66,163.77c-49.04,49.95-102.18,96.11-156.45,141.01
		c-23.67,17.38-50.68,21.03-78.3,18.26c-0.06,0-0.09-0.03-0.15-0.03c-32.48-3.22-65.84-15.28-95.65-24.19
		c-24.06-7.2-47.76-15.59-71.07-24.98c-70.28-28.32-141.96-63.93-200.93-112.09c-56.03-45.73-93.89-101.94-130.35-162.71
		c-37.04-61.74-57.52-135.76-79.06-203.94c-14.37-45.36-27.16-91.15-40.84-136.7c-24.73-82.34-34.79-167.75-39.8-253.31
		c-2.55-43.75,5.47-98.45,26.62-156.42c21.15-57.97,59.25-119.5,69.37-130.44c10.12-10.94,1.09-15.31,1.09-15.31
		c-12.31-14.77-64.54-63.72-64.54-63.72c-44.3-44.03-117.86-43.75-117.86-43.75c-16.13,32.27-32.82,34.73-32.82,34.73
		c-31.17,10.39-46.49-33.91-47.58-38.83c-0.09-0.49-0.18-1.4-0.21-2.67c-0.03-0.09-0.03-0.21-0.03-0.3
		c-0.36-12.52,3.25-56.48,34.15-64.84c34.46-9.3,46.49,27.62,46.49,27.62h5.1c18.93-0.21,38.56-2.04,57.27,1.03
		c41.6,6.87,82.74,19.35,119.11,41.05c17.26,10.3,31.63,24.88,48.77,35.03c6.71,3.95,11.73,5.44,15.41,5.8
		c6.29,0.58,8.66-2.25,8.66-2.25l13.67-13.95c0,0,80.94-75.84,189.6-107.93c10.21-3.01,20.24-5.68,30.11-8.05
		c95.26-22.73,176.11-15.77,262.67,4.04c95.53,21.88,187.41,76.93,210.75,101.73c23.34,24.79,37.01,14.04,37.01,14.04
		c65.63-50.86,161.89-45.12,161.89-45.12s-0.27-13.67,12.31-21.6s31.99-10.66,53.32,1.09
		C1327.64,80.14,1336.39,101.74,1312.87,121.7z"/>
	<g>
		<path class="st1" d="M1222.45,935.05l6.75,16.23l-35,12.4c0,0,29.53-33.54,39.01-49.59c9.48-16.04,67.82-92.61,48.86-218.46
			c-18.96-125.85-116.68-170.94-116.68-170.94c33.18-6.2,67.45,22.24,67.45,22.24L1192,462.7c35.37-6.2,39.1-27.62,39.1-27.62
			l-1.91-22.15c-17.5-126.34-165.17-257.6-165.17-257.6c-30.63-24.06-202.36-166.26-420.03-106.1
			C426.32,109.39,341,306.82,341,306.82c-14.77,22.42-24.06,65.08-24.06,65.08c-10.94,77.12,70.01,80.4,70.01,80.4l-38.65,79.67
			c62.71-36.46,92.25-18.96,92.25-18.96c-131.26,78.03-143.6,199.44-143.6,199.44C280.53,879.81,446,994.3,446,994.3
			s-42.2,6.99-66.66-12.49c2.83,2.25,4.53,16.29,5.62,19.84c5.38,17.35,11.55,34.46,18.41,51.29
			c19.78,48.58,45.39,95.95,80.4,135.33c26.4,29.75,59.28,51.35,91.85,73.56c0,4.04,29.23,19.93,33.42,22.79
			c11.88,8.08,23.76,16.19,35.64,24.31c24.91,16.98,51.35,33.24,74.08,52.99c12.12,10.57,24.34,20.63,37.98,29.26
			c43.18,27.29,95.35,40.96,145.39,25.89c-23.67,17.38-50.68,21.03-78.3,18.26c-0.06,0-0.09-0.03-0.15-0.03
			c-107.17-19.45-273.03-104.83-273.03-104.83c-245.75-142.2-243.01-387.58-243.01-387.58c19.69,11.49,55.24,13.13,55.24,13.13
			c-121.42-126.89-106.1-185.95-106.1-253.77c0-67.82,41.2-151.5,41.2-151.5c-13.13,5.83-23.7,0-23.7,0
			c-19.78-21.33,14.89-58.49,18.32-62.08c-2.89,2.55-29.26,25.31-47.86,13.95c-19.69-12.03-25.71-70.01-25.71-70.01
			c-1.73-16.95-1.31-34,0.97-50.89c5.17-38.77,20.51-71.46,41.81-103.73c10-15.13,17.9-31.63,27.8-46.85
			c10.76-16.47,22.39-32.36,34.82-47.61c34.24-42.02,74.53-79.27,119.81-109.2c35.88-23.73,81-45.61,124.12-60.13
			c95.26-22.73,176.11-15.77,262.67,4.04c95.53,21.88,187.41,76.93,210.75,101.73c23.33,24.79,37.01,14.04,37.01,14.04
			c65.63-50.86,161.89-45.12,161.89-45.12s-1.37,5.59,2.52,13.37c-2.28-0.03-90.09-0.43-136.88,63.66c0,0-2.04,8.93,8.63,11.61
			c-1.55,10.27,4.5,13.92,4.5,13.92c114.49,136.36,109.2,202.63,109.2,202.63l3.01,21.88l-0.27,28.71l6.32,59.07
			c0,0,23.76,110.48,36.89,143.29c13.13,32.82,22.42,108.84,22.42,108.84C1307.95,879.45,1222.45,935.05,1222.45,935.05z"/>
		<linearGradient id="SVGID_1_" gradientUnits="userSpaceOnUse" x1="1106.1613" y1="139.8773" x2="1266.229" y2="139.8773">
			<stop  offset="0" style="stop-color:#02513B"/>
			<stop  offset="0.1908" style="stop-color:#04573B"/>
			<stop  offset="0.4348" style="stop-color:#0B663B"/>
			<stop  offset="0.7078" style="stop-color:#16813A"/>
			<stop  offset="1" style="stop-color:#26A53A"/>
		</linearGradient>
		<path class="st2" d="M1266.23,123.43c-5.01-2.58-9.05-5.2-11.61-6.38c-8.75-4.1-29.08,1.09-29.08,1.09
			c-40.11,5.83-106.47,43.39-109.93,56.15c-0.3,1.15-0.55,2.22-0.67,3.22c-10.66-2.67-8.63-11.61-8.63-11.61
			c46.79-64.08,134.6-63.69,136.88-63.66C1246.33,108.51,1252.86,116.13,1266.23,123.43z"/>
		<path class="st3" d="M1306.31,68.37c-21.33-11.76-40.75-9.02-53.32-1.09c-12.58,7.93-12.31,21.6-12.31,21.6s-1.37,5.59,2.52,13.37
			c3.13,6.26,9.66,13.89,23.03,21.18c12.12,6.26,29.99,12.4,46.64-1.73C1336.39,101.73,1327.64,80.13,1306.31,68.37z
			 M1290.17,109.66c-9.18-1.7-19.57-6.59-25.46-14.01c-3.01-3.8-4.56-8.42-3.28-13.19c1.43-5.41,4.65-8.66,8.75-10.57
			c5.38-2.55,12.28-2.77,18.53-2.55c9.87,0.33,22.97,2.77,26.07,13.79C1320.53,103.37,1303.57,112.12,1290.17,109.66z"/>
		<path class="st0" d="M823.68,1435.3c-32.48-3.22-65.84-15.28-95.65-24.19c-24.06-7.2-47.76-15.59-71.07-24.98
			c-70.28-28.32-141.96-63.93-200.93-112.09c-56.03-45.73-93.89-101.94-130.35-162.71c-37.04-61.74-57.52-135.76-79.06-203.94
			c-14.37-45.36-27.16-91.15-40.84-136.7c-24.73-82.34-34.79-167.75-39.8-253.31c-2.55-43.75,5.47-98.45,26.62-156.42
			s59.25-119.5,69.37-130.44c10.12-10.94,1.09-15.31,1.09-15.31c-12.31-14.77-64.54-63.72-64.54-63.72
			c-44.3-44.03-117.86-43.75-117.86-43.75c1.06-3.07,1.76-6.29,2.22-9.54c0,0,108.26-14.52,205.61,89.94
			c0,0,20.96-36.01,37.83-41.78c6.29,0.58,8.66-2.25,8.66-2.25l13.67-13.95c0,0,80.94-75.84,189.6-107.93
			c10.21-3.01,20.24-5.68,30.11-8.05c-43.12,14.52-88.24,36.4-124.12,60.13c-45.27,29.93-85.56,67.18-119.81,109.2
			c-12.43,15.25-24.06,31.14-34.82,47.61c-9.91,15.22-17.8,31.72-27.8,46.85c-21.3,32.27-36.64,64.96-41.81,103.73
			c-2.28,16.89-2.7,33.94-0.97,50.89c0,0,6.02,57.97,25.71,70.01c18.6,11.36,44.97-11.39,47.86-13.95
			c-3.43,3.59-38.1,40.75-18.32,62.08c0,0,10.57,5.83,23.7,0c0,0-41.2,83.68-41.2,151.5c0,67.82-15.31,126.88,106.1,253.77
			c0,0-35.55-1.64-55.24-13.13c0,0-2.74,245.38,243.01,387.58C550.65,1330.47,716.52,1415.85,823.68,1435.3z"/>
		
			<linearGradient id="SVGID_00000003815332898481126740000000905297752674933939_" gradientUnits="userSpaceOnUse" x1="80.6632" y1="125.4298" x2="326.3208" y2="125.4298">
			<stop  offset="0" style="stop-color:#26A53A"/>
			<stop  offset="0.2922" style="stop-color:#16813A"/>
			<stop  offset="0.5652" style="stop-color:#0B663B"/>
			<stop  offset="0.8092" style="stop-color:#04573B"/>
			<stop  offset="1" style="stop-color:#02513B"/>
		</linearGradient>
		<path style="fill:url(#SVGID_00000003815332898481126740000000905297752674933939_);" d="M326.32,146.37
			c-16.86,5.77-37.83,41.78-37.83,41.78C191.14,83.68,82.88,98.21,82.88,98.21c2.4-17.02-2.22-34.76-2.22-34.76h5.11
			c18.93-0.21,38.56-2.04,57.27,1.03c41.6,6.87,82.74,19.35,119.11,41.05c17.26,10.3,31.63,24.88,48.77,35.03
			C317.63,144.51,322.64,146,326.32,146.37z"/>
		<path class="st5" d="M82.88,98.21c0,0-23.55,39.29-50.62,28.68C6.04,116.62,0.39,104.5,0.05,100.97c-0.03-0.09-0.03-0.21-0.03-0.3
			c-0.36-12.52,3.25-56.48,34.15-64.84c34.46-9.3,46.49,27.62,46.49,27.62S85.28,81.19,82.88,98.21z"/>
		<path class="st6" d="M82.88,98.21c-0.46,3.25-1.15,6.47-2.22,9.54c-16.13,32.27-32.81,34.73-32.81,34.73
			c-31.18,10.39-46.49-33.91-47.58-38.83c-0.09-0.49-0.18-1.4-0.21-2.67c0.33,3.52,5.98,15.65,32.21,25.92
			C59.33,137.49,82.88,98.21,82.88,98.21z"/>
		<path class="st7" d="M1233.2,914.1c-9.48,16.04-39.01,49.59-39.01,49.59l35-12.4l2.19,45.76c3.8,40.14-20.57,82.49-41.14,115.25
			c-75.51,120.17-179.57,214.97-288.1,304.79c-50.04,15.07-102.21,1.4-145.39-25.89c-13.64-8.63-25.86-18.69-37.98-29.26
			c-22.73-19.75-49.16-36.01-74.08-52.99c-11.88-8.11-23.76-16.23-35.64-24.31c-4.19-2.86-33.42-18.75-33.42-22.79
			c-32.57-22.21-65.45-43.81-91.85-73.56c-35-39.38-60.62-86.75-80.4-135.33c-6.87-16.83-13.04-33.94-18.41-51.29
			c-1.09-3.55-2.8-17.59-5.62-19.84C403.8,1001.3,446,994.31,446,994.31S280.53,879.82,296.93,712.47c0,0,12.34-121.42,143.6-199.44
			c0,0-29.53-17.5-92.25,18.96l38.65-79.67c0,0-80.94-3.28-70-80.4c0,0,9.3-42.66,24.06-65.08c0,0,85.32-197.44,302.99-257.6
			s389.41,82.04,420.03,106.1c0,0,147.67,131.26,165.17,257.6l1.91,22.15c0,0-3.74,21.42-39.1,27.62l40.84,84.23
			c0,0-34.27-28.44-67.45-22.24c0,0,97.72,45.09,116.68,170.94C1301.01,821.49,1242.68,898.05,1233.2,914.1z"/>
		<path class="st8" d="M1191.45,925.66c-79.12,86.2-189.51,68.64-215.76,63.17c-25.83-5.38-21.82-26.62-21.69-27.29
			c2.49,6.29,4.28,9.24,4.28,9.24c27.38,21.3,83.83,10.24,113.76,5.29c103.52-17.11,170.24-113.33,170.18-211.99
			C1242.92,766.02,1269.57,840.59,1191.45,925.66z"/>
		<path class="st8" d="M565.23,986.1c-180.45-53.32-192.7-195.55-193.03-199.81c4.5,18.35,11.33,36.7,20.93,52.69
			c10.03,16.71,22.42,31.66,36.22,45.36c37.22,36.95,83.44,64.2,132.02,83.37c25.95,10.24,53.57,19.51,81.52,24.37
			c30.08,5.23,60.4,3.34,90.73,2.61c13.55-0.33,27.47-4.01,36.01-12.94C776.01,991.11,748.45,1040.24,565.23,986.1z"/>
		<path class="st9" d="M1217.89,643.54c0,0-4.16-71.89-98.57-84.56c-5.13-0.7-10.33-0.85-15.5-0.27
			c-25.55,2.86-98.87,21.57-139.86,140.68c0.85-4.8,29.41-158.61,158.3-161.4c21.27-0.46,42.27,6.2,58.92,19.45
			C1200.24,572.63,1219.8,599.12,1217.89,643.54z"/>
		<path class="st9" d="M678.84,636.95c-23.37-39.8-76.02-98.02-184.98-101.88c-5.71-0.21-11.42,0.24-17.01,1.46
			c-30.48,6.68-123.15,38.68-130.93,181.55c-0.58-5.65-0.79-11.33-0.91-16.98c-0.3-14.01,0.33-28.01,1.98-41.93
			c2.1-18.08,5.89-36.07,12.03-53.23c6.65-18.53,16.16-36.22,29.29-50.98c14.46-16.29,33.06-28.29,53.69-35.15
			c20.57-6.84,43.75-9.12,65.48-8.9c13.1,0.12,26.19,2.07,38.8,5.53c18.38,5.01,35.82,13.22,51.59,23.88
			c21.42,14.43,39.68,33.18,54.9,53.99C662.61,607.75,671.24,622.09,678.84,636.95z"/>
		<path class="st10" d="M292.59,488.68c0.03-0.03,0.03-0.06,0.06-0.06"/>
		<path class="st10" d="M292.59,488.68c0.03-0.03,0.03-0.06,0.06-0.06"/>
		<path class="st10" d="M292.87,488.4c0,0-0.03,0.03-0.06,0.06"/>
		<path class="st11" d="M732.01,1127.29c-7.87,26.65-63.02,33.82-123.15,16.01c-60.16-17.81-102.52-53.84-94.62-80.49
			c7.9-26.65,63.05-33.82,123.18-16.01C697.56,1064.61,739.91,1100.65,732.01,1127.29z"/>
		<path class="st11" d="M1120.35,1129.6c-45.12,14.8-89.06,4.47-98.11-23.09c-9.05-27.56,20.17-61.92,65.3-76.75
			c45.12-14.83,89.03-4.5,98.08,23.06C1194.67,1080.41,1165.44,1114.77,1120.35,1129.6z"/>
		<path class="st12" d="M695.19,673.29c-0.61-1.4-1.22-2.77-1.88-4.13c-1.28-2.7-2.61-5.38-4.01-7.96
			c-0.46-0.88-0.91-1.73-1.43-2.58c-0.43-0.79-0.88-1.58-1.34-2.37c-0.79-1.4-1.61-2.73-2.43-4.07c-0.03-0.06-0.06-0.12-0.09-0.15
			c-1.64-2.64-3.34-5.17-5.07-7.66c-0.64-0.91-1.28-1.82-1.95-2.7c-0.64-0.91-1.31-1.79-1.97-2.64c-0.67-0.88-1.34-1.76-2.04-2.61
			c-0.67-0.85-1.34-1.7-2.07-2.55c-0.43-0.55-0.91-1.12-1.4-1.67c-0.73-0.88-1.49-1.76-2.28-2.64c-3.01-3.4-6.11-6.65-9.3-9.75
			c-1.06-1.03-2.13-2.07-3.22-3.04c-1.06-1-2.16-2.01-3.25-2.95c-2.19-1.95-4.38-3.8-6.62-5.56c-1.12-0.91-2.25-1.79-3.37-2.64
			c-0.88-0.7-1.76-1.37-2.64-2.01c-1.61-1.22-3.22-2.37-4.83-3.46c-1.61-1.12-3.25-2.22-4.86-3.28c-1.61-1.06-3.25-2.1-4.86-3.1
			c-1.64-1-3.25-1.97-4.89-2.92c-2.92-1.7-5.86-3.31-8.75-4.83c-0.85-0.46-1.7-0.88-2.55-1.31c-5.07-2.61-10.09-4.92-14.95-6.96
			c-2.13-0.91-4.22-1.76-6.26-2.55c-2.07-0.82-4.1-1.58-6.08-2.31c-1.97-0.73-3.92-1.4-5.83-2.04c-3.28-1.12-6.47-2.1-9.45-2.98
			c-1.28-0.39-2.49-0.73-3.71-1.06c-3.62-1.03-6.96-1.85-9.94-2.55c-0.64-0.15-1.25-0.3-1.85-0.43c-1.49-0.33-2.86-0.64-4.13-0.88
			c-1.28-0.27-2.46-0.52-3.49-0.7c-1.06-0.21-1.97-0.36-2.8-0.49c-0.7-0.12-1.31-0.24-1.85-0.3c-0.58-0.09-1.06-0.18-1.4-0.21
			c-0.21-0.03-0.36-0.06-0.49-0.06c-0.09-0.03-0.15-0.03-0.15-0.03c-165.17-13.13-189.78,156.94-189.78,156.94
			c7.78-142.87,100.45-174.86,130.93-181.55c5.59-1.22,11.3-1.67,17.01-1.46c108.96,3.86,161.61,62.08,184.98,101.88
			C684.95,648.8,690.33,660.95,695.19,673.29z"/>
		<path class="st10" d="M695.31,673.53c-0.03-0.09-0.06-0.15-0.12-0.24c-4.86-12.34-10.24-24.49-16.35-36.34
			c2.95,5.01,5.44,9.72,7.5,14.01c0.52,1.06,1.03,2.13,1.49,3.13c1.64,3.55,2.98,6.71,4.04,9.45c0.24,0.64,0.49,1.28,0.7,1.85
			c0.24,0.58,0.46,1.15,0.64,1.7c0.12,0.3,0.21,0.64,0.33,0.91c0.21,0.58,0.4,1.12,0.55,1.64c0.09,0.24,0.18,0.49,0.24,0.73
			c0.15,0.43,0.27,0.79,0.36,1.12c0.06,0.18,0.12,0.39,0.18,0.58C695.1,672.77,695.25,673.26,695.31,673.53z"/>
		<path class="st10" d="M695.19,673.29c0.06,0.09,0.09,0.15,0.12,0.24c0,0.06,0.03,0.12,0.06,0.18c0,0.03,0.03,0.06,0.03,0.09"/>
		<path class="st12" d="M1217.89,643.54c-14.86-34.85-50.92-54.9-71.1-63.78c-10.09-4.44-21.06-6.62-32.09-6.14
			c-92.16,4.04-148.79,121.69-150.74,125.76c40.99-119.11,114.31-137.82,139.86-140.68c5.17-0.58,10.36-0.43,15.5,0.27
			C1213.73,571.65,1217.89,643.54,1217.89,643.54z"/>
		<path class="st10" d="M963.94,699.51c0,0,0-0.03,0.03-0.12"/>
		<path class="st13" d="M775.37,902.42c-1.82-23.12-4.41-45.45-8.99-67.48c-3.83-18.41-9.05-36.58-16.47-54.81
			c-15.89-39.14-37.43-77.42-65.63-109.57c-39.65-45.24-98.63-79.91-160.03-80.97c-46.79-0.82-92.16,23.82-122.42,58.52
			c-31.05,35.58-41.08,80.52-32.18,126.49c0.73,3.86,1.58,7.75,2.55,11.61c0,0,0,0.03,0,0.09c4.5,18.35,11.33,36.7,20.93,52.69
			c10.03,16.71,22.42,31.66,36.22,45.36c37.22,36.95,83.44,64.2,132.02,83.37c25.95,10.24,53.57,19.51,81.52,24.37
			c30.08,5.23,60.4,3.34,90.73,2.61c13.55-0.33,27.47-4.01,36.01-12.94c4.92-5.1,8.05-11.94,8.36-20.81
			C778.71,941.49,776.89,921.8,775.37,902.42z M769.42,970.24c0,0-2.92,14.58-51.05,10.94c0,0-147.3,9.48-245.75-72.19
			c-98.44-81.67-107.2-154.23-84.59-209.47c22.61-55.24,149.49-115.76,247.21-40.65c97.72,75.11,125.43,156.05,134.18,231.89
			C778.17,966.59,769.42,970.24,769.42,970.24z"/>
		
			<linearGradient id="SVGID_00000171680097473147118630000008369304188934433183_" gradientUnits="userSpaceOnUse" x1="377.6895" y1="802.7607" x2="773.2994" y2="802.7607">
			<stop  offset="0" style="stop-color:#0C0C0D"/>
			<stop  offset="0.2275" style="stop-color:#0D0F0E"/>
			<stop  offset="0.4036" style="stop-color:#111912"/>
			<stop  offset="0.5625" style="stop-color:#182919"/>
			<stop  offset="0.7113" style="stop-color:#214123"/>
			<stop  offset="0.8517" style="stop-color:#2C5E30"/>
			<stop  offset="0.9358" style="stop-color:#357439"/>
		</linearGradient>
		<path style="fill:url(#SVGID_00000171680097473147118630000008369304188934433183_);" d="M769.41,970.25
			c0,0-2.92,14.58-51.05,10.94c0,0-147.3,9.48-245.75-72.19c-98.44-81.67-107.2-154.23-84.59-209.47
			c22.61-55.24,149.49-115.76,247.21-40.65c97.72,75.11,125.43,156.05,134.18,231.89C778.16,966.6,769.41,970.25,769.41,970.25z"/>
		<path class="st10" d="M946.31,935.69c0.43,2.31,1.03,4.98,1.91,7.81C947.59,941.07,946.95,938.48,946.31,935.69z"/>
		<path class="st13" d="M1242.23,764.08c0.06,98.66-66.66,194.89-170.18,211.99c-29.93,4.95-86.38,16.01-113.76-5.29
			c0,0-1.79-2.95-4.28-9.24c-1.67-4.31-3.71-10.21-5.68-17.77c2.16,6.81,5.89,14.4,12.34,19.9c9.21,7.81,28.23,6.68,39.32,6.99
			c21.03,0.58,42.29-0.79,63.08-3.95c47.37-7.2,92.76-37.89,125.79-71.74c41.84-42.87,58.46-101.97,44.88-160.58
			c-24.88-107.14-157.91-142.29-232.29-61.68c-24.12,26.13-38.71,59.68-47.46,93.8c-13.89,54.3-9.91,106.16-8.63,161.07
			c0,0,0.06,2.8,0.76,6.96c-5.92-27.32-10.21-71.16-2.28-134.88c8.66-69.52,43.97-154.41,108.62-188.29
			c66.45-34.85,150.07,10.73,175.68,76.66C1237.7,712.67,1242.23,738.43,1242.23,764.08z"/>
		
			<linearGradient id="SVGID_00000036931821889436145750000017030160149488427686_" gradientUnits="userSpaceOnUse" x1="956.3018" y1="742.6596" x2="1201.4637" y2="884.2039">
			<stop  offset="0.0481" style="stop-color:#357439"/>
			<stop  offset="0.053" style="stop-color:#347338"/>
			<stop  offset="0.2207" style="stop-color:#234626"/>
			<stop  offset="0.3708" style="stop-color:#162718"/>
			<stop  offset="0.4967" style="stop-color:#0F1310"/>
			<stop  offset="0.5829" style="stop-color:#0C0C0D"/>
		</linearGradient>
		<path style="fill:url(#SVGID_00000036931821889436145750000017030160149488427686_);" d="M1188.84,894.99
			c-33.03,33.85-78.42,64.54-125.79,71.74c-20.78,3.16-42.05,4.53-63.08,3.95c-11.09-0.3-30.11,0.82-39.32-6.99
			c-6.44-5.5-10.18-13.1-12.34-19.9c-0.06-0.09-0.06-0.18-0.09-0.27c-0.64-2.43-1.28-5.01-1.91-7.81c-0.06-0.36-0.12-0.76-0.21-1.15
			c-0.7-4.16-0.76-6.96-0.76-6.96c-1.28-54.9-5.26-106.77,8.63-161.07c8.75-34.12,23.33-67.67,47.46-93.8
			c74.38-80.61,207.4-45.46,232.29,61.68C1247.3,793.02,1230.67,852.11,1188.84,894.99z"/>
		<path class="st10" d="M1242.23,764.08c-0.03-0.03-0.03-0.03-0.03-0.03"/>
		<path class="st10" d="M954.03,961.52c0,0,0,0-0.03,0.03"/>
		<path class="st16" d="M1108.5,743.45c-16.77,56.88-51.78,72.19-82.4,51.77c-30.63-20.42-5.83-99.6-5.83-99.6
			s13.86-43.33,58.34-27.29C1078.61,668.34,1125.28,686.57,1108.5,743.45z"/>
		<path class="st16" d="M1075.69,875.8c-9.84,24.06-20.05,25.89-32.81,15.68c-12.76-10.21-0.36-55.42,18.59-45.21
			C1061.47,846.27,1085.53,851.74,1075.69,875.8z"/>
		<path class="st17" d="M1225.54,769.34c-1.46,20.78-43.75,82.77-43.75,82.77l-12.03-18.23c22.24-30.63,38.28-82.04,38.28-82.04
			L1225.54,769.34z"/>
		<path class="st17" d="M1179.97,865.96c0,0-44.48,54.69-97.72,70.01c0,0,74.02-64.54,80.94-89.33L1179.97,865.96z"/>
		<path class="st16" d="M633.05,807.98c-24.79,10.21-71.1-11.3-86.41-50.32c-15.31-39.01-30.51-65.63,24.67-88.24
			c0,0,59.92-21.82,81.8,53.45C674.98,798.14,657.84,797.77,633.05,807.98z"/>
		<path class="st16" d="M647.64,892.57c-1,8.33-5.56,15.07-14.07,16.8c-14.25,2.86-23.18-4.1-30.87-15.01
			c-3.77-5.38-7.14-11.33-8.57-17.81c-1.64-7.41-1.46-16.2,5.83-20.21c7.72-4.28,18.14-6.99,26.53-3.16
			C626.49,853.2,650.92,865.59,647.64,892.57z"/>
		<path class="st17" d="M472.99,814.55l-18.6,12.76c-38.65-33.54-48.13-102.09-48.13-102.09l30.26-16.41
			C433.97,730.32,472.99,814.55,472.99,814.55z"/>
		<path class="st17" d="M608.93,936.84c-2.98-1.09-98.57-36.28-143.78-92.06l22.42-17.47C487.57,827.31,511.15,878.29,608.93,936.84
			z"/>
		<path class="st18" d="M983.63,1195.57c0,0-71.65,54.14-158.61,24.06c0,0-35.91-9.3-54.6-26.8l8.11-8.2l-2.19-3.28l-38.28,31.17
			h7.11l6.56-4.38c0,0,62.35,66.18,121.96,61.26c0,0,40.47-0.55,57.97-22.42c17.5-21.88,61.25-51.96,61.25-51.96L983.63,1195.57z
			 M915.32,1247.1c-14.52,7.38-30.35,13.04-45.46,13.55c-46.7,1.64-108.84-56.88-108.84-56.88l2.73-4.92l3.01-2.19l2.73,2.19
			c13.28,9.72,27.8,17.84,43.33,23.4c14.31,5.1,29.32,7.9,44.48,8.93c13.43,0.91,27.77,2.07,41.47,0.82h0.03
			c3.89-0.33,7.75-0.88,11.52-1.67c20.72-4.38,41.11-12.64,60.13-21.88C969.34,1209.48,945.1,1231.97,915.32,1247.1z"/>
		<path class="st19" d="M915.32,1247.1c-14.52,7.38-30.35,13.04-45.46,13.55c-46.7,1.64-108.84-56.88-108.84-56.88l2.73-4.92
			l3.01-2.19l2.73,2.19c13.28,9.72,27.8,17.84,43.33,23.4c14.31,5.1,29.32,7.9,44.48,8.93c13.43,0.91,27.77,2.07,41.47,0.82h0.03
			C913.44,1235.4,915.32,1247.1,915.32,1247.1z"/>
		<path class="st20" d="M970.47,1208.45c-1.12,1.03-25.37,23.52-55.15,38.65c0,0-1.88-11.7-16.5-15.1
			c3.89-0.33,7.75-0.88,11.52-1.67C931.06,1225.95,951.45,1217.69,970.47,1208.45z"/>
		<path class="st8" d="M882.99,1018.91c0,0-28.99-42.11-10.94-89.15C872.05,929.76,869.87,987.19,882.99,1018.91z"/>
		<path class="st21" d="M913.04,1054.95c-0.73-1.19-14.22-22.48-38.47-17.17c-20.27,4.44-27.5,18.99-29.5,24.31
			c3.13-9.27,18.38-48.16,48.58-31.96C893.66,1030.12,908.39,1041.03,913.04,1054.95z"/>
		<path class="st8" d="M910.34,1058.84c-1.7-2.98-9.78-5.35-12.7-6.41c-8.26-2.98-17.9-2.86-26.4-0.94
			c-5.71,1.25-16.74,4.5-20.66,10.03c3.46-6.05,21.18-33.24,48.28-16.38C898.85,1045.13,906.24,1051.73,910.34,1058.84z"/>
		<path class="st22" d="M873.18,1113.44c0,0.03,0,0.03,0,0.06c-0.03,0.09-0.06,0.15-0.06,0.15c-0.67,1.25-1.34,2.52-2.07,3.77
			c-0.3,0.58-0.64,1.15-1,1.73c-0.39,0.73-0.85,1.46-1.31,2.19c-0.55,0.88-1.09,1.73-1.64,2.58c-0.58,0.88-1.15,1.76-1.76,2.61
			c-0.39,0.58-0.82,1.15-1.22,1.7c-0.27,0.36-0.55,0.73-0.82,1.09c-0.24,0.3-0.46,0.58-0.67,0.85c-0.12,0.18-0.27,0.36-0.43,0.55
			c-0.58,0.7-1.12,1.34-1.64,1.91c-0.4,0.46-0.82,0.85-1.19,1.22c-0.33,0.3-0.64,0.58-0.94,0.82c-0.21,0.18-0.43,0.33-0.61,0.46
			c-0.24,0.18-0.49,0.3-0.7,0.4c-0.12,0.06-0.21,0.09-0.33,0.12c-0.24,0.06-0.43,0.06-0.61,0.03c-3.83-0.82-7.11-7.38-4.1-33.36
			c0,0,7.05-16.47,16.68-10.66C877.8,1097.06,873.75,1111.58,873.18,1113.44z"/>
		<path class="st23" d="M877.25,1103.41c-0.64,2.7-2.13,6.26-4.07,10.03c0.58-1.85,4.62-16.38-4.41-21.79
			c-9.63-5.8-16.68,10.66-16.68,10.66c2.01-17.08,10.36-27.8,15.86-33.12c3.04-2.95,8.14-1.76,9.63,2.19
			C881.05,1080.5,879.16,1095.42,877.25,1103.41z"/>
		<path class="st22" d="M922.92,1117.36c-1.09,22.42-12.58,10.94-12.58,10.94s-7.6-7.9-13.64-20.78c0,0-5.17-23.43,7.9-21.06
			c12.27,2.22,17.32,18.78,17.9,20.84c0.03,0.06,0.03,0.12,0.03,0.15C922.92,1110.76,923.07,1114.11,922.92,1117.36z"/>
		<path class="st23" d="M922.49,1107.3c-0.58-2.07-5.62-18.63-17.9-20.84c-13.07-2.37-7.9,21.06-7.9,21.06
			c-2.34-4.89-4.41-10.51-5.77-16.68c-2.52-11.61-0.33-18.08,2.4-21.63c2.55-3.31,7.35-3.74,10.57-1.12
			C912.34,1075,920.49,1091.04,922.49,1107.3z"/>
		<path class="st10" d="M873.18,1113.5c-0.03,0.09-0.06,0.15-0.06,0.15"/>
		<path class="st10" d="M922.55,1107.51c0,0,0-0.03-0.03-0.06"/>
		<path class="st24" d="M1290.17,109.66c-9.18-1.7-19.57-6.59-25.46-14.01c-3.01-3.8-4.56-8.42-3.28-13.19
			c1.43-5.41,4.65-8.66,8.75-10.57c5.38-2.55,12.28-2.77,18.53-2.55c9.87,0.33,22.97,2.77,26.07,13.79
			C1320.53,103.37,1303.57,112.12,1290.17,109.66z"/>
		<line class="st10" x1="1114.98" y1="177.51" x2="1114.95" y2="177.51"/>
		<path class="st10" d="M1243.23,102.25c0,0,0,0-0.03,0"/>
	</g>
</g>
</svg>
