<svg width="256" height="256" viewBox="0 0 256 256" fill="none" xmlns="http://www.w3.org/2000/svg">
<g clip-path="url(#clip0_1239_2)">
<rect width="256" height="256" fill="white"/>
<path fill-rule="evenodd" clip-rule="evenodd" d="M101.836 91.3642C109.256 84.4179 119.719 78.6045 133.143 78.6045C155.239 78.6045 168.582 92.3259 174.505 102.6C191.221 103.397 208.922 115.994 210.359 137.229C211.229 150.071 207.179 159.688 200.683 166.25C194.459 172.538 186.628 175.397 180.574 176.398L179.918 176.506H141.789V169.297H179.352L179.45 169.28C184.497 168.446 190.827 166.074 195.73 161.121C200.673 156.127 204.064 148.608 203.327 137.727C202.14 120.184 186.851 109.584 172.459 109.771L170.293 109.8L169.29 107.837C164.76 98.9724 153.181 85.814 133.143 85.814C121.858 85.814 113.023 90.6649 106.595 96.6824C101.305 101.634 97.6063 107.409 95.4648 112.025L94.6058 113.877L92.611 114.069C92.0248 114.125 91.4035 114.202 90.7685 114.309C88.8824 114.626 86.7433 115.221 85.0023 116.394C83.1036 117.673 81.5493 119.493 80.4281 121.144L79.2223 122.919L77.1236 122.668C71.2828 121.969 65.6277 123.432 61.2017 126.804C55.9758 130.786 52.5737 137.349 52.5737 145.86C52.5737 155.209 56.9227 161.134 62.3528 164.665C67.7144 168.151 74.0987 169.297 78.3602 169.297H101.972H101.978H101.984L101.991 169.296H101.996L102.3 169.294L102.478 169.293C107.593 169.259 119.071 169.036 125.926 159.699C131.549 152.04 131.552 142.212 131.494 135.913L131.492 135.679C131.487 135.105 131.482 134.561 131.482 134.054H138.531C138.531 134.521 138.535 135.031 138.541 135.612L138.543 135.845L138.545 136.07C138.602 142.198 138.715 154.286 131.563 164.028C122.498 176.375 107.699 176.47 102.691 176.501C102.634 176.502 102.579 176.502 102.524 176.503L102.351 176.504L102.042 176.506H102.019H102H101.988H78.3602C73.1348 176.506 65.3429 175.152 58.571 170.749C51.357 166.058 45.5249 157.965 45.5249 145.86C45.5249 135.266 49.832 126.477 56.9908 121.022C62.4201 116.886 69.0936 114.974 75.8845 115.33C77.2215 113.638 78.9668 111.827 81.1256 110.373C84.0612 108.395 87.3211 107.582 89.6262 107.195C89.7428 107.175 89.8583 107.157 89.9731 107.139C92.5165 102.171 96.4455 96.4102 101.836 91.3642Z" fill="#3A7CFC"/>
<path d="M179.917 176.507L180.573 176.398C186.627 175.397 194.458 172.539 200.683 166.25C207.178 159.688 211.228 150.071 210.359 137.229C208.921 115.994 191.22 103.398 174.505 102.6C168.582 92.3262 155.239 78.6048 133.143 78.6048C119.719 78.6048 109.256 84.4182 101.835 91.3644C96.445 96.4105 92.5161 102.171 89.9726 107.139C89.8578 107.157 89.7419 107.176 89.6258 107.195C87.3206 107.582 84.0607 108.395 81.1251 110.373C78.9663 111.827 77.221 113.638 75.884 115.331C69.0931 114.974 62.4195 116.886 56.9903 121.023C49.8315 126.477 45.5244 135.267 45.5244 145.86C45.5244 157.965 51.3565 166.058 58.5705 170.749C65.3424 175.152 73.1343 176.507 78.3598 176.507H101.987H101.999L102.019 176.506H102.041L102.69 176.502C107.699 176.47 122.497 176.375 131.562 164.028C138.715 154.286 138.602 142.198 138.544 136.071L138.54 135.612C138.535 135.031 138.53 134.521 138.53 134.054H142.055C142.055 134.502 142.059 134.994 142.064 135.579L142.066 135.811L142.068 136.036L142.07 136.223C142.128 142.346 142.253 155.47 134.381 166.193C124.263 179.974 107.925 180.074 102.849 180.106L102.712 180.106L102.548 180.107L102.375 180.109L102.067 180.111L102.032 180.111H102.007H101.987H78.3598C72.6527 180.111 64.1569 178.653 56.6796 173.791C48.5753 168.521 42 159.344 42 145.86C42 134.226 46.7588 124.323 54.8848 118.132C60.5395 113.824 67.3523 111.681 74.2999 111.684C75.6257 110.193 77.2505 108.666 79.1868 107.362C82.1259 105.382 85.264 104.412 87.6843 103.898C90.3833 98.9988 94.281 93.5496 99.4557 88.7053C107.372 81.2952 118.649 75 133.143 75C155.704 75 169.779 88.3661 176.556 99.1352C194.096 100.822 212.343 114.345 213.875 136.98C214.811 150.802 210.432 161.468 203.159 168.815C196.274 175.771 187.691 178.873 181.136 179.956L180.2 180.111H141.788V176.507H179.917Z" fill="#2B1D11"/>
<path d="M179.108 166.233H141.788V162.808H178.823C182.886 162.069 187.672 160.14 191.271 156.505C194.818 152.922 197.615 147.289 196.998 138.175C196.019 123.711 182.325 114.853 170.094 116.431L166.112 116.945L164.68 113.112C162.157 106.357 152.183 92.3026 133.143 92.3026C123.779 92.3026 116.41 96.2896 110.877 101.469C105.271 106.717 101.741 113.031 100.268 117.022L99.0468 120.328L95.592 120.401C94.6246 120.422 93.2367 120.47 91.7961 120.712C90.2828 120.966 89.1543 121.366 88.4909 121.813C87.5944 122.416 86.7196 123.353 85.9741 124.369C85.232 125.38 84.7546 126.282 84.6026 126.626L82.8521 130.584L78.7269 129.547C73.4931 128.231 68.5519 129.294 64.9909 132.007C61.5012 134.666 58.9169 139.229 58.9169 145.86C58.9169 152.738 61.9389 156.707 65.7557 159.189C69.8493 161.851 74.9675 162.808 78.3597 162.808H101.964L102.006 162.808C107.318 162.766 115.919 162.524 120.853 155.803C125.131 149.975 125.187 142.256 125.144 135.669V135.66C125.141 135.115 125.137 134.575 125.137 134.054H128.485C128.485 134.564 128.489 135.096 128.492 135.646C128.533 142.04 128.59 150.966 123.53 157.859C117.473 166.11 107.104 166.192 102.032 166.232L101.979 166.233H78.3594C74.5086 166.233 68.7221 165.176 63.9593 162.079C59.2913 159.044 55.5686 154.042 55.5686 145.86C55.5686 138.237 58.5844 132.618 62.9906 129.261C67.4213 125.885 73.4067 124.683 79.5258 126.221L80.9485 126.579L81.5519 125.214C82.076 124.029 83.9796 120.751 86.6491 118.953C87.8812 118.123 89.5432 117.62 91.2534 117.332C92.9387 117.049 94.5221 116.999 95.5229 116.978L96.7142 116.952L97.1351 115.812C98.7761 111.367 102.586 104.588 108.617 98.9426C114.622 93.321 122.764 88.8779 133.142 88.8779C154.006 88.8779 164.965 104.28 167.807 111.889L168.301 113.211L169.674 113.034C183.447 111.256 199.202 121.153 200.338 137.938C201.018 147.985 197.907 154.613 193.624 158.941C189.325 163.284 183.702 165.449 179.108 166.233Z" fill="#F51808"/>
<path d="M133.143 85.2729C121.696 85.2729 112.74 90.1965 106.237 96.2832C100.239 101.898 96.2749 108.549 94.2787 113.41C93.2825 113.455 92.0188 113.551 90.6825 113.775C88.7641 114.098 86.5411 114.709 84.7109 115.942C82.0217 117.753 80.0585 120.56 79.01 122.418C72.4146 121.133 65.889 122.558 60.8853 126.37C55.5139 130.463 52.0444 137.194 52.0444 145.86C52.0444 155.417 56.5061 161.504 62.0686 165.121C67.5362 168.676 74.0262 169.837 78.3595 169.837H101.979H101.993L102.304 169.835C107.293 169.8 119.233 169.716 126.348 160.024C132.168 152.097 132.077 141.937 132.02 135.673C132.015 135.099 132.01 134.557 132.01 134.054H135.006C135.006 134.541 135.011 135.067 135.016 135.645L135.018 135.879C135.075 142.055 135.176 153.103 128.744 161.864C120.733 172.775 107.478 172.864 102.501 172.897L102.325 172.899L102.016 172.901H102.005L101.991 172.901H101.979H78.3599C73.6163 172.901 66.5282 171.651 60.4614 167.707C54.1394 163.595 49.0488 156.587 49.0488 145.86C49.0488 136.308 52.9035 128.631 59.0958 123.913C64.2974 119.95 70.8676 118.29 77.5325 119.088C78.8036 117.216 80.6598 115.002 83.0636 113.383C85.4017 111.808 88.1011 111.104 90.197 110.752C90.9243 110.63 91.6271 110.542 92.2803 110.48C94.5886 105.504 98.5432 99.3325 104.215 94.0231C111.139 87.5412 120.788 82.209 133.143 82.209C154.906 82.209 167.494 96.541 172.413 106.167C188.264 105.96 205.5 117.635 206.843 137.477C207.646 149.339 203.925 157.908 198.206 163.685C192.643 169.306 185.562 171.921 180.011 172.839L179.634 172.901H141.788V169.837H179.393L179.533 169.814C184.656 168.967 191.099 166.559 196.101 161.505C201.16 156.394 204.601 148.717 203.854 137.689C202.59 119.011 185.646 108.115 170.579 109.317C166.741 100.514 154.831 85.2729 133.143 85.2729Z" fill="#7EB0FB"/>
<path fill-rule="evenodd" clip-rule="evenodd" d="M106.238 96.2837C112.74 90.197 121.696 85.2734 133.143 85.2734C154.831 85.2734 166.741 100.515 170.579 109.317C185.646 108.116 202.59 119.012 203.854 137.689C204.601 148.717 201.16 156.394 196.101 161.506C191.099 166.559 184.656 168.968 179.533 169.815L179.394 169.838H141.788V166.233H179.109C183.703 165.449 189.326 163.284 193.624 158.942C197.908 154.614 201.019 147.985 200.339 137.939C199.202 121.153 183.447 111.256 169.675 113.034L168.302 113.211L167.808 111.889C164.966 104.28 154.007 88.8782 133.143 88.8782C122.765 88.8782 114.622 93.3213 108.617 98.9429C102.587 104.588 98.7765 111.368 97.1355 115.812L96.7146 116.953L95.5232 116.978C94.5225 116.999 92.9394 117.05 91.2538 117.333C89.5436 117.62 87.8819 118.123 86.6498 118.953C83.9803 120.751 82.0767 124.03 81.5526 125.214L80.9489 126.579L79.5265 126.222C73.4072 124.683 67.4218 125.885 62.991 129.261C58.5849 132.619 55.5691 138.237 55.5691 145.86C55.5691 154.043 59.2918 159.044 63.9597 162.079C68.7226 165.176 74.5091 166.233 78.3601 166.233H101.98L102.032 166.232C107.105 166.192 117.473 166.11 123.53 157.86C128.591 150.967 128.534 142.04 128.493 135.646C128.489 135.096 128.486 134.564 128.486 134.054H132.01C132.01 134.558 132.015 135.099 132.02 135.673C132.077 141.937 132.168 152.097 126.348 160.024C119.233 169.716 107.293 169.8 102.305 169.835C102.198 169.836 102.094 169.837 101.993 169.837L101.98 169.838H78.3601C74.0265 169.838 67.5364 168.677 62.0688 165.121C56.5063 161.504 52.0447 155.417 52.0447 145.86C52.0447 137.194 55.5141 130.463 60.8856 126.37C65.8893 122.558 72.4149 121.133 79.0102 122.418C80.0587 120.561 82.0219 117.754 84.7115 115.942C86.5413 114.709 88.7643 114.098 90.6827 113.776C92.019 113.551 93.2827 113.456 94.2789 113.411C96.2751 108.549 100.24 101.899 106.238 96.2837Z" fill="#E4FBF5"/>
</g>
<defs>
<clipPath id="clip0_1239_2">
<rect width="256" height="256" fill="white"/>
</clipPath>
</defs>
</svg>
