<svg width="256" height="256" viewBox="0 0 256 256" fill="none" xmlns="http://www.w3.org/2000/svg">
<g clip-path="url(#clip0_1239_2)">
<rect width="256" height="256" fill="#121122"/>
<path fill-rule="evenodd" clip-rule="evenodd" d="M63.7503 108.982C62.641 116.122 63.947 123.469 65.3034 130.529C65.826 131.657 66.9712 132.417 68.3829 132.903C65.4877 139.015 63.8962 145.68 63.8962 152.657C63.8962 182.202 92.4958 206.176 127.771 206.176C163.047 206.176 191.667 182.258 191.667 152.657C191.667 145.607 190.043 138.877 187.092 132.715C188.273 132.228 189.214 131.521 189.676 130.529C191.032 123.469 192.333 116.122 191.224 108.982C190.185 99.4007 186.897 96.4758 177.025 98.9315C172.002 100.098 165.382 103.063 160.292 106.55C150.764 101.821 139.644 99.1079 127.771 99.1079C115.762 99.1079 104.526 101.887 94.9292 106.719C89.8085 103.159 83.0537 100.117 77.9543 98.9315C68.0766 96.4758 64.7941 99.4007 63.7503 108.982ZM100.941 151.225C93.4537 147.922 80.6567 148.759 80.6567 148.759C80.6567 148.759 81.2567 160.806 88.6032 164.896C97.3162 169.742 113.517 167.342 113.517 167.342C113.517 167.342 112.14 156.137 100.941 151.2V151.225ZM142.545 167.361C142.545 167.361 158.746 169.762 167.459 164.916C174.805 160.826 175.405 148.779 175.405 148.779C175.405 148.779 162.608 147.942 155.12 151.245C143.922 156.137 142.545 167.316 142.545 167.316V167.361ZM124.574 175.854C124.574 176.741 126.223 177.462 128.255 177.462C130.287 177.462 131.936 176.741 131.936 175.854C131.936 174.966 130.287 174.25 128.255 174.25C126.223 174.25 124.574 174.941 124.574 175.854Z" fill="#F2F4F8"/>
<path fill-rule="evenodd" clip-rule="evenodd" d="M200.689 168.843C194.701 166.52 188.341 165.317 181.921 165.292H181.932C180.305 165.292 180.305 162.754 181.932 162.754C188.579 162.776 195.166 164.016 201.371 166.413C201.685 166.509 201.95 166.723 202.112 167.01C202.275 167.296 202.322 167.635 202.244 167.955C202.153 168.279 201.939 168.554 201.648 168.72C201.357 168.886 201.012 168.93 200.689 168.843ZM54.6016 166.469C60.8078 164.072 67.3969 162.833 74.0456 162.81V162.825C75.6718 162.825 75.6668 165.362 74.0456 165.362C67.6248 165.385 61.2625 166.589 55.2733 168.914C54.9506 168.999 54.6072 168.955 54.3172 168.789C54.0272 168.623 53.8137 168.349 53.7229 168.026C53.6425 167.703 53.6888 167.361 53.8524 167.071C54.016 166.781 54.2842 166.565 54.6016 166.469ZM67.4752 173.739C70.581 172.746 73.8115 172.201 77.0699 172.121C78.6871 172.13 78.684 174.657 77.0608 174.657C74.089 174.735 71.1428 175.233 68.3086 176.134C65.6723 176.91 62.6572 178.006 60.733 179.797C59.5411 180.908 57.7532 179.117 58.9502 178.006C61.2885 175.835 64.5056 174.637 67.4752 173.739ZM77.0699 172.121H77.071H77.0608H77.0699ZM79.9494 178.458C77.4169 179.547 74.982 180.852 72.6719 182.36C70.3383 183.804 68.2849 185.663 66.6114 187.844C66.4434 188.134 66.3964 188.48 66.4806 188.804C66.5648 189.13 66.7734 189.408 67.0609 189.579C67.3521 189.742 67.6944 189.786 68.0169 189.701C68.3393 189.617 68.6172 189.412 68.7931 189.128C70.2123 187.159 72.2476 185.632 74.2627 184.328C76.4746 182.918 78.795 181.688 81.2019 180.649C81.4893 180.478 81.698 180.2 81.7831 179.875C81.8681 179.551 81.8226 179.205 81.6565 178.914C81.4815 178.631 81.2048 178.425 80.8835 178.34C80.5621 178.255 80.2206 178.297 79.9292 178.458H79.9494ZM178.897 174.606C181.869 174.681 184.816 175.176 187.649 176.078C189.114 176.496 190.544 177.027 191.927 177.666C193.121 178.19 194.228 178.891 195.215 179.746C196.407 180.853 198.194 179.067 197.003 177.95C194.68 175.784 191.482 174.581 188.493 173.683C185.387 172.69 182.155 172.147 178.897 172.07C177.271 172.07 177.266 174.606 178.897 174.606ZM181.685 184.252C179.5 182.895 177.216 181.708 174.852 180.7V180.675C174.565 180.503 174.357 180.225 174.273 179.901C174.187 179.576 174.232 179.231 174.397 178.94C174.575 178.657 174.853 178.454 175.174 178.37C175.496 178.286 175.837 178.328 176.129 178.488C181.049 180.644 186.225 183.415 189.442 187.875C189.609 188.165 189.655 188.51 189.571 188.835C189.487 189.16 189.279 189.437 188.993 189.61C188.702 189.771 188.36 189.814 188.038 189.729C187.716 189.644 187.439 189.438 187.266 189.153C185.811 187.139 183.755 185.576 181.685 184.252Z" fill="#F2F4F8"/>
<path d="M45.1671 137.029C46.332 135.214 56.5692 129.754 69.2371 126.511C71.9713 118.748 75.3449 111.223 79.3231 104.017C79.2726 104.017 89.4544 85.744 89.409 85.7339C86.4892 84.4053 83.6857 82.835 81.0276 81.0395C80.5776 80.6933 80.1697 80.2956 79.8122 79.8545C79.5425 79.4093 79.4027 78.8975 79.4088 78.3771C79.4088 77.9535 80.0089 77.1972 80.2762 76.8644C80.9582 76.0623 81.7109 75.3231 82.5253 74.6558C84.4666 73.0665 86.5064 71.6013 88.6324 70.269C89.641 69.6034 90.6899 68.9529 91.7237 68.2974C98.9857 63.6736 102.964 60.1944 109.616 56.3723C115.97 52.7318 119.057 50.4879 126.424 50.8661C135.683 50.8661 158.699 80.1823 169.078 95.2891C175.3 104.365 183.652 120.707 186.728 126.854C187.464 127.041 188.13 127.217 188.745 127.399C198.186 130.232 207.444 134.388 209.709 137.029C211.726 139.38 202.911 140.428 194.222 141.941C185.533 143.454 156.057 144.205 127.731 144.396C99.4043 144.588 66.3425 143.64 59.1462 142.506C51.9499 141.371 43.7198 139.294 45.1671 137.029Z" fill="#6665DD"/>
<path d="M178.802 112.294C178.802 112.294 160.129 107.754 127.228 107.754C91.8995 107.754 74.8864 113.043 74.8864 113.043C74.8864 113.043 72.8676 116.764 71.9895 118.919C71.1113 121.073 69.1228 126.67 69.1228 126.67C69.1228 126.67 94.8268 122.205 127.723 122.205C147.531 122.284 167.301 123.905 186.842 127.053C186.842 127.053 183.86 120.28 182.073 117.391C180.286 114.502 178.802 112.294 178.802 112.294Z" fill="#FF99A5"/>
<path d="M67.7374 73.0281C69.8786 72.7242 72.7873 79.0869 72.7873 79.0869C72.7873 79.0869 79.524 77.3271 80.5743 79.0869C81.6247 80.8466 75.8375 85.072 75.8375 85.072C75.8375 85.072 79.3321 91.0376 78.2261 92.2778C77.1202 93.518 70.8886 89.7533 70.8886 89.7533C70.8886 89.7533 66.1365 94.9493 64.5862 94.165C63.0358 93.3807 64.7933 86.6112 64.7933 86.6112C64.7933 86.6112 58.0718 83.8368 58.5313 82.1898C58.9908 80.5427 65.9951 80.0427 65.9951 80.0427C65.9951 80.0427 65.6012 73.332 67.7374 73.0281Z" fill="#FFE600"/>
</g>
<defs>
<clipPath id="clip0_1239_2">
<rect width="256" height="256" fill="white"/>
</clipPath>
</defs>
</svg>
