<svg width="1500" height="1500" viewBox="0 0 1500 1500" fill="none" xmlns="http://www.w3.org/2000/svg">
<g clip-path="url(#clip0_9817_315)">
<path d="M1500 0H0V1500H1500V0Z" fill="#BC8EE4"/>
<path d="M1500 613.187C1500 693.499 1452.5 787.953 1381.87 828.187C1320.39 863.265 1241.72 876.156 1173.28 855.765C1115.62 838.499 1072.26 795.531 1057.11 736.937C1036.25 656.234 1052.19 567.718 1074.22 489.124C1106.33 374.749 1121.64 246.156 1042.81 137.093C976.483 45.3744 855.233 21.9369 750.468 50.5307C619.452 86.3119 546.796 189.671 516.952 317.952C495.78 409.124 512.343 500.452 546.093 588.734C549.452 597.484 553.124 606.234 557.108 614.906C601.405 712.562 693.124 801.468 693.358 914.671C693.436 957.406 691.015 1042.48 755.936 1036.23C817.421 1030.37 809.764 960.531 796.405 917.328C775.624 850.218 727.89 797.249 690.155 739.359C681.718 726.468 673.593 713.343 666.483 699.671C631.639 632.484 607.03 595.14 601.64 522.093C596.015 446.312 616.796 361.234 661.014 294.906C702.03 233.499 790.077 175.453 880.155 217.64C912.968 233.031 933.046 261.39 942.421 292.093C971.952 388.265 933.593 482.328 923.983 600.609C914.53 716.234 953.124 849.906 1043.2 927.249C1167.89 1034.36 1373.12 986.624 1467.19 863.187C1495.7 825.843 1499.92 813.968 1499.92 813.968V613.187H1500Z" fill="black"/>
<path d="M0 887.018C0 806.705 47.5 712.252 118.125 672.018C179.609 636.94 258.281 624.049 326.719 644.44C384.375 661.705 427.734 704.674 442.891 763.268C463.75 843.971 447.812 932.487 425.781 1011.08C393.672 1125.45 378.359 1254.05 457.187 1363.11C523.516 1454.83 644.766 1478.27 749.531 1449.67C880.547 1413.89 953.203 1310.53 983.047 1182.25C1004.22 1091.08 987.656 999.752 953.906 911.471C950.547 902.721 946.875 893.971 942.891 885.299C898.594 787.643 806.875 698.737 806.641 585.534C806.562 542.799 808.984 457.721 744.062 463.971C682.578 469.83 690.234 539.674 703.594 582.877C724.375 649.987 772.109 702.955 809.844 760.846C818.281 773.737 826.406 786.862 833.516 800.533C868.359 867.721 892.969 905.065 898.359 978.112C903.984 1053.89 883.203 1138.97 838.984 1205.3C797.969 1266.7 709.922 1324.75 619.844 1282.56C587.031 1267.17 566.953 1238.81 557.578 1208.11C528.047 1111.94 566.406 1017.88 576.016 899.596C585.469 783.971 546.875 650.299 456.797 572.955C332.109 465.846 126.875 513.58 32.8125 637.018C4.29685 674.362 0.0780821 686.237 0.0780821 686.237V887.018H0Z" fill="black"/>
</g>
<defs>
<clipPath id="clip0_9817_315">
<rect width="1500" height="1500" fill="white"/>
</clipPath>
</defs>
</svg>
