<svg width="1718" height="1718" viewBox="0 0 1718 1718" fill="none" xmlns="http://www.w3.org/2000/svg">
<g clip-path="url(#clip0_524_1094)">
<path d="M1697.83 807.322C1666.29 919.989 1592.14 1041.38 1497.34 1087.8C1202.12 1232.32 1048.67 920.092 1067.22 692.491C1078.35 555.807 1122.68 447.126 1088.52 335.972C1077.63 300.512 1054.47 267.698 1016.54 249.934C912.464 201.177 810.621 268.214 763.273 339.236C712.18 415.824 688.197 511.654 694.691 599.238C700.91 683.626 730.116 738.946 774.165 814.503C833.024 915.453 895.697 981.012 919.68 1058.53C935.142 1108.49 943.938 1189.13 872.916 1195.9C797.908 1203.08 801.688 1104.74 800.622 1055.4C797.427 905.454 702.181 851.44 630.472 678.713C588.587 577.832 572.266 471.144 596.765 365.831C631.228 217.636 715.204 98.1661 866.594 56.831C987.644 23.7767 1127.83 50.8867 1204.46 156.887C1295.54 282.92 1277.78 431.595 1240.74 563.71C1172.19 808.112 1233.42 924.627 1290.56 955.104C1398.76 1012.79 1512.29 947.442 1562.66 878.172C1617.22 803.13 1649.76 666.24 1644.61 578.622C1642.65 545.155 1639.69 516.362 1635.19 490.523" fill="white"/>
<path d="M0 859C0 921.673 6.76892 982.765 19.5165 1041.62C18.2108 997.265 22.5745 953.353 34.0508 912.395C65.5932 799.729 139.742 678.335 234.541 631.915C529.762 487.397 683.214 799.626 664.66 1027.23C653.527 1163.91 609.203 1272.59 643.357 1383.75C654.249 1419.21 677.407 1452.02 715.341 1469.78C819.417 1518.54 921.26 1451.5 968.608 1380.48C1019.7 1303.89 1043.68 1208.06 1037.19 1120.48C1030.97 1036.09 1001.77 980.772 957.751 905.214C898.892 804.265 836.219 738.706 812.236 661.189C796.774 611.23 787.978 530.587 859 523.818C934.008 516.637 930.228 614.975 931.293 664.316C934.489 814.263 1029.73 868.277 1101.44 1041C1143.33 1141.89 1159.65 1248.57 1135.15 1353.89C1100.69 1502.08 1016.71 1621.55 865.322 1662.89C744.272 1695.94 604.083 1668.83 527.46 1562.83C436.372 1436.8 454.136 1288.12 491.176 1156.01C559.724 911.605 498.495 795.09 441.354 764.613C333.155 706.957 219.629 772.275 169.257 841.545C114.694 916.587 82.1548 1053.48 87.3088 1141.1C90.5042 1195.45 96.3454 1237.51 107.134 1274.62" fill="white"/>
<path d="M859 1718C1333.41 1718 1718 1333.41 1718 859C1718 384.587 1333.41 0 859 0C384.587 0 0 384.587 0 859C0 1333.41 384.587 1718 859 1718Z" fill="#BC8EE4"/>
<path d="M1135.15 1353.92C1159.65 1248.61 1143.33 1141.92 1101.44 1041.04C1029.73 868.312 934.455 814.264 931.293 664.351C930.263 615.01 934.008 516.672 859 523.853C787.978 530.657 796.774 611.3 812.236 661.259C836.219 738.775 898.926 804.334 957.751 905.284C1001.8 980.841 1030.97 1036.16 1037.19 1120.55C1043.65 1208.13 1019.7 1303.96 968.608 1380.55C921.226 1451.57 819.417 1518.61 715.341 1469.85C677.407 1452.09 654.249 1419.24 643.357 1383.82C609.237 1272.63 653.527 1163.98 664.66 1027.3C683.214 799.695 529.728 487.466 234.541 631.984C139.742 678.405 65.5932 799.764 34.0507 912.465C22.5745 953.456 18.2108 997.334 19.5165 1041.69C37.4524 1124.43 67.2769 1202.74 107.134 1274.72C96.3454 1237.58 90.5042 1195.56 87.3087 1141.2C82.1547 1053.62 114.728 916.691 169.257 841.649C219.595 772.379 333.155 707.026 441.354 764.717C498.495 795.194 559.724 911.709 491.176 1156.11C454.102 1288.26 436.338 1436.9 527.46 1562.93C604.083 1668.93 744.272 1696.04 865.322 1662.99C1016.71 1621.59 1100.72 1502.12 1135.15 1353.92Z" fill="black"/>
<path d="M1697.83 807.323C1703.74 786.26 1707.73 764.407 1710.06 742.142C1710.06 742.245 1710.1 742.313 1710.1 742.382C1698 653.355 1672.3 568.658 1635.12 490.455C1639.62 516.328 1642.58 545.087 1644.54 578.554C1649.69 666.137 1617.12 803.062 1562.59 878.104C1512.25 947.374 1398.69 1012.73 1290.49 955.036C1233.35 924.559 1172.12 808.044 1240.67 563.641C1277.75 431.493 1295.51 282.851 1204.39 156.819C1127.76 50.8184 987.575 23.7083 866.525 56.7626C715.135 98.0977 631.124 217.567 596.696 365.762C572.197 471.076 588.518 577.763 630.403 678.644C702.112 851.372 797.392 905.42 800.554 1055.33C801.584 1104.67 797.839 1203.01 872.847 1195.83C943.869 1189.03 935.073 1108.38 919.611 1058.46C895.628 980.944 832.921 915.385 774.096 814.435C730.047 738.877 700.875 683.558 694.622 599.17C688.162 511.586 712.111 415.756 763.204 339.167C810.587 268.145 912.395 201.109 1016.47 249.866C1054.41 267.63 1077.56 300.478 1088.46 335.903C1122.58 447.092 1078.29 555.739 1067.15 692.423C1048.6 920.023 1202.08 1232.25 1497.27 1087.73C1592.1 1041.38 1666.29 919.989 1697.83 807.323Z" fill="black"/>
</g>
<defs>
<clipPath id="clip0_524_1094">
<rect width="1718" height="1718" fill="white"/>
</clipPath>
</defs>
</svg>
