<svg width="256" height="256" viewBox="0 0 256 256" fill="none" xmlns="http://www.w3.org/2000/svg">
<g clip-path="url(#clip0_1239_2)">
<rect width="256" height="256" fill="#301748"/>
<path d="M128.121 212.689C174.999 212.689 213 174.772 213 128C213 81.2283 174.999 43.312 128.121 43.312C81.2442 43.312 43.2427 81.2283 43.2427 128C43.2427 174.772 81.2442 212.689 128.121 212.689Z" fill="#301748"/>
<path d="M131.345 184.403C128.474 181.764 125.789 178.93 123.309 175.922C117.389 168.323 104.201 154.959 100.924 151.627C97.1467 147.788 93.334 143.957 89.5928 140.046C89.0481 139.484 88.1641 138.834 88.6999 137.89C89.2356 136.945 90.2714 137.088 91.1821 137.141C91.5896 137.168 91.9904 137.258 92.3697 137.409C95.0484 138.466 97.7271 139.538 100.406 140.625C105.763 142.781 111.004 145.017 116.371 147.039C119.603 148.26 120.969 147.039 120.362 143.663C119.853 140.839 119.139 138.068 118.38 135.288C118.206 134.677 118.167 134.036 118.266 133.408C118.365 132.781 118.599 132.183 118.952 131.654C119.305 131.126 119.769 130.68 120.311 130.348C120.854 130.015 121.462 129.804 122.094 129.729C123.201 129.569 124.318 129.542 125.425 129.453C126.532 129.364 127.666 129.097 128.103 127.814C128.315 127.248 128.338 126.629 128.171 126.049C128.004 125.468 127.655 124.956 127.175 124.589C123.532 121.087 119.933 117.551 116.326 114.005C107.29 105.096 98.2598 96.1869 89.2356 87.278C83.8782 82.0217 78.5447 76.7684 73.2349 71.5181C72.7081 71.0014 72.1545 70.547 72.5742 69.7363C72.9938 68.9256 73.6992 69.0236 74.4225 69.1661C76.6369 69.6116 78.2351 71.1974 79.9852 72.3912C84.6551 75.5984 89.5392 78.4671 94.2716 81.505C97.5753 83.5986 100.933 85.612 104.227 87.7413C107.522 89.8705 110.647 91.973 113.888 94.031C118.549 96.9798 123.255 99.8485 127.907 102.806C132.925 105.996 137.907 109.239 142.89 112.481C143.783 113.069 144.613 113.372 145.568 112.535C146.524 111.697 146.381 110.86 145.952 109.729C144.952 107.056 143.086 104.9 142.381 102.165C142.131 101.274 141.934 100.383 142.827 99.6881C143.185 99.4003 143.626 99.2339 144.085 99.213C144.544 99.1922 144.998 99.3181 145.381 99.5723C148.766 101.172 152.06 102.956 155.247 104.918C159.131 107.348 163.177 109.512 167.355 111.394C174.15 114.62 180.641 118.397 187.07 122.228C190.617 124.479 193.674 127.418 196.062 130.869C197.933 133.43 199.494 136.202 200.714 139.128C202.45 143.369 203.6 147.826 204.134 152.376C205.187 160.501 202.214 170.942 198.419 176.537C195.176 181.622 190.958 186.018 186.008 189.472C182.669 191.74 179.073 193.603 175.293 195.023C171.337 196.573 167.257 196.804 162.873 196.965C162.516 196.987 162.158 196.987 161.801 196.965C152.765 196.421 143.872 195.138 131.345 184.403ZM189.838 157.267C189.911 153.723 189.271 150.202 187.954 146.91C186.637 143.619 184.671 140.625 182.173 138.105C179.675 135.586 176.695 133.593 173.411 132.245C170.126 130.896 166.603 130.219 163.051 130.255C148.711 130.335 136.907 142.015 136.863 157.463C136.863 170.095 149.194 184.189 163.203 183.299C177.677 183.887 189.749 170.844 189.838 157.267Z" fill="url(#paint0_linear_1239_2)"/>
<path d="M99.4951 122.869C99.4852 123.952 99.8997 124.996 100.65 125.778C101.401 126.56 102.428 127.019 103.513 127.056C104.058 127.051 104.597 126.935 105.096 126.715C105.594 126.494 106.042 126.174 106.412 125.774C106.782 125.374 107.066 124.903 107.246 124.39C107.426 123.876 107.499 123.331 107.46 122.788C107.415 121.703 106.956 120.676 106.178 119.916C105.4 119.156 104.361 118.721 103.272 118.699C102.225 118.775 101.248 119.25 100.544 120.027C99.8407 120.804 99.4648 121.822 99.4951 122.869Z" fill="url(#paint1_linear_1239_2)"/>
<path d="M116.38 71.9188C118.8 71.9188 120.237 70.3687 120.228 67.9009C120.165 66.8856 119.726 65.93 118.997 65.219C118.268 64.5079 117.3 64.0922 116.282 64.0522C114.496 64.0522 112.04 66.3151 112.022 68.0167C112.085 69.1096 112.578 70.1334 113.394 70.8646C114.211 71.5957 115.284 71.9747 116.38 71.9188Z" fill="url(#paint2_linear_1239_2)"/>
<path d="M72.7081 107.617C72.7325 107.127 72.6538 106.639 72.477 106.182C72.3002 105.725 72.0292 105.31 71.6817 104.964C71.3341 104.618 70.9177 104.349 70.4593 104.173C70.0009 103.998 69.5107 103.921 69.0205 103.946C68.0433 104.035 67.1309 104.472 66.4504 105.177C65.7698 105.882 65.3667 106.808 65.3149 107.786C65.3846 108.731 65.8012 109.617 66.485 110.274C67.1687 110.932 68.0715 111.315 69.0205 111.349C69.5138 111.366 70.0052 111.28 70.4637 111.098C70.9222 110.916 71.3378 110.64 71.6843 110.29C72.0308 109.939 72.3007 109.52 72.4769 109.06C72.6531 108.6 72.7319 108.109 72.7081 107.617Z" fill="url(#paint3_linear_1239_2)"/>
<path d="M163.203 183.254C177.677 183.887 189.749 170.844 189.838 157.267C189.912 153.723 189.271 150.202 187.954 146.91C186.637 143.619 184.672 140.625 182.173 138.105C179.675 135.586 176.695 133.593 173.411 132.245C170.126 130.896 166.603 130.219 163.052 130.255C148.712 130.335 136.908 142.015 136.863 157.463C136.818 170.096 149.194 184.145 163.203 183.254Z" fill="url(#paint4_linear_1239_2)"/>
</g>
<defs>
<linearGradient id="paint0_linear_1239_2" x1="204.348" y1="133.043" x2="72.4135" y2="133.043" gradientUnits="userSpaceOnUse">
<stop stop-color="#E2107B"/>
<stop offset="1" stop-color="#301748"/>
</linearGradient>
<linearGradient id="paint1_linear_1239_2" x1="107.46" y1="122.869" x2="99.4594" y2="122.869" gradientUnits="userSpaceOnUse">
<stop stop-color="#E2107B"/>
<stop offset="1" stop-color="#0D1126"/>
</linearGradient>
<linearGradient id="paint2_linear_1239_2" x1="120.228" y1="67.99" x2="112.031" y2="67.99" gradientUnits="userSpaceOnUse">
<stop stop-color="#E2107B"/>
<stop offset="1" stop-color="#0D1126"/>
</linearGradient>
<linearGradient id="paint3_linear_1239_2" x1="72.726" y1="107.634" x2="65.3328" y2="107.634" gradientUnits="userSpaceOnUse">
<stop stop-color="#E2107B"/>
<stop offset="1" stop-color="#0D1126"/>
</linearGradient>
<linearGradient id="paint4_linear_1239_2" x1="204.107" y1="172.519" x2="138.25" y2="147.074" gradientUnits="userSpaceOnUse">
<stop stop-color="#301748"/>
<stop offset="1" stop-color="#E2107B"/>
</linearGradient>
<clipPath id="clip0_1239_2">
<rect width="256" height="256" fill="white"/>
</clipPath>
</defs>
</svg>
