<svg width="30" height="30" viewBox="0 0 30 30" fill="none" xmlns="http://www.w3.org/2000/svg">
<g clip-path="url(#clip0_31_15267)">
<circle cx="15" cy="15" r="15" fill="#0C192B"/>
<g clip-path="url(#clip1_31_15267)">
<mask id="mask0_31_15267" style="mask-type:luminance" maskUnits="userSpaceOnUse" x="3" y="3" width="24" height="24">
<path d="M27 3H3V27H27V3Z" fill="white"/>
</mask>
<g mask="url(#mask0_31_15267)">
<path d="M7.9999 5.29993L26.5999 17.9999L21.9999 24.7999L3.3999 11.9999L7.9999 5.29993Z" fill="url(#paint0_linear_31_15267)"/>
<path d="M26.6003 18C25.0003 20.3 19.6003 19.4 14.5003 15.8C9.30032 12.3 6.50032 7.59998 8.00032 5.29998C9.60032 2.99998 15.0003 3.89998 20.1003 7.49998C25.3003 10.9 28.1003 15.7 26.6003 18Z" fill="url(#paint1_linear_31_15267)"/>
<path d="M22.0001 24.7C20.4001 27 15.0001 26.1 9.90013 22.5C4.80013 18.9 1.90013 14.3 3.50013 11.9C5.10013 9.59995 10.5001 10.5 15.6001 14.1C20.7001 17.7 23.5001 22.4 22.0001 24.7Z" fill="url(#paint2_linear_31_15267)"/>
<path d="M26.6001 18L22.0001 24.8C20.4001 27.1 15.0001 26.1 9.9001 22.6C8.9001 21.9 8.0001 21.2 7.1001 20.4C7.8001 20.3 8.7001 19.9 9.6001 18.9C11.2001 17.2 12.0001 16.8 12.7001 16.9C13.4001 16.9 14.2001 17.6 15.5001 19.3C16.8001 21 18.6001 21.5 19.7001 20.6C19.8001 20.5 19.9001 20.5 20.0001 20.4C20.9001 19.7 21.2001 19.4 22.9001 16.2C23.3001 15.4 24.7001 14.1 26.6001 14.7C27.1001 16 27.1001 17.1 26.6001 18Z" fill="#0E0F23"/>
<path fill-rule="evenodd" clip-rule="evenodd" d="M25.9003 17.6C24.5003 19.6 19.6003 18.6 14.9003 15.3C10.1003 12 7.30027 7.80003 8.70027 5.80003C10.1003 3.80003 15.0003 4.80003 19.7003 8.10003C24.4003 11.4 27.2003 15.6 25.9003 17.6ZM21.5003 14.6C20.8003 15.6 18.4003 15.1 16.0003 13.5C13.7003 11.9 12.3003 9.80003 13.0003 8.80003C13.7003 7.80003 16.1003 8.30003 18.5003 9.90003C20.8003 11.5 22.2003 13.6 21.5003 14.6Z" fill="white"/>
<path d="M7.6002 7.59992C7.6002 7.49992 7.5002 7.39992 7.4002 7.49992C7.3002 7.59992 7.2002 7.59992 7.2002 7.69992C7.3002 7.99992 7.4002 8.19992 7.4002 8.39992C7.4002 8.49992 7.5002 8.59992 7.6002 8.49992C7.7002 8.49992 7.8002 8.39992 7.7002 8.29992C7.7002 8.09992 7.7002 7.89992 7.6002 7.59992Z" fill="white"/>
<path d="M8.10029 9.20002C8.10029 9.10002 8.00029 9.00002 7.90029 9.10002C7.80029 9.20002 7.80029 9.20002 7.80029 9.30002C8.90029 11.8 11.2003 14.5 14.2003 16.5C14.3003 16.6 14.4003 16.5 14.5003 16.5C14.6003 16.4 14.5003 16.3 14.5003 16.2C11.4003 14.2 9.20029 11.6 8.10029 9.20002Z" fill="white"/>
<path d="M20.2 19C20.1 19 20 19 20 19.1C20 19.2 20 19.3 20.1 19.3C20.4 19.4 20.8 19.5 21.1 19.6C21.2 19.6 21.3 19.6 21.3 19.5C21.3 19.4 21.3 19.3 21.2 19.3C20.9 19.2 20.5 19.1 20.2 19Z" fill="white"/>
<path d="M22.0003 19.4C21.9003 19.4 21.8003 19.5 21.8003 19.6C21.8003 19.7 21.9003 19.8 22.0003 19.8C22.8003 19.9 23.7003 20 24.4003 19.9C24.5003 19.9 24.6003 19.8 24.6003 19.7C24.6003 19.6 24.5003 19.5 24.4003 19.5C23.6003 19.6 22.8003 19.5 22.0003 19.4Z" fill="white"/>
</g>
</g>
</g>
<defs>
<linearGradient id="paint0_linear_31_15267" x1="11.6441" y1="3.49423" x2="15.3327" y2="16.1604" gradientUnits="userSpaceOnUse">
<stop stop-color="#03B8FF"/>
<stop offset="1" stop-color="#FA52A0"/>
</linearGradient>
<linearGradient id="paint1_linear_31_15267" x1="14.6821" y1="2.60958" x2="18.3708" y2="15.2759" gradientUnits="userSpaceOnUse">
<stop stop-color="#03B8FF"/>
<stop offset="1" stop-color="#FA52A0"/>
</linearGradient>
<linearGradient id="paint2_linear_31_15267" x1="8.61613" y1="4.37605" x2="12.3048" y2="17.0424" gradientUnits="userSpaceOnUse">
<stop stop-color="#03B8FF"/>
<stop offset="1" stop-color="#FA52A0"/>
</linearGradient>
<clipPath id="clip0_31_15267">
<rect width="30" height="30" fill="white"/>
</clipPath>
<clipPath id="clip1_31_15267">
<rect width="24" height="24" fill="white" transform="translate(3 3)"/>
</clipPath>
</defs>
</svg>
