<svg width="128" height="128" viewBox="0 0 128 128" fill="none" xmlns="http://www.w3.org/2000/svg">
<circle cx="64" cy="64" r="64" fill="black"/>
<mask id="mask0_226_294" style="mask-type:luminance" maskUnits="userSpaceOnUse" x="13" y="39" width="103" height="74">
<path d="M115.881 39H13V112.316H115.881V39Z" fill="white"/>
</mask>
<g mask="url(#mask0_226_294)">
<path d="M92.2944 46.3148C89.3086 44.5969 83.1358 43.7721 79.7921 46.7784C77.4165 48.9189 76.7688 51.5638 77.4914 56.2061C77.8016 58.2137 78.2447 60.7939 78.6708 63.2821C79.1479 66.0634 79.6047 68.7288 79.8365 70.3546C79.9523 71.1625 79.7887 71.7453 79.332 72.1305C77.8323 73.3984 73.7319 72.6383 72.4094 72.2157C71.7346 72.0009 70.954 71.9737 70.1292 71.9464C68.9021 71.9055 67.6376 71.8646 67.0582 71.1488C66.5094 70.4705 66.4923 69.3253 67.0104 68.2312C67.1945 67.8426 67.0275 67.3757 66.6389 67.1916C66.2572 67.0075 65.7868 67.1712 65.5993 67.5631C64.812 69.2196 64.9074 70.9716 65.8447 72.127C66.8707 73.395 68.5749 73.4529 70.0746 73.5041C70.787 73.5279 71.4619 73.5518 71.9322 73.7017C71.9663 73.712 74.2193 74.38 76.5268 74.38C77.9414 74.38 79.3797 74.1278 80.3341 73.32C80.9408 72.8053 81.6157 71.8339 81.3737 70.1331C81.1419 68.5004 80.6818 65.8146 80.2012 63.0196C79.7751 60.5383 79.3354 57.9683 79.0252 55.9676C78.9809 55.6812 78.9537 55.429 78.923 55.1597C79.9967 55.8892 81.6566 56.6458 84.0391 56.7822C84.2947 56.7958 84.5367 56.8026 84.7753 56.8026C88.9779 56.8026 90.7128 54.6757 90.7878 54.5803C91.0537 54.2463 90.9957 53.7623 90.6617 53.493C90.3311 53.2237 89.8403 53.2749 89.5676 53.6055C89.5062 53.6805 88.0202 55.4324 84.1243 55.2245C80.8045 55.037 79.2161 53.4998 78.7696 52.9852C78.7798 50.7083 79.4138 49.2052 80.8283 47.9372C83.521 45.5138 88.862 46.1444 91.507 47.668C91.8751 47.8793 92.3557 47.7532 92.5704 47.3817C92.7852 47.0101 92.6557 46.5329 92.2841 46.3182L92.2944 46.3148Z" fill="url(#paint0_linear_226_294)"/>
<path d="M80.1264 81.5145C79.4242 81.6815 78.6812 81.2453 77.9518 80.8192C77.4473 80.5227 76.9702 80.2432 76.4793 80.1545C75.7772 80.0284 75.1159 80.2057 74.5297 80.3625C74.107 80.4749 73.7151 80.5772 73.3572 80.5636C73.0811 80.5499 72.6959 80.4136 72.2869 80.2704C71.4723 79.9841 70.46 79.6194 69.3113 79.8444L68.8546 79.933C67.4503 80.2159 66.0051 80.5056 63.7147 80.1307C63.2988 80.0591 62.8898 80.3488 62.8182 80.7749C62.7467 81.2009 63.0364 81.5997 63.4624 81.6713C66.029 82.0906 67.7639 81.7429 69.1614 81.4634L69.6045 81.3748C70.3373 81.235 71.0633 81.4907 71.762 81.7395C72.2835 81.9235 72.7743 82.0974 73.2822 82.1212C73.8685 82.1485 74.4343 82.0019 74.9251 81.869C75.3954 81.7463 75.8454 81.6304 76.2032 81.6918C76.418 81.7293 76.7929 81.9508 77.1576 82.1655C77.8598 82.578 78.7732 83.1165 79.8026 83.1165C80.0309 83.1165 80.2593 83.0892 80.4979 83.0313C80.9137 82.9256 81.1694 82.503 81.0671 82.0871C80.9615 81.6679 80.5422 81.4123 80.123 81.5213L80.1264 81.5145Z" fill="url(#paint1_linear_226_294)"/>
<path d="M61.4991 45.0539C66.9833 45.3368 69.0625 48.2135 69.3999 49.3008C69.5056 49.6349 69.8123 49.8496 70.1429 49.8496C70.2179 49.8496 70.2997 49.8394 70.3747 49.8121C70.7871 49.6826 71.0155 49.2463 70.886 48.8373C70.3543 47.1297 67.7195 43.8166 61.5741 43.4996C55.824 43.2065 48.789 46.3696 48.4992 46.5025C48.1073 46.6831 47.9368 47.1433 48.1141 47.5353C48.2947 47.9272 48.7549 48.0977 49.1468 47.9204C49.215 47.8897 56.0592 44.7778 61.4957 45.0573L61.4991 45.0539Z" fill="url(#paint2_linear_226_294)"/>
<path d="M67.8014 52.5658C67.6003 52.1909 67.13 52.0409 66.7482 52.242C66.7244 52.2557 64.2157 53.5441 59.5325 53.2782C54.8697 53.0055 52.3441 51.199 52.3202 51.1786C51.976 50.9264 51.4852 51.0014 51.2329 51.3456C50.9773 51.6933 51.0523 52.1773 51.3965 52.4329C51.5124 52.5181 54.2835 54.5291 59.4439 54.8325C59.9279 54.8597 60.3914 54.8734 60.8345 54.8734C65.0917 54.8734 67.3822 53.6736 67.4879 53.6156C67.8662 53.4111 68.0059 52.9442 67.8048 52.5624L67.8014 52.5658Z" fill="url(#paint3_linear_226_294)"/>
<path d="M76.5879 84.3563C75.0643 85.5425 73.4487 85.914 71.3661 85.5663C69.6415 85.28 68.1349 84.4858 67.1226 83.3304C66.8397 83.0066 66.3455 82.9759 66.0251 83.2588C65.7013 83.5417 65.6672 84.0359 65.9535 84.3597C67.201 85.7845 69.0347 86.7593 71.1139 87.1069C71.6933 87.2024 72.2489 87.2535 72.7841 87.2535C74.5667 87.2535 76.1107 86.7116 77.5491 85.5902C77.8899 85.3243 77.9513 84.8369 77.6854 84.4961C77.4196 84.1552 76.9287 84.0939 76.5913 84.3597L76.5879 84.3563Z" fill="url(#paint4_linear_226_294)"/>
<path d="M41.9148 91.9443H41.8943C41.4649 91.9546 41.124 92.3124 41.1343 92.7453L41.4206 104.245C41.4308 104.668 41.7785 105.006 42.2011 105.006H42.2216C42.651 104.995 42.9919 104.637 42.9816 104.205L42.6953 92.7044C42.6851 92.2818 42.3374 91.9443 41.9148 91.9443Z" fill="url(#paint5_linear_226_294)"/>
<path d="M108.821 45.565C109.885 43.5881 109.858 39.9308 106.5 35.994C108.17 33.4547 108.515 30.077 107.335 27.5104C106.568 25.8437 105.573 25.0222 104.609 24.2281C104.435 24.0849 104.264 23.9418 104.094 23.7952C104.861 19.8959 103.978 14.0402 100.713 10.3454C100.338 9.91937 99.9356 9.54437 99.5402 9.15587C99.4788 6.06777 98.4836 2.29127 92.2052 -0.326431C91.1554 -0.762731 90.259 -1.08653 89.4307 -1.38653C87.3038 -2.15003 85.6269 -2.75673 82.7808 -4.86993C78.0874 -8.35683 72.201 -8.23413 68.8334 -6.12083C65.7283 -9.00443 59.3034 -11.1347 51.7434 -6.63893C49.4665 -5.28573 47.1113 -4.66203 44.6163 -4.00423C42.9189 -3.55773 41.167 -3.09413 39.4014 -2.37833C37.3836 -1.56033 35.9622 0.191567 34.4591 2.04927C32.4788 4.49647 30.4337 7.02557 26.8378 7.48907C24.3837 7.80267 22.3557 9.43197 21.4081 11.8383C20.5151 14.1084 20.7503 16.6306 21.9739 18.6757C18.6268 19.9062 16.0909 24.3167 16.0909 27.7763C16.0909 31.9414 18.0201 33.7819 19.7175 34.5966C18.2587 35.4453 17.0896 36.7746 16.3466 38.5095C15.0139 41.6112 15.2218 45.4389 16.8612 48.0327C17.577 49.1678 18.5552 50.146 19.7789 50.947C16.776 54.1577 17.26 59.6454 19.104 62.3585C19.7414 63.2958 20.5492 64.0866 21.4661 64.7069C20.8389 68.5414 21.374 77.2398 26.497 79.7859C28.3784 80.7233 31.4665 81.7935 33.8626 82.1309C33.8797 82.3832 33.8933 82.6252 33.9103 82.8808C34.4148 90.7373 35.0658 100.837 34.6636 106.147C35.1817 106.147 35.6998 106.147 36.2213 106.147C36.5894 101.314 36.1293 93.0721 35.468 82.782C35.2192 78.9406 34.9908 75.3277 34.8681 72.3453C35.1681 72.2907 35.4578 72.2123 35.7509 72.1373C36.4599 77.308 37.6153 82.4377 40.4001 85.8939C45.7207 92.4892 60.0225 98.9619 69.2731 98.9619C75.5651 98.9619 79.4644 97.0327 82.3411 93.3788C82.0684 99.5141 82.048 103.853 84.0522 107.35C84.6555 107.35 85.2588 107.336 85.8621 107.296C85.8143 107.227 85.7666 107.163 85.7223 107.094C83.4216 103.611 83.6397 98.9074 83.9738 91.7837L84.0147 90.8804C85.1429 88.9206 86.1245 86.6267 87.0721 83.9988C87.8901 81.7219 88.9092 79.2235 89.8908 76.8035C92.212 71.0944 94.4002 65.7022 94.4786 62.4369C95.6273 63.3094 97.1066 63.7116 98.4563 63.7116C98.6029 63.7116 98.746 63.7082 98.8892 63.698C100.992 63.5651 102.768 62.0926 103.532 60.7838C104.322 59.4204 104.534 58.1116 104.588 57.4946C106.112 56.8027 107.41 55.3507 107.915 53.7521C108.784 50.9879 108.027 48.6292 107.342 47.2488C107.945 46.8023 108.464 46.233 108.828 45.5548L108.821 45.565ZM105.917 28.1614C106.844 30.1792 106.568 32.9469 105.273 35.0124C103.491 33.7888 102.202 31.5255 100.955 29.3203C99.8913 27.4388 98.7869 25.496 97.3417 24.1088C95.0581 21.9171 91.82 21.0787 89.2535 20.5878C88.7047 20.4822 88.1491 20.3867 87.597 20.2913C85.3269 19.8959 83.183 19.521 81.2163 18.6007C79.7336 17.9054 78.1555 16.5965 77.2557 14.9878C77.1875 13.5869 76.9762 11.9917 76.574 10.2023C79.311 12.8575 83.0296 13.9311 87.9923 13.4574C94.4377 12.8507 98.7733 17.4112 100.518 21.5081C101.411 23.6077 102.584 24.5757 103.617 25.4279C104.52 26.1743 105.3 26.8151 105.917 28.1614ZM98.2586 10.0762C98.6949 10.492 99.1312 10.9112 99.5436 11.3782C102.277 14.4731 103.003 19.1324 102.73 22.3159C102.454 21.9206 102.195 21.4672 101.953 20.9014C100.007 16.3171 95.133 11.2146 87.8458 11.9099C83.2341 12.3462 79.9416 11.4089 77.5045 8.94797C76.6081 8.04127 75.6128 6.37117 74.7369 4.34307C74.6721 4.17607 74.6005 4.00907 74.5323 3.84207C77.4534 5.49517 81.2027 5.32137 83.0773 5.08957C88.8547 4.37037 94.0389 6.08147 98.187 10.0046C98.2109 10.0319 98.2347 10.0557 98.262 10.0796L98.2586 10.0762ZM81.8503 -3.61223C84.8804 -1.36263 86.6562 -0.721832 88.9024 0.085968C89.7102 0.375668 90.5828 0.689269 91.6053 1.11527C96.0363 2.96267 97.4406 5.34517 97.8428 7.65277C93.6095 4.27837 88.5138 2.83997 82.8865 3.53867C80.5517 3.83187 74.897 4.05677 72.8792 -0.0572319C72.6406 -0.544632 72.4464 -0.960433 72.2759 -1.32853C71.6522 -2.67833 71.267 -3.50313 69.9616 -4.94493C72.8656 -6.56733 77.8829 -6.56053 81.8503 -3.61563V-3.61223ZM22.8533 12.4144C23.5895 10.5431 25.1506 9.28197 27.0287 9.03997C31.2449 8.49807 33.5934 5.59747 35.6657 3.03427C37.0393 1.33687 38.3345 -0.265133 39.9808 -0.929733C41.6544 -1.60803 43.362 -2.05793 45.0083 -2.49423C47.4965 -3.15213 50.0664 -3.83033 52.5342 -5.29603C60.3668 -9.95193 66.0998 -6.70033 68.1074 -4.64503C68.1074 -4.64503 68.1074 -4.63813 68.1108 -4.63473C68.1176 -4.62793 68.1278 -4.62113 68.1347 -4.61433C68.1415 -4.60753 68.1449 -4.60063 68.1551 -4.59383C68.1619 -4.58363 68.1653 -4.57343 68.1756 -4.56323C68.2199 -4.51543 68.254 -4.47793 68.2983 -4.43363C68.3562 -4.36893 68.421 -4.30413 68.4687 -4.24283C68.4823 -4.22573 68.5028 -4.21893 68.5198 -4.20193C68.9186 -3.77583 69.2356 -3.41113 69.4912 -3.08393C69.556 -2.96123 69.8355 -2.43633 70.2377 -1.65233C70.7899 -0.0742319 70.6774 1.30277 69.8491 2.43437C68.6868 4.01587 66.4338 4.70437 64.8046 4.58167C63.8571 4.50667 62.7357 4.29877 61.5495 4.07727C58.5944 3.52847 54.9133 2.84677 51.6309 3.85567C47.7044 5.06227 45.3321 7.58117 42.5849 10.4954C41.5248 11.6202 40.4273 12.7825 39.1662 13.9482C35.6418 17.2033 28.3512 20.8673 23.7634 18.5257C22.4034 16.8011 22.0489 14.4765 22.8601 12.4144H22.8533ZM17.6452 27.7831C17.6452 24.7019 20.2186 20.4958 23.1567 19.9641C24.3701 20.5572 25.7062 20.8298 27.1071 20.8298C31.8312 20.8298 37.1791 17.8986 40.2194 15.0934C41.5214 13.8936 42.636 12.7109 43.7165 11.5657C46.3137 8.81157 48.5531 6.43587 52.0877 5.34857C55.0019 4.45217 58.3285 5.06907 61.2598 5.61107C62.4869 5.83947 63.6491 6.05417 64.6785 6.13597C67.1258 6.34047 69.7605 5.18497 71.1034 3.35467C71.417 2.92857 71.717 2.39347 71.9146 1.74587C72.1907 2.32867 72.4566 2.91157 72.6952 3.45687C72.8963 3.99207 73.1076 4.50327 73.3223 5.00097C73.4314 5.28047 73.5371 5.55657 73.6393 5.82577C74.062 7.35277 73.8881 8.83887 73.1042 10.0353C72.0408 11.6611 69.9411 12.6836 67.0337 12.9904C65.1352 13.1881 62.9879 13.1676 60.9019 13.1438C59.726 13.1301 58.5739 13.1199 57.4832 13.1438C51.8525 13.2835 47.1454 16.3034 43.0825 22.3807C41.4703 24.7939 39.0639 25.0938 36.511 25.4108C34.7113 25.6324 32.8469 25.8641 31.2279 26.8628C28.9749 28.2535 27.7206 29.7906 26.7117 31.0279C25.3585 32.6844 24.5405 33.6865 22.2159 33.6865C22.0285 33.6865 17.6418 33.574 17.6418 27.7797L17.6452 27.7831ZM18.1735 47.2045C16.8169 45.0605 16.6533 41.7407 17.7747 39.1298C18.4087 37.6471 19.7209 35.7759 22.342 35.2408C25.3142 35.1965 26.5276 33.7274 27.9217 32.0164C28.9067 30.8132 30.0213 29.4464 32.0493 28.1921C33.3786 27.3707 34.9942 27.173 36.7053 26.9617C39.3605 26.631 42.3735 26.2595 44.3811 23.2533C48.1918 17.5509 52.3671 14.8344 57.5241 14.7083C58.5944 14.681 59.7328 14.6946 60.8883 14.7083C63.0152 14.7321 65.2136 14.7526 67.1973 14.5447C71.4784 14.0947 73.4825 12.3121 74.413 10.8942C74.5937 10.6181 74.713 10.3182 74.8459 10.025C75.6162 15.799 72.5963 18.0792 69.4776 19.5346C66.6997 20.8333 64.4092 20.6424 61.9892 20.4413C59.2625 20.2163 56.4471 19.9811 53.1102 22.0058C51.1537 23.1919 49.9335 25.1586 48.7508 27.0639C47.4692 29.1294 46.2592 31.079 44.2448 31.8596C43.3586 32.2038 42.3906 32.3163 41.3681 32.4356C40.6352 32.5208 39.8786 32.6094 39.1287 32.7867C35.6521 33.6183 32.7992 36.7405 31.6574 41.0249C30.8973 43.871 30.1815 46.5603 27.0968 48.7417C24.3394 50.6913 21.7831 50.2073 21.3263 50.0983C20.0141 49.3995 18.9268 48.4008 18.1769 47.2079L18.1735 47.2045ZM20.3856 61.4859C19.0427 59.509 18.2212 54.3725 21.2718 51.6696C21.582 51.7241 22.0319 51.782 22.6045 51.782C23.9645 51.782 25.9482 51.4582 27.9967 50.0096C31.5415 47.501 32.3663 44.4095 33.1843 41.3283C33.9444 38.4754 35.9997 35.1317 39.4866 34.2966C40.1444 34.1398 40.8227 34.0614 41.5419 33.9762C42.619 33.8501 43.7301 33.7206 44.8038 33.3082C47.3022 32.3402 48.7099 30.0735 50.0732 27.8819C51.2083 26.055 52.2785 24.3269 53.9146 23.3385C56.822 21.5763 59.2659 21.7808 61.8563 21.9955C64.3751 22.2035 66.986 22.4216 70.1354 20.9491C71.5056 20.3084 74.3278 18.9722 75.7151 15.8024C75.7628 19.0575 75.047 21.0923 74.6959 22.0705C73.1281 26.4436 68.4482 27.3059 61.8461 27.2207C58.7716 27.173 55.7995 28.2501 53.5942 30.1315C52.0331 31.4608 51.0072 33.2196 50.0153 34.9238C49.7801 35.326 49.5449 35.7282 49.3063 36.1236C48.3486 37.6983 46.8148 39.866 44.6061 40.5239C43.9074 40.7318 43.137 40.8 42.319 40.8715C40.775 41.0079 39.173 41.151 37.9391 42.2895C36.1667 43.9289 36.3508 46.5705 36.4974 48.6905L36.5076 48.8473C36.77 52.6546 36.3201 55.7802 35.1374 58.4047C33.7365 61.5132 31.2074 63.8037 28.3716 64.5297C25.4062 65.2863 22.1239 64.0354 20.389 61.4825L20.3856 61.4859ZM27.1889 78.3953C23.3578 76.4899 22.4341 69.4549 22.9215 65.5045C24.0872 66.0192 25.3483 66.3123 26.6231 66.3123C26.7253 66.3123 26.8242 66.2987 26.9264 66.2953C27.4615 66.7827 28.433 67.7473 28.7431 68.4494L28.8965 68.8005C29.3669 69.881 29.8986 71.108 31.0166 71.8442C31.7255 72.3112 32.5095 72.485 33.3105 72.4986C33.4093 74.8641 33.5729 77.6079 33.7604 80.5528C31.6369 80.2018 28.8931 79.2474 27.1889 78.3987V78.3953ZM92.938 50.405C92.6926 51.4071 92.7437 52.9034 92.8221 55.1666C92.8869 57.0481 92.9687 59.3931 92.9176 62.3687C92.863 65.3409 90.6168 70.8728 88.4388 76.2241C87.4504 78.6577 86.4279 81.1732 85.5962 83.4773C81.7924 94.0231 77.8249 97.4111 69.2663 97.4111C59.7942 97.4111 46.1399 90.543 41.6066 84.9225C38.1846 80.6789 37.3904 73.3474 36.6917 66.8781L36.5349 65.4295C36.4871 65 36.0918 64.6899 35.6759 64.741C35.2465 64.7887 34.9397 65.1739 34.9874 65.6033L35.1442 67.0485C35.2703 68.2108 35.4067 69.4038 35.5532 70.6001C35.0385 70.7331 34.5239 70.8489 34.0262 70.9069C33.2253 70.9989 32.4788 70.9444 31.8789 70.549C31.1495 70.065 30.7507 69.1515 30.3315 68.1835L30.1747 67.8222C29.9054 67.2155 29.3703 66.5577 28.8658 66.0192C32.1107 65.1466 34.984 62.5562 36.5655 59.0591C37.8573 56.1926 38.3516 52.8216 38.0721 48.7519L38.0618 48.5917C37.9323 46.7068 37.7824 44.5731 39.006 43.4415C39.8479 42.6644 41.1192 42.5519 42.4622 42.4326C43.3211 42.3576 44.2073 42.2792 45.056 42.027C47.7794 41.2158 49.5484 38.7378 50.6425 36.945C50.8879 36.5394 51.1299 36.1304 51.3685 35.718C52.3365 34.0546 53.2533 32.4867 54.6133 31.3279C56.5391 29.685 59.1977 28.7375 61.8392 28.792C68.1006 28.867 74.1847 28.158 76.1718 22.6057C76.2298 22.442 76.3013 22.2444 76.3729 22.0262C77.2898 25.9766 79.0281 28.0694 80.5619 29.1669C82.3616 30.4519 84.3964 31.3245 86.3631 32.1697L87.597 32.7049C89.8738 33.707 92.6415 35.5407 93.1596 36.0758C93.2141 36.1338 93.2823 36.1713 93.3504 36.2054C93.3572 36.2633 93.3504 36.3178 93.3709 36.3758C94.5536 39.9206 94.8706 43.1109 94.3252 45.8547C94.1173 46.9011 93.8549 47.6373 93.5754 48.4145C93.3572 49.0212 93.1323 49.6518 92.9482 50.4153L92.938 50.405ZM102.175 60.0066C101.612 60.9781 100.232 62.0585 98.7835 62.1506C97.2463 62.246 95.3001 61.6495 94.4923 60.1328C94.4854 58.1627 94.4309 56.513 94.3832 55.1155C94.3116 53.0602 94.2605 51.5741 94.4548 50.78C94.6252 50.0812 94.8331 49.5086 95.0376 48.9291C95.0683 48.8473 95.0956 48.7587 95.1262 48.6769C95.8829 48.6769 96.6464 49.3314 97.0213 50.0233C97.4304 50.7731 97.6076 51.6525 97.7916 52.5796L97.9041 53.125C98.1529 54.3077 98.5347 55.6472 99.4993 56.6323C100.324 57.4742 101.497 57.9241 102.686 57.9241C102.775 57.9241 102.863 57.9036 102.952 57.8968C102.85 58.4422 102.638 59.2125 102.178 60.0066H102.175ZM106.418 53.292C106.04 54.4918 105.018 55.6268 103.872 56.121C102.775 56.5948 101.401 56.3494 100.61 55.5382C99.9288 54.8394 99.6288 53.7624 99.4277 52.8012L99.322 52.2729C99.1209 51.2708 98.9164 50.2346 98.3949 49.2734C97.7542 48.1009 96.7248 47.3272 95.6136 47.1465C95.6954 46.8363 95.7773 46.5125 95.8522 46.1478C96.3465 43.6733 96.1726 40.8818 95.4023 37.8585C96.902 39.2491 97.8735 40.7966 98.8687 42.7666C99.0119 43.0495 99.1482 43.3359 99.2811 43.6222C99.6629 44.43 100.058 45.2616 100.61 46.0251C101.555 47.3272 102.785 48.1145 104.073 48.2372C104.203 48.2508 104.333 48.2577 104.465 48.2577C104.97 48.2577 105.474 48.1588 105.962 47.9884C106.599 49.2768 107.104 51.1344 106.425 53.292H106.418ZM107.444 44.8253C106.8 46.0217 105.43 46.8091 104.213 46.6864C103.388 46.608 102.533 46.0319 101.868 45.1117C101.401 44.4675 101.054 43.7312 100.685 42.9575C100.542 42.6576 100.402 42.361 100.256 42.0679C98.7971 39.1809 97.386 37.1256 94.4855 35.1556C94.4445 35.1283 94.3968 35.1181 94.3491 35.0976C94.3218 35.0601 94.3082 35.0158 94.2741 34.9817C93.5788 34.2591 90.5896 32.3095 88.2173 31.2665L86.9698 30.728C85.0781 29.9168 83.1217 29.0783 81.4617 27.8888C80.0336 26.8696 77.7261 24.2076 77.3409 17.66C78.3123 18.6757 79.4542 19.5005 80.5585 20.0152C82.716 21.0241 85.0611 21.4331 87.3311 21.8285C87.8764 21.924 88.4218 22.0194 88.9637 22.1217C91.4656 22.5988 94.2878 23.3385 96.2647 25.237C97.5428 26.464 98.5415 28.2262 99.5981 30.0906C101.081 32.7049 102.618 35.3976 105.082 36.7132C108.181 40.166 108.3 43.2404 107.448 44.8253H107.444Z" fill="url(#paint6_linear_226_294)"/>
<path d="M105.994 94.5619C108.474 86.0377 102.72 76.8687 93.1419 74.0824C83.5639 71.2962 73.7892 75.9477 71.3094 84.4719C68.8297 92.9961 74.584 102.165 84.162 104.951C93.74 107.738 103.515 103.086 105.994 94.5619Z" fill="url(#paint7_linear_226_294)"/>
</g>
<circle cx="64" cy="64" r="63" stroke="url(#paint8_linear_226_294)" stroke-width="2"/>
<defs>
<linearGradient id="paint0_linear_226_294" x1="65.071" y1="59.5737" x2="92.6829" y2="59.5737" gradientUnits="userSpaceOnUse">
<stop stop-color="#2BF1FF"/>
<stop offset="0.24" stop-color="#56C7FF"/>
<stop offset="0.78" stop-color="#C25FFF"/>
<stop offset="1" stop-color="#F133FF"/>
</linearGradient>
<linearGradient id="paint1_linear_226_294" x1="62.8114" y1="81.4429" x2="81.0944" y2="81.4429" gradientUnits="userSpaceOnUse">
<stop stop-color="#2BF1FF"/>
<stop offset="0.24" stop-color="#56C7FF"/>
<stop offset="0.78" stop-color="#C25FFF"/>
<stop offset="1" stop-color="#F133FF"/>
</linearGradient>
<linearGradient id="paint2_linear_226_294" x1="48.0459" y1="46.6627" x2="70.9235" y2="46.6627" gradientUnits="userSpaceOnUse">
<stop stop-color="#2BF1FF"/>
<stop offset="0.24" stop-color="#56C7FF"/>
<stop offset="0.78" stop-color="#C25FFF"/>
<stop offset="1" stop-color="#F133FF"/>
</linearGradient>
<linearGradient id="paint3_linear_226_294" x1="51.0795" y1="52.951" x2="67.8935" y2="52.951" gradientUnits="userSpaceOnUse">
<stop stop-color="#2BF1FF"/>
<stop offset="0.24" stop-color="#56C7FF"/>
<stop offset="0.78" stop-color="#C25FFF"/>
<stop offset="1" stop-color="#F133FF"/>
</linearGradient>
<linearGradient id="paint4_linear_226_294" x1="65.7558" y1="85.1573" x2="77.8456" y2="85.1573" gradientUnits="userSpaceOnUse">
<stop stop-color="#2BF1FF"/>
<stop offset="0.24" stop-color="#56C7FF"/>
<stop offset="0.78" stop-color="#C25FFF"/>
<stop offset="1" stop-color="#F133FF"/>
</linearGradient>
<linearGradient id="paint5_linear_226_294" x1="41.1377" y1="98.4749" x2="42.985" y2="98.4749" gradientUnits="userSpaceOnUse">
<stop stop-color="#2BF1FF"/>
<stop offset="0.24" stop-color="#56C7FF"/>
<stop offset="0.78" stop-color="#C25FFF"/>
<stop offset="1" stop-color="#F133FF"/>
</linearGradient>
<linearGradient id="paint6_linear_226_294" x1="15.4672" y1="49.0621" x2="109.438" y2="49.0621" gradientUnits="userSpaceOnUse">
<stop stop-color="#2BF1FF"/>
<stop offset="0.24" stop-color="#56C7FF"/>
<stop offset="0.78" stop-color="#C25FFF"/>
<stop offset="1" stop-color="#F133FF"/>
</linearGradient>
<linearGradient id="paint7_linear_226_294" x1="70.7317" y1="89.5227" x2="106.568" y2="89.5227" gradientUnits="userSpaceOnUse">
<stop stop-color="#2BF1FF"/>
<stop offset="0.24" stop-color="#56C7FF"/>
<stop offset="0.78" stop-color="#C25FFF"/>
<stop offset="1" stop-color="#F133FF"/>
</linearGradient>
<linearGradient id="paint8_linear_226_294" x1="32" y1="10.5" x2="104" y2="114" gradientUnits="userSpaceOnUse">
<stop stop-color="#2DF0FF"/>
<stop offset="1" stop-color="#EE36FF"/>
</linearGradient>
</defs>
</svg>
