<svg width="256" height="256" viewBox="0 0 256 256" fill="none" xmlns="http://www.w3.org/2000/svg">
<g clip-path="url(#clip0_1239_2)">
<rect width="256" height="256" fill="white"/>
<path fill-rule="evenodd" clip-rule="evenodd" d="M147.137 69.0272C126.95 78.0932 103.862 96.4669 94.0709 106.621C93.7082 106.983 93.3456 107.346 92.983 107.709C80.895 119.797 82.7082 141.192 96.8511 157.027H96.6094C74.2467 157.027 55.873 164.28 53.4554 173.467C52.7301 175.643 52.9719 181.566 53.0927 184.709C53.0927 185.555 53.2136 186.159 53.2136 186.401C53.2136 194.863 72.917 203.808 96.7302 203.808C120.543 203.808 139.763 196.192 139.763 186.764C139.763 186.522 139.763 186.038 139.763 185.313C139.763 183.258 139.884 179.632 139.884 177.093C140.126 175.764 140.005 174.434 139.643 173.104C144.478 172.016 148.95 169.72 152.577 166.335L152.335 166.577C151.489 167.423 150.522 168.269 149.555 168.994C155.599 165.852 160.071 159.203 165.753 150.621C183.522 120.159 200.445 88.4888 203.588 66.4888C205.764 50.8953 199.357 51.3788 183.643 55.247C175.786 56.9393 153.785 66.1261 147.137 69.0272ZM138.071 170.203C133.236 163.313 119.335 158.115 102.291 157.148C101.807 157.148 101.445 157.148 100.961 157.027C85.7302 141.676 83.917 120.764 95.0379 109.764C106.401 98.5218 128.28 100.214 144.236 115.566C160.071 130.918 162.126 152.313 150.763 163.555C147.379 167.06 143.027 169.236 138.071 170.203ZM177.236 96.8295C177.236 92.9614 170.467 80.0273 165.511 77.6097C157.654 73.7415 157.654 77.6095 165.511 85.2249C168.775 88.4887 171.434 91.7526 173.368 94.0493C176.027 97.313 177.236 99.0053 177.236 96.8295ZM169.983 126.082C170.709 123.665 169.016 114.236 166.357 111.818C162.126 107.95 161.401 110.368 164.906 116.654C166.357 119.313 167.324 121.852 168.049 123.665C169.016 126.203 169.5 127.412 169.983 126.082ZM134.324 180.599C136.137 178.786 136.862 177.093 136.862 175.522C136.862 173.95 136.137 172.258 134.324 170.445C132.511 168.632 129.73 166.819 125.983 165.247C118.609 162.104 108.214 160.049 96.4885 160.049C84.7632 160.049 74.3675 162.104 66.9939 165.247C63.2466 166.819 60.4664 168.632 58.6532 170.445C56.84 172.258 56.1147 173.95 56.1147 175.522C56.1147 177.093 56.84 178.786 58.6532 180.599C60.4664 182.412 63.2466 184.225 66.9939 185.797C74.3675 188.94 84.7632 190.994 96.4885 190.994C108.214 190.994 118.609 188.94 125.983 185.797C129.73 184.346 132.511 182.533 134.324 180.599Z" fill="white"/>
<path fill-rule="evenodd" clip-rule="evenodd" d="M147.137 69.0272C126.95 78.0932 103.862 96.4669 94.0709 106.621C93.7082 106.983 93.3456 107.346 92.983 107.709C80.895 119.797 82.7082 141.192 96.8511 157.027H96.6094C74.2467 157.027 55.873 164.28 53.4554 173.467C52.7301 175.643 52.9719 181.566 53.0927 184.709C53.0927 185.555 53.2136 186.159 53.2136 186.401C53.2136 194.863 72.917 203.808 96.7302 203.808C120.543 203.808 139.763 196.192 139.763 186.764C139.763 186.522 139.763 186.038 139.763 185.313C139.763 183.258 139.884 179.632 139.884 177.093C140.126 175.764 140.005 174.434 139.643 173.104C144.478 172.016 148.95 169.72 152.577 166.335L152.335 166.577C151.489 167.423 150.522 168.269 149.555 168.994C155.599 165.852 160.071 159.203 165.753 150.621C183.522 120.159 200.445 88.4888 203.588 66.4888C205.764 50.8953 199.357 51.3788 183.643 55.247C175.786 56.9393 153.785 66.1261 147.137 69.0272ZM138.555 170.928C133.961 163.434 118.609 157.632 99.994 157.027C85.1258 141.555 83.3126 120.522 94.6753 109.28C106.401 97.6757 128.884 99.6097 144.84 115.082C160.917 130.676 163.093 152.555 151.489 164.159C147.862 167.544 143.511 169.841 138.555 170.928ZM177.236 96.8295C177.236 92.9614 170.467 80.0273 165.511 77.6097C157.654 73.7415 157.654 77.6095 165.511 85.2249C168.775 88.4887 171.434 91.7526 173.368 94.0493C176.027 97.313 177.236 99.0053 177.236 96.8295ZM169.983 126.082C170.709 123.665 169.016 114.236 166.357 111.818C162.126 107.95 161.401 110.368 164.906 116.654C166.357 119.313 167.324 121.852 168.049 123.665C169.016 126.203 169.5 127.412 169.983 126.082ZM134.928 181.203C136.862 179.269 137.708 177.335 137.708 175.522C137.708 173.709 136.862 171.775 134.928 169.841C132.994 167.907 130.093 166.093 126.346 164.401C118.851 161.137 108.335 159.203 96.4885 159.203C84.7632 159.203 74.2467 161.258 66.6312 164.401C62.884 165.972 59.9829 167.907 58.0488 169.841C56.1147 171.775 55.2686 173.709 55.2686 175.522C55.2686 177.335 56.1147 179.269 58.0488 181.203C59.9829 183.137 62.884 184.951 66.6312 186.643C74.1258 189.907 84.6423 191.841 96.4885 191.841C108.335 191.841 118.73 189.786 126.346 186.643C130.093 184.951 132.994 183.137 134.928 181.203Z" fill="#8878C3"/>
<path d="M165.511 77.6093C170.467 80.0269 177.236 92.961 177.236 96.8291C177.236 100.697 173.368 92.961 165.511 85.3456C157.774 77.6093 157.774 73.7411 165.511 77.6093ZM166.357 111.818C169.016 114.236 170.709 123.664 169.983 126.082C169.258 128.5 168.291 122.939 164.906 116.653C161.401 110.368 162.126 107.95 166.357 111.818Z" fill="#6D619A"/>
<path d="M151.972 164.643C139.884 176.731 116.917 174.555 100.719 158.841C84.5213 143.126 81.9828 120.764 94.0707 108.676C106.159 96.5877 129.126 98.7635 145.324 114.478C161.522 130.192 164.06 152.676 151.972 164.643Z" fill="#BFB7DE" stroke="#6D619A" stroke-width="2.4964"/>
<path d="M138.434 175.522C138.434 177.576 137.467 179.631 135.412 181.686C133.357 183.741 130.456 185.675 126.588 187.247C118.972 190.511 108.335 192.566 96.4886 192.566C84.6424 192.566 74.0051 190.511 66.3896 187.247C62.5215 185.555 59.6204 183.741 57.5654 181.686C55.5105 179.631 54.5435 177.576 54.5435 175.522C54.5435 173.467 55.5105 171.412 57.5654 169.357C59.6204 167.302 62.5215 165.368 66.3896 163.796C74.0051 160.532 84.6424 158.478 96.4886 158.478C108.335 158.478 118.972 160.532 126.588 163.796C130.456 165.489 133.357 167.302 135.412 169.357C137.467 171.412 138.434 173.467 138.434 175.522Z" fill="#E3DFF3" stroke="#6D619A" stroke-width="2.4964"/>
</g>
<defs>
<clipPath id="clip0_1239_2">
<rect width="256" height="256" fill="white"/>
</clipPath>
</defs>
</svg>
