<svg width="256" height="256" viewBox="0 0 256 256" fill="none" xmlns="http://www.w3.org/2000/svg">
<g clip-path="url(#clip0_2224_15)">
<path d="M256 0H0V256H256V0Z" fill="#D975F0"/>
<mask id="mask0_2224_15" style="mask-type:luminance" maskUnits="userSpaceOnUse" x="23" y="15" width="210" height="226">
<path d="M232.488 15.6719H23.5078V240.326H232.488V15.6719Z" fill="white"/>
</mask>
<g mask="url(#mask0_2224_15)">
<path d="M85.4878 38.901C82.6814 38.4666 82.562 38.4218 83.8906 38.227C86.4282 37.8376 92.399 38.3618 96.5188 39.3354C106.132 41.6118 114.879 47.4528 124.224 57.8318L126.701 60.5876L130.254 60.0184C145.211 57.622 160.407 59.5242 173.14 65.3802C176.648 66.9976 182.171 70.2026 182.842 71.0264C183.081 71.296 183.484 72.9734 183.738 74.7856C184.693 81.046 184.231 85.8236 182.305 89.403C181.26 91.35 181.2 91.964 181.902 93.6414C182.237 94.3324 182.759 94.9148 183.409 95.3226C184.058 95.7304 184.808 95.947 185.574 95.948C188.739 95.948 192.142 90.8558 193.709 83.7568L194.336 80.926L195.575 82.334C202.396 90.032 207.74 100.516 208.652 107.974L208.89 109.921L207.756 108.154C206.106 105.447 203.892 103.132 201.262 101.37C196.695 98.3592 191.858 97.3258 179.081 96.6518C167.527 96.0528 160.989 95.0642 154.511 92.9526C143.48 89.358 137.927 84.5954 124.821 67.4618C118.999 59.8386 115.417 55.6302 111.834 52.2454C103.699 44.5324 95.7128 40.4886 85.4878 38.916V38.901Z" fill="white"/>
<path d="M185.464 55.9011C185.747 50.8089 186.434 47.4391 187.837 44.3689C188.144 43.5929 188.53 42.8503 188.986 42.1523C189.061 42.1523 188.822 43.0509 188.449 44.1441C187.434 47.1395 187.255 51.2133 187.971 55.9609C188.867 61.9817 189.36 62.8503 195.733 69.3503C198.734 72.4055 202.212 76.2397 203.48 77.9021L205.78 80.8975L203.48 78.7557C200.674 76.1347 194.226 71.0127 192.793 70.2789C191.837 69.7995 191.688 69.7995 191.106 70.3837C190.554 70.9229 190.449 71.7315 190.36 75.5657C190.255 81.5415 189.434 85.3755 187.464 89.1945C186.404 91.2913 186.24 90.8421 187.195 88.4907C187.912 86.7533 187.986 85.9745 187.986 80.1935C187.986 68.5865 186.583 65.7857 178.478 61.0231C176.033 59.6063 173.522 58.3069 170.954 57.1291C169.689 56.6189 168.462 56.0183 167.282 55.3319C167.506 55.1073 175.418 57.4137 178.597 58.6269C183.344 60.4539 184.12 60.6787 184.702 60.4689C185.075 60.3191 185.269 59.1959 185.449 55.9011H185.464ZM90.9302 75.7753C85.2428 67.9573 81.7052 55.9609 82.4814 46.9897L82.7052 44.2191L84.004 44.4437C86.452 44.8931 90.6466 46.4507 92.6168 47.6487C98.0056 50.9137 100.349 55.2121 102.723 66.2651C103.424 69.5001 104.335 73.1543 104.753 74.4125C105.424 76.4043 107.992 81.0621 110.067 84.0875C111.559 86.2741 110.574 87.3075 107.26 87.0079C102.2 86.5587 95.3486 81.8409 90.9302 75.7753ZM178.537 133.991C151.907 123.312 142.533 114.026 142.533 98.3755C142.533 96.0689 142.608 94.1819 142.712 94.1819C142.802 94.1819 143.832 94.9307 144.996 95.8743C150.4 100.188 156.445 102.03 173.193 104.471C183.045 105.909 188.568 107.062 193.688 108.754C209.958 114.131 220.004 125.034 222.408 139.906C223.094 144.22 222.706 152.307 221.558 156.576C220.662 159.945 217.944 166.011 217.228 166.251C217.02 166.326 216.826 165.562 216.78 164.513C216.512 158.942 213.676 153.505 208.928 149.432C203.526 144.804 196.271 141.12 178.537 134.005V133.991ZM159.849 138.439C159.536 136.542 159.107 134.666 158.565 132.822L157.878 130.8L159.147 132.223C160.894 134.17 162.282 136.671 163.446 140.011C164.342 142.557 164.431 143.306 164.431 147.44C164.431 151.498 164.312 152.352 163.476 154.629C162.329 158.005 160.406 161.062 157.863 163.555C152.997 168.497 146.743 171.223 137.712 172.361C136.144 172.556 131.577 172.885 127.561 173.095C117.426 173.619 110.753 174.713 104.768 176.809C104.225 177.049 103.643 177.186 103.051 177.214C102.812 176.974 106.902 174.548 110.261 172.93C115.008 170.639 119.739 169.396 130.338 167.644C135.562 166.775 140.981 165.712 142.354 165.292C155.311 161.338 161.983 151.109 159.849 138.439Z" fill="white"/>
<path d="M172.06 160.064C168.523 152.486 167.702 145.162 169.642 138.333C169.851 137.584 170.179 137 170.388 137C170.583 137 171.433 137.449 172.239 138.003C173.881 139.097 177.136 140.939 185.853 145.672C196.72 151.587 202.93 156.155 207.14 161.397C210.826 165.965 213.11 171.192 214.214 177.542C214.842 181.137 214.468 189.823 213.542 193.448C210.618 204.89 203.84 213.876 194.137 219.118C192.719 219.882 191.451 220.512 191.301 220.512C191.167 220.512 191.689 219.208 192.451 217.606C195.72 210.806 196.093 204.202 193.63 196.848C192.107 192.34 189.032 186.843 182.823 177.542C175.598 166.759 173.837 163.869 172.06 160.064ZM72.0187 200.996C81.9153 192.669 94.2003 186.768 105.411 184.941C111.185 184.198 117.042 184.426 122.741 185.615C129.906 187.442 136.325 191.546 139.654 196.413C142.908 201.19 144.311 205.34 145.774 214.596C146.341 218.234 146.968 221.904 147.147 222.728C148.237 227.52 150.371 231.354 152.998 233.272C157.178 236.326 164.403 236.522 171.493 233.766C172.229 233.424 173.007 233.184 173.807 233.046C174.061 233.302 170.493 235.682 167.985 236.94C165.01 238.528 161.682 239.332 158.312 239.278C151.819 239.278 146.43 235.982 141.922 229.272C140.269 226.432 138.794 223.49 137.504 220.466C132.757 209.668 130.414 206.388 124.906 202.778C120.099 199.633 113.904 199.079 109.247 201.356C103.127 204.35 101.425 212.138 105.814 217.082C107.864 219.206 110.546 220.604 113.456 221.066C114.612 221.224 115.789 221.132 116.906 220.794C118.023 220.456 119.055 219.882 119.932 219.11C120.808 218.336 121.509 217.384 121.986 216.316C122.463 215.248 122.705 214.088 122.696 212.918C122.696 209.668 121.442 207.826 118.293 206.388C113.979 204.456 109.366 206.718 109.381 210.746C109.381 212.468 110.143 213.546 111.874 214.34C112.979 214.834 113.009 214.864 112.098 214.686C108.157 213.862 107.232 209.114 110.396 205.968C114.218 202.194 122.099 203.856 124.801 209.024C125.936 211.196 126.07 215.508 125.085 218.114C122.846 223.956 116.397 227.026 109.829 225.348C105.351 224.21 103.545 222.982 98.1561 217.456C88.7967 207.84 85.1695 205.968 71.6753 203.872L69.0781 203.468L72.0187 200.996Z" fill="white"/>
<path fill-rule="evenodd" clip-rule="evenodd" d="M28.1074 28.9112C59.3648 66.7428 80.9046 82.3488 83.2928 85.6436C85.2632 88.3694 84.5168 90.8255 81.1434 92.7425C78.7444 93.9519 76.133 94.6795 73.4558 94.8843C71.2616 94.8843 70.5004 94.0456 70.5004 94.0456C69.2316 92.8476 68.515 93.0572 61.9918 81.51C56.446 72.8498 50.8332 64.2328 45.154 55.66C44.6764 55.2106 44.6914 55.2106 61.0814 84.4604C63.7234 90.556 61.6038 92.7875 61.6038 93.6561C61.6038 95.4235 61.1112 96.3522 58.9318 98.7934C55.2896 102.837 53.6626 107.39 52.4834 116.811C51.1698 127.369 47.4678 134.828 37.198 147.603C31.1972 155.076 30.212 156.439 28.6894 159.465C26.7788 163.254 26.2564 165.381 26.0474 170.158C25.8234 175.235 26.2564 178.5 27.8088 183.338C29.1522 187.591 30.5852 190.377 34.2126 195.978C37.3472 200.816 39.1384 204.41 39.1384 205.818C39.1384 206.926 39.3474 206.926 44.2136 205.834C55.7972 203.228 65.2162 198.644 70.5152 192.998C73.7992 189.508 74.5606 187.591 74.5904 182.814C74.6052 179.698 74.5008 179.039 73.65 177.242C72.2766 174.322 69.769 171.88 64.2458 168.106C56.9912 163.164 53.8864 159.195 53.0506 153.729C52.334 149.235 53.155 146.075 57.1554 137.703C61.3052 129.017 62.3352 125.317 63.0368 116.586C63.4846 110.94 64.0966 108.708 65.7236 106.911C67.4254 105.054 68.948 104.425 73.1574 103.856C80.009 102.912 84.3526 101.16 87.9352 97.8647C89.3712 96.6755 90.5298 95.1848 91.3294 93.4978C92.1288 91.8106 92.5498 89.968 92.5626 88.0998L92.7118 84.9548L90.9654 82.9478C84.681 75.6392 23.8978 23.1602 23.5098 23.1602C23.4352 23.1602 25.495 25.7512 28.1074 28.9112ZM42.6762 175.909C43.361 174.696 43.5646 173.268 43.2464 171.91C42.9282 170.553 42.1116 169.366 40.9596 168.586C38.7206 167.088 35.2126 167.807 35.2126 169.739C35.2126 170.338 35.541 170.772 36.2874 171.147C37.5412 171.791 37.6308 172.51 36.6456 173.992C35.6456 175.475 35.735 176.778 36.8696 177.677C38.7056 179.099 41.3028 178.321 42.6762 175.909ZM97.0258 105.518C93.8164 106.491 90.6968 109.891 89.7116 113.456C89.1294 115.627 89.4726 119.446 90.3534 120.615C91.7864 122.517 93.1596 123.011 96.9064 122.996C104.221 122.951 110.58 119.821 111.326 115.897C111.923 112.692 109.132 108.259 105.281 106.297C102.664 105.231 99.794 104.96 97.0258 105.518ZM105.594 112.183C106.714 110.58 106.221 108.858 104.295 107.69C100.653 105.458 95.1152 107.3 95.1152 110.745C95.1152 112.467 97.996 114.339 100.638 114.339C102.4 114.339 104.818 113.291 105.594 112.183Z" fill="white"/>
</g>
</g>
<defs>
<clipPath id="clip0_2224_15">
<rect width="256" height="256" fill="white"/>
</clipPath>
</defs>
</svg>
