<svg width="128" height="128" viewBox="0 0 128 128" fill="none" xmlns="http://www.w3.org/2000/svg">
<rect width="128" height="128" fill="#D975F0"/>
<g clip-path="url(#clip0_1002_505)">
<path d="M42.7439 19.4505C41.3407 19.2333 41.281 19.2109 41.9453 19.1135C43.2141 18.9188 46.1995 19.1809 48.2594 19.6677C53.066 20.8059 57.4396 23.7264 62.1118 28.9159L63.3507 30.2938L65.1271 30.0092C72.6056 28.811 80.2035 29.7621 86.5699 32.6901C88.3238 33.4988 91.0853 35.1013 91.4212 35.5132C91.5406 35.648 91.7421 36.4867 91.869 37.3928C92.3467 40.523 92.1153 42.9118 91.1525 44.7015C90.63 45.675 90.6002 45.982 90.951 46.8207C91.1187 47.1662 91.3797 47.4574 91.7043 47.6613C92.0289 47.8652 92.4041 47.9735 92.787 47.974C94.3693 47.974 96.071 45.4279 96.8547 41.8784L97.1681 40.463L97.7876 41.167C101.198 45.016 103.87 50.2579 104.326 53.9872L104.445 54.9607L103.878 54.077C103.053 52.7236 101.946 51.5662 100.631 50.6848C98.3474 49.1796 95.9292 48.6629 89.5404 48.3259C83.7636 48.0264 80.4945 47.5321 77.2554 46.4763C71.7398 44.679 68.9633 42.2977 62.4103 33.7309C59.4996 29.9193 57.7083 27.8151 55.917 26.1227C51.8494 22.2662 47.8564 20.2443 42.7439 19.458V19.4505Z" fill="white"/>
<path d="M92.7318 27.9506C92.8736 25.4045 93.2169 23.7196 93.9185 22.1845C94.0722 21.7965 94.2648 21.4252 94.4932 21.0762C94.5305 21.0762 94.4111 21.5255 94.2245 22.0721C93.717 23.5698 93.6274 25.6067 93.9856 27.9805C94.4335 30.9909 94.6798 31.4252 97.8667 34.6752C99.3669 36.2028 101.106 38.1199 101.74 38.9511L102.89 40.4488L101.74 39.3779C100.337 38.0674 97.1129 35.5064 96.3964 35.1395C95.9187 34.8998 95.8441 34.8998 95.553 35.1919C95.2768 35.4615 95.2246 35.8658 95.1798 37.7829C95.1276 40.7708 94.7171 42.6878 93.7319 44.5973C93.202 45.6457 93.1199 45.4211 93.5975 44.2454C93.9558 43.3767 93.9931 42.9873 93.9931 40.0968C93.9931 34.2933 93.2915 32.8929 89.2388 30.5116C88.0164 29.8032 86.7611 29.1535 85.4772 28.5646C84.8446 28.3095 84.231 28.0092 83.6412 27.666C83.7531 27.5537 87.7088 28.7069 89.2985 29.3135C91.672 30.227 92.0601 30.3394 92.3511 30.2345C92.5377 30.1596 92.6347 29.598 92.7243 27.9506H92.7318ZM45.4651 37.8877C42.6214 33.9787 40.8526 27.9805 41.2407 23.4949L41.3526 22.1096L42.002 22.2219C43.226 22.4466 45.3233 23.2254 46.3084 23.8244C49.0028 25.4569 50.1746 27.6061 51.3613 33.1326C51.7121 34.7501 52.1673 36.5772 52.3763 37.2063C52.7122 38.2022 53.9959 40.5311 55.0333 42.0438C55.7797 43.1371 55.2871 43.6538 53.6302 43.504C51.1001 43.2794 47.6743 40.9205 45.4651 37.8877V37.8877ZM89.2687 66.9953C75.9537 61.656 71.2666 57.0132 71.2666 49.1878C71.2666 48.0345 71.3039 47.091 71.3561 47.091C71.4009 47.091 71.9159 47.4654 72.4981 47.9372C75.1999 50.0939 78.2226 51.0149 86.5967 52.2356C91.5227 52.9544 94.2842 53.5311 96.8442 54.3772C104.979 57.0656 110.002 62.5172 111.204 69.9532C111.547 72.1099 111.353 76.1536 110.779 78.2878C110.331 79.9727 108.972 83.0055 108.614 83.1254C108.51 83.1628 108.413 82.7809 108.39 82.2567C108.256 79.471 106.838 76.7527 104.464 74.7158C101.763 72.4019 98.1354 70.5598 89.2687 67.0027V66.9953ZM79.9243 69.2193C79.7679 68.271 79.5535 67.3331 79.2824 66.4112L78.9391 65.4002L79.5735 66.1116C80.4468 67.0851 81.1409 68.3357 81.723 70.0056C82.1708 71.2786 82.2156 71.6531 82.2156 73.7199C82.2156 75.7492 82.1559 76.1761 81.738 77.3143C81.1644 79.0023 80.2031 80.5312 78.9317 81.7774C76.4985 84.2486 73.3713 85.6115 68.8559 86.1806C68.0722 86.278 65.7883 86.4427 63.7806 86.5476C58.7129 86.8097 55.3767 87.3563 52.3838 88.4047C52.1124 88.5243 51.8215 88.5928 51.5255 88.6069C51.4061 88.4871 53.4511 87.2739 55.1304 86.4652C57.5038 85.3195 59.8697 84.6979 65.1689 83.8218C67.7811 83.3875 70.4904 82.8558 71.177 82.6461C77.6554 80.6691 80.9916 75.5545 79.9243 69.2193V69.2193Z" fill="white"/>
<path d="M86.0301 80.0322C84.2613 76.243 83.8508 72.5812 84.821 69.1665C84.9255 68.792 85.0897 68.5 85.1942 68.5C85.2913 68.5 85.7167 68.7247 86.1197 69.0017C86.9407 69.5484 88.5678 70.4695 92.9265 72.8358C98.3599 75.7937 101.465 78.0777 103.57 80.6987C105.413 82.9826 106.555 85.5961 107.107 88.7712C107.421 90.5684 107.234 94.9117 106.771 96.7239C105.309 102.445 101.92 106.938 97.0687 109.559C96.3597 109.941 95.7253 110.256 95.6507 110.256C95.5835 110.256 95.8447 109.604 96.2254 108.803C97.8599 105.403 98.0465 102.101 96.815 98.4238C96.0537 96.1698 94.5162 93.4215 91.4114 88.7712C87.799 83.3795 86.9183 81.9343 86.0301 80.0322V80.0322ZM36.0094 100.498C40.9577 96.3345 47.1002 93.3841 52.7054 92.4705C55.5924 92.0991 58.5209 92.2129 61.3705 92.8075C64.9531 93.7211 68.1624 95.7729 69.8268 98.2066C71.4538 100.595 72.1554 102.67 72.8868 107.298C73.1704 109.117 73.4839 110.952 73.5735 111.364C74.1183 113.76 75.1856 115.677 76.4992 116.636C78.589 118.163 82.2013 118.261 85.7465 116.883C86.1147 116.712 86.5037 116.592 86.9034 116.523C87.0303 116.651 85.2465 117.841 83.9926 118.47C82.505 119.264 80.8409 119.666 79.1562 119.639C75.9096 119.639 73.2152 117.991 70.9612 114.636C70.1346 113.216 69.3968 111.745 68.752 110.233C66.3786 104.834 65.2068 103.194 62.4528 101.389C60.0495 99.8166 56.9521 99.5396 54.6235 100.678C51.5634 102.175 50.7126 106.069 52.9069 108.541C53.9319 109.603 55.273 110.302 56.7282 110.533C57.3062 110.612 57.8945 110.566 58.4531 110.397C59.0117 110.228 59.5276 109.941 59.9658 109.555C60.404 109.168 60.7543 108.692 60.9928 108.158C61.2313 107.624 61.3525 107.044 61.3482 106.459C61.3482 104.834 60.7212 103.913 59.1464 103.194C56.9894 102.228 54.6832 103.359 54.6907 105.373C54.6907 106.234 55.0713 106.773 55.9371 107.17C56.4894 107.417 56.5043 107.432 56.049 107.343C54.0787 106.931 53.6159 104.557 55.1982 102.984C57.1089 101.097 61.0496 101.928 62.4005 104.512C62.9678 105.598 63.0349 107.754 62.5423 109.057C61.4228 111.978 58.1985 113.513 54.9146 112.674C52.6755 112.105 51.7724 111.491 49.0781 108.728C44.3984 103.92 42.5848 102.984 35.8377 101.936L34.5391 101.734L36.0094 100.498V100.498Z" fill="white"/>
<path fill-rule="evenodd" clip-rule="evenodd" d="M14.0537 14.4556C29.6824 33.3714 40.4523 41.1744 41.6464 42.8218C42.6316 44.1847 42.2584 45.4128 40.5717 46.3713C39.3722 46.976 38.0665 47.3398 36.7279 47.4422C35.6308 47.4422 35.2502 47.0228 35.2502 47.0228C34.6158 46.4238 34.2575 46.5286 30.9959 40.755C28.223 36.4249 25.4166 32.1164 22.577 27.83C22.3382 27.6053 22.3457 27.6053 30.5407 42.2302C31.8617 45.278 30.8019 46.3938 30.8019 46.8281C30.8019 47.7118 30.5556 48.1761 29.4659 49.3967C27.6448 51.4186 26.8313 53.695 26.2417 58.4053C25.5849 63.6846 23.7339 67.4139 18.599 73.8015C15.5986 77.5382 15.106 78.2197 14.3447 79.7323C13.3894 81.6269 13.1282 82.6903 13.0237 85.0791C12.9117 87.6176 13.1282 89.2501 13.9044 91.6689C14.5761 93.7956 15.2926 95.1885 17.1063 97.9891C18.6736 100.408 19.5692 102.205 19.5692 102.909C19.5692 103.463 19.6737 103.463 22.1068 102.917C27.8986 101.614 32.6081 99.3221 35.2576 96.4989C36.8996 94.7541 37.2803 93.7956 37.2952 91.4068C37.3026 89.8492 37.2504 89.5197 36.825 88.6211C36.1383 87.1609 34.8845 85.9402 32.1229 84.0532C28.4956 81.582 26.9432 79.5975 26.5253 76.8643C26.167 74.6177 26.5775 73.0377 28.5777 68.8516C30.6526 64.5083 31.1676 62.6587 31.5184 58.2929C31.7423 55.4698 32.0483 54.354 32.8618 53.4554C33.7127 52.5268 34.474 52.2123 36.5787 51.9278C40.0045 51.456 42.1763 50.5798 43.9676 48.9324C44.6856 48.3378 45.2649 47.5924 45.6647 46.7489C46.0644 45.9053 46.2749 44.984 46.2813 44.0499L46.3559 42.4774L45.4827 41.4739C42.3405 37.8196 11.9489 11.5801 11.7549 11.5801C11.7176 11.5801 12.7475 12.8756 14.0537 14.4556ZM21.3381 87.9546C21.6805 87.3479 21.7823 86.6339 21.6232 85.9552C21.4641 85.2764 21.0558 84.6828 20.4798 84.2928C19.3603 83.5439 17.6063 83.9034 17.6063 84.8694C17.6063 85.1689 17.7705 85.3861 18.1437 85.5733C18.7706 85.8953 18.8154 86.2548 18.3228 86.9961C17.8228 87.7375 17.8675 88.389 18.4348 88.8383C19.3528 89.5497 20.6514 89.1603 21.3381 87.9546V87.9546ZM48.5129 52.759C46.9082 53.2457 45.3484 54.9456 44.8558 56.7279C44.5647 57.8137 44.7363 59.7232 45.1767 60.3073C45.8932 61.2584 46.5798 61.5055 48.4532 61.498C52.1103 61.4755 55.2898 59.9104 55.663 57.9485C55.9615 56.3459 54.5659 54.1294 52.6403 53.1484C51.3322 52.6155 49.897 52.4801 48.5129 52.759V52.759ZM52.797 56.0913C53.3568 55.2901 53.1105 54.4289 52.1477 53.8448C50.3266 52.729 47.5576 53.6501 47.5576 55.3724C47.5576 56.2336 48.998 57.1697 50.3191 57.1697C51.1998 57.1697 52.4089 56.6455 52.797 56.0913Z" fill="white"/>
</g>
<defs>
<clipPath id="clip0_1002_505">
<rect width="104.49" height="112.327" fill="white" transform="translate(11.7539 7.83594)"/>
</clipPath>
</defs>
</svg>
