<svg width="256" height="256" viewBox="0 0 256 256" fill="none" xmlns="http://www.w3.org/2000/svg">
<g clip-path="url(#clip0_1239_2)">
<rect width="256" height="256" fill="white"/>
<mask id="mask0_1239_2" style="mask-type:luminance" maskUnits="userSpaceOnUse" x="45" y="46" width="166" height="163">
<path d="M211 46.8599H45.7329V208.145H211V46.8599Z" fill="white"/>
</mask>
<g mask="url(#mask0_1239_2)">
<path d="M196.793 171.432C196.689 171.512 196.584 171.597 196.475 171.671C196.37 171.751 196.261 171.826 196.151 171.905C195.947 172.05 195.738 172.189 195.524 172.324C195.499 172.338 195.474 172.353 195.449 172.373C195.275 172.483 195.101 172.592 194.922 172.697C194.658 172.856 194.399 173.005 194.13 173.155C192.308 174.17 190.392 174.987 188.435 175.708C186.588 176.385 184.717 176.978 182.83 177.506C180.127 178.262 177.389 178.889 174.626 179.437C171.943 179.975 169.25 180.428 166.547 180.821C163.844 181.214 161.131 181.543 158.413 181.826C157.522 181.921 156.631 182.006 155.74 182.09C153.953 182.254 152.166 182.394 150.379 182.513C149.483 182.573 148.587 182.628 147.696 182.678C145.69 182.792 143.684 182.877 141.678 182.941C141.314 182.951 140.951 182.966 140.582 182.976C140.249 182.986 139.915 182.996 139.577 183.006C140.398 181.991 141.22 180.98 141.971 179.91C142.081 179.775 142.19 179.641 142.295 179.502C143.992 177.222 145.615 174.892 147.168 172.518C147.328 172.508 147.487 172.503 147.641 172.493C148.627 172.438 149.612 172.373 150.598 172.309C151.345 172.259 152.091 172.204 152.838 172.144C158.06 171.741 163.262 171.164 168.439 170.352C169.947 170.118 171.446 169.859 172.939 169.586C176.433 168.939 179.898 168.162 183.313 167.186C184.065 166.972 184.811 166.748 185.558 166.514C185.931 166.395 186.305 166.275 186.678 166.151C187.241 166.25 187.753 166.484 188.281 166.679C188.744 166.848 189.207 167.027 189.67 167.211C190.979 167.729 192.263 168.301 193.508 168.963C194.001 169.222 194.483 169.496 194.961 169.785C195.594 170.168 196.211 170.571 196.788 171.034C196.957 171.169 197.007 171.223 196.943 171.303C196.913 171.343 196.863 171.383 196.783 171.442L196.793 171.432Z" fill="#F1ECE2"/>
<path d="M148.398 195.481C148.293 195.546 148.179 195.546 148.069 195.506C148.099 195.486 148.124 195.476 148.149 195.466C148.194 195.451 148.233 195.451 148.278 195.451C148.318 195.451 148.363 195.461 148.403 195.481H148.398Z" fill="#5E93FF"/>
<path d="M147.954 195.506C147.82 195.566 147.686 195.571 147.541 195.531C147.676 195.451 147.815 195.461 147.954 195.506Z" fill="#5E93FF"/>
<path d="M147.427 195.531C147.292 195.591 147.158 195.596 147.014 195.556C147.148 195.472 147.282 195.482 147.427 195.531Z" fill="#5E93FF"/>
<path d="M146.899 195.556C146.765 195.621 146.631 195.621 146.491 195.576C146.491 195.576 146.501 195.576 146.506 195.571C146.636 195.506 146.77 195.506 146.899 195.556Z" fill="#5E93FF"/>
<path d="M146.093 195.551C146.182 195.531 146.277 195.541 146.372 195.576C146.237 195.64 146.098 195.64 145.958 195.6C146.003 195.576 146.048 195.561 146.093 195.551Z" fill="#5E93FF"/>
<path d="M145.63 195.561C145.699 195.561 145.769 195.576 145.844 195.595C145.709 195.655 145.575 195.66 145.436 195.615C145.5 195.576 145.565 195.561 145.63 195.556V195.561Z" fill="#5E93FF"/>
<path d="M145.217 195.596C145.252 195.601 145.281 195.611 145.311 195.621C145.182 195.681 145.042 195.686 144.903 195.646C144.998 195.586 145.097 195.576 145.197 195.596C145.197 195.596 145.202 195.596 145.207 195.596H145.212H145.217Z" fill="#5E93FF"/>
<path d="M144.784 195.646C144.624 195.715 144.46 195.71 144.296 195.666C144.455 195.591 144.619 195.596 144.784 195.646Z" fill="#5E93FF"/>
<path d="M144.176 195.666C144.042 195.736 143.907 195.726 143.768 195.686C143.897 195.611 144.037 195.611 144.176 195.666Z" fill="#5E93FF"/>
<path d="M179.102 163.891C179.166 163.901 179.241 163.901 179.311 163.911C179.4 163.921 179.49 163.946 179.56 164.021C179.375 164.006 179.196 163.966 179.037 163.876C179.047 163.876 179.062 163.876 179.072 163.881C179.082 163.881 179.092 163.881 179.107 163.886L179.102 163.891Z" fill="#5E93FF"/>
<path d="M103.288 207.797C103.303 207.827 103.318 207.857 103.327 207.882L100.55 207.892C100.565 207.862 100.58 207.832 100.595 207.802C100.819 207.802 101.043 207.802 101.267 207.802C101.939 207.802 102.611 207.802 103.283 207.802L103.288 207.797Z" fill="#3180F4"/>
<path d="M186.693 166.146C186.32 166.27 185.951 166.39 185.573 166.509C184.826 166.743 184.08 166.967 183.328 167.181C179.908 168.157 176.448 168.934 172.954 169.581C171.46 169.859 169.957 170.113 168.454 170.347C163.277 171.159 158.075 171.736 152.853 172.139C152.106 172.199 151.36 172.254 150.613 172.304C149.627 172.368 148.642 172.433 147.656 172.488C147.497 172.498 147.342 172.503 147.183 172.513C148.253 170.875 149.294 169.217 150.299 167.535C151.753 165.106 153.142 162.641 154.461 160.143C156.98 160.362 159.494 160.615 162.007 160.924C162.192 160.944 162.376 160.984 162.565 161.014C163.69 161.093 164.805 161.263 165.915 161.427C167.344 161.636 168.772 161.865 170.196 162.104C172.118 162.427 174.039 162.786 175.946 163.199C176.976 163.423 178.001 163.652 179.032 163.876C179.196 163.966 179.37 164 179.555 164.02C181.755 164.583 183.95 165.175 186.106 165.887C186.305 165.952 186.534 165.972 186.688 166.141L186.693 166.146Z" fill="#FDBF41"/>
<path d="M113.497 182.354C114.383 182.424 115.274 182.493 116.161 182.553C115.269 182.493 114.383 182.424 113.497 182.354Z" fill="#F1ECE2"/>
<path d="M85.0778 202.191C85.0081 202.191 84.9484 202.171 84.9036 202.117C84.9036 202.117 84.9135 202.117 84.9185 202.117C84.9285 202.117 84.9384 202.117 84.9484 202.117C84.9583 202.117 84.9633 202.122 84.9733 202.122C84.9782 202.122 84.9882 202.122 84.9932 202.127C85.0031 202.127 85.0131 202.137 85.023 202.142C85.023 202.142 85.033 202.142 85.038 202.147C85.0479 202.157 85.0579 202.166 85.0678 202.176C85.0678 202.176 85.0678 202.176 85.0728 202.176L85.0778 202.191Z" fill="#404A5A"/>
<path d="M84.904 202.117C84.8343 202.117 84.7696 202.102 84.7297 202.037C84.7297 202.037 84.7646 202.037 84.7795 202.037H84.7845C84.8293 202.047 84.8691 202.067 84.899 202.112C84.899 202.112 84.899 202.112 84.899 202.117H84.904Z" fill="#404A5A"/>
<path d="M84.7299 202.037C84.6552 202.037 84.5855 202.032 84.5557 201.952C84.5557 201.952 84.5557 201.952 84.5557 201.947H84.5606C84.6303 201.947 84.695 201.962 84.7299 202.032V202.037Z" fill="#404A5A"/>
<path d="M84.5555 201.943V201.953C84.4858 201.953 84.4111 201.963 84.3862 201.868V201.858C84.4609 201.848 84.5256 201.863 84.5605 201.943H84.5555Z" fill="#404A5A"/>
<path d="M83.8737 201.51C83.9235 201.545 83.9832 201.569 84.0379 201.594C84.0778 201.614 84.1176 201.629 84.1574 201.649C84.2271 201.684 84.2918 201.729 84.3366 201.793C84.3516 201.813 84.3665 201.843 84.3814 201.873C84.1475 201.853 83.9434 201.759 83.7642 201.609L83.8737 201.51Z" fill="#404A5A"/>
<path d="M99.838 194.008C99.6438 194.038 99.4497 194.068 99.2605 194.098C98.5138 194.197 97.7671 194.257 97.0155 194.277C96.7666 194.282 96.5127 194.287 96.2638 194.282C96.0099 194.282 95.761 194.272 95.5072 194.262C95.3976 194.257 95.2931 194.242 95.1836 194.232C95.0791 194.222 94.9695 194.207 94.86 194.197C94.7206 194.187 94.6161 194.128 94.5116 194.038C94.2129 193.769 93.9292 193.49 93.6504 193.202C95.7113 193.5 97.7721 193.769 99.838 194.013V194.008Z" fill="#F1ECE2"/>
<path d="M132.264 159.207C130.781 159.207 129.297 159.226 127.814 159.251C125.345 163.079 122.682 166.773 119.774 170.282C119.162 171.019 118.545 171.746 117.913 172.463C116.32 174.28 114.657 176.032 112.915 177.705C111.387 179.168 109.809 180.567 108.161 181.881C106.877 182.911 105.548 183.892 104.169 184.803C101.63 186.486 98.9667 187.934 96.0994 188.989C94.6459 189.522 93.1625 189.955 91.6293 190.209C91.5446 190.224 91.465 190.259 91.3804 190.284C91.3853 190.309 91.3953 190.339 91.4003 190.363C91.4053 190.378 91.4102 190.393 91.4202 190.408C91.5297 190.577 91.6392 190.742 91.7537 190.901C91.9827 191.23 92.2216 191.548 92.4656 191.857C92.8339 192.32 93.2272 192.768 93.6404 193.196C95.7012 193.495 97.7621 193.763 99.8279 194.007C100.38 193.923 100.928 193.813 101.471 193.684C102.73 193.385 103.955 192.992 105.154 192.529C105.752 192.295 106.344 192.046 106.926 191.777C107.509 191.508 108.086 191.225 108.659 190.921C108.908 190.791 109.152 190.657 109.4 190.523C111.113 189.582 112.756 188.527 114.329 187.392C115.907 186.252 117.42 185.027 118.888 183.743C119.097 183.559 119.307 183.374 119.516 183.185C119.67 183.046 119.819 182.906 119.979 182.762C120.919 181.901 121.845 181.015 122.746 180.109C123.095 179.755 123.438 179.402 123.782 179.039C124.912 177.854 126.012 176.644 127.082 175.405C127.724 174.663 128.351 173.906 128.969 173.145C129.043 173.055 129.118 172.961 129.193 172.866C129.616 172.338 130.034 171.806 130.452 171.268C131.761 169.576 133.021 167.848 134.235 166.086C134.892 165.13 135.535 164.17 136.167 163.199C136.52 162.651 136.869 162.104 137.212 161.556C137.685 160.804 138.148 160.043 138.606 159.281C136.49 159.231 134.38 159.207 132.264 159.207Z" fill="#F1ECE2"/>
<path d="M75.7944 198.05C75.7247 198.065 75.6699 198.045 75.645 197.97C75.7197 197.956 75.7744 197.97 75.7944 198.05Z" fill="#C18B00"/>
<path d="M119.69 159.515C118.63 159.565 117.569 159.625 116.514 159.689C115.354 161.332 114.155 162.95 112.9 164.528C111.671 166.081 110.411 167.604 109.087 169.083C108.335 169.919 107.579 170.75 106.802 171.567C106.255 172.144 105.697 172.717 105.125 173.274C102.85 175.499 100.465 177.6 97.9016 179.497C97.4735 179.81 97.0454 180.119 96.6074 180.422C95.1688 181.423 93.6804 182.349 92.1322 183.18C91.0122 183.788 89.8573 184.325 88.6875 184.818C88.6975 184.873 88.6875 184.933 88.7124 184.987C88.8767 185.44 89.0509 185.883 89.2401 186.326C89.4242 186.769 89.6234 187.202 89.8324 187.631C90.2506 188.487 90.7185 189.323 91.2262 190.139L91.2362 190.149C91.271 190.199 91.3308 190.244 91.3756 190.289C91.4602 190.264 91.5399 190.229 91.6245 190.214C93.1527 189.96 94.6361 189.527 96.0947 188.994C98.9619 187.944 101.625 186.491 104.164 184.808C105.543 183.897 106.872 182.916 108.156 181.886C109.804 180.567 111.382 179.168 112.91 177.71C114.657 176.037 116.315 174.285 117.908 172.468C118.54 171.751 119.157 171.024 119.77 170.287C122.677 166.778 125.34 163.084 127.809 159.256C125.101 159.306 122.388 159.386 119.685 159.52L119.69 159.515Z" fill="#FDBF41"/>
<path d="M173.227 118.652C173.227 118.652 173.192 118.647 173.178 118.647C173.192 118.647 173.207 118.647 173.227 118.652Z" fill="#E7AA24"/>
<path d="M172.934 118.766C173.018 118.766 173.113 118.766 173.058 118.632C173.098 118.632 173.138 118.642 173.183 118.647C173.158 118.647 173.138 118.652 173.123 118.662C173.088 118.687 173.088 118.741 173.098 118.806C173.043 118.806 172.989 118.801 172.934 118.796C172.904 118.796 172.869 118.791 172.839 118.786C172.775 118.781 172.705 118.771 172.64 118.766C172.491 118.746 172.336 118.716 172.192 118.682C172.446 118.667 172.69 118.756 172.939 118.771L172.934 118.766Z" fill="#E7AA24"/>
<path d="M95.7011 170.078C95.8106 170.098 95.9151 170.113 96.0196 170.133C93.9439 172.139 91.7635 174.021 89.4388 175.743C88.5926 176.371 87.7463 176.998 86.8304 177.53C86.6611 176.799 86.5865 176.052 86.5018 175.305C86.2131 172.926 86.1036 170.536 86.0986 168.147C86.6761 168.286 87.2535 168.421 87.8359 168.555C89.5334 168.943 91.2359 169.287 92.9433 169.601C93.8642 169.77 94.7851 169.929 95.706 170.083L95.7011 170.078Z" fill="#F1ECE2"/>
<path d="M105.204 160.655C104.96 160.685 104.711 160.705 104.462 160.73C102.013 163.846 99.3998 166.818 96.5624 169.601C96.3832 169.78 96.199 169.954 96.0198 170.128C96.1044 170.143 96.1891 170.158 96.2687 170.173C96.1841 170.158 96.1044 170.143 96.0198 170.133C93.9445 172.14 91.7642 174.021 89.4395 175.744C88.5932 176.371 87.747 176.998 86.8311 177.531C86.841 177.63 86.846 177.735 86.8559 177.834C86.8559 177.864 86.8559 177.889 86.8659 177.919C86.8858 178.033 86.9107 178.148 86.9306 178.262C86.9455 178.357 86.9605 178.447 86.9804 178.541C87.0252 178.77 87.07 179.004 87.1148 179.238C87.3786 180.552 87.6922 181.851 88.0855 183.131C88.2647 183.703 88.4091 184.291 88.6978 184.828C89.8676 184.335 91.0225 183.798 92.1425 183.191C93.6906 182.354 95.179 181.428 96.6172 180.433C97.0552 180.134 97.4833 179.825 97.9114 179.507C100.475 177.615 102.859 175.51 105.134 173.284C105.707 172.727 106.259 172.154 106.812 171.577C107.589 170.761 108.345 169.929 109.097 169.093C110.416 167.615 111.68 166.091 112.91 164.538C114.159 162.955 115.364 161.342 116.524 159.7C112.751 159.929 108.982 160.247 105.219 160.665L105.204 160.655Z" fill="#FF1100"/>
<path d="M96.2687 170.173C96.184 170.158 96.1044 170.143 96.0198 170.133C96.1044 170.148 96.189 170.163 96.2687 170.173Z" fill="#F1ECE2"/>
<path d="M96.02 170.129C95.9155 170.114 95.806 170.094 95.7014 170.074L96.02 170.124V170.129Z" fill="#FF1100"/>
<path d="M92.9385 169.596C93.8594 169.765 94.7803 169.924 95.7012 170.079C94.7803 169.924 93.8544 169.765 92.9385 169.596Z" fill="#FF1100"/>
<path d="M102.845 160.964C103.377 160.849 103.92 160.79 104.463 160.735C102.013 163.851 99.4 166.823 96.5626 169.606C96.3834 169.785 96.1992 169.959 96.02 170.133L95.7014 170.083C94.7805 169.929 93.8596 169.77 92.9386 169.601C91.2312 169.287 89.5238 168.943 87.8313 168.555C87.2539 168.421 86.6714 168.286 86.094 168.147C86.094 167.246 86.1039 166.34 86.1288 165.434C86.1438 164.896 86.1687 164.364 86.1985 163.831C88.1648 163.363 90.146 162.95 92.1322 162.572C95.5272 161.93 98.942 161.407 102.367 160.984C102.422 160.979 102.476 160.969 102.531 160.964C102.596 160.954 102.661 160.949 102.725 160.954C102.765 160.954 102.805 160.964 102.845 160.974V160.964Z" fill="#FDBF41"/>
<path d="M163.401 117.457C165.382 117.701 167.369 117.94 169.35 118.184C169.34 118.204 169.325 118.224 169.305 118.244C168.075 118.094 166.841 117.95 165.611 117.791C165.253 117.746 164.895 117.716 164.536 117.676C164.178 117.636 163.819 117.596 163.466 117.527C163.446 117.502 163.426 117.482 163.401 117.462V117.457Z" fill="#007FFF"/>
<path d="M153.694 123.615C153.769 123.336 153.839 123.047 153.913 122.769C153.844 123.052 153.769 123.336 153.694 123.615Z" fill="#F1ECE2"/>
<path d="M210.642 163.434C210.642 160.706 210.642 157.983 210.642 155.255C210.467 154.493 210.228 153.751 209.805 153.084C209.123 152.009 208.312 151.048 207.296 150.262C206.236 149.441 205.151 148.669 203.981 148.012C202.373 147.111 200.701 146.349 199.023 145.598C198.724 145.463 198.416 145.399 198.117 145.279C194.324 143.796 190.421 142.681 186.469 141.72C183.94 141.103 181.391 140.575 178.833 140.097C175.96 139.559 173.073 139.096 170.181 138.698C168.185 138.424 166.189 138.176 164.188 137.952C163.296 137.852 162.405 137.757 161.514 137.668C158.996 137.424 156.472 137.195 153.948 137.016C152.46 136.906 150.966 136.812 149.478 136.727C148.213 136.657 146.944 136.593 145.675 136.533C143.678 136.443 141.687 136.374 139.691 136.329C139.547 136.329 139.402 136.319 139.258 136.319C136.107 136.249 132.951 136.229 129.8 136.259C129.75 136.259 129.7 136.259 129.646 136.259C126.4 136.289 123.154 136.364 119.914 136.498C119.72 136.503 119.526 136.518 119.331 136.523C115.493 136.687 111.665 136.926 107.837 137.25C102.217 137.723 96.6171 138.365 91.0468 139.241C90.9124 139.261 90.783 139.286 90.6486 139.306C90.4346 140.062 90.2404 140.829 89.9716 141.57C89.7824 142.327 89.5933 143.084 89.3992 143.835C88.8864 145.842 88.4235 147.858 88.0203 149.889C88.304 149.839 88.5878 149.794 88.8715 149.744C89.2448 149.68 89.6182 149.62 89.9865 149.555C90.5391 149.465 91.0916 149.376 91.6442 149.286C93.6403 148.978 95.6464 148.699 97.6476 148.445C99.6537 148.191 101.66 147.967 103.671 147.768C105.01 147.634 106.354 147.509 107.698 147.395C109.729 147.225 111.765 147.081 113.801 146.952C115.717 146.832 117.634 146.738 119.55 146.658C120.043 146.638 120.536 146.613 121.029 146.593C121.761 146.563 122.497 146.543 123.229 146.519C123.702 146.504 124.175 146.494 124.653 146.484C126.38 146.439 128.108 146.414 129.835 146.399C130.487 146.399 131.134 146.389 131.786 146.389C132.901 146.389 134.016 146.389 135.126 146.399C135.53 146.399 135.933 146.404 136.336 146.414C136.769 146.419 137.202 146.424 137.635 146.429C138.815 146.449 139.99 146.479 141.17 146.514C142.349 146.548 143.524 146.593 144.704 146.638C144.898 146.643 145.092 146.658 145.286 146.663C146.551 146.718 147.815 146.782 149.075 146.847C150.045 146.902 151.016 146.962 151.987 147.021C153.44 147.116 154.899 147.22 156.352 147.34C157.691 147.449 159.03 147.574 160.374 147.708C160.419 147.708 160.469 147.718 160.514 147.723C161.475 147.818 162.435 147.912 163.396 148.012C164.934 148.166 166.472 148.35 168.011 148.555C169.544 148.759 171.077 148.978 172.61 149.207C173.247 149.301 173.885 149.401 174.517 149.5C176.423 149.809 178.325 150.147 180.216 150.521C181.332 150.74 182.442 150.969 183.552 151.208C184.662 151.447 185.767 151.706 186.872 151.974C188.55 152.388 190.217 152.831 191.865 153.313C194.065 153.961 196.245 154.687 198.381 155.539C198.919 155.748 199.446 155.972 199.979 156.196C200.785 156.544 201.577 156.927 202.363 157.316C202.557 157.41 202.752 157.505 202.946 157.604C203.095 157.679 203.249 157.754 203.399 157.828C203.598 157.928 203.797 158.028 203.991 158.137C204.24 158.271 204.484 158.416 204.713 158.575C205.599 159.187 206.51 159.765 207.331 160.462C207.52 160.626 207.705 160.79 207.884 160.965C208.098 161.144 208.302 161.338 208.496 161.532C208.82 161.856 209.118 162.204 209.382 162.567C209.512 162.747 209.631 162.931 209.746 163.12C209.845 163.284 209.935 163.448 210.019 163.618C210.104 163.787 210.184 163.961 210.253 164.145C210.328 164.325 210.393 164.509 210.452 164.693C210.492 164.822 210.537 164.957 210.577 165.086C210.577 165.086 210.577 165.096 210.582 165.101V165.086C210.686 164.534 210.622 163.976 210.627 163.419L210.642 163.434Z" fill="#F1ECE2"/>
<path d="M210.676 154.174C210.681 152.109 210.681 150.048 210.676 147.982C210.676 147.031 210.666 146.075 210.661 145.125C210.497 144.587 210.383 144.034 210.139 143.522C209.517 142.232 208.586 141.197 207.51 140.271C206.336 139.256 205.036 138.414 203.672 137.673C201.696 136.587 199.645 135.662 197.53 134.88C195.081 133.974 192.597 133.173 190.078 132.486C188.151 131.963 186.215 131.48 184.273 131.037C182.058 130.534 179.833 130.091 177.598 129.698C175.278 129.295 172.949 128.906 170.614 128.583C169.509 128.429 168.399 128.284 167.289 128.145C164.81 127.826 162.326 127.547 159.837 127.328C159.374 127.284 158.916 127.219 158.453 127.184C156.571 127.04 154.69 126.9 152.813 126.766C152.544 126.746 152.275 126.726 152.007 126.706C150.752 126.617 149.498 126.527 148.243 126.462C146.61 126.383 144.978 126.323 143.345 126.263C143.33 126.263 143.315 126.263 143.3 126.263C141.593 126.203 139.89 126.139 138.183 126.109C136.68 126.084 135.176 126.069 133.668 126.064C133.006 126.064 132.344 126.059 131.677 126.059C129.038 126.059 126.405 126.099 123.772 126.174C123.732 126.174 123.697 126.174 123.657 126.174C120.566 126.263 117.47 126.388 114.383 126.587C112.009 126.736 109.634 126.87 107.265 127.07C106.304 127.149 105.348 127.269 104.393 127.363C101.052 127.697 97.7223 128.085 94.402 128.553C94.3622 128.558 94.3273 128.563 94.2875 128.568C92.9584 132.008 91.7637 135.492 90.7133 139.032C90.6884 139.121 90.6636 139.206 90.6387 139.295C90.7681 139.275 90.9025 139.251 91.0369 139.231C96.6072 138.355 102.207 137.707 107.827 137.24C111.655 136.921 115.484 136.677 119.321 136.513C119.516 136.503 119.71 136.493 119.904 136.488C123.145 136.353 126.39 136.279 129.636 136.249C129.686 136.249 129.74 136.249 129.79 136.249C132.946 136.224 136.097 136.244 139.248 136.309C139.392 136.309 139.537 136.319 139.681 136.319C141.677 136.363 143.669 136.433 145.665 136.523C146.934 136.582 148.198 136.647 149.468 136.717C150.956 136.801 152.45 136.896 153.938 137.006C156.462 137.19 158.986 137.414 161.504 137.658C162.396 137.747 163.287 137.842 164.178 137.941C166.179 138.165 168.175 138.414 170.171 138.688C173.063 139.086 175.95 139.549 178.823 140.087C181.381 140.565 183.93 141.092 186.459 141.71C190.411 142.67 194.314 143.785 198.107 145.269C198.406 145.388 198.714 145.453 199.013 145.587C200.691 146.344 202.363 147.101 203.971 148.002C205.141 148.659 206.226 149.43 207.286 150.252C208.302 151.038 209.113 151.999 209.795 153.074C210.218 153.741 210.452 154.483 210.632 155.245C210.701 154.886 210.661 154.523 210.661 154.164L210.676 154.174Z" fill="#FDBF41"/>
<path d="M152.151 76.1352C153.525 78.2807 154.52 80.6004 155.272 83.0296C155.506 83.7813 155.715 84.538 155.904 85.2996C156.218 86.5689 156.462 87.8582 156.656 89.1525C156.711 89.5308 156.765 89.9091 156.815 90.2924C156.91 91.0541 156.994 91.8157 157.064 92.5773C157.094 92.9606 157.124 93.3389 157.154 93.7222C157.293 95.803 157.353 97.8838 157.298 99.9695C157.238 102.15 157.109 104.33 156.89 106.506C156.671 108.666 156.372 110.816 156.014 112.952C155.8 114.236 155.561 115.516 155.302 116.785C153.241 116.621 151.18 116.481 149.114 116.382C148.124 116.337 147.128 116.282 146.133 116.232C146.805 113.345 147.372 110.438 147.815 107.501C148.303 104.251 148.651 100.99 148.781 97.7095C148.885 94.9219 148.87 92.1293 148.646 89.3417C148.457 87.017 148.144 84.7172 147.646 82.4373C147.083 79.8736 146.292 77.3847 145.157 75.0102C144.709 74.0694 144.181 73.1684 143.654 72.2723C144.087 72.133 144.54 72.118 144.983 72.0732C145.217 72.0483 145.451 72.0284 145.68 72.0135C145.879 72.0035 146.078 71.9936 146.277 71.9886C146.601 71.9836 146.924 71.9836 147.248 71.9886C147.472 71.9936 147.701 72.0035 147.925 72.0135C148.099 72.0234 148.273 72.0334 148.447 72.0483C148.477 72.0483 148.507 72.0533 148.532 72.0583C148.587 72.0682 148.636 72.0832 148.686 72.1031C148.736 72.123 148.781 72.1479 148.826 72.1778C148.89 72.2176 148.955 72.2723 149.015 72.3271C149.169 72.4665 149.318 72.6108 149.463 72.7552C149.757 73.0439 150.04 73.3476 150.309 73.6562C150.991 74.4278 151.603 75.2491 152.166 76.1253L152.151 76.1352Z" fill="#F1ECE2"/>
<path d="M147.631 82.4371C148.129 84.712 148.442 87.0168 148.632 89.3415C148.861 92.1291 148.876 94.9217 148.766 97.7094C148.642 100.99 148.293 104.25 147.8 107.501C147.357 110.438 146.79 113.35 146.118 116.232C145.366 116.197 144.609 116.158 143.858 116.128C142.135 116.063 140.418 116.023 138.696 115.988C138.053 115.973 137.411 115.963 136.774 115.953C137.401 113.589 137.954 111.205 138.427 108.805C138.785 107.008 139.094 105.201 139.368 103.389C139.547 102.175 139.706 100.96 139.846 99.7404C139.99 98.466 140.104 97.1867 140.184 95.9024C140.269 94.5335 140.323 93.1595 140.353 91.7906C140.388 89.9538 140.328 88.1219 140.194 86.29C140.104 85.0804 139.99 83.8757 139.836 82.6711C139.627 81.0234 139.328 79.3956 138.935 77.7827C138.621 76.4934 138.263 75.2091 137.785 73.9647C138.113 73.7556 138.492 73.6511 138.855 73.5166C139.592 73.2429 140.333 73.0039 141.09 72.7948C141.847 72.5908 142.608 72.4165 143.385 72.2871C143.44 72.2771 143.489 72.2622 143.544 72.2622C143.579 72.2622 143.609 72.2622 143.639 72.2722C144.166 73.1682 144.694 74.0642 145.142 75.01C146.277 77.3845 147.069 79.8735 147.631 82.4371Z" fill="#FDBF41"/>
<path d="M169.27 78.2152C169.27 78.2152 169.25 78.2004 169.25 78.1906C169.25 78.1857 169.25 78.1807 169.25 78.1709L169.275 78.1857L169.265 78.2102L169.27 78.2152Z" fill="#3180F4"/>
<path d="M210.632 174.913C210.637 174.783 210.647 174.654 210.647 174.524C210.647 172.394 210.652 170.258 210.652 168.128C210.652 167.207 210.637 166.286 210.632 165.365C210.632 165.31 210.657 165.25 210.652 165.196C210.637 165.161 210.617 165.136 210.602 165.106C210.602 165.106 210.602 165.111 210.602 165.116C210.602 165.111 210.602 165.106 210.597 165.101C210.557 164.967 210.512 164.837 210.472 164.703C210.413 164.514 210.343 164.329 210.273 164.155C210.204 163.976 210.124 163.802 210.039 163.628C209.955 163.458 209.86 163.289 209.765 163.13C209.651 162.941 209.532 162.756 209.402 162.577C209.138 162.209 208.845 161.865 208.516 161.542C208.322 161.348 208.118 161.158 207.904 160.974C207.725 160.795 207.54 160.631 207.351 160.472C206.53 159.775 205.619 159.197 204.733 158.585C204.499 158.426 204.255 158.281 204.011 158.147C203.817 158.042 203.618 157.938 203.419 157.838C203.269 157.764 203.115 157.689 202.966 157.614C202.772 157.515 202.577 157.42 202.383 157.325C201.597 156.937 200.805 156.554 199.999 156.205C199.466 155.981 198.939 155.757 198.401 155.548C196.26 154.702 194.085 153.97 191.885 153.323C190.232 152.835 188.565 152.392 186.892 151.984C185.787 151.715 184.682 151.457 183.572 151.218C182.462 150.979 181.351 150.75 180.236 150.531C178.34 150.157 176.438 149.814 174.537 149.51C173.9 149.411 173.267 149.311 172.63 149.216C171.097 148.987 169.569 148.768 168.031 148.564C166.497 148.36 164.959 148.176 163.416 148.022C162.455 147.927 161.495 147.828 160.534 147.733C160.489 147.733 160.439 147.723 160.394 147.718C159.055 147.584 157.716 147.459 156.372 147.35C154.919 147.23 153.46 147.131 152.007 147.031C151.036 146.966 150.065 146.907 149.095 146.857C147.83 146.787 146.566 146.723 145.306 146.673C145.112 146.663 144.918 146.653 144.724 146.648C143.544 146.598 142.369 146.558 141.19 146.523C140.01 146.489 138.835 146.459 137.655 146.439C137.222 146.434 136.789 146.429 136.356 146.424C135.953 146.419 135.55 146.414 135.146 146.409C134.031 146.399 132.916 146.394 131.806 146.399C131.154 146.399 130.502 146.404 129.855 146.409C128.127 146.424 126.4 146.449 124.673 146.494C124.2 146.503 123.727 146.518 123.249 146.528C122.517 146.548 121.781 146.573 121.049 146.603C120.556 146.623 120.063 146.648 119.57 146.668C117.654 146.747 115.737 146.847 113.821 146.961C111.785 147.091 109.749 147.23 107.718 147.404C106.374 147.519 105.03 147.643 103.691 147.778C101.68 147.977 99.6736 148.201 97.6675 148.455C95.6614 148.709 93.6603 148.987 91.6642 149.296C91.1116 149.381 90.5591 149.47 90.0065 149.565C89.6332 149.625 89.2648 149.689 88.8914 149.754C88.6077 149.804 88.324 149.849 88.0402 149.898C88.4434 147.867 88.9064 145.851 89.4191 143.845C89.6132 143.089 89.8024 142.337 89.9916 141.58C90.2604 140.839 90.4545 140.072 90.6686 139.315C90.6935 139.226 90.7183 139.141 90.7432 139.052C91.7936 135.512 92.9883 132.023 94.3174 128.588C95.1587 126.408 96.0547 124.247 97.0055 122.107C97.6426 120.673 98.3047 119.244 98.9867 117.836C101.242 113.171 103.746 108.636 106.523 104.251C109.117 100.139 111.939 96.1965 115.031 92.4432C115.095 92.3685 115.145 92.2789 115.205 92.1993C116.136 91.134 117.052 90.0588 118.002 89.0084C121.099 85.5786 124.434 82.4027 128.127 79.62C129.038 78.9331 129.979 78.286 130.91 77.6239C130.995 77.5642 131.099 77.5542 131.199 77.5492C131.244 77.4148 131.368 77.3551 131.473 77.2904C133.379 76.0708 135.36 74.9856 137.446 74.1095C137.521 74.0796 137.591 74.0398 137.67 74.0149C137.69 74.0099 137.715 74.0049 137.74 74C137.765 74 137.79 73.99 137.815 73.99C138.143 73.7809 138.521 73.6764 138.885 73.542C139.622 73.2682 140.363 73.0293 141.12 72.8202C141.877 72.6161 142.638 72.4419 143.415 72.3124C143.469 72.3025 143.519 72.2876 143.574 72.2876C143.609 72.2876 143.639 72.2876 143.669 72.2975C144.102 72.1581 144.555 72.1432 144.998 72.0984C145.232 72.0735 145.466 72.0536 145.695 72.0387C145.894 72.0287 146.093 72.0187 146.292 72.0138C146.616 72.0088 146.939 72.0088 147.263 72.0138C147.487 72.0187 147.716 72.0287 147.94 72.0387C148.114 72.0486 148.288 72.0586 148.462 72.0735C148.492 72.0735 148.522 72.0785 148.547 72.0835C148.602 72.0934 148.651 72.1083 148.701 72.1283C148.751 72.1482 148.796 72.1731 148.841 72.2029C148.905 72.2428 148.97 72.2975 149.03 72.3523C149.184 72.4916 149.333 72.636 149.478 72.7804C149.772 73.0691 150.055 73.3727 150.324 73.6814C151.006 74.4529 151.618 75.2743 152.181 76.1504C153.555 78.2959 154.55 80.6156 155.302 83.0449C155.536 83.7965 155.745 84.5532 155.934 85.3148C156.248 86.5842 156.492 87.8734 156.686 89.1677C156.741 89.546 156.795 89.9243 156.845 90.3076C156.94 91.0693 157.024 91.8309 157.094 92.5925C157.124 92.9758 157.154 93.3541 157.184 93.7374C157.323 95.8182 157.383 97.899 157.328 99.9847C157.268 102.165 157.139 104.345 156.92 106.521C156.701 108.681 156.402 110.832 156.044 112.967C155.83 114.251 155.591 115.531 155.332 116.8C155.665 116.825 155.999 116.85 156.332 116.88C158.727 117.079 161.116 117.318 163.506 117.537C163.486 117.512 163.466 117.492 163.441 117.472C165.422 117.716 167.408 117.955 169.39 118.199C169.38 118.219 169.365 118.239 169.345 118.259C169.464 118.274 169.584 118.294 169.703 118.308C170.101 116.347 170.46 114.386 170.763 112.41C171.032 110.638 171.271 108.86 171.455 107.078C171.63 105.411 171.784 103.743 171.864 102.066C171.903 101.259 171.948 100.448 171.998 99.6413C172.003 99.5367 171.948 99.3973 172.112 99.3525C172.112 97.8492 172.103 96.3409 172.098 94.8376C172.018 94.8027 172.013 94.733 172.003 94.6584C171.983 94.3547 171.948 94.056 171.938 93.7524C171.878 91.5671 171.679 89.3967 171.386 87.2363C171.062 84.8419 170.584 82.4823 169.922 80.1577C169.758 79.5752 169.619 78.9878 169.36 78.4353L169.305 78.2362C169.305 78.2362 169.285 78.2212 169.285 78.2113C169.285 78.2063 169.285 78.2013 169.285 78.1914C169.27 78.1217 169.26 78.052 169.235 77.9823C168.274 75.2096 167.02 72.5813 165.293 70.1918C163.63 67.8871 161.624 65.9606 159.15 64.527C158.224 63.9893 157.218 63.611 156.268 63.1282C156.183 63.0834 156.074 63.0933 155.974 63.0734C155.889 62.9639 155.755 62.934 155.64 62.8793C153.395 61.8837 151.155 60.8881 148.905 59.9025C148.617 59.773 148.353 59.5839 148.029 59.5441C147.974 59.5241 147.92 59.5092 147.865 59.4893C147.482 59.3649 147.088 59.2752 146.72 59.101C146.685 59.0911 146.655 59.0811 146.62 59.0662C146.606 59.0612 146.586 59.0562 146.571 59.0512C146.571 59.0512 146.566 59.0512 146.561 59.0512C146.521 59.0761 146.496 59.0562 146.471 59.0214C145.749 58.8372 145.028 58.6978 144.296 58.5983C143.768 58.5236 143.24 58.4688 142.708 58.439C142.529 58.429 142.354 58.424 142.175 58.419C141.643 58.4041 141.115 58.4091 140.587 58.434C139.885 58.4638 139.188 58.5286 138.492 58.6231C137.277 58.7924 136.072 59.0463 134.878 59.3748C134.708 59.4246 134.534 59.4694 134.365 59.5241C132.12 60.1912 129.979 61.0922 127.913 62.1575C127.226 62.5109 126.544 62.8842 125.867 63.2775C125.25 63.6309 124.643 63.9943 124.041 64.3776C123.841 64.5021 123.642 64.6315 123.443 64.7609C123.244 64.8903 123.045 65.0198 122.851 65.1542C122.458 65.418 122.069 65.6868 121.686 65.9656C121.497 66.105 121.303 66.2443 121.114 66.3837C121.114 66.3987 121.114 66.4086 121.114 66.4236C121.114 66.4335 121.104 66.4435 121.099 66.4534C121.084 66.4684 121.064 66.4733 121.034 66.4733H121.029C121.029 66.4733 121.029 66.4932 121.029 66.4982C121.029 66.5181 121.019 66.5281 121.009 66.5331C120.999 66.538 120.989 66.538 120.969 66.5331C120.964 66.5331 120.954 66.5331 120.949 66.5231C120.103 67.1155 119.282 67.7327 118.48 68.3749C118.122 68.6586 117.768 68.9523 117.42 69.246C117.365 69.2908 117.31 69.3406 117.256 69.3854C116.897 69.6891 116.539 69.9977 116.185 70.3113C116.185 70.3213 116.185 70.3262 116.185 70.3362C116.185 70.3611 116.175 70.376 116.161 70.391C116.161 70.391 116.151 70.3959 116.146 70.4009C116.136 70.4059 116.121 70.4109 116.106 70.4109C116.096 70.4308 116.081 70.4507 116.066 70.4656C116.046 70.4855 116.031 70.5055 116.006 70.5204C115.976 70.5403 115.942 70.5602 115.902 70.5652C115.902 70.61 115.892 70.6349 115.872 70.6448C115.842 70.6647 115.787 70.6498 115.747 70.6548C115.613 70.7942 115.474 70.9336 115.339 71.068C115.329 71.0779 115.324 71.0879 115.314 71.0928C115.314 71.0978 115.314 71.1078 115.314 71.1128C115.314 71.1327 115.304 71.1426 115.294 71.1576H115.289C115.289 71.1576 115.26 71.1725 115.23 71.1725C115.11 71.2721 114.981 71.3617 114.866 71.4662C114.856 71.4761 114.846 71.4811 114.836 71.4911C114.398 71.9043 113.955 72.3174 113.522 72.7405C113.492 72.7704 113.462 72.7953 113.438 72.8202C113.303 72.9546 113.164 73.079 113.024 73.2085C112.676 73.532 112.318 73.8456 111.984 74.1841C111.805 74.3683 111.621 74.5525 111.441 74.7317C110.406 75.7821 109.381 76.8424 108.39 77.9375C107.126 79.3363 105.896 80.76 104.701 82.2135C104.532 82.4226 104.358 82.6267 104.189 82.8358C104.164 82.8657 104.134 82.9005 104.114 82.9353C104.079 82.9851 104.044 83.0349 104.009 83.0897C103.965 83.1593 103.92 83.229 103.875 83.2938C103.84 83.3435 103.805 83.3883 103.765 83.4381C103.751 83.453 103.741 83.468 103.731 83.4779C103.676 83.5377 103.621 83.5924 103.556 83.6372C103.556 83.6522 103.551 83.6571 103.546 83.6671C103.546 83.6771 103.546 83.687 103.537 83.697C103.537 83.7019 103.527 83.7069 103.522 83.7119C103.512 83.7169 103.497 83.7219 103.487 83.7268C103.457 83.8662 103.342 83.9359 103.248 84.0255C103.243 84.0255 103.238 84.0355 103.233 84.0404C103.203 84.0653 103.183 84.0952 103.163 84.1251C103.153 84.14 103.143 84.1549 103.138 84.1748C103.133 84.1948 103.123 84.2097 103.118 84.2296C103.118 84.2396 103.118 84.2445 103.118 84.2545C103.118 84.2794 103.108 84.2943 103.089 84.3092C103.089 84.3092 103.079 84.3093 103.079 84.3142C103.074 84.3142 103.064 84.3142 103.059 84.3142C103.054 84.3142 103.049 84.3142 103.039 84.3142C102.82 84.588 102.596 84.8618 102.377 85.1356C102.367 85.1505 102.352 85.1654 102.342 85.1804C102.347 85.2152 102.347 85.2451 102.342 85.275C102.342 85.2999 102.327 85.3148 102.317 85.3347C102.317 85.3397 102.307 85.3496 102.307 85.3546C102.292 85.3695 102.272 85.3895 102.252 85.3994C102.227 85.4143 102.197 85.4243 102.168 85.4343C102.133 85.4741 102.098 85.5089 102.063 85.5488C102.048 85.5637 102.038 85.5786 102.028 85.5886C101.998 85.6184 101.973 85.6533 101.949 85.6832C101.386 86.4398 100.824 87.2014 100.261 87.9581C100.261 87.983 100.251 87.9979 100.236 88.0128C100.236 88.0128 100.231 88.0178 100.226 88.0228C100.216 88.0327 100.201 88.0377 100.186 88.0377C99.7981 88.5853 99.3999 89.1279 99.0166 89.6804C98.9419 89.7899 98.8672 89.8995 98.7925 90.009C98.2201 90.8502 97.6825 91.7164 97.105 92.5527C96.8163 92.9708 96.5425 93.3989 96.2687 93.8221C95.99 94.2452 95.7112 94.6683 95.4076 95.0815C94.9247 95.7435 94.5115 96.4653 94.0884 97.1672C93.9042 97.4709 93.72 97.7745 93.5408 98.0782C91.4949 101.473 89.5087 104.903 87.8162 108.492C87.7167 108.701 87.6022 108.895 87.4877 109.094C87.3732 109.288 87.2537 109.488 87.1542 109.687C86.5767 110.847 86.0142 112.011 85.4666 113.186C85.2625 113.624 85.0634 114.062 84.8593 114.505C84.5955 115.078 84.3366 115.655 84.0828 116.233C83.7592 116.964 83.4356 117.701 83.1171 118.443C82.9827 118.752 82.8532 119.065 82.7238 119.379C82.5595 119.767 82.3953 120.155 82.236 120.549C81.6685 121.927 81.1209 123.321 80.5883 124.715C80.4339 125.123 80.2796 125.531 80.1303 125.945C79.7669 126.94 79.4135 127.936 79.06 128.936C78.9754 129.175 78.8908 129.414 78.8062 129.653C78.7415 129.837 78.6767 130.027 78.617 130.216C78.4527 130.689 78.2984 131.166 78.1491 131.644C77.9649 132.227 77.7857 132.809 77.6065 133.392C77.4771 133.81 77.3476 134.223 77.2132 134.641C76.9096 135.572 76.5561 136.493 76.4367 137.474C76.4317 137.523 76.372 137.568 76.3421 137.613C76.1928 138.021 76.1032 138.439 76.0036 138.857C75.9538 139.056 75.8941 139.256 75.8343 139.455C75.7746 139.654 75.7149 139.853 75.6601 140.052C75.4311 140.908 75.2071 141.769 74.9981 142.631C74.8039 143.407 74.6197 144.194 74.4405 144.975C74.2414 145.856 74.0522 146.737 73.8681 147.619C73.7088 148.39 73.5545 149.167 73.4101 149.943C73.2956 150.56 73.1811 151.173 73.0766 151.79C72.982 152.333 72.8974 152.875 72.8078 153.418C72.6982 154.11 72.5937 154.797 72.4991 155.489C72.4145 156.111 72.3349 156.728 72.2552 157.35C72.0461 159.058 71.8769 160.765 71.7425 162.483C71.7076 162.975 71.6728 163.463 71.6479 163.956C71.618 164.449 71.5932 164.937 71.5732 165.43C71.5334 166.41 71.5035 167.396 71.4737 168.376C71.4687 168.6 71.4687 168.825 71.4637 169.049C71.4637 169.118 71.4637 169.183 71.4637 169.253C71.4587 170.512 71.5085 171.766 71.5483 173.016C71.5483 173.071 71.5583 173.13 71.5583 173.185C71.5683 173.409 71.5782 173.633 71.5931 173.857C71.6379 174.763 71.7126 175.669 71.8072 176.575C71.8719 177.187 71.9416 177.805 72.0213 178.417C72.0312 178.507 72.0461 178.591 72.0561 178.681C72.2253 179.925 72.4195 181.165 72.6634 182.394C73.1164 184.694 73.7187 186.954 74.5451 189.149C74.56 189.184 74.5749 189.224 74.5899 189.264C75.2071 190.887 75.9239 192.465 76.805 193.968C78.2536 196.442 80.0208 198.632 82.2758 200.38C82.5446 200.589 82.8184 200.788 83.0971 200.987C83.3659 201.171 83.6547 201.34 83.9334 201.51C83.9832 201.544 84.043 201.569 84.0977 201.594C84.1375 201.614 84.1774 201.629 84.2172 201.649C84.2869 201.684 84.3516 201.729 84.3964 201.793C84.4113 201.813 84.4262 201.843 84.4412 201.873V201.863C84.5158 201.853 84.5806 201.868 84.6154 201.948H84.6204C84.6901 201.948 84.7548 201.968 84.7896 202.032C84.8096 202.032 84.8245 202.032 84.8394 202.037H84.8444C84.8892 202.047 84.929 202.067 84.9589 202.112C84.9589 202.112 84.9589 202.112 84.9589 202.117C84.9589 202.117 84.9688 202.117 84.9738 202.117C84.9838 202.117 84.9937 202.117 85.0037 202.117C85.0136 202.117 85.0186 202.122 85.0336 202.122C85.0385 202.122 85.0485 202.122 85.0535 202.127C85.0634 202.127 85.0734 202.137 85.0833 202.142C85.0833 202.142 85.0933 202.142 85.0983 202.147C85.1082 202.157 85.1182 202.167 85.1281 202.177C85.1281 202.177 85.1281 202.177 85.1331 202.177C85.2277 202.276 85.3571 202.301 85.4766 202.356C87.9606 203.456 90.4495 204.556 92.9335 205.656C94.1631 206.199 95.3827 206.771 96.6819 207.13C97.9811 207.488 99.3003 207.732 100.649 207.787C100.873 207.787 101.097 207.787 101.321 207.787C101.993 207.787 102.665 207.787 103.337 207.787C103.99 207.767 104.637 207.682 105.279 207.583C107.892 207.189 110.401 206.418 112.825 205.377C117.266 203.471 121.273 200.867 125.031 197.856C125.858 197.194 126.664 196.512 127.465 195.82C130.258 195.87 133.046 195.885 135.838 195.855C138.497 195.825 141.16 195.78 143.818 195.675C143.947 195.601 144.087 195.601 144.226 195.656C144.266 195.656 144.306 195.656 144.346 195.656C144.505 195.581 144.669 195.586 144.833 195.636H144.953C145.047 195.576 145.147 195.566 145.247 195.586C145.247 195.586 145.252 195.586 145.257 195.586H145.262C145.296 195.596 145.326 195.606 145.356 195.616H145.476C145.54 195.576 145.605 195.561 145.67 195.556C145.739 195.556 145.809 195.571 145.884 195.591C145.924 195.591 145.963 195.591 146.003 195.591C146.048 195.566 146.093 195.551 146.138 195.541C146.227 195.521 146.322 195.531 146.416 195.566C146.456 195.566 146.491 195.566 146.531 195.566C146.531 195.566 146.541 195.566 146.546 195.561C146.675 195.496 146.81 195.496 146.939 195.546C146.979 195.546 147.019 195.546 147.054 195.546C147.188 195.461 147.322 195.471 147.467 195.521C147.507 195.521 147.546 195.521 147.581 195.521C147.716 195.441 147.855 195.451 147.994 195.496C148.034 195.496 148.074 195.496 148.109 195.496C148.139 195.476 148.164 195.466 148.189 195.456C148.233 195.441 148.273 195.441 148.318 195.441C148.358 195.441 148.403 195.451 148.442 195.471C149.05 195.441 149.652 195.422 150.259 195.387C154.909 195.113 159.543 194.745 164.173 194.232C171.201 193.45 178.186 192.4 185.085 190.827C189.784 189.757 194.419 188.472 198.899 186.665C201.303 185.695 203.638 184.585 205.798 183.131C207.097 182.255 208.302 181.269 209.268 180.01C209.875 179.208 210.368 178.347 210.557 177.342C210.632 177.262 210.662 177.168 210.667 177.068C210.711 176.346 210.736 175.629 210.671 174.908L210.632 174.913ZM148.233 159.685C146.939 159.605 145.65 159.536 144.356 159.481C145.65 159.541 146.939 159.61 148.233 159.685ZM119.526 183.186C119.317 183.37 119.107 183.559 118.898 183.743C117.43 185.033 115.917 186.252 114.339 187.392C112.761 188.527 111.123 189.582 109.41 190.523C109.167 190.658 108.918 190.792 108.669 190.922C108.096 191.22 107.519 191.504 106.936 191.778C106.354 192.047 105.762 192.295 105.164 192.529C103.97 192.997 102.745 193.386 101.481 193.684C100.933 193.814 100.385 193.923 99.8379 194.008C99.6438 194.038 99.4496 194.068 99.2605 194.097C98.5138 194.197 97.7671 194.257 97.0154 194.277C96.7665 194.282 96.5127 194.287 96.2638 194.282C96.0099 194.282 95.761 194.272 95.5071 194.262C95.3976 194.257 95.2931 194.242 95.1835 194.232C95.079 194.222 94.9695 194.207 94.86 194.197C94.7206 194.187 94.6161 194.127 94.5115 194.038C94.2129 193.769 93.9291 193.49 93.6503 193.201C93.2372 192.773 92.8439 192.325 92.4756 191.862C92.2316 191.554 91.9927 191.235 91.7637 190.907C91.6492 190.742 91.5397 190.578 91.4302 190.414C91.4202 190.399 91.4153 190.384 91.4103 190.369C91.4053 190.344 91.3953 190.314 91.3904 190.289C91.3456 190.245 91.2858 190.2 91.251 190.15L91.241 190.14C90.7283 189.329 90.2654 188.492 89.8472 187.631C89.6381 187.198 89.439 186.77 89.2548 186.327C89.0657 185.889 88.8914 185.441 88.7272 184.988C88.7073 184.933 88.7122 184.878 88.7023 184.819C88.4136 184.281 88.2692 183.694 88.09 183.121C87.6918 181.842 87.3782 180.543 87.1193 179.228C87.0745 178.994 87.0297 178.765 86.9849 178.531C86.965 178.437 86.955 178.347 86.9351 178.253C86.9152 178.138 86.8903 178.024 86.8704 177.909C86.8704 177.879 86.8704 177.854 86.8605 177.825C86.8505 177.725 86.8455 177.621 86.8356 177.521C86.6663 176.789 86.5916 176.043 86.507 175.296C86.2183 172.916 86.1088 170.527 86.1038 168.138C86.1038 167.237 86.1138 166.331 86.1387 165.425C86.1536 164.887 86.1785 164.354 86.2083 163.822C88.1746 163.354 90.1558 162.941 92.142 162.562C95.537 161.92 98.9518 161.397 102.377 160.974C102.431 160.969 102.486 160.959 102.541 160.954C102.606 160.944 102.67 160.939 102.735 160.944C102.775 160.944 102.815 160.954 102.855 160.964C103.387 160.85 103.93 160.79 104.472 160.735C104.721 160.71 104.97 160.686 105.214 160.661C108.977 160.243 112.746 159.924 116.519 159.695C117.579 159.63 118.64 159.571 119.695 159.521C122.403 159.391 125.111 159.307 127.819 159.257C129.302 159.227 130.786 159.212 132.269 159.212C134.385 159.212 136.5 159.237 138.611 159.287C138.153 160.048 137.69 160.81 137.217 161.562C136.874 162.114 136.525 162.662 136.172 163.204C135.54 164.175 134.897 165.136 134.24 166.092C133.026 167.854 131.766 169.581 130.457 171.274C130.044 171.811 129.626 172.344 129.198 172.872C129.123 172.966 129.048 173.061 128.974 173.15C128.356 173.917 127.729 174.669 127.087 175.41C126.017 176.65 124.917 177.859 123.787 179.044C123.443 179.403 123.1 179.761 122.751 180.114C121.855 181.02 120.929 181.906 119.984 182.768C119.829 182.907 119.675 183.051 119.521 183.191L119.526 183.186ZM124.563 182.947C125.658 182.982 126.759 183.012 127.854 183.032C126.754 183.012 125.658 182.982 124.563 182.947ZM196.952 171.289C196.922 171.328 196.873 171.368 196.793 171.428C196.688 171.508 196.584 171.592 196.474 171.667C196.37 171.747 196.26 171.821 196.151 171.901C195.947 172.045 195.738 172.185 195.524 172.319C195.499 172.334 195.474 172.349 195.449 172.369C195.275 172.478 195.101 172.588 194.921 172.692C194.657 172.852 194.399 173.001 194.13 173.15C192.308 174.166 190.391 174.982 188.435 175.704C186.588 176.381 184.717 176.973 182.83 177.501C180.127 178.258 177.389 178.885 174.626 179.432C171.943 179.97 169.25 180.423 166.547 180.816C163.844 181.21 161.131 181.538 158.413 181.822C157.522 181.916 156.631 182.001 155.74 182.086C153.953 182.25 152.166 182.389 150.379 182.509C149.483 182.569 148.587 182.623 147.696 182.673C145.69 182.788 143.684 182.872 141.677 182.937C141.314 182.947 140.951 182.962 140.582 182.972C140.249 182.982 139.915 182.992 139.577 183.002C140.398 181.986 141.219 180.976 141.971 179.905C142.081 179.771 142.19 179.637 142.295 179.497C143.903 177.332 145.446 175.127 146.929 172.882C147.009 172.757 147.422 172.13 147.546 171.936C148.487 170.487 149.398 169.024 150.289 167.54C151.743 165.111 153.132 162.647 154.451 160.148C156.97 160.367 159.483 160.621 161.997 160.93C162.181 160.949 162.366 160.989 162.555 161.019C163.68 161.099 164.795 161.268 165.905 161.432C167.334 161.641 168.762 161.87 170.186 162.109C172.107 162.433 174.029 162.791 175.936 163.204C176.966 163.428 177.991 163.657 179.022 163.881C179.032 163.881 179.047 163.881 179.057 163.886C179.067 163.886 179.077 163.886 179.092 163.891C179.156 163.901 179.231 163.901 179.301 163.911C179.39 163.921 179.48 163.946 179.549 164.021C181.75 164.583 183.945 165.176 186.1 165.888C186.3 165.952 186.529 165.972 186.683 166.141C187.245 166.241 187.758 166.475 188.286 166.669C188.749 166.838 189.212 167.018 189.67 167.202C190.979 167.719 192.263 168.292 193.508 168.954C194 169.213 194.483 169.487 194.961 169.775C195.593 170.159 196.211 170.562 196.788 171.025C196.957 171.159 197.007 171.214 196.942 171.294L196.952 171.289Z" fill="#007FFF"/>
<path d="M210.676 135.413C210.617 134.223 210.164 133.173 209.472 132.217C208.496 130.858 207.237 129.798 205.873 128.862C203.548 127.269 201.004 126.099 198.401 125.054C196.952 124.471 195.484 123.953 194 123.476C191.74 122.749 189.446 122.127 187.141 121.559C184.259 120.852 181.361 120.24 178.444 119.707C176.667 119.384 174.885 119.07 173.098 118.811C173.043 118.811 172.989 118.806 172.934 118.801C172.904 118.801 172.869 118.796 172.839 118.791C172.774 118.786 172.705 118.776 172.64 118.771C172.491 118.752 172.336 118.722 172.192 118.687C171.659 118.602 171.132 118.518 170.599 118.428C170.29 118.383 169.982 118.338 169.673 118.299C169.554 118.279 169.434 118.264 169.315 118.249C168.085 118.099 166.851 117.955 165.621 117.796C165.263 117.751 164.904 117.721 164.546 117.681C164.188 117.646 163.829 117.602 163.476 117.532C161.086 117.308 158.697 117.069 156.302 116.875C155.969 116.85 155.635 116.82 155.302 116.795C153.241 116.631 151.18 116.492 149.114 116.392C148.124 116.347 147.128 116.292 146.133 116.243C145.381 116.208 144.624 116.168 143.873 116.138C142.15 116.073 140.433 116.034 138.71 115.999C138.068 115.984 137.426 115.974 136.789 115.964C136.789 115.964 137.969 111.215 138.442 108.816C138.8 107.019 139.109 105.212 139.383 103.4C139.562 102.185 139.721 100.97 139.86 99.7508C140.005 98.4765 140.119 97.1971 140.199 95.9128C140.284 94.5439 140.338 93.17 140.368 91.8011C140.403 89.9642 140.343 88.1323 140.209 86.3004C140.119 85.0908 140.005 83.8862 139.85 82.6815C139.641 81.0338 139.343 79.406 138.949 77.7932C138.636 76.5039 138.277 75.2196 137.8 73.9751C137.775 73.9751 137.75 73.9751 137.725 73.9851C137.7 73.9851 137.675 73.995 137.655 74C137.576 74.0249 137.506 74.0647 137.431 74.0946C135.34 74.9707 133.364 76.0608 131.458 77.2755C131.348 77.3452 131.229 77.3999 131.184 77.5343C131.642 80.4265 131.856 83.3336 131.881 86.2606C131.921 90.4471 131.612 94.6086 131.04 98.7552C130.606 101.876 130.034 104.973 129.337 108.049C128.735 110.717 128.038 113.36 127.261 115.979C125.385 115.999 123.503 116.059 121.626 116.118C119.127 116.203 116.628 116.317 114.134 116.477C111.934 116.616 109.729 116.76 107.529 116.95C104.671 117.198 101.819 117.477 98.9767 117.826C98.2947 119.239 97.6326 120.663 96.9955 122.097C96.0447 124.237 95.1486 126.398 94.3074 128.578C94.3472 128.573 94.382 128.568 94.4219 128.563C97.7421 128.095 101.077 127.707 104.413 127.373C105.368 127.279 106.324 127.164 107.285 127.08C109.654 126.881 112.029 126.746 114.403 126.597C117.49 126.398 120.581 126.273 123.677 126.184C123.717 126.184 123.752 126.184 123.792 126.184C126.425 126.109 129.058 126.074 131.697 126.069C132.359 126.069 133.021 126.069 133.688 126.074C135.191 126.079 136.699 126.094 138.203 126.119C139.91 126.149 141.613 126.213 143.32 126.273C143.335 126.273 143.35 126.273 143.365 126.273C144.998 126.333 146.63 126.393 148.263 126.472C149.518 126.532 150.772 126.622 152.026 126.716C152.295 126.736 152.564 126.756 152.833 126.776C154.715 126.91 156.591 127.05 158.473 127.194C158.936 127.229 159.394 127.294 159.857 127.338C162.346 127.558 164.83 127.836 167.309 128.155C168.419 128.294 169.524 128.444 170.634 128.593C172.969 128.916 175.298 129.305 177.618 129.708C179.853 130.101 182.083 130.544 184.293 131.047C186.24 131.49 188.176 131.973 190.098 132.496C192.621 133.183 195.1 133.984 197.55 134.89C199.665 135.677 201.711 136.602 203.692 137.683C205.056 138.429 206.351 139.266 207.53 140.281C208.601 141.202 209.536 142.237 210.159 143.532C210.408 144.044 210.522 144.597 210.681 145.135C210.686 144.064 210.696 142.994 210.701 141.924C210.701 140.336 210.701 138.743 210.701 137.155C210.701 136.578 210.721 135.995 210.691 135.423L210.676 135.413Z" fill="#FF1100"/>
<path d="M147.84 59.4741C147.457 59.3497 147.064 59.2601 146.695 59.0859C146.695 59.0361 146.7 58.9863 146.705 58.9365C147.163 59.0759 147.596 59.27 148 59.5289C147.945 59.509 147.89 59.494 147.835 59.4741H147.84Z" fill="#404A5A"/>
<path d="M146.501 59.0062C146.501 59.0062 146.536 59.0212 146.546 59.0361C146.546 59.0361 146.541 59.0361 146.536 59.0361C146.496 59.061 146.471 59.0411 146.446 59.0062C146.466 59.0013 146.481 58.9963 146.501 59.0062Z" fill="#404A5A"/>
<path d="M100.22 87.9629C100.22 87.9629 100.21 88.0022 100.196 88.017C100.196 88.017 100.191 88.0219 100.186 88.0268C100.176 88.0367 100.161 88.0416 100.146 88.0416C100.146 88.0367 100.146 88.0317 100.146 88.0268V88.0121C100.146 88.0121 100.176 87.9826 100.191 87.9727C100.201 87.9727 100.21 87.9629 100.22 87.9629Z" fill="#404A5A"/>
<path d="M102.272 85.3496C102.272 85.3496 102.237 85.3845 102.217 85.3944C102.193 85.4093 102.168 85.4193 102.133 85.4293C102.133 85.4093 102.133 85.3944 102.133 85.3795C102.133 85.3645 102.133 85.3496 102.138 85.3397C102.148 85.3148 102.158 85.2899 102.173 85.27C102.188 85.2501 102.212 85.2351 102.232 85.2152C102.257 85.2003 102.282 85.1853 102.307 85.1704C102.312 85.2053 102.312 85.2351 102.307 85.265C102.307 85.2899 102.292 85.3048 102.282 85.3247C102.282 85.3297 102.272 85.3397 102.272 85.3446V85.3496Z" fill="#404A5A"/>
<path d="M103.054 84.2991C103.054 84.2991 103.044 84.2991 103.044 84.3041C103.039 84.3041 103.029 84.3041 103.024 84.3041C103.019 84.3041 103.014 84.3041 103.004 84.3041C103.029 84.2742 103.054 84.2393 103.079 84.2095C103.079 84.2194 103.079 84.2244 103.079 84.2344C103.079 84.2593 103.069 84.2742 103.049 84.2891L103.054 84.2991Z" fill="#215CB5"/>
<path d="M103.457 83.6868C103.457 83.6619 103.477 83.642 103.497 83.632C103.507 83.632 103.517 83.627 103.527 83.6221C103.527 83.637 103.522 83.642 103.517 83.6519C103.517 83.6619 103.517 83.6718 103.507 83.6818C103.507 83.6868 103.497 83.6918 103.492 83.6967C103.482 83.7017 103.467 83.7067 103.457 83.7117C103.457 83.7017 103.457 83.6967 103.457 83.6868Z" fill="#215CB5"/>
<path d="M138.795 55.4869C138.89 55.4471 138.949 55.4869 139.004 55.5616C138.919 55.5815 138.83 55.6014 138.795 55.4919V55.4869Z" fill="#FEC35E"/>
<path d="M138.79 55.4868H138.795L138.79 55.4919V55.4868Z" fill="#FDBF41"/>
<path d="M115.205 71.1524C115.235 71.1275 115.26 71.1026 115.289 71.0728C115.289 71.0777 115.289 71.0877 115.289 71.0927C115.289 71.1126 115.28 71.1225 115.27 71.1375H115.265C115.265 71.1375 115.235 71.1524 115.205 71.1524Z" fill="#404A5A"/>
<path d="M115.787 70.5654C115.812 70.5505 115.842 70.5405 115.877 70.5405C115.877 70.5853 115.867 70.6102 115.847 70.6202C115.817 70.6401 115.762 70.6252 115.722 70.6301C115.742 70.6003 115.762 70.5804 115.787 70.5654Z" fill="#404A5A"/>
<path d="M116.161 70.3158C116.161 70.3158 116.151 70.3556 116.136 70.3706C116.136 70.3706 116.126 70.3755 116.121 70.3805C116.111 70.3855 116.096 70.3905 116.081 70.3905C116.106 70.3606 116.136 70.3258 116.161 70.2959C116.161 70.3059 116.161 70.3108 116.161 70.3208V70.3158Z" fill="#404A5A"/>
<path d="M121.094 66.4035C121.094 66.4035 121.084 66.4234 121.079 66.4334C121.064 66.4483 121.044 66.4533 121.014 66.4533C121.039 66.4234 121.069 66.3985 121.099 66.3687C121.099 66.3836 121.099 66.3935 121.099 66.4085L121.094 66.4035Z" fill="#404A5A"/>
<path d="M121.004 66.458C121.004 66.458 121.004 66.4729 121.004 66.4779C121.004 66.4978 120.994 66.5078 120.984 66.5128C120.974 66.5177 120.964 66.5177 120.944 66.5128C120.939 66.5128 120.929 66.5128 120.924 66.5028C120.954 66.4879 120.979 66.4729 121.009 66.458H121.004Z" fill="#404A5A"/>
<path d="M146.67 58.9118C144.211 57.8167 141.747 56.7265 139.288 55.6264C139.188 55.5816 139.089 55.6164 138.999 55.5617C138.915 55.5816 138.825 55.6015 138.79 55.492C138.691 55.5368 138.596 55.492 138.502 55.4572C136.346 54.81 134.141 54.6109 131.896 54.7254C128.924 54.8797 126.077 55.6065 123.309 56.6767C122.438 57.0103 121.582 57.3786 120.745 57.7719C120.536 57.8714 120.327 57.971 120.118 58.0755C119.874 58.195 119.63 58.3145 119.391 58.4439C119.068 58.6082 118.749 58.7774 118.426 58.9517C116.748 59.8676 115.12 60.8881 113.542 61.9832C113.214 62.2122 112.885 62.4412 112.562 62.6752L112.367 62.8145C111.591 63.382 110.829 63.9595 110.083 64.5568C108.211 66.0452 106.414 67.6281 104.676 69.2857C99.8529 73.8903 95.5669 78.9728 91.6443 84.3589C91.5447 84.4983 91.4452 84.6426 91.3456 84.782C91.3456 84.782 91.3356 84.8169 91.3257 84.8268C91.3157 84.8368 91.3008 84.8418 91.2809 84.8467C90.9275 85.3495 90.579 85.8473 90.2256 86.3501C89.6382 87.1864 89.0607 88.0227 88.4932 88.8739C87.9556 89.6803 87.423 90.4967 86.9003 91.3131C86.4822 91.9602 86.074 92.6123 85.6708 93.2694C85.3123 93.8568 84.9539 94.4392 84.6005 95.0266C84.1027 95.8579 83.6099 96.6942 83.1221 97.5405C82.8781 97.9636 82.6392 98.3817 82.4003 98.8098C82.3754 98.8596 82.3405 98.9044 82.3107 98.9542C82.3107 99.0089 82.2907 99.0537 82.2708 99.0986C82.2509 99.1284 82.231 99.1633 82.2161 99.1931C81.9921 99.5914 81.773 99.9946 81.554 100.398C80.7277 101.906 79.9213 103.429 79.1447 104.963C78.8162 105.61 78.4926 106.262 78.174 106.914C76.4516 110.438 74.8537 114.017 73.3852 117.646C72.6037 119.573 71.862 121.514 71.1551 123.466C70.7818 124.501 70.4134 125.541 70.06 126.587C69.4079 128.518 68.8105 130.464 68.2281 132.416C67.989 133.217 67.755 134.024 67.531 134.83C67.5261 134.85 67.5211 134.87 67.5161 134.89C67.1627 136.154 66.8341 137.424 66.5255 138.698C66.2418 139.843 65.968 140.993 65.7141 142.148C65.4951 143.133 65.2959 144.124 65.0968 145.115C65.052 145.348 65.0072 145.582 64.9624 145.821C64.9425 145.916 64.9276 146.011 64.9077 146.105C64.9027 146.14 64.8927 146.175 64.8878 146.215C64.8529 146.404 64.8131 146.588 64.7782 146.777C64.4945 148.325 64.2406 149.878 64.0216 151.441C63.8076 152.95 63.6184 154.453 63.4591 155.966C63.4243 156.305 63.3944 156.643 63.3595 156.982C63.3595 157.007 63.3546 157.032 63.3546 157.057C63.3297 157.315 63.3147 157.5 63.2948 157.684C63.2251 158.525 63.1654 159.371 63.1156 160.213C63.0658 161.059 63.026 161.905 63.0011 162.751C63.0011 162.861 63.0011 162.97 62.9912 163.08C62.9414 164.708 62.9314 166.33 62.9812 167.953C63.031 169.486 63.1156 171.015 63.26 172.543C63.3994 174.066 63.5935 175.584 63.8573 177.103C63.9868 177.844 64.1261 178.581 64.2854 179.313C64.8131 181.782 65.5249 184.201 66.5006 186.541C66.5703 186.705 66.635 186.864 66.7097 187.029C66.7794 187.188 66.854 187.352 66.9237 187.512C67.093 187.89 67.2722 188.263 67.4564 188.632C67.765 189.249 68.0935 189.851 68.4422 190.439C69.3979 192.051 70.5229 193.55 71.857 194.904C72.2055 195.262 72.5689 195.601 72.9422 195.924C73.6441 196.537 74.3908 197.099 75.1872 197.602C75.3366 197.696 75.5108 197.751 75.6203 197.895C75.6353 197.915 75.6502 197.94 75.6601 197.965C75.7348 197.95 75.7896 197.965 75.8095 198.045C76.1181 198.119 76.367 198.329 76.6508 198.453C78.164 199.125 79.6724 199.797 81.1856 200.469C82.0468 200.852 82.913 201.226 83.7791 201.604L83.8887 201.504C83.6099 201.33 83.3212 201.166 83.0524 200.982C82.7686 200.788 82.4998 200.584 82.231 200.375C79.976 198.622 78.2088 196.437 76.7603 193.963C75.8792 192.46 75.1624 190.882 74.5451 189.259C74.5302 189.219 74.5152 189.184 74.5003 189.144C73.674 186.949 73.0716 184.689 72.6186 182.389C72.3747 181.16 72.1806 179.92 72.0113 178.676C72.0014 178.586 71.9864 178.501 71.9765 178.412C71.8968 177.8 71.8271 177.182 71.7624 176.57C71.6678 175.664 71.5982 174.763 71.5484 173.852C71.5384 173.628 71.5235 173.404 71.5135 173.18C71.5135 173.125 71.5086 173.066 71.5036 173.011C71.4588 171.756 71.414 170.502 71.419 169.247C71.419 169.178 71.419 169.108 71.419 169.043C71.419 168.819 71.419 168.595 71.4289 168.371C71.4588 167.386 71.4886 166.405 71.5285 165.424C71.5484 164.932 71.5733 164.444 71.6031 163.951C71.633 163.458 71.6629 162.97 71.6977 162.478C71.8271 160.76 72.0014 159.053 72.2104 157.345C72.2851 156.723 72.3648 156.106 72.4544 155.484C72.5489 154.792 72.6535 154.1 72.763 153.413C72.8476 152.87 72.9372 152.328 73.0318 151.785C73.1363 151.168 73.2508 150.555 73.3653 149.938C73.5097 149.162 73.664 148.39 73.8233 147.613C74.0075 146.732 74.1966 145.846 74.3958 144.97C74.575 144.189 74.7591 143.407 74.9533 142.626C75.1673 141.764 75.3864 140.903 75.6153 140.047C75.6701 139.848 75.7298 139.649 75.7896 139.45C75.8493 139.251 75.909 139.051 75.9588 138.852C76.0634 138.434 76.148 138.016 76.2973 137.608C76.3322 137.563 76.3869 137.518 76.3919 137.468C76.5114 136.483 76.8648 135.562 77.1685 134.636C77.3029 134.223 77.4323 133.805 77.5617 133.387C77.7409 132.804 77.9201 132.222 78.1043 131.639C78.2536 131.161 78.408 130.683 78.5722 130.211C78.6369 130.026 78.6967 129.837 78.7614 129.648C78.846 129.409 78.9306 129.17 79.0153 128.931C79.3737 127.936 79.7221 126.935 80.0855 125.94C80.2349 125.531 80.3892 125.118 80.5435 124.71C81.0761 123.311 81.6237 121.922 82.1912 120.543C82.3505 120.15 82.5148 119.762 82.679 119.374C82.8134 119.06 82.9429 118.751 83.0723 118.438C83.3909 117.701 83.7144 116.964 84.038 116.228C84.2919 115.65 84.5507 115.078 84.8146 114.5C85.0137 114.057 85.2178 113.624 85.4219 113.181C85.9694 112.006 86.527 110.841 87.1094 109.682C87.2089 109.478 87.3284 109.283 87.4429 109.089C87.5574 108.895 87.6719 108.696 87.7714 108.487C89.4639 104.898 91.4501 101.468 93.4961 98.0731C93.6802 97.7694 93.8595 97.4658 94.0436 97.1621C94.4717 96.4553 94.8799 95.7384 95.3628 95.0764C95.6664 94.6632 95.9452 94.2451 96.224 93.817C96.5027 93.3938 96.7765 92.9657 97.0603 92.5476C97.6377 91.7113 98.1753 90.8451 98.7478 90.0039C98.8224 89.8944 98.8971 89.7848 98.9718 89.6753C99.3551 89.1228 99.7533 88.5802 100.142 88.0326C100.142 88.0276 100.142 88.0227 100.142 88.0177V88.0027C100.142 88.0027 100.171 87.9729 100.186 87.9629C100.196 87.9629 100.206 87.953 100.216 87.953C100.779 87.1963 101.341 86.4347 101.904 85.6781C101.929 85.6432 101.959 85.6133 101.983 85.5835C101.998 85.5685 102.008 85.5536 102.018 85.5437C102.053 85.5038 102.088 85.469 102.123 85.4292C102.123 85.4092 102.123 85.3943 102.123 85.3794C102.123 85.3644 102.123 85.3495 102.128 85.3396C102.138 85.3097 102.148 85.2898 102.163 85.2699C102.178 85.25 102.202 85.235 102.222 85.2151C102.247 85.2002 102.272 85.1852 102.297 85.1703C102.312 85.1554 102.322 85.1404 102.332 85.1255C102.551 84.8517 102.775 84.5779 102.994 84.3041C103.019 84.2743 103.044 84.2394 103.069 84.2096C103.069 84.1897 103.079 84.1747 103.089 84.1548C103.094 84.1399 103.103 84.12 103.113 84.105C103.133 84.0752 103.158 84.0453 103.183 84.0204C103.183 84.0154 103.193 84.0104 103.198 84.0055C103.293 83.9159 103.412 83.8412 103.437 83.7068C103.437 83.6968 103.437 83.6919 103.437 83.6819C103.437 83.657 103.457 83.6371 103.477 83.6271C103.487 83.6271 103.497 83.6222 103.507 83.6172C103.571 83.5674 103.631 83.5176 103.681 83.4579C103.696 83.443 103.706 83.428 103.716 83.4181C103.756 83.3733 103.79 83.3235 103.825 83.2737C103.87 83.209 103.915 83.1393 103.96 83.0696C103.995 83.0198 104.029 82.9651 104.064 82.9153C104.089 82.8805 104.114 82.8456 104.139 82.8157C104.308 82.6067 104.482 82.3976 104.652 82.1935C105.846 80.735 107.076 79.3113 108.34 77.9175C109.331 76.8223 110.356 75.762 111.392 74.7117C111.571 74.5275 111.755 74.3433 111.934 74.1641C112.273 73.8256 112.626 73.512 112.975 73.1884C113.114 73.059 113.253 72.9346 113.388 72.8002C113.418 72.7753 113.443 72.7454 113.472 72.7205C113.906 72.3024 114.349 71.8842 114.787 71.4711C114.797 71.4611 114.807 71.4561 114.817 71.4462C114.931 71.3416 115.06 71.247 115.18 71.1525C115.21 71.1276 115.235 71.1027 115.265 71.0728C115.274 71.0629 115.279 71.0579 115.289 71.0479C115.424 70.9085 115.563 70.7741 115.698 70.6348C115.718 70.6049 115.737 70.585 115.762 70.57C115.787 70.5551 115.817 70.5452 115.852 70.5452C115.892 70.5402 115.927 70.5203 115.956 70.5004C115.976 70.4854 115.996 70.4655 116.016 70.4456C116.031 70.4307 116.041 70.4107 116.056 70.3908C116.081 70.361 116.111 70.3261 116.136 70.2963C116.489 69.9826 116.843 69.674 117.206 69.3704C117.261 69.3256 117.315 69.2808 117.37 69.231C117.719 68.9373 118.072 68.6486 118.431 68.3598C119.232 67.7177 120.058 67.0955 120.9 66.5082C120.929 66.4932 120.954 66.4783 120.984 66.4634H120.989C121.014 66.4285 121.044 66.3986 121.074 66.3738C121.263 66.2344 121.457 66.09 121.646 65.9556C122.03 65.6768 122.423 65.408 122.811 65.1442C123.005 65.0148 123.204 64.8804 123.403 64.7559C123.603 64.6265 123.802 64.4971 124.001 64.3726C124.603 63.9943 125.21 63.6259 125.828 63.2725C126.5 62.8842 127.187 62.5109 127.874 62.1525C129.944 61.0872 132.085 60.1862 134.325 59.5191C134.494 59.4694 134.669 59.4196 134.838 59.3698C136.032 59.0363 137.232 58.7824 138.452 58.6181C139.144 58.5236 139.846 58.4588 140.547 58.429C141.075 58.4041 141.603 58.3991 142.135 58.414C142.315 58.419 142.489 58.424 142.668 58.434C143.201 58.4638 143.728 58.5186 144.256 58.5932C144.988 58.6928 145.71 58.8322 146.431 59.0164C146.451 59.0114 146.466 59.0064 146.486 59.0164C146.506 59.0164 146.521 59.0313 146.531 59.0462C146.546 59.0512 146.566 59.0562 146.581 59.0612C146.616 59.0711 146.645 59.0811 146.68 59.096C146.68 59.0462 146.685 58.9965 146.69 58.9467C146.68 58.9367 146.67 58.9268 146.655 58.9218L146.67 58.9118Z" fill="#F1ECE2"/>
<path d="M138.795 55.487C138.76 55.3327 138.611 55.3178 138.501 55.268C136.381 54.3272 134.26 53.3814 132.13 52.4505C131.562 52.2016 131.015 51.9129 130.427 51.7138C130.362 51.7536 130.293 51.7486 130.223 51.7237C128.765 51.2458 127.251 51.0069 125.728 50.9123C124.329 50.8277 122.925 50.9123 121.537 51.0965C120.392 51.2508 119.267 51.4898 118.152 51.7884C115.986 52.3708 113.905 53.1623 111.899 54.1529C111.128 54.5362 110.381 54.9693 109.619 55.3725C109.366 55.5069 109.102 55.6264 108.858 55.7708C106.677 57.07 104.562 58.4688 102.556 60.0269C102.053 60.4152 101.54 60.7935 101.072 61.2166C100.769 61.4904 100.475 61.7692 100.146 62.0081C100.087 62.0529 100.022 62.0977 99.9473 62.1425C99.8926 62.1923 99.8378 62.2371 99.7831 62.2819V62.2919C99.7582 62.3566 99.7333 62.4163 99.6935 62.4511C99.6686 62.4711 99.6437 62.481 99.6138 62.486C99.5989 62.486 99.579 62.486 99.564 62.486H99.5541C99.5541 62.486 99.5242 62.476 99.5043 62.4711C99.4894 62.481 99.4744 62.491 99.4645 62.5009C99.2903 62.6254 99.1957 62.8394 99.0364 62.9639C99.0115 62.9838 98.9866 62.9987 98.9617 63.0137C98.5436 63.2327 98.2897 63.6259 97.9163 63.8947C97.5579 64.1536 97.2593 64.4971 96.9307 64.8007C95.3029 66.2991 93.7647 67.8871 92.2415 69.49C91.7736 69.9828 91.3554 70.5105 90.9074 71.0232C90.6486 71.3169 90.3598 71.5757 90.106 71.8645C89.414 72.656 88.742 73.4674 88.06 74.2638C87.5523 74.8562 87.0744 75.4685 86.6214 76.1007C86.263 76.6034 85.8349 77.0515 85.4516 77.5343C84.2918 79.0227 83.1916 80.5559 82.0915 82.0841C81.0063 83.5925 80.0107 85.1605 78.9803 86.7086C78.0544 88.0975 77.2032 89.5361 76.3221 90.9598C75.9985 91.4875 75.7098 92.035 75.3813 92.5627C74.8188 93.4687 74.2961 94.3995 73.8033 95.3453C73.4946 95.7137 73.3104 96.1617 73.0765 96.5749C72.5886 97.4411 72.1207 98.3172 71.6976 99.2182C71.5632 99.5069 71.3691 99.7508 71.2297 100.04C70.8364 100.841 70.4382 101.642 70.025 102.439C68.9946 104.44 68.0885 106.496 67.1477 108.542C66.1272 110.752 65.2212 113.017 64.3252 115.282C63.7179 116.82 63.1056 118.358 62.6227 119.941C62.5431 120.2 62.3937 120.434 62.3041 120.688C61.8362 122.052 61.3683 123.411 60.9253 124.78C60.5121 126.039 60.1238 127.309 59.7505 128.578C59.3921 129.803 59.0486 131.027 58.72 132.257C58.0779 134.641 57.4905 137.04 56.9877 139.455C56.8583 140.097 56.7289 140.739 56.6044 141.381C56.1763 143.567 55.798 145.767 55.4894 147.977C55.2006 150.078 54.9617 152.183 54.7725 154.294C54.7576 154.488 54.7427 154.682 54.7277 154.876C54.6381 156.031 54.5684 157.191 54.5236 158.356C54.4689 159.685 54.4589 161.014 54.449 162.343C54.449 162.975 54.5137 163.613 54.5087 164.25C54.4988 165.221 54.5834 166.186 54.6381 167.152C54.658 167.505 54.673 167.864 54.7078 168.222C54.7128 168.282 54.7228 168.347 54.7277 168.406C54.8422 169.337 54.9169 170.273 55.0463 171.199C55.1708 172.1 55.2952 173.001 55.4595 173.892C55.6984 175.137 55.9224 176.381 56.3057 177.591C56.4252 177.969 56.4899 178.367 56.5994 178.756C56.8284 179.602 57.1022 180.438 57.4009 181.259C57.834 182.439 58.3318 183.594 58.8694 184.729C59.7007 186.471 60.7311 188.094 61.9408 189.597C63.0857 191.026 64.3949 192.286 65.8932 193.341C65.953 193.386 66.0177 193.425 66.0824 193.465C66.1919 193.535 66.3014 193.605 66.4109 193.674C66.4707 193.714 66.5354 193.754 66.6001 193.794C66.8092 193.923 67.0133 194.058 67.2124 194.202C67.2124 194.202 67.2174 194.202 67.2223 194.207C67.2821 194.252 67.3418 194.297 67.4015 194.346C67.4015 194.356 67.4115 194.366 67.4165 194.376C67.4513 194.426 67.521 194.431 67.5758 194.456C70.1644 195.601 72.7479 196.746 75.3365 197.891C75.441 197.935 75.5406 198.005 75.665 197.975C75.6501 197.95 75.6401 197.93 75.6252 197.906C75.5157 197.761 75.3414 197.706 75.1921 197.612C74.4006 197.109 73.6489 196.547 72.9471 195.934C72.5737 195.611 72.2103 195.267 71.8619 194.914C70.5278 193.56 69.4028 192.057 68.447 190.449C68.0985 189.861 67.7699 189.259 67.4613 188.642C67.2771 188.273 67.0979 187.9 66.9286 187.522C66.854 187.357 66.7843 187.198 66.7146 187.034C66.6449 186.87 66.5752 186.71 66.5055 186.546C65.5298 184.206 64.823 181.787 64.2903 179.318C64.131 178.586 63.9917 177.85 63.8622 177.108C63.6034 175.595 63.4092 174.076 63.2649 172.548C63.1205 171.025 63.0359 169.492 62.9861 167.958C62.9363 166.336 62.9463 164.708 62.9961 163.085C63.0011 162.975 63.0011 162.866 63.006 162.756C63.0359 161.91 63.0757 161.064 63.1205 160.218C63.1703 159.376 63.23 158.53 63.2997 157.689C63.3147 157.505 63.3346 157.321 63.3595 157.062C63.3595 157.037 63.3644 157.012 63.3644 156.987C63.3943 156.649 63.4242 156.31 63.464 155.972C63.6183 154.458 63.8125 152.95 64.0265 151.447C64.2505 149.884 64.5044 148.33 64.7832 146.782C64.818 146.593 64.8578 146.409 64.8927 146.22C64.8976 146.185 64.9076 146.15 64.9126 146.11C64.9325 146.016 64.9474 145.921 64.9673 145.827C65.0121 145.588 65.0569 145.354 65.1017 145.12C65.2959 144.129 65.5 143.138 65.719 142.153C65.9729 140.998 66.2467 139.848 66.5304 138.703C66.844 137.429 67.1726 136.159 67.521 134.895C67.521 134.875 67.531 134.855 67.5359 134.835C67.76 134.029 67.9939 133.222 68.233 132.421C68.8154 130.47 69.4177 128.523 70.0648 126.592C70.4183 125.546 70.7866 124.506 71.16 123.471C71.8668 121.514 72.6086 119.573 73.3901 117.651C74.8586 114.023 76.4515 110.443 78.1789 106.919C78.4974 106.267 78.821 105.615 79.1496 104.968C79.9261 103.434 80.7325 101.911 81.5589 100.403C81.7779 99.9997 82.0019 99.5965 82.2209 99.1983C82.2408 99.1684 82.2608 99.1335 82.2757 99.1037C82.3006 99.0589 82.3205 99.0141 82.3155 98.9593C82.3454 98.9095 82.3802 98.8598 82.4051 98.815C82.6441 98.3918 82.883 97.9687 83.1269 97.5456C83.6148 96.7043 84.1026 95.868 84.6054 95.0317C84.9588 94.4443 85.3172 93.8569 85.6756 93.2745C86.0788 92.6174 86.487 91.9653 86.9052 91.3182C87.4279 90.5018 87.9605 89.6854 88.4981 88.879C89.0656 88.0278 89.643 87.1915 90.2304 86.3552C90.5789 85.8524 90.9323 85.3546 91.2857 84.8519C91.2857 84.8419 91.2857 84.832 91.2857 84.822C91.2857 84.817 91.2907 84.8071 91.2957 84.8021C91.3057 84.7872 91.3256 84.7822 91.3455 84.7822C91.445 84.6428 91.5396 84.4984 91.6442 84.3591C95.5668 78.9729 99.8528 73.8955 104.676 69.2859C106.414 67.6282 108.206 66.0452 110.082 64.5568C110.829 63.9595 111.591 63.382 112.367 62.8145L112.561 62.6752C112.885 62.4412 113.214 62.2122 113.542 61.9832C115.125 60.8881 116.748 59.8676 118.425 58.9517C118.744 58.7774 119.068 58.6082 119.391 58.4439C119.635 58.3195 119.874 58.195 120.118 58.0755C120.327 57.971 120.536 57.8715 120.745 57.7719C121.586 57.3786 122.438 57.0103 123.309 56.6768C126.076 55.6115 128.924 54.8847 131.896 54.7254C134.136 54.6059 136.341 54.805 138.501 55.4572C138.596 55.487 138.691 55.5318 138.79 55.492L138.795 55.487Z" fill="#FDBF41"/>
<path d="M91.2958 84.796C91.2958 84.796 91.3253 84.7764 91.3449 84.7764C91.3449 84.796 91.3351 84.8108 91.3253 84.8206C91.3154 84.8305 91.3007 84.8354 91.281 84.8403C91.281 84.8305 91.281 84.8206 91.281 84.8108C91.281 84.8059 91.2859 84.796 91.2908 84.7911L91.2958 84.796Z" fill="#C18B00"/>
<path d="M99.5494 62.3317C99.5793 62.2969 99.6141 62.277 99.6639 62.272C99.6937 62.272 99.7336 62.272 99.7734 62.2819V62.2919C99.7485 62.3566 99.7236 62.4163 99.6838 62.4512C99.6589 62.4711 99.634 62.481 99.6041 62.486C99.5892 62.486 99.5693 62.486 99.5544 62.486H99.5444C99.5444 62.486 99.5145 62.4761 99.4946 62.4711C99.5046 62.4114 99.5245 62.3616 99.5544 62.3317H99.5494Z" fill="#C18B00"/>
<path d="M129.959 51.5099C128.033 50.6487 126.101 49.8124 124.185 48.9413C121.99 47.9407 119.71 47.3235 117.295 47.209C116.688 47.209 116.076 47.209 115.469 47.214C115.23 47.214 114.991 47.214 114.757 47.214C113.542 47.2787 112.342 47.4579 111.153 47.7118C107.643 48.4584 104.378 49.8324 101.247 51.5547C98.0956 53.287 95.1686 55.3579 92.3859 57.6278C92.0325 57.9165 91.6492 58.1803 91.3406 58.5288C91.3157 58.5387 91.2908 58.5587 91.2759 58.5836V58.6134C91.2759 58.6134 91.2659 58.6134 91.2609 58.6134C91.251 58.6134 91.246 58.6134 91.246 58.6134C91.1663 58.6781 91.0867 58.7379 91.007 58.8026C87.9257 61.4409 85.0634 64.3032 82.3554 67.3247C79.1397 70.9188 76.1728 74.7119 73.4001 78.6545C69.2684 84.5284 65.6098 90.6911 62.3492 97.0877C60.149 101.399 58.1478 105.804 56.3458 110.299C54.4691 114.988 52.7468 119.737 51.3629 124.601C51.2086 125.138 51.0194 125.671 50.8651 126.209C49.7302 130.216 48.7495 134.258 47.9779 138.35C47.3208 141.819 46.7982 145.304 46.4547 148.818C46.2008 151.367 46.0266 153.921 46.0365 156.484C46.0365 157.649 46.0415 158.814 46.0465 159.979C46.0614 160.138 46.0664 160.297 46.0714 160.457C46.0764 160.706 46.0714 160.95 46.0614 161.198C46.0714 162.617 46.1909 164.026 46.3253 165.44C46.5493 167.744 46.8977 170.024 47.4104 172.279C48.0476 175.107 48.9188 177.85 50.1583 180.473C51.4874 183.281 53.1749 185.834 55.4548 187.97C56.7839 189.214 58.2474 190.265 59.8951 191.036C61.3586 191.723 62.842 192.365 64.3254 193.017C65.3409 193.465 66.3465 193.948 67.3819 194.346C67.3222 194.302 67.2624 194.252 67.2027 194.207C67.2027 194.207 67.1977 194.207 67.1927 194.202C66.9936 194.058 66.7895 193.923 66.5804 193.794C66.5157 193.754 66.456 193.714 66.3913 193.674C66.2818 193.605 66.1723 193.54 66.0627 193.465C65.998 193.426 65.9383 193.381 65.8736 193.341C64.3752 192.281 63.071 191.026 61.9211 189.598C60.7115 188.094 59.681 186.471 58.8497 184.729C58.3071 183.594 57.8093 182.439 57.3812 181.26C57.0826 180.438 56.8088 179.602 56.5798 178.756C56.4753 178.372 56.4056 177.974 56.2861 177.591C55.9028 176.381 55.6738 175.137 55.4398 173.892C55.2706 173.001 55.1511 172.1 55.0267 171.199C54.8972 170.273 54.8176 169.337 54.7081 168.407C54.7031 168.347 54.6932 168.282 54.6882 168.222C54.6533 167.869 54.6384 167.51 54.6185 167.152C54.5687 166.186 54.4841 165.221 54.4891 164.25C54.4891 163.618 54.4243 162.981 54.4293 162.343C54.4393 161.014 54.4542 159.685 54.504 158.356C54.5488 157.196 54.6185 156.036 54.7081 154.876C54.723 154.682 54.738 154.488 54.7529 154.294C54.9421 152.183 55.181 150.078 55.4697 147.977C55.7783 145.767 56.1567 143.567 56.5848 141.381C56.7092 140.739 56.8386 140.097 56.9681 139.455C57.4659 137.036 58.0582 134.641 58.7004 132.257C59.0289 131.027 59.3724 129.798 59.7308 128.578C60.1042 127.304 60.4924 126.039 60.9056 124.78C61.3536 123.411 61.8215 122.047 62.2845 120.688C62.3691 120.429 62.5234 120.195 62.6031 119.941C63.0909 118.358 63.6982 116.82 64.3055 115.282C65.2016 113.017 66.1075 110.757 67.128 108.542C68.0688 106.501 68.9747 104.44 70.0052 102.439C70.4134 101.643 70.8166 100.841 71.2098 100.04C71.3492 99.7559 71.5483 99.507 71.6777 99.2183C72.1009 98.3173 72.5688 97.4412 73.0566 96.575C73.2906 96.1618 73.4748 95.7138 73.7834 95.3454C74.2762 94.3996 74.7989 93.4688 75.3614 92.5628C75.69 92.0401 75.9787 91.4876 76.3022 90.9599C77.1784 89.5362 78.0296 88.1026 78.9605 86.7087C79.9909 85.1606 80.9865 83.5926 82.0717 82.0842C83.1718 80.556 84.2719 79.0228 85.4318 77.5344C85.8101 77.0466 86.2382 76.6035 86.6016 76.1008C87.0546 75.4686 87.5324 74.8563 88.0402 74.2639C88.7222 73.4625 89.3942 72.6511 90.0861 71.8646C90.34 71.5758 90.6287 71.317 90.8876 71.0233C91.3356 70.5155 91.7537 69.9829 92.2217 69.4901C93.7449 67.8872 95.2831 66.2993 96.9109 64.801C97.2394 64.4973 97.5381 64.1539 97.8965 63.895C98.2698 63.6262 98.5187 63.2329 98.9419 63.0139C98.9667 62.999 98.9966 62.984 99.0165 62.9641C99.1758 62.8397 99.2704 62.6256 99.4446 62.5012C99.4596 62.4912 99.4745 62.4813 99.4844 62.4713C99.4944 62.4116 99.5143 62.3618 99.5442 62.3319C99.5741 62.2971 99.6089 62.2772 99.6587 62.2722C99.6885 62.2722 99.7284 62.2722 99.7682 62.2822C99.823 62.2374 99.8777 62.1876 99.9325 62.1428C100.007 62.093 100.067 62.0532 100.132 62.0084C100.46 61.7694 100.754 61.4956 101.057 61.2169C101.525 60.7888 102.043 60.4154 102.541 60.0272C104.547 58.4691 106.663 57.0703 108.843 55.771C109.092 55.6267 109.351 55.5072 109.605 55.3728C110.366 54.9646 111.113 54.5315 111.884 54.1532C113.891 53.1626 115.976 52.3711 118.137 51.7887C119.252 51.49 120.377 51.256 121.522 51.0967C122.911 50.9076 124.314 50.8279 125.713 50.9126C127.241 51.0071 128.75 51.2461 130.208 51.724C130.283 51.7489 130.348 51.7538 130.412 51.714C130.288 51.5796 130.099 51.5796 129.944 51.5099H129.959Z" fill="#FF1100"/>
<path d="M99.6038 61.7741C99.6038 61.7741 99.5792 61.7544 99.5693 61.7495C99.5841 61.7593 99.5939 61.7643 99.6038 61.7741Z" fill="#FF1100"/>
<path d="M117.296 47.2039H115.469C115.23 47.2138 114.991 47.2138 114.757 47.2138C114.747 47.1839 114.732 47.1541 114.722 47.1242C115.588 47.1242 116.459 47.1242 117.325 47.1143C117.315 47.1441 117.305 47.174 117.296 47.2039Z" fill="#FEC35E"/>
<path d="M91.2613 58.6174H91.2466V58.5879H91.281V58.6223C91.281 58.6223 91.2712 58.6223 91.2662 58.6223L91.2613 58.6174Z" fill="#C18B00"/>
<path opacity="0.48" d="M196.878 171.358C197.127 171.164 197.127 171.144 196.878 170.95C196.3 170.487 195.683 170.084 195.051 169.7C192.94 168.421 190.685 167.445 188.375 166.599C187.848 166.405 187.335 166.171 186.773 166.072C186.618 165.897 186.389 165.882 186.19 165.818C184.035 165.101 181.839 164.513 179.639 163.951C179.455 163.936 179.276 163.896 179.117 163.807C178.086 163.583 177.056 163.354 176.03 163.13C174.124 162.716 172.207 162.358 170.286 162.034C168.862 161.796 167.433 161.572 166.005 161.357C164.89 161.193 163.775 161.024 162.65 160.944C162.465 160.914 162.281 160.88 162.092 160.855C158.154 160.372 154.212 160.008 150.254 159.735C147.671 159.56 145.087 159.421 142.499 159.321C139.119 159.192 135.734 159.132 132.349 159.132C128.152 159.132 123.961 159.237 119.775 159.441C114.936 159.675 110.108 160.043 105.294 160.581C104.507 160.671 103.711 160.72 102.934 160.89C102.775 160.845 102.621 160.89 102.461 160.904C99.0316 161.328 95.6168 161.85 92.2223 162.492C90.2162 162.871 88.2201 163.289 86.2388 163.762L86.199 163.827C86.199 163.827 85.6863 171.204 86.8213 178.407C88.7776 178.87 90.7439 179.283 92.7151 179.651C94.4773 179.98 96.244 180.293 98.0211 180.547C100.51 180.906 103.004 181.269 105.508 181.528C107.942 181.782 110.371 182.046 112.811 182.225C114.254 182.329 115.693 182.454 117.136 182.539C119.272 182.663 121.412 182.768 123.548 182.842C125.499 182.912 127.451 182.967 129.402 182.992C132.523 183.031 135.649 183.016 138.77 182.952C141.777 182.887 144.784 182.773 147.785 182.603C151.365 182.404 154.939 182.12 158.508 181.752C163.949 181.19 169.36 180.433 174.721 179.363C179.405 178.427 184.035 177.282 188.525 175.629C190.481 174.912 192.398 174.091 194.22 173.075C195.145 172.563 196.041 172.005 196.878 171.353V171.358Z" fill="url(#paint0_linear_1239_2)"/>
</g>
</g>
<defs>
<linearGradient id="paint0_linear_1239_2" x1="141.818" y1="161.875" x2="141.127" y2="179.731" gradientUnits="userSpaceOnUse">
<stop offset="0.16" stop-color="#191919"/>
<stop offset="0.97" stop-color="#191919" stop-opacity="0"/>
</linearGradient>
<clipPath id="clip0_1239_2">
<rect width="256" height="256" fill="white"/>
</clipPath>
</defs>
</svg>
