<?xml version="1.0" encoding="utf-8"?>
<!-- Generator: Adobe Illustrator 25.3.1, SVG Export Plug-In . SVG Version: 6.00 Build 0)  -->
<svg version="1.1" id="Layer_1" xmlns="http://www.w3.org/2000/svg" xmlns:xlink="http://www.w3.org/1999/xlink" x="0px" y="0px"
	 viewBox="0 0 202.3 202.3" style="enable-background:new 0 0 202.3 202.3;" xml:space="preserve">
<style type="text/css">
	.st0{fill:#352B1B;}
	.st1{fill:#B7A38E;}
	.st2{fill:#6A5C52;}
	.st3{fill:#312A1D;}
</style>
<g id="Artboard_1">
	<path class="st0" d="M54,170.1l-4.7-4.7v-15.2h5.8v12.9l1.2,1.2l1.2-1.2v-12.9h5.8v12.9l1.2,1.1l1.2-1.2v-12.9h5.8v15.2l-4.7,4.7
		h-4.7l-1.8-1.8l-1.8,1.8L54,170.1z"/>
	<path class="st0" d="M73.1,170.1v-19.9h14.1v19.9H73.1z M81.3,164.3v-8.2h-2.3v8.2H81.3z"/>
	<path class="st0" d="M88.6,170.1v-19.9h4.7l4.2,4.2l4.2-4.2h4.7v19.9h-5.9v-10.5l-3.1,3.1l-3.1-3.1v10.5H88.6z"/>
	<path class="st0" d="M107.9,170.1v-19.9h11.7l2.3,2.3v5.9l-2.3,2.3l2.3,2.3v4.7l-2.3,2.3L107.9,170.1z M116.1,158.4v-2.3h-2.3v2.3
		H116.1z M116.1,164.3v-2.4h-2.3v2.4H116.1z"/>
	<path class="st0" d="M123.4,170.1v-19.9h14.1v19.9h-5.9v-4h-2.3v4H123.4z M131.6,160.8v-4.7h-2.3v4.7H131.6z"/>
	<path class="st0" d="M142.5,170.1v-14H139v-5.9h14v5.9h-3.5v14H142.5z"/>
	<rect x="49.4" y="41.1" class="st1" width="103.6" height="91.6"/>
	<rect x="49.4" y="117.4" class="st2" width="18.3" height="6.2"/>
	<rect x="134.7" y="117.4" class="st2" width="18.2" height="6.2"/>
	<rect x="67.6" y="126.6" class="st2" width="67" height="6.1"/>
	<rect x="76.8" y="41.1" class="st3" width="48.8" height="8.9"/>
	<polygon class="st3" points="143.8,68.6 152.9,68.6 152.9,41.1 152.9,32.1 143.8,32.1 125.6,32.1 125.6,41.1 143.8,41.1 	"/>
	<rect x="152.9" y="68.6" class="st3" width="9.1" height="54.9"/>
	<polygon class="st3" points="58.5,41.1 76.8,41.1 76.8,32.1 58.5,32.1 49.4,32.1 49.4,41.1 49.4,68.6 58.5,68.6 	"/>
	<polygon class="st3" points="58.5,123.6 49.4,123.6 49.4,132.7 58.5,132.7 67.6,132.7 67.6,123.6 	"/>
	<rect x="67.6" y="132.7" class="st3" width="67" height="9.1"/>
	<polygon class="st3" points="134.7,123.6 134.7,132.7 143.8,132.7 152.9,132.7 152.9,123.6 143.8,123.6 	"/>
	<rect x="40.2" y="68.6" class="st3" width="9.1" height="54.9"/>
	<polygon class="st2" points="134.7,44.2 131.7,44.2 131.7,50.4 134.7,50.4 134.7,53.4 140.8,53.4 140.8,50.4 140.8,44.2 	"/>
	<polygon class="st2" points="70.8,44.2 67.8,44.2 61.7,44.2 61.7,50.4 61.7,53.4 67.8,53.4 67.8,50.4 70.8,50.4 	"/>
	<rect x="76.8" y="83.9" class="st3" width="9.3" height="9.3"/>
	<rect x="88.9" y="93" class="st3" width="6.2" height="6.2"/>
	<rect x="107.3" y="93" class="st3" width="6.2" height="6.2"/>
	<polygon class="st3" points="113.4,111.3 107.3,111.3 107.3,108.3 95,108.3 95,111.3 88.9,111.3 88.9,99.2 82.7,99.2 82.7,120.4 
		88.9,120.4 88.9,123.6 95,123.6 95,126.6 98,126.6 98,129.5 104.1,129.5 104.1,126.6 107.3,126.6 107.3,123.6 113.4,123.6 
		113.4,120.4 119.6,120.4 119.6,99.2 113.4,99.2 	"/>
	<rect x="116.2" y="83.9" class="st3" width="9.3" height="9.3"/>
</g>
</svg>
