<svg width="500" height="500" viewBox="0 0 500 500" fill="none" xmlns="http://www.w3.org/2000/svg">
<g clip-path="url(#clip0_636_1191)">
<path d="M500 0H0V500H500V0Z" fill="white"/>
<mask id="mask0_636_1191" style="mask-type:luminance" maskUnits="userSpaceOnUse" x="18" y="18" width="464" height="464">
<path d="M34 178V162H26C23.8783 162 21.8434 162.843 20.3431 164.343C18.8429 165.843 18 167.878 18 170C18 172.122 18.8429 174.157 20.3431 175.657C21.8434 177.157 23.8783 178 26 178" fill="white"/>
<path d="M18 258H34V250C34 247.878 33.1572 245.843 31.6569 244.343C30.1566 242.843 28.1217 242 26 242C23.8783 242 21.8434 242.843 20.3431 244.343C18.8428 245.843 18 247.878 18 250" fill="white"/>
<path d="M34 258H18V274H34V258Z" fill="white"/>
<path d="M34 274H18V282C18 284.122 18.8428 286.157 20.3431 287.657C21.8434 289.157 23.8783 290 26 290C28.1217 290 30.1566 289.157 31.6569 287.657C33.1572 286.157 34 284.122 34 282" fill="white"/>
<path d="M18 322H34V306H26C23.8783 306 21.8434 306.843 20.3431 308.343C18.8428 309.843 18 311.878 18 314" fill="white"/>
<path d="M34 322H18V338H34V322Z" fill="white"/>
<path d="M34 338H18V346C18 348.122 18.8428 350.157 20.3431 351.657C21.8434 353.157 23.8783 354 26 354C28.1217 354 30.1566 353.157 31.6569 351.657C33.1572 350.157 34 348.122 34 346" fill="white"/>
<path d="M50 162H34V178H50V162Z" fill="white"/>
<path d="M34 210H50V202C50 199.878 49.1572 197.843 47.6569 196.343C46.1566 194.843 44.1217 194 42 194C39.8783 194 37.8434 194.843 36.3431 196.343C34.8428 197.843 34 199.878 34 202" fill="white"/>
<path d="M50 210H34V218C34 220.122 34.8428 222.157 36.3431 223.657C37.8434 225.157 39.8783 226 42 226C44.1217 226 46.1566 225.157 47.6569 223.657C49.1572 222.157 50 220.122 50 218" fill="white"/>
<path d="M34 306V322H50V314C50 311.878 49.1571 309.843 47.6569 308.343C46.1566 306.843 44.1217 306 42 306" fill="white"/>
<path d="M50 322H34V338H42C44.1217 338 46.1566 337.157 47.6569 335.657C49.1572 334.157 50 332.122 50 330" fill="white"/>
<path d="M50 162H66V154C66 151.878 65.1572 149.843 63.6569 148.343C62.1566 146.843 60.1217 146 58 146C55.8783 146 53.8434 146.843 52.3431 148.343C50.8428 149.843 50 151.878 50 154" fill="white"/>
<path d="M66 162H50V178H66V162Z" fill="white"/>
<path d="M66 178H50V186C50 188.122 50.8428 190.157 52.3431 191.657C53.8434 193.157 55.8783 194 58 194C60.1217 194 62.1566 193.157 63.6569 191.657C65.1572 190.157 66 188.122 66 186" fill="white"/>
<path d="M58 274C62.4183 274 66 270.418 66 266C66 261.582 62.4183 258 58 258C53.5817 258 50 261.582 50 266C50 270.418 53.5817 274 58 274Z" fill="white"/>
<path d="M58 306C62.4183 306 66 302.418 66 298C66 293.582 62.4183 290 58 290C53.5817 290 50 293.582 50 298C50 302.418 53.5817 306 58 306Z" fill="white"/>
<path d="M66 354V338H58C55.8783 338 53.8434 338.843 52.3431 340.343C50.8429 341.843 50 343.878 50 346C50 348.122 50.8429 350.157 52.3431 351.657C53.8434 353.157 55.8783 354 58 354" fill="white"/>
<path d="M82 162H66V178H82V162Z" fill="white"/>
<path d="M82 258V242H74C71.8783 242 69.8434 242.843 68.3431 244.343C66.8429 245.843 66 247.878 66 250C66 252.122 66.8429 254.157 68.3431 255.657C69.8434 257.157 71.8783 258 74 258" fill="white"/>
<path d="M74 290C78.4183 290 82 286.418 82 282C82 277.582 78.4183 274 74 274C69.5817 274 66 277.582 66 282C66 286.418 69.5817 290 74 290Z" fill="white"/>
<path d="M66 338H82V330C82 327.878 81.1572 325.843 79.6569 324.343C78.1566 322.843 76.1217 322 74 322C71.8783 322 69.8434 322.843 68.3431 324.343C66.8428 325.843 66 327.878 66 330" fill="white"/>
<path d="M82 338H66V354H74C76.1217 354 78.1566 353.157 79.6569 351.657C81.1572 350.157 82 348.122 82 346" fill="white"/>
<path d="M82 162H98V146H90C87.8783 146 85.8434 146.843 84.3431 148.343C82.8428 149.843 82 151.878 82 154" fill="white"/>
<path d="M98 162H82V178H98V162Z" fill="white"/>
<path d="M98 178H82V186C82 188.122 82.8428 190.157 84.3431 191.657C85.8434 193.157 87.8783 194 90 194C92.1217 194 94.1566 193.157 95.6569 191.657C97.1572 190.157 98 188.122 98 186" fill="white"/>
<path d="M98 242H82V258H98V242Z" fill="white"/>
<path d="M82 306H98V290H90C87.8783 290 85.8434 290.843 84.3431 292.343C82.8428 293.843 82 295.878 82 298" fill="white"/>
<path d="M98 306H82V314C82 316.122 82.8428 318.157 84.3431 319.657C85.8434 321.157 87.8783 322 90 322C92.1217 322 94.1566 321.157 95.6569 319.657C97.1572 318.157 98 316.122 98 314" fill="white"/>
<path d="M114 146H98V162H114V146Z" fill="white"/>
<path d="M114 162H98V178H106C108.122 178 110.157 177.157 111.657 175.657C113.157 174.157 114 172.122 114 170" fill="white"/>
<path d="M114 226V210H106C103.878 210 101.843 210.843 100.343 212.343C98.8429 213.843 98 215.878 98 218C98 220.122 98.8429 222.157 100.343 223.657C101.843 225.157 103.878 226 106 226" fill="white"/>
<path d="M114 242H98V258H114V242Z" fill="white"/>
<path d="M114 258H98V266C98 268.122 98.8428 270.157 100.343 271.657C101.843 273.157 103.878 274 106 274C108.122 274 110.157 273.157 111.657 271.657C113.157 270.157 114 268.122 114 266" fill="white"/>
<path d="M98 290V306H106C108.122 306 110.157 305.157 111.657 303.657C113.157 302.157 114 300.122 114 298C114 295.878 113.157 293.843 111.657 292.343C110.157 290.843 108.122 290 106 290" fill="white"/>
<path d="M98 338H114V330C114 327.878 113.157 325.843 111.657 324.343C110.157 322.843 108.122 322 106 322C103.878 322 101.843 322.843 100.343 324.343C98.8428 325.843 98 327.878 98 330" fill="white"/>
<path d="M114 354V338H98V346C98 348.122 98.8429 350.157 100.343 351.657C101.843 353.157 103.878 354 106 354" fill="white"/>
<path d="M114 146V162H122C124.122 162 126.157 161.157 127.657 159.657C129.157 158.157 130 156.122 130 154C130 151.878 129.157 149.843 127.657 148.343C126.157 146.843 124.122 146 122 146" fill="white"/>
<path d="M130 194V178H122C119.878 178 117.843 178.843 116.343 180.343C114.843 181.843 114 183.878 114 186C114 188.122 114.843 190.157 116.343 191.657C117.843 193.157 119.878 194 122 194" fill="white"/>
<path d="M114 210V226H122C124.122 226 126.157 225.157 127.657 223.657C129.157 222.157 130 220.122 130 218C130 215.878 129.157 213.843 127.657 212.343C126.157 210.843 124.122 210 122 210" fill="white"/>
<path d="M114 242V258H122C124.122 258 126.157 257.157 127.657 255.657C129.157 254.157 130 252.122 130 250C130 247.878 129.157 245.843 127.657 244.343C126.157 242.843 124.122 242 122 242" fill="white"/>
<path d="M130 290V274H122C119.878 274 117.843 274.843 116.343 276.343C114.843 277.843 114 279.878 114 282C114 284.122 114.843 286.157 116.343 287.657C117.843 289.157 119.878 290 122 290" fill="white"/>
<path d="M122 322C126.418 322 130 318.418 130 314C130 309.582 126.418 306 122 306C117.582 306 114 309.582 114 314C114 318.418 117.582 322 122 322Z" fill="white"/>
<path d="M114 338V354H122C124.122 354 126.157 353.157 127.657 351.657C129.157 350.157 130 348.122 130 346C130 343.878 129.157 341.843 127.657 340.343C126.157 338.843 124.122 338 122 338" fill="white"/>
<path d="M146 178H130V194H146V178Z" fill="white"/>
<path d="M146 194H130V202C130 204.122 130.843 206.157 132.343 207.657C133.843 209.157 135.878 210 138 210C140.122 210 142.157 209.157 143.657 207.657C145.157 206.157 146 204.122 146 202" fill="white"/>
<path d="M130 274H146V266C146 263.878 145.157 261.843 143.657 260.343C142.157 258.843 140.122 258 138 258C135.878 258 133.843 258.843 132.343 260.343C130.843 261.843 130 263.878 130 266" fill="white"/>
<path d="M146 274H130V290H138C140.122 290 142.157 289.157 143.657 287.657C145.157 286.157 146 284.122 146 282" fill="white"/>
<path d="M154 50C158.418 50 162 46.4183 162 42C162 37.5817 158.418 34 154 34C149.582 34 146 37.5817 146 42C146 46.4183 149.582 50 154 50Z" fill="white"/>
<path d="M162 98V82H154C151.878 82 149.843 82.8429 148.343 84.3431C146.843 85.8434 146 87.8783 146 90C146 92.1217 146.843 94.1566 148.343 95.6569C149.843 97.1571 151.878 98 154 98" fill="white"/>
<path d="M154 130C158.418 130 162 126.418 162 122C162 117.582 158.418 114 154 114C149.582 114 146 117.582 146 122C146 126.418 149.582 130 154 130Z" fill="white"/>
<path d="M146 162H162V146H154C151.878 146 149.843 146.843 148.343 148.343C146.843 149.843 146 151.878 146 154" fill="white"/>
<path d="M162 162H146V178H162V162Z" fill="white"/>
<path d="M162 178H146V194H162V178Z" fill="white"/>
<path d="M146 338H162V330C162 327.878 161.157 325.843 159.657 324.343C158.157 322.843 156.122 322 154 322C151.878 322 149.843 322.843 148.343 324.343C146.843 325.843 146 327.878 146 330" fill="white"/>
<path d="M162 338H146V354H162V338Z" fill="white"/>
<path d="M162 370V354H146V362C146 364.122 146.843 366.157 148.343 367.657C149.843 369.157 151.878 370 154 370" fill="white"/>
<path d="M146 402H162V386H154C151.878 386 149.843 386.843 148.343 388.343C146.843 389.843 146 391.878 146 394" fill="white"/>
<path d="M162 418V402H146V410C146 412.122 146.843 414.157 148.343 415.657C149.843 417.157 151.878 418 154 418" fill="white"/>
<path d="M162 450V434H154C151.878 434 149.843 434.843 148.343 436.343C146.843 437.843 146 439.878 146 442C146 444.122 146.843 446.157 148.343 447.657C149.843 449.157 151.878 450 154 450" fill="white"/>
<path d="M170 34C174.418 34 178 30.4183 178 26C178 21.5817 174.418 18 170 18C165.582 18 162 21.5817 162 26C162 30.4183 165.582 34 170 34Z" fill="white"/>
<path d="M162 82V98H170C172.122 98 174.157 97.1571 175.657 95.6569C177.157 94.1566 178 92.1217 178 90C178 87.8783 177.157 85.8434 175.657 84.3431C174.157 82.8429 172.122 82 170 82" fill="white"/>
<path d="M162 146V162H178V154C178 151.878 177.157 149.843 175.657 148.343C174.157 146.843 172.122 146 170 146" fill="white"/>
<path d="M178 162H162V178H178V162Z" fill="white"/>
<path d="M178 178H162V194H178V178Z" fill="white"/>
<path d="M178 210V194H162V202C162 204.122 162.843 206.157 164.343 207.657C165.843 209.157 167.878 210 170 210" fill="white"/>
<path d="M162 242H178V234C178 231.878 177.157 229.843 175.657 228.343C174.157 226.843 172.122 226 170 226C167.878 226 165.843 226.843 164.343 228.343C162.843 229.843 162 231.878 162 234" fill="white"/>
<path d="M178 242H162V250C162 252.122 162.843 254.157 164.343 255.657C165.843 257.157 167.878 258 170 258C172.122 258 174.157 257.157 175.657 255.657C177.157 254.157 178 252.122 178 250" fill="white"/>
<path d="M162 306H178V298C178 295.878 177.157 293.843 175.657 292.343C174.157 290.843 172.122 290 170 290C167.878 290 165.843 290.843 164.343 292.343C162.843 293.843 162 295.878 162 298" fill="white"/>
<path d="M178 322V306H162V314C162 316.122 162.843 318.157 164.343 319.657C165.843 321.157 167.878 322 170 322" fill="white"/>
<path d="M178 354H162V370H178V354Z" fill="white"/>
<path d="M178 370H162V386H178V370Z" fill="white"/>
<path d="M178 386H162V402H178V386Z" fill="white"/>
<path d="M178 402H162V418H178V402Z" fill="white"/>
<path d="M178 418H162V434H178V418Z" fill="white"/>
<path d="M178 434H162V450H178V434Z" fill="white"/>
<path d="M178 450H162V466H178V450Z" fill="white"/>
<path d="M178 482V466H162V474C162 476.122 162.843 478.157 164.343 479.657C165.843 481.157 167.878 482 170 482" fill="white"/>
<path d="M178 66H194V50H186C183.878 50 181.843 50.8428 180.343 52.3431C178.843 53.8434 178 55.8783 178 58" fill="white"/>
<path d="M194 66H178V74C178 76.1217 178.843 78.1566 180.343 79.6569C181.843 81.1572 183.878 82 186 82C188.122 82 190.157 81.1572 191.657 79.6569C193.157 78.1566 194 76.1217 194 74" fill="white"/>
<path d="M178 130H194V122C194 119.878 193.157 117.843 191.657 116.343C190.157 114.843 188.122 114 186 114C183.878 114 181.843 114.843 180.343 116.343C178.843 117.843 178 119.878 178 122" fill="white"/>
<path d="M194 130H178V138C178 140.122 178.843 142.157 180.343 143.657C181.843 145.157 183.878 146 186 146C188.122 146 190.157 145.157 191.657 143.657C193.157 142.157 194 140.122 194 138" fill="white"/>
<path d="M178 178V194H194V186C194 183.878 193.157 181.843 191.657 180.343C190.157 178.843 188.122 178 186 178" fill="white"/>
<path d="M194 194H178V210H194V194Z" fill="white"/>
<path d="M194 210H178V218C178 220.122 178.843 222.157 180.343 223.657C181.843 225.157 183.878 226 186 226C188.122 226 190.157 225.157 191.657 223.657C193.157 222.157 194 220.122 194 218" fill="white"/>
<path d="M178 306V322H186C188.122 322 190.157 321.157 191.657 319.657C193.157 318.157 194 316.122 194 314C194 311.878 193.157 309.843 191.657 308.343C190.157 306.843 188.122 306 186 306" fill="white"/>
<path d="M178 354H194V338H186C183.878 338 181.843 338.843 180.343 340.343C178.843 341.843 178 343.878 178 346" fill="white"/>
<path d="M194 354H178V370H194V354Z" fill="white"/>
<path d="M178 434V450H186C188.122 450 190.157 449.157 191.657 447.657C193.157 446.157 194 444.122 194 442C194 439.878 193.157 437.843 191.657 436.343C190.157 434.843 188.122 434 186 434" fill="white"/>
<path d="M194 466H178V482H194V466Z" fill="white"/>
<path d="M202 34C206.418 34 210 30.4183 210 26C210 21.5817 206.418 18 202 18C197.582 18 194 21.5817 194 26C194 30.4183 197.582 34 202 34Z" fill="white"/>
<path d="M210 50H194V66H210V50Z" fill="white"/>
<path d="M202 114C206.418 114 210 110.418 210 106C210 101.582 206.418 98 202 98C197.582 98 194 101.582 194 106C194 110.418 197.582 114 202 114Z" fill="white"/>
<path d="M202 162C206.418 162 210 158.418 210 154C210 149.582 206.418 146 202 146C197.582 146 194 149.582 194 154C194 158.418 197.582 162 202 162Z" fill="white"/>
<path d="M194 194V210H202C204.122 210 206.157 209.157 207.657 207.657C209.157 206.157 210 204.122 210 202C210 199.878 209.157 197.843 207.657 196.343C206.157 194.843 204.122 194 202 194" fill="white"/>
<path d="M202 242C206.418 242 210 238.418 210 234C210 229.582 206.418 226 202 226C197.582 226 194 229.582 194 234C194 238.418 197.582 242 202 242Z" fill="white"/>
<path d="M194 274H210V266C210 263.878 209.157 261.843 207.657 260.343C206.157 258.843 204.122 258 202 258C199.878 258 197.843 258.843 196.343 260.343C194.843 261.843 194 263.878 194 266" fill="white"/>
<path d="M210 274H194V290H210V274Z" fill="white"/>
<path d="M210 306V290H194V298C194 300.122 194.843 302.157 196.343 303.657C197.843 305.157 199.878 306 202 306" fill="white"/>
<path d="M194 338H210V330C210 327.878 209.157 325.843 207.657 324.343C206.157 322.843 204.122 322 202 322C199.878 322 197.843 322.843 196.343 324.343C194.843 325.843 194 327.878 194 330" fill="white"/>
<path d="M210 338H194V354H210V338Z" fill="white"/>
<path d="M210 354H194V370H202C204.122 370 206.157 369.157 207.657 367.657C209.157 366.157 210 364.122 210 362" fill="white"/>
<path d="M210 434V418H202C199.878 418 197.843 418.843 196.343 420.343C194.843 421.843 194 423.878 194 426C194 428.122 194.843 430.157 196.343 431.657C197.843 433.157 199.878 434 202 434" fill="white"/>
<path d="M194 466H210V458C210 455.878 209.157 453.843 207.657 452.343C206.157 450.843 204.122 450 202 450C199.878 450 197.843 450.843 196.343 452.343C194.843 453.843 194 455.878 194 458" fill="white"/>
<path d="M210 466H194V482H210V466Z" fill="white"/>
<path d="M210 50V66H218C220.122 66 222.157 65.1571 223.657 63.6569C225.157 62.1566 226 60.1217 226 58C226 55.8783 225.157 53.8434 223.657 52.3431C222.157 50.8429 220.122 50 218 50" fill="white"/>
<path d="M218 98C222.418 98 226 94.4183 226 90C226 85.5817 222.418 82 218 82C213.582 82 210 85.5817 210 90C210 94.4183 213.582 98 218 98Z" fill="white"/>
<path d="M218 130C222.418 130 226 126.418 226 122C226 117.582 222.418 114 218 114C213.582 114 210 117.582 210 122C210 126.418 213.582 130 218 130Z" fill="white"/>
<path d="M226 194V178H218C215.878 178 213.843 178.843 212.343 180.343C210.843 181.843 210 183.878 210 186C210 188.122 210.843 190.157 212.343 191.657C213.843 193.157 215.878 194 218 194" fill="white"/>
<path d="M218 258C222.418 258 226 254.418 226 250C226 245.582 222.418 242 218 242C213.582 242 210 245.582 210 250C210 254.418 213.582 258 218 258Z" fill="white"/>
<path d="M210 290V306H218C220.122 306 222.157 305.157 223.657 303.657C225.157 302.157 226 300.122 226 298C226 295.878 225.157 293.843 223.657 292.343C222.157 290.843 220.122 290 218 290" fill="white"/>
<path d="M218 402C222.418 402 226 398.418 226 394C226 389.582 222.418 386 218 386C213.582 386 210 389.582 210 394C210 398.418 213.582 402 218 402Z" fill="white"/>
<path d="M210 418V434H218C220.122 434 222.157 433.157 223.657 431.657C225.157 430.157 226 428.122 226 426C226 423.878 225.157 421.843 223.657 420.343C222.157 418.843 220.122 418 218 418" fill="white"/>
<path d="M226 466H210V482H226V466Z" fill="white"/>
<path d="M226 34H242V26C242 23.8783 241.157 21.8434 239.657 20.3431C238.157 18.8428 236.122 18 234 18C231.878 18 229.843 18.8428 228.343 20.3431C226.843 21.8434 226 23.8783 226 26" fill="white"/>
<path d="M242 34H226V42C226 44.1217 226.843 46.1566 228.343 47.6569C229.843 49.1572 231.878 50 234 50C236.122 50 238.157 49.1572 239.657 47.6569C241.157 46.1566 242 44.1217 242 42" fill="white"/>
<path d="M242 82V66H234C231.878 66 229.843 66.8429 228.343 68.3431C226.843 69.8434 226 71.8783 226 74C226 76.1217 226.843 78.1566 228.343 79.6569C229.843 81.1571 231.878 82 234 82" fill="white"/>
<path d="M234 114C238.418 114 242 110.418 242 106C242 101.582 238.418 98 234 98C229.582 98 226 101.582 226 106C226 110.418 229.582 114 234 114Z" fill="white"/>
<path d="M234 146C238.418 146 242 142.418 242 138C242 133.582 238.418 130 234 130C229.582 130 226 133.582 226 138C226 142.418 229.582 146 234 146Z" fill="white"/>
<path d="M226 178H242V162H234C231.878 162 229.843 162.843 228.343 164.343C226.843 165.843 226 167.878 226 170" fill="white"/>
<path d="M242 178H226V194H242V178Z" fill="white"/>
<path d="M234 242C238.418 242 242 238.418 242 234C242 229.582 238.418 226 234 226C229.582 226 226 229.582 226 234C226 238.418 229.582 242 234 242Z" fill="white"/>
<path d="M226 274H242V258H234C231.878 258 229.843 258.843 228.343 260.343C226.843 261.843 226 263.878 226 266" fill="white"/>
<path d="M242 290V274H226V282C226 284.122 226.843 286.157 228.343 287.657C229.843 289.157 231.878 290 234 290" fill="white"/>
<path d="M242 386V370H234C231.878 370 229.843 370.843 228.343 372.343C226.843 373.843 226 375.878 226 378C226 380.122 226.843 382.157 228.343 383.657C229.843 385.157 231.878 386 234 386" fill="white"/>
<path d="M242 418V402H234C231.878 402 229.843 402.843 228.343 404.343C226.843 405.843 226 407.878 226 410C226 412.122 226.843 414.157 228.343 415.657C229.843 417.157 231.878 418 234 418" fill="white"/>
<path d="M226 450H242V442C242 439.878 241.157 437.843 239.657 436.343C238.157 434.843 236.122 434 234 434C231.878 434 229.843 434.843 228.343 436.343C226.843 437.843 226 439.878 226 442" fill="white"/>
<path d="M242 450H226V466H242V450Z" fill="white"/>
<path d="M242 466H226V482H242V466Z" fill="white"/>
<path d="M242 66H258V58C258 55.8783 257.157 53.8434 255.657 52.3431C254.157 50.8428 252.122 50 250 50C247.878 50 245.843 50.8428 244.343 52.3431C242.843 53.8434 242 55.8783 242 58" fill="white"/>
<path d="M258 66H242V82H250C252.122 82 254.157 81.1572 255.657 79.6569C257.157 78.1566 258 76.1217 258 74" fill="white"/>
<path d="M250 130C254.418 130 258 126.418 258 122C258 117.582 254.418 114 250 114C245.582 114 242 117.582 242 122C242 126.418 245.582 130 250 130Z" fill="white"/>
<path d="M258 162H242V178H258V162Z" fill="white"/>
<path d="M258 178H242V194H258V178Z" fill="white"/>
<path d="M250 226C254.418 226 258 222.418 258 218C258 213.582 254.418 210 250 210C245.582 210 242 213.582 242 218C242 222.418 245.582 226 250 226Z" fill="white"/>
<path d="M258 258H242V274H258V258Z" fill="white"/>
<path d="M258 274H242V290H258V274Z" fill="white"/>
<path d="M258 306V290H242V298C242 300.122 242.843 302.157 244.343 303.657C245.843 305.157 247.878 306 250 306" fill="white"/>
<path d="M242 354H258V346C258 343.878 257.157 341.843 255.657 340.343C254.157 338.843 252.122 338 250 338C247.878 338 245.843 338.843 244.343 340.343C242.843 341.843 242 343.878 242 346" fill="white"/>
<path d="M258 354H242V370H258V354Z" fill="white"/>
<path d="M258 370H242V386H250C252.122 386 254.157 385.157 255.657 383.657C257.157 382.157 258 380.122 258 378" fill="white"/>
<path d="M242 402V418H250C252.122 418 254.157 417.157 255.657 415.657C257.157 414.157 258 412.122 258 410C258 407.878 257.157 405.843 255.657 404.343C254.157 402.843 252.122 402 250 402" fill="white"/>
<path d="M258 466H242V482H258V466Z" fill="white"/>
<path d="M266 50C270.418 50 274 46.4183 274 42C274 37.5817 270.418 34 266 34C261.582 34 258 37.5817 258 42C258 46.4183 261.582 50 266 50Z" fill="white"/>
<path d="M274 114V98H266C263.878 98 261.843 98.8429 260.343 100.343C258.843 101.843 258 103.878 258 106C258 108.122 258.843 110.157 260.343 111.657C261.843 113.157 263.878 114 266 114" fill="white"/>
<path d="M266 146C270.418 146 274 142.418 274 138C274 133.582 270.418 130 266 130C261.582 130 258 133.582 258 138C258 142.418 261.582 146 266 146Z" fill="white"/>
<path d="M274 162H258V178H274V162Z" fill="white"/>
<path d="M274 178H258V194H274V178Z" fill="white"/>
<path d="M258 242H274V226H266C263.878 226 261.843 226.843 260.343 228.343C258.843 229.843 258 231.878 258 234" fill="white"/>
<path d="M274 242H258V258H274V242Z" fill="white"/>
<path d="M274 258H258V274H274V258Z" fill="white"/>
<path d="M274 274H258V290H274V274Z" fill="white"/>
<path d="M274 290H258V306H274V290Z" fill="white"/>
<path d="M274 322V306H258V314C258 316.122 258.843 318.157 260.343 319.657C261.843 321.157 263.878 322 266 322" fill="white"/>
<path d="M258 354V370H266C268.122 370 270.157 369.157 271.657 367.657C273.157 366.157 274 364.122 274 362C274 359.878 273.157 357.843 271.657 356.343C270.157 354.843 268.122 354 266 354" fill="white"/>
<path d="M266 402C270.418 402 274 398.418 274 394C274 389.582 270.418 386 266 386C261.582 386 258 389.582 258 394C258 398.418 261.582 402 266 402Z" fill="white"/>
<path d="M266 434C270.418 434 274 430.418 274 426C274 421.582 270.418 418 266 418C261.582 418 258 421.582 258 426C258 430.418 261.582 434 266 434Z" fill="white"/>
<path d="M258 466H274V450H266C263.878 450 261.843 450.843 260.343 452.343C258.843 453.843 258 455.878 258 458" fill="white"/>
<path d="M274 466H258V482H266C268.122 482 270.157 481.157 271.657 479.657C273.157 478.157 274 476.122 274 474" fill="white"/>
<path d="M274 82H290V66H282C279.878 66 277.843 66.8428 276.343 68.3431C274.843 69.8434 274 71.8783 274 74" fill="white"/>
<path d="M290 82H274V98H290V82Z" fill="white"/>
<path d="M290 98H274V114H290V98Z" fill="white"/>
<path d="M290 114H274V122C274 124.122 274.843 126.157 276.343 127.657C277.843 129.157 279.878 130 282 130C284.122 130 286.157 129.157 287.657 127.657C289.157 126.157 290 124.122 290 122" fill="white"/>
<path d="M274 162V178H290V170C290 167.878 289.157 165.843 287.657 164.343C286.157 162.843 284.122 162 282 162" fill="white"/>
<path d="M290 178H274V194H290V178Z" fill="white"/>
<path d="M290 194H274V210H290V194Z" fill="white"/>
<path d="M290 210H274V226H290V210Z" fill="white"/>
<path d="M290 226H274V242H290V226Z" fill="white"/>
<path d="M274 306V322H290V314C290 311.878 289.157 309.843 287.657 308.343C286.157 306.843 284.122 306 282 306" fill="white"/>
<path d="M290 322H274V338H290V322Z" fill="white"/>
<path d="M290 338H274V346C274 348.122 274.843 350.157 276.343 351.657C277.843 353.157 279.878 354 282 354C284.122 354 286.157 353.157 287.657 351.657C289.157 350.157 290 348.122 290 346" fill="white"/>
<path d="M274 450V466H282C284.122 466 286.157 465.157 287.657 463.657C289.157 462.157 290 460.122 290 458C290 455.878 289.157 453.843 287.657 452.343C286.157 450.843 284.122 450 282 450" fill="white"/>
<path d="M298 34C302.418 34 306 30.4183 306 26C306 21.5817 302.418 18 298 18C293.582 18 290 21.5817 290 26C290 30.4183 293.582 34 298 34Z" fill="white"/>
<path d="M290 66V82H306V74C306 71.8783 305.157 69.8434 303.657 68.3431C302.157 66.8429 300.122 66 298 66" fill="white"/>
<path d="M306 82H290V98H306V82Z" fill="white"/>
<path d="M306 98H290V114H306V98Z" fill="white"/>
<path d="M298 162C302.418 162 306 158.418 306 154C306 149.582 302.418 146 298 146C293.582 146 290 149.582 290 154C290 158.418 293.582 162 298 162Z" fill="white"/>
<path d="M306 194H290V210H306V194Z" fill="white"/>
<path d="M306 226H290V242H306V226Z" fill="white"/>
<path d="M306 290V274H298C295.878 274 293.843 274.843 292.343 276.343C290.843 277.843 290 279.878 290 282C290 284.122 290.843 286.157 292.343 287.657C293.843 289.157 295.878 290 298 290" fill="white"/>
<path d="M290 386H306V378C306 375.878 305.157 373.843 303.657 372.343C302.157 370.843 300.122 370 298 370C295.878 370 293.843 370.843 292.343 372.343C290.843 373.843 290 375.878 290 378" fill="white"/>
<path d="M306 386H290V402H306V386Z" fill="white"/>
<path d="M306 402H290V410C290 412.122 290.843 414.157 292.343 415.657C293.843 417.157 295.878 418 298 418C300.122 418 302.157 417.157 303.657 415.657C305.157 414.157 306 412.122 306 410" fill="white"/>
<path d="M306 482V466H298C295.878 466 293.843 466.843 292.343 468.343C290.843 469.843 290 471.878 290 474C290 476.122 290.843 478.157 292.343 479.657C293.843 481.157 295.878 482 298 482" fill="white"/>
<path d="M306 82V98H322V90C322 87.8783 321.157 85.8434 319.657 84.3431C318.157 82.8429 316.122 82 314 82" fill="white"/>
<path d="M322 98H306V114H322V98Z" fill="white"/>
<path d="M322 114H306V130H322V114Z" fill="white"/>
<path d="M322 146V130H306V138C306 140.122 306.843 142.157 308.343 143.657C309.843 145.157 311.878 146 314 146" fill="white"/>
<path d="M322 194H306V210H322V194Z" fill="white"/>
<path d="M306 226V242H314C316.122 242 318.157 241.157 319.657 239.657C321.157 238.157 322 236.122 322 234C322 231.878 321.157 229.843 319.657 228.343C318.157 226.843 316.122 226 314 226" fill="white"/>
<path d="M306 274V290H314C316.122 290 318.157 289.157 319.657 287.657C321.157 286.157 322 284.122 322 282C322 279.878 321.157 277.843 319.657 276.343C318.157 274.843 316.122 274 314 274" fill="white"/>
<path d="M314 354C318.418 354 322 350.418 322 346C322 341.582 318.418 338 314 338C309.582 338 306 341.582 306 346C306 350.418 309.582 354 314 354Z" fill="white"/>
<path d="M306 386V402H314C316.122 402 318.157 401.157 319.657 399.657C321.157 398.157 322 396.122 322 394C322 391.878 321.157 389.843 319.657 388.343C318.157 386.843 316.122 386 314 386" fill="white"/>
<path d="M306 434H322V418H314C311.878 418 309.843 418.843 308.343 420.343C306.843 421.843 306 423.878 306 426" fill="white"/>
<path d="M322 434H306V442C306 444.122 306.843 446.157 308.343 447.657C309.843 449.157 311.878 450 314 450C316.122 450 318.157 449.157 319.657 447.657C321.157 446.157 322 444.122 322 442" fill="white"/>
<path d="M306 466V482H314C316.122 482 318.157 481.157 319.657 479.657C321.157 478.157 322 476.122 322 474C322 471.878 321.157 469.843 319.657 468.343C318.157 466.843 316.122 466 314 466" fill="white"/>
<path d="M322 130V146H330C332.122 146 334.157 145.157 335.657 143.657C337.157 142.157 338 140.122 338 138C338 135.878 337.157 133.843 335.657 132.343C334.157 130.843 332.122 130 330 130" fill="white"/>
<path d="M322 194H338V186C338 183.878 337.157 181.843 335.657 180.343C334.157 178.843 332.122 178 330 178C327.878 178 325.843 178.843 324.343 180.343C322.843 181.843 322 183.878 322 186" fill="white"/>
<path d="M338 194H322V210H330C332.122 210 334.157 209.157 335.657 207.657C337.157 206.157 338 204.122 338 202" fill="white"/>
<path d="M338 258V242H330C327.878 242 325.843 242.843 324.343 244.343C322.843 245.843 322 247.878 322 250C322 252.122 322.843 254.157 324.343 255.657C325.843 257.157 327.878 258 330 258" fill="white"/>
<path d="M322 306H338V290H330C327.878 290 325.843 290.843 324.343 292.343C322.843 293.843 322 295.878 322 298" fill="white"/>
<path d="M338 306H322V322H338V306Z" fill="white"/>
<path d="M338 338V322H322V330C322 332.122 322.843 334.157 324.343 335.657C325.843 337.157 327.878 338 330 338" fill="white"/>
<path d="M322 418V434H330C332.122 434 334.157 433.157 335.657 431.657C337.157 430.157 338 428.122 338 426C338 423.878 337.157 421.843 335.657 420.343C334.157 418.843 332.122 418 330 418" fill="white"/>
<path d="M338 34H354V26C354 23.8783 353.157 21.8434 351.657 20.3431C350.157 18.8428 348.122 18 346 18C343.878 18 341.843 18.8428 340.343 20.3431C338.843 21.8434 338 23.8783 338 26" fill="white"/>
<path d="M354 34H338V42C338 44.1217 338.843 46.1566 340.343 47.6569C341.843 49.1572 343.878 50 346 50C348.122 50 350.157 49.1572 351.657 47.6569C353.157 46.1566 354 44.1217 354 42" fill="white"/>
<path d="M346 130C350.418 130 354 126.418 354 122C354 117.582 350.418 114 346 114C341.582 114 338 117.582 338 122C338 126.418 341.582 130 346 130Z" fill="white"/>
<path d="M354 162V146H346C343.878 146 341.843 146.843 340.343 148.343C338.843 149.843 338 151.878 338 154C338 156.122 338.843 158.157 340.343 159.657C341.843 161.157 343.878 162 346 162" fill="white"/>
<path d="M338 242H354V226H346C343.878 226 341.843 226.843 340.343 228.343C338.843 229.843 338 231.878 338 234" fill="white"/>
<path d="M354 242H338V258H354V242Z" fill="white"/>
<path d="M354 274V258H338V266C338 268.122 338.843 270.157 340.343 271.657C341.843 273.157 343.878 274 346 274" fill="white"/>
<path d="M354 290H338V306H354V290Z" fill="white"/>
<path d="M354 322H338V338H354V322Z" fill="white"/>
<path d="M354 338H338V354H354V338Z" fill="white"/>
<path d="M354 354H338V370H354V354Z" fill="white"/>
<path d="M354 370H338V386H354V370Z" fill="white"/>
<path d="M354 386H338V402H354V386Z" fill="white"/>
<path d="M354 418V402H338V410C338 412.122 338.843 414.157 340.343 415.657C341.843 417.157 343.878 418 346 418" fill="white"/>
<path d="M354 482V466H346C343.878 466 341.843 466.843 340.343 468.343C338.843 469.843 338 471.878 338 474C338 476.122 338.843 478.157 340.343 479.657C341.843 481.157 343.878 482 346 482" fill="white"/>
<path d="M354 146V162H362C364.122 162 366.157 161.157 367.657 159.657C369.157 158.157 370 156.122 370 154C370 151.878 369.157 149.843 367.657 148.343C366.157 146.843 364.122 146 362 146" fill="white"/>
<path d="M354 226V242H362C364.122 242 366.157 241.157 367.657 239.657C369.157 238.157 370 236.122 370 234C370 231.878 369.157 229.843 367.657 228.343C366.157 226.843 364.122 226 362 226" fill="white"/>
<path d="M370 258H354V274H370V258Z" fill="white"/>
<path d="M370 274H354V290H370V274Z" fill="white"/>
<path d="M370 290H354V306H362C364.122 306 366.157 305.157 367.657 303.657C369.157 302.157 370 300.122 370 298" fill="white"/>
<path d="M370 322H354V338H370V322Z" fill="white"/>
<path d="M370 338H354V354H370V338Z" fill="white"/>
<path d="M370 402H354V418H370V402Z" fill="white"/>
<path d="M362 450C366.418 450 370 446.418 370 442C370 437.582 366.418 434 362 434C357.582 434 354 437.582 354 442C354 446.418 357.582 450 362 450Z" fill="white"/>
<path d="M370 466H354V482H370V466Z" fill="white"/>
<path d="M370 194H386V186C386 183.878 385.157 181.843 383.657 180.343C382.157 178.843 380.122 178 378 178C375.878 178 373.843 178.843 372.343 180.343C370.843 181.843 370 183.878 370 186" fill="white"/>
<path d="M386 194H370V210H386V194Z" fill="white"/>
<path d="M386 226V210H370V218C370 220.122 370.843 222.157 372.343 223.657C373.843 225.157 375.878 226 378 226" fill="white"/>
<path d="M370 258H386V250C386 247.878 385.157 245.843 383.657 244.343C382.157 242.843 380.122 242 378 242C375.878 242 373.843 242.843 372.343 244.343C370.843 245.843 370 247.878 370 250" fill="white"/>
<path d="M386 258H370V274H386V258Z" fill="white"/>
<path d="M370 322H386V314C386 311.878 385.157 309.843 383.657 308.343C382.157 306.843 380.122 306 378 306C375.878 306 373.843 306.843 372.343 308.343C370.843 309.843 370 311.878 370 314" fill="white"/>
<path d="M386 322H370V338H386V322Z" fill="white"/>
<path d="M386 338H370V354H386V338Z" fill="white"/>
<path d="M378 386C382.418 386 386 382.418 386 378C386 373.582 382.418 370 378 370C373.582 370 370 373.582 370 378C370 382.418 373.582 386 378 386Z" fill="white"/>
<path d="M386 402H370V418H386V402Z" fill="white"/>
<path d="M386 466H370V482H386V466Z" fill="white"/>
<path d="M402 178V162H394C391.878 162 389.843 162.843 388.343 164.343C386.843 165.843 386 167.878 386 170C386 172.122 386.843 174.157 388.343 175.657C389.843 177.157 391.878 178 394 178" fill="white"/>
<path d="M402 210H386V226H402V210Z" fill="white"/>
<path d="M402 226H386V234C386 236.122 386.843 238.157 388.343 239.657C389.843 241.157 391.878 242 394 242C396.122 242 398.157 241.157 399.657 239.657C401.157 238.157 402 236.122 402 234" fill="white"/>
<path d="M386 258V274H394C396.122 274 398.157 273.157 399.657 271.657C401.157 270.157 402 268.122 402 266C402 263.878 401.157 261.843 399.657 260.343C398.157 258.843 396.122 258 394 258" fill="white"/>
<path d="M402 322H386V338H402V322Z" fill="white"/>
<path d="M402 338H386V354H402V338Z" fill="white"/>
<path d="M402 402H386V418H402V402Z" fill="white"/>
<path d="M402 418H386V426C386 428.122 386.843 430.157 388.343 431.657C389.843 433.157 391.878 434 394 434C396.122 434 398.157 433.157 399.657 431.657C401.157 430.157 402 428.122 402 426" fill="white"/>
<path d="M402 466H386V482H402V466Z" fill="white"/>
<path d="M402 162H418V154C418 151.878 417.157 149.843 415.657 148.343C414.157 146.843 412.122 146 410 146C407.878 146 405.843 146.843 404.343 148.343C402.843 149.843 402 151.878 402 154" fill="white"/>
<path d="M418 162H402V178H418V162Z" fill="white"/>
<path d="M418 194V178H402V186C402 188.122 402.843 190.157 404.343 191.657C405.843 193.157 407.878 194 410 194" fill="white"/>
<path d="M418 210H402V226H418V210Z" fill="white"/>
<path d="M410 290C414.418 290 418 286.418 418 282C418 277.582 414.418 274 410 274C405.582 274 402 277.582 402 282C402 286.418 405.582 290 410 290Z" fill="white"/>
<path d="M402 322V338H418V330C418 327.878 417.157 325.843 415.657 324.343C414.157 322.843 412.122 322 410 322" fill="white"/>
<path d="M418 338H402V354H418V338Z" fill="white"/>
<path d="M418 354H402V370H418V354Z" fill="white"/>
<path d="M418 370H402V386H418V370Z" fill="white"/>
<path d="M418 386H402V402H418V386Z" fill="white"/>
<path d="M418 402H402V418H410C412.122 418 414.157 417.157 415.657 415.657C417.157 414.157 418 412.122 418 410" fill="white"/>
<path d="M402 466V482H410C412.122 482 414.157 481.157 415.657 479.657C417.157 478.157 418 476.122 418 474C418 471.878 417.157 469.843 415.657 468.343C414.157 466.843 412.122 466 410 466" fill="white"/>
<path d="M434 162H418V178H434V162Z" fill="white"/>
<path d="M434 178H418V194H434V178Z" fill="white"/>
<path d="M434 194H418V210H434V194Z" fill="white"/>
<path d="M434 210H418V226H434V210Z" fill="white"/>
<path d="M426 322C430.418 322 434 318.418 434 314C434 309.582 430.418 306 426 306C421.582 306 418 309.582 418 314C418 318.418 421.582 322 426 322Z" fill="white"/>
<path d="M418 386V402H426C428.122 402 430.157 401.157 431.657 399.657C433.157 398.157 434 396.122 434 394C434 391.878 433.157 389.843 431.657 388.343C430.157 386.843 428.122 386 426 386" fill="white"/>
<path d="M418 450H434V442C434 439.878 433.157 437.843 431.657 436.343C430.157 434.843 428.122 434 426 434C423.878 434 421.843 434.843 420.343 436.343C418.843 437.843 418 439.878 418 442" fill="white"/>
<path d="M434 466V450H418V458C418 460.122 418.843 462.157 420.343 463.657C421.843 465.157 423.878 466 426 466" fill="white"/>
<path d="M450 162H434V178H450V162Z" fill="white"/>
<path d="M450 194H434V210H450V194Z" fill="white"/>
<path d="M450 210H434V226H450V210Z" fill="white"/>
<path d="M434 258H450V250C450 247.878 449.157 245.843 447.657 244.343C446.157 242.843 444.122 242 442 242C439.878 242 437.843 242.843 436.343 244.343C434.843 245.843 434 247.878 434 250" fill="white"/>
<path d="M450 274V258H434V266C434 268.122 434.843 270.157 436.343 271.657C437.843 273.157 439.878 274 442 274" fill="white"/>
<path d="M450 306V290H442C439.878 290 437.843 290.843 436.343 292.343C434.843 293.843 434 295.878 434 298C434 300.122 434.843 302.157 436.343 303.657C437.843 305.157 439.878 306 442 306" fill="white"/>
<path d="M434 338H450V330C450 327.878 449.157 325.843 447.657 324.343C446.157 322.843 444.122 322 442 322C439.878 322 437.843 322.843 436.343 324.343C434.843 325.843 434 327.878 434 330" fill="white"/>
<path d="M450 338H434V354H450V338Z" fill="white"/>
<path d="M450 354H434V362C434 364.122 434.843 366.157 436.343 367.657C437.843 369.157 439.878 370 442 370C444.122 370 446.157 369.157 447.657 367.657C449.157 366.157 450 364.122 450 362" fill="white"/>
<path d="M450 434V418H442C439.878 418 437.843 418.843 436.343 420.343C434.843 421.843 434 423.878 434 426C434 428.122 434.843 430.157 436.343 431.657C437.843 433.157 439.878 434 442 434" fill="white"/>
<path d="M450 450H434V466H450V450Z" fill="white"/>
<path d="M450 482V466H434V474C434 476.122 434.843 478.157 436.343 479.657C437.843 481.157 439.878 482 442 482" fill="white"/>
<path d="M450 162H466V154C466 151.878 465.157 149.843 463.657 148.343C462.157 146.843 460.122 146 458 146C455.878 146 453.843 146.843 452.343 148.343C450.843 149.843 450 151.878 450 154" fill="white"/>
<path d="M466 162H450V178H466V162Z" fill="white"/>
<path d="M450 194V210H466V202C466 199.878 465.157 197.843 463.657 196.343C462.157 194.843 460.122 194 458 194" fill="white"/>
<path d="M466 210H450V226H466V210Z" fill="white"/>
<path d="M466 242V226H450V234C450 236.122 450.843 238.157 452.343 239.657C453.843 241.157 455.878 242 458 242" fill="white"/>
<path d="M450 258V274H466V266C466 263.878 465.157 261.843 463.657 260.343C462.157 258.843 460.122 258 458 258" fill="white"/>
<path d="M466 274H450V290H466V274Z" fill="white"/>
<path d="M466 290H450V306H466V290Z" fill="white"/>
<path d="M466 306H450V314C450 316.122 450.843 318.157 452.343 319.657C453.843 321.157 455.878 322 458 322C460.122 322 462.157 321.157 463.657 319.657C465.157 318.157 466 316.122 466 314" fill="white"/>
<path d="M466 338H450V354H466V338Z" fill="white"/>
<path d="M458 402C462.418 402 466 398.418 466 394C466 389.582 462.418 386 458 386C453.582 386 450 389.582 450 394C450 398.418 453.582 402 458 402Z" fill="white"/>
<path d="M450 418V434H458C460.122 434 462.157 433.157 463.657 431.657C465.157 430.157 466 428.122 466 426C466 423.878 465.157 421.843 463.657 420.343C462.157 418.843 460.122 418 458 418" fill="white"/>
<path d="M466 450H450V466H466V450Z" fill="white"/>
<path d="M466 466H450V482H458C460.122 482 462.157 481.157 463.657 479.657C465.157 478.157 466 476.122 466 474" fill="white"/>
<path d="M466 162V178H474C476.122 178 478.157 177.157 479.657 175.657C481.157 174.157 482 172.122 482 170C482 167.878 481.157 165.843 479.657 164.343C478.157 162.843 476.122 162 474 162" fill="white"/>
<path d="M466 226V242H482V234C482 231.878 481.157 229.843 479.657 228.343C478.157 226.843 476.122 226 474 226" fill="white"/>
<path d="M482 242H466V250C466 252.122 466.843 254.157 468.343 255.657C469.843 257.157 471.878 258 474 258C476.122 258 478.157 257.157 479.657 255.657C481.157 254.157 482 252.122 482 250" fill="white"/>
<path d="M466 274V290H482V282C482 279.878 481.157 277.843 479.657 276.343C478.157 274.843 476.122 274 474 274" fill="white"/>
<path d="M482 290H466V306H474C476.122 306 478.157 305.157 479.657 303.657C481.157 302.157 482 300.122 482 298" fill="white"/>
<path d="M466 338V354H474C476.122 354 478.157 353.157 479.657 351.657C481.157 350.157 482 348.122 482 346C482 343.878 481.157 341.843 479.657 340.343C478.157 338.843 476.122 338 474 338" fill="white"/>
<path d="M474 386C478.418 386 482 382.418 482 378C482 373.582 478.418 370 474 370C469.582 370 466 373.582 466 378C466 382.418 469.582 386 474 386Z" fill="white"/>
<path d="M474 418C478.418 418 482 414.418 482 410C482 405.582 478.418 402 474 402C469.582 402 466 405.582 466 410C466 414.418 469.582 418 474 418Z" fill="white"/>
<path d="M466 450V466H474C476.122 466 478.157 465.157 479.657 463.657C481.157 462.157 482 460.122 482 458C482 455.878 481.157 453.843 479.657 452.343C478.157 450.843 476.122 450 474 450" fill="white"/>
</mask>
<g mask="url(#mask0_636_1191)">
<path d="M500 0H0V500H500V0Z" fill="black"/>
</g>
<mask id="mask1_636_1191" style="mask-type:luminance" maskUnits="userSpaceOnUse" x="18" y="18" width="112" height="112">
<path fill-rule="evenodd" clip-rule="evenodd" d="M18 58V90C18 100.609 22.2143 110.783 29.7157 118.284C33.4301 121.999 37.8396 124.945 42.6927 126.955C47.5457 128.965 52.7471 130 58 130H90C100.609 130 110.783 125.786 118.284 118.284C125.786 110.783 130 100.609 130 90V58C130 52.7471 128.965 47.5457 126.955 42.6927C124.945 37.8396 121.999 33.4301 118.284 29.7157C114.57 26.0014 110.16 23.055 105.307 21.0448C100.454 19.0346 95.2529 18 90 18H58C52.7471 18 47.5457 19.0346 42.6927 21.0448C37.8396 23.055 33.4301 26.0014 29.7157 29.7157C22.2143 37.2172 18 47.3913 18 58ZM58 34H90C96.3652 34 102.47 36.5286 106.971 41.0294C111.471 45.5303 114 51.6348 114 58V90C114 96.3652 111.471 102.47 106.971 106.971C102.47 111.471 96.3652 114 90 114H58C51.6348 114 45.5303 111.471 41.0294 106.971C36.5286 102.47 34 96.3652 34 90V58C34 51.6348 36.5286 45.5303 41.0294 41.0294C45.5303 36.5286 51.6348 34 58 34Z" fill="white"/>
</mask>
<g mask="url(#mask1_636_1191)">
<path d="M130 18H18V130H130V18Z" fill="black"/>
</g>
<mask id="mask2_636_1191" style="mask-type:luminance" maskUnits="userSpaceOnUse" x="50" y="50" width="48" height="48">
<path d="M74 98C87.2548 98 98 87.2548 98 74C98 60.7452 87.2548 50 74 50C60.7452 50 50 60.7452 50 74C50 87.2548 60.7452 98 74 98Z" fill="white"/>
</mask>
<g mask="url(#mask2_636_1191)">
<path d="M98 50H50V98H98V50Z" fill="black"/>
</g>
<mask id="mask3_636_1191" style="mask-type:luminance" maskUnits="userSpaceOnUse" x="370" y="18" width="112" height="112">
<path fill-rule="evenodd" clip-rule="evenodd" d="M442 18H410C399.391 18 389.217 22.2143 381.716 29.7157C374.214 37.2172 370 47.3913 370 58V90C370 100.609 374.214 110.783 381.716 118.284C389.217 125.786 399.391 130 410 130H442C447.253 130 452.454 128.965 457.307 126.955C462.16 124.945 466.57 121.999 470.284 118.284C473.999 114.57 476.945 110.16 478.955 105.307C480.965 100.454 482 95.2529 482 90V58C482 47.3913 477.786 37.2172 470.284 29.7157C462.783 22.2143 452.609 18 442 18ZM466 58V90C466 96.3652 463.471 102.47 458.971 106.971C454.47 111.471 448.365 114 442 114H410C403.635 114 397.53 111.471 393.029 106.971C388.529 102.47 386 96.3652 386 90V58C386 51.6348 388.529 45.5303 393.029 41.0294C397.53 36.5286 403.635 34 410 34H442C448.365 34 454.47 36.5286 458.971 41.0294C463.471 45.5303 466 51.6348 466 58Z" fill="white"/>
</mask>
<g mask="url(#mask3_636_1191)">
<path d="M482 18H370V130H482V18Z" fill="black"/>
</g>
<mask id="mask4_636_1191" style="mask-type:luminance" maskUnits="userSpaceOnUse" x="402" y="50" width="48" height="48">
<path d="M402 74C402 87.2548 412.745 98 426 98C439.255 98 450 87.2548 450 74C450 60.7452 439.255 50 426 50C412.745 50 402 60.7452 402 74Z" fill="white"/>
</mask>
<g mask="url(#mask4_636_1191)">
<path d="M450 50H402V98H450V50Z" fill="black"/>
</g>
<mask id="mask5_636_1191" style="mask-type:luminance" maskUnits="userSpaceOnUse" x="18" y="370" width="112" height="112">
<path fill-rule="evenodd" clip-rule="evenodd" d="M58 482H90C100.609 482 110.783 477.786 118.284 470.284C121.999 466.57 124.945 462.16 126.955 457.307C128.965 452.454 130 447.253 130 442V410C130 399.391 125.786 389.217 118.284 381.716C110.783 374.214 100.609 370 90 370H58C47.3913 370 37.2172 374.214 29.7157 381.716C22.2143 389.217 18 399.391 18 410V442C18 447.253 19.0346 452.454 21.0448 457.307C23.055 462.16 26.0014 466.57 29.7157 470.284C37.2172 477.786 47.3913 482 58 482ZM34 442V410C34 403.635 36.5286 397.53 41.0294 393.029C45.5303 388.529 51.6348 386 58 386H90C96.3652 386 102.47 388.529 106.971 393.029C111.471 397.53 114 403.635 114 410V442C114 448.365 111.471 454.47 106.971 458.971C102.47 463.471 96.3652 466 90 466H58C51.6348 466 45.5303 463.471 41.0294 458.971C36.5286 454.47 34 448.365 34 442Z" fill="white"/>
</mask>
<g mask="url(#mask5_636_1191)">
<path d="M130 370H18V482H130V370Z" fill="black"/>
</g>
<mask id="mask6_636_1191" style="mask-type:luminance" maskUnits="userSpaceOnUse" x="50" y="402" width="48" height="48">
<path d="M98 426C98 412.745 87.2548 402 74 402C60.7452 402 50 412.745 50 426C50 439.255 60.7452 450 74 450C87.2548 450 98 439.255 98 426Z" fill="white"/>
</mask>
<g mask="url(#mask6_636_1191)">
<path d="M98 402H50V450H98V402Z" fill="black"/>
</g>
<rect x="194" y="194" width="112" height="112" fill="white"/>
<g clip-path="url(#clip1_636_1191)">
<path d="M269.332 213.718H230.062C225.806 213.718 222.355 217.172 222.355 221.433V278.066C222.355 282.327 225.806 285.782 230.062 285.782H269.332C273.589 285.782 277.039 282.327 277.039 278.066V221.433C277.039 217.172 273.589 213.718 269.332 213.718Z" fill="#E6FA36" stroke="black" stroke-width="1.125" stroke-linecap="round" stroke-linejoin="round"/>
<path d="M240.098 255.369H260.225" stroke="black" stroke-width="1.125" stroke-linecap="round" stroke-linejoin="round"/>
<path d="M255.895 251.032L260.226 255.369L255.895 259.715" stroke="black" stroke-width="1.125" stroke-linecap="round" stroke-linejoin="round"/>
<path d="M260.225 228.297H240.098" stroke="black" stroke-width="1.125" stroke-linecap="round" stroke-linejoin="round"/>
<path d="M244.429 232.642L240.098 228.296L244.429 223.96" stroke="black" stroke-width="1.125" stroke-linecap="round" stroke-linejoin="round"/>
<path d="M263.282 267.335H236.136C233.084 267.335 230.609 269.812 230.609 272.868C230.609 275.924 233.084 278.401 236.136 278.401H263.282C266.334 278.401 268.809 275.924 268.809 272.868C268.809 269.812 266.334 267.335 263.282 267.335Z" fill="#E6FA36" stroke="black" stroke-width="1.1625" stroke-linecap="round" stroke-linejoin="round"/>
<path d="M220.225 260.624C229.888 260.624 237.723 252.781 237.723 243.106C237.723 233.431 229.888 225.588 220.225 225.588C210.561 225.588 202.727 233.431 202.727 243.106C202.727 252.781 210.561 260.624 220.225 260.624Z" fill="#E6FA36" stroke="black" stroke-width="1.125" stroke-linecap="round" stroke-linejoin="round"/>
<path d="M216.793 250.324C218.667 253.138 222.32 254.335 225.571 253.014C228.822 251.693 230.466 248.515 230.026 245.308" fill="#E6FA36"/>
<path d="M216.793 250.324C218.667 253.138 222.32 254.335 225.571 253.014C228.822 251.693 230.466 248.515 230.026 245.308" stroke="black" stroke-width="1.125" stroke-linecap="round" stroke-linejoin="round"/>
<path d="M216.418 244.083C216.944 244.906 217.986 245.28 218.933 244.916C219.879 244.552 220.377 243.652 220.271 242.724" fill="#E6FA36"/>
<path d="M216.418 244.083C216.944 244.906 217.986 245.28 218.933 244.916C219.879 244.552 220.377 243.652 220.271 242.724" stroke="black" stroke-width="1.125" stroke-linecap="round" stroke-linejoin="round"/>
<path d="M222.863 241.833C223.389 242.656 224.431 243.03 225.378 242.666C226.325 242.302 226.822 241.402 226.717 240.474" fill="#E6FA36"/>
<path d="M222.863 241.833C223.389 242.656 224.431 243.03 225.378 242.666C226.325 242.302 226.822 241.402 226.717 240.474" stroke="black" stroke-width="1.125" stroke-linecap="round" stroke-linejoin="round"/>
<path d="M231.058 245.088C230.331 245.26 229.557 245.279 228.82 245.126Z" fill="#E6FA36"/>
<path d="M231.058 245.088C230.331 245.26 229.557 245.279 228.82 245.126" stroke="black" stroke-width="1.125" stroke-linecap="round" stroke-linejoin="round"/>
<path d="M285.464 223.456L258.613 235.284L270.428 262.166L297.279 250.338L285.464 223.456Z" fill="#E6FA36" stroke="black" stroke-width="1.125" stroke-linecap="round" stroke-linejoin="round"/>
<path d="M272.891 248.218C274.927 250.917 278.637 251.903 281.802 250.401C284.852 248.945 286.43 245.633 285.809 242.455" fill="#E6FA36"/>
<path d="M272.891 248.218C274.927 250.917 278.637 251.903 281.802 250.401C284.852 248.945 286.43 245.633 285.809 242.455" stroke="black" stroke-width="1.125" stroke-linecap="round" stroke-linejoin="round"/>
<path d="M272.164 242.005C272.738 242.8 273.799 243.116 274.727 242.695C275.654 242.273 276.094 241.345 275.941 240.426" fill="#E6FA36"/>
<path d="M272.164 242.005C272.738 242.8 273.799 243.116 274.727 242.695C275.654 242.273 276.094 241.345 275.941 240.426" stroke="black" stroke-width="1.125" stroke-linecap="round" stroke-linejoin="round"/>
<path d="M278.465 239.392C279.039 240.187 280.1 240.502 281.027 240.081C281.955 239.66 282.395 238.731 282.242 237.812" fill="#E6FA36"/>
<path d="M278.465 239.392C279.039 240.187 280.1 240.502 281.027 240.081C281.955 239.66 282.395 238.731 282.242 237.812" stroke="black" stroke-width="1.125" stroke-linecap="round" stroke-linejoin="round"/>
<path d="M286.829 242.168C286.112 242.388 285.347 242.446 284.602 242.331Z" fill="#E6FA36"/>
<path d="M286.829 242.168C286.112 242.388 285.347 242.446 284.602 242.331" stroke="black" stroke-width="1.125" stroke-linecap="round" stroke-linejoin="round"/>
</g>
</g>
<defs>
<clipPath id="clip0_636_1191">
<rect width="500" height="500" fill="white"/>
</clipPath>
<clipPath id="clip1_636_1191">
<rect width="96" height="73.5" fill="white" transform="translate(202 213)"/>
</clipPath>
</defs>
</svg>
