<svg width="500" height="500" viewBox="0 0 500 500" fill="none" xmlns="http://www.w3.org/2000/svg">
<g clip-path="url(#clip0_636_486)">
<path d="M500 0H0V500H500V0Z" fill="white"/>
<mask id="mask0_636_486" style="mask-type:luminance" maskUnits="userSpaceOnUse" x="18" y="18" width="464" height="464">
<path d="M34 178V162H26C23.8783 162 21.8434 162.843 20.3431 164.343C18.8429 165.843 18 167.878 18 170C18 172.122 18.8429 174.157 20.3431 175.657C21.8434 177.157 23.8783 178 26 178" fill="white"/>
<path d="M26 210C30.4183 210 34 206.418 34 202C34 197.582 30.4183 194 26 194C21.5817 194 18 197.582 18 202C18 206.418 21.5817 210 26 210Z" fill="white"/>
<path d="M18 258H34V242H26C23.8783 242 21.8434 242.843 20.3431 244.343C18.8428 245.843 18 247.878 18 250" fill="white"/>
<path d="M34 258H18V266C18 268.122 18.8428 270.157 20.3431 271.657C21.8434 273.157 23.8783 274 26 274C28.1217 274 30.1566 273.157 31.6569 271.657C33.1572 270.157 34 268.122 34 266" fill="white"/>
<path d="M34 306V290H26C23.8783 290 21.8434 290.843 20.3431 292.343C18.8429 293.843 18 295.878 18 298C18 300.122 18.8429 302.157 20.3431 303.657C21.8434 305.157 23.8783 306 26 306" fill="white"/>
<path d="M18 338H34V322H26C23.8783 322 21.8434 322.843 20.3431 324.343C18.8428 325.843 18 327.878 18 330" fill="white"/>
<path d="M34 338H18V346C18 348.122 18.8428 350.157 20.3431 351.657C21.8434 353.157 23.8783 354 26 354C28.1217 354 30.1566 353.157 31.6569 351.657C33.1572 350.157 34 348.122 34 346" fill="white"/>
<path d="M34 162H50V154C50 151.878 49.1572 149.843 47.6569 148.343C46.1566 146.843 44.1217 146 42 146C39.8783 146 37.8434 146.843 36.3431 148.343C34.8428 149.843 34 151.878 34 154" fill="white"/>
<path d="M50 162H34V178H50V162Z" fill="white"/>
<path d="M50 178H34V186C34 188.122 34.8428 190.157 36.3431 191.657C37.8434 193.157 39.8783 194 42 194C44.1217 194 46.1566 193.157 47.6569 191.657C49.1572 190.157 50 188.122 50 186" fill="white"/>
<path d="M50 226V210H42C39.8783 210 37.8434 210.843 36.3431 212.343C34.8429 213.843 34 215.878 34 218C34 220.122 34.8429 222.157 36.3431 223.657C37.8434 225.157 39.8783 226 42 226" fill="white"/>
<path d="M34 242V258H42C44.1217 258 46.1566 257.157 47.6569 255.657C49.1571 254.157 50 252.122 50 250C50 247.878 49.1571 245.843 47.6569 244.343C46.1566 242.843 44.1217 242 42 242" fill="white"/>
<path d="M34 290H50V282C50 279.878 49.1572 277.843 47.6569 276.343C46.1566 274.843 44.1217 274 42 274C39.8783 274 37.8434 274.843 36.3431 276.343C34.8428 277.843 34 279.878 34 282" fill="white"/>
<path d="M50 290H34V306H50V290Z" fill="white"/>
<path d="M50 306H34V322H50V306Z" fill="white"/>
<path d="M50 322H34V338H50V322Z" fill="white"/>
<path d="M50 210V226H58C60.1217 226 62.1566 225.157 63.6569 223.657C65.1571 222.157 66 220.122 66 218C66 215.878 65.1571 213.843 63.6569 212.343C62.1566 210.843 60.1217 210 58 210" fill="white"/>
<path d="M58 274C62.4183 274 66 270.418 66 266C66 261.582 62.4183 258 58 258C53.5817 258 50 261.582 50 266C50 270.418 53.5817 274 58 274Z" fill="white"/>
<path d="M50 322V338H58C60.1217 338 62.1566 337.157 63.6569 335.657C65.1571 334.157 66 332.122 66 330C66 327.878 65.1571 325.843 63.6569 324.343C62.1566 322.843 60.1217 322 58 322" fill="white"/>
<path d="M66 162H82V146H74C71.8783 146 69.8434 146.843 68.3431 148.343C66.8428 149.843 66 151.878 66 154" fill="white"/>
<path d="M82 162H66V170C66 172.122 66.8428 174.157 68.3431 175.657C69.8434 177.157 71.8783 178 74 178C76.1217 178 78.1566 177.157 79.6569 175.657C81.1572 174.157 82 172.122 82 170" fill="white"/>
<path d="M82 210V194H74C71.8783 194 69.8434 194.843 68.3431 196.343C66.8429 197.843 66 199.878 66 202C66 204.122 66.8429 206.157 68.3431 207.657C69.8434 209.157 71.8783 210 74 210" fill="white"/>
<path d="M74 258C78.4183 258 82 254.418 82 250C82 245.582 78.4183 242 74 242C69.5817 242 66 245.582 66 250C66 254.418 69.5817 258 74 258Z" fill="white"/>
<path d="M74 306C78.4183 306 82 302.418 82 298C82 293.582 78.4183 290 74 290C69.5817 290 66 293.582 66 298C66 302.418 69.5817 306 74 306Z" fill="white"/>
<path d="M74 354C78.4183 354 82 350.418 82 346C82 341.582 78.4183 338 74 338C69.5817 338 66 341.582 66 346C66 350.418 69.5817 354 74 354Z" fill="white"/>
<path d="M82 146V162H90C92.1217 162 94.1566 161.157 95.6569 159.657C97.1571 158.157 98 156.122 98 154C98 151.878 97.1571 149.843 95.6569 148.343C94.1566 146.843 92.1217 146 90 146" fill="white"/>
<path d="M98 194H82V210H98V194Z" fill="white"/>
<path d="M98 210H82V218C82 220.122 82.8428 222.157 84.3431 223.657C85.8434 225.157 87.8783 226 90 226C92.1217 226 94.1566 225.157 95.6569 223.657C97.1572 222.157 98 220.122 98 218" fill="white"/>
<path d="M82 322H98V314C98 311.878 97.1572 309.843 95.6569 308.343C94.1566 306.843 92.1217 306 90 306C87.8783 306 85.8434 306.843 84.3431 308.343C82.8428 309.843 82 311.878 82 314" fill="white"/>
<path d="M98 322H82V330C82 332.122 82.8428 334.157 84.3431 335.657C85.8434 337.157 87.8783 338 90 338C92.1217 338 94.1566 337.157 95.6569 335.657C97.1572 334.157 98 332.122 98 330" fill="white"/>
<path d="M98 194H114V178H106C103.878 178 101.843 178.843 100.343 180.343C98.8428 181.843 98 183.878 98 186" fill="white"/>
<path d="M114 194H98V210H106C108.122 210 110.157 209.157 111.657 207.657C113.157 206.157 114 204.122 114 202" fill="white"/>
<path d="M98 258H114V242H106C103.878 242 101.843 242.843 100.343 244.343C98.8428 245.843 98 247.878 98 250" fill="white"/>
<path d="M114 258H98V274H114V258Z" fill="white"/>
<path d="M114 290V274H98V282C98 284.122 98.8429 286.157 100.343 287.657C101.843 289.157 103.878 290 106 290" fill="white"/>
<path d="M130 162V146H122C119.878 146 117.843 146.843 116.343 148.343C114.843 149.843 114 151.878 114 154C114 156.122 114.843 158.157 116.343 159.657C117.843 161.157 119.878 162 122 162" fill="white"/>
<path d="M114 178V194H122C124.122 194 126.157 193.157 127.657 191.657C129.157 190.157 130 188.122 130 186C130 183.878 129.157 181.843 127.657 180.343C126.157 178.843 124.122 178 122 178" fill="white"/>
<path d="M122 226C126.418 226 130 222.418 130 218C130 213.582 126.418 210 122 210C117.582 210 114 213.582 114 218C114 222.418 117.582 226 122 226Z" fill="white"/>
<path d="M114 242V258H122C124.122 258 126.157 257.157 127.657 255.657C129.157 254.157 130 252.122 130 250C130 247.878 129.157 245.843 127.657 244.343C126.157 242.843 124.122 242 122 242" fill="white"/>
<path d="M130 274H114V290H130V274Z" fill="white"/>
<path d="M130 322V306H122C119.878 306 117.843 306.843 116.343 308.343C114.843 309.843 114 311.878 114 314C114 316.122 114.843 318.157 116.343 319.657C117.843 321.157 119.878 322 122 322" fill="white"/>
<path d="M122 354C126.418 354 130 350.418 130 346C130 341.582 126.418 338 122 338C117.582 338 114 341.582 114 346C114 350.418 117.582 354 122 354Z" fill="white"/>
<path d="M146 146H130V162H146V146Z" fill="white"/>
<path d="M130 274H146V266C146 263.878 145.157 261.843 143.657 260.343C142.157 258.843 140.122 258 138 258C135.878 258 133.843 258.843 132.343 260.343C130.843 261.843 130 263.878 130 266" fill="white"/>
<path d="M146 274H130V290H146V274Z" fill="white"/>
<path d="M146 290H130V306H146V290Z" fill="white"/>
<path d="M146 306H130V322H138C140.122 322 142.157 321.157 143.657 319.657C145.157 318.157 146 316.122 146 314" fill="white"/>
<path d="M154 50C158.418 50 162 46.4183 162 42C162 37.5817 158.418 34 154 34C149.582 34 146 37.5817 146 42C146 46.4183 149.582 50 154 50Z" fill="white"/>
<path d="M146 82H162V66H154C151.878 66 149.843 66.8428 148.343 68.3431C146.843 69.8434 146 71.8783 146 74" fill="white"/>
<path d="M162 82H146V98H162V82Z" fill="white"/>
<path d="M162 98H146V114H162V98Z" fill="white"/>
<path d="M162 114H146V122C146 124.122 146.843 126.157 148.343 127.657C149.843 129.157 151.878 130 154 130C156.122 130 158.157 129.157 159.657 127.657C161.157 126.157 162 124.122 162 122" fill="white"/>
<path d="M146 146V162H154C156.122 162 158.157 161.157 159.657 159.657C161.157 158.157 162 156.122 162 154C162 151.878 161.157 149.843 159.657 148.343C158.157 146.843 156.122 146 154 146" fill="white"/>
<path d="M162 242V226H154C151.878 226 149.843 226.843 148.343 228.343C146.843 229.843 146 231.878 146 234C146 236.122 146.843 238.157 148.343 239.657C149.843 241.157 151.878 242 154 242" fill="white"/>
<path d="M146 274V290H154C156.122 290 158.157 289.157 159.657 287.657C161.157 286.157 162 284.122 162 282C162 279.878 161.157 277.843 159.657 276.343C158.157 274.843 156.122 274 154 274" fill="white"/>
<path d="M146 370H162V354H154C151.878 354 149.843 354.843 148.343 356.343C146.843 357.843 146 359.878 146 362" fill="white"/>
<path d="M162 370H146V378C146 380.122 146.843 382.157 148.343 383.657C149.843 385.157 151.878 386 154 386C156.122 386 158.157 385.157 159.657 383.657C161.157 382.157 162 380.122 162 378" fill="white"/>
<path d="M146 418H162V402H154C151.878 402 149.843 402.843 148.343 404.343C146.843 405.843 146 407.878 146 410" fill="white"/>
<path d="M162 418H146V426C146 428.122 146.843 430.157 148.343 431.657C149.843 433.157 151.878 434 154 434C156.122 434 158.157 433.157 159.657 431.657C161.157 430.157 162 428.122 162 426" fill="white"/>
<path d="M162 466V450H154C151.878 450 149.843 450.843 148.343 452.343C146.843 453.843 146 455.878 146 458C146 460.122 146.843 462.157 148.343 463.657C149.843 465.157 151.878 466 154 466" fill="white"/>
<path d="M178 34V18H170C167.878 18 165.843 18.8429 164.343 20.3431C162.843 21.8434 162 23.8783 162 26C162 28.1217 162.843 30.1566 164.343 31.6569C165.843 33.1571 167.878 34 170 34" fill="white"/>
<path d="M162 66V82H170C172.122 82 174.157 81.1571 175.657 79.6569C177.157 78.1566 178 76.1217 178 74C178 71.8783 177.157 69.8434 175.657 68.3431C174.157 66.8429 172.122 66 170 66" fill="white"/>
<path d="M178 98H162V114H178V98Z" fill="white"/>
<path d="M162 178H178V170C178 167.878 177.157 165.843 175.657 164.343C174.157 162.843 172.122 162 170 162C167.878 162 165.843 162.843 164.343 164.343C162.843 165.843 162 167.878 162 170" fill="white"/>
<path d="M178 178H162V194H178V178Z" fill="white"/>
<path d="M178 210V194H162V202C162 204.122 162.843 206.157 164.343 207.657C165.843 209.157 167.878 210 170 210" fill="white"/>
<path d="M178 226H162V242H178V226Z" fill="white"/>
<path d="M178 242H162V258H178V242Z" fill="white"/>
<path d="M178 274V258H162V266C162 268.122 162.843 270.157 164.343 271.657C165.843 273.157 167.878 274 170 274" fill="white"/>
<path d="M162 306H178V298C178 295.878 177.157 293.843 175.657 292.343C174.157 290.843 172.122 290 170 290C167.878 290 165.843 290.843 164.343 292.343C162.843 293.843 162 295.878 162 298" fill="white"/>
<path d="M178 306H162V314C162 316.122 162.843 318.157 164.343 319.657C165.843 321.157 167.878 322 170 322C172.122 322 174.157 321.157 175.657 319.657C177.157 318.157 178 316.122 178 314" fill="white"/>
<path d="M178 354H162V370H178V354Z" fill="white"/>
<path d="M162 402H178V394C178 391.878 177.157 389.843 175.657 388.343C174.157 386.843 172.122 386 170 386C167.878 386 165.843 386.843 164.343 388.343C162.843 389.843 162 391.878 162 394" fill="white"/>
<path d="M178 402H162V418H178V402Z" fill="white"/>
<path d="M162 450V466H170C172.122 466 174.157 465.157 175.657 463.657C177.157 462.157 178 460.122 178 458C178 455.878 177.157 453.843 175.657 452.343C174.157 450.843 172.122 450 170 450" fill="white"/>
<path d="M178 18V34H194V26C194 23.8783 193.157 21.8434 191.657 20.3431C190.157 18.8429 188.122 18 186 18" fill="white"/>
<path d="M194 34H178V50H194V34Z" fill="white"/>
<path d="M194 66V50H178V58C178 60.1217 178.843 62.1566 180.343 63.6569C181.843 65.1571 183.878 66 186 66" fill="white"/>
<path d="M178 98V114H194V106C194 103.878 193.157 101.843 191.657 100.343C190.157 98.8429 188.122 98 186 98" fill="white"/>
<path d="M194 114H178V130H194V114Z" fill="white"/>
<path d="M194 130H178V146H194V130Z" fill="white"/>
<path d="M194 162V146H178V154C178 156.122 178.843 158.157 180.343 159.657C181.843 161.157 183.878 162 186 162" fill="white"/>
<path d="M178 194V210H194V202C194 199.878 193.157 197.843 191.657 196.343C190.157 194.843 188.122 194 186 194" fill="white"/>
<path d="M194 210H178V226H194V210Z" fill="white"/>
<path d="M194 226H178V242H186C188.122 242 190.157 241.157 191.657 239.657C193.157 238.157 194 236.122 194 234" fill="white"/>
<path d="M178 258V274H186C188.122 274 190.157 273.157 191.657 271.657C193.157 270.157 194 268.122 194 266C194 263.878 193.157 261.843 191.657 260.343C190.157 258.843 188.122 258 186 258" fill="white"/>
<path d="M178 338H194V322H186C183.878 322 181.843 322.843 180.343 324.343C178.843 325.843 178 327.878 178 330" fill="white"/>
<path d="M194 338H178V354H194V338Z" fill="white"/>
<path d="M194 354H178V370H194V354Z" fill="white"/>
<path d="M194 370H178V378C178 380.122 178.843 382.157 180.343 383.657C181.843 385.157 183.878 386 186 386C188.122 386 190.157 385.157 191.657 383.657C193.157 382.157 194 380.122 194 378" fill="white"/>
<path d="M194 402H178V418H194V402Z" fill="white"/>
<path d="M194 418H178V434H194V418Z" fill="white"/>
<path d="M194 434H178V442C178 444.122 178.843 446.157 180.343 447.657C181.843 449.157 183.878 450 186 450C188.122 450 190.157 449.157 191.657 447.657C193.157 446.157 194 444.122 194 442" fill="white"/>
<path d="M194 34V50H210V42C210 39.8783 209.157 37.8434 207.657 36.3431C206.157 34.8429 204.122 34 202 34" fill="white"/>
<path d="M210 50H194V66H210V50Z" fill="white"/>
<path d="M210 66H194V74C194 76.1217 194.843 78.1566 196.343 79.6569C197.843 81.1572 199.878 82 202 82C204.122 82 206.157 81.1572 207.657 79.6569C209.157 78.1566 210 76.1217 210 74" fill="white"/>
<path d="M194 146V162H202C204.122 162 206.157 161.157 207.657 159.657C209.157 158.157 210 156.122 210 154C210 151.878 209.157 149.843 207.657 148.343C206.157 146.843 204.122 146 202 146" fill="white"/>
<path d="M194 210V226H202C204.122 226 206.157 225.157 207.657 223.657C209.157 222.157 210 220.122 210 218C210 215.878 209.157 213.843 207.657 212.343C206.157 210.843 204.122 210 202 210" fill="white"/>
<path d="M202 306C206.418 306 210 302.418 210 298C210 293.582 206.418 290 202 290C197.582 290 194 293.582 194 298C194 302.418 197.582 306 202 306Z" fill="white"/>
<path d="M194 322V338H210V330C210 327.878 209.157 325.843 207.657 324.343C206.157 322.843 204.122 322 202 322" fill="white"/>
<path d="M210 338H194V354H210V338Z" fill="white"/>
<path d="M194 402V418H210V410C210 407.878 209.157 405.843 207.657 404.343C206.157 402.843 204.122 402 202 402" fill="white"/>
<path d="M210 418H194V434H210V418Z" fill="white"/>
<path d="M202 482C206.418 482 210 478.418 210 474C210 469.582 206.418 466 202 466C197.582 466 194 469.582 194 474C194 478.418 197.582 482 202 482Z" fill="white"/>
<path d="M226 50H210V66H226V50Z" fill="white"/>
<path d="M226 98V82H218C215.878 82 213.843 82.8429 212.343 84.3431C210.843 85.8434 210 87.8783 210 90C210 92.1217 210.843 94.1566 212.343 95.6569C213.843 97.1571 215.878 98 218 98" fill="white"/>
<path d="M218 130C222.418 130 226 126.418 226 122C226 117.582 222.418 114 218 114C213.582 114 210 117.582 210 122C210 126.418 213.582 130 218 130Z" fill="white"/>
<path d="M210 178H226V170C226 167.878 225.157 165.843 223.657 164.343C222.157 162.843 220.122 162 218 162C215.878 162 213.843 162.843 212.343 164.343C210.843 165.843 210 167.878 210 170" fill="white"/>
<path d="M226 178H210V194H226V178Z" fill="white"/>
<path d="M226 210V194H210V202C210 204.122 210.843 206.157 212.343 207.657C213.843 209.157 215.878 210 218 210" fill="white"/>
<path d="M226 242V226H218C215.878 226 213.843 226.843 212.343 228.343C210.843 229.843 210 231.878 210 234C210 236.122 210.843 238.157 212.343 239.657C213.843 241.157 215.878 242 218 242" fill="white"/>
<path d="M226 290V274H218C215.878 274 213.843 274.843 212.343 276.343C210.843 277.843 210 279.878 210 282C210 284.122 210.843 286.157 212.343 287.657C213.843 289.157 215.878 290 218 290" fill="white"/>
<path d="M226 338H210V354H226V338Z" fill="white"/>
<path d="M226 354H210V370H226V354Z" fill="white"/>
<path d="M226 386V370H210V378C210 380.122 210.843 382.157 212.343 383.657C213.843 385.157 215.878 386 218 386" fill="white"/>
<path d="M210 418V434H218C220.122 434 222.157 433.157 223.657 431.657C225.157 430.157 226 428.122 226 426C226 423.878 225.157 421.843 223.657 420.343C222.157 418.843 220.122 418 218 418" fill="white"/>
<path d="M218 466C222.418 466 226 462.418 226 458C226 453.582 222.418 450 218 450C213.582 450 210 453.582 210 458C210 462.418 213.582 466 218 466Z" fill="white"/>
<path d="M226 50H242V42C242 39.8783 241.157 37.8434 239.657 36.3431C238.157 34.8428 236.122 34 234 34C231.878 34 229.843 34.8428 228.343 36.3431C226.843 37.8434 226 39.8783 226 42" fill="white"/>
<path d="M242 50H226V66H234C236.122 66 238.157 65.1572 239.657 63.6569C241.157 62.1566 242 60.1217 242 58" fill="white"/>
<path d="M226 82V98H234C236.122 98 238.157 97.1571 239.657 95.6569C241.157 94.1566 242 92.1217 242 90C242 87.8783 241.157 85.8434 239.657 84.3431C238.157 82.8429 236.122 82 234 82" fill="white"/>
<path d="M226 146H242V138C242 135.878 241.157 133.843 239.657 132.343C238.157 130.843 236.122 130 234 130C231.878 130 229.843 130.843 228.343 132.343C226.843 133.843 226 135.878 226 138" fill="white"/>
<path d="M242 162V146H226V154C226 156.122 226.843 158.157 228.343 159.657C229.843 161.157 231.878 162 234 162" fill="white"/>
<path d="M226 178V194H242V186C242 183.878 241.157 181.843 239.657 180.343C238.157 178.843 236.122 178 234 178" fill="white"/>
<path d="M242 194H226V210H242V194Z" fill="white"/>
<path d="M242 210H226V226H242V210Z" fill="white"/>
<path d="M242 226H226V242H242V226Z" fill="white"/>
<path d="M242 242H226V258H242V242Z" fill="white"/>
<path d="M242 258H226V274H242V258Z" fill="white"/>
<path d="M242 274H226V290H234C236.122 290 238.157 289.157 239.657 287.657C241.157 286.157 242 284.122 242 282" fill="white"/>
<path d="M242 322V306H234C231.878 306 229.843 306.843 228.343 308.343C226.843 309.843 226 311.878 226 314C226 316.122 226.843 318.157 228.343 319.657C229.843 321.157 231.878 322 234 322" fill="white"/>
<path d="M226 338V354H234C236.122 354 238.157 353.157 239.657 351.657C241.157 350.157 242 348.122 242 346C242 343.878 241.157 341.843 239.657 340.343C238.157 338.843 236.122 338 234 338" fill="white"/>
<path d="M242 370H226V386H242V370Z" fill="white"/>
<path d="M234 418C238.418 418 242 414.418 242 410C242 405.582 238.418 402 234 402C229.582 402 226 405.582 226 410C226 414.418 229.582 418 234 418Z" fill="white"/>
<path d="M234 450C238.418 450 242 446.418 242 442C242 437.582 238.418 434 234 434C229.582 434 226 437.582 226 442C226 446.418 229.582 450 234 450Z" fill="white"/>
<path d="M242 482V466H234C231.878 466 229.843 466.843 228.343 468.343C226.843 469.843 226 471.878 226 474C226 476.122 226.843 478.157 228.343 479.657C229.843 481.157 231.878 482 234 482" fill="white"/>
<path d="M258 82V66H250C247.878 66 245.843 66.8429 244.343 68.3431C242.843 69.8434 242 71.8783 242 74C242 76.1217 242.843 78.1566 244.343 79.6569C245.843 81.1571 247.878 82 250 82" fill="white"/>
<path d="M242 114H258V106C258 103.878 257.157 101.843 255.657 100.343C254.157 98.8428 252.122 98 250 98C247.878 98 245.843 98.8428 244.343 100.343C242.843 101.843 242 103.878 242 106" fill="white"/>
<path d="M258 114H242V122C242 124.122 242.843 126.157 244.343 127.657C245.843 129.157 247.878 130 250 130C252.122 130 254.157 129.157 255.657 127.657C257.157 126.157 258 124.122 258 122" fill="white"/>
<path d="M258 146H242V162H258V146Z" fill="white"/>
<path d="M242 226V242H258V234C258 231.878 257.157 229.843 255.657 228.343C254.157 226.843 252.122 226 250 226" fill="white"/>
<path d="M258 242H242V258H250C252.122 258 254.157 257.157 255.657 255.657C257.157 254.157 258 252.122 258 250" fill="white"/>
<path d="M242 306V322H258V314C258 311.878 257.157 309.843 255.657 308.343C254.157 306.843 252.122 306 250 306" fill="white"/>
<path d="M258 322H242V330C242 332.122 242.843 334.157 244.343 335.657C245.843 337.157 247.878 338 250 338C252.122 338 254.157 337.157 255.657 335.657C257.157 334.157 258 332.122 258 330" fill="white"/>
<path d="M258 370H242V386H258V370Z" fill="white"/>
<path d="M258 386H242V394C242 396.122 242.843 398.157 244.343 399.657C245.843 401.157 247.878 402 250 402C252.122 402 254.157 401.157 255.657 399.657C257.157 398.157 258 396.122 258 394" fill="white"/>
<path d="M258 434V418H250C247.878 418 245.843 418.843 244.343 420.343C242.843 421.843 242 423.878 242 426C242 428.122 242.843 430.157 244.343 431.657C245.843 433.157 247.878 434 250 434" fill="white"/>
<path d="M258 466H242V482H258V466Z" fill="white"/>
<path d="M258 34H274V26C274 23.8783 273.157 21.8434 271.657 20.3431C270.157 18.8428 268.122 18 266 18C263.878 18 261.843 18.8428 260.343 20.3431C258.843 21.8434 258 23.8783 258 26" fill="white"/>
<path d="M274 34H258V50H274V34Z" fill="white"/>
<path d="M274 50H258V66H274V50Z" fill="white"/>
<path d="M274 66H258V82H274V66Z" fill="white"/>
<path d="M274 98V82H258V90C258 92.1217 258.843 94.1566 260.343 95.6569C261.843 97.1571 263.878 98 266 98" fill="white"/>
<path d="M258 146H274V130H266C263.878 130 261.843 130.843 260.343 132.343C258.843 133.843 258 135.878 258 138" fill="white"/>
<path d="M274 146H258V162H274V146Z" fill="white"/>
<path d="M274 162H258V170C258 172.122 258.843 174.157 260.343 175.657C261.843 177.157 263.878 178 266 178C268.122 178 270.157 177.157 271.657 175.657C273.157 174.157 274 172.122 274 170" fill="white"/>
<path d="M266 274C270.418 274 274 270.418 274 266C274 261.582 270.418 258 266 258C261.582 258 258 261.582 258 266C258 270.418 261.582 274 266 274Z" fill="white"/>
<path d="M274 354V338H266C263.878 338 261.843 338.843 260.343 340.343C258.843 341.843 258 343.878 258 346C258 348.122 258.843 350.157 260.343 351.657C261.843 353.157 263.878 354 266 354" fill="white"/>
<path d="M258 370V386H266C268.122 386 270.157 385.157 271.657 383.657C273.157 382.157 274 380.122 274 378C274 375.878 273.157 373.843 271.657 372.343C270.157 370.843 268.122 370 266 370" fill="white"/>
<path d="M258 418H274V410C274 407.878 273.157 405.843 271.657 404.343C270.157 402.843 268.122 402 266 402C263.878 402 261.843 402.843 260.343 404.343C258.843 405.843 258 407.878 258 410" fill="white"/>
<path d="M274 418H258V434H274V418Z" fill="white"/>
<path d="M274 434H258V450H274V434Z" fill="white"/>
<path d="M274 450H258V466H274V450Z" fill="white"/>
<path d="M274 466H258V482H266C268.122 482 270.157 481.157 271.657 479.657C273.157 478.157 274 476.122 274 474" fill="white"/>
<path d="M290 34H274V50H290V34Z" fill="white"/>
<path d="M274 82V98H282C284.122 98 286.157 97.1571 287.657 95.6569C289.157 94.1566 290 92.1217 290 90C290 87.8783 289.157 85.8434 287.657 84.3431C286.157 82.8429 284.122 82 282 82" fill="white"/>
<path d="M274 130H290V122C290 119.878 289.157 117.843 287.657 116.343C286.157 114.843 284.122 114 282 114C279.878 114 277.843 114.843 276.343 116.343C274.843 117.843 274 119.878 274 122" fill="white"/>
<path d="M290 130H274V146H282C284.122 146 286.157 145.157 287.657 143.657C289.157 142.157 290 140.122 290 138" fill="white"/>
<path d="M282 194C286.418 194 290 190.418 290 186C290 181.582 286.418 178 282 178C277.582 178 274 181.582 274 186C274 190.418 277.582 194 282 194Z" fill="white"/>
<path d="M290 258V242H282C279.878 242 277.843 242.843 276.343 244.343C274.843 245.843 274 247.878 274 250C274 252.122 274.843 254.157 276.343 255.657C277.843 257.157 279.878 258 282 258" fill="white"/>
<path d="M274 306H290V298C290 295.878 289.157 293.843 287.657 292.343C286.157 290.843 284.122 290 282 290C279.878 290 277.843 290.843 276.343 292.343C274.843 293.843 274 295.878 274 298" fill="white"/>
<path d="M290 306H274V322H290V306Z" fill="white"/>
<path d="M290 322H274V338H290V322Z" fill="white"/>
<path d="M290 338H274V354H282C284.122 354 286.157 353.157 287.657 351.657C289.157 350.157 290 348.122 290 346" fill="white"/>
<path d="M290 418H274V434H290V418Z" fill="white"/>
<path d="M290 34H306V18H298C295.878 18 293.843 18.8428 292.343 20.3431C290.843 21.8434 290 23.8783 290 26" fill="white"/>
<path d="M306 34H290V50H306V34Z" fill="white"/>
<path d="M306 50H290V66H306V50Z" fill="white"/>
<path d="M306 82V66H290V74C290 76.1217 290.843 78.1566 292.343 79.6569C293.843 81.1571 295.878 82 298 82" fill="white"/>
<path d="M290 162H306V146H298C295.878 146 293.843 146.843 292.343 148.343C290.843 149.843 290 151.878 290 154" fill="white"/>
<path d="M306 162H290V170C290 172.122 290.843 174.157 292.343 175.657C293.843 177.157 295.878 178 298 178C300.122 178 302.157 177.157 303.657 175.657C305.157 174.157 306 172.122 306 170" fill="white"/>
<path d="M290 210H306V202C306 199.878 305.157 197.843 303.657 196.343C302.157 194.843 300.122 194 298 194C295.878 194 293.843 194.843 292.343 196.343C290.843 197.843 290 199.878 290 202" fill="white"/>
<path d="M306 210H290V218C290 220.122 290.843 222.157 292.343 223.657C293.843 225.157 295.878 226 298 226C300.122 226 302.157 225.157 303.657 223.657C305.157 222.157 306 220.122 306 218" fill="white"/>
<path d="M290 242V258H298C300.122 258 302.157 257.157 303.657 255.657C305.157 254.157 306 252.122 306 250C306 247.878 305.157 245.843 303.657 244.343C302.157 242.843 300.122 242 298 242" fill="white"/>
<path d="M290 418H306V410C306 407.878 305.157 405.843 303.657 404.343C302.157 402.843 300.122 402 298 402C295.878 402 293.843 402.843 292.343 404.343C290.843 405.843 290 407.878 290 410" fill="white"/>
<path d="M306 418H290V434H306V418Z" fill="white"/>
<path d="M322 18H306V34H322V18Z" fill="white"/>
<path d="M322 34H306V50H322V34Z" fill="white"/>
<path d="M322 50H306V66H322V50Z" fill="white"/>
<path d="M322 66H306V82H322V66Z" fill="white"/>
<path d="M322 82H306V98H322V82Z" fill="white"/>
<path d="M322 98H306V114H322V98Z" fill="white"/>
<path d="M322 114H306V122C306 124.122 306.843 126.157 308.343 127.657C309.843 129.157 311.878 130 314 130C316.122 130 318.157 129.157 319.657 127.657C321.157 126.157 322 124.122 322 122" fill="white"/>
<path d="M306 146V162H314C316.122 162 318.157 161.157 319.657 159.657C321.157 158.157 322 156.122 322 154C322 151.878 321.157 149.843 319.657 148.343C318.157 146.843 316.122 146 314 146" fill="white"/>
<path d="M314 194C318.418 194 322 190.418 322 186C322 181.582 318.418 178 314 178C309.582 178 306 181.582 306 186C306 190.418 309.582 194 314 194Z" fill="white"/>
<path d="M306 290H322V274H314C311.878 274 309.843 274.843 308.343 276.343C306.843 277.843 306 279.878 306 282" fill="white"/>
<path d="M322 290H306V298C306 300.122 306.843 302.157 308.343 303.657C309.843 305.157 311.878 306 314 306C316.122 306 318.157 305.157 319.657 303.657C321.157 302.157 322 300.122 322 298" fill="white"/>
<path d="M306 338H322V330C322 327.878 321.157 325.843 319.657 324.343C318.157 322.843 316.122 322 314 322C311.878 322 309.843 322.843 308.343 324.343C306.843 325.843 306 327.878 306 330" fill="white"/>
<path d="M322 354V338H306V346C306 348.122 306.843 350.157 308.343 351.657C309.843 353.157 311.878 354 314 354" fill="white"/>
<path d="M306 418V434H322V426C322 423.878 321.157 421.843 319.657 420.343C318.157 418.843 316.122 418 314 418" fill="white"/>
<path d="M322 450V434H306V442C306 444.122 306.843 446.157 308.343 447.657C309.843 449.157 311.878 450 314 450" fill="white"/>
<path d="M314 482C318.418 482 322 478.418 322 474C322 469.582 318.418 466 314 466C309.582 466 306 469.582 306 474C306 478.418 309.582 482 314 482Z" fill="white"/>
<path d="M338 18H322V34H338V18Z" fill="white"/>
<path d="M338 34H322V50H338V34Z" fill="white"/>
<path d="M322 66V82H330C332.122 82 334.157 81.1571 335.657 79.6569C337.157 78.1566 338 76.1217 338 74C338 71.8783 337.157 69.8434 335.657 68.3431C334.157 66.8429 332.122 66 330 66" fill="white"/>
<path d="M322 226H338V218C338 215.878 337.157 213.843 335.657 212.343C334.157 210.843 332.122 210 330 210C327.878 210 325.843 210.843 324.343 212.343C322.843 213.843 322 215.878 322 218" fill="white"/>
<path d="M338 242V226H322V234C322 236.122 322.843 238.157 324.343 239.657C325.843 241.157 327.878 242 330 242" fill="white"/>
<path d="M322 274H338V266C338 263.878 337.157 261.843 335.657 260.343C334.157 258.843 332.122 258 330 258C327.878 258 325.843 258.843 324.343 260.343C322.843 261.843 322 263.878 322 266" fill="white"/>
<path d="M338 274H322V290H330C332.122 290 334.157 289.157 335.657 287.657C337.157 286.157 338 284.122 338 282" fill="white"/>
<path d="M338 338H322V354H338V338Z" fill="white"/>
<path d="M338 354H322V370H338V354Z" fill="white"/>
<path d="M338 370H322V386H338V370Z" fill="white"/>
<path d="M338 402V386H322V394C322 396.122 322.843 398.157 324.343 399.657C325.843 401.157 327.878 402 330 402" fill="white"/>
<path d="M338 434H322V450H338V434Z" fill="white"/>
<path d="M338 466V450H322V458C322 460.122 322.843 462.157 324.343 463.657C325.843 465.157 327.878 466 330 466" fill="white"/>
<path d="M338 18V34H354V26C354 23.8783 353.157 21.8434 351.657 20.3431C350.157 18.8429 348.122 18 346 18" fill="white"/>
<path d="M354 34H338V50H354V34Z" fill="white"/>
<path d="M354 50H338V58C338 60.1217 338.843 62.1566 340.343 63.6569C341.843 65.1572 343.878 66 346 66C348.122 66 350.157 65.1572 351.657 63.6569C353.157 62.1566 354 60.1217 354 58" fill="white"/>
<path d="M346 130C350.418 130 354 126.418 354 122C354 117.582 350.418 114 346 114C341.582 114 338 117.582 338 122C338 126.418 341.582 130 346 130Z" fill="white"/>
<path d="M354 162V146H346C343.878 146 341.843 146.843 340.343 148.343C338.843 149.843 338 151.878 338 154C338 156.122 338.843 158.157 340.343 159.657C341.843 161.157 343.878 162 346 162" fill="white"/>
<path d="M354 194V178H346C343.878 178 341.843 178.843 340.343 180.343C338.843 181.843 338 183.878 338 186C338 188.122 338.843 190.157 340.343 191.657C341.843 193.157 343.878 194 346 194" fill="white"/>
<path d="M354 226H338V242H354V226Z" fill="white"/>
<path d="M354 242H338V250C338 252.122 338.843 254.157 340.343 255.657C341.843 257.157 343.878 258 346 258C348.122 258 350.157 257.157 351.657 255.657C353.157 254.157 354 252.122 354 250" fill="white"/>
<path d="M338 306H354V290H346C343.878 290 341.843 290.843 340.343 292.343C338.843 293.843 338 295.878 338 298" fill="white"/>
<path d="M354 306H338V322H354V306Z" fill="white"/>
<path d="M354 322H338V338H354V322Z" fill="white"/>
<path d="M354 338H338V354H354V338Z" fill="white"/>
<path d="M354 354H338V370H354V354Z" fill="white"/>
<path d="M354 370H338V386H354V370Z" fill="white"/>
<path d="M354 386H338V402H354V386Z" fill="white"/>
<path d="M354 418V402H338V410C338 412.122 338.843 414.157 340.343 415.657C341.843 417.157 343.878 418 346 418" fill="white"/>
<path d="M354 434H338V450H354V434Z" fill="white"/>
<path d="M354 450H338V466H354V450Z" fill="white"/>
<path d="M354 146V162H370V154C370 151.878 369.157 149.843 367.657 148.343C366.157 146.843 364.122 146 362 146" fill="white"/>
<path d="M370 162H354V178H370V162Z" fill="white"/>
<path d="M370 178H354V194H370V178Z" fill="white"/>
<path d="M354 226H370V218C370 215.878 369.157 213.843 367.657 212.343C366.157 210.843 364.122 210 362 210C359.878 210 357.843 210.843 356.343 212.343C354.843 213.843 354 215.878 354 218" fill="white"/>
<path d="M370 226H354V242H370V226Z" fill="white"/>
<path d="M370 274V258H362C359.878 258 357.843 258.843 356.343 260.343C354.843 261.843 354 263.878 354 266C354 268.122 354.843 270.157 356.343 271.657C357.843 273.157 359.878 274 362 274" fill="white"/>
<path d="M354 290V306H370V298C370 295.878 369.157 293.843 367.657 292.343C366.157 290.843 364.122 290 362 290" fill="white"/>
<path d="M370 306H354V322H370V306Z" fill="white"/>
<path d="M370 322H354V338H370V322Z" fill="white"/>
<path d="M370 338H354V354H370V338Z" fill="white"/>
<path d="M370 402H354V418H370V402Z" fill="white"/>
<path d="M370 418H354V434H370V418Z" fill="white"/>
<path d="M370 434H354V450H370V434Z" fill="white"/>
<path d="M370 450H354V466H362C364.122 466 366.157 465.157 367.657 463.657C369.157 462.157 370 460.122 370 458" fill="white"/>
<path d="M370 162V178H386V170C386 167.878 385.157 165.843 383.657 164.343C382.157 162.843 380.122 162 378 162" fill="white"/>
<path d="M386 178H370V194H378C380.122 194 382.157 193.157 383.657 191.657C385.157 190.157 386 188.122 386 186" fill="white"/>
<path d="M386 226H370V242H386V226Z" fill="white"/>
<path d="M386 258H370V274H386V258Z" fill="white"/>
<path d="M386 290V274H370V282C370 284.122 370.843 286.157 372.343 287.657C373.843 289.157 375.878 290 378 290" fill="white"/>
<path d="M386 322H370V338H386V322Z" fill="white"/>
<path d="M386 338H370V354H386V338Z" fill="white"/>
<path d="M378 386C382.418 386 386 382.418 386 378C386 373.582 382.418 370 378 370C373.582 370 370 373.582 370 378C370 382.418 373.582 386 378 386Z" fill="white"/>
<path d="M386 402H370V418H386V402Z" fill="white"/>
<path d="M370 434V450H378C380.122 450 382.157 449.157 383.657 447.657C385.157 446.157 386 444.122 386 442C386 439.878 385.157 437.843 383.657 436.343C382.157 434.843 380.122 434 378 434" fill="white"/>
<path d="M402 162V146H394C391.878 146 389.843 146.843 388.343 148.343C386.843 149.843 386 151.878 386 154C386 156.122 386.843 158.157 388.343 159.657C389.843 161.157 391.878 162 394 162" fill="white"/>
<path d="M386 226V242H402V234C402 231.878 401.157 229.843 399.657 228.343C398.157 226.843 396.122 226 394 226" fill="white"/>
<path d="M402 242H386V258H402V242Z" fill="white"/>
<path d="M402 258H386V274H402V258Z" fill="white"/>
<path d="M402 274H386V290H394C396.122 290 398.157 289.157 399.657 287.657C401.157 286.157 402 284.122 402 282" fill="white"/>
<path d="M386 322H402V314C402 311.878 401.157 309.843 399.657 308.343C398.157 306.843 396.122 306 394 306C391.878 306 389.843 306.843 388.343 308.343C386.843 309.843 386 311.878 386 314" fill="white"/>
<path d="M402 322H386V338H402V322Z" fill="white"/>
<path d="M402 338H386V354H402V338Z" fill="white"/>
<path d="M402 402H386V418H402V402Z" fill="white"/>
<path d="M402 418H386V426C386 428.122 386.843 430.157 388.343 431.657C389.843 433.157 391.878 434 394 434C396.122 434 398.157 433.157 399.657 431.657C401.157 430.157 402 428.122 402 426" fill="white"/>
<path d="M386 466H402V450H394C391.878 450 389.843 450.843 388.343 452.343C386.843 453.843 386 455.878 386 458" fill="white"/>
<path d="M402 482V466H386V474C386 476.122 386.843 478.157 388.343 479.657C389.843 481.157 391.878 482 394 482" fill="white"/>
<path d="M418 146H402V162H418V146Z" fill="white"/>
<path d="M418 210V194H410C407.878 194 405.843 194.843 404.343 196.343C402.843 197.843 402 199.878 402 202C402 204.122 402.843 206.157 404.343 207.657C405.843 209.157 407.878 210 410 210" fill="white"/>
<path d="M402 258V274H410C412.122 274 414.157 273.157 415.657 271.657C417.157 270.157 418 268.122 418 266C418 263.878 417.157 261.843 415.657 260.343C414.157 258.843 412.122 258 410 258" fill="white"/>
<path d="M418 306V290H410C407.878 290 405.843 290.843 404.343 292.343C402.843 293.843 402 295.878 402 298C402 300.122 402.843 302.157 404.343 303.657C405.843 305.157 407.878 306 410 306" fill="white"/>
<path d="M402 322V338H418V330C418 327.878 417.157 325.843 415.657 324.343C414.157 322.843 412.122 322 410 322" fill="white"/>
<path d="M418 338H402V354H418V338Z" fill="white"/>
<path d="M418 354H402V370H418V354Z" fill="white"/>
<path d="M418 370H402V386H418V370Z" fill="white"/>
<path d="M418 386H402V402H418V386Z" fill="white"/>
<path d="M418 402H402V418H410C412.122 418 414.157 417.157 415.657 415.657C417.157 414.157 418 412.122 418 410" fill="white"/>
<path d="M418 450H402V466H418V450Z" fill="white"/>
<path d="M418 466H402V482H410C412.122 482 414.157 481.157 415.657 479.657C417.157 478.157 418 476.122 418 474" fill="white"/>
<path d="M418 146V162H434V154C434 151.878 433.157 149.843 431.657 148.343C430.157 146.843 428.122 146 426 146" fill="white"/>
<path d="M434 162H418V178H434V162Z" fill="white"/>
<path d="M434 178H418V194H434V178Z" fill="white"/>
<path d="M434 194H418V210H426C428.122 210 430.157 209.157 431.657 207.657C433.157 206.157 434 204.122 434 202" fill="white"/>
<path d="M418 242H434V234C434 231.878 433.157 229.843 431.657 228.343C430.157 226.843 428.122 226 426 226C423.878 226 421.843 226.843 420.343 228.343C418.843 229.843 418 231.878 418 234" fill="white"/>
<path d="M434 242H418V250C418 252.122 418.843 254.157 420.343 255.657C421.843 257.157 423.878 258 426 258C428.122 258 430.157 257.157 431.657 255.657C433.157 254.157 434 252.122 434 250" fill="white"/>
<path d="M434 290H418V306H434V290Z" fill="white"/>
<path d="M434 306H418V314C418 316.122 418.843 318.157 420.343 319.657C421.843 321.157 423.878 322 426 322C428.122 322 430.157 321.157 431.657 319.657C433.157 318.157 434 316.122 434 314" fill="white"/>
<path d="M434 386H418V402H434V386Z" fill="white"/>
<path d="M418 434H434V418H426C423.878 418 421.843 418.843 420.343 420.343C418.843 421.843 418 423.878 418 426" fill="white"/>
<path d="M434 434H418V450H434V434Z" fill="white"/>
<path d="M434 450H418V466H434V450Z" fill="white"/>
<path d="M450 162H434V178H450V162Z" fill="white"/>
<path d="M442 226C446.418 226 450 222.418 450 218C450 213.582 446.418 210 442 210C437.582 210 434 213.582 434 218C434 222.418 437.582 226 442 226Z" fill="white"/>
<path d="M442 274C446.418 274 450 270.418 450 266C450 261.582 446.418 258 442 258C437.582 258 434 261.582 434 266C434 270.418 437.582 274 442 274Z" fill="white"/>
<path d="M434 290V306H442C444.122 306 446.157 305.157 447.657 303.657C449.157 302.157 450 300.122 450 298C450 295.878 449.157 293.843 447.657 292.343C446.157 290.843 444.122 290 442 290" fill="white"/>
<path d="M434 354H450V346C450 343.878 449.157 341.843 447.657 340.343C446.157 338.843 444.122 338 442 338C439.878 338 437.843 338.843 436.343 340.343C434.843 341.843 434 343.878 434 346" fill="white"/>
<path d="M450 370V354H434V362C434 364.122 434.843 366.157 436.343 367.657C437.843 369.157 439.878 370 442 370" fill="white"/>
<path d="M434 386V402H450V394C450 391.878 449.157 389.843 447.657 388.343C446.157 386.843 444.122 386 442 386" fill="white"/>
<path d="M450 402H434V418H450V402Z" fill="white"/>
<path d="M450 418H434V434H450V418Z" fill="white"/>
<path d="M450 434H434V450H450V434Z" fill="white"/>
<path d="M450 450H434V466H450V450Z" fill="white"/>
<path d="M450 482V466H434V474C434 476.122 434.843 478.157 436.343 479.657C437.843 481.157 439.878 482 442 482" fill="white"/>
<path d="M450 162H466V154C466 151.878 465.157 149.843 463.657 148.343C462.157 146.843 460.122 146 458 146C455.878 146 453.843 146.843 452.343 148.343C450.843 149.843 450 151.878 450 154" fill="white"/>
<path d="M466 162H450V178H466V162Z" fill="white"/>
<path d="M466 210V194H458C455.878 194 453.843 194.843 452.343 196.343C450.843 197.843 450 199.878 450 202C450 204.122 450.843 206.157 452.343 207.657C453.843 209.157 455.878 210 458 210" fill="white"/>
<path d="M450 242H466V226H458C455.878 226 453.843 226.843 452.343 228.343C450.843 229.843 450 231.878 450 234" fill="white"/>
<path d="M466 242H450V250C450 252.122 450.843 254.157 452.343 255.657C453.843 257.157 455.878 258 458 258C460.122 258 462.157 257.157 463.657 255.657C465.157 254.157 466 252.122 466 250" fill="white"/>
<path d="M466 290V274H458C455.878 274 453.843 274.843 452.343 276.343C450.843 277.843 450 279.878 450 282C450 284.122 450.843 286.157 452.343 287.657C453.843 289.157 455.878 290 458 290" fill="white"/>
<path d="M466 338V322H458C455.878 322 453.843 322.843 452.343 324.343C450.843 325.843 450 327.878 450 330C450 332.122 450.843 334.157 452.343 335.657C453.843 337.157 455.878 338 458 338" fill="white"/>
<path d="M450 354V370H466V362C466 359.878 465.157 357.843 463.657 356.343C462.157 354.843 460.122 354 458 354" fill="white"/>
<path d="M466 370H450V378C450 380.122 450.843 382.157 452.343 383.657C453.843 385.157 455.878 386 458 386C460.122 386 462.157 385.157 463.657 383.657C465.157 382.157 466 380.122 466 378" fill="white"/>
<path d="M466 402H450V418H466V402Z" fill="white"/>
<path d="M466 418H450V434H466V418Z" fill="white"/>
<path d="M466 434H450V450H458C460.122 450 462.157 449.157 463.657 447.657C465.157 446.157 466 444.122 466 442" fill="white"/>
<path d="M450 466V482H458C460.122 482 462.157 481.157 463.657 479.657C465.157 478.157 466 476.122 466 474C466 471.878 465.157 469.843 463.657 468.343C462.157 466.843 460.122 466 458 466" fill="white"/>
<path d="M466 162V178H474C476.122 178 478.157 177.157 479.657 175.657C481.157 174.157 482 172.122 482 170C482 167.878 481.157 165.843 479.657 164.343C478.157 162.843 476.122 162 474 162" fill="white"/>
<path d="M466 194V210H482V202C482 199.878 481.157 197.843 479.657 196.343C478.157 194.843 476.122 194 474 194" fill="white"/>
<path d="M482 210H466V226H482V210Z" fill="white"/>
<path d="M482 226H466V242H474C476.122 242 478.157 241.157 479.657 239.657C481.157 238.157 482 236.122 482 234" fill="white"/>
<path d="M466 274H482V266C482 263.878 481.157 261.843 479.657 260.343C478.157 258.843 476.122 258 474 258C471.878 258 469.843 258.843 468.343 260.343C466.843 261.843 466 263.878 466 266" fill="white"/>
<path d="M482 274H466V290H474C476.122 290 478.157 289.157 479.657 287.657C481.157 286.157 482 284.122 482 282" fill="white"/>
<path d="M466 322V338H482V330C482 327.878 481.157 325.843 479.657 324.343C478.157 322.843 476.122 322 474 322" fill="white"/>
<path d="M482 338H466V346C466 348.122 466.843 350.157 468.343 351.657C469.843 353.157 471.878 354 474 354C476.122 354 478.157 353.157 479.657 351.657C481.157 350.157 482 348.122 482 346" fill="white"/>
<path d="M466 402H482V394C482 391.878 481.157 389.843 479.657 388.343C478.157 386.843 476.122 386 474 386C471.878 386 469.843 386.843 468.343 388.343C466.843 389.843 466 391.878 466 394" fill="white"/>
<path d="M482 402H466V418H474C476.122 418 478.157 417.157 479.657 415.657C481.157 414.157 482 412.122 482 410" fill="white"/>
</mask>
<g mask="url(#mask0_636_486)">
<path d="M500 0H0V500H500V0Z" fill="black"/>
</g>
<mask id="mask1_636_486" style="mask-type:luminance" maskUnits="userSpaceOnUse" x="18" y="18" width="112" height="112">
<path fill-rule="evenodd" clip-rule="evenodd" d="M18 58V90C18 100.609 22.2143 110.783 29.7157 118.284C33.4301 121.999 37.8396 124.945 42.6927 126.955C47.5457 128.965 52.7471 130 58 130H90C100.609 130 110.783 125.786 118.284 118.284C125.786 110.783 130 100.609 130 90V58C130 52.7471 128.965 47.5457 126.955 42.6927C124.945 37.8396 121.999 33.4301 118.284 29.7157C114.57 26.0014 110.16 23.055 105.307 21.0448C100.454 19.0346 95.2529 18 90 18H58C52.7471 18 47.5457 19.0346 42.6927 21.0448C37.8396 23.055 33.4301 26.0014 29.7157 29.7157C22.2143 37.2172 18 47.3913 18 58ZM58 34H90C96.3652 34 102.47 36.5286 106.971 41.0294C111.471 45.5303 114 51.6348 114 58V90C114 96.3652 111.471 102.47 106.971 106.971C102.47 111.471 96.3652 114 90 114H58C51.6348 114 45.5303 111.471 41.0294 106.971C36.5286 102.47 34 96.3652 34 90V58C34 51.6348 36.5286 45.5303 41.0294 41.0294C45.5303 36.5286 51.6348 34 58 34Z" fill="white"/>
</mask>
<g mask="url(#mask1_636_486)">
<path d="M130 18H18V130H130V18Z" fill="black"/>
</g>
<mask id="mask2_636_486" style="mask-type:luminance" maskUnits="userSpaceOnUse" x="50" y="50" width="48" height="48">
<path d="M74 98C87.2548 98 98 87.2548 98 74C98 60.7452 87.2548 50 74 50C60.7452 50 50 60.7452 50 74C50 87.2548 60.7452 98 74 98Z" fill="white"/>
</mask>
<g mask="url(#mask2_636_486)">
<path d="M98 50H50V98H98V50Z" fill="black"/>
</g>
<mask id="mask3_636_486" style="mask-type:luminance" maskUnits="userSpaceOnUse" x="370" y="18" width="112" height="112">
<path fill-rule="evenodd" clip-rule="evenodd" d="M442 18H410C399.391 18 389.217 22.2143 381.716 29.7157C374.214 37.2172 370 47.3913 370 58V90C370 100.609 374.214 110.783 381.716 118.284C389.217 125.786 399.391 130 410 130H442C447.253 130 452.454 128.965 457.307 126.955C462.16 124.945 466.57 121.999 470.284 118.284C473.999 114.57 476.945 110.16 478.955 105.307C480.965 100.454 482 95.2529 482 90V58C482 47.3913 477.786 37.2172 470.284 29.7157C462.783 22.2143 452.609 18 442 18ZM466 58V90C466 96.3652 463.471 102.47 458.971 106.971C454.47 111.471 448.365 114 442 114H410C403.635 114 397.53 111.471 393.029 106.971C388.529 102.47 386 96.3652 386 90V58C386 51.6348 388.529 45.5303 393.029 41.0294C397.53 36.5286 403.635 34 410 34H442C448.365 34 454.47 36.5286 458.971 41.0294C463.471 45.5303 466 51.6348 466 58Z" fill="white"/>
</mask>
<g mask="url(#mask3_636_486)">
<path d="M482 18H370V130H482V18Z" fill="black"/>
</g>
<mask id="mask4_636_486" style="mask-type:luminance" maskUnits="userSpaceOnUse" x="402" y="50" width="48" height="48">
<path d="M402 74C402 87.2548 412.745 98 426 98C439.255 98 450 87.2548 450 74C450 60.7452 439.255 50 426 50C412.745 50 402 60.7452 402 74Z" fill="white"/>
</mask>
<g mask="url(#mask4_636_486)">
<path d="M450 50H402V98H450V50Z" fill="black"/>
</g>
<mask id="mask5_636_486" style="mask-type:luminance" maskUnits="userSpaceOnUse" x="18" y="370" width="112" height="112">
<path fill-rule="evenodd" clip-rule="evenodd" d="M58 482H90C100.609 482 110.783 477.786 118.284 470.284C121.999 466.57 124.945 462.16 126.955 457.307C128.965 452.454 130 447.253 130 442V410C130 399.391 125.786 389.217 118.284 381.716C110.783 374.214 100.609 370 90 370H58C47.3913 370 37.2172 374.214 29.7157 381.716C22.2143 389.217 18 399.391 18 410V442C18 447.253 19.0346 452.454 21.0448 457.307C23.055 462.16 26.0014 466.57 29.7157 470.284C37.2172 477.786 47.3913 482 58 482ZM34 442V410C34 403.635 36.5286 397.53 41.0294 393.029C45.5303 388.529 51.6348 386 58 386H90C96.3652 386 102.47 388.529 106.971 393.029C111.471 397.53 114 403.635 114 410V442C114 448.365 111.471 454.47 106.971 458.971C102.47 463.471 96.3652 466 90 466H58C51.6348 466 45.5303 463.471 41.0294 458.971C36.5286 454.47 34 448.365 34 442Z" fill="white"/>
</mask>
<g mask="url(#mask5_636_486)">
<path d="M130 370H18V482H130V370Z" fill="black"/>
</g>
<mask id="mask6_636_486" style="mask-type:luminance" maskUnits="userSpaceOnUse" x="50" y="402" width="48" height="48">
<path d="M98 426C98 412.745 87.2548 402 74 402C60.7452 402 50 412.745 50 426C50 439.255 60.7452 450 74 450C87.2548 450 98 439.255 98 426Z" fill="white"/>
</mask>
<g mask="url(#mask6_636_486)">
<path d="M98 402H50V450H98V402Z" fill="black"/>
</g>
<rect x="194" y="194" width="112" height="112" rx="56" fill="white"/>
<g clip-path="url(#clip1_636_486)">
<path d="M296.875 247.113C295.112 253.409 290.969 260.192 285.672 262.786C269.175 270.861 260.6 253.414 261.637 240.696C262.259 233.058 264.736 226.985 262.827 220.774C262.219 218.793 260.925 216.959 258.805 215.967C252.989 213.242 247.299 216.988 244.653 220.957C241.798 225.236 240.458 230.591 240.82 235.485C241.168 240.201 242.8 243.292 245.261 247.514C248.55 253.155 252.052 256.818 253.393 261.15C254.257 263.942 254.748 268.448 250.78 268.826C246.588 269.227 246.799 263.732 246.74 260.975C246.561 252.596 241.239 249.578 237.232 239.926C234.892 234.289 233.98 228.328 235.348 222.443C237.274 214.162 241.967 207.486 250.426 205.176C257.19 203.329 265.024 204.844 269.306 210.767C274.396 217.81 273.403 226.118 271.333 233.5C267.503 247.157 270.924 253.668 274.117 255.371C280.163 258.594 286.507 254.943 289.322 251.072C292.371 246.879 294.189 239.229 293.901 234.333C293.791 232.463 293.626 230.854 293.375 229.41" fill="white"/>
<path d="M202 250C202 253.503 202.378 256.916 203.091 260.205C203.018 257.727 203.261 255.273 203.903 252.984C205.665 246.688 209.809 239.905 215.106 237.311C231.603 229.236 240.177 246.683 239.14 259.401C238.518 267.039 236.042 273.111 237.95 279.323C238.559 281.304 239.853 283.138 241.972 284.13C247.788 286.855 253.479 283.109 256.125 279.14C258.98 274.861 260.32 269.506 259.957 264.612C259.61 259.896 257.978 256.805 255.518 252.583C252.229 246.942 248.727 243.279 247.387 238.947C246.523 236.155 246.031 231.649 250 231.271C254.191 230.87 253.98 236.365 254.04 239.122C254.218 247.501 259.54 250.519 263.548 260.171C265.888 265.808 266.8 271.769 265.431 277.654C263.505 285.935 258.813 292.611 250.353 294.921C243.589 296.768 235.756 295.253 231.474 289.33C226.384 282.287 227.377 273.979 229.446 266.597C233.277 252.94 229.855 246.429 226.662 244.726C220.616 241.504 214.273 245.154 211.458 249.025C208.409 253.218 206.591 260.868 206.879 265.764C207.057 268.801 207.384 271.151 207.987 273.225" fill="white"/>
<path d="M250 298C276.51 298 298 276.51 298 250C298 223.49 276.51 202 250 202C223.49 202 202 223.49 202 250C202 276.51 223.49 298 250 298Z" fill="#E6FA36"/>
<path d="M265.431 277.656C266.8 271.771 265.888 265.81 263.548 260.173C259.541 250.521 254.216 247.501 254.04 239.124C253.982 236.367 254.191 230.872 250 231.273C246.031 231.653 246.523 236.159 247.387 238.951C248.727 243.282 252.231 246.946 255.518 252.587C257.98 256.809 259.61 259.9 259.957 264.616C260.318 269.51 258.98 274.864 256.125 279.144C253.477 283.113 247.788 286.859 241.973 284.134C239.853 283.142 238.559 281.306 237.95 279.327C236.044 273.113 238.518 267.042 239.141 259.405C240.177 246.687 231.601 229.24 215.106 237.315C209.809 239.909 205.665 246.69 203.903 252.988C203.261 255.279 203.018 257.73 203.091 260.209C204.093 264.832 205.759 269.208 207.987 273.231C207.384 271.155 207.057 268.807 206.879 265.769C206.591 260.875 208.411 253.224 211.458 249.031C214.271 245.16 220.616 241.508 226.662 244.732C229.855 246.435 233.277 252.946 229.446 266.603C227.375 273.987 226.382 282.293 231.474 289.335C235.756 295.259 243.589 296.774 250.353 294.927C258.813 292.613 263.507 285.937 265.431 277.656Z" fill="black"/>
<path d="M296.875 247.113C297.205 245.936 297.428 244.715 297.558 243.471C297.558 243.476 297.56 243.48 297.56 243.484C296.884 238.509 295.448 233.776 293.371 229.407C293.622 230.852 293.787 232.459 293.897 234.329C294.185 239.224 292.365 246.875 289.318 251.068C286.505 254.939 280.159 258.591 274.113 255.367C270.92 253.664 267.499 247.153 271.329 233.496C273.401 226.112 274.394 217.806 269.302 210.763C265.02 204.84 257.186 203.325 250.422 205.172C241.963 207.482 237.268 214.158 235.345 222.439C233.976 228.324 234.888 234.285 237.228 239.922C241.235 249.574 246.559 252.594 246.736 260.971C246.794 263.728 246.584 269.224 250.776 268.822C254.744 268.442 254.253 263.936 253.389 261.146C252.049 256.815 248.545 253.151 245.258 247.51C242.796 243.288 241.166 240.197 240.817 235.481C240.456 230.587 241.794 225.232 244.649 220.953C247.297 216.984 252.986 213.238 258.801 215.963C260.921 216.955 262.215 218.791 262.824 220.77C264.73 226.984 262.255 233.055 261.633 240.692C260.596 253.41 269.173 270.857 285.668 262.782C290.967 260.192 295.112 253.408 296.875 247.113Z" fill="black"/>
</g>
</g>
<defs>
<clipPath id="clip0_636_486">
<rect width="500" height="500" fill="white"/>
</clipPath>
<clipPath id="clip1_636_486">
<rect width="96" height="96" fill="white" transform="translate(202 202)"/>
</clipPath>
</defs>
</svg>
