<svg width="500" height="500" viewBox="0 0 500 500" fill="none" xmlns="http://www.w3.org/2000/svg">
<g clip-path="url(#clip0_640_2325)">
<path d="M500 0H0V500H500V0Z" fill="white"/>
<mask id="mask0_640_2325" style="mask-type:luminance" maskUnits="userSpaceOnUse" x="19" y="19" width="462" height="462">
<path d="M19 145H33V138C33 136.143 32.2625 134.363 30.9498 133.05C29.637 131.737 27.8565 131 26 131C24.1435 131 22.363 131.737 21.0502 133.05C19.7375 134.363 19 136.143 19 138" fill="white"/>
<path d="M33 159V145H19V152C19 152.919 19.1811 153.83 19.5328 154.679C19.8846 155.528 20.4002 156.3 21.0503 156.95C21.7003 157.6 22.4719 158.115 23.3212 158.467C24.1705 158.819 25.0807 159 26 159" fill="white"/>
<path d="M26 187C29.866 187 33 183.866 33 180C33 176.134 29.866 173 26 173C22.134 173 19 176.134 19 180C19 183.866 22.134 187 26 187Z" fill="white"/>
<path d="M19 229H33V222C33 220.143 32.2625 218.363 30.9498 217.05C29.637 215.737 27.8565 215 26 215C24.1435 215 22.363 215.737 21.0502 217.05C19.7375 218.363 19 220.143 19 222" fill="white"/>
<path d="M33 243V229H19V236C19 236.919 19.1811 237.83 19.5328 238.679C19.8846 239.528 20.4002 240.3 21.0503 240.95C21.7003 241.6 22.4719 242.115 23.3212 242.467C24.1705 242.819 25.0807 243 26 243" fill="white"/>
<path d="M26 299C29.866 299 33 295.866 33 292C33 288.134 29.866 285 26 285C22.134 285 19 288.134 19 292C19 295.866 22.134 299 26 299Z" fill="white"/>
<path d="M19 341H33V327H26C25.0807 327 24.1705 327.181 23.3212 327.533C22.4719 327.885 21.7003 328.4 21.0503 329.05C20.4003 329.7 19.8846 330.472 19.5328 331.321C19.1811 332.17 19 333.081 19 334" fill="white"/>
<path d="M33 355V341H19V348C19 348.919 19.1811 349.829 19.5328 350.679C19.8846 351.528 20.4002 352.3 21.0503 352.95C21.7003 353.6 22.4719 354.115 23.3212 354.467C24.1705 354.819 25.0807 355 26 355" fill="white"/>
<path d="M47 145H33V159H47V145Z" fill="white"/>
<path d="M47 159H33V166C33 167.857 33.7375 169.637 35.0502 170.95C36.363 172.263 38.1435 173 40 173C41.8565 173 43.637 172.263 44.9498 170.95C46.2625 169.637 47 167.857 47 166" fill="white"/>
<path d="M47 229H33V243H47V229Z" fill="white"/>
<path d="M47 243H33V257H47V243Z" fill="white"/>
<path d="M47 271V257H33V264C33 265.857 33.7375 267.637 35.0503 268.95C36.363 270.262 38.1435 271 40 271" fill="white"/>
<path d="M33 327H47V320C47 318.143 46.2625 316.363 44.9497 315.05C43.637 313.737 41.8565 313 40 313C38.1435 313 36.363 313.737 35.0503 315.05C33.7375 316.363 33 318.143 33 320" fill="white"/>
<path d="M47 327H33V341H47V327Z" fill="white"/>
<path d="M47 341H33V355H47V341Z" fill="white"/>
<path d="M47 355H33V362C33 363.857 33.7375 365.637 35.0503 366.95C36.363 368.263 38.1435 369 40 369C41.8565 369 43.637 368.263 44.9497 366.95C46.2625 365.637 47 363.857 47 362" fill="white"/>
<path d="M47 145H61V131H54C52.1435 131 50.363 131.737 49.0502 133.05C47.7375 134.363 47 136.143 47 138" fill="white"/>
<path d="M61 145H47V159H54C55.8565 159 57.637 158.263 58.9498 156.95C60.2625 155.637 61 153.857 61 152" fill="white"/>
<path d="M47 187H61V173H54C52.1435 173 50.363 173.737 49.0502 175.05C47.7375 176.363 47 178.143 47 180" fill="white"/>
<path d="M61 187H47V194C47 195.857 47.7375 197.637 49.0502 198.95C50.363 200.263 52.1435 201 54 201C55.8565 201 57.637 200.263 58.9498 198.95C60.2625 197.637 61 195.857 61 194" fill="white"/>
<path d="M47 229H61V222C61 220.143 60.2625 218.363 58.9498 217.05C57.637 215.737 55.8565 215 54 215C52.1435 215 50.363 215.737 49.0502 217.05C47.7375 218.363 47 220.143 47 222" fill="white"/>
<path d="M61 229H47V243H61V229Z" fill="white"/>
<path d="M61 243H47V257H61V243Z" fill="white"/>
<path d="M61 257H47V271H61V257Z" fill="white"/>
<path d="M61 341H47V355H61V341Z" fill="white"/>
<path d="M61 131V145H68C69.8565 145 71.637 144.263 72.9497 142.95C74.2625 141.637 75 139.857 75 138C75 136.143 74.2625 134.363 72.9497 133.05C71.637 131.737 69.8565 131 68 131" fill="white"/>
<path d="M75 173H61V187H75V173Z" fill="white"/>
<path d="M75 229H61V243H75V229Z" fill="white"/>
<path d="M61 257V271H68C69.8565 271 71.637 270.262 72.9497 268.95C74.2625 267.637 75 265.857 75 264C75 262.143 74.2625 260.363 72.9497 259.05C71.637 257.738 69.8565 257 68 257" fill="white"/>
<path d="M68 327C71.866 327 75 323.866 75 320C75 316.134 71.866 313 68 313C64.134 313 61 316.134 61 320C61 323.866 64.134 327 68 327Z" fill="white"/>
<path d="M61 341V355H68C69.8565 355 71.637 354.262 72.9497 352.95C74.2625 351.637 75 349.857 75 348C75 346.143 74.2625 344.363 72.9497 343.05C71.637 341.738 69.8565 341 68 341" fill="white"/>
<path d="M75 173H89V159H82C80.1435 159 78.363 159.738 77.0502 161.05C75.7375 162.363 75 164.143 75 166" fill="white"/>
<path d="M89 173H75V187H89V173Z" fill="white"/>
<path d="M89 201V187H75V194C75 195.857 75.7375 197.637 77.0503 198.95C78.363 200.263 80.1435 201 82 201" fill="white"/>
<path d="M75 229H89V215H82C80.1435 215 78.363 215.738 77.0502 217.05C75.7375 218.363 75 220.143 75 222" fill="white"/>
<path d="M89 229H75V243H89V229Z" fill="white"/>
<path d="M89 243H75V250C75 251.857 75.7375 253.637 77.0502 254.95C78.363 256.262 80.1435 257 82 257C83.8565 257 85.637 256.262 86.9498 254.95C88.2625 253.637 89 251.857 89 250" fill="white"/>
<path d="M82 299C85.866 299 89 295.866 89 292C89 288.134 85.866 285 82 285C78.134 285 75 288.134 75 292C75 295.866 78.134 299 82 299Z" fill="white"/>
<path d="M82 341C85.866 341 89 337.866 89 334C89 330.134 85.866 327 82 327C78.134 327 75 330.134 75 334C75 337.866 78.134 341 82 341Z" fill="white"/>
<path d="M103 145V131H96C94.1435 131 92.363 131.737 91.0503 133.05C89.7375 134.363 89 136.143 89 138C89 139.857 89.7375 141.637 91.0503 142.95C92.363 144.263 94.1435 145 96 145" fill="white"/>
<path d="M103 159H89V173H103V159Z" fill="white"/>
<path d="M103 187H89V201H103V187Z" fill="white"/>
<path d="M103 201H89V215H103V201Z" fill="white"/>
<path d="M103 215H89V229H103V215Z" fill="white"/>
<path d="M96 271C99.866 271 103 267.866 103 264C103 260.134 99.866 257 96 257C92.134 257 89 260.134 89 264C89 267.866 92.134 271 96 271Z" fill="white"/>
<path d="M103 313V299H96C94.1435 299 92.363 299.738 91.0503 301.05C89.7375 302.363 89 304.143 89 306C89 307.857 89.7375 309.637 91.0503 310.95C92.363 312.262 94.1435 313 96 313" fill="white"/>
<path d="M96 355C99.866 355 103 351.866 103 348C103 344.134 99.866 341 96 341C92.134 341 89 344.134 89 348C89 351.866 92.134 355 96 355Z" fill="white"/>
<path d="M117 131H103V145H117V131Z" fill="white"/>
<path d="M103 159V173H110C111.857 173 113.637 172.263 114.95 170.95C116.262 169.637 117 167.857 117 166C117 164.143 116.262 162.363 114.95 161.05C113.637 159.737 111.857 159 110 159" fill="white"/>
<path d="M117 187H103V201H117V187Z" fill="white"/>
<path d="M103 215V229H110C111.857 229 113.637 228.263 114.95 226.95C116.262 225.637 117 223.857 117 222C117 220.143 116.262 218.363 114.95 217.05C113.637 215.737 111.857 215 110 215" fill="white"/>
<path d="M110 257C113.866 257 117 253.866 117 250C117 246.134 113.866 243 110 243C106.134 243 103 246.134 103 250C103 253.866 106.134 257 110 257Z" fill="white"/>
<path d="M117 285V271H110C108.143 271 106.363 271.738 105.05 273.05C103.738 274.363 103 276.143 103 278C103 279.857 103.738 281.637 105.05 282.95C106.363 284.262 108.143 285 110 285" fill="white"/>
<path d="M117 299H103V313H117V299Z" fill="white"/>
<path d="M117 341V327H110C108.143 327 106.363 327.738 105.05 329.05C103.738 330.363 103 332.143 103 334C103 335.857 103.738 337.637 105.05 338.95C106.363 340.262 108.143 341 110 341" fill="white"/>
<path d="M117 369V355H110C108.143 355 106.363 355.738 105.05 357.05C103.738 358.363 103 360.143 103 362C103 363.857 103.738 365.637 105.05 366.95C106.363 368.262 108.143 369 110 369" fill="white"/>
<path d="M131 131H117V145H131V131Z" fill="white"/>
<path d="M131 187H117V201H131V187Z" fill="white"/>
<path d="M131 215V201H117V208C117 209.857 117.737 211.637 119.05 212.95C120.363 214.263 122.143 215 124 215" fill="white"/>
<path d="M124 243C127.866 243 131 239.866 131 236C131 232.134 127.866 229 124 229C120.134 229 117 232.134 117 236C117 239.866 120.134 243 124 243Z" fill="white"/>
<path d="M117 271H131V264C131 262.143 130.262 260.363 128.95 259.05C127.637 257.737 125.857 257 124 257C122.143 257 120.363 257.737 119.05 259.05C117.738 260.363 117 262.143 117 264" fill="white"/>
<path d="M131 271H117V285H131V271Z" fill="white"/>
<path d="M131 285H117V299H131V285Z" fill="white"/>
<path d="M131 299H117V313H131V299Z" fill="white"/>
<path d="M131 313H117V327H131V313Z" fill="white"/>
<path d="M131 327H117V341H131V327Z" fill="white"/>
<path d="M117 355V369H124C125.857 369 127.637 368.262 128.95 366.95C130.263 365.637 131 363.857 131 362C131 360.143 130.263 358.363 128.95 357.05C127.637 355.738 125.857 355 124 355" fill="white"/>
<path d="M145 47V33H138C136.143 33 134.363 33.7375 133.05 35.0503C131.737 36.363 131 38.1435 131 40C131 41.8565 131.737 43.637 133.05 44.9497C134.363 46.2625 136.143 47 138 47" fill="white"/>
<path d="M145 75V61H138C136.143 61 134.363 61.7375 133.05 63.0503C131.737 64.363 131 66.1435 131 68C131 69.8565 131.737 71.637 133.05 72.9497C134.363 74.2625 136.143 75 138 75" fill="white"/>
<path d="M131 103H145V89H138C136.143 89 134.363 89.7375 133.05 91.0502C131.738 92.363 131 94.1435 131 96" fill="white"/>
<path d="M145 103H131V117H145V103Z" fill="white"/>
<path d="M145 117H131V131H145V117Z" fill="white"/>
<path d="M145 131H131V145H145V131Z" fill="white"/>
<path d="M138 173C141.866 173 145 169.866 145 166C145 162.134 141.866 159 138 159C134.134 159 131 162.134 131 166C131 169.866 134.134 173 138 173Z" fill="white"/>
<path d="M131 187V201H145V194C145 192.143 144.263 190.363 142.95 189.05C141.637 187.737 139.857 187 138 187" fill="white"/>
<path d="M145 201H131V215H138C139.857 215 141.637 214.263 142.95 212.95C144.263 211.637 145 209.857 145 208" fill="white"/>
<path d="M138 257C141.866 257 145 253.866 145 250C145 246.134 141.866 243 138 243C134.134 243 131 246.134 131 250C131 253.866 134.134 257 138 257Z" fill="white"/>
<path d="M131 285V299H145V292C145 290.143 144.263 288.363 142.95 287.05C141.637 285.738 139.857 285 138 285" fill="white"/>
<path d="M145 299H131V313H145V299Z" fill="white"/>
<path d="M145 313H131V327H145V313Z" fill="white"/>
<path d="M145 327H131V341H138C139.857 341 141.637 340.263 142.95 338.95C144.262 337.637 145 335.857 145 334" fill="white"/>
<path d="M131 383H145V369H138C136.143 369 134.363 369.737 133.05 371.05C131.738 372.363 131 374.143 131 376" fill="white"/>
<path d="M145 383H131V397H145V383Z" fill="white"/>
<path d="M145 411V397H131V404C131 405.857 131.737 407.637 133.05 408.95C134.363 410.262 136.143 411 138 411" fill="white"/>
<path d="M131 439H145V432C145 430.143 144.262 428.363 142.95 427.05C141.637 425.737 139.857 425 138 425C136.143 425 134.363 425.737 133.05 427.05C131.738 428.363 131 430.143 131 432" fill="white"/>
<path d="M145 439H131V446C131 447.857 131.738 449.637 133.05 450.95C134.363 452.263 136.143 453 138 453C139.857 453 141.637 452.263 142.95 450.95C144.262 449.637 145 447.857 145 446" fill="white"/>
<path d="M145 481V467H138C136.143 467 134.363 467.738 133.05 469.05C131.737 470.363 131 472.143 131 474C131 475.857 131.737 477.637 133.05 478.95C134.363 480.262 136.143 481 138 481" fill="white"/>
<path d="M159 33H145V47H159V33Z" fill="white"/>
<path d="M159 47H145V61H159V47Z" fill="white"/>
<path d="M159 61H145V75H159V61Z" fill="white"/>
<path d="M159 75H145V89H159V75Z" fill="white"/>
<path d="M159 89H145V103H159V89Z" fill="white"/>
<path d="M159 131H145V145H159V131Z" fill="white"/>
<path d="M159 187V173H152C150.143 173 148.363 173.737 147.05 175.05C145.737 176.363 145 178.143 145 180C145 181.857 145.737 183.637 147.05 184.95C148.363 186.263 150.143 187 152 187" fill="white"/>
<path d="M159 229V215H152C150.143 215 148.363 215.737 147.05 217.05C145.737 218.363 145 220.143 145 222C145 223.857 145.737 225.637 147.05 226.95C148.363 228.263 150.143 229 152 229" fill="white"/>
<path d="M152 285C155.866 285 159 281.866 159 278C159 274.134 155.866 271 152 271C148.134 271 145 274.134 145 278C145 281.866 148.134 285 152 285Z" fill="white"/>
<path d="M159 299H145V313H159V299Z" fill="white"/>
<path d="M145 369H159V355H152C150.143 355 148.363 355.737 147.05 357.05C145.738 358.363 145 360.143 145 362" fill="white"/>
<path d="M159 369H145V383H159V369Z" fill="white"/>
<path d="M159 383H145V397H159V383Z" fill="white"/>
<path d="M159 397H145V411H159V397Z" fill="white"/>
<path d="M145 467H159V460C159 458.143 158.262 456.363 156.95 455.05C155.637 453.737 153.857 453 152 453C150.143 453 148.363 453.737 147.05 455.05C145.738 456.363 145 458.143 145 460" fill="white"/>
<path d="M159 467H145V481H159V467Z" fill="white"/>
<path d="M159 33H173V26C173 24.1435 172.263 22.363 170.95 21.0502C169.637 19.7375 167.857 19 166 19C164.143 19 162.363 19.7375 161.05 21.0502C159.737 22.363 159 24.1435 159 26" fill="white"/>
<path d="M173 33H159V47H173V33Z" fill="white"/>
<path d="M173 47H159V61H173V47Z" fill="white"/>
<path d="M159 75V89H173V82C173 80.1435 172.263 78.363 170.95 77.0503C169.637 75.7375 167.857 75 166 75" fill="white"/>
<path d="M173 89H159V103H173V89Z" fill="white"/>
<path d="M173 103H159V110C159 111.857 159.738 113.637 161.05 114.95C162.363 116.263 164.143 117 166 117C167.857 117 169.637 116.263 170.95 114.95C172.262 113.637 173 111.857 173 110" fill="white"/>
<path d="M159 131V145H166C167.857 145 169.637 144.263 170.95 142.95C172.263 141.637 173 139.857 173 138C173 136.143 172.263 134.363 170.95 133.05C169.637 131.737 167.857 131 166 131" fill="white"/>
<path d="M159 173V187H166C167.857 187 169.637 186.263 170.95 184.95C172.263 183.637 173 181.857 173 180C173 178.143 172.263 176.363 170.95 175.05C169.637 173.737 167.857 173 166 173" fill="white"/>
<path d="M173 215H159V229H173V215Z" fill="white"/>
<path d="M173 271V257H166C164.143 257 162.363 257.738 161.05 259.05C159.737 260.363 159 262.143 159 264C159 265.857 159.737 267.637 161.05 268.95C162.363 270.262 164.143 271 166 271" fill="white"/>
<path d="M159 299H173V285H166C164.143 285 162.363 285.737 161.05 287.05C159.738 288.363 159 290.143 159 292" fill="white"/>
<path d="M173 299H159V313H173V299Z" fill="white"/>
<path d="M173 313H159V327H173V313Z" fill="white"/>
<path d="M173 327H159V334C159 335.857 159.738 337.637 161.05 338.95C162.363 340.263 164.143 341 166 341C167.857 341 169.637 340.263 170.95 338.95C172.262 337.637 173 335.857 173 334" fill="white"/>
<path d="M159 355V369H166C167.857 369 169.637 368.262 170.95 366.95C172.263 365.637 173 363.857 173 362C173 360.143 172.263 358.363 170.95 357.05C169.637 355.738 167.857 355 166 355" fill="white"/>
<path d="M159 397V411H173V404C173 402.143 172.263 400.363 170.95 399.05C169.637 397.738 167.857 397 166 397" fill="white"/>
<path d="M173 425V411H159V418C159 419.857 159.737 421.637 161.05 422.95C162.363 424.262 164.143 425 166 425" fill="white"/>
<path d="M166 453C169.866 453 173 449.866 173 446C173 442.134 169.866 439 166 439C162.134 439 159 442.134 159 446C159 449.866 162.134 453 166 453Z" fill="white"/>
<path d="M173 467H159V481H173V467Z" fill="white"/>
<path d="M173 33V47H187V40C187 38.1435 186.263 36.363 184.95 35.0503C183.637 33.7375 181.857 33 180 33" fill="white"/>
<path d="M187 47H173V61H187V47Z" fill="white"/>
<path d="M187 61H173V68C173 69.8565 173.738 71.637 175.05 72.9498C176.363 74.2625 178.143 75 180 75C181.857 75 183.637 74.2625 184.95 72.9498C186.263 71.637 187 69.8565 187 68" fill="white"/>
<path d="M173 89V103H180C181.857 103 183.637 102.262 184.95 100.95C186.263 99.637 187 97.8565 187 96C187 94.1435 186.263 92.363 184.95 91.0503C183.637 89.7375 181.857 89 180 89" fill="white"/>
<path d="M187 201V187H180C178.143 187 176.363 187.737 175.05 189.05C173.737 190.363 173 192.143 173 194C173 195.857 173.737 197.637 175.05 198.95C176.363 200.263 178.143 201 180 201" fill="white"/>
<path d="M187 215H173V229H187V215Z" fill="white"/>
<path d="M173 257V271H180C181.857 271 183.637 270.262 184.95 268.95C186.263 267.637 187 265.857 187 264C187 262.143 186.263 260.363 184.95 259.05C183.637 257.738 181.857 257 180 257" fill="white"/>
<path d="M173 285V299H187V292C187 290.143 186.263 288.363 184.95 287.05C183.637 285.738 181.857 285 180 285" fill="white"/>
<path d="M187 299H173V313H180C181.857 313 183.637 312.263 184.95 310.95C186.262 309.637 187 307.857 187 306" fill="white"/>
<path d="M187 397V383H180C178.143 383 176.363 383.738 175.05 385.05C173.737 386.363 173 388.143 173 390C173 391.857 173.737 393.637 175.05 394.95C176.363 396.262 178.143 397 180 397" fill="white"/>
<path d="M173 411V425H187V418C187 416.143 186.263 414.363 184.95 413.05C183.637 411.738 181.857 411 180 411" fill="white"/>
<path d="M187 439V425H173V432C173 433.857 173.737 435.637 175.05 436.95C176.363 438.262 178.143 439 180 439" fill="white"/>
<path d="M173 467V481H180C181.857 481 183.637 480.262 184.95 478.95C186.263 477.637 187 475.857 187 474C187 472.143 186.263 470.363 184.95 469.05C183.637 467.738 181.857 467 180 467" fill="white"/>
<path d="M194 33C197.866 33 201 29.866 201 26C201 22.134 197.866 19 194 19C190.134 19 187 22.134 187 26C187 29.866 190.134 33 194 33Z" fill="white"/>
<path d="M187 117H201V110C201 108.143 200.262 106.363 198.95 105.05C197.637 103.737 195.857 103 194 103C192.143 103 190.363 103.737 189.05 105.05C187.738 106.363 187 108.143 187 110" fill="white"/>
<path d="M201 117H187V131H201V117Z" fill="white"/>
<path d="M201 131H187V138C187 139.857 187.737 141.637 189.05 142.95C190.363 144.263 192.143 145 194 145C195.857 145 197.637 144.263 198.95 142.95C200.263 141.637 201 139.857 201 138" fill="white"/>
<path d="M187 173H201V166C201 164.143 200.263 162.363 198.95 161.05C197.637 159.737 195.857 159 194 159C192.143 159 190.363 159.737 189.05 161.05C187.737 162.363 187 164.143 187 166" fill="white"/>
<path d="M201 173H187V187H201V173Z" fill="white"/>
<path d="M201 187H187V201H201V187Z" fill="white"/>
<path d="M201 215H187V229H201V215Z" fill="white"/>
<path d="M194 257C197.866 257 201 253.866 201 250C201 246.134 197.866 243 194 243C190.134 243 187 246.134 187 250C187 253.866 190.134 257 194 257Z" fill="white"/>
<path d="M187 355H201V341H194C192.143 341 190.363 341.737 189.05 343.05C187.738 344.363 187 346.143 187 348" fill="white"/>
<path d="M201 355H187V369H201V355Z" fill="white"/>
<path d="M201 369H187V383H201V369Z" fill="white"/>
<path d="M201 383H187V397H201V383Z" fill="white"/>
<path d="M187 425V439H194C195.857 439 197.637 438.262 198.95 436.95C200.263 435.637 201 433.857 201 432C201 430.143 200.263 428.363 198.95 427.05C197.637 425.738 195.857 425 194 425" fill="white"/>
<path d="M201 187V201H208C209.857 201 211.637 200.263 212.95 198.95C214.263 197.637 215 195.857 215 194C215 192.143 214.263 190.363 212.95 189.05C211.637 187.737 209.857 187 208 187" fill="white"/>
<path d="M215 215H201V229H215V215Z" fill="white"/>
<path d="M215 243V229H201V236C201 237.857 201.737 239.637 203.05 240.95C204.363 242.263 206.143 243 208 243" fill="white"/>
<path d="M215 271V257H208C206.143 257 204.363 257.738 203.05 259.05C201.737 260.363 201 262.143 201 264C201 265.857 201.737 267.637 203.05 268.95C204.363 270.262 206.143 271 208 271" fill="white"/>
<path d="M201 341H215V334C215 332.143 214.262 330.363 212.95 329.05C211.637 327.737 209.857 327 208 327C206.143 327 204.363 327.737 203.05 329.05C201.738 330.363 201 332.143 201 334" fill="white"/>
<path d="M215 341H201V355H215V341Z" fill="white"/>
<path d="M215 369H201V383H215V369Z" fill="white"/>
<path d="M215 383H201V397H215V383Z" fill="white"/>
<path d="M215 425V411H208C206.143 411 204.363 411.738 203.05 413.05C201.737 414.363 201 416.143 201 418C201 419.857 201.737 421.637 203.05 422.95C204.363 424.262 206.143 425 208 425" fill="white"/>
<path d="M201 467H215V453H208C206.143 453 204.363 453.737 203.05 455.05C201.738 456.363 201 458.143 201 460" fill="white"/>
<path d="M215 467H201V474C201 475.857 201.738 477.637 203.05 478.95C204.363 480.263 206.143 481 208 481C209.857 481 211.637 480.263 212.95 478.95C214.262 477.637 215 475.857 215 474" fill="white"/>
<path d="M229 47V33H222C220.143 33 218.363 33.7375 217.05 35.0503C215.737 36.363 215 38.1435 215 40C215 41.8565 215.737 43.637 217.05 44.9497C218.363 46.2625 220.143 47 222 47" fill="white"/>
<path d="M222 75C225.866 75 229 71.866 229 68C229 64.134 225.866 61 222 61C218.134 61 215 64.134 215 68C215 71.866 218.134 75 222 75Z" fill="white"/>
<path d="M215 103H229V96C229 94.1435 228.262 92.363 226.95 91.0502C225.637 89.7375 223.857 89 222 89C220.143 89 218.363 89.7375 217.05 91.0502C215.738 92.363 215 94.1435 215 96" fill="white"/>
<path d="M229 103H215V117H229V103Z" fill="white"/>
<path d="M229 117H215V131H229V117Z" fill="white"/>
<path d="M229 131H215V145H229V131Z" fill="white"/>
<path d="M229 145H215V159H229V145Z" fill="white"/>
<path d="M229 159H215V166C215 167.857 215.737 169.637 217.05 170.95C218.363 172.263 220.143 173 222 173C223.857 173 225.637 172.263 226.95 170.95C228.263 169.637 229 167.857 229 166" fill="white"/>
<path d="M229 215H215V229H229V215Z" fill="white"/>
<path d="M229 229H215V243H229V229Z" fill="white"/>
<path d="M215 257V271H229V264C229 263.081 228.819 262.171 228.467 261.321C228.115 260.472 227.6 259.7 226.95 259.05C226.3 258.4 225.528 257.885 224.679 257.533C223.83 257.181 222.919 257 222 257" fill="white"/>
<path d="M229 271H215V278C215 279.857 215.738 281.637 217.05 282.95C218.363 284.263 220.143 285 222 285C223.857 285 225.637 284.263 226.95 282.95C228.262 281.637 229 279.857 229 278" fill="white"/>
<path d="M215 313H229V306C229 304.143 228.262 302.363 226.95 301.05C225.637 299.737 223.857 299 222 299C220.143 299 218.363 299.737 217.05 301.05C215.738 302.363 215 304.143 215 306" fill="white"/>
<path d="M229 327V313H215V320C215 320.919 215.181 321.829 215.533 322.679C215.885 323.528 216.4 324.3 217.05 324.95C217.7 325.6 218.472 326.115 219.321 326.467C220.17 326.819 221.081 327 222 327" fill="white"/>
<path d="M215 341V355H222C223.857 355 225.637 354.262 226.95 352.95C228.263 351.637 229 349.857 229 348C229 346.143 228.263 344.363 226.95 343.05C225.637 341.738 223.857 341 222 341" fill="white"/>
<path d="M215 369V383H229V376C229 375.081 228.819 374.171 228.467 373.321C228.115 372.472 227.6 371.7 226.95 371.05C226.3 370.4 225.528 369.885 224.679 369.533C223.83 369.181 222.919 369 222 369" fill="white"/>
<path d="M229 383H215V397H229V383Z" fill="white"/>
<path d="M229 397H215V411H229V397Z" fill="white"/>
<path d="M229 411H215V425H229V411Z" fill="white"/>
<path d="M229 425H215V439H229V425Z" fill="white"/>
<path d="M229 439H215V453H229V439Z" fill="white"/>
<path d="M229 453H215V467H229V453Z" fill="white"/>
<path d="M229 33V47H243V40C243 38.1435 242.263 36.363 240.95 35.0503C239.637 33.7375 237.857 33 236 33" fill="white"/>
<path d="M243 61V47H229V54C229 55.8565 229.737 57.637 231.05 58.9497C232.363 60.2625 234.143 61 236 61" fill="white"/>
<path d="M229 131V145H243V138C243 136.143 242.263 134.363 240.95 133.05C239.637 131.737 237.857 131 236 131" fill="white"/>
<path d="M243 145H229V159H243V145Z" fill="white"/>
<path d="M229 201H243V194C243 192.143 242.263 190.363 240.95 189.05C239.637 187.737 237.857 187 236 187C234.143 187 232.363 187.737 231.05 189.05C229.737 190.363 229 192.143 229 194" fill="white"/>
<path d="M243 201H229V215H243V201Z" fill="white"/>
<path d="M243 215H229V229H243V215Z" fill="white"/>
<path d="M243 229H229V243H243V229Z" fill="white"/>
<path d="M243 257V243H229V250C229 251.857 229.737 253.637 231.05 254.95C232.363 256.263 234.143 257 236 257" fill="white"/>
<path d="M243 299V285H236C234.143 285 232.363 285.738 231.05 287.05C229.737 288.363 229 290.143 229 292C229 293.857 229.737 295.637 231.05 296.95C232.363 298.262 234.143 299 236 299" fill="white"/>
<path d="M243 313H229V327H243V313Z" fill="white"/>
<path d="M243 383H229V397H243V383Z" fill="white"/>
<path d="M243 397H229V411H236C237.857 411 239.637 410.263 240.95 408.95C242.262 407.637 243 405.857 243 404" fill="white"/>
<path d="M229 425V439H236C237.857 439 239.637 438.262 240.95 436.95C242.263 435.637 243 433.857 243 432C243 430.143 242.263 428.363 240.95 427.05C239.637 425.738 237.857 425 236 425" fill="white"/>
<path d="M243 453H229V467H243V453Z" fill="white"/>
<path d="M257 47H243V61H257V47Z" fill="white"/>
<path d="M243 103H257V96C257 94.1435 256.262 92.363 254.95 91.0502C253.637 89.7375 251.857 89 250 89C248.143 89 246.363 89.7375 245.05 91.0502C243.738 92.363 243 94.1435 243 96" fill="white"/>
<path d="M257 103H243V117H257V103Z" fill="white"/>
<path d="M257 131V117H243V124C243 125.857 243.737 127.637 245.05 128.95C246.363 130.262 248.143 131 250 131" fill="white"/>
<path d="M243 145V159H250C251.857 159 253.637 158.263 254.95 156.95C256.263 155.637 257 153.857 257 152C257 150.143 256.263 148.363 254.95 147.05C253.637 145.737 251.857 145 250 145" fill="white"/>
<path d="M243 243V257H257V250C257 248.143 256.263 246.363 254.95 245.05C253.637 243.737 251.857 243 250 243" fill="white"/>
<path d="M257 257H243V264C243 265.857 243.738 267.637 245.05 268.95C246.363 270.263 248.143 271 250 271C251.857 271 253.637 270.263 254.95 268.95C256.262 267.637 257 265.857 257 264" fill="white"/>
<path d="M243 285V299H250C251.857 299 253.637 298.262 254.95 296.95C256.263 295.637 257 293.857 257 292C257 290.143 256.263 288.363 254.95 287.05C253.637 285.738 251.857 285 250 285" fill="white"/>
<path d="M257 313H243V327H257V313Z" fill="white"/>
<path d="M257 327H243V334C243 335.857 243.738 337.637 245.05 338.95C246.363 340.263 248.143 341 250 341C251.857 341 253.637 340.263 254.95 338.95C256.262 337.637 257 335.857 257 334" fill="white"/>
<path d="M257 369V355H250C248.143 355 246.363 355.738 245.05 357.05C243.737 358.363 243 360.143 243 362C243 363.857 243.737 365.637 245.05 366.95C246.363 368.262 248.143 369 250 369" fill="white"/>
<path d="M243 383V397H250C251.857 397 253.637 396.262 254.95 394.95C256.263 393.637 257 391.857 257 390C257 388.143 256.263 386.363 254.95 385.05C253.637 383.738 251.857 383 250 383" fill="white"/>
<path d="M250 425C253.866 425 257 421.866 257 418C257 414.134 253.866 411 250 411C246.134 411 243 414.134 243 418C243 421.866 246.134 425 250 425Z" fill="white"/>
<path d="M257 453H243V467H257V453Z" fill="white"/>
<path d="M271 47H257V61H271V47Z" fill="white"/>
<path d="M271 61H257V75H271V61Z" fill="white"/>
<path d="M271 89V75H257V82C257 83.8565 257.738 85.637 259.05 86.9497C260.363 88.2625 262.143 89 264 89" fill="white"/>
<path d="M257 117V131H271V124C271 122.143 270.262 120.363 268.95 119.05C267.637 117.738 265.857 117 264 117" fill="white"/>
<path d="M271 131H257V138C257 139.857 257.737 141.637 259.05 142.95C260.363 144.262 262.143 145 264 145C265.857 145 267.637 144.262 268.95 142.95C270.263 141.637 271 139.857 271 138" fill="white"/>
<path d="M271 173V159H264C262.143 159 260.363 159.737 259.05 161.05C257.738 162.363 257 164.143 257 166C257 167.857 257.738 169.637 259.05 170.95C260.363 172.263 262.143 173 264 173" fill="white"/>
<path d="M257 201H271V187H264C262.143 187 260.363 187.738 259.05 189.05C257.737 190.363 257 192.143 257 194" fill="white"/>
<path d="M271 215V201H257V208C257 209.857 257.738 211.637 259.05 212.95C260.363 214.263 262.143 215 264 215" fill="white"/>
<path d="M271 243V229H264C262.143 229 260.363 229.737 259.05 231.05C257.738 232.363 257 234.143 257 236C257 237.857 257.738 239.637 259.05 240.95C260.363 242.263 262.143 243 264 243" fill="white"/>
<path d="M264 285C267.866 285 271 281.866 271 278C271 274.134 267.866 271 264 271C260.134 271 257 274.134 257 278C257 281.866 260.134 285 264 285Z" fill="white"/>
<path d="M257 313H271V306C271 304.143 270.262 302.363 268.95 301.05C267.637 299.738 265.857 299 264 299C262.143 299 260.363 299.738 259.05 301.05C257.738 302.363 257 304.143 257 306" fill="white"/>
<path d="M271 313H257V327H264C265.857 327 267.637 326.262 268.95 324.95C270.262 323.637 271 321.857 271 320" fill="white"/>
<path d="M257 355H271V348C271 346.143 270.262 344.363 268.95 343.05C267.637 341.738 265.857 341 264 341C262.143 341 260.363 341.738 259.05 343.05C257.738 344.363 257 346.143 257 348" fill="white"/>
<path d="M271 355H257V369H271V355Z" fill="white"/>
<path d="M271 369H257V376C257 377.857 257.738 379.637 259.05 380.95C260.363 382.262 262.143 383 264 383C265.857 383 267.637 382.262 268.95 380.95C270.262 379.637 271 377.857 271 376" fill="white"/>
<path d="M264 411C267.866 411 271 407.866 271 404C271 400.134 267.866 397 264 397C260.134 397 257 400.134 257 404C257 407.866 260.134 411 264 411Z" fill="white"/>
<path d="M264 439C267.866 439 271 435.866 271 432C271 428.134 267.866 425 264 425C260.134 425 257 428.134 257 432C257 435.866 260.134 439 264 439Z" fill="white"/>
<path d="M271 453H257V467H271V453Z" fill="white"/>
<path d="M271 47V61H285V54C285 52.1435 284.262 50.363 282.95 49.0503C281.637 47.7375 279.857 47 278 47" fill="white"/>
<path d="M285 61H271V75H285V61Z" fill="white"/>
<path d="M285 75H271V89H278C279.857 89 281.637 88.2625 282.95 86.9497C284.262 85.637 285 83.8565 285 82" fill="white"/>
<path d="M278 117C281.866 117 285 113.866 285 110C285 106.134 281.866 103 278 103C274.134 103 271 106.134 271 110C271 113.866 274.134 117 278 117Z" fill="white"/>
<path d="M271 159H285V152C285 150.143 284.263 148.363 282.95 147.05C281.637 145.738 279.857 145 278 145C276.143 145 274.363 145.738 273.05 147.05C271.737 148.363 271 150.143 271 152" fill="white"/>
<path d="M285 159H271V173H285V159Z" fill="white"/>
<path d="M285 173H271V187H285V173Z" fill="white"/>
<path d="M285 187H271V201H285V187Z" fill="white"/>
<path d="M285 201H271V215H285V201Z" fill="white"/>
<path d="M285 215H271V229H285V215Z" fill="white"/>
<path d="M285 229H271V243H278C279.857 243 281.637 242.262 282.95 240.95C284.263 239.637 285 237.857 285 236" fill="white"/>
<path d="M278 341C281.866 341 285 337.866 285 334C285 330.134 281.866 327 278 327C274.134 327 271 330.134 271 334C271 337.866 274.134 341 278 341Z" fill="white"/>
<path d="M285 355H271V369H285V355Z" fill="white"/>
<path d="M278 397C281.866 397 285 393.866 285 390C285 386.134 281.866 383 278 383C274.134 383 271 386.134 271 390C271 393.866 274.134 397 278 397Z" fill="white"/>
<path d="M271 453H285V446C285 444.143 284.262 442.363 282.95 441.05C281.637 439.738 279.857 439 278 439C276.143 439 274.363 439.738 273.05 441.05C271.738 442.363 271 444.143 271 446" fill="white"/>
<path d="M285 453H271V467H285V453Z" fill="white"/>
<path d="M285 467H271V474C271 475.857 271.738 477.637 273.05 478.95C274.363 480.262 276.143 481 278 481C279.857 481 281.637 480.262 282.95 478.95C284.262 477.637 285 475.857 285 474" fill="white"/>
<path d="M285 61V75H292C293.857 75 295.637 74.2625 296.95 72.9497C298.262 71.637 299 69.8565 299 68C299 66.1435 298.262 64.363 296.95 63.0503C295.637 61.7375 293.857 61 292 61" fill="white"/>
<path d="M299 145V131H292C290.143 131 288.363 131.737 287.05 133.05C285.738 134.363 285 136.143 285 138C285 139.857 285.738 141.637 287.05 142.95C288.363 144.263 290.143 145 292 145" fill="white"/>
<path d="M299 159H285V173H299V159Z" fill="white"/>
<path d="M299 201H285V215H299V201Z" fill="white"/>
<path d="M299 271V257H292C290.143 257 288.363 257.738 287.05 259.05C285.738 260.363 285 262.143 285 264C285 265.857 285.738 267.637 287.05 268.95C288.363 270.262 290.143 271 292 271" fill="white"/>
<path d="M285 299H299V285H292C290.143 285 288.363 285.738 287.05 287.05C285.738 288.363 285 290.143 285 292" fill="white"/>
<path d="M299 299H285V313H299V299Z" fill="white"/>
<path d="M299 313H285V320C285 321.857 285.738 323.637 287.05 324.95C288.363 326.262 290.143 327 292 327C293.857 327 295.637 326.262 296.95 324.95C298.262 323.637 299 321.857 299 320" fill="white"/>
<path d="M285 355H299V341H292C290.143 341 288.363 341.738 287.05 343.05C285.738 344.363 285 346.143 285 348" fill="white"/>
<path d="M299 355H285V369H292C293.857 369 295.637 368.262 296.95 366.95C298.262 365.637 299 363.857 299 362" fill="white"/>
<path d="M292 411C295.866 411 299 407.866 299 404C299 400.134 295.866 397 292 397C288.134 397 285 400.134 285 404C285 407.866 288.134 411 292 411Z" fill="white"/>
<path d="M299 453H285V467H299V453Z" fill="white"/>
<path d="M306 33C309.866 33 313 29.866 313 26C313 22.134 309.866 19 306 19C302.134 19 299 22.134 299 26C299 29.866 302.134 33 306 33Z" fill="white"/>
<path d="M313 61V47H306C304.143 47 302.363 47.7375 301.05 49.0503C299.738 50.363 299 52.1435 299 54C299 55.8565 299.738 57.637 301.05 58.9497C302.363 60.2625 304.143 61 306 61" fill="white"/>
<path d="M299 103H313V89H306C304.143 89 302.363 89.7375 301.05 91.0503C299.738 92.363 299 94.1435 299 96" fill="white"/>
<path d="M313 103H299V110C299 111.857 299.738 113.637 301.05 114.95C302.363 116.262 304.143 117 306 117C307.857 117 309.637 116.262 310.95 114.95C312.262 113.637 313 111.857 313 110" fill="white"/>
<path d="M313 131H299V145H313V131Z" fill="white"/>
<path d="M313 145H299V159H313V145Z" fill="white"/>
<path d="M313 159H299V173H313V159Z" fill="white"/>
<path d="M313 173H299V187H313V173Z" fill="white"/>
<path d="M313 187H299V201H313V187Z" fill="white"/>
<path d="M313 201H299V215H313V201Z" fill="white"/>
<path d="M313 229V215H299V222C299 223.857 299.738 225.637 301.05 226.95C302.363 228.263 304.143 229 306 229" fill="white"/>
<path d="M313 257H299V271H313V257Z" fill="white"/>
<path d="M313 271H299V285H313V271Z" fill="white"/>
<path d="M313 285H299V299H313V285Z" fill="white"/>
<path d="M299 341H313V327H306C304.143 327 302.363 327.738 301.05 329.05C299.738 330.363 299 332.143 299 334" fill="white"/>
<path d="M313 341H299V355H306C307.857 355 309.637 354.262 310.95 352.95C312.262 351.637 313 349.857 313 348" fill="white"/>
<path d="M313 383V369H306C304.143 369 302.363 369.738 301.05 371.05C299.738 372.363 299 374.143 299 376C299 377.857 299.738 379.637 301.05 380.95C302.363 382.262 304.143 383 306 383" fill="white"/>
<path d="M313 453H299V467H313V453Z" fill="white"/>
<path d="M327 47H313V61H327V47Z" fill="white"/>
<path d="M313 89V103H320C321.857 103 323.637 102.262 324.95 100.95C326.262 99.637 327 97.8565 327 96C327 94.1435 326.262 92.363 324.95 91.0503C323.637 89.7375 321.857 89 320 89" fill="white"/>
<path d="M313 131H327V117H320C318.143 117 316.363 117.738 315.05 119.05C313.738 120.363 313 122.143 313 124" fill="white"/>
<path d="M327 131H313V145H327V131Z" fill="white"/>
<path d="M313 173V187H327V180C327 178.143 326.262 176.363 324.95 175.05C323.637 173.737 321.857 173 320 173" fill="white"/>
<path d="M327 187H313V201H327V187Z" fill="white"/>
<path d="M327 201H313V215H327V201Z" fill="white"/>
<path d="M327 215H313V229H327V215Z" fill="white"/>
<path d="M327 229H313V243H327V229Z" fill="white"/>
<path d="M327 243H313V257H327V243Z" fill="white"/>
<path d="M327 257H313V271H327V257Z" fill="white"/>
<path d="M327 271H313V285H327V271Z" fill="white"/>
<path d="M327 285H313V299H327V285Z" fill="white"/>
<path d="M327 299H313V313H327V299Z" fill="white"/>
<path d="M327 313H313V327H327V313Z" fill="white"/>
<path d="M327 327H313V341H320C321.857 341 323.637 340.262 324.95 338.95C326.262 337.637 327 335.857 327 334" fill="white"/>
<path d="M313 369H327V362C327 360.143 326.262 358.363 324.95 357.05C323.637 355.738 321.857 355 320 355C318.143 355 316.363 355.738 315.05 357.05C313.738 358.363 313 360.143 313 362" fill="white"/>
<path d="M327 369H313V383H327V369Z" fill="white"/>
<path d="M327 397V383H313V390C313 391.857 313.738 393.637 315.05 394.95C316.363 396.262 318.143 397 320 397" fill="white"/>
<path d="M313 453H327V446C327 444.143 326.262 442.363 324.95 441.05C323.637 439.738 321.857 439 320 439C318.143 439 316.363 439.738 315.05 441.05C313.738 442.363 313 444.143 313 446" fill="white"/>
<path d="M327 453H313V467H327V453Z" fill="white"/>
<path d="M327 481V467H313V474C313 475.857 313.738 477.637 315.05 478.95C316.363 480.262 318.143 481 320 481" fill="white"/>
<path d="M327 33H341V26C341 24.1435 340.263 22.363 338.95 21.0503C337.637 19.7375 335.857 19 334 19C332.143 19 330.363 19.7375 329.05 21.0503C327.737 22.363 327 24.1435 327 26" fill="white"/>
<path d="M341 33H327V47H341V33Z" fill="white"/>
<path d="M341 47H327V61H334C335.857 61 337.637 60.2625 338.95 58.9497C340.263 57.637 341 55.8565 341 54" fill="white"/>
<path d="M327 117H341V110C341 108.143 340.262 106.363 338.95 105.05C337.637 103.738 335.857 103 334 103C332.143 103 330.363 103.738 329.05 105.05C327.738 106.363 327 108.143 327 110" fill="white"/>
<path d="M341 117H327V131H341V117Z" fill="white"/>
<path d="M341 131H327V145H341V131Z" fill="white"/>
<path d="M341 145H327V152C327 153.857 327.737 155.637 329.05 156.95C330.363 158.262 332.143 159 334 159C335.857 159 337.637 158.262 338.95 156.95C340.263 155.637 341 153.857 341 152" fill="white"/>
<path d="M341 201H327V215H341V201Z" fill="white"/>
<path d="M341 215H327V229H341V215Z" fill="white"/>
<path d="M327 243V257H334C335.857 257 337.637 256.263 338.95 254.95C340.262 253.637 341 251.857 341 250C341 248.143 340.262 246.363 338.95 245.05C337.637 243.737 335.857 243 334 243" fill="white"/>
<path d="M341 271H327V285H341V271Z" fill="white"/>
<path d="M327 299V313H341V306C341 304.143 340.262 302.363 338.95 301.05C337.637 299.738 335.857 299 334 299" fill="white"/>
<path d="M341 313H327V327H341V313Z" fill="white"/>
<path d="M327 383V397H334C335.857 397 337.637 396.262 338.95 394.95C340.262 393.637 341 391.857 341 390C341 388.143 340.262 386.363 338.95 385.05C337.637 383.738 335.857 383 334 383" fill="white"/>
<path d="M341 439V425H334C332.143 425 330.363 425.738 329.05 427.05C327.738 428.363 327 430.143 327 432C327 433.857 327.738 435.637 329.05 436.95C330.363 438.262 332.143 439 334 439" fill="white"/>
<path d="M327 467V481H334C335.857 481 337.637 480.262 338.95 478.95C340.262 477.637 341 475.857 341 474C341 472.143 340.262 470.363 338.95 469.05C337.637 467.738 335.857 467 334 467" fill="white"/>
<path d="M341 33V47H348C349.857 47 351.637 46.2625 352.95 44.9497C354.262 43.637 355 41.8565 355 40C355 38.1435 354.262 36.363 352.95 35.0503C351.637 33.7375 349.857 33 348 33" fill="white"/>
<path d="M341 75H355V68C355 66.1435 354.262 64.363 352.95 63.0503C351.637 61.7375 349.857 61 348 61C346.143 61 344.363 61.7375 343.05 63.0503C341.737 64.363 341 66.1435 341 68" fill="white"/>
<path d="M355 89V75H341V82C341 83.8565 341.738 85.637 343.05 86.9497C344.363 88.2625 346.143 89 348 89" fill="white"/>
<path d="M341 117V131H348C349.857 131 351.637 130.263 352.95 128.95C354.262 127.637 355 125.857 355 124C355 122.143 354.262 120.363 352.95 119.05C351.637 117.738 349.857 117 348 117" fill="white"/>
<path d="M348 173C351.866 173 355 169.866 355 166C355 162.134 351.866 159 348 159C344.134 159 341 162.134 341 166C341 169.866 344.134 173 348 173Z" fill="white"/>
<path d="M341 201V215H355V208C355 206.143 354.262 204.363 352.95 203.05C351.637 201.737 349.857 201 348 201" fill="white"/>
<path d="M355 215H341V229H355V215Z" fill="white"/>
<path d="M355 229H341V236C341 237.857 341.737 239.637 343.05 240.95C344.363 242.262 346.143 243 348 243C349.857 243 351.637 242.262 352.95 240.95C354.263 239.637 355 237.857 355 236" fill="white"/>
<path d="M341 271V285H348C349.857 285 351.637 284.262 352.95 282.95C354.262 281.637 355 279.857 355 278C355 276.143 354.262 274.363 352.95 273.05C351.637 271.738 349.857 271 348 271" fill="white"/>
<path d="M355 313H341V327H355V313Z" fill="white"/>
<path d="M355 327H341V334C341 335.857 341.738 337.637 343.05 338.95C344.363 340.262 346.143 341 348 341C349.857 341 351.637 340.262 352.95 338.95C354.262 337.637 355 335.857 355 334" fill="white"/>
<path d="M355 369V355H348C346.143 355 344.363 355.738 343.05 357.05C341.738 358.363 341 360.143 341 362C341 363.857 341.738 365.637 343.05 366.95C344.363 368.262 346.143 369 348 369" fill="white"/>
<path d="M341 411H355V397H348C346.143 397 344.363 397.738 343.05 399.05C341.738 400.363 341 402.143 341 404" fill="white"/>
<path d="M355 411H341V425H355V411Z" fill="white"/>
<path d="M355 425H341V439H348C349.857 439 351.637 438.262 352.95 436.95C354.262 435.637 355 433.857 355 432" fill="white"/>
<path d="M362 33C365.866 33 369 29.866 369 26C369 22.134 365.866 19 362 19C358.134 19 355 22.134 355 26C355 29.866 358.134 33 362 33Z" fill="white"/>
<path d="M355 75V89H369V82C369 80.1435 368.262 78.363 366.95 77.0503C365.637 75.7375 363.857 75 362 75" fill="white"/>
<path d="M369 89H355V103H369V89Z" fill="white"/>
<path d="M369 103H355V110C355 111.857 355.738 113.637 357.05 114.95C358.363 116.262 360.143 117 362 117C363.857 117 365.637 116.262 366.95 114.95C368.262 113.637 369 111.857 369 110" fill="white"/>
<path d="M362 159C365.866 159 369 155.866 369 152C369 148.134 365.866 145 362 145C358.134 145 355 148.134 355 152C355 155.866 358.134 159 362 159Z" fill="white"/>
<path d="M362 201C365.866 201 369 197.866 369 194C369 190.134 365.866 187 362 187C358.134 187 355 190.134 355 194C355 197.866 358.134 201 362 201Z" fill="white"/>
<path d="M355 215V229H362C363.857 229 365.637 228.263 366.95 226.95C368.262 225.637 369 223.857 369 222C369 220.143 368.262 218.363 366.95 217.05C365.637 215.737 363.857 215 362 215" fill="white"/>
<path d="M362 257C365.866 257 369 253.866 369 250C369 246.134 365.866 243 362 243C358.134 243 355 246.134 355 250C355 253.866 358.134 257 362 257Z" fill="white"/>
<path d="M355 299H369V285H362C360.143 285 358.363 285.738 357.05 287.05C355.738 288.363 355 290.143 355 292" fill="white"/>
<path d="M369 299H355V313H369V299Z" fill="white"/>
<path d="M369 313H355V327H362C363.857 327 365.637 326.262 366.95 324.95C368.262 323.637 369 321.857 369 320" fill="white"/>
<path d="M369 355H355V369H369V355Z" fill="white"/>
<path d="M369 369H355V383H369V369Z" fill="white"/>
<path d="M369 383H355V397H369V383Z" fill="white"/>
<path d="M369 397H355V411H369V397Z" fill="white"/>
<path d="M369 411H355V425H369V411Z" fill="white"/>
<path d="M369 481V467H362C360.143 467 358.363 467.738 357.05 469.05C355.738 470.363 355 472.143 355 474C355 475.857 355.738 477.637 357.05 478.95C358.363 480.262 360.143 481 362 481" fill="white"/>
<path d="M383 145V131H376C374.143 131 372.363 131.737 371.05 133.05C369.738 134.363 369 136.143 369 138C369 139.857 369.738 141.637 371.05 142.95C372.363 144.263 374.143 145 376 145" fill="white"/>
<path d="M376 187C379.866 187 383 183.866 383 180C383 176.134 379.866 173 376 173C372.134 173 369 176.134 369 180C369 183.866 372.134 187 376 187Z" fill="white"/>
<path d="M383 215V201H376C374.143 201 372.363 201.737 371.05 203.05C369.738 204.363 369 206.143 369 208C369 209.857 369.738 211.637 371.05 212.95C372.363 214.263 374.143 215 376 215" fill="white"/>
<path d="M369 271H383V264C383 262.143 382.262 260.363 380.95 259.05C379.637 257.738 377.857 257 376 257C374.143 257 372.363 257.738 371.05 259.05C369.738 260.363 369 262.143 369 264" fill="white"/>
<path d="M383 271H369V285H383V271Z" fill="white"/>
<path d="M383 285H369V299H376C377.857 299 379.637 298.262 380.95 296.95C382.262 295.637 383 293.857 383 292" fill="white"/>
<path d="M376 341C379.866 341 383 337.866 383 334C383 330.134 379.866 327 376 327C372.134 327 369 330.134 369 334C369 337.866 372.134 341 376 341Z" fill="white"/>
<path d="M383 355H369V369H383V355Z" fill="white"/>
<path d="M383 411H369V425H383V411Z" fill="white"/>
<path d="M383 439V425H369V432C369 433.857 369.738 435.637 371.05 436.95C372.363 438.262 374.143 439 376 439" fill="white"/>
<path d="M369 467H383V453H376C374.143 453 372.363 453.738 371.05 455.05C369.738 456.363 369 458.143 369 460" fill="white"/>
<path d="M383 467H369V481H376C377.857 481 379.637 480.262 380.95 478.95C382.262 477.637 383 475.857 383 474" fill="white"/>
<path d="M397 131H383V145H397V131Z" fill="white"/>
<path d="M397 173V159H390C388.143 159 386.363 159.737 385.05 161.05C383.738 162.363 383 164.143 383 166C383 167.857 383.738 169.637 385.05 170.95C386.363 172.263 388.143 173 390 173" fill="white"/>
<path d="M383 201H397V194C397 192.143 396.263 190.363 394.95 189.05C393.637 187.738 391.857 187 390 187C388.143 187 386.363 187.738 385.05 189.05C383.737 190.363 383 192.143 383 194" fill="white"/>
<path d="M397 201H383V215H397V201Z" fill="white"/>
<path d="M397 215H383V229H397V215Z" fill="white"/>
<path d="M397 229H383V243H397V229Z" fill="white"/>
<path d="M397 243H383V250C383 251.857 383.737 253.637 385.05 254.95C386.363 256.262 388.143 257 390 257C391.857 257 393.637 256.262 394.95 254.95C396.263 253.637 397 251.857 397 250" fill="white"/>
<path d="M383 271V285H390C391.857 285 393.637 284.262 394.95 282.95C396.262 281.637 397 279.857 397 278C397 276.143 396.262 274.363 394.95 273.05C393.637 271.738 391.857 271 390 271" fill="white"/>
<path d="M383 313H397V299H390C388.143 299 386.363 299.738 385.05 301.05C383.738 302.363 383 304.143 383 306" fill="white"/>
<path d="M397 313H383V320C383 321.857 383.738 323.637 385.05 324.95C386.363 326.262 388.143 327 390 327C391.857 327 393.637 326.262 394.95 324.95C396.262 323.637 397 321.857 397 320" fill="white"/>
<path d="M397 355H383V369H397V355Z" fill="white"/>
<path d="M390 397C393.866 397 397 393.866 397 390C397 386.134 393.866 383 390 383C386.134 383 383 386.134 383 390C383 393.866 386.134 397 390 397Z" fill="white"/>
<path d="M397 411H383V425H397V411Z" fill="white"/>
<path d="M397 425H383V439H397V425Z" fill="white"/>
<path d="M397 439H383V453H397V439Z" fill="white"/>
<path d="M397 453H383V467H390C391.857 467 393.637 466.262 394.95 464.95C396.262 463.637 397 461.857 397 460" fill="white"/>
<path d="M397 131V145H411V138C411 136.143 410.262 134.363 408.95 133.05C407.637 131.737 405.857 131 404 131" fill="white"/>
<path d="M411 145H397V159H411V145Z" fill="white"/>
<path d="M411 159H397V173H411V159Z" fill="white"/>
<path d="M411 201H397V215H411V201Z" fill="white"/>
<path d="M411 229H397V243H411V229Z" fill="white"/>
<path d="M397 299H411V292C411 290.143 410.262 288.363 408.95 287.05C407.637 285.738 405.857 285 404 285C402.143 285 400.363 285.738 399.05 287.05C397.738 288.363 397 290.143 397 292" fill="white"/>
<path d="M411 299H397V313H404C405.857 313 407.637 312.262 408.95 310.95C410.262 309.637 411 307.857 411 306" fill="white"/>
<path d="M411 355H397V369H411V355Z" fill="white"/>
<path d="M411 411H397V425H411V411Z" fill="white"/>
<path d="M425 159H411V173H425V159Z" fill="white"/>
<path d="M425 201H411V215H425V201Z" fill="white"/>
<path d="M425 215H411V229H425V215Z" fill="white"/>
<path d="M425 229H411V243H425V229Z" fill="white"/>
<path d="M411 271H425V264C425 262.143 424.262 260.363 422.95 259.05C421.637 257.738 419.857 257 418 257C416.143 257 414.363 257.738 413.05 259.05C411.738 260.363 411 262.143 411 264" fill="white"/>
<path d="M425 271H411V278C411 279.857 411.738 281.637 413.05 282.95C414.363 284.262 416.143 285 418 285C419.857 285 421.637 284.262 422.95 282.95C424.262 281.637 425 279.857 425 278" fill="white"/>
<path d="M418 341C421.866 341 425 337.866 425 334C425 330.134 421.866 327 418 327C414.134 327 411 330.134 411 334C411 337.866 414.134 341 418 341Z" fill="white"/>
<path d="M411 355V369H425V362C425 360.143 424.262 358.363 422.95 357.05C421.637 355.738 419.857 355 418 355" fill="white"/>
<path d="M425 369H411V383H425V369Z" fill="white"/>
<path d="M425 383H411V397H425V383Z" fill="white"/>
<path d="M425 397H411V411H425V397Z" fill="white"/>
<path d="M425 411H411V425H425V411Z" fill="white"/>
<path d="M425 439V425H411V432C411 433.857 411.738 435.637 413.05 436.95C414.363 438.262 416.143 439 418 439" fill="white"/>
<path d="M411 467H425V453H418C416.143 453 414.363 453.738 413.05 455.05C411.738 456.363 411 458.143 411 460" fill="white"/>
<path d="M425 467H411V474C411 475.857 411.738 477.637 413.05 478.95C414.363 480.262 416.143 481 418 481C419.857 481 421.637 480.262 422.95 478.95C424.262 477.637 425 475.857 425 474" fill="white"/>
<path d="M425 145H439V138C439 136.143 438.263 134.363 436.95 133.05C435.637 131.738 433.857 131 432 131C430.143 131 428.363 131.738 427.05 133.05C425.737 134.363 425 136.143 425 138" fill="white"/>
<path d="M439 145H425V159H439V145Z" fill="white"/>
<path d="M439 159H425V173H439V159Z" fill="white"/>
<path d="M439 187V173H425V180C425 181.857 425.738 183.637 427.05 184.95C428.363 186.263 430.143 187 432 187" fill="white"/>
<path d="M425 201V215H439V208C439 206.143 438.262 204.363 436.95 203.05C435.637 201.737 433.857 201 432 201" fill="white"/>
<path d="M439 215H425V229H439V215Z" fill="white"/>
<path d="M439 229H425V243H439V229Z" fill="white"/>
<path d="M439 243H425V250C425 251.857 425.737 253.637 427.05 254.95C428.363 256.262 430.143 257 432 257C433.857 257 435.637 256.262 436.95 254.95C438.263 253.637 439 251.857 439 250" fill="white"/>
<path d="M425 299H439V292C439 290.143 438.262 288.363 436.95 287.05C435.637 285.738 433.857 285 432 285C430.143 285 428.363 285.738 427.05 287.05C425.738 288.363 425 290.143 425 292" fill="white"/>
<path d="M439 299H425V306C425 307.857 425.738 309.637 427.05 310.95C428.363 312.262 430.143 313 432 313C433.857 313 435.637 312.262 436.95 310.95C438.262 309.637 439 307.857 439 306" fill="white"/>
<path d="M432 355C435.866 355 439 351.866 439 348C439 344.134 435.866 341 432 341C428.134 341 425 344.134 425 348C425 351.866 428.134 355 432 355Z" fill="white"/>
<path d="M425 383V397H432C433.857 397 435.637 396.262 436.95 394.95C438.262 393.637 439 391.857 439 390C439 388.143 438.262 386.363 436.95 385.05C435.637 383.738 433.857 383 432 383" fill="white"/>
<path d="M439 411H425V425H439V411Z" fill="white"/>
<path d="M439 425H425V439H439V425Z" fill="white"/>
<path d="M425 453V467H432C433.857 467 435.637 466.262 436.95 464.95C438.262 463.637 439 461.857 439 460C439 458.143 438.262 456.363 436.95 455.05C435.637 453.738 433.857 453 432 453" fill="white"/>
<path d="M453 145H439V159H453V145Z" fill="white"/>
<path d="M453 173H439V187H453V173Z" fill="white"/>
<path d="M439 215V229H446C447.857 229 449.637 228.263 450.95 226.95C452.262 225.637 453 223.857 453 222C453 220.143 452.262 218.363 450.95 217.05C449.637 215.737 447.857 215 446 215" fill="white"/>
<path d="M446 285C449.866 285 453 281.866 453 278C453 274.134 449.866 271 446 271C442.134 271 439 274.134 439 278C439 281.866 442.134 285 446 285Z" fill="white"/>
<path d="M453 327V313H446C444.143 313 442.363 313.738 441.05 315.05C439.738 316.363 439 318.143 439 320C439 321.857 439.738 323.637 441.05 324.95C442.363 326.262 444.143 327 446 327" fill="white"/>
<path d="M439 411V425H453V418C453 416.143 452.262 414.363 450.95 413.05C449.637 411.738 447.857 411 446 411" fill="white"/>
<path d="M453 425H439V439H453V425Z" fill="white"/>
<path d="M453 439H439V446C439 447.857 439.738 449.637 441.05 450.95C442.363 452.262 444.143 453 446 453C447.857 453 449.637 452.262 450.95 450.95C452.262 449.637 453 447.857 453 446" fill="white"/>
<path d="M446 481C449.866 481 453 477.866 453 474C453 470.134 449.866 467 446 467C442.134 467 439 470.134 439 474C439 477.866 442.134 481 446 481Z" fill="white"/>
<path d="M453 145H467V138C467 136.143 466.263 134.363 464.95 133.05C463.637 131.738 461.857 131 460 131C458.143 131 456.363 131.738 455.05 133.05C453.737 134.363 453 136.143 453 138" fill="white"/>
<path d="M467 145H453V159H467V145Z" fill="white"/>
<path d="M467 173H453V187H467V173Z" fill="white"/>
<path d="M467 215V201H460C458.143 201 456.363 201.737 455.05 203.05C453.738 204.363 453 206.143 453 208C453 209.857 453.738 211.637 455.05 212.95C456.363 214.263 458.143 215 460 215" fill="white"/>
<path d="M467 243V229H460C458.143 229 456.363 229.737 455.05 231.05C453.738 232.363 453 234.143 453 236C453 237.857 453.738 239.637 455.05 240.95C456.363 242.263 458.143 243 460 243" fill="white"/>
<path d="M467 313H453V327H467V313Z" fill="white"/>
<path d="M453 355H467V348C467 346.143 466.262 344.363 464.95 343.05C463.637 341.738 461.857 341 460 341C458.143 341 456.363 341.738 455.05 343.05C453.738 344.363 453 346.143 453 348" fill="white"/>
<path d="M467 355H453V369H467V355Z" fill="white"/>
<path d="M467 369H453V383H467V369Z" fill="white"/>
<path d="M467 383H453V390C453 391.857 453.738 393.637 455.05 394.95C456.363 396.262 458.143 397 460 397C461.857 397 463.637 396.262 464.95 394.95C466.262 393.637 467 391.857 467 390" fill="white"/>
<path d="M467 145V159H474C475.857 159 477.637 158.263 478.95 156.95C480.262 155.637 481 153.857 481 152C481 150.143 480.262 148.363 478.95 147.05C477.637 145.737 475.857 145 474 145" fill="white"/>
<path d="M467 173V187H481V180C481 178.143 480.262 176.363 478.95 175.05C477.637 173.737 475.857 173 474 173" fill="white"/>
<path d="M481 187H467V201H481V187Z" fill="white"/>
<path d="M481 201H467V215H474C475.857 215 477.637 214.262 478.95 212.95C480.263 211.637 481 209.857 481 208" fill="white"/>
<path d="M467 229V243H474C475.857 243 477.637 242.263 478.95 240.95C480.262 239.637 481 237.857 481 236C481 234.143 480.262 232.363 478.95 231.05C477.637 229.737 475.857 229 474 229" fill="white"/>
<path d="M467 271H481V264C481 262.143 480.262 260.363 478.95 259.05C477.637 257.738 475.857 257 474 257C472.143 257 470.363 257.738 469.05 259.05C467.738 260.363 467 262.143 467 264" fill="white"/>
<path d="M481 271H467V278C467 279.857 467.738 281.637 469.05 282.95C470.363 284.262 472.143 285 474 285C475.857 285 477.637 284.262 478.95 282.95C480.262 281.637 481 279.857 481 278" fill="white"/>
<path d="M467 313V327H474C475.857 327 477.637 326.262 478.95 324.95C480.262 323.637 481 321.857 481 320C481 318.143 480.262 316.363 478.95 315.05C477.637 313.738 475.857 313 474 313" fill="white"/>
<path d="M467 355V369H474C475.857 369 477.637 368.262 478.95 366.95C480.262 365.637 481 363.857 481 362C481 360.143 480.262 358.363 478.95 357.05C477.637 355.738 475.857 355 474 355" fill="white"/>
<path d="M474 425C477.866 425 481 421.866 481 418C481 414.134 477.866 411 474 411C470.134 411 467 414.134 467 418C467 421.866 470.134 425 474 425Z" fill="white"/>
<path d="M474 467C477.866 467 481 463.866 481 460C481 456.134 477.866 453 474 453C470.134 453 467 456.134 467 460C467 463.866 470.134 467 474 467Z" fill="white"/>
</mask>
<g mask="url(#mask0_640_2325)">
<path d="M500 0H0V500H500V0Z" fill="black"/>
</g>
<mask id="mask1_640_2325" style="mask-type:luminance" maskUnits="userSpaceOnUse" x="19" y="19" width="98" height="98">
<path fill-rule="evenodd" clip-rule="evenodd" d="M19 54V82C19 91.2826 22.6875 100.185 29.2513 106.749C35.815 113.313 44.7174 117 54 117H82C91.2826 117 100.185 113.313 106.749 106.749C113.313 100.185 117 91.2826 117 82V54C117 44.7174 113.313 35.815 106.749 29.2513C100.185 22.6875 91.2826 19 82 19H54C44.7174 19 35.815 22.6875 29.2513 29.2513C22.6875 35.815 19 44.7174 19 54ZM54 33H82C87.5695 33 92.911 35.2125 96.8492 39.1508C100.788 43.089 103 48.4305 103 54V82C103 87.5695 100.788 92.911 96.8492 96.8492C92.911 100.788 87.5695 103 82 103H54C48.4305 103 43.089 100.788 39.1508 96.8492C35.2125 92.911 33 87.5695 33 82V54C33 48.4305 35.2125 43.089 39.1508 39.1508C43.089 35.2125 48.4305 33 54 33Z" fill="white"/>
</mask>
<g mask="url(#mask1_640_2325)">
<path d="M117 19H19V117H117V19Z" fill="black"/>
</g>
<mask id="mask2_640_2325" style="mask-type:luminance" maskUnits="userSpaceOnUse" x="47" y="47" width="42" height="42">
<path d="M68 89C79.598 89 89 79.598 89 68C89 56.402 79.598 47 68 47C56.402 47 47 56.402 47 68C47 79.598 56.402 89 68 89Z" fill="white"/>
</mask>
<g mask="url(#mask2_640_2325)">
<path d="M89 47H47V89H89V47Z" fill="black"/>
</g>
<mask id="mask3_640_2325" style="mask-type:luminance" maskUnits="userSpaceOnUse" x="383" y="19" width="98" height="98">
<path fill-rule="evenodd" clip-rule="evenodd" d="M446 19H418C408.717 19 399.815 22.6875 393.251 29.2513C386.687 35.815 383 44.7174 383 54V82C383 91.2826 386.687 100.185 393.251 106.749C399.815 113.313 408.717 117 418 117H446C455.283 117 464.185 113.313 470.749 106.749C477.313 100.185 481 91.2826 481 82V54C481 44.7174 477.313 35.815 470.749 29.2513C464.185 22.6875 455.283 19 446 19ZM467 54V82C467 87.5695 464.788 92.911 460.849 96.8492C456.911 100.788 451.57 103 446 103H418C412.43 103 407.089 100.788 403.151 96.8492C399.212 92.911 397 87.5695 397 82V54C397 48.4305 399.212 43.089 403.151 39.1508C407.089 35.2125 412.43 33 418 33H446C451.57 33 456.911 35.2125 460.849 39.1508C464.788 43.089 467 48.4305 467 54Z" fill="white"/>
</mask>
<g mask="url(#mask3_640_2325)">
<path d="M481 19H383V117H481V19Z" fill="black"/>
</g>
<mask id="mask4_640_2325" style="mask-type:luminance" maskUnits="userSpaceOnUse" x="411" y="47" width="42" height="42">
<path d="M411 68C411 79.598 420.402 89 432 89C443.598 89 453 79.598 453 68C453 56.402 443.598 47 432 47C420.402 47 411 56.402 411 68Z" fill="white"/>
</mask>
<g mask="url(#mask4_640_2325)">
<path d="M453 47H411V89H453V47Z" fill="black"/>
</g>
<mask id="mask5_640_2325" style="mask-type:luminance" maskUnits="userSpaceOnUse" x="19" y="383" width="98" height="98">
<path fill-rule="evenodd" clip-rule="evenodd" d="M54 481H82C91.2826 481 100.185 477.313 106.749 470.749C113.313 464.185 117 455.283 117 446V418C117 408.717 113.313 399.815 106.749 393.251C100.185 386.687 91.2826 383 82 383H54C44.7174 383 35.815 386.687 29.2513 393.251C22.6875 399.815 19 408.717 19 418V446C19 455.283 22.6875 464.185 29.2513 470.749C35.815 477.313 44.7174 481 54 481ZM33 446V418C33 412.43 35.2125 407.089 39.1508 403.151C43.089 399.212 48.4305 397 54 397H82C87.5695 397 92.911 399.212 96.8492 403.151C100.788 407.089 103 412.43 103 418V446C103 451.57 100.788 456.911 96.8492 460.849C92.911 464.788 87.5695 467 82 467H54C48.4305 467 43.089 464.788 39.1508 460.849C35.2125 456.911 33 451.57 33 446Z" fill="white"/>
</mask>
<g mask="url(#mask5_640_2325)">
<path d="M117 383H19V481H117V383Z" fill="black"/>
</g>
<mask id="mask6_640_2325" style="mask-type:luminance" maskUnits="userSpaceOnUse" x="47" y="411" width="42" height="42">
<path d="M89 432C89 420.402 79.598 411 68 411C56.402 411 47 420.402 47 432C47 443.598 56.402 453 68 453C79.598 453 89 443.598 89 432Z" fill="white"/>
</mask>
<g mask="url(#mask6_640_2325)">
<path d="M89 411H47V453H89V411Z" fill="black"/>
</g>
<rect x="194" y="194" width="112" height="112" rx="20" fill="white"/>
</g>
<defs>
<clipPath id="clip0_640_2325">
<rect width="500" height="500" fill="white"/>
</clipPath>
</defs>
</svg>
