<svg width="500" height="500" viewBox="0 0 500 500" fill="none" xmlns="http://www.w3.org/2000/svg">
<g clip-path="url(#clip0_640_3207)">
<path d="M500 0H0V500H500V0Z" fill="white"/>
<mask id="mask0_640_3207" style="mask-type:luminance" maskUnits="userSpaceOnUse" x="18" y="18" width="464" height="464">
<path d="M34 178V162H26C23.8783 162 21.8434 162.843 20.3431 164.343C18.8429 165.843 18 167.878 18 170C18 172.122 18.8429 174.157 20.3431 175.657C21.8434 177.157 23.8783 178 26 178" fill="white"/>
<path d="M18 210H34V202C34 199.878 33.1572 197.843 31.6569 196.343C30.1566 194.843 28.1217 194 26 194C23.8783 194 21.8434 194.843 20.3431 196.343C18.8428 197.843 18 199.878 18 202" fill="white"/>
<path d="M34 210H18V226H34V210Z" fill="white"/>
<path d="M34 226H18V242H34V226Z" fill="white"/>
<path d="M34 242H18V250C18 252.122 18.8428 254.157 20.3431 255.657C21.8434 257.157 23.8783 258 26 258C28.1217 258 30.1566 257.157 31.6569 255.657C33.1572 254.157 34 252.122 34 250" fill="white"/>
<path d="M34 162V178H50V170C50 167.878 49.1571 165.843 47.6569 164.343C46.1566 162.843 44.1217 162 42 162" fill="white"/>
<path d="M50 194V178H34V186C34 188.122 34.8429 190.157 36.3431 191.657C37.8434 193.157 39.8783 194 42 194" fill="white"/>
<path d="M34 306H50V290H42C39.8783 290 37.8434 290.843 36.3431 292.343C34.8428 293.843 34 295.878 34 298" fill="white"/>
<path d="M50 306H34V322H50V306Z" fill="white"/>
<path d="M50 322H34V330C34 332.122 34.8428 334.157 36.3431 335.657C37.8434 337.157 39.8783 338 42 338C44.1217 338 46.1566 337.157 47.6569 335.657C49.1572 334.157 50 332.122 50 330" fill="white"/>
<path d="M58 162C62.4183 162 66 158.418 66 154C66 149.582 62.4183 146 58 146C53.5817 146 50 149.582 50 154C50 158.418 53.5817 162 58 162Z" fill="white"/>
<path d="M66 178H50V194H66V178Z" fill="white"/>
<path d="M66 194H50V210H66V194Z" fill="white"/>
<path d="M66 210H50V226H66V210Z" fill="white"/>
<path d="M66 226H50V242H66V226Z" fill="white"/>
<path d="M66 258V242H50V250C50 252.122 50.8429 254.157 52.3431 255.657C53.8434 257.157 55.8783 258 58 258" fill="white"/>
<path d="M50 290H66V274H58C55.8783 274 53.8434 274.843 52.3431 276.343C50.8428 277.843 50 279.878 50 282" fill="white"/>
<path d="M66 290H50V306H66V290Z" fill="white"/>
<path d="M66 306H50V322H66V306Z" fill="white"/>
<path d="M66 354V338H58C55.8783 338 53.8434 338.843 52.3431 340.343C50.8429 341.843 50 343.878 50 346C50 348.122 50.8429 350.157 52.3431 351.657C53.8434 353.157 55.8783 354 58 354" fill="white"/>
<path d="M82 178H66V194H82V178Z" fill="white"/>
<path d="M82 194H66V210H82V194Z" fill="white"/>
<path d="M82 210H66V226H82V210Z" fill="white"/>
<path d="M82 226H66V242H82V226Z" fill="white"/>
<path d="M82 242H66V258H74C76.1217 258 78.1566 257.157 79.6569 255.657C81.1572 254.157 82 252.122 82 250" fill="white"/>
<path d="M66 274V290H74C76.1217 290 78.1566 289.157 79.6569 287.657C81.1571 286.157 82 284.122 82 282C82 279.878 81.1571 277.843 79.6569 276.343C78.1566 274.843 76.1217 274 74 274" fill="white"/>
<path d="M82 306H66V322H82V306Z" fill="white"/>
<path d="M66 338V354H74C76.1217 354 78.1566 353.157 79.6569 351.657C81.1571 350.157 82 348.122 82 346C82 343.878 81.1571 341.843 79.6569 340.343C78.1566 338.843 76.1217 338 74 338" fill="white"/>
<path d="M98 162V146H90C87.8783 146 85.8434 146.843 84.3431 148.343C82.8429 149.843 82 151.878 82 154C82 156.122 82.8429 158.157 84.3431 159.657C85.8434 161.157 87.8783 162 90 162" fill="white"/>
<path d="M98 178H82V194H98V178Z" fill="white"/>
<path d="M98 194H82V210H98V194Z" fill="white"/>
<path d="M98 210H82V226H98V210Z" fill="white"/>
<path d="M98 226H82V242H90C92.1217 242 94.1566 241.157 95.6569 239.657C97.1572 238.157 98 236.122 98 234" fill="white"/>
<path d="M82 306V322H90C92.1217 322 94.1566 321.157 95.6569 319.657C97.1571 318.157 98 316.122 98 314C98 311.878 97.1571 309.843 95.6569 308.343C94.1566 306.843 92.1217 306 90 306" fill="white"/>
<path d="M114 146H98V162H114V146Z" fill="white"/>
<path d="M114 178H98V194H114V178Z" fill="white"/>
<path d="M114 290V274H106C103.878 274 101.843 274.843 100.343 276.343C98.8429 277.843 98 279.878 98 282C98 284.122 98.8429 286.157 100.343 287.657C101.843 289.157 103.878 290 106 290" fill="white"/>
<path d="M106 338C110.418 338 114 334.418 114 330C114 325.582 110.418 322 106 322C101.582 322 98 325.582 98 330C98 334.418 101.582 338 106 338Z" fill="white"/>
<path d="M114 146V162H122C124.122 162 126.157 161.157 127.657 159.657C129.157 158.157 130 156.122 130 154C130 151.878 129.157 149.843 127.657 148.343C126.157 146.843 124.122 146 122 146" fill="white"/>
<path d="M114 178V194H122C124.122 194 126.157 193.157 127.657 191.657C129.157 190.157 130 188.122 130 186C130 183.878 129.157 181.843 127.657 180.343C126.157 178.843 124.122 178 122 178" fill="white"/>
<path d="M122 226C126.418 226 130 222.418 130 218C130 213.582 126.418 210 122 210C117.582 210 114 213.582 114 218C114 222.418 117.582 226 122 226Z" fill="white"/>
<path d="M122 258C126.418 258 130 254.418 130 250C130 245.582 126.418 242 122 242C117.582 242 114 245.582 114 250C114 254.418 117.582 258 122 258Z" fill="white"/>
<path d="M114 274V290H122C124.122 290 126.157 289.157 127.657 287.657C129.157 286.157 130 284.122 130 282C130 279.878 129.157 277.843 127.657 276.343C126.157 274.843 124.122 274 122 274" fill="white"/>
<path d="M122 322C126.418 322 130 318.418 130 314C130 309.582 126.418 306 122 306C117.582 306 114 309.582 114 314C114 318.418 117.582 322 122 322Z" fill="white"/>
<path d="M122 354C126.418 354 130 350.418 130 346C130 341.582 126.418 338 122 338C117.582 338 114 341.582 114 346C114 350.418 117.582 354 122 354Z" fill="white"/>
<path d="M146 242V226H138C135.878 226 133.843 226.843 132.343 228.343C130.843 229.843 130 231.878 130 234C130 236.122 130.843 238.157 132.343 239.657C133.843 241.157 135.878 242 138 242" fill="white"/>
<path d="M146 306V290H138C135.878 290 133.843 290.843 132.343 292.343C130.843 293.843 130 295.878 130 298C130 300.122 130.843 302.157 132.343 303.657C133.843 305.157 135.878 306 138 306" fill="white"/>
<path d="M154 50C158.418 50 162 46.4183 162 42C162 37.5817 158.418 34 154 34C149.582 34 146 37.5817 146 42C146 46.4183 149.582 50 154 50Z" fill="white"/>
<path d="M154 98C158.418 98 162 94.4183 162 90C162 85.5817 158.418 82 154 82C149.582 82 146 85.5817 146 90C146 94.4183 149.582 98 154 98Z" fill="white"/>
<path d="M154 130C158.418 130 162 126.418 162 122C162 117.582 158.418 114 154 114C149.582 114 146 117.582 146 122C146 126.418 149.582 130 154 130Z" fill="white"/>
<path d="M146 162H162V146H154C151.878 146 149.843 146.843 148.343 148.343C146.843 149.843 146 151.878 146 154" fill="white"/>
<path d="M162 162H146V178H162V162Z" fill="white"/>
<path d="M162 178H146V194H162V178Z" fill="white"/>
<path d="M162 194H146V202C146 204.122 146.843 206.157 148.343 207.657C149.843 209.157 151.878 210 154 210C156.122 210 158.157 209.157 159.657 207.657C161.157 206.157 162 204.122 162 202" fill="white"/>
<path d="M146 226V242H154C156.122 242 158.157 241.157 159.657 239.657C161.157 238.157 162 236.122 162 234C162 231.878 161.157 229.843 159.657 228.343C158.157 226.843 156.122 226 154 226" fill="white"/>
<path d="M146 290H162V274H154C151.878 274 149.843 274.843 148.343 276.343C146.843 277.843 146 279.878 146 282" fill="white"/>
<path d="M162 290H146V306H154C156.122 306 158.157 305.157 159.657 303.657C161.157 302.157 162 300.122 162 298" fill="white"/>
<path d="M154 370C158.418 370 162 366.418 162 362C162 357.582 158.418 354 154 354C149.582 354 146 357.582 146 362C146 366.418 149.582 370 154 370Z" fill="white"/>
<path d="M146 402H162V386H154C151.878 386 149.843 386.843 148.343 388.343C146.843 389.843 146 391.878 146 394" fill="white"/>
<path d="M162 418V402H146V410C146 412.122 146.843 414.157 148.343 415.657C149.843 417.157 151.878 418 154 418" fill="white"/>
<path d="M162 450V434H154C151.878 434 149.843 434.843 148.343 436.343C146.843 437.843 146 439.878 146 442C146 444.122 146.843 446.157 148.343 447.657C149.843 449.157 151.878 450 154 450" fill="white"/>
<path d="M162 66H178V50H170C167.878 50 165.843 50.8428 164.343 52.3431C162.843 53.8434 162 55.8783 162 58" fill="white"/>
<path d="M178 82V66H162V74C162 76.1217 162.843 78.1566 164.343 79.6569C165.843 81.1571 167.878 82 170 82" fill="white"/>
<path d="M178 114V98H170C167.878 98 165.843 98.8429 164.343 100.343C162.843 101.843 162 103.878 162 106C162 108.122 162.843 110.157 164.343 111.657C165.843 113.157 167.878 114 170 114" fill="white"/>
<path d="M178 146H162V162H178V146Z" fill="white"/>
<path d="M178 162H162V178H178V162Z" fill="white"/>
<path d="M178 178H162V194H178V178Z" fill="white"/>
<path d="M170 226C174.418 226 178 222.418 178 218C178 213.582 174.418 210 170 210C165.582 210 162 213.582 162 218C162 222.418 165.582 226 170 226Z" fill="white"/>
<path d="M162 274H178V258H170C167.878 258 165.843 258.843 164.343 260.343C162.843 261.843 162 263.878 162 266" fill="white"/>
<path d="M178 274H162V290H170C172.122 290 174.157 289.157 175.657 287.657C177.157 286.157 178 284.122 178 282" fill="white"/>
<path d="M170 322C174.418 322 178 318.418 178 314C178 309.582 174.418 306 170 306C165.582 306 162 309.582 162 314C162 318.418 165.582 322 170 322Z" fill="white"/>
<path d="M162 386H178V378C178 375.878 177.157 373.843 175.657 372.343C174.157 370.843 172.122 370 170 370C167.878 370 165.843 370.843 164.343 372.343C162.843 373.843 162 375.878 162 378" fill="white"/>
<path d="M178 386H162V402H178V386Z" fill="white"/>
<path d="M178 402H162V418H170C172.122 418 174.157 417.157 175.657 415.657C177.157 414.157 178 412.122 178 410" fill="white"/>
<path d="M178 434H162V450H178V434Z" fill="white"/>
<path d="M178 450H162V466H178V450Z" fill="white"/>
<path d="M178 482V466H162V474C162 476.122 162.843 478.157 164.343 479.657C165.843 481.157 167.878 482 170 482" fill="white"/>
<path d="M178 50V66H194V58C194 55.8783 193.157 53.8434 191.657 52.3431C190.157 50.8429 188.122 50 186 50" fill="white"/>
<path d="M194 66H178V82H186C188.122 82 190.157 81.1572 191.657 79.6569C193.157 78.1566 194 76.1217 194 74" fill="white"/>
<path d="M178 98V114H194V106C194 103.878 193.157 101.843 191.657 100.343C190.157 98.8429 188.122 98 186 98" fill="white"/>
<path d="M194 114H178V130H194V114Z" fill="white"/>
<path d="M194 130H178V146H194V130Z" fill="white"/>
<path d="M194 146H178V162H194V146Z" fill="white"/>
<path d="M194 162H178V178H194V162Z" fill="white"/>
<path d="M194 178H178V194H194V178Z" fill="white"/>
<path d="M194 210V194H178V202C178 204.122 178.843 206.157 180.343 207.657C181.843 209.157 183.878 210 186 210" fill="white"/>
<path d="M194 258H178V274H194V258Z" fill="white"/>
<path d="M178 354H194V338H186C183.878 338 181.843 338.843 180.343 340.343C178.843 341.843 178 343.878 178 346" fill="white"/>
<path d="M194 370V354H178V362C178 364.122 178.843 366.157 180.343 367.657C181.843 369.157 183.878 370 186 370" fill="white"/>
<path d="M178 434H194V426C194 423.878 193.157 421.843 191.657 420.343C190.157 418.843 188.122 418 186 418C183.878 418 181.843 418.843 180.343 420.343C178.843 421.843 178 423.878 178 426" fill="white"/>
<path d="M194 434H178V450H186C188.122 450 190.157 449.157 191.657 447.657C193.157 446.157 194 444.122 194 442" fill="white"/>
<path d="M194 466H178V482H194V466Z" fill="white"/>
<path d="M210 50V34H202C199.878 34 197.843 34.8429 196.343 36.3431C194.843 37.8434 194 39.8783 194 42C194 44.1217 194.843 46.1566 196.343 47.6569C197.843 49.1571 199.878 50 202 50" fill="white"/>
<path d="M210 98V82H202C199.878 82 197.843 82.8429 196.343 84.3431C194.843 85.8434 194 87.8783 194 90C194 92.1217 194.843 94.1566 196.343 95.6569C197.843 97.1571 199.878 98 202 98" fill="white"/>
<path d="M194 178V194H210V186C210 183.878 209.157 181.843 207.657 180.343C206.157 178.843 204.122 178 202 178" fill="white"/>
<path d="M210 194H194V210H210V194Z" fill="white"/>
<path d="M210 226V210H194V218C194 220.122 194.843 222.157 196.343 223.657C197.843 225.157 199.878 226 202 226" fill="white"/>
<path d="M194 258H210V242H202C199.878 242 197.843 242.843 196.343 244.343C194.843 245.843 194 247.878 194 250" fill="white"/>
<path d="M210 258H194V274H210V258Z" fill="white"/>
<path d="M210 274H194V290H210V274Z" fill="white"/>
<path d="M210 290H194V306H210V290Z" fill="white"/>
<path d="M210 306H194V322H210V306Z" fill="white"/>
<path d="M210 322H194V338H210V322Z" fill="white"/>
<path d="M210 338H194V354H210V338Z" fill="white"/>
<path d="M210 354H194V370H202C204.122 370 206.157 369.157 207.657 367.657C209.157 366.157 210 364.122 210 362" fill="white"/>
<path d="M194 466H210V458C210 455.878 209.157 453.843 207.657 452.343C206.157 450.843 204.122 450 202 450C199.878 450 197.843 450.843 196.343 452.343C194.843 453.843 194 455.878 194 458" fill="white"/>
<path d="M210 466H194V482H210V466Z" fill="white"/>
<path d="M210 34H226V26C226 23.8783 225.157 21.8434 223.657 20.3431C222.157 18.8428 220.122 18 218 18C215.878 18 213.843 18.8428 212.343 20.3431C210.843 21.8434 210 23.8783 210 26" fill="white"/>
<path d="M226 34H210V50H226V34Z" fill="white"/>
<path d="M226 50H210V66H226V50Z" fill="white"/>
<path d="M226 66H210V82H226V66Z" fill="white"/>
<path d="M226 82H210V98H226V82Z" fill="white"/>
<path d="M218 130C222.418 130 226 126.418 226 122C226 117.582 222.418 114 218 114C213.582 114 210 117.582 210 122C210 126.418 213.582 130 218 130Z" fill="white"/>
<path d="M226 162V146H218C215.878 146 213.843 146.843 212.343 148.343C210.843 149.843 210 151.878 210 154C210 156.122 210.843 158.157 212.343 159.657C213.843 161.157 215.878 162 218 162" fill="white"/>
<path d="M210 194V210H226V202C226 199.878 225.157 197.843 223.657 196.343C222.157 194.843 220.122 194 218 194" fill="white"/>
<path d="M226 210H210V226H226V210Z" fill="white"/>
<path d="M226 226H210V242H226V226Z" fill="white"/>
<path d="M226 242H210V258H226V242Z" fill="white"/>
<path d="M226 258H210V274H226V258Z" fill="white"/>
<path d="M226 274H210V290H226V274Z" fill="white"/>
<path d="M226 290H210V306H218C220.122 306 222.157 305.157 223.657 303.657C225.157 302.157 226 300.122 226 298" fill="white"/>
<path d="M210 338V354H218C220.122 354 222.157 353.157 223.657 351.657C225.157 350.157 226 348.122 226 346C226 343.878 225.157 341.843 223.657 340.343C222.157 338.843 220.122 338 218 338" fill="white"/>
<path d="M218 402C222.418 402 226 398.418 226 394C226 389.582 222.418 386 218 386C213.582 386 210 389.582 210 394C210 398.418 213.582 402 218 402Z" fill="white"/>
<path d="M218 434C222.418 434 226 430.418 226 426C226 421.582 222.418 418 218 418C213.582 418 210 421.582 210 426C210 430.418 213.582 434 218 434Z" fill="white"/>
<path d="M226 466H210V482H226V466Z" fill="white"/>
<path d="M242 34H226V50H242V34Z" fill="white"/>
<path d="M226 66V82H242V74C242 71.8783 241.157 69.8434 239.657 68.3431C238.157 66.8429 236.122 66 234 66" fill="white"/>
<path d="M242 82H226V98H242V82Z" fill="white"/>
<path d="M226 146V162H242V154C242 151.878 241.157 149.843 239.657 148.343C238.157 146.843 236.122 146 234 146" fill="white"/>
<path d="M242 162H226V178H242V162Z" fill="white"/>
<path d="M242 178H226V186C226 188.122 226.843 190.157 228.343 191.657C229.843 193.157 231.878 194 234 194C236.122 194 238.157 193.157 239.657 191.657C241.157 190.157 242 188.122 242 186" fill="white"/>
<path d="M226 226V242H234C236.122 242 238.157 241.157 239.657 239.657C241.157 238.157 242 236.122 242 234C242 231.878 241.157 229.843 239.657 228.343C238.157 226.843 236.122 226 234 226" fill="white"/>
<path d="M242 258H226V274H242V258Z" fill="white"/>
<path d="M242 274H226V290H242V274Z" fill="white"/>
<path d="M242 322V306H234C231.878 306 229.843 306.843 228.343 308.343C226.843 309.843 226 311.878 226 314C226 316.122 226.843 318.157 228.343 319.657C229.843 321.157 231.878 322 234 322" fill="white"/>
<path d="M234 386C238.418 386 242 382.418 242 378C242 373.582 238.418 370 234 370C229.582 370 226 373.582 226 378C226 382.418 229.582 386 234 386Z" fill="white"/>
<path d="M242 418V402H234C231.878 402 229.843 402.843 228.343 404.343C226.843 405.843 226 407.878 226 410C226 412.122 226.843 414.157 228.343 415.657C229.843 417.157 231.878 418 234 418" fill="white"/>
<path d="M234 450C238.418 450 242 446.418 242 442C242 437.582 238.418 434 234 434C229.582 434 226 437.582 226 442C226 446.418 229.582 450 234 450Z" fill="white"/>
<path d="M242 466H226V482H242V466Z" fill="white"/>
<path d="M242 34H258V18H250C247.878 18 245.843 18.8428 244.343 20.3431C242.843 21.8434 242 23.8783 242 26" fill="white"/>
<path d="M258 34H242V50H250C252.122 50 254.157 49.1572 255.657 47.6569C257.157 46.1566 258 44.1217 258 42" fill="white"/>
<path d="M242 82V98H250C252.122 98 254.157 97.1571 255.657 95.6569C257.157 94.1566 258 92.1217 258 90C258 87.8783 257.157 85.8434 255.657 84.3431C254.157 82.8429 252.122 82 250 82" fill="white"/>
<path d="M242 130H258V122C258 119.878 257.157 117.843 255.657 116.343C254.157 114.843 252.122 114 250 114C247.878 114 245.843 114.843 244.343 116.343C242.843 117.843 242 119.878 242 122" fill="white"/>
<path d="M258 146V130H242V138C242 140.122 242.843 142.157 244.343 143.657C245.843 145.157 247.878 146 250 146" fill="white"/>
<path d="M258 162H242V178H258V162Z" fill="white"/>
<path d="M242 258H258V250C258 247.878 257.157 245.843 255.657 244.343C254.157 242.843 252.122 242 250 242C247.878 242 245.843 242.843 244.343 244.343C242.843 245.843 242 247.878 242 250" fill="white"/>
<path d="M258 258H242V274H258V258Z" fill="white"/>
<path d="M258 274H242V290H258V274Z" fill="white"/>
<path d="M258 290H242V306H258V290Z" fill="white"/>
<path d="M258 306H242V322H258V306Z" fill="white"/>
<path d="M250 370C254.418 370 258 366.418 258 362C258 357.582 254.418 354 250 354C245.582 354 242 357.582 242 362C242 366.418 245.582 370 250 370Z" fill="white"/>
<path d="M242 402V418H250C252.122 418 254.157 417.157 255.657 415.657C257.157 414.157 258 412.122 258 410C258 407.878 257.157 405.843 255.657 404.343C254.157 402.843 252.122 402 250 402" fill="white"/>
<path d="M242 466V482H250C252.122 482 254.157 481.157 255.657 479.657C257.157 478.157 258 476.122 258 474C258 471.878 257.157 469.843 255.657 468.343C254.157 466.843 252.122 466 250 466" fill="white"/>
<path d="M274 18H258V34H274V18Z" fill="white"/>
<path d="M258 66H274V50H266C263.878 50 261.843 50.8428 260.343 52.3431C258.843 53.8434 258 55.8783 258 58" fill="white"/>
<path d="M274 66H258V74C258 76.1217 258.843 78.1566 260.343 79.6569C261.843 81.1572 263.878 82 266 82C268.122 82 270.157 81.1572 271.657 79.6569C273.157 78.1566 274 76.1217 274 74" fill="white"/>
<path d="M258 130V146H266C268.122 146 270.157 145.157 271.657 143.657C273.157 142.157 274 140.122 274 138C274 135.878 273.157 133.843 271.657 132.343C270.157 130.843 268.122 130 266 130" fill="white"/>
<path d="M258 162V178H274V170C274 167.878 273.157 165.843 271.657 164.343C270.157 162.843 268.122 162 266 162" fill="white"/>
<path d="M274 194V178H258V186C258 188.122 258.843 190.157 260.343 191.657C261.843 193.157 263.878 194 266 194" fill="white"/>
<path d="M258 226H274V210H266C263.878 210 261.843 210.843 260.343 212.343C258.843 213.843 258 215.878 258 218" fill="white"/>
<path d="M274 242V226H258V234C258 236.122 258.843 238.157 260.343 239.657C261.843 241.157 263.878 242 266 242" fill="white"/>
<path d="M258 258V274H274V266C274 263.878 273.157 261.843 271.657 260.343C270.157 258.843 268.122 258 266 258" fill="white"/>
<path d="M274 274H258V290H274V274Z" fill="white"/>
<path d="M274 290H258V306H274V290Z" fill="white"/>
<path d="M274 306H258V322H266C268.122 322 270.157 321.157 271.657 319.657C273.157 318.157 274 316.122 274 314" fill="white"/>
<path d="M274 354V338H266C263.878 338 261.843 338.843 260.343 340.343C258.843 341.843 258 343.878 258 346C258 348.122 258.843 350.157 260.343 351.657C261.843 353.157 263.878 354 266 354" fill="white"/>
<path d="M258 386H274V378C274 375.878 273.157 373.843 271.657 372.343C270.157 370.843 268.122 370 266 370C263.878 370 261.843 370.843 260.343 372.343C258.843 373.843 258 375.878 258 378" fill="white"/>
<path d="M274 402V386H258V394C258 396.122 258.843 398.157 260.343 399.657C261.843 401.157 263.878 402 266 402" fill="white"/>
<path d="M266 434C270.418 434 274 430.418 274 426C274 421.582 270.418 418 266 418C261.582 418 258 421.582 258 426C258 430.418 261.582 434 266 434Z" fill="white"/>
<path d="M290 18H274V34H290V18Z" fill="white"/>
<path d="M290 34H274V50H290V34Z" fill="white"/>
<path d="M290 50H274V66H290V50Z" fill="white"/>
<path d="M290 98V82H282C279.878 82 277.843 82.8429 276.343 84.3431C274.843 85.8434 274 87.8783 274 90C274 92.1217 274.843 94.1566 276.343 95.6569C277.843 97.1571 279.878 98 282 98" fill="white"/>
<path d="M282 130C286.418 130 290 126.418 290 122C290 117.582 286.418 114 282 114C277.582 114 274 117.582 274 122C274 126.418 277.582 130 282 130Z" fill="white"/>
<path d="M290 162V146H282C279.878 146 277.843 146.843 276.343 148.343C274.843 149.843 274 151.878 274 154C274 156.122 274.843 158.157 276.343 159.657C277.843 161.157 279.878 162 282 162" fill="white"/>
<path d="M274 178V194H290V186C290 183.878 289.157 181.843 287.657 180.343C286.157 178.843 284.122 178 282 178" fill="white"/>
<path d="M290 194H274V210H290V194Z" fill="white"/>
<path d="M290 210H274V226H290V210Z" fill="white"/>
<path d="M290 226H274V242H290V226Z" fill="white"/>
<path d="M290 258V242H274V250C274 252.122 274.843 254.157 276.343 255.657C277.843 257.157 279.878 258 282 258" fill="white"/>
<path d="M274 274V290H290V282C290 279.878 289.157 277.843 287.657 276.343C286.157 274.843 284.122 274 282 274" fill="white"/>
<path d="M290 290H274V306H290V290Z" fill="white"/>
<path d="M274 338H290V330C290 327.878 289.157 325.843 287.657 324.343C286.157 322.843 284.122 322 282 322C279.878 322 277.843 322.843 276.343 324.343C274.843 325.843 274 327.878 274 330" fill="white"/>
<path d="M290 338H274V354H290V338Z" fill="white"/>
<path d="M290 354H274V362C274 364.122 274.843 366.157 276.343 367.657C277.843 369.157 279.878 370 282 370C284.122 370 286.157 369.157 287.657 367.657C289.157 366.157 290 364.122 290 362" fill="white"/>
<path d="M290 386H274V402H290V386Z" fill="white"/>
<path d="M282 466C286.418 466 290 462.418 290 458C290 453.582 286.418 450 282 450C277.582 450 274 453.582 274 458C274 462.418 277.582 466 282 466Z" fill="white"/>
<path d="M290 18V34H306V26C306 23.8783 305.157 21.8434 303.657 20.3431C302.157 18.8429 300.122 18 298 18" fill="white"/>
<path d="M306 34H290V50H306V34Z" fill="white"/>
<path d="M306 50H290V66H306V50Z" fill="white"/>
<path d="M306 66H290V82H306V66Z" fill="white"/>
<path d="M306 82H290V98H298C300.122 98 302.157 97.1572 303.657 95.6569C305.157 94.1566 306 92.1217 306 90" fill="white"/>
<path d="M290 146V162H306V154C306 151.878 305.157 149.843 303.657 148.343C302.157 146.843 300.122 146 298 146" fill="white"/>
<path d="M306 178V162H290V170C290 172.122 290.843 174.157 292.343 175.657C293.843 177.157 295.878 178 298 178" fill="white"/>
<path d="M290 194V210H306V202C306 199.878 305.157 197.843 303.657 196.343C302.157 194.843 300.122 194 298 194" fill="white"/>
<path d="M306 210H290V226H306V210Z" fill="white"/>
<path d="M306 226H290V242H306V226Z" fill="white"/>
<path d="M306 242H290V258H306V242Z" fill="white"/>
<path d="M290 290V306H298C300.122 306 302.157 305.157 303.657 303.657C305.157 302.157 306 300.122 306 298C306 295.878 305.157 293.843 303.657 292.343C302.157 290.843 300.122 290 298 290" fill="white"/>
<path d="M290 386H306V378C306 375.878 305.157 373.843 303.657 372.343C302.157 370.843 300.122 370 298 370C295.878 370 293.843 370.843 292.343 372.343C290.843 373.843 290 375.878 290 378" fill="white"/>
<path d="M306 386H290V402H306V386Z" fill="white"/>
<path d="M306 402H290V410C290 412.122 290.843 414.157 292.343 415.657C293.843 417.157 295.878 418 298 418C300.122 418 302.157 417.157 303.657 415.657C305.157 414.157 306 412.122 306 410" fill="white"/>
<path d="M306 482V466H298C295.878 466 293.843 466.843 292.343 468.343C290.843 469.843 290 471.878 290 474C290 476.122 290.843 478.157 292.343 479.657C293.843 481.157 295.878 482 298 482" fill="white"/>
<path d="M322 50H306V66H322V50Z" fill="white"/>
<path d="M306 114H322V98H314C311.878 98 309.843 98.8428 308.343 100.343C306.843 101.843 306 103.878 306 106" fill="white"/>
<path d="M322 114H306V130H322V114Z" fill="white"/>
<path d="M322 130H306V138C306 140.122 306.843 142.157 308.343 143.657C309.843 145.157 311.878 146 314 146C316.122 146 318.157 145.157 319.657 143.657C321.157 142.157 322 140.122 322 138" fill="white"/>
<path d="M306 162V178H314C316.122 178 318.157 177.157 319.657 175.657C321.157 174.157 322 172.122 322 170C322 167.878 321.157 165.843 319.657 164.343C318.157 162.843 316.122 162 314 162" fill="white"/>
<path d="M306 242V258H322V250C322 247.878 321.157 245.843 319.657 244.343C318.157 242.843 316.122 242 314 242" fill="white"/>
<path d="M322 274V258H306V266C306 268.122 306.843 270.157 308.343 271.657C309.843 273.157 311.878 274 314 274" fill="white"/>
<path d="M322 322V306H314C311.878 306 309.843 306.843 308.343 308.343C306.843 309.843 306 311.878 306 314C306 316.122 306.843 318.157 308.343 319.657C309.843 321.157 311.878 322 314 322" fill="white"/>
<path d="M306 434H322V418H314C311.878 418 309.843 418.843 308.343 420.343C306.843 421.843 306 423.878 306 426" fill="white"/>
<path d="M322 434H306V442C306 444.122 306.843 446.157 308.343 447.657C309.843 449.157 311.878 450 314 450C316.122 450 318.157 449.157 319.657 447.657C321.157 446.157 322 444.122 322 442" fill="white"/>
<path d="M306 466V482H314C316.122 482 318.157 481.157 319.657 479.657C321.157 478.157 322 476.122 322 474C322 471.878 321.157 469.843 319.657 468.343C318.157 466.843 316.122 466 314 466" fill="white"/>
<path d="M322 50V66H330C332.122 66 334.157 65.1571 335.657 63.6569C337.157 62.1566 338 60.1217 338 58C338 55.8783 337.157 53.8434 335.657 52.3431C334.157 50.8429 332.122 50 330 50" fill="white"/>
<path d="M322 98H338V90C338 87.8783 337.157 85.8434 335.657 84.3431C334.157 82.8428 332.122 82 330 82C327.878 82 325.843 82.8428 324.343 84.3431C322.843 85.8434 322 87.8783 322 90" fill="white"/>
<path d="M338 98H322V114H338V98Z" fill="white"/>
<path d="M330 162C334.418 162 338 158.418 338 154C338 149.582 334.418 146 330 146C325.582 146 322 149.582 322 154C322 158.418 325.582 162 330 162Z" fill="white"/>
<path d="M330 194C334.418 194 338 190.418 338 186C338 181.582 334.418 178 330 178C325.582 178 322 181.582 322 186C322 190.418 325.582 194 330 194Z" fill="white"/>
<path d="M338 226V210H330C327.878 210 325.843 210.843 324.343 212.343C322.843 213.843 322 215.878 322 218C322 220.122 322.843 222.157 324.343 223.657C325.843 225.157 327.878 226 330 226" fill="white"/>
<path d="M322 258V274H338V266C338 263.878 337.157 261.843 335.657 260.343C334.157 258.843 332.122 258 330 258" fill="white"/>
<path d="M338 274H322V290H338V274Z" fill="white"/>
<path d="M338 290H322V306H338V290Z" fill="white"/>
<path d="M338 306H322V322H338V306Z" fill="white"/>
<path d="M338 338V322H322V330C322 332.122 322.843 334.157 324.343 335.657C325.843 337.157 327.878 338 330 338" fill="white"/>
<path d="M338 402V386H330C327.878 386 325.843 386.843 324.343 388.343C322.843 389.843 322 391.878 322 394C322 396.122 322.843 398.157 324.343 399.657C325.843 401.157 327.878 402 330 402" fill="white"/>
<path d="M322 418V434H330C332.122 434 334.157 433.157 335.657 431.657C337.157 430.157 338 428.122 338 426C338 423.878 337.157 421.843 335.657 420.343C334.157 418.843 332.122 418 330 418" fill="white"/>
<path d="M338 466V450H330C327.878 450 325.843 450.843 324.343 452.343C322.843 453.843 322 455.878 322 458C322 460.122 322.843 462.157 324.343 463.657C325.843 465.157 327.878 466 330 466" fill="white"/>
<path d="M338 34H354V26C354 23.8783 353.157 21.8434 351.657 20.3431C350.157 18.8428 348.122 18 346 18C343.878 18 341.843 18.8428 340.343 20.3431C338.843 21.8434 338 23.8783 338 26" fill="white"/>
<path d="M354 34H338V42C338 44.1217 338.843 46.1566 340.343 47.6569C341.843 49.1572 343.878 50 346 50C348.122 50 350.157 49.1572 351.657 47.6569C353.157 46.1566 354 44.1217 354 42" fill="white"/>
<path d="M338 98V114H354V106C354 103.878 353.157 101.843 351.657 100.343C350.157 98.8429 348.122 98 346 98" fill="white"/>
<path d="M354 114H338V130H354V114Z" fill="white"/>
<path d="M354 130H338V138C338 140.122 338.843 142.157 340.343 143.657C341.843 145.157 343.878 146 346 146C348.122 146 350.157 145.157 351.657 143.657C353.157 142.157 354 140.122 354 138" fill="white"/>
<path d="M346 178C350.418 178 354 174.418 354 170C354 165.582 350.418 162 346 162C341.582 162 338 165.582 338 170C338 174.418 341.582 178 346 178Z" fill="white"/>
<path d="M338 210H354V202C354 199.878 353.157 197.843 351.657 196.343C350.157 194.843 348.122 194 346 194C343.878 194 341.843 194.843 340.343 196.343C338.843 197.843 338 199.878 338 202" fill="white"/>
<path d="M354 210H338V226H354V210Z" fill="white"/>
<path d="M354 226H338V242H354V226Z" fill="white"/>
<path d="M354 242H338V250C338 252.122 338.843 254.157 340.343 255.657C341.843 257.157 343.878 258 346 258C348.122 258 350.157 257.157 351.657 255.657C353.157 254.157 354 252.122 354 250" fill="white"/>
<path d="M338 290V306H346C348.122 306 350.157 305.157 351.657 303.657C353.157 302.157 354 300.122 354 298C354 295.878 353.157 293.843 351.657 292.343C350.157 290.843 348.122 290 346 290" fill="white"/>
<path d="M354 322H338V338H354V322Z" fill="white"/>
<path d="M354 338H338V354H354V338Z" fill="white"/>
<path d="M354 354H338V370H354V354Z" fill="white"/>
<path d="M354 370H338V386H354V370Z" fill="white"/>
<path d="M354 386H338V402H354V386Z" fill="white"/>
<path d="M354 418V402H338V410C338 412.122 338.843 414.157 340.343 415.657C341.843 417.157 343.878 418 346 418" fill="white"/>
<path d="M338 450V466H354V458C354 455.878 353.157 453.843 351.657 452.343C350.157 450.843 348.122 450 346 450" fill="white"/>
<path d="M354 482V466H338V474C338 476.122 338.843 478.157 340.343 479.657C341.843 481.157 343.878 482 346 482" fill="white"/>
<path d="M362 162C366.418 162 370 158.418 370 154C370 149.582 366.418 146 362 146C357.582 146 354 149.582 354 154C354 158.418 357.582 162 362 162Z" fill="white"/>
<path d="M370 194V178H362C359.878 178 357.843 178.843 356.343 180.343C354.843 181.843 354 183.878 354 186C354 188.122 354.843 190.157 356.343 191.657C357.843 193.157 359.878 194 362 194" fill="white"/>
<path d="M354 210V226H370V218C370 215.878 369.157 213.843 367.657 212.343C366.157 210.843 364.122 210 362 210" fill="white"/>
<path d="M370 226H354V242H362C364.122 242 366.157 241.157 367.657 239.657C369.157 238.157 370 236.122 370 234" fill="white"/>
<path d="M370 274V258H362C359.878 258 357.843 258.843 356.343 260.343C354.843 261.843 354 263.878 354 266C354 268.122 354.843 270.157 356.343 271.657C357.843 273.157 359.878 274 362 274" fill="white"/>
<path d="M370 322H354V338H370V322Z" fill="white"/>
<path d="M370 338H354V354H370V338Z" fill="white"/>
<path d="M370 402H354V418H370V402Z" fill="white"/>
<path d="M362 450C366.418 450 370 446.418 370 442C370 437.582 366.418 434 362 434C357.582 434 354 437.582 354 442C354 446.418 357.582 450 362 450Z" fill="white"/>
<path d="M370 466H354V482H370V466Z" fill="white"/>
<path d="M386 178H370V194H386V178Z" fill="white"/>
<path d="M386 194H370V202C370 204.122 370.843 206.157 372.343 207.657C373.843 209.157 375.878 210 378 210C380.122 210 382.157 209.157 383.657 207.657C385.157 206.157 386 204.122 386 202" fill="white"/>
<path d="M386 258H370V274H386V258Z" fill="white"/>
<path d="M386 274H370V282C370 284.122 370.843 286.157 372.343 287.657C373.843 289.157 375.878 290 378 290C380.122 290 382.157 289.157 383.657 287.657C385.157 286.157 386 284.122 386 282" fill="white"/>
<path d="M386 322H370V338H386V322Z" fill="white"/>
<path d="M386 338H370V354H386V338Z" fill="white"/>
<path d="M378 386C382.418 386 386 382.418 386 378C386 373.582 382.418 370 378 370C373.582 370 370 373.582 370 378C370 382.418 373.582 386 378 386Z" fill="white"/>
<path d="M386 402H370V418H386V402Z" fill="white"/>
<path d="M370 466V482H378C380.122 482 382.157 481.157 383.657 479.657C385.157 478.157 386 476.122 386 474C386 471.878 385.157 469.843 383.657 468.343C382.157 466.843 380.122 466 378 466" fill="white"/>
<path d="M386 178H402V162H394C391.878 162 389.843 162.843 388.343 164.343C386.843 165.843 386 167.878 386 170" fill="white"/>
<path d="M402 178H386V194H394C396.122 194 398.157 193.157 399.657 191.657C401.157 190.157 402 188.122 402 186" fill="white"/>
<path d="M386 258H402V242H394C391.878 242 389.843 242.843 388.343 244.343C386.843 245.843 386 247.878 386 250" fill="white"/>
<path d="M402 258H386V274H394C396.122 274 398.157 273.157 399.657 271.657C401.157 270.157 402 268.122 402 266" fill="white"/>
<path d="M394 306C398.418 306 402 302.418 402 298C402 293.582 398.418 290 394 290C389.582 290 386 293.582 386 298C386 302.418 389.582 306 394 306Z" fill="white"/>
<path d="M402 322H386V338H402V322Z" fill="white"/>
<path d="M402 338H386V354H402V338Z" fill="white"/>
<path d="M402 402H386V418H402V402Z" fill="white"/>
<path d="M402 418H386V426C386 428.122 386.843 430.157 388.343 431.657C389.843 433.157 391.878 434 394 434C396.122 434 398.157 433.157 399.657 431.657C401.157 430.157 402 428.122 402 426" fill="white"/>
<path d="M402 466V450H394C391.878 450 389.843 450.843 388.343 452.343C386.843 453.843 386 455.878 386 458C386 460.122 386.843 462.157 388.343 463.657C389.843 465.157 391.878 466 394 466" fill="white"/>
<path d="M402 162H418V154C418 151.878 417.157 149.843 415.657 148.343C414.157 146.843 412.122 146 410 146C407.878 146 405.843 146.843 404.343 148.343C402.843 149.843 402 151.878 402 154" fill="white"/>
<path d="M418 162H402V178H410C412.122 178 414.157 177.157 415.657 175.657C417.157 174.157 418 172.122 418 170" fill="white"/>
<path d="M418 242H402V258H418V242Z" fill="white"/>
<path d="M402 322H418V306H410C407.878 306 405.843 306.843 404.343 308.343C402.843 309.843 402 311.878 402 314" fill="white"/>
<path d="M418 322H402V338H418V322Z" fill="white"/>
<path d="M418 338H402V354H418V338Z" fill="white"/>
<path d="M418 354H402V370H418V354Z" fill="white"/>
<path d="M418 370H402V386H418V370Z" fill="white"/>
<path d="M418 386H402V402H418V386Z" fill="white"/>
<path d="M418 402H402V418H410C412.122 418 414.157 417.157 415.657 415.657C417.157 414.157 418 412.122 418 410" fill="white"/>
<path d="M418 450H402V466H418V450Z" fill="white"/>
<path d="M418 466H402V474C402 476.122 402.843 478.157 404.343 479.657C405.843 481.157 407.878 482 410 482C412.122 482 414.157 481.157 415.657 479.657C417.157 478.157 418 476.122 418 474" fill="white"/>
<path d="M418 194H434V178H426C423.878 178 421.843 178.843 420.343 180.343C418.843 181.843 418 183.878 418 186" fill="white"/>
<path d="M434 194H418V210H434V194Z" fill="white"/>
<path d="M434 210H418V226H434V210Z" fill="white"/>
<path d="M434 226H418V242H434V226Z" fill="white"/>
<path d="M434 242H418V258H434V242Z" fill="white"/>
<path d="M434 290V274H426C423.878 274 421.843 274.843 420.343 276.343C418.843 277.843 418 279.878 418 282C418 284.122 418.843 286.157 420.343 287.657C421.843 289.157 423.878 290 426 290" fill="white"/>
<path d="M418 306V322H426C428.122 322 430.157 321.157 431.657 319.657C433.157 318.157 434 316.122 434 314C434 311.878 433.157 309.843 431.657 308.343C430.157 306.843 428.122 306 426 306" fill="white"/>
<path d="M418 386V402H426C428.122 402 430.157 401.157 431.657 399.657C433.157 398.157 434 396.122 434 394C434 391.878 433.157 389.843 431.657 388.343C430.157 386.843 428.122 386 426 386" fill="white"/>
<path d="M418 434H434V418H426C423.878 418 421.843 418.843 420.343 420.343C418.843 421.843 418 423.878 418 426" fill="white"/>
<path d="M434 434H418V450H434V434Z" fill="white"/>
<path d="M434 450H418V466H434V450Z" fill="white"/>
<path d="M434 178H450V170C450 167.878 449.157 165.843 447.657 164.343C446.157 162.843 444.122 162 442 162C439.878 162 437.843 162.843 436.343 164.343C434.843 165.843 434 167.878 434 170" fill="white"/>
<path d="M450 178H434V194H450V178Z" fill="white"/>
<path d="M450 226H434V242H450V226Z" fill="white"/>
<path d="M450 242H434V258H442C444.122 258 446.157 257.157 447.657 255.657C449.157 254.157 450 252.122 450 250" fill="white"/>
<path d="M434 274V290H442C444.122 290 446.157 289.157 447.657 287.657C449.157 286.157 450 284.122 450 282C450 279.878 449.157 277.843 447.657 276.343C446.157 274.843 444.122 274 442 274" fill="white"/>
<path d="M434 338H450V322H442C439.878 322 437.843 322.843 436.343 324.343C434.843 325.843 434 327.878 434 330" fill="white"/>
<path d="M450 338H434V354H450V338Z" fill="white"/>
<path d="M450 354H434V362C434 364.122 434.843 366.157 436.343 367.657C437.843 369.157 439.878 370 442 370C444.122 370 446.157 369.157 447.657 367.657C449.157 366.157 450 364.122 450 362" fill="white"/>
<path d="M450 418H434V434H450V418Z" fill="white"/>
<path d="M450 434H434V450H450V434Z" fill="white"/>
<path d="M450 450H434V466H450V450Z" fill="white"/>
<path d="M450 482V466H434V474C434 476.122 434.843 478.157 436.343 479.657C437.843 481.157 439.878 482 442 482" fill="white"/>
<path d="M458 162C462.418 162 466 158.418 466 154C466 149.582 462.418 146 458 146C453.582 146 450 149.582 450 154C450 158.418 453.582 162 458 162Z" fill="white"/>
<path d="M466 178H450V194H466V178Z" fill="white"/>
<path d="M450 226H466V210H458C455.878 210 453.843 210.843 452.343 212.343C450.843 213.843 450 215.878 450 218" fill="white"/>
<path d="M466 226H450V242H458C460.122 242 462.157 241.157 463.657 239.657C465.157 238.157 466 236.122 466 234" fill="white"/>
<path d="M466 306V290H458C455.878 290 453.843 290.843 452.343 292.343C450.843 293.843 450 295.878 450 298C450 300.122 450.843 302.157 452.343 303.657C453.843 305.157 455.878 306 458 306" fill="white"/>
<path d="M450 322V338H466V330C466 327.878 465.157 325.843 463.657 324.343C462.157 322.843 460.122 322 458 322" fill="white"/>
<path d="M466 338H450V354H466V338Z" fill="white"/>
<path d="M450 386H466V378C466 375.878 465.157 373.843 463.657 372.343C462.157 370.843 460.122 370 458 370C455.878 370 453.843 370.843 452.343 372.343C450.843 373.843 450 375.878 450 378" fill="white"/>
<path d="M466 386H450V394C450 396.122 450.843 398.157 452.343 399.657C453.843 401.157 455.878 402 458 402C460.122 402 462.157 401.157 463.657 399.657C465.157 398.157 466 396.122 466 394" fill="white"/>
<path d="M450 418V434H458C460.122 434 462.157 433.157 463.657 431.657C465.157 430.157 466 428.122 466 426C466 423.878 465.157 421.843 463.657 420.343C462.157 418.843 460.122 418 458 418" fill="white"/>
<path d="M466 450H450V466H466V450Z" fill="white"/>
<path d="M466 466H450V482H458C460.122 482 462.157 481.157 463.657 479.657C465.157 478.157 466 476.122 466 474" fill="white"/>
<path d="M466 178H482V170C482 167.878 481.157 165.843 479.657 164.343C478.157 162.843 476.122 162 474 162C471.878 162 469.843 162.843 468.343 164.343C466.843 165.843 466 167.878 466 170" fill="white"/>
<path d="M482 178H466V194H474C476.122 194 478.157 193.157 479.657 191.657C481.157 190.157 482 188.122 482 186" fill="white"/>
<path d="M466 210V226H474C476.122 226 478.157 225.157 479.657 223.657C481.157 222.157 482 220.122 482 218C482 215.878 481.157 213.843 479.657 212.343C478.157 210.843 476.122 210 474 210" fill="white"/>
<path d="M466 258H482V250C482 247.878 481.157 245.843 479.657 244.343C478.157 242.843 476.122 242 474 242C471.878 242 469.843 242.843 468.343 244.343C466.843 245.843 466 247.878 466 250" fill="white"/>
<path d="M482 258H466V266C466 268.122 466.843 270.157 468.343 271.657C469.843 273.157 471.878 274 474 274C476.122 274 478.157 273.157 479.657 271.657C481.157 270.157 482 268.122 482 266" fill="white"/>
<path d="M466 290V306H474C476.122 306 478.157 305.157 479.657 303.657C481.157 302.157 482 300.122 482 298C482 295.878 481.157 293.843 479.657 292.343C478.157 290.843 476.122 290 474 290" fill="white"/>
<path d="M466 338V354H474C476.122 354 478.157 353.157 479.657 351.657C481.157 350.157 482 348.122 482 346C482 343.878 481.157 341.843 479.657 340.343C478.157 338.843 476.122 338 474 338" fill="white"/>
<path d="M474 418C478.418 418 482 414.418 482 410C482 405.582 478.418 402 474 402C469.582 402 466 405.582 466 410C466 414.418 469.582 418 474 418Z" fill="white"/>
<path d="M466 450V466H474C476.122 466 478.157 465.157 479.657 463.657C481.157 462.157 482 460.122 482 458C482 455.878 481.157 453.843 479.657 452.343C478.157 450.843 476.122 450 474 450" fill="white"/>
<path fill-rule="evenodd" clip-rule="evenodd" d="M18 58V90C18 100.609 22.2143 110.783 29.7157 118.284C33.4301 121.999 37.8396 124.945 42.6927 126.955C47.5457 128.965 52.7471 130 58 130H90C100.609 130 110.783 125.786 118.284 118.284C125.786 110.783 130 100.609 130 90V58C130 52.7471 128.965 47.5457 126.955 42.6927C124.945 37.8396 121.999 33.4301 118.284 29.7157C114.57 26.0014 110.16 23.055 105.307 21.0448C100.454 19.0346 95.2529 18 90 18H58C52.7471 18 47.5457 19.0346 42.6927 21.0448C37.8396 23.055 33.4301 26.0014 29.7157 29.7157C22.2143 37.2172 18 47.3913 18 58ZM58 34H90C96.3652 34 102.47 36.5286 106.971 41.0294C111.471 45.5303 114 51.6348 114 58V90C114 96.3652 111.471 102.47 106.971 106.971C102.47 111.471 96.3652 114 90 114H58C51.6348 114 45.5303 111.471 41.0294 106.971C36.5286 102.47 34 96.3652 34 90V58C34 51.6348 36.5286 45.5303 41.0294 41.0294C45.5303 36.5286 51.6348 34 58 34Z" fill="white"/>
<path d="M74 98C87.2548 98 98 87.2548 98 74C98 60.7452 87.2548 50 74 50C60.7452 50 50 60.7452 50 74C50 87.2548 60.7452 98 74 98Z" fill="white"/>
<path fill-rule="evenodd" clip-rule="evenodd" d="M442 18H410C399.391 18 389.217 22.2143 381.716 29.7157C374.214 37.2172 370 47.3913 370 58V90C370 100.609 374.214 110.783 381.716 118.284C389.217 125.786 399.391 130 410 130H442C447.253 130 452.454 128.965 457.307 126.955C462.16 124.945 466.57 121.999 470.284 118.284C473.999 114.57 476.945 110.16 478.955 105.307C480.965 100.454 482 95.2529 482 90V58C482 47.3913 477.786 37.2172 470.284 29.7157C462.783 22.2143 452.609 18 442 18ZM466 58V90C466 96.3652 463.471 102.47 458.971 106.971C454.47 111.471 448.365 114 442 114H410C403.635 114 397.53 111.471 393.029 106.971C388.529 102.47 386 96.3652 386 90V58C386 51.6348 388.529 45.5303 393.029 41.0294C397.53 36.5286 403.635 34 410 34H442C448.365 34 454.47 36.5286 458.971 41.0294C463.471 45.5303 466 51.6348 466 58Z" fill="white"/>
<path d="M402 74C402 87.2548 412.745 98 426 98C439.255 98 450 87.2548 450 74C450 60.7452 439.255 50 426 50C412.745 50 402 60.7452 402 74Z" fill="white"/>
<path fill-rule="evenodd" clip-rule="evenodd" d="M58 482H90C100.609 482 110.783 477.786 118.284 470.284C121.999 466.57 124.945 462.16 126.955 457.307C128.965 452.454 130 447.253 130 442V410C130 399.391 125.786 389.217 118.284 381.716C110.783 374.214 100.609 370 90 370H58C47.3913 370 37.2172 374.214 29.7157 381.716C22.2143 389.217 18 399.391 18 410V442C18 447.253 19.0346 452.454 21.0448 457.307C23.055 462.16 26.0014 466.57 29.7157 470.284C37.2172 477.786 47.3913 482 58 482ZM34 442V410C34 403.635 36.5286 397.53 41.0294 393.029C45.5303 388.529 51.6348 386 58 386H90C96.3652 386 102.47 388.529 106.971 393.029C111.471 397.53 114 403.635 114 410V442C114 448.365 111.471 454.47 106.971 458.971C102.47 463.471 96.3652 466 90 466H58C51.6348 466 45.5303 463.471 41.0294 458.971C36.5286 454.47 34 448.365 34 442Z" fill="white"/>
<path d="M98 426C98 412.745 87.2548 402 74 402C60.7452 402 50 412.745 50 426C50 439.255 60.7452 450 74 450C87.2548 450 98 439.255 98 426Z" fill="white"/>
</mask>
<g mask="url(#mask0_640_3207)">
<path d="M500 0H0V500H500V0Z" fill="black"/>
</g>
<rect x="194" y="194" width="112" height="112" fill="white"/>
<g clip-path="url(#clip1_640_3207)">
<path d="M243.172 214.696L229.793 210.007C229.036 209.741 228.185 209.895 227.574 210.418L216.809 219.617C216.199 220.14 215.915 220.946 216.061 221.744L218.675 235.641C218.821 236.43 219.38 237.082 220.145 237.347L233.524 242.037C234.281 242.303 235.132 242.148 235.743 241.625L246.508 232.426C247.118 231.903 247.402 231.097 247.256 230.3L244.642 216.402C244.496 215.614 243.937 214.962 243.172 214.696Z" fill="#E6FA36" stroke="black" stroke-width="1.14159" stroke-linecap="round" stroke-linejoin="round"/>
<path d="M238.748 226.379C238.619 229.603 236.229 232.397 232.919 232.938C229.72 233.461 226.676 231.712 225.43 228.882" fill="#E6FA36"/>
<path d="M238.748 226.379C238.619 229.603 236.229 232.397 232.919 232.938C229.72 233.461 226.676 231.712 225.43 228.882" stroke="black" stroke-width="1.14159" stroke-linecap="round" stroke-linejoin="round"/>
<path d="M236.003 219.211C235.986 220.145 235.315 220.968 234.361 221.149C233.406 221.329 232.546 220.84 232.168 220.025" fill="#E6FA36"/>
<path d="M236.003 219.211C235.986 220.145 235.315 220.968 234.361 221.149C233.406 221.329 232.546 220.84 232.168 220.025" stroke="black" stroke-width="1.14159" stroke-linecap="round" stroke-linejoin="round"/>
<path d="M229.347 220.453C229.329 221.388 228.659 222.211 227.704 222.391C226.75 222.571 225.89 222.082 225.512 221.268" fill="#E6FA36"/>
<path d="M229.347 220.453C229.329 221.388 228.659 222.211 227.704 222.391C226.75 222.571 225.89 222.082 225.512 221.268" stroke="black" stroke-width="1.14159" stroke-linecap="round" stroke-linejoin="round"/>
<path d="M224.457 229.223C225.145 229 225.773 228.631 226.306 228.143Z" fill="#E6FA36"/>
<path d="M224.457 229.223C225.145 229 225.773 228.631 226.306 228.143" stroke="black" stroke-width="1.14159" stroke-linecap="round" stroke-linejoin="round"/>
<path d="M279.948 216.233L267.524 209.417C266.818 209.031 265.959 209.048 265.271 209.46L253.139 216.781C252.451 217.201 252.038 217.947 252.055 218.753L252.348 232.891C252.365 233.697 252.812 234.425 253.517 234.82L265.941 241.636C266.646 242.021 267.506 242.004 268.194 241.593L280.326 234.271C281.014 233.851 281.427 233.105 281.41 232.299L281.117 218.162C281.1 217.356 280.653 216.627 279.948 216.233Z" fill="#E6FA36" stroke="black" stroke-width="1.14159" stroke-linecap="round" stroke-linejoin="round"/>
<path d="M273.665 227.035C273.003 230.19 270.191 232.565 266.829 232.556C263.588 232.548 260.871 230.327 260.105 227.335" fill="#E6FA36"/>
<path d="M273.665 227.035C273.003 230.19 270.191 232.565 266.829 232.556C263.588 232.548 260.871 230.327 260.105 227.335" stroke="black" stroke-width="1.14159" stroke-linecap="round" stroke-linejoin="round"/>
<path d="M261.461 221.23C261.65 220.313 262.458 219.627 263.43 219.627C264.402 219.627 265.158 220.27 265.382 221.127" fill="#E6FA36"/>
<path d="M261.461 221.23C261.65 220.313 262.458 219.627 263.43 219.627C264.402 219.627 265.158 220.27 265.382 221.127" stroke="black" stroke-width="1.14159" stroke-linecap="round" stroke-linejoin="round"/>
<path d="M268.238 221.23C268.427 220.313 269.236 219.627 270.207 219.627C271.179 219.627 271.936 220.27 272.159 221.127" fill="#E6FA36"/>
<path d="M268.238 221.23C268.427 220.313 269.236 219.627 270.207 219.627C271.179 219.627 271.936 220.27 272.159 221.127" stroke="black" stroke-width="1.14159" stroke-linecap="round" stroke-linejoin="round"/>
<path d="M259.105 227.505C259.819 227.394 260.507 227.137 261.109 226.742Z" fill="#E6FA36"/>
<path d="M259.105 227.505C259.819 227.394 260.507 227.137 261.109 226.742" stroke="black" stroke-width="1.14159" stroke-linecap="round" stroke-linejoin="round"/>
<path d="M218.439 256.494L230.863 249.678C231.568 249.293 232.428 249.31 233.116 249.721L245.248 257.043C245.936 257.463 246.349 258.209 246.332 259.015L246.039 273.152C246.022 273.958 245.575 274.687 244.87 275.081L232.445 281.897C231.74 282.283 230.88 282.266 230.193 281.854L218.06 274.533C217.373 274.113 216.96 273.367 216.977 272.561L217.269 258.423C217.287 257.617 217.734 256.889 218.439 256.494Z" fill="#E6FA36" stroke="black" stroke-width="1.14159" stroke-linecap="round" stroke-linejoin="round"/>
<path d="M224.723 267.303C225.385 270.458 228.196 272.833 231.558 272.824C234.8 272.815 237.517 270.595 238.282 267.603" fill="#E6FA36"/>
<path d="M224.723 267.303C225.385 270.458 228.196 272.833 231.558 272.824C234.8 272.815 237.517 270.595 238.282 267.603" stroke="black" stroke-width="1.14159" stroke-linecap="round" stroke-linejoin="round"/>
<path d="M236.921 261.49C236.732 260.573 235.923 259.887 234.952 259.887C233.98 259.887 233.224 260.53 233 261.387" fill="#E6FA36"/>
<path d="M236.921 261.49C236.732 260.573 235.923 259.887 234.952 259.887C233.98 259.887 233.224 260.53 233 261.387" stroke="black" stroke-width="1.14159" stroke-linecap="round" stroke-linejoin="round"/>
<path d="M230.155 261.49C229.966 260.573 229.158 259.887 228.186 259.887C227.215 259.887 226.458 260.53 226.234 261.387" fill="#E6FA36"/>
<path d="M230.155 261.49C229.966 260.573 229.158 259.887 228.186 259.887C227.215 259.887 226.458 260.53 226.234 261.387" stroke="black" stroke-width="1.14159" stroke-linecap="round" stroke-linejoin="round"/>
<path d="M239.281 267.775C238.567 267.663 237.879 267.406 237.277 267.012Z" fill="#E6FA36"/>
<path d="M239.281 267.775C238.567 267.663 237.879 267.406 237.277 267.012" stroke="black" stroke-width="1.14159" stroke-linecap="round" stroke-linejoin="round"/>
<path d="M254.565 255.474L267.635 249.995C268.374 249.687 269.234 249.79 269.87 250.278L281.168 258.826C281.813 259.315 282.14 260.103 282.045 260.901L280.266 274.927C280.162 275.724 279.647 276.41 278.899 276.719L265.829 282.197C265.09 282.506 264.23 282.403 263.594 281.914L252.295 273.366C251.651 272.878 251.324 272.089 251.418 271.292L253.198 257.266C253.301 256.468 253.817 255.782 254.565 255.474Z" fill="#E6FA36" stroke="black" stroke-width="1.14159" stroke-linecap="round" stroke-linejoin="round"/>
<path d="M259.684 266.877C260.01 270.083 262.555 272.741 265.9 273.076C269.125 273.401 272.057 271.481 273.131 268.583" fill="#E6FA36"/>
<path d="M259.684 266.877C260.01 270.083 262.555 272.741 265.9 273.076C269.125 273.401 272.057 271.481 273.131 268.583" stroke="black" stroke-width="1.14159" stroke-linecap="round" stroke-linejoin="round"/>
<path d="M262.391 259.588C262.425 260.522 263.104 261.337 264.067 261.491C265.03 261.646 265.873 261.148 266.243 260.334" fill="#E6FA36"/>
<path d="M262.391 259.588C262.425 260.522 263.104 261.337 264.067 261.491C265.03 261.646 265.873 261.148 266.243 260.334" stroke="black" stroke-width="1.14159" stroke-linecap="round" stroke-linejoin="round"/>
<path d="M269.066 260.711C269.101 261.645 269.78 262.46 270.743 262.614C271.706 262.769 272.549 262.271 272.918 261.457" fill="#E6FA36"/>
<path d="M269.066 260.711C269.101 261.645 269.78 262.46 270.743 262.614C271.706 262.769 272.549 262.271 272.918 261.457" stroke="black" stroke-width="1.14159" stroke-linecap="round" stroke-linejoin="round"/>
<path d="M274.12 268.863C273.423 268.683 272.77 268.349 272.211 267.895Z" fill="#E6FA36"/>
<path d="M274.12 268.863C273.423 268.683 272.77 268.349 272.211 267.895" stroke="black" stroke-width="1.14159" stroke-linecap="round" stroke-linejoin="round"/>
<path d="M290.101 282.85H208.984V288.114H290.101V282.85Z" fill="#E6FA36" stroke="black" stroke-width="1.14159" stroke-linecap="round" stroke-linejoin="round"/>
<path d="M290.101 242.33H208.984V247.594H290.101V242.33Z" fill="#E6FA36" stroke="black" stroke-width="1.14159" stroke-linecap="round" stroke-linejoin="round"/>
<path d="M207.152 207.155V291.869H214.177V207.155H207.152Z" fill="#E6FA36" stroke="black" stroke-width="1.14159" stroke-linecap="round" stroke-linejoin="round"/>
<path d="M284.84 207.155V291.869H291.865V207.155H284.84Z" fill="#E6FA36" stroke="black" stroke-width="1.14159" stroke-linecap="round" stroke-linejoin="round"/>
</g>
</g>
<defs>
<clipPath id="clip0_640_3207">
<rect width="500" height="500" fill="white"/>
</clipPath>
<clipPath id="clip1_640_3207">
<rect width="86" height="86" fill="white" transform="translate(206.512 206.512)"/>
</clipPath>
</defs>
</svg>
