<svg width="500" height="500" viewBox="0 0 500 500" fill="none" xmlns="http://www.w3.org/2000/svg">
<g clip-path="url(#clip0_636_1524)">
<path d="M500 0H0V500H500V0Z" fill="white"/>
<mask id="mask0_636_1524" style="mask-type:luminance" maskUnits="userSpaceOnUse" x="18" y="18" width="464" height="464">
<path d="M18 194H34V186C34 183.878 33.1572 181.843 31.6569 180.343C30.1566 178.843 28.1217 178 26 178C23.8783 178 21.8434 178.843 20.3431 180.343C18.8428 181.843 18 183.878 18 186" fill="white"/>
<path d="M34 194H18V210H34V194Z" fill="white"/>
<path d="M34 210H18V218C18 220.122 18.8428 222.157 20.3431 223.657C21.8434 225.157 23.8783 226 26 226C28.1217 226 30.1566 225.157 31.6569 223.657C33.1572 222.157 34 220.122 34 218" fill="white"/>
<path d="M18 258H34V242H26C23.8783 242 21.8434 242.843 20.3431 244.343C18.8428 245.843 18 247.878 18 250" fill="white"/>
<path d="M34 258H18V274H34V258Z" fill="white"/>
<path d="M34 290V274H18L18 282C18 284.122 18.8429 286.157 20.3431 287.657C21.8434 289.157 23.8783 290 26 290" fill="white"/>
<path d="M34 322V306H26C23.8783 306 21.8434 306.843 20.3431 308.343C18.8429 309.843 18 311.878 18 314C18 316.122 18.8429 318.157 20.3431 319.657C21.8434 321.157 23.8783 322 26 322" fill="white"/>
<path d="M50 178V162H42C39.8783 162 37.8434 162.843 36.3431 164.343C34.8429 165.843 34 167.878 34 170C34 172.122 34.8429 174.157 36.3431 175.657C37.8434 177.157 39.8783 178 42 178" fill="white"/>
<path d="M34 242H50V226H42C39.8783 226 37.8434 226.843 36.3431 228.343C34.8428 229.843 34 231.878 34 234" fill="white"/>
<path d="M50 242H34V258H50V242Z" fill="white"/>
<path d="M50 258H34V274H50V258Z" fill="white"/>
<path d="M50 274H34V290H50V274Z" fill="white"/>
<path d="M50 290H34V306H50V290Z" fill="white"/>
<path d="M50 306H34V322H50V306Z" fill="white"/>
<path d="M50 338V322H34V330C34 332.122 34.8429 334.157 36.3431 335.657C37.8434 337.157 39.8783 338 42 338" fill="white"/>
<path d="M50 162H66V154C66 151.878 65.1572 149.843 63.6569 148.343C62.1566 146.843 60.1217 146 58 146C55.8783 146 53.8434 146.843 52.3431 148.343C50.8428 149.843 50 151.878 50 154" fill="white"/>
<path d="M66 162H50V178H66V162Z" fill="white"/>
<path d="M66 194V178H50V186C50 188.122 50.8429 190.157 52.3431 191.657C53.8434 193.157 55.8783 194 58 194" fill="white"/>
<path d="M50 226H66V210H58C55.8783 210 53.8434 210.843 52.3431 212.343C50.8428 213.843 50 215.878 50 218" fill="white"/>
<path d="M66 226H50V242H66V226Z" fill="white"/>
<path d="M66 242H50V258H66V242Z" fill="white"/>
<path d="M66 258H50V274H58C60.1217 274 62.1566 273.157 63.6569 271.657C65.1572 270.157 66 268.122 66 266" fill="white"/>
<path d="M50 290V306H66V298C66 295.878 65.1571 293.843 63.6569 292.343C62.1566 290.843 60.1217 290 58 290" fill="white"/>
<path d="M66 306H50V322H66V306Z" fill="white"/>
<path d="M66 322H50V338H66V322Z" fill="white"/>
<path d="M66 338H50V346C50 348.122 50.8428 350.157 52.3431 351.657C53.8434 353.157 55.8783 354 58 354C60.1217 354 62.1566 353.157 63.6569 351.657C65.1572 350.157 66 348.122 66 346" fill="white"/>
<path d="M82 162H66V178H82V162Z" fill="white"/>
<path d="M82 178H66V194H74C76.1217 194 78.1566 193.157 79.6569 191.657C81.1572 190.157 82 188.122 82 186" fill="white"/>
<path d="M66 210V226H82V218C82 215.878 81.1571 213.843 79.6569 212.343C78.1566 210.843 76.1217 210 74 210" fill="white"/>
<path d="M82 226H66V242H74C76.1217 242 78.1566 241.157 79.6569 239.657C81.1572 238.157 82 236.122 82 234" fill="white"/>
<path d="M66 306V322H82V314C82 311.878 81.1571 309.843 79.6569 308.343C78.1566 306.843 76.1217 306 74 306" fill="white"/>
<path d="M82 322H66V338H74C76.1217 338 78.1566 337.157 79.6569 335.657C81.1572 334.157 82 332.122 82 330" fill="white"/>
<path d="M82 162H98V146H90C87.8783 146 85.8434 146.843 84.3431 148.343C82.8428 149.843 82 151.878 82 154" fill="white"/>
<path d="M98 162H82V178H98V162Z" fill="white"/>
<path d="M82 258H98V242H90C87.8783 242 85.8434 242.843 84.3431 244.343C82.8428 245.843 82 247.878 82 250" fill="white"/>
<path d="M98 258H82V274H98V258Z" fill="white"/>
<path d="M98 274H82V290H98V274Z" fill="white"/>
<path d="M98 290H82V298C82 300.122 82.8428 302.157 84.3431 303.657C85.8434 305.157 87.8783 306 90 306C92.1217 306 94.1566 305.157 95.6569 303.657C97.1572 302.157 98 300.122 98 298" fill="white"/>
<path d="M114 146H98V162H114V146Z" fill="white"/>
<path d="M114 162H98V178H114V162Z" fill="white"/>
<path d="M114 178H98V194H114V178Z" fill="white"/>
<path d="M114 194H98V202C98 204.122 98.8428 206.157 100.343 207.657C101.843 209.157 103.878 210 106 210C108.122 210 110.157 209.157 111.657 207.657C113.157 206.157 114 204.122 114 202" fill="white"/>
<path d="M98 242H114V234C114 231.878 113.157 229.843 111.657 228.343C110.157 226.843 108.122 226 106 226C103.878 226 101.843 226.843 100.343 228.343C98.8428 229.843 98 231.878 98 234" fill="white"/>
<path d="M114 242H98V258H114V242Z" fill="white"/>
<path d="M106 338C110.418 338 114 334.418 114 330C114 325.582 110.418 322 106 322C101.582 322 98 325.582 98 330C98 334.418 101.582 338 106 338Z" fill="white"/>
<path d="M114 146V162H122C124.122 162 126.157 161.157 127.657 159.657C129.157 158.157 130 156.122 130 154C130 151.878 129.157 149.843 127.657 148.343C126.157 146.843 124.122 146 122 146" fill="white"/>
<path d="M114 178V194H122C124.122 194 126.157 193.157 127.657 191.657C129.157 190.157 130 188.122 130 186C130 183.878 129.157 181.843 127.657 180.343C126.157 178.843 124.122 178 122 178" fill="white"/>
<path d="M122 226C126.418 226 130 222.418 130 218C130 213.582 126.418 210 122 210C117.582 210 114 213.582 114 218C114 222.418 117.582 226 122 226Z" fill="white"/>
<path d="M130 242H114V258H130V242Z" fill="white"/>
<path d="M122 290C126.418 290 130 286.418 130 282C130 277.582 126.418 274 122 274C117.582 274 114 277.582 114 282C114 286.418 117.582 290 122 290Z" fill="white"/>
<path d="M130 322V306H122C119.878 306 117.843 306.843 116.343 308.343C114.843 309.843 114 311.878 114 314C114 316.122 114.843 318.157 116.343 319.657C117.843 321.157 119.878 322 122 322" fill="white"/>
<path d="M130 354V338H122C119.878 338 117.843 338.843 116.343 340.343C114.843 341.843 114 343.878 114 346C114 348.122 114.843 350.157 116.343 351.657C117.843 353.157 119.878 354 122 354" fill="white"/>
<path d="M146 178V162H138C135.878 162 133.843 162.843 132.343 164.343C130.843 165.843 130 167.878 130 170C130 172.122 130.843 174.157 132.343 175.657C133.843 177.157 135.878 178 138 178" fill="white"/>
<path d="M130 242V258H138C140.122 258 142.157 257.157 143.657 255.657C145.157 254.157 146 252.122 146 250C146 247.878 145.157 245.843 143.657 244.343C142.157 242.843 140.122 242 138 242" fill="white"/>
<path d="M130 306H146V298C146 295.878 145.157 293.843 143.657 292.343C142.157 290.843 140.122 290 138 290C135.878 290 133.843 290.843 132.343 292.343C130.843 293.843 130 295.878 130 298" fill="white"/>
<path d="M146 306H130V322H146V306Z" fill="white"/>
<path d="M146 322H130V338H146V322Z" fill="white"/>
<path d="M146 338H130V354H146V338Z" fill="white"/>
<path d="M154 50C158.418 50 162 46.4183 162 42C162 37.5817 158.418 34 154 34C149.582 34 146 37.5817 146 42C146 46.4183 149.582 50 154 50Z" fill="white"/>
<path d="M162 98V82H154C151.878 82 149.843 82.8429 148.343 84.3431C146.843 85.8434 146 87.8783 146 90C146 92.1217 146.843 94.1566 148.343 95.6569C149.843 97.1571 151.878 98 154 98" fill="white"/>
<path d="M154 130C158.418 130 162 126.418 162 122C162 117.582 158.418 114 154 114C149.582 114 146 117.582 146 122C146 126.418 149.582 130 154 130Z" fill="white"/>
<path d="M146 162H162V154C162 151.878 161.157 149.843 159.657 148.343C158.157 146.843 156.122 146 154 146C151.878 146 149.843 146.843 148.343 148.343C146.843 149.843 146 151.878 146 154" fill="white"/>
<path d="M162 162H146V178H162V162Z" fill="white"/>
<path d="M162 194V178H146V186C146 188.122 146.843 190.157 148.343 191.657C149.843 193.157 151.878 194 154 194" fill="white"/>
<path d="M162 306H146V322H162V306Z" fill="white"/>
<path d="M146 338V354H162V346C162 343.878 161.157 341.843 159.657 340.343C158.157 338.843 156.122 338 154 338" fill="white"/>
<path d="M162 354H146V362C146 364.122 146.843 366.157 148.343 367.657C149.843 369.157 151.878 370 154 370C156.122 370 158.157 369.157 159.657 367.657C161.157 366.157 162 364.122 162 362" fill="white"/>
<path d="M146 402H162V386H154C151.878 386 149.843 386.843 148.343 388.343C146.843 389.843 146 391.878 146 394" fill="white"/>
<path d="M162 418V402H146V410C146 412.122 146.843 414.157 148.343 415.657C149.843 417.157 151.878 418 154 418" fill="white"/>
<path d="M162 450V434H154C151.878 434 149.843 434.843 148.343 436.343C146.843 437.843 146 439.878 146 442C146 444.122 146.843 446.157 148.343 447.657C149.843 449.157 151.878 450 154 450" fill="white"/>
<path d="M178 66V50H170C167.878 50 165.843 50.8429 164.343 52.3431C162.843 53.8434 162 55.8783 162 58C162 60.1217 162.843 62.1566 164.343 63.6569C165.843 65.1571 167.878 66 170 66" fill="white"/>
<path d="M162 82V98H170C172.122 98 174.157 97.1571 175.657 95.6569C177.157 94.1566 178 92.1217 178 90C178 87.8783 177.157 85.8434 175.657 84.3431C174.157 82.8429 172.122 82 170 82" fill="white"/>
<path d="M178 146V130H170C167.878 130 165.843 130.843 164.343 132.343C162.843 133.843 162 135.878 162 138C162 140.122 162.843 142.157 164.343 143.657C165.843 145.157 167.878 146 170 146" fill="white"/>
<path d="M178 178H162V194H178V178Z" fill="white"/>
<path d="M170 226C174.418 226 178 222.418 178 218C178 213.582 174.418 210 170 210C165.582 210 162 213.582 162 218C162 222.418 165.582 226 170 226Z" fill="white"/>
<path d="M178 290V274H170C167.878 274 165.843 274.843 164.343 276.343C162.843 277.843 162 279.878 162 282C162 284.122 162.843 286.157 164.343 287.657C165.843 289.157 167.878 290 170 290" fill="white"/>
<path d="M162 306V322H170C172.122 322 174.157 321.157 175.657 319.657C177.157 318.157 178 316.122 178 314C178 311.878 177.157 309.843 175.657 308.343C174.157 306.843 172.122 306 170 306" fill="white"/>
<path d="M162 386H178V378C178 375.878 177.157 373.843 175.657 372.343C174.157 370.843 172.122 370 170 370C167.878 370 165.843 370.843 164.343 372.343C162.843 373.843 162 375.878 162 378" fill="white"/>
<path d="M178 386H162V402H178V386Z" fill="white"/>
<path d="M178 402H162V418H170C172.122 418 174.157 417.157 175.657 415.657C177.157 414.157 178 412.122 178 410" fill="white"/>
<path d="M162 434V450H178V442C178 439.878 177.157 437.843 175.657 436.343C174.157 434.843 172.122 434 170 434" fill="white"/>
<path d="M178 450H162V466H178V450Z" fill="white"/>
<path d="M178 482V466H162V474C162 476.122 162.843 478.157 164.343 479.657C165.843 481.157 167.878 482 170 482" fill="white"/>
<path d="M178 34H194V18H186C183.878 18 181.843 18.8428 180.343 20.3431C178.843 21.8434 178 23.8783 178 26" fill="white"/>
<path d="M194 34H178V50H194V34Z" fill="white"/>
<path d="M194 50H178V66H186C188.122 66 190.157 65.1572 191.657 63.6569C193.157 62.1566 194 60.1217 194 58" fill="white"/>
<path d="M178 114H194V106C194 103.878 193.157 101.843 191.657 100.343C190.157 98.8428 188.122 98 186 98C183.878 98 181.843 98.8428 180.343 100.343C178.843 101.843 178 103.878 178 106" fill="white"/>
<path d="M194 114H178V130H194V114Z" fill="white"/>
<path d="M194 130H178V146H194V130Z" fill="white"/>
<path d="M194 146H178V154C178 156.122 178.843 158.157 180.343 159.657C181.843 161.157 183.878 162 186 162C188.122 162 190.157 161.157 191.657 159.657C193.157 158.157 194 156.122 194 154" fill="white"/>
<path d="M178 178V194H194V186C194 183.878 193.157 181.843 191.657 180.343C190.157 178.843 188.122 178 186 178" fill="white"/>
<path d="M194 194H178V202C178 204.122 178.843 206.157 180.343 207.657C181.843 209.157 183.878 210 186 210C188.122 210 190.157 209.157 191.657 207.657C193.157 206.157 194 204.122 194 202" fill="white"/>
<path d="M178 242H194V226H186C183.878 226 181.843 226.843 180.343 228.343C178.843 229.843 178 231.878 178 234" fill="white"/>
<path d="M194 258V242H178V250C178 252.122 178.843 254.157 180.343 255.657C181.843 257.157 183.878 258 186 258" fill="white"/>
<path d="M194 274H178V290H194V274Z" fill="white"/>
<path d="M178 354H194V346C194 343.878 193.157 341.843 191.657 340.343C190.157 338.843 188.122 338 186 338C183.878 338 181.843 338.843 180.343 340.343C178.843 341.843 178 343.878 178 346" fill="white"/>
<path d="M194 370V354H178V362C178 364.122 178.843 366.157 180.343 367.657C181.843 369.157 183.878 370 186 370" fill="white"/>
<path d="M178 386V402H186C188.122 402 190.157 401.157 191.657 399.657C193.157 398.157 194 396.122 194 394C194 391.878 193.157 389.843 191.657 388.343C190.157 386.843 188.122 386 186 386" fill="white"/>
<path d="M194 466H178V482H194V466Z" fill="white"/>
<path d="M210 18H194V34H210V18Z" fill="white"/>
<path d="M194 82H210V66H202C199.878 66 197.843 66.8428 196.343 68.3431C194.843 69.8434 194 71.8783 194 74" fill="white"/>
<path d="M210 82H194V90C194 92.1217 194.843 94.1566 196.343 95.6569C197.843 97.1572 199.878 98 202 98C204.122 98 206.157 97.1572 207.657 95.6569C209.157 94.1566 210 92.1217 210 90" fill="white"/>
<path d="M210 226H194V242H210V226Z" fill="white"/>
<path d="M210 242H194V258H210V242Z" fill="white"/>
<path d="M210 258H194V274H210V258Z" fill="white"/>
<path d="M210 274H194V290H210V274Z" fill="white"/>
<path d="M210 290H194V306H210V290Z" fill="white"/>
<path d="M210 306H194V322H210V306Z" fill="white"/>
<path d="M210 338V322H194V330C194 332.122 194.843 334.157 196.343 335.657C197.843 337.157 199.878 338 202 338" fill="white"/>
<path d="M194 354V370H202C204.122 370 206.157 369.157 207.657 367.657C209.157 366.157 210 364.122 210 362C210 359.878 209.157 357.843 207.657 356.343C206.157 354.843 204.122 354 202 354" fill="white"/>
<path d="M202 434C206.418 434 210 430.418 210 426C210 421.582 206.418 418 202 418C197.582 418 194 421.582 194 426C194 430.418 197.582 434 202 434Z" fill="white"/>
<path d="M194 466H210V458C210 455.878 209.157 453.843 207.657 452.343C206.157 450.843 204.122 450 202 450C199.878 450 197.843 450.843 196.343 452.343C194.843 453.843 194 455.878 194 458" fill="white"/>
<path d="M210 466H194V482H210V466Z" fill="white"/>
<path d="M226 18H210V34H226V18Z" fill="white"/>
<path d="M226 34H210V42C210 44.1217 210.843 46.1566 212.343 47.6569C213.843 49.1572 215.878 50 218 50C220.122 50 222.157 49.1572 223.657 47.6569C225.157 46.1566 226 44.1217 226 42" fill="white"/>
<path d="M210 66V82H218C220.122 82 222.157 81.1571 223.657 79.6569C225.157 78.1566 226 76.1217 226 74C226 71.8783 225.157 69.8434 223.657 68.3431C222.157 66.8429 220.122 66 218 66" fill="white"/>
<path d="M210 114H226V98H218C215.878 98 213.843 98.8428 212.343 100.343C210.843 101.843 210 103.878 210 106" fill="white"/>
<path d="M226 114H210V122C210 124.122 210.843 126.157 212.343 127.657C213.843 129.157 215.878 130 218 130C220.122 130 222.157 129.157 223.657 127.657C225.157 126.157 226 124.122 226 122" fill="white"/>
<path d="M210 210H226V202C226 199.878 225.157 197.843 223.657 196.343C222.157 194.843 220.122 194 218 194C215.878 194 213.843 194.843 212.343 196.343C210.843 197.843 210 199.878 210 202" fill="white"/>
<path d="M226 210H210V226H226V210Z" fill="white"/>
<path d="M226 226H210V242H226V226Z" fill="white"/>
<path d="M226 290H210V306H226V290Z" fill="white"/>
<path d="M226 306H210V322H226V306Z" fill="white"/>
<path d="M226 322H210V338H226V322Z" fill="white"/>
<path d="M226 338H210V346C210 348.122 210.843 350.157 212.343 351.657C213.843 353.157 215.878 354 218 354C220.122 354 222.157 353.157 223.657 351.657C225.157 350.157 226 348.122 226 346" fill="white"/>
<path d="M218 402C222.418 402 226 398.418 226 394C226 389.582 222.418 386 218 386C213.582 386 210 389.582 210 394C210 398.418 213.582 402 218 402Z" fill="white"/>
<path d="M226 466H210V482H226V466Z" fill="white"/>
<path d="M226 18V34H234C236.122 34 238.157 33.1571 239.657 31.6569C241.157 30.1566 242 28.1217 242 26C242 23.8783 241.157 21.8434 239.657 20.3431C238.157 18.8429 236.122 18 234 18" fill="white"/>
<path d="M242 98H226V114H242V98Z" fill="white"/>
<path d="M234 162C238.418 162 242 158.418 242 154C242 149.582 238.418 146 234 146C229.582 146 226 149.582 226 154C226 158.418 229.582 162 234 162Z" fill="white"/>
<path d="M234 194C238.418 194 242 190.418 242 186C242 181.582 238.418 178 234 178C229.582 178 226 181.582 226 186C226 190.418 229.582 194 234 194Z" fill="white"/>
<path d="M242 210H226V226H242V210Z" fill="white"/>
<path d="M242 226H226V242H234C236.122 242 238.157 241.157 239.657 239.657C241.157 238.157 242 236.122 242 234" fill="white"/>
<path d="M226 290V306H242V298C242 295.878 241.157 293.843 239.657 292.343C238.157 290.843 236.122 290 234 290" fill="white"/>
<path d="M242 306H226V322H242V306Z" fill="white"/>
<path d="M242 386V370H234C231.878 370 229.843 370.843 228.343 372.343C226.843 373.843 226 375.878 226 378C226 380.122 226.843 382.157 228.343 383.657C229.843 385.157 231.878 386 234 386" fill="white"/>
<path d="M242 418V402H234C231.878 402 229.843 402.843 228.343 404.343C226.843 405.843 226 407.878 226 410C226 412.122 226.843 414.157 228.343 415.657C229.843 417.157 231.878 418 234 418" fill="white"/>
<path d="M234 450C238.418 450 242 446.418 242 442C242 437.582 238.418 434 234 434C229.582 434 226 437.582 226 442C226 446.418 229.582 450 234 450Z" fill="white"/>
<path d="M242 466H226V482H242V466Z" fill="white"/>
<path d="M250 50C254.418 50 258 46.4183 258 42C258 37.5817 254.418 34 250 34C245.582 34 242 37.5817 242 42C242 46.4183 245.582 50 250 50Z" fill="white"/>
<path d="M250 82C254.418 82 258 78.4183 258 74C258 69.5817 254.418 66 250 66C245.582 66 242 69.5817 242 74C242 78.4183 245.582 82 250 82Z" fill="white"/>
<path d="M258 98H242V114H258V98Z" fill="white"/>
<path d="M258 114H242V130H258V114Z" fill="white"/>
<path d="M258 146V130H242V138C242 140.122 242.843 142.157 244.343 143.657C245.843 145.157 247.878 146 250 146" fill="white"/>
<path d="M250 178C254.418 178 258 174.418 258 170C258 165.582 254.418 162 250 162C245.582 162 242 165.582 242 170C242 174.418 245.582 178 250 178Z" fill="white"/>
<path d="M258 210H242V226H258V210Z" fill="white"/>
<path d="M242 306V322H250C252.122 322 254.157 321.157 255.657 319.657C257.157 318.157 258 316.122 258 314C258 311.878 257.157 309.843 255.657 308.343C254.157 306.843 252.122 306 250 306" fill="white"/>
<path d="M258 370H242V386H258V370Z" fill="white"/>
<path d="M242 402V418H250C252.122 418 254.157 417.157 255.657 415.657C257.157 414.157 258 412.122 258 410C258 407.878 257.157 405.843 255.657 404.343C254.157 402.843 252.122 402 250 402" fill="white"/>
<path d="M258 466H242V482H258V466Z" fill="white"/>
<path d="M274 66V50H266C263.878 50 261.843 50.8429 260.343 52.3431C258.843 53.8434 258 55.8783 258 58C258 60.1217 258.843 62.1566 260.343 63.6569C261.843 65.1571 263.878 66 266 66" fill="white"/>
<path d="M258 98H274V82H266C263.878 82 261.843 82.8428 260.343 84.3431C258.843 85.8434 258 87.8783 258 90" fill="white"/>
<path d="M274 98H258V114H266C268.122 114 270.157 113.157 271.657 111.657C273.157 110.157 274 108.122 274 106" fill="white"/>
<path d="M258 130V146H266C268.122 146 270.157 145.157 271.657 143.657C273.157 142.157 274 140.122 274 138C274 135.878 273.157 133.843 271.657 132.343C270.157 130.843 268.122 130 266 130" fill="white"/>
<path d="M274 194V178H266C263.878 178 261.843 178.843 260.343 180.343C258.843 181.843 258 183.878 258 186C258 188.122 258.843 190.157 260.343 191.657C261.843 193.157 263.878 194 266 194" fill="white"/>
<path d="M274 210H258V226H274V210Z" fill="white"/>
<path d="M274 226H258V234C258 236.122 258.843 238.157 260.343 239.657C261.843 241.157 263.878 242 266 242C268.122 242 270.157 241.157 271.657 239.657C273.157 238.157 274 236.122 274 234" fill="white"/>
<path d="M258 274H274V266C274 263.878 273.157 261.843 271.657 260.343C270.157 258.843 268.122 258 266 258C263.878 258 261.843 258.843 260.343 260.343C258.843 261.843 258 263.878 258 266" fill="white"/>
<path d="M274 290V274H258V282C258 284.122 258.843 286.157 260.343 287.657C261.843 289.157 263.878 290 266 290" fill="white"/>
<path d="M274 354V338H266C263.878 338 261.843 338.843 260.343 340.343C258.843 341.843 258 343.878 258 346C258 348.122 258.843 350.157 260.343 351.657C261.843 353.157 263.878 354 266 354" fill="white"/>
<path d="M258 370V386H274V378C274 375.878 273.157 373.843 271.657 372.343C270.157 370.843 268.122 370 266 370" fill="white"/>
<path d="M274 402V386H258V394C258 396.122 258.843 398.157 260.343 399.657C261.843 401.157 263.878 402 266 402" fill="white"/>
<path d="M266 434C270.418 434 274 430.418 274 426C274 421.582 270.418 418 266 418C261.582 418 258 421.582 258 426C258 430.418 261.582 434 266 434Z" fill="white"/>
<path d="M274 466H258V482H274V466Z" fill="white"/>
<path d="M274 50V66H290V58C290 55.8783 289.157 53.8434 287.657 52.3431C286.157 50.8429 284.122 50 282 50" fill="white"/>
<path d="M290 66H274V82H290V66Z" fill="white"/>
<path d="M290 82H274V98H282C284.122 98 286.157 97.1572 287.657 95.6569C289.157 94.1566 290 92.1217 290 90" fill="white"/>
<path d="M282 130C286.418 130 290 126.418 290 122C290 117.582 286.418 114 282 114C277.582 114 274 117.582 274 122C274 126.418 277.582 130 282 130Z" fill="white"/>
<path d="M290 162V146H282C279.878 146 277.843 146.843 276.343 148.343C274.843 149.843 274 151.878 274 154C274 156.122 274.843 158.157 276.343 159.657C277.843 161.157 279.878 162 282 162" fill="white"/>
<path d="M274 178V194H282C284.122 194 286.157 193.157 287.657 191.657C289.157 190.157 290 188.122 290 186C290 183.878 289.157 181.843 287.657 180.343C286.157 178.843 284.122 178 282 178" fill="white"/>
<path d="M290 210H274V226H290V210Z" fill="white"/>
<path d="M290 258V242H282C279.878 242 277.843 242.843 276.343 244.343C274.843 245.843 274 247.878 274 250C274 252.122 274.843 254.157 276.343 255.657C277.843 257.157 279.878 258 282 258" fill="white"/>
<path d="M274 274V290H282C284.122 290 286.157 289.157 287.657 287.657C289.157 286.157 290 284.122 290 282C290 279.878 289.157 277.843 287.657 276.343C286.157 274.843 284.122 274 282 274" fill="white"/>
<path d="M274 338H290V330C290 327.878 289.157 325.843 287.657 324.343C286.157 322.843 284.122 322 282 322C279.878 322 277.843 322.843 276.343 324.343C274.843 325.843 274 327.878 274 330" fill="white"/>
<path d="M290 338H274V354H290V338Z" fill="white"/>
<path d="M290 370V354H274V362C274 364.122 274.843 366.157 276.343 367.657C277.843 369.157 279.878 370 282 370" fill="white"/>
<path d="M290 386H274V402H290V386Z" fill="white"/>
<path d="M290 466H274V482H290V466Z" fill="white"/>
<path d="M290 34H306V26C306 23.8783 305.157 21.8434 303.657 20.3431C302.157 18.8428 300.122 18 298 18C295.878 18 293.843 18.8428 292.343 20.3431C290.843 21.8434 290 23.8783 290 26" fill="white"/>
<path d="M306 34H290V42C290 44.1217 290.843 46.1566 292.343 47.6569C293.843 49.1572 295.878 50 298 50C300.122 50 302.157 49.1572 303.657 47.6569C305.157 46.1566 306 44.1217 306 42" fill="white"/>
<path d="M290 66V82H298C300.122 82 302.157 81.1571 303.657 79.6569C305.157 78.1566 306 76.1217 306 74C306 71.8783 305.157 69.8434 303.657 68.3431C302.157 66.8429 300.122 66 298 66" fill="white"/>
<path d="M298 114C302.418 114 306 110.418 306 106C306 101.582 302.418 98 298 98C293.582 98 290 101.582 290 106C290 110.418 293.582 114 298 114Z" fill="white"/>
<path d="M290 146V162H298C300.122 162 302.157 161.157 303.657 159.657C305.157 158.157 306 156.122 306 154C306 151.878 305.157 149.843 303.657 148.343C302.157 146.843 300.122 146 298 146" fill="white"/>
<path d="M306 210H290V226H306V210Z" fill="white"/>
<path d="M306 226H290V242H306V226Z" fill="white"/>
<path d="M306 242H290V258H306V242Z" fill="white"/>
<path d="M290 306H306V298C306 295.878 305.157 293.843 303.657 292.343C302.157 290.843 300.122 290 298 290C295.878 290 293.843 290.843 292.343 292.343C290.843 293.843 290 295.878 290 298" fill="white"/>
<path d="M306 322V306H290V314C290 316.122 290.843 318.157 292.343 319.657C293.843 321.157 295.878 322 298 322" fill="white"/>
<path d="M290 354V370H306V362C306 359.878 305.157 357.843 303.657 356.343C302.157 354.843 300.122 354 298 354" fill="white"/>
<path d="M306 370H290V386H306V370Z" fill="white"/>
<path d="M306 386H290V402H306V386Z" fill="white"/>
<path d="M306 402H290V418H306V402Z" fill="white"/>
<path d="M306 418H290V434H306V418Z" fill="white"/>
<path d="M306 450V434H290V442C290 444.122 290.843 446.157 292.343 447.657C293.843 449.157 295.878 450 298 450" fill="white"/>
<path d="M306 466H290V482H306V466Z" fill="white"/>
<path d="M322 66V50H314C311.878 50 309.843 50.8429 308.343 52.3431C306.843 53.8434 306 55.8783 306 58C306 60.1217 306.843 62.1566 308.343 63.6569C309.843 65.1571 311.878 66 314 66" fill="white"/>
<path d="M314 130C318.418 130 322 126.418 322 122C322 117.582 318.418 114 314 114C309.582 114 306 117.582 306 122C306 126.418 309.582 130 314 130Z" fill="white"/>
<path d="M306 210H322V194H314C311.878 194 309.843 194.843 308.343 196.343C306.843 197.843 306 199.878 306 202" fill="white"/>
<path d="M322 210H306V226H314C316.122 226 318.157 225.157 319.657 223.657C321.157 222.157 322 220.122 322 218" fill="white"/>
<path d="M306 242V258H322V250C322 247.878 321.157 245.843 319.657 244.343C318.157 242.843 316.122 242 314 242" fill="white"/>
<path d="M322 274V258H306V266C306 268.122 306.843 270.157 308.343 271.657C309.843 273.157 311.878 274 314 274" fill="white"/>
<path d="M306 306V322H314C316.122 322 318.157 321.157 319.657 319.657C321.157 318.157 322 316.122 322 314C322 311.878 321.157 309.843 319.657 308.343C318.157 306.843 316.122 306 314 306" fill="white"/>
<path d="M306 434V450H314C316.122 450 318.157 449.157 319.657 447.657C321.157 446.157 322 444.122 322 442C322 439.878 321.157 437.843 319.657 436.343C318.157 434.843 316.122 434 314 434" fill="white"/>
<path d="M322 466H306V482H322V466Z" fill="white"/>
<path d="M338 50H322V66H338V50Z" fill="white"/>
<path d="M338 114V98H330C327.878 98 325.843 98.8429 324.343 100.343C322.843 101.843 322 103.878 322 106C322 108.122 322.843 110.157 324.343 111.657C325.843 113.157 327.878 114 330 114" fill="white"/>
<path d="M322 146H338V138C338 135.878 337.157 133.843 335.657 132.343C334.157 130.843 332.122 130 330 130C327.878 130 325.843 130.843 324.343 132.343C322.843 133.843 322 135.878 322 138" fill="white"/>
<path d="M338 146H322V154C322 156.122 322.843 158.157 324.343 159.657C325.843 161.157 327.878 162 330 162C332.122 162 334.157 161.157 335.657 159.657C337.157 158.157 338 156.122 338 154" fill="white"/>
<path d="M338 194H322V210H338V194Z" fill="white"/>
<path d="M330 242C334.418 242 338 238.418 338 234C338 229.582 334.418 226 330 226C325.582 226 322 229.582 322 234C322 238.418 325.582 242 330 242Z" fill="white"/>
<path d="M322 258V274H338V266C338 263.878 337.157 261.843 335.657 260.343C334.157 258.843 332.122 258 330 258" fill="white"/>
<path d="M338 274H322V290H338V274Z" fill="white"/>
<path d="M338 306V290H322V298C322 300.122 322.843 302.157 324.343 303.657C325.843 305.157 327.878 306 330 306" fill="white"/>
<path d="M322 338H338V330C338 327.878 337.157 325.843 335.657 324.343C334.157 322.843 332.122 322 330 322C327.878 322 325.843 322.843 324.343 324.343C322.843 325.843 322 327.878 322 330" fill="white"/>
<path d="M338 354V338H322V346C322 348.122 322.843 350.157 324.343 351.657C325.843 353.157 327.878 354 330 354" fill="white"/>
<path d="M338 434V418H330C327.878 418 325.843 418.843 324.343 420.343C322.843 421.843 322 423.878 322 426C322 428.122 322.843 430.157 324.343 431.657C325.843 433.157 327.878 434 330 434" fill="white"/>
<path d="M322 466H338V450H330C327.878 450 325.843 450.843 324.343 452.343C322.843 453.843 322 455.878 322 458" fill="white"/>
<path d="M338 466H322V482H338V466Z" fill="white"/>
<path d="M338 34H354V26C354 23.8783 353.157 21.8434 351.657 20.3431C350.157 18.8428 348.122 18 346 18C343.878 18 341.843 18.8428 340.343 20.3431C338.843 21.8434 338 23.8783 338 26" fill="white"/>
<path d="M354 34H338V50H354V34Z" fill="white"/>
<path d="M354 50H338V66H354V50Z" fill="white"/>
<path d="M354 66H338V74C338 76.1217 338.843 78.1566 340.343 79.6569C341.843 81.1572 343.878 82 346 82C348.122 82 350.157 81.1572 351.657 79.6569C353.157 78.1566 354 76.1217 354 74" fill="white"/>
<path d="M338 98V114H354V106C354 103.878 353.157 101.843 351.657 100.343C350.157 98.8429 348.122 98 346 98" fill="white"/>
<path d="M354 114H338V122C338 124.122 338.843 126.157 340.343 127.657C341.843 129.157 343.878 130 346 130C348.122 130 350.157 129.157 351.657 127.657C353.157 126.157 354 124.122 354 122" fill="white"/>
<path d="M338 194V210H346C348.122 210 350.157 209.157 351.657 207.657C353.157 206.157 354 204.122 354 202C354 199.878 353.157 197.843 351.657 196.343C350.157 194.843 348.122 194 346 194" fill="white"/>
<path d="M354 274H338V290H354V274Z" fill="white"/>
<path d="M354 290H338V306H346C348.122 306 350.157 305.157 351.657 303.657C353.157 302.157 354 300.122 354 298" fill="white"/>
<path d="M354 338H338V354H354V338Z" fill="white"/>
<path d="M354 354H338V370H354V354Z" fill="white"/>
<path d="M354 370H338V386H354V370Z" fill="white"/>
<path d="M354 386H338V402H354V386Z" fill="white"/>
<path d="M354 402H338V418H354V402Z" fill="white"/>
<path d="M354 418H338V434H346C348.122 434 350.157 433.157 351.657 431.657C353.157 430.157 354 428.122 354 426" fill="white"/>
<path d="M338 450V466H354V458C354 455.878 353.157 453.843 351.657 452.343C350.157 450.843 348.122 450 346 450" fill="white"/>
<path d="M354 466H338V482H354V466Z" fill="white"/>
<path d="M362 162C366.418 162 370 158.418 370 154C370 149.582 366.418 146 362 146C357.582 146 354 149.582 354 154C354 158.418 357.582 162 362 162Z" fill="white"/>
<path d="M370 194V178H362C359.878 178 357.843 178.843 356.343 180.343C354.843 181.843 354 183.878 354 186C354 188.122 354.843 190.157 356.343 191.657C357.843 193.157 359.878 194 362 194" fill="white"/>
<path d="M354 226H370V218C370 215.878 369.157 213.843 367.657 212.343C366.157 210.843 364.122 210 362 210C359.878 210 357.843 210.843 356.343 212.343C354.843 213.843 354 215.878 354 218" fill="white"/>
<path d="M370 226H354V234C354 236.122 354.843 238.157 356.343 239.657C357.843 241.157 359.878 242 362 242C364.122 242 366.157 241.157 367.657 239.657C369.157 238.157 370 236.122 370 234" fill="white"/>
<path d="M354 274H370V258H362C359.878 258 357.843 258.843 356.343 260.343C354.843 261.843 354 263.878 354 266" fill="white"/>
<path d="M370 274H354V290H362C364.122 290 366.157 289.157 367.657 287.657C369.157 286.157 370 284.122 370 282" fill="white"/>
<path d="M354 338H370V322H362C359.878 322 357.843 322.843 356.343 324.343C354.843 325.843 354 327.878 354 330" fill="white"/>
<path d="M370 338H354V354H370V338Z" fill="white"/>
<path d="M370 402H354V418H370V402Z" fill="white"/>
<path d="M362 450C366.418 450 370 446.418 370 442C370 437.582 366.418 434 362 434C357.582 434 354 437.582 354 442C354 446.418 357.582 450 362 450Z" fill="white"/>
<path d="M370 466H354V482H370V466Z" fill="white"/>
<path d="M370 178H386V170C386 167.878 385.157 165.843 383.657 164.343C382.157 162.843 380.122 162 378 162C375.878 162 373.843 162.843 372.343 164.343C370.843 165.843 370 167.878 370 170" fill="white"/>
<path d="M386 178H370V194H386V178Z" fill="white"/>
<path d="M386 194H370V202C370 204.122 370.843 206.157 372.343 207.657C373.843 209.157 375.878 210 378 210C380.122 210 382.157 209.157 383.657 207.657C385.157 206.157 386 204.122 386 202" fill="white"/>
<path d="M370 258H386V250C386 247.878 385.157 245.843 383.657 244.343C382.157 242.843 380.122 242 378 242C375.878 242 373.843 242.843 372.343 244.343C370.843 245.843 370 247.878 370 250" fill="white"/>
<path d="M386 258H370V274H386V258Z" fill="white"/>
<path d="M386 306V290H378C375.878 290 373.843 290.843 372.343 292.343C370.843 293.843 370 295.878 370 298C370 300.122 370.843 302.157 372.343 303.657C373.843 305.157 375.878 306 378 306" fill="white"/>
<path d="M386 322H370V338H386V322Z" fill="white"/>
<path d="M386 338H370V354H386V338Z" fill="white"/>
<path d="M378 386C382.418 386 386 382.418 386 378C386 373.582 382.418 370 378 370C373.582 370 370 373.582 370 378C370 382.418 373.582 386 378 386Z" fill="white"/>
<path d="M386 402H370V418H386V402Z" fill="white"/>
<path d="M386 466H370V482H386V466Z" fill="white"/>
<path d="M386 178V194H394C396.122 194 398.157 193.157 399.657 191.657C401.157 190.157 402 188.122 402 186C402 183.878 401.157 181.843 399.657 180.343C398.157 178.843 396.122 178 394 178" fill="white"/>
<path d="M394 226C398.418 226 402 222.418 402 218C402 213.582 398.418 210 394 210C389.582 210 386 213.582 386 218C386 222.418 389.582 226 394 226Z" fill="white"/>
<path d="M386 258V274H402V266C402 263.878 401.157 261.843 399.657 260.343C398.157 258.843 396.122 258 394 258" fill="white"/>
<path d="M402 274H386V290H402V274Z" fill="white"/>
<path d="M402 290H386V306H402V290Z" fill="white"/>
<path d="M402 306H386V322H402V306Z" fill="white"/>
<path d="M402 322H386V338H402V322Z" fill="white"/>
<path d="M402 338H386V354H402V338Z" fill="white"/>
<path d="M402 402H386V418H402V402Z" fill="white"/>
<path d="M402 418H386V426C386 428.122 386.843 430.157 388.343 431.657C389.843 433.157 391.878 434 394 434C396.122 434 398.157 433.157 399.657 431.657C401.157 430.157 402 428.122 402 426" fill="white"/>
<path d="M386 466V482H394C396.122 482 398.157 481.157 399.657 479.657C401.157 478.157 402 476.122 402 474C402 471.878 401.157 469.843 399.657 468.343C398.157 466.843 396.122 466 394 466" fill="white"/>
<path d="M410 162C414.418 162 418 158.418 418 154C418 149.582 414.418 146 410 146C405.582 146 402 149.582 402 154C402 158.418 405.582 162 410 162Z" fill="white"/>
<path d="M418 242V226H410C407.878 226 405.843 226.843 404.343 228.343C402.843 229.843 402 231.878 402 234C402 236.122 402.843 238.157 404.343 239.657C405.843 241.157 407.878 242 410 242" fill="white"/>
<path d="M402 306V322H418V314C418 311.878 417.157 309.843 415.657 308.343C414.157 306.843 412.122 306 410 306" fill="white"/>
<path d="M418 322H402V338H418V322Z" fill="white"/>
<path d="M418 338H402V354H418V338Z" fill="white"/>
<path d="M418 354H402V370H418V354Z" fill="white"/>
<path d="M418 370H402V386H418V370Z" fill="white"/>
<path d="M418 386H402V402H418V386Z" fill="white"/>
<path d="M418 402H402V418H410C412.122 418 414.157 417.157 415.657 415.657C417.157 414.157 418 412.122 418 410" fill="white"/>
<path d="M418 466V450H410C407.878 450 405.843 450.843 404.343 452.343C402.843 453.843 402 455.878 402 458C402 460.122 402.843 462.157 404.343 463.657C405.843 465.157 407.878 466 410 466" fill="white"/>
<path d="M418 194H434V178H426C423.878 178 421.843 178.843 420.343 180.343C418.843 181.843 418 183.878 418 186" fill="white"/>
<path d="M434 194H418V210H434V194Z" fill="white"/>
<path d="M434 210H418V226H434V210Z" fill="white"/>
<path d="M434 226H418V242H426C428.122 242 430.157 241.157 431.657 239.657C433.157 238.157 434 236.122 434 234" fill="white"/>
<path d="M434 290V274H426C423.878 274 421.843 274.843 420.343 276.343C418.843 277.843 418 279.878 418 282C418 284.122 418.843 286.157 420.343 287.657C421.843 289.157 423.878 290 426 290" fill="white"/>
<path d="M418 386V402H426C428.122 402 430.157 401.157 431.657 399.657C433.157 398.157 434 396.122 434 394C434 391.878 433.157 389.843 431.657 388.343C430.157 386.843 428.122 386 426 386" fill="white"/>
<path d="M434 450H418V466H434V450Z" fill="white"/>
<path d="M434 178H450V162H442C439.878 162 437.843 162.843 436.343 164.343C434.843 165.843 434 167.878 434 170" fill="white"/>
<path d="M450 178H434V194H450V178Z" fill="white"/>
<path d="M450 194H434V210H450V194Z" fill="white"/>
<path d="M434 274V290H442C444.122 290 446.157 289.157 447.657 287.657C449.157 286.157 450 284.122 450 282C450 279.878 449.157 277.843 447.657 276.343C446.157 274.843 444.122 274 442 274" fill="white"/>
<path d="M434 338H450V330C450 327.878 449.157 325.843 447.657 324.343C446.157 322.843 444.122 322 442 322C439.878 322 437.843 322.843 436.343 324.343C434.843 325.843 434 327.878 434 330" fill="white"/>
<path d="M450 338H434V354H450V338Z" fill="white"/>
<path d="M450 370V354H434V362C434 364.122 434.843 366.157 436.343 367.657C437.843 369.157 439.878 370 442 370" fill="white"/>
<path d="M434 434H450V418H442C439.878 418 437.843 418.843 436.343 420.343C434.843 421.843 434 423.878 434 426" fill="white"/>
<path d="M450 434H434V450H450V434Z" fill="white"/>
<path d="M450 450H434V466H450V450Z" fill="white"/>
<path d="M450 482V466H434V474C434 476.122 434.843 478.157 436.343 479.657C437.843 481.157 439.878 482 442 482" fill="white"/>
<path d="M450 162H466V154C466 151.878 465.157 149.843 463.657 148.343C462.157 146.843 460.122 146 458 146C455.878 146 453.843 146.843 452.343 148.343C450.843 149.843 450 151.878 450 154" fill="white"/>
<path d="M466 162H450V178H466V162Z" fill="white"/>
<path d="M466 178H450V194H466V178Z" fill="white"/>
<path d="M466 194H450V210H466V194Z" fill="white"/>
<path d="M466 210H450V226H466V210Z" fill="white"/>
<path d="M466 242V226H450V234C450 236.122 450.843 238.157 452.343 239.657C453.843 241.157 455.878 242 458 242" fill="white"/>
<path d="M450 306H466V290H458C455.878 290 453.843 290.843 452.343 292.343C450.843 293.843 450 295.878 450 298" fill="white"/>
<path d="M466 306H450V314C450 316.122 450.843 318.157 452.343 319.657C453.843 321.157 455.878 322 458 322C460.122 322 462.157 321.157 463.657 319.657C465.157 318.157 466 316.122 466 314" fill="white"/>
<path d="M466 338H450V354H466V338Z" fill="white"/>
<path d="M466 354H450V370H466V354Z" fill="white"/>
<path d="M466 370H450V386H466V370Z" fill="white"/>
<path d="M466 386H450V394C450 396.122 450.843 398.157 452.343 399.657C453.843 401.157 455.878 402 458 402C460.122 402 462.157 401.157 463.657 399.657C465.157 398.157 466 396.122 466 394" fill="white"/>
<path d="M450 418V434H458C460.122 434 462.157 433.157 463.657 431.657C465.157 430.157 466 428.122 466 426C466 423.878 465.157 421.843 463.657 420.343C462.157 418.843 460.122 418 458 418" fill="white"/>
<path d="M466 450H450V466H466V450Z" fill="white"/>
<path d="M466 466H450V482H458C460.122 482 462.157 481.157 463.657 479.657C465.157 478.157 466 476.122 466 474" fill="white"/>
<path d="M466 162V178H482V170C482 167.878 481.157 165.843 479.657 164.343C478.157 162.843 476.122 162 474 162" fill="white"/>
<path d="M482 178H466V194H474C476.122 194 478.157 193.157 479.657 191.657C481.157 190.157 482 188.122 482 186" fill="white"/>
<path d="M466 226V242H474C476.122 242 478.157 241.157 479.657 239.657C481.157 238.157 482 236.122 482 234C482 231.878 481.157 229.843 479.657 228.343C478.157 226.843 476.122 226 474 226" fill="white"/>
<path d="M466 274H482V266C482 263.878 481.157 261.843 479.657 260.343C478.157 258.843 476.122 258 474 258C471.878 258 469.843 258.843 468.343 260.343C466.843 261.843 466 263.878 466 266" fill="white"/>
<path d="M482 274H466V290H482V274Z" fill="white"/>
<path d="M482 290H466V306H474C476.122 306 478.157 305.157 479.657 303.657C481.157 302.157 482 300.122 482 298" fill="white"/>
<path d="M466 338H482V330C482 327.878 481.157 325.843 479.657 324.343C478.157 322.843 476.122 322 474 322C471.878 322 469.843 322.843 468.343 324.343C466.843 325.843 466 327.878 466 330" fill="white"/>
<path d="M482 338H466V354H474C476.122 354 478.157 353.157 479.657 351.657C481.157 350.157 482 348.122 482 346" fill="white"/>
<path d="M466 370V386H474C476.122 386 478.157 385.157 479.657 383.657C481.157 382.157 482 380.122 482 378C482 375.878 481.157 373.843 479.657 372.343C478.157 370.843 476.122 370 474 370" fill="white"/>
<path d="M474 418C478.418 418 482 414.418 482 410C482 405.582 478.418 402 474 402C469.582 402 466 405.582 466 410C466 414.418 469.582 418 474 418Z" fill="white"/>
<path d="M466 450V466H474C476.122 466 478.157 465.157 479.657 463.657C481.157 462.157 482 460.122 482 458C482 455.878 481.157 453.843 479.657 452.343C478.157 450.843 476.122 450 474 450" fill="white"/>
</mask>
<g mask="url(#mask0_636_1524)">
<path d="M500 0H0V500H500V0Z" fill="black"/>
</g>
<mask id="mask1_636_1524" style="mask-type:luminance" maskUnits="userSpaceOnUse" x="18" y="18" width="112" height="112">
<path fill-rule="evenodd" clip-rule="evenodd" d="M18 58V90C18 100.609 22.2143 110.783 29.7157 118.284C33.4301 121.999 37.8396 124.945 42.6927 126.955C47.5457 128.965 52.7471 130 58 130H90C100.609 130 110.783 125.786 118.284 118.284C125.786 110.783 130 100.609 130 90V58C130 52.7471 128.965 47.5457 126.955 42.6927C124.945 37.8396 121.999 33.4301 118.284 29.7157C114.57 26.0014 110.16 23.055 105.307 21.0448C100.454 19.0346 95.2529 18 90 18H58C52.7471 18 47.5457 19.0346 42.6927 21.0448C37.8396 23.055 33.4301 26.0014 29.7157 29.7157C22.2143 37.2172 18 47.3913 18 58ZM58 34H90C96.3652 34 102.47 36.5286 106.971 41.0294C111.471 45.5303 114 51.6348 114 58V90C114 96.3652 111.471 102.47 106.971 106.971C102.47 111.471 96.3652 114 90 114H58C51.6348 114 45.5303 111.471 41.0294 106.971C36.5286 102.47 34 96.3652 34 90V58C34 51.6348 36.5286 45.5303 41.0294 41.0294C45.5303 36.5286 51.6348 34 58 34Z" fill="white"/>
</mask>
<g mask="url(#mask1_636_1524)">
<path d="M130 18H18V130H130V18Z" fill="black"/>
</g>
<mask id="mask2_636_1524" style="mask-type:luminance" maskUnits="userSpaceOnUse" x="50" y="50" width="48" height="48">
<path d="M74 98C87.2548 98 98 87.2548 98 74C98 60.7452 87.2548 50 74 50C60.7452 50 50 60.7452 50 74C50 87.2548 60.7452 98 74 98Z" fill="white"/>
</mask>
<g mask="url(#mask2_636_1524)">
<path d="M98 50H50V98H98V50Z" fill="black"/>
</g>
<mask id="mask3_636_1524" style="mask-type:luminance" maskUnits="userSpaceOnUse" x="370" y="18" width="112" height="112">
<path fill-rule="evenodd" clip-rule="evenodd" d="M442 18H410C399.391 18 389.217 22.2143 381.716 29.7157C374.214 37.2172 370 47.3913 370 58V90C370 100.609 374.214 110.783 381.716 118.284C389.217 125.786 399.391 130 410 130H442C447.253 130 452.454 128.965 457.307 126.955C462.16 124.945 466.57 121.999 470.284 118.284C473.999 114.57 476.945 110.16 478.955 105.307C480.965 100.454 482 95.2529 482 90V58C482 47.3913 477.786 37.2172 470.284 29.7157C462.783 22.2143 452.609 18 442 18ZM466 58V90C466 96.3652 463.471 102.47 458.971 106.971C454.47 111.471 448.365 114 442 114H410C403.635 114 397.53 111.471 393.029 106.971C388.529 102.47 386 96.3652 386 90V58C386 51.6348 388.529 45.5303 393.029 41.0294C397.53 36.5286 403.635 34 410 34H442C448.365 34 454.47 36.5286 458.971 41.0294C463.471 45.5303 466 51.6348 466 58Z" fill="white"/>
</mask>
<g mask="url(#mask3_636_1524)">
<path d="M482 18H370V130H482V18Z" fill="black"/>
</g>
<mask id="mask4_636_1524" style="mask-type:luminance" maskUnits="userSpaceOnUse" x="402" y="50" width="48" height="48">
<path d="M402 74C402 87.2548 412.745 98 426 98C439.255 98 450 87.2548 450 74C450 60.7452 439.255 50 426 50C412.745 50 402 60.7452 402 74Z" fill="white"/>
</mask>
<g mask="url(#mask4_636_1524)">
<path d="M450 50H402V98H450V50Z" fill="black"/>
</g>
<mask id="mask5_636_1524" style="mask-type:luminance" maskUnits="userSpaceOnUse" x="18" y="370" width="112" height="112">
<path fill-rule="evenodd" clip-rule="evenodd" d="M58 482H90C100.609 482 110.783 477.786 118.284 470.284C121.999 466.57 124.945 462.16 126.955 457.307C128.965 452.454 130 447.253 130 442V410C130 399.391 125.786 389.217 118.284 381.716C110.783 374.214 100.609 370 90 370H58C47.3913 370 37.2172 374.214 29.7157 381.716C22.2143 389.217 18 399.391 18 410V442C18 447.253 19.0346 452.454 21.0448 457.307C23.055 462.16 26.0014 466.57 29.7157 470.284C37.2172 477.786 47.3913 482 58 482ZM34 442V410C34 403.635 36.5286 397.53 41.0294 393.029C45.5303 388.529 51.6348 386 58 386H90C96.3652 386 102.47 388.529 106.971 393.029C111.471 397.53 114 403.635 114 410V442C114 448.365 111.471 454.47 106.971 458.971C102.47 463.471 96.3652 466 90 466H58C51.6348 466 45.5303 463.471 41.0294 458.971C36.5286 454.47 34 448.365 34 442Z" fill="white"/>
</mask>
<g mask="url(#mask5_636_1524)">
<path d="M130 370H18V482H130V370Z" fill="black"/>
</g>
<mask id="mask6_636_1524" style="mask-type:luminance" maskUnits="userSpaceOnUse" x="50" y="402" width="48" height="48">
<path d="M98 426C98 412.745 87.2548 402 74 402C60.7452 402 50 412.745 50 426C50 439.255 60.7452 450 74 450C87.2548 450 98 439.255 98 426Z" fill="white"/>
</mask>
<g mask="url(#mask6_636_1524)">
<path d="M98 402H50V450H98V402Z" fill="black"/>
</g>
<rect x="194" y="194" width="112" height="112" fill="white"/>
<path d="M290.248 205.527H237.691C234.151 205.527 231.255 208.424 231.255 211.963V215.784H223.632C220.092 215.784 217.196 218.68 217.196 222.22V226.041H209.573C206.033 226.041 203.137 228.937 203.137 232.476V288.037C203.137 291.577 206.033 294.473 209.573 294.473H262.13C265.669 294.473 268.566 291.577 268.566 288.037V284.217H276.189C279.728 284.217 282.625 281.32 282.625 277.781V273.96H290.248C293.788 273.96 296.684 271.064 296.684 267.524V211.963C296.684 208.424 293.788 205.527 290.248 205.527Z" fill="#E6FA36"/>
<path d="M219.368 273.612C219.508 273.752 219.693 273.823 219.877 273.823C220.061 273.823 220.246 273.753 220.386 273.612L230.197 263.8C230.478 263.519 230.478 263.063 230.197 262.782L220.386 252.971C220.104 252.689 219.648 252.689 219.367 252.971C219.086 253.252 219.086 253.708 219.367 253.989L228.669 263.291L219.367 272.592C219.087 272.874 219.087 273.33 219.368 273.612Z" fill="black"/>
<path d="M234.384 273.823H251.827C252.225 273.823 252.547 273.5 252.547 273.103C252.547 272.705 252.225 272.383 251.827 272.383H234.384C233.987 272.383 233.664 272.705 233.664 273.103C233.664 273.5 233.987 273.823 234.384 273.823Z" fill="black"/>
<path d="M237.756 209.439C236.57 209.439 235.605 210.405 235.605 211.591C235.605 212.776 236.57 213.742 237.756 213.742C238.941 213.742 239.907 212.776 239.907 211.591C239.907 210.405 238.941 209.439 237.756 209.439Z" fill="black"/>
<path d="M244.546 209.439C243.36 209.439 242.395 210.405 242.395 211.591C242.395 212.776 243.36 213.742 244.546 213.742C245.731 213.742 246.696 212.776 246.696 211.591C246.696 210.405 245.731 209.439 244.546 209.439Z" fill="black"/>
<path d="M251.339 213.742C252.527 213.742 253.49 212.779 253.49 211.591C253.49 210.403 252.527 209.439 251.339 209.439C250.151 209.439 249.188 210.403 249.188 211.591C249.188 212.779 250.151 213.742 251.339 213.742Z" fill="black"/>
<path d="M223.698 223.999C224.886 223.999 225.85 223.036 225.85 221.848C225.85 220.659 224.886 219.696 223.698 219.696C222.51 219.696 221.547 220.659 221.547 221.848C221.547 223.036 222.51 223.999 223.698 223.999Z" fill="black"/>
<path d="M230.487 223.999C231.675 223.999 232.639 223.036 232.639 221.848C232.639 220.659 231.675 219.696 230.487 219.696C229.299 219.696 228.336 220.659 228.336 221.848C228.336 223.036 229.299 223.999 230.487 223.999Z" fill="black"/>
<path d="M237.276 223.999C238.465 223.999 239.428 223.036 239.428 221.848C239.428 220.659 238.465 219.696 237.276 219.696C236.088 219.696 235.125 220.659 235.125 221.848C235.125 223.036 236.088 223.999 237.276 223.999Z" fill="black"/>
<path d="M209.64 229.952C208.454 229.952 207.488 230.918 207.488 232.104C207.488 233.289 208.454 234.255 209.64 234.255C210.825 234.255 211.79 233.289 211.79 232.104C211.79 230.918 210.825 229.952 209.64 229.952Z" fill="black"/>
<path d="M216.429 234.256C217.617 234.256 218.58 233.293 218.58 232.104C218.58 230.916 217.617 229.953 216.429 229.953C215.241 229.953 214.277 230.916 214.277 232.104C214.277 233.293 215.241 234.256 216.429 234.256Z" fill="black"/>
<path d="M223.218 234.256C224.406 234.256 225.369 233.293 225.369 232.104C225.369 230.916 224.406 229.953 223.218 229.953C222.03 229.953 221.066 230.916 221.066 232.104C221.066 233.293 222.03 234.256 223.218 234.256Z" fill="black"/>
<path d="M290.249 204.807H237.692C233.747 204.807 230.536 208.017 230.536 211.962V215.063H223.633C219.688 215.063 216.478 218.274 216.478 222.218V225.319H209.574C205.628 225.319 202.418 228.529 202.418 232.474V288.035C202.418 291.98 205.628 295.191 209.574 295.191H262.131C266.077 295.191 269.287 291.98 269.287 288.035V284.935H276.19C280.135 284.935 283.345 281.725 283.345 277.779V274.679H290.248C294.193 274.679 297.403 271.469 297.403 267.523V211.962C297.405 208.017 294.195 204.807 290.249 204.807ZM267.848 284.216V288.036C267.848 291.187 265.284 293.752 262.132 293.752H209.574C206.422 293.752 203.858 291.187 203.858 288.036V238.86H267.847V284.216H267.848ZM267.848 237.42H203.858V232.476C203.858 229.325 206.422 226.761 209.574 226.761H217.197H262.131C265.283 226.761 267.847 229.325 267.847 232.476V237.42H267.848ZM281.906 273.959V277.779C281.906 280.931 279.342 283.495 276.191 283.495H269.288V232.475C269.288 232.153 269.259 231.839 269.218 231.529C269.208 231.455 269.197 231.382 269.184 231.308C269.135 231.015 269.074 230.727 268.99 230.446C268.987 230.437 268.985 230.426 268.982 230.417C268.888 230.105 268.771 229.804 268.637 229.512C268.624 229.485 268.611 229.458 268.597 229.432C268.462 229.146 268.31 228.868 268.14 228.604H281.906V273.959V273.959ZM281.906 227.163H266.909C266.752 227.023 266.591 226.89 266.423 226.763C266.417 226.758 266.412 226.754 266.405 226.749C266.244 226.628 266.077 226.514 265.906 226.408C265.888 226.396 265.87 226.386 265.852 226.375C265.691 226.276 265.526 226.183 265.357 226.098C265.321 226.079 265.285 226.063 265.248 226.045C265.093 225.969 264.936 225.897 264.775 225.833C264.716 225.81 264.656 225.789 264.597 225.767C264.452 225.714 264.308 225.662 264.159 225.618C264.073 225.592 263.985 225.572 263.896 225.549C263.769 225.517 263.642 225.482 263.511 225.456C263.387 225.431 263.258 225.416 263.131 225.398C263.032 225.383 262.935 225.365 262.835 225.355C262.603 225.332 262.369 225.32 262.132 225.32H217.918V222.219C217.918 219.068 220.482 216.504 223.633 216.504H231.256H276.191C279.342 216.504 281.906 219.068 281.906 222.219V227.163ZM295.965 267.523C295.965 270.675 293.401 273.239 290.25 273.239H283.347V222.219C283.347 221.898 283.318 221.584 283.277 221.274C283.267 221.2 283.256 221.126 283.243 221.053C283.194 220.76 283.133 220.471 283.049 220.191C283.046 220.18 283.045 220.17 283.042 220.159C282.948 219.848 282.83 219.547 282.696 219.256C282.684 219.228 282.669 219.201 282.657 219.173C282.521 218.887 282.371 218.61 282.2 218.347L282.199 218.346H295.965V267.523V267.523ZM295.965 216.906H280.991V216.929C280.834 216.786 280.67 216.649 280.501 216.521C280.497 216.518 280.494 216.515 280.49 216.513C280.325 216.388 280.156 216.271 279.98 216.161C279.966 216.152 279.951 216.143 279.937 216.135C279.771 216.032 279.602 215.935 279.427 215.847C279.397 215.83 279.364 215.817 279.332 215.801C279.172 215.722 279.009 215.646 278.842 215.579C278.788 215.557 278.731 215.538 278.677 215.518C278.527 215.463 278.378 215.408 278.223 215.362C278.141 215.337 278.055 215.319 277.971 215.297C277.839 215.263 277.709 215.226 277.573 215.201C277.45 215.176 277.323 215.161 277.196 215.143C277.095 215.129 276.997 215.109 276.896 215.1C276.663 215.077 276.428 215.064 276.19 215.064H231.976V211.963C231.976 208.812 234.541 206.248 237.692 206.248H290.249C293.4 206.248 295.964 208.812 295.964 211.963V216.906H295.965Z" fill="black"/>
</g>
<defs>
<clipPath id="clip0_636_1524">
<rect width="500" height="500" fill="white"/>
</clipPath>
</defs>
</svg>
