<svg width="500" height="500" viewBox="0 0 500 500" fill="none" xmlns="http://www.w3.org/2000/svg">
<g clip-path="url(#clip0_640_1970)">
<path d="M500 0H0V500H500V0Z" fill="white"/>
<mask id="mask0_640_1970" style="mask-type:luminance" maskUnits="userSpaceOnUse" x="18" y="18" width="464" height="464">
<path d="M34 162V146H26C23.8783 146 21.8434 146.843 20.3431 148.343C18.8429 149.843 18 151.878 18 154C18 156.122 18.8429 158.157 20.3431 159.657C21.8434 161.157 23.8783 162 26 162" fill="white"/>
<path d="M18 194H34V178H26C23.8783 178 21.8434 178.843 20.3431 180.343C18.8428 181.843 18 183.878 18 186" fill="white"/>
<path d="M34 210V194H18L18 202C18 204.122 18.8429 206.157 20.3431 207.657C21.8434 209.157 23.8783 210 26 210" fill="white"/>
<path d="M18 290H34V282C34 279.878 33.1572 277.843 31.6569 276.343C30.1566 274.843 28.1217 274 26 274C23.8783 274 21.8434 274.843 20.3431 276.343C18.8428 277.843 18 279.878 18 282" fill="white"/>
<path d="M34 290H18V298C18 300.122 18.8428 302.157 20.3431 303.657C21.8434 305.157 23.8783 306 26 306C28.1217 306 30.1566 305.157 31.6569 303.657C33.1572 302.157 34 300.122 34 298" fill="white"/>
<path d="M34 146V162H42C44.1217 162 46.1566 161.157 47.6569 159.657C49.1571 158.157 50 156.122 50 154C50 151.878 49.1571 149.843 47.6569 148.343C46.1566 146.843 44.1217 146 42 146" fill="white"/>
<path d="M34 178V194H50V186C50 183.878 49.1571 181.843 47.6569 180.343C46.1566 178.843 44.1217 178 42 178" fill="white"/>
<path d="M50 194H34V210H42C44.1217 210 46.1566 209.157 47.6569 207.657C49.1572 206.157 50 204.122 50 202" fill="white"/>
<path d="M34 258H50V242H42C39.8783 242 37.8434 242.843 36.3431 244.343C34.8428 245.843 34 247.878 34 250" fill="white"/>
<path d="M50 258H34V266C34 268.122 34.8428 270.157 36.3431 271.657C37.8434 273.157 39.8783 274 42 274C44.1217 274 46.1566 273.157 47.6569 271.657C49.1572 270.157 50 268.122 50 266" fill="white"/>
<path d="M50 354V338H42C39.8783 338 37.8434 338.843 36.3431 340.343C34.8429 341.843 34 343.878 34 346C34 348.122 34.8429 350.157 36.3431 351.657C37.8434 353.157 39.8783 354 42 354" fill="white"/>
<path d="M50 226H66V218C66 215.878 65.1572 213.843 63.6569 212.343C62.1566 210.843 60.1217 210 58 210C55.8783 210 53.8434 210.843 52.3431 212.343C50.8428 213.843 50 215.878 50 218" fill="white"/>
<path d="M66 226H50V242H66V226Z" fill="white"/>
<path d="M66 242H50V258H58C60.1217 258 62.1566 257.157 63.6569 255.657C65.1572 254.157 66 252.122 66 250" fill="white"/>
<path d="M58 290C62.4183 290 66 286.418 66 282C66 277.582 62.4183 274 58 274C53.5817 274 50 277.582 50 282C50 286.418 53.5817 290 58 290Z" fill="white"/>
<path d="M66 338H50V354H66V338Z" fill="white"/>
<path d="M82 178V162H74C71.8783 162 69.8434 162.843 68.3431 164.343C66.8429 165.843 66 167.878 66 170C66 172.122 66.8429 174.157 68.3431 175.657C69.8434 177.157 71.8783 178 74 178" fill="white"/>
<path d="M82 226H66V242H82V226Z" fill="white"/>
<path d="M82 274V258H74C71.8783 258 69.8434 258.843 68.3431 260.343C66.8429 261.843 66 263.878 66 266C66 268.122 66.8429 270.157 68.3431 271.657C69.8434 273.157 71.8783 274 74 274" fill="white"/>
<path d="M74 306C78.4183 306 82 302.418 82 298C82 293.582 78.4183 290 74 290C69.5817 290 66 293.582 66 298C66 302.418 69.5817 306 74 306Z" fill="white"/>
<path d="M82 338H66V354H82V338Z" fill="white"/>
<path d="M98 162H82V178H98V162Z" fill="white"/>
<path d="M82 226V242H90C92.1217 242 94.1566 241.157 95.6569 239.657C97.1571 238.157 98 236.122 98 234C98 231.878 97.1571 229.843 95.6569 228.343C94.1566 226.843 92.1217 226 90 226" fill="white"/>
<path d="M82 258V274H90C92.1217 274 94.1566 273.157 95.6569 271.657C97.1571 270.157 98 268.122 98 266C98 263.878 97.1571 261.843 95.6569 260.343C94.1566 258.843 92.1217 258 90 258" fill="white"/>
<path d="M82 322H98V306H90C87.8783 306 85.8434 306.843 84.3431 308.343C82.8428 309.843 82 311.878 82 314" fill="white"/>
<path d="M98 322H82V338H98V322Z" fill="white"/>
<path d="M98 338H82V354H90C92.1217 354 94.1566 353.157 95.6569 351.657C97.1572 350.157 98 348.122 98 346" fill="white"/>
<path d="M98 162V178H106C108.122 178 110.157 177.157 111.657 175.657C113.157 174.157 114 172.122 114 170C114 167.878 113.157 165.843 111.657 164.343C110.157 162.843 108.122 162 106 162" fill="white"/>
<path d="M114 258V242H106C103.878 242 101.843 242.843 100.343 244.343C98.8429 245.843 98 247.878 98 250C98 252.122 98.8429 254.157 100.343 255.657C101.843 257.157 103.878 258 106 258" fill="white"/>
<path d="M98 290H114V274H106C103.878 274 101.843 274.843 100.343 276.343C98.8428 277.843 98 279.878 98 282" fill="white"/>
<path d="M114 290H98V306H114V290Z" fill="white"/>
<path d="M114 306H98V322H114V306Z" fill="white"/>
<path d="M122 162C126.418 162 130 158.418 130 154C130 149.582 126.418 146 122 146C117.582 146 114 149.582 114 154C114 158.418 117.582 162 122 162Z" fill="white"/>
<path d="M130 194V178H122C119.878 178 117.843 178.843 116.343 180.343C114.843 181.843 114 183.878 114 186C114 188.122 114.843 190.157 116.343 191.657C117.843 193.157 119.878 194 122 194" fill="white"/>
<path d="M122 226C126.418 226 130 222.418 130 218C130 213.582 126.418 210 122 210C117.582 210 114 213.582 114 218C114 222.418 117.582 226 122 226Z" fill="white"/>
<path d="M114 242V258H122C124.122 258 126.157 257.157 127.657 255.657C129.157 254.157 130 252.122 130 250C130 247.878 129.157 245.843 127.657 244.343C126.157 242.843 124.122 242 122 242" fill="white"/>
<path d="M130 274H114V290H130V274Z" fill="white"/>
<path d="M130 306H114V322H130V306Z" fill="white"/>
<path d="M122 354C126.418 354 130 350.418 130 346C130 341.582 126.418 338 122 338C117.582 338 114 341.582 114 346C114 350.418 117.582 354 122 354Z" fill="white"/>
<path d="M130 178H146V162H138C135.878 162 133.843 162.843 132.343 164.343C130.843 165.843 130 167.878 130 170" fill="white"/>
<path d="M146 178H130V194H146V178Z" fill="white"/>
<path d="M146 210V194H130V202C130 204.122 130.843 206.157 132.343 207.657C133.843 209.157 135.878 210 138 210" fill="white"/>
<path d="M146 242V226H138C135.878 226 133.843 226.843 132.343 228.343C130.843 229.843 130 231.878 130 234C130 236.122 130.843 238.157 132.343 239.657C133.843 241.157 135.878 242 138 242" fill="white"/>
<path d="M130 274V290H138C140.122 290 142.157 289.157 143.657 287.657C145.157 286.157 146 284.122 146 282C146 279.878 145.157 277.843 143.657 276.343C142.157 274.843 140.122 274 138 274" fill="white"/>
<path d="M146 306H130V322H146V306Z" fill="white"/>
<path d="M162 50V34H154C151.878 34 149.843 34.8429 148.343 36.3431C146.843 37.8434 146 39.8783 146 42C146 44.1217 146.843 46.1566 148.343 47.6569C149.843 49.1571 151.878 50 154 50" fill="white"/>
<path d="M146 130H162V122C162 119.878 161.157 117.843 159.657 116.343C158.157 114.843 156.122 114 154 114C151.878 114 149.843 114.843 148.343 116.343C146.843 117.843 146 119.878 146 122" fill="white"/>
<path d="M162 130H146V146H162V130Z" fill="white"/>
<path d="M162 146H146V162H162V146Z" fill="white"/>
<path d="M162 162H146V178H162V162Z" fill="white"/>
<path d="M162 178H146V194H162V178Z" fill="white"/>
<path d="M162 194H146V210H154C156.122 210 158.157 209.157 159.657 207.657C161.157 206.157 162 204.122 162 202" fill="white"/>
<path d="M146 226V242H162V234C162 231.878 161.157 229.843 159.657 228.343C158.157 226.843 156.122 226 154 226" fill="white"/>
<path d="M162 242H146V258H162V242Z" fill="white"/>
<path d="M162 258H146V266C146 268.122 146.843 270.157 148.343 271.657C149.843 273.157 151.878 274 154 274C156.122 274 158.157 273.157 159.657 271.657C161.157 270.157 162 268.122 162 266" fill="white"/>
<path d="M146 306H162V298C162 295.878 161.157 293.843 159.657 292.343C158.157 290.843 156.122 290 154 290C151.878 290 149.843 290.843 148.343 292.343C146.843 293.843 146 295.878 146 298" fill="white"/>
<path d="M162 306H146V322H162V306Z" fill="white"/>
<path d="M162 338V322H146V330C146 332.122 146.843 334.157 148.343 335.657C149.843 337.157 151.878 338 154 338" fill="white"/>
<path d="M162 370V354H154C151.878 354 149.843 354.843 148.343 356.343C146.843 357.843 146 359.878 146 362C146 364.122 146.843 366.157 148.343 367.657C149.843 369.157 151.878 370 154 370" fill="white"/>
<path d="M146 466H162V450H154C151.878 450 149.843 450.843 148.343 452.343C146.843 453.843 146 455.878 146 458" fill="white"/>
<path d="M162 466H146V474C146 476.122 146.843 478.157 148.343 479.657C149.843 481.157 151.878 482 154 482C156.122 482 158.157 481.157 159.657 479.657C161.157 478.157 162 476.122 162 474" fill="white"/>
<path d="M162 34V50H170C172.122 50 174.157 49.1571 175.657 47.6569C177.157 46.1566 178 44.1217 178 42C178 39.8783 177.157 37.8434 175.657 36.3431C174.157 34.8429 172.122 34 170 34" fill="white"/>
<path d="M170 98C174.418 98 178 94.4183 178 90C178 85.5817 174.418 82 170 82C165.582 82 162 85.5817 162 90C162 94.4183 165.582 98 170 98Z" fill="white"/>
<path d="M162 178V194H170C172.122 194 174.157 193.157 175.657 191.657C177.157 190.157 178 188.122 178 186C178 183.878 177.157 181.843 175.657 180.343C174.157 178.843 172.122 178 170 178" fill="white"/>
<path d="M178 242H162V258H178V242Z" fill="white"/>
<path d="M178 306H162V322H178V306Z" fill="white"/>
<path d="M178 322H162V338H170C172.122 338 174.157 337.157 175.657 335.657C177.157 334.157 178 332.122 178 330" fill="white"/>
<path d="M178 354H162V370H178V354Z" fill="white"/>
<path d="M162 402H178V394C178 391.878 177.157 389.843 175.657 388.343C174.157 386.843 172.122 386 170 386C167.878 386 165.843 386.843 164.343 388.343C162.843 389.843 162 391.878 162 394" fill="white"/>
<path d="M178 418V402H162V410C162 412.122 162.843 414.157 164.343 415.657C165.843 417.157 167.878 418 170 418" fill="white"/>
<path d="M162 450H178V434H170C167.878 434 165.843 434.843 164.343 436.343C162.843 437.843 162 439.878 162 442" fill="white"/>
<path d="M178 450H162V466H170C172.122 466 174.157 465.157 175.657 463.657C177.157 462.157 178 460.122 178 458" fill="white"/>
<path d="M194 66V50H186C183.878 50 181.843 50.8429 180.343 52.3431C178.843 53.8434 178 55.8783 178 58C178 60.1217 178.843 62.1566 180.343 63.6569C181.843 65.1571 183.878 66 186 66" fill="white"/>
<path d="M186 130C190.418 130 194 126.418 194 122C194 117.582 190.418 114 186 114C181.582 114 178 117.582 178 122C178 126.418 181.582 130 186 130Z" fill="white"/>
<path d="M194 178V162H186C183.878 162 181.843 162.843 180.343 164.343C178.843 165.843 178 167.878 178 170C178 172.122 178.843 174.157 180.343 175.657C181.843 177.157 183.878 178 186 178" fill="white"/>
<path d="M186 210C190.418 210 194 206.418 194 202C194 197.582 190.418 194 186 194C181.582 194 178 197.582 178 202C178 206.418 181.582 210 186 210Z" fill="white"/>
<path d="M178 242H194V226H186C183.878 226 181.843 226.843 180.343 228.343C178.843 229.843 178 231.878 178 234" fill="white"/>
<path d="M194 242H178V258H194V242Z" fill="white"/>
<path d="M194 258H178V266C178 268.122 178.843 270.157 180.343 271.657C181.843 273.157 183.878 274 186 274C188.122 274 190.157 273.157 191.657 271.657C193.157 270.157 194 268.122 194 266" fill="white"/>
<path d="M178 306H194V298C194 295.878 193.157 293.843 191.657 292.343C190.157 290.843 188.122 290 186 290C183.878 290 181.843 290.843 180.343 292.343C178.843 293.843 178 295.878 178 298" fill="white"/>
<path d="M194 306H178V322H186C188.122 322 190.157 321.157 191.657 319.657C193.157 318.157 194 316.122 194 314" fill="white"/>
<path d="M178 354V370H194V362C194 359.878 193.157 357.843 191.657 356.343C190.157 354.843 188.122 354 186 354" fill="white"/>
<path d="M194 386V370H178V378C178 380.122 178.843 382.157 180.343 383.657C181.843 385.157 183.878 386 186 386" fill="white"/>
<path d="M194 402H178V418H194V402Z" fill="white"/>
<path d="M194 418H178V434H194V418Z" fill="white"/>
<path d="M194 434H178V450H186C188.122 450 190.157 449.157 191.657 447.657C193.157 446.157 194 444.122 194 442" fill="white"/>
<path d="M194 34H210V18H202C199.878 18 197.843 18.8428 196.343 20.3431C194.843 21.8434 194 23.8783 194 26" fill="white"/>
<path d="M210 34H194V50H210V34Z" fill="white"/>
<path d="M210 50H194V66H210V50Z" fill="white"/>
<path d="M210 66H194V74C194 76.1217 194.843 78.1566 196.343 79.6569C197.843 81.1572 199.878 82 202 82C204.122 82 206.157 81.1572 207.657 79.6569C209.157 78.1566 210 76.1217 210 74" fill="white"/>
<path d="M210 162H194V178H210V162Z" fill="white"/>
<path d="M210 226H194V242H210V226Z" fill="white"/>
<path d="M210 290V274H202C199.878 274 197.843 274.843 196.343 276.343C194.843 277.843 194 279.878 194 282C194 284.122 194.843 286.157 196.343 287.657C197.843 289.157 199.878 290 202 290" fill="white"/>
<path d="M210 354V338H202C199.878 338 197.843 338.843 196.343 340.343C194.843 341.843 194 343.878 194 346C194 348.122 194.843 350.157 196.343 351.657C197.843 353.157 199.878 354 202 354" fill="white"/>
<path d="M210 370H194V386H210V370Z" fill="white"/>
<path d="M210 386H194V402H210V386Z" fill="white"/>
<path d="M210 402H194V418H210V402Z" fill="white"/>
<path d="M210 418H194V434H202C204.122 434 206.157 433.157 207.657 431.657C209.157 430.157 210 428.122 210 426" fill="white"/>
<path d="M210 18V34H226V26C226 23.8783 225.157 21.8434 223.657 20.3431C222.157 18.8429 220.122 18 218 18" fill="white"/>
<path d="M226 34H210V50H218C220.122 50 222.157 49.1572 223.657 47.6569C225.157 46.1566 226 44.1217 226 42" fill="white"/>
<path d="M210 98H226V82H218C215.878 82 213.843 82.8428 212.343 84.3431C210.843 85.8434 210 87.8783 210 90" fill="white"/>
<path d="M226 98H210V114H226V98Z" fill="white"/>
<path d="M226 114H210V122C210 124.122 210.843 126.157 212.343 127.657C213.843 129.157 215.878 130 218 130C220.122 130 222.157 129.157 223.657 127.657C225.157 126.157 226 124.122 226 122" fill="white"/>
<path d="M210 162H226V146H218C215.878 146 213.843 146.843 212.343 148.343C210.843 149.843 210 151.878 210 154" fill="white"/>
<path d="M226 162H210V178H218C220.122 178 222.157 177.157 223.657 175.657C225.157 174.157 226 172.122 226 170" fill="white"/>
<path d="M210 210H226V202C226 199.878 225.157 197.843 223.657 196.343C222.157 194.843 220.122 194 218 194C215.878 194 213.843 194.843 212.343 196.343C210.843 197.843 210 199.878 210 202" fill="white"/>
<path d="M226 210H210V226H226V210Z" fill="white"/>
<path d="M226 226H210V242H226V226Z" fill="white"/>
<path d="M226 242H210V250C210 252.122 210.843 254.157 212.343 255.657C213.843 257.157 215.878 258 218 258C220.122 258 222.157 257.157 223.657 255.657C225.157 254.157 226 252.122 226 250" fill="white"/>
<path d="M210 274V290H218C220.122 290 222.157 289.157 223.657 287.657C225.157 286.157 226 284.122 226 282C226 279.878 225.157 277.843 223.657 276.343C222.157 274.843 220.122 274 218 274" fill="white"/>
<path d="M210 338H226V322H218C215.878 322 213.843 322.843 212.343 324.343C210.843 325.843 210 327.878 210 330" fill="white"/>
<path d="M226 338H210V354H226V338Z" fill="white"/>
<path d="M226 354H210V370H226V354Z" fill="white"/>
<path d="M226 370H210V386H226V370Z" fill="white"/>
<path d="M226 466V450H218C215.878 450 213.843 450.843 212.343 452.343C210.843 453.843 210 455.878 210 458C210 460.122 210.843 462.157 212.343 463.657C213.843 465.157 215.878 466 218 466" fill="white"/>
<path d="M226 66H242V50H234C231.878 50 229.843 50.8428 228.343 52.3431C226.843 53.8434 226 55.8783 226 58" fill="white"/>
<path d="M242 66H226V82H242V66Z" fill="white"/>
<path d="M242 82H226V98H234C236.122 98 238.157 97.1572 239.657 95.6569C241.157 94.1566 242 92.1217 242 90" fill="white"/>
<path d="M226 146H242V130H234C231.878 130 229.843 130.843 228.343 132.343C226.843 133.843 226 135.878 226 138" fill="white"/>
<path d="M242 146H226V162H242V146Z" fill="white"/>
<path d="M234 194C238.418 194 242 190.418 242 186C242 181.582 238.418 178 234 178C229.582 178 226 181.582 226 186C226 190.418 229.582 194 234 194Z" fill="white"/>
<path d="M226 226V242H234C236.122 242 238.157 241.157 239.657 239.657C241.157 238.157 242 236.122 242 234C242 231.878 241.157 229.843 239.657 228.343C238.157 226.843 236.122 226 234 226" fill="white"/>
<path d="M226 306H242V290H234C231.878 290 229.843 290.843 228.343 292.343C226.843 293.843 226 295.878 226 298" fill="white"/>
<path d="M242 306H226V322H242V306Z" fill="white"/>
<path d="M242 322H226V338H242V322Z" fill="white"/>
<path d="M242 338H226V354H242V338Z" fill="white"/>
<path d="M226 370V386H234C236.122 386 238.157 385.157 239.657 383.657C241.157 382.157 242 380.122 242 378C242 375.878 241.157 373.843 239.657 372.343C238.157 370.843 236.122 370 234 370" fill="white"/>
<path d="M226 418H242V410C242 407.878 241.157 405.843 239.657 404.343C238.157 402.843 236.122 402 234 402C231.878 402 229.843 402.843 228.343 404.343C226.843 405.843 226 407.878 226 410" fill="white"/>
<path d="M242 418H226V426C226 428.122 226.843 430.157 228.343 431.657C229.843 433.157 231.878 434 234 434C236.122 434 238.157 433.157 239.657 431.657C241.157 430.157 242 428.122 242 426" fill="white"/>
<path d="M226 450V466H242V458C242 455.878 241.157 453.843 239.657 452.343C238.157 450.843 236.122 450 234 450" fill="white"/>
<path d="M242 466H226V474C226 476.122 226.843 478.157 228.343 479.657C229.843 481.157 231.878 482 234 482C236.122 482 238.157 481.157 239.657 479.657C241.157 478.157 242 476.122 242 474" fill="white"/>
<path d="M250 34C254.418 34 258 30.4183 258 26C258 21.5817 254.418 18 250 18C245.582 18 242 21.5817 242 26C242 30.4183 245.582 34 250 34Z" fill="white"/>
<path d="M258 50H242V66H258V50Z" fill="white"/>
<path d="M258 66H242V82H258V66Z" fill="white"/>
<path d="M242 130H258V122C258 119.878 257.157 117.843 255.657 116.343C254.157 114.843 252.122 114 250 114C247.878 114 245.843 114.843 244.343 116.343C242.843 117.843 242 119.878 242 122" fill="white"/>
<path d="M258 130H242V146H258V130Z" fill="white"/>
<path d="M258 146H242V162H258V146Z" fill="white"/>
<path d="M258 178V162H242V170C242 172.122 242.843 174.157 244.343 175.657C245.843 177.157 247.878 178 250 178" fill="white"/>
<path d="M242 258H258V242H250C247.878 242 245.843 242.843 244.343 244.343C242.843 245.843 242 247.878 242 250" fill="white"/>
<path d="M258 274V258H242V266C242 268.122 242.843 270.157 244.343 271.657C245.843 273.157 247.878 274 250 274" fill="white"/>
<path d="M242 290V306H250C252.122 306 254.157 305.157 255.657 303.657C257.157 302.157 258 300.122 258 298C258 295.878 257.157 293.843 255.657 292.343C254.157 290.843 252.122 290 250 290" fill="white"/>
<path d="M258 338H242V354H258V338Z" fill="white"/>
<path d="M258 354H242V362C242 364.122 242.843 366.157 244.343 367.657C245.843 369.157 247.878 370 250 370C252.122 370 254.157 369.157 255.657 367.657C257.157 366.157 258 364.122 258 362" fill="white"/>
<path d="M250 402C254.418 402 258 398.418 258 394C258 389.582 254.418 386 250 386C245.582 386 242 389.582 242 394C242 398.418 245.582 402 250 402Z" fill="white"/>
<path d="M258 50V66H274V58C274 55.8783 273.157 53.8434 271.657 52.3431C270.157 50.8429 268.122 50 266 50" fill="white"/>
<path d="M274 66H258V82H274V66Z" fill="white"/>
<path d="M274 114V98H266C263.878 98 261.843 98.8429 260.343 100.343C258.843 101.843 258 103.878 258 106C258 108.122 258.843 110.157 260.343 111.657C261.843 113.157 263.878 114 266 114" fill="white"/>
<path d="M258 162V178H274V170C274 167.878 273.157 165.843 271.657 164.343C270.157 162.843 268.122 162 266 162" fill="white"/>
<path d="M274 194V178H258V186C258 188.122 258.843 190.157 260.343 191.657C261.843 193.157 263.878 194 266 194" fill="white"/>
<path d="M274 226V210H266C263.878 210 261.843 210.843 260.343 212.343C258.843 213.843 258 215.878 258 218C258 220.122 258.843 222.157 260.343 223.657C261.843 225.157 263.878 226 266 226" fill="white"/>
<path d="M258 242V258H274V250C274 247.878 273.157 245.843 271.657 244.343C270.157 242.843 268.122 242 266 242" fill="white"/>
<path d="M274 258H258V274H274V258Z" fill="white"/>
<path d="M274 274H258V282C258 284.122 258.843 286.157 260.343 287.657C261.843 289.157 263.878 290 266 290C268.122 290 270.157 289.157 271.657 287.657C273.157 286.157 274 284.122 274 282" fill="white"/>
<path d="M258 322H274V314C274 311.878 273.157 309.843 271.657 308.343C270.157 306.843 268.122 306 266 306C263.878 306 261.843 306.843 260.343 308.343C258.843 309.843 258 311.878 258 314" fill="white"/>
<path d="M274 322H258V338H274V322Z" fill="white"/>
<path d="M274 338H258V354H274V338Z" fill="white"/>
<path d="M258 418H274V410C274 407.878 273.157 405.843 271.657 404.343C270.157 402.843 268.122 402 266 402C263.878 402 261.843 402.843 260.343 404.343C258.843 405.843 258 407.878 258 410" fill="white"/>
<path d="M274 418H258V434H274V418Z" fill="white"/>
<path d="M274 450V434H258V442C258 444.122 258.843 446.157 260.343 447.657C261.843 449.157 263.878 450 266 450" fill="white"/>
<path d="M274 34H290V18H282C279.878 18 277.843 18.8428 276.343 20.3431C274.843 21.8434 274 23.8783 274 26" fill="white"/>
<path d="M290 34H274V42C274 44.1217 274.843 46.1566 276.343 47.6569C277.843 49.1572 279.878 50 282 50C284.122 50 286.157 49.1572 287.657 47.6569C289.157 46.1566 290 44.1217 290 42" fill="white"/>
<path d="M290 66H274V82H290V66Z" fill="white"/>
<path d="M290 98H274V114H290V98Z" fill="white"/>
<path d="M290 114H274V122C274 124.122 274.843 126.157 276.343 127.657C277.843 129.157 279.878 130 282 130C284.122 130 286.157 129.157 287.657 127.657C289.157 126.157 290 124.122 290 122" fill="white"/>
<path d="M274 178V194H282C284.122 194 286.157 193.157 287.657 191.657C289.157 190.157 290 188.122 290 186C290 183.878 289.157 181.843 287.657 180.343C286.157 178.843 284.122 178 282 178" fill="white"/>
<path d="M290 210H274V226H290V210Z" fill="white"/>
<path d="M274 258V274H282C284.122 274 286.157 273.157 287.657 271.657C289.157 270.157 290 268.122 290 266C290 263.878 289.157 261.843 287.657 260.343C286.157 258.843 284.122 258 282 258" fill="white"/>
<path d="M290 306V290H282C279.878 290 277.843 290.843 276.343 292.343C274.843 293.843 274 295.878 274 298C274 300.122 274.843 302.157 276.343 303.657C277.843 305.157 279.878 306 282 306" fill="white"/>
<path d="M290 338H274V354H290V338Z" fill="white"/>
<path d="M274 418V434H290V426C290 423.878 289.157 421.843 287.657 420.343C286.157 418.843 284.122 418 282 418" fill="white"/>
<path d="M290 434H274V450H282C284.122 450 286.157 449.157 287.657 447.657C289.157 446.157 290 444.122 290 442" fill="white"/>
<path d="M290 482V466H282C279.878 466 277.843 466.843 276.343 468.343C274.843 469.843 274 471.878 274 474C274 476.122 274.843 478.157 276.343 479.657C277.843 481.157 279.878 482 282 482" fill="white"/>
<path d="M306 18H290V34H306V18Z" fill="white"/>
<path d="M290 66H306V50H298C295.878 50 293.843 50.8428 292.343 52.3431C290.843 53.8434 290 55.8783 290 58" fill="white"/>
<path d="M306 66H290V82H298C300.122 82 302.157 81.1572 303.657 79.6569C305.157 78.1566 306 76.1217 306 74" fill="white"/>
<path d="M290 98V114H298C300.122 114 302.157 113.157 303.657 111.657C305.157 110.157 306 108.122 306 106C306 103.878 305.157 101.843 303.657 100.343C302.157 98.8429 300.122 98 298 98" fill="white"/>
<path d="M290 146H306V138C306 135.878 305.157 133.843 303.657 132.343C302.157 130.843 300.122 130 298 130C295.878 130 293.843 130.843 292.343 132.343C290.843 133.843 290 135.878 290 138" fill="white"/>
<path d="M306 146H290V162H306V146Z" fill="white"/>
<path d="M306 178V162H290V170C290 172.122 290.843 174.157 292.343 175.657C293.843 177.157 295.878 178 298 178" fill="white"/>
<path d="M306 210H290V226H306V210Z" fill="white"/>
<path d="M306 226H290V242H306V226Z" fill="white"/>
<path d="M306 242H290V250C290 252.122 290.843 254.157 292.343 255.657C293.843 257.157 295.878 258 298 258C300.122 258 302.157 257.157 303.657 255.657C305.157 254.157 306 252.122 306 250" fill="white"/>
<path d="M290 290V306H306V298C306 295.878 305.157 293.843 303.657 292.343C302.157 290.843 300.122 290 298 290" fill="white"/>
<path d="M306 306H290V322H306V306Z" fill="white"/>
<path d="M306 322H290V338H306V322Z" fill="white"/>
<path d="M306 338H290V354H298C300.122 354 302.157 353.157 303.657 351.657C305.157 350.157 306 348.122 306 346" fill="white"/>
<path d="M290 386H306V378C306 375.878 305.157 373.843 303.657 372.343C302.157 370.843 300.122 370 298 370C295.878 370 293.843 370.843 292.343 372.343C290.843 373.843 290 375.878 290 378" fill="white"/>
<path d="M306 386H290V402H306V386Z" fill="white"/>
<path d="M306 418V402H290V410C290 412.122 290.843 414.157 292.343 415.657C293.843 417.157 295.878 418 298 418" fill="white"/>
<path d="M306 466H290V482H306V466Z" fill="white"/>
<path d="M322 18H306V34H322V18Z" fill="white"/>
<path d="M322 34H306V50H322V34Z" fill="white"/>
<path d="M322 50H306V66H322V50Z" fill="white"/>
<path d="M314 130C318.418 130 322 126.418 322 122C322 117.582 318.418 114 314 114C309.582 114 306 117.582 306 122C306 126.418 309.582 130 314 130Z" fill="white"/>
<path d="M322 146H306V162H322V146Z" fill="white"/>
<path d="M322 162H306V178H322V162Z" fill="white"/>
<path d="M322 178H306V194H322V178Z" fill="white"/>
<path d="M322 194H306V210H322V194Z" fill="white"/>
<path d="M322 210H306V226H322V210Z" fill="white"/>
<path d="M322 226H306V242H322V226Z" fill="white"/>
<path d="M314 274C318.418 274 322 270.418 322 266C322 261.582 318.418 258 314 258C309.582 258 306 261.582 306 266C306 270.418 309.582 274 314 274Z" fill="white"/>
<path d="M306 306V322H322V314C322 311.878 321.157 309.843 319.657 308.343C318.157 306.843 316.122 306 314 306" fill="white"/>
<path d="M322 322H306V338H314C316.122 338 318.157 337.157 319.657 335.657C321.157 334.157 322 332.122 322 330" fill="white"/>
<path d="M306 402V418H314C316.122 418 318.157 417.157 319.657 415.657C321.157 414.157 322 412.122 322 410C322 407.878 321.157 405.843 319.657 404.343C318.157 402.843 316.122 402 314 402" fill="white"/>
<path d="M314 450C318.418 450 322 446.418 322 442C322 437.582 318.418 434 314 434C309.582 434 306 437.582 306 442C306 446.418 309.582 450 314 450Z" fill="white"/>
<path d="M306 466V482H314C316.122 482 318.157 481.157 319.657 479.657C321.157 478.157 322 476.122 322 474C322 471.878 321.157 469.843 319.657 468.343C318.157 466.843 316.122 466 314 466" fill="white"/>
<path d="M338 18H322V34H338V18Z" fill="white"/>
<path d="M338 50H322V66H338V50Z" fill="white"/>
<path d="M338 82V66H322V74C322 76.1217 322.843 78.1566 324.343 79.6569C325.843 81.1571 327.878 82 330 82" fill="white"/>
<path d="M322 146H338V130H330C327.878 130 325.843 130.843 324.343 132.343C322.843 133.843 322 135.878 322 138" fill="white"/>
<path d="M338 146H322V162H338V146Z" fill="white"/>
<path d="M338 162H322V178H330C332.122 178 334.157 177.157 335.657 175.657C337.157 174.157 338 172.122 338 170" fill="white"/>
<path d="M322 226V242H338V234C338 231.878 337.157 229.843 335.657 228.343C334.157 226.843 332.122 226 330 226" fill="white"/>
<path d="M338 242H322V250C322 252.122 322.843 254.157 324.343 255.657C325.843 257.157 327.878 258 330 258C332.122 258 334.157 257.157 335.657 255.657C337.157 254.157 338 252.122 338 250" fill="white"/>
<path d="M338 290V274H330C327.878 274 325.843 274.843 324.343 276.343C322.843 277.843 322 279.878 322 282C322 284.122 322.843 286.157 324.343 287.657C325.843 289.157 327.878 290 330 290" fill="white"/>
<path d="M322 354H338V338H330C327.878 338 325.843 338.843 324.343 340.343C322.843 341.843 322 343.878 322 346" fill="white"/>
<path d="M338 354H322V370H338V354Z" fill="white"/>
<path d="M338 386V370H322V378C322 380.122 322.843 382.157 324.343 383.657C325.843 385.157 327.878 386 330 386" fill="white"/>
<path d="M338 434V418H330C327.878 418 325.843 418.843 324.343 420.343C322.843 421.843 322 423.878 322 426C322 428.122 322.843 430.157 324.343 431.657C325.843 433.157 327.878 434 330 434" fill="white"/>
<path d="M338 18V34H346C348.122 34 350.157 33.1571 351.657 31.6569C353.157 30.1566 354 28.1217 354 26C354 23.8783 353.157 21.8434 351.657 20.3431C350.157 18.8429 348.122 18 346 18" fill="white"/>
<path d="M338 50V66H354V58C354 55.8783 353.157 53.8434 351.657 52.3431C350.157 50.8429 348.122 50 346 50" fill="white"/>
<path d="M354 66H338V82H346C348.122 82 350.157 81.1572 351.657 79.6569C353.157 78.1566 354 76.1217 354 74" fill="white"/>
<path d="M338 114H354V106C354 103.878 353.157 101.843 351.657 100.343C350.157 98.8428 348.122 98 346 98C343.878 98 341.843 98.8428 340.343 100.343C338.843 101.843 338 103.878 338 106" fill="white"/>
<path d="M354 114H338V130H354V114Z" fill="white"/>
<path d="M354 130H338V146H346C348.122 146 350.157 145.157 351.657 143.657C353.157 142.157 354 140.122 354 138" fill="white"/>
<path d="M338 194H354V186C354 183.878 353.157 181.843 351.657 180.343C350.157 178.843 348.122 178 346 178C343.878 178 341.843 178.843 340.343 180.343C338.843 181.843 338 183.878 338 186" fill="white"/>
<path d="M354 194H338V210H354V194Z" fill="white"/>
<path d="M354 226V210H338V218C338 220.122 338.843 222.157 340.343 223.657C341.843 225.157 343.878 226 346 226" fill="white"/>
<path d="M338 274V290H354V282C354 279.878 353.157 277.843 351.657 276.343C350.157 274.843 348.122 274 346 274" fill="white"/>
<path d="M354 290H338V298C338 300.122 338.843 302.157 340.343 303.657C341.843 305.157 343.878 306 346 306C348.122 306 350.157 305.157 351.657 303.657C353.157 302.157 354 300.122 354 298" fill="white"/>
<path d="M354 338H338V354H354V338Z" fill="white"/>
<path d="M354 354H338V370H354V354Z" fill="white"/>
<path d="M354 370H338V386H354V370Z" fill="white"/>
<path d="M354 386H338V402H354V386Z" fill="white"/>
<path d="M354 402H338V418H354V402Z" fill="white"/>
<path d="M354 418H338V434H354V418Z" fill="white"/>
<path d="M354 434H338V450H354V434Z" fill="white"/>
<path d="M354 450H338V458C338 460.122 338.843 462.157 340.343 463.657C341.843 465.157 343.878 466 346 466C348.122 466 350.157 465.157 351.657 463.657C353.157 462.157 354 460.122 354 458" fill="white"/>
<path d="M370 162V146H362C359.878 146 357.843 146.843 356.343 148.343C354.843 149.843 354 151.878 354 154C354 156.122 354.843 158.157 356.343 159.657C357.843 161.157 359.878 162 362 162" fill="white"/>
<path d="M370 194H354V210H370V194Z" fill="white"/>
<path d="M370 210H354V226H362C364.122 226 366.157 225.157 367.657 223.657C369.157 222.157 370 220.122 370 218" fill="white"/>
<path d="M370 274V258H362C359.878 258 357.843 258.843 356.343 260.343C354.843 261.843 354 263.878 354 266C354 268.122 354.843 270.157 356.343 271.657C357.843 273.157 359.878 274 362 274" fill="white"/>
<path d="M370 322V306H362C359.878 306 357.843 306.843 356.343 308.343C354.843 309.843 354 311.878 354 314C354 316.122 354.843 318.157 356.343 319.657C357.843 321.157 359.878 322 362 322" fill="white"/>
<path d="M370 338H354V354H370V338Z" fill="white"/>
<path d="M370 402H354V418H370V402Z" fill="white"/>
<path d="M370 418H354V434H370V418Z" fill="white"/>
<path d="M370 434H354V450H362C364.122 450 366.157 449.157 367.657 447.657C369.157 446.157 370 444.122 370 442" fill="white"/>
<path d="M370 146V162H386V154C386 151.878 385.157 149.843 383.657 148.343C382.157 146.843 380.122 146 378 146" fill="white"/>
<path d="M386 178V162H370V170C370 172.122 370.843 174.157 372.343 175.657C373.843 177.157 375.878 178 378 178" fill="white"/>
<path d="M386 194H370V210H386V194Z" fill="white"/>
<path d="M370 258H386V250C386 247.878 385.157 245.843 383.657 244.343C382.157 242.843 380.122 242 378 242C375.878 242 373.843 242.843 372.343 244.343C370.843 245.843 370 247.878 370 250" fill="white"/>
<path d="M386 258H370V274H386V258Z" fill="white"/>
<path d="M386 274H370V290H386V274Z" fill="white"/>
<path d="M386 290H370V306H386V290Z" fill="white"/>
<path d="M386 306H370V322H386V306Z" fill="white"/>
<path d="M386 322H370V338H386V322Z" fill="white"/>
<path d="M386 338H370V354H386V338Z" fill="white"/>
<path d="M378 386C382.418 386 386 382.418 386 378C386 373.582 382.418 370 378 370C373.582 370 370 373.582 370 378C370 382.418 373.582 386 378 386Z" fill="white"/>
<path d="M386 402H370V418H386V402Z" fill="white"/>
<path d="M378 466C382.418 466 386 462.418 386 458C386 453.582 382.418 450 378 450C373.582 450 370 453.582 370 458C370 462.418 373.582 466 378 466Z" fill="white"/>
<path d="M402 162H386V178H402V162Z" fill="white"/>
<path d="M402 178H386V194H402V178Z" fill="white"/>
<path d="M402 194H386V210H394C396.122 210 398.157 209.157 399.657 207.657C401.157 206.157 402 204.122 402 202" fill="white"/>
<path d="M402 274H386V290H402V274Z" fill="white"/>
<path d="M402 322H386V338H402V322Z" fill="white"/>
<path d="M402 338H386V354H402V338Z" fill="white"/>
<path d="M402 402H386V418H402V402Z" fill="white"/>
<path d="M402 418H386V426C386 428.122 386.843 430.157 388.343 431.657C389.843 433.157 391.878 434 394 434C396.122 434 398.157 433.157 399.657 431.657C401.157 430.157 402 428.122 402 426" fill="white"/>
<path d="M402 162V178H410C412.122 178 414.157 177.157 415.657 175.657C417.157 174.157 418 172.122 418 170C418 167.878 417.157 165.843 415.657 164.343C414.157 162.843 412.122 162 410 162" fill="white"/>
<path d="M418 226V210H410C407.878 210 405.843 210.843 404.343 212.343C402.843 213.843 402 215.878 402 218C402 220.122 402.843 222.157 404.343 223.657C405.843 225.157 407.878 226 410 226" fill="white"/>
<path d="M402 258H418V242H410C407.878 242 405.843 242.843 404.343 244.343C402.843 245.843 402 247.878 402 250" fill="white"/>
<path d="M418 258H402V274H418V258Z" fill="white"/>
<path d="M418 274H402V290H418V274Z" fill="white"/>
<path d="M418 322H402V338H418V322Z" fill="white"/>
<path d="M418 338H402V354H418V338Z" fill="white"/>
<path d="M418 354H402V370H418V354Z" fill="white"/>
<path d="M418 370H402V386H418V370Z" fill="white"/>
<path d="M418 386H402V402H418V386Z" fill="white"/>
<path d="M418 402H402V418H410C412.122 418 414.157 417.157 415.657 415.657C417.157 414.157 418 412.122 418 410" fill="white"/>
<path d="M418 482V466H410C407.878 466 405.843 466.843 404.343 468.343C402.843 469.843 402 471.878 402 474C402 476.122 402.843 478.157 404.343 479.657C405.843 481.157 407.878 482 410 482" fill="white"/>
<path d="M418 194H434V186C434 183.878 433.157 181.843 431.657 180.343C430.157 178.843 428.122 178 426 178C423.878 178 421.843 178.843 420.343 180.343C418.843 181.843 418 183.878 418 186" fill="white"/>
<path d="M434 194H418V210H434V194Z" fill="white"/>
<path d="M434 210H418V226H426C428.122 226 430.157 225.157 431.657 223.657C433.157 222.157 434 220.122 434 218" fill="white"/>
<path d="M418 242V258H434V250C434 247.878 433.157 245.843 431.657 244.343C430.157 242.843 428.122 242 426 242" fill="white"/>
<path d="M434 258H418V274H434V258Z" fill="white"/>
<path d="M434 274H418V290H434V274Z" fill="white"/>
<path d="M434 290H418V306H434V290Z" fill="white"/>
<path d="M434 306H418V322H434V306Z" fill="white"/>
<path d="M434 322H418V338H434V322Z" fill="white"/>
<path d="M434 338H418V354H434V338Z" fill="white"/>
<path d="M434 386H418V402H434V386Z" fill="white"/>
<path d="M434 434V418H426C423.878 418 421.843 418.843 420.343 420.343C418.843 421.843 418 423.878 418 426C418 428.122 418.843 430.157 420.343 431.657C421.843 433.157 423.878 434 426 434" fill="white"/>
<path d="M418 466V482H426C428.122 482 430.157 481.157 431.657 479.657C433.157 478.157 434 476.122 434 474C434 471.878 433.157 469.843 431.657 468.343C430.157 466.843 428.122 466 426 466" fill="white"/>
<path d="M442 178C446.418 178 450 174.418 450 170C450 165.582 446.418 162 442 162C437.582 162 434 165.582 434 170C434 174.418 437.582 178 442 178Z" fill="white"/>
<path d="M450 194H434V210H450V194Z" fill="white"/>
<path d="M450 258H434V274H450V258Z" fill="white"/>
<path d="M450 274H434V290H450V274Z" fill="white"/>
<path d="M450 290H434V306H442C444.122 306 446.157 305.157 447.657 303.657C449.157 302.157 450 300.122 450 298" fill="white"/>
<path d="M450 322H434V338H450V322Z" fill="white"/>
<path d="M450 338H434V354H450V338Z" fill="white"/>
<path d="M450 354H434V370H450V354Z" fill="white"/>
<path d="M450 370H434V386H450V370Z" fill="white"/>
<path d="M450 386H434V402H450V386Z" fill="white"/>
<path d="M450 402H434V418H450V402Z" fill="white"/>
<path d="M450 418H434V434H450V418Z" fill="white"/>
<path d="M442 466C446.418 466 450 462.418 450 458C450 453.582 446.418 450 442 450C437.582 450 434 453.582 434 458C434 462.418 437.582 466 442 466Z" fill="white"/>
<path d="M458 162C462.418 162 466 158.418 466 154C466 149.582 462.418 146 458 146C453.582 146 450 149.582 450 154C450 158.418 453.582 162 458 162Z" fill="white"/>
<path d="M450 194H466V186C466 183.878 465.157 181.843 463.657 180.343C462.157 178.843 460.122 178 458 178C455.878 178 453.843 178.843 452.343 180.343C450.843 181.843 450 183.878 450 186" fill="white"/>
<path d="M466 194H450V210H466V194Z" fill="white"/>
<path d="M466 242V226H458C455.878 226 453.843 226.843 452.343 228.343C450.843 229.843 450 231.878 450 234C450 236.122 450.843 238.157 452.343 239.657C453.843 241.157 455.878 242 458 242" fill="white"/>
<path d="M450 258V274H458C460.122 274 462.157 273.157 463.657 271.657C465.157 270.157 466 268.122 466 266C466 263.878 465.157 261.843 463.657 260.343C462.157 258.843 460.122 258 458 258" fill="white"/>
<path d="M466 322H450V338H466V322Z" fill="white"/>
<path d="M450 354V370H458C460.122 370 462.157 369.157 463.657 367.657C465.157 366.157 466 364.122 466 362C466 359.878 465.157 357.843 463.657 356.343C462.157 354.843 460.122 354 458 354" fill="white"/>
<path d="M466 402H450V418H466V402Z" fill="white"/>
<path d="M466 418H450V434H466V418Z" fill="white"/>
<path d="M466 450V434H450V442C450 444.122 450.843 446.157 452.343 447.657C453.843 449.157 455.878 450 458 450" fill="white"/>
<path d="M458 482C462.418 482 466 478.418 466 474C466 469.582 462.418 466 458 466C453.582 466 450 469.582 450 474C450 478.418 453.582 482 458 482Z" fill="white"/>
<path d="M474 178C478.418 178 482 174.418 482 170C482 165.582 478.418 162 474 162C469.582 162 466 165.582 466 170C466 174.418 469.582 178 474 178Z" fill="white"/>
<path d="M466 194V210H474C476.122 210 478.157 209.157 479.657 207.657C481.157 206.157 482 204.122 482 202C482 199.878 481.157 197.843 479.657 196.343C478.157 194.843 476.122 194 474 194" fill="white"/>
<path d="M466 226V242H474C476.122 242 478.157 241.157 479.657 239.657C481.157 238.157 482 236.122 482 234C482 231.878 481.157 229.843 479.657 228.343C478.157 226.843 476.122 226 474 226" fill="white"/>
<path d="M466 290H482V282C482 279.878 481.157 277.843 479.657 276.343C478.157 274.843 476.122 274 474 274C471.878 274 469.843 274.843 468.343 276.343C466.843 277.843 466 279.878 466 282" fill="white"/>
<path d="M482 290H466V298C466 300.122 466.843 302.157 468.343 303.657C469.843 305.157 471.878 306 474 306C476.122 306 478.157 305.157 479.657 303.657C481.157 302.157 482 300.122 482 298" fill="white"/>
<path d="M466 322V338H474C476.122 338 478.157 337.157 479.657 335.657C481.157 334.157 482 332.122 482 330C482 327.878 481.157 325.843 479.657 324.343C478.157 322.843 476.122 322 474 322" fill="white"/>
<path d="M474 386C478.418 386 482 382.418 482 378C482 373.582 478.418 370 474 370C469.582 370 466 373.582 466 378C466 382.418 469.582 386 474 386Z" fill="white"/>
<path d="M466 402V418H474C476.122 418 478.157 417.157 479.657 415.657C481.157 414.157 482 412.122 482 410C482 407.878 481.157 405.843 479.657 404.343C478.157 402.843 476.122 402 474 402" fill="white"/>
<path d="M466 434V450H474C476.122 450 478.157 449.157 479.657 447.657C481.157 446.157 482 444.122 482 442C482 439.878 481.157 437.843 479.657 436.343C478.157 434.843 476.122 434 474 434" fill="white"/>
</mask>
<g mask="url(#mask0_640_1970)">
<path d="M500 0H0V500H500V0Z" fill="black"/>
</g>
<mask id="mask1_640_1970" style="mask-type:luminance" maskUnits="userSpaceOnUse" x="18" y="18" width="112" height="112">
<path fill-rule="evenodd" clip-rule="evenodd" d="M18 58V90C18 100.609 22.2143 110.783 29.7157 118.284C33.4301 121.999 37.8396 124.945 42.6927 126.955C47.5457 128.965 52.7471 130 58 130H90C100.609 130 110.783 125.786 118.284 118.284C125.786 110.783 130 100.609 130 90V58C130 52.7471 128.965 47.5457 126.955 42.6927C124.945 37.8396 121.999 33.4301 118.284 29.7157C114.57 26.0014 110.16 23.055 105.307 21.0448C100.454 19.0346 95.2529 18 90 18H58C52.7471 18 47.5457 19.0346 42.6927 21.0448C37.8396 23.055 33.4301 26.0014 29.7157 29.7157C22.2143 37.2172 18 47.3913 18 58ZM58 34H90C96.3652 34 102.47 36.5286 106.971 41.0294C111.471 45.5303 114 51.6348 114 58V90C114 96.3652 111.471 102.47 106.971 106.971C102.47 111.471 96.3652 114 90 114H58C51.6348 114 45.5303 111.471 41.0294 106.971C36.5286 102.47 34 96.3652 34 90V58C34 51.6348 36.5286 45.5303 41.0294 41.0294C45.5303 36.5286 51.6348 34 58 34Z" fill="white"/>
</mask>
<g mask="url(#mask1_640_1970)">
<path d="M130 18H18V130H130V18Z" fill="black"/>
</g>
<mask id="mask2_640_1970" style="mask-type:luminance" maskUnits="userSpaceOnUse" x="50" y="50" width="48" height="48">
<path d="M74 98C87.2548 98 98 87.2548 98 74C98 60.7452 87.2548 50 74 50C60.7452 50 50 60.7452 50 74C50 87.2548 60.7452 98 74 98Z" fill="white"/>
</mask>
<g mask="url(#mask2_640_1970)">
<path d="M98 50H50V98H98V50Z" fill="black"/>
</g>
<mask id="mask3_640_1970" style="mask-type:luminance" maskUnits="userSpaceOnUse" x="370" y="18" width="112" height="112">
<path fill-rule="evenodd" clip-rule="evenodd" d="M442 18H410C399.391 18 389.217 22.2143 381.716 29.7157C374.214 37.2172 370 47.3913 370 58V90C370 100.609 374.214 110.783 381.716 118.284C389.217 125.786 399.391 130 410 130H442C447.253 130 452.454 128.965 457.307 126.955C462.16 124.945 466.57 121.999 470.284 118.284C473.999 114.57 476.945 110.16 478.955 105.307C480.965 100.454 482 95.2529 482 90V58C482 47.3913 477.786 37.2172 470.284 29.7157C462.783 22.2143 452.609 18 442 18ZM466 58V90C466 96.3652 463.471 102.47 458.971 106.971C454.47 111.471 448.365 114 442 114H410C403.635 114 397.53 111.471 393.029 106.971C388.529 102.47 386 96.3652 386 90V58C386 51.6348 388.529 45.5303 393.029 41.0294C397.53 36.5286 403.635 34 410 34H442C448.365 34 454.47 36.5286 458.971 41.0294C463.471 45.5303 466 51.6348 466 58Z" fill="white"/>
</mask>
<g mask="url(#mask3_640_1970)">
<path d="M482 18H370V130H482V18Z" fill="black"/>
</g>
<mask id="mask4_640_1970" style="mask-type:luminance" maskUnits="userSpaceOnUse" x="402" y="50" width="48" height="48">
<path d="M402 74C402 87.2548 412.745 98 426 98C439.255 98 450 87.2548 450 74C450 60.7452 439.255 50 426 50C412.745 50 402 60.7452 402 74Z" fill="white"/>
</mask>
<g mask="url(#mask4_640_1970)">
<path d="M450 50H402V98H450V50Z" fill="black"/>
</g>
<mask id="mask5_640_1970" style="mask-type:luminance" maskUnits="userSpaceOnUse" x="18" y="370" width="112" height="112">
<path fill-rule="evenodd" clip-rule="evenodd" d="M58 482H90C100.609 482 110.783 477.786 118.284 470.284C121.999 466.57 124.945 462.16 126.955 457.307C128.965 452.454 130 447.253 130 442V410C130 399.391 125.786 389.217 118.284 381.716C110.783 374.214 100.609 370 90 370H58C47.3913 370 37.2172 374.214 29.7157 381.716C22.2143 389.217 18 399.391 18 410V442C18 447.253 19.0346 452.454 21.0448 457.307C23.055 462.16 26.0014 466.57 29.7157 470.284C37.2172 477.786 47.3913 482 58 482ZM34 442V410C34 403.635 36.5286 397.53 41.0294 393.029C45.5303 388.529 51.6348 386 58 386H90C96.3652 386 102.47 388.529 106.971 393.029C111.471 397.53 114 403.635 114 410V442C114 448.365 111.471 454.47 106.971 458.971C102.47 463.471 96.3652 466 90 466H58C51.6348 466 45.5303 463.471 41.0294 458.971C36.5286 454.47 34 448.365 34 442Z" fill="white"/>
</mask>
<g mask="url(#mask5_640_1970)">
<path d="M130 370H18V482H130V370Z" fill="black"/>
</g>
<mask id="mask6_640_1970" style="mask-type:luminance" maskUnits="userSpaceOnUse" x="50" y="402" width="48" height="48">
<path d="M98 426C98 412.745 87.2548 402 74 402C60.7452 402 50 412.745 50 426C50 439.255 60.7452 450 74 450C87.2548 450 98 439.255 98 426Z" fill="white"/>
</mask>
<g mask="url(#mask6_640_1970)">
<path d="M98 402H50V450H98V402Z" fill="black"/>
</g>
<rect x="194" y="194" width="112" height="112" rx="56" fill="white"/>
<g clip-path="url(#clip1_640_1970)">
<path d="M282.116 251.902C281.612 251.359 281.06 250.886 280.475 250.495C280.522 250.294 280.553 250.087 280.553 249.872C280.553 249.657 280.522 249.45 280.475 249.249C281.059 248.859 281.612 248.385 282.116 247.842C284.29 245.498 285.596 241.973 285.942 238.352C286.288 234.731 285.724 231.027 284.622 227.665C284.381 226.93 284.104 226.198 283.788 225.499C283.071 223.919 282.146 222.51 280.945 221.622C280.767 221.492 280.584 221.372 280.395 221.265C279.886 220.978 279.329 220.802 278.774 220.761V216.308H272.887C272.819 216.024 272.727 215.746 272.61 215.481C272.526 215.291 272.434 215.108 272.332 214.931C271.641 213.729 270.545 212.804 269.317 212.088C268.774 211.771 268.204 211.495 267.633 211.254C265.019 210.152 262.138 209.587 259.322 209.933C256.506 210.279 253.765 211.586 251.942 213.76C251.493 214.295 251.106 214.886 250.793 215.512C250.487 215.394 250.158 215.322 249.81 215.322C249.518 215.322 249.242 215.38 248.979 215.464C248.669 214.856 248.29 214.281 247.852 213.76C246.029 211.586 243.288 210.279 240.472 209.933C237.656 209.587 234.775 210.152 232.161 211.254C231.589 211.495 231.02 211.771 230.477 212.088C229.248 212.804 228.152 213.729 227.462 214.931C227.36 215.108 227.267 215.292 227.184 215.481C227.067 215.746 226.974 216.025 226.906 216.308H221.02V220.762C220.463 220.803 219.907 220.979 219.399 221.266C219.209 221.373 219.026 221.492 218.849 221.623C217.647 222.511 216.722 223.92 216.006 225.5C215.689 226.199 215.413 226.931 215.171 227.666C214.07 231.028 213.505 234.732 213.851 238.353C214.197 241.974 215.504 245.499 217.678 247.843C218.181 248.386 218.734 248.86 219.318 249.25C219.272 249.451 219.241 249.658 219.241 249.873C219.241 250.088 219.272 250.295 219.318 250.496C218.734 250.886 218.181 251.36 217.678 251.903C215.504 254.247 214.197 257.772 213.851 261.393C213.505 265.013 214.07 268.717 215.171 272.079C215.413 272.814 215.689 273.545 216.006 274.245C216.722 275.825 217.647 277.234 218.849 278.122C219.026 278.253 219.21 278.372 219.399 278.479C219.907 278.766 220.464 278.942 221.02 278.983V283.486H226.906C226.974 283.77 227.067 284.049 227.184 284.314C227.267 284.503 227.359 284.686 227.462 284.863C228.152 286.065 229.247 286.99 230.477 287.706C231.02 288.023 231.589 288.299 232.161 288.541C234.775 289.642 237.656 290.207 240.472 289.861C243.288 289.515 246.029 288.209 247.852 286.034C248.301 285.499 248.688 284.908 249.001 284.282C249.307 284.4 249.637 284.472 249.984 284.472C250.276 284.472 250.552 284.414 250.815 284.33C251.124 284.938 251.503 285.513 251.941 286.035C253.764 288.209 256.505 289.516 259.32 289.862C262.136 290.208 265.017 289.643 267.631 288.541C268.203 288.3 268.772 288.024 269.315 287.707C270.544 286.991 271.64 286.066 272.33 284.864C272.432 284.686 272.525 284.503 272.608 284.314C272.724 284.049 272.817 283.77 272.885 283.487H278.772V278.982C279.328 278.941 279.885 278.766 280.393 278.478C280.583 278.371 280.766 278.252 280.943 278.121C282.144 277.234 283.07 275.824 283.786 274.244C284.103 273.545 284.379 272.813 284.62 272.078C285.722 268.716 286.286 265.012 285.94 261.391C285.596 257.771 284.29 254.246 282.116 251.902ZM219.968 263.991C219.965 263.987 219.963 263.983 219.96 263.979C219.697 263.539 219.453 263.085 219.23 262.613C219.058 262.248 218.899 261.874 218.762 261.483C217.904 259.029 217.979 255.866 219.434 253.931C219.873 253.347 220.424 252.919 221.02 252.651V265.611L219.968 263.991ZM221.021 234.134V247.094C220.425 246.827 219.874 246.398 219.435 245.814C217.979 243.88 217.905 240.716 218.763 238.262C218.9 237.871 219.059 237.497 219.231 237.132C219.453 236.66 219.698 236.206 219.96 235.766C219.963 235.762 219.965 235.758 219.969 235.754L221.021 234.134ZM247.261 217.076C247.261 217.076 247.261 217.077 247.26 217.078C247.261 217.077 247.261 217.076 247.261 217.076ZM238.451 216.049C238.455 216.047 238.458 216.044 238.461 216.041C238.803 215.778 239.156 215.534 239.524 215.311C239.807 215.14 240.098 214.98 240.402 214.843C242.31 213.985 244.771 214.061 246.275 215.515C246.517 215.749 246.718 216.02 246.891 216.308H238.139L238.461 216.04M246.274 284.278C244.77 285.733 242.31 285.807 240.401 284.949C240.097 284.812 239.807 284.653 239.523 284.481C239.156 284.259 238.803 284.014 238.46 283.752C238.457 283.749 238.454 283.747 238.451 283.743C238.343 283.661 238.244 283.569 238.138 283.484H246.903L246.274 284.278ZM261.342 283.744C261.339 283.747 261.335 283.749 261.332 283.752C260.99 284.015 260.637 284.26 260.27 284.482C259.986 284.654 259.696 284.813 259.391 284.95C257.483 285.808 255.023 285.733 253.519 284.278C253.276 284.044 253.075 283.774 252.903 283.486H261.654C261.55 283.569 261.449 283.662 261.342 283.744ZM261.654 216.308H252.89C253.065 216.019 253.276 215.751 253.519 215.516C255.024 214.061 257.484 213.986 259.392 214.844C259.696 214.981 259.987 215.14 260.271 215.312C260.637 215.535 260.99 215.779 261.333 216.042C261.336 216.044 261.34 216.047 261.343 216.05L261.654 216.308ZM279.826 235.754C279.828 235.758 279.831 235.762 279.834 235.766C280.096 236.206 280.341 236.66 280.563 237.132C280.735 237.497 280.895 237.871 281.031 238.262C281.889 240.716 281.814 243.879 280.36 245.814C279.92 246.398 279.369 246.826 278.774 247.094V234.134L279.826 235.754ZM278.572 252.492C278.571 252.492 278.571 252.492 278.572 252.492C278.571 252.492 278.571 252.492 278.572 252.492C278.571 252.492 278.571 252.492 278.572 252.492ZM278.773 265.611V252.651C279.368 252.918 279.92 253.347 280.359 253.931C281.814 255.865 281.888 259.029 281.03 261.483C280.894 261.874 280.734 262.248 280.563 262.613C280.34 263.085 279.828 263.987 279.826 263.991L278.773 265.611Z" fill="#E6FA36"/>
<path d="M282.563 251.487C282.119 251.007 281.633 250.594 281.128 250.226C281.141 250.109 281.163 249.994 281.163 249.874C281.163 249.753 281.141 249.639 281.127 249.521C281.632 249.153 282.118 248.74 282.563 248.261C284.721 245.934 286.174 242.345 286.55 238.412C286.88 234.954 286.414 231.173 285.202 227.476C284.941 226.675 284.652 225.926 284.344 225.248C283.496 223.377 282.474 221.992 281.306 221.131C281.109 220.985 280.905 220.852 280.693 220.733C280.263 220.49 279.822 220.33 279.384 220.235V216.31C279.384 215.971 279.109 215.697 278.77 215.697H273.343C273.291 215.542 273.234 215.387 273.167 215.235C273.076 215.026 272.973 214.824 272.86 214.628C272.184 213.451 271.095 212.418 269.622 211.559C269.09 211.249 268.499 210.957 267.866 210.69C264.955 209.463 261.972 208.992 259.242 209.327C256.135 209.709 253.301 211.181 251.467 213.367C251.1 213.805 250.786 214.286 250.501 214.785C250.276 214.738 250.044 214.711 249.806 214.711C249.624 214.711 249.449 214.736 249.275 214.765C248.993 214.273 248.681 213.8 248.319 213.367C246.486 211.181 243.652 209.709 240.544 209.327C237.813 208.99 234.831 209.463 231.92 210.691C231.289 210.957 230.7 211.249 230.165 211.559C228.692 212.418 227.602 213.451 226.926 214.629C226.814 214.824 226.712 215.026 226.619 215.236C226.552 215.389 226.495 215.543 226.443 215.697H221.017C220.678 215.697 220.404 215.972 220.404 216.311V220.235C219.965 220.331 219.524 220.49 219.094 220.733C218.882 220.853 218.678 220.986 218.481 221.132C217.313 221.993 216.29 223.378 215.442 225.248C215.136 225.926 214.846 226.675 214.584 227.476C213.373 231.173 212.906 234.956 213.236 238.413C213.612 242.345 215.065 245.934 217.224 248.262C217.668 248.739 218.153 249.152 218.659 249.522C218.647 249.64 218.623 249.754 218.623 249.875C218.623 249.995 218.646 250.109 218.658 250.226C218.152 250.596 217.666 251.01 217.224 251.487C215.065 253.815 213.612 257.404 213.236 261.335C212.906 264.793 213.373 268.575 214.584 272.272C214.848 273.075 215.137 273.824 215.443 274.499C216.289 276.369 217.312 277.754 218.481 278.618C218.678 278.762 218.882 278.896 219.093 279.014C219.523 279.257 219.964 279.417 220.404 279.512V283.486C220.404 283.824 220.678 284.099 221.017 284.099H226.443C226.495 284.255 226.552 284.409 226.619 284.562C226.711 284.772 226.814 284.974 226.926 285.168C227.601 286.345 228.691 287.378 230.164 288.236C230.698 288.549 231.289 288.841 231.919 289.106C234.222 290.077 236.568 290.575 238.8 290.575C239.39 290.575 239.972 290.54 240.543 290.469C243.652 290.087 246.486 288.614 248.319 286.429C248.687 285.99 249.001 285.509 249.285 285.01C249.51 285.058 249.741 285.085 249.98 285.085C250.161 285.085 250.336 285.06 250.511 285.031C250.793 285.522 251.105 285.996 251.466 286.428C253.299 288.614 256.133 290.087 259.241 290.469C259.812 290.539 260.395 290.574 260.985 290.574C263.216 290.574 265.564 290.076 267.866 289.105C268.497 288.839 269.088 288.546 269.621 288.236C271.093 287.377 272.183 286.345 272.858 285.168C272.971 284.973 273.074 284.769 273.166 284.56C273.233 284.407 273.289 284.253 273.341 284.098H278.768C279.106 284.098 279.381 283.824 279.381 283.485V279.512C279.82 279.416 280.26 279.256 280.692 279.013C280.902 278.894 281.105 278.761 281.303 278.616C282.472 277.753 283.495 276.368 284.341 274.499C284.648 273.824 284.937 273.074 285.2 272.27C286.411 268.573 286.878 264.791 286.548 261.334C286.174 257.403 284.721 253.813 282.563 251.487ZM278.726 221.375C279.172 221.407 279.636 221.544 280.09 221.802C280.257 221.896 280.419 222.002 280.577 222.119C281.575 222.854 282.466 224.078 283.226 225.755C283.516 226.392 283.788 227.1 284.035 227.858C285.195 231.395 285.642 235.005 285.328 238.296C284.977 241.965 283.641 245.294 281.663 247.427C281.375 247.737 281.07 248.023 280.754 248.281C280.739 248.255 280.718 248.234 280.703 248.208C280.612 248.051 280.509 247.903 280.395 247.764C280.364 247.726 280.335 247.688 280.303 247.652C280.167 247.5 280.018 247.363 279.857 247.237C279.843 247.226 279.833 247.211 279.819 247.201C280.202 246.922 280.549 246.579 280.848 246.183C282.545 243.926 282.453 240.477 281.608 238.06C281.475 237.679 281.314 237.291 281.116 236.872C280.894 236.402 280.647 235.938 280.35 235.44C280.012 234.873 279.647 234.331 279.281 233.798C279.279 233.795 279.279 233.791 279.277 233.788L278.96 233.331C278.893 233.235 278.826 233.135 278.76 233.04L278.401 232.526C277.349 231.006 276.194 229.203 275.803 227.054C275.635 226.137 275.65 225.133 275.845 224.224C275.848 224.216 275.849 224.208 275.851 224.201C275.912 223.922 275.988 223.658 276.079 223.413C276.26 222.923 276.497 222.505 276.779 222.18C276.92 222.017 277.072 221.878 277.234 221.764C277.338 221.69 277.448 221.629 277.561 221.576C277.579 221.568 277.599 221.562 277.617 221.555C277.717 221.512 277.819 221.474 277.925 221.446C277.934 221.443 277.944 221.442 277.954 221.439C278.198 221.38 278.456 221.357 278.726 221.375C278.725 221.375 278.726 221.375 278.726 221.375ZM279.658 250.904C279.39 251.38 278.942 251.746 278.398 251.903C278.299 251.932 278.21 251.951 278.123 251.967C278.021 251.982 277.918 251.999 277.812 251.999C276.64 251.999 275.686 251.046 275.686 249.874C275.686 248.702 276.64 247.748 277.812 247.748C277.918 247.748 278.019 247.764 278.121 247.779C278.207 247.795 278.297 247.814 278.397 247.843C278.94 248 279.388 248.365 279.657 248.841C279.667 248.858 279.676 248.876 279.685 248.894C279.767 249.049 279.834 249.215 279.874 249.39C279.874 249.391 279.876 249.392 279.876 249.394C279.912 249.548 279.936 249.708 279.936 249.874C279.936 250.039 279.913 250.198 279.877 250.352C279.876 250.354 279.874 250.356 279.874 250.357C279.834 250.533 279.767 250.699 279.685 250.855C279.676 250.871 279.667 250.887 279.658 250.904ZM279.866 254.301C281.082 255.917 281.321 258.787 280.449 261.281C280.33 261.62 280.185 261.971 280.005 262.352C279.825 262.734 279.616 263.125 279.384 263.523V253.782C279.556 253.939 279.721 254.107 279.866 254.301ZM279.384 245.965V236.223C279.616 236.622 279.823 237.008 280.005 237.396C280.185 237.777 280.33 238.128 280.449 238.466C281.321 240.961 281.081 243.832 279.866 245.446C279.721 245.639 279.556 245.809 279.384 245.965ZM252.408 214.155C254.045 212.203 256.59 210.887 259.393 210.543C261.908 210.233 264.676 210.674 267.391 211.82C267.975 212.067 268.517 212.335 269.005 212.619C270.29 213.369 271.229 214.25 271.796 215.237C271.887 215.396 271.971 215.56 272.045 215.729C272.153 215.976 272.232 216.227 272.291 216.476C272.309 216.556 272.314 216.633 272.328 216.712C272.356 216.873 272.377 217.031 272.384 217.188C272.388 217.277 272.385 217.364 272.382 217.451C272.377 217.602 272.362 217.75 272.336 217.893C272.322 217.966 272.313 218.039 272.294 218.109C272.242 218.309 272.174 218.502 272.08 218.678C272.077 218.684 272.075 218.693 272.071 218.699C271.979 218.869 271.861 219.024 271.728 219.17C271.365 219.563 270.863 219.864 270.261 220.033C270.256 220.034 270.25 220.036 270.245 220.037C269.91 220.131 269.557 220.18 269.204 220.187C268.85 220.194 268.496 220.158 268.159 220.079C267.956 220.032 267.756 219.972 267.56 219.902C266.19 219.416 265.005 218.429 263.986 217.521L263.912 217.455L263.586 217.162C262.987 216.624 262.367 216.067 261.702 215.556C261.333 215.273 260.957 215.015 260.585 214.789C260.252 214.588 259.943 214.424 259.64 214.286C258.798 213.909 257.8 213.675 256.792 213.675C255.467 213.675 254.124 214.077 253.09 215.078C252.824 215.335 252.589 215.629 252.39 215.947C252.379 215.933 252.364 215.922 252.353 215.908C252.258 215.796 252.16 215.69 252.053 215.592C252.025 215.567 251.994 215.544 251.964 215.519C251.856 215.427 251.749 215.335 251.63 215.257C251.859 214.866 252.12 214.498 252.408 214.155ZM259.703 215.697H254.277C255.685 214.639 257.73 214.771 259.137 215.405C259.318 215.486 259.508 215.586 259.703 215.697ZM249.162 216.049C249.164 216.048 249.167 216.046 249.169 216.045C249.372 215.981 249.583 215.937 249.806 215.937C250.075 215.937 250.33 215.993 250.566 216.083C250.567 216.083 250.567 216.084 250.568 216.084C251.183 216.322 251.643 216.825 251.832 217.462V217.463C251.863 217.568 251.884 217.662 251.9 217.753C251.915 217.854 251.931 217.955 251.931 218.06C251.931 219.232 250.978 220.186 249.806 220.186C248.634 220.186 247.68 219.232 247.68 218.06C247.68 217.929 247.695 217.801 247.719 217.676C247.744 217.55 247.78 217.424 247.829 217.298C248.06 216.702 248.546 216.247 249.162 216.049ZM227.458 216.727C227.473 216.641 227.479 216.556 227.499 216.47C227.557 216.223 227.635 215.975 227.742 215.73C227.817 215.56 227.901 215.396 227.991 215.237C228.559 214.248 229.499 213.367 230.783 212.619C231.272 212.333 231.815 212.065 232.397 211.82C235.112 210.674 237.878 210.234 240.395 210.542C243.198 210.886 245.743 212.202 247.379 214.153C247.649 214.475 247.895 214.819 248.114 215.18C248.104 215.185 248.095 215.194 248.086 215.199C247.974 215.266 247.87 215.34 247.767 215.419C247.711 215.462 247.658 215.507 247.605 215.553C247.518 215.629 247.434 215.706 247.355 215.79C247.343 215.803 247.328 215.814 247.317 215.827C247.135 215.55 246.927 215.298 246.698 215.076C244.878 213.316 242.097 213.409 240.144 214.285C239.842 214.422 239.534 214.586 239.201 214.788C238.827 215.014 238.451 215.273 238.074 215.562C237.421 216.064 236.803 216.619 236.206 217.156L235.888 217.44L235.799 217.517C235.386 217.885 234.945 218.264 234.478 218.619C233.624 219.266 232.677 219.83 231.627 220.076C231.122 220.195 230.58 220.216 230.059 220.142C229.886 220.117 229.714 220.082 229.547 220.036C229.54 220.034 229.532 220.032 229.526 220.029C228.702 219.799 228.059 219.326 227.715 218.697C227.615 218.514 227.546 218.313 227.493 218.105C227.475 218.036 227.465 217.963 227.452 217.892C227.425 217.748 227.41 217.6 227.405 217.448C227.402 217.36 227.399 217.272 227.403 217.182C227.411 217.034 227.433 216.881 227.458 216.727ZM245.511 215.697H240.086C240.282 215.586 240.471 215.486 240.651 215.405C242.058 214.772 244.103 214.641 245.511 215.697ZM218.126 247.427C216.146 245.293 214.81 241.964 214.46 238.296C214.146 235.005 214.593 231.395 215.753 227.858C216.002 227.099 216.275 226.391 216.562 225.755C217.323 224.077 218.215 222.854 219.211 222.119C219.368 222.003 219.53 221.897 219.699 221.802C220.156 221.543 220.623 221.406 221.071 221.376C221.203 221.367 221.333 221.369 221.459 221.379C221.468 221.38 221.477 221.38 221.485 221.38C221.595 221.39 221.702 221.41 221.807 221.434C221.832 221.44 221.859 221.444 221.883 221.452C221.971 221.475 222.056 221.508 222.139 221.542C222.172 221.556 222.206 221.566 222.238 221.581C222.348 221.632 222.454 221.692 222.555 221.764C223.202 222.219 223.692 223.081 223.936 224.193C223.937 224.198 223.939 224.202 223.939 224.206C224.137 225.12 224.155 226.132 223.987 227.055C223.84 227.862 223.586 228.62 223.27 229.332C222.744 230.519 222.046 231.579 221.389 232.528L221.035 233.036C220.953 233.154 220.87 233.277 220.787 233.396L220.514 233.79C220.511 233.793 220.511 233.797 220.509 233.8C220.142 234.334 219.776 234.88 219.432 235.455C219.15 235.926 218.895 236.404 218.674 236.873C218.473 237.299 218.312 237.687 218.181 238.062C217.336 240.479 217.244 243.928 218.942 246.185C219.24 246.581 219.587 246.924 219.971 247.202C219.959 247.211 219.95 247.224 219.939 247.233C219.775 247.36 219.622 247.5 219.484 247.656C219.454 247.69 219.427 247.725 219.397 247.76C219.28 247.903 219.176 248.053 219.083 248.213C219.069 248.238 219.049 248.258 219.036 248.282C218.717 248.022 218.413 247.737 218.126 247.427ZM220.124 250.894C220.116 250.88 220.108 250.866 220.101 250.851C220.019 250.697 219.954 250.531 219.913 250.357C219.912 250.356 219.91 250.354 219.91 250.352C219.874 250.198 219.851 250.039 219.851 249.874C219.851 249.708 219.875 249.548 219.911 249.394C219.911 249.392 219.913 249.391 219.913 249.39C219.954 249.215 220.019 249.05 220.101 248.895C220.108 248.882 220.116 248.868 220.122 248.855C220.386 248.383 220.825 248.02 221.358 247.857C221.468 247.822 221.569 247.797 221.666 247.779C221.765 247.764 221.864 247.749 221.967 247.749C221.97 247.749 221.973 247.748 221.976 247.748C223.147 247.748 224.101 248.702 224.101 249.874C224.101 251.046 223.147 251.998 221.976 251.999C221.973 251.999 221.971 251.998 221.968 251.998C221.864 251.998 221.764 251.982 221.663 251.967C221.567 251.949 221.468 251.924 221.36 251.891C220.826 251.727 220.387 251.365 220.124 250.894ZM220.405 253.782V263.516C220.18 263.13 219.967 262.74 219.784 262.351C219.601 261.965 219.456 261.616 219.339 261.281C218.467 258.786 218.707 255.916 219.923 254.301C220.068 254.107 220.233 253.938 220.405 253.782ZM219.923 245.446C218.707 243.831 218.467 240.961 219.339 238.465C219.456 238.132 219.601 237.782 219.784 237.395C219.964 237.01 220.174 236.619 220.405 236.223V245.965C220.233 245.809 220.068 245.639 219.923 245.446ZM221.423 278.371C221.308 278.379 221.191 278.38 221.07 278.371C220.622 278.341 220.155 278.203 219.698 277.945C219.529 277.85 219.367 277.744 219.21 277.629C218.212 276.893 217.321 275.669 216.562 273.992C216.274 273.358 216.001 272.65 215.752 271.889C214.592 268.352 214.145 264.742 214.46 261.451C214.81 257.783 216.146 254.454 218.125 252.32C218.413 252.01 218.717 251.724 219.033 251.466C219.048 251.492 219.069 251.514 219.085 251.54C219.177 251.698 219.28 251.845 219.395 251.986C219.424 252.022 219.452 252.058 219.483 252.093C219.622 252.249 219.775 252.39 219.941 252.518C219.951 252.526 219.959 252.538 219.97 252.546C219.587 252.825 219.24 253.167 218.941 253.563C217.243 255.82 217.335 259.269 218.18 261.686C218.31 262.061 218.472 262.45 218.673 262.875C218.895 263.348 219.15 263.826 219.438 264.307C219.777 264.873 220.141 265.415 220.507 265.948C220.51 265.951 220.511 265.956 220.513 265.959L220.85 266.444C220.91 266.53 220.97 266.619 221.029 266.704L221.388 267.22C222.44 268.739 223.595 270.54 223.987 272.692C224.155 273.616 224.138 274.628 223.939 275.541C223.938 275.546 223.937 275.552 223.936 275.558C223.691 276.668 223.201 277.529 222.555 277.984C222.453 278.055 222.347 278.115 222.237 278.168C222.196 278.187 222.151 278.2 222.107 278.218C222.036 278.246 221.965 278.275 221.891 278.295C221.85 278.307 221.807 278.312 221.765 278.322C221.679 278.341 221.592 278.358 221.502 278.366C221.476 278.37 221.45 278.37 221.423 278.371ZM247.379 285.641C245.744 287.592 243.198 288.908 240.395 289.252C237.878 289.56 235.111 289.12 232.397 287.975C231.815 287.73 231.273 287.462 230.784 287.176C229.499 286.427 228.559 285.546 227.991 284.557C227.901 284.399 227.817 284.233 227.743 284.066C227.635 283.82 227.557 283.572 227.499 283.324C227.479 283.239 227.473 283.155 227.459 283.071C227.433 282.916 227.412 282.76 227.405 282.609C227.401 282.52 227.404 282.432 227.407 282.345C227.412 282.193 227.428 282.045 227.453 281.901C227.466 281.83 227.476 281.757 227.494 281.688C227.548 281.48 227.617 281.279 227.717 281.097C228.058 280.472 228.696 280 229.514 279.767C229.52 279.765 229.526 279.764 229.532 279.762C230.203 279.575 230.949 279.558 231.628 279.717C233.05 280.05 234.285 280.964 235.354 281.884C235.507 282.015 235.655 282.146 235.801 282.276L236.216 282.647C236.81 283.18 237.425 283.732 238.085 284.239C238.457 284.525 238.833 284.782 239.202 285.006C239.539 285.211 239.848 285.375 240.146 285.509C242.096 286.383 244.877 286.479 246.698 284.718C246.963 284.461 247.198 284.168 247.397 283.849C247.409 283.865 247.425 283.877 247.438 283.892C247.531 284.001 247.627 284.106 247.732 284.202C247.763 284.231 247.797 284.255 247.829 284.282C247.935 284.372 248.04 284.462 248.158 284.539C247.929 284.927 247.668 285.296 247.379 285.641ZM240.086 284.099H245.512C244.104 285.157 242.057 285.023 240.651 284.391C240.472 284.311 240.283 284.211 240.086 284.099ZM250.626 283.746C250.624 283.747 250.621 283.749 250.619 283.75C250.416 283.814 250.205 283.858 249.982 283.858C249.713 283.858 249.458 283.802 249.221 283.712C249.22 283.712 249.22 283.711 249.219 283.711C248.604 283.473 248.144 282.971 247.955 282.333V282.332C247.925 282.23 247.904 282.136 247.888 282.047C247.873 281.944 247.857 281.842 247.857 281.735C247.857 280.563 248.809 279.609 249.982 279.609C251.154 279.609 252.107 280.563 252.107 281.735C252.107 281.866 252.092 281.995 252.068 282.12C252.043 282.246 252.007 282.373 251.958 282.499C251.727 283.094 251.241 283.549 250.626 283.746ZM272.328 283.083C272.314 283.163 272.309 283.24 272.291 283.321C272.232 283.569 272.153 283.82 272.045 284.067C271.971 284.236 271.887 284.399 271.797 284.558C271.229 285.546 270.29 286.427 269.005 287.177C268.517 287.462 267.974 287.73 267.391 287.975C264.676 289.12 261.909 289.561 259.393 289.253C256.59 288.909 254.044 287.593 252.409 285.642C252.139 285.32 251.893 284.976 251.674 284.615C251.684 284.61 251.693 284.602 251.702 284.596C251.814 284.529 251.918 284.455 252.021 284.376C252.076 284.333 252.129 284.288 252.183 284.242C252.269 284.166 252.354 284.089 252.432 284.005C252.444 283.992 252.459 283.982 252.47 283.968C252.653 284.245 252.861 284.497 253.09 284.72C254.911 286.482 257.692 286.384 259.64 285.511C259.939 285.377 260.248 285.212 260.586 285.008C260.952 284.786 261.329 284.528 261.645 284.28C261.665 284.267 261.696 284.247 261.714 284.232C262.364 283.732 262.981 283.178 263.577 282.644L263.987 282.278C265.153 281.238 266.533 280.099 268.162 279.718C268.841 279.56 269.585 279.575 270.257 279.763C270.265 279.766 270.274 279.768 270.28 279.77C271.096 280.004 271.731 280.475 272.072 281.099C272.075 281.106 272.077 281.114 272.081 281.12C272.175 281.296 272.243 281.488 272.295 281.689C272.313 281.759 272.323 281.833 272.336 281.905C272.361 282.048 272.376 282.196 272.382 282.346C272.385 282.434 272.388 282.521 272.384 282.61C272.377 282.765 272.355 282.924 272.328 283.083ZM254.276 284.099H259.703C259.505 284.211 259.316 284.311 259.137 284.39C257.73 285.023 255.684 285.156 254.276 284.099ZM278.157 282.872H273.603C273.606 282.841 273.603 282.812 273.605 282.781C273.616 282.625 273.62 282.469 273.615 282.316C273.613 282.251 273.607 282.187 273.603 282.122C273.594 281.994 273.579 281.868 273.558 281.744C273.548 281.677 273.536 281.61 273.522 281.544C273.495 281.416 273.46 281.291 273.421 281.167C273.405 281.115 273.391 281.062 273.372 281.01C273.309 280.837 273.237 280.668 273.149 280.509C272.646 279.588 271.738 278.905 270.593 278.583C270.586 278.581 270.579 278.579 270.573 278.577C270.357 278.518 270.135 278.472 269.91 278.439C269.685 278.407 269.458 278.389 269.23 278.384C268.774 278.375 268.317 278.42 267.88 278.523C267.426 278.629 266.99 278.783 266.571 278.973C265.312 279.544 264.2 280.443 263.17 281.36L263.074 281.446L262.935 281.569C262.446 282.005 261.943 282.454 261.433 282.872H253.282C253.251 282.809 253.216 282.747 253.189 282.681C253.2 282.645 253.204 282.609 253.214 282.574C253.238 282.483 253.261 282.392 253.276 282.298C253.31 282.11 253.333 281.922 253.333 281.734C253.333 279.885 251.829 278.381 249.981 278.381C248.132 278.381 246.629 279.885 246.629 281.734C246.629 281.977 246.657 282.212 246.707 282.441C246.692 282.486 246.675 282.531 246.657 282.575C246.626 282.66 246.593 282.745 246.555 282.827C246.548 282.842 246.539 282.857 246.531 282.872H238.354C237.844 282.454 237.341 282.005 236.852 281.569L236.811 281.533L236.618 281.36C235.493 280.359 234.177 279.271 232.582 278.719C232.362 278.642 232.137 278.576 231.908 278.523C231.033 278.318 230.075 278.336 229.209 278.578C229.204 278.58 229.2 278.581 229.195 278.582C228.908 278.663 228.637 278.766 228.382 278.89C227.62 279.261 227.016 279.818 226.639 280.509C226.552 280.667 226.48 280.835 226.417 281.007C226.396 281.062 226.382 281.12 226.364 281.178C226.326 281.297 226.293 281.417 226.266 281.541C226.251 281.61 226.239 281.678 226.228 281.749C226.208 281.87 226.194 281.993 226.185 282.118C226.18 282.185 226.174 282.252 226.172 282.319C226.167 282.47 226.172 282.622 226.182 282.776C226.185 282.809 226.181 282.84 226.185 282.872H221.632V279.588C221.638 279.587 221.643 279.585 221.649 279.585C221.762 279.573 221.873 279.553 221.983 279.53C222.039 279.519 222.094 279.507 222.15 279.493C222.238 279.47 222.326 279.444 222.412 279.415C222.496 279.386 222.577 279.353 222.658 279.318C222.72 279.291 222.782 279.266 222.843 279.236C222.987 279.163 223.128 279.082 223.261 278.988C224.162 278.356 224.828 277.227 225.138 275.81C225.139 275.801 225.141 275.794 225.143 275.787C225.372 274.723 225.39 273.548 225.195 272.474C225.04 271.619 224.777 270.814 224.446 270.049C223.894 268.775 223.153 267.612 222.398 266.524L221.819 265.689C221.756 265.6 221.695 265.509 221.633 265.419V253.204C221.683 253.21 221.73 253.202 221.78 253.205C221.846 253.209 221.909 253.225 221.977 253.225C222.037 253.225 222.093 253.21 222.152 253.207C222.291 253.201 222.426 253.188 222.56 253.166C222.631 253.154 222.699 253.137 222.768 253.12C222.928 253.082 223.082 253.037 223.233 252.975C223.279 252.957 223.321 252.935 223.366 252.914C223.522 252.842 223.673 252.764 223.815 252.67C223.857 252.643 223.894 252.611 223.935 252.581C224.069 252.484 224.197 252.384 224.315 252.268C224.364 252.22 224.406 252.165 224.452 252.114C224.55 252.006 224.647 251.899 224.73 251.779C224.786 251.697 224.829 251.607 224.879 251.521C224.938 251.418 225.001 251.318 225.049 251.209C225.104 251.083 225.14 250.949 225.179 250.815C225.204 250.732 225.238 250.653 225.256 250.567C225.304 250.343 225.331 250.111 225.331 249.872C225.331 249.635 225.305 249.404 225.257 249.181C225.231 249.054 225.183 248.937 225.143 248.816C225.114 248.728 225.094 248.635 225.057 248.55C224.982 248.375 224.888 248.213 224.787 248.055C224.774 248.034 224.765 248.012 224.751 247.992C224.282 247.29 223.56 246.788 222.711 246.605C222.675 246.597 222.639 246.589 222.602 246.582C222.45 246.555 222.295 246.539 222.137 246.534C222.083 246.532 222.032 246.518 221.977 246.518C221.909 246.518 221.846 246.534 221.779 246.537C221.729 246.542 221.683 246.533 221.633 246.539V234.329C221.709 234.219 221.783 234.109 221.859 234.001L222.398 233.226C223.606 231.481 224.78 229.553 225.196 227.274C225.39 226.2 225.372 225.022 225.143 223.957C225.141 223.951 225.14 223.945 225.139 223.94C224.829 222.523 224.163 221.393 223.262 220.76C223.13 220.667 222.991 220.587 222.848 220.514C222.785 220.482 222.72 220.457 222.655 220.428C222.578 220.395 222.501 220.362 222.422 220.335C222.334 220.304 222.244 220.279 222.154 220.256C222.101 220.242 222.048 220.23 221.994 220.219C221.883 220.195 221.771 220.176 221.657 220.164C221.65 220.163 221.643 220.161 221.635 220.161V216.923H226.188C226.185 216.955 226.188 216.984 226.186 217.015C226.176 217.17 226.172 217.325 226.176 217.478C226.178 217.545 226.184 217.611 226.189 217.676C226.199 217.802 226.212 217.925 226.233 218.048C226.244 218.118 226.256 218.186 226.27 218.254C226.296 218.378 226.33 218.498 226.368 218.617C226.386 218.674 226.401 218.733 226.422 218.789C226.485 218.961 226.557 219.129 226.643 219.287C227.144 220.203 228.045 220.884 229.181 221.208C229.189 221.21 229.197 221.213 229.204 221.215C229.43 221.278 229.663 221.325 229.899 221.357C229.988 221.37 230.079 221.371 230.169 221.38C230.317 221.393 230.463 221.407 230.612 221.409C230.633 221.409 230.654 221.413 230.675 221.413C230.81 221.413 230.945 221.4 231.08 221.39C231.142 221.385 231.204 221.386 231.266 221.38C231.485 221.356 231.702 221.321 231.913 221.272C233.729 220.847 235.25 219.658 236.622 218.436L236.824 218.255C237.323 217.81 237.838 217.352 238.359 216.923H246.51C246.541 216.986 246.575 217.048 246.603 217.114C246.592 217.149 246.588 217.185 246.578 217.221C246.554 217.313 246.531 217.403 246.515 217.497C246.481 217.685 246.458 217.873 246.458 218.061C246.458 219.91 247.962 221.414 249.811 221.414C251.659 221.414 253.163 219.91 253.163 218.061C253.163 217.818 253.135 217.584 253.086 217.355C253.102 217.309 253.12 217.263 253.137 217.217C253.169 217.134 253.2 217.049 253.238 216.968C253.245 216.953 253.254 216.939 253.261 216.923H261.439C261.96 217.352 262.475 217.811 262.974 218.256L263.176 218.437C264.548 219.659 266.069 220.848 267.885 221.273C268.096 221.322 268.313 221.357 268.531 221.38C268.597 221.387 268.662 221.387 268.728 221.392C268.859 221.401 268.991 221.414 269.124 221.414C269.143 221.414 269.164 221.41 269.183 221.41C269.339 221.408 269.493 221.393 269.648 221.379C269.731 221.371 269.815 221.37 269.896 221.358C270.133 221.326 270.366 221.279 270.593 221.216C270.599 221.214 270.606 221.212 270.611 221.21C271.749 220.888 272.651 220.206 273.154 219.287C273.241 219.129 273.313 218.961 273.376 218.788C273.396 218.735 273.409 218.679 273.427 218.625C273.465 218.503 273.5 218.38 273.526 218.253C273.54 218.187 273.552 218.12 273.562 218.052C273.583 217.928 273.598 217.802 273.607 217.674C273.612 217.61 273.616 217.545 273.618 217.48C273.623 217.326 273.619 217.17 273.608 217.014C273.606 216.984 273.609 216.955 273.607 216.923H278.16V220.16C278.153 220.161 278.148 220.162 278.142 220.163C278.026 220.176 277.912 220.195 277.799 220.219C277.745 220.23 277.694 220.242 277.641 220.255C277.551 220.279 277.461 220.304 277.372 220.335C277.291 220.363 277.214 220.396 277.136 220.429C277.072 220.457 277.008 220.482 276.945 220.514C276.801 220.587 276.662 220.667 276.53 220.76C275.634 221.391 274.971 222.512 274.658 223.918C274.657 223.927 274.654 223.936 274.653 223.945C274.42 225.014 274.4 226.196 274.597 227.274C274.651 227.572 274.718 227.864 274.796 228.149C275.339 230.143 276.41 231.802 277.394 233.226L277.511 233.393L277.919 233.981C277.999 234.096 278.079 234.214 278.159 234.33V246.542C278.11 246.537 278.064 246.546 278.014 246.542C277.947 246.537 277.883 246.521 277.814 246.521C277.749 246.521 277.69 246.537 277.626 246.54C277.498 246.546 277.372 246.558 277.247 246.578C277.163 246.593 277.081 246.612 276.999 246.633C276.853 246.669 276.711 246.71 276.574 246.766C276.514 246.789 276.457 246.819 276.398 246.847C276.255 246.914 276.116 246.985 275.985 247.071C275.933 247.105 275.885 247.145 275.835 247.183C275.711 247.274 275.59 247.368 275.48 247.476C275.426 247.529 275.38 247.589 275.328 247.646C275.235 247.75 275.142 247.853 275.063 247.967C275.004 248.051 274.96 248.142 274.91 248.231C274.852 248.333 274.789 248.431 274.742 248.539C274.687 248.664 274.652 248.797 274.613 248.929C274.589 249.013 274.554 249.093 274.536 249.179C274.488 249.404 274.461 249.636 274.461 249.874C274.461 250.11 274.488 250.34 274.534 250.562C274.565 250.715 274.62 250.857 274.671 251.002C274.693 251.063 274.706 251.129 274.731 251.188C275.142 252.166 275.998 252.897 277.057 253.132C277.107 253.143 277.156 253.155 277.206 253.164C277.349 253.189 277.493 253.203 277.641 253.209C277.699 253.212 277.754 253.226 277.813 253.226C277.88 253.226 277.943 253.21 278.01 253.206C278.06 253.203 278.108 253.211 278.158 253.205V265.418C278.055 265.567 277.953 265.718 277.85 265.865L277.393 266.524C276.267 268.149 275.03 270.084 274.595 272.474C274.399 273.552 274.419 274.735 274.651 275.803C274.653 275.81 274.654 275.818 274.656 275.825C274.81 276.521 275.051 277.146 275.363 277.678C275.367 277.684 275.368 277.692 275.373 277.698C275.423 277.784 275.488 277.851 275.543 277.932C275.658 278.103 275.77 278.279 275.901 278.425C276.094 278.641 276.304 278.83 276.528 278.988C276.662 279.082 276.802 279.162 276.946 279.235C277.008 279.266 277.071 279.291 277.134 279.318C277.214 279.353 277.294 279.386 277.376 279.414C277.463 279.444 277.551 279.47 277.641 279.493C277.695 279.507 277.749 279.519 277.805 279.53C277.915 279.553 278.027 279.573 278.14 279.585C278.146 279.586 278.152 279.588 278.158 279.588V282.872H278.157ZM284.036 271.889C283.787 272.65 283.515 273.357 283.227 273.992C282.466 275.669 281.575 276.893 280.579 277.628C280.422 277.744 280.259 277.849 280.09 277.945C279.632 278.204 279.164 278.342 278.715 278.371C278.59 278.38 278.468 278.378 278.349 278.37C278.332 278.368 278.315 278.368 278.297 278.366C278.195 278.357 278.096 278.338 277.999 278.316C277.968 278.308 277.937 278.304 277.906 278.296C277.82 278.273 277.738 278.24 277.656 278.207C277.622 278.193 277.587 278.183 277.553 278.167C277.443 278.114 277.335 278.054 277.233 277.982C276.585 277.526 276.093 276.661 275.849 275.545C275.848 275.539 275.847 275.532 275.845 275.527C275.649 274.616 275.633 273.61 275.801 272.692C275.898 272.154 276.044 271.638 276.224 271.143C276.763 269.658 277.61 268.359 278.4 267.22L278.566 266.98L278.763 266.697C278.809 266.632 278.854 266.563 278.901 266.497L279.274 265.958C279.277 265.954 279.277 265.949 279.281 265.946C279.648 265.412 280.013 264.867 280.358 264.291C280.641 263.818 280.895 263.34 281.115 262.874C281.312 262.454 281.473 262.066 281.608 261.685C282.453 259.269 282.545 255.819 280.847 253.562C280.548 253.165 280.201 252.823 279.817 252.544C279.828 252.536 279.836 252.525 279.847 252.517C280.013 252.389 280.165 252.247 280.304 252.091C280.334 252.057 280.362 252.021 280.391 251.986C280.507 251.844 280.611 251.695 280.704 251.536C280.719 251.51 280.74 251.49 280.754 251.465C281.071 251.722 281.375 252.009 281.663 252.319C283.642 254.453 284.978 257.782 285.328 261.45C285.643 264.742 285.196 268.352 284.036 271.889Z" fill="black"/>
<path d="M270.473 224.381H229.317C228.978 224.381 228.703 224.656 228.703 224.994V274.801C228.703 275.14 228.978 275.415 229.317 275.415H270.472C270.811 275.415 271.086 275.14 271.086 274.801V224.994C271.087 224.656 270.812 224.381 270.473 224.381ZM269.86 274.188H229.93V225.608H269.859V274.188H269.86Z" fill="black"/>
<path d="M234.054 261.182L248.042 269.257C248.613 269.587 249.254 269.751 249.894 269.751C250.535 269.751 251.175 269.587 251.747 269.257L265.735 261.182C266.877 260.523 267.587 259.293 267.587 257.974V241.822C267.587 240.504 266.878 239.274 265.735 238.615L251.747 230.539C250.605 229.878 249.185 229.88 248.043 230.539L234.055 238.615C232.913 239.274 232.203 240.504 232.203 241.822V257.974C232.203 259.293 232.912 260.523 234.054 261.182ZM233.43 241.822C233.43 240.941 233.904 240.119 234.668 239.678L248.657 231.601C249.039 231.381 249.466 231.271 249.896 231.271C250.324 231.271 250.752 231.381 251.134 231.601L265.122 239.678C265.886 240.119 266.361 240.941 266.361 241.822V257.974C266.361 258.857 265.886 259.679 265.122 260.119L251.132 268.195C250.369 268.636 249.42 268.636 248.656 268.195L234.668 260.119C233.904 259.679 233.429 258.857 233.429 257.974V241.822H233.43Z" fill="black"/>
<path d="M240.882 252.665C240.908 252.665 240.935 252.664 240.962 252.66C241.182 252.632 241.4 252.589 241.616 252.538C242.699 256.161 245.995 258.71 249.822 258.8C249.891 258.801 249.96 258.802 250.029 258.802C254.099 258.802 257.681 255.966 258.595 251.989C258.671 251.658 258.465 251.329 258.135 251.253C257.805 251.179 257.476 251.384 257.4 251.714C256.601 255.194 253.425 257.641 249.851 257.573C246.542 257.494 243.694 255.279 242.778 252.136C243.054 252.012 243.325 251.876 243.58 251.716C243.866 251.534 243.952 251.155 243.771 250.869C243.59 250.583 243.213 250.497 242.925 250.678C242.286 251.081 241.552 251.345 240.804 251.443C240.468 251.487 240.231 251.796 240.275 252.131C240.315 252.439 240.578 252.665 240.882 252.665Z" fill="black"/>
<path d="M254.069 245.458C255.477 245.458 256.703 244.458 256.985 243.08C257.052 242.749 256.839 242.424 256.507 242.356C256.176 242.285 255.851 242.502 255.783 242.834C255.617 243.643 254.896 244.231 254.068 244.231C253.268 244.231 252.571 243.691 252.372 242.918C252.287 242.59 251.953 242.395 251.625 242.477C251.297 242.562 251.099 242.897 251.184 243.225C251.523 244.539 252.709 245.458 254.069 245.458Z" fill="black"/>
<path d="M246.114 245.458C247.524 245.458 248.751 244.458 249.03 243.08C249.098 242.748 248.884 242.423 248.553 242.356C248.22 242.285 247.896 242.503 247.829 242.834C247.664 243.644 246.942 244.231 246.114 244.231C245.314 244.231 244.617 243.691 244.419 242.919C244.334 242.59 243.994 242.395 243.672 242.477C243.344 242.562 243.146 242.896 243.23 243.224C243.569 244.539 244.755 245.458 246.114 245.458Z" fill="black"/>
</g>
</g>
<defs>
<clipPath id="clip0_640_1970">
<rect width="500" height="500" fill="white"/>
</clipPath>
<clipPath id="clip1_640_1970">
<rect width="81.793" height="81.793" fill="white" transform="translate(209 209)"/>
</clipPath>
</defs>
</svg>
