<?xml version="1.0" encoding="utf-8"?>
<!-- Generator: Adobe Illustrator 26.1.0, SVG Export Plug-In . SVG Version: 6.00 Build 0)  -->
<svg version="1.1" id="Layer_1" xmlns="http://www.w3.org/2000/svg" xmlns:xlink="http://www.w3.org/1999/xlink" x="0px" y="0px"
	 viewBox="0 0 500 500" style="enable-background:new 0 0 500 500;" xml:space="preserve">
<path d="M497.22,212.65l-0.05-0.32l-1.38,0.05c0,0-0.03,0.42-0.04,0.46l-0.46,0.02c-0.6,7.76-1.87,15.13-3.77,21.9
	c-4.66,16.67-12.47,33.51-21.98,47.42c-10.52,15.4-22.77,26.81-35.43,33c-7.9,3.87-15.73,6.71-23.27,8.44
	c-5.85,1.32-11.62,1.98-17.13,1.98c-19.1,0-36.6-8.04-50.62-23.24c-21.67-23.51-34.22-63.92-31.23-100.57
	c1.04-12.82,3.09-24.75,5.07-36.28c4.21-24.48,7.84-45.62,1.05-67.72c-3.64-11.84-11.33-21.02-21.67-25.86
	c-7.04-3.3-14.39-4.97-21.86-4.97c-24.01,0-43.82,16.91-53.48,31.39c-14.75,22.11-22.1,49.95-20.15,76.37
	c1.82,24.73,10.39,41.03,23.25,63.1c6.45,11.06,13.17,20.83,19.11,29.46c10.04,14.6,18.71,27.21,22.99,41.04
	c5.93,19.17,1.81,28.39-0.24,31.47c-2.53,3.8-6.59,5.99-12.08,6.51c-0.7,0.07-1.39,0.1-2.06,0.1c-16.76,0-17.08-22.88-17.27-36.56
	l0-0.31c-0.01-0.9-0.03-1.76-0.04-2.58c-0.57-26.79-10.86-42.8-23.9-63.08c-8.18-12.72-17.45-27.13-25.59-46.76
	c-13.02-31.36-16.29-61.61-9.71-89.9c0.23-1.01,0.48-2.02,0.74-3.04c7.99-31.49,27.74-71.82,76.42-85.11
	c9.22-2.52,18.69-3.8,28.14-3.8c28.62,0,53.55,11.78,68.39,32.31c12.01,16.61,18.2,35.44,18.94,57.56
	c0.18,5.26,0.04,10.77-0.41,16.38c-1.05,12.65-3.73,26.52-8.18,42.39c-9,32.08-11.18,59.26-6.47,80.77
	c3.61,16.5,11.5,29.07,21.64,34.48c8.22,4.38,16.98,6.6,26.03,6.6c23.12,0,44.18-14.75,54.8-29.36c16.7-22.98,25.5-63.5,24.06-87.87
	c-0.53-8.94-1.29-16.51-2.34-23.21l-0.03-0.1l-0.02-0.05c-19.76-42.73-51.1-78.95-90.63-104.74C345.81,13.99,298.65,0,250,0
	C183.22,0,120.44,26,73.22,73.22C26.01,120.44,0,183.22,0,250c0,19.41,2.24,38.77,6.67,57.56l0.08,0.33l1.39-0.2
	c0,0-0.02-0.41-0.03-0.44l0.46-0.07c-0.86-14.88,0.49-29.21,3.91-41.44c4.66-16.66,12.47-33.51,21.98-47.42
	c10.52-15.39,22.77-26.81,35.43-33c7.84-3.84,15.63-6.67,23.14-8.41c5.9-1.34,11.72-2.01,17.28-2.01c19.1,0,36.61,8.03,50.62,23.23
	c21.67,23.5,34.22,63.92,31.23,100.58c-1.04,12.83-3.09,24.75-5.08,36.28c-4.21,24.48-7.84,45.62-1.05,67.72
	c3.63,11.84,11.33,21.02,21.67,25.86c7.04,3.3,14.39,4.97,21.86,4.97c24.01,0,43.82-16.91,53.48-31.4
	c14.75-22.11,22.1-49.95,20.15-76.37c-1.82-24.72-10.39-41.03-23.25-63.1c-6.43-11.03-13.16-20.82-19.1-29.46
	c-10.04-14.6-18.71-27.21-22.99-41.05c-5.93-19.17-1.81-28.39,0.23-31.46c2.53-3.8,6.59-5.99,12.08-6.51c0.7-0.07,1.4-0.1,2.06-0.1
	c16.76,0,17.08,22.86,17.27,36.51l0.01,0.39c0.01,0.89,0.03,1.73,0.04,2.54c0.57,26.79,10.86,42.8,23.9,63.08
	c8.18,12.72,17.45,27.14,25.59,46.76c12.61,30.36,16.07,59.71,10.3,87.23c-0.16,0.76-0.33,1.52-0.5,2.28
	c-7.64,32.86-27.25,74.9-77.26,88.56c-9.22,2.52-18.69,3.79-28.14,3.8c-28.62,0-53.55-11.78-68.39-32.31
	c-12.01-16.61-18.2-35.44-18.94-57.56c-0.11-3.21-0.1-6.53,0.02-9.85c0.58-14.4,3.39-30.4,8.58-48.92
	c9-32.08,11.18-59.26,6.47-80.77c-3.61-16.51-11.5-29.07-21.64-34.48c-8.22-4.38-16.97-6.6-26.03-6.6
	c-23.11,0-44.18,14.75-54.8,29.36c-16.7,22.98-25.5,63.5-24.06,87.87c0.89,15.14,2.43,26.27,5.01,36.14l0.03,0.08l0.02,0.04
	C73.38,449.5,157.81,500,250,500c66.78,0,129.56-26,176.78-73.22C474,379.56,500,316.78,500,250
	C500,237.52,499.07,224.95,497.22,212.65z"/>
</svg>
