<svg width="500" height="500" viewBox="0 0 500 500" fill="none" xmlns="http://www.w3.org/2000/svg">
<g clip-path="url(#clip0_538_471)">
<rect width="500" height="500" fill="#E6FA36"/>
<path d="M330.37 394.04C337.5 363.39 332.75 332.34 320.56 302.98C299.69 252.71 271.96 236.98 271.04 193.35C270.74 178.99 271.83 150.37 250 152.46C229.33 154.44 231.89 177.91 236.39 192.45C243.37 215.01 261.62 234.09 278.74 263.47C291.56 285.46 300.05 301.56 301.86 326.12C303.74 351.61 296.77 379.5 281.9 401.79C268.11 422.46 238.48 441.97 208.19 427.78C197.15 422.61 190.41 413.05 187.24 402.74C177.31 370.38 190.2 338.76 193.44 298.98C198.84 232.74 154.17 141.87 68.2602 183.93C40.6702 197.44 19.0902 232.76 9.91024 265.56C6.57024 277.49 5.30024 290.26 5.68024 303.17C10.9002 327.25 19.5802 350.04 31.1802 370.99C28.0402 360.18 26.3402 347.95 25.4102 332.13C23.9102 306.64 33.3902 266.79 49.2602 244.95C63.9102 224.79 96.9602 205.77 128.45 222.56C145.08 231.43 162.9 265.34 142.95 336.47C132.16 374.93 126.99 418.19 153.51 454.87C175.81 485.72 216.61 493.61 251.84 483.99C295.9 471.94 320.35 437.17 330.37 394.04Z" fill="black"/>
<path d="M494.131 234.96C495.851 228.83 497.011 222.47 497.691 215.99C497.691 216.02 497.701 216.04 497.701 216.06C494.181 190.15 486.701 165.5 475.881 142.74C477.191 150.27 478.051 158.64 478.621 168.38C480.121 193.87 470.641 233.72 454.771 255.56C440.121 275.72 407.071 294.74 375.581 277.95C358.951 269.08 341.131 235.17 361.081 164.04C371.871 125.58 377.041 82.3202 350.521 45.6402C328.221 14.7902 287.421 6.90023 252.191 16.5202C208.131 28.5502 183.681 63.3202 173.661 106.45C166.531 137.1 171.281 168.15 183.471 197.51C204.341 247.78 232.071 263.51 232.991 307.14C233.291 321.5 232.201 350.12 254.031 348.03C274.701 346.05 272.141 322.58 267.641 308.05C260.661 285.49 242.411 266.41 225.291 237.03C212.471 215.04 203.981 198.94 202.161 174.38C200.281 148.89 207.251 121 222.121 98.7102C235.911 78.0402 265.541 58.5302 295.831 72.7202C306.871 77.8902 313.611 87.4502 316.781 97.7602C326.711 130.12 313.821 161.74 310.581 201.52C305.181 267.76 349.851 358.63 435.761 316.57C463.361 303.08 484.951 267.75 494.131 234.96Z" fill="black"/>
</g>
<defs>
<clipPath id="clip0_538_471">
<rect width="500" height="500" fill="white"/>
</clipPath>
</defs>
</svg>
