<svg width="256" height="256" viewBox="0 0 256 256" fill="none" xmlns="http://www.w3.org/2000/svg">
<g clip-path="url(#clip0_1239_2)">
<rect width="256" height="256" fill="white"/>
<path d="M180.953 96.0269H164.053C162.1 96.0269 160.227 95.1794 158.912 93.6861L152.056 85.8565C151.02 84.6861 149.585 84 148.03 84C146.476 84 145.041 84.6861 144.005 85.8565L138.106 92.5964C136.193 94.7758 133.403 96.0673 130.533 96.0673H38.0221C35.3915 103.614 33.6776 111.646 33 120H120.329C121.884 120 123.318 119.354 124.395 118.224L132.526 109.628C133.522 108.538 134.957 107.933 136.392 107.933H136.711C138.265 107.933 139.7 108.619 140.736 109.789L147.592 117.619C148.907 119.112 150.781 119.96 152.734 119.96H224C223.322 111.646 221.609 103.574 218.978 95.9865L180.953 96.0269Z" fill="black"/>
<path d="M85.6872 169.96C87.2462 169.96 88.6853 169.318 89.7646 168.196L97.9194 159.657C98.9588 158.575 100.358 157.973 101.837 157.973H102.157C103.716 157.973 105.195 158.655 106.194 159.777L113.07 167.555C114.389 169.038 116.268 169.88 118.227 169.88H215.125C218.763 162.343 221.401 154.285 223 145.826H129.979C128.02 145.826 126.141 144.984 124.822 143.501L117.947 135.804C116.907 134.641 115.468 134 113.909 134C112.35 134 110.871 134.682 109.872 135.804L103.956 142.499C102.037 144.704 99.2386 145.947 96.3204 145.947H34C35.599 154.405 38.2373 162.463 41.875 170L85.6872 169.96Z" fill="black"/>
<path d="M154.292 70C155.843 70 157.275 69.3673 158.348 68.2601L166.462 59.8377C167.456 58.77 168.888 58.1769 170.359 58.1769H170.677C172.228 58.1769 173.66 58.8491 174.694 59.9958L181.535 67.7066C182.847 69.1696 184.717 70 186.665 70H205C187.54 46.9074 159.78 32 128.52 32C97.2597 32 69.4596 46.9074 52 70H154.292Z" fill="black"/>
<path d="M117.398 193.735H92.1478C90.1839 193.735 88.3002 192.905 86.9775 191.443L80.0839 183.778C79.0418 182.632 77.5989 182 76.0358 182C74.4727 182 72.9898 182.672 71.9878 183.778L66.056 190.376C64.1322 192.549 61.3266 193.774 58.4008 193.774H58C75.5949 212.344 100.645 224 128.5 224C156.355 224 181.365 212.344 199 193.774L117.398 193.735Z" fill="black"/>
</g>
<defs>
<clipPath id="clip0_1239_2">
<rect width="256" height="256" fill="white"/>
</clipPath>
</defs>
</svg>
