<svg width="300" height="300" viewBox="0 0 300 300" fill="none" xmlns="http://www.w3.org/2000/svg">
<g clip-path="url(#clip0_528_466)">
<rect width="300" height="300" fill="#2C374B"/>
<mask id="mask0_528_466" style="mask-type:luminance" maskUnits="userSpaceOnUse" x="30" y="30" width="240" height="240">
<path d="M270 30H30V270H270V30Z" fill="white"/>
</mask>
<g mask="url(#mask0_528_466)">
<path d="M50.6582 101.921V196.001C50.6582 202.049 53.8262 207.521 59.1062 210.593L140.61 257.633C145.794 260.609 152.226 260.609 157.41 257.633L238.914 210.593C244.098 207.617 247.362 202.049 247.362 196.001V101.921C247.362 95.8726 244.194 90.4006 238.914 87.3286L157.41 40.2886C152.226 37.3126 145.794 37.3126 140.61 40.2886L59.1062 87.3286C53.9222 90.3046 50.7542 95.8726 50.7542 101.921H50.6582Z" fill="#213147"/>
<path d="M166.723 167.201L155.107 199.073C154.819 199.937 154.819 200.897 155.107 201.857L175.075 256.673L198.211 243.329L170.467 167.201C169.795 165.473 167.395 165.473 166.723 167.201Z" fill="#12AAFF"/>
<path d="M190.051 113.633C189.379 111.905 186.979 111.905 186.307 113.633L174.691 145.505C174.403 146.369 174.403 147.329 174.691 148.289L207.427 238.049L230.563 224.705L190.051 113.729V113.633Z" fill="#12AAFF"/>
<path d="M148.962 43.8409C149.538 43.8409 150.114 44.0329 150.594 44.3209L238.722 95.2009C239.778 95.7769 240.354 96.9289 240.354 98.0809V199.841C240.354 200.993 239.682 202.145 238.722 202.721L150.594 253.601C150.114 253.889 149.538 254.081 148.962 254.081C148.386 254.081 147.81 253.889 147.33 253.601L59.2018 202.721C58.1458 202.145 57.5698 200.993 57.5698 199.841V97.9849C57.5698 96.8329 58.2418 95.6809 59.2018 95.1049L147.33 44.2249C147.81 43.9369 148.386 43.7449 148.962 43.7449V43.8409ZM148.962 28.9609C145.794 28.9609 142.722 29.7289 139.842 31.3609L51.7138 82.2409C46.0498 85.5049 42.5938 91.4569 42.5938 97.9849V199.745C42.5938 206.273 46.0498 212.225 51.7138 215.489L139.842 266.369C142.626 268.001 145.794 268.769 148.962 268.769C152.13 268.769 155.202 268.001 158.082 266.369L246.21 215.489C251.874 212.225 255.33 206.273 255.33 199.745V97.9849C255.33 91.4569 251.874 85.5049 246.21 82.2409L157.986 31.3609C155.202 29.7289 152.034 28.9609 148.866 28.9609H148.962Z" fill="#9DCCED"/>
<path d="M90.5938 238.145L98.7537 215.873L115.074 229.409L99.8097 243.425L90.5938 238.145Z" fill="#213147"/>
<path d="M141.473 90.785H119.105C117.473 90.785 115.937 91.841 115.361 93.377L67.457 224.705L90.593 238.049L143.393 93.377C143.873 92.033 142.913 90.689 141.569 90.689L141.473 90.785Z" fill="white"/>
<path d="M180.642 90.785H158.274C156.642 90.785 155.106 91.841 154.53 93.377L99.8105 243.329L122.946 256.673L182.466 93.377C182.946 92.033 181.986 90.689 180.642 90.689V90.785Z" fill="white"/>
</g>
</g>
<defs>
<clipPath id="clip0_528_466">
<rect width="300" height="300" fill="white"/>
</clipPath>
</defs>
</svg>
