<svg width="256" height="256" viewBox="0 0 256 256" fill="none" xmlns="http://www.w3.org/2000/svg">
<g clip-path="url(#clip0_1239_2)">
<rect width="256" height="256" fill="#E84142"/>
<path d="M200.892 50.3271H55.7954V182.763H200.892V50.3271Z" fill="white"/>
<path fill-rule="evenodd" clip-rule="evenodd" d="M245.844 127.843C245.844 192.927 193.273 245.686 128.422 245.686C63.5715 245.686 11 192.927 11 127.843C11 62.7601 63.5715 10 128.422 10C193.273 10 245.844 62.7601 245.844 127.843ZM95.1478 174.739H72.3596C67.5711 174.739 65.2057 174.739 63.7635 173.813C62.2058 172.799 61.2539 171.12 61.1385 169.267C61.0519 167.56 62.2347 165.475 64.6 161.306L120.867 61.7717C123.261 57.5451 124.473 55.4317 126.002 54.6501C127.646 53.8106 129.607 53.8106 131.252 54.6501C132.781 55.4317 133.992 57.5451 136.386 61.7717L147.954 82.0363L148.013 82.1397C150.598 86.6741 151.91 88.9735 152.482 91.3869C153.117 94.0213 153.117 96.8005 152.482 99.4349C151.905 101.867 150.607 104.183 147.982 108.786L118.427 161.219L118.35 161.354C115.747 165.925 114.428 168.242 112.6 169.99C110.609 171.902 108.215 173.29 105.59 174.073C103.196 174.739 100.513 174.739 95.1478 174.739ZM152.696 174.739H185.349C190.166 174.739 192.589 174.739 194.033 173.785C195.59 172.771 196.57 171.062 196.658 169.211C196.741 167.558 195.584 165.554 193.317 161.628C193.238 161.494 193.16 161.358 193.08 161.22L176.724 133.139L176.538 132.823C174.24 128.922 173.08 126.952 171.59 126.191C169.946 125.351 168.012 125.351 166.369 126.191C164.869 126.973 163.657 129.028 161.263 133.168L144.965 161.249L144.909 161.346C142.523 165.479 141.331 167.544 141.417 169.239C141.532 171.092 142.484 172.799 144.042 173.813C145.455 174.739 147.879 174.739 152.696 174.739Z" fill="#E84142"/>
</g>
<defs>
<clipPath id="clip0_1239_2">
<rect width="256" height="256" fill="white"/>
</clipPath>
</defs>
</svg>
