<svg width="256" height="256" viewBox="0 0 256 256" fill="none" xmlns="http://www.w3.org/2000/svg">
<rect width="256" height="256" fill="black"/>
<mask id="mask0_647_17" style="mask-type:luminance" maskUnits="userSpaceOnUse" x="74" y="50" width="109" height="157">
<path d="M182.191 50H74V206.225H182.191V50Z" fill="white"/>
</mask>
<g mask="url(#mask0_647_17)">
<path fill-rule="evenodd" clip-rule="evenodd" d="M138.344 62.2837C144.064 62.2837 149.429 63.0449 154.397 64.4566C149.534 53.2043 139.436 50 128.198 50C116.938 50 106.822 53.2169 101.97 64.5229C106.901 63.0615 112.243 62.2837 117.943 62.2837H138.344ZM116.635 73.5806C89.4748 73.5806 74 94.7919 74 120.957V147.836C74 150.453 76.2018 152.523 78.9178 152.523H177.273C179.989 152.523 182.191 150.453 182.191 147.836V120.957C182.191 94.7919 164.196 73.5806 137.036 73.5806H116.635ZM128.057 121.19C137.563 121.19 145.27 113.54 145.27 104.103C145.27 94.6659 137.563 87.0157 128.057 87.0157C118.551 87.0157 110.845 94.6659 110.845 104.103C110.845 113.54 118.551 121.19 128.057 121.19ZM74 168.321C74 165.705 76.2018 163.583 78.9178 163.583H177.273C179.989 163.583 182.191 165.705 182.191 168.321V196.747C182.191 201.98 177.788 206.223 172.356 206.223H83.8356C78.4035 206.223 74 201.98 74 196.747V168.321Z" fill="#E33E3F"/>
</g>
</svg>
