<svg width="256" height="256" viewBox="0 0 256 256" fill="none" xmlns="http://www.w3.org/2000/svg">
<g clip-path="url(#clip0_1239_2)">
<rect width="256" height="256" fill="#F7931A"/>
<path d="M183.679 109.878C186.203 92.9809 173.357 83.8984 155.792 77.8394L161.49 54.9515L147.578 51.4798L142.031 73.7651C138.373 72.8516 134.617 71.9908 130.884 71.1375L136.471 48.7051L122.567 45.2334L116.866 68.1139C113.839 67.4238 110.866 66.7417 107.982 66.0231L107.998 65.9511L88.812 61.1532L85.111 76.0341C85.111 76.0341 95.4331 78.4035 95.2156 78.5494C100.849 79.9575 101.868 83.6923 101.699 86.6526L95.2082 112.727C95.5961 112.826 96.0993 112.969 96.6546 113.192C96.1904 113.077 95.6965 112.951 95.184 112.828L86.0859 149.355C85.3973 151.069 83.6497 153.641 79.7108 152.665C79.8502 152.867 69.5988 150.137 69.5988 150.137L62.6914 166.086L80.7965 170.606C84.1647 171.452 87.4654 172.337 90.7158 173.169L84.9586 196.319L98.8552 199.791L104.557 176.886C108.353 177.918 112.037 178.87 115.644 179.768L109.962 202.564L123.875 206.036L129.632 182.929C153.356 187.425 171.195 185.613 178.703 164.123C184.753 146.822 178.402 136.843 165.921 130.335C175.011 128.236 181.859 122.248 183.684 109.879L183.68 109.876L183.679 109.878ZM151.892 154.515C147.593 171.816 118.504 162.464 109.073 160.119L116.713 129.448C126.143 131.806 156.386 136.472 151.893 154.515H151.892ZM156.195 109.627C152.273 125.364 128.062 117.369 120.208 115.408L127.135 87.5922C134.989 89.5527 160.281 93.2118 156.196 109.627H156.195Z" fill="white"/>
</g>
<defs>
<clipPath id="clip0_1239_2">
<rect width="256" height="256" fill="white"/>
</clipPath>
</defs>
</svg>
