<svg width="256" height="256" viewBox="0 0 256 256" fill="none" xmlns="http://www.w3.org/2000/svg">
<g clip-path="url(#clip0_1239_2)">
<rect width="256" height="256" fill="#3CC194"/>
<path d="M190.545 158.382L190.164 158.79C187.822 161.159 184.99 163.038 181.886 164.264H181.723C178.864 165.38 175.814 165.952 172.764 165.952C168.271 166.034 163.832 165.081 159.775 163.147H159.53L158.931 162.848L158.767 162.766C155.01 160.751 151.933 157.674 149.89 153.916L149.509 153.235L141.204 162.14C141.204 162.14 139.543 170.663 138.808 174.829V175.101L138.998 175.292L139.107 175.428C147.549 184.686 159.503 189.942 172.029 189.942L172.709 189.969L173.254 189.996C181.45 189.996 189.511 187.9 196.672 183.924L196.89 183.815C200.838 181.582 204.46 178.805 207.619 175.564L208 175.156L190.545 158.382Z" fill="white"/>
<path d="M73.3457 117.155V117.319L76.7222 129.981L77.403 128.892C81.0519 123.609 86.6069 119.933 92.8971 118.707H93.1694C95.3751 118.244 97.6352 118.081 99.8953 118.19C103.299 118.408 106.594 119.388 109.589 121.022L109.834 121.158C113.946 123.473 117.595 126.55 120.563 130.226L121.053 130.852L129.005 119.66L131.537 107.842L131.265 107.625L130.366 106.835C125.165 102.042 119.011 98.4479 112.285 96.2423C108.664 95.153 104.906 94.554 101.148 94.4995H100.985C92.4614 94.5267 84.1017 96.6779 76.6133 100.735L76.3683 100.871L73.0189 115.875L73.3457 117.155Z" fill="white"/>
<path d="M147.766 149.423V149.206C147.821 148.28 147.603 144.631 147.549 142.507L147.603 141.935C147.494 136.298 149.318 130.798 152.831 126.386L152.94 126.223C153.458 125.57 153.975 124.97 154.547 124.371C159.121 119.661 165.384 116.992 171.947 116.992C172.982 116.992 174.044 117.046 175.078 117.155H175.242C180.633 117.863 185.644 120.314 189.538 124.099L189.946 124.508L206.747 107.57L206.339 107.162C197.843 98.911 186.679 94.0095 174.861 93.2743H174.697L171.511 93.1109C164.404 93.0564 157.379 94.418 150.816 97.1138C146.487 98.9654 142.484 101.552 139.053 104.766L138.862 104.929H138.644V105.038L138.508 105.147L138.317 105.31C137.119 106.481 136.003 107.734 134.995 109.068V109.177L132.272 121.022L123.313 133.385V142.017C123.232 151.575 117.731 160.234 109.099 164.346L108.936 164.427C105.777 165.843 102.373 166.578 98.915 166.606C85.2998 166.715 74.1081 155.931 73.7269 142.316L73.618 134.256L73.6452 133.739L69.2339 116.447L72.9645 100.409L72.556 75.2205L48.212 66.6157L49.1379 122.329V122.574L49.4646 142.398C49.4646 143.079 49.4919 143.759 49.5463 144.44C49.5191 144.549 49.5191 144.685 49.5191 144.794C50.4722 158.409 57.1436 170.99 67.8724 179.431L68.0358 179.567C76.8856 186.593 87.8867 190.378 99.1873 190.323L100.957 190.296L101.339 190.323C112.666 190.296 123.559 186.048 131.918 178.396L132.054 178.26C133.198 177.171 134.287 176 135.349 174.775L135.431 174.666L138.045 160.751L147.657 149.723L147.766 149.423Z" fill="white"/>
</g>
<defs>
<clipPath id="clip0_1239_2">
<rect width="256" height="256" fill="white"/>
</clipPath>
</defs>
</svg>
