<svg width="256" height="256" viewBox="0 0 256 256" fill="none" xmlns="http://www.w3.org/2000/svg">
<g clip-path="url(#clip0_1239_2)">
<rect width="256" height="256" fill="black"/>
<path d="M127.307 28C119.615 28 111.923 28.759 104.231 30.6565C104.231 31.0361 104.231 31.4156 104.231 31.7951V155.134C104.231 157.791 101.923 159.688 99.6153 159.688H90.3846C88.4616 159.688 86.9231 158.171 86.9231 156.273V35.9696C50.3846 51.1499 25 86.8235 25 127.81C25 183.218 70.7692 228 127.693 228C184.616 228 230 183.218 230 128.189C230 73.1612 183.846 28 127.307 28ZM125.385 169.556C125.385 171.832 123.462 173.73 121.154 173.73H111.923C109.615 173.73 107.692 171.832 107.692 169.556V106.178C107.692 103.901 109.615 102.004 111.923 102.004H121.154C123.462 102.004 125.385 103.901 125.385 106.178V169.556ZM146.154 175.628C146.154 177.905 144.231 179.803 141.923 179.803H132.693C130.385 179.803 128.462 177.905 128.462 175.628V100.106C128.462 97.8291 130.385 95.9316 132.693 95.9316H141.923C144.231 95.9316 146.154 97.8291 146.154 100.106V175.628ZM166.923 164.243C166.923 166.52 165 168.417 162.692 168.417H153.462C151.154 168.417 149.231 166.52 149.231 164.243V112.25C149.231 109.973 151.154 108.076 153.462 108.076H162.692C165 108.076 166.923 109.973 166.923 112.25V164.243Z" fill="#FF005C"/>
<path d="M127.307 28C119.615 28 111.923 28.759 104.231 30.6565C104.231 31.0361 104.231 31.4156 104.231 31.7951V155.134C104.231 157.791 101.923 159.688 99.6153 159.688H90.3846C88.4616 159.688 86.9231 158.171 86.9231 156.273V35.9696C50.3846 51.1499 25 86.8235 25 127.81C25 183.218 70.7692 228 127.693 228C184.616 228 230 183.218 230 128.189C230 73.1612 183.846 28 127.307 28ZM125.385 169.556C125.385 171.832 123.462 173.73 121.154 173.73H111.923C109.615 173.73 107.692 171.832 107.692 169.556V106.178C107.692 103.901 109.615 102.004 111.923 102.004H121.154C123.462 102.004 125.385 103.901 125.385 106.178V169.556ZM146.154 175.628C146.154 177.905 144.231 179.803 141.923 179.803H132.693C130.385 179.803 128.462 177.905 128.462 175.628V100.106C128.462 97.8291 130.385 95.9316 132.693 95.9316H141.923C144.231 95.9316 146.154 97.8291 146.154 100.106V175.628ZM166.923 164.243C166.923 166.52 165 168.417 162.692 168.417H153.462C151.154 168.417 149.231 166.52 149.231 164.243V112.25C149.231 109.973 151.154 108.076 153.462 108.076H162.692C165 108.076 166.923 109.973 166.923 112.25V164.243Z" fill="url(#paint0_linear_1239_2)" fill-opacity="0.4"/>
</g>
<defs>
<linearGradient id="paint0_linear_1239_2" x1="127.5" y1="28" x2="127.5" y2="228" gradientUnits="userSpaceOnUse">
<stop stop-color="#00E0FF"/>
<stop offset="1" stop-color="#00E0FF" stop-opacity="0"/>
</linearGradient>
<clipPath id="clip0_1239_2">
<rect width="256" height="256" fill="white"/>
</clipPath>
</defs>
</svg>
