<svg width="256" height="256" viewBox="0 0 256 256" fill="none" xmlns="http://www.w3.org/2000/svg">
<g clip-path="url(#clip0_2615_121)">
<mask id="mask0_2615_121" style="mask-type:luminance" maskUnits="userSpaceOnUse" x="0" y="0" width="256" height="256">
<path d="M256 0H0V256H256V0Z" fill="white"/>
</mask>
<g mask="url(#mask0_2615_121)">
<path d="M256 0H0V256H256V0Z" fill="#1B071C"/>
</g>
<path d="M126.452 159.89C107.832 159.89 92.6836 144.779 92.6836 126.206C92.6836 107.632 107.832 92.5215 126.452 92.5215C145.072 92.5215 160.22 107.632 160.22 126.206C160.22 144.779 145.072 159.89 126.452 159.89ZM126.452 95.1068C109.26 95.1068 95.269 109.06 95.269 126.215C95.269 143.37 109.26 157.314 126.452 157.314C143.644 157.314 157.635 143.361 157.635 126.215C157.635 109.07 143.644 95.1068 126.452 95.1068Z" fill="white"/>
<path fill-rule="evenodd" clip-rule="evenodd" d="M108.906 103.573C108.906 106.672 106.396 109.182 103.297 109.182C100.198 109.182 97.6875 106.672 97.6875 103.573C97.6875 100.474 100.198 97.9634 103.297 97.9634C106.396 97.9634 108.906 100.474 108.906 103.573Z" fill="white"/>
<path fill-rule="evenodd" clip-rule="evenodd" d="M127.713 158.602C127.713 161.701 125.202 164.211 122.104 164.211C119.005 164.211 116.494 161.701 116.494 158.602C116.494 155.503 119.005 153.002 122.104 153.002C125.202 153.002 127.713 155.513 127.713 158.602Z" fill="white"/>
<path fill-rule="evenodd" clip-rule="evenodd" d="M162.127 114.782C162.127 117.881 159.616 120.391 156.518 120.391C153.419 120.391 150.908 117.89 150.908 114.782C150.908 111.674 153.419 109.172 156.518 109.172C159.616 109.172 162.127 111.683 162.127 114.782Z" fill="white"/>
<path d="M135.673 144.863C137.997 143.706 140.079 142.138 141.805 140.234V112.616C140.079 110.703 138.007 109.126 135.673 107.968V125.058H117.072V108.09C114.757 109.284 112.694 110.899 110.986 112.84V128.128C110.986 128.548 111.07 128.95 111.22 129.323C111.378 129.696 111.593 130.023 111.864 130.294C112.134 130.565 112.461 130.789 112.834 130.947C113.208 131.115 113.618 131.199 114.048 131.199H135.664V144.873L135.673 144.863Z" fill="white"/>
<path d="M203.592 138.228H182.004C181.145 138.228 180.483 137.994 180.007 137.518C179.531 137.052 179.297 136.38 179.297 135.521V117.442C179.297 116.537 179.531 115.846 179.987 115.379C180.455 114.913 181.126 114.679 181.994 114.679H203.461C204.068 112.374 204.852 110.134 205.795 107.987H181.994C180.847 107.987 179.81 108.137 178.905 108.426C178 108.715 177.197 109.107 176.498 109.602C175.797 110.087 175.2 110.657 174.705 111.291C174.21 111.926 173.809 112.589 173.491 113.289C173.184 113.989 172.95 114.689 172.81 115.398C172.661 116.107 172.596 116.779 172.596 117.395V135.53C172.596 136.678 172.745 137.714 173.034 138.638C173.324 139.553 173.716 140.365 174.21 141.056C174.696 141.756 175.265 142.344 175.9 142.838C176.534 143.324 177.197 143.725 177.896 144.033C178.597 144.341 179.297 144.574 180.007 144.714C180.716 144.864 181.387 144.938 182.004 144.938H206C205.03 142.792 204.227 140.552 203.592 138.237V138.228Z" fill="white"/>
<path d="M203.109 129.837H181.959V123.089H203.109V129.837Z" fill="white"/>
<path d="M82.1192 138.228H60.3816C59.523 138.228 58.8603 137.994 58.3843 137.518C57.9176 137.052 57.6749 136.38 57.6749 135.521V117.442C57.6749 116.537 57.9083 115.846 58.3749 115.379C58.8416 114.913 59.5043 114.679 60.3816 114.679H81.9886C82.5952 112.374 83.3793 110.134 84.3219 107.987H60.3816C59.2336 107.987 58.1976 108.137 57.2923 108.426C56.3869 108.715 55.5842 109.107 54.8842 109.602C54.1842 110.097 53.5962 110.657 53.0922 111.291C52.5975 111.926 52.1962 112.589 51.8882 113.289C51.5802 113.989 51.3562 114.689 51.2069 115.398C51.0575 116.107 50.9922 116.779 50.9922 117.395V135.53C50.9922 136.678 51.1322 137.714 51.4309 138.638C51.7202 139.553 52.1122 140.365 52.6069 141.056C53.0922 141.756 53.6616 142.344 54.2962 142.838C54.9309 143.324 55.5936 143.725 56.2936 144.033C56.9936 144.341 57.6936 144.574 58.4029 144.714C59.1123 144.864 59.7843 144.938 60.4003 144.938H84.5459C83.5753 142.792 82.7726 140.552 82.1379 138.237L82.1192 138.228Z" fill="white"/>
</g>
<defs>
<clipPath id="clip0_2615_121">
<rect width="256" height="256" fill="white"/>
</clipPath>
</defs>
</svg>
