<svg xmlns="http://www.w3.org/2000/svg" id="CIRCLE_OUTLINE_BLACK" viewBox="0 0 512 512"><rect width="512" height="512" fill="#f3ff97"/><path d="M364.88441,307.73299l-6.56929,6.56929c-46.56818,34.73862-68.607,35.45496-93.99604,35.45496-27.66964,0-53.51797-7.77619-75.4906-21.26563-.94822-.58233-1.8879-1.17278-2.81947-1.77989-.04142-.02497-.09137-.05827-.1332-.08325-.88974-.5738-1.77136-1.15593-2.64445-1.75471-.56568-.38254-1.13096-.7736-1.69664-1.17278-2.0211-1.4138-4.00038-2.87754-5.93823-4.38291-.27452-.21604-.54863-.43228-.82314-.65685-.07513-.04995-.14985-.10822-.21645-.16629-.66517-.52406-1.3141-1.04811-1.96262-1.58862-.85685-.69847-1.70476-1.4138-2.53643-2.13724-.72365-.61563-1.43918-1.2475-2.14577-1.87978-.01665-.01665-.0333-.02477-.04183-.04142-.32406-.28284-.64852-.58233-.96446-.87329-.69035-.62375-1.3807-1.26415-2.0544-1.90455-.5738-.54883-1.13948-1.08953-1.69664-1.64669-.26599-.24954-.52385-.50741-.7736-.76507-.66517-.65705-1.32222-1.32243-1.97075-1.99613-.00853,0-.00853-.00832-.00853-.00832-.76507-.79004-1.52202-1.59674-2.27044-2.40343-.04142-.04162-.07472-.08325-.11655-.12467-.63187-.68203-1.25563-1.3807-1.87125-2.07917-.15797-.1665-.30741-.33279-.44873-.50741-.66558-.74862-1.3141-1.50537-1.9545-2.27044-.707-.83999-1.414-1.68831-2.09582-2.55328,0,0-.01665-.00832-.01665-.01665-.6404-.79004-1.27268-1.59674-1.8879-2.40343-.26599-.34091-.53238-.69035-.79837-1.03959-.29929-.39918-.59898-.79857-.88974-1.19776-.15837-.20792-.30781-.41583-.45766-.62375-.33259-.44893-.65705-.89806-.97299-1.3472-.20792-.28284-.40771-.56548-.6071-.85664-.34111-.47391-.66517-.95634-.98964-1.43045-.31634-.45746-.62375-.90659-.93157-1.36385-2.27856-3.40992-4.41621-6.92787-6.40401-10.53738-.28264-.5072-.55715-1.02294-.83167-1.53847-.76507-1.42212-1.50537-2.85277-2.21196-4.29987-.20792-.42416-.41583-.84812-.61563-1.27248-.29929-.6071-.59045-1.23085-.87309-1.84628-.22457-.48223-.44101-.95634-.65705-1.43877-.23309-.5072-.45726-1.02294-.68223-1.53847-.17462-.39918-.34924-.79837-.51533-1.19755-.15797-.36609-.31634-.7403-.46578-1.11451-.17462-.40751-.34111-.81502-.5072-1.22253-.1332-.32446-.26639-.65705-.39106-.98964-.14132-.35776-.28264-.707-.41583-1.06476-.21604-.5405-.42396-1.08933-.62375-1.63816-.41583-1.11451-.81502-2.23734-1.20608-3.35997-.16609-.48243-.33259-.96487-.49055-1.4473-.12467-.36589-.24122-.73177-.35736-1.10598l45.82463,45.82483c-3.24343-9.94673-5.30595-20.41731-6.02107-31.2623l-46.24899-46.24919c-.00853-.04975-.00853-.09137-.00853-.14132-.05807-.56548-.0999-1.13928-.14132-1.71329-.05807-.7068-.0999-1.40547-.14132-2.11247-.0999-1.61339-.17462-3.2351-.21645-4.85682-.01665-.56548-.0333-1.12283-.04142-1.68831-.00853-.78172-.01665-1.56364-.01665-2.34536,0-1.69664.0333-3.39307.08325-5.08159l46.7229,46.7233c.49908-7.49334,1.63004-14.80375,3.35185-21.88958l-47.48837-47.48817c.15797-.83167.32446-1.66334.5072-2.48688.04995-.24934.0999-.49055.15797-.7401.09178-.47411.1998-.93989.30781-1.39715.12467-.5738.25787-1.13948.39918-1.70496.00853-.04995.02518-.10822.04142-.15797.1665-.71532.34964-1.43045.53238-2.14577.10843-.39918.20792-.79837.31634-1.19755.10802-.39918.20792-.79004.32406-1.18923.15797-.57401.32446-1.14781.49908-1.72161.10802-.36609.21645-.73197.33259-1.09786l.00853.00832,48.04553,48.04553c2.18719-6.0296,4.79875-11.85128,7.80908-17.42342l-48.97669-48.97709c1.8879-4.13337,6.22087-12.07585,6.22087-12.07585l49.68369,49.68409c.23309-.35776,11.36885-7.13578,16.01815-9.23161,17.59784-7.95913,37.79098-12.47503,59.25641-12.47503,33.59934,0,64.0718,11.07768,86.40179,29.06679l13.31523,13.31503,36.56013-36.56013,12.59158-12.59158-45.61712-45.61691c-12.32559-13.12376-27.14579-23.92713-43.72109-31.66169-11.46834-5.36422-23.77728-9.25638-36.67627-11.43545l49.61709,49.61749c-6.00442-.8735-12.14204-1.414-18.39621-1.61359l-49.92531-49.92511c-1.83796-.07472-3.68403-.10802-5.53904-.10802-6.31224,0-12.52458.40751-18.61265,1.18923l49.84206,49.84186c-5.17316.59045-10.25454,1.42212-15.21126,2.47836l-49.58419-49.58399c-6.59487,1.56364-13.01554,3.59287-19.21163,6.0296l49.11841,49.11841c-4.5157,1.61339-8.89049,3.41805-13.11543,5.41417l-48.76877-48.76918c-5.4891,2.80282-10.77027,5.95488-15.81836,9.42287l48.34481,48.34481c-3.64261,2.35369-7.12726,4.86534-10.42916,7.52664l-48.14542-48.14522c-4.59083,3.79246-8.94856,7.86755-13.02366,12.20884l48.11172,48.11192c-2.95226,3.20201-5.67996,6.54533-8.15019,10.01333l-48.35334-48.35314c-2.03044,2.59166-3.96423,5.25823-5.81112,7.98634-2.19694,1.34415-5.45295,3.44241-7.00462,4.44707-39.87868,25.72366-66.28417,70.53388-66.28417,121.51523,0,47.31315,22.74582,89.31202,57.89966,115.66755l20.27761,20.27741c8.61598,11.49372,18.77874,21.66461,30.17236,30.17256,9.58937,7.16056,20.0433,13.14873,31.17134,17.74768l-50.36591-50.36571c7.68441,3.19348,15.70993,5.73843,23.99332,7.56806l50.28307,50.29119h.00812c8.99851,1.96262,18.30484,3.06048,27.83573,3.21013l-50.14094-50.13302c1.11431.02497,2.22861.04162,3.34333.04162,4.97336,0,9.88013-.24954,14.7203-.74842l49.9915,49.9915c7.06919-.78172,13.98893-2.09582,20.72553-3.89215l-49.78399-49.78379c4.74067-1.20588,9.38957-2.63633,13.93045-4.30799l49.64227,49.63394c5.81356-2.20384,11.46062-4.79042,16.89124-7.72624l-49.43435-49.44267c4.09175-2.12892,8.07547-4.45783,11.926-6.96929l49.30968,49.30948c6.1628-4.11672,12.00966-8.69922,17.49022-13.71401l-49.11841-49.11841c2.01176-1.79816,5.13336-4.51936,8.86856-7.78999l48.63314,48.63314.02477.02497,44.74403-44.74383-48.64451-48.6443Z" fill="#030206"/></svg>