<svg width="256" height="256" viewBox="0 0 256 256" fill="none" xmlns="http://www.w3.org/2000/svg">
<g clip-path="url(#clip0_1239_2)">
<circle cx="128" cy="128" r="98" fill="white"/>
<rect width="256" height="256" fill="#7B2BF9"/>
<path d="M125.002 0H130.899C131.099 0.049973 131.299 0.0999461 131.499 0.149919C132.648 0.199892 133.797 0.199892 134.947 0.299838C137.895 0.549703 140.844 0.699622 143.792 1.09941C147.49 1.59914 151.238 2.19881 154.936 2.94841C163.032 4.64749 170.927 7.14614 178.523 10.4444C214.804 26.0859 241.839 57.5689 251.784 95.7983C252.983 100.346 253.883 104.993 254.582 109.641C254.982 112.389 255.282 115.188 255.482 117.936C255.682 120.085 255.682 122.284 255.782 124.433C255.832 124.633 255.881 124.783 255.931 124.983V130.879C255.881 130.979 255.832 131.079 255.782 131.229C255.732 132.478 255.732 133.728 255.632 134.977C255.432 137.526 255.332 140.074 254.982 142.623C254.432 146.721 253.833 150.769 253.033 154.816C250.984 164.561 247.786 174.006 243.488 182.951C234.843 201.091 222.1 216.883 206.208 229.126C192.666 239.671 177.174 247.317 160.583 251.614C153.437 253.513 146.191 254.762 138.795 255.312C135.646 255.562 132.498 255.662 129.35 255.812C127.751 255.862 126.102 255.812 124.502 255.712C121.604 255.562 118.656 255.462 115.757 255.162C112.809 254.862 109.86 254.463 106.912 254.013C100.665 253.013 94.5186 251.564 88.5218 249.565C47.5939 236.372 16.1609 203.49 4.6671 162.112C2.51826 154.467 1.11901 146.671 0.519335 138.725C0.319443 135.777 0.119551 132.778 0.0196047 129.83C-0.0303684 128.081 0.0196047 126.282 0.119551 124.533C0.319443 121.135 0.469362 117.786 0.7692 114.438C1.06904 111.29 1.5188 108.092 2.0685 104.993C3.41777 97.3475 5.51664 89.8515 8.31513 82.6054C23.0572 43.8763 55.6396 14.6421 95.7679 4.19773C100.315 2.99838 104.963 2.09887 109.61 1.39924C112.359 0.99946 115.157 0.699622 117.906 0.49973C120.105 0.299838 122.304 0.299838 124.452 0.199892C124.702 0.0999461 124.852 0.049973 125.002 0ZM127.901 222.08C179.873 222.33 221.8 179.853 222.15 129.03C222.5 76.1589 180.172 34.4314 129.1 33.8817C75.5788 33.332 34.401 76.1089 33.8513 126.832C33.2517 180.203 76.5783 222.28 127.901 222.08Z" fill="#7B2BF9"/>
<path d="M127.901 222.08C76.5783 222.33 33.2517 180.253 33.8014 126.832C34.3511 76.1589 75.5289 33.332 129.05 33.8817C180.122 34.4314 222.45 76.1589 222.1 129.03C221.85 179.853 179.923 222.28 127.901 222.08ZM178.473 99.5462C178.174 99.2964 177.974 99.0965 177.774 98.9466C176.724 98.147 175.725 97.2975 174.675 96.4979C159.434 84.7043 142.043 75.909 123.503 70.6119C115.208 68.1632 106.662 66.714 98.0667 66.2642C94.8685 66.1143 91.6702 66.2642 88.4719 66.3642C85.3236 66.4641 82.1753 66.8639 79.077 67.5135C73.7299 68.613 68.6326 70.362 63.9851 73.2604C59.5875 75.959 55.9895 79.8069 53.6407 84.4544C51.1421 89.4017 50.6423 94.7488 51.1921 100.196C51.6418 104.144 52.6912 108.042 54.1904 111.69C56.789 118.236 60.487 124.133 64.7847 129.73C69.3323 135.577 74.4295 140.924 80.0265 145.721C81.5757 147.121 83.9244 147.221 85.5235 145.871C93.969 139.225 102.814 133.178 112.059 127.731C114.158 126.582 115.457 124.433 115.507 122.084C115.707 118.936 115.907 115.738 116.157 112.589C116.357 110.141 116.607 107.692 116.957 105.243C117.556 101.295 118.206 97.2975 119.005 93.3996C120.105 87.7526 121.604 82.1556 123.503 76.7086C123.803 75.4593 125.102 74.7097 126.351 75.0095C126.451 75.0595 126.551 75.0595 126.651 75.1094C127.551 75.4093 128.5 75.7091 129.4 76.009C131.099 76.5587 131.699 77.708 131.099 79.4071C128.25 88.0525 126.202 96.9477 125.052 105.943C124.502 110.191 124.103 114.438 123.753 118.686C123.503 122.284 123.453 125.932 123.353 129.53C123.303 131.579 123.403 133.678 123.453 135.727C123.453 136.876 123.503 137.976 123.553 139.125C123.803 142.873 124.003 146.621 124.353 150.319C124.602 153.167 124.952 156.016 125.402 158.864C126.052 162.812 126.901 166.76 127.701 170.708C128.151 172.807 127.301 174.506 125.302 175.355C123.853 175.955 122.404 176.505 120.954 177.104C118.906 177.954 116.557 177.904 114.608 176.905C107.262 173.506 100.166 169.708 93.2693 165.461C80.4263 157.315 68.8325 147.72 59.2877 135.777C54.4403 129.68 50.2925 123.134 47.2942 115.937C46.5446 114.088 45.8949 112.189 45.2453 110.29C45.0953 109.841 44.8455 109.441 44.3457 109.591C44.0459 109.691 43.7461 109.941 43.6461 110.24C42.5967 114.738 41.997 119.286 41.8471 123.883C41.7471 127.681 41.8471 131.529 42.097 135.327C42.2969 138.375 42.6966 141.374 43.2963 144.372C44.4957 150.919 46.4946 157.315 49.2431 163.362C51.1421 167.51 53.3409 171.507 55.8395 175.305C56.1894 176.055 56.9889 176.455 57.7885 176.355C58.5381 176.255 59.1877 175.705 59.3876 174.956C59.6875 174.306 59.9873 173.656 60.3371 173.007C63.4854 167.31 67.6332 162.362 72.2307 157.765C73.3301 156.715 75.0792 156.615 76.2785 157.565C76.7782 157.915 77.228 158.315 77.6778 158.664C79.027 159.664 79.3269 161.563 78.3274 162.912C78.2275 163.062 78.0775 163.212 77.9276 163.362C74.7793 166.46 71.9309 169.858 69.4322 173.456C67.6332 176.155 65.9841 178.953 65.2844 182.152C64.5349 185.45 65.5343 187.549 68.5827 188.948C70.8814 189.947 73.3301 190.497 75.8288 190.547C78.0775 190.647 80.3263 190.647 82.5251 190.447C86.0732 190.097 89.6713 189.698 93.1694 188.998C101.515 187.299 109.76 184.95 117.706 181.902C129.05 177.654 140.094 172.657 150.788 166.91C163.481 160.164 175.525 152.368 186.819 143.523C187.419 143.123 187.768 142.423 187.768 141.723C187.918 138.825 188.168 135.927 188.268 133.078C188.368 130.579 188.368 128.081 188.418 125.582C188.418 124.483 188.368 123.383 188.318 122.284C188.218 119.835 188.218 117.387 188.068 114.938C187.868 111.94 187.618 108.941 187.269 105.993C186.869 102.595 186.419 99.1465 185.869 95.7483C184.67 88.3523 182.771 81.1062 180.222 74.06C178.223 68.513 175.725 63.2159 172.327 58.4185C170.128 55.2702 167.579 52.3717 164.281 50.3228C160.533 47.9741 156.585 47.3244 152.337 48.9236C149.889 49.923 147.64 51.3723 145.741 53.2213C142.443 56.3196 139.894 60.0176 137.645 63.9655C136.846 65.4147 137.246 66.5641 138.795 67.1637C152.987 72.6608 166.38 80.1067 178.523 89.3018C180.422 90.701 181.722 92.7499 182.171 95.0487C182.571 97.0476 182.921 98.9966 183.171 100.995C183.571 104.244 181.872 106.842 178.923 107.592C169.828 109.891 160.933 112.839 152.287 116.387C144.442 119.585 136.746 123.183 129.25 127.131C127.751 127.881 126.651 127.181 126.651 125.532C126.701 124.233 126.801 122.984 126.801 121.684C126.801 119.935 127.551 118.836 129.2 118.086C133.997 115.887 138.695 113.539 143.492 111.44C153.137 107.142 163.082 103.594 173.276 100.796C175.025 100.396 176.674 99.996 178.473 99.5462ZM127.851 214.184C131.499 214.134 135.147 213.885 138.795 213.385C139.394 213.385 139.894 212.985 140.094 212.435C140.244 211.886 139.994 211.286 139.544 210.986C135.696 207.738 132.748 203.79 130.199 199.492C128.35 196.294 126.701 192.996 125.302 189.598C124.802 188.398 123.953 188.048 122.753 188.498C113.508 192.046 104.014 194.895 94.3188 196.894C90.3709 197.693 86.423 198.243 82.3752 198.493C81.7256 198.543 81.2258 198.693 81.026 199.342C80.8261 199.992 81.2258 200.392 81.7755 200.692C83.4247 201.691 85.0238 202.691 86.7229 203.64C96.6175 209.087 107.512 212.485 118.706 213.635C121.754 213.935 124.802 213.984 127.851 214.184ZM126.551 62.916C128.45 62.916 129.6 62.2164 130.349 60.8671C132.148 57.5189 134.297 54.3706 136.646 51.4222C138.445 49.1734 140.444 47.1745 142.693 45.3755C143.142 45.0757 143.342 44.526 143.192 43.9762C143.092 43.4765 142.643 43.0767 142.143 42.9768C141.843 42.9268 141.543 42.8768 141.243 42.8269C137.795 42.4771 134.397 42.0773 130.949 41.8774C128.5 41.7774 126.052 41.7774 123.603 41.9773C120.305 42.2272 117.056 42.527 113.808 42.9768C106.212 44.1761 98.7664 46.4249 91.7702 49.6732C86.9727 51.872 82.4252 54.5206 78.1275 57.5689C77.7277 57.8687 77.3779 58.1686 77.5778 58.7183C77.7777 59.218 78.2275 59.268 78.6772 59.168C82.4752 58.4684 86.2731 58.0686 90.121 57.9687C93.3693 57.9187 96.6175 58.0187 99.8658 58.1686C102.914 58.3685 105.962 58.6683 109.011 59.0681C114.108 59.7677 119.155 60.8172 124.103 62.2164C125.102 62.6162 125.952 62.8161 126.551 62.916ZM154.686 209.137C155.686 208.987 156.735 208.887 157.685 208.637C160.883 207.838 163.481 206.089 165.83 203.89C169.928 200.042 172.876 195.395 175.375 190.397C175.725 189.748 175.475 188.898 174.825 188.548C174.575 188.448 174.326 188.348 174.076 188.398C172.427 188.448 170.778 188.598 169.128 188.598C166.48 188.598 163.831 188.548 161.233 188.348C158.534 188.198 155.786 187.999 153.137 187.549C149.139 186.949 145.191 186.199 141.243 185.4C139.245 185 137.246 184.4 135.247 183.901C134.497 183.651 133.648 183.851 133.098 184.45C132.598 185.05 132.498 185.9 132.898 186.549C134.397 189.498 135.746 192.546 137.346 195.444C139.444 199.392 142.343 202.841 145.891 205.639C148.44 207.738 151.288 209.037 154.686 209.137ZM115.307 135.177C111.909 136.526 90.8207 151.218 89.4714 153.167C98.7664 159.864 108.761 165.461 119.305 169.958C116.807 158.514 115.507 146.871 115.307 135.177ZM166.93 180.702C168.679 180.652 170.428 180.603 172.177 180.503C173.926 180.403 175.625 180.103 177.374 180.003C179.323 179.903 180.372 178.903 180.972 177.104C183.171 170.308 184.87 163.362 186.019 156.316C186.119 155.816 186.119 155.366 185.669 155.066C185.22 154.816 184.82 155.016 184.42 155.316C182.971 156.366 181.522 157.415 180.023 158.414C169.928 165.311 159.384 171.557 148.49 177.104C148.04 177.304 147.69 177.604 147.74 178.104C147.79 178.654 148.24 178.853 148.739 178.953C154.736 180.053 160.833 180.652 166.93 180.702ZM209.607 150.419C209.507 148.97 209.457 147.47 209.207 146.021C208.807 143.722 208.357 141.474 207.758 139.225C207.358 137.726 205.659 137.376 204.509 138.425C202.061 140.724 199.562 143.023 197.113 145.322C196.214 146.071 195.614 147.071 195.314 148.22C195.064 149.319 194.914 150.469 194.765 151.618C194.215 154.966 193.815 158.315 193.115 161.613C192.316 165.661 191.266 169.658 190.317 173.656C190.017 174.556 190.517 175.555 191.416 175.855C191.866 176.005 192.366 175.955 192.816 175.705C193.215 175.505 193.565 175.305 193.965 175.155C198.063 173.007 201.661 170.258 204.409 166.51C207.857 161.863 209.706 156.216 209.607 150.419ZM206.358 97.4474C207.508 97.4974 208.107 96.6978 207.758 95.5984C207.708 95.3985 207.608 95.1986 207.508 94.9987C203.91 86.3534 198.912 78.3577 192.716 71.3115C190.967 69.3126 189.068 67.4636 187.219 65.6146C186.969 65.4147 186.619 65.3647 186.269 65.4646C185.919 65.6146 185.719 66.0144 185.869 66.3642C185.869 66.4141 185.869 66.4141 185.919 66.4641C186.069 66.7639 186.169 67.1138 186.269 67.4136C189.617 75.7091 192.066 84.3545 193.615 93.1997C193.915 95.3985 195.814 97.0476 198.063 96.9477C199.512 96.9477 201.011 96.9976 202.46 97.0976C203.76 97.1476 205.059 97.2975 206.358 97.4474ZM200.062 104.843C199.762 104.843 199.512 104.843 199.212 104.843C198.563 104.743 197.963 105.093 197.713 105.693C197.413 106.343 197.713 106.842 198.113 107.292C199.112 108.491 200.162 109.641 201.061 110.89C203.06 113.589 205.009 116.337 206.958 119.086C207.758 120.185 209.207 120.185 209.906 119.036C210.956 117.287 211.705 115.338 212.155 113.389C212.905 109.991 211.805 107.842 208.707 106.493C208.657 106.443 208.607 106.443 208.507 106.443C205.809 105.243 202.96 104.943 200.062 104.843ZM196.414 132.978H196.314C196.314 133.028 196.314 133.128 196.314 133.178C196.314 133.628 196.264 134.078 196.763 134.278C197.263 134.477 197.613 134.228 197.913 133.878C199.262 132.478 200.611 131.129 201.911 129.73C202.91 128.681 203.01 127.931 202.261 126.732C200.911 124.533 199.512 122.434 198.113 120.285C197.813 119.835 197.463 119.585 196.963 119.735C196.464 119.885 196.364 120.335 196.364 120.835C196.414 124.883 196.414 128.93 196.414 132.978ZM184.87 192.396C185.07 192.296 185.22 192.196 185.37 192.096C185.819 191.697 186.319 191.297 186.719 190.847C188.068 189.548 189.417 188.248 190.717 186.899C190.917 186.649 191.017 186.299 190.917 185.95C190.817 185.5 190.417 185.4 189.967 185.45C189.867 185.45 189.817 185.45 189.717 185.5C188.618 185.8 187.518 186.15 186.419 186.499C186.169 186.599 185.919 186.749 185.769 186.999C185.12 188.448 184.47 189.848 183.87 191.347C183.721 191.846 184.12 192.396 184.87 192.396ZM214.154 129.33C214.104 129.08 214.104 128.83 214.104 128.581C214.104 128.431 214.004 128.231 213.904 128.181C213.754 128.181 213.604 128.231 213.454 128.331C212.755 128.88 212.655 129.88 213.205 130.579C213.205 130.629 213.255 130.629 213.255 130.679C213.504 130.979 213.854 130.929 213.954 130.53C214.054 130.13 214.104 129.78 214.154 129.33Z" fill="white"/>
<path d="M178.473 99.5462C176.674 99.996 174.975 100.396 173.326 100.846C163.132 103.644 153.187 107.192 143.542 111.49C138.745 113.639 134.047 115.987 129.25 118.136C127.651 118.886 126.851 119.985 126.851 121.734C126.851 123.034 126.751 124.283 126.701 125.582C126.651 127.231 127.801 127.981 129.3 127.181C136.796 123.233 144.492 119.635 152.337 116.437C160.983 112.839 169.878 109.941 178.973 107.642C181.921 106.892 183.621 104.294 183.221 101.045C182.971 99.0465 182.621 97.0476 182.221 95.0986C181.772 92.7999 180.472 90.751 178.573 89.3517C166.43 80.1567 153.037 72.7107 138.845 67.2137C137.296 66.614 136.896 65.4147 137.695 64.0154C139.944 60.0675 142.493 56.4195 145.791 53.2712C147.69 51.4222 149.939 49.973 152.387 48.9735C156.585 47.3244 160.583 47.9741 164.331 50.3728C167.629 52.4716 170.178 55.3201 172.377 58.4684C175.775 63.3158 178.223 68.6129 180.272 74.11C182.821 81.1562 184.72 88.4023 185.919 95.7983C186.469 99.1964 186.919 102.595 187.319 106.043C187.668 109.041 187.918 111.99 188.118 114.988C188.268 117.437 188.318 119.885 188.368 122.334C188.418 123.433 188.468 124.533 188.468 125.632C188.468 128.131 188.418 130.629 188.318 133.128C188.218 136.027 187.968 138.925 187.818 141.773C187.818 142.473 187.468 143.173 186.869 143.572C175.575 152.418 163.481 160.213 150.838 166.96C140.194 172.707 129.1 177.704 117.756 181.952C109.76 185 101.565 187.349 93.2194 189.048C89.7212 189.748 86.1232 190.147 82.5751 190.497C80.3263 190.697 78.1275 190.747 75.8787 190.597C73.3801 190.547 70.9314 189.997 68.6326 188.998C65.5843 187.549 64.5848 185.45 65.3344 182.202C66.084 179.003 67.6831 176.205 69.4822 173.506C72.0308 169.908 74.8793 166.51 77.9776 163.412C79.2269 162.262 79.3269 160.363 78.1775 159.114C78.0276 158.964 77.8776 158.814 77.7277 158.714C77.278 158.315 76.8282 157.965 76.3285 157.615C75.1291 156.665 73.3801 156.765 72.2807 157.815C67.7331 162.412 63.5354 167.31 60.3871 173.057C60.0373 173.706 59.6875 174.356 59.4376 175.006C59.1877 175.755 58.5881 176.255 57.8385 176.405C57.0389 176.505 56.2393 176.105 55.8895 175.355C53.3909 171.557 51.192 167.56 49.2931 163.412C46.5446 157.365 44.5456 150.968 43.3463 144.422C42.7966 141.424 42.3968 138.425 42.1469 135.377C41.8971 131.579 41.7971 127.731 41.8971 123.933C42.047 119.336 42.6467 114.788 43.6961 110.29C43.796 109.991 44.0959 109.741 44.3957 109.641C44.8954 109.491 45.1453 109.891 45.2952 110.34C45.9949 112.239 46.5945 114.138 47.3441 115.987C50.3425 123.183 54.4903 129.73 59.3376 135.827C68.8825 147.77 80.4263 157.365 93.3193 165.511C100.166 169.758 107.312 173.606 114.658 176.954C116.657 177.954 118.955 178.004 121.004 177.154C122.454 176.555 123.903 176.005 125.352 175.405C127.351 174.556 128.2 172.857 127.751 170.758C126.951 166.81 126.152 162.912 125.452 158.914C124.952 156.066 124.652 153.217 124.403 150.369C124.053 146.621 123.853 142.923 123.603 139.175C123.553 138.025 123.503 136.926 123.503 135.777C123.453 133.728 123.353 131.629 123.403 129.58C123.503 125.982 123.553 122.334 123.803 118.736C124.103 114.488 124.502 110.24 125.102 105.993C126.252 96.9476 128.3 88.0524 131.149 79.4571C131.749 77.758 131.149 76.6086 129.45 76.0589C128.55 75.7591 127.651 75.4592 126.701 75.1594C125.502 74.6597 124.153 75.2593 123.653 76.4587C123.603 76.5586 123.603 76.6586 123.553 76.7585C121.704 82.2056 120.205 87.8026 119.055 93.4495C118.306 97.3974 117.606 101.345 117.007 105.293C116.657 107.742 116.407 110.19 116.207 112.639C115.957 115.787 115.757 118.936 115.557 122.134C115.507 124.483 114.158 126.682 112.109 127.781C102.864 133.228 94.0189 139.275 85.5735 145.921C83.9244 147.221 81.5756 147.171 80.0765 145.771C74.4795 140.974 69.3822 135.627 64.8347 129.78C60.537 124.233 56.889 118.286 54.2404 111.74C52.7412 108.042 51.6918 104.194 51.242 100.246C50.6423 94.7988 51.192 89.4517 53.6907 84.5044C56.0394 79.9068 59.5875 76.0089 64.0351 73.3104C68.6826 70.412 73.7799 68.6629 79.127 67.5635C82.2253 66.9138 85.3736 66.5141 88.5219 66.4141C91.7202 66.3142 94.9184 66.1643 98.1167 66.3142C106.762 66.7639 115.307 68.2131 123.553 70.6618C142.093 75.959 159.484 84.7542 174.725 96.5479C175.775 97.3474 176.774 98.197 177.824 98.9965C178.024 99.0965 178.174 99.2464 178.473 99.5462Z" fill="#7B2BF9"/>
<path d="M127.851 214.184C124.802 213.984 121.754 213.934 118.756 213.635C107.512 212.485 96.6674 209.087 86.7728 203.64C85.0737 202.741 83.4746 201.691 81.8255 200.692C81.3257 200.392 80.9259 199.992 81.0759 199.342C81.2758 198.693 81.7755 198.543 82.4251 198.493C86.423 198.243 90.4208 197.693 94.3687 196.894C104.063 194.895 113.558 192.096 122.803 188.498C124.003 188.048 124.852 188.398 125.352 189.598C126.751 192.996 128.4 196.294 130.249 199.492C132.798 203.79 135.746 207.738 139.594 210.986C140.094 211.286 140.294 211.886 140.144 212.435C139.944 212.985 139.444 213.385 138.845 213.385C135.147 213.835 131.499 214.134 127.851 214.184Z" fill="#7B2BF9"/>
<path d="M126.551 62.9158C126.002 62.7659 125.102 62.616 124.202 62.3661C119.255 61.0168 114.208 59.9674 109.111 59.2178C106.062 58.818 103.014 58.4682 99.9656 58.3183C96.7173 58.1184 93.4691 58.0184 90.2208 58.1184C86.3729 58.2183 82.525 58.6181 78.777 59.3177C78.2773 59.4177 77.8775 59.3677 77.6776 58.868C77.4777 58.3183 77.8275 58.0184 78.2273 57.7186C82.525 54.6703 87.0725 52.0217 91.8699 49.8229C98.8662 46.5746 106.262 44.2759 113.908 43.1265C117.156 42.6268 120.455 42.3269 123.703 42.127C126.151 41.9271 128.6 41.9271 131.049 42.0271C134.497 42.227 137.895 42.6268 141.343 42.9766C141.643 43.0265 141.943 43.0765 142.243 43.1265C142.792 43.1765 143.192 43.5762 143.292 44.1259C143.442 44.6756 143.242 45.2253 142.792 45.5252C140.544 47.3242 138.545 49.3231 136.746 51.5719C134.347 54.5203 132.248 57.7186 130.449 61.0168C129.6 62.2662 128.45 62.9158 126.551 62.9158Z" fill="#7B2BF9"/>
<path d="M154.686 209.137C151.288 209.037 148.44 207.688 145.841 205.689C142.343 202.891 139.444 199.442 137.296 195.495C135.646 192.596 134.297 189.548 132.848 186.599C132.448 185.95 132.498 185.1 133.048 184.5C133.598 183.901 134.447 183.651 135.197 183.951C137.196 184.451 139.195 185.05 141.193 185.45C145.141 186.25 149.139 186.999 153.087 187.599C155.786 187.999 158.484 188.198 161.183 188.398C163.831 188.548 166.48 188.598 169.078 188.648C170.728 188.648 172.377 188.498 174.026 188.448C174.775 188.398 175.425 188.948 175.525 189.698C175.525 189.948 175.475 190.197 175.375 190.447C172.876 195.445 169.878 200.092 165.83 203.94C163.481 206.139 160.883 207.938 157.685 208.687C156.735 208.887 155.686 208.987 154.686 209.137Z" fill="#7B2BF9"/>
<path d="M115.307 135.177C115.457 146.871 116.807 158.565 119.305 170.008C108.761 165.511 98.7663 159.864 89.4713 153.218C90.8206 151.219 111.909 136.527 115.307 135.177Z" fill="#7B2BF9"/>
<path d="M166.93 180.703C160.833 180.653 154.736 180.053 148.739 178.954C148.24 178.854 147.79 178.654 147.74 178.104C147.69 177.604 148.04 177.354 148.489 177.104C159.384 171.557 169.928 165.311 180.022 158.415C181.472 157.415 182.971 156.366 184.42 155.316C184.82 155.066 185.17 154.817 185.669 155.066C186.169 155.366 186.119 155.766 186.019 156.316C184.87 163.362 183.171 170.308 180.972 177.104C180.372 178.904 179.323 179.903 177.374 180.003C175.625 180.103 173.926 180.353 172.177 180.503C170.428 180.603 168.679 180.653 166.93 180.703Z" fill="#7B2BF9"/>
<path d="M209.607 150.419C209.657 156.215 207.858 161.862 204.409 166.51C201.661 170.258 198.063 173.006 193.965 175.155C193.565 175.355 193.215 175.555 192.816 175.705C191.966 176.155 190.917 175.855 190.467 175.055C190.217 174.605 190.167 174.106 190.317 173.656C191.266 169.658 192.266 165.66 193.115 161.612C193.765 158.314 194.215 154.966 194.765 151.618C194.964 150.468 195.064 149.319 195.314 148.22C195.614 147.12 196.264 146.071 197.113 145.321C199.562 143.023 202.061 140.724 204.509 138.425C205.609 137.376 207.358 137.725 207.758 139.225C208.357 141.473 208.807 143.722 209.207 146.021C209.507 147.47 209.507 148.969 209.607 150.419Z" fill="#7B2BF9"/>
<path d="M206.358 97.4473C205.059 97.3473 203.76 97.1474 202.41 97.0974C200.961 96.9975 199.462 96.9975 198.013 96.9475C195.764 97.0475 193.865 95.3984 193.565 93.1996C192.016 84.3543 189.567 75.759 186.219 67.4135C186.069 67.1136 185.969 66.7638 185.869 66.464C185.669 66.1142 185.819 65.6644 186.169 65.5145C186.219 65.5145 186.219 65.4645 186.269 65.4645C186.619 65.3646 186.969 65.4146 187.219 65.6144C189.068 67.4634 190.967 69.3124 192.716 71.3114C198.912 78.3076 203.96 86.3033 207.508 94.9986C207.608 95.1985 207.658 95.3984 207.758 95.5983C208.157 96.6977 207.508 97.4972 206.358 97.4473Z" fill="#7B2BF9"/>
<path d="M200.062 104.844C202.96 104.944 205.809 105.243 208.557 106.343C208.607 106.343 208.657 106.393 208.757 106.393C211.855 107.742 212.955 109.891 212.205 113.289C211.755 115.288 211.006 117.187 209.956 118.936C209.257 120.135 207.808 120.135 207.008 118.986C205.059 116.237 203.11 113.489 201.111 110.79C200.212 109.541 199.162 108.392 198.163 107.192C197.763 106.693 197.413 106.243 197.763 105.593C198.013 104.994 198.663 104.694 199.262 104.744C199.512 104.844 199.762 104.844 200.062 104.844Z" fill="#7B2BF9"/>
<path d="M196.414 132.978C196.414 128.931 196.414 124.883 196.414 120.835C196.414 120.335 196.464 119.935 197.013 119.735C197.563 119.536 197.913 119.835 198.163 120.285C199.562 122.434 200.961 124.583 202.31 126.732C203.06 127.931 202.91 128.681 201.961 129.73C200.661 131.129 199.312 132.479 197.963 133.878C197.613 134.228 197.263 134.478 196.813 134.278C196.314 134.078 196.364 133.628 196.364 133.178C196.364 133.128 196.364 133.028 196.364 132.978H196.414Z" fill="#7B2BF9"/>
<path d="M184.87 192.396C184.12 192.396 183.72 191.847 183.97 191.247C184.57 189.798 185.22 188.348 185.869 186.899C186.019 186.649 186.219 186.499 186.519 186.4C187.618 186.05 188.718 185.75 189.817 185.4C189.917 185.4 189.967 185.35 190.067 185.35C190.467 185.3 190.917 185.4 191.017 185.85C191.067 186.2 191.017 186.549 190.817 186.799C189.517 188.149 188.168 189.448 186.819 190.747C186.369 191.197 185.919 191.597 185.47 191.996C185.22 192.196 185.02 192.296 184.87 192.396Z" fill="#7B2BF9"/>
<path d="M214.154 129.33C214.104 129.73 214.054 130.13 214.004 130.53C213.904 130.93 213.554 130.979 213.304 130.68C212.705 130.03 212.755 129.031 213.404 128.431C213.454 128.381 213.454 128.381 213.504 128.381C213.604 128.281 213.804 128.231 213.954 128.231C214.054 128.281 214.154 128.481 214.154 128.631C214.104 128.831 214.104 129.08 214.154 129.33Z" fill="#7B2BF9"/>
</g>
<defs>
<clipPath id="clip0_1239_2">
<rect width="256" height="256" fill="white"/>
</clipPath>
</defs>
</svg>
