<svg width="256" height="256" viewBox="0 0 256 256" fill="none" xmlns="http://www.w3.org/2000/svg">
<g clip-path="url(#clip0_1239_2)">
<rect width="256" height="256" fill="black"/>
<path d="M220.873 131.091C220.873 183.932 174.184 218.679 138.716 223.947C135.216 224.471 132.631 224.569 131.584 224.602C92.9102 225.812 33.8201 191.163 33.8201 131.091C33.7874 80.5735 75.5692 37.5811 127.33 37.5811C178.993 37.5811 220.873 79.4611 220.873 131.091Z" fill="#F0A841"/>
<path d="M223 125.497C223 178.337 176.31 213.085 140.843 218.352C137.342 218.876 134.757 218.974 133.71 219.007C95.0696 220.217 36.0122 185.568 35.9795 125.497C35.9468 74.9788 77.6959 31.9536 129.49 31.9536C181.12 31.9536 223 73.8336 223 125.497Z" fill="#FED62E"/>
<path d="M196.629 123.239C197.349 152.849 175.787 178.697 149.972 185.863C110.807 196.725 63.9542 163.974 64.2814 123.239C64.5758 91.1746 94.0554 60.4189 130.439 60.4189C165.546 60.4517 195.811 89.0806 196.629 123.239Z" fill="#F0A841"/>
<path d="M151.739 77.5305C152.556 79.7554 154.945 80.6061 156.712 81.9475C169.963 92.2212 179.877 104.622 186.617 119.181C188.318 122.879 189.103 126.87 191.197 130.437C191.23 130.404 191.296 130.371 191.328 130.371C191.394 130.339 191.394 130.306 191.394 130.273C191.59 130.011 205.921 116.924 213.97 99.3866C215.638 95.7549 219.008 88.2623 220.186 77.9886C221.855 63.4941 217.438 58.7826 217.83 48.2145C217.863 47.6583 217.929 46.2514 217.045 45.0408C215.049 42.227 209.651 42.7505 205.332 43.4703C192.375 45.6624 179.811 47.7891 167.018 58.6518C162.928 62.1527 156.875 68.2057 151.739 77.5305Z" fill="#373636"/>
<path d="M102.235 79.4612C101.417 81.686 99.0286 82.5367 97.2618 83.8782C84.0107 94.1519 74.0969 106.552 67.3568 121.112C65.6555 124.809 64.8702 128.801 62.7762 132.367C62.7435 132.335 62.678 132.302 62.6453 132.302C62.5799 132.269 62.5799 132.237 62.5799 132.204C62.3836 131.942 48.0528 118.855 40.0039 101.317C38.3353 97.6855 34.9653 90.1929 33.7874 79.9192C32.1187 65.4248 36.5358 60.7133 36.1431 50.1452C36.1104 49.5889 36.045 48.182 36.9284 46.9714C38.9242 44.1576 44.3228 44.6811 48.6417 45.4009C61.5983 47.5931 74.1623 49.7198 86.9554 60.5824C91.0452 64.1161 97.1309 70.1363 102.235 79.4612Z" fill="#373636"/>
<path d="M99.3231 83.6816C98.6687 85.5793 96.8037 86.2991 95.4295 87.4443C84.9922 96.1802 77.1725 106.748 71.872 119.149C70.5305 122.29 69.9089 125.692 68.2729 128.735C68.2075 128.703 68.1094 128.637 68.1094 128.604C67.4223 123.304 64.3467 119.28 61.2384 115.059C54.8583 106.388 52.0117 96.2129 49.9504 85.8738C48.1509 76.9088 47.5292 67.8457 47.3002 58.7172C47.2348 55.8052 48.02 55.2163 50.8993 55.8052C70.2361 59.7969 86.3991 69.0563 99.3231 83.6816Z" fill="#FED62E"/>
<path d="M159.362 82.4059C159.984 84.3036 161.881 85.0234 163.256 86.2013C173.627 95.0026 181.382 105.604 186.617 118.037C187.958 121.21 188.547 124.58 190.15 127.623C190.216 127.591 190.314 127.525 190.314 127.492C191.034 122.192 194.109 118.2 197.25 113.98C203.663 105.342 206.575 95.199 208.702 84.8598C210.567 75.9276 211.254 66.8318 211.516 57.736C211.614 54.824 210.829 54.2023 207.917 54.7913C188.58 58.6848 172.384 67.8461 159.362 82.4059Z" fill="#FED62E"/>
<path d="M157.006 87.1172C157.595 88.7859 159.362 89.4076 160.638 90.4218C170.323 98.078 177.586 107.272 182.527 118.102C183.77 120.85 184.359 123.828 185.864 126.478C185.93 126.445 186.028 126.412 186.028 126.347C186.682 121.734 189.529 118.2 192.408 114.503C198.33 106.912 200.98 98.0453 202.911 89.0149C204.579 81.1951 205.168 73.2445 205.397 65.2938C205.463 62.7418 204.743 62.2183 202.06 62.7418C183.999 66.2427 169.014 74.3569 157.006 87.1172Z" fill="white"/>
<path d="M102.562 89.2115C101.973 90.8801 100.207 91.5018 98.9305 92.5161C89.2458 100.172 81.9822 109.366 77.0417 120.196C75.7983 122.945 75.2094 125.922 73.7043 128.572C73.6389 128.539 73.5408 128.507 73.5408 128.441C72.8864 123.828 70.0398 120.294 67.1606 116.597C61.2385 109.006 58.5883 100.14 56.6579 91.1092C54.9892 83.2894 54.4003 75.3387 54.1712 67.3881C54.1058 64.836 54.8256 64.3125 57.5086 64.836C75.5693 68.3042 90.5872 76.4184 102.562 89.2115Z" fill="white"/>
<path d="M128.803 191.064C165.34 191.064 194.96 162.939 194.96 128.244C194.96 93.5498 165.34 65.4243 128.803 65.4243C92.265 65.4243 62.6454 93.5498 62.6454 128.244C62.6454 162.939 92.265 191.064 128.803 191.064Z" fill="#373636"/>
<path d="M92.6484 163.352C105.605 163.352 116.108 152.849 116.108 139.893C116.108 126.937 105.605 116.434 92.6484 116.434C79.6922 116.434 69.1891 126.937 69.1891 139.893C69.1891 152.849 79.6922 163.352 92.6484 163.352Z" fill="#FED62E"/>
<path d="M93.2046 156.808C103.468 156.808 111.789 148.488 111.789 138.224C111.789 127.96 103.468 119.64 93.2046 119.64C82.9408 119.64 74.6204 127.96 74.6204 138.224C74.6204 148.488 82.9408 156.808 93.2046 156.808Z" fill="#373636"/>
<path d="M175.787 162.141C188.743 162.141 199.246 151.638 199.246 138.682C199.246 125.726 188.743 115.223 175.787 115.223C162.831 115.223 152.327 125.726 152.327 138.682C152.327 151.638 162.831 162.141 175.787 162.141Z" fill="#FED62E"/>
<path d="M176.343 155.598C186.607 155.598 194.927 147.277 194.927 137.013C194.927 126.75 186.607 118.429 176.343 118.429C166.079 118.429 157.759 126.75 157.759 137.013C157.759 147.277 166.079 155.598 176.343 155.598Z" fill="#373636"/>
<path d="M181.284 133.873C184.356 133.873 186.846 131.383 186.846 128.311C186.846 125.239 184.356 122.749 181.284 122.749C178.212 122.749 175.721 125.239 175.721 128.311C175.721 131.383 178.212 133.873 181.284 133.873Z" fill="#FFFEDF"/>
<path d="M168.192 151.7C168.478 149.934 167.279 148.271 165.513 147.984C163.748 147.697 162.084 148.897 161.797 150.662C161.511 152.428 162.71 154.092 164.476 154.379C166.241 154.665 167.905 153.466 168.192 151.7Z" fill="#FFFEDF"/>
<path d="M125.727 195.253C126.938 197.282 130.798 203.727 137.8 203.727C142.806 203.727 147.55 200.357 149.841 195.286C150.332 193.584 151.837 187.891 148.892 183.507C143.493 175.491 126.774 176.931 123.404 183.703C121.277 187.924 124.713 193.584 125.727 195.253Z" fill="#FA7F5B"/>
<path d="M163.844 171.859C164.891 178.337 162.339 185.012 157.922 189.364C154.356 192.897 150.43 194.042 147.027 194.991C144.017 195.842 128.737 200.095 116.926 190.771C115.159 189.396 107.732 183.507 107.372 174.509C107.176 169.667 109.139 165.904 110.349 163.581C114.603 155.598 119.412 155.565 123.371 150.428C132.827 138.126 123.11 115.092 129.293 106.618C129.85 105.833 131.453 103.673 133.645 103.641C135.772 103.608 137.408 105.636 137.997 106.356C144.671 114.634 137.309 138.584 148.041 150.559C151.313 154.224 155.501 155.892 160.016 163.091C161.783 165.839 163.255 168.293 163.844 171.859Z" fill="white"/>
<path d="M136.132 177.454C133.089 176.767 130.602 175.098 130.439 174.968C128.246 173.495 125.596 171.696 125.793 169.471C125.891 168.391 126.61 167.573 126.774 167.409C127.592 166.559 128.704 166.264 130.602 165.806C130.864 165.741 131.224 165.643 131.715 165.577C136.524 164.694 141.792 165.315 141.792 165.315C142.839 165.446 143.951 165.61 145.129 165.872C146.045 166.068 146.929 166.297 147.714 166.526C148.663 166.755 149.415 167.409 149.677 168.293C149.972 169.307 149.481 170.158 149.415 170.321C148.205 172.514 146.798 173.986 145.816 174.837C144.639 175.884 143.264 177.094 141.203 177.552C139.927 177.847 138.651 177.781 138.357 177.781C138.029 177.749 137.211 177.683 136.132 177.454Z" fill="#373636"/>
<path d="M98.1125 135.083C101.184 135.083 103.675 132.593 103.675 129.521C103.675 126.449 101.184 123.959 98.1125 123.959C95.0406 123.959 92.5503 126.449 92.5503 129.521C92.5503 132.593 95.0406 135.083 98.1125 135.083Z" fill="#FFFEDF"/>
<path d="M84.5015 155.631C86.2904 155.631 87.7406 154.18 87.7406 152.391C87.7406 150.603 86.2904 149.152 84.5015 149.152C82.7126 149.152 81.2623 150.603 81.2623 152.391C81.2623 154.18 82.7126 155.631 84.5015 155.631Z" fill="#FFFEDF"/>
</g>
<defs>
<clipPath id="clip0_1239_2">
<rect width="256" height="256" fill="white"/>
</clipPath>
</defs>
</svg>
