<svg width="256" height="256" viewBox="0 0 256 256" fill="none" xmlns="http://www.w3.org/2000/svg">
<g clip-path="url(#clip0_2625_70)">
<mask id="mask0_2625_70" style="mask-type:luminance" maskUnits="userSpaceOnUse" x="0" y="0" width="256" height="256">
<path d="M256 0H0V256H256V0Z" fill="white"/>
</mask>
<g mask="url(#mask0_2625_70)">
<path d="M256 0H0V256H256V0Z" fill="#FED62E"/>
<path d="M220.873 131.091C220.873 183.932 174.184 218.679 138.716 223.947C135.216 224.471 132.631 224.569 131.584 224.602C92.9104 225.812 33.8203 191.163 33.8203 131.091C33.7876 80.5735 75.5694 37.5811 127.33 37.5811C178.993 37.5811 220.873 79.4611 220.873 131.091Z" fill="#F0A841"/>
<path d="M222.999 125.497C222.999 178.337 176.309 213.085 140.842 218.352C137.341 218.876 134.756 218.974 133.709 219.007C95.0686 220.217 36.0112 185.568 35.9785 125.497C35.9458 74.9788 77.6949 31.9536 129.489 31.9536C181.119 31.9536 222.999 73.8336 222.999 125.497Z" fill="#FED62E"/>
<path d="M196.629 123.239C197.349 152.849 175.787 178.697 149.972 185.863C110.807 196.725 63.9538 163.974 64.281 123.239C64.5754 91.1746 94.055 60.4189 130.439 60.4189C165.546 60.4517 195.811 89.0806 196.629 123.239Z" fill="#F0A841"/>
<path d="M151.738 77.5305C152.555 79.7554 154.944 80.6061 156.711 81.9475C169.962 92.2212 179.876 104.622 186.616 119.181C188.317 122.879 189.102 126.87 191.196 130.437C191.229 130.404 191.295 130.371 191.327 130.371C191.393 130.339 191.393 130.306 191.393 130.273C191.589 130.011 205.92 116.924 213.969 99.3866C215.637 95.7549 219.007 88.2623 220.185 77.9886C221.854 63.4941 217.437 58.7826 217.829 48.2145C217.862 47.6583 217.928 46.2514 217.044 45.0408C215.048 42.227 209.65 42.7505 205.331 43.4703C192.374 45.6624 179.81 47.7891 167.017 58.6518C162.927 62.1527 156.874 68.2057 151.738 77.5305Z" fill="#373636"/>
<path d="M102.236 79.4612C101.418 81.686 99.0296 82.5367 97.2628 83.8782C84.0117 94.1519 74.0979 106.552 67.3578 121.112C65.6565 124.809 64.8712 128.801 62.7772 132.367C62.7445 132.335 62.679 132.302 62.6463 132.302C62.5809 132.269 62.5809 132.237 62.5809 132.204C62.3846 131.942 48.0538 118.855 40.0049 101.317C38.3363 97.6855 34.9663 90.1929 33.7884 79.9192C32.1197 65.4248 36.5368 60.7133 36.1441 50.1452C36.1114 49.5889 36.046 48.182 36.9294 46.9714C38.9252 44.1576 44.3238 44.6811 48.6427 45.4009C61.5993 47.5931 74.1633 49.7198 86.9564 60.5824C91.0462 64.1161 97.1319 70.1363 102.236 79.4612Z" fill="#373636"/>
<path d="M99.3235 83.6816C98.6691 85.5793 96.8041 86.2991 95.4299 87.4443C84.9926 96.1802 77.1729 106.748 71.8724 119.149C70.5309 122.29 69.9093 125.692 68.2733 128.735C68.2079 128.703 68.1098 128.637 68.1098 128.604C67.4227 123.304 64.3471 119.28 61.2388 115.059C54.8587 106.388 52.0121 96.2129 49.9508 85.8738C48.1513 76.9088 47.5296 67.8457 47.3006 58.7172C47.2352 55.8052 48.0204 55.2163 50.8997 55.8052C70.2365 59.7969 86.3995 69.0563 99.3235 83.6816Z" fill="#FED62E"/>
<path d="M159.361 82.4059C159.983 84.3036 161.88 85.0234 163.255 86.2013C173.626 95.0026 181.381 105.604 186.616 118.037C187.957 121.21 188.546 124.58 190.149 127.623C190.215 127.591 190.313 127.525 190.313 127.492C191.033 122.192 194.108 118.2 197.249 113.98C203.662 105.342 206.574 95.199 208.701 84.8598C210.566 75.9276 211.253 66.8318 211.515 57.736C211.613 54.824 210.828 54.2023 207.916 54.7913C188.579 58.6848 172.383 67.8461 159.361 82.4059Z" fill="#FED62E"/>
<path d="M157.006 87.1172C157.595 88.7859 159.362 89.4076 160.638 90.4218C170.323 98.078 177.586 107.272 182.527 118.102C183.77 120.85 184.359 123.828 185.864 126.478C185.93 126.445 186.028 126.412 186.028 126.347C186.682 121.734 189.529 118.2 192.408 114.503C198.33 106.912 200.98 98.0453 202.911 89.0149C204.579 81.1951 205.168 73.2445 205.397 65.2938C205.463 62.7418 204.743 62.2183 202.06 62.7418C183.999 66.2427 169.014 74.3569 157.006 87.1172Z" fill="white"/>
<path d="M102.563 89.2115C101.974 90.8801 100.208 91.5018 98.9313 92.5161C89.2466 100.172 81.983 109.366 77.0425 120.196C75.7991 122.945 75.2102 125.922 73.7051 128.572C73.6397 128.539 73.5416 128.507 73.5416 128.441C72.8872 123.828 70.0406 120.294 67.1614 116.597C61.2393 109.006 58.5891 100.14 56.6587 91.1092C54.99 83.2894 54.4011 75.3387 54.172 67.3881C54.1066 64.836 54.8264 64.3125 57.5094 64.836C75.5701 68.3042 90.588 76.4184 102.563 89.2115Z" fill="white"/>
<path d="M128.802 191.064C165.339 191.064 194.959 162.939 194.959 128.244C194.959 93.5498 165.339 65.4243 128.802 65.4243C92.2641 65.4243 62.6445 93.5498 62.6445 128.244C62.6445 162.939 92.2641 191.064 128.802 191.064Z" fill="#373636"/>
<path d="M92.6488 163.352C105.605 163.352 116.108 152.849 116.108 139.893C116.108 126.937 105.605 116.434 92.6488 116.434C79.6926 116.434 69.1895 126.937 69.1895 139.893C69.1895 152.849 79.6926 163.352 92.6488 163.352Z" fill="#FED62E"/>
<path d="M93.2053 156.808C103.469 156.808 111.79 148.488 111.79 138.224C111.79 127.96 103.469 119.64 93.2053 119.64C82.9415 119.64 74.6211 127.96 74.6211 138.224C74.6211 148.488 82.9415 156.808 93.2053 156.808Z" fill="#373636"/>
<path d="M175.786 162.141C188.742 162.141 199.245 151.638 199.245 138.682C199.245 125.726 188.742 115.223 175.786 115.223C162.83 115.223 152.326 125.726 152.326 138.682C152.326 151.638 162.83 162.141 175.786 162.141Z" fill="#FED62E"/>
<path d="M176.344 155.598C186.608 155.598 194.928 147.277 194.928 137.013C194.928 126.75 186.608 118.429 176.344 118.429C166.08 118.429 157.76 126.75 157.76 137.013C157.76 147.277 166.08 155.598 176.344 155.598Z" fill="#373636"/>
<path d="M181.284 133.873C184.356 133.873 186.846 131.383 186.846 128.311C186.846 125.239 184.356 122.749 181.284 122.749C178.212 122.749 175.721 125.239 175.721 128.311C175.721 131.383 178.212 133.873 181.284 133.873Z" fill="#FFFEDF"/>
<path d="M168.191 151.7C168.477 149.934 167.278 148.271 165.512 147.984C163.747 147.697 162.083 148.897 161.796 150.662C161.51 152.428 162.709 154.092 164.475 154.379C166.24 154.665 167.904 153.466 168.191 151.7Z" fill="#FFFEDF"/>
<path d="M125.728 195.253C126.939 197.282 130.799 203.727 137.801 203.727C142.807 203.727 147.551 200.357 149.842 195.286C150.333 193.584 151.838 187.891 148.893 183.507C143.494 175.491 126.775 176.931 123.405 183.703C121.278 187.924 124.714 193.584 125.728 195.253Z" fill="#FA7F5B"/>
<path d="M163.843 171.859C164.89 178.337 162.338 185.012 157.921 189.364C154.355 192.897 150.429 194.042 147.026 194.991C144.016 195.842 128.736 200.095 116.925 190.771C115.158 189.396 107.731 183.507 107.371 174.509C107.175 169.667 109.138 165.904 110.348 163.581C114.602 155.598 119.411 155.565 123.37 150.428C132.826 138.126 123.109 115.092 129.292 106.618C129.849 105.833 131.452 103.673 133.644 103.641C135.771 103.608 137.407 105.636 137.996 106.356C144.67 114.634 137.308 138.584 148.04 150.559C151.312 154.224 155.5 155.892 160.015 163.091C161.782 165.839 163.254 168.293 163.843 171.859Z" fill="white"/>
<path d="M136.133 177.454C133.09 176.767 130.603 175.098 130.44 174.968C128.247 173.495 125.597 171.696 125.794 169.471C125.892 168.391 126.611 167.573 126.775 167.409C127.593 166.559 128.705 166.264 130.603 165.806C130.865 165.741 131.225 165.643 131.716 165.577C136.525 164.694 141.793 165.315 141.793 165.315C142.84 165.446 143.952 165.61 145.13 165.872C146.046 166.068 146.93 166.297 147.715 166.526C148.664 166.755 149.416 167.409 149.678 168.293C149.973 169.307 149.482 170.158 149.416 170.321C148.206 172.514 146.799 173.986 145.817 174.837C144.64 175.884 143.265 177.094 141.204 177.552C139.928 177.847 138.652 177.781 138.358 177.781C138.03 177.749 137.212 177.683 136.133 177.454Z" fill="#373636"/>
<path d="M98.113 135.083C101.184 135.083 103.675 132.593 103.675 129.521C103.675 126.449 101.184 123.959 98.113 123.959C95.0411 123.959 92.5508 126.449 92.5508 129.521C92.5508 132.593 95.0411 135.083 98.113 135.083Z" fill="#FFFEDF"/>
<path d="M84.5009 155.631C86.2898 155.631 87.74 154.18 87.74 152.391C87.74 150.603 86.2898 149.152 84.5009 149.152C82.712 149.152 81.2617 150.603 81.2617 152.391C81.2617 154.18 82.712 155.631 84.5009 155.631Z" fill="#FFFEDF"/>
</g>
</g>
<defs>
<clipPath id="clip0_2625_70">
<rect width="256" height="256" fill="white"/>
</clipPath>
</defs>
</svg>
