<svg width="256" height="256" viewBox="0 0 256 256" fill="none" xmlns="http://www.w3.org/2000/svg">
<g clip-path="url(#clip0_1178_2)">
<path d="M256 0H0V256H256V0Z" fill="#F7931A"/>
<path d="M128.471 108.901C124.205 108.901 120.376 106.699 118.243 102.997L89.3784 53H167.576L138.712 102.997C136.578 106.699 132.75 108.901 128.483 108.901H128.471Z" fill="white"/>
<path d="M155.19 124.329C150.923 124.329 147.095 122.126 144.961 118.425C142.828 114.724 142.828 110.319 144.961 106.618L173.826 56.6201L212.918 124.329H155.179H155.19Z" fill="white"/>
<path d="M89.3777 202.899L118.242 152.902C120.375 149.2 124.204 146.998 128.471 146.998C132.737 146.998 136.566 149.2 138.699 152.902L167.564 202.899H89.3662H89.3777Z" fill="white"/>
<path d="M144.961 149.282C142.828 145.58 142.828 141.175 144.961 137.474C147.095 133.773 150.923 131.57 155.19 131.57H212.93L173.837 199.279L144.973 149.282H144.961Z" fill="white"/>
<path d="M44.0115 124.329L83.1045 56.6201L111.969 106.618C114.102 110.319 114.102 114.724 111.969 118.425C109.835 122.126 106.007 124.329 101.74 124.329H44H44.0115Z" fill="white"/>
<path d="M44.0117 131.57H101.752C106.018 131.57 109.847 133.773 111.98 137.474C114.114 141.175 114.114 145.58 111.98 149.282L83.1162 199.279L44.0233 131.57H44.0117Z" fill="white"/>
</g>
<defs>
<clipPath id="clip0_1178_2">
<rect width="256" height="256" fill="white"/>
</clipPath>
</defs>
</svg>
