<svg width="256" height="256" viewBox="0 0 256 256" fill="none" xmlns="http://www.w3.org/2000/svg">
<g clip-path="url(#clip0_1178_2)">
<path d="M256 0H0V256H256V0Z" fill="#F7931A"/>
<path d="M128.472 106.856C123.747 106.856 119.507 104.417 117.145 100.318L85.1812 44.9517H171.776L139.812 100.318C137.449 104.417 133.21 106.856 128.485 106.856H128.472Z" fill="white"/>
<path d="M158.06 123.94C153.335 123.94 149.095 121.501 146.733 117.402C144.37 113.303 144.37 108.426 146.733 104.327L178.696 48.9604L221.987 123.94H158.047H158.06Z" fill="white"/>
<path d="M85.1802 210.947L117.144 155.581C119.506 151.482 123.746 149.043 128.471 149.043C133.196 149.043 137.436 151.482 139.798 155.581L171.762 210.947H85.1675H85.1802Z" fill="white"/>
<path d="M146.733 151.572C144.37 147.473 144.37 142.596 146.733 138.497C149.095 134.398 153.335 131.959 158.06 131.959H222L178.709 206.938L146.746 151.572H146.733Z" fill="white"/>
<path d="M34.9429 123.94L78.2337 48.9604L110.197 104.327C112.56 108.426 112.56 113.303 110.197 117.402C107.835 121.501 103.595 123.94 98.8703 123.94H34.9302H34.9429Z" fill="white"/>
<path d="M34.9429 131.959H98.883C103.608 131.959 107.848 134.398 110.21 138.497C112.573 142.596 112.573 147.473 110.21 151.572L78.2464 206.938L34.9556 131.959H34.9429Z" fill="white"/>
</g>
<defs>
<clipPath id="clip0_1178_2">
<rect width="256" height="256" fill="white"/>
</clipPath>
</defs>
</svg>
