<svg width="256" height="256" viewBox="0 0 256 256" fill="none" xmlns="http://www.w3.org/2000/svg">
<g clip-path="url(#clip0_1239_2)">
<rect width="256" height="256" fill="white"/>
<path fill-rule="evenodd" clip-rule="evenodd" d="M179.409 150.605H106.805V109.88H95.6061V156.266C95.6046 157.003 95.7496 157.733 96.0331 158.413C96.3211 159.089 96.7368 159.702 97.2575 160.218C98.3078 161.266 99.7259 161.856 101.206 161.86H164.793L151.667 173.745H81.218V106.328H153.831C155.212 106.332 156.546 105.818 157.571 104.887L183.148 81.8042C183.989 81.0439 184.581 80.0455 184.847 78.9404C185.043 78.1131 185.051 77.2525 184.869 76.4223C184.688 75.5915 184.321 74.8138 183.798 74.1457C183.275 73.4781 182.608 72.9384 181.848 72.5664C181.088 72.1949 180.254 72.001 179.409 72H101.206C100.471 72 99.7432 72.1458 99.0642 72.429C98.3852 72.7122 97.7688 73.1269 97.2496 73.6502C96.7304 74.1734 96.3186 74.7944 96.0386 75.4774C95.758 76.1609 95.6145 76.8929 95.6155 77.6325V91.5316H106.805V83.198H164.812L151.687 95.0829H75.6282C74.8866 95.0774 74.1509 95.2208 73.465 95.504C72.7791 95.7877 72.1558 96.2058 71.6327 96.7345C71.1105 97.2543 70.6972 97.8743 70.4177 98.5578C70.1425 99.2403 70.001 99.9694 70 100.706V179.368C69.999 180.107 70.1425 180.839 70.4231 181.523C70.7032 182.206 71.1149 182.827 71.6341 183.35C72.1534 183.873 72.7697 184.288 73.4487 184.571C74.1277 184.854 74.8551 185 75.5903 185H153.794C155.174 184.999 156.505 184.486 157.533 183.559L183.11 160.418C183.951 159.658 184.543 158.658 184.808 157.552C185.072 156.446 184.997 155.285 184.592 154.223C184.187 153.161 183.471 152.247 182.539 151.603C181.606 150.959 180.502 150.614 179.371 150.614" fill="#FF4350"/>
</g>
<defs>
<clipPath id="clip0_1239_2">
<rect width="256" height="256" fill="white"/>
</clipPath>
</defs>
</svg>
