<svg width="256" height="256" viewBox="0 0 256 256" fill="none" xmlns="http://www.w3.org/2000/svg">
<g clip-path="url(#clip0_1239_2)">
<rect width="256" height="256" fill="#25D695"/>
<mask id="mask0_1239_2" style="mask-type:luminance" maskUnits="userSpaceOnUse" x="27" y="27" width="202" height="202">
<path d="M229 27H27V229H229V27Z" fill="white"/>
</mask>
<g mask="url(#mask0_1239_2)">
<path d="M229 128C229 72.2192 183.781 27 128 27C72.2192 27 27 72.2192 27 128C27 183.781 72.2192 229 128 229C183.781 229 229 183.781 229 128Z" fill="#25D695"/>
<path d="M128 111.84C124.804 111.84 121.68 112.788 119.022 114.563C116.365 116.339 114.294 118.863 113.07 121.816C111.847 124.769 111.527 128.018 112.151 131.153C112.775 134.287 114.313 137.167 116.573 139.427C118.833 141.687 121.713 143.226 124.848 143.849C127.982 144.473 131.232 144.153 134.185 142.93C137.137 141.707 139.661 139.635 141.437 136.978C143.213 134.32 144.16 131.196 144.16 128C144.16 123.714 142.458 119.604 139.427 116.573C136.396 113.542 132.286 111.84 128 111.84Z" fill="white"/>
<path d="M128 63.3599C119.51 63.3494 111.101 65.0166 103.257 68.2653C95.4129 71.5142 88.288 76.2806 82.2914 82.2914L105.158 105.158C109.677 100.635 115.436 97.5529 121.706 96.3033C127.976 95.0537 134.476 95.6916 140.384 98.137C146.291 100.582 151.341 104.725 154.894 110.041C158.447 115.356 160.343 121.606 160.343 128C160.343 134.394 158.447 140.644 154.894 145.959C151.341 151.275 146.291 155.417 140.384 157.863C134.476 160.308 127.976 160.946 121.706 159.697C115.436 158.447 109.677 155.365 105.158 150.842L82.2914 173.708C89.8082 181.225 99.0626 186.771 109.235 189.857C119.407 192.943 130.183 193.472 140.609 191.398C151.034 189.324 160.788 184.711 169.005 177.967C177.222 171.223 183.649 162.558 187.717 152.737C191.785 142.916 193.368 132.244 192.326 121.665C191.285 111.086 187.65 100.927 181.744 92.0892C175.839 83.2504 167.845 76.0047 158.47 70.9935C149.096 65.9822 138.63 63.3603 128 63.3599Z" fill="white"/>
</g>
</g>
<defs>
<clipPath id="clip0_1239_2">
<rect width="256" height="256" fill="white"/>
</clipPath>
</defs>
</svg>
