<svg width="256" height="256" viewBox="0 0 256 256" fill="none" xmlns="http://www.w3.org/2000/svg">
<g clip-path="url(#clip0_1239_2)">
<rect width="256" height="256" fill="#1E1E1E"/>
<rect width="256" height="256" fill="#2E3148"/>
<path d="M128 229C183.781 229 229 183.781 229 128C229 72.2192 183.781 27 128 27C72.2192 27 27 72.2192 27 128C27 183.781 72.2192 229 128 229Z" fill="#2E3148"/>
<path d="M128 186.605C160.367 186.605 186.605 160.366 186.605 128C186.605 95.6329 160.367 69.3945 128 69.3945C95.6334 69.3945 69.395 95.6329 69.395 128C69.395 160.366 95.6334 186.605 128 186.605Z" fill="#1B1E36"/>
<path d="M128.208 39.8853C117.305 39.8853 108.465 79.4288 108.465 128.209C108.465 176.988 117.305 216.532 128.208 216.532C139.11 216.532 147.95 176.988 147.95 128.209C147.95 79.4288 139.11 39.8853 128.208 39.8853ZM129.571 211.547C128.324 213.21 127.077 211.963 127.077 211.963C122.056 206.145 119.546 195.337 119.546 195.337C110.764 167.074 112.854 106.391 112.854 106.391C116.981 58.2147 124.489 46.8341 127.044 44.3074C127.305 44.0496 127.649 43.892 128.014 43.8624C128.38 43.8329 128.744 43.9332 129.043 44.1458C132.75 46.7726 135.86 57.7582 135.86 57.7582C145.041 91.8405 144.209 123.845 144.209 123.845C145.041 151.692 139.609 182.865 139.609 182.865C135.427 206.555 129.571 211.547 129.571 211.547Z" fill="#6F7390"/>
<path d="M204.818 84.2541C199.39 74.794 160.694 86.8057 118.362 111.08C76.0302 135.354 46.1698 162.702 51.5939 172.158C57.018 181.614 95.718 169.606 138.05 145.332C180.382 121.058 210.242 93.7101 204.818 84.2541ZM56.6019 170.86C54.5237 170.599 54.9931 168.89 54.9931 168.89C57.5424 161.642 65.6547 154.085 65.6547 154.085C85.8087 132.402 139.489 104.018 139.489 104.018C183.326 83.6222 196.943 84.4828 200.397 85.4338C200.751 85.5327 201.059 85.754 201.266 86.0583C201.474 86.3627 201.566 86.7305 201.528 87.0966C201.113 91.6214 193.111 99.7822 193.111 99.7822C168.134 124.716 139.958 139.924 139.958 139.924C116.217 154.509 86.4744 165.303 86.4744 165.303C63.8432 173.458 56.6027 170.86 56.6027 170.86H56.6019Z" fill="#6F7390"/>
<path d="M204.627 172.473C210.097 163.038 180.311 135.565 138.128 111.108C95.9449 86.6514 57.2538 74.491 51.7885 83.9422C46.3232 93.3934 76.1036 120.851 118.311 145.307C160.519 169.764 199.161 181.925 204.627 172.473ZM55.4132 87.5879C54.6052 85.6721 56.3109 85.2108 56.3109 85.2108C63.8624 83.7846 74.4699 87.0344 74.4699 87.0344C103.328 93.6059 154.785 125.839 154.785 125.839C194.404 153.562 200.48 165.773 201.391 169.24C201.483 169.595 201.447 169.972 201.289 170.303C201.131 170.635 200.861 170.9 200.526 171.052C196.395 172.943 185.33 170.125 185.33 170.125C151.227 160.981 123.953 144.227 123.953 144.227C99.4468 131.01 75.2148 110.672 75.2148 110.672C56.8021 95.1694 55.4188 87.6089 55.4188 87.6089L55.4132 87.5879Z" fill="#6F7390"/>
<path d="M128 138.391C133.739 138.391 138.391 133.738 138.391 128C138.391 122.261 133.739 117.609 128 117.609C122.261 117.609 117.609 122.261 117.609 128C117.609 133.738 122.261 138.391 128 138.391Z" fill="#B7B9C8"/>
<path d="M170.603 94.3333C173.931 94.3333 176.63 91.542 176.63 88.0988C176.63 84.6555 173.931 81.8643 170.603 81.8643C167.274 81.8643 164.576 84.6555 164.576 88.0988C164.576 91.542 167.274 94.3333 170.603 94.3333Z" fill="#B7B9C8"/>
<path d="M71.6807 115.531C75.0092 115.531 77.7076 112.74 77.7076 109.297C77.7076 105.853 75.0092 103.062 71.6807 103.062C68.3521 103.062 65.6538 105.853 65.6538 109.297C65.6538 112.74 68.3521 115.531 71.6807 115.531Z" fill="#B7B9C8"/>
<path d="M115.739 192.008C119.067 192.008 121.765 189.217 121.765 185.774C121.765 182.33 119.067 179.539 115.739 179.539C112.41 179.539 109.712 182.33 109.712 185.774C109.712 189.217 112.41 192.008 115.739 192.008Z" fill="#B7B9C8"/>
</g>
<defs>
<clipPath id="clip0_1239_2">
<rect width="256" height="256" fill="white"/>
</clipPath>
</defs>
</svg>
