<svg width="256" height="256" viewBox="0 0 256 256" fill="none" xmlns="http://www.w3.org/2000/svg">
<g clip-path="url(#clip0_1239_2)">
<rect width="256" height="256" fill="#1E1E1E"/>
<rect width="256" height="256" fill="#202944"/>
<rect x="33" y="32" width="192" height="193" fill="white"/>
<g clip-path="url(#clip1_1239_2)">
<path d="M25 23V234H230V23H25ZM96.6667 47.476H115.833V67.732H96.6667V47.476ZM48.3333 47.476H68.3333V67.732H48.3333V47.476ZM67.5 96.428V116.684H47.5V96.428H67.5ZM62.5 207.836H54.1667V200.24H61.6667V207.836H62.5ZM68.3333 167.324H48.3333V147.912H68.3333V167.324ZM110.833 207.836H103.333V200.24H110.833V207.836ZM110.833 160.572H103.333V152.976H110.833V160.572ZM116.667 117.528H96.6667V97.272H116.667V117.528ZM159.167 207.836H151.667V200.24H159.167V207.836ZM159.167 160.572H151.667V152.976H159.167V160.572ZM159.167 110.776H151.667V103.18H159.167V110.776ZM165.833 67.732H145.833V47.476H165.833V67.732ZM208.333 207.836H200.833V200.24H208.333V207.836ZM208.333 160.572H200.833V152.976H208.333V160.572ZM208.333 110.776H200.833V103.18H208.333V110.776ZM208.333 61.824H200.833V54.228H208.333V61.824Z" fill="#202944"/>
</g>
</g>
<defs>
<clipPath id="clip0_1239_2">
<rect width="256" height="256" fill="white"/>
</clipPath>
<clipPath id="clip1_1239_2">
<rect width="205" height="211" fill="white" transform="translate(25 23)"/>
</clipPath>
</defs>
</svg>
