<svg width="256" height="256" viewBox="0 0 256 256" fill="none" xmlns="http://www.w3.org/2000/svg">
<g clip-path="url(#clip0_1239_2)">
<circle cx="128" cy="128" r="98" fill="black"/>
<rect width="256" height="256" fill="black"/>
<path d="M216.981 85.9115H192.599C190.995 80.739 188.138 75.8512 184.029 71.7321C179.995 67.6985 175.136 64.7753 169.849 63.1429V38.7798H152.528V62.3836C146.416 63.7123 140.826 66.7399 136.318 71.2481L124.777 82.789C121.398 86.1678 121.398 91.6535 124.777 95.0418C128.156 98.4205 133.642 98.4205 137.03 95.0418L148.571 83.5008C151.57 80.5017 155.622 78.8883 159.96 78.9357C164.392 78.9927 168.587 80.7865 171.785 83.9849C178.315 90.5146 178.533 100.936 172.269 107.2L148.001 131.468C141.737 137.732 131.316 137.513 124.787 130.984C121.408 127.605 115.922 127.605 112.534 130.984C109.155 134.363 109.155 139.848 112.534 143.236C119.263 149.966 128.08 153.344 136.84 153.344C145.363 153.344 153.829 150.146 160.254 143.721L184.522 119.452C189.125 114.849 192.058 109.202 193.368 103.242H217V85.921L216.981 85.9115Z" fill="white"/>
<path d="M118.741 160.728L107.2 172.269C100.936 178.533 90.5243 178.315 83.9851 171.785C77.4554 165.255 77.2371 154.834 83.5011 148.57L107.769 124.302C114.033 118.038 124.454 118.256 130.984 124.786C134.363 128.165 139.848 128.165 143.237 124.786C146.615 121.407 146.615 115.922 143.237 112.533C129.949 99.2461 108.548 99.0279 95.526 112.049L71.2578 136.318C66.6548 140.921 63.7221 146.568 62.4123 152.528H38.78V169.849H63.1621C64.7661 175.021 67.6228 179.909 71.7324 184.028C75.8419 188.138 80.7298 190.995 85.9118 192.598V216.99H103.233V193.358C109.202 192.058 114.849 189.115 119.443 184.512L130.984 172.971C134.363 169.593 134.363 164.107 130.984 160.719C127.605 157.34 122.12 157.34 118.731 160.719L118.741 160.728Z" fill="white"/>
</g>
<defs>
<clipPath id="clip0_1239_2">
<rect width="256" height="256" fill="white"/>
</clipPath>
</defs>
</svg>
