<svg width="256" height="256" viewBox="0 0 256 256" fill="none" xmlns="http://www.w3.org/2000/svg">
<g clip-path="url(#clip0_666_22)">
<path d="M256 0H0V256H256V0Z" fill="#CCC4AE"/>
<path d="M89.5518 141.608C94.9834 141.608 100.282 139.797 104.566 136.485L70.122 102.042C61.8201 112.772 63.8073 128.228 74.5378 136.53C78.8654 139.797 84.1203 141.608 89.5518 141.608Z" fill="#3E6957"/>
<path d="M192 117.012C192 111.581 190.189 106.281 186.877 101.998L152.434 136.442C163.164 144.744 178.576 142.757 186.877 132.026C190.189 127.743 192 122.444 192 117.012Z" fill="#3E6957"/>
<path d="M209.355 79.521L194.12 94.7558C206.396 109.461 204.453 131.363 189.748 143.64C176.854 154.414 158.13 154.414 145.236 143.64L128.5 160.376L111.808 143.684C97.1029 155.96 75.2002 154.017 62.924 139.312C52.1493 126.418 52.1493 107.694 62.924 94.7999L55.1079 86.9838L47.6892 79.521C38.725 94.27 34 111.227 34 128.493C34 180.689 76.3041 222.993 128.5 222.993C180.696 222.993 223 180.689 223 128.493C223.044 111.227 218.275 94.27 209.355 79.521Z" fill="#3E6957"/>
<path d="M196.858 63.271C160.868 25.5152 101.077 24.1021 63.3213 60.0915C62.2174 61.1514 61.1575 62.2112 60.1419 63.271C57.8015 65.7439 55.5935 68.3051 53.5181 70.9988L128.5 146.025L203.481 70.9988C201.45 68.3051 199.198 65.7439 196.858 63.271ZM128.5 46.3582C150.579 46.3582 171.157 54.8808 186.613 70.4247L128.5 128.538L70.3867 70.4247C85.8423 54.8808 106.42 46.3582 128.5 46.3582Z" fill="#3E6957"/>
</g>
<defs>
<clipPath id="clip0_666_22">
<rect width="256" height="256" fill="white"/>
</clipPath>
</defs>
</svg>
