<svg width="256" height="256" viewBox="0 0 256 256" fill="none" xmlns="http://www.w3.org/2000/svg">
<g clip-path="url(#clip0_1049_3)">
<path d="M128.257 235.479C187.474 235.479 235.479 187.474 235.479 128.257C235.479 69.0393 187.474 21.0342 128.257 21.0342C69.0392 21.0342 21.0341 69.0393 21.0341 128.257C21.0341 187.474 69.0392 235.479 128.257 235.479Z" fill="white"/>
<path d="M164.024 118.803H91.9937V137.199H164.024V118.803Z" fill="#222222"/>
<path d="M128 0C57.3077 0 0 57.3077 0 128C0 198.692 57.3077 256 128 256C198.692 256 256 198.692 256 128C256 57.3077 198.692 0 128 0ZM180.885 185.485H164.023V149.461H91.9936L91.9744 149.431V185.485H75.1125V70.5152H91.9744V106.558L91.9936 106.539H164.023V70.5152H180.885V185.485Z" fill="#222222"/>
</g>
<defs>
<clipPath id="clip0_1049_3">
<rect width="256" height="256" fill="white"/>
</clipPath>
</defs>
</svg>
