<svg width="256" height="256" viewBox="0 0 256 256" fill="none" xmlns="http://www.w3.org/2000/svg">
<g clip-path="url(#clip0_666_12)">
<path d="M256 0H0V256H256V0Z" fill="#072723"/>
<path d="M212.861 126.995C213.015 140.798 210.113 153.987 204.414 166.589C196.276 184.533 176.765 199.205 158.947 183.587C144.417 170.858 141.721 145.015 119.95 141.232C91.1452 137.756 90.452 171.011 71.6338 174.768C50.659 179.012 43.7017 143.89 44.0097 127.94C44.3178 111.99 48.5795 89.5726 66.8073 89.5726C87.7821 89.5726 89.194 121.192 115.817 119.479C142.183 117.69 142.645 84.7927 159.871 70.7084C174.736 58.5412 192.22 67.4621 200.974 82.1087C209.087 95.6562 212.655 111.555 212.835 126.995H212.861Z" fill="#97FDE5"/>
</g>
<defs>
<clipPath id="clip0_666_12">
<rect width="256" height="256" fill="white"/>
</clipPath>
</defs>
</svg>
