<svg width="64" height="64" viewBox="0 0 64 64" fill="none" xmlns="http://www.w3.org/2000/svg">
<g clip-path="url(#clip0_275_56602)">
<path d="M0 32C0 14.3269 14.3269 0 32 0C49.6731 0 64 14.3269 64 32C64 49.6731 49.6731 64 32 64C14.3269 64 0 49.6731 0 32Z" fill="#131313"/>
<path d="M30.7625 12.2214C31.6512 11.786 32.5876 11.8158 33.4495 12.3049C36.4378 14.0078 39.4171 15.7256 42.3815 17.4613C43.3358 18.022 43.8249 18.9197 43.8279 20.0231C43.8458 23.8911 43.8398 27.7562 43.8279 31.6242C43.8279 31.7674 43.7354 31.9761 43.6191 32.0447C42.4709 32.7307 41.3078 33.3897 40.0463 34.1174V33.509C40.0463 29.5307 40.0344 25.5553 40.0553 21.5769C40.0583 20.8134 39.7958 20.3213 39.1188 19.9366C35.6504 17.9653 32.1999 15.9582 28.7435 13.9631C28.5943 13.8766 28.4482 13.7842 28.2216 13.647C29.1103 13.143 29.9095 12.636 30.7565 12.2214H30.7625ZM30.1272 51.7935C29.9334 51.6951 29.7902 51.6265 29.6501 51.5459C25.0723 48.9066 20.5004 46.2494 15.9077 43.6309C14.6193 42.8973 14.0318 41.8505 14.0467 40.3802C14.0736 37.2548 14.0646 34.1294 14.0497 31.0009C14.0437 29.5903 14.6163 28.5674 15.857 27.8636C19.0808 26.0294 22.2868 24.1685 25.4928 22.3046C25.7701 22.1435 25.9729 22.1167 26.2622 22.2897C27.3686 22.9547 28.4959 23.5899 29.6739 24.2699C29.4503 24.4041 29.2803 24.5055 29.1073 24.6069C25.6359 26.611 22.1705 28.6211 18.6901 30.6132C18.1205 30.9383 17.8551 31.3618 17.8611 32.0239C17.879 34.4872 17.8819 36.9506 17.8611 39.414C17.8551 40.0939 18.1265 40.5264 18.711 40.8604C22.3822 42.9599 26.0385 45.0833 29.7067 47.1888C30.0169 47.3677 30.1481 47.5527 30.1421 47.9225C30.1153 49.184 30.1332 50.4485 30.1332 51.7965L30.1272 51.7935ZM30.1272 44.7374C29.8081 44.5555 29.5785 44.4272 29.3489 44.293C26.4381 42.614 23.5304 40.929 20.6137 39.2619C20.2976 39.0829 20.1813 38.8891 20.1843 38.5223C20.2051 36.6285 20.1962 34.7348 20.1902 32.841C20.1902 32.5845 20.229 32.4086 20.4825 32.2654C21.5561 31.666 22.6178 31.0397 23.6825 30.4283C23.76 30.3836 23.8435 30.3508 23.9837 30.2822V32.4086C23.9837 33.5597 24.0016 34.7139 23.9777 35.865C23.9628 36.5212 24.2163 36.9655 24.7889 37.2876C26.4381 38.2181 28.0665 39.1843 29.7157 40.1118C30.0408 40.2938 30.1392 40.4965 30.1332 40.8544C30.1123 42.113 30.1243 43.3745 30.1243 44.7344L30.1272 44.7374ZM26.7662 19.88C26.1489 19.5161 25.621 19.5191 25.0037 19.88C21.5442 21.902 18.0698 23.8971 14.5984 25.9012C14.4523 25.9877 14.3002 26.0652 14.0408 26.2054C14.1332 24.8872 13.8499 23.6436 14.3002 22.4388C14.5448 21.7797 15.004 21.2846 15.6124 20.9327C18.5082 19.2596 21.401 17.5836 24.3028 15.9195C25.3615 15.3111 26.4411 15.326 27.4998 15.9374C30.7953 17.8341 34.0877 19.7368 37.3742 21.6455C37.5144 21.726 37.6903 21.9079 37.6903 22.0451C37.7142 23.3991 37.7052 24.756 37.7052 26.2084C36.5093 25.5195 35.4059 24.8813 34.3024 24.2431C31.7884 22.7907 29.2683 21.3532 26.7662 19.88ZM49.9237 41.1705C49.8372 42.2352 49.2139 42.9897 48.2924 43.5206C44.7643 45.5485 41.2393 47.5884 37.7142 49.6224C36.6078 50.2606 35.5013 50.8988 34.3919 51.537C34.2577 51.6145 34.1205 51.6801 33.9386 51.7756C33.9267 51.5907 33.9118 51.4565 33.9118 51.3223C33.9118 50.1532 33.9177 48.9871 33.9058 47.8181C33.9058 47.5527 33.9684 47.3916 34.213 47.2514C39.3545 44.293 44.4929 41.3256 49.6284 38.3612C49.706 38.3165 49.7925 38.2807 49.9386 38.2121C49.9386 39.25 49.9982 40.2162 49.9237 41.1705ZM49.9505 33.8102C49.9416 35.0211 49.2885 35.871 48.2536 36.4675C44.2335 38.7787 40.2163 41.102 36.1992 43.4222C35.4655 43.8457 34.7289 44.2662 33.9416 44.7195C33.9297 44.5197 33.9147 44.3884 33.9147 44.2542C33.9147 43.1031 33.9267 41.9489 33.9058 40.7978C33.8998 40.4697 34.0102 40.2967 34.2935 40.1327C37.9468 38.0362 41.5882 35.9157 45.2475 33.8311C45.8976 33.4613 46.1839 33.005 46.1779 32.2416C46.1511 28.2632 46.166 24.2848 46.166 20.3064V19.6116C47.1203 20.1871 48.015 20.6613 48.8322 21.2399C49.5778 21.7678 49.9535 22.567 49.9565 23.4885C49.9684 26.9301 49.9774 30.3717 49.9535 33.8132L49.9505 33.8102Z" fill="url(#paint0_radial_275_56602)"/>
<path d="M30.7625 12.2214C31.6512 11.786 32.5876 11.8158 33.4495 12.3049C36.4378 14.0078 39.4171 15.7256 42.3815 17.4613C43.3358 18.022 43.8249 18.9197 43.8279 20.0231C43.8458 23.8911 43.8398 27.7562 43.8279 31.6242C43.8279 31.7674 43.7354 31.9761 43.6191 32.0447C42.4709 32.7307 41.3078 33.3897 40.0463 34.1174V33.509C40.0463 29.5307 40.0344 25.5553 40.0553 21.5769C40.0583 20.8134 39.7958 20.3213 39.1188 19.9366C35.6504 17.9653 32.1999 15.9582 28.7435 13.9631C28.5943 13.8766 28.4482 13.7842 28.2216 13.647C29.1103 13.143 29.9095 12.636 30.7565 12.2214H30.7625ZM30.1272 51.7935C29.9334 51.6951 29.7902 51.6265 29.6501 51.5459C25.0723 48.9066 20.5004 46.2494 15.9077 43.6309C14.6193 42.8973 14.0318 41.8505 14.0467 40.3802C14.0736 37.2548 14.0646 34.1294 14.0497 31.0009C14.0437 29.5903 14.6163 28.5674 15.857 27.8636C19.0808 26.0294 22.2868 24.1685 25.4928 22.3046C25.7701 22.1435 25.9729 22.1167 26.2622 22.2897C27.3686 22.9547 28.4959 23.5899 29.6739 24.2699C29.4503 24.4041 29.2803 24.5055 29.1073 24.6069C25.6359 26.611 22.1705 28.6211 18.6901 30.6132C18.1205 30.9383 17.8551 31.3618 17.8611 32.0239C17.879 34.4872 17.8819 36.9506 17.8611 39.414C17.8551 40.0939 18.1265 40.5264 18.711 40.8604C22.3822 42.9599 26.0385 45.0833 29.7067 47.1888C30.0169 47.3677 30.1481 47.5527 30.1421 47.9225C30.1153 49.184 30.1332 50.4485 30.1332 51.7965L30.1272 51.7935ZM30.1272 44.7374C29.8081 44.5555 29.5785 44.4272 29.3489 44.293C26.4381 42.614 23.5304 40.929 20.6137 39.2619C20.2976 39.0829 20.1813 38.8891 20.1843 38.5223C20.2051 36.6285 20.1962 34.7348 20.1902 32.841C20.1902 32.5845 20.229 32.4086 20.4825 32.2654C21.5561 31.666 22.6178 31.0397 23.6825 30.4283C23.76 30.3836 23.8435 30.3508 23.9837 30.2822V32.4086C23.9837 33.5597 24.0016 34.7139 23.9777 35.865C23.9628 36.5212 24.2163 36.9655 24.7889 37.2876C26.4381 38.2181 28.0665 39.1843 29.7157 40.1118C30.0408 40.2938 30.1392 40.4965 30.1332 40.8544C30.1123 42.113 30.1243 43.3745 30.1243 44.7344L30.1272 44.7374ZM26.7662 19.88C26.1489 19.5161 25.621 19.5191 25.0037 19.88C21.5442 21.902 18.0698 23.8971 14.5984 25.9012C14.4523 25.9877 14.3002 26.0652 14.0408 26.2054C14.1332 24.8872 13.8499 23.6436 14.3002 22.4388C14.5448 21.7797 15.004 21.2846 15.6124 20.9327C18.5082 19.2596 21.401 17.5836 24.3028 15.9195C25.3615 15.3111 26.4411 15.326 27.4998 15.9374C30.7953 17.8341 34.0877 19.7368 37.3742 21.6455C37.5144 21.726 37.6903 21.9079 37.6903 22.0451C37.7142 23.3991 37.7052 24.756 37.7052 26.2084C36.5093 25.5195 35.4059 24.8813 34.3024 24.2431C31.7884 22.7907 29.2683 21.3532 26.7662 19.88ZM49.9237 41.1705C49.8372 42.2352 49.2139 42.9897 48.2924 43.5206C44.7643 45.5485 41.2393 47.5884 37.7142 49.6224C36.6078 50.2606 35.5013 50.8988 34.3919 51.537C34.2577 51.6145 34.1205 51.6801 33.9386 51.7756C33.9267 51.5907 33.9118 51.4565 33.9118 51.3223C33.9118 50.1532 33.9177 48.9871 33.9058 47.8181C33.9058 47.5527 33.9684 47.3916 34.213 47.2514C39.3545 44.293 44.4929 41.3256 49.6284 38.3612C49.706 38.3165 49.7925 38.2807 49.9386 38.2121C49.9386 39.25 49.9982 40.2162 49.9237 41.1705ZM49.9505 33.8102C49.9416 35.0211 49.2885 35.871 48.2536 36.4675C44.2335 38.7787 40.2163 41.102 36.1992 43.4222C35.4655 43.8457 34.7289 44.2662 33.9416 44.7195C33.9297 44.5197 33.9147 44.3884 33.9147 44.2542C33.9147 43.1031 33.9267 41.9489 33.9058 40.7978C33.8998 40.4697 34.0102 40.2967 34.2935 40.1327C37.9468 38.0362 41.5882 35.9157 45.2475 33.8311C45.8976 33.4613 46.1839 33.005 46.1779 32.2416C46.1511 28.2632 46.166 24.2848 46.166 20.3064V19.6116C47.1203 20.1871 48.015 20.6613 48.8322 21.2399C49.5778 21.7678 49.9535 22.567 49.9565 23.4885C49.9684 26.9301 49.9774 30.3717 49.9535 33.8132L49.9505 33.8102Z" fill="url(#paint1_radial_275_56602)"/>
</g>
<defs>
<radialGradient id="paint0_radial_275_56602" cx="0" cy="0" r="1" gradientUnits="userSpaceOnUse" gradientTransform="translate(23.5736 22.4526) rotate(47.9634) scale(39.432 83.1793)">
<stop stop-color="#A3EEF8"/>
<stop offset="0.177083" stop-color="#A4DCF5"/>
<stop offset="0.380208" stop-color="#A6AEEC"/>
<stop offset="1" stop-color="#ECBEE1"/>
</radialGradient>
<radialGradient id="paint1_radial_275_56602" cx="0" cy="0" r="1" gradientUnits="userSpaceOnUse" gradientTransform="translate(33.5606 49.321) rotate(84.8296) scale(21.4393 37.0224)">
<stop stop-color="#FCF5EE"/>
<stop offset="0.715135" stop-color="#ECBEE1" stop-opacity="0"/>
</radialGradient>
<clipPath id="clip0_275_56602">
<rect width="64" height="64" rx="32" fill="white"/>
</clipPath>
</defs>
</svg>
