<svg width="256" height="256" viewBox="0 0 256 256" fill="none" xmlns="http://www.w3.org/2000/svg">
<g clip-path="url(#clip0_1239_2)">
<circle cx="128" cy="128" r="98" fill="black"/>
<rect width="256" height="256" fill="black"/>
<path d="M128 231C184.885 231 231 184.885 231 128C231 71.1147 184.885 25 128 25C71.1147 25 25 71.1147 25 128C25 184.885 71.1147 231 128 231Z" fill="black"/>
<path d="M59.3389 68.6916C60.4646 67.2767 61.6574 65.9153 62.8503 64.5539C62.9037 64.4863 63.0247 64.4727 63.0782 64.4052C63.1856 64.2706 63.3601 64.1895 63.467 64.0545L63.5745 63.9198C64.4061 63.1512 65.2907 62.3146 66.3109 61.5858C69.9202 58.8458 73.6658 56.7643 77.6155 55.3947C90.2838 50.947 104.386 53.688 115.444 64.1279C130.885 78.6017 129.502 101.918 117.176 117.416C101.6 140.52 74.8324 172.752 111.895 201.627C118.559 206.819 123.502 211.099 144.493 217.165C130.765 219.694 118.035 218.907 103.866 215.289C93.8441 209.631 78.0873 197.519 72.7264 181.16C64.6241 156.353 86.9913 119.267 97.801 104.985C112.642 85.2171 88.6278 63.8183 70.9475 87.7079C61.7059 100.158 45.5375 135.388 51.1563 161.521C54.4416 176.34 58.8204 187.142 76.1825 201.98C72.963 200.081 69.8363 197.926 66.8035 195.515C26.4637 157.938 31.1438 99.8373 59.3389 68.6916Z" fill="url(#paint0_linear_1239_2)"/>
<path d="M196.661 187.308C195.535 188.723 194.343 190.084 193.15 191.445C193.096 191.513 192.976 191.527 192.922 191.595C192.814 191.729 192.64 191.81 192.533 191.945L192.425 192.08C191.594 192.849 190.71 193.685 189.689 194.413C186.08 197.154 182.334 199.235 178.384 200.605C165.716 205.052 151.614 202.311 140.556 191.871C125.115 177.398 126.498 154.081 138.824 138.583C154.4 115.48 181.168 83.2473 144.105 54.373C137.441 49.1811 132.498 44.9007 111.507 38.8346C125.235 36.3056 137.965 37.0923 152.133 40.7113C162.156 46.3682 177.913 58.4804 183.274 74.8395C191.376 99.6468 169.009 136.732 158.199 151.015C143.358 170.783 167.372 192.181 185.052 168.292C194.294 155.842 210.463 120.611 204.844 94.479C201.559 79.6597 197.18 68.8578 179.817 54.0191C183.037 55.9189 186.164 58.0738 189.197 60.4848C229.537 98.0615 224.856 156.163 196.661 187.308Z" fill="url(#paint1_linear_1239_2)"/>
</g>
<defs>
<linearGradient id="paint0_linear_1239_2" x1="37.36" y1="128" x2="218.64" y2="128" gradientUnits="userSpaceOnUse">
<stop stop-color="#0082FA"/>
<stop offset="1" stop-color="#00F2FE"/>
</linearGradient>
<linearGradient id="paint1_linear_1239_2" x1="37.36" y1="128" x2="218.64" y2="128" gradientUnits="userSpaceOnUse">
<stop stop-color="#0082FA"/>
<stop offset="1" stop-color="#00F2FE"/>
</linearGradient>
<clipPath id="clip0_1239_2">
<rect width="256" height="256" fill="white"/>
</clipPath>
</defs>
</svg>
