<svg width="256" height="256" viewBox="0 0 256 256" fill="none" xmlns="http://www.w3.org/2000/svg">
<g clip-path="url(#clip0_1239_2)">
<rect width="256" height="256" fill="#041F4B"/>
<path fill-rule="evenodd" clip-rule="evenodd" d="M64.3995 48C64.3995 48 101.503 69.5778 113.614 94.1452C118.016 92.9338 122.643 92.2743 127.36 92.2743C132.165 92.2743 136.876 92.9586 141.353 94.2139C153.428 69.6179 190.6 48 190.6 48C191.915 62.0208 190.686 95.6747 176.019 123.825C175.17 122.366 174.352 121.003 173.534 119.697C178.411 109.606 179.834 103.101 179.953 90.6935C177.141 101.956 175.5 108.296 170.357 114.917C167.194 110.448 163.517 106.084 157.834 99.9452L157.839 99.7829C159.729 88.3013 162.627 81.387 168.676 68.8266C156.852 82.7157 151.203 93.9845 151.373 104.027L151.276 103.933C151.352 109.622 153.291 114.917 157.032 120.069L157.745 114.668L160.972 116.644C160.571 115.426 160.17 114.411 159.793 113.457C159.386 112.425 159.006 111.465 158.686 110.397C158.728 110.432 158.77 110.467 158.813 110.503C158.802 110.467 158.791 110.432 158.78 110.397C163.417 114.254 167.587 118.66 174.593 126.467L174.5 126.632L174.409 126.543C174.743 128.354 174.917 130.195 174.917 132.057C174.917 135.059 174.464 138.82 173.617 143.064C174.946 143.834 176.255 144.89 177.107 146.547C175.311 146.577 174.072 146.727 172.702 147.2C172.654 147.401 172.605 147.603 172.555 147.806C177.418 152.51 179.624 155.847 182.798 162.09C177.807 157.932 174.65 155.36 171.089 153.233C170.929 153.782 170.765 154.335 170.595 154.891C173.331 159.736 173.86 163.308 172.608 169.467C170.255 167.429 168.562 165.996 167.058 165.2C165.953 168.101 164.748 171.021 163.454 173.908C162.584 174.749 161.886 175.663 161.196 176.565C159.35 178.981 157.56 181.323 152.692 182.014C152.954 188.69 151.48 191.616 149.913 194.727C149.127 196.286 148.318 197.892 147.693 200.039C146.458 201.484 145.197 202.829 143.915 204.059C135.982 208.035 135.569 207.838 128.161 204.321L127.234 203.881C118.928 207.816 118.33 208.026 111.285 204.512C109.601 202.943 107.955 201.173 106.354 199.238C105.77 197.48 105.068 196.086 104.383 194.727C102.816 191.616 101.342 188.69 101.603 182.014C96.7357 181.323 94.9461 178.981 93.0992 176.565C92.6368 175.96 92.1708 175.35 91.6521 174.761C90.2268 171.633 88.9062 168.461 87.7036 165.31C86.1886 166.102 84.4861 167.541 82.1122 169.6C80.856 163.42 81.3925 159.845 84.1511 154.975C83.9841 154.429 83.8213 153.885 83.6632 153.345C80.0888 155.476 76.9284 158.05 71.9218 162.223C75.1008 155.968 77.3093 152.629 82.1917 147.912C82.1447 147.722 82.0984 147.533 82.0528 147.345C80.6695 146.861 79.4242 146.709 77.6128 146.678C78.4696 145.012 79.7899 143.954 81.1269 143.182C80.2639 138.889 79.8032 135.086 79.8032 132.057C79.8032 130.209 79.9745 128.38 80.304 126.582C87.3721 118.703 91.5599 114.273 96.219 110.397C95.8983 111.465 95.5191 112.425 95.1117 113.456C94.7348 114.41 94.3338 115.426 93.9327 116.644L97.1598 114.668L97.8731 120.069C108.2 105.842 104.805 90.5348 86.3238 68.8267C92.3723 81.387 95.2713 88.3016 97.16 99.7829L97.166 99.9452C91.4835 106.084 87.8058 110.448 84.6429 114.917C79.5003 108.296 77.8588 101.956 75.0466 90.6935C75.1658 103.101 76.5892 109.606 81.4663 119.697C80.6487 121.003 79.8309 122.366 78.9821 123.824C64.3143 95.6741 63.0847 62.0207 64.3995 48ZM114.316 152.869L110.104 144.965L98.2823 142.858C98.7981 151.226 104.397 154.45 114.316 152.869ZM146.247 144.965L142.035 152.869C151.954 154.45 157.552 151.226 158.068 142.858L146.247 144.965ZM119.794 186.159C117.956 187.42 116.822 189.15 116.822 191.06C116.822 194.916 121.445 198.041 127.149 198.041C132.852 198.041 137.475 194.916 137.475 191.06C137.475 189.051 136.22 187.24 134.21 185.967C132.174 186.762 129.574 187.24 126.741 187.24C124.145 187.24 121.744 186.839 119.794 186.159Z" fill="white"/>
</g>
<defs>
<clipPath id="clip0_1239_2">
<rect width="256" height="256" fill="white"/>
</clipPath>
</defs>
</svg>
