<svg width="256" height="256" viewBox="0 0 256 256" fill="none" xmlns="http://www.w3.org/2000/svg">
<g clip-path="url(#clip0_829_2)">
<mask id="mask0_829_2" style="mask-type:luminance" maskUnits="userSpaceOnUse" x="0" y="0" width="256" height="256">
<path d="M256 0H0V256H256V0Z" fill="white"/>
</mask>
<g mask="url(#mask0_829_2)">
<path d="M256 0H0V256H256V0Z" fill="#DDDCCE"/>
<mask id="mask1_829_2" style="mask-type:luminance" maskUnits="userSpaceOnUse" x="-203" y="24" width="421" height="262">
<path d="M217.6 24.3203H-202.24V285.44H217.6V24.3203Z" fill="white"/>
</mask>
<g mask="url(#mask1_829_2)">
<path d="M210.391 157.877L217.607 151.387L185.602 121.641L182.905 107.887L164.987 93.0173L164.114 24.3203H163.193L138.397 80.8766L135.771 80.8067L116.948 24.3203H115.943L105.442 89.3192L-58.6644 99.6459L-202.24 173.188V174.971C-202.24 174.971 -181.988 194.368 -144.488 186.546C-118.047 181.035 -72.2717 142.371 -58.5176 131.734C-61.3458 186.67 -75.0303 285.433 -75.0303 285.433H-58.4018L-39.0765 174.956L-23.3288 173.964L-37.5388 285.41H-19.6507L-0.649965 172.607L71.2346 167.793L58.9485 285.339H75.3144L94.431 166.553L111.848 165.46L100.304 285.316H118.624L133.684 154.869L148.628 144.945L199.356 171.126L203.157 165.389L169.353 141.929L170.712 139.875L210.391 157.861V157.877ZM-46.9812 119.664L-42.7236 106.949L-16.6603 123.121L-46.9734 119.664H-46.9812ZM-7.47293 129.765L-3.21534 117.051L22.8479 133.223L-7.4652 129.765H-7.47293ZM20.1357 115.857L24.3934 103.142L50.4566 119.315L20.1434 115.857H20.1357ZM62.6576 124.835L66.9151 112.12L92.9783 128.292L62.6652 124.835H62.6576ZM88.3112 111.515L94.3073 99.5297L117.836 119.229L88.3112 111.515ZM156.132 105.476C155.745 105.732 155.389 106.034 155.065 106.36C154.254 107.174 153.636 108.19 153.28 109.314C153.142 109.763 153.04 110.236 152.994 110.725C152.971 110.965 152.956 111.213 152.956 111.461C152.956 111.957 153.01 112.446 153.102 112.919C152.244 111.841 151.488 110.709 150.831 109.593C150.173 108.476 149.595 107.36 149.115 106.313C147.501 102.817 146.836 100.034 146.836 100.034L147.237 99.5373C147.237 99.5373 148.142 99.6925 149.556 100.01C149.834 100.072 150.142 100.142 150.46 100.22C150.776 100.297 151.117 100.382 151.465 100.468C151.812 100.561 152.175 100.654 152.554 100.755C154.424 101.266 156.549 101.941 158.534 102.778C158.928 102.949 159.323 103.119 159.709 103.297C160.096 103.476 160.466 103.67 160.829 103.863C161.193 104.057 161.54 104.259 161.872 104.468C161.595 104.398 161.316 104.344 161.03 104.313C160.745 104.274 160.45 104.259 160.157 104.259C159.16 104.259 158.218 104.46 157.36 104.825C156.928 105.011 156.518 105.228 156.139 105.492L156.132 105.476ZM165.582 120.749C165.002 120.625 164.407 120.485 163.819 120.322C163.233 120.16 162.638 119.981 162.058 119.788C161.092 119.454 160.157 119.074 159.292 118.617C159.577 118.648 159.864 118.671 160.157 118.671C161.154 118.671 162.096 118.47 162.954 118.105C163.387 117.919 163.796 117.702 164.175 117.439C166.091 116.144 167.343 113.942 167.343 111.453C167.343 110.957 167.297 110.469 167.196 110.004C167.104 109.538 166.957 109.081 166.779 108.655C172.32 113.973 173.687 121.183 173.687 121.183L173.316 121.718C173.316 121.718 169.653 121.633 165.574 120.757L165.582 120.749Z" fill="#1B1C16"/>
</g>
</g>
</g>
<defs>
<clipPath id="clip0_829_2">
<rect width="256" height="256" fill="white"/>
</clipPath>
</defs>
</svg>
