<svg width="256" height="256" viewBox="0 0 256 256" fill="none" xmlns="http://www.w3.org/2000/svg">
<g clip-path="url(#clip0_1239_2)">
<circle cx="128" cy="128" r="98" fill="#1E1E1E"/>
<rect width="256" height="256" fill="#1E1E1E"/>
<g clip-path="url(#clip1_1239_2)">
<path d="M227.987 128.266C227.987 141.374 225.406 154.354 220.392 166.464C215.378 178.574 208.028 189.578 198.763 198.847C189.498 208.116 178.499 215.468 166.394 220.484C154.288 225.501 141.314 228.082 128.211 228.082C115.109 228.082 102.134 225.501 90.029 220.484C77.9237 215.468 66.9245 208.116 57.6595 198.847C48.3945 189.578 41.0452 178.574 36.031 166.464C31.0168 154.354 28.436 141.374 28.436 128.266C28.436 101.793 38.9481 76.4041 57.6596 57.6848C76.3711 38.9656 101.749 28.4492 128.211 28.4492C154.673 28.4492 180.052 38.9656 198.763 57.6848C217.475 76.4041 227.987 101.793 227.987 128.266Z" fill="#1E1E1E"/>
<path fill-rule="evenodd" clip-rule="evenodd" d="M128.299 46.2137C83.0497 46.2137 46.357 82.9795 46.357 128.354C46.357 173.729 83.0497 210.494 128.299 210.494C173.549 210.494 210.241 173.729 210.241 128.354C210.241 82.9958 173.549 46.2137 128.299 46.2137ZM38.048 128.354C38.048 78.3786 78.462 37.8848 128.299 37.8848C178.138 37.8848 218.552 78.3957 218.552 128.354C218.552 178.33 178.137 218.825 128.299 218.825C78.462 218.825 38.048 178.33 38.048 128.354Z" fill="#FF7B7C"/>
<path fill-rule="evenodd" clip-rule="evenodd" d="M163.928 106.799L141.162 105.849L156.633 89.0579L150.401 82.8277L133.634 98.2864L132.72 75.4648H123.929L122.982 98.2864L106.231 82.7778L100.016 89.0245L115.454 105.832L92.6709 106.732V115.561L115.437 116.51L99.966 133.301L106.198 139.532L122.699 124.306L123.431 161.287L110.253 162.253V170.465L123.63 171.482L123.879 184.325H132.67L132.936 171.498L146.446 170.465V162.253L133.135 161.287L133.883 124.323L150.368 139.565L156.583 133.335L141.162 116.527L163.928 115.611L163.928 106.799Z" fill="#FF7B7C"/>
</g>
</g>
<defs>
<clipPath id="clip0_1239_2">
<rect width="256" height="256" fill="white"/>
</clipPath>
<clipPath id="clip1_1239_2">
<rect width="200" height="200" fill="white" transform="translate(28 28)"/>
</clipPath>
</defs>
</svg>
