<svg xmlns="http://www.w3.org/2000/svg" width="24" height="24" fill="none" viewBox="0 0 73 73"><path fill="#000" d="M0 0h73v73H0z"/><path fill="#bff009" d="M36.89 25.496a3.163 3.163 0 0 1 3.154-3.162h5.644V14.64h-5.644c-5.98 0-10.829 4.861-10.829 10.856 0 1.564.332 3.051.926 4.393-4.644 1.968-7.728 6.15-8.446 11.44-.839 5.81 1.483 12.077 6.54 15.105 4.514 2.85 11.57 2.66 15.382-1.292v2.624h7.856V28.658H40.047a3.166 3.166 0 0 1-3.158-3.162m6.902 10.859v7.306c0 4.037-3.265 7.307-7.289 7.307s-7.288-3.274-7.288-7.307 3.265-7.306 7.288-7.306z"/></svg>