<svg width="256" height="256" viewBox="0 0 256 256" fill="none" xmlns="http://www.w3.org/2000/svg">
<g clip-path="url(#clip0_2615_121)">
<mask id="mask0_2615_121" style="mask-type:luminance" maskUnits="userSpaceOnUse" x="0" y="0" width="256" height="256">
<path d="M256 0H0V256H256V0Z" fill="white"/>
</mask>
<g mask="url(#mask0_2615_121)">
<path d="M256 0H0V256H256V0Z" fill="black"/>
</g>
<g clip-path="url(#clip1_2615_121)">
<path d="M86.1421 148.839L74.1479 148.869L62.3438 136.121L68.3989 129.828L86.1421 148.839Z" fill="white"/>
<path d="M52.7792 108.009V127.189L44.2773 118.266V108.009H52.7792Z" fill="white"/>
<path d="M52.7689 146.073L52.7792 148.869H44.2773V137.162L52.7689 146.073Z" fill="white"/>
<path d="M86.3304 108.069L52.7777 142.943L39.1113 128.601V115.982L52.9098 130.464L74.2491 108.069H86.3304Z" fill="#58C6B2"/>
<path d="M120.781 108.171L111.383 125.52L101.921 108.171H91.7383L106.849 133.546V148.87H115.851V133.546L130.963 108.171H120.781H120.781Z" fill="white"/>
<path d="M168.359 108.171L157.428 139.05L146.624 108.171H136.779L152.307 148.869H162.615L178.144 108.171H168.358H168.359Z" fill="white"/>
<path d="M193.173 140.794V132.349H213.081V124.394H193.173V116.246H217.518V108.171H184.111V148.869H217.999V140.794H193.173Z" fill="white"/>
</g>
</g>
<defs>
<clipPath id="clip0_2615_121">
<rect width="256" height="256" fill="white"/>
</clipPath>
<clipPath id="clip1_2615_121">
<rect width="179" height="41" fill="white" transform="translate(39 108)"/>
</clipPath>
</defs>
</svg>
