<svg width="256" height="256" viewBox="0 0 256 256" fill="none" xmlns="http://www.w3.org/2000/svg">
<g clip-path="url(#clip0_1239_2)">
<rect width="256" height="256" fill="#1E1E1E"/>
<rect width="256" height="256" fill="black"/>
<path d="M243 128.5C243 64.7111 191.289 13 127.5 13C63.7111 13 12 64.7111 12 128.5C12 192.289 63.7111 244 127.5 244C191.289 244 243 192.289 243 128.5Z" fill="black"/>
<path d="M127.589 92H127.411C120.557 92 115 86.4434 115 79.5894V79.4107C115 72.5567 120.557 67 127.411 67H127.589C134.443 67 140 72.5567 140 79.4107V79.5894C140 86.4434 134.443 92 127.589 92Z" fill="white"/>
<path d="M127.589 142H127.411C120.557 142 115 136.443 115 129.589V129.411C115 122.557 120.557 117 127.411 117H127.589C134.443 117 140 122.557 140 129.411V129.589C140 136.443 134.443 142 127.589 142Z" fill="white"/>
<path d="M90 129.411V129.589C90 136.443 84.4427 142 77.5892 142H77.4105C70.5566 142 65 136.443 65 129.589V129.411C65 122.557 70.5566 117 77.4105 117H77.5892C84.4427 117 90 122.557 90 129.411Z" fill="white"/>
<path d="M127.411 164H127.59C134.443 164 140 169.557 140 176.411V176.589C140 183.443 134.443 189 127.59 189H127.411C120.557 189 115 183.443 115 176.589V176.411C115 169.557 120.557 164 127.411 164Z" fill="white"/>
<path d="M165 129.589V129.411C165 122.557 170.557 117 177.411 117H177.589C184.443 117 190 122.557 190 129.411V129.589C190 136.443 184.443 142 177.589 142H177.411C170.557 142 165 136.443 165 129.589Z" fill="white"/>
<path d="M94.0004 170C98.4186 170 102 166.418 102 162C102 157.581 98.4186 154 94.0004 154C89.5821 154 86 157.581 86 162C86 166.418 89.5821 170 94.0004 170Z" fill="white"/>
<path d="M94.0004 99C98.4186 99 102 95.4179 102 90.9996C102 86.5814 98.4186 83 94.0004 83C89.5821 83 86 86.5814 86 90.9996C86 95.4179 89.5821 99 94.0004 99Z" fill="white"/>
<path d="M160 99C164.419 99 168 95.4179 168 90.9996C168 86.5814 164.419 83 160 83C155.582 83 152 86.5814 152 90.9996C152 95.4179 155.582 99 160 99Z" fill="white"/>
<path d="M160 170C164.418 170 168 166.419 168 162C168 157.582 164.418 154 160 154C155.582 154 152 157.582 152 162C152 166.419 155.582 170 160 170Z" fill="white"/>
<g opacity="0.8" filter="url(#filter0_f_1239_2)">
<path d="M127.384 92.4675H127.204C120.327 92.4675 114.752 86.8925 114.752 80.0158V79.8365C114.752 72.9599 120.327 67.3848 127.204 67.3848H127.384C134.26 67.3848 139.835 72.9599 139.835 79.8365V80.0158C139.835 86.8925 134.26 92.4675 127.384 92.4675Z" fill="white"/>
<path d="M127.384 141.821H127.204C120.327 141.821 114.752 136.246 114.752 129.37V129.19C114.752 122.313 120.327 116.738 127.204 116.738H127.384C134.26 116.738 139.835 122.313 139.835 129.19V129.37C139.835 136.246 134.26 141.821 127.384 141.821Z" fill="white"/>
<path d="M90.4815 129.19V129.37C90.4815 136.246 84.9058 141.821 78.0295 141.821H77.8502C70.9735 141.821 65.3984 136.246 65.3984 129.37V129.19C65.3984 122.313 70.9735 116.738 77.8502 116.738H78.0295C84.9058 116.738 90.4815 122.313 90.4815 129.19Z" fill="white"/>
<path d="M127.203 163.884H127.382C134.258 163.884 139.832 169.459 139.832 176.334V176.513C139.832 183.389 134.258 188.963 127.382 188.963H127.203C120.327 188.963 114.752 183.389 114.752 176.513V176.334C114.752 169.459 120.327 163.884 127.203 163.884Z" fill="white"/>
<path d="M165.291 129.37V129.19C165.291 122.313 170.866 116.738 177.742 116.738H177.922C184.799 116.738 190.374 122.313 190.374 129.19V129.37C190.374 136.246 184.799 141.821 177.922 141.821H177.742C170.866 141.821 165.291 136.246 165.291 129.37Z" fill="white"/>
<path d="M93.899 169.92C98.2749 169.92 101.822 166.372 101.822 161.996C101.822 157.62 98.2749 154.073 93.899 154.073C89.5231 154.073 85.9753 157.62 85.9753 161.996C85.9753 166.372 89.5231 169.92 93.899 169.92Z" fill="white"/>
<path d="M93.899 99.0946C98.2749 99.0946 101.822 95.5469 101.822 91.171C101.822 86.7951 98.2749 83.248 93.899 83.248C89.5231 83.248 85.9753 86.7951 85.9753 91.171C85.9753 95.5469 89.5231 99.0946 93.899 99.0946Z" fill="white"/>
<path d="M159.693 99.0946C164.068 99.0946 167.616 95.5469 167.616 91.171C167.616 86.7951 164.068 83.248 159.693 83.248C155.317 83.248 151.769 86.7951 151.769 91.171C151.769 95.5469 155.317 99.0946 159.693 99.0946Z" fill="white"/>
<path d="M159.709 169.922C164.085 169.922 167.633 166.375 167.633 161.999C167.633 157.623 164.085 154.075 159.709 154.075C155.334 154.075 151.786 157.623 151.786 161.999C151.786 166.375 155.334 169.922 159.709 169.922Z" fill="white"/>
</g>
<g opacity="0.5" filter="url(#filter1_f_1239_2)">
<path d="M127.384 92.4675H127.204C120.327 92.4675 114.752 86.8925 114.752 80.0158V79.8365C114.752 72.9599 120.327 67.3848 127.204 67.3848H127.384C134.26 67.3848 139.835 72.9599 139.835 79.8365V80.0158C139.835 86.8925 134.26 92.4675 127.384 92.4675Z" fill="white"/>
<path d="M127.384 141.821H127.204C120.327 141.821 114.752 136.246 114.752 129.37V129.19C114.752 122.313 120.327 116.738 127.204 116.738H127.384C134.26 116.738 139.835 122.313 139.835 129.19V129.37C139.835 136.246 134.26 141.821 127.384 141.821Z" fill="white"/>
<path d="M90.4815 129.19V129.37C90.4815 136.246 84.9058 141.821 78.0295 141.821H77.8502C70.9735 141.821 65.3984 136.246 65.3984 129.37V129.19C65.3984 122.313 70.9735 116.738 77.8502 116.738H78.0295C84.9058 116.738 90.4815 122.313 90.4815 129.19Z" fill="white"/>
<path d="M127.203 163.884H127.382C134.258 163.884 139.832 169.459 139.832 176.334V176.513C139.832 183.389 134.258 188.963 127.382 188.963H127.203C120.327 188.963 114.752 183.389 114.752 176.513V176.334C114.752 169.459 120.327 163.884 127.203 163.884Z" fill="white"/>
<path d="M165.291 129.37V129.19C165.291 122.313 170.866 116.738 177.742 116.738H177.922C184.799 116.738 190.374 122.313 190.374 129.19V129.37C190.374 136.246 184.799 141.821 177.922 141.821H177.742C170.866 141.821 165.291 136.246 165.291 129.37Z" fill="white"/>
<path d="M93.899 169.92C98.2749 169.92 101.822 166.372 101.822 161.996C101.822 157.62 98.2749 154.073 93.899 154.073C89.5231 154.073 85.9753 157.62 85.9753 161.996C85.9753 166.372 89.5231 169.92 93.899 169.92Z" fill="white"/>
<path d="M93.899 99.0946C98.2749 99.0946 101.822 95.5469 101.822 91.171C101.822 86.7951 98.2749 83.248 93.899 83.248C89.5231 83.248 85.9753 86.7951 85.9753 91.171C85.9753 95.5469 89.5231 99.0946 93.899 99.0946Z" fill="white"/>
<path d="M159.693 99.0946C164.068 99.0946 167.616 95.5469 167.616 91.171C167.616 86.7951 164.068 83.248 159.693 83.248C155.317 83.248 151.769 86.7951 151.769 91.171C151.769 95.5469 155.317 99.0946 159.693 99.0946Z" fill="white"/>
<path d="M159.709 169.922C164.085 169.922 167.633 166.375 167.633 161.999C167.633 157.623 164.085 154.075 159.709 154.075C155.334 154.075 151.786 157.623 151.786 161.999C151.786 166.375 155.334 169.922 159.709 169.922Z" fill="white"/>
</g>
<g opacity="0.1" filter="url(#filter2_f_1239_2)">
<path d="M126.612 93.0295H126.433C119.556 93.0295 113.981 87.4545 113.981 80.5778V80.3984C113.981 73.5218 119.556 67.9468 126.433 67.9468H126.612C133.489 67.9468 139.064 73.5218 139.064 80.3984V80.5778C139.064 87.4545 133.489 93.0295 126.612 93.0295Z" fill="white"/>
<path d="M126.612 142.383H126.433C119.556 142.383 113.981 136.808 113.981 129.932V129.752C113.981 122.875 119.556 117.3 126.433 117.3H126.612C133.489 117.3 139.064 122.875 139.064 129.752V129.932C139.064 136.808 133.489 142.383 126.612 142.383Z" fill="white"/>
<path d="M89.7098 129.752V129.932C89.7098 136.808 84.1347 142.383 77.2578 142.383H77.0785C70.2019 142.383 64.6268 136.808 64.6268 129.932V129.752C64.6268 122.875 70.2019 117.3 77.0785 117.3H77.2578C84.1347 117.3 89.7098 122.875 89.7098 129.752Z" fill="white"/>
<path d="M126.431 164.446H126.611C133.486 164.446 139.06 170.02 139.06 176.896V177.076C139.06 183.951 133.486 189.526 126.611 189.526H126.431C119.555 189.526 113.981 183.951 113.981 177.076V176.896C113.981 170.02 119.555 164.446 126.431 164.446Z" fill="white"/>
<path d="M164.519 129.932V129.752C164.519 122.875 170.094 117.3 176.97 117.3H177.15C184.027 117.3 189.602 122.875 189.602 129.752V129.932C189.602 136.808 184.027 142.383 177.15 142.383H176.97C170.094 142.383 164.519 136.808 164.519 129.932Z" fill="white"/>
<path d="M93.1272 170.482C97.5031 170.482 101.05 166.934 101.05 162.558C101.05 158.182 97.5031 154.635 93.1272 154.635C88.7513 154.635 85.2042 158.182 85.2042 162.558C85.2042 166.934 88.7513 170.482 93.1272 170.482Z" fill="white"/>
<path d="M93.1272 99.6567C97.5031 99.6567 101.05 96.1089 101.05 91.733C101.05 87.3571 97.5031 83.8101 93.1272 83.8101C88.7513 83.8101 85.2042 87.3571 85.2042 91.733C85.2042 96.1089 88.7513 99.6567 93.1272 99.6567Z" fill="white"/>
<path d="M158.921 99.6567C163.297 99.6567 166.844 96.1089 166.844 91.733C166.844 87.3571 163.297 83.8101 158.921 83.8101C154.545 83.8101 150.997 87.3571 150.997 91.733C150.997 96.1089 154.545 99.6567 158.921 99.6567Z" fill="white"/>
<path d="M158.937 170.484C163.313 170.484 166.861 166.937 166.861 162.561C166.861 158.185 163.313 154.637 158.937 154.637C154.561 154.637 151.014 158.185 151.014 162.561C151.014 166.937 154.561 170.484 158.937 170.484Z" fill="white"/>
</g>
<g opacity="0.3" filter="url(#filter3_f_1239_2)">
<path d="M127.384 92.4675H127.204C120.327 92.4675 114.752 86.8925 114.752 80.0158V79.8365C114.752 72.9599 120.327 67.3848 127.204 67.3848H127.384C134.26 67.3848 139.835 72.9599 139.835 79.8365V80.0158C139.835 86.8925 134.26 92.4675 127.384 92.4675Z" fill="white"/>
<path d="M127.384 141.821H127.204C120.327 141.821 114.752 136.246 114.752 129.37V129.19C114.752 122.313 120.327 116.738 127.204 116.738H127.384C134.26 116.738 139.835 122.313 139.835 129.19V129.37C139.835 136.246 134.26 141.821 127.384 141.821Z" fill="white"/>
<path d="M90.4813 129.19V129.37C90.4813 136.246 84.9063 141.821 78.0294 141.821H77.85C70.9734 141.821 65.3983 136.246 65.3983 129.37V129.19C65.3983 122.313 70.9734 116.738 77.85 116.738H78.0294C84.9063 116.738 90.4813 122.313 90.4813 129.19Z" fill="white"/>
<path d="M127.203 163.884H127.382C134.258 163.884 139.832 169.459 139.832 176.334V176.513C139.832 183.389 134.258 188.963 127.382 188.963H127.203C120.327 188.963 114.752 183.389 114.752 176.513V176.334C114.752 169.459 120.327 163.884 127.203 163.884Z" fill="white"/>
<path d="M165.29 129.37V129.19C165.29 122.313 170.865 116.738 177.742 116.738H177.921C184.798 116.738 190.373 122.313 190.373 129.19V129.37C190.373 136.246 184.798 141.821 177.921 141.821H177.742C170.865 141.821 165.29 136.246 165.29 129.37Z" fill="white"/>
<path d="M93.8989 169.92C98.2748 169.92 101.822 166.372 101.822 161.996C101.822 157.62 98.2748 154.073 93.8989 154.073C89.523 154.073 85.9752 157.62 85.9752 161.996C85.9752 166.372 89.523 169.92 93.8989 169.92Z" fill="white"/>
<path d="M93.8989 99.0946C98.2748 99.0946 101.822 95.5469 101.822 91.171C101.822 86.7951 98.2748 83.248 93.8989 83.248C89.523 83.248 85.9752 86.7951 85.9752 91.171C85.9752 95.5469 89.523 99.0946 93.8989 99.0946Z" fill="white"/>
<path d="M159.692 99.0946C164.068 99.0946 167.615 95.5469 167.615 91.171C167.615 86.7951 164.068 83.248 159.692 83.248C155.317 83.248 151.769 86.7951 151.769 91.171C151.769 95.5469 155.317 99.0946 159.692 99.0946Z" fill="white"/>
<path d="M159.71 169.922C164.085 169.922 167.633 166.375 167.633 161.999C167.633 157.623 164.085 154.075 159.71 154.075C155.334 154.075 151.786 157.623 151.786 161.999C151.786 166.375 155.334 169.922 159.71 169.922Z" fill="white"/>
<g opacity="0.8" filter="url(#filter4_f_1239_2)">
<path d="M127.383 92.4675H127.204C120.327 92.4675 114.752 86.8925 114.752 80.0158V79.8365C114.752 72.9599 120.327 67.3848 127.204 67.3848H127.383C134.26 67.3848 139.835 72.9599 139.835 79.8365V80.0158C139.835 86.8925 134.26 92.4675 127.383 92.4675Z" fill="white"/>
<path d="M127.383 141.821H127.204C120.327 141.821 114.752 136.246 114.752 129.37V129.19C114.752 122.313 120.327 116.738 127.204 116.738H127.383C134.26 116.738 139.835 122.313 139.835 129.19V129.37C139.835 136.246 134.26 141.821 127.383 141.821Z" fill="white"/>
<path d="M90.4813 129.19V129.37C90.4813 136.246 84.9063 141.821 78.0294 141.821H77.85C70.9734 141.821 65.3983 136.246 65.3983 129.37V129.19C65.3983 122.313 70.9734 116.738 77.85 116.738H78.0294C84.9063 116.738 90.4813 122.313 90.4813 129.19Z" fill="white"/>
<path d="M127.203 163.884H127.382C134.258 163.884 139.832 169.459 139.832 176.334V176.513C139.832 183.389 134.258 188.963 127.382 188.963H127.203C120.327 188.963 114.752 183.389 114.752 176.513V176.334C114.752 169.459 120.327 163.884 127.203 163.884Z" fill="white"/>
<path d="M165.29 129.37V129.19C165.29 122.313 170.865 116.738 177.742 116.738H177.921C184.798 116.738 190.373 122.313 190.373 129.19V129.37C190.373 136.246 184.798 141.821 177.921 141.821H177.742C170.865 141.821 165.29 136.246 165.29 129.37Z" fill="white"/>
<path d="M93.8987 169.92C98.2746 169.92 101.822 166.372 101.822 161.996C101.822 157.62 98.2746 154.073 93.8987 154.073C89.5228 154.073 85.9751 157.62 85.9751 161.996C85.9751 166.372 89.5228 169.92 93.8987 169.92Z" fill="white"/>
<path d="M93.8987 99.0946C98.2746 99.0946 101.822 95.5469 101.822 91.171C101.822 86.7951 98.2746 83.248 93.8987 83.248C89.5228 83.248 85.9751 86.7951 85.9751 91.171C85.9751 95.5469 89.5228 99.0946 93.8987 99.0946Z" fill="white"/>
<path d="M159.692 99.0946C164.068 99.0946 167.615 95.5469 167.615 91.171C167.615 86.7951 164.068 83.248 159.692 83.248C155.316 83.248 151.769 86.7951 151.769 91.171C151.769 95.5469 155.316 99.0946 159.692 99.0946Z" fill="white"/>
<path d="M159.71 169.922C164.085 169.922 167.632 166.375 167.632 161.999C167.632 157.623 164.085 154.075 159.71 154.075C155.334 154.075 151.786 157.623 151.786 161.999C151.786 166.375 155.334 169.922 159.71 169.922Z" fill="white"/>
</g>
<g opacity="0.5" filter="url(#filter5_f_1239_2)">
<path d="M127.383 92.4675H127.204C120.327 92.4675 114.752 86.8925 114.752 80.0158V79.8365C114.752 72.9599 120.327 67.3848 127.204 67.3848H127.383C134.26 67.3848 139.835 72.9599 139.835 79.8365V80.0158C139.835 86.8925 134.26 92.4675 127.383 92.4675Z" fill="white"/>
<path d="M127.383 141.821H127.204C120.327 141.821 114.752 136.246 114.752 129.37V129.19C114.752 122.313 120.327 116.738 127.204 116.738H127.383C134.26 116.738 139.835 122.313 139.835 129.19V129.37C139.835 136.246 134.26 141.821 127.383 141.821Z" fill="white"/>
<path d="M90.4813 129.19V129.37C90.4813 136.246 84.9063 141.821 78.0294 141.821H77.85C70.9734 141.821 65.3983 136.246 65.3983 129.37V129.19C65.3983 122.313 70.9734 116.738 77.85 116.738H78.0294C84.9063 116.738 90.4813 122.313 90.4813 129.19Z" fill="white"/>
<path d="M127.203 163.884H127.382C134.258 163.884 139.832 169.459 139.832 176.334V176.513C139.832 183.389 134.258 188.963 127.382 188.963H127.203C120.327 188.963 114.752 183.389 114.752 176.513V176.334C114.752 169.459 120.327 163.884 127.203 163.884Z" fill="white"/>
<path d="M165.29 129.37V129.19C165.29 122.313 170.865 116.738 177.742 116.738H177.921C184.798 116.738 190.373 122.313 190.373 129.19V129.37C190.373 136.246 184.798 141.821 177.921 141.821H177.742C170.865 141.821 165.29 136.246 165.29 129.37Z" fill="white"/>
<path d="M93.8987 169.92C98.2746 169.92 101.822 166.372 101.822 161.996C101.822 157.62 98.2746 154.073 93.8987 154.073C89.5228 154.073 85.9751 157.62 85.9751 161.996C85.9751 166.372 89.5228 169.92 93.8987 169.92Z" fill="white"/>
<path d="M93.8987 99.0946C98.2746 99.0946 101.822 95.5469 101.822 91.171C101.822 86.7951 98.2746 83.248 93.8987 83.248C89.5228 83.248 85.9751 86.7951 85.9751 91.171C85.9751 95.5469 89.5228 99.0946 93.8987 99.0946Z" fill="white"/>
<path d="M159.692 99.0946C164.068 99.0946 167.615 95.5469 167.615 91.171C167.615 86.7951 164.068 83.248 159.692 83.248C155.316 83.248 151.769 86.7951 151.769 91.171C151.769 95.5469 155.316 99.0946 159.692 99.0946Z" fill="white"/>
<path d="M159.71 169.922C164.085 169.922 167.632 166.375 167.632 161.999C167.632 157.623 164.085 154.075 159.71 154.075C155.334 154.075 151.786 157.623 151.786 161.999C151.786 166.375 155.334 169.922 159.71 169.922Z" fill="white"/>
</g>
<g opacity="0.1" filter="url(#filter6_f_1239_2)">
<path d="M126.612 93.0295H126.433C119.556 93.0295 113.981 87.4545 113.981 80.5778V80.3984C113.981 73.5218 119.556 67.9468 126.433 67.9468H126.612C133.489 67.9468 139.064 73.5218 139.064 80.3984V80.5778C139.064 87.4545 133.489 93.0295 126.612 93.0295Z" fill="white"/>
<path d="M126.612 142.383H126.433C119.556 142.383 113.981 136.808 113.981 129.932V129.752C113.981 122.875 119.556 117.3 126.433 117.3H126.612C133.489 117.3 139.064 122.875 139.064 129.752V129.932C139.064 136.808 133.489 142.383 126.612 142.383Z" fill="white"/>
<path d="M89.7098 129.752V129.932C89.7098 136.808 84.1347 142.383 77.2579 142.383H77.0786C70.2019 142.383 64.6268 136.808 64.6268 129.932V129.752C64.6268 122.875 70.2019 117.3 77.0786 117.3H77.2579C84.1347 117.3 89.7098 122.875 89.7098 129.752Z" fill="white"/>
<path d="M126.431 164.446H126.611C133.486 164.446 139.06 170.02 139.06 176.896V177.076C139.06 183.951 133.486 189.526 126.611 189.526H126.431C119.555 189.526 113.981 183.951 113.981 177.076V176.896C113.981 170.02 119.555 164.446 126.431 164.446Z" fill="white"/>
<path d="M164.519 129.932V129.752C164.519 122.875 170.094 117.3 176.97 117.3H177.15C184.027 117.3 189.602 122.875 189.602 129.752V129.932C189.602 136.808 184.027 142.383 177.15 142.383H176.97C170.094 142.383 164.519 136.808 164.519 129.932Z" fill="white"/>
<path d="M93.1272 170.482C97.5031 170.482 101.05 166.934 101.05 162.558C101.05 158.182 97.5031 154.635 93.1272 154.635C88.7513 154.635 85.2042 158.182 85.2042 162.558C85.2042 166.934 88.7513 170.482 93.1272 170.482Z" fill="white"/>
<path d="M93.1272 99.6567C97.5031 99.6567 101.05 96.1089 101.05 91.733C101.05 87.3571 97.5031 83.8101 93.1272 83.8101C88.7513 83.8101 85.2042 87.3571 85.2042 91.733C85.2042 96.1089 88.7513 99.6567 93.1272 99.6567Z" fill="white"/>
<path d="M158.921 99.6567C163.297 99.6567 166.844 96.1089 166.844 91.733C166.844 87.3571 163.297 83.8101 158.921 83.8101C154.545 83.8101 150.997 87.3571 150.997 91.733C150.997 96.1089 154.545 99.6567 158.921 99.6567Z" fill="white"/>
<path d="M158.938 170.484C163.313 170.484 166.861 166.937 166.861 162.561C166.861 158.185 163.313 154.637 158.938 154.637C154.562 154.637 151.015 158.185 151.015 162.561C151.015 166.937 154.562 170.484 158.938 170.484Z" fill="white"/>
</g>
</g>
</g>
<defs>
<filter id="filter0_f_1239_2" x="54.2108" y="56.1971" width="147.351" height="143.954" filterUnits="userSpaceOnUse" color-interpolation-filters="sRGB">
<feFlood flood-opacity="0" result="BackgroundImageFix"/>
<feBlend mode="normal" in="SourceGraphic" in2="BackgroundImageFix" result="shape"/>
<feGaussianBlur stdDeviation="5.59384" result="effect1_foregroundBlur_1239_2"/>
</filter>
<filter id="filter1_f_1239_2" x="63.1609" y="65.1472" width="129.45" height="126.054" filterUnits="userSpaceOnUse" color-interpolation-filters="sRGB">
<feFlood flood-opacity="0" result="BackgroundImageFix"/>
<feBlend mode="normal" in="SourceGraphic" in2="BackgroundImageFix" result="shape"/>
<feGaussianBlur stdDeviation="1.11877" result="effect1_foregroundBlur_1239_2"/>
</filter>
<filter id="filter2_f_1239_2" x="40.014" y="43.334" width="174.201" height="170.804" filterUnits="userSpaceOnUse" color-interpolation-filters="sRGB">
<feFlood flood-opacity="0" result="BackgroundImageFix"/>
<feBlend mode="normal" in="SourceGraphic" in2="BackgroundImageFix" result="shape"/>
<feGaussianBlur stdDeviation="12.3064" result="effect1_foregroundBlur_1239_2"/>
</filter>
<filter id="filter3_f_1239_2" x="30.6268" y="33.3848" width="193.747" height="190.141" filterUnits="userSpaceOnUse" color-interpolation-filters="sRGB">
<feFlood flood-opacity="0" result="BackgroundImageFix"/>
<feBlend mode="normal" in="SourceGraphic" in2="BackgroundImageFix" result="shape"/>
<feGaussianBlur stdDeviation="17" result="effect1_foregroundBlur_1239_2"/>
</filter>
<filter id="filter4_f_1239_2" x="54.2106" y="56.1971" width="147.35" height="143.954" filterUnits="userSpaceOnUse" color-interpolation-filters="sRGB">
<feFlood flood-opacity="0" result="BackgroundImageFix"/>
<feBlend mode="normal" in="SourceGraphic" in2="BackgroundImageFix" result="shape"/>
<feGaussianBlur stdDeviation="5.59384" result="effect1_foregroundBlur_1239_2"/>
</filter>
<filter id="filter5_f_1239_2" x="63.1608" y="65.1472" width="129.45" height="126.054" filterUnits="userSpaceOnUse" color-interpolation-filters="sRGB">
<feFlood flood-opacity="0" result="BackgroundImageFix"/>
<feBlend mode="normal" in="SourceGraphic" in2="BackgroundImageFix" result="shape"/>
<feGaussianBlur stdDeviation="1.11877" result="effect1_foregroundBlur_1239_2"/>
</filter>
<filter id="filter6_f_1239_2" x="40.014" y="43.334" width="174.201" height="170.804" filterUnits="userSpaceOnUse" color-interpolation-filters="sRGB">
<feFlood flood-opacity="0" result="BackgroundImageFix"/>
<feBlend mode="normal" in="SourceGraphic" in2="BackgroundImageFix" result="shape"/>
<feGaussianBlur stdDeviation="12.3064" result="effect1_foregroundBlur_1239_2"/>
</filter>
<clipPath id="clip0_1239_2">
<rect width="256" height="256" fill="white"/>
</clipPath>
</defs>
</svg>
