<svg width="256" height="256" viewBox="0 0 256 256" fill="none" xmlns="http://www.w3.org/2000/svg">
<g clip-path="url(#clip0_1094_16)">
<path d="M256 0H0V256H256V0Z" fill="#6E54FF"/>
<path d="M127.999 40C102.587 40 40 102.586 40 128C40 153.413 102.587 216 127.999 216C153.412 216 216 153.412 216 128C216 102.587 153.413 40 127.999 40ZM114.286 178.321C103.57 175.4 74.7589 125.002 77.6796 114.286C80.6003 103.569 130.998 74.7588 141.713 77.6793C152.43 80.5997 181.241 130.997 178.321 141.714C175.4 152.43 125.003 181.241 114.286 178.321Z" fill="white"/>
</g>
<defs>
<clipPath id="clip0_1094_16">
<rect width="256" height="256" fill="white"/>
</clipPath>
</defs>
</svg>
