<svg width="256" height="256" viewBox="0 0 256 256" fill="none" xmlns="http://www.w3.org/2000/svg">
<g clip-path="url(#clip0_1239_2)">
<rect width="256" height="256" fill="#1E1E1E"/>
<rect width="256" height="256" fill="#06353D"/>
<path d="M128 252.5C196.483 252.5 252 196.983 252 128.5C252 60.0167 196.483 4.5 128 4.5C59.5167 4.5 4 60.0167 4 128.5C4 196.983 59.5167 252.5 128 252.5Z" fill="#06353D"/>
<path d="M214.664 128.606C214.664 81.2297 176.084 42.8252 128.5 42.8252C80.917 42.8252 42.3271 81.2297 42.3271 128.606C42.3271 138.401 43.9801 147.809 47.0136 156.577C47.0331 156.616 47.1983 157.119 47.1983 157.119C48.4235 161 42.3467 162.519 42.3467 164.843C42.3467 168.482 55.1613 167.988 55.1613 172.218C55.1613 175.905 42.4828 177.047 42.4828 180.764C42.4828 185.903 70.5525 184.112 70.9123 188.527C71.1844 191.934 61.2575 192.146 61.1992 195.785C61.102 201.603 99.507 199.694 99.507 203.566C99.507 206.499 82.0351 205.434 82.0351 208.9C82.0351 212.364 105.03 214.551 130.377 214.551C155.724 214.551 173.206 211.746 173.206 208.715C173.206 205.687 156.891 206.305 157.231 203.576C157.815 198.805 194.032 201.244 194.032 195.717C194.032 192.805 184.076 192.127 184.397 188.99C184.854 184.559 214.664 185.216 214.664 180.609C214.664 176.99 199.886 176.099 199.914 172.334C199.934 168.491 214.664 168.656 214.566 165.055C214.488 162.288 207.975 162.355 210.017 156.49C213.03 147.75 214.684 138.372 214.684 128.606H214.664ZM187.284 152.967C184.29 159.714 177.561 158.358 176.803 161.194C176.016 164.127 185.097 164.553 185.097 167.62C185.097 171.347 157.416 169.857 157.688 174.774C157.863 177.87 177.347 178.393 176.978 181.626C176.444 186.31 146.789 183.968 146.497 188.459C146.283 191.749 160.975 191.865 161.004 194.866C161.034 197.391 149.472 198.766 127.324 198.766C102.103 198.766 89.8328 197.411 91.2329 194.595C92.5357 191.962 114.869 192.447 114.645 188.304C114.422 184.171 74.9861 185.38 73.7999 181.364C72.8082 178.025 86.7604 177.337 86.673 174.163C86.5854 170.931 68.8122 171.666 68.4233 167.746C68.1705 165.182 77.7085 165.336 77.3001 162.104C76.9986 159.753 73.061 160.081 70.7275 155.232C66.9647 147.131 64.8452 138.111 64.8452 128.597C64.8452 93.599 93.3525 65.2215 128.51 65.2215C163.667 65.2215 192.175 93.599 192.175 128.597C192.175 137.23 190.434 145.457 187.294 152.957L187.284 152.967Z" fill="white"/>
<path fill-rule="evenodd" clip-rule="evenodd" d="M47.0137 156.578C43.9802 147.809 42.3273 138.401 42.3273 128.607C42.3273 81.2302 80.9172 42.8257 128.5 42.8257C176.084 42.8257 214.664 81.2302 214.664 128.607H214.684C214.684 128.838 214.682 129.069 214.681 129.299C214.605 138.816 212.959 147.958 210.017 156.491C208.75 160.128 210.773 161.483 212.512 162.648C213.579 163.361 214.537 164.005 214.566 165.056C214.614 166.83 211.062 167.691 207.442 168.566C203.718 169.468 199.925 170.386 199.914 172.334C199.9 174.236 203.665 175.405 207.394 176.563C211.046 177.696 214.664 178.818 214.664 180.61C214.664 182.943 207.018 183.925 199.41 184.903C191.997 185.857 184.623 186.804 184.397 188.991C184.233 190.603 186.782 191.565 189.3 192.515C191.68 193.414 194.032 194.303 194.032 195.718C194.032 198.588 184.259 199.311 174.784 200.01C166.02 200.656 157.512 201.284 157.231 203.576C157.065 204.912 160.883 205.445 164.828 205.997C168.948 206.574 173.206 207.169 173.206 208.716C173.206 211.746 155.724 214.552 130.377 214.552C105.03 214.552 82.0352 212.365 82.0352 208.9C82.0352 207.095 86.7749 206.52 91.317 205.968C95.4957 205.459 99.5071 204.973 99.5071 203.567C99.5071 201.828 91.76 201.256 83.2338 200.625C72.7759 199.85 61.1457 198.99 61.1993 195.786C61.2286 193.952 63.7622 192.988 66.2348 192.049C68.6708 191.122 71.0475 190.217 70.9124 188.527C70.7397 186.408 64.1854 185.72 57.4142 185.007C50.0759 184.235 42.4829 183.437 42.4829 180.765C42.4829 178.903 45.6649 177.687 48.8409 176.473C52.0042 175.265 55.1614 174.058 55.1614 172.218C55.1614 170.025 51.7125 169.101 48.3932 168.213C45.3143 167.388 42.3468 166.595 42.3468 164.843C42.3468 163.895 43.3614 163.079 44.4779 162.182C46.0938 160.885 47.9229 159.415 47.1985 157.12C47.1985 157.12 47.0332 156.616 47.0137 156.578ZM46.5405 157.332C46.7828 158.103 46.6665 158.729 46.3514 159.304C46.0183 159.911 45.4567 160.469 44.786 161.036C44.5677 161.221 44.3282 161.415 44.085 161.61C43.6325 161.974 43.1669 162.348 42.7982 162.703C42.2303 163.25 41.6555 163.957 41.6555 164.843C41.6555 165.528 41.9657 166.088 42.4142 166.527C42.8499 166.953 43.4362 167.289 44.0698 167.57C45.2328 168.084 46.7386 168.487 48.201 168.878C48.3261 168.912 48.4509 168.945 48.5752 168.979C50.1914 169.413 51.7218 169.844 52.8485 170.412C54.0027 170.994 54.4701 171.581 54.4701 172.218C54.4701 172.463 54.3695 172.728 54.0995 173.032C53.8233 173.345 53.3999 173.663 52.8361 173.987C51.7048 174.638 50.1774 175.222 48.5758 175.834L48.5552 175.842C46.9929 176.439 45.3592 177.062 44.1183 177.78C43.493 178.142 42.9259 178.55 42.5091 179.024C42.0858 179.505 41.7916 180.086 41.7916 180.765C41.7916 181.775 42.4938 182.493 43.3399 182.989C44.1981 183.494 45.3763 183.882 46.7155 184.198C49.4035 184.835 52.9697 185.235 56.4903 185.607C56.7716 185.636 57.0528 185.666 57.3333 185.695C60.5881 186.038 63.7503 186.37 66.184 186.853C67.5095 187.117 68.5672 187.416 69.2897 187.762C70.0571 188.129 70.2109 188.431 70.2234 188.583C70.2584 189.026 69.9914 189.476 69.153 189.998C68.3302 190.51 67.1873 190.945 65.9397 191.42L65.9344 191.421C64.7245 191.881 63.4172 192.381 62.4136 193.008C61.4211 193.63 60.5288 194.501 60.5082 195.773C60.4886 196.941 61.4382 197.723 62.5126 198.253C63.6371 198.805 65.2017 199.238 67.0117 199.591C70.6439 200.299 75.4747 200.729 80.264 201.096C81.2458 201.172 82.2257 201.243 83.194 201.316C86.9719 201.595 90.5743 201.862 93.421 202.223C95.2133 202.451 96.6621 202.71 97.6503 203.021C98.1488 203.178 98.4811 203.331 98.6755 203.471C98.7526 203.525 98.791 203.564 98.8091 203.587C98.8042 203.596 98.7953 203.61 98.7794 203.629C98.7278 203.692 98.6224 203.782 98.428 203.886C98.036 204.099 97.4287 204.295 96.6264 204.475C95.1606 204.802 93.2353 205.036 91.2248 205.281C91.0463 205.303 90.8671 205.325 90.6876 205.346C88.5146 205.611 86.2811 205.9 84.5888 206.348C83.7467 206.571 82.981 206.847 82.4117 207.214C81.8442 207.58 81.344 208.127 81.344 208.9C81.344 209.741 82.0251 210.333 82.7277 210.737C83.4827 211.173 84.5471 211.562 85.8435 211.914C88.4472 212.62 92.1554 213.222 96.6255 213.713C105.575 214.697 117.688 215.245 130.377 215.245C143.072 215.245 153.814 214.542 161.395 213.456C165.18 212.913 168.206 212.272 170.3 211.562C171.343 211.208 172.194 210.826 172.8 210.405C173.376 210.004 173.897 209.449 173.897 208.716C173.897 207.98 173.392 207.476 172.871 207.15C172.339 206.817 171.625 206.561 170.842 206.351C169.267 205.926 167.192 205.628 165.186 205.348L164.946 205.314C162.998 205.042 161.133 204.781 159.752 204.433C159.028 204.252 158.5 204.06 158.178 203.864C158.018 203.768 157.949 203.694 157.923 203.657C157.922 203.655 157.92 203.652 157.919 203.651C157.93 203.584 157.979 203.465 158.181 203.297C158.397 203.119 158.739 202.93 159.226 202.742C160.201 202.369 161.606 202.06 163.331 201.798C166.51 201.315 170.628 201.011 174.843 200.699C175.195 200.673 175.548 200.647 175.901 200.62C180.455 200.282 185.04 199.918 188.489 199.287C190.206 198.973 191.696 198.584 192.772 198.072C193.798 197.584 194.723 196.846 194.723 195.718C194.723 195.138 194.47 194.651 194.12 194.259C193.776 193.875 193.316 193.554 192.82 193.275C191.896 192.756 190.699 192.303 189.561 191.874C189.487 191.846 189.413 191.818 189.338 191.79C188.098 191.322 186.951 190.874 186.131 190.367C185.274 189.837 185.048 189.414 185.085 189.062C185.101 188.905 185.288 188.578 186.13 188.171C186.914 187.791 188.053 187.448 189.468 187.135C192.223 186.525 195.844 186.06 199.519 185.587L199.79 185.553C203.533 185.071 207.312 184.579 210.156 183.914C211.573 183.583 212.808 183.197 213.704 182.722C214.554 182.275 215.355 181.605 215.355 180.61C215.355 179.897 214.986 179.317 214.501 178.863C214.02 178.413 213.368 178.031 212.649 177.693C211.249 177.034 209.411 176.464 207.627 175.91L207.483 175.865C205.623 175.287 203.832 174.726 202.509 174.083C201.845 173.762 201.346 173.443 201.022 173.126C200.704 172.816 200.604 172.559 200.605 172.341V172.337C200.607 172.107 200.711 171.862 201.021 171.578C201.34 171.285 201.833 170.998 202.493 170.721C203.814 170.166 205.595 169.726 207.447 169.278L207.633 169.233C209.392 168.807 211.203 168.369 212.579 167.815C213.29 167.528 213.943 167.188 214.423 166.764C214.913 166.331 215.278 165.758 215.257 165.037C215.229 164.033 214.605 163.347 213.969 162.834C213.647 162.576 213.284 162.332 212.939 162.101L212.904 162.076C212.562 161.849 212.232 161.627 211.917 161.385C211.269 160.888 210.761 160.356 210.502 159.669C210.248 158.997 210.198 158.074 210.669 156.719V156.717C213.709 147.906 215.375 138.451 215.375 128.607V127.914H215.352C214.978 80.4702 176.23 42.1333 128.5 42.1333C80.5394 42.1333 41.636 80.8436 41.636 128.607C41.636 138.48 43.3022 147.964 46.3605 156.804L46.3756 156.848L46.3816 156.86C46.3858 156.872 46.3912 156.887 46.3977 156.906C46.4148 156.955 46.4363 157.019 46.458 157.083C46.4794 157.148 46.5005 157.211 46.5162 157.258L46.5349 157.315L46.5394 157.329M98.8239 203.61C98.8239 203.61 98.8223 203.609 98.8208 203.603C98.8231 203.607 98.8239 203.61 98.8239 203.61ZM187.294 152.958C190.434 145.457 192.175 137.23 192.175 128.597C192.175 93.5995 163.667 65.2219 128.51 65.2219C93.3527 65.2219 64.8454 93.5995 64.8454 128.597C64.8454 138.111 66.9648 147.132 70.7276 155.232C72.0275 157.933 73.8248 159.028 75.2144 159.874C76.3196 160.547 77.1668 161.063 77.3002 162.104C77.5166 163.817 74.9402 164.578 72.5076 165.299C70.3496 165.936 68.3045 166.54 68.4234 167.746C68.6266 169.795 73.5785 170.572 78.2724 171.308C82.5595 171.981 86.6312 172.621 86.6731 174.163C86.7154 175.701 83.4655 176.654 80.2146 177.609C76.7522 178.626 73.2885 179.643 73.8 181.365C74.3862 183.35 84.3166 184.059 94.238 184.765C104.39 185.491 114.532 186.215 114.645 188.304C114.772 190.645 107.7 191.508 101.287 192.291C96.3479 192.894 91.7999 193.45 91.233 194.595C89.8329 197.412 102.103 198.767 127.324 198.767C149.473 198.767 161.034 197.392 161.004 194.867C160.99 193.407 157.507 192.63 153.958 191.838C150.21 191.003 146.388 190.149 146.497 188.459C146.642 186.235 153.986 185.688 161.429 185.131C169.018 184.565 176.709 183.99 176.979 181.627C177.166 179.979 172.203 179.035 167.265 178.097C162.508 177.192 157.774 176.293 157.688 174.774C157.543 172.142 165.406 171.345 172.747 170.603C179.119 169.958 185.097 169.352 185.097 167.621C185.097 166.108 182.889 165.238 180.745 164.392C178.541 163.524 176.404 162.681 176.803 161.195C177.109 160.054 178.38 159.592 179.984 159.007C182.369 158.138 185.494 157.001 187.285 152.968L187.294 152.958ZM186.709 152.564C189.782 145.18 191.483 137.088 191.483 128.597C191.483 93.9859 163.291 65.9143 128.51 65.9143C93.7302 65.9143 65.5367 93.9859 65.5367 128.597C65.5367 138.005 67.632 146.925 71.3523 154.936C72.438 157.189 73.8808 158.232 75.1408 159.017C75.273 159.099 75.4078 159.181 75.543 159.263C76.033 159.561 76.5279 159.862 76.918 160.189C77.4514 160.637 77.8815 161.202 77.986 162.016C78.1424 163.254 77.2988 164.068 76.3947 164.589C75.4802 165.116 74.255 165.5 73.1173 165.84C72.9781 165.882 72.8401 165.922 72.7037 165.962C71.683 166.265 70.7526 166.54 70.0524 166.866C69.6573 167.049 69.3974 167.222 69.2491 167.379C69.1178 167.517 69.104 167.604 69.1113 167.678C69.1314 167.883 69.2683 168.142 69.7079 168.445C70.1465 168.748 70.7955 169.028 71.6307 169.287C73.2969 169.802 75.5071 170.172 77.7687 170.529C77.9743 170.561 78.1803 170.594 78.3863 170.626C80.4173 170.944 82.4473 171.263 84.0162 171.679C84.8771 171.908 85.6552 172.179 86.2348 172.527C86.7974 172.864 87.3433 173.381 87.3641 174.145M87.3641 174.145C87.3827 174.825 87.0156 175.365 86.5626 175.766C86.112 176.166 85.5018 176.501 84.837 176.792C83.5945 177.339 81.9806 177.812 80.4238 178.269C80.313 178.302 80.2023 178.334 80.0921 178.367C78.399 178.865 76.8153 179.347 75.7141 179.897C75.1605 180.173 74.7984 180.435 74.6032 180.67C74.4337 180.873 74.4174 181.014 74.4627 181.168C74.4617 181.165 74.4693 181.194 74.5226 181.25C74.5771 181.307 74.6669 181.38 74.8074 181.465C75.0915 181.636 75.5146 181.811 76.0857 181.983C77.2238 182.326 78.8185 182.619 80.7423 182.876C84.4995 183.377 89.387 183.725 94.302 184.077L94.6328 184.1C99.6426 184.457 104.657 184.821 108.433 185.356C110.316 185.623 111.93 185.937 113.095 186.328C113.673 186.522 114.185 186.749 114.569 187.028C114.947 187.304 115.306 187.707 115.336 188.267C115.383 189.15 114.81 189.792 114.136 190.235C113.454 190.682 112.513 191.037 111.45 191.331C109.312 191.925 106.453 192.34 103.599 192.703C102.847 192.797 102.095 192.89 101.355 192.98C99.2592 193.236 97.2542 193.481 95.5888 193.766C94.462 193.96 93.5256 194.166 92.8419 194.396C92.4999 194.51 92.2453 194.623 92.0702 194.729C91.8856 194.84 91.8498 194.909 91.8524 194.902L91.8518 194.904C91.8129 194.981 91.8161 195.019 91.8172 195.026C91.8182 195.036 91.8237 195.073 91.882 195.144C92.0175 195.31 92.3435 195.541 92.9847 195.789C94.2442 196.279 96.3598 196.705 99.374 197.049C105.378 197.736 114.718 198.074 127.324 198.074C138.391 198.074 146.786 197.731 152.401 197.075C155.214 196.748 157.291 196.345 158.646 195.885C159.327 195.654 159.78 195.423 160.048 195.214C160.313 195.006 160.313 194.89 160.313 194.874C160.311 194.816 160.282 194.662 159.955 194.423C159.633 194.186 159.133 193.949 158.466 193.715C157.203 193.272 155.531 192.898 153.788 192.509L153.509 192.447C151.698 192.043 149.826 191.615 148.421 191.072C147.721 190.803 147.08 190.482 146.611 190.083C146.134 189.679 145.762 189.122 145.808 188.414C145.872 187.43 146.72 186.822 147.588 186.436C148.508 186.024 149.761 185.719 151.191 185.472C153.999 184.992 157.688 184.716 161.355 184.443L161.595 184.424C165.366 184.142 169.092 183.859 171.91 183.356C173.324 183.105 174.458 182.806 175.241 182.45C176.069 182.073 176.27 181.741 176.292 181.548C176.293 181.534 176.297 181.504 176.252 181.438C176.197 181.357 176.087 181.244 175.881 181.107C175.467 180.833 174.812 180.559 173.941 180.289C172.208 179.751 169.844 179.292 167.409 178.829L167.117 178.775C164.8 178.333 162.444 177.885 160.635 177.361C159.698 177.09 158.859 176.784 158.237 176.425C157.659 176.09 157.042 175.579 156.998 174.813L156.998 174.811C156.943 173.808 157.623 173.097 158.434 172.613C159.256 172.12 160.398 171.742 161.696 171.432C164.304 170.809 167.786 170.415 171.22 170.062C171.709 170.012 172.197 169.963 172.68 169.913C175.629 169.614 178.457 169.329 180.655 168.937C181.939 168.709 182.955 168.453 183.636 168.16C183.977 168.013 184.189 167.875 184.307 167.762C184.363 167.708 184.388 167.67 184.397 167.65C184.406 167.633 184.406 167.625 184.406 167.621C184.406 167.24 184.129 166.818 183.327 166.325C182.565 165.854 181.542 165.451 180.455 165.023L180.401 165.001C179.338 164.581 178.197 164.13 177.38 163.578C176.968 163.299 176.583 162.96 176.335 162.534C176.075 162.084 175.988 161.568 176.135 161.015C176.405 160.007 177.202 159.44 178.04 159.037C178.465 158.833 178.941 158.652 179.426 158.474C179.535 158.434 179.643 158.394 179.753 158.354C180.142 158.212 180.539 158.068 180.95 157.904C183.017 157.078 185.259 155.826 186.654 152.686L186.705 152.568L186.709 152.564" fill="white"/>
</g>
<defs>
<clipPath id="clip0_1239_2">
<rect width="256" height="256" fill="white"/>
</clipPath>
</defs>
</svg>
