<svg width="256" height="256" viewBox="0 0 256 256" fill="none" xmlns="http://www.w3.org/2000/svg">
<g clip-path="url(#clip0_1239_2)">
<rect width="256" height="256" fill="#1E1E1E"/>
<rect width="256" height="256" fill="white"/>
<path d="M195 51H62V123.844C62 145.761 71.6793 192.789 128.5 205C185.321 192.789 195 145.761 195 123.844V51Z" fill="white"/>
<mask id="mask0_1239_2" style="mask-type:luminance" maskUnits="userSpaceOnUse" x="15" y="14" width="228" height="228">
<path d="M243 14H15V242H243V14Z" fill="white"/>
</mask>
<g mask="url(#mask0_1239_2)">
<path d="M128.999 48.3052C113.237 48.3054 97.8287 52.9796 84.7232 61.7367C71.6176 70.4938 61.4031 82.9404 55.3714 97.5027C49.3396 112.065 47.7615 128.089 50.8366 143.548C53.9117 159.007 61.5019 173.207 72.6473 184.353C83.7928 195.498 97.9928 203.088 113.452 206.164C128.911 209.239 144.935 207.661 159.497 201.629C174.06 195.597 186.506 185.382 195.263 172.277C204.02 159.171 208.695 143.763 208.695 128.001C208.695 117.535 206.634 107.172 202.629 97.5027C198.624 87.8334 192.753 79.0477 185.353 71.6472C177.952 64.2467 169.167 58.3764 159.497 54.3713C149.828 50.3663 139.465 48.305 128.999 48.3052ZM156.865 167.849H101.132C97.9539 167.849 94.9059 166.586 92.6586 164.339C90.4112 162.092 89.1485 159.044 89.1482 155.865V100.132C89.148 98.5582 89.4578 96.9997 90.06 95.5456C90.6621 94.0915 91.5449 92.7703 92.6578 91.6574C93.7706 90.5444 95.0917 89.6616 96.5458 89.0592C97.9998 88.4569 99.5583 88.1469 101.132 88.1469H156.865C158.439 88.1469 159.998 88.4569 161.452 89.0592C162.906 89.6616 164.227 90.5444 165.34 91.6574C166.453 92.7703 167.335 94.0915 167.938 95.5456C168.54 96.9997 168.85 98.5582 168.849 100.132V155.865C168.847 159.043 167.584 162.089 165.336 164.335C163.089 166.581 160.041 167.843 156.864 167.843L156.865 167.849Z" fill="#FF5500"/>
</g>
</g>
<defs>
<clipPath id="clip0_1239_2">
<rect width="256" height="256" fill="white"/>
</clipPath>
</defs>
</svg>
