<svg width="256" height="256" viewBox="0 0 256 256" fill="none" xmlns="http://www.w3.org/2000/svg">
<g clip-path="url(#clip0_1239_2)">
<rect width="256" height="256" fill="#141118"/>
<mask id="mask0_1239_2" style="mask-type:luminance" maskUnits="userSpaceOnUse" x="28" y="28" width="200" height="201">
<path d="M228 28.0737H28V228.811H228V28.0737Z" fill="white"/>
</mask>
<g mask="url(#mask0_1239_2)">
<path d="M96.75 176.815L94.597 178.06L94.5986 175.567C94.5986 175.567 94.5686 176.842 95.1421 177.161C95.7039 177.473 96.75 176.815 96.75 176.815Z" fill="#8E3315"/>
<path d="M41.5032 174.245C53.637 197.263 74.3896 214.5 99.1954 222.169C124.002 229.838 150.829 227.308 173.776 215.135C196.724 202.961 213.911 182.143 221.557 157.258C229.204 132.374 226.631 105.461 214.497 82.4424C225.437 117.036 187.345 129.189 187.345 129.189L141.241 153.362L93.3251 178.432C93.3251 178.432 60.6684 199.522 41.5032 174.245Z" fill="#473ADE"/>
<path d="M41.3317 174.413C53.4655 197.432 74.218 214.672 99.0239 222.341C123.83 230.01 150.658 227.479 173.605 215.306C196.552 203.133 213.739 182.314 221.386 157.43C229.031 132.545 226.512 105.633 214.377 82.6147C225.32 117.208 187.174 129.361 187.174 129.361L141.069 153.533L93.1535 178.604C93.1535 178.604 60.4969 199.691 41.3317 174.413Z" fill="url(#paint0_linear_1239_2)"/>
<path d="M186.117 126.789L189.676 128.525L185.919 130.037C185.919 130.037 187.531 129.273 187.723 128.525C187.912 127.791 186.117 126.789 186.117 126.789Z" fill="#251E73"/>
<path d="M215.089 173.217C226.937 150.05 229.128 123.109 221.174 98.3209C213.222 73.5333 195.779 52.9294 172.683 41.042C149.588 29.1545 122.731 26.9573 98.0213 34.9336C73.3119 42.9099 52.7734 60.4063 40.9246 83.5739C62.9117 54.7527 94.7009 79.146 94.7009 79.146L140.871 103.193L188.812 128.214C188.812 128.214 224.753 142.975 215.089 173.217Z" fill="#D71D6A"/>
<path d="M214.854 173.122C226.669 150.024 228.851 123.163 220.921 98.449C212.992 73.7353 195.601 53.1927 172.575 41.3408C149.548 29.4888 122.771 27.2981 98.135 35.2506C73.4991 43.2032 53.0218 60.6475 41.2083 83.7461C63.1299 55.0108 94.8246 79.3313 94.8246 79.3313L140.857 103.306L188.655 128.253C188.655 128.253 224.49 142.97 214.854 173.122Z" fill="url(#paint1_linear_1239_2)"/>
<path d="M94.6115 81.4735L94.5713 78.8633L96.8448 80.1334C96.8448 80.1334 95.697 79.4571 95.1144 79.8214C94.5438 80.1784 94.6115 81.4735 94.6115 81.4735Z" fill="#741039"/>
<path d="M128.014 30.1929C102.058 30.1929 77.1646 40.5375 58.8107 58.9511C40.4567 77.3648 30.1456 102.339 30.1456 128.38C30.1456 154.421 40.4567 179.395 58.8107 197.808C77.1646 216.222 102.058 226.566 128.014 226.566C94.7012 220.956 94.7012 177.659 94.7012 177.659V128.38V78.2291C94.7012 78.2291 94.7012 36.1744 128.014 30.1929Z" fill="#FF5B25"/>
<path d="M128.014 29.9634C102.058 29.9634 77.1646 40.308 58.8107 58.7216C40.4568 77.1352 30.1456 102.11 30.1456 128.15C30.1456 154.191 40.4567 179.165 58.8107 197.579C77.1646 215.992 102.058 226.336 128.014 226.336C94.7012 215.66 94.7012 177.712 94.7012 177.712V128.272V79.1463C94.7012 79.1463 93.4893 36.3262 128.014 29.9634Z" fill="url(#paint2_linear_1239_2)"/>
<path d="M128.014 29.9634C102.058 29.9634 77.1646 40.308 58.8107 58.7216C40.4568 77.1352 30.1456 102.11 30.1456 128.15C30.1456 154.191 40.4567 179.165 58.8107 197.579C77.1646 215.992 102.058 226.336 128.014 226.336C94.7012 215.66 94.7012 177.712 94.7012 177.712V128.272V79.1463C94.7012 79.1463 93.4893 36.3262 128.014 29.9634Z" fill="url(#paint3_linear_1239_2)" fill-opacity="0.3"/>
<path d="M127.757 226.523C94.701 211.418 94.74 177.697 94.74 177.697C94.74 177.697 53.769 200.883 39.9761 171.229C39.9761 171.229 63.0978 226.72 127.757 226.523Z" fill="#473ADE"/>
</g>
</g>
<defs>
<linearGradient id="paint0_linear_1239_2" x1="214.385" y1="117.185" x2="71.5359" y2="257.777" gradientUnits="userSpaceOnUse">
<stop stop-opacity="0.6"/>
<stop offset="0.655513" stop-opacity="0"/>
</linearGradient>
<linearGradient id="paint1_linear_1239_2" x1="69.3587" y1="63.986" x2="265.644" y2="99.8829" gradientUnits="userSpaceOnUse">
<stop stop-opacity="0.6"/>
<stop offset="0.645833" stop-opacity="0"/>
</linearGradient>
<linearGradient id="paint2_linear_1239_2" x1="82.5571" y1="214.174" x2="24.0001" y2="34.3849" gradientUnits="userSpaceOnUse">
<stop stop-opacity="0.6"/>
<stop offset="0.675464" stop-opacity="0"/>
</linearGradient>
<linearGradient id="paint3_linear_1239_2" x1="82.5571" y1="214.174" x2="24.0001" y2="34.3849" gradientUnits="userSpaceOnUse">
<stop stop-opacity="0.6"/>
<stop offset="0.675464" stop-opacity="0"/>
</linearGradient>
<clipPath id="clip0_1239_2">
<rect width="256" height="256" fill="white"/>
</clipPath>
</defs>
</svg>
