<svg width="256" height="257" viewBox="0 0 256 257" fill="none" xmlns="http://www.w3.org/2000/svg">
<g clip-path="url(#clip0_177_2)">
<path d="M0 0.5V256.5H256V0.5H0ZM128 235.167C69.3333 235.167 21.3333 187.167 21.3333 128.5C21.3333 69.8333 69.3333 21.8333 128 21.8333C186.667 21.8333 234.667 69.8333 234.667 128.5C234.667 187.167 186.667 235.167 128 235.167Z" fill="#FF0420"/>
<path d="M128 34.6333V74.6333C86.9334 74.6333 53.8667 107.7 53.8667 148.767C53.8667 189.833 86.9334 222.9 128 222.9V182.9C169.067 182.9 202.133 149.833 202.133 108.767C202.133 67.7 169.067 34.6333 128 34.6333ZM128.533 165.3C120.533 149.3 108.267 137.033 92.2667 129.033C108.267 120.5 120.533 108.233 128.533 91.7C136.533 107.7 148.8 119.967 164.8 127.967C148.8 136.5 136.533 148.767 128.533 165.3Z" fill="white"/>
<path d="M128.533 91.7C120.533 108.233 108.267 120.5 92.2666 129.033C108.267 137.033 120.533 149.3 128.533 165.3C136.533 148.767 148.8 136.5 164.8 127.967C148.8 119.967 136.533 107.7 128.533 91.7Z" fill="#FF0420"/>
<path d="M128 21.8333C69.3332 21.8333 21.3333 69.8332 21.3333 128.5C21.3333 187.167 69.3332 235.167 128 235.167C186.667 235.167 234.667 187.167 234.667 128.5C234.667 69.8332 186.667 21.8333 128 21.8333ZM128 182.9V222.9C86.9333 222.9 53.8666 189.833 53.8666 148.767C53.8666 107.7 86.9333 74.6332 128 74.6332V34.6333C169.067 34.6333 202.133 67.6999 202.133 108.767C202.133 149.833 169.067 182.9 128 182.9Z" fill="#FF0420"/>
</g>
<defs>
<clipPath id="clip0_177_2">
<rect width="256" height="256" fill="white" transform="translate(0 0.5)"/>
</clipPath>
</defs>
</svg>
