<svg width="256" height="256" viewBox="0 0 256 256" fill="none" xmlns="http://www.w3.org/2000/svg">
<g clip-path="url(#clip0_1239_2)">
<circle cx="128" cy="128" r="98" fill="black"/>
<rect width="256" height="256" fill="white"/>
<mask id="mask0_1239_2" style="mask-type:luminance" maskUnits="userSpaceOnUse" x="31" y="31" width="194" height="194">
<path d="M225 31H31V225H225V31Z" fill="white"/>
</mask>
<g mask="url(#mask0_1239_2)">
<path d="M127.811 225C181.487 225 225 181.487 225 127.811C225 74.1343 181.487 30.6211 127.811 30.6211C74.1343 30.6211 30.6211 74.1343 30.6211 127.811C30.6211 181.487 74.1343 225 127.811 225Z" fill="white"/>
<path d="M161.787 81.1914H96.9945V95.414H161.787V81.1914Z" fill="#E50913"/>
<path d="M163.027 131.56C163.027 136.572 161.877 141.174 159.576 145.365C157.275 149.474 153.741 152.802 148.975 155.35C144.209 157.897 138.292 159.171 131.225 159.171H118.159V190.234H97.0804V103.702H131.225C138.128 103.702 143.962 104.893 148.728 107.276C153.495 109.66 157.069 112.947 159.453 117.138C161.836 121.328 163.027 126.136 163.027 131.56ZM129.622 142.407C133.649 142.407 136.648 141.462 138.621 139.572C140.593 137.682 141.579 135.011 141.579 131.56C141.579 128.108 140.593 125.437 138.621 123.547C136.648 121.657 133.649 120.712 129.622 120.712H118.159V142.407H129.622Z" fill="black"/>
</g>
</g>
<defs>
<clipPath id="clip0_1239_2">
<rect width="256" height="256" fill="white"/>
</clipPath>
</defs>
</svg>
