<svg width="256" height="256" viewBox="0 0 256 256" fill="none" xmlns="http://www.w3.org/2000/svg">
<g clip-path="url(#clip0_1239_2)">
<rect width="256" height="256" fill="black"/>
<path d="M127.5 226C181.348 226 225 182.348 225 128.5C225 74.6522 181.348 31 127.5 31C73.6522 31 30 74.6522 30 128.5C30 182.348 73.6522 226 127.5 226Z" fill="url(#paint0_linear_1239_2)"/>
<path fill-rule="evenodd" clip-rule="evenodd" d="M127.5 218C176.929 218 217 177.706 217 128C217 78.2944 176.929 38 127.5 38C78.0705 38 38 78.2944 38 128C38 177.706 78.0705 218 127.5 218ZM127.5 210.41C172.736 210.41 209.406 173.514 209.406 128C209.406 82.4865 172.736 45.5904 127.5 45.5904C82.2645 45.5904 45.5939 82.4865 45.5939 128C45.5939 173.514 82.2645 210.41 127.5 210.41Z" fill="black"/>
<path d="M119 107.927V108L112.195 71.8235L106.548 70L103 74.8138L119 107.927Z" fill="black"/>
<path d="M123 93.2242L125.892 107L129 93.009L125.964 91L123 93.2242Z" fill="black"/>
<path d="M144.568 95L141.091 95.3847L137 110L146 98.5385L144.568 95Z" fill="black"/>
<path d="M176 97.6369V91.8012L170.369 90L144 115L176 97.6369Z" fill="black"/>
<path d="M111 113L102.488 101L98.619 101.582L98 105.218L111 113Z" fill="black"/>
<path d="M161.753 125L147 127.854L161.753 131L164 128L161.753 125Z" fill="black"/>
<path d="M104 128.364L67.5316 124L64 128.5L67.5316 133L104 128.364Z" fill="black"/>
<path d="M90.1111 136.5L89 139.857L92.037 142L105 135L90.1111 136.5Z" fill="black"/>
<path d="M95.1489 146.442L95 149.844L98.5745 151L109 141L95.1489 146.442Z" fill="black"/>
<path d="M113 145L102 155.133L102.96 158.846L106.725 159L113 145Z" fill="black"/>
<path d="M125.927 149L123 163.789L126 166L129 163.713L125.927 149Z" fill="black"/>
<path d="M176 158.32L144 141L170.453 166L176 164.189V158.32Z" fill="black"/>
<path d="M141 160.937L133 148L134.822 162.852L138.624 164L141 160.937Z" fill="black"/>
<path d="M119 148L104 181.186L107.356 186L112.699 184.176L119 148Z" fill="black"/>
</g>
<defs>
<linearGradient id="paint0_linear_1239_2" x1="81.2011" y1="214.017" x2="155.824" y2="31" gradientUnits="userSpaceOnUse">
<stop stop-color="#3FAD6C"/>
<stop offset="1" stop-color="#6EC2B7"/>
</linearGradient>
<clipPath id="clip0_1239_2">
<rect width="256" height="256" fill="white"/>
</clipPath>
</defs>
</svg>
