<svg width="256" height="256" viewBox="0 0 256 256" fill="none" xmlns="http://www.w3.org/2000/svg">
<g clip-path="url(#clip0_1239_2)">
<circle cx="128" cy="128" r="98" fill="black"/>
<rect width="256" height="256" fill="black"/>
<path fill-rule="evenodd" clip-rule="evenodd" d="M127.24 227C156.167 227 182.189 214.597 200.25 194.832L195.445 189.542C189.497 182.996 179.358 182.436 172.718 188.288L162.466 197.325C148.519 209.62 127.32 208.845 114.317 195.565L107.907 189.017C101.751 182.73 91.6641 182.511 85.238 188.525L66.4347 206.122C83.1979 219.203 104.306 227 127.24 227ZM209.338 177.055L211.672 179.625C220.764 164.721 226 147.221 226 128.5C226 105.8 218.301 84.8936 205.365 68.2363C202.961 68.8511 200.662 70.0276 198.677 71.7772L188.426 80.8142C174.479 93.1088 153.279 92.3339 140.277 79.0539L133.867 72.5065C127.71 66.2193 117.624 66.0001 111.198 72.014L84.8201 96.6997L71.9877 83.136L98.3652 58.4502C112.232 45.4729 133.999 45.9458 147.282 59.5132L153.692 66.0606C159.719 72.2147 169.542 72.5738 176.006 66.8762L186.257 57.8393C187.978 56.3227 189.807 55.0057 191.717 53.8865C174.416 39.0011 151.882 30 127.24 30C77.6966 30 36.6735 66.3859 29.5692 113.826C43.0885 106.065 60.6423 108.094 71.9976 119.692L79.4113 127.263C85.1737 133.149 94.4692 133.77 100.971 128.703L122.948 111.579C136.139 101.301 154.812 101.798 167.431 112.764L197.356 138.767L185.036 152.792L155.11 126.789C149.263 121.707 140.609 121.477 134.497 126.241L112.52 143.365C98.4891 154.297 78.4303 152.957 65.9955 140.257L58.582 132.685C52.4261 126.398 42.3393 126.179 35.9132 132.193L29 138.662C31.138 159.467 39.7683 178.354 52.8371 193.275L72.4057 174.961C86.2725 161.984 108.039 162.456 121.322 176.024L127.733 182.572C133.759 188.725 143.583 189.085 150.046 183.388L160.298 174.351C174.624 161.722 196.504 162.929 209.338 177.055Z" fill="url(#paint0_linear_1239_2)"/>
</g>
<defs>
<linearGradient id="paint0_linear_1239_2" x1="127.5" y1="30" x2="166.227" y2="227" gradientUnits="userSpaceOnUse">
<stop stop-color="#780000"/>
<stop offset="1" stop-color="#C1121F"/>
</linearGradient>
<clipPath id="clip0_1239_2">
<rect width="256" height="256" fill="white"/>
</clipPath>
</defs>
</svg>
