<svg width="256" height="256" viewBox="0 0 256 256" fill="none" xmlns="http://www.w3.org/2000/svg">
<g clip-path="url(#clip0_1239_2)">
<rect width="256" height="256" fill="#1E1E1E"/>
<rect width="256" height="256" fill="#142D51"/>
<path fill-rule="evenodd" clip-rule="evenodd" d="M57 46H200V123.976C200 135.577 197.277 153.827 187.398 170.807C177.426 187.944 160.287 203.553 128.5 210C96.7159 203.554 79.5749 187.946 69.6003 170.81C59.7211 153.825 57 135.575 57 123.972V46ZM194.893 51.125V123.972C194.893 145.89 185.229 192.919 128.5 204.875C71.7708 192.919 62.1071 145.89 62.1071 123.972V51.125H194.893Z" fill="#00B6FA"/>
<path d="M195 51H62V123.844C62 145.761 71.6793 192.789 128.5 205C185.321 192.789 195 145.761 195 123.844V51Z" fill="#142D51"/>
<path d="M178 70H78V103.137L145.953 159.289L139.599 164.544L78 113.639V124.145C78 146.103 89.9897 179.622 128 186C160.327 180.578 173.832 155.521 177.149 134.639C177.22 134.19 110.047 78.4913 110.047 78.4913H122.754L178 124.141V70Z" fill="#10A0EC"/>
</g>
<defs>
<clipPath id="clip0_1239_2">
<rect width="256" height="256" fill="white"/>
</clipPath>
</defs>
</svg>
