<svg width="256" height="256" viewBox="0 0 256 256" fill="none" xmlns="http://www.w3.org/2000/svg">
<g clip-path="url(#clip0_666_8)">
<path d="M256 0H0V256H256V0Z" fill="white"/>
<path d="M140.106 178.761C123.029 182.814 104.317 178.194 90.9918 164.859C73.7845 147.646 70.4041 122.131 82.8353 101.933C87.9604 93.5877 92.8456 88.598 97.0547 84.4145C114.458 67.1358 146.365 35.6289 146.365 35.6289C116.574 29.7459 84.4927 38.3308 61.397 61.4053C24.6489 98.1416 24.6489 157.713 61.397 194.449C72.7813 205.823 86.3901 213.689 100.806 218.025L140.106 178.761Z" fill="black"/>
<path d="M115.854 77.0938C132.93 73.0411 151.642 77.6604 164.967 90.9952C182.175 108.209 185.555 133.723 173.124 153.922C167.999 162.267 163.114 167.257 158.904 171.44C141.523 188.741 109.616 220.204 109.616 220.204C139.407 226.087 171.488 217.524 194.584 194.449C231.332 157.713 231.332 98.142 194.584 61.4058C183.2 50.0101 169.591 42.1443 155.175 37.8301L115.875 77.0938H115.854Z" fill="black"/>
</g>
<defs>
<clipPath id="clip0_666_8">
<rect width="256" height="256" fill="white"/>
</clipPath>
</defs>
</svg>
