<svg width="256" height="256" viewBox="0 0 256 256" fill="none" xmlns="http://www.w3.org/2000/svg">
<g clip-path="url(#clip0_666_2)">
<path d="M256 0H0V256H256V0Z" fill="white"/>
<path d="M147.613 151.379C111.635 162.181 81.8728 177.939 63.2381 196.401L62.416 197.223C67.3724 201.91 72.8053 206.105 78.6761 209.67L79.9364 208.125C85.0235 201.91 90.4795 195.909 96.1582 190.255C111.404 175.066 128.848 161.92 147.628 151.364L147.605 151.379H147.613Z" fill="#141416"/>
<path d="M33 135.375C34.437 154.636 41.5912 172.299 52.8181 186.666L53.3329 186.151C64.8673 174.773 79.8826 164.432 97.9947 155.42C113.871 147.514 132.098 140.73 151.747 135.375H33Z" fill="#141416"/>
<path d="M106.225 56.2101C138.415 88.2789 178.927 109.484 223.366 117.528C218.002 69.9858 177.529 33 128.356 33C115.37 33 102.99 35.5891 91.6863 40.2604C96.2738 45.7844 101.176 51.1625 106.225 56.2101Z" fill="#141416"/>
<path d="M63.2376 60.1358C81.8724 78.6209 111.634 94.3557 147.612 105.181C128.832 94.6091 111.388 81.479 96.1422 66.2898C90.4789 60.6506 85.0306 54.6501 79.9206 48.4193L78.6603 46.875C72.7893 50.4399 67.3565 54.6271 62.4231 59.3138L63.2454 60.1358H63.2376Z" fill="#141416"/>
<path d="M106.225 200.328C101.154 205.376 96.2585 210.754 91.6863 216.278C102.975 220.95 115.37 223.539 128.356 223.539C177.537 223.539 218.01 186.553 223.381 138.996C178.95 147.04 138.438 168.245 106.241 200.313L106.225 200.328Z" fill="#141416"/>
<path d="M97.9947 101.117C79.8826 92.105 64.8672 81.7563 53.3329 70.3854L52.8182 69.8706C41.5912 84.2378 34.437 101.901 33 121.162H151.724C132.083 115.807 113.871 109.023 97.9717 101.094L97.9869 101.117H97.9947Z" fill="#141416"/>
</g>
<defs>
<clipPath id="clip0_666_2">
<rect width="256" height="256" fill="white"/>
</clipPath>
</defs>
</svg>
