<svg width="256" height="256" viewBox="0 0 256 256" fill="none" xmlns="http://www.w3.org/2000/svg">
<rect width="256" height="256" fill="white"/>
<path d="M200.439 64.7955L176.073 77.2098L58.4115 137.141C58.0137 134.106 57.8135 131.049 57.8122 127.988C57.8283 115.777 61.0344 103.782 67.1128 93.1905C73.1913 82.5994 81.9312 73.78 92.4669 67.606C103.003 61.432 114.968 58.1176 127.179 57.991C139.39 57.8645 151.422 60.9302 162.083 66.8845L176.03 59.7785L178.111 58.7168C165.334 49.4437 150.243 43.8836 134.505 42.651C118.766 41.4185 102.993 44.5614 88.9293 51.7325C74.8653 58.9036 63.0579 69.8235 54.812 83.2855C46.5662 96.7475 42.2029 112.227 42.2045 128.014C42.2045 130.194 42.2873 132.366 42.4528 134.529C42.6846 137.593 42.0052 140.656 40.5001 143.334C38.995 146.013 36.7313 148.186 33.994 149.581L26.6396 153.33V170.822L48.2918 159.786L55.3037 156.207L62.2129 152.688L186.253 89.487L200.191 82.3895L229 67.7065V50.2238L200.439 64.7955Z" fill="black"/>
<path d="M229 85.2051L69.259 166.54L55.3208 173.654L26.6396 188.269V205.743L55.1239 191.231L79.4901 178.817L197.271 118.801C197.669 121.855 197.87 124.932 197.871 128.013C197.863 140.238 194.658 152.249 188.574 162.853C182.489 173.457 173.737 182.285 163.186 188.461C152.635 194.637 140.653 197.946 128.428 198.06C116.203 198.173 104.16 195.087 93.4968 189.108L92.6406 189.562L77.5209 197.267C90.2941 206.541 105.382 212.102 121.118 213.338C136.854 214.573 152.626 211.435 166.69 204.268C180.754 197.102 192.563 186.188 200.812 172.73C209.062 159.273 213.43 143.797 213.435 128.013C213.435 125.812 213.35 123.612 213.187 121.438C212.956 118.375 213.634 115.313 215.138 112.635C216.641 109.957 218.902 107.783 221.637 106.386L229 102.636V85.2051Z" fill="black"/>
</svg>
