<svg width="256" height="256" viewBox="0 0 256 256" fill="none" xmlns="http://www.w3.org/2000/svg">
<g clip-path="url(#clip0_1239_2)">
<circle cx="128" cy="128" r="98" fill="black"/>
<rect width="256" height="256" fill="#E6007A"/>
<path d="M173.655 165.245C163.053 165.245 154.473 156.65 154.473 146.063V117.339H179.213V100.632H154.473V73L135.517 83.1209V100.632H99.5633C74.5019 100.632 67.9153 130.834 87.1933 142.079L106.793 155.253C111.13 158.466 109.363 165.213 103.258 165.213H76.5903V182.081H103.258C128.48 182.081 134.907 151.879 115.628 140.633L96.1897 127.46C91.8521 124.247 93.4586 117.339 99.5633 117.339H135.517V146.288C135.517 168.137 150.618 182.098 173.43 182.098H179.213V165.245H173.655Z" fill="white"/>
</g>
<defs>
<clipPath id="clip0_1239_2">
<rect width="256" height="256" fill="white"/>
</clipPath>
</defs>
</svg>
