<svg width="256" height="256" viewBox="0 0 256 256" fill="none" xmlns="http://www.w3.org/2000/svg">
<g clip-path="url(#clip0_1255_8)">
<path d="M256 0H0V256H256V0Z" fill="white"/>
<path fill-rule="evenodd" clip-rule="evenodd" d="M256 256H0V0H256V256Z" fill="black"/>
<path d="M83.8016 73.5091C84.2915 72.0358 85.6694 71.041 87.2225 71.041H195.906C197.201 71.041 198.117 72.3094 197.707 73.5395L186.706 106.545C186.216 108.018 184.836 109.013 183.283 109.013H151.27C149.717 109.013 148.339 110.008 147.849 111.481L124.177 182.492C123.687 183.965 122.309 184.96 120.756 184.96H86.4975C85.2027 184.96 84.2873 183.692 84.6975 182.462L108.346 111.515C108.756 110.285 107.841 109.016 106.546 109.016H74.6003C73.3055 109.016 72.3902 107.748 72.8001 106.517L83.8016 73.5091Z" fill="white"/>
</g>
<defs>
<clipPath id="clip0_1255_8">
<rect width="256" height="256" fill="white"/>
</clipPath>
</defs>
</svg>
