<svg width="256" height="256" viewBox="0 0 256 256" fill="none" xmlns="http://www.w3.org/2000/svg">
<g clip-path="url(#clip0_1239_2)">
<circle cx="128" cy="128" r="98" fill="black"/>
<rect width="256" height="256" fill="black"/>
<path d="M115.18 181.968C120.189 200.408 138.088 214.483 147.125 213.924C147.44 213.924 181.416 207.568 200.015 176.52C214.481 152.352 209.578 129.022 189.893 128.498C182.887 129.022 105.828 146.834 115.18 181.968Z" fill="url(#paint0_linear_1239_2)"/>
<path d="M188.036 63.5031C175.646 52.9679 160.519 46.144 144.404 43.8202C128.288 41.4965 111.842 43.7677 96.9662 50.3714C95.0798 51.1551 93.2433 52.0532 91.467 53.0606C90.2761 53.6893 89.0501 54.3529 87.9643 55.0513H88.2795C84.7466 57.4627 81.6345 60.4359 79.0675 63.8524C54.3735 96.4372 137.387 120.256 181.836 120.326C202.292 134.994 208.036 79.0446 188.036 63.5031Z" fill="url(#paint1_linear_1239_2)"/>
<path d="M102.01 64.1665C90.5915 81.3146 52.5523 93.3986 46.2825 91.5126L47.0531 89.941C49.1805 85.7216 51.6279 81.6702 54.3737 77.8221C59.9487 70.3495 66.6202 63.7564 74.1639 58.2643C76.4936 56.5095 78.9137 54.8775 81.4144 53.3748C85.2503 51.1881 89.5718 49.9879 93.9891 49.8823C110.942 50.1966 102.08 63.8522 102.01 63.8522" fill="url(#paint2_linear_1239_2)"/>
<path d="M92.6229 185.355C93.4636 190.734 92.6229 212.003 91.5021 213.819C90.5563 213.819 88.5948 213.994 82.8504 210.781C79.8408 209.075 76.9397 207.185 74.1638 205.123C70.4341 202.367 66.9212 199.332 63.6557 196.042C60.3477 192.795 57.3025 189.291 54.5487 185.565C48.9392 177.978 44.5763 169.548 41.6238 160.594C40.0766 156.04 38.9051 151.368 38.1211 146.624C36.5332 136.85 36.5332 126.886 38.1211 117.112C38.9132 112.37 40.0845 107.699 41.6238 103.143C41.904 102.235 42.2193 101.327 42.5695 100.418C49.1196 109.15 56.5803 117.043 63.2004 125.844C69.8204 134.645 77.8066 147.916 79.5229 150.85C90.0309 168.976 91.9224 180.187 92.728 185.565" fill="url(#paint3_linear_1239_2)"/>
<path d="M219 131.711C219.012 143.15 216.861 154.489 212.66 165.134C201.942 176.624 129.611 148.3 128.911 147.986C118.998 143.655 88.9101 130.524 86.178 109.778C82.3951 79.9875 142.746 59.2422 169.332 58.439C172.519 58.439 182.222 58.439 187.861 63.1887C197.661 71.7285 205.51 82.2633 210.882 94.0834C216.253 105.904 219.022 118.734 219 131.711Z" fill="url(#paint4_linear_1239_2)"/>
<path d="M169.962 212.387C162.081 216.089 153.395 213.4 155.671 205.716C159.98 191.013 197.704 175.891 206.145 175.087C207.161 175.087 207.616 175.681 207.161 176.484C198.452 191.747 185.544 204.205 169.962 212.387Z" fill="url(#paint5_linear_1239_2)"/>
</g>
<defs>
<linearGradient id="paint0_linear_1239_2" x1="161.381" y1="213.924" x2="161.381" y2="128.498" gradientUnits="userSpaceOnUse">
<stop stop-color="#4366C2"/>
<stop offset="0.15" stop-color="#3458B8"/>
<stop offset="0.4" stop-color="#2348AC"/>
<stop offset="0.67" stop-color="#193FA5"/>
<stop offset="1" stop-color="#163CA3"/>
</linearGradient>
<linearGradient id="paint1_linear_1239_2" x1="137.492" y1="122.735" x2="137.492" y2="42.8975" gradientUnits="userSpaceOnUse">
<stop stop-color="#4366C2"/>
<stop offset="0.15" stop-color="#3458B8"/>
<stop offset="0.4" stop-color="#2348AC"/>
<stop offset="0.67" stop-color="#193FA5"/>
<stop offset="1" stop-color="#163CA3"/>
</linearGradient>
<linearGradient id="paint2_linear_1239_2" x1="46.2474" y1="70.907" x2="104.392" y2="70.907" gradientUnits="userSpaceOnUse">
<stop stop-color="#58C66B"/>
<stop offset="1" stop-color="#5491F6"/>
</linearGradient>
<linearGradient id="paint3_linear_1239_2" x1="36.8602" y1="157.031" x2="92.9732" y2="157.031" gradientUnits="userSpaceOnUse">
<stop stop-color="#58C66B"/>
<stop offset="1" stop-color="#5491F6"/>
</linearGradient>
<linearGradient id="paint4_linear_1239_2" x1="86.0029" y1="113.166" x2="219" y2="113.166" gradientUnits="userSpaceOnUse">
<stop stop-color="#58C66B"/>
<stop offset="1" stop-color="#5491F6"/>
</linearGradient>
<linearGradient id="paint5_linear_1239_2" x1="155.356" y1="194.54" x2="207.406" y2="194.54" gradientUnits="userSpaceOnUse">
<stop stop-color="#58C66B"/>
<stop offset="1" stop-color="#5491F6"/>
</linearGradient>
<clipPath id="clip0_1239_2">
<rect width="256" height="256" fill="white"/>
</clipPath>
</defs>
</svg>
