<svg width="256" height="256" viewBox="0 0 256 256" fill="none" xmlns="http://www.w3.org/2000/svg">
<g clip-path="url(#clip0_1239_2)">
<rect width="256" height="256" fill="#121015"/>
<path d="M207.65 114.566L201.17 106.169L164.139 82.2656C164.26 82.9683 164.392 83.671 164.544 84.3676C164.839 85.6614 165.164 86.9483 165.518 88.2272C165.729 89.0062 165.946 89.7676 166.17 90.5114C166.241 90.7382 166.308 90.9691 166.372 91.1979C173.691 114.712 188.295 125.884 207.899 140.855C209.176 132.863 209.257 124.725 208.14 116.709L207.65 114.566Z" fill="#EF7730"/>
<path d="M135.72 148.5C100.076 132.546 77.793 100.165 76.4943 67.5771C76.4813 67.2672 76.3807 66.9674 76.2043 66.7125C76.028 66.4575 75.7829 66.2578 75.4977 66.1365C75.2125 66.0153 74.8988 65.9774 74.593 66.0274C74.2871 66.0773 74.0017 66.2131 73.7698 66.4188C64.4415 74.6476 57.106 84.8924 52.3187 96.3777C47.5313 107.863 45.4176 120.288 46.1375 132.711C46.8574 145.135 50.392 157.232 56.4739 168.087C62.5557 178.941 71.0253 188.269 81.2415 195.363C91.4578 202.458 103.153 207.133 115.442 209.036C127.73 210.938 140.29 210.018 152.171 206.345C164.052 202.671 174.942 196.341 184.017 187.833C193.091 179.325 200.113 168.863 204.551 157.237C204.66 156.958 204.69 156.654 204.639 156.359C204.588 156.063 204.456 155.787 204.259 155.562C204.062 155.336 203.807 155.168 203.521 155.077C203.236 154.986 202.931 154.975 202.639 155.046C180.229 160.409 156.669 158.105 135.72 148.5ZM209 116.644C206.101 109.936 206.101 109.936 128.38 81.8415C89.2584 67.696 81.9904 54.0445 110.315 47.8656C111.694 47.569 113.085 47.3052 114.487 47.0742C125.272 45.3115 136.3 45.7214 146.924 48.2799C157.548 50.8383 167.555 55.4939 176.358 61.9736C185.161 68.4532 192.583 76.6266 198.188 86.0144C203.793 95.4022 207.469 105.816 209 116.644Z" fill="#F9D85E"/>
</g>
<defs>
<clipPath id="clip0_1239_2">
<rect width="256" height="256" fill="white"/>
</clipPath>
</defs>
</svg>
