<svg width="256" height="256" viewBox="0 0 256 256" fill="none" xmlns="http://www.w3.org/2000/svg">
<g clip-path="url(#clip0_1239_2)">
<circle cx="128" cy="128" r="98" fill="black"/>
<rect width="256" height="256" fill="white"/>
<mask id="mask0_1239_2" style="mask-type:luminance" maskUnits="userSpaceOnUse" x="0" y="0" width="256" height="256">
<path d="M256 0H0V256H256V0Z" fill="white"/>
</mask>
<g mask="url(#mask0_1239_2)">
<path d="M128 236C187.647 236 236 187.647 236 128C236 68.3532 187.647 20 128 20C68.3532 20 20 68.3532 20 128C20 187.647 68.3532 236 128 236Z" fill="white"/>
<path d="M38.72 65.9982V117.524V115.506C39.1137 159.533 76.9175 197.12 123.68 197.12C170.443 197.12 208.246 161.551 208.64 117.524V65.9982C208.64 65.9982 196.826 60.4227 183.437 73.7847C174.873 82.3403 167.981 113.294 149.571 113.487C124.96 113.871 108.224 81.9558 88.239 70.0357C67.2697 57.5388 38.72 65.9982 38.72 65.9982Z" fill="url(#paint0_linear_1239_2)"/>
<path d="M38.72 65.9982V117.524V115.506C39.1137 159.533 76.9175 197.12 123.68 197.12C170.443 197.12 208.246 161.551 208.64 117.524V65.9982C208.64 65.9982 196.826 60.4227 183.437 73.7847C174.873 82.3403 167.981 113.294 149.571 113.487C124.96 113.871 108.224 81.9558 88.239 70.0357C67.2697 57.5388 38.72 65.9982 38.72 65.9982Z" fill="url(#paint1_linear_1239_2)"/>
<path d="M208.64 118.713V79.7464C203.819 80.5844 197.915 83.0983 191.716 89.1738C182.074 98.6011 174.4 132.645 153.738 132.959C126.189 133.378 107.396 98.182 84.9634 84.9838C69.3194 75.9754 49.9365 77.0229 38.72 78.8036V118.817V116.408C39.1135 167.735 76.9938 211.52 123.631 211.52C170.366 211.52 208.246 170.039 208.64 118.713Z" fill="url(#paint2_linear_1239_2)"/>
<path d="M208.64 118.713V79.7464C203.819 80.5844 197.915 83.0983 191.716 89.1738C182.074 98.6011 174.4 132.645 153.738 132.959C126.189 133.378 107.396 98.182 84.9634 84.9838C69.3194 75.9754 49.9365 77.0229 38.72 78.8036V118.817V116.408C39.1135 167.735 76.9938 211.52 123.631 211.52C170.366 211.52 208.246 170.039 208.64 118.713Z" fill="url(#paint3_linear_1239_2)"/>
<path d="M208.64 118.481V109.555C205 111.026 200.965 113.441 196.833 117.221C186.403 126.672 178.139 160.801 155.902 161.116C126.189 161.536 106.019 126.252 81.8149 113.021C67.8435 105.565 50.9204 105.04 38.72 106.09V118.586V116.171C39.1135 167.626 76.9938 211.52 123.631 211.52C170.366 211.52 208.246 169.937 208.64 118.481Z" fill="url(#paint4_linear_1239_2)"/>
</g>
</g>
<defs>
<linearGradient id="paint0_linear_1239_2" x1="25.5369" y1="165.423" x2="240.45" y2="50.3362" gradientUnits="userSpaceOnUse">
<stop stop-color="#FDA9FF"/>
<stop offset="0.028" stop-color="#F9AAFF"/>
<stop offset="0.243" stop-color="#DCB3FF"/>
<stop offset="0.367" stop-color="#D1B6FF"/>
<stop offset="0.89" stop-color="#4DFFE5"/>
</linearGradient>
<linearGradient id="paint1_linear_1239_2" x1="114.149" y1="130.672" x2="135.557" y2="50.2854" gradientUnits="userSpaceOnUse">
<stop stop-color="#16183C" stop-opacity="0.3"/>
<stop offset="0.867" stop-color="#16183C" stop-opacity="0"/>
</linearGradient>
<linearGradient id="paint2_linear_1239_2" x1="32.8402" y1="172.024" x2="231.339" y2="89.5089" gradientUnits="userSpaceOnUse">
<stop stop-color="#FDA9FF"/>
<stop offset="0.028" stop-color="#F9AAFF"/>
<stop offset="0.243" stop-color="#DCB3FF"/>
<stop offset="0.367" stop-color="#D1B6FF"/>
<stop offset="0.89" stop-color="#4DFFE5"/>
</linearGradient>
<linearGradient id="paint3_linear_1239_2" x1="104.202" y1="152.101" x2="137.161" y2="88.4638" gradientUnits="userSpaceOnUse">
<stop stop-color="#16183C" stop-opacity="0.3"/>
<stop offset="0.867" stop-color="#16183C" stop-opacity="0"/>
</linearGradient>
<linearGradient id="paint4_linear_1239_2" x1="24.4937" y1="185.146" x2="202.069" y2="121.274" gradientUnits="userSpaceOnUse">
<stop stop-color="#FDA9FF"/>
<stop offset="0.028" stop-color="#F9AAFF"/>
<stop offset="0.243" stop-color="#DCB3FF"/>
<stop offset="0.367" stop-color="#D1B6FF"/>
<stop offset="0.89" stop-color="#4DFFE5"/>
</linearGradient>
<clipPath id="clip0_1239_2">
<rect width="256" height="256" fill="white"/>
</clipPath>
</defs>
</svg>
