<svg width="256" height="256" viewBox="0 0 256 256" fill="none" xmlns="http://www.w3.org/2000/svg">
<g clip-path="url(#clip0_122_2)">
<rect width="256" height="256" fill="black"/>
<path d="M128 256C198.692 256 256 198.692 256 128C256 57.3075 198.692 0 128 0C57.3075 0 0 57.3075 0 128C0 198.692 57.3075 256 128 256Z" fill="black"/>
<path d="M137.496 133.229C148.813 133.229 159.79 137.234 168.151 145.082L215 189H192.536L157.012 155.711C151.787 150.83 144.82 148.22 137.504 148.22C130.189 148.22 123.222 150.83 117.997 155.711L82.4733 189H60.0089L106.858 145.082C115.219 137.243 126.187 133.229 137.513 133.229H137.496ZM137.496 122.78C126.178 122.78 115.201 118.775 106.84 110.926L60 67H82.4644L117.988 100.289C123.213 105.17 130.18 107.78 137.496 107.78C144.811 107.78 151.778 105.17 157.003 100.289L192.527 67H214.991L168.142 110.917C159.781 118.757 148.813 122.771 137.487 122.771L137.496 122.78Z" fill="white"/>
<path d="M98 128.504L48.8649 170.239C45.197 173.567 41 171.993 41 167.082V89.9184C41 85.0074 45.197 83.4334 48.8649 86.7613L98 128.495V128.504Z" fill="white"/>
</g>
<defs>
<clipPath id="clip0_122_2">
<rect width="256" height="256" fill="white"/>
</clipPath>
</defs>
</svg>
