<svg xmlns="http://www.w3.org/2000/svg" width="60" height="60" fill="none">
  <rect width="60" height="60" fill="#000" />
  <path fill="#fff" fill-rule="evenodd"
    d="M14 30.405V28.87c1.384-.231 2.214-1.024 2.49-2.377.004-1.537.037-3.073.101-4.607.332-1.68 1.296-2.861 2.893-3.542a5.586 5.586 0 0 1 2.415-.322v1.535c-1.515-.141-2.663.42-3.446 1.685a3.482 3.482 0 0 0-.352 1.189l-.05 4.21c-.196 1.253-.808 2.252-1.837 2.997 1.029.746 1.641 1.745 1.836 2.997l.05 4.806c.24 1.539 1.12 2.521 2.642 2.947.25.052.5.077.755.074v1.536c-1.827-.029-3.244-.805-4.252-2.328a4.728 4.728 0 0 1-.704-2.13 76.211 76.211 0 0 0-.126-4.78.9.9 0 0 0-.075-.57c-.434-.993-1.214-1.588-2.34-1.784ZM46 28.87v1.535c-1.361.226-2.191 1.002-2.49 2.328a145.498 145.498 0 0 1-.101 5.152c-.508 2.333-1.942 3.696-4.302 4.087-.218.025-.435.033-.654.025V40.46c1.552-.05 2.634-.777 3.245-2.18.099-.29.166-.587.201-.891.002-1.703.036-3.403.101-5.102a4.261 4.261 0 0 1 1.786-2.65c-1.04-.718-1.652-1.7-1.836-2.948l-.05-4.26c-.228-1.563-1.142-2.512-2.743-2.849a3.673 3.673 0 0 0-1.031.025c-.025-.528-.034-1.057-.025-1.585 2.258-.14 3.91.768 4.956 2.724.168.382.285.778.352 1.19.064 1.534.097 3.07.1 4.606.3 1.327 1.13 2.103 2.491 2.328ZM28.138 29.167a6.782 6.782 0 0 1-1.308-.867 275.367 275.367 0 0 0-4.578-4.26 27.065 27.065 0 0 1 2.314 0 175.295 175.295 0 0 1 3.673 3.368c.811.58 1.7.728 2.667.446.248-.09.483-.205.704-.347l3.824-3.467a18.037 18.037 0 0 1 2.314.024 199.484 199.484 0 0 0-3.874 3.617 15.64 15.64 0 0 1-1.409 1.164c-1.407.766-2.85.873-4.327.322ZM28.136 29.167c-.03.03-.03.03 0 0ZM29.547 30.455a4.913 4.913 0 0 1 3.17.867 335.27 335.27 0 0 1 5.082 4.656c-.788.033-1.577.033-2.365 0l-3.673-3.418c-1.14-.733-2.272-.758-3.396-.074a189.147 189.147 0 0 0-3.799 3.492c-.788.033-1.576.033-2.365 0l4.83-4.458a5.02 5.02 0 0 1 2.516-1.065Z"
    clip-rule="evenodd" />
</svg>